<?xml version="1.0" encoding="UTF-8" standalone="no"?>
<!DOCTYPE svg PUBLIC "-//W3C//DTD SVG 1.1//EN"
 "http://www.w3.org/Graphics/SVG/1.1/DTD/svg11.dtd">
<!-- Generated by graphviz version 2.40.1 (20161225.0304)
 -->
<!-- Title: ApplyPaalmanPingsCorrection_TwoFactorCorrection Pages: 1 -->
<svg width="1198pt" height="648pt"
 viewBox="0.00 0.00 1197.50 648.00" xmlns="http://www.w3.org/2000/svg" xmlns:xlink="http://www.w3.org/1999/xlink">
<g id="graph0" class="graph" transform="scale(1 1) rotate(0) translate(4 644)">
<title>ApplyPaalmanPingsCorrection_TwoFactorCorrection</title>
<polygon fill="#ffffff" stroke="transparent" points="-4,4 -4,-644 1193.5,-644 1193.5,4 -4,4"/>
<text text-anchor="middle" x="594.75" y="-624.8" font-family="Helvetica,sans-Serif" font-size="14.00" fill="#000000">ApplyPaalmanPingsCorrection Two Factor Corrections Flowchart</text>
<!-- IsAccInWavelength -->
<g id="node1" class="node">
<title>IsAccInWavelength</title>
<polygon fill="#32cd32" stroke="#000000" points="521.5,-443 406.7106,-425 521.5,-407 636.2894,-425 521.5,-443"/>
<text text-anchor="middle" x="521.5" y="-421.3" font-family="Helvetica,sans-Serif" font-size="14.00" fill="#000000">Is in Wavelength?</text>
</g>
<!-- ConvertUnits_Acc -->
<g id="node14" class="node">
<title>ConvertUnits_Acc</title>
<path fill="#87cefa" stroke="#000000" d="M465,-356C465,-356 394,-356 394,-356 388,-356 382,-350 382,-344 382,-344 382,-332 382,-332 382,-326 388,-320 394,-320 394,-320 465,-320 465,-320 471,-320 477,-326 477,-332 477,-332 477,-344 477,-344 477,-350 471,-356 465,-356"/>
<text text-anchor="middle" x="429.5" y="-334.3" font-family="Helvetica,sans-Serif" font-size="14.00" fill="#000000">ConvertUnits</text>
</g>
<!-- IsAccInWavelength&#45;&gt;ConvertUnits_Acc -->
<g id="edge3" class="edge">
<title>IsAccInWavelength&#45;&gt;ConvertUnits_Acc</title>
<path fill="none" stroke="#000000" d="M505.0522,-409.4461C491.4608,-396.5934 471.9004,-378.0961 456.0879,-363.1429"/>
<polygon fill="#000000" stroke="#000000" points="458.3396,-360.4551 448.669,-356.1272 453.5299,-365.5411 458.3396,-360.4551"/>
<text text-anchor="middle" x="489.5" y="-377.8" font-family="Helvetica,sans-Serif" font-size="14.00" fill="#000000">No</text>
</g>
<!-- Divide_Can -->
<g id="node20" class="node">
<title>Divide_Can</title>
<path fill="#87cefa" stroke="#000000" d="M486.5,-269C486.5,-269 456.5,-269 456.5,-269 450.5,-269 444.5,-263 444.5,-257 444.5,-257 444.5,-245 444.5,-245 444.5,-239 450.5,-233 456.5,-233 456.5,-233 486.5,-233 486.5,-233 492.5,-233 498.5,-239 498.5,-245 498.5,-245 498.5,-257 498.5,-257 498.5,-263 492.5,-269 486.5,-269"/>
<text text-anchor="middle" x="471.5" y="-247.3" font-family="Helvetica,sans-Serif" font-size="14.00" fill="#000000">Divide</text>
</g>
<!-- IsAccInWavelength&#45;&gt;Divide_Can -->
<g id="edge17" class="edge">
<title>IsAccInWavelength&#45;&gt;Divide_Can</title>
<path fill="none" stroke="#000000" d="M524.676,-407.3351C528.7083,-379.9609 532.9985,-326.3515 513.5,-287 511.5813,-283.1276 509.0393,-279.5043 506.1526,-276.1621"/>
<polygon fill="#000000" stroke="#000000" points="508.4544,-273.5131 498.922,-268.8888 503.4901,-278.4483 508.4544,-273.5131"/>
<text text-anchor="middle" x="591.5" y="-334.3" font-family="Helvetica,sans-Serif" font-size="14.00" fill="#000000">Yes, RHSWorkspace</text>
</g>
<!-- IsAssInWavelength -->
<g id="node2" class="node">
<title>IsAssInWavelength</title>
<polygon fill="#32cd32" stroke="#000000" points="769.5,-443 654.7106,-425 769.5,-407 884.2894,-425 769.5,-443"/>
<text text-anchor="middle" x="769.5" y="-421.3" font-family="Helvetica,sans-Serif" font-size="14.00" fill="#000000">Is in Wavelength?</text>
</g>
<!-- ConvertUnits_Ass -->
<g id="node15" class="node">
<title>ConvertUnits_Ass</title>
<path fill="#87cefa" stroke="#000000" d="M757,-356C757,-356 686,-356 686,-356 680,-356 674,-350 674,-344 674,-344 674,-332 674,-332 674,-326 680,-320 686,-320 686,-320 757,-320 757,-320 763,-320 769,-326 769,-332 769,-332 769,-344 769,-344 769,-350 763,-356 757,-356"/>
<text text-anchor="middle" x="721.5" y="-334.3" font-family="Helvetica,sans-Serif" font-size="14.00" fill="#000000">ConvertUnits</text>
</g>
<!-- IsAssInWavelength&#45;&gt;ConvertUnits_Ass -->
<g id="edge4" class="edge">
<title>IsAssInWavelength&#45;&gt;ConvertUnits_Ass</title>
<path fill="none" stroke="#000000" d="M760.2451,-408.2255C753.4962,-395.9931 744.2074,-379.1571 736.4166,-365.0364"/>
<polygon fill="#000000" stroke="#000000" points="739.4504,-363.2898 731.5551,-356.2248 733.3214,-366.6714 739.4504,-363.2898"/>
<text text-anchor="middle" x="756.5" y="-377.8" font-family="Helvetica,sans-Serif" font-size="14.00" fill="#000000">No</text>
</g>
<!-- Divide_Sample -->
<g id="node19" class="node">
<title>Divide_Sample</title>
<path fill="#87cefa" stroke="#000000" d="M820.5,-269C820.5,-269 790.5,-269 790.5,-269 784.5,-269 778.5,-263 778.5,-257 778.5,-257 778.5,-245 778.5,-245 778.5,-239 784.5,-233 790.5,-233 790.5,-233 820.5,-233 820.5,-233 826.5,-233 832.5,-239 832.5,-245 832.5,-245 832.5,-257 832.5,-257 832.5,-263 826.5,-269 820.5,-269"/>
<text text-anchor="middle" x="805.5" y="-247.3" font-family="Helvetica,sans-Serif" font-size="14.00" fill="#000000">Divide</text>
</g>
<!-- IsAssInWavelength&#45;&gt;Divide_Sample -->
<g id="edge14" class="edge">
<title>IsAssInWavelength&#45;&gt;Divide_Sample</title>
<path fill="none" stroke="#000000" d="M773.15,-407.3584C779.3975,-377.1622 792.1897,-315.3332 799.6804,-279.1279"/>
<polygon fill="#000000" stroke="#000000" points="803.1336,-279.7121 801.7323,-269.2103 796.2788,-278.2938 803.1336,-279.7121"/>
<text text-anchor="middle" x="854.5" y="-334.3" font-family="Helvetica,sans-Serif" font-size="14.00" fill="#000000">Yes, RHSWorkspace</text>
</g>
<!-- IsSampleInWavelength -->
<g id="node3" class="node">
<title>IsSampleInWavelength</title>
<polygon fill="#32cd32" stroke="#000000" points="1050.5,-443 935.7106,-425 1050.5,-407 1165.2894,-425 1050.5,-443"/>
<text text-anchor="middle" x="1050.5" y="-421.3" font-family="Helvetica,sans-Serif" font-size="14.00" fill="#000000">Is in Wavelength?</text>
</g>
<!-- ConvertUnits_Sample -->
<g id="node16" class="node">
<title>ConvertUnits_Sample</title>
<path fill="#87cefa" stroke="#000000" d="M1035,-356C1035,-356 964,-356 964,-356 958,-356 952,-350 952,-344 952,-344 952,-332 952,-332 952,-326 958,-320 964,-320 964,-320 1035,-320 1035,-320 1041,-320 1047,-326 1047,-332 1047,-332 1047,-344 1047,-344 1047,-350 1041,-356 1035,-356"/>
<text text-anchor="middle" x="999.5" y="-334.3" font-family="Helvetica,sans-Serif" font-size="14.00" fill="#000000">ConvertUnits</text>
</g>
<!-- IsSampleInWavelength&#45;&gt;ConvertUnits_Sample -->
<g id="edge5" class="edge">
<title>IsSampleInWavelength&#45;&gt;ConvertUnits_Sample</title>
<path fill="none" stroke="#000000" d="M1040.6667,-408.2255C1033.4959,-395.9931 1023.6266,-379.1571 1015.3489,-365.0364"/>
<polygon fill="#000000" stroke="#000000" points="1018.2602,-363.0818 1010.1835,-356.2248 1012.2213,-366.6218 1018.2602,-363.0818"/>
<text text-anchor="middle" x="1036.5" y="-377.8" font-family="Helvetica,sans-Serif" font-size="14.00" fill="#000000">No</text>
</g>
<!-- IsSampleInWavelength&#45;&gt;Divide_Sample -->
<g id="edge12" class="edge">
<title>IsSampleInWavelength&#45;&gt;Divide_Sample</title>
<path fill="none" stroke="#000000" d="M1056.5505,-407.577C1063.0085,-385.8326 1070.5449,-348.0898 1056.5,-320 1045.5681,-298.1362 1034.9394,-296.6955 1012.5,-287 982.5829,-274.0736 893.5776,-261.653 842.5478,-255.33"/>
<polygon fill="#000000" stroke="#000000" points="842.924,-251.85 832.5734,-254.1118 842.0753,-258.7984 842.924,-251.85"/>
<text text-anchor="middle" x="1126.5" y="-334.3" font-family="Helvetica,sans-Serif" font-size="14.00" fill="#000000">Yes, LHSWorkspace</text>
</g>
<!-- IsCanInWavelength -->
<g id="node4" class="node">
<title>IsCanInWavelength</title>
<polygon fill="#32cd32" stroke="#000000" points="167.5,-617 52.7106,-599 167.5,-581 282.2894,-599 167.5,-617"/>
<text text-anchor="middle" x="167.5" y="-595.3" font-family="Helvetica,sans-Serif" font-size="14.00" fill="#000000">Is in Wavelength?</text>
</g>
<!-- ScaleX -->
<g id="node11" class="node">
<title>ScaleX</title>
<path fill="#87cefa" stroke="#000000" d="M200,-443C200,-443 165,-443 165,-443 159,-443 153,-437 153,-431 153,-431 153,-419 153,-419 153,-413 159,-407 165,-407 165,-407 200,-407 200,-407 206,-407 212,-413 212,-419 212,-419 212,-431 212,-431 212,-437 206,-443 200,-443"/>
<text text-anchor="middle" x="182.5" y="-421.3" font-family="Helvetica,sans-Serif" font-size="14.00" fill="#000000">ScaleX</text>
</g>
<!-- IsCanInWavelength&#45;&gt;ScaleX -->
<g id="edge8" class="edge">
<title>IsCanInWavelength&#45;&gt;ScaleX</title>
<path fill="none" stroke="#000000" d="M198.6309,-585.6324C220.6227,-574.3293 248.4205,-555.8259 261.5,-530 268.729,-515.7262 268.118,-508.5672 261.5,-494 252.9839,-475.2549 236.5808,-459.6086 220.9183,-447.9802"/>
<polygon fill="#000000" stroke="#000000" points="222.538,-444.8398 212.3479,-441.9392 218.505,-450.5613 222.538,-444.8398"/>
<text text-anchor="middle" x="278.5" y="-508.3" font-family="Helvetica,sans-Serif" font-size="14.00" fill="#000000">Yes</text>
</g>
<!-- ConvertUnits_Can -->
<g id="node17" class="node">
<title>ConvertUnits_Can</title>
<path fill="#87cefa" stroke="#000000" d="M83,-530C83,-530 12,-530 12,-530 6,-530 0,-524 0,-518 0,-518 0,-506 0,-506 0,-500 6,-494 12,-494 12,-494 83,-494 83,-494 89,-494 95,-500 95,-506 95,-506 95,-518 95,-518 95,-524 89,-530 83,-530"/>
<text text-anchor="middle" x="47.5" y="-508.3" font-family="Helvetica,sans-Serif" font-size="14.00" fill="#000000">ConvertUnits</text>
</g>
<!-- IsCanInWavelength&#45;&gt;ConvertUnits_Can -->
<g id="edge6" class="edge">
<title>IsCanInWavelength&#45;&gt;ConvertUnits_Can</title>
<path fill="none" stroke="#000000" d="M146.8713,-584.0442C128.6505,-570.8341 101.7567,-551.3361 80.5407,-535.9545"/>
<polygon fill="#000000" stroke="#000000" points="82.5761,-533.1071 72.4255,-530.071 78.4673,-538.7744 82.5761,-533.1071"/>
<text text-anchor="middle" x="124.5" y="-551.8" font-family="Helvetica,sans-Serif" font-size="14.00" fill="#000000">No</text>
</g>
<!-- SampleWorkspace -->
<g id="node5" class="node">
<title>SampleWorkspace</title>
<ellipse fill="#f0e68c" stroke="#000000" cx="385.5" cy="-599" rx="85.2851" ry="18"/>
<text text-anchor="middle" x="385.5" y="-595.3" font-family="Helvetica,sans-Serif" font-size="14.00" fill="#000000">SampleWorkspace</text>
</g>
<!-- CorrectionsWorkspace -->
<g id="node6" class="node">
<title>CorrectionsWorkspace</title>
<ellipse fill="#f0e68c" stroke="#000000" cx="645.5" cy="-512" rx="100.1823" ry="18"/>
<text text-anchor="middle" x="645.5" y="-508.3" font-family="Helvetica,sans-Serif" font-size="14.00" fill="#000000">CorrectionsWorkspace</text>
</g>
<!-- CorrectionsWorkspace&#45;&gt;IsAccInWavelength -->
<g id="edge1" class="edge">
<title>CorrectionsWorkspace&#45;&gt;IsAccInWavelength</title>
<path fill="none" stroke="#000000" d="M620.4067,-494.3943C600.3789,-480.3424 572.2726,-460.6227 551.1378,-445.7942"/>
<polygon fill="#000000" stroke="#000000" points="553.0348,-442.8497 542.8384,-439.9713 549.0143,-448.58 553.0348,-442.8497"/>
<text text-anchor="middle" x="604" y="-464.8" font-family="Helvetica,sans-Serif" font-size="14.00" fill="#000000">Ac,c</text>
</g>
<!-- CorrectionsWorkspace&#45;&gt;IsAssInWavelength -->
<g id="edge2" class="edge">
<title>CorrectionsWorkspace&#45;&gt;IsAssInWavelength</title>
<path fill="none" stroke="#000000" d="M670.5933,-494.3943C690.6211,-480.3424 718.7274,-460.6227 739.8622,-445.7942"/>
<polygon fill="#000000" stroke="#000000" points="741.9857,-448.58 748.1616,-439.9713 737.9652,-442.8497 741.9857,-448.58"/>
<text text-anchor="middle" x="728" y="-464.8" font-family="Helvetica,sans-Serif" font-size="14.00" fill="#000000">As,s</text>
</g>
<!-- CanWorkspace -->
<g id="node7" class="node">
<title>CanWorkspace</title>
<ellipse fill="#f0e68c" stroke="#000000" cx="560.5" cy="-599" rx="71.4873" ry="18"/>
<text text-anchor="middle" x="560.5" y="-595.3" font-family="Helvetica,sans-Serif" font-size="14.00" fill="#000000">CanWorkspace</text>
</g>
<!-- CanScaleFactor -->
<g id="node8" class="node">
<title>CanScaleFactor</title>
<ellipse fill="#f0e68c" stroke="#000000" cx="303.5" cy="-425" rx="73.387" ry="18"/>
<text text-anchor="middle" x="303.5" y="-421.3" font-family="Helvetica,sans-Serif" font-size="14.00" fill="#000000">CanScaleFactor</text>
</g>
<!-- Scale -->
<g id="node12" class="node">
<title>Scale</title>
<path fill="#87cefa" stroke="#000000" d="M312.5,-356C312.5,-356 282.5,-356 282.5,-356 276.5,-356 270.5,-350 270.5,-344 270.5,-344 270.5,-332 270.5,-332 270.5,-326 276.5,-320 282.5,-320 282.5,-320 312.5,-320 312.5,-320 318.5,-320 324.5,-326 324.5,-332 324.5,-332 324.5,-344 324.5,-344 324.5,-350 318.5,-356 312.5,-356"/>
<text text-anchor="middle" x="297.5" y="-334.3" font-family="Helvetica,sans-Serif" font-size="14.00" fill="#000000">Scale</text>
</g>
<!-- CanScaleFactor&#45;&gt;Scale -->
<g id="edge10" class="edge">
<title>CanScaleFactor&#45;&gt;Scale</title>
<path fill="none" stroke="#000000" d="M302.2568,-406.9735C301.4443,-395.1918 300.3663,-379.5607 299.4419,-366.1581"/>
<polygon fill="#000000" stroke="#000000" points="302.9214,-365.7388 298.7416,-356.0034 295.938,-366.2205 302.9214,-365.7388"/>
</g>
<!-- CanShiftFactor -->
<g id="node9" class="node">
<title>CanShiftFactor</title>
<ellipse fill="#f0e68c" stroke="#000000" cx="182.5" cy="-512" rx="69.5877" ry="18"/>
<text text-anchor="middle" x="182.5" y="-508.3" font-family="Helvetica,sans-Serif" font-size="14.00" fill="#000000">CanShiftFactor</text>
</g>
<!-- CanShiftFactor&#45;&gt;ScaleX -->
<g id="edge9" class="edge">
<title>CanShiftFactor&#45;&gt;ScaleX</title>
<path fill="none" stroke="#000000" d="M182.5,-493.9735C182.5,-482.1918 182.5,-466.5607 182.5,-453.1581"/>
<polygon fill="#000000" stroke="#000000" points="186.0001,-453.0033 182.5,-443.0034 179.0001,-453.0034 186.0001,-453.0033"/>
</g>
<!-- OutputWorkspace -->
<g id="node10" class="node">
<title>OutputWorkspace</title>
<ellipse fill="#f0e68c" stroke="#000000" cx="585.5" cy="-18" rx="81.7856" ry="18"/>
<text text-anchor="middle" x="585.5" y="-14.3" font-family="Helvetica,sans-Serif" font-size="14.00" fill="#000000">OutputWorkspace</text>
</g>
<!-- ScaleX&#45;&gt;Scale -->
<g id="edge11" class="edge">
<title>ScaleX&#45;&gt;Scale</title>
<path fill="none" stroke="#000000" d="M206.3281,-406.9735C223.5207,-393.9669 246.9145,-376.269 265.7003,-362.0571"/>
<polygon fill="#000000" stroke="#000000" points="267.8391,-364.8279 273.7025,-356.0034 263.6158,-359.2454 267.8391,-364.8279"/>
</g>
<!-- Scale&#45;&gt;Divide_Can -->
<g id="edge16" class="edge">
<title>Scale&#45;&gt;Divide_Can</title>
<path fill="none" stroke="#000000" d="M299.182,-319.5241C301.1445,-308.5823 305.3793,-295.2817 314.5,-287 331.8311,-271.2631 393.6457,-260.7122 434.3459,-255.295"/>
<polygon fill="#000000" stroke="#000000" points="434.9787,-258.7425 444.4513,-253.997 434.0868,-251.7996 434.9787,-258.7425"/>
<text text-anchor="middle" x="362" y="-290.8" font-family="Helvetica,sans-Serif" font-size="14.00" fill="#000000">LHSWorkspace</text>
</g>
<!-- Minus -->
<g id="node13" class="node">
<title>Minus</title>
<path fill="#87cefa" stroke="#000000" d="M600.5,-182C600.5,-182 570.5,-182 570.5,-182 564.5,-182 558.5,-176 558.5,-170 558.5,-170 558.5,-158 558.5,-158 558.5,-152 564.5,-146 570.5,-146 570.5,-146 600.5,-146 600.5,-146 606.5,-146 612.5,-152 612.5,-158 612.5,-158 612.5,-170 612.5,-170 612.5,-176 606.5,-182 600.5,-182"/>
<text text-anchor="middle" x="585.5" y="-160.3" font-family="Helvetica,sans-Serif" font-size="14.00" fill="#000000">Minus</text>
</g>
<!-- ConvertUnits_Final -->
<g id="node18" class="node">
<title>ConvertUnits_Final</title>
<path fill="#87cefa" stroke="#000000" d="M621,-109C621,-109 550,-109 550,-109 544,-109 538,-103 538,-97 538,-97 538,-85 538,-85 538,-79 544,-73 550,-73 550,-73 621,-73 621,-73 627,-73 633,-79 633,-85 633,-85 633,-97 633,-97 633,-103 627,-109 621,-109"/>
<text text-anchor="middle" x="585.5" y="-87.3" font-family="Helvetica,sans-Serif" font-size="14.00" fill="#000000">ConvertUnits</text>
</g>
<!-- Minus&#45;&gt;ConvertUnits_Final -->
<g id="edge21" class="edge">
<title>Minus&#45;&gt;ConvertUnits_Final</title>
<path fill="none" stroke="#000000" d="M585.5,-145.9551C585.5,-137.8828 585.5,-128.1764 585.5,-119.1817"/>
<polygon fill="#000000" stroke="#000000" points="589.0001,-119.0903 585.5,-109.0904 582.0001,-119.0904 589.0001,-119.0903"/>
</g>
<!-- ConvertUnits_Acc&#45;&gt;Divide_Can -->
<g id="edge18" class="edge">
<title>ConvertUnits_Acc&#45;&gt;Divide_Can</title>
<path fill="none" stroke="#000000" d="M418.6119,-319.7374C414.0884,-309.6406 411.0247,-297.1277 416.5,-287 420.83,-278.9907 427.8029,-272.4771 435.3509,-267.3049"/>
<polygon fill="#000000" stroke="#000000" points="437.6204,-270.0216 444.3518,-261.84 433.9875,-264.0381 437.6204,-270.0216"/>
<text text-anchor="middle" x="465" y="-290.8" font-family="Helvetica,sans-Serif" font-size="14.00" fill="#000000">RHSWorkspace</text>
</g>
<!-- ConvertUnits_Ass&#45;&gt;Divide_Sample -->
<g id="edge15" class="edge">
<title>ConvertUnits_Ass&#45;&gt;Divide_Sample</title>
<path fill="none" stroke="#000000" d="M701.9414,-319.8014C693.5022,-309.7246 687.0775,-297.2104 694.5,-287 703.4244,-274.7236 739.9266,-264.4854 768.6675,-258.105"/>
<polygon fill="#000000" stroke="#000000" points="769.4052,-261.5264 778.4519,-256.012 767.9409,-254.6813 769.4052,-261.5264"/>
<text text-anchor="middle" x="743" y="-290.8" font-family="Helvetica,sans-Serif" font-size="14.00" fill="#000000">RHSWorkspace</text>
</g>
<!-- ConvertUnits_Sample&#45;&gt;Divide_Sample -->
<g id="edge13" class="edge">
<title>ConvertUnits_Sample&#45;&gt;Divide_Sample</title>
<path fill="none" stroke="#000000" d="M959.3031,-319.9735C924.7567,-304.4811 875.3685,-282.3328 841.9534,-267.3477"/>
<polygon fill="#000000" stroke="#000000" points="843.1113,-264.0311 832.5546,-263.1327 840.2469,-270.4183 843.1113,-264.0311"/>
<text text-anchor="middle" x="961" y="-290.8" font-family="Helvetica,sans-Serif" font-size="14.00" fill="#000000">LHSWorkspace</text>
</g>
<!-- ConvertUnits_Can&#45;&gt;ScaleX -->
<g id="edge7" class="edge">
<title>ConvertUnits_Can&#45;&gt;ScaleX</title>
<path fill="none" stroke="#000000" d="M75.4721,-493.9735C95.9263,-480.792 123.8573,-462.792 146.057,-448.4855"/>
<polygon fill="#000000" stroke="#000000" points="148.054,-451.3624 154.5637,-443.0034 144.2621,-445.4784 148.054,-451.3624"/>
</g>
<!-- ConvertUnits_Final&#45;&gt;OutputWorkspace -->
<g id="edge22" class="edge">
<title>ConvertUnits_Final&#45;&gt;OutputWorkspace</title>
<path fill="none" stroke="#000000" d="M585.5,-72.9551C585.5,-64.8828 585.5,-55.1764 585.5,-46.1817"/>
<polygon fill="#000000" stroke="#000000" points="589.0001,-46.0903 585.5,-36.0904 582.0001,-46.0904 589.0001,-46.0903"/>
</g>
<!-- Divide_Sample&#45;&gt;Minus -->
<g id="edge19" class="edge">
<title>Divide_Sample&#45;&gt;Minus</title>
<path fill="none" stroke="#000000" d="M778.0817,-240.1573C738.6739,-224.5733 665.9423,-195.8113 622.0177,-178.4411"/>
<polygon fill="#000000" stroke="#000000" points="623.1592,-175.1288 612.5728,-174.706 620.5849,-181.6383 623.1592,-175.1288"/>
<text text-anchor="middle" x="756" y="-203.8" font-family="Helvetica,sans-Serif" font-size="14.00" fill="#000000">LHSWorkspace</text>
</g>
<!-- Divide_Can&#45;&gt;Minus -->
<g id="edge20" class="edge">
<title>Divide_Can&#45;&gt;Minus</title>
<path fill="none" stroke="#000000" d="M495.1209,-232.9735C512.0876,-220.0253 535.1465,-202.4276 553.726,-188.2485"/>
<polygon fill="#000000" stroke="#000000" points="556.0832,-190.8525 561.9094,-182.0034 551.8365,-185.2878 556.0832,-190.8525"/>
<text text-anchor="middle" x="583" y="-203.8" font-family="Helvetica,sans-Serif" font-size="14.00" fill="#000000">RHSWorkspace</text>
</g>
</g>
</svg>
