<?xml version="1.0" encoding="UTF-8" standalone="no"?>
<!DOCTYPE svg PUBLIC "-//W3C//DTD SVG 1.1//EN"
 "http://www.w3.org/Graphics/SVG/1.1/DTD/svg11.dtd">
<!-- Generated by graphviz version 2.40.1 (20161225.0304)
 -->
<!-- Title: Sample Pages: 1 -->
<svg width="746pt" height="1052pt"
 viewBox="0.00 0.00 745.93 1052.00" xmlns="http://www.w3.org/2000/svg" xmlns:xlink="http://www.w3.org/1999/xlink">
<g id="graph0" class="graph" transform="scale(1 1) rotate(0) translate(4 1048)">
<title>Sample</title>
<polygon fill="#ffffff" stroke="transparent" points="-4,4 -4,-1048 741.9279,-1048 741.9279,4 -4,4"/>
<!-- AverageCounts -->
<g id="node1" class="node">
<title>AverageCounts</title>
<polygon fill="#32cd32" stroke="#000000" points="324.6909,-324 223.4762,-306 324.6909,-288 425.9056,-306 324.6909,-324"/>
<text text-anchor="middle" x="324.6909" y="-302.3" font-family="Helvetica,sans-Serif" font-size="14.00" fill="#000000">AverageCounts</text>
</g>
<!-- OutputUnits -->
<g id="node6" class="node">
<title>OutputUnits</title>
<polygon fill="#32cd32" stroke="#000000" points="365.6909,-180 284.0804,-162 365.6909,-144 447.3013,-162 365.6909,-180"/>
<text text-anchor="middle" x="365.6909" y="-158.3" font-family="Helvetica,sans-Serif" font-size="14.00" fill="#000000">OutputUnits</text>
</g>
<!-- AverageCounts&#45;&gt;OutputUnits -->
<g id="edge29" class="edge">
<title>AverageCounts&#45;&gt;OutputUnits</title>
<path fill="none" stroke="#000000" d="M349.8261,-292.3023C364.0951,-283.0066 380.6658,-269.2711 388.6909,-252 398.413,-231.0765 390.0861,-205.4317 380.8468,-186.8769"/>
<polygon fill="#000000" stroke="#000000" points="383.8338,-185.041 376.0229,-177.8828 377.6651,-188.3496 383.8338,-185.041"/>
</g>
<!-- Plus -->
<g id="node22" class="node">
<title>Plus</title>
<path fill="#87cefa" stroke="#000000" d="M367.6909,-252C367.6909,-252 281.6909,-252 281.6909,-252 275.6909,-252 269.6909,-246 269.6909,-240 269.6909,-240 269.6909,-228 269.6909,-228 269.6909,-222 275.6909,-216 281.6909,-216 281.6909,-216 367.6909,-216 367.6909,-216 373.6909,-216 379.6909,-222 379.6909,-228 379.6909,-228 379.6909,-240 379.6909,-240 379.6909,-246 373.6909,-252 367.6909,-252"/>
<text text-anchor="middle" x="324.6909" y="-230.3" font-family="Helvetica,sans-Serif" font-size="14.00" fill="#000000">Average counts</text>
</g>
<!-- AverageCounts&#45;&gt;Plus -->
<g id="edge28" class="edge">
<title>AverageCounts&#45;&gt;Plus</title>
<path fill="none" stroke="#000000" d="M324.6909,-287.8314C324.6909,-280.131 324.6909,-270.9743 324.6909,-262.4166"/>
<polygon fill="#000000" stroke="#000000" points="328.191,-262.4132 324.6909,-252.4133 321.191,-262.4133 328.191,-262.4132"/>
</g>
<!-- SumOverlappingTubes -->
<g id="node23" class="node">
<title>SumOverlappingTubes</title>
<path fill="#87cefa" stroke="#000000" d="M239.6909,-252C239.6909,-252 107.6909,-252 107.6909,-252 101.6909,-252 95.6909,-246 95.6909,-240 95.6909,-240 95.6909,-228 95.6909,-228 95.6909,-222 101.6909,-216 107.6909,-216 107.6909,-216 239.6909,-216 239.6909,-216 245.6909,-216 251.6909,-222 251.6909,-228 251.6909,-228 251.6909,-240 251.6909,-240 251.6909,-246 245.6909,-252 239.6909,-252"/>
<text text-anchor="middle" x="173.6909" y="-230.3" font-family="Helvetica,sans-Serif" font-size="14.00" fill="#000000">SumOverlappingTubes</text>
</g>
<!-- AverageCounts&#45;&gt;SumOverlappingTubes -->
<g id="edge27" class="edge">
<title>AverageCounts&#45;&gt;SumOverlappingTubes</title>
<path fill="none" stroke="#000000" d="M296.9952,-292.7941C275.7051,-282.6426 245.7998,-268.3831 220.7726,-256.4495"/>
<polygon fill="#000000" stroke="#000000" points="221.9804,-253.148 211.4476,-252.0032 218.9676,-259.4665 221.9804,-253.148"/>
</g>
<!-- NormalisationMethod -->
<g id="node2" class="node">
<title>NormalisationMethod</title>
<polygon fill="#32cd32" stroke="#000000" points="278.6909,-756 144.2967,-738 278.6909,-720 413.0851,-738 278.6909,-756"/>
<text text-anchor="middle" x="278.6909" y="-734.3" font-family="Helvetica,sans-Serif" font-size="14.00" fill="#000000">NormalisationMethod</text>
</g>
<!-- OutputTreatment -->
<g id="node5" class="node">
<title>OutputTreatment</title>
<polygon fill="#32cd32" stroke="#000000" points="388.6909,-396 278.5928,-378 388.6909,-360 498.789,-378 388.6909,-396"/>
<text text-anchor="middle" x="388.6909" y="-374.3" font-family="Helvetica,sans-Serif" font-size="14.00" fill="#000000">OutputTreatment</text>
</g>
<!-- NormalisationMethod&#45;&gt;OutputTreatment -->
<g id="edge11" class="edge">
<title>NormalisationMethod&#45;&gt;OutputTreatment</title>
<path fill="none" stroke="#000000" d="M275.6554,-720.3267C271.2724,-693.2292 263.6909,-639.7462 263.6909,-594 263.6909,-594 263.6909,-594 263.6909,-522 263.6909,-478.4059 274.291,-465.0741 302.6909,-432 315.3641,-417.241 333.0899,-405.1727 349.1581,-396.2175"/>
<polygon fill="#000000" stroke="#000000" points="351.1957,-399.0978 358.3766,-391.3078 347.9051,-392.9194 351.1957,-399.0978"/>
</g>
<!-- Divide -->
<g id="node17" class="node">
<title>Divide</title>
<path fill="#87cefa" stroke="#000000" d="M633.6909,-684C633.6909,-684 549.6909,-684 549.6909,-684 543.6909,-684 537.6909,-678 537.6909,-672 537.6909,-672 537.6909,-660 537.6909,-660 537.6909,-654 543.6909,-648 549.6909,-648 549.6909,-648 633.6909,-648 633.6909,-648 639.6909,-648 645.6909,-654 645.6909,-660 645.6909,-660 645.6909,-672 645.6909,-672 645.6909,-678 639.6909,-684 633.6909,-684"/>
<text text-anchor="middle" x="591.6909" y="-662.3" font-family="Helvetica,sans-Serif" font-size="14.00" fill="#000000">Normalise data</text>
</g>
<!-- NormalisationMethod&#45;&gt;Divide -->
<g id="edge12" class="edge">
<title>NormalisationMethod&#45;&gt;Divide</title>
<path fill="none" stroke="#000000" d="M333.5513,-727.2279C382.1802,-717.4355 455.3126,-702.1154 527.7107,-684.1724"/>
<polygon fill="#000000" stroke="#000000" points="528.6009,-687.5576 537.4555,-681.74 526.9056,-680.766 528.6009,-687.5576"/>
</g>
<!-- CrossSectionSeparationMethod -->
<g id="node3" class="node">
<title>CrossSectionSeparationMethod</title>
<polygon fill="#32cd32" stroke="#000000" points="231.6909,-972 40.3213,-954 231.6909,-936 423.0605,-954 231.6909,-972"/>
<text text-anchor="middle" x="231.6909" y="-950.3" font-family="Helvetica,sans-Serif" font-size="14.00" fill="#000000">CrossSectionSeparationMethod</text>
</g>
<!-- CrossSectionSeparationMethod&#45;&gt;NormalisationMethod -->
<g id="edge2" class="edge">
<title>CrossSectionSeparationMethod&#45;&gt;NormalisationMethod</title>
<path fill="none" stroke="#000000" d="M217.2324,-937.2848C209.4963,-927.213 200.7463,-913.713 196.6909,-900 183.0785,-853.9706 173.9223,-834.2562 196.6909,-792 204.9938,-776.5907 219.8295,-764.8549 234.6211,-756.3248"/>
<polygon fill="#000000" stroke="#000000" points="236.6057,-759.2323 243.7666,-751.4238 233.2992,-753.0624 236.6057,-759.2323"/>
</g>
<!-- Minus -->
<g id="node13" class="node">
<title>Minus</title>
<path fill="#87cefa" stroke="#000000" d="M355.1909,-900C355.1909,-900 218.1909,-900 218.1909,-900 212.1909,-900 206.1909,-894 206.1909,-888 206.1909,-888 206.1909,-876 206.1909,-876 206.1909,-870 212.1909,-864 218.1909,-864 218.1909,-864 355.1909,-864 355.1909,-864 361.1909,-864 367.1909,-870 367.1909,-876 367.1909,-876 367.1909,-888 367.1909,-888 367.1909,-894 361.1909,-900 355.1909,-900"/>
<text text-anchor="middle" x="286.6909" y="-878.3" font-family="Helvetica,sans-Serif" font-size="14.00" fill="#000000">Separate cross&#45;sections</text>
</g>
<!-- CrossSectionSeparationMethod&#45;&gt;Minus -->
<g id="edge3" class="edge">
<title>CrossSectionSeparationMethod&#45;&gt;Minus</title>
<path fill="none" stroke="#000000" d="M244.7251,-936.937C251.2605,-928.3816 259.3197,-917.8314 266.6228,-908.271"/>
<polygon fill="#000000" stroke="#000000" points="269.4997,-910.2706 272.7887,-900.1992 263.937,-906.0212 269.4997,-910.2706"/>
</g>
<!-- AbsoluteNormalisation -->
<g id="node4" class="node">
<title>AbsoluteNormalisation</title>
<polygon fill="#32cd32" stroke="#000000" points="493.6909,-540 353.7668,-522 493.6909,-504 633.615,-522 493.6909,-540"/>
<text text-anchor="middle" x="493.6909" y="-518.3" font-family="Helvetica,sans-Serif" font-size="14.00" fill="#000000">AbsoluteNormalisation</text>
</g>
<!-- AbsoluteNormalisation&#45;&gt;OutputTreatment -->
<g id="edge22" class="edge">
<title>AbsoluteNormalisation&#45;&gt;OutputTreatment</title>
<path fill="none" stroke="#000000" d="M493.8984,-503.8063C493.2579,-484.3749 489.6745,-453.4802 474.6909,-432 463.7299,-416.2865 446.5776,-404.183 430.4656,-395.4561"/>
<polygon fill="#000000" stroke="#000000" points="431.6523,-392.1325 421.1539,-390.7063 428.4715,-398.3681 431.6523,-392.1325"/>
</g>
<!-- Divide5 -->
<g id="node21" class="node">
<title>Divide5</title>
<path fill="#87cefa" stroke="#000000" d="M453.6909,-468C453.6909,-468 323.6909,-468 323.6909,-468 317.6909,-468 311.6909,-462 311.6909,-456 311.6909,-456 311.6909,-444 311.6909,-444 311.6909,-438 317.6909,-432 323.6909,-432 323.6909,-432 453.6909,-432 453.6909,-432 459.6909,-432 465.6909,-438 465.6909,-444 465.6909,-444 465.6909,-456 465.6909,-456 465.6909,-462 459.6909,-468 453.6909,-468"/>
<text text-anchor="middle" x="388.6909" y="-446.3" font-family="Helvetica,sans-Serif" font-size="14.00" fill="#000000">Absolute normalisation</text>
</g>
<!-- AbsoluteNormalisation&#45;&gt;Divide5 -->
<g id="edge21" class="edge">
<title>AbsoluteNormalisation&#45;&gt;Divide5</title>
<path fill="none" stroke="#000000" d="M471.4231,-506.7307C457.5059,-497.1874 439.289,-484.6958 423.4929,-473.8642"/>
<polygon fill="#000000" stroke="#000000" points="425.2357,-470.8155 415.009,-468.0467 421.2769,-476.5886 425.2357,-470.8155"/>
</g>
<!-- OutputTreatment&#45;&gt;AverageCounts -->
<g id="edge24" class="edge">
<title>OutputTreatment&#45;&gt;AverageCounts</title>
<path fill="none" stroke="#000000" d="M374.4872,-362.0209C366.0356,-352.5128 355.1556,-340.2728 345.7224,-329.6604"/>
<polygon fill="#000000" stroke="#000000" points="348.1145,-327.0833 338.8549,-321.9345 342.8826,-331.7339 348.1145,-327.0833"/>
</g>
<!-- OutputTreatment&#45;&gt;OutputUnits -->
<g id="edge25" class="edge">
<title>OutputTreatment&#45;&gt;OutputUnits</title>
<path fill="none" stroke="#000000" d="M407.1318,-362.5514C417.3835,-352.7144 429.1592,-339.024 434.6909,-324 440.2191,-308.9854 437.8287,-303.6893 434.6909,-288 427.8922,-254.0065 421.6185,-246.2528 404.6909,-216 398.8111,-205.4917 391.2624,-194.5982 384.3751,-185.3711"/>
<polygon fill="#000000" stroke="#000000" points="387.1556,-183.2454 378.3028,-177.4248 381.5936,-187.4956 387.1556,-183.2454"/>
</g>
<!-- ConvertTo2Theta -->
<g id="node24" class="node">
<title>ConvertTo2Theta</title>
<ellipse fill="#d3d3d3" stroke="#000000" cx="287.6909" cy="-90" rx="79.0865" ry="18"/>
<text text-anchor="middle" x="287.6909" y="-86.3" font-family="Helvetica,sans-Serif" font-size="14.00" fill="#000000">ConvertTo2Theta</text>
</g>
<!-- OutputUnits&#45;&gt;ConvertTo2Theta -->
<g id="edge32" class="edge">
<title>OutputUnits&#45;&gt;ConvertTo2Theta</title>
<path fill="none" stroke="#000000" d="M349.9064,-147.4297C339.6818,-137.9916 326.1101,-125.4638 314.252,-114.5179"/>
<polygon fill="#000000" stroke="#000000" points="316.4814,-111.8127 306.7594,-107.6017 311.7334,-116.9563 316.4814,-111.8127"/>
</g>
<!-- ConvertToQ -->
<g id="node25" class="node">
<title>ConvertToQ</title>
<ellipse fill="#d3d3d3" stroke="#000000" cx="443.6909" cy="-90" rx="59.2899" ry="18"/>
<text text-anchor="middle" x="443.6909" y="-86.3" font-family="Helvetica,sans-Serif" font-size="14.00" fill="#000000">ConvertToQ</text>
</g>
<!-- OutputUnits&#45;&gt;ConvertToQ -->
<g id="edge33" class="edge">
<title>OutputUnits&#45;&gt;ConvertToQ</title>
<path fill="none" stroke="#000000" d="M381.4754,-147.4297C391.773,-137.9242 405.4658,-125.2847 417.3837,-114.2836"/>
<polygon fill="#000000" stroke="#000000" points="419.9315,-116.6949 424.9056,-107.3403 415.1835,-111.5513 419.9315,-116.6949"/>
</g>
<!-- InputWorkspace -->
<g id="node7" class="node">
<title>InputWorkspace</title>
<ellipse fill="#f0e68c" stroke="#000000" cx="231.6909" cy="-1026" rx="74.9875" ry="18"/>
<text text-anchor="middle" x="231.6909" y="-1022.3" font-family="Helvetica,sans-Serif" font-size="14.00" fill="#000000">InputWorkspace</text>
</g>
<!-- InputWorkspace&#45;&gt;CrossSectionSeparationMethod -->
<g id="edge1" class="edge">
<title>InputWorkspace&#45;&gt;CrossSectionSeparationMethod</title>
<path fill="none" stroke="#000000" d="M231.6909,-1007.8314C231.6909,-1000.131 231.6909,-990.9743 231.6909,-982.4166"/>
<polygon fill="#000000" stroke="#000000" points="235.191,-982.4132 231.6909,-972.4133 228.191,-982.4133 235.191,-982.4132"/>
</g>
<!-- RotatedXYZWorkspace -->
<g id="node8" class="node">
<title>RotatedXYZWorkspace</title>
<ellipse fill="#f0e68c" stroke="#000000" cx="487.6909" cy="-882" rx="102.8821" ry="18"/>
<text text-anchor="middle" x="487.6909" y="-878.3" font-family="Helvetica,sans-Serif" font-size="14.00" fill="#000000">RotatedXYZWorkspace</text>
</g>
<!-- Minus4 -->
<g id="node16" class="node">
<title>Minus4</title>
<path fill="#87cefa" stroke="#000000" d="M419.1909,-828C419.1909,-828 378.1909,-828 378.1909,-828 372.1909,-828 366.1909,-822 366.1909,-816 366.1909,-816 366.1909,-804 366.1909,-804 366.1909,-798 372.1909,-792 378.1909,-792 378.1909,-792 419.1909,-792 419.1909,-792 425.1909,-792 431.1909,-798 431.1909,-804 431.1909,-804 431.1909,-816 431.1909,-816 431.1909,-822 425.1909,-828 419.1909,-828"/>
<text text-anchor="middle" x="398.6909" y="-806.3" font-family="Helvetica,sans-Serif" font-size="14.00" fill="#000000">10&#45;point</text>
</g>
<!-- RotatedXYZWorkspace&#45;&gt;Minus4 -->
<g id="edge6" class="edge">
<title>RotatedXYZWorkspace&#45;&gt;Minus4</title>
<path fill="none" stroke="#000000" d="M465.6909,-864.2022C454.6494,-855.2698 441.0999,-844.3085 429.0819,-834.586"/>
<polygon fill="#000000" stroke="#000000" points="431.0318,-831.6615 421.056,-828.0931 426.6292,-837.1037 431.0318,-831.6615"/>
</g>
<!-- VanadiumInputWorkspace -->
<g id="node9" class="node">
<title>VanadiumInputWorkspace</title>
<ellipse fill="#f0e68c" stroke="#000000" cx="405.6909" cy="-666" rx="114.2798" ry="18"/>
<text text-anchor="middle" x="405.6909" y="-662.3" font-family="Helvetica,sans-Serif" font-size="14.00" fill="#000000">VanadiumInputWorkspace</text>
</g>
<!-- Divide2 -->
<g id="node18" class="node">
<title>Divide2</title>
<path fill="#87cefa" stroke="#000000" d="M432.6909,-612C432.6909,-612 378.6909,-612 378.6909,-612 372.6909,-612 366.6909,-606 366.6909,-600 366.6909,-600 366.6909,-588 366.6909,-588 366.6909,-582 372.6909,-576 378.6909,-576 378.6909,-576 432.6909,-576 432.6909,-576 438.6909,-576 444.6909,-582 444.6909,-588 444.6909,-588 444.6909,-600 444.6909,-600 444.6909,-606 438.6909,-612 432.6909,-612"/>
<text text-anchor="middle" x="405.6909" y="-590.3" font-family="Helvetica,sans-Serif" font-size="14.00" fill="#000000">Vanadium</text>
</g>
<!-- VanadiumInputWorkspace&#45;&gt;Divide2 -->
<g id="edge14" class="edge">
<title>VanadiumInputWorkspace&#45;&gt;Divide2</title>
<path fill="none" stroke="#000000" d="M405.6909,-647.8314C405.6909,-640.131 405.6909,-630.9743 405.6909,-622.4166"/>
<polygon fill="#000000" stroke="#000000" points="409.191,-622.4132 405.6909,-612.4133 402.191,-622.4133 409.191,-622.4132"/>
</g>
<!-- SampleAndEnvironmentProperties -->
<g id="node10" class="node">
<title>SampleAndEnvironmentProperties</title>
<ellipse fill="#f0e68c" stroke="#000000" cx="591.6909" cy="-738" rx="146.4744" ry="18"/>
<text text-anchor="middle" x="591.6909" y="-734.3" font-family="Helvetica,sans-Serif" font-size="14.00" fill="#000000">SampleAndEnvironmentProperties</text>
</g>
<!-- SampleAndEnvironmentProperties&#45;&gt;Divide -->
<g id="edge13" class="edge">
<title>SampleAndEnvironmentProperties&#45;&gt;Divide</title>
<path fill="none" stroke="#000000" d="M591.6909,-719.8314C591.6909,-712.131 591.6909,-702.9743 591.6909,-694.4166"/>
<polygon fill="#000000" stroke="#000000" points="595.191,-694.4132 591.6909,-684.4133 588.191,-694.4133 595.191,-694.4132"/>
</g>
<!-- ScatteringAngleBinSize -->
<g id="node11" class="node">
<title>ScatteringAngleBinSize</title>
<ellipse fill="#f0e68c" stroke="#000000" cx="102.6909" cy="-306" rx="102.8821" ry="18"/>
<text text-anchor="middle" x="102.6909" y="-302.3" font-family="Helvetica,sans-Serif" font-size="14.00" fill="#000000">ScatteringAngleBinSize</text>
</g>
<!-- ScatteringAngleBinSize&#45;&gt;SumOverlappingTubes -->
<g id="edge26" class="edge">
<title>ScatteringAngleBinSize&#45;&gt;SumOverlappingTubes</title>
<path fill="none" stroke="#000000" d="M120.2415,-288.2022C128.7957,-279.5275 139.237,-268.9391 148.6137,-259.4304"/>
<polygon fill="#000000" stroke="#000000" points="151.3197,-261.671 155.8491,-252.0931 146.3355,-256.756 151.3197,-261.671"/>
</g>
<!-- OutputWorkspace -->
<g id="node12" class="node">
<title>OutputWorkspace</title>
<polygon fill="#c0c0c0" stroke="#000000" points="476.2728,-36 300.3617,-36 255.109,0 431.02,0 476.2728,-36"/>
<text text-anchor="middle" x="365.6909" y="-14.3" font-family="Times,serif" font-size="14.00" fill="#000000">OutputWorkspace</text>
</g>
<!-- Minus2 -->
<g id="node14" class="node">
<title>Minus2</title>
<path fill="#87cefa" stroke="#000000" d="M259.1909,-828C259.1909,-828 218.1909,-828 218.1909,-828 212.1909,-828 206.1909,-822 206.1909,-816 206.1909,-816 206.1909,-804 206.1909,-804 206.1909,-798 212.1909,-792 218.1909,-792 218.1909,-792 259.1909,-792 259.1909,-792 265.1909,-792 271.1909,-798 271.1909,-804 271.1909,-804 271.1909,-816 271.1909,-816 271.1909,-822 265.1909,-828 259.1909,-828"/>
<text text-anchor="middle" x="238.6909" y="-806.3" font-family="Helvetica,sans-Serif" font-size="14.00" fill="#000000">Uniaxial</text>
</g>
<!-- Minus&#45;&gt;Minus2 -->
<g id="edge4" class="edge">
<title>Minus&#45;&gt;Minus2</title>
<path fill="none" stroke="#000000" d="M274.5785,-863.8314C269.1628,-855.7079 262.6667,-845.9637 256.6987,-837.0118"/>
<polygon fill="#000000" stroke="#000000" points="259.4256,-834.7923 250.9664,-828.4133 253.6013,-838.6753 259.4256,-834.7923"/>
</g>
<!-- Minus3 -->
<g id="node15" class="node">
<title>Minus3</title>
<path fill="#87cefa" stroke="#000000" d="M335.6909,-828C335.6909,-828 301.6909,-828 301.6909,-828 295.6909,-828 289.6909,-822 289.6909,-816 289.6909,-816 289.6909,-804 289.6909,-804 289.6909,-798 295.6909,-792 301.6909,-792 301.6909,-792 335.6909,-792 335.6909,-792 341.6909,-792 347.6909,-798 347.6909,-804 347.6909,-804 347.6909,-816 347.6909,-816 347.6909,-822 341.6909,-828 335.6909,-828"/>
<text text-anchor="middle" x="318.6909" y="-806.3" font-family="Helvetica,sans-Serif" font-size="14.00" fill="#000000">6&#45;point</text>
</g>
<!-- Minus&#45;&gt;Minus3 -->
<g id="edge5" class="edge">
<title>Minus&#45;&gt;Minus3</title>
<path fill="none" stroke="#000000" d="M294.7658,-863.8314C298.3011,-855.8771 302.5269,-846.369 306.4365,-837.5723"/>
<polygon fill="#000000" stroke="#000000" points="309.6441,-838.9729 310.5072,-828.4133 303.2474,-836.1299 309.6441,-838.9729"/>
</g>
<!-- Minus&#45;&gt;Minus4 -->
<g id="edge7" class="edge">
<title>Minus&#45;&gt;Minus4</title>
<path fill="none" stroke="#000000" d="M314.9532,-863.8314C329.1461,-854.7074 346.5191,-843.539 361.7544,-833.7449"/>
<polygon fill="#000000" stroke="#000000" points="363.9185,-836.5146 370.4376,-828.1628 360.1331,-830.6263 363.9185,-836.5146"/>
</g>
<!-- Minus2&#45;&gt;NormalisationMethod -->
<g id="edge8" class="edge">
<title>Minus2&#45;&gt;NormalisationMethod</title>
<path fill="none" stroke="#000000" d="M248.7846,-791.8314C253.5059,-783.3329 259.2127,-773.0608 264.37,-763.7776"/>
<polygon fill="#000000" stroke="#000000" points="267.4905,-765.3676 269.2874,-754.9263 261.3714,-761.9681 267.4905,-765.3676"/>
</g>
<!-- Minus3&#45;&gt;NormalisationMethod -->
<g id="edge9" class="edge">
<title>Minus3&#45;&gt;NormalisationMethod</title>
<path fill="none" stroke="#000000" d="M308.5972,-791.8314C303.8758,-783.3329 298.1691,-773.0608 293.0118,-763.7776"/>
<polygon fill="#000000" stroke="#000000" points="296.0104,-761.9681 288.0944,-754.9263 289.8913,-765.3676 296.0104,-761.9681"/>
</g>
<!-- Minus4&#45;&gt;NormalisationMethod -->
<g id="edge10" class="edge">
<title>Minus4&#45;&gt;NormalisationMethod</title>
<path fill="none" stroke="#000000" d="M368.4098,-791.8314C351.2635,-781.5435 329.7851,-768.6565 312.1426,-758.071"/>
<polygon fill="#000000" stroke="#000000" points="313.6853,-754.915 303.3096,-752.7712 310.0838,-760.9175 313.6853,-754.915"/>
</g>
<!-- Divide&#45;&gt;Divide2 -->
<g id="edge15" class="edge">
<title>Divide&#45;&gt;Divide2</title>
<path fill="none" stroke="#000000" d="M544.7552,-647.8314C517.1261,-637.1362 482.2402,-623.632 454.3217,-612.8248"/>
<polygon fill="#000000" stroke="#000000" points="455.3497,-609.4697 444.7605,-609.1237 452.8227,-615.9977 455.3497,-609.4697"/>
</g>
<!-- Divide3 -->
<g id="node19" class="node">
<title>Divide3</title>
<path fill="#87cefa" stroke="#000000" d="M552.1909,-612C552.1909,-612 475.1909,-612 475.1909,-612 469.1909,-612 463.1909,-606 463.1909,-600 463.1909,-600 463.1909,-588 463.1909,-588 463.1909,-582 469.1909,-576 475.1909,-576 475.1909,-576 552.1909,-576 552.1909,-576 558.1909,-576 564.1909,-582 564.1909,-588 564.1909,-588 564.1909,-600 564.1909,-600 564.1909,-606 558.1909,-612 552.1909,-612"/>
<text text-anchor="middle" x="513.6909" y="-590.3" font-family="Helvetica,sans-Serif" font-size="14.00" fill="#000000">Paramagnetic</text>
</g>
<!-- Divide&#45;&gt;Divide3 -->
<g id="edge16" class="edge">
<title>Divide&#45;&gt;Divide3</title>
<path fill="none" stroke="#000000" d="M572.0082,-647.8314C562.5858,-639.1337 551.1508,-628.5783 540.9113,-619.1265"/>
<polygon fill="#000000" stroke="#000000" points="543.0893,-616.3738 533.3673,-612.1628 538.3414,-621.5175 543.0893,-616.3738"/>
</g>
<!-- Divide4 -->
<g id="node20" class="node">
<title>Divide4</title>
<path fill="#87cefa" stroke="#000000" d="M650.6909,-612C650.6909,-612 594.6909,-612 594.6909,-612 588.6909,-612 582.6909,-606 582.6909,-600 582.6909,-600 582.6909,-588 582.6909,-588 582.6909,-582 588.6909,-576 594.6909,-576 594.6909,-576 650.6909,-576 650.6909,-576 656.6909,-576 662.6909,-582 662.6909,-588 662.6909,-588 662.6909,-600 662.6909,-600 662.6909,-606 656.6909,-612 650.6909,-612"/>
<text text-anchor="middle" x="622.6909" y="-590.3" font-family="Helvetica,sans-Serif" font-size="14.00" fill="#000000">Incoherent</text>
</g>
<!-- Divide&#45;&gt;Divide4 -->
<g id="edge17" class="edge">
<title>Divide&#45;&gt;Divide4</title>
<path fill="none" stroke="#000000" d="M599.5135,-647.8314C602.9018,-639.9617 606.945,-630.5712 610.6985,-621.8533"/>
<polygon fill="#000000" stroke="#000000" points="614.023,-622.9822 614.763,-612.4133 607.5936,-620.214 614.023,-622.9822"/>
</g>
<!-- Divide2&#45;&gt;AbsoluteNormalisation -->
<g id="edge18" class="edge">
<title>Divide2&#45;&gt;AbsoluteNormalisation</title>
<path fill="none" stroke="#000000" d="M427.897,-575.8314C439.6754,-566.1945 454.2414,-554.2769 466.6716,-544.1067"/>
<polygon fill="#000000" stroke="#000000" points="468.9576,-546.7586 474.4809,-537.7173 464.5249,-541.3408 468.9576,-546.7586"/>
</g>
<!-- Divide3&#45;&gt;AbsoluteNormalisation -->
<g id="edge19" class="edge">
<title>Divide3&#45;&gt;AbsoluteNormalisation</title>
<path fill="none" stroke="#000000" d="M508.644,-575.8314C506.415,-567.8068 503.7467,-558.2008 501.2851,-549.3392"/>
<polygon fill="#000000" stroke="#000000" points="504.578,-548.1161 498.5291,-539.4177 497.8333,-549.9897 504.578,-548.1161"/>
</g>
<!-- Divide4&#45;&gt;AbsoluteNormalisation -->
<g id="edge20" class="edge">
<title>Divide4&#45;&gt;AbsoluteNormalisation</title>
<path fill="none" stroke="#000000" d="M590.1387,-575.8314C571.5373,-565.4492 548.1931,-552.4198 529.1305,-541.7803"/>
<polygon fill="#000000" stroke="#000000" points="530.5938,-538.5887 520.156,-536.7712 527.1822,-544.7011 530.5938,-538.5887"/>
</g>
<!-- Divide5&#45;&gt;OutputTreatment -->
<g id="edge23" class="edge">
<title>Divide5&#45;&gt;OutputTreatment</title>
<path fill="none" stroke="#000000" d="M388.6909,-431.8314C388.6909,-424.131 388.6909,-414.9743 388.6909,-406.4166"/>
<polygon fill="#000000" stroke="#000000" points="392.191,-406.4132 388.6909,-396.4133 385.191,-406.4133 392.191,-406.4132"/>
</g>
<!-- Plus&#45;&gt;OutputUnits -->
<g id="edge31" class="edge">
<title>Plus&#45;&gt;OutputUnits</title>
<path fill="none" stroke="#000000" d="M335.0369,-215.8314C339.9475,-207.2079 345.898,-196.7583 351.2448,-187.3687"/>
<polygon fill="#000000" stroke="#000000" points="354.4226,-188.8611 356.3296,-178.4393 348.3397,-185.3972 354.4226,-188.8611"/>
</g>
<!-- SumOverlappingTubes&#45;&gt;OutputUnits -->
<g id="edge30" class="edge">
<title>SumOverlappingTubes&#45;&gt;OutputUnits</title>
<path fill="none" stroke="#000000" d="M222.1406,-215.8314C254.0792,-203.8544 295.4119,-188.3546 325.5181,-177.0648"/>
<polygon fill="#000000" stroke="#000000" points="327.1336,-180.1971 335.2679,-173.4086 324.6757,-173.6428 327.1336,-180.1971"/>
</g>
<!-- ConvertTo2Theta&#45;&gt;OutputWorkspace -->
<g id="edge35" class="edge">
<title>ConvertTo2Theta&#45;&gt;OutputWorkspace</title>
<path fill="none" stroke="#000000" d="M306.9718,-72.2022C316.4625,-63.4416 328.0675,-52.7293 338.447,-43.1482"/>
<polygon fill="#000000" stroke="#000000" points="341.1159,-45.4478 346.09,-36.0931 336.368,-40.3041 341.1159,-45.4478"/>
</g>
<!-- ConvertToQ&#45;&gt;OutputWorkspace -->
<g id="edge34" class="edge">
<title>ConvertToQ&#45;&gt;OutputWorkspace</title>
<path fill="none" stroke="#000000" d="M424.8093,-72.5708C415.1586,-63.6625 403.2447,-52.6651 392.6466,-42.8822"/>
<polygon fill="#000000" stroke="#000000" points="394.9352,-40.2316 385.2132,-36.0206 390.1873,-45.3752 394.9352,-40.2316"/>
</g>
</g>
</svg>
