<?xml version="1.0" encoding="UTF-8" standalone="no"?>
<!DOCTYPE svg PUBLIC "-//W3C//DTD SVG 1.1//EN"
 "http://www.w3.org/Graphics/SVG/1.1/DTD/svg11.dtd">
<!-- Generated by graphviz version 2.40.1 (20161225.0304)
 -->
<!-- Title: Beam Pages: 1 -->
<svg width="562pt" height="836pt"
 viewBox="0.00 0.00 561.73 836.00" xmlns="http://www.w3.org/2000/svg" xmlns:xlink="http://www.w3.org/1999/xlink">
<g id="graph0" class="graph" transform="scale(1 1) rotate(0) translate(4 832)">
<title>Beam</title>
<polygon fill="#ffffff" stroke="transparent" points="-4,4 -4,-832 557.729,-832 557.729,4 -4,4"/>
<!-- NormaliseBy -->
<g id="node1" class="node">
<title>NormaliseBy</title>
<polygon fill="#32cd32" stroke="#000000" points="368.5292,-684 282.2275,-666 368.5292,-648 454.8309,-666 368.5292,-684"/>
<text text-anchor="middle" x="368.5292" y="-662.3" font-family="Helvetica,sans-Serif" font-size="14.00" fill="#000000">NormaliseBy</text>
</g>
<!-- Divide -->
<g id="node12" class="node">
<title>Divide</title>
<path fill="#87cefa" stroke="#000000" d="M383.5292,-612C383.5292,-612 353.5292,-612 353.5292,-612 347.5292,-612 341.5292,-606 341.5292,-600 341.5292,-600 341.5292,-588 341.5292,-588 341.5292,-582 347.5292,-576 353.5292,-576 353.5292,-576 383.5292,-576 383.5292,-576 389.5292,-576 395.5292,-582 395.5292,-588 395.5292,-588 395.5292,-600 395.5292,-600 395.5292,-606 389.5292,-612 383.5292,-612"/>
<text text-anchor="middle" x="368.5292" y="-590.3" font-family="Helvetica,sans-Serif" font-size="14.00" fill="#000000">Divide</text>
</g>
<!-- NormaliseBy&#45;&gt;Divide -->
<g id="edge3" class="edge">
<title>NormaliseBy&#45;&gt;Divide</title>
<path fill="none" stroke="#000000" d="M368.5292,-647.8314C368.5292,-640.131 368.5292,-630.9743 368.5292,-622.4166"/>
<polygon fill="#000000" stroke="#000000" points="372.0293,-622.4132 368.5292,-612.4133 365.0293,-622.4133 372.0293,-622.4132"/>
</g>
<!-- DirectBeam -->
<g id="node2" class="node">
<title>DirectBeam</title>
<polygon fill="#32cd32" stroke="#000000" points="289.5292,-396 208.7574,-378 289.5292,-360 370.3011,-378 289.5292,-396"/>
<text text-anchor="middle" x="289.5292" y="-374.3" font-family="Helvetica,sans-Serif" font-size="14.00" fill="#000000">DirectBeam</text>
</g>
<!-- BeamCenterX -->
<g id="node6" class="node">
<title>BeamCenterX</title>
<polygon fill="#c0c0c0" stroke="#000000" points="181.0877,-324 37.0294,-324 -.0292,-288 144.029,-288 181.0877,-324"/>
<text text-anchor="middle" x="90.5292" y="-302.3" font-family="Times,serif" font-size="14.00" fill="#000000">BeamCenterX</text>
</g>
<!-- DirectBeam&#45;&gt;BeamCenterX -->
<g id="edge9" class="edge">
<title>DirectBeam&#45;&gt;BeamCenterX</title>
<path fill="none" stroke="#000000" d="M258.4355,-366.75C229.5587,-356.3021 185.783,-340.4637 150.1694,-327.5784"/>
<polygon fill="#000000" stroke="#000000" points="150.9544,-324.1404 140.3602,-324.0293 148.5728,-330.7228 150.9544,-324.1404"/>
</g>
<!-- BeamCenterY -->
<g id="node7" class="node">
<title>BeamCenterY</title>
<polygon fill="#c0c0c0" stroke="#000000" points="380.0877,-324 236.0294,-324 198.9708,-288 343.029,-288 380.0877,-324"/>
<text text-anchor="middle" x="289.5292" y="-302.3" font-family="Times,serif" font-size="14.00" fill="#000000">BeamCenterY</text>
</g>
<!-- DirectBeam&#45;&gt;BeamCenterY -->
<g id="edge10" class="edge">
<title>DirectBeam&#45;&gt;BeamCenterY</title>
<path fill="none" stroke="#000000" d="M289.5292,-359.8314C289.5292,-352.131 289.5292,-342.9743 289.5292,-334.4166"/>
<polygon fill="#000000" stroke="#000000" points="293.0293,-334.4132 289.5292,-324.4133 286.0293,-334.4133 293.0293,-334.4132"/>
</g>
<!-- Run -->
<g id="node3" class="node">
<title>Run</title>
<ellipse fill="#f0e68c" stroke="#000000" cx="368.5292" cy="-810" rx="27" ry="18"/>
<text text-anchor="middle" x="368.5292" y="-806.3" font-family="Helvetica,sans-Serif" font-size="14.00" fill="#000000">Run</text>
</g>
<!-- LoadAndMerge -->
<g id="node11" class="node">
<title>LoadAndMerge</title>
<path fill="#87cefa" stroke="#000000" d="M411.5292,-756C411.5292,-756 325.5292,-756 325.5292,-756 319.5292,-756 313.5292,-750 313.5292,-744 313.5292,-744 313.5292,-732 313.5292,-732 313.5292,-726 319.5292,-720 325.5292,-720 325.5292,-720 411.5292,-720 411.5292,-720 417.5292,-720 423.5292,-726 423.5292,-732 423.5292,-732 423.5292,-744 423.5292,-744 423.5292,-750 417.5292,-756 411.5292,-756"/>
<text text-anchor="middle" x="368.5292" y="-734.3" font-family="Helvetica,sans-Serif" font-size="14.00" fill="#000000">LoadAndMerge</text>
</g>
<!-- Run&#45;&gt;LoadAndMerge -->
<g id="edge1" class="edge">
<title>Run&#45;&gt;LoadAndMerge</title>
<path fill="none" stroke="#000000" d="M368.5292,-791.8314C368.5292,-784.131 368.5292,-774.9743 368.5292,-766.4166"/>
<polygon fill="#000000" stroke="#000000" points="372.0293,-766.4132 368.5292,-756.4133 365.0293,-766.4133 372.0293,-766.4132"/>
</g>
<!-- BeamRadius -->
<g id="node4" class="node">
<title>BeamRadius</title>
<ellipse fill="#f0e68c" stroke="#000000" cx="402.5292" cy="-522" rx="61.99" ry="18"/>
<text text-anchor="middle" x="402.5292" y="-518.3" font-family="Helvetica,sans-Serif" font-size="14.00" fill="#000000">BeamRadius</text>
</g>
<!-- FindCenterOfMassPosition -->
<g id="node14" class="node">
<title>FindCenterOfMassPosition</title>
<path fill="#87cefa" stroke="#000000" d="M368.0292,-468C368.0292,-468 213.0292,-468 213.0292,-468 207.0292,-468 201.0292,-462 201.0292,-456 201.0292,-456 201.0292,-444 201.0292,-444 201.0292,-438 207.0292,-432 213.0292,-432 213.0292,-432 368.0292,-432 368.0292,-432 374.0292,-432 380.0292,-438 380.0292,-444 380.0292,-444 380.0292,-456 380.0292,-456 380.0292,-462 374.0292,-468 368.0292,-468"/>
<text text-anchor="middle" x="290.5292" y="-446.3" font-family="Helvetica,sans-Serif" font-size="14.00" fill="#000000">FindCenterOfMassPosition</text>
</g>
<!-- BeamRadius&#45;&gt;FindCenterOfMassPosition -->
<g id="edge7" class="edge">
<title>BeamRadius&#45;&gt;FindCenterOfMassPosition</title>
<path fill="none" stroke="#000000" d="M376.8342,-505.4817C362.2304,-496.0936 343.692,-484.1761 327.5429,-473.7945"/>
<polygon fill="#000000" stroke="#000000" points="329.1616,-470.6743 318.8571,-468.2108 325.3763,-476.5625 329.1616,-470.6743"/>
</g>
<!-- IntegrateInRadius -->
<g id="node16" class="node">
<title>IntegrateInRadius</title>
<polygon fill="#20b2aa" stroke="#000000" points="410.0292,-180 287.0292,-180 287.0292,-144 410.0292,-144 410.0292,-180"/>
<text text-anchor="middle" x="348.5292" y="-158.3" font-family="Helvetica,sans-Serif" font-size="14.00" fill="#000000">IntegrateInRadius</text>
</g>
<!-- BeamRadius&#45;&gt;IntegrateInRadius -->
<g id="edge13" class="edge">
<title>BeamRadius&#45;&gt;IntegrateInRadius</title>
<path fill="none" stroke="#000000" d="M403.7724,-503.8247C405.5299,-476.5213 408.5292,-423.2893 408.5292,-378 408.5292,-378 408.5292,-378 408.5292,-306 408.5292,-265.2078 407.5053,-253.0919 390.5292,-216 386.0067,-206.1185 379.3515,-196.4022 372.666,-187.9953"/>
<polygon fill="#000000" stroke="#000000" points="375.1434,-185.5014 366.0482,-180.0674 369.7696,-189.9872 375.1434,-185.5014"/>
</g>
<!-- AbsorberInputWorkspace -->
<g id="node5" class="node">
<title>AbsorberInputWorkspace</title>
<ellipse fill="#f0e68c" stroke="#000000" cx="213.5292" cy="-594" rx="110.4804" ry="18"/>
<text text-anchor="middle" x="213.5292" y="-590.3" font-family="Helvetica,sans-Serif" font-size="14.00" fill="#000000">AbsorberInputWorkspace</text>
</g>
<!-- Minus -->
<g id="node13" class="node">
<title>Minus</title>
<path fill="#87cefa" stroke="#000000" d="M305.5292,-540C305.5292,-540 275.5292,-540 275.5292,-540 269.5292,-540 263.5292,-534 263.5292,-528 263.5292,-528 263.5292,-516 263.5292,-516 263.5292,-510 269.5292,-504 275.5292,-504 275.5292,-504 305.5292,-504 305.5292,-504 311.5292,-504 317.5292,-510 317.5292,-516 317.5292,-516 317.5292,-528 317.5292,-528 317.5292,-534 311.5292,-540 305.5292,-540"/>
<text text-anchor="middle" x="290.5292" y="-518.3" font-family="Helvetica,sans-Serif" font-size="14.00" fill="#000000">Minus</text>
</g>
<!-- AbsorberInputWorkspace&#45;&gt;Minus -->
<g id="edge5" class="edge">
<title>AbsorberInputWorkspace&#45;&gt;Minus</title>
<path fill="none" stroke="#000000" d="M232.5629,-576.2022C241.932,-567.4416 253.3882,-556.7293 263.6346,-547.1482"/>
<polygon fill="#000000" stroke="#000000" points="266.2659,-549.4796 271.1796,-540.0931 261.4849,-544.3666 266.2659,-549.4796"/>
</g>
<!-- MoveInstrumentComponent -->
<g id="node15" class="node">
<title>MoveInstrumentComponent</title>
<path fill="#87cefa" stroke="#000000" d="M369.0292,-252C369.0292,-252 208.0292,-252 208.0292,-252 202.0292,-252 196.0292,-246 196.0292,-240 196.0292,-240 196.0292,-228 196.0292,-228 196.0292,-222 202.0292,-216 208.0292,-216 208.0292,-216 369.0292,-216 369.0292,-216 375.0292,-216 381.0292,-222 381.0292,-228 381.0292,-228 381.0292,-240 381.0292,-240 381.0292,-246 375.0292,-252 369.0292,-252"/>
<text text-anchor="middle" x="288.5292" y="-230.3" font-family="Helvetica,sans-Serif" font-size="14.00" fill="#000000">MoveInstrumentComponent</text>
</g>
<!-- BeamCenterX&#45;&gt;MoveInstrumentComponent -->
<g id="edge11" class="edge">
<title>BeamCenterX&#45;&gt;MoveInstrumentComponent</title>
<path fill="none" stroke="#000000" d="M140.2374,-287.9243C167.3052,-278.0815 200.9731,-265.8386 229.3842,-255.5073"/>
<polygon fill="#000000" stroke="#000000" points="230.5988,-258.7899 238.8006,-252.0831 228.2065,-252.2114 230.5988,-258.7899"/>
</g>
<!-- BeamCenterY&#45;&gt;MoveInstrumentComponent -->
<g id="edge12" class="edge">
<title>BeamCenterY&#45;&gt;MoveInstrumentComponent</title>
<path fill="none" stroke="#000000" d="M289.2769,-287.8314C289.1699,-280.131 289.0428,-270.9743 288.9239,-262.4166"/>
<polygon fill="#000000" stroke="#000000" points="292.4236,-262.3637 288.785,-252.4133 285.4243,-262.4609 292.4236,-262.3637"/>
</g>
<!-- BeamFluxValue -->
<g id="node8" class="node">
<title>BeamFluxValue</title>
<polygon fill="#c0c0c0" stroke="#000000" points="341.5523,-108 180.8472,-108 139.5061,-72 300.2113,-72 341.5523,-108"/>
<text text-anchor="middle" x="240.5292" y="-86.3" font-family="Times,serif" font-size="14.00" fill="#000000">BeamFluxValue</text>
</g>
<!-- OutputWorkspace -->
<g id="node10" class="node">
<title>OutputWorkspace</title>
<polygon fill="#c0c0c0" stroke="#000000" points="459.1111,-36 283.2001,-36 237.9473,0 413.8584,0 459.1111,-36"/>
<text text-anchor="middle" x="348.5292" y="-14.3" font-family="Times,serif" font-size="14.00" fill="#000000">OutputWorkspace</text>
</g>
<!-- BeamFluxValue&#45;&gt;OutputWorkspace -->
<g id="edge17" class="edge">
<title>BeamFluxValue&#45;&gt;OutputWorkspace</title>
<path fill="none" stroke="#000000" d="M267.7822,-71.8314C281.4681,-62.7074 298.2207,-51.539 312.9119,-41.7449"/>
<polygon fill="#000000" stroke="#000000" points="314.9059,-44.6221 321.285,-36.1628 311.023,-38.7977 314.9059,-44.6221"/>
</g>
<!-- BeamFluxError -->
<g id="node9" class="node">
<title>BeamFluxError</title>
<polygon fill="#c0c0c0" stroke="#000000" points="553.9292,-108 398.9876,-108 359.1292,-72 514.0708,-72 553.9292,-108"/>
<text text-anchor="middle" x="456.5292" y="-86.3" font-family="Times,serif" font-size="14.00" fill="#000000">BeamFluxError</text>
</g>
<!-- BeamFluxError&#45;&gt;OutputWorkspace -->
<g id="edge18" class="edge">
<title>BeamFluxError&#45;&gt;OutputWorkspace</title>
<path fill="none" stroke="#000000" d="M429.2763,-71.8314C415.5903,-62.7074 398.8378,-51.539 384.1465,-41.7449"/>
<polygon fill="#000000" stroke="#000000" points="386.0355,-38.7977 375.7735,-36.1628 382.1525,-44.6221 386.0355,-38.7977"/>
</g>
<!-- LoadAndMerge&#45;&gt;NormaliseBy -->
<g id="edge2" class="edge">
<title>LoadAndMerge&#45;&gt;NormaliseBy</title>
<path fill="none" stroke="#000000" d="M368.5292,-719.8314C368.5292,-712.131 368.5292,-702.9743 368.5292,-694.4166"/>
<polygon fill="#000000" stroke="#000000" points="372.0293,-694.4132 368.5292,-684.4133 365.0293,-694.4133 372.0293,-694.4132"/>
</g>
<!-- Divide&#45;&gt;Minus -->
<g id="edge4" class="edge">
<title>Divide&#45;&gt;Minus</title>
<path fill="none" stroke="#000000" d="M348.8465,-575.8314C339.4241,-567.1337 327.9891,-556.5783 317.7496,-547.1265"/>
<polygon fill="#000000" stroke="#000000" points="319.9277,-544.3738 310.2056,-540.1628 315.1797,-549.5175 319.9277,-544.3738"/>
</g>
<!-- Minus&#45;&gt;FindCenterOfMassPosition -->
<g id="edge6" class="edge">
<title>Minus&#45;&gt;FindCenterOfMassPosition</title>
<path fill="none" stroke="#000000" d="M290.5292,-503.8314C290.5292,-496.131 290.5292,-486.9743 290.5292,-478.4166"/>
<polygon fill="#000000" stroke="#000000" points="294.0293,-478.4132 290.5292,-468.4133 287.0293,-478.4133 294.0293,-478.4132"/>
</g>
<!-- FindCenterOfMassPosition&#45;&gt;DirectBeam -->
<g id="edge8" class="edge">
<title>FindCenterOfMassPosition&#45;&gt;DirectBeam</title>
<path fill="none" stroke="#000000" d="M290.2769,-431.8314C290.1699,-424.131 290.0428,-414.9743 289.9239,-406.4166"/>
<polygon fill="#000000" stroke="#000000" points="293.4236,-406.3637 289.785,-396.4133 286.4243,-406.4609 293.4236,-406.3637"/>
</g>
<!-- MoveInstrumentComponent&#45;&gt;IntegrateInRadius -->
<g id="edge14" class="edge">
<title>MoveInstrumentComponent&#45;&gt;IntegrateInRadius</title>
<path fill="none" stroke="#000000" d="M303.6698,-215.8314C310.6509,-207.454 319.0683,-197.3531 326.7168,-188.1749"/>
<polygon fill="#000000" stroke="#000000" points="329.4717,-190.3362 333.1848,-180.4133 324.0942,-185.8548 329.4717,-190.3362"/>
</g>
<!-- IntegrateInRadius&#45;&gt;BeamFluxValue -->
<g id="edge15" class="edge">
<title>IntegrateInRadius&#45;&gt;BeamFluxValue</title>
<path fill="none" stroke="#000000" d="M321.2763,-143.8314C307.5903,-134.7074 290.8378,-123.539 276.1465,-113.7449"/>
<polygon fill="#000000" stroke="#000000" points="278.0355,-110.7977 267.7735,-108.1628 274.1525,-116.6221 278.0355,-110.7977"/>
</g>
<!-- IntegrateInRadius&#45;&gt;BeamFluxError -->
<g id="edge16" class="edge">
<title>IntegrateInRadius&#45;&gt;BeamFluxError</title>
<path fill="none" stroke="#000000" d="M375.7822,-143.8314C389.4681,-134.7074 406.2207,-123.539 420.9119,-113.7449"/>
<polygon fill="#000000" stroke="#000000" points="422.9059,-116.6221 429.285,-108.1628 419.023,-110.7977 422.9059,-116.6221"/>
</g>
</g>
</svg>
