<?xml version="1.0" encoding="UTF-8" standalone="no"?>
<!DOCTYPE svg PUBLIC "-//W3C//DTD SVG 1.1//EN"
 "http://www.w3.org/Graphics/SVG/1.1/DTD/svg11.dtd">
<!-- Generated by graphviz version 2.40.1 (20161225.0304)
 -->
<!-- Title: IndirectFlatePlateAbsorption Pages: 1 -->
<svg width="1666pt" height="1743pt"
 viewBox="0.00 0.00 1666.09 1743.00" xmlns="http://www.w3.org/2000/svg" xmlns:xlink="http://www.w3.org/1999/xlink">
<g id="graph0" class="graph" transform="scale(1 1) rotate(0) translate(4 1739)">
<title>IndirectFlatePlateAbsorption</title>
<polygon fill="#ffffff" stroke="transparent" points="-4,4 -4,-1739 1662.0934,-1739 1662.0934,4 -4,4"/>
<text text-anchor="middle" x="829.0467" y="-1719.8" font-family="Helvetica,sans-Serif" font-size="14.00" fill="#000000">IndirectFlatePlateAbsorption Flowchart</text>
<!-- SampleWorkspace1 -->
<g id="node1" class="node">
<title>SampleWorkspace1</title>
<ellipse fill="#f0e68c" stroke="#000000" cx="1418.0934" cy="-1694" rx="85.2851" ry="18"/>
<text text-anchor="middle" x="1418.0934" y="-1690.3" font-family="Helvetica,sans-Serif" font-size="14.00" fill="#000000">SampleWorkspace</text>
</g>
<!-- GetEFixed -->
<g id="node23" class="node">
<title>GetEFixed</title>
<path fill="#87cefa" stroke="#000000" d="M1446.5934,-1639C1446.5934,-1639 1389.5934,-1639 1389.5934,-1639 1383.5934,-1639 1377.5934,-1633 1377.5934,-1627 1377.5934,-1627 1377.5934,-1615 1377.5934,-1615 1377.5934,-1609 1383.5934,-1603 1389.5934,-1603 1389.5934,-1603 1446.5934,-1603 1446.5934,-1603 1452.5934,-1603 1458.5934,-1609 1458.5934,-1615 1458.5934,-1615 1458.5934,-1627 1458.5934,-1627 1458.5934,-1633 1452.5934,-1639 1446.5934,-1639"/>
<text text-anchor="middle" x="1418.0934" y="-1617.3" font-family="Helvetica,sans-Serif" font-size="14.00" fill="#000000">GetEFixed</text>
</g>
<!-- SampleWorkspace1&#45;&gt;GetEFixed -->
<g id="edge1" class="edge">
<title>SampleWorkspace1&#45;&gt;GetEFixed</title>
<path fill="none" stroke="#000000" d="M1418.0934,-1675.9551C1418.0934,-1667.8828 1418.0934,-1658.1764 1418.0934,-1649.1817"/>
<polygon fill="#000000" stroke="#000000" points="1421.5935,-1649.0903 1418.0934,-1639.0904 1414.5935,-1649.0904 1421.5935,-1649.0903"/>
</g>
<!-- SampleWorkspace2 -->
<g id="node2" class="node">
<title>SampleWorkspace2</title>
<ellipse fill="#f0e68c" stroke="#000000" cx="437.0934" cy="-1009" rx="85.2851" ry="18"/>
<text text-anchor="middle" x="437.0934" y="-1005.3" font-family="Helvetica,sans-Serif" font-size="14.00" fill="#000000">SampleWorkspace</text>
</g>
<!-- Divide1 -->
<g id="node45" class="node">
<title>Divide1</title>
<ellipse fill="#d3d3d3" stroke="#000000" cx="636.0934" cy="-936" rx="40.0939" ry="18"/>
<text text-anchor="middle" x="636.0934" y="-932.3" font-family="Helvetica,sans-Serif" font-size="14.00" fill="#000000">Divide1</text>
</g>
<!-- SampleWorkspace2&#45;&gt;Divide1 -->
<g id="edge23" class="edge">
<title>SampleWorkspace2&#45;&gt;Divide1</title>
<path fill="none" stroke="#000000" d="M479.7839,-993.3397C513.9815,-980.7948 561.6434,-963.3108 595.3233,-950.9559"/>
<polygon fill="#000000" stroke="#000000" points="596.6792,-954.1866 604.8621,-947.4567 594.2684,-947.6148 596.6792,-954.1866"/>
</g>
<!-- SampleChemicalFormula -->
<g id="node3" class="node">
<title>SampleChemicalFormula</title>
<ellipse fill="#f0e68c" stroke="#000000" cx="281.0934" cy="-1461" rx="110.4804" ry="18"/>
<text text-anchor="middle" x="281.0934" y="-1457.3" font-family="Helvetica,sans-Serif" font-size="14.00" fill="#000000">SampleChemicalFormula</text>
</g>
<!-- SetSample -->
<g id="node30" class="node">
<title>SetSample</title>
<path fill="#87cefa" stroke="#000000" d="M836.5934,-1406C836.5934,-1406 777.5934,-1406 777.5934,-1406 771.5934,-1406 765.5934,-1400 765.5934,-1394 765.5934,-1394 765.5934,-1382 765.5934,-1382 765.5934,-1376 771.5934,-1370 777.5934,-1370 777.5934,-1370 836.5934,-1370 836.5934,-1370 842.5934,-1370 848.5934,-1376 848.5934,-1382 848.5934,-1382 848.5934,-1394 848.5934,-1394 848.5934,-1400 842.5934,-1406 836.5934,-1406"/>
<text text-anchor="middle" x="807.0934" y="-1384.3" font-family="Helvetica,sans-Serif" font-size="14.00" fill="#000000">SetSample</text>
</g>
<!-- SampleChemicalFormula&#45;&gt;SetSample -->
<g id="edge11" class="edge">
<title>SampleChemicalFormula&#45;&gt;SetSample</title>
<path fill="none" stroke="#000000" d="M361.0641,-1448.492C374.4169,-1446.5507 388.1364,-1444.6462 401.0934,-1443 555.2336,-1423.4169 599.5322,-1440.1451 755.6259,-1405.7758"/>
<polygon fill="#000000" stroke="#000000" points="756.5848,-1409.1479 765.5794,-1403.549 755.0565,-1402.3168 756.5848,-1409.1479"/>
</g>
<!-- SampleDensity -->
<g id="node4" class="node">
<title>SampleDensity</title>
<ellipse fill="#f0e68c" stroke="#000000" cx="480.0934" cy="-1461" rx="70.3881" ry="18"/>
<text text-anchor="middle" x="480.0934" y="-1457.3" font-family="Helvetica,sans-Serif" font-size="14.00" fill="#000000">SampleDensity</text>
</g>
<!-- SampleDensity&#45;&gt;SetSample -->
<g id="edge12" class="edge">
<title>SampleDensity&#45;&gt;SetSample</title>
<path fill="none" stroke="#000000" d="M532.3,-1448.8075C541.226,-1446.8081 550.4166,-1444.8026 559.0934,-1443 643.2509,-1425.516 668.3104,-1428.845 755.7018,-1405.8804"/>
<polygon fill="#000000" stroke="#000000" points="756.7495,-1409.2233 765.5088,-1403.2631 754.9445,-1402.46 756.7495,-1409.2233"/>
</g>
<!-- SampleHeight -->
<g id="node5" class="node">
<title>SampleHeight</title>
<ellipse fill="#f0e68c" stroke="#000000" cx="634.0934" cy="-1461" rx="66.0889" ry="18"/>
<text text-anchor="middle" x="634.0934" y="-1457.3" font-family="Helvetica,sans-Serif" font-size="14.00" fill="#000000">SampleHeight</text>
</g>
<!-- SampleHeight&#45;&gt;SetSample -->
<g id="edge9" class="edge">
<title>SampleHeight&#45;&gt;SetSample</title>
<path fill="none" stroke="#000000" d="M670.3599,-1445.6968C695.1764,-1435.2251 728.4348,-1421.1912 755.9366,-1409.5864"/>
<polygon fill="#000000" stroke="#000000" points="757.5484,-1412.7052 765.401,-1405.5927 754.827,-1406.2558 757.5484,-1412.7052"/>
</g>
<!-- SampleInnerRadius -->
<g id="node6" class="node">
<title>SampleInnerRadius</title>
<ellipse fill="#f0e68c" stroke="#000000" cx="807.0934" cy="-1461" rx="88.2844" ry="18"/>
<text text-anchor="middle" x="807.0934" y="-1457.3" font-family="Helvetica,sans-Serif" font-size="14.00" fill="#000000">SampleInnerRadius</text>
</g>
<!-- SampleInnerRadius&#45;&gt;SetSample -->
<g id="edge7" class="edge">
<title>SampleInnerRadius&#45;&gt;SetSample</title>
<path fill="none" stroke="#000000" d="M807.0934,-1442.9551C807.0934,-1434.8828 807.0934,-1425.1764 807.0934,-1416.1817"/>
<polygon fill="#000000" stroke="#000000" points="810.5935,-1416.0903 807.0934,-1406.0904 803.5935,-1416.0904 810.5935,-1416.0903"/>
</g>
<!-- SampleOuterRadius -->
<g id="node7" class="node">
<title>SampleOuterRadius</title>
<ellipse fill="#f0e68c" stroke="#000000" cx="1004.0934" cy="-1461" rx="90.9839" ry="18"/>
<text text-anchor="middle" x="1004.0934" y="-1457.3" font-family="Helvetica,sans-Serif" font-size="14.00" fill="#000000">SampleOuterRadius</text>
</g>
<!-- SampleOuterRadius&#45;&gt;SetSample -->
<g id="edge8" class="edge">
<title>SampleOuterRadius&#45;&gt;SetSample</title>
<path fill="none" stroke="#000000" d="M960.8609,-1444.9798C930.6837,-1433.7974 890.2736,-1418.8231 858.4528,-1407.0316"/>
<polygon fill="#000000" stroke="#000000" points="859.467,-1403.675 848.8739,-1403.4821 857.0347,-1410.2388 859.467,-1403.675"/>
</g>
<!-- SampleAngle -->
<g id="node8" class="node">
<title>SampleAngle</title>
<ellipse fill="#f0e68c" stroke="#000000" cx="1177.0934" cy="-1461" rx="63.8893" ry="18"/>
<text text-anchor="middle" x="1177.0934" y="-1457.3" font-family="Helvetica,sans-Serif" font-size="14.00" fill="#000000">SampleAngle</text>
</g>
<!-- SampleAngle&#45;&gt;SetSample -->
<g id="edge10" class="edge">
<title>SampleAngle&#45;&gt;SetSample</title>
<path fill="none" stroke="#000000" d="M1129.6726,-1448.8794C1121.1756,-1446.8298 1112.3873,-1444.7889 1104.0934,-1443 1018.5666,-1424.5531 918.3652,-1406.789 858.9473,-1396.6534"/>
<polygon fill="#000000" stroke="#000000" points="859.5004,-1393.1973 849.0553,-1394.9723 858.3275,-1400.0984 859.5004,-1393.1973"/>
</g>
<!-- BeamHeight -->
<g id="node9" class="node">
<title>BeamHeight</title>
<ellipse fill="#f0e68c" stroke="#000000" cx="1160.0934" cy="-1534" rx="59.5901" ry="18"/>
<text text-anchor="middle" x="1160.0934" y="-1530.3" font-family="Helvetica,sans-Serif" font-size="14.00" fill="#000000">BeamHeight</text>
</g>
<!-- SetBeam -->
<g id="node27" class="node">
<title>SetBeam</title>
<path fill="#87cefa" stroke="#000000" d="M1319.5934,-1479C1319.5934,-1479 1270.5934,-1479 1270.5934,-1479 1264.5934,-1479 1258.5934,-1473 1258.5934,-1467 1258.5934,-1467 1258.5934,-1455 1258.5934,-1455 1258.5934,-1449 1264.5934,-1443 1270.5934,-1443 1270.5934,-1443 1319.5934,-1443 1319.5934,-1443 1325.5934,-1443 1331.5934,-1449 1331.5934,-1455 1331.5934,-1455 1331.5934,-1467 1331.5934,-1467 1331.5934,-1473 1325.5934,-1479 1319.5934,-1479"/>
<text text-anchor="middle" x="1295.0934" y="-1457.3" font-family="Helvetica,sans-Serif" font-size="14.00" fill="#000000">SetBeam</text>
</g>
<!-- BeamHeight&#45;&gt;SetBeam -->
<g id="edge4" class="edge">
<title>BeamHeight&#45;&gt;SetBeam</title>
<path fill="none" stroke="#000000" d="M1189.3864,-1518.1601C1207.8956,-1508.1514 1232.1196,-1495.0525 1252.708,-1483.9195"/>
<polygon fill="#000000" stroke="#000000" points="1254.4475,-1486.9579 1261.579,-1479.1226 1251.1179,-1480.8005 1254.4475,-1486.9579"/>
</g>
<!-- BeamWidth -->
<g id="node10" class="node">
<title>BeamWidth</title>
<ellipse fill="#f0e68c" stroke="#000000" cx="1295.0934" cy="-1534" rx="57.3905" ry="18"/>
<text text-anchor="middle" x="1295.0934" y="-1530.3" font-family="Helvetica,sans-Serif" font-size="14.00" fill="#000000">BeamWidth</text>
</g>
<!-- BeamWidth&#45;&gt;SetBeam -->
<g id="edge5" class="edge">
<title>BeamWidth&#45;&gt;SetBeam</title>
<path fill="none" stroke="#000000" d="M1295.0934,-1515.9551C1295.0934,-1507.8828 1295.0934,-1498.1764 1295.0934,-1489.1817"/>
<polygon fill="#000000" stroke="#000000" points="1298.5935,-1489.0903 1295.0934,-1479.0904 1291.5935,-1489.0904 1298.5935,-1489.0903"/>
</g>
<!-- Events -->
<g id="node11" class="node">
<title>Events</title>
<ellipse fill="#f0e68c" stroke="#000000" cx="485.0934" cy="-1388" rx="37.8943" ry="18"/>
<text text-anchor="middle" x="485.0934" y="-1384.3" font-family="Helvetica,sans-Serif" font-size="14.00" fill="#000000">Events</text>
</g>
<!-- MonteCarlo -->
<g id="node33" class="node">
<title>MonteCarlo</title>
<path fill="#87cefa" stroke="#000000" d="M675.5934,-1333C675.5934,-1333 612.5934,-1333 612.5934,-1333 606.5934,-1333 600.5934,-1327 600.5934,-1321 600.5934,-1321 600.5934,-1309 600.5934,-1309 600.5934,-1303 606.5934,-1297 612.5934,-1297 612.5934,-1297 675.5934,-1297 675.5934,-1297 681.5934,-1297 687.5934,-1303 687.5934,-1309 687.5934,-1309 687.5934,-1321 687.5934,-1321 687.5934,-1327 681.5934,-1333 675.5934,-1333"/>
<text text-anchor="middle" x="644.0934" y="-1311.3" font-family="Helvetica,sans-Serif" font-size="14.00" fill="#000000">MonteCarlo</text>
</g>
<!-- Events&#45;&gt;MonteCarlo -->
<g id="edge14" class="edge">
<title>Events&#45;&gt;MonteCarlo</title>
<path fill="none" stroke="#000000" d="M512.4265,-1375.4509C535.1422,-1365.0217 568.0313,-1349.9216 595.2553,-1337.4226"/>
<polygon fill="#000000" stroke="#000000" points="596.9949,-1340.4752 604.6225,-1333.1219 594.0742,-1334.1136 596.9949,-1340.4752"/>
</g>
<!-- NumberOfWavelengths -->
<g id="node12" class="node">
<title>NumberOfWavelengths</title>
<ellipse fill="#f0e68c" stroke="#000000" cx="644.0934" cy="-1388" rx="103.1819" ry="18"/>
<text text-anchor="middle" x="644.0934" y="-1384.3" font-family="Helvetica,sans-Serif" font-size="14.00" fill="#000000">NumberOfWavelengths</text>
</g>
<!-- NumberOfWavelengths&#45;&gt;MonteCarlo -->
<g id="edge15" class="edge">
<title>NumberOfWavelengths&#45;&gt;MonteCarlo</title>
<path fill="none" stroke="#000000" d="M644.0934,-1369.9551C644.0934,-1361.8828 644.0934,-1352.1764 644.0934,-1343.1817"/>
<polygon fill="#000000" stroke="#000000" points="647.5935,-1343.0903 644.0934,-1333.0904 640.5935,-1343.0904 647.5935,-1343.0903"/>
</g>
<!-- AbsWorkspace1 -->
<g id="node13" class="node">
<title>AbsWorkspace1</title>
<ellipse fill="#f0e68c" stroke="#000000" cx="632.0934" cy="-1242" rx="96.6831" ry="18"/>
<text text-anchor="middle" x="632.0934" y="-1238.3" font-family="Helvetica,sans-Serif" font-size="14.00" fill="#000000">AbsorptionWorkspace</text>
</g>
<!-- AbsWorkspace2 -->
<g id="node14" class="node">
<title>AbsWorkspace2</title>
<ellipse fill="#f0e68c" stroke="#000000" cx="637.0934" cy="-1009" rx="96.6831" ry="18"/>
<text text-anchor="middle" x="637.0934" y="-1005.3" font-family="Helvetica,sans-Serif" font-size="14.00" fill="#000000">AbsorptionWorkspace</text>
</g>
<!-- AbsWorkspace2&#45;&gt;Divide1 -->
<g id="edge24" class="edge">
<title>AbsWorkspace2&#45;&gt;Divide1</title>
<path fill="none" stroke="#000000" d="M636.8462,-990.9551C636.7357,-982.8828 636.6027,-973.1764 636.4795,-964.1817"/>
<polygon fill="#000000" stroke="#000000" points="639.978,-964.0414 636.3412,-954.0904 632.9786,-964.1374 639.978,-964.0414"/>
</g>
<!-- CanAbsorptionWorkspace -->
<g id="node15" class="node">
<title>CanAbsorptionWorkspace</title>
<ellipse fill="#f0e68c" stroke="#000000" cx="585.0934" cy="-397" rx="113.18" ry="18"/>
<text text-anchor="middle" x="585.0934" y="-393.3" font-family="Helvetica,sans-Serif" font-size="14.00" fill="#000000">CanAbsorptionWorkspace</text>
</g>
<!-- CanWorkspace1 -->
<g id="node16" class="node">
<title>CanWorkspace1</title>
<ellipse fill="#f0e68c" stroke="#000000" cx="400.0934" cy="-776" rx="76.0865" ry="18"/>
<text text-anchor="middle" x="400.0934" y="-772.3" font-family="Helvetica,sans-Serif" font-size="14.00" fill="#000000">CanWorkspace1</text>
</g>
<!-- SetBeam1 -->
<g id="node28" class="node">
<title>SetBeam1</title>
<path fill="#87cefa" stroke="#000000" d="M227.5934,-707C227.5934,-707 178.5934,-707 178.5934,-707 172.5934,-707 166.5934,-701 166.5934,-695 166.5934,-695 166.5934,-683 166.5934,-683 166.5934,-677 172.5934,-671 178.5934,-671 178.5934,-671 227.5934,-671 227.5934,-671 233.5934,-671 239.5934,-677 239.5934,-683 239.5934,-683 239.5934,-695 239.5934,-695 239.5934,-701 233.5934,-707 227.5934,-707"/>
<text text-anchor="middle" x="203.0934" y="-685.3" font-family="Helvetica,sans-Serif" font-size="14.00" fill="#000000">SetBeam</text>
</g>
<!-- CanWorkspace1&#45;&gt;SetBeam1 -->
<g id="edge27" class="edge">
<title>CanWorkspace1&#45;&gt;SetBeam1</title>
<path fill="none" stroke="#000000" d="M363.9606,-760.0429C331.6732,-745.7839 284.1979,-724.8177 249.186,-709.3556"/>
<polygon fill="#000000" stroke="#000000" points="250.226,-705.9888 239.6643,-705.1506 247.398,-712.3922 250.226,-705.9888"/>
</g>
<!-- CanWorkspace2 -->
<g id="node17" class="node">
<title>CanWorkspace2</title>
<ellipse fill="#f0e68c" stroke="#000000" cx="635.0934" cy="-776" rx="76.0865" ry="18"/>
<text text-anchor="middle" x="635.0934" y="-772.3" font-family="Helvetica,sans-Serif" font-size="14.00" fill="#000000">CanWorkspace2</text>
</g>
<!-- SetBeam2 -->
<g id="node29" class="node">
<title>SetBeam2</title>
<path fill="#87cefa" stroke="#000000" d="M659.5934,-707C659.5934,-707 610.5934,-707 610.5934,-707 604.5934,-707 598.5934,-701 598.5934,-695 598.5934,-695 598.5934,-683 598.5934,-683 598.5934,-677 604.5934,-671 610.5934,-671 610.5934,-671 659.5934,-671 659.5934,-671 665.5934,-671 671.5934,-677 671.5934,-683 671.5934,-683 671.5934,-695 671.5934,-695 671.5934,-701 665.5934,-707 659.5934,-707"/>
<text text-anchor="middle" x="635.0934" y="-685.3" font-family="Helvetica,sans-Serif" font-size="14.00" fill="#000000">SetBeam</text>
</g>
<!-- CanWorkspace2&#45;&gt;SetBeam2 -->
<g id="edge35" class="edge">
<title>CanWorkspace2&#45;&gt;SetBeam2</title>
<path fill="none" stroke="#000000" d="M635.0934,-757.9735C635.0934,-746.1918 635.0934,-730.5607 635.0934,-717.1581"/>
<polygon fill="#000000" stroke="#000000" points="638.5935,-717.0033 635.0934,-707.0034 631.5935,-717.0034 638.5935,-717.0033"/>
</g>
<!-- CanChemicalFormula -->
<g id="node18" class="node">
<title>CanChemicalFormula</title>
<ellipse fill="#f0e68c" stroke="#000000" cx="354.0934" cy="-689" rx="96.6831" ry="18"/>
<text text-anchor="middle" x="354.0934" y="-685.3" font-family="Helvetica,sans-Serif" font-size="14.00" fill="#000000">CanChemicalFormula</text>
</g>
<!-- SetSample1 -->
<g id="node31" class="node">
<title>SetSample1</title>
<path fill="#87cefa" stroke="#000000" d="M383.5934,-634C383.5934,-634 324.5934,-634 324.5934,-634 318.5934,-634 312.5934,-628 312.5934,-622 312.5934,-622 312.5934,-610 312.5934,-610 312.5934,-604 318.5934,-598 324.5934,-598 324.5934,-598 383.5934,-598 383.5934,-598 389.5934,-598 395.5934,-604 395.5934,-610 395.5934,-610 395.5934,-622 395.5934,-622 395.5934,-628 389.5934,-634 383.5934,-634"/>
<text text-anchor="middle" x="354.0934" y="-612.3" font-family="Helvetica,sans-Serif" font-size="14.00" fill="#000000">SetSample</text>
</g>
<!-- CanChemicalFormula&#45;&gt;SetSample1 -->
<g id="edge29" class="edge">
<title>CanChemicalFormula&#45;&gt;SetSample1</title>
<path fill="none" stroke="#000000" d="M354.0934,-670.9551C354.0934,-662.8828 354.0934,-653.1764 354.0934,-644.1817"/>
<polygon fill="#000000" stroke="#000000" points="357.5935,-644.0903 354.0934,-634.0904 350.5935,-644.0904 357.5935,-644.0903"/>
</g>
<!-- SetSample2 -->
<g id="node32" class="node">
<title>SetSample2</title>
<path fill="#87cefa" stroke="#000000" d="M614.5934,-634C614.5934,-634 555.5934,-634 555.5934,-634 549.5934,-634 543.5934,-628 543.5934,-622 543.5934,-622 543.5934,-610 543.5934,-610 543.5934,-604 549.5934,-598 555.5934,-598 555.5934,-598 614.5934,-598 614.5934,-598 620.5934,-598 626.5934,-604 626.5934,-610 626.5934,-610 626.5934,-622 626.5934,-622 626.5934,-628 620.5934,-634 614.5934,-634"/>
<text text-anchor="middle" x="585.0934" y="-612.3" font-family="Helvetica,sans-Serif" font-size="14.00" fill="#000000">SetSample</text>
</g>
<!-- CanChemicalFormula&#45;&gt;SetSample2 -->
<g id="edge38" class="edge">
<title>CanChemicalFormula&#45;&gt;SetSample2</title>
<path fill="none" stroke="#000000" d="M403.3654,-673.4292C441.7212,-661.3081 494.7945,-644.536 533.6836,-632.2464"/>
<polygon fill="#000000" stroke="#000000" points="534.7669,-635.5747 543.2475,-629.224 532.6576,-628.9001 534.7669,-635.5747"/>
</g>
<!-- CanDensity -->
<g id="node19" class="node">
<title>CanDensity</title>
<ellipse fill="#f0e68c" stroke="#000000" cx="525.0934" cy="-689" rx="55.7903" ry="18"/>
<text text-anchor="middle" x="525.0934" y="-685.3" font-family="Helvetica,sans-Serif" font-size="14.00" fill="#000000">CanDensity</text>
</g>
<!-- CanDensity&#45;&gt;SetSample1 -->
<g id="edge30" class="edge">
<title>CanDensity&#45;&gt;SetSample1</title>
<path fill="none" stroke="#000000" d="M491.3093,-674.5775C466.649,-664.0501 432.7947,-649.5976 404.8841,-637.6826"/>
<polygon fill="#000000" stroke="#000000" points="406.2397,-634.4557 395.6685,-633.7484 403.4913,-640.8937 406.2397,-634.4557"/>
</g>
<!-- CanDensity&#45;&gt;SetSample2 -->
<g id="edge39" class="edge">
<title>CanDensity&#45;&gt;SetSample2</title>
<path fill="none" stroke="#000000" d="M539.6178,-671.3287C546.8793,-662.4939 555.8066,-651.6323 563.8231,-641.8789"/>
<polygon fill="#000000" stroke="#000000" points="566.6402,-643.9635 570.286,-634.0157 561.2324,-639.5187 566.6402,-643.9635"/>
</g>
<!-- CanInnerRadius -->
<g id="node20" class="node">
<title>CanInnerRadius</title>
<ellipse fill="#f0e68c" stroke="#000000" cx="74.0934" cy="-689" rx="74.187" ry="18"/>
<text text-anchor="middle" x="74.0934" y="-685.3" font-family="Helvetica,sans-Serif" font-size="14.00" fill="#000000">CanInnerRadius</text>
</g>
<!-- CanInnerRadius&#45;&gt;SetSample1 -->
<g id="edge31" class="edge">
<title>CanInnerRadius&#45;&gt;SetSample1</title>
<path fill="none" stroke="#000000" d="M124.7993,-675.7803C175.1803,-662.6452 252.0397,-642.6069 302.6702,-629.4068"/>
<polygon fill="#000000" stroke="#000000" points="303.6374,-632.7717 312.4309,-626.862 301.8714,-625.9981 303.6374,-632.7717"/>
</g>
<!-- CanOuterRadius -->
<g id="node21" class="node">
<title>CanOuterRadius</title>
<ellipse fill="#f0e68c" stroke="#000000" cx="766.0934" cy="-689" rx="76.8869" ry="18"/>
<text text-anchor="middle" x="766.0934" y="-685.3" font-family="Helvetica,sans-Serif" font-size="14.00" fill="#000000">CanOuterRadius</text>
</g>
<!-- CanOuterRadius&#45;&gt;SetSample2 -->
<g id="edge37" class="edge">
<title>CanOuterRadius&#45;&gt;SetSample2</title>
<path fill="none" stroke="#000000" d="M727.2644,-673.3397C700.6668,-662.6125 665.1146,-648.2737 636.2165,-636.6187"/>
<polygon fill="#000000" stroke="#000000" points="637.2772,-633.2726 626.6939,-632.7781 634.6589,-639.7645 637.2772,-633.2726"/>
</g>
<!-- OutputWorkspace -->
<g id="node22" class="node">
<title>OutputWorkspace</title>
<ellipse fill="#f0e68c" stroke="#000000" cx="840.0934" cy="-18" rx="81.7856" ry="18"/>
<text text-anchor="middle" x="840.0934" y="-14.3" font-family="Helvetica,sans-Serif" font-size="14.00" fill="#000000">OutputWorkspace</text>
</g>
<!-- ConvertUnits1 -->
<g id="node24" class="node">
<title>ConvertUnits1</title>
<path fill="#87cefa" stroke="#000000" d="M1453.5934,-1552C1453.5934,-1552 1382.5934,-1552 1382.5934,-1552 1376.5934,-1552 1370.5934,-1546 1370.5934,-1540 1370.5934,-1540 1370.5934,-1528 1370.5934,-1528 1370.5934,-1522 1376.5934,-1516 1382.5934,-1516 1382.5934,-1516 1453.5934,-1516 1453.5934,-1516 1459.5934,-1516 1465.5934,-1522 1465.5934,-1528 1465.5934,-1528 1465.5934,-1540 1465.5934,-1540 1465.5934,-1546 1459.5934,-1552 1453.5934,-1552"/>
<text text-anchor="middle" x="1418.0934" y="-1530.3" font-family="Helvetica,sans-Serif" font-size="14.00" fill="#000000">ConvertUnits</text>
</g>
<!-- GetEFixed&#45;&gt;ConvertUnits1 -->
<g id="edge2" class="edge">
<title>GetEFixed&#45;&gt;ConvertUnits1</title>
<path fill="none" stroke="#000000" d="M1418.0934,-1602.9735C1418.0934,-1591.1918 1418.0934,-1575.5607 1418.0934,-1562.1581"/>
<polygon fill="#000000" stroke="#000000" points="1421.5935,-1562.0033 1418.0934,-1552.0034 1414.5935,-1562.0034 1421.5935,-1562.0033"/>
<text text-anchor="middle" x="1538.0934" y="-1573.8" font-family="Helvetica,sans-Serif" font-size="14.00" fill="#000000">Convert input workspace to Wavelength</text>
</g>
<!-- ConvertUnits1&#45;&gt;SetBeam -->
<g id="edge3" class="edge">
<title>ConvertUnits1&#45;&gt;SetBeam</title>
<path fill="none" stroke="#000000" d="M1387.6889,-1515.9551C1371.5745,-1506.3912 1351.5949,-1494.5334 1334.3242,-1484.2833"/>
<polygon fill="#000000" stroke="#000000" points="1335.9603,-1481.1843 1325.5744,-1479.0904 1332.3876,-1487.204 1335.9603,-1481.1843"/>
</g>
<!-- ConvertUnits2 -->
<g id="node25" class="node">
<title>ConvertUnits2</title>
<path fill="#87cefa" stroke="#000000" d="M876.5934,-1173C876.5934,-1173 805.5934,-1173 805.5934,-1173 799.5934,-1173 793.5934,-1167 793.5934,-1161 793.5934,-1161 793.5934,-1149 793.5934,-1149 793.5934,-1143 799.5934,-1137 805.5934,-1137 805.5934,-1137 876.5934,-1137 876.5934,-1137 882.5934,-1137 888.5934,-1143 888.5934,-1149 888.5934,-1149 888.5934,-1161 888.5934,-1161 888.5934,-1167 882.5934,-1173 876.5934,-1173"/>
<text text-anchor="middle" x="841.0934" y="-1151.3" font-family="Helvetica,sans-Serif" font-size="14.00" fill="#000000">ConvertUnits</text>
</g>
<!-- Scale -->
<g id="node36" class="node">
<title>Scale</title>
<path fill="#87cefa" stroke="#000000" d="M801.0934,-1100C801.0934,-1100 771.0934,-1100 771.0934,-1100 765.0934,-1100 759.0934,-1094 759.0934,-1088 759.0934,-1088 759.0934,-1076 759.0934,-1076 759.0934,-1070 765.0934,-1064 771.0934,-1064 771.0934,-1064 801.0934,-1064 801.0934,-1064 807.0934,-1064 813.0934,-1070 813.0934,-1076 813.0934,-1076 813.0934,-1088 813.0934,-1088 813.0934,-1094 807.0934,-1100 801.0934,-1100"/>
<text text-anchor="middle" x="786.0934" y="-1078.3" font-family="Helvetica,sans-Serif" font-size="14.00" fill="#000000">Scale</text>
</g>
<!-- ConvertUnits2&#45;&gt;Scale -->
<g id="edge19" class="edge">
<title>ConvertUnits2&#45;&gt;Scale</title>
<path fill="none" stroke="#000000" d="M827.4979,-1136.9551C820.9534,-1128.2686 812.983,-1117.6898 805.7895,-1108.142"/>
<polygon fill="#000000" stroke="#000000" points="808.5361,-1105.9711 799.7231,-1100.0904 802.9453,-1110.1834 808.5361,-1105.9711"/>
</g>
<!-- Clone -->
<g id="node44" class="node">
<title>Clone</title>
<ellipse fill="#d3d3d3" stroke="#000000" cx="786.0934" cy="-1009" rx="33.5952" ry="18"/>
<text text-anchor="middle" x="786.0934" y="-1005.3" font-family="Helvetica,sans-Serif" font-size="14.00" fill="#000000">Clone</text>
</g>
<!-- ConvertUnits2&#45;&gt;Clone -->
<g id="edge20" class="edge">
<title>ConvertUnits2&#45;&gt;Clone</title>
<path fill="none" stroke="#000000" d="M839.3366,-1136.9729C837.0498,-1118.1803 832.0989,-1088.1554 822.0934,-1064 817.8353,-1053.7201 811.5988,-1043.2926 805.5084,-1034.3211"/>
<polygon fill="#000000" stroke="#000000" points="808.1789,-1032.0357 799.5455,-1025.8943 802.4648,-1036.0791 808.1789,-1032.0357"/>
</g>
<!-- ConvertUnits3 -->
<g id="node26" class="node">
<title>ConvertUnits3</title>
<path fill="#87cefa" stroke="#000000" d="M875.5934,-255C875.5934,-255 804.5934,-255 804.5934,-255 798.5934,-255 792.5934,-249 792.5934,-243 792.5934,-243 792.5934,-231 792.5934,-231 792.5934,-225 798.5934,-219 804.5934,-219 804.5934,-219 875.5934,-219 875.5934,-219 881.5934,-219 887.5934,-225 887.5934,-231 887.5934,-231 887.5934,-243 887.5934,-243 887.5934,-249 881.5934,-255 875.5934,-255"/>
<text text-anchor="middle" x="840.0934" y="-233.3" font-family="Helvetica,sans-Serif" font-size="14.00" fill="#000000">ConvertUnits</text>
</g>
<!-- AddSampleLogMultiple -->
<g id="node39" class="node">
<title>AddSampleLogMultiple</title>
<path fill="#87cefa" stroke="#000000" d="M906.5934,-182C906.5934,-182 773.5934,-182 773.5934,-182 767.5934,-182 761.5934,-176 761.5934,-170 761.5934,-170 761.5934,-158 761.5934,-158 761.5934,-152 767.5934,-146 773.5934,-146 773.5934,-146 906.5934,-146 906.5934,-146 912.5934,-146 918.5934,-152 918.5934,-158 918.5934,-158 918.5934,-170 918.5934,-170 918.5934,-176 912.5934,-182 906.5934,-182"/>
<text text-anchor="middle" x="840.0934" y="-160.3" font-family="Helvetica,sans-Serif" font-size="14.00" fill="#000000">AddSampleLogMultiple</text>
</g>
<!-- ConvertUnits3&#45;&gt;AddSampleLogMultiple -->
<g id="edge48" class="edge">
<title>ConvertUnits3&#45;&gt;AddSampleLogMultiple</title>
<path fill="none" stroke="#000000" d="M840.0934,-218.9551C840.0934,-210.8828 840.0934,-201.1764 840.0934,-192.1817"/>
<polygon fill="#000000" stroke="#000000" points="843.5935,-192.0903 840.0934,-182.0904 836.5935,-192.0904 843.5935,-192.0903"/>
</g>
<!-- SetBeam&#45;&gt;SetSample -->
<g id="edge6" class="edge">
<title>SetBeam&#45;&gt;SetSample</title>
<path fill="none" stroke="#000000" d="M1258.5142,-1445.4776C1255.6923,-1444.5548 1252.8639,-1443.7134 1250.0934,-1443 1111.5438,-1407.3251 942.4529,-1394.5013 858.9141,-1390.1232"/>
<polygon fill="#000000" stroke="#000000" points="858.8375,-1386.615 848.6738,-1389.6066 858.4848,-1393.6061 858.8375,-1386.615"/>
</g>
<!-- SetBeam1&#45;&gt;SetSample1 -->
<g id="edge28" class="edge">
<title>SetBeam1&#45;&gt;SetSample1</title>
<path fill="none" stroke="#000000" d="M239.6463,-671.3287C260.1142,-661.4337 285.8408,-648.9963 307.7156,-638.4211"/>
<polygon fill="#000000" stroke="#000000" points="309.3484,-641.5193 316.8281,-634.0157 306.3016,-635.2171 309.3484,-641.5193"/>
</g>
<!-- SetBeam2&#45;&gt;SetSample2 -->
<g id="edge36" class="edge">
<title>SetBeam2&#45;&gt;SetSample2</title>
<path fill="none" stroke="#000000" d="M622.7339,-670.9551C616.8444,-662.3564 609.6848,-651.9034 603.1973,-642.4316"/>
<polygon fill="#000000" stroke="#000000" points="606.0226,-640.3628 597.4841,-634.0904 600.2474,-644.3185 606.0226,-640.3628"/>
</g>
<!-- SetSample&#45;&gt;MonteCarlo -->
<g id="edge13" class="edge">
<title>SetSample&#45;&gt;MonteCarlo</title>
<path fill="none" stroke="#000000" d="M766.8013,-1369.9551C744.7607,-1360.0841 717.2637,-1347.7695 693.8888,-1337.301"/>
<polygon fill="#000000" stroke="#000000" points="695.0441,-1333.9835 684.487,-1333.0904 692.1829,-1340.3721 695.0441,-1333.9835"/>
</g>
<!-- MonteCarlo1 -->
<g id="node34" class="node">
<title>MonteCarlo1</title>
<path fill="#87cefa" stroke="#000000" d="M475.5934,-561C475.5934,-561 412.5934,-561 412.5934,-561 406.5934,-561 400.5934,-555 400.5934,-549 400.5934,-549 400.5934,-537 400.5934,-537 400.5934,-531 406.5934,-525 412.5934,-525 412.5934,-525 475.5934,-525 475.5934,-525 481.5934,-525 487.5934,-531 487.5934,-537 487.5934,-537 487.5934,-549 487.5934,-549 487.5934,-555 481.5934,-561 475.5934,-561"/>
<text text-anchor="middle" x="444.0934" y="-539.3" font-family="Helvetica,sans-Serif" font-size="14.00" fill="#000000">MonteCarlo</text>
</g>
<!-- SetSample1&#45;&gt;MonteCarlo1 -->
<g id="edge32" class="edge">
<title>SetSample1&#45;&gt;MonteCarlo1</title>
<path fill="none" stroke="#000000" d="M376.3406,-597.9551C387.6989,-588.7422 401.6817,-577.4006 413.989,-567.418"/>
<polygon fill="#000000" stroke="#000000" points="416.2286,-570.1081 421.7902,-561.0904 411.819,-564.6716 416.2286,-570.1081"/>
</g>
<!-- MonteCarlo2 -->
<g id="node35" class="node">
<title>MonteCarlo2</title>
<path fill="#87cefa" stroke="#000000" d="M616.5934,-561C616.5934,-561 553.5934,-561 553.5934,-561 547.5934,-561 541.5934,-555 541.5934,-549 541.5934,-549 541.5934,-537 541.5934,-537 541.5934,-531 547.5934,-525 553.5934,-525 553.5934,-525 616.5934,-525 616.5934,-525 622.5934,-525 628.5934,-531 628.5934,-537 628.5934,-537 628.5934,-549 628.5934,-549 628.5934,-555 622.5934,-561 616.5934,-561"/>
<text text-anchor="middle" x="585.0934" y="-539.3" font-family="Helvetica,sans-Serif" font-size="14.00" fill="#000000">MonteCarlo</text>
</g>
<!-- SetSample2&#45;&gt;MonteCarlo2 -->
<g id="edge40" class="edge">
<title>SetSample2&#45;&gt;MonteCarlo2</title>
<path fill="none" stroke="#000000" d="M585.0934,-597.9551C585.0934,-589.8828 585.0934,-580.1764 585.0934,-571.1817"/>
<polygon fill="#000000" stroke="#000000" points="588.5935,-571.0903 585.0934,-561.0904 581.5935,-571.0904 588.5935,-571.0903"/>
</g>
<!-- MonteCarlo&#45;&gt;AbsWorkspace1 -->
<g id="edge16" class="edge">
<title>MonteCarlo&#45;&gt;AbsWorkspace1</title>
<path fill="none" stroke="#000000" d="M641.1271,-1296.9551C639.8002,-1288.8828 638.2046,-1279.1764 636.726,-1270.1817"/>
<polygon fill="#000000" stroke="#000000" points="640.143,-1269.3902 635.0672,-1260.0904 633.2357,-1270.5257 640.143,-1269.3902"/>
</g>
<!-- canGiven -->
<g id="node42" class="node">
<title>canGiven</title>
<polygon fill="#32cd32" stroke="#000000" points="889.0934,-1260 746.6547,-1242 889.0934,-1224 1031.5322,-1242 889.0934,-1260"/>
<text text-anchor="middle" x="889.0934" y="-1238.3" font-family="Helvetica,sans-Serif" font-size="14.00" fill="#000000">Container Workspace?</text>
</g>
<!-- MonteCarlo&#45;&gt;canGiven -->
<g id="edge17" class="edge">
<title>MonteCarlo&#45;&gt;canGiven</title>
<path fill="none" stroke="#000000" d="M687.6122,-1302.0332C729.2874,-1289.6157 792.2232,-1270.8634 836.6461,-1257.6272"/>
<polygon fill="#000000" stroke="#000000" points="837.8062,-1260.9337 846.3903,-1254.7238 835.8072,-1254.2251 837.8062,-1260.9337"/>
</g>
<!-- Multiply -->
<g id="node41" class="node">
<title>Multiply</title>
<path fill="#87cefa" stroke="#000000" d="M604.5934,-488C604.5934,-488 565.5934,-488 565.5934,-488 559.5934,-488 553.5934,-482 553.5934,-476 553.5934,-476 553.5934,-464 553.5934,-464 553.5934,-458 559.5934,-452 565.5934,-452 565.5934,-452 604.5934,-452 604.5934,-452 610.5934,-452 616.5934,-458 616.5934,-464 616.5934,-464 616.5934,-476 616.5934,-476 616.5934,-482 610.5934,-488 604.5934,-488"/>
<text text-anchor="middle" x="585.0934" y="-466.3" font-family="Helvetica,sans-Serif" font-size="14.00" fill="#000000">Multiply</text>
</g>
<!-- MonteCarlo1&#45;&gt;Multiply -->
<g id="edge33" class="edge">
<title>MonteCarlo1&#45;&gt;Multiply</title>
<path fill="none" stroke="#000000" d="M478.9474,-524.9551C498.8382,-514.657 523.8663,-501.6991 544.6232,-490.9526"/>
<polygon fill="#000000" stroke="#000000" points="546.2559,-494.0487 553.5271,-486.3429 543.0375,-487.8324 546.2559,-494.0487"/>
</g>
<!-- MonteCarlo2&#45;&gt;Multiply -->
<g id="edge41" class="edge">
<title>MonteCarlo2&#45;&gt;Multiply</title>
<path fill="none" stroke="#000000" d="M585.0934,-524.9551C585.0934,-516.8828 585.0934,-507.1764 585.0934,-498.1817"/>
<polygon fill="#000000" stroke="#000000" points="588.5935,-498.0903 585.0934,-488.0904 581.5935,-498.0904 588.5935,-498.0903"/>
</g>
<!-- Scale&#45;&gt;Clone -->
<g id="edge21" class="edge">
<title>Scale&#45;&gt;Clone</title>
<path fill="none" stroke="#000000" d="M786.0934,-1063.9551C786.0934,-1055.8828 786.0934,-1046.1764 786.0934,-1037.1817"/>
<polygon fill="#000000" stroke="#000000" points="789.5935,-1037.0903 786.0934,-1027.0904 782.5935,-1037.0904 789.5935,-1037.0903"/>
</g>
<!-- Divide -->
<g id="node37" class="node">
<title>Divide</title>
<path fill="#87cefa" stroke="#000000" d="M778.0934,-415C778.0934,-415 748.0934,-415 748.0934,-415 742.0934,-415 736.0934,-409 736.0934,-403 736.0934,-403 736.0934,-391 736.0934,-391 736.0934,-385 742.0934,-379 748.0934,-379 748.0934,-379 778.0934,-379 778.0934,-379 784.0934,-379 790.0934,-385 790.0934,-391 790.0934,-391 790.0934,-403 790.0934,-403 790.0934,-409 784.0934,-415 778.0934,-415"/>
<text text-anchor="middle" x="763.0934" y="-393.3" font-family="Helvetica,sans-Serif" font-size="14.00" fill="#000000">Divide</text>
</g>
<!-- Minus -->
<g id="node38" class="node">
<title>Minus</title>
<path fill="#87cefa" stroke="#000000" d="M778.0934,-342C778.0934,-342 748.0934,-342 748.0934,-342 742.0934,-342 736.0934,-336 736.0934,-330 736.0934,-330 736.0934,-318 736.0934,-318 736.0934,-312 742.0934,-306 748.0934,-306 748.0934,-306 778.0934,-306 778.0934,-306 784.0934,-306 790.0934,-312 790.0934,-318 790.0934,-318 790.0934,-330 790.0934,-330 790.0934,-336 784.0934,-342 778.0934,-342"/>
<text text-anchor="middle" x="763.0934" y="-320.3" font-family="Helvetica,sans-Serif" font-size="14.00" fill="#000000">Minus</text>
</g>
<!-- Divide&#45;&gt;Minus -->
<g id="edge45" class="edge">
<title>Divide&#45;&gt;Minus</title>
<path fill="none" stroke="#000000" d="M763.0934,-378.9551C763.0934,-370.8828 763.0934,-361.1764 763.0934,-352.1817"/>
<polygon fill="#000000" stroke="#000000" points="766.5935,-352.0903 763.0934,-342.0904 759.5935,-352.0904 766.5935,-352.0903"/>
</g>
<!-- Minus&#45;&gt;ConvertUnits3 -->
<g id="edge46" class="edge">
<title>Minus&#45;&gt;ConvertUnits3</title>
<path fill="none" stroke="#000000" d="M758.977,-305.6391C757.6882,-295.2687 757.9382,-282.5187 764.0934,-273 768.8798,-265.5981 775.6358,-259.6852 783.166,-254.9706"/>
<polygon fill="#000000" stroke="#000000" points="785.2033,-257.8452 792.2899,-249.9692 781.8385,-251.7069 785.2033,-257.8452"/>
<text text-anchor="middle" x="833.5934" y="-276.8" font-family="Helvetica,sans-Serif" font-size="14.00" fill="#000000">Convert back to DeltaE</text>
</g>
<!-- GroupWorkspaces -->
<g id="node40" class="node">
<title>GroupWorkspaces</title>
<path fill="#87cefa" stroke="#000000" d="M893.0934,-109C893.0934,-109 787.0934,-109 787.0934,-109 781.0934,-109 775.0934,-103 775.0934,-97 775.0934,-97 775.0934,-85 775.0934,-85 775.0934,-79 781.0934,-73 787.0934,-73 787.0934,-73 893.0934,-73 893.0934,-73 899.0934,-73 905.0934,-79 905.0934,-85 905.0934,-85 905.0934,-97 905.0934,-97 905.0934,-103 899.0934,-109 893.0934,-109"/>
<text text-anchor="middle" x="840.0934" y="-87.3" font-family="Helvetica,sans-Serif" font-size="14.00" fill="#000000">GroupWorkspaces</text>
</g>
<!-- AddSampleLogMultiple&#45;&gt;GroupWorkspaces -->
<g id="edge49" class="edge">
<title>AddSampleLogMultiple&#45;&gt;GroupWorkspaces</title>
<path fill="none" stroke="#000000" d="M840.0934,-145.9551C840.0934,-137.8828 840.0934,-128.1764 840.0934,-119.1817"/>
<polygon fill="#000000" stroke="#000000" points="843.5935,-119.0903 840.0934,-109.0904 836.5935,-119.0904 843.5935,-119.0903"/>
</g>
<!-- GroupWorkspaces&#45;&gt;OutputWorkspace -->
<g id="edge50" class="edge">
<title>GroupWorkspaces&#45;&gt;OutputWorkspace</title>
<path fill="none" stroke="#000000" d="M840.0934,-72.9551C840.0934,-64.8828 840.0934,-55.1764 840.0934,-46.1817"/>
<polygon fill="#000000" stroke="#000000" points="843.5935,-46.0903 840.0934,-36.0904 836.5935,-46.0904 843.5935,-46.0903"/>
</g>
<!-- Multiply&#45;&gt;CanAbsorptionWorkspace -->
<g id="edge42" class="edge">
<title>Multiply&#45;&gt;CanAbsorptionWorkspace</title>
<path fill="none" stroke="#000000" d="M585.0934,-451.9551C585.0934,-443.8828 585.0934,-434.1764 585.0934,-425.1817"/>
<polygon fill="#000000" stroke="#000000" points="588.5935,-425.0903 585.0934,-415.0904 581.5935,-425.0904 588.5935,-425.0903"/>
</g>
<!-- Multiply&#45;&gt;Divide -->
<g id="edge43" class="edge">
<title>Multiply&#45;&gt;Divide</title>
<path fill="none" stroke="#000000" d="M616.9163,-456.9491C647.6376,-444.3499 694.1213,-425.2863 726.3903,-412.0524"/>
<polygon fill="#000000" stroke="#000000" points="727.9912,-415.1788 735.9153,-408.1461 725.3351,-408.7023 727.9912,-415.1788"/>
</g>
<!-- canGiven&#45;&gt;ConvertUnits2 -->
<g id="edge18" class="edge">
<title>canGiven&#45;&gt;ConvertUnits2</title>
<path fill="none" stroke="#000000" d="M879.6102,-1224.8116C872.9061,-1212.6605 863.7814,-1196.122 856.096,-1182.1922"/>
<polygon fill="#000000" stroke="#000000" points="858.9481,-1180.1162 851.0527,-1173.0512 852.819,-1183.4978 858.9481,-1180.1162"/>
<text text-anchor="middle" x="880.0934" y="-1194.8" font-family="Helvetica,sans-Serif" font-size="14.00" fill="#000000">Yes</text>
</g>
<!-- canGiven&#45;&gt;ConvertUnits3 -->
<g id="edge47" class="edge">
<title>canGiven&#45;&gt;ConvertUnits3</title>
<path fill="none" stroke="#000000" d="M898.1069,-1224.86C906.2922,-1207.6796 917.0934,-1180.2288 917.0934,-1155 917.0934,-1155 917.0934,-1155 917.0934,-324 917.0934,-300.4948 917.5008,-291.5721 903.0934,-273 899.667,-268.5832 895.5356,-264.6159 891.0464,-261.075"/>
<polygon fill="#000000" stroke="#000000" points="892.844,-258.0599 882.6547,-255.1569 888.8097,-263.7805 892.844,-258.0599"/>
<text text-anchor="middle" x="926.0934" y="-728.8" font-family="Helvetica,sans-Serif" font-size="14.00" fill="#000000">No</text>
</g>
<!-- useCorrections -->
<g id="node43" class="node">
<title>useCorrections</title>
<polygon fill="#32cd32" stroke="#000000" points="635.0934,-881 492.6547,-863 635.0934,-845 777.5322,-863 635.0934,-881"/>
<text text-anchor="middle" x="635.0934" y="-859.3" font-family="Helvetica,sans-Serif" font-size="14.00" fill="#000000">Container Corrections?</text>
</g>
<!-- useCorrections&#45;&gt;CanWorkspace1 -->
<g id="edge26" class="edge">
<title>useCorrections&#45;&gt;CanWorkspace1</title>
<path fill="none" stroke="#000000" d="M598.6325,-849.5017C558.9971,-834.8282 495.3751,-811.2745 450.8642,-794.796"/>
<polygon fill="#000000" stroke="#000000" points="451.9851,-791.4789 441.392,-791.2892 449.5548,-798.0434 451.9851,-791.4789"/>
<text text-anchor="middle" x="544.0934" y="-815.8" font-family="Helvetica,sans-Serif" font-size="14.00" fill="#000000">Yes</text>
</g>
<!-- useCorrections&#45;&gt;CanWorkspace2 -->
<g id="edge34" class="edge">
<title>useCorrections&#45;&gt;CanWorkspace2</title>
<path fill="none" stroke="#000000" d="M635.0934,-844.9735C635.0934,-833.1918 635.0934,-817.5607 635.0934,-804.1581"/>
<polygon fill="#000000" stroke="#000000" points="638.5935,-804.0033 635.0934,-794.0034 631.5935,-804.0034 638.5935,-804.0033"/>
<text text-anchor="middle" x="647.0934" y="-815.8" font-family="Helvetica,sans-Serif" font-size="14.00" fill="#000000">Yes</text>
</g>
<!-- useCorrections&#45;&gt;Divide -->
<g id="edge44" class="edge">
<title>useCorrections&#45;&gt;Divide</title>
<path fill="none" stroke="#000000" d="M696.7914,-852.7674C766.7161,-839.3805 871.0934,-813.172 871.0934,-776 871.0934,-776 871.0934,-776 871.0934,-470 871.0934,-434.8753 831.3976,-415.5087 800.1381,-405.7034"/>
<polygon fill="#000000" stroke="#000000" points="800.9264,-402.2875 790.3464,-402.8479 798.9666,-409.0076 800.9264,-402.2875"/>
<text text-anchor="middle" x="880.0934" y="-612.3" font-family="Helvetica,sans-Serif" font-size="14.00" fill="#000000">No</text>
</g>
<!-- Clone&#45;&gt;Divide1 -->
<g id="edge22" class="edge">
<title>Clone&#45;&gt;Divide1</title>
<path fill="none" stroke="#000000" d="M760.9868,-996.7814C736.8894,-985.0541 700.2158,-967.2062 672.8342,-953.8805"/>
<polygon fill="#000000" stroke="#000000" points="674.0957,-950.602 663.5723,-949.3731 671.0324,-956.8962 674.0957,-950.602"/>
</g>
<!-- Divide1&#45;&gt;useCorrections -->
<g id="edge25" class="edge">
<title>Divide1&#45;&gt;useCorrections</title>
<path fill="none" stroke="#000000" d="M635.8462,-917.9551C635.7357,-909.8828 635.6027,-900.1764 635.4795,-891.1817"/>
<polygon fill="#000000" stroke="#000000" points="638.978,-891.0414 635.3412,-881.0904 631.9786,-891.1374 638.978,-891.0414"/>
</g>
</g>
</svg>
