<?xml version="1.0" encoding="UTF-8" standalone="no"?>
<!DOCTYPE svg PUBLIC "-//W3C//DTD SVG 1.1//EN"
 "http://www.w3.org/Graphics/SVG/1.1/DTD/svg11.dtd">
<!-- Generated by graphviz version 2.40.1 (20161225.0304)
 -->
<!-- Title: IqtFitMultiple Pages: 1 -->
<svg width="1568pt" height="968pt"
 viewBox="0.00 0.00 1568.39 968.00" xmlns="http://www.w3.org/2000/svg" xmlns:xlink="http://www.w3.org/1999/xlink">
<g id="graph0" class="graph" transform="scale(1 1) rotate(0) translate(4 964)">
<title>IqtFitMultiple</title>
<polygon fill="#ffffff" stroke="transparent" points="-4,4 -4,-964 1564.3933,-964 1564.3933,4 -4,4"/>
<text text-anchor="middle" x="780.1967" y="-944.8" font-family="Helvetica,sans-Serif" font-size="14.00" fill="#000000">IqtFitMultiple Flowchart</text>
<!-- InputWorkspace -->
<g id="node1" class="node">
<title>InputWorkspace</title>
<ellipse fill="#f0e68c" stroke="#000000" cx="180.3933" cy="-919" rx="74.9875" ry="18"/>
<text text-anchor="middle" x="180.3933" y="-915.3" font-family="Helvetica,sans-Serif" font-size="14.00" fill="#000000">InputWorkspace</text>
</g>
<!-- CropWorkspace -->
<g id="node17" class="node">
<title>CropWorkspace</title>
<path fill="#87cefa" stroke="#000000" d="M477.3933,-864C477.3933,-864 387.3933,-864 387.3933,-864 381.3933,-864 375.3933,-858 375.3933,-852 375.3933,-852 375.3933,-840 375.3933,-840 375.3933,-834 381.3933,-828 387.3933,-828 387.3933,-828 477.3933,-828 477.3933,-828 483.3933,-828 489.3933,-834 489.3933,-840 489.3933,-840 489.3933,-852 489.3933,-852 489.3933,-858 483.3933,-864 477.3933,-864"/>
<text text-anchor="middle" x="432.3933" y="-842.3" font-family="Helvetica,sans-Serif" font-size="14.00" fill="#000000">CropWorkspace</text>
</g>
<!-- InputWorkspace&#45;&gt;CropWorkspace -->
<g id="edge1" class="edge">
<title>InputWorkspace&#45;&gt;CropWorkspace</title>
<path fill="none" stroke="#000000" d="M228.3857,-905.0974C267.2035,-893.8526 322.3066,-877.8902 365.4614,-865.389"/>
<polygon fill="#000000" stroke="#000000" points="366.6839,-868.6788 375.3152,-862.5345 364.7362,-861.9552 366.6839,-868.6788"/>
</g>
<!-- ExtractQENSMembers -->
<g id="node24" class="node">
<title>ExtractQENSMembers</title>
<path fill="#87cefa" stroke="#000000" d="M267.8933,-196C267.8933,-196 136.8933,-196 136.8933,-196 130.8933,-196 124.8933,-190 124.8933,-184 124.8933,-184 124.8933,-172 124.8933,-172 124.8933,-166 130.8933,-160 136.8933,-160 136.8933,-160 267.8933,-160 267.8933,-160 273.8933,-160 279.8933,-166 279.8933,-172 279.8933,-172 279.8933,-184 279.8933,-184 279.8933,-190 273.8933,-196 267.8933,-196"/>
<text text-anchor="middle" x="202.3933" y="-174.3" font-family="Helvetica,sans-Serif" font-size="14.00" fill="#000000">ExtractQENSMembers</text>
</g>
<!-- InputWorkspace&#45;&gt;ExtractQENSMembers -->
<g id="edge29" class="edge">
<title>InputWorkspace&#45;&gt;ExtractQENSMembers</title>
<path fill="none" stroke="#000000" d="M189.0883,-900.8527C195.2377,-886.3516 202.3933,-865.3255 202.3933,-846 202.3933,-846 202.3933,-846 202.3933,-265 202.3933,-245.5475 202.3933,-223.6484 202.3933,-206.6877"/>
<polygon fill="#000000" stroke="#000000" points="205.8934,-206.3305 202.3933,-196.3306 198.8934,-206.3306 205.8934,-206.3305"/>
</g>
<!-- InputWorkspace2 -->
<g id="node2" class="node">
<title>InputWorkspace2</title>
<ellipse fill="#f0e68c" stroke="#000000" cx="1192.3933" cy="-526" rx="74.9875" ry="18"/>
<text text-anchor="middle" x="1192.3933" y="-522.3" font-family="Helvetica,sans-Serif" font-size="14.00" fill="#000000">InputWorkspace</text>
</g>
<!-- CopyLogs -->
<g id="node22" class="node">
<title>CopyLogs</title>
<path fill="#87cefa" stroke="#000000" d="M791.8933,-196C791.8933,-196 738.8933,-196 738.8933,-196 732.8933,-196 726.8933,-190 726.8933,-184 726.8933,-184 726.8933,-172 726.8933,-172 726.8933,-166 732.8933,-160 738.8933,-160 738.8933,-160 791.8933,-160 791.8933,-160 797.8933,-160 803.8933,-166 803.8933,-172 803.8933,-172 803.8933,-184 803.8933,-184 803.8933,-190 797.8933,-196 791.8933,-196"/>
<text text-anchor="middle" x="765.3933" y="-174.3" font-family="Helvetica,sans-Serif" font-size="14.00" fill="#000000">CopyLogs</text>
</g>
<!-- InputWorkspace2&#45;&gt;CopyLogs -->
<g id="edge18" class="edge">
<title>InputWorkspace2&#45;&gt;CopyLogs</title>
<path fill="none" stroke="#000000" d="M1188.3975,-507.7702C1184.9067,-490.2365 1180.3933,-462.9381 1180.3933,-439 1180.3933,-439 1180.3933,-439 1180.3933,-265 1180.3933,-227.9611 923.9014,-195.3889 814.2067,-183.1522"/>
<polygon fill="#000000" stroke="#000000" points="814.3866,-179.6509 804.0628,-182.0321 813.6182,-186.6086 814.3866,-179.6509"/>
<text text-anchor="middle" x="1370.3933" y="-348.3" font-family="Helvetica,sans-Serif" font-size="14.00" fill="#000000">Copy SampleLogs from InputWorkspace to OutputWorkspaces</text>
</g>
<!-- CopyLogs2 -->
<g id="node23" class="node">
<title>CopyLogs2</title>
<path fill="#87cefa" stroke="#000000" d="M330.8933,-457C330.8933,-457 277.8933,-457 277.8933,-457 271.8933,-457 265.8933,-451 265.8933,-445 265.8933,-445 265.8933,-433 265.8933,-433 265.8933,-427 271.8933,-421 277.8933,-421 277.8933,-421 330.8933,-421 330.8933,-421 336.8933,-421 342.8933,-427 342.8933,-433 342.8933,-433 342.8933,-445 342.8933,-445 342.8933,-451 336.8933,-457 330.8933,-457"/>
<text text-anchor="middle" x="304.3933" y="-435.3" font-family="Helvetica,sans-Serif" font-size="14.00" fill="#000000">Copy logs</text>
</g>
<!-- InputWorkspace2&#45;&gt;CopyLogs2 -->
<g id="edge20" class="edge">
<title>InputWorkspace2&#45;&gt;CopyLogs2</title>
<path fill="none" stroke="#000000" d="M1133.4008,-514.8353C1067.0403,-502.7743 955.9096,-484.0697 859.3933,-475 750.0042,-464.7207 477.5366,-478.7009 353.2078,-456.8741"/>
<polygon fill="#000000" stroke="#000000" points="353.5584,-453.378 343.0804,-454.947 352.2498,-460.2547 353.5584,-453.378"/>
</g>
<!-- Function -->
<g id="node3" class="node">
<title>Function</title>
<ellipse fill="#f0e68c" stroke="#000000" cx="569.3933" cy="-686" rx="44.393" ry="18"/>
<text text-anchor="middle" x="569.3933" y="-682.3" font-family="Helvetica,sans-Serif" font-size="14.00" fill="#000000">Function</text>
</g>
<!-- Fit -->
<g id="node18" class="node">
<title>Fit</title>
<path fill="#87cefa" stroke="#000000" d="M572.3933,-631C572.3933,-631 542.3933,-631 542.3933,-631 536.3933,-631 530.3933,-625 530.3933,-619 530.3933,-619 530.3933,-607 530.3933,-607 530.3933,-601 536.3933,-595 542.3933,-595 542.3933,-595 572.3933,-595 572.3933,-595 578.3933,-595 584.3933,-601 584.3933,-607 584.3933,-607 584.3933,-619 584.3933,-619 584.3933,-625 578.3933,-631 572.3933,-631"/>
<text text-anchor="middle" x="557.3933" y="-609.3" font-family="Helvetica,sans-Serif" font-size="14.00" fill="#000000">Fit</text>
</g>
<!-- Function&#45;&gt;Fit -->
<g id="edge9" class="edge">
<title>Function&#45;&gt;Fit</title>
<path fill="none" stroke="#000000" d="M566.427,-667.9551C565.1001,-659.8828 563.5045,-650.1764 562.0259,-641.1817"/>
<polygon fill="#000000" stroke="#000000" points="565.4429,-640.3902 560.3671,-631.0904 558.5356,-641.5257 565.4429,-640.3902"/>
</g>
<!-- StartX -->
<g id="node4" class="node">
<title>StartX</title>
<ellipse fill="#f0e68c" stroke="#000000" cx="533.3933" cy="-919" rx="35.194" ry="18"/>
<text text-anchor="middle" x="533.3933" y="-915.3" font-family="Helvetica,sans-Serif" font-size="14.00" fill="#000000">StartX</text>
</g>
<!-- StartX&#45;&gt;CropWorkspace -->
<g id="edge2" class="edge">
<title>StartX&#45;&gt;CropWorkspace</title>
<path fill="none" stroke="#000000" d="M512.9545,-904.2274C499.4339,-894.4551 481.3933,-881.4158 465.8119,-870.154"/>
<polygon fill="#000000" stroke="#000000" points="467.6078,-867.1336 457.4529,-864.1123 463.5073,-872.8069 467.6078,-867.1336"/>
</g>
<!-- EndX -->
<g id="node5" class="node">
<title>EndX</title>
<ellipse fill="#f0e68c" stroke="#000000" cx="619.3933" cy="-919" rx="32.4942" ry="18"/>
<text text-anchor="middle" x="619.3933" y="-915.3" font-family="Helvetica,sans-Serif" font-size="14.00" fill="#000000">EndX</text>
</g>
<!-- EndX&#45;&gt;CropWorkspace -->
<g id="edge3" class="edge">
<title>EndX&#45;&gt;CropWorkspace</title>
<path fill="none" stroke="#000000" d="M593.6998,-907.7846C588.3292,-905.4977 582.6898,-903.1383 577.3933,-901 549.1546,-889.5992 517.5631,-877.536 491.0942,-867.6213"/>
<polygon fill="#000000" stroke="#000000" points="492.1825,-864.2917 481.59,-864.071 489.7329,-870.8491 492.1825,-864.2917"/>
</g>
<!-- SpecMin -->
<g id="node6" class="node">
<title>SpecMin</title>
<ellipse fill="#f0e68c" stroke="#000000" cx="320.3933" cy="-919" rx="45.4919" ry="18"/>
<text text-anchor="middle" x="320.3933" y="-915.3" font-family="Helvetica,sans-Serif" font-size="14.00" fill="#000000">SpecMin</text>
</g>
<!-- SpecMin&#45;&gt;CropWorkspace -->
<g id="edge4" class="edge">
<title>SpecMin&#45;&gt;CropWorkspace</title>
<path fill="none" stroke="#000000" d="M344.1456,-903.5186C359.2375,-893.6819 379.0694,-880.7557 396.1094,-869.6493"/>
<polygon fill="#000000" stroke="#000000" points="398.2594,-872.4258 404.7259,-864.0332 394.4371,-866.5615 398.2594,-872.4258"/>
</g>
<!-- SpecMax -->
<g id="node7" class="node">
<title>SpecMax</title>
<ellipse fill="#f0e68c" stroke="#000000" cx="432.3933" cy="-919" rx="48.1917" ry="18"/>
<text text-anchor="middle" x="432.3933" y="-915.3" font-family="Helvetica,sans-Serif" font-size="14.00" fill="#000000">SpecMax</text>
</g>
<!-- SpecMax&#45;&gt;CropWorkspace -->
<g id="edge5" class="edge">
<title>SpecMax&#45;&gt;CropWorkspace</title>
<path fill="none" stroke="#000000" d="M432.3933,-900.9551C432.3933,-892.8828 432.3933,-883.1764 432.3933,-874.1817"/>
<polygon fill="#000000" stroke="#000000" points="435.8934,-874.0903 432.3933,-864.0904 428.8934,-874.0904 435.8934,-874.0903"/>
</g>
<!-- Minimizer -->
<g id="node8" class="node">
<title>Minimizer</title>
<ellipse fill="#f0e68c" stroke="#000000" cx="681.3933" cy="-686" rx="49.2915" ry="18"/>
<text text-anchor="middle" x="681.3933" y="-682.3" font-family="Helvetica,sans-Serif" font-size="14.00" fill="#000000">Minimizer</text>
</g>
<!-- Minimizer&#45;&gt;Fit -->
<g id="edge10" class="edge">
<title>Minimizer&#45;&gt;Fit</title>
<path fill="none" stroke="#000000" d="M655.0961,-670.5186C637.0943,-659.9207 613.0009,-645.7367 593.2445,-634.1059"/>
<polygon fill="#000000" stroke="#000000" points="594.9031,-631.0209 584.5098,-628.9638 591.3518,-637.0532 594.9031,-631.0209"/>
</g>
<!-- MaxIterations -->
<g id="node9" class="node">
<title>MaxIterations</title>
<ellipse fill="#f0e68c" stroke="#000000" cx="294.3933" cy="-686" rx="63.8893" ry="18"/>
<text text-anchor="middle" x="294.3933" y="-682.3" font-family="Helvetica,sans-Serif" font-size="14.00" fill="#000000">MaxIterations</text>
</g>
<!-- MaxIterations&#45;&gt;Fit -->
<g id="edge11" class="edge">
<title>MaxIterations&#45;&gt;Fit</title>
<path fill="none" stroke="#000000" d="M339.9042,-673.3677C390.9938,-659.1869 472.92,-636.447 520.2897,-623.2987"/>
<polygon fill="#000000" stroke="#000000" points="521.4334,-626.6137 530.133,-620.5665 519.5612,-619.8687 521.4334,-626.6137"/>
</g>
<!-- ParameterTable -->
<g id="node10" class="node">
<title>ParameterTable</title>
<ellipse fill="#f0e68c" stroke="#000000" cx="489.3933" cy="-526" rx="74.187" ry="18"/>
<text text-anchor="middle" x="489.3933" y="-522.3" font-family="Helvetica,sans-Serif" font-size="14.00" fill="#000000">ParameterTable</text>
</g>
<!-- TransposeFitParametersTable -->
<g id="node26" class="node">
<title>TransposeFitParametersTable</title>
<polygon fill="#20b2aa" stroke="#000000" points="698.3933,-457 498.3933,-457 498.3933,-421 698.3933,-421 698.3933,-457"/>
<text text-anchor="middle" x="598.3933" y="-435.3" font-family="Helvetica,sans-Serif" font-size="14.00" fill="#000000">TransposeFitParametersTable</text>
</g>
<!-- ParameterTable&#45;&gt;TransposeFitParametersTable -->
<g id="edge14" class="edge">
<title>ParameterTable&#45;&gt;TransposeFitParametersTable</title>
<path fill="none" stroke="#000000" d="M511.1891,-508.6033C527.3518,-495.7028 549.6041,-477.9418 567.5846,-463.5905"/>
<polygon fill="#000000" stroke="#000000" points="569.8757,-466.2399 575.5081,-457.2662 565.509,-460.769 569.8757,-466.2399"/>
<text text-anchor="middle" x="702.8933" y="-478.8" font-family="Helvetica,sans-Serif" font-size="14.00" fill="#000000">Makes output consistent with PlotPeakByLogValue</text>
</g>
<!-- ParameterNames -->
<g id="node11" class="node">
<title>ParameterNames</title>
<ellipse fill="#f0e68c" stroke="#000000" cx="797.3933" cy="-439" rx="80.6858" ry="18"/>
<text text-anchor="middle" x="797.3933" y="-435.3" font-family="Helvetica,sans-Serif" font-size="14.00" fill="#000000">ParameterNames</text>
</g>
<!-- ConvertParametersToWorkspace -->
<g id="node27" class="node">
<title>ConvertParametersToWorkspace</title>
<polygon fill="#20b2aa" stroke="#000000" points="811.3933,-370 593.3933,-370 593.3933,-334 811.3933,-334 811.3933,-370"/>
<text text-anchor="middle" x="702.3933" y="-348.3" font-family="Helvetica,sans-Serif" font-size="14.00" fill="#000000">ConvertParametersToWorkspace</text>
</g>
<!-- ParameterNames&#45;&gt;ConvertParametersToWorkspace -->
<g id="edge16" class="edge">
<title>ParameterNames&#45;&gt;ConvertParametersToWorkspace</title>
<path fill="none" stroke="#000000" d="M746.1927,-424.9883C727.215,-418.6884 708.9428,-410.9009 703.3933,-403 698.7923,-396.4495 697.3158,-388.1666 697.3309,-380.1913"/>
<polygon fill="#000000" stroke="#000000" points="700.8333,-380.2846 698.0726,-370.0558 693.852,-379.7736 700.8333,-380.2846"/>
<text text-anchor="middle" x="934.8933" y="-391.8" font-family="Helvetica,sans-Serif" font-size="14.00" fill="#000000">Convert parameter of interest into MatrixWorkspace containing paramNames</text>
</g>
<!-- FitGroup -->
<g id="node12" class="node">
<title>FitGroup</title>
<ellipse fill="#f0e68c" stroke="#000000" cx="627.3933" cy="-526" rx="45.4919" ry="18"/>
<text text-anchor="middle" x="627.3933" y="-522.3" font-family="Helvetica,sans-Serif" font-size="14.00" fill="#000000">FitGroup</text>
</g>
<!-- FitGroup&#45;&gt;CopyLogs2 -->
<g id="edge21" class="edge">
<title>FitGroup&#45;&gt;CopyLogs2</title>
<path fill="none" stroke="#000000" d="M592.9167,-514.1945C586.1456,-512.0241 579.0717,-509.8594 572.3933,-508 478.3179,-481.8076 449.5905,-486.1204 352.5796,-457.171"/>
<polygon fill="#000000" stroke="#000000" points="353.559,-453.8106 342.9738,-454.2634 351.531,-460.5105 353.559,-453.8106"/>
</g>
<!-- FitGroup2 -->
<g id="node13" class="node">
<title>FitGroup2</title>
<ellipse fill="#f0e68c" stroke="#000000" cx="283.3933" cy="-265" rx="45.4919" ry="18"/>
<text text-anchor="middle" x="283.3933" y="-261.3" font-family="Helvetica,sans-Serif" font-size="14.00" fill="#000000">FitGroup</text>
</g>
<!-- FitGroup2&#45;&gt;ExtractQENSMembers -->
<g id="edge30" class="edge">
<title>FitGroup2&#45;&gt;ExtractQENSMembers</title>
<path fill="none" stroke="#000000" d="M267.3903,-247.8116C255.6421,-235.1932 239.4888,-217.8433 226.2249,-203.5969"/>
<polygon fill="#000000" stroke="#000000" points="228.5755,-200.9852 219.1996,-196.0512 223.4522,-205.7552 228.5755,-200.9852"/>
</g>
<!-- SampleLogs -->
<g id="node14" class="node">
<title>SampleLogs</title>
<ellipse fill="#f0e68c" stroke="#000000" cx="420.3933" cy="-439" rx="59.5901" ry="18"/>
<text text-anchor="middle" x="420.3933" y="-435.3" font-family="Helvetica,sans-Serif" font-size="14.00" fill="#000000">SampleLogs</text>
</g>
<!-- AddSampleLogMultiple -->
<g id="node20" class="node">
<title>AddSampleLogMultiple</title>
<path fill="#87cefa" stroke="#000000" d="M498.8933,-123C498.8933,-123 365.8933,-123 365.8933,-123 359.8933,-123 353.8933,-117 353.8933,-111 353.8933,-111 353.8933,-99 353.8933,-99 353.8933,-93 359.8933,-87 365.8933,-87 365.8933,-87 498.8933,-87 498.8933,-87 504.8933,-87 510.8933,-93 510.8933,-99 510.8933,-99 510.8933,-111 510.8933,-111 510.8933,-117 504.8933,-123 498.8933,-123"/>
<text text-anchor="middle" x="432.3933" y="-101.3" font-family="Helvetica,sans-Serif" font-size="14.00" fill="#000000">AddSampleLogMultiple</text>
</g>
<!-- SampleLogs&#45;&gt;AddSampleLogMultiple -->
<g id="edge25" class="edge">
<title>SampleLogs&#45;&gt;AddSampleLogMultiple</title>
<path fill="none" stroke="#000000" d="M420.3933,-420.6694C420.3933,-403.0629 420.3933,-375.7135 420.3933,-352 420.3933,-352 420.3933,-352 420.3933,-178 420.3933,-163.1023 422.8568,-146.7182 425.5515,-133.2531"/>
<polygon fill="#000000" stroke="#000000" points="429.0403,-133.6765 427.7194,-123.1644 422.1966,-132.2058 429.0403,-133.6765"/>
<text text-anchor="middle" x="543.8933" y="-261.3" font-family="Helvetica,sans-Serif" font-size="14.00" fill="#000000">Additional SampleLogs based on Fit data</text>
</g>
<!-- AddSampleLogMultiple2 -->
<g id="node21" class="node">
<title>AddSampleLogMultiple2</title>
<path fill="#87cefa" stroke="#000000" d="M375.8933,-370C375.8933,-370 242.8933,-370 242.8933,-370 236.8933,-370 230.8933,-364 230.8933,-358 230.8933,-358 230.8933,-346 230.8933,-346 230.8933,-340 236.8933,-334 242.8933,-334 242.8933,-334 375.8933,-334 375.8933,-334 381.8933,-334 387.8933,-340 387.8933,-346 387.8933,-346 387.8933,-358 387.8933,-358 387.8933,-364 381.8933,-370 375.8933,-370"/>
<text text-anchor="middle" x="309.3933" y="-348.3" font-family="Helvetica,sans-Serif" font-size="14.00" fill="#000000">AddSampleLogMultiple</text>
</g>
<!-- SampleLogs&#45;&gt;AddSampleLogMultiple2 -->
<g id="edge24" class="edge">
<title>SampleLogs&#45;&gt;AddSampleLogMultiple2</title>
<path fill="none" stroke="#000000" d="M398.7279,-422.019C382.1303,-409.0101 359.0044,-390.8843 340.4405,-376.3343"/>
<polygon fill="#000000" stroke="#000000" points="342.5645,-373.5521 332.5348,-370.1379 338.2463,-379.0615 342.5645,-373.5521"/>
</g>
<!-- ResultWorkspace -->
<g id="node15" class="node">
<title>ResultWorkspace</title>
<ellipse fill="#f0e68c" stroke="#000000" cx="765.3933" cy="-265" rx="79.8859" ry="18"/>
<text text-anchor="middle" x="765.3933" y="-261.3" font-family="Helvetica,sans-Serif" font-size="14.00" fill="#000000">ResultWorkspace</text>
</g>
<!-- ResultWorkspace&#45;&gt;CopyLogs -->
<g id="edge19" class="edge">
<title>ResultWorkspace&#45;&gt;CopyLogs</title>
<path fill="none" stroke="#000000" d="M765.3933,-246.9735C765.3933,-235.1918 765.3933,-219.5607 765.3933,-206.1581"/>
<polygon fill="#000000" stroke="#000000" points="768.8934,-206.0033 765.3933,-196.0034 761.8934,-206.0034 768.8934,-206.0033"/>
</g>
<!-- ResultWorkspace2 -->
<g id="node16" class="node">
<title>ResultWorkspace2</title>
<ellipse fill="#f0e68c" stroke="#000000" cx="432.3933" cy="-18" rx="79.8859" ry="18"/>
<text text-anchor="middle" x="432.3933" y="-14.3" font-family="Helvetica,sans-Serif" font-size="14.00" fill="#000000">ResultWorkspace</text>
</g>
<!-- ConvertToHistogram -->
<g id="node19" class="node">
<title>ConvertToHistogram</title>
<path fill="#87cefa" stroke="#000000" d="M499.3933,-791C499.3933,-791 381.3933,-791 381.3933,-791 375.3933,-791 369.3933,-785 369.3933,-779 369.3933,-779 369.3933,-767 369.3933,-767 369.3933,-761 375.3933,-755 381.3933,-755 381.3933,-755 499.3933,-755 499.3933,-755 505.3933,-755 511.3933,-761 511.3933,-767 511.3933,-767 511.3933,-779 511.3933,-779 511.3933,-785 505.3933,-791 499.3933,-791"/>
<text text-anchor="middle" x="440.3933" y="-769.3" font-family="Helvetica,sans-Serif" font-size="14.00" fill="#000000">ConvertToHistogram</text>
</g>
<!-- CropWorkspace&#45;&gt;ConvertToHistogram -->
<g id="edge6" class="edge">
<title>CropWorkspace&#45;&gt;ConvertToHistogram</title>
<path fill="none" stroke="#000000" d="M434.3708,-827.9551C435.2555,-819.8828 436.3192,-810.1764 437.3049,-801.1817"/>
<polygon fill="#000000" stroke="#000000" points="440.8005,-801.4122 438.4108,-791.0904 433.8422,-800.6495 440.8005,-801.4122"/>
</g>
<!-- Fit&#45;&gt;ParameterTable -->
<g id="edge12" class="edge">
<title>Fit&#45;&gt;ParameterTable</title>
<path fill="none" stroke="#000000" d="M543.3037,-594.9735C533.5746,-582.5261 520.4873,-565.782 509.6438,-551.9087"/>
<polygon fill="#000000" stroke="#000000" points="512.1481,-549.4292 503.2322,-543.7057 506.6329,-553.74 512.1481,-549.4292"/>
</g>
<!-- Fit&#45;&gt;FitGroup -->
<g id="edge13" class="edge">
<title>Fit&#45;&gt;FitGroup</title>
<path fill="none" stroke="#000000" d="M571.8974,-594.9735C582.074,-582.3254 595.82,-565.2411 607.0852,-551.2401"/>
<polygon fill="#000000" stroke="#000000" points="609.8436,-553.395 613.3855,-543.4097 604.3898,-549.0068 609.8436,-553.395"/>
<text text-anchor="middle" x="778.3933" y="-565.8" font-family="Helvetica,sans-Serif" font-size="14.00" fill="#000000">GroupWorkspace containing fitting results from each spectra</text>
</g>
<!-- ConvertToElasticQ -->
<g id="node25" class="node">
<title>ConvertToElasticQ</title>
<polygon fill="#20b2aa" stroke="#000000" points="506.8933,-704 375.8933,-704 375.8933,-668 506.8933,-668 506.8933,-704"/>
<text text-anchor="middle" x="441.3933" y="-682.3" font-family="Helvetica,sans-Serif" font-size="14.00" fill="#000000">ConvertToElasticQ</text>
</g>
<!-- ConvertToHistogram&#45;&gt;ConvertToElasticQ -->
<g id="edge7" class="edge">
<title>ConvertToHistogram&#45;&gt;ConvertToElasticQ</title>
<path fill="none" stroke="#000000" d="M440.6005,-754.9735C440.7359,-743.1918 440.9156,-727.5607 441.0697,-714.1581"/>
<polygon fill="#000000" stroke="#000000" points="444.5711,-714.043 441.1864,-704.0034 437.5716,-713.9624 444.5711,-714.043"/>
<text text-anchor="middle" x="539.8933" y="-725.8" font-family="Helvetica,sans-Serif" font-size="14.00" fill="#000000">Convert spectrum axis to ElaticQ</text>
</g>
<!-- AddSampleLogMultiple&#45;&gt;ResultWorkspace2 -->
<g id="edge26" class="edge">
<title>AddSampleLogMultiple&#45;&gt;ResultWorkspace2</title>
<path fill="none" stroke="#000000" d="M432.3933,-86.9735C432.3933,-75.1918 432.3933,-59.5607 432.3933,-46.1581"/>
<polygon fill="#000000" stroke="#000000" points="435.8934,-46.0033 432.3933,-36.0034 428.8934,-46.0034 435.8934,-46.0033"/>
<text text-anchor="middle" x="485.3933" y="-57.8" font-family="Helvetica,sans-Serif" font-size="14.00" fill="#000000">Outputworkspace</text>
</g>
<!-- AddSampleLogMultiple2&#45;&gt;FitGroup2 -->
<g id="edge27" class="edge">
<title>AddSampleLogMultiple2&#45;&gt;FitGroup2</title>
<path fill="none" stroke="#000000" d="M302.4338,-333.8014C300.3725,-328.1369 298.1886,-321.8439 296.3933,-316 294.1058,-308.5539 291.9001,-300.4114 289.9755,-292.8621"/>
<polygon fill="#000000" stroke="#000000" points="293.348,-291.9199 287.544,-283.0563 286.5538,-293.6048 293.348,-291.9199"/>
<text text-anchor="middle" x="351.3933" y="-304.8" font-family="Helvetica,sans-Serif" font-size="14.00" fill="#000000">OutputWorkspace</text>
</g>
<!-- CopyLogs&#45;&gt;AddSampleLogMultiple -->
<g id="edge22" class="edge">
<title>CopyLogs&#45;&gt;AddSampleLogMultiple</title>
<path fill="none" stroke="#000000" d="M726.8687,-169.5547C676.8757,-158.5952 588.1215,-139.1386 521.0812,-124.4421"/>
<polygon fill="#000000" stroke="#000000" points="521.4541,-120.9408 510.9365,-122.2182 519.9551,-127.7784 521.4541,-120.9408"/>
</g>
<!-- CopyLogs2&#45;&gt;AddSampleLogMultiple2 -->
<g id="edge23" class="edge">
<title>CopyLogs2&#45;&gt;AddSampleLogMultiple2</title>
<path fill="none" stroke="#000000" d="M305.4293,-420.9735C306.1064,-409.1918 307.0048,-393.5607 307.775,-380.1581"/>
<polygon fill="#000000" stroke="#000000" points="311.279,-380.1877 308.3586,-370.0034 304.2905,-379.786 311.279,-380.1877"/>
</g>
<!-- ConvertToElasticQ&#45;&gt;Fit -->
<g id="edge8" class="edge">
<title>ConvertToElasticQ&#45;&gt;Fit</title>
<path fill="none" stroke="#000000" d="M470.0675,-667.9551C485.5782,-658.194 504.8862,-646.0433 521.3997,-635.6512"/>
<polygon fill="#000000" stroke="#000000" points="523.6452,-638.3735 530.2445,-630.085 519.9168,-632.449 523.6452,-638.3735"/>
</g>
<!-- TransposeFitParametersTable&#45;&gt;ConvertParametersToWorkspace -->
<g id="edge15" class="edge">
<title>TransposeFitParametersTable&#45;&gt;ConvertParametersToWorkspace</title>
<path fill="none" stroke="#000000" d="M619.9422,-420.9735C635.2811,-408.1419 656.0782,-390.7443 672.9475,-376.6326"/>
<polygon fill="#000000" stroke="#000000" points="675.4476,-379.1043 680.872,-370.0034 670.9562,-373.7352 675.4476,-379.1043"/>
</g>
<!-- ConvertParametersToWorkspace&#45;&gt;ResultWorkspace -->
<g id="edge17" class="edge">
<title>ConvertParametersToWorkspace&#45;&gt;ResultWorkspace</title>
<path fill="none" stroke="#000000" d="M715.447,-333.9735C724.4009,-321.6085 736.4252,-305.0036 746.432,-291.1847"/>
<polygon fill="#000000" stroke="#000000" points="749.3261,-293.1556 752.3564,-283.0034 743.6564,-289.05 749.3261,-293.1556"/>
<text text-anchor="middle" x="930.3933" y="-304.8" font-family="Helvetica,sans-Serif" font-size="14.00" fill="#000000">Outputs Matrixworkspace containing Tau, Intensity, A0 and Beta</text>
</g>
<!-- ExtractMembers -->
<g id="node28" class="node">
<title>ExtractMembers</title>
<ellipse fill="#d3d3d3" stroke="#000000" cx="75.3933" cy="-265" rx="75.2868" ry="18"/>
<text text-anchor="middle" x="75.3933" y="-261.3" font-family="Helvetica,sans-Serif" font-size="14.00" fill="#000000">ExtractMembers</text>
</g>
<!-- ExtractMembers&#45;&gt;ExtractQENSMembers -->
<g id="edge28" class="edge">
<title>ExtractMembers&#45;&gt;ExtractQENSMembers</title>
<path fill="none" stroke="#000000" d="M70.7779,-246.7275C69.2225,-236.1317 69.3707,-223.1227 76.3933,-214 82.0723,-206.6228 96.9985,-200.2831 114.6787,-195.0715"/>
<polygon fill="#000000" stroke="#000000" points="116.0353,-198.3279 124.7432,-192.2928 114.1724,-191.5804 116.0353,-198.3279"/>
<text text-anchor="middle" x="132.3933" y="-217.8" font-family="Helvetica,sans-Serif" font-size="14.00" fill="#000000">Extract members?</text>
</g>
</g>
</svg>
