<?xml version="1.0" encoding="UTF-8" standalone="no"?>
<!DOCTYPE svg PUBLIC "-//W3C//DTD SVG 1.1//EN"
 "http://www.w3.org/Graphics/SVG/1.1/DTD/svg11.dtd">
<!-- Generated by graphviz version 2.40.1 (20161225.0304)
 -->
<!-- Title: Sample Pages: 1 -->
<svg width="1354pt" height="764pt"
 viewBox="0.00 0.00 1354.34 764.00" xmlns="http://www.w3.org/2000/svg" xmlns:xlink="http://www.w3.org/1999/xlink">
<g id="graph0" class="graph" transform="scale(1 1) rotate(0) translate(4 760)">
<title>Sample</title>
<polygon fill="#ffffff" stroke="transparent" points="-4,4 -4,-760 1350.3362,-760 1350.3362,4 -4,4"/>
<!-- AverageCounts -->
<g id="node1" class="node">
<title>AverageCounts</title>
<polygon fill="#32cd32" stroke="#000000" points="655.3362,-180 554.1215,-162 655.3362,-144 756.5509,-162 655.3362,-180"/>
<text text-anchor="middle" x="655.3362" y="-158.3" font-family="Helvetica,sans-Serif" font-size="14.00" fill="#000000">AverageCounts</text>
</g>
<!-- OutputWorkspace -->
<g id="node11" class="node">
<title>OutputWorkspace</title>
<polygon fill="#c0c0c0" stroke="#000000" points="765.9181,-36 590.0071,-36 544.7543,0 720.6654,0 765.9181,-36"/>
<text text-anchor="middle" x="655.3362" y="-14.3" font-family="Times,serif" font-size="14.00" fill="#000000">OutputWorkspace</text>
</g>
<!-- AverageCounts&#45;&gt;OutputWorkspace -->
<g id="edge23" class="edge">
<title>AverageCounts&#45;&gt;OutputWorkspace</title>
<path fill="none" stroke="#000000" d="M680.4715,-148.3023C694.7405,-139.0066 711.3112,-125.2711 719.3362,-108 726.0784,-93.4899 726.0784,-86.5101 719.3362,-72 713.9224,-60.3486 704.6193,-50.3063 694.7575,-42.1507"/>
<polygon fill="#000000" stroke="#000000" points="696.8515,-39.3458 686.7923,-36.0198 692.5819,-44.8929 696.8515,-39.3458"/>
</g>
<!-- Plus -->
<g id="node16" class="node">
<title>Plus</title>
<path fill="#87cefa" stroke="#000000" d="M698.3362,-108C698.3362,-108 612.3362,-108 612.3362,-108 606.3362,-108 600.3362,-102 600.3362,-96 600.3362,-96 600.3362,-84 600.3362,-84 600.3362,-78 606.3362,-72 612.3362,-72 612.3362,-72 698.3362,-72 698.3362,-72 704.3362,-72 710.3362,-78 710.3362,-84 710.3362,-84 710.3362,-96 710.3362,-96 710.3362,-102 704.3362,-108 698.3362,-108"/>
<text text-anchor="middle" x="655.3362" y="-86.3" font-family="Helvetica,sans-Serif" font-size="14.00" fill="#000000">Average counts</text>
</g>
<!-- AverageCounts&#45;&gt;Plus -->
<g id="edge22" class="edge">
<title>AverageCounts&#45;&gt;Plus</title>
<path fill="none" stroke="#000000" d="M655.3362,-143.8314C655.3362,-136.131 655.3362,-126.9743 655.3362,-118.4166"/>
<polygon fill="#000000" stroke="#000000" points="658.8363,-118.4132 655.3362,-108.4133 651.8363,-118.4133 658.8363,-118.4132"/>
</g>
<!-- SumOverlappingTubes -->
<g id="node20" class="node">
<title>SumOverlappingTubes</title>
<path fill="#87cefa" stroke="#000000" d="M570.3362,-108C570.3362,-108 438.3362,-108 438.3362,-108 432.3362,-108 426.3362,-102 426.3362,-96 426.3362,-96 426.3362,-84 426.3362,-84 426.3362,-78 432.3362,-72 438.3362,-72 438.3362,-72 570.3362,-72 570.3362,-72 576.3362,-72 582.3362,-78 582.3362,-84 582.3362,-84 582.3362,-96 582.3362,-96 582.3362,-102 576.3362,-108 570.3362,-108"/>
<text text-anchor="middle" x="504.3362" y="-86.3" font-family="Helvetica,sans-Serif" font-size="14.00" fill="#000000">SumOverlappingTubes</text>
</g>
<!-- AverageCounts&#45;&gt;SumOverlappingTubes -->
<g id="edge21" class="edge">
<title>AverageCounts&#45;&gt;SumOverlappingTubes</title>
<path fill="none" stroke="#000000" d="M627.6405,-148.7941C606.3505,-138.6426 576.4451,-124.3831 551.4179,-112.4495"/>
<polygon fill="#000000" stroke="#000000" points="552.6257,-109.148 542.0929,-108.0032 549.6129,-115.4665 552.6257,-109.148"/>
</g>
<!-- SelfAttenuationMethod -->
<g id="node2" class="node">
<title>SelfAttenuationMethod</title>
<polygon fill="#32cd32" stroke="#000000" points="645.3362,-396 503.7358,-378 645.3362,-360 786.9367,-378 645.3362,-396"/>
<text text-anchor="middle" x="645.3362" y="-374.3" font-family="Helvetica,sans-Serif" font-size="14.00" fill="#000000">SelfAttenuationMethod</text>
</g>
<!-- SelfAttenuationMethod&#45;&gt;AverageCounts -->
<g id="edge20" class="edge">
<title>SelfAttenuationMethod&#45;&gt;AverageCounts</title>
<path fill="none" stroke="#000000" d="M713.5243,-368.6498C765.2096,-360.0012 830.0383,-345.2544 846.3362,-324 895.675,-259.6565 771.7861,-203.0932 700.8594,-177.1171"/>
<polygon fill="#000000" stroke="#000000" points="701.8209,-173.7436 691.2264,-173.6571 699.4546,-180.3315 701.8209,-173.7436"/>
</g>
<!-- PaalmanPingsMonteCarloAbsorption -->
<g id="node9" class="node">
<title>PaalmanPingsMonteCarloAbsorption</title>
<ellipse fill="#f0e68c" stroke="#000000" cx="155.3362" cy="-306" rx="155.1726" ry="18"/>
<text text-anchor="middle" x="155.3362" y="-302.3" font-family="Helvetica,sans-Serif" font-size="14.00" fill="#000000">PaalmanPingsMonteCarloAbsorption</text>
</g>
<!-- SelfAttenuationMethod&#45;&gt;PaalmanPingsMonteCarloAbsorption -->
<g id="edge11" class="edge">
<title>SelfAttenuationMethod&#45;&gt;PaalmanPingsMonteCarloAbsorption</title>
<path fill="none" stroke="#000000" d="M579.507,-368.3271C498.0836,-356.3629 358.412,-335.8397 261.7009,-321.6291"/>
<polygon fill="#000000" stroke="#000000" points="262.0018,-318.1358 251.5992,-320.1448 260.9841,-325.0614 262.0018,-318.1358"/>
</g>
<!-- PaalmanPingsAbsorptionCorrection -->
<g id="node18" class="node">
<title>PaalmanPingsAbsorptionCorrection</title>
<path fill="#87cefa" stroke="#000000" d="M547.8362,-324C547.8362,-324 340.8362,-324 340.8362,-324 334.8362,-324 328.8362,-318 328.8362,-312 328.8362,-312 328.8362,-300 328.8362,-300 328.8362,-294 334.8362,-288 340.8362,-288 340.8362,-288 547.8362,-288 547.8362,-288 553.8362,-288 559.8362,-294 559.8362,-300 559.8362,-300 559.8362,-312 559.8362,-312 559.8362,-318 553.8362,-324 547.8362,-324"/>
<text text-anchor="middle" x="444.3362" y="-302.3" font-family="Helvetica,sans-Serif" font-size="14.00" fill="#000000">PaalmanPingsAbsorptionCorrection</text>
</g>
<!-- SelfAttenuationMethod&#45;&gt;PaalmanPingsAbsorptionCorrection -->
<g id="edge14" class="edge">
<title>SelfAttenuationMethod&#45;&gt;PaalmanPingsAbsorptionCorrection</title>
<path fill="none" stroke="#000000" d="M608.0007,-364.6261C578.9648,-354.2252 538.0994,-339.5868 504.4676,-327.5396"/>
<polygon fill="#000000" stroke="#000000" points="505.3324,-324.1316 494.7378,-324.0543 502.9717,-330.7216 505.3324,-324.1316"/>
</g>
<!-- SampleSelfAttenuationFactors -->
<g id="node21" class="node">
<title>SampleSelfAttenuationFactors</title>
<ellipse fill="#d3d3d3" stroke="#000000" cx="707.3362" cy="-306" rx="129.9769" ry="18"/>
<text text-anchor="middle" x="707.3362" y="-302.3" font-family="Helvetica,sans-Serif" font-size="14.00" fill="#000000">SampleSelfAttenuationFactors</text>
</g>
<!-- SelfAttenuationMethod&#45;&gt;SampleSelfAttenuationFactors -->
<g id="edge17" class="edge">
<title>SelfAttenuationMethod&#45;&gt;SampleSelfAttenuationFactors</title>
<path fill="none" stroke="#000000" d="M659.405,-361.6621C667.0167,-352.8227 676.5929,-341.702 685.1807,-331.7289"/>
<polygon fill="#000000" stroke="#000000" points="687.9267,-333.9039 691.7998,-324.0423 682.6223,-329.3362 687.9267,-333.9039"/>
</g>
<!-- Run -->
<g id="node3" class="node">
<title>Run</title>
<ellipse fill="#f0e68c" stroke="#000000" cx="1009.3362" cy="-738" rx="27" ry="18"/>
<text text-anchor="middle" x="1009.3362" y="-734.3" font-family="Helvetica,sans-Serif" font-size="14.00" fill="#000000">Run</text>
</g>
<!-- Load -->
<g id="node12" class="node">
<title>Load</title>
<path fill="#87cefa" stroke="#000000" d="M1101.3362,-684C1101.3362,-684 1071.3362,-684 1071.3362,-684 1065.3362,-684 1059.3362,-678 1059.3362,-672 1059.3362,-672 1059.3362,-660 1059.3362,-660 1059.3362,-654 1065.3362,-648 1071.3362,-648 1071.3362,-648 1101.3362,-648 1101.3362,-648 1107.3362,-648 1113.3362,-654 1113.3362,-660 1113.3362,-660 1113.3362,-672 1113.3362,-672 1113.3362,-678 1107.3362,-684 1101.3362,-684"/>
<text text-anchor="middle" x="1086.3362" y="-662.3" font-family="Helvetica,sans-Serif" font-size="14.00" fill="#000000">Load</text>
</g>
<!-- Run&#45;&gt;Load -->
<g id="edge1" class="edge">
<title>Run&#45;&gt;Load</title>
<path fill="none" stroke="#000000" d="M1025.2907,-723.0816C1035.0974,-713.9116 1047.9174,-701.9241 1059.2761,-691.3029"/>
<polygon fill="#000000" stroke="#000000" points="1061.9377,-693.606 1066.8514,-684.2195 1057.1567,-688.493 1061.9377,-693.606"/>
</g>
<!-- D7YIGPositionCalibration -->
<g id="node4" class="node">
<title>D7YIGPositionCalibration</title>
<ellipse fill="#f0e68c" stroke="#000000" cx="1164.3362" cy="-738" rx="110.4804" ry="18"/>
<text text-anchor="middle" x="1164.3362" y="-734.3" font-family="Helvetica,sans-Serif" font-size="14.00" fill="#000000">D7YIGPositionCalibration</text>
</g>
<!-- D7YIGPositionCalibration&#45;&gt;Load -->
<g id="edge2" class="edge">
<title>D7YIGPositionCalibration&#45;&gt;Load</title>
<path fill="none" stroke="#000000" d="M1145.0553,-720.2022C1135.5646,-711.4416 1123.9596,-700.7293 1113.5801,-691.1482"/>
<polygon fill="#000000" stroke="#000000" points="1115.6591,-688.3041 1105.9371,-684.0931 1110.9112,-693.4478 1115.6591,-688.3041"/>
</g>
<!-- AbsorberInputWorkspace -->
<g id="node5" class="node">
<title>AbsorberInputWorkspace</title>
<ellipse fill="#f0e68c" stroke="#000000" cx="370.3362" cy="-594" rx="110.4804" ry="18"/>
<text text-anchor="middle" x="370.3362" y="-590.3" font-family="Helvetica,sans-Serif" font-size="14.00" fill="#000000">AbsorberInputWorkspace</text>
</g>
<!-- Minus -->
<g id="node15" class="node">
<title>Minus</title>
<path fill="#87cefa" stroke="#000000" d="M798.8362,-540C798.8362,-540 681.8362,-540 681.8362,-540 675.8362,-540 669.8362,-534 669.8362,-528 669.8362,-528 669.8362,-516 669.8362,-516 669.8362,-510 675.8362,-504 681.8362,-504 681.8362,-504 798.8362,-504 798.8362,-504 804.8362,-504 810.8362,-510 810.8362,-516 810.8362,-516 810.8362,-528 810.8362,-528 810.8362,-534 804.8362,-540 798.8362,-540"/>
<text text-anchor="middle" x="740.3362" y="-518.3" font-family="Helvetica,sans-Serif" font-size="14.00" fill="#000000">Subtract background</text>
</g>
<!-- AbsorberInputWorkspace&#45;&gt;Minus -->
<g id="edge5" class="edge">
<title>AbsorberInputWorkspace&#45;&gt;Minus</title>
<path fill="none" stroke="#000000" d="M445.5944,-580.7791C501.8175,-570.7186 580.8005,-556.1999 659.5901,-540.1157"/>
<polygon fill="#000000" stroke="#000000" points="660.6035,-543.4808 669.6967,-538.0436 659.1975,-536.6235 660.6035,-543.4808"/>
</g>
<!-- ContainerInputWorkspace -->
<g id="node6" class="node">
<title>ContainerInputWorkspace</title>
<ellipse fill="#f0e68c" stroke="#000000" cx="611.3362" cy="-594" rx="112.3801" ry="18"/>
<text text-anchor="middle" x="611.3362" y="-590.3" font-family="Helvetica,sans-Serif" font-size="14.00" fill="#000000">ContainerInputWorkspace</text>
</g>
<!-- ContainerInputWorkspace&#45;&gt;Minus -->
<g id="edge6" class="edge">
<title>ContainerInputWorkspace&#45;&gt;Minus</title>
<path fill="none" stroke="#000000" d="M642.5635,-576.5708C659.6089,-567.0571 680.9235,-555.1606 699.2973,-544.9055"/>
<polygon fill="#000000" stroke="#000000" points="701.0231,-547.9505 708.0493,-540.0206 697.6115,-541.8381 701.0231,-547.9505"/>
</g>
<!-- QuartzInputWorkspace -->
<g id="node7" class="node">
<title>QuartzInputWorkspace</title>
<ellipse fill="#f0e68c" stroke="#000000" cx="550.3362" cy="-522" rx="101.2821" ry="18"/>
<text text-anchor="middle" x="550.3362" y="-518.3" font-family="Helvetica,sans-Serif" font-size="14.00" fill="#000000">QuartzInputWorkspace</text>
</g>
<!-- Multiply -->
<g id="node14" class="node">
<title>Multiply</title>
<path fill="#87cefa" stroke="#000000" d="M724.3362,-468C724.3362,-468 566.3362,-468 566.3362,-468 560.3362,-468 554.3362,-462 554.3362,-456 554.3362,-456 554.3362,-444 554.3362,-444 554.3362,-438 560.3362,-432 566.3362,-432 566.3362,-432 724.3362,-432 724.3362,-432 730.3362,-432 736.3362,-438 736.3362,-444 736.3362,-444 736.3362,-456 736.3362,-456 736.3362,-462 730.3362,-468 724.3362,-468"/>
<text text-anchor="middle" x="645.3362" y="-446.3" font-family="Helvetica,sans-Serif" font-size="14.00" fill="#000000">Correct polarising efficiency</text>
</g>
<!-- QuartzInputWorkspace&#45;&gt;Multiply -->
<g id="edge9" class="edge">
<title>QuartzInputWorkspace&#45;&gt;Multiply</title>
<path fill="none" stroke="#000000" d="M573.8194,-504.2022C585.7186,-495.1839 600.3465,-484.0975 613.266,-474.3059"/>
<polygon fill="#000000" stroke="#000000" points="615.6077,-476.9228 621.4634,-468.0931 611.3796,-471.3439 615.6077,-476.9228"/>
</g>
<!-- TransmissionInputWorkspace -->
<g id="node8" class="node">
<title>TransmissionInputWorkspace</title>
<ellipse fill="#f0e68c" stroke="#000000" cx="869.3362" cy="-594" rx="127.2775" ry="18"/>
<text text-anchor="middle" x="869.3362" y="-590.3" font-family="Helvetica,sans-Serif" font-size="14.00" fill="#000000">TransmissionInputWorkspace</text>
</g>
<!-- TransmissionInputWorkspace&#45;&gt;Minus -->
<g id="edge7" class="edge">
<title>TransmissionInputWorkspace&#45;&gt;Minus</title>
<path fill="none" stroke="#000000" d="M837.7793,-576.3868C821.0104,-567.0275 800.1808,-555.4016 782.0894,-545.3041"/>
<polygon fill="#000000" stroke="#000000" points="783.3522,-542.0007 772.9144,-540.1832 779.9406,-548.1131 783.3522,-542.0007"/>
</g>
<!-- ApplyPaalmanPingsCorrection -->
<g id="node19" class="node">
<title>ApplyPaalmanPingsCorrection</title>
<path fill="#87cefa" stroke="#000000" d="M664.3362,-252C664.3362,-252 488.3362,-252 488.3362,-252 482.3362,-252 476.3362,-246 476.3362,-240 476.3362,-240 476.3362,-228 476.3362,-228 476.3362,-222 482.3362,-216 488.3362,-216 488.3362,-216 664.3362,-216 664.3362,-216 670.3362,-216 676.3362,-222 676.3362,-228 676.3362,-228 676.3362,-240 676.3362,-240 676.3362,-246 670.3362,-252 664.3362,-252"/>
<text text-anchor="middle" x="576.3362" y="-230.3" font-family="Helvetica,sans-Serif" font-size="14.00" fill="#000000">ApplyPaalmanPingsCorrection</text>
</g>
<!-- PaalmanPingsMonteCarloAbsorption&#45;&gt;ApplyPaalmanPingsCorrection -->
<g id="edge13" class="edge">
<title>PaalmanPingsMonteCarloAbsorption&#45;&gt;ApplyPaalmanPingsCorrection</title>
<path fill="none" stroke="#000000" d="M242.5677,-291.0816C307.4175,-279.9908 396.3677,-264.7785 466.1345,-252.8469"/>
<polygon fill="#000000" stroke="#000000" points="467.0168,-256.2469 476.2836,-251.1111 465.8367,-249.347 467.0168,-256.2469"/>
</g>
<!-- SampleAndEnvironmentProperties -->
<g id="node10" class="node">
<title>SampleAndEnvironmentProperties</title>
<ellipse fill="#f0e68c" stroke="#000000" cx="278.3362" cy="-378" rx="146.4744" ry="18"/>
<text text-anchor="middle" x="278.3362" y="-374.3" font-family="Helvetica,sans-Serif" font-size="14.00" fill="#000000">SampleAndEnvironmentProperties</text>
</g>
<!-- SampleAndEnvironmentProperties&#45;&gt;PaalmanPingsMonteCarloAbsorption -->
<g id="edge12" class="edge">
<title>SampleAndEnvironmentProperties&#45;&gt;PaalmanPingsMonteCarloAbsorption</title>
<path fill="none" stroke="#000000" d="M247.9317,-360.2022C231.8173,-350.7694 211.8377,-339.074 194.567,-328.9643"/>
<polygon fill="#000000" stroke="#000000" points="196.2155,-325.8738 185.8172,-323.8425 192.6792,-331.9149 196.2155,-325.8738"/>
</g>
<!-- SampleAndEnvironmentProperties&#45;&gt;PaalmanPingsAbsorptionCorrection -->
<g id="edge15" class="edge">
<title>SampleAndEnvironmentProperties&#45;&gt;PaalmanPingsAbsorptionCorrection</title>
<path fill="none" stroke="#000000" d="M318.5202,-360.5708C341.0528,-350.7976 369.3827,-338.5099 393.4523,-328.0701"/>
<polygon fill="#000000" stroke="#000000" points="395.0073,-331.2108 402.7887,-324.0206 392.2218,-324.7889 395.0073,-331.2108"/>
</g>
<!-- Divide -->
<g id="node13" class="node">
<title>Divide</title>
<path fill="#87cefa" stroke="#000000" d="M1145.8362,-612C1145.8362,-612 1026.8362,-612 1026.8362,-612 1020.8362,-612 1014.8362,-606 1014.8362,-600 1014.8362,-600 1014.8362,-588 1014.8362,-588 1014.8362,-582 1020.8362,-576 1026.8362,-576 1026.8362,-576 1145.8362,-576 1145.8362,-576 1151.8362,-576 1157.8362,-582 1157.8362,-588 1157.8362,-588 1157.8362,-600 1157.8362,-600 1157.8362,-606 1151.8362,-612 1145.8362,-612"/>
<text text-anchor="middle" x="1086.3362" y="-590.3" font-family="Helvetica,sans-Serif" font-size="14.00" fill="#000000">Normalize to monitor</text>
</g>
<!-- Load&#45;&gt;Divide -->
<g id="edge3" class="edge">
<title>Load&#45;&gt;Divide</title>
<path fill="none" stroke="#000000" d="M1086.3362,-647.8314C1086.3362,-640.131 1086.3362,-630.9743 1086.3362,-622.4166"/>
<polygon fill="#000000" stroke="#000000" points="1089.8363,-622.4132 1086.3362,-612.4133 1082.8363,-622.4133 1089.8363,-622.4132"/>
</g>
<!-- Divide&#45;&gt;Minus -->
<g id="edge4" class="edge">
<title>Divide&#45;&gt;Minus</title>
<path fill="none" stroke="#000000" d="M1014.7975,-578.0307C1011.6011,-577.3398 1008.4359,-576.6602 1005.3362,-576 943.5353,-562.8376 873.4779,-548.591 820.9234,-538.0375"/>
<polygon fill="#000000" stroke="#000000" points="821.4802,-534.5796 810.9871,-536.0443 820.1034,-541.4428 821.4802,-534.5796"/>
</g>
<!-- Multiply&#45;&gt;SelfAttenuationMethod -->
<g id="edge10" class="edge">
<title>Multiply&#45;&gt;SelfAttenuationMethod</title>
<path fill="none" stroke="#000000" d="M645.3362,-431.8314C645.3362,-424.131 645.3362,-414.9743 645.3362,-406.4166"/>
<polygon fill="#000000" stroke="#000000" points="648.8363,-406.4132 645.3362,-396.4133 641.8363,-406.4133 648.8363,-406.4132"/>
</g>
<!-- Minus&#45;&gt;Multiply -->
<g id="edge8" class="edge">
<title>Minus&#45;&gt;Multiply</title>
<path fill="none" stroke="#000000" d="M716.3637,-503.8314C704.5502,-494.8779 690.139,-483.9558 677.3928,-474.2955"/>
<polygon fill="#000000" stroke="#000000" points="679.3849,-471.4137 669.3011,-468.1628 675.1567,-476.9925 679.3849,-471.4137"/>
</g>
<!-- Plus&#45;&gt;OutputWorkspace -->
<g id="edge25" class="edge">
<title>Plus&#45;&gt;OutputWorkspace</title>
<path fill="none" stroke="#000000" d="M655.3362,-71.8314C655.3362,-64.131 655.3362,-54.9743 655.3362,-46.4166"/>
<polygon fill="#000000" stroke="#000000" points="658.8363,-46.4132 655.3362,-36.4133 651.8363,-46.4133 658.8363,-46.4132"/>
</g>
<!-- Divide2 -->
<g id="node17" class="node">
<title>Divide2</title>
<path fill="#87cefa" stroke="#000000" d="M1334.3362,-756C1334.3362,-756 1304.3362,-756 1304.3362,-756 1298.3362,-756 1292.3362,-750 1292.3362,-744 1292.3362,-744 1292.3362,-732 1292.3362,-732 1292.3362,-726 1298.3362,-720 1304.3362,-720 1304.3362,-720 1334.3362,-720 1334.3362,-720 1340.3362,-720 1346.3362,-726 1346.3362,-732 1346.3362,-732 1346.3362,-744 1346.3362,-744 1346.3362,-750 1340.3362,-756 1334.3362,-756"/>
<text text-anchor="middle" x="1319.3362" y="-734.3" font-family="Helvetica,sans-Serif" font-size="14.00" fill="#000000">Divide</text>
</g>
<!-- PaalmanPingsAbsorptionCorrection&#45;&gt;ApplyPaalmanPingsCorrection -->
<g id="edge16" class="edge">
<title>PaalmanPingsAbsorptionCorrection&#45;&gt;ApplyPaalmanPingsCorrection</title>
<path fill="none" stroke="#000000" d="M477.6454,-287.8314C494.7635,-278.4942 515.8068,-267.016 534.0584,-257.0606"/>
<polygon fill="#000000" stroke="#000000" points="535.9347,-260.024 543.0377,-252.1628 532.5827,-253.8788 535.9347,-260.024"/>
</g>
<!-- ApplyPaalmanPingsCorrection&#45;&gt;AverageCounts -->
<g id="edge19" class="edge">
<title>ApplyPaalmanPingsCorrection&#45;&gt;AverageCounts</title>
<path fill="none" stroke="#000000" d="M596.2713,-215.8314C606.7908,-206.2439 619.7871,-194.3992 630.9083,-184.2634"/>
<polygon fill="#000000" stroke="#000000" points="633.5792,-186.5647 638.6125,-177.2418 628.864,-181.3911 633.5792,-186.5647"/>
</g>
<!-- SumOverlappingTubes&#45;&gt;OutputWorkspace -->
<g id="edge24" class="edge">
<title>SumOverlappingTubes&#45;&gt;OutputWorkspace</title>
<path fill="none" stroke="#000000" d="M542.4399,-71.8314C562.4557,-62.2874 587.1629,-50.5065 608.3556,-40.4013"/>
<polygon fill="#000000" stroke="#000000" points="609.9865,-43.5013 617.5065,-36.038 606.9737,-37.1828 609.9865,-43.5013"/>
</g>
<!-- SampleSelfAttenuationFactors&#45;&gt;ApplyPaalmanPingsCorrection -->
<g id="edge18" class="edge">
<title>SampleSelfAttenuationFactors&#45;&gt;ApplyPaalmanPingsCorrection</title>
<path fill="none" stroke="#000000" d="M675.29,-288.3868C658.105,-278.9416 636.7201,-267.1881 618.2318,-257.0266"/>
<polygon fill="#000000" stroke="#000000" points="619.8689,-253.9326 609.4195,-252.1832 616.4972,-260.0671 619.8689,-253.9326"/>
</g>
</g>
</svg>
