<?xml version="1.0" encoding="UTF-8" standalone="no"?>
<!DOCTYPE svg PUBLIC "-//W3C//DTD SVG 1.1//EN"
 "http://www.w3.org/Graphics/SVG/1.1/DTD/svg11.dtd">
<!-- Generated by graphviz version 2.40.1 (20161225.0304)
 -->
<!-- Title: Transmission Pages: 1 -->
<svg width="620pt" height="332pt"
 viewBox="0.00 0.00 620.14 332.00" xmlns="http://www.w3.org/2000/svg" xmlns:xlink="http://www.w3.org/1999/xlink">
<g id="graph0" class="graph" transform="scale(1 1) rotate(0) translate(4 328)">
<title>Transmission</title>
<polygon fill="#ffffff" stroke="transparent" points="-4,4 -4,-328 616.1413,-328 616.1413,4 -4,4"/>
<!-- Run -->
<g id="node1" class="node">
<title>Run</title>
<ellipse fill="#f0e68c" stroke="#000000" cx="27" cy="-306" rx="27" ry="18"/>
<text text-anchor="middle" x="27" y="-302.3" font-family="Helvetica,sans-Serif" font-size="14.00" fill="#000000">Run</text>
</g>
<!-- Load -->
<g id="node5" class="node">
<title>Load</title>
<path fill="#87cefa" stroke="#000000" d="M42,-252C42,-252 12,-252 12,-252 6,-252 0,-246 0,-240 0,-240 0,-228 0,-228 0,-222 6,-216 12,-216 12,-216 42,-216 42,-216 48,-216 54,-222 54,-228 54,-228 54,-240 54,-240 54,-246 48,-252 42,-252"/>
<text text-anchor="middle" x="27" y="-230.3" font-family="Helvetica,sans-Serif" font-size="14.00" fill="#000000">Load</text>
</g>
<!-- Run&#45;&gt;Load -->
<g id="edge1" class="edge">
<title>Run&#45;&gt;Load</title>
<path fill="none" stroke="#000000" d="M27,-287.8314C27,-280.131 27,-270.9743 27,-262.4166"/>
<polygon fill="#000000" stroke="#000000" points="30.5001,-262.4132 27,-252.4133 23.5001,-262.4133 30.5001,-262.4132"/>
</g>
<!-- AbsorberTransmissionInputWorkspace -->
<g id="node2" class="node">
<title>AbsorberTransmissionInputWorkspace</title>
<ellipse fill="#f0e68c" stroke="#000000" cx="235" cy="-234" rx="163.2712" ry="18"/>
<text text-anchor="middle" x="235" y="-230.3" font-family="Helvetica,sans-Serif" font-size="14.00" fill="#000000">AbsorberTransmissionInputWorkspace</text>
</g>
<!-- Minus -->
<g id="node7" class="node">
<title>Minus</title>
<path fill="#87cefa" stroke="#000000" d="M214,-180C214,-180 184,-180 184,-180 178,-180 172,-174 172,-168 172,-168 172,-156 172,-156 172,-150 178,-144 184,-144 184,-144 214,-144 214,-144 220,-144 226,-150 226,-156 226,-156 226,-168 226,-168 226,-174 220,-180 214,-180"/>
<text text-anchor="middle" x="199" y="-158.3" font-family="Helvetica,sans-Serif" font-size="14.00" fill="#000000">Minus</text>
</g>
<!-- AbsorberTransmissionInputWorkspace&#45;&gt;Minus -->
<g id="edge3" class="edge">
<title>AbsorberTransmissionInputWorkspace&#45;&gt;Minus</title>
<path fill="none" stroke="#000000" d="M225.9157,-215.8314C221.9385,-207.8771 217.1845,-198.369 212.7861,-189.5723"/>
<polygon fill="#000000" stroke="#000000" points="215.8093,-187.7923 208.2066,-180.4133 209.5483,-190.9228 215.8093,-187.7923"/>
</g>
<!-- Minus2 -->
<g id="node8" class="node">
<title>Minus2</title>
<path fill="#87cefa" stroke="#000000" d="M286,-180C286,-180 256,-180 256,-180 250,-180 244,-174 244,-168 244,-168 244,-156 244,-156 244,-150 250,-144 256,-144 256,-144 286,-144 286,-144 292,-144 298,-150 298,-156 298,-156 298,-168 298,-168 298,-174 292,-180 286,-180"/>
<text text-anchor="middle" x="271" y="-158.3" font-family="Helvetica,sans-Serif" font-size="14.00" fill="#000000">Minus</text>
</g>
<!-- AbsorberTransmissionInputWorkspace&#45;&gt;Minus2 -->
<g id="edge6" class="edge">
<title>AbsorberTransmissionInputWorkspace&#45;&gt;Minus2</title>
<path fill="none" stroke="#000000" d="M244.0843,-215.8314C248.0615,-207.8771 252.8155,-198.369 257.2139,-189.5723"/>
<polygon fill="#000000" stroke="#000000" points="260.4517,-190.9228 261.7934,-180.4133 254.1907,-187.7923 260.4517,-190.9228"/>
</g>
<!-- BeamInputWorkspace -->
<g id="node3" class="node">
<title>BeamInputWorkspace</title>
<ellipse fill="#f0e68c" stroke="#000000" cx="514" cy="-234" rx="98.2828" ry="18"/>
<text text-anchor="middle" x="514" y="-230.3" font-family="Helvetica,sans-Serif" font-size="14.00" fill="#000000">BeamInputWorkspace</text>
</g>
<!-- BeamInputWorkspace&#45;&gt;Minus2 -->
<g id="edge5" class="edge">
<title>BeamInputWorkspace&#45;&gt;Minus2</title>
<path fill="none" stroke="#000000" d="M462.1685,-218.6425C415.8112,-204.907 349.0172,-185.1162 307.8963,-172.9322"/>
<polygon fill="#000000" stroke="#000000" points="308.8565,-169.5664 298.2742,-170.0813 306.8679,-176.278 308.8565,-169.5664"/>
</g>
<!-- OutputWorkspace -->
<g id="node4" class="node">
<title>OutputWorkspace</title>
<polygon fill="#c0c0c0" stroke="#000000" points="345.5819,-36 169.6708,-36 124.4181,0 300.3292,0 345.5819,-36"/>
<text text-anchor="middle" x="235" y="-14.3" font-family="Times,serif" font-size="14.00" fill="#000000">OutputWorkspace</text>
</g>
<!-- Load&#45;&gt;Minus -->
<g id="edge2" class="edge">
<title>Load&#45;&gt;Minus</title>
<path fill="none" stroke="#000000" d="M54.0078,-220.1854C57.0242,-218.7354 60.0661,-217.3131 63,-216 96.1461,-201.1657 134.6792,-186.0612 162.2487,-175.6134"/>
<polygon fill="#000000" stroke="#000000" points="163.7562,-178.7856 171.8795,-171.984 161.2877,-172.2353 163.7562,-178.7856"/>
</g>
<!-- Divide -->
<g id="node6" class="node">
<title>Divide</title>
<path fill="#87cefa" stroke="#000000" d="M250,-108C250,-108 220,-108 220,-108 214,-108 208,-102 208,-96 208,-96 208,-84 208,-84 208,-78 214,-72 220,-72 220,-72 250,-72 250,-72 256,-72 262,-78 262,-84 262,-84 262,-96 262,-96 262,-102 256,-108 250,-108"/>
<text text-anchor="middle" x="235" y="-86.3" font-family="Helvetica,sans-Serif" font-size="14.00" fill="#000000">Divide</text>
</g>
<!-- Divide&#45;&gt;OutputWorkspace -->
<g id="edge8" class="edge">
<title>Divide&#45;&gt;OutputWorkspace</title>
<path fill="none" stroke="#000000" d="M235,-71.8314C235,-64.131 235,-54.9743 235,-46.4166"/>
<polygon fill="#000000" stroke="#000000" points="238.5001,-46.4132 235,-36.4133 231.5001,-46.4133 238.5001,-46.4132"/>
</g>
<!-- Minus&#45;&gt;Divide -->
<g id="edge4" class="edge">
<title>Minus&#45;&gt;Divide</title>
<path fill="none" stroke="#000000" d="M208.0843,-143.8314C212.0615,-135.8771 216.8155,-126.369 221.2139,-117.5723"/>
<polygon fill="#000000" stroke="#000000" points="224.4517,-118.9228 225.7934,-108.4133 218.1907,-115.7923 224.4517,-118.9228"/>
</g>
<!-- Minus2&#45;&gt;Divide -->
<g id="edge7" class="edge">
<title>Minus2&#45;&gt;Divide</title>
<path fill="none" stroke="#000000" d="M261.9157,-143.8314C257.9385,-135.8771 253.1845,-126.369 248.7861,-117.5723"/>
<polygon fill="#000000" stroke="#000000" points="251.8093,-115.7923 244.2066,-108.4133 245.5483,-118.9228 251.8093,-115.7923"/>
</g>
</g>
</svg>
