<?xml version="1.0" encoding="UTF-8" standalone="no"?>
<!DOCTYPE svg PUBLIC "-//W3C//DTD SVG 1.1//EN"
 "http://www.w3.org/Graphics/SVG/1.1/DTD/svg11.dtd">
<!-- Generated by graphviz version 2.40.1 (20161225.0304)
 -->
<!-- Title: Quartz Pages: 1 -->
<svg width="938pt" height="404pt"
 viewBox="0.00 0.00 938.39 404.00" xmlns="http://www.w3.org/2000/svg" xmlns:xlink="http://www.w3.org/1999/xlink">
<g id="graph0" class="graph" transform="scale(1 1) rotate(0) translate(4 400)">
<title>Quartz</title>
<polygon fill="#ffffff" stroke="transparent" points="-4,4 -4,-400 934.3887,-400 934.3887,4 -4,4"/>
<!-- Run -->
<g id="node1" class="node">
<title>Run</title>
<ellipse fill="#f0e68c" stroke="#000000" cx="27" cy="-378" rx="27" ry="18"/>
<text text-anchor="middle" x="27" y="-374.3" font-family="Helvetica,sans-Serif" font-size="14.00" fill="#000000">Run</text>
</g>
<!-- Load -->
<g id="node7" class="node">
<title>Load</title>
<path fill="#87cefa" stroke="#000000" d="M119,-324C119,-324 89,-324 89,-324 83,-324 77,-318 77,-312 77,-312 77,-300 77,-300 77,-294 83,-288 89,-288 89,-288 119,-288 119,-288 125,-288 131,-294 131,-300 131,-300 131,-312 131,-312 131,-318 125,-324 119,-324"/>
<text text-anchor="middle" x="104" y="-302.3" font-family="Helvetica,sans-Serif" font-size="14.00" fill="#000000">Load</text>
</g>
<!-- Run&#45;&gt;Load -->
<g id="edge1" class="edge">
<title>Run&#45;&gt;Load</title>
<path fill="none" stroke="#000000" d="M42.9544,-363.0816C52.7612,-353.9116 65.5812,-341.9241 76.9399,-331.3029"/>
<polygon fill="#000000" stroke="#000000" points="79.6015,-333.606 84.5152,-324.2195 74.8205,-328.493 79.6015,-333.606"/>
</g>
<!-- D7YIGPositionCalibration -->
<g id="node2" class="node">
<title>D7YIGPositionCalibration</title>
<ellipse fill="#f0e68c" stroke="#000000" cx="182" cy="-378" rx="110.4804" ry="18"/>
<text text-anchor="middle" x="182" y="-374.3" font-family="Helvetica,sans-Serif" font-size="14.00" fill="#000000">D7YIGPositionCalibration</text>
</g>
<!-- D7YIGPositionCalibration&#45;&gt;Load -->
<g id="edge2" class="edge">
<title>D7YIGPositionCalibration&#45;&gt;Load</title>
<path fill="none" stroke="#000000" d="M162.7191,-360.2022C153.2284,-351.4416 141.6234,-340.7293 131.2439,-331.1482"/>
<polygon fill="#000000" stroke="#000000" points="133.3229,-328.3041 123.6009,-324.0931 128.5749,-333.4478 133.3229,-328.3041"/>
</g>
<!-- AbsorberInputWorkspace -->
<g id="node3" class="node">
<title>AbsorberInputWorkspace</title>
<ellipse fill="#f0e68c" stroke="#000000" cx="304" cy="-234" rx="110.4804" ry="18"/>
<text text-anchor="middle" x="304" y="-230.3" font-family="Helvetica,sans-Serif" font-size="14.00" fill="#000000">AbsorberInputWorkspace</text>
</g>
<!-- Minus -->
<g id="node9" class="node">
<title>Minus</title>
<path fill="#87cefa" stroke="#000000" d="M482.5,-180C482.5,-180 365.5,-180 365.5,-180 359.5,-180 353.5,-174 353.5,-168 353.5,-168 353.5,-156 353.5,-156 353.5,-150 359.5,-144 365.5,-144 365.5,-144 482.5,-144 482.5,-144 488.5,-144 494.5,-150 494.5,-156 494.5,-156 494.5,-168 494.5,-168 494.5,-174 488.5,-180 482.5,-180"/>
<text text-anchor="middle" x="424" y="-158.3" font-family="Helvetica,sans-Serif" font-size="14.00" fill="#000000">Subtract background</text>
</g>
<!-- AbsorberInputWorkspace&#45;&gt;Minus -->
<g id="edge5" class="edge">
<title>AbsorberInputWorkspace&#45;&gt;Minus</title>
<path fill="none" stroke="#000000" d="M333.0487,-216.5708C348.7607,-207.1436 368.3721,-195.3767 385.3574,-185.1855"/>
<polygon fill="#000000" stroke="#000000" points="387.1915,-188.1668 393.9657,-180.0206 383.59,-182.1644 387.1915,-188.1668"/>
</g>
<!-- ContainerInputWorkspace -->
<g id="node4" class="node">
<title>ContainerInputWorkspace</title>
<ellipse fill="#f0e68c" stroke="#000000" cx="545" cy="-234" rx="112.3801" ry="18"/>
<text text-anchor="middle" x="545" y="-230.3" font-family="Helvetica,sans-Serif" font-size="14.00" fill="#000000">ContainerInputWorkspace</text>
</g>
<!-- ContainerInputWorkspace&#45;&gt;Minus -->
<g id="edge6" class="edge">
<title>ContainerInputWorkspace&#45;&gt;Minus</title>
<path fill="none" stroke="#000000" d="M515.7093,-216.5708C499.8663,-207.1436 480.0914,-195.3767 462.9646,-185.1855"/>
<polygon fill="#000000" stroke="#000000" points="464.6681,-182.1264 454.2846,-180.0206 461.0885,-188.142 464.6681,-182.1264"/>
</g>
<!-- TransmissionInputWorkspace -->
<g id="node5" class="node">
<title>TransmissionInputWorkspace</title>
<ellipse fill="#f0e68c" stroke="#000000" cx="803" cy="-234" rx="127.2775" ry="18"/>
<text text-anchor="middle" x="803" y="-230.3" font-family="Helvetica,sans-Serif" font-size="14.00" fill="#000000">TransmissionInputWorkspace</text>
</g>
<!-- TransmissionInputWorkspace&#45;&gt;Minus -->
<g id="edge7" class="edge">
<title>TransmissionInputWorkspace&#45;&gt;Minus</title>
<path fill="none" stroke="#000000" d="M726.7596,-219.5163C662.3022,-207.2711 570.2302,-189.7799 504.5734,-177.3068"/>
<polygon fill="#000000" stroke="#000000" points="505.1556,-173.8549 494.6781,-175.427 503.8491,-180.7319 505.1556,-173.8549"/>
</g>
<!-- OutputWorkspace -->
<g id="node6" class="node">
<title>OutputWorkspace</title>
<polygon fill="#c0c0c0" stroke="#000000" points="534.5819,-36 358.6708,-36 313.4181,0 489.3292,0 534.5819,-36"/>
<text text-anchor="middle" x="424" y="-14.3" font-family="Times,serif" font-size="14.00" fill="#000000">OutputWorkspace</text>
</g>
<!-- Divide -->
<g id="node8" class="node">
<title>Divide</title>
<path fill="#87cefa" stroke="#000000" d="M163.5,-252C163.5,-252 44.5,-252 44.5,-252 38.5,-252 32.5,-246 32.5,-240 32.5,-240 32.5,-228 32.5,-228 32.5,-222 38.5,-216 44.5,-216 44.5,-216 163.5,-216 163.5,-216 169.5,-216 175.5,-222 175.5,-228 175.5,-228 175.5,-240 175.5,-240 175.5,-246 169.5,-252 163.5,-252"/>
<text text-anchor="middle" x="104" y="-230.3" font-family="Helvetica,sans-Serif" font-size="14.00" fill="#000000">Normalize to monitor</text>
</g>
<!-- Load&#45;&gt;Divide -->
<g id="edge3" class="edge">
<title>Load&#45;&gt;Divide</title>
<path fill="none" stroke="#000000" d="M104,-287.8314C104,-280.131 104,-270.9743 104,-262.4166"/>
<polygon fill="#000000" stroke="#000000" points="107.5001,-262.4132 104,-252.4133 100.5001,-262.4133 107.5001,-262.4132"/>
</g>
<!-- Divide&#45;&gt;Minus -->
<g id="edge4" class="edge">
<title>Divide&#45;&gt;Minus</title>
<path fill="none" stroke="#000000" d="M175.8142,-217.8418C225.5845,-206.6435 291.9104,-191.7202 343.4747,-180.1182"/>
<polygon fill="#000000" stroke="#000000" points="344.2644,-183.5281 353.2522,-177.9182 342.7278,-176.6988 344.2644,-183.5281"/>
</g>
<!-- Divide2 -->
<g id="node10" class="node">
<title>Divide2</title>
<path fill="#87cefa" stroke="#000000" d="M514.5,-108C514.5,-108 333.5,-108 333.5,-108 327.5,-108 321.5,-102 321.5,-96 321.5,-96 321.5,-84 321.5,-84 321.5,-78 327.5,-72 333.5,-72 333.5,-72 514.5,-72 514.5,-72 520.5,-72 526.5,-78 526.5,-84 526.5,-84 526.5,-96 526.5,-96 526.5,-102 520.5,-108 514.5,-108"/>
<text text-anchor="middle" x="424" y="-86.3" font-family="Helvetica,sans-Serif" font-size="14.00" fill="#000000">Calculate polarising efficiencies</text>
</g>
<!-- Minus&#45;&gt;Divide2 -->
<g id="edge8" class="edge">
<title>Minus&#45;&gt;Divide2</title>
<path fill="none" stroke="#000000" d="M424,-143.8314C424,-136.131 424,-126.9743 424,-118.4166"/>
<polygon fill="#000000" stroke="#000000" points="427.5001,-118.4132 424,-108.4133 420.5001,-118.4133 427.5001,-118.4132"/>
</g>
<!-- Divide2&#45;&gt;OutputWorkspace -->
<g id="edge9" class="edge">
<title>Divide2&#45;&gt;OutputWorkspace</title>
<path fill="none" stroke="#000000" d="M424,-71.8314C424,-64.131 424,-54.9743 424,-46.4166"/>
<polygon fill="#000000" stroke="#000000" points="427.5001,-46.4132 424,-36.4133 420.5001,-46.4133 427.5001,-46.4132"/>
</g>
</g>
</svg>
