<?xml version="1.0" encoding="UTF-8" standalone="no"?>
<!DOCTYPE svg PUBLIC "-//W3C//DTD SVG 1.1//EN"
 "http://www.w3.org/Graphics/SVG/1.1/DTD/svg11.dtd">
<!-- Generated by graphviz version 2.40.1 (20161225.0304)
 -->
<!-- Title: Beam Pages: 1 -->
<svg width="406pt" height="260pt"
 viewBox="0.00 0.00 406.14 260.00" xmlns="http://www.w3.org/2000/svg" xmlns:xlink="http://www.w3.org/1999/xlink">
<g id="graph0" class="graph" transform="scale(1 1) rotate(0) translate(4 256)">
<title>Beam</title>
<polygon fill="#ffffff" stroke="transparent" points="-4,4 -4,-256 402.1355,-256 402.1355,4 -4,4"/>
<!-- Run -->
<g id="node1" class="node">
<title>Run</title>
<ellipse fill="#f0e68c" stroke="#000000" cx="27" cy="-234" rx="27" ry="18"/>
<text text-anchor="middle" x="27" y="-230.3" font-family="Helvetica,sans-Serif" font-size="14.00" fill="#000000">Run</text>
</g>
<!-- Load -->
<g id="node4" class="node">
<title>Load</title>
<path fill="#87cefa" stroke="#000000" d="M42,-180C42,-180 12,-180 12,-180 6,-180 0,-174 0,-168 0,-168 0,-156 0,-156 0,-150 6,-144 12,-144 12,-144 42,-144 42,-144 48,-144 54,-150 54,-156 54,-156 54,-168 54,-168 54,-174 48,-180 42,-180"/>
<text text-anchor="middle" x="27" y="-158.3" font-family="Helvetica,sans-Serif" font-size="14.00" fill="#000000">Load</text>
</g>
<!-- Run&#45;&gt;Load -->
<g id="edge1" class="edge">
<title>Run&#45;&gt;Load</title>
<path fill="none" stroke="#000000" d="M27,-215.8314C27,-208.131 27,-198.9743 27,-190.4166"/>
<polygon fill="#000000" stroke="#000000" points="30.5001,-190.4132 27,-180.4133 23.5001,-190.4133 30.5001,-190.4132"/>
</g>
<!-- AbsorberTransmissionInputWorkspace -->
<g id="node2" class="node">
<title>AbsorberTransmissionInputWorkspace</title>
<ellipse fill="#f0e68c" stroke="#000000" cx="235" cy="-162" rx="163.2712" ry="18"/>
<text text-anchor="middle" x="235" y="-158.3" font-family="Helvetica,sans-Serif" font-size="14.00" fill="#000000">AbsorberTransmissionInputWorkspace</text>
</g>
<!-- Minus -->
<g id="node5" class="node">
<title>Minus</title>
<path fill="#87cefa" stroke="#000000" d="M146,-108C146,-108 116,-108 116,-108 110,-108 104,-102 104,-96 104,-96 104,-84 104,-84 104,-78 110,-72 116,-72 116,-72 146,-72 146,-72 152,-72 158,-78 158,-84 158,-84 158,-96 158,-96 158,-102 152,-108 146,-108"/>
<text text-anchor="middle" x="131" y="-86.3" font-family="Helvetica,sans-Serif" font-size="14.00" fill="#000000">Minus</text>
</g>
<!-- AbsorberTransmissionInputWorkspace&#45;&gt;Minus -->
<g id="edge3" class="edge">
<title>AbsorberTransmissionInputWorkspace&#45;&gt;Minus</title>
<path fill="none" stroke="#000000" d="M209.2921,-144.2022C196.1416,-135.098 179.9466,-123.8861 165.7049,-114.0265"/>
<polygon fill="#000000" stroke="#000000" points="167.3487,-110.9076 157.1345,-108.0931 163.3642,-116.6629 167.3487,-110.9076"/>
</g>
<!-- OutputWorkspace -->
<g id="node3" class="node">
<title>OutputWorkspace</title>
<polygon fill="#c0c0c0" stroke="#000000" points="241.5819,-36 65.6708,-36 20.4181,0 196.3292,0 241.5819,-36"/>
<text text-anchor="middle" x="131" y="-14.3" font-family="Times,serif" font-size="14.00" fill="#000000">OutputWorkspace</text>
</g>
<!-- Load&#45;&gt;Minus -->
<g id="edge2" class="edge">
<title>Load&#45;&gt;Minus</title>
<path fill="none" stroke="#000000" d="M53.2436,-143.8314C66.2995,-134.7927 82.2535,-123.7476 96.3047,-114.0198"/>
<polygon fill="#000000" stroke="#000000" points="98.5351,-116.7326 104.7648,-108.1628 94.5506,-110.9773 98.5351,-116.7326"/>
</g>
<!-- Minus&#45;&gt;OutputWorkspace -->
<g id="edge4" class="edge">
<title>Minus&#45;&gt;OutputWorkspace</title>
<path fill="none" stroke="#000000" d="M131,-71.8314C131,-64.131 131,-54.9743 131,-46.4166"/>
<polygon fill="#000000" stroke="#000000" points="134.5001,-46.4132 131,-36.4133 127.5001,-46.4133 134.5001,-46.4132"/>
</g>
</g>
</svg>
