<?xml version="1.0" encoding="UTF-8" standalone="no"?>
<!DOCTYPE svg PUBLIC "-//W3C//DTD SVG 1.1//EN"
 "http://www.w3.org/Graphics/SVG/1.1/DTD/svg11.dtd">
<!-- Generated by graphviz version 2.40.1 (20161225.0304)
 -->
<!-- Title: PowderReduceP2D_FocusAndSum Pages: 1 -->
<svg width="424pt" height="815pt"
 viewBox="0.00 0.00 423.50 815.00" xmlns="http://www.w3.org/2000/svg" xmlns:xlink="http://www.w3.org/1999/xlink">
<g id="graph0" class="graph" transform="scale(1 1) rotate(0) translate(4 811)">
<title>PowderReduceP2D_FocusAndSum</title>
<polygon fill="#ffffff" stroke="transparent" points="-4,4 -4,-811 419.5,-811 419.5,4 -4,4"/>
<text text-anchor="middle" x="207.75" y="-791.8" font-family="Helvetica,sans-Serif" font-size="14.00" fill="#000000">Process Sample Run Workflow</text>
<!-- SampleData -->
<g id="node1" class="node">
<title>SampleData</title>
<ellipse fill="#f0e68c" stroke="#000000" cx="217.5" cy="-766" rx="59.5901" ry="18"/>
<text text-anchor="middle" x="217.5" y="-762.3" font-family="Helvetica,sans-Serif" font-size="14.00" fill="#000000">SampleData</text>
</g>
<!-- FindDetectorsPar -->
<g id="node3" class="node">
<title>FindDetectorsPar</title>
<path fill="#87cefa" stroke="#000000" d="M275.5,-711C275.5,-711 159.5,-711 159.5,-711 153.5,-711 147.5,-705 147.5,-699 147.5,-699 147.5,-687 147.5,-687 147.5,-681 153.5,-675 159.5,-675 159.5,-675 275.5,-675 275.5,-675 281.5,-675 287.5,-681 287.5,-687 287.5,-687 287.5,-699 287.5,-699 287.5,-705 281.5,-711 275.5,-711"/>
<text text-anchor="middle" x="217.5" y="-689.3" font-family="Helvetica,sans-Serif" font-size="14.00" fill="#000000">FindDetectorsPar v1</text>
</g>
<!-- SampleData&#45;&gt;FindDetectorsPar -->
<g id="edge1" class="edge">
<title>SampleData&#45;&gt;FindDetectorsPar</title>
<path fill="none" stroke="#000000" d="M217.5,-747.9551C217.5,-739.8828 217.5,-730.1764 217.5,-721.1817"/>
<polygon fill="#000000" stroke="#000000" points="221.0001,-721.0903 217.5,-711.0904 214.0001,-721.0904 221.0001,-721.0903"/>
</g>
<!-- OutputWorkspace -->
<g id="node2" class="node">
<title>OutputWorkspace</title>
<ellipse fill="#f0e68c" stroke="#000000" cx="217.5" cy="-18" rx="81.7856" ry="18"/>
<text text-anchor="middle" x="217.5" y="-14.3" font-family="Helvetica,sans-Serif" font-size="14.00" fill="#000000">OutputWorkspace</text>
</g>
<!-- FilterBadPulses -->
<g id="node4" class="node">
<title>FilterBadPulses</title>
<path fill="#87cefa" stroke="#000000" d="M270,-638C270,-638 165,-638 165,-638 159,-638 153,-632 153,-626 153,-626 153,-614 153,-614 153,-608 159,-602 165,-602 165,-602 270,-602 270,-602 276,-602 282,-608 282,-614 282,-614 282,-626 282,-626 282,-632 276,-638 270,-638"/>
<text text-anchor="middle" x="217.5" y="-616.3" font-family="Helvetica,sans-Serif" font-size="14.00" fill="#000000">FilterBadPulses v1</text>
</g>
<!-- FindDetectorsPar&#45;&gt;FilterBadPulses -->
<g id="edge2" class="edge">
<title>FindDetectorsPar&#45;&gt;FilterBadPulses</title>
<path fill="none" stroke="#000000" d="M217.5,-674.9551C217.5,-666.8828 217.5,-657.1764 217.5,-648.1817"/>
<polygon fill="#000000" stroke="#000000" points="221.0001,-648.0903 217.5,-638.0904 214.0001,-648.0904 221.0001,-648.0903"/>
</g>
<!-- RemovePromptPulse -->
<g id="node5" class="node">
<title>RemovePromptPulse</title>
<path fill="#87cefa" stroke="#000000" d="M287.5,-565C287.5,-565 147.5,-565 147.5,-565 141.5,-565 135.5,-559 135.5,-553 135.5,-553 135.5,-541 135.5,-541 135.5,-535 141.5,-529 147.5,-529 147.5,-529 287.5,-529 287.5,-529 293.5,-529 299.5,-535 299.5,-541 299.5,-541 299.5,-553 299.5,-553 299.5,-559 293.5,-565 287.5,-565"/>
<text text-anchor="middle" x="217.5" y="-543.3" font-family="Helvetica,sans-Serif" font-size="14.00" fill="#000000">RemovePromptPulse v1</text>
</g>
<!-- FilterBadPulses&#45;&gt;RemovePromptPulse -->
<g id="edge3" class="edge">
<title>FilterBadPulses&#45;&gt;RemovePromptPulse</title>
<path fill="none" stroke="#000000" d="M217.5,-601.9551C217.5,-593.8828 217.5,-584.1764 217.5,-575.1817"/>
<polygon fill="#000000" stroke="#000000" points="221.0001,-575.0903 217.5,-565.0904 214.0001,-575.0904 221.0001,-575.0903"/>
</g>
<!-- LoadDiffCal -->
<g id="node6" class="node">
<title>LoadDiffCal</title>
<path fill="#87cefa" stroke="#000000" d="M258,-492C258,-492 177,-492 177,-492 171,-492 165,-486 165,-480 165,-480 165,-468 165,-468 165,-462 171,-456 177,-456 177,-456 258,-456 258,-456 264,-456 270,-462 270,-468 270,-468 270,-480 270,-480 270,-486 264,-492 258,-492"/>
<text text-anchor="middle" x="217.5" y="-470.3" font-family="Helvetica,sans-Serif" font-size="14.00" fill="#000000">LoadDiffCal v1</text>
</g>
<!-- RemovePromptPulse&#45;&gt;LoadDiffCal -->
<g id="edge4" class="edge">
<title>RemovePromptPulse&#45;&gt;LoadDiffCal</title>
<path fill="none" stroke="#000000" d="M217.5,-528.9551C217.5,-520.8828 217.5,-511.1764 217.5,-502.1817"/>
<polygon fill="#000000" stroke="#000000" points="221.0001,-502.0903 217.5,-492.0904 214.0001,-502.0904 221.0001,-502.0903"/>
</g>
<!-- MaskDetectors -->
<g id="node7" class="node">
<title>MaskDetectors</title>
<path fill="#87cefa" stroke="#000000" d="M268,-419C268,-419 167,-419 167,-419 161,-419 155,-413 155,-407 155,-407 155,-395 155,-395 155,-389 161,-383 167,-383 167,-383 268,-383 268,-383 274,-383 280,-389 280,-395 280,-395 280,-407 280,-407 280,-413 274,-419 268,-419"/>
<text text-anchor="middle" x="217.5" y="-397.3" font-family="Helvetica,sans-Serif" font-size="14.00" fill="#000000">MaskDetectors v1</text>
</g>
<!-- LoadDiffCal&#45;&gt;MaskDetectors -->
<g id="edge5" class="edge">
<title>LoadDiffCal&#45;&gt;MaskDetectors</title>
<path fill="none" stroke="#000000" d="M217.5,-455.9551C217.5,-447.8828 217.5,-438.1764 217.5,-429.1817"/>
<polygon fill="#000000" stroke="#000000" points="221.0001,-429.0903 217.5,-419.0904 214.0001,-429.0904 221.0001,-429.0903"/>
</g>
<!-- AlignDetectors -->
<g id="node8" class="node">
<title>AlignDetectors</title>
<path fill="#87cefa" stroke="#000000" d="M266.5,-346C266.5,-346 168.5,-346 168.5,-346 162.5,-346 156.5,-340 156.5,-334 156.5,-334 156.5,-322 156.5,-322 156.5,-316 162.5,-310 168.5,-310 168.5,-310 266.5,-310 266.5,-310 272.5,-310 278.5,-316 278.5,-322 278.5,-322 278.5,-334 278.5,-334 278.5,-340 272.5,-346 266.5,-346"/>
<text text-anchor="middle" x="217.5" y="-324.3" font-family="Helvetica,sans-Serif" font-size="14.00" fill="#000000">AlignDetectors v1</text>
</g>
<!-- MaskDetectors&#45;&gt;AlignDetectors -->
<g id="edge6" class="edge">
<title>MaskDetectors&#45;&gt;AlignDetectors</title>
<path fill="none" stroke="#000000" d="M217.5,-382.9551C217.5,-374.8828 217.5,-365.1764 217.5,-356.1817"/>
<polygon fill="#000000" stroke="#000000" points="221.0001,-356.0903 217.5,-346.0904 214.0001,-356.0904 221.0001,-356.0903"/>
</g>
<!-- ConvertUnits -->
<g id="node9" class="node">
<title>ConvertUnits</title>
<path fill="#87cefa" stroke="#000000" d="M286,-273C286,-273 149,-273 149,-273 143,-273 137,-267 137,-261 137,-261 137,-247 137,-247 137,-241 143,-235 149,-235 149,-235 286,-235 286,-235 292,-235 298,-241 298,-247 298,-247 298,-261 298,-261 298,-267 292,-273 286,-273"/>
<text text-anchor="middle" x="217.5" y="-257.8" font-family="Helvetica,sans-Serif" font-size="14.00" fill="#000000">ConvertUnits v1</text>
<text text-anchor="middle" x="217.5" y="-242.8" font-family="Helvetica,sans-Serif" font-size="14.00" fill="#000000">with target &#39;Wavelength&#39;</text>
</g>
<!-- AlignDetectors&#45;&gt;ConvertUnits -->
<g id="edge7" class="edge">
<title>AlignDetectors&#45;&gt;ConvertUnits</title>
<path fill="none" stroke="#000000" d="M217.5,-309.7079C217.5,-301.7096 217.5,-292.1287 217.5,-283.1859"/>
<polygon fill="#000000" stroke="#000000" points="221.0001,-283.1139 217.5,-273.114 214.0001,-283.114 221.0001,-283.1139"/>
</g>
<!-- edgebinning -->
<g id="node12" class="node">
<title>edgebinning</title>
<polygon fill="#32cd32" stroke="#000000" points="217.5,-198 62.3247,-180 217.5,-162 372.6753,-180 217.5,-198"/>
<text text-anchor="middle" x="217.5" y="-176.3" font-family="Helvetica,sans-Serif" font-size="14.00" fill="#000000">Is edgebinning specified?</text>
</g>
<!-- ConvertUnits&#45;&gt;edgebinning -->
<g id="edge8" class="edge">
<title>ConvertUnits&#45;&gt;edgebinning</title>
<path fill="none" stroke="#000000" d="M217.5,-234.9432C217.5,-226.8174 217.5,-217.1682 217.5,-208.2408"/>
<polygon fill="#000000" stroke="#000000" points="221.0001,-208.2268 217.5,-198.2269 214.0001,-208.2269 221.0001,-208.2268"/>
</g>
<!-- Bin2DPowderDiffraction1 -->
<g id="node10" class="node">
<title>Bin2DPowderDiffraction1</title>
<path fill="#87cefa" stroke="#000000" d="M207,-111C207,-111 12,-111 12,-111 6,-111 0,-105 0,-99 0,-99 0,-85 0,-85 0,-79 6,-73 12,-73 12,-73 207,-73 207,-73 213,-73 219,-79 219,-85 219,-85 219,-99 219,-99 219,-105 213,-111 207,-111"/>
<text text-anchor="middle" x="109.5" y="-95.8" font-family="Helvetica,sans-Serif" font-size="14.00" fill="#000000">Bin2DPowderDiffraction v1</text>
<text text-anchor="middle" x="109.5" y="-80.8" font-family="Helvetica,sans-Serif" font-size="14.00" fill="#000000">using a specified edgebinning file.</text>
</g>
<!-- Bin2DPowderDiffraction1&#45;&gt;OutputWorkspace -->
<g id="edge11" class="edge">
<title>Bin2DPowderDiffraction1&#45;&gt;OutputWorkspace</title>
<path fill="none" stroke="#000000" d="M137.3127,-72.9432C151.5235,-63.2061 168.9268,-51.2816 183.8845,-41.0328"/>
<polygon fill="#000000" stroke="#000000" points="186.0951,-43.761 192.3662,-35.2213 182.1385,-37.9864 186.0951,-43.761"/>
</g>
<!-- Bin2DPowderDiffraction2 -->
<g id="node11" class="node">
<title>Bin2DPowderDiffraction2</title>
<path fill="#87cefa" stroke="#000000" d="M403.5,-111C403.5,-111 249.5,-111 249.5,-111 243.5,-111 237.5,-105 237.5,-99 237.5,-99 237.5,-85 237.5,-85 237.5,-79 243.5,-73 249.5,-73 249.5,-73 403.5,-73 403.5,-73 409.5,-73 415.5,-79 415.5,-85 415.5,-85 415.5,-99 415.5,-99 415.5,-105 409.5,-111 403.5,-111"/>
<text text-anchor="middle" x="326.5" y="-95.8" font-family="Helvetica,sans-Serif" font-size="14.00" fill="#000000">Bin2DPowderDiffraction v1</text>
<text text-anchor="middle" x="326.5" y="-80.8" font-family="Helvetica,sans-Serif" font-size="14.00" fill="#000000">using logbinning.</text>
</g>
<!-- Bin2DPowderDiffraction2&#45;&gt;OutputWorkspace -->
<g id="edge12" class="edge">
<title>Bin2DPowderDiffraction2&#45;&gt;OutputWorkspace</title>
<path fill="none" stroke="#000000" d="M298.4298,-72.9432C284.0874,-63.2061 266.523,-51.2816 251.4267,-41.0328"/>
<polygon fill="#000000" stroke="#000000" points="253.106,-37.9425 242.8666,-35.2213 249.1742,-43.734 253.106,-37.9425"/>
</g>
<!-- edgebinning&#45;&gt;Bin2DPowderDiffraction1 -->
<g id="edge9" class="edge">
<title>edgebinning&#45;&gt;Bin2DPowderDiffraction1</title>
<path fill="none" stroke="#000000" d="M197.942,-164.0639C182.1281,-151.1784 159.5505,-132.7819 141.1657,-117.8017"/>
<polygon fill="#000000" stroke="#000000" points="143.0163,-114.7948 133.053,-111.1914 138.5945,-120.2214 143.0163,-114.7948"/>
<text text-anchor="middle" x="185.5" y="-132.8" font-family="Helvetica,sans-Serif" font-size="14.00" fill="#000000">Yes</text>
</g>
<!-- edgebinning&#45;&gt;Bin2DPowderDiffraction2 -->
<g id="edge10" class="edge">
<title>edgebinning&#45;&gt;Bin2DPowderDiffraction2</title>
<path fill="none" stroke="#000000" d="M237.2391,-164.0639C253.2714,-151.1204 276.1915,-132.6161 294.7916,-117.5995"/>
<polygon fill="#000000" stroke="#000000" points="297.1467,-120.1964 302.7289,-111.1914 292.7495,-114.7498 297.1467,-120.1964"/>
<text text-anchor="middle" x="287.5" y="-132.8" font-family="Helvetica,sans-Serif" font-size="14.00" fill="#000000">No</text>
</g>
</g>
</svg>
