<?xml version="1.0" encoding="UTF-8" standalone="no"?>
<!DOCTYPE svg PUBLIC "-//W3C//DTD SVG 1.1//EN"
 "http://www.w3.org/Graphics/SVG/1.1/DTD/svg11.dtd">
<!-- Generated by graphviz version 2.40.1 (20161225.0304)
 -->
<!-- Title: QENSFitSequential Pages: 1 -->
<svg width="1892pt" height="695pt"
 viewBox="0.00 0.00 1891.89 695.00" xmlns="http://www.w3.org/2000/svg" xmlns:xlink="http://www.w3.org/1999/xlink">
<g id="graph0" class="graph" transform="scale(1 1) rotate(0) translate(4 691)">
<title>QENSFitSequential</title>
<polygon fill="#ffffff" stroke="transparent" points="-4,4 -4,-691 1887.8945,-691 1887.8945,4 -4,4"/>
<text text-anchor="middle" x="941.9472" y="-671.8" font-family="Helvetica,sans-Serif" font-size="14.00" fill="#000000">QENSFitSequential Flowchart</text>
<!-- InputWorkspace -->
<g id="node1" class="node">
<title>InputWorkspace</title>
<ellipse fill="#f0e68c" stroke="#000000" cx="1606.3945" cy="-622.5" rx="74.9875" ry="18"/>
<text text-anchor="middle" x="1606.3945" y="-618.8" font-family="Helvetica,sans-Serif" font-size="14.00" fill="#000000">InputWorkspace</text>
</g>
<!-- ConvertSpectrumAxis -->
<g id="node25" class="node">
<title>ConvertSpectrumAxis</title>
<path fill="#87cefa" stroke="#000000" d="M1085.3945,-530C1085.3945,-530 961.3945,-530 961.3945,-530 955.3945,-530 949.3945,-524 949.3945,-518 949.3945,-518 949.3945,-506 949.3945,-506 949.3945,-500 955.3945,-494 961.3945,-494 961.3945,-494 1085.3945,-494 1085.3945,-494 1091.3945,-494 1097.3945,-500 1097.3945,-506 1097.3945,-506 1097.3945,-518 1097.3945,-518 1097.3945,-524 1091.3945,-530 1085.3945,-530"/>
<text text-anchor="middle" x="1023.3945" y="-508.3" font-family="Helvetica,sans-Serif" font-size="14.00" fill="#000000">ConvertSpectrumAxis</text>
</g>
<!-- InputWorkspace&#45;&gt;ConvertSpectrumAxis -->
<g id="edge7" class="edge">
<title>InputWorkspace&#45;&gt;ConvertSpectrumAxis</title>
<path fill="none" stroke="#000000" d="M1554.5629,-609.4956C1487.8336,-593.1496 1368.1122,-565.1596 1264.3945,-548 1197.7982,-536.982 1177.8972,-541.0846 1107.7737,-530.1148"/>
<polygon fill="#000000" stroke="#000000" points="1107.9653,-526.6006 1097.5356,-528.4638 1106.8508,-533.5113 1107.9653,-526.6006"/>
<text text-anchor="middle" x="1434.3945" y="-551.8" font-family="Helvetica,sans-Serif" font-size="14.00" fill="#000000">Attempt conversion to Elastic Q</text>
</g>
<!-- CopyLogs -->
<g id="node30" class="node">
<title>CopyLogs</title>
<path fill="#87cefa" stroke="#000000" d="M1615.8945,-109C1615.8945,-109 1562.8945,-109 1562.8945,-109 1556.8945,-109 1550.8945,-103 1550.8945,-97 1550.8945,-97 1550.8945,-85 1550.8945,-85 1550.8945,-79 1556.8945,-73 1562.8945,-73 1562.8945,-73 1615.8945,-73 1615.8945,-73 1621.8945,-73 1627.8945,-79 1627.8945,-85 1627.8945,-85 1627.8945,-97 1627.8945,-97 1627.8945,-103 1621.8945,-109 1615.8945,-109"/>
<text text-anchor="middle" x="1589.3945" y="-87.3" font-family="Helvetica,sans-Serif" font-size="14.00" fill="#000000">CopyLogs</text>
</g>
<!-- InputWorkspace&#45;&gt;CopyLogs -->
<g id="edge29" class="edge">
<title>InputWorkspace&#45;&gt;CopyLogs</title>
<path fill="none" stroke="#000000" d="M1638.4348,-606.0508C1681.4123,-582.9007 1752.3945,-540.3712 1752.3945,-512 1752.3945,-512 1752.3945,-512 1752.3945,-178 1752.3945,-125.5926 1686.0049,-104.643 1637.9653,-96.3439"/>
<polygon fill="#000000" stroke="#000000" points="1638.4497,-92.877 1628.0232,-94.7582 1637.3471,-99.7896 1638.4497,-92.877"/>
</g>
<!-- do_extract_members -->
<g id="node32" class="node">
<title>do_extract_members</title>
<polygon fill="#32cd32" stroke="#000000" points="1032.3945,-196 895.4856,-178 1032.3945,-160 1169.3033,-178 1032.3945,-196"/>
<text text-anchor="middle" x="1032.3945" y="-174.3" font-family="Helvetica,sans-Serif" font-size="14.00" fill="#000000">Do Extract Members?</text>
</g>
<!-- InputWorkspace&#45;&gt;do_extract_members -->
<g id="edge38" class="edge">
<title>InputWorkspace&#45;&gt;do_extract_members</title>
<path fill="none" stroke="#000000" d="M1635.9991,-605.8195C1651.7715,-597.4651 1671.724,-587.7247 1690.3945,-581 1723.0529,-569.2371 1744.8626,-590.2272 1766.3945,-563 1785.6228,-538.6857 1767.0425,-516.7759 1733.3945,-494 1677.2127,-455.9714 1483.5261,-487.5884 1432.3945,-443 1377.6219,-395.2365 1434.8654,-338.3042 1383.3945,-287 1342.9931,-246.7295 1187.8086,-209.5408 1097.884,-190.773"/>
<polygon fill="#000000" stroke="#000000" points="1098.5571,-187.3382 1088.0556,-188.7408 1097.1397,-194.1932 1098.5571,-187.3382"/>
</g>
<!-- FitFunction -->
<g id="node34" class="node">
<title>FitFunction</title>
<ellipse fill="#d3d3d3" stroke="#000000" cx="789.3945" cy="-512" rx="53.8905" ry="18"/>
<text text-anchor="middle" x="789.3945" y="-508.3" font-family="Helvetica,sans-Serif" font-size="14.00" fill="#000000">FitFunction</text>
</g>
<!-- InputWorkspace&#45;&gt;FitFunction -->
<g id="edge1" class="edge">
<title>InputWorkspace&#45;&gt;FitFunction</title>
<path fill="none" stroke="#000000" d="M1539.0698,-614.5303C1360.4647,-593.3486 885.9188,-536.8022 852.3945,-530 848.0119,-529.1108 843.4897,-528.0702 838.9741,-526.9457"/>
<polygon fill="#000000" stroke="#000000" points="839.7162,-523.5221 829.1558,-524.3761 837.9438,-530.294 839.7162,-523.5221"/>
</g>
<!-- Input -->
<g id="node2" class="node">
<title>Input</title>
<ellipse fill="#f0e68c" stroke="#000000" cx="646.3945" cy="-622.5" rx="30.5947" ry="18"/>
<text text-anchor="middle" x="646.3945" y="-618.8" font-family="Helvetica,sans-Serif" font-size="14.00" fill="#000000">Input</text>
</g>
<!-- PlotPeakByLogValue -->
<g id="node26" class="node">
<title>PlotPeakByLogValue</title>
<path fill="#87cefa" stroke="#000000" d="M901.8945,-443C901.8945,-443 782.8945,-443 782.8945,-443 776.8945,-443 770.8945,-437 770.8945,-431 770.8945,-431 770.8945,-419 770.8945,-419 770.8945,-413 776.8945,-407 782.8945,-407 782.8945,-407 901.8945,-407 901.8945,-407 907.8945,-407 913.8945,-413 913.8945,-419 913.8945,-419 913.8945,-431 913.8945,-431 913.8945,-437 907.8945,-443 901.8945,-443"/>
<text text-anchor="middle" x="842.3945" y="-421.3" font-family="Helvetica,sans-Serif" font-size="14.00" fill="#000000">PlotPeakByLogValue</text>
</g>
<!-- Input&#45;&gt;PlotPeakByLogValue -->
<g id="edge9" class="edge">
<title>Input&#45;&gt;PlotPeakByLogValue</title>
<path fill="none" stroke="#000000" d="M654.0207,-604.8875C666.2111,-578.3011 692.2344,-527.4755 726.3945,-494 745.5902,-475.1889 770.8706,-459.3831 792.9301,-447.6657"/>
<polygon fill="#000000" stroke="#000000" points="794.5652,-450.7605 801.8402,-443.0582 791.3499,-444.5426 794.5652,-450.7605"/>
</g>
<!-- Input&#45;&gt;FitFunction -->
<g id="edge2" class="edge">
<title>Input&#45;&gt;FitFunction</title>
<path fill="none" stroke="#000000" d="M660.4714,-606.3338C667.8226,-598.3089 677.1871,-588.7084 686.3945,-581 707.5272,-563.3075 733.2892,-546.0509 753.7621,-533.2206"/>
<polygon fill="#000000" stroke="#000000" points="755.8114,-536.0684 762.4713,-527.8285 752.1265,-530.1168 755.8114,-536.0684"/>
</g>
<!-- FitParameters -->
<g id="node3" class="node">
<title>FitParameters</title>
<ellipse fill="#f0e68c" stroke="#000000" cx="761.3945" cy="-622.5" rx="66.0889" ry="18"/>
<text text-anchor="middle" x="761.3945" y="-618.8" font-family="Helvetica,sans-Serif" font-size="14.00" fill="#000000">FitParameters</text>
</g>
<!-- FitParameters&#45;&gt;FitFunction -->
<g id="edge4" class="edge">
<title>FitParameters&#45;&gt;FitFunction</title>
<path fill="none" stroke="#000000" d="M766.0181,-604.2532C770.436,-586.8184 777.1593,-560.2854 782.2633,-540.1427"/>
<polygon fill="#000000" stroke="#000000" points="785.7004,-540.8273 784.764,-530.2739 778.9148,-539.1078 785.7004,-540.8273"/>
</g>
<!-- Function -->
<g id="node4" class="node">
<title>Function</title>
<ellipse fill="#f0e68c" stroke="#000000" cx="889.3945" cy="-622.5" rx="44.393" ry="18"/>
<text text-anchor="middle" x="889.3945" y="-618.8" font-family="Helvetica,sans-Serif" font-size="14.00" fill="#000000">Function</text>
</g>
<!-- Function&#45;&gt;FitFunction -->
<g id="edge3" class="edge">
<title>Function&#45;&gt;FitFunction</title>
<path fill="none" stroke="#000000" d="M873.7695,-605.2344C857.2084,-586.9344 830.8957,-557.8588 812.0577,-537.0429"/>
<polygon fill="#000000" stroke="#000000" points="814.5449,-534.5751 805.2398,-529.5091 809.3547,-539.2722 814.5449,-534.5751"/>
</g>
<!-- StartX -->
<g id="node5" class="node">
<title>StartX</title>
<ellipse fill="#f0e68c" stroke="#000000" cx="896.3945" cy="-512" rx="35.194" ry="18"/>
<text text-anchor="middle" x="896.3945" y="-508.3" font-family="Helvetica,sans-Serif" font-size="14.00" fill="#000000">StartX</text>
</g>
<!-- StartX&#45;&gt;PlotPeakByLogValue -->
<g id="edge11" class="edge">
<title>StartX&#45;&gt;PlotPeakByLogValue</title>
<path fill="none" stroke="#000000" d="M885.7258,-494.8116C878.1112,-482.5437 867.7208,-465.8035 859.0234,-451.7911"/>
<polygon fill="#000000" stroke="#000000" points="861.8461,-449.7018 853.5987,-443.0512 855.8986,-453.3934 861.8461,-449.7018"/>
</g>
<!-- EndX -->
<g id="node6" class="node">
<title>EndX</title>
<ellipse fill="#f0e68c" stroke="#000000" cx="1147.3945" cy="-512" rx="32.4942" ry="18"/>
<text text-anchor="middle" x="1147.3945" y="-508.3" font-family="Helvetica,sans-Serif" font-size="14.00" fill="#000000">EndX</text>
</g>
<!-- EndX&#45;&gt;PlotPeakByLogValue -->
<g id="edge12" class="edge">
<title>EndX&#45;&gt;PlotPeakByLogValue</title>
<path fill="none" stroke="#000000" d="M1125.3507,-498.4828C1105.419,-486.8505 1074.9124,-470.4865 1046.3945,-461 1007.0803,-447.9221 961.8368,-439.3242 923.9625,-433.8226"/>
<polygon fill="#000000" stroke="#000000" points="924.3849,-430.3477 913.9949,-432.4209 923.4101,-437.2795 924.3849,-430.3477"/>
</g>
<!-- SpecMin -->
<g id="node7" class="node">
<title>SpecMin</title>
<ellipse fill="#f0e68c" stroke="#000000" cx="997.3945" cy="-622.5" rx="45.4919" ry="18"/>
<text text-anchor="middle" x="997.3945" y="-618.8" font-family="Helvetica,sans-Serif" font-size="14.00" fill="#000000">SpecMin</text>
</g>
<!-- SpecMin&#45;&gt;FitFunction -->
<g id="edge5" class="edge">
<title>SpecMin&#45;&gt;FitFunction</title>
<path fill="none" stroke="#000000" d="M978.0285,-606.2063C967.8137,-598.0547 954.8456,-588.3798 942.3945,-581 907.638,-560.3998 865.6477,-541.873 834.4557,-529.2169"/>
<polygon fill="#000000" stroke="#000000" points="835.7263,-525.9556 825.1421,-525.4818 833.1207,-532.4526 835.7263,-525.9556"/>
</g>
<!-- SpecMax -->
<g id="node8" class="node">
<title>SpecMax</title>
<ellipse fill="#f0e68c" stroke="#000000" cx="1109.3945" cy="-622.5" rx="48.1917" ry="18"/>
<text text-anchor="middle" x="1109.3945" y="-618.8" font-family="Helvetica,sans-Serif" font-size="14.00" fill="#000000">SpecMax</text>
</g>
<!-- SpecMax&#45;&gt;FitFunction -->
<g id="edge6" class="edge">
<title>SpecMax&#45;&gt;FitFunction</title>
<path fill="none" stroke="#000000" d="M1090.1359,-605.949C1079.3543,-597.4228 1065.3115,-587.4835 1051.3945,-581 968.6322,-542.4435 940.5199,-553.877 852.3945,-530 848.3802,-528.9123 844.2274,-527.7682 840.0577,-526.6059"/>
<polygon fill="#000000" stroke="#000000" points="840.9286,-523.2151 830.3546,-523.8789 839.0347,-529.9541 840.9286,-523.2151"/>
</g>
<!-- ConvolveMembers -->
<g id="node9" class="node">
<title>ConvolveMembers</title>
<ellipse fill="#f0e68c" stroke="#000000" cx="1283.3945" cy="-512" rx="85.2851" ry="18"/>
<text text-anchor="middle" x="1283.3945" y="-508.3" font-family="Helvetica,sans-Serif" font-size="14.00" fill="#000000">ConvolveMembers</text>
</g>
<!-- ConvolveMembers&#45;&gt;PlotPeakByLogValue -->
<g id="edge13" class="edge">
<title>ConvolveMembers&#45;&gt;PlotPeakByLogValue</title>
<path fill="none" stroke="#000000" d="M1231.1944,-497.6854C1189.7272,-486.652 1130.142,-471.5471 1077.3945,-461 1026.6913,-450.8617 969.3365,-442.025 923.982,-435.6438"/>
<polygon fill="#000000" stroke="#000000" points="924.2931,-432.1533 913.9055,-434.2386 923.3262,-439.0863 924.2931,-432.1533"/>
</g>
<!-- ExtractMembers -->
<g id="node10" class="node">
<title>ExtractMembers</title>
<ellipse fill="#f0e68c" stroke="#000000" cx="467.3945" cy="-251" rx="75.2868" ry="18"/>
<text text-anchor="middle" x="467.3945" y="-247.3" font-family="Helvetica,sans-Serif" font-size="14.00" fill="#000000">ExtractMembers</text>
</g>
<!-- ExtractMembers&#45;&gt;do_extract_members -->
<g id="edge36" class="edge">
<title>ExtractMembers&#45;&gt;do_extract_members</title>
<path fill="none" stroke="#000000" d="M521.9224,-238.5108C531.7038,-236.5004 541.8278,-234.5681 551.3945,-233 685.377,-211.038 841.7857,-194.8934 938.9742,-185.969"/>
<polygon fill="#000000" stroke="#000000" points="939.4255,-189.4424 949.0663,-185.0487 938.7898,-182.4713 939.4255,-189.4424"/>
</g>
<!-- PassWSIndexToFunction -->
<g id="node11" class="node">
<title>PassWSIndexToFunction</title>
<ellipse fill="#f0e68c" stroke="#000000" cx="1497.3945" cy="-512" rx="110.4804" ry="18"/>
<text text-anchor="middle" x="1497.3945" y="-508.3" font-family="Helvetica,sans-Serif" font-size="14.00" fill="#000000">PassWSIndexToFunction</text>
</g>
<!-- PassWSIndexToFunction&#45;&gt;PlotPeakByLogValue -->
<g id="edge19" class="edge">
<title>PassWSIndexToFunction&#45;&gt;PlotPeakByLogValue</title>
<path fill="none" stroke="#000000" d="M1416.7406,-499.6736C1403.5965,-497.7304 1390.1214,-495.7778 1377.3945,-494 1217.17,-471.618 1029.5714,-448.0235 924.5006,-435.0445"/>
<polygon fill="#000000" stroke="#000000" points="924.6361,-431.5347 914.2827,-433.7836 923.7788,-438.482 924.6361,-431.5347"/>
</g>
<!-- Minimizer -->
<g id="node12" class="node">
<title>Minimizer</title>
<ellipse fill="#f0e68c" stroke="#000000" cx="1675.3945" cy="-512" rx="49.2915" ry="18"/>
<text text-anchor="middle" x="1675.3945" y="-508.3" font-family="Helvetica,sans-Serif" font-size="14.00" fill="#000000">Minimizer</text>
</g>
<!-- Minimizer&#45;&gt;PlotPeakByLogValue -->
<g id="edge15" class="edge">
<title>Minimizer&#45;&gt;PlotPeakByLogValue</title>
<path fill="none" stroke="#000000" d="M1639.1842,-499.6648C1631.7191,-497.4871 1623.8575,-495.4548 1616.3945,-494 1367.3945,-445.463 1066.5796,-431.0018 924.4213,-426.7445"/>
<polygon fill="#000000" stroke="#000000" points="924.1474,-423.2351 914.0501,-426.4436 923.9444,-430.2322 924.1474,-423.2351"/>
</g>
<!-- CostFunction -->
<g id="node13" class="node">
<title>CostFunction</title>
<ellipse fill="#f0e68c" stroke="#000000" cx="62.3945" cy="-512" rx="62.2891" ry="18"/>
<text text-anchor="middle" x="62.3945" y="-508.3" font-family="Helvetica,sans-Serif" font-size="14.00" fill="#000000">CostFunction</text>
</g>
<!-- CostFunction&#45;&gt;PlotPeakByLogValue -->
<g id="edge16" class="edge">
<title>CostFunction&#45;&gt;PlotPeakByLogValue</title>
<path fill="none" stroke="#000000" d="M108.0506,-499.592C116.4415,-497.5495 125.1528,-495.5853 133.3945,-494 357.9865,-450.8004 628.0828,-434.0073 760.7366,-428.0126"/>
<polygon fill="#000000" stroke="#000000" points="760.9859,-431.5051 770.8212,-427.5658 760.676,-424.512 760.9859,-431.5051"/>
</g>
<!-- MaxIterations -->
<g id="node14" class="node">
<title>MaxIterations</title>
<ellipse fill="#f0e68c" stroke="#000000" cx="206.3945" cy="-512" rx="63.8893" ry="18"/>
<text text-anchor="middle" x="206.3945" y="-508.3" font-family="Helvetica,sans-Serif" font-size="14.00" fill="#000000">MaxIterations</text>
</g>
<!-- MaxIterations&#45;&gt;PlotPeakByLogValue -->
<g id="edge14" class="edge">
<title>MaxIterations&#45;&gt;PlotPeakByLogValue</title>
<path fill="none" stroke="#000000" d="M253.3704,-499.7171C261.9942,-497.6619 270.941,-495.661 279.3945,-494 448.9945,-460.6766 650.6873,-440.6122 760.7392,-431.2902"/>
<polygon fill="#000000" stroke="#000000" points="761.1021,-434.7721 770.7745,-430.4485 760.5169,-427.7966 761.1021,-434.7721"/>
</g>
<!-- PeakRadius -->
<g id="node15" class="node">
<title>PeakRadius</title>
<ellipse fill="#f0e68c" stroke="#000000" cx="346.3945" cy="-512" rx="57.6901" ry="18"/>
<text text-anchor="middle" x="346.3945" y="-508.3" font-family="Helvetica,sans-Serif" font-size="14.00" fill="#000000">PeakRadius</text>
</g>
<!-- PeakRadius&#45;&gt;PlotPeakByLogValue -->
<g id="edge17" class="edge">
<title>PeakRadius&#45;&gt;PlotPeakByLogValue</title>
<path fill="none" stroke="#000000" d="M389.1361,-499.8639C397.1631,-497.7708 405.5099,-495.7188 413.3945,-494 533.2127,-467.881 673.8494,-447.1101 760.5488,-435.4274"/>
<polygon fill="#000000" stroke="#000000" points="761.142,-438.8793 770.5888,-434.0827 760.2127,-431.9412 761.142,-438.8793"/>
</g>
<!-- EvaluationType -->
<g id="node16" class="node">
<title>EvaluationType</title>
<ellipse fill="#f0e68c" stroke="#000000" cx="493.3945" cy="-512" rx="71.4873" ry="18"/>
<text text-anchor="middle" x="493.3945" y="-508.3" font-family="Helvetica,sans-Serif" font-size="14.00" fill="#000000">EvaluationType</text>
</g>
<!-- EvaluationType&#45;&gt;PlotPeakByLogValue -->
<g id="edge20" class="edge">
<title>EvaluationType&#45;&gt;PlotPeakByLogValue</title>
<path fill="none" stroke="#000000" d="M537.9153,-497.7422C572.6885,-486.882 622.3384,-471.9785 666.3945,-461 696.9823,-453.3777 730.8522,-446.1625 760.6444,-440.2211"/>
<polygon fill="#000000" stroke="#000000" points="761.4498,-443.6297 770.5809,-438.2563 760.0919,-436.7626 761.4498,-443.6297"/>
</g>
<!-- LogValue -->
<g id="node17" class="node">
<title>LogValue</title>
<ellipse fill="#f0e68c" stroke="#000000" cx="631.3945" cy="-512" rx="48.1917" ry="18"/>
<text text-anchor="middle" x="631.3945" y="-508.3" font-family="Helvetica,sans-Serif" font-size="14.00" fill="#000000">LogValue</text>
</g>
<!-- LogValue&#45;&gt;PlotPeakByLogValue -->
<g id="edge18" class="edge">
<title>LogValue&#45;&gt;PlotPeakByLogValue</title>
<path fill="none" stroke="#000000" d="M647.7987,-494.9546C659.5112,-483.7349 676.1831,-469.5856 693.3945,-461 714.2424,-450.6004 738.2563,-443.1035 760.8328,-437.7402"/>
<polygon fill="#000000" stroke="#000000" points="761.7653,-441.1178 770.7461,-435.4969 760.2202,-434.2904 761.7653,-441.1178"/>
</g>
<!-- FitWorkspaces -->
<g id="node18" class="node">
<title>FitWorkspaces</title>
<ellipse fill="#f0e68c" stroke="#000000" cx="1162.3945" cy="-338" rx="69.5877" ry="18"/>
<text text-anchor="middle" x="1162.3945" y="-334.3" font-family="Helvetica,sans-Serif" font-size="14.00" fill="#000000">FitWorkspaces</text>
</g>
<!-- RenameWorkspace -->
<g id="node31" class="node">
<title>RenameWorkspace</title>
<path fill="#87cefa" stroke="#000000" d="M1088.8945,-269C1088.8945,-269 975.8945,-269 975.8945,-269 969.8945,-269 963.8945,-263 963.8945,-257 963.8945,-257 963.8945,-245 963.8945,-245 963.8945,-239 969.8945,-233 975.8945,-233 975.8945,-233 1088.8945,-233 1088.8945,-233 1094.8945,-233 1100.8945,-239 1100.8945,-245 1100.8945,-245 1100.8945,-257 1100.8945,-257 1100.8945,-263 1094.8945,-269 1088.8945,-269"/>
<text text-anchor="middle" x="1032.3945" y="-247.3" font-family="Helvetica,sans-Serif" font-size="14.00" fill="#000000">RenameWorkspace</text>
</g>
<!-- FitWorkspaces&#45;&gt;RenameWorkspace -->
<g id="edge35" class="edge">
<title>FitWorkspaces&#45;&gt;RenameWorkspace</title>
<path fill="none" stroke="#000000" d="M1178.2547,-320.1976C1185.5728,-309.7685 1191.1087,-296.7696 1183.3945,-287 1173.8625,-274.9284 1142.8101,-266.4646 1111.3235,-260.7913"/>
<polygon fill="#000000" stroke="#000000" points="1111.5588,-257.2808 1101.1121,-259.0463 1110.3796,-264.1808 1111.5588,-257.2808"/>
<text text-anchor="middle" x="1282.8945" y="-290.8" font-family="Helvetica,sans-Serif" font-size="14.00" fill="#000000">Renames to match input names</text>
</g>
<!-- NormalisedCovarianceWorkspace -->
<g id="node19" class="node">
<title>NormalisedCovarianceWorkspace</title>
<ellipse fill="#f0e68c" stroke="#000000" cx="622.3945" cy="-338" rx="144.0747" ry="18"/>
<text text-anchor="middle" x="622.3945" y="-334.3" font-family="Helvetica,sans-Serif" font-size="14.00" fill="#000000">NormalisedCovarianceWorkspace</text>
</g>
<!-- DeleteWorkspace -->
<g id="node27" class="node">
<title>DeleteWorkspace</title>
<path fill="#87cefa" stroke="#000000" d="M672.3945,-269C672.3945,-269 572.3945,-269 572.3945,-269 566.3945,-269 560.3945,-263 560.3945,-257 560.3945,-257 560.3945,-245 560.3945,-245 560.3945,-239 566.3945,-233 572.3945,-233 572.3945,-233 672.3945,-233 672.3945,-233 678.3945,-233 684.3945,-239 684.3945,-245 684.3945,-245 684.3945,-257 684.3945,-257 684.3945,-263 678.3945,-269 672.3945,-269"/>
<text text-anchor="middle" x="622.3945" y="-247.3" font-family="Helvetica,sans-Serif" font-size="14.00" fill="#000000">DeleteWorkspace</text>
</g>
<!-- NormalisedCovarianceWorkspace&#45;&gt;DeleteWorkspace -->
<g id="edge24" class="edge">
<title>NormalisedCovarianceWorkspace&#45;&gt;DeleteWorkspace</title>
<path fill="none" stroke="#000000" d="M622.3945,-319.9735C622.3945,-308.1918 622.3945,-292.5607 622.3945,-279.1581"/>
<polygon fill="#000000" stroke="#000000" points="625.8946,-279.0033 622.3945,-269.0034 618.8946,-279.0034 625.8946,-279.0033"/>
<text text-anchor="middle" x="753.3945" y="-290.8" font-family="Helvetica,sans-Serif" font-size="14.00" fill="#000000">Unrequired product of PlotPeakByLogValue</text>
</g>
<!-- ParameterNames -->
<g id="node20" class="node">
<title>ParameterNames</title>
<ellipse fill="#f0e68c" stroke="#000000" cx="1524.3945" cy="-338" rx="80.6858" ry="18"/>
<text text-anchor="middle" x="1524.3945" y="-334.3" font-family="Helvetica,sans-Serif" font-size="14.00" fill="#000000">ParameterNames</text>
</g>
<!-- ProcessIndirectFitParameters -->
<g id="node29" class="node">
<title>ProcessIndirectFitParameters</title>
<path fill="#87cefa" stroke="#000000" d="M1615.8945,-269C1615.8945,-269 1444.8945,-269 1444.8945,-269 1438.8945,-269 1432.8945,-263 1432.8945,-257 1432.8945,-257 1432.8945,-245 1432.8945,-245 1432.8945,-239 1438.8945,-233 1444.8945,-233 1444.8945,-233 1615.8945,-233 1615.8945,-233 1621.8945,-233 1627.8945,-239 1627.8945,-245 1627.8945,-245 1627.8945,-257 1627.8945,-257 1627.8945,-263 1621.8945,-269 1615.8945,-269"/>
<text text-anchor="middle" x="1530.3945" y="-247.3" font-family="Helvetica,sans-Serif" font-size="14.00" fill="#000000">ProcessIndirectFitParameters</text>
</g>
<!-- ParameterNames&#45;&gt;ProcessIndirectFitParameters -->
<g id="edge27" class="edge">
<title>ParameterNames&#45;&gt;ProcessIndirectFitParameters</title>
<path fill="none" stroke="#000000" d="M1525.6377,-319.9735C1526.4502,-308.1918 1527.5282,-292.5607 1528.4525,-279.1581"/>
<polygon fill="#000000" stroke="#000000" points="1531.9564,-279.2205 1529.1529,-269.0034 1524.973,-278.7388 1531.9564,-279.2205"/>
</g>
<!-- OutputWorkspace -->
<g id="node21" class="node">
<title>OutputWorkspace</title>
<ellipse fill="#f0e68c" stroke="#000000" cx="1589.3945" cy="-18" rx="81.7856" ry="18"/>
<text text-anchor="middle" x="1589.3945" y="-14.3" font-family="Helvetica,sans-Serif" font-size="14.00" fill="#000000">OutputWorkspace</text>
</g>
<!-- OutputParameterWorkspace -->
<g id="node22" class="node">
<title>OutputParameterWorkspace</title>
<ellipse fill="#f0e68c" stroke="#000000" cx="908.3945" cy="-338" rx="123.4781" ry="18"/>
<text text-anchor="middle" x="908.3945" y="-334.3" font-family="Helvetica,sans-Serif" font-size="14.00" fill="#000000">OutputParameterWorkspace</text>
</g>
<!-- OutputParameterWorkspace&#45;&gt;ProcessIndirectFitParameters -->
<g id="edge26" class="edge">
<title>OutputParameterWorkspace&#45;&gt;ProcessIndirectFitParameters</title>
<path fill="none" stroke="#000000" d="M906.4496,-319.9988C906.3216,-308.812 908.3286,-295.0707 917.3945,-287 926.6959,-278.7196 1249.1597,-263.3411 1422.5575,-255.6426"/>
<polygon fill="#000000" stroke="#000000" points="1422.9035,-259.1308 1432.7388,-255.1918 1422.5938,-252.1377 1422.9035,-259.1308"/>
</g>
<!-- OutputParameterWorkspace&#45;&gt;RenameWorkspace -->
<g id="edge34" class="edge">
<title>OutputParameterWorkspace&#45;&gt;RenameWorkspace</title>
<path fill="none" stroke="#000000" d="M913.4934,-319.8174C917.3675,-308.986 923.7116,-295.6985 933.3945,-287 939.7017,-281.334 946.9711,-276.5395 954.6475,-272.4867"/>
<polygon fill="#000000" stroke="#000000" points="956.3287,-275.5617 963.8125,-268.0621 953.2854,-269.2579 956.3287,-275.5617"/>
<text text-anchor="middle" x="1058.3945" y="-290.8" font-family="Helvetica,sans-Serif" font-size="14.00" fill="#000000">Change name to expected name for table</text>
</g>
<!-- OutputWorkspaceGroup -->
<g id="node23" class="node">
<title>OutputWorkspaceGroup</title>
<ellipse fill="#f0e68c" stroke="#000000" cx="1032.3945" cy="-18" rx="106.6812" ry="18"/>
<text text-anchor="middle" x="1032.3945" y="-14.3" font-family="Helvetica,sans-Serif" font-size="14.00" fill="#000000">OutputWorkspaceGroup</text>
</g>
<!-- SampleLog -->
<g id="node24" class="node">
<title>SampleLog</title>
<ellipse fill="#f0e68c" stroke="#000000" cx="1520.3945" cy="-178" rx="55.7903" ry="18"/>
<text text-anchor="middle" x="1520.3945" y="-174.3" font-family="Helvetica,sans-Serif" font-size="14.00" fill="#000000">SampleLog</text>
</g>
<!-- SampleLog&#45;&gt;CopyLogs -->
<g id="edge32" class="edge">
<title>SampleLog&#45;&gt;CopyLogs</title>
<path fill="none" stroke="#000000" d="M1534.3576,-160.3943C1544.2331,-147.9425 1557.6384,-131.0403 1568.7464,-117.0346"/>
<polygon fill="#000000" stroke="#000000" points="1571.5053,-119.1884 1574.9771,-109.1785 1566.0208,-114.8386 1571.5053,-119.1884"/>
</g>
<!-- ConvertSpectrumAxis&#45;&gt;PlotPeakByLogValue -->
<g id="edge8" class="edge">
<title>ConvertSpectrumAxis&#45;&gt;PlotPeakByLogValue</title>
<path fill="none" stroke="#000000" d="M985.8911,-493.9735C957.7393,-480.442 919.0237,-461.8328 888.9011,-447.354"/>
<polygon fill="#000000" stroke="#000000" points="890.3789,-444.1811 879.8497,-443.0034 887.3464,-450.4901 890.3789,-444.1811"/>
<text text-anchor="middle" x="992.8945" y="-464.8" font-family="Helvetica,sans-Serif" font-size="14.00" fill="#000000">InputWorkspace</text>
</g>
<!-- PlotPeakByLogValue&#45;&gt;FitWorkspaces -->
<g id="edge23" class="edge">
<title>PlotPeakByLogValue&#45;&gt;FitWorkspaces</title>
<path fill="none" stroke="#000000" d="M908.6987,-406.9735C966.4325,-391.2772 1049.2966,-368.7485 1104.428,-353.7596"/>
<polygon fill="#000000" stroke="#000000" points="1105.6557,-357.053 1114.3872,-351.052 1103.8192,-350.2982 1105.6557,-357.053"/>
</g>
<!-- PlotPeakByLogValue&#45;&gt;NormalisedCovarianceWorkspace -->
<g id="edge21" class="edge">
<title>PlotPeakByLogValue&#45;&gt;NormalisedCovarianceWorkspace</title>
<path fill="none" stroke="#000000" d="M796.8103,-406.9735C761.5725,-393.0386 712.7177,-373.7187 675.6756,-359.0703"/>
<polygon fill="#000000" stroke="#000000" points="676.6327,-355.6851 666.0463,-355.2623 674.0585,-362.1946 676.6327,-355.6851"/>
</g>
<!-- PlotPeakByLogValue&#45;&gt;OutputParameterWorkspace -->
<g id="edge22" class="edge">
<title>PlotPeakByLogValue&#45;&gt;OutputParameterWorkspace</title>
<path fill="none" stroke="#000000" d="M856.0697,-406.9735C865.4501,-394.6085 878.0469,-378.0036 888.5302,-364.1847"/>
<polygon fill="#000000" stroke="#000000" points="891.4813,-366.0857 894.7367,-356.0034 885.9044,-361.8549 891.4813,-366.0857"/>
</g>
<!-- ExtractQENSMembers -->
<g id="node28" class="node">
<title>ExtractQENSMembers</title>
<path fill="#87cefa" stroke="#000000" d="M1097.8945,-109C1097.8945,-109 966.8945,-109 966.8945,-109 960.8945,-109 954.8945,-103 954.8945,-97 954.8945,-97 954.8945,-85 954.8945,-85 954.8945,-79 960.8945,-73 966.8945,-73 966.8945,-73 1097.8945,-73 1097.8945,-73 1103.8945,-73 1109.8945,-79 1109.8945,-85 1109.8945,-85 1109.8945,-97 1109.8945,-97 1109.8945,-103 1103.8945,-109 1097.8945,-109"/>
<text text-anchor="middle" x="1032.3945" y="-87.3" font-family="Helvetica,sans-Serif" font-size="14.00" fill="#000000">ExtractQENSMembers</text>
</g>
<!-- ExtractQENSMembers&#45;&gt;OutputWorkspaceGroup -->
<g id="edge40" class="edge">
<title>ExtractQENSMembers&#45;&gt;OutputWorkspaceGroup</title>
<path fill="none" stroke="#000000" d="M1032.3945,-72.9551C1032.3945,-64.8828 1032.3945,-55.1764 1032.3945,-46.1817"/>
<polygon fill="#000000" stroke="#000000" points="1035.8946,-46.0903 1032.3945,-36.0904 1028.8946,-46.0904 1035.8946,-46.0903"/>
</g>
<!-- ResultWorkspace -->
<g id="node36" class="node">
<title>ResultWorkspace</title>
<ellipse fill="#d3d3d3" stroke="#000000" cx="1366.3945" cy="-178" rx="79.8859" ry="18"/>
<text text-anchor="middle" x="1366.3945" y="-174.3" font-family="Helvetica,sans-Serif" font-size="14.00" fill="#000000">ResultWorkspace</text>
</g>
<!-- ProcessIndirectFitParameters&#45;&gt;ResultWorkspace -->
<g id="edge28" class="edge">
<title>ProcessIndirectFitParameters&#45;&gt;ResultWorkspace</title>
<path fill="none" stroke="#000000" d="M1489.8551,-232.9551C1466.241,-222.4439 1436.4017,-209.1617 1411.974,-198.2884"/>
<polygon fill="#000000" stroke="#000000" points="1413.1186,-194.9669 1402.5594,-194.0978 1410.2719,-201.362 1413.1186,-194.9669"/>
</g>
<!-- CopyLogs&#45;&gt;OutputWorkspace -->
<g id="edge31" class="edge">
<title>CopyLogs&#45;&gt;OutputWorkspace</title>
<path fill="none" stroke="#000000" d="M1589.3945,-72.9551C1589.3945,-64.8828 1589.3945,-55.1764 1589.3945,-46.1817"/>
<polygon fill="#000000" stroke="#000000" points="1592.8946,-46.0903 1589.3945,-36.0904 1585.8946,-46.0904 1592.8946,-46.0903"/>
</g>
<!-- RenameWorkspace&#45;&gt;do_extract_members -->
<g id="edge37" class="edge">
<title>RenameWorkspace&#45;&gt;do_extract_members</title>
<path fill="none" stroke="#000000" d="M1032.3945,-232.9551C1032.3945,-224.8828 1032.3945,-215.1764 1032.3945,-206.1817"/>
<polygon fill="#000000" stroke="#000000" points="1035.8946,-206.0903 1032.3945,-196.0904 1028.8946,-206.0904 1035.8946,-206.0903"/>
</g>
<!-- do_extract_members&#45;&gt;ExtractQENSMembers -->
<g id="edge39" class="edge">
<title>do_extract_members&#45;&gt;ExtractQENSMembers</title>
<path fill="none" stroke="#000000" d="M1032.3945,-159.9735C1032.3945,-148.1918 1032.3945,-132.5607 1032.3945,-119.1581"/>
<polygon fill="#000000" stroke="#000000" points="1035.8946,-119.0033 1032.3945,-109.0034 1028.8946,-119.0034 1035.8946,-119.0033"/>
<text text-anchor="middle" x="1044.3945" y="-130.8" font-family="Helvetica,sans-Serif" font-size="14.00" fill="#000000">Yes</text>
</g>
<!-- extract_members -->
<g id="node33" class="node">
<title>extract_members</title>
<polygon fill="#20b2aa" stroke="#000000" points="1883.8945,-664 1698.8945,-664 1698.8945,-581 1883.8945,-581 1883.8945,-664"/>
<text text-anchor="middle" x="1791.3945" y="-648.8" font-family="Helvetica,sans-Serif" font-size="14.00" fill="#000000">ExtractQENSMembers:</text>
<text text-anchor="middle" x="1791.3945" y="-633.8" font-family="Helvetica,sans-Serif" font-size="14.00" fill="#000000">Extracts the members of</text>
<text text-anchor="middle" x="1791.3945" y="-618.8" font-family="Helvetica,sans-Serif" font-size="14.00" fill="#000000">the convolution fit, into</text>
<text text-anchor="middle" x="1791.3945" y="-603.8" font-family="Helvetica,sans-Serif" font-size="14.00" fill="#000000"> their own workspace, which</text>
<text text-anchor="middle" x="1791.3945" y="-588.8" font-family="Helvetica,sans-Serif" font-size="14.00" fill="#000000"> are subsequently grouped.</text>
</g>
<!-- FitFunction&#45;&gt;PlotPeakByLogValue -->
<g id="edge10" class="edge">
<title>FitFunction&#45;&gt;PlotPeakByLogValue</title>
<path fill="none" stroke="#000000" d="M800.3761,-493.9735C807.8378,-481.7252 817.8338,-465.3165 826.2041,-451.5766"/>
<polygon fill="#000000" stroke="#000000" points="829.2133,-453.3644 831.4269,-443.0034 823.2352,-449.7225 829.2133,-453.3644"/>
</g>
<!-- FitType -->
<g id="node35" class="node">
<title>FitType</title>
<ellipse fill="#d3d3d3" stroke="#000000" cx="1481.3945" cy="-425" rx="40.0939" ry="18"/>
<text text-anchor="middle" x="1481.3945" y="-421.3" font-family="Helvetica,sans-Serif" font-size="14.00" fill="#000000">FitType</text>
</g>
<!-- FitType&#45;&gt;ParameterNames -->
<g id="edge25" class="edge">
<title>FitType&#45;&gt;ParameterNames</title>
<path fill="none" stroke="#000000" d="M1478.2224,-406.7093C1477.3161,-396.6037 1477.6327,-384.0914 1482.3945,-374 1484.3847,-369.7822 1487.1312,-365.8691 1490.2755,-362.297"/>
<polygon fill="#000000" stroke="#000000" points="1492.9819,-364.5442 1497.6549,-355.0355 1488.0722,-359.5547 1492.9819,-364.5442"/>
<text text-anchor="middle" x="1610.3945" y="-377.8" font-family="Helvetica,sans-Serif" font-size="14.00" fill="#000000">Desired parameters obtained from FitType</text>
</g>
<!-- ResultWorkspace&#45;&gt;CopyLogs -->
<g id="edge30" class="edge">
<title>ResultWorkspace&#45;&gt;CopyLogs</title>
<path fill="none" stroke="#000000" d="M1389.4108,-160.7589C1405.0614,-149.7439 1426.6235,-135.9071 1447.3945,-127 1477.2678,-114.1896 1512.7051,-105.1975 1540.7054,-99.404"/>
<polygon fill="#000000" stroke="#000000" points="1541.5412,-102.8063 1550.6607,-97.4132 1540.1685,-95.9422 1541.5412,-102.8063"/>
<text text-anchor="middle" x="1496.8945" y="-130.8" font-family="Helvetica,sans-Serif" font-size="14.00" fill="#000000">Input workspace</text>
</g>
<!-- FitWorkspace -->
<g id="node37" class="node">
<title>FitWorkspace</title>
<ellipse fill="#d3d3d3" stroke="#000000" cx="1659.3945" cy="-178" rx="64.9885" ry="18"/>
<text text-anchor="middle" x="1659.3945" y="-174.3" font-family="Helvetica,sans-Serif" font-size="14.00" fill="#000000">FitWorkspace</text>
</g>
<!-- FitWorkspace&#45;&gt;CopyLogs -->
<g id="edge33" class="edge">
<title>FitWorkspace&#45;&gt;CopyLogs</title>
<path fill="none" stroke="#000000" d="M1645.2289,-160.3943C1635.2103,-147.9425 1621.6108,-131.0403 1610.3418,-117.0346"/>
<polygon fill="#000000" stroke="#000000" points="1613.0165,-114.7756 1604.0208,-109.1785 1607.5627,-119.1637 1613.0165,-114.7756"/>
</g>
</g>
</svg>
