<?xml version="1.0" encoding="UTF-8" standalone="no"?>
<!DOCTYPE svg PUBLIC "-//W3C//DTD SVG 1.1//EN"
 "http://www.w3.org/Graphics/SVG/1.1/DTD/svg11.dtd">
<!-- Generated by graphviz version 2.40.1 (20161225.0304)
 -->
<!-- Title: ReflectometryReductionOne Pages: 1 -->
<svg width="623pt" height="621pt"
 viewBox="0.00 0.00 622.53 621.00" xmlns="http://www.w3.org/2000/svg" xmlns:xlink="http://www.w3.org/1999/xlink">
<g id="graph0" class="graph" transform="scale(1 1) rotate(0) translate(4 617)">
<title>ReflectometryReductionOne</title>
<polygon fill="#ffffff" stroke="transparent" points="-4,4 -4,-617 618.5323,-617 618.5323,4 -4,4"/>
<!-- inputWorkspace -->
<g id="node1" class="node">
<title>inputWorkspace</title>
<ellipse fill="#f0e68c" stroke="#000000" cx="132.6886" cy="-571" rx="128.8774" ry="18"/>
<text text-anchor="middle" x="132.6886" y="-567.3" font-family="Helvetica,sans-Serif" font-size="14.00" fill="#000000">OutputWorkspaceWavelength</text>
</g>
<!-- checkSumInQ -->
<g id="node6" class="node">
<title>checkSumInQ</title>
<polygon fill="#32cd32" stroke="#000000" points="132.6886,-516 57.4466,-498 132.6886,-480 207.9306,-498 132.6886,-516"/>
<text text-anchor="middle" x="132.6886" y="-494.3" font-family="Helvetica,sans-Serif" font-size="14.00" fill="#000000">Sum in Q?</text>
</g>
<!-- inputWorkspace&#45;&gt;checkSumInQ -->
<g id="edge1" class="edge">
<title>inputWorkspace&#45;&gt;checkSumInQ</title>
<path fill="none" stroke="#000000" d="M132.6886,-552.9551C132.6886,-544.8828 132.6886,-535.1764 132.6886,-526.1817"/>
<polygon fill="#000000" stroke="#000000" points="136.1887,-526.0903 132.6886,-516.0904 129.1887,-526.0904 136.1887,-526.0903"/>
</g>
<!-- outputWorkspaceWav -->
<g id="node2" class="node">
<title>outputWorkspaceWav</title>
<ellipse fill="#f0e68c" stroke="#000000" cx="128.6886" cy="-18" rx="128.8774" ry="18"/>
<text text-anchor="middle" x="128.6886" y="-14.3" font-family="Helvetica,sans-Serif" font-size="14.00" fill="#000000">OutputWorkspaceWavelength</text>
</g>
<!-- procCommands -->
<g id="node3" class="node">
<title>procCommands</title>
<ellipse fill="#f0e68c" stroke="#000000" cx="243.6886" cy="-411" rx="98.5829" ry="18"/>
<text text-anchor="middle" x="243.6886" y="-407.3" font-family="Helvetica,sans-Serif" font-size="14.00" fill="#000000">ProcessingInstructions</text>
</g>
<!-- projectCounts -->
<g id="node9" class="node">
<title>projectCounts</title>
<polygon fill="#20b2aa" stroke="#000000" points="329.1886,-342 158.1886,-342 158.1886,-306 329.1886,-306 329.1886,-342"/>
<text text-anchor="start" x="166.1886" y="-321.3" font-family="Helvetica,sans-Serif" font-size="14.00" fill="#000000">Project input counts to λ</text>
<text text-anchor="start" x="314.1886" y="-321.3" font-family="Helvetica,sans-Serif" baseline-shift="sub" font-size="14.00" fill="#000000">v</text>
</g>
<!-- procCommands&#45;&gt;projectCounts -->
<g id="edge6" class="edge">
<title>procCommands&#45;&gt;projectCounts</title>
<path fill="none" stroke="#000000" d="M243.6886,-392.9735C243.6886,-381.1918 243.6886,-365.5607 243.6886,-352.1581"/>
<polygon fill="#000000" stroke="#000000" points="247.1887,-352.0033 243.6886,-342.0034 240.1887,-352.0034 247.1887,-352.0033"/>
</g>
<!-- wavMin -->
<g id="node4" class="node">
<title>wavMin</title>
<ellipse fill="#f0e68c" stroke="#000000" cx="322.6886" cy="-237" rx="72.2875" ry="18"/>
<text text-anchor="middle" x="322.6886" y="-233.3" font-family="Helvetica,sans-Serif" font-size="14.00" fill="#000000">WavelengthMin</text>
</g>
<!-- projectMinMax -->
<g id="node11" class="node">
<title>projectMinMax</title>
<polygon fill="#20b2aa" stroke="#000000" points="406.6886,-182 238.6886,-182 238.6886,-146 406.6886,-146 406.6886,-182"/>
<text text-anchor="start" x="246.6886" y="-161.3" font-family="Helvetica,sans-Serif" font-size="14.00" fill="#000000">Convert crop range to λ</text>
<text text-anchor="start" x="391.6886" y="-161.3" font-family="Helvetica,sans-Serif" baseline-shift="sub" font-size="14.00" fill="#000000">v</text>
</g>
<!-- wavMin&#45;&gt;projectMinMax -->
<g id="edge8" class="edge">
<title>wavMin&#45;&gt;projectMinMax</title>
<path fill="none" stroke="#000000" d="M322.6886,-218.9551C322.6886,-210.8828 322.6886,-201.1764 322.6886,-192.1817"/>
<polygon fill="#000000" stroke="#000000" points="326.1887,-192.0903 322.6886,-182.0904 319.1887,-192.0904 326.1887,-192.0903"/>
</g>
<!-- wavMax -->
<g id="node5" class="node">
<title>wavMax</title>
<ellipse fill="#f0e68c" stroke="#000000" cx="487.6886" cy="-237" rx="74.9875" ry="18"/>
<text text-anchor="middle" x="487.6886" y="-233.3" font-family="Helvetica,sans-Serif" font-size="14.00" fill="#000000">WavelengthMax</text>
</g>
<!-- wavMax&#45;&gt;projectMinMax -->
<g id="edge9" class="edge">
<title>wavMax&#45;&gt;projectMinMax</title>
<path fill="none" stroke="#000000" d="M451.886,-221.1601C428.7565,-210.927 398.3254,-197.4636 372.8072,-186.1737"/>
<polygon fill="#000000" stroke="#000000" points="374.2117,-182.9679 363.6506,-182.1226 371.3795,-189.3694 374.2117,-182.9679"/>
</g>
<!-- checkSumInQ&#45;&gt;outputWorkspaceWav -->
<g id="edge2" class="edge">
<title>checkSumInQ&#45;&gt;outputWorkspaceWav</title>
<path fill="none" stroke="#000000" d="M127.7138,-481.1645C123.017,-463.7615 116.6886,-435.7255 116.6886,-411 116.6886,-411 116.6886,-411 116.6886,-91 116.6886,-76.1023 119.1521,-59.7182 121.8468,-46.2531"/>
<polygon fill="#000000" stroke="#000000" points="125.3356,-46.6765 124.0147,-36.1644 118.4918,-45.2058 125.3356,-46.6765"/>
<text text-anchor="middle" x="125.6886" y="-233.3" font-family="Helvetica,sans-Serif" font-size="14.00" fill="#000000">No</text>
</g>
<!-- checkSumDone -->
<g id="node7" class="node">
<title>checkSumDone</title>
<polygon fill="#32cd32" stroke="#000000" points="487.6886,-429 361.001,-411 487.6886,-393 614.3762,-411 487.6886,-429"/>
<text text-anchor="middle" x="487.6886" y="-407.3" font-family="Helvetica,sans-Serif" font-size="14.00" fill="#000000">Reduction required?</text>
</g>
<!-- checkSumInQ&#45;&gt;checkSumDone -->
<g id="edge3" class="edge">
<title>checkSumInQ&#45;&gt;checkSumDone</title>
<path fill="none" stroke="#000000" d="M170.0088,-488.8539C232.3213,-473.583 357.9147,-442.8037 431.1385,-424.8587"/>
<polygon fill="#000000" stroke="#000000" points="432.2316,-428.1945 441.1111,-422.4148 430.5654,-421.3957 432.2316,-428.1945"/>
<text text-anchor="middle" x="342.6886" y="-450.8" font-family="Helvetica,sans-Serif" font-size="14.00" fill="#000000">Yes</text>
</g>
<!-- checkSumDone&#45;&gt;projectCounts -->
<g id="edge4" class="edge">
<title>checkSumDone&#45;&gt;projectCounts</title>
<path fill="none" stroke="#000000" d="M451.4228,-398.0692C412.6296,-384.2372 350.4512,-362.067 304.2171,-345.5819"/>
<polygon fill="#000000" stroke="#000000" points="305.2021,-342.2173 294.6075,-342.1555 302.8512,-348.8108 305.2021,-342.2173"/>
<text text-anchor="middle" x="391.6886" y="-363.8" font-family="Helvetica,sans-Serif" font-size="14.00" fill="#000000">Yes</text>
</g>
<!-- checkSumDone&#45;&gt;projectMinMax -->
<g id="edge5" class="edge">
<title>checkSumDone&#45;&gt;projectMinMax</title>
<path fill="none" stroke="#000000" d="M504.7997,-395.3409C540.7392,-360.5819 617.1436,-275.591 571.6886,-219 552.2221,-194.7644 479.1834,-180.5677 417.2058,-172.6889"/>
<polygon fill="#000000" stroke="#000000" points="417.3211,-169.1768 406.9689,-171.4311 416.4674,-176.1246 417.3211,-169.1768"/>
<text text-anchor="middle" x="592.6886" y="-276.8" font-family="Helvetica,sans-Serif" font-size="14.00" fill="#000000">No</text>
</g>
<!-- cropWav -->
<g id="node8" class="node">
<title>cropWav</title>
<path fill="#87cefa" stroke="#000000" d="M306.6886,-109C306.6886,-109 216.6886,-109 216.6886,-109 210.6886,-109 204.6886,-103 204.6886,-97 204.6886,-97 204.6886,-85 204.6886,-85 204.6886,-79 210.6886,-73 216.6886,-73 216.6886,-73 306.6886,-73 306.6886,-73 312.6886,-73 318.6886,-79 318.6886,-85 318.6886,-85 318.6886,-97 318.6886,-97 318.6886,-103 312.6886,-109 306.6886,-109"/>
<text text-anchor="middle" x="261.6886" y="-87.3" font-family="Helvetica,sans-Serif" font-size="14.00" fill="#000000">CropWorkspace</text>
</g>
<!-- cropWav&#45;&gt;outputWorkspaceWav -->
<g id="edge12" class="edge">
<title>cropWav&#45;&gt;outputWorkspaceWav</title>
<path fill="none" stroke="#000000" d="M228.8122,-72.9551C210.9634,-63.1584 188.7291,-50.9546 169.75,-40.5374"/>
<polygon fill="#000000" stroke="#000000" points="171.1783,-37.3289 160.7279,-35.5855 167.8101,-43.4653 171.1783,-37.3289"/>
</g>
<!-- sumInQ -->
<g id="node10" class="node">
<title>sumInQ</title>
<polygon fill="#20b2aa" stroke="#000000" points="232.6886,-255 152.6886,-255 152.6886,-219 232.6886,-219 232.6886,-255"/>
<text text-anchor="start" x="160.6886" y="-234.3" font-family="Helvetica,sans-Serif" font-size="14.00" fill="#000000">Sum in λ</text>
<text text-anchor="start" x="217.6886" y="-234.3" font-family="Helvetica,sans-Serif" baseline-shift="sub" font-size="14.00" fill="#000000">v</text>
</g>
<!-- projectCounts&#45;&gt;sumInQ -->
<g id="edge7" class="edge">
<title>projectCounts&#45;&gt;sumInQ</title>
<path fill="none" stroke="#000000" d="M233.1213,-305.9735C226.0096,-293.8418 216.5054,-277.6287 208.4985,-263.9698"/>
<polygon fill="#000000" stroke="#000000" points="211.319,-261.8603 203.2423,-255.0034 205.2801,-265.4004 211.319,-261.8603"/>
</g>
<!-- sumInQ&#45;&gt;projectMinMax -->
<g id="edge10" class="edge">
<title>sumInQ&#45;&gt;projectMinMax</title>
<path fill="none" stroke="#000000" d="M224.8234,-218.9551C242.0111,-209.3035 263.3594,-197.3156 281.7268,-187.0016"/>
<polygon fill="#000000" stroke="#000000" points="283.4672,-190.0384 290.4729,-182.0904 280.0398,-183.9349 283.4672,-190.0384"/>
</g>
<!-- projectMinMax&#45;&gt;cropWav -->
<g id="edge11" class="edge">
<title>projectMinMax&#45;&gt;cropWav</title>
<path fill="none" stroke="#000000" d="M307.6099,-145.9551C300.2781,-137.1809 291.3329,-126.4759 283.2918,-116.853"/>
<polygon fill="#000000" stroke="#000000" points="285.9032,-114.5197 276.8052,-109.0904 280.5316,-119.0082 285.9032,-114.5197"/>
</g>
</g>
</svg>
