<?xml version="1.0" encoding="UTF-8" standalone="no"?>
<!DOCTYPE svg PUBLIC "-//W3C//DTD SVG 1.1//EN"
 "http://www.w3.org/Graphics/SVG/1.1/DTD/svg11.dtd">
<!-- Generated by graphviz version 2.40.1 (20161225.0304)
 -->
<!-- Title: ReflectometryILLPolarizationCor Pages: 1 -->
<svg width="382pt" height="553pt"
 viewBox="0.00 0.00 381.50 552.74" xmlns="http://www.w3.org/2000/svg" xmlns:xlink="http://www.w3.org/1999/xlink">
<g id="graph0" class="graph" transform="scale(1 1) rotate(0) translate(4 548.7401)">
<title>ReflectometryILLPolarizationCor</title>
<polygon fill="#ffffff" stroke="transparent" points="-4,4 -4,-548.7401 377.5,-548.7401 377.5,4 -4,4"/>
<text text-anchor="middle" x="186.75" y="-529.5401" font-family="Helvetica,sans-Serif" font-size="14.00" fill="#000000">ReflectometryILLPolarizationCor workflow diagram</text>
<!-- input -->
<g id="node1" class="node">
<title>input</title>
<ellipse fill="#f0e68c" stroke="#000000" cx="127" cy="-503.7401" rx="79.0865" ry="18"/>
<text text-anchor="middle" x="127" y="-500.0401" font-family="Helvetica,sans-Serif" font-size="14.00" fill="#000000">InputWorkspaces</text>
</g>
<!-- pick_reference -->
<g id="node7" class="node">
<title>pick_reference</title>
<path fill="#87cefa" stroke="#000000" d="M200.5,-448.7401C200.5,-448.7401 53.5,-448.7401 53.5,-448.7401 47.5,-448.7401 41.5,-442.7401 41.5,-436.7401 41.5,-436.7401 41.5,-424.7401 41.5,-424.7401 41.5,-418.7401 47.5,-412.7401 53.5,-412.7401 53.5,-412.7401 200.5,-412.7401 200.5,-412.7401 206.5,-412.7401 212.5,-418.7401 212.5,-424.7401 212.5,-424.7401 212.5,-436.7401 212.5,-436.7401 212.5,-442.7401 206.5,-448.7401 200.5,-448.7401"/>
<text text-anchor="middle" x="127" y="-427.0401" font-family="Helvetica,sans-Serif" font-size="14.00" fill="#000000">Pick reference workspace</text>
</g>
<!-- input&#45;&gt;pick_reference -->
<g id="edge1" class="edge">
<title>input&#45;&gt;pick_reference</title>
<path fill="none" stroke="#000000" d="M127,-485.6952C127,-477.623 127,-467.9165 127,-458.9219"/>
<polygon fill="#000000" stroke="#000000" points="130.5001,-458.8304 127,-448.8305 123.5001,-458.8305 130.5001,-458.8304"/>
</g>
<!-- output -->
<g id="node2" class="node">
<title>output</title>
<ellipse fill="#f0e68c" stroke="#000000" cx="164" cy="-18" rx="81.7856" ry="18"/>
<text text-anchor="middle" x="164" y="-14.3" font-family="Helvetica,sans-Serif" font-size="14.00" fill="#000000">OutputWorkspace</text>
</g>
<!-- reference -->
<g id="node3" class="node">
<title>reference</title>
<ellipse fill="#f0e68c" stroke="#000000" cx="59" cy="-348.8701" rx="57.0522" ry="26.7407"/>
<text text-anchor="middle" x="59" y="-352.6701" font-family="Helvetica,sans-Serif" font-size="14.00" fill="#000000">Reference</text>
<text text-anchor="middle" x="59" y="-337.6701" font-family="Helvetica,sans-Serif" font-size="14.00" fill="#000000">workspace</text>
</g>
<!-- correction -->
<g id="node6" class="node">
<title>correction</title>
<path fill="#87cefa" stroke="#000000" d="M235.5,-109C235.5,-109 92.5,-109 92.5,-109 86.5,-109 80.5,-103 80.5,-97 80.5,-97 80.5,-85 80.5,-85 80.5,-79 86.5,-73 92.5,-73 92.5,-73 235.5,-73 235.5,-73 241.5,-73 247.5,-79 247.5,-85 247.5,-85 247.5,-97 247.5,-97 247.5,-103 241.5,-109 235.5,-109"/>
<text text-anchor="middle" x="164" y="-87.3" font-family="Helvetica,sans-Serif" font-size="14.00" fill="#000000">PolarizationEfficiencyCor</text>
</g>
<!-- reference&#45;&gt;correction -->
<g id="edge5" class="edge">
<title>reference&#45;&gt;correction</title>
<path fill="none" stroke="#000000" d="M103.7877,-331.7742C123.7651,-323.1953 144.1272,-312.787 150,-304 187.7625,-247.4989 178.6081,-162.6487 170.3757,-119.0561"/>
<polygon fill="#000000" stroke="#000000" points="173.7873,-118.2676 168.3849,-109.1536 166.9246,-119.6473 173.7873,-118.2676"/>
<text text-anchor="middle" x="218" y="-205.8" font-family="Helvetica,sans-Serif" font-size="14.00" fill="#000000">No analyzer?</text>
</g>
<!-- match_binning -->
<g id="node8" class="node">
<title>match_binning</title>
<path fill="#87cefa" stroke="#000000" d="M124,-271C124,-271 12,-271 12,-271 6,-271 0,-265 0,-259 0,-259 0,-247 0,-247 0,-241 6,-235 12,-235 12,-235 124,-235 124,-235 130,-235 136,-241 136,-247 136,-247 136,-259 136,-259 136,-265 130,-271 124,-271"/>
<text text-anchor="middle" x="68" y="-249.3" font-family="Helvetica,sans-Serif" font-size="14.00" fill="#000000">RebinToWorkspace</text>
</g>
<!-- reference&#45;&gt;match_binning -->
<g id="edge4" class="edge">
<title>reference&#45;&gt;match_binning</title>
<path fill="none" stroke="#000000" d="M35.1408,-324.1388C27.7488,-313.4695 22.7618,-300.7616 28,-289 29.6214,-285.3594 31.813,-281.9326 34.3398,-278.7493"/>
<polygon fill="#000000" stroke="#000000" points="36.9576,-281.0735 41.1774,-271.3552 31.8183,-276.3209 36.9576,-281.0735"/>
<text text-anchor="middle" x="89" y="-292.8" font-family="Helvetica,sans-Serif" font-size="14.00" fill="#000000">WorkspaceToMatch</text>
</g>
<!-- workspaces -->
<g id="node4" class="node">
<title>workspaces</title>
<ellipse fill="#f0e68c" stroke="#000000" cx="197" cy="-348.8701" rx="62.4516" ry="26.7407"/>
<text text-anchor="middle" x="197" y="-352.6701" font-family="Helvetica,sans-Serif" font-size="14.00" fill="#000000">Rest of the</text>
<text text-anchor="middle" x="197" y="-337.6701" font-family="Helvetica,sans-Serif" font-size="14.00" fill="#000000">workspaces</text>
</g>
<!-- workspaces&#45;&gt;match_binning -->
<g id="edge6" class="edge">
<title>workspaces&#45;&gt;match_binning</title>
<path fill="none" stroke="#000000" d="M182.5233,-322.4287C175.1907,-310.9505 165.4151,-298.0845 154,-289 147.6775,-283.9684 140.5505,-279.5301 133.1731,-275.6452"/>
<polygon fill="#000000" stroke="#000000" points="134.2559,-272.278 123.7363,-271.0172 131.1736,-278.5629 134.2559,-272.278"/>
<text text-anchor="middle" x="229" y="-292.8" font-family="Helvetica,sans-Serif" font-size="14.00" fill="#000000">WorkspaceToRebin</text>
</g>
<!-- efficiencies -->
<g id="node5" class="node">
<title>efficiencies</title>
<ellipse fill="#f0e68c" stroke="#000000" cx="283" cy="-253" rx="62.2891" ry="18"/>
<text text-anchor="middle" x="283" y="-249.3" font-family="Helvetica,sans-Serif" font-size="14.00" fill="#000000">EfficiencyFile</text>
</g>
<!-- load_efficiencies -->
<g id="node10" class="node">
<title>load_efficiencies</title>
<path fill="#87cefa" stroke="#000000" d="M361.5,-183C361.5,-183 204.5,-183 204.5,-183 198.5,-183 192.5,-177 192.5,-171 192.5,-171 192.5,-159 192.5,-159 192.5,-153 198.5,-147 204.5,-147 204.5,-147 361.5,-147 361.5,-147 367.5,-147 373.5,-153 373.5,-159 373.5,-159 373.5,-171 373.5,-171 373.5,-177 367.5,-183 361.5,-183"/>
<text text-anchor="middle" x="283" y="-161.3" font-family="Helvetica,sans-Serif" font-size="14.00" fill="#000000">LoadILLPolarizationFactors</text>
</g>
<!-- efficiencies&#45;&gt;load_efficiencies -->
<g id="edge9" class="edge">
<title>efficiencies&#45;&gt;load_efficiencies</title>
<path fill="none" stroke="#000000" d="M283,-234.7663C283,-222.8492 283,-207.0384 283,-193.4817"/>
<polygon fill="#000000" stroke="#000000" points="286.5001,-193.2103 283,-183.2103 279.5001,-193.2103 286.5001,-193.2103"/>
</g>
<!-- correction&#45;&gt;output -->
<g id="edge11" class="edge">
<title>correction&#45;&gt;output</title>
<path fill="none" stroke="#000000" d="M164,-72.9551C164,-64.8828 164,-55.1764 164,-46.1817"/>
<polygon fill="#000000" stroke="#000000" points="167.5001,-46.0903 164,-36.0904 160.5001,-46.0904 167.5001,-46.0903"/>
</g>
<!-- pick_reference&#45;&gt;reference -->
<g id="edge2" class="edge">
<title>pick_reference&#45;&gt;reference</title>
<path fill="none" stroke="#000000" d="M111.9086,-412.5705C104.4254,-403.561 95.1505,-392.3942 86.4664,-381.9388"/>
<polygon fill="#000000" stroke="#000000" points="89.0621,-379.5861 79.9803,-374.1297 83.6773,-384.0587 89.0621,-379.5861"/>
</g>
<!-- pick_reference&#45;&gt;workspaces -->
<g id="edge3" class="edge">
<title>pick_reference&#45;&gt;workspaces</title>
<path fill="none" stroke="#000000" d="M142.5353,-412.5705C150.2385,-403.561 159.7863,-392.3942 168.7258,-381.9388"/>
<polygon fill="#000000" stroke="#000000" points="171.5642,-384.0048 175.4026,-374.1297 166.2438,-379.4558 171.5642,-384.0048"/>
</g>
<!-- determine_flippers -->
<g id="node9" class="node">
<title>determine_flippers</title>
<path fill="#87cefa" stroke="#000000" d="M122,-184C122,-184 26,-184 26,-184 20,-184 14,-178 14,-172 14,-172 14,-158 14,-158 14,-152 20,-146 26,-146 26,-146 122,-146 122,-146 128,-146 134,-152 134,-158 134,-158 134,-172 134,-172 134,-178 128,-184 122,-184"/>
<text text-anchor="middle" x="74" y="-168.8" font-family="Helvetica,sans-Serif" font-size="14.00" fill="#000000">Determine flipper</text>
<text text-anchor="middle" x="74" y="-153.8" font-family="Helvetica,sans-Serif" font-size="14.00" fill="#000000">settings</text>
</g>
<!-- match_binning&#45;&gt;determine_flippers -->
<g id="edge7" class="edge">
<title>match_binning&#45;&gt;determine_flippers</title>
<path fill="none" stroke="#000000" d="M69.2432,-234.7663C70.0395,-223.0875 71.0907,-207.6692 72.0024,-194.2978"/>
<polygon fill="#000000" stroke="#000000" points="75.5077,-194.3385 72.6961,-184.1235 68.5239,-193.8622 75.5077,-194.3385"/>
</g>
<!-- determine_flippers&#45;&gt;correction -->
<g id="edge8" class="edge">
<title>determine_flippers&#45;&gt;correction</title>
<path fill="none" stroke="#000000" d="M97.1772,-145.9432C108.349,-136.7575 121.8884,-125.6251 133.8509,-115.7893"/>
<polygon fill="#000000" stroke="#000000" points="136.3308,-118.2814 141.8322,-109.2269 131.885,-112.8745 136.3308,-118.2814"/>
</g>
<!-- load_efficiencies&#45;&gt;correction -->
<g id="edge10" class="edge">
<title>load_efficiencies&#45;&gt;correction</title>
<path fill="none" stroke="#000000" d="M253.8893,-146.8976C238.186,-137.1325 218.6223,-124.9668 201.7597,-114.4808"/>
<polygon fill="#000000" stroke="#000000" points="203.5629,-111.4806 193.2226,-109.172 199.8663,-117.425 203.5629,-111.4806"/>
</g>
</g>
</svg>
