<?xml version="1.0" encoding="UTF-8" standalone="no"?>
<!DOCTYPE svg PUBLIC "-//W3C//DTD SVG 1.1//EN"
 "http://www.w3.org/Graphics/SVG/1.1/DTD/svg11.dtd">
<!-- Generated by graphviz version 2.40.1 (20161225.0304)
 -->
<!-- Title: ReflectometryILLPreprocess Pages: 1 -->
<svg width="623pt" height="592pt"
 viewBox="0.00 0.00 623.24 592.00" xmlns="http://www.w3.org/2000/svg" xmlns:xlink="http://www.w3.org/1999/xlink">
<g id="graph0" class="graph" transform="scale(1 1) rotate(0) translate(4 588)">
<title>ReflectometryILLPreprocess</title>
<polygon fill="#ffffff" stroke="transparent" points="-4,4 -4,-588 619.2411,-588 619.2411,4 -4,4"/>
<text text-anchor="middle" x="307.6205" y="-568.8" font-family="Helvetica,sans-Serif" font-size="14.00" fill="#000000">High level diagram demonstrating the processing steps for each angle configuration.</text>
<!-- directRun -->
<g id="node1" class="node">
<title>directRun</title>
<ellipse fill="#f0e68c" stroke="#000000" cx="313.7411" cy="-543" rx="50.0912" ry="18"/>
<text text-anchor="middle" x="313.7411" y="-539.3" font-family="Helvetica,sans-Serif" font-size="14.00" fill="#000000">DirectRun</text>
</g>
<!-- preProcessDirect -->
<g id="node7" class="node">
<title>preProcessDirect</title>
<path fill="#87cefa" stroke="#000000" d="M396.2411,-488C396.2411,-488 231.2411,-488 231.2411,-488 225.2411,-488 219.2411,-482 219.2411,-476 219.2411,-476 219.2411,-464 219.2411,-464 219.2411,-458 225.2411,-452 231.2411,-452 231.2411,-452 396.2411,-452 396.2411,-452 402.2411,-452 408.2411,-458 408.2411,-464 408.2411,-464 408.2411,-476 408.2411,-476 408.2411,-482 402.2411,-488 396.2411,-488"/>
<text text-anchor="middle" x="313.7411" y="-466.3" font-family="Helvetica,sans-Serif" font-size="14.00" fill="#000000">ReflectometryILLPreProcess</text>
</g>
<!-- directRun&#45;&gt;preProcessDirect -->
<g id="edge1" class="edge">
<title>directRun&#45;&gt;preProcessDirect</title>
<path fill="none" stroke="#000000" d="M313.7411,-524.9551C313.7411,-516.8828 313.7411,-507.1764 313.7411,-498.1817"/>
<polygon fill="#000000" stroke="#000000" points="317.2412,-498.0903 313.7411,-488.0904 310.2412,-498.0904 317.2412,-498.0903"/>
</g>
<!-- reflectedRun -->
<g id="node2" class="node">
<title>reflectedRun</title>
<ellipse fill="#f0e68c" stroke="#000000" cx="520.7411" cy="-543" rx="63.8893" ry="18"/>
<text text-anchor="middle" x="520.7411" y="-539.3" font-family="Helvetica,sans-Serif" font-size="14.00" fill="#000000">ReflectedRun</text>
</g>
<!-- preProcessReflected -->
<g id="node8" class="node">
<title>preProcessReflected</title>
<path fill="#87cefa" stroke="#000000" d="M603.2411,-488C603.2411,-488 438.2411,-488 438.2411,-488 432.2411,-488 426.2411,-482 426.2411,-476 426.2411,-476 426.2411,-464 426.2411,-464 426.2411,-458 432.2411,-452 438.2411,-452 438.2411,-452 603.2411,-452 603.2411,-452 609.2411,-452 615.2411,-458 615.2411,-464 615.2411,-464 615.2411,-476 615.2411,-476 615.2411,-482 609.2411,-488 603.2411,-488"/>
<text text-anchor="middle" x="520.7411" y="-466.3" font-family="Helvetica,sans-Serif" font-size="14.00" fill="#000000">ReflectometryILLPreProcess</text>
</g>
<!-- reflectedRun&#45;&gt;preProcessReflected -->
<g id="edge2" class="edge">
<title>reflectedRun&#45;&gt;preProcessReflected</title>
<path fill="none" stroke="#000000" d="M520.7411,-524.9551C520.7411,-516.8828 520.7411,-507.1764 520.7411,-498.1817"/>
<polygon fill="#000000" stroke="#000000" points="524.2412,-498.0903 520.7411,-488.0904 517.2412,-498.0904 524.2412,-498.0903"/>
</g>
<!-- method -->
<g id="node3" class="node">
<title>method</title>
<ellipse fill="#f0e68c" stroke="#000000" cx="100.7411" cy="-470" rx="100.9827" ry="18"/>
<text text-anchor="middle" x="100.7411" y="-466.3" font-family="Helvetica,sans-Serif" font-size="14.00" fill="#000000">Coherent or Incoherent</text>
</g>
<!-- sumForeground -->
<g id="node9" class="node">
<title>sumForeground</title>
<path fill="#87cefa" stroke="#000000" d="M410.7411,-415C410.7411,-415 216.7411,-415 216.7411,-415 210.7411,-415 204.7411,-409 204.7411,-403 204.7411,-403 204.7411,-391 204.7411,-391 204.7411,-385 210.7411,-379 216.7411,-379 216.7411,-379 410.7411,-379 410.7411,-379 416.7411,-379 422.7411,-385 422.7411,-391 422.7411,-391 422.7411,-403 422.7411,-403 422.7411,-409 416.7411,-415 410.7411,-415"/>
<text text-anchor="middle" x="313.7411" y="-393.3" font-family="Helvetica,sans-Serif" font-size="14.00" fill="#000000">ReflectometryILLSumForeground</text>
</g>
<!-- method&#45;&gt;sumForeground -->
<g id="edge5" class="edge">
<title>method&#45;&gt;sumForeground</title>
<path fill="none" stroke="#000000" d="M147.4848,-453.9798C178.0245,-443.5132 218.257,-429.7246 251.4947,-418.3333"/>
<polygon fill="#000000" stroke="#000000" points="252.792,-421.5886 261.1171,-415.0354 250.5225,-414.9667 252.792,-421.5886"/>
</g>
<!-- output -->
<g id="node4" class="node">
<title>output</title>
<ellipse fill="#f0e68c" stroke="#000000" cx="242.7411" cy="-18" rx="81.7856" ry="18"/>
<text text-anchor="middle" x="242.7411" y="-14.3" font-family="Helvetica,sans-Serif" font-size="14.00" fill="#000000">OutputWorkspace</text>
</g>
<!-- reflectivity -->
<g id="node5" class="node">
<title>reflectivity</title>
<ellipse fill="#f0e68c" stroke="#000000" cx="313.7411" cy="-324" rx="53.0913" ry="18"/>
<text text-anchor="middle" x="313.7411" y="-320.3" font-family="Helvetica,sans-Serif" font-size="14.00" fill="#000000">Reflectivity</text>
</g>
<!-- polarized -->
<g id="node12" class="node">
<title>polarized</title>
<polygon fill="#32cd32" stroke="#000000" points="313.7411,-269 240.1759,-251 313.7411,-233 387.3062,-251 313.7411,-269"/>
<text text-anchor="middle" x="313.7411" y="-247.3" font-family="Helvetica,sans-Serif" font-size="14.00" fill="#000000">Polarized?</text>
</g>
<!-- reflectivity&#45;&gt;polarized -->
<g id="edge7" class="edge">
<title>reflectivity&#45;&gt;polarized</title>
<path fill="none" stroke="#000000" d="M313.7411,-305.9551C313.7411,-297.8828 313.7411,-288.1764 313.7411,-279.1817"/>
<polygon fill="#000000" stroke="#000000" points="317.2412,-279.0903 313.7411,-269.0904 310.2412,-279.0904 317.2412,-279.0903"/>
</g>
<!-- polEfficiency -->
<g id="node6" class="node">
<title>polEfficiency</title>
<ellipse fill="#f0e68c" stroke="#000000" cx="127.7411" cy="-251" rx="94.4839" ry="18"/>
<text text-anchor="middle" x="127.7411" y="-247.3" font-family="Helvetica,sans-Serif" font-size="14.00" fill="#000000">PolarizationEfficiency</text>
</g>
<!-- polarization -->
<g id="node11" class="node">
<title>polarization</title>
<path fill="#87cefa" stroke="#000000" d="M265.7411,-182C265.7411,-182 77.7411,-182 77.7411,-182 71.7411,-182 65.7411,-176 65.7411,-170 65.7411,-170 65.7411,-158 65.7411,-158 65.7411,-152 71.7411,-146 77.7411,-146 77.7411,-146 265.7411,-146 265.7411,-146 271.7411,-146 277.7411,-152 277.7411,-158 277.7411,-158 277.7411,-170 277.7411,-170 277.7411,-176 271.7411,-182 265.7411,-182"/>
<text text-anchor="middle" x="171.7411" y="-160.3" font-family="Helvetica,sans-Serif" font-size="14.00" fill="#000000">ReflectometryILLPolarizationCor</text>
</g>
<!-- polEfficiency&#45;&gt;polarization -->
<g id="edge11" class="edge">
<title>polEfficiency&#45;&gt;polarization</title>
<path fill="none" stroke="#000000" d="M136.8579,-232.9735C142.9935,-220.8418 151.1932,-204.6287 158.1011,-190.9698"/>
<polygon fill="#000000" stroke="#000000" points="161.246,-192.5066 162.6359,-182.0034 154.9995,-189.3474 161.246,-192.5066"/>
</g>
<!-- preProcessDirect&#45;&gt;sumForeground -->
<g id="edge3" class="edge">
<title>preProcessDirect&#45;&gt;sumForeground</title>
<path fill="none" stroke="#000000" d="M313.7411,-451.9551C313.7411,-443.8828 313.7411,-434.1764 313.7411,-425.1817"/>
<polygon fill="#000000" stroke="#000000" points="317.2412,-425.0903 313.7411,-415.0904 310.2412,-425.0904 317.2412,-425.0903"/>
</g>
<!-- preProcessReflected&#45;&gt;sumForeground -->
<g id="edge4" class="edge">
<title>preProcessReflected&#45;&gt;sumForeground</title>
<path fill="none" stroke="#000000" d="M469.5725,-451.9551C440.836,-441.8209 404.7956,-429.111 374.6148,-418.4675"/>
<polygon fill="#000000" stroke="#000000" points="375.6332,-415.1155 365.0384,-415.0904 373.3051,-421.717 375.6332,-415.1155"/>
</g>
<!-- sumForeground&#45;&gt;reflectivity -->
<g id="edge6" class="edge">
<title>sumForeground&#45;&gt;reflectivity</title>
<path fill="none" stroke="#000000" d="M313.7411,-378.9551C313.7411,-370.8828 313.7411,-361.1764 313.7411,-352.1817"/>
<polygon fill="#000000" stroke="#000000" points="317.2412,-352.0903 313.7411,-342.0904 310.2412,-352.0904 317.2412,-352.0903"/>
</g>
<!-- convertToQ -->
<g id="node10" class="node">
<title>convertToQ</title>
<path fill="#87cefa" stroke="#000000" d="M327.7411,-109C327.7411,-109 157.7411,-109 157.7411,-109 151.7411,-109 145.7411,-103 145.7411,-97 145.7411,-97 145.7411,-85 145.7411,-85 145.7411,-79 151.7411,-73 157.7411,-73 157.7411,-73 327.7411,-73 327.7411,-73 333.7411,-73 339.7411,-79 339.7411,-85 339.7411,-85 339.7411,-97 339.7411,-97 339.7411,-103 333.7411,-109 327.7411,-109"/>
<text text-anchor="middle" x="242.7411" y="-87.3" font-family="Helvetica,sans-Serif" font-size="14.00" fill="#000000">ReflectometryILLConvertToQ</text>
</g>
<!-- convertToQ&#45;&gt;output -->
<g id="edge12" class="edge">
<title>convertToQ&#45;&gt;output</title>
<path fill="none" stroke="#000000" d="M242.7411,-72.9551C242.7411,-64.8828 242.7411,-55.1764 242.7411,-46.1817"/>
<polygon fill="#000000" stroke="#000000" points="246.2412,-46.0903 242.7411,-36.0904 239.2412,-46.0904 246.2412,-46.0903"/>
</g>
<!-- polarization&#45;&gt;convertToQ -->
<g id="edge10" class="edge">
<title>polarization&#45;&gt;convertToQ</title>
<path fill="none" stroke="#000000" d="M189.2916,-145.9551C197.9961,-137.0054 208.6543,-126.047 218.1566,-116.2769"/>
<polygon fill="#000000" stroke="#000000" points="220.6831,-118.6992 225.1463,-109.0904 215.6651,-113.8187 220.6831,-118.6992"/>
</g>
<!-- polarized&#45;&gt;convertToQ -->
<g id="edge9" class="edge">
<title>polarized&#45;&gt;convertToQ</title>
<path fill="none" stroke="#000000" d="M311.5444,-233.4831C308.3382,-211.9703 301.1226,-174.7942 286.7411,-146 281.6895,-135.886 274.5479,-125.9038 267.4848,-117.2774"/>
<polygon fill="#000000" stroke="#000000" points="269.9645,-114.7916 260.8077,-109.4621 264.6423,-119.3386 269.9645,-114.7916"/>
<text text-anchor="middle" x="309.7411" y="-160.3" font-family="Helvetica,sans-Serif" font-size="14.00" fill="#000000">No</text>
</g>
<!-- polarized&#45;&gt;polarization -->
<g id="edge8" class="edge">
<title>polarized&#45;&gt;polarization</title>
<path fill="none" stroke="#000000" d="M292.4822,-237.9752C270.725,-224.6451 236.4443,-203.6422 209.9603,-187.416"/>
<polygon fill="#000000" stroke="#000000" points="211.6624,-184.3542 201.3071,-182.1144 208.0055,-190.3231 211.6624,-184.3542"/>
<text text-anchor="middle" x="263.7411" y="-203.8" font-family="Helvetica,sans-Serif" font-size="14.00" fill="#000000">Yes</text>
</g>
</g>
</svg>
