<?xml version="1.0" encoding="UTF-8" standalone="no"?>
<!DOCTYPE svg PUBLIC "-//W3C//DTD SVG 1.1//EN"
 "http://www.w3.org/Graphics/SVG/1.1/DTD/svg11.dtd">
<!-- Generated by graphviz version 2.40.1 (20161225.0304)
 -->
<!-- Title: ApplyPaalmanPingsCorrection_CanScaleOnly Pages: 1 -->
<svg width="403pt" height="300pt"
 viewBox="0.00 0.00 403.00 300.00" xmlns="http://www.w3.org/2000/svg" xmlns:xlink="http://www.w3.org/1999/xlink">
<g id="graph0" class="graph" transform="scale(1 1) rotate(0) translate(4 296)">
<title>ApplyPaalmanPingsCorrection_CanScaleOnly</title>
<polygon fill="#ffffff" stroke="transparent" points="-4,4 -4,-296 399,-296 399,4 -4,4"/>
<text text-anchor="middle" x="197.5" y="-276.8" font-family="Helvetica,sans-Serif" font-size="14.00" fill="#000000">ApplyPaalmanPingsCorrection Container Scale Only Flowchart</text>
<!-- SampleWorkspace -->
<g id="node1" class="node">
<title>SampleWorkspace</title>
<ellipse fill="#f0e68c" stroke="#000000" cx="97.3495" cy="-178" rx="85.2851" ry="18"/>
<text text-anchor="middle" x="97.3495" y="-174.3" font-family="Helvetica,sans-Serif" font-size="14.00" fill="#000000">SampleWorkspace</text>
</g>
<!-- Minus -->
<g id="node6" class="node">
<title>Minus</title>
<path fill="#87cefa" stroke="#000000" d="M171.3495,-109C171.3495,-109 141.3495,-109 141.3495,-109 135.3495,-109 129.3495,-103 129.3495,-97 129.3495,-97 129.3495,-85 129.3495,-85 129.3495,-79 135.3495,-73 141.3495,-73 141.3495,-73 171.3495,-73 171.3495,-73 177.3495,-73 183.3495,-79 183.3495,-85 183.3495,-85 183.3495,-97 183.3495,-97 183.3495,-103 177.3495,-109 171.3495,-109"/>
<text text-anchor="middle" x="156.3495" y="-87.3" font-family="Helvetica,sans-Serif" font-size="14.00" fill="#000000">Minus</text>
</g>
<!-- SampleWorkspace&#45;&gt;Minus -->
<g id="edge4" class="edge">
<title>SampleWorkspace&#45;&gt;Minus</title>
<path fill="none" stroke="#000000" d="M96.3589,-159.8107C96.6121,-149.4976 98.3621,-136.7476 104.3495,-127 108.5115,-120.2242 114.4803,-114.4009 120.9005,-109.5336"/>
<polygon fill="#000000" stroke="#000000" points="122.8914,-112.4123 129.1722,-103.8798 118.9414,-106.6333 122.8914,-112.4123"/>
<text text-anchor="middle" x="151.8495" y="-130.8" font-family="Helvetica,sans-Serif" font-size="14.00" fill="#000000">LHSWorkspace</text>
</g>
<!-- CanWorkspace -->
<g id="node2" class="node">
<title>CanWorkspace</title>
<ellipse fill="#f0e68c" stroke="#000000" cx="146.3495" cy="-251" rx="71.4873" ry="18"/>
<text text-anchor="middle" x="146.3495" y="-247.3" font-family="Helvetica,sans-Serif" font-size="14.00" fill="#000000">CanWorkspace</text>
</g>
<!-- Scale -->
<g id="node5" class="node">
<title>Scale</title>
<path fill="#87cefa" stroke="#000000" d="M242.3495,-196C242.3495,-196 212.3495,-196 212.3495,-196 206.3495,-196 200.3495,-190 200.3495,-184 200.3495,-184 200.3495,-172 200.3495,-172 200.3495,-166 206.3495,-160 212.3495,-160 212.3495,-160 242.3495,-160 242.3495,-160 248.3495,-160 254.3495,-166 254.3495,-172 254.3495,-172 254.3495,-184 254.3495,-184 254.3495,-190 248.3495,-196 242.3495,-196"/>
<text text-anchor="middle" x="227.3495" y="-174.3" font-family="Helvetica,sans-Serif" font-size="14.00" fill="#000000">Scale</text>
</g>
<!-- CanWorkspace&#45;&gt;Scale -->
<g id="edge1" class="edge">
<title>CanWorkspace&#45;&gt;Scale</title>
<path fill="none" stroke="#000000" d="M165.9573,-233.3287C176.1525,-224.1405 188.7801,-212.7601 199.927,-202.7141"/>
<polygon fill="#000000" stroke="#000000" points="202.2742,-205.3104 207.3595,-196.0157 197.5879,-200.1105 202.2742,-205.3104"/>
</g>
<!-- CanScaleFactor -->
<g id="node3" class="node">
<title>CanScaleFactor</title>
<ellipse fill="#f0e68c" stroke="#000000" cx="309.3495" cy="-251" rx="73.387" ry="18"/>
<text text-anchor="middle" x="309.3495" y="-247.3" font-family="Helvetica,sans-Serif" font-size="14.00" fill="#000000">CanScaleFactor</text>
</g>
<!-- CanScaleFactor&#45;&gt;Scale -->
<g id="edge2" class="edge">
<title>CanScaleFactor&#45;&gt;Scale</title>
<path fill="none" stroke="#000000" d="M289.4996,-233.3287C279.1785,-224.1405 266.395,-212.7601 255.1105,-202.7141"/>
<polygon fill="#000000" stroke="#000000" points="257.3826,-200.0508 247.5863,-196.0157 252.7281,-205.2792 257.3826,-200.0508"/>
</g>
<!-- OutputWorkspace -->
<g id="node4" class="node">
<title>OutputWorkspace</title>
<ellipse fill="#f0e68c" stroke="#000000" cx="156.3495" cy="-18" rx="81.7856" ry="18"/>
<text text-anchor="middle" x="156.3495" y="-14.3" font-family="Helvetica,sans-Serif" font-size="14.00" fill="#000000">OutputWorkspace</text>
</g>
<!-- Scale&#45;&gt;Minus -->
<g id="edge3" class="edge">
<title>Scale&#45;&gt;Minus</title>
<path fill="none" stroke="#000000" d="M219.5064,-159.9914C214.5587,-149.7385 207.5587,-136.9885 199.3495,-127 196.2663,-123.2485 192.7523,-119.5924 189.0924,-116.1368"/>
<polygon fill="#000000" stroke="#000000" points="191.2661,-113.3861 181.4664,-109.3591 186.616,-118.6184 191.2661,-113.3861"/>
<text text-anchor="middle" x="258.8495" y="-130.8" font-family="Helvetica,sans-Serif" font-size="14.00" fill="#000000">RHSWorkspace</text>
</g>
<!-- Minus&#45;&gt;OutputWorkspace -->
<g id="edge5" class="edge">
<title>Minus&#45;&gt;OutputWorkspace</title>
<path fill="none" stroke="#000000" d="M156.3495,-72.9551C156.3495,-64.8828 156.3495,-55.1764 156.3495,-46.1817"/>
<polygon fill="#000000" stroke="#000000" points="159.8496,-46.0903 156.3495,-36.0904 152.8496,-46.0904 159.8496,-46.0903"/>
</g>
</g>
</svg>
