<?xml version="1.0" encoding="UTF-8" standalone="no"?>
<!DOCTYPE svg PUBLIC "-//W3C//DTD SVG 1.1//EN"
 "http://www.w3.org/Graphics/SVG/1.1/DTD/svg11.dtd">
<!-- Generated by graphviz version 2.40.1 (20161225.0304)
 -->
<!-- Title: CreateTransmissionWorkspace Pages: 1 -->
<svg width="758pt" height="425pt"
 viewBox="0.00 0.00 757.62 425.00" xmlns="http://www.w3.org/2000/svg" xmlns:xlink="http://www.w3.org/1999/xlink">
<g id="graph0" class="graph" transform="scale(1 1) rotate(0) translate(4 421)">
<title>CreateTransmissionWorkspace</title>
<polygon fill="#ffffff" stroke="transparent" points="-4,4 -4,-421 753.6165,-421 753.6165,4 -4,4"/>
<!-- firstRun -->
<g id="node1" class="node">
<title>firstRun</title>
<ellipse fill="#f0e68c" stroke="#000000" cx="161.7717" cy="-399" rx="96.6831" ry="18"/>
<text text-anchor="middle" x="161.7717" y="-395.3" font-family="Helvetica,sans-Serif" font-size="14.00" fill="#000000">FirstTransmissionRun</text>
</g>
<!-- convertFirst -->
<g id="node9" class="node">
<title>convertFirst</title>
<polygon fill="#20b2aa" stroke="#000000" points="221.2717,-344 102.2717,-344 102.2717,-306 221.2717,-306 221.2717,-344"/>
<text text-anchor="middle" x="161.7717" y="-328.8" font-family="Helvetica,sans-Serif" font-size="14.00" fill="#000000">Convert to 位 and</text>
<text text-anchor="middle" x="161.7717" y="-313.8" font-family="Helvetica,sans-Serif" font-size="14.00" fill="#000000">normalize</text>
</g>
<!-- firstRun&#45;&gt;convertFirst -->
<g id="edge1" class="edge">
<title>firstRun&#45;&gt;convertFirst</title>
<path fill="none" stroke="#000000" d="M161.7717,-380.7079C161.7717,-372.7096 161.7717,-363.1287 161.7717,-354.1859"/>
<polygon fill="#000000" stroke="#000000" points="165.2718,-354.1139 161.7717,-344.114 158.2718,-354.114 165.2718,-354.1139"/>
</g>
<!-- secondRun -->
<g id="node2" class="node">
<title>secondRun</title>
<ellipse fill="#f0e68c" stroke="#000000" cx="385.7717" cy="-399" rx="109.381" ry="18"/>
<text text-anchor="middle" x="385.7717" y="-395.3" font-family="Helvetica,sans-Serif" font-size="14.00" fill="#000000">SecondTransmissionRun</text>
</g>
<!-- convertSecond -->
<g id="node10" class="node">
<title>convertSecond</title>
<polygon fill="#20b2aa" stroke="#000000" points="445.2717,-344 326.2717,-344 326.2717,-306 445.2717,-306 445.2717,-344"/>
<text text-anchor="middle" x="385.7717" y="-328.8" font-family="Helvetica,sans-Serif" font-size="14.00" fill="#000000">Convert to 位 and</text>
<text text-anchor="middle" x="385.7717" y="-313.8" font-family="Helvetica,sans-Serif" font-size="14.00" fill="#000000">normalize</text>
</g>
<!-- secondRun&#45;&gt;convertSecond -->
<g id="edge6" class="edge">
<title>secondRun&#45;&gt;convertSecond</title>
<path fill="none" stroke="#000000" d="M385.7717,-380.7079C385.7717,-372.7096 385.7717,-363.1287 385.7717,-354.1859"/>
<polygon fill="#000000" stroke="#000000" points="389.2718,-354.1139 385.7717,-344.114 382.2718,-354.114 389.2718,-354.1139"/>
</g>
<!-- outputWS -->
<g id="node3" class="node">
<title>outputWS</title>
<ellipse fill="#f0e68c" stroke="#000000" cx="196.7717" cy="-18" rx="81.7856" ry="18"/>
<text text-anchor="middle" x="196.7717" y="-14.3" font-family="Helvetica,sans-Serif" font-size="14.00" fill="#000000">OutputWorkspace</text>
</g>
<!-- params -->
<g id="node4" class="node">
<title>params</title>
<ellipse fill="#f0e68c" stroke="#000000" cx="435.7717" cy="-178" rx="41.6928" ry="18"/>
<text text-anchor="middle" x="435.7717" y="-174.3" font-family="Helvetica,sans-Serif" font-size="14.00" fill="#000000">Params</text>
</g>
<!-- stitch -->
<g id="node8" class="node">
<title>stitch</title>
<path fill="#87cefa" stroke="#000000" d="M411.7717,-109C411.7717,-109 367.7717,-109 367.7717,-109 361.7717,-109 355.7717,-103 355.7717,-97 355.7717,-97 355.7717,-85 355.7717,-85 355.7717,-79 361.7717,-73 367.7717,-73 367.7717,-73 411.7717,-73 411.7717,-73 417.7717,-73 423.7717,-79 423.7717,-85 423.7717,-85 423.7717,-97 423.7717,-97 423.7717,-103 417.7717,-109 411.7717,-109"/>
<text text-anchor="middle" x="389.7717" y="-87.3" font-family="Helvetica,sans-Serif" font-size="14.00" fill="#000000">Stitch1D</text>
</g>
<!-- params&#45;&gt;stitch -->
<g id="edge13" class="edge">
<title>params&#45;&gt;stitch</title>
<path fill="none" stroke="#000000" d="M426.4629,-160.3943C420.0638,-148.2917 411.4417,-131.9846 404.1635,-118.2193"/>
<polygon fill="#000000" stroke="#000000" points="407.1517,-116.3828 399.3833,-109.1785 400.9634,-119.6548 407.1517,-116.3828"/>
</g>
<!-- startOv -->
<g id="node5" class="node">
<title>startOv</title>
<ellipse fill="#f0e68c" stroke="#000000" cx="555.7717" cy="-178" rx="60.3893" ry="18"/>
<text text-anchor="middle" x="555.7717" y="-174.3" font-family="Helvetica,sans-Serif" font-size="14.00" fill="#000000">StartOverlap</text>
</g>
<!-- startOv&#45;&gt;stitch -->
<g id="edge10" class="edge">
<title>startOv&#45;&gt;stitch</title>
<path fill="none" stroke="#000000" d="M525.7103,-162.245C499.8281,-148.6802 462.1587,-128.9378 433.0338,-113.6735"/>
<polygon fill="#000000" stroke="#000000" points="434.3857,-110.4305 423.9037,-108.8885 431.1362,-116.6306 434.3857,-110.4305"/>
</g>
<!-- endOv -->
<g id="node6" class="node">
<title>endOv</title>
<ellipse fill="#f0e68c" stroke="#000000" cx="691.7717" cy="-178" rx="57.6901" ry="18"/>
<text text-anchor="middle" x="691.7717" y="-174.3" font-family="Helvetica,sans-Serif" font-size="14.00" fill="#000000">EndOverlap</text>
</g>
<!-- endOv&#45;&gt;stitch -->
<g id="edge11" class="edge">
<title>endOv&#45;&gt;stitch</title>
<path fill="none" stroke="#000000" d="M649.143,-165.7195C592.085,-149.2823 491.3941,-120.2753 433.6882,-103.6515"/>
<polygon fill="#000000" stroke="#000000" points="434.3557,-100.2015 423.7776,-100.7964 432.4179,-106.9279 434.3557,-100.2015"/>
</g>
<!-- checkSecondRun -->
<g id="node7" class="node">
<title>checkSecondRun</title>
<polygon fill="#32cd32" stroke="#000000" points="161.7717,-196 .228,-178 161.7717,-160 323.3154,-178 161.7717,-196"/>
<text text-anchor="middle" x="161.7717" y="-174.3" font-family="Helvetica,sans-Serif" font-size="14.00" fill="#000000">SecondTransmissionRun?</text>
</g>
<!-- checkSecondRun&#45;&gt;outputWS -->
<g id="edge4" class="edge">
<title>checkSecondRun&#45;&gt;outputWS</title>
<path fill="none" stroke="#000000" d="M165.651,-160.2659C171.6896,-132.6609 183.3908,-79.17 190.5981,-46.222"/>
<polygon fill="#000000" stroke="#000000" points="194.0495,-46.8223 192.7674,-36.3053 187.2112,-45.3263 194.0495,-46.8223"/>
<text text-anchor="middle" x="193.7717" y="-87.3" font-family="Helvetica,sans-Serif" font-size="14.00" fill="#000000">No</text>
</g>
<!-- checkSecondRun&#45;&gt;stitch -->
<g id="edge5" class="edge">
<title>checkSecondRun&#45;&gt;stitch</title>
<path fill="none" stroke="#000000" d="M198.4038,-164.0219C238.5771,-148.6927 303.0207,-124.1023 345.8697,-107.7521"/>
<polygon fill="#000000" stroke="#000000" points="347.373,-110.9247 355.4681,-104.0895 344.8774,-104.3846 347.373,-110.9247"/>
<text text-anchor="middle" x="301.7717" y="-130.8" font-family="Helvetica,sans-Serif" font-size="14.00" fill="#000000">Yes</text>
</g>
<!-- stitch&#45;&gt;outputWS -->
<g id="edge12" class="edge">
<title>stitch&#45;&gt;outputWS</title>
<path fill="none" stroke="#000000" d="M355.7114,-78.1171C325.868,-66.8292 282.062,-50.2601 247.9928,-37.3738"/>
<polygon fill="#000000" stroke="#000000" points="248.8027,-33.9382 238.2111,-33.674 246.3262,-40.4855 248.8027,-33.9382"/>
</g>
<!-- valFirst -->
<g id="node11" class="node">
<title>valFirst</title>
<polygon fill="#c0c0c0" stroke="#000000" points="198.1963,-269 140.2529,-269 125.3471,-233 183.2905,-233 198.1963,-269"/>
<text text-anchor="middle" x="161.7717" y="-247.3" font-family="Times,serif" font-size="14.00" fill="#000000">I(位)</text>
</g>
<!-- convertFirst&#45;&gt;valFirst -->
<g id="edge2" class="edge">
<title>convertFirst&#45;&gt;valFirst</title>
<path fill="none" stroke="#000000" d="M161.7717,-305.9432C161.7717,-297.8174 161.7717,-288.1682 161.7717,-279.2408"/>
<polygon fill="#000000" stroke="#000000" points="165.2718,-279.2268 161.7717,-269.2269 158.2718,-279.2269 165.2718,-279.2268"/>
</g>
<!-- convertSecond&#45;&gt;params -->
<!-- valSecond -->
<g id="node12" class="node">
<title>valSecond</title>
<polygon fill="#c0c0c0" stroke="#000000" points="422.1963,-269 364.2529,-269 349.3471,-233 407.2905,-233 422.1963,-269"/>
<text text-anchor="middle" x="385.7717" y="-247.3" font-family="Times,serif" font-size="14.00" fill="#000000">I(位)</text>
</g>
<!-- convertSecond&#45;&gt;valSecond -->
<g id="edge7" class="edge">
<title>convertSecond&#45;&gt;valSecond</title>
<path fill="none" stroke="#000000" d="M385.7717,-305.9432C385.7717,-297.8174 385.7717,-288.1682 385.7717,-279.2408"/>
<polygon fill="#000000" stroke="#000000" points="389.2718,-279.2268 385.7717,-269.2269 382.2718,-279.2269 389.2718,-279.2268"/>
</g>
<!-- valFirst&#45;&gt;checkSecondRun -->
<g id="edge3" class="edge">
<title>valFirst&#45;&gt;checkSecondRun</title>
<path fill="none" stroke="#000000" d="M161.7717,-232.9551C161.7717,-224.8828 161.7717,-215.1764 161.7717,-206.1817"/>
<polygon fill="#000000" stroke="#000000" points="165.2718,-206.0903 161.7717,-196.0904 158.2718,-206.0904 165.2718,-206.0903"/>
</g>
<!-- valSecond&#45;&gt;stitch -->
<g id="edge8" class="edge">
<title>valSecond&#45;&gt;stitch</title>
<path fill="none" stroke="#000000" d="M385.355,-232.6678C385.1328,-221.9737 384.8828,-208.2237 384.7717,-196 384.6262,-180.0007 384.1931,-175.9895 384.7717,-160 385.2554,-146.632 386.2646,-131.8356 387.2505,-119.3841"/>
<polygon fill="#000000" stroke="#000000" points="390.7615,-119.3945 388.0971,-109.1402 383.7853,-118.8179 390.7615,-119.3945"/>
</g>
</g>
</svg>
