<?xml version="1.0" encoding="UTF-8" standalone="no"?>
<!DOCTYPE svg PUBLIC "-//W3C//DTD SVG 1.1//EN"
 "http://www.w3.org/Graphics/SVG/1.1/DTD/svg11.dtd">
<!-- Generated by graphviz version 2.40.1 (20161225.0304)
 -->
<!-- Title: DgsReduction Pages: 1 -->
<svg width="884pt" height="1001pt"
 viewBox="0.00 0.00 883.73 1001.00" xmlns="http://www.w3.org/2000/svg" xmlns:xlink="http://www.w3.org/1999/xlink">
<g id="graph0" class="graph" transform="scale(1 1) rotate(0) translate(4 997)">
<title>DgsReduction</title>
<polygon fill="#ffffff" stroke="transparent" points="-4,4 -4,-997 879.7341,-997 879.7341,4 -4,4"/>
<text text-anchor="middle" x="437.8671" y="-977.8" font-family="Helvetica,sans-Serif" font-size="14.00" fill="#000000">DgsReduction Flowchart</text>
<!-- Sample -->
<g id="node1" class="node">
<title>Sample</title>
<ellipse fill="#f0e68c" stroke="#000000" cx="40.9464" cy="-952" rx="40.8928" ry="18"/>
<text text-anchor="middle" x="40.9464" y="-948.3" font-family="Helvetica,sans-Serif" font-size="14.00" fill="#000000">Sample</text>
</g>
<!-- DgsDiagnose -->
<g id="node10" class="node">
<title>DgsDiagnose</title>
<path fill="#87cefa" stroke="#000000" d="M347.9464,-897C347.9464,-897 273.9464,-897 273.9464,-897 267.9464,-897 261.9464,-891 261.9464,-885 261.9464,-885 261.9464,-873 261.9464,-873 261.9464,-867 267.9464,-861 273.9464,-861 273.9464,-861 347.9464,-861 347.9464,-861 353.9464,-861 359.9464,-867 359.9464,-873 359.9464,-873 359.9464,-885 359.9464,-885 359.9464,-891 353.9464,-897 347.9464,-897"/>
<text text-anchor="middle" x="310.9464" y="-875.3" font-family="Helvetica,sans-Serif" font-size="14.00" fill="#000000">DgsDiagnose</text>
</g>
<!-- Sample&#45;&gt;DgsDiagnose -->
<g id="edge2" class="edge">
<title>Sample&#45;&gt;DgsDiagnose</title>
<path fill="none" stroke="#000000" d="M72.2581,-940.1833C78.4163,-938.014 84.856,-935.8524 90.9464,-934 144.8737,-917.5976 207.2928,-902.339 251.838,-892.0751"/>
<polygon fill="#000000" stroke="#000000" points="252.6603,-895.4775 261.6268,-889.8337 251.0978,-888.6541 252.6603,-895.4775"/>
</g>
<!-- DgsConvertToEnergyTransfer -->
<g id="node12" class="node">
<title>DgsConvertToEnergyTransfer</title>
<path fill="#87cefa" stroke="#000000" d="M312.4464,-525C312.4464,-525 139.4464,-525 139.4464,-525 133.4464,-525 127.4464,-519 127.4464,-513 127.4464,-513 127.4464,-501 127.4464,-501 127.4464,-495 133.4464,-489 139.4464,-489 139.4464,-489 312.4464,-489 312.4464,-489 318.4464,-489 324.4464,-495 324.4464,-501 324.4464,-501 324.4464,-513 324.4464,-513 324.4464,-519 318.4464,-525 312.4464,-525"/>
<text text-anchor="middle" x="225.9464" y="-503.3" font-family="Helvetica,sans-Serif" font-size="14.00" fill="#000000">DgsConvertToEnergyTransfer</text>
</g>
<!-- Sample&#45;&gt;DgsConvertToEnergyTransfer -->
<g id="edge1" class="edge">
<title>Sample&#45;&gt;DgsConvertToEnergyTransfer</title>
<path fill="none" stroke="#000000" d="M54.968,-934.8648C65.0762,-920.7591 76.9464,-899.7725 76.9464,-879 76.9464,-879 76.9464,-879 76.9464,-600 76.9464,-565.0196 106.8653,-542.7148 139.8895,-528.7495"/>
<polygon fill="#000000" stroke="#000000" points="141.2609,-531.9709 149.264,-525.0282 138.6782,-525.4647 141.2609,-531.9709"/>
</g>
<!-- HardMask -->
<g id="node2" class="node">
<title>HardMask</title>
<ellipse fill="#f0e68c" stroke="#000000" cx="150.9464" cy="-952" rx="51.1914" ry="18"/>
<text text-anchor="middle" x="150.9464" y="-948.3" font-family="Helvetica,sans-Serif" font-size="14.00" fill="#000000">HardMask</text>
</g>
<!-- HardMask&#45;&gt;DgsDiagnose -->
<g id="edge4" class="edge">
<title>HardMask&#45;&gt;DgsDiagnose</title>
<path fill="none" stroke="#000000" d="M182.5572,-937.5775C205.2683,-927.2156 236.3135,-913.0512 262.1868,-901.2466"/>
<polygon fill="#000000" stroke="#000000" points="263.815,-904.3508 271.46,-897.0157 260.9093,-897.9824 263.815,-904.3508"/>
</g>
<!-- HardMask&#45;&gt;DgsConvertToEnergyTransfer -->
<g id="edge3" class="edge">
<title>HardMask&#45;&gt;DgsConvertToEnergyTransfer</title>
<path fill="none" stroke="#000000" d="M150.9464,-933.6997C150.9464,-918.9349 150.9464,-897.6302 150.9464,-879 150.9464,-879 150.9464,-879 150.9464,-600 150.9464,-572.4723 171.1031,-548.4919 190.5174,-531.7791"/>
<polygon fill="#000000" stroke="#000000" points="192.9205,-534.3353 198.445,-525.2948 188.4886,-528.9169 192.9205,-534.3353"/>
</g>
<!-- DetectorVanadium -->
<g id="node3" class="node">
<title>DetectorVanadium</title>
<ellipse fill="#f0e68c" stroke="#000000" cx="585.9464" cy="-952" rx="83.6854" ry="18"/>
<text text-anchor="middle" x="585.9464" y="-948.3" font-family="Helvetica,sans-Serif" font-size="14.00" fill="#000000">DetectorVanadium</text>
</g>
<!-- DetectorVanadium&#45;&gt;DgsDiagnose -->
<g id="edge5" class="edge">
<title>DetectorVanadium&#45;&gt;DgsDiagnose</title>
<path fill="none" stroke="#000000" d="M532.1786,-938.0881C506.6436,-931.4519 475.7066,-923.3694 447.9464,-916 422.3088,-909.1941 394.0036,-901.5684 369.8093,-895.0162"/>
<polygon fill="#000000" stroke="#000000" points="370.6282,-891.612 360.0608,-892.3741 368.797,-898.3682 370.6282,-891.612"/>
</g>
<!-- DgsProcessDetectorVanadium -->
<g id="node11" class="node">
<title>DgsProcessDetectorVanadium</title>
<path fill="#87cefa" stroke="#000000" d="M518.9464,-711C518.9464,-711 340.9464,-711 340.9464,-711 334.9464,-711 328.9464,-705 328.9464,-699 328.9464,-699 328.9464,-687 328.9464,-687 328.9464,-681 334.9464,-675 340.9464,-675 340.9464,-675 518.9464,-675 518.9464,-675 524.9464,-675 530.9464,-681 530.9464,-687 530.9464,-687 530.9464,-699 530.9464,-699 530.9464,-705 524.9464,-711 518.9464,-711"/>
<text text-anchor="middle" x="429.9464" y="-689.3" font-family="Helvetica,sans-Serif" font-size="14.00" fill="#000000">DgsProcessDetectorVanadium</text>
</g>
<!-- DetectorVanadium&#45;&gt;DgsProcessDetectorVanadium -->
<g id="edge6" class="edge">
<title>DetectorVanadium&#45;&gt;DgsProcessDetectorVanadium</title>
<path fill="none" stroke="#000000" d="M574.9767,-933.7876C547.9562,-888.9265 478.0788,-772.9121 446.2147,-720.0097"/>
<polygon fill="#000000" stroke="#000000" points="449.0616,-717.9526 440.9039,-711.1923 443.0653,-721.5643 449.0616,-717.9526"/>
</g>
<!-- ComparsionDetectorVanadium -->
<g id="node4" class="node">
<title>ComparsionDetectorVanadium</title>
<ellipse fill="#f0e68c" stroke="#000000" cx="351.9464" cy="-952" rx="131.8766" ry="18"/>
<text text-anchor="middle" x="351.9464" y="-948.3" font-family="Helvetica,sans-Serif" font-size="14.00" fill="#000000">ComparsionDetectorVanadium</text>
</g>
<!-- ComparsionDetectorVanadium&#45;&gt;DgsDiagnose -->
<g id="edge7" class="edge">
<title>ComparsionDetectorVanadium&#45;&gt;DgsDiagnose</title>
<path fill="none" stroke="#000000" d="M341.8115,-933.9551C337.0807,-925.5319 331.3505,-915.3292 326.1179,-906.0128"/>
<polygon fill="#000000" stroke="#000000" points="329.0553,-904.0954 321.1067,-897.0904 322.9521,-907.5233 329.0553,-904.0954"/>
</g>
<!-- Grouping -->
<g id="node5" class="node">
<title>Grouping</title>
<ellipse fill="#f0e68c" stroke="#000000" cx="225.9464" cy="-600" rx="47.3916" ry="18"/>
<text text-anchor="middle" x="225.9464" y="-596.3" font-family="Helvetica,sans-Serif" font-size="14.00" fill="#000000">Grouping</text>
</g>
<!-- Grouping&#45;&gt;DgsConvertToEnergyTransfer -->
<g id="edge8" class="edge">
<title>Grouping&#45;&gt;DgsConvertToEnergyTransfer</title>
<path fill="none" stroke="#000000" d="M225.9464,-581.6262C225.9464,-568.4212 225.9464,-550.369 225.9464,-535.3274"/>
<polygon fill="#000000" stroke="#000000" points="229.4465,-535.0192 225.9464,-525.0192 222.4465,-535.0192 229.4465,-535.0192"/>
</g>
<!-- AbsoluteUnitsSample -->
<g id="node6" class="node">
<title>AbsoluteUnitsSample</title>
<ellipse fill="#f0e68c" stroke="#000000" cx="486.9464" cy="-507" rx="94.7833" ry="18"/>
<text text-anchor="middle" x="486.9464" y="-503.3" font-family="Helvetica,sans-Serif" font-size="14.00" fill="#000000">AbsoluteUnitsSample</text>
</g>
<!-- DgsAbsoluteUnitsReduction -->
<g id="node13" class="node">
<title>DgsAbsoluteUnitsReduction</title>
<path fill="#87cefa" stroke="#000000" d="M728.4464,-432C728.4464,-432 567.4464,-432 567.4464,-432 561.4464,-432 555.4464,-426 555.4464,-420 555.4464,-420 555.4464,-408 555.4464,-408 555.4464,-402 561.4464,-396 567.4464,-396 567.4464,-396 728.4464,-396 728.4464,-396 734.4464,-396 740.4464,-402 740.4464,-408 740.4464,-408 740.4464,-420 740.4464,-420 740.4464,-426 734.4464,-432 728.4464,-432"/>
<text text-anchor="middle" x="647.9464" y="-410.3" font-family="Helvetica,sans-Serif" font-size="14.00" fill="#000000">DgsAbsoluteUnitsReduction</text>
</g>
<!-- AbsoluteUnitsSample&#45;&gt;DgsAbsoluteUnitsReduction -->
<g id="edge14" class="edge">
<title>AbsoluteUnitsSample&#45;&gt;DgsAbsoluteUnitsReduction</title>
<path fill="none" stroke="#000000" d="M516.8519,-489.7254C542.4537,-474.9368 579.5371,-453.5159 607.7347,-437.2279"/>
<polygon fill="#000000" stroke="#000000" points="609.6432,-440.1675 616.5517,-432.1348 606.1418,-434.106 609.6432,-440.1675"/>
</g>
<!-- AbsoluteUnitsDetectorVanadium -->
<g id="node7" class="node">
<title>AbsoluteUnitsDetectorVanadium</title>
<ellipse fill="#f0e68c" stroke="#000000" cx="737.9464" cy="-507" rx="137.5759" ry="18"/>
<text text-anchor="middle" x="737.9464" y="-503.3" font-family="Helvetica,sans-Serif" font-size="14.00" fill="#000000">AbsoluteUnitsDetectorVanadium</text>
</g>
<!-- AbsoluteUnitsDetectorVanadium&#45;&gt;DgsAbsoluteUnitsReduction -->
<g id="edge15" class="edge">
<title>AbsoluteUnitsDetectorVanadium&#45;&gt;DgsAbsoluteUnitsReduction</title>
<path fill="none" stroke="#000000" d="M720.5935,-489.0687C706.9854,-475.007 687.8703,-455.2547 672.6632,-439.5407"/>
<polygon fill="#000000" stroke="#000000" points="675.0224,-436.9457 665.5531,-432.1936 669.9922,-441.8136 675.0224,-436.9457"/>
</g>
<!-- OutputWorkspace -->
<g id="node8" class="node">
<title>OutputWorkspace</title>
<ellipse fill="#f0e68c" stroke="#000000" cx="475.9464" cy="-18" rx="81.7856" ry="18"/>
<text text-anchor="middle" x="475.9464" y="-14.3" font-family="Helvetica,sans-Serif" font-size="14.00" fill="#000000">OutputWorkspace</text>
</g>
<!-- isAbsUnits -->
<g id="node9" class="node">
<title>isAbsUnits</title>
<polygon fill="#32cd32" stroke="#000000" points="424.9464,-324 355.9464,-286 424.9464,-248 493.9464,-286 424.9464,-324"/>
<text text-anchor="middle" x="424.9464" y="-289.8" font-family="Helvetica,sans-Serif" font-size="14.00" fill="#000000">Absolute</text>
<text text-anchor="middle" x="424.9464" y="-274.8" font-family="Helvetica,sans-Serif" font-size="14.00" fill="#000000">Units?</text>
</g>
<!-- Divide -->
<g id="node14" class="node">
<title>Divide</title>
<path fill="#87cefa" stroke="#000000" d="M541.9464,-182C541.9464,-182 511.9464,-182 511.9464,-182 505.9464,-182 499.9464,-176 499.9464,-170 499.9464,-170 499.9464,-158 499.9464,-158 499.9464,-152 505.9464,-146 511.9464,-146 511.9464,-146 541.9464,-146 541.9464,-146 547.9464,-146 553.9464,-152 553.9464,-158 553.9464,-158 553.9464,-170 553.9464,-170 553.9464,-176 547.9464,-182 541.9464,-182"/>
<text text-anchor="middle" x="526.9464" y="-160.3" font-family="Helvetica,sans-Serif" font-size="14.00" fill="#000000">Divide</text>
</g>
<!-- isAbsUnits&#45;&gt;Divide -->
<g id="edge21" class="edge">
<title>isAbsUnits&#45;&gt;Divide</title>
<path fill="none" stroke="#000000" d="M446.8279,-259.8279C464.0881,-239.1834 488.04,-210.5351 505.2517,-189.9486"/>
<polygon fill="#000000" stroke="#000000" points="507.9891,-192.1311 511.7181,-182.2142 502.6187,-187.6411 507.9891,-192.1311"/>
<text text-anchor="middle" x="507.9464" y="-203.8" font-family="Helvetica,sans-Serif" font-size="14.00" fill="#000000">Yes</text>
</g>
<!-- SPhiE -->
<g id="node21" class="node">
<title>SPhiE</title>
<polygon fill="#c0c0c0" stroke="#000000" points="532.3941,-109 442.5984,-109 419.4987,-73 509.2943,-73 532.3941,-109"/>
<text text-anchor="middle" x="475.9464" y="-87.3" font-family="Times,serif" font-size="14.00" fill="#000000">S(φ, E)</text>
</g>
<!-- isAbsUnits&#45;&gt;SPhiE -->
<g id="edge22" class="edge">
<title>isAbsUnits&#45;&gt;SPhiE</title>
<path fill="none" stroke="#000000" d="M437.0505,-254.4758C441.4748,-242.261 446.2869,-228.089 449.9464,-215 459.0152,-182.5626 466.5373,-144.5654 471.1184,-119.2648"/>
<polygon fill="#000000" stroke="#000000" points="474.5939,-119.7105 472.8976,-109.2523 467.7019,-118.4857 474.5939,-119.7105"/>
<text text-anchor="middle" x="474.9464" y="-160.3" font-family="Helvetica,sans-Serif" font-size="14.00" fill="#000000">No</text>
</g>
<!-- detVanMask -->
<g id="node15" class="node">
<title>detVanMask</title>
<polygon fill="#c0c0c0" stroke="#000000" points="390.6067,-824 263.8849,-824 231.286,-748 358.0078,-748 390.6067,-824"/>
<text text-anchor="middle" x="310.9464" y="-789.8" font-family="Times,serif" font-size="14.00" fill="#000000">DetVan</text>
<text text-anchor="middle" x="310.9464" y="-774.8" font-family="Times,serif" font-size="14.00" fill="#000000">Diag Mask</text>
</g>
<!-- DgsDiagnose&#45;&gt;detVanMask -->
<g id="edge9" class="edge">
<title>DgsDiagnose&#45;&gt;detVanMask</title>
<path fill="none" stroke="#000000" d="M310.9464,-860.6262C310.9464,-853.0068 310.9464,-843.7735 310.9464,-834.4359"/>
<polygon fill="#000000" stroke="#000000" points="314.4465,-834.3342 310.9464,-824.3342 307.4465,-834.3342 314.4465,-834.3342"/>
</g>
<!-- intDetVan -->
<g id="node16" class="node">
<title>intDetVan</title>
<polygon fill="#c0c0c0" stroke="#000000" points="489.6655,-638 372.3949,-638 342.2273,-562 459.4979,-562 489.6655,-638"/>
<text text-anchor="middle" x="415.9464" y="-603.8" font-family="Times,serif" font-size="14.00" fill="#000000">Integrated</text>
<text text-anchor="middle" x="415.9464" y="-588.8" font-family="Times,serif" font-size="14.00" fill="#000000">DetVan</text>
</g>
<!-- DgsProcessDetectorVanadium&#45;&gt;intDetVan -->
<g id="edge12" class="edge">
<title>DgsProcessDetectorVanadium&#45;&gt;intDetVan</title>
<path fill="none" stroke="#000000" d="M427.1804,-674.6262C426.0334,-667.0068 424.6435,-657.7735 423.2378,-648.4359"/>
<polygon fill="#000000" stroke="#000000" points="426.6668,-647.7017 421.7171,-638.3342 419.7448,-648.7438 426.6668,-647.7017"/>
</g>
<!-- procSamp -->
<g id="node17" class="node">
<title>procSamp</title>
<polygon fill="#c0c0c0" stroke="#000000" points="498.6655,-452 381.3949,-452 351.2273,-376 468.4979,-376 498.6655,-452"/>
<text text-anchor="middle" x="424.9464" y="-417.8" font-family="Times,serif" font-size="14.00" fill="#000000">Processed</text>
<text text-anchor="middle" x="424.9464" y="-402.8" font-family="Times,serif" font-size="14.00" fill="#000000">Sample</text>
</g>
<!-- DgsConvertToEnergyTransfer&#45;&gt;procSamp -->
<g id="edge19" class="edge">
<title>DgsConvertToEnergyTransfer&#45;&gt;procSamp</title>
<path fill="none" stroke="#000000" d="M264.788,-488.8479C293.5106,-475.4248 333.1382,-456.9053 365.7887,-441.6465"/>
<polygon fill="#000000" stroke="#000000" points="367.6589,-444.6359 375.2366,-437.2312 364.6952,-438.2943 367.6589,-444.6359"/>
</g>
<!-- background -->
<g id="node18" class="node">
<title>background</title>
<polygon fill="#c0c0c0" stroke="#000000" points="332.9736,-452 142.0372,-452 92.9192,-376 283.8556,-376 332.9736,-452"/>
<text text-anchor="middle" x="212.9464" y="-417.8" font-family="Times,serif" font-size="14.00" fill="#000000">Time&#45;independent</text>
<text text-anchor="middle" x="212.9464" y="-402.8" font-family="Times,serif" font-size="14.00" fill="#000000">background</text>
</g>
<!-- DgsConvertToEnergyTransfer&#45;&gt;background -->
<g id="edge18" class="edge">
<title>DgsConvertToEnergyTransfer&#45;&gt;background</title>
<path fill="none" stroke="#000000" d="M223.378,-488.6262C222.3129,-481.0068 221.0222,-471.7735 219.717,-462.4359"/>
<polygon fill="#000000" stroke="#000000" points="223.1557,-461.7533 218.3049,-452.3342 216.2231,-462.7225 223.1557,-461.7533"/>
</g>
<!-- procUnits -->
<g id="node19" class="node">
<title>procUnits</title>
<polygon fill="#c0c0c0" stroke="#000000" points="659.6655,-339 542.3949,-339 512.2273,-233 629.4979,-233 659.6655,-339"/>
<text text-anchor="middle" x="585.9464" y="-297.3" font-family="Times,serif" font-size="14.00" fill="#000000">Processed</text>
<text text-anchor="middle" x="585.9464" y="-282.3" font-family="Times,serif" font-size="14.00" fill="#000000">Absolute</text>
<text text-anchor="middle" x="585.9464" y="-267.3" font-family="Times,serif" font-size="14.00" fill="#000000">Units</text>
</g>
<!-- DgsAbsoluteUnitsReduction&#45;&gt;procUnits -->
<g id="edge16" class="edge">
<title>DgsAbsoluteUnitsReduction&#45;&gt;procUnits</title>
<path fill="none" stroke="#000000" d="M639.1948,-395.9322C633.0834,-383.3153 624.5339,-365.6646 616.0714,-348.1936"/>
<polygon fill="#000000" stroke="#000000" points="619.1766,-346.5754 611.6674,-339.1014 612.8768,-349.627 619.1766,-346.5754"/>
</g>
<!-- absUnits -->
<g id="node20" class="node">
<title>absUnits</title>
<polygon fill="#c0c0c0" stroke="#000000" points="836.6067,-339 709.8849,-339 677.286,-233 804.0078,-233 836.6067,-339"/>
<text text-anchor="middle" x="756.9464" y="-297.3" font-family="Times,serif" font-size="14.00" fill="#000000">Absolute</text>
<text text-anchor="middle" x="756.9464" y="-282.3" font-family="Times,serif" font-size="14.00" fill="#000000">Units</text>
<text text-anchor="middle" x="756.9464" y="-267.3" font-family="Times,serif" font-size="14.00" fill="#000000">Diag Mask</text>
</g>
<!-- DgsAbsoluteUnitsReduction&#45;&gt;absUnits -->
<g id="edge17" class="edge">
<title>DgsAbsoluteUnitsReduction&#45;&gt;absUnits</title>
<path fill="none" stroke="#000000" d="M663.3322,-395.9322C674.372,-382.968 689.9376,-364.6892 705.2126,-346.7516"/>
<polygon fill="#000000" stroke="#000000" points="707.9085,-348.9841 711.7272,-339.1014 702.5791,-344.4457 707.9085,-348.9841"/>
</g>
<!-- Divide&#45;&gt;SPhiE -->
<g id="edge24" class="edge">
<title>Divide&#45;&gt;SPhiE</title>
<path fill="none" stroke="#000000" d="M514.3396,-145.9551C508.3323,-137.3564 501.0295,-126.9034 494.4123,-117.4316"/>
<polygon fill="#000000" stroke="#000000" points="497.1811,-115.2835 488.5848,-109.0904 491.4428,-119.2925 497.1811,-115.2835"/>
</g>
<!-- detVanMask&#45;&gt;DgsProcessDetectorVanadium -->
<g id="edge11" class="edge">
<title>detVanMask&#45;&gt;DgsProcessDetectorVanadium</title>
<path fill="none" stroke="#000000" d="M358.6625,-748.7092C372.1121,-738.1982 386.3986,-727.0332 398.6222,-717.4803"/>
<polygon fill="#000000" stroke="#000000" points="400.9954,-720.0676 406.7195,-711.1521 396.685,-714.5521 400.9954,-720.0676"/>
</g>
<!-- detVanMask&#45;&gt;DgsConvertToEnergyTransfer -->
<g id="edge10" class="edge">
<title>detVanMask&#45;&gt;DgsConvertToEnergyTransfer</title>
<path fill="none" stroke="#000000" d="M313.3669,-747.7635C314.6998,-701.3473 311.7227,-621.8622 281.9464,-562 276.3515,-550.7522 267.5242,-540.4729 258.5181,-531.9233"/>
<polygon fill="#000000" stroke="#000000" points="260.7606,-529.2332 250.9779,-525.1651 256.0885,-534.4458 260.7606,-529.2332"/>
</g>
<!-- intDetVan&#45;&gt;DgsConvertToEnergyTransfer -->
<g id="edge13" class="edge">
<title>intDetVan&#45;&gt;DgsConvertToEnergyTransfer</title>
<path fill="none" stroke="#000000" d="M351.4069,-561.9461C339.4291,-555.3523 326.9174,-548.7692 314.9464,-543 304.945,-538.1801 294.1229,-533.4312 283.5843,-529.0426"/>
<polygon fill="#000000" stroke="#000000" points="284.5976,-525.6754 274.0173,-525.1219 281.9432,-532.1526 284.5976,-525.6754"/>
</g>
<!-- procSamp&#45;&gt;isAbsUnits -->
<g id="edge20" class="edge">
<title>procSamp&#45;&gt;isAbsUnits</title>
<path fill="none" stroke="#000000" d="M424.9464,-375.9423C424.9464,-362.9056 424.9464,-348.14 424.9464,-334.3968"/>
<polygon fill="#000000" stroke="#000000" points="428.4465,-334.132 424.9464,-324.132 421.4465,-334.1321 428.4465,-334.132"/>
</g>
<!-- procUnits&#45;&gt;Divide -->
<g id="edge23" class="edge">
<title>procUnits&#45;&gt;Divide</title>
<path fill="none" stroke="#000000" d="M560.2397,-232.8439C553.3299,-218.5558 546.1377,-203.6838 540.2137,-191.4342"/>
<polygon fill="#000000" stroke="#000000" points="543.2689,-189.7125 535.7643,-182.2337 536.9672,-192.7601 543.2689,-189.7125"/>
</g>
<!-- SPhiE&#45;&gt;OutputWorkspace -->
<g id="edge25" class="edge">
<title>SPhiE&#45;&gt;OutputWorkspace</title>
<path fill="none" stroke="#000000" d="M475.9464,-72.9551C475.9464,-64.8828 475.9464,-55.1764 475.9464,-46.1817"/>
<polygon fill="#000000" stroke="#000000" points="479.4465,-46.0903 475.9464,-36.0904 472.4465,-46.0904 479.4465,-46.0903"/>
</g>
</g>
</svg>
