<?xml version="1.0" encoding="UTF-8" standalone="no"?>
<!DOCTYPE svg PUBLIC "-//W3C//DTD SVG 1.1//EN"
 "http://www.w3.org/Graphics/SVG/1.1/DTD/svg11.dtd">
<!-- Generated by graphviz version 2.40.1 (20161225.0304)
 -->
<!-- Title: IndirectCalibration Pages: 1 -->
<svg width="889pt" height="888pt"
 viewBox="0.00 0.00 889.23 888.00" xmlns="http://www.w3.org/2000/svg" xmlns:xlink="http://www.w3.org/1999/xlink">
<g id="graph0" class="graph" transform="scale(1 1) rotate(0) translate(4 884)">
<title>IndirectCalibration</title>
<polygon fill="#ffffff" stroke="transparent" points="-4,4 -4,-884 885.2326,-884 885.2326,4 -4,4"/>
<text text-anchor="middle" x="440.6163" y="-864.8" font-family="Helvetica,sans-Serif" font-size="14.00" fill="#000000">IndirectCalibration Flowchart</text>
<!-- AutoScaleFactor -->
<g id="node1" class="node">
<title>AutoScaleFactor</title>
<polygon fill="#c0c0c0" stroke="#000000" points="510.6632,-196 104.577,-196 .1122,-160 406.1984,-160 510.6632,-196"/>
<text text-anchor="middle" x="255.3877" y="-174.3" font-family="Times,serif" font-size="14.00" fill="#000000">1 / (sum / (num_spectra / num_zero_spectra))</text>
</g>
<!-- Scale_Auto -->
<g id="node17" class="node">
<title>Scale_Auto</title>
<path fill="#87cefa" stroke="#000000" d="M616.3877,-109C616.3877,-109 586.3877,-109 586.3877,-109 580.3877,-109 574.3877,-103 574.3877,-97 574.3877,-97 574.3877,-85 574.3877,-85 574.3877,-79 580.3877,-73 586.3877,-73 586.3877,-73 616.3877,-73 616.3877,-73 622.3877,-73 628.3877,-79 628.3877,-85 628.3877,-85 628.3877,-97 628.3877,-97 628.3877,-103 622.3877,-109 616.3877,-109"/>
<text text-anchor="middle" x="601.3877" y="-87.3" font-family="Helvetica,sans-Serif" font-size="14.00" fill="#000000">Scale</text>
</g>
<!-- AutoScaleFactor&#45;&gt;Scale_Auto -->
<g id="edge17" class="edge">
<title>AutoScaleFactor&#45;&gt;Scale_Auto</title>
<path fill="none" stroke="#000000" d="M327.0791,-159.9735C399.1936,-141.8407 507.5705,-114.5899 564.0892,-100.3785"/>
<polygon fill="#000000" stroke="#000000" points="565.174,-103.7148 574.0186,-97.8818 563.467,-96.9261 565.174,-103.7148"/>
</g>
<!-- UseAutoScale -->
<g id="node2" class="node">
<title>UseAutoScale</title>
<polygon fill="#32cd32" stroke="#000000" points="638.3877,-196 529.1281,-178 638.3877,-160 747.6473,-178 638.3877,-196"/>
<text text-anchor="middle" x="638.3877" y="-174.3" font-family="Helvetica,sans-Serif" font-size="14.00" fill="#000000">ScaleFactor = 1?</text>
</g>
<!-- UseAutoScale&#45;&gt;Scale_Auto -->
<g id="edge14" class="edge">
<title>UseAutoScale&#45;&gt;Scale_Auto</title>
<path fill="none" stroke="#000000" d="M631.0777,-160.8116C625.9597,-148.7774 619.0114,-132.4396 613.1234,-118.5947"/>
<polygon fill="#000000" stroke="#000000" points="616.1992,-116.8838 609.0647,-109.0512 609.7575,-119.6234 616.1992,-116.8838"/>
<text text-anchor="middle" x="634.3877" y="-130.8" font-family="Helvetica,sans-Serif" font-size="14.00" fill="#000000">Yes</text>
</g>
<!-- Scale_Manual -->
<g id="node18" class="node">
<title>Scale_Manual</title>
<path fill="#87cefa" stroke="#000000" d="M688.3877,-109C688.3877,-109 658.3877,-109 658.3877,-109 652.3877,-109 646.3877,-103 646.3877,-97 646.3877,-97 646.3877,-85 646.3877,-85 646.3877,-79 652.3877,-73 658.3877,-73 658.3877,-73 688.3877,-73 688.3877,-73 694.3877,-73 700.3877,-79 700.3877,-85 700.3877,-85 700.3877,-97 700.3877,-97 700.3877,-103 694.3877,-109 688.3877,-109"/>
<text text-anchor="middle" x="673.3877" y="-87.3" font-family="Helvetica,sans-Serif" font-size="14.00" fill="#000000">Scale</text>
</g>
<!-- UseAutoScale&#45;&gt;Scale_Manual -->
<g id="edge19" class="edge">
<title>UseAutoScale&#45;&gt;Scale_Manual</title>
<path fill="none" stroke="#000000" d="M645.3026,-160.8116C650.1439,-148.7774 656.7166,-132.4396 662.2864,-118.5947"/>
<polygon fill="#000000" stroke="#000000" points="665.6405,-119.6349 666.1257,-109.0512 659.1463,-117.0223 665.6405,-119.6349"/>
<text text-anchor="middle" x="667.3877" y="-130.8" font-family="Helvetica,sans-Serif" font-size="14.00" fill="#000000">No</text>
</g>
<!-- MultipleFiles -->
<g id="node3" class="node">
<title>MultipleFiles</title>
<polygon fill="#32cd32" stroke="#000000" points="330.3877,-711 234.7029,-693 330.3877,-675 426.0725,-693 330.3877,-711"/>
<text text-anchor="middle" x="330.3877" y="-689.3" font-family="Helvetica,sans-Serif" font-size="14.00" fill="#000000">Multiple Files?</text>
</g>
<!-- MergeRuns -->
<g id="node11" class="node">
<title>MergeRuns</title>
<path fill="#87cefa" stroke="#000000" d="M283.8877,-624C283.8877,-624 220.8877,-624 220.8877,-624 214.8877,-624 208.8877,-618 208.8877,-612 208.8877,-612 208.8877,-600 208.8877,-600 208.8877,-594 214.8877,-588 220.8877,-588 220.8877,-588 283.8877,-588 283.8877,-588 289.8877,-588 295.8877,-594 295.8877,-600 295.8877,-600 295.8877,-612 295.8877,-612 295.8877,-618 289.8877,-624 283.8877,-624"/>
<text text-anchor="middle" x="252.3877" y="-602.3" font-family="Helvetica,sans-Serif" font-size="14.00" fill="#000000">MergeRuns</text>
</g>
<!-- MultipleFiles&#45;&gt;MergeRuns -->
<g id="edge4" class="edge">
<title>MultipleFiles&#45;&gt;MergeRuns</title>
<path fill="none" stroke="#000000" d="M316.4429,-677.4461C305.1292,-664.8271 288.9373,-646.7668 275.6639,-631.962"/>
<polygon fill="#000000" stroke="#000000" points="277.9212,-629.2365 268.6397,-624.1272 272.7091,-633.9093 277.9212,-629.2365"/>
<text text-anchor="middle" x="308.3877" y="-645.8" font-family="Helvetica,sans-Serif" font-size="14.00" fill="#000000">Yes</text>
</g>
<!-- CalculateFlatBackground -->
<g id="node13" class="node">
<title>CalculateFlatBackground</title>
<path fill="#87cefa" stroke="#000000" d="M326.8877,-464C326.8877,-464 183.8877,-464 183.8877,-464 177.8877,-464 171.8877,-458 171.8877,-452 171.8877,-452 171.8877,-440 171.8877,-440 171.8877,-434 177.8877,-428 183.8877,-428 183.8877,-428 326.8877,-428 326.8877,-428 332.8877,-428 338.8877,-434 338.8877,-440 338.8877,-440 338.8877,-452 338.8877,-452 338.8877,-458 332.8877,-464 326.8877,-464"/>
<text text-anchor="middle" x="255.3877" y="-442.3" font-family="Helvetica,sans-Serif" font-size="14.00" fill="#000000">CalculateFlatBackground</text>
</g>
<!-- MultipleFiles&#45;&gt;CalculateFlatBackground -->
<g id="edge8" class="edge">
<title>MultipleFiles&#45;&gt;CalculateFlatBackground</title>
<path fill="none" stroke="#000000" d="M337.8634,-676.2431C352.3133,-641.1287 379.914,-558.3407 347.3877,-501 339.7807,-487.5896 327.4613,-477.0986 314.2764,-469.0421"/>
<polygon fill="#000000" stroke="#000000" points="315.9551,-465.9705 305.528,-464.0931 312.5085,-472.0632 315.9551,-465.9705"/>
<text text-anchor="middle" x="372.3877" y="-558.8" font-family="Helvetica,sans-Serif" font-size="14.00" fill="#000000">No</text>
</g>
<!-- InputFiles -->
<g id="node4" class="node">
<title>InputFiles</title>
<ellipse fill="#f0e68c" stroke="#000000" cx="262.3877" cy="-839" rx="48.9926" ry="18"/>
<text text-anchor="middle" x="262.3877" y="-835.3" font-family="Helvetica,sans-Serif" font-size="14.00" fill="#000000">InputFiles</text>
</g>
<!-- Load -->
<g id="node10" class="node">
<title>Load</title>
<path fill="#87cefa" stroke="#000000" d="M345.3877,-784C345.3877,-784 315.3877,-784 315.3877,-784 309.3877,-784 303.3877,-778 303.3877,-772 303.3877,-772 303.3877,-760 303.3877,-760 303.3877,-754 309.3877,-748 315.3877,-748 315.3877,-748 345.3877,-748 345.3877,-748 351.3877,-748 357.3877,-754 357.3877,-760 357.3877,-760 357.3877,-772 357.3877,-772 357.3877,-778 351.3877,-784 345.3877,-784"/>
<text text-anchor="middle" x="330.3877" y="-762.3" font-family="Helvetica,sans-Serif" font-size="14.00" fill="#000000">Load</text>
</g>
<!-- InputFiles&#45;&gt;Load -->
<g id="edge1" class="edge">
<title>InputFiles&#45;&gt;Load</title>
<path fill="none" stroke="#000000" d="M278.5028,-821.7C286.8903,-812.6957 297.3079,-801.5122 306.6027,-791.5339"/>
<polygon fill="#000000" stroke="#000000" points="309.1844,-793.8974 313.4394,-784.1945 304.0623,-789.1261 309.1844,-793.8974"/>
</g>
<!-- DetectorRange -->
<g id="node5" class="node">
<title>DetectorRange</title>
<ellipse fill="#f0e68c" stroke="#000000" cx="398.3877" cy="-839" rx="69.5877" ry="18"/>
<text text-anchor="middle" x="398.3877" y="-835.3" font-family="Helvetica,sans-Serif" font-size="14.00" fill="#000000">DetectorRange</text>
</g>
<!-- DetectorRange&#45;&gt;Load -->
<g id="edge2" class="edge">
<title>DetectorRange&#45;&gt;Load</title>
<path fill="none" stroke="#000000" d="M381.9268,-821.3287C373.6148,-812.4055 363.3768,-801.4148 354.2219,-791.5867"/>
<polygon fill="#000000" stroke="#000000" points="356.5465,-788.9473 347.1694,-784.0157 351.4245,-793.7185 356.5465,-788.9473"/>
</g>
<!-- PeakRange -->
<g id="node6" class="node">
<title>PeakRange</title>
<ellipse fill="#f0e68c" stroke="#000000" cx="413.3877" cy="-446" rx="56.59" ry="18"/>
<text text-anchor="middle" x="413.3877" y="-442.3" font-family="Helvetica,sans-Serif" font-size="14.00" fill="#000000">PeakRange</text>
</g>
<!-- Integration -->
<g id="node15" class="node">
<title>Integration</title>
<path fill="#87cefa" stroke="#000000" d="M437.3877,-391C437.3877,-391 381.3877,-391 381.3877,-391 375.3877,-391 369.3877,-385 369.3877,-379 369.3877,-379 369.3877,-367 369.3877,-367 369.3877,-361 375.3877,-355 381.3877,-355 381.3877,-355 437.3877,-355 437.3877,-355 443.3877,-355 449.3877,-361 449.3877,-367 449.3877,-367 449.3877,-379 449.3877,-379 449.3877,-385 443.3877,-391 437.3877,-391"/>
<text text-anchor="middle" x="409.3877" y="-369.3" font-family="Helvetica,sans-Serif" font-size="14.00" fill="#000000">Integration</text>
</g>
<!-- PeakRange&#45;&gt;Integration -->
<g id="edge11" class="edge">
<title>PeakRange&#45;&gt;Integration</title>
<path fill="none" stroke="#000000" d="M412.3989,-427.9551C411.9566,-419.8828 411.4248,-410.1764 410.9319,-401.1817"/>
<polygon fill="#000000" stroke="#000000" points="414.4209,-400.8839 410.379,-391.0904 407.4314,-401.2669 414.4209,-400.8839"/>
</g>
<!-- BackgroundRange -->
<g id="node7" class="node">
<title>BackgroundRange</title>
<ellipse fill="#f0e68c" stroke="#000000" cx="255.3877" cy="-519" rx="83.3857" ry="18"/>
<text text-anchor="middle" x="255.3877" y="-515.3" font-family="Helvetica,sans-Serif" font-size="14.00" fill="#000000">BackgroundRange</text>
</g>
<!-- BackgroundRange&#45;&gt;CalculateFlatBackground -->
<g id="edge7" class="edge">
<title>BackgroundRange&#45;&gt;CalculateFlatBackground</title>
<path fill="none" stroke="#000000" d="M255.3877,-500.9551C255.3877,-492.8828 255.3877,-483.1764 255.3877,-474.1817"/>
<polygon fill="#000000" stroke="#000000" points="258.8878,-474.0903 255.3877,-464.0904 251.8878,-474.0904 258.8878,-474.0903"/>
</g>
<!-- ScaleFactor -->
<g id="node8" class="node">
<title>ScaleFactor</title>
<ellipse fill="#f0e68c" stroke="#000000" cx="823.3877" cy="-178" rx="57.6901" ry="18"/>
<text text-anchor="middle" x="823.3877" y="-174.3" font-family="Helvetica,sans-Serif" font-size="14.00" fill="#000000">ScaleFactor</text>
</g>
<!-- ScaleFactor&#45;&gt;Scale_Manual -->
<g id="edge20" class="edge">
<title>ScaleFactor&#45;&gt;Scale_Manual</title>
<path fill="none" stroke="#000000" d="M795.8754,-162.0429C771.5894,-147.957 736.018,-127.3256 709.4583,-111.9209"/>
<polygon fill="#000000" stroke="#000000" points="710.8792,-108.699 700.4728,-106.7094 707.3671,-114.7542 710.8792,-108.699"/>
</g>
<!-- OutputWorkspace -->
<g id="node9" class="node">
<title>OutputWorkspace</title>
<ellipse fill="#f0e68c" stroke="#000000" cx="636.3877" cy="-18" rx="81.7856" ry="18"/>
<text text-anchor="middle" x="636.3877" y="-14.3" font-family="Helvetica,sans-Serif" font-size="14.00" fill="#000000">OutputWorkspace</text>
</g>
<!-- Load&#45;&gt;MultipleFiles -->
<g id="edge3" class="edge">
<title>Load&#45;&gt;MultipleFiles</title>
<path fill="none" stroke="#000000" d="M330.3877,-747.9551C330.3877,-739.8828 330.3877,-730.1764 330.3877,-721.1817"/>
<polygon fill="#000000" stroke="#000000" points="333.8878,-721.0903 330.3877,-711.0904 326.8878,-721.0904 333.8878,-721.0903"/>
</g>
<!-- Scale_Raw -->
<g id="node12" class="node">
<title>Scale_Raw</title>
<path fill="#87cefa" stroke="#000000" d="M142.3877,-537C142.3877,-537 112.3877,-537 112.3877,-537 106.3877,-537 100.3877,-531 100.3877,-525 100.3877,-525 100.3877,-513 100.3877,-513 100.3877,-507 106.3877,-501 112.3877,-501 112.3877,-501 142.3877,-501 142.3877,-501 148.3877,-501 154.3877,-507 154.3877,-513 154.3877,-513 154.3877,-525 154.3877,-525 154.3877,-531 148.3877,-537 142.3877,-537"/>
<text text-anchor="middle" x="127.3877" y="-515.3" font-family="Helvetica,sans-Serif" font-size="14.00" fill="#000000">Scale</text>
</g>
<!-- MergeRuns&#45;&gt;Scale_Raw -->
<g id="edge5" class="edge">
<title>MergeRuns&#45;&gt;Scale_Raw</title>
<path fill="none" stroke="#000000" d="M226.4876,-587.9735C207.7162,-574.9086 182.1437,-557.1102 161.6782,-542.8662"/>
<polygon fill="#000000" stroke="#000000" points="163.4617,-539.8433 153.2546,-537.0034 159.4629,-545.5887 163.4617,-539.8433"/>
</g>
<!-- Scale_Raw&#45;&gt;CalculateFlatBackground -->
<g id="edge6" class="edge">
<title>Scale_Raw&#45;&gt;CalculateFlatBackground</title>
<path fill="none" stroke="#000000" d="M154.5332,-503.5186C172.0975,-493.5014 195.2797,-480.2804 214.9891,-469.0398"/>
<polygon fill="#000000" stroke="#000000" points="216.8151,-472.0277 223.7678,-464.0332 213.3472,-465.947 216.8151,-472.0277"/>
</g>
<!-- FindDetectorsOutsideLimits -->
<g id="node14" class="node">
<title>FindDetectorsOutsideLimits</title>
<path fill="#87cefa" stroke="#000000" d="M335.3877,-337C335.3877,-337 175.3877,-337 175.3877,-337 169.3877,-337 163.3877,-331 163.3877,-325 163.3877,-325 163.3877,-313 163.3877,-313 163.3877,-307 169.3877,-301 175.3877,-301 175.3877,-301 335.3877,-301 335.3877,-301 341.3877,-301 347.3877,-307 347.3877,-313 347.3877,-313 347.3877,-325 347.3877,-325 347.3877,-331 341.3877,-337 335.3877,-337"/>
<text text-anchor="middle" x="255.3877" y="-315.3" font-family="Helvetica,sans-Serif" font-size="14.00" fill="#000000">FindDetectorsOutsideLimits</text>
</g>
<!-- CalculateFlatBackground&#45;&gt;FindDetectorsOutsideLimits -->
<g id="edge9" class="edge">
<title>CalculateFlatBackground&#45;&gt;FindDetectorsOutsideLimits</title>
<path fill="none" stroke="#000000" d="M255.3877,-427.804C255.3877,-406.7735 255.3877,-371.9094 255.3877,-347.3236"/>
<polygon fill="#000000" stroke="#000000" points="258.8878,-347.1622 255.3877,-337.1622 251.8878,-347.1623 258.8878,-347.1622"/>
</g>
<!-- CalculateFlatBackground&#45;&gt;Integration -->
<g id="edge10" class="edge">
<title>CalculateFlatBackground&#45;&gt;Integration</title>
<path fill="none" stroke="#000000" d="M293.4551,-427.9551C314.1862,-418.128 340.0266,-405.8789 362.0471,-395.4407"/>
<polygon fill="#000000" stroke="#000000" points="363.6875,-398.5365 371.2245,-391.0904 360.6891,-392.2111 363.6875,-398.5365"/>
</g>
<!-- FindDetectorsOutsideLimits&#45;&gt;AutoScaleFactor -->
<g id="edge15" class="edge">
<title>FindDetectorsOutsideLimits&#45;&gt;AutoScaleFactor</title>
<path fill="none" stroke="#000000" d="M255.3877,-300.8554C255.3877,-276.8485 255.3877,-234.2861 255.3877,-206.1035"/>
<polygon fill="#000000" stroke="#000000" points="258.8878,-206.075 255.3877,-196.075 251.8878,-206.075 258.8878,-206.075"/>
<text text-anchor="middle" x="311.8877" y="-261.3" font-family="Helvetica,sans-Serif" font-size="14.00" fill="#000000">num_zero_spectra</text>
</g>
<!-- Integration&#45;&gt;UseAutoScale -->
<g id="edge12" class="edge">
<title>Integration&#45;&gt;UseAutoScale</title>
<path fill="none" stroke="#000000" d="M403.5176,-354.8409C394.2236,-322.2151 380.5216,-253.4154 415.3877,-214 416.7076,-212.5079 506.2635,-198.3957 571.4679,-188.2919"/>
<polygon fill="#000000" stroke="#000000" points="572.3594,-191.6957 581.7064,-186.7073 571.2887,-184.7781 572.3594,-191.6957"/>
</g>
<!-- SumSpectra -->
<g id="node16" class="node">
<title>SumSpectra</title>
<path fill="#87cefa" stroke="#000000" d="M509.3877,-283C509.3877,-283 441.3877,-283 441.3877,-283 435.3877,-283 429.3877,-277 429.3877,-271 429.3877,-271 429.3877,-259 429.3877,-259 429.3877,-253 435.3877,-247 441.3877,-247 441.3877,-247 509.3877,-247 509.3877,-247 515.3877,-247 521.3877,-253 521.3877,-259 521.3877,-259 521.3877,-271 521.3877,-271 521.3877,-277 515.3877,-283 509.3877,-283"/>
<text text-anchor="middle" x="475.3877" y="-261.3" font-family="Helvetica,sans-Serif" font-size="14.00" fill="#000000">SumSpectra</text>
</g>
<!-- Integration&#45;&gt;SumSpectra -->
<g id="edge13" class="edge">
<title>Integration&#45;&gt;SumSpectra</title>
<path fill="none" stroke="#000000" d="M420.5837,-354.6793C431.1245,-337.4307 447.0374,-311.3914 459.005,-291.8081"/>
<polygon fill="#000000" stroke="#000000" points="462.129,-293.4081 464.357,-283.0502 456.156,-289.7579 462.129,-293.4081"/>
</g>
<!-- SumSpectra&#45;&gt;AutoScaleFactor -->
<g id="edge16" class="edge">
<title>SumSpectra&#45;&gt;AutoScaleFactor</title>
<path fill="none" stroke="#000000" d="M429.8036,-246.9735C395.1434,-233.267 347.3091,-214.3507 310.5,-199.7944"/>
<polygon fill="#000000" stroke="#000000" points="311.4999,-196.4261 300.9134,-196.0034 308.9256,-202.9356 311.4999,-196.4261"/>
<text text-anchor="middle" x="392.8877" y="-217.8" font-family="Helvetica,sans-Serif" font-size="14.00" fill="#000000">sum</text>
</g>
<!-- Scale_Auto&#45;&gt;OutputWorkspace -->
<g id="edge18" class="edge">
<title>Scale_Auto&#45;&gt;OutputWorkspace</title>
<path fill="none" stroke="#000000" d="M610.0394,-72.9551C614.0358,-64.6196 618.8678,-54.5416 623.2967,-45.3042"/>
<polygon fill="#000000" stroke="#000000" points="626.5469,-46.6207 627.7142,-36.0904 620.2349,-43.5944 626.5469,-46.6207"/>
</g>
<!-- Scale_Manual&#45;&gt;OutputWorkspace -->
<g id="edge21" class="edge">
<title>Scale_Manual&#45;&gt;OutputWorkspace</title>
<path fill="none" stroke="#000000" d="M664.2416,-72.9551C659.9723,-64.5319 654.8012,-54.3292 650.0791,-45.0128"/>
<polygon fill="#000000" stroke="#000000" points="653.1997,-43.4277 645.5568,-36.0904 646.9559,-46.5924 653.1997,-43.4277"/>
</g>
</g>
</svg>
