<?xml version="1.0" encoding="UTF-8" standalone="no"?>
<!DOCTYPE svg PUBLIC "-//W3C//DTD SVG 1.1//EN"
 "http://www.w3.org/Graphics/SVG/1.1/DTD/svg11.dtd">
<!-- Generated by graphviz version 2.40.1 (20161225.0304)
 -->
<!-- Title: ISISIndirectDiffractionReduction Pages: 1 -->
<svg width="1485pt" height="1473pt"
 viewBox="0.00 0.00 1484.66 1473.00" xmlns="http://www.w3.org/2000/svg" xmlns:xlink="http://www.w3.org/1999/xlink">
<g id="graph0" class="graph" transform="scale(1 1) rotate(0) translate(4 1469)">
<title>ISISIndirectDiffractionReduction</title>
<polygon fill="#ffffff" stroke="transparent" points="-4,4 -4,-1469 1480.6614,-1469 1480.6614,4 -4,4"/>
<text text-anchor="middle" x="738.3307" y="-1449.8" font-family="Helvetica,sans-Serif" font-size="14.00" fill="#000000">ISISIndirectDiffractionReduction Flowchart</text>
<!-- need_to_unwrap -->
<g id="node1" class="node">
<title>need_to_unwrap</title>
<polygon fill="#32cd32" stroke="#000000" points="997.7173,-1264 836.1736,-1246 997.7173,-1228 1159.261,-1246 997.7173,-1264"/>
<text text-anchor="middle" x="997.7173" y="-1242.3" font-family="Helvetica,sans-Serif" font-size="14.00" fill="#000000">Need To Unwrap Monitor?</text>
</g>
<!-- unwrap_monitor -->
<g id="node18" class="node">
<title>unwrap_monitor</title>
<polygon fill="#20b2aa" stroke="#000000" points="1050.2173,-1139 799.2173,-1139 799.2173,-1086 1050.2173,-1086 1050.2173,-1139"/>
<text text-anchor="middle" x="924.7173" y="-1123.8" font-family="Helvetica,sans-Serif" font-size="14.00" fill="#000000">unwrap_monitor</text>
<text text-anchor="middle" x="924.7173" y="-1108.8" font-family="Helvetica,sans-Serif" font-size="14.00" fill="#000000">Unwraps monitor based on IPF options</text>
<text text-anchor="middle" x="924.7173" y="-1093.8" font-family="Helvetica,sans-Serif" font-size="14.00" fill="#000000">using UnwrapMonitor algorithm.</text>
</g>
<!-- need_to_unwrap&#45;&gt;unwrap_monitor -->
<g id="edge19" class="edge">
<title>need_to_unwrap&#45;&gt;unwrap_monitor</title>
<path fill="none" stroke="#000000" d="M988.3233,-1228.8205C977.2314,-1208.5361 958.4888,-1174.2603 944.2142,-1148.1553"/>
<polygon fill="#000000" stroke="#000000" points="947.24,-1146.3935 939.3713,-1139.2987 941.0982,-1149.7519 947.24,-1146.3935"/>
<text text-anchor="middle" x="987.7173" y="-1179.8" font-family="Helvetica,sans-Serif" font-size="14.00" fill="#000000">Yes</text>
</g>
<!-- process_monitor_efficiency -->
<g id="node19" class="node">
<title>process_monitor_efficiency</title>
<polygon fill="#20b2aa" stroke="#000000" points="1178.2173,-927 963.2173,-927 963.2173,-874 1178.2173,-874 1178.2173,-927"/>
<text text-anchor="middle" x="1070.7173" y="-911.8" font-family="Helvetica,sans-Serif" font-size="14.00" fill="#000000">process_monitor_efficiency</text>
<text text-anchor="middle" x="1070.7173" y="-896.8" font-family="Helvetica,sans-Serif" font-size="14.00" fill="#000000">Corrects for monitor efficiency by</text>
<text text-anchor="middle" x="1070.7173" y="-881.8" font-family="Helvetica,sans-Serif" font-size="14.00" fill="#000000">area, thickness and attenuation.</text>
</g>
<!-- need_to_unwrap&#45;&gt;process_monitor_efficiency -->
<g id="edge24" class="edge">
<title>need_to_unwrap&#45;&gt;process_monitor_efficiency</title>
<path fill="none" stroke="#000000" d="M1010.79,-1229.3882C1025.7487,-1209.2936 1049.4941,-1173.8136 1059.7173,-1139 1070.4921,-1102.3082 1071.4492,-994.6077 1071.1436,-937.321"/>
<polygon fill="#000000" stroke="#000000" points="1074.6431,-937.215 1071.0739,-927.2394 1067.6432,-937.2634 1074.6431,-937.215"/>
<text text-anchor="middle" x="1078.7173" y="-1046.3" font-family="Helvetica,sans-Serif" font-size="14.00" fill="#000000">No</text>
</g>
<!-- is_multi_frame -->
<g id="node2" class="node">
<title>is_multi_frame</title>
<polygon fill="#32cd32" stroke="#000000" points="699.7173,-376 574.7065,-358 699.7173,-340 824.7281,-358 699.7173,-376"/>
<text text-anchor="middle" x="699.7173" y="-354.3" font-family="Helvetica,sans-Serif" font-size="14.00" fill="#000000">Is Multiple Frames?</text>
</g>
<!-- fold_chopped -->
<g id="node24" class="node">
<title>fold_chopped</title>
<polygon fill="#20b2aa" stroke="#000000" points="724.7173,-289 552.7173,-289 552.7173,-236 724.7173,-236 724.7173,-289"/>
<text text-anchor="middle" x="638.7173" y="-273.8" font-family="Helvetica,sans-Serif" font-size="14.00" fill="#000000">fold_chopped</text>
<text text-anchor="middle" x="638.7173" y="-258.8" font-family="Helvetica,sans-Serif" font-size="14.00" fill="#000000">Folds multiple frames into</text>
<text text-anchor="middle" x="638.7173" y="-243.8" font-family="Helvetica,sans-Serif" font-size="14.00" fill="#000000">a single reduction.</text>
</g>
<!-- is_multi_frame&#45;&gt;fold_chopped -->
<g id="edge38" class="edge">
<title>is_multi_frame&#45;&gt;fold_chopped</title>
<path fill="none" stroke="#000000" d="M689.0919,-341.3652C681.3876,-329.3035 670.6867,-312.5504 661.1282,-297.5859"/>
<polygon fill="#000000" stroke="#000000" points="663.9963,-295.5742 655.6636,-289.0307 658.097,-299.3423 663.9963,-295.5742"/>
<text text-anchor="middle" x="688.7173" y="-310.8" font-family="Helvetica,sans-Serif" font-size="14.00" fill="#000000">Yes</text>
</g>
<!-- rename_reduction -->
<g id="node25" class="node">
<title>rename_reduction</title>
<polygon fill="#20b2aa" stroke="#000000" points="801.2173,-199 598.2173,-199 598.2173,-146 801.2173,-146 801.2173,-199"/>
<text text-anchor="middle" x="699.7173" y="-183.8" font-family="Helvetica,sans-Serif" font-size="14.00" fill="#000000">rename_reduction</text>
<text text-anchor="middle" x="699.7173" y="-168.8" font-family="Helvetica,sans-Serif" font-size="14.00" fill="#000000">Renames reduced workspaces</text>
<text text-anchor="middle" x="699.7173" y="-153.8" font-family="Helvetica,sans-Serif" font-size="14.00" fill="#000000">as per the IPF options.</text>
</g>
<!-- is_multi_frame&#45;&gt;rename_reduction -->
<g id="edge40" class="edge">
<title>is_multi_frame&#45;&gt;rename_reduction</title>
<path fill="none" stroke="#000000" d="M710.5371,-341.5235C718.7131,-328.0322 729.2625,-308.119 733.7173,-289 739.0626,-266.0589 739.449,-258.8476 733.7173,-236 731.3234,-226.4577 727.1899,-216.7833 722.6121,-207.9592"/>
<polygon fill="#000000" stroke="#000000" points="725.6279,-206.1802 717.7349,-199.1126 719.4978,-209.5598 725.6279,-206.1802"/>
<text text-anchor="middle" x="746.7173" y="-258.8" font-family="Helvetica,sans-Serif" font-size="14.00" fill="#000000">No</text>
</g>
<!-- InputFiles -->
<g id="node3" class="node">
<title>InputFiles</title>
<ellipse fill="#f0e68c" stroke="#000000" cx="953.7173" cy="-1424" rx="48.9926" ry="18"/>
<text text-anchor="middle" x="953.7173" y="-1420.3" font-family="Helvetica,sans-Serif" font-size="14.00" fill="#000000">InputFiles</text>
</g>
<!-- load_files -->
<g id="node15" class="node">
<title>load_files</title>
<polygon fill="#20b2aa" stroke="#000000" points="1325.2173,-1369 1050.2173,-1369 1050.2173,-1301 1325.2173,-1301 1325.2173,-1369"/>
<text text-anchor="middle" x="1187.7173" y="-1353.8" font-family="Helvetica,sans-Serif" font-size="14.00" fill="#000000">load_files</text>
<text text-anchor="middle" x="1187.7173" y="-1338.8" font-family="Helvetica,sans-Serif" font-size="14.00" fill="#000000">Loads run files and instrument parameters.</text>
<text text-anchor="middle" x="1187.7173" y="-1323.8" font-family="Helvetica,sans-Serif" font-size="14.00" fill="#000000">Chops data into multiple frames if required.</text>
<text text-anchor="middle" x="1187.7173" y="-1308.8" font-family="Helvetica,sans-Serif" font-size="14.00" fill="#000000">Summs runs if required.</text>
</g>
<!-- InputFiles&#45;&gt;load_files -->
<g id="edge1" class="edge">
<title>InputFiles&#45;&gt;load_files</title>
<path fill="none" stroke="#000000" d="M987.7429,-1411.0586C1014.3308,-1400.9461 1052.6969,-1386.3539 1088.728,-1372.6498"/>
<polygon fill="#000000" stroke="#000000" points="1090.2189,-1375.8274 1098.3215,-1369.001 1087.7304,-1369.2846 1090.2189,-1375.8274"/>
</g>
<!-- SumFiles -->
<g id="node4" class="node">
<title>SumFiles</title>
<ellipse fill="#f0e68c" stroke="#000000" cx="1068.7173" cy="-1424" rx="48.1917" ry="18"/>
<text text-anchor="middle" x="1068.7173" y="-1420.3" font-family="Helvetica,sans-Serif" font-size="14.00" fill="#000000">SumFiles</text>
</g>
<!-- SumFiles&#45;&gt;load_files -->
<g id="edge5" class="edge">
<title>SumFiles&#45;&gt;load_files</title>
<path fill="none" stroke="#000000" d="M1090.2673,-1407.8828C1102.587,-1398.6689 1118.6321,-1386.6688 1134.1358,-1375.0735"/>
<polygon fill="#000000" stroke="#000000" points="1136.2595,-1377.8559 1142.1713,-1369.0638 1132.067,-1372.2502 1136.2595,-1377.8559"/>
</g>
<!-- CalibrationFile -->
<g id="node5" class="node">
<title>CalibrationFile</title>
<ellipse fill="#f0e68c" stroke="#000000" cx="267.7173" cy="-996" rx="66.8882" ry="18"/>
<text text-anchor="middle" x="267.7173" y="-992.3" font-family="Helvetica,sans-Serif" font-size="14.00" fill="#000000">CalibrationFile</text>
</g>
<!-- AlignDetectors -->
<g id="node34" class="node">
<title>AlignDetectors</title>
<ellipse fill="#d3d3d3" stroke="#000000" cx="270.7173" cy="-900.5" rx="67.6881" ry="18"/>
<text text-anchor="middle" x="270.7173" y="-896.8" font-family="Helvetica,sans-Serif" font-size="14.00" fill="#000000">AlignDetectors</text>
</g>
<!-- CalibrationFile&#45;&gt;AlignDetectors -->
<g id="edge8" class="edge">
<title>CalibrationFile&#45;&gt;AlignDetectors</title>
<path fill="none" stroke="#000000" d="M268.2957,-977.5866C268.7301,-963.7585 269.3329,-944.5711 269.8283,-928.7988"/>
<polygon fill="#000000" stroke="#000000" points="273.335,-928.638 270.1508,-918.533 266.3385,-928.4181 273.335,-928.638"/>
</g>
<!-- DiffractionFocussing -->
<g id="node35" class="node">
<title>DiffractionFocussing</title>
<ellipse fill="#d3d3d3" stroke="#000000" cx="366.7173" cy="-796.5" rx="90.1842" ry="18"/>
<text text-anchor="middle" x="366.7173" y="-792.8" font-family="Helvetica,sans-Serif" font-size="14.00" fill="#000000">DiffractionFocussing</text>
</g>
<!-- CalibrationFile&#45;&gt;DiffractionFocussing -->
<g id="edge10" class="edge">
<title>CalibrationFile&#45;&gt;DiffractionFocussing</title>
<path fill="none" stroke="#000000" d="M295.6701,-979.413C313.5686,-967.2415 335.6301,-949.0293 347.7173,-927 365.2182,-895.104 368.3133,-852.5235 368.1435,-824.8124"/>
<polygon fill="#000000" stroke="#000000" points="371.6388,-824.547 367.9294,-814.6228 364.6404,-824.6941 371.6388,-824.547"/>
</g>
<!-- Instrument -->
<g id="node6" class="node">
<title>Instrument</title>
<ellipse fill="#f0e68c" stroke="#000000" cx="1187.7173" cy="-1424" rx="52.7911" ry="18"/>
<text text-anchor="middle" x="1187.7173" y="-1420.3" font-family="Helvetica,sans-Serif" font-size="14.00" fill="#000000">Instrument</text>
</g>
<!-- Instrument&#45;&gt;load_files -->
<g id="edge3" class="edge">
<title>Instrument&#45;&gt;load_files</title>
<path fill="none" stroke="#000000" d="M1187.7173,-1405.9895C1187.7173,-1398.2309 1187.7173,-1388.7831 1187.7173,-1379.3447"/>
<polygon fill="#000000" stroke="#000000" points="1191.2174,-1379.187 1187.7173,-1369.187 1184.2174,-1379.187 1191.2174,-1379.187"/>
</g>
<!-- Mode -->
<g id="node7" class="node">
<title>Mode</title>
<ellipse fill="#f0e68c" stroke="#000000" cx="1291.7173" cy="-1424" rx="33.2948" ry="18"/>
<text text-anchor="middle" x="1291.7173" y="-1420.3" font-family="Helvetica,sans-Serif" font-size="14.00" fill="#000000">Mode</text>
</g>
<!-- Mode&#45;&gt;load_files -->
<g id="edge4" class="edge">
<title>Mode&#45;&gt;load_files</title>
<path fill="none" stroke="#000000" d="M1273.6019,-1408.4974C1262.9964,-1399.4216 1249.0603,-1387.4955 1235.5081,-1375.8979"/>
<polygon fill="#000000" stroke="#000000" points="1237.4745,-1372.9741 1227.6011,-1369.1313 1232.9232,-1378.2925 1237.4745,-1372.9741"/>
</g>
<!-- SpectraRange -->
<g id="node8" class="node">
<title>SpectraRange</title>
<ellipse fill="#f0e68c" stroke="#000000" cx="1409.7173" cy="-1424" rx="66.8882" ry="18"/>
<text text-anchor="middle" x="1409.7173" y="-1420.3" font-family="Helvetica,sans-Serif" font-size="14.00" fill="#000000">SpectraRange</text>
</g>
<!-- SpectraRange&#45;&gt;load_files -->
<g id="edge2" class="edge">
<title>SpectraRange&#45;&gt;load_files</title>
<path fill="none" stroke="#000000" d="M1372.3091,-1409.003C1347.5659,-1399.0835 1313.9435,-1385.6042 1282.1712,-1372.8667"/>
<polygon fill="#000000" stroke="#000000" points="1283.4109,-1369.5929 1272.8266,-1369.1204 1280.8061,-1376.0903 1283.4109,-1369.5929"/>
</g>
<!-- RebinParam -->
<g id="node9" class="node">
<title>RebinParam</title>
<ellipse fill="#f0e68c" stroke="#000000" cx="647.7173" cy="-796.5" rx="59.5901" ry="18"/>
<text text-anchor="middle" x="647.7173" y="-792.8" font-family="Helvetica,sans-Serif" font-size="14.00" fill="#000000">RebinParam</text>
</g>
<!-- get_multi_frame_rebin -->
<g id="node16" class="node">
<title>get_multi_frame_rebin</title>
<polygon fill="#20b2aa" stroke="#000000" points="588.7173,-733 382.7173,-733 382.7173,-680 588.7173,-680 588.7173,-733"/>
<text text-anchor="middle" x="485.7173" y="-717.8" font-family="Helvetica,sans-Serif" font-size="14.00" fill="#000000">get_multi_frame_rebin</text>
<text text-anchor="middle" x="485.7173" y="-702.8" font-family="Helvetica,sans-Serif" font-size="14.00" fill="#000000">Gets a rebin string for rebinning</text>
<text text-anchor="middle" x="485.7173" y="-687.8" font-family="Helvetica,sans-Serif" font-size="14.00" fill="#000000">multiple frames.</text>
</g>
<!-- RebinParam&#45;&gt;get_multi_frame_rebin -->
<g id="edge13" class="edge">
<title>RebinParam&#45;&gt;get_multi_frame_rebin</title>
<path fill="none" stroke="#000000" d="M619.1279,-780.617C598.0019,-768.8803 568.5402,-752.5127 542.6751,-738.1432"/>
<polygon fill="#000000" stroke="#000000" points="544.1372,-734.9517 533.6959,-733.1548 540.7377,-741.0708 544.1372,-734.9517"/>
</g>
<!-- rebin_reduction -->
<g id="node22" class="node">
<title>rebin_reduction</title>
<polygon fill="#20b2aa" stroke="#000000" points="790.2173,-556 609.2173,-556 609.2173,-503 790.2173,-503 790.2173,-556"/>
<text text-anchor="middle" x="699.7173" y="-540.8" font-family="Helvetica,sans-Serif" font-size="14.00" fill="#000000">rebin_reduction</text>
<text text-anchor="middle" x="699.7173" y="-525.8" font-family="Helvetica,sans-Serif" font-size="14.00" fill="#000000">Rebins the reduction based</text>
<text text-anchor="middle" x="699.7173" y="-510.8" font-family="Helvetica,sans-Serif" font-size="14.00" fill="#000000">on the RebinParam option.</text>
</g>
<!-- RebinParam&#45;&gt;rebin_reduction -->
<g id="edge31" class="edge">
<title>RebinParam&#45;&gt;rebin_reduction</title>
<path fill="none" stroke="#000000" d="M651.3167,-778.4126C657.4194,-747.706 670.1626,-683.4104 680.7173,-629 684.7581,-608.1692 689.2106,-584.8715 692.789,-566.0595"/>
<polygon fill="#000000" stroke="#000000" points="696.2504,-566.5917 694.6789,-556.1141 689.3735,-565.2849 696.2504,-566.5917"/>
</g>
<!-- GroupingPolicy -->
<g id="node10" class="node">
<title>GroupingPolicy</title>
<ellipse fill="#f0e68c" stroke="#000000" cx="520.7173" cy="-529.5" rx="70.6878" ry="18"/>
<text text-anchor="middle" x="520.7173" y="-525.8" font-family="Helvetica,sans-Serif" font-size="14.00" fill="#000000">GroupingPolicy</text>
</g>
<!-- group_spectra -->
<g id="node23" class="node">
<title>group_spectra</title>
<polygon fill="#20b2aa" stroke="#000000" points="776.7173,-466 622.7173,-466 622.7173,-413 776.7173,-413 776.7173,-466"/>
<text text-anchor="middle" x="699.7173" y="-450.8" font-family="Helvetica,sans-Serif" font-size="14.00" fill="#000000">group_spectra</text>
<text text-anchor="middle" x="699.7173" y="-435.8" font-family="Helvetica,sans-Serif" font-size="14.00" fill="#000000">Groups spectra based</text>
<text text-anchor="middle" x="699.7173" y="-420.8" font-family="Helvetica,sans-Serif" font-size="14.00" fill="#000000">on the GroupingPolicy.</text>
</g>
<!-- GroupingPolicy&#45;&gt;group_spectra -->
<g id="edge35" class="edge">
<title>GroupingPolicy&#45;&gt;group_spectra</title>
<path fill="none" stroke="#000000" d="M552.7189,-513.4098C576.3112,-501.5477 609.1473,-485.038 637.8022,-470.6305"/>
<polygon fill="#000000" stroke="#000000" points="639.5798,-473.6543 646.9418,-466.0352 636.4353,-467.4003 639.5798,-473.6543"/>
</g>
<!-- OutputWorkspace -->
<g id="node11" class="node">
<title>OutputWorkspace</title>
<ellipse fill="#f0e68c" stroke="#000000" cx="699.7173" cy="-18" rx="81.7856" ry="18"/>
<text text-anchor="middle" x="699.7173" y="-14.3" font-family="Helvetica,sans-Serif" font-size="14.00" fill="#000000">OutputWorkspace</text>
</g>
<!-- ConvertUnits_unwrap_monitor -->
<g id="node12" class="node">
<title>ConvertUnits_unwrap_monitor</title>
<path fill="#87cefa" stroke="#000000" d="M806.2173,-1014C806.2173,-1014 735.2173,-1014 735.2173,-1014 729.2173,-1014 723.2173,-1008 723.2173,-1002 723.2173,-1002 723.2173,-990 723.2173,-990 723.2173,-984 729.2173,-978 735.2173,-978 735.2173,-978 806.2173,-978 806.2173,-978 812.2173,-978 818.2173,-984 818.2173,-990 818.2173,-990 818.2173,-1002 818.2173,-1002 818.2173,-1008 812.2173,-1014 806.2173,-1014"/>
<text text-anchor="middle" x="770.7173" y="-992.3" font-family="Helvetica,sans-Serif" font-size="14.00" fill="#000000">ConvertUnits</text>
</g>
<!-- ConvertUnits_unwrap_monitor&#45;&gt;process_monitor_efficiency -->
<g id="edge23" class="edge">
<title>ConvertUnits_unwrap_monitor&#45;&gt;process_monitor_efficiency</title>
<path fill="none" stroke="#000000" d="M818.2532,-980.8677C860.9483,-967.2765 924.8583,-946.9318 977.6919,-930.1131"/>
<polygon fill="#000000" stroke="#000000" points="978.9535,-933.3846 987.4206,-927.0161 976.8301,-926.7144 978.9535,-933.3846"/>
</g>
<!-- ConvertUnits_dSpacing -->
<g id="node13" class="node">
<title>ConvertUnits_dSpacing</title>
<path fill="#87cefa" stroke="#000000" d="M893.2173,-629C893.2173,-629 822.2173,-629 822.2173,-629 816.2173,-629 810.2173,-623 810.2173,-617 810.2173,-617 810.2173,-605 810.2173,-605 810.2173,-599 816.2173,-593 822.2173,-593 822.2173,-593 893.2173,-593 893.2173,-593 899.2173,-593 905.2173,-599 905.2173,-605 905.2173,-605 905.2173,-617 905.2173,-617 905.2173,-623 899.2173,-629 893.2173,-629"/>
<text text-anchor="middle" x="857.7173" y="-607.3" font-family="Helvetica,sans-Serif" font-size="14.00" fill="#000000">ConvertUnits</text>
</g>
<!-- ConvertUnits_dSpacing&#45;&gt;rebin_reduction -->
<g id="edge30" class="edge">
<title>ConvertUnits_dSpacing&#45;&gt;rebin_reduction</title>
<path fill="none" stroke="#000000" d="M822.652,-592.9125C804.2759,-583.4337 781.2496,-571.5562 760.1086,-560.6512"/>
<polygon fill="#000000" stroke="#000000" points="761.6744,-557.5207 751.1826,-556.047 758.4654,-563.7419 761.6744,-557.5207"/>
</g>
<!-- GroupWorkspaces -->
<g id="node14" class="node">
<title>GroupWorkspaces</title>
<path fill="#87cefa" stroke="#000000" d="M752.7173,-109C752.7173,-109 646.7173,-109 646.7173,-109 640.7173,-109 634.7173,-103 634.7173,-97 634.7173,-97 634.7173,-85 634.7173,-85 634.7173,-79 640.7173,-73 646.7173,-73 646.7173,-73 752.7173,-73 752.7173,-73 758.7173,-73 764.7173,-79 764.7173,-85 764.7173,-85 764.7173,-97 764.7173,-97 764.7173,-103 758.7173,-109 752.7173,-109"/>
<text text-anchor="middle" x="699.7173" y="-87.3" font-family="Helvetica,sans-Serif" font-size="14.00" fill="#000000">GroupWorkspaces</text>
</g>
<!-- GroupWorkspaces&#45;&gt;OutputWorkspace -->
<g id="edge42" class="edge">
<title>GroupWorkspaces&#45;&gt;OutputWorkspace</title>
<path fill="none" stroke="#000000" d="M699.7173,-72.9551C699.7173,-64.8828 699.7173,-55.1764 699.7173,-46.1817"/>
<polygon fill="#000000" stroke="#000000" points="703.2174,-46.0903 699.7173,-36.0904 696.2174,-46.0904 703.2174,-46.0903"/>
</g>
<!-- load_files&#45;&gt;need_to_unwrap -->
<g id="edge18" class="edge">
<title>load_files&#45;&gt;need_to_unwrap</title>
<path fill="none" stroke="#000000" d="M1115.0732,-1300.972C1089.04,-1288.7775 1060.6323,-1275.4707 1038.2875,-1265.0039"/>
<polygon fill="#000000" stroke="#000000" points="1039.6473,-1261.776 1029.1069,-1260.7036 1036.678,-1268.115 1039.6473,-1261.776"/>
</g>
<!-- identify_bad_detectors -->
<g id="node17" class="node">
<title>identify_bad_detectors</title>
<polygon fill="#20b2aa" stroke="#000000" points="1331.7173,-1210 1093.7173,-1210 1093.7173,-1157 1331.7173,-1157 1331.7173,-1210"/>
<text text-anchor="middle" x="1212.7173" y="-1194.8" font-family="Helvetica,sans-Serif" font-size="14.00" fill="#000000">identify_bad_detectors</text>
<text text-anchor="middle" x="1212.7173" y="-1179.8" font-family="Helvetica,sans-Serif" font-size="14.00" fill="#000000">Gets a list of noisy detectors using</text>
<text text-anchor="middle" x="1212.7173" y="-1164.8" font-family="Helvetica,sans-Serif" font-size="14.00" fill="#000000">the IdentifyNoisyDetectors algorithm.</text>
</g>
<!-- load_files&#45;&gt;identify_bad_detectors -->
<g id="edge16" class="edge">
<title>load_files&#45;&gt;identify_bad_detectors</title>
<path fill="none" stroke="#000000" d="M1193.3902,-1300.6223C1197.3483,-1276.636 1202.6239,-1244.666 1206.6632,-1220.1879"/>
<polygon fill="#000000" stroke="#000000" points="1210.1362,-1220.6375 1208.3112,-1210.2011 1203.2296,-1219.4978 1210.1362,-1220.6375"/>
</g>
<!-- has_calib_file -->
<g id="node33" class="node">
<title>has_calib_file</title>
<polygon fill="#32cd32" stroke="#000000" points="485.7173,-1014 352.6613,-996 485.7173,-978 618.7733,-996 485.7173,-1014"/>
<text text-anchor="middle" x="485.7173" y="-992.3" font-family="Helvetica,sans-Serif" font-size="14.00" fill="#000000">Using Calibration File</text>
</g>
<!-- load_files&#45;&gt;has_calib_file -->
<g id="edge6" class="edge">
<title>load_files&#45;&gt;has_calib_file</title>
<path fill="none" stroke="#000000" d="M1050.1456,-1316.2107C867.2772,-1288.0523 559.4732,-1228.4714 493.7173,-1139 469.0853,-1105.4842 473.228,-1054.7124 479.0581,-1023.5458"/>
<polygon fill="#000000" stroke="#000000" points="482.5585,-1023.9001 481.1462,-1013.3998 475.7022,-1022.4889 482.5585,-1023.9001"/>
</g>
<!-- multi_frame_rebin_string -->
<g id="node26" class="node">
<title>multi_frame_rebin_string</title>
<polygon fill="#c0c0c0" stroke="#000000" points="335.6522,-629 68.5054,-629 -.2176,-593 266.9292,-593 335.6522,-629"/>
<text text-anchor="middle" x="167.7173" y="-607.3" font-family="Times,serif" font-size="14.00" fill="#000000">Multiple Frame Rebin String</text>
</g>
<!-- get_multi_frame_rebin&#45;&gt;multi_frame_rebin_string -->
<g id="edge14" class="edge">
<title>get_multi_frame_rebin&#45;&gt;multi_frame_rebin_string</title>
<path fill="none" stroke="#000000" d="M397.1366,-679.8979C346.6942,-664.7494 284.4022,-646.0422 237.462,-631.9453"/>
<polygon fill="#000000" stroke="#000000" points="238.2724,-628.5344 227.6883,-629.0102 236.259,-635.2386 238.2724,-628.5344"/>
</g>
<!-- multi_frame_num_bins -->
<g id="node27" class="node">
<title>multi_frame_num_bins</title>
<polygon fill="#c0c0c0" stroke="#000000" points="671.9991,-629 418.6174,-629 353.4355,-593 606.8172,-593 671.9991,-629"/>
<text text-anchor="middle" x="512.7173" y="-607.3" font-family="Times,serif" font-size="14.00" fill="#000000">Maximum Number of Bins</text>
</g>
<!-- get_multi_frame_rebin&#45;&gt;multi_frame_num_bins -->
<g id="edge15" class="edge">
<title>get_multi_frame_rebin&#45;&gt;multi_frame_num_bins</title>
<path fill="none" stroke="#000000" d="M493.2383,-679.8979C496.8581,-667.0945 501.1966,-651.7491 504.8594,-638.7936"/>
<polygon fill="#000000" stroke="#000000" points="508.2727,-639.5852 507.6254,-629.0102 501.5368,-637.6807 508.2727,-639.5852"/>
</g>
<!-- masked_detectors -->
<g id="node28" class="node">
<title>masked_detectors</title>
<polygon fill="#c0c0c0" stroke="#000000" points="1323.2992,-1068 1147.3881,-1068 1102.1354,-1032 1278.0465,-1032 1323.2992,-1068"/>
<text text-anchor="middle" x="1212.7173" y="-1046.3" font-family="Times,serif" font-size="14.00" fill="#000000">Masked Detectors</text>
</g>
<!-- identify_bad_detectors&#45;&gt;masked_detectors -->
<g id="edge17" class="edge">
<title>identify_bad_detectors&#45;&gt;masked_detectors</title>
<path fill="none" stroke="#000000" d="M1212.7173,-1156.8051C1212.7173,-1134.0771 1212.7173,-1101.5172 1212.7173,-1078.3325"/>
<polygon fill="#000000" stroke="#000000" points="1216.2174,-1078.0988 1212.7173,-1068.0988 1209.2174,-1078.0988 1216.2174,-1078.0988"/>
</g>
<!-- unwrap_monitor&#45;&gt;ConvertUnits_unwrap_monitor -->
<g id="edge20" class="edge">
<title>unwrap_monitor&#45;&gt;ConvertUnits_unwrap_monitor</title>
<path fill="none" stroke="#000000" d="M889.3866,-1085.7725C863.3776,-1066.0969 828.2919,-1039.5548 803.0254,-1020.4409"/>
<polygon fill="#000000" stroke="#000000" points="804.9472,-1017.506 794.8605,-1014.2642 800.724,-1023.0886 804.9472,-1017.506"/>
</g>
<!-- scale_monitor -->
<g id="node20" class="node">
<title>scale_monitor</title>
<polygon fill="#20b2aa" stroke="#000000" points="1148.7173,-823 992.7173,-823 992.7173,-770 1148.7173,-770 1148.7173,-823"/>
<text text-anchor="middle" x="1070.7173" y="-807.8" font-family="Helvetica,sans-Serif" font-size="14.00" fill="#000000">scale_monitor</text>
<text text-anchor="middle" x="1070.7173" y="-792.8" font-family="Helvetica,sans-Serif" font-size="14.00" fill="#000000">Applies monitor scaling</text>
<text text-anchor="middle" x="1070.7173" y="-777.8" font-family="Helvetica,sans-Serif" font-size="14.00" fill="#000000">as per the IPF.</text>
</g>
<!-- process_monitor_efficiency&#45;&gt;scale_monitor -->
<g id="edge25" class="edge">
<title>process_monitor_efficiency&#45;&gt;scale_monitor</title>
<path fill="none" stroke="#000000" d="M1070.7173,-873.9873C1070.7173,-861.7358 1070.7173,-846.9766 1070.7173,-833.6407"/>
<polygon fill="#000000" stroke="#000000" points="1074.2174,-833.3259 1070.7173,-823.3259 1067.2174,-833.3259 1074.2174,-833.3259"/>
</g>
<!-- scale_detectors -->
<g id="node21" class="node">
<title>scale_detectors</title>
<polygon fill="#20b2aa" stroke="#000000" points="1149.2173,-733 992.2173,-733 992.2173,-680 1149.2173,-680 1149.2173,-733"/>
<text text-anchor="middle" x="1070.7173" y="-717.8" font-family="Helvetica,sans-Serif" font-size="14.00" fill="#000000">scale_detectors</text>
<text text-anchor="middle" x="1070.7173" y="-702.8" font-family="Helvetica,sans-Serif" font-size="14.00" fill="#000000">Scales detectors by the</text>
<text text-anchor="middle" x="1070.7173" y="-687.8" font-family="Helvetica,sans-Serif" font-size="14.00" fill="#000000">monitor intensity.</text>
</g>
<!-- scale_monitor&#45;&gt;scale_detectors -->
<g id="edge26" class="edge">
<title>scale_monitor&#45;&gt;scale_detectors</title>
<path fill="none" stroke="#000000" d="M1070.7173,-769.9838C1070.7173,-761.6358 1070.7173,-752.2605 1070.7173,-743.3296"/>
<polygon fill="#000000" stroke="#000000" points="1074.2174,-743.1376 1070.7173,-733.1377 1067.2174,-743.1377 1074.2174,-743.1376"/>
</g>
<!-- scale_detectors&#45;&gt;ConvertUnits_dSpacing -->
<g id="edge27" class="edge">
<title>scale_detectors&#45;&gt;ConvertUnits_dSpacing</title>
<path fill="none" stroke="#000000" d="M1012.749,-679.9807C990.0067,-669.6264 963.6656,-657.6951 939.7173,-647 929.6091,-642.4858 918.7803,-637.6977 908.4137,-633.1374"/>
<polygon fill="#000000" stroke="#000000" points="909.6205,-629.8448 899.0572,-629.0278 906.8054,-636.2538 909.6205,-629.8448"/>
</g>
<!-- rebin_reduction&#45;&gt;group_spectra -->
<g id="edge34" class="edge">
<title>rebin_reduction&#45;&gt;group_spectra</title>
<path fill="none" stroke="#000000" d="M699.7173,-502.9838C699.7173,-494.6358 699.7173,-485.2605 699.7173,-476.3296"/>
<polygon fill="#000000" stroke="#000000" points="703.2174,-476.1376 699.7173,-466.1377 696.2174,-476.1377 703.2174,-476.1376"/>
</g>
<!-- group_spectra&#45;&gt;is_multi_frame -->
<g id="edge37" class="edge">
<title>group_spectra&#45;&gt;is_multi_frame</title>
<path fill="none" stroke="#000000" d="M699.7173,-412.8139C699.7173,-404.4576 699.7173,-395.2021 699.7173,-386.7124"/>
<polygon fill="#000000" stroke="#000000" points="703.2174,-386.4936 699.7173,-376.4936 696.2174,-386.4936 703.2174,-386.4936"/>
</g>
<!-- fold_chopped&#45;&gt;rename_reduction -->
<g id="edge39" class="edge">
<title>fold_chopped&#45;&gt;rename_reduction</title>
<path fill="none" stroke="#000000" d="M656.6894,-235.9838C662.7165,-227.0913 669.5336,-217.0333 675.9352,-207.5883"/>
<polygon fill="#000000" stroke="#000000" points="678.9496,-209.3792 681.6629,-199.1377 673.1551,-205.4518 678.9496,-209.3792"/>
</g>
<!-- rename_reduction&#45;&gt;GroupWorkspaces -->
<g id="edge41" class="edge">
<title>rename_reduction&#45;&gt;GroupWorkspaces</title>
<path fill="none" stroke="#000000" d="M699.7173,-145.8139C699.7173,-137.4576 699.7173,-128.2021 699.7173,-119.7124"/>
<polygon fill="#000000" stroke="#000000" points="703.2174,-119.4936 699.7173,-109.4936 696.2174,-119.4936 703.2174,-119.4936"/>
</g>
<!-- multi_frame_rebin_string&#45;&gt;rebin_reduction -->
<g id="edge32" class="edge">
<title>multi_frame_rebin_string&#45;&gt;rebin_reduction</title>
<path fill="none" stroke="#000000" d="M277.869,-598.7276C380.2378,-587.0259 526.4217,-569.4869 599.0298,-556.1862"/>
<polygon fill="#000000" stroke="#000000" points="600.0233,-559.5601 609.1946,-554.2557 598.7172,-552.683 600.0233,-559.5601"/>
</g>
<!-- multi_frame_num_bins&#45;&gt;rebin_reduction -->
<g id="edge33" class="edge">
<title>multi_frame_num_bins&#45;&gt;rebin_reduction</title>
<path fill="none" stroke="#000000" d="M554.2187,-592.9125C576.3559,-583.2645 604.1952,-571.1313 629.5798,-560.0679"/>
<polygon fill="#000000" stroke="#000000" points="631.0371,-563.2509 638.8059,-556.047 628.2403,-556.8338 631.0371,-563.2509"/>
</g>
<!-- masked_detectors&#45;&gt;group_spectra -->
<g id="edge36" class="edge">
<title>masked_detectors&#45;&gt;group_spectra</title>
<path fill="none" stroke="#000000" d="M1211.8172,-1031.6758C1210.9335,-1012.0837 1209.7173,-980.1042 1209.7173,-952.5 1209.7173,-952.5 1209.7173,-952.5 1209.7173,-529.5 1209.7173,-487.1078 932.9165,-458.3302 787.1606,-446.1153"/>
<polygon fill="#000000" stroke="#000000" points="787.1533,-442.6028 776.8983,-445.2645 786.5749,-449.5789 787.1533,-442.6028"/>
</g>
<!-- e_mode_unwrap_monitor -->
<g id="node29" class="node">
<title>e_mode_unwrap_monitor</title>
<polygon fill="#c0c0c0" stroke="#000000" points="604.2289,-1130.5 523.8763,-1130.5 503.2057,-1094.5 583.5583,-1094.5 604.2289,-1130.5"/>
<text text-anchor="middle" x="553.7173" y="-1108.8" font-family="Times,serif" font-size="14.00" fill="#000000">Elastic</text>
</g>
<!-- e_mode_unwrap_monitor&#45;&gt;ConvertUnits_unwrap_monitor -->
<g id="edge22" class="edge">
<title>e_mode_unwrap_monitor&#45;&gt;ConvertUnits_unwrap_monitor</title>
<path fill="none" stroke="#000000" d="M579.3954,-1094.4466C604.6883,-1077.1278 644.7917,-1050.8914 681.7173,-1032 691.8167,-1026.8331 702.8369,-1021.8689 713.5745,-1017.3649"/>
<polygon fill="#000000" stroke="#000000" points="714.987,-1020.5685 722.9075,-1013.5318 712.3276,-1014.0934 714.987,-1020.5685"/>
<text text-anchor="middle" x="703.7173" y="-1046.3" font-family="Helvetica,sans-Serif" font-size="14.00" fill="#000000">EMode</text>
</g>
<!-- unit_unwrap_monitor -->
<g id="node30" class="node">
<title>unit_unwrap_monitor</title>
<polygon fill="#c0c0c0" stroke="#000000" points="780.9053,-1130.5 654.9349,-1130.5 622.5293,-1094.5 748.4997,-1094.5 780.9053,-1130.5"/>
<text text-anchor="middle" x="701.7173" y="-1108.8" font-family="Times,serif" font-size="14.00" fill="#000000">Wavelength</text>
</g>
<!-- unit_unwrap_monitor&#45;&gt;ConvertUnits_unwrap_monitor -->
<g id="edge21" class="edge">
<title>unit_unwrap_monitor&#45;&gt;ConvertUnits_unwrap_monitor</title>
<path fill="none" stroke="#000000" d="M712.4985,-1094.2969C723.841,-1075.1463 741.8127,-1044.8026 754.7898,-1022.892"/>
<polygon fill="#000000" stroke="#000000" points="757.9272,-1024.463 760.0118,-1014.0753 751.9043,-1020.8958 757.9272,-1024.463"/>
<text text-anchor="middle" x="767.7173" y="-1046.3" font-family="Helvetica,sans-Serif" font-size="14.00" fill="#000000">Target</text>
</g>
<!-- e_mode -->
<g id="node31" class="node">
<title>e_mode</title>
<polygon fill="#c0c0c0" stroke="#000000" points="974.2289,-724.5 893.8763,-724.5 873.2057,-688.5 953.5583,-688.5 974.2289,-724.5"/>
<text text-anchor="middle" x="923.7173" y="-702.8" font-family="Times,serif" font-size="14.00" fill="#000000">Elastic</text>
</g>
<!-- e_mode&#45;&gt;ConvertUnits_dSpacing -->
<g id="edge29" class="edge">
<title>e_mode&#45;&gt;ConvertUnits_dSpacing</title>
<path fill="none" stroke="#000000" d="M910.9918,-688.0866C901.0676,-673.7266 887.1493,-653.5872 876.0277,-637.4946"/>
<polygon fill="#000000" stroke="#000000" points="878.7446,-635.2697 870.1799,-629.033 872.986,-639.2494 878.7446,-635.2697"/>
<text text-anchor="middle" x="913.7173" y="-650.8" font-family="Helvetica,sans-Serif" font-size="14.00" fill="#000000">EMode</text>
</g>
<!-- dspacing_unit -->
<g id="node32" class="node">
<title>dspacing_unit</title>
<polygon fill="#c0c0c0" stroke="#000000" points="855.4115,-724.5 754.0883,-724.5 728.0231,-688.5 829.3463,-688.5 855.4115,-724.5"/>
<text text-anchor="middle" x="791.7173" y="-702.8" font-family="Times,serif" font-size="14.00" fill="#000000">dSpacing</text>
</g>
<!-- dspacing_unit&#45;&gt;ConvertUnits_dSpacing -->
<g id="edge28" class="edge">
<title>dspacing_unit&#45;&gt;ConvertUnits_dSpacing</title>
<path fill="none" stroke="#000000" d="M804.4428,-688.0866C814.367,-673.7266 828.2853,-653.5872 839.4069,-637.4946"/>
<polygon fill="#000000" stroke="#000000" points="842.4486,-639.2494 845.2547,-629.033 836.69,-635.2697 842.4486,-639.2494"/>
<text text-anchor="middle" x="851.7173" y="-650.8" font-family="Helvetica,sans-Serif" font-size="14.00" fill="#000000">Target</text>
</g>
<!-- has_calib_file&#45;&gt;get_multi_frame_rebin -->
<g id="edge12" class="edge">
<title>has_calib_file&#45;&gt;get_multi_frame_rebin</title>
<path fill="none" stroke="#000000" d="M485.7173,-977.8905C485.7173,-931.2008 485.7173,-806.0192 485.7173,-743.3307"/>
<polygon fill="#000000" stroke="#000000" points="489.2174,-743.1056 485.7173,-733.1056 482.2174,-743.1056 489.2174,-743.1056"/>
<text text-anchor="middle" x="494.7173" y="-844.8" font-family="Helvetica,sans-Serif" font-size="14.00" fill="#000000">No</text>
</g>
<!-- has_calib_file&#45;&gt;AlignDetectors -->
<g id="edge7" class="edge">
<title>has_calib_file&#45;&gt;AlignDetectors</title>
<path fill="none" stroke="#000000" d="M454.4545,-982.1135C417.7181,-965.7957 356.5095,-938.6077 314.9253,-920.1366"/>
<polygon fill="#000000" stroke="#000000" points="316.1456,-916.8489 305.5857,-915.9881 313.3039,-923.2462 316.1456,-916.8489"/>
<text text-anchor="middle" x="416.7173" y="-948.8" font-family="Helvetica,sans-Serif" font-size="14.00" fill="#000000">Yes</text>
</g>
<!-- AlignDetectors&#45;&gt;DiffractionFocussing -->
<g id="edge9" class="edge">
<title>AlignDetectors&#45;&gt;DiffractionFocussing</title>
<path fill="none" stroke="#000000" d="M287.0024,-882.8578C302.5179,-866.0493 326.0356,-840.5718 343.5103,-821.6409"/>
<polygon fill="#000000" stroke="#000000" points="346.1413,-823.9508 350.3523,-814.2287 340.9977,-819.2028 346.1413,-823.9508"/>
</g>
<!-- DiffractionFocussing&#45;&gt;get_multi_frame_rebin -->
<g id="edge11" class="edge">
<title>DiffractionFocussing&#45;&gt;get_multi_frame_rebin</title>
<path fill="none" stroke="#000000" d="M389.9442,-778.9334C404.8427,-767.6656 424.6478,-752.687 442.3804,-739.2758"/>
<polygon fill="#000000" stroke="#000000" points="444.4924,-742.0668 450.3569,-733.2431 440.2699,-736.4838 444.4924,-742.0668"/>
</g>
</g>
</svg>
