<?xml version="1.0" encoding="UTF-8" standalone="no"?>
<!DOCTYPE svg PUBLIC "-//W3C//DTD SVG 1.1//EN"
 "http://www.w3.org/Graphics/SVG/1.1/DTD/svg11.dtd">
<!-- Generated by graphviz version 2.40.1 (20161225.0304)
 -->
<!-- Title: MolDyn Pages: 1 -->
<svg width="934pt" height="648pt"
 viewBox="0.00 0.00 933.80 648.00" xmlns="http://www.w3.org/2000/svg" xmlns:xlink="http://www.w3.org/1999/xlink">
<g id="graph0" class="graph" transform="scale(1 1) rotate(0) translate(4 644)">
<title>MolDyn</title>
<polygon fill="#ffffff" stroke="transparent" points="-4,4 -4,-644 929.7962,-644 929.7962,4 -4,4"/>
<text text-anchor="middle" x="462.8981" y="-624.8" font-family="Helvetica,sans-Serif" font-size="14.00" fill="#000000">MolDyn Flowchart</text>
<!-- Version -->
<g id="node1" class="node">
<title>Version</title>
<polygon fill="#32cd32" stroke="#000000" points="171.8927,-544 65.1481,-526 171.8927,-508 278.6374,-526 171.8927,-544"/>
<text text-anchor="middle" x="171.8927" y="-522.3" font-family="Helvetica,sans-Serif" font-size="14.00" fill="#000000">nMoldyn version</text>
</g>
<!-- LoadNMoldyn3Ascii -->
<g id="node13" class="node">
<title>LoadNMoldyn3Ascii</title>
<path fill="#87cefa" stroke="#000000" d="M241.3927,-457C241.3927,-457 128.3927,-457 128.3927,-457 122.3927,-457 116.3927,-451 116.3927,-445 116.3927,-445 116.3927,-433 116.3927,-433 116.3927,-427 122.3927,-421 128.3927,-421 128.3927,-421 241.3927,-421 241.3927,-421 247.3927,-421 253.3927,-427 253.3927,-433 253.3927,-433 253.3927,-445 253.3927,-445 253.3927,-451 247.3927,-457 241.3927,-457"/>
<text text-anchor="middle" x="184.8927" y="-435.3" font-family="Helvetica,sans-Serif" font-size="14.00" fill="#000000">LoadNMoldyn3Ascii</text>
</g>
<!-- Version&#45;&gt;LoadNMoldyn3Ascii -->
<g id="edge3" class="edge">
<title>Version&#45;&gt;LoadNMoldyn3Ascii</title>
<path fill="none" stroke="#000000" d="M174.5235,-508.3943C176.2797,-496.6408 178.6285,-480.9218 180.6466,-467.4167"/>
<polygon fill="#000000" stroke="#000000" points="184.1601,-467.5859 182.1764,-457.1785 177.2369,-466.5514 184.1601,-467.5859"/>
<text text-anchor="middle" x="183.8927" y="-478.8" font-family="Helvetica,sans-Serif" font-size="14.00" fill="#000000">3</text>
</g>
<!-- LoadNMoldyn4Ascii -->
<g id="node14" class="node">
<title>LoadNMoldyn4Ascii</title>
<path fill="#87cefa" stroke="#000000" d="M396.3927,-457C396.3927,-457 283.3927,-457 283.3927,-457 277.3927,-457 271.3927,-451 271.3927,-445 271.3927,-445 271.3927,-433 271.3927,-433 271.3927,-427 277.3927,-421 283.3927,-421 283.3927,-421 396.3927,-421 396.3927,-421 402.3927,-421 408.3927,-427 408.3927,-433 408.3927,-433 408.3927,-445 408.3927,-445 408.3927,-451 402.3927,-457 396.3927,-457"/>
<text text-anchor="middle" x="339.8927" y="-435.3" font-family="Helvetica,sans-Serif" font-size="14.00" fill="#000000">LoadNMoldyn4Ascii</text>
</g>
<!-- Version&#45;&gt;LoadNMoldyn4Ascii -->
<g id="edge5" class="edge">
<title>Version&#45;&gt;LoadNMoldyn4Ascii</title>
<path fill="none" stroke="#000000" d="M198.1427,-512.4063C224.3488,-498.8352 265.0895,-477.7374 296.181,-461.6364"/>
<polygon fill="#000000" stroke="#000000" points="297.8126,-464.733 305.083,-457.0265 294.5936,-458.5171 297.8126,-464.733"/>
<text text-anchor="middle" x="270.8927" y="-478.8" font-family="Helvetica,sans-Serif" font-size="14.00" fill="#000000">4</text>
</g>
<!-- IfSave -->
<g id="node2" class="node">
<title>IfSave</title>
<polygon fill="#32cd32" stroke="#000000" points="231.8927,-283 181.2854,-265 231.8927,-247 282.5001,-265 231.8927,-283"/>
<text text-anchor="middle" x="231.8927" y="-261.3" font-family="Helvetica,sans-Serif" font-size="14.00" fill="#000000">Save?</text>
</g>
<!-- SaveNexus -->
<g id="node15" class="node">
<title>SaveNexus</title>
<path fill="#87cefa" stroke="#000000" d="M262.8927,-196C262.8927,-196 200.8927,-196 200.8927,-196 194.8927,-196 188.8927,-190 188.8927,-184 188.8927,-184 188.8927,-172 188.8927,-172 188.8927,-166 194.8927,-160 200.8927,-160 200.8927,-160 262.8927,-160 262.8927,-160 268.8927,-160 274.8927,-166 274.8927,-172 274.8927,-172 274.8927,-184 274.8927,-184 274.8927,-190 268.8927,-196 262.8927,-196"/>
<text text-anchor="middle" x="231.8927" y="-174.3" font-family="Helvetica,sans-Serif" font-size="14.00" fill="#000000">SaveNexus</text>
</g>
<!-- IfSave&#45;&gt;SaveNexus -->
<g id="edge10" class="edge">
<title>IfSave&#45;&gt;SaveNexus</title>
<path fill="none" stroke="#000000" d="M231.8927,-246.9735C231.8927,-235.1918 231.8927,-219.5607 231.8927,-206.1581"/>
<polygon fill="#000000" stroke="#000000" points="235.3928,-206.0033 231.8927,-196.0034 228.3928,-206.0034 235.3928,-206.0033"/>
<text text-anchor="middle" x="243.8927" y="-217.8" font-family="Helvetica,sans-Serif" font-size="14.00" fill="#000000">Yes</text>
</g>
<!-- IsWorkspaceInEnergy -->
<g id="node3" class="node">
<title>IsWorkspaceInEnergy</title>
<polygon fill="#32cd32" stroke="#000000" points="776.8927,-544 628.0857,-526 776.8927,-508 925.6997,-526 776.8927,-544"/>
<text text-anchor="middle" x="776.8927" y="-522.3" font-family="Helvetica,sans-Serif" font-size="14.00" fill="#000000">Is workspace in energy?</text>
</g>
<!-- IfSymmetrise -->
<g id="node4" class="node">
<title>IfSymmetrise</title>
<polygon fill="#32cd32" stroke="#000000" points="659.8927,-457 531.0284,-439 659.8927,-421 788.757,-439 659.8927,-457"/>
<text text-anchor="middle" x="659.8927" y="-435.3" font-family="Helvetica,sans-Serif" font-size="14.00" fill="#000000">SymmetriseEnergy?</text>
</g>
<!-- IsWorkspaceInEnergy&#45;&gt;IfSymmetrise -->
<g id="edge12" class="edge">
<title>IsWorkspaceInEnergy&#45;&gt;IfSymmetrise</title>
<path fill="none" stroke="#000000" d="M755.9755,-510.4461C737.2581,-496.5281 709.6391,-475.9909 688.8104,-460.5029"/>
<polygon fill="#000000" stroke="#000000" points="690.742,-457.5776 680.6289,-454.4192 686.5651,-463.1949 690.742,-457.5776"/>
<text text-anchor="middle" x="737.8927" y="-478.8" font-family="Helvetica,sans-Serif" font-size="14.00" fill="#000000">Yes</text>
</g>
<!-- ProcessEnergyWorkspaces_End -->
<g id="node20" class="node">
<title>ProcessEnergyWorkspaces_End</title>
<ellipse fill="#d3d3d3" stroke="#000000" cx="642.8927" cy="-18" rx="27" ry="18"/>
<text text-anchor="middle" x="642.8927" y="-14.3" font-family="Helvetica,sans-Serif" font-size="14.00" fill="#000000">End</text>
</g>
<!-- IsWorkspaceInEnergy&#45;&gt;ProcessEnergyWorkspaces_End -->
<g id="edge25" class="edge">
<title>IsWorkspaceInEnergy&#45;&gt;ProcessEnergyWorkspaces_End</title>
<path fill="none" stroke="#000000" d="M789.7692,-509.3784C801.4624,-492.5917 816.8927,-465.4323 816.8927,-439 816.8927,-439 816.8927,-439 816.8927,-91 816.8927,-61.3483 729.8841,-37.1289 678.9217,-25.4863"/>
<polygon fill="#000000" stroke="#000000" points="679.4643,-22.0214 668.9423,-23.2614 677.941,-28.8537 679.4643,-22.0214"/>
<text text-anchor="middle" x="825.8927" y="-261.3" font-family="Helvetica,sans-Serif" font-size="14.00" fill="#000000">No</text>
</g>
<!-- IfCrop -->
<g id="node5" class="node">
<title>IfCrop</title>
<polygon fill="#32cd32" stroke="#000000" points="670.8927,-370 553.0883,-352 670.8927,-334 788.6972,-352 670.8927,-370"/>
<text text-anchor="middle" x="670.8927" y="-348.3" font-family="Helvetica,sans-Serif" font-size="14.00" fill="#000000">Have MaxEnergy?</text>
</g>
<!-- IfSymmetrise&#45;&gt;IfCrop -->
<g id="edge16" class="edge">
<title>IfSymmetrise&#45;&gt;IfCrop</title>
<path fill="none" stroke="#000000" d="M662.1719,-420.9735C663.6715,-409.1132 665.6643,-393.3521 667.3664,-379.8903"/>
<polygon fill="#000000" stroke="#000000" points="670.872,-380.0658 668.6541,-369.7057 663.9273,-379.1876 670.872,-380.0658"/>
<text text-anchor="middle" x="675.8927" y="-391.8" font-family="Helvetica,sans-Serif" font-size="14.00" fill="#000000">No</text>
</g>
<!-- Symmetrise -->
<g id="node16" class="node">
<title>Symmetrise</title>
<path fill="#87cefa" stroke="#000000" d="M496.3927,-283C496.3927,-283 431.3927,-283 431.3927,-283 425.3927,-283 419.3927,-277 419.3927,-271 419.3927,-271 419.3927,-259 419.3927,-259 419.3927,-253 425.3927,-247 431.3927,-247 431.3927,-247 496.3927,-247 496.3927,-247 502.3927,-247 508.3927,-253 508.3927,-259 508.3927,-259 508.3927,-271 508.3927,-271 508.3927,-277 502.3927,-283 496.3927,-283"/>
<text text-anchor="middle" x="463.8927" y="-261.3" font-family="Helvetica,sans-Serif" font-size="14.00" fill="#000000">Symmetrise</text>
</g>
<!-- IfSymmetrise&#45;&gt;Symmetrise -->
<g id="edge14" class="edge">
<title>IfSymmetrise&#45;&gt;Symmetrise</title>
<path fill="none" stroke="#000000" d="M589.4446,-430.7656C517.8737,-420.7794 414.189,-401.2862 389.8927,-370 368.915,-342.9871 399.6287,-310.6567 427.629,-289.0743"/>
<polygon fill="#000000" stroke="#000000" points="429.8489,-291.7854 435.7893,-283.0126 425.6747,-286.1661 429.8489,-291.7854"/>
<text text-anchor="middle" x="401.8927" y="-348.3" font-family="Helvetica,sans-Serif" font-size="14.00" fill="#000000">Yes</text>
</g>
<!-- IfConvolve -->
<g id="node6" class="node">
<title>IfConvolve</title>
<polygon fill="#32cd32" stroke="#000000" points="605.8927,-196 430.2746,-178 605.8927,-160 781.5108,-178 605.8927,-196"/>
<text text-anchor="middle" x="605.8927" y="-174.3" font-family="Helvetica,sans-Serif" font-size="14.00" fill="#000000">Have Resolution workspace?</text>
</g>
<!-- IfCrop&#45;&gt;IfConvolve -->
<g id="edge20" class="edge">
<title>IfCrop&#45;&gt;IfConvolve</title>
<path fill="none" stroke="#000000" d="M667.4076,-334.0558C665.5005,-324.2796 663.0857,-311.9712 660.8927,-301 656.0919,-276.9822 659.0756,-269.7063 649.8927,-247 643.6172,-231.4827 633.7991,-215.6343 625.028,-203.0459"/>
<polygon fill="#000000" stroke="#000000" points="627.8533,-200.9797 619.1795,-194.8958 622.1661,-205.0609 627.8533,-200.9797"/>
<text text-anchor="middle" x="667.8927" y="-261.3" font-family="Helvetica,sans-Serif" font-size="14.00" fill="#000000">No</text>
</g>
<!-- CropWorkspace -->
<g id="node17" class="node">
<title>CropWorkspace</title>
<path fill="#87cefa" stroke="#000000" d="M628.8927,-283C628.8927,-283 538.8927,-283 538.8927,-283 532.8927,-283 526.8927,-277 526.8927,-271 526.8927,-271 526.8927,-259 526.8927,-259 526.8927,-253 532.8927,-247 538.8927,-247 538.8927,-247 628.8927,-247 628.8927,-247 634.8927,-247 640.8927,-253 640.8927,-259 640.8927,-259 640.8927,-271 640.8927,-271 640.8927,-277 634.8927,-283 628.8927,-283"/>
<text text-anchor="middle" x="583.8927" y="-261.3" font-family="Helvetica,sans-Serif" font-size="14.00" fill="#000000">CropWorkspace</text>
</g>
<!-- IfCrop&#45;&gt;CropWorkspace -->
<g id="edge18" class="edge">
<title>IfCrop&#45;&gt;CropWorkspace</title>
<path fill="none" stroke="#000000" d="M654.9356,-336.0429C642.2365,-323.3437 624.2172,-305.3245 609.5042,-290.6115"/>
<polygon fill="#000000" stroke="#000000" points="611.7033,-287.8608 602.1573,-283.2646 606.7535,-292.8105 611.7033,-287.8608"/>
<text text-anchor="middle" x="644.8927" y="-304.8" font-family="Helvetica,sans-Serif" font-size="14.00" fill="#000000">Yes</text>
</g>
<!-- ConvolveWorkspaces -->
<g id="node18" class="node">
<title>ConvolveWorkspaces</title>
<path fill="#87cefa" stroke="#000000" d="M594.8927,-109C594.8927,-109 470.8927,-109 470.8927,-109 464.8927,-109 458.8927,-103 458.8927,-97 458.8927,-97 458.8927,-85 458.8927,-85 458.8927,-79 464.8927,-73 470.8927,-73 470.8927,-73 594.8927,-73 594.8927,-73 600.8927,-73 606.8927,-79 606.8927,-85 606.8927,-85 606.8927,-97 606.8927,-97 606.8927,-103 600.8927,-109 594.8927,-109"/>
<text text-anchor="middle" x="532.8927" y="-87.3" font-family="Helvetica,sans-Serif" font-size="14.00" fill="#000000">ConvolveWorkspaces</text>
</g>
<!-- IfConvolve&#45;&gt;ConvolveWorkspaces -->
<g id="edge21" class="edge">
<title>IfConvolve&#45;&gt;ConvolveWorkspaces</title>
<path fill="none" stroke="#000000" d="M591.8176,-161.2255C581.3581,-148.7601 566.8873,-131.5141 554.9039,-117.2325"/>
<polygon fill="#000000" stroke="#000000" points="557.2938,-114.6356 548.1848,-109.2248 551.9314,-119.1351 557.2938,-114.6356"/>
<text text-anchor="middle" x="585.8927" y="-130.8" font-family="Helvetica,sans-Serif" font-size="14.00" fill="#000000">Yes</text>
</g>
<!-- IfConvolve&#45;&gt;ProcessEnergyWorkspaces_End -->
<g id="edge24" class="edge">
<title>IfConvolve&#45;&gt;ProcessEnergyWorkspaces_End</title>
<path fill="none" stroke="#000000" d="M609.9938,-160.2659C616.4114,-132.514 628.8789,-78.6002 636.4876,-45.698"/>
<polygon fill="#000000" stroke="#000000" points="639.9302,-46.345 638.7733,-35.8136 633.1102,-44.7679 639.9302,-46.345"/>
<text text-anchor="middle" x="638.8927" y="-87.3" font-family="Helvetica,sans-Serif" font-size="14.00" fill="#000000">No</text>
</g>
<!-- ProcessEnergyWorkspaces -->
<g id="node7" class="node">
<title>ProcessEnergyWorkspaces</title>
<polygon fill="#20b2aa" stroke="#000000" points="315.3927,-370 130.3927,-370 130.3927,-334 315.3927,-334 315.3927,-370"/>
<text text-anchor="middle" x="222.8927" y="-348.3" font-family="Helvetica,sans-Serif" font-size="14.00" fill="#000000">Process energy workspaces</text>
</g>
<!-- ProcessEnergyWorkspaces&#45;&gt;IfSave -->
<g id="edge9" class="edge">
<title>ProcessEnergyWorkspaces&#45;&gt;IfSave</title>
<path fill="none" stroke="#000000" d="M224.7575,-333.9735C225.9926,-322.0347 227.6365,-306.1431 229.0352,-292.6232"/>
<polygon fill="#000000" stroke="#000000" points="232.5441,-292.7168 230.0917,-282.4097 225.5812,-291.9964 232.5441,-292.7168"/>
</g>
<!-- OutputWorkspace -->
<g id="node12" class="node">
<title>OutputWorkspace</title>
<ellipse fill="#f0e68c" stroke="#000000" cx="81.8927" cy="-265" rx="81.7856" ry="18"/>
<text text-anchor="middle" x="81.8927" y="-261.3" font-family="Helvetica,sans-Serif" font-size="14.00" fill="#000000">OutputWorkspace</text>
</g>
<!-- ProcessEnergyWorkspaces&#45;&gt;OutputWorkspace -->
<g id="edge8" class="edge">
<title>ProcessEnergyWorkspaces&#45;&gt;OutputWorkspace</title>
<path fill="none" stroke="#000000" d="M193.6774,-333.9735C171.7905,-320.4688 141.7069,-301.9066 118.2613,-287.4402"/>
<polygon fill="#000000" stroke="#000000" points="119.9797,-284.3879 109.6315,-282.1154 116.304,-290.3451 119.9797,-284.3879"/>
</g>
<!-- Data -->
<g id="node8" class="node">
<title>Data</title>
<ellipse fill="#f0e68c" stroke="#000000" cx="171.8927" cy="-599" rx="29.4969" ry="18"/>
<text text-anchor="middle" x="171.8927" y="-595.3" font-family="Helvetica,sans-Serif" font-size="14.00" fill="#000000">Data</text>
</g>
<!-- Data&#45;&gt;Version -->
<g id="edge1" class="edge">
<title>Data&#45;&gt;Version</title>
<path fill="none" stroke="#000000" d="M171.8927,-580.9551C171.8927,-572.8828 171.8927,-563.1764 171.8927,-554.1817"/>
<polygon fill="#000000" stroke="#000000" points="175.3928,-554.0903 171.8927,-544.0904 168.3928,-554.0904 175.3928,-554.0903"/>
</g>
<!-- Functions -->
<g id="node9" class="node">
<title>Functions</title>
<ellipse fill="#f0e68c" stroke="#000000" cx="344.8927" cy="-526" rx="48.9926" ry="18"/>
<text text-anchor="middle" x="344.8927" y="-522.3" font-family="Helvetica,sans-Serif" font-size="14.00" fill="#000000">Functions</text>
</g>
<!-- Functions&#45;&gt;LoadNMoldyn3Ascii -->
<g id="edge2" class="edge">
<title>Functions&#45;&gt;LoadNMoldyn3Ascii</title>
<path fill="none" stroke="#000000" d="M317.3878,-511.0442C292.5559,-497.5418 255.6427,-477.4703 227.0808,-461.9398"/>
<polygon fill="#000000" stroke="#000000" points="228.584,-458.7732 218.1268,-457.071 225.2401,-464.9229 228.584,-458.7732"/>
</g>
<!-- Functions&#45;&gt;LoadNMoldyn4Ascii -->
<g id="edge4" class="edge">
<title>Functions&#45;&gt;LoadNMoldyn4Ascii</title>
<path fill="none" stroke="#000000" d="M343.8567,-507.9735C343.1796,-496.1918 342.2813,-480.5607 341.511,-467.1581"/>
<polygon fill="#000000" stroke="#000000" points="344.9955,-466.786 340.9274,-457.0034 338.007,-467.1877 344.9955,-466.786"/>
</g>
<!-- Resolution -->
<g id="node10" class="node">
<title>Resolution</title>
<ellipse fill="#f0e68c" stroke="#000000" cx="359.8927" cy="-178" rx="51.9908" ry="18"/>
<text text-anchor="middle" x="359.8927" y="-174.3" font-family="Helvetica,sans-Serif" font-size="14.00" fill="#000000">Resolution</text>
</g>
<!-- Resolution&#45;&gt;ConvolveWorkspaces -->
<g id="edge22" class="edge">
<title>Resolution&#45;&gt;ConvolveWorkspaces</title>
<path fill="none" stroke="#000000" d="M389.6325,-163.0442C416.5982,-149.4834 456.7401,-129.2964 487.6774,-113.7383"/>
<polygon fill="#000000" stroke="#000000" points="489.597,-116.6907 496.9584,-109.071 486.452,-110.437 489.597,-116.6907"/>
</g>
<!-- MaxEnergy -->
<g id="node11" class="node">
<title>MaxEnergy</title>
<ellipse fill="#f0e68c" stroke="#000000" cx="478.8927" cy="-352" rx="55.7903" ry="18"/>
<text text-anchor="middle" x="478.8927" y="-348.3" font-family="Helvetica,sans-Serif" font-size="14.00" fill="#000000">MaxEnergy</text>
</g>
<!-- MaxEnergy&#45;&gt;Symmetrise -->
<g id="edge13" class="edge">
<title>MaxEnergy&#45;&gt;Symmetrise</title>
<path fill="none" stroke="#000000" d="M475.7847,-333.9735C473.7534,-322.1918 471.0584,-306.5607 468.7476,-293.1581"/>
<polygon fill="#000000" stroke="#000000" points="472.145,-292.2633 466.9968,-283.0034 465.2468,-293.4527 472.145,-292.2633"/>
</g>
<!-- MaxEnergy&#45;&gt;CropWorkspace -->
<g id="edge17" class="edge">
<title>MaxEnergy&#45;&gt;CropWorkspace</title>
<path fill="none" stroke="#000000" d="M499.3871,-335.019C515.0171,-322.0684 536.7673,-304.0468 554.2873,-289.5303"/>
<polygon fill="#000000" stroke="#000000" points="556.535,-292.2132 562.0021,-283.1379 552.0688,-286.8231 556.535,-292.2132"/>
</g>
<!-- LoadNMoldyn3Ascii&#45;&gt;ProcessEnergyWorkspaces -->
<g id="edge6" class="edge">
<title>LoadNMoldyn3Ascii&#45;&gt;ProcessEnergyWorkspaces</title>
<path fill="none" stroke="#000000" d="M192.7664,-420.9735C198.0143,-408.9585 205.0109,-392.9401 210.9404,-379.3646"/>
<polygon fill="#000000" stroke="#000000" points="214.2339,-380.5683 215.0292,-370.0034 207.8191,-377.7664 214.2339,-380.5683"/>
</g>
<!-- LoadNMoldyn4Ascii&#45;&gt;ProcessEnergyWorkspaces -->
<g id="edge7" class="edge">
<title>LoadNMoldyn4Ascii&#45;&gt;ProcessEnergyWorkspaces</title>
<path fill="none" stroke="#000000" d="M315.6503,-420.9735C298.1586,-407.9669 274.358,-390.269 255.2455,-376.0571"/>
<polygon fill="#000000" stroke="#000000" points="257.2173,-373.1618 247.1042,-370.0034 253.0403,-378.7791 257.2173,-373.1618"/>
</g>
<!-- Symmetrise&#45;&gt;IfConvolve -->
<g id="edge15" class="edge">
<title>Symmetrise&#45;&gt;IfConvolve</title>
<path fill="none" stroke="#000000" d="M493.3152,-246.9735C516.0777,-233.0275 547.6434,-213.688 571.5592,-199.0353"/>
<polygon fill="#000000" stroke="#000000" points="573.6179,-201.8787 580.3163,-193.6701 569.9609,-195.9099 573.6179,-201.8787"/>
</g>
<!-- CropWorkspace&#45;&gt;IfConvolve -->
<g id="edge19" class="edge">
<title>CropWorkspace&#45;&gt;IfConvolve</title>
<path fill="none" stroke="#000000" d="M588.4511,-246.9735C591.48,-234.9958 595.5149,-219.0396 598.9409,-205.4912"/>
<polygon fill="#000000" stroke="#000000" points="602.357,-206.2586 601.4154,-195.7057 595.5706,-204.5425 602.357,-206.2586"/>
</g>
<!-- ConvolveWorkspaces&#45;&gt;ProcessEnergyWorkspaces_End -->
<g id="edge23" class="edge">
<title>ConvolveWorkspaces&#45;&gt;ProcessEnergyWorkspaces_End</title>
<path fill="none" stroke="#000000" d="M560.0838,-72.9551C576.8788,-61.8092 598.3687,-47.5477 615.2475,-36.3464"/>
<polygon fill="#000000" stroke="#000000" points="617.2075,-39.2463 623.6044,-30.8005 613.3369,-33.4138 617.2075,-39.2463"/>
</g>
<!-- ProcessEnergyWorkspaces_Start -->
<g id="node19" class="node">
<title>ProcessEnergyWorkspaces_Start</title>
<ellipse fill="#d3d3d3" stroke="#000000" cx="776.8927" cy="-599" rx="120.4791" ry="18"/>
<text text-anchor="middle" x="776.8927" y="-595.3" font-family="Helvetica,sans-Serif" font-size="14.00" fill="#000000">Process energy workspaces</text>
</g>
<!-- ProcessEnergyWorkspaces_Start&#45;&gt;IsWorkspaceInEnergy -->
<g id="edge11" class="edge">
<title>ProcessEnergyWorkspaces_Start&#45;&gt;IsWorkspaceInEnergy</title>
<path fill="none" stroke="#000000" d="M776.8927,-580.9551C776.8927,-572.8828 776.8927,-563.1764 776.8927,-554.1817"/>
<polygon fill="#000000" stroke="#000000" points="780.3928,-554.0903 776.8927,-544.0904 773.3928,-554.0904 780.3928,-554.0903"/>
</g>
</g>
</svg>
