<?xml version="1.0" encoding="UTF-8" standalone="no"?>
<!DOCTYPE svg PUBLIC "-//W3C//DTD SVG 1.1//EN"
 "http://www.w3.org/Graphics/SVG/1.1/DTD/svg11.dtd">
<!-- Generated by graphviz version 2.40.1 (20161225.0304)
 -->
<!-- Title: MSDFit Pages: 1 -->
<svg width="672pt" height="568pt"
 viewBox="0.00 0.00 672.24 568.00" xmlns="http://www.w3.org/2000/svg" xmlns:xlink="http://www.w3.org/1999/xlink">
<g id="graph0" class="graph" transform="scale(1 1) rotate(0) translate(4 564)">
<title>MSDFit</title>
<polygon fill="#ffffff" stroke="transparent" points="-4,4 -4,-564 668.2434,-564 668.2434,4 -4,4"/>
<text text-anchor="middle" x="332.1217" y="-544.8" font-family="Helvetica,sans-Serif" font-size="14.00" fill="#000000">MSDFit Flowchart</text>
<!-- InputWorkspace -->
<g id="node1" class="node">
<title>InputWorkspace</title>
<ellipse fill="#f0e68c" stroke="#000000" cx="74.7434" cy="-519" rx="74.9875" ry="18"/>
<text text-anchor="middle" x="74.7434" y="-515.3" font-family="Helvetica,sans-Serif" font-size="14.00" fill="#000000">InputWorkspace</text>
</g>
<!-- FitFunction -->
<g id="node15" class="node">
<title>FitFunction</title>
<polygon fill="#c0c0c0" stroke="#000000" points="330.9314,-464 204.961,-464 172.5554,-428 298.5258,-428 330.9314,-464"/>
<text text-anchor="middle" x="251.7434" y="-442.3" font-family="Times,serif" font-size="14.00" fill="#000000">Fit Function</text>
</g>
<!-- InputWorkspace&#45;&gt;FitFunction -->
<g id="edge1" class="edge">
<title>InputWorkspace&#45;&gt;FitFunction</title>
<path fill="none" stroke="#000000" d="M112.7143,-503.3397C137.7023,-493.0339 170.7727,-479.3947 198.3906,-468.0043"/>
<polygon fill="#000000" stroke="#000000" points="199.9996,-471.1267 207.9098,-464.0783 197.3306,-464.6555 199.9996,-471.1267"/>
</g>
<!-- Model -->
<g id="node2" class="node">
<title>Model</title>
<ellipse fill="#f0e68c" stroke="#000000" cx="202.7434" cy="-519" rx="35.194" ry="18"/>
<text text-anchor="middle" x="202.7434" y="-515.3" font-family="Helvetica,sans-Serif" font-size="14.00" fill="#000000">Model</text>
</g>
<!-- Model&#45;&gt;FitFunction -->
<g id="edge2" class="edge">
<title>Model&#45;&gt;FitFunction</title>
<path fill="none" stroke="#000000" d="M214.3557,-501.7C220.1626,-493.0488 227.3199,-482.3859 233.8126,-472.7132"/>
<polygon fill="#000000" stroke="#000000" points="236.8634,-474.4481 239.5306,-464.1945 231.0513,-470.5468 236.8634,-474.4481"/>
</g>
<!-- XStart -->
<g id="node3" class="node">
<title>XStart</title>
<ellipse fill="#f0e68c" stroke="#000000" cx="383.7434" cy="-446" rx="35.194" ry="18"/>
<text text-anchor="middle" x="383.7434" y="-442.3" font-family="Helvetica,sans-Serif" font-size="14.00" fill="#000000">XStart</text>
</g>
<!-- PlotPeakByLogValue -->
<g id="node10" class="node">
<title>PlotPeakByLogValue</title>
<path fill="#87cefa" stroke="#000000" d="M443.2434,-391C443.2434,-391 324.2434,-391 324.2434,-391 318.2434,-391 312.2434,-385 312.2434,-379 312.2434,-379 312.2434,-367 312.2434,-367 312.2434,-361 318.2434,-355 324.2434,-355 324.2434,-355 443.2434,-355 443.2434,-355 449.2434,-355 455.2434,-361 455.2434,-367 455.2434,-367 455.2434,-379 455.2434,-379 455.2434,-385 449.2434,-391 443.2434,-391"/>
<text text-anchor="middle" x="383.7434" y="-369.3" font-family="Helvetica,sans-Serif" font-size="14.00" fill="#000000">PlotPeakByLogValue</text>
</g>
<!-- XStart&#45;&gt;PlotPeakByLogValue -->
<g id="edge6" class="edge">
<title>XStart&#45;&gt;PlotPeakByLogValue</title>
<path fill="none" stroke="#000000" d="M383.7434,-427.9551C383.7434,-419.8828 383.7434,-410.1764 383.7434,-401.1817"/>
<polygon fill="#000000" stroke="#000000" points="387.2435,-401.0903 383.7434,-391.0904 380.2435,-401.0904 387.2435,-401.0903"/>
</g>
<!-- XEnd -->
<g id="node4" class="node">
<title>XEnd</title>
<ellipse fill="#f0e68c" stroke="#000000" cx="469.7434" cy="-446" rx="32.4942" ry="18"/>
<text text-anchor="middle" x="469.7434" y="-442.3" font-family="Helvetica,sans-Serif" font-size="14.00" fill="#000000">XEnd</text>
</g>
<!-- XEnd&#45;&gt;PlotPeakByLogValue -->
<g id="edge7" class="edge">
<title>XEnd&#45;&gt;PlotPeakByLogValue</title>
<path fill="none" stroke="#000000" d="M451.9241,-430.8744C440.679,-421.3291 425.8866,-408.7727 412.9548,-397.7958"/>
<polygon fill="#000000" stroke="#000000" points="415.0806,-395.0093 405.1918,-391.2062 410.5506,-400.3459 415.0806,-395.0093"/>
</g>
<!-- SpecMin -->
<g id="node5" class="node">
<title>SpecMin</title>
<ellipse fill="#f0e68c" stroke="#000000" cx="301.7434" cy="-519" rx="45.4919" ry="18"/>
<text text-anchor="middle" x="301.7434" y="-515.3" font-family="Helvetica,sans-Serif" font-size="14.00" fill="#000000">SpecMin</text>
</g>
<!-- SpecMin&#45;&gt;FitFunction -->
<g id="edge3" class="edge">
<title>SpecMin&#45;&gt;FitFunction</title>
<path fill="none" stroke="#000000" d="M289.6398,-501.3287C283.7095,-492.6706 276.446,-482.0659 269.8704,-472.4655"/>
<polygon fill="#000000" stroke="#000000" points="272.6214,-470.2882 264.0829,-464.0157 266.8462,-474.2438 272.6214,-470.2882"/>
</g>
<!-- SpecMax -->
<g id="node6" class="node">
<title>SpecMax</title>
<ellipse fill="#f0e68c" stroke="#000000" cx="413.7434" cy="-519" rx="48.1917" ry="18"/>
<text text-anchor="middle" x="413.7434" y="-515.3" font-family="Helvetica,sans-Serif" font-size="14.00" fill="#000000">SpecMax</text>
</g>
<!-- SpecMax&#45;&gt;FitFunction -->
<g id="edge4" class="edge">
<title>SpecMax&#45;&gt;FitFunction</title>
<path fill="none" stroke="#000000" d="M382.8911,-505.0974C359.7332,-494.6621 327.5593,-480.164 300.8751,-468.1396"/>
<polygon fill="#000000" stroke="#000000" points="302.2443,-464.9177 291.6892,-464.0003 299.3684,-471.2997 302.2443,-464.9177"/>
</g>
<!-- OutputWorkspace -->
<g id="node7" class="node">
<title>OutputWorkspace</title>
<ellipse fill="#f0e68c" stroke="#000000" cx="490.7434" cy="-18" rx="81.7856" ry="18"/>
<text text-anchor="middle" x="490.7434" y="-14.3" font-family="Helvetica,sans-Serif" font-size="14.00" fill="#000000">OutputWorkspace</text>
</g>
<!-- ParameterWorkspace -->
<g id="node8" class="node">
<title>ParameterWorkspace</title>
<ellipse fill="#f0e68c" stroke="#000000" cx="131.7434" cy="-286" rx="96.6831" ry="18"/>
<text text-anchor="middle" x="131.7434" y="-282.3" font-family="Helvetica,sans-Serif" font-size="14.00" fill="#000000">ParameterWorkspace</text>
</g>
<!-- FitWorkspaces -->
<g id="node9" class="node">
<title>FitWorkspaces</title>
<ellipse fill="#f0e68c" stroke="#000000" cx="315.7434" cy="-286" rx="69.5877" ry="18"/>
<text text-anchor="middle" x="315.7434" y="-282.3" font-family="Helvetica,sans-Serif" font-size="14.00" fill="#000000">FitWorkspaces</text>
</g>
<!-- PlotPeakByLogValue&#45;&gt;ParameterWorkspace -->
<g id="edge8" class="edge">
<title>PlotPeakByLogValue&#45;&gt;ParameterWorkspace</title>
<path fill="none" stroke="#000000" d="M311.9488,-358.4144C288.0307,-352.735 261.4508,-345.5224 237.7434,-337 215.3462,-328.9486 191.373,-317.6583 171.9007,-307.7466"/>
<polygon fill="#000000" stroke="#000000" points="173.5035,-304.6352 163.0119,-303.1596 170.2933,-310.8558 173.5035,-304.6352"/>
<text text-anchor="middle" x="273.2434" y="-325.8" font-family="Helvetica,sans-Serif" font-size="14.00" fill="#000000">Parameters</text>
</g>
<!-- PlotPeakByLogValue&#45;&gt;FitWorkspaces -->
<g id="edge9" class="edge">
<title>PlotPeakByLogValue&#45;&gt;FitWorkspaces</title>
<path fill="none" stroke="#000000" d="M334.6501,-354.7928C327.5424,-350.0658 321.1511,-344.2105 316.7434,-337 312.6788,-330.3507 311.2904,-322.2465 311.2187,-314.4732"/>
<polygon fill="#000000" stroke="#000000" points="314.7269,-314.4314 311.8093,-304.2463 307.7385,-314.0278 314.7269,-314.4314"/>
<text text-anchor="middle" x="373.2434" y="-325.8" font-family="Helvetica,sans-Serif" font-size="14.00" fill="#000000">Fitted Workspaces</text>
</g>
<!-- ConvertToMatrixWorkspace_A0 -->
<g id="node11" class="node">
<title>ConvertToMatrixWorkspace_A0</title>
<path fill="#87cefa" stroke="#000000" d="M538.2434,-250C538.2434,-250 377.2434,-250 377.2434,-250 371.2434,-250 365.2434,-244 365.2434,-238 365.2434,-238 365.2434,-226 365.2434,-226 365.2434,-220 371.2434,-214 377.2434,-214 377.2434,-214 538.2434,-214 538.2434,-214 544.2434,-214 550.2434,-220 550.2434,-226 550.2434,-226 550.2434,-238 550.2434,-238 550.2434,-244 544.2434,-250 538.2434,-250"/>
<text text-anchor="middle" x="457.7434" y="-228.3" font-family="Helvetica,sans-Serif" font-size="14.00" fill="#000000">ConvertToMatrixWorkspace</text>
</g>
<!-- PlotPeakByLogValue&#45;&gt;ConvertToMatrixWorkspace_A0 -->
<g id="edge10" class="edge">
<title>PlotPeakByLogValue&#45;&gt;ConvertToMatrixWorkspace_A0</title>
<path fill="none" stroke="#000000" d="M412.7348,-354.9488C419.1036,-349.8239 425.2724,-343.7697 429.7434,-337 445.0222,-313.8655 451.9863,-282.6918 455.147,-260.3317"/>
<polygon fill="#000000" stroke="#000000" points="458.6539,-260.4918 456.4128,-250.1367 451.7072,-259.6292 458.6539,-260.4918"/>
<text text-anchor="middle" x="473.2434" y="-325.8" font-family="Helvetica,sans-Serif" font-size="14.00" fill="#000000">Parameters</text>
</g>
<!-- ConvertToMatrixWorkspace_A1 -->
<g id="node12" class="node">
<title>ConvertToMatrixWorkspace_A1</title>
<path fill="#87cefa" stroke="#000000" d="M652.2434,-304C652.2434,-304 491.2434,-304 491.2434,-304 485.2434,-304 479.2434,-298 479.2434,-292 479.2434,-292 479.2434,-280 479.2434,-280 479.2434,-274 485.2434,-268 491.2434,-268 491.2434,-268 652.2434,-268 652.2434,-268 658.2434,-268 664.2434,-274 664.2434,-280 664.2434,-280 664.2434,-292 664.2434,-292 664.2434,-298 658.2434,-304 652.2434,-304"/>
<text text-anchor="middle" x="571.7434" y="-282.3" font-family="Helvetica,sans-Serif" font-size="14.00" fill="#000000">ConvertToMatrixWorkspace</text>
</g>
<!-- PlotPeakByLogValue&#45;&gt;ConvertToMatrixWorkspace_A1 -->
<g id="edge12" class="edge">
<title>PlotPeakByLogValue&#45;&gt;ConvertToMatrixWorkspace_A1</title>
<path fill="none" stroke="#000000" d="M455.4358,-363.7056C479.3405,-358.3894 505.318,-350.0542 526.7434,-337 537.0887,-330.6967 546.3694,-321.2547 553.7773,-312.202"/>
<polygon fill="#000000" stroke="#000000" points="556.6919,-314.154 560.0307,-304.099 551.1502,-309.8773 556.6919,-314.154"/>
<text text-anchor="middle" x="579.2434" y="-325.8" font-family="Helvetica,sans-Serif" font-size="14.00" fill="#000000">Parameters</text>
</g>
<!-- GroupWorkspaces -->
<g id="node14" class="node">
<title>GroupWorkspaces</title>
<path fill="#87cefa" stroke="#000000" d="M543.7434,-109C543.7434,-109 437.7434,-109 437.7434,-109 431.7434,-109 425.7434,-103 425.7434,-97 425.7434,-97 425.7434,-85 425.7434,-85 425.7434,-79 431.7434,-73 437.7434,-73 437.7434,-73 543.7434,-73 543.7434,-73 549.7434,-73 555.7434,-79 555.7434,-85 555.7434,-85 555.7434,-97 555.7434,-97 555.7434,-103 549.7434,-109 543.7434,-109"/>
<text text-anchor="middle" x="490.7434" y="-87.3" font-family="Helvetica,sans-Serif" font-size="14.00" fill="#000000">GroupWorkspaces</text>
</g>
<!-- ConvertToMatrixWorkspace_A0&#45;&gt;GroupWorkspaces -->
<g id="edge11" class="edge">
<title>ConvertToMatrixWorkspace_A0&#45;&gt;GroupWorkspaces</title>
<path fill="none" stroke="#000000" d="M461.99,-213.8554C467.6086,-189.8485 477.57,-147.2861 484.166,-119.1035"/>
<polygon fill="#000000" stroke="#000000" points="487.642,-119.6095 486.5131,-109.075 480.8262,-118.0142 487.642,-119.6095"/>
<text text-anchor="middle" x="482.2434" y="-174.3" font-family="Helvetica,sans-Serif" font-size="14.00" fill="#000000">A0</text>
</g>
<!-- SortXAxis -->
<g id="node13" class="node">
<title>SortXAxis</title>
<path fill="#87cefa" stroke="#000000" d="M583.7434,-196C583.7434,-196 531.7434,-196 531.7434,-196 525.7434,-196 519.7434,-190 519.7434,-184 519.7434,-184 519.7434,-172 519.7434,-172 519.7434,-166 525.7434,-160 531.7434,-160 531.7434,-160 583.7434,-160 583.7434,-160 589.7434,-160 595.7434,-166 595.7434,-172 595.7434,-172 595.7434,-184 595.7434,-184 595.7434,-190 589.7434,-196 583.7434,-196"/>
<text text-anchor="middle" x="557.7434" y="-174.3" font-family="Helvetica,sans-Serif" font-size="14.00" fill="#000000">SortXAxis</text>
</g>
<!-- ConvertToMatrixWorkspace_A1&#45;&gt;SortXAxis -->
<g id="edge13" class="edge">
<title>ConvertToMatrixWorkspace_A1&#45;&gt;SortXAxis</title>
<path fill="none" stroke="#000000" d="M569.3685,-267.6793C567.1831,-250.821 563.9092,-225.5651 561.3921,-206.147"/>
<polygon fill="#000000" stroke="#000000" points="564.8398,-205.5172 560.0832,-196.0502 557.8979,-206.4172 564.8398,-205.5172"/>
</g>
<!-- SortXAxis&#45;&gt;GroupWorkspaces -->
<g id="edge14" class="edge">
<title>SortXAxis&#45;&gt;GroupWorkspaces</title>
<path fill="none" stroke="#000000" d="M543.8609,-159.9735C534.3384,-147.6085 521.5507,-131.0036 510.9086,-117.1847"/>
<polygon fill="#000000" stroke="#000000" points="513.4826,-114.7907 504.608,-109.0034 507.9366,-119.0618 513.4826,-114.7907"/>
<text text-anchor="middle" x="536.2434" y="-130.8" font-family="Helvetica,sans-Serif" font-size="14.00" fill="#000000">A1</text>
</g>
<!-- GroupWorkspaces&#45;&gt;OutputWorkspace -->
<g id="edge15" class="edge">
<title>GroupWorkspaces&#45;&gt;OutputWorkspace</title>
<path fill="none" stroke="#000000" d="M490.7434,-72.9551C490.7434,-64.8828 490.7434,-55.1764 490.7434,-46.1817"/>
<polygon fill="#000000" stroke="#000000" points="494.2435,-46.0903 490.7434,-36.0904 487.2435,-46.0904 494.2435,-46.0903"/>
</g>
<!-- FitFunction&#45;&gt;PlotPeakByLogValue -->
<g id="edge5" class="edge">
<title>FitFunction&#45;&gt;PlotPeakByLogValue</title>
<path fill="none" stroke="#000000" d="M284.3726,-427.9551C301.8247,-418.3035 323.5014,-406.3156 342.1515,-396.0016"/>
<polygon fill="#000000" stroke="#000000" points="343.9749,-398.9928 351.032,-391.0904 340.5872,-392.8671 343.9749,-398.9928"/>
</g>
</g>
</svg>
