<?xml version="1.0" encoding="UTF-8" standalone="no"?>
<!DOCTYPE svg PUBLIC "-//W3C//DTD SVG 1.1//EN"
 "http://www.w3.org/Graphics/SVG/1.1/DTD/svg11.dtd">
<!-- Generated by graphviz version 2.40.1 (20161225.0304)
 -->
<!-- Title: PDToPDFgetN Pages: 1 -->
<svg width="382pt" height="499pt"
 viewBox="0.00 0.00 381.50 499.00" xmlns="http://www.w3.org/2000/svg" xmlns:xlink="http://www.w3.org/1999/xlink">
<g id="graph0" class="graph" transform="scale(1 1) rotate(0) translate(4 495)">
<title>PDToPDFgetN</title>
<polygon fill="#ffffff" stroke="transparent" points="-4,4 -4,-495 377.5,-495 377.5,4 -4,4"/>
<text text-anchor="middle" x="186.75" y="-475.8" font-family="Helvetica,sans-Serif" font-size="14.00" fill="#000000">PDToPDFgetN Flowchart</text>
<!-- InputWorkspace -->
<g id="node1" class="node">
<title>InputWorkspace</title>
<ellipse fill="#f0e68c" stroke="#000000" cx="281" cy="-378" rx="74.9875" ry="18"/>
<text text-anchor="middle" x="281" y="-374.3" font-family="Helvetica,sans-Serif" font-size="14.00" fill="#000000">InputWorkspace</text>
</g>
<!-- determineChar -->
<g id="node4" class="node">
<title>determineChar</title>
<path fill="#87cefa" stroke="#000000" d="M240.5,-324C240.5,-324 43.5,-324 43.5,-324 37.5,-324 31.5,-318 31.5,-312 31.5,-312 31.5,-300 31.5,-300 31.5,-294 37.5,-288 43.5,-288 43.5,-288 240.5,-288 240.5,-288 246.5,-288 252.5,-294 252.5,-300 252.5,-300 252.5,-312 252.5,-312 252.5,-318 246.5,-324 240.5,-324"/>
<text text-anchor="middle" x="142" y="-302.3" font-family="Helvetica,sans-Serif" font-size="14.00" fill="#000000">PDDetermineCharacterizations v1</text>
</g>
<!-- InputWorkspace&#45;&gt;determineChar -->
<g id="edge3" class="edge">
<title>InputWorkspace&#45;&gt;determineChar</title>
<path fill="none" stroke="#000000" d="M249.4587,-361.6621C230.6198,-351.9038 206.4131,-339.3651 185.7456,-328.6596"/>
<polygon fill="#000000" stroke="#000000" points="187.3211,-325.534 176.8317,-324.0423 184.1014,-331.7497 187.3211,-325.534"/>
</g>
<!-- alignAndFocus -->
<g id="node5" class="node">
<title>alignAndFocus</title>
<path fill="#87cefa" stroke="#000000" d="M284.5,-252C284.5,-252 137.5,-252 137.5,-252 131.5,-252 125.5,-246 125.5,-240 125.5,-240 125.5,-228 125.5,-228 125.5,-222 131.5,-216 137.5,-216 137.5,-216 284.5,-216 284.5,-216 290.5,-216 296.5,-222 296.5,-228 296.5,-228 296.5,-240 296.5,-240 296.5,-246 290.5,-252 284.5,-252"/>
<text text-anchor="middle" x="211" y="-230.3" font-family="Helvetica,sans-Serif" font-size="14.00" fill="#000000">AlignAndFocusPowder v1</text>
</g>
<!-- InputWorkspace&#45;&gt;alignAndFocus -->
<g id="edge4" class="edge">
<title>InputWorkspace&#45;&gt;alignAndFocus</title>
<path fill="none" stroke="#000000" d="M280.0509,-359.7777C278.4229,-340.8708 274.0025,-310.9176 262,-288 256.5492,-277.5922 248.5185,-267.7529 240.4346,-259.3956"/>
<polygon fill="#000000" stroke="#000000" points="242.656,-256.6717 233.0682,-252.1634 237.752,-261.6667 242.656,-256.6717"/>
</g>
<!-- loadChar -->
<g id="node2" class="node">
<title>loadChar</title>
<path fill="#87cefa" stroke="#000000" d="M176,-396C176,-396 12,-396 12,-396 6,-396 0,-390 0,-384 0,-384 0,-372 0,-372 0,-366 6,-360 12,-360 12,-360 176,-360 176,-360 182,-360 188,-366 188,-372 188,-372 188,-384 188,-384 188,-390 182,-396 176,-396"/>
<text text-anchor="middle" x="94" y="-374.3" font-family="Helvetica,sans-Serif" font-size="14.00" fill="#000000">PDLoadCharacterizations v1</text>
</g>
<!-- loadChar&#45;&gt;determineChar -->
<g id="edge1" class="edge">
<title>loadChar&#45;&gt;determineChar</title>
<path fill="none" stroke="#000000" d="M106.1124,-359.8314C111.5281,-351.7079 118.0242,-341.9637 123.9921,-333.0118"/>
<polygon fill="#000000" stroke="#000000" points="127.0896,-334.6753 129.7245,-324.4133 121.2653,-330.7923 127.0896,-334.6753"/>
</g>
<!-- loadEvent -->
<g id="node3" class="node">
<title>loadEvent</title>
<path fill="#87cefa" stroke="#000000" d="M361.5,-468C361.5,-468 200.5,-468 200.5,-468 194.5,-468 188.5,-462 188.5,-456 188.5,-456 188.5,-444 188.5,-444 188.5,-438 194.5,-432 200.5,-432 200.5,-432 361.5,-432 361.5,-432 367.5,-432 373.5,-438 373.5,-444 373.5,-444 373.5,-456 373.5,-456 373.5,-462 367.5,-468 361.5,-468"/>
<text text-anchor="middle" x="281" y="-446.3" font-family="Helvetica,sans-Serif" font-size="14.00" fill="#000000">LoadEventAndCompress v1</text>
</g>
<!-- loadEvent&#45;&gt;InputWorkspace -->
<g id="edge2" class="edge">
<title>loadEvent&#45;&gt;InputWorkspace</title>
<path fill="none" stroke="#000000" d="M281,-431.8314C281,-424.131 281,-414.9743 281,-406.4166"/>
<polygon fill="#000000" stroke="#000000" points="284.5001,-406.4132 281,-396.4133 277.5001,-406.4133 284.5001,-406.4132"/>
</g>
<!-- determineChar&#45;&gt;alignAndFocus -->
<g id="edge5" class="edge">
<title>determineChar&#45;&gt;alignAndFocus</title>
<path fill="none" stroke="#000000" d="M159.4116,-287.8314C167.521,-279.3694 177.3156,-269.1489 186.182,-259.8971"/>
<polygon fill="#000000" stroke="#000000" points="188.9618,-262.0549 193.354,-252.4133 183.9079,-257.2115 188.9618,-262.0549"/>
</g>
<!-- norm -->
<g id="node6" class="node">
<title>norm</title>
<path fill="#87cefa" stroke="#000000" d="M277.5,-180C277.5,-180 144.5,-180 144.5,-180 138.5,-180 132.5,-174 132.5,-168 132.5,-168 132.5,-156 132.5,-156 132.5,-150 138.5,-144 144.5,-144 144.5,-144 277.5,-144 277.5,-144 283.5,-144 289.5,-150 289.5,-156 289.5,-156 289.5,-168 289.5,-168 289.5,-174 283.5,-180 277.5,-180"/>
<text text-anchor="middle" x="211" y="-158.3" font-family="Helvetica,sans-Serif" font-size="14.00" fill="#000000">NormaliseByCurrent v1</text>
</g>
<!-- alignAndFocus&#45;&gt;norm -->
<g id="edge6" class="edge">
<title>alignAndFocus&#45;&gt;norm</title>
<path fill="none" stroke="#000000" d="M211,-215.8314C211,-208.131 211,-198.9743 211,-190.4166"/>
<polygon fill="#000000" stroke="#000000" points="214.5001,-190.4132 211,-180.4133 207.5001,-190.4133 214.5001,-190.4132"/>
</g>
<!-- setUncert -->
<g id="node7" class="node">
<title>setUncert</title>
<path fill="#87cefa" stroke="#000000" d="M266,-108C266,-108 156,-108 156,-108 150,-108 144,-102 144,-96 144,-96 144,-84 144,-84 144,-78 150,-72 156,-72 156,-72 266,-72 266,-72 272,-72 278,-78 278,-84 278,-84 278,-96 278,-96 278,-102 272,-108 266,-108"/>
<text text-anchor="middle" x="211" y="-86.3" font-family="Helvetica,sans-Serif" font-size="14.00" fill="#000000">SetUncertainties v1</text>
</g>
<!-- norm&#45;&gt;setUncert -->
<g id="edge7" class="edge">
<title>norm&#45;&gt;setUncert</title>
<path fill="none" stroke="#000000" d="M211,-143.8314C211,-136.131 211,-126.9743 211,-118.4166"/>
<polygon fill="#000000" stroke="#000000" points="214.5001,-118.4132 211,-108.4133 207.5001,-118.4133 214.5001,-118.4132"/>
</g>
<!-- saveGSS -->
<g id="node8" class="node">
<title>saveGSS</title>
<path fill="#87cefa" stroke="#000000" d="M246.5,-36C246.5,-36 175.5,-36 175.5,-36 169.5,-36 163.5,-30 163.5,-24 163.5,-24 163.5,-12 163.5,-12 163.5,-6 169.5,0 175.5,0 175.5,0 246.5,0 246.5,0 252.5,0 258.5,-6 258.5,-12 258.5,-12 258.5,-24 258.5,-24 258.5,-30 252.5,-36 246.5,-36"/>
<text text-anchor="middle" x="211" y="-14.3" font-family="Helvetica,sans-Serif" font-size="14.00" fill="#000000">SaveGSS v1</text>
</g>
<!-- setUncert&#45;&gt;saveGSS -->
<g id="edge8" class="edge">
<title>setUncert&#45;&gt;saveGSS</title>
<path fill="none" stroke="#000000" d="M211,-71.8314C211,-64.131 211,-54.9743 211,-46.4166"/>
<polygon fill="#000000" stroke="#000000" points="214.5001,-46.4132 211,-36.4133 207.5001,-46.4133 214.5001,-46.4132"/>
</g>
</g>
</svg>
