<?xml version="1.0" encoding="UTF-8" standalone="no"?>
<!DOCTYPE svg PUBLIC "-//W3C//DTD SVG 1.1//EN"
 "http://www.w3.org/Graphics/SVG/1.1/DTD/svg11.dtd">
<!-- Generated by graphviz version 2.40.1 (20161225.0304)
 -->
<!-- Title: Transmission Pages: 1 -->
<svg width="492pt" height="404pt"
 viewBox="0.00 0.00 491.74 404.00" xmlns="http://www.w3.org/2000/svg" xmlns:xlink="http://www.w3.org/1999/xlink">
<g id="graph0" class="graph" transform="scale(1 1) rotate(0) translate(4 400)">
<title>Transmission</title>
<polygon fill="#ffffff" stroke="transparent" points="-4,4 -4,-400 487.737,-400 487.737,4 -4,4"/>
<!-- Run -->
<g id="node1" class="node">
<title>Run</title>
<ellipse fill="#f0e68c" stroke="#000000" cx="86.5" cy="-378" rx="27" ry="18"/>
<text text-anchor="middle" x="86.5" y="-374.3" font-family="Helvetica,sans-Serif" font-size="14.00" fill="#000000">Run</text>
</g>
<!-- LoadAndMerge -->
<g id="node5" class="node">
<title>LoadAndMerge</title>
<path fill="#87cefa" stroke="#000000" d="M129.5,-324C129.5,-324 43.5,-324 43.5,-324 37.5,-324 31.5,-318 31.5,-312 31.5,-312 31.5,-300 31.5,-300 31.5,-294 37.5,-288 43.5,-288 43.5,-288 129.5,-288 129.5,-288 135.5,-288 141.5,-294 141.5,-300 141.5,-300 141.5,-312 141.5,-312 141.5,-318 135.5,-324 129.5,-324"/>
<text text-anchor="middle" x="86.5" y="-302.3" font-family="Helvetica,sans-Serif" font-size="14.00" fill="#000000">LoadAndMerge</text>
</g>
<!-- Run&#45;&gt;LoadAndMerge -->
<g id="edge1" class="edge">
<title>Run&#45;&gt;LoadAndMerge</title>
<path fill="none" stroke="#000000" d="M86.5,-359.8314C86.5,-352.131 86.5,-342.9743 86.5,-334.4166"/>
<polygon fill="#000000" stroke="#000000" points="90.0001,-334.4132 86.5,-324.4133 83.0001,-334.4133 90.0001,-334.4132"/>
</g>
<!-- CadmiumTransmissionWorkspace -->
<g id="node2" class="node">
<title>CadmiumTransmissionWorkspace</title>
<ellipse fill="#f0e68c" stroke="#000000" cx="337.5" cy="-234" rx="146.4744" ry="18"/>
<text text-anchor="middle" x="337.5" y="-230.3" font-family="Helvetica,sans-Serif" font-size="14.00" fill="#000000">CadmiumTransmissionWorkspace</text>
</g>
<!-- Minus -->
<g id="node8" class="node">
<title>Minus</title>
<path fill="#87cefa" stroke="#000000" d="M226.5,-180C226.5,-180 196.5,-180 196.5,-180 190.5,-180 184.5,-174 184.5,-168 184.5,-168 184.5,-156 184.5,-156 184.5,-150 190.5,-144 196.5,-144 196.5,-144 226.5,-144 226.5,-144 232.5,-144 238.5,-150 238.5,-156 238.5,-156 238.5,-168 238.5,-168 238.5,-174 232.5,-180 226.5,-180"/>
<text text-anchor="middle" x="211.5" y="-158.3" font-family="Helvetica,sans-Serif" font-size="14.00" fill="#000000">Minus</text>
</g>
<!-- CadmiumTransmissionWorkspace&#45;&gt;Minus -->
<g id="edge4" class="edge">
<title>CadmiumTransmissionWorkspace&#45;&gt;Minus</title>
<path fill="none" stroke="#000000" d="M306.6769,-216.3868C288.7704,-206.1545 266.123,-193.2132 247.4128,-182.5216"/>
<polygon fill="#000000" stroke="#000000" points="249.0011,-179.3981 238.5821,-177.4755 245.5281,-185.4758 249.0011,-179.3981"/>
</g>
<!-- EmptyBeamWorkspace -->
<g id="node3" class="node">
<title>EmptyBeamWorkspace</title>
<ellipse fill="#f0e68c" stroke="#000000" cx="360.5" cy="-162" rx="103.9815" ry="18"/>
<text text-anchor="middle" x="360.5" y="-158.3" font-family="Helvetica,sans-Serif" font-size="14.00" fill="#000000">EmptyBeamWorkspace</text>
</g>
<!-- Divide2 -->
<g id="node7" class="node">
<title>Divide2</title>
<path fill="#87cefa" stroke="#000000" d="M300.5,-108C300.5,-108 270.5,-108 270.5,-108 264.5,-108 258.5,-102 258.5,-96 258.5,-96 258.5,-84 258.5,-84 258.5,-78 264.5,-72 270.5,-72 270.5,-72 300.5,-72 300.5,-72 306.5,-72 312.5,-78 312.5,-84 312.5,-84 312.5,-96 312.5,-96 312.5,-102 306.5,-108 300.5,-108"/>
<text text-anchor="middle" x="285.5" y="-86.3" font-family="Helvetica,sans-Serif" font-size="14.00" fill="#000000">Divide</text>
</g>
<!-- EmptyBeamWorkspace&#45;&gt;Divide2 -->
<g id="edge6" class="edge">
<title>EmptyBeamWorkspace&#45;&gt;Divide2</title>
<path fill="none" stroke="#000000" d="M341.9607,-144.2022C332.835,-135.4416 321.6763,-124.7293 311.6961,-115.1482"/>
<polygon fill="#000000" stroke="#000000" points="313.9848,-112.4936 304.347,-108.0931 309.137,-117.5433 313.9848,-112.4936"/>
</g>
<!-- OutputWorkspace -->
<g id="node4" class="node">
<title>OutputWorkspace</title>
<polygon fill="#c0c0c0" stroke="#000000" points="396.0819,-36 220.1708,-36 174.9181,0 350.8292,0 396.0819,-36"/>
<text text-anchor="middle" x="285.5" y="-14.3" font-family="Times,serif" font-size="14.00" fill="#000000">OutputWorkspace</text>
</g>
<!-- Divide -->
<g id="node6" class="node">
<title>Divide</title>
<path fill="#87cefa" stroke="#000000" d="M161,-252C161,-252 12,-252 12,-252 6,-252 0,-246 0,-240 0,-240 0,-228 0,-228 0,-222 6,-216 12,-216 12,-216 161,-216 161,-216 167,-216 173,-222 173,-228 173,-228 173,-240 173,-240 173,-246 167,-252 161,-252"/>
<text text-anchor="middle" x="86.5" y="-230.3" font-family="Helvetica,sans-Serif" font-size="14.00" fill="#000000">Normalize to monitor/time</text>
</g>
<!-- LoadAndMerge&#45;&gt;Divide -->
<g id="edge2" class="edge">
<title>LoadAndMerge&#45;&gt;Divide</title>
<path fill="none" stroke="#000000" d="M86.5,-287.8314C86.5,-280.131 86.5,-270.9743 86.5,-262.4166"/>
<polygon fill="#000000" stroke="#000000" points="90.0001,-262.4132 86.5,-252.4133 83.0001,-262.4133 90.0001,-262.4132"/>
</g>
<!-- Divide&#45;&gt;Minus -->
<g id="edge3" class="edge">
<title>Divide&#45;&gt;Minus</title>
<path fill="none" stroke="#000000" d="M118.0428,-215.8314C135.4109,-205.8273 157.0459,-193.3655 175.1246,-182.9522"/>
<polygon fill="#000000" stroke="#000000" points="177.2947,-185.7414 184.213,-177.7173 173.8008,-179.6757 177.2947,-185.7414"/>
</g>
<!-- Divide2&#45;&gt;OutputWorkspace -->
<g id="edge7" class="edge">
<title>Divide2&#45;&gt;OutputWorkspace</title>
<path fill="none" stroke="#000000" d="M285.5,-71.8314C285.5,-64.131 285.5,-54.9743 285.5,-46.4166"/>
<polygon fill="#000000" stroke="#000000" points="289.0001,-46.4132 285.5,-36.4133 282.0001,-46.4133 289.0001,-46.4132"/>
</g>
<!-- Minus&#45;&gt;Divide2 -->
<g id="edge5" class="edge">
<title>Minus&#45;&gt;Divide2</title>
<path fill="none" stroke="#000000" d="M230.1733,-143.8314C239.0249,-135.219 249.7486,-124.7851 259.3895,-115.4048"/>
<polygon fill="#000000" stroke="#000000" points="262.1061,-117.645 266.8326,-108.1628 257.2246,-112.6279 262.1061,-117.645"/>
</g>
</g>
</svg>
