<?xml version="1.0" encoding="UTF-8" standalone="no"?>
<!DOCTYPE svg PUBLIC "-//W3C//DTD SVG 1.1//EN"
 "http://www.w3.org/Graphics/SVG/1.1/DTD/svg11.dtd">
<!-- Generated by graphviz version 2.40.1 (20161225.0304)
 -->
<!-- Title: PowderILLEfficiency Pages: 1 -->
<svg width="744pt" height="1406pt"
 viewBox="0.00 0.00 744.01 1406.00" xmlns="http://www.w3.org/2000/svg" xmlns:xlink="http://www.w3.org/1999/xlink">
<g id="graph0" class="graph" transform="scale(1 1) rotate(0) translate(4 1402)">
<title>PowderILLEfficiency</title>
<polygon fill="#ffffff" stroke="transparent" points="-4,4 -4,-1402 740.014,-1402 740.014,4 -4,4"/>
<text text-anchor="middle" x="368.007" y="-1382.8" font-family="Helvetica,sans-Serif" font-size="14.00" fill="#000000">SequentialSummedReference1D Flowchart</text>
<!-- reference -->
<g id="node1" class="node">
<title>reference</title>
<polygon fill="#c0c0c0" stroke="#000000" points="127.5411,-735 26.2179,-735 .1527,-699 101.476,-699 127.5411,-735"/>
<text text-anchor="middle" x="63.8469" y="-713.3" font-family="Times,serif" font-size="14.00" fill="#000000">reference</text>
</g>
<!-- OutputResponseWorkspace -->
<g id="node14" class="node">
<title>OutputResponseWorkspace</title>
<ellipse fill="#f0e68c" stroke="#000000" cx="222.8469" cy="-630" rx="121.5784" ry="18"/>
<text text-anchor="middle" x="222.8469" y="-626.3" font-family="Helvetica,sans-Serif" font-size="14.00" fill="#000000">OutputResponseWorkspace</text>
</g>
<!-- reference&#45;&gt;OutputResponseWorkspace -->
<g id="edge37" class="edge">
<title>reference&#45;&gt;OutputResponseWorkspace</title>
<path fill="none" stroke="#000000" d="M96.7918,-698.9735C121.5276,-685.4389 155.5474,-666.8243 182.0113,-652.344"/>
<polygon fill="#000000" stroke="#000000" points="183.9366,-655.2803 191.0292,-647.4097 180.5765,-649.1394 183.9366,-655.2803"/>
</g>
<!-- WeightedMean -->
<g id="node18" class="node">
<title>WeightedMean</title>
<path fill="#87cefa" stroke="#000000" d="M106.3469,-109C106.3469,-109 21.3469,-109 21.3469,-109 15.3469,-109 9.3469,-103 9.3469,-97 9.3469,-97 9.3469,-85 9.3469,-85 9.3469,-79 15.3469,-73 21.3469,-73 21.3469,-73 106.3469,-73 106.3469,-73 112.3469,-73 118.3469,-79 118.3469,-85 118.3469,-85 118.3469,-97 118.3469,-97 118.3469,-103 112.3469,-109 106.3469,-109"/>
<text text-anchor="middle" x="63.8469" y="-87.3" font-family="Helvetica,sans-Serif" font-size="14.00" fill="#000000">WeightedMean</text>
</g>
<!-- reference&#45;&gt;WeightedMean -->
<g id="edge32" class="edge">
<title>reference&#45;&gt;WeightedMean</title>
<path fill="none" stroke="#000000" d="M56.9229,-698.6694C54.8469,-681.0629 54.8469,-653.7135 54.8469,-630 54.8469,-630 54.8469,-630 54.8469,-164 54.8469,-149.2996 54.8469,-132.934 55.6841,-119.4302"/>
<polygon fill="#000000" stroke="#000000" points="59.1855,-119.5624 56.5509,-109.3003 52.211,-118.9655 59.1855,-119.5624"/>
</g>
<!-- Divide -->
<g id="node20" class="node">
<title>Divide</title>
<path fill="#87cefa" stroke="#000000" d="M441.8469,-561C441.8469,-561 411.8469,-561 411.8469,-561 405.8469,-561 399.8469,-555 399.8469,-549 399.8469,-549 399.8469,-537 399.8469,-537 399.8469,-531 405.8469,-525 411.8469,-525 411.8469,-525 441.8469,-525 441.8469,-525 447.8469,-525 453.8469,-531 453.8469,-537 453.8469,-537 453.8469,-549 453.8469,-549 453.8469,-555 447.8469,-561 441.8469,-561"/>
<text text-anchor="middle" x="426.8469" y="-539.3" font-family="Helvetica,sans-Serif" font-size="14.00" fill="#000000">Divide</text>
</g>
<!-- reference&#45;&gt;Divide -->
<g id="edge13" class="edge">
<title>reference&#45;&gt;Divide</title>
<path fill="none" stroke="#000000" d="M57.7176,-698.6774C51.2787,-675.6455 44.6267,-636.2029 64.8469,-612 106.0524,-562.6786 305.5386,-548.2743 389.4915,-544.3587"/>
<polygon fill="#000000" stroke="#000000" points="389.7722,-547.8498 399.608,-543.912 389.4633,-540.8566 389.7722,-547.8498"/>
<text text-anchor="middle" x="78.3469" y="-626.3" font-family="Helvetica,sans-Serif" font-size="14.00" fill="#000000">LHS</text>
</g>
<!-- SplineInterpolation -->
<g id="node22" class="node">
<title>SplineInterpolation</title>
<path fill="#87cefa" stroke="#000000" d="M478.8469,-648C478.8469,-648 374.8469,-648 374.8469,-648 368.8469,-648 362.8469,-642 362.8469,-636 362.8469,-636 362.8469,-624 362.8469,-624 362.8469,-618 368.8469,-612 374.8469,-612 374.8469,-612 478.8469,-612 478.8469,-612 484.8469,-612 490.8469,-618 490.8469,-624 490.8469,-624 490.8469,-636 490.8469,-636 490.8469,-642 484.8469,-648 478.8469,-648"/>
<text text-anchor="middle" x="426.8469" y="-626.3" font-family="Helvetica,sans-Serif" font-size="14.00" fill="#000000">SplineInterpolation</text>
</g>
<!-- reference&#45;&gt;SplineInterpolation -->
<g id="edge18" class="edge">
<title>reference&#45;&gt;SplineInterpolation</title>
<path fill="none" stroke="#000000" d="M107.2632,-706.4309C150.0945,-696.0336 217.4456,-679.763 275.8469,-666 307.6354,-658.5087 317.629,-656.5625 352.723,-648.2482"/>
<polygon fill="#000000" stroke="#000000" points="353.848,-651.5783 362.766,-645.8582 352.2274,-644.7685 353.848,-651.5783"/>
<text text-anchor="middle" x="336.8469" y="-669.8" font-family="Helvetica,sans-Serif" font-size="14.00" fill="#000000">WorkspaceToMatch</text>
</g>
<!-- factor -->
<g id="node2" class="node">
<title>factor</title>
<polygon fill="#c0c0c0" stroke="#000000" points="456.8304,-255 383.681,-255 364.8635,-219 438.0128,-219 456.8304,-255"/>
<text text-anchor="middle" x="410.8469" y="-233.3" font-family="Times,serif" font-size="14.00" fill="#000000">factor</text>
</g>
<!-- single_cell_responseAfter -->
<g id="node4" class="node">
<title>single_cell_responseAfter</title>
<polygon fill="#c0c0c0" stroke="#000000" points="346.7053,-182 151.2651,-182 100.9886,-146 296.4287,-146 346.7053,-182"/>
<text text-anchor="middle" x="223.8469" y="-160.3" font-family="Times,serif" font-size="14.00" fill="#000000">single_cell_response</text>
</g>
<!-- factor&#45;&gt;single_cell_responseAfter -->
<g id="edge30" class="edge">
<title>factor&#45;&gt;single_cell_responseAfter</title>
<path fill="none" stroke="#000000" d="M365.1016,-219.1422C339.2765,-209.0607 306.8074,-196.3856 279.5126,-185.7304"/>
<polygon fill="#000000" stroke="#000000" points="280.6814,-182.4295 270.0932,-182.0534 278.1358,-188.9503 280.6814,-182.4295"/>
</g>
<!-- factors -->
<g id="node5" class="node">
<title>factors</title>
<polygon fill="#c0c0c0" stroke="#000000" points="465.3585,-182 385.0059,-182 364.3354,-146 444.688,-146 465.3585,-182"/>
<text text-anchor="middle" x="414.8469" y="-160.3" font-family="Times,serif" font-size="14.00" fill="#000000">factors</text>
</g>
<!-- factor&#45;&gt;factors -->
<g id="edge34" class="edge">
<title>factor&#45;&gt;factors</title>
<path fill="none" stroke="#000000" d="M411.8357,-218.9551C412.278,-210.8828 412.8099,-201.1764 413.3027,-192.1817"/>
<polygon fill="#000000" stroke="#000000" points="416.8032,-192.2669 413.8557,-182.0904 409.8137,-191.8839 416.8032,-192.2669"/>
</g>
<!-- single_cell_response -->
<g id="node3" class="node">
<title>single_cell_response</title>
<polygon fill="#c0c0c0" stroke="#000000" points="504.7053,-822 309.2651,-822 258.9886,-786 454.4287,-786 504.7053,-822"/>
<text text-anchor="middle" x="381.8469" y="-800.3" font-family="Times,serif" font-size="14.00" fill="#000000">single_cell_response</text>
</g>
<!-- single_cell_response&#45;&gt;reference -->
<g id="edge12" class="edge">
<title>single_cell_response&#45;&gt;reference</title>
<path fill="none" stroke="#000000" d="M315.9571,-785.9735C263.8076,-771.7062 191.0253,-751.7941 137.061,-737.0303"/>
<polygon fill="#000000" stroke="#000000" points="137.782,-733.599 127.2128,-734.336 135.9348,-740.3508 137.782,-733.599"/>
<text text-anchor="middle" x="292.8469" y="-756.8" font-family="Helvetica,sans-Serif" font-size="14.00" fill="#000000">For the first pixel</text>
</g>
<!-- InterpolateOverlappingAngles -->
<g id="node9" class="node">
<title>InterpolateOverlappingAngles</title>
<polygon fill="#32cd32" stroke="#000000" points="381.8469,-735 202.3753,-717 381.8469,-699 561.3186,-717 381.8469,-735"/>
<text text-anchor="middle" x="381.8469" y="-713.3" font-family="Helvetica,sans-Serif" font-size="14.00" fill="#000000">InterpolateOverlappingAngles</text>
</g>
<!-- single_cell_response&#45;&gt;InterpolateOverlappingAngles -->
<g id="edge14" class="edge">
<title>single_cell_response&#45;&gt;InterpolateOverlappingAngles</title>
<path fill="none" stroke="#000000" d="M381.8469,-785.9735C381.8469,-774.1918 381.8469,-758.5607 381.8469,-745.1581"/>
<polygon fill="#000000" stroke="#000000" points="385.347,-745.0033 381.8469,-735.0034 378.347,-745.0034 385.347,-745.0033"/>
</g>
<!-- single_cell_response&#45;&gt;SplineInterpolation -->
<g id="edge16" class="edge">
<title>single_cell_response&#45;&gt;SplineInterpolation</title>
<path fill="none" stroke="#000000" d="M455.0913,-786.3513C501.7774,-773.4519 556.0139,-754.8123 569.8469,-735 595.3862,-698.4215 546.2476,-669.6218 498.7602,-651.5082"/>
<polygon fill="#000000" stroke="#000000" points="499.9008,-648.1985 489.3073,-648.0288 497.4828,-654.7676 499.9008,-648.1985"/>
<text text-anchor="middle" x="650.8469" y="-713.3" font-family="Helvetica,sans-Serif" font-size="14.00" fill="#000000">WorkspaceToInterpolate</text>
</g>
<!-- single_cell_responseAfter&#45;&gt;WeightedMean -->
<g id="edge31" class="edge">
<title>single_cell_responseAfter&#45;&gt;WeightedMean</title>
<path fill="none" stroke="#000000" d="M184.2964,-145.9551C162.6615,-136.0841 135.6705,-123.7695 112.7258,-113.301"/>
<polygon fill="#000000" stroke="#000000" points="114.0477,-110.0571 103.497,-109.0904 111.142,-116.4255 114.0477,-110.0571"/>
</g>
<!-- absolute_normalise -->
<g id="node25" class="node">
<title>absolute_normalise</title>
<polygon fill="#20b2aa" stroke="#000000" points="481.8469,-109 347.8469,-109 347.8469,-73 481.8469,-73 481.8469,-109"/>
<text text-anchor="middle" x="414.8469" y="-87.3" font-family="Helvetica,sans-Serif" font-size="14.00" fill="#000000">absolute_normalise</text>
</g>
<!-- factors&#45;&gt;absolute_normalise -->
<g id="edge35" class="edge">
<title>factors&#45;&gt;absolute_normalise</title>
<path fill="none" stroke="#000000" d="M414.8469,-145.9551C414.8469,-137.8828 414.8469,-128.1764 414.8469,-119.1817"/>
<polygon fill="#000000" stroke="#000000" points="418.347,-119.0903 414.8469,-109.0904 411.347,-119.0904 418.347,-119.0903"/>
</g>
<!-- CalibrationMethod -->
<g id="node6" class="node">
<title>CalibrationMethod</title>
<polygon fill="#32cd32" stroke="#000000" points="428.8469,-415 311.8805,-397 428.8469,-379 545.8133,-397 428.8469,-415"/>
<text text-anchor="middle" x="428.8469" y="-393.3" font-family="Helvetica,sans-Serif" font-size="14.00" fill="#000000">CalibrationMethod</text>
</g>
<!-- MostLikelyMean -->
<g id="node17" class="node">
<title>MostLikelyMean</title>
<path fill="#87cefa" stroke="#000000" d="M352.8469,-328C352.8469,-328 260.8469,-328 260.8469,-328 254.8469,-328 248.8469,-322 248.8469,-316 248.8469,-316 248.8469,-304 248.8469,-304 248.8469,-298 254.8469,-292 260.8469,-292 260.8469,-292 352.8469,-292 352.8469,-292 358.8469,-292 364.8469,-298 364.8469,-304 364.8469,-304 364.8469,-316 364.8469,-316 364.8469,-322 358.8469,-328 352.8469,-328"/>
<text text-anchor="middle" x="306.8469" y="-306.3" font-family="Helvetica,sans-Serif" font-size="14.00" fill="#000000">MostLikelyMean</text>
</g>
<!-- CalibrationMethod&#45;&gt;MostLikelyMean -->
<g id="edge23" class="edge">
<title>CalibrationMethod&#45;&gt;MostLikelyMean</title>
<path fill="none" stroke="#000000" d="M378.6512,-386.6293C352.2309,-380.1416 323.5418,-371.1106 314.8469,-361 309.5647,-354.8577 307.0153,-346.6947 305.9274,-338.7038"/>
<polygon fill="#000000" stroke="#000000" points="309.4028,-338.2218 305.2322,-328.4824 302.4189,-338.6969 309.4028,-338.2218"/>
<text text-anchor="middle" x="364.8469" y="-349.8" font-family="Helvetica,sans-Serif" font-size="14.00" fill="#000000">MostLikelyMean</text>
</g>
<!-- mean -->
<g id="node28" class="node">
<title>mean</title>
<polygon fill="#20b2aa" stroke="#000000" points="437.8469,-328 383.8469,-328 383.8469,-292 437.8469,-292 437.8469,-328"/>
<text text-anchor="middle" x="410.8469" y="-306.3" font-family="Helvetica,sans-Serif" font-size="14.00" fill="#000000">mean</text>
</g>
<!-- CalibrationMethod&#45;&gt;mean -->
<g id="edge24" class="edge">
<title>CalibrationMethod&#45;&gt;mean</title>
<path fill="none" stroke="#000000" d="M425.2044,-379.3943C422.7485,-367.5244 419.4559,-351.6102 416.6434,-338.0162"/>
<polygon fill="#000000" stroke="#000000" points="420.0615,-337.2619 414.608,-328.1785 413.2067,-338.6802 420.0615,-337.2619"/>
<text text-anchor="middle" x="439.3469" y="-349.8" font-family="Helvetica,sans-Serif" font-size="14.00" fill="#000000">Mean</text>
</g>
<!-- median -->
<g id="node29" class="node">
<title>median</title>
<polygon fill="#20b2aa" stroke="#000000" points="517.8469,-328 455.8469,-328 455.8469,-292 517.8469,-292 517.8469,-328"/>
<text text-anchor="middle" x="486.8469" y="-306.3" font-family="Helvetica,sans-Serif" font-size="14.00" fill="#000000">median</text>
</g>
<!-- CalibrationMethod&#45;&gt;median -->
<g id="edge25" class="edge">
<title>CalibrationMethod&#45;&gt;median</title>
<path fill="none" stroke="#000000" d="M444.4336,-381.2385C449.9805,-375.1902 456.0375,-368.0442 460.8469,-361 465.8667,-353.6476 470.557,-345.1962 474.5337,-337.3151"/>
<polygon fill="#000000" stroke="#000000" points="477.7898,-338.6219 479.0047,-328.0969 471.4915,-335.5671 477.7898,-338.6219"/>
<text text-anchor="middle" x="492.8469" y="-349.8" font-family="Helvetica,sans-Serif" font-size="14.00" fill="#000000">Median</text>
</g>
<!-- CalibrationProvided -->
<g id="node7" class="node">
<title>CalibrationProvided</title>
<polygon fill="#32cd32" stroke="#000000" points="612.8469,-1215 489.5126,-1197 612.8469,-1179 736.1813,-1197 612.8469,-1215"/>
<text text-anchor="middle" x="612.8469" y="-1193.3" font-family="Helvetica,sans-Serif" font-size="14.00" fill="#000000">CalibrationProvided</text>
</g>
<!-- normalise -->
<g id="node23" class="node">
<title>normalise</title>
<polygon fill="#20b2aa" stroke="#000000" points="551.8469,-1055 475.8469,-1055 475.8469,-1019 551.8469,-1019 551.8469,-1055"/>
<text text-anchor="middle" x="513.8469" y="-1033.3" font-family="Helvetica,sans-Serif" font-size="14.00" fill="#000000">normalise</text>
</g>
<!-- CalibrationProvided&#45;&gt;normalise -->
<g id="edge6" class="edge">
<title>CalibrationProvided&#45;&gt;normalise</title>
<path fill="none" stroke="#000000" d="M616.9924,-1179.5707C621.2308,-1157.4823 625.1279,-1119.0356 608.8469,-1092 598.1305,-1074.2047 579.3173,-1061.5923 561.2449,-1052.9753"/>
<polygon fill="#000000" stroke="#000000" points="562.4683,-1049.689 551.9086,-1048.8271 559.6261,-1056.086 562.4683,-1049.689"/>
<text text-anchor="middle" x="628.8469" y="-1106.3" font-family="Helvetica,sans-Serif" font-size="14.00" fill="#000000">No</text>
</g>
<!-- calibrate -->
<g id="node24" class="node">
<title>calibrate</title>
<polygon fill="#20b2aa" stroke="#000000" points="409.8469,-1128 341.8469,-1128 341.8469,-1092 409.8469,-1092 409.8469,-1128"/>
<text text-anchor="middle" x="375.8469" y="-1106.3" font-family="Helvetica,sans-Serif" font-size="14.00" fill="#000000">calibrate</text>
</g>
<!-- CalibrationProvided&#45;&gt;calibrate -->
<g id="edge3" class="edge">
<title>CalibrationProvided&#45;&gt;calibrate</title>
<path fill="none" stroke="#000000" d="M575.4328,-1184.3731C538.1913,-1171.654 479.229,-1151.112 419.616,-1128.2095"/>
<polygon fill="#000000" stroke="#000000" points="420.6356,-1124.8514 410.0461,-1124.5144 418.1141,-1131.3815 420.6356,-1124.8514"/>
<text text-anchor="middle" x="515.8469" y="-1149.8" font-family="Helvetica,sans-Serif" font-size="14.00" fill="#000000">Yes</text>
</g>
<!-- NormaliseTo -->
<g id="node8" class="node">
<title>NormaliseTo</title>
<polygon fill="#32cd32" stroke="#000000" points="513.8469,-1128 427.5452,-1110 513.8469,-1092 600.1486,-1110 513.8469,-1128"/>
<text text-anchor="middle" x="513.8469" y="-1106.3" font-family="Helvetica,sans-Serif" font-size="14.00" fill="#000000">NormaliseTo</text>
</g>
<!-- NormaliseTo&#45;&gt;normalise -->
<g id="edge7" class="edge">
<title>NormaliseTo&#45;&gt;normalise</title>
<path fill="none" stroke="#000000" d="M513.8469,-1091.9551C513.8469,-1083.8828 513.8469,-1074.1764 513.8469,-1065.1817"/>
<polygon fill="#000000" stroke="#000000" points="517.347,-1065.0903 513.8469,-1055.0904 510.347,-1065.0904 517.347,-1065.0903"/>
</g>
<!-- InterpolateOverlappingAngles&#45;&gt;Divide -->
<g id="edge17" class="edge">
<title>InterpolateOverlappingAngles&#45;&gt;Divide</title>
<path fill="none" stroke="#000000" d="M426.8124,-703.3616C453.1396,-692.8001 484.2002,-675.2748 499.8469,-648 516.567,-618.8542 488.0041,-587.472 461.8559,-566.6841"/>
<polygon fill="#000000" stroke="#000000" points="463.9432,-563.8743 453.8713,-560.587 459.6949,-569.4377 463.9432,-563.8743"/>
<text text-anchor="middle" x="513.8469" y="-626.3" font-family="Helvetica,sans-Serif" font-size="14.00" fill="#000000">No</text>
</g>
<!-- InterpolateOverlappingAngles&#45;&gt;SplineInterpolation -->
<g id="edge15" class="edge">
<title>InterpolateOverlappingAngles&#45;&gt;SplineInterpolation</title>
<path fill="none" stroke="#000000" d="M390.7375,-699.8116C397.0225,-687.6605 405.5769,-671.122 412.782,-657.1922"/>
<polygon fill="#000000" stroke="#000000" points="416.0246,-658.5414 417.5101,-648.0512 409.807,-655.3254 416.0246,-658.5414"/>
<text text-anchor="middle" x="418.8469" y="-669.8" font-family="Helvetica,sans-Serif" font-size="14.00" fill="#000000">yes</text>
</g>
<!-- CalibrationRun -->
<g id="node10" class="node">
<title>CalibrationRun</title>
<ellipse fill="#f0e68c" stroke="#000000" cx="612.8469" cy="-1357" rx="68.7879" ry="18"/>
<text text-anchor="middle" x="612.8469" y="-1353.3" font-family="Helvetica,sans-Serif" font-size="14.00" fill="#000000">CalibrationRun</text>
</g>
<!-- LoadILLDiffraction -->
<g id="node16" class="node">
<title>LoadILLDiffraction</title>
<path fill="#87cefa" stroke="#000000" d="M663.8469,-1288C663.8469,-1288 561.8469,-1288 561.8469,-1288 555.8469,-1288 549.8469,-1282 549.8469,-1276 549.8469,-1276 549.8469,-1264 549.8469,-1264 549.8469,-1258 555.8469,-1252 561.8469,-1252 561.8469,-1252 663.8469,-1252 663.8469,-1252 669.8469,-1252 675.8469,-1258 675.8469,-1264 675.8469,-1264 675.8469,-1276 675.8469,-1276 675.8469,-1282 669.8469,-1288 663.8469,-1288"/>
<text text-anchor="middle" x="612.8469" y="-1266.3" font-family="Helvetica,sans-Serif" font-size="14.00" fill="#000000">LoadILLDiffraction</text>
</g>
<!-- CalibrationRun&#45;&gt;LoadILLDiffraction -->
<g id="edge1" class="edge">
<title>CalibrationRun&#45;&gt;LoadILLDiffraction</title>
<path fill="none" stroke="#000000" d="M612.8469,-1338.9735C612.8469,-1327.1918 612.8469,-1311.5607 612.8469,-1298.1581"/>
<polygon fill="#000000" stroke="#000000" points="616.347,-1298.0033 612.8469,-1288.0034 609.347,-1298.0034 616.347,-1298.0033"/>
<text text-anchor="middle" x="653.8469" y="-1309.8" font-family="Helvetica,sans-Serif" font-size="14.00" fill="#000000">DetectorScan</text>
</g>
<!-- CalibrationFile -->
<g id="node11" class="node">
<title>CalibrationFile</title>
<ellipse fill="#f0e68c" stroke="#000000" cx="375.8469" cy="-1197" rx="66.8882" ry="18"/>
<text text-anchor="middle" x="375.8469" y="-1193.3" font-family="Helvetica,sans-Serif" font-size="14.00" fill="#000000">CalibrationFile</text>
</g>
<!-- CalibrationFile&#45;&gt;calibrate -->
<g id="edge4" class="edge">
<title>CalibrationFile&#45;&gt;calibrate</title>
<path fill="none" stroke="#000000" d="M375.8469,-1178.9735C375.8469,-1167.1918 375.8469,-1151.5607 375.8469,-1138.1581"/>
<polygon fill="#000000" stroke="#000000" points="379.347,-1138.0033 375.8469,-1128.0034 372.347,-1138.0034 379.347,-1138.0033"/>
</g>
<!-- ExcludedRange -->
<g id="node12" class="node">
<title>ExcludedRange</title>
<ellipse fill="#f0e68c" stroke="#000000" cx="544.8469" cy="-543" rx="72.5877" ry="18"/>
<text text-anchor="middle" x="544.8469" y="-539.3" font-family="Helvetica,sans-Serif" font-size="14.00" fill="#000000">ExcludedRange</text>
</g>
<!-- exclude_ranges -->
<g id="node26" class="node">
<title>exclude_ranges</title>
<polygon fill="#20b2aa" stroke="#000000" points="484.8469,-488 372.8469,-488 372.8469,-452 484.8469,-452 484.8469,-488"/>
<text text-anchor="middle" x="428.8469" y="-466.3" font-family="Helvetica,sans-Serif" font-size="14.00" fill="#000000">exclude_ranges</text>
</g>
<!-- ExcludedRange&#45;&gt;exclude_ranges -->
<g id="edge21" class="edge">
<title>ExcludedRange&#45;&gt;exclude_ranges</title>
<path fill="none" stroke="#000000" d="M517.9426,-526.0688C502.5542,-516.3848 483.0196,-504.0914 466.1658,-493.4851"/>
<polygon fill="#000000" stroke="#000000" points="467.9606,-490.4793 457.6328,-488.1153 464.2322,-496.4038 467.9606,-490.4793"/>
</g>
<!-- OutputWorkspace -->
<g id="node13" class="node">
<title>OutputWorkspace</title>
<ellipse fill="#f0e68c" stroke="#000000" cx="414.8469" cy="-18" rx="81.7856" ry="18"/>
<text text-anchor="middle" x="414.8469" y="-14.3" font-family="Helvetica,sans-Serif" font-size="14.00" fill="#000000">OutputWorkspace</text>
</g>
<!-- PixelRange -->
<g id="node15" class="node">
<title>PixelRange</title>
<ellipse fill="#f0e68c" stroke="#000000" cx="365.8469" cy="-964" rx="55.7903" ry="18"/>
<text text-anchor="middle" x="365.8469" y="-960.3" font-family="Helvetica,sans-Serif" font-size="14.00" fill="#000000">PixelRange</text>
</g>
<!-- extract_single_cell -->
<g id="node27" class="node">
<title>extract_single_cell</title>
<polygon fill="#20b2aa" stroke="#000000" points="445.8469,-895 317.8469,-895 317.8469,-859 445.8469,-859 445.8469,-895"/>
<text text-anchor="middle" x="381.8469" y="-873.3" font-family="Helvetica,sans-Serif" font-size="14.00" fill="#000000">extract_single_cell</text>
</g>
<!-- PixelRange&#45;&gt;extract_single_cell -->
<g id="edge10" class="edge">
<title>PixelRange&#45;&gt;extract_single_cell</title>
<path fill="none" stroke="#000000" d="M369.1621,-945.9735C371.3289,-934.1918 374.2036,-918.5607 376.6684,-905.1581"/>
<polygon fill="#000000" stroke="#000000" points="380.1694,-905.4715 378.536,-895.0034 373.2849,-904.2053 380.1694,-905.4715"/>
</g>
<!-- LoadILLDiffraction&#45;&gt;CalibrationProvided -->
<g id="edge2" class="edge">
<title>LoadILLDiffraction&#45;&gt;CalibrationProvided</title>
<path fill="none" stroke="#000000" d="M612.8469,-1251.9551C612.8469,-1243.8828 612.8469,-1234.1764 612.8469,-1225.1817"/>
<polygon fill="#000000" stroke="#000000" points="616.347,-1225.0903 612.8469,-1215.0904 609.347,-1225.0904 616.347,-1225.0903"/>
</g>
<!-- MostLikelyMean&#45;&gt;factor -->
<g id="edge26" class="edge">
<title>MostLikelyMean&#45;&gt;factor</title>
<path fill="none" stroke="#000000" d="M332.5548,-291.9551C345.93,-282.5667 362.4545,-270.9678 376.8701,-260.8491"/>
<polygon fill="#000000" stroke="#000000" points="378.9003,-263.7003 385.0744,-255.0904 374.8786,-257.9709 378.9003,-263.7003"/>
</g>
<!-- WeightedMean&#45;&gt;reference -->
<g id="edge33" class="edge">
<title>WeightedMean&#45;&gt;reference</title>
<path fill="none" stroke="#000000" d="M71.1429,-109.3003C72.8469,-124.0651 72.8469,-145.3698 72.8469,-164 72.8469,-630 72.8469,-630 72.8469,-630 72.8469,-649.4525 72.8469,-671.3516 71.701,-688.3123"/>
<polygon fill="#000000" stroke="#000000" points="68.1794,-688.3965 70.771,-698.6694 75.1514,-689.0226 68.1794,-688.3965"/>
</g>
<!-- ConvertSpectrumAxis -->
<g id="node19" class="node">
<title>ConvertSpectrumAxis</title>
<path fill="#87cefa" stroke="#000000" d="M575.8469,-982C575.8469,-982 451.8469,-982 451.8469,-982 445.8469,-982 439.8469,-976 439.8469,-970 439.8469,-970 439.8469,-958 439.8469,-958 439.8469,-952 445.8469,-946 451.8469,-946 451.8469,-946 575.8469,-946 575.8469,-946 581.8469,-946 587.8469,-952 587.8469,-958 587.8469,-958 587.8469,-970 587.8469,-970 587.8469,-976 581.8469,-982 575.8469,-982"/>
<text text-anchor="middle" x="513.8469" y="-960.3" font-family="Helvetica,sans-Serif" font-size="14.00" fill="#000000">ConvertSpectrumAxis</text>
</g>
<!-- ConvertSpectrumAxis&#45;&gt;extract_single_cell -->
<g id="edge9" class="edge">
<title>ConvertSpectrumAxis&#45;&gt;extract_single_cell</title>
<path fill="none" stroke="#000000" d="M486.4964,-945.9735C466.5853,-932.8503 439.428,-914.9512 417.7685,-900.6756"/>
<polygon fill="#000000" stroke="#000000" points="419.4381,-897.5842 409.1624,-895.0034 415.5859,-903.4289 419.4381,-897.5842"/>
<text text-anchor="middle" x="465.3469" y="-916.8" font-family="Helvetica,sans-Serif" font-size="14.00" fill="#000000">i&#45;th</text>
</g>
<!-- Divide&#45;&gt;exclude_ranges -->
<g id="edge20" class="edge">
<title>Divide&#45;&gt;exclude_ranges</title>
<path fill="none" stroke="#000000" d="M427.3413,-524.9551C427.5625,-516.8828 427.8284,-507.1764 428.0748,-498.1817"/>
<polygon fill="#000000" stroke="#000000" points="431.576,-498.1825 428.3513,-488.0904 424.5786,-497.9907 431.576,-498.1825"/>
</g>
<!-- Scale -->
<g id="node21" class="node">
<title>Scale</title>
<path fill="#87cefa" stroke="#000000" d="M238.8469,-255C238.8469,-255 208.8469,-255 208.8469,-255 202.8469,-255 196.8469,-249 196.8469,-243 196.8469,-243 196.8469,-231 196.8469,-231 196.8469,-225 202.8469,-219 208.8469,-219 208.8469,-219 238.8469,-219 238.8469,-219 244.8469,-219 250.8469,-225 250.8469,-231 250.8469,-231 250.8469,-243 250.8469,-243 250.8469,-249 244.8469,-255 238.8469,-255"/>
<text text-anchor="middle" x="223.8469" y="-233.3" font-family="Helvetica,sans-Serif" font-size="14.00" fill="#000000">Scale</text>
</g>
<!-- Scale&#45;&gt;single_cell_responseAfter -->
<g id="edge29" class="edge">
<title>Scale&#45;&gt;single_cell_responseAfter</title>
<path fill="none" stroke="#000000" d="M223.8469,-218.9551C223.8469,-210.8828 223.8469,-201.1764 223.8469,-192.1817"/>
<polygon fill="#000000" stroke="#000000" points="227.347,-192.0903 223.8469,-182.0904 220.347,-192.0904 227.347,-192.0903"/>
</g>
<!-- SplineInterpolation&#45;&gt;Divide -->
<g id="edge19" class="edge">
<title>SplineInterpolation&#45;&gt;Divide</title>
<path fill="none" stroke="#000000" d="M426.8469,-611.9735C426.8469,-600.1918 426.8469,-584.5607 426.8469,-571.1581"/>
<polygon fill="#000000" stroke="#000000" points="430.347,-571.0033 426.8469,-561.0034 423.347,-571.0034 430.347,-571.0033"/>
<text text-anchor="middle" x="441.3469" y="-582.8" font-family="Helvetica,sans-Serif" font-size="14.00" fill="#000000">RHS</text>
</g>
<!-- normalise&#45;&gt;ConvertSpectrumAxis -->
<g id="edge8" class="edge">
<title>normalise&#45;&gt;ConvertSpectrumAxis</title>
<path fill="none" stroke="#000000" d="M513.8469,-1018.9551C513.8469,-1010.8828 513.8469,-1001.1764 513.8469,-992.1817"/>
<polygon fill="#000000" stroke="#000000" points="517.347,-992.0903 513.8469,-982.0904 510.347,-992.0904 517.347,-992.0903"/>
</g>
<!-- calibrate&#45;&gt;normalise -->
<g id="edge5" class="edge">
<title>calibrate&#45;&gt;normalise</title>
<path fill="none" stroke="#000000" d="M409.9593,-1091.9551C428.2876,-1082.2596 451.0728,-1070.2066 470.6301,-1059.861"/>
<polygon fill="#000000" stroke="#000000" points="472.4459,-1062.8602 479.6487,-1055.0904 469.1727,-1056.6725 472.4459,-1062.8602"/>
</g>
<!-- absolute_normalise&#45;&gt;OutputWorkspace -->
<g id="edge36" class="edge">
<title>absolute_normalise&#45;&gt;OutputWorkspace</title>
<path fill="none" stroke="#000000" d="M414.8469,-72.9551C414.8469,-64.8828 414.8469,-55.1764 414.8469,-46.1817"/>
<polygon fill="#000000" stroke="#000000" points="418.347,-46.0903 414.8469,-36.0904 411.347,-46.0904 418.347,-46.0903"/>
</g>
<!-- exclude_ranges&#45;&gt;CalibrationMethod -->
<g id="edge22" class="edge">
<title>exclude_ranges&#45;&gt;CalibrationMethod</title>
<path fill="none" stroke="#000000" d="M428.8469,-451.9551C428.8469,-443.8828 428.8469,-434.1764 428.8469,-425.1817"/>
<polygon fill="#000000" stroke="#000000" points="432.347,-425.0903 428.8469,-415.0904 425.347,-425.0904 432.347,-425.0903"/>
</g>
<!-- extract_single_cell&#45;&gt;single_cell_response -->
<g id="edge11" class="edge">
<title>extract_single_cell&#45;&gt;single_cell_response</title>
<path fill="none" stroke="#000000" d="M381.8469,-858.9551C381.8469,-850.8828 381.8469,-841.1764 381.8469,-832.1817"/>
<polygon fill="#000000" stroke="#000000" points="385.347,-832.0903 381.8469,-822.0904 378.347,-832.0904 385.347,-832.0903"/>
</g>
<!-- mean&#45;&gt;factor -->
<g id="edge27" class="edge">
<title>mean&#45;&gt;factor</title>
<path fill="none" stroke="#000000" d="M410.8469,-291.9551C410.8469,-283.8828 410.8469,-274.1764 410.8469,-265.1817"/>
<polygon fill="#000000" stroke="#000000" points="414.347,-265.0903 410.8469,-255.0904 407.347,-265.0904 414.347,-265.0903"/>
</g>
<!-- median&#45;&gt;factor -->
<g id="edge28" class="edge">
<title>median&#45;&gt;factor</title>
<path fill="none" stroke="#000000" d="M468.0604,-291.9551C458.743,-283.0054 447.3342,-272.047 437.1626,-262.2769"/>
<polygon fill="#000000" stroke="#000000" points="439.3173,-259.4935 429.6807,-255.0904 434.4682,-264.5419 439.3173,-259.4935"/>
</g>
</g>
</svg>
