<?xml version="1.0" encoding="UTF-8" standalone="no"?>
<!DOCTYPE svg PUBLIC "-//W3C//DTD SVG 1.1//EN"
 "http://www.w3.org/Graphics/SVG/1.1/DTD/svg11.dtd">
<!-- Generated by graphviz version 2.40.1 (20161225.0304)
 -->
<!-- Title: ReflectometryReductionOne Pages: 1 -->
<svg width="313pt" height="614pt"
 viewBox="0.00 0.00 312.69 614.00" xmlns="http://www.w3.org/2000/svg" xmlns:xlink="http://www.w3.org/1999/xlink">
<g id="graph0" class="graph" transform="scale(1 1) rotate(0) translate(4 610)">
<title>ReflectometryReductionOne</title>
<polygon fill="#ffffff" stroke="transparent" points="-4,4 -4,-610 308.6886,-610 308.6886,4 -4,4"/>
<!-- inputWS -->
<g id="node1" class="node">
<title>inputWS</title>
<ellipse fill="#f0e68c" stroke="#000000" cx="132.6886" cy="-564" rx="74.9875" ry="18"/>
<text text-anchor="middle" x="132.6886" y="-560.3" font-family="Helvetica,sans-Serif" font-size="14.00" fill="#000000">InputWorkspace</text>
</g>
<!-- checkSumDone -->
<g id="node4" class="node">
<title>checkSumDone</title>
<polygon fill="#32cd32" stroke="#000000" points="132.6886,-509 6.001,-491 132.6886,-473 259.3762,-491 132.6886,-509"/>
<text text-anchor="middle" x="132.6886" y="-487.3" font-family="Helvetica,sans-Serif" font-size="14.00" fill="#000000">Reduction required?</text>
</g>
<!-- inputWS&#45;&gt;checkSumDone -->
<g id="edge1" class="edge">
<title>inputWS&#45;&gt;checkSumDone</title>
<path fill="none" stroke="#000000" d="M132.6886,-545.9551C132.6886,-537.8828 132.6886,-528.1764 132.6886,-519.1817"/>
<polygon fill="#000000" stroke="#000000" points="136.1887,-519.0903 132.6886,-509.0904 129.1887,-519.0904 136.1887,-519.0903"/>
</g>
<!-- outputWSWL -->
<g id="node2" class="node">
<title>outputWSWL</title>
<ellipse fill="#f0e68c" stroke="#000000" cx="128.6886" cy="-166" rx="128.8774" ry="18"/>
<text text-anchor="middle" x="128.6886" y="-162.3" font-family="Helvetica,sans-Serif" font-size="14.00" fill="#000000">OutputWorkspaceWavelength</text>
</g>
<!-- convertMom -->
<g id="node8" class="node">
<title>convertMom</title>
<polygon fill="#20b2aa" stroke="#000000" points="204.6886,-111 52.6886,-111 52.6886,-73 204.6886,-73 204.6886,-111"/>
<text text-anchor="middle" x="128.6886" y="-95.8" font-family="Helvetica,sans-Serif" font-size="14.00" fill="#000000">Convert to momentum</text>
<text text-anchor="middle" x="128.6886" y="-80.8" font-family="Helvetica,sans-Serif" font-size="14.00" fill="#000000">transfer</text>
</g>
<!-- outputWSWL&#45;&gt;convertMom -->
<g id="edge7" class="edge">
<title>outputWSWL&#45;&gt;convertMom</title>
<path fill="none" stroke="#000000" d="M128.6886,-147.7079C128.6886,-139.7096 128.6886,-130.1287 128.6886,-121.1859"/>
<polygon fill="#000000" stroke="#000000" points="132.1887,-121.1139 128.6886,-111.114 125.1887,-121.114 132.1887,-121.1139"/>
</g>
<!-- outputWSFinal -->
<g id="node3" class="node">
<title>outputWSFinal</title>
<ellipse fill="#f0e68c" stroke="#000000" cx="128.6886" cy="-18" rx="81.7856" ry="18"/>
<text text-anchor="middle" x="128.6886" y="-14.3" font-family="Helvetica,sans-Serif" font-size="14.00" fill="#000000">OutputWorkspace</text>
</g>
<!-- convertUnits -->
<g id="node5" class="node">
<title>convertUnits</title>
<polygon fill="#20b2aa" stroke="#000000" points="304.6886,-422 152.6886,-422 152.6886,-369 304.6886,-369 304.6886,-422"/>
<text text-anchor="middle" x="228.6886" y="-406.8" font-family="Helvetica,sans-Serif" font-size="14.00" fill="#000000">Convert to λ</text>
<text text-anchor="middle" x="228.6886" y="-391.8" font-family="Helvetica,sans-Serif" font-size="14.00" fill="#000000">Sum in λ</text>
<text text-anchor="middle" x="228.6886" y="-376.8" font-family="Helvetica,sans-Serif" font-size="14.00" fill="#000000">Normalize by monitors</text>
</g>
<!-- checkSumDone&#45;&gt;convertUnits -->
<g id="edge3" class="edge">
<title>checkSumDone&#45;&gt;convertUnits</title>
<path fill="none" stroke="#000000" d="M148.541,-475.2301C160.9894,-462.8465 178.7767,-445.152 194.4333,-429.5769"/>
<polygon fill="#000000" stroke="#000000" points="197.2942,-431.6678 201.9153,-422.1338 192.3574,-426.7051 197.2942,-431.6678"/>
<text text-anchor="middle" x="194.6886" y="-443.8" font-family="Helvetica,sans-Serif" font-size="14.00" fill="#000000">Yes</text>
</g>
<!-- applyCorrTrans -->
<g id="node6" class="node">
<title>applyCorrTrans</title>
<polygon fill="#20b2aa" stroke="#000000" points="194.1886,-332 63.1886,-332 63.1886,-294 194.1886,-294 194.1886,-332"/>
<text text-anchor="middle" x="128.6886" y="-316.8" font-family="Helvetica,sans-Serif" font-size="14.00" fill="#000000">Apply transmission</text>
<text text-anchor="middle" x="128.6886" y="-301.8" font-family="Helvetica,sans-Serif" font-size="14.00" fill="#000000"> corrections</text>
</g>
<!-- checkSumDone&#45;&gt;applyCorrTrans -->
<g id="edge2" class="edge">
<title>checkSumDone&#45;&gt;applyCorrTrans</title>
<path fill="none" stroke="#000000" d="M130.3793,-473.1671C128.6993,-459.2571 126.5708,-439.4366 125.6886,-422 124.4983,-398.4745 125.0583,-392.5471 125.6886,-369 125.9219,-360.2817 126.3593,-350.808 126.8293,-342.1751"/>
<polygon fill="#000000" stroke="#000000" points="130.3247,-342.3544 127.4074,-332.1692 123.3364,-341.9506 130.3247,-342.3544"/>
<text text-anchor="middle" x="134.6886" y="-391.8" font-family="Helvetica,sans-Serif" font-size="14.00" fill="#000000">No</text>
</g>
<!-- convertUnits&#45;&gt;applyCorrTrans -->
<g id="edge4" class="edge">
<title>convertUnits&#45;&gt;applyCorrTrans</title>
<path fill="none" stroke="#000000" d="M196.4975,-368.9424C184.7143,-359.2212 171.4132,-348.2478 159.7323,-338.6111"/>
<polygon fill="#000000" stroke="#000000" points="161.884,-335.8489 151.9429,-332.1848 157.4293,-341.2485 161.884,-335.8489"/>
</g>
<!-- sumInQ -->
<g id="node7" class="node">
<title>sumInQ</title>
<polygon fill="#20b2aa" stroke="#000000" points="165.6886,-257 91.6886,-257 91.6886,-221 165.6886,-221 165.6886,-257"/>
<text text-anchor="middle" x="128.6886" y="-235.3" font-family="Helvetica,sans-Serif" font-size="14.00" fill="#000000">Sum in Q</text>
</g>
<!-- applyCorrTrans&#45;&gt;sumInQ -->
<g id="edge5" class="edge">
<title>applyCorrTrans&#45;&gt;sumInQ</title>
<path fill="none" stroke="#000000" d="M128.6886,-293.9432C128.6886,-285.8174 128.6886,-276.1682 128.6886,-267.2408"/>
<polygon fill="#000000" stroke="#000000" points="132.1887,-267.2268 128.6886,-257.2269 125.1887,-267.2269 132.1887,-267.2268"/>
</g>
<!-- sumInQ&#45;&gt;outputWSWL -->
<g id="edge6" class="edge">
<title>sumInQ&#45;&gt;outputWSWL</title>
<path fill="none" stroke="#000000" d="M128.6886,-220.9551C128.6886,-212.8828 128.6886,-203.1764 128.6886,-194.1817"/>
<polygon fill="#000000" stroke="#000000" points="132.1887,-194.0903 128.6886,-184.0904 125.1887,-194.0904 132.1887,-194.0903"/>
</g>
<!-- convertMom&#45;&gt;outputWSFinal -->
<g id="edge8" class="edge">
<title>convertMom&#45;&gt;outputWSFinal</title>
<path fill="none" stroke="#000000" d="M128.6886,-72.9432C128.6886,-64.8174 128.6886,-55.1682 128.6886,-46.2408"/>
<polygon fill="#000000" stroke="#000000" points="132.1887,-46.2268 128.6886,-36.2269 125.1887,-46.2269 132.1887,-46.2268"/>
</g>
</g>
</svg>
