<?xml version="1.0" encoding="UTF-8" standalone="no"?>
<!DOCTYPE svg PUBLIC "-//W3C//DTD SVG 1.1//EN"
 "http://www.w3.org/Graphics/SVG/1.1/DTD/svg11.dtd">
<!-- Generated by graphviz version 2.40.1 (20161225.0304)
 -->
<!-- Title: FocusAndSum Pages: 1 -->
<svg width="322pt" height="900pt"
 viewBox="0.00 0.00 322.00 900.00" xmlns="http://www.w3.org/2000/svg" xmlns:xlink="http://www.w3.org/1999/xlink">
<g id="graph0" class="graph" transform="scale(1 1) rotate(0) translate(4 896)">
<title>FocusAndSum</title>
<polygon fill="#ffffff" stroke="transparent" points="-4,4 -4,-896 318,-896 318,4 -4,4"/>
<text text-anchor="middle" x="157" y="-876.8" font-family="Helvetica,sans-Serif" font-size="14.00" fill="#000000">SNSPowderReduction Focus And Sum Flowchart</text>
<!-- RunNumberList -->
<g id="node1" class="node">
<title>RunNumberList</title>
<ellipse fill="#f0e68c" stroke="#000000" cx="165.6111" cy="-851" rx="72.2875" ry="18"/>
<text text-anchor="middle" x="165.6111" y="-847.3" font-family="Helvetica,sans-Serif" font-size="14.00" fill="#000000">RunNumberList</text>
</g>
<!-- getRunNumber -->
<g id="node4" class="node">
<title>getRunNumber</title>
<path fill="#87cefa" stroke="#000000" d="M215.6111,-796C215.6111,-796 115.6111,-796 115.6111,-796 109.6111,-796 103.6111,-790 103.6111,-784 103.6111,-784 103.6111,-772 103.6111,-772 103.6111,-766 109.6111,-760 115.6111,-760 115.6111,-760 215.6111,-760 215.6111,-760 221.6111,-760 227.6111,-766 227.6111,-772 227.6111,-772 227.6111,-784 227.6111,-784 227.6111,-790 221.6111,-796 215.6111,-796"/>
<text text-anchor="middle" x="165.6111" y="-774.3" font-family="Helvetica,sans-Serif" font-size="14.00" fill="#000000">Get a run number</text>
</g>
<!-- RunNumberList&#45;&gt;getRunNumber -->
<g id="edge1" class="edge">
<title>RunNumberList&#45;&gt;getRunNumber</title>
<path fill="none" stroke="#000000" d="M165.6111,-832.9551C165.6111,-824.8828 165.6111,-815.1764 165.6111,-806.1817"/>
<polygon fill="#000000" stroke="#000000" points="169.1112,-806.0903 165.6111,-796.0904 162.1112,-806.0904 169.1112,-806.0903"/>
</g>
<!-- OutputWorkspace -->
<g id="node2" class="node">
<title>OutputWorkspace</title>
<ellipse fill="#f0e68c" stroke="#000000" cx="171.6111" cy="-18" rx="81.7856" ry="18"/>
<text text-anchor="middle" x="171.6111" y="-14.3" font-family="Helvetica,sans-Serif" font-size="14.00" fill="#000000">OutputWorkspace</text>
</g>
<!-- alignAndFocusPowder -->
<g id="node3" class="node">
<title>alignAndFocusPowder</title>
<path fill="#87cefa" stroke="#000000" d="M180.1111,-504C180.1111,-504 33.1111,-504 33.1111,-504 27.1111,-504 21.1111,-498 21.1111,-492 21.1111,-492 21.1111,-480 21.1111,-480 21.1111,-474 27.1111,-468 33.1111,-468 33.1111,-468 180.1111,-468 180.1111,-468 186.1111,-468 192.1111,-474 192.1111,-480 192.1111,-480 192.1111,-492 192.1111,-492 192.1111,-498 186.1111,-504 180.1111,-504"/>
<text text-anchor="middle" x="106.6111" y="-482.3" font-family="Helvetica,sans-Serif" font-size="14.00" fill="#000000">AlignAndFocusPowder v1</text>
</g>
<!-- mergeWorkspace -->
<g id="node8" class="node">
<title>mergeWorkspace</title>
<path fill="#87cefa" stroke="#000000" d="M182.1111,-417C182.1111,-417 21.1111,-417 21.1111,-417 15.1111,-417 9.1111,-411 9.1111,-405 9.1111,-405 9.1111,-393 9.1111,-393 9.1111,-387 15.1111,-381 21.1111,-381 21.1111,-381 182.1111,-381 182.1111,-381 188.1111,-381 194.1111,-387 194.1111,-393 194.1111,-393 194.1111,-405 194.1111,-405 194.1111,-411 188.1111,-417 182.1111,-417"/>
<text text-anchor="middle" x="101.6111" y="-395.3" font-family="Helvetica,sans-Serif" font-size="14.00" fill="#000000">Merge chunked workspaces</text>
</g>
<!-- alignAndFocusPowder&#45;&gt;mergeWorkspace -->
<g id="edge6" class="edge">
<title>alignAndFocusPowder&#45;&gt;mergeWorkspace</title>
<path fill="none" stroke="#000000" d="M105.5751,-467.9735C104.898,-456.1918 103.9996,-440.5607 103.2294,-427.1581"/>
<polygon fill="#000000" stroke="#000000" points="106.7139,-426.786 102.6458,-417.0034 99.7254,-427.1877 106.7139,-426.786"/>
</g>
<!-- RunNumber -->
<g id="node12" class="node">
<title>RunNumber</title>
<polygon fill="#c0c0c0" stroke="#000000" points="193.3286,-723 60.1528,-723 25.8936,-687 159.0694,-687 193.3286,-723"/>
<text text-anchor="middle" x="109.6111" y="-701.3" font-family="Times,serif" font-size="14.00" fill="#000000">Run Number</text>
</g>
<!-- getRunNumber&#45;&gt;RunNumber -->
<g id="edge2" class="edge">
<title>getRunNumber&#45;&gt;RunNumber</title>
<path fill="none" stroke="#000000" d="M151.7684,-759.9551C145.1049,-751.2686 136.9896,-740.6898 129.6652,-731.142"/>
<polygon fill="#000000" stroke="#000000" points="132.3523,-728.8944 123.4886,-723.0904 126.7983,-733.155 132.3523,-728.8944"/>
</g>
<!-- plus -->
<g id="node5" class="node">
<title>plus</title>
<path fill="#87cefa" stroke="#000000" d="M178.6111,-198C178.6111,-198 64.6111,-198 64.6111,-198 58.6111,-198 52.6111,-192 52.6111,-186 52.6111,-186 52.6111,-172 52.6111,-172 52.6111,-166 58.6111,-160 64.6111,-160 64.6111,-160 178.6111,-160 178.6111,-160 184.6111,-160 190.6111,-166 190.6111,-172 190.6111,-172 190.6111,-186 190.6111,-186 190.6111,-192 184.6111,-198 178.6111,-198"/>
<text text-anchor="middle" x="121.6111" y="-182.8" font-family="Helvetica,sans-Serif" font-size="14.00" fill="#000000">Plus v1</text>
<text text-anchor="middle" x="121.6111" y="-167.8" font-family="Helvetica,sans-Serif" font-size="14.00" fill="#000000">summed workspace</text>
</g>
<!-- isLastRunNumber -->
<g id="node11" class="node">
<title>isLastRunNumber</title>
<polygon fill="#32cd32" stroke="#000000" points="171.6111,-123 38.5551,-105 171.6111,-87 304.6671,-105 171.6111,-123"/>
<text text-anchor="middle" x="171.6111" y="-101.3" font-family="Helvetica,sans-Serif" font-size="14.00" fill="#000000">Is Last Run Number?</text>
</g>
<!-- plus&#45;&gt;isLastRunNumber -->
<g id="edge10" class="edge">
<title>plus&#45;&gt;isLastRunNumber</title>
<path fill="none" stroke="#000000" d="M134.4873,-159.9432C140.6016,-150.894 147.9925,-139.9555 154.5648,-130.2286"/>
<polygon fill="#000000" stroke="#000000" points="157.6117,-131.9707 160.3102,-121.7253 151.8115,-128.0517 157.6117,-131.9707"/>
</g>
<!-- load -->
<g id="node6" class="node">
<title>load</title>
<path fill="#87cefa" stroke="#000000" d="M130.1111,-650C130.1111,-650 89.1111,-650 89.1111,-650 83.1111,-650 77.1111,-644 77.1111,-638 77.1111,-638 77.1111,-626 77.1111,-626 77.1111,-620 83.1111,-614 89.1111,-614 89.1111,-614 130.1111,-614 130.1111,-614 136.1111,-614 142.1111,-620 142.1111,-626 142.1111,-626 142.1111,-638 142.1111,-638 142.1111,-644 136.1111,-650 130.1111,-650"/>
<text text-anchor="middle" x="109.6111" y="-628.3" font-family="Helvetica,sans-Serif" font-size="14.00" fill="#000000">Load v1</text>
</g>
<!-- split -->
<g id="node7" class="node">
<title>split</title>
<path fill="#87cefa" stroke="#000000" d="M148.6111,-577C148.6111,-577 70.6111,-577 70.6111,-577 64.6111,-577 58.6111,-571 58.6111,-565 58.6111,-565 58.6111,-553 58.6111,-553 58.6111,-547 64.6111,-541 70.6111,-541 70.6111,-541 148.6111,-541 148.6111,-541 154.6111,-541 160.6111,-547 160.6111,-553 160.6111,-553 160.6111,-565 160.6111,-565 160.6111,-571 154.6111,-577 148.6111,-577"/>
<text text-anchor="middle" x="109.6111" y="-555.3" font-family="Helvetica,sans-Serif" font-size="14.00" fill="#000000">SplitEvents v1</text>
</g>
<!-- load&#45;&gt;split -->
<g id="edge4" class="edge">
<title>load&#45;&gt;split</title>
<path fill="none" stroke="#000000" d="M109.6111,-613.9551C109.6111,-605.8828 109.6111,-596.1764 109.6111,-587.1817"/>
<polygon fill="#000000" stroke="#000000" points="113.1112,-587.0903 109.6111,-577.0904 106.1112,-587.0904 113.1112,-587.0903"/>
</g>
<!-- split&#45;&gt;alignAndFocusPowder -->
<g id="edge5" class="edge">
<title>split&#45;&gt;alignAndFocusPowder</title>
<path fill="none" stroke="#000000" d="M108.8695,-540.9551C108.5378,-532.8828 108.1389,-523.1764 107.7693,-514.1817"/>
<polygon fill="#000000" stroke="#000000" points="111.2623,-513.9382 107.3545,-504.0904 104.2682,-514.2257 111.2623,-513.9382"/>
</g>
<!-- gatherWorkspace -->
<g id="node9" class="node">
<title>gatherWorkspace</title>
<path fill="#87cefa" stroke="#000000" d="M178.6111,-344C178.6111,-344 40.6111,-344 40.6111,-344 34.6111,-344 28.6111,-338 28.6111,-332 28.6111,-332 28.6111,-320 28.6111,-320 28.6111,-314 34.6111,-308 40.6111,-308 40.6111,-308 178.6111,-308 178.6111,-308 184.6111,-308 190.6111,-314 190.6111,-320 190.6111,-320 190.6111,-332 190.6111,-332 190.6111,-338 184.6111,-344 178.6111,-344"/>
<text text-anchor="middle" x="109.6111" y="-322.3" font-family="Helvetica,sans-Serif" font-size="14.00" fill="#000000">Gather workspaces MPI</text>
</g>
<!-- mergeWorkspace&#45;&gt;gatherWorkspace -->
<g id="edge7" class="edge">
<title>mergeWorkspace&#45;&gt;gatherWorkspace</title>
<path fill="none" stroke="#000000" d="M103.5886,-380.9551C104.4733,-372.8828 105.537,-363.1764 106.5227,-354.1817"/>
<polygon fill="#000000" stroke="#000000" points="110.0183,-354.4122 107.6286,-344.0904 103.06,-353.6495 110.0183,-354.4122"/>
</g>
<!-- normaliseByCurrent -->
<g id="node10" class="node">
<title>normaliseByCurrent</title>
<path fill="#87cefa" stroke="#000000" d="M179.1111,-271C179.1111,-271 46.1111,-271 46.1111,-271 40.1111,-271 34.1111,-265 34.1111,-259 34.1111,-259 34.1111,-247 34.1111,-247 34.1111,-241 40.1111,-235 46.1111,-235 46.1111,-235 179.1111,-235 179.1111,-235 185.1111,-235 191.1111,-241 191.1111,-247 191.1111,-247 191.1111,-259 191.1111,-259 191.1111,-265 185.1111,-271 179.1111,-271"/>
<text text-anchor="middle" x="112.6111" y="-249.3" font-family="Helvetica,sans-Serif" font-size="14.00" fill="#000000">NormaliseByCurrent v1</text>
</g>
<!-- gatherWorkspace&#45;&gt;normaliseByCurrent -->
<g id="edge8" class="edge">
<title>gatherWorkspace&#45;&gt;normaliseByCurrent</title>
<path fill="none" stroke="#000000" d="M110.3527,-307.9551C110.6844,-299.8828 111.0833,-290.1764 111.4529,-281.1817"/>
<polygon fill="#000000" stroke="#000000" points="114.954,-281.2257 111.8677,-271.0904 107.9599,-280.9382 114.954,-281.2257"/>
</g>
<!-- normaliseByCurrent&#45;&gt;plus -->
<g id="edge9" class="edge">
<title>normaliseByCurrent&#45;&gt;plus</title>
<path fill="none" stroke="#000000" d="M114.8358,-234.7079C115.8086,-226.7096 116.9738,-217.1287 118.0615,-208.1859"/>
<polygon fill="#000000" stroke="#000000" points="121.5534,-208.4634 119.2864,-198.114 114.6046,-207.6182 121.5534,-208.4634"/>
</g>
<!-- isLastRunNumber&#45;&gt;OutputWorkspace -->
<g id="edge11" class="edge">
<title>isLastRunNumber&#45;&gt;OutputWorkspace</title>
<path fill="none" stroke="#000000" d="M171.6111,-86.9735C171.6111,-75.1918 171.6111,-59.5607 171.6111,-46.1581"/>
<polygon fill="#000000" stroke="#000000" points="175.1112,-46.0033 171.6111,-36.0034 168.1112,-46.0034 175.1112,-46.0033"/>
<text text-anchor="middle" x="183.6111" y="-57.8" font-family="Helvetica,sans-Serif" font-size="14.00" fill="#000000">Yes</text>
</g>
<!-- isLastRunNumber&#45;&gt;getRunNumber -->
<g id="edge12" class="edge">
<title>isLastRunNumber&#45;&gt;getRunNumber</title>
<path fill="none" stroke="#000000" d="M190.2293,-120.5926C204.445,-134.3341 221.6111,-155.7426 221.6111,-179 221.6111,-705 221.6111,-705 221.6111,-705 221.6111,-723.4265 210.2397,-740.0697 197.7453,-752.795"/>
<polygon fill="#000000" stroke="#000000" points="195.1858,-750.3987 190.3365,-759.8186 200.0017,-755.4787 195.1858,-750.3987"/>
<text text-anchor="middle" x="230.6111" y="-438.8" font-family="Helvetica,sans-Serif" font-size="14.00" fill="#000000">No</text>
</g>
<!-- RunNumber&#45;&gt;load -->
<g id="edge3" class="edge">
<title>RunNumber&#45;&gt;load</title>
<path fill="none" stroke="#000000" d="M109.6111,-686.9551C109.6111,-678.8828 109.6111,-669.1764 109.6111,-660.1817"/>
<polygon fill="#000000" stroke="#000000" points="113.1112,-660.0903 109.6111,-650.0904 106.1112,-660.0904 113.1112,-660.0903"/>
</g>
</g>
</svg>
