<?xml version="1.0" encoding="UTF-8" standalone="no"?>
<!DOCTYPE svg PUBLIC "-//W3C//DTD SVG 1.1//EN"
 "http://www.w3.org/Graphics/SVG/1.1/DTD/svg11.dtd">
<!-- Generated by graphviz version 2.40.1 (20161225.0304)
 -->
<!-- Title: Stitch1D Pages: 1 -->
<svg width="1362pt" height="837pt"
 viewBox="0.00 0.00 1361.84 836.74" xmlns="http://www.w3.org/2000/svg" xmlns:xlink="http://www.w3.org/1999/xlink">
<g id="graph0" class="graph" transform="scale(1 1) rotate(0) translate(4 832.7401)">
<title>Stitch1D</title>
<polygon fill="#ffffff" stroke="transparent" points="-4,4 -4,-832.7401 1357.8391,-832.7401 1357.8391,4 -4,4"/>
<text text-anchor="middle" x="676.9196" y="-797.5401" font-family="Helvetica,sans-Serif" font-size="14.00" fill="#000000">Stitch1D workflow for histograms &#45; no manual scale factor &#160;&#160;&#160;&#160;&#160;&#160;&#160;&#160;&#160;&#160;&#160;&#160;&#160;&#160;&#160;&#160;&#160;&#160;&#160;&#160;&#160;&#160;&#160;&#160;&#160;&#160;&#160;&#160;&#160;&#160;&#160;&#160;&#160;&#160;&#160;&#160;&#160;&#160;&#160;&#160;&#160;&#160;&#160;&#160;&#160;&#160;&#160;&#160;&#160;&#160;&#160;&#160;&#160;&#160;&#160;&#160;&#160;&#160;&#160;&#160;&#160;&#160;&#160;&#160;&#160;&#160;&#160;&#160;&#160;&#160;&#160;&#160;&#160;&#160;&#160;&#160;&#160;&#160;&#160;&#160;&#160;&#160;&#160;&#160;&#160;&#160;&#160;&#160;&#160;&#160;&#160;&#160;&#160;&#160;&#160;&#160;&#160;&#160;&#160;&#160;&#160;&#160;&#160;&#160;&#160;&#160;&#160;&#160;&#160;&#160;&#160;&#160;&#160;Stitch1D workflow histograms &#45; manual scale factor given</text>
<!-- lhsworkspace -->
<g id="node1" class="node">
<title>lhsworkspace</title>
<ellipse fill="#f0e68c" stroke="#000000" cx="109.6016" cy="-755.7401" rx="72.2875" ry="18"/>
<text text-anchor="middle" x="109.6016" y="-752.0401" font-family="Helvetica,sans-Serif" font-size="14.00" fill="#000000">LHSWorkspace</text>
</g>
<!-- rebin_lhsw -->
<g id="node17" class="node">
<title>rebin_lhsw</title>
<path fill="#87cefa" stroke="#000000" d="M124.6016,-701.7401C124.6016,-701.7401 94.6016,-701.7401 94.6016,-701.7401 88.6016,-701.7401 82.6016,-695.7401 82.6016,-689.7401 82.6016,-689.7401 82.6016,-677.7401 82.6016,-677.7401 82.6016,-671.7401 88.6016,-665.7401 94.6016,-665.7401 94.6016,-665.7401 124.6016,-665.7401 124.6016,-665.7401 130.6016,-665.7401 136.6016,-671.7401 136.6016,-677.7401 136.6016,-677.7401 136.6016,-689.7401 136.6016,-689.7401 136.6016,-695.7401 130.6016,-701.7401 124.6016,-701.7401"/>
<text text-anchor="middle" x="109.6016" y="-680.0401" font-family="Helvetica,sans-Serif" font-size="14.00" fill="#000000">Rebin</text>
</g>
<!-- lhsworkspace&#45;&gt;rebin_lhsw -->
<g id="edge1" class="edge">
<title>lhsworkspace&#45;&gt;rebin_lhsw</title>
<path fill="none" stroke="#000000" d="M109.6016,-737.5715C109.6016,-729.8711 109.6016,-720.7145 109.6016,-712.1567"/>
<polygon fill="#000000" stroke="#000000" points="113.1017,-712.1533 109.6016,-702.1534 106.1017,-712.1534 113.1017,-712.1533"/>
</g>
<!-- rhsworkspace -->
<g id="node2" class="node">
<title>rhsworkspace</title>
<ellipse fill="#f0e68c" stroke="#000000" cx="537.6016" cy="-755.7401" rx="73.387" ry="18"/>
<text text-anchor="middle" x="537.6016" y="-752.0401" font-family="Helvetica,sans-Serif" font-size="14.00" fill="#000000">RHSWorkspace</text>
</g>
<!-- rebin_rhsw -->
<g id="node18" class="node">
<title>rebin_rhsw</title>
<path fill="#87cefa" stroke="#000000" d="M552.6016,-701.7401C552.6016,-701.7401 522.6016,-701.7401 522.6016,-701.7401 516.6016,-701.7401 510.6016,-695.7401 510.6016,-689.7401 510.6016,-689.7401 510.6016,-677.7401 510.6016,-677.7401 510.6016,-671.7401 516.6016,-665.7401 522.6016,-665.7401 522.6016,-665.7401 552.6016,-665.7401 552.6016,-665.7401 558.6016,-665.7401 564.6016,-671.7401 564.6016,-677.7401 564.6016,-677.7401 564.6016,-689.7401 564.6016,-689.7401 564.6016,-695.7401 558.6016,-701.7401 552.6016,-701.7401"/>
<text text-anchor="middle" x="537.6016" y="-680.0401" font-family="Helvetica,sans-Serif" font-size="14.00" fill="#000000">Rebin</text>
</g>
<!-- rhsworkspace&#45;&gt;rebin_rhsw -->
<g id="edge2" class="edge">
<title>rhsworkspace&#45;&gt;rebin_rhsw</title>
<path fill="none" stroke="#000000" d="M537.6016,-737.5715C537.6016,-729.8711 537.6016,-720.7145 537.6016,-712.1567"/>
<polygon fill="#000000" stroke="#000000" points="541.1017,-712.1533 537.6016,-702.1534 534.1017,-712.1534 541.1017,-712.1533"/>
</g>
<!-- params -->
<g id="node3" class="node">
<title>params</title>
<ellipse fill="#f0e68c" stroke="#000000" cx="323.6016" cy="-755.7401" rx="41.6928" ry="18"/>
<text text-anchor="middle" x="323.6016" y="-752.0401" font-family="Helvetica,sans-Serif" font-size="14.00" fill="#000000">Params</text>
</g>
<!-- params&#45;&gt;rebin_lhsw -->
<g id="edge3" class="edge">
<title>params&#45;&gt;rebin_lhsw</title>
<path fill="none" stroke="#000000" d="M290.633,-744.6479C251.6404,-731.5289 186.9205,-709.754 146.349,-696.1037"/>
<polygon fill="#000000" stroke="#000000" points="147.4278,-692.774 136.8338,-692.9024 145.1956,-699.4085 147.4278,-692.774"/>
</g>
<!-- params&#45;&gt;rebin_rhsw -->
<g id="edge4" class="edge">
<title>params&#45;&gt;rebin_rhsw</title>
<path fill="none" stroke="#000000" d="M356.5701,-744.6479C395.5627,-731.5289 460.2826,-709.754 500.8541,-696.1037"/>
<polygon fill="#000000" stroke="#000000" points="502.0075,-699.4085 510.3693,-692.9024 499.7753,-692.774 502.0075,-699.4085"/>
</g>
<!-- startOv -->
<g id="node4" class="node">
<title>startOv</title>
<ellipse fill="#f0e68c" stroke="#000000" cx="256.6016" cy="-611.7401" rx="60.3893" ry="18"/>
<text text-anchor="middle" x="256.6016" y="-608.0401" font-family="Helvetica,sans-Serif" font-size="14.00" fill="#000000">StartOverlap</text>
</g>
<!-- integrate_lhsw -->
<g id="node19" class="node">
<title>integrate_lhsw</title>
<path fill="#87cefa" stroke="#000000" d="M137.6016,-557.7401C137.6016,-557.7401 81.6016,-557.7401 81.6016,-557.7401 75.6016,-557.7401 69.6016,-551.7401 69.6016,-545.7401 69.6016,-545.7401 69.6016,-533.7401 69.6016,-533.7401 69.6016,-527.7401 75.6016,-521.7401 81.6016,-521.7401 81.6016,-521.7401 137.6016,-521.7401 137.6016,-521.7401 143.6016,-521.7401 149.6016,-527.7401 149.6016,-533.7401 149.6016,-533.7401 149.6016,-545.7401 149.6016,-545.7401 149.6016,-551.7401 143.6016,-557.7401 137.6016,-557.7401"/>
<text text-anchor="middle" x="109.6016" y="-536.0401" font-family="Helvetica,sans-Serif" font-size="14.00" fill="#000000">Integration</text>
</g>
<!-- startOv&#45;&gt;integrate_lhsw -->
<g id="edge9" class="edge">
<title>startOv&#45;&gt;integrate_lhsw</title>
<path fill="none" stroke="#000000" d="M225.0664,-596.2943C204.8244,-586.3799 178.1963,-573.3376 155.6132,-562.2764"/>
<polygon fill="#000000" stroke="#000000" points="157.0567,-559.0862 146.5365,-557.8307 153.9776,-565.3726 157.0567,-559.0862"/>
</g>
<!-- integrate_rhsw -->
<g id="node20" class="node">
<title>integrate_rhsw</title>
<path fill="#87cefa" stroke="#000000" d="M524.6016,-557.7401C524.6016,-557.7401 468.6016,-557.7401 468.6016,-557.7401 462.6016,-557.7401 456.6016,-551.7401 456.6016,-545.7401 456.6016,-545.7401 456.6016,-533.7401 456.6016,-533.7401 456.6016,-527.7401 462.6016,-521.7401 468.6016,-521.7401 468.6016,-521.7401 524.6016,-521.7401 524.6016,-521.7401 530.6016,-521.7401 536.6016,-527.7401 536.6016,-533.7401 536.6016,-533.7401 536.6016,-545.7401 536.6016,-545.7401 536.6016,-551.7401 530.6016,-557.7401 524.6016,-557.7401"/>
<text text-anchor="middle" x="496.6016" y="-536.0401" font-family="Helvetica,sans-Serif" font-size="14.00" fill="#000000">Integration</text>
</g>
<!-- startOv&#45;&gt;integrate_rhsw -->
<g id="edge10" class="edge">
<title>startOv&#45;&gt;integrate_rhsw</title>
<path fill="none" stroke="#000000" d="M299.2322,-598.9509C340.4709,-586.5793 402.9611,-567.8322 446.5431,-554.7576"/>
<polygon fill="#000000" stroke="#000000" points="447.7919,-558.0372 456.3644,-551.8113 445.7804,-551.3324 447.7919,-558.0372"/>
</g>
<!-- endOv -->
<g id="node5" class="node">
<title>endOv</title>
<ellipse fill="#f0e68c" stroke="#000000" cx="392.6016" cy="-611.7401" rx="57.6901" ry="18"/>
<text text-anchor="middle" x="392.6016" y="-608.0401" font-family="Helvetica,sans-Serif" font-size="14.00" fill="#000000">EndOverlap</text>
</g>
<!-- endOv&#45;&gt;integrate_lhsw -->
<g id="edge11" class="edge">
<title>endOv&#45;&gt;integrate_lhsw</title>
<path fill="none" stroke="#000000" d="M347.7594,-600.3315C296.5125,-587.2934 212.865,-566.0121 159.5681,-552.4524"/>
<polygon fill="#000000" stroke="#000000" points="160.2125,-549.005 149.6583,-549.9312 158.4865,-555.7889 160.2125,-549.005"/>
</g>
<!-- endOv&#45;&gt;integrate_rhsw -->
<g id="edge12" class="edge">
<title>endOv&#45;&gt;integrate_rhsw</title>
<path fill="none" stroke="#000000" d="M416.4613,-595.2219C429.8963,-585.9207 446.9177,-574.1367 461.8146,-563.8234"/>
<polygon fill="#000000" stroke="#000000" points="464.0674,-566.5207 470.2971,-557.9509 460.0829,-560.7654 464.0674,-566.5207"/>
</g>
<!-- scaleFactor -->
<g id="node6" class="node">
<title>scaleFactor</title>
<ellipse fill="#f0e68c" stroke="#000000" cx="464.6016" cy="-395.7401" rx="72.2875" ry="18"/>
<text text-anchor="middle" x="464.6016" y="-392.0401" font-family="Helvetica,sans-Serif" font-size="14.00" fill="#000000">OutScaleFactor</text>
</g>
<!-- multiply -->
<g id="node21" class="node">
<title>multiply</title>
<path fill="#87cefa" stroke="#000000" d="M584.1016,-341.7401C584.1016,-341.7401 545.1016,-341.7401 545.1016,-341.7401 539.1016,-341.7401 533.1016,-335.7401 533.1016,-329.7401 533.1016,-329.7401 533.1016,-317.7401 533.1016,-317.7401 533.1016,-311.7401 539.1016,-305.7401 545.1016,-305.7401 545.1016,-305.7401 584.1016,-305.7401 584.1016,-305.7401 590.1016,-305.7401 596.1016,-311.7401 596.1016,-317.7401 596.1016,-317.7401 596.1016,-329.7401 596.1016,-329.7401 596.1016,-335.7401 590.1016,-341.7401 584.1016,-341.7401"/>
<text text-anchor="middle" x="564.6016" y="-320.0401" font-family="Helvetica,sans-Serif" font-size="14.00" fill="#000000">Multiply</text>
</g>
<!-- scaleFactor&#45;&gt;multiply -->
<g id="edge17" class="edge">
<title>scaleFactor&#45;&gt;multiply</title>
<path fill="none" stroke="#000000" d="M488.3002,-378.6771C501.0228,-369.5168 516.9217,-358.0696 530.9086,-347.999"/>
<polygon fill="#000000" stroke="#000000" points="533.2547,-350.6227 539.3249,-341.9393 529.1645,-344.942 533.2547,-350.6227"/>
</g>
<!-- lhsworkspace_o -->
<g id="node7" class="node">
<title>lhsworkspace_o</title>
<ellipse fill="#f0e68c" stroke="#000000" cx="109.6016" cy="-242.8701" rx="109.7032" ry="26.7407"/>
<text text-anchor="middle" x="109.6016" y="-246.6701" font-family="Helvetica,sans-Serif" font-size="14.00" fill="#000000">LHSWorkspace</text>
<text text-anchor="middle" x="109.6016" y="-231.6701" font-family="Helvetica,sans-Serif" font-size="14.00" fill="#000000">([StartX, StartOverlap])</text>
</g>
<!-- plus -->
<g id="node24" class="node">
<title>plus</title>
<path fill="#87cefa" stroke="#000000" d="M355.6016,-180C355.6016,-180 325.6016,-180 325.6016,-180 319.6016,-180 313.6016,-174 313.6016,-168 313.6016,-168 313.6016,-156 313.6016,-156 313.6016,-150 319.6016,-144 325.6016,-144 325.6016,-144 355.6016,-144 355.6016,-144 361.6016,-144 367.6016,-150 367.6016,-156 367.6016,-156 367.6016,-168 367.6016,-168 367.6016,-174 361.6016,-180 355.6016,-180"/>
<text text-anchor="middle" x="340.6016" y="-158.3" font-family="Helvetica,sans-Serif" font-size="14.00" fill="#000000">Plus</text>
</g>
<!-- lhsworkspace_o&#45;&gt;plus -->
<g id="edge19" class="edge">
<title>lhsworkspace_o&#45;&gt;plus</title>
<path fill="none" stroke="#000000" d="M172.7233,-220.772C214.6691,-206.0873 268.308,-187.309 303.5208,-174.9815"/>
<polygon fill="#000000" stroke="#000000" points="305.0991,-178.1373 313.381,-171.5296 302.7861,-171.5305 305.0991,-178.1373"/>
</g>
<!-- rhsworkspace_o -->
<g id="node8" class="node">
<title>rhsworkspace_o</title>
<ellipse fill="#f0e68c" stroke="#000000" cx="564.6016" cy="-242.8701" rx="103.4757" ry="26.7407"/>
<text text-anchor="middle" x="564.6016" y="-246.6701" font-family="Helvetica,sans-Serif" font-size="14.00" fill="#000000">RHSWorkspace</text>
<text text-anchor="middle" x="564.6016" y="-231.6701" font-family="Helvetica,sans-Serif" font-size="14.00" fill="#000000">([EndOverlap, EndX])</text>
</g>
<!-- lhsworkspace_1_1 -->
<g id="node14" class="node">
<title>lhsworkspace_1_1</title>
<ellipse fill="#f0e68c" stroke="#000000" cx="795.6016" cy="-242.8701" rx="109.7032" ry="26.7407"/>
<text text-anchor="middle" x="795.6016" y="-246.6701" font-family="Helvetica,sans-Serif" font-size="14.00" fill="#000000">LHSWorkspace</text>
<text text-anchor="middle" x="795.6016" y="-231.6701" font-family="Helvetica,sans-Serif" font-size="14.00" fill="#000000">([StartX, StartOverlap])</text>
</g>
<!-- rhsworkspace_o&#45;&gt;lhsworkspace_1_1 -->
<!-- rhsworkspace_o&#45;&gt;plus -->
<g id="edge24" class="edge">
<title>rhsworkspace_o&#45;&gt;plus</title>
<path fill="none" stroke="#000000" d="M503.9839,-220.9855C463.5351,-206.3823 411.6708,-187.6579 377.3497,-175.2671"/>
<polygon fill="#000000" stroke="#000000" points="378.3209,-171.8967 367.7266,-171.7929 375.9439,-178.4807 378.3209,-171.8967"/>
</g>
<!-- outputworkspace -->
<g id="node9" class="node">
<title>outputworkspace</title>
<ellipse fill="#f0e68c" stroke="#000000" cx="340.6016" cy="-18" rx="81.7856" ry="18"/>
<text text-anchor="middle" x="340.6016" y="-14.3" font-family="Helvetica,sans-Serif" font-size="14.00" fill="#000000">OutputWorkspace</text>
</g>
<!-- lhsworkspace_1 -->
<g id="node10" class="node">
<title>lhsworkspace_1</title>
<ellipse fill="#f0e68c" stroke="#000000" cx="795.6016" cy="-755.7401" rx="72.2875" ry="18"/>
<text text-anchor="middle" x="795.6016" y="-752.0401" font-family="Helvetica,sans-Serif" font-size="14.00" fill="#000000">LHSWorkspace</text>
</g>
<!-- rebin_lhsw_1 -->
<g id="node25" class="node">
<title>rebin_lhsw_1</title>
<path fill="#87cefa" stroke="#000000" d="M810.6016,-701.7401C810.6016,-701.7401 780.6016,-701.7401 780.6016,-701.7401 774.6016,-701.7401 768.6016,-695.7401 768.6016,-689.7401 768.6016,-689.7401 768.6016,-677.7401 768.6016,-677.7401 768.6016,-671.7401 774.6016,-665.7401 780.6016,-665.7401 780.6016,-665.7401 810.6016,-665.7401 810.6016,-665.7401 816.6016,-665.7401 822.6016,-671.7401 822.6016,-677.7401 822.6016,-677.7401 822.6016,-689.7401 822.6016,-689.7401 822.6016,-695.7401 816.6016,-701.7401 810.6016,-701.7401"/>
<text text-anchor="middle" x="795.6016" y="-680.0401" font-family="Helvetica,sans-Serif" font-size="14.00" fill="#000000">Rebin</text>
</g>
<!-- lhsworkspace_1&#45;&gt;rebin_lhsw_1 -->
<g id="edge27" class="edge">
<title>lhsworkspace_1&#45;&gt;rebin_lhsw_1</title>
<path fill="none" stroke="#000000" d="M795.6016,-737.5715C795.6016,-729.8711 795.6016,-720.7145 795.6016,-712.1567"/>
<polygon fill="#000000" stroke="#000000" points="799.1017,-712.1533 795.6016,-702.1534 792.1017,-712.1534 799.1017,-712.1533"/>
</g>
<!-- rhsworkspace_1 -->
<g id="node11" class="node">
<title>rhsworkspace_1</title>
<ellipse fill="#f0e68c" stroke="#000000" cx="1250.6016" cy="-755.7401" rx="73.387" ry="18"/>
<text text-anchor="middle" x="1250.6016" y="-752.0401" font-family="Helvetica,sans-Serif" font-size="14.00" fill="#000000">RHSWorkspace</text>
</g>
<!-- rebin_rhsw_1 -->
<g id="node26" class="node">
<title>rebin_rhsw_1</title>
<path fill="#87cefa" stroke="#000000" d="M1265.6016,-701.7401C1265.6016,-701.7401 1235.6016,-701.7401 1235.6016,-701.7401 1229.6016,-701.7401 1223.6016,-695.7401 1223.6016,-689.7401 1223.6016,-689.7401 1223.6016,-677.7401 1223.6016,-677.7401 1223.6016,-671.7401 1229.6016,-665.7401 1235.6016,-665.7401 1235.6016,-665.7401 1265.6016,-665.7401 1265.6016,-665.7401 1271.6016,-665.7401 1277.6016,-671.7401 1277.6016,-677.7401 1277.6016,-677.7401 1277.6016,-689.7401 1277.6016,-689.7401 1277.6016,-695.7401 1271.6016,-701.7401 1265.6016,-701.7401"/>
<text text-anchor="middle" x="1250.6016" y="-680.0401" font-family="Helvetica,sans-Serif" font-size="14.00" fill="#000000">Rebin</text>
</g>
<!-- rhsworkspace_1&#45;&gt;rebin_rhsw_1 -->
<g id="edge28" class="edge">
<title>rhsworkspace_1&#45;&gt;rebin_rhsw_1</title>
<path fill="none" stroke="#000000" d="M1250.6016,-737.5715C1250.6016,-729.8711 1250.6016,-720.7145 1250.6016,-712.1567"/>
<polygon fill="#000000" stroke="#000000" points="1254.1017,-712.1533 1250.6016,-702.1534 1247.1017,-712.1534 1254.1017,-712.1533"/>
</g>
<!-- params_1 -->
<g id="node12" class="node">
<title>params_1</title>
<ellipse fill="#f0e68c" stroke="#000000" cx="1022.6016" cy="-755.7401" rx="41.6928" ry="18"/>
<text text-anchor="middle" x="1022.6016" y="-752.0401" font-family="Helvetica,sans-Serif" font-size="14.00" fill="#000000">Params</text>
</g>
<!-- params_1&#45;&gt;rebin_lhsw_1 -->
<g id="edge29" class="edge">
<title>params_1&#45;&gt;rebin_lhsw_1</title>
<path fill="none" stroke="#000000" d="M988.6174,-744.961C946.6209,-731.6405 875.4361,-709.0621 832.2482,-695.3637"/>
<polygon fill="#000000" stroke="#000000" points="833.2828,-692.0201 822.6925,-692.3329 831.1664,-698.6925 833.2828,-692.0201"/>
</g>
<!-- params_1&#45;&gt;rebin_rhsw_1 -->
<g id="edge30" class="edge">
<title>params_1&#45;&gt;rebin_rhsw_1</title>
<path fill="none" stroke="#000000" d="M1056.2437,-745.1163C1098.3043,-731.834 1170.0584,-709.1748 1213.6225,-695.4177"/>
<polygon fill="#000000" stroke="#000000" points="1214.7804,-698.7225 1223.2623,-692.3736 1212.6725,-692.0474 1214.7804,-698.7225"/>
</g>
<!-- scaleFactor_in -->
<g id="node13" class="node">
<title>scaleFactor_in</title>
<ellipse fill="#f0e68c" stroke="#000000" cx="1135.6016" cy="-395.7401" rx="87.1846" ry="18"/>
<text text-anchor="middle" x="1135.6016" y="-392.0401" font-family="Helvetica,sans-Serif" font-size="14.00" fill="#000000">ManualScaleFactor</text>
</g>
<!-- multiply_1 -->
<g id="node27" class="node">
<title>multiply_1</title>
<path fill="#87cefa" stroke="#000000" d="M1270.1016,-341.7401C1270.1016,-341.7401 1231.1016,-341.7401 1231.1016,-341.7401 1225.1016,-341.7401 1219.1016,-335.7401 1219.1016,-329.7401 1219.1016,-329.7401 1219.1016,-317.7401 1219.1016,-317.7401 1219.1016,-311.7401 1225.1016,-305.7401 1231.1016,-305.7401 1231.1016,-305.7401 1270.1016,-305.7401 1270.1016,-305.7401 1276.1016,-305.7401 1282.1016,-311.7401 1282.1016,-317.7401 1282.1016,-317.7401 1282.1016,-329.7401 1282.1016,-329.7401 1282.1016,-335.7401 1276.1016,-341.7401 1270.1016,-341.7401"/>
<text text-anchor="middle" x="1250.6016" y="-320.0401" font-family="Helvetica,sans-Serif" font-size="14.00" fill="#000000">Multiply</text>
</g>
<!-- scaleFactor_in&#45;&gt;multiply_1 -->
<g id="edge35" class="edge">
<title>scaleFactor_in&#45;&gt;multiply_1</title>
<path fill="none" stroke="#000000" d="M1163.1469,-378.4943C1178.0605,-369.1571 1196.704,-357.4847 1212.9417,-347.3185"/>
<polygon fill="#000000" stroke="#000000" points="1215.0576,-350.1231 1221.6762,-341.8499 1211.343,-344.19 1215.0576,-350.1231"/>
</g>
<!-- plus_1 -->
<g id="node29" class="node">
<title>plus_1</title>
<path fill="#87cefa" stroke="#000000" d="M1041.6016,-180C1041.6016,-180 1011.6016,-180 1011.6016,-180 1005.6016,-180 999.6016,-174 999.6016,-168 999.6016,-168 999.6016,-156 999.6016,-156 999.6016,-150 1005.6016,-144 1011.6016,-144 1011.6016,-144 1041.6016,-144 1041.6016,-144 1047.6016,-144 1053.6016,-150 1053.6016,-156 1053.6016,-156 1053.6016,-168 1053.6016,-168 1053.6016,-174 1047.6016,-180 1041.6016,-180"/>
<text text-anchor="middle" x="1026.6016" y="-158.3" font-family="Helvetica,sans-Serif" font-size="14.00" fill="#000000">Plus</text>
</g>
<!-- lhsworkspace_1_1&#45;&gt;plus_1 -->
<g id="edge38" class="edge">
<title>lhsworkspace_1_1&#45;&gt;plus_1</title>
<path fill="none" stroke="#000000" d="M858.7233,-220.772C900.6691,-206.0873 954.308,-187.309 989.5208,-174.9815"/>
<polygon fill="#000000" stroke="#000000" points="991.0991,-178.1373 999.381,-171.5296 988.7861,-171.5305 991.0991,-178.1373"/>
</g>
<!-- rhsworkspace_1_1 -->
<g id="node15" class="node">
<title>rhsworkspace_1_1</title>
<ellipse fill="#f0e68c" stroke="#000000" cx="1250.6016" cy="-242.8701" rx="103.4757" ry="26.7407"/>
<text text-anchor="middle" x="1250.6016" y="-246.6701" font-family="Helvetica,sans-Serif" font-size="14.00" fill="#000000">RHSWorkspace</text>
<text text-anchor="middle" x="1250.6016" y="-231.6701" font-family="Helvetica,sans-Serif" font-size="14.00" fill="#000000">([EndOverlap, EndX])</text>
</g>
<!-- rhsworkspace_1_1&#45;&gt;plus_1 -->
<g id="edge41" class="edge">
<title>rhsworkspace_1_1&#45;&gt;plus_1</title>
<path fill="none" stroke="#000000" d="M1189.9839,-220.9855C1149.5351,-206.3823 1097.6708,-187.6579 1063.3497,-175.2671"/>
<polygon fill="#000000" stroke="#000000" points="1064.3209,-171.8967 1053.7266,-171.7929 1061.9439,-178.4807 1064.3209,-171.8967"/>
</g>
<!-- outputworkspace_1 -->
<g id="node16" class="node">
<title>outputworkspace_1</title>
<ellipse fill="#f0e68c" stroke="#000000" cx="1026.6016" cy="-18" rx="81.7856" ry="18"/>
<text text-anchor="middle" x="1026.6016" y="-14.3" font-family="Helvetica,sans-Serif" font-size="14.00" fill="#000000">OutputWorkspace</text>
</g>
<!-- maskSpecialValues_1 -->
<g id="node30" class="node">
<title>maskSpecialValues_1</title>
<polygon fill="#20b2aa" stroke="#000000" points="178.6016,-629.7401 40.6016,-629.7401 40.6016,-593.7401 178.6016,-593.7401 178.6016,-629.7401"/>
<text text-anchor="middle" x="109.6016" y="-608.0401" font-family="Helvetica,sans-Serif" font-size="14.00" fill="#000000">Mask special values</text>
</g>
<!-- rebin_lhsw&#45;&gt;maskSpecialValues_1 -->
<g id="edge5" class="edge">
<title>rebin_lhsw&#45;&gt;maskSpecialValues_1</title>
<path fill="none" stroke="#000000" d="M109.6016,-665.5715C109.6016,-657.8711 109.6016,-648.7145 109.6016,-640.1567"/>
<polygon fill="#000000" stroke="#000000" points="113.1017,-640.1533 109.6016,-630.1534 106.1017,-640.1534 113.1017,-640.1533"/>
</g>
<!-- maskSpecialValues_2 -->
<g id="node31" class="node">
<title>maskSpecialValues_2</title>
<polygon fill="#20b2aa" stroke="#000000" points="606.6016,-629.7401 468.6016,-629.7401 468.6016,-593.7401 606.6016,-593.7401 606.6016,-629.7401"/>
<text text-anchor="middle" x="537.6016" y="-608.0401" font-family="Helvetica,sans-Serif" font-size="14.00" fill="#000000">Mask special values</text>
</g>
<!-- rebin_rhsw&#45;&gt;maskSpecialValues_2 -->
<g id="edge6" class="edge">
<title>rebin_rhsw&#45;&gt;maskSpecialValues_2</title>
<path fill="none" stroke="#000000" d="M537.6016,-665.5715C537.6016,-657.8711 537.6016,-648.7145 537.6016,-640.1567"/>
<polygon fill="#000000" stroke="#000000" points="541.1017,-640.1533 537.6016,-630.1534 534.1017,-640.1534 541.1017,-640.1533"/>
</g>
<!-- integrate_lhsw&#45;&gt;lhsworkspace_o -->
<g id="edge13" class="edge">
<title>integrate_lhsw&#45;&gt;lhsworkspace_o</title>
<path fill="none" stroke="#000000" d="M109.6016,-521.6165C109.6016,-473.9165 109.6016,-344.1547 109.6016,-279.9151"/>
<polygon fill="#000000" stroke="#000000" points="113.1017,-279.8211 109.6016,-269.8211 106.1017,-279.8211 113.1017,-279.8211"/>
</g>
<!-- divideScaleFactor -->
<g id="node23" class="node">
<title>divideScaleFactor</title>
<path fill="#87cefa" stroke="#000000" d="M479.6016,-485.7401C479.6016,-485.7401 449.6016,-485.7401 449.6016,-485.7401 443.6016,-485.7401 437.6016,-479.7401 437.6016,-473.7401 437.6016,-473.7401 437.6016,-461.7401 437.6016,-461.7401 437.6016,-455.7401 443.6016,-449.7401 449.6016,-449.7401 449.6016,-449.7401 479.6016,-449.7401 479.6016,-449.7401 485.6016,-449.7401 491.6016,-455.7401 491.6016,-461.7401 491.6016,-461.7401 491.6016,-473.7401 491.6016,-473.7401 491.6016,-479.7401 485.6016,-485.7401 479.6016,-485.7401"/>
<text text-anchor="middle" x="464.6016" y="-464.0401" font-family="Helvetica,sans-Serif" font-size="14.00" fill="#000000">Divide</text>
</g>
<!-- integrate_lhsw&#45;&gt;divideScaleFactor -->
<g id="edge14" class="edge">
<title>integrate_lhsw&#45;&gt;divideScaleFactor</title>
<path fill="none" stroke="#000000" d="M149.6345,-531.6208C218.8279,-517.5872 359.8321,-488.9891 427.1746,-475.3309"/>
<polygon fill="#000000" stroke="#000000" points="428.2231,-478.6896 437.3279,-473.2717 426.8317,-471.8293 428.2231,-478.6896"/>
</g>
<!-- integrate_rhsw&#45;&gt;divideScaleFactor -->
<g id="edge15" class="edge">
<title>integrate_rhsw&#45;&gt;divideScaleFactor</title>
<path fill="none" stroke="#000000" d="M488.5266,-521.5715C484.9914,-513.6172 480.7656,-504.1091 476.8559,-495.3124"/>
<polygon fill="#000000" stroke="#000000" points="480.045,-493.87 472.7852,-486.1534 473.6483,-496.713 480.045,-493.87"/>
</g>
<!-- multiply&#45;&gt;rhsworkspace_o -->
<g id="edge23" class="edge">
<title>multiply&#45;&gt;rhsworkspace_o</title>
<path fill="none" stroke="#000000" d="M564.6016,-305.3894C564.6016,-297.8196 564.6016,-288.7601 564.6016,-279.9182"/>
<polygon fill="#000000" stroke="#000000" points="568.1016,-279.7406 564.6016,-269.7407 561.1016,-279.7407 568.1016,-279.7406"/>
</g>
<!-- weightedMean -->
<g id="node22" class="node">
<title>weightedMean</title>
<path fill="#87cefa" stroke="#000000" d="M431.6016,-269.3701C431.6016,-269.3701 249.6016,-269.3701 249.6016,-269.3701 243.6016,-269.3701 237.6016,-263.3701 237.6016,-257.3701 237.6016,-257.3701 237.6016,-228.3701 237.6016,-228.3701 237.6016,-222.3701 243.6016,-216.3701 249.6016,-216.3701 249.6016,-216.3701 431.6016,-216.3701 431.6016,-216.3701 437.6016,-216.3701 443.6016,-222.3701 443.6016,-228.3701 443.6016,-228.3701 443.6016,-257.3701 443.6016,-257.3701 443.6016,-263.3701 437.6016,-269.3701 431.6016,-269.3701"/>
<text text-anchor="middle" x="340.6016" y="-254.1701" font-family="Helvetica,sans-Serif" font-size="14.00" fill="#000000">WeightedMean or</text>
<text text-anchor="middle" x="340.6016" y="-239.1701" font-family="Helvetica,sans-Serif" font-size="14.00" fill="#000000">Unweighted mean if zero errors</text>
<text text-anchor="middle" x="340.6016" y="-224.1701" font-family="Helvetica,sans-Serif" font-size="14.00" fill="#000000">([StartOverlap, EndOverlap])</text>
</g>
<!-- multiply&#45;&gt;weightedMean -->
<g id="edge20" class="edge">
<title>multiply&#45;&gt;weightedMean</title>
<path fill="none" stroke="#000000" d="M532.9829,-312.3249C504.6332,-302.0899 461.761,-286.6119 423.6782,-272.863"/>
<polygon fill="#000000" stroke="#000000" points="424.7054,-269.5128 414.1111,-269.409 422.3284,-276.0968 424.7054,-269.5128"/>
</g>
<!-- weightedMean&#45;&gt;plus -->
<g id="edge22" class="edge">
<title>weightedMean&#45;&gt;plus</title>
<path fill="none" stroke="#000000" d="M340.6016,-215.9415C340.6016,-207.6709 340.6016,-198.5487 340.6016,-190.1957"/>
<polygon fill="#000000" stroke="#000000" points="344.1017,-190.1488 340.6016,-180.1488 337.1017,-190.1489 344.1017,-190.1488"/>
</g>
<!-- divideScaleFactor&#45;&gt;scaleFactor -->
<g id="edge16" class="edge">
<title>divideScaleFactor&#45;&gt;scaleFactor</title>
<path fill="none" stroke="#000000" d="M464.6016,-449.5715C464.6016,-441.8711 464.6016,-432.7145 464.6016,-424.1567"/>
<polygon fill="#000000" stroke="#000000" points="468.1017,-424.1533 464.6016,-414.1534 461.1017,-424.1534 468.1017,-424.1533"/>
</g>
<!-- insertSpecialValues -->
<g id="node32" class="node">
<title>insertSpecialValues</title>
<polygon fill="#20b2aa" stroke="#000000" points="418.1016,-108 263.1016,-108 263.1016,-72 418.1016,-72 418.1016,-108"/>
<text text-anchor="middle" x="340.6016" y="-86.3" font-family="Helvetica,sans-Serif" font-size="14.00" fill="#000000">Reinsert special values</text>
</g>
<!-- plus&#45;&gt;insertSpecialValues -->
<g id="edge25" class="edge">
<title>plus&#45;&gt;insertSpecialValues</title>
<path fill="none" stroke="#000000" d="M340.6016,-143.8314C340.6016,-136.131 340.6016,-126.9743 340.6016,-118.4166"/>
<polygon fill="#000000" stroke="#000000" points="344.1017,-118.4132 340.6016,-108.4133 337.1017,-118.4133 344.1017,-118.4132"/>
</g>
<!-- maskSpecialValues_1_1 -->
<g id="node33" class="node">
<title>maskSpecialValues_1_1</title>
<polygon fill="#20b2aa" stroke="#000000" points="864.6016,-629.7401 726.6016,-629.7401 726.6016,-593.7401 864.6016,-593.7401 864.6016,-629.7401"/>
<text text-anchor="middle" x="795.6016" y="-608.0401" font-family="Helvetica,sans-Serif" font-size="14.00" fill="#000000">Mask special values</text>
</g>
<!-- rebin_lhsw_1&#45;&gt;maskSpecialValues_1_1 -->
<g id="edge31" class="edge">
<title>rebin_lhsw_1&#45;&gt;maskSpecialValues_1_1</title>
<path fill="none" stroke="#000000" d="M795.6016,-665.5715C795.6016,-657.8711 795.6016,-648.7145 795.6016,-640.1567"/>
<polygon fill="#000000" stroke="#000000" points="799.1017,-640.1533 795.6016,-630.1534 792.1017,-640.1534 799.1017,-640.1533"/>
</g>
<!-- maskSpecialValues_2_1 -->
<g id="node34" class="node">
<title>maskSpecialValues_2_1</title>
<polygon fill="#20b2aa" stroke="#000000" points="1319.6016,-629.7401 1181.6016,-629.7401 1181.6016,-593.7401 1319.6016,-593.7401 1319.6016,-629.7401"/>
<text text-anchor="middle" x="1250.6016" y="-608.0401" font-family="Helvetica,sans-Serif" font-size="14.00" fill="#000000">Mask special values</text>
</g>
<!-- rebin_rhsw_1&#45;&gt;maskSpecialValues_2_1 -->
<g id="edge32" class="edge">
<title>rebin_rhsw_1&#45;&gt;maskSpecialValues_2_1</title>
<path fill="none" stroke="#000000" d="M1250.6016,-665.5715C1250.6016,-657.8711 1250.6016,-648.7145 1250.6016,-640.1567"/>
<polygon fill="#000000" stroke="#000000" points="1254.1017,-640.1533 1250.6016,-630.1534 1247.1017,-640.1534 1254.1017,-640.1533"/>
</g>
<!-- multiply_1&#45;&gt;rhsworkspace_1_1 -->
<g id="edge40" class="edge">
<title>multiply_1&#45;&gt;rhsworkspace_1_1</title>
<path fill="none" stroke="#000000" d="M1250.6016,-305.3894C1250.6016,-297.8196 1250.6016,-288.7601 1250.6016,-279.9182"/>
<polygon fill="#000000" stroke="#000000" points="1254.1016,-279.7406 1250.6016,-269.7407 1247.1016,-279.7407 1254.1016,-279.7406"/>
</g>
<!-- weightedMean_1 -->
<g id="node28" class="node">
<title>weightedMean_1</title>
<path fill="#87cefa" stroke="#000000" d="M1117.6016,-269.3701C1117.6016,-269.3701 935.6016,-269.3701 935.6016,-269.3701 929.6016,-269.3701 923.6016,-263.3701 923.6016,-257.3701 923.6016,-257.3701 923.6016,-228.3701 923.6016,-228.3701 923.6016,-222.3701 929.6016,-216.3701 935.6016,-216.3701 935.6016,-216.3701 1117.6016,-216.3701 1117.6016,-216.3701 1123.6016,-216.3701 1129.6016,-222.3701 1129.6016,-228.3701 1129.6016,-228.3701 1129.6016,-257.3701 1129.6016,-257.3701 1129.6016,-263.3701 1123.6016,-269.3701 1117.6016,-269.3701"/>
<text text-anchor="middle" x="1026.6016" y="-254.1701" font-family="Helvetica,sans-Serif" font-size="14.00" fill="#000000">WeightedMean or</text>
<text text-anchor="middle" x="1026.6016" y="-239.1701" font-family="Helvetica,sans-Serif" font-size="14.00" fill="#000000">Unweighted mean if zero errors</text>
<text text-anchor="middle" x="1026.6016" y="-224.1701" font-family="Helvetica,sans-Serif" font-size="14.00" fill="#000000">([StartOverlap, EndOverlap])</text>
</g>
<!-- multiply_1&#45;&gt;weightedMean_1 -->
<g id="edge36" class="edge">
<title>multiply_1&#45;&gt;weightedMean_1</title>
<path fill="none" stroke="#000000" d="M1218.9829,-312.3249C1190.6332,-302.0899 1147.761,-286.6119 1109.6782,-272.863"/>
<polygon fill="#000000" stroke="#000000" points="1110.7054,-269.5128 1100.1111,-269.409 1108.3284,-276.0968 1110.7054,-269.5128"/>
</g>
<!-- weightedMean_1&#45;&gt;plus_1 -->
<g id="edge39" class="edge">
<title>weightedMean_1&#45;&gt;plus_1</title>
<path fill="none" stroke="#000000" d="M1026.6016,-215.9415C1026.6016,-207.6709 1026.6016,-198.5487 1026.6016,-190.1957"/>
<polygon fill="#000000" stroke="#000000" points="1030.1017,-190.1488 1026.6016,-180.1488 1023.1017,-190.1489 1030.1017,-190.1488"/>
</g>
<!-- insertSpecialValues_1 -->
<g id="node35" class="node">
<title>insertSpecialValues_1</title>
<polygon fill="#20b2aa" stroke="#000000" points="1104.1016,-108 949.1016,-108 949.1016,-72 1104.1016,-72 1104.1016,-108"/>
<text text-anchor="middle" x="1026.6016" y="-86.3" font-family="Helvetica,sans-Serif" font-size="14.00" fill="#000000">Reinsert special values</text>
</g>
<!-- plus_1&#45;&gt;insertSpecialValues_1 -->
<g id="edge42" class="edge">
<title>plus_1&#45;&gt;insertSpecialValues_1</title>
<path fill="none" stroke="#000000" d="M1026.6016,-143.8314C1026.6016,-136.131 1026.6016,-126.9743 1026.6016,-118.4166"/>
<polygon fill="#000000" stroke="#000000" points="1030.1017,-118.4132 1026.6016,-108.4133 1023.1017,-118.4133 1030.1017,-118.4132"/>
</g>
<!-- maskSpecialValues_1&#45;&gt;integrate_lhsw -->
<g id="edge7" class="edge">
<title>maskSpecialValues_1&#45;&gt;integrate_lhsw</title>
<path fill="none" stroke="#000000" d="M109.6016,-593.5715C109.6016,-585.8711 109.6016,-576.7145 109.6016,-568.1567"/>
<polygon fill="#000000" stroke="#000000" points="113.1017,-568.1533 109.6016,-558.1534 106.1017,-568.1534 113.1017,-568.1533"/>
</g>
<!-- maskSpecialValues_1&#45;&gt;weightedMean -->
<g id="edge21" class="edge">
<title>maskSpecialValues_1&#45;&gt;weightedMean</title>
<path fill="none" stroke="#000000" d="M120.8995,-593.699C157.0225,-536.0165 270.159,-355.3556 318.4252,-278.2821"/>
<polygon fill="#000000" stroke="#000000" points="321.639,-279.7445 323.9803,-269.4116 315.7063,-276.0292 321.639,-279.7445"/>
</g>
<!-- maskSpecialValues_2&#45;&gt;integrate_rhsw -->
<g id="edge8" class="edge">
<title>maskSpecialValues_2&#45;&gt;integrate_rhsw</title>
<path fill="none" stroke="#000000" d="M527.2555,-593.5715C522.6778,-585.5326 517.1964,-575.9067 512.1427,-567.0319"/>
<polygon fill="#000000" stroke="#000000" points="515.0768,-565.1113 507.0869,-558.1534 508.9939,-568.5752 515.0768,-565.1113"/>
</g>
<!-- maskSpecialValues_2&#45;&gt;multiply -->
<g id="edge18" class="edge">
<title>maskSpecialValues_2&#45;&gt;multiply</title>
<path fill="none" stroke="#000000" d="M539.2905,-593.7244C543.8552,-545.0341 556.4644,-410.5363 561.9712,-351.7974"/>
<polygon fill="#000000" stroke="#000000" points="565.4644,-352.0321 562.9132,-341.749 558.495,-351.3786 565.4644,-352.0321"/>
</g>
<!-- insertSpecialValues&#45;&gt;outputworkspace -->
<g id="edge26" class="edge">
<title>insertSpecialValues&#45;&gt;outputworkspace</title>
<path fill="none" stroke="#000000" d="M340.6016,-71.8314C340.6016,-64.131 340.6016,-54.9743 340.6016,-46.4166"/>
<polygon fill="#000000" stroke="#000000" points="344.1017,-46.4132 340.6016,-36.4133 337.1017,-46.4133 344.1017,-46.4132"/>
</g>
<!-- maskSpecialValues_1_1&#45;&gt;lhsworkspace_1_1 -->
<g id="edge33" class="edge">
<title>maskSpecialValues_1_1&#45;&gt;lhsworkspace_1_1</title>
<path fill="none" stroke="#000000" d="M795.6016,-593.699C795.6016,-536.5063 795.6016,-358.4152 795.6016,-280.268"/>
<polygon fill="#000000" stroke="#000000" points="799.1016,-279.9273 795.6016,-269.9274 792.1016,-279.9274 799.1016,-279.9273"/>
</g>
<!-- maskSpecialValues_1_1&#45;&gt;weightedMean_1 -->
<g id="edge37" class="edge">
<title>maskSpecialValues_1_1&#45;&gt;weightedMean_1</title>
<path fill="none" stroke="#000000" d="M806.8995,-593.699C843.0225,-536.0165 956.159,-355.3556 1004.4252,-278.2821"/>
<polygon fill="#000000" stroke="#000000" points="1007.639,-279.7445 1009.9803,-269.4116 1001.7063,-276.0292 1007.639,-279.7445"/>
</g>
<!-- maskSpecialValues_2_1&#45;&gt;multiply_1 -->
<g id="edge34" class="edge">
<title>maskSpecialValues_2_1&#45;&gt;multiply_1</title>
<path fill="none" stroke="#000000" d="M1250.6016,-593.7244C1250.6016,-545.0341 1250.6016,-410.5363 1250.6016,-351.7974"/>
<polygon fill="#000000" stroke="#000000" points="1254.1017,-351.749 1250.6016,-341.749 1247.1017,-351.749 1254.1017,-351.749"/>
</g>
<!-- insertSpecialValues_1&#45;&gt;outputworkspace_1 -->
<g id="edge43" class="edge">
<title>insertSpecialValues_1&#45;&gt;outputworkspace_1</title>
<path fill="none" stroke="#000000" d="M1026.6016,-71.8314C1026.6016,-64.131 1026.6016,-54.9743 1026.6016,-46.4166"/>
<polygon fill="#000000" stroke="#000000" points="1030.1017,-46.4132 1026.6016,-36.4133 1023.1017,-46.4133 1030.1017,-46.4132"/>
</g>
</g>
</svg>
