<?xml version="1.0" encoding="UTF-8" standalone="no"?>
<!DOCTYPE svg PUBLIC "-//W3C//DTD SVG 1.1//EN"
 "http://www.w3.org/Graphics/SVG/1.1/DTD/svg11.dtd">
<!-- Generated by graphviz version 2.40.1 (20161225.0304)
 -->
<!-- Title: TimeSlice Pages: 1 -->
<svg width="568pt" height="839pt"
 viewBox="0.00 0.00 567.56 839.00" xmlns="http://www.w3.org/2000/svg" xmlns:xlink="http://www.w3.org/1999/xlink">
<g id="graph0" class="graph" transform="scale(1 1) rotate(0) translate(4 835)">
<title>TimeSlice</title>
<polygon fill="#ffffff" stroke="transparent" points="-4,4 -4,-835 563.5621,-835 563.5621,4 -4,4"/>
<text text-anchor="middle" x="279.7811" y="-815.8" font-family="Helvetica,sans-Serif" font-size="14.00" fill="#000000">TimeSlice Flowchart</text>
<!-- HaveCalibration -->
<g id="node1" class="node">
<title>HaveCalibration</title>
<polygon fill="#32cd32" stroke="#000000" points="173.7207,-575 -.221,-557 173.7207,-539 347.6624,-557 173.7207,-575"/>
<text text-anchor="middle" x="173.7207" y="-553.3" font-family="Helvetica,sans-Serif" font-size="14.00" fill="#000000">Have calibration workspace?</text>
</g>
<!-- HaveBackgroundRange -->
<g id="node2" class="node">
<title>HaveBackgroundRange</title>
<polygon fill="#32cd32" stroke="#000000" points="185.7207,-415 31.3838,-397 185.7207,-379 340.0576,-397 185.7207,-415"/>
<text text-anchor="middle" x="185.7207" y="-393.3" font-family="Helvetica,sans-Serif" font-size="14.00" fill="#000000">Have background range?</text>
</g>
<!-- HaveCalibration&#45;&gt;HaveBackgroundRange -->
<g id="edge5" class="edge">
<title>HaveCalibration&#45;&gt;HaveBackgroundRange</title>
<path fill="none" stroke="#000000" d="M175.0739,-538.957C177.1446,-511.3487 181.1176,-458.3746 183.5813,-425.5255"/>
<polygon fill="#000000" stroke="#000000" points="187.0962,-425.4564 184.354,-415.2226 180.1158,-424.9328 187.0962,-425.4564"/>
<text text-anchor="middle" x="190.7207" y="-466.3" font-family="Helvetica,sans-Serif" font-size="14.00" fill="#000000">No</text>
</g>
<!-- Divide -->
<g id="node11" class="node">
<title>Divide</title>
<path fill="#87cefa" stroke="#000000" d="M251.7207,-488C251.7207,-488 221.7207,-488 221.7207,-488 215.7207,-488 209.7207,-482 209.7207,-476 209.7207,-476 209.7207,-464 209.7207,-464 209.7207,-458 215.7207,-452 221.7207,-452 221.7207,-452 251.7207,-452 251.7207,-452 257.7207,-452 263.7207,-458 263.7207,-464 263.7207,-464 263.7207,-476 263.7207,-476 263.7207,-482 257.7207,-488 251.7207,-488"/>
<text text-anchor="middle" x="236.7207" y="-466.3" font-family="Helvetica,sans-Serif" font-size="14.00" fill="#000000">Divide</text>
</g>
<!-- HaveCalibration&#45;&gt;Divide -->
<g id="edge6" class="edge">
<title>HaveCalibration&#45;&gt;Divide</title>
<path fill="none" stroke="#000000" d="M185.8678,-540.2255C194.8101,-527.8766 207.1498,-510.836 217.4343,-496.6337"/>
<polygon fill="#000000" stroke="#000000" points="220.4931,-498.377 223.5235,-488.2248 214.8235,-494.2714 220.4931,-498.377"/>
<text text-anchor="middle" x="220.7207" y="-509.8" font-family="Helvetica,sans-Serif" font-size="14.00" fill="#000000">Yes</text>
</g>
<!-- Integration -->
<g id="node12" class="node">
<title>Integration</title>
<path fill="#87cefa" stroke="#000000" d="M306.7207,-255C306.7207,-255 250.7207,-255 250.7207,-255 244.7207,-255 238.7207,-249 238.7207,-243 238.7207,-243 238.7207,-231 238.7207,-231 238.7207,-225 244.7207,-219 250.7207,-219 250.7207,-219 306.7207,-219 306.7207,-219 312.7207,-219 318.7207,-225 318.7207,-231 318.7207,-231 318.7207,-243 318.7207,-243 318.7207,-249 312.7207,-255 306.7207,-255"/>
<text text-anchor="middle" x="278.7207" y="-233.3" font-family="Helvetica,sans-Serif" font-size="14.00" fill="#000000">Integration</text>
</g>
<!-- HaveBackgroundRange&#45;&gt;Integration -->
<g id="edge9" class="edge">
<title>HaveBackgroundRange&#45;&gt;Integration</title>
<path fill="none" stroke="#000000" d="M182.7808,-379.2311C180.0705,-357.1299 178.5874,-319.0189 194.7207,-292 202.9311,-278.2498 216.0675,-267.2851 229.5366,-258.8776"/>
<polygon fill="#000000" stroke="#000000" points="231.5106,-261.7782 238.3874,-253.7184 227.9854,-255.7307 231.5106,-261.7782"/>
<text text-anchor="middle" x="203.7207" y="-306.3" font-family="Helvetica,sans-Serif" font-size="14.00" fill="#000000">No</text>
</g>
<!-- CalculateFlatBackground -->
<g id="node13" class="node">
<title>CalculateFlatBackground</title>
<path fill="#87cefa" stroke="#000000" d="M508.2207,-328C508.2207,-328 365.2207,-328 365.2207,-328 359.2207,-328 353.2207,-322 353.2207,-316 353.2207,-316 353.2207,-304 353.2207,-304 353.2207,-298 359.2207,-292 365.2207,-292 365.2207,-292 508.2207,-292 508.2207,-292 514.2207,-292 520.2207,-298 520.2207,-304 520.2207,-304 520.2207,-316 520.2207,-316 520.2207,-322 514.2207,-328 508.2207,-328"/>
<text text-anchor="middle" x="436.7207" y="-306.3" font-family="Helvetica,sans-Serif" font-size="14.00" fill="#000000">CalculateFlatBackground</text>
</g>
<!-- HaveBackgroundRange&#45;&gt;CalculateFlatBackground -->
<g id="edge11" class="edge">
<title>HaveBackgroundRange&#45;&gt;CalculateFlatBackground</title>
<path fill="none" stroke="#000000" d="M224.6641,-383.5017C264.8567,-369.5704 328.1429,-347.6345 375.1283,-331.3488"/>
<polygon fill="#000000" stroke="#000000" points="376.2921,-334.6498 384.5943,-328.0677 373.9995,-328.0358 376.2921,-334.6498"/>
<text text-anchor="middle" x="337.7207" y="-349.8" font-family="Helvetica,sans-Serif" font-size="14.00" fill="#000000">Yes</text>
</g>
<!-- InputFiles -->
<g id="node3" class="node">
<title>InputFiles</title>
<ellipse fill="#f0e68c" stroke="#000000" cx="273.7207" cy="-790" rx="48.9926" ry="18"/>
<text text-anchor="middle" x="273.7207" y="-786.3" font-family="Helvetica,sans-Serif" font-size="14.00" fill="#000000">InputFiles</text>
</g>
<!-- Load -->
<g id="node9" class="node">
<title>Load</title>
<path fill="#87cefa" stroke="#000000" d="M288.7207,-721C288.7207,-721 258.7207,-721 258.7207,-721 252.7207,-721 246.7207,-715 246.7207,-709 246.7207,-709 246.7207,-697 246.7207,-697 246.7207,-691 252.7207,-685 258.7207,-685 258.7207,-685 288.7207,-685 288.7207,-685 294.7207,-685 300.7207,-691 300.7207,-697 300.7207,-697 300.7207,-709 300.7207,-709 300.7207,-715 294.7207,-721 288.7207,-721"/>
<text text-anchor="middle" x="273.7207" y="-699.3" font-family="Helvetica,sans-Serif" font-size="14.00" fill="#000000">Load</text>
</g>
<!-- InputFiles&#45;&gt;Load -->
<g id="edge1" class="edge">
<title>InputFiles&#45;&gt;Load</title>
<path fill="none" stroke="#000000" d="M273.7207,-771.9735C273.7207,-760.1918 273.7207,-744.5607 273.7207,-731.1581"/>
<polygon fill="#000000" stroke="#000000" points="277.2208,-731.0033 273.7207,-721.0034 270.2208,-731.0034 277.2208,-731.0033"/>
<text text-anchor="middle" x="319.2207" y="-742.8" font-family="Helvetica,sans-Serif" font-size="14.00" fill="#000000">loop for all files</text>
</g>
<!-- CalibrationWorkspace -->
<g id="node4" class="node">
<title>CalibrationWorkspace</title>
<ellipse fill="#f0e68c" stroke="#000000" cx="462.7207" cy="-557" rx="96.6831" ry="18"/>
<text text-anchor="middle" x="462.7207" y="-553.3" font-family="Helvetica,sans-Serif" font-size="14.00" fill="#000000">CalibrationWorkspace</text>
</g>
<!-- CalibrationWorkspace&#45;&gt;Divide -->
<g id="edge7" class="edge">
<title>CalibrationWorkspace&#45;&gt;Divide</title>
<path fill="none" stroke="#000000" d="M420.477,-540.738C378.1052,-524.4267 313.5237,-499.5657 273.2848,-484.0755"/>
<polygon fill="#000000" stroke="#000000" points="274.4437,-480.7714 263.8539,-480.4451 271.9289,-487.304 274.4437,-480.7714"/>
</g>
<!-- SpectraRange -->
<g id="node5" class="node">
<title>SpectraRange</title>
<ellipse fill="#f0e68c" stroke="#000000" cx="161.7207" cy="-703" rx="66.8882" ry="18"/>
<text text-anchor="middle" x="161.7207" y="-699.3" font-family="Helvetica,sans-Serif" font-size="14.00" fill="#000000">SpectraRange</text>
</g>
<!-- CropWorkspace -->
<g id="node10" class="node">
<title>CropWorkspace</title>
<path fill="#87cefa" stroke="#000000" d="M218.7207,-648C218.7207,-648 128.7207,-648 128.7207,-648 122.7207,-648 116.7207,-642 116.7207,-636 116.7207,-636 116.7207,-624 116.7207,-624 116.7207,-618 122.7207,-612 128.7207,-612 128.7207,-612 218.7207,-612 218.7207,-612 224.7207,-612 230.7207,-618 230.7207,-624 230.7207,-624 230.7207,-636 230.7207,-636 230.7207,-642 224.7207,-648 218.7207,-648"/>
<text text-anchor="middle" x="173.7207" y="-626.3" font-family="Helvetica,sans-Serif" font-size="14.00" fill="#000000">CropWorkspace</text>
</g>
<!-- SpectraRange&#45;&gt;CropWorkspace -->
<g id="edge3" class="edge">
<title>SpectraRange&#45;&gt;CropWorkspace</title>
<path fill="none" stroke="#000000" d="M164.687,-684.9551C166.014,-676.8828 167.6095,-667.1764 169.0881,-658.1817"/>
<polygon fill="#000000" stroke="#000000" points="172.5785,-658.5257 170.747,-648.0904 165.6712,-657.3902 172.5785,-658.5257"/>
</g>
<!-- PeakRange -->
<g id="node6" class="node">
<title>PeakRange</title>
<ellipse fill="#f0e68c" stroke="#000000" cx="278.7207" cy="-310" rx="56.59" ry="18"/>
<text text-anchor="middle" x="278.7207" y="-306.3" font-family="Helvetica,sans-Serif" font-size="14.00" fill="#000000">PeakRange</text>
</g>
<!-- PeakRange&#45;&gt;Integration -->
<g id="edge10" class="edge">
<title>PeakRange&#45;&gt;Integration</title>
<path fill="none" stroke="#000000" d="M278.7207,-291.9551C278.7207,-283.8828 278.7207,-274.1764 278.7207,-265.1817"/>
<polygon fill="#000000" stroke="#000000" points="282.2208,-265.0903 278.7207,-255.0904 275.2208,-265.0904 282.2208,-265.0903"/>
</g>
<!-- BackgroundRange -->
<g id="node7" class="node">
<title>BackgroundRange</title>
<ellipse fill="#f0e68c" stroke="#000000" cx="441.7207" cy="-397" rx="83.3857" ry="18"/>
<text text-anchor="middle" x="441.7207" y="-393.3" font-family="Helvetica,sans-Serif" font-size="14.00" fill="#000000">BackgroundRange</text>
</g>
<!-- BackgroundRange&#45;&gt;CalculateFlatBackground -->
<g id="edge12" class="edge">
<title>BackgroundRange&#45;&gt;CalculateFlatBackground</title>
<path fill="none" stroke="#000000" d="M440.6847,-378.9735C440.0076,-367.1918 439.1093,-351.5607 438.339,-338.1581"/>
<polygon fill="#000000" stroke="#000000" points="441.8235,-337.786 437.7554,-328.0034 434.835,-338.1877 441.8235,-337.786"/>
</g>
<!-- OutputWorkspace -->
<g id="node8" class="node">
<title>OutputWorkspace</title>
<ellipse fill="#f0e68c" stroke="#000000" cx="278.7207" cy="-18" rx="81.7856" ry="18"/>
<text text-anchor="middle" x="278.7207" y="-14.3" font-family="Helvetica,sans-Serif" font-size="14.00" fill="#000000">OutputWorkspace</text>
</g>
<!-- Load&#45;&gt;CropWorkspace -->
<g id="edge2" class="edge">
<title>Load&#45;&gt;CropWorkspace</title>
<path fill="none" stroke="#000000" d="M249.0016,-684.9551C236.2611,-675.6545 220.5487,-664.1844 206.7799,-654.1332"/>
<polygon fill="#000000" stroke="#000000" points="208.6426,-651.1596 198.502,-648.0904 204.5153,-656.8134 208.6426,-651.1596"/>
</g>
<!-- CropWorkspace&#45;&gt;HaveCalibration -->
<g id="edge4" class="edge">
<title>CropWorkspace&#45;&gt;HaveCalibration</title>
<path fill="none" stroke="#000000" d="M173.7207,-611.9551C173.7207,-603.8828 173.7207,-594.1764 173.7207,-585.1817"/>
<polygon fill="#000000" stroke="#000000" points="177.2208,-585.0903 173.7207,-575.0904 170.2208,-585.0904 177.2208,-585.0903"/>
</g>
<!-- Divide&#45;&gt;HaveBackgroundRange -->
<g id="edge8" class="edge">
<title>Divide&#45;&gt;HaveBackgroundRange</title>
<path fill="none" stroke="#000000" d="M224.114,-451.9551C217.8172,-442.9421 210.0972,-431.8918 203.2352,-422.0697"/>
<polygon fill="#000000" stroke="#000000" points="206.0795,-420.0296 197.4832,-413.8365 200.3411,-424.0386 206.0795,-420.0296"/>
</g>
<!-- Transpose -->
<g id="node14" class="node">
<title>Transpose</title>
<path fill="#87cefa" stroke="#000000" d="M306.7207,-182C306.7207,-182 250.7207,-182 250.7207,-182 244.7207,-182 238.7207,-176 238.7207,-170 238.7207,-170 238.7207,-158 238.7207,-158 238.7207,-152 244.7207,-146 250.7207,-146 250.7207,-146 306.7207,-146 306.7207,-146 312.7207,-146 318.7207,-152 318.7207,-158 318.7207,-158 318.7207,-170 318.7207,-170 318.7207,-176 312.7207,-182 306.7207,-182"/>
<text text-anchor="middle" x="278.7207" y="-160.3" font-family="Helvetica,sans-Serif" font-size="14.00" fill="#000000">Transpose</text>
</g>
<!-- Integration&#45;&gt;Transpose -->
<g id="edge14" class="edge">
<title>Integration&#45;&gt;Transpose</title>
<path fill="none" stroke="#000000" d="M278.7207,-218.9551C278.7207,-210.8828 278.7207,-201.1764 278.7207,-192.1817"/>
<polygon fill="#000000" stroke="#000000" points="282.2208,-192.0903 278.7207,-182.0904 275.2208,-192.0904 282.2208,-192.0903"/>
</g>
<!-- CalculateFlatBackground&#45;&gt;Integration -->
<g id="edge13" class="edge">
<title>CalculateFlatBackground&#45;&gt;Integration</title>
<path fill="none" stroke="#000000" d="M397.6645,-291.9551C376.3001,-282.0841 349.6466,-269.7695 326.9886,-259.301"/>
<polygon fill="#000000" stroke="#000000" points="328.4211,-256.1074 317.8752,-255.0904 325.4851,-262.4619 328.4211,-256.1074"/>
</g>
<!-- GroupWorkspaces -->
<g id="node15" class="node">
<title>GroupWorkspaces</title>
<path fill="#87cefa" stroke="#000000" d="M331.7207,-109C331.7207,-109 225.7207,-109 225.7207,-109 219.7207,-109 213.7207,-103 213.7207,-97 213.7207,-97 213.7207,-85 213.7207,-85 213.7207,-79 219.7207,-73 225.7207,-73 225.7207,-73 331.7207,-73 331.7207,-73 337.7207,-73 343.7207,-79 343.7207,-85 343.7207,-85 343.7207,-97 343.7207,-97 343.7207,-103 337.7207,-109 331.7207,-109"/>
<text text-anchor="middle" x="278.7207" y="-87.3" font-family="Helvetica,sans-Serif" font-size="14.00" fill="#000000">GroupWorkspaces</text>
</g>
<!-- Transpose&#45;&gt;GroupWorkspaces -->
<g id="edge15" class="edge">
<title>Transpose&#45;&gt;GroupWorkspaces</title>
<path fill="none" stroke="#000000" d="M278.7207,-145.9551C278.7207,-137.8828 278.7207,-128.1764 278.7207,-119.1817"/>
<polygon fill="#000000" stroke="#000000" points="282.2208,-119.0903 278.7207,-109.0904 275.2208,-119.0904 282.2208,-119.0903"/>
</g>
<!-- GroupWorkspaces&#45;&gt;OutputWorkspace -->
<g id="edge16" class="edge">
<title>GroupWorkspaces&#45;&gt;OutputWorkspace</title>
<path fill="none" stroke="#000000" d="M278.7207,-72.9551C278.7207,-64.8828 278.7207,-55.1764 278.7207,-46.1817"/>
<polygon fill="#000000" stroke="#000000" points="282.2208,-46.0903 278.7207,-36.0904 275.2208,-46.0904 282.2208,-46.0903"/>
</g>
</g>
</svg>
