<?xml version="1.0" encoding="UTF-8" standalone="no"?>
<!DOCTYPE svg PUBLIC "-//W3C//DTD SVG 1.1//EN"
 "http://www.w3.org/Graphics/SVG/1.1/DTD/svg11.dtd">
<!-- Generated by graphviz version 2.40.1 (20161225.0304)
 -->
<!-- Title: Sample Pages: 1 -->
<svg width="598pt" height="1340pt"
 viewBox="0.00 0.00 598.16 1340.00" xmlns="http://www.w3.org/2000/svg" xmlns:xlink="http://www.w3.org/1999/xlink">
<g id="graph0" class="graph" transform="scale(1 1) rotate(0) translate(4 1336)">
<title>Sample</title>
<polygon fill="#ffffff" stroke="transparent" points="-4,4 -4,-1336 594.1626,-1336 594.1626,4 -4,4"/>
<!-- Mask -->
<g id="node1" class="node">
<title>Mask</title>
<polygon fill="#32cd32" stroke="#000000" points="498.2895,-1188 452.3737,-1170 498.2895,-1152 544.2053,-1170 498.2895,-1188"/>
<text text-anchor="middle" x="498.2895" y="-1166.3" font-family="Helvetica,sans-Serif" font-size="14.00" fill="#000000">Mask</text>
</g>
<!-- MaskDetectors -->
<g id="node11" class="node">
<title>MaskDetectors</title>
<path fill="#87cefa" stroke="#000000" d="M498.7895,-1116C498.7895,-1116 415.7895,-1116 415.7895,-1116 409.7895,-1116 403.7895,-1110 403.7895,-1104 403.7895,-1104 403.7895,-1092 403.7895,-1092 403.7895,-1086 409.7895,-1080 415.7895,-1080 415.7895,-1080 498.7895,-1080 498.7895,-1080 504.7895,-1080 510.7895,-1086 510.7895,-1092 510.7895,-1092 510.7895,-1104 510.7895,-1104 510.7895,-1110 504.7895,-1116 498.7895,-1116"/>
<text text-anchor="middle" x="457.2895" y="-1094.3" font-family="Helvetica,sans-Serif" font-size="14.00" fill="#000000">MaskDetectors</text>
</g>
<!-- Mask&#45;&gt;MaskDetectors -->
<g id="edge6" class="edge">
<title>Mask&#45;&gt;MaskDetectors</title>
<path fill="none" stroke="#000000" d="M489.7943,-1155.0816C484.8738,-1146.4407 478.5286,-1135.2979 472.7522,-1125.1541"/>
<polygon fill="#000000" stroke="#000000" points="475.6544,-1123.1774 467.6645,-1116.2195 469.5715,-1126.6413 475.6544,-1123.1774"/>
</g>
<!-- Minus -->
<g id="node15" class="node">
<title>Minus</title>
<path fill="#87cefa" stroke="#000000" d="M472.2895,-1044C472.2895,-1044 442.2895,-1044 442.2895,-1044 436.2895,-1044 430.2895,-1038 430.2895,-1032 430.2895,-1032 430.2895,-1020 430.2895,-1020 430.2895,-1014 436.2895,-1008 442.2895,-1008 442.2895,-1008 472.2895,-1008 472.2895,-1008 478.2895,-1008 484.2895,-1014 484.2895,-1020 484.2895,-1020 484.2895,-1032 484.2895,-1032 484.2895,-1038 478.2895,-1044 472.2895,-1044"/>
<text text-anchor="middle" x="457.2895" y="-1022.3" font-family="Helvetica,sans-Serif" font-size="14.00" fill="#000000">Minus</text>
</g>
<!-- Mask&#45;&gt;Minus -->
<g id="edge8" class="edge">
<title>Mask&#45;&gt;Minus</title>
<path fill="none" stroke="#000000" d="M507.2813,-1155.4021C517.3122,-1137.1109 530.7217,-1105.1176 519.2895,-1080 513.5408,-1067.3696 503.2168,-1056.5444 492.6216,-1047.975"/>
<polygon fill="#000000" stroke="#000000" points="494.627,-1045.1034 484.5379,-1041.869 490.4079,-1050.6891 494.627,-1045.1034"/>
</g>
<!-- SelfAttenuation -->
<g id="node2" class="node">
<title>SelfAttenuation</title>
<polygon fill="#32cd32" stroke="#000000" points="457.2895,-972 358.251,-954 457.2895,-936 556.328,-954 457.2895,-972"/>
<text text-anchor="middle" x="457.2895" y="-950.3" font-family="Helvetica,sans-Serif" font-size="14.00" fill="#000000">SelfAttenuation</text>
</g>
<!-- PaalmanPingsMonteCarloAbsorption -->
<g id="node12" class="node">
<title>PaalmanPingsMonteCarloAbsorption</title>
<path fill="#87cefa" stroke="#000000" d="M564.7895,-900C564.7895,-900 349.7895,-900 349.7895,-900 343.7895,-900 337.7895,-894 337.7895,-888 337.7895,-888 337.7895,-876 337.7895,-876 337.7895,-870 343.7895,-864 349.7895,-864 349.7895,-864 564.7895,-864 564.7895,-864 570.7895,-864 576.7895,-870 576.7895,-876 576.7895,-876 576.7895,-888 576.7895,-888 576.7895,-894 570.7895,-900 564.7895,-900"/>
<text text-anchor="middle" x="457.2895" y="-878.3" font-family="Helvetica,sans-Serif" font-size="14.00" fill="#000000">PaalmanPingsMonteCarloAbsorption</text>
</g>
<!-- SelfAttenuation&#45;&gt;PaalmanPingsMonteCarloAbsorption -->
<g id="edge12" class="edge">
<title>SelfAttenuation&#45;&gt;PaalmanPingsMonteCarloAbsorption</title>
<path fill="none" stroke="#000000" d="M457.2895,-935.8314C457.2895,-928.131 457.2895,-918.9743 457.2895,-910.4166"/>
<polygon fill="#000000" stroke="#000000" points="460.7896,-910.4132 457.2895,-900.4133 453.7896,-910.4133 460.7896,-910.4132"/>
</g>
<!-- PaalmanPingsAbsorptionCorrection -->
<g id="node13" class="node">
<title>PaalmanPingsAbsorptionCorrection</title>
<path fill="#87cefa" stroke="#000000" d="M307.7895,-900C307.7895,-900 100.7895,-900 100.7895,-900 94.7895,-900 88.7895,-894 88.7895,-888 88.7895,-888 88.7895,-876 88.7895,-876 88.7895,-870 94.7895,-864 100.7895,-864 100.7895,-864 307.7895,-864 307.7895,-864 313.7895,-864 319.7895,-870 319.7895,-876 319.7895,-876 319.7895,-888 319.7895,-888 319.7895,-894 313.7895,-900 307.7895,-900"/>
<text text-anchor="middle" x="204.2895" y="-878.3" font-family="Helvetica,sans-Serif" font-size="14.00" fill="#000000">PaalmanPingsAbsorptionCorrection</text>
</g>
<!-- SelfAttenuation&#45;&gt;PaalmanPingsAbsorptionCorrection -->
<g id="edge11" class="edge">
<title>SelfAttenuation&#45;&gt;PaalmanPingsAbsorptionCorrection</title>
<path fill="none" stroke="#000000" d="M418.5888,-942.9864C381.1118,-932.321 323.347,-915.882 277.2301,-902.7578"/>
<polygon fill="#000000" stroke="#000000" points="278.1536,-899.3817 267.5775,-900.0108 276.2376,-906.1144 278.1536,-899.3817"/>
</g>
<!-- Divide -->
<g id="node17" class="node">
<title>Divide</title>
<path fill="#87cefa" stroke="#000000" d="M472.2895,-756C472.2895,-756 442.2895,-756 442.2895,-756 436.2895,-756 430.2895,-750 430.2895,-744 430.2895,-744 430.2895,-732 430.2895,-732 430.2895,-726 436.2895,-720 442.2895,-720 442.2895,-720 472.2895,-720 472.2895,-720 478.2895,-720 484.2895,-726 484.2895,-732 484.2895,-732 484.2895,-744 484.2895,-744 484.2895,-750 478.2895,-756 472.2895,-756"/>
<text text-anchor="middle" x="457.2895" y="-734.3" font-family="Helvetica,sans-Serif" font-size="14.00" fill="#000000">Divide</text>
</g>
<!-- SelfAttenuation&#45;&gt;Divide -->
<g id="edge16" class="edge">
<title>SelfAttenuation&#45;&gt;Divide</title>
<path fill="none" stroke="#000000" d="M510.7728,-945.6994C537.9605,-938.4776 568.6884,-925.0216 585.2895,-900 601.6223,-875.3829 570.6575,-797.353 566.2895,-792 548.0646,-769.6653 518.2855,-755.796 494.4552,-747.7144"/>
<polygon fill="#000000" stroke="#000000" points="495.2479,-744.2938 484.6574,-744.5974 493.1257,-750.9643 495.2479,-744.2938"/>
</g>
<!-- RebinData -->
<g id="node3" class="node">
<title>RebinData</title>
<polygon fill="#32cd32" stroke="#000000" points="457.2895,-468 383.7243,-450 457.2895,-432 530.8547,-450 457.2895,-468"/>
<text text-anchor="middle" x="457.2895" y="-446.3" font-family="Helvetica,sans-Serif" font-size="14.00" fill="#000000">RebinData</text>
</g>
<!-- Group -->
<g id="node4" class="node">
<title>Group</title>
<polygon fill="#32cd32" stroke="#000000" points="457.2895,-324 406.6821,-306 457.2895,-288 507.8969,-306 457.2895,-324"/>
<text text-anchor="middle" x="457.2895" y="-302.3" font-family="Helvetica,sans-Serif" font-size="14.00" fill="#000000">Group</text>
</g>
<!-- RebinData&#45;&gt;Group -->
<g id="edge24" class="edge">
<title>RebinData&#45;&gt;Group</title>
<path fill="none" stroke="#000000" d="M460.9434,-432.5816C462.9655,-422.0463 465.2704,-408.3135 466.2895,-396 467.6092,-380.0545 467.6092,-375.9455 466.2895,-360 465.5538,-351.1112 464.1481,-341.4828 462.6625,-332.8515"/>
<polygon fill="#000000" stroke="#000000" points="466.0909,-332.1424 460.8503,-322.9345 459.205,-333.4008 466.0909,-332.1424"/>
</g>
<!-- Rebin -->
<g id="node21" class="node">
<title>Rebin</title>
<path fill="#87cefa" stroke="#000000" d="M445.2895,-396C445.2895,-396 415.2895,-396 415.2895,-396 409.2895,-396 403.2895,-390 403.2895,-384 403.2895,-384 403.2895,-372 403.2895,-372 403.2895,-366 409.2895,-360 415.2895,-360 415.2895,-360 445.2895,-360 445.2895,-360 451.2895,-360 457.2895,-366 457.2895,-372 457.2895,-372 457.2895,-384 457.2895,-384 457.2895,-390 451.2895,-396 445.2895,-396"/>
<text text-anchor="middle" x="430.2895" y="-374.3" font-family="Helvetica,sans-Serif" font-size="14.00" fill="#000000">Rebin</text>
</g>
<!-- RebinData&#45;&gt;Rebin -->
<g id="edge22" class="edge">
<title>RebinData&#45;&gt;Rebin</title>
<path fill="none" stroke="#000000" d="M451.0273,-433.3008C447.9613,-425.1248 444.1882,-415.0631 440.7046,-405.7735"/>
<polygon fill="#000000" stroke="#000000" points="443.8738,-404.2565 437.0853,-396.1222 437.3195,-406.7144 443.8738,-404.2565"/>
</g>
<!-- Save -->
<g id="node5" class="node">
<title>Save</title>
<polygon fill="#32cd32" stroke="#000000" points="457.2895,-180 413.8878,-162 457.2895,-144 500.6912,-162 457.2895,-180"/>
<text text-anchor="middle" x="457.2895" y="-158.3" font-family="Helvetica,sans-Serif" font-size="14.00" fill="#000000">Save</text>
</g>
<!-- Group&#45;&gt;Save -->
<g id="edge26" class="edge">
<title>Group&#45;&gt;Save</title>
<path fill="none" stroke="#000000" d="M465.6522,-290.9397C471.0137,-280.3935 477.4775,-265.7781 480.2895,-252 483.489,-236.3232 483.489,-231.6768 480.2895,-216 478.2244,-205.8817 474.1899,-195.3119 470.0689,-186.2337"/>
<polygon fill="#000000" stroke="#000000" points="473.1438,-184.5521 465.6522,-177.0603 466.8368,-187.5888 473.1438,-184.5521"/>
</g>
<!-- GroupDetectors -->
<g id="node23" class="node">
<title>GroupDetectors</title>
<path fill="#87cefa" stroke="#000000" d="M459.7895,-252C459.7895,-252 370.7895,-252 370.7895,-252 364.7895,-252 358.7895,-246 358.7895,-240 358.7895,-240 358.7895,-228 358.7895,-228 358.7895,-222 364.7895,-216 370.7895,-216 370.7895,-216 459.7895,-216 459.7895,-216 465.7895,-216 471.7895,-222 471.7895,-228 471.7895,-228 471.7895,-240 471.7895,-240 471.7895,-246 465.7895,-252 459.7895,-252"/>
<text text-anchor="middle" x="415.2895" y="-230.3" font-family="Helvetica,sans-Serif" font-size="14.00" fill="#000000">GroupDetectors</text>
</g>
<!-- Group&#45;&gt;GroupDetectors -->
<g id="edge25" class="edge">
<title>Group&#45;&gt;GroupDetectors</title>
<path fill="none" stroke="#000000" d="M448.5871,-291.0816C443.5466,-282.4407 437.0466,-271.2979 431.1294,-261.1541"/>
<polygon fill="#000000" stroke="#000000" points="433.9795,-259.0938 425.9176,-252.2195 427.9331,-262.6209 433.9795,-259.0938"/>
</g>
<!-- OutputWorkspace -->
<g id="node9" class="node">
<title>OutputWorkspace</title>
<polygon fill="#c0c0c0" stroke="#000000" points="567.8714,-36 391.9603,-36 346.7076,0 522.6187,0 567.8714,-36"/>
<text text-anchor="middle" x="457.2895" y="-14.3" font-family="Times,serif" font-size="14.00" fill="#000000">OutputWorkspace</text>
</g>
<!-- Save&#45;&gt;OutputWorkspace -->
<g id="edge30" class="edge">
<title>Save&#45;&gt;OutputWorkspace</title>
<path fill="none" stroke="#000000" d="M463.6552,-146.2369C467.5881,-135.6263 472.259,-121.2118 474.2895,-108 476.72,-92.1857 476.72,-87.8143 474.2895,-72 472.9521,-63.2979 470.4691,-54.074 467.8061,-45.759"/>
<polygon fill="#000000" stroke="#000000" points="471.0741,-44.4982 464.5334,-36.1634 464.4489,-46.7579 471.0741,-44.4982"/>
</g>
<!-- SaveOutput -->
<g id="node22" class="node">
<title>SaveOutput</title>
<path fill="#87cefa" stroke="#000000" d="M453.7895,-108C453.7895,-108 388.7895,-108 388.7895,-108 382.7895,-108 376.7895,-102 376.7895,-96 376.7895,-96 376.7895,-84 376.7895,-84 376.7895,-78 382.7895,-72 388.7895,-72 388.7895,-72 453.7895,-72 453.7895,-72 459.7895,-72 465.7895,-78 465.7895,-84 465.7895,-84 465.7895,-96 465.7895,-96 465.7895,-102 459.7895,-108 453.7895,-108"/>
<text text-anchor="middle" x="421.2895" y="-86.3" font-family="Helvetica,sans-Serif" font-size="14.00" fill="#000000">SaveOutput</text>
</g>
<!-- Save&#45;&gt;SaveOutput -->
<g id="edge28" class="edge">
<title>Save&#45;&gt;SaveOutput</title>
<path fill="none" stroke="#000000" d="M449.8303,-147.0816C445.5539,-138.5289 440.052,-127.5251 435.0219,-117.4649"/>
<polygon fill="#000000" stroke="#000000" points="438.002,-115.5985 430.3993,-108.2195 431.741,-118.7291 438.002,-115.5985"/>
</g>
<!-- Runs -->
<g id="node6" class="node">
<title>Runs</title>
<ellipse fill="#f0e68c" stroke="#000000" cx="498.2895" cy="-1314" rx="31.3957" ry="18"/>
<text text-anchor="middle" x="498.2895" y="-1310.3" font-family="Helvetica,sans-Serif" font-size="14.00" fill="#000000">Runs</text>
</g>
<!-- DirectILLCollectData -->
<g id="node10" class="node">
<title>DirectILLCollectData</title>
<path fill="#87cefa" stroke="#000000" d="M556.2895,-1260C556.2895,-1260 440.2895,-1260 440.2895,-1260 434.2895,-1260 428.2895,-1254 428.2895,-1248 428.2895,-1248 428.2895,-1236 428.2895,-1236 428.2895,-1230 434.2895,-1224 440.2895,-1224 440.2895,-1224 556.2895,-1224 556.2895,-1224 562.2895,-1224 568.2895,-1230 568.2895,-1236 568.2895,-1236 568.2895,-1248 568.2895,-1248 568.2895,-1254 562.2895,-1260 556.2895,-1260"/>
<text text-anchor="middle" x="498.2895" y="-1238.3" font-family="Helvetica,sans-Serif" font-size="14.00" fill="#000000">DirectILLCollectData</text>
</g>
<!-- Runs&#45;&gt;DirectILLCollectData -->
<g id="edge1" class="edge">
<title>Runs&#45;&gt;DirectILLCollectData</title>
<path fill="none" stroke="#000000" d="M498.2895,-1295.8314C498.2895,-1288.131 498.2895,-1278.9743 498.2895,-1270.4166"/>
<polygon fill="#000000" stroke="#000000" points="501.7896,-1270.4132 498.2895,-1260.4133 494.7896,-1270.4133 501.7896,-1270.4132"/>
</g>
<!-- EmptyContainerWorkspace -->
<g id="node7" class="node">
<title>EmptyContainerWorkspace</title>
<ellipse fill="#f0e68c" stroke="#000000" cx="118.2895" cy="-1098" rx="118.0794" ry="18"/>
<text text-anchor="middle" x="118.2895" y="-1094.3" font-family="Helvetica,sans-Serif" font-size="14.00" fill="#000000">EmptyContainerWorkspace</text>
</g>
<!-- EmptyContainerWorkspace&#45;&gt;Minus -->
<g id="edge9" class="edge">
<title>EmptyContainerWorkspace&#45;&gt;Minus</title>
<path fill="none" stroke="#000000" d="M187.2998,-1083.3429C257.8297,-1068.3631 364.6903,-1045.6671 420.4662,-1033.8209"/>
<polygon fill="#000000" stroke="#000000" points="421.2114,-1037.2408 430.266,-1031.7395 419.757,-1030.3935 421.2114,-1037.2408"/>
</g>
<!-- VanadiumWorkspace -->
<g id="node8" class="node">
<title>VanadiumWorkspace</title>
<ellipse fill="#f0e68c" stroke="#000000" cx="244.2895" cy="-810" rx="94.7833" ry="18"/>
<text text-anchor="middle" x="244.2895" y="-806.3" font-family="Helvetica,sans-Serif" font-size="14.00" fill="#000000">VanadiumWorkspace</text>
</g>
<!-- VanadiumWorkspace&#45;&gt;Divide -->
<g id="edge17" class="edge">
<title>VanadiumWorkspace&#45;&gt;Divide</title>
<path fill="none" stroke="#000000" d="M290.7701,-794.2883C329.7073,-781.1264 384.5369,-762.5924 420.4826,-750.4418"/>
<polygon fill="#000000" stroke="#000000" points="421.7389,-753.7117 430.0915,-747.1937 419.4972,-747.0804 421.7389,-753.7117"/>
</g>
<!-- DirectILLCollectData&#45;&gt;Mask -->
<g id="edge2" class="edge">
<title>DirectILLCollectData&#45;&gt;Mask</title>
<path fill="none" stroke="#000000" d="M498.2895,-1223.8314C498.2895,-1216.131 498.2895,-1206.9743 498.2895,-1198.4166"/>
<polygon fill="#000000" stroke="#000000" points="501.7896,-1198.4132 498.2895,-1188.4133 494.7896,-1198.4133 501.7896,-1198.4132"/>
</g>
<!-- MaskDetectors&#45;&gt;Minus -->
<g id="edge7" class="edge">
<title>MaskDetectors&#45;&gt;Minus</title>
<path fill="none" stroke="#000000" d="M457.2895,-1079.8314C457.2895,-1072.131 457.2895,-1062.9743 457.2895,-1054.4166"/>
<polygon fill="#000000" stroke="#000000" points="460.7896,-1054.4132 457.2895,-1044.4133 453.7896,-1054.4133 460.7896,-1054.4132"/>
</g>
<!-- ApplyPaalmanPingsCorrection -->
<g id="node14" class="node">
<title>ApplyPaalmanPingsCorrection</title>
<path fill="#87cefa" stroke="#000000" d="M545.2895,-828C545.2895,-828 369.2895,-828 369.2895,-828 363.2895,-828 357.2895,-822 357.2895,-816 357.2895,-816 357.2895,-804 357.2895,-804 357.2895,-798 363.2895,-792 369.2895,-792 369.2895,-792 545.2895,-792 545.2895,-792 551.2895,-792 557.2895,-798 557.2895,-804 557.2895,-804 557.2895,-816 557.2895,-816 557.2895,-822 551.2895,-828 545.2895,-828"/>
<text text-anchor="middle" x="457.2895" y="-806.3" font-family="Helvetica,sans-Serif" font-size="14.00" fill="#000000">ApplyPaalmanPingsCorrection</text>
</g>
<!-- PaalmanPingsMonteCarloAbsorption&#45;&gt;ApplyPaalmanPingsCorrection -->
<g id="edge14" class="edge">
<title>PaalmanPingsMonteCarloAbsorption&#45;&gt;ApplyPaalmanPingsCorrection</title>
<path fill="none" stroke="#000000" d="M457.2895,-863.8314C457.2895,-856.131 457.2895,-846.9743 457.2895,-838.4166"/>
<polygon fill="#000000" stroke="#000000" points="460.7896,-838.4132 457.2895,-828.4133 453.7896,-838.4133 460.7896,-838.4132"/>
</g>
<!-- PaalmanPingsAbsorptionCorrection&#45;&gt;ApplyPaalmanPingsCorrection -->
<g id="edge13" class="edge">
<title>PaalmanPingsAbsorptionCorrection&#45;&gt;ApplyPaalmanPingsCorrection</title>
<path fill="none" stroke="#000000" d="M267.8055,-863.9243C303.144,-853.8675 347.2866,-841.3052 384.0732,-830.8363"/>
<polygon fill="#000000" stroke="#000000" points="385.0873,-834.1867 393.7474,-828.0831 383.1712,-827.454 385.0873,-834.1867"/>
</g>
<!-- ApplyPaalmanPingsCorrection&#45;&gt;Divide -->
<g id="edge15" class="edge">
<title>ApplyPaalmanPingsCorrection&#45;&gt;Divide</title>
<path fill="none" stroke="#000000" d="M457.2895,-791.8314C457.2895,-784.131 457.2895,-774.9743 457.2895,-766.4166"/>
<polygon fill="#000000" stroke="#000000" points="460.7896,-766.4132 457.2895,-756.4133 453.7896,-766.4133 460.7896,-766.4132"/>
</g>
<!-- Minus&#45;&gt;SelfAttenuation -->
<g id="edge10" class="edge">
<title>Minus&#45;&gt;SelfAttenuation</title>
<path fill="none" stroke="#000000" d="M457.2895,-1007.8314C457.2895,-1000.131 457.2895,-990.9743 457.2895,-982.4166"/>
<polygon fill="#000000" stroke="#000000" points="460.7896,-982.4132 457.2895,-972.4133 453.7896,-982.4133 460.7896,-982.4132"/>
</g>
<!-- MaskWorkspace -->
<g id="node16" class="node">
<title>MaskWorkspace</title>
<path fill="#87cefa" stroke="#000000" d="M367.2895,-1188C367.2895,-1188 273.2895,-1188 273.2895,-1188 267.2895,-1188 261.2895,-1182 261.2895,-1176 261.2895,-1176 261.2895,-1164 261.2895,-1164 261.2895,-1158 267.2895,-1152 273.2895,-1152 273.2895,-1152 367.2895,-1152 367.2895,-1152 373.2895,-1152 379.2895,-1158 379.2895,-1164 379.2895,-1164 379.2895,-1176 379.2895,-1176 379.2895,-1182 373.2895,-1188 367.2895,-1188"/>
<text text-anchor="middle" x="320.2895" y="-1166.3" font-family="Helvetica,sans-Serif" font-size="14.00" fill="#000000">MaskWorkspace</text>
</g>
<!-- MaskWorkspace&#45;&gt;MaskDetectors -->
<g id="edge5" class="edge">
<title>MaskWorkspace&#45;&gt;MaskDetectors</title>
<path fill="none" stroke="#000000" d="M354.8604,-1151.8314C372.708,-1142.4516 394.6669,-1130.9112 413.6695,-1120.9244"/>
<polygon fill="#000000" stroke="#000000" points="415.506,-1123.9132 422.7297,-1116.1628 412.2494,-1117.7168 415.506,-1123.9132"/>
</g>
<!-- MaskCreation -->
<g id="node24" class="node">
<title>MaskCreation</title>
<ellipse fill="#d3d3d3" stroke="#000000" cx="320.2895" cy="-1098" rx="65.7887" ry="18"/>
<text text-anchor="middle" x="320.2895" y="-1094.3" font-family="Helvetica,sans-Serif" font-size="14.00" fill="#000000">MaskCreation</text>
</g>
<!-- MaskWorkspace&#45;&gt;MaskCreation -->
<g id="edge3" class="edge">
<title>MaskWorkspace&#45;&gt;MaskCreation</title>
<path fill="none" stroke="#000000" d="M314.3371,-1151.8314C313.5867,-1144.131 313.3658,-1134.9743 313.6744,-1126.4166"/>
<polygon fill="#000000" stroke="#000000" points="317.1687,-1126.6161 314.3135,-1116.4133 310.183,-1126.1697 317.1687,-1126.6161"/>
</g>
<!-- ConvertUnits -->
<g id="node18" class="node">
<title>ConvertUnits</title>
<path fill="#87cefa" stroke="#000000" d="M492.7895,-684C492.7895,-684 421.7895,-684 421.7895,-684 415.7895,-684 409.7895,-678 409.7895,-672 409.7895,-672 409.7895,-660 409.7895,-660 409.7895,-654 415.7895,-648 421.7895,-648 421.7895,-648 492.7895,-648 492.7895,-648 498.7895,-648 504.7895,-654 504.7895,-660 504.7895,-660 504.7895,-672 504.7895,-672 504.7895,-678 498.7895,-684 492.7895,-684"/>
<text text-anchor="middle" x="457.2895" y="-662.3" font-family="Helvetica,sans-Serif" font-size="14.00" fill="#000000">ConvertUnits</text>
</g>
<!-- Divide&#45;&gt;ConvertUnits -->
<g id="edge18" class="edge">
<title>Divide&#45;&gt;ConvertUnits</title>
<path fill="none" stroke="#000000" d="M457.2895,-719.8314C457.2895,-712.131 457.2895,-702.9743 457.2895,-694.4166"/>
<polygon fill="#000000" stroke="#000000" points="460.7896,-694.4132 457.2895,-684.4133 453.7896,-694.4133 460.7896,-694.4132"/>
</g>
<!-- CorrectKiKf -->
<g id="node19" class="node">
<title>CorrectKiKf</title>
<path fill="#87cefa" stroke="#000000" d="M488.2895,-612C488.2895,-612 426.2895,-612 426.2895,-612 420.2895,-612 414.2895,-606 414.2895,-600 414.2895,-600 414.2895,-588 414.2895,-588 414.2895,-582 420.2895,-576 426.2895,-576 426.2895,-576 488.2895,-576 488.2895,-576 494.2895,-576 500.2895,-582 500.2895,-588 500.2895,-588 500.2895,-600 500.2895,-600 500.2895,-606 494.2895,-612 488.2895,-612"/>
<text text-anchor="middle" x="457.2895" y="-590.3" font-family="Helvetica,sans-Serif" font-size="14.00" fill="#000000">CorrectKiKf</text>
</g>
<!-- ConvertUnits&#45;&gt;CorrectKiKf -->
<g id="edge19" class="edge">
<title>ConvertUnits&#45;&gt;CorrectKiKf</title>
<path fill="none" stroke="#000000" d="M457.2895,-647.8314C457.2895,-640.131 457.2895,-630.9743 457.2895,-622.4166"/>
<polygon fill="#000000" stroke="#000000" points="460.7896,-622.4132 457.2895,-612.4133 453.7896,-622.4133 460.7896,-622.4132"/>
</g>
<!-- DetectorEfficiencyCorUser -->
<g id="node20" class="node">
<title>DetectorEfficiencyCorUser</title>
<path fill="#87cefa" stroke="#000000" d="M533.2895,-540C533.2895,-540 381.2895,-540 381.2895,-540 375.2895,-540 369.2895,-534 369.2895,-528 369.2895,-528 369.2895,-516 369.2895,-516 369.2895,-510 375.2895,-504 381.2895,-504 381.2895,-504 533.2895,-504 533.2895,-504 539.2895,-504 545.2895,-510 545.2895,-516 545.2895,-516 545.2895,-528 545.2895,-528 545.2895,-534 539.2895,-540 533.2895,-540"/>
<text text-anchor="middle" x="457.2895" y="-518.3" font-family="Helvetica,sans-Serif" font-size="14.00" fill="#000000">DetectorEfficiencyCorUser</text>
</g>
<!-- CorrectKiKf&#45;&gt;DetectorEfficiencyCorUser -->
<g id="edge20" class="edge">
<title>CorrectKiKf&#45;&gt;DetectorEfficiencyCorUser</title>
<path fill="none" stroke="#000000" d="M457.2895,-575.8314C457.2895,-568.131 457.2895,-558.9743 457.2895,-550.4166"/>
<polygon fill="#000000" stroke="#000000" points="460.7896,-550.4132 457.2895,-540.4133 453.7896,-550.4133 460.7896,-550.4132"/>
</g>
<!-- DetectorEfficiencyCorUser&#45;&gt;RebinData -->
<g id="edge21" class="edge">
<title>DetectorEfficiencyCorUser&#45;&gt;RebinData</title>
<path fill="none" stroke="#000000" d="M457.2895,-503.8314C457.2895,-496.131 457.2895,-486.9743 457.2895,-478.4166"/>
<polygon fill="#000000" stroke="#000000" points="460.7896,-478.4132 457.2895,-468.4133 453.7896,-478.4133 460.7896,-478.4132"/>
</g>
<!-- Rebin&#45;&gt;Group -->
<g id="edge23" class="edge">
<title>Rebin&#45;&gt;Group</title>
<path fill="none" stroke="#000000" d="M437.1027,-359.8314C440.315,-351.2652 444.2031,-340.8971 447.706,-331.5559"/>
<polygon fill="#000000" stroke="#000000" points="451.0716,-332.549 451.3057,-321.9568 444.5173,-330.0911 451.0716,-332.549"/>
</g>
<!-- SaveOutput&#45;&gt;OutputWorkspace -->
<g id="edge29" class="edge">
<title>SaveOutput&#45;&gt;OutputWorkspace</title>
<path fill="none" stroke="#000000" d="M430.3738,-71.8314C434.351,-63.8771 439.105,-54.369 443.5034,-45.5723"/>
<polygon fill="#000000" stroke="#000000" points="446.7412,-46.9228 448.0829,-36.4133 440.4802,-43.7923 446.7412,-46.9228"/>
</g>
<!-- GroupDetectors&#45;&gt;Save -->
<g id="edge27" class="edge">
<title>GroupDetectors&#45;&gt;Save</title>
<path fill="none" stroke="#000000" d="M425.8879,-215.8314C431.2653,-206.613 437.86,-195.3078 443.6154,-185.4414"/>
<polygon fill="#000000" stroke="#000000" points="446.7936,-186.9391 448.8091,-176.5378 440.7471,-183.412 446.7936,-186.9391"/>
</g>
<!-- MaskCreation&#45;&gt;MaskWorkspace -->
<g id="edge4" class="edge">
<title>MaskCreation&#45;&gt;MaskWorkspace</title>
<path fill="none" stroke="#000000" d="M326.2655,-1116.4133C326.9966,-1124.0593 327.2098,-1133.1084 326.905,-1141.5726"/>
<polygon fill="#000000" stroke="#000000" points="323.3943,-1141.6264 326.2419,-1151.8314 330.3797,-1142.078 323.3943,-1141.6264"/>
</g>
</g>
</svg>
