<?xml version="1.0" encoding="UTF-8" standalone="no"?>
<!DOCTYPE svg PUBLIC "-//W3C//DTD SVG 1.1//EN"
 "http://www.w3.org/Graphics/SVG/1.1/DTD/svg11.dtd">
<!-- Generated by graphviz version 2.40.1 (20161225.0304)
 -->
<!-- Title: SANSILLMultiProcess Pages: 1 -->
<svg width="169pt" height="260pt"
 viewBox="0.00 0.00 169.00 260.00" xmlns="http://www.w3.org/2000/svg" xmlns:xlink="http://www.w3.org/1999/xlink">
<g id="graph0" class="graph" transform="scale(1 1) rotate(0) translate(4 256)">
<title>SANSILLMultiProcess</title>
<polygon fill="#ffffff" stroke="transparent" points="-4,4 -4,-256 165,-256 165,4 -4,4"/>
<!-- calculate_transmissions -->
<g id="node1" class="node">
<title>calculate_transmissions</title>
<path fill="#87cefa" stroke="#000000" d="M149,-252C149,-252 12,-252 12,-252 6,-252 0,-246 0,-240 0,-240 0,-228 0,-228 0,-222 6,-216 12,-216 12,-216 149,-216 149,-216 155,-216 161,-222 161,-228 161,-228 161,-240 161,-240 161,-246 155,-252 149,-252"/>
<text text-anchor="middle" x="80.5" y="-230.3" font-family="Helvetica,sans-Serif" font-size="14.00" fill="#000000">calculate_transmissions</text>
</g>
<!-- reduce_samples -->
<g id="node2" class="node">
<title>reduce_samples</title>
<path fill="#87cefa" stroke="#000000" d="M126.5,-180C126.5,-180 34.5,-180 34.5,-180 28.5,-180 22.5,-174 22.5,-168 22.5,-168 22.5,-156 22.5,-156 22.5,-150 28.5,-144 34.5,-144 34.5,-144 126.5,-144 126.5,-144 132.5,-144 138.5,-150 138.5,-156 138.5,-156 138.5,-168 138.5,-168 138.5,-174 132.5,-180 126.5,-180"/>
<text text-anchor="middle" x="80.5" y="-158.3" font-family="Helvetica,sans-Serif" font-size="14.00" fill="#000000">reduce_samples</text>
</g>
<!-- calculate_transmissions&#45;&gt;reduce_samples -->
<g id="edge1" class="edge">
<title>calculate_transmissions&#45;&gt;reduce_samples</title>
<path fill="none" stroke="#000000" d="M80.5,-215.8314C80.5,-208.131 80.5,-198.9743 80.5,-190.4166"/>
<polygon fill="#000000" stroke="#000000" points="84.0001,-190.4132 80.5,-180.4133 77.0001,-190.4133 84.0001,-190.4132"/>
</g>
<!-- azimuthal_average -->
<g id="node3" class="node">
<title>azimuthal_average</title>
<path fill="#87cefa" stroke="#000000" d="M134,-108C134,-108 27,-108 27,-108 21,-108 15,-102 15,-96 15,-96 15,-84 15,-84 15,-78 21,-72 27,-72 27,-72 134,-72 134,-72 140,-72 146,-78 146,-84 146,-84 146,-96 146,-96 146,-102 140,-108 134,-108"/>
<text text-anchor="middle" x="80.5" y="-86.3" font-family="Helvetica,sans-Serif" font-size="14.00" fill="#000000">azimuthal_average</text>
</g>
<!-- reduce_samples&#45;&gt;azimuthal_average -->
<g id="edge2" class="edge">
<title>reduce_samples&#45;&gt;azimuthal_average</title>
<path fill="none" stroke="#000000" d="M80.5,-143.8314C80.5,-136.131 80.5,-126.9743 80.5,-118.4166"/>
<polygon fill="#000000" stroke="#000000" points="84.0001,-118.4132 80.5,-108.4133 77.0001,-118.4133 84.0001,-118.4132"/>
</g>
<!-- stitch -->
<g id="node4" class="node">
<title>stitch</title>
<path fill="#87cefa" stroke="#000000" d="M95.5,-36C95.5,-36 65.5,-36 65.5,-36 59.5,-36 53.5,-30 53.5,-24 53.5,-24 53.5,-12 53.5,-12 53.5,-6 59.5,0 65.5,0 65.5,0 95.5,0 95.5,0 101.5,0 107.5,-6 107.5,-12 107.5,-12 107.5,-24 107.5,-24 107.5,-30 101.5,-36 95.5,-36"/>
<text text-anchor="middle" x="80.5" y="-14.3" font-family="Helvetica,sans-Serif" font-size="14.00" fill="#000000">stitch</text>
</g>
<!-- azimuthal_average&#45;&gt;stitch -->
<g id="edge3" class="edge">
<title>azimuthal_average&#45;&gt;stitch</title>
<path fill="none" stroke="#000000" d="M80.5,-71.8314C80.5,-64.131 80.5,-54.9743 80.5,-46.4166"/>
<polygon fill="#000000" stroke="#000000" points="84.0001,-46.4132 80.5,-36.4133 77.0001,-46.4133 84.0001,-46.4132"/>
</g>
</g>
</svg>
