<?xml version="1.0" encoding="UTF-8" standalone="no"?>
<!DOCTYPE svg PUBLIC "-//W3C//DTD SVG 1.1//EN"
 "http://www.w3.org/Graphics/SVG/1.1/DTD/svg11.dtd">
<!-- Generated by graphviz version 2.40.1 (20161225.0304)
 -->
<!-- Title: Sample Pages: 1 -->
<svg width="624pt" height="1167pt"
 viewBox="0.00 0.00 624.18 1167.00" xmlns="http://www.w3.org/2000/svg" xmlns:xlink="http://www.w3.org/1999/xlink">
<g id="graph0" class="graph" transform="scale(1 1) rotate(0) translate(4 1163)">
<title>Sample</title>
<polygon fill="#ffffff" stroke="transparent" points="-4,4 -4,-1163 620.1811,-1163 620.1811,4 -4,4"/>
<!-- NormaliseBy -->
<g id="node1" class="node">
<title>NormaliseBy</title>
<polygon fill="#32cd32" stroke="#000000" points="352.1413,-1013 265.8396,-995 352.1413,-977 438.443,-995 352.1413,-1013"/>
<text text-anchor="middle" x="352.1413" y="-991.3" font-family="Helvetica,sans-Serif" font-size="14.00" fill="#000000">NormaliseBy</text>
</g>
<!-- Divide -->
<g id="node14" class="node">
<title>Divide</title>
<path fill="#87cefa" stroke="#000000" d="M367.1413,-940C367.1413,-940 337.1413,-940 337.1413,-940 331.1413,-940 325.1413,-934 325.1413,-928 325.1413,-928 325.1413,-916 325.1413,-916 325.1413,-910 331.1413,-904 337.1413,-904 337.1413,-904 367.1413,-904 367.1413,-904 373.1413,-904 379.1413,-910 379.1413,-916 379.1413,-916 379.1413,-928 379.1413,-928 379.1413,-934 373.1413,-940 367.1413,-940"/>
<text text-anchor="middle" x="352.1413" y="-918.3" font-family="Helvetica,sans-Serif" font-size="14.00" fill="#000000">Divide</text>
</g>
<!-- NormaliseBy&#45;&gt;Divide -->
<g id="edge3" class="edge">
<title>NormaliseBy&#45;&gt;Divide</title>
<path fill="none" stroke="#000000" d="M352.1413,-976.9551C352.1413,-968.8828 352.1413,-959.1764 352.1413,-950.1817"/>
<polygon fill="#000000" stroke="#000000" points="355.6414,-950.0903 352.1413,-940.0904 348.6414,-950.0904 355.6414,-950.0903"/>
</g>
<!-- AbsoluteScaleBy -->
<g id="node2" class="node">
<title>AbsoluteScaleBy</title>
<polygon fill="#32cd32" stroke="#000000" points="259.1413,-342 149.8817,-324 259.1413,-306 368.4009,-324 259.1413,-342"/>
<text text-anchor="middle" x="259.1413" y="-320.3" font-family="Helvetica,sans-Serif" font-size="14.00" fill="#000000">AbsoluteScaleBy</text>
</g>
<!-- Divide2 -->
<g id="node22" class="node">
<title>Divide2</title>
<path fill="#87cefa" stroke="#000000" d="M168.1413,-255C168.1413,-255 138.1413,-255 138.1413,-255 132.1413,-255 126.1413,-249 126.1413,-243 126.1413,-243 126.1413,-231 126.1413,-231 126.1413,-225 132.1413,-219 138.1413,-219 138.1413,-219 168.1413,-219 168.1413,-219 174.1413,-219 180.1413,-225 180.1413,-231 180.1413,-231 180.1413,-243 180.1413,-243 180.1413,-249 174.1413,-255 168.1413,-255"/>
<text text-anchor="middle" x="153.1413" y="-233.3" font-family="Helvetica,sans-Serif" font-size="14.00" fill="#000000">Divide</text>
</g>
<!-- AbsoluteScaleBy&#45;&gt;Divide2 -->
<g id="edge18" class="edge">
<title>AbsoluteScaleBy&#45;&gt;Divide2</title>
<path fill="none" stroke="#000000" d="M240.6775,-308.8458C224.9375,-295.9271 201.9995,-277.1006 183.5526,-261.9602"/>
<polygon fill="#000000" stroke="#000000" points="185.3854,-258.9366 175.4351,-255.2977 180.9444,-264.3475 185.3854,-258.9366"/>
<text text-anchor="middle" x="245.1413" y="-276.8" font-family="Helvetica,sans-Serif" font-size="14.00" fill="#000000">Beam Flux</text>
</g>
<!-- Divide4 -->
<g id="node24" class="node">
<title>Divide4</title>
<path fill="#87cefa" stroke="#000000" d="M486.1413,-255C486.1413,-255 456.1413,-255 456.1413,-255 450.1413,-255 444.1413,-249 444.1413,-243 444.1413,-243 444.1413,-231 444.1413,-231 444.1413,-225 450.1413,-219 456.1413,-219 456.1413,-219 486.1413,-219 486.1413,-219 492.1413,-219 498.1413,-225 498.1413,-231 498.1413,-231 498.1413,-243 498.1413,-243 498.1413,-249 492.1413,-255 486.1413,-255"/>
<text text-anchor="middle" x="471.1413" y="-233.3" font-family="Helvetica,sans-Serif" font-size="14.00" fill="#000000">Divide</text>
</g>
<!-- AbsoluteScaleBy&#45;&gt;Divide4 -->
<g id="edge23" class="edge">
<title>AbsoluteScaleBy&#45;&gt;Divide4</title>
<path fill="none" stroke="#000000" d="M287.0748,-310.3813C310.1056,-299.4534 343.8012,-284.1499 374.1413,-273 398.0822,-264.2018 407.0713,-265.0618 434.3206,-254.9601"/>
<polygon fill="#000000" stroke="#000000" points="435.7904,-258.1442 443.8515,-251.269 433.2623,-251.6166 435.7904,-258.1442"/>
<text text-anchor="middle" x="427.1413" y="-276.8" font-family="Helvetica,sans-Serif" font-size="14.00" fill="#000000">Standard Sample</text>
</g>
<!-- Run -->
<g id="node3" class="node">
<title>Run</title>
<ellipse fill="#f0e68c" stroke="#000000" cx="352.1413" cy="-1141" rx="27" ry="18"/>
<text text-anchor="middle" x="352.1413" y="-1137.3" font-family="Helvetica,sans-Serif" font-size="14.00" fill="#000000">Run</text>
</g>
<!-- LoadAndMerge -->
<g id="node13" class="node">
<title>LoadAndMerge</title>
<path fill="#87cefa" stroke="#000000" d="M395.1413,-1086C395.1413,-1086 309.1413,-1086 309.1413,-1086 303.1413,-1086 297.1413,-1080 297.1413,-1074 297.1413,-1074 297.1413,-1062 297.1413,-1062 297.1413,-1056 303.1413,-1050 309.1413,-1050 309.1413,-1050 395.1413,-1050 395.1413,-1050 401.1413,-1050 407.1413,-1056 407.1413,-1062 407.1413,-1062 407.1413,-1074 407.1413,-1074 407.1413,-1080 401.1413,-1086 395.1413,-1086"/>
<text text-anchor="middle" x="352.1413" y="-1064.3" font-family="Helvetica,sans-Serif" font-size="14.00" fill="#000000">LoadAndMerge</text>
</g>
<!-- Run&#45;&gt;LoadAndMerge -->
<g id="edge1" class="edge">
<title>Run&#45;&gt;LoadAndMerge</title>
<path fill="none" stroke="#000000" d="M352.1413,-1122.9551C352.1413,-1114.8828 352.1413,-1105.1764 352.1413,-1096.1817"/>
<polygon fill="#000000" stroke="#000000" points="355.6414,-1096.0903 352.1413,-1086.0904 348.6414,-1096.0904 355.6414,-1096.0903"/>
</g>
<!-- BeamInputWorkspace -->
<g id="node4" class="node">
<title>BeamInputWorkspace</title>
<ellipse fill="#f0e68c" stroke="#000000" cx="98.1413" cy="-849" rx="98.2828" ry="18"/>
<text text-anchor="middle" x="98.1413" y="-845.3" font-family="Helvetica,sans-Serif" font-size="14.00" fill="#000000">BeamInputWorkspace</text>
</g>
<!-- MoveInstrumentComponent -->
<g id="node16" class="node">
<title>MoveInstrumentComponent</title>
<path fill="#87cefa" stroke="#000000" d="M322.6413,-794C322.6413,-794 161.6413,-794 161.6413,-794 155.6413,-794 149.6413,-788 149.6413,-782 149.6413,-782 149.6413,-770 149.6413,-770 149.6413,-764 155.6413,-758 161.6413,-758 161.6413,-758 322.6413,-758 322.6413,-758 328.6413,-758 334.6413,-764 334.6413,-770 334.6413,-770 334.6413,-782 334.6413,-782 334.6413,-788 328.6413,-794 322.6413,-794"/>
<text text-anchor="middle" x="242.1413" y="-772.3" font-family="Helvetica,sans-Serif" font-size="14.00" fill="#000000">MoveInstrumentComponent</text>
</g>
<!-- BeamInputWorkspace&#45;&gt;MoveInstrumentComponent -->
<g id="edge7" class="edge">
<title>BeamInputWorkspace&#45;&gt;MoveInstrumentComponent</title>
<path fill="none" stroke="#000000" d="M131.5397,-832.0688C151.0807,-822.1627 176.0076,-809.5261 197.2487,-798.7581"/>
<polygon fill="#000000" stroke="#000000" points="199.0703,-801.7587 206.407,-794.1153 195.9051,-795.5152 199.0703,-801.7587"/>
</g>
<!-- BeamInputWorkspace&#45;&gt;Divide2 -->
<g id="edge19" class="edge">
<title>BeamInputWorkspace&#45;&gt;Divide2</title>
<path fill="none" stroke="#000000" d="M107.6267,-830.9371C114.3351,-816.4825 122.1413,-795.4778 122.1413,-776 122.1413,-776 122.1413,-776 122.1413,-324 122.1413,-303.0902 130.1854,-280.9078 138.0783,-264.1752"/>
<polygon fill="#000000" stroke="#000000" points="141.3208,-265.5155 142.6461,-255.0039 135.0549,-262.3948 141.3208,-265.5155"/>
</g>
<!-- TransmissionInputWorkspace -->
<g id="node5" class="node">
<title>TransmissionInputWorkspace</title>
<ellipse fill="#f0e68c" stroke="#000000" cx="428.1413" cy="-689" rx="127.2775" ry="18"/>
<text text-anchor="middle" x="428.1413" y="-685.3" font-family="Helvetica,sans-Serif" font-size="14.00" fill="#000000">TransmissionInputWorkspace</text>
</g>
<!-- ApplyTransmissionCorrection -->
<g id="node17" class="node">
<title>ApplyTransmissionCorrection</title>
<path fill="#87cefa" stroke="#000000" d="M333.1413,-634C333.1413,-634 163.1413,-634 163.1413,-634 157.1413,-634 151.1413,-628 151.1413,-622 151.1413,-622 151.1413,-610 151.1413,-610 151.1413,-604 157.1413,-598 163.1413,-598 163.1413,-598 333.1413,-598 333.1413,-598 339.1413,-598 345.1413,-604 345.1413,-610 345.1413,-610 345.1413,-622 345.1413,-622 345.1413,-628 339.1413,-634 333.1413,-634"/>
<text text-anchor="middle" x="248.1413" y="-612.3" font-family="Helvetica,sans-Serif" font-size="14.00" fill="#000000">ApplyTransmissionCorrection</text>
</g>
<!-- TransmissionInputWorkspace&#45;&gt;ApplyTransmissionCorrection -->
<g id="edge10" class="edge">
<title>TransmissionInputWorkspace&#45;&gt;ApplyTransmissionCorrection</title>
<path fill="none" stroke="#000000" d="M385.9393,-671.8847C360.8423,-661.7065 328.7596,-648.6952 301.8666,-637.7886"/>
<polygon fill="#000000" stroke="#000000" points="303.1729,-634.5415 292.5906,-634.0266 300.5421,-641.0284 303.1729,-634.5415"/>
</g>
<!-- AbsorberInputWorkspace -->
<g id="node6" class="node">
<title>AbsorberInputWorkspace</title>
<ellipse fill="#f0e68c" stroke="#000000" cx="197.1413" cy="-922" rx="110.4804" ry="18"/>
<text text-anchor="middle" x="197.1413" y="-918.3" font-family="Helvetica,sans-Serif" font-size="14.00" fill="#000000">AbsorberInputWorkspace</text>
</g>
<!-- Minus -->
<g id="node15" class="node">
<title>Minus</title>
<path fill="#87cefa" stroke="#000000" d="M257.1413,-867C257.1413,-867 227.1413,-867 227.1413,-867 221.1413,-867 215.1413,-861 215.1413,-855 215.1413,-855 215.1413,-843 215.1413,-843 215.1413,-837 221.1413,-831 227.1413,-831 227.1413,-831 257.1413,-831 257.1413,-831 263.1413,-831 269.1413,-837 269.1413,-843 269.1413,-843 269.1413,-855 269.1413,-855 269.1413,-861 263.1413,-867 257.1413,-867"/>
<text text-anchor="middle" x="242.1413" y="-845.3" font-family="Helvetica,sans-Serif" font-size="14.00" fill="#000000">Minus</text>
</g>
<!-- AbsorberInputWorkspace&#45;&gt;Minus -->
<g id="edge5" class="edge">
<title>AbsorberInputWorkspace&#45;&gt;Minus</title>
<path fill="none" stroke="#000000" d="M208.2649,-903.9551C213.5113,-895.4441 219.8777,-885.1165 225.6689,-875.7219"/>
<polygon fill="#000000" stroke="#000000" points="228.7216,-877.4396 230.9897,-867.0904 222.7628,-873.7663 228.7216,-877.4396"/>
</g>
<!-- ContainerInputWorkspace -->
<g id="node7" class="node">
<title>ContainerInputWorkspace</title>
<ellipse fill="#f0e68c" stroke="#000000" cx="475.1413" cy="-616" rx="112.3801" ry="18"/>
<text text-anchor="middle" x="475.1413" y="-612.3" font-family="Helvetica,sans-Serif" font-size="14.00" fill="#000000">ContainerInputWorkspace</text>
</g>
<!-- Minus2 -->
<g id="node19" class="node">
<title>Minus2</title>
<path fill="#87cefa" stroke="#000000" d="M266.1413,-561C266.1413,-561 236.1413,-561 236.1413,-561 230.1413,-561 224.1413,-555 224.1413,-549 224.1413,-549 224.1413,-537 224.1413,-537 224.1413,-531 230.1413,-525 236.1413,-525 236.1413,-525 266.1413,-525 266.1413,-525 272.1413,-525 278.1413,-531 278.1413,-537 278.1413,-537 278.1413,-549 278.1413,-549 278.1413,-555 272.1413,-561 266.1413,-561"/>
<text text-anchor="middle" x="251.1413" y="-539.3" font-family="Helvetica,sans-Serif" font-size="14.00" fill="#000000">Minus</text>
</g>
<!-- ContainerInputWorkspace&#45;&gt;Minus2 -->
<g id="edge12" class="edge">
<title>ContainerInputWorkspace&#45;&gt;Minus2</title>
<path fill="none" stroke="#000000" d="M413.2505,-600.8863C378.4495,-591.6998 334.23,-578.8819 287.752,-560.9342"/>
<polygon fill="#000000" stroke="#000000" points="289.0159,-557.6704 278.4284,-557.2758 286.459,-564.1867 289.0159,-557.6704"/>
</g>
<!-- SensitivityInputWorkspace -->
<g id="node8" class="node">
<title>SensitivityInputWorkspace</title>
<ellipse fill="#f0e68c" stroke="#000000" cx="312.1413" cy="-237" rx="114.2798" ry="18"/>
<text text-anchor="middle" x="312.1413" y="-233.3" font-family="Helvetica,sans-Serif" font-size="14.00" fill="#000000">SensitivityInputWorkspace</text>
</g>
<!-- Divide3 -->
<g id="node23" class="node">
<title>Divide3</title>
<path fill="#87cefa" stroke="#000000" d="M327.1413,-182C327.1413,-182 297.1413,-182 297.1413,-182 291.1413,-182 285.1413,-176 285.1413,-170 285.1413,-170 285.1413,-158 285.1413,-158 285.1413,-152 291.1413,-146 297.1413,-146 297.1413,-146 327.1413,-146 327.1413,-146 333.1413,-146 339.1413,-152 339.1413,-158 339.1413,-158 339.1413,-170 339.1413,-170 339.1413,-176 333.1413,-182 327.1413,-182"/>
<text text-anchor="middle" x="312.1413" y="-160.3" font-family="Helvetica,sans-Serif" font-size="14.00" fill="#000000">Divide</text>
</g>
<!-- SensitivityInputWorkspace&#45;&gt;Divide3 -->
<g id="edge21" class="edge">
<title>SensitivityInputWorkspace&#45;&gt;Divide3</title>
<path fill="none" stroke="#000000" d="M312.1413,-218.9551C312.1413,-210.8828 312.1413,-201.1764 312.1413,-192.1817"/>
<polygon fill="#000000" stroke="#000000" points="315.6414,-192.0903 312.1413,-182.0904 308.6414,-192.0904 315.6414,-192.0903"/>
</g>
<!-- ReferenceInputWorkspace -->
<g id="node9" class="node">
<title>ReferenceInputWorkspace</title>
<ellipse fill="#f0e68c" stroke="#000000" cx="501.1413" cy="-324" rx="115.0796" ry="18"/>
<text text-anchor="middle" x="501.1413" y="-320.3" font-family="Helvetica,sans-Serif" font-size="14.00" fill="#000000">ReferenceInputWorkspace</text>
</g>
<!-- ReferenceInputWorkspace&#45;&gt;Divide4 -->
<g id="edge24" class="edge">
<title>ReferenceInputWorkspace&#45;&gt;Divide4</title>
<path fill="none" stroke="#000000" d="M494.9253,-305.9735C490.8224,-294.0751 485.3657,-278.2508 480.7139,-264.7606"/>
<polygon fill="#000000" stroke="#000000" points="483.9181,-263.3161 477.3493,-255.0034 477.3005,-265.5981 483.9181,-263.3161"/>
</g>
<!-- MaskedInputWorkspace -->
<g id="node10" class="node">
<title>MaskedInputWorkspace</title>
<ellipse fill="#f0e68c" stroke="#000000" cx="402.1413" cy="-543" rx="105.8812" ry="18"/>
<text text-anchor="middle" x="402.1413" y="-539.3" font-family="Helvetica,sans-Serif" font-size="14.00" fill="#000000">MaskedInputWorkspace</text>
</g>
<!-- MaskDetectors -->
<g id="node20" class="node">
<title>MaskDetectors</title>
<path fill="#87cefa" stroke="#000000" d="M293.6413,-488C293.6413,-488 210.6413,-488 210.6413,-488 204.6413,-488 198.6413,-482 198.6413,-476 198.6413,-476 198.6413,-464 198.6413,-464 198.6413,-458 204.6413,-452 210.6413,-452 210.6413,-452 293.6413,-452 293.6413,-452 299.6413,-452 305.6413,-458 305.6413,-464 305.6413,-464 305.6413,-476 305.6413,-476 305.6413,-482 299.6413,-488 293.6413,-488"/>
<text text-anchor="middle" x="252.1413" y="-466.3" font-family="Helvetica,sans-Serif" font-size="14.00" fill="#000000">MaskDetectors</text>
</g>
<!-- MaskedInputWorkspace&#45;&gt;MaskDetectors -->
<g id="edge14" class="edge">
<title>MaskedInputWorkspace&#45;&gt;MaskDetectors</title>
<path fill="none" stroke="#000000" d="M366.973,-525.8847C346.5154,-515.9287 320.4879,-503.262 298.3864,-492.5059"/>
<polygon fill="#000000" stroke="#000000" points="299.7057,-489.2556 289.1823,-488.0266 296.6425,-495.5498 299.7057,-489.2556"/>
</g>
<!-- SampleThickness -->
<g id="node11" class="node">
<title>SampleThickness</title>
<ellipse fill="#f0e68c" stroke="#000000" cx="404.1413" cy="-470" rx="80.6858" ry="18"/>
<text text-anchor="middle" x="404.1413" y="-466.3" font-family="Helvetica,sans-Serif" font-size="14.00" fill="#000000">SampleThickness</text>
</g>
<!-- NormaliseByThickness -->
<g id="node21" class="node">
<title>NormaliseByThickness</title>
<path fill="#87cefa" stroke="#000000" d="M324.6413,-415C324.6413,-415 193.6413,-415 193.6413,-415 187.6413,-415 181.6413,-409 181.6413,-403 181.6413,-403 181.6413,-391 181.6413,-391 181.6413,-385 187.6413,-379 193.6413,-379 193.6413,-379 324.6413,-379 324.6413,-379 330.6413,-379 336.6413,-385 336.6413,-391 336.6413,-391 336.6413,-403 336.6413,-403 336.6413,-409 330.6413,-415 324.6413,-415"/>
<text text-anchor="middle" x="259.1413" y="-393.3" font-family="Helvetica,sans-Serif" font-size="14.00" fill="#000000">NormaliseByThickness</text>
</g>
<!-- SampleThickness&#45;&gt;NormaliseByThickness -->
<g id="edge16" class="edge">
<title>SampleThickness&#45;&gt;NormaliseByThickness</title>
<path fill="none" stroke="#000000" d="M371.2385,-453.4352C351.352,-443.4233 325.7318,-430.5249 304.0055,-419.5868"/>
<polygon fill="#000000" stroke="#000000" points="305.4665,-416.4039 294.9607,-415.0332 302.3188,-422.6562 305.4665,-416.4039"/>
</g>
<!-- OutputWorkspace -->
<g id="node12" class="node">
<title>OutputWorkspace</title>
<polygon fill="#c0c0c0" stroke="#000000" points="501.7232,-36 325.8121,-36 280.5594,0 456.4705,0 501.7232,-36"/>
<text text-anchor="middle" x="391.1413" y="-14.3" font-family="Times,serif" font-size="14.00" fill="#000000">OutputWorkspace</text>
</g>
<!-- LoadAndMerge&#45;&gt;NormaliseBy -->
<g id="edge2" class="edge">
<title>LoadAndMerge&#45;&gt;NormaliseBy</title>
<path fill="none" stroke="#000000" d="M352.1413,-1049.9551C352.1413,-1041.8828 352.1413,-1032.1764 352.1413,-1023.1817"/>
<polygon fill="#000000" stroke="#000000" points="355.6414,-1023.0903 352.1413,-1013.0904 348.6414,-1023.0904 355.6414,-1023.0903"/>
</g>
<!-- Divide&#45;&gt;Minus -->
<g id="edge4" class="edge">
<title>Divide&#45;&gt;Minus</title>
<path fill="none" stroke="#000000" d="M324.9503,-903.9551C310.8035,-894.5667 293.3256,-882.9678 278.0783,-872.8491"/>
<polygon fill="#000000" stroke="#000000" points="279.6682,-869.7037 269.4007,-867.0904 275.7975,-875.5362 279.6682,-869.7037"/>
</g>
<!-- Minus&#45;&gt;MoveInstrumentComponent -->
<g id="edge6" class="edge">
<title>Minus&#45;&gt;MoveInstrumentComponent</title>
<path fill="none" stroke="#000000" d="M242.1413,-830.9551C242.1413,-822.8828 242.1413,-813.1764 242.1413,-804.1817"/>
<polygon fill="#000000" stroke="#000000" points="245.6414,-804.0903 242.1413,-794.0904 238.6414,-804.0904 245.6414,-804.0903"/>
</g>
<!-- SolidAngle -->
<g id="node18" class="node">
<title>SolidAngle</title>
<path fill="#87cefa" stroke="#000000" d="M270.6413,-707C270.6413,-707 213.6413,-707 213.6413,-707 207.6413,-707 201.6413,-701 201.6413,-695 201.6413,-695 201.6413,-683 201.6413,-683 201.6413,-677 207.6413,-671 213.6413,-671 213.6413,-671 270.6413,-671 270.6413,-671 276.6413,-671 282.6413,-677 282.6413,-683 282.6413,-683 282.6413,-695 282.6413,-695 282.6413,-701 276.6413,-707 270.6413,-707"/>
<text text-anchor="middle" x="242.1413" y="-685.3" font-family="Helvetica,sans-Serif" font-size="14.00" fill="#000000">SolidAngle</text>
</g>
<!-- MoveInstrumentComponent&#45;&gt;SolidAngle -->
<g id="edge8" class="edge">
<title>MoveInstrumentComponent&#45;&gt;SolidAngle</title>
<path fill="none" stroke="#000000" d="M242.1413,-757.9735C242.1413,-746.1918 242.1413,-730.5607 242.1413,-717.1581"/>
<polygon fill="#000000" stroke="#000000" points="245.6414,-717.0033 242.1413,-707.0034 238.6414,-717.0034 245.6414,-717.0033"/>
<text text-anchor="middle" x="261.1413" y="-728.8" font-family="Helvetica,sans-Serif" font-size="14.00" fill="#000000">Divide</text>
</g>
<!-- ApplyTransmissionCorrection&#45;&gt;Minus2 -->
<g id="edge11" class="edge">
<title>ApplyTransmissionCorrection&#45;&gt;Minus2</title>
<path fill="none" stroke="#000000" d="M248.8829,-597.9551C249.2146,-589.8828 249.6135,-580.1764 249.9831,-571.1817"/>
<polygon fill="#000000" stroke="#000000" points="253.4842,-571.2257 250.3979,-561.0904 246.4901,-570.9382 253.4842,-571.2257"/>
</g>
<!-- SolidAngle&#45;&gt;ApplyTransmissionCorrection -->
<g id="edge9" class="edge">
<title>SolidAngle&#45;&gt;ApplyTransmissionCorrection</title>
<path fill="none" stroke="#000000" d="M243.6244,-670.9551C244.2879,-662.8828 245.0857,-653.1764 245.825,-644.1817"/>
<polygon fill="#000000" stroke="#000000" points="249.3234,-644.3435 246.6544,-634.0904 242.3469,-643.77 249.3234,-644.3435"/>
</g>
<!-- Minus2&#45;&gt;MaskDetectors -->
<g id="edge13" class="edge">
<title>Minus2&#45;&gt;MaskDetectors</title>
<path fill="none" stroke="#000000" d="M251.3885,-524.9551C251.4991,-516.8828 251.632,-507.1764 251.7552,-498.1817"/>
<polygon fill="#000000" stroke="#000000" points="255.2561,-498.1374 251.8935,-488.0904 248.2567,-498.0414 255.2561,-498.1374"/>
</g>
<!-- MaskDetectors&#45;&gt;NormaliseByThickness -->
<g id="edge15" class="edge">
<title>MaskDetectors&#45;&gt;NormaliseByThickness</title>
<path fill="none" stroke="#000000" d="M253.8716,-451.9551C254.6457,-443.8828 255.5764,-434.1764 256.4389,-425.1817"/>
<polygon fill="#000000" stroke="#000000" points="259.936,-425.3788 257.4066,-415.0904 252.968,-424.7106 259.936,-425.3788"/>
</g>
<!-- NormaliseByThickness&#45;&gt;AbsoluteScaleBy -->
<g id="edge17" class="edge">
<title>NormaliseByThickness&#45;&gt;AbsoluteScaleBy</title>
<path fill="none" stroke="#000000" d="M259.1413,-378.9551C259.1413,-370.8828 259.1413,-361.1764 259.1413,-352.1817"/>
<polygon fill="#000000" stroke="#000000" points="262.6414,-352.0903 259.1413,-342.0904 255.6414,-352.0904 262.6414,-352.0903"/>
</g>
<!-- Divide2&#45;&gt;Divide3 -->
<g id="edge20" class="edge">
<title>Divide2&#45;&gt;Divide3</title>
<path fill="none" stroke="#000000" d="M180.2068,-223.3107C183.2123,-221.8372 186.2359,-220.3751 189.1413,-219 218.0727,-205.3066 251.2175,-190.538 275.8055,-179.7559"/>
<polygon fill="#000000" stroke="#000000" points="277.3552,-182.8983 285.115,-175.6847 274.5504,-176.4848 277.3552,-182.8983"/>
</g>
<!-- ScaleByFluxFactor -->
<g id="node25" class="node">
<title>ScaleByFluxFactor</title>
<polygon fill="#20b2aa" stroke="#000000" points="456.1413,-109 326.1413,-109 326.1413,-73 456.1413,-73 456.1413,-109"/>
<text text-anchor="middle" x="391.1413" y="-87.3" font-family="Helvetica,sans-Serif" font-size="14.00" fill="#000000">ScaleByFluxFactor</text>
</g>
<!-- Divide3&#45;&gt;ScaleByFluxFactor -->
<g id="edge22" class="edge">
<title>Divide3&#45;&gt;ScaleByFluxFactor</title>
<path fill="none" stroke="#000000" d="M331.6694,-145.9551C341.4496,-136.9177 353.4465,-125.8319 364.0974,-115.9899"/>
<polygon fill="#000000" stroke="#000000" points="366.5949,-118.4476 371.5641,-109.0904 361.8442,-113.3065 366.5949,-118.4476"/>
</g>
<!-- Divide4&#45;&gt;ScaleByFluxFactor -->
<g id="edge25" class="edge">
<title>Divide4&#45;&gt;ScaleByFluxFactor</title>
<path fill="none" stroke="#000000" d="M461.171,-218.8042C447.338,-193.5589 422.2132,-147.7063 406.1194,-118.3351"/>
<polygon fill="#000000" stroke="#000000" points="409.1121,-116.513 401.2372,-109.4251 402.9732,-119.8768 409.1121,-116.513"/>
</g>
<!-- ScaleByFluxFactor&#45;&gt;OutputWorkspace -->
<g id="edge26" class="edge">
<title>ScaleByFluxFactor&#45;&gt;OutputWorkspace</title>
<path fill="none" stroke="#000000" d="M391.1413,-72.9551C391.1413,-64.8828 391.1413,-55.1764 391.1413,-46.1817"/>
<polygon fill="#000000" stroke="#000000" points="394.6414,-46.0903 391.1413,-36.0904 387.6414,-46.0904 394.6414,-46.0903"/>
</g>
</g>
</svg>
