<?xml version="1.0" encoding="UTF-8" standalone="no"?>
<!DOCTYPE svg PUBLIC "-//W3C//DTD SVG 1.1//EN"
 "http://www.w3.org/Graphics/SVG/1.1/DTD/svg11.dtd">
<!-- Generated by graphviz version 2.40.1 (20161225.0304)
 -->
<!-- Title: Reference Pages: 1 -->
<svg width="1011pt" height="1122pt"
 viewBox="0.00 0.00 1011.26 1122.00" xmlns="http://www.w3.org/2000/svg" xmlns:xlink="http://www.w3.org/1999/xlink">
<g id="graph0" class="graph" transform="scale(1 1) rotate(0) translate(4 1118)">
<title>Reference</title>
<polygon fill="#ffffff" stroke="transparent" points="-4,4 -4,-1118 1007.2593,-1118 1007.2593,4 -4,4"/>
<!-- NormaliseBy -->
<g id="node1" class="node">
<title>NormaliseBy</title>
<polygon fill="#32cd32" stroke="#000000" points="86.4008,-1041 .0991,-1023 86.4008,-1005 172.7025,-1023 86.4008,-1041"/>
<text text-anchor="middle" x="86.4008" y="-1019.3" font-family="Helvetica,sans-Serif" font-size="14.00" fill="#000000">NormaliseBy</text>
</g>
<!-- Divide -->
<g id="node15" class="node">
<title>Divide</title>
<path fill="#87cefa" stroke="#000000" d="M113.4008,-968C113.4008,-968 83.4008,-968 83.4008,-968 77.4008,-968 71.4008,-962 71.4008,-956 71.4008,-956 71.4008,-944 71.4008,-944 71.4008,-938 77.4008,-932 83.4008,-932 83.4008,-932 113.4008,-932 113.4008,-932 119.4008,-932 125.4008,-938 125.4008,-944 125.4008,-944 125.4008,-956 125.4008,-956 125.4008,-962 119.4008,-968 113.4008,-968"/>
<text text-anchor="middle" x="98.4008" y="-946.3" font-family="Helvetica,sans-Serif" font-size="14.00" fill="#000000">Divide</text>
</g>
<!-- NormaliseBy&#45;&gt;Divide -->
<g id="edge3" class="edge">
<title>NormaliseBy&#45;&gt;Divide</title>
<path fill="none" stroke="#000000" d="M89.3056,-1005.3287C90.6563,-997.1123 92.2951,-987.1429 93.8075,-977.9424"/>
<polygon fill="#000000" stroke="#000000" points="97.2708,-978.451 95.4393,-968.0157 90.3635,-977.3155 97.2708,-978.451"/>
</g>
<!-- Runs -->
<g id="node2" class="node">
<title>Runs</title>
<ellipse fill="#f0e68c" stroke="#000000" cx="245.4008" cy="-1096" rx="31.3957" ry="18"/>
<text text-anchor="middle" x="245.4008" y="-1092.3" font-family="Helvetica,sans-Serif" font-size="14.00" fill="#000000">Runs</text>
</g>
<!-- LoadAndMerge -->
<g id="node14" class="node">
<title>LoadAndMerge</title>
<path fill="#87cefa" stroke="#000000" d="M288.4008,-1041C288.4008,-1041 202.4008,-1041 202.4008,-1041 196.4008,-1041 190.4008,-1035 190.4008,-1029 190.4008,-1029 190.4008,-1017 190.4008,-1017 190.4008,-1011 196.4008,-1005 202.4008,-1005 202.4008,-1005 288.4008,-1005 288.4008,-1005 294.4008,-1005 300.4008,-1011 300.4008,-1017 300.4008,-1017 300.4008,-1029 300.4008,-1029 300.4008,-1035 294.4008,-1041 288.4008,-1041"/>
<text text-anchor="middle" x="245.4008" y="-1019.3" font-family="Helvetica,sans-Serif" font-size="14.00" fill="#000000">LoadAndMerge</text>
</g>
<!-- Runs&#45;&gt;LoadAndMerge -->
<g id="edge1" class="edge">
<title>Runs&#45;&gt;LoadAndMerge</title>
<path fill="none" stroke="#000000" d="M245.4008,-1077.9551C245.4008,-1069.8828 245.4008,-1060.1764 245.4008,-1051.1817"/>
<polygon fill="#000000" stroke="#000000" points="248.9009,-1051.0903 245.4008,-1041.0904 241.9009,-1051.0904 248.9009,-1051.0903"/>
</g>
<!-- BeamCenter -->
<g id="node3" class="node">
<title>BeamCenter</title>
<ellipse fill="#f0e68c" stroke="#000000" cx="446.4008" cy="-877" rx="60.3893" ry="18"/>
<text text-anchor="middle" x="446.4008" y="-873.3" font-family="Helvetica,sans-Serif" font-size="14.00" fill="#000000">BeamCenter</text>
</g>
<!-- MoveInstrumentComponent -->
<g id="node17" class="node">
<title>MoveInstrumentComponent</title>
<path fill="#87cefa" stroke="#000000" d="M438.9008,-822C438.9008,-822 277.9008,-822 277.9008,-822 271.9008,-822 265.9008,-816 265.9008,-810 265.9008,-810 265.9008,-798 265.9008,-798 265.9008,-792 271.9008,-786 277.9008,-786 277.9008,-786 438.9008,-786 438.9008,-786 444.9008,-786 450.9008,-792 450.9008,-798 450.9008,-798 450.9008,-810 450.9008,-810 450.9008,-816 444.9008,-822 438.9008,-822"/>
<text text-anchor="middle" x="358.4008" y="-800.3" font-family="Helvetica,sans-Serif" font-size="14.00" fill="#000000">MoveInstrumentComponent</text>
</g>
<!-- BeamCenter&#45;&gt;MoveInstrumentComponent -->
<g id="edge8" class="edge">
<title>BeamCenter&#45;&gt;MoveInstrumentComponent</title>
<path fill="none" stroke="#000000" d="M425.546,-859.7C414.3723,-850.4309 400.4146,-838.8524 388.1239,-828.6567"/>
<polygon fill="#000000" stroke="#000000" points="390.2651,-825.8854 380.3339,-822.1945 385.7958,-831.2729 390.2651,-825.8854"/>
</g>
<!-- DarkCurrentWorkspace -->
<g id="node4" class="node">
<title>DarkCurrentWorkspace</title>
<ellipse fill="#f0e68c" stroke="#000000" cx="246.4008" cy="-950" rx="102.8821" ry="18"/>
<text text-anchor="middle" x="246.4008" y="-946.3" font-family="Helvetica,sans-Serif" font-size="14.00" fill="#000000">DarkCurrentWorkspace</text>
</g>
<!-- Minus -->
<g id="node16" class="node">
<title>Minus</title>
<path fill="#87cefa" stroke="#000000" d="M261.4008,-895C261.4008,-895 231.4008,-895 231.4008,-895 225.4008,-895 219.4008,-889 219.4008,-883 219.4008,-883 219.4008,-871 219.4008,-871 219.4008,-865 225.4008,-859 231.4008,-859 231.4008,-859 261.4008,-859 261.4008,-859 267.4008,-859 273.4008,-865 273.4008,-871 273.4008,-871 273.4008,-883 273.4008,-883 273.4008,-889 267.4008,-895 261.4008,-895"/>
<text text-anchor="middle" x="246.4008" y="-873.3" font-family="Helvetica,sans-Serif" font-size="14.00" fill="#000000">Minus</text>
</g>
<!-- DarkCurrentWorkspace&#45;&gt;Minus -->
<g id="edge5" class="edge">
<title>DarkCurrentWorkspace&#45;&gt;Minus</title>
<path fill="none" stroke="#000000" d="M246.4008,-931.9551C246.4008,-923.8828 246.4008,-914.1764 246.4008,-905.1817"/>
<polygon fill="#000000" stroke="#000000" points="249.9009,-905.0903 246.4008,-895.0904 242.9009,-905.0904 249.9009,-905.0903"/>
</g>
<!-- EmptyBeamWorkspace -->
<g id="node5" class="node">
<title>EmptyBeamWorkspace</title>
<ellipse fill="#f0e68c" stroke="#000000" cx="471.4008" cy="-950" rx="103.9815" ry="18"/>
<text text-anchor="middle" x="471.4008" y="-946.3" font-family="Helvetica,sans-Serif" font-size="14.00" fill="#000000">EmptyBeamWorkspace</text>
</g>
<!-- EmptyBeamWorkspace&#45;&gt;BeamCenter -->
<g id="edge7" class="edge">
<title>EmptyBeamWorkspace&#45;&gt;BeamCenter</title>
<path fill="none" stroke="#000000" d="M465.221,-931.9551C462.3965,-923.7074 458.9876,-913.7536 455.8515,-904.5962"/>
<polygon fill="#000000" stroke="#000000" points="459.1473,-903.417 452.5961,-895.0904 452.5249,-905.685 459.1473,-903.417"/>
</g>
<!-- FluxWorkspace -->
<g id="node6" class="node">
<title>FluxWorkspace</title>
<ellipse fill="#f0e68c" stroke="#000000" cx="896.4008" cy="-324" rx="71.4873" ry="18"/>
<text text-anchor="middle" x="896.4008" y="-320.3" font-family="Helvetica,sans-Serif" font-size="14.00" fill="#000000">FluxWorkspace</text>
</g>
<!-- Divide4 -->
<g id="node25" class="node">
<title>Divide4</title>
<path fill="#87cefa" stroke="#000000" d="M853.4008,-255C853.4008,-255 823.4008,-255 823.4008,-255 817.4008,-255 811.4008,-249 811.4008,-243 811.4008,-243 811.4008,-231 811.4008,-231 811.4008,-225 817.4008,-219 823.4008,-219 823.4008,-219 853.4008,-219 853.4008,-219 859.4008,-219 865.4008,-225 865.4008,-231 865.4008,-231 865.4008,-243 865.4008,-243 865.4008,-249 859.4008,-255 853.4008,-255"/>
<text text-anchor="middle" x="838.4008" y="-233.3" font-family="Helvetica,sans-Serif" font-size="14.00" fill="#000000">Divide</text>
</g>
<!-- FluxWorkspace&#45;&gt;Divide4 -->
<g id="edge21" class="edge">
<title>FluxWorkspace&#45;&gt;Divide4</title>
<path fill="none" stroke="#000000" d="M884.3831,-305.9735C876.2176,-293.7252 865.2785,-277.3165 856.1185,-263.5766"/>
<polygon fill="#000000" stroke="#000000" points="858.8623,-261.3824 850.403,-255.0034 853.0379,-265.2653 858.8623,-261.3824"/>
</g>
<!-- TransmissionWorkspace -->
<g id="node7" class="node">
<title>TransmissionWorkspace</title>
<ellipse fill="#f0e68c" stroke="#000000" cx="576.4008" cy="-804" rx="107.781" ry="18"/>
<text text-anchor="middle" x="576.4008" y="-800.3" font-family="Helvetica,sans-Serif" font-size="14.00" fill="#000000">TransmissionWorkspace</text>
</g>
<!-- ApplyTransmissionCorrection -->
<g id="node18" class="node">
<title>ApplyTransmissionCorrection</title>
<path fill="#87cefa" stroke="#000000" d="M552.4008,-749C552.4008,-749 382.4008,-749 382.4008,-749 376.4008,-749 370.4008,-743 370.4008,-737 370.4008,-737 370.4008,-725 370.4008,-725 370.4008,-719 376.4008,-713 382.4008,-713 382.4008,-713 552.4008,-713 552.4008,-713 558.4008,-713 564.4008,-719 564.4008,-725 564.4008,-725 564.4008,-737 564.4008,-737 564.4008,-743 558.4008,-749 552.4008,-749"/>
<text text-anchor="middle" x="467.4008" y="-727.3" font-family="Helvetica,sans-Serif" font-size="14.00" fill="#000000">ApplyTransmissionCorrection</text>
</g>
<!-- TransmissionWorkspace&#45;&gt;ApplyTransmissionCorrection -->
<g id="edge10" class="edge">
<title>TransmissionWorkspace&#45;&gt;ApplyTransmissionCorrection</title>
<path fill="none" stroke="#000000" d="M550.2926,-786.5147C536.0508,-776.9766 518.2203,-765.0351 502.749,-754.6736"/>
<polygon fill="#000000" stroke="#000000" points="504.6907,-751.7616 494.4343,-749.105 500.7955,-757.5777 504.6907,-751.7616"/>
</g>
<!-- EmptyContainerWorkspace -->
<g id="node8" class="node">
<title>EmptyContainerWorkspace</title>
<ellipse fill="#f0e68c" stroke="#000000" cx="630.4008" cy="-644" rx="118.0794" ry="18"/>
<text text-anchor="middle" x="630.4008" y="-640.3" font-family="Helvetica,sans-Serif" font-size="14.00" fill="#000000">EmptyContainerWorkspace</text>
</g>
<!-- Minus2 -->
<g id="node20" class="node">
<title>Minus2</title>
<path fill="#87cefa" stroke="#000000" d="M563.4008,-589C563.4008,-589 533.4008,-589 533.4008,-589 527.4008,-589 521.4008,-583 521.4008,-577 521.4008,-577 521.4008,-565 521.4008,-565 521.4008,-559 527.4008,-553 533.4008,-553 533.4008,-553 563.4008,-553 563.4008,-553 569.4008,-553 575.4008,-559 575.4008,-565 575.4008,-565 575.4008,-577 575.4008,-577 575.4008,-583 569.4008,-589 563.4008,-589"/>
<text text-anchor="middle" x="548.4008" y="-567.3" font-family="Helvetica,sans-Serif" font-size="14.00" fill="#000000">Minus</text>
</g>
<!-- EmptyContainerWorkspace&#45;&gt;Minus2 -->
<g id="edge13" class="edge">
<title>EmptyContainerWorkspace&#45;&gt;Minus2</title>
<path fill="none" stroke="#000000" d="M610.1311,-625.9551C599.9795,-616.9177 587.527,-605.8319 576.4717,-595.9899"/>
<polygon fill="#000000" stroke="#000000" points="578.5178,-593.1255 568.7215,-589.0904 573.8633,-598.3539 578.5178,-593.1255"/>
</g>
<!-- DefaultMaskWorkspace -->
<g id="node9" class="node">
<title>DefaultMaskWorkspace</title>
<ellipse fill="#f0e68c" stroke="#000000" cx="698.4008" cy="-571" rx="104.7816" ry="18"/>
<text text-anchor="middle" x="698.4008" y="-567.3" font-family="Helvetica,sans-Serif" font-size="14.00" fill="#000000">DefaultMaskWorkspace</text>
</g>
<!-- MaskDetectors -->
<g id="node22" class="node">
<title>MaskDetectors</title>
<path fill="#87cefa" stroke="#000000" d="M739.9008,-502C739.9008,-502 656.9008,-502 656.9008,-502 650.9008,-502 644.9008,-496 644.9008,-490 644.9008,-490 644.9008,-478 644.9008,-478 644.9008,-472 650.9008,-466 656.9008,-466 656.9008,-466 739.9008,-466 739.9008,-466 745.9008,-466 751.9008,-472 751.9008,-478 751.9008,-478 751.9008,-490 751.9008,-490 751.9008,-496 745.9008,-502 739.9008,-502"/>
<text text-anchor="middle" x="698.4008" y="-480.3" font-family="Helvetica,sans-Serif" font-size="14.00" fill="#000000">MaskDetectors</text>
</g>
<!-- DefaultMaskWorkspace&#45;&gt;MaskDetectors -->
<g id="edge15" class="edge">
<title>DefaultMaskWorkspace&#45;&gt;MaskDetectors</title>
<path fill="none" stroke="#000000" d="M698.4008,-552.9735C698.4008,-541.1918 698.4008,-525.5607 698.4008,-512.1581"/>
<polygon fill="#000000" stroke="#000000" points="701.9009,-512.0033 698.4008,-502.0034 694.9009,-512.0034 701.9009,-512.0033"/>
<text text-anchor="middle" x="717.9008" y="-523.8" font-family="Helvetica,sans-Serif" font-size="14.00" fill="#000000">Edges</text>
</g>
<!-- MaskWorkspace -->
<g id="node10" class="node">
<title>MaskWorkspace</title>
<ellipse fill="#f0e68c" stroke="#000000" cx="897.4008" cy="-571" rx="76.8869" ry="18"/>
<text text-anchor="middle" x="897.4008" y="-567.3" font-family="Helvetica,sans-Serif" font-size="14.00" fill="#000000">MaskWorkspace</text>
</g>
<!-- MaskWorkspace&#45;&gt;MaskDetectors -->
<g id="edge16" class="edge">
<title>MaskWorkspace&#45;&gt;MaskDetectors</title>
<path fill="none" stroke="#000000" d="M860.9011,-555.0429C829.6192,-541.3669 784.2241,-521.5207 749.36,-506.2787"/>
<polygon fill="#000000" stroke="#000000" points="750.391,-502.9096 739.8263,-502.1107 747.5869,-509.3234 750.391,-502.9096"/>
<text text-anchor="middle" x="841.4008" y="-523.8" font-family="Helvetica,sans-Serif" font-size="14.00" fill="#000000">BeamStop</text>
</g>
<!-- SampleThickness -->
<g id="node11" class="node">
<title>SampleThickness</title>
<ellipse fill="#f0e68c" stroke="#000000" cx="861.4008" cy="-411" rx="80.6858" ry="18"/>
<text text-anchor="middle" x="861.4008" y="-407.3" font-family="Helvetica,sans-Serif" font-size="14.00" fill="#000000">SampleThickness</text>
</g>
<!-- Divide3 -->
<g id="node24" class="node">
<title>Divide3</title>
<path fill="#87cefa" stroke="#000000" d="M795.4008,-342C795.4008,-342 765.4008,-342 765.4008,-342 759.4008,-342 753.4008,-336 753.4008,-330 753.4008,-330 753.4008,-318 753.4008,-318 753.4008,-312 759.4008,-306 765.4008,-306 765.4008,-306 795.4008,-306 795.4008,-306 801.4008,-306 807.4008,-312 807.4008,-318 807.4008,-318 807.4008,-330 807.4008,-330 807.4008,-336 801.4008,-342 795.4008,-342"/>
<text text-anchor="middle" x="780.4008" y="-320.3" font-family="Helvetica,sans-Serif" font-size="14.00" fill="#000000">Divide</text>
</g>
<!-- SampleThickness&#45;&gt;Divide3 -->
<g id="edge19" class="edge">
<title>SampleThickness&#45;&gt;Divide3</title>
<path fill="none" stroke="#000000" d="M844.6175,-392.9735C832.8881,-380.3752 817.0607,-363.3755 804.0542,-349.4055"/>
<polygon fill="#000000" stroke="#000000" points="806.5384,-346.9374 797.1625,-342.0034 801.4151,-351.7073 806.5384,-346.9374"/>
</g>
<!-- OutputWorkspace -->
<g id="node12" class="node">
<title>OutputWorkspace</title>
<polygon fill="#c0c0c0" stroke="#000000" points="948.9827,-182 773.0716,-182 727.8189,-146 903.7299,-146 948.9827,-182"/>
<text text-anchor="middle" x="838.4008" y="-160.3" font-family="Times,serif" font-size="14.00" fill="#000000">OutputWorkspace</text>
</g>
<!-- CalculateEfficiency -->
<g id="node21" class="node">
<title>CalculateEfficiency</title>
<path fill="#87cefa" stroke="#000000" d="M891.9008,-109C891.9008,-109 784.9008,-109 784.9008,-109 778.9008,-109 772.9008,-103 772.9008,-97 772.9008,-97 772.9008,-85 772.9008,-85 772.9008,-79 778.9008,-73 784.9008,-73 784.9008,-73 891.9008,-73 891.9008,-73 897.9008,-73 903.9008,-79 903.9008,-85 903.9008,-85 903.9008,-97 903.9008,-97 903.9008,-103 897.9008,-109 891.9008,-109"/>
<text text-anchor="middle" x="838.4008" y="-87.3" font-family="Helvetica,sans-Serif" font-size="14.00" fill="#000000">CalculateEfficiency</text>
</g>
<!-- OutputWorkspace&#45;&gt;CalculateEfficiency -->
<g id="edge23" class="edge">
<title>OutputWorkspace&#45;&gt;CalculateEfficiency</title>
<path fill="none" stroke="#000000" d="M838.4008,-145.9551C838.4008,-137.8828 838.4008,-128.1764 838.4008,-119.1817"/>
<polygon fill="#000000" stroke="#000000" points="841.9009,-119.0903 838.4008,-109.0904 834.9009,-119.0904 841.9009,-119.0903"/>
</g>
<!-- OutputSensitivityWorkspace -->
<g id="node13" class="node">
<title>OutputSensitivityWorkspace</title>
<polygon fill="#c0c0c0" stroke="#000000" points="1003.1179,-36 741.0899,-36 673.6837,0 935.7117,0 1003.1179,-36"/>
<text text-anchor="middle" x="838.4008" y="-14.3" font-family="Times,serif" font-size="14.00" fill="#000000">OutputSensitivityWorkspace</text>
</g>
<!-- LoadAndMerge&#45;&gt;Divide -->
<g id="edge2" class="edge">
<title>LoadAndMerge&#45;&gt;Divide</title>
<path fill="none" stroke="#000000" d="M208.8891,-1004.9499C189.2597,-995.2365 164.4306,-982.9353 134.8534,-968.2185"/>
<polygon fill="#000000" stroke="#000000" points="136.0343,-964.8967 125.5223,-963.5739 132.915,-971.1633 136.0343,-964.8967"/>
</g>
<!-- Divide&#45;&gt;Minus -->
<g id="edge4" class="edge">
<title>Divide&#45;&gt;Minus</title>
<path fill="none" stroke="#000000" d="M125.5172,-936.4158C128.5132,-934.9227 131.5206,-933.4272 134.4008,-932 159.5937,-919.5162 188.0307,-905.5532 209.9464,-894.8198"/>
<polygon fill="#000000" stroke="#000000" points="211.773,-897.8226 219.2157,-890.2823 208.6953,-891.5355 211.773,-897.8226"/>
</g>
<!-- Minus&#45;&gt;MoveInstrumentComponent -->
<g id="edge6" class="edge">
<title>Minus&#45;&gt;MoveInstrumentComponent</title>
<path fill="none" stroke="#000000" d="M273.5129,-859.3287C288.1521,-849.7871 306.4183,-837.8814 322.2523,-827.561"/>
<polygon fill="#000000" stroke="#000000" points="324.2938,-830.4083 330.7603,-822.0157 320.4715,-824.5439 324.2938,-830.4083"/>
</g>
<!-- MoveInstrumentComponent&#45;&gt;ApplyTransmissionCorrection -->
<g id="edge9" class="edge">
<title>MoveInstrumentComponent&#45;&gt;ApplyTransmissionCorrection</title>
<path fill="none" stroke="#000000" d="M385.3446,-785.9551C399.3628,-776.5667 416.6818,-764.9678 431.7905,-754.8491"/>
<polygon fill="#000000" stroke="#000000" points="434.028,-757.5631 440.3891,-749.0904 430.1328,-751.7469 434.028,-757.5631"/>
</g>
<!-- Divide2 -->
<g id="node23" class="node">
<title>Divide2</title>
<path fill="#87cefa" stroke="#000000" d="M482.4008,-662C482.4008,-662 452.4008,-662 452.4008,-662 446.4008,-662 440.4008,-656 440.4008,-650 440.4008,-650 440.4008,-638 440.4008,-638 440.4008,-632 446.4008,-626 452.4008,-626 452.4008,-626 482.4008,-626 482.4008,-626 488.4008,-626 494.4008,-632 494.4008,-638 494.4008,-638 494.4008,-650 494.4008,-650 494.4008,-656 488.4008,-662 482.4008,-662"/>
<text text-anchor="middle" x="467.4008" y="-640.3" font-family="Helvetica,sans-Serif" font-size="14.00" fill="#000000">Divide</text>
</g>
<!-- ApplyTransmissionCorrection&#45;&gt;Divide2 -->
<g id="edge11" class="edge">
<title>ApplyTransmissionCorrection&#45;&gt;Divide2</title>
<path fill="none" stroke="#000000" d="M467.4008,-712.9735C467.4008,-701.1918 467.4008,-685.5607 467.4008,-672.1581"/>
<polygon fill="#000000" stroke="#000000" points="470.9009,-672.0033 467.4008,-662.0034 463.9009,-672.0034 470.9009,-672.0033"/>
<text text-anchor="middle" x="499.9008" y="-683.8" font-family="Helvetica,sans-Serif" font-size="14.00" fill="#000000">SolidAngle</text>
</g>
<!-- ParallaxCorrection -->
<g id="node19" class="node">
<title>ParallaxCorrection</title>
<path fill="#87cefa" stroke="#000000" d="M750.4008,-429C750.4008,-429 646.4008,-429 646.4008,-429 640.4008,-429 634.4008,-423 634.4008,-417 634.4008,-417 634.4008,-405 634.4008,-405 634.4008,-399 640.4008,-393 646.4008,-393 646.4008,-393 750.4008,-393 750.4008,-393 756.4008,-393 762.4008,-399 762.4008,-405 762.4008,-405 762.4008,-417 762.4008,-417 762.4008,-423 756.4008,-429 750.4008,-429"/>
<text text-anchor="middle" x="698.4008" y="-407.3" font-family="Helvetica,sans-Serif" font-size="14.00" fill="#000000">ParallaxCorrection</text>
</g>
<!-- ParallaxCorrection&#45;&gt;Divide3 -->
<g id="edge18" class="edge">
<title>ParallaxCorrection&#45;&gt;Divide3</title>
<path fill="none" stroke="#000000" d="M715.3912,-392.9735C727.2655,-380.3752 743.2883,-363.3755 756.4553,-349.4055"/>
<polygon fill="#000000" stroke="#000000" points="759.1202,-351.6811 763.4321,-342.0034 754.0262,-346.8799 759.1202,-351.6811"/>
<text text-anchor="middle" x="773.9008" y="-363.8" font-family="Helvetica,sans-Serif" font-size="14.00" fill="#000000">Thickness</text>
</g>
<!-- Minus2&#45;&gt;MaskDetectors -->
<g id="edge14" class="edge">
<title>Minus2&#45;&gt;MaskDetectors</title>
<path fill="none" stroke="#000000" d="M575.5647,-555.245C598.6742,-541.8414 632.1831,-522.4063 658.3667,-507.2197"/>
<polygon fill="#000000" stroke="#000000" points="660.3994,-510.087 667.2937,-502.0421 656.8873,-504.0317 660.3994,-510.087"/>
</g>
<!-- CalculateEfficiency&#45;&gt;OutputSensitivityWorkspace -->
<g id="edge24" class="edge">
<title>CalculateEfficiency&#45;&gt;OutputSensitivityWorkspace</title>
<path fill="none" stroke="#000000" d="M838.4008,-72.9551C838.4008,-64.8828 838.4008,-55.1764 838.4008,-46.1817"/>
<polygon fill="#000000" stroke="#000000" points="841.9009,-46.0903 838.4008,-36.0904 834.9009,-46.0904 841.9009,-46.0903"/>
</g>
<!-- MaskDetectors&#45;&gt;ParallaxCorrection -->
<g id="edge17" class="edge">
<title>MaskDetectors&#45;&gt;ParallaxCorrection</title>
<path fill="none" stroke="#000000" d="M698.4008,-465.9551C698.4008,-457.8828 698.4008,-448.1764 698.4008,-439.1817"/>
<polygon fill="#000000" stroke="#000000" points="701.9009,-439.0903 698.4008,-429.0904 694.9009,-439.0904 701.9009,-439.0903"/>
</g>
<!-- Divide2&#45;&gt;Minus2 -->
<g id="edge12" class="edge">
<title>Divide2&#45;&gt;Minus2</title>
<path fill="none" stroke="#000000" d="M487.4233,-625.9551C497.451,-616.9177 509.7517,-605.8319 520.6722,-595.9899"/>
<polygon fill="#000000" stroke="#000000" points="523.2427,-598.385 528.3279,-589.0904 518.5564,-593.1852 523.2427,-598.385"/>
</g>
<!-- Divide3&#45;&gt;Divide4 -->
<g id="edge20" class="edge">
<title>Divide3&#45;&gt;Divide4</title>
<path fill="none" stroke="#000000" d="M792.4184,-305.9735C800.584,-293.7252 811.5231,-277.3165 820.6831,-263.5766"/>
<polygon fill="#000000" stroke="#000000" points="823.7637,-265.2653 826.3985,-255.0034 817.9393,-261.3824 823.7637,-265.2653"/>
<text text-anchor="middle" x="825.4008" y="-276.8" font-family="Helvetica,sans-Serif" font-size="14.00" fill="#000000">Flux</text>
</g>
<!-- Divide4&#45;&gt;OutputWorkspace -->
<g id="edge22" class="edge">
<title>Divide4&#45;&gt;OutputWorkspace</title>
<path fill="none" stroke="#000000" d="M838.4008,-218.9551C838.4008,-210.8828 838.4008,-201.1764 838.4008,-192.1817"/>
<polygon fill="#000000" stroke="#000000" points="841.9009,-192.0903 838.4008,-182.0904 834.9009,-192.0904 841.9009,-192.0903"/>
</g>
</g>
</svg>
