<?xml version="1.0" encoding="UTF-8" standalone="no"?>
<!DOCTYPE svg PUBLIC "-//W3C//DTD SVG 1.1//EN"
 "http://www.w3.org/Graphics/SVG/1.1/DTD/svg11.dtd">
<!-- Generated by graphviz version 2.40.1 (20161225.0304)
 -->
<!-- Title: Reference Pages: 1 -->
<svg width="1141pt" height="934pt"
 viewBox="0.00 0.00 1141.26 934.00" xmlns="http://www.w3.org/2000/svg" xmlns:xlink="http://www.w3.org/1999/xlink">
<g id="graph0" class="graph" transform="scale(1 1) rotate(0) translate(4 930)">
<title>Reference</title>
<polygon fill="#ffffff" stroke="transparent" points="-4,4 -4,-930 1137.2593,-930 1137.2593,4 -4,4"/>
<!-- NormaliseBy -->
<g id="node1" class="node">
<title>NormaliseBy</title>
<polygon fill="#32cd32" stroke="#000000" points="1046.8585,-780 960.5568,-762 1046.8585,-744 1133.1602,-762 1046.8585,-780"/>
<text text-anchor="middle" x="1046.8585" y="-758.3" font-family="Helvetica,sans-Serif" font-size="14.00" fill="#000000">NormaliseBy</text>
</g>
<!-- Divide -->
<g id="node12" class="node">
<title>Divide</title>
<path fill="#87cefa" stroke="#000000" d="M1061.8585,-707C1061.8585,-707 1031.8585,-707 1031.8585,-707 1025.8585,-707 1019.8585,-701 1019.8585,-695 1019.8585,-695 1019.8585,-683 1019.8585,-683 1019.8585,-677 1025.8585,-671 1031.8585,-671 1031.8585,-671 1061.8585,-671 1061.8585,-671 1067.8585,-671 1073.8585,-677 1073.8585,-683 1073.8585,-683 1073.8585,-695 1073.8585,-695 1073.8585,-701 1067.8585,-707 1061.8585,-707"/>
<text text-anchor="middle" x="1046.8585" y="-685.3" font-family="Helvetica,sans-Serif" font-size="14.00" fill="#000000">Divide</text>
</g>
<!-- NormaliseBy&#45;&gt;Divide -->
<g id="edge3" class="edge">
<title>NormaliseBy&#45;&gt;Divide</title>
<path fill="none" stroke="#000000" d="M1046.8585,-743.9551C1046.8585,-735.8828 1046.8585,-726.1764 1046.8585,-717.1817"/>
<polygon fill="#000000" stroke="#000000" points="1050.3586,-717.0903 1046.8585,-707.0904 1043.3586,-717.0904 1050.3586,-717.0903"/>
</g>
<!-- Run -->
<g id="node2" class="node">
<title>Run</title>
<ellipse fill="#f0e68c" stroke="#000000" cx="1046.8585" cy="-908" rx="27" ry="18"/>
<text text-anchor="middle" x="1046.8585" y="-904.3" font-family="Helvetica,sans-Serif" font-size="14.00" fill="#000000">Run</text>
</g>
<!-- LoadAndMerge -->
<g id="node11" class="node">
<title>LoadAndMerge</title>
<path fill="#87cefa" stroke="#000000" d="M1089.8585,-853C1089.8585,-853 1003.8585,-853 1003.8585,-853 997.8585,-853 991.8585,-847 991.8585,-841 991.8585,-841 991.8585,-829 991.8585,-829 991.8585,-823 997.8585,-817 1003.8585,-817 1003.8585,-817 1089.8585,-817 1089.8585,-817 1095.8585,-817 1101.8585,-823 1101.8585,-829 1101.8585,-829 1101.8585,-841 1101.8585,-841 1101.8585,-847 1095.8585,-853 1089.8585,-853"/>
<text text-anchor="middle" x="1046.8585" y="-831.3" font-family="Helvetica,sans-Serif" font-size="14.00" fill="#000000">LoadAndMerge</text>
</g>
<!-- Run&#45;&gt;LoadAndMerge -->
<g id="edge1" class="edge">
<title>Run&#45;&gt;LoadAndMerge</title>
<path fill="none" stroke="#000000" d="M1046.8585,-889.9551C1046.8585,-881.8828 1046.8585,-872.1764 1046.8585,-863.1817"/>
<polygon fill="#000000" stroke="#000000" points="1050.3586,-863.0903 1046.8585,-853.0904 1043.3586,-863.0904 1050.3586,-863.0903"/>
</g>
<!-- AbsorberInputWorkspace -->
<g id="node3" class="node">
<title>AbsorberInputWorkspace</title>
<ellipse fill="#f0e68c" stroke="#000000" cx="891.8585" cy="-689" rx="110.4804" ry="18"/>
<text text-anchor="middle" x="891.8585" y="-685.3" font-family="Helvetica,sans-Serif" font-size="14.00" fill="#000000">AbsorberInputWorkspace</text>
</g>
<!-- Minus -->
<g id="node13" class="node">
<title>Minus</title>
<path fill="#87cefa" stroke="#000000" d="M951.8585,-634C951.8585,-634 921.8585,-634 921.8585,-634 915.8585,-634 909.8585,-628 909.8585,-622 909.8585,-622 909.8585,-610 909.8585,-610 909.8585,-604 915.8585,-598 921.8585,-598 921.8585,-598 951.8585,-598 951.8585,-598 957.8585,-598 963.8585,-604 963.8585,-610 963.8585,-610 963.8585,-622 963.8585,-622 963.8585,-628 957.8585,-634 951.8585,-634"/>
<text text-anchor="middle" x="936.8585" y="-612.3" font-family="Helvetica,sans-Serif" font-size="14.00" fill="#000000">Minus</text>
</g>
<!-- AbsorberInputWorkspace&#45;&gt;Minus -->
<g id="edge5" class="edge">
<title>AbsorberInputWorkspace&#45;&gt;Minus</title>
<path fill="none" stroke="#000000" d="M902.9821,-670.9551C908.2285,-662.4441 914.5949,-652.1165 920.3861,-642.7219"/>
<polygon fill="#000000" stroke="#000000" points="923.4388,-644.4396 925.7069,-634.0904 917.48,-640.7663 923.4388,-644.4396"/>
</g>
<!-- ContainerInputWorkspace -->
<g id="node4" class="node">
<title>ContainerInputWorkspace</title>
<ellipse fill="#f0e68c" stroke="#000000" cx="445.8585" cy="-383" rx="112.3801" ry="18"/>
<text text-anchor="middle" x="445.8585" y="-379.3" font-family="Helvetica,sans-Serif" font-size="14.00" fill="#000000">ContainerInputWorkspace</text>
</g>
<!-- Minus2 -->
<g id="node17" class="node">
<title>Minus2</title>
<path fill="#87cefa" stroke="#000000" d="M523.8585,-328C523.8585,-328 493.8585,-328 493.8585,-328 487.8585,-328 481.8585,-322 481.8585,-316 481.8585,-316 481.8585,-304 481.8585,-304 481.8585,-298 487.8585,-292 493.8585,-292 493.8585,-292 523.8585,-292 523.8585,-292 529.8585,-292 535.8585,-298 535.8585,-304 535.8585,-304 535.8585,-316 535.8585,-316 535.8585,-322 529.8585,-328 523.8585,-328"/>
<text text-anchor="middle" x="508.8585" y="-306.3" font-family="Helvetica,sans-Serif" font-size="14.00" fill="#000000">Minus</text>
</g>
<!-- ContainerInputWorkspace&#45;&gt;Minus2 -->
<g id="edge12" class="edge">
<title>ContainerInputWorkspace&#45;&gt;Minus2</title>
<path fill="none" stroke="#000000" d="M461.4315,-364.9551C469.0037,-356.1809 478.2423,-345.4759 486.547,-335.853"/>
<polygon fill="#000000" stroke="#000000" points="489.3624,-337.9477 493.2463,-328.0904 484.063,-333.3742 489.3624,-337.9477"/>
</g>
<!-- MaskedInputWorkspace -->
<g id="node5" class="node">
<title>MaskedInputWorkspace</title>
<ellipse fill="#f0e68c" stroke="#000000" cx="357.8585" cy="-310" rx="105.8812" ry="18"/>
<text text-anchor="middle" x="357.8585" y="-306.3" font-family="Helvetica,sans-Serif" font-size="14.00" fill="#000000">MaskedInputWorkspace</text>
</g>
<!-- MaskDetectors -->
<g id="node19" class="node">
<title>MaskDetectors</title>
<path fill="#87cefa" stroke="#000000" d="M443.3585,-255C443.3585,-255 360.3585,-255 360.3585,-255 354.3585,-255 348.3585,-249 348.3585,-243 348.3585,-243 348.3585,-231 348.3585,-231 348.3585,-225 354.3585,-219 360.3585,-219 360.3585,-219 443.3585,-219 443.3585,-219 449.3585,-219 455.3585,-225 455.3585,-231 455.3585,-231 455.3585,-243 455.3585,-243 455.3585,-249 449.3585,-255 443.3585,-255"/>
<text text-anchor="middle" x="401.8585" y="-233.3" font-family="Helvetica,sans-Serif" font-size="14.00" fill="#000000">MaskDetectors</text>
</g>
<!-- MaskedInputWorkspace&#45;&gt;MaskDetectors -->
<g id="edge14" class="edge">
<title>MaskedInputWorkspace&#45;&gt;MaskDetectors</title>
<path fill="none" stroke="#000000" d="M368.7349,-291.9551C373.8648,-283.4441 380.0896,-273.1165 385.7521,-263.7219"/>
<polygon fill="#000000" stroke="#000000" points="388.7901,-265.4617 390.9547,-255.0904 382.7949,-261.8481 388.7901,-265.4617"/>
</g>
<!-- BeamInputWorkspace -->
<g id="node6" class="node">
<title>BeamInputWorkspace</title>
<ellipse fill="#f0e68c" stroke="#000000" cx="793.8585" cy="-616" rx="98.2828" ry="18"/>
<text text-anchor="middle" x="793.8585" y="-612.3" font-family="Helvetica,sans-Serif" font-size="14.00" fill="#000000">BeamInputWorkspace</text>
</g>
<!-- MoveInstrumentComponent -->
<g id="node14" class="node">
<title>MoveInstrumentComponent</title>
<path fill="#87cefa" stroke="#000000" d="M886.3585,-561C886.3585,-561 725.3585,-561 725.3585,-561 719.3585,-561 713.3585,-555 713.3585,-549 713.3585,-549 713.3585,-537 713.3585,-537 713.3585,-531 719.3585,-525 725.3585,-525 725.3585,-525 886.3585,-525 886.3585,-525 892.3585,-525 898.3585,-531 898.3585,-537 898.3585,-537 898.3585,-549 898.3585,-549 898.3585,-555 892.3585,-561 886.3585,-561"/>
<text text-anchor="middle" x="805.8585" y="-539.3" font-family="Helvetica,sans-Serif" font-size="14.00" fill="#000000">MoveInstrumentComponent</text>
</g>
<!-- BeamInputWorkspace&#45;&gt;MoveInstrumentComponent -->
<g id="edge7" class="edge">
<title>BeamInputWorkspace&#45;&gt;MoveInstrumentComponent</title>
<path fill="none" stroke="#000000" d="M796.8248,-597.9551C798.1517,-589.8828 799.7473,-580.1764 801.2259,-571.1817"/>
<polygon fill="#000000" stroke="#000000" points="804.7162,-571.5257 802.8847,-561.0904 797.8089,-570.3902 804.7162,-571.5257"/>
</g>
<!-- TransmissionInputWorkspace -->
<g id="node7" class="node">
<title>TransmissionInputWorkspace</title>
<ellipse fill="#f0e68c" stroke="#000000" cx="619.8585" cy="-456" rx="127.2775" ry="18"/>
<text text-anchor="middle" x="619.8585" y="-452.3" font-family="Helvetica,sans-Serif" font-size="14.00" fill="#000000">TransmissionInputWorkspace</text>
</g>
<!-- ApplyTransmissionCorrection -->
<g id="node15" class="node">
<title>ApplyTransmissionCorrection</title>
<path fill="#87cefa" stroke="#000000" d="M757.8585,-401C757.8585,-401 587.8585,-401 587.8585,-401 581.8585,-401 575.8585,-395 575.8585,-389 575.8585,-389 575.8585,-377 575.8585,-377 575.8585,-371 581.8585,-365 587.8585,-365 587.8585,-365 757.8585,-365 757.8585,-365 763.8585,-365 769.8585,-371 769.8585,-377 769.8585,-377 769.8585,-389 769.8585,-389 769.8585,-395 763.8585,-401 757.8585,-401"/>
<text text-anchor="middle" x="672.8585" y="-379.3" font-family="Helvetica,sans-Serif" font-size="14.00" fill="#000000">ApplyTransmissionCorrection</text>
</g>
<!-- TransmissionInputWorkspace&#45;&gt;ApplyTransmissionCorrection -->
<g id="edge10" class="edge">
<title>TransmissionInputWorkspace&#45;&gt;ApplyTransmissionCorrection</title>
<path fill="none" stroke="#000000" d="M632.9596,-437.9551C639.2025,-429.3564 646.7917,-418.9034 653.6684,-409.4316"/>
<polygon fill="#000000" stroke="#000000" points="656.6815,-411.2388 659.7244,-401.0904 651.017,-407.1262 656.6815,-411.2388"/>
</g>
<!-- SampleThickness -->
<g id="node8" class="node">
<title>SampleThickness</title>
<ellipse fill="#f0e68c" stroke="#000000" cx="249.8585" cy="-237" rx="80.6858" ry="18"/>
<text text-anchor="middle" x="249.8585" y="-233.3" font-family="Helvetica,sans-Serif" font-size="14.00" fill="#000000">SampleThickness</text>
</g>
<!-- NormaliseByThickness -->
<g id="node20" class="node">
<title>NormaliseByThickness</title>
<path fill="#87cefa" stroke="#000000" d="M327.3585,-182C327.3585,-182 196.3585,-182 196.3585,-182 190.3585,-182 184.3585,-176 184.3585,-170 184.3585,-170 184.3585,-158 184.3585,-158 184.3585,-152 190.3585,-146 196.3585,-146 196.3585,-146 327.3585,-146 327.3585,-146 333.3585,-146 339.3585,-152 339.3585,-158 339.3585,-158 339.3585,-170 339.3585,-170 339.3585,-176 333.3585,-182 327.3585,-182"/>
<text text-anchor="middle" x="261.8585" y="-160.3" font-family="Helvetica,sans-Serif" font-size="14.00" fill="#000000">NormaliseByThickness</text>
</g>
<!-- SampleThickness&#45;&gt;NormaliseByThickness -->
<g id="edge16" class="edge">
<title>SampleThickness&#45;&gt;NormaliseByThickness</title>
<path fill="none" stroke="#000000" d="M252.8248,-218.9551C254.1517,-210.8828 255.7473,-201.1764 257.2259,-192.1817"/>
<polygon fill="#000000" stroke="#000000" points="260.7162,-192.5257 258.8847,-182.0904 253.8089,-191.3902 260.7162,-192.5257"/>
</g>
<!-- OutputWorkspace -->
<g id="node9" class="node">
<title>OutputWorkspace</title>
<polygon fill="#c0c0c0" stroke="#000000" points="469.4404,-109 293.5293,-109 248.2766,-73 424.1876,-73 469.4404,-109"/>
<text text-anchor="middle" x="358.8585" y="-87.3" font-family="Times,serif" font-size="14.00" fill="#000000">OutputWorkspace</text>
</g>
<!-- SensitivityOutputWorkspace -->
<g id="node10" class="node">
<title>SensitivityOutputWorkspace</title>
<polygon fill="#c0c0c0" stroke="#000000" points="329.5756,-36 67.5475,-36 .1414,0 262.1694,0 329.5756,-36"/>
<text text-anchor="middle" x="164.8585" y="-14.3" font-family="Times,serif" font-size="14.00" fill="#000000">SensitivityOutputWorkspace</text>
</g>
<!-- LoadAndMerge&#45;&gt;NormaliseBy -->
<g id="edge2" class="edge">
<title>LoadAndMerge&#45;&gt;NormaliseBy</title>
<path fill="none" stroke="#000000" d="M1046.8585,-816.9551C1046.8585,-808.8828 1046.8585,-799.1764 1046.8585,-790.1817"/>
<polygon fill="#000000" stroke="#000000" points="1050.3586,-790.0903 1046.8585,-780.0904 1043.3586,-790.0904 1050.3586,-790.0903"/>
</g>
<!-- Divide&#45;&gt;Minus -->
<g id="edge4" class="edge">
<title>Divide&#45;&gt;Minus</title>
<path fill="none" stroke="#000000" d="M1019.6675,-670.9551C1005.5207,-661.5667 988.0428,-649.9678 972.7955,-639.8491"/>
<polygon fill="#000000" stroke="#000000" points="974.3854,-636.7037 964.1179,-634.0904 970.5147,-642.5362 974.3854,-636.7037"/>
</g>
<!-- Minus&#45;&gt;MoveInstrumentComponent -->
<g id="edge6" class="edge">
<title>Minus&#45;&gt;MoveInstrumentComponent</title>
<path fill="none" stroke="#000000" d="M909.7152,-600.8744C891.6973,-590.8339 867.7005,-577.4616 847.3128,-566.1005"/>
<polygon fill="#000000" stroke="#000000" points="848.969,-563.0167 838.53,-561.2062 845.5615,-569.1314 848.969,-563.0167"/>
</g>
<!-- SolidAngle -->
<g id="node16" class="node">
<title>SolidAngle</title>
<path fill="#87cefa" stroke="#000000" d="M834.3585,-474C834.3585,-474 777.3585,-474 777.3585,-474 771.3585,-474 765.3585,-468 765.3585,-462 765.3585,-462 765.3585,-450 765.3585,-450 765.3585,-444 771.3585,-438 777.3585,-438 777.3585,-438 834.3585,-438 834.3585,-438 840.3585,-438 846.3585,-444 846.3585,-450 846.3585,-450 846.3585,-462 846.3585,-462 846.3585,-468 840.3585,-474 834.3585,-474"/>
<text text-anchor="middle" x="805.8585" y="-452.3" font-family="Helvetica,sans-Serif" font-size="14.00" fill="#000000">SolidAngle</text>
</g>
<!-- MoveInstrumentComponent&#45;&gt;SolidAngle -->
<g id="edge8" class="edge">
<title>MoveInstrumentComponent&#45;&gt;SolidAngle</title>
<path fill="none" stroke="#000000" d="M805.8585,-524.9735C805.8585,-513.1918 805.8585,-497.5607 805.8585,-484.1581"/>
<polygon fill="#000000" stroke="#000000" points="809.3586,-484.0033 805.8585,-474.0034 802.3586,-484.0034 809.3586,-484.0033"/>
<text text-anchor="middle" x="824.8585" y="-495.8" font-family="Helvetica,sans-Serif" font-size="14.00" fill="#000000">Divide</text>
</g>
<!-- ApplyTransmissionCorrection&#45;&gt;Minus2 -->
<g id="edge11" class="edge">
<title>ApplyTransmissionCorrection&#45;&gt;Minus2</title>
<path fill="none" stroke="#000000" d="M632.3191,-364.9551C605.7408,-353.1245 571.2764,-337.7836 545.5179,-326.3179"/>
<polygon fill="#000000" stroke="#000000" points="546.6657,-322.9978 536.1066,-322.1287 543.8191,-329.3929 546.6657,-322.9978"/>
</g>
<!-- SolidAngle&#45;&gt;ApplyTransmissionCorrection -->
<g id="edge9" class="edge">
<title>SolidAngle&#45;&gt;ApplyTransmissionCorrection</title>
<path fill="none" stroke="#000000" d="M772.9821,-437.9551C755.3977,-428.3035 733.5568,-416.3156 714.7655,-406.0016"/>
<polygon fill="#000000" stroke="#000000" points="716.268,-402.8338 705.8176,-401.0904 712.8999,-408.9702 716.268,-402.8338"/>
</g>
<!-- Minus2&#45;&gt;MaskDetectors -->
<g id="edge13" class="edge">
<title>Minus2&#45;&gt;MaskDetectors</title>
<path fill="none" stroke="#000000" d="M482.409,-291.9551C468.648,-282.5667 451.6469,-270.9678 436.8154,-260.8491"/>
<polygon fill="#000000" stroke="#000000" points="438.6077,-257.8349 428.3745,-255.0904 434.6626,-263.6174 438.6077,-257.8349"/>
</g>
<!-- CalculateEfficiency -->
<g id="node18" class="node">
<title>CalculateEfficiency</title>
<path fill="#87cefa" stroke="#000000" d="M218.3585,-109C218.3585,-109 111.3585,-109 111.3585,-109 105.3585,-109 99.3585,-103 99.3585,-97 99.3585,-97 99.3585,-85 99.3585,-85 99.3585,-79 105.3585,-73 111.3585,-73 111.3585,-73 218.3585,-73 218.3585,-73 224.3585,-73 230.3585,-79 230.3585,-85 230.3585,-85 230.3585,-97 230.3585,-97 230.3585,-103 224.3585,-109 218.3585,-109"/>
<text text-anchor="middle" x="164.8585" y="-87.3" font-family="Helvetica,sans-Serif" font-size="14.00" fill="#000000">CalculateEfficiency</text>
</g>
<!-- CalculateEfficiency&#45;&gt;SensitivityOutputWorkspace -->
<g id="edge18" class="edge">
<title>CalculateEfficiency&#45;&gt;SensitivityOutputWorkspace</title>
<path fill="none" stroke="#000000" d="M164.8585,-72.9551C164.8585,-64.8828 164.8585,-55.1764 164.8585,-46.1817"/>
<polygon fill="#000000" stroke="#000000" points="168.3586,-46.0903 164.8585,-36.0904 161.3586,-46.0904 168.3586,-46.0903"/>
</g>
<!-- MaskDetectors&#45;&gt;NormaliseByThickness -->
<g id="edge15" class="edge">
<title>MaskDetectors&#45;&gt;NormaliseByThickness</title>
<path fill="none" stroke="#000000" d="M367.2517,-218.9551C348.5736,-209.2157 325.3331,-197.0975 305.4325,-186.7207"/>
<polygon fill="#000000" stroke="#000000" points="307.0376,-183.6105 296.5523,-182.0904 303.8011,-189.8174 307.0376,-183.6105"/>
</g>
<!-- NormaliseByThickness&#45;&gt;OutputWorkspace -->
<g id="edge19" class="edge">
<title>NormaliseByThickness&#45;&gt;OutputWorkspace</title>
<path fill="none" stroke="#000000" d="M285.836,-145.9551C298.1943,-136.6545 313.4354,-125.1844 326.7911,-115.1332"/>
<polygon fill="#000000" stroke="#000000" points="328.9351,-117.9001 334.8206,-109.0904 324.7259,-112.307 328.9351,-117.9001"/>
</g>
<!-- NormaliseByThickness&#45;&gt;CalculateEfficiency -->
<g id="edge17" class="edge">
<title>NormaliseByThickness&#45;&gt;CalculateEfficiency</title>
<path fill="none" stroke="#000000" d="M237.8809,-145.9551C225.5226,-136.6545 210.2816,-125.1844 196.9259,-115.1332"/>
<polygon fill="#000000" stroke="#000000" points="198.9911,-112.307 188.8964,-109.0904 194.7819,-117.9001 198.9911,-112.307"/>
</g>
</g>
</svg>
