<?xml version="1.0" encoding="UTF-8" standalone="no"?>
<!DOCTYPE svg PUBLIC "-//W3C//DTD SVG 1.1//EN"
 "http://www.w3.org/Graphics/SVG/1.1/DTD/svg11.dtd">
<!-- Generated by graphviz version 2.40.1 (20161225.0304)
 -->
<!-- Title: IndirectILLReductionFWS Pages: 1 -->
<svg width="831pt" height="825pt"
 viewBox="0.00 0.00 830.69 825.00" xmlns="http://www.w3.org/2000/svg" xmlns:xlink="http://www.w3.org/1999/xlink">
<g id="graph0" class="graph" transform="scale(1 1) rotate(0) translate(4 821)">
<title>IndirectILLReductionFWS</title>
<polygon fill="#ffffff" stroke="transparent" points="-4,4 -4,-821 826.6897,-821 826.6897,4 -4,4"/>
<text text-anchor="middle" x="411.3449" y="-801.8" font-family="Helvetica,sans-Serif" font-size="14.00" fill="#000000">IndirectILLReductionFWS Flowchart</text>
<!-- OutputWorkspace -->
<g id="node1" class="node">
<title>OutputWorkspace</title>
<polygon fill="#c0c0c0" stroke="#000000" points="483.2716,-36 307.3606,-36 262.1078,0 438.0189,0 483.2716,-36"/>
<text text-anchor="middle" x="372.6897" y="-14.3" font-family="Times,serif" font-size="14.00" fill="#000000">OutputWorkspace</text>
</g>
<!-- Run -->
<g id="node2" class="node">
<title>Run</title>
<ellipse fill="#f0e68c" stroke="#000000" cx="725.6897" cy="-630" rx="27" ry="18"/>
<text text-anchor="middle" x="725.6897" y="-626.3" font-family="Helvetica,sans-Serif" font-size="14.00" fill="#000000">Run</text>
</g>
<!-- SelectNexusFilesByMetadata -->
<g id="node11" class="node">
<title>SelectNexusFilesByMetadata</title>
<path fill="#87cefa" stroke="#000000" d="M810.6897,-575C810.6897,-575 640.6897,-575 640.6897,-575 634.6897,-575 628.6897,-569 628.6897,-563 628.6897,-563 628.6897,-551 628.6897,-551 628.6897,-545 634.6897,-539 640.6897,-539 640.6897,-539 810.6897,-539 810.6897,-539 816.6897,-539 822.6897,-545 822.6897,-551 822.6897,-551 822.6897,-563 822.6897,-563 822.6897,-569 816.6897,-575 810.6897,-575"/>
<text text-anchor="middle" x="725.6897" y="-553.3" font-family="Helvetica,sans-Serif" font-size="14.00" fill="#000000">SelectNexusFilesByMetadata</text>
</g>
<!-- Run&#45;&gt;SelectNexusFilesByMetadata -->
<g id="edge1" class="edge">
<title>Run&#45;&gt;SelectNexusFilesByMetadata</title>
<path fill="none" stroke="#000000" d="M725.6897,-611.9551C725.6897,-603.8828 725.6897,-594.1764 725.6897,-585.1817"/>
<polygon fill="#000000" stroke="#000000" points="729.1898,-585.0903 725.6897,-575.0904 722.1898,-585.0904 729.1898,-585.0903"/>
</g>
<!-- Observable -->
<g id="node3" class="node">
<title>Observable</title>
<ellipse fill="#f0e68c" stroke="#000000" cx="611.6897" cy="-411" rx="55.7903" ry="18"/>
<text text-anchor="middle" x="611.6897" y="-407.3" font-family="Helvetica,sans-Serif" font-size="14.00" fill="#000000">Observable</text>
</g>
<!-- Scan -->
<g id="node29" class="node">
<title>Scan</title>
<polygon fill="#20b2aa" stroke="#000000" points="642.6897,-342 588.6897,-342 588.6897,-306 642.6897,-306 642.6897,-342"/>
<text text-anchor="middle" x="615.6897" y="-320.3" font-family="Helvetica,sans-Serif" font-size="14.00" fill="#000000">Scan</text>
</g>
<!-- Observable&#45;&gt;Scan -->
<g id="edge5" class="edge">
<title>Observable&#45;&gt;Scan</title>
<path fill="none" stroke="#000000" d="M612.5185,-392.9735C613.0602,-381.1918 613.7789,-365.5607 614.3951,-352.1581"/>
<polygon fill="#000000" stroke="#000000" points="617.8989,-352.1536 614.862,-342.0034 610.9063,-351.832 617.8989,-352.1536"/>
</g>
<!-- CalibrationRun -->
<g id="node4" class="node">
<title>CalibrationRun</title>
<ellipse fill="#f0e68c" stroke="#000000" cx="321.6897" cy="-703" rx="68.7879" ry="18"/>
<text text-anchor="middle" x="321.6897" y="-699.3" font-family="Helvetica,sans-Serif" font-size="14.00" fill="#000000">CalibrationRun</text>
</g>
<!-- SelectNexusFilesByMetadataC -->
<g id="node13" class="node">
<title>SelectNexusFilesByMetadataC</title>
<path fill="#87cefa" stroke="#000000" d="M406.6897,-648C406.6897,-648 236.6897,-648 236.6897,-648 230.6897,-648 224.6897,-642 224.6897,-636 224.6897,-636 224.6897,-624 224.6897,-624 224.6897,-618 230.6897,-612 236.6897,-612 236.6897,-612 406.6897,-612 406.6897,-612 412.6897,-612 418.6897,-618 418.6897,-624 418.6897,-624 418.6897,-636 418.6897,-636 418.6897,-642 412.6897,-648 406.6897,-648"/>
<text text-anchor="middle" x="321.6897" y="-626.3" font-family="Helvetica,sans-Serif" font-size="14.00" fill="#000000">SelectNexusFilesByMetadata</text>
</g>
<!-- CalibrationRun&#45;&gt;SelectNexusFilesByMetadataC -->
<g id="edge12" class="edge">
<title>CalibrationRun&#45;&gt;SelectNexusFilesByMetadataC</title>
<path fill="none" stroke="#000000" d="M321.6897,-684.9551C321.6897,-676.8828 321.6897,-667.1764 321.6897,-658.1817"/>
<polygon fill="#000000" stroke="#000000" points="325.1898,-658.0903 321.6897,-648.0904 318.1898,-658.0904 325.1898,-658.0903"/>
</g>
<!-- BackgroundRun -->
<g id="node5" class="node">
<title>BackgroundRun</title>
<ellipse fill="#f0e68c" stroke="#000000" cx="533.6897" cy="-703" rx="73.387" ry="18"/>
<text text-anchor="middle" x="533.6897" y="-699.3" font-family="Helvetica,sans-Serif" font-size="14.00" fill="#000000">BackgroundRun</text>
</g>
<!-- SelectNexusFilesByMetadataB -->
<g id="node12" class="node">
<title>SelectNexusFilesByMetadataB</title>
<path fill="#87cefa" stroke="#000000" d="M618.6897,-648C618.6897,-648 448.6897,-648 448.6897,-648 442.6897,-648 436.6897,-642 436.6897,-636 436.6897,-636 436.6897,-624 436.6897,-624 436.6897,-618 442.6897,-612 448.6897,-612 448.6897,-612 618.6897,-612 618.6897,-612 624.6897,-612 630.6897,-618 630.6897,-624 630.6897,-624 630.6897,-636 630.6897,-636 630.6897,-642 624.6897,-648 618.6897,-648"/>
<text text-anchor="middle" x="533.6897" y="-626.3" font-family="Helvetica,sans-Serif" font-size="14.00" fill="#000000">SelectNexusFilesByMetadata</text>
</g>
<!-- BackgroundRun&#45;&gt;SelectNexusFilesByMetadataB -->
<g id="edge6" class="edge">
<title>BackgroundRun&#45;&gt;SelectNexusFilesByMetadataB</title>
<path fill="none" stroke="#000000" d="M533.6897,-684.9551C533.6897,-676.8828 533.6897,-667.1764 533.6897,-658.1817"/>
<polygon fill="#000000" stroke="#000000" points="537.1898,-658.0903 533.6897,-648.0904 530.1898,-658.0904 537.1898,-658.0903"/>
</g>
<!-- CalibrationBackgroundRun -->
<g id="node6" class="node">
<title>CalibrationBackgroundRun</title>
<ellipse fill="#f0e68c" stroke="#000000" cx="115.6897" cy="-776" rx="115.8798" ry="18"/>
<text text-anchor="middle" x="115.6897" y="-772.3" font-family="Helvetica,sans-Serif" font-size="14.00" fill="#000000">CalibrationBackgroundRun</text>
</g>
<!-- SelectNexusFilesByMetadataCB -->
<g id="node14" class="node">
<title>SelectNexusFilesByMetadataCB</title>
<path fill="#87cefa" stroke="#000000" d="M200.6897,-721C200.6897,-721 30.6897,-721 30.6897,-721 24.6897,-721 18.6897,-715 18.6897,-709 18.6897,-709 18.6897,-697 18.6897,-697 18.6897,-691 24.6897,-685 30.6897,-685 30.6897,-685 200.6897,-685 200.6897,-685 206.6897,-685 212.6897,-691 212.6897,-697 212.6897,-697 212.6897,-709 212.6897,-709 212.6897,-715 206.6897,-721 200.6897,-721"/>
<text text-anchor="middle" x="115.6897" y="-699.3" font-family="Helvetica,sans-Serif" font-size="14.00" fill="#000000">SelectNexusFilesByMetadata</text>
</g>
<!-- CalibrationBackgroundRun&#45;&gt;SelectNexusFilesByMetadataCB -->
<g id="edge25" class="edge">
<title>CalibrationBackgroundRun&#45;&gt;SelectNexusFilesByMetadataCB</title>
<path fill="none" stroke="#000000" d="M115.6897,-757.9551C115.6897,-749.8828 115.6897,-740.1764 115.6897,-731.1817"/>
<polygon fill="#000000" stroke="#000000" points="119.1898,-731.0903 115.6897,-721.0904 112.1898,-731.0904 119.1898,-731.0903"/>
</g>
<!-- IndirectILLEnergyTransfer -->
<g id="node7" class="node">
<title>IndirectILLEnergyTransfer</title>
<path fill="#87cefa" stroke="#000000" d="M800.1897,-502C800.1897,-502 651.1897,-502 651.1897,-502 645.1897,-502 639.1897,-496 639.1897,-490 639.1897,-490 639.1897,-478 639.1897,-478 639.1897,-472 645.1897,-466 651.1897,-466 651.1897,-466 800.1897,-466 800.1897,-466 806.1897,-466 812.1897,-472 812.1897,-478 812.1897,-478 812.1897,-490 812.1897,-490 812.1897,-496 806.1897,-502 800.1897,-502"/>
<text text-anchor="middle" x="725.6897" y="-480.3" font-family="Helvetica,sans-Serif" font-size="14.00" fill="#000000">IndirectILLEnergyTransfer</text>
</g>
<!-- Integration -->
<g id="node15" class="node">
<title>Integration</title>
<path fill="#87cefa" stroke="#000000" d="M753.6897,-429C753.6897,-429 697.6897,-429 697.6897,-429 691.6897,-429 685.6897,-423 685.6897,-417 685.6897,-417 685.6897,-405 685.6897,-405 685.6897,-399 691.6897,-393 697.6897,-393 697.6897,-393 753.6897,-393 753.6897,-393 759.6897,-393 765.6897,-399 765.6897,-405 765.6897,-405 765.6897,-417 765.6897,-417 765.6897,-423 759.6897,-429 753.6897,-429"/>
<text text-anchor="middle" x="725.6897" y="-407.3" font-family="Helvetica,sans-Serif" font-size="14.00" fill="#000000">Integration</text>
</g>
<!-- IndirectILLEnergyTransfer&#45;&gt;Integration -->
<g id="edge3" class="edge">
<title>IndirectILLEnergyTransfer&#45;&gt;Integration</title>
<path fill="none" stroke="#000000" d="M725.6897,-465.9551C725.6897,-457.8828 725.6897,-448.1764 725.6897,-439.1817"/>
<polygon fill="#000000" stroke="#000000" points="729.1898,-439.0903 725.6897,-429.0904 722.1898,-439.0904 729.1898,-439.0903"/>
</g>
<!-- IndirectILLEnergyTransferB -->
<g id="node8" class="node">
<title>IndirectILLEnergyTransferB</title>
<path fill="#87cefa" stroke="#000000" d="M592.1897,-575C592.1897,-575 443.1897,-575 443.1897,-575 437.1897,-575 431.1897,-569 431.1897,-563 431.1897,-563 431.1897,-551 431.1897,-551 431.1897,-545 437.1897,-539 443.1897,-539 443.1897,-539 592.1897,-539 592.1897,-539 598.1897,-539 604.1897,-545 604.1897,-551 604.1897,-551 604.1897,-563 604.1897,-563 604.1897,-569 598.1897,-575 592.1897,-575"/>
<text text-anchor="middle" x="517.6897" y="-553.3" font-family="Helvetica,sans-Serif" font-size="14.00" fill="#000000">IndirectILLEnergyTransfer</text>
</g>
<!-- IntegrationB -->
<g id="node16" class="node">
<title>IntegrationB</title>
<path fill="#87cefa" stroke="#000000" d="M538.6897,-502C538.6897,-502 482.6897,-502 482.6897,-502 476.6897,-502 470.6897,-496 470.6897,-490 470.6897,-490 470.6897,-478 470.6897,-478 470.6897,-472 476.6897,-466 482.6897,-466 482.6897,-466 538.6897,-466 538.6897,-466 544.6897,-466 550.6897,-472 550.6897,-478 550.6897,-478 550.6897,-490 550.6897,-490 550.6897,-496 544.6897,-502 538.6897,-502"/>
<text text-anchor="middle" x="510.6897" y="-480.3" font-family="Helvetica,sans-Serif" font-size="14.00" fill="#000000">Integration</text>
</g>
<!-- IndirectILLEnergyTransferB&#45;&gt;IntegrationB -->
<g id="edge8" class="edge">
<title>IndirectILLEnergyTransferB&#45;&gt;IntegrationB</title>
<path fill="none" stroke="#000000" d="M515.9594,-538.9551C515.1853,-530.8828 514.2546,-521.1764 513.3921,-512.1817"/>
<polygon fill="#000000" stroke="#000000" points="516.8631,-511.7106 512.4244,-502.0904 509.895,-512.3788 516.8631,-511.7106"/>
</g>
<!-- IndirectILLEnergyTransferC -->
<g id="node9" class="node">
<title>IndirectILLEnergyTransferC</title>
<path fill="#87cefa" stroke="#000000" d="M396.1897,-575C396.1897,-575 247.1897,-575 247.1897,-575 241.1897,-575 235.1897,-569 235.1897,-563 235.1897,-563 235.1897,-551 235.1897,-551 235.1897,-545 241.1897,-539 247.1897,-539 247.1897,-539 396.1897,-539 396.1897,-539 402.1897,-539 408.1897,-545 408.1897,-551 408.1897,-551 408.1897,-563 408.1897,-563 408.1897,-569 402.1897,-575 396.1897,-575"/>
<text text-anchor="middle" x="321.6897" y="-553.3" font-family="Helvetica,sans-Serif" font-size="14.00" fill="#000000">IndirectILLEnergyTransfer</text>
</g>
<!-- IntegrationC -->
<g id="node17" class="node">
<title>IntegrationC</title>
<path fill="#87cefa" stroke="#000000" d="M352.6897,-502C352.6897,-502 296.6897,-502 296.6897,-502 290.6897,-502 284.6897,-496 284.6897,-490 284.6897,-490 284.6897,-478 284.6897,-478 284.6897,-472 290.6897,-466 296.6897,-466 296.6897,-466 352.6897,-466 352.6897,-466 358.6897,-466 364.6897,-472 364.6897,-478 364.6897,-478 364.6897,-490 364.6897,-490 364.6897,-496 358.6897,-502 352.6897,-502"/>
<text text-anchor="middle" x="324.6897" y="-480.3" font-family="Helvetica,sans-Serif" font-size="14.00" fill="#000000">Integration</text>
</g>
<!-- IndirectILLEnergyTransferC&#45;&gt;IntegrationC -->
<g id="edge14" class="edge">
<title>IndirectILLEnergyTransferC&#45;&gt;IntegrationC</title>
<path fill="none" stroke="#000000" d="M322.4313,-538.9551C322.763,-530.8828 323.1619,-521.1764 323.5316,-512.1817"/>
<polygon fill="#000000" stroke="#000000" points="327.0326,-512.2257 323.9463,-502.0904 320.0385,-511.9382 327.0326,-512.2257"/>
</g>
<!-- IndirectILLEnergyTransferCB -->
<g id="node10" class="node">
<title>IndirectILLEnergyTransferCB</title>
<path fill="#87cefa" stroke="#000000" d="M190.1897,-648C190.1897,-648 41.1897,-648 41.1897,-648 35.1897,-648 29.1897,-642 29.1897,-636 29.1897,-636 29.1897,-624 29.1897,-624 29.1897,-618 35.1897,-612 41.1897,-612 41.1897,-612 190.1897,-612 190.1897,-612 196.1897,-612 202.1897,-618 202.1897,-624 202.1897,-624 202.1897,-636 202.1897,-636 202.1897,-642 196.1897,-648 190.1897,-648"/>
<text text-anchor="middle" x="115.6897" y="-626.3" font-family="Helvetica,sans-Serif" font-size="14.00" fill="#000000">IndirectILLEnergyTransfer</text>
</g>
<!-- IntegrationCB -->
<g id="node18" class="node">
<title>IntegrationCB</title>
<path fill="#87cefa" stroke="#000000" d="M143.6897,-575C143.6897,-575 87.6897,-575 87.6897,-575 81.6897,-575 75.6897,-569 75.6897,-563 75.6897,-563 75.6897,-551 75.6897,-551 75.6897,-545 81.6897,-539 87.6897,-539 87.6897,-539 143.6897,-539 143.6897,-539 149.6897,-539 155.6897,-545 155.6897,-551 155.6897,-551 155.6897,-563 155.6897,-563 155.6897,-569 149.6897,-575 143.6897,-575"/>
<text text-anchor="middle" x="115.6897" y="-553.3" font-family="Helvetica,sans-Serif" font-size="14.00" fill="#000000">Integration</text>
</g>
<!-- IndirectILLEnergyTransferCB&#45;&gt;IntegrationCB -->
<g id="edge27" class="edge">
<title>IndirectILLEnergyTransferCB&#45;&gt;IntegrationCB</title>
<path fill="none" stroke="#000000" d="M115.6897,-611.9551C115.6897,-603.8828 115.6897,-594.1764 115.6897,-585.1817"/>
<polygon fill="#000000" stroke="#000000" points="119.1898,-585.0903 115.6897,-575.0904 112.1898,-585.0904 119.1898,-585.0903"/>
</g>
<!-- SelectNexusFilesByMetadata&#45;&gt;IndirectILLEnergyTransfer -->
<g id="edge2" class="edge">
<title>SelectNexusFilesByMetadata&#45;&gt;IndirectILLEnergyTransfer</title>
<path fill="none" stroke="#000000" d="M725.6897,-538.9551C725.6897,-530.8828 725.6897,-521.1764 725.6897,-512.1817"/>
<polygon fill="#000000" stroke="#000000" points="729.1898,-512.0903 725.6897,-502.0904 722.1898,-512.0904 729.1898,-512.0903"/>
</g>
<!-- SelectNexusFilesByMetadataB&#45;&gt;IndirectILLEnergyTransferB -->
<g id="edge7" class="edge">
<title>SelectNexusFilesByMetadataB&#45;&gt;IndirectILLEnergyTransferB</title>
<path fill="none" stroke="#000000" d="M529.7347,-611.9551C527.9462,-603.7951 525.7917,-593.9652 523.8023,-584.8887"/>
<polygon fill="#000000" stroke="#000000" points="527.2146,-584.1091 521.6547,-575.0904 520.3769,-585.6079 527.2146,-584.1091"/>
</g>
<!-- SelectNexusFilesByMetadataC&#45;&gt;IndirectILLEnergyTransferC -->
<g id="edge13" class="edge">
<title>SelectNexusFilesByMetadataC&#45;&gt;IndirectILLEnergyTransferC</title>
<path fill="none" stroke="#000000" d="M321.6897,-611.9551C321.6897,-603.8828 321.6897,-594.1764 321.6897,-585.1817"/>
<polygon fill="#000000" stroke="#000000" points="325.1898,-585.0903 321.6897,-575.0904 318.1898,-585.0904 325.1898,-585.0903"/>
</g>
<!-- SelectNexusFilesByMetadataCB&#45;&gt;IndirectILLEnergyTransferCB -->
<g id="edge26" class="edge">
<title>SelectNexusFilesByMetadataCB&#45;&gt;IndirectILLEnergyTransferCB</title>
<path fill="none" stroke="#000000" d="M115.6897,-684.9551C115.6897,-676.8828 115.6897,-667.1764 115.6897,-658.1817"/>
<polygon fill="#000000" stroke="#000000" points="119.1898,-658.0903 115.6897,-648.0904 112.1898,-658.0904 119.1898,-658.0903"/>
</g>
<!-- Integration&#45;&gt;Scan -->
<g id="edge4" class="edge">
<title>Integration&#45;&gt;Scan</title>
<path fill="none" stroke="#000000" d="M702.8977,-392.9735C686.5263,-380.0253 664.2764,-362.4276 646.3488,-348.2485"/>
<polygon fill="#000000" stroke="#000000" points="648.4672,-345.4616 638.4526,-342.0034 644.1248,-350.952 648.4672,-345.4616"/>
</g>
<!-- ScanB -->
<g id="node30" class="node">
<title>ScanB</title>
<polygon fill="#20b2aa" stroke="#000000" points="533.6897,-429 479.6897,-429 479.6897,-393 533.6897,-393 533.6897,-429"/>
<text text-anchor="middle" x="506.6897" y="-407.3" font-family="Helvetica,sans-Serif" font-size="14.00" fill="#000000">Scan</text>
</g>
<!-- IntegrationB&#45;&gt;ScanB -->
<g id="edge9" class="edge">
<title>IntegrationB&#45;&gt;ScanB</title>
<path fill="none" stroke="#000000" d="M509.701,-465.9551C509.2587,-457.8828 508.7268,-448.1764 508.2339,-439.1817"/>
<polygon fill="#000000" stroke="#000000" points="511.723,-438.8839 507.681,-429.0904 504.7334,-439.2669 511.723,-438.8839"/>
</g>
<!-- ScanC -->
<g id="node31" class="node">
<title>ScanC</title>
<polygon fill="#20b2aa" stroke="#000000" points="352.6897,-429 298.6897,-429 298.6897,-393 352.6897,-393 352.6897,-429"/>
<text text-anchor="middle" x="325.6897" y="-407.3" font-family="Helvetica,sans-Serif" font-size="14.00" fill="#000000">Scan</text>
</g>
<!-- IntegrationC&#45;&gt;ScanC -->
<g id="edge15" class="edge">
<title>IntegrationC&#45;&gt;ScanC</title>
<path fill="none" stroke="#000000" d="M324.9369,-465.9551C325.0475,-457.8828 325.1805,-448.1764 325.3037,-439.1817"/>
<polygon fill="#000000" stroke="#000000" points="328.8045,-439.1374 325.4419,-429.0904 321.8052,-439.0414 328.8045,-439.1374"/>
</g>
<!-- ScanCB -->
<g id="node32" class="node">
<title>ScanCB</title>
<polygon fill="#20b2aa" stroke="#000000" points="142.6897,-502 88.6897,-502 88.6897,-466 142.6897,-466 142.6897,-502"/>
<text text-anchor="middle" x="115.6897" y="-480.3" font-family="Helvetica,sans-Serif" font-size="14.00" fill="#000000">Scan</text>
</g>
<!-- IntegrationCB&#45;&gt;ScanCB -->
<g id="edge28" class="edge">
<title>IntegrationCB&#45;&gt;ScanCB</title>
<path fill="none" stroke="#000000" d="M115.6897,-538.9551C115.6897,-530.8828 115.6897,-521.1764 115.6897,-512.1817"/>
<polygon fill="#000000" stroke="#000000" points="119.1898,-512.0903 115.6897,-502.0904 112.1898,-512.0904 119.1898,-512.0903"/>
</g>
<!-- GroupWorkspaces -->
<g id="node19" class="node">
<title>GroupWorkspaces</title>
<path fill="#87cefa" stroke="#000000" d="M425.6897,-109C425.6897,-109 319.6897,-109 319.6897,-109 313.6897,-109 307.6897,-103 307.6897,-97 307.6897,-97 307.6897,-85 307.6897,-85 307.6897,-79 313.6897,-73 319.6897,-73 319.6897,-73 425.6897,-73 425.6897,-73 431.6897,-73 437.6897,-79 437.6897,-85 437.6897,-85 437.6897,-97 437.6897,-97 437.6897,-103 431.6897,-109 425.6897,-109"/>
<text text-anchor="middle" x="372.6897" y="-87.3" font-family="Helvetica,sans-Serif" font-size="14.00" fill="#000000">GroupWorkspaces</text>
</g>
<!-- GroupWorkspaces&#45;&gt;OutputWorkspace -->
<g id="edge34" class="edge">
<title>GroupWorkspaces&#45;&gt;OutputWorkspace</title>
<path fill="none" stroke="#000000" d="M372.6897,-72.9551C372.6897,-64.8828 372.6897,-55.1764 372.6897,-46.1817"/>
<polygon fill="#000000" stroke="#000000" points="376.1898,-46.0903 372.6897,-36.0904 369.1898,-46.0904 376.1898,-46.0903"/>
</g>
<!-- SplineInterpolationB -->
<g id="node20" class="node">
<title>SplineInterpolationB</title>
<path fill="#87cefa" stroke="#000000" d="M558.6897,-342C558.6897,-342 454.6897,-342 454.6897,-342 448.6897,-342 442.6897,-336 442.6897,-330 442.6897,-330 442.6897,-318 442.6897,-318 442.6897,-312 448.6897,-306 454.6897,-306 454.6897,-306 558.6897,-306 558.6897,-306 564.6897,-306 570.6897,-312 570.6897,-318 570.6897,-318 570.6897,-330 570.6897,-330 570.6897,-336 564.6897,-342 558.6897,-342"/>
<text text-anchor="middle" x="506.6897" y="-320.3" font-family="Helvetica,sans-Serif" font-size="14.00" fill="#000000">SplineInterpolation</text>
</g>
<!-- MinusA -->
<g id="node26" class="node">
<title>MinusA</title>
<path fill="#87cefa" stroke="#000000" d="M503.6897,-255C503.6897,-255 473.6897,-255 473.6897,-255 467.6897,-255 461.6897,-249 461.6897,-243 461.6897,-243 461.6897,-231 461.6897,-231 461.6897,-225 467.6897,-219 473.6897,-219 473.6897,-219 503.6897,-219 503.6897,-219 509.6897,-219 515.6897,-225 515.6897,-231 515.6897,-231 515.6897,-243 515.6897,-243 515.6897,-249 509.6897,-255 503.6897,-255"/>
<text text-anchor="middle" x="488.6897" y="-233.3" font-family="Helvetica,sans-Serif" font-size="14.00" fill="#000000">Minus</text>
</g>
<!-- SplineInterpolationB&#45;&gt;MinusA -->
<g id="edge21" class="edge">
<title>SplineInterpolationB&#45;&gt;MinusA</title>
<path fill="none" stroke="#000000" d="M502.9601,-305.9735C500.5225,-294.1918 497.2885,-278.5607 494.5155,-265.1581"/>
<polygon fill="#000000" stroke="#000000" points="497.8681,-264.0868 492.4146,-255.0034 491.0133,-265.5051 497.8681,-264.0868"/>
</g>
<!-- SplineInterpolationC -->
<g id="node21" class="node">
<title>SplineInterpolationC</title>
<path fill="#87cefa" stroke="#000000" d="M424.6897,-255C424.6897,-255 320.6897,-255 320.6897,-255 314.6897,-255 308.6897,-249 308.6897,-243 308.6897,-243 308.6897,-231 308.6897,-231 308.6897,-225 314.6897,-219 320.6897,-219 320.6897,-219 424.6897,-219 424.6897,-219 430.6897,-219 436.6897,-225 436.6897,-231 436.6897,-231 436.6897,-243 436.6897,-243 436.6897,-249 430.6897,-255 424.6897,-255"/>
<text text-anchor="middle" x="372.6897" y="-233.3" font-family="Helvetica,sans-Serif" font-size="14.00" fill="#000000">SplineInterpolation</text>
</g>
<!-- Divide -->
<g id="node28" class="node">
<title>Divide</title>
<path fill="#87cefa" stroke="#000000" d="M387.6897,-182C387.6897,-182 357.6897,-182 357.6897,-182 351.6897,-182 345.6897,-176 345.6897,-170 345.6897,-170 345.6897,-158 345.6897,-158 345.6897,-152 351.6897,-146 357.6897,-146 357.6897,-146 387.6897,-146 387.6897,-146 393.6897,-146 399.6897,-152 399.6897,-158 399.6897,-158 399.6897,-170 399.6897,-170 399.6897,-176 393.6897,-182 387.6897,-182"/>
<text text-anchor="middle" x="372.6897" y="-160.3" font-family="Helvetica,sans-Serif" font-size="14.00" fill="#000000">Divide</text>
</g>
<!-- SplineInterpolationC&#45;&gt;Divide -->
<g id="edge24" class="edge">
<title>SplineInterpolationC&#45;&gt;Divide</title>
<path fill="none" stroke="#000000" d="M372.6897,-218.9551C372.6897,-210.8828 372.6897,-201.1764 372.6897,-192.1817"/>
<polygon fill="#000000" stroke="#000000" points="376.1898,-192.0903 372.6897,-182.0904 369.1898,-192.0904 376.1898,-192.0903"/>
</g>
<!-- SplineInterpolationCB -->
<g id="node22" class="node">
<title>SplineInterpolationCB</title>
<path fill="#87cefa" stroke="#000000" d="M268.6897,-429C268.6897,-429 164.6897,-429 164.6897,-429 158.6897,-429 152.6897,-423 152.6897,-417 152.6897,-417 152.6897,-405 152.6897,-405 152.6897,-399 158.6897,-393 164.6897,-393 164.6897,-393 268.6897,-393 268.6897,-393 274.6897,-393 280.6897,-399 280.6897,-405 280.6897,-405 280.6897,-417 280.6897,-417 280.6897,-423 274.6897,-429 268.6897,-429"/>
<text text-anchor="middle" x="216.6897" y="-407.3" font-family="Helvetica,sans-Serif" font-size="14.00" fill="#000000">SplineInterpolation</text>
</g>
<!-- MinusB -->
<g id="node27" class="node">
<title>MinusB</title>
<path fill="#87cefa" stroke="#000000" d="M265.6897,-342C265.6897,-342 235.6897,-342 235.6897,-342 229.6897,-342 223.6897,-336 223.6897,-330 223.6897,-330 223.6897,-318 223.6897,-318 223.6897,-312 229.6897,-306 235.6897,-306 235.6897,-306 265.6897,-306 265.6897,-306 271.6897,-306 277.6897,-312 277.6897,-318 277.6897,-318 277.6897,-330 277.6897,-330 277.6897,-336 271.6897,-342 265.6897,-342"/>
<text text-anchor="middle" x="250.6897" y="-320.3" font-family="Helvetica,sans-Serif" font-size="14.00" fill="#000000">Minus</text>
</g>
<!-- SplineInterpolationCB&#45;&gt;MinusB -->
<g id="edge32" class="edge">
<title>SplineInterpolationCB&#45;&gt;MinusB</title>
<path fill="none" stroke="#000000" d="M223.7346,-392.9735C228.4301,-380.9585 234.6902,-364.9401 239.9955,-351.3646"/>
<polygon fill="#000000" stroke="#000000" points="243.2738,-352.5914 243.6539,-342.0034 236.754,-350.0434 243.2738,-352.5914"/>
</g>
<!-- IntegrationBB -->
<g id="node23" class="node">
<title>IntegrationBB</title>
<path fill="#87cefa" stroke="#000000" d="M412.6897,-342C412.6897,-342 356.6897,-342 356.6897,-342 350.6897,-342 344.6897,-336 344.6897,-330 344.6897,-330 344.6897,-318 344.6897,-318 344.6897,-312 350.6897,-306 356.6897,-306 356.6897,-306 412.6897,-306 412.6897,-306 418.6897,-306 424.6897,-312 424.6897,-318 424.6897,-318 424.6897,-330 424.6897,-330 424.6897,-336 418.6897,-342 412.6897,-342"/>
<text text-anchor="middle" x="384.6897" y="-320.3" font-family="Helvetica,sans-Serif" font-size="14.00" fill="#000000">Integration</text>
</g>
<!-- IntegrationBB&#45;&gt;MinusA -->
<g id="edge20" class="edge">
<title>IntegrationBB&#45;&gt;MinusA</title>
<path fill="none" stroke="#000000" d="M406.2386,-305.9735C421.5776,-293.1419 442.3747,-275.7443 459.2439,-261.6326"/>
<polygon fill="#000000" stroke="#000000" points="461.7441,-264.1043 467.1685,-255.0034 457.2526,-258.7352 461.7441,-264.1043"/>
</g>
<!-- IntegrationCC -->
<g id="node24" class="node">
<title>IntegrationCC</title>
<path fill="#87cefa" stroke="#000000" d="M278.6897,-255C278.6897,-255 222.6897,-255 222.6897,-255 216.6897,-255 210.6897,-249 210.6897,-243 210.6897,-243 210.6897,-231 210.6897,-231 210.6897,-225 216.6897,-219 222.6897,-219 222.6897,-219 278.6897,-219 278.6897,-219 284.6897,-219 290.6897,-225 290.6897,-231 290.6897,-231 290.6897,-243 290.6897,-243 290.6897,-249 284.6897,-255 278.6897,-255"/>
<text text-anchor="middle" x="250.6897" y="-233.3" font-family="Helvetica,sans-Serif" font-size="14.00" fill="#000000">Integration</text>
</g>
<!-- IntegrationCC&#45;&gt;Divide -->
<g id="edge23" class="edge">
<title>IntegrationCC&#45;&gt;Divide</title>
<path fill="none" stroke="#000000" d="M280.847,-218.9551C297.6716,-208.8879 318.7442,-196.2789 336.4594,-185.6788"/>
<polygon fill="#000000" stroke="#000000" points="338.593,-188.4809 345.377,-180.3429 334.9987,-182.4741 338.593,-188.4809"/>
</g>
<!-- IntegrationCCBB -->
<g id="node25" class="node">
<title>IntegrationCCBB</title>
<path fill="#87cefa" stroke="#000000" d="M122.6897,-429C122.6897,-429 66.6897,-429 66.6897,-429 60.6897,-429 54.6897,-423 54.6897,-417 54.6897,-417 54.6897,-405 54.6897,-405 54.6897,-399 60.6897,-393 66.6897,-393 66.6897,-393 122.6897,-393 122.6897,-393 128.6897,-393 134.6897,-399 134.6897,-405 134.6897,-405 134.6897,-417 134.6897,-417 134.6897,-423 128.6897,-429 122.6897,-429"/>
<text text-anchor="middle" x="94.6897" y="-407.3" font-family="Helvetica,sans-Serif" font-size="14.00" fill="#000000">Integration</text>
</g>
<!-- IntegrationCCBB&#45;&gt;MinusB -->
<g id="edge30" class="edge">
<title>IntegrationCCBB&#45;&gt;MinusB</title>
<path fill="none" stroke="#000000" d="M127.013,-392.9735C152.5594,-378.7265 188.1987,-358.8508 214.6603,-344.0934"/>
<polygon fill="#000000" stroke="#000000" points="216.5768,-347.0321 223.6057,-339.1046 213.1673,-340.9185 216.5768,-347.0321"/>
</g>
<!-- MinusA&#45;&gt;Divide -->
<g id="edge22" class="edge">
<title>MinusA&#45;&gt;Divide</title>
<path fill="none" stroke="#000000" d="M461.4929,-219.8847C445.64,-209.9083 425.4619,-197.2101 408.3475,-186.4398"/>
<polygon fill="#000000" stroke="#000000" points="410.0439,-183.372 399.7162,-181.008 406.3156,-189.2965 410.0439,-183.372"/>
</g>
<!-- MinusB&#45;&gt;SplineInterpolationC -->
<g id="edge18" class="edge">
<title>MinusB&#45;&gt;SplineInterpolationC</title>
<path fill="none" stroke="#000000" d="M275.9682,-305.9735C294.2892,-292.9086 319.2478,-275.1102 339.2222,-260.8662"/>
<polygon fill="#000000" stroke="#000000" points="341.3339,-263.6591 347.4436,-255.0034 337.2696,-257.9598 341.3339,-263.6591"/>
<text text-anchor="middle" x="351.6897" y="-276.8" font-family="Helvetica,sans-Serif" font-size="14.00" fill="#000000">Interpolate</text>
</g>
<!-- MinusB&#45;&gt;IntegrationCC -->
<g id="edge17" class="edge">
<title>MinusB&#45;&gt;IntegrationCC</title>
<path fill="none" stroke="#000000" d="M250.6897,-305.9735C250.6897,-294.1918 250.6897,-278.5607 250.6897,-265.1581"/>
<polygon fill="#000000" stroke="#000000" points="254.1898,-265.0033 250.6897,-255.0034 247.1898,-265.0034 254.1898,-265.0033"/>
<text text-anchor="middle" x="265.1897" y="-276.8" font-family="Helvetica,sans-Serif" font-size="14.00" fill="#000000">Sum</text>
</g>
<!-- Divide&#45;&gt;GroupWorkspaces -->
<g id="edge33" class="edge">
<title>Divide&#45;&gt;GroupWorkspaces</title>
<path fill="none" stroke="#000000" d="M372.6897,-145.9551C372.6897,-137.8828 372.6897,-128.1764 372.6897,-119.1817"/>
<polygon fill="#000000" stroke="#000000" points="376.1898,-119.0903 372.6897,-109.0904 369.1898,-119.0904 376.1898,-119.0903"/>
</g>
<!-- Scan&#45;&gt;MinusA -->
<g id="edge19" class="edge">
<title>Scan&#45;&gt;MinusA</title>
<path fill="none" stroke="#000000" d="M589.3753,-305.9735C570.2183,-292.8503 544.0897,-274.9512 523.2507,-260.6756"/>
<polygon fill="#000000" stroke="#000000" points="525.1984,-257.7674 514.9705,-255.0034 521.2424,-263.5424 525.1984,-257.7674"/>
</g>
<!-- ScanB&#45;&gt;SplineInterpolationB -->
<g id="edge11" class="edge">
<title>ScanB&#45;&gt;SplineInterpolationB</title>
<path fill="none" stroke="#000000" d="M506.6897,-392.9735C506.6897,-381.1918 506.6897,-365.5607 506.6897,-352.1581"/>
<polygon fill="#000000" stroke="#000000" points="510.1898,-352.0033 506.6897,-342.0034 503.1898,-352.0034 510.1898,-352.0033"/>
<text text-anchor="middle" x="538.6897" y="-363.8" font-family="Helvetica,sans-Serif" font-size="14.00" fill="#000000">Interpolate</text>
</g>
<!-- ScanB&#45;&gt;IntegrationBB -->
<g id="edge10" class="edge">
<title>ScanB&#45;&gt;IntegrationBB</title>
<path fill="none" stroke="#000000" d="M481.4113,-392.9735C463.0903,-379.9086 438.1316,-362.1102 418.1572,-347.8662"/>
<polygon fill="#000000" stroke="#000000" points="420.1098,-344.9598 409.9358,-342.0034 416.0456,-350.6591 420.1098,-344.9598"/>
<text text-anchor="middle" x="468.1897" y="-363.8" font-family="Helvetica,sans-Serif" font-size="14.00" fill="#000000">Sum</text>
</g>
<!-- ScanC&#45;&gt;MinusB -->
<g id="edge16" class="edge">
<title>ScanC&#45;&gt;MinusB</title>
<path fill="none" stroke="#000000" d="M310.1497,-392.9735C299.3896,-380.4919 284.9052,-363.6899 272.9263,-349.7944"/>
<polygon fill="#000000" stroke="#000000" points="275.3902,-347.2922 266.2099,-342.0034 270.0884,-351.8628 275.3902,-347.2922"/>
</g>
<!-- ScanCB&#45;&gt;SplineInterpolationCB -->
<g id="edge31" class="edge">
<title>ScanCB&#45;&gt;SplineInterpolationCB</title>
<path fill="none" stroke="#000000" d="M140.656,-465.9551C153.524,-456.6545 169.3935,-445.1844 183.3,-435.1332"/>
<polygon fill="#000000" stroke="#000000" points="185.6062,-437.7849 191.6606,-429.0904 181.5057,-432.1116 185.6062,-437.7849"/>
</g>
<!-- ScanCB&#45;&gt;IntegrationCCBB -->
<g id="edge29" class="edge">
<title>ScanCB&#45;&gt;IntegrationCCBB</title>
<path fill="none" stroke="#000000" d="M110.4987,-465.9551C108.1513,-457.7951 105.3236,-447.9652 102.7125,-438.8887"/>
<polygon fill="#000000" stroke="#000000" points="106.0221,-437.733 99.8938,-429.0904 99.2949,-439.6683 106.0221,-437.733"/>
</g>
</g>
</svg>
