<?xml version="1.0" encoding="UTF-8" standalone="no"?>
<!DOCTYPE svg PUBLIC "-//W3C//DTD SVG 1.1//EN"
 "http://www.w3.org/Graphics/SVG/1.1/DTD/svg11.dtd">
<!-- Generated by graphviz version 2.40.1 (20161225.0304)
 -->
<!-- Title: isisPowderCreateVanadium Pages: 1 -->
<svg width="1143pt" height="606pt"
 viewBox="0.00 0.00 1143.24 606.48" xmlns="http://www.w3.org/2000/svg" xmlns:xlink="http://www.w3.org/1999/xlink">
<g id="graph0" class="graph" transform="scale(1 1) rotate(0) translate(4 602.4802)">
<title>isisPowderCreateVanadium</title>
<polygon fill="#ffffff" stroke="transparent" points="-4,4 -4,-602.4802 1139.2382,-602.4802 1139.2382,4 -4,4"/>
<text text-anchor="middle" x="567.6191" y="-583.2802" font-family="Helvetica,sans-Serif" font-size="14.00" fill="#000000">ISISPowder &#45; Normalise By Current</text>
<!-- label_normaliseByCurrentGeneric -->
<g id="node1" class="node">
<title>label_normaliseByCurrentGeneric</title>
<ellipse fill="#d3d3d3" stroke="#000000" cx="133.2382" cy="-557.4802" rx="133.4768" ry="18"/>
<text text-anchor="middle" x="133.2382" y="-553.7802" font-family="Helvetica,sans-Serif" font-size="14.00" fill="#000000">Normalise by Current &#45; Generic</text>
</g>
<!-- alg_NormaliseByCurrent -->
<g id="node7" class="node">
<title>alg_NormaliseByCurrent</title>
<path fill="#87cefa" stroke="#000000" d="M193.7382,-503.4802C193.7382,-503.4802 72.7382,-503.4802 72.7382,-503.4802 66.7382,-503.4802 60.7382,-497.4802 60.7382,-491.4802 60.7382,-491.4802 60.7382,-479.4802 60.7382,-479.4802 60.7382,-473.4802 66.7382,-467.4802 72.7382,-467.4802 72.7382,-467.4802 193.7382,-467.4802 193.7382,-467.4802 199.7382,-467.4802 205.7382,-473.4802 205.7382,-479.4802 205.7382,-479.4802 205.7382,-491.4802 205.7382,-491.4802 205.7382,-497.4802 199.7382,-503.4802 193.7382,-503.4802"/>
<text text-anchor="middle" x="133.2382" y="-481.7802" font-family="Helvetica,sans-Serif" font-size="14.00" fill="#000000">Normalise by Current</text>
</g>
<!-- label_normaliseByCurrentGeneric&#45;&gt;alg_NormaliseByCurrent -->
<g id="edge1" class="edge">
<title>label_normaliseByCurrentGeneric&#45;&gt;alg_NormaliseByCurrent</title>
<path fill="none" stroke="#000000" d="M133.2382,-539.3116C133.2382,-531.6112 133.2382,-522.4546 133.2382,-513.8969"/>
<polygon fill="#000000" stroke="#000000" points="136.7383,-513.8935 133.2382,-503.8935 129.7383,-513.8935 136.7383,-513.8935"/>
</g>
<!-- label_normaliseByCurrentPearl -->
<g id="node2" class="node">
<title>label_normaliseByCurrentPearl</title>
<ellipse fill="#d3d3d3" stroke="#000000" cx="415.2382" cy="-557.4802" rx="130.777" ry="18"/>
<text text-anchor="middle" x="415.2382" y="-553.7802" font-family="Helvetica,sans-Serif" font-size="14.00" fill="#000000">Normalise by Current &#45; PEARL</text>
</g>
<!-- alg_ExtractSpectrumPearl -->
<g id="node12" class="node">
<title>alg_ExtractSpectrumPearl</title>
<path fill="#87cefa" stroke="#000000" d="M719.7382,-503.4802C719.7382,-503.4802 622.7382,-503.4802 622.7382,-503.4802 616.7382,-503.4802 610.7382,-497.4802 610.7382,-491.4802 610.7382,-491.4802 610.7382,-479.4802 610.7382,-479.4802 610.7382,-473.4802 616.7382,-467.4802 622.7382,-467.4802 622.7382,-467.4802 719.7382,-467.4802 719.7382,-467.4802 725.7382,-467.4802 731.7382,-473.4802 731.7382,-479.4802 731.7382,-479.4802 731.7382,-491.4802 731.7382,-491.4802 731.7382,-497.4802 725.7382,-503.4802 719.7382,-503.4802"/>
<text text-anchor="middle" x="671.2382" y="-481.7802" font-family="Helvetica,sans-Serif" font-size="14.00" fill="#000000">Extract Spectrum</text>
</g>
<!-- label_normaliseByCurrentPearl&#45;&gt;alg_ExtractSpectrumPearl -->
<g id="edge2" class="edge">
<title>label_normaliseByCurrentPearl&#45;&gt;alg_ExtractSpectrumPearl</title>
<path fill="none" stroke="#000000" d="M473.0088,-541.2323C510.8826,-530.5802 560.6376,-516.5866 600.8249,-505.284"/>
<polygon fill="#000000" stroke="#000000" points="601.8795,-508.6232 610.5583,-502.5464 599.9842,-501.8847 601.8795,-508.6232"/>
</g>
<!-- param_advConfigMonitorSpectrum -->
<g id="node3" class="node">
<title>param_advConfigMonitorSpectrum</title>
<ellipse fill="#f0e68c" stroke="#000000" cx="689.2382" cy="-557.4802" rx="125.3778" ry="18"/>
<text text-anchor="middle" x="689.2382" y="-553.7802" font-family="Helvetica,sans-Serif" font-size="14.00" fill="#000000">Adv config: Monitor spectrum</text>
</g>
<!-- param_advConfigMonitorSpectrum&#45;&gt;alg_ExtractSpectrumPearl -->
<g id="edge4" class="edge">
<title>param_advConfigMonitorSpectrum&#45;&gt;alg_ExtractSpectrumPearl</title>
<path fill="none" stroke="#000000" d="M684.696,-539.3116C682.7498,-531.5266 680.4314,-522.2532 678.2719,-513.615"/>
<polygon fill="#000000" stroke="#000000" points="681.6624,-512.746 675.8415,-503.8935 674.8714,-514.4438 681.6624,-512.746"/>
</g>
<!-- param_advConfigMonitorLambdaCropRange -->
<g id="node4" class="node">
<title>param_advConfigMonitorLambdaCropRange</title>
<ellipse fill="#f0e68c" stroke="#000000" cx="889.2382" cy="-404.6102" rx="129.3012" ry="26.7407"/>
<text text-anchor="middle" x="889.2382" y="-408.4102" font-family="Helvetica,sans-Serif" font-size="14.00" fill="#000000">Adv config:</text>
<text text-anchor="middle" x="889.2382" y="-393.4102" font-family="Helvetica,sans-Serif" font-size="14.00" fill="#000000"> Monitor lambda crop range</text>
</g>
<!-- alg_CropWorkspace -->
<g id="node11" class="node">
<title>alg_CropWorkspace</title>
<path fill="#87cefa" stroke="#000000" d="M767.2382,-341.7401C767.2382,-341.7401 673.2382,-341.7401 673.2382,-341.7401 667.2382,-341.7401 661.2382,-335.7401 661.2382,-329.7401 661.2382,-329.7401 661.2382,-317.7401 661.2382,-317.7401 661.2382,-311.7401 667.2382,-305.7401 673.2382,-305.7401 673.2382,-305.7401 767.2382,-305.7401 767.2382,-305.7401 773.2382,-305.7401 779.2382,-311.7401 779.2382,-317.7401 779.2382,-317.7401 779.2382,-329.7401 779.2382,-329.7401 779.2382,-335.7401 773.2382,-341.7401 767.2382,-341.7401"/>
<text text-anchor="middle" x="720.2382" y="-320.0401" font-family="Helvetica,sans-Serif" font-size="14.00" fill="#000000">Crop Workspace</text>
</g>
<!-- param_advConfigMonitorLambdaCropRange&#45;&gt;alg_CropWorkspace -->
<g id="edge6" class="edge">
<title>param_advConfigMonitorLambdaCropRange&#45;&gt;alg_CropWorkspace</title>
<path fill="none" stroke="#000000" d="M837.6143,-379.9071C815.1062,-369.1365 788.9111,-356.6016 766.985,-346.1095"/>
<polygon fill="#000000" stroke="#000000" points="768.4039,-342.9084 757.8727,-341.749 765.3823,-349.2227 768.4039,-342.9084"/>
</g>
<!-- param_advConfigMonitorSplineCoefficient -->
<g id="node5" class="node">
<title>param_advConfigMonitorSplineCoefficient</title>
<ellipse fill="#f0e68c" stroke="#000000" cx="898.2382" cy="-242.8701" rx="120.4167" ry="26.7407"/>
<text text-anchor="middle" x="898.2382" y="-246.6701" font-family="Helvetica,sans-Serif" font-size="14.00" fill="#000000">Adv config:</text>
<text text-anchor="middle" x="898.2382" y="-231.6701" font-family="Helvetica,sans-Serif" font-size="14.00" fill="#000000"> Monitor spline coefficient</text>
</g>
<!-- alg_SplineBackground -->
<g id="node15" class="node">
<title>alg_SplineBackground</title>
<path fill="#87cefa" stroke="#000000" d="M951.2382,-180C951.2382,-180 845.2382,-180 845.2382,-180 839.2382,-180 833.2382,-174 833.2382,-168 833.2382,-168 833.2382,-156 833.2382,-156 833.2382,-150 839.2382,-144 845.2382,-144 845.2382,-144 951.2382,-144 951.2382,-144 957.2382,-144 963.2382,-150 963.2382,-156 963.2382,-156 963.2382,-168 963.2382,-168 963.2382,-174 957.2382,-180 951.2382,-180"/>
<text text-anchor="middle" x="898.2382" y="-158.3" font-family="Helvetica,sans-Serif" font-size="14.00" fill="#000000">Spline Background</text>
</g>
<!-- param_advConfigMonitorSplineCoefficient&#45;&gt;alg_SplineBackground -->
<g id="edge10" class="edge">
<title>param_advConfigMonitorSplineCoefficient&#45;&gt;alg_SplineBackground</title>
<path fill="none" stroke="#000000" d="M898.2382,-215.9415C898.2382,-207.6709 898.2382,-198.5487 898.2382,-190.1957"/>
<polygon fill="#000000" stroke="#000000" points="901.7383,-190.1488 898.2382,-180.1488 894.7383,-190.1489 901.7383,-190.1488"/>
</g>
<!-- param_inputWorkspace -->
<g id="node6" class="node">
<title>param_inputWorkspace</title>
<ellipse fill="#f0e68c" stroke="#000000" cx="1010.2382" cy="-557.4802" rx="105.8812" ry="18"/>
<text text-anchor="middle" x="1010.2382" y="-553.7802" font-family="Helvetica,sans-Serif" font-size="14.00" fill="#000000">Workspace to normalise</text>
</g>
<!-- alg_ConvertUnitsWavelengthInputWs -->
<g id="node10" class="node">
<title>alg_ConvertUnitsWavelengthInputWs</title>
<path fill="#87cefa" stroke="#000000" d="M1123.2382,-341.7401C1123.2382,-341.7401 969.2382,-341.7401 969.2382,-341.7401 963.2382,-341.7401 957.2382,-335.7401 957.2382,-329.7401 957.2382,-329.7401 957.2382,-317.7401 957.2382,-317.7401 957.2382,-311.7401 963.2382,-305.7401 969.2382,-305.7401 969.2382,-305.7401 1123.2382,-305.7401 1123.2382,-305.7401 1129.2382,-305.7401 1135.2382,-311.7401 1135.2382,-317.7401 1135.2382,-317.7401 1135.2382,-329.7401 1135.2382,-329.7401 1135.2382,-335.7401 1129.2382,-341.7401 1123.2382,-341.7401"/>
<text text-anchor="middle" x="1046.2382" y="-320.0401" font-family="Helvetica,sans-Serif" font-size="14.00" fill="#000000">Convert Units: Wavelength</text>
</g>
<!-- param_inputWorkspace&#45;&gt;alg_ConvertUnitsWavelengthInputWs -->
<g id="edge11" class="edge">
<title>param_inputWorkspace&#45;&gt;alg_ConvertUnitsWavelengthInputWs</title>
<path fill="none" stroke="#000000" d="M1013.063,-539.139C1019.3195,-498.5171 1034.3814,-400.7235 1041.8655,-352.131"/>
<polygon fill="#000000" stroke="#000000" points="1045.3633,-352.4124 1043.4264,-341.9961 1038.4449,-351.3468 1045.3633,-352.4124"/>
</g>
<!-- param_inputWorkspace&#45;&gt;alg_ExtractSpectrumPearl -->
<g id="edge3" class="edge">
<title>param_inputWorkspace&#45;&gt;alg_ExtractSpectrumPearl</title>
<path fill="none" stroke="#000000" d="M943.6672,-543.3413C885.5202,-530.9915 801.3644,-513.1177 742.0074,-500.5109"/>
<polygon fill="#000000" stroke="#000000" points="742.4735,-497.0319 731.9645,-498.3779 741.0192,-503.8791 742.4735,-497.0319"/>
</g>
<!-- alg_ConvertUnitsTOF -->
<g id="node8" class="node">
<title>alg_ConvertUnitsTOF</title>
<path fill="#87cefa" stroke="#000000" d="M1027.2382,-36C1027.2382,-36 917.2382,-36 917.2382,-36 911.2382,-36 905.2382,-30 905.2382,-24 905.2382,-24 905.2382,-12 905.2382,-12 905.2382,-6 911.2382,0 917.2382,0 917.2382,0 1027.2382,0 1027.2382,0 1033.2382,0 1039.2382,-6 1039.2382,-12 1039.2382,-12 1039.2382,-24 1039.2382,-24 1039.2382,-30 1033.2382,-36 1027.2382,-36"/>
<text text-anchor="middle" x="972.2382" y="-14.3" font-family="Helvetica,sans-Serif" font-size="14.00" fill="#000000">Convert Units: TOF</text>
</g>
<!-- alg_ConvertUnitsWavelength -->
<g id="node9" class="node">
<title>alg_ConvertUnitsWavelength</title>
<path fill="#87cefa" stroke="#000000" d="M730.2382,-422.6102C730.2382,-422.6102 576.2382,-422.6102 576.2382,-422.6102 570.2382,-422.6102 564.2382,-416.6102 564.2382,-410.6102 564.2382,-410.6102 564.2382,-398.6102 564.2382,-398.6102 564.2382,-392.6102 570.2382,-386.6102 576.2382,-386.6102 576.2382,-386.6102 730.2382,-386.6102 730.2382,-386.6102 736.2382,-386.6102 742.2382,-392.6102 742.2382,-398.6102 742.2382,-398.6102 742.2382,-410.6102 742.2382,-410.6102 742.2382,-416.6102 736.2382,-422.6102 730.2382,-422.6102"/>
<text text-anchor="middle" x="653.2382" y="-400.9102" font-family="Helvetica,sans-Serif" font-size="14.00" fill="#000000">Convert Units: Wavelength</text>
</g>
<!-- alg_ConvertUnitsWavelength&#45;&gt;alg_CropWorkspace -->
<g id="edge7" class="edge">
<title>alg_ConvertUnitsWavelength&#45;&gt;alg_CropWorkspace</title>
<path fill="none" stroke="#000000" d="M668.4415,-386.2595C677.3505,-375.5062 688.75,-361.7469 698.5855,-349.8753"/>
<polygon fill="#000000" stroke="#000000" points="701.4104,-351.9517 705.095,-342.0182 696.02,-347.4858 701.4104,-351.9517"/>
</g>
<!-- alg_NormaliseToMonitor -->
<g id="node14" class="node">
<title>alg_NormaliseToMonitor</title>
<path fill="#87cefa" stroke="#000000" d="M1031.7382,-108C1031.7382,-108 912.7382,-108 912.7382,-108 906.7382,-108 900.7382,-102 900.7382,-96 900.7382,-96 900.7382,-84 900.7382,-84 900.7382,-78 906.7382,-72 912.7382,-72 912.7382,-72 1031.7382,-72 1031.7382,-72 1037.7382,-72 1043.7382,-78 1043.7382,-84 1043.7382,-84 1043.7382,-96 1043.7382,-96 1043.7382,-102 1037.7382,-108 1031.7382,-108"/>
<text text-anchor="middle" x="972.2382" y="-86.3" font-family="Helvetica,sans-Serif" font-size="14.00" fill="#000000">Normalise to monitor</text>
</g>
<!-- alg_ConvertUnitsWavelengthInputWs&#45;&gt;alg_NormaliseToMonitor -->
<g id="edge13" class="edge">
<title>alg_ConvertUnitsWavelengthInputWs&#45;&gt;alg_NormaliseToMonitor</title>
<path fill="none" stroke="#000000" d="M1044.3595,-305.5153C1041.8213,-283.8409 1036.5112,-246.7304 1027.2382,-216 1016.6464,-180.8994 998.9631,-142.5566 986.5122,-117.5002"/>
<polygon fill="#000000" stroke="#000000" points="989.4838,-115.6194 981.8592,-108.263 983.2321,-118.7685 989.4838,-115.6194"/>
</g>
<!-- alg_MaskBins -->
<g id="node13" class="node">
<title>alg_MaskBins</title>
<path fill="#87cefa" stroke="#000000" d="M748.2382,-260.8701C748.2382,-260.8701 692.2382,-260.8701 692.2382,-260.8701 686.2382,-260.8701 680.2382,-254.8701 680.2382,-248.8701 680.2382,-248.8701 680.2382,-236.8701 680.2382,-236.8701 680.2382,-230.8701 686.2382,-224.8701 692.2382,-224.8701 692.2382,-224.8701 748.2382,-224.8701 748.2382,-224.8701 754.2382,-224.8701 760.2382,-230.8701 760.2382,-236.8701 760.2382,-236.8701 760.2382,-248.8701 760.2382,-248.8701 760.2382,-254.8701 754.2382,-260.8701 748.2382,-260.8701"/>
<text text-anchor="middle" x="720.2382" y="-239.1701" font-family="Helvetica,sans-Serif" font-size="14.00" fill="#000000">Mask Bins</text>
</g>
<!-- alg_CropWorkspace&#45;&gt;alg_MaskBins -->
<g id="edge8" class="edge">
<title>alg_CropWorkspace&#45;&gt;alg_MaskBins</title>
<path fill="none" stroke="#000000" d="M720.2382,-305.3894C720.2382,-295.3599 720.2382,-282.7154 720.2382,-271.4265"/>
<polygon fill="#000000" stroke="#000000" points="723.7383,-271.1481 720.2382,-261.1481 716.7383,-271.1481 723.7383,-271.1481"/>
</g>
<!-- alg_ExtractSpectrumPearl&#45;&gt;alg_ConvertUnitsWavelength -->
<g id="edge5" class="edge">
<title>alg_ExtractSpectrumPearl&#45;&gt;alg_ConvertUnitsWavelength</title>
<path fill="none" stroke="#000000" d="M667.1537,-467.1296C664.8983,-456.9966 662.0488,-444.1945 659.5166,-432.8179"/>
<polygon fill="#000000" stroke="#000000" points="662.8956,-431.8889 657.3065,-422.8882 656.0628,-433.4098 662.8956,-431.8889"/>
</g>
<!-- alg_MaskBins&#45;&gt;alg_SplineBackground -->
<g id="edge9" class="edge">
<title>alg_MaskBins&#45;&gt;alg_SplineBackground</title>
<path fill="none" stroke="#000000" d="M752.1424,-224.7468C757.785,-221.7224 763.6444,-218.6953 769.2382,-216 792.7782,-204.6575 819.3253,-193.3077 842.1906,-183.9616"/>
<polygon fill="#000000" stroke="#000000" points="843.7949,-187.0879 851.7451,-180.0847 841.1628,-180.6015 843.7949,-187.0879"/>
</g>
<!-- alg_NormaliseToMonitor&#45;&gt;alg_ConvertUnitsTOF -->
<g id="edge14" class="edge">
<title>alg_NormaliseToMonitor&#45;&gt;alg_ConvertUnitsTOF</title>
<path fill="none" stroke="#000000" d="M972.2382,-71.8314C972.2382,-64.131 972.2382,-54.9743 972.2382,-46.4166"/>
<polygon fill="#000000" stroke="#000000" points="975.7383,-46.4132 972.2382,-36.4133 968.7383,-46.4133 975.7383,-46.4132"/>
</g>
<!-- alg_SplineBackground&#45;&gt;alg_NormaliseToMonitor -->
<g id="edge12" class="edge">
<title>alg_SplineBackground&#45;&gt;alg_NormaliseToMonitor</title>
<path fill="none" stroke="#000000" d="M916.9115,-143.8314C925.7631,-135.219 936.4868,-124.7851 946.1277,-115.4048"/>
<polygon fill="#000000" stroke="#000000" points="948.8443,-117.645 953.5708,-108.1628 943.9628,-112.6279 948.8443,-117.645"/>
</g>
</g>
</svg>
