<?xml version="1.0" encoding="UTF-8" standalone="no"?>
<!DOCTYPE svg PUBLIC "-//W3C//DTD SVG 1.1//EN"
 "http://www.w3.org/Graphics/SVG/1.1/DTD/svg11.dtd">
<!-- Generated by graphviz version 2.40.1 (20161225.0304)
 -->
<!-- Title: MatchAndMergeWorkspaces Pages: 1 -->
<svg width="710pt" height="770pt"
 viewBox="0.00 0.00 710.49 770.00" xmlns="http://www.w3.org/2000/svg" xmlns:xlink="http://www.w3.org/1999/xlink">
<g id="graph0" class="graph" transform="scale(1 1) rotate(0) translate(4 766)">
<title>MatchAndMergeWorkspaces</title>
<polygon fill="#ffffff" stroke="transparent" points="-4,4 -4,-766 706.4937,-766 706.4937,4 -4,4"/>
<text text-anchor="middle" x="351.2468" y="-746.8" font-family="Helvetica,sans-Serif" font-size="14.00" fill="#000000">MatchAndMergeWorkspaces Workflow Diagram</text>
<!-- inputWorkspace -->
<g id="node1" class="node">
<title>inputWorkspace</title>
<ellipse fill="#f0e68c" stroke="#000000" cx="302" cy="-721" rx="79.0865" ry="18"/>
<text text-anchor="middle" x="302" y="-717.3" font-family="Helvetica,sans-Serif" font-size="14.00" fill="#000000">InputWorkspaces</text>
</g>
<!-- findLargestRange -->
<g id="node15" class="node">
<title>findLargestRange</title>
<polygon fill="#20b2aa" stroke="#000000" points="437.5,-666 166.5,-666 166.5,-630 437.5,-630 437.5,-666"/>
<text text-anchor="middle" x="302" y="-644.3" font-family="Helvetica,sans-Serif" font-size="14.00" fill="#000000">Find detector data with the largest X range</text>
</g>
<!-- inputWorkspace&#45;&gt;findLargestRange -->
<g id="edge1" class="edge">
<title>inputWorkspace&#45;&gt;findLargestRange</title>
<path fill="none" stroke="#000000" d="M302,-702.9551C302,-694.8828 302,-685.1764 302,-676.1817"/>
<polygon fill="#000000" stroke="#000000" points="305.5001,-676.0903 302,-666.0904 298.5001,-676.0904 305.5001,-676.0903"/>
</g>
<!-- outputWorkspace -->
<g id="node2" class="node">
<title>outputWorkspace</title>
<ellipse fill="#f0e68c" stroke="#000000" cx="532" cy="-18" rx="81.7856" ry="18"/>
<text text-anchor="middle" x="532" y="-14.3" font-family="Helvetica,sans-Serif" font-size="14.00" fill="#000000">OutputWorkspace</text>
</g>
<!-- xMin -->
<g id="node3" class="node">
<title>xMin</title>
<ellipse fill="#f0e68c" stroke="#000000" cx="532" cy="-310" rx="31.3957" ry="18"/>
<text text-anchor="middle" x="532" y="-306.3" font-family="Helvetica,sans-Serif" font-size="14.00" fill="#000000">XMin</text>
</g>
<!-- CropWorkspaceRagged -->
<g id="node12" class="node">
<title>CropWorkspaceRagged</title>
<path fill="#87cefa" stroke="#000000" d="M609.5,-255C609.5,-255 454.5,-255 454.5,-255 448.5,-255 442.5,-249 442.5,-243 442.5,-243 442.5,-231 442.5,-231 442.5,-225 448.5,-219 454.5,-219 454.5,-219 609.5,-219 609.5,-219 615.5,-219 621.5,-225 621.5,-231 621.5,-231 621.5,-243 621.5,-243 621.5,-249 615.5,-255 609.5,-255"/>
<text text-anchor="middle" x="532" y="-233.3" font-family="Helvetica,sans-Serif" font-size="14.00" fill="#000000">CropWorkspaceRagged v1</text>
</g>
<!-- xMin&#45;&gt;CropWorkspaceRagged -->
<g id="edge12" class="edge">
<title>xMin&#45;&gt;CropWorkspaceRagged</title>
<path fill="none" stroke="#000000" d="M532,-291.9551C532,-283.8828 532,-274.1764 532,-265.1817"/>
<polygon fill="#000000" stroke="#000000" points="535.5001,-265.0903 532,-255.0904 528.5001,-265.0904 535.5001,-265.0903"/>
</g>
<!-- xMax -->
<g id="node4" class="node">
<title>xMax</title>
<ellipse fill="#f0e68c" stroke="#000000" cx="615" cy="-310" rx="33.5952" ry="18"/>
<text text-anchor="middle" x="615" y="-306.3" font-family="Helvetica,sans-Serif" font-size="14.00" fill="#000000">XMax</text>
</g>
<!-- xMax&#45;&gt;CropWorkspaceRagged -->
<g id="edge13" class="edge">
<title>xMax&#45;&gt;CropWorkspaceRagged</title>
<path fill="none" stroke="#000000" d="M597.3978,-294.5186C586.6241,-285.0429 572.5907,-272.7003 560.2872,-261.8791"/>
<polygon fill="#000000" stroke="#000000" points="562.324,-259.0094 552.5035,-255.0332 557.701,-264.2656 562.324,-259.0094"/>
</g>
<!-- calculateScale -->
<g id="node5" class="node">
<title>calculateScale</title>
<ellipse fill="#f0e68c" stroke="#000000" cx="472" cy="-432" rx="69.5877" ry="18"/>
<text text-anchor="middle" x="472" y="-428.3" font-family="Helvetica,sans-Serif" font-size="14.00" fill="#000000">CalculateScale</text>
</g>
<!-- MatchSpectra -->
<g id="node11" class="node">
<title>MatchSpectra</title>
<path fill="#87cefa" stroke="#000000" d="M470.5,-328C470.5,-328 375.5,-328 375.5,-328 369.5,-328 363.5,-322 363.5,-316 363.5,-316 363.5,-304 363.5,-304 363.5,-298 369.5,-292 375.5,-292 375.5,-292 470.5,-292 470.5,-292 476.5,-292 482.5,-298 482.5,-304 482.5,-304 482.5,-316 482.5,-316 482.5,-322 476.5,-328 470.5,-328"/>
<text text-anchor="middle" x="423" y="-306.3" font-family="Helvetica,sans-Serif" font-size="14.00" fill="#000000">MatchSpectra v1</text>
</g>
<!-- calculateScale&#45;&gt;MatchSpectra -->
<g id="edge9" class="edge">
<title>calculateScale&#45;&gt;MatchSpectra</title>
<path fill="none" stroke="#000000" d="M464.7699,-413.9985C456.6637,-393.8156 443.4254,-360.8551 434.0266,-337.454"/>
<polygon fill="#000000" stroke="#000000" points="437.2347,-336.0504 430.2598,-328.0754 430.739,-338.6594 437.2347,-336.0504"/>
</g>
<!-- calculateOffset -->
<g id="node6" class="node">
<title>calculateOffset</title>
<ellipse fill="#f0e68c" stroke="#000000" cx="631" cy="-432" rx="71.4873" ry="18"/>
<text text-anchor="middle" x="631" y="-428.3" font-family="Helvetica,sans-Serif" font-size="14.00" fill="#000000">CalculateOffset</text>
</g>
<!-- calculateOffset&#45;&gt;MatchSpectra -->
<g id="edge10" class="edge">
<title>calculateOffset&#45;&gt;MatchSpectra</title>
<path fill="none" stroke="#000000" d="M606.5066,-414.9386C590.8586,-404.2483 570.0081,-390.3878 551,-379 523.8277,-362.721 492.5429,-345.8243 467.7042,-332.8259"/>
<polygon fill="#000000" stroke="#000000" points="469.0081,-329.5589 458.5221,-328.0445 465.775,-335.7675 469.0081,-329.5589"/>
</g>
<!-- matchSpectraIndex -->
<g id="node7" class="node">
<title>matchSpectraIndex</title>
<ellipse fill="#f0e68c" stroke="#000000" cx="365" cy="-521" rx="153.2729" ry="18"/>
<text text-anchor="middle" x="365" y="-517.3" font-family="Helvetica,sans-Serif" font-size="14.00" fill="#000000">Index of spectra with largest X range</text>
</g>
<!-- matchSpectraIndex&#45;&gt;MatchSpectra -->
<g id="edge8" class="edge">
<title>matchSpectraIndex&#45;&gt;MatchSpectra</title>
<path fill="none" stroke="#000000" d="M367.3139,-502.757C371.0665,-475.4244 379.455,-422.4169 393,-379 397.3896,-364.9297 403.7378,-349.8579 409.4653,-337.4009"/>
<polygon fill="#000000" stroke="#000000" points="412.7796,-338.5783 413.8763,-328.0404 406.4475,-335.5943 412.7796,-338.5783"/>
</g>
<!-- isGroupWsNotConjoined -->
<g id="node8" class="node">
<title>isGroupWsNotConjoined</title>
<polygon fill="#32cd32" stroke="#000000" points="173,-485 0,-432 173,-379 346,-432 173,-485"/>
<text text-anchor="middle" x="173" y="-443.3" font-family="Helvetica,sans-Serif" font-size="14.00" fill="#000000">Are there</text>
<text text-anchor="middle" x="173" y="-428.3" font-family="Helvetica,sans-Serif" font-size="14.00" fill="#000000"> un&#45;conjoined workspaces</text>
<text text-anchor="middle" x="173" y="-413.3" font-family="Helvetica,sans-Serif" font-size="14.00" fill="#000000"> in the workspace list</text>
</g>
<!-- ConjoinWorkspaces -->
<g id="node10" class="node">
<title>ConjoinWorkspaces</title>
<path fill="#87cefa" stroke="#000000" d="M255.5,-328C255.5,-328 124.5,-328 124.5,-328 118.5,-328 112.5,-322 112.5,-316 112.5,-316 112.5,-304 112.5,-304 112.5,-298 118.5,-292 124.5,-292 124.5,-292 255.5,-292 255.5,-292 261.5,-292 267.5,-298 267.5,-304 267.5,-304 267.5,-316 267.5,-316 267.5,-322 261.5,-328 255.5,-328"/>
<text text-anchor="middle" x="190" y="-306.3" font-family="Helvetica,sans-Serif" font-size="14.00" fill="#000000">ConjoinWorkspaces v1</text>
</g>
<!-- isGroupWsNotConjoined&#45;&gt;ConjoinWorkspaces -->
<g id="edge5" class="edge">
<title>isGroupWsNotConjoined&#45;&gt;ConjoinWorkspaces</title>
<path fill="none" stroke="#000000" d="M150.1051,-385.9965C146.4817,-372.7872 145.4988,-358.5646 151,-346 152.6169,-342.3071 154.8201,-338.825 157.3622,-335.5895"/>
<polygon fill="#000000" stroke="#000000" points="160.0693,-337.8157 164.2377,-328.0753 154.9049,-333.0902 160.0693,-337.8157"/>
<text text-anchor="middle" x="163" y="-349.8" font-family="Helvetica,sans-Serif" font-size="14.00" fill="#000000">Yes</text>
</g>
<!-- isGroupWsNotConjoined&#45;&gt;MatchSpectra -->
<g id="edge6" class="edge">
<title>isGroupWsNotConjoined&#45;&gt;MatchSpectra</title>
<path fill="none" stroke="#000000" d="M236.8076,-398.5325C268.2817,-382.2801 306.928,-362.7033 342,-346 351.5812,-341.4369 361.8782,-336.7199 371.8101,-332.263"/>
<polygon fill="#000000" stroke="#000000" points="373.4772,-335.3519 381.1853,-328.0831 370.6267,-328.9585 373.4772,-335.3519"/>
<text text-anchor="middle" x="351" y="-349.8" font-family="Helvetica,sans-Serif" font-size="14.00" fill="#000000">No</text>
</g>
<!-- Rebin1 -->
<g id="node9" class="node">
<title>Rebin1</title>
<path fill="#87cefa" stroke="#000000" d="M264,-593C264,-593 218,-593 218,-593 212,-593 206,-587 206,-581 206,-581 206,-569 206,-569 206,-563 212,-557 218,-557 218,-557 264,-557 264,-557 270,-557 276,-563 276,-569 276,-569 276,-581 276,-581 276,-587 270,-593 264,-593"/>
<text text-anchor="middle" x="241" y="-571.3" font-family="Helvetica,sans-Serif" font-size="14.00" fill="#000000">Rebin v1</text>
</g>
<!-- Rebin1&#45;&gt;isGroupWsNotConjoined -->
<g id="edge4" class="edge">
<title>Rebin1&#45;&gt;isGroupWsNotConjoined</title>
<path fill="none" stroke="#000000" d="M217.9296,-556.9358C212.3905,-551.6588 206.9436,-545.5361 203,-539 194.4574,-524.8416 188.2721,-508.1695 183.8233,-492.2541"/>
<polygon fill="#000000" stroke="#000000" points="187.1824,-491.2647 181.2721,-482.4715 180.409,-493.0312 187.1824,-491.2647"/>
</g>
<!-- ConjoinWorkspaces&#45;&gt;isGroupWsNotConjoined -->
<g id="edge7" class="edge">
<title>ConjoinWorkspaces&#45;&gt;isGroupWsNotConjoined</title>
<path fill="none" stroke="#000000" d="M206.4701,-328.1955C210.3565,-333.5586 213.9601,-339.6914 216,-346 218.0511,-352.3433 217.7928,-354.5789 216,-361 214.296,-367.1028 211.9089,-373.2037 209.1236,-379.1233"/>
<polygon fill="#000000" stroke="#000000" points="205.8933,-377.7531 204.4599,-388.2506 212.1267,-380.9383 205.8933,-377.7531"/>
</g>
<!-- MatchSpectra&#45;&gt;CropWorkspaceRagged -->
<g id="edge11" class="edge">
<title>MatchSpectra&#45;&gt;CropWorkspaceRagged</title>
<path fill="none" stroke="#000000" d="M449.9438,-291.9551C463.962,-282.5667 481.281,-270.9678 496.3897,-260.8491"/>
<polygon fill="#000000" stroke="#000000" points="498.6272,-263.5631 504.9884,-255.0904 494.732,-257.7469 498.6272,-263.5631"/>
</g>
<!-- Rebin2 -->
<g id="node13" class="node">
<title>Rebin2</title>
<path fill="#87cefa" stroke="#000000" d="M555,-182C555,-182 509,-182 509,-182 503,-182 497,-176 497,-170 497,-170 497,-158 497,-158 497,-152 503,-146 509,-146 509,-146 555,-146 555,-146 561,-146 567,-152 567,-158 567,-158 567,-170 567,-170 567,-176 561,-182 555,-182"/>
<text text-anchor="middle" x="532" y="-160.3" font-family="Helvetica,sans-Serif" font-size="14.00" fill="#000000">Rebin v1</text>
</g>
<!-- CropWorkspaceRagged&#45;&gt;Rebin2 -->
<g id="edge14" class="edge">
<title>CropWorkspaceRagged&#45;&gt;Rebin2</title>
<path fill="none" stroke="#000000" d="M532,-218.9551C532,-210.8828 532,-201.1764 532,-192.1817"/>
<polygon fill="#000000" stroke="#000000" points="535.5001,-192.0903 532,-182.0904 528.5001,-192.0904 535.5001,-192.0903"/>
</g>
<!-- SumSpectra -->
<g id="node14" class="node">
<title>SumSpectra</title>
<path fill="#87cefa" stroke="#000000" d="M575,-109C575,-109 489,-109 489,-109 483,-109 477,-103 477,-97 477,-97 477,-85 477,-85 477,-79 483,-73 489,-73 489,-73 575,-73 575,-73 581,-73 587,-79 587,-85 587,-85 587,-97 587,-97 587,-103 581,-109 575,-109"/>
<text text-anchor="middle" x="532" y="-87.3" font-family="Helvetica,sans-Serif" font-size="14.00" fill="#000000">SumSpectra v1</text>
</g>
<!-- Rebin2&#45;&gt;SumSpectra -->
<g id="edge15" class="edge">
<title>Rebin2&#45;&gt;SumSpectra</title>
<path fill="none" stroke="#000000" d="M532,-145.9551C532,-137.8828 532,-128.1764 532,-119.1817"/>
<polygon fill="#000000" stroke="#000000" points="535.5001,-119.0903 532,-109.0904 528.5001,-119.0904 535.5001,-119.0903"/>
</g>
<!-- SumSpectra&#45;&gt;outputWorkspace -->
<g id="edge16" class="edge">
<title>SumSpectra&#45;&gt;outputWorkspace</title>
<path fill="none" stroke="#000000" d="M532,-72.9551C532,-64.8828 532,-55.1764 532,-46.1817"/>
<polygon fill="#000000" stroke="#000000" points="535.5001,-46.0903 532,-36.0904 528.5001,-46.0904 535.5001,-46.0903"/>
</g>
<!-- findLargestRange&#45;&gt;matchSpectraIndex -->
<g id="edge3" class="edge">
<title>findLargestRange&#45;&gt;matchSpectraIndex</title>
<path fill="none" stroke="#000000" d="M311.0264,-629.804C321.5992,-608.4905 339.2202,-572.9688 351.4391,-548.337"/>
<polygon fill="#000000" stroke="#000000" points="354.6818,-549.676 355.9904,-539.1622 348.411,-546.5652 354.6818,-549.676"/>
</g>
<!-- findLargestRange&#45;&gt;Rebin1 -->
<g id="edge2" class="edge">
<title>findLargestRange&#45;&gt;Rebin1</title>
<path fill="none" stroke="#000000" d="M286.9213,-629.9551C279.5895,-621.1809 270.6443,-610.4759 262.6032,-600.853"/>
<polygon fill="#000000" stroke="#000000" points="265.2146,-598.5197 256.1166,-593.0904 259.8431,-603.0082 265.2146,-598.5197"/>
</g>
</g>
</svg>
