<?xml version="1.0" encoding="UTF-8" standalone="no"?>
<!DOCTYPE svg PUBLIC "-//W3C//DTD SVG 1.1//EN"
 "http://www.w3.org/Graphics/SVG/1.1/DTD/svg11.dtd">
<!-- Generated by graphviz version 2.40.1 (20161225.0304)
 -->
<!-- Title: MuonProcess Pages: 1 -->
<svg width="1358pt" height="643pt"
 viewBox="0.00 0.00 1358.19 643.00" xmlns="http://www.w3.org/2000/svg" xmlns:xlink="http://www.w3.org/1999/xlink">
<g id="graph0" class="graph" transform="scale(1 1) rotate(0) translate(4 639)">
<title>MuonProcess</title>
<polygon fill="#ffffff" stroke="transparent" points="-4,4 -4,-639 1354.1949,-639 1354.1949,4 -4,4"/>
<text text-anchor="middle" x="675.0975" y="-619.8" font-family="Helvetica,sans-Serif" font-size="14.00" fill="#000000">MuonProcess Flowchart</text>
<!-- Filename -->
<g id="node1" class="node">
<title>Filename</title>
<ellipse fill="#f0e68c" stroke="#000000" cx="328" cy="-594" rx="47.3916" ry="18"/>
<text text-anchor="middle" x="328" y="-590.3" font-family="Helvetica,sans-Serif" font-size="14.00" fill="#000000">Filename</text>
</g>
<!-- LoadMuonNexus -->
<g id="node15" class="node">
<title>LoadMuonNexus</title>
<path fill="#87cefa" stroke="#000000" d="M375.5,-540C375.5,-540 280.5,-540 280.5,-540 274.5,-540 268.5,-534 268.5,-528 268.5,-528 268.5,-516 268.5,-516 268.5,-510 274.5,-504 280.5,-504 280.5,-504 375.5,-504 375.5,-504 381.5,-504 387.5,-510 387.5,-516 387.5,-516 387.5,-528 387.5,-528 387.5,-534 381.5,-540 375.5,-540"/>
<text text-anchor="middle" x="328" y="-518.3" font-family="Helvetica,sans-Serif" font-size="14.00" fill="#000000">LoadMuonNexus</text>
</g>
<!-- Filename&#45;&gt;LoadMuonNexus -->
<g id="edge1" class="edge">
<title>Filename&#45;&gt;LoadMuonNexus</title>
<path fill="none" stroke="#000000" d="M328,-575.8314C328,-568.131 328,-558.9743 328,-550.4166"/>
<polygon fill="#000000" stroke="#000000" points="331.5001,-550.4132 328,-540.4133 324.5001,-550.4133 331.5001,-550.4132"/>
</g>
<!-- DeadTimeTable -->
<g id="node2" class="node">
<title>DeadTimeTable</title>
<ellipse fill="#f0e68c" stroke="#000000" cx="231" cy="-450" rx="73.387" ry="18"/>
<text text-anchor="middle" x="231" y="-446.3" font-family="Helvetica,sans-Serif" font-size="14.00" fill="#000000">DeadTimeTable</text>
</g>
<!-- DetectorGroupingTable -->
<g id="node3" class="node">
<title>DetectorGroupingTable</title>
<ellipse fill="#f0e68c" stroke="#000000" cx="425" cy="-450" rx="102.8821" ry="18"/>
<text text-anchor="middle" x="425" y="-446.3" font-family="Helvetica,sans-Serif" font-size="14.00" fill="#000000">DetectorGroupingTable</text>
</g>
<!-- TimeZero -->
<g id="node4" class="node">
<title>TimeZero</title>
<ellipse fill="#f0e68c" stroke="#000000" cx="621" cy="-378" rx="48.9926" ry="18"/>
<text text-anchor="middle" x="621" y="-374.3" font-family="Helvetica,sans-Serif" font-size="14.00" fill="#000000">TimeZero</text>
</g>
<!-- ChangeBinOffset -->
<g id="node18" class="node">
<title>ChangeBinOffset</title>
<path fill="#87cefa" stroke="#000000" d="M524,-324C524,-324 428,-324 428,-324 422,-324 416,-318 416,-312 416,-312 416,-300 416,-300 416,-294 422,-288 428,-288 428,-288 524,-288 524,-288 530,-288 536,-294 536,-300 536,-300 536,-312 536,-312 536,-318 530,-324 524,-324"/>
<text text-anchor="middle" x="476" y="-302.3" font-family="Helvetica,sans-Serif" font-size="14.00" fill="#000000">ChangeBinOffset</text>
</g>
<!-- TimeZero&#45;&gt;ChangeBinOffset -->
<g id="edge8" class="edge">
<title>TimeZero&#45;&gt;ChangeBinOffset</title>
<path fill="none" stroke="#000000" d="M591.6571,-363.4297C571.5831,-353.4619 544.5688,-340.0479 521.6966,-328.6907"/>
<polygon fill="#000000" stroke="#000000" points="523.0209,-325.4406 512.5077,-324.128 519.9077,-331.7102 523.0209,-325.4406"/>
</g>
<!-- LoadedTimeZero -->
<g id="node5" class="node">
<title>LoadedTimeZero</title>
<ellipse fill="#f0e68c" stroke="#000000" cx="476" cy="-378" rx="77.9862" ry="18"/>
<text text-anchor="middle" x="476" y="-374.3" font-family="Helvetica,sans-Serif" font-size="14.00" fill="#000000">LoadedTimeZero</text>
</g>
<!-- LoadedTimeZero&#45;&gt;ChangeBinOffset -->
<g id="edge9" class="edge">
<title>LoadedTimeZero&#45;&gt;ChangeBinOffset</title>
<path fill="none" stroke="#000000" d="M476,-359.8314C476,-352.131 476,-342.9743 476,-334.4166"/>
<polygon fill="#000000" stroke="#000000" points="479.5001,-334.4132 476,-324.4133 472.5001,-334.4133 479.5001,-334.4132"/>
</g>
<!-- Xmin -->
<g id="node6" class="node">
<title>Xmin</title>
<ellipse fill="#f0e68c" stroke="#000000" cx="585" cy="-306" rx="31.3957" ry="18"/>
<text text-anchor="middle" x="585" y="-302.3" font-family="Helvetica,sans-Serif" font-size="14.00" fill="#000000">Xmin</text>
</g>
<!-- CropWorkspace -->
<g id="node19" class="node">
<title>CropWorkspace</title>
<path fill="#87cefa" stroke="#000000" d="M630,-252C630,-252 540,-252 540,-252 534,-252 528,-246 528,-240 528,-240 528,-228 528,-228 528,-222 534,-216 540,-216 540,-216 630,-216 630,-216 636,-216 642,-222 642,-228 642,-228 642,-240 642,-240 642,-246 636,-252 630,-252"/>
<text text-anchor="middle" x="585" y="-230.3" font-family="Helvetica,sans-Serif" font-size="14.00" fill="#000000">CropWorkspace</text>
</g>
<!-- Xmin&#45;&gt;CropWorkspace -->
<g id="edge11" class="edge">
<title>Xmin&#45;&gt;CropWorkspace</title>
<path fill="none" stroke="#000000" d="M585,-287.8314C585,-280.131 585,-270.9743 585,-262.4166"/>
<polygon fill="#000000" stroke="#000000" points="588.5001,-262.4132 585,-252.4133 581.5001,-262.4133 588.5001,-262.4132"/>
</g>
<!-- Xmax -->
<g id="node7" class="node">
<title>Xmax</title>
<ellipse fill="#f0e68c" stroke="#000000" cx="668" cy="-306" rx="33.5952" ry="18"/>
<text text-anchor="middle" x="668" y="-302.3" font-family="Helvetica,sans-Serif" font-size="14.00" fill="#000000">Xmax</text>
</g>
<!-- Xmax&#45;&gt;CropWorkspace -->
<g id="edge12" class="edge">
<title>Xmax&#45;&gt;CropWorkspace</title>
<path fill="none" stroke="#000000" d="M649.9902,-290.3771C639.3522,-281.1489 625.6435,-269.257 613.5608,-258.7757"/>
<polygon fill="#000000" stroke="#000000" points="615.7516,-256.0427 605.9042,-252.1338 611.1646,-261.3304 615.7516,-256.0427"/>
</g>
<!-- RebinParams -->
<g id="node8" class="node">
<title>RebinParams</title>
<ellipse fill="#f0e68c" stroke="#000000" cx="724" cy="-234" rx="64.189" ry="18"/>
<text text-anchor="middle" x="724" y="-230.3" font-family="Helvetica,sans-Serif" font-size="14.00" fill="#000000">RebinParams</text>
</g>
<!-- Rebin -->
<g id="node20" class="node">
<title>Rebin</title>
<path fill="#87cefa" stroke="#000000" d="M669,-180C669,-180 639,-180 639,-180 633,-180 627,-174 627,-168 627,-168 627,-156 627,-156 627,-150 633,-144 639,-144 639,-144 669,-144 669,-144 675,-144 681,-150 681,-156 681,-156 681,-168 681,-168 681,-174 675,-180 669,-180"/>
<text text-anchor="middle" x="654" y="-158.3" font-family="Helvetica,sans-Serif" font-size="14.00" fill="#000000">Rebin</text>
</g>
<!-- RebinParams&#45;&gt;Rebin -->
<g id="edge14" class="edge">
<title>RebinParams&#45;&gt;Rebin</title>
<path fill="none" stroke="#000000" d="M707.055,-216.5708C698.5623,-207.8355 688.1166,-197.0914 678.7464,-187.4534"/>
<polygon fill="#000000" stroke="#000000" points="681.0003,-184.7508 671.52,-180.0206 675.9813,-189.6304 681.0003,-184.7508"/>
</g>
<!-- OutputType -->
<g id="node9" class="node">
<title>OutputType</title>
<ellipse fill="#f0e68c" stroke="#000000" cx="756" cy="-162" rx="57.3905" ry="18"/>
<text text-anchor="middle" x="756" y="-158.3" font-family="Helvetica,sans-Serif" font-size="14.00" fill="#000000">OutputType</text>
</g>
<!-- MuonCalculateAsymmetry -->
<g id="node21" class="node">
<title>MuonCalculateAsymmetry</title>
<path fill="#87cefa" stroke="#000000" d="M991,-108C991,-108 853,-108 853,-108 847,-108 841,-102 841,-96 841,-96 841,-84 841,-84 841,-78 847,-72 853,-72 853,-72 991,-72 991,-72 997,-72 1003,-78 1003,-84 1003,-84 1003,-96 1003,-96 1003,-102 997,-108 991,-108"/>
<text text-anchor="middle" x="922" y="-86.3" font-family="Helvetica,sans-Serif" font-size="14.00" fill="#000000">(Asymmetry calculation)</text>
</g>
<!-- OutputType&#45;&gt;MuonCalculateAsymmetry -->
<g id="edge16" class="edge">
<title>OutputType&#45;&gt;MuonCalculateAsymmetry</title>
<path fill="none" stroke="#000000" d="M789.5926,-147.4297C812.8803,-137.329 844.3267,-123.6896 870.7301,-112.2376"/>
<polygon fill="#000000" stroke="#000000" points="872.4235,-115.3182 880.205,-108.128 869.638,-108.8962 872.4235,-115.3182"/>
</g>
<!-- Alpha -->
<g id="node10" class="node">
<title>Alpha</title>
<ellipse fill="#f0e68c" stroke="#000000" cx="864" cy="-162" rx="33.2948" ry="18"/>
<text text-anchor="middle" x="864" y="-158.3" font-family="Helvetica,sans-Serif" font-size="14.00" fill="#000000">Alpha</text>
</g>
<!-- Alpha&#45;&gt;MuonCalculateAsymmetry -->
<g id="edge20" class="edge">
<title>Alpha&#45;&gt;MuonCalculateAsymmetry</title>
<path fill="none" stroke="#000000" d="M877.4521,-145.3008C884.4588,-136.6029 893.1845,-125.7709 901.0517,-116.0048"/>
<polygon fill="#000000" stroke="#000000" points="903.8539,-118.1054 907.4016,-108.1222 898.4026,-113.714 903.8539,-118.1054"/>
</g>
<!-- FirstPairIndex -->
<g id="node11" class="node">
<title>FirstPairIndex</title>
<ellipse fill="#f0e68c" stroke="#000000" cx="980" cy="-162" rx="64.9885" ry="18"/>
<text text-anchor="middle" x="980" y="-158.3" font-family="Helvetica,sans-Serif" font-size="14.00" fill="#000000">FirstPairIndex</text>
</g>
<!-- FirstPairIndex&#45;&gt;MuonCalculateAsymmetry -->
<g id="edge17" class="edge">
<title>FirstPairIndex&#45;&gt;MuonCalculateAsymmetry</title>
<path fill="none" stroke="#000000" d="M965.6629,-144.2022C958.8133,-135.6992 950.4826,-125.3577 942.9416,-115.9965"/>
<polygon fill="#000000" stroke="#000000" points="945.574,-113.685 936.575,-108.0931 940.1227,-118.0763 945.574,-113.685"/>
</g>
<!-- SecondPairIndex -->
<g id="node12" class="node">
<title>SecondPairIndex</title>
<ellipse fill="#f0e68c" stroke="#000000" cx="1140" cy="-162" rx="77.1866" ry="18"/>
<text text-anchor="middle" x="1140" y="-158.3" font-family="Helvetica,sans-Serif" font-size="14.00" fill="#000000">SecondPairIndex</text>
</g>
<!-- SecondPairIndex&#45;&gt;MuonCalculateAsymmetry -->
<g id="edge18" class="edge">
<title>SecondPairIndex&#45;&gt;MuonCalculateAsymmetry</title>
<path fill="none" stroke="#000000" d="M1095.3584,-147.256C1063.9322,-136.8767 1021.3861,-122.8248 986.3084,-111.2395"/>
<polygon fill="#000000" stroke="#000000" points="987.2214,-107.8551 976.6282,-108.0423 985.026,-114.502 987.2214,-107.8551"/>
</g>
<!-- GroupIndex -->
<g id="node13" class="node">
<title>GroupIndex</title>
<ellipse fill="#f0e68c" stroke="#000000" cx="1293" cy="-162" rx="57.3905" ry="18"/>
<text text-anchor="middle" x="1293" y="-158.3" font-family="Helvetica,sans-Serif" font-size="14.00" fill="#000000">GroupIndex</text>
</g>
<!-- GroupIndex&#45;&gt;MuonCalculateAsymmetry -->
<g id="edge19" class="edge">
<title>GroupIndex&#45;&gt;MuonCalculateAsymmetry</title>
<path fill="none" stroke="#000000" d="M1250.2456,-149.9219C1242.2198,-147.8231 1233.8768,-145.7542 1226,-144 1154.8771,-128.1606 1073.573,-113.9171 1012.9527,-104.0405"/>
<polygon fill="#000000" stroke="#000000" points="1013.4572,-100.5767 1003.0261,-102.4321 1012.3376,-107.4866 1013.4572,-100.5767"/>
</g>
<!-- OutputWorkspace -->
<g id="node14" class="node">
<title>OutputWorkspace</title>
<ellipse fill="#f0e68c" stroke="#000000" cx="922" cy="-18" rx="81.7856" ry="18"/>
<text text-anchor="middle" x="922" y="-14.3" font-family="Helvetica,sans-Serif" font-size="14.00" fill="#000000">OutputWorkspace</text>
</g>
<!-- LoadMuonNexus&#45;&gt;DeadTimeTable -->
<g id="edge3" class="edge">
<title>LoadMuonNexus&#45;&gt;DeadTimeTable</title>
<path fill="none" stroke="#000000" d="M303.5228,-503.8314C290.9738,-494.5167 275.5543,-483.0712 262.1646,-473.1325"/>
<polygon fill="#000000" stroke="#000000" points="264.2496,-470.3213 254.1338,-467.1715 260.0774,-475.9421 264.2496,-470.3213"/>
</g>
<!-- LoadMuonNexus&#45;&gt;DetectorGroupingTable -->
<g id="edge4" class="edge">
<title>LoadMuonNexus&#45;&gt;DetectorGroupingTable</title>
<path fill="none" stroke="#000000" d="M352.4772,-503.8314C364.7236,-494.7412 379.7039,-483.6219 392.8635,-473.8539"/>
<polygon fill="#000000" stroke="#000000" points="395.2576,-476.4357 401.2013,-467.665 391.0855,-470.8149 395.2576,-476.4357"/>
</g>
<!-- LoadMuonNexus&#45;&gt;LoadedTimeZero -->
<g id="edge5" class="edge">
<title>LoadMuonNexus&#45;&gt;LoadedTimeZero</title>
<path fill="none" stroke="#000000" d="M387.6822,-514.7242C442.7915,-506.6339 518.7858,-491.5184 537,-468 553.8816,-446.2023 531.6417,-419.9801 509.4269,-401.4782"/>
<polygon fill="#000000" stroke="#000000" points="511.3229,-398.5143 501.3161,-395.0335 506.9681,-403.9948 511.3229,-398.5143"/>
</g>
<!-- ApplyDeadTimeCorr -->
<g id="node16" class="node">
<title>ApplyDeadTimeCorr</title>
<path fill="#87cefa" stroke="#000000" d="M128,-468C128,-468 12,-468 12,-468 6,-468 0,-462 0,-456 0,-456 0,-444 0,-444 0,-438 6,-432 12,-432 12,-432 128,-432 128,-432 134,-432 140,-438 140,-444 140,-444 140,-456 140,-456 140,-462 134,-468 128,-468"/>
<text text-anchor="middle" x="70" y="-446.3" font-family="Helvetica,sans-Serif" font-size="14.00" fill="#000000">ApplyDeadTimeCorr</text>
</g>
<!-- LoadMuonNexus&#45;&gt;ApplyDeadTimeCorr -->
<g id="edge2" class="edge">
<title>LoadMuonNexus&#45;&gt;ApplyDeadTimeCorr</title>
<path fill="none" stroke="#000000" d="M268.4856,-505.3913C231.5817,-495.0926 183.8635,-481.7759 144.464,-470.7807"/>
<polygon fill="#000000" stroke="#000000" points="145.2109,-467.3554 134.6381,-468.0385 143.3292,-474.0978 145.2109,-467.3554"/>
</g>
<!-- MuonGroupDetectors -->
<g id="node17" class="node">
<title>MuonGroupDetectors</title>
<path fill="#87cefa" stroke="#000000" d="M289.5,-396C289.5,-396 166.5,-396 166.5,-396 160.5,-396 154.5,-390 154.5,-384 154.5,-384 154.5,-372 154.5,-372 154.5,-366 160.5,-360 166.5,-360 166.5,-360 289.5,-360 289.5,-360 295.5,-360 301.5,-366 301.5,-372 301.5,-372 301.5,-384 301.5,-384 301.5,-390 295.5,-396 289.5,-396"/>
<text text-anchor="middle" x="228" y="-374.3" font-family="Helvetica,sans-Serif" font-size="14.00" fill="#000000">MuonGroupDetectors</text>
</g>
<!-- ApplyDeadTimeCorr&#45;&gt;MuonGroupDetectors -->
<g id="edge6" class="edge">
<title>ApplyDeadTimeCorr&#45;&gt;MuonGroupDetectors</title>
<path fill="none" stroke="#000000" d="M109.8701,-431.8314C130.9077,-422.2446 156.8983,-410.4008 179.1396,-400.2655"/>
<polygon fill="#000000" stroke="#000000" points="180.7683,-403.3697 188.4166,-396.038 177.8655,-396.9999 180.7683,-403.3697"/>
</g>
<!-- MuonGroupDetectors&#45;&gt;ChangeBinOffset -->
<g id="edge7" class="edge">
<title>MuonGroupDetectors&#45;&gt;ChangeBinOffset</title>
<path fill="none" stroke="#000000" d="M290.2608,-359.9243C325.4092,-349.7199 369.443,-336.9359 405.8135,-326.3767"/>
<polygon fill="#000000" stroke="#000000" points="407.2273,-329.6109 415.8549,-323.4615 405.2755,-322.8884 407.2273,-329.6109"/>
</g>
<!-- ChangeBinOffset&#45;&gt;CropWorkspace -->
<g id="edge10" class="edge">
<title>ChangeBinOffset&#45;&gt;CropWorkspace</title>
<path fill="none" stroke="#000000" d="M503.5053,-287.8314C517.318,-278.7074 534.2256,-267.539 549.0529,-257.7449"/>
<polygon fill="#000000" stroke="#000000" points="551.0886,-260.5949 557.5035,-252.1628 547.2304,-254.7541 551.0886,-260.5949"/>
</g>
<!-- CropWorkspace&#45;&gt;Rebin -->
<g id="edge13" class="edge">
<title>CropWorkspace&#45;&gt;Rebin</title>
<path fill="none" stroke="#000000" d="M602.4116,-215.8314C610.521,-207.3694 620.3156,-197.1489 629.182,-187.8971"/>
<polygon fill="#000000" stroke="#000000" points="631.9618,-190.0549 636.354,-180.4133 626.9079,-185.2115 631.9618,-190.0549"/>
</g>
<!-- Rebin&#45;&gt;MuonCalculateAsymmetry -->
<g id="edge15" class="edge">
<title>Rebin&#45;&gt;MuonCalculateAsymmetry</title>
<path fill="none" stroke="#000000" d="M681.2248,-147.5587C684.1463,-146.2595 687.1078,-145.0432 690,-144 735.3833,-127.6307 787.5835,-114.9663 830.9626,-106.0297"/>
<polygon fill="#000000" stroke="#000000" points="831.8262,-109.4259 840.9317,-104.0092 830.4357,-102.5654 831.8262,-109.4259"/>
</g>
<!-- MuonCalculateAsymmetry&#45;&gt;OutputWorkspace -->
<g id="edge21" class="edge">
<title>MuonCalculateAsymmetry&#45;&gt;OutputWorkspace</title>
<path fill="none" stroke="#000000" d="M922,-71.8314C922,-64.131 922,-54.9743 922,-46.4166"/>
<polygon fill="#000000" stroke="#000000" points="925.5001,-46.4132 922,-36.4133 918.5001,-46.4133 925.5001,-46.4132"/>
</g>
</g>
</svg>
