<?xml version="1.0" encoding="UTF-8" standalone="no"?>
<!DOCTYPE svg PUBLIC "-//W3C//DTD SVG 1.1//EN"
 "http://www.w3.org/Graphics/SVG/1.1/DTD/svg11.dtd">
<!-- Generated by graphviz version 2.40.1 (20161225.0304)
 -->
<!-- Title: Beam Pages: 1 -->
<svg width="492pt" height="332pt"
 viewBox="0.00 0.00 491.74 332.00" xmlns="http://www.w3.org/2000/svg" xmlns:xlink="http://www.w3.org/1999/xlink">
<g id="graph0" class="graph" transform="scale(1 1) rotate(0) translate(4 328)">
<title>Beam</title>
<polygon fill="#ffffff" stroke="transparent" points="-4,4 -4,-328 487.737,-328 487.737,4 -4,4"/>
<!-- Run -->
<g id="node1" class="node">
<title>Run</title>
<ellipse fill="#f0e68c" stroke="#000000" cx="86.5" cy="-306" rx="27" ry="18"/>
<text text-anchor="middle" x="86.5" y="-302.3" font-family="Helvetica,sans-Serif" font-size="14.00" fill="#000000">Run</text>
</g>
<!-- LoadAndMerge -->
<g id="node4" class="node">
<title>LoadAndMerge</title>
<path fill="#87cefa" stroke="#000000" d="M129.5,-252C129.5,-252 43.5,-252 43.5,-252 37.5,-252 31.5,-246 31.5,-240 31.5,-240 31.5,-228 31.5,-228 31.5,-222 37.5,-216 43.5,-216 43.5,-216 129.5,-216 129.5,-216 135.5,-216 141.5,-222 141.5,-228 141.5,-228 141.5,-240 141.5,-240 141.5,-246 135.5,-252 129.5,-252"/>
<text text-anchor="middle" x="86.5" y="-230.3" font-family="Helvetica,sans-Serif" font-size="14.00" fill="#000000">LoadAndMerge</text>
</g>
<!-- Run&#45;&gt;LoadAndMerge -->
<g id="edge1" class="edge">
<title>Run&#45;&gt;LoadAndMerge</title>
<path fill="none" stroke="#000000" d="M86.5,-287.8314C86.5,-280.131 86.5,-270.9743 86.5,-262.4166"/>
<polygon fill="#000000" stroke="#000000" points="90.0001,-262.4132 86.5,-252.4133 83.0001,-262.4133 90.0001,-262.4132"/>
</g>
<!-- CadmiumTransmissionWorkspace -->
<g id="node2" class="node">
<title>CadmiumTransmissionWorkspace</title>
<ellipse fill="#f0e68c" stroke="#000000" cx="337.5" cy="-162" rx="146.4744" ry="18"/>
<text text-anchor="middle" x="337.5" y="-158.3" font-family="Helvetica,sans-Serif" font-size="14.00" fill="#000000">CadmiumTransmissionWorkspace</text>
</g>
<!-- Minus -->
<g id="node6" class="node">
<title>Minus</title>
<path fill="#87cefa" stroke="#000000" d="M226.5,-108C226.5,-108 196.5,-108 196.5,-108 190.5,-108 184.5,-102 184.5,-96 184.5,-96 184.5,-84 184.5,-84 184.5,-78 190.5,-72 196.5,-72 196.5,-72 226.5,-72 226.5,-72 232.5,-72 238.5,-78 238.5,-84 238.5,-84 238.5,-96 238.5,-96 238.5,-102 232.5,-108 226.5,-108"/>
<text text-anchor="middle" x="211.5" y="-86.3" font-family="Helvetica,sans-Serif" font-size="14.00" fill="#000000">Minus</text>
</g>
<!-- CadmiumTransmissionWorkspace&#45;&gt;Minus -->
<g id="edge4" class="edge">
<title>CadmiumTransmissionWorkspace&#45;&gt;Minus</title>
<path fill="none" stroke="#000000" d="M306.6769,-144.3868C288.7704,-134.1545 266.123,-121.2132 247.4128,-110.5216"/>
<polygon fill="#000000" stroke="#000000" points="249.0011,-107.3981 238.5821,-105.4755 245.5281,-113.4758 249.0011,-107.3981"/>
</g>
<!-- OutputWorkspace -->
<g id="node3" class="node">
<title>OutputWorkspace</title>
<polygon fill="#c0c0c0" stroke="#000000" points="322.0819,-36 146.1708,-36 100.9181,0 276.8292,0 322.0819,-36"/>
<text text-anchor="middle" x="211.5" y="-14.3" font-family="Times,serif" font-size="14.00" fill="#000000">OutputWorkspace</text>
</g>
<!-- Divide -->
<g id="node5" class="node">
<title>Divide</title>
<path fill="#87cefa" stroke="#000000" d="M161,-180C161,-180 12,-180 12,-180 6,-180 0,-174 0,-168 0,-168 0,-156 0,-156 0,-150 6,-144 12,-144 12,-144 161,-144 161,-144 167,-144 173,-150 173,-156 173,-156 173,-168 173,-168 173,-174 167,-180 161,-180"/>
<text text-anchor="middle" x="86.5" y="-158.3" font-family="Helvetica,sans-Serif" font-size="14.00" fill="#000000">Normalize to monitor/time</text>
</g>
<!-- LoadAndMerge&#45;&gt;Divide -->
<g id="edge2" class="edge">
<title>LoadAndMerge&#45;&gt;Divide</title>
<path fill="none" stroke="#000000" d="M86.5,-215.8314C86.5,-208.131 86.5,-198.9743 86.5,-190.4166"/>
<polygon fill="#000000" stroke="#000000" points="90.0001,-190.4132 86.5,-180.4133 83.0001,-190.4133 90.0001,-190.4132"/>
</g>
<!-- Divide&#45;&gt;Minus -->
<g id="edge3" class="edge">
<title>Divide&#45;&gt;Minus</title>
<path fill="none" stroke="#000000" d="M118.0428,-143.8314C135.4109,-133.8273 157.0459,-121.3655 175.1246,-110.9522"/>
<polygon fill="#000000" stroke="#000000" points="177.2947,-113.7414 184.213,-105.7173 173.8008,-107.6757 177.2947,-113.7414"/>
</g>
<!-- Minus&#45;&gt;OutputWorkspace -->
<g id="edge5" class="edge">
<title>Minus&#45;&gt;OutputWorkspace</title>
<path fill="none" stroke="#000000" d="M211.5,-71.8314C211.5,-64.131 211.5,-54.9743 211.5,-46.4166"/>
<polygon fill="#000000" stroke="#000000" points="215.0001,-46.4132 211.5,-36.4133 208.0001,-46.4133 215.0001,-46.4132"/>
</g>
</g>
</svg>
