<?xml version="1.0" encoding="UTF-8" standalone="no"?>
<!DOCTYPE svg PUBLIC "-//W3C//DTD SVG 1.1//EN"
 "http://www.w3.org/Graphics/SVG/1.1/DTD/svg11.dtd">
<!-- Generated by graphviz version 2.40.1 (20161225.0304)
 -->
<!-- Title: PowderILLParameterScan Pages: 1 -->
<svg width="660pt" height="1291pt"
 viewBox="0.00 0.00 660.19 1291.00" xmlns="http://www.w3.org/2000/svg" xmlns:xlink="http://www.w3.org/1999/xlink">
<g id="graph0" class="graph" transform="scale(1 1) rotate(0) translate(4 1287)">
<title>PowderILLParameterScan</title>
<polygon fill="#ffffff" stroke="transparent" points="-4,4 -4,-1287 656.1926,-1287 656.1926,4 -4,4"/>
<text text-anchor="middle" x="326.0963" y="-1267.8" font-family="Helvetica,sans-Serif" font-size="14.00" fill="#000000">PowderILLParameterScan flowchart</text>
<!-- CalibrationProvided -->
<g id="node1" class="node">
<title>CalibrationProvided</title>
<polygon fill="#32cd32" stroke="#000000" points="410.1926,-881 286.8582,-863 410.1926,-845 533.527,-863 410.1926,-881"/>
<text text-anchor="middle" x="410.1926" y="-859.3" font-family="Helvetica,sans-Serif" font-size="14.00" fill="#000000">CalibrationProvided</text>
</g>
<!-- ROCCorrectionProvided -->
<g id="node4" class="node">
<title>ROCCorrectionProvided</title>
<polygon fill="#32cd32" stroke="#000000" points="376.1926,-721 226.5471,-703 376.1926,-685 525.8381,-703 376.1926,-721"/>
<text text-anchor="middle" x="376.1926" y="-699.3" font-family="Helvetica,sans-Serif" font-size="14.00" fill="#000000">ROCCorrectionProvided</text>
</g>
<!-- CalibrationProvided&#45;&gt;ROCCorrectionProvided -->
<g id="edge15" class="edge">
<title>CalibrationProvided&#45;&gt;ROCCorrectionProvided</title>
<path fill="none" stroke="#000000" d="M406.4241,-845.2659C400.5268,-817.514 389.0702,-763.6002 382.0784,-730.698"/>
<polygon fill="#000000" stroke="#000000" points="385.4802,-729.8676 379.978,-720.8136 378.6331,-731.3227 385.4802,-729.8676"/>
<text text-anchor="middle" x="405.1926" y="-772.3" font-family="Helvetica,sans-Serif" font-size="14.00" fill="#000000">No</text>
</g>
<!-- Calibrate -->
<g id="node18" class="node">
<title>Calibrate</title>
<path fill="#87cefa" stroke="#000000" d="M361.6926,-794C361.6926,-794 322.6926,-794 322.6926,-794 316.6926,-794 310.6926,-788 310.6926,-782 310.6926,-782 310.6926,-770 310.6926,-770 310.6926,-764 316.6926,-758 322.6926,-758 322.6926,-758 361.6926,-758 361.6926,-758 367.6926,-758 373.6926,-764 373.6926,-770 373.6926,-770 373.6926,-782 373.6926,-782 373.6926,-788 367.6926,-794 361.6926,-794"/>
<text text-anchor="middle" x="342.1926" y="-772.3" font-family="Helvetica,sans-Serif" font-size="14.00" fill="#000000">Multiply</text>
</g>
<!-- CalibrationProvided&#45;&gt;Calibrate -->
<g id="edge12" class="edge">
<title>CalibrationProvided&#45;&gt;Calibrate</title>
<path fill="none" stroke="#000000" d="M391.7486,-847.4658C385.1687,-841.4421 377.9638,-834.2536 372.1926,-827 366.4005,-819.7201 360.952,-811.2084 356.329,-803.2475"/>
<polygon fill="#000000" stroke="#000000" points="359.2421,-801.2855 351.3099,-794.262 353.1308,-804.6991 359.2421,-801.2855"/>
<text text-anchor="middle" x="384.1926" y="-815.8" font-family="Helvetica,sans-Serif" font-size="14.00" fill="#000000">Yes</text>
</g>
<!-- NormaliseTo -->
<g id="node2" class="node">
<title>NormaliseTo</title>
<polygon fill="#32cd32" stroke="#000000" points="464.1926,-1041 377.8909,-1023 464.1926,-1005 550.4943,-1023 464.1926,-1041"/>
<text text-anchor="middle" x="464.1926" y="-1019.3" font-family="Helvetica,sans-Serif" font-size="14.00" fill="#000000">NormaliseTo</text>
</g>
<!-- NormaliseToMonitor -->
<g id="node20" class="node">
<title>NormaliseToMonitor</title>
<path fill="#87cefa" stroke="#000000" d="M425.1926,-954C425.1926,-954 395.1926,-954 395.1926,-954 389.1926,-954 383.1926,-948 383.1926,-942 383.1926,-942 383.1926,-930 383.1926,-930 383.1926,-924 389.1926,-918 395.1926,-918 395.1926,-918 425.1926,-918 425.1926,-918 431.1926,-918 437.1926,-924 437.1926,-930 437.1926,-930 437.1926,-942 437.1926,-942 437.1926,-948 431.1926,-954 425.1926,-954"/>
<text text-anchor="middle" x="410.1926" y="-932.3" font-family="Helvetica,sans-Serif" font-size="14.00" fill="#000000">Divide</text>
</g>
<!-- NormaliseTo&#45;&gt;NormaliseToMonitor -->
<g id="edge5" class="edge">
<title>NormaliseTo&#45;&gt;NormaliseToMonitor</title>
<path fill="none" stroke="#000000" d="M419.7649,-1014.1321C404.9448,-1008.8298 389.9828,-1000.3941 381.1926,-987 376.0494,-979.1631 378.3521,-970.3697 383.4117,-962.3204"/>
<polygon fill="#000000" stroke="#000000" points="386.2551,-964.3631 389.4859,-954.2728 380.6679,-960.1459 386.2551,-964.3631"/>
<text text-anchor="middle" x="404.1926" y="-975.8" font-family="Helvetica,sans-Serif" font-size="14.00" fill="#000000">Monitor</text>
</g>
<!-- NormaliseToTime -->
<g id="node21" class="node">
<title>NormaliseToTime</title>
<path fill="#87cefa" stroke="#000000" d="M507.1926,-954C507.1926,-954 477.1926,-954 477.1926,-954 471.1926,-954 465.1926,-948 465.1926,-942 465.1926,-942 465.1926,-930 465.1926,-930 465.1926,-924 471.1926,-918 477.1926,-918 477.1926,-918 507.1926,-918 507.1926,-918 513.1926,-918 519.1926,-924 519.1926,-930 519.1926,-930 519.1926,-942 519.1926,-942 519.1926,-948 513.1926,-954 507.1926,-954"/>
<text text-anchor="middle" x="492.1926" y="-932.3" font-family="Helvetica,sans-Serif" font-size="14.00" fill="#000000">Divide</text>
</g>
<!-- NormaliseTo&#45;&gt;NormaliseToTime -->
<g id="edge8" class="edge">
<title>NormaliseTo&#45;&gt;NormaliseToTime</title>
<path fill="none" stroke="#000000" d="M469.7245,-1005.8116C473.5976,-993.7774 478.8557,-977.4396 483.3116,-963.5947"/>
<polygon fill="#000000" stroke="#000000" points="486.651,-964.6427 486.383,-954.0512 479.9876,-962.4981 486.651,-964.6427"/>
<text text-anchor="middle" x="494.6926" y="-975.8" font-family="Helvetica,sans-Serif" font-size="14.00" fill="#000000">Time</text>
</g>
<!-- NormaliseToROI -->
<g id="node22" class="node">
<title>NormaliseToROI</title>
<path fill="#87cefa" stroke="#000000" d="M353.1926,-954C353.1926,-954 323.1926,-954 323.1926,-954 317.1926,-954 311.1926,-948 311.1926,-942 311.1926,-942 311.1926,-930 311.1926,-930 311.1926,-924 317.1926,-918 323.1926,-918 323.1926,-918 353.1926,-918 353.1926,-918 359.1926,-918 365.1926,-924 365.1926,-930 365.1926,-930 365.1926,-942 365.1926,-942 365.1926,-948 359.1926,-954 353.1926,-954"/>
<text text-anchor="middle" x="338.1926" y="-932.3" font-family="Helvetica,sans-Serif" font-size="14.00" fill="#000000">Divide</text>
</g>
<!-- NormaliseTo&#45;&gt;NormaliseToROI -->
<g id="edge6" class="edge">
<title>NormaliseTo&#45;&gt;NormaliseToROI</title>
<path fill="none" stroke="#000000" d="M455.8794,-1006.6731C449.4293,-995.4884 439.5193,-981.0877 427.1926,-972 409.2809,-958.7948 399.3739,-962.4809 374.8511,-953.789"/>
<polygon fill="#000000" stroke="#000000" points="376.1187,-950.5266 365.5305,-950.1504 373.5731,-957.0474 376.1187,-950.5266"/>
<text text-anchor="middle" x="454.6926" y="-975.8" font-family="Helvetica,sans-Serif" font-size="14.00" fill="#000000">ROI</text>
</g>
<!-- SortObservableAxis -->
<g id="node3" class="node">
<title>SortObservableAxis</title>
<polygon fill="#32cd32" stroke="#000000" points="342.1926,-561 216.3435,-543 342.1926,-525 468.0418,-543 342.1926,-561"/>
<text text-anchor="middle" x="342.1926" y="-539.3" font-family="Helvetica,sans-Serif" font-size="14.00" fill="#000000">SortObservableAxis</text>
</g>
<!-- SortXAxis -->
<g id="node15" class="node">
<title>SortXAxis</title>
<path fill="#87cefa" stroke="#000000" d="M335.1926,-474C335.1926,-474 283.1926,-474 283.1926,-474 277.1926,-474 271.1926,-468 271.1926,-462 271.1926,-462 271.1926,-450 271.1926,-450 271.1926,-444 277.1926,-438 283.1926,-438 283.1926,-438 335.1926,-438 335.1926,-438 341.1926,-438 347.1926,-444 347.1926,-450 347.1926,-450 347.1926,-462 347.1926,-462 347.1926,-468 341.1926,-474 335.1926,-474"/>
<text text-anchor="middle" x="309.1926" y="-452.3" font-family="Helvetica,sans-Serif" font-size="14.00" fill="#000000">SortXAxis</text>
</g>
<!-- SortObservableAxis&#45;&gt;SortXAxis -->
<g id="edge22" class="edge">
<title>SortObservableAxis&#45;&gt;SortXAxis</title>
<path fill="none" stroke="#000000" d="M335.6729,-525.8116C331.1082,-513.7774 324.9111,-497.4396 319.6596,-483.5947"/>
<polygon fill="#000000" stroke="#000000" points="322.8587,-482.1599 316.0396,-474.0512 316.3137,-484.6425 322.8587,-482.1599"/>
<text text-anchor="middle" x="340.1926" y="-495.8" font-family="Helvetica,sans-Serif" font-size="14.00" fill="#000000">Yes</text>
</g>
<!-- crop_negative_2theta -->
<g id="node25" class="node">
<title>crop_negative_2theta</title>
<polygon fill="#20b2aa" stroke="#000000" points="415.1926,-401 269.1926,-401 269.1926,-365 415.1926,-365 415.1926,-401"/>
<text text-anchor="middle" x="342.1926" y="-379.3" font-family="Helvetica,sans-Serif" font-size="14.00" fill="#000000">crop_negative_2theta</text>
</g>
<!-- SortObservableAxis&#45;&gt;crop_negative_2theta -->
<g id="edge24" class="edge">
<title>SortObservableAxis&#45;&gt;crop_negative_2theta</title>
<path fill="none" stroke="#000000" d="M350.3719,-525.8055C352.7401,-519.9717 355.0056,-513.3274 356.1926,-507 361.8471,-476.8591 360.0046,-468.4288 356.1926,-438 355.0781,-429.1032 352.9869,-419.5818 350.7542,-411.004"/>
<polygon fill="#000000" stroke="#000000" points="354.0577,-409.8183 348.0168,-401.1144 347.3114,-411.6857 354.0577,-409.8183"/>
</g>
<!-- ROCCorrectionProvided&#45;&gt;SortObservableAxis -->
<g id="edge21" class="edge">
<title>ROCCorrectionProvided&#45;&gt;SortObservableAxis</title>
<path fill="none" stroke="#000000" d="M372.4241,-685.2659C366.5268,-657.514 355.0702,-603.6002 348.0784,-570.698"/>
<polygon fill="#000000" stroke="#000000" points="351.4802,-569.8676 345.978,-560.8136 344.6331,-571.3227 351.4802,-569.8676"/>
<text text-anchor="middle" x="371.1926" y="-612.3" font-family="Helvetica,sans-Serif" font-size="14.00" fill="#000000">No</text>
</g>
<!-- ROCCorrect -->
<g id="node19" class="node">
<title>ROCCorrect</title>
<path fill="#87cefa" stroke="#000000" d="M327.6926,-634C327.6926,-634 288.6926,-634 288.6926,-634 282.6926,-634 276.6926,-628 276.6926,-622 276.6926,-622 276.6926,-610 276.6926,-610 276.6926,-604 282.6926,-598 288.6926,-598 288.6926,-598 327.6926,-598 327.6926,-598 333.6926,-598 339.6926,-604 339.6926,-610 339.6926,-610 339.6926,-622 339.6926,-622 339.6926,-628 333.6926,-634 327.6926,-634"/>
<text text-anchor="middle" x="308.1926" y="-612.3" font-family="Helvetica,sans-Serif" font-size="14.00" fill="#000000">Multiply</text>
</g>
<!-- ROCCorrectionProvided&#45;&gt;ROCCorrect -->
<g id="edge17" class="edge">
<title>ROCCorrectionProvided&#45;&gt;ROCCorrect</title>
<path fill="none" stroke="#000000" d="M357.3608,-687.1102C350.8867,-681.1602 343.8507,-674.1114 338.1926,-667 332.4005,-659.7201 326.952,-651.2084 322.329,-643.2475"/>
<polygon fill="#000000" stroke="#000000" points="325.2421,-641.2855 317.3099,-634.262 319.1308,-644.6991 325.2421,-641.2855"/>
<text text-anchor="middle" x="350.1926" y="-655.8" font-family="Helvetica,sans-Serif" font-size="14.00" fill="#000000">Yes</text>
</g>
<!-- Run -->
<g id="node5" class="node">
<title>Run</title>
<ellipse fill="#f0e68c" stroke="#000000" cx="589.1926" cy="-1242" rx="27" ry="18"/>
<text text-anchor="middle" x="589.1926" y="-1238.3" font-family="Helvetica,sans-Serif" font-size="14.00" fill="#000000">Run</text>
</g>
<!-- LoadILLDiffraction -->
<g id="node13" class="node">
<title>LoadILLDiffraction</title>
<path fill="#87cefa" stroke="#000000" d="M640.1926,-1187C640.1926,-1187 538.1926,-1187 538.1926,-1187 532.1926,-1187 526.1926,-1181 526.1926,-1175 526.1926,-1175 526.1926,-1163 526.1926,-1163 526.1926,-1157 532.1926,-1151 538.1926,-1151 538.1926,-1151 640.1926,-1151 640.1926,-1151 646.1926,-1151 652.1926,-1157 652.1926,-1163 652.1926,-1163 652.1926,-1175 652.1926,-1175 652.1926,-1181 646.1926,-1187 640.1926,-1187"/>
<text text-anchor="middle" x="589.1926" y="-1165.3" font-family="Helvetica,sans-Serif" font-size="14.00" fill="#000000">LoadILLDiffraction</text>
</g>
<!-- Run&#45;&gt;LoadILLDiffraction -->
<g id="edge1" class="edge">
<title>Run&#45;&gt;LoadILLDiffraction</title>
<path fill="none" stroke="#000000" d="M589.1926,-1223.9551C589.1926,-1215.8828 589.1926,-1206.1764 589.1926,-1197.1817"/>
<polygon fill="#000000" stroke="#000000" points="592.6927,-1197.0903 589.1926,-1187.0904 585.6927,-1197.0904 592.6927,-1197.0903"/>
</g>
<!-- ROI -->
<g id="node6" class="node">
<title>ROI</title>
<ellipse fill="#f0e68c" stroke="#000000" cx="333.1926" cy="-1023" rx="27" ry="18"/>
<text text-anchor="middle" x="333.1926" y="-1019.3" font-family="Helvetica,sans-Serif" font-size="14.00" fill="#000000">ROI</text>
</g>
<!-- ROI&#45;&gt;NormaliseToROI -->
<g id="edge7" class="edge">
<title>ROI&#45;&gt;NormaliseToROI</title>
<path fill="none" stroke="#000000" d="M334.2286,-1004.9735C334.9057,-993.1918 335.8041,-977.5607 336.5743,-964.1581"/>
<polygon fill="#000000" stroke="#000000" points="340.0783,-964.1877 337.1579,-954.0034 333.0898,-963.786 340.0783,-964.1877"/>
</g>
<!-- Observable -->
<g id="node7" class="node">
<title>Observable</title>
<ellipse fill="#f0e68c" stroke="#000000" cx="452.1926" cy="-1169" rx="55.7903" ry="18"/>
<text text-anchor="middle" x="452.1926" y="-1165.3" font-family="Helvetica,sans-Serif" font-size="14.00" fill="#000000">Observable</text>
</g>
<!-- ConjoinXRuns -->
<g id="node14" class="node">
<title>ConjoinXRuns</title>
<path fill="#87cefa" stroke="#000000" d="M503.6926,-1114C503.6926,-1114 424.6926,-1114 424.6926,-1114 418.6926,-1114 412.6926,-1108 412.6926,-1102 412.6926,-1102 412.6926,-1090 412.6926,-1090 412.6926,-1084 418.6926,-1078 424.6926,-1078 424.6926,-1078 503.6926,-1078 503.6926,-1078 509.6926,-1078 515.6926,-1084 515.6926,-1090 515.6926,-1090 515.6926,-1102 515.6926,-1102 515.6926,-1108 509.6926,-1114 503.6926,-1114"/>
<text text-anchor="middle" x="464.1926" y="-1092.3" font-family="Helvetica,sans-Serif" font-size="14.00" fill="#000000">ConjoinXRuns</text>
</g>
<!-- Observable&#45;&gt;ConjoinXRuns -->
<g id="edge3" class="edge">
<title>Observable&#45;&gt;ConjoinXRuns</title>
<path fill="none" stroke="#000000" d="M455.1589,-1150.9551C456.4859,-1142.8828 458.0814,-1133.1764 459.56,-1124.1817"/>
<polygon fill="#000000" stroke="#000000" points="463.0504,-1124.5257 461.2189,-1114.0904 456.1431,-1123.3902 463.0504,-1124.5257"/>
</g>
<!-- CalibrationFile -->
<g id="node8" class="node">
<title>CalibrationFile</title>
<ellipse fill="#f0e68c" stroke="#000000" cx="194.1926" cy="-936" rx="66.8882" ry="18"/>
<text text-anchor="middle" x="194.1926" y="-932.3" font-family="Helvetica,sans-Serif" font-size="14.00" fill="#000000">CalibrationFile</text>
</g>
<!-- LoadCalibration -->
<g id="node23" class="node">
<title>LoadCalibration</title>
<path fill="#87cefa" stroke="#000000" d="M256.6926,-881C256.6926,-881 131.6926,-881 131.6926,-881 125.6926,-881 119.6926,-875 119.6926,-869 119.6926,-869 119.6926,-857 119.6926,-857 119.6926,-851 125.6926,-845 131.6926,-845 131.6926,-845 256.6926,-845 256.6926,-845 262.6926,-845 268.6926,-851 268.6926,-857 268.6926,-857 268.6926,-869 268.6926,-869 268.6926,-875 262.6926,-881 256.6926,-881"/>
<text text-anchor="middle" x="194.1926" y="-859.3" font-family="Helvetica,sans-Serif" font-size="14.00" fill="#000000">LoadNexusProcessed</text>
</g>
<!-- CalibrationFile&#45;&gt;LoadCalibration -->
<g id="edge13" class="edge">
<title>CalibrationFile&#45;&gt;LoadCalibration</title>
<path fill="none" stroke="#000000" d="M194.1926,-917.9551C194.1926,-909.8828 194.1926,-900.1764 194.1926,-891.1817"/>
<polygon fill="#000000" stroke="#000000" points="197.6927,-891.0903 194.1926,-881.0904 190.6927,-891.0904 197.6927,-891.0903"/>
</g>
<!-- OutputWorkspace -->
<g id="node9" class="node">
<title>OutputWorkspace</title>
<ellipse fill="#f0e68c" stroke="#000000" cx="95.1926" cy="-18" rx="81.7856" ry="18"/>
<text text-anchor="middle" x="95.1926" y="-14.3" font-family="Helvetica,sans-Serif" font-size="14.00" fill="#000000">OutputWorkspace</text>
</g>
<!-- ScanAxisBinWidth -->
<g id="node10" class="node">
<title>ScanAxisBinWidth</title>
<ellipse fill="#f0e68c" stroke="#000000" cx="83.1926" cy="-164" rx="83.3857" ry="18"/>
<text text-anchor="middle" x="83.1926" y="-160.3" font-family="Helvetica,sans-Serif" font-size="14.00" fill="#000000">ScanAxisBinWidth</text>
</g>
<!-- group_spectra -->
<g id="node27" class="node">
<title>group_spectra</title>
<polygon fill="#20b2aa" stroke="#000000" points="146.6926,-109 43.6926,-109 43.6926,-73 146.6926,-73 146.6926,-109"/>
<text text-anchor="middle" x="95.1926" y="-87.3" font-family="Helvetica,sans-Serif" font-size="14.00" fill="#000000">group_spectra</text>
</g>
<!-- ScanAxisBinWidth&#45;&gt;group_spectra -->
<g id="edge29" class="edge">
<title>ScanAxisBinWidth&#45;&gt;group_spectra</title>
<path fill="none" stroke="#000000" d="M86.1589,-145.9551C87.4859,-137.8828 89.0814,-128.1764 90.56,-119.1817"/>
<polygon fill="#000000" stroke="#000000" points="94.0504,-119.5257 92.2189,-109.0904 87.1431,-118.3902 94.0504,-119.5257"/>
</g>
<!-- ROCCorrectionFile -->
<g id="node11" class="node">
<title>ROCCorrectionFile</title>
<ellipse fill="#f0e68c" stroke="#000000" cx="134.1926" cy="-776" rx="85.2851" ry="18"/>
<text text-anchor="middle" x="134.1926" y="-772.3" font-family="Helvetica,sans-Serif" font-size="14.00" fill="#000000">ROCCorrectionFile</text>
</g>
<!-- LoadROC -->
<g id="node24" class="node">
<title>LoadROC</title>
<path fill="#87cefa" stroke="#000000" d="M196.6926,-721C196.6926,-721 71.6926,-721 71.6926,-721 65.6926,-721 59.6926,-715 59.6926,-709 59.6926,-709 59.6926,-697 59.6926,-697 59.6926,-691 65.6926,-685 71.6926,-685 71.6926,-685 196.6926,-685 196.6926,-685 202.6926,-685 208.6926,-691 208.6926,-697 208.6926,-697 208.6926,-709 208.6926,-709 208.6926,-715 202.6926,-721 196.6926,-721"/>
<text text-anchor="middle" x="134.1926" y="-699.3" font-family="Helvetica,sans-Serif" font-size="14.00" fill="#000000">LoadNexusProcessed</text>
</g>
<!-- ROCCorrectionFile&#45;&gt;LoadROC -->
<g id="edge18" class="edge">
<title>ROCCorrectionFile&#45;&gt;LoadROC</title>
<path fill="none" stroke="#000000" d="M134.1926,-757.9551C134.1926,-749.8828 134.1926,-740.1764 134.1926,-731.1817"/>
<polygon fill="#000000" stroke="#000000" points="137.6927,-731.0903 134.1926,-721.0904 130.6927,-731.0904 137.6927,-731.0903"/>
</g>
<!-- Unit -->
<g id="node12" class="node">
<title>Unit</title>
<ellipse fill="#f0e68c" stroke="#000000" cx="212.1926" cy="-310" rx="27" ry="18"/>
<text text-anchor="middle" x="212.1926" y="-306.3" font-family="Helvetica,sans-Serif" font-size="14.00" fill="#000000">Unit</text>
</g>
<!-- ConvertSpectrumAxis -->
<g id="node16" class="node">
<title>ConvertSpectrumAxis</title>
<path fill="#87cefa" stroke="#000000" d="M286.1926,-255C286.1926,-255 162.1926,-255 162.1926,-255 156.1926,-255 150.1926,-249 150.1926,-243 150.1926,-243 150.1926,-231 150.1926,-231 150.1926,-225 156.1926,-219 162.1926,-219 162.1926,-219 286.1926,-219 286.1926,-219 292.1926,-219 298.1926,-225 298.1926,-231 298.1926,-231 298.1926,-243 298.1926,-243 298.1926,-249 292.1926,-255 286.1926,-255"/>
<text text-anchor="middle" x="224.1926" y="-233.3" font-family="Helvetica,sans-Serif" font-size="14.00" fill="#000000">ConvertSpectrumAxis</text>
</g>
<!-- Unit&#45;&gt;ConvertSpectrumAxis -->
<g id="edge27" class="edge">
<title>Unit&#45;&gt;ConvertSpectrumAxis</title>
<path fill="none" stroke="#000000" d="M215.1589,-291.9551C216.4859,-283.8828 218.0814,-274.1764 219.56,-265.1817"/>
<polygon fill="#000000" stroke="#000000" points="223.0504,-265.5257 221.2189,-255.0904 216.1431,-264.3902 223.0504,-265.5257"/>
</g>
<!-- LoadILLDiffraction&#45;&gt;ConjoinXRuns -->
<g id="edge2" class="edge">
<title>LoadILLDiffraction&#45;&gt;ConjoinXRuns</title>
<path fill="none" stroke="#000000" d="M558.2937,-1150.9551C541.9173,-1141.3912 521.6128,-1129.5334 504.0613,-1119.2833"/>
<polygon fill="#000000" stroke="#000000" points="505.5696,-1116.1111 495.1693,-1114.0904 502.0395,-1122.1558 505.5696,-1116.1111"/>
</g>
<!-- ConjoinXRuns&#45;&gt;NormaliseTo -->
<g id="edge4" class="edge">
<title>ConjoinXRuns&#45;&gt;NormaliseTo</title>
<path fill="none" stroke="#000000" d="M464.1926,-1077.9551C464.1926,-1069.8828 464.1926,-1060.1764 464.1926,-1051.1817"/>
<polygon fill="#000000" stroke="#000000" points="467.6927,-1051.0903 464.1926,-1041.0904 460.6927,-1051.0904 467.6927,-1051.0903"/>
</g>
<!-- SortXAxis&#45;&gt;crop_negative_2theta -->
<g id="edge23" class="edge">
<title>SortXAxis&#45;&gt;crop_negative_2theta</title>
<path fill="none" stroke="#000000" d="M317.3499,-437.9551C321.118,-429.6196 325.6738,-419.5416 329.8496,-410.3042"/>
<polygon fill="#000000" stroke="#000000" points="333.0848,-411.6443 334.0148,-401.0904 326.7062,-408.7608 333.0848,-411.6443"/>
</g>
<!-- Transpose -->
<g id="node17" class="node">
<title>Transpose</title>
<path fill="#87cefa" stroke="#000000" d="M252.1926,-182C252.1926,-182 196.1926,-182 196.1926,-182 190.1926,-182 184.1926,-176 184.1926,-170 184.1926,-170 184.1926,-158 184.1926,-158 184.1926,-152 190.1926,-146 196.1926,-146 196.1926,-146 252.1926,-146 252.1926,-146 258.1926,-146 264.1926,-152 264.1926,-158 264.1926,-158 264.1926,-170 264.1926,-170 264.1926,-176 258.1926,-182 252.1926,-182"/>
<text text-anchor="middle" x="224.1926" y="-160.3" font-family="Helvetica,sans-Serif" font-size="14.00" fill="#000000">Transpose</text>
</g>
<!-- ConvertSpectrumAxis&#45;&gt;Transpose -->
<g id="edge28" class="edge">
<title>ConvertSpectrumAxis&#45;&gt;Transpose</title>
<path fill="none" stroke="#000000" d="M224.1926,-218.9551C224.1926,-210.8828 224.1926,-201.1764 224.1926,-192.1817"/>
<polygon fill="#000000" stroke="#000000" points="227.6927,-192.0903 224.1926,-182.0904 220.6927,-192.0904 227.6927,-192.0903"/>
</g>
<!-- Transpose&#45;&gt;group_spectra -->
<g id="edge30" class="edge">
<title>Transpose&#45;&gt;group_spectra</title>
<path fill="none" stroke="#000000" d="M192.305,-145.9551C175.4045,-136.3912 154.4503,-124.5334 136.3371,-114.2833"/>
<polygon fill="#000000" stroke="#000000" points="137.5874,-110.9693 127.1605,-109.0904 134.1399,-117.0615 137.5874,-110.9693"/>
</g>
<!-- Calibrate&#45;&gt;ROCCorrectionProvided -->
<g id="edge16" class="edge">
<title>Calibrate&#45;&gt;ROCCorrectionProvided</title>
<path fill="none" stroke="#000000" d="M350.5971,-757.9551C354.5669,-749.4316 359.3854,-739.0861 363.7661,-729.6804"/>
<polygon fill="#000000" stroke="#000000" points="367.0696,-730.8774 368.1189,-720.3347 360.7241,-727.922 367.0696,-730.8774"/>
</g>
<!-- ROCCorrect&#45;&gt;SortObservableAxis -->
<g id="edge20" class="edge">
<title>ROCCorrect&#45;&gt;SortObservableAxis</title>
<path fill="none" stroke="#000000" d="M316.5971,-597.9551C320.5669,-589.4316 325.3854,-579.0861 329.7661,-569.6804"/>
<polygon fill="#000000" stroke="#000000" points="333.0696,-570.8774 334.1189,-560.3347 326.7241,-567.922 333.0696,-570.8774"/>
</g>
<!-- NormaliseToMonitor&#45;&gt;CalibrationProvided -->
<g id="edge11" class="edge">
<title>NormaliseToMonitor&#45;&gt;CalibrationProvided</title>
<path fill="none" stroke="#000000" d="M410.1926,-917.9551C410.1926,-909.8828 410.1926,-900.1764 410.1926,-891.1817"/>
<polygon fill="#000000" stroke="#000000" points="413.6927,-891.0903 410.1926,-881.0904 406.6927,-891.0904 413.6927,-891.0903"/>
</g>
<!-- NormaliseToTime&#45;&gt;CalibrationProvided -->
<g id="edge9" class="edge">
<title>NormaliseToTime&#45;&gt;CalibrationProvided</title>
<path fill="none" stroke="#000000" d="M471.923,-917.9551C460.9021,-908.1438 447.1695,-895.9184 435.4567,-885.4912"/>
<polygon fill="#000000" stroke="#000000" points="437.525,-882.6465 427.7286,-878.6113 432.8705,-887.8748 437.525,-882.6465"/>
</g>
<!-- NormaliseToROI&#45;&gt;CalibrationProvided -->
<g id="edge10" class="edge">
<title>NormaliseToROI&#45;&gt;CalibrationProvided</title>
<path fill="none" stroke="#000000" d="M355.9904,-917.9551C365.5071,-908.3061 377.3269,-896.3222 387.4978,-886.0101"/>
<polygon fill="#000000" stroke="#000000" points="390.0256,-888.4314 394.5558,-878.854 385.0418,-883.5159 390.0256,-888.4314"/>
</g>
<!-- LoadCalibration&#45;&gt;Calibrate -->
<g id="edge14" class="edge">
<title>LoadCalibration&#45;&gt;Calibrate</title>
<path fill="none" stroke="#000000" d="M224.8583,-844.9735C247.4806,-831.6753 278.4454,-813.473 302.8849,-799.1065"/>
<polygon fill="#000000" stroke="#000000" points="304.7191,-802.0884 311.5662,-794.0034 301.1717,-796.0538 304.7191,-802.0884"/>
</g>
<!-- LoadROC&#45;&gt;ROCCorrect -->
<g id="edge19" class="edge">
<title>LoadROC&#45;&gt;ROCCorrect</title>
<path fill="none" stroke="#000000" d="M170.2455,-684.9735C198.5393,-670.8267 237.9329,-651.1299 267.3821,-636.4053"/>
<polygon fill="#000000" stroke="#000000" points="269.1884,-639.4153 276.5675,-631.8126 266.0579,-633.1543 269.1884,-639.4153"/>
</g>
<!-- treat_zero_counting_cells -->
<g id="node26" class="node">
<title>treat_zero_counting_cells</title>
<polygon fill="#20b2aa" stroke="#000000" points="427.1926,-328 257.1926,-328 257.1926,-292 427.1926,-292 427.1926,-328"/>
<text text-anchor="middle" x="342.1926" y="-306.3" font-family="Helvetica,sans-Serif" font-size="14.00" fill="#000000">treat_zero_counting_cells</text>
</g>
<!-- crop_negative_2theta&#45;&gt;treat_zero_counting_cells -->
<g id="edge25" class="edge">
<title>crop_negative_2theta&#45;&gt;treat_zero_counting_cells</title>
<path fill="none" stroke="#000000" d="M342.1926,-364.9551C342.1926,-356.8828 342.1926,-347.1764 342.1926,-338.1817"/>
<polygon fill="#000000" stroke="#000000" points="345.6927,-338.0903 342.1926,-328.0904 338.6927,-338.0904 345.6927,-338.0903"/>
</g>
<!-- treat_zero_counting_cells&#45;&gt;ConvertSpectrumAxis -->
<g id="edge26" class="edge">
<title>treat_zero_counting_cells&#45;&gt;ConvertSpectrumAxis</title>
<path fill="none" stroke="#000000" d="M313.0241,-291.9551C297.7066,-282.479 278.7487,-270.7508 262.2853,-260.5658"/>
<polygon fill="#000000" stroke="#000000" points="263.7802,-257.375 253.4346,-255.0904 260.0974,-263.3279 263.7802,-257.375"/>
</g>
<!-- group_spectra&#45;&gt;OutputWorkspace -->
<g id="edge31" class="edge">
<title>group_spectra&#45;&gt;OutputWorkspace</title>
<path fill="none" stroke="#000000" d="M95.1926,-72.9551C95.1926,-64.8828 95.1926,-55.1764 95.1926,-46.1817"/>
<polygon fill="#000000" stroke="#000000" points="98.6927,-46.0903 95.1926,-36.0904 91.6927,-46.0904 98.6927,-46.0903"/>
</g>
</g>
</svg>
