<?xml version="1.0" encoding="UTF-8" standalone="no"?>
<!DOCTYPE svg PUBLIC "-//W3C//DTD SVG 1.1//EN"
 "http://www.w3.org/Graphics/SVG/1.1/DTD/svg11.dtd">
<!-- Generated by graphviz version 2.40.1 (20161225.0304)
 -->
<!-- Title: SANSBeamFluxCorrection Pages: 1 -->
<svg width="574pt" height="519pt"
 viewBox="0.00 0.00 574.12 519.00" xmlns="http://www.w3.org/2000/svg" xmlns:xlink="http://www.w3.org/1999/xlink">
<g id="graph0" class="graph" transform="scale(1 1) rotate(0) translate(4 515)">
<title>SANSBeamFluxCorrection</title>
<polygon fill="#ffffff" stroke="transparent" points="-4,4 -4,-515 570.1179,-515 570.1179,4 -4,4"/>
<text text-anchor="middle" x="283.059" y="-495.8" font-family="Helvetica,sans-Serif" font-size="14.00" fill="#000000">SANSBeamFluxCorrection Flowchart</text>
<!-- flexRefWS -->
<g id="node1" class="node">
<title>flexRefWS</title>
<ellipse fill="#f0e68c" stroke="#000000" cx="124.9755" cy="-310" rx="85.2851" ry="18"/>
<text text-anchor="middle" x="124.9755" y="-306.3" font-family="Helvetica,sans-Serif" font-size="14.00" fill="#000000">FlexRefWorkspace</text>
</g>
<!-- convertToHist -->
<g id="node6" class="node">
<title>convertToHist</title>
<path fill="#87cefa" stroke="#000000" d="M220.9755,-255C220.9755,-255 84.9755,-255 84.9755,-255 78.9755,-255 72.9755,-249 72.9755,-243 72.9755,-243 72.9755,-231 72.9755,-231 72.9755,-225 78.9755,-219 84.9755,-219 84.9755,-219 220.9755,-219 220.9755,-219 226.9755,-219 232.9755,-225 232.9755,-231 232.9755,-231 232.9755,-243 232.9755,-243 232.9755,-249 226.9755,-255 220.9755,-255"/>
<text text-anchor="middle" x="152.9755" y="-233.3" font-family="Helvetica,sans-Serif" font-size="14.00" fill="#000000">ConvertToHistogram v1</text>
</g>
<!-- flexRefWS&#45;&gt;convertToHist -->
<g id="edge4" class="edge">
<title>flexRefWS&#45;&gt;convertToHist</title>
<path fill="none" stroke="#000000" d="M131.8969,-291.9551C135.0604,-283.7074 138.8782,-273.7536 142.3907,-264.5962"/>
<polygon fill="#000000" stroke="#000000" points="145.7233,-265.6806 146.0367,-255.0904 139.1876,-263.1737 145.7233,-265.6806"/>
</g>
<!-- monitorWS -->
<g id="node2" class="node">
<title>monitorWS</title>
<ellipse fill="#f0e68c" stroke="#000000" cx="480.9755" cy="-310" rx="85.2851" ry="18"/>
<text text-anchor="middle" x="480.9755" y="-306.3" font-family="Helvetica,sans-Serif" font-size="14.00" fill="#000000">MonitorWorkspace</text>
</g>
<!-- rebinToWs2 -->
<g id="node8" class="node">
<title>rebinToWs2</title>
<path fill="#87cefa" stroke="#000000" d="M497.9755,-255C497.9755,-255 367.9755,-255 367.9755,-255 361.9755,-255 355.9755,-249 355.9755,-243 355.9755,-243 355.9755,-231 355.9755,-231 355.9755,-225 361.9755,-219 367.9755,-219 367.9755,-219 497.9755,-219 497.9755,-219 503.9755,-219 509.9755,-225 509.9755,-231 509.9755,-231 509.9755,-243 509.9755,-243 509.9755,-249 503.9755,-255 497.9755,-255"/>
<text text-anchor="middle" x="432.9755" y="-233.3" font-family="Helvetica,sans-Serif" font-size="14.00" fill="#000000">RebinToWorkspace v1</text>
</g>
<!-- monitorWS&#45;&gt;rebinToWs2 -->
<g id="edge9" class="edge">
<title>monitorWS&#45;&gt;rebinToWs2</title>
<path fill="none" stroke="#000000" d="M469.1103,-291.9551C463.5141,-283.4441 456.7233,-273.1165 450.5461,-263.7219"/>
<polygon fill="#000000" stroke="#000000" points="453.2891,-261.523 444.8705,-255.0904 447.4402,-265.3689 453.2891,-261.523"/>
</g>
<!-- inputWS -->
<g id="node3" class="node">
<title>inputWS</title>
<ellipse fill="#f0e68c" stroke="#000000" cx="302.9755" cy="-310" rx="74.9875" ry="18"/>
<text text-anchor="middle" x="302.9755" y="-306.3" font-family="Helvetica,sans-Serif" font-size="14.00" fill="#000000">InputWorkspace</text>
</g>
<!-- rebinToWs -->
<g id="node7" class="node">
<title>rebinToWs</title>
<path fill="#87cefa" stroke="#000000" d="M288.9755,-182C288.9755,-182 158.9755,-182 158.9755,-182 152.9755,-182 146.9755,-176 146.9755,-170 146.9755,-170 146.9755,-158 146.9755,-158 146.9755,-152 152.9755,-146 158.9755,-146 158.9755,-146 288.9755,-146 288.9755,-146 294.9755,-146 300.9755,-152 300.9755,-158 300.9755,-158 300.9755,-170 300.9755,-170 300.9755,-176 294.9755,-182 288.9755,-182"/>
<text text-anchor="middle" x="223.9755" y="-160.3" font-family="Helvetica,sans-Serif" font-size="14.00" fill="#000000">RebinToWorkspace v1</text>
</g>
<!-- inputWS&#45;&gt;rebinToWs -->
<g id="edge6" class="edge">
<title>inputWS&#45;&gt;rebinToWs</title>
<path fill="none" stroke="#000000" d="M293.2885,-292.0975C279.607,-266.8127 254.5169,-220.4437 238.5714,-190.9747"/>
<polygon fill="#000000" stroke="#000000" points="241.5789,-189.1783 233.7417,-182.0489 235.4224,-192.5096 241.5789,-189.1783"/>
</g>
<!-- inputWS&#45;&gt;rebinToWs2 -->
<g id="edge8" class="edge">
<title>inputWS&#45;&gt;rebinToWs2</title>
<path fill="none" stroke="#000000" d="M332.4745,-293.4352C350.065,-283.5574 372.6593,-270.8699 391.9679,-260.0273"/>
<polygon fill="#000000" stroke="#000000" points="393.8559,-262.9813 400.8615,-255.0332 390.4285,-256.8778 393.8559,-262.9813"/>
</g>
<!-- divide -->
<g id="node9" class="node">
<title>divide</title>
<path fill="#87cefa" stroke="#000000" d="M378.9755,-182C378.9755,-182 330.9755,-182 330.9755,-182 324.9755,-182 318.9755,-176 318.9755,-170 318.9755,-170 318.9755,-158 318.9755,-158 318.9755,-152 324.9755,-146 330.9755,-146 330.9755,-146 378.9755,-146 378.9755,-146 384.9755,-146 390.9755,-152 390.9755,-158 390.9755,-158 390.9755,-170 390.9755,-170 390.9755,-176 384.9755,-182 378.9755,-182"/>
<text text-anchor="middle" x="354.9755" y="-160.3" font-family="Helvetica,sans-Serif" font-size="14.00" fill="#000000">Divide v1</text>
</g>
<!-- inputWS&#45;&gt;divide -->
<g id="edge11" class="edge">
<title>inputWS&#45;&gt;divide</title>
<path fill="none" stroke="#000000" d="M309.4562,-291.8042C318.3698,-266.7775 334.4965,-221.4988 344.9667,-192.1017"/>
<polygon fill="#000000" stroke="#000000" points="348.355,-193.0198 348.4131,-182.4251 341.7608,-190.6711 348.355,-193.0198"/>
</g>
<!-- outputWS -->
<g id="node4" class="node">
<title>outputWS</title>
<ellipse fill="#f0e68c" stroke="#000000" cx="288.9755" cy="-18" rx="81.7856" ry="18"/>
<text text-anchor="middle" x="288.9755" y="-14.3" font-family="Helvetica,sans-Serif" font-size="14.00" fill="#000000">OutputWorkspace</text>
</g>
<!-- isEntryName -->
<g id="node5" class="node">
<title>isEntryName</title>
<polygon fill="#32cd32" stroke="#000000" points="113.9755,-488 .0245,-470 113.9755,-452 227.9265,-470 113.9755,-488"/>
<text text-anchor="middle" x="113.9755" y="-466.3" font-family="Helvetica,sans-Serif" font-size="14.00" fill="#000000">Has Entry Name?</text>
</g>
<!-- isEntryName&#45;&gt;flexRefWS -->
<g id="edge2" class="edge">
<title>isEntryName&#45;&gt;flexRefWS</title>
<path fill="none" stroke="#000000" d="M122.0066,-453.169C124.4281,-447.2487 126.7638,-440.4592 127.9755,-434 134.0554,-401.5913 131.7887,-363.5884 128.985,-338.2787"/>
<polygon fill="#000000" stroke="#000000" points="132.449,-337.7695 127.7734,-328.2622 125.4997,-338.6101 132.449,-337.7695"/>
<text text-anchor="middle" x="199.9755" y="-379.3" font-family="Helvetica,sans-Serif" font-size="14.00" fill="#000000">No. Empty Workspace</text>
</g>
<!-- load -->
<g id="node11" class="node">
<title>load</title>
<path fill="#87cefa" stroke="#000000" d="M100.4755,-401C100.4755,-401 59.4755,-401 59.4755,-401 53.4755,-401 47.4755,-395 47.4755,-389 47.4755,-389 47.4755,-377 47.4755,-377 47.4755,-371 53.4755,-365 59.4755,-365 59.4755,-365 100.4755,-365 100.4755,-365 106.4755,-365 112.4755,-371 112.4755,-377 112.4755,-377 112.4755,-389 112.4755,-389 112.4755,-395 106.4755,-401 100.4755,-401"/>
<text text-anchor="middle" x="79.9755" y="-379.3" font-family="Helvetica,sans-Serif" font-size="14.00" fill="#000000">Load v1</text>
</g>
<!-- isEntryName&#45;&gt;load -->
<g id="edge1" class="edge">
<title>isEntryName&#45;&gt;load</title>
<path fill="none" stroke="#000000" d="M107.2582,-452.8116C102.5552,-440.7774 96.1703,-424.4396 90.7596,-410.5947"/>
<polygon fill="#000000" stroke="#000000" points="93.9299,-409.0912 87.03,-401.0512 87.4101,-411.6392 93.9299,-409.0912"/>
<text text-anchor="middle" x="111.9755" y="-422.8" font-family="Helvetica,sans-Serif" font-size="14.00" fill="#000000">Yes</text>
</g>
<!-- convertToHist&#45;&gt;rebinToWs -->
<g id="edge5" class="edge">
<title>convertToHist&#45;&gt;rebinToWs</title>
<path fill="none" stroke="#000000" d="M170.5261,-218.9551C179.2305,-210.0054 189.8887,-199.047 199.3911,-189.2769"/>
<polygon fill="#000000" stroke="#000000" points="201.9176,-191.6992 206.3808,-182.0904 196.8995,-186.8187 201.9176,-191.6992"/>
</g>
<!-- divide2 -->
<g id="node10" class="node">
<title>divide2</title>
<path fill="#87cefa" stroke="#000000" d="M312.9755,-109C312.9755,-109 264.9755,-109 264.9755,-109 258.9755,-109 252.9755,-103 252.9755,-97 252.9755,-97 252.9755,-85 252.9755,-85 252.9755,-79 258.9755,-73 264.9755,-73 264.9755,-73 312.9755,-73 312.9755,-73 318.9755,-73 324.9755,-79 324.9755,-85 324.9755,-85 324.9755,-97 324.9755,-97 324.9755,-103 318.9755,-109 312.9755,-109"/>
<text text-anchor="middle" x="288.9755" y="-87.3" font-family="Helvetica,sans-Serif" font-size="14.00" fill="#000000">Divide v1</text>
</g>
<!-- rebinToWs&#45;&gt;divide2 -->
<g id="edge7" class="edge">
<title>rebinToWs&#45;&gt;divide2</title>
<path fill="none" stroke="#000000" d="M240.0429,-145.9551C247.9336,-137.0932 257.5781,-126.2616 266.2125,-116.5646"/>
<polygon fill="#000000" stroke="#000000" points="268.8316,-118.8863 272.8676,-109.0904 263.6037,-114.2313 268.8316,-118.8863"/>
</g>
<!-- rebinToWs2&#45;&gt;divide -->
<g id="edge10" class="edge">
<title>rebinToWs2&#45;&gt;divide</title>
<path fill="none" stroke="#000000" d="M413.6946,-218.9551C404.0382,-209.9177 392.1931,-198.8319 381.6771,-188.9899"/>
<polygon fill="#000000" stroke="#000000" points="383.9978,-186.3681 374.3049,-182.0904 379.2145,-191.479 383.9978,-186.3681"/>
</g>
<!-- divide&#45;&gt;divide2 -->
<g id="edge12" class="edge">
<title>divide&#45;&gt;divide2</title>
<path fill="none" stroke="#000000" d="M338.6609,-145.9551C330.6488,-137.0932 320.8559,-126.2616 312.0887,-116.5646"/>
<polygon fill="#000000" stroke="#000000" points="314.6339,-114.1609 305.3312,-109.0904 309.4414,-118.8554 314.6339,-114.1609"/>
</g>
<!-- divide2&#45;&gt;outputWS -->
<g id="edge13" class="edge">
<title>divide2&#45;&gt;outputWS</title>
<path fill="none" stroke="#000000" d="M288.9755,-72.9551C288.9755,-64.8828 288.9755,-55.1764 288.9755,-46.1817"/>
<polygon fill="#000000" stroke="#000000" points="292.4756,-46.0903 288.9755,-36.0904 285.4756,-46.0904 292.4756,-46.0903"/>
</g>
<!-- load&#45;&gt;flexRefWS -->
<g id="edge3" class="edge">
<title>load&#45;&gt;flexRefWS</title>
<path fill="none" stroke="#000000" d="M91.0991,-364.9551C96.3456,-356.4441 102.7119,-346.1165 108.5031,-336.7219"/>
<polygon fill="#000000" stroke="#000000" points="111.5558,-338.4396 113.8239,-328.0904 105.597,-334.7663 111.5558,-338.4396"/>
</g>
</g>
</svg>
