<?xml version="1.0" encoding="UTF-8" standalone="no"?>
<!DOCTYPE svg PUBLIC "-//W3C//DTD SVG 1.1//EN"
 "http://www.w3.org/Graphics/SVG/1.1/DTD/svg11.dtd">
<!-- Generated by graphviz version 2.40.1 (20161225.0304)
 -->
<!-- Title: SingleCrystalDiffuseReduction Pages: 1 -->
<svg width="680pt" height="701pt"
 viewBox="0.00 0.00 680.15 700.74" xmlns="http://www.w3.org/2000/svg" xmlns:xlink="http://www.w3.org/1999/xlink">
<g id="graph0" class="graph" transform="scale(1 1) rotate(0) translate(4 696.7401)">
<title>SingleCrystalDiffuseReduction</title>
<polygon fill="#ffffff" stroke="transparent" points="-4,4 -4,-696.7401 676.1453,-696.7401 676.1453,4 -4,4"/>
<text text-anchor="middle" x="336.0727" y="-677.5401" font-family="Helvetica,sans-Serif" font-size="14.00" fill="#000000">Single Crystal Diffuse Reduction</text>
<!-- Load -->
<g id="node1" class="node">
<title>Load</title>
<path fill="#87cefa" stroke="#000000" d="M455.6453,-579C455.6453,-579 425.6453,-579 425.6453,-579 419.6453,-579 413.6453,-573 413.6453,-567 413.6453,-567 413.6453,-555 413.6453,-555 413.6453,-549 419.6453,-543 425.6453,-543 425.6453,-543 455.6453,-543 455.6453,-543 461.6453,-543 467.6453,-549 467.6453,-555 467.6453,-555 467.6453,-567 467.6453,-567 467.6453,-573 461.6453,-579 455.6453,-579"/>
<text text-anchor="middle" x="440.6453" y="-557.3" font-family="Helvetica,sans-Serif" font-size="14.00" fill="#000000">Load</text>
</g>
<!-- LoadIsawUB -->
<g id="node2" class="node">
<title>LoadIsawUB</title>
<path fill="#87cefa" stroke="#000000" d="M437.1453,-506C437.1453,-506 368.1453,-506 368.1453,-506 362.1453,-506 356.1453,-500 356.1453,-494 356.1453,-494 356.1453,-482 356.1453,-482 356.1453,-476 362.1453,-470 368.1453,-470 368.1453,-470 437.1453,-470 437.1453,-470 443.1453,-470 449.1453,-476 449.1453,-482 449.1453,-482 449.1453,-494 449.1453,-494 449.1453,-500 443.1453,-506 437.1453,-506"/>
<text text-anchor="middle" x="402.6453" y="-484.3" font-family="Helvetica,sans-Serif" font-size="14.00" fill="#000000">LoadIsawUB</text>
</g>
<!-- Load&#45;&gt;LoadIsawUB -->
<g id="edge2" class="edge">
<title>Load&#45;&gt;LoadIsawUB</title>
<path fill="none" stroke="#000000" d="M431.2521,-542.9551C426.8674,-534.5319 421.5564,-524.3292 416.7068,-515.0128"/>
<polygon fill="#000000" stroke="#000000" points="419.7842,-513.3445 412.0622,-506.0904 413.5751,-516.5766 419.7842,-513.3445"/>
</g>
<!-- ConvertToMD -->
<g id="node3" class="node">
<title>ConvertToMD</title>
<path fill="#87cefa" stroke="#000000" d="M438.1453,-433C438.1453,-433 361.1453,-433 361.1453,-433 355.1453,-433 349.1453,-427 349.1453,-421 349.1453,-421 349.1453,-409 349.1453,-409 349.1453,-403 355.1453,-397 361.1453,-397 361.1453,-397 438.1453,-397 438.1453,-397 444.1453,-397 450.1453,-403 450.1453,-409 450.1453,-409 450.1453,-421 450.1453,-421 450.1453,-427 444.1453,-433 438.1453,-433"/>
<text text-anchor="middle" x="399.6453" y="-411.3" font-family="Helvetica,sans-Serif" font-size="14.00" fill="#000000">ConvertToMD</text>
</g>
<!-- LoadIsawUB&#45;&gt;ConvertToMD -->
<g id="edge3" class="edge">
<title>LoadIsawUB&#45;&gt;ConvertToMD</title>
<path fill="none" stroke="#000000" d="M401.9038,-469.9551C401.572,-461.8828 401.1731,-452.1764 400.8035,-443.1817"/>
<polygon fill="#000000" stroke="#000000" points="404.2965,-442.9382 400.3888,-433.0904 397.3024,-443.2257 404.2965,-442.9382"/>
</g>
<!-- MDNorm -->
<g id="node4" class="node">
<title>MDNorm</title>
<path fill="#87cefa" stroke="#000000" d="M370.6453,-360C370.6453,-360 156.6453,-360 156.6453,-360 150.6453,-360 144.6453,-354 144.6453,-348 144.6453,-348 144.6453,-334 144.6453,-334 144.6453,-328 150.6453,-322 156.6453,-322 156.6453,-322 370.6453,-322 370.6453,-322 376.6453,-322 382.6453,-328 382.6453,-334 382.6453,-334 382.6453,-348 382.6453,-348 382.6453,-354 376.6453,-360 370.6453,-360"/>
<text text-anchor="middle" x="263.6453" y="-344.8" font-family="Helvetica,sans-Serif" font-size="14.00" fill="#000000">MDNorm</text>
<text text-anchor="middle" x="263.6453" y="-329.8" font-family="Helvetica,sans-Serif" font-size="14.00" fill="#000000">(Accumulate data and normalisation)</text>
</g>
<!-- ConvertToMD&#45;&gt;MDNorm -->
<g id="edge4" class="edge">
<title>ConvertToMD&#45;&gt;MDNorm</title>
<path fill="none" stroke="#000000" d="M366.376,-396.8976C348.7255,-387.2936 326.8075,-375.3676 307.7557,-365.0012"/>
<polygon fill="#000000" stroke="#000000" points="309.4047,-361.9139 298.9479,-360.2088 306.059,-368.0627 309.4047,-361.9139"/>
</g>
<!-- isLastRunNumber -->
<g id="node7" class="node">
<title>isLastRunNumber</title>
<polygon fill="#32cd32" stroke="#000000" points="271.6453,-285 96.0272,-267 271.6453,-249 447.2634,-267 271.6453,-285"/>
<text text-anchor="middle" x="271.6453" y="-263.3" font-family="Helvetica,sans-Serif" font-size="14.00" fill="#000000">Is last Sample Run Number?</text>
</g>
<!-- MDNorm&#45;&gt;isLastRunNumber -->
<g id="edge5" class="edge">
<title>MDNorm&#45;&gt;isLastRunNumber</title>
<path fill="none" stroke="#000000" d="M265.7055,-321.9432C266.5906,-313.7558 267.643,-304.0219 268.6142,-295.038"/>
<polygon fill="#000000" stroke="#000000" points="272.107,-295.2921 269.7022,-284.9738 265.1476,-294.5397 272.107,-295.2921"/>
</g>
<!-- DivideMDbkg -->
<g id="node5" class="node">
<title>DivideMDbkg</title>
<path fill="#87cefa" stroke="#000000" d="M660.1453,-111C660.1453,-111 303.1453,-111 303.1453,-111 297.1453,-111 291.1453,-105 291.1453,-99 291.1453,-99 291.1453,-85 291.1453,-85 291.1453,-79 297.1453,-73 303.1453,-73 303.1453,-73 660.1453,-73 660.1453,-73 666.1453,-73 672.1453,-79 672.1453,-85 672.1453,-85 672.1453,-99 672.1453,-99 672.1453,-105 666.1453,-111 660.1453,-111"/>
<text text-anchor="middle" x="481.6453" y="-95.8" font-family="Helvetica,sans-Serif" font-size="14.00" fill="#000000">MinusMD</text>
<text text-anchor="middle" x="481.6453" y="-80.8" font-family="Helvetica,sans-Serif" font-size="14.00" fill="#000000">normalizedData &#45; normalizaedBackground*BackgroundScale</text>
</g>
<!-- OutputWorkspace -->
<g id="node12" class="node">
<title>OutputWorkspace</title>
<polygon fill="#c0c0c0" stroke="#000000" points="378.2272,-36 202.3162,-36 157.0634,0 332.9745,0 378.2272,-36"/>
<text text-anchor="middle" x="267.6453" y="-14.3" font-family="Times,serif" font-size="14.00" fill="#000000">OutputWorkspace</text>
</g>
<!-- DivideMDbkg&#45;&gt;OutputWorkspace -->
<g id="edge11" class="edge">
<title>DivideMDbkg&#45;&gt;OutputWorkspace</title>
<path fill="none" stroke="#000000" d="M426.535,-72.9432C396.922,-62.7031 360.3124,-50.0438 329.7008,-39.4584"/>
<polygon fill="#000000" stroke="#000000" points="330.584,-36.0605 319.9892,-36.1002 328.2963,-42.6762 330.584,-36.0605"/>
</g>
<!-- Background -->
<g id="node6" class="node">
<title>Background</title>
<polygon fill="#32cd32" stroke="#000000" points="271.6453,-198 118.1468,-180 271.6453,-162 425.1439,-180 271.6453,-198"/>
<text text-anchor="middle" x="271.6453" y="-176.3" font-family="Helvetica,sans-Serif" font-size="14.00" fill="#000000">Subtracting background?</text>
</g>
<!-- Background&#45;&gt;DivideMDbkg -->
<g id="edge10" class="edge">
<title>Background&#45;&gt;DivideMDbkg</title>
<path fill="none" stroke="#000000" d="M305.3855,-165.8613C338.0919,-152.1557 388.2639,-131.1313 426.7273,-115.0133"/>
<polygon fill="#000000" stroke="#000000" points="428.3658,-118.1216 436.2361,-111.0286 425.6604,-111.6655 428.3658,-118.1216"/>
<text text-anchor="middle" x="400.6453" y="-132.8" font-family="Helvetica,sans-Serif" font-size="14.00" fill="#000000">Yes</text>
</g>
<!-- Background&#45;&gt;OutputWorkspace -->
<g id="edge9" class="edge">
<title>Background&#45;&gt;OutputWorkspace</title>
<path fill="none" stroke="#000000" d="M269.3361,-162.1671C267.6561,-148.2571 265.5275,-128.4366 264.6453,-111 263.7919,-94.1327 264.1852,-89.8826 264.6453,-73 264.8798,-64.3967 265.3202,-55.0448 265.7927,-46.534"/>
<polygon fill="#000000" stroke="#000000" points="269.3,-46.512 266.3954,-36.3231 262.3122,-46.0995 269.3,-46.512"/>
<text text-anchor="middle" x="273.6453" y="-88.3" font-family="Helvetica,sans-Serif" font-size="14.00" fill="#000000">No</text>
</g>
<!-- isLastRunNumber&#45;&gt;Background -->
<g id="edge6" class="edge">
<title>isLastRunNumber&#45;&gt;Background</title>
<path fill="none" stroke="#000000" d="M271.6453,-248.9735C271.6453,-237.1918 271.6453,-221.5607 271.6453,-208.1581"/>
<polygon fill="#000000" stroke="#000000" points="275.1454,-208.0033 271.6453,-198.0034 268.1454,-208.0034 275.1454,-208.0033"/>
<text text-anchor="middle" x="283.6453" y="-219.8" font-family="Helvetica,sans-Serif" font-size="14.00" fill="#000000">Yes</text>
</g>
<!-- NextFile -->
<g id="node13" class="node">
<title>NextFile</title>
<polygon fill="#20b2aa" stroke="#000000" points="510.6453,-198 444.6453,-198 444.6453,-162 510.6453,-162 510.6453,-198"/>
<text text-anchor="middle" x="477.6453" y="-176.3" font-family="Helvetica,sans-Serif" font-size="14.00" fill="#000000">NextFile</text>
</g>
<!-- isLastRunNumber&#45;&gt;NextFile -->
<g id="edge7" class="edge">
<title>isLastRunNumber&#45;&gt;NextFile</title>
<path fill="none" stroke="#000000" d="M306.1251,-252.4382C341.6031,-237.4547 396.9307,-214.0882 435.1057,-197.9658"/>
<polygon fill="#000000" stroke="#000000" points="436.5687,-201.1473 444.4192,-194.0324 433.8453,-194.6988 436.5687,-201.1473"/>
<text text-anchor="middle" x="395.6453" y="-219.8" font-family="Helvetica,sans-Serif" font-size="14.00" fill="#000000">No</text>
</g>
<!-- RunNumberList -->
<g id="node8" class="node">
<title>RunNumberList</title>
<ellipse fill="#f0e68c" stroke="#000000" cx="440.6453" cy="-642.8701" rx="127.0588" ry="26.7407"/>
<text text-anchor="middle" x="440.6453" y="-646.6701" font-family="Helvetica,sans-Serif" font-size="14.00" fill="#000000">Filename</text>
<text text-anchor="middle" x="440.6453" y="-631.6701" font-family="Helvetica,sans-Serif" font-size="14.00" fill="#000000">(Loop for all files to reduce)</text>
</g>
<!-- RunNumberList&#45;&gt;Load -->
<g id="edge1" class="edge">
<title>RunNumberList&#45;&gt;Load</title>
<path fill="none" stroke="#000000" d="M440.6453,-615.6085C440.6453,-607.2357 440.6453,-598.0006 440.6453,-589.5444"/>
<polygon fill="#000000" stroke="#000000" points="444.1454,-589.3732 440.6453,-579.3732 437.1454,-589.3733 444.1454,-589.3732"/>
</g>
<!-- SolidAngle -->
<g id="node9" class="node">
<title>SolidAngle</title>
<ellipse fill="#f0e68c" stroke="#000000" cx="52.6453" cy="-415" rx="52.7911" ry="18"/>
<text text-anchor="middle" x="52.6453" y="-411.3" font-family="Helvetica,sans-Serif" font-size="14.00" fill="#000000">SolidAngle</text>
</g>
<!-- SolidAngle&#45;&gt;MDNorm -->
<g id="edge12" class="edge">
<title>SolidAngle&#45;&gt;MDNorm</title>
<path fill="none" stroke="#000000" d="M89.3987,-402.1102C119.7469,-391.4667 163.538,-376.1087 199.6266,-363.4521"/>
<polygon fill="#000000" stroke="#000000" points="200.8237,-366.7413 209.1018,-360.129 198.507,-360.1358 200.8237,-366.7413"/>
</g>
<!-- Flux -->
<g id="node10" class="node">
<title>Flux</title>
<ellipse fill="#f0e68c" stroke="#000000" cx="150.6453" cy="-415" rx="27.0966" ry="18"/>
<text text-anchor="middle" x="150.6453" y="-411.3" font-family="Helvetica,sans-Serif" font-size="14.00" fill="#000000">Flux</text>
</g>
<!-- Flux&#45;&gt;MDNorm -->
<g id="edge13" class="edge">
<title>Flux&#45;&gt;MDNorm</title>
<path fill="none" stroke="#000000" d="M170.0707,-402.2789C185.3237,-392.2903 207.031,-378.0749 225.6987,-365.85"/>
<polygon fill="#000000" stroke="#000000" points="227.8532,-368.6229 234.3015,-360.2163 224.0182,-362.7668 227.8532,-368.6229"/>
</g>
<!-- SymmetryOps -->
<g id="node11" class="node">
<title>SymmetryOps</title>
<ellipse fill="#f0e68c" stroke="#000000" cx="263.6453" cy="-415" rx="67.6881" ry="18"/>
<text text-anchor="middle" x="263.6453" y="-411.3" font-family="Helvetica,sans-Serif" font-size="14.00" fill="#000000">SymmetryOps</text>
</g>
<!-- SymmetryOps&#45;&gt;MDNorm -->
<g id="edge14" class="edge">
<title>SymmetryOps&#45;&gt;MDNorm</title>
<path fill="none" stroke="#000000" d="M263.6453,-396.7079C263.6453,-388.7096 263.6453,-379.1287 263.6453,-370.1859"/>
<polygon fill="#000000" stroke="#000000" points="267.1454,-370.1139 263.6453,-360.114 260.1454,-370.114 267.1454,-370.1139"/>
</g>
<!-- NextFile&#45;&gt;Load -->
<g id="edge8" class="edge">
<title>NextFile&#45;&gt;Load</title>
<path fill="none" stroke="#000000" d="M477.9783,-198.3299C478.2692,-215.9359 478.6453,-243.2849 478.6453,-267 478.6453,-488 478.6453,-488 478.6453,-488 478.6453,-504.6007 470.8178,-521.1698 462.268,-534.3163"/>
<polygon fill="#000000" stroke="#000000" points="459.1785,-532.6272 456.3208,-542.8293 464.9169,-536.6361 459.1785,-532.6272"/>
</g>
</g>
</svg>
