<?xml version="1.0" encoding="UTF-8" standalone="no"?>
<!DOCTYPE svg PUBLIC "-//W3C//DTD SVG 1.1//EN"
 "http://www.w3.org/Graphics/SVG/1.1/DTD/svg11.dtd">
<!-- Generated by graphviz version 2.40.1 (20161225.0304)
 -->
<!-- Title: FocusChunks Pages: 1 -->
<svg width="651pt" height="1435pt"
 viewBox="0.00 0.00 651.37 1435.00" xmlns="http://www.w3.org/2000/svg" xmlns:xlink="http://www.w3.org/1999/xlink">
<g id="graph0" class="graph" transform="scale(1 1) rotate(0) translate(4 1431)">
<title>FocusChunks</title>
<polygon fill="#ffffff" stroke="transparent" points="-4,4 -4,-1431 647.3701,-1431 647.3701,4 -4,4"/>
<text text-anchor="middle" x="321.685" y="-1411.8" font-family="Helvetica,sans-Serif" font-size="14.00" fill="#000000">FocusAndSum Flowchart</text>
<!-- RunNumberList -->
<g id="node1" class="node">
<title>RunNumberList</title>
<ellipse fill="#f0e68c" stroke="#000000" cx="531.0923" cy="-1386" rx="72.2875" ry="18"/>
<text text-anchor="middle" x="531.0923" y="-1382.3" font-family="Helvetica,sans-Serif" font-size="14.00" fill="#000000">RunNumberList</text>
</g>
<!-- getRunNumber -->
<g id="node8" class="node">
<title>getRunNumber</title>
<path fill="#87cefa" stroke="#000000" d="M581.0923,-1331C581.0923,-1331 481.0923,-1331 481.0923,-1331 475.0923,-1331 469.0923,-1325 469.0923,-1319 469.0923,-1319 469.0923,-1307 469.0923,-1307 469.0923,-1301 475.0923,-1295 481.0923,-1295 481.0923,-1295 581.0923,-1295 581.0923,-1295 587.0923,-1295 593.0923,-1301 593.0923,-1307 593.0923,-1307 593.0923,-1319 593.0923,-1319 593.0923,-1325 587.0923,-1331 581.0923,-1331"/>
<text text-anchor="middle" x="531.0923" y="-1309.3" font-family="Helvetica,sans-Serif" font-size="14.00" fill="#000000">Get a run number</text>
</g>
<!-- RunNumberList&#45;&gt;getRunNumber -->
<g id="edge1" class="edge">
<title>RunNumberList&#45;&gt;getRunNumber</title>
<path fill="none" stroke="#000000" d="M531.0923,-1367.9551C531.0923,-1359.8828 531.0923,-1350.1764 531.0923,-1341.1817"/>
<polygon fill="#000000" stroke="#000000" points="534.5924,-1341.0903 531.0923,-1331.0904 527.5924,-1341.0904 534.5924,-1341.0903"/>
</g>
<!-- FilterWall -->
<g id="node2" class="node">
<title>FilterWall</title>
<ellipse fill="#f0e68c" stroke="#000000" cx="327.0923" cy="-1167" rx="48.1917" ry="18"/>
<text text-anchor="middle" x="327.0923" y="-1163.3" font-family="Helvetica,sans-Serif" font-size="14.00" fill="#000000">FilterWall</text>
</g>
<!-- load -->
<g id="node9" class="node">
<title>load</title>
<path fill="#87cefa" stroke="#000000" d="M347.5923,-1112C347.5923,-1112 306.5923,-1112 306.5923,-1112 300.5923,-1112 294.5923,-1106 294.5923,-1100 294.5923,-1100 294.5923,-1088 294.5923,-1088 294.5923,-1082 300.5923,-1076 306.5923,-1076 306.5923,-1076 347.5923,-1076 347.5923,-1076 353.5923,-1076 359.5923,-1082 359.5923,-1088 359.5923,-1088 359.5923,-1100 359.5923,-1100 359.5923,-1106 353.5923,-1112 347.5923,-1112"/>
<text text-anchor="middle" x="327.0923" y="-1090.3" font-family="Helvetica,sans-Serif" font-size="14.00" fill="#000000">Load v1</text>
</g>
<!-- FilterWall&#45;&gt;load -->
<g id="edge5" class="edge">
<title>FilterWall&#45;&gt;load</title>
<path fill="none" stroke="#000000" d="M327.0923,-1148.9551C327.0923,-1140.8828 327.0923,-1131.1764 327.0923,-1122.1817"/>
<polygon fill="#000000" stroke="#000000" points="330.5924,-1122.0903 327.0923,-1112.0904 323.5924,-1122.0904 330.5924,-1122.0903"/>
</g>
<!-- CalibrationFile -->
<g id="node3" class="node">
<title>CalibrationFile</title>
<ellipse fill="#f0e68c" stroke="#000000" cx="392.0923" cy="-934" rx="66.8882" ry="18"/>
<text text-anchor="middle" x="392.0923" y="-930.3" font-family="Helvetica,sans-Serif" font-size="14.00" fill="#000000">CalibrationFile</text>
</g>
<!-- alignAndFocusPowder -->
<g id="node7" class="node">
<title>alignAndFocusPowder</title>
<path fill="#87cefa" stroke="#000000" d="M371.5923,-879C371.5923,-879 224.5923,-879 224.5923,-879 218.5923,-879 212.5923,-873 212.5923,-867 212.5923,-867 212.5923,-855 212.5923,-855 212.5923,-849 218.5923,-843 224.5923,-843 224.5923,-843 371.5923,-843 371.5923,-843 377.5923,-843 383.5923,-849 383.5923,-855 383.5923,-855 383.5923,-867 383.5923,-867 383.5923,-873 377.5923,-879 371.5923,-879"/>
<text text-anchor="middle" x="298.0923" y="-857.3" font-family="Helvetica,sans-Serif" font-size="14.00" fill="#000000">AlignAndFocusPowder v1</text>
</g>
<!-- CalibrationFile&#45;&gt;alignAndFocusPowder -->
<g id="edge9" class="edge">
<title>CalibrationFile&#45;&gt;alignAndFocusPowder</title>
<path fill="none" stroke="#000000" d="M369.8156,-916.7C357.7663,-907.3426 342.6865,-895.6317 329.4674,-885.3658"/>
<polygon fill="#000000" stroke="#000000" points="331.5656,-882.5638 321.5208,-879.1945 327.2721,-888.0924 331.5656,-882.5638"/>
</g>
<!-- SplittersWorkspace -->
<g id="node4" class="node">
<title>SplittersWorkspace</title>
<ellipse fill="#f0e68c" stroke="#000000" cx="87.0923" cy="-1021" rx="87.1846" ry="18"/>
<text text-anchor="middle" x="87.0923" y="-1017.3" font-family="Helvetica,sans-Serif" font-size="14.00" fill="#000000">SplittersWorkspace</text>
</g>
<!-- split -->
<g id="node10" class="node">
<title>split</title>
<path fill="#87cefa" stroke="#000000" d="M241.0923,-952C241.0923,-952 163.0923,-952 163.0923,-952 157.0923,-952 151.0923,-946 151.0923,-940 151.0923,-940 151.0923,-928 151.0923,-928 151.0923,-922 157.0923,-916 163.0923,-916 163.0923,-916 241.0923,-916 241.0923,-916 247.0923,-916 253.0923,-922 253.0923,-928 253.0923,-928 253.0923,-940 253.0923,-940 253.0923,-946 247.0923,-952 241.0923,-952"/>
<text text-anchor="middle" x="202.0923" y="-930.3" font-family="Helvetica,sans-Serif" font-size="14.00" fill="#000000">SplitEvents v1</text>
</g>
<!-- SplittersWorkspace&#45;&gt;split -->
<g id="edge8" class="edge">
<title>SplittersWorkspace&#45;&gt;split</title>
<path fill="none" stroke="#000000" d="M110.0878,-1003.6033C127.217,-990.6447 150.8291,-972.7817 169.8437,-958.3967"/>
<polygon fill="#000000" stroke="#000000" points="172.0839,-961.0907 177.9473,-952.2662 167.8606,-955.5082 172.0839,-961.0907"/>
</g>
<!-- OutputWorkspacesList -->
<g id="node5" class="node">
<title>OutputWorkspacesList</title>
<ellipse fill="#f0e68c" stroke="#000000" cx="510.0923" cy="-18" rx="100.1823" ry="18"/>
<text text-anchor="middle" x="510.0923" y="-14.3" font-family="Helvetica,sans-Serif" font-size="14.00" fill="#000000">OutputWorkspacesList</text>
</g>
<!-- getChunk -->
<g id="node6" class="node">
<title>getChunk</title>
<path fill="#87cefa" stroke="#000000" d="M541.0923,-1185C541.0923,-1185 409.0923,-1185 409.0923,-1185 403.0923,-1185 397.0923,-1179 397.0923,-1173 397.0923,-1173 397.0923,-1161 397.0923,-1161 397.0923,-1155 403.0923,-1149 409.0923,-1149 409.0923,-1149 541.0923,-1149 541.0923,-1149 547.0923,-1149 553.0923,-1155 553.0923,-1161 553.0923,-1161 553.0923,-1173 553.0923,-1173 553.0923,-1179 547.0923,-1185 541.0923,-1185"/>
<text text-anchor="middle" x="475.0923" y="-1163.3" font-family="Helvetica,sans-Serif" font-size="14.00" fill="#000000">Get a chunk to process</text>
</g>
<!-- getChunk&#45;&gt;load -->
<g id="edge4" class="edge">
<title>getChunk&#45;&gt;load</title>
<path fill="none" stroke="#000000" d="M438.508,-1148.9551C417.3863,-1138.5369 390.7457,-1125.3966 368.8114,-1114.5777"/>
<polygon fill="#000000" stroke="#000000" points="370.2456,-1111.3825 359.7289,-1110.0978 367.149,-1117.6604 370.2456,-1111.3825"/>
</g>
<!-- plusAmongChunks -->
<g id="node14" class="node">
<title>plusAmongChunks</title>
<path fill="#87cefa" stroke="#000000" d="M447.0923,-806C447.0923,-806 245.0923,-806 245.0923,-806 239.0923,-806 233.0923,-800 233.0923,-794 233.0923,-794 233.0923,-765 233.0923,-765 233.0923,-759 239.0923,-753 245.0923,-753 245.0923,-753 447.0923,-753 447.0923,-753 453.0923,-753 459.0923,-759 459.0923,-765 459.0923,-765 459.0923,-794 459.0923,-794 459.0923,-800 453.0923,-806 447.0923,-806"/>
<text text-anchor="middle" x="346.0923" y="-790.8" font-family="Helvetica,sans-Serif" font-size="14.00" fill="#000000">Plus v1</text>
<text text-anchor="middle" x="346.0923" y="-775.8" font-family="Helvetica,sans-Serif" font-size="14.00" fill="#000000"> workspaces from different chunks </text>
<text text-anchor="middle" x="346.0923" y="-760.8" font-family="Helvetica,sans-Serif" font-size="14.00" fill="#000000">but same time range.</text>
</g>
<!-- alignAndFocusPowder&#45;&gt;plusAmongChunks -->
<g id="edge12" class="edge">
<title>alignAndFocusPowder&#45;&gt;plusAmongChunks</title>
<path fill="none" stroke="#000000" d="M308.745,-842.9125C313.6087,-834.6545 319.5446,-824.5758 325.2398,-814.9057"/>
<polygon fill="#000000" stroke="#000000" points="328.3058,-816.5966 330.3649,-806.2038 322.2742,-813.0442 328.3058,-816.5966"/>
</g>
<!-- RunNumber -->
<g id="node20" class="node">
<title>RunNumber</title>
<polygon fill="#c0c0c0" stroke="#000000" points="558.8098,-1258 425.6339,-1258 391.3747,-1222 524.5506,-1222 558.8098,-1258"/>
<text text-anchor="middle" x="475.0923" y="-1236.3" font-family="Times,serif" font-size="14.00" fill="#000000">Run Number</text>
</g>
<!-- getRunNumber&#45;&gt;RunNumber -->
<g id="edge2" class="edge">
<title>getRunNumber&#45;&gt;RunNumber</title>
<path fill="none" stroke="#000000" d="M517.2496,-1294.9551C510.586,-1286.2686 502.4708,-1275.6898 495.1464,-1266.142"/>
<polygon fill="#000000" stroke="#000000" points="497.8335,-1263.8944 488.9698,-1258.0904 492.2794,-1268.155 497.8335,-1263.8944"/>
</g>
<!-- doSplitWorkspace -->
<g id="node16" class="node">
<title>doSplitWorkspace</title>
<polygon fill="#32cd32" stroke="#000000" points="324.0923,-1039 191.8748,-1021 324.0923,-1003 456.3097,-1021 324.0923,-1039"/>
<text text-anchor="middle" x="324.0923" y="-1017.3" font-family="Helvetica,sans-Serif" font-size="14.00" fill="#000000">Do split workspaces?</text>
</g>
<!-- load&#45;&gt;doSplitWorkspace -->
<g id="edge6" class="edge">
<title>load&#45;&gt;doSplitWorkspace</title>
<path fill="none" stroke="#000000" d="M326.3507,-1075.9551C326.019,-1067.8828 325.6201,-1058.1764 325.2504,-1049.1817"/>
<polygon fill="#000000" stroke="#000000" points="328.7435,-1048.9382 324.8357,-1039.0904 321.7494,-1049.2257 328.7435,-1048.9382"/>
</g>
<!-- split&#45;&gt;alignAndFocusPowder -->
<g id="edge10" class="edge">
<title>split&#45;&gt;alignAndFocusPowder</title>
<path fill="none" stroke="#000000" d="M225.8226,-915.9551C237.9382,-906.7422 252.8531,-895.4006 265.9809,-885.418"/>
<polygon fill="#000000" stroke="#000000" points="268.4607,-887.9293 274.3022,-879.0904 264.2236,-882.3573 268.4607,-887.9293"/>
</g>
<!-- gatherWorkspace -->
<g id="node11" class="node">
<title>gatherWorkspace</title>
<path fill="#87cefa" stroke="#000000" d="M426.0923,-528C426.0923,-528 288.0923,-528 288.0923,-528 282.0923,-528 276.0923,-522 276.0923,-516 276.0923,-516 276.0923,-504 276.0923,-504 276.0923,-498 282.0923,-492 288.0923,-492 288.0923,-492 426.0923,-492 426.0923,-492 432.0923,-492 438.0923,-498 438.0923,-504 438.0923,-504 438.0923,-516 438.0923,-516 438.0923,-522 432.0923,-528 426.0923,-528"/>
<text text-anchor="middle" x="357.0923" y="-506.3" font-family="Helvetica,sans-Serif" font-size="14.00" fill="#000000">Gather workspaces MPI</text>
</g>
<!-- setGSASParamFile -->
<g id="node15" class="node">
<title>setGSASParamFile</title>
<path fill="#87cefa" stroke="#000000" d="M514.0923,-455C514.0923,-455 354.0923,-455 354.0923,-455 348.0923,-455 342.0923,-449 342.0923,-443 342.0923,-443 342.0923,-431 342.0923,-431 342.0923,-425 348.0923,-419 354.0923,-419 354.0923,-419 514.0923,-419 514.0923,-419 520.0923,-419 526.0923,-425 526.0923,-431 526.0923,-431 526.0923,-443 526.0923,-443 526.0923,-449 520.0923,-455 514.0923,-455"/>
<text text-anchor="middle" x="434.0923" y="-433.3" font-family="Helvetica,sans-Serif" font-size="14.00" fill="#000000">Set GSAS iparam file to run</text>
</g>
<!-- gatherWorkspace&#45;&gt;setGSASParamFile -->
<g id="edge17" class="edge">
<title>gatherWorkspace&#45;&gt;setGSASParamFile</title>
<path fill="none" stroke="#000000" d="M376.126,-491.9551C385.6586,-482.9177 397.3518,-471.8319 407.733,-461.9899"/>
<polygon fill="#000000" stroke="#000000" points="410.1616,-464.5104 415.0107,-455.0904 405.3456,-459.4305 410.1616,-464.5104"/>
</g>
<!-- compressEvents -->
<g id="node12" class="node">
<title>compressEvents</title>
<path fill="#87cefa" stroke="#000000" d="M491.0923,-382C491.0923,-382 377.0923,-382 377.0923,-382 371.0923,-382 365.0923,-376 365.0923,-370 365.0923,-370 365.0923,-358 365.0923,-358 365.0923,-352 371.0923,-346 377.0923,-346 377.0923,-346 491.0923,-346 491.0923,-346 497.0923,-346 503.0923,-352 503.0923,-358 503.0923,-358 503.0923,-370 503.0923,-370 503.0923,-376 497.0923,-382 491.0923,-382"/>
<text text-anchor="middle" x="434.0923" y="-360.3" font-family="Helvetica,sans-Serif" font-size="14.00" fill="#000000">CompressEvents v1</text>
</g>
<!-- normaliseByCurrent -->
<g id="node13" class="node">
<title>normaliseByCurrent</title>
<path fill="#87cefa" stroke="#000000" d="M500.5923,-309C500.5923,-309 367.5923,-309 367.5923,-309 361.5923,-309 355.5923,-303 355.5923,-297 355.5923,-297 355.5923,-285 355.5923,-285 355.5923,-279 361.5923,-273 367.5923,-273 367.5923,-273 500.5923,-273 500.5923,-273 506.5923,-273 512.5923,-279 512.5923,-285 512.5923,-285 512.5923,-297 512.5923,-297 512.5923,-303 506.5923,-309 500.5923,-309"/>
<text text-anchor="middle" x="434.0923" y="-287.3" font-family="Helvetica,sans-Serif" font-size="14.00" fill="#000000">NormaliseByCurrent v1</text>
</g>
<!-- compressEvents&#45;&gt;normaliseByCurrent -->
<g id="edge20" class="edge">
<title>compressEvents&#45;&gt;normaliseByCurrent</title>
<path fill="none" stroke="#000000" d="M434.0923,-345.9551C434.0923,-337.8828 434.0923,-328.1764 434.0923,-319.1817"/>
<polygon fill="#000000" stroke="#000000" points="437.5924,-319.0903 434.0923,-309.0904 430.5924,-319.0904 437.5924,-319.0903"/>
</g>
<!-- RunOutputWorkspacesList -->
<g id="node21" class="node">
<title>RunOutputWorkspacesList</title>
<polygon fill="#c0c0c0" stroke="#000000" points="559.4866,-236 360.0123,-236 308.698,-160 508.1722,-160 559.4866,-236"/>
<text text-anchor="middle" x="434.0923" y="-201.8" font-family="Times,serif" font-size="14.00" fill="#000000">OutputWorkspaces</text>
<text text-anchor="middle" x="434.0923" y="-186.8" font-family="Times,serif" font-size="14.00" fill="#000000">for a run number</text>
</g>
<!-- normaliseByCurrent&#45;&gt;RunOutputWorkspacesList -->
<g id="edge21" class="edge">
<title>normaliseByCurrent&#45;&gt;RunOutputWorkspacesList</title>
<path fill="none" stroke="#000000" d="M434.0923,-272.6262C434.0923,-265.0068 434.0923,-255.7735 434.0923,-246.4359"/>
<polygon fill="#000000" stroke="#000000" points="437.5924,-246.3342 434.0923,-236.3342 430.5924,-246.3342 437.5924,-246.3342"/>
</g>
<!-- allChunksProcessed -->
<g id="node19" class="node">
<title>allChunksProcessed</title>
<polygon fill="#32cd32" stroke="#000000" points="390.0923,-702 232.7403,-684 390.0923,-666 547.4443,-684 390.0923,-702"/>
<text text-anchor="middle" x="390.0923" y="-680.3" font-family="Helvetica,sans-Serif" font-size="14.00" fill="#000000">Are All Chunks Reduced?</text>
</g>
<!-- plusAmongChunks&#45;&gt;allChunksProcessed -->
<g id="edge13" class="edge">
<title>plusAmongChunks&#45;&gt;allChunksProcessed</title>
<path fill="none" stroke="#000000" d="M358.3487,-752.8979C364.4873,-739.5745 371.8941,-723.4984 378.0085,-710.2272"/>
<polygon fill="#000000" stroke="#000000" points="381.19,-711.6859 382.1958,-701.1389 374.8324,-708.7567 381.19,-711.6859"/>
</g>
<!-- setGSASParamFile&#45;&gt;compressEvents -->
<g id="edge19" class="edge">
<title>setGSASParamFile&#45;&gt;compressEvents</title>
<path fill="none" stroke="#000000" d="M434.0923,-418.9551C434.0923,-410.8828 434.0923,-401.1764 434.0923,-392.1817"/>
<polygon fill="#000000" stroke="#000000" points="437.5924,-392.0903 434.0923,-382.0904 430.5924,-392.0904 437.5924,-392.0903"/>
</g>
<!-- doSplitWorkspace&#45;&gt;alignAndFocusPowder -->
<g id="edge11" class="edge">
<title>doSplitWorkspace&#45;&gt;alignAndFocusPowder</title>
<path fill="none" stroke="#000000" d="M315.6716,-1003.9141C309.4273,-990.2444 301.4416,-970.3875 298.0923,-952 294.3232,-931.3086 294.4741,-907.5288 295.4873,-889.468"/>
<polygon fill="#000000" stroke="#000000" points="298.9921,-889.5167 296.1812,-879.3015 292.0083,-889.04 298.9921,-889.5167"/>
<text text-anchor="middle" x="307.0923" y="-930.3" font-family="Helvetica,sans-Serif" font-size="14.00" fill="#000000">No</text>
</g>
<!-- doSplitWorkspace&#45;&gt;split -->
<g id="edge7" class="edge">
<title>doSplitWorkspace&#45;&gt;split</title>
<path fill="none" stroke="#000000" d="M290.7246,-1007.5163C277.7731,-1001.5387 263.1799,-993.8461 251.0923,-985 241.1295,-977.7089 231.4339,-968.2778 223.3325,-959.5124"/>
<polygon fill="#000000" stroke="#000000" points="225.9331,-957.17 216.6568,-952.0514 220.7164,-961.8376 225.9331,-957.17"/>
<text text-anchor="middle" x="263.0923" y="-973.8" font-family="Helvetica,sans-Serif" font-size="14.00" fill="#000000">Yes</text>
</g>
<!-- haveMPI -->
<g id="node17" class="node">
<title>haveMPI</title>
<polygon fill="#32cd32" stroke="#000000" points="390.0923,-615 312.6733,-597 390.0923,-579 467.5113,-597 390.0923,-615"/>
<text text-anchor="middle" x="390.0923" y="-593.3" font-family="Helvetica,sans-Serif" font-size="14.00" fill="#000000">Have MPI?</text>
</g>
<!-- haveMPI&#45;&gt;gatherWorkspace -->
<g id="edge16" class="edge">
<title>haveMPI&#45;&gt;gatherWorkspace</title>
<path fill="none" stroke="#000000" d="M383.7295,-580.2255C379.178,-568.2261 372.9462,-551.7968 367.6546,-537.8462"/>
<polygon fill="#000000" stroke="#000000" points="370.8242,-536.3335 364.0051,-528.2248 364.2792,-538.8161 370.8242,-536.3335"/>
<text text-anchor="middle" x="387.0923" y="-549.8" font-family="Helvetica,sans-Serif" font-size="14.00" fill="#000000">Yes</text>
</g>
<!-- haveMPI&#45;&gt;setGSASParamFile -->
<g id="edge18" class="edge">
<title>haveMPI&#45;&gt;setGSASParamFile</title>
<path fill="none" stroke="#000000" d="M406.9862,-582.8412C420.748,-570.1171 439.1525,-550.078 447.0923,-528 454.4287,-507.5998 450.3186,-483.2262 444.8442,-464.8405"/>
<polygon fill="#000000" stroke="#000000" points="448.161,-463.7225 441.7265,-455.3054 441.5077,-465.898 448.161,-463.7225"/>
<text text-anchor="middle" x="459.0923" y="-506.3" font-family="Helvetica,sans-Serif" font-size="14.00" fill="#000000">No</text>
</g>
<!-- isLastRunNumber -->
<g id="node18" class="node">
<title>isLastRunNumber</title>
<polygon fill="#32cd32" stroke="#000000" points="510.0923,-123 377.0363,-105 510.0923,-87 643.1482,-105 510.0923,-123"/>
<text text-anchor="middle" x="510.0923" y="-101.3" font-family="Helvetica,sans-Serif" font-size="14.00" fill="#000000">Is Last Run Number?</text>
</g>
<!-- isLastRunNumber&#45;&gt;OutputWorkspacesList -->
<g id="edge24" class="edge">
<title>isLastRunNumber&#45;&gt;OutputWorkspacesList</title>
<path fill="none" stroke="#000000" d="M510.0923,-86.9735C510.0923,-75.1918 510.0923,-59.5607 510.0923,-46.1581"/>
<polygon fill="#000000" stroke="#000000" points="513.5924,-46.0033 510.0923,-36.0034 506.5924,-46.0034 513.5924,-46.0033"/>
<text text-anchor="middle" x="522.0923" y="-57.8" font-family="Helvetica,sans-Serif" font-size="14.00" fill="#000000">Yes</text>
</g>
<!-- isLastRunNumber&#45;&gt;getRunNumber -->
<g id="edge23" class="edge">
<title>isLastRunNumber&#45;&gt;getRunNumber</title>
<path fill="none" stroke="#000000" d="M534.0335,-119.9735C556.637,-136.1688 587.0923,-164.2517 587.0923,-198 587.0923,-1240 587.0923,-1240 587.0923,-1240 587.0923,-1258.4265 575.7209,-1275.0697 563.2265,-1287.795"/>
<polygon fill="#000000" stroke="#000000" points="560.667,-1285.3987 555.8177,-1294.8186 565.4829,-1290.4787 560.667,-1285.3987"/>
<text text-anchor="middle" x="596.0923" y="-723.8" font-family="Helvetica,sans-Serif" font-size="14.00" fill="#000000">No</text>
</g>
<!-- allChunksProcessed&#45;&gt;getChunk -->
<g id="edge14" class="edge">
<title>allChunksProcessed&#45;&gt;getChunk</title>
<path fill="none" stroke="#000000" d="M424.4732,-698.1538C455.0956,-713.3138 495.0923,-740.5667 495.0923,-779.5 495.0923,-1094 495.0923,-1094 495.0923,-1094 495.0923,-1109.2883 490.9615,-1125.758 486.4545,-1139.1777"/>
<polygon fill="#000000" stroke="#000000" points="483.0935,-1138.1807 482.9968,-1148.7751 489.6791,-1140.5534 483.0935,-1138.1807"/>
<text text-anchor="middle" x="504.0923" y="-930.3" font-family="Helvetica,sans-Serif" font-size="14.00" fill="#000000">No</text>
</g>
<!-- allChunksProcessed&#45;&gt;haveMPI -->
<g id="edge15" class="edge">
<title>allChunksProcessed&#45;&gt;haveMPI</title>
<path fill="none" stroke="#000000" d="M390.0923,-665.9735C390.0923,-654.1918 390.0923,-638.5607 390.0923,-625.1581"/>
<polygon fill="#000000" stroke="#000000" points="393.5924,-625.0033 390.0923,-615.0034 386.5924,-625.0034 393.5924,-625.0033"/>
<text text-anchor="middle" x="402.0923" y="-636.8" font-family="Helvetica,sans-Serif" font-size="14.00" fill="#000000">Yes</text>
</g>
<!-- RunNumber&#45;&gt;getChunk -->
<g id="edge3" class="edge">
<title>RunNumber&#45;&gt;getChunk</title>
<path fill="none" stroke="#000000" d="M475.0923,-1221.9551C475.0923,-1213.8828 475.0923,-1204.1764 475.0923,-1195.1817"/>
<polygon fill="#000000" stroke="#000000" points="478.5924,-1195.0903 475.0923,-1185.0904 471.5924,-1195.0904 478.5924,-1195.0903"/>
</g>
<!-- RunOutputWorkspacesList&#45;&gt;isLastRunNumber -->
<g id="edge22" class="edge">
<title>RunOutputWorkspacesList&#45;&gt;isLastRunNumber</title>
<path fill="none" stroke="#000000" d="M465.2237,-159.905C473.7208,-149.5073 482.6918,-138.5295 490.3604,-129.1456"/>
<polygon fill="#000000" stroke="#000000" points="493.1017,-131.3222 496.7195,-121.3641 487.6814,-126.8926 493.1017,-131.3222"/>
</g>
</g>
</svg>
