<?xml version="1.0" encoding="UTF-8" standalone="no"?>
<!DOCTYPE svg PUBLIC "-//W3C//DTD SVG 1.1//EN"
 "http://www.w3.org/Graphics/SVG/1.1/DTD/svg11.dtd">
<!-- Generated by graphviz version 2.40.1 (20161225.0304)
 -->
<!-- Title: Stitch1DMany Pages: 1 -->
<svg width="812pt" height="780pt"
 viewBox="0.00 0.00 811.99 780.00" xmlns="http://www.w3.org/2000/svg" xmlns:xlink="http://www.w3.org/1999/xlink">
<g id="graph0" class="graph" transform="scale(1 1) rotate(0) translate(4 776)">
<title>Stitch1DMany</title>
<polygon fill="#ffffff" stroke="transparent" points="-4,4 -4,-776 807.9908,-776 807.9908,4 -4,4"/>
<text text-anchor="middle" x="401.9954" y="-756.8" font-family="Helvetica,sans-Serif" font-size="14.00" fill="#000000">Stitch1DMany Flowchart</text>
<!-- inputWS -->
<g id="node1" class="node">
<title>inputWS</title>
<ellipse fill="#f0e68c" stroke="#000000" cx="145" cy="-731" rx="79.0865" ry="18"/>
<text text-anchor="middle" x="145" y="-727.3" font-family="Helvetica,sans-Serif" font-size="14.00" fill="#000000">InputWorkspaces</text>
</g>
<!-- checkGroups -->
<g id="node9" class="node">
<title>checkGroups</title>
<polygon fill="#32cd32" stroke="#000000" points="145,-676 0,-638 145,-600 290,-638 145,-676"/>
<text text-anchor="middle" x="145" y="-641.8" font-family="Helvetica,sans-Serif" font-size="14.00" fill="#000000">Input workspaces are</text>
<text text-anchor="middle" x="145" y="-626.8" font-family="Helvetica,sans-Serif" font-size="14.00" fill="#000000">group workspaces?</text>
</g>
<!-- inputWS&#45;&gt;checkGroups -->
<g id="edge1" class="edge">
<title>inputWS&#45;&gt;checkGroups</title>
<path fill="none" stroke="#000000" d="M145,-712.6262C145,-705.0068 145,-695.7735 145,-686.4359"/>
<polygon fill="#000000" stroke="#000000" points="148.5001,-686.3342 145,-676.3342 141.5001,-686.3342 148.5001,-686.3342"/>
</g>
<!-- outWS -->
<g id="node2" class="node">
<title>outWS</title>
<ellipse fill="#f0e68c" stroke="#000000" cx="284" cy="-18" rx="81.7856" ry="18"/>
<text text-anchor="middle" x="284" y="-14.3" font-family="Helvetica,sans-Serif" font-size="14.00" fill="#000000">OutputWorkspace</text>
</g>
<!-- outSF -->
<g id="node3" class="node">
<title>outSF</title>
<ellipse fill="#f0e68c" stroke="#000000" cx="464" cy="-18" rx="76.8869" ry="18"/>
<text text-anchor="middle" x="464" y="-14.3" font-family="Helvetica,sans-Serif" font-size="14.00" fill="#000000">OutScaleFactors</text>
</g>
<!-- useManSF -->
<g id="node4" class="node">
<title>useManSF</title>
<ellipse fill="#f0e68c" stroke="#000000" cx="411" cy="-638" rx="102.8821" ry="18"/>
<text text-anchor="middle" x="411" y="-634.3" font-family="Helvetica,sans-Serif" font-size="14.00" fill="#000000">UseManualScaleFactor</text>
</g>
<!-- checkSFFP -->
<g id="node10" class="node">
<title>checkSFFP</title>
<polygon fill="#32cd32" stroke="#000000" points="411,-549 244,-511 411,-473 578,-511 411,-549"/>
<text text-anchor="middle" x="411" y="-514.8" font-family="Helvetica,sans-Serif" font-size="14.00" fill="#000000">Using</text>
<text text-anchor="middle" x="411" y="-499.8" font-family="Helvetica,sans-Serif" font-size="14.00" fill="#000000">ScaleFactorFromPeriod?</text>
</g>
<!-- useManSF&#45;&gt;checkSFFP -->
<g id="edge6" class="edge">
<title>useManSF&#45;&gt;checkSFFP</title>
<path fill="none" stroke="#000000" d="M411,-619.804C411,-604.0075 411,-580.4064 411,-559.2185"/>
<polygon fill="#000000" stroke="#000000" points="414.5001,-559.0558 411,-549.0558 407.5001,-559.0558 414.5001,-559.0558"/>
</g>
<!-- manSF -->
<g id="node5" class="node">
<title>manSF</title>
<ellipse fill="#f0e68c" stroke="#000000" cx="619" cy="-638" rx="87.1846" ry="18"/>
<text text-anchor="middle" x="619" y="-634.3" font-family="Helvetica,sans-Serif" font-size="14.00" fill="#000000">ManualScaleFactor</text>
</g>
<!-- manSF&#45;&gt;checkSFFP -->
<g id="edge7" class="edge">
<title>manSF&#45;&gt;checkSFFP</title>
<path fill="none" stroke="#000000" d="M590.9482,-620.8722C558.8192,-601.255 505.4269,-568.6549 465.126,-544.0481"/>
<polygon fill="#000000" stroke="#000000" points="466.8386,-540.9929 456.4798,-538.7689 463.1907,-546.9673 466.8386,-540.9929"/>
</g>
<!-- sffp -->
<g id="node6" class="node">
<title>sffp</title>
<ellipse fill="#f0e68c" stroke="#000000" cx="700" cy="-511" rx="103.9815" ry="18"/>
<text text-anchor="middle" x="700" y="-507.3" font-family="Helvetica,sans-Serif" font-size="14.00" fill="#000000">ScaleFactorFromPeriod</text>
</g>
<!-- S1DM_Period -->
<g id="node14" class="node">
<title>S1DM_Period</title>
<path fill="#87cefa" stroke="#000000" d="M653,-422C653,-422 517,-422 517,-422 511,-422 505,-416 505,-410 505,-410 505,-381 505,-381 505,-375 511,-369 517,-369 517,-369 653,-369 653,-369 659,-369 665,-375 665,-381 665,-381 665,-410 665,-410 665,-416 659,-422 653,-422"/>
<text text-anchor="middle" x="585" y="-406.8" font-family="Helvetica,sans-Serif" font-size="14.00" fill="#000000">Stitch1D all workspaces</text>
<text text-anchor="middle" x="585" y="-391.8" font-family="Helvetica,sans-Serif" font-size="14.00" fill="#000000">in period given by</text>
<text text-anchor="middle" x="585" y="-376.8" font-family="Helvetica,sans-Serif" font-size="14.00" fill="#000000">ScaleFactorFromPeriod</text>
</g>
<!-- sffp&#45;&gt;S1DM_Period -->
<g id="edge10" class="edge">
<title>sffp&#45;&gt;S1DM_Period</title>
<path fill="none" stroke="#000000" d="M682.0313,-492.9531C665.1916,-476.0403 639.5846,-450.3219 618.9042,-429.5516"/>
<polygon fill="#000000" stroke="#000000" points="621.3532,-427.0508 611.8173,-422.4339 616.3927,-431.9898 621.3532,-427.0508"/>
</g>
<!-- psf -->
<g id="node7" class="node">
<title>psf</title>
<ellipse fill="#f0e68c" stroke="#000000" cx="584" cy="-314" rx="92.0841" ry="18"/>
<text text-anchor="middle" x="584" y="-310.3" font-family="Helvetica,sans-Serif" font-size="14.00" fill="#000000">Period Scale Factors</text>
</g>
<!-- S1D_Groups -->
<g id="node12" class="node">
<title>S1D_Groups</title>
<path fill="#87cefa" stroke="#000000" d="M632,-259C632,-259 504,-259 504,-259 498,-259 492,-253 492,-247 492,-247 492,-233 492,-233 492,-227 498,-221 504,-221 504,-221 632,-221 632,-221 638,-221 644,-227 644,-233 644,-233 644,-247 644,-247 644,-253 638,-259 632,-259"/>
<text text-anchor="middle" x="568" y="-243.8" font-family="Helvetica,sans-Serif" font-size="14.00" fill="#000000">Stitch1D all</text>
<text text-anchor="middle" x="568" y="-228.8" font-family="Helvetica,sans-Serif" font-size="14.00" fill="#000000">workspaces per period</text>
</g>
<!-- psf&#45;&gt;S1D_Groups -->
<g id="edge14" class="edge">
<title>psf&#45;&gt;S1D_Groups</title>
<path fill="none" stroke="#000000" d="M580.0449,-295.7079C578.2968,-287.6227 576.199,-277.9202 574.2475,-268.8945"/>
<polygon fill="#000000" stroke="#000000" points="577.6671,-268.1484 572.1327,-259.114 570.8252,-269.6278 577.6671,-268.1484"/>
</g>
<!-- stitchedWSVec -->
<g id="node8" class="node">
<title>stitchedWSVec</title>
<ellipse fill="#f0e68c" stroke="#000000" cx="305" cy="-166" rx="131.077" ry="18"/>
<text text-anchor="middle" x="305" y="-162.3" font-family="Helvetica,sans-Serif" font-size="14.00" fill="#000000">Vector of Stitched Workspaces</text>
</g>
<!-- groupWS -->
<g id="node15" class="node">
<title>groupWS</title>
<path fill="#87cefa" stroke="#000000" d="M358,-110C358,-110 252,-110 252,-110 246,-110 240,-104 240,-98 240,-98 240,-86 240,-86 240,-80 246,-74 252,-74 252,-74 358,-74 358,-74 364,-74 370,-80 370,-86 370,-86 370,-98 370,-98 370,-104 364,-110 358,-110"/>
<text text-anchor="middle" x="305" y="-88.3" font-family="Helvetica,sans-Serif" font-size="14.00" fill="#000000">GroupWorkspaces</text>
</g>
<!-- stitchedWSVec&#45;&gt;groupWS -->
<g id="edge17" class="edge">
<title>stitchedWSVec&#45;&gt;groupWS</title>
<path fill="none" stroke="#000000" d="M305,-147.7079C305,-139.4635 305,-129.5376 305,-120.3622"/>
<polygon fill="#000000" stroke="#000000" points="308.5001,-120.0817 305,-110.0817 301.5001,-120.0818 308.5001,-120.0817"/>
</g>
<!-- checkGroups&#45;&gt;checkSFFP -->
<g id="edge3" class="edge">
<title>checkGroups&#45;&gt;checkSFFP</title>
<path fill="none" stroke="#000000" d="M196.6029,-613.3625C239.713,-592.7799 301.362,-563.3459 347.4965,-541.3193"/>
<polygon fill="#000000" stroke="#000000" points="349.2833,-544.3448 356.7995,-536.8777 346.2673,-538.0278 349.2833,-544.3448"/>
<text text-anchor="middle" x="297" y="-570.8" font-family="Helvetica,sans-Serif" font-size="14.00" fill="#000000">yes</text>
</g>
<!-- S1D_WS -->
<g id="node11" class="node">
<title>S1D_WS</title>
<path fill="#87cefa" stroke="#000000" d="M210,-111C210,-111 146,-111 146,-111 140,-111 134,-105 134,-99 134,-99 134,-85 134,-85 134,-79 140,-73 146,-73 146,-73 210,-73 210,-73 216,-73 222,-79 222,-85 222,-85 222,-99 222,-99 222,-105 216,-111 210,-111"/>
<text text-anchor="middle" x="178" y="-95.8" font-family="Helvetica,sans-Serif" font-size="14.00" fill="#000000">Stitch1D all</text>
<text text-anchor="middle" x="178" y="-80.8" font-family="Helvetica,sans-Serif" font-size="14.00" fill="#000000">workspaces</text>
</g>
<!-- checkGroups&#45;&gt;S1D_WS -->
<g id="edge2" class="edge">
<title>checkGroups&#45;&gt;S1D_WS</title>
<path fill="none" stroke="#000000" d="M145.4561,-599.9333C145.7198,-574.7059 146,-540.8768 146,-511 146,-511 146,-511 146,-166 146,-149.851 152.4997,-133.2276 159.6405,-119.8376"/>
<polygon fill="#000000" stroke="#000000" points="162.6937,-121.5489 164.6145,-111.1296 156.6154,-118.0769 162.6937,-121.5489"/>
<text text-anchor="middle" x="154" y="-310.3" font-family="Helvetica,sans-Serif" font-size="14.00" fill="#000000">no</text>
</g>
<!-- S1DM_Global -->
<g id="node13" class="node">
<title>S1DM_Global</title>
<path fill="#87cefa" stroke="#000000" d="M475,-414.5C475,-414.5 347,-414.5 347,-414.5 341,-414.5 335,-408.5 335,-402.5 335,-402.5 335,-388.5 335,-388.5 335,-382.5 341,-376.5 347,-376.5 347,-376.5 475,-376.5 475,-376.5 481,-376.5 487,-382.5 487,-388.5 487,-388.5 487,-402.5 487,-402.5 487,-408.5 481,-414.5 475,-414.5"/>
<text text-anchor="middle" x="411" y="-399.3" font-family="Helvetica,sans-Serif" font-size="14.00" fill="#000000">Stitch1D all</text>
<text text-anchor="middle" x="411" y="-384.3" font-family="Helvetica,sans-Serif" font-size="14.00" fill="#000000">workspaces per period</text>
</g>
<!-- checkSFFP&#45;&gt;S1DM_Global -->
<g id="edge8" class="edge">
<title>checkSFFP&#45;&gt;S1DM_Global</title>
<path fill="none" stroke="#000000" d="M411,-472.8609C411,-457.362 411,-439.7246 411,-425.2086"/>
<polygon fill="#000000" stroke="#000000" points="414.5001,-424.8036 411,-414.8036 407.5001,-424.8037 414.5001,-424.8036"/>
<text text-anchor="middle" x="419" y="-443.8" font-family="Helvetica,sans-Serif" font-size="14.00" fill="#000000">no</text>
</g>
<!-- checkSFFP&#45;&gt;S1DM_Period -->
<g id="edge9" class="edge">
<title>checkSFFP&#45;&gt;S1DM_Period</title>
<path fill="none" stroke="#000000" d="M454.0112,-482.4494C478.9662,-465.8845 510.4738,-444.97 536.3336,-427.8045"/>
<polygon fill="#000000" stroke="#000000" points="538.4733,-430.585 544.8692,-422.1385 534.602,-424.7529 538.4733,-430.585"/>
<text text-anchor="middle" x="525" y="-443.8" font-family="Helvetica,sans-Serif" font-size="14.00" fill="#000000">yes</text>
</g>
<!-- S1D_WS&#45;&gt;outWS -->
<g id="edge4" class="edge">
<title>S1D_WS&#45;&gt;outWS</title>
<path fill="none" stroke="#000000" d="M205.2976,-72.9432C219.2452,-63.2061 236.3263,-51.2816 251.007,-41.0328"/>
<polygon fill="#000000" stroke="#000000" points="253.1355,-43.8155 259.3316,-35.2213 249.1285,-38.0758 253.1355,-43.8155"/>
</g>
<!-- S1D_WS&#45;&gt;outSF -->
<g id="edge5" class="edge">
<title>S1D_WS&#45;&gt;outSF</title>
<path fill="none" stroke="#000000" d="M222.1237,-75.763C225.1157,-74.7916 228.0946,-73.8607 231,-73 285.7622,-56.7767 348.8695,-42.1226 395.5839,-32.0277"/>
<polygon fill="#000000" stroke="#000000" points="396.5491,-35.4003 405.5923,-29.8803 395.0806,-28.5561 396.5491,-35.4003"/>
</g>
<!-- S1D_Groups&#45;&gt;outSF -->
<g id="edge16" class="edge">
<title>S1D_Groups&#45;&gt;outSF</title>
<path fill="none" stroke="#000000" d="M558.9526,-220.6873C540.4442,-181.179 498.2069,-91.0185 476.8585,-45.448"/>
<polygon fill="#000000" stroke="#000000" points="479.926,-43.7453 472.5142,-36.1746 473.5871,-46.7149 479.926,-43.7453"/>
</g>
<!-- S1D_Groups&#45;&gt;stitchedWSVec -->
<g id="edge15" class="edge">
<title>S1D_Groups&#45;&gt;stitchedWSVec</title>
<path fill="none" stroke="#000000" d="M500.271,-220.9432C460.985,-209.8893 411.6796,-196.0163 372.4425,-184.9762"/>
<polygon fill="#000000" stroke="#000000" points="373.2704,-181.5733 362.6961,-182.2339 371.3743,-188.3117 373.2704,-181.5733"/>
</g>
<!-- S1DM_Global&#45;&gt;outSF -->
<g id="edge12" class="edge">
<title>S1DM_Global&#45;&gt;outSF</title>
<path fill="none" stroke="#000000" d="M432.5571,-376.3069C447.2305,-361.0534 464,-338.3044 464,-314 464,-314 464,-314 464,-92 464,-76.9969 464,-60.2827 464,-46.5407"/>
<polygon fill="#000000" stroke="#000000" points="467.5001,-46.2465 464,-36.2465 460.5001,-46.2465 467.5001,-46.2465"/>
</g>
<!-- S1DM_Global&#45;&gt;stitchedWSVec -->
<g id="edge11" class="edge">
<title>S1DM_Global&#45;&gt;stitchedWSVec</title>
<path fill="none" stroke="#000000" d="M402.1448,-376.3277C383.3311,-335.5942 339.3255,-240.318 317.5962,-193.2719"/>
<polygon fill="#000000" stroke="#000000" points="320.6851,-191.6126 313.3145,-184.0018 314.3302,-194.5478 320.6851,-191.6126"/>
</g>
<!-- S1DM_Period&#45;&gt;psf -->
<g id="edge13" class="edge">
<title>S1DM_Period&#45;&gt;psf</title>
<path fill="none" stroke="#000000" d="M584.6726,-368.8139C584.57,-360.4576 584.4565,-351.2021 584.3523,-342.7124"/>
<polygon fill="#000000" stroke="#000000" points="587.8494,-342.4499 584.2269,-332.4936 580.85,-342.5358 587.8494,-342.4499"/>
</g>
<!-- groupWS&#45;&gt;outWS -->
<g id="edge18" class="edge">
<title>groupWS&#45;&gt;outWS</title>
<path fill="none" stroke="#000000" d="M299.809,-73.7079C297.4185,-65.2843 294.5299,-55.1052 291.8792,-45.7649"/>
<polygon fill="#000000" stroke="#000000" points="295.2285,-44.7463 289.1313,-36.0817 288.4944,-46.6574 295.2285,-44.7463"/>
</g>
</g>
</svg>
