<?xml version="1.0" encoding="UTF-8" standalone="no"?>
<!DOCTYPE svg PUBLIC "-//W3C//DTD SVG 1.1//EN"
 "http://www.w3.org/Graphics/SVG/1.1/DTD/svg11.dtd">
<!-- Generated by graphviz version 2.40.1 (20161225.0304)
 -->
<!-- Title: TOSCABankCorrection Pages: 1 -->
<svg width="868pt" height="1083pt"
 viewBox="0.00 0.00 867.79 1083.00" xmlns="http://www.w3.org/2000/svg" xmlns:xlink="http://www.w3.org/1999/xlink">
<g id="graph0" class="graph" transform="scale(1 1) rotate(0) translate(4 1079)">
<title>TOSCABankCorrection</title>
<polygon fill="#ffffff" stroke="transparent" points="-4,4 -4,-1079 863.7855,-1079 863.7855,4 -4,4"/>
<text text-anchor="middle" x="429.8927" y="-1059.8" font-family="Helvetica,sans-Serif" font-size="14.00" fill="#000000">TOSCABankCorrection Flowchart</text>
<!-- InputWorkspace -->
<g id="node1" class="node">
<title>InputWorkspace</title>
<ellipse fill="#f0e68c" stroke="#000000" cx="74.7434" cy="-1034" rx="74.9875" ry="18"/>
<text text-anchor="middle" x="74.7434" y="-1030.3" font-family="Helvetica,sans-Serif" font-size="14.00" fill="#000000">InputWorkspace</text>
</g>
<!-- CropWorkspace -->
<g id="node12" class="node">
<title>CropWorkspace</title>
<path fill="#87cefa" stroke="#000000" d="M406.7434,-965C406.7434,-965 316.7434,-965 316.7434,-965 310.7434,-965 304.7434,-959 304.7434,-953 304.7434,-953 304.7434,-941 304.7434,-941 304.7434,-935 310.7434,-929 316.7434,-929 316.7434,-929 406.7434,-929 406.7434,-929 412.7434,-929 418.7434,-935 418.7434,-941 418.7434,-941 418.7434,-953 418.7434,-953 418.7434,-959 412.7434,-965 406.7434,-965"/>
<text text-anchor="middle" x="361.7434" y="-943.3" font-family="Helvetica,sans-Serif" font-size="14.00" fill="#000000">CropWorkspace</text>
</g>
<!-- InputWorkspace&#45;&gt;CropWorkspace -->
<g id="edge1" class="edge">
<title>InputWorkspace&#45;&gt;CropWorkspace</title>
<path fill="none" stroke="#000000" d="M121.4936,-1019.8283C168.5958,-1005.55 241.7294,-983.3806 294.9396,-967.2506"/>
<polygon fill="#000000" stroke="#000000" points="296.0779,-970.5629 304.6325,-964.3124 294.0472,-963.8639 296.0779,-970.5629"/>
</g>
<!-- RebinToWorkspace -->
<g id="node16" class="node">
<title>RebinToWorkspace</title>
<path fill="#87cefa" stroke="#000000" d="M159.7434,-297C159.7434,-297 47.7434,-297 47.7434,-297 41.7434,-297 35.7434,-291 35.7434,-285 35.7434,-285 35.7434,-273 35.7434,-273 35.7434,-267 41.7434,-261 47.7434,-261 47.7434,-261 159.7434,-261 159.7434,-261 165.7434,-261 171.7434,-267 171.7434,-273 171.7434,-273 171.7434,-285 171.7434,-285 171.7434,-291 165.7434,-297 159.7434,-297"/>
<text text-anchor="middle" x="103.7434" y="-275.3" font-family="Helvetica,sans-Serif" font-size="14.00" fill="#000000">RebinToWorkspace</text>
</g>
<!-- InputWorkspace&#45;&gt;RebinToWorkspace -->
<g id="edge19" class="edge">
<title>InputWorkspace&#45;&gt;RebinToWorkspace</title>
<path fill="none" stroke="#000000" d="M79.0722,-1015.7876C82.8539,-998.2665 87.7434,-970.9768 87.7434,-947 87.7434,-947 87.7434,-947 87.7434,-366 87.7434,-346.0329 91.8703,-323.9069 95.9323,-306.9652"/>
<polygon fill="#000000" stroke="#000000" points="99.3553,-307.7052 98.4156,-297.1521 92.5692,-305.9879 99.3553,-307.7052"/>
</g>
<!-- SearchRange -->
<g id="node2" class="node">
<title>SearchRange</title>
<ellipse fill="#f0e68c" stroke="#000000" cx="361.7434" cy="-1034" rx="64.189" ry="18"/>
<text text-anchor="middle" x="361.7434" y="-1030.3" font-family="Helvetica,sans-Serif" font-size="14.00" fill="#000000">SearchRange</text>
</g>
<!-- SearchRange&#45;&gt;CropWorkspace -->
<g id="edge2" class="edge">
<title>SearchRange&#45;&gt;CropWorkspace</title>
<path fill="none" stroke="#000000" d="M361.7434,-1015.9735C361.7434,-1004.1918 361.7434,-988.5607 361.7434,-975.1581"/>
<polygon fill="#000000" stroke="#000000" points="365.2435,-975.0033 361.7434,-965.0034 358.2435,-975.0034 365.2435,-975.0033"/>
<text text-anchor="middle" x="435.2434" y="-986.8" font-family="Helvetica,sans-Serif" font-size="14.00" fill="#000000">Defines XMin and XMax</text>
</g>
<!-- CroppedWorkspace -->
<g id="node3" class="node">
<title>CroppedWorkspace</title>
<ellipse fill="#f0e68c" stroke="#000000" cx="492.7434" cy="-860" rx="89.0842" ry="18"/>
<text text-anchor="middle" x="492.7434" y="-856.3" font-family="Helvetica,sans-Serif" font-size="14.00" fill="#000000">CroppedWorkspace</text>
</g>
<!-- FindPeak -->
<g id="node13" class="node">
<title>FindPeak</title>
<path fill="#87cefa" stroke="#000000" d="M346.7434,-791C346.7434,-791 296.7434,-791 296.7434,-791 290.7434,-791 284.7434,-785 284.7434,-779 284.7434,-779 284.7434,-767 284.7434,-767 284.7434,-761 290.7434,-755 296.7434,-755 296.7434,-755 346.7434,-755 346.7434,-755 352.7434,-755 358.7434,-761 358.7434,-767 358.7434,-767 358.7434,-779 358.7434,-779 358.7434,-785 352.7434,-791 346.7434,-791"/>
<text text-anchor="middle" x="321.7434" y="-769.3" font-family="Helvetica,sans-Serif" font-size="14.00" fill="#000000">FindPeak</text>
</g>
<!-- CroppedWorkspace&#45;&gt;FindPeak -->
<g id="edge4" class="edge">
<title>CroppedWorkspace&#45;&gt;FindPeak</title>
<path fill="none" stroke="#000000" d="M459.7728,-843.2255C433.2379,-829.7253 395.6819,-810.6178 366.4422,-795.7415"/>
<polygon fill="#000000" stroke="#000000" points="367.7654,-792.4878 357.2655,-791.0727 364.5912,-798.7268 367.7654,-792.4878"/>
<text text-anchor="middle" x="495.2434" y="-812.8" font-family="Helvetica,sans-Serif" font-size="14.00" fill="#000000">Find peak in Bank 1 and 2</text>
</g>
<!-- PeakPosition -->
<g id="node4" class="node">
<title>PeakPosition</title>
<ellipse fill="#f0e68c" stroke="#000000" cx="177.7434" cy="-860" rx="61.99" ry="18"/>
<text text-anchor="middle" x="177.7434" y="-856.3" font-family="Helvetica,sans-Serif" font-size="14.00" fill="#000000">PeakPosition</text>
</g>
<!-- PeakPosition&#45;&gt;FindPeak -->
<g id="edge6" class="edge">
<title>PeakPosition&#45;&gt;FindPeak</title>
<path fill="none" stroke="#000000" d="M204.8287,-843.636C226.887,-830.309 258.3099,-811.3244 283.0249,-796.3924"/>
<polygon fill="#000000" stroke="#000000" points="285.0479,-799.2594 291.7972,-791.0925 281.4281,-793.268 285.0479,-799.2594"/>
</g>
<!-- ClosePeakTolerance -->
<g id="node5" class="node">
<title>ClosePeakTolerance</title>
<ellipse fill="#f0e68c" stroke="#000000" cx="466.7434" cy="-613" rx="92.0841" ry="18"/>
<text text-anchor="middle" x="466.7434" y="-609.3" font-family="Helvetica,sans-Serif" font-size="14.00" fill="#000000">ClosePeakTolerance</text>
</g>
<!-- Bank1_ScaleFactor -->
<g id="node9" class="node">
<title>Bank1_ScaleFactor</title>
<ellipse fill="#f0e68c" stroke="#000000" cx="386.7434" cy="-526" rx="87.1846" ry="18"/>
<text text-anchor="middle" x="386.7434" y="-522.3" font-family="Helvetica,sans-Serif" font-size="14.00" fill="#000000">Bank1_ScaleFactor</text>
</g>
<!-- ClosePeakTolerance&#45;&gt;Bank1_ScaleFactor -->
<g id="edge10" class="edge">
<title>ClosePeakTolerance&#45;&gt;Bank1_ScaleFactor</title>
<path fill="none" stroke="#000000" d="M450.1673,-594.9735C438.5054,-582.2912 422.7421,-565.1486 409.8482,-551.1265"/>
<polygon fill="#000000" stroke="#000000" points="412.3696,-548.6976 403.0245,-543.7057 407.2169,-553.4358 412.3696,-548.6976"/>
</g>
<!-- PeakFunction -->
<g id="node6" class="node">
<title>PeakFunction</title>
<ellipse fill="#f0e68c" stroke="#000000" cx="321.7434" cy="-860" rx="64.189" ry="18"/>
<text text-anchor="middle" x="321.7434" y="-856.3" font-family="Helvetica,sans-Serif" font-size="14.00" fill="#000000">PeakFunction</text>
</g>
<!-- PeakFunction&#45;&gt;FindPeak -->
<g id="edge5" class="edge">
<title>PeakFunction&#45;&gt;FindPeak</title>
<path fill="none" stroke="#000000" d="M321.7434,-841.9735C321.7434,-830.1918 321.7434,-814.5607 321.7434,-801.1581"/>
<polygon fill="#000000" stroke="#000000" points="325.2435,-801.0033 321.7434,-791.0034 318.2435,-801.0034 325.2435,-801.0033"/>
</g>
<!-- OutputWorkspace -->
<g id="node7" class="node">
<title>OutputWorkspace</title>
<ellipse fill="#f0e68c" stroke="#000000" cx="103.7434" cy="-18" rx="81.7856" ry="18"/>
<text text-anchor="middle" x="103.7434" y="-14.3" font-family="Helvetica,sans-Serif" font-size="14.00" fill="#000000">OutputWorkspace</text>
</g>
<!-- TargetPeakCentre -->
<g id="node8" class="node">
<title>TargetPeakCentre</title>
<ellipse fill="#f0e68c" stroke="#000000" cx="198.7434" cy="-526" rx="82.5854" ry="18"/>
<text text-anchor="middle" x="198.7434" y="-522.3" font-family="Helvetica,sans-Serif" font-size="14.00" fill="#000000">TargetPeakCentre</text>
</g>
<!-- ScaleX -->
<g id="node15" class="node">
<title>ScaleX</title>
<path fill="#87cefa" stroke="#000000" d="M515.2434,-457C515.2434,-457 480.2434,-457 480.2434,-457 474.2434,-457 468.2434,-451 468.2434,-445 468.2434,-445 468.2434,-433 468.2434,-433 468.2434,-427 474.2434,-421 480.2434,-421 480.2434,-421 515.2434,-421 515.2434,-421 521.2434,-421 527.2434,-427 527.2434,-433 527.2434,-433 527.2434,-445 527.2434,-445 527.2434,-451 521.2434,-457 515.2434,-457"/>
<text text-anchor="middle" x="497.7434" y="-435.3" font-family="Helvetica,sans-Serif" font-size="14.00" fill="#000000">ScaleX</text>
</g>
<!-- Bank1_ScaleFactor&#45;&gt;ScaleX -->
<g id="edge15" class="edge">
<title>Bank1_ScaleFactor&#45;&gt;ScaleX</title>
<path fill="none" stroke="#000000" d="M409.2059,-508.3943C425.6864,-495.4771 448.2778,-477.7703 466.5149,-463.4763"/>
<polygon fill="#000000" stroke="#000000" points="468.8387,-466.102 474.5502,-457.1785 464.5205,-460.5926 468.8387,-466.102"/>
</g>
<!-- Bank2_ScaleFactor -->
<g id="node10" class="node">
<title>Bank2_ScaleFactor</title>
<ellipse fill="#f0e68c" stroke="#000000" cx="770.7434" cy="-526" rx="87.1846" ry="18"/>
<text text-anchor="middle" x="770.7434" y="-522.3" font-family="Helvetica,sans-Serif" font-size="14.00" fill="#000000">Bank2_ScaleFactor</text>
</g>
<!-- Bank2_ScaleFactor&#45;&gt;ScaleX -->
<g id="edge16" class="edge">
<title>Bank2_ScaleFactor&#45;&gt;ScaleX</title>
<path fill="none" stroke="#000000" d="M770.5347,-507.8223C769.3916,-496.7102 765.9892,-483.1173 756.7434,-475 740.5592,-460.7911 606.0618,-447.8668 537.5417,-442.1296"/>
<polygon fill="#000000" stroke="#000000" points="537.7899,-438.6383 527.5358,-441.3037 537.214,-445.6146 537.7899,-438.6383"/>
</g>
<!-- Peaks -->
<g id="node11" class="node">
<title>Peaks</title>
<ellipse fill="#f0e68c" stroke="#000000" cx="321.7434" cy="-613" rx="35.194" ry="18"/>
<text text-anchor="middle" x="321.7434" y="-609.3" font-family="Helvetica,sans-Serif" font-size="14.00" fill="#000000">Peaks</text>
</g>
<!-- Peaks&#45;&gt;TargetPeakCentre -->
<g id="edge9" class="edge">
<title>Peaks&#45;&gt;TargetPeakCentre</title>
<path fill="none" stroke="#000000" d="M300.8781,-598.2416C281.8786,-584.803 253.5138,-564.74 231.4939,-549.165"/>
<polygon fill="#000000" stroke="#000000" points="233.2823,-546.143 223.097,-543.2258 229.2401,-551.8579 233.2823,-546.143"/>
<text text-anchor="middle" x="288.7434" y="-565.8" font-family="Helvetica,sans-Serif" font-size="14.00" fill="#000000">Output</text>
</g>
<!-- Peaks&#45;&gt;Bank1_ScaleFactor -->
<g id="edge11" class="edge">
<title>Peaks&#45;&gt;Bank1_ScaleFactor</title>
<path fill="none" stroke="#000000" d="M334.5853,-595.8116C343.8383,-583.4268 356.4965,-566.4842 367.0256,-552.3915"/>
<polygon fill="#000000" stroke="#000000" points="370.0754,-554.1571 373.2568,-544.0512 364.4677,-549.9674 370.0754,-554.1571"/>
</g>
<!-- Peaks&#45;&gt;Bank2_ScaleFactor -->
<g id="edge13" class="edge">
<title>Peaks&#45;&gt;Bank2_ScaleFactor</title>
<path fill="none" stroke="#000000" d="M348.3992,-600.9821C354.0444,-598.7534 360.0262,-596.6206 365.7434,-595 499.237,-557.1609 537.0806,-567.9923 673.7434,-544 681.0745,-542.713 688.7118,-541.3442 696.3401,-539.9585"/>
<polygon fill="#000000" stroke="#000000" points="697.1283,-543.3725 706.3367,-538.1326 695.8705,-536.4865 697.1283,-543.3725"/>
</g>
<!-- CropWorkspace&#45;&gt;CroppedWorkspace -->
<g id="edge3" class="edge">
<title>CropWorkspace&#45;&gt;CroppedWorkspace</title>
<path fill="none" stroke="#000000" d="M388.8867,-928.9735C408.9104,-915.6753 436.3185,-897.473 457.9508,-883.1065"/>
<polygon fill="#000000" stroke="#000000" points="460.1348,-885.8577 466.5288,-877.4097 456.2622,-880.0265 460.1348,-885.8577"/>
<text text-anchor="middle" x="557.7434" y="-899.8" font-family="Helvetica,sans-Serif" font-size="14.00" fill="#000000">Workspace containing bank 1 and 2 data</text>
</g>
<!-- SortTableWorkspace -->
<g id="node14" class="node">
<title>SortTableWorkspace</title>
<path fill="#87cefa" stroke="#000000" d="M381.2434,-704C381.2434,-704 262.2434,-704 262.2434,-704 256.2434,-704 250.2434,-698 250.2434,-692 250.2434,-692 250.2434,-680 250.2434,-680 250.2434,-674 256.2434,-668 262.2434,-668 262.2434,-668 381.2434,-668 381.2434,-668 387.2434,-668 393.2434,-674 393.2434,-680 393.2434,-680 393.2434,-692 393.2434,-692 393.2434,-698 387.2434,-704 381.2434,-704"/>
<text text-anchor="middle" x="321.7434" y="-682.3" font-family="Helvetica,sans-Serif" font-size="14.00" fill="#000000">SortTableWorkspace</text>
</g>
<!-- FindPeak&#45;&gt;SortTableWorkspace -->
<g id="edge7" class="edge">
<title>FindPeak&#45;&gt;SortTableWorkspace</title>
<path fill="none" stroke="#000000" d="M321.7434,-754.9735C321.7434,-743.1918 321.7434,-727.5607 321.7434,-714.1581"/>
<polygon fill="#000000" stroke="#000000" points="325.2435,-714.0033 321.7434,-704.0034 318.2435,-714.0034 325.2435,-714.0033"/>
<text text-anchor="middle" x="383.7434" y="-725.8" font-family="Helvetica,sans-Serif" font-size="14.00" fill="#000000">Sort peaks by height</text>
</g>
<!-- SortTableWorkspace&#45;&gt;Peaks -->
<g id="edge8" class="edge">
<title>SortTableWorkspace&#45;&gt;Peaks</title>
<path fill="none" stroke="#000000" d="M321.7434,-667.9551C321.7434,-659.8828 321.7434,-650.1764 321.7434,-641.1817"/>
<polygon fill="#000000" stroke="#000000" points="325.2435,-641.0903 321.7434,-631.0904 318.2435,-641.0904 325.2435,-641.0903"/>
</g>
<!-- ScaledWorkspace -->
<g id="node21" class="node">
<title>ScaledWorkspace</title>
<ellipse fill="#d3d3d3" stroke="#000000" cx="368.7434" cy="-366" rx="81.7856" ry="18"/>
<text text-anchor="middle" x="368.7434" y="-362.3" font-family="Helvetica,sans-Serif" font-size="14.00" fill="#000000">ScaledWorkspace</text>
</g>
<!-- ScaleX&#45;&gt;ScaledWorkspace -->
<g id="edge17" class="edge">
<title>ScaleX&#45;&gt;ScaledWorkspace</title>
<path fill="none" stroke="#000000" d="M468.1482,-422.2523C450.1679,-412.0774 427.009,-398.972 407.5687,-387.9709"/>
<polygon fill="#000000" stroke="#000000" points="409.0745,-384.8015 398.6476,-382.9225 405.6269,-390.8937 409.0745,-384.8015"/>
</g>
<!-- GroupDetectors -->
<g id="node17" class="node">
<title>GroupDetectors</title>
<path fill="#87cefa" stroke="#000000" d="M148.2434,-210C148.2434,-210 59.2434,-210 59.2434,-210 53.2434,-210 47.2434,-204 47.2434,-198 47.2434,-198 47.2434,-186 47.2434,-186 47.2434,-180 53.2434,-174 59.2434,-174 59.2434,-174 148.2434,-174 148.2434,-174 154.2434,-174 160.2434,-180 160.2434,-186 160.2434,-186 160.2434,-198 160.2434,-198 160.2434,-204 154.2434,-210 148.2434,-210"/>
<text text-anchor="middle" x="103.7434" y="-188.3" font-family="Helvetica,sans-Serif" font-size="14.00" fill="#000000">GroupDetectors</text>
</g>
<!-- RebinToWorkspace&#45;&gt;GroupDetectors -->
<g id="edge20" class="edge">
<title>RebinToWorkspace&#45;&gt;GroupDetectors</title>
<path fill="none" stroke="#000000" d="M103.7434,-260.9735C103.7434,-249.1918 103.7434,-233.5607 103.7434,-220.1581"/>
<polygon fill="#000000" stroke="#000000" points="107.2435,-220.0033 103.7434,-210.0034 100.2435,-220.0034 107.2435,-220.0033"/>
<text text-anchor="middle" x="207.7434" y="-231.8" font-family="Helvetica,sans-Serif" font-size="14.00" fill="#000000">Sum spectra from corrected banks</text>
</g>
<!-- AppendSpectra -->
<g id="node18" class="node">
<title>AppendSpectra</title>
<path fill="#87cefa" stroke="#000000" d="M146.7434,-123C146.7434,-123 60.7434,-123 60.7434,-123 54.7434,-123 48.7434,-117 48.7434,-111 48.7434,-111 48.7434,-99 48.7434,-99 48.7434,-93 54.7434,-87 60.7434,-87 60.7434,-87 146.7434,-87 146.7434,-87 152.7434,-87 158.7434,-93 158.7434,-99 158.7434,-99 158.7434,-111 158.7434,-111 158.7434,-117 152.7434,-123 146.7434,-123"/>
<text text-anchor="middle" x="103.7434" y="-101.3" font-family="Helvetica,sans-Serif" font-size="14.00" fill="#000000">AppendSpectra</text>
</g>
<!-- GroupDetectors&#45;&gt;AppendSpectra -->
<g id="edge21" class="edge">
<title>GroupDetectors&#45;&gt;AppendSpectra</title>
<path fill="none" stroke="#000000" d="M103.7434,-173.9735C103.7434,-162.1918 103.7434,-146.5607 103.7434,-133.1581"/>
<polygon fill="#000000" stroke="#000000" points="107.2435,-133.0033 103.7434,-123.0034 100.2435,-133.0034 107.2435,-133.0033"/>
<text text-anchor="middle" x="167.2434" y="-144.8" font-family="Helvetica,sans-Serif" font-size="14.00" fill="#000000">Behaviour = Average</text>
</g>
<!-- AppendSpectra&#45;&gt;OutputWorkspace -->
<g id="edge22" class="edge">
<title>AppendSpectra&#45;&gt;OutputWorkspace</title>
<path fill="none" stroke="#000000" d="M103.7434,-86.9735C103.7434,-75.1918 103.7434,-59.5607 103.7434,-46.1581"/>
<polygon fill="#000000" stroke="#000000" points="107.2435,-46.0033 103.7434,-36.0034 100.2435,-46.0034 107.2435,-46.0033"/>
<text text-anchor="middle" x="124.7434" y="-57.8" font-family="Helvetica,sans-Serif" font-size="14.00" fill="#000000">Output</text>
</g>
<!-- ClosePeaktolerance -->
<g id="node19" class="node">
<title>ClosePeaktolerance</title>
<ellipse fill="#d3d3d3" stroke="#000000" cx="770.7434" cy="-613" rx="89.0842" ry="18"/>
<text text-anchor="middle" x="770.7434" y="-609.3" font-family="Helvetica,sans-Serif" font-size="14.00" fill="#000000">ClosePeaktolerance</text>
</g>
<!-- ClosePeaktolerance&#45;&gt;Bank2_ScaleFactor -->
<g id="edge12" class="edge">
<title>ClosePeaktolerance&#45;&gt;Bank2_ScaleFactor</title>
<path fill="none" stroke="#000000" d="M770.7434,-594.9735C770.7434,-583.1918 770.7434,-567.5607 770.7434,-554.1581"/>
<polygon fill="#000000" stroke="#000000" points="774.2435,-554.0033 770.7434,-544.0034 767.2435,-554.0034 774.2435,-554.0033"/>
</g>
<!-- Croppedworkspace -->
<g id="node20" class="node">
<title>Croppedworkspace</title>
<ellipse fill="#d3d3d3" stroke="#000000" cx="578.7434" cy="-526" rx="86.3847" ry="18"/>
<text text-anchor="middle" x="578.7434" y="-522.3" font-family="Helvetica,sans-Serif" font-size="14.00" fill="#000000">Croppedworkspace</text>
</g>
<!-- Croppedworkspace&#45;&gt;ScaleX -->
<g id="edge14" class="edge">
<title>Croppedworkspace&#45;&gt;ScaleX</title>
<path fill="none" stroke="#000000" d="M559.9849,-508.3644C554.0425,-502.6155 547.5196,-496.1327 541.7434,-490 534.2869,-482.0833 526.4411,-473.1879 519.4731,-465.0697"/>
<polygon fill="#000000" stroke="#000000" points="521.9892,-462.6258 512.8445,-457.2757 516.6569,-467.1608 521.9892,-462.6258"/>
<text text-anchor="middle" x="649.2434" y="-478.8" font-family="Helvetica,sans-Serif" font-size="14.00" fill="#000000">Workspace containing bank spectra</text>
</g>
<!-- ScaledWorkspace&#45;&gt;RebinToWorkspace -->
<g id="edge18" class="edge">
<title>ScaledWorkspace&#45;&gt;RebinToWorkspace</title>
<path fill="none" stroke="#000000" d="M322.8864,-350.9451C280.2008,-336.9313 216.1515,-315.9038 168.305,-300.1957"/>
<polygon fill="#000000" stroke="#000000" points="169.2519,-296.8228 158.6591,-297.0289 167.0684,-303.4736 169.2519,-296.8228"/>
<text text-anchor="middle" x="341.7434" y="-318.8" font-family="Helvetica,sans-Serif" font-size="14.00" fill="#000000">Rebin to original input binning</text>
</g>
</g>
</svg>
