<?xml version="1.0" encoding="UTF-8" standalone="no"?>
<!DOCTYPE svg PUBLIC "-//W3C//DTD SVG 1.1//EN"
 "http://www.w3.org/Graphics/SVG/1.1/DTD/svg11.dtd">
<!-- Generated by graphviz version 7.1.0 (20230122.1345)
 -->
<!-- Title: CreateTransmissionWorkspace Pages: 1 -->
<svg width="822pt" height="425pt"
 viewBox="0.00 0.00 822.17 425.00" xmlns="http://www.w3.org/2000/svg" xmlns:xlink="http://www.w3.org/1999/xlink">
<g id="graph0" class="graph" transform="scale(1 1) rotate(0) translate(4 421)">
<title>CreateTransmissionWorkspace</title>
<polygon fill="white" stroke="none" points="-4,4 -4,-421 818.17,-421 818.17,4 -4,4"/>
<!-- firstRun -->
<g id="node1" class="node">
<title>firstRun</title>
<ellipse fill="khaki" stroke="black" cx="176.48" cy="-399" rx="106.68" ry="18"/>
<text text-anchor="middle" x="176.48" y="-395.3" font-family="Helvetica,sans-Serif" font-size="14.00">FirstTransmissionRun</text>
</g>
<!-- convertFirst -->
<g id="node9" class="node">
<title>convertFirst</title>
<polygon fill="lightseagreen" stroke="black" points="242.98,-344 109.98,-344 109.98,-306 242.98,-306 242.98,-344"/>
<text text-anchor="middle" x="176.48" y="-328.8" font-family="Helvetica,sans-Serif" font-size="14.00">Convert to 位 and</text>
<text text-anchor="middle" x="176.48" y="-313.8" font-family="Helvetica,sans-Serif" font-size="14.00">normalize</text>
</g>
<!-- firstRun&#45;&gt;convertFirst -->
<g id="edge1" class="edge">
<title>firstRun&#45;&gt;convertFirst</title>
<path fill="none" stroke="black" d="M176.48,-380.57C176.48,-373.1 176.48,-364.17 176.48,-355.71"/>
<polygon fill="black" stroke="black" points="179.98,-355.79 176.48,-345.79 172.98,-355.79 179.98,-355.79"/>
</g>
<!-- secondRun -->
<g id="node2" class="node">
<title>secondRun</title>
<ellipse fill="khaki" stroke="black" cx="421.48" cy="-399" rx="120.48" ry="18"/>
<text text-anchor="middle" x="421.48" y="-395.3" font-family="Helvetica,sans-Serif" font-size="14.00">SecondTransmissionRun</text>
</g>
<!-- convertSecond -->
<g id="node10" class="node">
<title>convertSecond</title>
<polygon fill="lightseagreen" stroke="black" points="487.98,-344 354.98,-344 354.98,-306 487.98,-306 487.98,-344"/>
<text text-anchor="middle" x="421.48" y="-328.8" font-family="Helvetica,sans-Serif" font-size="14.00">Convert to 位 and</text>
<text text-anchor="middle" x="421.48" y="-313.8" font-family="Helvetica,sans-Serif" font-size="14.00">normalize</text>
</g>
<!-- secondRun&#45;&gt;convertSecond -->
<g id="edge6" class="edge">
<title>secondRun&#45;&gt;convertSecond</title>
<path fill="none" stroke="black" d="M421.48,-380.57C421.48,-373.1 421.48,-364.17 421.48,-355.71"/>
<polygon fill="black" stroke="black" points="424.98,-355.79 421.48,-345.79 417.98,-355.79 424.98,-355.79"/>
</g>
<!-- outputWS -->
<g id="node3" class="node">
<title>outputWS</title>
<ellipse fill="khaki" stroke="black" cx="336.48" cy="-18" rx="92.08" ry="18"/>
<text text-anchor="middle" x="336.48" y="-14.3" font-family="Helvetica,sans-Serif" font-size="14.00">OutputWorkspace</text>
</g>
<!-- params -->
<g id="node4" class="node">
<title>params</title>
<ellipse fill="khaki" stroke="black" cx="470.48" cy="-178" rx="44.39" ry="18"/>
<text text-anchor="middle" x="470.48" y="-174.3" font-family="Helvetica,sans-Serif" font-size="14.00">Params</text>
</g>
<!-- stitch -->
<g id="node8" class="node">
<title>stitch</title>
<path fill="lightskyblue" stroke="black" d="M449.48,-109C449.48,-109 397.48,-109 397.48,-109 391.48,-109 385.48,-103 385.48,-97 385.48,-97 385.48,-85 385.48,-85 385.48,-79 391.48,-73 397.48,-73 397.48,-73 449.48,-73 449.48,-73 455.48,-73 461.48,-79 461.48,-85 461.48,-85 461.48,-97 461.48,-97 461.48,-103 455.48,-109 449.48,-109"/>
<text text-anchor="middle" x="423.48" y="-87.3" font-family="Helvetica,sans-Serif" font-size="14.00">Stitch1D</text>
</g>
<!-- params&#45;&gt;stitch -->
<g id="edge13" class="edge">
<title>params&#45;&gt;stitch</title>
<path fill="none" stroke="black" d="M461.19,-160.21C454.71,-148.49 445.92,-132.59 438.46,-119.09"/>
<polygon fill="black" stroke="black" points="441.7,-117.72 433.8,-110.67 435.58,-121.11 441.7,-117.72"/>
</g>
<!-- startOv -->
<g id="node5" class="node">
<title>startOv</title>
<ellipse fill="khaki" stroke="black" cx="600.48" cy="-178" rx="68.49" ry="18"/>
<text text-anchor="middle" x="600.48" y="-174.3" font-family="Helvetica,sans-Serif" font-size="14.00">StartOverlap</text>
</g>
<!-- startOv&#45;&gt;stitch -->
<g id="edge10" class="edge">
<title>startOv&#45;&gt;stitch</title>
<path fill="none" stroke="black" d="M568.83,-161.8C541.32,-148.59 501.09,-129.27 469.92,-114.3"/>
<polygon fill="black" stroke="black" points="471.62,-111.24 461.09,-110.06 468.59,-117.55 471.62,-111.24"/>
</g>
<!-- endOv -->
<g id="node6" class="node">
<title>endOv</title>
<ellipse fill="khaki" stroke="black" cx="750.48" cy="-178" rx="63.89" ry="18"/>
<text text-anchor="middle" x="750.48" y="-174.3" font-family="Helvetica,sans-Serif" font-size="14.00">EndOverlap</text>
</g>
<!-- endOv&#45;&gt;stitch -->
<g id="edge11" class="edge">
<title>endOv&#45;&gt;stitch</title>
<path fill="none" stroke="black" d="M704.67,-165.09C643.48,-149.19 535.52,-121.12 472.66,-104.79"/>
<polygon fill="black" stroke="black" points="473.87,-101.48 463.32,-102.36 472.11,-108.26 473.87,-101.48"/>
</g>
<!-- checkSecondRun -->
<g id="node7" class="node">
<title>checkSecondRun</title>
<polygon fill="limegreen" stroke="black" points="176.48,-196 0.02,-178 176.48,-160 352.93,-178 176.48,-196"/>
<text text-anchor="middle" x="176.48" y="-174.3" font-family="Helvetica,sans-Serif" font-size="14.00">SecondTransmissionRun?</text>
</g>
<!-- checkSecondRun&#45;&gt;outputWS -->
<g id="edge4" class="edge">
<title>checkSecondRun&#45;&gt;outputWS</title>
<path fill="none" stroke="black" d="M192.4,-161.27C220.24,-133.79 277.94,-76.8 311.26,-43.9"/>
<polygon fill="black" stroke="black" points="313.44,-46.67 318.09,-37.16 308.52,-41.69 313.44,-46.67"/>
<text text-anchor="middle" x="290.98" y="-87.3" font-family="Helvetica,sans-Serif" font-size="14.00">No</text>
</g>
<!-- checkSecondRun&#45;&gt;stitch -->
<g id="edge5" class="edge">
<title>checkSecondRun&#45;&gt;stitch</title>
<path fill="none" stroke="black" d="M248.2,-166.88C276.66,-161.46 309.26,-153.48 337.48,-142 349.13,-137.26 350.67,-133.43 361.48,-127 368.12,-123.05 375.21,-118.95 382.14,-115"/>
<polygon fill="black" stroke="black" points="383.81,-118.08 390.78,-110.1 380.36,-111.98 383.81,-118.08"/>
<text text-anchor="middle" x="372.98" y="-130.8" font-family="Helvetica,sans-Serif" font-size="14.00">Yes</text>
</g>
<!-- stitch&#45;&gt;outputWS -->
<g id="edge12" class="edge">
<title>stitch&#45;&gt;outputWS</title>
<path fill="none" stroke="black" d="M402.42,-72.81C391.44,-63.85 377.83,-52.75 365.83,-42.96"/>
<polygon fill="black" stroke="black" points="368.18,-40.35 358.22,-36.74 363.75,-45.78 368.18,-40.35"/>
</g>
<!-- valFirst -->
<g id="node11" class="node">
<title>valFirst</title>
<polygon fill="grey" stroke="black" points="215.62,-269 153.35,-269 137.34,-233 199.6,-233 215.62,-269"/>
<text text-anchor="middle" x="176.48" y="-247.3" font-family="Times,serif" font-size="14.00">I(位)</text>
</g>
<!-- convertFirst&#45;&gt;valFirst -->
<g id="edge2" class="edge">
<title>convertFirst&#45;&gt;valFirst</title>
<path fill="none" stroke="black" d="M176.48,-305.83C176.48,-298.24 176.48,-289.24 176.48,-280.79"/>
<polygon fill="black" stroke="black" points="179.98,-280.93 176.48,-270.93 172.98,-280.93 179.98,-280.93"/>
</g>
<!-- convertSecond&#45;&gt;params -->
<!-- valSecond -->
<g id="node12" class="node">
<title>valSecond</title>
<polygon fill="grey" stroke="black" points="460.62,-269 398.35,-269 382.34,-233 444.6,-233 460.62,-269"/>
<text text-anchor="middle" x="421.48" y="-247.3" font-family="Times,serif" font-size="14.00">I(位)</text>
</g>
<!-- convertSecond&#45;&gt;valSecond -->
<g id="edge7" class="edge">
<title>convertSecond&#45;&gt;valSecond</title>
<path fill="none" stroke="black" d="M421.48,-305.83C421.48,-298.24 421.48,-289.24 421.48,-280.79"/>
<polygon fill="black" stroke="black" points="424.98,-280.93 421.48,-270.93 417.98,-280.93 424.98,-280.93"/>
</g>
<!-- valFirst&#45;&gt;checkSecondRun -->
<g id="edge3" class="edge">
<title>valFirst&#45;&gt;checkSecondRun</title>
<path fill="none" stroke="black" d="M176.48,-232.81C176.48,-225.23 176.48,-216.1 176.48,-207.54"/>
<polygon fill="black" stroke="black" points="179.98,-207.54 176.48,-197.54 172.98,-207.54 179.98,-207.54"/>
</g>
<!-- valSecond&#45;&gt;stitch -->
<g id="edge8" class="edge">
<title>valSecond&#45;&gt;stitch</title>
<path fill="none" stroke="black" d="M419.85,-232.51C418.95,-221.95 417.93,-208.21 417.48,-196 416.89,-180.01 416.77,-175.98 417.48,-160 418.05,-147.04 419.23,-132.72 420.39,-120.58"/>
<polygon fill="black" stroke="black" points="423.86,-121.11 421.38,-110.81 416.89,-120.41 423.86,-121.11"/>
</g>
</g>
</svg>
