<?xml version="1.0" encoding="UTF-8" standalone="no"?>
<!DOCTYPE svg PUBLIC "-//W3C//DTD SVG 1.1//EN"
 "http://www.w3.org/Graphics/SVG/1.1/DTD/svg11.dtd">
<!-- Generated by graphviz version 7.1.0 (20230122.1345)
 -->
<!-- Title: DgsReduction Pages: 1 -->
<svg width="1357pt" height="1582pt"
 viewBox="0.00 0.00 1357.10 1581.65" xmlns="http://www.w3.org/2000/svg" xmlns:xlink="http://www.w3.org/1999/xlink">
<g id="graph0" class="graph" transform="scale(1 1) rotate(0) translate(4 1577.65)">
<title>DgsReduction</title>
<polygon fill="white" stroke="none" points="-4,4 -4,-1577.65 1353.1,-1577.65 1353.1,4 -4,4"/>
<text text-anchor="middle" x="674.55" y="-1558.45" font-family="Helvetica,sans-Serif" font-size="14.00">DgsAbsoluteUnitsReduction Flowchart</text>
<!-- absUDWS -->
<g id="node1" class="node">
<title>absUDWS</title>
<ellipse fill="khaki" stroke="black" cx="1138.44" cy="-1513.17" rx="106.13" ry="37.45"/>
<text text-anchor="middle" x="1138.44" y="-1524.47" font-family="Helvetica,sans-Serif" font-size="14.00">Absolute Units</text>
<text text-anchor="middle" x="1138.44" y="-1509.47" font-family="Helvetica,sans-Serif" font-size="14.00">Detector Vanadium</text>
<text text-anchor="middle" x="1138.44" y="-1494.47" font-family="Helvetica,sans-Serif" font-size="14.00">Workspace</text>
</g>
<!-- DgsProcessDetectorVanadium -->
<g id="node18" class="node">
<title>DgsProcessDetectorVanadium</title>
<path fill="lightskyblue" stroke="black" d="M1238.94,-1438.69C1238.94,-1438.69 1037.94,-1438.69 1037.94,-1438.69 1031.94,-1438.69 1025.94,-1432.69 1025.94,-1426.69 1025.94,-1426.69 1025.94,-1414.69 1025.94,-1414.69 1025.94,-1408.69 1031.94,-1402.69 1037.94,-1402.69 1037.94,-1402.69 1238.94,-1402.69 1238.94,-1402.69 1244.94,-1402.69 1250.94,-1408.69 1250.94,-1414.69 1250.94,-1414.69 1250.94,-1426.69 1250.94,-1426.69 1250.94,-1432.69 1244.94,-1438.69 1238.94,-1438.69"/>
<text text-anchor="middle" x="1138.44" y="-1416.99" font-family="Helvetica,sans-Serif" font-size="14.00">DgsProcessDetectorVanadium</text>
</g>
<!-- absUDWS&#45;&gt;DgsProcessDetectorVanadium -->
<g id="edge1" class="edge">
<title>absUDWS&#45;&gt;DgsProcessDetectorVanadium</title>
<path fill="none" stroke="black" d="M1138.44,-1475.37C1138.44,-1467.05 1138.44,-1458.34 1138.44,-1450.41"/>
<polygon fill="black" stroke="black" points="1141.94,-1450.65 1138.44,-1440.65 1134.94,-1450.65 1141.94,-1450.65"/>
</g>
<!-- absUSWS -->
<g id="node2" class="node">
<title>absUSWS</title>
<ellipse fill="khaki" stroke="black" cx="387.44" cy="-1312.69" rx="105.22" ry="26.74"/>
<text text-anchor="middle" x="387.44" y="-1316.49" font-family="Helvetica,sans-Serif" font-size="14.00">Absolute Units</text>
<text text-anchor="middle" x="387.44" y="-1301.49" font-family="Helvetica,sans-Serif" font-size="14.00">Sample Workspace</text>
</g>
<!-- DgsConvertToEnergyTransfer -->
<g id="node19" class="node">
<title>DgsConvertToEnergyTransfer</title>
<path fill="lightskyblue" stroke="black" d="M876.94,-1222.69C876.94,-1222.69 681.94,-1222.69 681.94,-1222.69 675.94,-1222.69 669.94,-1216.69 669.94,-1210.69 669.94,-1210.69 669.94,-1198.69 669.94,-1198.69 669.94,-1192.69 675.94,-1186.69 681.94,-1186.69 681.94,-1186.69 876.94,-1186.69 876.94,-1186.69 882.94,-1186.69 888.94,-1192.69 888.94,-1198.69 888.94,-1198.69 888.94,-1210.69 888.94,-1210.69 888.94,-1216.69 882.94,-1222.69 876.94,-1222.69"/>
<text text-anchor="middle" x="779.44" y="-1200.99" font-family="Helvetica,sans-Serif" font-size="14.00">DgsConvertToEnergyTransfer</text>
</g>
<!-- absUSWS&#45;&gt;DgsConvertToEnergyTransfer -->
<g id="edge6" class="edge">
<title>absUSWS&#45;&gt;DgsConvertToEnergyTransfer</title>
<path fill="none" stroke="black" d="M432.92,-1288.18C453.68,-1278.23 478.85,-1267.21 502.44,-1259.69 532.66,-1250.06 603.17,-1236.36 665.48,-1225.17"/>
<polygon fill="black" stroke="black" points="665.89,-1228.65 675.12,-1223.45 664.66,-1221.76 665.89,-1228.65"/>
</g>
<!-- absUMWS -->
<g id="node3" class="node">
<title>absUMWS</title>
<ellipse fill="khaki" stroke="black" cx="207.44" cy="-648.87" rx="94.51" ry="26.74"/>
<text text-anchor="middle" x="207.44" y="-652.67" font-family="Helvetica,sans-Serif" font-size="14.00">Absolute Units</text>
<text text-anchor="middle" x="207.44" y="-637.67" font-family="Helvetica,sans-Serif" font-size="14.00">Mask Workspace</text>
</g>
<!-- detDiagParam -->
<g id="node4" class="node">
<title>detDiagParam</title>
<ellipse fill="khaki" stroke="black" cx="207.44" cy="-966.22" rx="67.76" ry="37.45"/>
<text text-anchor="middle" x="207.44" y="-977.52" font-family="Helvetica,sans-Serif" font-size="14.00">Detector</text>
<text text-anchor="middle" x="207.44" y="-962.52" font-family="Helvetica,sans-Serif" font-size="14.00">Diagnostic</text>
<text text-anchor="middle" x="207.44" y="-947.52" font-family="Helvetica,sans-Serif" font-size="14.00">Parameters</text>
</g>
<!-- DetectorDiagnostic -->
<g id="node23" class="node">
<title>DetectorDiagnostic</title>
<path fill="lightskyblue" stroke="black" d="M281.94,-891.74C281.94,-891.74 156.94,-891.74 156.94,-891.74 150.94,-891.74 144.94,-885.74 144.94,-879.74 144.94,-879.74 144.94,-867.74 144.94,-867.74 144.94,-861.74 150.94,-855.74 156.94,-855.74 156.94,-855.74 281.94,-855.74 281.94,-855.74 287.94,-855.74 293.94,-861.74 293.94,-867.74 293.94,-867.74 293.94,-879.74 293.94,-879.74 293.94,-885.74 287.94,-891.74 281.94,-891.74"/>
<text text-anchor="middle" x="219.44" y="-870.04" font-family="Helvetica,sans-Serif" font-size="14.00">DetectorDiagnostic</text>
</g>
<!-- detDiagParam&#45;&gt;DetectorDiagnostic -->
<g id="edge17" class="edge">
<title>detDiagParam&#45;&gt;DetectorDiagnostic</title>
<path fill="none" stroke="black" d="M212.32,-928.42C213.42,-920.1 214.58,-911.39 215.63,-903.46"/>
<polygon fill="black" stroke="black" points="219.08,-904.06 216.93,-893.69 212.14,-903.14 219.08,-904.06"/>
</g>
<!-- AbsUnitsIncidentEnergy -->
<g id="node5" class="node">
<title>AbsUnitsIncidentEnergy</title>
<ellipse fill="khaki" stroke="black" cx="631.44" cy="-1312.69" rx="120.48" ry="18"/>
<text text-anchor="middle" x="631.44" y="-1308.99" font-family="Helvetica,sans-Serif" font-size="14.00">AbsUnitsIncidentEnergy</text>
</g>
<!-- AbsUnitsIncidentEnergy&#45;&gt;DgsConvertToEnergyTransfer -->
<g id="edge7" class="edge">
<title>AbsUnitsIncidentEnergy&#45;&gt;DgsConvertToEnergyTransfer</title>
<path fill="none" stroke="black" d="M655.22,-1294.66C679.78,-1277.07 718.31,-1249.47 745.95,-1229.68"/>
<polygon fill="black" stroke="black" points="747.91,-1232.58 754,-1223.92 743.83,-1226.89 747.91,-1232.58"/>
</g>
<!-- VanadiumMass -->
<g id="node6" class="node">
<title>VanadiumMass</title>
<ellipse fill="khaki" stroke="black" cx="395.44" cy="-1204.69" rx="79.09" ry="18"/>
<text text-anchor="middle" x="395.44" y="-1200.99" font-family="Helvetica,sans-Serif" font-size="14.00">VanadiumMass</text>
</g>
<!-- Divide -->
<g id="node20" class="node">
<title>Divide</title>
<path fill="lightskyblue" stroke="black" d="M590.44,-1149.69C590.44,-1149.69 554.44,-1149.69 554.44,-1149.69 548.44,-1149.69 542.44,-1143.69 542.44,-1137.69 542.44,-1137.69 542.44,-1125.69 542.44,-1125.69 542.44,-1119.69 548.44,-1113.69 554.44,-1113.69 554.44,-1113.69 590.44,-1113.69 590.44,-1113.69 596.44,-1113.69 602.44,-1119.69 602.44,-1125.69 602.44,-1125.69 602.44,-1137.69 602.44,-1137.69 602.44,-1143.69 596.44,-1149.69 590.44,-1149.69"/>
<text text-anchor="middle" x="572.44" y="-1127.99" font-family="Helvetica,sans-Serif" font-size="14.00">Divide</text>
</g>
<!-- VanadiumMass&#45;&gt;Divide -->
<g id="edge10" class="edge">
<title>VanadiumMass&#45;&gt;Divide</title>
<path fill="none" stroke="black" d="M434.86,-1188.73C460.28,-1178.97 494.25,-1165.75 532.04,-1150.21"/>
<polygon fill="black" stroke="black" points="532.95,-1153.62 540.85,-1146.56 530.28,-1147.15 532.95,-1153.62"/>
</g>
<!-- VanadiumRmm -->
<g id="node7" class="node">
<title>VanadiumRmm</title>
<ellipse fill="khaki" stroke="black" cx="572.44" cy="-1204.69" rx="79.89" ry="18"/>
<text text-anchor="middle" x="572.44" y="-1200.99" font-family="Helvetica,sans-Serif" font-size="14.00">VanadiumRmm</text>
</g>
<!-- VanadiumRmm&#45;&gt;Divide -->
<g id="edge11" class="edge">
<title>VanadiumRmm&#45;&gt;Divide</title>
<path fill="none" stroke="black" d="M572.44,-1186.51C572.44,-1178.92 572.44,-1169.79 572.44,-1161.23"/>
<polygon fill="black" stroke="black" points="575.94,-1161.24 572.44,-1151.24 568.94,-1161.24 575.94,-1161.24"/>
</g>
<!-- AbsUnitsMinimumEnergy -->
<g id="node8" class="node">
<title>AbsUnitsMinimumEnergy</title>
<ellipse fill="khaki" stroke="black" cx="125.44" cy="-1131.69" rx="125.38" ry="18"/>
<text text-anchor="middle" x="125.44" y="-1127.99" font-family="Helvetica,sans-Serif" font-size="14.00">AbsUnitsMinimumEnergy</text>
</g>
<!-- Rebin -->
<g id="node21" class="node">
<title>Rebin</title>
<path fill="lightskyblue" stroke="black" d="M467.94,-1076.69C467.94,-1076.69 324.94,-1076.69 324.94,-1076.69 318.94,-1076.69 312.94,-1070.69 312.94,-1064.69 312.94,-1064.69 312.94,-1052.69 312.94,-1052.69 312.94,-1046.69 318.94,-1040.69 324.94,-1040.69 324.94,-1040.69 467.94,-1040.69 467.94,-1040.69 473.94,-1040.69 479.94,-1046.69 479.94,-1052.69 479.94,-1052.69 479.94,-1064.69 479.94,-1064.69 479.94,-1070.69 473.94,-1076.69 467.94,-1076.69"/>
<text text-anchor="middle" x="396.44" y="-1054.99" font-family="Helvetica,sans-Serif" font-size="14.00">Rebin (as integration)</text>
</g>
<!-- AbsUnitsMinimumEnergy&#45;&gt;Rebin -->
<g id="edge13" class="edge">
<title>AbsUnitsMinimumEnergy&#45;&gt;Rebin</title>
<path fill="none" stroke="black" d="M183.91,-1115.37C223.41,-1105.02 276,-1091.25 318.98,-1079.99"/>
<polygon fill="black" stroke="black" points="319.72,-1083.41 328.51,-1077.49 317.95,-1076.64 319.72,-1083.41"/>
</g>
<!-- AbsUnitsMaximumEnergy -->
<g id="node9" class="node">
<title>AbsUnitsMaximumEnergy</title>
<ellipse fill="khaki" stroke="black" cx="396.44" cy="-1131.69" rx="128.08" ry="18"/>
<text text-anchor="middle" x="396.44" y="-1127.99" font-family="Helvetica,sans-Serif" font-size="14.00">AbsUnitsMaximumEnergy</text>
</g>
<!-- AbsUnitsMaximumEnergy&#45;&gt;Rebin -->
<g id="edge14" class="edge">
<title>AbsUnitsMaximumEnergy&#45;&gt;Rebin</title>
<path fill="none" stroke="black" d="M396.44,-1113.51C396.44,-1105.92 396.44,-1096.79 396.44,-1088.23"/>
<polygon fill="black" stroke="black" points="399.94,-1088.24 396.44,-1078.24 392.94,-1088.24 399.94,-1088.24"/>
</g>
<!-- MaskWorkspace -->
<g id="node10" class="node">
<title>MaskWorkspace</title>
<ellipse fill="khaki" stroke="black" cx="880.44" cy="-1513.17" rx="83.69" ry="18"/>
<text text-anchor="middle" x="880.44" y="-1509.47" font-family="Helvetica,sans-Serif" font-size="14.00">MaskWorkspace</text>
</g>
<!-- MaskWorkspace&#45;&gt;DgsProcessDetectorVanadium -->
<g id="edge3" class="edge">
<title>MaskWorkspace&#45;&gt;DgsProcessDetectorVanadium</title>
<path fill="none" stroke="black" d="M923.04,-1497.23C965.27,-1482.42 1030.35,-1459.6 1077.92,-1442.92"/>
<polygon fill="black" stroke="black" points="1079,-1446.25 1087.28,-1439.64 1076.68,-1439.64 1079,-1446.25"/>
</g>
<!-- MaskWorkspace&#45;&gt;DgsConvertToEnergyTransfer -->
<g id="edge2" class="edge">
<title>MaskWorkspace&#45;&gt;DgsConvertToEnergyTransfer</title>
<path fill="none" stroke="black" d="M867.96,-1495.17C849.36,-1468.89 814.84,-1416.14 798.44,-1365.69 784.02,-1321.35 780.33,-1266.91 779.5,-1234.33"/>
<polygon fill="black" stroke="black" points="783,-1234.43 779.33,-1224.49 776,-1234.55 783,-1234.43"/>
</g>
<!-- GroupingWorkspace -->
<g id="node11" class="node">
<title>GroupingWorkspace</title>
<ellipse fill="khaki" stroke="black" cx="909.44" cy="-1312.69" rx="102.08" ry="18"/>
<text text-anchor="middle" x="909.44" y="-1308.99" font-family="Helvetica,sans-Serif" font-size="14.00">GroupingWorkspace</text>
</g>
<!-- GroupingWorkspace&#45;&gt;DgsConvertToEnergyTransfer -->
<g id="edge5" class="edge">
<title>GroupingWorkspace&#45;&gt;DgsConvertToEnergyTransfer</title>
<path fill="none" stroke="black" d="M888.55,-1294.66C867.17,-1277.23 833.72,-1249.96 809.5,-1230.2"/>
<polygon fill="black" stroke="black" points="811.84,-1227.6 801.88,-1223.99 807.42,-1233.02 811.84,-1227.6"/>
</g>
<!-- OutputWorkspace -->
<g id="node12" class="node">
<title>OutputWorkspace</title>
<ellipse fill="khaki" stroke="black" cx="429.44" cy="-18" rx="92.08" ry="18"/>
<text text-anchor="middle" x="429.44" y="-14.3" font-family="Helvetica,sans-Serif" font-size="14.00">OutputWorkspace</text>
</g>
<!-- isIAUDV -->
<g id="node13" class="node">
<title>isIAUDV</title>
<polygon fill="limegreen" stroke="black" points="379.44,-409 221.44,-356 379.44,-303 537.44,-356 379.44,-409"/>
<text text-anchor="middle" x="379.44" y="-367.3" font-family="Helvetica,sans-Serif" font-size="14.00">Is Integrated</text>
<text text-anchor="middle" x="379.44" y="-352.3" font-family="Helvetica,sans-Serif" font-size="14.00">Absolute Units</text>
<text text-anchor="middle" x="379.44" y="-337.3" font-family="Helvetica,sans-Serif" font-size="14.00">Detector Vanadium?</text>
</g>
<!-- pauw -->
<g id="node15" class="node">
<title>pauw</title>
<polygon fill="grey" stroke="black" points="591.41,-149 333.75,-149 267.47,-73 525.13,-73 591.41,-149"/>
<text text-anchor="middle" x="429.44" y="-114.8" font-family="Times,serif" font-size="14.00">Processed Absolute</text>
<text text-anchor="middle" x="429.44" y="-99.8" font-family="Times,serif" font-size="14.00">Units Workspace</text>
</g>
<!-- isIAUDV&#45;&gt;pauw -->
<g id="edge26" class="edge">
<title>isIAUDV&#45;&gt;pauw</title>
<path fill="none" stroke="black" d="M391.58,-306.8C395.56,-290.41 399.87,-271.95 403.44,-255 410.05,-223.64 416.5,-188.2 421.32,-160.45"/>
<polygon fill="black" stroke="black" points="424.71,-161.39 422.96,-150.94 417.81,-160.2 424.71,-161.39"/>
<text text-anchor="middle" x="426.94" y="-200.3" font-family="Helvetica,sans-Serif" font-size="14.00">No</text>
</g>
<!-- Multiply -->
<g id="node27" class="node">
<title>Multiply</title>
<path fill="lightskyblue" stroke="black" d="M513.94,-222C513.94,-222 466.94,-222 466.94,-222 460.94,-222 454.94,-216 454.94,-210 454.94,-210 454.94,-198 454.94,-198 454.94,-192 460.94,-186 466.94,-186 466.94,-186 513.94,-186 513.94,-186 519.94,-186 525.94,-192 525.94,-198 525.94,-198 525.94,-210 525.94,-210 525.94,-216 519.94,-222 513.94,-222"/>
<text text-anchor="middle" x="490.44" y="-200.3" font-family="Helvetica,sans-Serif" font-size="14.00">Multiply</text>
</g>
<!-- isIAUDV&#45;&gt;Multiply -->
<g id="edge25" class="edge">
<title>isIAUDV&#45;&gt;Multiply</title>
<path fill="none" stroke="black" d="M410.36,-313.22C429.78,-286.97 454.23,-253.93 470.98,-231.3"/>
<polygon fill="black" stroke="black" points="473.61,-233.63 476.74,-223.51 467.98,-229.46 473.61,-233.63"/>
<text text-anchor="middle" x="475.94" y="-243.8" font-family="Helvetica,sans-Serif" font-size="14.00">Yes</text>
</g>
<!-- procSample -->
<g id="node14" class="node">
<title>procSample</title>
<polygon fill="grey" stroke="black" points="317.92,-818.74 161.26,-818.74 120.96,-712.74 277.62,-712.74 317.92,-818.74"/>
<text text-anchor="middle" x="219.44" y="-777.04" font-family="Times,serif" font-size="14.00">Processed</text>
<text text-anchor="middle" x="219.44" y="-762.04" font-family="Times,serif" font-size="14.00">Sample</text>
<text text-anchor="middle" x="219.44" y="-747.04" font-family="Times,serif" font-size="14.00">Workspace</text>
</g>
<!-- procSample&#45;&gt;absUMWS -->
<g id="edge19" class="edge">
<title>procSample&#45;&gt;absUMWS</title>
<path fill="none" stroke="black" d="M213.97,-712.35C213.08,-703.84 212.17,-695.18 211.33,-687.13"/>
<polygon fill="black" stroke="black" points="214.83,-686.95 210.31,-677.36 207.87,-687.67 214.83,-686.95"/>
</g>
<!-- MaskDetectors -->
<g id="node24" class="node">
<title>MaskDetectors</title>
<path fill="lightskyblue" stroke="black" d="M426.94,-666.87C426.94,-666.87 331.94,-666.87 331.94,-666.87 325.94,-666.87 319.94,-660.87 319.94,-654.87 319.94,-654.87 319.94,-642.87 319.94,-642.87 319.94,-636.87 325.94,-630.87 331.94,-630.87 331.94,-630.87 426.94,-630.87 426.94,-630.87 432.94,-630.87 438.94,-636.87 438.94,-642.87 438.94,-642.87 438.94,-654.87 438.94,-654.87 438.94,-660.87 432.94,-666.87 426.94,-666.87"/>
<text text-anchor="middle" x="379.44" y="-645.17" font-family="Helvetica,sans-Serif" font-size="14.00">MaskDetectors</text>
</g>
<!-- procSample&#45;&gt;MaskDetectors -->
<g id="edge20" class="edge">
<title>procSample&#45;&gt;MaskDetectors</title>
<path fill="none" stroke="black" d="M280.84,-720.66C302.9,-704.82 326.97,-687.54 345.8,-674.02"/>
<polygon fill="black" stroke="black" points="347.82,-676.88 353.9,-668.21 343.73,-671.2 347.82,-676.88"/>
</g>
<!-- pauw&#45;&gt;OutputWorkspace -->
<g id="edge28" class="edge">
<title>pauw&#45;&gt;OutputWorkspace</title>
<path fill="none" stroke="black" d="M429.44,-72.72C429.44,-64.38 429.44,-55.65 429.44,-47.72"/>
<polygon fill="black" stroke="black" points="432.94,-47.95 429.44,-37.95 425.94,-47.95 432.94,-47.95"/>
</g>
<!-- sampleCoeff -->
<g id="node16" class="node">
<title>sampleCoeff</title>
<polygon fill="grey" stroke="black" points="827.07,-439 611.31,-439 555.81,-273 771.57,-273 827.07,-439"/>
<text text-anchor="middle" x="691.44" y="-382.3" font-family="Times,serif" font-size="14.00">SampleMass</text>
<text text-anchor="middle" x="691.44" y="-367.3" font-family="Times,serif" font-size="14.00">divided by</text>
<text text-anchor="middle" x="691.44" y="-352.3" font-family="Times,serif" font-size="14.00">SampleRmm</text>
<text text-anchor="middle" x="691.44" y="-337.3" font-family="Times,serif" font-size="14.00">divided by</text>
<text text-anchor="middle" x="691.44" y="-322.3" font-family="Times,serif" font-size="14.00">Scattering XSec</text>
</g>
<!-- sampleCoeff&#45;&gt;Multiply -->
<g id="edge24" class="edge">
<title>sampleCoeff&#45;&gt;Multiply</title>
<path fill="none" stroke="black" d="M580.94,-272.54C559.59,-256.61 538.85,-241.13 522.62,-229.01"/>
<polygon fill="black" stroke="black" points="524.93,-226.37 514.83,-223.2 520.75,-231.98 524.93,-226.37"/>
</g>
<!-- IAUDV -->
<g id="node17" class="node">
<title>IAUDV</title>
<polygon fill="grey" stroke="black" points="1349.26,-1365.69 1095.02,-1365.69 1029.62,-1259.69 1283.86,-1259.69 1349.26,-1365.69"/>
<text text-anchor="middle" x="1189.44" y="-1323.99" font-family="Times,serif" font-size="14.00">Integrated</text>
<text text-anchor="middle" x="1189.44" y="-1308.99" font-family="Times,serif" font-size="14.00">Absolute Units</text>
<text text-anchor="middle" x="1189.44" y="-1293.99" font-family="Times,serif" font-size="14.00">Detector Vanadium</text>
</g>
<!-- IAUDV&#45;&gt;DgsConvertToEnergyTransfer -->
<g id="edge8" class="edge">
<title>IAUDV&#45;&gt;DgsConvertToEnergyTransfer</title>
<path fill="none" stroke="black" d="M1030.77,-1262.48C1027.3,-1261.53 1023.85,-1260.6 1020.44,-1259.69 973.16,-1247.14 920.16,-1235.06 875.93,-1225.51"/>
<polygon fill="black" stroke="black" points="876.87,-1222.13 866.36,-1223.46 875.4,-1228.98 876.87,-1222.13"/>
</g>
<!-- DgsProcessDetectorVanadium&#45;&gt;IAUDV -->
<g id="edge4" class="edge">
<title>DgsProcessDetectorVanadium&#45;&gt;IAUDV</title>
<path fill="none" stroke="black" d="M1146.63,-1402.66C1150.23,-1395.19 1154.69,-1385.92 1159.37,-1376.2"/>
<polygon fill="black" stroke="black" points="1162.45,-1377.86 1163.63,-1367.33 1156.14,-1374.83 1162.45,-1377.86"/>
</g>
<!-- DgsConvertToEnergyTransfer&#45;&gt;Divide -->
<g id="edge9" class="edge">
<title>DgsConvertToEnergyTransfer&#45;&gt;Divide</title>
<path fill="none" stroke="black" d="M728.54,-1186.23C693.15,-1174.1 646.6,-1158.13 613.56,-1146.8"/>
<polygon fill="black" stroke="black" points="614.94,-1143.57 604.35,-1143.64 612.67,-1150.19 614.94,-1143.57"/>
</g>
<!-- Divide&#45;&gt;Rebin -->
<g id="edge12" class="edge">
<title>Divide&#45;&gt;Rebin</title>
<path fill="none" stroke="black" d="M542.25,-1117.41C539.28,-1116.14 536.3,-1114.88 533.44,-1113.69 507.01,-1102.73 477.5,-1091.03 452.65,-1081.33"/>
<polygon fill="black" stroke="black" points="453.96,-1078.08 443.37,-1077.72 451.42,-1084.61 453.96,-1078.08"/>
</g>
<!-- ConvertToMatrixWorkspace -->
<g id="node22" class="node">
<title>ConvertToMatrixWorkspace</title>
<path fill="lightskyblue" stroke="black" d="M487.44,-984.22C487.44,-984.22 305.44,-984.22 305.44,-984.22 299.44,-984.22 293.44,-978.22 293.44,-972.22 293.44,-972.22 293.44,-960.22 293.44,-960.22 293.44,-954.22 299.44,-948.22 305.44,-948.22 305.44,-948.22 487.44,-948.22 487.44,-948.22 493.44,-948.22 499.44,-954.22 499.44,-960.22 499.44,-960.22 499.44,-972.22 499.44,-972.22 499.44,-978.22 493.44,-984.22 487.44,-984.22"/>
<text text-anchor="middle" x="396.44" y="-962.52" font-family="Helvetica,sans-Serif" font-size="14.00">ConvertToMatrixWorkspace</text>
</g>
<!-- Rebin&#45;&gt;ConvertToMatrixWorkspace -->
<g id="edge15" class="edge">
<title>Rebin&#45;&gt;ConvertToMatrixWorkspace</title>
<path fill="none" stroke="black" d="M396.44,-1040.25C396.44,-1027.73 396.44,-1010.58 396.44,-996.04"/>
<polygon fill="black" stroke="black" points="399.94,-996.12 396.44,-986.12 392.94,-996.12 399.94,-996.12"/>
</g>
<!-- ConvertToMatrixWorkspace&#45;&gt;DetectorDiagnostic -->
<g id="edge16" class="edge">
<title>ConvertToMatrixWorkspace&#45;&gt;DetectorDiagnostic</title>
<path fill="none" stroke="black" d="M362.31,-947.77C334.15,-933.38 294,-912.85 263.43,-897.23"/>
<polygon fill="black" stroke="black" points="265.31,-894.26 254.81,-892.82 262.12,-900.49 265.31,-894.26"/>
</g>
<!-- DetectorDiagnostic&#45;&gt;procSample -->
<g id="edge18" class="edge">
<title>DetectorDiagnostic&#45;&gt;procSample</title>
<path fill="none" stroke="black" d="M219.44,-855.71C219.44,-848.55 219.44,-839.74 219.44,-830.47"/>
<polygon fill="black" stroke="black" points="222.94,-830.53 219.44,-820.53 215.94,-830.53 222.94,-830.53"/>
</g>
<!-- ConvertFromDistribution -->
<g id="node25" class="node">
<title>ConvertFromDistribution</title>
<path fill="lightskyblue" stroke="black" d="M460.94,-585C460.94,-585 297.94,-585 297.94,-585 291.94,-585 285.94,-579 285.94,-573 285.94,-573 285.94,-561 285.94,-561 285.94,-555 291.94,-549 297.94,-549 297.94,-549 460.94,-549 460.94,-549 466.94,-549 472.94,-555 472.94,-561 472.94,-561 472.94,-573 472.94,-573 472.94,-579 466.94,-585 460.94,-585"/>
<text text-anchor="middle" x="379.44" y="-563.3" font-family="Helvetica,sans-Serif" font-size="14.00">ConvertFromDistribution</text>
</g>
<!-- MaskDetectors&#45;&gt;ConvertFromDistribution -->
<g id="edge21" class="edge">
<title>MaskDetectors&#45;&gt;ConvertFromDistribution</title>
<path fill="none" stroke="black" d="M379.44,-630.54C379.44,-620.6 379.44,-607.87 379.44,-596.49"/>
<polygon fill="black" stroke="black" points="382.94,-596.81 379.44,-586.81 375.94,-596.81 382.94,-596.81"/>
</g>
<!-- WeightedMeanOfWorkspace -->
<g id="node26" class="node">
<title>WeightedMeanOfWorkspace</title>
<path fill="lightskyblue" stroke="black" d="M473.94,-512C473.94,-512 284.94,-512 284.94,-512 278.94,-512 272.94,-506 272.94,-500 272.94,-500 272.94,-488 272.94,-488 272.94,-482 278.94,-476 284.94,-476 284.94,-476 473.94,-476 473.94,-476 479.94,-476 485.94,-482 485.94,-488 485.94,-488 485.94,-500 485.94,-500 485.94,-506 479.94,-512 473.94,-512"/>
<text text-anchor="middle" x="379.44" y="-490.3" font-family="Helvetica,sans-Serif" font-size="14.00">WeightedMeanOfWorkspace</text>
</g>
<!-- ConvertFromDistribution&#45;&gt;WeightedMeanOfWorkspace -->
<g id="edge22" class="edge">
<title>ConvertFromDistribution&#45;&gt;WeightedMeanOfWorkspace</title>
<path fill="none" stroke="black" d="M379.44,-548.81C379.44,-541.23 379.44,-532.1 379.44,-523.54"/>
<polygon fill="black" stroke="black" points="382.94,-523.54 379.44,-513.54 375.94,-523.54 382.94,-523.54"/>
</g>
<!-- WeightedMeanOfWorkspace&#45;&gt;isIAUDV -->
<g id="edge23" class="edge">
<title>WeightedMeanOfWorkspace&#45;&gt;isIAUDV</title>
<path fill="none" stroke="black" d="M379.44,-475.78C379.44,-461.73 379.44,-440.97 379.44,-420.71"/>
<polygon fill="black" stroke="black" points="382.94,-420.75 379.44,-410.75 375.94,-420.75 382.94,-420.75"/>
</g>
<!-- Multiply&#45;&gt;pauw -->
<g id="edge27" class="edge">
<title>Multiply&#45;&gt;pauw</title>
<path fill="none" stroke="black" d="M478.97,-185.88C473.73,-178.08 467.26,-168.42 460.74,-158.69"/>
<polygon fill="black" stroke="black" points="463.83,-157.01 455.35,-150.66 458.01,-160.91 463.83,-157.01"/>
</g>
</g>
</svg>
