<?xml version="1.0" encoding="UTF-8" standalone="no"?>
<!DOCTYPE svg PUBLIC "-//W3C//DTD SVG 1.1//EN"
 "http://www.w3.org/Graphics/SVG/1.1/DTD/svg11.dtd">
<!-- Generated by graphviz version 7.1.0 (20230122.1345)
 -->
<!-- Title: Sample Pages: 1 -->
<svg width="662pt" height="1340pt"
 viewBox="0.00 0.00 662.12 1340.00" xmlns="http://www.w3.org/2000/svg" xmlns:xlink="http://www.w3.org/1999/xlink">
<g id="graph0" class="graph" transform="scale(1 1) rotate(0) translate(4 1336)">
<title>Sample</title>
<polygon fill="white" stroke="none" points="-4,4 -4,-1336 658.12,-1336 658.12,4 -4,4"/>
<!-- Mask -->
<g id="node1" class="node">
<title>Mask</title>
<polygon fill="limegreen" stroke="black" points="549.89,-1188 500.96,-1170 549.89,-1152 598.82,-1170 549.89,-1188"/>
<text text-anchor="middle" x="549.89" y="-1166.3" font-family="Helvetica,sans-Serif" font-size="14.00">Mask</text>
</g>
<!-- MaskDetectors -->
<g id="node11" class="node">
<title>MaskDetectors</title>
<path fill="lightskyblue" stroke="black" d="M553.39,-1116C553.39,-1116 458.39,-1116 458.39,-1116 452.39,-1116 446.39,-1110 446.39,-1104 446.39,-1104 446.39,-1092 446.39,-1092 446.39,-1086 452.39,-1080 458.39,-1080 458.39,-1080 553.39,-1080 553.39,-1080 559.39,-1080 565.39,-1086 565.39,-1092 565.39,-1092 565.39,-1104 565.39,-1104 565.39,-1110 559.39,-1116 553.39,-1116"/>
<text text-anchor="middle" x="505.89" y="-1094.3" font-family="Helvetica,sans-Serif" font-size="14.00">MaskDetectors</text>
</g>
<!-- Mask&#45;&gt;MaskDetectors -->
<g id="edge6" class="edge">
<title>Mask&#45;&gt;MaskDetectors</title>
<path fill="none" stroke="black" d="M540.98,-1154.83C535.75,-1146.5 528.96,-1135.7 522.74,-1125.82"/>
<polygon fill="black" stroke="black" points="525.9,-1124.25 517.61,-1117.65 519.97,-1127.98 525.9,-1124.25"/>
</g>
<!-- Minus -->
<g id="node15" class="node">
<title>Minus</title>
<path fill="lightskyblue" stroke="black" d="M522.89,-1044C522.89,-1044 488.89,-1044 488.89,-1044 482.89,-1044 476.89,-1038 476.89,-1032 476.89,-1032 476.89,-1020 476.89,-1020 476.89,-1014 482.89,-1008 488.89,-1008 488.89,-1008 522.89,-1008 522.89,-1008 528.89,-1008 534.89,-1014 534.89,-1020 534.89,-1020 534.89,-1032 534.89,-1032 534.89,-1038 528.89,-1044 522.89,-1044"/>
<text text-anchor="middle" x="505.89" y="-1022.3" font-family="Helvetica,sans-Serif" font-size="14.00">Minus</text>
</g>
<!-- Mask&#45;&gt;Minus -->
<g id="edge8" class="edge">
<title>Mask&#45;&gt;Minus</title>
<path fill="none" stroke="black" d="M559.46,-1155.16C570.63,-1137.14 586.11,-1105.02 573.89,-1080 567.51,-1066.95 556.2,-1056.17 544.6,-1047.83"/>
<polygon fill="black" stroke="black" points="546.86,-1045.12 536.6,-1042.5 542.98,-1050.95 546.86,-1045.12"/>
</g>
<!-- SelfAttenuation -->
<g id="node2" class="node">
<title>SelfAttenuation</title>
<polygon fill="limegreen" stroke="black" points="505.89,-972 391.94,-954 505.89,-936 619.84,-954 505.89,-972"/>
<text text-anchor="middle" x="505.89" y="-950.3" font-family="Helvetica,sans-Serif" font-size="14.00">SelfAttenuation</text>
</g>
<!-- PaalmanPingsMonteCarloAbsorption -->
<g id="node12" class="node">
<title>PaalmanPingsMonteCarloAbsorption</title>
<path fill="lightskyblue" stroke="black" d="M627.89,-900C627.89,-900 383.89,-900 383.89,-900 377.89,-900 371.89,-894 371.89,-888 371.89,-888 371.89,-876 371.89,-876 371.89,-870 377.89,-864 383.89,-864 383.89,-864 627.89,-864 627.89,-864 633.89,-864 639.89,-870 639.89,-876 639.89,-876 639.89,-888 639.89,-888 639.89,-894 633.89,-900 627.89,-900"/>
<text text-anchor="middle" x="505.89" y="-878.3" font-family="Helvetica,sans-Serif" font-size="14.00">PaalmanPingsMonteCarloAbsorption</text>
</g>
<!-- SelfAttenuation&#45;&gt;PaalmanPingsMonteCarloAbsorption -->
<g id="edge12" class="edge">
<title>SelfAttenuation&#45;&gt;PaalmanPingsMonteCarloAbsorption</title>
<path fill="none" stroke="black" d="M505.89,-935.7C505.89,-928.41 505.89,-919.73 505.89,-911.54"/>
<polygon fill="black" stroke="black" points="509.39,-911.62 505.89,-901.62 502.39,-911.62 509.39,-911.62"/>
</g>
<!-- PaalmanPingsAbsorptionCorrection -->
<g id="node13" class="node">
<title>PaalmanPingsAbsorptionCorrection</title>
<path fill="lightskyblue" stroke="black" d="M341.89,-900C341.89,-900 105.89,-900 105.89,-900 99.89,-900 93.89,-894 93.89,-888 93.89,-888 93.89,-876 93.89,-876 93.89,-870 99.89,-864 105.89,-864 105.89,-864 341.89,-864 341.89,-864 347.89,-864 353.89,-870 353.89,-876 353.89,-876 353.89,-888 353.89,-888 353.89,-894 347.89,-900 341.89,-900"/>
<text text-anchor="middle" x="223.89" y="-878.3" font-family="Helvetica,sans-Serif" font-size="14.00">PaalmanPingsAbsorptionCorrection</text>
</g>
<!-- SelfAttenuation&#45;&gt;PaalmanPingsAbsorptionCorrection -->
<g id="edge11" class="edge">
<title>SelfAttenuation&#45;&gt;PaalmanPingsAbsorptionCorrection</title>
<path fill="none" stroke="black" d="M463.06,-942.37C421.36,-932.02 356.92,-916.02 305.43,-903.24"/>
<polygon fill="black" stroke="black" points="306.33,-899.86 295.78,-900.85 304.65,-906.65 306.33,-899.86"/>
</g>
<!-- Divide -->
<g id="node17" class="node">
<title>Divide</title>
<path fill="lightskyblue" stroke="black" d="M523.89,-756C523.89,-756 487.89,-756 487.89,-756 481.89,-756 475.89,-750 475.89,-744 475.89,-744 475.89,-732 475.89,-732 475.89,-726 481.89,-720 487.89,-720 487.89,-720 523.89,-720 523.89,-720 529.89,-720 535.89,-726 535.89,-732 535.89,-732 535.89,-744 535.89,-744 535.89,-750 529.89,-756 523.89,-756"/>
<text text-anchor="middle" x="505.89" y="-734.3" font-family="Helvetica,sans-Serif" font-size="14.00">Divide</text>
</g>
<!-- SelfAttenuation&#45;&gt;Divide -->
<g id="edge16" class="edge">
<title>SelfAttenuation&#45;&gt;Divide</title>
<path fill="none" stroke="black" d="M570.19,-945.76C599.27,-938.91 631.04,-925.64 648.89,-900 667.05,-873.9 630.86,-796.47 626.89,-792 606.14,-768.69 573.27,-755.19 547.02,-747.65"/>
<polygon fill="black" stroke="black" points="548.26,-744.36 537.69,-745.16 546.45,-751.12 548.26,-744.36"/>
</g>
<!-- RebinData -->
<g id="node3" class="node">
<title>RebinData</title>
<polygon fill="limegreen" stroke="black" points="505.89,-468 424.28,-450 505.89,-432 587.5,-450 505.89,-468"/>
<text text-anchor="middle" x="505.89" y="-446.3" font-family="Helvetica,sans-Serif" font-size="14.00">RebinData</text>
</g>
<!-- Group -->
<g id="node4" class="node">
<title>Group</title>
<polygon fill="limegreen" stroke="black" points="505.89,-324 451.43,-306 505.89,-288 560.35,-306 505.89,-324"/>
<text text-anchor="middle" x="505.89" y="-302.3" font-family="Helvetica,sans-Serif" font-size="14.00">Group</text>
</g>
<!-- RebinData&#45;&gt;Group -->
<g id="edge24" class="edge">
<title>RebinData&#45;&gt;Group</title>
<path fill="none" stroke="black" d="M509.45,-432.38C511.49,-421.98 513.85,-408.28 514.89,-396 516.23,-380.06 516.23,-375.94 514.89,-360 514.18,-351.63 512.86,-342.59 511.44,-334.39"/>
<polygon fill="black" stroke="black" points="514.9,-333.83 509.63,-324.64 508.02,-335.11 514.9,-333.83"/>
</g>
<!-- Rebin -->
<g id="node21" class="node">
<title>Rebin</title>
<path fill="lightskyblue" stroke="black" d="M493.89,-396C493.89,-396 461.89,-396 461.89,-396 455.89,-396 449.89,-390 449.89,-384 449.89,-384 449.89,-372 449.89,-372 449.89,-366 455.89,-360 461.89,-360 461.89,-360 493.89,-360 493.89,-360 499.89,-360 505.89,-366 505.89,-372 505.89,-372 505.89,-384 505.89,-384 505.89,-390 499.89,-396 493.89,-396"/>
<text text-anchor="middle" x="477.89" y="-374.3" font-family="Helvetica,sans-Serif" font-size="14.00">Rebin</text>
</g>
<!-- RebinData&#45;&gt;Rebin -->
<g id="edge22" class="edge">
<title>RebinData&#45;&gt;Rebin</title>
<path fill="none" stroke="black" d="M499.53,-433.12C496.41,-425.32 492.56,-415.69 488.98,-406.73"/>
<polygon fill="black" stroke="black" points="492.33,-405.68 485.37,-397.7 485.83,-408.28 492.33,-405.68"/>
</g>
<!-- Save -->
<g id="node5" class="node">
<title>Save</title>
<polygon fill="limegreen" stroke="black" points="505.89,-180 459.97,-162 505.89,-144 551.8,-162 505.89,-180"/>
<text text-anchor="middle" x="505.89" y="-158.3" font-family="Helvetica,sans-Serif" font-size="14.00">Save</text>
</g>
<!-- Group&#45;&gt;Save -->
<g id="edge26" class="edge">
<title>Group&#45;&gt;Save</title>
<path fill="none" stroke="black" d="M515.07,-290.83C521.17,-280.52 528.64,-265.98 531.89,-252 535.51,-236.41 535.51,-231.59 531.89,-216 529.55,-205.92 525.01,-195.55 520.37,-186.68"/>
<polygon fill="black" stroke="black" points="523.48,-185.07 515.55,-178.06 517.37,-188.49 523.48,-185.07"/>
</g>
<!-- GroupDetectors -->
<g id="node23" class="node">
<title>GroupDetectors</title>
<path fill="lightskyblue" stroke="black" d="M511.39,-252C511.39,-252 410.39,-252 410.39,-252 404.39,-252 398.39,-246 398.39,-240 398.39,-240 398.39,-228 398.39,-228 398.39,-222 404.39,-216 410.39,-216 410.39,-216 511.39,-216 511.39,-216 517.39,-216 523.39,-222 523.39,-228 523.39,-228 523.39,-240 523.39,-240 523.39,-246 517.39,-252 511.39,-252"/>
<text text-anchor="middle" x="460.89" y="-230.3" font-family="Helvetica,sans-Serif" font-size="14.00">GroupDetectors</text>
</g>
<!-- Group&#45;&gt;GroupDetectors -->
<g id="edge25" class="edge">
<title>Group&#45;&gt;GroupDetectors</title>
<path fill="none" stroke="black" d="M496.78,-290.83C491.43,-282.5 484.48,-271.7 478.13,-261.82"/>
<polygon fill="black" stroke="black" points="481.22,-260.16 472.87,-253.64 475.34,-263.95 481.22,-260.16"/>
</g>
<!-- OutputWorkspace -->
<g id="node9" class="node">
<title>OutputWorkspace</title>
<polygon fill="grey" stroke="black" points="644.24,-36 424.15,-36 367.54,0 587.62,0 644.24,-36"/>
<text text-anchor="middle" x="505.89" y="-14.3" font-family="Times,serif" font-size="14.00">OutputWorkspace</text>
</g>
<!-- Save&#45;&gt;OutputWorkspace -->
<g id="edge30" class="edge">
<title>Save&#45;&gt;OutputWorkspace</title>
<path fill="none" stroke="black" d="M512.61,-146.52C517.08,-136.07 522.54,-121.48 524.89,-108 527.63,-92.24 527.63,-87.76 524.89,-72 523.43,-63.62 520.77,-54.82 517.89,-46.84"/>
<polygon fill="black" stroke="black" points="521.21,-45.72 514.33,-37.67 514.69,-48.25 521.21,-45.72"/>
</g>
<!-- SaveOutput -->
<g id="node22" class="node">
<title>SaveOutput</title>
<path fill="lightskyblue" stroke="black" d="M504.39,-108C504.39,-108 429.39,-108 429.39,-108 423.39,-108 417.39,-102 417.39,-96 417.39,-96 417.39,-84 417.39,-84 417.39,-78 423.39,-72 429.39,-72 429.39,-72 504.39,-72 504.39,-72 510.39,-72 516.39,-78 516.39,-84 516.39,-84 516.39,-96 516.39,-96 516.39,-102 510.39,-108 504.39,-108"/>
<text text-anchor="middle" x="466.89" y="-86.3" font-family="Helvetica,sans-Serif" font-size="14.00">SaveOutput</text>
</g>
<!-- Save&#45;&gt;SaveOutput -->
<g id="edge28" class="edge">
<title>Save&#45;&gt;SaveOutput</title>
<path fill="none" stroke="black" d="M498,-146.83C493.4,-138.59 487.46,-127.93 482,-118.13"/>
<polygon fill="black" stroke="black" points="485.23,-116.72 477.3,-109.69 479.11,-120.13 485.23,-116.72"/>
</g>
<!-- Runs -->
<g id="node6" class="node">
<title>Runs</title>
<ellipse fill="khaki" stroke="black" cx="549.89" cy="-1314" rx="33.29" ry="18"/>
<text text-anchor="middle" x="549.89" y="-1310.3" font-family="Helvetica,sans-Serif" font-size="14.00">Runs</text>
</g>
<!-- DirectILLCollectData -->
<g id="node10" class="node">
<title>DirectILLCollectData</title>
<path fill="lightskyblue" stroke="black" d="M615.39,-1260C615.39,-1260 484.39,-1260 484.39,-1260 478.39,-1260 472.39,-1254 472.39,-1248 472.39,-1248 472.39,-1236 472.39,-1236 472.39,-1230 478.39,-1224 484.39,-1224 484.39,-1224 615.39,-1224 615.39,-1224 621.39,-1224 627.39,-1230 627.39,-1236 627.39,-1236 627.39,-1248 627.39,-1248 627.39,-1254 621.39,-1260 615.39,-1260"/>
<text text-anchor="middle" x="549.89" y="-1238.3" font-family="Helvetica,sans-Serif" font-size="14.00">DirectILLCollectData</text>
</g>
<!-- Runs&#45;&gt;DirectILLCollectData -->
<g id="edge1" class="edge">
<title>Runs&#45;&gt;DirectILLCollectData</title>
<path fill="none" stroke="black" d="M549.89,-1295.7C549.89,-1288.41 549.89,-1279.73 549.89,-1271.54"/>
<polygon fill="black" stroke="black" points="553.39,-1271.62 549.89,-1261.62 546.39,-1271.62 553.39,-1271.62"/>
</g>
<!-- EmptyContainerWorkspace -->
<g id="node7" class="node">
<title>EmptyContainerWorkspace</title>
<ellipse fill="khaki" stroke="black" cx="133.89" cy="-1098" rx="133.78" ry="18"/>
<text text-anchor="middle" x="133.89" y="-1094.3" font-family="Helvetica,sans-Serif" font-size="14.00">EmptyContainerWorkspace</text>
</g>
<!-- EmptyContainerWorkspace&#45;&gt;Minus -->
<g id="edge9" class="edge">
<title>EmptyContainerWorkspace&#45;&gt;Minus</title>
<path fill="none" stroke="black" d="M209.62,-1082.75C287.05,-1068.18 404.39,-1046.1 465.57,-1034.59"/>
<polygon fill="black" stroke="black" points="466.01,-1038.07 475.19,-1032.78 464.71,-1031.19 466.01,-1038.07"/>
</g>
<!-- VanadiumWorkspace -->
<g id="node8" class="node">
<title>VanadiumWorkspace</title>
<ellipse fill="khaki" stroke="black" cx="269.89" cy="-810" rx="105.88" ry="18"/>
<text text-anchor="middle" x="269.89" y="-806.3" font-family="Helvetica,sans-Serif" font-size="14.00">VanadiumWorkspace</text>
</g>
<!-- VanadiumWorkspace&#45;&gt;Divide -->
<g id="edge17" class="edge">
<title>VanadiumWorkspace&#45;&gt;Divide</title>
<path fill="none" stroke="black" d="M321.1,-793.81C364.13,-781.05 424.83,-763.04 464.75,-751.2"/>
<polygon fill="black" stroke="black" points="465.63,-754.59 474.23,-748.39 463.64,-747.88 465.63,-754.59"/>
</g>
<!-- DirectILLCollectData&#45;&gt;Mask -->
<g id="edge2" class="edge">
<title>DirectILLCollectData&#45;&gt;Mask</title>
<path fill="none" stroke="black" d="M549.89,-1223.7C549.89,-1216.41 549.89,-1207.73 549.89,-1199.54"/>
<polygon fill="black" stroke="black" points="553.39,-1199.62 549.89,-1189.62 546.39,-1199.62 553.39,-1199.62"/>
</g>
<!-- MaskDetectors&#45;&gt;Minus -->
<g id="edge7" class="edge">
<title>MaskDetectors&#45;&gt;Minus</title>
<path fill="none" stroke="black" d="M505.89,-1079.7C505.89,-1072.41 505.89,-1063.73 505.89,-1055.54"/>
<polygon fill="black" stroke="black" points="509.39,-1055.62 505.89,-1045.62 502.39,-1055.62 509.39,-1055.62"/>
</g>
<!-- ApplyPaalmanPingsCorrection -->
<g id="node14" class="node">
<title>ApplyPaalmanPingsCorrection</title>
<path fill="lightskyblue" stroke="black" d="M605.89,-828C605.89,-828 405.89,-828 405.89,-828 399.89,-828 393.89,-822 393.89,-816 393.89,-816 393.89,-804 393.89,-804 393.89,-798 399.89,-792 405.89,-792 405.89,-792 605.89,-792 605.89,-792 611.89,-792 617.89,-798 617.89,-804 617.89,-804 617.89,-816 617.89,-816 617.89,-822 611.89,-828 605.89,-828"/>
<text text-anchor="middle" x="505.89" y="-806.3" font-family="Helvetica,sans-Serif" font-size="14.00">ApplyPaalmanPingsCorrection</text>
</g>
<!-- PaalmanPingsMonteCarloAbsorption&#45;&gt;ApplyPaalmanPingsCorrection -->
<g id="edge14" class="edge">
<title>PaalmanPingsMonteCarloAbsorption&#45;&gt;ApplyPaalmanPingsCorrection</title>
<path fill="none" stroke="black" d="M505.89,-863.7C505.89,-856.41 505.89,-847.73 505.89,-839.54"/>
<polygon fill="black" stroke="black" points="509.39,-839.62 505.89,-829.62 502.39,-839.62 509.39,-839.62"/>
</g>
<!-- PaalmanPingsAbsorptionCorrection&#45;&gt;ApplyPaalmanPingsCorrection -->
<g id="edge13" class="edge">
<title>PaalmanPingsAbsorptionCorrection&#45;&gt;ApplyPaalmanPingsCorrection</title>
<path fill="none" stroke="black" d="M294.32,-863.52C333.92,-853.69 383.53,-841.37 424.75,-831.14"/>
<polygon fill="black" stroke="black" points="425.53,-834.55 434.4,-828.75 423.85,-827.76 425.53,-834.55"/>
</g>
<!-- ApplyPaalmanPingsCorrection&#45;&gt;Divide -->
<g id="edge15" class="edge">
<title>ApplyPaalmanPingsCorrection&#45;&gt;Divide</title>
<path fill="none" stroke="black" d="M505.89,-791.7C505.89,-784.41 505.89,-775.73 505.89,-767.54"/>
<polygon fill="black" stroke="black" points="509.39,-767.62 505.89,-757.62 502.39,-767.62 509.39,-767.62"/>
</g>
<!-- Minus&#45;&gt;SelfAttenuation -->
<g id="edge10" class="edge">
<title>Minus&#45;&gt;SelfAttenuation</title>
<path fill="none" stroke="black" d="M505.89,-1007.7C505.89,-1000.41 505.89,-991.73 505.89,-983.54"/>
<polygon fill="black" stroke="black" points="509.39,-983.62 505.89,-973.62 502.39,-983.62 509.39,-983.62"/>
</g>
<!-- MaskWorkspace -->
<g id="node16" class="node">
<title>MaskWorkspace</title>
<path fill="lightskyblue" stroke="black" d="M409.39,-1188C409.39,-1188 304.39,-1188 304.39,-1188 298.39,-1188 292.39,-1182 292.39,-1176 292.39,-1176 292.39,-1164 292.39,-1164 292.39,-1158 298.39,-1152 304.39,-1152 304.39,-1152 409.39,-1152 409.39,-1152 415.39,-1152 421.39,-1158 421.39,-1164 421.39,-1164 421.39,-1176 421.39,-1176 421.39,-1182 415.39,-1188 409.39,-1188"/>
<text text-anchor="middle" x="356.89" y="-1166.3" font-family="Helvetica,sans-Serif" font-size="14.00">MaskWorkspace</text>
</g>
<!-- MaskWorkspace&#45;&gt;MaskDetectors -->
<g id="edge5" class="edge">
<title>MaskWorkspace&#45;&gt;MaskDetectors</title>
<path fill="none" stroke="black" d="M394.1,-1151.52C413.64,-1142.34 437.8,-1130.99 458.64,-1121.2"/>
<polygon fill="black" stroke="black" points="459.96,-1124.45 467.52,-1117.03 456.98,-1118.11 459.96,-1124.45"/>
</g>
<!-- MaskCreation -->
<g id="node24" class="node">
<title>MaskCreation</title>
<ellipse fill="lightgrey" stroke="black" cx="356.89" cy="-1098" rx="71.49" ry="18"/>
<text text-anchor="middle" x="356.89" y="-1094.3" font-family="Helvetica,sans-Serif" font-size="14.00">MaskCreation</text>
</g>
<!-- MaskWorkspace&#45;&gt;MaskCreation -->
<g id="edge3" class="edge">
<title>MaskWorkspace&#45;&gt;MaskCreation</title>
<path fill="none" stroke="black" d="M350.97,-1151.7C350.22,-1144.41 349.98,-1135.73 350.24,-1127.54"/>
<polygon fill="black" stroke="black" points="353.73,-1127.82 350.89,-1117.61 346.75,-1127.36 353.73,-1127.82"/>
</g>
<!-- ConvertUnits -->
<g id="node18" class="node">
<title>ConvertUnits</title>
<path fill="lightskyblue" stroke="black" d="M547.39,-684C547.39,-684 464.39,-684 464.39,-684 458.39,-684 452.39,-678 452.39,-672 452.39,-672 452.39,-660 452.39,-660 452.39,-654 458.39,-648 464.39,-648 464.39,-648 547.39,-648 547.39,-648 553.39,-648 559.39,-654 559.39,-660 559.39,-660 559.39,-672 559.39,-672 559.39,-678 553.39,-684 547.39,-684"/>
<text text-anchor="middle" x="505.89" y="-662.3" font-family="Helvetica,sans-Serif" font-size="14.00">ConvertUnits</text>
</g>
<!-- Divide&#45;&gt;ConvertUnits -->
<g id="edge18" class="edge">
<title>Divide&#45;&gt;ConvertUnits</title>
<path fill="none" stroke="black" d="M505.89,-719.7C505.89,-712.41 505.89,-703.73 505.89,-695.54"/>
<polygon fill="black" stroke="black" points="509.39,-695.62 505.89,-685.62 502.39,-695.62 509.39,-695.62"/>
</g>
<!-- CorrectKiKf -->
<g id="node19" class="node">
<title>CorrectKiKf</title>
<path fill="lightskyblue" stroke="black" d="M540.89,-612C540.89,-612 470.89,-612 470.89,-612 464.89,-612 458.89,-606 458.89,-600 458.89,-600 458.89,-588 458.89,-588 458.89,-582 464.89,-576 470.89,-576 470.89,-576 540.89,-576 540.89,-576 546.89,-576 552.89,-582 552.89,-588 552.89,-588 552.89,-600 552.89,-600 552.89,-606 546.89,-612 540.89,-612"/>
<text text-anchor="middle" x="505.89" y="-590.3" font-family="Helvetica,sans-Serif" font-size="14.00">CorrectKiKf</text>
</g>
<!-- ConvertUnits&#45;&gt;CorrectKiKf -->
<g id="edge19" class="edge">
<title>ConvertUnits&#45;&gt;CorrectKiKf</title>
<path fill="none" stroke="black" d="M505.89,-647.7C505.89,-640.41 505.89,-631.73 505.89,-623.54"/>
<polygon fill="black" stroke="black" points="509.39,-623.62 505.89,-613.62 502.39,-623.62 509.39,-623.62"/>
</g>
<!-- DetectorEfficiencyCorUser -->
<g id="node20" class="node">
<title>DetectorEfficiencyCorUser</title>
<path fill="lightskyblue" stroke="black" d="M593.89,-540C593.89,-540 417.89,-540 417.89,-540 411.89,-540 405.89,-534 405.89,-528 405.89,-528 405.89,-516 405.89,-516 405.89,-510 411.89,-504 417.89,-504 417.89,-504 593.89,-504 593.89,-504 599.89,-504 605.89,-510 605.89,-516 605.89,-516 605.89,-528 605.89,-528 605.89,-534 599.89,-540 593.89,-540"/>
<text text-anchor="middle" x="505.89" y="-518.3" font-family="Helvetica,sans-Serif" font-size="14.00">DetectorEfficiencyCorUser</text>
</g>
<!-- CorrectKiKf&#45;&gt;DetectorEfficiencyCorUser -->
<g id="edge20" class="edge">
<title>CorrectKiKf&#45;&gt;DetectorEfficiencyCorUser</title>
<path fill="none" stroke="black" d="M505.89,-575.7C505.89,-568.41 505.89,-559.73 505.89,-551.54"/>
<polygon fill="black" stroke="black" points="509.39,-551.62 505.89,-541.62 502.39,-551.62 509.39,-551.62"/>
</g>
<!-- DetectorEfficiencyCorUser&#45;&gt;RebinData -->
<g id="edge21" class="edge">
<title>DetectorEfficiencyCorUser&#45;&gt;RebinData</title>
<path fill="none" stroke="black" d="M505.89,-503.7C505.89,-496.41 505.89,-487.73 505.89,-479.54"/>
<polygon fill="black" stroke="black" points="509.39,-479.62 505.89,-469.62 502.39,-479.62 509.39,-479.62"/>
</g>
<!-- Rebin&#45;&gt;Group -->
<g id="edge23" class="edge">
<title>Rebin&#45;&gt;Group</title>
<path fill="none" stroke="black" d="M484.81,-359.7C488.04,-351.61 491.96,-341.82 495.54,-332.88"/>
<polygon fill="black" stroke="black" points="498.78,-334.19 499.25,-323.61 492.28,-331.59 498.78,-334.19"/>
</g>
<!-- SaveOutput&#45;&gt;OutputWorkspace -->
<g id="edge29" class="edge">
<title>SaveOutput&#45;&gt;OutputWorkspace</title>
<path fill="none" stroke="black" d="M476.53,-71.7C480.83,-63.98 485.99,-54.71 490.78,-46.11"/>
<polygon fill="black" stroke="black" points="493.81,-47.87 495.62,-37.43 487.7,-44.46 493.81,-47.87"/>
</g>
<!-- GroupDetectors&#45;&gt;Save -->
<g id="edge27" class="edge">
<title>GroupDetectors&#45;&gt;Save</title>
<path fill="none" stroke="black" d="M472.01,-215.7C477.73,-206.8 484.78,-195.84 490.96,-186.22"/>
<polygon fill="black" stroke="black" points="493.72,-188.4 496.18,-178.1 487.83,-184.62 493.72,-188.4"/>
</g>
<!-- MaskCreation&#45;&gt;MaskWorkspace -->
<g id="edge4" class="edge">
<title>MaskCreation&#45;&gt;MaskWorkspace</title>
<path fill="none" stroke="black" d="M362.78,-1116.1C363.54,-1123.37 363.8,-1132.04 363.54,-1140.24"/>
<polygon fill="black" stroke="black" points="360.05,-1139.98 362.9,-1150.19 367.04,-1140.43 360.05,-1139.98"/>
</g>
</g>
</svg>
