<?xml version="1.0" encoding="UTF-8" standalone="no"?>
<!DOCTYPE svg PUBLIC "-//W3C//DTD SVG 1.1//EN"
 "http://www.w3.org/Graphics/SVG/1.1/DTD/svg11.dtd">
<!-- Generated by graphviz version 7.1.0 (20230122.1345)
 -->
<!-- Title: ElasticWindow Pages: 1 -->
<svg width="1215pt" height="641pt"
 viewBox="0.00 0.00 1215.14 641.00" xmlns="http://www.w3.org/2000/svg" xmlns:xlink="http://www.w3.org/1999/xlink">
<g id="graph0" class="graph" transform="scale(1 1) rotate(0) translate(4 637)">
<title>ElasticWindow</title>
<polygon fill="white" stroke="none" points="-4,4 -4,-637 1211.14,-637 1211.14,4 -4,4"/>
<text text-anchor="middle" x="603.57" y="-617.8" font-family="Helvetica,sans-Serif" font-size="14.00">ElasticWindow Flowchart</text>
<!-- ConvertUnits_Target -->
<g id="node1" class="node">
<title>ConvertUnits_Target</title>
<polygon fill="grey" stroke="black" points="400.27,-217 267.09,-217 232.84,-181 366.01,-181 400.27,-217"/>
<text text-anchor="middle" x="316.55" y="-195.3" font-family="Times,serif" font-size="14.00">QSquared</text>
</g>
<!-- ConvertUnits -->
<g id="node16" class="node">
<title>ConvertUnits</title>
<path fill="lightskyblue" stroke="black" d="M358.05,-109C358.05,-109 275.05,-109 275.05,-109 269.05,-109 263.05,-103 263.05,-97 263.05,-97 263.05,-85 263.05,-85 263.05,-79 269.05,-73 275.05,-73 275.05,-73 358.05,-73 358.05,-73 364.05,-73 370.05,-79 370.05,-85 370.05,-85 370.05,-97 370.05,-97 370.05,-103 364.05,-109 358.05,-109"/>
<text text-anchor="middle" x="316.55" y="-87.3" font-family="Helvetica,sans-Serif" font-size="14.00">ConvertUnits</text>
</g>
<!-- ConvertUnits_Target&#45;&gt;ConvertUnits -->
<g id="edge22" class="edge">
<title>ConvertUnits_Target&#45;&gt;ConvertUnits</title>
<path fill="none" stroke="black" d="M316.55,-180.97C316.55,-164.76 316.55,-140.06 316.55,-120.79"/>
<polygon fill="black" stroke="black" points="320.05,-120.85 316.55,-110.85 313.05,-120.85 320.05,-120.85"/>
<text text-anchor="middle" x="338.55" y="-141.3" font-family="Helvetica,sans-Serif" font-size="14.00">Target</text>
</g>
<!-- ConvertAxis_Q_Taregt -->
<g id="node2" class="node">
<title>ConvertAxis_Q_Taregt</title>
<polygon fill="grey" stroke="black" points="547.81,-304 431.28,-304 401.3,-268 517.83,-268 547.81,-304"/>
<text text-anchor="middle" x="474.55" y="-282.3" font-family="Times,serif" font-size="14.00">ElasticQ</text>
</g>
<!-- ConvertAxis_Q -->
<g id="node17" class="node">
<title>ConvertAxis_Q</title>
<path fill="lightskyblue" stroke="black" d="M574.55,-217C574.55,-217 430.55,-217 430.55,-217 424.55,-217 418.55,-211 418.55,-205 418.55,-205 418.55,-193 418.55,-193 418.55,-187 424.55,-181 430.55,-181 430.55,-181 574.55,-181 574.55,-181 580.55,-181 586.55,-187 586.55,-193 586.55,-193 586.55,-205 586.55,-205 586.55,-211 580.55,-217 574.55,-217"/>
<text text-anchor="middle" x="502.55" y="-195.3" font-family="Helvetica,sans-Serif" font-size="14.00">ConvertSpectrumAxis</text>
</g>
<!-- ConvertAxis_Q_Taregt&#45;&gt;ConvertAxis_Q -->
<g id="edge11" class="edge">
<title>ConvertAxis_Q_Taregt&#45;&gt;ConvertAxis_Q</title>
<path fill="none" stroke="black" d="M480.22,-267.8C483.95,-256.47 488.93,-241.36 493.23,-228.29"/>
<polygon fill="black" stroke="black" points="496.52,-229.5 496.33,-218.9 489.87,-227.31 496.52,-229.5"/>
<text text-anchor="middle" x="512.55" y="-238.8" font-family="Helvetica,sans-Serif" font-size="14.00">Target</text>
</g>
<!-- ConvertAxis_Q2_Target -->
<g id="node3" class="node">
<title>ConvertAxis_Q2_Target</title>
<polygon fill="grey" stroke="black" points="261.16,-304 53.39,-304 -0.05,-268 207.71,-268 261.16,-304"/>
<text text-anchor="middle" x="130.55" y="-282.3" font-family="Times,serif" font-size="14.00">ElasticQSquared</text>
</g>
<!-- ConvertAxis_Q2 -->
<g id="node18" class="node">
<title>ConvertAxis_Q2</title>
<path fill="lightskyblue" stroke="black" d="M202.55,-217C202.55,-217 58.55,-217 58.55,-217 52.55,-217 46.55,-211 46.55,-205 46.55,-205 46.55,-193 46.55,-193 46.55,-187 52.55,-181 58.55,-181 58.55,-181 202.55,-181 202.55,-181 208.55,-181 214.55,-187 214.55,-193 214.55,-193 214.55,-205 214.55,-205 214.55,-211 208.55,-217 202.55,-217"/>
<text text-anchor="middle" x="130.55" y="-195.3" font-family="Helvetica,sans-Serif" font-size="14.00">ConvertSpectrumAxis</text>
</g>
<!-- ConvertAxis_Q2_Target&#45;&gt;ConvertAxis_Q2 -->
<g id="edge15" class="edge">
<title>ConvertAxis_Q2_Target&#45;&gt;ConvertAxis_Q2</title>
<path fill="none" stroke="black" d="M130.55,-267.8C130.55,-256.58 130.55,-241.67 130.55,-228.69"/>
<polygon fill="black" stroke="black" points="134.05,-228.98 130.55,-218.98 127.05,-228.98 134.05,-228.98"/>
<text text-anchor="middle" x="152.55" y="-238.8" font-family="Helvetica,sans-Serif" font-size="14.00">Target</text>
</g>
<!-- HaveBackgroundRange -->
<g id="node4" class="node">
<title>HaveBackgroundRange</title>
<polygon fill="limegreen" stroke="black" points="762.55,-537 582.24,-519 762.55,-501 942.86,-519 762.55,-537"/>
<text text-anchor="middle" x="762.55" y="-515.3" font-family="Helvetica,sans-Serif" font-size="14.00">Have Background Range?</text>
</g>
<!-- CalculateFlatBackground -->
<g id="node13" class="node">
<title>CalculateFlatBackground</title>
<path fill="lightskyblue" stroke="black" d="M622.05,-450C622.05,-450 457.05,-450 457.05,-450 451.05,-450 445.05,-444 445.05,-438 445.05,-438 445.05,-426 445.05,-426 445.05,-420 451.05,-414 457.05,-414 457.05,-414 622.05,-414 622.05,-414 628.05,-414 634.05,-420 634.05,-426 634.05,-426 634.05,-438 634.05,-438 634.05,-444 628.05,-450 622.05,-450"/>
<text text-anchor="middle" x="539.55" y="-428.3" font-family="Helvetica,sans-Serif" font-size="14.00">CalculateFlatBackground</text>
</g>
<!-- HaveBackgroundRange&#45;&gt;CalculateFlatBackground -->
<g id="edge2" class="edge">
<title>HaveBackgroundRange&#45;&gt;CalculateFlatBackground</title>
<path fill="none" stroke="black" d="M726.23,-504.15C690.88,-490.68 636.67,-470.02 595.75,-454.42"/>
<polygon fill="black" stroke="black" points="597.13,-451.2 586.54,-450.91 594.64,-457.74 597.13,-451.2"/>
<text text-anchor="middle" x="676.05" y="-471.8" font-family="Helvetica,sans-Serif" font-size="14.00">Yes</text>
</g>
<!-- Integration -->
<g id="node14" class="node">
<title>Integration</title>
<path fill="lightskyblue" stroke="black" d="M825.05,-377C825.05,-377 756.05,-377 756.05,-377 750.05,-377 744.05,-371 744.05,-365 744.05,-365 744.05,-353 744.05,-353 744.05,-347 750.05,-341 756.05,-341 756.05,-341 825.05,-341 825.05,-341 831.05,-341 837.05,-347 837.05,-353 837.05,-353 837.05,-365 837.05,-365 837.05,-371 831.05,-377 825.05,-377"/>
<text text-anchor="middle" x="790.55" y="-355.3" font-family="Helvetica,sans-Serif" font-size="14.00">Integration</text>
</g>
<!-- HaveBackgroundRange&#45;&gt;Integration -->
<g id="edge6" class="edge">
<title>HaveBackgroundRange&#45;&gt;Integration</title>
<path fill="none" stroke="black" d="M749.24,-502.12C733.57,-481.38 711.39,-444.19 725.55,-414 730.99,-402.41 740.28,-392.44 750.16,-384.34"/>
<polygon fill="black" stroke="black" points="752.22,-387.17 758.09,-378.35 748,-381.58 752.22,-387.17"/>
<text text-anchor="middle" x="735.05" y="-428.3" font-family="Helvetica,sans-Serif" font-size="14.00">No</text>
</g>
<!-- VertAxisIsSpectraNumber -->
<g id="node5" class="node">
<title>VertAxisIsSpectraNumber</title>
<polygon fill="limegreen" stroke="black" points="790.55,-304 566.5,-286 790.55,-268 1014.6,-286 790.55,-304"/>
<text text-anchor="middle" x="790.55" y="-282.3" font-family="Helvetica,sans-Serif" font-size="14.00">Vertical Axis is Spectra Number?</text>
</g>
<!-- ConvertToHistogram -->
<g id="node15" class="node">
<title>ConvertToHistogram</title>
<path fill="lightskyblue" stroke="black" d="M750.55,-217C750.55,-217 616.55,-217 616.55,-217 610.55,-217 604.55,-211 604.55,-205 604.55,-205 604.55,-193 604.55,-193 604.55,-187 610.55,-181 616.55,-181 616.55,-181 750.55,-181 750.55,-181 756.55,-181 762.55,-187 762.55,-193 762.55,-193 762.55,-205 762.55,-205 762.55,-211 756.55,-217 750.55,-217"/>
<text text-anchor="middle" x="683.55" y="-195.3" font-family="Helvetica,sans-Serif" font-size="14.00">ConvertToHistogram</text>
</g>
<!-- VertAxisIsSpectraNumber&#45;&gt;ConvertToHistogram -->
<g id="edge20" class="edge">
<title>VertAxisIsSpectraNumber&#45;&gt;ConvertToHistogram</title>
<path fill="none" stroke="black" d="M804.7,-269.01C812.13,-258.59 818.26,-245.11 810.55,-235 805.07,-227.81 790.86,-221.72 773.83,-216.74"/>
<polygon fill="black" stroke="black" points="774.94,-213.41 764.38,-214.17 773.11,-220.17 774.94,-213.41"/>
<text text-anchor="middle" x="824.05" y="-238.8" font-family="Helvetica,sans-Serif" font-size="14.00">No</text>
</g>
<!-- VertAxisIsSpectraNumber&#45;&gt;ConvertAxis_Q -->
<g id="edge10" class="edge">
<title>VertAxisIsSpectraNumber&#45;&gt;ConvertAxis_Q</title>
<path fill="none" stroke="black" d="M739.16,-271.71C715.2,-265.38 686.35,-257.55 660.55,-250 629.46,-240.9 595.14,-230.13 566.46,-220.92"/>
<polygon fill="black" stroke="black" points="567.8,-217.67 557.21,-217.94 565.65,-224.34 567.8,-217.67"/>
<text text-anchor="middle" x="672.05" y="-238.8" font-family="Helvetica,sans-Serif" font-size="14.00">Yes</text>
</g>
<!-- VertAxisIsSpectraNumber&#45;&gt;ConvertAxis_Q2 -->
<g id="edge14" class="edge">
<title>VertAxisIsSpectraNumber&#45;&gt;ConvertAxis_Q2</title>
<path fill="none" stroke="black" d="M765.24,-269.63C744.2,-257.75 713.04,-242.16 683.55,-235 587.34,-211.65 341.76,-227.15 226,-217.05"/>
<polygon fill="black" stroke="black" points="226.68,-213.6 216.38,-216.1 225.99,-220.56 226.68,-213.6"/>
<text text-anchor="middle" x="738.05" y="-238.8" font-family="Helvetica,sans-Serif" font-size="14.00">Yes</text>
</g>
<!-- Transpose_Q_B -->
<g id="node21" class="node">
<title>Transpose_Q_B</title>
<path fill="lightskyblue" stroke="black" d="M807.55,-163C807.55,-163 745.55,-163 745.55,-163 739.55,-163 733.55,-157 733.55,-151 733.55,-151 733.55,-139 733.55,-139 733.55,-133 739.55,-127 745.55,-127 745.55,-127 807.55,-127 807.55,-127 813.55,-127 819.55,-133 819.55,-139 819.55,-139 819.55,-151 819.55,-151 819.55,-157 813.55,-163 807.55,-163"/>
<text text-anchor="middle" x="776.55" y="-141.3" font-family="Helvetica,sans-Serif" font-size="14.00">Transpose</text>
</g>
<!-- VertAxisIsSpectraNumber&#45;&gt;Transpose_Q_B -->
<g id="edge18" class="edge">
<title>VertAxisIsSpectraNumber&#45;&gt;Transpose_Q_B</title>
<path fill="none" stroke="black" d="M788.81,-267.68C786.46,-244.35 782.25,-202.53 779.43,-174.53"/>
<polygon fill="black" stroke="black" points="782.91,-174.21 778.43,-164.61 775.95,-174.91 782.91,-174.21"/>
<text text-anchor="middle" x="797.05" y="-238.8" font-family="Helvetica,sans-Serif" font-size="14.00">No</text>
</g>
<!-- InputWorkspace -->
<g id="node6" class="node">
<title>InputWorkspace</title>
<ellipse fill="khaki" stroke="black" cx="762.55" cy="-592" rx="84.49" ry="18"/>
<text text-anchor="middle" x="762.55" y="-588.3" font-family="Helvetica,sans-Serif" font-size="14.00">InputWorkspace</text>
</g>
<!-- InputWorkspace&#45;&gt;HaveBackgroundRange -->
<g id="edge1" class="edge">
<title>InputWorkspace&#45;&gt;HaveBackgroundRange</title>
<path fill="none" stroke="black" d="M762.55,-573.81C762.55,-566.23 762.55,-557.1 762.55,-548.54"/>
<polygon fill="black" stroke="black" points="766.05,-548.54 762.55,-538.54 759.05,-548.54 766.05,-548.54"/>
</g>
<!-- OutputInQ -->
<g id="node7" class="node">
<title>OutputInQ</title>
<ellipse fill="khaki" stroke="black" cx="711.55" cy="-18" rx="58.49" ry="18"/>
<text text-anchor="middle" x="711.55" y="-14.3" font-family="Helvetica,sans-Serif" font-size="14.00">OutputInQ</text>
</g>
<!-- OutputInQSquared -->
<g id="node8" class="node">
<title>OutputInQSquared</title>
<ellipse fill="khaki" stroke="black" cx="259.55" cy="-18" rx="96.38" ry="18"/>
<text text-anchor="middle" x="259.55" y="-14.3" font-family="Helvetica,sans-Serif" font-size="14.00">OutputInQSquared</text>
</g>
<!-- IntegrationRangeStart -->
<g id="node9" class="node">
<title>IntegrationRangeStart</title>
<ellipse fill="khaki" stroke="black" cx="864.55" cy="-432" rx="111.28" ry="18"/>
<text text-anchor="middle" x="864.55" y="-428.3" font-family="Helvetica,sans-Serif" font-size="14.00">IntegrationRangeStart</text>
</g>
<!-- IntegrationRangeStart&#45;&gt;Integration -->
<g id="edge7" class="edge">
<title>IntegrationRangeStart&#45;&gt;Integration</title>
<path fill="none" stroke="black" d="M846.64,-413.81C837.71,-405.24 826.73,-394.71 816.86,-385.24"/>
<polygon fill="black" stroke="black" points="819.29,-382.72 809.65,-378.32 814.44,-387.77 819.29,-382.72"/>
</g>
<!-- IntegrationRangeEnd -->
<g id="node10" class="node">
<title>IntegrationRangeEnd</title>
<ellipse fill="khaki" stroke="black" cx="1100.55" cy="-432" rx="106.68" ry="18"/>
<text text-anchor="middle" x="1100.55" y="-428.3" font-family="Helvetica,sans-Serif" font-size="14.00">IntegrationRangeEnd</text>
</g>
<!-- IntegrationRangeEnd&#45;&gt;Integration -->
<g id="edge8" class="edge">
<title>IntegrationRangeEnd&#45;&gt;Integration</title>
<path fill="none" stroke="black" d="M1038.94,-416.89C983.55,-404.2 902.79,-385.71 848.55,-373.28"/>
<polygon fill="black" stroke="black" points="849.4,-369.89 838.87,-371.07 847.83,-376.71 849.4,-369.89"/>
</g>
<!-- BackgroundRangeStart -->
<g id="node11" class="node">
<title>BackgroundRangeStart</title>
<ellipse fill="khaki" stroke="black" cx="448.55" cy="-519" rx="115.88" ry="18"/>
<text text-anchor="middle" x="448.55" y="-515.3" font-family="Helvetica,sans-Serif" font-size="14.00">BackgroundRangeStart</text>
</g>
<!-- BackgroundRangeStart&#45;&gt;CalculateFlatBackground -->
<g id="edge3" class="edge">
<title>BackgroundRangeStart&#45;&gt;CalculateFlatBackground</title>
<path fill="none" stroke="black" d="M466.97,-500.8C480.08,-488.55 497.91,-471.9 512.61,-458.16"/>
<polygon fill="black" stroke="black" points="514.83,-460.88 519.75,-451.5 510.05,-455.77 514.83,-460.88"/>
</g>
<!-- BackgroundRangeEnd -->
<g id="node12" class="node">
<title>BackgroundRangeEnd</title>
<ellipse fill="khaki" stroke="black" cx="203.55" cy="-519" rx="111.28" ry="18"/>
<text text-anchor="middle" x="203.55" y="-515.3" font-family="Helvetica,sans-Serif" font-size="14.00">BackgroundRangeEnd</text>
</g>
<!-- BackgroundRangeEnd&#45;&gt;CalculateFlatBackground -->
<g id="edge4" class="edge">
<title>BackgroundRangeEnd&#45;&gt;CalculateFlatBackground</title>
<path fill="none" stroke="black" d="M261.7,-503.29C316.33,-489.47 398.58,-468.66 459.42,-453.27"/>
<polygon fill="black" stroke="black" points="460.22,-456.68 469.06,-450.83 458.5,-449.89 460.22,-456.68"/>
</g>
<!-- CalculateFlatBackground&#45;&gt;Integration -->
<g id="edge5" class="edge">
<title>CalculateFlatBackground&#45;&gt;Integration</title>
<path fill="none" stroke="black" d="M601.28,-413.54C641.39,-402.19 693.35,-387.5 732.68,-376.37"/>
<polygon fill="black" stroke="black" points="733.54,-379.76 742.21,-373.67 731.64,-373.03 733.54,-379.76"/>
</g>
<!-- Integration&#45;&gt;VertAxisIsSpectraNumber -->
<g id="edge9" class="edge">
<title>Integration&#45;&gt;VertAxisIsSpectraNumber</title>
<path fill="none" stroke="black" d="M790.55,-340.81C790.55,-333.23 790.55,-324.1 790.55,-315.54"/>
<polygon fill="black" stroke="black" points="794.05,-315.54 790.55,-305.54 787.05,-315.54 794.05,-315.54"/>
</g>
<!-- ConvertToHistogram&#45;&gt;ConvertUnits -->
<g id="edge21" class="edge">
<title>ConvertToHistogram&#45;&gt;ConvertUnits</title>
<path fill="none" stroke="black" d="M623.36,-180.61C556.81,-161.39 449.98,-130.54 381.55,-110.77"/>
<polygon fill="black" stroke="black" points="382.53,-107.41 371.95,-108 380.59,-114.14 382.53,-107.41"/>
</g>
<!-- ConvertUnits&#45;&gt;OutputInQSquared -->
<g id="edge23" class="edge">
<title>ConvertUnits&#45;&gt;OutputInQSquared</title>
<path fill="none" stroke="black" d="M302.75,-72.81C296.03,-64.44 287.81,-54.2 280.35,-44.9"/>
<polygon fill="black" stroke="black" points="283.16,-42.82 274.17,-37.21 277.7,-47.2 283.16,-42.82"/>
</g>
<!-- Transpose_Q -->
<g id="node19" class="node">
<title>Transpose_Q</title>
<path fill="lightskyblue" stroke="black" d="M614.55,-109C614.55,-109 552.55,-109 552.55,-109 546.55,-109 540.55,-103 540.55,-97 540.55,-97 540.55,-85 540.55,-85 540.55,-79 546.55,-73 552.55,-73 552.55,-73 614.55,-73 614.55,-73 620.55,-73 626.55,-79 626.55,-85 626.55,-85 626.55,-97 626.55,-97 626.55,-103 620.55,-109 614.55,-109"/>
<text text-anchor="middle" x="583.55" y="-87.3" font-family="Helvetica,sans-Serif" font-size="14.00">Transpose</text>
</g>
<!-- ConvertAxis_Q&#45;&gt;Transpose_Q -->
<g id="edge12" class="edge">
<title>ConvertAxis_Q&#45;&gt;Transpose_Q</title>
<path fill="none" stroke="black" d="M515.57,-180.97C528.48,-164.07 548.45,-137.94 563.41,-118.36"/>
<polygon fill="black" stroke="black" points="566.09,-120.61 569.38,-110.54 560.53,-116.36 566.09,-120.61"/>
</g>
<!-- Transpose_Q2 -->
<g id="node20" class="node">
<title>Transpose_Q2</title>
<path fill="lightskyblue" stroke="black" d="M214.55,-109C214.55,-109 152.55,-109 152.55,-109 146.55,-109 140.55,-103 140.55,-97 140.55,-97 140.55,-85 140.55,-85 140.55,-79 146.55,-73 152.55,-73 152.55,-73 214.55,-73 214.55,-73 220.55,-73 226.55,-79 226.55,-85 226.55,-85 226.55,-97 226.55,-97 226.55,-103 220.55,-109 214.55,-109"/>
<text text-anchor="middle" x="183.55" y="-87.3" font-family="Helvetica,sans-Serif" font-size="14.00">Transpose</text>
</g>
<!-- ConvertAxis_Q2&#45;&gt;Transpose_Q2 -->
<g id="edge16" class="edge">
<title>ConvertAxis_Q2&#45;&gt;Transpose_Q2</title>
<path fill="none" stroke="black" d="M139.07,-180.97C147.36,-164.38 160.11,-138.88 169.84,-119.43"/>
<polygon fill="black" stroke="black" points="172.86,-121.2 174.21,-110.69 166.6,-118.07 172.86,-121.2"/>
</g>
<!-- Transpose_Q&#45;&gt;OutputInQ -->
<g id="edge13" class="edge">
<title>Transpose_Q&#45;&gt;OutputInQ</title>
<path fill="none" stroke="black" d="M614.86,-72.63C632.73,-62.72 655.23,-50.24 674.03,-39.81"/>
<polygon fill="black" stroke="black" points="675.67,-42.91 682.72,-34.99 672.27,-36.78 675.67,-42.91"/>
</g>
<!-- Transpose_Q2&#45;&gt;OutputInQSquared -->
<g id="edge17" class="edge">
<title>Transpose_Q2&#45;&gt;OutputInQSquared</title>
<path fill="none" stroke="black" d="M201.95,-72.81C211.29,-64.09 222.79,-53.34 233.06,-43.75"/>
<polygon fill="black" stroke="black" points="235.3,-46.45 240.22,-37.06 230.52,-41.33 235.3,-46.45"/>
</g>
<!-- Transpose_Q_B&#45;&gt;OutputInQ -->
<g id="edge19" class="edge">
<title>Transpose_Q_B&#45;&gt;OutputInQ</title>
<path fill="none" stroke="black" d="M767.51,-126.62C756.7,-105.82 738.45,-70.73 725.75,-46.3"/>
<polygon fill="black" stroke="black" points="728.93,-44.83 721.21,-37.58 722.72,-48.06 728.93,-44.83"/>
</g>
</g>
</svg>
