<?xml version="1.0" encoding="UTF-8" standalone="no"?>
<!DOCTYPE svg PUBLIC "-//W3C//DTD SVG 1.1//EN"
 "http://www.w3.org/Graphics/SVG/1.1/DTD/svg11.dtd">
<!-- Generated by graphviz version 7.1.0 (20230122.1345)
 -->
<!-- Title: FlatPlatePaalmanPingsCorrection Pages: 1 -->
<svg width="1252pt" height="1851pt"
 viewBox="0.00 0.00 1252.09 1851.00" xmlns="http://www.w3.org/2000/svg" xmlns:xlink="http://www.w3.org/1999/xlink">
<g id="graph0" class="graph" transform="scale(1 1) rotate(0) translate(4 1847)">
<title>FlatPlatePaalmanPingsCorrection</title>
<polygon fill="white" stroke="none" points="-4,4 -4,-1847 1248.09,-1847 1248.09,4 -4,4"/>
<text text-anchor="middle" x="622.04" y="-1827.8" font-family="Helvetica,sans-Serif" font-size="14.00">FlatPlatePaalmanPingsCorrection Flowchart</text>
<!-- SampleWorkspace -->
<g id="node1" class="node">
<title>SampleWorkspace</title>
<ellipse fill="khaki" stroke="black" cx="640.05" cy="-1802" rx="94.48" ry="18"/>
<text text-anchor="middle" x="640.05" y="-1798.3" font-family="Helvetica,sans-Serif" font-size="14.00">SampleWorkspace</text>
</g>
<!-- SetSampleMaterial -->
<g id="node23" class="node">
<title>SetSampleMaterial</title>
<path fill="lightskyblue" stroke="black" d="M935.05,-1747C935.05,-1747 813.05,-1747 813.05,-1747 807.05,-1747 801.05,-1741 801.05,-1735 801.05,-1735 801.05,-1723 801.05,-1723 801.05,-1717 807.05,-1711 813.05,-1711 813.05,-1711 935.05,-1711 935.05,-1711 941.05,-1711 947.05,-1717 947.05,-1723 947.05,-1723 947.05,-1735 947.05,-1735 947.05,-1741 941.05,-1747 935.05,-1747"/>
<text text-anchor="middle" x="874.05" y="-1725.3" font-family="Helvetica,sans-Serif" font-size="14.00">SetSampleMaterial</text>
</g>
<!-- SampleWorkspace&#45;&gt;SetSampleMaterial -->
<g id="edge1" class="edge">
<title>SampleWorkspace&#45;&gt;SetSampleMaterial</title>
<path fill="none" stroke="black" d="M688.81,-1786.2C722.71,-1775.92 768.34,-1762.07 805.83,-1750.7"/>
<polygon fill="black" stroke="black" points="806.67,-1754.1 815.22,-1747.85 804.64,-1747.4 806.67,-1754.1"/>
</g>
<!-- SampleChemicalFormula -->
<g id="node2" class="node">
<title>SampleChemicalFormula</title>
<ellipse fill="khaki" stroke="black" cx="874.05" cy="-1802" rx="122.38" ry="18"/>
<text text-anchor="middle" x="874.05" y="-1798.3" font-family="Helvetica,sans-Serif" font-size="14.00">SampleChemicalFormula</text>
</g>
<!-- SampleChemicalFormula&#45;&gt;SetSampleMaterial -->
<g id="edge2" class="edge">
<title>SampleChemicalFormula&#45;&gt;SetSampleMaterial</title>
<path fill="none" stroke="black" d="M874.05,-1783.81C874.05,-1776.23 874.05,-1767.1 874.05,-1758.54"/>
<polygon fill="black" stroke="black" points="877.55,-1758.54 874.05,-1748.54 870.55,-1758.54 877.55,-1758.54"/>
</g>
<!-- SampleNumberDensity -->
<g id="node3" class="node">
<title>SampleNumberDensity</title>
<ellipse fill="khaki" stroke="black" cx="1129.05" cy="-1802" rx="115.08" ry="18"/>
<text text-anchor="middle" x="1129.05" y="-1798.3" font-family="Helvetica,sans-Serif" font-size="14.00">SampleNumberDensity</text>
</g>
<!-- SampleNumberDensity&#45;&gt;SetSampleMaterial -->
<g id="edge3" class="edge">
<title>SampleNumberDensity&#45;&gt;SetSampleMaterial</title>
<path fill="none" stroke="black" d="M1074.34,-1785.77C1037.34,-1775.47 988.05,-1761.74 947.62,-1750.48"/>
<polygon fill="black" stroke="black" points="948.77,-1747.17 938.19,-1747.86 946.89,-1753.92 948.77,-1747.17"/>
</g>
<!-- SampleNumberDensity2 -->
<g id="node4" class="node">
<title>SampleNumberDensity2</title>
<ellipse fill="khaki" stroke="black" cx="862.05" cy="-1263" rx="115.08" ry="18"/>
<text text-anchor="middle" x="862.05" y="-1259.3" font-family="Helvetica,sans-Serif" font-size="14.00">SampleNumberDensity</text>
</g>
<!-- flatAbs -->
<g id="node35" class="node">
<title>flatAbs</title>
<polygon fill="lightseagreen" stroke="black" points="760.55,-1208 317.55,-1208 317.55,-1172 760.55,-1172 760.55,-1208"/>
<text text-anchor="middle" x="539.05" y="-1186.3" font-family="Helvetica,sans-Serif" font-size="14.00">flat_abs: Mathematically calculates the flat absorption factors</text>
</g>
<!-- SampleNumberDensity2&#45;&gt;flatAbs -->
<g id="edge15" class="edge">
<title>SampleNumberDensity2&#45;&gt;flatAbs</title>
<path fill="none" stroke="black" d="M797.07,-1247.72C749,-1237.15 682.91,-1222.62 629.65,-1210.92"/>
<polygon fill="black" stroke="black" points="630.49,-1207.52 619.97,-1208.79 628.98,-1214.35 630.49,-1207.52"/>
</g>
<!-- SampleThickness -->
<g id="node5" class="node">
<title>SampleThickness</title>
<ellipse fill="khaki" stroke="black" cx="322.05" cy="-1263" rx="89.08" ry="18"/>
<text text-anchor="middle" x="322.05" y="-1259.3" font-family="Helvetica,sans-Serif" font-size="14.00">SampleThickness</text>
</g>
<!-- SampleThickness&#45;&gt;flatAbs -->
<g id="edge14" class="edge">
<title>SampleThickness&#45;&gt;flatAbs</title>
<path fill="none" stroke="black" d="M367.54,-1247.12C398.6,-1236.95 440.21,-1223.34 474.66,-1212.07"/>
<polygon fill="black" stroke="black" points="475.72,-1215.4 484.14,-1208.97 473.54,-1208.75 475.72,-1215.4"/>
</g>
<!-- SampleAngle -->
<g id="node6" class="node">
<title>SampleAngle</title>
<ellipse fill="khaki" stroke="black" cx="499.05" cy="-1263" rx="70.39" ry="18"/>
<text text-anchor="middle" x="499.05" y="-1259.3" font-family="Helvetica,sans-Serif" font-size="14.00">SampleAngle</text>
</g>
<!-- SampleAngle&#45;&gt;flatAbs -->
<g id="edge16" class="edge">
<title>SampleAngle&#45;&gt;flatAbs</title>
<path fill="none" stroke="black" d="M508.73,-1244.81C513.3,-1236.7 518.86,-1226.84 523.96,-1217.78"/>
<polygon fill="black" stroke="black" points="526.85,-1219.78 528.71,-1209.35 520.75,-1216.34 526.85,-1219.78"/>
</g>
<!-- CanWorkspace -->
<g id="node7" class="node">
<title>CanWorkspace</title>
<ellipse fill="khaki" stroke="black" cx="821.05" cy="-1569" rx="77.99" ry="18"/>
<text text-anchor="middle" x="821.05" y="-1565.3" font-family="Helvetica,sans-Serif" font-size="14.00">CanWorkspace</text>
</g>
<!-- SetSampleMaterial2 -->
<g id="node24" class="node">
<title>SetSampleMaterial2</title>
<path fill="lightskyblue" stroke="black" d="M742.05,-1500C742.05,-1500 620.05,-1500 620.05,-1500 614.05,-1500 608.05,-1494 608.05,-1488 608.05,-1488 608.05,-1476 608.05,-1476 608.05,-1470 614.05,-1464 620.05,-1464 620.05,-1464 742.05,-1464 742.05,-1464 748.05,-1464 754.05,-1470 754.05,-1476 754.05,-1476 754.05,-1488 754.05,-1488 754.05,-1494 748.05,-1500 742.05,-1500"/>
<text text-anchor="middle" x="681.05" y="-1478.3" font-family="Helvetica,sans-Serif" font-size="14.00">SetSampleMaterial</text>
</g>
<!-- CanWorkspace&#45;&gt;SetSampleMaterial2 -->
<g id="edge6" class="edge">
<title>CanWorkspace&#45;&gt;SetSampleMaterial2</title>
<path fill="none" stroke="black" d="M794.38,-1551.81C773.14,-1538.92 743.12,-1520.69 719.31,-1506.23"/>
<polygon fill="black" stroke="black" points="721.19,-1503.28 710.83,-1501.08 717.56,-1509.26 721.19,-1503.28"/>
</g>
<!-- CanChemicalFormula -->
<g id="node8" class="node">
<title>CanChemicalFormula</title>
<ellipse fill="khaki" stroke="black" cx="403.05" cy="-1569" rx="106.68" ry="18"/>
<text text-anchor="middle" x="403.05" y="-1565.3" font-family="Helvetica,sans-Serif" font-size="14.00">CanChemicalFormula</text>
</g>
<!-- CanChemicalFormula&#45;&gt;SetSampleMaterial2 -->
<g id="edge7" class="edge">
<title>CanChemicalFormula&#45;&gt;SetSampleMaterial2</title>
<path fill="none" stroke="black" d="M453.07,-1552.71C497.83,-1539.02 563.83,-1518.84 613.31,-1503.71"/>
<polygon fill="black" stroke="black" points="614.25,-1507.08 622.79,-1500.81 612.21,-1500.39 614.25,-1507.08"/>
</g>
<!-- CanNumberDensity -->
<g id="node9" class="node">
<title>CanNumberDensity</title>
<ellipse fill="khaki" stroke="black" cx="626.05" cy="-1569" rx="98.58" ry="18"/>
<text text-anchor="middle" x="626.05" y="-1565.3" font-family="Helvetica,sans-Serif" font-size="14.00">CanNumberDensity</text>
</g>
<!-- CanNumberDensity&#45;&gt;SetSampleMaterial2 -->
<g id="edge8" class="edge">
<title>CanNumberDensity&#45;&gt;SetSampleMaterial2</title>
<path fill="none" stroke="black" d="M637.18,-1550.8C644.73,-1539.12 654.87,-1523.45 663.51,-1510.11"/>
<polygon fill="black" stroke="black" points="666.43,-1512.04 668.92,-1501.74 660.55,-1508.23 666.43,-1512.04"/>
</g>
<!-- CanFrontThickness -->
<g id="node10" class="node">
<title>CanFrontThickness</title>
<ellipse fill="khaki" stroke="black" cx="625.05" cy="-957" rx="96.38" ry="18"/>
<text text-anchor="middle" x="625.05" y="-953.3" font-family="Helvetica,sans-Serif" font-size="14.00">CanFrontThickness</text>
</g>
<!-- flatAbsCan -->
<g id="node36" class="node">
<title>flatAbsCan</title>
<polygon fill="lightseagreen" stroke="black" points="883.55,-902 156.55,-902 156.55,-866 883.55,-866 883.55,-902"/>
<text text-anchor="middle" x="520.05" y="-880.3" font-family="Helvetica,sans-Serif" font-size="14.00">calculate_can: Re&#45;calculate the assc, acsc and acc data taking into account the contribution of the can</text>
</g>
<!-- CanFrontThickness&#45;&gt;flatAbsCan -->
<g id="edge23" class="edge">
<title>CanFrontThickness&#45;&gt;flatAbsCan</title>
<path fill="none" stroke="black" d="M600.16,-939.17C586.73,-930.09 569.93,-918.73 555.18,-908.76"/>
<polygon fill="black" stroke="black" points="557.35,-906 547.1,-903.29 553.42,-911.8 557.35,-906"/>
</g>
<!-- CanBackThickness -->
<g id="node11" class="node">
<title>CanBackThickness</title>
<ellipse fill="khaki" stroke="black" cx="416.05" cy="-957" rx="94.78" ry="18"/>
<text text-anchor="middle" x="416.05" y="-953.3" font-family="Helvetica,sans-Serif" font-size="14.00">CanBackThickness</text>
</g>
<!-- CanBackThickness&#45;&gt;flatAbsCan -->
<g id="edge24" class="edge">
<title>CanBackThickness&#45;&gt;flatAbsCan</title>
<path fill="none" stroke="black" d="M440.69,-939.17C454,-930.09 470.64,-918.73 485.24,-908.76"/>
<polygon fill="black" stroke="black" points="486.95,-911.83 493.24,-903.3 483.01,-906.05 486.95,-911.83"/>
</g>
<!-- OutputWorkspace -->
<g id="node12" class="node">
<title>OutputWorkspace</title>
<ellipse fill="khaki" stroke="black" cx="746.05" cy="-18" rx="92.08" ry="18"/>
<text text-anchor="middle" x="746.05" y="-14.3" font-family="Helvetica,sans-Serif" font-size="14.00">OutputWorkspace</text>
</g>
<!-- Angles -->
<g id="node13" class="node">
<title>Angles</title>
<ellipse fill="khaki" stroke="black" cx="831.05" cy="-1336" rx="41.69" ry="18"/>
<text text-anchor="middle" x="831.05" y="-1332.3" font-family="Helvetica,sans-Serif" font-size="14.00">Angles</text>
</g>
<!-- CurrentAngle -->
<g id="node37" class="node">
<title>CurrentAngle</title>
<ellipse fill="lightgrey" stroke="black" cx="658.05" cy="-1263" rx="70.69" ry="18"/>
<text text-anchor="middle" x="658.05" y="-1259.3" font-family="Helvetica,sans-Serif" font-size="14.00">CurrentAngle</text>
</g>
<!-- Angles&#45;&gt;CurrentAngle -->
<g id="edge12" class="edge">
<title>Angles&#45;&gt;CurrentAngle</title>
<path fill="none" stroke="black" d="M801.7,-1322.96C775.14,-1312.06 735.57,-1295.81 704.68,-1283.14"/>
<polygon fill="black" stroke="black" points="706.13,-1279.95 695.55,-1279.39 703.47,-1286.43 706.13,-1279.95"/>
</g>
<!-- Waves -->
<g id="node14" class="node">
<title>Waves</title>
<ellipse fill="khaki" stroke="black" cx="872.05" cy="-543" rx="40.09" ry="18"/>
<text text-anchor="middle" x="872.05" y="-539.3" font-family="Helvetica,sans-Serif" font-size="14.00">Waves</text>
</g>
<!-- data_x -->
<g id="node38" class="node">
<title>data_x</title>
<ellipse fill="lightgrey" stroke="black" cx="872.05" cy="-470" rx="40.09" ry="18"/>
<text text-anchor="middle" x="872.05" y="-466.3" font-family="Helvetica,sans-Serif" font-size="14.00">data_x</text>
</g>
<!-- Waves&#45;&gt;data_x -->
<g id="edge32" class="edge">
<title>Waves&#45;&gt;data_x</title>
<path fill="none" stroke="black" d="M872.05,-524.81C872.05,-517.23 872.05,-508.1 872.05,-499.54"/>
<polygon fill="black" stroke="black" points="875.55,-499.54 872.05,-489.54 868.55,-499.54 875.55,-499.54"/>
</g>
<!-- data -->
<g id="node15" class="node">
<title>data</title>
<ellipse fill="khaki" stroke="black" cx="212.05" cy="-1030" rx="81.79" ry="18"/>
<text text-anchor="middle" x="212.05" y="-1026.3" font-family="Helvetica,sans-Serif" font-size="14.00">absorption data</text>
</g>
<!-- data1 -->
<g id="node16" class="node">
<title>data1</title>
<ellipse fill="khaki" stroke="black" cx="520.05" cy="-724" rx="81.79" ry="18"/>
<text text-anchor="middle" x="520.05" y="-720.3" font-family="Helvetica,sans-Serif" font-size="14.00">absorption data</text>
</g>
<!-- data&#45;&gt;data1 -->
<g id="edge27" class="edge">
<title>data&#45;&gt;data1</title>
<path fill="none" stroke="black" d="M173.49,-1013.69C151.41,-1002.11 128.05,-983.78 128.05,-958 128.05,-958 128.05,-958 128.05,-810 128.05,-749.01 311.58,-731.69 427.48,-726.83"/>
<polygon fill="black" stroke="black" points="427.46,-730.33 437.31,-726.44 427.18,-723.34 427.46,-730.33"/>
</g>
<!-- data_ass -->
<g id="node18" class="node">
<title>data_ass</title>
<ellipse fill="khaki" stroke="black" cx="50.05" cy="-957" rx="50.09" ry="18"/>
<text text-anchor="middle" x="50.05" y="-953.3" font-family="Helvetica,sans-Serif" font-size="14.00">data_ass</text>
</g>
<!-- data&#45;&gt;data_ass -->
<g id="edge21" class="edge">
<title>data&#45;&gt;data_ass</title>
<path fill="none" stroke="black" d="M167.02,-1014.71C150.15,-1008.89 130.98,-1001.72 114.05,-994 104.16,-989.5 93.77,-984 84.3,-978.68"/>
<polygon fill="black" stroke="black" points="86.19,-975.72 75.77,-973.77 82.7,-981.79 86.19,-975.72"/>
</g>
<!-- data_ass1 -->
<g id="node19" class="node">
<title>data_ass1</title>
<ellipse fill="khaki" stroke="black" cx="456.05" cy="-597" rx="50.09" ry="18"/>
<text text-anchor="middle" x="456.05" y="-593.3" font-family="Helvetica,sans-Serif" font-size="14.00">data_ass</text>
</g>
<!-- data1&#45;&gt;data_ass1 -->
<g id="edge30" class="edge">
<title>data1&#45;&gt;data_ass1</title>
<path fill="none" stroke="black" d="M511.15,-705.62C500.44,-684.7 482.33,-649.34 469.81,-624.89"/>
<polygon fill="black" stroke="black" points="473.03,-623.49 465.35,-616.18 466.8,-626.68 473.03,-623.49"/>
</g>
<!-- useCan3 -->
<g id="node31" class="node">
<title>useCan3</title>
<polygon fill="limegreen" stroke="black" points="621.05,-669 541.95,-651 621.05,-633 700.14,-651 621.05,-669"/>
<text text-anchor="middle" x="621.05" y="-647.3" font-family="Helvetica,sans-Serif" font-size="14.00">Using can</text>
</g>
<!-- data1&#45;&gt;useCan3 -->
<g id="edge31" class="edge">
<title>data1&#45;&gt;useCan3</title>
<path fill="none" stroke="black" d="M543.73,-706.35C558.5,-695.97 577.59,-682.55 593.11,-671.64"/>
<polygon fill="black" stroke="black" points="594.83,-674.71 600.99,-666.1 590.8,-668.98 594.83,-674.71"/>
</g>
<!-- data2 -->
<g id="node17" class="node">
<title>data2</title>
<ellipse fill="khaki" stroke="black" cx="625.05" cy="-543" rx="81.79" ry="18"/>
<text text-anchor="middle" x="625.05" y="-539.3" font-family="Helvetica,sans-Serif" font-size="14.00">absorption data</text>
</g>
<!-- data_assc -->
<g id="node20" class="node">
<title>data_assc</title>
<ellipse fill="khaki" stroke="black" cx="513.05" cy="-470" rx="55.49" ry="18"/>
<text text-anchor="middle" x="513.05" y="-466.3" font-family="Helvetica,sans-Serif" font-size="14.00">data_assc</text>
</g>
<!-- data2&#45;&gt;data_assc -->
<g id="edge34" class="edge">
<title>data2&#45;&gt;data_assc</title>
<path fill="none" stroke="black" d="M599.07,-525.53C583.51,-515.67 563.56,-503.03 546.8,-492.4"/>
<polygon fill="black" stroke="black" points="548.95,-489.61 538.63,-487.22 545.2,-495.53 548.95,-489.61"/>
</g>
<!-- data_acsc -->
<g id="node21" class="node">
<title>data_acsc</title>
<ellipse fill="khaki" stroke="black" cx="641.05" cy="-470" rx="55.49" ry="18"/>
<text text-anchor="middle" x="641.05" y="-466.3" font-family="Helvetica,sans-Serif" font-size="14.00">data_acsc</text>
</g>
<!-- data2&#45;&gt;data_acsc -->
<g id="edge35" class="edge">
<title>data2&#45;&gt;data_acsc</title>
<path fill="none" stroke="black" d="M628.92,-524.81C630.65,-517.14 632.73,-507.89 634.68,-499.24"/>
<polygon fill="black" stroke="black" points="638.09,-500.03 636.88,-489.51 631.26,-498.49 638.09,-500.03"/>
</g>
<!-- data_acc -->
<g id="node22" class="node">
<title>data_acc</title>
<ellipse fill="khaki" stroke="black" cx="764.05" cy="-470" rx="50.09" ry="18"/>
<text text-anchor="middle" x="764.05" y="-466.3" font-family="Helvetica,sans-Serif" font-size="14.00">data_acc</text>
</g>
<!-- data2&#45;&gt;data_acc -->
<g id="edge36" class="edge">
<title>data2&#45;&gt;data_acc</title>
<path fill="none" stroke="black" d="M656.24,-526.07C676.97,-515.48 704.31,-501.51 726.27,-490.29"/>
<polygon fill="black" stroke="black" points="727.59,-493.55 734.91,-485.88 724.41,-487.32 727.59,-493.55"/>
</g>
<!-- data_ass&#45;&gt;flatAbsCan -->
<g id="edge22" class="edge">
<title>data_ass&#45;&gt;flatAbsCan</title>
<path fill="none" stroke="black" d="M95.54,-949.13C163.64,-938.84 294.61,-919.06 393.15,-904.17"/>
<polygon fill="black" stroke="black" points="393.53,-907.65 402.9,-902.7 392.49,-900.73 393.53,-907.65"/>
</g>
<!-- CreateWorkspace -->
<g id="node25" class="node">
<title>CreateWorkspace</title>
<path fill="lightskyblue" stroke="black" d="M698.05,-415C698.05,-415 584.05,-415 584.05,-415 578.05,-415 572.05,-409 572.05,-403 572.05,-403 572.05,-391 572.05,-391 572.05,-385 578.05,-379 584.05,-379 584.05,-379 698.05,-379 698.05,-379 704.05,-379 710.05,-385 710.05,-391 710.05,-391 710.05,-403 710.05,-403 710.05,-409 704.05,-415 698.05,-415"/>
<text text-anchor="middle" x="641.05" y="-393.3" font-family="Helvetica,sans-Serif" font-size="14.00">CreateWorkspace</text>
</g>
<!-- data_ass1&#45;&gt;CreateWorkspace -->
<g id="edge40" class="edge">
<title>data_ass1&#45;&gt;CreateWorkspace</title>
<path fill="none" stroke="black" d="M448.81,-578.86C437.73,-549.59 420.63,-489.51 449.05,-452 462.95,-433.64 514.25,-419.78 560.33,-410.7"/>
<polygon fill="black" stroke="black" points="560.94,-414.15 570.11,-408.84 559.63,-407.27 560.94,-414.15"/>
</g>
<!-- data_assc&#45;&gt;CreateWorkspace -->
<g id="edge37" class="edge">
<title>data_assc&#45;&gt;CreateWorkspace</title>
<path fill="none" stroke="black" d="M540.19,-453.94C557.56,-444.31 580.43,-431.62 600,-420.77"/>
<polygon fill="black" stroke="black" points="601.52,-423.93 608.56,-416.02 598.12,-417.81 601.52,-423.93"/>
</g>
<!-- data_acsc&#45;&gt;CreateWorkspace -->
<g id="edge38" class="edge">
<title>data_acsc&#45;&gt;CreateWorkspace</title>
<path fill="none" stroke="black" d="M641.05,-451.81C641.05,-444.23 641.05,-435.1 641.05,-426.54"/>
<polygon fill="black" stroke="black" points="644.55,-426.54 641.05,-416.54 637.55,-426.54 644.55,-426.54"/>
</g>
<!-- data_acc&#45;&gt;CreateWorkspace -->
<g id="edge39" class="edge">
<title>data_acc&#45;&gt;CreateWorkspace</title>
<path fill="none" stroke="black" d="M738.26,-454.12C721.66,-444.53 699.75,-431.89 680.93,-421.02"/>
<polygon fill="black" stroke="black" points="682.85,-418.09 672.44,-416.12 679.35,-424.15 682.85,-418.09"/>
</g>
<!-- useCan -->
<g id="node29" class="node">
<title>useCan</title>
<polygon fill="limegreen" stroke="black" points="874.05,-1674 794.95,-1656 874.05,-1638 953.14,-1656 874.05,-1674"/>
<text text-anchor="middle" x="874.05" y="-1652.3" font-family="Helvetica,sans-Serif" font-size="14.00">Using can</text>
</g>
<!-- SetSampleMaterial&#45;&gt;useCan -->
<g id="edge4" class="edge">
<title>SetSampleMaterial&#45;&gt;useCan</title>
<path fill="none" stroke="black" d="M874.05,-1710.81C874.05,-1703.23 874.05,-1694.1 874.05,-1685.54"/>
<polygon fill="black" stroke="black" points="877.55,-1685.54 874.05,-1675.54 870.55,-1685.54 877.55,-1685.54"/>
</g>
<!-- detAngles -->
<g id="node34" class="node">
<title>detAngles</title>
<polygon fill="lightseagreen" stroke="black" points="1075.05,-1427 587.05,-1427 587.05,-1391 1075.05,-1391 1075.05,-1427"/>
<text text-anchor="middle" x="831.05" y="-1405.3" font-family="Helvetica,sans-Serif" font-size="14.00">get_angles: Determine detector angles based on sample workspace</text>
</g>
<!-- SetSampleMaterial2&#45;&gt;detAngles -->
<g id="edge9" class="edge">
<title>SetSampleMaterial2&#45;&gt;detAngles</title>
<path fill="none" stroke="black" d="M717.74,-1463.63C737.72,-1454.18 762.65,-1442.38 784.03,-1432.25"/>
<polygon fill="black" stroke="black" points="785.3,-1435.52 792.84,-1428.08 782.31,-1429.2 785.3,-1435.52"/>
</g>
<!-- AddSampleLog -->
<g id="node26" class="node">
<title>AddSampleLog</title>
<path fill="lightskyblue" stroke="black" d="M794.55,-342C794.55,-342 697.55,-342 697.55,-342 691.55,-342 685.55,-336 685.55,-330 685.55,-330 685.55,-318 685.55,-318 685.55,-312 691.55,-306 697.55,-306 697.55,-306 794.55,-306 794.55,-306 800.55,-306 806.55,-312 806.55,-318 806.55,-318 806.55,-330 806.55,-330 806.55,-336 800.55,-342 794.55,-342"/>
<text text-anchor="middle" x="746.05" y="-320.3" font-family="Helvetica,sans-Serif" font-size="14.00">AddSampleLog</text>
</g>
<!-- CreateWorkspace&#45;&gt;AddSampleLog -->
<g id="edge42" class="edge">
<title>CreateWorkspace&#45;&gt;AddSampleLog</title>
<path fill="none" stroke="black" d="M666.73,-378.63C680.08,-369.61 696.59,-358.44 711.08,-348.64"/>
<polygon fill="black" stroke="black" points="712.68,-351.78 719.01,-343.28 708.76,-345.99 712.68,-351.78"/>
</g>
<!-- interpolate -->
<g id="node32" class="node">
<title>interpolate</title>
<polygon fill="limegreen" stroke="black" points="746.05,-269 661.42,-251 746.05,-233 830.67,-251 746.05,-269"/>
<text text-anchor="middle" x="746.05" y="-247.3" font-family="Helvetica,sans-Serif" font-size="14.00">Interpolate</text>
</g>
<!-- AddSampleLog&#45;&gt;interpolate -->
<g id="edge44" class="edge">
<title>AddSampleLog&#45;&gt;interpolate</title>
<path fill="none" stroke="black" d="M746.05,-305.81C746.05,-298.23 746.05,-289.1 746.05,-280.54"/>
<polygon fill="black" stroke="black" points="749.55,-280.54 746.05,-270.54 742.55,-280.54 749.55,-280.54"/>
</g>
<!-- GroupWorkspaces -->
<g id="node27" class="node">
<title>GroupWorkspaces</title>
<path fill="lightskyblue" stroke="black" d="M805.55,-109C805.55,-109 686.55,-109 686.55,-109 680.55,-109 674.55,-103 674.55,-97 674.55,-97 674.55,-85 674.55,-85 674.55,-79 680.55,-73 686.55,-73 686.55,-73 805.55,-73 805.55,-73 811.55,-73 817.55,-79 817.55,-85 817.55,-85 817.55,-97 817.55,-97 817.55,-103 811.55,-109 805.55,-109"/>
<text text-anchor="middle" x="746.05" y="-87.3" font-family="Helvetica,sans-Serif" font-size="14.00">GroupWorkspaces</text>
</g>
<!-- GroupWorkspaces&#45;&gt;OutputWorkspace -->
<g id="edge48" class="edge">
<title>GroupWorkspaces&#45;&gt;OutputWorkspace</title>
<path fill="none" stroke="black" d="M746.05,-72.81C746.05,-65.23 746.05,-56.1 746.05,-47.54"/>
<polygon fill="black" stroke="black" points="749.55,-47.54 746.05,-37.54 742.55,-47.54 749.55,-47.54"/>
</g>
<!-- SplineInterpolation -->
<g id="node28" class="node">
<title>SplineInterpolation</title>
<path fill="lightskyblue" stroke="black" d="M753.05,-182C753.05,-182 629.05,-182 629.05,-182 623.05,-182 617.05,-176 617.05,-170 617.05,-170 617.05,-158 617.05,-158 617.05,-152 623.05,-146 629.05,-146 629.05,-146 753.05,-146 753.05,-146 759.05,-146 765.05,-152 765.05,-158 765.05,-158 765.05,-170 765.05,-170 765.05,-176 759.05,-182 753.05,-182"/>
<text text-anchor="middle" x="691.05" y="-160.3" font-family="Helvetica,sans-Serif" font-size="14.00">SplineInterpolation</text>
</g>
<!-- SplineInterpolation&#45;&gt;GroupWorkspaces -->
<g id="edge46" class="edge">
<title>SplineInterpolation&#45;&gt;GroupWorkspaces</title>
<path fill="none" stroke="black" d="M704.36,-145.81C710.85,-137.44 718.78,-127.2 725.98,-117.9"/>
<polygon fill="black" stroke="black" points="728.57,-120.27 731.93,-110.23 723.04,-115.99 728.57,-120.27"/>
</g>
<!-- useCan&#45;&gt;CanWorkspace -->
<g id="edge5" class="edge">
<title>useCan&#45;&gt;CanWorkspace</title>
<path fill="none" stroke="black" d="M864.57,-1639.8C857.14,-1627.89 846.62,-1611.02 837.78,-1596.84"/>
<polygon fill="black" stroke="black" points="840.78,-1595.03 832.51,-1588.39 834.84,-1598.73 840.78,-1595.03"/>
<text text-anchor="middle" x="862.55" y="-1608.8" font-family="Helvetica,sans-Serif" font-size="14.00">Yes</text>
</g>
<!-- useCan&#45;&gt;detAngles -->
<g id="edge10" class="edge">
<title>useCan&#45;&gt;detAngles</title>
<path fill="none" stroke="black" d="M884.2,-1639.85C892.46,-1626.57 903.47,-1606.4 908.05,-1587 911.72,-1571.43 912,-1566.5 908.05,-1551 897.05,-1507.92 869.89,-1463.81 850.96,-1436.67"/>
<polygon fill="black" stroke="black" points="853.93,-1434.81 845.28,-1428.7 848.23,-1438.87 853.93,-1434.81"/>
<text text-anchor="middle" x="912.55" y="-1521.8" font-family="Helvetica,sans-Serif" font-size="14.00">No</text>
</g>
<!-- useCan2 -->
<g id="node30" class="node">
<title>useCan2</title>
<polygon fill="limegreen" stroke="black" points="898.05,-1135 818.95,-1117 898.05,-1099 977.14,-1117 898.05,-1135"/>
<text text-anchor="middle" x="898.05" y="-1113.3" font-family="Helvetica,sans-Serif" font-size="14.00">Using can</text>
</g>
<!-- useCan2&#45;&gt;data -->
<g id="edge20" class="edge">
<title>useCan2&#45;&gt;data</title>
<path fill="none" stroke="black" d="M848.43,-1109.85C731.34,-1095.34 436.89,-1058.86 293.3,-1041.07"/>
<polygon fill="black" stroke="black" points="293.83,-1037.61 283.48,-1039.85 292.97,-1044.55 293.83,-1037.61"/>
<text text-anchor="middle" x="608.55" y="-1069.8" font-family="Helvetica,sans-Serif" font-size="14.00">Yes</text>
</g>
<!-- processedAngles -->
<g id="node33" class="node">
<title>processedAngles</title>
<polygon fill="limegreen" stroke="black" points="851.05,-829 706.93,-811 851.05,-793 995.16,-811 851.05,-829"/>
<text text-anchor="middle" x="851.05" y="-807.3" font-family="Helvetica,sans-Serif" font-size="14.00">Processed all angles</text>
</g>
<!-- useCan2&#45;&gt;processedAngles -->
<g id="edge19" class="edge">
<title>useCan2&#45;&gt;processedAngles</title>
<path fill="none" stroke="black" d="M902.4,-1099.52C906.51,-1082.49 912.05,-1055.08 912.05,-1031 912.05,-1031 912.05,-1031 912.05,-883 912.05,-863.08 898.06,-845.96 883.49,-833.53"/>
<polygon fill="black" stroke="black" points="885.66,-830.79 875.64,-827.34 881.33,-836.28 885.66,-830.79"/>
<text text-anchor="middle" x="921.55" y="-953.3" font-family="Helvetica,sans-Serif" font-size="14.00">No</text>
</g>
<!-- useCan3&#45;&gt;data2 -->
<g id="edge33" class="edge">
<title>useCan3&#45;&gt;data2</title>
<path fill="none" stroke="black" d="M621.69,-632.97C622.3,-616.76 623.23,-592.06 623.96,-572.79"/>
<polygon fill="black" stroke="black" points="627.45,-572.98 624.33,-562.85 620.46,-572.71 627.45,-572.98"/>
<text text-anchor="middle" x="635.55" y="-593.3" font-family="Helvetica,sans-Serif" font-size="14.00">Yes</text>
</g>
<!-- interpolate&#45;&gt;GroupWorkspaces -->
<g id="edge47" class="edge">
<title>interpolate&#45;&gt;GroupWorkspaces</title>
<path fill="none" stroke="black" d="M755.2,-234.55C766.05,-214.3 781.75,-177.61 774.05,-146 771.79,-136.77 767.66,-127.35 763.26,-119.02"/>
<polygon fill="black" stroke="black" points="766.38,-117.43 758.39,-110.47 760.29,-120.89 766.38,-117.43"/>
<text text-anchor="middle" x="786.55" y="-160.3" font-family="Helvetica,sans-Serif" font-size="14.00">No</text>
</g>
<!-- interpolate&#45;&gt;SplineInterpolation -->
<g id="edge45" class="edge">
<title>interpolate&#45;&gt;SplineInterpolation</title>
<path fill="none" stroke="black" d="M736.21,-234.8C728.48,-222.85 717.52,-205.91 708.33,-191.71"/>
<polygon fill="black" stroke="black" points="711.5,-190.17 703.13,-183.68 705.63,-193.98 711.5,-190.17"/>
<text text-anchor="middle" x="733.55" y="-203.8" font-family="Helvetica,sans-Serif" font-size="14.00">Yes</text>
</g>
<!-- processedAngles&#45;&gt;Angles -->
<g id="edge28" class="edge">
<title>processedAngles&#45;&gt;Angles</title>
<path fill="none" stroke="black" d="M929.85,-819.63C967.74,-828.13 1005.05,-845.9 1005.05,-883 1005.05,-1264 1005.05,-1264 1005.05,-1264 1005.05,-1316.78 935.57,-1331.21 884.42,-1334.68"/>
<polygon fill="black" stroke="black" points="884.47,-1331.17 874.68,-1335.2 884.85,-1338.16 884.47,-1331.17"/>
<text text-anchor="middle" x="1014.55" y="-1069.8" font-family="Helvetica,sans-Serif" font-size="14.00">No</text>
</g>
<!-- processedAngles&#45;&gt;data1 -->
<g id="edge29" class="edge">
<title>processedAngles&#45;&gt;data1</title>
<path fill="none" stroke="black" d="M805.37,-798.27C747.53,-783.42 647.61,-757.76 582.68,-741.08"/>
<polygon fill="black" stroke="black" points="583.8,-737.76 573.25,-738.66 582.06,-744.54 583.8,-737.76"/>
<text text-anchor="middle" x="717.55" y="-763.8" font-family="Helvetica,sans-Serif" font-size="14.00">Yes</text>
</g>
<!-- detAngles&#45;&gt;Angles -->
<g id="edge11" class="edge">
<title>detAngles&#45;&gt;Angles</title>
<path fill="none" stroke="black" d="M831.05,-1390.81C831.05,-1383.23 831.05,-1374.1 831.05,-1365.54"/>
<polygon fill="black" stroke="black" points="834.55,-1365.54 831.05,-1355.54 827.55,-1365.54 834.55,-1365.54"/>
</g>
<!-- flatAbs&#45;&gt;data -->
<g id="edge17" class="edge">
<title>flatAbs&#45;&gt;data</title>
<path fill="none" stroke="black" d="M503.12,-1171.64C442.45,-1142.33 319.99,-1083.15 254.93,-1051.72"/>
<polygon fill="black" stroke="black" points="256.51,-1048.6 245.98,-1047.4 253.46,-1054.9 256.51,-1048.6"/>
</g>
<!-- flatAbs&#45;&gt;useCan2 -->
<g id="edge18" class="edge">
<title>flatAbs&#45;&gt;useCan2</title>
<path fill="none" stroke="black" d="M627.33,-1171.54C696.03,-1157.95 789.02,-1139.56 846.2,-1128.25"/>
<polygon fill="black" stroke="black" points="846.52,-1131.76 855.66,-1126.38 845.17,-1124.89 846.52,-1131.76"/>
</g>
<!-- flatAbsCan&#45;&gt;data1 -->
<g id="edge25" class="edge">
<title>flatAbsCan&#45;&gt;data1</title>
<path fill="none" stroke="black" d="M520.05,-865.79C520.05,-838.84 520.05,-786.38 520.05,-753.67"/>
<polygon fill="black" stroke="black" points="523.55,-753.7 520.05,-743.7 516.55,-753.7 523.55,-753.7"/>
</g>
<!-- flatAbsCan&#45;&gt;processedAngles -->
<g id="edge26" class="edge">
<title>flatAbsCan&#45;&gt;processedAngles</title>
<path fill="none" stroke="black" d="M601.44,-865.54C659.34,-853.12 735.95,-836.69 788.95,-825.32"/>
<polygon fill="black" stroke="black" points="789.36,-828.81 798.41,-823.29 787.89,-821.97 789.36,-828.81"/>
</g>
<!-- CurrentAngle&#45;&gt;flatAbs -->
<g id="edge13" class="edge">
<title>CurrentAngle&#45;&gt;flatAbs</title>
<path fill="none" stroke="black" d="M631.04,-1245.89C615.34,-1236.52 595.27,-1224.55 577.89,-1214.18"/>
<polygon fill="black" stroke="black" points="579.7,-1211.18 569.32,-1209.06 576.11,-1217.19 579.7,-1211.18"/>
</g>
<!-- data_x&#45;&gt;CreateWorkspace -->
<g id="edge41" class="edge">
<title>data_x&#45;&gt;CreateWorkspace</title>
<path fill="none" stroke="black" d="M841.27,-458.08C835.25,-456.01 828.96,-453.9 823.05,-452 786.95,-440.39 746.54,-428.31 712.98,-418.52"/>
<polygon fill="black" stroke="black" points="714.37,-415.28 703.79,-415.85 712.42,-422.01 714.37,-415.28"/>
</g>
<!-- samplelogs -->
<g id="node39" class="node">
<title>samplelogs</title>
<ellipse fill="lightgrey" stroke="black" cx="790.05" cy="-397" rx="61.99" ry="18"/>
<text text-anchor="middle" x="790.05" y="-393.3" font-family="Helvetica,sans-Serif" font-size="14.00">samplelogs</text>
</g>
<!-- samplelogs&#45;&gt;AddSampleLog -->
<g id="edge43" class="edge">
<title>samplelogs&#45;&gt;AddSampleLog</title>
<path fill="none" stroke="black" d="M779.39,-378.81C774.37,-370.7 768.25,-360.84 762.64,-351.78"/>
<polygon fill="black" stroke="black" points="765.64,-349.97 757.4,-343.32 759.69,-353.66 765.64,-349.97"/>
</g>
</g>
</svg>
