<?xml version="1.0" encoding="UTF-8" standalone="no"?>
<!DOCTYPE svg PUBLIC "-//W3C//DTD SVG 1.1//EN"
 "http://www.w3.org/Graphics/SVG/1.1/DTD/svg11.dtd">
<!-- Generated by graphviz version 7.1.0 (20230122.1345)
 -->
<!-- Title: IndirectFlatePlateAbsorption Pages: 1 -->
<svg width="1475pt" height="1844pt"
 viewBox="0.00 0.00 1475.13 1844.00" xmlns="http://www.w3.org/2000/svg" xmlns:xlink="http://www.w3.org/1999/xlink">
<g id="graph0" class="graph" transform="scale(1 1) rotate(0) translate(4 1840)">
<title>IndirectFlatePlateAbsorption</title>
<polygon fill="white" stroke="none" points="-4,4 -4,-1840 1471.13,-1840 1471.13,4 -4,4"/>
<text text-anchor="middle" x="733.57" y="-1820.8" font-family="Helvetica,sans-Serif" font-size="14.00">IndirectFlatePlateAbsorption Flowchart</text>
<!-- SampleWorkspace1 -->
<g id="node1" class="node">
<title>SampleWorkspace1</title>
<ellipse fill="khaki" stroke="black" cx="726.09" cy="-1795" rx="94.48" ry="18"/>
<text text-anchor="middle" x="726.09" y="-1791.3" font-family="Helvetica,sans-Serif" font-size="14.00">SampleWorkspace</text>
</g>
<!-- GetEFixed -->
<g id="node25" class="node">
<title>GetEFixed</title>
<path fill="lightskyblue" stroke="black" d="M721.09,-1740C721.09,-1740 659.09,-1740 659.09,-1740 653.09,-1740 647.09,-1734 647.09,-1728 647.09,-1728 647.09,-1716 647.09,-1716 647.09,-1710 653.09,-1704 659.09,-1704 659.09,-1704 721.09,-1704 721.09,-1704 727.09,-1704 733.09,-1710 733.09,-1716 733.09,-1716 733.09,-1728 733.09,-1728 733.09,-1734 727.09,-1740 721.09,-1740"/>
<text text-anchor="middle" x="690.09" y="-1718.3" font-family="Helvetica,sans-Serif" font-size="14.00">GetEFixed</text>
</g>
<!-- SampleWorkspace1&#45;&gt;GetEFixed -->
<g id="edge1" class="edge">
<title>SampleWorkspace1&#45;&gt;GetEFixed</title>
<path fill="none" stroke="black" d="M717.38,-1776.81C713.31,-1768.79 708.37,-1759.05 703.82,-1750.07"/>
<polygon fill="black" stroke="black" points="707.06,-1748.71 699.41,-1741.38 700.81,-1751.88 707.06,-1748.71"/>
</g>
<!-- ConvertUnits1 -->
<g id="node26" class="node">
<title>ConvertUnits1</title>
<path fill="lightskyblue" stroke="black" d="M805.59,-1594C805.59,-1594 722.59,-1594 722.59,-1594 716.59,-1594 710.59,-1588 710.59,-1582 710.59,-1582 710.59,-1570 710.59,-1570 710.59,-1564 716.59,-1558 722.59,-1558 722.59,-1558 805.59,-1558 805.59,-1558 811.59,-1558 817.59,-1564 817.59,-1570 817.59,-1570 817.59,-1582 817.59,-1582 817.59,-1588 811.59,-1594 805.59,-1594"/>
<text text-anchor="middle" x="764.09" y="-1572.3" font-family="Helvetica,sans-Serif" font-size="14.00">ConvertUnits</text>
</g>
<!-- SampleWorkspace1&#45;&gt;ConvertUnits1 -->
<g id="edge4" class="edge">
<title>SampleWorkspace1&#45;&gt;ConvertUnits1</title>
<path fill="none" stroke="black" d="M731.97,-1776.67C735.35,-1766.16 739.43,-1752.43 742.09,-1740 752.07,-1693.45 758.38,-1638.41 761.57,-1605.67"/>
<polygon fill="black" stroke="black" points="765.05,-1606.07 762.5,-1595.79 758.08,-1605.42 765.05,-1606.07"/>
</g>
<!-- SampleWorkspace2 -->
<g id="node2" class="node">
<title>SampleWorkspace2</title>
<ellipse fill="khaki" stroke="black" cx="336.09" cy="-543" rx="94.48" ry="18"/>
<text text-anchor="middle" x="336.09" y="-539.3" font-family="Helvetica,sans-Serif" font-size="14.00">SampleWorkspace</text>
</g>
<!-- Minus1 -->
<g id="node37" class="node">
<title>Minus1</title>
<path fill="lightskyblue" stroke="black" d="M415.09,-415C415.09,-415 381.09,-415 381.09,-415 375.09,-415 369.09,-409 369.09,-403 369.09,-403 369.09,-391 369.09,-391 369.09,-385 375.09,-379 381.09,-379 381.09,-379 415.09,-379 415.09,-379 421.09,-379 427.09,-385 427.09,-391 427.09,-391 427.09,-403 427.09,-403 427.09,-409 421.09,-415 415.09,-415"/>
<text text-anchor="middle" x="398.09" y="-393.3" font-family="Helvetica,sans-Serif" font-size="14.00">Minus</text>
</g>
<!-- SampleWorkspace2&#45;&gt;Minus1 -->
<g id="edge35" class="edge">
<title>SampleWorkspace2&#45;&gt;Minus1</title>
<path fill="none" stroke="black" d="M343.57,-524.63C354.14,-500.09 373.55,-455 386.13,-425.78"/>
<polygon fill="black" stroke="black" points="389.25,-427.39 389.99,-416.82 382.82,-424.62 389.25,-427.39"/>
</g>
<!-- Minus2 -->
<g id="node38" class="node">
<title>Minus2</title>
<path fill="lightskyblue" stroke="black" d="M296.09,-488C296.09,-488 262.09,-488 262.09,-488 256.09,-488 250.09,-482 250.09,-476 250.09,-476 250.09,-464 250.09,-464 250.09,-458 256.09,-452 262.09,-452 262.09,-452 296.09,-452 296.09,-452 302.09,-452 308.09,-458 308.09,-464 308.09,-464 308.09,-476 308.09,-476 308.09,-482 302.09,-488 296.09,-488"/>
<text text-anchor="middle" x="279.09" y="-466.3" font-family="Helvetica,sans-Serif" font-size="14.00">Minus</text>
</g>
<!-- SampleWorkspace2&#45;&gt;Minus2 -->
<g id="edge37" class="edge">
<title>SampleWorkspace2&#45;&gt;Minus2</title>
<path fill="none" stroke="black" d="M322.3,-524.81C315.57,-516.44 307.35,-506.2 299.89,-496.9"/>
<polygon fill="black" stroke="black" points="302.7,-494.82 293.71,-489.21 297.24,-499.2 302.7,-494.82"/>
</g>
<!-- SampleWorkspace_Wave -->
<g id="node3" class="node">
<title>SampleWorkspace_Wave</title>
<ellipse fill="khaki" stroke="black" cx="833.09" cy="-1489" rx="123.48" ry="18"/>
<text text-anchor="middle" x="833.09" y="-1485.3" font-family="Helvetica,sans-Serif" font-size="14.00">SampleWorkspace_Wave</text>
</g>
<!-- SetSampleMaterial1 -->
<g id="node29" class="node">
<title>SetSampleMaterial1</title>
<path fill="lightskyblue" stroke="black" d="M1085.09,-1434C1085.09,-1434 963.09,-1434 963.09,-1434 957.09,-1434 951.09,-1428 951.09,-1422 951.09,-1422 951.09,-1410 951.09,-1410 951.09,-1404 957.09,-1398 963.09,-1398 963.09,-1398 1085.09,-1398 1085.09,-1398 1091.09,-1398 1097.09,-1404 1097.09,-1410 1097.09,-1410 1097.09,-1422 1097.09,-1422 1097.09,-1428 1091.09,-1434 1085.09,-1434"/>
<text text-anchor="middle" x="1024.09" y="-1412.3" font-family="Helvetica,sans-Serif" font-size="14.00">SetSampleMaterial</text>
</g>
<!-- SampleWorkspace_Wave&#45;&gt;SetSampleMaterial1 -->
<g id="edge6" class="edge">
<title>SampleWorkspace_Wave&#45;&gt;SetSampleMaterial1</title>
<path fill="none" stroke="black" d="M876.91,-1471.71C903.48,-1461.84 937.67,-1449.12 966.42,-1438.44"/>
<polygon fill="black" stroke="black" points="967.57,-1441.75 975.72,-1434.98 965.13,-1435.18 967.57,-1441.75"/>
</g>
<!-- SampleWorkspace_Wave2 -->
<g id="node4" class="node">
<title>SampleWorkspace_Wave2</title>
<ellipse fill="khaki" stroke="black" cx="398.09" cy="-324" rx="123.48" ry="18"/>
<text text-anchor="middle" x="398.09" y="-320.3" font-family="Helvetica,sans-Serif" font-size="14.00">SampleWorkspace_Wave</text>
</g>
<!-- ConvertUnits3 -->
<g id="node28" class="node">
<title>ConvertUnits3</title>
<path fill="lightskyblue" stroke="black" d="M439.59,-255C439.59,-255 356.59,-255 356.59,-255 350.59,-255 344.59,-249 344.59,-243 344.59,-243 344.59,-231 344.59,-231 344.59,-225 350.59,-219 356.59,-219 356.59,-219 439.59,-219 439.59,-219 445.59,-219 451.59,-225 451.59,-231 451.59,-231 451.59,-243 451.59,-243 451.59,-249 445.59,-255 439.59,-255"/>
<text text-anchor="middle" x="398.09" y="-233.3" font-family="Helvetica,sans-Serif" font-size="14.00">ConvertUnits</text>
</g>
<!-- SampleWorkspace_Wave2&#45;&gt;ConvertUnits3 -->
<g id="edge45" class="edge">
<title>SampleWorkspace_Wave2&#45;&gt;ConvertUnits3</title>
<path fill="none" stroke="black" d="M398.09,-305.8C398.09,-294.58 398.09,-279.67 398.09,-266.69"/>
<polygon fill="black" stroke="black" points="401.59,-266.98 398.09,-256.98 394.59,-266.98 401.59,-266.98"/>
<text text-anchor="middle" x="478.09" y="-276.8" font-family="Helvetica,sans-Serif" font-size="14.00">Convert back to DeltaE</text>
</g>
<!-- SampleWorkspace_Wave3 -->
<g id="node5" class="node">
<title>SampleWorkspace_Wave3</title>
<ellipse fill="khaki" stroke="black" cx="796.09" cy="-1197" rx="123.48" ry="18"/>
<text text-anchor="middle" x="796.09" y="-1193.3" font-family="Helvetica,sans-Serif" font-size="14.00">SampleWorkspace_Wave</text>
</g>
<!-- Divide3 -->
<g id="node36" class="node">
<title>Divide3</title>
<path fill="lightskyblue" stroke="black" d="M814.09,-1128C814.09,-1128 778.09,-1128 778.09,-1128 772.09,-1128 766.09,-1122 766.09,-1116 766.09,-1116 766.09,-1104 766.09,-1104 766.09,-1098 772.09,-1092 778.09,-1092 778.09,-1092 814.09,-1092 814.09,-1092 820.09,-1092 826.09,-1098 826.09,-1104 826.09,-1104 826.09,-1116 826.09,-1116 826.09,-1122 820.09,-1128 814.09,-1128"/>
<text text-anchor="middle" x="796.09" y="-1106.3" font-family="Helvetica,sans-Serif" font-size="14.00">Divide</text>
</g>
<!-- SampleWorkspace_Wave3&#45;&gt;Divide3 -->
<g id="edge41" class="edge">
<title>SampleWorkspace_Wave3&#45;&gt;Divide3</title>
<path fill="none" stroke="black" d="M796.09,-1178.8C796.09,-1167.58 796.09,-1152.67 796.09,-1139.69"/>
<polygon fill="black" stroke="black" points="799.59,-1139.98 796.09,-1129.98 792.59,-1139.98 799.59,-1139.98"/>
</g>
<!-- SampleChemicalFormula -->
<g id="node6" class="node">
<title>SampleChemicalFormula</title>
<ellipse fill="khaki" stroke="black" cx="1097.09" cy="-1489" rx="122.38" ry="18"/>
<text text-anchor="middle" x="1097.09" y="-1485.3" font-family="Helvetica,sans-Serif" font-size="14.00">SampleChemicalFormula</text>
</g>
<!-- SampleChemicalFormula&#45;&gt;SetSampleMaterial1 -->
<g id="edge7" class="edge">
<title>SampleChemicalFormula&#45;&gt;SetSampleMaterial1</title>
<path fill="none" stroke="black" d="M1079.42,-1470.81C1070.61,-1462.24 1059.78,-1451.71 1050.05,-1442.24"/>
<polygon fill="black" stroke="black" points="1052.55,-1439.79 1042.94,-1435.33 1047.67,-1444.81 1052.55,-1439.79"/>
</g>
<!-- SampleNumberDensity -->
<g id="node7" class="node">
<title>SampleNumberDensity</title>
<ellipse fill="khaki" stroke="black" cx="1352.09" cy="-1489" rx="115.08" ry="18"/>
<text text-anchor="middle" x="1352.09" y="-1485.3" font-family="Helvetica,sans-Serif" font-size="14.00">SampleNumberDensity</text>
</g>
<!-- SampleNumberDensity&#45;&gt;SetSampleMaterial1 -->
<g id="edge8" class="edge">
<title>SampleNumberDensity&#45;&gt;SetSampleMaterial1</title>
<path fill="none" stroke="black" d="M1286.51,-1473.8C1235.43,-1462.75 1164.16,-1447.32 1108.78,-1435.33"/>
<polygon fill="black" stroke="black" points="1109.56,-1431.92 1099.05,-1433.22 1108.08,-1438.76 1109.56,-1431.92"/>
</g>
<!-- SampleHeight1 -->
<g id="node8" class="node">
<title>SampleHeight1</title>
<ellipse fill="khaki" stroke="black" cx="74.09" cy="-1416" rx="74.19" ry="18"/>
<text text-anchor="middle" x="74.09" y="-1412.3" font-family="Helvetica,sans-Serif" font-size="14.00">SampleHeight</text>
</g>
<!-- FlatPlateAbsorption1 -->
<g id="node31" class="node">
<title>FlatPlateAbsorption1</title>
<path fill="lightskyblue" stroke="black" d="M565.09,-1361C565.09,-1361 437.09,-1361 437.09,-1361 431.09,-1361 425.09,-1355 425.09,-1349 425.09,-1349 425.09,-1337 425.09,-1337 425.09,-1331 431.09,-1325 437.09,-1325 437.09,-1325 565.09,-1325 565.09,-1325 571.09,-1325 577.09,-1331 577.09,-1337 577.09,-1337 577.09,-1349 577.09,-1349 577.09,-1355 571.09,-1361 565.09,-1361"/>
<text text-anchor="middle" x="501.09" y="-1339.3" font-family="Helvetica,sans-Serif" font-size="14.00">FlatePlatAbsorption</text>
</g>
<!-- SampleHeight1&#45;&gt;FlatPlateAbsorption1 -->
<g id="edge10" class="edge">
<title>SampleHeight1&#45;&gt;FlatPlateAbsorption1</title>
<path fill="none" stroke="black" d="M128.49,-1403.48C138.01,-1401.57 147.83,-1399.67 157.09,-1398 244.02,-1382.28 343.78,-1366.92 413.41,-1356.62"/>
<polygon fill="black" stroke="black" points="413.87,-1360.09 423.25,-1355.17 412.85,-1353.16 413.87,-1360.09"/>
</g>
<!-- SampleWidth1 -->
<g id="node9" class="node">
<title>SampleWidth1</title>
<ellipse fill="khaki" stroke="black" cx="237.09" cy="-1416" rx="70.69" ry="18"/>
<text text-anchor="middle" x="237.09" y="-1412.3" font-family="Helvetica,sans-Serif" font-size="14.00">SampleWidth</text>
</g>
<!-- SampleWidth1&#45;&gt;FlatPlateAbsorption1 -->
<g id="edge11" class="edge">
<title>SampleWidth1&#45;&gt;FlatPlateAbsorption1</title>
<path fill="none" stroke="black" d="M284.6,-1402.22C323.68,-1391.71 379.82,-1376.62 425.14,-1364.43"/>
<polygon fill="black" stroke="black" points="425.9,-1367.85 434.65,-1361.87 424.08,-1361.09 425.9,-1367.85"/>
</g>
<!-- SampleThickness -->
<g id="node10" class="node">
<title>SampleThickness</title>
<ellipse fill="khaki" stroke="black" cx="415.09" cy="-1416" rx="89.08" ry="18"/>
<text text-anchor="middle" x="415.09" y="-1412.3" font-family="Helvetica,sans-Serif" font-size="14.00">SampleThickness</text>
</g>
<!-- SampleThickness&#45;&gt;FlatPlateAbsorption1 -->
<g id="edge12" class="edge">
<title>SampleThickness&#45;&gt;FlatPlateAbsorption1</title>
<path fill="none" stroke="black" d="M435.47,-1398.17C446.16,-1389.35 459.45,-1378.38 471.28,-1368.62"/>
<polygon fill="black" stroke="black" points="473.31,-1371.48 478.79,-1362.41 468.85,-1366.08 473.31,-1371.48"/>
</g>
<!-- AbsWorkspace1 -->
<g id="node11" class="node">
<title>AbsWorkspace1</title>
<ellipse fill="khaki" stroke="black" cx="501.09" cy="-1270" rx="109.68" ry="18"/>
<text text-anchor="middle" x="501.09" y="-1266.3" font-family="Helvetica,sans-Serif" font-size="14.00">AbsorptionWorkspace</text>
</g>
<!-- canGiven -->
<g id="node41" class="node">
<title>canGiven</title>
<polygon fill="limegreen" stroke="black" points="501.09,-1215 379.94,-1197 501.09,-1179 622.25,-1197 501.09,-1215"/>
<text text-anchor="middle" x="501.09" y="-1193.3" font-family="Helvetica,sans-Serif" font-size="14.00">Can Workspace?</text>
</g>
<!-- AbsWorkspace1&#45;&gt;canGiven -->
<g id="edge16" class="edge">
<title>AbsWorkspace1&#45;&gt;canGiven</title>
<path fill="none" stroke="black" d="M501.09,-1251.81C501.09,-1244.23 501.09,-1235.1 501.09,-1226.54"/>
<polygon fill="black" stroke="black" points="504.59,-1226.54 501.09,-1216.54 497.59,-1226.54 504.59,-1226.54"/>
</g>
<!-- AbsWorkspace2 -->
<g id="node12" class="node">
<title>AbsWorkspace2</title>
<ellipse fill="khaki" stroke="black" cx="122.09" cy="-470" rx="109.68" ry="18"/>
<text text-anchor="middle" x="122.09" y="-466.3" font-family="Helvetica,sans-Serif" font-size="14.00">AbsorptionWorkspace</text>
</g>
<!-- Divide2 -->
<g id="node35" class="node">
<title>Divide2</title>
<path fill="lightskyblue" stroke="black" d="M297.09,-415C297.09,-415 261.09,-415 261.09,-415 255.09,-415 249.09,-409 249.09,-403 249.09,-403 249.09,-391 249.09,-391 249.09,-385 255.09,-379 261.09,-379 261.09,-379 297.09,-379 297.09,-379 303.09,-379 309.09,-385 309.09,-391 309.09,-391 309.09,-403 309.09,-403 309.09,-409 303.09,-415 297.09,-415"/>
<text text-anchor="middle" x="279.09" y="-393.3" font-family="Helvetica,sans-Serif" font-size="14.00">Divide</text>
</g>
<!-- AbsWorkspace2&#45;&gt;Divide2 -->
<g id="edge39" class="edge">
<title>AbsWorkspace2&#45;&gt;Divide2</title>
<path fill="none" stroke="black" d="M158.11,-452.71C182.11,-441.86 213.7,-427.57 238.58,-416.32"/>
<polygon fill="black" stroke="black" points="239.74,-419.64 247.41,-412.33 236.85,-413.26 239.74,-419.64"/>
</g>
<!-- CanWorkspace -->
<g id="node13" class="node">
<title>CanWorkspace</title>
<ellipse fill="khaki" stroke="black" cx="306.09" cy="-1110" rx="77.99" ry="18"/>
<text text-anchor="middle" x="306.09" y="-1106.3" font-family="Helvetica,sans-Serif" font-size="14.00">CanWorkspace</text>
</g>
<!-- ConvertUnits2 -->
<g id="node27" class="node">
<title>ConvertUnits2</title>
<path fill="lightskyblue" stroke="black" d="M195.59,-1055C195.59,-1055 112.59,-1055 112.59,-1055 106.59,-1055 100.59,-1049 100.59,-1043 100.59,-1043 100.59,-1031 100.59,-1031 100.59,-1025 106.59,-1019 112.59,-1019 112.59,-1019 195.59,-1019 195.59,-1019 201.59,-1019 207.59,-1025 207.59,-1031 207.59,-1031 207.59,-1043 207.59,-1043 207.59,-1049 201.59,-1055 195.59,-1055"/>
<text text-anchor="middle" x="154.09" y="-1033.3" font-family="Helvetica,sans-Serif" font-size="14.00">ConvertUnits</text>
</g>
<!-- CanWorkspace&#45;&gt;ConvertUnits2 -->
<g id="edge18" class="edge">
<title>CanWorkspace&#45;&gt;ConvertUnits2</title>
<path fill="none" stroke="black" d="M272.74,-1093.42C251.9,-1083.68 224.73,-1070.99 201.65,-1060.22"/>
<polygon fill="black" stroke="black" points="203.29,-1057.12 192.75,-1056.05 200.33,-1063.46 203.29,-1057.12"/>
</g>
<!-- CanWorkspace_Wave -->
<g id="node14" class="node">
<title>CanWorkspace_Wave</title>
<ellipse fill="khaki" stroke="black" cx="138.09" cy="-950" rx="107.48" ry="18"/>
<text text-anchor="middle" x="138.09" y="-946.3" font-family="Helvetica,sans-Serif" font-size="14.00">CanWorkspace_Wave</text>
</g>
<!-- canScale -->
<g id="node42" class="node">
<title>canScale</title>
<polygon fill="limegreen" stroke="black" points="132.09,-895 47.47,-877 132.09,-859 216.72,-877 132.09,-895"/>
<text text-anchor="middle" x="132.09" y="-873.3" font-family="Helvetica,sans-Serif" font-size="14.00">Can Scale?</text>
</g>
<!-- CanWorkspace_Wave&#45;&gt;canScale -->
<g id="edge21" class="edge">
<title>CanWorkspace_Wave&#45;&gt;canScale</title>
<path fill="none" stroke="black" d="M136.64,-931.81C135.99,-924.14 135.21,-914.89 134.48,-906.24"/>
<polygon fill="black" stroke="black" points="137.99,-906.21 133.66,-896.54 131.01,-906.8 137.99,-906.21"/>
</g>
<!-- CanScale -->
<g id="node15" class="node">
<title>CanScale</title>
<ellipse fill="khaki" stroke="black" cx="287.09" cy="-877" rx="51.99" ry="18"/>
<text text-anchor="middle" x="287.09" y="-873.3" font-family="Helvetica,sans-Serif" font-size="14.00">CanScale</text>
</g>
<!-- Scale -->
<g id="node33" class="node">
<title>Scale</title>
<path fill="lightskyblue" stroke="black" d="M301.09,-808C301.09,-808 271.09,-808 271.09,-808 265.09,-808 259.09,-802 259.09,-796 259.09,-796 259.09,-784 259.09,-784 259.09,-778 265.09,-772 271.09,-772 271.09,-772 301.09,-772 301.09,-772 307.09,-772 313.09,-778 313.09,-784 313.09,-784 313.09,-796 313.09,-796 313.09,-802 307.09,-808 301.09,-808"/>
<text text-anchor="middle" x="286.09" y="-786.3" font-family="Helvetica,sans-Serif" font-size="14.00">Scale</text>
</g>
<!-- CanScale&#45;&gt;Scale -->
<g id="edge23" class="edge">
<title>CanScale&#45;&gt;Scale</title>
<path fill="none" stroke="black" d="M286.89,-858.8C286.76,-847.58 286.58,-832.67 286.43,-819.69"/>
<polygon fill="black" stroke="black" points="289.93,-819.94 286.32,-809.98 282.93,-820.02 289.93,-819.94"/>
</g>
<!-- CanChemicalFormula -->
<g id="node16" class="node">
<title>CanChemicalFormula</title>
<ellipse fill="khaki" stroke="black" cx="453.09" cy="-717" rx="106.68" ry="18"/>
<text text-anchor="middle" x="453.09" y="-713.3" font-family="Helvetica,sans-Serif" font-size="14.00">CanChemicalFormula</text>
</g>
<!-- SetSampleMaterial2 -->
<g id="node30" class="node">
<title>SetSampleMaterial2</title>
<path fill="lightskyblue" stroke="black" d="M750.09,-648C750.09,-648 628.09,-648 628.09,-648 622.09,-648 616.09,-642 616.09,-636 616.09,-636 616.09,-624 616.09,-624 616.09,-618 622.09,-612 628.09,-612 628.09,-612 750.09,-612 750.09,-612 756.09,-612 762.09,-618 762.09,-624 762.09,-624 762.09,-636 762.09,-636 762.09,-642 756.09,-648 750.09,-648"/>
<text text-anchor="middle" x="689.09" y="-626.3" font-family="Helvetica,sans-Serif" font-size="14.00">SetSampleMaterial</text>
</g>
<!-- CanChemicalFormula&#45;&gt;SetSampleMaterial2 -->
<g id="edge27" class="edge">
<title>CanChemicalFormula&#45;&gt;SetSampleMaterial2</title>
<path fill="none" stroke="black" d="M496.93,-700.21C534.37,-686.73 588.57,-667.2 629.87,-652.33"/>
<polygon fill="black" stroke="black" points="630.97,-655.66 639.19,-648.97 628.59,-649.07 630.97,-655.66"/>
</g>
<!-- CanNumberDensity -->
<g id="node17" class="node">
<title>CanNumberDensity</title>
<ellipse fill="khaki" stroke="black" cx="676.09" cy="-717" rx="98.58" ry="18"/>
<text text-anchor="middle" x="676.09" y="-713.3" font-family="Helvetica,sans-Serif" font-size="14.00">CanNumberDensity</text>
</g>
<!-- CanNumberDensity&#45;&gt;SetSampleMaterial2 -->
<g id="edge28" class="edge">
<title>CanNumberDensity&#45;&gt;SetSampleMaterial2</title>
<path fill="none" stroke="black" d="M678.72,-698.8C680.44,-687.58 682.72,-672.67 684.71,-659.69"/>
<polygon fill="black" stroke="black" points="688.14,-660.38 686.19,-649.96 681.22,-659.32 688.14,-660.38"/>
</g>
<!-- CanFrontThickness -->
<g id="node18" class="node">
<title>CanFrontThickness</title>
<ellipse fill="khaki" stroke="black" cx="294.09" cy="-630" rx="96.38" ry="18"/>
<text text-anchor="middle" x="294.09" y="-626.3" font-family="Helvetica,sans-Serif" font-size="14.00">CanFrontThickness</text>
</g>
<!-- FlatPlateAbsorption2 -->
<g id="node32" class="node">
<title>FlatPlateAbsorption2</title>
<path fill="lightskyblue" stroke="black" d="M588.09,-561C588.09,-561 460.09,-561 460.09,-561 454.09,-561 448.09,-555 448.09,-549 448.09,-549 448.09,-537 448.09,-537 448.09,-531 454.09,-525 460.09,-525 460.09,-525 588.09,-525 588.09,-525 594.09,-525 600.09,-531 600.09,-537 600.09,-537 600.09,-549 600.09,-549 600.09,-555 594.09,-561 588.09,-561"/>
<text text-anchor="middle" x="524.09" y="-539.3" font-family="Helvetica,sans-Serif" font-size="14.00">FlatePlatAbsorption</text>
</g>
<!-- CanFrontThickness&#45;&gt;FlatPlateAbsorption2 -->
<g id="edge30" class="edge">
<title>CanFrontThickness&#45;&gt;FlatPlateAbsorption2</title>
<path fill="none" stroke="black" d="M336.28,-613.41C372.75,-599.93 425.82,-580.32 466.25,-565.38"/>
<polygon fill="black" stroke="black" points="467.44,-568.67 475.61,-561.92 465.01,-562.1 467.44,-568.67"/>
</g>
<!-- CanBackThickness -->
<g id="node19" class="node">
<title>CanBackThickness</title>
<ellipse fill="khaki" stroke="black" cx="503.09" cy="-630" rx="94.78" ry="18"/>
<text text-anchor="middle" x="503.09" y="-626.3" font-family="Helvetica,sans-Serif" font-size="14.00">CanBackThickness</text>
</g>
<!-- CanBackThickness&#45;&gt;FlatPlateAbsorption2 -->
<g id="edge31" class="edge">
<title>CanBackThickness&#45;&gt;FlatPlateAbsorption2</title>
<path fill="none" stroke="black" d="M507.34,-611.8C510.14,-600.47 513.87,-585.36 517.1,-572.29"/>
<polygon fill="black" stroke="black" points="520.41,-573.48 519.41,-562.94 513.62,-571.81 520.41,-573.48"/>
</g>
<!-- ElementSize1 -->
<g id="node20" class="node">
<title>ElementSize1</title>
<ellipse fill="khaki" stroke="black" cx="588.09" cy="-1416" rx="66.09" ry="18"/>
<text text-anchor="middle" x="588.09" y="-1412.3" font-family="Helvetica,sans-Serif" font-size="14.00">ElementSize</text>
</g>
<!-- ElementSize1&#45;&gt;FlatPlateAbsorption1 -->
<g id="edge13" class="edge">
<title>ElementSize1&#45;&gt;FlatPlateAbsorption1</title>
<path fill="none" stroke="black" d="M567.92,-1398.53C557.04,-1389.65 543.39,-1378.52 531.27,-1368.63"/>
<polygon fill="black" stroke="black" points="533.51,-1365.94 523.55,-1362.33 529.08,-1371.36 533.51,-1365.94"/>
</g>
<!-- SampleLogs -->
<g id="node21" class="node">
<title>SampleLogs</title>
<ellipse fill="khaki" stroke="black" cx="261.09" cy="-237" rx="65.79" ry="18"/>
<text text-anchor="middle" x="261.09" y="-233.3" font-family="Helvetica,sans-Serif" font-size="14.00">SampleLogs</text>
</g>
<!-- AddSampleLogMultiple -->
<g id="node39" class="node">
<title>AddSampleLogMultiple</title>
<path fill="lightskyblue" stroke="black" d="M349.09,-182C349.09,-182 197.09,-182 197.09,-182 191.09,-182 185.09,-176 185.09,-170 185.09,-170 185.09,-158 185.09,-158 185.09,-152 191.09,-146 197.09,-146 197.09,-146 349.09,-146 349.09,-146 355.09,-146 361.09,-152 361.09,-158 361.09,-158 361.09,-170 361.09,-170 361.09,-176 355.09,-182 349.09,-182"/>
<text text-anchor="middle" x="273.09" y="-160.3" font-family="Helvetica,sans-Serif" font-size="14.00">AddSampleLogMultiple</text>
</g>
<!-- SampleLogs&#45;&gt;AddSampleLogMultiple -->
<g id="edge47" class="edge">
<title>SampleLogs&#45;&gt;AddSampleLogMultiple</title>
<path fill="none" stroke="black" d="M264,-218.81C265.3,-211.14 266.86,-201.89 268.32,-193.24"/>
<polygon fill="black" stroke="black" points="271.75,-193.96 269.96,-183.52 264.85,-192.8 271.75,-193.96"/>
</g>
<!-- EFixed1 -->
<g id="node22" class="node">
<title>EFixed1</title>
<ellipse fill="khaki" stroke="black" cx="682.09" cy="-1649" rx="40.09" ry="18"/>
<text text-anchor="middle" x="682.09" y="-1645.3" font-family="Helvetica,sans-Serif" font-size="14.00">eFixed</text>
</g>
<!-- EFixed1&#45;&gt;ConvertUnits1 -->
<g id="edge3" class="edge">
<title>EFixed1&#45;&gt;ConvertUnits1</title>
<path fill="none" stroke="black" d="M699.89,-1632.59C710.25,-1623.62 723.55,-1612.1 735.36,-1601.88"/>
<polygon fill="black" stroke="black" points="737.62,-1604.55 742.89,-1595.36 733.04,-1599.26 737.62,-1604.55"/>
</g>
<!-- EFixed1&#45;&gt;FlatPlateAbsorption1 -->
<g id="edge14" class="edge">
<title>EFixed1&#45;&gt;FlatPlateAbsorption1</title>
<path fill="none" stroke="black" d="M682.09,-1630.78C682.09,-1616.41 682.09,-1595.37 682.09,-1577 682.09,-1577 682.09,-1577 682.09,-1415 682.09,-1392.93 634.87,-1374.88 588.66,-1362.5"/>
<polygon fill="black" stroke="black" points="589.61,-1359.14 579.06,-1360.02 587.86,-1365.91 589.61,-1359.14"/>
</g>
<!-- EFixed2 -->
<g id="node23" class="node">
<title>EFixed2</title>
<ellipse fill="khaki" stroke="black" cx="154.09" cy="-1110" rx="40.09" ry="18"/>
<text text-anchor="middle" x="154.09" y="-1106.3" font-family="Helvetica,sans-Serif" font-size="14.00">eFixed</text>
</g>
<!-- EFixed2&#45;&gt;ConvertUnits2 -->
<g id="edge19" class="edge">
<title>EFixed2&#45;&gt;ConvertUnits2</title>
<path fill="none" stroke="black" d="M154.09,-1091.81C154.09,-1084.23 154.09,-1075.1 154.09,-1066.54"/>
<polygon fill="black" stroke="black" points="157.59,-1066.54 154.09,-1056.54 150.59,-1066.54 157.59,-1066.54"/>
</g>
<!-- OutputWorkspace -->
<g id="node24" class="node">
<title>OutputWorkspace</title>
<ellipse fill="khaki" stroke="black" cx="273.09" cy="-18" rx="92.08" ry="18"/>
<text text-anchor="middle" x="273.09" y="-14.3" font-family="Helvetica,sans-Serif" font-size="14.00">OutputWorkspace</text>
</g>
<!-- GetEFixed&#45;&gt;EFixed1 -->
<g id="edge2" class="edge">
<title>GetEFixed&#45;&gt;EFixed1</title>
<path fill="none" stroke="black" d="M688.16,-1703.81C687.29,-1696.14 686.25,-1686.89 685.28,-1678.24"/>
<polygon fill="black" stroke="black" points="688.78,-1678.08 684.18,-1668.53 681.82,-1678.86 688.78,-1678.08"/>
</g>
<!-- ConvertUnits1&#45;&gt;SampleWorkspace_Wave -->
<g id="edge5" class="edge">
<title>ConvertUnits1&#45;&gt;SampleWorkspace_Wave</title>
<path fill="none" stroke="black" d="M778.06,-1557.8C787.78,-1545.82 800.93,-1529.62 811.94,-1516.06"/>
<polygon fill="black" stroke="black" points="814.61,-1518.32 818.2,-1508.35 809.18,-1513.91 814.61,-1518.32"/>
<text text-anchor="middle" x="948.09" y="-1528.8" font-family="Helvetica,sans-Serif" font-size="14.00">Convert input workspace into Wavelength</text>
</g>
<!-- ConvertUnits2&#45;&gt;CanWorkspace_Wave -->
<g id="edge20" class="edge">
<title>ConvertUnits2&#45;&gt;CanWorkspace_Wave</title>
<path fill="none" stroke="black" d="M150.86,-1018.8C148.74,-1007.58 145.94,-992.67 143.49,-979.69"/>
<polygon fill="black" stroke="black" points="146.95,-979.13 141.66,-969.95 140.07,-980.43 146.95,-979.13"/>
<text text-anchor="middle" x="287.59" y="-989.8" font-family="Helvetica,sans-Serif" font-size="14.00">Convert can workspace into Wavelength</text>
</g>
<!-- ConvertUnits3&#45;&gt;AddSampleLogMultiple -->
<g id="edge46" class="edge">
<title>ConvertUnits3&#45;&gt;AddSampleLogMultiple</title>
<path fill="none" stroke="black" d="M367.51,-218.63C351.32,-209.43 331.22,-198.02 313.73,-188.08"/>
<polygon fill="black" stroke="black" points="315.53,-185.08 305.11,-183.18 312.07,-191.17 315.53,-185.08"/>
</g>
<!-- SetSampleMaterial1&#45;&gt;FlatPlateAbsorption1 -->
<g id="edge9" class="edge">
<title>SetSampleMaterial1&#45;&gt;FlatPlateAbsorption1</title>
<path fill="none" stroke="black" d="M950.82,-1405.05C855.71,-1392.14 689.93,-1369.64 588.4,-1355.85"/>
<polygon fill="black" stroke="black" points="589.14,-1352.42 578.76,-1354.54 588.2,-1359.36 589.14,-1352.42"/>
</g>
<!-- SetSampleMaterial2&#45;&gt;FlatPlateAbsorption2 -->
<g id="edge29" class="edge">
<title>SetSampleMaterial2&#45;&gt;FlatPlateAbsorption2</title>
<path fill="none" stroke="black" d="M655.31,-611.59C630.06,-598.59 595.33,-580.7 567.94,-566.59"/>
<polygon fill="black" stroke="black" points="569.67,-563.54 559.18,-562.08 566.47,-569.77 569.67,-563.54"/>
</g>
<!-- Divide1 -->
<g id="node34" class="node">
<title>Divide1</title>
<path fill="lightskyblue" stroke="black" d="M542.09,-488C542.09,-488 506.09,-488 506.09,-488 500.09,-488 494.09,-482 494.09,-476 494.09,-476 494.09,-464 494.09,-464 494.09,-458 500.09,-452 506.09,-452 506.09,-452 542.09,-452 542.09,-452 548.09,-452 554.09,-458 554.09,-464 554.09,-464 554.09,-476 554.09,-476 554.09,-482 548.09,-488 542.09,-488"/>
<text text-anchor="middle" x="524.09" y="-466.3" font-family="Helvetica,sans-Serif" font-size="14.00">Divide</text>
</g>
<!-- SetSampleMaterial2&#45;&gt;Divide1 -->
<g id="edge33" class="edge">
<title>SetSampleMaterial2&#45;&gt;Divide1</title>
<path fill="none" stroke="black" d="M678.49,-611.68C664.49,-589.74 638.18,-551.59 609.09,-525 595.54,-512.61 578.81,-501.3 563.78,-492.27"/>
<polygon fill="black" stroke="black" points="565.91,-489.46 555.51,-487.44 562.38,-495.51 565.91,-489.46"/>
</g>
<!-- FlatPlateAbsorption1&#45;&gt;AbsWorkspace1 -->
<g id="edge15" class="edge">
<title>FlatPlateAbsorption1&#45;&gt;AbsWorkspace1</title>
<path fill="none" stroke="black" d="M501.09,-1324.81C501.09,-1317.23 501.09,-1308.1 501.09,-1299.54"/>
<polygon fill="black" stroke="black" points="504.59,-1299.54 501.09,-1289.54 497.59,-1299.54 504.59,-1299.54"/>
</g>
<!-- FlatPlateAbsorption2&#45;&gt;Divide1 -->
<g id="edge32" class="edge">
<title>FlatPlateAbsorption2&#45;&gt;Divide1</title>
<path fill="none" stroke="black" d="M524.09,-524.81C524.09,-517.23 524.09,-508.1 524.09,-499.54"/>
<polygon fill="black" stroke="black" points="527.59,-499.54 524.09,-489.54 520.59,-499.54 527.59,-499.54"/>
</g>
<!-- useCorrections -->
<g id="node43" class="node">
<title>useCorrections</title>
<polygon fill="limegreen" stroke="black" points="170.09,-735 46.76,-717 170.09,-699 293.43,-717 170.09,-735"/>
<text text-anchor="middle" x="170.09" y="-713.3" font-family="Helvetica,sans-Serif" font-size="14.00">Can Corrections?</text>
</g>
<!-- Scale&#45;&gt;useCorrections -->
<g id="edge24" class="edge">
<title>Scale&#45;&gt;useCorrections</title>
<path fill="none" stroke="black" d="M258.6,-772.17C241.76,-761.86 220.11,-748.61 202.44,-737.8"/>
<polygon fill="black" stroke="black" points="204.74,-735.1 194.38,-732.87 201.08,-741.07 204.74,-735.1"/>
</g>
<!-- Divide1&#45;&gt;Minus1 -->
<g id="edge34" class="edge">
<title>Divide1&#45;&gt;Minus1</title>
<path fill="none" stroke="black" d="M493.91,-451.99C477.04,-442.48 455.8,-430.52 437.61,-420.27"/>
<polygon fill="black" stroke="black" points="439.34,-417.23 428.91,-415.37 435.91,-423.32 439.34,-417.23"/>
</g>
<!-- Divide2&#45;&gt;SampleWorkspace_Wave2 -->
<g id="edge43" class="edge">
<title>Divide2&#45;&gt;SampleWorkspace_Wave2</title>
<path fill="none" stroke="black" d="M308.2,-378.63C323.85,-369.3 343.33,-357.68 360.15,-347.64"/>
<polygon fill="black" stroke="black" points="361.6,-350.85 368.39,-342.72 358.01,-344.84 361.6,-350.85"/>
</g>
<!-- Divide3&#45;&gt;SampleWorkspace_Wave2 -->
<g id="edge44" class="edge">
<title>Divide3&#45;&gt;SampleWorkspace_Wave2</title>
<path fill="none" stroke="black" d="M798.78,-1091.54C800.75,-1077.2 803.09,-1056.33 803.09,-1038 803.09,-1038 803.09,-1038 803.09,-396 803.09,-366.63 635.73,-345.68 516.18,-334.46"/>
<polygon fill="black" stroke="black" points="516.55,-330.98 506.27,-333.55 515.91,-337.95 516.55,-330.98"/>
</g>
<!-- Minus1&#45;&gt;SampleWorkspace_Wave2 -->
<g id="edge42" class="edge">
<title>Minus1&#45;&gt;SampleWorkspace_Wave2</title>
<path fill="none" stroke="black" d="M398.09,-378.81C398.09,-371.23 398.09,-362.1 398.09,-353.54"/>
<polygon fill="black" stroke="black" points="401.59,-353.54 398.09,-343.54 394.59,-353.54 401.59,-353.54"/>
</g>
<!-- Minus2&#45;&gt;Divide2 -->
<g id="edge38" class="edge">
<title>Minus2&#45;&gt;Divide2</title>
<path fill="none" stroke="black" d="M279.09,-451.81C279.09,-444.23 279.09,-435.1 279.09,-426.54"/>
<polygon fill="black" stroke="black" points="282.59,-426.54 279.09,-416.54 275.59,-426.54 282.59,-426.54"/>
</g>
<!-- GroupWorkspaces -->
<g id="node40" class="node">
<title>GroupWorkspaces</title>
<path fill="lightskyblue" stroke="black" d="M332.59,-109C332.59,-109 213.59,-109 213.59,-109 207.59,-109 201.59,-103 201.59,-97 201.59,-97 201.59,-85 201.59,-85 201.59,-79 207.59,-73 213.59,-73 213.59,-73 332.59,-73 332.59,-73 338.59,-73 344.59,-79 344.59,-85 344.59,-85 344.59,-97 344.59,-97 344.59,-103 338.59,-109 332.59,-109"/>
<text text-anchor="middle" x="273.09" y="-87.3" font-family="Helvetica,sans-Serif" font-size="14.00">GroupWorkspaces</text>
</g>
<!-- AddSampleLogMultiple&#45;&gt;GroupWorkspaces -->
<g id="edge48" class="edge">
<title>AddSampleLogMultiple&#45;&gt;GroupWorkspaces</title>
<path fill="none" stroke="black" d="M273.09,-145.81C273.09,-138.23 273.09,-129.1 273.09,-120.54"/>
<polygon fill="black" stroke="black" points="276.59,-120.54 273.09,-110.54 269.59,-120.54 276.59,-120.54"/>
</g>
<!-- GroupWorkspaces&#45;&gt;OutputWorkspace -->
<g id="edge49" class="edge">
<title>GroupWorkspaces&#45;&gt;OutputWorkspace</title>
<path fill="none" stroke="black" d="M273.09,-72.81C273.09,-65.23 273.09,-56.1 273.09,-47.54"/>
<polygon fill="black" stroke="black" points="276.59,-47.54 273.09,-37.54 269.59,-47.54 276.59,-47.54"/>
</g>
<!-- canGiven&#45;&gt;CanWorkspace -->
<g id="edge17" class="edge">
<title>canGiven&#45;&gt;CanWorkspace</title>
<path fill="none" stroke="black" d="M471.48,-1183.09C439.77,-1169.27 389.04,-1147.16 352.12,-1131.06"/>
<polygon fill="black" stroke="black" points="353.57,-1127.88 343.01,-1127.09 350.78,-1134.3 353.57,-1127.88"/>
<text text-anchor="middle" x="427.59" y="-1149.8" font-family="Helvetica,sans-Serif" font-size="14.00">Yes</text>
</g>
<!-- canGiven&#45;&gt;Divide3 -->
<g id="edge40" class="edge">
<title>canGiven&#45;&gt;Divide3</title>
<path fill="none" stroke="black" d="M540.88,-1184.54C596.79,-1168.43 698.1,-1139.23 754.81,-1122.9"/>
<polygon fill="black" stroke="black" points="755.77,-1126.26 764.41,-1120.13 753.83,-1119.53 755.77,-1126.26"/>
<text text-anchor="middle" x="676.59" y="-1149.8" font-family="Helvetica,sans-Serif" font-size="14.00">No</text>
</g>
<!-- canScale&#45;&gt;Scale -->
<g id="edge22" class="edge">
<title>canScale&#45;&gt;Scale</title>
<path fill="none" stroke="black" d="M143.89,-861.33C153.59,-850.16 168.28,-835.19 184.09,-826 208.53,-811.8 218.44,-817.43 245.09,-808 246.22,-807.6 247.36,-807.19 248.51,-806.77"/>
<polygon fill="black" stroke="black" points="249.43,-810.16 257.49,-803.29 246.9,-803.63 249.43,-810.16"/>
<text text-anchor="middle" x="233.59" y="-829.8" font-family="Helvetica,sans-Serif" font-size="14.00">Not equal to 1</text>
</g>
<!-- canScale&#45;&gt;useCorrections -->
<g id="edge25" class="edge">
<title>canScale&#45;&gt;useCorrections</title>
<path fill="none" stroke="black" d="M144.6,-861.23C148.95,-855.3 153.41,-848.18 156.09,-841 167.59,-810.2 170.35,-772.29 170.7,-746.77"/>
<polygon fill="black" stroke="black" points="174.2,-746.83 170.71,-736.83 167.2,-746.83 174.2,-746.83"/>
<text text-anchor="middle" x="205.59" y="-786.3" font-family="Helvetica,sans-Serif" font-size="14.00">Equal to 1</text>
</g>
<!-- useCorrections&#45;&gt;SetSampleMaterial2 -->
<g id="edge26" class="edge">
<title>useCorrections&#45;&gt;SetSampleMaterial2</title>
<path fill="none" stroke="black" d="M231.41,-707.45C313.87,-695.73 465.31,-673.43 604.53,-648.42"/>
<polygon fill="black" stroke="black" points="605.1,-651.87 614.32,-646.65 603.86,-644.98 605.1,-651.87"/>
<text text-anchor="middle" x="511.59" y="-669.8" font-family="Helvetica,sans-Serif" font-size="14.00">Yes</text>
</g>
<!-- useCorrections&#45;&gt;Minus2 -->
<g id="edge36" class="edge">
<title>useCorrections&#45;&gt;Minus2</title>
<path fill="none" stroke="black" d="M171.68,-699.06C173.97,-678.16 179.09,-641.75 189.09,-612 202.91,-570.93 209.1,-561.08 233.09,-525 239.57,-515.26 247.58,-505.31 255.08,-496.65"/>
<polygon fill="black" stroke="black" points="257.6,-499.08 261.63,-489.29 252.37,-494.43 257.6,-499.08"/>
<text text-anchor="middle" x="211.59" y="-582.8" font-family="Helvetica,sans-Serif" font-size="14.00">No</text>
</g>
</g>
</svg>
