<?xml version="1.0" encoding="UTF-8" standalone="no"?>
<!DOCTYPE svg PUBLIC "-//W3C//DTD SVG 1.1//EN"
 "http://www.w3.org/Graphics/SVG/1.1/DTD/svg11.dtd">
<!-- Generated by graphviz version 7.1.0 (20230122.1345)
 -->
<!-- Title: IndirectILLReductionQENS Pages: 1 -->
<svg width="1554pt" height="787pt"
 viewBox="0.00 0.00 1553.74 787.00" xmlns="http://www.w3.org/2000/svg" xmlns:xlink="http://www.w3.org/1999/xlink">
<g id="graph0" class="graph" transform="scale(1 1) rotate(0) translate(4 783)">
<title>IndirectILLReductionQENS</title>
<polygon fill="white" stroke="none" points="-4,4 -4,-783 1549.74,-783 1549.74,4 -4,4"/>
<text text-anchor="middle" x="772.87" y="-763.8" font-family="Helvetica,sans-Serif" font-size="14.00">IndirectILLReductionQENS Flowchart</text>
<!-- OutputWorkspace -->
<g id="node1" class="node">
<title>OutputWorkspace</title>
<polygon fill="grey" stroke="black" points="415.6,-36 195.51,-36 138.89,0 358.98,0 415.6,-36"/>
<text text-anchor="middle" x="277.24" y="-14.3" font-family="Times,serif" font-size="14.00">OutputWorkspace</text>
</g>
<!-- Run -->
<g id="node2" class="node">
<title>Run</title>
<ellipse fill="khaki" stroke="black" cx="947.24" cy="-594" rx="28.7" ry="18"/>
<text text-anchor="middle" x="947.24" y="-590.3" font-family="Helvetica,sans-Serif" font-size="14.00">Run</text>
</g>
<!-- SelectNexusFilesByMetadata -->
<g id="node12" class="node">
<title>SelectNexusFilesByMetadata</title>
<path fill="lightskyblue" stroke="black" d="M1042.74,-540C1042.74,-540 851.74,-540 851.74,-540 845.74,-540 839.74,-534 839.74,-528 839.74,-528 839.74,-516 839.74,-516 839.74,-510 845.74,-504 851.74,-504 851.74,-504 1042.74,-504 1042.74,-504 1048.74,-504 1054.74,-510 1054.74,-516 1054.74,-516 1054.74,-528 1054.74,-528 1054.74,-534 1048.74,-540 1042.74,-540"/>
<text text-anchor="middle" x="947.24" y="-518.3" font-family="Helvetica,sans-Serif" font-size="14.00">SelectNexusFilesByMetadata</text>
</g>
<!-- Run&#45;&gt;SelectNexusFilesByMetadata -->
<g id="edge1" class="edge">
<title>Run&#45;&gt;SelectNexusFilesByMetadata</title>
<path fill="none" stroke="black" d="M947.24,-575.7C947.24,-568.41 947.24,-559.73 947.24,-551.54"/>
<polygon fill="black" stroke="black" points="950.74,-551.62 947.24,-541.62 943.74,-551.62 950.74,-551.62"/>
</g>
<!-- BackgroundRun -->
<g id="node3" class="node">
<title>BackgroundRun</title>
<ellipse fill="khaki" stroke="black" cx="1438.24" cy="-666" rx="82.59" ry="18"/>
<text text-anchor="middle" x="1438.24" y="-662.3" font-family="Helvetica,sans-Serif" font-size="14.00">BackgroundRun</text>
</g>
<!-- SelectNexusFilesByMetadataB -->
<g id="node14" class="node">
<title>SelectNexusFilesByMetadataB</title>
<path fill="lightskyblue" stroke="black" d="M1533.74,-612C1533.74,-612 1342.74,-612 1342.74,-612 1336.74,-612 1330.74,-606 1330.74,-600 1330.74,-600 1330.74,-588 1330.74,-588 1330.74,-582 1336.74,-576 1342.74,-576 1342.74,-576 1533.74,-576 1533.74,-576 1539.74,-576 1545.74,-582 1545.74,-588 1545.74,-588 1545.74,-600 1545.74,-600 1545.74,-606 1539.74,-612 1533.74,-612"/>
<text text-anchor="middle" x="1438.24" y="-590.3" font-family="Helvetica,sans-Serif" font-size="14.00">SelectNexusFilesByMetadata</text>
</g>
<!-- BackgroundRun&#45;&gt;SelectNexusFilesByMetadataB -->
<g id="edge5" class="edge">
<title>BackgroundRun&#45;&gt;SelectNexusFilesByMetadataB</title>
<path fill="none" stroke="black" d="M1438.24,-647.7C1438.24,-640.41 1438.24,-631.73 1438.24,-623.54"/>
<polygon fill="black" stroke="black" points="1441.74,-623.62 1438.24,-613.62 1434.74,-623.62 1441.74,-623.62"/>
</g>
<!-- CalibrationRun -->
<g id="node4" class="node">
<title>CalibrationRun</title>
<ellipse fill="khaki" stroke="black" cx="214.24" cy="-666" rx="77.19" ry="18"/>
<text text-anchor="middle" x="214.24" y="-662.3" font-family="Helvetica,sans-Serif" font-size="14.00">CalibrationRun</text>
</g>
<!-- SelectNexusFilesByMetadataC -->
<g id="node15" class="node">
<title>SelectNexusFilesByMetadataC</title>
<path fill="lightskyblue" stroke="black" d="M309.74,-612C309.74,-612 118.74,-612 118.74,-612 112.74,-612 106.74,-606 106.74,-600 106.74,-600 106.74,-588 106.74,-588 106.74,-582 112.74,-576 118.74,-576 118.74,-576 309.74,-576 309.74,-576 315.74,-576 321.74,-582 321.74,-588 321.74,-588 321.74,-600 321.74,-600 321.74,-606 315.74,-612 309.74,-612"/>
<text text-anchor="middle" x="214.24" y="-590.3" font-family="Helvetica,sans-Serif" font-size="14.00">SelectNexusFilesByMetadata</text>
</g>
<!-- CalibrationRun&#45;&gt;SelectNexusFilesByMetadataC -->
<g id="edge10" class="edge">
<title>CalibrationRun&#45;&gt;SelectNexusFilesByMetadataC</title>
<path fill="none" stroke="black" d="M214.24,-647.7C214.24,-640.41 214.24,-631.73 214.24,-623.54"/>
<polygon fill="black" stroke="black" points="217.74,-623.62 214.24,-613.62 210.74,-623.62 217.74,-623.62"/>
</g>
<!-- CalibrationBackgroundRun -->
<g id="node5" class="node">
<title>CalibrationBackgroundRun</title>
<ellipse fill="khaki" stroke="black" cx="803.24" cy="-738" rx="131.08" ry="18"/>
<text text-anchor="middle" x="803.24" y="-734.3" font-family="Helvetica,sans-Serif" font-size="14.00">CalibrationBackgroundRun</text>
</g>
<!-- SelectNexusFilesByMetadataD -->
<g id="node16" class="node">
<title>SelectNexusFilesByMetadataD</title>
<path fill="lightskyblue" stroke="black" d="M898.74,-684C898.74,-684 707.74,-684 707.74,-684 701.74,-684 695.74,-678 695.74,-672 695.74,-672 695.74,-660 695.74,-660 695.74,-654 701.74,-648 707.74,-648 707.74,-648 898.74,-648 898.74,-648 904.74,-648 910.74,-654 910.74,-660 910.74,-660 910.74,-672 910.74,-672 910.74,-678 904.74,-684 898.74,-684"/>
<text text-anchor="middle" x="803.24" y="-662.3" font-family="Helvetica,sans-Serif" font-size="14.00">SelectNexusFilesByMetadata</text>
</g>
<!-- CalibrationBackgroundRun&#45;&gt;SelectNexusFilesByMetadataD -->
<g id="edge13" class="edge">
<title>CalibrationBackgroundRun&#45;&gt;SelectNexusFilesByMetadataD</title>
<path fill="none" stroke="black" d="M803.24,-719.7C803.24,-712.41 803.24,-703.73 803.24,-695.54"/>
<polygon fill="black" stroke="black" points="806.74,-695.62 803.24,-685.62 799.74,-695.62 806.74,-695.62"/>
</g>
<!-- AlignmentRun -->
<g id="node6" class="node">
<title>AlignmentRun</title>
<ellipse fill="khaki" stroke="black" cx="154.24" cy="-450" rx="74.99" ry="18"/>
<text text-anchor="middle" x="154.24" y="-446.3" font-family="Helvetica,sans-Serif" font-size="14.00">AlignmentRun</text>
</g>
<!-- SelectNexusFilesByMetadataA -->
<g id="node13" class="node">
<title>SelectNexusFilesByMetadataA</title>
<path fill="lightskyblue" stroke="black" d="M343.74,-396C343.74,-396 152.74,-396 152.74,-396 146.74,-396 140.74,-390 140.74,-384 140.74,-384 140.74,-372 140.74,-372 140.74,-366 146.74,-360 152.74,-360 152.74,-360 343.74,-360 343.74,-360 349.74,-360 355.74,-366 355.74,-372 355.74,-372 355.74,-384 355.74,-384 355.74,-390 349.74,-396 343.74,-396"/>
<text text-anchor="middle" x="248.24" y="-374.3" font-family="Helvetica,sans-Serif" font-size="14.00">SelectNexusFilesByMetadata</text>
</g>
<!-- AlignmentRun&#45;&gt;SelectNexusFilesByMetadataA -->
<g id="edge24" class="edge">
<title>AlignmentRun&#45;&gt;SelectNexusFilesByMetadataA</title>
<path fill="none" stroke="black" d="M176.52,-432.41C188.23,-423.69 202.8,-412.84 215.74,-403.2"/>
<polygon fill="black" stroke="black" points="217.67,-406.13 223.6,-397.35 213.49,-400.52 217.67,-406.13"/>
</g>
<!-- BackgroundScalingFactor -->
<g id="node7" class="node">
<title>BackgroundScalingFactor</title>
<ellipse fill="khaki" stroke="black" cx="1198.24" cy="-522" rx="125.38" ry="18"/>
<text text-anchor="middle" x="1198.24" y="-518.3" font-family="Helvetica,sans-Serif" font-size="14.00">BackgroundScalingFactor</text>
</g>
<!-- ScaleA -->
<g id="node27" class="node">
<title>ScaleA</title>
<path fill="lightskyblue" stroke="black" d="M1213.24,-468C1213.24,-468 1183.24,-468 1183.24,-468 1177.24,-468 1171.24,-462 1171.24,-456 1171.24,-456 1171.24,-444 1171.24,-444 1171.24,-438 1177.24,-432 1183.24,-432 1183.24,-432 1213.24,-432 1213.24,-432 1219.24,-432 1225.24,-438 1225.24,-444 1225.24,-444 1225.24,-456 1225.24,-456 1225.24,-462 1219.24,-468 1213.24,-468"/>
<text text-anchor="middle" x="1198.24" y="-446.3" font-family="Helvetica,sans-Serif" font-size="14.00">Scale</text>
</g>
<!-- BackgroundScalingFactor&#45;&gt;ScaleA -->
<g id="edge8" class="edge">
<title>BackgroundScalingFactor&#45;&gt;ScaleA</title>
<path fill="none" stroke="black" d="M1198.24,-503.7C1198.24,-496.41 1198.24,-487.73 1198.24,-479.54"/>
<polygon fill="black" stroke="black" points="1201.74,-479.62 1198.24,-469.62 1194.74,-479.62 1201.74,-479.62"/>
</g>
<!-- CalibrationBackgroundScalingFactor -->
<g id="node8" class="node">
<title>CalibrationBackgroundScalingFactor</title>
<ellipse fill="khaki" stroke="black" cx="514.24" cy="-594" rx="174.37" ry="18"/>
<text text-anchor="middle" x="514.24" y="-590.3" font-family="Helvetica,sans-Serif" font-size="14.00">CalibrationBackgroundScalingFactor</text>
</g>
<!-- ScaleB -->
<g id="node28" class="node">
<title>ScaleB</title>
<path fill="lightskyblue" stroke="black" d="M529.24,-540C529.24,-540 499.24,-540 499.24,-540 493.24,-540 487.24,-534 487.24,-528 487.24,-528 487.24,-516 487.24,-516 487.24,-510 493.24,-504 499.24,-504 499.24,-504 529.24,-504 529.24,-504 535.24,-504 541.24,-510 541.24,-516 541.24,-516 541.24,-528 541.24,-528 541.24,-534 535.24,-540 529.24,-540"/>
<text text-anchor="middle" x="514.24" y="-518.3" font-family="Helvetica,sans-Serif" font-size="14.00">Scale</text>
</g>
<!-- CalibrationBackgroundScalingFactor&#45;&gt;ScaleB -->
<g id="edge17" class="edge">
<title>CalibrationBackgroundScalingFactor&#45;&gt;ScaleB</title>
<path fill="none" stroke="black" d="M514.24,-575.7C514.24,-568.41 514.24,-559.73 514.24,-551.54"/>
<polygon fill="black" stroke="black" points="517.74,-551.62 514.24,-541.62 510.74,-551.62 517.74,-551.62"/>
</g>
<!-- CalibrationPeakRange -->
<g id="node9" class="node">
<title>CalibrationPeakRange</title>
<ellipse fill="khaki" stroke="black" cx="357.24" cy="-450" rx="109.68" ry="18"/>
<text text-anchor="middle" x="357.24" y="-446.3" font-family="Helvetica,sans-Serif" font-size="14.00">CalibrationPeakRange</text>
</g>
<!-- Integration -->
<g id="node22" class="node">
<title>Integration</title>
<path fill="lightskyblue" stroke="black" d="M469.74,-396C469.74,-396 400.74,-396 400.74,-396 394.74,-396 388.74,-390 388.74,-384 388.74,-384 388.74,-372 388.74,-372 388.74,-366 394.74,-360 400.74,-360 400.74,-360 469.74,-360 469.74,-360 475.74,-360 481.74,-366 481.74,-372 481.74,-372 481.74,-384 481.74,-384 481.74,-390 475.74,-396 469.74,-396"/>
<text text-anchor="middle" x="435.24" y="-374.3" font-family="Helvetica,sans-Serif" font-size="14.00">Integration</text>
</g>
<!-- CalibrationPeakRange&#45;&gt;Integration -->
<g id="edge19" class="edge">
<title>CalibrationPeakRange&#45;&gt;Integration</title>
<path fill="none" stroke="black" d="M376.12,-432.05C385.56,-423.58 397.17,-413.17 407.59,-403.82"/>
<polygon fill="black" stroke="black" points="409.76,-406.57 414.87,-397.29 405.09,-401.36 409.76,-406.57"/>
</g>
<!-- UnmirrorOption -->
<g id="node10" class="node">
<title>UnmirrorOption</title>
<ellipse fill="khaki" stroke="black" cx="81.24" cy="-306" rx="81.49" ry="18"/>
<text text-anchor="middle" x="81.24" y="-302.3" font-family="Helvetica,sans-Serif" font-size="14.00">UnmirrorOption</text>
</g>
<!-- MatchPeaks -->
<g id="node29" class="node">
<title>MatchPeaks</title>
<path fill="lightskyblue" stroke="black" d="M314.74,-252C314.74,-252 239.74,-252 239.74,-252 233.74,-252 227.74,-246 227.74,-240 227.74,-240 227.74,-228 227.74,-228 227.74,-222 233.74,-216 239.74,-216 239.74,-216 314.74,-216 314.74,-216 320.74,-216 326.74,-222 326.74,-228 326.74,-228 326.74,-240 326.74,-240 326.74,-246 320.74,-252 314.74,-252"/>
<text text-anchor="middle" x="277.24" y="-230.3" font-family="Helvetica,sans-Serif" font-size="14.00">MatchPeaks</text>
</g>
<!-- UnmirrorOption&#45;&gt;MatchPeaks -->
<g id="edge23" class="edge">
<title>UnmirrorOption&#45;&gt;MatchPeaks</title>
<path fill="none" stroke="black" d="M122.81,-290.15C150.45,-280.28 187.18,-267.16 217.89,-256.2"/>
<polygon fill="black" stroke="black" points="218.81,-259.59 227.05,-252.93 216.45,-253 218.81,-259.59"/>
</g>
<!-- CropDeadMonitorChannels -->
<g id="node11" class="node">
<title>CropDeadMonitorChannels</title>
<ellipse fill="khaki" stroke="black" cx="690.24" cy="-522" rx="131.08" ry="18"/>
<text text-anchor="middle" x="690.24" y="-518.3" font-family="Helvetica,sans-Serif" font-size="14.00">CropDeadMonitorChannels</text>
</g>
<!-- IndirectILLEnergyTransfer -->
<g id="node17" class="node">
<title>IndirectILLEnergyTransfer</title>
<path fill="lightskyblue" stroke="black" d="M903.24,-468C903.24,-468 733.24,-468 733.24,-468 727.24,-468 721.24,-462 721.24,-456 721.24,-456 721.24,-444 721.24,-444 721.24,-438 727.24,-432 733.24,-432 733.24,-432 903.24,-432 903.24,-432 909.24,-432 915.24,-438 915.24,-444 915.24,-444 915.24,-456 915.24,-456 915.24,-462 909.24,-468 903.24,-468"/>
<text text-anchor="middle" x="818.24" y="-446.3" font-family="Helvetica,sans-Serif" font-size="14.00">IndirectILLEnergyTransfer</text>
</g>
<!-- CropDeadMonitorChannels&#45;&gt;IndirectILLEnergyTransfer -->
<g id="edge3" class="edge">
<title>CropDeadMonitorChannels&#45;&gt;IndirectILLEnergyTransfer</title>
<path fill="none" stroke="black" d="M721.23,-504.05C737.88,-494.95 758.64,-483.59 776.68,-473.73"/>
<polygon fill="black" stroke="black" points="778.23,-476.87 785.33,-469 774.87,-470.73 778.23,-476.87"/>
</g>
<!-- SelectNexusFilesByMetadata&#45;&gt;IndirectILLEnergyTransfer -->
<g id="edge2" class="edge">
<title>SelectNexusFilesByMetadata&#45;&gt;IndirectILLEnergyTransfer</title>
<path fill="none" stroke="black" d="M915.02,-503.52C898.35,-494.47 877.8,-483.32 859.94,-473.62"/>
<polygon fill="black" stroke="black" points="861.84,-470.68 851.38,-468.98 858.5,-476.83 861.84,-470.68"/>
</g>
<!-- IndirectILLEnergyTransferA -->
<g id="node18" class="node">
<title>IndirectILLEnergyTransferA</title>
<path fill="lightskyblue" stroke="black" d="M362.24,-324C362.24,-324 192.24,-324 192.24,-324 186.24,-324 180.24,-318 180.24,-312 180.24,-312 180.24,-300 180.24,-300 180.24,-294 186.24,-288 192.24,-288 192.24,-288 362.24,-288 362.24,-288 368.24,-288 374.24,-294 374.24,-300 374.24,-300 374.24,-312 374.24,-312 374.24,-318 368.24,-324 362.24,-324"/>
<text text-anchor="middle" x="277.24" y="-302.3" font-family="Helvetica,sans-Serif" font-size="14.00">IndirectILLEnergyTransfer</text>
</g>
<!-- SelectNexusFilesByMetadataA&#45;&gt;IndirectILLEnergyTransferA -->
<g id="edge25" class="edge">
<title>SelectNexusFilesByMetadataA&#45;&gt;IndirectILLEnergyTransferA</title>
<path fill="none" stroke="black" d="M255.41,-359.7C258.54,-352.15 262.28,-343.12 265.78,-334.68"/>
<polygon fill="black" stroke="black" points="268.98,-336.08 269.58,-325.5 262.52,-333.4 268.98,-336.08"/>
</g>
<!-- IndirectILLEnergyTransferB -->
<g id="node19" class="node">
<title>IndirectILLEnergyTransferB</title>
<path fill="lightskyblue" stroke="black" d="M1523.24,-540C1523.24,-540 1353.24,-540 1353.24,-540 1347.24,-540 1341.24,-534 1341.24,-528 1341.24,-528 1341.24,-516 1341.24,-516 1341.24,-510 1347.24,-504 1353.24,-504 1353.24,-504 1523.24,-504 1523.24,-504 1529.24,-504 1535.24,-510 1535.24,-516 1535.24,-516 1535.24,-528 1535.24,-528 1535.24,-534 1529.24,-540 1523.24,-540"/>
<text text-anchor="middle" x="1438.24" y="-518.3" font-family="Helvetica,sans-Serif" font-size="14.00">IndirectILLEnergyTransfer</text>
</g>
<!-- SelectNexusFilesByMetadataB&#45;&gt;IndirectILLEnergyTransferB -->
<g id="edge6" class="edge">
<title>SelectNexusFilesByMetadataB&#45;&gt;IndirectILLEnergyTransferB</title>
<path fill="none" stroke="black" d="M1438.24,-575.7C1438.24,-568.41 1438.24,-559.73 1438.24,-551.54"/>
<polygon fill="black" stroke="black" points="1441.74,-551.62 1438.24,-541.62 1434.74,-551.62 1441.74,-551.62"/>
</g>
<!-- IndirectILLEnergyTransferC -->
<g id="node20" class="node">
<title>IndirectILLEnergyTransferC</title>
<path fill="lightskyblue" stroke="black" d="M378.24,-540C378.24,-540 208.24,-540 208.24,-540 202.24,-540 196.24,-534 196.24,-528 196.24,-528 196.24,-516 196.24,-516 196.24,-510 202.24,-504 208.24,-504 208.24,-504 378.24,-504 378.24,-504 384.24,-504 390.24,-510 390.24,-516 390.24,-516 390.24,-528 390.24,-528 390.24,-534 384.24,-540 378.24,-540"/>
<text text-anchor="middle" x="293.24" y="-518.3" font-family="Helvetica,sans-Serif" font-size="14.00">IndirectILLEnergyTransfer</text>
</g>
<!-- SelectNexusFilesByMetadataC&#45;&gt;IndirectILLEnergyTransferC -->
<g id="edge11" class="edge">
<title>SelectNexusFilesByMetadataC&#45;&gt;IndirectILLEnergyTransferC</title>
<path fill="none" stroke="black" d="M233.77,-575.7C243.27,-567.28 254.85,-557.02 265.26,-547.79"/>
<polygon fill="black" stroke="black" points="267.37,-550.6 272.53,-541.35 262.73,-545.36 267.37,-550.6"/>
</g>
<!-- IndirectILLEnergyTransferD -->
<g id="node21" class="node">
<title>IndirectILLEnergyTransferD</title>
<path fill="lightskyblue" stroke="black" d="M888.24,-612C888.24,-612 718.24,-612 718.24,-612 712.24,-612 706.24,-606 706.24,-600 706.24,-600 706.24,-588 706.24,-588 706.24,-582 712.24,-576 718.24,-576 718.24,-576 888.24,-576 888.24,-576 894.24,-576 900.24,-582 900.24,-588 900.24,-588 900.24,-600 900.24,-600 900.24,-606 894.24,-612 888.24,-612"/>
<text text-anchor="middle" x="803.24" y="-590.3" font-family="Helvetica,sans-Serif" font-size="14.00">IndirectILLEnergyTransfer</text>
</g>
<!-- SelectNexusFilesByMetadataD&#45;&gt;IndirectILLEnergyTransferD -->
<g id="edge14" class="edge">
<title>SelectNexusFilesByMetadataD&#45;&gt;IndirectILLEnergyTransferD</title>
<path fill="none" stroke="black" d="M803.24,-647.7C803.24,-640.41 803.24,-631.73 803.24,-623.54"/>
<polygon fill="black" stroke="black" points="806.74,-623.62 803.24,-613.62 799.74,-623.62 806.74,-623.62"/>
</g>
<!-- MinusA -->
<g id="node23" class="node">
<title>MinusA</title>
<path fill="lightskyblue" stroke="black" d="M835.24,-396C835.24,-396 801.24,-396 801.24,-396 795.24,-396 789.24,-390 789.24,-384 789.24,-384 789.24,-372 789.24,-372 789.24,-366 795.24,-360 801.24,-360 801.24,-360 835.24,-360 835.24,-360 841.24,-360 847.24,-366 847.24,-372 847.24,-372 847.24,-384 847.24,-384 847.24,-390 841.24,-396 835.24,-396"/>
<text text-anchor="middle" x="818.24" y="-374.3" font-family="Helvetica,sans-Serif" font-size="14.00">Minus</text>
</g>
<!-- IndirectILLEnergyTransfer&#45;&gt;MinusA -->
<g id="edge4" class="edge">
<title>IndirectILLEnergyTransfer&#45;&gt;MinusA</title>
<path fill="none" stroke="black" d="M818.24,-431.7C818.24,-424.41 818.24,-415.73 818.24,-407.54"/>
<polygon fill="black" stroke="black" points="821.74,-407.62 818.24,-397.62 814.74,-407.62 821.74,-407.62"/>
</g>
<!-- IndirectILLEnergyTransferA&#45;&gt;MatchPeaks -->
<g id="edge26" class="edge">
<title>IndirectILLEnergyTransferA&#45;&gt;MatchPeaks</title>
<path fill="none" stroke="black" d="M277.24,-287.7C277.24,-280.41 277.24,-271.73 277.24,-263.54"/>
<polygon fill="black" stroke="black" points="280.74,-263.62 277.24,-253.62 273.74,-263.62 280.74,-263.62"/>
</g>
<!-- IndirectILLEnergyTransferB&#45;&gt;ScaleA -->
<g id="edge7" class="edge">
<title>IndirectILLEnergyTransferB&#45;&gt;ScaleA</title>
<path fill="none" stroke="black" d="M1378.3,-503.52C1333.82,-490.54 1274.5,-473.24 1236.34,-462.11"/>
<polygon fill="black" stroke="black" points="1237.72,-458.87 1227.14,-459.43 1235.76,-465.59 1237.72,-458.87"/>
</g>
<!-- MinusB -->
<g id="node24" class="node">
<title>MinusB</title>
<path fill="lightskyblue" stroke="black" d="M531.24,-468C531.24,-468 497.24,-468 497.24,-468 491.24,-468 485.24,-462 485.24,-456 485.24,-456 485.24,-444 485.24,-444 485.24,-438 491.24,-432 497.24,-432 497.24,-432 531.24,-432 531.24,-432 537.24,-432 543.24,-438 543.24,-444 543.24,-444 543.24,-456 543.24,-456 543.24,-462 537.24,-468 531.24,-468"/>
<text text-anchor="middle" x="514.24" y="-446.3" font-family="Helvetica,sans-Serif" font-size="14.00">Minus</text>
</g>
<!-- IndirectILLEnergyTransferC&#45;&gt;MinusB -->
<g id="edge12" class="edge">
<title>IndirectILLEnergyTransferC&#45;&gt;MinusB</title>
<path fill="none" stroke="black" d="M361.76,-503.58C393.73,-494.89 432.38,-483.59 474.24,-468.51"/>
<polygon fill="black" stroke="black" points="475.34,-471.83 483.53,-465.11 472.94,-465.26 475.34,-471.83"/>
</g>
<!-- IndirectILLEnergyTransferD&#45;&gt;ScaleB -->
<g id="edge15" class="edge">
<title>IndirectILLEnergyTransferD&#45;&gt;ScaleB</title>
<path fill="none" stroke="black" d="M708.31,-575.51C654.58,-565.19 591.77,-552.31 552.42,-540.23"/>
<polygon fill="black" stroke="black" points="553.52,-536.9 542.93,-537.14 551.35,-543.56 553.52,-536.9"/>
</g>
<!-- Divide -->
<g id="node25" class="node">
<title>Divide</title>
<path fill="lightskyblue" stroke="black" d="M453.24,-324C453.24,-324 417.24,-324 417.24,-324 411.24,-324 405.24,-318 405.24,-312 405.24,-312 405.24,-300 405.24,-300 405.24,-294 411.24,-288 417.24,-288 417.24,-288 453.24,-288 453.24,-288 459.24,-288 465.24,-294 465.24,-300 465.24,-300 465.24,-312 465.24,-312 465.24,-318 459.24,-324 453.24,-324"/>
<text text-anchor="middle" x="435.24" y="-302.3" font-family="Helvetica,sans-Serif" font-size="14.00">Divide</text>
</g>
<!-- Integration&#45;&gt;Divide -->
<g id="edge20" class="edge">
<title>Integration&#45;&gt;Divide</title>
<path fill="none" stroke="black" d="M435.24,-359.7C435.24,-352.41 435.24,-343.73 435.24,-335.54"/>
<polygon fill="black" stroke="black" points="438.74,-335.62 435.24,-325.62 431.74,-335.62 438.74,-335.62"/>
</g>
<!-- MinusA&#45;&gt;Divide -->
<g id="edge21" class="edge">
<title>MinusA&#45;&gt;Divide</title>
<path fill="none" stroke="black" d="M788.83,-371.62C721.26,-359.28 554.84,-328.86 476.84,-314.6"/>
<polygon fill="black" stroke="black" points="477.51,-311.17 467.04,-312.81 476.25,-318.05 477.51,-311.17"/>
</g>
<!-- MinusB&#45;&gt;Integration -->
<g id="edge18" class="edge">
<title>MinusB&#45;&gt;Integration</title>
<path fill="none" stroke="black" d="M494.71,-431.7C485.22,-423.28 473.63,-413.02 463.22,-403.79"/>
<polygon fill="black" stroke="black" points="465.76,-401.36 455.95,-397.35 461.12,-406.6 465.76,-401.36"/>
</g>
<!-- Divide&#45;&gt;MatchPeaks -->
<g id="edge22" class="edge">
<title>Divide&#45;&gt;MatchPeaks</title>
<path fill="none" stroke="black" d="M404.78,-291.5C382.71,-281.73 352.39,-268.29 326.85,-256.98"/>
<polygon fill="black" stroke="black" points="328.55,-253.9 317.99,-253.05 325.71,-260.3 328.55,-253.9"/>
</g>
<!-- Plus -->
<g id="node26" class="node">
<title>Plus</title>
<path fill="lightskyblue" stroke="black" d="M292.24,-180C292.24,-180 262.24,-180 262.24,-180 256.24,-180 250.24,-174 250.24,-168 250.24,-168 250.24,-156 250.24,-156 250.24,-150 256.24,-144 262.24,-144 262.24,-144 292.24,-144 292.24,-144 298.24,-144 304.24,-150 304.24,-156 304.24,-156 304.24,-168 304.24,-168 304.24,-174 298.24,-180 292.24,-180"/>
<text text-anchor="middle" x="277.24" y="-158.3" font-family="Helvetica,sans-Serif" font-size="14.00">Plus</text>
</g>
<!-- GroupWorkspaces -->
<g id="node30" class="node">
<title>GroupWorkspaces</title>
<path fill="lightskyblue" stroke="black" d="M336.74,-108C336.74,-108 217.74,-108 217.74,-108 211.74,-108 205.74,-102 205.74,-96 205.74,-96 205.74,-84 205.74,-84 205.74,-78 211.74,-72 217.74,-72 217.74,-72 336.74,-72 336.74,-72 342.74,-72 348.74,-78 348.74,-84 348.74,-84 348.74,-96 348.74,-96 348.74,-102 342.74,-108 336.74,-108"/>
<text text-anchor="middle" x="277.24" y="-86.3" font-family="Helvetica,sans-Serif" font-size="14.00">GroupWorkspaces</text>
</g>
<!-- Plus&#45;&gt;GroupWorkspaces -->
<g id="edge28" class="edge">
<title>Plus&#45;&gt;GroupWorkspaces</title>
<path fill="none" stroke="black" d="M277.24,-143.7C277.24,-136.41 277.24,-127.73 277.24,-119.54"/>
<polygon fill="black" stroke="black" points="280.74,-119.62 277.24,-109.62 273.74,-119.62 280.74,-119.62"/>
</g>
<!-- ScaleA&#45;&gt;MinusA -->
<g id="edge9" class="edge">
<title>ScaleA&#45;&gt;MinusA</title>
<path fill="none" stroke="black" d="M1170.91,-443.97C1104.95,-431.82 936.74,-400.83 858.9,-386.49"/>
<polygon fill="black" stroke="black" points="859.61,-383.06 849.14,-384.69 858.34,-389.95 859.61,-383.06"/>
</g>
<!-- ScaleB&#45;&gt;MinusB -->
<g id="edge16" class="edge">
<title>ScaleB&#45;&gt;MinusB</title>
<path fill="none" stroke="black" d="M514.24,-503.7C514.24,-496.41 514.24,-487.73 514.24,-479.54"/>
<polygon fill="black" stroke="black" points="517.74,-479.62 514.24,-469.62 510.74,-479.62 517.74,-479.62"/>
</g>
<!-- MatchPeaks&#45;&gt;Plus -->
<g id="edge27" class="edge">
<title>MatchPeaks&#45;&gt;Plus</title>
<path fill="none" stroke="black" d="M277.24,-215.7C277.24,-208.41 277.24,-199.73 277.24,-191.54"/>
<polygon fill="black" stroke="black" points="280.74,-191.62 277.24,-181.62 273.74,-191.62 280.74,-191.62"/>
</g>
<!-- GroupWorkspaces&#45;&gt;OutputWorkspace -->
<g id="edge29" class="edge">
<title>GroupWorkspaces&#45;&gt;OutputWorkspace</title>
<path fill="none" stroke="black" d="M277.24,-71.7C277.24,-64.41 277.24,-55.73 277.24,-47.54"/>
<polygon fill="black" stroke="black" points="280.74,-47.62 277.24,-37.62 273.74,-47.62 280.74,-47.62"/>
</g>
</g>
</svg>
