<?xml version="1.0" encoding="UTF-8" standalone="no"?>
<!DOCTYPE svg PUBLIC "-//W3C//DTD SVG 1.1//EN"
 "http://www.w3.org/Graphics/SVG/1.1/DTD/svg11.dtd">
<!-- Generated by graphviz version 7.1.0 (20230122.1345)
 -->
<!-- Title: IndirectILLEnergyTransfer Pages: 1 -->
<svg width="379pt" height="811pt"
 viewBox="0.00 0.00 379.34 811.00" xmlns="http://www.w3.org/2000/svg" xmlns:xlink="http://www.w3.org/1999/xlink">
<g id="graph0" class="graph" transform="scale(1 1) rotate(0) translate(4 807)">
<title>IndirectILLEnergyTransfer</title>
<polygon fill="white" stroke="none" points="-4,4 -4,-807 375.34,-807 375.34,4 -4,4"/>
<text text-anchor="middle" x="185.67" y="-787.8" font-family="Helvetica,sans-Serif" font-size="14.00">IndirectILLEnergyTransfer Flowchart</text>
<!-- OutputWorkspace -->
<g id="node1" class="node">
<title>OutputWorkspace</title>
<polygon fill="grey" stroke="black" points="323.02,-36 102.93,-36 46.32,0 266.41,0 323.02,-36"/>
<text text-anchor="middle" x="184.67" y="-14.3" font-family="Times,serif" font-size="14.00">OutputWorkspace</text>
</g>
<!-- CropDeadMonitorChannels -->
<g id="node2" class="node">
<title>CropDeadMonitorChannels</title>
<polygon fill="limegreen" stroke="black" points="185.67,-415 -0.17,-397 185.67,-379 371.51,-397 185.67,-415"/>
<text text-anchor="middle" x="185.67" y="-393.3" font-family="Helvetica,sans-Serif" font-size="14.00">CropDeadMonitorChannels</text>
</g>
<!-- CropWorkspace -->
<g id="node11" class="node">
<title>CropWorkspace</title>
<path fill="lightskyblue" stroke="black" d="M175.17,-328C175.17,-328 74.17,-328 74.17,-328 68.17,-328 62.17,-322 62.17,-316 62.17,-316 62.17,-304 62.17,-304 62.17,-298 68.17,-292 74.17,-292 74.17,-292 175.17,-292 175.17,-292 181.17,-292 187.17,-298 187.17,-304 187.17,-304 187.17,-316 187.17,-316 187.17,-322 181.17,-328 175.17,-328"/>
<text text-anchor="middle" x="124.67" y="-306.3" font-family="Helvetica,sans-Serif" font-size="14.00">CropWorkspace</text>
</g>
<!-- CropDeadMonitorChannels&#45;&gt;CropWorkspace -->
<g id="edge7" class="edge">
<title>CropDeadMonitorChannels&#45;&gt;CropWorkspace</title>
<path fill="none" stroke="black" d="M174.2,-380.01C165.62,-368.06 153.69,-351.44 143.69,-337.51"/>
<polygon fill="black" stroke="black" points="146.7,-335.69 138.02,-329.61 141.01,-339.77 146.7,-335.69"/>
<text text-anchor="middle" x="171.17" y="-349.8" font-family="Helvetica,sans-Serif" font-size="14.00">yes</text>
</g>
<!-- MaskBins -->
<g id="node12" class="node">
<title>MaskBins</title>
<path fill="lightskyblue" stroke="black" d="M276.17,-328C276.17,-328 217.17,-328 217.17,-328 211.17,-328 205.17,-322 205.17,-316 205.17,-316 205.17,-304 205.17,-304 205.17,-298 211.17,-292 217.17,-292 217.17,-292 276.17,-292 276.17,-292 282.17,-292 288.17,-298 288.17,-304 288.17,-304 288.17,-316 288.17,-316 288.17,-322 282.17,-328 276.17,-328"/>
<text text-anchor="middle" x="246.67" y="-306.3" font-family="Helvetica,sans-Serif" font-size="14.00">MaskBins</text>
</g>
<!-- CropDeadMonitorChannels&#45;&gt;MaskBins -->
<g id="edge8" class="edge">
<title>CropDeadMonitorChannels&#45;&gt;MaskBins</title>
<path fill="none" stroke="black" d="M197.14,-380.01C205.72,-368.06 217.65,-351.44 227.65,-337.51"/>
<polygon fill="black" stroke="black" points="230.33,-339.77 233.32,-329.61 224.64,-335.69 230.33,-339.77"/>
<text text-anchor="middle" x="228.67" y="-349.8" font-family="Helvetica,sans-Serif" font-size="14.00">no</text>
</g>
<!-- Run -->
<g id="node3" class="node">
<title>Run</title>
<ellipse fill="khaki" stroke="black" cx="262.67" cy="-762" rx="28.7" ry="18"/>
<text text-anchor="middle" x="262.67" y="-758.3" font-family="Helvetica,sans-Serif" font-size="14.00">Run</text>
</g>
<!-- LoadILLIndirect -->
<g id="node5" class="node">
<title>LoadILLIndirect</title>
<path fill="lightskyblue" stroke="black" d="M311.67,-707C311.67,-707 213.67,-707 213.67,-707 207.67,-707 201.67,-701 201.67,-695 201.67,-695 201.67,-683 201.67,-683 201.67,-677 207.67,-671 213.67,-671 213.67,-671 311.67,-671 311.67,-671 317.67,-671 323.67,-677 323.67,-683 323.67,-683 323.67,-695 323.67,-695 323.67,-701 317.67,-707 311.67,-707"/>
<text text-anchor="middle" x="262.67" y="-685.3" font-family="Helvetica,sans-Serif" font-size="14.00">LoadILLIndirect</text>
</g>
<!-- Run&#45;&gt;LoadILLIndirect -->
<g id="edge1" class="edge">
<title>Run&#45;&gt;LoadILLIndirect</title>
<path fill="none" stroke="black" d="M262.67,-743.81C262.67,-736.23 262.67,-727.1 262.67,-718.54"/>
<polygon fill="black" stroke="black" points="266.17,-718.54 262.67,-708.54 259.17,-718.54 266.17,-718.54"/>
</g>
<!-- MapFile -->
<g id="node4" class="node">
<title>MapFile</title>
<ellipse fill="khaki" stroke="black" cx="152.67" cy="-616" rx="44.69" ry="18"/>
<text text-anchor="middle" x="152.67" y="-612.3" font-family="Helvetica,sans-Serif" font-size="14.00">MapFile</text>
</g>
<!-- GroupDetectors -->
<g id="node7" class="node">
<title>GroupDetectors</title>
<path fill="lightskyblue" stroke="black" d="M236.17,-561C236.17,-561 135.17,-561 135.17,-561 129.17,-561 123.17,-555 123.17,-549 123.17,-549 123.17,-537 123.17,-537 123.17,-531 129.17,-525 135.17,-525 135.17,-525 236.17,-525 236.17,-525 242.17,-525 248.17,-531 248.17,-537 248.17,-537 248.17,-549 248.17,-549 248.17,-555 242.17,-561 236.17,-561"/>
<text text-anchor="middle" x="185.67" y="-539.3" font-family="Helvetica,sans-Serif" font-size="14.00">GroupDetectors</text>
</g>
<!-- MapFile&#45;&gt;GroupDetectors -->
<g id="edge3" class="edge">
<title>MapFile&#45;&gt;GroupDetectors</title>
<path fill="none" stroke="black" d="M160.66,-597.81C164.35,-589.88 168.82,-580.26 172.95,-571.36"/>
<polygon fill="black" stroke="black" points="176.08,-572.94 177.12,-562.4 169.73,-569.99 176.08,-572.94"/>
</g>
<!-- MergeRuns -->
<g id="node6" class="node">
<title>MergeRuns</title>
<path fill="lightskyblue" stroke="black" d="M298.17,-634C298.17,-634 227.17,-634 227.17,-634 221.17,-634 215.17,-628 215.17,-622 215.17,-622 215.17,-610 215.17,-610 215.17,-604 221.17,-598 227.17,-598 227.17,-598 298.17,-598 298.17,-598 304.17,-598 310.17,-604 310.17,-610 310.17,-610 310.17,-622 310.17,-622 310.17,-628 304.17,-634 298.17,-634"/>
<text text-anchor="middle" x="262.67" y="-612.3" font-family="Helvetica,sans-Serif" font-size="14.00">MergeRuns</text>
</g>
<!-- LoadILLIndirect&#45;&gt;MergeRuns -->
<g id="edge2" class="edge">
<title>LoadILLIndirect&#45;&gt;MergeRuns</title>
<path fill="none" stroke="black" d="M262.67,-670.81C262.67,-663.23 262.67,-654.1 262.67,-645.54"/>
<polygon fill="black" stroke="black" points="266.17,-645.54 262.67,-635.54 259.17,-645.54 266.17,-645.54"/>
</g>
<!-- MergeRuns&#45;&gt;GroupDetectors -->
<g id="edge4" class="edge">
<title>MergeRuns&#45;&gt;GroupDetectors</title>
<path fill="none" stroke="black" d="M244.03,-597.81C234.64,-589.16 223.08,-578.5 212.74,-568.96"/>
<polygon fill="black" stroke="black" points="215.24,-566.51 205.52,-562.3 210.5,-571.65 215.24,-566.51"/>
</g>
<!-- NormaliseToMonitor -->
<g id="node8" class="node">
<title>NormaliseToMonitor</title>
<path fill="lightskyblue" stroke="black" d="M250.67,-488C250.67,-488 120.67,-488 120.67,-488 114.67,-488 108.67,-482 108.67,-476 108.67,-476 108.67,-464 108.67,-464 108.67,-458 114.67,-452 120.67,-452 120.67,-452 250.67,-452 250.67,-452 256.67,-452 262.67,-458 262.67,-464 262.67,-464 262.67,-476 262.67,-476 262.67,-482 256.67,-488 250.67,-488"/>
<text text-anchor="middle" x="185.67" y="-466.3" font-family="Helvetica,sans-Serif" font-size="14.00">NormaliseToMonitor</text>
</g>
<!-- GroupDetectors&#45;&gt;NormaliseToMonitor -->
<g id="edge5" class="edge">
<title>GroupDetectors&#45;&gt;NormaliseToMonitor</title>
<path fill="none" stroke="black" d="M185.67,-524.81C185.67,-517.23 185.67,-508.1 185.67,-499.54"/>
<polygon fill="black" stroke="black" points="189.17,-499.54 185.67,-489.54 182.17,-499.54 189.17,-499.54"/>
</g>
<!-- NormaliseToMonitor&#45;&gt;CropDeadMonitorChannels -->
<g id="edge6" class="edge">
<title>NormaliseToMonitor&#45;&gt;CropDeadMonitorChannels</title>
<path fill="none" stroke="black" d="M185.67,-451.81C185.67,-444.23 185.67,-435.1 185.67,-426.54"/>
<polygon fill="black" stroke="black" points="189.17,-426.54 185.67,-416.54 182.17,-426.54 189.17,-426.54"/>
</g>
<!-- ConvertAxisByFormula -->
<g id="node9" class="node">
<title>ConvertAxisByFormula</title>
<path fill="lightskyblue" stroke="black" d="M260.17,-255C260.17,-255 109.17,-255 109.17,-255 103.17,-255 97.17,-249 97.17,-243 97.17,-243 97.17,-231 97.17,-231 97.17,-225 103.17,-219 109.17,-219 109.17,-219 260.17,-219 260.17,-219 266.17,-219 272.17,-225 272.17,-231 272.17,-231 272.17,-243 272.17,-243 272.17,-249 266.17,-255 260.17,-255"/>
<text text-anchor="middle" x="184.67" y="-233.3" font-family="Helvetica,sans-Serif" font-size="14.00">ConvertAxisByFormula</text>
</g>
<!-- ConvertSpectrumAxis -->
<g id="node10" class="node">
<title>ConvertSpectrumAxis</title>
<path fill="lightskyblue" stroke="black" d="M256.67,-182C256.67,-182 112.67,-182 112.67,-182 106.67,-182 100.67,-176 100.67,-170 100.67,-170 100.67,-158 100.67,-158 100.67,-152 106.67,-146 112.67,-146 112.67,-146 256.67,-146 256.67,-146 262.67,-146 268.67,-152 268.67,-158 268.67,-158 268.67,-170 268.67,-170 268.67,-176 262.67,-182 256.67,-182"/>
<text text-anchor="middle" x="184.67" y="-160.3" font-family="Helvetica,sans-Serif" font-size="14.00">ConvertSpectrumAxis</text>
</g>
<!-- ConvertAxisByFormula&#45;&gt;ConvertSpectrumAxis -->
<g id="edge11" class="edge">
<title>ConvertAxisByFormula&#45;&gt;ConvertSpectrumAxis</title>
<path fill="none" stroke="black" d="M184.67,-218.81C184.67,-211.23 184.67,-202.1 184.67,-193.54"/>
<polygon fill="black" stroke="black" points="188.17,-193.54 184.67,-183.54 181.17,-193.54 188.17,-193.54"/>
</g>
<!-- GroupWorkspaces -->
<g id="node13" class="node">
<title>GroupWorkspaces</title>
<path fill="lightskyblue" stroke="black" d="M244.17,-109C244.17,-109 125.17,-109 125.17,-109 119.17,-109 113.17,-103 113.17,-97 113.17,-97 113.17,-85 113.17,-85 113.17,-79 119.17,-73 125.17,-73 125.17,-73 244.17,-73 244.17,-73 250.17,-73 256.17,-79 256.17,-85 256.17,-85 256.17,-97 256.17,-97 256.17,-103 250.17,-109 244.17,-109"/>
<text text-anchor="middle" x="184.67" y="-87.3" font-family="Helvetica,sans-Serif" font-size="14.00">GroupWorkspaces</text>
</g>
<!-- ConvertSpectrumAxis&#45;&gt;GroupWorkspaces -->
<g id="edge12" class="edge">
<title>ConvertSpectrumAxis&#45;&gt;GroupWorkspaces</title>
<path fill="none" stroke="black" d="M184.67,-145.81C184.67,-138.23 184.67,-129.1 184.67,-120.54"/>
<polygon fill="black" stroke="black" points="188.17,-120.54 184.67,-110.54 181.17,-120.54 188.17,-120.54"/>
</g>
<!-- CropWorkspace&#45;&gt;ConvertAxisByFormula -->
<g id="edge9" class="edge">
<title>CropWorkspace&#45;&gt;ConvertAxisByFormula</title>
<path fill="none" stroke="black" d="M139.19,-291.81C146.34,-283.35 155.11,-272.98 163.03,-263.61"/>
<polygon fill="black" stroke="black" points="165.52,-266.08 169.3,-256.18 160.17,-261.56 165.52,-266.08"/>
</g>
<!-- MaskBins&#45;&gt;ConvertAxisByFormula -->
<g id="edge10" class="edge">
<title>MaskBins&#45;&gt;ConvertAxisByFormula</title>
<path fill="none" stroke="black" d="M231.66,-291.81C224.27,-283.35 215.22,-272.98 207.04,-263.61"/>
<polygon fill="black" stroke="black" points="209.75,-261.4 200.54,-256.17 204.48,-266 209.75,-261.4"/>
</g>
<!-- GroupWorkspaces&#45;&gt;OutputWorkspace -->
<g id="edge13" class="edge">
<title>GroupWorkspaces&#45;&gt;OutputWorkspace</title>
<path fill="none" stroke="black" d="M184.67,-72.81C184.67,-65.23 184.67,-56.1 184.67,-47.54"/>
<polygon fill="black" stroke="black" points="188.17,-47.54 184.67,-37.54 181.17,-47.54 188.17,-47.54"/>
</g>
</g>
</svg>
