<?xml version="1.0" encoding="UTF-8" standalone="no"?>
<!DOCTYPE svg PUBLIC "-//W3C//DTD SVG 1.1//EN"
 "http://www.w3.org/Graphics/SVG/1.1/DTD/svg11.dtd">
<!-- Generated by graphviz version 7.1.0 (20230122.1345)
 -->
<!-- Title: IndirectCylinderAbsorption Pages: 1 -->
<svg width="1407pt" height="1879pt"
 viewBox="0.00 0.00 1407.33 1879.00" xmlns="http://www.w3.org/2000/svg" xmlns:xlink="http://www.w3.org/1999/xlink">
<g id="graph0" class="graph" transform="scale(1 1) rotate(0) translate(4 1875)">
<title>IndirectCylinderAbsorption</title>
<polygon fill="white" stroke="none" points="-4,4 -4,-1875 1403.33,-1875 1403.33,4 -4,4"/>
<text text-anchor="middle" x="699.66" y="-1855.8" font-family="Helvetica,sans-Serif" font-size="14.00">IndirectCylinderAbsorption Flowchart</text>
<!-- SampleWorkspace1 -->
<g id="node1" class="node">
<title>SampleWorkspace1</title>
<ellipse fill="khaki" stroke="black" cx="657.84" cy="-1830" rx="94.48" ry="18"/>
<text text-anchor="middle" x="657.84" y="-1826.3" font-family="Helvetica,sans-Serif" font-size="14.00">SampleWorkspace</text>
</g>
<!-- GetEFixed -->
<g id="node22" class="node">
<title>GetEFixed</title>
<path fill="lightskyblue" stroke="black" d="M652.84,-1775C652.84,-1775 590.84,-1775 590.84,-1775 584.84,-1775 578.84,-1769 578.84,-1763 578.84,-1763 578.84,-1751 578.84,-1751 578.84,-1745 584.84,-1739 590.84,-1739 590.84,-1739 652.84,-1739 652.84,-1739 658.84,-1739 664.84,-1745 664.84,-1751 664.84,-1751 664.84,-1763 664.84,-1763 664.84,-1769 658.84,-1775 652.84,-1775"/>
<text text-anchor="middle" x="621.84" y="-1753.3" font-family="Helvetica,sans-Serif" font-size="14.00">GetEFixed</text>
</g>
<!-- SampleWorkspace1&#45;&gt;GetEFixed -->
<g id="edge1" class="edge">
<title>SampleWorkspace1&#45;&gt;GetEFixed</title>
<path fill="none" stroke="black" d="M649.13,-1811.81C645.06,-1803.79 640.12,-1794.05 635.57,-1785.07"/>
<polygon fill="black" stroke="black" points="638.8,-1783.71 631.16,-1776.38 632.56,-1786.88 638.8,-1783.71"/>
</g>
<!-- ConvertUnits1 -->
<g id="node23" class="node">
<title>ConvertUnits1</title>
<path fill="lightskyblue" stroke="black" d="M737.34,-1629C737.34,-1629 654.34,-1629 654.34,-1629 648.34,-1629 642.34,-1623 642.34,-1617 642.34,-1617 642.34,-1605 642.34,-1605 642.34,-1599 648.34,-1593 654.34,-1593 654.34,-1593 737.34,-1593 737.34,-1593 743.34,-1593 749.34,-1599 749.34,-1605 749.34,-1605 749.34,-1617 749.34,-1617 749.34,-1623 743.34,-1629 737.34,-1629"/>
<text text-anchor="middle" x="695.84" y="-1607.3" font-family="Helvetica,sans-Serif" font-size="14.00">ConvertUnits</text>
</g>
<!-- SampleWorkspace1&#45;&gt;ConvertUnits1 -->
<g id="edge4" class="edge">
<title>SampleWorkspace1&#45;&gt;ConvertUnits1</title>
<path fill="none" stroke="black" d="M663.72,-1811.67C667.09,-1801.16 671.18,-1787.43 673.84,-1775 683.81,-1728.45 690.13,-1673.41 693.32,-1640.67"/>
<polygon fill="black" stroke="black" points="696.8,-1641.07 694.25,-1630.79 689.83,-1640.42 696.8,-1641.07"/>
</g>
<!-- SampleWorkspace2 -->
<g id="node2" class="node">
<title>SampleWorkspace2</title>
<ellipse fill="khaki" stroke="black" cx="323.84" cy="-543" rx="94.48" ry="18"/>
<text text-anchor="middle" x="323.84" y="-539.3" font-family="Helvetica,sans-Serif" font-size="14.00">SampleWorkspace</text>
</g>
<!-- Minus1 -->
<g id="node34" class="node">
<title>Minus1</title>
<path fill="lightskyblue" stroke="black" d="M402.84,-415C402.84,-415 368.84,-415 368.84,-415 362.84,-415 356.84,-409 356.84,-403 356.84,-403 356.84,-391 356.84,-391 356.84,-385 362.84,-379 368.84,-379 368.84,-379 402.84,-379 402.84,-379 408.84,-379 414.84,-385 414.84,-391 414.84,-391 414.84,-403 414.84,-403 414.84,-409 408.84,-415 402.84,-415"/>
<text text-anchor="middle" x="385.84" y="-393.3" font-family="Helvetica,sans-Serif" font-size="14.00">Minus</text>
</g>
<!-- SampleWorkspace2&#45;&gt;Minus1 -->
<g id="edge32" class="edge">
<title>SampleWorkspace2&#45;&gt;Minus1</title>
<path fill="none" stroke="black" d="M331.32,-524.63C341.89,-500.09 361.3,-455 373.88,-425.78"/>
<polygon fill="black" stroke="black" points="377,-427.39 377.74,-416.82 370.57,-424.62 377,-427.39"/>
</g>
<!-- Minus2 -->
<g id="node35" class="node">
<title>Minus2</title>
<path fill="lightskyblue" stroke="black" d="M283.84,-488C283.84,-488 249.84,-488 249.84,-488 243.84,-488 237.84,-482 237.84,-476 237.84,-476 237.84,-464 237.84,-464 237.84,-458 243.84,-452 249.84,-452 249.84,-452 283.84,-452 283.84,-452 289.84,-452 295.84,-458 295.84,-464 295.84,-464 295.84,-476 295.84,-476 295.84,-482 289.84,-488 283.84,-488"/>
<text text-anchor="middle" x="266.84" y="-466.3" font-family="Helvetica,sans-Serif" font-size="14.00">Minus</text>
</g>
<!-- SampleWorkspace2&#45;&gt;Minus2 -->
<g id="edge34" class="edge">
<title>SampleWorkspace2&#45;&gt;Minus2</title>
<path fill="none" stroke="black" d="M310.04,-524.81C303.32,-516.44 295.1,-506.2 287.64,-496.9"/>
<polygon fill="black" stroke="black" points="290.45,-494.82 281.46,-489.21 284.99,-499.2 290.45,-494.82"/>
</g>
<!-- SampleWorkspace_Wave -->
<g id="node3" class="node">
<title>SampleWorkspace_Wave</title>
<ellipse fill="khaki" stroke="black" cx="1275.84" cy="-1524" rx="123.48" ry="18"/>
<text text-anchor="middle" x="1275.84" y="-1520.3" font-family="Helvetica,sans-Serif" font-size="14.00">SampleWorkspace_Wave</text>
</g>
<!-- SetSampleMaterial1 -->
<g id="node26" class="node">
<title>SetSampleMaterial1</title>
<path fill="lightskyblue" stroke="black" d="M951.84,-1469C951.84,-1469 829.84,-1469 829.84,-1469 823.84,-1469 817.84,-1463 817.84,-1457 817.84,-1457 817.84,-1445 817.84,-1445 817.84,-1439 823.84,-1433 829.84,-1433 829.84,-1433 951.84,-1433 951.84,-1433 957.84,-1433 963.84,-1439 963.84,-1445 963.84,-1445 963.84,-1457 963.84,-1457 963.84,-1463 957.84,-1469 951.84,-1469"/>
<text text-anchor="middle" x="890.84" y="-1447.3" font-family="Helvetica,sans-Serif" font-size="14.00">SetSampleMaterial</text>
</g>
<!-- SampleWorkspace_Wave&#45;&gt;SetSampleMaterial1 -->
<g id="edge6" class="edge">
<title>SampleWorkspace_Wave&#45;&gt;SetSampleMaterial1</title>
<path fill="none" stroke="black" d="M1201.61,-1509.31C1136.82,-1497.36 1042.86,-1480.03 975.23,-1467.56"/>
<polygon fill="black" stroke="black" points="976.15,-1464.17 965.68,-1465.8 974.88,-1471.06 976.15,-1464.17"/>
</g>
<!-- SampleWorkspace_Wave2 -->
<g id="node4" class="node">
<title>SampleWorkspace_Wave2</title>
<ellipse fill="khaki" stroke="black" cx="385.84" cy="-324" rx="123.48" ry="18"/>
<text text-anchor="middle" x="385.84" y="-320.3" font-family="Helvetica,sans-Serif" font-size="14.00">SampleWorkspace_Wave</text>
</g>
<!-- ConvertUnits3 -->
<g id="node25" class="node">
<title>ConvertUnits3</title>
<path fill="lightskyblue" stroke="black" d="M427.34,-255C427.34,-255 344.34,-255 344.34,-255 338.34,-255 332.34,-249 332.34,-243 332.34,-243 332.34,-231 332.34,-231 332.34,-225 338.34,-219 344.34,-219 344.34,-219 427.34,-219 427.34,-219 433.34,-219 439.34,-225 439.34,-231 439.34,-231 439.34,-243 439.34,-243 439.34,-249 433.34,-255 427.34,-255"/>
<text text-anchor="middle" x="385.84" y="-233.3" font-family="Helvetica,sans-Serif" font-size="14.00">ConvertUnits</text>
</g>
<!-- SampleWorkspace_Wave2&#45;&gt;ConvertUnits3 -->
<g id="edge41" class="edge">
<title>SampleWorkspace_Wave2&#45;&gt;ConvertUnits3</title>
<path fill="none" stroke="black" d="M385.84,-305.8C385.84,-294.58 385.84,-279.67 385.84,-266.69"/>
<polygon fill="black" stroke="black" points="389.34,-266.98 385.84,-256.98 382.34,-266.98 389.34,-266.98"/>
<text text-anchor="middle" x="465.84" y="-276.8" font-family="Helvetica,sans-Serif" font-size="14.00">Convert back to DeltaE</text>
</g>
<!-- SampleChemicalFormula -->
<g id="node5" class="node">
<title>SampleChemicalFormula</title>
<ellipse fill="khaki" stroke="black" cx="763.84" cy="-1524" rx="122.38" ry="18"/>
<text text-anchor="middle" x="763.84" y="-1520.3" font-family="Helvetica,sans-Serif" font-size="14.00">SampleChemicalFormula</text>
</g>
<!-- SampleChemicalFormula&#45;&gt;SetSampleMaterial1 -->
<g id="edge7" class="edge">
<title>SampleChemicalFormula&#45;&gt;SetSampleMaterial1</title>
<path fill="none" stroke="black" d="M793.94,-1506.17C810.57,-1496.88 831.48,-1485.19 849.61,-1475.05"/>
<polygon fill="black" stroke="black" points="851.29,-1478.12 858.31,-1470.19 847.88,-1472.01 851.29,-1478.12"/>
</g>
<!-- SampleNumberDensity -->
<g id="node6" class="node">
<title>SampleNumberDensity</title>
<ellipse fill="khaki" stroke="black" cx="1018.84" cy="-1524" rx="115.08" ry="18"/>
<text text-anchor="middle" x="1018.84" y="-1520.3" font-family="Helvetica,sans-Serif" font-size="14.00">SampleNumberDensity</text>
</g>
<!-- SampleNumberDensity&#45;&gt;SetSampleMaterial1 -->
<g id="edge8" class="edge">
<title>SampleNumberDensity&#45;&gt;SetSampleMaterial1</title>
<path fill="none" stroke="black" d="M988.51,-1506.17C971.66,-1496.83 950.47,-1485.08 932.14,-1474.91"/>
<polygon fill="black" stroke="black" points="934.06,-1471.97 923.62,-1470.18 930.66,-1478.09 934.06,-1471.97"/>
</g>
<!-- SampleRadius -->
<g id="node7" class="node">
<title>SampleRadius</title>
<ellipse fill="khaki" stroke="black" cx="359.84" cy="-1451" rx="75.29" ry="18"/>
<text text-anchor="middle" x="359.84" y="-1447.3" font-family="Helvetica,sans-Serif" font-size="14.00">SampleRadius</text>
</g>
<!-- CylinderAbsorption1 -->
<g id="node28" class="node">
<title>CylinderAbsorption1</title>
<path fill="lightskyblue" stroke="black" d="M629.84,-1396C629.84,-1396 503.84,-1396 503.84,-1396 497.84,-1396 491.84,-1390 491.84,-1384 491.84,-1384 491.84,-1372 491.84,-1372 491.84,-1366 497.84,-1360 503.84,-1360 503.84,-1360 629.84,-1360 629.84,-1360 635.84,-1360 641.84,-1366 641.84,-1372 641.84,-1372 641.84,-1384 641.84,-1384 641.84,-1390 635.84,-1396 629.84,-1396"/>
<text text-anchor="middle" x="566.84" y="-1374.3" font-family="Helvetica,sans-Serif" font-size="14.00">CylinderAbsorption</text>
</g>
<!-- SampleRadius&#45;&gt;CylinderAbsorption1 -->
<g id="edge10" class="edge">
<title>SampleRadius&#45;&gt;CylinderAbsorption1</title>
<path fill="none" stroke="black" d="M401.73,-1435.63C431.47,-1425.43 471.88,-1411.57 505.28,-1400.11"/>
<polygon fill="black" stroke="black" points="506.1,-1403.53 514.43,-1396.98 503.83,-1396.91 506.1,-1403.53"/>
</g>
<!-- SampleThickness -->
<g id="node8" class="node">
<title>SampleThickness</title>
<ellipse fill="khaki" stroke="black" cx="858.84" cy="-1830" rx="89.08" ry="18"/>
<text text-anchor="middle" x="858.84" y="-1826.3" font-family="Helvetica,sans-Serif" font-size="14.00">SampleThickness</text>
</g>
<!-- AbsWorkspace1 -->
<g id="node9" class="node">
<title>AbsWorkspace1</title>
<ellipse fill="khaki" stroke="black" cx="566.84" cy="-1305" rx="109.68" ry="18"/>
<text text-anchor="middle" x="566.84" y="-1301.3" font-family="Helvetica,sans-Serif" font-size="14.00">AbsorptionWorkspace</text>
</g>
<!-- canGiven -->
<g id="node38" class="node">
<title>canGiven</title>
<polygon fill="limegreen" stroke="black" points="566.84,-1250 445.68,-1232 566.84,-1214 688,-1232 566.84,-1250"/>
<text text-anchor="middle" x="566.84" y="-1228.3" font-family="Helvetica,sans-Serif" font-size="14.00">Can Workspace?</text>
</g>
<!-- AbsWorkspace1&#45;&gt;canGiven -->
<g id="edge14" class="edge">
<title>AbsWorkspace1&#45;&gt;canGiven</title>
<path fill="none" stroke="black" d="M566.84,-1286.81C566.84,-1279.23 566.84,-1270.1 566.84,-1261.54"/>
<polygon fill="black" stroke="black" points="570.34,-1261.54 566.84,-1251.54 563.34,-1261.54 570.34,-1261.54"/>
</g>
<!-- AbsWorkspace2 -->
<g id="node10" class="node">
<title>AbsWorkspace2</title>
<ellipse fill="khaki" stroke="black" cx="109.84" cy="-470" rx="109.68" ry="18"/>
<text text-anchor="middle" x="109.84" y="-466.3" font-family="Helvetica,sans-Serif" font-size="14.00">AbsorptionWorkspace</text>
</g>
<!-- Divide2 -->
<g id="node32" class="node">
<title>Divide2</title>
<path fill="lightskyblue" stroke="black" d="M284.84,-415C284.84,-415 248.84,-415 248.84,-415 242.84,-415 236.84,-409 236.84,-403 236.84,-403 236.84,-391 236.84,-391 236.84,-385 242.84,-379 248.84,-379 248.84,-379 284.84,-379 284.84,-379 290.84,-379 296.84,-385 296.84,-391 296.84,-391 296.84,-403 296.84,-403 296.84,-409 290.84,-415 284.84,-415"/>
<text text-anchor="middle" x="266.84" y="-393.3" font-family="Helvetica,sans-Serif" font-size="14.00">Divide</text>
</g>
<!-- AbsWorkspace2&#45;&gt;Divide2 -->
<g id="edge36" class="edge">
<title>AbsWorkspace2&#45;&gt;Divide2</title>
<path fill="none" stroke="black" d="M145.86,-452.71C169.86,-441.86 201.45,-427.57 226.32,-416.32"/>
<polygon fill="black" stroke="black" points="227.48,-419.64 235.15,-412.33 224.6,-413.26 227.48,-419.64"/>
</g>
<!-- CanWorkspace -->
<g id="node11" class="node">
<title>CanWorkspace</title>
<ellipse fill="khaki" stroke="black" cx="448.84" cy="-1145" rx="77.99" ry="18"/>
<text text-anchor="middle" x="448.84" y="-1141.3" font-family="Helvetica,sans-Serif" font-size="14.00">CanWorkspace</text>
</g>
<!-- ConvertUnits2 -->
<g id="node24" class="node">
<title>ConvertUnits2</title>
<path fill="lightskyblue" stroke="black" d="M490.34,-1055C490.34,-1055 407.34,-1055 407.34,-1055 401.34,-1055 395.34,-1049 395.34,-1043 395.34,-1043 395.34,-1031 395.34,-1031 395.34,-1025 401.34,-1019 407.34,-1019 407.34,-1019 490.34,-1019 490.34,-1019 496.34,-1019 502.34,-1025 502.34,-1031 502.34,-1031 502.34,-1043 502.34,-1043 502.34,-1049 496.34,-1055 490.34,-1055"/>
<text text-anchor="middle" x="448.84" y="-1033.3" font-family="Helvetica,sans-Serif" font-size="14.00">ConvertUnits</text>
</g>
<!-- CanWorkspace&#45;&gt;ConvertUnits2 -->
<g id="edge16" class="edge">
<title>CanWorkspace&#45;&gt;ConvertUnits2</title>
<path fill="none" stroke="black" d="M448.84,-1126.97C448.84,-1110.76 448.84,-1086.06 448.84,-1066.79"/>
<polygon fill="black" stroke="black" points="452.34,-1066.85 448.84,-1056.85 445.34,-1066.85 452.34,-1066.85"/>
</g>
<!-- CanWorkspace_Wave -->
<g id="node12" class="node">
<title>CanWorkspace_Wave</title>
<ellipse fill="khaki" stroke="black" cx="398.84" cy="-950" rx="107.48" ry="18"/>
<text text-anchor="middle" x="398.84" y="-946.3" font-family="Helvetica,sans-Serif" font-size="14.00">CanWorkspace_Wave</text>
</g>
<!-- canScale -->
<g id="node39" class="node">
<title>canScale</title>
<polygon fill="limegreen" stroke="black" points="143.84,-895 59.22,-877 143.84,-859 228.47,-877 143.84,-895"/>
<text text-anchor="middle" x="143.84" y="-873.3" font-family="Helvetica,sans-Serif" font-size="14.00">Can Scale?</text>
</g>
<!-- CanWorkspace_Wave&#45;&gt;canScale -->
<g id="edge19" class="edge">
<title>CanWorkspace_Wave&#45;&gt;canScale</title>
<path fill="none" stroke="black" d="M345.07,-934.03C299.1,-921.23 233.64,-903 190.01,-890.85"/>
<polygon fill="black" stroke="black" points="191.17,-887.54 180.59,-888.23 189.29,-894.29 191.17,-887.54"/>
</g>
<!-- CanScale -->
<g id="node13" class="node">
<title>CanScale</title>
<ellipse fill="khaki" stroke="black" cx="298.84" cy="-877" rx="51.99" ry="18"/>
<text text-anchor="middle" x="298.84" y="-873.3" font-family="Helvetica,sans-Serif" font-size="14.00">CanScale</text>
</g>
<!-- Scale -->
<g id="node30" class="node">
<title>Scale</title>
<path fill="lightskyblue" stroke="black" d="M294.84,-808C294.84,-808 264.84,-808 264.84,-808 258.84,-808 252.84,-802 252.84,-796 252.84,-796 252.84,-784 252.84,-784 252.84,-778 258.84,-772 264.84,-772 264.84,-772 294.84,-772 294.84,-772 300.84,-772 306.84,-778 306.84,-784 306.84,-784 306.84,-796 306.84,-796 306.84,-802 300.84,-808 294.84,-808"/>
<text text-anchor="middle" x="279.84" y="-786.3" font-family="Helvetica,sans-Serif" font-size="14.00">Scale</text>
</g>
<!-- CanScale&#45;&gt;Scale -->
<g id="edge21" class="edge">
<title>CanScale&#45;&gt;Scale</title>
<path fill="none" stroke="black" d="M295,-858.8C292.49,-847.58 289.15,-832.67 286.25,-819.69"/>
<polygon fill="black" stroke="black" points="289.67,-818.94 284.07,-809.94 282.84,-820.47 289.67,-818.94"/>
</g>
<!-- CanChemicalFormula -->
<g id="node14" class="node">
<title>CanChemicalFormula</title>
<ellipse fill="khaki" stroke="black" cx="626.84" cy="-717" rx="106.68" ry="18"/>
<text text-anchor="middle" x="626.84" y="-713.3" font-family="Helvetica,sans-Serif" font-size="14.00">CanChemicalFormula</text>
</g>
<!-- SetSampleMaterial2 -->
<g id="node27" class="node">
<title>SetSampleMaterial2</title>
<path fill="lightskyblue" stroke="black" d="M623.84,-648C623.84,-648 501.84,-648 501.84,-648 495.84,-648 489.84,-642 489.84,-636 489.84,-636 489.84,-624 489.84,-624 489.84,-618 495.84,-612 501.84,-612 501.84,-612 623.84,-612 623.84,-612 629.84,-612 635.84,-618 635.84,-624 635.84,-624 635.84,-636 635.84,-636 635.84,-642 629.84,-648 623.84,-648"/>
<text text-anchor="middle" x="562.84" y="-626.3" font-family="Helvetica,sans-Serif" font-size="14.00">SetSampleMaterial</text>
</g>
<!-- CanChemicalFormula&#45;&gt;SetSampleMaterial2 -->
<g id="edge25" class="edge">
<title>CanChemicalFormula&#45;&gt;SetSampleMaterial2</title>
<path fill="none" stroke="black" d="M613.89,-698.8C604.93,-686.9 592.83,-670.83 582.66,-657.32"/>
<polygon fill="black" stroke="black" points="585.71,-655.56 576.9,-649.68 580.12,-659.77 585.71,-655.56"/>
</g>
<!-- CanNumberDensity -->
<g id="node15" class="node">
<title>CanNumberDensity</title>
<ellipse fill="khaki" stroke="black" cx="403.84" cy="-717" rx="98.58" ry="18"/>
<text text-anchor="middle" x="403.84" y="-713.3" font-family="Helvetica,sans-Serif" font-size="14.00">CanNumberDensity</text>
</g>
<!-- CanNumberDensity&#45;&gt;SetSampleMaterial2 -->
<g id="edge26" class="edge">
<title>CanNumberDensity&#45;&gt;SetSampleMaterial2</title>
<path fill="none" stroke="black" d="M434.5,-699.61C458.9,-686.56 493.34,-668.16 520.39,-653.69"/>
<polygon fill="black" stroke="black" points="521.86,-656.88 529.03,-649.07 518.56,-650.7 521.86,-656.88"/>
</g>
<!-- CanRadius -->
<g id="node16" class="node">
<title>CanRadius</title>
<ellipse fill="khaki" stroke="black" cx="412.84" cy="-630" rx="59.29" ry="18"/>
<text text-anchor="middle" x="412.84" y="-626.3" font-family="Helvetica,sans-Serif" font-size="14.00">CanRadius</text>
</g>
<!-- CylinderAbsorption2 -->
<g id="node29" class="node">
<title>CylinderAbsorption2</title>
<path fill="lightskyblue" stroke="black" d="M573.84,-561C573.84,-561 447.84,-561 447.84,-561 441.84,-561 435.84,-555 435.84,-549 435.84,-549 435.84,-537 435.84,-537 435.84,-531 441.84,-525 447.84,-525 447.84,-525 573.84,-525 573.84,-525 579.84,-525 585.84,-531 585.84,-537 585.84,-537 585.84,-549 585.84,-549 585.84,-555 579.84,-561 573.84,-561"/>
<text text-anchor="middle" x="510.84" y="-539.3" font-family="Helvetica,sans-Serif" font-size="14.00">CylinderAbsorption</text>
</g>
<!-- CanRadius&#45;&gt;CylinderAbsorption2 -->
<g id="edge28" class="edge">
<title>CanRadius&#45;&gt;CylinderAbsorption2</title>
<path fill="none" stroke="black" d="M431.74,-612.61C446.1,-600.16 466.09,-582.81 482.38,-568.68"/>
<polygon fill="black" stroke="black" points="484.59,-571.4 489.85,-562.21 480,-566.11 484.59,-571.4"/>
</g>
<!-- ElementSize1 -->
<g id="node17" class="node">
<title>ElementSize1</title>
<ellipse fill="khaki" stroke="black" cx="519.84" cy="-1451" rx="66.09" ry="18"/>
<text text-anchor="middle" x="519.84" y="-1447.3" font-family="Helvetica,sans-Serif" font-size="14.00">ElementSize</text>
</g>
<!-- ElementSize1&#45;&gt;CylinderAbsorption1 -->
<g id="edge11" class="edge">
<title>ElementSize1&#45;&gt;CylinderAbsorption1</title>
<path fill="none" stroke="black" d="M531.22,-1432.81C536.64,-1424.62 543.26,-1414.62 549.31,-1405.48"/>
<polygon fill="black" stroke="black" points="552.13,-1407.56 554.73,-1397.29 546.29,-1403.7 552.13,-1407.56"/>
</g>
<!-- SampleLogs -->
<g id="node18" class="node">
<title>SampleLogs</title>
<ellipse fill="khaki" stroke="black" cx="248.84" cy="-237" rx="65.79" ry="18"/>
<text text-anchor="middle" x="248.84" y="-233.3" font-family="Helvetica,sans-Serif" font-size="14.00">SampleLogs</text>
</g>
<!-- AddSampleLogMultiple -->
<g id="node36" class="node">
<title>AddSampleLogMultiple</title>
<path fill="lightskyblue" stroke="black" d="M336.84,-182C336.84,-182 184.84,-182 184.84,-182 178.84,-182 172.84,-176 172.84,-170 172.84,-170 172.84,-158 172.84,-158 172.84,-152 178.84,-146 184.84,-146 184.84,-146 336.84,-146 336.84,-146 342.84,-146 348.84,-152 348.84,-158 348.84,-158 348.84,-170 348.84,-170 348.84,-176 342.84,-182 336.84,-182"/>
<text text-anchor="middle" x="260.84" y="-160.3" font-family="Helvetica,sans-Serif" font-size="14.00">AddSampleLogMultiple</text>
</g>
<!-- SampleLogs&#45;&gt;AddSampleLogMultiple -->
<g id="edge43" class="edge">
<title>SampleLogs&#45;&gt;AddSampleLogMultiple</title>
<path fill="none" stroke="black" d="M251.75,-218.81C253.04,-211.14 254.61,-201.89 256.07,-193.24"/>
<polygon fill="black" stroke="black" points="259.49,-193.96 257.71,-183.52 252.59,-192.8 259.49,-193.96"/>
</g>
<!-- EFixed1 -->
<g id="node19" class="node">
<title>EFixed1</title>
<ellipse fill="khaki" stroke="black" cx="613.84" cy="-1684" rx="40.09" ry="18"/>
<text text-anchor="middle" x="613.84" y="-1680.3" font-family="Helvetica,sans-Serif" font-size="14.00">eFixed</text>
</g>
<!-- EFixed1&#45;&gt;ConvertUnits1 -->
<g id="edge3" class="edge">
<title>EFixed1&#45;&gt;ConvertUnits1</title>
<path fill="none" stroke="black" d="M631.63,-1667.59C641.99,-1658.62 655.3,-1647.1 667.11,-1636.88"/>
<polygon fill="black" stroke="black" points="669.36,-1639.55 674.63,-1630.36 664.78,-1634.26 669.36,-1639.55"/>
</g>
<!-- EFixed1&#45;&gt;CylinderAbsorption1 -->
<g id="edge12" class="edge">
<title>EFixed1&#45;&gt;CylinderAbsorption1</title>
<path fill="none" stroke="black" d="M613.84,-1665.78C613.84,-1651.41 613.84,-1630.37 613.84,-1612 613.84,-1612 613.84,-1612 613.84,-1450 613.84,-1433.23 604.61,-1417.38 594.33,-1404.92"/>
<polygon fill="black" stroke="black" points="597.06,-1402.73 587.78,-1397.62 591.85,-1407.4 597.06,-1402.73"/>
</g>
<!-- EFixed2 -->
<g id="node20" class="node">
<title>EFixed2</title>
<ellipse fill="khaki" stroke="black" cx="584.84" cy="-1145" rx="40.09" ry="18"/>
<text text-anchor="middle" x="584.84" y="-1141.3" font-family="Helvetica,sans-Serif" font-size="14.00">eFixed</text>
</g>
<!-- EFixed2&#45;&gt;ConvertUnits2 -->
<g id="edge17" class="edge">
<title>EFixed2&#45;&gt;ConvertUnits2</title>
<path fill="none" stroke="black" d="M565.35,-1128.81C543.02,-1111.4 506.1,-1082.63 479.81,-1062.14"/>
<polygon fill="black" stroke="black" points="482.23,-1059.59 472.19,-1056.2 477.93,-1065.11 482.23,-1059.59"/>
</g>
<!-- OutputWorkspace -->
<g id="node21" class="node">
<title>OutputWorkspace</title>
<ellipse fill="khaki" stroke="black" cx="260.84" cy="-18" rx="92.08" ry="18"/>
<text text-anchor="middle" x="260.84" y="-14.3" font-family="Helvetica,sans-Serif" font-size="14.00">OutputWorkspace</text>
</g>
<!-- GetEFixed&#45;&gt;EFixed1 -->
<g id="edge2" class="edge">
<title>GetEFixed&#45;&gt;EFixed1</title>
<path fill="none" stroke="black" d="M619.9,-1738.81C619.04,-1731.14 618,-1721.89 617.02,-1713.24"/>
<polygon fill="black" stroke="black" points="620.53,-1713.08 615.93,-1703.53 613.57,-1713.86 620.53,-1713.08"/>
</g>
<!-- ConvertUnits1&#45;&gt;SampleWorkspace_Wave -->
<g id="edge5" class="edge">
<title>ConvertUnits1&#45;&gt;SampleWorkspace_Wave</title>
<path fill="none" stroke="black" d="M749.62,-1602.12C847.66,-1587.75 1056.65,-1557.12 1179.71,-1539.09"/>
<polygon fill="black" stroke="black" points="1180.09,-1542.57 1189.48,-1537.66 1179.08,-1535.64 1180.09,-1542.57"/>
<text text-anchor="middle" x="1165.84" y="-1563.8" font-family="Helvetica,sans-Serif" font-size="14.00">Convert input workspace into Wavelength</text>
</g>
<!-- ConvertUnits2&#45;&gt;CanWorkspace_Wave -->
<g id="edge18" class="edge">
<title>ConvertUnits2&#45;&gt;CanWorkspace_Wave</title>
<path fill="none" stroke="black" d="M438.72,-1018.8C431.81,-1007.05 422.51,-991.24 414.63,-977.84"/>
<polygon fill="black" stroke="black" points="417.8,-976.32 409.71,-969.48 411.76,-979.87 417.8,-976.32"/>
<text text-anchor="middle" x="567.34" y="-989.8" font-family="Helvetica,sans-Serif" font-size="14.00">Convert can workspace into Wavelength</text>
</g>
<!-- ConvertUnits3&#45;&gt;AddSampleLogMultiple -->
<g id="edge42" class="edge">
<title>ConvertUnits3&#45;&gt;AddSampleLogMultiple</title>
<path fill="none" stroke="black" d="M355.26,-218.63C339.07,-209.43 318.97,-198.02 301.48,-188.08"/>
<polygon fill="black" stroke="black" points="303.28,-185.08 292.85,-183.18 299.82,-191.17 303.28,-185.08"/>
</g>
<!-- SetSampleMaterial1&#45;&gt;CylinderAbsorption1 -->
<g id="edge9" class="edge">
<title>SetSampleMaterial1&#45;&gt;CylinderAbsorption1</title>
<path fill="none" stroke="black" d="M817.72,-1433.98C768.95,-1423.29 704.61,-1409.19 653.29,-1397.95"/>
<polygon fill="black" stroke="black" points="654.22,-1394.56 643.7,-1395.84 652.72,-1401.4 654.22,-1394.56"/>
</g>
<!-- SetSampleMaterial2&#45;&gt;CylinderAbsorption2 -->
<g id="edge27" class="edge">
<title>SetSampleMaterial2&#45;&gt;CylinderAbsorption2</title>
<path fill="none" stroke="black" d="M552.32,-611.8C545.18,-600.12 535.58,-584.45 527.42,-571.11"/>
<polygon fill="black" stroke="black" points="530.52,-569.46 522.32,-562.76 524.55,-573.12 530.52,-569.46"/>
</g>
<!-- Divide1 -->
<g id="node31" class="node">
<title>Divide1</title>
<path fill="lightskyblue" stroke="black" d="M528.84,-488C528.84,-488 492.84,-488 492.84,-488 486.84,-488 480.84,-482 480.84,-476 480.84,-476 480.84,-464 480.84,-464 480.84,-458 486.84,-452 492.84,-452 492.84,-452 528.84,-452 528.84,-452 534.84,-452 540.84,-458 540.84,-464 540.84,-464 540.84,-476 540.84,-476 540.84,-482 534.84,-488 528.84,-488"/>
<text text-anchor="middle" x="510.84" y="-466.3" font-family="Helvetica,sans-Serif" font-size="14.00">Divide</text>
</g>
<!-- SetSampleMaterial2&#45;&gt;Divide1 -->
<g id="edge30" class="edge">
<title>SetSampleMaterial2&#45;&gt;Divide1</title>
<path fill="none" stroke="black" d="M576.2,-611.59C590.84,-590.23 610.32,-553.35 594.84,-525 585.42,-507.74 567.85,-495.17 551.2,-486.52"/>
<polygon fill="black" stroke="black" points="552.93,-483.47 542.4,-482.3 549.9,-489.78 552.93,-483.47"/>
</g>
<!-- CylinderAbsorption1&#45;&gt;AbsWorkspace1 -->
<g id="edge13" class="edge">
<title>CylinderAbsorption1&#45;&gt;AbsWorkspace1</title>
<path fill="none" stroke="black" d="M566.84,-1359.81C566.84,-1352.23 566.84,-1343.1 566.84,-1334.54"/>
<polygon fill="black" stroke="black" points="570.34,-1334.54 566.84,-1324.54 563.34,-1334.54 570.34,-1334.54"/>
</g>
<!-- CylinderAbsorption2&#45;&gt;Divide1 -->
<g id="edge29" class="edge">
<title>CylinderAbsorption2&#45;&gt;Divide1</title>
<path fill="none" stroke="black" d="M510.84,-524.81C510.84,-517.23 510.84,-508.1 510.84,-499.54"/>
<polygon fill="black" stroke="black" points="514.34,-499.54 510.84,-489.54 507.34,-499.54 514.34,-499.54"/>
</g>
<!-- useCorrections -->
<g id="node40" class="node">
<title>useCorrections</title>
<polygon fill="limegreen" stroke="black" points="163.84,-735 40.51,-717 163.84,-699 287.17,-717 163.84,-735"/>
<text text-anchor="middle" x="163.84" y="-713.3" font-family="Helvetica,sans-Serif" font-size="14.00">Can Corrections?</text>
</g>
<!-- Scale&#45;&gt;useCorrections -->
<g id="edge22" class="edge">
<title>Scale&#45;&gt;useCorrections</title>
<path fill="none" stroke="black" d="M252.35,-772.17C235.5,-761.86 213.86,-748.61 196.19,-737.8"/>
<polygon fill="black" stroke="black" points="198.49,-735.1 188.13,-732.87 194.83,-741.07 198.49,-735.1"/>
</g>
<!-- Divide1&#45;&gt;Minus1 -->
<g id="edge31" class="edge">
<title>Divide1&#45;&gt;Minus1</title>
<path fill="none" stroke="black" d="M480.58,-451.81C463.83,-442.3 442.83,-430.37 424.86,-420.16"/>
<polygon fill="black" stroke="black" points="426.7,-417.18 416.28,-415.29 423.24,-423.27 426.7,-417.18"/>
</g>
<!-- Divide2&#45;&gt;SampleWorkspace_Wave2 -->
<g id="edge39" class="edge">
<title>Divide2&#45;&gt;SampleWorkspace_Wave2</title>
<path fill="none" stroke="black" d="M295.95,-378.63C311.6,-369.3 331.07,-357.68 347.89,-347.64"/>
<polygon fill="black" stroke="black" points="349.35,-350.85 356.14,-342.72 345.76,-344.84 349.35,-350.85"/>
</g>
<!-- Divide3 -->
<g id="node33" class="node">
<title>Divide3</title>
<path fill="lightskyblue" stroke="black" d="M717.84,-1109C717.84,-1109 681.84,-1109 681.84,-1109 675.84,-1109 669.84,-1103 669.84,-1097 669.84,-1097 669.84,-1085 669.84,-1085 669.84,-1079 675.84,-1073 681.84,-1073 681.84,-1073 717.84,-1073 717.84,-1073 723.84,-1073 729.84,-1079 729.84,-1085 729.84,-1085 729.84,-1097 729.84,-1097 729.84,-1103 723.84,-1109 717.84,-1109"/>
<text text-anchor="middle" x="699.84" y="-1087.3" font-family="Helvetica,sans-Serif" font-size="14.00">Divide</text>
</g>
<!-- Divide3&#45;&gt;SampleWorkspace_Wave2 -->
<g id="edge40" class="edge">
<title>Divide3&#45;&gt;SampleWorkspace_Wave2</title>
<path fill="none" stroke="black" d="M719.8,-1072.79C737.92,-1055.16 761.84,-1025.93 761.84,-994.5 761.84,-994.5 761.84,-994.5 761.84,-396 761.84,-345.39 628.66,-329.88 520.82,-325.6"/>
<polygon fill="black" stroke="black" points="521.11,-322.11 510.99,-325.25 520.86,-329.11 521.11,-322.11"/>
</g>
<!-- Minus1&#45;&gt;SampleWorkspace_Wave2 -->
<g id="edge38" class="edge">
<title>Minus1&#45;&gt;SampleWorkspace_Wave2</title>
<path fill="none" stroke="black" d="M385.84,-378.81C385.84,-371.23 385.84,-362.1 385.84,-353.54"/>
<polygon fill="black" stroke="black" points="389.34,-353.54 385.84,-343.54 382.34,-353.54 389.34,-353.54"/>
</g>
<!-- Minus2&#45;&gt;Divide2 -->
<g id="edge35" class="edge">
<title>Minus2&#45;&gt;Divide2</title>
<path fill="none" stroke="black" d="M266.84,-451.81C266.84,-444.23 266.84,-435.1 266.84,-426.54"/>
<polygon fill="black" stroke="black" points="270.34,-426.54 266.84,-416.54 263.34,-426.54 270.34,-426.54"/>
</g>
<!-- GroupWorkspaces -->
<g id="node37" class="node">
<title>GroupWorkspaces</title>
<path fill="lightskyblue" stroke="black" d="M320.34,-109C320.34,-109 201.34,-109 201.34,-109 195.34,-109 189.34,-103 189.34,-97 189.34,-97 189.34,-85 189.34,-85 189.34,-79 195.34,-73 201.34,-73 201.34,-73 320.34,-73 320.34,-73 326.34,-73 332.34,-79 332.34,-85 332.34,-85 332.34,-97 332.34,-97 332.34,-103 326.34,-109 320.34,-109"/>
<text text-anchor="middle" x="260.84" y="-87.3" font-family="Helvetica,sans-Serif" font-size="14.00">GroupWorkspaces</text>
</g>
<!-- AddSampleLogMultiple&#45;&gt;GroupWorkspaces -->
<g id="edge44" class="edge">
<title>AddSampleLogMultiple&#45;&gt;GroupWorkspaces</title>
<path fill="none" stroke="black" d="M260.84,-145.81C260.84,-138.23 260.84,-129.1 260.84,-120.54"/>
<polygon fill="black" stroke="black" points="264.34,-120.54 260.84,-110.54 257.34,-120.54 264.34,-120.54"/>
</g>
<!-- GroupWorkspaces&#45;&gt;OutputWorkspace -->
<g id="edge45" class="edge">
<title>GroupWorkspaces&#45;&gt;OutputWorkspace</title>
<path fill="none" stroke="black" d="M260.84,-72.81C260.84,-65.23 260.84,-56.1 260.84,-47.54"/>
<polygon fill="black" stroke="black" points="264.34,-47.54 260.84,-37.54 257.34,-47.54 264.34,-47.54"/>
</g>
<!-- canGiven&#45;&gt;CanWorkspace -->
<g id="edge15" class="edge">
<title>canGiven&#45;&gt;CanWorkspace</title>
<path fill="none" stroke="black" d="M546.82,-1216.58C528.8,-1203.6 502.01,-1184.3 480.99,-1169.16"/>
<polygon fill="black" stroke="black" points="483.18,-1166.42 473.02,-1163.42 479.09,-1172.1 483.18,-1166.42"/>
<text text-anchor="middle" x="527.34" y="-1184.8" font-family="Helvetica,sans-Serif" font-size="14.00">Yes</text>
</g>
<!-- canGiven&#45;&gt;Divide3 -->
<g id="edge37" class="edge">
<title>canGiven&#45;&gt;Divide3</title>
<path fill="none" stroke="black" d="M581.87,-1216C595.53,-1202.3 616.19,-1181.44 633.84,-1163 648.06,-1148.14 663.75,-1131.28 676.26,-1117.73"/>
<polygon fill="black" stroke="black" points="678.75,-1120.19 682.95,-1110.46 673.6,-1115.45 678.75,-1120.19"/>
<text text-anchor="middle" x="625.34" y="-1184.8" font-family="Helvetica,sans-Serif" font-size="14.00">No</text>
</g>
<!-- canScale&#45;&gt;Scale -->
<g id="edge20" class="edge">
<title>canScale&#45;&gt;Scale</title>
<path fill="none" stroke="black" d="M153.19,-860.95C160.76,-849.88 172.36,-835.21 185.84,-826 206.38,-811.96 215.56,-816.77 238.84,-808 239.96,-807.58 241.09,-807.15 242.23,-806.71"/>
<polygon fill="black" stroke="black" points="243.18,-810.09 251.19,-803.15 240.6,-803.59 243.18,-810.09"/>
<text text-anchor="middle" x="235.34" y="-829.8" font-family="Helvetica,sans-Serif" font-size="14.00">Not equal to 1</text>
</g>
<!-- canScale&#45;&gt;useCorrections -->
<g id="edge23" class="edge">
<title>canScale&#45;&gt;useCorrections</title>
<path fill="none" stroke="black" d="M146.9,-859.3C147.91,-853.51 148.99,-846.98 149.84,-841 154.45,-808.64 158.53,-771.31 161.07,-746.34"/>
<polygon fill="black" stroke="black" points="164.53,-746.96 162.05,-736.66 157.56,-746.26 164.53,-746.96"/>
<text text-anchor="middle" x="194.34" y="-786.3" font-family="Helvetica,sans-Serif" font-size="14.00">Equal to 1</text>
</g>
<!-- useCorrections&#45;&gt;SetSampleMaterial2 -->
<g id="edge24" class="edge">
<title>useCorrections&#45;&gt;SetSampleMaterial2</title>
<path fill="none" stroke="black" d="M212.37,-705.66C278.42,-691.59 397.64,-666.19 478.5,-648.97"/>
<polygon fill="black" stroke="black" points="479.11,-652.42 488.16,-646.91 477.65,-645.57 479.11,-652.42"/>
<text text-anchor="middle" x="399.34" y="-669.8" font-family="Helvetica,sans-Serif" font-size="14.00">Yes</text>
</g>
<!-- useCorrections&#45;&gt;Minus2 -->
<g id="edge33" class="edge">
<title>useCorrections&#45;&gt;Minus2</title>
<path fill="none" stroke="black" d="M176.48,-700.39C180.64,-694.59 184.94,-687.77 187.84,-681 215.75,-615.86 189.57,-588.59 220.84,-525 225.84,-514.83 233.19,-504.99 240.56,-496.56"/>
<polygon fill="black" stroke="black" points="242.91,-499.17 247.11,-489.45 237.76,-494.43 242.91,-499.17"/>
<text text-anchor="middle" x="214.34" y="-582.8" font-family="Helvetica,sans-Serif" font-size="14.00">No</text>
</g>
</g>
</svg>
