<?xml version="1.0" encoding="UTF-8" standalone="no"?>
<!DOCTYPE svg PUBLIC "-//W3C//DTD SVG 1.1//EN"
 "http://www.w3.org/Graphics/SVG/1.1/DTD/svg11.dtd">
<!-- Generated by graphviz version 7.1.0 (20230122.1345)
 -->
<!-- Title: MatchAndMergeWorkspaces Pages: 1 -->
<svg width="788pt" height="770pt"
 viewBox="0.00 0.00 787.94 770.00" xmlns="http://www.w3.org/2000/svg" xmlns:xlink="http://www.w3.org/1999/xlink">
<g id="graph0" class="graph" transform="scale(1 1) rotate(0) translate(4 766)">
<title>MatchAndMergeWorkspaces</title>
<polygon fill="white" stroke="none" points="-4,4 -4,-766 783.94,-766 783.94,4 -4,4"/>
<text text-anchor="middle" x="389.97" y="-746.8" font-family="Helvetica,sans-Serif" font-size="14.00">MatchAndMergeWorkspaces Workflow Diagram</text>
<!-- inputWorkspace -->
<g id="node1" class="node">
<title>inputWorkspace</title>
<ellipse fill="khaki" stroke="black" cx="344" cy="-721" rx="89.08" ry="18"/>
<text text-anchor="middle" x="344" y="-717.3" font-family="Helvetica,sans-Serif" font-size="14.00">InputWorkspaces</text>
</g>
<!-- findLargestRange -->
<g id="node15" class="node">
<title>findLargestRange</title>
<polygon fill="lightseagreen" stroke="black" points="502,-666 186,-666 186,-630 502,-630 502,-666"/>
<text text-anchor="middle" x="344" y="-644.3" font-family="Helvetica,sans-Serif" font-size="14.00">Find detector data with the largest X range</text>
</g>
<!-- inputWorkspace&#45;&gt;findLargestRange -->
<g id="edge1" class="edge">
<title>inputWorkspace&#45;&gt;findLargestRange</title>
<path fill="none" stroke="black" d="M344,-702.81C344,-695.23 344,-686.1 344,-677.54"/>
<polygon fill="black" stroke="black" points="347.5,-677.54 344,-667.54 340.5,-677.54 347.5,-677.54"/>
</g>
<!-- outputWorkspace -->
<g id="node2" class="node">
<title>outputWorkspace</title>
<ellipse fill="khaki" stroke="black" cx="592" cy="-18" rx="92.08" ry="18"/>
<text text-anchor="middle" x="592" y="-14.3" font-family="Helvetica,sans-Serif" font-size="14.00">OutputWorkspace</text>
</g>
<!-- xMin -->
<g id="node3" class="node">
<title>xMin</title>
<ellipse fill="khaki" stroke="black" cx="592" cy="-310" rx="33.29" ry="18"/>
<text text-anchor="middle" x="592" y="-306.3" font-family="Helvetica,sans-Serif" font-size="14.00">XMin</text>
</g>
<!-- CropWorkspaceRagged -->
<g id="node12" class="node">
<title>CropWorkspaceRagged</title>
<path fill="lightskyblue" stroke="black" d="M680,-255C680,-255 504,-255 504,-255 498,-255 492,-249 492,-243 492,-243 492,-231 492,-231 492,-225 498,-219 504,-219 504,-219 680,-219 680,-219 686,-219 692,-225 692,-231 692,-231 692,-243 692,-243 692,-249 686,-255 680,-255"/>
<text text-anchor="middle" x="592" y="-233.3" font-family="Helvetica,sans-Serif" font-size="14.00">CropWorkspaceRagged v1</text>
</g>
<!-- xMin&#45;&gt;CropWorkspaceRagged -->
<g id="edge12" class="edge">
<title>xMin&#45;&gt;CropWorkspaceRagged</title>
<path fill="none" stroke="black" d="M592,-291.81C592,-284.23 592,-275.1 592,-266.54"/>
<polygon fill="black" stroke="black" points="595.5,-266.54 592,-256.54 588.5,-266.54 595.5,-266.54"/>
</g>
<!-- xMax -->
<g id="node4" class="node">
<title>xMax</title>
<ellipse fill="khaki" stroke="black" cx="679" cy="-310" rx="36" ry="18"/>
<text text-anchor="middle" x="679" y="-306.3" font-family="Helvetica,sans-Serif" font-size="14.00">XMax</text>
</g>
<!-- xMax&#45;&gt;CropWorkspaceRagged -->
<g id="edge13" class="edge">
<title>xMax&#45;&gt;CropWorkspaceRagged</title>
<path fill="none" stroke="black" d="M660.97,-294.29C649.73,-285.11 634.98,-273.08 622.01,-262.49"/>
<polygon fill="black" stroke="black" points="624.51,-260.02 614.55,-256.41 620.09,-265.44 624.51,-260.02"/>
</g>
<!-- calculateScale -->
<g id="node5" class="node">
<title>calculateScale</title>
<ellipse fill="khaki" stroke="black" cx="526" cy="-432" rx="76.09" ry="18"/>
<text text-anchor="middle" x="526" y="-428.3" font-family="Helvetica,sans-Serif" font-size="14.00">CalculateScale</text>
</g>
<!-- MatchSpectra -->
<g id="node11" class="node">
<title>MatchSpectra</title>
<path fill="lightskyblue" stroke="black" d="M529,-328C529,-328 419,-328 419,-328 413,-328 407,-322 407,-316 407,-316 407,-304 407,-304 407,-298 413,-292 419,-292 419,-292 529,-292 529,-292 535,-292 541,-298 541,-304 541,-304 541,-316 541,-316 541,-322 535,-328 529,-328"/>
<text text-anchor="middle" x="474" y="-306.3" font-family="Helvetica,sans-Serif" font-size="14.00">MatchSpectra v1</text>
</g>
<!-- calculateScale&#45;&gt;MatchSpectra -->
<g id="edge9" class="edge">
<title>calculateScale&#45;&gt;MatchSpectra</title>
<path fill="none" stroke="black" d="M518.55,-413.81C510.05,-394.2 496.05,-361.88 486.01,-338.71"/>
<polygon fill="black" stroke="black" points="489.23,-337.33 482.04,-329.55 482.8,-340.12 489.23,-337.33"/>
</g>
<!-- calculateOffset -->
<g id="node6" class="node">
<title>calculateOffset</title>
<ellipse fill="khaki" stroke="black" cx="700" cy="-432" rx="79.89" ry="18"/>
<text text-anchor="middle" x="700" y="-428.3" font-family="Helvetica,sans-Serif" font-size="14.00">CalculateOffset</text>
</g>
<!-- calculateOffset&#45;&gt;MatchSpectra -->
<g id="edge10" class="edge">
<title>calculateOffset&#45;&gt;MatchSpectra</title>
<path fill="none" stroke="black" d="M673.01,-414.58C655.5,-404.1 632.1,-390.39 611,-379 581.39,-363.03 547.54,-346.21 520.89,-333.3"/>
<polygon fill="black" stroke="black" points="522.58,-330.23 512.05,-329.03 519.54,-336.53 522.58,-330.23"/>
</g>
<!-- matchSpectraIndex -->
<g id="node7" class="node">
<title>matchSpectraIndex</title>
<ellipse fill="khaki" stroke="black" cx="414" cy="-521" rx="178.97" ry="18"/>
<text text-anchor="middle" x="414" y="-517.3" font-family="Helvetica,sans-Serif" font-size="14.00">Index of spectra with largest X range</text>
</g>
<!-- matchSpectraIndex&#45;&gt;MatchSpectra -->
<g id="edge8" class="edge">
<title>matchSpectraIndex&#45;&gt;MatchSpectra</title>
<path fill="none" stroke="black" d="M415.83,-502.7C419.01,-475.74 426.63,-422.29 441,-379 445.6,-365.13 452.45,-350.46 458.71,-338.31"/>
<polygon fill="black" stroke="black" points="461.68,-340.17 463.29,-329.7 455.5,-336.89 461.68,-340.17"/>
</g>
<!-- isGroupWsNotConjoined -->
<g id="node8" class="node">
<title>isGroupWsNotConjoined</title>
<polygon fill="limegreen" stroke="black" points="197,-485 0,-432 197,-379 394,-432 197,-485"/>
<text text-anchor="middle" x="197" y="-443.3" font-family="Helvetica,sans-Serif" font-size="14.00">Are there</text>
<text text-anchor="middle" x="197" y="-428.3" font-family="Helvetica,sans-Serif" font-size="14.00"> un&#45;conjoined workspaces</text>
<text text-anchor="middle" x="197" y="-413.3" font-family="Helvetica,sans-Serif" font-size="14.00"> in the workspace list</text>
</g>
<!-- ConjoinWorkspaces -->
<g id="node10" class="node">
<title>ConjoinWorkspaces</title>
<path fill="lightskyblue" stroke="black" d="M289,-328C289,-328 139,-328 139,-328 133,-328 127,-322 127,-316 127,-316 127,-304 127,-304 127,-298 133,-292 139,-292 139,-292 289,-292 289,-292 295,-292 301,-298 301,-304 301,-304 301,-316 301,-316 301,-322 295,-328 289,-328"/>
<text text-anchor="middle" x="214" y="-306.3" font-family="Helvetica,sans-Serif" font-size="14.00">ConjoinWorkspaces v1</text>
</g>
<!-- isGroupWsNotConjoined&#45;&gt;ConjoinWorkspaces -->
<g id="edge5" class="edge">
<title>isGroupWsNotConjoined&#45;&gt;ConjoinWorkspaces</title>
<path fill="none" stroke="black" d="M173.95,-385.05C170.43,-372.12 169.53,-358.25 175,-346 176.44,-342.78 178.33,-339.73 180.51,-336.88"/>
<polygon fill="black" stroke="black" points="183.04,-339.31 187.23,-329.57 177.88,-334.57 183.04,-339.31"/>
<text text-anchor="middle" x="186.5" y="-349.8" font-family="Helvetica,sans-Serif" font-size="14.00">Yes</text>
</g>
<!-- isGroupWsNotConjoined&#45;&gt;MatchSpectra -->
<g id="edge6" class="edge">
<title>isGroupWsNotConjoined&#45;&gt;MatchSpectra</title>
<path fill="none" stroke="black" d="M269.74,-398.26C305.56,-382.28 349.44,-362.9 389,-346 399.24,-341.63 410.21,-337.04 420.75,-332.68"/>
<polygon fill="black" stroke="black" points="421.79,-336.03 429.7,-328.98 419.12,-329.56 421.79,-336.03"/>
<text text-anchor="middle" x="398.5" y="-349.8" font-family="Helvetica,sans-Serif" font-size="14.00">No</text>
</g>
<!-- Rebin1 -->
<g id="node9" class="node">
<title>Rebin1</title>
<path fill="lightskyblue" stroke="black" d="M302,-593C302,-593 248,-593 248,-593 242,-593 236,-587 236,-581 236,-581 236,-569 236,-569 236,-563 242,-557 248,-557 248,-557 302,-557 302,-557 308,-557 314,-563 314,-569 314,-569 314,-581 314,-581 314,-587 308,-593 302,-593"/>
<text text-anchor="middle" x="275" y="-571.3" font-family="Helvetica,sans-Serif" font-size="14.00">Rebin v1</text>
</g>
<!-- Rebin1&#45;&gt;isGroupWsNotConjoined -->
<g id="edge4" class="edge">
<title>Rebin1&#45;&gt;isGroupWsNotConjoined</title>
<path fill="none" stroke="black" d="M243.89,-556.66C237.2,-551.7 230.72,-545.78 226,-539 216.87,-525.9 210.61,-510.04 206.32,-494.62"/>
<polygon fill="black" stroke="black" points="209.73,-493.83 203.9,-484.98 202.94,-495.54 209.73,-493.83"/>
</g>
<!-- ConjoinWorkspaces&#45;&gt;isGroupWsNotConjoined -->
<g id="edge7" class="edge">
<title>ConjoinWorkspaces&#45;&gt;isGroupWsNotConjoined</title>
<path fill="none" stroke="black" d="M230.19,-328.27C234.18,-333.56 237.91,-339.68 240,-346 242.09,-352.33 241.81,-354.58 240,-361 238.46,-366.44 236.37,-371.87 233.94,-377.16"/>
<polygon fill="black" stroke="black" points="230.96,-375.29 229.56,-385.79 237.21,-378.45 230.96,-375.29"/>
</g>
<!-- MatchSpectra&#45;&gt;CropWorkspaceRagged -->
<g id="edge11" class="edge">
<title>MatchSpectra&#45;&gt;CropWorkspaceRagged</title>
<path fill="none" stroke="black" d="M502.87,-291.63C518.01,-282.52 536.77,-271.23 553.17,-261.36"/>
<polygon fill="black" stroke="black" points="554.96,-264.37 561.73,-256.22 551.35,-258.37 554.96,-264.37"/>
</g>
<!-- Rebin2 -->
<g id="node13" class="node">
<title>Rebin2</title>
<path fill="lightskyblue" stroke="black" d="M619,-182C619,-182 565,-182 565,-182 559,-182 553,-176 553,-170 553,-170 553,-158 553,-158 553,-152 559,-146 565,-146 565,-146 619,-146 619,-146 625,-146 631,-152 631,-158 631,-158 631,-170 631,-170 631,-176 625,-182 619,-182"/>
<text text-anchor="middle" x="592" y="-160.3" font-family="Helvetica,sans-Serif" font-size="14.00">Rebin v1</text>
</g>
<!-- CropWorkspaceRagged&#45;&gt;Rebin2 -->
<g id="edge14" class="edge">
<title>CropWorkspaceRagged&#45;&gt;Rebin2</title>
<path fill="none" stroke="black" d="M592,-218.81C592,-211.23 592,-202.1 592,-193.54"/>
<polygon fill="black" stroke="black" points="595.5,-193.54 592,-183.54 588.5,-193.54 595.5,-193.54"/>
</g>
<!-- SumSpectra -->
<g id="node14" class="node">
<title>SumSpectra</title>
<path fill="lightskyblue" stroke="black" d="M641.5,-109C641.5,-109 542.5,-109 542.5,-109 536.5,-109 530.5,-103 530.5,-97 530.5,-97 530.5,-85 530.5,-85 530.5,-79 536.5,-73 542.5,-73 542.5,-73 641.5,-73 641.5,-73 647.5,-73 653.5,-79 653.5,-85 653.5,-85 653.5,-97 653.5,-97 653.5,-103 647.5,-109 641.5,-109"/>
<text text-anchor="middle" x="592" y="-87.3" font-family="Helvetica,sans-Serif" font-size="14.00">SumSpectra v1</text>
</g>
<!-- Rebin2&#45;&gt;SumSpectra -->
<g id="edge15" class="edge">
<title>Rebin2&#45;&gt;SumSpectra</title>
<path fill="none" stroke="black" d="M592,-145.81C592,-138.23 592,-129.1 592,-120.54"/>
<polygon fill="black" stroke="black" points="595.5,-120.54 592,-110.54 588.5,-120.54 595.5,-120.54"/>
</g>
<!-- SumSpectra&#45;&gt;outputWorkspace -->
<g id="edge16" class="edge">
<title>SumSpectra&#45;&gt;outputWorkspace</title>
<path fill="none" stroke="black" d="M592,-72.81C592,-65.23 592,-56.1 592,-47.54"/>
<polygon fill="black" stroke="black" points="595.5,-47.54 592,-37.54 588.5,-47.54 595.5,-47.54"/>
</g>
<!-- findLargestRange&#45;&gt;matchSpectraIndex -->
<g id="edge3" class="edge">
<title>findLargestRange&#45;&gt;matchSpectraIndex</title>
<path fill="none" stroke="black" d="M353.73,-629.62C365.44,-608.72 385.21,-573.42 398.9,-548.97"/>
<polygon fill="black" stroke="black" points="401.78,-550.99 403.61,-540.55 395.67,-547.57 401.78,-550.99"/>
</g>
<!-- findLargestRange&#45;&gt;Rebin1 -->
<g id="edge2" class="edge">
<title>findLargestRange&#45;&gt;Rebin1</title>
<path fill="none" stroke="black" d="M327.3,-629.81C318.91,-621.18 308.58,-610.56 299.33,-601.03"/>
<polygon fill="black" stroke="black" points="302.08,-598.85 292.6,-594.11 297.06,-603.72 302.08,-598.85"/>
</g>
</g>
</svg>
