<?xml version="1.0" encoding="UTF-8" standalone="no"?>
<!DOCTYPE svg PUBLIC "-//W3C//DTD SVG 1.1//EN"
 "http://www.w3.org/Graphics/SVG/1.1/DTD/svg11.dtd">
<!-- Generated by graphviz version 7.1.0 (20230122.1345)
 -->
<!-- Title: MolDyn Pages: 1 -->
<svg width="1036pt" height="648pt"
 viewBox="0.00 0.00 1036.34 648.00" xmlns="http://www.w3.org/2000/svg" xmlns:xlink="http://www.w3.org/1999/xlink">
<g id="graph0" class="graph" transform="scale(1 1) rotate(0) translate(4 644)">
<title>MolDyn</title>
<polygon fill="white" stroke="none" points="-4,4 -4,-644 1032.34,-644 1032.34,4 -4,4"/>
<text text-anchor="middle" x="514.17" y="-624.8" font-family="Helvetica,sans-Serif" font-size="14.00">MolDyn Flowchart</text>
<!-- Version -->
<g id="node1" class="node">
<title>Version</title>
<polygon fill="limegreen" stroke="black" points="169.29,-544 48.97,-526 169.29,-508 289.61,-526 169.29,-544"/>
<text text-anchor="middle" x="169.29" y="-522.3" font-family="Helvetica,sans-Serif" font-size="14.00">nMoldyn version</text>
</g>
<!-- LoadNMoldyn3Ascii -->
<g id="node13" class="node">
<title>LoadNMoldyn3Ascii</title>
<path fill="lightskyblue" stroke="black" d="M249.29,-457C249.29,-457 121.29,-457 121.29,-457 115.29,-457 109.29,-451 109.29,-445 109.29,-445 109.29,-433 109.29,-433 109.29,-427 115.29,-421 121.29,-421 121.29,-421 249.29,-421 249.29,-421 255.29,-421 261.29,-427 261.29,-433 261.29,-433 261.29,-445 261.29,-445 261.29,-451 255.29,-457 249.29,-457"/>
<text text-anchor="middle" x="185.29" y="-435.3" font-family="Helvetica,sans-Serif" font-size="14.00">LoadNMoldyn3Ascii</text>
</g>
<!-- Version&#45;&gt;LoadNMoldyn3Ascii -->
<g id="edge3" class="edge">
<title>Version&#45;&gt;LoadNMoldyn3Ascii</title>
<path fill="none" stroke="black" d="M172.45,-508.21C174.59,-496.83 177.48,-481.52 179.97,-468.29"/>
<polygon fill="black" stroke="black" points="183.34,-469.3 181.75,-458.83 176.46,-468.01 183.34,-469.3"/>
<text text-anchor="middle" x="183.29" y="-478.8" font-family="Helvetica,sans-Serif" font-size="14.00">3</text>
</g>
<!-- LoadNMoldyn4Ascii -->
<g id="node14" class="node">
<title>LoadNMoldyn4Ascii</title>
<path fill="lightskyblue" stroke="black" d="M419.29,-457C419.29,-457 291.29,-457 291.29,-457 285.29,-457 279.29,-451 279.29,-445 279.29,-445 279.29,-433 279.29,-433 279.29,-427 285.29,-421 291.29,-421 291.29,-421 419.29,-421 419.29,-421 425.29,-421 431.29,-427 431.29,-433 431.29,-433 431.29,-445 431.29,-445 431.29,-451 425.29,-457 419.29,-457"/>
<text text-anchor="middle" x="355.29" y="-435.3" font-family="Helvetica,sans-Serif" font-size="14.00">LoadNMoldyn4Ascii</text>
</g>
<!-- Version&#45;&gt;LoadNMoldyn4Ascii -->
<g id="edge5" class="edge">
<title>Version&#45;&gt;LoadNMoldyn4Ascii</title>
<path fill="none" stroke="black" d="M197.95,-511.91C226.94,-498.65 272.31,-477.92 306.9,-462.12"/>
<polygon fill="black" stroke="black" points="308.24,-465.35 315.88,-458.01 305.33,-458.99 308.24,-465.35"/>
<text text-anchor="middle" x="279.29" y="-478.8" font-family="Helvetica,sans-Serif" font-size="14.00">4</text>
</g>
<!-- IfSave -->
<g id="node2" class="node">
<title>IfSave</title>
<polygon fill="limegreen" stroke="black" points="256.29,-283 203.17,-265 256.29,-247 309.41,-265 256.29,-283"/>
<text text-anchor="middle" x="256.29" y="-261.3" font-family="Helvetica,sans-Serif" font-size="14.00">Save?</text>
</g>
<!-- SaveNexus -->
<g id="node15" class="node">
<title>SaveNexus</title>
<path fill="lightskyblue" stroke="black" d="M291.29,-196C291.29,-196 221.29,-196 221.29,-196 215.29,-196 209.29,-190 209.29,-184 209.29,-184 209.29,-172 209.29,-172 209.29,-166 215.29,-160 221.29,-160 221.29,-160 291.29,-160 291.29,-160 297.29,-160 303.29,-166 303.29,-172 303.29,-172 303.29,-184 303.29,-184 303.29,-190 297.29,-196 291.29,-196"/>
<text text-anchor="middle" x="256.29" y="-174.3" font-family="Helvetica,sans-Serif" font-size="14.00">SaveNexus</text>
</g>
<!-- IfSave&#45;&gt;SaveNexus -->
<g id="edge10" class="edge">
<title>IfSave&#45;&gt;SaveNexus</title>
<path fill="none" stroke="black" d="M256.29,-246.8C256.29,-235.58 256.29,-220.67 256.29,-207.69"/>
<polygon fill="black" stroke="black" points="259.79,-207.98 256.29,-197.98 252.79,-207.98 259.79,-207.98"/>
<text text-anchor="middle" x="267.79" y="-217.8" font-family="Helvetica,sans-Serif" font-size="14.00">Yes</text>
</g>
<!-- IsWorkspaceInEnergy -->
<g id="node3" class="node">
<title>IsWorkspaceInEnergy</title>
<polygon fill="limegreen" stroke="black" points="858.29,-544 688.2,-526 858.29,-508 1028.38,-526 858.29,-544"/>
<text text-anchor="middle" x="858.29" y="-522.3" font-family="Helvetica,sans-Serif" font-size="14.00">Is workspace in energy?</text>
</g>
<!-- IfSymmetrise -->
<g id="node4" class="node">
<title>IfSymmetrise</title>
<polygon fill="limegreen" stroke="black" points="729.29,-457 585.18,-439 729.29,-421 873.41,-439 729.29,-457"/>
<text text-anchor="middle" x="729.29" y="-435.3" font-family="Helvetica,sans-Serif" font-size="14.00">SymmetriseEnergy?</text>
</g>
<!-- IsWorkspaceInEnergy&#45;&gt;IfSymmetrise -->
<g id="edge12" class="edge">
<title>IsWorkspaceInEnergy&#45;&gt;IfSymmetrise</title>
<path fill="none" stroke="black" d="M835.53,-510C814.77,-496.32 783.9,-475.98 760.78,-460.75"/>
<polygon fill="black" stroke="black" points="762.94,-457.98 752.66,-455.4 759.09,-463.82 762.94,-457.98"/>
<text text-anchor="middle" x="813.79" y="-478.8" font-family="Helvetica,sans-Serif" font-size="14.00">Yes</text>
</g>
<!-- ProcessEnergyWorkspaces_End -->
<g id="node20" class="node">
<title>ProcessEnergyWorkspaces_End</title>
<ellipse fill="lightgrey" stroke="black" cx="708.29" cy="-18" rx="28.7" ry="18"/>
<text text-anchor="middle" x="708.29" y="-14.3" font-family="Helvetica,sans-Serif" font-size="14.00">End</text>
</g>
<!-- IsWorkspaceInEnergy&#45;&gt;ProcessEnergyWorkspaces_End -->
<g id="edge25" class="edge">
<title>IsWorkspaceInEnergy&#45;&gt;ProcessEnergyWorkspaces_End</title>
<path fill="none" stroke="black" d="M872.13,-508.96C884.7,-492.72 901.29,-466.3 901.29,-440 901.29,-440 901.29,-440 901.29,-90 901.29,-57.43 803.28,-35.23 746.95,-25.15"/>
<polygon fill="black" stroke="black" points="747.89,-21.76 737.44,-23.5 746.69,-28.66 747.89,-21.76"/>
<text text-anchor="middle" x="910.79" y="-261.3" font-family="Helvetica,sans-Serif" font-size="14.00">No</text>
</g>
<!-- IfCrop -->
<g id="node5" class="node">
<title>IfCrop</title>
<polygon fill="limegreen" stroke="black" points="742.29,-370 611.75,-352 742.29,-334 872.83,-352 742.29,-370"/>
<text text-anchor="middle" x="742.29" y="-348.3" font-family="Helvetica,sans-Serif" font-size="14.00">Have MaxEnergy?</text>
</g>
<!-- IfSymmetrise&#45;&gt;IfCrop -->
<g id="edge16" class="edge">
<title>IfSymmetrise&#45;&gt;IfCrop</title>
<path fill="none" stroke="black" d="M731.86,-421.21C733.59,-409.87 735.93,-394.63 737.94,-381.43"/>
<polygon fill="black" stroke="black" points="741.4,-381.96 739.46,-371.55 734.48,-380.9 741.4,-381.96"/>
<text text-anchor="middle" x="746.79" y="-391.8" font-family="Helvetica,sans-Serif" font-size="14.00">No</text>
</g>
<!-- Symmetrise -->
<g id="node16" class="node">
<title>Symmetrise</title>
<path fill="lightskyblue" stroke="black" d="M555.29,-283C555.29,-283 479.29,-283 479.29,-283 473.29,-283 467.29,-277 467.29,-271 467.29,-271 467.29,-259 467.29,-259 467.29,-253 473.29,-247 479.29,-247 479.29,-247 555.29,-247 555.29,-247 561.29,-247 567.29,-253 567.29,-259 567.29,-259 567.29,-271 567.29,-271 567.29,-277 561.29,-283 555.29,-283"/>
<text text-anchor="middle" x="517.29" y="-261.3" font-family="Helvetica,sans-Serif" font-size="14.00">Symmetrise</text>
</g>
<!-- IfSymmetrise&#45;&gt;Symmetrise -->
<g id="edge14" class="edge">
<title>IfSymmetrise&#45;&gt;Symmetrise</title>
<path fill="none" stroke="black" d="M649.89,-430.42C572.99,-421.24 464.29,-402.77 438.29,-370 416.8,-342.91 448.95,-311.19 478.45,-289.97"/>
<polygon fill="black" stroke="black" points="480.38,-292.89 486.62,-284.33 476.41,-287.13 480.38,-292.89"/>
<text text-anchor="middle" x="449.79" y="-348.3" font-family="Helvetica,sans-Serif" font-size="14.00">Yes</text>
</g>
<!-- IfConvolve -->
<g id="node6" class="node">
<title>IfConvolve</title>
<polygon fill="limegreen" stroke="black" points="669.29,-196 471.55,-178 669.29,-160 867.03,-178 669.29,-196"/>
<text text-anchor="middle" x="669.29" y="-174.3" font-family="Helvetica,sans-Serif" font-size="14.00">Have Resolution workspace?</text>
</g>
<!-- IfCrop&#45;&gt;IfConvolve -->
<g id="edge20" class="edge">
<title>IfCrop&#45;&gt;IfConvolve</title>
<path fill="none" stroke="black" d="M740.69,-333.74C738.23,-312.53 732.35,-275.8 719.29,-247 712.25,-231.47 701.28,-216.02 691.41,-203.77"/>
<polygon fill="black" stroke="black" points="694.22,-201.68 685.13,-196.25 688.85,-206.17 694.22,-201.68"/>
<text text-anchor="middle" x="741.79" y="-261.3" font-family="Helvetica,sans-Serif" font-size="14.00">No</text>
</g>
<!-- CropWorkspace -->
<g id="node17" class="node">
<title>CropWorkspace</title>
<path fill="lightskyblue" stroke="black" d="M698.79,-283C698.79,-283 597.79,-283 597.79,-283 591.79,-283 585.79,-277 585.79,-271 585.79,-271 585.79,-259 585.79,-259 585.79,-253 591.79,-247 597.79,-247 597.79,-247 698.79,-247 698.79,-247 704.79,-247 710.79,-253 710.79,-259 710.79,-259 710.79,-271 710.79,-271 710.79,-277 704.79,-283 698.79,-283"/>
<text text-anchor="middle" x="648.29" y="-261.3" font-family="Helvetica,sans-Serif" font-size="14.00">CropWorkspace</text>
</g>
<!-- IfCrop&#45;&gt;CropWorkspace -->
<g id="edge18" class="edge">
<title>IfCrop&#45;&gt;CropWorkspace</title>
<path fill="none" stroke="black" d="M725.92,-336.19C712.03,-323.64 691.83,-305.37 675.51,-290.62"/>
<polygon fill="black" stroke="black" points="678.28,-288.4 668.51,-284.29 673.58,-293.59 678.28,-288.4"/>
<text text-anchor="middle" x="712.79" y="-304.8" font-family="Helvetica,sans-Serif" font-size="14.00">Yes</text>
</g>
<!-- ConvolveWorkspaces -->
<g id="node18" class="node">
<title>ConvolveWorkspaces</title>
<path fill="lightskyblue" stroke="black" d="M660.29,-109C660.29,-109 520.29,-109 520.29,-109 514.29,-109 508.29,-103 508.29,-97 508.29,-97 508.29,-85 508.29,-85 508.29,-79 514.29,-73 520.29,-73 520.29,-73 660.29,-73 660.29,-73 666.29,-73 672.29,-79 672.29,-85 672.29,-85 672.29,-97 672.29,-97 672.29,-103 666.29,-109 660.29,-109"/>
<text text-anchor="middle" x="590.29" y="-87.3" font-family="Helvetica,sans-Serif" font-size="14.00">ConvolveWorkspaces</text>
</g>
<!-- IfConvolve&#45;&gt;ConvolveWorkspaces -->
<g id="edge21" class="edge">
<title>IfConvolve&#45;&gt;ConvolveWorkspaces</title>
<path fill="none" stroke="black" d="M654.43,-161.01C643.11,-148.83 627.28,-131.8 614.18,-117.7"/>
<polygon fill="black" stroke="black" points="616.85,-115.43 607.47,-110.49 611.72,-120.2 616.85,-115.43"/>
<text text-anchor="middle" x="646.79" y="-130.8" font-family="Helvetica,sans-Serif" font-size="14.00">Yes</text>
</g>
<!-- IfConvolve&#45;&gt;ProcessEnergyWorkspaces_End -->
<g id="edge24" class="edge">
<title>IfConvolve&#45;&gt;ProcessEnergyWorkspaces_End</title>
<path fill="none" stroke="black" d="M673.47,-160.09C680.12,-133.15 693.19,-80.18 701.29,-47.36"/>
<polygon fill="black" stroke="black" points="704.67,-48.28 703.67,-37.74 697.87,-46.61 704.67,-48.28"/>
<text text-anchor="middle" x="704.79" y="-87.3" font-family="Helvetica,sans-Serif" font-size="14.00">No</text>
</g>
<!-- ProcessEnergyWorkspaces -->
<g id="node7" class="node">
<title>ProcessEnergyWorkspaces</title>
<polygon fill="lightseagreen" stroke="black" points="322.79,-370 113.79,-370 113.79,-334 322.79,-334 322.79,-370"/>
<text text-anchor="middle" x="218.29" y="-348.3" font-family="Helvetica,sans-Serif" font-size="14.00">Process energy workspaces</text>
</g>
<!-- ProcessEnergyWorkspaces&#45;&gt;IfSave -->
<g id="edge9" class="edge">
<title>ProcessEnergyWorkspaces&#45;&gt;IfSave</title>
<path fill="none" stroke="black" d="M225.98,-333.8C231.42,-321.63 238.81,-305.1 244.93,-291.41"/>
<polygon fill="black" stroke="black" points="248,-293.12 248.89,-282.56 241.61,-290.26 248,-293.12"/>
</g>
<!-- OutputWorkspace -->
<g id="node12" class="node">
<title>OutputWorkspace</title>
<ellipse fill="khaki" stroke="black" cx="92.29" cy="-265" rx="92.08" ry="18"/>
<text text-anchor="middle" x="92.29" y="-261.3" font-family="Helvetica,sans-Serif" font-size="14.00">OutputWorkspace</text>
</g>
<!-- ProcessEnergyWorkspaces&#45;&gt;OutputWorkspace -->
<g id="edge8" class="edge">
<title>ProcessEnergyWorkspaces&#45;&gt;OutputWorkspace</title>
<path fill="none" stroke="black" d="M192.49,-333.59C173.47,-320.76 147.4,-303.18 126.63,-289.16"/>
<polygon fill="black" stroke="black" points="128.7,-286.34 118.46,-283.65 124.79,-292.14 128.7,-286.34"/>
</g>
<!-- Data -->
<g id="node8" class="node">
<title>Data</title>
<ellipse fill="khaki" stroke="black" cx="169.29" cy="-599" rx="31.7" ry="18"/>
<text text-anchor="middle" x="169.29" y="-595.3" font-family="Helvetica,sans-Serif" font-size="14.00">Data</text>
</g>
<!-- Data&#45;&gt;Version -->
<g id="edge1" class="edge">
<title>Data&#45;&gt;Version</title>
<path fill="none" stroke="black" d="M169.29,-580.81C169.29,-573.23 169.29,-564.1 169.29,-555.54"/>
<polygon fill="black" stroke="black" points="172.79,-555.54 169.29,-545.54 165.79,-555.54 172.79,-555.54"/>
</g>
<!-- Functions -->
<g id="node9" class="node">
<title>Functions</title>
<ellipse fill="khaki" stroke="black" cx="361.29" cy="-526" rx="53.89" ry="18"/>
<text text-anchor="middle" x="361.29" y="-522.3" font-family="Helvetica,sans-Serif" font-size="14.00">Functions</text>
</g>
<!-- Functions&#45;&gt;LoadNMoldyn3Ascii -->
<g id="edge2" class="edge">
<title>Functions&#45;&gt;LoadNMoldyn3Ascii</title>
<path fill="none" stroke="black" d="M331.44,-510.58C304.12,-497.39 263.28,-477.66 231.71,-462.42"/>
<polygon fill="black" stroke="black" points="233.28,-459.29 222.75,-458.09 230.23,-465.59 233.28,-459.29"/>
</g>
<!-- Functions&#45;&gt;LoadNMoldyn4Ascii -->
<g id="edge4" class="edge">
<title>Functions&#45;&gt;LoadNMoldyn4Ascii</title>
<path fill="none" stroke="black" d="M360.08,-507.8C359.29,-496.58 358.23,-481.67 357.32,-468.69"/>
<polygon fill="black" stroke="black" points="360.83,-468.71 356.63,-458.98 353.84,-469.2 360.83,-468.71"/>
</g>
<!-- Resolution -->
<g id="node10" class="node">
<title>Resolution</title>
<ellipse fill="khaki" stroke="black" cx="396.29" cy="-178" rx="57.69" ry="18"/>
<text text-anchor="middle" x="396.29" y="-174.3" font-family="Helvetica,sans-Serif" font-size="14.00">Resolution</text>
</g>
<!-- Resolution&#45;&gt;ConvolveWorkspaces -->
<g id="edge22" class="edge">
<title>Resolution&#45;&gt;ConvolveWorkspaces</title>
<path fill="none" stroke="black" d="M428.76,-162.77C459.16,-149.45 505.04,-129.35 540.15,-113.97"/>
<polygon fill="black" stroke="black" points="541.52,-117.19 549.28,-109.97 538.71,-110.78 541.52,-117.19"/>
</g>
<!-- MaxEnergy -->
<g id="node11" class="node">
<title>MaxEnergy</title>
<ellipse fill="khaki" stroke="black" cx="532.29" cy="-352" rx="61.99" ry="18"/>
<text text-anchor="middle" x="532.29" y="-348.3" font-family="Helvetica,sans-Serif" font-size="14.00">MaxEnergy</text>
</g>
<!-- MaxEnergy&#45;&gt;Symmetrise -->
<g id="edge13" class="edge">
<title>MaxEnergy&#45;&gt;Symmetrise</title>
<path fill="none" stroke="black" d="M529.26,-333.8C527.28,-322.58 524.65,-307.67 522.35,-294.69"/>
<polygon fill="black" stroke="black" points="525.82,-294.2 520.64,-284.96 518.93,-295.41 525.82,-294.2"/>
</g>
<!-- MaxEnergy&#45;&gt;CropWorkspace -->
<g id="edge17" class="edge">
<title>MaxEnergy&#45;&gt;CropWorkspace</title>
<path fill="none" stroke="black" d="M554.38,-334.81C571.67,-322.15 595.97,-304.34 615.52,-290.01"/>
<polygon fill="black" stroke="black" points="617.47,-292.92 623.47,-284.19 613.33,-287.28 617.47,-292.92"/>
</g>
<!-- LoadNMoldyn3Ascii&#45;&gt;ProcessEnergyWorkspaces -->
<g id="edge6" class="edge">
<title>LoadNMoldyn3Ascii&#45;&gt;ProcessEnergyWorkspaces</title>
<path fill="none" stroke="black" d="M191.97,-420.8C196.41,-409.35 202.35,-394.06 207.46,-380.89"/>
<polygon fill="black" stroke="black" points="210.61,-382.47 210.96,-371.88 204.08,-379.93 210.61,-382.47"/>
</g>
<!-- LoadNMoldyn4Ascii&#45;&gt;ProcessEnergyWorkspaces -->
<g id="edge7" class="edge">
<title>LoadNMoldyn4Ascii&#45;&gt;ProcessEnergyWorkspaces</title>
<path fill="none" stroke="black" d="M327.24,-420.59C306.64,-407.82 278.45,-390.32 255.9,-376.34"/>
<polygon fill="black" stroke="black" points="257.94,-373.48 247.59,-371.18 254.25,-379.43 257.94,-373.48"/>
</g>
<!-- Symmetrise&#45;&gt;IfConvolve -->
<g id="edge15" class="edge">
<title>Symmetrise&#45;&gt;IfConvolve</title>
<path fill="none" stroke="black" d="M548.42,-246.59C572.95,-232.87 607.21,-213.72 633,-199.3"/>
<polygon fill="black" stroke="black" points="634.43,-202.5 641.45,-194.57 631.01,-196.39 634.43,-202.5"/>
</g>
<!-- CropWorkspace&#45;&gt;IfConvolve -->
<g id="edge19" class="edge">
<title>CropWorkspace&#45;&gt;IfConvolve</title>
<path fill="none" stroke="black" d="M652.54,-246.8C655.38,-235.32 659.17,-219.96 662.43,-206.77"/>
<polygon fill="black" stroke="black" points="665.76,-207.9 664.76,-197.35 658.96,-206.22 665.76,-207.9"/>
</g>
<!-- ConvolveWorkspaces&#45;&gt;ProcessEnergyWorkspaces_End -->
<g id="edge23" class="edge">
<title>ConvolveWorkspaces&#45;&gt;ProcessEnergyWorkspaces_End</title>
<path fill="none" stroke="black" d="M619.16,-72.63C637.15,-61.81 660.25,-47.9 678.43,-36.97"/>
<polygon fill="black" stroke="black" points="680.16,-40.01 686.93,-31.86 676.55,-34.01 680.16,-40.01"/>
</g>
<!-- ProcessEnergyWorkspaces_Start -->
<g id="node19" class="node">
<title>ProcessEnergyWorkspaces_Start</title>
<ellipse fill="lightgrey" stroke="black" cx="858.29" cy="-599" rx="135.68" ry="18"/>
<text text-anchor="middle" x="858.29" y="-595.3" font-family="Helvetica,sans-Serif" font-size="14.00">Process energy workspaces</text>
</g>
<!-- ProcessEnergyWorkspaces_Start&#45;&gt;IsWorkspaceInEnergy -->
<g id="edge11" class="edge">
<title>ProcessEnergyWorkspaces_Start&#45;&gt;IsWorkspaceInEnergy</title>
<path fill="none" stroke="black" d="M858.29,-580.81C858.29,-573.23 858.29,-564.1 858.29,-555.54"/>
<polygon fill="black" stroke="black" points="861.79,-555.54 858.29,-545.54 854.79,-555.54 861.79,-555.54"/>
</g>
</g>
</svg>
