<?xml version="1.0" encoding="UTF-8" standalone="no"?>
<!DOCTYPE svg PUBLIC "-//W3C//DTD SVG 1.1//EN"
 "http://www.w3.org/Graphics/SVG/1.1/DTD/svg11.dtd">
<!-- Generated by graphviz version 7.1.0 (20230122.1345)
 -->
<!-- Title: MSDFit Pages: 1 -->
<svg width="750pt" height="568pt"
 viewBox="0.00 0.00 750.49 568.00" xmlns="http://www.w3.org/2000/svg" xmlns:xlink="http://www.w3.org/1999/xlink">
<g id="graph0" class="graph" transform="scale(1 1) rotate(0) translate(4 564)">
<title>MSDFit</title>
<polygon fill="white" stroke="none" points="-4,4 -4,-564 746.49,-564 746.49,4 -4,4"/>
<text text-anchor="middle" x="371.25" y="-544.8" font-family="Helvetica,sans-Serif" font-size="14.00">MSDFit Flowchart</text>
<!-- InputWorkspace -->
<g id="node1" class="node">
<title>InputWorkspace</title>
<ellipse fill="khaki" stroke="black" cx="84.49" cy="-519" rx="84.49" ry="18"/>
<text text-anchor="middle" x="84.49" y="-515.3" font-family="Helvetica,sans-Serif" font-size="14.00">InputWorkspace</text>
</g>
<!-- FitFunction -->
<g id="node15" class="node">
<title>FitFunction</title>
<polygon fill="grey" stroke="black" points="375.7,-464 217.88,-464 177.28,-428 335.1,-428 375.7,-464"/>
<text text-anchor="middle" x="276.49" y="-442.3" font-family="Times,serif" font-size="14.00">Fit Function</text>
</g>
<!-- InputWorkspace&#45;&gt;FitFunction -->
<g id="edge1" class="edge">
<title>InputWorkspace&#45;&gt;FitFunction</title>
<path fill="none" stroke="black" d="M125.21,-502.94C152.49,-492.86 188.79,-479.43 219,-468.26"/>
<polygon fill="black" stroke="black" points="219.82,-471.69 227.99,-464.94 217.4,-465.12 219.82,-471.69"/>
</g>
<!-- Model -->
<g id="node2" class="node">
<title>Model</title>
<ellipse fill="khaki" stroke="black" cx="224.49" cy="-519" rx="37.89" ry="18"/>
<text text-anchor="middle" x="224.49" y="-515.3" font-family="Helvetica,sans-Serif" font-size="14.00">Model</text>
</g>
<!-- Model&#45;&gt;FitFunction -->
<g id="edge2" class="edge">
<title>Model&#45;&gt;FitFunction</title>
<path fill="none" stroke="black" d="M236.55,-501.53C242.67,-493.18 250.26,-482.82 257.17,-473.39"/>
<polygon fill="black" stroke="black" points="259.79,-475.73 262.88,-465.59 254.15,-471.59 259.79,-475.73"/>
</g>
<!-- XStart -->
<g id="node3" class="node">
<title>XStart</title>
<ellipse fill="khaki" stroke="black" cx="432.49" cy="-446" rx="38.99" ry="18"/>
<text text-anchor="middle" x="432.49" y="-442.3" font-family="Helvetica,sans-Serif" font-size="14.00">XStart</text>
</g>
<!-- PlotPeakByLogValue -->
<g id="node10" class="node">
<title>PlotPeakByLogValue</title>
<path fill="lightskyblue" stroke="black" d="M498.49,-391C498.49,-391 366.49,-391 366.49,-391 360.49,-391 354.49,-385 354.49,-379 354.49,-379 354.49,-367 354.49,-367 354.49,-361 360.49,-355 366.49,-355 366.49,-355 498.49,-355 498.49,-355 504.49,-355 510.49,-361 510.49,-367 510.49,-367 510.49,-379 510.49,-379 510.49,-385 504.49,-391 498.49,-391"/>
<text text-anchor="middle" x="432.49" y="-369.3" font-family="Helvetica,sans-Serif" font-size="14.00">PlotPeakByLogValue</text>
</g>
<!-- XStart&#45;&gt;PlotPeakByLogValue -->
<g id="edge6" class="edge">
<title>XStart&#45;&gt;PlotPeakByLogValue</title>
<path fill="none" stroke="black" d="M432.49,-427.81C432.49,-420.23 432.49,-411.1 432.49,-402.54"/>
<polygon fill="black" stroke="black" points="435.99,-402.54 432.49,-392.54 428.99,-402.54 435.99,-402.54"/>
</g>
<!-- XEnd -->
<g id="node4" class="node">
<title>XEnd</title>
<ellipse fill="khaki" stroke="black" cx="523.49" cy="-446" rx="34.39" ry="18"/>
<text text-anchor="middle" x="523.49" y="-442.3" font-family="Helvetica,sans-Serif" font-size="14.00">XEnd</text>
</g>
<!-- XEnd&#45;&gt;PlotPeakByLogValue -->
<g id="edge7" class="edge">
<title>XEnd&#45;&gt;PlotPeakByLogValue</title>
<path fill="none" stroke="black" d="M505.08,-430.63C493.15,-421.33 477.31,-408.97 463.48,-398.18"/>
<polygon fill="black" stroke="black" points="465.97,-395.68 455.93,-392.29 461.66,-401.2 465.97,-395.68"/>
</g>
<!-- SpecMin -->
<g id="node5" class="node">
<title>SpecMin</title>
<ellipse fill="khaki" stroke="black" cx="328.49" cy="-519" rx="48.99" ry="18"/>
<text text-anchor="middle" x="328.49" y="-515.3" font-family="Helvetica,sans-Serif" font-size="14.00">SpecMin</text>
</g>
<!-- SpecMin&#45;&gt;FitFunction -->
<g id="edge3" class="edge">
<title>SpecMin&#45;&gt;FitFunction</title>
<path fill="none" stroke="black" d="M316.17,-501.17C310.15,-492.96 302.77,-482.87 296.01,-473.64"/>
<polygon fill="black" stroke="black" points="298.9,-471.67 290.16,-465.67 293.25,-475.8 298.9,-471.67"/>
</g>
<!-- SpecMax -->
<g id="node6" class="node">
<title>SpecMax</title>
<ellipse fill="khaki" stroke="black" cx="446.49" cy="-519" rx="51.19" ry="18"/>
<text text-anchor="middle" x="446.49" y="-515.3" font-family="Helvetica,sans-Serif" font-size="14.00">SpecMax</text>
</g>
<!-- SpecMax&#45;&gt;FitFunction -->
<g id="edge4" class="edge">
<title>SpecMax&#45;&gt;FitFunction</title>
<path fill="none" stroke="black" d="M414.52,-504.65C390.38,-494.57 356.75,-480.52 328.73,-468.81"/>
<polygon fill="black" stroke="black" points="330.26,-465.66 319.69,-465.04 327.57,-472.12 330.26,-465.66"/>
</g>
<!-- OutputWorkspace -->
<g id="node7" class="node">
<title>OutputWorkspace</title>
<ellipse fill="khaki" stroke="black" cx="549.49" cy="-18" rx="92.08" ry="18"/>
<text text-anchor="middle" x="549.49" y="-14.3" font-family="Helvetica,sans-Serif" font-size="14.00">OutputWorkspace</text>
</g>
<!-- ParameterWorkspace -->
<g id="node8" class="node">
<title>ParameterWorkspace</title>
<ellipse fill="khaki" stroke="black" cx="156.49" cy="-286" rx="107.48" ry="18"/>
<text text-anchor="middle" x="156.49" y="-282.3" font-family="Helvetica,sans-Serif" font-size="14.00">ParameterWorkspace</text>
</g>
<!-- FitWorkspaces -->
<g id="node9" class="node">
<title>FitWorkspaces</title>
<ellipse fill="khaki" stroke="black" cx="357.49" cy="-286" rx="76.09" ry="18"/>
<text text-anchor="middle" x="357.49" y="-282.3" font-family="Helvetica,sans-Serif" font-size="14.00">FitWorkspaces</text>
</g>
<!-- PlotPeakByLogValue&#45;&gt;ParameterWorkspace -->
<g id="edge8" class="edge">
<title>PlotPeakByLogValue&#45;&gt;ParameterWorkspace</title>
<path fill="none" stroke="black" d="M354.2,-358.38C327.35,-352.85 297.32,-345.68 270.49,-337 246.39,-329.2 220.47,-318.06 199.44,-308.28"/>
<polygon fill="black" stroke="black" points="201.14,-305.21 190.6,-304.1 198.15,-311.54 201.14,-305.21"/>
<text text-anchor="middle" x="310.49" y="-325.8" font-family="Helvetica,sans-Serif" font-size="14.00">Parameters</text>
</g>
<!-- PlotPeakByLogValue&#45;&gt;FitWorkspaces -->
<g id="edge9" class="edge">
<title>PlotPeakByLogValue&#45;&gt;FitWorkspaces</title>
<path fill="none" stroke="black" d="M377.3,-354.68C369.87,-350.07 363.2,-344.28 358.49,-337 354.41,-330.69 352.97,-322.92 352.86,-315.41"/>
<polygon fill="black" stroke="black" points="356.34,-315.77 353.49,-305.57 349.36,-315.32 356.34,-315.77"/>
<text text-anchor="middle" x="422.49" y="-325.8" font-family="Helvetica,sans-Serif" font-size="14.00">Fitted Workspaces</text>
</g>
<!-- ConvertToMatrixWorkspace_A0 -->
<g id="node11" class="node">
<title>ConvertToMatrixWorkspace_A0</title>
<path fill="lightskyblue" stroke="black" d="M602.49,-250C602.49,-250 420.49,-250 420.49,-250 414.49,-250 408.49,-244 408.49,-238 408.49,-238 408.49,-226 408.49,-226 408.49,-220 414.49,-214 420.49,-214 420.49,-214 602.49,-214 602.49,-214 608.49,-214 614.49,-220 614.49,-226 614.49,-226 614.49,-238 614.49,-238 614.49,-244 608.49,-250 602.49,-250"/>
<text text-anchor="middle" x="511.49" y="-228.3" font-family="Helvetica,sans-Serif" font-size="14.00">ConvertToMatrixWorkspace</text>
</g>
<!-- PlotPeakByLogValue&#45;&gt;ConvertToMatrixWorkspace_A0 -->
<g id="edge10" class="edge">
<title>PlotPeakByLogValue&#45;&gt;ConvertToMatrixWorkspace_A0</title>
<path fill="none" stroke="black" d="M468.05,-354.51C475.01,-349.68 481.65,-343.84 486.49,-337 502.15,-314.87 508.08,-284.17 510.28,-261.86"/>
<polygon fill="black" stroke="black" points="513.77,-262.19 511.05,-251.95 506.79,-261.65 513.77,-262.19"/>
<text text-anchor="middle" x="535.49" y="-325.8" font-family="Helvetica,sans-Serif" font-size="14.00">Parameters</text>
</g>
<!-- ConvertToMatrixWorkspace_A1 -->
<g id="node12" class="node">
<title>ConvertToMatrixWorkspace_A1</title>
<path fill="lightskyblue" stroke="black" d="M730.49,-304C730.49,-304 548.49,-304 548.49,-304 542.49,-304 536.49,-298 536.49,-292 536.49,-292 536.49,-280 536.49,-280 536.49,-274 542.49,-268 548.49,-268 548.49,-268 730.49,-268 730.49,-268 736.49,-268 742.49,-274 742.49,-280 742.49,-280 742.49,-292 742.49,-292 742.49,-298 736.49,-304 730.49,-304"/>
<text text-anchor="middle" x="639.49" y="-282.3" font-family="Helvetica,sans-Serif" font-size="14.00">ConvertToMatrixWorkspace</text>
</g>
<!-- PlotPeakByLogValue&#45;&gt;ConvertToMatrixWorkspace_A1 -->
<g id="edge12" class="edge">
<title>PlotPeakByLogValue&#45;&gt;ConvertToMatrixWorkspace_A1</title>
<path fill="none" stroke="black" d="M510.77,-364.47C537.93,-359.43 567.76,-351.03 592.49,-337 603.06,-331.01 612.67,-321.85 620.41,-313.01"/>
<polygon fill="black" stroke="black" points="622.88,-315.51 626.52,-305.56 617.47,-311.07 622.88,-315.51"/>
<text text-anchor="middle" x="652.49" y="-325.8" font-family="Helvetica,sans-Serif" font-size="14.00">Parameters</text>
</g>
<!-- GroupWorkspaces -->
<g id="node14" class="node">
<title>GroupWorkspaces</title>
<path fill="lightskyblue" stroke="black" d="M608.99,-109C608.99,-109 489.99,-109 489.99,-109 483.99,-109 477.99,-103 477.99,-97 477.99,-97 477.99,-85 477.99,-85 477.99,-79 483.99,-73 489.99,-73 489.99,-73 608.99,-73 608.99,-73 614.99,-73 620.99,-79 620.99,-85 620.99,-85 620.99,-97 620.99,-97 620.99,-103 614.99,-109 608.99,-109"/>
<text text-anchor="middle" x="549.49" y="-87.3" font-family="Helvetica,sans-Serif" font-size="14.00">GroupWorkspaces</text>
</g>
<!-- ConvertToMatrixWorkspace_A0&#45;&gt;GroupWorkspaces -->
<g id="edge11" class="edge">
<title>ConvertToMatrixWorkspace_A0&#45;&gt;GroupWorkspaces</title>
<path fill="none" stroke="black" d="M516.23,-213.68C522.63,-190.24 534.14,-148.16 541.8,-120.15"/>
<polygon fill="black" stroke="black" points="545.16,-121.13 544.42,-110.57 538.4,-119.29 545.16,-121.13"/>
<text text-anchor="middle" x="539.99" y="-174.3" font-family="Helvetica,sans-Serif" font-size="14.00">A0</text>
</g>
<!-- SortXAxis -->
<g id="node13" class="node">
<title>SortXAxis</title>
<path fill="lightskyblue" stroke="black" d="M653.49,-196C653.49,-196 593.49,-196 593.49,-196 587.49,-196 581.49,-190 581.49,-184 581.49,-184 581.49,-172 581.49,-172 581.49,-166 587.49,-160 593.49,-160 593.49,-160 653.49,-160 653.49,-160 659.49,-160 665.49,-166 665.49,-172 665.49,-172 665.49,-184 665.49,-184 665.49,-190 659.49,-196 653.49,-196"/>
<text text-anchor="middle" x="623.49" y="-174.3" font-family="Helvetica,sans-Serif" font-size="14.00">SortXAxis</text>
</g>
<!-- ConvertToMatrixWorkspace_A1&#45;&gt;SortXAxis -->
<g id="edge13" class="edge">
<title>ConvertToMatrixWorkspace_A1&#45;&gt;SortXAxis</title>
<path fill="none" stroke="black" d="M636.92,-267.97C634.46,-251.69 630.71,-226.82 627.8,-207.52"/>
<polygon fill="black" stroke="black" points="631.29,-207.2 626.34,-197.84 624.37,-208.25 631.29,-207.2"/>
</g>
<!-- SortXAxis&#45;&gt;GroupWorkspaces -->
<g id="edge14" class="edge">
<title>SortXAxis&#45;&gt;GroupWorkspaces</title>
<path fill="none" stroke="black" d="M608.52,-159.8C598.06,-147.78 583.9,-131.52 572.07,-117.94"/>
<polygon fill="black" stroke="black" points="574.9,-115.85 565.69,-110.61 569.62,-120.45 574.9,-115.85"/>
<text text-anchor="middle" x="600.99" y="-130.8" font-family="Helvetica,sans-Serif" font-size="14.00">A1</text>
</g>
<!-- GroupWorkspaces&#45;&gt;OutputWorkspace -->
<g id="edge15" class="edge">
<title>GroupWorkspaces&#45;&gt;OutputWorkspace</title>
<path fill="none" stroke="black" d="M549.49,-72.81C549.49,-65.23 549.49,-56.1 549.49,-47.54"/>
<polygon fill="black" stroke="black" points="552.99,-47.54 549.49,-37.54 545.99,-47.54 552.99,-47.54"/>
</g>
<!-- FitFunction&#45;&gt;PlotPeakByLogValue -->
<g id="edge5" class="edge">
<title>FitFunction&#45;&gt;PlotPeakByLogValue</title>
<path fill="none" stroke="black" d="M314.65,-427.63C335.52,-418.13 361.59,-406.27 383.9,-396.11"/>
<polygon fill="black" stroke="black" points="385.15,-399.39 392.81,-392.06 382.25,-393.02 385.15,-399.39"/>
</g>
</g>
</svg>
