<?xml version="1.0" encoding="UTF-8" standalone="no"?>
<!DOCTYPE svg PUBLIC "-//W3C//DTD SVG 1.1//EN"
 "http://www.w3.org/Graphics/SVG/1.1/DTD/svg11.dtd">
<!-- Generated by graphviz version 7.1.0 (20230122.1345)
 -->
<!-- Title: OSIRISDiffractionReduction Pages: 1 -->
<svg width="1115pt" height="2216pt"
 viewBox="0.00 0.00 1115.00 2216.00" xmlns="http://www.w3.org/2000/svg" xmlns:xlink="http://www.w3.org/1999/xlink">
<g id="graph0" class="graph" transform="scale(1 1) rotate(0) translate(4 2212)">
<title>OSIRISDiffractionReduction</title>
<polygon fill="white" stroke="none" points="-4,4 -4,-2212 1111,-2212 1111,4 -4,4"/>
<text text-anchor="middle" x="553.5" y="-2192.8" font-family="Helvetica,sans-Serif" font-size="14.00">OSIRISDiffractionReduction Flowchart</text>
<!-- CalibrationFile -->
<g id="node1" class="node">
<title>CalibrationFile</title>
<ellipse fill="khaki" stroke="black" cx="397" cy="-1155" rx="74.99" ry="18"/>
<text text-anchor="middle" x="397" y="-1151.3" font-family="Helvetica,sans-Serif" font-size="14.00">CalibrationFile</text>
</g>
<!-- AlignDetectors -->
<g id="node26" class="node">
<title>AlignDetectors</title>
<path fill="lightskyblue" stroke="black" d="M356.5,-1100C356.5,-1100 261.5,-1100 261.5,-1100 255.5,-1100 249.5,-1094 249.5,-1088 249.5,-1088 249.5,-1076 249.5,-1076 249.5,-1070 255.5,-1064 261.5,-1064 261.5,-1064 356.5,-1064 356.5,-1064 362.5,-1064 368.5,-1070 368.5,-1076 368.5,-1076 368.5,-1088 368.5,-1088 368.5,-1094 362.5,-1100 356.5,-1100"/>
<text text-anchor="middle" x="309" y="-1078.3" font-family="Helvetica,sans-Serif" font-size="14.00">AlignDetectors</text>
</g>
<!-- CalibrationFile&#45;&gt;AlignDetectors -->
<g id="edge27" class="edge">
<title>CalibrationFile&#45;&gt;AlignDetectors</title>
<path fill="none" stroke="black" d="M376.59,-1137.53C365.48,-1128.57 351.51,-1117.3 339.17,-1107.34"/>
<polygon fill="black" stroke="black" points="341.69,-1104.87 331.71,-1101.32 337.29,-1110.32 341.69,-1104.87"/>
</g>
<!-- DiffractionFocussing -->
<g id="node27" class="node">
<title>DiffractionFocussing</title>
<path fill="lightskyblue" stroke="black" d="M420,-1027C420,-1027 286,-1027 286,-1027 280,-1027 274,-1021 274,-1015 274,-1015 274,-1003 274,-1003 274,-997 280,-991 286,-991 286,-991 420,-991 420,-991 426,-991 432,-997 432,-1003 432,-1003 432,-1015 432,-1015 432,-1021 426,-1027 420,-1027"/>
<text text-anchor="middle" x="353" y="-1005.3" font-family="Helvetica,sans-Serif" font-size="14.00">DiffractionFocussing</text>
</g>
<!-- CalibrationFile&#45;&gt;DiffractionFocussing -->
<g id="edge29" class="edge">
<title>CalibrationFile&#45;&gt;DiffractionFocussing</title>
<path fill="none" stroke="black" d="M394.23,-1136.81C391.04,-1118.49 385.17,-1088.78 377,-1064 374.1,-1055.19 370.25,-1045.87 366.49,-1037.5"/>
<polygon fill="black" stroke="black" points="369.71,-1036.13 362.32,-1028.53 363.37,-1039.08 369.71,-1036.13"/>
</g>
<!-- OutputWorkspace -->
<g id="node2" class="node">
<title>OutputWorkspace</title>
<ellipse fill="khaki" stroke="black" cx="494" cy="-18" rx="92.08" ry="18"/>
<text text-anchor="middle" x="494" y="-14.3" font-family="Helvetica,sans-Serif" font-size="14.00">OutputWorkspace</text>
</g>
<!-- SampleRuns -->
<g id="node3" class="node">
<title>SampleRuns</title>
<ellipse fill="khaki" stroke="black" cx="93" cy="-2167" rx="66.89" ry="18"/>
<text text-anchor="middle" x="93" y="-2163.3" font-family="Helvetica,sans-Serif" font-size="14.00">SampleRuns</text>
</g>
<!-- Load -->
<g id="node21" class="node">
<title>Load</title>
<path fill="lightskyblue" stroke="black" d="M344,-2112C344,-2112 314,-2112 314,-2112 308,-2112 302,-2106 302,-2100 302,-2100 302,-2088 302,-2088 302,-2082 308,-2076 314,-2076 314,-2076 344,-2076 344,-2076 350,-2076 356,-2082 356,-2088 356,-2088 356,-2100 356,-2100 356,-2106 350,-2112 344,-2112"/>
<text text-anchor="middle" x="329" y="-2090.3" font-family="Helvetica,sans-Serif" font-size="14.00">Load</text>
</g>
<!-- SampleRuns&#45;&gt;Load -->
<g id="edge1" class="edge">
<title>SampleRuns&#45;&gt;Load</title>
<path fill="none" stroke="black" d="M136.56,-2152.89C180.72,-2139.61 248.4,-2119.25 290.61,-2106.55"/>
<polygon fill="black" stroke="black" points="291.52,-2109.93 300.09,-2103.7 289.51,-2103.23 291.52,-2109.93"/>
</g>
<!-- VanadiumRuns -->
<g id="node4" class="node">
<title>VanadiumRuns</title>
<ellipse fill="khaki" stroke="black" cx="257" cy="-2167" rx="78.79" ry="18"/>
<text text-anchor="middle" x="257" y="-2163.3" font-family="Helvetica,sans-Serif" font-size="14.00">VanadiumRuns</text>
</g>
<!-- VanadiumRuns&#45;&gt;Load -->
<g id="edge2" class="edge">
<title>VanadiumRuns&#45;&gt;Load</title>
<path fill="none" stroke="black" d="M274.06,-2149.17C282.75,-2140.61 293.49,-2130.02 303.16,-2120.48"/>
<polygon fill="black" stroke="black" points="305.57,-2123.02 310.23,-2113.51 300.65,-2118.04 305.57,-2123.02"/>
</g>
<!-- VanadiumWorkspaces -->
<g id="node5" class="node">
<title>VanadiumWorkspaces</title>
<ellipse fill="khaki" stroke="black" cx="216" cy="-2021" rx="110.48" ry="18"/>
<text text-anchor="middle" x="216" y="-2017.3" font-family="Helvetica,sans-Serif" font-size="14.00">VanadiumWorkspaces</text>
</g>
<!-- VanadiumWorkspaceMap -->
<g id="node16" class="node">
<title>VanadiumWorkspaceMap</title>
<ellipse fill="khaki" stroke="black" cx="214" cy="-1894" rx="124.58" ry="18"/>
<text text-anchor="middle" x="214" y="-1890.3" font-family="Helvetica,sans-Serif" font-size="14.00">VanadiumWorkspaceMap</text>
</g>
<!-- VanadiumWorkspaces&#45;&gt;VanadiumWorkspaceMap -->
<g id="edge21" class="edge">
<title>VanadiumWorkspaces&#45;&gt;VanadiumWorkspaceMap</title>
<path fill="none" stroke="black" d="M215.72,-2002.62C215.4,-1982.19 214.85,-1947.99 214.46,-1923.62"/>
<polygon fill="black" stroke="black" points="217.96,-1923.69 214.3,-1913.75 210.96,-1923.8 217.96,-1923.69"/>
</g>
<!-- SampleWorkspaces -->
<g id="node6" class="node">
<title>SampleWorkspaces</title>
<ellipse fill="khaki" stroke="black" cx="443" cy="-2021" rx="98.58" ry="18"/>
<text text-anchor="middle" x="443" y="-2017.3" font-family="Helvetica,sans-Serif" font-size="14.00">SampleWorkspaces</text>
</g>
<!-- useContainer -->
<g id="node33" class="node">
<title>useContainer</title>
<polygon fill="limegreen" stroke="black" points="443,-1966 341.79,-1948 443,-1930 544.21,-1948 443,-1966"/>
<text text-anchor="middle" x="443" y="-1944.3" font-family="Helvetica,sans-Serif" font-size="14.00">Container file</text>
</g>
<!-- SampleWorkspaces&#45;&gt;useContainer -->
<g id="edge7" class="edge">
<title>SampleWorkspaces&#45;&gt;useContainer</title>
<path fill="none" stroke="black" d="M443,-2002.81C443,-1995.23 443,-1986.1 443,-1977.54"/>
<polygon fill="black" stroke="black" points="446.5,-1977.54 443,-1967.54 439.5,-1977.54 446.5,-1977.54"/>
</g>
<!-- SampleWorkspaces1 -->
<g id="node7" class="node">
<title>SampleWorkspaces1</title>
<ellipse fill="khaki" stroke="black" cx="655" cy="-1534" rx="98.58" ry="18"/>
<text text-anchor="middle" x="655" y="-1530.3" font-family="Helvetica,sans-Serif" font-size="14.00">SampleWorkspaces</text>
</g>
<!-- Minus -->
<g id="node24" class="node">
<title>Minus</title>
<path fill="lightskyblue" stroke="black" d="M568,-1479C568,-1479 534,-1479 534,-1479 528,-1479 522,-1473 522,-1467 522,-1467 522,-1455 522,-1455 522,-1449 528,-1443 534,-1443 534,-1443 568,-1443 568,-1443 574,-1443 580,-1449 580,-1455 580,-1455 580,-1467 580,-1467 580,-1473 574,-1479 568,-1479"/>
<text text-anchor="middle" x="551" y="-1457.3" font-family="Helvetica,sans-Serif" font-size="14.00">Minus</text>
</g>
<!-- SampleWorkspaces1&#45;&gt;Minus -->
<g id="edge18" class="edge">
<title>SampleWorkspaces1&#45;&gt;Minus</title>
<path fill="none" stroke="black" d="M630.35,-1516.17C617.05,-1507.09 600.41,-1495.73 585.8,-1485.76"/>
<polygon fill="black" stroke="black" points="588.04,-1483.05 577.81,-1480.3 584.09,-1488.83 588.04,-1483.05"/>
</g>
<!-- SampleWorkspace -->
<g id="node8" class="node">
<title>SampleWorkspace</title>
<ellipse fill="khaki" stroke="black" cx="223" cy="-630" rx="94.48" ry="18"/>
<text text-anchor="middle" x="223" y="-626.3" font-family="Helvetica,sans-Serif" font-size="14.00">SampleWorkspace</text>
</g>
<!-- Divide -->
<g id="node29" class="node">
<title>Divide</title>
<path fill="lightskyblue" stroke="black" d="M251,-575C251,-575 215,-575 215,-575 209,-575 203,-569 203,-563 203,-563 203,-551 203,-551 203,-545 209,-539 215,-539 215,-539 251,-539 251,-539 257,-539 263,-545 263,-551 263,-551 263,-563 263,-563 263,-569 257,-575 251,-575"/>
<text text-anchor="middle" x="233" y="-553.3" font-family="Helvetica,sans-Serif" font-size="14.00">Divide</text>
</g>
<!-- SampleWorkspace&#45;&gt;Divide -->
<g id="edge37" class="edge">
<title>SampleWorkspace&#45;&gt;Divide</title>
<path fill="none" stroke="black" d="M225.42,-611.81C226.5,-604.14 227.8,-594.89 229.02,-586.24"/>
<polygon fill="black" stroke="black" points="232.46,-586.92 230.39,-576.53 225.53,-585.94 232.46,-586.92"/>
</g>
<!-- ContainerFiles -->
<g id="node9" class="node">
<title>ContainerFiles</title>
<ellipse fill="khaki" stroke="black" cx="443" cy="-1840" rx="74.99" ry="18"/>
<text text-anchor="middle" x="443" y="-1836.3" font-family="Helvetica,sans-Serif" font-size="14.00">ContainerFiles</text>
</g>
<!-- Load1 -->
<g id="node22" class="node">
<title>Load1</title>
<path fill="lightskyblue" stroke="black" d="M603,-1785C603,-1785 573,-1785 573,-1785 567,-1785 561,-1779 561,-1773 561,-1773 561,-1761 561,-1761 561,-1755 567,-1749 573,-1749 573,-1749 603,-1749 603,-1749 609,-1749 615,-1755 615,-1761 615,-1761 615,-1773 615,-1773 615,-1779 609,-1785 603,-1785"/>
<text text-anchor="middle" x="588" y="-1763.3" font-family="Helvetica,sans-Serif" font-size="14.00">Load</text>
</g>
<!-- ContainerFiles&#45;&gt;Load1 -->
<g id="edge9" class="edge">
<title>ContainerFiles&#45;&gt;Load1</title>
<path fill="none" stroke="black" d="M474.82,-1823.42C497.09,-1812.52 526.92,-1797.91 550.37,-1786.43"/>
<polygon fill="black" stroke="black" points="551.84,-1789.6 559.28,-1782.06 548.76,-1783.31 551.84,-1789.6"/>
</g>
<!-- ContainerWorkspaces -->
<g id="node10" class="node">
<title>ContainerWorkspaces</title>
<ellipse fill="khaki" stroke="black" cx="429" cy="-1534" rx="109.38" ry="18"/>
<text text-anchor="middle" x="429" y="-1530.3" font-family="Helvetica,sans-Serif" font-size="14.00">ContainerWorkspaces</text>
</g>
<!-- ContainerWorkspaces&#45;&gt;Minus -->
<g id="edge17" class="edge">
<title>ContainerWorkspaces&#45;&gt;Minus</title>
<path fill="none" stroke="black" d="M457.91,-1516.17C474.2,-1506.69 494.76,-1494.73 512.41,-1484.46"/>
<polygon fill="black" stroke="black" points="513.68,-1487.77 520.56,-1479.71 510.16,-1481.72 513.68,-1487.77"/>
</g>
<!-- ContainerScaleFactor -->
<g id="node11" class="node">
<title>ContainerScaleFactor</title>
<ellipse fill="khaki" stroke="black" cx="349" cy="-1694" rx="106.68" ry="18"/>
<text text-anchor="middle" x="349" y="-1690.3" font-family="Helvetica,sans-Serif" font-size="14.00">ContainerScaleFactor</text>
</g>
<!-- Scale -->
<g id="node23" class="node">
<title>Scale</title>
<path fill="lightskyblue" stroke="black" d="M444,-1625C444,-1625 414,-1625 414,-1625 408,-1625 402,-1619 402,-1613 402,-1613 402,-1601 402,-1601 402,-1595 408,-1589 414,-1589 414,-1589 444,-1589 444,-1589 450,-1589 456,-1595 456,-1601 456,-1601 456,-1613 456,-1613 456,-1619 450,-1625 444,-1625"/>
<text text-anchor="middle" x="429" y="-1603.3" font-family="Helvetica,sans-Serif" font-size="14.00">Scale</text>
</g>
<!-- ContainerScaleFactor&#45;&gt;Scale -->
<g id="edge14" class="edge">
<title>ContainerScaleFactor&#45;&gt;Scale</title>
<path fill="none" stroke="black" d="M365.19,-1675.8C376.61,-1663.67 392.1,-1647.21 404.95,-1633.55"/>
<polygon fill="black" stroke="black" points="407.22,-1636.25 411.52,-1626.57 402.12,-1631.45 407.22,-1636.25"/>
</g>
<!-- SampleWorkspaceMap -->
<g id="node12" class="node">
<title>SampleWorkspaceMap</title>
<ellipse fill="khaki" stroke="black" cx="551" cy="-1388" rx="113.18" ry="18"/>
<text text-anchor="middle" x="551" y="-1384.3" font-family="Helvetica,sans-Serif" font-size="14.00">SampleWorkspaceMap</text>
</g>
<!-- averageWorkspaces -->
<g id="node37" class="node">
<title>averageWorkspaces</title>
<polygon fill="lightseagreen" stroke="black" points="452,-1333 0,-1333 0,-1297 452,-1297 452,-1333"/>
<text text-anchor="middle" x="226" y="-1311.3" font-family="Helvetica,sans-Serif" font-size="14.00">Average together any workspaces that have the same DRange</text>
</g>
<!-- SampleWorkspaceMap&#45;&gt;averageWorkspaces -->
<g id="edge23" class="edge">
<title>SampleWorkspaceMap&#45;&gt;averageWorkspaces</title>
<path fill="none" stroke="black" d="M486.4,-1372.89C437.91,-1362.29 370.87,-1347.65 316.96,-1335.87"/>
<polygon fill="black" stroke="black" points="318.01,-1332.52 307.5,-1333.8 316.52,-1339.36 318.01,-1332.52"/>
</g>
<!-- SampleWorkspaceMap1 -->
<g id="node13" class="node">
<title>SampleWorkspaceMap1</title>
<ellipse fill="khaki" stroke="black" cx="353" cy="-863" rx="113.18" ry="18"/>
<text text-anchor="middle" x="353" y="-859.3" font-family="Helvetica,sans-Serif" font-size="14.00">SampleWorkspaceMap</text>
</g>
<!-- dRange -->
<g id="node41" class="node">
<title>dRange</title>
<ellipse fill="lightgrey" stroke="black" cx="353" cy="-776" rx="45.49" ry="18"/>
<text text-anchor="middle" x="353" y="-772.3" font-family="Helvetica,sans-Serif" font-size="14.00">dRange</text>
</g>
<!-- SampleWorkspaceMap1&#45;&gt;dRange -->
<g id="edge32" class="edge">
<title>SampleWorkspaceMap1&#45;&gt;dRange</title>
<path fill="none" stroke="black" d="M353,-844.8C353,-833.58 353,-818.67 353,-805.69"/>
<polygon fill="black" stroke="black" points="356.5,-805.98 353,-795.98 349.5,-805.98 356.5,-805.98"/>
<text text-anchor="middle" x="443" y="-815.8" font-family="Helvetica,sans-Serif" font-size="14.00">Extract dRange from map</text>
</g>
<!-- SampleWorkspaceMap2 -->
<g id="node14" class="node">
<title>SampleWorkspaceMap2</title>
<ellipse fill="khaki" stroke="black" cx="223" cy="-703" rx="113.18" ry="18"/>
<text text-anchor="middle" x="223" y="-699.3" font-family="Helvetica,sans-Serif" font-size="14.00">SampleWorkspaceMap</text>
</g>
<!-- SampleWorkspaceMap2&#45;&gt;SampleWorkspace -->
<g id="edge35" class="edge">
<title>SampleWorkspaceMap2&#45;&gt;SampleWorkspace</title>
<path fill="none" stroke="black" d="M223,-684.81C223,-677.23 223,-668.1 223,-659.54"/>
<polygon fill="black" stroke="black" points="226.5,-659.54 223,-649.54 219.5,-659.54 226.5,-659.54"/>
</g>
<!-- SampleWorkspaceMap3 -->
<g id="node15" class="node">
<title>SampleWorkspaceMap3</title>
<ellipse fill="khaki" stroke="black" cx="671" cy="-237" rx="113.18" ry="18"/>
<text text-anchor="middle" x="671" y="-233.3" font-family="Helvetica,sans-Serif" font-size="14.00">SampleWorkspaceMap</text>
</g>
<!-- getIntersection -->
<g id="node38" class="node">
<title>getIntersection</title>
<polygon fill="lightseagreen" stroke="black" points="916.5,-182 425.5,-182 425.5,-146 916.5,-146 916.5,-182"/>
<text text-anchor="middle" x="671" y="-160.3" font-family="Helvetica,sans-Serif" font-size="14.00">Create scalar data for where merge has combined overlapping data.</text>
</g>
<!-- SampleWorkspaceMap3&#45;&gt;getIntersection -->
<g id="edge47" class="edge">
<title>SampleWorkspaceMap3&#45;&gt;getIntersection</title>
<path fill="none" stroke="black" d="M671,-218.81C671,-211.23 671,-202.1 671,-193.54"/>
<polygon fill="black" stroke="black" points="674.5,-193.54 671,-183.54 667.5,-193.54 674.5,-193.54"/>
</g>
<!-- VanadiumWorkspaceMap&#45;&gt;averageWorkspaces -->
<g id="edge22" class="edge">
<title>VanadiumWorkspaceMap&#45;&gt;averageWorkspaces</title>
<path fill="none" stroke="black" d="M214,-1875.61C214,-1857.66 214,-1828.88 214,-1804 214,-1804 214,-1804 214,-1387 214,-1372.83 216.35,-1357.3 218.97,-1344.38"/>
<polygon fill="black" stroke="black" points="222.34,-1345.37 221.07,-1334.85 215.5,-1343.86 222.34,-1345.37"/>
</g>
<!-- SpecMin -->
<g id="node17" class="node">
<title>SpecMin</title>
<ellipse fill="khaki" stroke="black" cx="402" cy="-2167" rx="48.99" ry="18"/>
<text text-anchor="middle" x="402" y="-2163.3" font-family="Helvetica,sans-Serif" font-size="14.00">SpecMin</text>
</g>
<!-- SpecMin&#45;&gt;Load -->
<g id="edge3" class="edge">
<title>SpecMin&#45;&gt;Load</title>
<path fill="none" stroke="black" d="M385.44,-2149.89C376.43,-2141.13 365.09,-2130.1 354.94,-2120.23"/>
<polygon fill="black" stroke="black" points="357.47,-2117.81 347.86,-2113.34 352.59,-2122.82 357.47,-2117.81"/>
</g>
<!-- SpecMin1 -->
<g id="node18" class="node">
<title>SpecMin1</title>
<ellipse fill="khaki" stroke="black" cx="705" cy="-1840" rx="48.99" ry="18"/>
<text text-anchor="middle" x="705" y="-1836.3" font-family="Helvetica,sans-Serif" font-size="14.00">SpecMin</text>
</g>
<!-- SpecMin1&#45;&gt;Load1 -->
<g id="edge10" class="edge">
<title>SpecMin1&#45;&gt;Load1</title>
<path fill="none" stroke="black" d="M680.47,-1824.12C664.42,-1814.37 643.13,-1801.46 625.03,-1790.47"/>
<polygon fill="black" stroke="black" points="627.02,-1787.58 616.65,-1785.39 623.39,-1793.57 627.02,-1787.58"/>
</g>
<!-- SpecMax -->
<g id="node19" class="node">
<title>SpecMax</title>
<ellipse fill="khaki" stroke="black" cx="520" cy="-2167" rx="51.19" ry="18"/>
<text text-anchor="middle" x="520" y="-2163.3" font-family="Helvetica,sans-Serif" font-size="14.00">SpecMax</text>
</g>
<!-- SpecMax&#45;&gt;Load -->
<g id="edge4" class="edge">
<title>SpecMax&#45;&gt;Load</title>
<path fill="none" stroke="black" d="M485.85,-2153.31C452.45,-2140.89 401.68,-2122.02 367.01,-2109.13"/>
<polygon fill="black" stroke="black" points="368.37,-2105.9 357.78,-2105.7 365.93,-2112.46 368.37,-2105.9"/>
</g>
<!-- SpecMax1 -->
<g id="node20" class="node">
<title>SpecMax1</title>
<ellipse fill="khaki" stroke="black" cx="587" cy="-1840" rx="51.19" ry="18"/>
<text text-anchor="middle" x="587" y="-1836.3" font-family="Helvetica,sans-Serif" font-size="14.00">SpecMax</text>
</g>
<!-- SpecMax1&#45;&gt;Load1 -->
<g id="edge11" class="edge">
<title>SpecMax1&#45;&gt;Load1</title>
<path fill="none" stroke="black" d="M587.24,-1821.81C587.35,-1814.23 587.48,-1805.1 587.6,-1796.54"/>
<polygon fill="black" stroke="black" points="591.1,-1796.59 587.74,-1786.54 584.1,-1796.49 591.1,-1796.59"/>
</g>
<!-- Load&#45;&gt;VanadiumWorkspaces -->
<g id="edge5" class="edge">
<title>Load&#45;&gt;VanadiumWorkspaces</title>
<path fill="none" stroke="black" d="M301.65,-2075.81C286.82,-2066.5 268.32,-2054.87 252.31,-2044.81"/>
<polygon fill="black" stroke="black" points="254.32,-2041.95 243.99,-2039.59 250.6,-2047.87 254.32,-2041.95"/>
</g>
<!-- Load&#45;&gt;SampleWorkspaces -->
<g id="edge6" class="edge">
<title>Load&#45;&gt;SampleWorkspaces</title>
<path fill="none" stroke="black" d="M356.31,-2075.99C371.36,-2066.62 390.25,-2054.85 406.55,-2044.7"/>
<polygon fill="black" stroke="black" points="408.39,-2047.68 415.03,-2039.42 404.69,-2041.74 408.39,-2047.68"/>
</g>
<!-- scaleContainer -->
<g id="node34" class="node">
<title>scaleContainer</title>
<polygon fill="limegreen" stroke="black" points="588,-1712 473.21,-1694 588,-1676 702.79,-1694 588,-1712"/>
<text text-anchor="middle" x="588" y="-1690.3" font-family="Helvetica,sans-Serif" font-size="14.00">Scale Container</text>
</g>
<!-- Load1&#45;&gt;scaleContainer -->
<g id="edge12" class="edge">
<title>Load1&#45;&gt;scaleContainer</title>
<path fill="none" stroke="black" d="M588,-1748.81C588,-1741.23 588,-1732.1 588,-1723.54"/>
<polygon fill="black" stroke="black" points="591.5,-1723.54 588,-1713.54 584.5,-1723.54 591.5,-1723.54"/>
</g>
<!-- Scale&#45;&gt;ContainerWorkspaces -->
<g id="edge15" class="edge">
<title>Scale&#45;&gt;ContainerWorkspaces</title>
<path fill="none" stroke="black" d="M429,-1588.81C429,-1581.23 429,-1572.1 429,-1563.54"/>
<polygon fill="black" stroke="black" points="432.5,-1563.54 429,-1553.54 425.5,-1563.54 432.5,-1563.54"/>
</g>
<!-- Minus&#45;&gt;SampleWorkspaceMap -->
<g id="edge19" class="edge">
<title>Minus&#45;&gt;SampleWorkspaceMap</title>
<path fill="none" stroke="black" d="M551,-1442.81C551,-1435.23 551,-1426.1 551,-1417.54"/>
<polygon fill="black" stroke="black" points="554.5,-1417.54 551,-1407.54 547.5,-1417.54 554.5,-1417.54"/>
</g>
<!-- NormaliseByCurrent -->
<g id="node25" class="node">
<title>NormaliseByCurrent</title>
<path fill="lightskyblue" stroke="black" d="M292.5,-1173C292.5,-1173 159.5,-1173 159.5,-1173 153.5,-1173 147.5,-1167 147.5,-1161 147.5,-1161 147.5,-1149 147.5,-1149 147.5,-1143 153.5,-1137 159.5,-1137 159.5,-1137 292.5,-1137 292.5,-1137 298.5,-1137 304.5,-1143 304.5,-1149 304.5,-1149 304.5,-1161 304.5,-1161 304.5,-1167 298.5,-1173 292.5,-1173"/>
<text text-anchor="middle" x="226" y="-1151.3" font-family="Helvetica,sans-Serif" font-size="14.00">NormaliseByCurrent</text>
</g>
<!-- NormaliseByCurrent&#45;&gt;AlignDetectors -->
<g id="edge26" class="edge">
<title>NormaliseByCurrent&#45;&gt;AlignDetectors</title>
<path fill="none" stroke="black" d="M246.09,-1136.81C256.31,-1128.07 268.92,-1117.28 280.16,-1107.67"/>
<polygon fill="black" stroke="black" points="282.33,-1110.42 287.66,-1101.26 277.78,-1105.1 282.33,-1110.42"/>
</g>
<!-- AlignDetectors&#45;&gt;DiffractionFocussing -->
<g id="edge28" class="edge">
<title>AlignDetectors&#45;&gt;DiffractionFocussing</title>
<path fill="none" stroke="black" d="M319.65,-1063.81C324.68,-1055.7 330.79,-1045.84 336.41,-1036.78"/>
<polygon fill="black" stroke="black" points="339.36,-1038.66 341.65,-1028.32 333.41,-1034.97 339.36,-1038.66"/>
</g>
<!-- CropWorkspace -->
<g id="node28" class="node">
<title>CropWorkspace</title>
<path fill="lightskyblue" stroke="black" d="M403.5,-954C403.5,-954 302.5,-954 302.5,-954 296.5,-954 290.5,-948 290.5,-942 290.5,-942 290.5,-930 290.5,-930 290.5,-924 296.5,-918 302.5,-918 302.5,-918 403.5,-918 403.5,-918 409.5,-918 415.5,-924 415.5,-930 415.5,-930 415.5,-942 415.5,-942 415.5,-948 409.5,-954 403.5,-954"/>
<text text-anchor="middle" x="353" y="-932.3" font-family="Helvetica,sans-Serif" font-size="14.00">CropWorkspace</text>
</g>
<!-- DiffractionFocussing&#45;&gt;CropWorkspace -->
<g id="edge30" class="edge">
<title>DiffractionFocussing&#45;&gt;CropWorkspace</title>
<path fill="none" stroke="black" d="M353,-990.81C353,-983.23 353,-974.1 353,-965.54"/>
<polygon fill="black" stroke="black" points="356.5,-965.54 353,-955.54 349.5,-965.54 356.5,-965.54"/>
</g>
<!-- CropWorkspace&#45;&gt;SampleWorkspaceMap1 -->
<g id="edge31" class="edge">
<title>CropWorkspace&#45;&gt;SampleWorkspaceMap1</title>
<path fill="none" stroke="black" d="M353,-917.81C353,-910.23 353,-901.1 353,-892.54"/>
<polygon fill="black" stroke="black" points="356.5,-892.54 353,-882.54 349.5,-892.54 356.5,-892.54"/>
</g>
<!-- ReplaceSpecialValues -->
<g id="node30" class="node">
<title>ReplaceSpecialValues</title>
<path fill="lightskyblue" stroke="black" d="M304.5,-502C304.5,-502 161.5,-502 161.5,-502 155.5,-502 149.5,-496 149.5,-490 149.5,-490 149.5,-478 149.5,-478 149.5,-472 155.5,-466 161.5,-466 161.5,-466 304.5,-466 304.5,-466 310.5,-466 316.5,-472 316.5,-478 316.5,-478 316.5,-490 316.5,-490 316.5,-496 310.5,-502 304.5,-502"/>
<text text-anchor="middle" x="233" y="-480.3" font-family="Helvetica,sans-Serif" font-size="14.00">ReplaceSpecialValues</text>
</g>
<!-- Divide&#45;&gt;ReplaceSpecialValues -->
<g id="edge39" class="edge">
<title>Divide&#45;&gt;ReplaceSpecialValues</title>
<path fill="none" stroke="black" d="M233,-538.81C233,-531.23 233,-522.1 233,-513.54"/>
<polygon fill="black" stroke="black" points="236.5,-513.54 233,-503.54 229.5,-513.54 236.5,-513.54"/>
</g>
<!-- processedWks -->
<g id="node35" class="node">
<title>processedWks</title>
<polygon fill="limegreen" stroke="black" points="289,-429 56.41,-411 289,-393 521.59,-411 289,-429"/>
<text text-anchor="middle" x="289" y="-407.3" font-family="Helvetica,sans-Serif" font-size="14.00">Processed all workspaces in maps</text>
</g>
<!-- ReplaceSpecialValues&#45;&gt;processedWks -->
<g id="edge40" class="edge">
<title>ReplaceSpecialValues&#45;&gt;processedWks</title>
<path fill="none" stroke="black" d="M246.56,-465.81C253.35,-457.19 261.72,-446.59 269.21,-437.09"/>
<polygon fill="black" stroke="black" points="271.95,-439.26 275.4,-429.24 266.46,-434.93 271.95,-439.26"/>
</g>
<!-- MergeRuns -->
<g id="node31" class="node">
<title>MergeRuns</title>
<path fill="lightskyblue" stroke="black" d="M254.5,-255C254.5,-255 183.5,-255 183.5,-255 177.5,-255 171.5,-249 171.5,-243 171.5,-243 171.5,-231 171.5,-231 171.5,-225 177.5,-219 183.5,-219 183.5,-219 254.5,-219 254.5,-219 260.5,-219 266.5,-225 266.5,-231 266.5,-231 266.5,-243 266.5,-243 266.5,-249 260.5,-255 254.5,-255"/>
<text text-anchor="middle" x="219" y="-233.3" font-family="Helvetica,sans-Serif" font-size="14.00">MergeRuns</text>
</g>
<!-- ResultWorkspace -->
<g id="node44" class="node">
<title>ResultWorkspace</title>
<ellipse fill="lightgrey" stroke="black" cx="318" cy="-164" rx="89.08" ry="18"/>
<text text-anchor="middle" x="318" y="-160.3" font-family="Helvetica,sans-Serif" font-size="14.00">ResultWorkspace</text>
</g>
<!-- MergeRuns&#45;&gt;ResultWorkspace -->
<g id="edge45" class="edge">
<title>MergeRuns&#45;&gt;ResultWorkspace</title>
<path fill="none" stroke="black" d="M243.22,-218.63C255.96,-209.49 271.76,-198.16 285.55,-188.27"/>
<polygon fill="black" stroke="black" points="287.4,-191.25 293.48,-182.58 283.32,-185.57 287.4,-191.25"/>
</g>
<!-- RenameWorkspace -->
<g id="node32" class="node">
<title>RenameWorkspace</title>
<path fill="lightskyblue" stroke="black" d="M423,-255C423,-255 297,-255 297,-255 291,-255 285,-249 285,-243 285,-243 285,-231 285,-231 285,-225 291,-219 297,-219 297,-219 423,-219 423,-219 429,-219 435,-225 435,-231 435,-231 435,-243 435,-243 435,-249 429,-255 423,-255"/>
<text text-anchor="middle" x="360" y="-233.3" font-family="Helvetica,sans-Serif" font-size="14.00">RenameWorkspace</text>
</g>
<!-- RenameWorkspace&#45;&gt;ResultWorkspace -->
<g id="edge46" class="edge">
<title>RenameWorkspace&#45;&gt;ResultWorkspace</title>
<path fill="none" stroke="black" d="M349.83,-218.81C345.04,-210.7 339.2,-200.84 333.84,-191.78"/>
<polygon fill="black" stroke="black" points="336.95,-190.16 328.84,-183.33 330.92,-193.72 336.95,-190.16"/>
</g>
<!-- useContainer&#45;&gt;ContainerFiles -->
<g id="edge8" class="edge">
<title>useContainer&#45;&gt;ContainerFiles</title>
<path fill="none" stroke="black" d="M443,-1929.5C443,-1913.21 443,-1888.65 443,-1869.53"/>
<polygon fill="black" stroke="black" points="446.5,-1869.69 443,-1859.69 439.5,-1869.69 446.5,-1869.69"/>
<text text-anchor="middle" x="454.5" y="-1890.3" font-family="Helvetica,sans-Serif" font-size="14.00">Yes</text>
</g>
<!-- useContainer&#45;&gt;SampleWorkspaceMap -->
<g id="edge20" class="edge">
<title>useContainer&#45;&gt;SampleWorkspaceMap</title>
<path fill="none" stroke="black" d="M504.39,-1940.52C602.08,-1928.48 782,-1898.5 782,-1841 782,-1841 782,-1841 782,-1460 782,-1430.66 713.06,-1412.19 650.5,-1401.47"/>
<polygon fill="black" stroke="black" points="651.25,-1398.04 640.81,-1399.86 650.11,-1404.95 651.25,-1398.04"/>
<text text-anchor="middle" x="944.5" y="-1646.8" font-family="Helvetica,sans-Serif" font-size="14.00">No: Add SampleWorkspaces to WorkspaceMap</text>
</g>
<!-- scaleContainer&#45;&gt;ContainerWorkspaces -->
<g id="edge16" class="edge">
<title>scaleContainer&#45;&gt;ContainerWorkspaces</title>
<path fill="none" stroke="black" d="M573.04,-1678.14C545.68,-1650.94 487.29,-1592.93 453.87,-1559.71"/>
<polygon fill="black" stroke="black" points="456.57,-1557.47 447.01,-1552.9 451.64,-1562.43 456.57,-1557.47"/>
<text text-anchor="middle" x="529.5" y="-1603.3" font-family="Helvetica,sans-Serif" font-size="14.00">No</text>
</g>
<!-- scaleContainer&#45;&gt;Scale -->
<g id="edge13" class="edge">
<title>scaleContainer&#45;&gt;Scale</title>
<path fill="none" stroke="black" d="M554.18,-1680.9C538.29,-1674.76 519.31,-1666.75 503,-1658 488.85,-1650.41 474.03,-1640.77 461.4,-1631.99"/>
<polygon fill="black" stroke="black" points="463.64,-1629.29 453.46,-1626.36 459.6,-1635 463.64,-1629.29"/>
<text text-anchor="middle" x="514.5" y="-1646.8" font-family="Helvetica,sans-Serif" font-size="14.00">Yes</text>
</g>
<!-- processedWks&#45;&gt;SampleWorkspaceMap2 -->
<g id="edge41" class="edge">
<title>processedWks&#45;&gt;SampleWorkspaceMap2</title>
<path fill="none" stroke="black" d="M311.45,-427.63C327.03,-440.48 345,-460.24 345,-483 345,-631 345,-631 345,-631 345,-656.73 324.48,-673.3 300.26,-683.89"/>
<polygon fill="black" stroke="black" points="299.12,-680.58 291.12,-687.52 301.7,-687.09 299.12,-680.58"/>
<text text-anchor="middle" x="354.5" y="-553.3" font-family="Helvetica,sans-Serif" font-size="14.00">No</text>
</g>
<!-- runNumbers -->
<g id="node36" class="node">
<title>runNumbers</title>
<polygon fill="limegreen" stroke="black" points="289,-342 172.03,-324 289,-306 405.97,-324 289,-342"/>
<text text-anchor="middle" x="289" y="-320.3" font-family="Helvetica,sans-Serif" font-size="14.00">Number of runs</text>
</g>
<!-- processedWks&#45;&gt;runNumbers -->
<g id="edge42" class="edge">
<title>processedWks&#45;&gt;runNumbers</title>
<path fill="none" stroke="black" d="M289,-392.8C289,-381.58 289,-366.67 289,-353.69"/>
<polygon fill="black" stroke="black" points="292.5,-353.98 289,-343.98 285.5,-353.98 292.5,-353.98"/>
<text text-anchor="middle" x="300.5" y="-363.8" font-family="Helvetica,sans-Serif" font-size="14.00">Yes</text>
</g>
<!-- runNumbers&#45;&gt;MergeRuns -->
<g id="edge43" class="edge">
<title>runNumbers&#45;&gt;MergeRuns</title>
<path fill="none" stroke="black" d="M267.71,-308.92C259.93,-303.08 251.46,-295.83 245,-288 239.5,-281.33 234.7,-273.31 230.77,-265.66"/>
<polygon fill="black" stroke="black" points="233.94,-264.16 226.47,-256.65 227.62,-267.18 233.94,-264.16"/>
<text text-anchor="middle" x="287" y="-276.8" font-family="Helvetica,sans-Serif" font-size="14.00">More than 1</text>
</g>
<!-- runNumbers&#45;&gt;RenameWorkspace -->
<g id="edge44" class="edge">
<title>runNumbers&#45;&gt;RenameWorkspace</title>
<path fill="none" stroke="black" d="M307.59,-308.72C314.73,-302.74 322.67,-295.46 329,-288 334.97,-280.96 340.59,-272.66 345.36,-264.86"/>
<polygon fill="black" stroke="black" points="348.31,-266.76 350.34,-256.36 342.27,-263.22 348.31,-266.76"/>
<text text-anchor="middle" x="380.5" y="-276.8" font-family="Helvetica,sans-Serif" font-size="14.00">Less than 1</text>
</g>
<!-- CurrentWorkspace -->
<g id="node40" class="node">
<title>CurrentWorkspace</title>
<ellipse fill="lightgrey" stroke="black" cx="226" cy="-1228" rx="94.78" ry="18"/>
<text text-anchor="middle" x="226" y="-1224.3" font-family="Helvetica,sans-Serif" font-size="14.00">CurrentWorkspace</text>
</g>
<!-- averageWorkspaces&#45;&gt;CurrentWorkspace -->
<g id="edge24" class="edge">
<title>averageWorkspaces&#45;&gt;CurrentWorkspace</title>
<path fill="none" stroke="black" d="M226,-1296.8C226,-1285.58 226,-1270.67 226,-1257.69"/>
<polygon fill="black" stroke="black" points="229.5,-1257.98 226,-1247.98 222.5,-1257.98 229.5,-1257.98"/>
<text text-anchor="middle" x="453.5" y="-1267.8" font-family="Helvetica,sans-Serif" font-size="14.00">Extract next workspace from either the vanadium or sample map</text>
</g>
<!-- appendResults -->
<g id="node39" class="node">
<title>appendResults</title>
<polygon fill="lightseagreen" stroke="black" points="656,-109 332,-109 332,-73 656,-73 656,-109"/>
<text text-anchor="middle" x="494" y="-87.3" font-family="Helvetica,sans-Serif" font-size="14.00">Add the scalar data to the result workspace.</text>
</g>
<!-- getIntersection&#45;&gt;appendResults -->
<g id="edge48" class="edge">
<title>getIntersection&#45;&gt;appendResults</title>
<path fill="none" stroke="black" d="M627.7,-145.63C603.7,-136 573.64,-123.95 548.1,-113.7"/>
<polygon fill="black" stroke="black" points="549.45,-110.47 538.87,-110 546.85,-116.97 549.45,-110.47"/>
</g>
<!-- appendResults&#45;&gt;OutputWorkspace -->
<g id="edge50" class="edge">
<title>appendResults&#45;&gt;OutputWorkspace</title>
<path fill="none" stroke="black" d="M494,-72.81C494,-65.23 494,-56.1 494,-47.54"/>
<polygon fill="black" stroke="black" points="497.5,-47.54 494,-37.54 490.5,-47.54 497.5,-47.54"/>
</g>
<!-- CurrentWorkspace&#45;&gt;NormaliseByCurrent -->
<g id="edge25" class="edge">
<title>CurrentWorkspace&#45;&gt;NormaliseByCurrent</title>
<path fill="none" stroke="black" d="M226,-1209.81C226,-1202.23 226,-1193.1 226,-1184.54"/>
<polygon fill="black" stroke="black" points="229.5,-1184.54 226,-1174.54 222.5,-1184.54 229.5,-1184.54"/>
</g>
<!-- dRange&#45;&gt;SampleWorkspaceMap2 -->
<g id="edge33" class="edge">
<title>dRange&#45;&gt;SampleWorkspaceMap2</title>
<path fill="none" stroke="black" d="M327.01,-760.8C308.79,-750.86 284.1,-737.37 263.34,-726.03"/>
<polygon fill="black" stroke="black" points="265.3,-723.11 254.84,-721.39 261.94,-729.26 265.3,-723.11"/>
</g>
<!-- VanadiumWorkspaceMap1 -->
<g id="node42" class="node">
<title>VanadiumWorkspaceMap1</title>
<ellipse fill="lightgrey" stroke="black" cx="485" cy="-703" rx="130.78" ry="18"/>
<text text-anchor="middle" x="485" y="-699.3" font-family="Helvetica,sans-Serif" font-size="14.00">VanadiumWorkspaceMap1</text>
</g>
<!-- dRange&#45;&gt;VanadiumWorkspaceMap1 -->
<g id="edge34" class="edge">
<title>dRange&#45;&gt;VanadiumWorkspaceMap1</title>
<path fill="none" stroke="black" d="M379.08,-760.97C397.55,-751.04 422.69,-737.51 443.85,-726.13"/>
<polygon fill="black" stroke="black" points="445.38,-729.28 452.53,-721.46 442.07,-723.12 445.38,-729.28"/>
</g>
<!-- VanadiumWorkspace -->
<g id="node43" class="node">
<title>VanadiumWorkspace</title>
<ellipse fill="lightgrey" stroke="black" cx="482" cy="-630" rx="105.88" ry="18"/>
<text text-anchor="middle" x="482" y="-626.3" font-family="Helvetica,sans-Serif" font-size="14.00">VanadiumWorkspace</text>
</g>
<!-- VanadiumWorkspaceMap1&#45;&gt;VanadiumWorkspace -->
<g id="edge36" class="edge">
<title>VanadiumWorkspaceMap1&#45;&gt;VanadiumWorkspace</title>
<path fill="none" stroke="black" d="M484.27,-684.81C483.95,-677.14 483.56,-667.89 483.19,-659.24"/>
<polygon fill="black" stroke="black" points="486.7,-659.38 482.78,-649.54 479.71,-659.68 486.7,-659.38"/>
</g>
<!-- VanadiumWorkspace&#45;&gt;Divide -->
<g id="edge38" class="edge">
<title>VanadiumWorkspace&#45;&gt;Divide</title>
<path fill="none" stroke="black" d="M429.19,-613.94C383.03,-600.78 316.92,-581.93 274.48,-569.83"/>
<polygon fill="black" stroke="black" points="275.46,-566.47 264.89,-567.09 273.54,-573.2 275.46,-566.47"/>
</g>
<!-- ResultWorkspace&#45;&gt;appendResults -->
<g id="edge49" class="edge">
<title>ResultWorkspace&#45;&gt;appendResults</title>
<path fill="none" stroke="black" d="M356.62,-147.42C381.19,-137.51 413.35,-124.54 440.37,-113.63"/>
<polygon fill="black" stroke="black" points="441.46,-116.97 449.43,-109.98 438.85,-110.48 441.46,-116.97"/>
</g>
</g>
</svg>
