<?xml version="1.0" encoding="UTF-8" standalone="no"?>
<!DOCTYPE svg PUBLIC "-//W3C//DTD SVG 1.1//EN"
 "http://www.w3.org/Graphics/SVG/1.1/DTD/svg11.dtd">
<!-- Generated by graphviz version 7.1.0 (20230122.1345)
 -->
<!-- Title: FullTreatment Pages: 1 -->
<svg width="269pt" height="332pt"
 viewBox="0.00 0.00 269.00 332.00" xmlns="http://www.w3.org/2000/svg" xmlns:xlink="http://www.w3.org/1999/xlink">
<g id="graph0" class="graph" transform="scale(1 1) rotate(0) translate(4 328)">
<title>FullTreatment</title>
<polygon fill="white" stroke="none" points="-4,4 -4,-328 265,-328 265,4 -4,4"/>
<!-- AT -->
<g id="node1" class="node">
<title>AT</title>
<ellipse fill="khaki" stroke="black" cx="233" cy="-306" rx="27" ry="18"/>
<text text-anchor="middle" x="233" y="-302.3" font-family="Helvetica,sans-Serif" font-size="14.00">AT</text>
</g>
<!-- B -->
<g id="node2" class="node">
<title>B</title>
<ellipse fill="khaki" stroke="black" cx="206" cy="-234" rx="27" ry="18"/>
<text text-anchor="middle" x="206" y="-230.3" font-family="Helvetica,sans-Serif" font-size="14.00">B</text>
</g>
<!-- AT&#45;&gt;B -->
<g id="edge1" class="edge">
<title>AT&#45;&gt;B</title>
<path fill="none" stroke="black" d="M226.46,-288.05C223.48,-280.32 219.87,-270.96 216.52,-262.27"/>
<polygon fill="black" stroke="black" points="219.88,-261.27 213.02,-253.2 213.35,-263.79 219.88,-261.27"/>
</g>
<!-- T -->
<g id="node3" class="node">
<title>T</title>
<ellipse fill="khaki" stroke="black" cx="234" cy="-162" rx="27" ry="18"/>
<text text-anchor="middle" x="234" y="-158.3" font-family="Helvetica,sans-Serif" font-size="14.00">T</text>
</g>
<!-- AT&#45;&gt;T -->
<g id="edge2" class="edge">
<title>AT&#45;&gt;T</title>
<path fill="none" stroke="black" d="M236.65,-287.91C238.68,-277.57 240.98,-264.09 242,-252 243.34,-236.06 243.2,-231.96 242,-216 241.4,-207.99 240.29,-199.35 239.09,-191.43"/>
<polygon fill="black" stroke="black" points="242.55,-190.91 237.49,-181.61 235.65,-192.04 242.55,-190.91"/>
</g>
<!-- B&#45;&gt;T -->
<g id="edge3" class="edge">
<title>B&#45;&gt;T</title>
<path fill="none" stroke="black" d="M212.64,-216.41C215.77,-208.57 219.6,-198.99 223.15,-190.13"/>
<polygon fill="black" stroke="black" points="226.39,-191.46 226.85,-180.88 219.89,-188.86 226.39,-191.46"/>
</g>
<!-- Q -->
<g id="node6" class="node">
<title>Q</title>
<ellipse fill="khaki" stroke="black" cx="27" cy="-90" rx="27" ry="18"/>
<text text-anchor="middle" x="27" y="-86.3" font-family="Helvetica,sans-Serif" font-size="14.00">Q</text>
</g>
<!-- T&#45;&gt;Q -->
<g id="edge6" class="edge">
<title>T&#45;&gt;Q</title>
<path fill="none" stroke="black" d="M210.25,-152.97C173.78,-140.63 103.76,-116.96 61.62,-102.71"/>
<polygon fill="black" stroke="black" points="62.81,-99.42 52.22,-99.53 60.57,-106.05 62.81,-99.42"/>
</g>
<!-- V -->
<g id="node7" class="node">
<title>V</title>
<ellipse fill="khaki" stroke="black" cx="102" cy="-18" rx="27" ry="18"/>
<text text-anchor="middle" x="102" y="-14.3" font-family="Helvetica,sans-Serif" font-size="14.00">V</text>
</g>
<!-- T&#45;&gt;V -->
<g id="edge8" class="edge">
<title>T&#45;&gt;V</title>
<path fill="none" stroke="black" d="M220.12,-146.07C197.09,-121.29 150.8,-71.49 123.5,-42.13"/>
<polygon fill="black" stroke="black" points="126.09,-39.78 116.72,-34.84 120.97,-44.54 126.09,-39.78"/>
</g>
<!-- S -->
<g id="node8" class="node">
<title>S</title>
<ellipse fill="khaki" stroke="black" cx="176" cy="-18" rx="27" ry="18"/>
<text text-anchor="middle" x="176" y="-14.3" font-family="Helvetica,sans-Serif" font-size="14.00">S</text>
</g>
<!-- T&#45;&gt;S -->
<g id="edge12" class="edge">
<title>T&#45;&gt;S</title>
<path fill="none" stroke="black" d="M242.17,-144.66C250.24,-126.08 259.79,-95.31 248,-72 239.64,-55.46 223.4,-42.81 208.47,-34.03"/>
<polygon fill="black" stroke="black" points="210.23,-31.01 199.77,-29.29 206.88,-37.15 210.23,-31.01"/>
</g>
<!-- C -->
<g id="node4" class="node">
<title>C</title>
<ellipse fill="khaki" stroke="black" cx="137" cy="-162" rx="27" ry="18"/>
<text text-anchor="middle" x="137" y="-158.3" font-family="Helvetica,sans-Serif" font-size="14.00">C</text>
</g>
<!-- C&#45;&gt;Q -->
<g id="edge5" class="edge">
<title>C&#45;&gt;Q</title>
<path fill="none" stroke="black" d="M117.84,-148.81C100.65,-137.87 75.18,-121.66 55.58,-109.19"/>
<polygon fill="black" stroke="black" points="57.53,-106.28 47.22,-103.87 53.78,-112.19 57.53,-106.28"/>
</g>
<!-- C&#45;&gt;V -->
<g id="edge9" class="edge">
<title>C&#45;&gt;V</title>
<path fill="none" stroke="black" d="M132.78,-143.87C126.87,-119.88 116.05,-75.99 108.94,-47.16"/>
<polygon fill="black" stroke="black" points="112.39,-46.53 106.6,-37.66 105.59,-48.21 112.39,-46.53"/>
</g>
<!-- C&#45;&gt;S -->
<g id="edge14" class="edge">
<title>C&#45;&gt;S</title>
<path fill="none" stroke="black" d="M150.16,-145.94C158.06,-135.91 167.43,-122.05 172,-108 178.33,-88.52 179.18,-65.38 178.53,-47.57"/>
<polygon fill="black" stroke="black" points="182.03,-47.51 177.97,-37.72 175.04,-47.9 182.03,-47.51"/>
</g>
<!-- A -->
<g id="node5" class="node">
<title>A</title>
<ellipse fill="khaki" stroke="black" cx="65" cy="-162" rx="27" ry="18"/>
<text text-anchor="middle" x="65" y="-158.3" font-family="Helvetica,sans-Serif" font-size="14.00">A</text>
</g>
<!-- A&#45;&gt;Q -->
<g id="edge4" class="edge">
<title>A&#45;&gt;Q</title>
<path fill="none" stroke="black" d="M56.19,-144.76C51.73,-136.55 46.2,-126.37 41.16,-117.09"/>
<polygon fill="black" stroke="black" points="44.33,-115.6 36.49,-108.48 38.18,-118.94 44.33,-115.6"/>
</g>
<!-- A&#45;&gt;V -->
<g id="edge10" class="edge">
<title>A&#45;&gt;V</title>
<path fill="none" stroke="black" d="M69.46,-143.87C75.71,-119.88 87.15,-75.99 94.66,-47.16"/>
<polygon fill="black" stroke="black" points="98,-48.21 97.14,-37.65 91.23,-46.45 98,-48.21"/>
</g>
<!-- A&#45;&gt;S -->
<g id="edge13" class="edge">
<title>A&#45;&gt;S</title>
<path fill="none" stroke="black" d="M77.09,-145.53C96.36,-120.89 134.18,-72.5 157.06,-43.23"/>
<polygon fill="black" stroke="black" points="159.59,-45.67 162.99,-35.64 154.08,-41.36 159.59,-45.67"/>
</g>
<!-- Q&#45;&gt;V -->
<g id="edge7" class="edge">
<title>Q&#45;&gt;V</title>
<path fill="none" stroke="black" d="M42.18,-74.83C52.65,-65.06 66.77,-51.88 78.66,-40.78"/>
<polygon fill="black" stroke="black" points="80.82,-43.56 85.74,-34.18 76.04,-38.44 80.82,-43.56"/>
</g>
<!-- Q&#45;&gt;S -->
<g id="edge11" class="edge">
<title>Q&#45;&gt;S</title>
<path fill="none" stroke="black" d="M48.67,-78.82C73.72,-67.05 115.18,-47.57 143.96,-34.05"/>
<polygon fill="black" stroke="black" points="145.38,-37.25 152.94,-29.83 142.4,-30.92 145.38,-37.25"/>
</g>
</g>
</svg>
