<?xml version="1.0" encoding="UTF-8" standalone="no"?>
<!DOCTYPE svg PUBLIC "-//W3C//DTD SVG 1.1//EN"
 "http://www.w3.org/Graphics/SVG/1.1/DTD/svg11.dtd">
<!-- Generated by graphviz version 7.1.0 (20230122.1345)
 -->
<!-- Title: PowderReduceP2D_ProcessCanRun Pages: 1 -->
<svg width="486pt" height="815pt"
 viewBox="0.00 0.00 486.00 815.00" xmlns="http://www.w3.org/2000/svg" xmlns:xlink="http://www.w3.org/1999/xlink">
<g id="graph0" class="graph" transform="scale(1 1) rotate(0) translate(4 811)">
<title>PowderReduceP2D_ProcessCanRun</title>
<polygon fill="white" stroke="none" points="-4,4 -4,-811 482,-811 482,4 -4,4"/>
<text text-anchor="middle" x="239" y="-791.8" font-family="Helvetica,sans-Serif" font-size="14.00">Process Can Run Workflow</text>
<!-- CanData -->
<g id="node1" class="node">
<title>CanData</title>
<ellipse fill="khaki" stroke="black" cx="251" cy="-766" rx="49.29" ry="18"/>
<text text-anchor="middle" x="251" y="-762.3" font-family="Helvetica,sans-Serif" font-size="14.00">CanData</text>
</g>
<!-- FindDetectorsPar -->
<g id="node3" class="node">
<title>FindDetectorsPar</title>
<path fill="lightskyblue" stroke="black" d="M317.5,-711C317.5,-711 184.5,-711 184.5,-711 178.5,-711 172.5,-705 172.5,-699 172.5,-699 172.5,-687 172.5,-687 172.5,-681 178.5,-675 184.5,-675 184.5,-675 317.5,-675 317.5,-675 323.5,-675 329.5,-681 329.5,-687 329.5,-687 329.5,-699 329.5,-699 329.5,-705 323.5,-711 317.5,-711"/>
<text text-anchor="middle" x="251" y="-689.3" font-family="Helvetica,sans-Serif" font-size="14.00">FindDetectorsPar v1</text>
</g>
<!-- CanData&#45;&gt;FindDetectorsPar -->
<g id="edge1" class="edge">
<title>CanData&#45;&gt;FindDetectorsPar</title>
<path fill="none" stroke="black" d="M251,-747.81C251,-740.23 251,-731.1 251,-722.54"/>
<polygon fill="black" stroke="black" points="254.5,-722.54 251,-712.54 247.5,-722.54 254.5,-722.54"/>
</g>
<!-- OutputWorkspace -->
<g id="node2" class="node">
<title>OutputWorkspace</title>
<ellipse fill="khaki" stroke="black" cx="251" cy="-18" rx="92.08" ry="18"/>
<text text-anchor="middle" x="251" y="-14.3" font-family="Helvetica,sans-Serif" font-size="14.00">OutputWorkspace</text>
</g>
<!-- FilterBadPulses -->
<g id="node4" class="node">
<title>FilterBadPulses</title>
<path fill="lightskyblue" stroke="black" d="M311,-638C311,-638 191,-638 191,-638 185,-638 179,-632 179,-626 179,-626 179,-614 179,-614 179,-608 185,-602 191,-602 191,-602 311,-602 311,-602 317,-602 323,-608 323,-614 323,-614 323,-626 323,-626 323,-632 317,-638 311,-638"/>
<text text-anchor="middle" x="251" y="-616.3" font-family="Helvetica,sans-Serif" font-size="14.00">FilterBadPulses v1</text>
</g>
<!-- FindDetectorsPar&#45;&gt;FilterBadPulses -->
<g id="edge2" class="edge">
<title>FindDetectorsPar&#45;&gt;FilterBadPulses</title>
<path fill="none" stroke="black" d="M251,-674.81C251,-667.23 251,-658.1 251,-649.54"/>
<polygon fill="black" stroke="black" points="254.5,-649.54 251,-639.54 247.5,-649.54 254.5,-649.54"/>
</g>
<!-- RemovePromptPulse -->
<g id="node5" class="node">
<title>RemovePromptPulse</title>
<path fill="lightskyblue" stroke="black" d="M329.5,-565C329.5,-565 172.5,-565 172.5,-565 166.5,-565 160.5,-559 160.5,-553 160.5,-553 160.5,-541 160.5,-541 160.5,-535 166.5,-529 172.5,-529 172.5,-529 329.5,-529 329.5,-529 335.5,-529 341.5,-535 341.5,-541 341.5,-541 341.5,-553 341.5,-553 341.5,-559 335.5,-565 329.5,-565"/>
<text text-anchor="middle" x="251" y="-543.3" font-family="Helvetica,sans-Serif" font-size="14.00">RemovePromptPulse v1</text>
</g>
<!-- FilterBadPulses&#45;&gt;RemovePromptPulse -->
<g id="edge3" class="edge">
<title>FilterBadPulses&#45;&gt;RemovePromptPulse</title>
<path fill="none" stroke="black" d="M251,-601.81C251,-594.23 251,-585.1 251,-576.54"/>
<polygon fill="black" stroke="black" points="254.5,-576.54 251,-566.54 247.5,-576.54 254.5,-576.54"/>
</g>
<!-- LoadDiffCal -->
<g id="node6" class="node">
<title>LoadDiffCal</title>
<path fill="lightskyblue" stroke="black" d="M298,-492C298,-492 204,-492 204,-492 198,-492 192,-486 192,-480 192,-480 192,-468 192,-468 192,-462 198,-456 204,-456 204,-456 298,-456 298,-456 304,-456 310,-462 310,-468 310,-468 310,-480 310,-480 310,-486 304,-492 298,-492"/>
<text text-anchor="middle" x="251" y="-470.3" font-family="Helvetica,sans-Serif" font-size="14.00">LoadDiffCal v1</text>
</g>
<!-- RemovePromptPulse&#45;&gt;LoadDiffCal -->
<g id="edge4" class="edge">
<title>RemovePromptPulse&#45;&gt;LoadDiffCal</title>
<path fill="none" stroke="black" d="M251,-528.81C251,-521.23 251,-512.1 251,-503.54"/>
<polygon fill="black" stroke="black" points="254.5,-503.54 251,-493.54 247.5,-503.54 254.5,-503.54"/>
</g>
<!-- MaskDetectors -->
<g id="node7" class="node">
<title>MaskDetectors</title>
<path fill="lightskyblue" stroke="black" d="M309.5,-419C309.5,-419 192.5,-419 192.5,-419 186.5,-419 180.5,-413 180.5,-407 180.5,-407 180.5,-395 180.5,-395 180.5,-389 186.5,-383 192.5,-383 192.5,-383 309.5,-383 309.5,-383 315.5,-383 321.5,-389 321.5,-395 321.5,-395 321.5,-407 321.5,-407 321.5,-413 315.5,-419 309.5,-419"/>
<text text-anchor="middle" x="251" y="-397.3" font-family="Helvetica,sans-Serif" font-size="14.00">MaskDetectors v1</text>
</g>
<!-- LoadDiffCal&#45;&gt;MaskDetectors -->
<g id="edge5" class="edge">
<title>LoadDiffCal&#45;&gt;MaskDetectors</title>
<path fill="none" stroke="black" d="M251,-455.81C251,-448.23 251,-439.1 251,-430.54"/>
<polygon fill="black" stroke="black" points="254.5,-430.54 251,-420.54 247.5,-430.54 254.5,-430.54"/>
</g>
<!-- AlignDetectors -->
<g id="node8" class="node">
<title>AlignDetectors</title>
<path fill="lightskyblue" stroke="black" d="M309,-346C309,-346 193,-346 193,-346 187,-346 181,-340 181,-334 181,-334 181,-322 181,-322 181,-316 187,-310 193,-310 193,-310 309,-310 309,-310 315,-310 321,-316 321,-322 321,-322 321,-334 321,-334 321,-340 315,-346 309,-346"/>
<text text-anchor="middle" x="251" y="-324.3" font-family="Helvetica,sans-Serif" font-size="14.00">AlignDetectors v1</text>
</g>
<!-- MaskDetectors&#45;&gt;AlignDetectors -->
<g id="edge6" class="edge">
<title>MaskDetectors&#45;&gt;AlignDetectors</title>
<path fill="none" stroke="black" d="M251,-382.81C251,-375.23 251,-366.1 251,-357.54"/>
<polygon fill="black" stroke="black" points="254.5,-357.54 251,-347.54 247.5,-357.54 254.5,-357.54"/>
</g>
<!-- ConvertUnits -->
<g id="node9" class="node">
<title>ConvertUnits</title>
<path fill="lightskyblue" stroke="black" d="M332.5,-273C332.5,-273 169.5,-273 169.5,-273 163.5,-273 157.5,-267 157.5,-261 157.5,-261 157.5,-247 157.5,-247 157.5,-241 163.5,-235 169.5,-235 169.5,-235 332.5,-235 332.5,-235 338.5,-235 344.5,-241 344.5,-247 344.5,-247 344.5,-261 344.5,-261 344.5,-267 338.5,-273 332.5,-273"/>
<text text-anchor="middle" x="251" y="-257.8" font-family="Helvetica,sans-Serif" font-size="14.00">ConvertUnits v1</text>
<text text-anchor="middle" x="251" y="-242.8" font-family="Helvetica,sans-Serif" font-size="14.00">with target &#39;Wavelength&#39;</text>
</g>
<!-- AlignDetectors&#45;&gt;ConvertUnits -->
<g id="edge7" class="edge">
<title>AlignDetectors&#45;&gt;ConvertUnits</title>
<path fill="none" stroke="black" d="M251,-309.57C251,-302.1 251,-293.17 251,-284.71"/>
<polygon fill="black" stroke="black" points="254.5,-284.79 251,-274.79 247.5,-284.79 254.5,-284.79"/>
</g>
<!-- edgebinning -->
<g id="node12" class="node">
<title>edgebinning</title>
<polygon fill="limegreen" stroke="black" points="251,-198 72.87,-180 251,-162 429.13,-180 251,-198"/>
<text text-anchor="middle" x="251" y="-176.3" font-family="Helvetica,sans-Serif" font-size="14.00">Is edgebinning specified?</text>
</g>
<!-- ConvertUnits&#45;&gt;edgebinning -->
<g id="edge8" class="edge">
<title>ConvertUnits&#45;&gt;edgebinning</title>
<path fill="none" stroke="black" d="M251,-234.83C251,-227.24 251,-218.24 251,-209.79"/>
<polygon fill="black" stroke="black" points="254.5,-209.93 251,-199.93 247.5,-209.93 254.5,-209.93"/>
</g>
<!-- Bin2DPowderDiffraction1 -->
<g id="node10" class="node">
<title>Bin2DPowderDiffraction1</title>
<path fill="lightskyblue" stroke="black" d="M244,-111C244,-111 12,-111 12,-111 6,-111 0,-105 0,-99 0,-99 0,-85 0,-85 0,-79 6,-73 12,-73 12,-73 244,-73 244,-73 250,-73 256,-79 256,-85 256,-85 256,-99 256,-99 256,-105 250,-111 244,-111"/>
<text text-anchor="middle" x="128" y="-95.8" font-family="Helvetica,sans-Serif" font-size="14.00">Bin2DPowderDiffraction v1</text>
<text text-anchor="middle" x="128" y="-80.8" font-family="Helvetica,sans-Serif" font-size="14.00">using a specified edgebinning file.</text>
</g>
<!-- Bin2DPowderDiffraction1&#45;&gt;OutputWorkspace -->
<g id="edge11" class="edge">
<title>Bin2DPowderDiffraction1&#45;&gt;OutputWorkspace</title>
<path fill="none" stroke="black" d="M159.36,-72.65C175.66,-63.1 195.72,-51.36 212.91,-41.3"/>
<polygon fill="black" stroke="black" points="214.48,-44.44 221.34,-36.36 210.94,-38.39 214.48,-44.44"/>
</g>
<!-- Bin2DPowderDiffraction2 -->
<g id="node11" class="node">
<title>Bin2DPowderDiffraction2</title>
<path fill="lightskyblue" stroke="black" d="M466,-111C466,-111 286,-111 286,-111 280,-111 274,-105 274,-99 274,-99 274,-85 274,-85 274,-79 280,-73 286,-73 286,-73 466,-73 466,-73 472,-73 478,-79 478,-85 478,-85 478,-99 478,-99 478,-105 472,-111 466,-111"/>
<text text-anchor="middle" x="376" y="-95.8" font-family="Helvetica,sans-Serif" font-size="14.00">Bin2DPowderDiffraction v1</text>
<text text-anchor="middle" x="376" y="-80.8" font-family="Helvetica,sans-Serif" font-size="14.00">using logbinning.</text>
</g>
<!-- Bin2DPowderDiffraction2&#45;&gt;OutputWorkspace -->
<g id="edge12" class="edge">
<title>Bin2DPowderDiffraction2&#45;&gt;OutputWorkspace</title>
<path fill="none" stroke="black" d="M344.13,-72.65C327.45,-63.03 306.89,-51.19 289.33,-41.08"/>
<polygon fill="black" stroke="black" points="291.12,-38.07 280.71,-36.11 287.63,-44.14 291.12,-38.07"/>
</g>
<!-- edgebinning&#45;&gt;Bin2DPowderDiffraction1 -->
<g id="edge9" class="edge">
<title>edgebinning&#45;&gt;Bin2DPowderDiffraction1</title>
<path fill="none" stroke="black" d="M229.29,-163.82C211.11,-151.11 184.8,-132.71 163.55,-117.86"/>
<polygon fill="black" stroke="black" points="165.63,-115.04 155.43,-112.18 161.62,-120.78 165.63,-115.04"/>
<text text-anchor="middle" x="212.5" y="-132.8" font-family="Helvetica,sans-Serif" font-size="14.00">Yes</text>
</g>
<!-- edgebinning&#45;&gt;Bin2DPowderDiffraction2 -->
<g id="edge10" class="edge">
<title>edgebinning&#45;&gt;Bin2DPowderDiffraction2</title>
<path fill="none" stroke="black" d="M273.06,-163.82C291.62,-151.05 318.52,-132.55 340.16,-117.65"/>
<polygon fill="black" stroke="black" points="341.88,-120.72 348.14,-112.17 337.92,-114.95 341.88,-120.72"/>
<text text-anchor="middle" x="329.5" y="-132.8" font-family="Helvetica,sans-Serif" font-size="14.00">No</text>
</g>
</g>
</svg>
