<?xml version="1.0" encoding="UTF-8" standalone="no"?>
<!DOCTYPE svg PUBLIC "-//W3C//DTD SVG 1.1//EN"
 "http://www.w3.org/Graphics/SVG/1.1/DTD/svg11.dtd">
<!-- Generated by graphviz version 7.1.0 (20230122.1345)
 -->
<!-- Title: PowderReduceP2D Pages: 1 -->
<svg width="359pt" height="1213pt"
 viewBox="0.00 0.00 358.50 1213.00" xmlns="http://www.w3.org/2000/svg" xmlns:xlink="http://www.w3.org/1999/xlink">
<g id="graph0" class="graph" transform="scale(1 1) rotate(0) translate(4 1209)">
<title>PowderReduceP2D</title>
<polygon fill="white" stroke="none" points="-4,4 -4,-1209 354.5,-1209 354.5,4 -4,4"/>
<text text-anchor="middle" x="175.25" y="-1189.8" font-family="Helvetica,sans-Serif" font-size="14.00">PowderReduceP2D Flowchart</text>
<!-- SampleData -->
<g id="node1" class="node">
<title>SampleData</title>
<ellipse fill="khaki" stroke="black" cx="72" cy="-1164" rx="65.79" ry="18"/>
<text text-anchor="middle" x="72" y="-1160.3" font-family="Helvetica,sans-Serif" font-size="14.00">SampleData</text>
</g>
<!-- ProcessSampleRun -->
<g id="node4" class="node">
<title>ProcessSampleRun</title>
<path fill="lightskyblue" stroke="black" d="M229,-1109C229,-1109 73,-1109 73,-1109 67,-1109 61,-1103 61,-1097 61,-1097 61,-1083 61,-1083 61,-1077 67,-1071 73,-1071 73,-1071 229,-1071 229,-1071 235,-1071 241,-1077 241,-1083 241,-1083 241,-1097 241,-1097 241,-1103 235,-1109 229,-1109"/>
<text text-anchor="middle" x="151" y="-1093.8" font-family="Helvetica,sans-Serif" font-size="14.00">Process Sample Run</text>
<text text-anchor="middle" x="151" y="-1078.8" font-family="Helvetica,sans-Serif" font-size="14.00">(see workflow diagram)</text>
</g>
<!-- SampleData&#45;&gt;ProcessSampleRun -->
<g id="edge1" class="edge">
<title>SampleData&#45;&gt;ProcessSampleRun</title>
<path fill="none" stroke="black" d="M90.32,-1146.3C99.89,-1137.58 111.81,-1126.72 122.55,-1116.93"/>
<polygon fill="black" stroke="black" points="124.68,-1119.72 129.72,-1110.4 119.97,-1114.55 124.68,-1119.72"/>
</g>
<!-- CalibrationFile -->
<g id="node2" class="node">
<title>CalibrationFile</title>
<ellipse fill="khaki" stroke="black" cx="230" cy="-1164" rx="74.99" ry="18"/>
<text text-anchor="middle" x="230" y="-1160.3" font-family="Helvetica,sans-Serif" font-size="14.00">CalibrationFile</text>
</g>
<!-- CalibrationFile&#45;&gt;ProcessSampleRun -->
<g id="edge2" class="edge">
<title>CalibrationFile&#45;&gt;ProcessSampleRun</title>
<path fill="none" stroke="black" d="M211.68,-1146.3C202.11,-1137.58 190.19,-1126.72 179.45,-1116.93"/>
<polygon fill="black" stroke="black" points="182.03,-1114.55 172.28,-1110.4 177.32,-1119.72 182.03,-1114.55"/>
</g>
<!-- OutputP2dFile -->
<g id="node3" class="node">
<title>OutputP2dFile</title>
<ellipse fill="khaki" stroke="black" cx="142" cy="-18" rx="74.99" ry="18"/>
<text text-anchor="middle" x="142" y="-14.3" font-family="Helvetica,sans-Serif" font-size="14.00">OutputP2dFile</text>
</g>
<!-- SamRun -->
<g id="node14" class="node">
<title>SamRun</title>
<polygon fill="grey" stroke="black" points="243.04,-1034 96.62,-1034 58.96,-958 205.38,-958 243.04,-1034"/>
<text text-anchor="middle" x="151" y="-999.8" font-family="Times,serif" font-size="14.00">Processed</text>
<text text-anchor="middle" x="151" y="-984.8" font-family="Times,serif" font-size="14.00">Sample</text>
</g>
<!-- ProcessSampleRun&#45;&gt;SamRun -->
<g id="edge3" class="edge">
<title>ProcessSampleRun&#45;&gt;SamRun</title>
<path fill="none" stroke="black" d="M151,-1070.82C151,-1063.46 151,-1054.57 151,-1045.55"/>
<polygon fill="black" stroke="black" points="154.5,-1045.68 151,-1035.68 147.5,-1045.68 154.5,-1045.68"/>
</g>
<!-- ProcessCanRun -->
<g id="node5" class="node">
<title>ProcessCanRun</title>
<path fill="lightskyblue" stroke="black" d="M333,-794C333,-794 177,-794 177,-794 171,-794 165,-788 165,-782 165,-782 165,-768 165,-768 165,-762 171,-756 177,-756 177,-756 333,-756 333,-756 339,-756 345,-762 345,-768 345,-768 345,-782 345,-782 345,-788 339,-794 333,-794"/>
<text text-anchor="middle" x="255" y="-778.8" font-family="Helvetica,sans-Serif" font-size="14.00">Process Container Run</text>
<text text-anchor="middle" x="255" y="-763.8" font-family="Helvetica,sans-Serif" font-size="14.00">(see workflow diagram)</text>
</g>
<!-- Minus -->
<g id="node6" class="node">
<title>Minus</title>
<path fill="lightskyblue" stroke="black" d="M338.5,-705C338.5,-705 175.5,-705 175.5,-705 169.5,-705 163.5,-699 163.5,-693 163.5,-693 163.5,-664 163.5,-664 163.5,-658 169.5,-652 175.5,-652 175.5,-652 338.5,-652 338.5,-652 344.5,-652 350.5,-658 350.5,-664 350.5,-664 350.5,-693 350.5,-693 350.5,-699 344.5,-705 338.5,-705"/>
<text text-anchor="middle" x="257" y="-689.8" font-family="Helvetica,sans-Serif" font-size="14.00">Substract Container Run</text>
<text text-anchor="middle" x="257" y="-674.8" font-family="Helvetica,sans-Serif" font-size="14.00">from Sample Run</text>
<text text-anchor="middle" x="257" y="-659.8" font-family="Helvetica,sans-Serif" font-size="14.00">using Minus v1.</text>
</g>
<!-- ProcessCanRun&#45;&gt;Minus -->
<g id="edge7" class="edge">
<title>ProcessCanRun&#45;&gt;Minus</title>
<path fill="none" stroke="black" d="M255.39,-755.78C255.62,-744.66 255.93,-730.04 256.22,-716.58"/>
<polygon fill="black" stroke="black" points="259.71,-716.75 256.42,-706.68 252.71,-716.6 259.71,-716.75"/>
</g>
<!-- isVanRunDefined -->
<g id="node12" class="node">
<title>isVanRunDefined</title>
<polygon fill="limegreen" stroke="black" points="147,-615 16,-577 147,-539 278,-577 147,-615"/>
<text text-anchor="middle" x="147" y="-580.8" font-family="Helvetica,sans-Serif" font-size="14.00">Is Vanadium run</text>
<text text-anchor="middle" x="147" y="-565.8" font-family="Helvetica,sans-Serif" font-size="14.00">specified?</text>
</g>
<!-- Minus&#45;&gt;isVanRunDefined -->
<g id="edge8" class="edge">
<title>Minus&#45;&gt;isVanRunDefined</title>
<path fill="none" stroke="black" d="M228.39,-651.62C215.63,-640.08 200.39,-626.29 186.57,-613.79"/>
<polygon fill="black" stroke="black" points="189.06,-611.33 179.3,-607.22 184.37,-616.52 189.06,-611.33"/>
</g>
<!-- processVanRun -->
<g id="node7" class="node">
<title>processVanRun</title>
<path fill="lightskyblue" stroke="black" d="M327,-488C327,-488 171,-488 171,-488 165,-488 159,-482 159,-476 159,-476 159,-462 159,-462 159,-456 165,-450 171,-450 171,-450 327,-450 327,-450 333,-450 339,-456 339,-462 339,-462 339,-476 339,-476 339,-482 333,-488 327,-488"/>
<text text-anchor="middle" x="249" y="-472.8" font-family="Helvetica,sans-Serif" font-size="14.00">Process Vanadium Run</text>
<text text-anchor="middle" x="249" y="-457.8" font-family="Helvetica,sans-Serif" font-size="14.00">(see workflow diagram)</text>
</g>
<!-- Divide -->
<g id="node8" class="node">
<title>Divide</title>
<path fill="lightskyblue" stroke="black" d="M303,-399C303,-399 179,-399 179,-399 173,-399 167,-393 167,-387 167,-387 167,-358 167,-358 167,-352 173,-346 179,-346 179,-346 303,-346 303,-346 309,-346 315,-352 315,-358 315,-358 315,-387 315,-387 315,-393 309,-399 303,-399"/>
<text text-anchor="middle" x="241" y="-383.8" font-family="Helvetica,sans-Serif" font-size="14.00">Divide Sample Run</text>
<text text-anchor="middle" x="241" y="-368.8" font-family="Helvetica,sans-Serif" font-size="14.00">by Vanadium Run</text>
<text text-anchor="middle" x="241" y="-353.8" font-family="Helvetica,sans-Serif" font-size="14.00">using Divide v1.</text>
</g>
<!-- processVanRun&#45;&gt;Divide -->
<g id="edge11" class="edge">
<title>processVanRun&#45;&gt;Divide</title>
<path fill="none" stroke="black" d="M247.46,-449.78C246.52,-438.66 245.28,-424.04 244.14,-410.58"/>
<polygon fill="black" stroke="black" points="247.63,-410.34 243.3,-400.67 240.66,-410.93 247.63,-410.34"/>
</g>
<!-- mustDataPositive -->
<g id="node13" class="node">
<title>mustDataPositive</title>
<polygon fill="limegreen" stroke="black" points="143,-309 0,-271 143,-233 286,-271 143,-309"/>
<text text-anchor="middle" x="143" y="-274.8" font-family="Helvetica,sans-Serif" font-size="14.00">Does data have to</text>
<text text-anchor="middle" x="143" y="-259.8" font-family="Helvetica,sans-Serif" font-size="14.00">be positive?</text>
</g>
<!-- Divide&#45;&gt;mustDataPositive -->
<g id="edge12" class="edge">
<title>Divide&#45;&gt;mustDataPositive</title>
<path fill="none" stroke="black" d="M215.51,-345.62C204.72,-334.67 191.95,-321.7 180.15,-309.72"/>
<polygon fill="black" stroke="black" points="182.75,-307.37 173.24,-302.7 177.76,-312.28 182.75,-307.37"/>
</g>
<!-- resetNegatives2D -->
<g id="node9" class="node">
<title>resetNegatives2D</title>
<path fill="lightskyblue" stroke="black" d="M154,-182C154,-182 12,-182 12,-182 6,-182 0,-176 0,-170 0,-170 0,-158 0,-158 0,-152 6,-146 12,-146 12,-146 154,-146 154,-146 160,-146 166,-152 166,-158 166,-158 166,-170 166,-170 166,-176 160,-182 154,-182"/>
<text text-anchor="middle" x="83" y="-160.3" font-family="Helvetica,sans-Serif" font-size="14.00">ResetNegatives2D v1</text>
</g>
<!-- SaveP2D -->
<g id="node10" class="node">
<title>SaveP2D</title>
<path fill="lightskyblue" stroke="black" d="M190.5,-109C190.5,-109 93.5,-109 93.5,-109 87.5,-109 81.5,-103 81.5,-97 81.5,-97 81.5,-85 81.5,-85 81.5,-79 87.5,-73 93.5,-73 93.5,-73 190.5,-73 190.5,-73 196.5,-73 202.5,-79 202.5,-85 202.5,-85 202.5,-97 202.5,-97 202.5,-103 196.5,-109 190.5,-109"/>
<text text-anchor="middle" x="142" y="-87.3" font-family="Helvetica,sans-Serif" font-size="14.00">Create p2d File</text>
</g>
<!-- resetNegatives2D&#45;&gt;SaveP2D -->
<g id="edge14" class="edge">
<title>resetNegatives2D&#45;&gt;SaveP2D</title>
<path fill="none" stroke="black" d="M97.28,-145.81C104.31,-137.35 112.93,-126.98 120.72,-117.61"/>
<polygon fill="black" stroke="black" points="123.18,-120.12 126.88,-110.19 117.8,-115.65 123.18,-120.12"/>
</g>
<!-- SaveP2D&#45;&gt;OutputP2dFile -->
<g id="edge16" class="edge">
<title>SaveP2D&#45;&gt;OutputP2dFile</title>
<path fill="none" stroke="black" d="M142,-72.81C142,-65.23 142,-56.1 142,-47.54"/>
<polygon fill="black" stroke="black" points="145.5,-47.54 142,-37.54 138.5,-47.54 145.5,-47.54"/>
</g>
<!-- isCanRunDefined -->
<g id="node11" class="node">
<title>isCanRunDefined</title>
<polygon fill="limegreen" stroke="black" points="151,-921 24,-883 151,-845 278,-883 151,-921"/>
<text text-anchor="middle" x="151" y="-886.8" font-family="Helvetica,sans-Serif" font-size="14.00">Is container run</text>
<text text-anchor="middle" x="151" y="-871.8" font-family="Helvetica,sans-Serif" font-size="14.00">specified?</text>
</g>
<!-- isCanRunDefined&#45;&gt;ProcessCanRun -->
<g id="edge6" class="edge">
<title>isCanRunDefined&#45;&gt;ProcessCanRun</title>
<path fill="none" stroke="black" d="M179.42,-853.04C194.95,-837.21 214.03,-817.75 229.14,-802.36"/>
<polygon fill="black" stroke="black" points="231.51,-804.94 236.02,-795.35 226.52,-800.03 231.51,-804.94"/>
<text text-anchor="middle" x="229.5" y="-815.8" font-family="Helvetica,sans-Serif" font-size="14.00">Yes</text>
</g>
<!-- isCanRunDefined&#45;&gt;isVanRunDefined -->
<g id="edge5" class="edge">
<title>isCanRunDefined&#45;&gt;isVanRunDefined</title>
<path fill="none" stroke="black" d="M150.51,-844.72C149.79,-789.76 148.43,-686.95 147.64,-626.29"/>
<polygon fill="black" stroke="black" points="151.14,-626.57 147.51,-616.62 144.14,-626.66 151.14,-626.57"/>
<text text-anchor="middle" x="159.5" y="-726.8" font-family="Helvetica,sans-Serif" font-size="14.00">No</text>
</g>
<!-- isVanRunDefined&#45;&gt;processVanRun -->
<g id="edge10" class="edge">
<title>isVanRunDefined&#45;&gt;processVanRun</title>
<path fill="none" stroke="black" d="M175.14,-546.75C190.27,-531.04 208.77,-511.8 223.48,-496.52"/>
<polygon fill="black" stroke="black" points="225.75,-499.21 230.16,-489.58 220.71,-494.36 225.75,-499.21"/>
<text text-anchor="middle" x="224.5" y="-509.8" font-family="Helvetica,sans-Serif" font-size="14.00">Yes</text>
</g>
<!-- isVanRunDefined&#45;&gt;mustDataPositive -->
<g id="edge9" class="edge">
<title>isVanRunDefined&#45;&gt;mustDataPositive</title>
<path fill="none" stroke="black" d="M146.51,-538.72C145.79,-483.76 144.43,-380.95 143.64,-320.29"/>
<polygon fill="black" stroke="black" points="147.14,-320.57 143.51,-310.62 140.14,-320.66 147.14,-320.57"/>
<text text-anchor="middle" x="155.5" y="-420.8" font-family="Helvetica,sans-Serif" font-size="14.00">No</text>
</g>
<!-- mustDataPositive&#45;&gt;resetNegatives2D -->
<g id="edge13" class="edge">
<title>mustDataPositive&#45;&gt;resetNegatives2D</title>
<path fill="none" stroke="black" d="M124.51,-237.64C116.22,-223.14 106.55,-206.22 98.64,-192.36"/>
<polygon fill="black" stroke="black" points="101.72,-190.71 93.72,-183.77 95.65,-194.18 101.72,-190.71"/>
<text text-anchor="middle" x="123.5" y="-203.8" font-family="Helvetica,sans-Serif" font-size="14.00">Yes</text>
</g>
<!-- mustDataPositive&#45;&gt;SaveP2D -->
<g id="edge15" class="edge">
<title>mustDataPositive&#45;&gt;SaveP2D</title>
<path fill="none" stroke="black" d="M160.88,-237.52C172.38,-212.45 183.7,-176.93 175,-146 172.33,-136.53 167.49,-127.07 162.33,-118.78"/>
<polygon fill="black" stroke="black" points="165.3,-116.94 156.83,-110.58 159.49,-120.84 165.3,-116.94"/>
<text text-anchor="middle" x="188.5" y="-160.3" font-family="Helvetica,sans-Serif" font-size="14.00">No</text>
</g>
<!-- SamRun&#45;&gt;isCanRunDefined -->
<g id="edge4" class="edge">
<title>SamRun&#45;&gt;isCanRunDefined</title>
<path fill="none" stroke="black" d="M151,-957.73C151,-949.68 151,-941.05 151,-932.63"/>
<polygon fill="black" stroke="black" points="154.5,-932.87 151,-922.87 147.5,-932.87 154.5,-932.87"/>
</g>
</g>
</svg>
