<?xml version="1.0" encoding="UTF-8" standalone="no"?>
<!DOCTYPE svg PUBLIC "-//W3C//DTD SVG 1.1//EN"
 "http://www.w3.org/Graphics/SVG/1.1/DTD/svg11.dtd">
<!-- Generated by graphviz version 7.1.0 (20230122.1345)
 -->
<!-- Title: SNSPowderReductionContainer Pages: 1 -->
<svg width="573pt" height="523pt"
 viewBox="0.00 0.00 572.78 523.00" xmlns="http://www.w3.org/2000/svg" xmlns:xlink="http://www.w3.org/1999/xlink">
<g id="graph0" class="graph" transform="scale(1 1) rotate(0) translate(4 519)">
<title>SNSPowderReductionContainer</title>
<polygon fill="white" stroke="none" points="-4,4 -4,-519 568.78,-519 568.78,4 -4,4"/>
<text text-anchor="middle" x="282.39" y="-499.8" font-family="Helvetica,sans-Serif" font-size="14.00">Process Container Run Flowchart</text>
<!-- ContainerRunNumber -->
<g id="node1" class="node">
<title>ContainerRunNumber</title>
<ellipse fill="khaki" stroke="black" cx="456.24" cy="-474" rx="108.58" ry="18"/>
<text text-anchor="middle" x="456.24" y="-470.3" font-family="Helvetica,sans-Serif" font-size="14.00">ContainerRunNumber</text>
</g>
<!-- isSum -->
<g id="node9" class="node">
<title>isSum</title>
<polygon fill="limegreen" stroke="black" points="456.24,-419 358.88,-401 456.24,-383 553.6,-401 456.24,-419"/>
<text text-anchor="middle" x="456.24" y="-397.3" font-family="Helvetica,sans-Serif" font-size="14.00">Is Sum True?</text>
</g>
<!-- ContainerRunNumber&#45;&gt;isSum -->
<g id="edge1" class="edge">
<title>ContainerRunNumber&#45;&gt;isSum</title>
<path fill="none" stroke="black" d="M456.24,-455.81C456.24,-448.23 456.24,-439.1 456.24,-430.54"/>
<polygon fill="black" stroke="black" points="459.74,-430.54 456.24,-420.54 452.74,-430.54 459.74,-430.54"/>
</g>
<!-- TimeFilterWall -->
<g id="node2" class="node">
<title>TimeFilterWall</title>
<ellipse fill="khaki" stroke="black" cx="266.24" cy="-401" rx="74.19" ry="18"/>
<text text-anchor="middle" x="266.24" y="-397.3" font-family="Helvetica,sans-Serif" font-size="14.00">TimeFilterWall</text>
</g>
<!-- focusAndSum -->
<g id="node5" class="node">
<title>focusAndSum</title>
<path fill="lightskyblue" stroke="black" d="M356.24,-332C356.24,-332 264.24,-332 264.24,-332 258.24,-332 252.24,-326 252.24,-320 252.24,-320 252.24,-308 252.24,-308 252.24,-302 258.24,-296 264.24,-296 264.24,-296 356.24,-296 356.24,-296 362.24,-296 368.24,-302 368.24,-308 368.24,-308 368.24,-320 368.24,-320 368.24,-326 362.24,-332 356.24,-332"/>
<text text-anchor="middle" x="310.24" y="-310.3" font-family="Helvetica,sans-Serif" font-size="14.00">FocusAndSum</text>
</g>
<!-- TimeFilterWall&#45;&gt;focusAndSum -->
<g id="edge3" class="edge">
<title>TimeFilterWall&#45;&gt;focusAndSum</title>
<path fill="none" stroke="black" d="M275.14,-382.8C281.12,-371.24 289.14,-355.75 296,-342.5"/>
<polygon fill="black" stroke="black" points="299.01,-344.3 300.5,-333.81 292.79,-341.08 299.01,-344.3"/>
</g>
<!-- focusChunks -->
<g id="node6" class="node">
<title>focusChunks</title>
<path fill="lightskyblue" stroke="black" d="M483.74,-332C483.74,-332 398.74,-332 398.74,-332 392.74,-332 386.74,-326 386.74,-320 386.74,-320 386.74,-308 386.74,-308 386.74,-302 392.74,-296 398.74,-296 398.74,-296 483.74,-296 483.74,-296 489.74,-296 495.74,-302 495.74,-308 495.74,-308 495.74,-320 495.74,-320 495.74,-326 489.74,-332 483.74,-332"/>
<text text-anchor="middle" x="441.24" y="-310.3" font-family="Helvetica,sans-Serif" font-size="14.00">FocusChunks</text>
</g>
<!-- TimeFilterWall&#45;&gt;focusChunks -->
<g id="edge6" class="edge">
<title>TimeFilterWall&#45;&gt;focusChunks</title>
<path fill="none" stroke="black" d="M298.33,-384.41C325.55,-371.19 364.92,-352.07 395.44,-337.24"/>
<polygon fill="black" stroke="black" points="396.6,-340.57 404.06,-333.06 393.54,-334.28 396.6,-340.57"/>
</g>
<!-- BackgroundSmoothParameter -->
<g id="node3" class="node">
<title>BackgroundSmoothParameter</title>
<ellipse fill="khaki" stroke="black" cx="146.24" cy="-167" rx="146.47" ry="18"/>
<text text-anchor="middle" x="146.24" y="-163.3" font-family="Helvetica,sans-Serif" font-size="14.00">BackgroundSmoothParameter</text>
</g>
<!-- fftSmooth -->
<g id="node8" class="node">
<title>fftSmooth</title>
<path fill="lightskyblue" stroke="black" d="M204.24,-111C204.24,-111 112.24,-111 112.24,-111 106.24,-111 100.24,-105 100.24,-99 100.24,-99 100.24,-85 100.24,-85 100.24,-79 106.24,-73 112.24,-73 112.24,-73 204.24,-73 204.24,-73 210.24,-73 216.24,-79 216.24,-85 216.24,-85 216.24,-99 216.24,-99 216.24,-105 210.24,-111 204.24,-111"/>
<text text-anchor="middle" x="158.24" y="-95.8" font-family="Helvetica,sans-Serif" font-size="14.00">FFTSmooth v1</text>
<text text-anchor="middle" x="158.24" y="-80.8" font-family="Helvetica,sans-Serif" font-size="14.00">Butterworth</text>
</g>
<!-- BackgroundSmoothParameter&#45;&gt;fftSmooth -->
<g id="edge10" class="edge">
<title>BackgroundSmoothParameter&#45;&gt;fftSmooth</title>
<path fill="none" stroke="black" d="M149.08,-148.7C150.36,-140.9 151.91,-131.47 153.37,-122.6"/>
<polygon fill="black" stroke="black" points="156.79,-123.38 154.96,-112.95 149.88,-122.25 156.79,-123.38"/>
</g>
<!-- ProcessedCanRun -->
<g id="node4" class="node">
<title>ProcessedCanRun</title>
<ellipse fill="khaki" stroke="black" cx="158.24" cy="-18" rx="90.98" ry="18"/>
<text text-anchor="middle" x="158.24" y="-14.3" font-family="Helvetica,sans-Serif" font-size="14.00">ProcessedCanRun</text>
</g>
<!-- CanRunWorkspace -->
<g id="node10" class="node">
<title>CanRunWorkspace</title>
<polygon fill="grey" stroke="black" points="559.98,-259 266.1,-259 190.5,-223 484.38,-223 559.98,-259"/>
<text text-anchor="middle" x="375.24" y="-237.3" font-family="Times,serif" font-size="14.00">ContainerRunWorkspace</text>
</g>
<!-- focusAndSum&#45;&gt;CanRunWorkspace -->
<g id="edge4" class="edge">
<title>focusAndSum&#45;&gt;CanRunWorkspace</title>
<path fill="none" stroke="black" d="M325.97,-295.81C333.8,-287.27 343.41,-276.77 352.05,-267.32"/>
<polygon fill="black" stroke="black" points="354.45,-269.88 358.63,-260.15 349.29,-265.16 354.45,-269.88"/>
</g>
<!-- focusChunks&#45;&gt;CanRunWorkspace -->
<g id="edge7" class="edge">
<title>focusChunks&#45;&gt;CanRunWorkspace</title>
<path fill="none" stroke="black" d="M425.26,-295.81C417.32,-287.27 407.56,-276.77 398.78,-267.32"/>
<polygon fill="black" stroke="black" points="401.47,-265.08 392.1,-260.14 396.34,-269.84 401.47,-265.08"/>
</g>
<!-- convertUnits1 -->
<g id="node7" class="node">
<title>convertUnits1</title>
<path fill="lightskyblue" stroke="black" d="M427.74,-186C427.74,-186 322.74,-186 322.74,-186 316.74,-186 310.74,-180 310.74,-174 310.74,-174 310.74,-160 310.74,-160 310.74,-154 316.74,-148 322.74,-148 322.74,-148 427.74,-148 427.74,-148 433.74,-148 439.74,-154 439.74,-160 439.74,-160 439.74,-174 439.74,-174 439.74,-180 433.74,-186 427.74,-186"/>
<text text-anchor="middle" x="375.24" y="-170.8" font-family="Helvetica,sans-Serif" font-size="14.00">ConvertUnits v1</text>
<text text-anchor="middle" x="375.24" y="-155.8" font-family="Helvetica,sans-Serif" font-size="14.00">to T.O.F.</text>
</g>
<!-- convertUnits1&#45;&gt;fftSmooth -->
<g id="edge9" class="edge">
<title>convertUnits1&#45;&gt;fftSmooth</title>
<path fill="none" stroke="black" d="M320.48,-147.58C291.05,-137.68 254.57,-125.41 223.66,-115.01"/>
<polygon fill="black" stroke="black" points="225.01,-111.77 214.41,-111.9 222.77,-118.4 225.01,-111.77"/>
</g>
<!-- fftSmooth&#45;&gt;ProcessedCanRun -->
<g id="edge11" class="edge">
<title>fftSmooth&#45;&gt;ProcessedCanRun</title>
<path fill="none" stroke="black" d="M158.24,-72.83C158.24,-65.24 158.24,-56.24 158.24,-47.79"/>
<polygon fill="black" stroke="black" points="161.74,-47.93 158.24,-37.93 154.74,-47.93 161.74,-47.93"/>
</g>
<!-- isSum&#45;&gt;focusAndSum -->
<g id="edge2" class="edge">
<title>isSum&#45;&gt;focusAndSum</title>
<path fill="none" stroke="black" d="M433.42,-386.72C411.17,-373.76 376.84,-353.78 350.07,-338.19"/>
<polygon fill="black" stroke="black" points="351.93,-335.23 341.53,-333.22 348.41,-341.28 351.93,-335.23"/>
<text text-anchor="middle" x="402.74" y="-353.8" font-family="Helvetica,sans-Serif" font-size="14.00">Yes</text>
</g>
<!-- isSum&#45;&gt;focusChunks -->
<g id="edge5" class="edge">
<title>isSum&#45;&gt;focusChunks</title>
<path fill="none" stroke="black" d="M453.27,-383.21C451.27,-371.83 448.56,-356.52 446.23,-343.29"/>
<polygon fill="black" stroke="black" points="449.75,-343.07 444.56,-333.83 442.85,-344.29 449.75,-343.07"/>
<text text-anchor="middle" x="458.74" y="-353.8" font-family="Helvetica,sans-Serif" font-size="14.00">No</text>
</g>
<!-- CanRunWorkspace&#45;&gt;convertUnits1 -->
<g id="edge8" class="edge">
<title>CanRunWorkspace&#45;&gt;convertUnits1</title>
<path fill="none" stroke="black" d="M375.24,-222.57C375.24,-215.1 375.24,-206.17 375.24,-197.71"/>
<polygon fill="black" stroke="black" points="378.74,-197.79 375.24,-187.79 371.74,-197.79 378.74,-197.79"/>
</g>
</g>
</svg>
