<?xml version="1.0" encoding="UTF-8" standalone="no"?>
<!DOCTYPE svg PUBLIC "-//W3C//DTD SVG 1.1//EN"
 "http://www.w3.org/Graphics/SVG/1.1/DTD/svg11.dtd">
<!-- Generated by graphviz version 7.1.0 (20230122.1345)
 -->
<!-- Title: ProcessVanadium Pages: 1 -->
<svg width="755pt" height="1567pt"
 viewBox="0.00 0.00 755.47 1567.00" xmlns="http://www.w3.org/2000/svg" xmlns:xlink="http://www.w3.org/1999/xlink">
<g id="graph0" class="graph" transform="scale(1 1) rotate(0) translate(4 1563)">
<title>ProcessVanadium</title>
<polygon fill="white" stroke="none" points="-4,4 -4,-1563 751.47,-1563 751.47,4 -4,4"/>
<text text-anchor="middle" x="373.73" y="-1543.8" font-family="Helvetica,sans-Serif" font-size="14.00">Process Vanadium Run Flowchart</text>
<!-- VanadiumRunNumberList -->
<g id="node1" class="node">
<title>VanadiumRunNumberList</title>
<ellipse fill="khaki" stroke="black" cx="126.09" cy="-1518" rx="126.18" ry="18"/>
<text text-anchor="middle" x="126.09" y="-1514.3" font-family="Helvetica,sans-Serif" font-size="14.00">VanadiumRunNumberList</text>
</g>
<!-- formVanadiumWorkspaceName -->
<g id="node7" class="node">
<title>formVanadiumWorkspaceName</title>
<path fill="lightskyblue" stroke="black" d="M353.09,-1463C353.09,-1463 129.09,-1463 129.09,-1463 123.09,-1463 117.09,-1457 117.09,-1451 117.09,-1451 117.09,-1439 117.09,-1439 117.09,-1433 123.09,-1427 129.09,-1427 129.09,-1427 353.09,-1427 353.09,-1427 359.09,-1427 365.09,-1433 365.09,-1439 365.09,-1439 365.09,-1451 365.09,-1451 365.09,-1457 359.09,-1463 353.09,-1463"/>
<text text-anchor="middle" x="241.09" y="-1441.3" font-family="Helvetica,sans-Serif" font-size="14.00">Form vanadium workspace name</text>
</g>
<!-- VanadiumRunNumberList&#45;&gt;formVanadiumWorkspaceName -->
<g id="edge1" class="edge">
<title>VanadiumRunNumberList&#45;&gt;formVanadiumWorkspaceName</title>
<path fill="none" stroke="black" d="M153.63,-1499.99C168.49,-1490.82 187.05,-1479.36 203.25,-1469.36"/>
<polygon fill="black" stroke="black" points="205.01,-1472.39 211.68,-1464.16 201.33,-1466.43 205.01,-1472.39"/>
</g>
<!-- ProcessedVanadiumWorkspace -->
<g id="node2" class="node">
<title>ProcessedVanadiumWorkspace</title>
<ellipse fill="khaki" stroke="black" cx="253.09" cy="-18" rx="151.37" ry="18"/>
<text text-anchor="middle" x="253.09" y="-14.3" font-family="Helvetica,sans-Serif" font-size="14.00">ProcessedVanadiumWorkspace</text>
</g>
<!-- TimeFilterWall -->
<g id="node3" class="node">
<title>TimeFilterWall</title>
<ellipse fill="khaki" stroke="black" cx="561.09" cy="-1372" rx="74.19" ry="18"/>
<text text-anchor="middle" x="561.09" y="-1368.3" font-family="Helvetica,sans-Serif" font-size="14.00">TimeFilterWall</text>
</g>
<!-- loadAndSum -->
<g id="node8" class="node">
<title>loadAndSum</title>
<path fill="lightskyblue" stroke="black" d="M614.09,-1303C614.09,-1303 480.09,-1303 480.09,-1303 474.09,-1303 468.09,-1297 468.09,-1291 468.09,-1291 468.09,-1277 468.09,-1277 468.09,-1271 474.09,-1265 480.09,-1265 480.09,-1265 614.09,-1265 614.09,-1265 620.09,-1265 626.09,-1271 626.09,-1277 626.09,-1277 626.09,-1291 626.09,-1291 626.09,-1297 620.09,-1303 614.09,-1303"/>
<text text-anchor="middle" x="547.09" y="-1287.8" font-family="Helvetica,sans-Serif" font-size="14.00">Load and Sum</text>
<text text-anchor="middle" x="547.09" y="-1272.8" font-family="Helvetica,sans-Serif" font-size="14.00">(see workflow chart)</text>
</g>
<!-- TimeFilterWall&#45;&gt;loadAndSum -->
<g id="edge7" class="edge">
<title>TimeFilterWall&#45;&gt;loadAndSum</title>
<path fill="none" stroke="black" d="M558.26,-1353.6C556.43,-1342.4 554.02,-1327.56 551.9,-1314.55"/>
<polygon fill="black" stroke="black" points="555.37,-1314.07 550.31,-1304.76 548.46,-1315.19 555.37,-1314.07"/>
</g>
<!-- SampleRunIndex -->
<g id="node4" class="node">
<title>SampleRunIndex</title>
<ellipse fill="khaki" stroke="black" cx="357.09" cy="-1518" rx="87.18" ry="18"/>
<text text-anchor="middle" x="357.09" y="-1514.3" font-family="Helvetica,sans-Serif" font-size="14.00">SampleRunIndex</text>
</g>
<!-- SampleRunIndex&#45;&gt;formVanadiumWorkspaceName -->
<g id="edge2" class="edge">
<title>SampleRunIndex&#45;&gt;formVanadiumWorkspaceName</title>
<path fill="none" stroke="black" d="M330.18,-1500.53C314.97,-1491.22 295.69,-1479.42 278.97,-1469.19"/>
<polygon fill="black" stroke="black" points="281.11,-1466.39 270.76,-1464.16 277.46,-1472.36 281.11,-1466.39"/>
</g>
<!-- CalibrationFile -->
<g id="node5" class="node">
<title>CalibrationFile</title>
<ellipse fill="khaki" stroke="black" cx="590.09" cy="-630" rx="74.99" ry="18"/>
<text text-anchor="middle" x="590.09" y="-626.3" font-family="Helvetica,sans-Serif" font-size="14.00">CalibrationFile</text>
</g>
<!-- alignAndFocusPowder -->
<g id="node16" class="node">
<title>alignAndFocusPowder</title>
<path fill="lightskyblue" stroke="black" d="M538.09,-575C538.09,-575 370.09,-575 370.09,-575 364.09,-575 358.09,-569 358.09,-563 358.09,-563 358.09,-551 358.09,-551 358.09,-545 364.09,-539 370.09,-539 370.09,-539 538.09,-539 538.09,-539 544.09,-539 550.09,-545 550.09,-551 550.09,-551 550.09,-563 550.09,-563 550.09,-569 544.09,-575 538.09,-575"/>
<text text-anchor="middle" x="454.09" y="-553.3" font-family="Helvetica,sans-Serif" font-size="14.00">AlignAndFocusPowder v1</text>
</g>
<!-- CalibrationFile&#45;&gt;alignAndFocusPowder -->
<g id="edge18" class="edge">
<title>CalibrationFile&#45;&gt;alignAndFocusPowder</title>
<path fill="none" stroke="black" d="M559.91,-613.24C541.56,-603.67 517.84,-591.28 497.5,-580.66"/>
<polygon fill="black" stroke="black" points="499.35,-577.68 488.87,-576.16 496.11,-583.89 499.35,-577.68"/>
</g>
<!-- convertUnitsToTOF -->
<g id="node6" class="node">
<title>convertUnitsToTOF</title>
<path fill="lightskyblue" stroke="black" d="M296.09,-1247C296.09,-1247 186.09,-1247 186.09,-1247 180.09,-1247 174.09,-1241 174.09,-1235 174.09,-1235 174.09,-1221 174.09,-1221 174.09,-1215 180.09,-1209 186.09,-1209 186.09,-1209 296.09,-1209 296.09,-1209 302.09,-1209 308.09,-1215 308.09,-1221 308.09,-1221 308.09,-1235 308.09,-1235 308.09,-1241 302.09,-1247 296.09,-1247"/>
<text text-anchor="middle" x="241.09" y="-1231.8" font-family="Helvetica,sans-Serif" font-size="14.00">ConvertUnits v1 </text>
<text text-anchor="middle" x="241.09" y="-1216.8" font-family="Helvetica,sans-Serif" font-size="14.00"> to T.O.F.</text>
</g>
<!-- convertUnitsToTOF&#45;&gt;ProcessedVanadiumWorkspace -->
<g id="edge5" class="edge">
<title>convertUnitsToTOF&#45;&gt;ProcessedVanadiumWorkspace</title>
<path fill="none" stroke="black" d="M241.09,-1208.5C241.09,-1189.07 241.09,-1157.64 241.09,-1130.5 241.09,-1130.5 241.09,-1130.5 241.09,-90 241.09,-75.83 243.44,-60.3 246.06,-47.38"/>
<polygon fill="black" stroke="black" points="249.43,-48.37 248.16,-37.85 242.59,-46.86 249.43,-48.37"/>
</g>
<!-- doesVanadiumWorkspaceExist -->
<g id="node22" class="node">
<title>doesVanadiumWorkspaceExist</title>
<polygon fill="limegreen" stroke="black" points="241.09,-1390 13.19,-1372 241.09,-1354 468.99,-1372 241.09,-1390"/>
<text text-anchor="middle" x="241.09" y="-1368.3" font-family="Helvetica,sans-Serif" font-size="14.00">Does vanadium workspace exist?</text>
</g>
<!-- formVanadiumWorkspaceName&#45;&gt;doesVanadiumWorkspaceExist -->
<g id="edge3" class="edge">
<title>formVanadiumWorkspaceName&#45;&gt;doesVanadiumWorkspaceExist</title>
<path fill="none" stroke="black" d="M241.09,-1426.81C241.09,-1419.23 241.09,-1410.1 241.09,-1401.54"/>
<polygon fill="black" stroke="black" points="244.59,-1401.54 241.09,-1391.54 237.59,-1401.54 244.59,-1401.54"/>
</g>
<!-- isBackgrounRunNumberSpecified -->
<g id="node23" class="node">
<title>isBackgrounRunNumberSpecified</title>
<polygon fill="limegreen" stroke="black" points="547.09,-1191 346.84,-1173 547.09,-1155 747.34,-1173 547.09,-1191"/>
<text text-anchor="middle" x="547.09" y="-1169.3" font-family="Helvetica,sans-Serif" font-size="14.00">Is background run specified?</text>
</g>
<!-- loadAndSum&#45;&gt;isBackgrounRunNumberSpecified -->
<g id="edge8" class="edge">
<title>loadAndSum&#45;&gt;isBackgrounRunNumberSpecified</title>
<path fill="none" stroke="black" d="M547.09,-1264.51C547.09,-1247.61 547.09,-1222.35 547.09,-1202.8"/>
<polygon fill="black" stroke="black" points="550.59,-1203.01 547.09,-1193.01 543.59,-1203.01 550.59,-1203.01"/>
</g>
<!-- loadAndSumBlgd -->
<g id="node9" class="node">
<title>loadAndSumBlgd</title>
<path fill="lightskyblue" stroke="black" d="M518.09,-1104C518.09,-1104 336.09,-1104 336.09,-1104 330.09,-1104 324.09,-1098 324.09,-1092 324.09,-1092 324.09,-1078 324.09,-1078 324.09,-1072 330.09,-1066 336.09,-1066 336.09,-1066 518.09,-1066 518.09,-1066 524.09,-1066 530.09,-1072 530.09,-1078 530.09,-1078 530.09,-1092 530.09,-1092 530.09,-1098 524.09,-1104 518.09,-1104"/>
<text text-anchor="middle" x="427.09" y="-1088.8" font-family="Helvetica,sans-Serif" font-size="14.00">Load and sum</text>
<text text-anchor="middle" x="427.09" y="-1073.8" font-family="Helvetica,sans-Serif" font-size="14.00"> vanadium background run</text>
</g>
<!-- minusBkgd -->
<g id="node10" class="node">
<title>minusBkgd</title>
<path fill="lightskyblue" stroke="black" d="M517.09,-1015C517.09,-1015 341.09,-1015 341.09,-1015 335.09,-1015 329.09,-1009 329.09,-1003 329.09,-1003 329.09,-989 329.09,-989 329.09,-983 335.09,-977 341.09,-977 341.09,-977 517.09,-977 517.09,-977 523.09,-977 529.09,-983 529.09,-989 529.09,-989 529.09,-1003 529.09,-1003 529.09,-1009 523.09,-1015 517.09,-1015"/>
<text text-anchor="middle" x="429.09" y="-999.8" font-family="Helvetica,sans-Serif" font-size="14.00">Minus v1</text>
<text text-anchor="middle" x="429.09" y="-984.8" font-family="Helvetica,sans-Serif" font-size="14.00"> van run &#45; background run</text>
</g>
<!-- loadAndSumBlgd&#45;&gt;minusBkgd -->
<g id="edge10" class="edge">
<title>loadAndSumBlgd&#45;&gt;minusBkgd</title>
<path fill="none" stroke="black" d="M427.51,-1065.55C427.77,-1054.25 428.11,-1039.52 428.41,-1026.61"/>
<polygon fill="black" stroke="black" points="431.9,-1027.01 428.63,-1016.94 424.9,-1026.85 431.9,-1027.01"/>
<text text-anchor="middle" x="439.59" y="-1036.8" font-family="Helvetica,sans-Serif" font-size="14.00">Yes</text>
</g>
<!-- compressEvents1 -->
<g id="node11" class="node">
<title>compressEvents1</title>
<path fill="lightskyblue" stroke="black" d="M498.59,-940C498.59,-940 367.59,-940 367.59,-940 361.59,-940 355.59,-934 355.59,-928 355.59,-928 355.59,-916 355.59,-916 355.59,-910 361.59,-904 367.59,-904 367.59,-904 498.59,-904 498.59,-904 504.59,-904 510.59,-910 510.59,-916 510.59,-916 510.59,-928 510.59,-928 510.59,-934 504.59,-940 498.59,-940"/>
<text text-anchor="middle" x="433.09" y="-918.3" font-family="Helvetica,sans-Serif" font-size="14.00">CompressEvents v1</text>
</g>
<!-- minusBkgd&#45;&gt;compressEvents1 -->
<g id="edge11" class="edge">
<title>minusBkgd&#45;&gt;compressEvents1</title>
<path fill="none" stroke="black" d="M430.1,-976.83C430.52,-969.24 431.02,-960.24 431.49,-951.79"/>
<polygon fill="black" stroke="black" points="434.98,-952.11 432.04,-941.93 427.99,-951.72 434.98,-952.11"/>
</g>
<!-- convertUnits1 -->
<g id="node12" class="node">
<title>convertUnits1</title>
<path fill="lightskyblue" stroke="black" d="M485.59,-867C485.59,-867 380.59,-867 380.59,-867 374.59,-867 368.59,-861 368.59,-855 368.59,-855 368.59,-843 368.59,-843 368.59,-837 374.59,-831 380.59,-831 380.59,-831 485.59,-831 485.59,-831 491.59,-831 497.59,-837 497.59,-843 497.59,-843 497.59,-855 497.59,-855 497.59,-861 491.59,-867 485.59,-867"/>
<text text-anchor="middle" x="433.09" y="-845.3" font-family="Helvetica,sans-Serif" font-size="14.00">ConvertUnits v1</text>
</g>
<!-- compressEvents1&#45;&gt;convertUnits1 -->
<g id="edge13" class="edge">
<title>compressEvents1&#45;&gt;convertUnits1</title>
<path fill="none" stroke="black" d="M433.09,-903.81C433.09,-896.23 433.09,-887.1 433.09,-878.54"/>
<polygon fill="black" stroke="black" points="436.59,-878.54 433.09,-868.54 429.59,-878.54 436.59,-878.54"/>
</g>
<!-- setSampleMaterial -->
<g id="node13" class="node">
<title>setSampleMaterial</title>
<path fill="lightskyblue" stroke="black" d="M505.09,-794C505.09,-794 361.09,-794 361.09,-794 355.09,-794 349.09,-788 349.09,-782 349.09,-782 349.09,-770 349.09,-770 349.09,-764 355.09,-758 361.09,-758 361.09,-758 505.09,-758 505.09,-758 511.09,-758 517.09,-764 517.09,-770 517.09,-770 517.09,-782 517.09,-782 517.09,-788 511.09,-794 505.09,-794"/>
<text text-anchor="middle" x="433.09" y="-772.3" font-family="Helvetica,sans-Serif" font-size="14.00">SetSampleMaterial v1</text>
</g>
<!-- convertUnits1&#45;&gt;setSampleMaterial -->
<g id="edge14" class="edge">
<title>convertUnits1&#45;&gt;setSampleMaterial</title>
<path fill="none" stroke="black" d="M433.09,-830.81C433.09,-823.23 433.09,-814.1 433.09,-805.54"/>
<polygon fill="black" stroke="black" points="436.59,-805.54 433.09,-795.54 429.59,-805.54 436.59,-805.54"/>
</g>
<!-- multipleScatteringCylinderAbsorption -->
<g id="node14" class="node">
<title>multipleScatteringCylinderAbsorption</title>
<path fill="lightskyblue" stroke="black" d="M570.09,-721C570.09,-721 296.09,-721 296.09,-721 290.09,-721 284.09,-715 284.09,-709 284.09,-709 284.09,-697 284.09,-697 284.09,-691 290.09,-685 296.09,-685 296.09,-685 570.09,-685 570.09,-685 576.09,-685 582.09,-691 582.09,-697 582.09,-697 582.09,-709 582.09,-709 582.09,-715 576.09,-721 570.09,-721"/>
<text text-anchor="middle" x="433.09" y="-699.3" font-family="Helvetica,sans-Serif" font-size="14.00">MultipleScatteringCylinderAbsorption v1</text>
</g>
<!-- setSampleMaterial&#45;&gt;multipleScatteringCylinderAbsorption -->
<g id="edge15" class="edge">
<title>setSampleMaterial&#45;&gt;multipleScatteringCylinderAbsorption</title>
<path fill="none" stroke="black" d="M433.09,-757.81C433.09,-750.23 433.09,-741.1 433.09,-732.54"/>
<polygon fill="black" stroke="black" points="436.59,-732.54 433.09,-722.54 429.59,-732.54 436.59,-732.54"/>
</g>
<!-- convertUnits2 -->
<g id="node15" class="node">
<title>convertUnits2</title>
<path fill="lightskyblue" stroke="black" d="M485.59,-648C485.59,-648 380.59,-648 380.59,-648 374.59,-648 368.59,-642 368.59,-636 368.59,-636 368.59,-624 368.59,-624 368.59,-618 374.59,-612 380.59,-612 380.59,-612 485.59,-612 485.59,-612 491.59,-612 497.59,-618 497.59,-624 497.59,-624 497.59,-636 497.59,-636 497.59,-642 491.59,-648 485.59,-648"/>
<text text-anchor="middle" x="433.09" y="-626.3" font-family="Helvetica,sans-Serif" font-size="14.00">ConvertUnits v1</text>
</g>
<!-- multipleScatteringCylinderAbsorption&#45;&gt;convertUnits2 -->
<g id="edge16" class="edge">
<title>multipleScatteringCylinderAbsorption&#45;&gt;convertUnits2</title>
<path fill="none" stroke="black" d="M433.09,-684.81C433.09,-677.23 433.09,-668.1 433.09,-659.54"/>
<polygon fill="black" stroke="black" points="436.59,-659.54 433.09,-649.54 429.59,-659.54 436.59,-659.54"/>
</g>
<!-- convertUnits2&#45;&gt;alignAndFocusPowder -->
<g id="edge17" class="edge">
<title>convertUnits2&#45;&gt;alignAndFocusPowder</title>
<path fill="none" stroke="black" d="M438.17,-611.81C440.47,-604.05 443.24,-594.68 445.82,-585.95"/>
<polygon fill="black" stroke="black" points="449.14,-587.06 448.62,-576.48 442.43,-585.08 449.14,-587.06"/>
</g>
<!-- doStripVanadiumPeaks -->
<g id="node24" class="node">
<title>doStripVanadiumPeaks</title>
<polygon fill="limegreen" stroke="black" points="454.09,-502 272.1,-484 454.09,-466 636.08,-484 454.09,-502"/>
<text text-anchor="middle" x="454.09" y="-480.3" font-family="Helvetica,sans-Serif" font-size="14.00">Do strip vanadium peaks?</text>
</g>
<!-- alignAndFocusPowder&#45;&gt;doStripVanadiumPeaks -->
<g id="edge19" class="edge">
<title>alignAndFocusPowder&#45;&gt;doStripVanadiumPeaks</title>
<path fill="none" stroke="black" d="M454.09,-538.81C454.09,-531.23 454.09,-522.1 454.09,-513.54"/>
<polygon fill="black" stroke="black" points="457.59,-513.54 454.09,-503.54 450.59,-513.54 457.59,-513.54"/>
</g>
<!-- convertUnits3 -->
<g id="node17" class="node">
<title>convertUnits3</title>
<path fill="lightskyblue" stroke="black" d="M412.59,-415C412.59,-415 307.59,-415 307.59,-415 301.59,-415 295.59,-409 295.59,-403 295.59,-403 295.59,-391 295.59,-391 295.59,-385 301.59,-379 307.59,-379 307.59,-379 412.59,-379 412.59,-379 418.59,-379 424.59,-385 424.59,-391 424.59,-391 424.59,-403 424.59,-403 424.59,-409 418.59,-415 412.59,-415"/>
<text text-anchor="middle" x="360.09" y="-393.3" font-family="Helvetica,sans-Serif" font-size="14.00">ConvertUnits v1</text>
</g>
<!-- stripVanadiumPeaks -->
<g id="node18" class="node">
<title>stripVanadiumPeaks</title>
<path fill="lightskyblue" stroke="black" d="M417.09,-328C417.09,-328 281.09,-328 281.09,-328 275.09,-328 269.09,-322 269.09,-316 269.09,-316 269.09,-304 269.09,-304 269.09,-298 275.09,-292 281.09,-292 281.09,-292 417.09,-292 417.09,-292 423.09,-292 429.09,-298 429.09,-304 429.09,-304 429.09,-316 429.09,-316 429.09,-322 423.09,-328 417.09,-328"/>
<text text-anchor="middle" x="349.09" y="-306.3" font-family="Helvetica,sans-Serif" font-size="14.00">StripVanadiumPeaks</text>
</g>
<!-- convertUnits3&#45;&gt;stripVanadiumPeaks -->
<g id="edge21" class="edge">
<title>convertUnits3&#45;&gt;stripVanadiumPeaks</title>
<path fill="none" stroke="black" d="M357.86,-378.8C356.41,-367.58 354.48,-352.67 352.8,-339.69"/>
<polygon fill="black" stroke="black" points="356.3,-339.44 351.54,-329.97 349.36,-340.33 356.3,-339.44"/>
</g>
<!-- convertUnits4 -->
<g id="node19" class="node">
<title>convertUnits4</title>
<path fill="lightskyblue" stroke="black" d="M401.59,-255C401.59,-255 296.59,-255 296.59,-255 290.59,-255 284.59,-249 284.59,-243 284.59,-243 284.59,-231 284.59,-231 284.59,-225 290.59,-219 296.59,-219 296.59,-219 401.59,-219 401.59,-219 407.59,-219 413.59,-225 413.59,-231 413.59,-231 413.59,-243 413.59,-243 413.59,-249 407.59,-255 401.59,-255"/>
<text text-anchor="middle" x="349.09" y="-233.3" font-family="Helvetica,sans-Serif" font-size="14.00">ConvertUnits v1</text>
</g>
<!-- stripVanadiumPeaks&#45;&gt;convertUnits4 -->
<g id="edge22" class="edge">
<title>stripVanadiumPeaks&#45;&gt;convertUnits4</title>
<path fill="none" stroke="black" d="M349.09,-291.81C349.09,-284.23 349.09,-275.1 349.09,-266.54"/>
<polygon fill="black" stroke="black" points="352.59,-266.54 349.09,-256.54 345.59,-266.54 352.59,-266.54"/>
</g>
<!-- fftSmooth -->
<g id="node20" class="node">
<title>fftSmooth</title>
<path fill="lightskyblue" stroke="black" d="M393.09,-182C393.09,-182 301.09,-182 301.09,-182 295.09,-182 289.09,-176 289.09,-170 289.09,-170 289.09,-158 289.09,-158 289.09,-152 295.09,-146 301.09,-146 301.09,-146 393.09,-146 393.09,-146 399.09,-146 405.09,-152 405.09,-158 405.09,-158 405.09,-170 405.09,-170 405.09,-176 399.09,-182 393.09,-182"/>
<text text-anchor="middle" x="347.09" y="-160.3" font-family="Helvetica,sans-Serif" font-size="14.00">FFTSmooth v1</text>
</g>
<!-- convertUnits4&#45;&gt;fftSmooth -->
<g id="edge24" class="edge">
<title>convertUnits4&#45;&gt;fftSmooth</title>
<path fill="none" stroke="black" d="M348.6,-218.81C348.39,-211.14 348.13,-201.89 347.88,-193.24"/>
<polygon fill="black" stroke="black" points="351.39,-193.44 347.61,-183.54 344.39,-193.64 351.39,-193.44"/>
</g>
<!-- setUncertainties -->
<g id="node21" class="node">
<title>setUncertainties</title>
<path fill="lightskyblue" stroke="black" d="M395.59,-109C395.59,-109 288.59,-109 288.59,-109 282.59,-109 276.59,-103 276.59,-97 276.59,-97 276.59,-85 276.59,-85 276.59,-79 282.59,-73 288.59,-73 288.59,-73 395.59,-73 395.59,-73 401.59,-73 407.59,-79 407.59,-85 407.59,-85 407.59,-97 407.59,-97 407.59,-103 401.59,-109 395.59,-109"/>
<text text-anchor="middle" x="342.09" y="-87.3" font-family="Helvetica,sans-Serif" font-size="14.00">SetUncertainties</text>
</g>
<!-- fftSmooth&#45;&gt;setUncertainties -->
<g id="edge25" class="edge">
<title>fftSmooth&#45;&gt;setUncertainties</title>
<path fill="none" stroke="black" d="M345.88,-145.81C345.34,-138.14 344.69,-128.89 344.08,-120.24"/>
<polygon fill="black" stroke="black" points="347.59,-120.27 343.39,-110.54 340.61,-120.76 347.59,-120.27"/>
</g>
<!-- setUncertainties&#45;&gt;ProcessedVanadiumWorkspace -->
<g id="edge26" class="edge">
<title>setUncertainties&#45;&gt;ProcessedVanadiumWorkspace</title>
<path fill="none" stroke="black" d="M320.54,-72.81C309.48,-63.98 295.8,-53.07 283.66,-43.39"/>
<polygon fill="black" stroke="black" points="285.93,-40.72 275.93,-37.22 281.56,-46.19 285.93,-40.72"/>
</g>
<!-- doesVanadiumWorkspaceExist&#45;&gt;convertUnitsToTOF -->
<g id="edge4" class="edge">
<title>doesVanadiumWorkspaceExist&#45;&gt;convertUnitsToTOF</title>
<path fill="none" stroke="black" d="M241.09,-1353.59C241.09,-1330 241.09,-1287.55 241.09,-1258.83"/>
<polygon fill="black" stroke="black" points="244.59,-1258.97 241.09,-1248.97 237.59,-1258.97 244.59,-1258.97"/>
<text text-anchor="middle" x="252.59" y="-1324.8" font-family="Helvetica,sans-Serif" font-size="14.00">Yes</text>
</g>
<!-- doesVanadiumWorkspaceExist&#45;&gt;loadAndSum -->
<g id="edge6" class="edge">
<title>doesVanadiumWorkspaceExist&#45;&gt;loadAndSum</title>
<path fill="none" stroke="black" d="M289.58,-1357.37C338.16,-1343.72 413.67,-1322.5 470.38,-1306.56"/>
<polygon fill="black" stroke="black" points="471.33,-1309.93 480.01,-1303.85 469.43,-1303.19 471.33,-1309.93"/>
<text text-anchor="middle" x="421.59" y="-1324.8" font-family="Helvetica,sans-Serif" font-size="14.00">No</text>
</g>
<!-- isBackgrounRunNumberSpecified&#45;&gt;loadAndSumBlgd -->
<g id="edge9" class="edge">
<title>isBackgrounRunNumberSpecified&#45;&gt;loadAndSumBlgd</title>
<path fill="none" stroke="black" d="M525.64,-1156.62C507.86,-1143.89 482.27,-1125.54 461.61,-1110.74"/>
<polygon fill="black" stroke="black" points="463.92,-1108.09 453.75,-1105.11 459.84,-1113.78 463.92,-1108.09"/>
<text text-anchor="middle" x="508.59" y="-1125.8" font-family="Helvetica,sans-Serif" font-size="14.00">Yes</text>
</g>
<!-- isBackgrounRunNumberSpecified&#45;&gt;compressEvents1 -->
<g id="edge12" class="edge">
<title>isBackgrounRunNumberSpecified&#45;&gt;compressEvents1</title>
<path fill="none" stroke="black" d="M551.56,-1154.93C559.98,-1118.8 574.26,-1033.32 538.09,-977 529.4,-963.48 516.19,-953.17 502.03,-945.38"/>
<polygon fill="black" stroke="black" points="503.98,-942.45 493.48,-941.07 500.83,-948.7 503.98,-942.45"/>
<text text-anchor="middle" x="569.59" y="-1036.8" font-family="Helvetica,sans-Serif" font-size="14.00">No</text>
</g>
<!-- doStripVanadiumPeaks&#45;&gt;convertUnits3 -->
<g id="edge20" class="edge">
<title>doStripVanadiumPeaks&#45;&gt;convertUnits3</title>
<path fill="none" stroke="black" d="M436.85,-467.41C423.07,-454.95 403.51,-437.26 387.58,-422.86"/>
<polygon fill="black" stroke="black" points="390.05,-420.37 380.28,-416.26 385.35,-425.56 390.05,-420.37"/>
<text text-anchor="middle" x="423.59" y="-436.8" font-family="Helvetica,sans-Serif" font-size="14.00">Yes</text>
</g>
<!-- doStripVanadiumPeaks&#45;&gt;convertUnits4 -->
<g id="edge23" class="edge">
<title>doStripVanadiumPeaks&#45;&gt;convertUnits4</title>
<path fill="none" stroke="black" d="M457.48,-465.85C463.52,-430.37 472.52,-347.59 438.09,-292 430.13,-279.14 417.86,-268.92 404.96,-260.99"/>
<polygon fill="black" stroke="black" points="406.77,-257.99 396.34,-256.11 403.32,-264.08 406.77,-257.99"/>
<text text-anchor="middle" x="469.59" y="-349.8" font-family="Helvetica,sans-Serif" font-size="14.00">No</text>
</g>
</g>
</svg>
