<?xml version="1.0" encoding="UTF-8" standalone="no"?>
<!DOCTYPE svg PUBLIC "-//W3C//DTD SVG 1.1//EN"
 "http://www.w3.org/Graphics/SVG/1.1/DTD/svg11.dtd">
<!-- Generated by graphviz version 7.1.0 (20230122.1345)
 -->
<!-- Title: TransformToIqt Pages: 1 -->
<svg width="743pt" height="655pt"
 viewBox="0.00 0.00 743.24 655.00" xmlns="http://www.w3.org/2000/svg" xmlns:xlink="http://www.w3.org/1999/xlink">
<g id="graph0" class="graph" transform="scale(1 1) rotate(0) translate(4 651)">
<title>TransformToIqt</title>
<polygon fill="white" stroke="none" points="-4,4 -4,-651 739.24,-651 739.24,4 -4,4"/>
<text text-anchor="middle" x="367.62" y="-631.8" font-family="Helvetica,sans-Serif" font-size="14.00">TransformToIqt Flowchart</text>
<!-- IsDryRun -->
<g id="node1" class="node">
<title>IsDryRun</title>
<polygon fill="limegreen" stroke="black" points="119.24,-551 49.53,-533 119.24,-515 188.95,-533 119.24,-551"/>
<text text-anchor="middle" x="119.24" y="-529.3" font-family="Helvetica,sans-Serif" font-size="14.00">DryRun?</text>
</g>
<!-- Rebin_Sample -->
<g id="node11" class="node">
<title>Rebin_Sample</title>
<path fill="lightskyblue" stroke="black" d="M156.24,-464C156.24,-464 124.24,-464 124.24,-464 118.24,-464 112.24,-458 112.24,-452 112.24,-452 112.24,-440 112.24,-440 112.24,-434 118.24,-428 124.24,-428 124.24,-428 156.24,-428 156.24,-428 162.24,-428 168.24,-434 168.24,-440 168.24,-440 168.24,-452 168.24,-452 168.24,-458 162.24,-464 156.24,-464"/>
<text text-anchor="middle" x="140.24" y="-442.3" font-family="Helvetica,sans-Serif" font-size="14.00">Rebin</text>
</g>
<!-- IsDryRun&#45;&gt;Rebin_Sample -->
<g id="edge7" class="edge">
<title>IsDryRun&#45;&gt;Rebin_Sample</title>
<path fill="none" stroke="black" d="M123.29,-515.61C126.11,-504.19 129.95,-488.67 133.26,-475.28"/>
<polygon fill="black" stroke="black" points="136.63,-476.23 135.63,-465.68 129.83,-474.55 136.63,-476.23"/>
<text text-anchor="middle" x="140.74" y="-485.8" font-family="Helvetica,sans-Serif" font-size="14.00">No</text>
</g>
<!-- CalculateBinningParameters -->
<g id="node2" class="node">
<title>CalculateBinningParameters</title>
<polygon fill="lightseagreen" stroke="black" points="429.24,-551 207.24,-551 207.24,-515 429.24,-515 429.24,-551"/>
<text text-anchor="middle" x="318.24" y="-529.3" font-family="Helvetica,sans-Serif" font-size="14.00">Calculate binning parameters</text>
</g>
<!-- ParameterWorkspace -->
<g id="node8" class="node">
<title>ParameterWorkspace</title>
<ellipse fill="khaki" stroke="black" cx="293.24" cy="-446" rx="107.48" ry="18"/>
<text text-anchor="middle" x="293.24" y="-442.3" font-family="Helvetica,sans-Serif" font-size="14.00">ParameterWorkspace</text>
</g>
<!-- CalculateBinningParameters&#45;&gt;ParameterWorkspace -->
<g id="edge5" class="edge">
<title>CalculateBinningParameters&#45;&gt;ParameterWorkspace</title>
<path fill="none" stroke="black" d="M313.18,-514.8C309.85,-503.47 305.41,-488.36 301.56,-475.29"/>
<polygon fill="black" stroke="black" points="304.99,-474.53 298.81,-465.92 298.27,-476.5 304.99,-474.53"/>
</g>
<!-- CalculateBinningParameters&#45;&gt;Rebin_Sample -->
<g id="edge8" class="edge">
<title>CalculateBinningParameters&#45;&gt;Rebin_Sample</title>
<path fill="none" stroke="black" d="M281.79,-514.59C251.86,-500.3 209.57,-480.11 179.02,-465.52"/>
<polygon fill="black" stroke="black" points="180.64,-462.41 170.11,-461.26 177.62,-468.73 180.64,-462.41"/>
</g>
<!-- Rebin_Resolution -->
<g id="node12" class="node">
<title>Rebin_Resolution</title>
<path fill="lightskyblue" stroke="black" d="M538.24,-464C538.24,-464 506.24,-464 506.24,-464 500.24,-464 494.24,-458 494.24,-452 494.24,-452 494.24,-440 494.24,-440 494.24,-434 500.24,-428 506.24,-428 506.24,-428 538.24,-428 538.24,-428 544.24,-428 550.24,-434 550.24,-440 550.24,-440 550.24,-452 550.24,-452 550.24,-458 544.24,-464 538.24,-464"/>
<text text-anchor="middle" x="522.24" y="-442.3" font-family="Helvetica,sans-Serif" font-size="14.00">Rebin</text>
</g>
<!-- CalculateBinningParameters&#45;&gt;Rebin_Resolution -->
<g id="edge15" class="edge">
<title>CalculateBinningParameters&#45;&gt;Rebin_Resolution</title>
<path fill="none" stroke="black" d="M360.02,-514.59C396.25,-499.5 448.28,-477.82 483.57,-463.11"/>
<polygon fill="black" stroke="black" points="484.67,-466.45 492.56,-459.37 481.98,-459.98 484.67,-466.45"/>
</g>
<!-- SampleWorkspace -->
<g id="node3" class="node">
<title>SampleWorkspace</title>
<ellipse fill="khaki" stroke="black" cx="94.24" cy="-606" rx="94.48" ry="18"/>
<text text-anchor="middle" x="94.24" y="-602.3" font-family="Helvetica,sans-Serif" font-size="14.00">SampleWorkspace</text>
</g>
<!-- SampleWorkspace&#45;&gt;IsDryRun -->
<g id="edge6" class="edge">
<title>SampleWorkspace&#45;&gt;IsDryRun</title>
<path fill="none" stroke="black" d="M100.29,-587.81C103.14,-579.73 106.6,-569.91 109.78,-560.88"/>
<polygon fill="black" stroke="black" points="113.07,-562.08 113.09,-551.48 106.46,-559.75 113.07,-562.08"/>
</g>
<!-- SampleWorkspace&#45;&gt;CalculateBinningParameters -->
<g id="edge1" class="edge">
<title>SampleWorkspace&#45;&gt;CalculateBinningParameters</title>
<path fill="none" stroke="black" d="M141.47,-590.03C173.69,-579.82 216.81,-566.15 252.4,-554.87"/>
<polygon fill="black" stroke="black" points="253.26,-558.27 261.74,-551.91 251.15,-551.6 253.26,-558.27"/>
</g>
<!-- ResolutionWorkspace -->
<g id="node4" class="node">
<title>ResolutionWorkspace</title>
<ellipse fill="khaki" stroke="black" cx="555.24" cy="-533" rx="107.78" ry="18"/>
<text text-anchor="middle" x="555.24" y="-529.3" font-family="Helvetica,sans-Serif" font-size="14.00">ResolutionWorkspace</text>
</g>
<!-- ResolutionWorkspace&#45;&gt;Rebin_Resolution -->
<g id="edge14" class="edge">
<title>ResolutionWorkspace&#45;&gt;Rebin_Resolution</title>
<path fill="none" stroke="black" d="M548.56,-514.8C544.12,-503.35 538.18,-488.06 533.07,-474.89"/>
<polygon fill="black" stroke="black" points="536.45,-473.93 529.57,-465.88 529.93,-476.47 536.45,-473.93"/>
</g>
<!-- EnergyMin -->
<g id="node5" class="node">
<title>EnergyMin</title>
<ellipse fill="khaki" stroke="black" cx="623.24" cy="-606" rx="59.29" ry="18"/>
<text text-anchor="middle" x="623.24" y="-602.3" font-family="Helvetica,sans-Serif" font-size="14.00">EnergyMin</text>
</g>
<!-- EnergyMin&#45;&gt;CalculateBinningParameters -->
<g id="edge2" class="edge">
<title>EnergyMin&#45;&gt;CalculateBinningParameters</title>
<path fill="none" stroke="black" d="M578.65,-593.71C570.85,-591.78 562.82,-589.81 555.24,-588 506.62,-576.38 452.25,-563.96 407.86,-553.95"/>
<polygon fill="black" stroke="black" points="408.8,-550.58 398.27,-551.8 407.26,-557.41 408.8,-550.58"/>
</g>
<!-- EnergyMax -->
<g id="node6" class="node">
<title>EnergyMax</title>
<ellipse fill="khaki" stroke="black" cx="268.24" cy="-606" rx="61.99" ry="18"/>
<text text-anchor="middle" x="268.24" y="-602.3" font-family="Helvetica,sans-Serif" font-size="14.00">EnergyMax</text>
</g>
<!-- EnergyMax&#45;&gt;CalculateBinningParameters -->
<g id="edge3" class="edge">
<title>EnergyMax&#45;&gt;CalculateBinningParameters</title>
<path fill="none" stroke="black" d="M280.09,-588.17C285.88,-579.96 292.98,-569.87 299.48,-560.64"/>
<polygon fill="black" stroke="black" points="302.19,-562.88 305.08,-552.68 296.46,-558.85 302.19,-562.88"/>
</g>
<!-- BinReductionFactor -->
<g id="node7" class="node">
<title>BinReductionFactor</title>
<ellipse fill="khaki" stroke="black" cx="447.24" cy="-606" rx="98.58" ry="18"/>
<text text-anchor="middle" x="447.24" y="-602.3" font-family="Helvetica,sans-Serif" font-size="14.00">BinReductionFactor</text>
</g>
<!-- BinReductionFactor&#45;&gt;CalculateBinningParameters -->
<g id="edge4" class="edge">
<title>BinReductionFactor&#45;&gt;CalculateBinningParameters</title>
<path fill="none" stroke="black" d="M417.32,-588.53C400.24,-579.13 378.57,-567.2 359.85,-556.9"/>
<polygon fill="black" stroke="black" points="361.57,-553.85 351.12,-552.1 358.2,-559.99 361.57,-553.85"/>
</g>
<!-- OutputWorkspace -->
<g id="node9" class="node">
<title>OutputWorkspace</title>
<ellipse fill="khaki" stroke="black" cx="391.24" cy="-18" rx="92.08" ry="18"/>
<text text-anchor="middle" x="391.24" y="-14.3" font-family="Helvetica,sans-Serif" font-size="14.00">OutputWorkspace</text>
</g>
<!-- Divide -->
<g id="node10" class="node">
<title>Divide</title>
<path fill="lightskyblue" stroke="black" d="M409.24,-109C409.24,-109 373.24,-109 373.24,-109 367.24,-109 361.24,-103 361.24,-97 361.24,-97 361.24,-85 361.24,-85 361.24,-79 367.24,-73 373.24,-73 373.24,-73 409.24,-73 409.24,-73 415.24,-73 421.24,-79 421.24,-85 421.24,-85 421.24,-97 421.24,-97 421.24,-103 415.24,-109 409.24,-109"/>
<text text-anchor="middle" x="391.24" y="-87.3" font-family="Helvetica,sans-Serif" font-size="14.00">Divide</text>
</g>
<!-- Divide&#45;&gt;OutputWorkspace -->
<g id="edge23" class="edge">
<title>Divide&#45;&gt;OutputWorkspace</title>
<path fill="none" stroke="black" d="M391.24,-72.81C391.24,-65.23 391.24,-56.1 391.24,-47.54"/>
<polygon fill="black" stroke="black" points="394.74,-47.54 391.24,-37.54 387.74,-47.54 394.74,-47.54"/>
</g>
<!-- Integration_Sample -->
<g id="node13" class="node">
<title>Integration_Sample</title>
<path fill="lightskyblue" stroke="black" d="M171.74,-337C171.74,-337 102.74,-337 102.74,-337 96.74,-337 90.74,-331 90.74,-325 90.74,-325 90.74,-313 90.74,-313 90.74,-307 96.74,-301 102.74,-301 102.74,-301 171.74,-301 171.74,-301 177.74,-301 183.74,-307 183.74,-313 183.74,-313 183.74,-325 183.74,-325 183.74,-331 177.74,-337 171.74,-337"/>
<text text-anchor="middle" x="137.24" y="-315.3" font-family="Helvetica,sans-Serif" font-size="14.00">Integration</text>
</g>
<!-- Rebin_Sample&#45;&gt;Integration_Sample -->
<g id="edge9" class="edge">
<title>Rebin_Sample&#45;&gt;Integration_Sample</title>
<path fill="none" stroke="black" d="M139.82,-427.62C139.33,-407.19 138.51,-372.99 137.93,-348.62"/>
<polygon fill="black" stroke="black" points="141.43,-348.66 137.69,-338.75 134.43,-348.83 141.43,-348.66"/>
</g>
<!-- ConvertToPointData_Sample -->
<g id="node14" class="node">
<title>ConvertToPointData_Sample</title>
<path fill="lightskyblue" stroke="black" d="M331.74,-391C331.74,-391 202.74,-391 202.74,-391 196.74,-391 190.74,-385 190.74,-379 190.74,-379 190.74,-367 190.74,-367 190.74,-361 196.74,-355 202.74,-355 202.74,-355 331.74,-355 331.74,-355 337.74,-355 343.74,-361 343.74,-367 343.74,-367 343.74,-379 343.74,-379 343.74,-385 337.74,-391 331.74,-391"/>
<text text-anchor="middle" x="267.24" y="-369.3" font-family="Helvetica,sans-Serif" font-size="14.00">ConvertToPointData</text>
</g>
<!-- Rebin_Sample&#45;&gt;ConvertToPointData_Sample -->
<g id="edge10" class="edge">
<title>Rebin_Sample&#45;&gt;ConvertToPointData_Sample</title>
<path fill="none" stroke="black" d="M168.43,-429.24C185.4,-419.75 207.31,-407.51 226.18,-396.96"/>
<polygon fill="black" stroke="black" points="227.67,-400.13 234.7,-392.2 224.26,-394.02 227.67,-400.13"/>
</g>
<!-- Integration_Resolution -->
<g id="node17" class="node">
<title>Integration_Resolution</title>
<path fill="lightskyblue" stroke="black" d="M499.74,-337C499.74,-337 430.74,-337 430.74,-337 424.74,-337 418.74,-331 418.74,-325 418.74,-325 418.74,-313 418.74,-313 418.74,-307 424.74,-301 430.74,-301 430.74,-301 499.74,-301 499.74,-301 505.74,-301 511.74,-307 511.74,-313 511.74,-313 511.74,-325 511.74,-325 511.74,-331 505.74,-337 499.74,-337"/>
<text text-anchor="middle" x="465.24" y="-315.3" font-family="Helvetica,sans-Serif" font-size="14.00">Integration</text>
</g>
<!-- Rebin_Resolution&#45;&gt;Integration_Resolution -->
<g id="edge16" class="edge">
<title>Rebin_Resolution&#45;&gt;Integration_Resolution</title>
<path fill="none" stroke="black" d="M514.32,-427.62C504.87,-406.91 488.98,-372.05 477.84,-347.63"/>
<polygon fill="black" stroke="black" points="481.06,-346.26 473.73,-338.61 474.69,-349.16 481.06,-346.26"/>
</g>
<!-- ConvertToPointData_Resolution -->
<g id="node18" class="node">
<title>ConvertToPointData_Resolution</title>
<path fill="lightskyblue" stroke="black" d="M707.74,-391C707.74,-391 578.74,-391 578.74,-391 572.74,-391 566.74,-385 566.74,-379 566.74,-379 566.74,-367 566.74,-367 566.74,-361 572.74,-355 578.74,-355 578.74,-355 707.74,-355 707.74,-355 713.74,-355 719.74,-361 719.74,-367 719.74,-367 719.74,-379 719.74,-379 719.74,-385 713.74,-391 707.74,-391"/>
<text text-anchor="middle" x="643.24" y="-369.3" font-family="Helvetica,sans-Serif" font-size="14.00">ConvertToPointData</text>
</g>
<!-- Rebin_Resolution&#45;&gt;ConvertToPointData_Resolution -->
<g id="edge17" class="edge">
<title>Rebin_Resolution&#45;&gt;ConvertToPointData_Resolution</title>
<path fill="none" stroke="black" d="M550.61,-428.35C566.49,-419.03 586.54,-407.27 603.92,-397.08"/>
<polygon fill="black" stroke="black" points="605.63,-400.13 612.48,-392.05 602.09,-394.09 605.63,-400.13"/>
</g>
<!-- Divide_Sample -->
<g id="node16" class="node">
<title>Divide_Sample</title>
<path fill="lightskyblue" stroke="black" d="M346.24,-196C346.24,-196 310.24,-196 310.24,-196 304.24,-196 298.24,-190 298.24,-184 298.24,-184 298.24,-172 298.24,-172 298.24,-166 304.24,-160 310.24,-160 310.24,-160 346.24,-160 346.24,-160 352.24,-160 358.24,-166 358.24,-172 358.24,-172 358.24,-184 358.24,-184 358.24,-190 352.24,-196 346.24,-196"/>
<text text-anchor="middle" x="328.24" y="-174.3" font-family="Helvetica,sans-Serif" font-size="14.00">Divide</text>
</g>
<!-- Integration_Sample&#45;&gt;Divide_Sample -->
<g id="edge13" class="edge">
<title>Integration_Sample&#45;&gt;Divide_Sample</title>
<path fill="none" stroke="black" d="M133.58,-300.71C131.32,-285.1 130.72,-262.3 142.24,-247 176.15,-201.96 242.92,-186.72 286.55,-181.58"/>
<polygon fill="black" stroke="black" points="286.83,-185.07 296.42,-180.57 286.12,-178.11 286.83,-185.07"/>
<text text-anchor="middle" x="195.24" y="-261.3" font-family="Helvetica,sans-Serif" font-size="14.00">RHSWorkspace</text>
</g>
<!-- ExtractFFTSpectrum_Sample -->
<g id="node15" class="node">
<title>ExtractFFTSpectrum_Sample</title>
<path fill="lightskyblue" stroke="black" d="M403.24,-283C403.24,-283 269.24,-283 269.24,-283 263.24,-283 257.24,-277 257.24,-271 257.24,-271 257.24,-259 257.24,-259 257.24,-253 263.24,-247 269.24,-247 269.24,-247 403.24,-247 403.24,-247 409.24,-247 415.24,-253 415.24,-259 415.24,-259 415.24,-271 415.24,-271 415.24,-277 409.24,-283 403.24,-283"/>
<text text-anchor="middle" x="336.24" y="-261.3" font-family="Helvetica,sans-Serif" font-size="14.00">ExtractFFTSpectrum</text>
</g>
<!-- ConvertToPointData_Sample&#45;&gt;ExtractFFTSpectrum_Sample -->
<g id="edge11" class="edge">
<title>ConvertToPointData_Sample&#45;&gt;ExtractFFTSpectrum_Sample</title>
<path fill="none" stroke="black" d="M278.33,-354.97C289.23,-338.22 306.03,-312.41 318.74,-292.89"/>
<polygon fill="black" stroke="black" points="321.61,-294.9 324.13,-284.61 315.74,-291.08 321.61,-294.9"/>
</g>
<!-- ExtractFFTSpectrum_Sample&#45;&gt;Divide_Sample -->
<g id="edge12" class="edge">
<title>ExtractFFTSpectrum_Sample&#45;&gt;Divide_Sample</title>
<path fill="none" stroke="black" d="M334.62,-246.8C333.57,-235.58 332.16,-220.67 330.94,-207.69"/>
<polygon fill="black" stroke="black" points="334.45,-207.6 330.03,-197.97 327.48,-208.26 334.45,-207.6"/>
<text text-anchor="middle" x="384.24" y="-217.8" font-family="Helvetica,sans-Serif" font-size="14.00">LHSWorkspace</text>
</g>
<!-- Divide_Sample&#45;&gt;Divide -->
<g id="edge21" class="edge">
<title>Divide_Sample&#45;&gt;Divide</title>
<path fill="none" stroke="black" d="M324.52,-159.63C323.29,-149.43 323.45,-136.69 329.24,-127 334.3,-118.53 342.23,-111.95 350.74,-106.89"/>
<polygon fill="black" stroke="black" points="352.27,-110.04 359.53,-102.33 349.04,-103.83 352.27,-110.04"/>
<text text-anchor="middle" x="381.24" y="-130.8" font-family="Helvetica,sans-Serif" font-size="14.00">LHSWorkspace</text>
</g>
<!-- Divide_Resolution -->
<g id="node20" class="node">
<title>Divide_Resolution</title>
<path fill="lightskyblue" stroke="black" d="M473.24,-196C473.24,-196 437.24,-196 437.24,-196 431.24,-196 425.24,-190 425.24,-184 425.24,-184 425.24,-172 425.24,-172 425.24,-166 431.24,-160 437.24,-160 437.24,-160 473.24,-160 473.24,-160 479.24,-160 485.24,-166 485.24,-172 485.24,-172 485.24,-184 485.24,-184 485.24,-190 479.24,-196 473.24,-196"/>
<text text-anchor="middle" x="455.24" y="-174.3" font-family="Helvetica,sans-Serif" font-size="14.00">Divide</text>
</g>
<!-- Integration_Resolution&#45;&gt;Divide_Resolution -->
<g id="edge20" class="edge">
<title>Integration_Resolution&#45;&gt;Divide_Resolution</title>
<path fill="none" stroke="black" d="M463.68,-300.56C463.2,-294.95 462.68,-288.72 462.24,-283 460.29,-257.51 458.36,-228.48 457.02,-207.58"/>
<polygon fill="black" stroke="black" points="460.53,-207.57 456.4,-197.82 453.54,-208.02 460.53,-207.57"/>
<text text-anchor="middle" x="515.24" y="-261.3" font-family="Helvetica,sans-Serif" font-size="14.00">RHSWorkspace</text>
</g>
<!-- ExtractFFTSpectrum_Resolution -->
<g id="node19" class="node">
<title>ExtractFFTSpectrum_Resolution</title>
<path fill="lightskyblue" stroke="black" d="M723.24,-283C723.24,-283 589.24,-283 589.24,-283 583.24,-283 577.24,-277 577.24,-271 577.24,-271 577.24,-259 577.24,-259 577.24,-253 583.24,-247 589.24,-247 589.24,-247 723.24,-247 723.24,-247 729.24,-247 735.24,-253 735.24,-259 735.24,-259 735.24,-271 735.24,-271 735.24,-277 729.24,-283 723.24,-283"/>
<text text-anchor="middle" x="656.24" y="-261.3" font-family="Helvetica,sans-Serif" font-size="14.00">ExtractFFTSpectrum</text>
</g>
<!-- ConvertToPointData_Resolution&#45;&gt;ExtractFFTSpectrum_Resolution -->
<g id="edge18" class="edge">
<title>ConvertToPointData_Resolution&#45;&gt;ExtractFFTSpectrum_Resolution</title>
<path fill="none" stroke="black" d="M645.33,-354.97C647.33,-338.69 650.38,-313.82 652.74,-294.52"/>
<polygon fill="black" stroke="black" points="656.19,-295.19 653.93,-284.84 649.24,-294.34 656.19,-295.19"/>
</g>
<!-- ExtractFFTSpectrum_Resolution&#45;&gt;Divide_Resolution -->
<g id="edge19" class="edge">
<title>ExtractFFTSpectrum_Resolution&#45;&gt;Divide_Resolution</title>
<path fill="none" stroke="black" d="M615.08,-246.59C580.21,-231.85 530.5,-210.82 495.8,-196.15"/>
<polygon fill="black" stroke="black" points="497.51,-193.08 486.94,-192.41 494.79,-199.52 497.51,-193.08"/>
<text text-anchor="middle" x="619.24" y="-217.8" font-family="Helvetica,sans-Serif" font-size="14.00">LHSWorkspace</text>
</g>
<!-- Divide_Resolution&#45;&gt;Divide -->
<g id="edge22" class="edge">
<title>Divide_Resolution&#45;&gt;Divide</title>
<path fill="none" stroke="black" d="M449.89,-159.74C446.21,-149.59 440.66,-136.85 433.24,-127 430.56,-123.43 427.44,-120 424.14,-116.76"/>
<polygon fill="black" stroke="black" points="426.61,-114.27 416.84,-110.19 421.93,-119.48 426.61,-114.27"/>
<text text-anchor="middle" x="494.24" y="-130.8" font-family="Helvetica,sans-Serif" font-size="14.00">RHSWorkspace</text>
</g>
</g>
</svg>
