<?xml version="1.0" encoding="UTF-8" standalone="no"?>
<!DOCTYPE svg PUBLIC "-//W3C//DTD SVG 1.1//EN"
 "http://www.w3.org/Graphics/SVG/1.1/DTD/svg11.dtd">
<!-- Generated by graphviz version 2.47.2 (20210527.1257)
 -->
<!-- Title: AccumulateMD Pages: 1 -->
<svg width="677pt" height="662pt"
 viewBox="0.00 0.00 677.00 662.00" xmlns="http://www.w3.org/2000/svg" xmlns:xlink="http://www.w3.org/1999/xlink">
<g id="graph0" class="graph" transform="scale(1 1) rotate(0) translate(4 658)">
<title>AccumulateMD</title>
<polygon fill="white" stroke="transparent" points="-4,4 -4,-658 673,-658 673,4 -4,4"/>
<text text-anchor="middle" x="334.5" y="-638.8" font-family="Helvetica" font-size="14.00">AccumulateMD Flowchart</text>
<!-- DataSources -->
<g id="node1" class="node">
<title>DataSources</title>
<ellipse fill="khaki" stroke="black" cx="437" cy="-613" rx="61.99" ry="18"/>
<text text-anchor="middle" x="437" y="-609.3" font-family="Helvetica" font-size="14.00">DataSources</text>
</g>
<!-- existYet -->
<g id="node8" class="node">
<title>existYet</title>
<polygon fill="limegreen" stroke="black" points="514,-558 359,-520 514,-482 669,-520 514,-558"/>
<text text-anchor="middle" x="514" y="-523.8" font-family="Helvetica" font-size="14.00">Do any of these</text>
<text text-anchor="middle" x="514" y="-508.8" font-family="Helvetica" font-size="14.00">DataSources exist yet?</text>
</g>
<!-- DataSources&#45;&gt;existYet -->
<g id="edge1" class="edge">
<title>DataSources&#45;&gt;existYet</title>
<path fill="none" stroke="black" d="M451.12,-595.31C459.61,-585.28 470.78,-572.08 481.34,-559.59"/>
<polygon fill="black" stroke="black" points="484.03,-561.84 487.82,-551.94 478.69,-557.32 484.03,-561.84"/>
</g>
<!-- OutputWorkspace -->
<g id="node2" class="node">
<title>OutputWorkspace</title>
<ellipse fill="khaki" stroke="black" cx="459" cy="-18" rx="81.49" ry="18"/>
<text text-anchor="middle" x="459" y="-14.3" font-family="Helvetica" font-size="14.00">OutputWorkspace</text>
</g>
<!-- InputWorkspace -->
<g id="node3" class="node">
<title>InputWorkspace</title>
<ellipse fill="khaki" stroke="black" cx="591" cy="-613" rx="74.19" ry="18"/>
<text text-anchor="middle" x="591" y="-609.3" font-family="Helvetica" font-size="14.00">InputWorkspace</text>
</g>
<!-- InputWorkspace&#45;&gt;existYet -->
<g id="edge2" class="edge">
<title>InputWorkspace&#45;&gt;existYet</title>
<path fill="none" stroke="black" d="M576.88,-595.31C568.39,-585.28 557.22,-572.08 546.66,-559.59"/>
<polygon fill="black" stroke="black" points="549.31,-557.32 540.18,-551.94 543.97,-561.84 549.31,-557.32"/>
</g>
<!-- Clean -->
<g id="node4" class="node">
<title>Clean</title>
<ellipse fill="khaki" stroke="black" cx="307" cy="-520" rx="33.6" ry="18"/>
<text text-anchor="middle" x="307" y="-516.3" font-family="Helvetica" font-size="14.00">Clean</text>
</g>
<!-- createClean -->
<g id="node9" class="node">
<title>createClean</title>
<polygon fill="limegreen" stroke="black" points="330,-431 237.33,-413 330,-395 422.67,-413 330,-431"/>
<text text-anchor="middle" x="330" y="-409.3" font-family="Helvetica" font-size="14.00">Is Clean true?</text>
</g>
<!-- Clean&#45;&gt;createClean -->
<g id="edge3" class="edge">
<title>Clean&#45;&gt;createClean</title>
<path fill="none" stroke="black" d="M310.8,-501.66C314.46,-484.95 320.05,-459.45 324.25,-440.25"/>
<polygon fill="black" stroke="black" points="327.7,-440.84 326.42,-430.33 320.86,-439.35 327.7,-440.84"/>
</g>
<!-- createMD1 -->
<g id="node5" class="node">
<title>createMD1</title>
<path fill="lightskyblue" stroke="black" d="M525.5,-250C525.5,-250 452.5,-250 452.5,-250 446.5,-250 440.5,-244 440.5,-238 440.5,-238 440.5,-226 440.5,-226 440.5,-220 446.5,-214 452.5,-214 452.5,-214 525.5,-214 525.5,-214 531.5,-214 537.5,-220 537.5,-226 537.5,-226 537.5,-238 537.5,-238 537.5,-244 531.5,-250 525.5,-250"/>
<text text-anchor="middle" x="489" y="-228.3" font-family="Helvetica" font-size="14.00">CreateMD v1</text>
</g>
<!-- createMD1&#45;&gt;OutputWorkspace -->
<g id="edge8" class="edge">
<title>createMD1&#45;&gt;OutputWorkspace</title>
<path fill="none" stroke="black" d="M488.86,-213.99C488.49,-193.32 487.23,-157.45 483,-127 479.11,-99.04 471.78,-67.59 466.24,-45.88"/>
<polygon fill="black" stroke="black" points="469.59,-44.85 463.68,-36.05 462.81,-46.61 469.59,-44.85"/>
</g>
<!-- createMD2 -->
<g id="node6" class="node">
<title>createMD2</title>
<path fill="lightskyblue" stroke="black" d="M241.5,-196C241.5,-196 168.5,-196 168.5,-196 162.5,-196 156.5,-190 156.5,-184 156.5,-184 156.5,-172 156.5,-172 156.5,-166 162.5,-160 168.5,-160 168.5,-160 241.5,-160 241.5,-160 247.5,-160 253.5,-166 253.5,-172 253.5,-172 253.5,-184 253.5,-184 253.5,-190 247.5,-196 241.5,-196"/>
<text text-anchor="middle" x="205" y="-174.3" font-family="Helvetica" font-size="14.00">CreateMD v1</text>
</g>
<!-- mergeMD -->
<g id="node7" class="node">
<title>mergeMD</title>
<path fill="lightskyblue" stroke="black" d="M344.5,-109C344.5,-109 273.5,-109 273.5,-109 267.5,-109 261.5,-103 261.5,-97 261.5,-97 261.5,-85 261.5,-85 261.5,-79 267.5,-73 273.5,-73 273.5,-73 344.5,-73 344.5,-73 350.5,-73 356.5,-79 356.5,-85 356.5,-85 356.5,-97 356.5,-97 356.5,-103 350.5,-109 344.5,-109"/>
<text text-anchor="middle" x="309" y="-87.3" font-family="Helvetica" font-size="14.00">MergeMD v1</text>
</g>
<!-- createMD2&#45;&gt;mergeMD -->
<g id="edge11" class="edge">
<title>createMD2&#45;&gt;mergeMD</title>
<path fill="none" stroke="black" d="M196.35,-159.75C192.47,-149.35 190.13,-136.35 197,-127 209.7,-109.72 230.9,-100.73 251.45,-96.14"/>
<polygon fill="black" stroke="black" points="252.29,-99.55 261.45,-94.22 250.97,-92.67 252.29,-99.55"/>
<text text-anchor="middle" x="340" y="-130.8" font-family="Helvetica" font-size="14.00">Merge created workspace with InputWorkspace</text>
</g>
<!-- mergeMD&#45;&gt;OutputWorkspace -->
<g id="edge12" class="edge">
<title>mergeMD&#45;&gt;OutputWorkspace</title>
<path fill="none" stroke="black" d="M344.93,-72.99C366.64,-62.72 394.41,-49.57 417.11,-38.83"/>
<polygon fill="black" stroke="black" points="418.64,-41.98 426.18,-34.53 415.65,-35.65 418.64,-41.98"/>
</g>
<!-- existYet&#45;&gt;createClean -->
<g id="edge4" class="edge">
<title>existYet&#45;&gt;createClean</title>
<path fill="none" stroke="black" d="M468.52,-493.04C435.29,-474.08 391.08,-448.86 361.64,-432.05"/>
<polygon fill="black" stroke="black" points="363.05,-428.83 352.63,-426.91 359.58,-434.91 363.05,-428.83"/>
<text text-anchor="middle" x="428.5" y="-452.8" font-family="Helvetica" font-size="14.00">Yes</text>
</g>
<!-- done1 -->
<g id="node11" class="node">
<title>done1</title>
<polygon fill="grey" stroke="black" points="564.51,-431 484.16,-431 463.49,-395 543.84,-395 564.51,-431"/>
<text text-anchor="middle" x="514" y="-409.3" font-family="Times-Roman" font-size="14.00">Done</text>
</g>
<!-- existYet&#45;&gt;done1 -->
<g id="edge5" class="edge">
<title>existYet&#45;&gt;done1</title>
<path fill="none" stroke="black" d="M514,-481.98C514,-468.56 514,-453.65 514,-441.22"/>
<polygon fill="black" stroke="black" points="517.5,-441.04 514,-431.04 510.5,-441.04 517.5,-441.04"/>
<text text-anchor="middle" x="523" y="-452.8" font-family="Helvetica" font-size="14.00">No</text>
</g>
<!-- createClean&#45;&gt;createMD1 -->
<g id="edge7" class="edge">
<title>createClean&#45;&gt;createMD1</title>
<path fill="none" stroke="black" d="M351.13,-398.99C370.33,-386.48 398.67,-366.25 419,-344 442.78,-317.99 463.38,-282.88 475.96,-259.17"/>
<polygon fill="black" stroke="black" points="479.18,-260.56 480.69,-250.07 472.97,-257.33 479.18,-260.56"/>
<text text-anchor="middle" x="412.5" y="-365.8" font-family="Helvetica" font-size="14.00">Yes</text>
</g>
<!-- newData -->
<g id="node10" class="node">
<title>newData</title>
<polygon fill="limegreen" stroke="black" points="205,-344 0,-306 205,-268 410,-306 205,-344"/>
<text text-anchor="middle" x="205" y="-309.8" font-family="Helvetica" font-size="14.00">Are any of the DataSources not</text>
<text text-anchor="middle" x="205" y="-294.8" font-family="Helvetica" font-size="14.00">already in InputWorkspace?</text>
</g>
<!-- createClean&#45;&gt;newData -->
<g id="edge6" class="edge">
<title>createClean&#45;&gt;newData</title>
<path fill="none" stroke="black" d="M313.4,-398.06C297,-384.28 271.22,-362.62 248.9,-343.88"/>
<polygon fill="black" stroke="black" points="251.09,-341.14 241.18,-337.39 246.58,-346.5 251.09,-341.14"/>
<text text-anchor="middle" x="295" y="-365.8" font-family="Helvetica" font-size="14.00">No</text>
</g>
<!-- newData&#45;&gt;createMD2 -->
<g id="edge10" class="edge">
<title>newData&#45;&gt;createMD2</title>
<path fill="none" stroke="black" d="M205,-267.88C205,-248.19 205,-224.42 205,-206.41"/>
<polygon fill="black" stroke="black" points="208.5,-206.3 205,-196.3 201.5,-206.3 208.5,-206.3"/>
<text text-anchor="middle" x="277" y="-235.8" font-family="Helvetica" font-size="14.00">Yes &#45; Create workspace</text>
<text text-anchor="middle" x="277" y="-220.8" font-family="Helvetica" font-size="14.00">with new data sources</text>
</g>
<!-- done2 -->
<g id="node12" class="node">
<title>done2</title>
<polygon fill="grey" stroke="black" points="138.51,-196 58.16,-196 37.49,-160 117.84,-160 138.51,-196"/>
<text text-anchor="middle" x="88" y="-174.3" font-family="Times-Roman" font-size="14.00">Done</text>
</g>
<!-- newData&#45;&gt;done2 -->
<g id="edge9" class="edge">
<title>newData&#45;&gt;done2</title>
<path fill="none" stroke="black" d="M175.48,-273.2C155.4,-251.58 129.22,-223.39 110.75,-203.5"/>
<polygon fill="black" stroke="black" points="113.21,-201 103.84,-196.06 108.08,-205.77 113.21,-201"/>
<text text-anchor="middle" x="163" y="-228.3" font-family="Helvetica" font-size="14.00">No</text>
</g>
</g>
</svg>
