<?xml version="1.0" encoding="UTF-8" standalone="no"?>
<!DOCTYPE svg PUBLIC "-//W3C//DTD SVG 1.1//EN"
 "http://www.w3.org/Graphics/SVG/1.1/DTD/svg11.dtd">
<!-- Generated by graphviz version 3.0.0 (20220315.2325)
 -->
<!-- Title: AccumulateMD Pages: 1 -->
<svg width="768pt" height="662pt"
 viewBox="0.00 0.00 768.00 662.00" xmlns="http://www.w3.org/2000/svg" xmlns:xlink="http://www.w3.org/1999/xlink">
<g id="graph0" class="graph" transform="scale(1 1) rotate(0) translate(4 658)">
<title>AccumulateMD</title>
<polygon fill="white" stroke="transparent" points="-4,4 -4,-658 764,-658 764,4 -4,4"/>
<text text-anchor="middle" x="380" y="-638.8" font-family="Helvetica,sans-Serif" font-size="14.00">AccumulateMD Flowchart</text>
<!-- DataSources -->
<g id="node1" class="node">
<title>DataSources</title>
<ellipse fill="khaki" stroke="black" cx="500" cy="-613" rx="67.69" ry="18"/>
<text text-anchor="middle" x="500" y="-609.3" font-family="Helvetica,sans-Serif" font-size="14.00">DataSources</text>
</g>
<!-- existYet -->
<g id="node8" class="node">
<title>existYet</title>
<polygon fill="limegreen" stroke="black" points="585,-558 410,-520 585,-482 760,-520 585,-558"/>
<text text-anchor="middle" x="585" y="-523.8" font-family="Helvetica,sans-Serif" font-size="14.00">Do any of these</text>
<text text-anchor="middle" x="585" y="-508.8" font-family="Helvetica,sans-Serif" font-size="14.00">DataSources exist yet?</text>
</g>
<!-- DataSources&#45;&gt;existYet -->
<g id="edge1" class="edge">
<title>DataSources&#45;&gt;existYet</title>
<path fill="none" stroke="black" d="M515.59,-595.31C524.96,-585.28 537.29,-572.08 548.95,-559.59"/>
<polygon fill="black" stroke="black" points="551.83,-561.64 556.1,-551.94 546.71,-556.86 551.83,-561.64"/>
</g>
<!-- OutputWorkspace -->
<g id="node2" class="node">
<title>OutputWorkspace</title>
<ellipse fill="khaki" stroke="black" cx="528" cy="-18" rx="92.08" ry="18"/>
<text text-anchor="middle" x="528" y="-14.3" font-family="Helvetica,sans-Serif" font-size="14.00">OutputWorkspace</text>
</g>
<!-- InputWorkspace -->
<g id="node3" class="node">
<title>InputWorkspace</title>
<ellipse fill="khaki" stroke="black" cx="670" cy="-613" rx="84.49" ry="18"/>
<text text-anchor="middle" x="670" y="-609.3" font-family="Helvetica,sans-Serif" font-size="14.00">InputWorkspace</text>
</g>
<!-- InputWorkspace&#45;&gt;existYet -->
<g id="edge2" class="edge">
<title>InputWorkspace&#45;&gt;existYet</title>
<path fill="none" stroke="black" d="M654.01,-594.88C644.69,-584.91 632.54,-571.9 621.04,-559.58"/>
<polygon fill="black" stroke="black" points="623.37,-556.96 613.99,-552.04 618.26,-561.73 623.37,-556.96"/>
</g>
<!-- Clean -->
<g id="node4" class="node">
<title>Clean</title>
<ellipse fill="khaki" stroke="black" cx="356" cy="-520" rx="36.29" ry="18"/>
<text text-anchor="middle" x="356" y="-516.3" font-family="Helvetica,sans-Serif" font-size="14.00">Clean</text>
</g>
<!-- createClean -->
<g id="node9" class="node">
<title>createClean</title>
<polygon fill="limegreen" stroke="black" points="385,-431 281.27,-413 385,-395 488.73,-413 385,-431"/>
<text text-anchor="middle" x="385" y="-409.3" font-family="Helvetica,sans-Serif" font-size="14.00">Is Clean true?</text>
</g>
<!-- Clean&#45;&gt;createClean -->
<g id="edge3" class="edge">
<title>Clean&#45;&gt;createClean</title>
<path fill="none" stroke="black" d="M360.66,-502.13C365.27,-485.42 372.41,-459.6 377.76,-440.22"/>
<polygon fill="black" stroke="black" points="381.16,-441.05 380.45,-430.48 374.41,-439.19 381.16,-441.05"/>
</g>
<!-- createMD1 -->
<g id="node5" class="node">
<title>createMD1</title>
<path fill="lightskyblue" stroke="black" d="M588,-250C588,-250 506,-250 506,-250 500,-250 494,-244 494,-238 494,-238 494,-226 494,-226 494,-220 500,-214 506,-214 506,-214 588,-214 588,-214 594,-214 600,-220 600,-226 600,-226 600,-238 600,-238 600,-244 594,-250 588,-250"/>
<text text-anchor="middle" x="547" y="-228.3" font-family="Helvetica,sans-Serif" font-size="14.00">CreateMD v1</text>
</g>
<!-- createMD1&#45;&gt;OutputWorkspace -->
<g id="edge8" class="edge">
<title>createMD1&#45;&gt;OutputWorkspace</title>
<path fill="none" stroke="black" d="M548.74,-213.96C550.47,-196.07 553.01,-167.09 554,-142 554.26,-135.34 554.79,-133.62 554,-127 550.66,-98.86 542.59,-67.44 536.32,-45.77"/>
<polygon fill="black" stroke="black" points="539.61,-44.57 533.41,-35.98 532.9,-46.56 539.61,-44.57"/>
</g>
<!-- createMD2 -->
<g id="node6" class="node">
<title>createMD2</title>
<path fill="lightskyblue" stroke="black" d="M274,-196C274,-196 192,-196 192,-196 186,-196 180,-190 180,-184 180,-184 180,-172 180,-172 180,-166 186,-160 192,-160 192,-160 274,-160 274,-160 280,-160 286,-166 286,-172 286,-172 286,-184 286,-184 286,-190 280,-196 274,-196"/>
<text text-anchor="middle" x="233" y="-174.3" font-family="Helvetica,sans-Serif" font-size="14.00">CreateMD v1</text>
</g>
<!-- mergeMD -->
<g id="node7" class="node">
<title>mergeMD</title>
<path fill="lightskyblue" stroke="black" d="M395,-109C395,-109 315,-109 315,-109 309,-109 303,-103 303,-97 303,-97 303,-85 303,-85 303,-79 309,-73 315,-73 315,-73 395,-73 395,-73 401,-73 407,-79 407,-85 407,-85 407,-97 407,-97 407,-103 401,-109 395,-109"/>
<text text-anchor="middle" x="355" y="-87.3" font-family="Helvetica,sans-Serif" font-size="14.00">MergeMD v1</text>
</g>
<!-- createMD2&#45;&gt;mergeMD -->
<g id="edge11" class="edge">
<title>createMD2&#45;&gt;mergeMD</title>
<path fill="none" stroke="black" d="M223.22,-159.69C218.76,-149.27 215.87,-136.26 223,-127 231.93,-115.39 262.98,-106.84 292.72,-101.09"/>
<polygon fill="black" stroke="black" points="293.52,-104.5 302.72,-99.25 292.25,-97.62 293.52,-104.5"/>
<text text-anchor="middle" x="388.5" y="-130.8" font-family="Helvetica,sans-Serif" font-size="14.00">Merge created workspace with InputWorkspace</text>
</g>
<!-- mergeMD&#45;&gt;OutputWorkspace -->
<g id="edge12" class="edge">
<title>mergeMD&#45;&gt;OutputWorkspace</title>
<path fill="none" stroke="black" d="M396.44,-72.99C421.81,-62.58 454.36,-49.22 480.74,-38.4"/>
<polygon fill="black" stroke="black" points="482.23,-41.57 490.15,-34.53 479.57,-35.09 482.23,-41.57"/>
</g>
<!-- existYet&#45;&gt;createClean -->
<g id="edge4" class="edge">
<title>existYet&#45;&gt;createClean</title>
<path fill="none" stroke="black" d="M535.05,-492.77C498.61,-473.65 450.23,-448.25 418.39,-431.53"/>
<polygon fill="black" stroke="black" points="419.95,-428.39 409.47,-426.84 416.69,-434.59 419.95,-428.39"/>
<text text-anchor="middle" x="491.5" y="-452.8" font-family="Helvetica,sans-Serif" font-size="14.00">Yes</text>
</g>
<!-- done1 -->
<g id="node11" class="node">
<title>done1</title>
<polygon fill="grey" stroke="black" points="635.51,-431 555.16,-431 534.49,-395 614.84,-395 635.51,-431"/>
<text text-anchor="middle" x="585" y="-409.3" font-family="Times,serif" font-size="14.00">Done</text>
</g>
<!-- existYet&#45;&gt;done1 -->
<g id="edge5" class="edge">
<title>existYet&#45;&gt;done1</title>
<path fill="none" stroke="black" d="M585,-481.98C585,-468.56 585,-453.65 585,-441.22"/>
<polygon fill="black" stroke="black" points="588.5,-441.04 585,-431.04 581.5,-441.04 588.5,-441.04"/>
<text text-anchor="middle" x="594.5" y="-452.8" font-family="Helvetica,sans-Serif" font-size="14.00">No</text>
</g>
<!-- createClean&#45;&gt;createMD1 -->
<g id="edge7" class="edge">
<title>createClean&#45;&gt;createMD1</title>
<path fill="none" stroke="black" d="M406.69,-398.73C426.06,-386.2 454.45,-366.08 475,-344 499.21,-317.99 520.45,-282.89 533.47,-259.17"/>
<polygon fill="black" stroke="black" points="536.71,-260.54 538.37,-250.08 530.55,-257.22 536.71,-260.54"/>
<text text-anchor="middle" x="467.5" y="-365.8" font-family="Helvetica,sans-Serif" font-size="14.00">Yes</text>
</g>
<!-- newData -->
<g id="node10" class="node">
<title>newData</title>
<polygon fill="limegreen" stroke="black" points="233,-344 0,-306 233,-268 466,-306 233,-344"/>
<text text-anchor="middle" x="233" y="-309.8" font-family="Helvetica,sans-Serif" font-size="14.00">Are any of the DataSources not</text>
<text text-anchor="middle" x="233" y="-294.8" font-family="Helvetica,sans-Serif" font-size="14.00">already in InputWorkspace?</text>
</g>
<!-- createClean&#45;&gt;newData -->
<g id="edge6" class="edge">
<title>createClean&#45;&gt;newData</title>
<path fill="none" stroke="black" d="M365.13,-398.27C344.85,-384.27 312.54,-361.95 284.95,-342.88"/>
<polygon fill="black" stroke="black" points="286.77,-339.89 276.55,-337.08 282.79,-345.65 286.77,-339.89"/>
<text text-anchor="middle" x="341.5" y="-365.8" font-family="Helvetica,sans-Serif" font-size="14.00">No</text>
</g>
<!-- newData&#45;&gt;createMD2 -->
<g id="edge10" class="edge">
<title>newData&#45;&gt;createMD2</title>
<path fill="none" stroke="black" d="M233,-267.88C233,-248.19 233,-224.42 233,-206.41"/>
<polygon fill="black" stroke="black" points="236.5,-206.3 233,-196.3 229.5,-206.3 236.5,-206.3"/>
<text text-anchor="middle" x="313.5" y="-235.8" font-family="Helvetica,sans-Serif" font-size="14.00">Yes &#45; Create workspace</text>
<text text-anchor="middle" x="313.5" y="-220.8" font-family="Helvetica,sans-Serif" font-size="14.00">with new data sources</text>
</g>
<!-- done2 -->
<g id="node12" class="node">
<title>done2</title>
<polygon fill="grey" stroke="black" points="161.51,-196 81.16,-196 60.49,-160 140.84,-160 161.51,-196"/>
<text text-anchor="middle" x="111" y="-174.3" font-family="Times,serif" font-size="14.00">Done</text>
</g>
<!-- newData&#45;&gt;done2 -->
<g id="edge9" class="edge">
<title>newData&#45;&gt;done2</title>
<path fill="none" stroke="black" d="M201.9,-272.88C181.08,-251.38 154.1,-223.51 134.95,-203.73"/>
<polygon fill="black" stroke="black" points="137.24,-201.07 127.77,-196.32 132.21,-205.94 137.24,-201.07"/>
<text text-anchor="middle" x="189.5" y="-228.3" font-family="Helvetica,sans-Serif" font-size="14.00">No</text>
</g>
</g>
</svg>
