<?xml version="1.0" encoding="UTF-8" standalone="no"?>
<!DOCTYPE svg PUBLIC "-//W3C//DTD SVG 1.1//EN"
 "http://www.w3.org/Graphics/SVG/1.1/DTD/svg11.dtd">
<!-- Generated by graphviz version 2.47.2 (20210527.1257)
 -->
<!-- Title: AlignAndFocusPowder Pages: 1 -->
<svg width="994pt" height="3099pt"
 viewBox="0.00 0.00 993.52 3099.00" xmlns="http://www.w3.org/2000/svg" xmlns:xlink="http://www.w3.org/1999/xlink">
<g id="graph0" class="graph" transform="scale(1 1) rotate(0) translate(4 3095)">
<title>AlignAndFocusPowder</title>
<polygon fill="white" stroke="transparent" points="-4,4 -4,-3095 989.52,-3095 989.52,4 -4,4"/>
<text text-anchor="middle" x="492.76" y="-3075.8" font-family="Helvetica" font-size="14.00">AlignAndFocusPowder Flowchart</text>
<!-- InputWorkspace -->
<g id="node1" class="node">
<title>InputWorkspace</title>
<ellipse fill="khaki" stroke="black" cx="856.84" cy="-3050" rx="74.19" ry="18"/>
<text text-anchor="middle" x="856.84" y="-3046.3" font-family="Helvetica" font-size="14.00">InputWorkspace</text>
</g>
<!-- isEventWorkspace1 -->
<g id="node42" class="node">
<title>isEventWorkspace1</title>
<polygon fill="limegreen" stroke="black" points="856.84,-2995 727.98,-2977 856.84,-2959 985.71,-2977 856.84,-2995"/>
<text text-anchor="middle" x="856.84" y="-2973.3" font-family="Helvetica" font-size="14.00">Is event workspace?</text>
</g>
<!-- InputWorkspace&#45;&gt;isEventWorkspace1 -->
<g id="edge1" class="edge">
<title>InputWorkspace&#45;&gt;isEventWorkspace1</title>
<path fill="none" stroke="black" d="M856.84,-3031.81C856.84,-3023.79 856.84,-3014.05 856.84,-3005.07"/>
<polygon fill="black" stroke="black" points="860.34,-3005.03 856.84,-2995.03 853.34,-3005.03 860.34,-3005.03"/>
</g>
<!-- OutputWorkspace -->
<g id="node2" class="node">
<title>OutputWorkspace</title>
<ellipse fill="khaki" stroke="black" cx="221.84" cy="-18" rx="81.49" ry="18"/>
<text text-anchor="middle" x="221.84" y="-14.3" font-family="Helvetica" font-size="14.00">OutputWorkspace</text>
</g>
<!-- RemovePromptPulseWidth -->
<g id="node3" class="node">
<title>RemovePromptPulseWidth</title>
<ellipse fill="khaki" stroke="black" cx="570.84" cy="-2729" rx="117.78" ry="18"/>
<text text-anchor="middle" x="570.84" y="-2725.3" font-family="Helvetica" font-size="14.00">RemovePromptPulseWidth</text>
</g>
<!-- removePromptPulse -->
<g id="node38" class="node">
<title>removePromptPulse</title>
<path fill="lightskyblue" stroke="black" d="M697.84,-2673C697.84,-2673 557.84,-2673 557.84,-2673 551.84,-2673 545.84,-2667 545.84,-2661 545.84,-2661 545.84,-2649 545.84,-2649 545.84,-2643 551.84,-2637 557.84,-2637 557.84,-2637 697.84,-2637 697.84,-2637 703.84,-2637 709.84,-2643 709.84,-2649 709.84,-2649 709.84,-2661 709.84,-2661 709.84,-2667 703.84,-2673 697.84,-2673"/>
<text text-anchor="middle" x="627.84" y="-2651.3" font-family="Helvetica" font-size="14.00">RemovePromptPulse v1</text>
</g>
<!-- RemovePromptPulseWidth&#45;&gt;removePromptPulse -->
<g id="edge11" class="edge">
<title>RemovePromptPulseWidth&#45;&gt;removePromptPulse</title>
<path fill="none" stroke="black" d="M584.35,-2710.94C591.35,-2702.1 600.03,-2691.14 607.79,-2681.33"/>
<polygon fill="black" stroke="black" points="610.57,-2683.45 614.03,-2673.44 605.08,-2679.11 610.57,-2683.45"/>
</g>
<!-- CompressTolerance -->
<g id="node4" class="node">
<title>CompressTolerance</title>
<ellipse fill="khaki" stroke="black" cx="496.84" cy="-2890" rx="89.08" ry="18"/>
<text text-anchor="middle" x="496.84" y="-2886.3" font-family="Helvetica" font-size="14.00">CompressTolerance</text>
</g>
<!-- compressEvents -->
<g id="node16" class="node">
<title>compressEvents</title>
<path fill="lightskyblue" stroke="black" d="M758.84,-2821C758.84,-2821 644.84,-2821 644.84,-2821 638.84,-2821 632.84,-2815 632.84,-2809 632.84,-2809 632.84,-2797 632.84,-2797 632.84,-2791 638.84,-2785 644.84,-2785 644.84,-2785 758.84,-2785 758.84,-2785 764.84,-2785 770.84,-2791 770.84,-2797 770.84,-2797 770.84,-2809 770.84,-2809 770.84,-2815 764.84,-2821 758.84,-2821"/>
<text text-anchor="middle" x="701.84" y="-2799.3" font-family="Helvetica" font-size="14.00">CompressEvents v1</text>
</g>
<!-- CompressTolerance&#45;&gt;compressEvents -->
<g id="edge5" class="edge">
<title>CompressTolerance&#45;&gt;compressEvents</title>
<path fill="none" stroke="black" d="M533.97,-2873.61C566.8,-2859.99 614.99,-2840.01 651.33,-2824.94"/>
<polygon fill="black" stroke="black" points="652.87,-2828.09 660.77,-2821.03 650.19,-2821.63 652.87,-2828.09"/>
</g>
<!-- CropWaveLengthMin -->
<g id="node5" class="node">
<title>CropWaveLengthMin</title>
<ellipse fill="khaki" stroke="black" cx="520.84" cy="-2803" rx="93.68" ry="18"/>
<text text-anchor="middle" x="520.84" y="-2799.3" font-family="Helvetica" font-size="14.00">CropWaveLengthMin</text>
</g>
<!-- cropWorkspaceTof -->
<g id="node25" class="node">
<title>cropWorkspaceTof</title>
<path fill="lightskyblue" stroke="black" d="M825.34,-2748C825.34,-2748 718.34,-2748 718.34,-2748 712.34,-2748 706.34,-2742 706.34,-2736 706.34,-2736 706.34,-2722 706.34,-2722 706.34,-2716 712.34,-2710 718.34,-2710 718.34,-2710 825.34,-2710 825.34,-2710 831.34,-2710 837.34,-2716 837.34,-2722 837.34,-2722 837.34,-2736 837.34,-2736 837.34,-2742 831.34,-2748 825.34,-2748"/>
<text text-anchor="middle" x="771.84" y="-2732.8" font-family="Helvetica" font-size="14.00">CropWorkspace v1</text>
<text text-anchor="middle" x="771.84" y="-2717.8" font-family="Helvetica" font-size="14.00">tof range</text>
</g>
<!-- CropWaveLengthMin&#45;&gt;cropWorkspaceTof -->
<g id="edge9" class="edge">
<title>CropWaveLengthMin&#45;&gt;cropWorkspaceTof</title>
<path fill="none" stroke="black" d="M570.73,-2787.69C607.39,-2777.17 657.78,-2762.72 698.95,-2750.91"/>
<polygon fill="black" stroke="black" points="700.01,-2754.25 708.66,-2748.12 698.08,-2747.52 700.01,-2754.25"/>
</g>
<!-- MaskWorkspace -->
<g id="node6" class="node">
<title>MaskWorkspace</title>
<ellipse fill="khaki" stroke="black" cx="336.84" cy="-2582" rx="76.09" ry="18"/>
<text text-anchor="middle" x="336.84" y="-2578.3" font-family="Helvetica" font-size="14.00">MaskWorkspace</text>
</g>
<!-- maskDetectors -->
<g id="node32" class="node">
<title>maskDetectors</title>
<path fill="lightskyblue" stroke="black" d="M399.34,-2527C399.34,-2527 298.34,-2527 298.34,-2527 292.34,-2527 286.34,-2521 286.34,-2515 286.34,-2515 286.34,-2503 286.34,-2503 286.34,-2497 292.34,-2491 298.34,-2491 298.34,-2491 399.34,-2491 399.34,-2491 405.34,-2491 411.34,-2497 411.34,-2503 411.34,-2503 411.34,-2515 411.34,-2515 411.34,-2521 405.34,-2527 399.34,-2527"/>
<text text-anchor="middle" x="348.84" y="-2505.3" font-family="Helvetica" font-size="14.00">MaskDetectors v1</text>
</g>
<!-- MaskWorkspace&#45;&gt;maskDetectors -->
<g id="edge15" class="edge">
<title>MaskWorkspace&#45;&gt;maskDetectors</title>
<path fill="none" stroke="black" d="M339.75,-2563.81C341.1,-2555.79 342.75,-2546.05 344.27,-2537.07"/>
<polygon fill="black" stroke="black" points="347.75,-2537.47 345.96,-2527.03 340.85,-2536.31 347.75,-2537.47"/>
</g>
<!-- MaskBinTable -->
<g id="node7" class="node">
<title>MaskBinTable</title>
<ellipse fill="khaki" stroke="black" cx="461.84" cy="-2655" rx="65.79" ry="18"/>
<text text-anchor="middle" x="461.84" y="-2651.3" font-family="Helvetica" font-size="14.00">MaskBinTable</text>
</g>
<!-- maskBinsTable -->
<g id="node31" class="node">
<title>maskBinsTable</title>
<path fill="lightskyblue" stroke="black" d="M576.84,-2600C576.84,-2600 442.84,-2600 442.84,-2600 436.84,-2600 430.84,-2594 430.84,-2588 430.84,-2588 430.84,-2576 430.84,-2576 430.84,-2570 436.84,-2564 442.84,-2564 442.84,-2564 576.84,-2564 576.84,-2564 582.84,-2564 588.84,-2570 588.84,-2576 588.84,-2576 588.84,-2588 588.84,-2588 588.84,-2594 582.84,-2600 576.84,-2600"/>
<text text-anchor="middle" x="509.84" y="-2578.3" font-family="Helvetica" font-size="14.00">MaskBinsFromTable v1</text>
</g>
<!-- MaskBinTable&#45;&gt;maskBinsTable -->
<g id="edge13" class="edge">
<title>MaskBinTable&#45;&gt;maskBinsTable</title>
<path fill="none" stroke="black" d="M473.22,-2637.17C478.99,-2628.63 486.13,-2618.08 492.56,-2608.56"/>
<polygon fill="black" stroke="black" points="495.51,-2610.44 498.21,-2600.2 489.71,-2606.52 495.51,-2610.44"/>
</g>
<!-- CalibrationWorkspace -->
<g id="node8" class="node">
<title>CalibrationWorkspace</title>
<ellipse fill="khaki" stroke="black" cx="96.84" cy="-2276" rx="96.68" ry="18"/>
<text text-anchor="middle" x="96.84" y="-2272.3" font-family="Helvetica" font-size="14.00">CalibrationWorkspace</text>
</g>
<!-- applyDiffCal -->
<g id="node14" class="node">
<title>applyDiffCal</title>
<path fill="lightskyblue" stroke="black" d="M267.34,-2207C267.34,-2207 182.34,-2207 182.34,-2207 176.34,-2207 170.34,-2201 170.34,-2195 170.34,-2195 170.34,-2183 170.34,-2183 170.34,-2177 176.34,-2171 182.34,-2171 182.34,-2171 267.34,-2171 267.34,-2171 273.34,-2171 279.34,-2177 279.34,-2183 279.34,-2183 279.34,-2195 279.34,-2195 279.34,-2201 273.34,-2207 267.34,-2207"/>
<text text-anchor="middle" x="224.84" y="-2185.3" font-family="Helvetica" font-size="14.00">ApplyDiffCal v1</text>
</g>
<!-- CalibrationWorkspace&#45;&gt;applyDiffCal -->
<g id="edge23" class="edge">
<title>CalibrationWorkspace&#45;&gt;applyDiffCal</title>
<path fill="none" stroke="black" d="M121.82,-2258.41C141.39,-2245.42 168.83,-2227.2 190.47,-2212.83"/>
<polygon fill="black" stroke="black" points="192.65,-2215.58 199.04,-2207.13 188.78,-2209.75 192.65,-2215.58"/>
</g>
<!-- GroupingWorkspace -->
<g id="node9" class="node">
<title>GroupingWorkspace</title>
<ellipse fill="khaki" stroke="black" cx="121.84" cy="-994" rx="90.98" ry="18"/>
<text text-anchor="middle" x="121.84" y="-990.3" font-family="Helvetica" font-size="14.00">GroupingWorkspace</text>
</g>
<!-- diffFocus -->
<g id="node27" class="node">
<title>diffFocus</title>
<path fill="lightskyblue" stroke="black" d="M315.34,-939C315.34,-939 182.34,-939 182.34,-939 176.34,-939 170.34,-933 170.34,-927 170.34,-927 170.34,-915 170.34,-915 170.34,-909 176.34,-903 182.34,-903 182.34,-903 315.34,-903 315.34,-903 321.34,-903 327.34,-909 327.34,-915 327.34,-915 327.34,-927 327.34,-927 327.34,-933 321.34,-939 315.34,-939"/>
<text text-anchor="middle" x="248.84" y="-917.3" font-family="Helvetica" font-size="14.00">DiffractionFocussing v2</text>
</g>
<!-- GroupingWorkspace&#45;&gt;diffFocus -->
<g id="edge47" class="edge">
<title>GroupingWorkspace&#45;&gt;diffFocus</title>
<path fill="none" stroke="black" d="M150.66,-976.89C168.1,-967.14 190.57,-954.58 209.61,-943.93"/>
<polygon fill="black" stroke="black" points="211.35,-946.97 218.37,-939.04 207.93,-940.86 211.35,-946.97"/>
</g>
<!-- UnwrapRef -->
<g id="node10" class="node">
<title>UnwrapRef</title>
<ellipse fill="khaki" stroke="black" cx="477.84" cy="-1413" rx="54.69" ry="18"/>
<text text-anchor="middle" x="477.84" y="-1409.3" font-family="Helvetica" font-size="14.00">UnwrapRef</text>
</g>
<!-- unwrapSNS -->
<g id="node41" class="node">
<title>unwrapSNS</title>
<path fill="lightskyblue" stroke="black" d="M391.34,-1357C391.34,-1357 306.34,-1357 306.34,-1357 300.34,-1357 294.34,-1351 294.34,-1345 294.34,-1345 294.34,-1333 294.34,-1333 294.34,-1327 300.34,-1321 306.34,-1321 306.34,-1321 391.34,-1321 391.34,-1321 397.34,-1321 403.34,-1327 403.34,-1333 403.34,-1333 403.34,-1345 403.34,-1345 403.34,-1351 397.34,-1357 391.34,-1357"/>
<text text-anchor="middle" x="348.84" y="-1335.3" font-family="Helvetica" font-size="14.00">UnwrapSNS v1</text>
</g>
<!-- UnwrapRef&#45;&gt;unwrapSNS -->
<g id="edge38" class="edge">
<title>UnwrapRef&#45;&gt;unwrapSNS</title>
<path fill="none" stroke="black" d="M451.11,-1397.08C432.98,-1386.96 408.71,-1373.41 388.36,-1362.06"/>
<polygon fill="black" stroke="black" points="390.05,-1358.99 379.61,-1357.18 386.64,-1365.11 390.05,-1358.99"/>
</g>
<!-- LowResRef -->
<g id="node11" class="node">
<title>LowResRef</title>
<ellipse fill="khaki" stroke="black" cx="476.84" cy="-1339" rx="55.79" ry="18"/>
<text text-anchor="middle" x="476.84" y="-1335.3" font-family="Helvetica" font-size="14.00">LowResRef</text>
</g>
<!-- removeLowResTOF -->
<g id="node37" class="node">
<title>removeLowResTOF</title>
<path fill="lightskyblue" stroke="black" d="M417.84,-1247C417.84,-1247 279.84,-1247 279.84,-1247 273.84,-1247 267.84,-1241 267.84,-1235 267.84,-1235 267.84,-1223 267.84,-1223 267.84,-1217 273.84,-1211 279.84,-1211 279.84,-1211 417.84,-1211 417.84,-1211 423.84,-1211 429.84,-1217 429.84,-1223 429.84,-1223 429.84,-1235 429.84,-1235 429.84,-1241 423.84,-1247 417.84,-1247"/>
<text text-anchor="middle" x="348.84" y="-1225.3" font-family="Helvetica" font-size="14.00">RemoveLowResTOF v1</text>
</g>
<!-- LowResRef&#45;&gt;removeLowResTOF -->
<g id="edge40" class="edge">
<title>LowResRef&#45;&gt;removeLowResTOF</title>
<path fill="none" stroke="black" d="M457.68,-1321.83C436.37,-1303.86 401.75,-1274.64 377.28,-1254"/>
<polygon fill="black" stroke="black" points="379.31,-1251.13 369.41,-1247.35 374.79,-1256.48 379.31,-1251.13"/>
</g>
<!-- params1 -->
<g id="node12" class="node">
<title>params1</title>
<ellipse fill="khaki" stroke="black" cx="165.84" cy="-2436" rx="41.69" ry="18"/>
<text text-anchor="middle" x="165.84" y="-2432.3" font-family="Helvetica" font-size="14.00">Params</text>
</g>
<!-- rebin1 -->
<g id="node33" class="node">
<title>rebin1</title>
<path fill="lightskyblue" stroke="black" d="M300.84,-2367C300.84,-2367 182.84,-2367 182.84,-2367 176.84,-2367 170.84,-2361 170.84,-2355 170.84,-2355 170.84,-2343 170.84,-2343 170.84,-2337 176.84,-2331 182.84,-2331 182.84,-2331 300.84,-2331 300.84,-2331 306.84,-2331 312.84,-2337 312.84,-2343 312.84,-2343 312.84,-2355 312.84,-2355 312.84,-2361 306.84,-2367 300.84,-2367"/>
<text text-anchor="middle" x="241.84" y="-2345.3" font-family="Helvetica" font-size="14.00">Rebin or ResampleX</text>
</g>
<!-- params1&#45;&gt;rebin1 -->
<g id="edge20" class="edge">
<title>params1&#45;&gt;rebin1</title>
<path fill="none" stroke="black" d="M180.14,-2419.01C191.31,-2406.51 207.04,-2388.92 219.82,-2374.63"/>
<polygon fill="black" stroke="black" points="222.51,-2376.87 226.57,-2367.08 217.29,-2372.2 222.51,-2376.87"/>
</g>
<!-- params2 -->
<g id="node13" class="node">
<title>params2</title>
<ellipse fill="khaki" stroke="black" cx="431.84" cy="-1081" rx="41.69" ry="18"/>
<text text-anchor="middle" x="431.84" y="-1077.3" font-family="Helvetica" font-size="14.00">Params</text>
</g>
<!-- rebin2 -->
<g id="node34" class="node">
<title>rebin2</title>
<path fill="lightskyblue" stroke="black" d="M342.84,-1012C342.84,-1012 296.84,-1012 296.84,-1012 290.84,-1012 284.84,-1006 284.84,-1000 284.84,-1000 284.84,-988 284.84,-988 284.84,-982 290.84,-976 296.84,-976 296.84,-976 342.84,-976 342.84,-976 348.84,-976 354.84,-982 354.84,-988 354.84,-988 354.84,-1000 354.84,-1000 354.84,-1006 348.84,-1012 342.84,-1012"/>
<text text-anchor="middle" x="319.84" y="-990.3" font-family="Helvetica" font-size="14.00">Rebin v1</text>
</g>
<!-- params2&#45;&gt;rebin2 -->
<g id="edge45" class="edge">
<title>params2&#45;&gt;rebin2</title>
<path fill="none" stroke="black" d="M412.08,-1065C395.04,-1052.07 370.17,-1033.19 350.54,-1018.3"/>
<polygon fill="black" stroke="black" points="352.57,-1015.45 342.49,-1012.19 348.34,-1021.02 352.57,-1015.45"/>
</g>
<!-- convertUnits4 -->
<g id="node21" class="node">
<title>convertUnits4</title>
<path fill="lightskyblue" stroke="black" d="M331.34,-2134C331.34,-2134 242.34,-2134 242.34,-2134 236.34,-2134 230.34,-2128 230.34,-2122 230.34,-2122 230.34,-2108 230.34,-2108 230.34,-2102 236.34,-2096 242.34,-2096 242.34,-2096 331.34,-2096 331.34,-2096 337.34,-2096 343.34,-2102 343.34,-2108 343.34,-2108 343.34,-2122 343.34,-2122 343.34,-2128 337.34,-2134 331.34,-2134"/>
<text text-anchor="middle" x="286.84" y="-2118.8" font-family="Helvetica" font-size="14.00">ConvertUnits v1</text>
<text text-anchor="middle" x="286.84" y="-2103.8" font-family="Helvetica" font-size="14.00">d&#45;spacing</text>
</g>
<!-- applyDiffCal&#45;&gt;convertUnits4 -->
<g id="edge24" class="edge">
<title>applyDiffCal&#45;&gt;convertUnits4</title>
<path fill="none" stroke="black" d="M239.53,-2170.94C246.98,-2162.3 256.17,-2151.62 264.47,-2141.98"/>
<polygon fill="black" stroke="black" points="267.3,-2144.06 271.17,-2134.2 261.99,-2139.49 267.3,-2144.06"/>
</g>
<!-- clearDiffCal -->
<g id="node15" class="node">
<title>clearDiffCal</title>
<path fill="lightskyblue" stroke="black" d="M335.84,-2059C335.84,-2059 237.84,-2059 237.84,-2059 231.84,-2059 225.84,-2053 225.84,-2047 225.84,-2047 225.84,-2033 225.84,-2033 225.84,-2027 231.84,-2021 237.84,-2021 237.84,-2021 335.84,-2021 335.84,-2021 341.84,-2021 347.84,-2027 347.84,-2033 347.84,-2033 347.84,-2047 347.84,-2047 347.84,-2053 341.84,-2059 335.84,-2059"/>
<text text-anchor="middle" x="286.84" y="-2043.8" font-family="Helvetica" font-size="14.00">ApplyDiffCal v1</text>
<text text-anchor="middle" x="286.84" y="-2028.8" font-family="Helvetica" font-size="14.00">Clear parameters</text>
</g>
<!-- hasResonance -->
<g id="node47" class="node">
<title>hasResonance</title>
<polygon fill="limegreen" stroke="black" points="286.84,-1984 179.84,-1946 286.84,-1908 393.84,-1946 286.84,-1984"/>
<text text-anchor="middle" x="286.84" y="-1949.8" font-family="Helvetica" font-size="14.00">Has absorption</text>
<text text-anchor="middle" x="286.84" y="-1934.8" font-family="Helvetica" font-size="14.00">Resonances?</text>
</g>
<!-- clearDiffCal&#45;&gt;hasResonance -->
<g id="edge26" class="edge">
<title>clearDiffCal&#45;&gt;hasResonance</title>
<path fill="none" stroke="black" d="M286.84,-2020.82C286.84,-2013.13 286.84,-2003.78 286.84,-1994.35"/>
<polygon fill="black" stroke="black" points="290.34,-1994.16 286.84,-1984.16 283.34,-1994.16 290.34,-1994.16"/>
</g>
<!-- compressEvents&#45;&gt;cropWorkspaceTof -->
<g id="edge7" class="edge">
<title>compressEvents&#45;&gt;cropWorkspaceTof</title>
<path fill="none" stroke="black" d="M718.43,-2784.94C727,-2776.12 737.63,-2765.19 747.14,-2755.4"/>
<polygon fill="black" stroke="black" points="749.69,-2757.81 754.15,-2748.2 744.67,-2752.93 749.69,-2757.81"/>
</g>
<!-- compressEvents2 -->
<g id="node17" class="node">
<title>compressEvents2</title>
<path fill="lightskyblue" stroke="black" d="M372.84,-309C372.84,-309 258.84,-309 258.84,-309 252.84,-309 246.84,-303 246.84,-297 246.84,-297 246.84,-285 246.84,-285 246.84,-279 252.84,-273 258.84,-273 258.84,-273 372.84,-273 372.84,-273 378.84,-273 384.84,-279 384.84,-285 384.84,-285 384.84,-297 384.84,-297 384.84,-303 378.84,-309 372.84,-309"/>
<text text-anchor="middle" x="315.84" y="-287.3" font-family="Helvetica" font-size="14.00">CompressEvents v1</text>
</g>
<!-- ifRaggedTof -->
<g id="node52" class="node">
<title>ifRaggedTof</title>
<polygon fill="limegreen" stroke="black" points="222.84,-236 117.84,-198 222.84,-160 327.84,-198 222.84,-236"/>
<text text-anchor="middle" x="222.84" y="-201.8" font-family="Helvetica" font-size="14.00">ragged rebin</text>
<text text-anchor="middle" x="222.84" y="-186.8" font-family="Helvetica" font-size="14.00">and tof binning</text>
</g>
<!-- compressEvents2&#45;&gt;ifRaggedTof -->
<g id="edge59" class="edge">
<title>compressEvents2&#45;&gt;ifRaggedTof</title>
<path fill="none" stroke="black" d="M298.35,-272.88C286.98,-261.76 271.77,-246.88 257.98,-233.38"/>
<polygon fill="black" stroke="black" points="260.09,-230.55 250.49,-226.06 255.19,-235.55 260.09,-230.55"/>
</g>
<!-- convertUnits1 -->
<g id="node18" class="node">
<title>convertUnits1</title>
<path fill="lightskyblue" stroke="black" d="M393.34,-1432C393.34,-1432 304.34,-1432 304.34,-1432 298.34,-1432 292.34,-1426 292.34,-1420 292.34,-1420 292.34,-1406 292.34,-1406 292.34,-1400 298.34,-1394 304.34,-1394 304.34,-1394 393.34,-1394 393.34,-1394 399.34,-1394 405.34,-1400 405.34,-1406 405.34,-1406 405.34,-1420 405.34,-1420 405.34,-1426 399.34,-1432 393.34,-1432"/>
<text text-anchor="middle" x="348.84" y="-1416.8" font-family="Helvetica" font-size="14.00">ConvertUnits v1</text>
<text text-anchor="middle" x="348.84" y="-1401.8" font-family="Helvetica" font-size="14.00">Time&#45;of&#45;Flight</text>
</g>
<!-- convertUnits1&#45;&gt;unwrapSNS -->
<g id="edge37" class="edge">
<title>convertUnits1&#45;&gt;unwrapSNS</title>
<path fill="none" stroke="black" d="M348.84,-1393.83C348.84,-1385.89 348.84,-1376.41 348.84,-1367.63"/>
<polygon fill="black" stroke="black" points="352.34,-1367.42 348.84,-1357.42 345.34,-1367.42 352.34,-1367.42"/>
</g>
<!-- convertUnits2 -->
<g id="node19" class="node">
<title>convertUnits2</title>
<path fill="lightskyblue" stroke="black" d="M293.34,-1174C293.34,-1174 204.34,-1174 204.34,-1174 198.34,-1174 192.34,-1168 192.34,-1162 192.34,-1162 192.34,-1148 192.34,-1148 192.34,-1142 198.34,-1136 204.34,-1136 204.34,-1136 293.34,-1136 293.34,-1136 299.34,-1136 305.34,-1142 305.34,-1148 305.34,-1148 305.34,-1162 305.34,-1162 305.34,-1168 299.34,-1174 293.34,-1174"/>
<text text-anchor="middle" x="248.84" y="-1158.8" font-family="Helvetica" font-size="14.00">ConvertUnits v1</text>
<text text-anchor="middle" x="248.84" y="-1143.8" font-family="Helvetica" font-size="14.00">d&#45;spacing</text>
</g>
<!-- isDspace2 -->
<g id="node49" class="node">
<title>isDspace2</title>
<polygon fill="limegreen" stroke="black" points="248.84,-1099 125.51,-1081 248.84,-1063 372.18,-1081 248.84,-1099"/>
<text text-anchor="middle" x="248.84" y="-1077.3" font-family="Helvetica" font-size="14.00">Is d&#45;space binning?</text>
</g>
<!-- convertUnits2&#45;&gt;isDspace2 -->
<g id="edge42" class="edge">
<title>convertUnits2&#45;&gt;isDspace2</title>
<path fill="none" stroke="black" d="M248.84,-1135.83C248.84,-1127.89 248.84,-1118.41 248.84,-1109.63"/>
<polygon fill="black" stroke="black" points="252.34,-1109.42 248.84,-1099.42 245.34,-1109.42 252.34,-1109.42"/>
</g>
<!-- convertUnits3 -->
<g id="node20" class="node">
<title>convertUnits3</title>
<path fill="lightskyblue" stroke="black" d="M271.34,-471C271.34,-471 182.34,-471 182.34,-471 176.34,-471 170.34,-465 170.34,-459 170.34,-459 170.34,-445 170.34,-445 170.34,-439 176.34,-433 182.34,-433 182.34,-433 271.34,-433 271.34,-433 277.34,-433 283.34,-439 283.34,-445 283.34,-445 283.34,-459 283.34,-459 283.34,-465 277.34,-471 271.34,-471"/>
<text text-anchor="middle" x="226.84" y="-455.8" font-family="Helvetica" font-size="14.00">ConvertUnits v1</text>
<text text-anchor="middle" x="226.84" y="-440.8" font-family="Helvetica" font-size="14.00">Time&#45;of&#45;Flight</text>
</g>
<!-- isEventWorkspace3 -->
<g id="node44" class="node">
<title>isEventWorkspace3</title>
<polygon fill="limegreen" stroke="black" points="226.84,-396 97.98,-378 226.84,-360 355.71,-378 226.84,-396"/>
<text text-anchor="middle" x="226.84" y="-374.3" font-family="Helvetica" font-size="14.00">Is event workspace?</text>
</g>
<!-- convertUnits3&#45;&gt;isEventWorkspace3 -->
<g id="edge56" class="edge">
<title>convertUnits3&#45;&gt;isEventWorkspace3</title>
<path fill="none" stroke="black" d="M226.84,-432.83C226.84,-424.89 226.84,-415.41 226.84,-406.63"/>
<polygon fill="black" stroke="black" points="230.34,-406.42 226.84,-396.42 223.34,-406.42 230.34,-406.42"/>
</g>
<!-- convertUnits4&#45;&gt;clearDiffCal -->
<g id="edge25" class="edge">
<title>convertUnits4&#45;&gt;clearDiffCal</title>
<path fill="none" stroke="black" d="M286.84,-2095.96C286.84,-2087.88 286.84,-2078.18 286.84,-2069.18"/>
<polygon fill="black" stroke="black" points="290.34,-2069.09 286.84,-2059.09 283.34,-2069.09 290.34,-2069.09"/>
</g>
<!-- convertUnits5 -->
<g id="node22" class="node">
<title>convertUnits5</title>
<path fill="lightskyblue" stroke="black" d="M414.34,-1857C414.34,-1857 325.34,-1857 325.34,-1857 319.34,-1857 313.34,-1851 313.34,-1845 313.34,-1845 313.34,-1831 313.34,-1831 313.34,-1825 319.34,-1819 325.34,-1819 325.34,-1819 414.34,-1819 414.34,-1819 420.34,-1819 426.34,-1825 426.34,-1831 426.34,-1831 426.34,-1845 426.34,-1845 426.34,-1851 420.34,-1857 414.34,-1857"/>
<text text-anchor="middle" x="369.84" y="-1841.8" font-family="Helvetica" font-size="14.00">ConvertUnits v1</text>
<text text-anchor="middle" x="369.84" y="-1826.8" font-family="Helvetica" font-size="14.00">wavelength</text>
</g>
<!-- maskBins -->
<g id="node30" class="node">
<title>maskBins</title>
<path fill="lightskyblue" stroke="black" d="M448.34,-1782C448.34,-1782 319.34,-1782 319.34,-1782 313.34,-1782 307.34,-1776 307.34,-1770 307.34,-1770 307.34,-1756 307.34,-1756 307.34,-1750 313.34,-1744 319.34,-1744 319.34,-1744 448.34,-1744 448.34,-1744 454.34,-1744 460.34,-1750 460.34,-1756 460.34,-1756 460.34,-1770 460.34,-1770 460.34,-1776 454.34,-1782 448.34,-1782"/>
<text text-anchor="middle" x="383.84" y="-1766.8" font-family="Helvetica" font-size="14.00">MaskBins v1</text>
<text text-anchor="middle" x="383.84" y="-1751.8" font-family="Helvetica" font-size="14.00">absorption resonances</text>
</g>
<!-- convertUnits5&#45;&gt;maskBins -->
<g id="edge29" class="edge">
<title>convertUnits5&#45;&gt;maskBins</title>
<path fill="none" stroke="black" d="M373.3,-1818.96C374.85,-1810.88 376.71,-1801.18 378.44,-1792.18"/>
<polygon fill="black" stroke="black" points="381.93,-1792.57 380.37,-1782.09 375.05,-1791.25 381.93,-1792.57"/>
</g>
<!-- convertUnits6 -->
<g id="node23" class="node">
<title>convertUnits6</title>
<path fill="lightskyblue" stroke="black" d="M414.34,-1707C414.34,-1707 325.34,-1707 325.34,-1707 319.34,-1707 313.34,-1701 313.34,-1695 313.34,-1695 313.34,-1681 313.34,-1681 313.34,-1675 319.34,-1669 325.34,-1669 325.34,-1669 414.34,-1669 414.34,-1669 420.34,-1669 426.34,-1675 426.34,-1681 426.34,-1681 426.34,-1695 426.34,-1695 426.34,-1701 420.34,-1707 414.34,-1707"/>
<text text-anchor="middle" x="369.84" y="-1691.8" font-family="Helvetica" font-size="14.00">ConvertUnits v1</text>
<text text-anchor="middle" x="369.84" y="-1676.8" font-family="Helvetica" font-size="14.00">d&#45;spacing</text>
</g>
<!-- lorentz -->
<g id="node29" class="node">
<title>lorentz</title>
<path fill="lightskyblue" stroke="black" d="M341.84,-1632C341.84,-1632 223.84,-1632 223.84,-1632 217.84,-1632 211.84,-1626 211.84,-1620 211.84,-1620 211.84,-1608 211.84,-1608 211.84,-1602 217.84,-1596 223.84,-1596 223.84,-1596 341.84,-1596 341.84,-1596 347.84,-1596 353.84,-1602 353.84,-1608 353.84,-1608 353.84,-1620 353.84,-1620 353.84,-1626 347.84,-1632 341.84,-1632"/>
<text text-anchor="middle" x="282.84" y="-1610.3" font-family="Helvetica" font-size="14.00">LorentzCorrection v1</text>
</g>
<!-- convertUnits6&#45;&gt;lorentz -->
<g id="edge31" class="edge">
<title>convertUnits6&#45;&gt;lorentz</title>
<path fill="none" stroke="black" d="M347.89,-1668.83C336.84,-1659.69 323.32,-1648.5 311.47,-1638.7"/>
<polygon fill="black" stroke="black" points="313.53,-1635.85 303.59,-1632.17 309.06,-1641.24 313.53,-1635.85"/>
</g>
<!-- convertUnits7 -->
<g id="node24" class="node">
<title>convertUnits7</title>
<path fill="lightskyblue" stroke="black" d="M262.34,-1432C262.34,-1432 173.34,-1432 173.34,-1432 167.34,-1432 161.34,-1426 161.34,-1420 161.34,-1420 161.34,-1406 161.34,-1406 161.34,-1400 167.34,-1394 173.34,-1394 173.34,-1394 262.34,-1394 262.34,-1394 268.34,-1394 274.34,-1400 274.34,-1406 274.34,-1406 274.34,-1420 274.34,-1420 274.34,-1426 268.34,-1432 262.34,-1432"/>
<text text-anchor="middle" x="217.84" y="-1416.8" font-family="Helvetica" font-size="14.00">ConvertUnits v1</text>
<text text-anchor="middle" x="217.84" y="-1401.8" font-family="Helvetica" font-size="14.00">wavelength</text>
</g>
<!-- cropWorkspaceWL -->
<g id="node26" class="node">
<title>cropWorkspaceWL</title>
<path fill="lightskyblue" stroke="black" d="M287.34,-1303C287.34,-1303 180.34,-1303 180.34,-1303 174.34,-1303 168.34,-1297 168.34,-1291 168.34,-1291 168.34,-1277 168.34,-1277 168.34,-1271 174.34,-1265 180.34,-1265 180.34,-1265 287.34,-1265 287.34,-1265 293.34,-1265 299.34,-1271 299.34,-1277 299.34,-1277 299.34,-1291 299.34,-1291 299.34,-1297 293.34,-1303 287.34,-1303"/>
<text text-anchor="middle" x="233.84" y="-1287.8" font-family="Helvetica" font-size="14.00">CropWorkspace v1</text>
<text text-anchor="middle" x="233.84" y="-1272.8" font-family="Helvetica" font-size="14.00">tof range</text>
</g>
<!-- convertUnits7&#45;&gt;cropWorkspaceWL -->
<g id="edge34" class="edge">
<title>convertUnits7&#45;&gt;cropWorkspaceWL</title>
<path fill="none" stroke="black" d="M220.13,-1393.8C222.78,-1372.77 227.18,-1337.91 230.27,-1313.32"/>
<polygon fill="black" stroke="black" points="233.78,-1313.52 231.55,-1303.16 226.83,-1312.65 233.78,-1313.52"/>
</g>
<!-- cropWorkspaceTof&#45;&gt;removePromptPulse -->
<g id="edge10" class="edge">
<title>cropWorkspaceTof&#45;&gt;removePromptPulse</title>
<path fill="none" stroke="black" d="M735.5,-2709.83C716,-2700.08 691.81,-2687.99 671.31,-2677.74"/>
<polygon fill="black" stroke="black" points="672.69,-2674.51 662.18,-2673.17 669.56,-2680.77 672.69,-2674.51"/>
</g>
<!-- cropWorkspaceWL&#45;&gt;convertUnits2 -->
<g id="edge35" class="edge">
<title>cropWorkspaceWL&#45;&gt;convertUnits2</title>
<path fill="none" stroke="black" d="M235.99,-1264.8C238.47,-1243.77 242.59,-1208.91 245.5,-1184.32"/>
<polygon fill="black" stroke="black" points="249,-1184.5 246.7,-1174.16 242.05,-1183.68 249,-1184.5"/>
</g>
<!-- isEventWorkspace2 -->
<g id="node43" class="node">
<title>isEventWorkspace2</title>
<polygon fill="limegreen" stroke="black" points="248.84,-866 119.98,-848 248.84,-830 377.71,-848 248.84,-866"/>
<text text-anchor="middle" x="248.84" y="-844.3" font-family="Helvetica" font-size="14.00">Is event workspace?</text>
</g>
<!-- diffFocus&#45;&gt;isEventWorkspace2 -->
<g id="edge48" class="edge">
<title>diffFocus&#45;&gt;isEventWorkspace2</title>
<path fill="none" stroke="black" d="M248.84,-902.81C248.84,-894.79 248.84,-885.05 248.84,-876.07"/>
<polygon fill="black" stroke="black" points="252.34,-876.03 248.84,-866.03 245.34,-876.03 252.34,-876.03"/>
</g>
<!-- editGeom -->
<g id="node28" class="node">
<title>editGeom</title>
<path fill="lightskyblue" stroke="black" d="M306.34,-544C306.34,-544 147.34,-544 147.34,-544 141.34,-544 135.34,-538 135.34,-532 135.34,-532 135.34,-520 135.34,-520 135.34,-514 141.34,-508 147.34,-508 147.34,-508 306.34,-508 306.34,-508 312.34,-508 318.34,-514 318.34,-520 318.34,-520 318.34,-532 318.34,-532 318.34,-538 312.34,-544 306.34,-544"/>
<text text-anchor="middle" x="226.84" y="-522.3" font-family="Helvetica" font-size="14.00">EditInstrumentGeometry v1</text>
</g>
<!-- editGeom&#45;&gt;convertUnits3 -->
<g id="edge55" class="edge">
<title>editGeom&#45;&gt;convertUnits3</title>
<path fill="none" stroke="black" d="M226.84,-507.94C226.84,-499.99 226.84,-490.31 226.84,-481.31"/>
<polygon fill="black" stroke="black" points="230.34,-481.2 226.84,-471.2 223.34,-481.2 230.34,-481.2"/>
</g>
<!-- ifParams -->
<g id="node51" class="node">
<title>ifParams</title>
<polygon fill="limegreen" stroke="black" points="282.84,-1559 154.84,-1521 282.84,-1483 410.84,-1521 282.84,-1559"/>
<text text-anchor="middle" x="282.84" y="-1524.8" font-family="Helvetica" font-size="14.00">LRef or</text>
<text text-anchor="middle" x="282.84" y="-1509.8" font-family="Helvetica" font-size="14.00">DIFCref specified?</text>
</g>
<!-- lorentz&#45;&gt;ifParams -->
<g id="edge32" class="edge">
<title>lorentz&#45;&gt;ifParams</title>
<path fill="none" stroke="black" d="M282.84,-1595.88C282.84,-1588.25 282.84,-1578.83 282.84,-1569.31"/>
<polygon fill="black" stroke="black" points="286.34,-1569.02 282.84,-1559.02 279.34,-1569.02 286.34,-1569.02"/>
</g>
<!-- maskBins&#45;&gt;convertUnits6 -->
<g id="edge30" class="edge">
<title>maskBins&#45;&gt;convertUnits6</title>
<path fill="none" stroke="black" d="M380.38,-1743.96C378.83,-1735.88 376.97,-1726.18 375.25,-1717.18"/>
<polygon fill="black" stroke="black" points="378.63,-1716.25 373.31,-1707.09 371.76,-1717.57 378.63,-1716.25"/>
</g>
<!-- maskBinsTable&#45;&gt;maskDetectors -->
<g id="edge14" class="edge">
<title>maskBinsTable&#45;&gt;maskDetectors</title>
<path fill="none" stroke="black" d="M471.28,-2563.99C448.94,-2554.14 420.62,-2541.66 396.85,-2531.17"/>
<polygon fill="black" stroke="black" points="398.21,-2527.95 387.65,-2527.11 395.39,-2534.35 398.21,-2527.95"/>
</g>
<!-- isDspace1 -->
<g id="node48" class="node">
<title>isDspace1</title>
<polygon fill="limegreen" stroke="black" points="348.84,-2454 225.51,-2436 348.84,-2418 472.18,-2436 348.84,-2454"/>
<text text-anchor="middle" x="348.84" y="-2432.3" font-family="Helvetica" font-size="14.00">Is d&#45;space binning?</text>
</g>
<!-- maskDetectors&#45;&gt;isDspace1 -->
<g id="edge16" class="edge">
<title>maskDetectors&#45;&gt;isDspace1</title>
<path fill="none" stroke="black" d="M348.84,-2490.81C348.84,-2482.79 348.84,-2473.05 348.84,-2464.07"/>
<polygon fill="black" stroke="black" points="352.34,-2464.03 348.84,-2454.03 345.34,-2464.03 352.34,-2464.03"/>
</g>
<!-- hasCalibration -->
<g id="node46" class="node">
<title>hasCalibration</title>
<polygon fill="limegreen" stroke="black" points="315.84,-2294 212.11,-2276 315.84,-2258 419.57,-2276 315.84,-2294"/>
<text text-anchor="middle" x="315.84" y="-2272.3" font-family="Helvetica" font-size="14.00">Has calibration?</text>
</g>
<!-- rebin1&#45;&gt;hasCalibration -->
<g id="edge18" class="edge">
<title>rebin1&#45;&gt;hasCalibration</title>
<path fill="none" stroke="black" d="M259.75,-2330.81C269.81,-2321.17 282.44,-2309.04 293.18,-2298.75"/>
<polygon fill="black" stroke="black" points="295.8,-2301.08 300.59,-2291.63 290.95,-2296.03 295.8,-2301.08"/>
</g>
<!-- rebin2&#45;&gt;diffFocus -->
<g id="edge46" class="edge">
<title>rebin2&#45;&gt;diffFocus</title>
<path fill="none" stroke="black" d="M302.65,-975.81C293.76,-966.92 282.75,-955.91 273.01,-946.17"/>
<polygon fill="black" stroke="black" points="275.42,-943.63 265.87,-939.03 270.47,-948.57 275.42,-943.63"/>
</g>
<!-- rebin3 -->
<g id="node35" class="node">
<title>rebin3</title>
<path fill="lightskyblue" stroke="black" d="M234.34,-619C234.34,-619 109.34,-619 109.34,-619 103.34,-619 97.34,-613 97.34,-607 97.34,-607 97.34,-593 97.34,-593 97.34,-587 103.34,-581 109.34,-581 109.34,-581 234.34,-581 234.34,-581 240.34,-581 246.34,-587 246.34,-593 246.34,-593 246.34,-607 246.34,-607 246.34,-613 240.34,-619 234.34,-619"/>
<text text-anchor="middle" x="171.84" y="-603.8" font-family="Helvetica" font-size="14.00">Rebin, ResampleX, or</text>
<text text-anchor="middle" x="171.84" y="-588.8" font-family="Helvetica" font-size="14.00">RebinRagged</text>
</g>
<!-- rebin3&#45;&gt;editGeom -->
<g id="edge53" class="edge">
<title>rebin3&#45;&gt;editGeom</title>
<path fill="none" stroke="black" d="M185.72,-580.83C192.25,-572.28 200.15,-561.94 207.27,-552.62"/>
<polygon fill="black" stroke="black" points="210.25,-554.49 213.54,-544.42 204.68,-550.24 210.25,-554.49"/>
</g>
<!-- rebinRagged -->
<g id="node36" class="node">
<title>rebinRagged</title>
<path fill="lightskyblue" stroke="black" d="M221.34,-109C221.34,-109 128.34,-109 128.34,-109 122.34,-109 116.34,-103 116.34,-97 116.34,-97 116.34,-85 116.34,-85 116.34,-79 122.34,-73 128.34,-73 128.34,-73 221.34,-73 221.34,-73 227.34,-73 233.34,-79 233.34,-85 233.34,-85 233.34,-97 233.34,-97 233.34,-103 227.34,-109 221.34,-109"/>
<text text-anchor="middle" x="174.84" y="-87.3" font-family="Helvetica" font-size="14.00">RebinRagged v1</text>
</g>
<!-- rebinRagged&#45;&gt;OutputWorkspace -->
<g id="edge61" class="edge">
<title>rebinRagged&#45;&gt;OutputWorkspace</title>
<path fill="none" stroke="black" d="M186.22,-72.81C191.82,-64.35 198.68,-53.98 204.89,-44.61"/>
<polygon fill="black" stroke="black" points="207.97,-46.3 210.57,-36.03 202.13,-42.44 207.97,-46.3"/>
</g>
<!-- removeLowResTOF&#45;&gt;convertUnits2 -->
<g id="edge41" class="edge">
<title>removeLowResTOF&#45;&gt;convertUnits2</title>
<path fill="none" stroke="black" d="M325.14,-1210.94C312.42,-1201.78 296.52,-1190.33 282.53,-1180.26"/>
<polygon fill="black" stroke="black" points="284.28,-1177.2 274.12,-1174.2 280.19,-1182.88 284.28,-1177.2"/>
</g>
<!-- removePromptPulse&#45;&gt;maskBinsTable -->
<g id="edge12" class="edge">
<title>removePromptPulse&#45;&gt;maskBinsTable</title>
<path fill="none" stroke="black" d="M599.58,-2636.99C583.78,-2627.49 563.92,-2615.54 546.89,-2605.29"/>
<polygon fill="black" stroke="black" points="548.66,-2602.27 538.28,-2600.11 545.05,-2608.27 548.66,-2602.27"/>
</g>
<!-- sortEvents1 -->
<g id="node39" class="node">
<title>sortEvents1</title>
<path fill="lightskyblue" stroke="black" d="M878.34,-2821C878.34,-2821 801.34,-2821 801.34,-2821 795.34,-2821 789.34,-2815 789.34,-2809 789.34,-2809 789.34,-2797 789.34,-2797 789.34,-2791 795.34,-2785 801.34,-2785 801.34,-2785 878.34,-2785 878.34,-2785 884.34,-2785 890.34,-2791 890.34,-2797 890.34,-2797 890.34,-2809 890.34,-2809 890.34,-2815 884.34,-2821 878.34,-2821"/>
<text text-anchor="middle" x="839.84" y="-2799.3" font-family="Helvetica" font-size="14.00">SortEvents v1</text>
</g>
<!-- sortEvents1&#45;&gt;cropWorkspaceTof -->
<g id="edge6" class="edge">
<title>sortEvents1&#45;&gt;cropWorkspaceTof</title>
<path fill="none" stroke="black" d="M823.73,-2784.94C815.48,-2776.21 805.28,-2765.4 796.11,-2755.69"/>
<polygon fill="black" stroke="black" points="798.44,-2753.07 789.03,-2748.2 793.35,-2757.87 798.44,-2753.07"/>
</g>
<!-- sortEvents2 -->
<g id="node40" class="node">
<title>sortEvents2</title>
<path fill="lightskyblue" stroke="black" d="M222.34,-779C222.34,-779 145.34,-779 145.34,-779 139.34,-779 133.34,-773 133.34,-767 133.34,-767 133.34,-755 133.34,-755 133.34,-749 139.34,-743 145.34,-743 145.34,-743 222.34,-743 222.34,-743 228.34,-743 234.34,-749 234.34,-755 234.34,-755 234.34,-767 234.34,-767 234.34,-773 228.34,-779 222.34,-779"/>
<text text-anchor="middle" x="183.84" y="-757.3" font-family="Helvetica" font-size="14.00">SortEvents v1</text>
</g>
<!-- isDspace3 -->
<g id="node50" class="node">
<title>isDspace3</title>
<polygon fill="limegreen" stroke="black" points="226.84,-706 103.51,-688 226.84,-670 350.18,-688 226.84,-706"/>
<text text-anchor="middle" x="226.84" y="-684.3" font-family="Helvetica" font-size="14.00">Is d&#45;space binning?</text>
</g>
<!-- sortEvents2&#45;&gt;isDspace3 -->
<g id="edge51" class="edge">
<title>sortEvents2&#45;&gt;isDspace3</title>
<path fill="none" stroke="black" d="M194.25,-742.81C199.52,-734.1 206.02,-723.37 211.83,-713.79"/>
<polygon fill="black" stroke="black" points="214.93,-715.42 217.12,-705.06 208.94,-711.8 214.93,-715.42"/>
</g>
<!-- unwrapSNS&#45;&gt;removeLowResTOF -->
<g id="edge39" class="edge">
<title>unwrapSNS&#45;&gt;removeLowResTOF</title>
<path fill="none" stroke="black" d="M348.84,-1320.65C348.84,-1303.56 348.84,-1277.22 348.84,-1257.32"/>
<polygon fill="black" stroke="black" points="352.34,-1257.31 348.84,-1247.31 345.34,-1257.31 352.34,-1257.31"/>
</g>
<!-- isEventWorkspace1&#45;&gt;cropWorkspaceTof -->
<g id="edge8" class="edge">
<title>isEventWorkspace1&#45;&gt;cropWorkspaceTof</title>
<path fill="none" stroke="black" d="M880.41,-2962.04C897.97,-2950.16 920.6,-2931.32 930.84,-2908 937.28,-2893.35 933.57,-2887.77 930.84,-2872 923.85,-2831.55 927.93,-2814.93 899.84,-2785 885.48,-2769.69 866.14,-2758.44 846.85,-2750.26"/>
<polygon fill="black" stroke="black" points="847.99,-2746.94 837.41,-2746.48 845.39,-2753.44 847.99,-2746.94"/>
<text text-anchor="middle" x="936.84" y="-2842.8" font-family="Helvetica" font-size="14.00">No</text>
</g>
<!-- isCompression -->
<g id="node45" class="node">
<title>isCompression</title>
<polygon fill="limegreen" stroke="black" points="762.84,-2908 603.81,-2890 762.84,-2872 921.87,-2890 762.84,-2908"/>
<text text-anchor="middle" x="762.84" y="-2886.3" font-family="Helvetica" font-size="14.00">Have compression value?</text>
</g>
<!-- isEventWorkspace1&#45;&gt;isCompression -->
<g id="edge2" class="edge">
<title>isEventWorkspace1&#45;&gt;isCompression</title>
<path fill="none" stroke="black" d="M840.47,-2961.19C825.82,-2947.95 804.15,-2928.35 787.42,-2913.23"/>
<polygon fill="black" stroke="black" points="789.43,-2910.32 779.66,-2906.21 784.73,-2915.51 789.43,-2910.32"/>
<text text-anchor="middle" x="826.34" y="-2929.8" font-family="Helvetica" font-size="14.00">Yes</text>
</g>
<!-- isEventWorkspace2&#45;&gt;sortEvents2 -->
<g id="edge49" class="edge">
<title>isEventWorkspace2&#45;&gt;sortEvents2</title>
<path fill="none" stroke="black" d="M236.92,-831.41C227.48,-819.07 214.12,-801.59 203.16,-787.26"/>
<polygon fill="black" stroke="black" points="205.88,-785.06 197.03,-779.25 200.32,-789.32 205.88,-785.06"/>
<text text-anchor="middle" x="232.34" y="-800.8" font-family="Helvetica" font-size="14.00">Yes</text>
</g>
<!-- isEventWorkspace2&#45;&gt;isDspace3 -->
<g id="edge50" class="edge">
<title>isEventWorkspace2&#45;&gt;isDspace3</title>
<path fill="none" stroke="black" d="M248.8,-829.86C248.71,-820.21 248.46,-807.92 247.84,-797 246.49,-772.94 247.4,-766.67 242.84,-743 241.06,-733.75 238.36,-723.82 235.67,-715.03"/>
<polygon fill="black" stroke="black" points="238.96,-713.81 232.59,-705.34 232.29,-715.93 238.96,-713.81"/>
<text text-anchor="middle" x="256.84" y="-757.3" font-family="Helvetica" font-size="14.00">No</text>
</g>
<!-- isEventWorkspace3&#45;&gt;compressEvents2 -->
<g id="edge58" class="edge">
<title>isEventWorkspace3&#45;&gt;compressEvents2</title>
<path fill="none" stroke="black" d="M242.75,-361.8C255.95,-349.2 274.97,-331.03 290.3,-316.4"/>
<polygon fill="black" stroke="black" points="293.11,-318.55 297.93,-309.11 288.28,-313.49 293.11,-318.55"/>
<text text-anchor="middle" x="288.34" y="-330.8" font-family="Helvetica" font-size="14.00">Yes</text>
</g>
<!-- isEventWorkspace3&#45;&gt;ifRaggedTof -->
<g id="edge57" class="edge">
<title>isEventWorkspace3&#45;&gt;ifRaggedTof</title>
<path fill="none" stroke="black" d="M224.64,-360.27C222.94,-346.53 220.74,-326.54 219.84,-309 218.77,-288.14 219.16,-265.03 219.96,-245.4"/>
<polygon fill="black" stroke="black" points="223.47,-245.33 220.43,-235.18 216.48,-245.01 223.47,-245.33"/>
<text text-anchor="middle" x="228.84" y="-287.3" font-family="Helvetica" font-size="14.00">No</text>
</g>
<!-- isCompression&#45;&gt;compressEvents -->
<g id="edge3" class="edge">
<title>isCompression&#45;&gt;compressEvents</title>
<path fill="none" stroke="black" d="M751.37,-2873.01C742.57,-2860.75 730.24,-2843.57 720.09,-2829.43"/>
<polygon fill="black" stroke="black" points="722.77,-2827.17 714.1,-2821.08 717.09,-2831.25 722.77,-2827.17"/>
<text text-anchor="middle" x="747.34" y="-2842.8" font-family="Helvetica" font-size="14.00">Yes</text>
</g>
<!-- isCompression&#45;&gt;sortEvents1 -->
<g id="edge4" class="edge">
<title>isCompression&#45;&gt;sortEvents1</title>
<path fill="none" stroke="black" d="M776.96,-2873.41C788.25,-2860.95 804.28,-2843.26 817.32,-2828.86"/>
<polygon fill="black" stroke="black" points="820.1,-2831.01 824.22,-2821.25 814.91,-2826.31 820.1,-2831.01"/>
<text text-anchor="middle" x="814.84" y="-2842.8" font-family="Helvetica" font-size="14.00">No</text>
</g>
<!-- hasCalibration&#45;&gt;applyDiffCal -->
<g id="edge21" class="edge">
<title>hasCalibration&#45;&gt;applyDiffCal</title>
<path fill="none" stroke="black" d="M300.4,-2260.58C286.81,-2247.88 266.73,-2229.13 250.69,-2214.14"/>
<polygon fill="black" stroke="black" points="252.88,-2211.4 243.18,-2207.13 248.1,-2216.51 252.88,-2211.4"/>
<text text-anchor="middle" x="287.34" y="-2228.8" font-family="Helvetica" font-size="14.00">Yes</text>
</g>
<!-- hasCalibration&#45;&gt;convertUnits4 -->
<g id="edge22" class="edge">
<title>hasCalibration&#45;&gt;convertUnits4</title>
<path fill="none" stroke="black" d="M312.79,-2258.28C307.86,-2231.23 298.07,-2177.55 292.02,-2144.42"/>
<polygon fill="black" stroke="black" points="295.44,-2143.65 290.2,-2134.44 288.56,-2144.9 295.44,-2143.65"/>
<text text-anchor="middle" x="312.84" y="-2185.3" font-family="Helvetica" font-size="14.00">No</text>
</g>
<!-- hasResonance&#45;&gt;convertUnits5 -->
<g id="edge28" class="edge">
<title>hasResonance&#45;&gt;convertUnits5</title>
<path fill="none" stroke="black" d="M309.52,-1916.04C321.91,-1900.21 337.15,-1880.75 349.2,-1865.36"/>
<polygon fill="black" stroke="black" points="352.13,-1867.3 355.54,-1857.27 346.62,-1862.98 352.13,-1867.3"/>
<text text-anchor="middle" x="352.34" y="-1878.8" font-family="Helvetica" font-size="14.00">Yes</text>
</g>
<!-- hasResonance&#45;&gt;lorentz -->
<g id="edge27" class="edge">
<title>hasResonance&#45;&gt;lorentz</title>
<path fill="none" stroke="black" d="M278.94,-1910.35C274.9,-1889.74 270.84,-1863.01 270.84,-1839 270.84,-1839 270.84,-1839 270.84,-1687 270.84,-1672 273.41,-1655.48 276.16,-1642.05"/>
<polygon fill="black" stroke="black" points="279.64,-1642.55 278.37,-1632.03 272.8,-1641.05 279.64,-1642.55"/>
<text text-anchor="middle" x="279.84" y="-1759.3" font-family="Helvetica" font-size="14.00">No</text>
</g>
<!-- isDspace1&#45;&gt;rebin1 -->
<g id="edge17" class="edge">
<title>isDspace1&#45;&gt;rebin1</title>
<path fill="none" stroke="black" d="M330.69,-2420.58C314.49,-2407.71 290.45,-2388.61 271.46,-2373.53"/>
<polygon fill="black" stroke="black" points="273.41,-2370.61 263.41,-2367.13 269.06,-2376.09 273.41,-2370.61"/>
<text text-anchor="middle" x="313.34" y="-2388.8" font-family="Helvetica" font-size="14.00">Yes</text>
</g>
<!-- isDspace1&#45;&gt;hasCalibration -->
<g id="edge19" class="edge">
<title>isDspace1&#45;&gt;hasCalibration</title>
<path fill="none" stroke="black" d="M345.37,-2418.39C339.67,-2391.08 328.26,-2336.46 321.41,-2303.68"/>
<polygon fill="black" stroke="black" points="324.83,-2302.94 319.36,-2293.86 317.98,-2304.37 324.83,-2302.94"/>
<text text-anchor="middle" x="343.84" y="-2345.3" font-family="Helvetica" font-size="14.00">No</text>
</g>
<!-- isDspace2&#45;&gt;diffFocus -->
<g id="edge43" class="edge">
<title>isDspace2&#45;&gt;diffFocus</title>
<path fill="none" stroke="black" d="M248.84,-1062.79C248.84,-1035.48 248.84,-981.99 248.84,-949.38"/>
<polygon fill="black" stroke="black" points="252.34,-949.19 248.84,-939.19 245.34,-949.19 252.34,-949.19"/>
<text text-anchor="middle" x="257.84" y="-990.3" font-family="Helvetica" font-size="14.00">No</text>
</g>
<!-- isDspace2&#45;&gt;rebin2 -->
<g id="edge44" class="edge">
<title>isDspace2&#45;&gt;rebin2</title>
<path fill="none" stroke="black" d="M261.53,-1064.8C271.97,-1052.31 286.96,-1034.37 299.13,-1019.8"/>
<polygon fill="black" stroke="black" points="301.83,-1022.03 305.55,-1012.11 296.45,-1017.54 301.83,-1022.03"/>
<text text-anchor="middle" x="300.34" y="-1033.8" font-family="Helvetica" font-size="14.00">Yes</text>
</g>
<!-- isDspace3&#45;&gt;editGeom -->
<g id="edge54" class="edge">
<title>isDspace3&#45;&gt;editGeom</title>
<path fill="none" stroke="black" d="M236.03,-671.24C246.93,-650.58 262.69,-613.18 254.84,-581 252.49,-571.36 248.09,-561.51 243.46,-552.92"/>
<polygon fill="black" stroke="black" points="246.45,-551.09 238.44,-544.15 240.37,-554.57 246.45,-551.09"/>
<text text-anchor="middle" x="266.84" y="-596.3" font-family="Helvetica" font-size="14.00">No</text>
</g>
<!-- isDspace3&#45;&gt;rebin3 -->
<g id="edge52" class="edge">
<title>isDspace3&#45;&gt;rebin3</title>
<path fill="none" stroke="black" d="M216.75,-671.23C208.95,-659.02 197.96,-641.84 188.81,-627.53"/>
<polygon fill="black" stroke="black" points="191.72,-625.59 183.39,-619.05 185.83,-629.36 191.72,-625.59"/>
<text text-anchor="middle" x="216.34" y="-640.8" font-family="Helvetica" font-size="14.00">Yes</text>
</g>
<!-- ifParams&#45;&gt;convertUnits1 -->
<g id="edge36" class="edge">
<title>ifParams&#45;&gt;convertUnits1</title>
<path fill="none" stroke="black" d="M302.29,-1488.77C311.8,-1473.5 323.12,-1455.3 332.22,-1440.69"/>
<polygon fill="black" stroke="black" points="335.25,-1442.45 337.57,-1432.11 329.31,-1438.75 335.25,-1442.45"/>
<text text-anchor="middle" x="337.34" y="-1453.8" font-family="Helvetica" font-size="14.00">Yes</text>
</g>
<!-- ifParams&#45;&gt;convertUnits7 -->
<g id="edge33" class="edge">
<title>ifParams&#45;&gt;convertUnits7</title>
<path fill="none" stroke="black" d="M263.52,-1488.48C254.16,-1473.22 243.04,-1455.1 234.12,-1440.55"/>
<polygon fill="black" stroke="black" points="237.1,-1438.71 228.89,-1432.01 231.13,-1442.37 237.1,-1438.71"/>
<text text-anchor="middle" x="257.84" y="-1453.8" font-family="Helvetica" font-size="14.00">No</text>
</g>
<!-- ifRaggedTof&#45;&gt;OutputWorkspace -->
<g id="edge62" class="edge">
<title>ifRaggedTof&#45;&gt;OutputWorkspace</title>
<path fill="none" stroke="black" d="M233.89,-163.77C240.76,-138.75 247.34,-103.66 241.84,-73 240.19,-63.81 237.08,-54.13 233.8,-45.55"/>
<polygon fill="black" stroke="black" points="236.95,-44.01 229.94,-36.07 230.47,-46.65 236.95,-44.01"/>
<text text-anchor="middle" x="253.84" y="-87.3" font-family="Helvetica" font-size="14.00">No</text>
</g>
<!-- ifRaggedTof&#45;&gt;rebinRagged -->
<g id="edge60" class="edge">
<title>ifRaggedTof&#45;&gt;rebinRagged</title>
<path fill="none" stroke="black" d="M208.31,-165.21C201.45,-150.2 193.36,-132.51 186.85,-118.27"/>
<polygon fill="black" stroke="black" points="189.98,-116.69 182.63,-109.05 183.61,-119.6 189.98,-116.69"/>
<text text-anchor="middle" x="209.34" y="-130.8" font-family="Helvetica" font-size="14.00">Yes</text>
</g>
</g>
</svg>
