<?xml version="1.0" encoding="UTF-8" standalone="no"?>
<!DOCTYPE svg PUBLIC "-//W3C//DTD SVG 1.1//EN"
 "http://www.w3.org/Graphics/SVG/1.1/DTD/svg11.dtd">
<!-- Generated by graphviz version 3.0.0 (20220315.2325)
 -->
<!-- Title: ApplyPaalmanPingsCorrection_CanScaleOnly Pages: 1 -->
<svg width="454pt" height="300pt"
 viewBox="0.00 0.00 454.00 300.00" xmlns="http://www.w3.org/2000/svg" xmlns:xlink="http://www.w3.org/1999/xlink">
<g id="graph0" class="graph" transform="scale(1 1) rotate(0) translate(4 296)">
<title>ApplyPaalmanPingsCorrection_CanScaleOnly</title>
<polygon fill="white" stroke="transparent" points="-4,4 -4,-296 450,-296 450,4 -4,4"/>
<text text-anchor="middle" x="223" y="-276.8" font-family="Helvetica,sans-Serif" font-size="14.00">ApplyPaalmanPingsCorrection Container Scale Only Flowchart</text>
<!-- SampleWorkspace -->
<g id="node1" class="node">
<title>SampleWorkspace</title>
<ellipse fill="khaki" stroke="black" cx="116.65" cy="-178" rx="94.48" ry="18"/>
<text text-anchor="middle" x="116.65" y="-174.3" font-family="Helvetica,sans-Serif" font-size="14.00">SampleWorkspace</text>
</g>
<!-- Minus -->
<g id="node6" class="node">
<title>Minus</title>
<path fill="lightskyblue" stroke="black" d="M196.65,-109C196.65,-109 162.65,-109 162.65,-109 156.65,-109 150.65,-103 150.65,-97 150.65,-97 150.65,-85 150.65,-85 150.65,-79 156.65,-73 162.65,-73 162.65,-73 196.65,-73 196.65,-73 202.65,-73 208.65,-79 208.65,-85 208.65,-85 208.65,-97 208.65,-97 208.65,-103 202.65,-109 196.65,-109"/>
<text text-anchor="middle" x="179.65" y="-87.3" font-family="Helvetica,sans-Serif" font-size="14.00">Minus</text>
</g>
<!-- SampleWorkspace&#45;&gt;Minus -->
<g id="edge4" class="edge">
<title>SampleWorkspace&#45;&gt;Minus</title>
<path fill="none" stroke="black" d="M115.56,-159.53C115.74,-149.3 117.45,-136.56 123.65,-127 128.17,-120.04 134.61,-114.21 141.53,-109.44"/>
<polygon fill="black" stroke="black" points="143.76,-112.17 150.44,-103.95 140.09,-106.21 143.76,-112.17"/>
<text text-anchor="middle" x="175.65" y="-130.8" font-family="Helvetica,sans-Serif" font-size="14.00">LHSWorkspace</text>
</g>
<!-- CanWorkspace -->
<g id="node2" class="node">
<title>CanWorkspace</title>
<ellipse fill="khaki" stroke="black" cx="167.65" cy="-251" rx="77.99" ry="18"/>
<text text-anchor="middle" x="167.65" y="-247.3" font-family="Helvetica,sans-Serif" font-size="14.00">CanWorkspace</text>
</g>
<!-- Scale -->
<g id="node5" class="node">
<title>Scale</title>
<path fill="lightskyblue" stroke="black" d="M270.65,-196C270.65,-196 240.65,-196 240.65,-196 234.65,-196 228.65,-190 228.65,-184 228.65,-184 228.65,-172 228.65,-172 228.65,-166 234.65,-160 240.65,-160 240.65,-160 270.65,-160 270.65,-160 276.65,-160 282.65,-166 282.65,-172 282.65,-172 282.65,-184 282.65,-184 282.65,-190 276.65,-196 270.65,-196"/>
<text text-anchor="middle" x="255.65" y="-174.3" font-family="Helvetica,sans-Serif" font-size="14.00">Scale</text>
</g>
<!-- CanWorkspace&#45;&gt;Scale -->
<g id="edge1" class="edge">
<title>CanWorkspace&#45;&gt;Scale</title>
<path fill="none" stroke="black" d="M188.06,-233.53C199.47,-224.33 213.89,-212.69 226.48,-202.54"/>
<polygon fill="black" stroke="black" points="228.85,-205.12 234.43,-196.12 224.45,-199.67 228.85,-205.12"/>
</g>
<!-- CanScaleFactor -->
<g id="node3" class="node">
<title>CanScaleFactor</title>
<ellipse fill="khaki" stroke="black" cx="343.65" cy="-251" rx="79.89" ry="18"/>
<text text-anchor="middle" x="343.65" y="-247.3" font-family="Helvetica,sans-Serif" font-size="14.00">CanScaleFactor</text>
</g>
<!-- CanScaleFactor&#45;&gt;Scale -->
<g id="edge2" class="edge">
<title>CanScaleFactor&#45;&gt;Scale</title>
<path fill="none" stroke="black" d="M323.24,-233.53C311.83,-224.33 297.41,-212.69 284.82,-202.54"/>
<polygon fill="black" stroke="black" points="286.85,-199.67 276.87,-196.12 282.45,-205.12 286.85,-199.67"/>
</g>
<!-- OutputWorkspace -->
<g id="node4" class="node">
<title>OutputWorkspace</title>
<ellipse fill="khaki" stroke="black" cx="179.65" cy="-18" rx="92.08" ry="18"/>
<text text-anchor="middle" x="179.65" y="-14.3" font-family="Helvetica,sans-Serif" font-size="14.00">OutputWorkspace</text>
</g>
<!-- Scale&#45;&gt;Minus -->
<g id="edge3" class="edge">
<title>Scale&#45;&gt;Minus</title>
<path fill="none" stroke="black" d="M248.22,-159.62C243.32,-149.42 236.23,-136.68 227.65,-127 223.97,-122.85 219.72,-118.9 215.3,-115.25"/>
<polygon fill="black" stroke="black" points="217.3,-112.38 207.25,-109.03 213.02,-117.91 217.3,-112.38"/>
<text text-anchor="middle" x="291.65" y="-130.8" font-family="Helvetica,sans-Serif" font-size="14.00">RHSWorkspace</text>
</g>
<!-- Minus&#45;&gt;OutputWorkspace -->
<g id="edge5" class="edge">
<title>Minus&#45;&gt;OutputWorkspace</title>
<path fill="none" stroke="black" d="M179.65,-72.81C179.65,-64.79 179.65,-55.05 179.65,-46.07"/>
<polygon fill="black" stroke="black" points="183.15,-46.03 179.65,-36.03 176.15,-46.03 183.15,-46.03"/>
</g>
</g>
</svg>
