<?xml version="1.0" encoding="UTF-8" standalone="no"?>
<!DOCTYPE svg PUBLIC "-//W3C//DTD SVG 1.1//EN"
 "http://www.w3.org/Graphics/SVG/1.1/DTD/svg11.dtd">
<!-- Generated by graphviz version 2.47.2 (20210527.1257)
 -->
<!-- Title: ApplyPaalmanPingsCorrection_TwoFactorCorrection Pages: 1 -->
<svg width="1193pt" height="648pt"
 viewBox="0.00 0.00 1192.50 648.00" xmlns="http://www.w3.org/2000/svg" xmlns:xlink="http://www.w3.org/1999/xlink">
<g id="graph0" class="graph" transform="scale(1 1) rotate(0) translate(4 644)">
<title>ApplyPaalmanPingsCorrection_TwoFactorCorrection</title>
<polygon fill="white" stroke="transparent" points="-4,4 -4,-644 1188.5,-644 1188.5,4 -4,4"/>
<text text-anchor="middle" x="592.25" y="-624.8" font-family="Helvetica" font-size="14.00">ApplyPaalmanPingsCorrection Two Factor Corrections Flowchart</text>
<!-- IsAccInWavelength -->
<g id="node1" class="node">
<title>IsAccInWavelength</title>
<polygon fill="limegreen" stroke="black" points="520.5,-443 406.55,-425 520.5,-407 634.45,-425 520.5,-443"/>
<text text-anchor="middle" x="520.5" y="-421.3" font-family="Helvetica" font-size="14.00">Is in Wavelength?</text>
</g>
<!-- ConvertUnits_Acc -->
<g id="node14" class="node">
<title>ConvertUnits_Acc</title>
<path fill="lightskyblue" stroke="black" d="M464,-356C464,-356 393,-356 393,-356 387,-356 381,-350 381,-344 381,-344 381,-332 381,-332 381,-326 387,-320 393,-320 393,-320 464,-320 464,-320 470,-320 476,-326 476,-332 476,-332 476,-344 476,-344 476,-350 470,-356 464,-356"/>
<text text-anchor="middle" x="428.5" y="-334.3" font-family="Helvetica" font-size="14.00">ConvertUnits</text>
</g>
<!-- IsAccInWavelength&#45;&gt;ConvertUnits_Acc -->
<g id="edge3" class="edge">
<title>IsAccInWavelength&#45;&gt;ConvertUnits_Acc</title>
<path fill="none" stroke="black" d="M504.47,-409.19C490.76,-396.52 470.75,-378.03 454.71,-363.21"/>
<polygon fill="black" stroke="black" points="456.91,-360.49 447.19,-356.27 452.16,-365.63 456.91,-360.49"/>
<text text-anchor="middle" x="488.5" y="-377.8" font-family="Helvetica" font-size="14.00">No</text>
</g>
<!-- Divide_Can -->
<g id="node20" class="node">
<title>Divide_Can</title>
<path fill="lightskyblue" stroke="black" d="M485.5,-269C485.5,-269 455.5,-269 455.5,-269 449.5,-269 443.5,-263 443.5,-257 443.5,-257 443.5,-245 443.5,-245 443.5,-239 449.5,-233 455.5,-233 455.5,-233 485.5,-233 485.5,-233 491.5,-233 497.5,-239 497.5,-245 497.5,-245 497.5,-257 497.5,-257 497.5,-263 491.5,-269 485.5,-269"/>
<text text-anchor="middle" x="470.5" y="-247.3" font-family="Helvetica" font-size="14.00">Divide</text>
</g>
<!-- IsAccInWavelength&#45;&gt;Divide_Can -->
<g id="edge17" class="edge">
<title>IsAccInWavelength&#45;&gt;Divide_Can</title>
<path fill="none" stroke="black" d="M523.58,-407.31C527.69,-380.37 532.35,-326.35 512.5,-287 510.58,-283.19 508.03,-279.63 505.14,-276.36"/>
<polygon fill="black" stroke="black" points="507.5,-273.77 497.91,-269.27 502.6,-278.77 507.5,-273.77"/>
<text text-anchor="middle" x="590" y="-334.3" font-family="Helvetica" font-size="14.00">Yes, RHSWorkspace</text>
</g>
<!-- IsAssInWavelength -->
<g id="node2" class="node">
<title>IsAssInWavelength</title>
<polygon fill="limegreen" stroke="black" points="766.5,-443 652.55,-425 766.5,-407 880.45,-425 766.5,-443"/>
<text text-anchor="middle" x="766.5" y="-421.3" font-family="Helvetica" font-size="14.00">Is in Wavelength?</text>
</g>
<!-- ConvertUnits_Ass -->
<g id="node15" class="node">
<title>ConvertUnits_Ass</title>
<path fill="lightskyblue" stroke="black" d="M755,-356C755,-356 684,-356 684,-356 678,-356 672,-350 672,-344 672,-344 672,-332 672,-332 672,-326 678,-320 684,-320 684,-320 755,-320 755,-320 761,-320 767,-326 767,-332 767,-332 767,-344 767,-344 767,-350 761,-356 755,-356"/>
<text text-anchor="middle" x="719.5" y="-334.3" font-family="Helvetica" font-size="14.00">ConvertUnits</text>
</g>
<!-- IsAssInWavelength&#45;&gt;ConvertUnits_Ass -->
<g id="edge4" class="edge">
<title>IsAssInWavelength&#45;&gt;ConvertUnits_Ass</title>
<path fill="none" stroke="black" d="M757.66,-408.01C751.01,-395.98 741.74,-379.22 734,-365.23"/>
<polygon fill="black" stroke="black" points="736.85,-363.14 728.95,-356.08 730.72,-366.53 736.85,-363.14"/>
<text text-anchor="middle" x="754.5" y="-377.8" font-family="Helvetica" font-size="14.00">No</text>
</g>
<!-- Divide_Sample -->
<g id="node19" class="node">
<title>Divide_Sample</title>
<path fill="lightskyblue" stroke="black" d="M818.5,-269C818.5,-269 788.5,-269 788.5,-269 782.5,-269 776.5,-263 776.5,-257 776.5,-257 776.5,-245 776.5,-245 776.5,-239 782.5,-233 788.5,-233 788.5,-233 818.5,-233 818.5,-233 824.5,-233 830.5,-239 830.5,-245 830.5,-245 830.5,-257 830.5,-257 830.5,-263 824.5,-269 818.5,-269"/>
<text text-anchor="middle" x="803.5" y="-247.3" font-family="Helvetica" font-size="14.00">Divide</text>
</g>
<!-- IsAssInWavelength&#45;&gt;Divide_Sample -->
<g id="edge14" class="edge">
<title>IsAssInWavelength&#45;&gt;Divide_Sample</title>
<path fill="none" stroke="black" d="M770.05,-407.51C776.44,-377.81 789.93,-315.1 797.68,-279.05"/>
<polygon fill="black" stroke="black" points="801.12,-279.72 799.8,-269.21 794.27,-278.25 801.12,-279.72"/>
<text text-anchor="middle" x="852" y="-334.3" font-family="Helvetica" font-size="14.00">Yes, RHSWorkspace</text>
</g>
<!-- IsSampleInWavelength -->
<g id="node3" class="node">
<title>IsSampleInWavelength</title>
<polygon fill="limegreen" stroke="black" points="1046.5,-443 932.55,-425 1046.5,-407 1160.45,-425 1046.5,-443"/>
<text text-anchor="middle" x="1046.5" y="-421.3" font-family="Helvetica" font-size="14.00">Is in Wavelength?</text>
</g>
<!-- ConvertUnits_Sample -->
<g id="node16" class="node">
<title>ConvertUnits_Sample</title>
<path fill="lightskyblue" stroke="black" d="M1032,-356C1032,-356 961,-356 961,-356 955,-356 949,-350 949,-344 949,-344 949,-332 949,-332 949,-326 955,-320 961,-320 961,-320 1032,-320 1032,-320 1038,-320 1044,-326 1044,-332 1044,-332 1044,-344 1044,-344 1044,-350 1038,-356 1032,-356"/>
<text text-anchor="middle" x="996.5" y="-334.3" font-family="Helvetica" font-size="14.00">ConvertUnits</text>
</g>
<!-- IsSampleInWavelength&#45;&gt;ConvertUnits_Sample -->
<g id="edge5" class="edge">
<title>IsSampleInWavelength&#45;&gt;ConvertUnits_Sample</title>
<path fill="none" stroke="black" d="M1037.33,-408.41C1030.21,-396.3 1020.17,-379.24 1011.83,-365.06"/>
<polygon fill="black" stroke="black" points="1014.73,-363.09 1006.64,-356.25 1008.7,-366.64 1014.73,-363.09"/>
<text text-anchor="middle" x="1032.5" y="-377.8" font-family="Helvetica" font-size="14.00">No</text>
</g>
<!-- IsSampleInWavelength&#45;&gt;Divide_Sample -->
<g id="edge12" class="edge">
<title>IsSampleInWavelength&#45;&gt;Divide_Sample</title>
<path fill="none" stroke="black" d="M1052.41,-407.86C1059.19,-386.52 1067.66,-348.33 1053.5,-320 1042.57,-298.14 1031.96,-296.65 1009.5,-287 953.89,-263.1 883.25,-255.49 840.81,-253.08"/>
<polygon fill="black" stroke="black" points="840.81,-249.58 830.65,-252.58 840.46,-256.57 840.81,-249.58"/>
<text text-anchor="middle" x="1122.5" y="-334.3" font-family="Helvetica" font-size="14.00">Yes, LHSWorkspace</text>
</g>
<!-- IsCanInWavelength -->
<g id="node4" class="node">
<title>IsCanInWavelength</title>
<polygon fill="limegreen" stroke="black" points="167.5,-617 53.55,-599 167.5,-581 281.45,-599 167.5,-617"/>
<text text-anchor="middle" x="167.5" y="-595.3" font-family="Helvetica" font-size="14.00">Is in Wavelength?</text>
</g>
<!-- ScaleX -->
<g id="node11" class="node">
<title>ScaleX</title>
<path fill="lightskyblue" stroke="black" d="M200,-443C200,-443 165,-443 165,-443 159,-443 153,-437 153,-431 153,-431 153,-419 153,-419 153,-413 159,-407 165,-407 165,-407 200,-407 200,-407 206,-407 212,-413 212,-419 212,-419 212,-431 212,-431 212,-437 206,-443 200,-443"/>
<text text-anchor="middle" x="182.5" y="-421.3" font-family="Helvetica" font-size="14.00">ScaleX</text>
</g>
<!-- IsCanInWavelength&#45;&gt;ScaleX -->
<g id="edge8" class="edge">
<title>IsCanInWavelength&#45;&gt;ScaleX</title>
<path fill="none" stroke="black" d="M197.24,-585.63C219.43,-574.62 248.12,-556.19 261.5,-530 268.78,-515.75 268.17,-508.54 261.5,-494 252.97,-475.4 236.57,-459.97 220.91,-448.53"/>
<polygon fill="black" stroke="black" points="222.55,-445.41 212.34,-442.59 218.56,-451.17 222.55,-445.41"/>
<text text-anchor="middle" x="278" y="-508.3" font-family="Helvetica" font-size="14.00">Yes</text>
</g>
<!-- ConvertUnits_Can -->
<g id="node17" class="node">
<title>ConvertUnits_Can</title>
<path fill="lightskyblue" stroke="black" d="M83,-530C83,-530 12,-530 12,-530 6,-530 0,-524 0,-518 0,-518 0,-506 0,-506 0,-500 6,-494 12,-494 12,-494 83,-494 83,-494 89,-494 95,-500 95,-506 95,-506 95,-518 95,-518 95,-524 89,-530 83,-530"/>
<text text-anchor="middle" x="47.5" y="-508.3" font-family="Helvetica" font-size="14.00">ConvertUnits</text>
</g>
<!-- IsCanInWavelength&#45;&gt;ConvertUnits_Can -->
<g id="edge6" class="edge">
<title>IsCanInWavelength&#45;&gt;ConvertUnits_Can</title>
<path fill="none" stroke="black" d="M147.68,-583.96C129.35,-570.98 101.75,-551.43 80.16,-536.13"/>
<polygon fill="black" stroke="black" points="82.09,-533.21 71.91,-530.29 78.05,-538.93 82.09,-533.21"/>
<text text-anchor="middle" x="124.5" y="-551.8" font-family="Helvetica" font-size="14.00">No</text>
</g>
<!-- SampleWorkspace -->
<g id="node5" class="node">
<title>SampleWorkspace</title>
<ellipse fill="khaki" stroke="black" cx="384.5" cy="-599" rx="85.29" ry="18"/>
<text text-anchor="middle" x="384.5" y="-595.3" font-family="Helvetica" font-size="14.00">SampleWorkspace</text>
</g>
<!-- CorrectionsWorkspace -->
<g id="node6" class="node">
<title>CorrectionsWorkspace</title>
<ellipse fill="khaki" stroke="black" cx="643.5" cy="-512" rx="99.38" ry="18"/>
<text text-anchor="middle" x="643.5" y="-508.3" font-family="Helvetica" font-size="14.00">CorrectionsWorkspace</text>
</g>
<!-- CorrectionsWorkspace&#45;&gt;IsAccInWavelength -->
<g id="edge1" class="edge">
<title>CorrectionsWorkspace&#45;&gt;IsAccInWavelength</title>
<path fill="none" stroke="black" d="M619.49,-494.41C599.34,-480.48 570.5,-460.55 549.14,-445.79"/>
<polygon fill="black" stroke="black" points="551,-442.82 540.78,-440.02 547.02,-448.58 551,-442.82"/>
<text text-anchor="middle" x="602" y="-464.8" font-family="Helvetica" font-size="14.00">Ac,c</text>
</g>
<!-- CorrectionsWorkspace&#45;&gt;IsAssInWavelength -->
<g id="edge2" class="edge">
<title>CorrectionsWorkspace&#45;&gt;IsAssInWavelength</title>
<path fill="none" stroke="black" d="M667.51,-494.41C687.66,-480.48 716.5,-460.55 737.86,-445.79"/>
<polygon fill="black" stroke="black" points="739.98,-448.58 746.22,-440.02 736,-442.82 739.98,-448.58"/>
<text text-anchor="middle" x="725" y="-464.8" font-family="Helvetica" font-size="14.00">As,s</text>
</g>
<!-- CanWorkspace -->
<g id="node7" class="node">
<title>CanWorkspace</title>
<ellipse fill="khaki" stroke="black" cx="558.5" cy="-599" rx="70.69" ry="18"/>
<text text-anchor="middle" x="558.5" y="-595.3" font-family="Helvetica" font-size="14.00">CanWorkspace</text>
</g>
<!-- CanScaleFactor -->
<g id="node8" class="node">
<title>CanScaleFactor</title>
<ellipse fill="khaki" stroke="black" cx="303.5" cy="-425" rx="73.39" ry="18"/>
<text text-anchor="middle" x="303.5" y="-421.3" font-family="Helvetica" font-size="14.00">CanScaleFactor</text>
</g>
<!-- Scale -->
<g id="node12" class="node">
<title>Scale</title>
<path fill="lightskyblue" stroke="black" d="M312.5,-356C312.5,-356 282.5,-356 282.5,-356 276.5,-356 270.5,-350 270.5,-344 270.5,-344 270.5,-332 270.5,-332 270.5,-326 276.5,-320 282.5,-320 282.5,-320 312.5,-320 312.5,-320 318.5,-320 324.5,-326 324.5,-332 324.5,-332 324.5,-344 324.5,-344 324.5,-350 318.5,-356 312.5,-356"/>
<text text-anchor="middle" x="297.5" y="-334.3" font-family="Helvetica" font-size="14.00">Scale</text>
</g>
<!-- CanScaleFactor&#45;&gt;Scale -->
<g id="edge10" class="edge">
<title>CanScaleFactor&#45;&gt;Scale</title>
<path fill="none" stroke="black" d="M302.29,-406.8C301.46,-395.16 300.36,-379.55 299.42,-366.24"/>
<polygon fill="black" stroke="black" points="302.91,-365.9 298.71,-356.18 295.93,-366.4 302.91,-365.9"/>
</g>
<!-- CanShiftFactor -->
<g id="node9" class="node">
<title>CanShiftFactor</title>
<ellipse fill="khaki" stroke="black" cx="182.5" cy="-512" rx="69.59" ry="18"/>
<text text-anchor="middle" x="182.5" y="-508.3" font-family="Helvetica" font-size="14.00">CanShiftFactor</text>
</g>
<!-- CanShiftFactor&#45;&gt;ScaleX -->
<g id="edge9" class="edge">
<title>CanShiftFactor&#45;&gt;ScaleX</title>
<path fill="none" stroke="black" d="M182.5,-493.8C182.5,-482.16 182.5,-466.55 182.5,-453.24"/>
<polygon fill="black" stroke="black" points="186,-453.18 182.5,-443.18 179,-453.18 186,-453.18"/>
</g>
<!-- OutputWorkspace -->
<g id="node10" class="node">
<title>OutputWorkspace</title>
<ellipse fill="khaki" stroke="black" cx="584.5" cy="-18" rx="81.49" ry="18"/>
<text text-anchor="middle" x="584.5" y="-14.3" font-family="Helvetica" font-size="14.00">OutputWorkspace</text>
</g>
<!-- ScaleX&#45;&gt;Scale -->
<g id="edge11" class="edge">
<title>ScaleX&#45;&gt;Scale</title>
<path fill="none" stroke="black" d="M205.77,-406.8C223.15,-393.95 247.09,-376.26 266.16,-362.17"/>
<polygon fill="black" stroke="black" points="268.3,-364.93 274.26,-356.18 264.14,-359.3 268.3,-364.93"/>
</g>
<!-- Scale&#45;&gt;Divide_Can -->
<g id="edge16" class="edge">
<title>Scale&#45;&gt;Divide_Can</title>
<path fill="none" stroke="black" d="M299.09,-319.83C301.01,-308.92 305.22,-295.33 314.5,-287 331.74,-271.51 392.85,-261.34 433.27,-256.14"/>
<polygon fill="black" stroke="black" points="433.82,-259.6 443.32,-254.89 432.96,-252.65 433.82,-259.6"/>
<text text-anchor="middle" x="361.5" y="-290.8" font-family="Helvetica" font-size="14.00">LHSWorkspace</text>
</g>
<!-- Minus -->
<g id="node13" class="node">
<title>Minus</title>
<path fill="lightskyblue" stroke="black" d="M599.5,-182C599.5,-182 569.5,-182 569.5,-182 563.5,-182 557.5,-176 557.5,-170 557.5,-170 557.5,-158 557.5,-158 557.5,-152 563.5,-146 569.5,-146 569.5,-146 599.5,-146 599.5,-146 605.5,-146 611.5,-152 611.5,-158 611.5,-158 611.5,-170 611.5,-170 611.5,-176 605.5,-182 599.5,-182"/>
<text text-anchor="middle" x="584.5" y="-160.3" font-family="Helvetica" font-size="14.00">Minus</text>
</g>
<!-- ConvertUnits_Final -->
<g id="node18" class="node">
<title>ConvertUnits_Final</title>
<path fill="lightskyblue" stroke="black" d="M620,-109C620,-109 549,-109 549,-109 543,-109 537,-103 537,-97 537,-97 537,-85 537,-85 537,-79 543,-73 549,-73 549,-73 620,-73 620,-73 626,-73 632,-79 632,-85 632,-85 632,-97 632,-97 632,-103 626,-109 620,-109"/>
<text text-anchor="middle" x="584.5" y="-87.3" font-family="Helvetica" font-size="14.00">ConvertUnits</text>
</g>
<!-- Minus&#45;&gt;ConvertUnits_Final -->
<g id="edge21" class="edge">
<title>Minus&#45;&gt;ConvertUnits_Final</title>
<path fill="none" stroke="black" d="M584.5,-145.81C584.5,-137.79 584.5,-128.05 584.5,-119.07"/>
<polygon fill="black" stroke="black" points="588,-119.03 584.5,-109.03 581,-119.03 588,-119.03"/>
</g>
<!-- ConvertUnits_Acc&#45;&gt;Divide_Can -->
<g id="edge18" class="edge">
<title>ConvertUnits_Acc&#45;&gt;Divide_Can</title>
<path fill="none" stroke="black" d="M417.86,-319.55C413.23,-309.56 409.98,-297.06 415.5,-287 419.85,-279.08 426.82,-272.7 434.37,-267.67"/>
<polygon fill="black" stroke="black" points="436.53,-270.46 443.37,-262.37 432.98,-264.43 436.53,-270.46"/>
<text text-anchor="middle" x="464" y="-290.8" font-family="Helvetica" font-size="14.00">RHSWorkspace</text>
</g>
<!-- ConvertUnits_Ass&#45;&gt;Divide_Sample -->
<g id="edge15" class="edge">
<title>ConvertUnits_Ass&#45;&gt;Divide_Sample</title>
<path fill="none" stroke="black" d="M700.4,-319.64C691.78,-309.68 685.03,-297.18 692.5,-287 709.3,-264.08 741.14,-255.78 766.42,-252.96"/>
<polygon fill="black" stroke="black" points="766.79,-256.44 776.44,-252.07 766.18,-249.46 766.79,-256.44"/>
<text text-anchor="middle" x="741" y="-290.8" font-family="Helvetica" font-size="14.00">RHSWorkspace</text>
</g>
<!-- ConvertUnits_Sample&#45;&gt;Divide_Sample -->
<g id="edge13" class="edge">
<title>ConvertUnits_Sample&#45;&gt;Divide_Sample</title>
<path fill="none" stroke="black" d="M957.44,-319.8C923.16,-304.7 873.66,-282.9 840.12,-268.13"/>
<polygon fill="black" stroke="black" points="841.25,-264.8 830.69,-263.97 838.43,-271.21 841.25,-264.8"/>
<text text-anchor="middle" x="958.5" y="-290.8" font-family="Helvetica" font-size="14.00">LHSWorkspace</text>
</g>
<!-- ConvertUnits_Can&#45;&gt;ScaleX -->
<g id="edge7" class="edge">
<title>ConvertUnits_Can&#45;&gt;ScaleX</title>
<path fill="none" stroke="black" d="M74.82,-493.8C95.5,-480.78 124.08,-462.78 146.61,-448.6"/>
<polygon fill="black" stroke="black" points="148.62,-451.47 155.22,-443.18 144.89,-445.54 148.62,-451.47"/>
</g>
<!-- ConvertUnits_Final&#45;&gt;OutputWorkspace -->
<g id="edge22" class="edge">
<title>ConvertUnits_Final&#45;&gt;OutputWorkspace</title>
<path fill="none" stroke="black" d="M584.5,-72.81C584.5,-64.79 584.5,-55.05 584.5,-46.07"/>
<polygon fill="black" stroke="black" points="588,-46.03 584.5,-36.03 581,-46.03 588,-46.03"/>
</g>
<!-- Divide_Sample&#45;&gt;Minus -->
<g id="edge19" class="edge">
<title>Divide_Sample&#45;&gt;Minus</title>
<path fill="none" stroke="black" d="M776.21,-239.41C737.08,-224.22 664.97,-196.23 621.21,-179.25"/>
<polygon fill="black" stroke="black" points="622.38,-175.95 611.79,-175.59 619.85,-182.47 622.38,-175.95"/>
<text text-anchor="middle" x="753.5" y="-203.8" font-family="Helvetica" font-size="14.00">LHSWorkspace</text>
</g>
<!-- Divide_Can&#45;&gt;Minus -->
<g id="edge20" class="edge">
<title>Divide_Can&#45;&gt;Minus</title>
<path fill="none" stroke="black" d="M493.57,-232.8C510.8,-219.95 534.53,-202.26 553.43,-188.17"/>
<polygon fill="black" stroke="black" points="555.54,-190.96 561.46,-182.18 551.36,-185.35 555.54,-190.96"/>
<text text-anchor="middle" x="582" y="-203.8" font-family="Helvetica" font-size="14.00">RHSWorkspace</text>
</g>
</g>
</svg>
