<?xml version="1.0" encoding="UTF-8" standalone="no"?>
<!DOCTYPE svg PUBLIC "-//W3C//DTD SVG 1.1//EN"
 "http://www.w3.org/Graphics/SVG/1.1/DTD/svg11.dtd">
<!-- Generated by graphviz version 2.40.1 (20161225.0304)
 -->
<!-- Title: ApplyPaalmanPingsCorrection_SampleCorrectOnly Pages: 1 -->
<svg width="456pt" height="401pt"
 viewBox="0.00 0.00 455.64 401.00" xmlns="http://www.w3.org/2000/svg" xmlns:xlink="http://www.w3.org/1999/xlink">
<g id="graph0" class="graph" transform="scale(1 1) rotate(0) translate(4 397)">
<title>ApplyPaalmanPingsCorrection_SampleCorrectOnly</title>
<polygon fill="#ffffff" stroke="transparent" points="-4,4 -4,-397 451.6424,-397 451.6424,4 -4,4"/>
<text text-anchor="middle" x="223.8212" y="-377.8" font-family="Helvetica,sans-Serif" font-size="14.00" fill="#000000">ApplyPaalmanPingsCorrection Sample Correct Only Flowchart</text>
<!-- IsAssInWavelength -->
<g id="node1" class="node">
<title>IsAssInWavelength</title>
<polygon fill="#32cd32" stroke="#000000" points="222.1424,-283 107.353,-265 222.1424,-247 336.9319,-265 222.1424,-283"/>
<text text-anchor="middle" x="222.1424" y="-261.3" font-family="Helvetica,sans-Serif" font-size="14.00" fill="#000000">Is in Wavelength?</text>
</g>
<!-- Divide -->
<g id="node5" class="node">
<title>Divide</title>
<path fill="#87cefa" stroke="#000000" d="M221.1424,-109C221.1424,-109 191.1424,-109 191.1424,-109 185.1424,-109 179.1424,-103 179.1424,-97 179.1424,-97 179.1424,-85 179.1424,-85 179.1424,-79 185.1424,-73 191.1424,-73 191.1424,-73 221.1424,-73 221.1424,-73 227.1424,-73 233.1424,-79 233.1424,-85 233.1424,-85 233.1424,-97 233.1424,-97 233.1424,-103 227.1424,-109 221.1424,-109"/>
<text text-anchor="middle" x="206.1424" y="-87.3" font-family="Helvetica,sans-Serif" font-size="14.00" fill="#000000">Divide</text>
</g>
<!-- IsAssInWavelength&#45;&gt;Divide -->
<g id="edge3" class="edge">
<title>IsAssInWavelength&#45;&gt;Divide</title>
<path fill="none" stroke="#000000" d="M220.4904,-247.0343C217.7119,-216.8176 212.082,-155.5928 208.7605,-119.4709"/>
<polygon fill="#000000" stroke="#000000" points="212.2105,-118.7661 207.8094,-109.1286 205.2399,-119.4071 212.2105,-118.7661"/>
<text text-anchor="middle" x="280.1424" y="-174.3" font-family="Helvetica,sans-Serif" font-size="14.00" fill="#000000">Yes, RHSWorkspace</text>
</g>
<!-- ConvertUnits -->
<g id="node6" class="node">
<title>ConvertUnits</title>
<path fill="#87cefa" stroke="#000000" d="M435.6424,-196C435.6424,-196 364.6424,-196 364.6424,-196 358.6424,-196 352.6424,-190 352.6424,-184 352.6424,-184 352.6424,-172 352.6424,-172 352.6424,-166 358.6424,-160 364.6424,-160 364.6424,-160 435.6424,-160 435.6424,-160 441.6424,-160 447.6424,-166 447.6424,-172 447.6424,-172 447.6424,-184 447.6424,-184 447.6424,-190 441.6424,-196 435.6424,-196"/>
<text text-anchor="middle" x="400.1424" y="-174.3" font-family="Helvetica,sans-Serif" font-size="14.00" fill="#000000">ConvertUnits</text>
</g>
<!-- IsAssInWavelength&#45;&gt;ConvertUnits -->
<g id="edge4" class="edge">
<title>IsAssInWavelength&#45;&gt;ConvertUnits</title>
<path fill="none" stroke="#000000" d="M250.3471,-251.2146C278.0952,-237.6523 320.946,-216.7084 353.7195,-200.6899"/>
<polygon fill="#000000" stroke="#000000" points="355.6588,-203.6377 363.1062,-196.102 352.585,-197.3487 355.6588,-203.6377"/>
<text text-anchor="middle" x="330.1424" y="-217.8" font-family="Helvetica,sans-Serif" font-size="14.00" fill="#000000">No</text>
</g>
<!-- SampleWorkspace -->
<g id="node2" class="node">
<title>SampleWorkspace</title>
<ellipse fill="#f0e68c" stroke="#000000" cx="85.1424" cy="-178" rx="85.2851" ry="18"/>
<text text-anchor="middle" x="85.1424" y="-174.3" font-family="Helvetica,sans-Serif" font-size="14.00" fill="#000000">SampleWorkspace</text>
</g>
<!-- SampleWorkspace&#45;&gt;Divide -->
<g id="edge1" class="edge">
<title>SampleWorkspace&#45;&gt;Divide</title>
<path fill="none" stroke="#000000" d="M85.1539,-159.9275C86.0967,-149.1374 89.0337,-135.8548 97.1424,-127 107.0617,-116.1681 141.6938,-105.875 169.2923,-99.0913"/>
<polygon fill="#000000" stroke="#000000" points="170.1678,-102.4807 179.0831,-96.7563 168.5439,-95.6717 170.1678,-102.4807"/>
<text text-anchor="middle" x="144.6424" y="-130.8" font-family="Helvetica,sans-Serif" font-size="14.00" fill="#000000">LHSWorkspace</text>
</g>
<!-- CorrectionsWorkspace -->
<g id="node3" class="node">
<title>CorrectionsWorkspace</title>
<ellipse fill="#f0e68c" stroke="#000000" cx="222.1424" cy="-352" rx="100.1823" ry="18"/>
<text text-anchor="middle" x="222.1424" y="-348.3" font-family="Helvetica,sans-Serif" font-size="14.00" fill="#000000">CorrectionsWorkspace</text>
</g>
<!-- CorrectionsWorkspace&#45;&gt;IsAssInWavelength -->
<g id="edge2" class="edge">
<title>CorrectionsWorkspace&#45;&gt;IsAssInWavelength</title>
<path fill="none" stroke="#000000" d="M222.1424,-333.9735C222.1424,-322.1918 222.1424,-306.5607 222.1424,-293.1581"/>
<polygon fill="#000000" stroke="#000000" points="225.6425,-293.0033 222.1424,-283.0034 218.6425,-293.0034 225.6425,-293.0033"/>
<text text-anchor="middle" x="235.6424" y="-304.8" font-family="Helvetica,sans-Serif" font-size="14.00" fill="#000000">As,s</text>
</g>
<!-- OutputWorkspace -->
<g id="node4" class="node">
<title>OutputWorkspace</title>
<ellipse fill="#f0e68c" stroke="#000000" cx="206.1424" cy="-18" rx="81.7856" ry="18"/>
<text text-anchor="middle" x="206.1424" y="-14.3" font-family="Helvetica,sans-Serif" font-size="14.00" fill="#000000">OutputWorkspace</text>
</g>
<!-- Divide&#45;&gt;OutputWorkspace -->
<g id="edge6" class="edge">
<title>Divide&#45;&gt;OutputWorkspace</title>
<path fill="none" stroke="#000000" d="M206.1424,-72.9551C206.1424,-64.8828 206.1424,-55.1764 206.1424,-46.1817"/>
<polygon fill="#000000" stroke="#000000" points="209.6425,-46.0903 206.1424,-36.0904 202.6425,-46.0904 209.6425,-46.0903"/>
</g>
<!-- ConvertUnits&#45;&gt;Divide -->
<g id="edge5" class="edge">
<title>ConvertUnits&#45;&gt;Divide</title>
<path fill="none" stroke="#000000" d="M359.9455,-159.9735C325.3992,-144.4811 276.0109,-122.3328 242.5959,-107.3477"/>
<polygon fill="#000000" stroke="#000000" points="243.7537,-104.0311 233.197,-103.1327 240.8893,-110.4183 243.7537,-104.0311"/>
<text text-anchor="middle" x="362.6424" y="-130.8" font-family="Helvetica,sans-Serif" font-size="14.00" fill="#000000">RHSWorkspace</text>
</g>
</g>
</svg>
