<?xml version="1.0" encoding="UTF-8" standalone="no"?>
<!DOCTYPE svg PUBLIC "-//W3C//DTD SVG 1.1//EN"
 "http://www.w3.org/Graphics/SVG/1.1/DTD/svg11.dtd">
<!-- Generated by graphviz version 2.47.2 (20210527.1257)
 -->
<!-- Title: ApplyPaalmanPingsCorrection_CanScaleOnly Pages: 1 -->
<svg width="403pt" height="300pt"
 viewBox="0.00 0.00 403.00 300.00" xmlns="http://www.w3.org/2000/svg" xmlns:xlink="http://www.w3.org/1999/xlink">
<g id="graph0" class="graph" transform="scale(1 1) rotate(0) translate(4 296)">
<title>ApplyPaalmanPingsCorrection_CanScaleOnly</title>
<polygon fill="white" stroke="transparent" points="-4,4 -4,-296 399,-296 399,4 -4,4"/>
<text text-anchor="middle" x="197.5" y="-276.8" font-family="Helvetica" font-size="14.00">ApplyPaalmanPingsCorrection Container Scale Only Flowchart</text>
<!-- SampleWorkspace -->
<g id="node1" class="node">
<title>SampleWorkspace</title>
<ellipse fill="khaki" stroke="black" cx="97.85" cy="-178" rx="85.29" ry="18"/>
<text text-anchor="middle" x="97.85" y="-174.3" font-family="Helvetica" font-size="14.00">SampleWorkspace</text>
</g>
<!-- Minus -->
<g id="node6" class="node">
<title>Minus</title>
<path fill="lightskyblue" stroke="black" d="M173.85,-109C173.85,-109 143.85,-109 143.85,-109 137.85,-109 131.85,-103 131.85,-97 131.85,-97 131.85,-85 131.85,-85 131.85,-79 137.85,-73 143.85,-73 143.85,-73 173.85,-73 173.85,-73 179.85,-73 185.85,-79 185.85,-85 185.85,-85 185.85,-97 185.85,-97 185.85,-103 179.85,-109 173.85,-109"/>
<text text-anchor="middle" x="158.85" y="-87.3" font-family="Helvetica" font-size="14.00">Minus</text>
</g>
<!-- SampleWorkspace&#45;&gt;Minus -->
<g id="edge4" class="edge">
<title>SampleWorkspace&#45;&gt;Minus</title>
<path fill="none" stroke="black" d="M96.82,-159.57C97.02,-149.35 98.73,-136.61 104.85,-127 109.37,-119.91 115.89,-113.97 122.86,-109.11"/>
<polygon fill="black" stroke="black" points="125.17,-111.79 131.79,-103.52 121.46,-105.85 125.17,-111.79"/>
<text text-anchor="middle" x="151.85" y="-130.8" font-family="Helvetica" font-size="14.00">LHSWorkspace</text>
</g>
<!-- CanWorkspace -->
<g id="node2" class="node">
<title>CanWorkspace</title>
<ellipse fill="khaki" stroke="black" cx="146.85" cy="-251" rx="70.69" ry="18"/>
<text text-anchor="middle" x="146.85" y="-247.3" font-family="Helvetica" font-size="14.00">CanWorkspace</text>
</g>
<!-- Scale -->
<g id="node5" class="node">
<title>Scale</title>
<path fill="lightskyblue" stroke="black" d="M242.85,-196C242.85,-196 212.85,-196 212.85,-196 206.85,-196 200.85,-190 200.85,-184 200.85,-184 200.85,-172 200.85,-172 200.85,-166 206.85,-160 212.85,-160 212.85,-160 242.85,-160 242.85,-160 248.85,-160 254.85,-166 254.85,-172 254.85,-172 254.85,-184 254.85,-184 254.85,-190 248.85,-196 242.85,-196"/>
<text text-anchor="middle" x="227.85" y="-174.3" font-family="Helvetica" font-size="14.00">Scale</text>
</g>
<!-- CanWorkspace&#45;&gt;Scale -->
<g id="edge1" class="edge">
<title>CanWorkspace&#45;&gt;Scale</title>
<path fill="none" stroke="black" d="M165.64,-233.53C176.04,-224.41 189.16,-212.91 200.66,-202.83"/>
<polygon fill="black" stroke="black" points="203.11,-205.34 208.32,-196.12 198.49,-200.08 203.11,-205.34"/>
</g>
<!-- CanScaleFactor -->
<g id="node3" class="node">
<title>CanScaleFactor</title>
<ellipse fill="khaki" stroke="black" cx="308.85" cy="-251" rx="73.39" ry="18"/>
<text text-anchor="middle" x="308.85" y="-247.3" font-family="Helvetica" font-size="14.00">CanScaleFactor</text>
</g>
<!-- CanScaleFactor&#45;&gt;Scale -->
<g id="edge2" class="edge">
<title>CanScaleFactor&#45;&gt;Scale</title>
<path fill="none" stroke="black" d="M290.06,-233.53C279.66,-224.41 266.54,-212.91 255.03,-202.83"/>
<polygon fill="black" stroke="black" points="257.21,-200.08 247.38,-196.12 252.59,-205.34 257.21,-200.08"/>
</g>
<!-- OutputWorkspace -->
<g id="node4" class="node">
<title>OutputWorkspace</title>
<ellipse fill="khaki" stroke="black" cx="158.85" cy="-18" rx="81.49" ry="18"/>
<text text-anchor="middle" x="158.85" y="-14.3" font-family="Helvetica" font-size="14.00">OutputWorkspace</text>
</g>
<!-- Scale&#45;&gt;Minus -->
<g id="edge3" class="edge">
<title>Scale&#45;&gt;Minus</title>
<path fill="none" stroke="black" d="M219.72,-159.91C214.49,-149.81 207.14,-137.07 198.85,-127 195.79,-123.28 192.31,-119.62 188.71,-116.15"/>
<polygon fill="black" stroke="black" points="190.99,-113.5 181.25,-109.34 186.27,-118.67 190.99,-113.5"/>
<text text-anchor="middle" x="257.35" y="-130.8" font-family="Helvetica" font-size="14.00">RHSWorkspace</text>
</g>
<!-- Minus&#45;&gt;OutputWorkspace -->
<g id="edge5" class="edge">
<title>Minus&#45;&gt;OutputWorkspace</title>
<path fill="none" stroke="black" d="M158.85,-72.81C158.85,-64.79 158.85,-55.05 158.85,-46.07"/>
<polygon fill="black" stroke="black" points="162.35,-46.03 158.85,-36.03 155.35,-46.03 162.35,-46.03"/>
</g>
</g>
</svg>
