<?xml version="1.0" encoding="UTF-8" standalone="no"?>
<!DOCTYPE svg PUBLIC "-//W3C//DTD SVG 1.1//EN"
 "http://www.w3.org/Graphics/SVG/1.1/DTD/svg11.dtd">
<!-- Generated by graphviz version 3.0.0 (20220315.2325)
 -->
<!-- Title: ApplyPaalmanPingsCorrection_FullCorrection Pages: 1 -->
<svg width="866pt" height="662pt"
 viewBox="0.00 0.00 865.68 662.00" xmlns="http://www.w3.org/2000/svg" xmlns:xlink="http://www.w3.org/1999/xlink">
<g id="graph0" class="graph" transform="scale(1 1) rotate(0) translate(4 658)">
<title>ApplyPaalmanPingsCorrection_FullCorrection</title>
<polygon fill="white" stroke="transparent" points="-4,4 -4,-658 861.68,-658 861.68,4 -4,4"/>
<text text-anchor="middle" x="428.84" y="-638.8" font-family="Helvetica,sans-Serif" font-size="14.00">ApplyPaalmanPingsCorrection Full Corrections Flowchart</text>
<!-- IsAccInWavelength -->
<g id="node1" class="node">
<title>IsAccInWavelength</title>
<polygon fill="limegreen" stroke="black" points="128.68,-544 -0.18,-526 128.68,-508 257.55,-526 128.68,-544"/>
<text text-anchor="middle" x="128.68" y="-522.3" font-family="Helvetica,sans-Serif" font-size="14.00">Is in Wavelength?</text>
</g>
<!-- ConvertUnits_Acc -->
<g id="node12" class="node">
<title>ConvertUnits_Acc</title>
<path fill="lightskyblue" stroke="black" d="M132.18,-457C132.18,-457 49.18,-457 49.18,-457 43.18,-457 37.18,-451 37.18,-445 37.18,-445 37.18,-433 37.18,-433 37.18,-427 43.18,-421 49.18,-421 49.18,-421 132.18,-421 132.18,-421 138.18,-421 144.18,-427 144.18,-433 144.18,-433 144.18,-445 144.18,-445 144.18,-451 138.18,-457 132.18,-457"/>
<text text-anchor="middle" x="90.68" y="-435.3" font-family="Helvetica,sans-Serif" font-size="14.00">ConvertUnits</text>
</g>
<!-- IsAccInWavelength&#45;&gt;ConvertUnits_Acc -->
<g id="edge6" class="edge">
<title>IsAccInWavelength&#45;&gt;ConvertUnits_Acc</title>
<path fill="none" stroke="black" d="M121.36,-508.61C116.04,-496.73 108.75,-480.41 102.6,-466.67"/>
<polygon fill="black" stroke="black" points="105.65,-464.91 98.38,-457.21 99.26,-467.77 105.65,-464.91"/>
<text text-anchor="middle" x="122.18" y="-478.8" font-family="Helvetica,sans-Serif" font-size="14.00">No</text>
</g>
<!-- Divide_CanAcc -->
<g id="node15" class="node">
<title>Divide_CanAcc</title>
<path fill="lightskyblue" stroke="black" d="M240.68,-370C240.68,-370 204.68,-370 204.68,-370 198.68,-370 192.68,-364 192.68,-358 192.68,-358 192.68,-346 192.68,-346 192.68,-340 198.68,-334 204.68,-334 204.68,-334 240.68,-334 240.68,-334 246.68,-334 252.68,-340 252.68,-346 252.68,-346 252.68,-358 252.68,-358 252.68,-364 246.68,-370 240.68,-370"/>
<text text-anchor="middle" x="222.68" y="-348.3" font-family="Helvetica,sans-Serif" font-size="14.00">Divide</text>
</g>
<!-- IsAccInWavelength&#45;&gt;Divide_CanAcc -->
<g id="edge10" class="edge">
<title>IsAccInWavelength&#45;&gt;Divide_CanAcc</title>
<path fill="none" stroke="black" d="M137.36,-509.13C153.59,-479.43 188.68,-415.21 208.43,-379.07"/>
<polygon fill="black" stroke="black" points="211.61,-380.55 213.34,-370.1 205.47,-377.2 211.61,-380.55"/>
<text text-anchor="middle" x="254.68" y="-435.3" font-family="Helvetica,sans-Serif" font-size="14.00">Yes, RHSWorkspace</text>
</g>
<!-- IsAcscInWavelength -->
<g id="node2" class="node">
<title>IsAcscInWavelength</title>
<polygon fill="limegreen" stroke="black" points="552.68,-457 423.82,-439 552.68,-421 681.55,-439 552.68,-457"/>
<text text-anchor="middle" x="552.68" y="-435.3" font-family="Helvetica,sans-Serif" font-size="14.00">Is in Wavelength?</text>
</g>
<!-- Multiply -->
<g id="node11" class="node">
<title>Multiply</title>
<path fill="lightskyblue" stroke="black" d="M459.18,-283C459.18,-283 412.18,-283 412.18,-283 406.18,-283 400.18,-277 400.18,-271 400.18,-271 400.18,-259 400.18,-259 400.18,-253 406.18,-247 412.18,-247 412.18,-247 459.18,-247 459.18,-247 465.18,-247 471.18,-253 471.18,-259 471.18,-259 471.18,-271 471.18,-271 471.18,-277 465.18,-283 459.18,-283"/>
<text text-anchor="middle" x="435.68" y="-261.3" font-family="Helvetica,sans-Serif" font-size="14.00">Multiply</text>
</g>
<!-- IsAcscInWavelength&#45;&gt;Multiply -->
<g id="edge13" class="edge">
<title>IsAcscInWavelength&#45;&gt;Multiply</title>
<path fill="none" stroke="black" d="M556.09,-421.12C560.75,-392.94 565.63,-335.94 537.68,-301 524.08,-283.99 501.77,-275.21 481.48,-270.7"/>
<polygon fill="black" stroke="black" points="481.91,-267.21 471.42,-268.75 480.58,-274.09 481.91,-267.21"/>
<text text-anchor="middle" x="627.68" y="-348.3" font-family="Helvetica,sans-Serif" font-size="14.00">Yes, RHSWorkspace</text>
</g>
<!-- ConvertUnits_Acsc -->
<g id="node13" class="node">
<title>ConvertUnits_Acsc</title>
<path fill="lightskyblue" stroke="black" d="M487.18,-370C487.18,-370 404.18,-370 404.18,-370 398.18,-370 392.18,-364 392.18,-358 392.18,-358 392.18,-346 392.18,-346 392.18,-340 398.18,-334 404.18,-334 404.18,-334 487.18,-334 487.18,-334 493.18,-334 499.18,-340 499.18,-346 499.18,-346 499.18,-358 499.18,-358 499.18,-364 493.18,-370 487.18,-370"/>
<text text-anchor="middle" x="445.68" y="-348.3" font-family="Helvetica,sans-Serif" font-size="14.00">ConvertUnits</text>
</g>
<!-- IsAcscInWavelength&#45;&gt;ConvertUnits_Acsc -->
<g id="edge7" class="edge">
<title>IsAcscInWavelength&#45;&gt;ConvertUnits_Acsc</title>
<path fill="none" stroke="black" d="M534.04,-423.19C517.88,-410.35 494.18,-391.53 475.4,-376.61"/>
<polygon fill="black" stroke="black" points="477.43,-373.75 467.42,-370.27 473.08,-379.23 477.43,-373.75"/>
<text text-anchor="middle" x="515.18" y="-391.8" font-family="Helvetica,sans-Serif" font-size="14.00">No</text>
</g>
<!-- IsAsscInWavelength -->
<g id="node3" class="node">
<title>IsAsscInWavelength</title>
<polygon fill="limegreen" stroke="black" points="712.68,-283 583.82,-265 712.68,-247 841.55,-265 712.68,-283"/>
<text text-anchor="middle" x="712.68" y="-261.3" font-family="Helvetica,sans-Serif" font-size="14.00">Is in Wavelength?</text>
</g>
<!-- ConvertUnits_Assc -->
<g id="node14" class="node">
<title>ConvertUnits_Assc</title>
<path fill="lightskyblue" stroke="black" d="M648.18,-196C648.18,-196 565.18,-196 565.18,-196 559.18,-196 553.18,-190 553.18,-184 553.18,-184 553.18,-172 553.18,-172 553.18,-166 559.18,-160 565.18,-160 565.18,-160 648.18,-160 648.18,-160 654.18,-160 660.18,-166 660.18,-172 660.18,-172 660.18,-184 660.18,-184 660.18,-190 654.18,-196 648.18,-196"/>
<text text-anchor="middle" x="606.68" y="-174.3" font-family="Helvetica,sans-Serif" font-size="14.00">ConvertUnits</text>
</g>
<!-- IsAsscInWavelength&#45;&gt;ConvertUnits_Assc -->
<g id="edge8" class="edge">
<title>IsAsscInWavelength&#45;&gt;ConvertUnits_Assc</title>
<path fill="none" stroke="black" d="M694.22,-249.19C678.2,-236.35 654.73,-217.53 636.12,-202.61"/>
<polygon fill="black" stroke="black" points="638.21,-199.8 628.22,-196.27 633.83,-205.26 638.21,-199.8"/>
<text text-anchor="middle" x="675.18" y="-217.8" font-family="Helvetica,sans-Serif" font-size="14.00">No</text>
</g>
<!-- Divide_CorrAssc -->
<g id="node16" class="node">
<title>Divide_CorrAssc</title>
<path fill="lightskyblue" stroke="black" d="M609.68,-109C609.68,-109 573.68,-109 573.68,-109 567.68,-109 561.68,-103 561.68,-97 561.68,-97 561.68,-85 561.68,-85 561.68,-79 567.68,-73 573.68,-73 573.68,-73 609.68,-73 609.68,-73 615.68,-73 621.68,-79 621.68,-85 621.68,-85 621.68,-97 621.68,-97 621.68,-103 615.68,-109 609.68,-109"/>
<text text-anchor="middle" x="591.68" y="-87.3" font-family="Helvetica,sans-Serif" font-size="14.00">Divide</text>
</g>
<!-- IsAsscInWavelength&#45;&gt;Divide_CorrAssc -->
<g id="edge18" class="edge">
<title>IsAsscInWavelength&#45;&gt;Divide_CorrAssc</title>
<path fill="none" stroke="black" d="M716.29,-247.09C721.27,-218.87 726.73,-161.81 698.68,-127 682.66,-107.11 655.12,-98.41 631.99,-94.65"/>
<polygon fill="black" stroke="black" points="632.45,-91.18 622.06,-93.29 631.49,-98.12 632.45,-91.18"/>
<text text-anchor="middle" x="788.68" y="-174.3" font-family="Helvetica,sans-Serif" font-size="14.00">Yes, RHSWorkspace</text>
</g>
<!-- SampleWorkspace -->
<g id="node4" class="node">
<title>SampleWorkspace</title>
<ellipse fill="khaki" stroke="black" cx="287.68" cy="-265" rx="94.48" ry="18"/>
<text text-anchor="middle" x="287.68" y="-261.3" font-family="Helvetica,sans-Serif" font-size="14.00">SampleWorkspace</text>
</g>
<!-- Minus -->
<g id="node10" class="node">
<title>Minus</title>
<path fill="lightskyblue" stroke="black" d="M452.68,-196C452.68,-196 418.68,-196 418.68,-196 412.68,-196 406.68,-190 406.68,-184 406.68,-184 406.68,-172 406.68,-172 406.68,-166 412.68,-160 418.68,-160 418.68,-160 452.68,-160 452.68,-160 458.68,-160 464.68,-166 464.68,-172 464.68,-172 464.68,-184 464.68,-184 464.68,-190 458.68,-196 452.68,-196"/>
<text text-anchor="middle" x="435.68" y="-174.3" font-family="Helvetica,sans-Serif" font-size="14.00">Minus</text>
</g>
<!-- SampleWorkspace&#45;&gt;Minus -->
<g id="edge15" class="edge">
<title>SampleWorkspace&#45;&gt;Minus</title>
<path fill="none" stroke="black" d="M297.61,-247.01C304.73,-236.17 315.24,-222.6 327.68,-214 348.26,-199.78 374.97,-191.06 396.69,-185.88"/>
<polygon fill="black" stroke="black" points="397.58,-189.26 406.58,-183.67 396.06,-182.43 397.58,-189.26"/>
<text text-anchor="middle" x="379.68" y="-217.8" font-family="Helvetica,sans-Serif" font-size="14.00">LHSWorkspace</text>
</g>
<!-- CorrectionsWorkspace -->
<g id="node5" class="node">
<title>CorrectionsWorkspace</title>
<ellipse fill="khaki" stroke="black" cx="645.68" cy="-613" rx="111.58" ry="18"/>
<text text-anchor="middle" x="645.68" y="-609.3" font-family="Helvetica,sans-Serif" font-size="14.00">CorrectionsWorkspace</text>
</g>
<!-- CorrectionsWorkspace&#45;&gt;IsAccInWavelength -->
<g id="edge3" class="edge">
<title>CorrectionsWorkspace&#45;&gt;IsAccInWavelength</title>
<path fill="none" stroke="black" d="M570.51,-599.64C469.34,-583.01 291.01,-553.69 194.75,-537.86"/>
<polygon fill="black" stroke="black" points="195.28,-534.4 184.84,-536.23 194.14,-541.31 195.28,-534.4"/>
<text text-anchor="middle" x="433.68" y="-565.8" font-family="Helvetica,sans-Serif" font-size="14.00">Ac,c</text>
</g>
<!-- CorrectionsWorkspace&#45;&gt;IsAcscInWavelength -->
<g id="edge4" class="edge">
<title>CorrectionsWorkspace&#45;&gt;IsAcscInWavelength</title>
<path fill="none" stroke="black" d="M643.95,-594.79C641.19,-573.3 634.41,-535.97 618.68,-508 608.64,-490.14 592.74,-473.56 579.07,-461.25"/>
<polygon fill="black" stroke="black" points="581.18,-458.44 571.34,-454.51 576.58,-463.72 581.18,-458.44"/>
<text text-anchor="middle" x="651.18" y="-522.3" font-family="Helvetica,sans-Serif" font-size="14.00">Ac,sc</text>
</g>
<!-- CorrectionsWorkspace&#45;&gt;IsAsscInWavelength -->
<g id="edge5" class="edge">
<title>CorrectionsWorkspace&#45;&gt;IsAsscInWavelength</title>
<path fill="none" stroke="black" d="M672.49,-595.27C692.96,-580.21 717.68,-556.01 717.68,-527 717.68,-527 717.68,-527 717.68,-351 717.68,-331.6 716.37,-309.75 715.09,-293.06"/>
<polygon fill="black" stroke="black" points="718.56,-292.6 714.26,-282.92 711.58,-293.17 718.56,-292.6"/>
<text text-anchor="middle" x="736.18" y="-435.3" font-family="Helvetica,sans-Serif" font-size="14.00">As,sc</text>
</g>
<!-- CanWorkspace -->
<g id="node6" class="node">
<title>CanWorkspace</title>
<ellipse fill="khaki" stroke="black" cx="353.68" cy="-526" rx="77.99" ry="18"/>
<text text-anchor="middle" x="353.68" y="-522.3" font-family="Helvetica,sans-Serif" font-size="14.00">CanWorkspace</text>
</g>
<!-- Scale -->
<g id="node9" class="node">
<title>Scale</title>
<path fill="lightskyblue" stroke="black" d="M393.68,-457C393.68,-457 363.68,-457 363.68,-457 357.68,-457 351.68,-451 351.68,-445 351.68,-445 351.68,-433 351.68,-433 351.68,-427 357.68,-421 363.68,-421 363.68,-421 393.68,-421 393.68,-421 399.68,-421 405.68,-427 405.68,-433 405.68,-433 405.68,-445 405.68,-445 405.68,-451 399.68,-457 393.68,-457"/>
<text text-anchor="middle" x="378.68" y="-435.3" font-family="Helvetica,sans-Serif" font-size="14.00">Scale</text>
</g>
<!-- CanWorkspace&#45;&gt;Scale -->
<g id="edge1" class="edge">
<title>CanWorkspace&#45;&gt;Scale</title>
<path fill="none" stroke="black" d="M358.74,-507.8C362.2,-496.05 366.85,-480.24 370.79,-466.84"/>
<polygon fill="black" stroke="black" points="374.17,-467.76 373.63,-457.18 367.45,-465.78 374.17,-467.76"/>
</g>
<!-- CanScaleFactor -->
<g id="node7" class="node">
<title>CanScaleFactor</title>
<ellipse fill="khaki" stroke="black" cx="529.68" cy="-526" rx="79.89" ry="18"/>
<text text-anchor="middle" x="529.68" y="-522.3" font-family="Helvetica,sans-Serif" font-size="14.00">CanScaleFactor</text>
</g>
<!-- CanScaleFactor&#45;&gt;Scale -->
<g id="edge2" class="edge">
<title>CanScaleFactor&#45;&gt;Scale</title>
<path fill="none" stroke="black" d="M501.28,-509.01C476.75,-495.2 441.17,-475.18 414.66,-460.25"/>
<polygon fill="black" stroke="black" points="416.12,-457.06 405.69,-455.2 412.68,-463.16 416.12,-457.06"/>
</g>
<!-- OutputWorkspace -->
<g id="node8" class="node">
<title>OutputWorkspace</title>
<ellipse fill="khaki" stroke="black" cx="591.68" cy="-18" rx="92.08" ry="18"/>
<text text-anchor="middle" x="591.68" y="-14.3" font-family="Helvetica,sans-Serif" font-size="14.00">OutputWorkspace</text>
</g>
<!-- Scale&#45;&gt;Divide_CanAcc -->
<g id="edge9" class="edge">
<title>Scale&#45;&gt;Divide_CanAcc</title>
<path fill="none" stroke="black" d="M351.51,-423.19C326.73,-409.69 289.82,-389.58 261.85,-374.34"/>
<polygon fill="black" stroke="black" points="263.19,-371.09 252.74,-369.38 259.84,-377.23 263.19,-371.09"/>
<text text-anchor="middle" x="362.68" y="-391.8" font-family="Helvetica,sans-Serif" font-size="14.00">LHSWorkspace</text>
</g>
<!-- Minus&#45;&gt;Divide_CorrAssc -->
<g id="edge17" class="edge">
<title>Minus&#45;&gt;Divide_CorrAssc</title>
<path fill="none" stroke="black" d="M448.34,-159.57C456.94,-148.83 469.19,-135.53 482.68,-127 503.57,-113.8 529.87,-105.17 551.41,-99.78"/>
<polygon fill="black" stroke="black" points="552.31,-103.16 561.24,-97.46 550.7,-96.35 552.31,-103.16"/>
<text text-anchor="middle" x="534.68" y="-130.8" font-family="Helvetica,sans-Serif" font-size="14.00">LHSWorkspace</text>
</g>
<!-- Multiply&#45;&gt;Minus -->
<g id="edge16" class="edge">
<title>Multiply&#45;&gt;Minus</title>
<path fill="none" stroke="black" d="M435.68,-246.8C435.68,-235.16 435.68,-219.55 435.68,-206.24"/>
<polygon fill="black" stroke="black" points="439.18,-206.18 435.68,-196.18 432.18,-206.18 439.18,-206.18"/>
<text text-anchor="middle" x="488.68" y="-217.8" font-family="Helvetica,sans-Serif" font-size="14.00">RHSWorkspace</text>
</g>
<!-- ConvertUnits_Acc&#45;&gt;Divide_CanAcc -->
<g id="edge11" class="edge">
<title>ConvertUnits_Acc&#45;&gt;Divide_CanAcc</title>
<path fill="none" stroke="black" d="M78.31,-420.78C72.49,-410.39 68.27,-397.39 75.68,-388 88.78,-371.42 143.61,-361.84 182.46,-357.03"/>
<polygon fill="black" stroke="black" points="182.93,-360.5 192.45,-355.85 182.11,-353.54 182.93,-360.5"/>
<text text-anchor="middle" x="128.68" y="-391.8" font-family="Helvetica,sans-Serif" font-size="14.00">RHSWorkspace</text>
</g>
<!-- ConvertUnits_Acsc&#45;&gt;Multiply -->
<g id="edge14" class="edge">
<title>ConvertUnits_Acsc&#45;&gt;Multiply</title>
<path fill="none" stroke="black" d="M437.36,-333.95C435.04,-328.36 432.85,-322.04 431.68,-316 430.27,-308.68 430.25,-300.66 430.85,-293.23"/>
<polygon fill="black" stroke="black" points="434.33,-293.59 432.03,-283.25 427.38,-292.77 434.33,-293.59"/>
<text text-anchor="middle" x="484.68" y="-304.8" font-family="Helvetica,sans-Serif" font-size="14.00">RHSWorkspace</text>
</g>
<!-- ConvertUnits_Assc&#45;&gt;Divide_CorrAssc -->
<g id="edge19" class="edge">
<title>ConvertUnits_Assc&#45;&gt;Divide_CorrAssc</title>
<path fill="none" stroke="black" d="M598.43,-159.93C596.12,-154.35 593.91,-148.03 592.68,-142 591.22,-134.8 590.62,-126.89 590.46,-119.53"/>
<polygon fill="black" stroke="black" points="593.96,-119.31 590.51,-109.29 586.96,-119.27 593.96,-119.31"/>
<text text-anchor="middle" x="645.68" y="-130.8" font-family="Helvetica,sans-Serif" font-size="14.00">RHSWorkspace</text>
</g>
<!-- Divide_CanAcc&#45;&gt;Multiply -->
<g id="edge12" class="edge">
<title>Divide_CanAcc&#45;&gt;Multiply</title>
<path fill="none" stroke="black" d="M253.03,-333.78C272.48,-323.26 298.53,-310.12 322.68,-301 349.3,-290.94 359.13,-292.18 390.11,-282.94"/>
<polygon fill="black" stroke="black" points="391.43,-286.2 399.94,-279.88 389.35,-279.52 391.43,-286.2"/>
<text text-anchor="middle" x="374.68" y="-304.8" font-family="Helvetica,sans-Serif" font-size="14.00">LHSWorkspace</text>
</g>
<!-- Divide_CorrAssc&#45;&gt;OutputWorkspace -->
<g id="edge20" class="edge">
<title>Divide_CorrAssc&#45;&gt;OutputWorkspace</title>
<path fill="none" stroke="black" d="M591.68,-72.81C591.68,-64.79 591.68,-55.05 591.68,-46.07"/>
<polygon fill="black" stroke="black" points="595.18,-46.03 591.68,-36.03 588.18,-46.03 595.18,-46.03"/>
</g>
</g>
</svg>
