<?xml version="1.0" encoding="UTF-8" standalone="no"?>
<!DOCTYPE svg PUBLIC "-//W3C//DTD SVG 1.1//EN"
 "http://www.w3.org/Graphics/SVG/1.1/DTD/svg11.dtd">
<!-- Generated by graphviz version 2.40.1 (20161225.0304)
 -->
<!-- Title: ApplyPaalmanPingsCorrection_FullCorrection Pages: 1 -->
<svg width="798pt" height="662pt"
 viewBox="0.00 0.00 797.89 662.00" xmlns="http://www.w3.org/2000/svg" xmlns:xlink="http://www.w3.org/1999/xlink">
<g id="graph0" class="graph" transform="scale(1 1) rotate(0) translate(4 658)">
<title>ApplyPaalmanPingsCorrection_FullCorrection</title>
<polygon fill="#ffffff" stroke="transparent" points="-4,4 -4,-658 793.8947,-658 793.8947,4 -4,4"/>
<text text-anchor="middle" x="394.9473" y="-638.8" font-family="Helvetica,sans-Serif" font-size="14.00" fill="#000000">ApplyPaalmanPingsCorrection Full Corrections Flowchart</text>
<!-- IsAccInWavelength -->
<g id="node1" class="node">
<title>IsAccInWavelength</title>
<polygon fill="#32cd32" stroke="#000000" points="114.8947,-544 .1052,-526 114.8947,-508 229.6841,-526 114.8947,-544"/>
<text text-anchor="middle" x="114.8947" y="-522.3" font-family="Helvetica,sans-Serif" font-size="14.00" fill="#000000">Is in Wavelength?</text>
</g>
<!-- ConvertUnits_Acc -->
<g id="node12" class="node">
<title>ConvertUnits_Acc</title>
<path fill="#87cefa" stroke="#000000" d="M111.3947,-457C111.3947,-457 40.3947,-457 40.3947,-457 34.3947,-457 28.3947,-451 28.3947,-445 28.3947,-445 28.3947,-433 28.3947,-433 28.3947,-427 34.3947,-421 40.3947,-421 40.3947,-421 111.3947,-421 111.3947,-421 117.3947,-421 123.3947,-427 123.3947,-433 123.3947,-433 123.3947,-445 123.3947,-445 123.3947,-451 117.3947,-457 111.3947,-457"/>
<text text-anchor="middle" x="75.8947" y="-435.3" font-family="Helvetica,sans-Serif" font-size="14.00" fill="#000000">ConvertUnits</text>
</g>
<!-- IsAccInWavelength&#45;&gt;ConvertUnits_Acc -->
<g id="edge6" class="edge">
<title>IsAccInWavelength&#45;&gt;ConvertUnits_Acc</title>
<path fill="none" stroke="#000000" d="M107.1895,-508.8116C101.7425,-496.6605 94.3286,-480.122 88.0842,-466.1922"/>
<polygon fill="#000000" stroke="#000000" points="91.271,-464.7446 83.9866,-457.0512 84.8834,-467.608 91.271,-464.7446"/>
<text text-anchor="middle" x="106.8947" y="-478.8" font-family="Helvetica,sans-Serif" font-size="14.00" fill="#000000">No</text>
</g>
<!-- Divide_CanAcc -->
<g id="node15" class="node">
<title>Divide_CanAcc</title>
<path fill="#87cefa" stroke="#000000" d="M213.8947,-370C213.8947,-370 183.8947,-370 183.8947,-370 177.8947,-370 171.8947,-364 171.8947,-358 171.8947,-358 171.8947,-346 171.8947,-346 171.8947,-340 177.8947,-334 183.8947,-334 183.8947,-334 213.8947,-334 213.8947,-334 219.8947,-334 225.8947,-340 225.8947,-346 225.8947,-346 225.8947,-358 225.8947,-358 225.8947,-364 219.8947,-370 213.8947,-370"/>
<text text-anchor="middle" x="198.8947" y="-348.3" font-family="Helvetica,sans-Serif" font-size="14.00" fill="#000000">Divide</text>
</g>
<!-- IsAccInWavelength&#45;&gt;Divide_CanAcc -->
<g id="edge10" class="edge">
<title>IsAccInWavelength&#45;&gt;Divide_CanAcc</title>
<path fill="none" stroke="#000000" d="M123.1019,-508.9993C137.6918,-478.7773 168.2529,-415.4722 185.7847,-379.1564"/>
<polygon fill="#000000" stroke="#000000" points="188.9562,-380.6373 190.1518,-370.1101 182.6523,-377.594 188.9562,-380.6373"/>
<text text-anchor="middle" x="229.8947" y="-435.3" font-family="Helvetica,sans-Serif" font-size="14.00" fill="#000000">Yes, RHSWorkspace</text>
</g>
<!-- IsAcscInWavelength -->
<g id="node2" class="node">
<title>IsAcscInWavelength</title>
<polygon fill="#32cd32" stroke="#000000" points="506.8947,-457 392.1052,-439 506.8947,-421 621.6841,-439 506.8947,-457"/>
<text text-anchor="middle" x="506.8947" y="-435.3" font-family="Helvetica,sans-Serif" font-size="14.00" fill="#000000">Is in Wavelength?</text>
</g>
<!-- Multiply -->
<g id="node11" class="node">
<title>Multiply</title>
<path fill="#87cefa" stroke="#000000" d="M416.3947,-283C416.3947,-283 377.3947,-283 377.3947,-283 371.3947,-283 365.3947,-277 365.3947,-271 365.3947,-271 365.3947,-259 365.3947,-259 365.3947,-253 371.3947,-247 377.3947,-247 377.3947,-247 416.3947,-247 416.3947,-247 422.3947,-247 428.3947,-253 428.3947,-259 428.3947,-259 428.3947,-271 428.3947,-271 428.3947,-277 422.3947,-283 416.3947,-283"/>
<text text-anchor="middle" x="396.8947" y="-261.3" font-family="Helvetica,sans-Serif" font-size="14.00" fill="#000000">Multiply</text>
</g>
<!-- IsAcscInWavelength&#45;&gt;Multiply -->
<g id="edge13" class="edge">
<title>IsAcscInWavelength&#45;&gt;Multiply</title>
<path fill="none" stroke="#000000" d="M510.0318,-421.1715C513.9997,-392.6064 517.3463,-336.2241 489.8947,-301 477.4453,-285.0258 456.9553,-276.1335 438.3722,-271.1864"/>
<polygon fill="#000000" stroke="#000000" points="439.1314,-267.7695 428.5953,-268.8832 437.5263,-274.583 439.1314,-267.7695"/>
<text text-anchor="middle" x="575.8947" y="-348.3" font-family="Helvetica,sans-Serif" font-size="14.00" fill="#000000">Yes, RHSWorkspace</text>
</g>
<!-- ConvertUnits_Acsc -->
<g id="node13" class="node">
<title>ConvertUnits_Acsc</title>
<path fill="#87cefa" stroke="#000000" d="M441.3947,-370C441.3947,-370 370.3947,-370 370.3947,-370 364.3947,-370 358.3947,-364 358.3947,-358 358.3947,-358 358.3947,-346 358.3947,-346 358.3947,-340 364.3947,-334 370.3947,-334 370.3947,-334 441.3947,-334 441.3947,-334 447.3947,-334 453.3947,-340 453.3947,-346 453.3947,-346 453.3947,-358 453.3947,-358 453.3947,-364 447.3947,-370 441.3947,-370"/>
<text text-anchor="middle" x="405.8947" y="-348.3" font-family="Helvetica,sans-Serif" font-size="14.00" fill="#000000">ConvertUnits</text>
</g>
<!-- IsAcscInWavelength&#45;&gt;ConvertUnits_Acsc -->
<g id="edge7" class="edge">
<title>IsAcscInWavelength&#45;&gt;ConvertUnits_Acsc</title>
<path fill="none" stroke="#000000" d="M488.8379,-423.4461C473.7812,-410.4766 452.052,-391.7593 434.6111,-376.7359"/>
<polygon fill="#000000" stroke="#000000" points="436.7998,-374.0018 426.9389,-370.1272 432.2313,-379.3055 436.7998,-374.0018"/>
<text text-anchor="middle" x="471.8947" y="-391.8" font-family="Helvetica,sans-Serif" font-size="14.00" fill="#000000">No</text>
</g>
<!-- IsAsscInWavelength -->
<g id="node3" class="node">
<title>IsAsscInWavelength</title>
<polygon fill="#32cd32" stroke="#000000" points="654.8947,-283 540.1052,-265 654.8947,-247 769.6841,-265 654.8947,-283"/>
<text text-anchor="middle" x="654.8947" y="-261.3" font-family="Helvetica,sans-Serif" font-size="14.00" fill="#000000">Is in Wavelength?</text>
</g>
<!-- ConvertUnits_Assc -->
<g id="node14" class="node">
<title>ConvertUnits_Assc</title>
<path fill="#87cefa" stroke="#000000" d="M592.3947,-196C592.3947,-196 521.3947,-196 521.3947,-196 515.3947,-196 509.3947,-190 509.3947,-184 509.3947,-184 509.3947,-172 509.3947,-172 509.3947,-166 515.3947,-160 521.3947,-160 521.3947,-160 592.3947,-160 592.3947,-160 598.3947,-160 604.3947,-166 604.3947,-172 604.3947,-172 604.3947,-184 604.3947,-184 604.3947,-190 598.3947,-196 592.3947,-196"/>
<text text-anchor="middle" x="556.8947" y="-174.3" font-family="Helvetica,sans-Serif" font-size="14.00" fill="#000000">ConvertUnits</text>
</g>
<!-- IsAsscInWavelength&#45;&gt;ConvertUnits_Assc -->
<g id="edge8" class="edge">
<title>IsAsscInWavelength&#45;&gt;ConvertUnits_Assc</title>
<path fill="none" stroke="#000000" d="M637.3742,-249.4461C622.8964,-236.5934 602.0603,-218.0961 585.2165,-203.1429"/>
<polygon fill="#000000" stroke="#000000" points="587.1157,-200.1487 577.3138,-196.1272 582.4685,-205.3835 587.1157,-200.1487"/>
<text text-anchor="middle" x="619.8947" y="-217.8" font-family="Helvetica,sans-Serif" font-size="14.00" fill="#000000">No</text>
</g>
<!-- Divide_CorrAssc -->
<g id="node16" class="node">
<title>Divide_CorrAssc</title>
<path fill="#87cefa" stroke="#000000" d="M557.8947,-109C557.8947,-109 527.8947,-109 527.8947,-109 521.8947,-109 515.8947,-103 515.8947,-97 515.8947,-97 515.8947,-85 515.8947,-85 515.8947,-79 521.8947,-73 527.8947,-73 527.8947,-73 557.8947,-73 557.8947,-73 563.8947,-73 569.8947,-79 569.8947,-85 569.8947,-85 569.8947,-97 569.8947,-97 569.8947,-103 563.8947,-109 557.8947,-109"/>
<text text-anchor="middle" x="542.8947" y="-87.3" font-family="Helvetica,sans-Serif" font-size="14.00" fill="#000000">Divide</text>
</g>
<!-- IsAsscInWavelength&#45;&gt;Divide_CorrAssc -->
<g id="edge18" class="edge">
<title>IsAsscInWavelength&#45;&gt;Divide_CorrAssc</title>
<path fill="none" stroke="#000000" d="M658.5639,-247.1651C663.3556,-218.5911 668.2067,-162.1965 640.8947,-127 633.0815,-116.9314 604.2808,-107.0615 579.9077,-100.2103"/>
<polygon fill="#000000" stroke="#000000" points="580.7202,-96.8042 570.1522,-97.5577 578.8835,-103.5589 580.7202,-96.8042"/>
<text text-anchor="middle" x="725.8947" y="-174.3" font-family="Helvetica,sans-Serif" font-size="14.00" fill="#000000">Yes, RHSWorkspace</text>
</g>
<!-- SampleWorkspace -->
<g id="node4" class="node">
<title>SampleWorkspace</title>
<ellipse fill="#f0e68c" stroke="#000000" cx="261.8947" cy="-265" rx="85.2851" ry="18"/>
<text text-anchor="middle" x="261.8947" y="-261.3" font-family="Helvetica,sans-Serif" font-size="14.00" fill="#000000">SampleWorkspace</text>
</g>
<!-- Minus -->
<g id="node10" class="node">
<title>Minus</title>
<path fill="#87cefa" stroke="#000000" d="M411.8947,-196C411.8947,-196 381.8947,-196 381.8947,-196 375.8947,-196 369.8947,-190 369.8947,-184 369.8947,-184 369.8947,-172 369.8947,-172 369.8947,-166 375.8947,-160 381.8947,-160 381.8947,-160 411.8947,-160 411.8947,-160 417.8947,-160 423.8947,-166 423.8947,-172 423.8947,-172 423.8947,-184 423.8947,-184 423.8947,-190 417.8947,-196 411.8947,-196"/>
<text text-anchor="middle" x="396.8947" y="-174.3" font-family="Helvetica,sans-Serif" font-size="14.00" fill="#000000">Minus</text>
</g>
<!-- SampleWorkspace&#45;&gt;Minus -->
<g id="edge15" class="edge">
<title>SampleWorkspace&#45;&gt;Minus</title>
<path fill="none" stroke="#000000" d="M271.0501,-246.8084C277.3111,-235.9736 286.5272,-222.6857 297.8947,-214 315.9621,-200.195 339.8308,-191.3079 359.6044,-185.818"/>
<polygon fill="#000000" stroke="#000000" points="360.7169,-189.1455 369.5191,-183.2488 358.9608,-182.3693 360.7169,-189.1455"/>
<text text-anchor="middle" x="345.3947" y="-217.8" font-family="Helvetica,sans-Serif" font-size="14.00" fill="#000000">LHSWorkspace</text>
</g>
<!-- CorrectionsWorkspace -->
<g id="node5" class="node">
<title>CorrectionsWorkspace</title>
<ellipse fill="#f0e68c" stroke="#000000" cx="590.8947" cy="-613" rx="100.1823" ry="18"/>
<text text-anchor="middle" x="590.8947" y="-609.3" font-family="Helvetica,sans-Serif" font-size="14.00" fill="#000000">CorrectionsWorkspace</text>
</g>
<!-- CorrectionsWorkspace&#45;&gt;IsAccInWavelength -->
<g id="edge3" class="edge">
<title>CorrectionsWorkspace&#45;&gt;IsAccInWavelength</title>
<path fill="none" stroke="#000000" d="M520.6592,-600.1629C428.1515,-583.2549 266.8426,-553.772 178.0251,-537.5385"/>
<polygon fill="#000000" stroke="#000000" points="178.5536,-534.0772 168.0872,-535.7222 177.295,-540.9632 178.5536,-534.0772"/>
<text text-anchor="middle" x="395.3947" y="-565.8" font-family="Helvetica,sans-Serif" font-size="14.00" fill="#000000">Ac,c</text>
</g>
<!-- CorrectionsWorkspace&#45;&gt;IsAcscInWavelength -->
<g id="edge4" class="edge">
<title>CorrectionsWorkspace&#45;&gt;IsAcscInWavelength</title>
<path fill="none" stroke="#000000" d="M588.6611,-594.6829C585.4737,-573.0254 578.331,-536.345 563.8947,-508 555.2519,-491.0305 541.8197,-474.494 530.1651,-461.8656"/>
<polygon fill="#000000" stroke="#000000" points="532.6246,-459.3729 523.1969,-454.5387 527.5522,-464.197 532.6246,-459.3729"/>
<text text-anchor="middle" x="593.8947" y="-522.3" font-family="Helvetica,sans-Serif" font-size="14.00" fill="#000000">Ac,sc</text>
</g>
<!-- CorrectionsWorkspace&#45;&gt;IsAsscInWavelength -->
<g id="edge5" class="edge">
<title>CorrectionsWorkspace&#45;&gt;IsAsscInWavelength</title>
<path fill="none" stroke="#000000" d="M616.5877,-595.4776C636.2054,-579.8158 659.8947,-554.9168 659.8947,-526 659.8947,-526 659.8947,-526 659.8947,-352 659.8947,-332.3913 658.613,-310.3375 657.3475,-293.3406"/>
<polygon fill="#000000" stroke="#000000" points="660.8058,-292.6725 656.5318,-282.978 653.8274,-293.2218 660.8058,-292.6725"/>
<text text-anchor="middle" x="676.8947" y="-435.3" font-family="Helvetica,sans-Serif" font-size="14.00" fill="#000000">As,sc</text>
</g>
<!-- CanWorkspace -->
<g id="node6" class="node">
<title>CanWorkspace</title>
<ellipse fill="#f0e68c" stroke="#000000" cx="318.8947" cy="-526" rx="71.4873" ry="18"/>
<text text-anchor="middle" x="318.8947" y="-522.3" font-family="Helvetica,sans-Serif" font-size="14.00" fill="#000000">CanWorkspace</text>
</g>
<!-- Scale -->
<g id="node9" class="node">
<title>Scale</title>
<path fill="#87cefa" stroke="#000000" d="M361.8947,-457C361.8947,-457 331.8947,-457 331.8947,-457 325.8947,-457 319.8947,-451 319.8947,-445 319.8947,-445 319.8947,-433 319.8947,-433 319.8947,-427 325.8947,-421 331.8947,-421 331.8947,-421 361.8947,-421 361.8947,-421 367.8947,-421 373.8947,-427 373.8947,-433 373.8947,-433 373.8947,-445 373.8947,-445 373.8947,-451 367.8947,-457 361.8947,-457"/>
<text text-anchor="middle" x="346.8947" y="-435.3" font-family="Helvetica,sans-Serif" font-size="14.00" fill="#000000">Scale</text>
</g>
<!-- CanWorkspace&#45;&gt;Scale -->
<g id="edge1" class="edge">
<title>CanWorkspace&#45;&gt;Scale</title>
<path fill="none" stroke="#000000" d="M324.6963,-507.9735C328.5257,-496.0751 333.6186,-480.2508 337.9602,-466.7606"/>
<polygon fill="#000000" stroke="#000000" points="341.3685,-467.5948 341.1005,-457.0034 334.7051,-465.4502 341.3685,-467.5948"/>
</g>
<!-- CanScaleFactor -->
<g id="node7" class="node">
<title>CanScaleFactor</title>
<ellipse fill="#f0e68c" stroke="#000000" cx="481.8947" cy="-526" rx="73.387" ry="18"/>
<text text-anchor="middle" x="481.8947" y="-522.3" font-family="Helvetica,sans-Serif" font-size="14.00" fill="#000000">CanScaleFactor</text>
</g>
<!-- CanScaleFactor&#45;&gt;Scale -->
<g id="edge2" class="edge">
<title>CanScaleFactor&#45;&gt;Scale</title>
<path fill="none" stroke="#000000" d="M455.5448,-509.019C434.7243,-495.6013 405.4572,-476.7403 382.5435,-461.9737"/>
<polygon fill="#000000" stroke="#000000" points="384.4052,-459.0096 374.1035,-456.5346 380.6133,-464.8937 384.4052,-459.0096"/>
</g>
<!-- OutputWorkspace -->
<g id="node8" class="node">
<title>OutputWorkspace</title>
<ellipse fill="#f0e68c" stroke="#000000" cx="542.8947" cy="-18" rx="81.7856" ry="18"/>
<text text-anchor="middle" x="542.8947" y="-14.3" font-family="Helvetica,sans-Serif" font-size="14.00" fill="#000000">OutputWorkspace</text>
</g>
<!-- Scale&#45;&gt;Divide_CanAcc -->
<g id="edge9" class="edge">
<title>Scale&#45;&gt;Divide_CanAcc</title>
<path fill="none" stroke="#000000" d="M319.7492,-423.0429C295.9363,-409.0447 261.1268,-388.5824 234.9751,-373.2095"/>
<polygon fill="#000000" stroke="#000000" points="236.5128,-370.0535 226.1182,-368.0031 232.9654,-376.0881 236.5128,-370.0535"/>
<text text-anchor="middle" x="329.3947" y="-391.8" font-family="Helvetica,sans-Serif" font-size="14.00" fill="#000000">LHSWorkspace</text>
</g>
<!-- Minus&#45;&gt;Divide_CorrAssc -->
<g id="edge17" class="edge">
<title>Minus&#45;&gt;Divide_CorrAssc</title>
<path fill="none" stroke="#000000" d="M409.6191,-159.8697C418.0054,-149.0579 429.827,-135.7728 442.8947,-127 461.9415,-114.2132 486.0741,-105.3554 505.8602,-99.6261"/>
<polygon fill="#000000" stroke="#000000" points="507.0426,-102.9312 515.7609,-96.9111 505.1913,-96.1804 507.0426,-102.9312"/>
<text text-anchor="middle" x="490.3947" y="-130.8" font-family="Helvetica,sans-Serif" font-size="14.00" fill="#000000">LHSWorkspace</text>
</g>
<!-- Multiply&#45;&gt;Minus -->
<g id="edge16" class="edge">
<title>Multiply&#45;&gt;Minus</title>
<path fill="none" stroke="#000000" d="M396.8947,-246.9735C396.8947,-235.1918 396.8947,-219.5607 396.8947,-206.1581"/>
<polygon fill="#000000" stroke="#000000" points="400.3948,-206.0033 396.8947,-196.0034 393.3948,-206.0034 400.3948,-206.0033"/>
<text text-anchor="middle" x="445.3947" y="-217.8" font-family="Helvetica,sans-Serif" font-size="14.00" fill="#000000">RHSWorkspace</text>
</g>
<!-- ConvertUnits_Acc&#45;&gt;Divide_CanAcc -->
<g id="edge11" class="edge">
<title>ConvertUnits_Acc&#45;&gt;Divide_CanAcc</title>
<path fill="none" stroke="#000000" d="M64.2814,-420.9384C59.1148,-410.4173 55.6492,-397.4129 62.8947,-388 74.8947,-372.4101 125.6482,-362.1852 161.629,-356.7466"/>
<polygon fill="#000000" stroke="#000000" points="162.4049,-360.1709 171.8009,-355.2754 161.4028,-353.243 162.4049,-360.1709"/>
<text text-anchor="middle" x="111.3947" y="-391.8" font-family="Helvetica,sans-Serif" font-size="14.00" fill="#000000">RHSWorkspace</text>
</g>
<!-- ConvertUnits_Acsc&#45;&gt;Multiply -->
<g id="edge14" class="edge">
<title>ConvertUnits_Acsc&#45;&gt;Multiply</title>
<path fill="none" stroke="#000000" d="M397.8858,-333.6508C395.8386,-328.0893 393.9257,-321.891 392.8947,-316 391.6042,-308.6268 391.5969,-300.5806 392.1679,-293.1038"/>
<polygon fill="#000000" stroke="#000000" points="395.66,-293.368 393.2866,-283.0425 388.7029,-292.5945 395.66,-293.368"/>
<text text-anchor="middle" x="441.3947" y="-304.8" font-family="Helvetica,sans-Serif" font-size="14.00" fill="#000000">RHSWorkspace</text>
</g>
<!-- ConvertUnits_Assc&#45;&gt;Divide_CorrAssc -->
<g id="edge19" class="edge">
<title>ConvertUnits_Assc&#45;&gt;Divide_CorrAssc</title>
<path fill="none" stroke="#000000" d="M548.9585,-159.6377C546.9134,-154.0758 544.9834,-147.8806 543.8947,-142 542.5359,-134.6609 541.9634,-126.6264 541.8067,-119.1499"/>
<polygon fill="#000000" stroke="#000000" points="545.3067,-119.0884 541.8235,-109.0825 538.3067,-119.0766 545.3067,-119.0884"/>
<text text-anchor="middle" x="592.3947" y="-130.8" font-family="Helvetica,sans-Serif" font-size="14.00" fill="#000000">RHSWorkspace</text>
</g>
<!-- Divide_CanAcc&#45;&gt;Multiply -->
<g id="edge12" class="edge">
<title>Divide_CanAcc&#45;&gt;Multiply</title>
<path fill="none" stroke="#000000" d="M226.0848,-335.1803C244.4499,-324.3433 269.5181,-310.5464 292.8947,-301 319.8538,-289.9906 328.4999,-292.8757 355.8947,-283 355.9906,-282.9654 356.0867,-282.9307 356.1829,-282.8958"/>
<polygon fill="#000000" stroke="#000000" points="357.2131,-286.2499 365.2823,-279.3842 354.6928,-279.7194 357.2131,-286.2499"/>
<text text-anchor="middle" x="340.3947" y="-304.8" font-family="Helvetica,sans-Serif" font-size="14.00" fill="#000000">LHSWorkspace</text>
</g>
<!-- Divide_CorrAssc&#45;&gt;OutputWorkspace -->
<g id="edge20" class="edge">
<title>Divide_CorrAssc&#45;&gt;OutputWorkspace</title>
<path fill="none" stroke="#000000" d="M542.8947,-72.9551C542.8947,-64.8828 542.8947,-55.1764 542.8947,-46.1817"/>
<polygon fill="#000000" stroke="#000000" points="546.3948,-46.0903 542.8947,-36.0904 539.3948,-46.0904 546.3948,-46.0903"/>
</g>
</g>
</svg>
