<?xml version="1.0" encoding="UTF-8" standalone="no"?>
<!DOCTYPE svg PUBLIC "-//W3C//DTD SVG 1.1//EN"
 "http://www.w3.org/Graphics/SVG/1.1/DTD/svg11.dtd">
<!-- Generated by graphviz version 2.47.2 (20210527.1257)
 -->
<!-- Title: ApplyPaalmanPingsCorrection_FullCorrection Pages: 1 -->
<svg width="794pt" height="662pt"
 viewBox="0.00 0.00 793.98 662.00" xmlns="http://www.w3.org/2000/svg" xmlns:xlink="http://www.w3.org/1999/xlink">
<g id="graph0" class="graph" transform="scale(1 1) rotate(0) translate(4 658)">
<title>ApplyPaalmanPingsCorrection_FullCorrection</title>
<polygon fill="white" stroke="transparent" points="-4,4 -4,-658 789.98,-658 789.98,4 -4,4"/>
<text text-anchor="middle" x="392.99" y="-638.8" font-family="Helvetica" font-size="14.00">ApplyPaalmanPingsCorrection Full Corrections Flowchart</text>
<!-- IsAccInWavelength -->
<g id="node1" class="node">
<title>IsAccInWavelength</title>
<polygon fill="limegreen" stroke="black" points="113.98,-544 0.02,-526 113.98,-508 227.93,-526 113.98,-544"/>
<text text-anchor="middle" x="113.98" y="-522.3" font-family="Helvetica" font-size="14.00">Is in Wavelength?</text>
</g>
<!-- ConvertUnits_Acc -->
<g id="node12" class="node">
<title>ConvertUnits_Acc</title>
<path fill="lightskyblue" stroke="black" d="M111.48,-457C111.48,-457 40.48,-457 40.48,-457 34.48,-457 28.48,-451 28.48,-445 28.48,-445 28.48,-433 28.48,-433 28.48,-427 34.48,-421 40.48,-421 40.48,-421 111.48,-421 111.48,-421 117.48,-421 123.48,-427 123.48,-433 123.48,-433 123.48,-445 123.48,-445 123.48,-451 117.48,-457 111.48,-457"/>
<text text-anchor="middle" x="75.98" y="-435.3" font-family="Helvetica" font-size="14.00">ConvertUnits</text>
</g>
<!-- IsAccInWavelength&#45;&gt;ConvertUnits_Acc -->
<g id="edge6" class="edge">
<title>IsAccInWavelength&#45;&gt;ConvertUnits_Acc</title>
<path fill="none" stroke="black" d="M106.83,-509.01C101.45,-496.98 93.96,-480.22 87.7,-466.23"/>
<polygon fill="black" stroke="black" points="90.89,-464.78 83.61,-457.08 84.5,-467.64 90.89,-464.78"/>
<text text-anchor="middle" x="106.98" y="-478.8" font-family="Helvetica" font-size="14.00">No</text>
</g>
<!-- Divide_CanAcc -->
<g id="node15" class="node">
<title>Divide_CanAcc</title>
<path fill="lightskyblue" stroke="black" d="M213.98,-370C213.98,-370 183.98,-370 183.98,-370 177.98,-370 171.98,-364 171.98,-358 171.98,-358 171.98,-346 171.98,-346 171.98,-340 177.98,-334 183.98,-334 183.98,-334 213.98,-334 213.98,-334 219.98,-334 225.98,-340 225.98,-346 225.98,-346 225.98,-358 225.98,-358 225.98,-364 219.98,-370 213.98,-370"/>
<text text-anchor="middle" x="198.98" y="-348.3" font-family="Helvetica" font-size="14.00">Divide</text>
</g>
<!-- IsAccInWavelength&#45;&gt;Divide_CanAcc -->
<g id="edge10" class="edge">
<title>IsAccInWavelength&#45;&gt;Divide_CanAcc</title>
<path fill="none" stroke="black" d="M121.82,-509.13C136.5,-479.43 168.23,-415.21 186.09,-379.07"/>
<polygon fill="black" stroke="black" points="189.23,-380.62 190.52,-370.1 182.96,-377.52 189.23,-380.62"/>
<text text-anchor="middle" x="228.48" y="-435.3" font-family="Helvetica" font-size="14.00">Yes, RHSWorkspace</text>
</g>
<!-- IsAcscInWavelength -->
<g id="node2" class="node">
<title>IsAcscInWavelength</title>
<polygon fill="limegreen" stroke="black" points="504.98,-457 391.02,-439 504.98,-421 618.93,-439 504.98,-457"/>
<text text-anchor="middle" x="504.98" y="-435.3" font-family="Helvetica" font-size="14.00">Is in Wavelength?</text>
</g>
<!-- Multiply -->
<g id="node11" class="node">
<title>Multiply</title>
<path fill="lightskyblue" stroke="black" d="M414.48,-283C414.48,-283 375.48,-283 375.48,-283 369.48,-283 363.48,-277 363.48,-271 363.48,-271 363.48,-259 363.48,-259 363.48,-253 369.48,-247 375.48,-247 375.48,-247 414.48,-247 414.48,-247 420.48,-247 426.48,-253 426.48,-259 426.48,-259 426.48,-271 426.48,-271 426.48,-277 420.48,-283 414.48,-283"/>
<text text-anchor="middle" x="394.98" y="-261.3" font-family="Helvetica" font-size="14.00">Multiply</text>
</g>
<!-- IsAcscInWavelength&#45;&gt;Multiply -->
<g id="edge13" class="edge">
<title>IsAcscInWavelength&#45;&gt;Multiply</title>
<path fill="none" stroke="black" d="M507.98,-421.18C512,-393.08 515.71,-336.21 487.98,-301 475.49,-285.15 455,-276.47 436.42,-271.73"/>
<polygon fill="black" stroke="black" points="437.17,-268.31 426.65,-269.53 435.64,-275.14 437.17,-268.31"/>
<text text-anchor="middle" x="573.48" y="-348.3" font-family="Helvetica" font-size="14.00">Yes, RHSWorkspace</text>
</g>
<!-- ConvertUnits_Acsc -->
<g id="node13" class="node">
<title>ConvertUnits_Acsc</title>
<path fill="lightskyblue" stroke="black" d="M439.48,-370C439.48,-370 368.48,-370 368.48,-370 362.48,-370 356.48,-364 356.48,-358 356.48,-358 356.48,-346 356.48,-346 356.48,-340 362.48,-334 368.48,-334 368.48,-334 439.48,-334 439.48,-334 445.48,-334 451.48,-340 451.48,-346 451.48,-346 451.48,-358 451.48,-358 451.48,-364 445.48,-370 439.48,-370"/>
<text text-anchor="middle" x="403.98" y="-348.3" font-family="Helvetica" font-size="14.00">ConvertUnits</text>
</g>
<!-- IsAcscInWavelength&#45;&gt;ConvertUnits_Acsc -->
<g id="edge7" class="edge">
<title>IsAcscInWavelength&#45;&gt;ConvertUnits_Acsc</title>
<path fill="none" stroke="black" d="M487.84,-423.58C472.61,-410.77 450.06,-391.78 432.18,-376.73"/>
<polygon fill="black" stroke="black" points="434.24,-373.89 424.33,-370.13 429.73,-379.25 434.24,-373.89"/>
<text text-anchor="middle" x="469.98" y="-391.8" font-family="Helvetica" font-size="14.00">No</text>
</g>
<!-- IsAsscInWavelength -->
<g id="node3" class="node">
<title>IsAsscInWavelength</title>
<polygon fill="limegreen" stroke="black" points="651.98,-283 538.02,-265 651.98,-247 765.93,-265 651.98,-283"/>
<text text-anchor="middle" x="651.98" y="-261.3" font-family="Helvetica" font-size="14.00">Is in Wavelength?</text>
</g>
<!-- ConvertUnits_Assc -->
<g id="node14" class="node">
<title>ConvertUnits_Assc</title>
<path fill="lightskyblue" stroke="black" d="M589.48,-196C589.48,-196 518.48,-196 518.48,-196 512.48,-196 506.48,-190 506.48,-184 506.48,-184 506.48,-172 506.48,-172 506.48,-166 512.48,-160 518.48,-160 518.48,-160 589.48,-160 589.48,-160 595.48,-160 601.48,-166 601.48,-172 601.48,-172 601.48,-184 601.48,-184 601.48,-190 595.48,-196 589.48,-196"/>
<text text-anchor="middle" x="553.98" y="-174.3" font-family="Helvetica" font-size="14.00">ConvertUnits</text>
</g>
<!-- IsAsscInWavelength&#45;&gt;ConvertUnits_Assc -->
<g id="edge8" class="edge">
<title>IsAsscInWavelength&#45;&gt;ConvertUnits_Assc</title>
<path fill="none" stroke="black" d="M635.35,-249.58C620.58,-236.77 598.69,-217.78 581.34,-202.73"/>
<polygon fill="black" stroke="black" points="583.57,-200.04 573.73,-196.13 578.99,-205.33 583.57,-200.04"/>
<text text-anchor="middle" x="616.98" y="-217.8" font-family="Helvetica" font-size="14.00">No</text>
</g>
<!-- Divide_CorrAssc -->
<g id="node16" class="node">
<title>Divide_CorrAssc</title>
<path fill="lightskyblue" stroke="black" d="M554.98,-109C554.98,-109 524.98,-109 524.98,-109 518.98,-109 512.98,-103 512.98,-97 512.98,-97 512.98,-85 512.98,-85 512.98,-79 518.98,-73 524.98,-73 524.98,-73 554.98,-73 554.98,-73 560.98,-73 566.98,-79 566.98,-85 566.98,-85 566.98,-97 566.98,-97 566.98,-103 560.98,-109 554.98,-109"/>
<text text-anchor="middle" x="539.98" y="-87.3" font-family="Helvetica" font-size="14.00">Divide</text>
</g>
<!-- IsAsscInWavelength&#45;&gt;Divide_CorrAssc -->
<g id="edge18" class="edge">
<title>IsAsscInWavelength&#45;&gt;Divide_CorrAssc</title>
<path fill="none" stroke="black" d="M655.48,-247.18C660.31,-219.07 665.56,-162.19 637.98,-127 623.51,-108.55 598.53,-99.81 577.41,-95.68"/>
<polygon fill="black" stroke="black" points="577.86,-92.2 567.42,-94 576.7,-99.11 577.86,-92.2"/>
<text text-anchor="middle" x="722.48" y="-174.3" font-family="Helvetica" font-size="14.00">Yes, RHSWorkspace</text>
</g>
<!-- SampleWorkspace -->
<g id="node4" class="node">
<title>SampleWorkspace</title>
<ellipse fill="khaki" stroke="black" cx="259.98" cy="-265" rx="85.29" ry="18"/>
<text text-anchor="middle" x="259.98" y="-261.3" font-family="Helvetica" font-size="14.00">SampleWorkspace</text>
</g>
<!-- Minus -->
<g id="node10" class="node">
<title>Minus</title>
<path fill="lightskyblue" stroke="black" d="M409.98,-196C409.98,-196 379.98,-196 379.98,-196 373.98,-196 367.98,-190 367.98,-184 367.98,-184 367.98,-172 367.98,-172 367.98,-166 373.98,-160 379.98,-160 379.98,-160 409.98,-160 409.98,-160 415.98,-160 421.98,-166 421.98,-172 421.98,-172 421.98,-184 421.98,-184 421.98,-190 415.98,-196 409.98,-196"/>
<text text-anchor="middle" x="394.98" y="-174.3" font-family="Helvetica" font-size="14.00">Minus</text>
</g>
<!-- SampleWorkspace&#45;&gt;Minus -->
<g id="edge15" class="edge">
<title>SampleWorkspace&#45;&gt;Minus</title>
<path fill="none" stroke="black" d="M269.26,-246.63C275.76,-235.92 285.35,-222.62 296.98,-214 314.89,-200.71 338.32,-192.09 357.78,-186.74"/>
<polygon fill="black" stroke="black" points="358.73,-190.11 367.55,-184.23 356.99,-183.33 358.73,-190.11"/>
<text text-anchor="middle" x="343.98" y="-217.8" font-family="Helvetica" font-size="14.00">LHSWorkspace</text>
</g>
<!-- CorrectionsWorkspace -->
<g id="node5" class="node">
<title>CorrectionsWorkspace</title>
<ellipse fill="khaki" stroke="black" cx="587.98" cy="-613" rx="99.38" ry="18"/>
<text text-anchor="middle" x="587.98" y="-609.3" font-family="Helvetica" font-size="14.00">CorrectionsWorkspace</text>
</g>
<!-- CorrectionsWorkspace&#45;&gt;IsAccInWavelength -->
<g id="edge3" class="edge">
<title>CorrectionsWorkspace&#45;&gt;IsAccInWavelength</title>
<path fill="none" stroke="black" d="M520.06,-599.82C427.51,-583.22 263.16,-553.75 174.58,-537.87"/>
<polygon fill="black" stroke="black" points="175.14,-534.41 164.68,-536.09 173.9,-541.3 175.14,-534.41"/>
<text text-anchor="middle" x="393.48" y="-565.8" font-family="Helvetica" font-size="14.00">Ac,c</text>
</g>
<!-- CorrectionsWorkspace&#45;&gt;IsAcscInWavelength -->
<g id="edge4" class="edge">
<title>CorrectionsWorkspace&#45;&gt;IsAcscInWavelength</title>
<path fill="none" stroke="black" d="M585.87,-594.99C582.73,-573.71 575.55,-536.58 560.98,-508 552.43,-491.23 539.16,-474.88 527.68,-462.41"/>
<polygon fill="black" stroke="black" points="529.89,-459.65 520.47,-454.81 524.82,-464.47 529.89,-459.65"/>
<text text-anchor="middle" x="590.98" y="-522.3" font-family="Helvetica" font-size="14.00">Ac,sc</text>
</g>
<!-- CorrectionsWorkspace&#45;&gt;IsAsscInWavelength -->
<g id="edge5" class="edge">
<title>CorrectionsWorkspace&#45;&gt;IsAsscInWavelength</title>
<path fill="none" stroke="black" d="M613.28,-595.32C632.97,-580.12 656.98,-555.7 656.98,-527 656.98,-527 656.98,-527 656.98,-351 656.98,-331.6 655.66,-309.75 654.38,-293.06"/>
<polygon fill="black" stroke="black" points="657.85,-292.6 653.56,-282.92 650.88,-293.17 657.85,-292.6"/>
<text text-anchor="middle" x="673.98" y="-435.3" font-family="Helvetica" font-size="14.00">As,sc</text>
</g>
<!-- CanWorkspace -->
<g id="node6" class="node">
<title>CanWorkspace</title>
<ellipse fill="khaki" stroke="black" cx="316.98" cy="-526" rx="70.69" ry="18"/>
<text text-anchor="middle" x="316.98" y="-522.3" font-family="Helvetica" font-size="14.00">CanWorkspace</text>
</g>
<!-- Scale -->
<g id="node9" class="node">
<title>Scale</title>
<path fill="lightskyblue" stroke="black" d="M360.98,-457C360.98,-457 330.98,-457 330.98,-457 324.98,-457 318.98,-451 318.98,-445 318.98,-445 318.98,-433 318.98,-433 318.98,-427 324.98,-421 330.98,-421 330.98,-421 360.98,-421 360.98,-421 366.98,-421 372.98,-427 372.98,-433 372.98,-433 372.98,-445 372.98,-445 372.98,-451 366.98,-457 360.98,-457"/>
<text text-anchor="middle" x="345.98" y="-435.3" font-family="Helvetica" font-size="14.00">Scale</text>
</g>
<!-- CanWorkspace&#45;&gt;Scale -->
<g id="edge1" class="edge">
<title>CanWorkspace&#45;&gt;Scale</title>
<path fill="none" stroke="black" d="M322.84,-507.8C326.85,-496.05 332.25,-480.24 336.82,-466.84"/>
<polygon fill="black" stroke="black" points="340.2,-467.77 340.12,-457.18 333.57,-465.51 340.2,-467.77"/>
</g>
<!-- CanScaleFactor -->
<g id="node7" class="node">
<title>CanScaleFactor</title>
<ellipse fill="khaki" stroke="black" cx="478.98" cy="-526" rx="73.39" ry="18"/>
<text text-anchor="middle" x="478.98" y="-522.3" font-family="Helvetica" font-size="14.00">CanScaleFactor</text>
</g>
<!-- CanScaleFactor&#45;&gt;Scale -->
<g id="edge2" class="edge">
<title>CanScaleFactor&#45;&gt;Scale</title>
<path fill="none" stroke="black" d="M453.96,-509.01C433.41,-495.88 404.06,-477.12 381.14,-462.47"/>
<polygon fill="black" stroke="black" points="383.02,-459.52 372.71,-457.08 379.25,-465.42 383.02,-459.52"/>
</g>
<!-- OutputWorkspace -->
<g id="node8" class="node">
<title>OutputWorkspace</title>
<ellipse fill="khaki" stroke="black" cx="539.98" cy="-18" rx="81.49" ry="18"/>
<text text-anchor="middle" x="539.98" y="-14.3" font-family="Helvetica" font-size="14.00">OutputWorkspace</text>
</g>
<!-- Scale&#45;&gt;Divide_CanAcc -->
<g id="edge9" class="edge">
<title>Scale&#45;&gt;Divide_CanAcc</title>
<path fill="none" stroke="black" d="M318.67,-422.21C295.05,-408.55 260.73,-388.71 234.89,-373.77"/>
<polygon fill="black" stroke="black" points="236.54,-370.68 226.13,-368.7 233.04,-376.74 236.54,-370.68"/>
<text text-anchor="middle" x="328.98" y="-391.8" font-family="Helvetica" font-size="14.00">LHSWorkspace</text>
</g>
<!-- Minus&#45;&gt;Divide_CorrAssc -->
<g id="edge17" class="edge">
<title>Minus&#45;&gt;Divide_CorrAssc</title>
<path fill="none" stroke="black" d="M407.37,-159.69C415.8,-149 427.78,-135.71 440.98,-127 459.76,-114.6 483.46,-106.02 502.96,-100.46"/>
<polygon fill="black" stroke="black" points="503.98,-103.81 512.72,-97.82 502.15,-97.05 503.98,-103.81"/>
<text text-anchor="middle" x="487.98" y="-130.8" font-family="Helvetica" font-size="14.00">LHSWorkspace</text>
</g>
<!-- Multiply&#45;&gt;Minus -->
<g id="edge16" class="edge">
<title>Multiply&#45;&gt;Minus</title>
<path fill="none" stroke="black" d="M394.98,-246.8C394.98,-235.16 394.98,-219.55 394.98,-206.24"/>
<polygon fill="black" stroke="black" points="398.48,-206.18 394.98,-196.18 391.48,-206.18 398.48,-206.18"/>
<text text-anchor="middle" x="443.48" y="-217.8" font-family="Helvetica" font-size="14.00">RHSWorkspace</text>
</g>
<!-- ConvertUnits_Acc&#45;&gt;Divide_CanAcc -->
<g id="edge11" class="edge">
<title>ConvertUnits_Acc&#45;&gt;Divide_CanAcc</title>
<path fill="none" stroke="black" d="M64.67,-420.76C59.4,-410.36 55.72,-397.36 62.98,-388 75.01,-372.48 125.75,-362.63 161.72,-357.46"/>
<polygon fill="black" stroke="black" points="162.46,-360.9 171.89,-356.07 161.51,-353.96 162.46,-360.9"/>
<text text-anchor="middle" x="111.48" y="-391.8" font-family="Helvetica" font-size="14.00">RHSWorkspace</text>
</g>
<!-- ConvertUnits_Acsc&#45;&gt;Multiply -->
<g id="edge14" class="edge">
<title>ConvertUnits_Acsc&#45;&gt;Multiply</title>
<path fill="none" stroke="black" d="M396.24,-333.9C394.09,-328.31 392.05,-322 390.98,-316 389.66,-308.66 389.67,-300.63 390.27,-293.21"/>
<polygon fill="black" stroke="black" points="393.75,-293.57 391.43,-283.23 386.79,-292.76 393.75,-293.57"/>
<text text-anchor="middle" x="439.48" y="-304.8" font-family="Helvetica" font-size="14.00">RHSWorkspace</text>
</g>
<!-- ConvertUnits_Assc&#45;&gt;Divide_CorrAssc -->
<g id="edge19" class="edge">
<title>ConvertUnits_Assc&#45;&gt;Divide_CorrAssc</title>
<path fill="none" stroke="black" d="M546.31,-159.88C544.17,-154.29 542.11,-147.99 540.98,-142 539.6,-134.78 539.03,-126.87 538.88,-119.51"/>
<polygon fill="black" stroke="black" points="542.38,-119.28 538.91,-109.27 535.38,-119.26 542.38,-119.28"/>
<text text-anchor="middle" x="589.48" y="-130.8" font-family="Helvetica" font-size="14.00">RHSWorkspace</text>
</g>
<!-- Divide_CanAcc&#45;&gt;Multiply -->
<g id="edge12" class="edge">
<title>Divide_CanAcc&#45;&gt;Multiply</title>
<path fill="none" stroke="black" d="M226.31,-334.32C244.46,-323.75 269.07,-310.36 291.98,-301 316.05,-291.16 325.18,-292.18 353.78,-282.8"/>
<polygon fill="black" stroke="black" points="355,-286.08 363.33,-279.53 352.73,-279.46 355,-286.08"/>
<text text-anchor="middle" x="338.98" y="-304.8" font-family="Helvetica" font-size="14.00">LHSWorkspace</text>
</g>
<!-- Divide_CorrAssc&#45;&gt;OutputWorkspace -->
<g id="edge20" class="edge">
<title>Divide_CorrAssc&#45;&gt;OutputWorkspace</title>
<path fill="none" stroke="black" d="M539.98,-72.81C539.98,-64.79 539.98,-55.05 539.98,-46.07"/>
<polygon fill="black" stroke="black" points="543.48,-46.03 539.98,-36.03 536.48,-46.03 543.48,-46.03"/>
</g>
</g>
</svg>
