<?xml version="1.0" encoding="UTF-8" standalone="no"?>
<!DOCTYPE svg PUBLIC "-//W3C//DTD SVG 1.1//EN"
 "http://www.w3.org/Graphics/SVG/1.1/DTD/svg11.dtd">
<!-- Generated by graphviz version 7.0.5 (20221231.0122)
 -->
<!-- Title: ApplyPaalmanPingsCorrection_FullCorrection Pages: 1 -->
<svg width="866pt" height="662pt"
 viewBox="0.00 0.00 865.68 662.00" xmlns="http://www.w3.org/2000/svg" xmlns:xlink="http://www.w3.org/1999/xlink">
<g id="graph0" class="graph" transform="scale(1 1) rotate(0) translate(4 658)">
<title>ApplyPaalmanPingsCorrection_FullCorrection</title>
<polygon fill="white" stroke="none" points="-4,4 -4,-658 861.68,-658 861.68,4 -4,4"/>
<text text-anchor="middle" x="428.84" y="-638.8" font-family="Helvetica,sans-Serif" font-size="14.00">ApplyPaalmanPingsCorrection Full Corrections Flowchart</text>
<!-- IsAccInWavelength -->
<g id="node1" class="node">
<title>IsAccInWavelength</title>
<polygon fill="limegreen" stroke="black" points="128.68,-544 -0.18,-526 128.68,-508 257.55,-526 128.68,-544"/>
<text text-anchor="middle" x="128.68" y="-522.3" font-family="Helvetica,sans-Serif" font-size="14.00">Is in Wavelength?</text>
</g>
<!-- ConvertUnits_Acc -->
<g id="node12" class="node">
<title>ConvertUnits_Acc</title>
<path fill="lightskyblue" stroke="black" d="M132.18,-457C132.18,-457 49.18,-457 49.18,-457 43.18,-457 37.18,-451 37.18,-445 37.18,-445 37.18,-433 37.18,-433 37.18,-427 43.18,-421 49.18,-421 49.18,-421 132.18,-421 132.18,-421 138.18,-421 144.18,-427 144.18,-433 144.18,-433 144.18,-445 144.18,-445 144.18,-451 138.18,-457 132.18,-457"/>
<text text-anchor="middle" x="90.68" y="-435.3" font-family="Helvetica,sans-Serif" font-size="14.00">ConvertUnits</text>
</g>
<!-- IsAccInWavelength&#45;&gt;ConvertUnits_Acc -->
<g id="edge6" class="edge">
<title>IsAccInWavelength&#45;&gt;ConvertUnits_Acc</title>
<path fill="none" stroke="black" d="M121.36,-508.61C116.15,-496.96 109.03,-481.04 102.96,-467.47"/>
<polygon fill="black" stroke="black" points="106.27,-466.3 99,-458.6 99.88,-469.15 106.27,-466.3"/>
<text text-anchor="middle" x="122.18" y="-478.8" font-family="Helvetica,sans-Serif" font-size="14.00">No</text>
</g>
<!-- Divide_CanAcc -->
<g id="node15" class="node">
<title>Divide_CanAcc</title>
<path fill="lightskyblue" stroke="black" d="M240.68,-370C240.68,-370 204.68,-370 204.68,-370 198.68,-370 192.68,-364 192.68,-358 192.68,-358 192.68,-346 192.68,-346 192.68,-340 198.68,-334 204.68,-334 204.68,-334 240.68,-334 240.68,-334 246.68,-334 252.68,-340 252.68,-346 252.68,-346 252.68,-358 252.68,-358 252.68,-364 246.68,-370 240.68,-370"/>
<text text-anchor="middle" x="222.68" y="-348.3" font-family="Helvetica,sans-Serif" font-size="14.00">Divide</text>
</g>
<!-- IsAccInWavelength&#45;&gt;Divide_CanAcc -->
<g id="edge10" class="edge">
<title>IsAccInWavelength&#45;&gt;Divide_CanAcc</title>
<path fill="none" stroke="black" d="M137.53,-508.82C153.66,-479.29 188.05,-416.37 207.84,-380.16"/>
<polygon fill="black" stroke="black" points="210.79,-382.06 212.51,-371.61 204.64,-378.71 210.79,-382.06"/>
<text text-anchor="middle" x="254.68" y="-435.3" font-family="Helvetica,sans-Serif" font-size="14.00">Yes, RHSWorkspace</text>
</g>
<!-- IsAcscInWavelength -->
<g id="node2" class="node">
<title>IsAcscInWavelength</title>
<polygon fill="limegreen" stroke="black" points="552.68,-457 423.82,-439 552.68,-421 681.55,-439 552.68,-457"/>
<text text-anchor="middle" x="552.68" y="-435.3" font-family="Helvetica,sans-Serif" font-size="14.00">Is in Wavelength?</text>
</g>
<!-- Multiply -->
<g id="node11" class="node">
<title>Multiply</title>
<path fill="lightskyblue" stroke="black" d="M459.18,-283C459.18,-283 412.18,-283 412.18,-283 406.18,-283 400.18,-277 400.18,-271 400.18,-271 400.18,-259 400.18,-259 400.18,-253 406.18,-247 412.18,-247 412.18,-247 459.18,-247 459.18,-247 465.18,-247 471.18,-253 471.18,-259 471.18,-259 471.18,-271 471.18,-271 471.18,-277 465.18,-283 459.18,-283"/>
<text text-anchor="middle" x="435.68" y="-261.3" font-family="Helvetica,sans-Serif" font-size="14.00">Multiply</text>
</g>
<!-- IsAcscInWavelength&#45;&gt;Multiply -->
<g id="edge13" class="edge">
<title>IsAcscInWavelength&#45;&gt;Multiply</title>
<path fill="none" stroke="black" d="M556.09,-421.12C560.75,-392.94 565.63,-335.94 537.68,-301 524.37,-284.36 502.74,-275.6 482.82,-271"/>
<polygon fill="black" stroke="black" points="483.65,-267.6 473.16,-269.09 482.29,-274.46 483.65,-267.6"/>
<text text-anchor="middle" x="627.68" y="-348.3" font-family="Helvetica,sans-Serif" font-size="14.00">Yes, RHSWorkspace</text>
</g>
<!-- ConvertUnits_Acsc -->
<g id="node13" class="node">
<title>ConvertUnits_Acsc</title>
<path fill="lightskyblue" stroke="black" d="M487.18,-370C487.18,-370 404.18,-370 404.18,-370 398.18,-370 392.18,-364 392.18,-358 392.18,-358 392.18,-346 392.18,-346 392.18,-340 398.18,-334 404.18,-334 404.18,-334 487.18,-334 487.18,-334 493.18,-334 499.18,-340 499.18,-346 499.18,-346 499.18,-358 499.18,-358 499.18,-364 493.18,-370 487.18,-370"/>
<text text-anchor="middle" x="445.68" y="-348.3" font-family="Helvetica,sans-Serif" font-size="14.00">ConvertUnits</text>
</g>
<!-- IsAcscInWavelength&#45;&gt;ConvertUnits_Acsc -->
<g id="edge7" class="edge">
<title>IsAcscInWavelength&#45;&gt;ConvertUnits_Acsc</title>
<path fill="none" stroke="black" d="M534.04,-423.19C518.17,-410.58 495.03,-392.2 476.41,-377.41"/>
<polygon fill="black" stroke="black" points="478.62,-374.69 468.61,-371.21 474.26,-380.17 478.62,-374.69"/>
<text text-anchor="middle" x="515.18" y="-391.8" font-family="Helvetica,sans-Serif" font-size="14.00">No</text>
</g>
<!-- IsAsscInWavelength -->
<g id="node3" class="node">
<title>IsAsscInWavelength</title>
<polygon fill="limegreen" stroke="black" points="712.68,-283 583.82,-265 712.68,-247 841.55,-265 712.68,-283"/>
<text text-anchor="middle" x="712.68" y="-261.3" font-family="Helvetica,sans-Serif" font-size="14.00">Is in Wavelength?</text>
</g>
<!-- ConvertUnits_Assc -->
<g id="node14" class="node">
<title>ConvertUnits_Assc</title>
<path fill="lightskyblue" stroke="black" d="M648.18,-196C648.18,-196 565.18,-196 565.18,-196 559.18,-196 553.18,-190 553.18,-184 553.18,-184 553.18,-172 553.18,-172 553.18,-166 559.18,-160 565.18,-160 565.18,-160 648.18,-160 648.18,-160 654.18,-160 660.18,-166 660.18,-172 660.18,-172 660.18,-184 660.18,-184 660.18,-190 654.18,-196 648.18,-196"/>
<text text-anchor="middle" x="606.68" y="-174.3" font-family="Helvetica,sans-Serif" font-size="14.00">ConvertUnits</text>
</g>
<!-- IsAsscInWavelength&#45;&gt;ConvertUnits_Assc -->
<g id="edge8" class="edge">
<title>IsAsscInWavelength&#45;&gt;ConvertUnits_Assc</title>
<path fill="none" stroke="black" d="M694.22,-249.19C678.49,-236.58 655.57,-218.2 637.13,-203.41"/>
<polygon fill="black" stroke="black" points="639.39,-200.74 629.4,-197.22 635.01,-206.2 639.39,-200.74"/>
<text text-anchor="middle" x="675.18" y="-217.8" font-family="Helvetica,sans-Serif" font-size="14.00">No</text>
</g>
<!-- Divide_CorrAssc -->
<g id="node16" class="node">
<title>Divide_CorrAssc</title>
<path fill="lightskyblue" stroke="black" d="M609.68,-109C609.68,-109 573.68,-109 573.68,-109 567.68,-109 561.68,-103 561.68,-97 561.68,-97 561.68,-85 561.68,-85 561.68,-79 567.68,-73 573.68,-73 573.68,-73 609.68,-73 609.68,-73 615.68,-73 621.68,-79 621.68,-85 621.68,-85 621.68,-97 621.68,-97 621.68,-103 615.68,-109 609.68,-109"/>
<text text-anchor="middle" x="591.68" y="-87.3" font-family="Helvetica,sans-Serif" font-size="14.00">Divide</text>
</g>
<!-- IsAsscInWavelength&#45;&gt;Divide_CorrAssc -->
<g id="edge18" class="edge">
<title>IsAsscInWavelength&#45;&gt;Divide_CorrAssc</title>
<path fill="none" stroke="black" d="M716.29,-247.09C721.27,-218.87 726.73,-161.81 698.68,-127 682.95,-107.47 656.1,-98.73 633.24,-94.86"/>
<polygon fill="black" stroke="black" points="633.95,-91.43 623.56,-93.5 632.98,-98.36 633.95,-91.43"/>
<text text-anchor="middle" x="788.68" y="-174.3" font-family="Helvetica,sans-Serif" font-size="14.00">Yes, RHSWorkspace</text>
</g>
<!-- SampleWorkspace -->
<g id="node4" class="node">
<title>SampleWorkspace</title>
<ellipse fill="khaki" stroke="black" cx="287.68" cy="-265" rx="94.48" ry="18"/>
<text text-anchor="middle" x="287.68" y="-261.3" font-family="Helvetica,sans-Serif" font-size="14.00">SampleWorkspace</text>
</g>
<!-- Minus -->
<g id="node10" class="node">
<title>Minus</title>
<path fill="lightskyblue" stroke="black" d="M452.68,-196C452.68,-196 418.68,-196 418.68,-196 412.68,-196 406.68,-190 406.68,-184 406.68,-184 406.68,-172 406.68,-172 406.68,-166 412.68,-160 418.68,-160 418.68,-160 452.68,-160 452.68,-160 458.68,-160 464.68,-166 464.68,-172 464.68,-172 464.68,-184 464.68,-184 464.68,-190 458.68,-196 452.68,-196"/>
<text text-anchor="middle" x="435.68" y="-174.3" font-family="Helvetica,sans-Serif" font-size="14.00">Minus</text>
</g>
<!-- SampleWorkspace&#45;&gt;Minus -->
<g id="edge15" class="edge">
<title>SampleWorkspace&#45;&gt;Minus</title>
<path fill="none" stroke="black" d="M297.61,-247.01C304.73,-236.17 315.24,-222.6 327.68,-214 347.89,-200.04 374.01,-191.37 395.5,-186.16"/>
<polygon fill="black" stroke="black" points="396.11,-189.61 405.1,-184 394.58,-182.78 396.11,-189.61"/>
<text text-anchor="middle" x="379.68" y="-217.8" font-family="Helvetica,sans-Serif" font-size="14.00">LHSWorkspace</text>
</g>
<!-- CorrectionsWorkspace -->
<g id="node5" class="node">
<title>CorrectionsWorkspace</title>
<ellipse fill="khaki" stroke="black" cx="645.68" cy="-613" rx="111.58" ry="18"/>
<text text-anchor="middle" x="645.68" y="-609.3" font-family="Helvetica,sans-Serif" font-size="14.00">CorrectionsWorkspace</text>
</g>
<!-- CorrectionsWorkspace&#45;&gt;IsAccInWavelength -->
<g id="edge3" class="edge">
<title>CorrectionsWorkspace&#45;&gt;IsAccInWavelength</title>
<path fill="none" stroke="black" d="M569.4,-599.46C468.89,-582.93 293.6,-554.11 197.15,-538.26"/>
<polygon fill="black" stroke="black" points="198.01,-534.85 187.57,-536.68 196.87,-541.76 198.01,-534.85"/>
<text text-anchor="middle" x="433.68" y="-565.8" font-family="Helvetica,sans-Serif" font-size="14.00">Ac,c</text>
</g>
<!-- CorrectionsWorkspace&#45;&gt;IsAcscInWavelength -->
<g id="edge4" class="edge">
<title>CorrectionsWorkspace&#45;&gt;IsAcscInWavelength</title>
<path fill="none" stroke="black" d="M643.95,-594.79C641.19,-573.3 634.41,-535.97 618.68,-508 608.89,-490.59 593.54,-474.4 580.11,-462.19"/>
<polygon fill="black" stroke="black" points="582.6,-459.72 572.78,-455.76 577.99,-464.98 582.6,-459.72"/>
<text text-anchor="middle" x="651.18" y="-522.3" font-family="Helvetica,sans-Serif" font-size="14.00">Ac,sc</text>
</g>
<!-- CorrectionsWorkspace&#45;&gt;IsAsscInWavelength -->
<g id="edge5" class="edge">
<title>CorrectionsWorkspace&#45;&gt;IsAsscInWavelength</title>
<path fill="none" stroke="black" d="M672.49,-595.27C692.96,-580.21 717.68,-556.01 717.68,-527 717.68,-527 717.68,-527 717.68,-351 717.68,-332.09 716.43,-310.85 715.18,-294.33"/>
<polygon fill="black" stroke="black" points="718.7,-294.43 714.41,-284.75 711.73,-295 718.7,-294.43"/>
<text text-anchor="middle" x="736.18" y="-435.3" font-family="Helvetica,sans-Serif" font-size="14.00">As,sc</text>
</g>
<!-- CanWorkspace -->
<g id="node6" class="node">
<title>CanWorkspace</title>
<ellipse fill="khaki" stroke="black" cx="353.68" cy="-526" rx="77.99" ry="18"/>
<text text-anchor="middle" x="353.68" y="-522.3" font-family="Helvetica,sans-Serif" font-size="14.00">CanWorkspace</text>
</g>
<!-- Scale -->
<g id="node9" class="node">
<title>Scale</title>
<path fill="lightskyblue" stroke="black" d="M393.68,-457C393.68,-457 363.68,-457 363.68,-457 357.68,-457 351.68,-451 351.68,-445 351.68,-445 351.68,-433 351.68,-433 351.68,-427 357.68,-421 363.68,-421 363.68,-421 393.68,-421 393.68,-421 399.68,-421 405.68,-427 405.68,-433 405.68,-433 405.68,-445 405.68,-445 405.68,-451 399.68,-457 393.68,-457"/>
<text text-anchor="middle" x="378.68" y="-435.3" font-family="Helvetica,sans-Serif" font-size="14.00">Scale</text>
</g>
<!-- CanWorkspace&#45;&gt;Scale -->
<g id="edge1" class="edge">
<title>CanWorkspace&#45;&gt;Scale</title>
<path fill="none" stroke="black" d="M358.74,-507.8C362.07,-496.47 366.52,-481.36 370.36,-468.29"/>
<polygon fill="black" stroke="black" points="373.65,-469.5 373.12,-458.92 366.94,-467.53 373.65,-469.5"/>
</g>
<!-- CanScaleFactor -->
<g id="node7" class="node">
<title>CanScaleFactor</title>
<ellipse fill="khaki" stroke="black" cx="529.68" cy="-526" rx="79.89" ry="18"/>
<text text-anchor="middle" x="529.68" y="-522.3" font-family="Helvetica,sans-Serif" font-size="14.00">CanScaleFactor</text>
</g>
<!-- CanScaleFactor&#45;&gt;Scale -->
<g id="edge2" class="edge">
<title>CanScaleFactor&#45;&gt;Scale</title>
<path fill="none" stroke="black" d="M500.92,-508.81C476.83,-495.25 442.26,-475.79 416.02,-461.02"/>
<polygon fill="black" stroke="black" points="417.81,-458.01 407.38,-456.15 414.38,-464.11 417.81,-458.01"/>
</g>
<!-- OutputWorkspace -->
<g id="node8" class="node">
<title>OutputWorkspace</title>
<ellipse fill="khaki" stroke="black" cx="591.68" cy="-18" rx="92.08" ry="18"/>
<text text-anchor="middle" x="591.68" y="-14.3" font-family="Helvetica,sans-Serif" font-size="14.00">OutputWorkspace</text>
</g>
<!-- Scale&#45;&gt;Divide_CanAcc -->
<g id="edge9" class="edge">
<title>Scale&#45;&gt;Divide_CanAcc</title>
<path fill="none" stroke="black" d="M351.51,-423.19C327.02,-409.85 290.69,-390.05 262.85,-374.88"/>
<polygon fill="black" stroke="black" points="264.79,-371.96 254.34,-370.25 261.44,-378.11 264.79,-371.96"/>
<text text-anchor="middle" x="362.68" y="-391.8" font-family="Helvetica,sans-Serif" font-size="14.00">LHSWorkspace</text>
</g>
<!-- Minus&#45;&gt;Divide_CorrAssc -->
<g id="edge17" class="edge">
<title>Minus&#45;&gt;Divide_CorrAssc</title>
<path fill="none" stroke="black" d="M448.34,-159.57C456.94,-148.83 469.19,-135.53 482.68,-127 503.19,-114.04 528.92,-105.48 550.23,-100.08"/>
<polygon fill="black" stroke="black" points="550.85,-103.53 559.77,-97.81 549.23,-96.72 550.85,-103.53"/>
<text text-anchor="middle" x="534.68" y="-130.8" font-family="Helvetica,sans-Serif" font-size="14.00">LHSWorkspace</text>
</g>
<!-- Multiply&#45;&gt;Minus -->
<g id="edge16" class="edge">
<title>Multiply&#45;&gt;Minus</title>
<path fill="none" stroke="black" d="M435.68,-246.8C435.68,-235.58 435.68,-220.67 435.68,-207.69"/>
<polygon fill="black" stroke="black" points="439.18,-207.98 435.68,-197.98 432.18,-207.98 439.18,-207.98"/>
<text text-anchor="middle" x="488.68" y="-217.8" font-family="Helvetica,sans-Serif" font-size="14.00">RHSWorkspace</text>
</g>
<!-- ConvertUnits_Acc&#45;&gt;Divide_CanAcc -->
<g id="edge11" class="edge">
<title>ConvertUnits_Acc&#45;&gt;Divide_CanAcc</title>
<path fill="none" stroke="black" d="M78.31,-420.78C72.49,-410.39 68.27,-397.39 75.68,-388 88.67,-371.56 142.68,-362.01 181.46,-357.15"/>
<polygon fill="black" stroke="black" points="181.43,-360.68 190.95,-356.03 180.6,-353.73 181.43,-360.68"/>
<text text-anchor="middle" x="128.68" y="-391.8" font-family="Helvetica,sans-Serif" font-size="14.00">RHSWorkspace</text>
</g>
<!-- ConvertUnits_Acsc&#45;&gt;Multiply -->
<g id="edge14" class="edge">
<title>ConvertUnits_Acsc&#45;&gt;Multiply</title>
<path fill="none" stroke="black" d="M437.21,-333.59C434.95,-328.1 432.82,-321.91 431.68,-316 430.35,-309.1 430.26,-301.58 430.75,-294.51"/>
<polygon fill="black" stroke="black" points="434.21,-295.08 431.86,-284.75 427.26,-294.3 434.21,-295.08"/>
<text text-anchor="middle" x="484.68" y="-304.8" font-family="Helvetica,sans-Serif" font-size="14.00">RHSWorkspace</text>
</g>
<!-- ConvertUnits_Assc&#45;&gt;Divide_CorrAssc -->
<g id="edge19" class="edge">
<title>ConvertUnits_Assc&#45;&gt;Divide_CorrAssc</title>
<path fill="none" stroke="black" d="M598.28,-159.58C596.02,-154.08 593.88,-147.9 592.68,-142 591.29,-135.13 590.67,-127.62 590.49,-120.56"/>
<polygon fill="black" stroke="black" points="593.99,-120.81 590.51,-110.81 586.99,-120.8 593.99,-120.81"/>
<text text-anchor="middle" x="645.68" y="-130.8" font-family="Helvetica,sans-Serif" font-size="14.00">RHSWorkspace</text>
</g>
<!-- Divide_CanAcc&#45;&gt;Multiply -->
<g id="edge12" class="edge">
<title>Divide_CanAcc&#45;&gt;Multiply</title>
<path fill="none" stroke="black" d="M253.03,-333.78C272.48,-323.26 298.53,-310.12 322.68,-301 349.07,-291.03 358.96,-292.16 389.32,-283.18"/>
<polygon fill="black" stroke="black" points="389.98,-286.64 398.49,-280.33 387.9,-279.95 389.98,-286.64"/>
<text text-anchor="middle" x="374.68" y="-304.8" font-family="Helvetica,sans-Serif" font-size="14.00">LHSWorkspace</text>
</g>
<!-- Divide_CorrAssc&#45;&gt;OutputWorkspace -->
<g id="edge20" class="edge">
<title>Divide_CorrAssc&#45;&gt;OutputWorkspace</title>
<path fill="none" stroke="black" d="M591.68,-72.81C591.68,-65.23 591.68,-56.1 591.68,-47.54"/>
<polygon fill="black" stroke="black" points="595.18,-47.54 591.68,-37.54 588.18,-47.54 595.18,-47.54"/>
</g>
</g>
</svg>
