<?xml version="1.0" encoding="UTF-8" standalone="no"?>
<!DOCTYPE svg PUBLIC "-//W3C//DTD SVG 1.1//EN"
 "http://www.w3.org/Graphics/SVG/1.1/DTD/svg11.dtd">
<!-- Generated by graphviz version 2.47.2 (20210527.1257)
 -->
<!-- Title: BASISReduction Pages: 1 -->
<svg width="1120pt" height="2841pt"
 viewBox="0.00 0.00 1120.49 2841.00" xmlns="http://www.w3.org/2000/svg" xmlns:xlink="http://www.w3.org/1999/xlink">
<g id="graph0" class="graph" transform="scale(1 1) rotate(0) translate(4 2837)">
<title>BASISReduction</title>
<polygon fill="white" stroke="transparent" points="-4,4 -4,-2837 1116.49,-2837 1116.49,4 -4,4"/>
<text text-anchor="middle" x="556.25" y="-2817.8" font-family="Helvetica" font-size="14.00">BASISReduction Flowchart</text>
<!-- loadMaskFile -->
<g id="node1" class="node">
<title>loadMaskFile</title>
<path fill="lightskyblue" stroke="black" d="M981.15,-2650C981.15,-2650 905.15,-2650 905.15,-2650 899.15,-2650 893.15,-2644 893.15,-2638 893.15,-2638 893.15,-2626 893.15,-2626 893.15,-2620 899.15,-2614 905.15,-2614 905.15,-2614 981.15,-2614 981.15,-2614 987.15,-2614 993.15,-2620 993.15,-2626 993.15,-2626 993.15,-2638 993.15,-2638 993.15,-2644 987.15,-2650 981.15,-2650"/>
<text text-anchor="middle" x="943.15" y="-2628.3" font-family="Helvetica" font-size="14.00">load mask file</text>
</g>
<!-- maskData -->
<g id="node43" class="node">
<title>maskData</title>
<polygon fill="grey" stroke="black" points="987.57,-2563 905.78,-2563 884.74,-2527 966.53,-2527 987.57,-2563"/>
<text text-anchor="middle" x="936.15" y="-2541.3" font-family="Times-Roman" font-size="14.00">mask</text>
</g>
<!-- loadMaskFile&#45;&gt;maskData -->
<g id="edge5" class="edge">
<title>loadMaskFile&#45;&gt;maskData</title>
<path fill="none" stroke="black" d="M941.74,-2613.8C940.78,-2602.16 939.49,-2586.55 938.4,-2573.24"/>
<polygon fill="black" stroke="black" points="941.88,-2572.85 937.57,-2563.18 934.9,-2573.43 941.88,-2572.85"/>
</g>
<!-- aggregateV -->
<g id="node2" class="node">
<title>aggregateV</title>
<path fill="lightskyblue" stroke="black" d="M619.15,-2563C619.15,-2563 471.15,-2563 471.15,-2563 465.15,-2563 459.15,-2557 459.15,-2551 459.15,-2551 459.15,-2539 459.15,-2539 459.15,-2533 465.15,-2527 471.15,-2527 471.15,-2527 619.15,-2527 619.15,-2527 625.15,-2527 631.15,-2533 631.15,-2539 631.15,-2539 631.15,-2551 631.15,-2551 631.15,-2557 625.15,-2563 619.15,-2563"/>
<text text-anchor="middle" x="545.15" y="-2541.3" font-family="Helvetica" font-size="14.00">aggregate Vanadium runs</text>
</g>
<!-- maskDetectors -->
<g id="node3" class="node">
<title>maskDetectors</title>
<path fill="lightskyblue" stroke="black" d="M825.65,-2490C825.65,-2490 740.65,-2490 740.65,-2490 734.65,-2490 728.65,-2484 728.65,-2478 728.65,-2478 728.65,-2466 728.65,-2466 728.65,-2460 734.65,-2454 740.65,-2454 740.65,-2454 825.65,-2454 825.65,-2454 831.65,-2454 837.65,-2460 837.65,-2466 837.65,-2466 837.65,-2478 837.65,-2478 837.65,-2484 831.65,-2490 825.65,-2490"/>
<text text-anchor="middle" x="783.15" y="-2468.3" font-family="Helvetica" font-size="14.00">mask detectors</text>
</g>
<!-- aggregateV&#45;&gt;maskDetectors -->
<g id="edge10" class="edge">
<title>aggregateV&#45;&gt;maskDetectors</title>
<path fill="none" stroke="black" d="M602.16,-2526.99C637.1,-2516.57 681.95,-2503.19 718.25,-2492.36"/>
<polygon fill="black" stroke="black" points="719.67,-2495.59 728.25,-2489.38 717.67,-2488.88 719.67,-2495.59"/>
</g>
<!-- moderatorTzeroLinear -->
<g id="node4" class="node">
<title>moderatorTzeroLinear</title>
<path fill="lightskyblue" stroke="black" d="M898.15,-2417C898.15,-2417 668.15,-2417 668.15,-2417 662.15,-2417 656.15,-2411 656.15,-2405 656.15,-2405 656.15,-2393 656.15,-2393 656.15,-2387 662.15,-2381 668.15,-2381 668.15,-2381 898.15,-2381 898.15,-2381 904.15,-2381 910.15,-2387 910.15,-2393 910.15,-2393 910.15,-2405 910.15,-2405 910.15,-2411 904.15,-2417 898.15,-2417"/>
<text text-anchor="middle" x="783.15" y="-2395.3" font-family="Helvetica" font-size="14.00">remove emission delay from moderator</text>
</g>
<!-- maskDetectors&#45;&gt;moderatorTzeroLinear -->
<g id="edge12" class="edge">
<title>maskDetectors&#45;&gt;moderatorTzeroLinear</title>
<path fill="none" stroke="black" d="M783.15,-2453.81C783.15,-2445.79 783.15,-2436.05 783.15,-2427.07"/>
<polygon fill="black" stroke="black" points="786.65,-2427.03 783.15,-2417.03 779.65,-2427.03 786.65,-2427.03"/>
</g>
<!-- convertUnitsToWavelength -->
<g id="node5" class="node">
<title>convertUnitsToWavelength</title>
<path fill="lightskyblue" stroke="black" d="M861.15,-2344C861.15,-2344 705.15,-2344 705.15,-2344 699.15,-2344 693.15,-2338 693.15,-2332 693.15,-2332 693.15,-2320 693.15,-2320 693.15,-2314 699.15,-2308 705.15,-2308 705.15,-2308 861.15,-2308 861.15,-2308 867.15,-2308 873.15,-2314 873.15,-2320 873.15,-2320 873.15,-2332 873.15,-2332 873.15,-2338 867.15,-2344 861.15,-2344"/>
<text text-anchor="middle" x="783.15" y="-2322.3" font-family="Helvetica" font-size="14.00">convert units to wavelength</text>
</g>
<!-- moderatorTzeroLinear&#45;&gt;convertUnitsToWavelength -->
<g id="edge13" class="edge">
<title>moderatorTzeroLinear&#45;&gt;convertUnitsToWavelength</title>
<path fill="none" stroke="black" d="M783.15,-2380.81C783.15,-2372.79 783.15,-2363.05 783.15,-2354.07"/>
<polygon fill="black" stroke="black" points="786.65,-2354.03 783.15,-2344.03 779.65,-2354.03 786.65,-2354.03"/>
</g>
<!-- checkMonNorm -->
<g id="node32" class="node">
<title>checkMonNorm</title>
<polygon fill="limegreen" stroke="black" points="783.15,-2271 624.12,-2253 783.15,-2235 942.18,-2253 783.15,-2271"/>
<text text-anchor="middle" x="783.15" y="-2249.3" font-family="Helvetica" font-size="14.00">do monitor normalization?</text>
</g>
<!-- convertUnitsToWavelength&#45;&gt;checkMonNorm -->
<g id="edge14" class="edge">
<title>convertUnitsToWavelength&#45;&gt;checkMonNorm</title>
<path fill="none" stroke="black" d="M783.15,-2307.81C783.15,-2299.79 783.15,-2290.05 783.15,-2281.07"/>
<polygon fill="black" stroke="black" points="786.65,-2281.03 783.15,-2271.03 779.65,-2281.03 786.65,-2281.03"/>
</g>
<!-- moderatorTzeroLinearM -->
<g id="node6" class="node">
<title>moderatorTzeroLinearM</title>
<path fill="lightskyblue" stroke="black" d="M833.65,-2184C833.65,-2184 550.65,-2184 550.65,-2184 544.65,-2184 538.65,-2178 538.65,-2172 538.65,-2172 538.65,-2160 538.65,-2160 538.65,-2154 544.65,-2148 550.65,-2148 550.65,-2148 833.65,-2148 833.65,-2148 839.65,-2148 845.65,-2154 845.65,-2160 845.65,-2160 845.65,-2172 845.65,-2172 845.65,-2178 839.65,-2184 833.65,-2184"/>
<text text-anchor="middle" x="692.15" y="-2162.3" font-family="Helvetica" font-size="14.00">Monitor: remove emission delay from moderator</text>
</g>
<!-- convertUnitsToWavelengthM -->
<g id="node7" class="node">
<title>convertUnitsToWavelengthM</title>
<path fill="lightskyblue" stroke="black" d="M823.65,-2111C823.65,-2111 614.65,-2111 614.65,-2111 608.65,-2111 602.65,-2105 602.65,-2099 602.65,-2099 602.65,-2087 602.65,-2087 602.65,-2081 608.65,-2075 614.65,-2075 614.65,-2075 823.65,-2075 823.65,-2075 829.65,-2075 835.65,-2081 835.65,-2087 835.65,-2087 835.65,-2099 835.65,-2099 835.65,-2105 829.65,-2111 823.65,-2111"/>
<text text-anchor="middle" x="719.15" y="-2089.3" font-family="Helvetica" font-size="14.00">Monitor: convert units to wavelength</text>
</g>
<!-- moderatorTzeroLinearM&#45;&gt;convertUnitsToWavelengthM -->
<g id="edge17" class="edge">
<title>moderatorTzeroLinearM&#45;&gt;convertUnitsToWavelengthM</title>
<path fill="none" stroke="black" d="M698.69,-2147.81C701.81,-2139.62 705.61,-2129.62 709.08,-2120.48"/>
<polygon fill="black" stroke="black" points="712.39,-2121.62 712.68,-2111.03 705.85,-2119.13 712.39,-2121.62"/>
</g>
<!-- OneMinusExponentialCorM -->
<g id="node8" class="node">
<title>OneMinusExponentialCorM</title>
<path fill="lightskyblue" stroke="black" d="M829.15,-2024C829.15,-2024 651.15,-2024 651.15,-2024 645.15,-2024 639.15,-2018 639.15,-2012 639.15,-2012 639.15,-2000 639.15,-2000 639.15,-1994 645.15,-1988 651.15,-1988 651.15,-1988 829.15,-1988 829.15,-1988 835.15,-1988 841.15,-1994 841.15,-2000 841.15,-2000 841.15,-2012 841.15,-2012 841.15,-2018 835.15,-2024 829.15,-2024"/>
<text text-anchor="middle" x="740.15" y="-2002.3" font-family="Helvetica" font-size="14.00">Monitor: exponential correction</text>
</g>
<!-- convertUnitsToWavelengthM&#45;&gt;OneMinusExponentialCorM -->
<g id="edge18" class="edge">
<title>convertUnitsToWavelengthM&#45;&gt;OneMinusExponentialCorM</title>
<path fill="none" stroke="black" d="M723.4,-2074.8C726.28,-2063.16 730.14,-2047.55 733.42,-2034.24"/>
<polygon fill="black" stroke="black" points="736.91,-2034.72 735.91,-2024.18 730.11,-2033.04 736.91,-2034.72"/>
</g>
<!-- divideByMonitor -->
<g id="node9" class="node">
<title>divideByMonitor</title>
<path fill="lightskyblue" stroke="black" d="M822.65,-1951C822.65,-1951 727.65,-1951 727.65,-1951 721.65,-1951 715.65,-1945 715.65,-1939 715.65,-1939 715.65,-1927 715.65,-1927 715.65,-1921 721.65,-1915 727.65,-1915 727.65,-1915 822.65,-1915 822.65,-1915 828.65,-1915 834.65,-1921 834.65,-1927 834.65,-1927 834.65,-1939 834.65,-1939 834.65,-1945 828.65,-1951 822.65,-1951"/>
<text text-anchor="middle" x="775.15" y="-1929.3" font-family="Helvetica" font-size="14.00">divide by monitor</text>
</g>
<!-- OneMinusExponentialCorM&#45;&gt;divideByMonitor -->
<g id="edge19" class="edge">
<title>OneMinusExponentialCorM&#45;&gt;divideByMonitor</title>
<path fill="none" stroke="black" d="M748.63,-1987.81C752.71,-1979.53 757.7,-1969.41 762.24,-1960.19"/>
<polygon fill="black" stroke="black" points="765.48,-1961.55 766.76,-1951.03 759.2,-1958.45 765.48,-1961.55"/>
</g>
<!-- checkIsVanadium -->
<g id="node36" class="node">
<title>checkIsVanadium</title>
<polygon fill="limegreen" stroke="black" points="829.15,-1878 628.9,-1860 829.15,-1842 1029.41,-1860 829.15,-1878"/>
<text text-anchor="middle" x="829.15" y="-1856.3" font-family="Helvetica" font-size="14.00">processing Vanadium or sample?</text>
</g>
<!-- divideByMonitor&#45;&gt;checkIsVanadium -->
<g id="edge20" class="edge">
<title>divideByMonitor&#45;&gt;checkIsVanadium</title>
<path fill="none" stroke="black" d="M788.22,-1914.81C794.98,-1905.93 803.35,-1894.93 810.75,-1885.2"/>
<polygon fill="black" stroke="black" points="813.67,-1887.13 816.94,-1877.06 808.1,-1882.9 813.67,-1887.13"/>
</g>
<!-- integrateWavelengthV -->
<g id="node10" class="node">
<title>integrateWavelengthV</title>
<path fill="lightskyblue" stroke="black" d="M506.15,-1704C506.15,-1704 324.15,-1704 324.15,-1704 318.15,-1704 312.15,-1698 312.15,-1692 312.15,-1692 312.15,-1680 312.15,-1680 312.15,-1674 318.15,-1668 324.15,-1668 324.15,-1668 506.15,-1668 506.15,-1668 512.15,-1668 518.15,-1674 518.15,-1680 518.15,-1680 518.15,-1692 518.15,-1692 518.15,-1698 512.15,-1704 506.15,-1704"/>
<text text-anchor="middle" x="415.15" y="-1682.3" font-family="Helvetica" font-size="14.00">integrate along wavelength axis</text>
</g>
<!-- vanadiumStructureFactorL -->
<g id="node45" class="node">
<title>vanadiumStructureFactorL</title>
<polygon fill="grey" stroke="black" points="506.62,-1617 361.12,-1617 323.69,-1581 469.19,-1581 506.62,-1617"/>
<text text-anchor="middle" x="415.15" y="-1595.3" font-family="Times-Roman" font-size="14.00">Sv(lambda)</text>
</g>
<!-- integrateWavelengthV&#45;&gt;vanadiumStructureFactorL -->
<g id="edge26" class="edge">
<title>integrateWavelengthV&#45;&gt;vanadiumStructureFactorL</title>
<path fill="none" stroke="black" d="M415.15,-1667.8C415.15,-1656.16 415.15,-1640.55 415.15,-1627.24"/>
<polygon fill="black" stroke="black" points="418.65,-1627.18 415.15,-1617.18 411.65,-1627.18 418.65,-1627.18"/>
</g>
<!-- findDetectorsOutsideLimitsV -->
<g id="node11" class="node">
<title>findDetectorsOutsideLimitsV</title>
<path fill="lightskyblue" stroke="black" d="M752.65,-1544C752.65,-1544 523.65,-1544 523.65,-1544 517.65,-1544 511.65,-1538 511.65,-1532 511.65,-1532 511.65,-1520 511.65,-1520 511.65,-1514 517.65,-1508 523.65,-1508 523.65,-1508 752.65,-1508 752.65,-1508 758.65,-1508 764.65,-1514 764.65,-1520 764.65,-1520 764.65,-1532 764.65,-1532 764.65,-1538 758.65,-1544 752.65,-1544"/>
<text text-anchor="middle" x="638.15" y="-1522.3" font-family="Helvetica" font-size="14.00">find detectors with low Vanadium signal</text>
</g>
<!-- checkByQSlice -->
<g id="node33" class="node">
<title>checkByQSlice</title>
<polygon fill="limegreen" stroke="black" points="765.15,-1417 609.98,-1399 765.15,-1381 920.33,-1399 765.15,-1417"/>
<text text-anchor="middle" x="765.15" y="-1395.3" font-family="Helvetica" font-size="14.00">normalization by Q slice?</text>
</g>
<!-- findDetectorsOutsideLimitsV&#45;&gt;checkByQSlice -->
<g id="edge29" class="edge">
<title>findDetectorsOutsideLimitsV&#45;&gt;checkByQSlice</title>
<path fill="none" stroke="black" d="M710.09,-1507.98C729.33,-1499.93 748.11,-1488.16 760.15,-1471 768.98,-1458.43 770.41,-1441.32 769.55,-1427.05"/>
<polygon fill="black" stroke="black" points="773.01,-1426.42 768.53,-1416.82 766.04,-1427.11 773.01,-1426.42"/>
</g>
<!-- basisNormMask -->
<g id="node44" class="node">
<title>basisNormMask</title>
<polygon fill="grey" stroke="black" points="751.06,-1471 515.77,-1471 455.24,-1435 690.54,-1435 751.06,-1471"/>
<text text-anchor="middle" x="603.15" y="-1449.3" font-family="Times-Roman" font-size="14.00">low Vanadium mask</text>
</g>
<!-- findDetectorsOutsideLimitsV&#45;&gt;basisNormMask -->
<g id="edge28" class="edge">
<title>findDetectorsOutsideLimitsV&#45;&gt;basisNormMask</title>
<path fill="none" stroke="black" d="M629.68,-1507.81C625.6,-1499.53 620.61,-1489.41 616.06,-1480.19"/>
<polygon fill="black" stroke="black" points="619.11,-1478.45 611.55,-1471.03 612.83,-1481.55 619.11,-1478.45"/>
</g>
<!-- convertUnitsToEnergyV -->
<g id="node12" class="node">
<title>convertUnitsToEnergyV</title>
<path fill="lightskyblue" stroke="black" d="M843.15,-1116C843.15,-1116 697.15,-1116 697.15,-1116 691.15,-1116 685.15,-1110 685.15,-1104 685.15,-1104 685.15,-1092 685.15,-1092 685.15,-1086 691.15,-1080 697.15,-1080 697.15,-1080 843.15,-1080 843.15,-1080 849.15,-1080 855.15,-1086 855.15,-1092 855.15,-1092 855.15,-1104 855.15,-1104 855.15,-1110 849.15,-1116 843.15,-1116"/>
<text text-anchor="middle" x="770.15" y="-1094.3" font-family="Helvetica" font-size="14.00">convert to energy transfer</text>
</g>
<!-- correctKiKfV -->
<g id="node13" class="node">
<title>correctKiKfV</title>
<path fill="lightskyblue" stroke="black" d="M812.65,-1043C812.65,-1043 727.65,-1043 727.65,-1043 721.65,-1043 715.65,-1037 715.65,-1031 715.65,-1031 715.65,-1019 715.65,-1019 715.65,-1013 721.65,-1007 727.65,-1007 727.65,-1007 812.65,-1007 812.65,-1007 818.65,-1007 824.65,-1013 824.65,-1019 824.65,-1019 824.65,-1031 824.65,-1031 824.65,-1037 818.65,-1043 812.65,-1043"/>
<text text-anchor="middle" x="770.15" y="-1021.3" font-family="Helvetica" font-size="14.00">scale by k_i/k_f</text>
</g>
<!-- convertUnitsToEnergyV&#45;&gt;correctKiKfV -->
<g id="edge39" class="edge">
<title>convertUnitsToEnergyV&#45;&gt;correctKiKfV</title>
<path fill="none" stroke="black" d="M770.15,-1079.81C770.15,-1071.79 770.15,-1062.05 770.15,-1053.07"/>
<polygon fill="black" stroke="black" points="773.65,-1053.03 770.15,-1043.03 766.65,-1053.03 773.65,-1053.03"/>
</g>
<!-- RebinEnergy -->
<g id="node14" class="node">
<title>RebinEnergy</title>
<path fill="lightskyblue" stroke="black" d="M876.15,-970C876.15,-970 664.15,-970 664.15,-970 658.15,-970 652.15,-964 652.15,-958 652.15,-958 652.15,-946 652.15,-946 652.15,-940 658.15,-934 664.15,-934 664.15,-934 876.15,-934 876.15,-934 882.15,-934 888.15,-940 888.15,-946 888.15,-946 888.15,-958 888.15,-958 888.15,-964 882.15,-970 876.15,-970"/>
<text text-anchor="middle" x="770.15" y="-948.3" font-family="Helvetica" font-size="14.00">rebin to specified energy parameters</text>
</g>
<!-- correctKiKfV&#45;&gt;RebinEnergy -->
<g id="edge40" class="edge">
<title>correctKiKfV&#45;&gt;RebinEnergy</title>
<path fill="none" stroke="black" d="M770.15,-1006.81C770.15,-998.79 770.15,-989.05 770.15,-980.07"/>
<polygon fill="black" stroke="black" points="773.65,-980.03 770.15,-970.03 766.65,-980.03 773.65,-980.03"/>
</g>
<!-- checkgroupDetectors -->
<g id="node35" class="node">
<title>checkgroupDetectors</title>
<polygon fill="limegreen" stroke="black" points="476.15,-897 330.7,-879 476.15,-861 621.61,-879 476.15,-897"/>
<text text-anchor="middle" x="476.15" y="-875.3" font-family="Helvetica" font-size="14.00">do we group detectors?</text>
</g>
<!-- RebinEnergy&#45;&gt;checkgroupDetectors -->
<g id="edge41" class="edge">
<title>RebinEnergy&#45;&gt;checkgroupDetectors</title>
<path fill="none" stroke="black" d="M699.73,-933.99C648.66,-921.66 580.49,-905.2 532.9,-893.7"/>
<polygon fill="black" stroke="black" points="533.61,-890.28 523.07,-891.33 531.97,-897.08 533.61,-890.28"/>
</g>
<!-- groupingDetectorsV -->
<g id="node15" class="node">
<title>groupingDetectorsV</title>
<path fill="lightskyblue" stroke="black" d="M478.65,-810C478.65,-810 369.65,-810 369.65,-810 363.65,-810 357.65,-804 357.65,-798 357.65,-798 357.65,-786 357.65,-786 357.65,-780 363.65,-774 369.65,-774 369.65,-774 478.65,-774 478.65,-774 484.65,-774 490.65,-780 490.65,-786 490.65,-786 490.65,-798 490.65,-798 490.65,-804 484.65,-810 478.65,-810"/>
<text text-anchor="middle" x="424.15" y="-788.3" font-family="Helvetica" font-size="14.00">group the detectors</text>
</g>
<!-- SofQW3V -->
<g id="node16" class="node">
<title>SofQW3V</title>
<path fill="lightskyblue" stroke="black" d="M605.15,-737C605.15,-737 345.15,-737 345.15,-737 339.15,-737 333.15,-731 333.15,-725 333.15,-725 333.15,-713 333.15,-713 333.15,-707 339.15,-701 345.15,-701 345.15,-701 605.15,-701 605.15,-701 611.15,-701 617.15,-707 617.15,-713 617.15,-713 617.15,-725 617.15,-725 617.15,-731 611.15,-737 605.15,-737"/>
<text text-anchor="middle" x="475.15" y="-715.3" font-family="Helvetica" font-size="14.00">transform to momentum and energy transfer</text>
</g>
<!-- groupingDetectorsV&#45;&gt;SofQW3V -->
<g id="edge44" class="edge">
<title>groupingDetectorsV&#45;&gt;SofQW3V</title>
<path fill="none" stroke="black" d="M436.5,-773.81C442.64,-765.27 450.18,-754.77 456.96,-745.32"/>
<polygon fill="black" stroke="black" points="459.93,-747.19 462.92,-737.03 454.24,-743.11 459.93,-747.19"/>
</g>
<!-- checkIsVanadium2 -->
<g id="node38" class="node">
<title>checkIsVanadium2</title>
<polygon fill="limegreen" stroke="black" points="475.15,-664 274.9,-646 475.15,-628 675.41,-646 475.15,-664"/>
<text text-anchor="middle" x="475.15" y="-642.3" font-family="Helvetica" font-size="14.00">processing Vanadium or sample?</text>
</g>
<!-- SofQW3V&#45;&gt;checkIsVanadium2 -->
<g id="edge46" class="edge">
<title>SofQW3V&#45;&gt;checkIsVanadium2</title>
<path fill="none" stroke="black" d="M475.15,-700.81C475.15,-692.79 475.15,-683.05 475.15,-674.07"/>
<polygon fill="black" stroke="black" points="478.65,-674.03 475.15,-664.03 471.65,-674.03 478.65,-674.03"/>
</g>
<!-- aggregateS -->
<g id="node17" class="node">
<title>aggregateS</title>
<path fill="lightskyblue" stroke="black" d="M848.65,-2563C848.65,-2563 717.65,-2563 717.65,-2563 711.65,-2563 705.65,-2557 705.65,-2551 705.65,-2551 705.65,-2539 705.65,-2539 705.65,-2533 711.65,-2527 717.65,-2527 717.65,-2527 848.65,-2527 848.65,-2527 854.65,-2527 860.65,-2533 860.65,-2539 860.65,-2539 860.65,-2551 860.65,-2551 860.65,-2557 854.65,-2563 848.65,-2563"/>
<text text-anchor="middle" x="783.15" y="-2541.3" font-family="Helvetica" font-size="14.00">aggregate sample runs</text>
</g>
<!-- aggregateS&#45;&gt;maskDetectors -->
<g id="edge9" class="edge">
<title>aggregateS&#45;&gt;maskDetectors</title>
<path fill="none" stroke="black" d="M783.15,-2526.81C783.15,-2518.79 783.15,-2509.05 783.15,-2500.07"/>
<polygon fill="black" stroke="black" points="786.65,-2500.03 783.15,-2490.03 779.65,-2500.03 786.65,-2500.03"/>
</g>
<!-- maskDetectors2 -->
<g id="node18" class="node">
<title>maskDetectors2</title>
<path fill="lightskyblue" stroke="black" d="M834.65,-1363C834.65,-1363 749.65,-1363 749.65,-1363 743.65,-1363 737.65,-1357 737.65,-1351 737.65,-1351 737.65,-1339 737.65,-1339 737.65,-1333 743.65,-1327 749.65,-1327 749.65,-1327 834.65,-1327 834.65,-1327 840.65,-1327 846.65,-1333 846.65,-1339 846.65,-1339 846.65,-1351 846.65,-1351 846.65,-1357 840.65,-1363 834.65,-1363"/>
<text text-anchor="middle" x="792.15" y="-1341.3" font-family="Helvetica" font-size="14.00">mask detectors</text>
</g>
<!-- checkNormalizeByDetectorID -->
<g id="node39" class="node">
<title>checkNormalizeByDetectorID</title>
<polygon fill="limegreen" stroke="black" points="792.15,-1290 638.65,-1272 792.15,-1254 945.65,-1272 792.15,-1290"/>
<text text-anchor="middle" x="792.15" y="-1268.3" font-family="Helvetica" font-size="14.00">normalize by detectorID?</text>
</g>
<!-- maskDetectors2&#45;&gt;checkNormalizeByDetectorID -->
<g id="edge32" class="edge">
<title>maskDetectors2&#45;&gt;checkNormalizeByDetectorID</title>
<path fill="none" stroke="black" d="M792.15,-1326.81C792.15,-1318.79 792.15,-1309.05 792.15,-1300.07"/>
<polygon fill="black" stroke="black" points="795.65,-1300.03 792.15,-1290.03 788.65,-1300.03 795.65,-1300.03"/>
</g>
<!-- DivideByVanadiumDetectorID -->
<g id="node19" class="node">
<title>DivideByVanadiumDetectorID</title>
<path fill="lightskyblue" stroke="black" d="M748.15,-1203C748.15,-1203 638.15,-1203 638.15,-1203 632.15,-1203 626.15,-1197 626.15,-1191 626.15,-1191 626.15,-1179 626.15,-1179 626.15,-1173 632.15,-1167 638.15,-1167 638.15,-1167 748.15,-1167 748.15,-1167 754.15,-1167 760.15,-1173 760.15,-1179 760.15,-1179 760.15,-1191 760.15,-1191 760.15,-1197 754.15,-1203 748.15,-1203"/>
<text text-anchor="middle" x="693.15" y="-1181.3" font-family="Helvetica" font-size="14.00">divide by Vanadium</text>
</g>
<!-- DivideByVanadiumDetectorID&#45;&gt;convertUnitsToEnergyV -->
<g id="edge37" class="edge">
<title>DivideByVanadiumDetectorID&#45;&gt;convertUnitsToEnergyV</title>
<path fill="none" stroke="black" d="M708.73,-1166.8C719.9,-1154.47 735.11,-1137.68 747.61,-1123.89"/>
<polygon fill="black" stroke="black" points="750.47,-1125.94 754.59,-1116.18 745.29,-1121.24 750.47,-1125.94"/>
<text text-anchor="middle" x="748.65" y="-1137.8" font-family="Helvetica" font-size="14.00">Yes</text>
</g>
<!-- DivideByVanadiumQslice -->
<g id="node20" class="node">
<title>DivideByVanadiumQslice</title>
<path fill="lightskyblue" stroke="black" d="M541.15,-342C541.15,-342 431.15,-342 431.15,-342 425.15,-342 419.15,-336 419.15,-330 419.15,-330 419.15,-318 419.15,-318 419.15,-312 425.15,-306 431.15,-306 431.15,-306 541.15,-306 541.15,-306 547.15,-306 553.15,-312 553.15,-318 553.15,-318 553.15,-330 553.15,-330 553.15,-336 547.15,-342 541.15,-342"/>
<text text-anchor="middle" x="486.15" y="-320.3" font-family="Helvetica" font-size="14.00">divide by Vanadium</text>
</g>
<!-- sampleStructureFactor -->
<g id="node48" class="node">
<title>sampleStructureFactor</title>
<polygon fill="grey" stroke="black" points="597.75,-269 494.99,-269 468.55,-233 571.32,-233 597.75,-269"/>
<text text-anchor="middle" x="533.15" y="-247.3" font-family="Times-Roman" font-size="14.00">Ss(Q,E)</text>
</g>
<!-- DivideByVanadiumQslice&#45;&gt;sampleStructureFactor -->
<g id="edge53" class="edge">
<title>DivideByVanadiumQslice&#45;&gt;sampleStructureFactor</title>
<path fill="none" stroke="black" d="M497.53,-305.81C503.13,-297.35 509.99,-286.98 516.2,-277.61"/>
<polygon fill="black" stroke="black" points="519.28,-279.3 521.88,-269.03 513.44,-275.44 519.28,-279.3"/>
</g>
<!-- saveToDaveGroup -->
<g id="node21" class="node">
<title>saveToDaveGroup</title>
<path fill="lightskyblue" stroke="black" d="M520.65,-196C520.65,-196 389.65,-196 389.65,-196 383.65,-196 377.65,-190 377.65,-184 377.65,-184 377.65,-172 377.65,-172 377.65,-166 383.65,-160 389.65,-160 389.65,-160 520.65,-160 520.65,-160 526.65,-160 532.65,-166 532.65,-172 532.65,-172 532.65,-184 532.65,-184 532.65,-190 526.65,-196 520.65,-196"/>
<text text-anchor="middle" x="455.15" y="-174.3" font-family="Helvetica" font-size="14.00">save to Dave group file</text>
</g>
<!-- checkDivideByVanadium3 -->
<g id="node41" class="node">
<title>checkDivideByVanadium3</title>
<polygon fill="limegreen" stroke="black" points="367.15,-123 238.29,-105 367.15,-87 496.02,-105 367.15,-123"/>
<text text-anchor="middle" x="367.15" y="-101.3" font-family="Helvetica" font-size="14.00">divide by vanadium?</text>
</g>
<!-- saveToDaveGroup&#45;&gt;checkDivideByVanadium3 -->
<g id="edge56" class="edge">
<title>saveToDaveGroup&#45;&gt;checkDivideByVanadium3</title>
<path fill="none" stroke="black" d="M433.85,-159.81C421.67,-149.98 406.28,-137.57 393.36,-127.15"/>
<polygon fill="black" stroke="black" points="395.27,-124.19 385.29,-120.63 390.87,-129.63 395.27,-124.19"/>
</g>
<!-- saveToNexus -->
<g id="node22" class="node">
<title>saveToNexus</title>
<path fill="lightskyblue" stroke="black" d="M676.65,-196C676.65,-196 577.65,-196 577.65,-196 571.65,-196 565.65,-190 565.65,-184 565.65,-184 565.65,-172 565.65,-172 565.65,-166 571.65,-160 577.65,-160 577.65,-160 676.65,-160 676.65,-160 682.65,-160 688.65,-166 688.65,-172 688.65,-172 688.65,-184 688.65,-184 688.65,-190 682.65,-196 676.65,-196"/>
<text text-anchor="middle" x="627.15" y="-174.3" font-family="Helvetica" font-size="14.00">save to Nexus file</text>
</g>
<!-- checkDivideByVanadium4 -->
<g id="node42" class="node">
<title>checkDivideByVanadium4</title>
<polygon fill="limegreen" stroke="black" points="642.15,-123 513.29,-105 642.15,-87 771.02,-105 642.15,-123"/>
<text text-anchor="middle" x="642.15" y="-101.3" font-family="Helvetica" font-size="14.00">divide by vanadium?</text>
</g>
<!-- saveToNexus&#45;&gt;checkDivideByVanadium4 -->
<g id="edge60" class="edge">
<title>saveToNexus&#45;&gt;checkDivideByVanadium4</title>
<path fill="none" stroke="black" d="M630.78,-159.81C632.52,-151.58 634.64,-141.54 636.58,-132.38"/>
<polygon fill="black" stroke="black" points="640.02,-133.05 638.66,-122.54 633.17,-131.6 640.02,-133.05"/>
</g>
<!-- integrateVanadiumAroundElasticLine -->
<g id="node23" class="node">
<title>integrateVanadiumAroundElasticLine</title>
<path fill="lightskyblue" stroke="black" d="M541.15,-490C541.15,-490 417.15,-490 417.15,-490 411.15,-490 405.15,-484 405.15,-478 405.15,-478 405.15,-464 405.15,-464 405.15,-458 411.15,-452 417.15,-452 417.15,-452 541.15,-452 541.15,-452 547.15,-452 553.15,-458 553.15,-464 553.15,-464 553.15,-478 553.15,-478 553.15,-484 547.15,-490 541.15,-490"/>
<text text-anchor="middle" x="479.15" y="-474.8" font-family="Helvetica" font-size="14.00">integrate Vanadium</text>
<text text-anchor="middle" x="479.15" y="-459.8" font-family="Helvetica" font-size="14.00">around the elastic line</text>
</g>
<!-- vanadiumStructureFactorQ -->
<g id="node47" class="node">
<title>vanadiumStructureFactorQ</title>
<polygon fill="grey" stroke="black" points="536.38,-415 451.71,-415 429.92,-379 514.6,-379 536.38,-415"/>
<text text-anchor="middle" x="483.15" y="-393.3" font-family="Times-Roman" font-size="14.00">Sv(Q)</text>
</g>
<!-- integrateVanadiumAroundElasticLine&#45;&gt;vanadiumStructureFactorQ -->
<g id="edge51" class="edge">
<title>integrateVanadiumAroundElasticLine&#45;&gt;vanadiumStructureFactorQ</title>
<path fill="none" stroke="black" d="M480.16,-451.83C480.6,-443.89 481.13,-434.41 481.62,-425.63"/>
<polygon fill="black" stroke="black" points="485.12,-425.6 482.19,-415.42 478.14,-425.21 485.12,-425.6"/>
</g>
<!-- maskFile -->
<g id="node24" class="node">
<title>maskFile</title>
<ellipse fill="khaki" stroke="black" cx="842.15" cy="-2705" rx="46.29" ry="18"/>
<text text-anchor="middle" x="842.15" y="-2701.3" font-family="Helvetica" font-size="14.00">MaskFile</text>
</g>
<!-- maskFile&#45;&gt;loadMaskFile -->
<g id="edge3" class="edge">
<title>maskFile&#45;&gt;loadMaskFile</title>
<path fill="none" stroke="black" d="M863.57,-2688.94C877.25,-2679.33 895.25,-2666.67 910.67,-2655.83"/>
<polygon fill="black" stroke="black" points="912.76,-2658.64 918.93,-2650.03 908.73,-2652.92 912.76,-2658.64"/>
</g>
<!-- defaultMaskFile -->
<g id="node25" class="node">
<title>defaultMaskFile</title>
<ellipse fill="khaki" stroke="black" cx="1009.15" cy="-2705" rx="103.18" ry="18"/>
<text text-anchor="middle" x="1009.15" y="-2701.3" font-family="Helvetica" font-size="14.00">DEFAULT_MASK_FILE</text>
</g>
<!-- defaultMaskFile&#45;&gt;loadMaskFile -->
<g id="edge4" class="edge">
<title>defaultMaskFile&#45;&gt;loadMaskFile</title>
<path fill="none" stroke="black" d="M993.51,-2687.17C985.33,-2678.37 975.16,-2667.43 966.1,-2657.69"/>
<polygon fill="black" stroke="black" points="968.51,-2655.14 959.14,-2650.2 963.39,-2659.91 968.51,-2655.14"/>
</g>
<!-- NormRunNumbers -->
<g id="node26" class="node">
<title>NormRunNumbers</title>
<ellipse fill="khaki" stroke="black" cx="296.15" cy="-2632" rx="102.88" ry="18"/>
<text text-anchor="middle" x="296.15" y="-2628.3" font-family="Helvetica" font-size="14.00">Vanadium run numbers</text>
</g>
<!-- NormRunNumbers&#45;&gt;aggregateV -->
<g id="edge7" class="edge">
<title>NormRunNumbers&#45;&gt;aggregateV</title>
<path fill="none" stroke="black" d="M340.96,-2615.71C381.39,-2601.9 441.18,-2581.49 485.63,-2566.32"/>
<polygon fill="black" stroke="black" points="486.82,-2569.61 495.15,-2563.07 484.55,-2562.99 486.82,-2569.61"/>
</g>
<!-- NormWavelengthRange -->
<g id="node27" class="node">
<title>NormWavelengthRange</title>
<ellipse fill="khaki" stroke="black" cx="399.15" cy="-1773" rx="123.48" ry="18"/>
<text text-anchor="middle" x="399.15" y="-1769.3" font-family="Helvetica" font-size="14.00">wavelength integration range</text>
</g>
<!-- NormWavelengthRange&#45;&gt;integrateWavelengthV -->
<g id="edge25" class="edge">
<title>NormWavelengthRange&#45;&gt;integrateWavelengthV</title>
<path fill="none" stroke="black" d="M402.39,-1754.8C404.58,-1743.16 407.52,-1727.55 410.03,-1714.24"/>
<polygon fill="black" stroke="black" points="413.51,-1714.65 411.92,-1704.18 406.63,-1713.36 413.51,-1714.65"/>
</g>
<!-- groupDetectors -->
<g id="node28" class="node">
<title>groupDetectors</title>
<ellipse fill="khaki" stroke="black" cx="464.15" cy="-952" rx="169.77" ry="18"/>
<text text-anchor="middle" x="464.15" y="-948.3" font-family="Helvetica" font-size="14.00">group detectors by tube or low&#45;resolution</text>
</g>
<!-- groupDetectors&#45;&gt;checkgroupDetectors -->
<g id="edge42" class="edge">
<title>groupDetectors&#45;&gt;checkgroupDetectors</title>
<path fill="none" stroke="black" d="M467.06,-933.81C468.41,-925.79 470.06,-916.05 471.58,-907.07"/>
<polygon fill="black" stroke="black" points="475.06,-907.47 473.27,-897.03 468.16,-906.31 475.06,-907.47"/>
</g>
<!-- runNumbers -->
<g id="node29" class="node">
<title>runNumbers</title>
<ellipse fill="khaki" stroke="black" cx="783.15" cy="-2632" rx="91.78" ry="18"/>
<text text-anchor="middle" x="783.15" y="-2628.3" font-family="Helvetica" font-size="14.00">sample run numbers</text>
</g>
<!-- runNumbers&#45;&gt;aggregateS -->
<g id="edge8" class="edge">
<title>runNumbers&#45;&gt;aggregateS</title>
<path fill="none" stroke="black" d="M783.15,-2613.8C783.15,-2602.16 783.15,-2586.55 783.15,-2573.24"/>
<polygon fill="black" stroke="black" points="786.65,-2573.18 783.15,-2563.18 779.65,-2573.18 786.65,-2573.18"/>
</g>
<!-- checkMaskFile -->
<g id="node30" class="node">
<title>checkMaskFile</title>
<polygon fill="limegreen" stroke="black" points="925.15,-2810 809.52,-2792 925.15,-2774 1040.78,-2792 925.15,-2810"/>
<text text-anchor="middle" x="925.15" y="-2788.3" font-family="Helvetica" font-size="14.00">custom mask file?</text>
</g>
<!-- checkMaskFile&#45;&gt;maskFile -->
<g id="edge1" class="edge">
<title>checkMaskFile&#45;&gt;maskFile</title>
<path fill="none" stroke="black" d="M910.7,-2776.19C898.12,-2763.31 879.67,-2744.42 865.08,-2729.48"/>
<polygon fill="black" stroke="black" points="867.35,-2726.79 857.86,-2722.08 862.34,-2731.68 867.35,-2726.79"/>
<text text-anchor="middle" x="900.65" y="-2744.8" font-family="Helvetica" font-size="14.00">Yes</text>
</g>
<!-- checkMaskFile&#45;&gt;defaultMaskFile -->
<g id="edge2" class="edge">
<title>checkMaskFile&#45;&gt;defaultMaskFile</title>
<path fill="none" stroke="black" d="M939.78,-2776.19C952.27,-2763.56 970.48,-2745.13 985.11,-2730.33"/>
<polygon fill="black" stroke="black" points="987.84,-2732.54 992.38,-2722.97 982.86,-2727.62 987.84,-2732.54"/>
<text text-anchor="middle" x="981.15" y="-2744.8" font-family="Helvetica" font-size="14.00">No</text>
</g>
<!-- checkDivideByVanadium -->
<g id="node31" class="node">
<title>checkDivideByVanadium</title>
<polygon fill="limegreen" stroke="black" points="545.15,-2650 416.29,-2632 545.15,-2614 674.02,-2632 545.15,-2650"/>
<text text-anchor="middle" x="545.15" y="-2628.3" font-family="Helvetica" font-size="14.00">divide by vanadium?</text>
</g>
<!-- checkDivideByVanadium&#45;&gt;aggregateV -->
<g id="edge6" class="edge">
<title>checkDivideByVanadium&#45;&gt;aggregateV</title>
<path fill="none" stroke="black" d="M545.15,-2613.8C545.15,-2602.16 545.15,-2586.55 545.15,-2573.24"/>
<polygon fill="black" stroke="black" points="548.65,-2573.18 545.15,-2563.18 541.65,-2573.18 548.65,-2573.18"/>
<text text-anchor="middle" x="556.65" y="-2584.8" font-family="Helvetica" font-size="14.00">Yes</text>
</g>
<!-- checkMonNorm&#45;&gt;moderatorTzeroLinearM -->
<g id="edge15" class="edge">
<title>checkMonNorm&#45;&gt;moderatorTzeroLinearM</title>
<path fill="none" stroke="black" d="M766.88,-2236.8C753.26,-2224.08 733.59,-2205.7 717.84,-2190.99"/>
<polygon fill="black" stroke="black" points="720.17,-2188.38 710.47,-2184.11 715.39,-2193.49 720.17,-2188.38"/>
<text text-anchor="middle" x="754.65" y="-2205.8" font-family="Helvetica" font-size="14.00">Yes</text>
</g>
<!-- checkMonNorm&#45;&gt;checkIsVanadium -->
<g id="edge16" class="edge">
<title>checkMonNorm&#45;&gt;checkIsVanadium</title>
<path fill="none" stroke="black" d="M813.87,-2238.44C839.95,-2224.6 873.15,-2200.42 873.15,-2167 873.15,-2167 873.15,-2167 873.15,-1932 873.15,-1914.28 863.12,-1897.29 852.64,-1884.38"/>
<polygon fill="black" stroke="black" points="855,-1881.76 845.79,-1876.52 849.72,-1886.36 855,-1881.76"/>
<text text-anchor="middle" x="882.15" y="-2045.8" font-family="Helvetica" font-size="14.00">No</text>
</g>
<!-- checkByQSlice&#45;&gt;convertUnitsToEnergyV -->
<g id="edge38" class="edge">
<title>checkByQSlice&#45;&gt;convertUnitsToEnergyV</title>
<path fill="none" stroke="black" d="M696.75,-1388.86C650.63,-1378.4 598.15,-1356.14 598.15,-1309 598.15,-1309 598.15,-1309 598.15,-1184 598.15,-1144.38 635.28,-1123.23 675.04,-1111.94"/>
<polygon fill="black" stroke="black" points="676.13,-1115.27 684.91,-1109.34 674.35,-1108.5 676.13,-1115.27"/>
<text text-anchor="middle" x="609.65" y="-1268.3" font-family="Helvetica" font-size="14.00">Yes</text>
</g>
<!-- checkNormalizeByDetectorID2 -->
<g id="node34" class="node">
<title>checkNormalizeByDetectorID2</title>
<polygon fill="limegreen" stroke="black" points="694.15,-1791 540.65,-1773 694.15,-1755 847.65,-1773 694.15,-1791"/>
<text text-anchor="middle" x="694.15" y="-1769.3" font-family="Helvetica" font-size="14.00">normalize by detectorID?</text>
</g>
<!-- checkNormalizeByDetectorID2&#45;&gt;integrateWavelengthV -->
<g id="edge22" class="edge">
<title>checkNormalizeByDetectorID2&#45;&gt;integrateWavelengthV</title>
<path fill="none" stroke="black" d="M653.58,-1759.64C608.34,-1745.86 534.49,-1723.36 480.95,-1707.05"/>
<polygon fill="black" stroke="black" points="481.79,-1703.64 471.21,-1704.08 479.75,-1710.34 481.79,-1703.64"/>
<text text-anchor="middle" x="583.65" y="-1725.8" font-family="Helvetica" font-size="14.00">Yes</text>
</g>
<!-- checkNormalizeByDetectorID2&#45;&gt;findDetectorsOutsideLimitsV -->
<g id="edge23" class="edge">
<title>checkNormalizeByDetectorID2&#45;&gt;findDetectorsOutsideLimitsV</title>
<path fill="none" stroke="black" d="M690.3,-1755.16C680.78,-1713.48 656.02,-1605.18 644.38,-1554.24"/>
<polygon fill="black" stroke="black" points="647.74,-1553.25 642.1,-1544.28 640.92,-1554.81 647.74,-1553.25"/>
<text text-anchor="middle" x="675.15" y="-1638.8" font-family="Helvetica" font-size="14.00">No</text>
</g>
<!-- checkgroupDetectors&#45;&gt;groupingDetectorsV -->
<g id="edge43" class="edge">
<title>checkgroupDetectors&#45;&gt;groupingDetectorsV</title>
<path fill="none" stroke="black" d="M466.37,-862.01C458.94,-849.86 448.56,-832.9 439.95,-818.83"/>
<polygon fill="black" stroke="black" points="442.81,-816.79 434.6,-810.08 436.84,-820.44 442.81,-816.79"/>
<text text-anchor="middle" x="465.65" y="-831.8" font-family="Helvetica" font-size="14.00">Yes</text>
</g>
<!-- checkgroupDetectors&#45;&gt;SofQW3V -->
<g id="edge45" class="edge">
<title>checkgroupDetectors&#45;&gt;SofQW3V</title>
<path fill="none" stroke="black" d="M484.09,-861.81C493.1,-841.37 505.76,-805.11 499.15,-774 497.17,-764.67 493.46,-754.99 489.54,-746.45"/>
<polygon fill="black" stroke="black" points="492.64,-744.82 485.11,-737.37 486.35,-747.89 492.64,-744.82"/>
<text text-anchor="middle" x="510.15" y="-788.3" font-family="Helvetica" font-size="14.00">No</text>
</g>
<!-- checkIsVanadium&#45;&gt;checkNormalizeByDetectorID2 -->
<g id="edge21" class="edge">
<title>checkIsVanadium&#45;&gt;checkNormalizeByDetectorID2</title>
<path fill="none" stroke="black" d="M805.33,-1844C783.22,-1830.08 750.14,-1809.25 725.82,-1793.94"/>
<polygon fill="black" stroke="black" points="727.62,-1790.93 717.29,-1788.57 723.89,-1796.86 727.62,-1790.93"/>
<text text-anchor="middle" x="800.65" y="-1812.8" font-family="Helvetica" font-size="14.00">Vanadium</text>
</g>
<!-- checkDivideByVanadium2 -->
<g id="node37" class="node">
<title>checkDivideByVanadium2</title>
<polygon fill="limegreen" stroke="black" points="943.15,-1471 814.29,-1453 943.15,-1435 1072.02,-1453 943.15,-1471"/>
<text text-anchor="middle" x="943.15" y="-1449.3" font-family="Helvetica" font-size="14.00">divide by vanadium?</text>
</g>
<!-- checkIsVanadium&#45;&gt;checkDivideByVanadium2 -->
<g id="edge24" class="edge">
<title>checkIsVanadium&#45;&gt;checkDivideByVanadium2</title>
<path fill="none" stroke="black" d="M849.8,-1843.56C867.83,-1828.15 891.15,-1802.68 891.15,-1774 891.15,-1774 891.15,-1774 891.15,-1525 891.15,-1505.71 903.8,-1488.19 916.61,-1475.37"/>
<polygon fill="black" stroke="black" points="919.17,-1477.77 924.09,-1468.39 914.39,-1472.66 919.17,-1477.77"/>
<text text-anchor="middle" x="914.65" y="-1638.8" font-family="Helvetica" font-size="14.00">Sample</text>
</g>
<!-- checkDivideByVanadium2&#45;&gt;convertUnitsToEnergyV -->
<g id="edge36" class="edge">
<title>checkDivideByVanadium2&#45;&gt;convertUnitsToEnergyV</title>
<path fill="none" stroke="black" d="M955.85,-1436.42C960.01,-1430.62 964.3,-1423.79 967.15,-1417 979.61,-1387.35 981.15,-1378.16 981.15,-1346 981.15,-1346 981.15,-1346 981.15,-1184 981.15,-1130.17 921.33,-1109.56 865.39,-1102.06"/>
<polygon fill="black" stroke="black" points="865.71,-1098.58 855.37,-1100.85 864.87,-1105.53 865.71,-1098.58"/>
<text text-anchor="middle" x="990.15" y="-1268.3" font-family="Helvetica" font-size="14.00">No</text>
</g>
<!-- checkDivideByVanadium2&#45;&gt;maskDetectors2 -->
<g id="edge30" class="edge">
<title>checkDivideByVanadium2&#45;&gt;maskDetectors2</title>
<path fill="none" stroke="black" d="M942.4,-1434.98C940.77,-1418.89 935.82,-1395.16 921.15,-1381 903.92,-1364.37 879.61,-1355.46 856.73,-1350.74"/>
<polygon fill="black" stroke="black" points="857.16,-1347.27 846.7,-1348.92 855.91,-1354.15 857.16,-1347.27"/>
<text text-anchor="middle" x="951.65" y="-1395.3" font-family="Helvetica" font-size="14.00">Yes</text>
</g>
<!-- checkNormalizeByQslice -->
<g id="node40" class="node">
<title>checkNormalizeByQslice</title>
<polygon fill="limegreen" stroke="black" points="581.15,-577 452.29,-559 581.15,-541 710.02,-559 581.15,-577"/>
<text text-anchor="middle" x="581.15" y="-555.3" font-family="Helvetica" font-size="14.00">normalize by Q slice</text>
</g>
<!-- checkIsVanadium2&#45;&gt;checkNormalizeByQslice -->
<g id="edge48" class="edge">
<title>checkIsVanadium2&#45;&gt;checkNormalizeByQslice</title>
<path fill="none" stroke="black" d="M494.59,-629.41C511.57,-615.8 536.34,-595.93 555.04,-580.94"/>
<polygon fill="black" stroke="black" points="557.28,-583.63 562.9,-574.64 552.91,-578.16 557.28,-583.63"/>
<text text-anchor="middle" x="558.65" y="-598.8" font-family="Helvetica" font-size="14.00">Sample</text>
</g>
<!-- vanadiumStructureFactorQE -->
<g id="node46" class="node">
<title>vanadiumStructureFactorQE</title>
<polygon fill="grey" stroke="black" points="434.66,-577 330.45,-577 303.65,-541 407.85,-541 434.66,-577"/>
<text text-anchor="middle" x="369.15" y="-555.3" font-family="Times-Roman" font-size="14.00">Sv(Q,E)</text>
</g>
<!-- checkIsVanadium2&#45;&gt;vanadiumStructureFactorQE -->
<g id="edge47" class="edge">
<title>checkIsVanadium2&#45;&gt;vanadiumStructureFactorQE</title>
<path fill="none" stroke="black" d="M455.71,-629.41C439.75,-616.61 416.88,-598.27 398.66,-583.66"/>
<polygon fill="black" stroke="black" points="400.65,-580.77 390.66,-577.25 396.27,-586.23 400.65,-580.77"/>
<text text-anchor="middle" x="459.65" y="-598.8" font-family="Helvetica" font-size="14.00">Vanadium</text>
</g>
<!-- checkNormalizeByDetectorID&#45;&gt;convertUnitsToEnergyV -->
<g id="edge35" class="edge">
<title>checkNormalizeByDetectorID&#45;&gt;convertUnitsToEnergyV</title>
<path fill="none" stroke="black" d="M790,-1254.19C786.2,-1224.47 778.26,-1162.38 773.66,-1126.39"/>
<polygon fill="black" stroke="black" points="777.08,-1125.6 772.34,-1116.13 770.14,-1126.49 777.08,-1125.6"/>
<text text-anchor="middle" x="793.15" y="-1181.3" font-family="Helvetica" font-size="14.00">No</text>
</g>
<!-- checkNormalizeByDetectorID&#45;&gt;DivideByVanadiumDetectorID -->
<g id="edge33" class="edge">
<title>checkNormalizeByDetectorID&#45;&gt;DivideByVanadiumDetectorID</title>
<path fill="none" stroke="black" d="M774.45,-1255.8C759.64,-1243.08 738.23,-1224.7 721.1,-1209.99"/>
<polygon fill="black" stroke="black" points="722.95,-1206.97 713.08,-1203.11 718.39,-1212.28 722.95,-1206.97"/>
<text text-anchor="middle" x="760.65" y="-1224.8" font-family="Helvetica" font-size="14.00">Yes</text>
</g>
<!-- checkNormalizeByQslice&#45;&gt;integrateVanadiumAroundElasticLine -->
<g id="edge49" class="edge">
<title>checkNormalizeByQslice&#45;&gt;integrateVanadiumAroundElasticLine</title>
<path fill="none" stroke="black" d="M563.85,-543.41C548.77,-530.69 526.57,-511.98 508.68,-496.9"/>
<polygon fill="black" stroke="black" points="510.71,-494.03 500.81,-490.26 506.19,-499.38 510.71,-494.03"/>
<text text-anchor="middle" x="551.65" y="-511.8" font-family="Helvetica" font-size="14.00">Yes</text>
</g>
<!-- checkNormalizeByQslice&#45;&gt;sampleStructureFactor -->
<g id="edge54" class="edge">
<title>checkNormalizeByQslice&#45;&gt;sampleStructureFactor</title>
<path fill="none" stroke="black" d="M581.15,-540.87C581.15,-523.51 581.15,-495.89 581.15,-472 581.15,-472 581.15,-472 581.15,-323 581.15,-305.5 571.02,-289.1 560.07,-276.48"/>
<polygon fill="black" stroke="black" points="562.61,-274.06 553.23,-269.13 557.48,-278.83 562.61,-274.06"/>
<text text-anchor="middle" x="590.15" y="-393.3" font-family="Helvetica" font-size="14.00">No</text>
</g>
<!-- datFile -->
<g id="node49" class="node">
<title>datFile</title>
<polygon fill="grey" stroke="black" points="196.46,-36 40.08,-36 -0.15,0 156.23,0 196.46,-36"/>
<text text-anchor="middle" x="98.15" y="-14.3" font-family="Times-Roman" font-size="14.00">_sqw.dat file</text>
</g>
<!-- checkDivideByVanadium3&#45;&gt;datFile -->
<g id="edge57" class="edge">
<title>checkDivideByVanadium3&#45;&gt;datFile</title>
<path fill="none" stroke="black" d="M329.75,-92.18C286.49,-78.51 214.52,-55.77 162.28,-39.26"/>
<polygon fill="black" stroke="black" points="163.03,-35.83 152.44,-36.15 160.92,-42.5 163.03,-35.83"/>
<text text-anchor="middle" x="258.15" y="-57.8" font-family="Helvetica" font-size="14.00">No</text>
</g>
<!-- dividedDatFile -->
<g id="node50" class="node">
<title>dividedDatFile</title>
<polygon fill="grey" stroke="black" points="521.5,-36 277.56,-36 214.81,0 458.75,0 521.5,-36"/>
<text text-anchor="middle" x="368.15" y="-14.3" font-family="Times-Roman" font-size="14.00">_divided_sqw.dat file</text>
</g>
<!-- checkDivideByVanadium3&#45;&gt;dividedDatFile -->
<g id="edge58" class="edge">
<title>checkDivideByVanadium3&#45;&gt;dividedDatFile</title>
<path fill="none" stroke="black" d="M367.36,-86.8C367.49,-75.16 367.68,-59.55 367.83,-46.24"/>
<polygon fill="black" stroke="black" points="371.33,-46.22 367.95,-36.18 364.33,-46.13 371.33,-46.22"/>
<text text-anchor="middle" x="379.65" y="-57.8" font-family="Helvetica" font-size="14.00">Yes</text>
</g>
<!-- sqwFile -->
<g id="node51" class="node">
<title>sqwFile</title>
<polygon fill="grey" stroke="black" points="741.27,-36 582.01,-36 541.04,0 700.3,0 741.27,-36"/>
<text text-anchor="middle" x="641.15" y="-14.3" font-family="Times-Roman" font-size="14.00">_sqw.nxs file</text>
</g>
<!-- checkDivideByVanadium4&#45;&gt;sqwFile -->
<g id="edge61" class="edge">
<title>checkDivideByVanadium4&#45;&gt;sqwFile</title>
<path fill="none" stroke="black" d="M641.95,-86.8C641.81,-75.16 641.63,-59.55 641.47,-46.24"/>
<polygon fill="black" stroke="black" points="644.97,-46.13 641.35,-36.18 637.97,-46.22 644.97,-46.13"/>
<text text-anchor="middle" x="651.15" y="-57.8" font-family="Helvetica" font-size="14.00">No</text>
</g>
<!-- dividedSqwFile -->
<g id="node52" class="node">
<title>dividedSqwFile</title>
<polygon fill="grey" stroke="black" points="1069.31,-36 822.49,-36 758.99,0 1005.82,0 1069.31,-36"/>
<text text-anchor="middle" x="914.15" y="-14.3" font-family="Times-Roman" font-size="14.00">_divided_sqw.nxs file</text>
</g>
<!-- checkDivideByVanadium4&#45;&gt;dividedSqwFile -->
<g id="edge62" class="edge">
<title>checkDivideByVanadium4&#45;&gt;dividedSqwFile</title>
<path fill="none" stroke="black" d="M679.97,-92.18C723.88,-78.46 797.02,-55.61 849.89,-39.08"/>
<polygon fill="black" stroke="black" points="851.01,-42.4 859.51,-36.07 848.92,-35.72 851.01,-42.4"/>
<text text-anchor="middle" x="806.65" y="-57.8" font-family="Helvetica" font-size="14.00">Yes</text>
</g>
<!-- maskData&#45;&gt;maskDetectors -->
<g id="edge11" class="edge">
<title>maskData&#45;&gt;maskDetectors</title>
<path fill="none" stroke="black" d="M899.51,-2526.99C878.46,-2517.23 851.84,-2504.88 829.38,-2494.45"/>
<polygon fill="black" stroke="black" points="830.58,-2491.15 820.03,-2490.11 827.63,-2497.5 830.58,-2491.15"/>
</g>
<!-- basisNormMask&#45;&gt;maskDetectors2 -->
<g id="edge31" class="edge">
<title>basisNormMask&#45;&gt;maskDetectors2</title>
<path fill="none" stroke="black" d="M599.32,-1434.83C596.84,-1418.87 596.16,-1395.43 609.15,-1381 624.83,-1363.59 681.37,-1354.67 727.5,-1350.22"/>
<polygon fill="black" stroke="black" points="727.83,-1353.7 737.47,-1349.31 727.19,-1346.73 727.83,-1353.7"/>
</g>
<!-- vanadiumStructureFactorL&#45;&gt;findDetectorsOutsideLimitsV -->
<g id="edge27" class="edge">
<title>vanadiumStructureFactorL&#45;&gt;findDetectorsOutsideLimitsV</title>
<path fill="none" stroke="black" d="M468.57,-1580.99C500.47,-1570.84 541.17,-1557.88 574.7,-1547.2"/>
<polygon fill="black" stroke="black" points="575.93,-1550.48 584.4,-1544.11 573.81,-1543.81 575.93,-1550.48"/>
</g>
<!-- vanadiumStructureFactorL&#45;&gt;DivideByVanadiumDetectorID -->
<g id="edge34" class="edge">
<title>vanadiumStructureFactorL&#45;&gt;DivideByVanadiumDetectorID</title>
<path fill="none" stroke="black" d="M419.69,-1580.92C423.09,-1566.62 427.15,-1545.63 427.15,-1527 427.15,-1527 427.15,-1527 427.15,-1271 427.15,-1231.1 537.13,-1207.37 615.66,-1195.51"/>
<polygon fill="black" stroke="black" points="616.65,-1198.9 626.03,-1193.98 615.63,-1191.97 616.65,-1198.9"/>
</g>
<!-- vanadiumStructureFactorQE&#45;&gt;integrateVanadiumAroundElasticLine -->
<g id="edge50" class="edge">
<title>vanadiumStructureFactorQE&#45;&gt;integrateVanadiumAroundElasticLine</title>
<path fill="none" stroke="black" d="M391.15,-540.8C407.46,-528.05 429.92,-510.49 448.06,-496.31"/>
<polygon fill="black" stroke="black" points="450.34,-498.97 456.06,-490.06 446.02,-493.46 450.34,-498.97"/>
</g>
<!-- vanadiumStructureFactorQ&#45;&gt;DivideByVanadiumQslice -->
<g id="edge52" class="edge">
<title>vanadiumStructureFactorQ&#45;&gt;DivideByVanadiumQslice</title>
<path fill="none" stroke="black" d="M483.88,-378.81C484.22,-370.79 484.63,-361.05 485.01,-352.07"/>
<polygon fill="black" stroke="black" points="488.51,-352.17 485.43,-342.03 481.51,-351.87 488.51,-352.17"/>
</g>
<!-- sampleStructureFactor&#45;&gt;saveToDaveGroup -->
<g id="edge55" class="edge">
<title>sampleStructureFactor&#45;&gt;saveToDaveGroup</title>
<path fill="none" stroke="black" d="M514.27,-232.81C504.4,-223.83 492.17,-212.69 481.39,-202.89"/>
<polygon fill="black" stroke="black" points="483.61,-200.17 473.86,-196.03 478.9,-205.35 483.61,-200.17"/>
</g>
<!-- sampleStructureFactor&#45;&gt;saveToNexus -->
<g id="edge59" class="edge">
<title>sampleStructureFactor&#45;&gt;saveToNexus</title>
<path fill="none" stroke="black" d="M555.91,-232.81C568.03,-223.66 583.12,-212.26 596.28,-202.32"/>
<polygon fill="black" stroke="black" points="598.74,-204.85 604.61,-196.03 594.52,-199.26 598.74,-204.85"/>
</g>
</g>
</svg>
