<?xml version="1.0" encoding="UTF-8" standalone="no"?>
<!DOCTYPE svg PUBLIC "-//W3C//DTD SVG 1.1//EN"
 "http://www.w3.org/Graphics/SVG/1.1/DTD/svg11.dtd">
<!-- Generated by graphviz version 2.47.2 (20210527.1257)
 -->
<!-- Title: CorelliPowderCalibrationCreate Pages: 1 -->
<svg width="1142pt" height="355pt"
 viewBox="0.00 0.00 1141.50 355.00" xmlns="http://www.w3.org/2000/svg" xmlns:xlink="http://www.w3.org/1999/xlink">
<g id="graph0" class="graph" transform="scale(1 1) rotate(0) translate(4 351)">
<title>CorelliPowderCalibrationCreate</title>
<polygon fill="white" stroke="transparent" points="-4,4 -4,-351 1137.5,-351 1137.5,4 -4,4"/>
<text text-anchor="middle" x="566.75" y="-331.8" font-family="Helvetica" font-size="14.00">CorelliPowderCalibrationCreate Execution Workflow</text>
<!-- ModeratorTzero -->
<g id="node1" class="node">
<title>ModeratorTzero</title>
<path fill="lightskyblue" stroke="black" d="M573,-324C573,-324 343,-324 343,-324 337,-324 331,-318 331,-312 331,-312 331,-300 331,-300 331,-294 337,-288 343,-288 343,-288 573,-288 573,-288 579,-288 585,-294 585,-300 585,-300 585,-312 585,-312 585,-318 579,-324 573,-324"/>
<text text-anchor="middle" x="458" y="-302.3" font-family="Helvetica" font-size="14.00">remove emission delay from moderator</text>
</g>
<!-- PDCalibration -->
<g id="node2" class="node">
<title>PDCalibration</title>
<path fill="lightskyblue" stroke="black" d="M584.5,-252C584.5,-252 331.5,-252 331.5,-252 325.5,-252 319.5,-246 319.5,-240 319.5,-240 319.5,-228 319.5,-228 319.5,-222 325.5,-216 331.5,-216 331.5,-216 584.5,-216 584.5,-216 590.5,-216 596.5,-222 596.5,-228 596.5,-228 596.5,-240 596.5,-240 596.5,-246 590.5,-252 584.5,-252"/>
<text text-anchor="middle" x="458" y="-230.3" font-family="Helvetica" font-size="14.00">DIFC conversion (TOF to dSpacing) factors</text>
</g>
<!-- ModeratorTzero&#45;&gt;PDCalibration -->
<g id="edge1" class="edge">
<title>ModeratorTzero&#45;&gt;PDCalibration</title>
<path fill="none" stroke="black" d="M458,-287.7C458,-279.98 458,-270.71 458,-262.11"/>
<polygon fill="black" stroke="black" points="461.5,-262.1 458,-252.1 454.5,-262.1 461.5,-262.1"/>
</g>
<!-- AlignComponents_1 -->
<g id="node3" class="node">
<title>AlignComponents_1</title>
<path fill="lightskyblue" stroke="black" d="M724,-180C724,-180 644,-180 644,-180 638,-180 632,-174 632,-168 632,-168 632,-156 632,-156 632,-150 638,-144 644,-144 644,-144 724,-144 724,-144 730,-144 736,-150 736,-156 736,-156 736,-168 736,-168 736,-174 730,-180 724,-180"/>
<text text-anchor="middle" x="684" y="-158.3" font-family="Helvetica" font-size="14.00">adjust sources</text>
</g>
<!-- PDCalibration&#45;&gt;AlignComponents_1 -->
<g id="edge4" class="edge">
<title>PDCalibration&#45;&gt;AlignComponents_1</title>
<path fill="none" stroke="black" d="M513,-215.97C545.94,-205.76 587.9,-192.77 622.01,-182.2"/>
<polygon fill="black" stroke="black" points="623.35,-185.45 631.87,-179.15 621.28,-178.76 623.35,-185.45"/>
</g>
<!-- fitted_in_dspacing_1 -->
<g id="node5" class="node">
<title>fitted_in_dspacing_1</title>
<path fill="lightskyblue" stroke="black" d="M272,-180C272,-180 12,-180 12,-180 6,-180 0,-174 0,-168 0,-168 0,-156 0,-156 0,-150 6,-144 12,-144 12,-144 272,-144 272,-144 278,-144 284,-150 284,-156 284,-156 284,-168 284,-168 284,-174 278,-180 272,-180"/>
<text text-anchor="middle" x="142" y="-158.3" font-family="Helvetica" font-size="14.00">Bank spectra in d&#45;spacing before adjustment</text>
</g>
<!-- PDCalibration&#45;&gt;fitted_in_dspacing_1 -->
<g id="edge2" class="edge">
<title>PDCalibration&#45;&gt;fitted_in_dspacing_1</title>
<path fill="none" stroke="black" d="M381.1,-215.97C335.14,-205.78 276.61,-192.82 228.96,-182.26"/>
<polygon fill="black" stroke="black" points="229.49,-178.8 218.97,-180.05 227.98,-185.63 229.49,-178.8"/>
</g>
<!-- peak_deviations_1 -->
<g id="node6" class="node">
<title>peak_deviations_1</title>
<path fill="lightskyblue" stroke="black" d="M601.5,-180C601.5,-180 314.5,-180 314.5,-180 308.5,-180 302.5,-174 302.5,-168 302.5,-168 302.5,-156 302.5,-156 302.5,-150 308.5,-144 314.5,-144 314.5,-144 601.5,-144 601.5,-144 607.5,-144 613.5,-150 613.5,-156 613.5,-156 613.5,-168 613.5,-168 613.5,-174 607.5,-180 601.5,-180"/>
<text text-anchor="middle" x="458" y="-158.3" font-family="Helvetica" font-size="14.00">Histograms of peak deviations before adjustment</text>
</g>
<!-- PDCalibration&#45;&gt;peak_deviations_1 -->
<g id="edge3" class="edge">
<title>PDCalibration&#45;&gt;peak_deviations_1</title>
<path fill="none" stroke="black" d="M458,-215.7C458,-207.98 458,-198.71 458,-190.11"/>
<polygon fill="black" stroke="black" points="461.5,-190.1 458,-180.1 454.5,-190.1 461.5,-190.1"/>
</g>
<!-- AlignComponents_2 -->
<g id="node4" class="node">
<title>AlignComponents_2</title>
<path fill="lightskyblue" stroke="black" d="M718,-108C718,-108 650,-108 650,-108 644,-108 638,-102 638,-96 638,-96 638,-84 638,-84 638,-78 644,-72 650,-72 650,-72 718,-72 718,-72 724,-72 730,-78 730,-84 730,-84 730,-96 730,-96 730,-102 724,-108 718,-108"/>
<text text-anchor="middle" x="684" y="-86.3" font-family="Helvetica" font-size="14.00">adjust banks</text>
</g>
<!-- AlignComponents_1&#45;&gt;AlignComponents_2 -->
<g id="edge5" class="edge">
<title>AlignComponents_1&#45;&gt;AlignComponents_2</title>
<path fill="none" stroke="black" d="M684,-143.7C684,-135.98 684,-126.71 684,-118.11"/>
<polygon fill="black" stroke="black" points="687.5,-118.1 684,-108.1 680.5,-118.1 687.5,-118.1"/>
</g>
<!-- fitted_in_dspacing_2 -->
<g id="node7" class="node">
<title>fitted_in_dspacing_2</title>
<path fill="lightskyblue" stroke="black" d="M507.5,-36C507.5,-36 258.5,-36 258.5,-36 252.5,-36 246.5,-30 246.5,-24 246.5,-24 246.5,-12 246.5,-12 246.5,-6 252.5,0 258.5,0 258.5,0 507.5,0 507.5,0 513.5,0 519.5,-6 519.5,-12 519.5,-12 519.5,-24 519.5,-24 519.5,-30 513.5,-36 507.5,-36"/>
<text text-anchor="middle" x="383" y="-14.3" font-family="Helvetica" font-size="14.00">Bank spectra in d&#45;spacing after adjustment</text>
</g>
<!-- AlignComponents_2&#45;&gt;fitted_in_dspacing_2 -->
<g id="edge6" class="edge">
<title>AlignComponents_2&#45;&gt;fitted_in_dspacing_2</title>
<path fill="none" stroke="black" d="M637.96,-78.29C592.36,-67.69 521.52,-51.21 466.07,-38.32"/>
<polygon fill="black" stroke="black" points="466.79,-34.89 456.26,-36.04 465.21,-41.71 466.79,-34.89"/>
</g>
<!-- peak_deviations_2 -->
<g id="node8" class="node">
<title>peak_deviations_2</title>
<path fill="lightskyblue" stroke="black" d="M818.5,-36C818.5,-36 549.5,-36 549.5,-36 543.5,-36 537.5,-30 537.5,-24 537.5,-24 537.5,-12 537.5,-12 537.5,-6 543.5,0 549.5,0 549.5,0 818.5,0 818.5,0 824.5,0 830.5,-6 830.5,-12 830.5,-12 830.5,-24 830.5,-24 830.5,-30 824.5,-36 818.5,-36"/>
<text text-anchor="middle" x="684" y="-14.3" font-family="Helvetica" font-size="14.00">Histogram of peak deviations after adjustment</text>
</g>
<!-- AlignComponents_2&#45;&gt;peak_deviations_2 -->
<g id="edge7" class="edge">
<title>AlignComponents_2&#45;&gt;peak_deviations_2</title>
<path fill="none" stroke="black" d="M684,-71.7C684,-63.98 684,-54.71 684,-46.11"/>
<polygon fill="black" stroke="black" points="687.5,-46.1 684,-36.1 680.5,-46.1 687.5,-46.1"/>
</g>
<!-- peak_deviations_2_summary -->
<g id="node9" class="node">
<title>peak_deviations_2_summary</title>
<path fill="lightskyblue" stroke="black" d="M1121.5,-36C1121.5,-36 860.5,-36 860.5,-36 854.5,-36 848.5,-30 848.5,-24 848.5,-24 848.5,-12 848.5,-12 848.5,-6 854.5,0 860.5,0 860.5,0 1121.5,0 1121.5,0 1127.5,0 1133.5,-6 1133.5,-12 1133.5,-12 1133.5,-24 1133.5,-24 1133.5,-30 1127.5,-36 1121.5,-36"/>
<text text-anchor="middle" x="991" y="-14.3" font-family="Helvetica" font-size="14.00">Basic statistics on peak deviation histograms</text>
</g>
<!-- AlignComponents_2&#45;&gt;peak_deviations_2_summary -->
<g id="edge8" class="edge">
<title>AlignComponents_2&#45;&gt;peak_deviations_2_summary</title>
<path fill="none" stroke="black" d="M730.29,-78.44C776.75,-67.85 849.38,-51.29 906.19,-38.34"/>
<polygon fill="black" stroke="black" points="907.27,-41.68 916.24,-36.05 905.71,-34.86 907.27,-41.68"/>
</g>
</g>
</svg>
