<?xml version="1.0" encoding="UTF-8" standalone="no"?>
<!DOCTYPE svg PUBLIC "-//W3C//DTD SVG 1.1//EN"
 "http://www.w3.org/Graphics/SVG/1.1/DTD/svg11.dtd">
<!-- Generated by graphviz version 3.0.0 (20220315.2325)
 -->
<!-- Title: CorelliPowderCalibrationCreate Pages: 1 -->
<svg width="1312pt" height="355pt"
 viewBox="0.00 0.00 1312.00 355.00" xmlns="http://www.w3.org/2000/svg" xmlns:xlink="http://www.w3.org/1999/xlink">
<g id="graph0" class="graph" transform="scale(1 1) rotate(0) translate(4 351)">
<title>CorelliPowderCalibrationCreate</title>
<polygon fill="white" stroke="transparent" points="-4,4 -4,-351 1308,-351 1308,4 -4,4"/>
<text text-anchor="middle" x="652" y="-331.8" font-family="Helvetica,sans-Serif" font-size="14.00">CorelliPowderCalibrationCreate Execution Workflow</text>
<!-- ModeratorTzero -->
<g id="node1" class="node">
<title>ModeratorTzero</title>
<path fill="lightskyblue" stroke="black" d="M661,-324C661,-324 395,-324 395,-324 389,-324 383,-318 383,-312 383,-312 383,-300 383,-300 383,-294 389,-288 395,-288 395,-288 661,-288 661,-288 667,-288 673,-294 673,-300 673,-300 673,-312 673,-312 673,-318 667,-324 661,-324"/>
<text text-anchor="middle" x="528" y="-302.3" font-family="Helvetica,sans-Serif" font-size="14.00">remove emission delay from moderator</text>
</g>
<!-- PDCalibration -->
<g id="node2" class="node">
<title>PDCalibration</title>
<path fill="lightskyblue" stroke="black" d="M672,-252C672,-252 384,-252 384,-252 378,-252 372,-246 372,-240 372,-240 372,-228 372,-228 372,-222 378,-216 384,-216 384,-216 672,-216 672,-216 678,-216 684,-222 684,-228 684,-228 684,-240 684,-240 684,-246 678,-252 672,-252"/>
<text text-anchor="middle" x="528" y="-230.3" font-family="Helvetica,sans-Serif" font-size="14.00">DIFC conversion (TOF to dSpacing) factors</text>
</g>
<!-- ModeratorTzero&#45;&gt;PDCalibration -->
<g id="edge1" class="edge">
<title>ModeratorTzero&#45;&gt;PDCalibration</title>
<path fill="none" stroke="black" d="M528,-287.7C528,-279.98 528,-270.71 528,-262.11"/>
<polygon fill="black" stroke="black" points="531.5,-262.1 528,-252.1 524.5,-262.1 531.5,-262.1"/>
</g>
<!-- AlignComponents_1 -->
<g id="node3" class="node">
<title>AlignComponents_1</title>
<path fill="lightskyblue" stroke="black" d="M831.5,-180C831.5,-180 738.5,-180 738.5,-180 732.5,-180 726.5,-174 726.5,-168 726.5,-168 726.5,-156 726.5,-156 726.5,-150 732.5,-144 738.5,-144 738.5,-144 831.5,-144 831.5,-144 837.5,-144 843.5,-150 843.5,-156 843.5,-156 843.5,-168 843.5,-168 843.5,-174 837.5,-180 831.5,-180"/>
<text text-anchor="middle" x="785" y="-158.3" font-family="Helvetica,sans-Serif" font-size="14.00">adjust sources</text>
</g>
<!-- PDCalibration&#45;&gt;AlignComponents_1 -->
<g id="edge4" class="edge">
<title>PDCalibration&#45;&gt;AlignComponents_1</title>
<path fill="none" stroke="black" d="M590.54,-215.97C628.62,-205.59 677.3,-192.33 716.43,-181.68"/>
<polygon fill="black" stroke="black" points="717.43,-185.03 726.16,-179.03 715.59,-178.28 717.43,-185.03"/>
</g>
<!-- fitted_in_dspacing_1 -->
<g id="node5" class="node">
<title>fitted_in_dspacing_1</title>
<path fill="lightskyblue" stroke="black" d="M318,-180C318,-180 12,-180 12,-180 6,-180 0,-174 0,-168 0,-168 0,-156 0,-156 0,-150 6,-144 12,-144 12,-144 318,-144 318,-144 324,-144 330,-150 330,-156 330,-156 330,-168 330,-168 330,-174 324,-180 318,-180"/>
<text text-anchor="middle" x="165" y="-158.3" font-family="Helvetica,sans-Serif" font-size="14.00">Bank spectra in d&#45;spacing before adjustment</text>
</g>
<!-- PDCalibration&#45;&gt;fitted_in_dspacing_1 -->
<g id="edge2" class="edge">
<title>PDCalibration&#45;&gt;fitted_in_dspacing_1</title>
<path fill="none" stroke="black" d="M439.66,-215.97C386.42,-205.7 318.5,-192.6 263.52,-182"/>
<polygon fill="black" stroke="black" points="263.9,-178.51 253.42,-180.05 262.57,-185.38 263.9,-178.51"/>
</g>
<!-- peak_deviations_1 -->
<g id="node6" class="node">
<title>peak_deviations_1</title>
<path fill="lightskyblue" stroke="black" d="M696,-180C696,-180 360,-180 360,-180 354,-180 348,-174 348,-168 348,-168 348,-156 348,-156 348,-150 354,-144 360,-144 360,-144 696,-144 696,-144 702,-144 708,-150 708,-156 708,-156 708,-168 708,-168 708,-174 702,-180 696,-180"/>
<text text-anchor="middle" x="528" y="-158.3" font-family="Helvetica,sans-Serif" font-size="14.00">Histograms of peak deviations before adjustment</text>
</g>
<!-- PDCalibration&#45;&gt;peak_deviations_1 -->
<g id="edge3" class="edge">
<title>PDCalibration&#45;&gt;peak_deviations_1</title>
<path fill="none" stroke="black" d="M528,-215.7C528,-207.98 528,-198.71 528,-190.11"/>
<polygon fill="black" stroke="black" points="531.5,-190.1 528,-180.1 524.5,-190.1 531.5,-190.1"/>
</g>
<!-- AlignComponents_2 -->
<g id="node4" class="node">
<title>AlignComponents_2</title>
<path fill="lightskyblue" stroke="black" d="M826,-108C826,-108 744,-108 744,-108 738,-108 732,-102 732,-96 732,-96 732,-84 732,-84 732,-78 738,-72 744,-72 744,-72 826,-72 826,-72 832,-72 838,-78 838,-84 838,-84 838,-96 838,-96 838,-102 832,-108 826,-108"/>
<text text-anchor="middle" x="785" y="-86.3" font-family="Helvetica,sans-Serif" font-size="14.00">adjust banks</text>
</g>
<!-- AlignComponents_1&#45;&gt;AlignComponents_2 -->
<g id="edge5" class="edge">
<title>AlignComponents_1&#45;&gt;AlignComponents_2</title>
<path fill="none" stroke="black" d="M785,-143.7C785,-135.98 785,-126.71 785,-118.11"/>
<polygon fill="black" stroke="black" points="788.5,-118.1 785,-108.1 781.5,-118.1 788.5,-118.1"/>
</g>
<!-- fitted_in_dspacing_2 -->
<g id="node7" class="node">
<title>fitted_in_dspacing_2</title>
<path fill="lightskyblue" stroke="black" d="M584,-36C584,-36 290,-36 290,-36 284,-36 278,-30 278,-24 278,-24 278,-12 278,-12 278,-6 284,0 290,0 290,0 584,0 584,0 590,0 596,-6 596,-12 596,-12 596,-24 596,-24 596,-30 590,-36 584,-36"/>
<text text-anchor="middle" x="437" y="-14.3" font-family="Helvetica,sans-Serif" font-size="14.00">Bank spectra in d&#45;spacing after adjustment</text>
</g>
<!-- AlignComponents_2&#45;&gt;fitted_in_dspacing_2 -->
<g id="edge6" class="edge">
<title>AlignComponents_2&#45;&gt;fitted_in_dspacing_2</title>
<path fill="none" stroke="black" d="M731.77,-78.29C678.72,-67.62 596.13,-51.01 531.85,-38.08"/>
<polygon fill="black" stroke="black" points="532.19,-34.58 521.7,-36.04 530.81,-41.44 532.19,-34.58"/>
</g>
<!-- peak_deviations_2 -->
<g id="node8" class="node">
<title>peak_deviations_2</title>
<path fill="lightskyblue" stroke="black" d="M943.5,-36C943.5,-36 626.5,-36 626.5,-36 620.5,-36 614.5,-30 614.5,-24 614.5,-24 614.5,-12 614.5,-12 614.5,-6 620.5,0 626.5,0 626.5,0 943.5,0 943.5,0 949.5,0 955.5,-6 955.5,-12 955.5,-12 955.5,-24 955.5,-24 955.5,-30 949.5,-36 943.5,-36"/>
<text text-anchor="middle" x="785" y="-14.3" font-family="Helvetica,sans-Serif" font-size="14.00">Histogram of peak deviations after adjustment</text>
</g>
<!-- AlignComponents_2&#45;&gt;peak_deviations_2 -->
<g id="edge7" class="edge">
<title>AlignComponents_2&#45;&gt;peak_deviations_2</title>
<path fill="none" stroke="black" d="M785,-71.7C785,-63.98 785,-54.71 785,-46.11"/>
<polygon fill="black" stroke="black" points="788.5,-46.1 785,-36.1 781.5,-46.1 788.5,-46.1"/>
</g>
<!-- peak_deviations_2_summary -->
<g id="node9" class="node">
<title>peak_deviations_2_summary</title>
<path fill="lightskyblue" stroke="black" d="M1292,-36C1292,-36 986,-36 986,-36 980,-36 974,-30 974,-24 974,-24 974,-12 974,-12 974,-6 980,0 986,0 986,0 1292,0 1292,0 1298,0 1304,-6 1304,-12 1304,-12 1304,-24 1304,-24 1304,-30 1298,-36 1292,-36"/>
<text text-anchor="middle" x="1139" y="-14.3" font-family="Helvetica,sans-Serif" font-size="14.00">Basic statistics on peak deviation histograms</text>
</g>
<!-- AlignComponents_2&#45;&gt;peak_deviations_2_summary -->
<g id="edge8" class="edge">
<title>AlignComponents_2&#45;&gt;peak_deviations_2_summary</title>
<path fill="none" stroke="black" d="M838.38,-78.44C892.39,-67.76 977.08,-51.02 1042.83,-38.02"/>
<polygon fill="black" stroke="black" points="1043.67,-41.42 1052.8,-36.05 1042.31,-34.55 1043.67,-41.42"/>
</g>
</g>
</svg>
