<?xml version="1.0" encoding="UTF-8" standalone="no"?>
<!DOCTYPE svg PUBLIC "-//W3C//DTD SVG 1.1//EN"
 "http://www.w3.org/Graphics/SVG/1.1/DTD/svg11.dtd">
<!-- Generated by graphviz version 2.47.2 (20210527.1257)
 -->
<!-- Title: CreateTransmissionWorkspace Pages: 1 -->
<svg width="759pt" height="425pt"
 viewBox="0.00 0.00 758.62 425.00" xmlns="http://www.w3.org/2000/svg" xmlns:xlink="http://www.w3.org/1999/xlink">
<g id="graph0" class="graph" transform="scale(1 1) rotate(0) translate(4 421)">
<title>CreateTransmissionWorkspace</title>
<polygon fill="white" stroke="transparent" points="-4,4 -4,-421 754.62,-421 754.62,4 -4,4"/>
<!-- firstRun -->
<g id="node1" class="node">
<title>firstRun</title>
<ellipse fill="khaki" stroke="black" cx="161.77" cy="-399" rx="96.68" ry="18"/>
<text text-anchor="middle" x="161.77" y="-395.3" font-family="Helvetica" font-size="14.00">FirstTransmissionRun</text>
</g>
<!-- convertFirst -->
<g id="node9" class="node">
<title>convertFirst</title>
<polygon fill="lightseagreen" stroke="black" points="219.77,-344 103.77,-344 103.77,-306 219.77,-306 219.77,-344"/>
<text text-anchor="middle" x="161.77" y="-328.8" font-family="Helvetica" font-size="14.00">Convert to 位 and</text>
<text text-anchor="middle" x="161.77" y="-313.8" font-family="Helvetica" font-size="14.00">normalize</text>
</g>
<!-- firstRun&#45;&gt;convertFirst -->
<g id="edge1" class="edge">
<title>firstRun&#45;&gt;convertFirst</title>
<path fill="none" stroke="black" d="M161.77,-380.94C161.77,-372.99 161.77,-363.31 161.77,-354.31"/>
<polygon fill="black" stroke="black" points="165.27,-354.2 161.77,-344.2 158.27,-354.2 165.27,-354.2"/>
</g>
<!-- secondRun -->
<g id="node2" class="node">
<title>secondRun</title>
<ellipse fill="khaki" stroke="black" cx="385.77" cy="-399" rx="109.38" ry="18"/>
<text text-anchor="middle" x="385.77" y="-395.3" font-family="Helvetica" font-size="14.00">SecondTransmissionRun</text>
</g>
<!-- convertSecond -->
<g id="node10" class="node">
<title>convertSecond</title>
<polygon fill="lightseagreen" stroke="black" points="443.77,-344 327.77,-344 327.77,-306 443.77,-306 443.77,-344"/>
<text text-anchor="middle" x="385.77" y="-328.8" font-family="Helvetica" font-size="14.00">Convert to 位 and</text>
<text text-anchor="middle" x="385.77" y="-313.8" font-family="Helvetica" font-size="14.00">normalize</text>
</g>
<!-- secondRun&#45;&gt;convertSecond -->
<g id="edge6" class="edge">
<title>secondRun&#45;&gt;convertSecond</title>
<path fill="none" stroke="black" d="M385.77,-380.94C385.77,-372.99 385.77,-363.31 385.77,-354.31"/>
<polygon fill="black" stroke="black" points="389.27,-354.2 385.77,-344.2 382.27,-354.2 389.27,-354.2"/>
</g>
<!-- outputWS -->
<g id="node3" class="node">
<title>outputWS</title>
<ellipse fill="khaki" stroke="black" cx="196.77" cy="-18" rx="81.49" ry="18"/>
<text text-anchor="middle" x="196.77" y="-14.3" font-family="Helvetica" font-size="14.00">OutputWorkspace</text>
</g>
<!-- params -->
<g id="node4" class="node">
<title>params</title>
<ellipse fill="khaki" stroke="black" cx="436.77" cy="-178" rx="41.69" ry="18"/>
<text text-anchor="middle" x="436.77" y="-174.3" font-family="Helvetica" font-size="14.00">Params</text>
</g>
<!-- stitch -->
<g id="node8" class="node">
<title>stitch</title>
<path fill="lightskyblue" stroke="black" d="M412.77,-109C412.77,-109 368.77,-109 368.77,-109 362.77,-109 356.77,-103 356.77,-97 356.77,-97 356.77,-85 356.77,-85 356.77,-79 362.77,-73 368.77,-73 368.77,-73 412.77,-73 412.77,-73 418.77,-73 424.77,-79 424.77,-85 424.77,-85 424.77,-97 424.77,-97 424.77,-103 418.77,-109 412.77,-109"/>
<text text-anchor="middle" x="390.77" y="-87.3" font-family="Helvetica" font-size="14.00">Stitch1D</text>
</g>
<!-- params&#45;&gt;stitch -->
<g id="edge13" class="edge">
<title>params&#45;&gt;stitch</title>
<path fill="none" stroke="black" d="M427.68,-160.21C421.17,-148.18 412.28,-131.75 404.86,-118.03"/>
<polygon fill="black" stroke="black" points="407.84,-116.18 400,-109.05 401.68,-119.51 407.84,-116.18"/>
</g>
<!-- startOv -->
<g id="node5" class="node">
<title>startOv</title>
<ellipse fill="khaki" stroke="black" cx="556.77" cy="-178" rx="60.39" ry="18"/>
<text text-anchor="middle" x="556.77" y="-174.3" font-family="Helvetica" font-size="14.00">StartOverlap</text>
</g>
<!-- startOv&#45;&gt;stitch -->
<g id="edge10" class="edge">
<title>startOv&#45;&gt;stitch</title>
<path fill="none" stroke="black" d="M527.48,-162C501.36,-148.62 462.8,-128.88 433.29,-113.77"/>
<polygon fill="black" stroke="black" points="434.55,-110.48 424.05,-109.04 431.36,-116.71 434.55,-110.48"/>
</g>
<!-- endOv -->
<g id="node6" class="node">
<title>endOv</title>
<ellipse fill="khaki" stroke="black" cx="692.77" cy="-178" rx="57.69" ry="18"/>
<text text-anchor="middle" x="692.77" y="-174.3" font-family="Helvetica" font-size="14.00">EndOverlap</text>
</g>
<!-- endOv&#45;&gt;stitch -->
<g id="edge11" class="edge">
<title>endOv&#45;&gt;stitch</title>
<path fill="none" stroke="black" d="M651.41,-165.36C594.61,-149.37 492.88,-120.74 434.73,-104.37"/>
<polygon fill="black" stroke="black" points="435.67,-101 425.1,-101.66 433.78,-107.74 435.67,-101"/>
</g>
<!-- checkSecondRun -->
<g id="node7" class="node">
<title>checkSecondRun</title>
<polygon fill="limegreen" stroke="black" points="161.77,-196 0.23,-178 161.77,-160 323.32,-178 161.77,-196"/>
<text text-anchor="middle" x="161.77" y="-174.3" font-family="Helvetica" font-size="14.00">SecondTransmissionRun?</text>
</g>
<!-- checkSecondRun&#45;&gt;outputWS -->
<g id="edge4" class="edge">
<title>checkSecondRun&#45;&gt;outputWS</title>
<path fill="none" stroke="black" d="M165.45,-160.39C171.47,-133.22 183.47,-79.03 190.75,-46.19"/>
<polygon fill="black" stroke="black" points="194.18,-46.86 192.93,-36.34 187.35,-45.35 194.18,-46.86"/>
<text text-anchor="middle" x="193.77" y="-87.3" font-family="Helvetica" font-size="14.00">No</text>
</g>
<!-- checkSecondRun&#45;&gt;stitch -->
<g id="edge5" class="edge">
<title>checkSecondRun&#45;&gt;stitch</title>
<path fill="none" stroke="black" d="M197.05,-163.91C237.41,-148.93 303.52,-124.39 347.1,-108.21"/>
<polygon fill="black" stroke="black" points="348.42,-111.45 356.58,-104.69 345.98,-104.89 348.42,-111.45"/>
<text text-anchor="middle" x="302.27" y="-130.8" font-family="Helvetica" font-size="14.00">Yes</text>
</g>
<!-- stitch&#45;&gt;outputWS -->
<g id="edge12" class="edge">
<title>stitch&#45;&gt;outputWS</title>
<path fill="none" stroke="black" d="M356.53,-77.47C326.01,-66.3 280.95,-49.81 246.46,-37.19"/>
<polygon fill="black" stroke="black" points="247.63,-33.89 237.04,-33.74 245.23,-40.46 247.63,-33.89"/>
</g>
<!-- valFirst -->
<g id="node11" class="node">
<title>valFirst</title>
<polygon fill="grey" stroke="black" points="200.01,-269 139.18,-269 123.54,-233 184.36,-233 200.01,-269"/>
<text text-anchor="middle" x="161.77" y="-247.3" font-family="Times-Roman" font-size="14.00">I(位)</text>
</g>
<!-- convertFirst&#45;&gt;valFirst -->
<g id="edge2" class="edge">
<title>convertFirst&#45;&gt;valFirst</title>
<path fill="none" stroke="black" d="M161.77,-305.83C161.77,-297.89 161.77,-288.41 161.77,-279.63"/>
<polygon fill="black" stroke="black" points="165.27,-279.42 161.77,-269.42 158.27,-279.42 165.27,-279.42"/>
</g>
<!-- convertSecond&#45;&gt;params -->
<!-- valSecond -->
<g id="node12" class="node">
<title>valSecond</title>
<polygon fill="grey" stroke="black" points="424.01,-269 363.18,-269 347.54,-233 408.36,-233 424.01,-269"/>
<text text-anchor="middle" x="385.77" y="-247.3" font-family="Times-Roman" font-size="14.00">I(位)</text>
</g>
<!-- convertSecond&#45;&gt;valSecond -->
<g id="edge7" class="edge">
<title>convertSecond&#45;&gt;valSecond</title>
<path fill="none" stroke="black" d="M385.77,-305.83C385.77,-297.89 385.77,-288.41 385.77,-279.63"/>
<polygon fill="black" stroke="black" points="389.27,-279.42 385.77,-269.42 382.27,-279.42 389.27,-279.42"/>
</g>
<!-- valFirst&#45;&gt;checkSecondRun -->
<g id="edge3" class="edge">
<title>valFirst&#45;&gt;checkSecondRun</title>
<path fill="none" stroke="black" d="M161.77,-232.81C161.77,-224.79 161.77,-215.05 161.77,-206.07"/>
<polygon fill="black" stroke="black" points="165.27,-206.03 161.77,-196.03 158.27,-206.03 165.27,-206.03"/>
</g>
<!-- valSecond&#45;&gt;stitch -->
<g id="edge8" class="edge">
<title>valSecond&#45;&gt;stitch</title>
<path fill="none" stroke="black" d="M385.4,-232.74C385.09,-214.62 384.84,-185.3 385.77,-160 386.27,-146.55 387.31,-131.63 388.31,-119.21"/>
<polygon fill="black" stroke="black" points="391.82,-119.29 389.17,-109.03 384.84,-118.7 391.82,-119.29"/>
</g>
</g>
</svg>
