<?xml version="1.0" encoding="UTF-8" standalone="no"?>
<!DOCTYPE svg PUBLIC "-//W3C//DTD SVG 1.1//EN"
 "http://www.w3.org/Graphics/SVG/1.1/DTD/svg11.dtd">
<!-- Generated by graphviz version 2.47.2 (20210527.1257)
 -->
<!-- Title: CreateTransmissionWorkspaceWavelength Pages: 1 -->
<svg width="1106pt" height="606pt"
 viewBox="0.00 0.00 1105.78 606.48" xmlns="http://www.w3.org/2000/svg" xmlns:xlink="http://www.w3.org/1999/xlink">
<g id="graph0" class="graph" transform="scale(1 1) rotate(0) translate(4 602.48)">
<title>CreateTransmissionWorkspaceWavelength</title>
<polygon fill="white" stroke="transparent" points="-4,4 -4,-602.48 1101.78,-602.48 1101.78,4 -4,4"/>
<!-- inputWS -->
<g id="node1" class="node">
<title>inputWS</title>
<ellipse fill="khaki" stroke="black" cx="514.49" cy="-580.48" rx="79.09" ry="18"/>
<text text-anchor="middle" x="514.49" y="-576.78" font-family="Helvetica" font-size="14.00">TransmissionRun</text>
</g>
<!-- groupDet -->
<g id="node12" class="node">
<title>groupDet</title>
<path fill="lightskyblue" stroke="black" d="M445.99,-511.48C445.99,-511.48 356.99,-511.48 356.99,-511.48 350.99,-511.48 344.99,-505.48 344.99,-499.48 344.99,-499.48 344.99,-487.48 344.99,-487.48 344.99,-481.48 350.99,-475.48 356.99,-475.48 356.99,-475.48 445.99,-475.48 445.99,-475.48 451.99,-475.48 457.99,-481.48 457.99,-487.48 457.99,-487.48 457.99,-499.48 457.99,-499.48 457.99,-505.48 451.99,-511.48 445.99,-511.48"/>
<text text-anchor="middle" x="401.49" y="-489.78" font-family="Helvetica" font-size="14.00">GroupDetectors</text>
</g>
<!-- inputWS&#45;&gt;groupDet -->
<g id="edge1" class="edge">
<title>inputWS&#45;&gt;groupDet</title>
<path fill="none" stroke="black" d="M492.71,-563.09C475.61,-550.23 451.59,-532.17 432.5,-517.8"/>
<polygon fill="black" stroke="black" points="434.47,-514.91 424.38,-511.69 430.27,-520.5 434.47,-514.91"/>
<text text-anchor="middle" x="493.49" y="-533.28" font-family="Helvetica" font-size="14.00">Detectors</text>
</g>
<!-- cropMonWS -->
<g id="node13" class="node">
<title>cropMonWS</title>
<path fill="lightskyblue" stroke="black" d="M647.99,-511.48C647.99,-511.48 558.99,-511.48 558.99,-511.48 552.99,-511.48 546.99,-505.48 546.99,-499.48 546.99,-499.48 546.99,-487.48 546.99,-487.48 546.99,-481.48 552.99,-475.48 558.99,-475.48 558.99,-475.48 647.99,-475.48 647.99,-475.48 653.99,-475.48 659.99,-481.48 659.99,-487.48 659.99,-487.48 659.99,-499.48 659.99,-499.48 659.99,-505.48 653.99,-511.48 647.99,-511.48"/>
<text text-anchor="middle" x="603.49" y="-489.78" font-family="Helvetica" font-size="14.00">CropWorkspace</text>
</g>
<!-- inputWS&#45;&gt;cropMonWS -->
<g id="edge3" class="edge">
<title>inputWS&#45;&gt;cropMonWS</title>
<path fill="none" stroke="black" d="M532.08,-562.69C545.28,-550.08 563.54,-532.64 578.29,-518.55"/>
<polygon fill="black" stroke="black" points="580.83,-520.97 585.64,-511.53 575.99,-515.91 580.83,-520.97"/>
<text text-anchor="middle" x="591.99" y="-533.28" font-family="Helvetica" font-size="14.00">Montitors</text>
</g>
<!-- procCommands -->
<g id="node2" class="node">
<title>procCommands</title>
<ellipse fill="khaki" stroke="black" cx="318.49" cy="-580.48" rx="98.58" ry="18"/>
<text text-anchor="middle" x="318.49" y="-576.78" font-family="Helvetica" font-size="14.00">ProcessingInstructions</text>
</g>
<!-- procCommands&#45;&gt;groupDet -->
<g id="edge2" class="edge">
<title>procCommands&#45;&gt;groupDet</title>
<path fill="none" stroke="black" d="M334.89,-562.69C347.09,-550.2 363.92,-532.96 377.61,-518.94"/>
<polygon fill="black" stroke="black" points="380.36,-521.13 384.85,-511.53 375.35,-516.24 380.36,-521.13"/>
</g>
<!-- wavMin -->
<g id="node3" class="node">
<title>wavMin</title>
<ellipse fill="khaki" stroke="black" cx="71.49" cy="-165" rx="71.49" ry="18"/>
<text text-anchor="middle" x="71.49" y="-161.3" font-family="Helvetica" font-size="14.00">WavelengthMin</text>
</g>
<!-- cropWav -->
<g id="node17" class="node">
<title>cropWav</title>
<path fill="lightskyblue" stroke="black" d="M445.99,-109C445.99,-109 356.99,-109 356.99,-109 350.99,-109 344.99,-103 344.99,-97 344.99,-97 344.99,-85 344.99,-85 344.99,-79 350.99,-73 356.99,-73 356.99,-73 445.99,-73 445.99,-73 451.99,-73 457.99,-79 457.99,-85 457.99,-85 457.99,-97 457.99,-97 457.99,-103 451.99,-109 445.99,-109"/>
<text text-anchor="middle" x="401.49" y="-87.3" font-family="Helvetica" font-size="14.00">CropWorkspace</text>
</g>
<!-- wavMin&#45;&gt;cropWav -->
<g id="edge15" class="edge">
<title>wavMin&#45;&gt;cropWav</title>
<path fill="none" stroke="black" d="M123.34,-152.44C133.03,-150.29 143.07,-148.07 152.49,-146 214.13,-132.47 284.41,-117.25 334.55,-106.42"/>
<polygon fill="black" stroke="black" points="335.57,-109.78 344.61,-104.25 334.1,-102.94 335.57,-109.78"/>
</g>
<!-- wavMax -->
<g id="node4" class="node">
<title>wavMax</title>
<ellipse fill="khaki" stroke="black" cx="235.49" cy="-165" rx="74.19" ry="18"/>
<text text-anchor="middle" x="235.49" y="-161.3" font-family="Helvetica" font-size="14.00">WavelengthMax</text>
</g>
<!-- wavMax&#45;&gt;cropWav -->
<g id="edge17" class="edge">
<title>wavMax&#45;&gt;cropWav</title>
<path fill="none" stroke="black" d="M270.29,-148.91C294.17,-138.55 326.19,-124.66 352.62,-113.2"/>
<polygon fill="black" stroke="black" points="354.3,-116.28 362.08,-109.09 351.52,-109.86 354.3,-116.28"/>
</g>
<!-- monitorIndex -->
<g id="node5" class="node">
<title>monitorIndex</title>
<ellipse fill="khaki" stroke="black" cx="681.49" cy="-580.48" rx="69.59" ry="18"/>
<text text-anchor="middle" x="681.49" y="-576.78" font-family="Helvetica" font-size="14.00">I0MonitorIndex</text>
</g>
<!-- monitorIndex&#45;&gt;cropMonWS -->
<g id="edge4" class="edge">
<title>monitorIndex&#45;&gt;cropMonWS</title>
<path fill="none" stroke="black" d="M667.03,-562.63C658.54,-552.85 647.54,-540.35 637.49,-529.48 634.37,-526.1 631.04,-522.58 627.73,-519.13"/>
<polygon fill="black" stroke="black" points="630.08,-516.52 620.61,-511.76 625.05,-521.39 630.08,-516.52"/>
</g>
<!-- monIntWavMax -->
<g id="node6" class="node">
<title>monIntWavMax</title>
<ellipse fill="khaki" stroke="black" cx="1000.49" cy="-320.87" rx="92.76" ry="26.74"/>
<text text-anchor="middle" x="1000.49" y="-324.67" font-family="Helvetica" font-size="14.00">MonitorIntegration&#45;</text>
<text text-anchor="middle" x="1000.49" y="-309.67" font-family="Helvetica" font-size="14.00">WavelengthMax</text>
</g>
<!-- intMon -->
<g id="node15" class="node">
<title>intMon</title>
<path fill="lightskyblue" stroke="black" d="M631.49,-257C631.49,-257 575.49,-257 575.49,-257 569.49,-257 563.49,-251 563.49,-245 563.49,-245 563.49,-233 563.49,-233 563.49,-227 569.49,-221 575.49,-221 575.49,-221 631.49,-221 631.49,-221 637.49,-221 643.49,-227 643.49,-233 643.49,-233 643.49,-245 643.49,-245 643.49,-251 637.49,-257 631.49,-257"/>
<text text-anchor="middle" x="603.49" y="-235.3" font-family="Helvetica" font-size="14.00">Integration</text>
</g>
<!-- monIntWavMax&#45;&gt;intMon -->
<g id="edge12" class="edge">
<title>monIntWavMax&#45;&gt;intMon</title>
<path fill="none" stroke="black" d="M933.83,-302.09C922.41,-299.25 910.63,-296.44 899.49,-294 813.81,-275.23 713.18,-257.85 654.07,-248.11"/>
<polygon fill="black" stroke="black" points="654.32,-244.61 643.89,-246.44 653.19,-251.52 654.32,-244.61"/>
</g>
<!-- monIntWavMin -->
<g id="node7" class="node">
<title>monIntWavMin</title>
<ellipse fill="khaki" stroke="black" cx="797.49" cy="-320.87" rx="92.76" ry="26.74"/>
<text text-anchor="middle" x="797.49" y="-324.67" font-family="Helvetica" font-size="14.00">MonitorIntegration&#45;</text>
<text text-anchor="middle" x="797.49" y="-309.67" font-family="Helvetica" font-size="14.00">WavelengthMin</text>
</g>
<!-- monIntWavMin&#45;&gt;intMon -->
<g id="edge11" class="edge">
<title>monIntWavMin&#45;&gt;intMon</title>
<path fill="none" stroke="black" d="M745.76,-298.57C717.02,-286.74 681.44,-272.09 653.06,-260.41"/>
<polygon fill="black" stroke="black" points="654.31,-257.13 643.73,-256.56 651.64,-263.61 654.31,-257.13"/>
</g>
<!-- monBackWavMin -->
<g id="node8" class="node">
<title>monBackWavMin</title>
<ellipse fill="khaki" stroke="black" cx="783.49" cy="-411.61" rx="98.08" ry="26.74"/>
<text text-anchor="middle" x="783.49" y="-415.41" font-family="Helvetica" font-size="14.00">MonitorBackground&#45;</text>
<text text-anchor="middle" x="783.49" y="-400.41" font-family="Helvetica" font-size="14.00">WavelengthMin</text>
</g>
<!-- monBackWavMin&#45;&gt;monIntWavMin -->
<!-- calcFlatBg -->
<g id="node14" class="node">
<title>calcFlatBg</title>
<path fill="lightskyblue" stroke="black" d="M674.99,-338.87C674.99,-338.87 531.99,-338.87 531.99,-338.87 525.99,-338.87 519.99,-332.87 519.99,-326.87 519.99,-326.87 519.99,-314.87 519.99,-314.87 519.99,-308.87 525.99,-302.87 531.99,-302.87 531.99,-302.87 674.99,-302.87 674.99,-302.87 680.99,-302.87 686.99,-308.87 686.99,-314.87 686.99,-314.87 686.99,-326.87 686.99,-326.87 686.99,-332.87 680.99,-338.87 674.99,-338.87"/>
<text text-anchor="middle" x="603.49" y="-317.17" font-family="Helvetica" font-size="14.00">CalculateFlatBackground</text>
</g>
<!-- monBackWavMin&#45;&gt;calcFlatBg -->
<g id="edge8" class="edge">
<title>monBackWavMin&#45;&gt;calcFlatBg</title>
<path fill="none" stroke="black" d="M737.14,-387.76C709.46,-374.11 674.53,-356.89 647.31,-343.47"/>
<polygon fill="black" stroke="black" points="648.55,-340.18 638.03,-338.9 645.46,-346.46 648.55,-340.18"/>
</g>
<!-- monBackWavMax -->
<g id="node9" class="node">
<title>monBackWavMax</title>
<ellipse fill="khaki" stroke="black" cx="999.49" cy="-411.61" rx="98.08" ry="26.74"/>
<text text-anchor="middle" x="999.49" y="-415.41" font-family="Helvetica" font-size="14.00">MonitorBackground&#45;</text>
<text text-anchor="middle" x="999.49" y="-400.41" font-family="Helvetica" font-size="14.00">WavelengthMax</text>
</g>
<!-- monBackWavMax&#45;&gt;monIntWavMax -->
<!-- monBackWavMax&#45;&gt;calcFlatBg -->
<g id="edge9" class="edge">
<title>monBackWavMax&#45;&gt;calcFlatBg</title>
<path fill="none" stroke="black" d="M927.77,-393.1C915.36,-390.21 902.57,-387.32 890.49,-384.74 804.22,-366.33 781.37,-367.92 695.49,-347.74 687.57,-345.88 679.31,-343.78 671.12,-341.6"/>
<polygon fill="black" stroke="black" points="671.77,-338.15 661.21,-338.92 669.95,-344.91 671.77,-338.15"/>
</g>
<!-- convertDet -->
<g id="node10" class="node">
<title>convertDet</title>
<path fill="lightskyblue" stroke="black" d="M451.99,-430.61C451.99,-430.61 350.99,-430.61 350.99,-430.61 344.99,-430.61 338.99,-424.61 338.99,-418.61 338.99,-418.61 338.99,-404.61 338.99,-404.61 338.99,-398.61 344.99,-392.61 350.99,-392.61 350.99,-392.61 451.99,-392.61 451.99,-392.61 457.99,-392.61 463.99,-398.61 463.99,-404.61 463.99,-404.61 463.99,-418.61 463.99,-418.61 463.99,-424.61 457.99,-430.61 451.99,-430.61"/>
<text text-anchor="middle" x="401.49" y="-415.41" font-family="Helvetica" font-size="14.00">ConvertUnits</text>
<text text-anchor="middle" x="401.49" y="-400.41" font-family="Helvetica" font-size="14.00">(AlignBins = True)</text>
</g>
<!-- divideDetMon -->
<g id="node16" class="node">
<title>divideDetMon</title>
<path fill="lightskyblue" stroke="black" d="M462.99,-184C462.99,-184 339.99,-184 339.99,-184 333.99,-184 327.99,-178 327.99,-172 327.99,-172 327.99,-158 327.99,-158 327.99,-152 333.99,-146 339.99,-146 339.99,-146 462.99,-146 462.99,-146 468.99,-146 474.99,-152 474.99,-158 474.99,-158 474.99,-172 474.99,-172 474.99,-178 468.99,-184 462.99,-184"/>
<text text-anchor="middle" x="401.49" y="-168.8" font-family="Helvetica" font-size="14.00">Divide</text>
<text text-anchor="middle" x="401.49" y="-153.8" font-family="Helvetica" font-size="14.00">(Detectors / Monitors)</text>
</g>
<!-- convertDet&#45;&gt;divideDetMon -->
<g id="edge13" class="edge">
<title>convertDet&#45;&gt;divideDetMon</title>
<path fill="none" stroke="black" d="M401.49,-392.22C401.49,-349.89 401.49,-245.27 401.49,-194.52"/>
<polygon fill="black" stroke="black" points="404.99,-194.27 401.49,-184.27 397.99,-194.27 404.99,-194.27"/>
</g>
<!-- convertMon -->
<g id="node11" class="node">
<title>convertMon</title>
<path fill="lightskyblue" stroke="black" d="M653.99,-430.61C653.99,-430.61 552.99,-430.61 552.99,-430.61 546.99,-430.61 540.99,-424.61 540.99,-418.61 540.99,-418.61 540.99,-404.61 540.99,-404.61 540.99,-398.61 546.99,-392.61 552.99,-392.61 552.99,-392.61 653.99,-392.61 653.99,-392.61 659.99,-392.61 665.99,-398.61 665.99,-404.61 665.99,-404.61 665.99,-418.61 665.99,-418.61 665.99,-424.61 659.99,-430.61 653.99,-430.61"/>
<text text-anchor="middle" x="603.49" y="-415.41" font-family="Helvetica" font-size="14.00">ConvertUnits</text>
<text text-anchor="middle" x="603.49" y="-400.41" font-family="Helvetica" font-size="14.00">(AlignBins = True)</text>
</g>
<!-- convertMon&#45;&gt;calcFlatBg -->
<g id="edge7" class="edge">
<title>convertMon&#45;&gt;calcFlatBg</title>
<path fill="none" stroke="black" d="M603.49,-392.22C603.49,-379.76 603.49,-363.08 603.49,-349.09"/>
<polygon fill="black" stroke="black" points="606.99,-349.03 603.49,-339.03 599.99,-349.03 606.99,-349.03"/>
</g>
<!-- groupDet&#45;&gt;convertDet -->
<g id="edge5" class="edge">
<title>groupDet&#45;&gt;convertDet</title>
<path fill="none" stroke="black" d="M401.49,-475.15C401.49,-465.1 401.49,-452.21 401.49,-440.75"/>
<polygon fill="black" stroke="black" points="404.99,-440.74 401.49,-430.74 397.99,-440.74 404.99,-440.74"/>
</g>
<!-- groupDet&#45;&gt;cropMonWS -->
<!-- groupDet&#45;&gt;intMon -->
<!-- cropMonWS&#45;&gt;convertMon -->
<g id="edge6" class="edge">
<title>cropMonWS&#45;&gt;convertMon</title>
<path fill="none" stroke="black" d="M603.49,-475.15C603.49,-465.1 603.49,-452.21 603.49,-440.75"/>
<polygon fill="black" stroke="black" points="606.99,-440.74 603.49,-430.74 599.99,-440.74 606.99,-440.74"/>
</g>
<!-- calcFlatBg&#45;&gt;intMon -->
<g id="edge10" class="edge">
<title>calcFlatBg&#45;&gt;intMon</title>
<path fill="none" stroke="black" d="M603.49,-302.54C603.49,-292.21 603.49,-278.88 603.49,-267.18"/>
<polygon fill="black" stroke="black" points="606.99,-267.02 603.49,-257.02 599.99,-267.02 606.99,-267.02"/>
</g>
<!-- intMon&#45;&gt;divideDetMon -->
<g id="edge14" class="edge">
<title>intMon&#45;&gt;divideDetMon</title>
<path fill="none" stroke="black" d="M563.1,-223.6C534.07,-213.26 494.45,-199.13 461.7,-187.46"/>
<polygon fill="black" stroke="black" points="462.82,-184.14 452.22,-184.08 460.47,-190.74 462.82,-184.14"/>
</g>
<!-- divideDetMon&#45;&gt;cropWav -->
<g id="edge16" class="edge">
<title>divideDetMon&#45;&gt;cropWav</title>
<path fill="none" stroke="black" d="M401.49,-145.83C401.49,-137.89 401.49,-128.41 401.49,-119.63"/>
<polygon fill="black" stroke="black" points="404.99,-119.42 401.49,-109.42 397.99,-119.42 404.99,-119.42"/>
</g>
<!-- valWavOut -->
<g id="node18" class="node">
<title>valWavOut</title>
<polygon fill="grey" stroke="black" points="439.73,-36 378.91,-36 363.26,0 424.08,0 439.73,-36"/>
<text text-anchor="middle" x="401.49" y="-14.3" font-family="Times-Roman" font-size="14.00">I(λ)</text>
</g>
<!-- cropWav&#45;&gt;valWavOut -->
<g id="edge18" class="edge">
<title>cropWav&#45;&gt;valWavOut</title>
<path fill="none" stroke="black" d="M401.49,-72.81C401.49,-64.79 401.49,-55.05 401.49,-46.07"/>
<polygon fill="black" stroke="black" points="404.99,-46.03 401.49,-36.03 397.99,-46.03 404.99,-46.03"/>
</g>
</g>
</svg>
