<?xml version="1.0" encoding="UTF-8" standalone="no"?>
<!DOCTYPE svg PUBLIC "-//W3C//DTD SVG 1.1//EN"
 "http://www.w3.org/Graphics/SVG/1.1/DTD/svg11.dtd">
<!-- Generated by graphviz version 7.0.5 (20221231.0122)
 -->
<!-- Title: CreateTransmissionWorkspaceWavelength Pages: 1 -->
<svg width="1238pt" height="606pt"
 viewBox="0.00 0.00 1238.32 606.48" xmlns="http://www.w3.org/2000/svg" xmlns:xlink="http://www.w3.org/1999/xlink">
<g id="graph0" class="graph" transform="scale(1 1) rotate(0) translate(4 602.48)">
<title>CreateTransmissionWorkspaceWavelength</title>
<polygon fill="white" stroke="none" points="-4,4 -4,-602.48 1234.32,-602.48 1234.32,4 -4,4"/>
<!-- inputWS -->
<g id="node1" class="node">
<title>inputWS</title>
<ellipse fill="khaki" stroke="black" cx="573.59" cy="-580.48" rx="87.18" ry="18"/>
<text text-anchor="middle" x="573.59" y="-576.78" font-family="Helvetica,sans-Serif" font-size="14.00">TransmissionRun</text>
</g>
<!-- groupDet -->
<g id="node12" class="node">
<title>groupDet</title>
<path fill="lightskyblue" stroke="black" d="M498.09,-511.48C498.09,-511.48 397.09,-511.48 397.09,-511.48 391.09,-511.48 385.09,-505.48 385.09,-499.48 385.09,-499.48 385.09,-487.48 385.09,-487.48 385.09,-481.48 391.09,-475.48 397.09,-475.48 397.09,-475.48 498.09,-475.48 498.09,-475.48 504.09,-475.48 510.09,-481.48 510.09,-487.48 510.09,-487.48 510.09,-499.48 510.09,-499.48 510.09,-505.48 504.09,-511.48 498.09,-511.48"/>
<text text-anchor="middle" x="447.59" y="-489.78" font-family="Helvetica,sans-Serif" font-size="14.00">GroupDetectors</text>
</g>
<!-- inputWS&#45;&gt;groupDet -->
<g id="edge1" class="edge">
<title>inputWS&#45;&gt;groupDet</title>
<path fill="none" stroke="black" d="M549,-562.89C530.12,-550.15 503.8,-532.4 482.7,-518.17"/>
<polygon fill="black" stroke="black" points="484.93,-515.44 474.68,-512.75 481.01,-521.25 484.93,-515.44"/>
<text text-anchor="middle" x="551.09" y="-533.28" font-family="Helvetica,sans-Serif" font-size="14.00">Detectors</text>
</g>
<!-- cropMonWS -->
<g id="node13" class="node">
<title>cropMonWS</title>
<path fill="lightskyblue" stroke="black" d="M721.09,-511.48C721.09,-511.48 620.09,-511.48 620.09,-511.48 614.09,-511.48 608.09,-505.48 608.09,-499.48 608.09,-499.48 608.09,-487.48 608.09,-487.48 608.09,-481.48 614.09,-475.48 620.09,-475.48 620.09,-475.48 721.09,-475.48 721.09,-475.48 727.09,-475.48 733.09,-481.48 733.09,-487.48 733.09,-487.48 733.09,-499.48 733.09,-499.48 733.09,-505.48 727.09,-511.48 721.09,-511.48"/>
<text text-anchor="middle" x="670.59" y="-489.78" font-family="Helvetica,sans-Serif" font-size="14.00">CropWorkspace</text>
</g>
<!-- inputWS&#45;&gt;cropMonWS -->
<g id="edge3" class="edge">
<title>inputWS&#45;&gt;cropMonWS</title>
<path fill="none" stroke="black" d="M592.76,-562.69C606.92,-550.28 626.43,-533.18 642.37,-519.21"/>
<polygon fill="black" stroke="black" points="644.45,-522.04 649.66,-512.82 639.84,-516.78 644.45,-522.04"/>
<text text-anchor="middle" x="660.59" y="-533.28" font-family="Helvetica,sans-Serif" font-size="14.00">Montitors</text>
</g>
<!-- procCommands -->
<g id="node2" class="node">
<title>procCommands</title>
<ellipse fill="khaki" stroke="black" cx="355.59" cy="-580.48" rx="112.38" ry="18"/>
<text text-anchor="middle" x="355.59" y="-576.78" font-family="Helvetica,sans-Serif" font-size="14.00">ProcessingInstructions</text>
</g>
<!-- procCommands&#45;&gt;groupDet -->
<g id="edge2" class="edge">
<title>procCommands&#45;&gt;groupDet</title>
<path fill="none" stroke="black" d="M374.21,-562.28C387.47,-550.03 405.49,-533.38 420.36,-519.64"/>
<polygon fill="black" stroke="black" points="422.61,-522.33 427.58,-512.97 417.86,-517.19 422.61,-522.33"/>
</g>
<!-- wavMin -->
<g id="node3" class="node">
<title>wavMin</title>
<ellipse fill="khaki" stroke="black" cx="80.59" cy="-165" rx="80.69" ry="18"/>
<text text-anchor="middle" x="80.59" y="-161.3" font-family="Helvetica,sans-Serif" font-size="14.00">WavelengthMin</text>
</g>
<!-- cropWav -->
<g id="node17" class="node">
<title>cropWav</title>
<path fill="lightskyblue" stroke="black" d="M498.09,-109C498.09,-109 397.09,-109 397.09,-109 391.09,-109 385.09,-103 385.09,-97 385.09,-97 385.09,-85 385.09,-85 385.09,-79 391.09,-73 397.09,-73 397.09,-73 498.09,-73 498.09,-73 504.09,-73 510.09,-79 510.09,-85 510.09,-85 510.09,-97 510.09,-97 510.09,-103 504.09,-109 498.09,-109"/>
<text text-anchor="middle" x="447.59" y="-87.3" font-family="Helvetica,sans-Serif" font-size="14.00">CropWorkspace</text>
</g>
<!-- wavMin&#45;&gt;cropWav -->
<g id="edge15" class="edge">
<title>wavMin&#45;&gt;cropWav</title>
<path fill="none" stroke="black" d="M139.16,-152.24C149.63,-150.15 160.43,-148.01 170.59,-146 239.28,-132.44 317.6,-117.19 373.39,-106.36"/>
<polygon fill="black" stroke="black" points="373.96,-109.82 383.11,-104.48 372.62,-102.95 373.96,-109.82"/>
</g>
<!-- wavMax -->
<g id="node4" class="node">
<title>wavMax</title>
<ellipse fill="khaki" stroke="black" cx="262.59" cy="-165" rx="83.39" ry="18"/>
<text text-anchor="middle" x="262.59" y="-161.3" font-family="Helvetica,sans-Serif" font-size="14.00">WavelengthMax</text>
</g>
<!-- wavMax&#45;&gt;cropWav -->
<g id="edge17" class="edge">
<title>wavMax&#45;&gt;cropWav</title>
<path fill="none" stroke="black" d="M301.83,-148.73C328.18,-138.47 363.29,-124.81 392.45,-113.46"/>
<polygon fill="black" stroke="black" points="393.43,-116.84 401.48,-109.95 390.89,-110.31 393.43,-116.84"/>
</g>
<!-- monitorIndex -->
<g id="node5" class="node">
<title>monitorIndex</title>
<ellipse fill="khaki" stroke="black" cx="757.59" cy="-580.48" rx="79.09" ry="18"/>
<text text-anchor="middle" x="757.59" y="-576.78" font-family="Helvetica,sans-Serif" font-size="14.00">I0MonitorIndex</text>
</g>
<!-- monitorIndex&#45;&gt;cropMonWS -->
<g id="edge4" class="edge">
<title>monitorIndex&#45;&gt;cropMonWS</title>
<path fill="none" stroke="black" d="M742.32,-562.42C733.32,-552.57 721.57,-540.07 710.59,-529.48 707.16,-526.16 703.48,-522.76 699.79,-519.44"/>
<polygon fill="black" stroke="black" points="702.23,-516.92 692.42,-512.91 697.59,-522.16 702.23,-516.92"/>
</g>
<!-- monIntWavMax -->
<g id="node6" class="node">
<title>monIntWavMax</title>
<ellipse fill="khaki" stroke="black" cx="1121.59" cy="-320.87" rx="106.55" ry="26.74"/>
<text text-anchor="middle" x="1121.59" y="-324.67" font-family="Helvetica,sans-Serif" font-size="14.00">MonitorIntegration&#45;</text>
<text text-anchor="middle" x="1121.59" y="-309.67" font-family="Helvetica,sans-Serif" font-size="14.00">WavelengthMax</text>
</g>
<!-- intMon -->
<g id="node15" class="node">
<title>intMon</title>
<path fill="lightskyblue" stroke="black" d="M705.09,-257C705.09,-257 636.09,-257 636.09,-257 630.09,-257 624.09,-251 624.09,-245 624.09,-245 624.09,-233 624.09,-233 624.09,-227 630.09,-221 636.09,-221 636.09,-221 705.09,-221 705.09,-221 711.09,-221 717.09,-227 717.09,-233 717.09,-233 717.09,-245 717.09,-245 717.09,-251 711.09,-257 705.09,-257"/>
<text text-anchor="middle" x="670.59" y="-235.3" font-family="Helvetica,sans-Serif" font-size="14.00">Integration</text>
</g>
<!-- monIntWavMax&#45;&gt;intMon -->
<g id="edge12" class="edge">
<title>monIntWavMax&#45;&gt;intMon</title>
<path fill="none" stroke="black" d="M1044.67,-302.04C1031.65,-299.22 1018.26,-296.43 1005.59,-294 908.79,-275.42 795.42,-258.06 728.49,-248.26"/>
<polygon fill="black" stroke="black" points="729.25,-244.84 718.85,-246.86 728.24,-251.76 729.25,-244.84"/>
</g>
<!-- monIntWavMin -->
<g id="node7" class="node">
<title>monIntWavMin</title>
<ellipse fill="khaki" stroke="black" cx="889.59" cy="-320.87" rx="106.55" ry="26.74"/>
<text text-anchor="middle" x="889.59" y="-324.67" font-family="Helvetica,sans-Serif" font-size="14.00">MonitorIntegration&#45;</text>
<text text-anchor="middle" x="889.59" y="-309.67" font-family="Helvetica,sans-Serif" font-size="14.00">WavelengthMin</text>
</g>
<!-- monIntWavMin&#45;&gt;intMon -->
<g id="edge11" class="edge">
<title>monIntWavMin&#45;&gt;intMon</title>
<path fill="none" stroke="black" d="M830.33,-298.26C798.6,-286.68 759.69,-272.49 728.21,-261.01"/>
<polygon fill="black" stroke="black" points="729.43,-257.73 718.84,-257.59 727.03,-264.31 729.43,-257.73"/>
</g>
<!-- monBackWavMin -->
<g id="node8" class="node">
<title>monBackWavMin</title>
<ellipse fill="khaki" stroke="black" cx="875.59" cy="-411.61" rx="111.95" ry="26.74"/>
<text text-anchor="middle" x="875.59" y="-415.41" font-family="Helvetica,sans-Serif" font-size="14.00">MonitorBackground&#45;</text>
<text text-anchor="middle" x="875.59" y="-400.41" font-family="Helvetica,sans-Serif" font-size="14.00">WavelengthMin</text>
</g>
<!-- monBackWavMin&#45;&gt;monIntWavMin -->
<!-- calcFlatBg -->
<g id="node14" class="node">
<title>calcFlatBg</title>
<path fill="lightskyblue" stroke="black" d="M753.09,-338.87C753.09,-338.87 588.09,-338.87 588.09,-338.87 582.09,-338.87 576.09,-332.87 576.09,-326.87 576.09,-326.87 576.09,-314.87 576.09,-314.87 576.09,-308.87 582.09,-302.87 588.09,-302.87 588.09,-302.87 753.09,-302.87 753.09,-302.87 759.09,-302.87 765.09,-308.87 765.09,-314.87 765.09,-314.87 765.09,-326.87 765.09,-326.87 765.09,-332.87 759.09,-338.87 753.09,-338.87"/>
<text text-anchor="middle" x="670.59" y="-317.17" font-family="Helvetica,sans-Serif" font-size="14.00">CalculateFlatBackground</text>
</g>
<!-- monBackWavMin&#45;&gt;calcFlatBg -->
<g id="edge8" class="edge">
<title>monBackWavMin&#45;&gt;calcFlatBg</title>
<path fill="none" stroke="black" d="M822.53,-387.64C791.33,-374.14 752.1,-357.15 721.31,-343.83"/>
<polygon fill="black" stroke="black" points="722.76,-340.64 712.19,-339.88 719.98,-347.06 722.76,-340.64"/>
</g>
<!-- monBackWavMax -->
<g id="node9" class="node">
<title>monBackWavMax</title>
<ellipse fill="khaki" stroke="black" cx="1118.59" cy="-411.61" rx="111.95" ry="26.74"/>
<text text-anchor="middle" x="1118.59" y="-415.41" font-family="Helvetica,sans-Serif" font-size="14.00">MonitorBackground&#45;</text>
<text text-anchor="middle" x="1118.59" y="-400.41" font-family="Helvetica,sans-Serif" font-size="14.00">WavelengthMax</text>
</g>
<!-- monBackWavMax&#45;&gt;monIntWavMax -->
<!-- monBackWavMax&#45;&gt;calcFlatBg -->
<g id="edge9" class="edge">
<title>monBackWavMax&#45;&gt;calcFlatBg</title>
<path fill="none" stroke="black" d="M1037.32,-392.85C1023.74,-390.03 1009.78,-387.23 996.59,-384.74 897.87,-366.09 871.95,-368.22 773.59,-347.74 765.22,-346 756.49,-344.03 747.82,-341.99"/>
<polygon fill="black" stroke="black" points="748.91,-338.65 738.37,-339.72 747.28,-345.46 748.91,-338.65"/>
</g>
<!-- convertDet -->
<g id="node10" class="node">
<title>convertDet</title>
<path fill="lightskyblue" stroke="black" d="M507.09,-430.61C507.09,-430.61 388.09,-430.61 388.09,-430.61 382.09,-430.61 376.09,-424.61 376.09,-418.61 376.09,-418.61 376.09,-404.61 376.09,-404.61 376.09,-398.61 382.09,-392.61 388.09,-392.61 388.09,-392.61 507.09,-392.61 507.09,-392.61 513.09,-392.61 519.09,-398.61 519.09,-404.61 519.09,-404.61 519.09,-418.61 519.09,-418.61 519.09,-424.61 513.09,-430.61 507.09,-430.61"/>
<text text-anchor="middle" x="447.59" y="-415.41" font-family="Helvetica,sans-Serif" font-size="14.00">ConvertUnits</text>
<text text-anchor="middle" x="447.59" y="-400.41" font-family="Helvetica,sans-Serif" font-size="14.00">(AlignBins = True)</text>
</g>
<!-- divideDetMon -->
<g id="node16" class="node">
<title>divideDetMon</title>
<path fill="lightskyblue" stroke="black" d="M519.09,-184C519.09,-184 376.09,-184 376.09,-184 370.09,-184 364.09,-178 364.09,-172 364.09,-172 364.09,-158 364.09,-158 364.09,-152 370.09,-146 376.09,-146 376.09,-146 519.09,-146 519.09,-146 525.09,-146 531.09,-152 531.09,-158 531.09,-158 531.09,-172 531.09,-172 531.09,-178 525.09,-184 519.09,-184"/>
<text text-anchor="middle" x="447.59" y="-168.8" font-family="Helvetica,sans-Serif" font-size="14.00">Divide</text>
<text text-anchor="middle" x="447.59" y="-153.8" font-family="Helvetica,sans-Serif" font-size="14.00">(Detectors / Monitors)</text>
</g>
<!-- convertDet&#45;&gt;divideDetMon -->
<g id="edge13" class="edge">
<title>convertDet&#45;&gt;divideDetMon</title>
<path fill="none" stroke="black" d="M447.59,-392.22C447.59,-350.15 447.59,-246.58 447.59,-195.48"/>
<polygon fill="black" stroke="black" points="451.09,-195.78 447.59,-185.78 444.09,-195.78 451.09,-195.78"/>
</g>
<!-- convertMon -->
<g id="node11" class="node">
<title>convertMon</title>
<path fill="lightskyblue" stroke="black" d="M730.09,-430.61C730.09,-430.61 611.09,-430.61 611.09,-430.61 605.09,-430.61 599.09,-424.61 599.09,-418.61 599.09,-418.61 599.09,-404.61 599.09,-404.61 599.09,-398.61 605.09,-392.61 611.09,-392.61 611.09,-392.61 730.09,-392.61 730.09,-392.61 736.09,-392.61 742.09,-398.61 742.09,-404.61 742.09,-404.61 742.09,-418.61 742.09,-418.61 742.09,-424.61 736.09,-430.61 730.09,-430.61"/>
<text text-anchor="middle" x="670.59" y="-415.41" font-family="Helvetica,sans-Serif" font-size="14.00">ConvertUnits</text>
<text text-anchor="middle" x="670.59" y="-400.41" font-family="Helvetica,sans-Serif" font-size="14.00">(AlignBins = True)</text>
</g>
<!-- convertMon&#45;&gt;calcFlatBg -->
<g id="edge7" class="edge">
<title>convertMon&#45;&gt;calcFlatBg</title>
<path fill="none" stroke="black" d="M670.59,-392.22C670.59,-380.21 670.59,-364.27 670.59,-350.6"/>
<polygon fill="black" stroke="black" points="674.09,-350.84 670.59,-340.84 667.09,-350.84 674.09,-350.84"/>
</g>
<!-- groupDet&#45;&gt;convertDet -->
<g id="edge5" class="edge">
<title>groupDet&#45;&gt;convertDet</title>
<path fill="none" stroke="black" d="M447.59,-475.15C447.59,-465.58 447.59,-453.43 447.59,-442.39"/>
<polygon fill="black" stroke="black" points="451.09,-442.53 447.59,-432.53 444.09,-442.53 451.09,-442.53"/>
</g>
<!-- groupDet&#45;&gt;cropMonWS -->
<!-- groupDet&#45;&gt;intMon -->
<!-- cropMonWS&#45;&gt;convertMon -->
<g id="edge6" class="edge">
<title>cropMonWS&#45;&gt;convertMon</title>
<path fill="none" stroke="black" d="M670.59,-475.15C670.59,-465.58 670.59,-453.43 670.59,-442.39"/>
<polygon fill="black" stroke="black" points="674.09,-442.53 670.59,-432.53 667.09,-442.53 674.09,-442.53"/>
</g>
<!-- calcFlatBg&#45;&gt;intMon -->
<g id="edge10" class="edge">
<title>calcFlatBg&#45;&gt;intMon</title>
<path fill="none" stroke="black" d="M670.59,-302.54C670.59,-292.6 670.59,-279.87 670.59,-268.49"/>
<polygon fill="black" stroke="black" points="674.09,-268.81 670.59,-258.81 667.09,-268.81 674.09,-268.81"/>
</g>
<!-- intMon&#45;&gt;divideDetMon -->
<g id="edge14" class="edge">
<title>intMon&#45;&gt;divideDetMon</title>
<path fill="none" stroke="black" d="M623.84,-222.91C592.36,-212.74 550.34,-199.17 515.23,-187.84"/>
<polygon fill="black" stroke="black" points="516.6,-184.6 506.01,-184.86 514.45,-191.26 516.6,-184.6"/>
</g>
<!-- divideDetMon&#45;&gt;cropWav -->
<g id="edge16" class="edge">
<title>divideDetMon&#45;&gt;cropWav</title>
<path fill="none" stroke="black" d="M447.59,-145.83C447.59,-138.24 447.59,-129.24 447.59,-120.79"/>
<polygon fill="black" stroke="black" points="451.09,-120.93 447.59,-110.93 444.09,-120.93 451.09,-120.93"/>
</g>
<!-- valWavOut -->
<g id="node18" class="node">
<title>valWavOut</title>
<polygon fill="grey" stroke="black" points="486.73,-36 424.47,-36 408.45,0 470.72,0 486.73,-36"/>
<text text-anchor="middle" x="447.59" y="-14.3" font-family="Times,serif" font-size="14.00">I(λ)</text>
</g>
<!-- cropWav&#45;&gt;valWavOut -->
<g id="edge18" class="edge">
<title>cropWav&#45;&gt;valWavOut</title>
<path fill="none" stroke="black" d="M447.59,-72.81C447.59,-65.23 447.59,-56.1 447.59,-47.54"/>
<polygon fill="black" stroke="black" points="451.09,-47.54 447.59,-37.54 444.09,-47.54 451.09,-47.54"/>
</g>
</g>
</svg>
