<?xml version="1.0" encoding="UTF-8" standalone="no"?>
<!DOCTYPE svg PUBLIC "-//W3C//DTD SVG 1.1//EN"
 "http://www.w3.org/Graphics/SVG/1.1/DTD/svg11.dtd">
<!-- Generated by graphviz version 2.47.2 (20210527.1257)
 -->
<!-- Title: CreateMD Pages: 1 -->
<svg width="735pt" height="811pt"
 viewBox="0.00 0.00 734.74 811.00" xmlns="http://www.w3.org/2000/svg" xmlns:xlink="http://www.w3.org/1999/xlink">
<g id="graph0" class="graph" transform="scale(1 1) rotate(0) translate(4 807)">
<title>CreateMD</title>
<polygon fill="white" stroke="transparent" points="-4,4 -4,-807 730.74,-807 730.74,4 -4,4"/>
<text text-anchor="middle" x="363.37" y="-787.8" font-family="Helvetica" font-size="14.00">CreateMD Flowchart</text>
<!-- DataSources -->
<g id="node1" class="node">
<title>DataSources</title>
<ellipse fill="khaki" stroke="black" cx="263.24" cy="-762" rx="61.99" ry="18"/>
<text text-anchor="middle" x="263.24" y="-758.3" font-family="Helvetica" font-size="14.00">DataSources</text>
</g>
<!-- load -->
<g id="node18" class="node">
<title>load</title>
<path fill="lightskyblue" stroke="black" d="M714.74,-693C714.74,-693 673.74,-693 673.74,-693 667.74,-693 661.74,-687 661.74,-681 661.74,-681 661.74,-669 661.74,-669 661.74,-663 667.74,-657 673.74,-657 673.74,-657 714.74,-657 714.74,-657 720.74,-657 726.74,-663 726.74,-669 726.74,-669 726.74,-681 726.74,-681 726.74,-687 720.74,-693 714.74,-693"/>
<text text-anchor="middle" x="694.24" y="-671.3" font-family="Helvetica" font-size="14.00">Load v1</text>
</g>
<!-- DataSources&#45;&gt;load -->
<g id="edge12" class="edge">
<title>DataSources&#45;&gt;load</title>
<path fill="none" stroke="black" d="M320.13,-754.88C394.66,-746.03 529.24,-727.15 651.55,-692.85"/>
<polygon fill="black" stroke="black" points="652.8,-696.14 661.46,-690.03 650.88,-689.41 652.8,-696.14"/>
<text text-anchor="middle" x="609.74" y="-714.8" font-family="Helvetica" font-size="14.00">if filename</text>
</g>
<!-- setUB -->
<g id="node19" class="node">
<title>setUB</title>
<path fill="lightskyblue" stroke="black" d="M526.24,-620C526.24,-620 476.24,-620 476.24,-620 470.24,-620 464.24,-614 464.24,-608 464.24,-608 464.24,-596 464.24,-596 464.24,-590 470.24,-584 476.24,-584 476.24,-584 526.24,-584 526.24,-584 532.24,-584 538.24,-590 538.24,-596 538.24,-596 538.24,-608 538.24,-608 538.24,-614 532.24,-620 526.24,-620"/>
<text text-anchor="middle" x="501.24" y="-598.3" font-family="Helvetica" font-size="14.00">SetUB v1</text>
</g>
<!-- DataSources&#45;&gt;setUB -->
<g id="edge11" class="edge">
<title>DataSources&#45;&gt;setUB</title>
<path fill="none" stroke="black" d="M255.63,-743.77C246.96,-721.22 236.41,-681.69 256.24,-657 280.54,-626.77 389.59,-612.47 453.72,-606.56"/>
<polygon fill="black" stroke="black" points="454.34,-610.02 464,-605.65 453.73,-603.05 454.34,-610.02"/>
<text text-anchor="middle" x="294.24" y="-671.3" font-family="Helvetica" font-size="14.00">if workspace</text>
</g>
<!-- EFix -->
<g id="node2" class="node">
<title>EFix</title>
<ellipse fill="khaki" stroke="black" cx="391.24" cy="-529" rx="28.7" ry="18"/>
<text text-anchor="middle" x="391.24" y="-525.3" font-family="Helvetica" font-size="14.00">EFix</text>
</g>
<!-- addSampleLogEFix -->
<g id="node14" class="node">
<title>addSampleLogEFix</title>
<path fill="lightskyblue" stroke="black" d="M477.24,-474C477.24,-474 373.24,-474 373.24,-474 367.24,-474 361.24,-468 361.24,-462 361.24,-462 361.24,-450 361.24,-450 361.24,-444 367.24,-438 373.24,-438 373.24,-438 477.24,-438 477.24,-438 483.24,-438 489.24,-444 489.24,-450 489.24,-450 489.24,-462 489.24,-462 489.24,-468 483.24,-474 477.24,-474"/>
<text text-anchor="middle" x="425.24" y="-452.3" font-family="Helvetica" font-size="14.00">AddSampleLog v1</text>
</g>
<!-- EFix&#45;&gt;addSampleLogEFix -->
<g id="edge3" class="edge">
<title>EFix&#45;&gt;addSampleLogEFix</title>
<path fill="none" stroke="black" d="M399.13,-511.53C403.09,-503.26 407.99,-493.04 412.47,-483.68"/>
<polygon fill="black" stroke="black" points="415.76,-484.9 416.93,-474.37 409.45,-481.88 415.76,-484.9"/>
</g>
<!-- EMode -->
<g id="node3" class="node">
<title>EMode</title>
<ellipse fill="khaki" stroke="black" cx="74.24" cy="-237" rx="38.99" ry="18"/>
<text text-anchor="middle" x="74.24" y="-233.3" font-family="Helvetica" font-size="14.00">EMode</text>
</g>
<!-- convertToMD -->
<g id="node12" class="node">
<title>convertToMD</title>
<path fill="lightskyblue" stroke="black" d="M128.24,-109C128.24,-109 34.24,-109 34.24,-109 28.24,-109 22.24,-103 22.24,-97 22.24,-97 22.24,-85 22.24,-85 22.24,-79 28.24,-73 34.24,-73 34.24,-73 128.24,-73 128.24,-73 134.24,-73 140.24,-79 140.24,-85 140.24,-85 140.24,-97 140.24,-97 140.24,-103 134.24,-109 128.24,-109"/>
<text text-anchor="middle" x="81.24" y="-87.3" font-family="Helvetica" font-size="14.00">ConvertToMD v1</text>
</g>
<!-- EMode&#45;&gt;convertToMD -->
<g id="edge9" class="edge">
<title>EMode&#45;&gt;convertToMD</title>
<path fill="none" stroke="black" d="M75.07,-218.92C76.27,-194.34 78.48,-148.75 79.91,-119.43"/>
<polygon fill="black" stroke="black" points="83.42,-119.22 80.41,-109.06 76.43,-118.88 83.42,-119.22"/>
</g>
<!-- convertToMDMinMaxGlobal -->
<g id="node20" class="node">
<title>convertToMDMinMaxGlobal</title>
<path fill="lightskyblue" stroke="black" d="M291.24,-182C291.24,-182 109.24,-182 109.24,-182 103.24,-182 97.24,-176 97.24,-170 97.24,-170 97.24,-158 97.24,-158 97.24,-152 103.24,-146 109.24,-146 109.24,-146 291.24,-146 291.24,-146 297.24,-146 303.24,-152 303.24,-158 303.24,-158 303.24,-170 303.24,-170 303.24,-176 297.24,-182 291.24,-182"/>
<text text-anchor="middle" x="200.24" y="-160.3" font-family="Helvetica" font-size="14.00">ConvertToMDMinMaxGlobal v1</text>
</g>
<!-- EMode&#45;&gt;convertToMDMinMaxGlobal -->
<g id="edge10" class="edge">
<title>EMode&#45;&gt;convertToMDMinMaxGlobal</title>
<path fill="none" stroke="black" d="M97.94,-222.65C115.7,-212.64 140.4,-198.72 161.08,-187.07"/>
<polygon fill="black" stroke="black" points="162.97,-190.02 169.96,-182.06 159.53,-183.92 162.97,-190.02"/>
</g>
<!-- Alatt -->
<g id="node4" class="node">
<title>Alatt</title>
<ellipse fill="khaki" stroke="black" cx="370.24" cy="-675" rx="28.7" ry="18"/>
<text text-anchor="middle" x="370.24" y="-671.3" font-family="Helvetica" font-size="14.00">Alatt</text>
</g>
<!-- Alatt&#45;&gt;setUB -->
<g id="edge5" class="edge">
<title>Alatt&#45;&gt;setUB</title>
<path fill="none" stroke="black" d="M391.29,-662.59C409.93,-652.49 437.68,-637.45 460.63,-625.01"/>
<polygon fill="black" stroke="black" points="462.36,-628.05 469.48,-620.21 459.02,-621.9 462.36,-628.05"/>
</g>
<!-- Angdeg -->
<g id="node5" class="node">
<title>Angdeg</title>
<ellipse fill="khaki" stroke="black" cx="458.24" cy="-675" rx="40.89" ry="18"/>
<text text-anchor="middle" x="458.24" y="-671.3" font-family="Helvetica" font-size="14.00">Angdeg</text>
</g>
<!-- Angdeg&#45;&gt;setUB -->
<g id="edge6" class="edge">
<title>Angdeg&#45;&gt;setUB</title>
<path fill="none" stroke="black" d="M468.22,-657.53C473.33,-649.09 479.68,-638.61 485.44,-629.09"/>
<polygon fill="black" stroke="black" points="488.54,-630.74 490.72,-620.37 482.55,-627.11 488.54,-630.74"/>
</g>
<!-- u -->
<g id="node6" class="node">
<title>u</title>
<ellipse fill="khaki" stroke="black" cx="544.24" cy="-675" rx="27" ry="18"/>
<text text-anchor="middle" x="544.24" y="-671.3" font-family="Helvetica" font-size="14.00">u</text>
</g>
<!-- u&#45;&gt;setUB -->
<g id="edge7" class="edge">
<title>u&#45;&gt;setUB</title>
<path fill="none" stroke="black" d="M534.49,-657.89C529.25,-649.24 522.67,-638.38 516.75,-628.61"/>
<polygon fill="black" stroke="black" points="519.74,-626.78 511.56,-620.04 513.75,-630.4 519.74,-626.78"/>
</g>
<!-- v -->
<g id="node7" class="node">
<title>v</title>
<ellipse fill="khaki" stroke="black" cx="616.24" cy="-675" rx="27" ry="18"/>
<text text-anchor="middle" x="616.24" y="-671.3" font-family="Helvetica" font-size="14.00">v</text>
</g>
<!-- v&#45;&gt;setUB -->
<g id="edge8" class="edge">
<title>v&#45;&gt;setUB</title>
<path fill="none" stroke="black" d="M596.99,-662.12C580.91,-652.19 557.53,-637.75 537.9,-625.63"/>
<polygon fill="black" stroke="black" points="539.53,-622.52 529.18,-620.25 535.85,-628.48 539.53,-622.52"/>
</g>
<!-- Psi -->
<g id="node8" class="node">
<title>Psi</title>
<ellipse fill="khaki" stroke="black" cx="166.24" cy="-310" rx="27" ry="18"/>
<text text-anchor="middle" x="166.24" y="-306.3" font-family="Helvetica" font-size="14.00">Psi</text>
</g>
<!-- addSampleLogPsi -->
<g id="node17" class="node">
<title>addSampleLogPsi</title>
<path fill="lightskyblue" stroke="black" d="M252.24,-255C252.24,-255 148.24,-255 148.24,-255 142.24,-255 136.24,-249 136.24,-243 136.24,-243 136.24,-231 136.24,-231 136.24,-225 142.24,-219 148.24,-219 148.24,-219 252.24,-219 252.24,-219 258.24,-219 264.24,-225 264.24,-231 264.24,-231 264.24,-243 264.24,-243 264.24,-249 258.24,-255 252.24,-255"/>
<text text-anchor="middle" x="200.24" y="-233.3" font-family="Helvetica" font-size="14.00">AddSampleLog v1</text>
</g>
<!-- Psi&#45;&gt;addSampleLogPsi -->
<g id="edge4" class="edge">
<title>Psi&#45;&gt;addSampleLogPsi</title>
<path fill="none" stroke="black" d="M174.13,-292.53C178.09,-284.26 182.99,-274.04 187.47,-264.68"/>
<polygon fill="black" stroke="black" points="190.76,-265.9 191.93,-255.37 184.45,-262.88 190.76,-265.9"/>
</g>
<!-- Gl -->
<g id="node9" class="node">
<title>Gl</title>
<ellipse fill="khaki" stroke="black" cx="316.24" cy="-456" rx="27" ry="18"/>
<text text-anchor="middle" x="316.24" y="-452.3" font-family="Helvetica" font-size="14.00">Gl</text>
</g>
<!-- addSampleLogGl -->
<g id="node15" class="node">
<title>addSampleLogGl</title>
<path fill="lightskyblue" stroke="black" d="M402.24,-401C402.24,-401 298.24,-401 298.24,-401 292.24,-401 286.24,-395 286.24,-389 286.24,-389 286.24,-377 286.24,-377 286.24,-371 292.24,-365 298.24,-365 298.24,-365 402.24,-365 402.24,-365 408.24,-365 414.24,-371 414.24,-377 414.24,-377 414.24,-389 414.24,-389 414.24,-395 408.24,-401 402.24,-401"/>
<text text-anchor="middle" x="350.24" y="-379.3" font-family="Helvetica" font-size="14.00">AddSampleLog v1</text>
</g>
<!-- Gl&#45;&gt;addSampleLogGl -->
<g id="edge1" class="edge">
<title>Gl&#45;&gt;addSampleLogGl</title>
<path fill="none" stroke="black" d="M324.13,-438.53C328.09,-430.26 332.99,-420.04 337.47,-410.68"/>
<polygon fill="black" stroke="black" points="340.76,-411.9 341.93,-401.37 334.45,-408.88 340.76,-411.9"/>
</g>
<!-- Gs -->
<g id="node10" class="node">
<title>Gs</title>
<ellipse fill="khaki" stroke="black" cx="241.24" cy="-383" rx="27" ry="18"/>
<text text-anchor="middle" x="241.24" y="-379.3" font-family="Helvetica" font-size="14.00">Gs</text>
</g>
<!-- addSampleLogGs -->
<g id="node16" class="node">
<title>addSampleLogGs</title>
<path fill="lightskyblue" stroke="black" d="M327.24,-328C327.24,-328 223.24,-328 223.24,-328 217.24,-328 211.24,-322 211.24,-316 211.24,-316 211.24,-304 211.24,-304 211.24,-298 217.24,-292 223.24,-292 223.24,-292 327.24,-292 327.24,-292 333.24,-292 339.24,-298 339.24,-304 339.24,-304 339.24,-316 339.24,-316 339.24,-322 333.24,-328 327.24,-328"/>
<text text-anchor="middle" x="275.24" y="-306.3" font-family="Helvetica" font-size="14.00">AddSampleLog v1</text>
</g>
<!-- Gs&#45;&gt;addSampleLogGs -->
<g id="edge2" class="edge">
<title>Gs&#45;&gt;addSampleLogGs</title>
<path fill="none" stroke="black" d="M249.13,-365.53C253.09,-357.26 257.99,-347.04 262.47,-337.68"/>
<polygon fill="black" stroke="black" points="265.76,-338.9 266.93,-328.37 259.45,-335.88 265.76,-338.9"/>
</g>
<!-- OutputWorkspace -->
<g id="node11" class="node">
<title>OutputWorkspace</title>
<ellipse fill="khaki" stroke="black" cx="81.24" cy="-18" rx="81.49" ry="18"/>
<text text-anchor="middle" x="81.24" y="-14.3" font-family="Helvetica" font-size="14.00">OutputWorkspace</text>
</g>
<!-- convertToMD&#45;&gt;OutputWorkspace -->
<g id="edge21" class="edge">
<title>convertToMD&#45;&gt;OutputWorkspace</title>
<path fill="none" stroke="black" d="M81.24,-72.81C81.24,-64.79 81.24,-55.05 81.24,-46.07"/>
<polygon fill="black" stroke="black" points="84.74,-46.03 81.24,-36.03 77.74,-46.03 84.74,-46.03"/>
</g>
<!-- setGoniometer -->
<g id="node13" class="node">
<title>setGoniometer</title>
<path fill="lightskyblue" stroke="black" d="M552.74,-547C552.74,-547 449.74,-547 449.74,-547 443.74,-547 437.74,-541 437.74,-535 437.74,-535 437.74,-523 437.74,-523 437.74,-517 443.74,-511 449.74,-511 449.74,-511 552.74,-511 552.74,-511 558.74,-511 564.74,-517 564.74,-523 564.74,-523 564.74,-535 564.74,-535 564.74,-541 558.74,-547 552.74,-547"/>
<text text-anchor="middle" x="501.24" y="-525.3" font-family="Helvetica" font-size="14.00">SetGoniometer v1</text>
</g>
<!-- setGoniometer&#45;&gt;addSampleLogEFix -->
<g id="edge15" class="edge">
<title>setGoniometer&#45;&gt;addSampleLogEFix</title>
<path fill="none" stroke="black" d="M482.85,-510.81C473.23,-501.83 461.31,-490.69 450.81,-480.89"/>
<polygon fill="black" stroke="black" points="453.17,-478.3 443.47,-474.03 448.39,-483.41 453.17,-478.3"/>
</g>
<!-- addSampleLogEFix&#45;&gt;addSampleLogGl -->
<g id="edge16" class="edge">
<title>addSampleLogEFix&#45;&gt;addSampleLogGl</title>
<path fill="none" stroke="black" d="M407.09,-437.81C397.69,-428.92 386.06,-417.91 375.78,-408.17"/>
<polygon fill="black" stroke="black" points="377.9,-405.36 368.23,-401.03 373.09,-410.45 377.9,-405.36"/>
</g>
<!-- addSampleLogGl&#45;&gt;addSampleLogGs -->
<g id="edge17" class="edge">
<title>addSampleLogGl&#45;&gt;addSampleLogGs</title>
<path fill="none" stroke="black" d="M332.09,-364.81C322.69,-355.92 311.06,-344.91 300.78,-335.17"/>
<polygon fill="black" stroke="black" points="302.9,-332.36 293.23,-328.03 298.09,-337.45 302.9,-332.36"/>
</g>
<!-- addSampleLogGs&#45;&gt;addSampleLogPsi -->
<g id="edge18" class="edge">
<title>addSampleLogGs&#45;&gt;addSampleLogPsi</title>
<path fill="none" stroke="black" d="M257.09,-291.81C247.69,-282.92 236.06,-271.91 225.78,-262.17"/>
<polygon fill="black" stroke="black" points="227.9,-259.36 218.23,-255.03 223.09,-264.45 227.9,-259.36"/>
</g>
<!-- addSampleLogPsi&#45;&gt;convertToMDMinMaxGlobal -->
<g id="edge19" class="edge">
<title>addSampleLogPsi&#45;&gt;convertToMDMinMaxGlobal</title>
<path fill="none" stroke="black" d="M200.24,-218.81C200.24,-210.79 200.24,-201.05 200.24,-192.07"/>
<polygon fill="black" stroke="black" points="203.74,-192.03 200.24,-182.03 196.74,-192.03 203.74,-192.03"/>
</g>
<!-- load&#45;&gt;setUB -->
<g id="edge13" class="edge">
<title>load&#45;&gt;setUB</title>
<path fill="none" stroke="black" d="M661.74,-660.69C658.53,-659.42 655.33,-658.18 652.24,-657 617.53,-643.77 577.99,-629.67 548.08,-619.19"/>
<polygon fill="black" stroke="black" points="548.92,-615.78 538.32,-615.78 546.61,-622.38 548.92,-615.78"/>
</g>
<!-- setUB&#45;&gt;setGoniometer -->
<g id="edge14" class="edge">
<title>setUB&#45;&gt;setGoniometer</title>
<path fill="none" stroke="black" d="M501.24,-583.81C501.24,-575.79 501.24,-566.05 501.24,-557.07"/>
<polygon fill="black" stroke="black" points="504.74,-557.03 501.24,-547.03 497.74,-557.03 504.74,-557.03"/>
</g>
<!-- convertToMDMinMaxGlobal&#45;&gt;convertToMD -->
<g id="edge20" class="edge">
<title>convertToMDMinMaxGlobal&#45;&gt;convertToMD</title>
<path fill="none" stroke="black" d="M171.74,-145.99C155.81,-136.49 135.78,-124.54 118.61,-114.29"/>
<polygon fill="black" stroke="black" points="120.31,-111.23 109.93,-109.11 116.72,-117.24 120.31,-111.23"/>
</g>
</g>
</svg>
