<?xml version="1.0" encoding="UTF-8" standalone="no"?>
<!DOCTYPE svg PUBLIC "-//W3C//DTD SVG 1.1//EN"
 "http://www.w3.org/Graphics/SVG/1.1/DTD/svg11.dtd">
<!-- Generated by graphviz version 2.47.2 (20210527.1257)
 -->
<!-- Title: CutMD Pages: 1 -->
<svg width="517pt" height="446pt"
 viewBox="0.00 0.00 517.49 446.00" xmlns="http://www.w3.org/2000/svg" xmlns:xlink="http://www.w3.org/1999/xlink">
<g id="graph0" class="graph" transform="scale(1 1) rotate(0) translate(4 442)">
<title>CutMD</title>
<polygon fill="white" stroke="transparent" points="-4,4 -4,-442 513.49,-442 513.49,4 -4,4"/>
<text text-anchor="middle" x="254.74" y="-422.8" font-family="Helvetica" font-size="14.00">CutMD Flowchart</text>
<!-- Projection -->
<g id="node1" class="node">
<title>Projection</title>
<ellipse fill="khaki" stroke="black" cx="50.05" cy="-397" rx="50.09" ry="18"/>
<text text-anchor="middle" x="50.05" y="-393.3" font-family="Helvetica" font-size="14.00">Projection</text>
</g>
<!-- scale -->
<g id="node9" class="node">
<title>scale</title>
<polygon fill="lightseagreen" stroke="black" points="356.55,-342 27.55,-342 27.55,-306 356.55,-306 356.55,-342"/>
<text text-anchor="middle" x="192.05" y="-320.3" font-family="Helvetica" font-size="14.00">Scale between rlu and inverse angstroms if required</text>
</g>
<!-- Projection&#45;&gt;scale -->
<g id="edge1" class="edge">
<title>Projection&#45;&gt;scale</title>
<path fill="none" stroke="black" d="M78.1,-381.97C98.28,-371.89 125.86,-358.09 148.84,-346.6"/>
<polygon fill="black" stroke="black" points="150.66,-349.61 158.04,-342 147.53,-343.35 150.66,-349.61"/>
</g>
<!-- OutputWorkspace -->
<g id="node2" class="node">
<title>OutputWorkspace</title>
<ellipse fill="khaki" stroke="black" cx="281.05" cy="-18" rx="81.49" ry="18"/>
<text text-anchor="middle" x="281.05" y="-14.3" font-family="Helvetica" font-size="14.00">OutputWorkspace</text>
</g>
<!-- InputWorkspace -->
<g id="node3" class="node">
<title>InputWorkspace</title>
<ellipse fill="khaki" stroke="black" cx="192.05" cy="-397" rx="74.19" ry="18"/>
<text text-anchor="middle" x="192.05" y="-393.3" font-family="Helvetica" font-size="14.00">InputWorkspace</text>
</g>
<!-- InputWorkspace&#45;&gt;scale -->
<g id="edge4" class="edge">
<title>InputWorkspace&#45;&gt;scale</title>
<path fill="none" stroke="black" d="M192.05,-378.81C192.05,-370.79 192.05,-361.05 192.05,-352.07"/>
<polygon fill="black" stroke="black" points="195.55,-352.03 192.05,-342.03 188.55,-352.03 195.55,-352.03"/>
</g>
<!-- NoPix -->
<g id="node4" class="node">
<title>NoPix</title>
<ellipse fill="khaki" stroke="black" cx="371.05" cy="-251" rx="34.39" ry="18"/>
<text text-anchor="middle" x="371.05" y="-247.3" font-family="Helvetica" font-size="14.00">NoPix</text>
</g>
<!-- noPixQuestion -->
<g id="node8" class="node">
<title>noPixQuestion</title>
<polygon fill="limegreen" stroke="black" points="281.05,-196 225.75,-178 281.05,-160 336.34,-178 281.05,-196"/>
<text text-anchor="middle" x="281.05" y="-174.3" font-family="Helvetica" font-size="14.00">NoPix?</text>
</g>
<!-- NoPix&#45;&gt;noPixQuestion -->
<g id="edge3" class="edge">
<title>NoPix&#45;&gt;noPixQuestion</title>
<path fill="none" stroke="black" d="M352.83,-235.63C338.88,-224.62 319.52,-209.35 304.42,-197.44"/>
<polygon fill="black" stroke="black" points="306.55,-194.66 296.53,-191.22 302.22,-200.16 306.55,-194.66"/>
</g>
<!-- InterpretQDimensionUnits -->
<g id="node5" class="node">
<title>InterpretQDimensionUnits</title>
<ellipse fill="khaki" stroke="black" cx="397.05" cy="-397" rx="112.38" ry="18"/>
<text text-anchor="middle" x="397.05" y="-393.3" font-family="Helvetica" font-size="14.00">InterpretQDimensionUnits</text>
</g>
<!-- InterpretQDimensionUnits&#45;&gt;scale -->
<g id="edge2" class="edge">
<title>InterpretQDimensionUnits&#45;&gt;scale</title>
<path fill="none" stroke="black" d="M352.06,-380.42C322.36,-370.13 283.15,-356.55 250.97,-345.41"/>
<polygon fill="black" stroke="black" points="251.83,-342 241.23,-342.04 249.54,-348.62 251.83,-342"/>
</g>
<!-- sliceMD -->
<g id="node6" class="node">
<title>sliceMD</title>
<path fill="lightskyblue" stroke="black" d="M362.05,-109C362.05,-109 300.05,-109 300.05,-109 294.05,-109 288.05,-103 288.05,-97 288.05,-97 288.05,-85 288.05,-85 288.05,-79 294.05,-73 300.05,-73 300.05,-73 362.05,-73 362.05,-73 368.05,-73 374.05,-79 374.05,-85 374.05,-85 374.05,-97 374.05,-97 374.05,-103 368.05,-109 362.05,-109"/>
<text text-anchor="middle" x="331.05" y="-87.3" font-family="Helvetica" font-size="14.00">SliceMD v1</text>
</g>
<!-- sliceMD&#45;&gt;OutputWorkspace -->
<g id="edge9" class="edge">
<title>sliceMD&#45;&gt;OutputWorkspace</title>
<path fill="none" stroke="black" d="M318.94,-72.81C312.92,-64.27 305.53,-53.77 298.88,-44.32"/>
<polygon fill="black" stroke="black" points="301.66,-42.19 293.04,-36.03 295.93,-46.22 301.66,-42.19"/>
</g>
<!-- binMD -->
<g id="node7" class="node">
<title>binMD</title>
<path fill="lightskyblue" stroke="black" d="M258.05,-109C258.05,-109 206.05,-109 206.05,-109 200.05,-109 194.05,-103 194.05,-97 194.05,-97 194.05,-85 194.05,-85 194.05,-79 200.05,-73 206.05,-73 206.05,-73 258.05,-73 258.05,-73 264.05,-73 270.05,-79 270.05,-85 270.05,-85 270.05,-97 270.05,-97 270.05,-103 264.05,-109 258.05,-109"/>
<text text-anchor="middle" x="232.05" y="-87.3" font-family="Helvetica" font-size="14.00">BinMD v1</text>
</g>
<!-- binMD&#45;&gt;OutputWorkspace -->
<g id="edge10" class="edge">
<title>binMD&#45;&gt;OutputWorkspace</title>
<path fill="none" stroke="black" d="M243.91,-72.81C249.81,-64.27 257.05,-53.77 263.57,-44.32"/>
<polygon fill="black" stroke="black" points="266.49,-46.25 269.29,-36.03 260.73,-42.27 266.49,-46.25"/>
</g>
<!-- noPixQuestion&#45;&gt;sliceMD -->
<g id="edge8" class="edge">
<title>noPixQuestion&#45;&gt;sliceMD</title>
<path fill="none" stroke="black" d="M289.53,-162.58C296.73,-150.34 307.23,-132.48 315.87,-117.79"/>
<polygon fill="black" stroke="black" points="318.92,-119.52 320.97,-109.13 312.88,-115.98 318.92,-119.52"/>
<text text-anchor="middle" x="318.05" y="-130.8" font-family="Helvetica" font-size="14.00">No</text>
</g>
<!-- noPixQuestion&#45;&gt;binMD -->
<g id="edge7" class="edge">
<title>noPixQuestion&#45;&gt;binMD</title>
<path fill="none" stroke="black" d="M272.73,-162.58C265.75,-150.46 255.58,-132.82 247.15,-118.21"/>
<polygon fill="black" stroke="black" points="249.95,-116.05 241.92,-109.13 243.88,-119.54 249.95,-116.05"/>
<text text-anchor="middle" x="271.55" y="-130.8" font-family="Helvetica" font-size="14.00">Yes</text>
</g>
<!-- extents -->
<g id="node10" class="node">
<title>extents</title>
<polygon fill="lightseagreen" stroke="black" points="319.05,-269 65.05,-269 65.05,-233 319.05,-233 319.05,-269"/>
<text text-anchor="middle" x="192.05" y="-247.3" font-family="Helvetica" font-size="14.00">Calculate extents of the new workspace</text>
</g>
<!-- scale&#45;&gt;extents -->
<g id="edge5" class="edge">
<title>scale&#45;&gt;extents</title>
<path fill="none" stroke="black" d="M192.05,-305.81C192.05,-297.79 192.05,-288.05 192.05,-279.07"/>
<polygon fill="black" stroke="black" points="195.55,-279.03 192.05,-269.03 188.55,-279.03 195.55,-279.03"/>
</g>
<!-- extents&#45;&gt;noPixQuestion -->
<g id="edge6" class="edge">
<title>extents&#45;&gt;noPixQuestion</title>
<path fill="none" stroke="black" d="M213.59,-232.81C226.97,-222.14 244.16,-208.43 257.83,-197.52"/>
<polygon fill="black" stroke="black" points="260.2,-200.11 265.83,-191.14 255.83,-194.64 260.2,-200.11"/>
</g>
</g>
</svg>
