<?xml version="1.0" encoding="UTF-8" standalone="no"?>
<!DOCTYPE svg PUBLIC "-//W3C//DTD SVG 1.1//EN"
 "http://www.w3.org/Graphics/SVG/1.1/DTD/svg11.dtd">
<!-- Generated by graphviz version 3.0.0 (20220315.2325)
 -->
<!-- Title: CutMD Pages: 1 -->
<svg width="579pt" height="446pt"
 viewBox="0.00 0.00 579.28 446.00" xmlns="http://www.w3.org/2000/svg" xmlns:xlink="http://www.w3.org/1999/xlink">
<g id="graph0" class="graph" transform="scale(1 1) rotate(0) translate(4 442)">
<title>CutMD</title>
<polygon fill="white" stroke="transparent" points="-4,4 -4,-442 575.28,-442 575.28,4 -4,4"/>
<text text-anchor="middle" x="285.64" y="-422.8" font-family="Helvetica,sans-Serif" font-size="14.00">CutMD Flowchart</text>
<!-- Projection -->
<g id="node1" class="node">
<title>Projection</title>
<ellipse fill="khaki" stroke="black" cx="54.6" cy="-397" rx="54.69" ry="18"/>
<text text-anchor="middle" x="54.6" y="-393.3" font-family="Helvetica,sans-Serif" font-size="14.00">Projection</text>
</g>
<!-- scale -->
<g id="node9" class="node">
<title>scale</title>
<polygon fill="lightseagreen" stroke="black" points="401.6,-342 21.6,-342 21.6,-306 401.6,-306 401.6,-342"/>
<text text-anchor="middle" x="211.6" y="-320.3" font-family="Helvetica,sans-Serif" font-size="14.00">Scale between rlu and inverse angstroms if required</text>
</g>
<!-- Projection&#45;&gt;scale -->
<g id="edge1" class="edge">
<title>Projection&#45;&gt;scale</title>
<path fill="none" stroke="black" d="M85.61,-381.97C108.22,-371.75 139.23,-357.72 164.83,-346.15"/>
<polygon fill="black" stroke="black" points="166.33,-349.31 174,-342 163.44,-342.93 166.33,-349.31"/>
</g>
<!-- OutputWorkspace -->
<g id="node2" class="node">
<title>OutputWorkspace</title>
<ellipse fill="khaki" stroke="black" cx="310.6" cy="-18" rx="92.08" ry="18"/>
<text text-anchor="middle" x="310.6" y="-14.3" font-family="Helvetica,sans-Serif" font-size="14.00">OutputWorkspace</text>
</g>
<!-- InputWorkspace -->
<g id="node3" class="node">
<title>InputWorkspace</title>
<ellipse fill="khaki" stroke="black" cx="211.6" cy="-397" rx="84.49" ry="18"/>
<text text-anchor="middle" x="211.6" y="-393.3" font-family="Helvetica,sans-Serif" font-size="14.00">InputWorkspace</text>
</g>
<!-- InputWorkspace&#45;&gt;scale -->
<g id="edge4" class="edge">
<title>InputWorkspace&#45;&gt;scale</title>
<path fill="none" stroke="black" d="M211.6,-378.81C211.6,-370.79 211.6,-361.05 211.6,-352.07"/>
<polygon fill="black" stroke="black" points="215.1,-352.03 211.6,-342.03 208.1,-352.03 215.1,-352.03"/>
</g>
<!-- NoPix -->
<g id="node4" class="node">
<title>NoPix</title>
<ellipse fill="khaki" stroke="black" cx="412.6" cy="-251" rx="36.29" ry="18"/>
<text text-anchor="middle" x="412.6" y="-247.3" font-family="Helvetica,sans-Serif" font-size="14.00">NoPix</text>
</g>
<!-- noPixQuestion -->
<g id="node8" class="node">
<title>noPixQuestion</title>
<polygon fill="limegreen" stroke="black" points="311.6,-196 253.78,-178 311.6,-160 369.41,-178 311.6,-196"/>
<text text-anchor="middle" x="311.6" y="-174.3" font-family="Helvetica,sans-Serif" font-size="14.00">NoPix?</text>
</g>
<!-- NoPix&#45;&gt;noPixQuestion -->
<g id="edge3" class="edge">
<title>NoPix&#45;&gt;noPixQuestion</title>
<path fill="none" stroke="black" d="M392.16,-235.63C376.25,-224.45 354.1,-208.88 337.04,-196.89"/>
<polygon fill="black" stroke="black" points="338.84,-193.88 328.65,-190.99 334.82,-199.6 338.84,-193.88"/>
</g>
<!-- InterpretQDimensionUnits -->
<g id="node5" class="node">
<title>InterpretQDimensionUnits</title>
<ellipse fill="khaki" stroke="black" cx="442.6" cy="-397" rx="128.88" ry="18"/>
<text text-anchor="middle" x="442.6" y="-393.3" font-family="Helvetica,sans-Serif" font-size="14.00">InterpretQDimensionUnits</text>
</g>
<!-- InterpretQDimensionUnits&#45;&gt;scale -->
<g id="edge2" class="edge">
<title>InterpretQDimensionUnits&#45;&gt;scale</title>
<path fill="none" stroke="black" d="M391.9,-380.42C358.01,-370 313.11,-356.2 276.59,-344.98"/>
<polygon fill="black" stroke="black" points="277.61,-341.63 267.02,-342.04 275.55,-348.32 277.61,-341.63"/>
</g>
<!-- sliceMD -->
<g id="node6" class="node">
<title>sliceMD</title>
<path fill="lightskyblue" stroke="black" d="M399.1,-109C399.1,-109 330.1,-109 330.1,-109 324.1,-109 318.1,-103 318.1,-97 318.1,-97 318.1,-85 318.1,-85 318.1,-79 324.1,-73 330.1,-73 330.1,-73 399.1,-73 399.1,-73 405.1,-73 411.1,-79 411.1,-85 411.1,-85 411.1,-97 411.1,-97 411.1,-103 405.1,-109 399.1,-109"/>
<text text-anchor="middle" x="364.6" y="-87.3" font-family="Helvetica,sans-Serif" font-size="14.00">SliceMD v1</text>
</g>
<!-- sliceMD&#45;&gt;OutputWorkspace -->
<g id="edge9" class="edge">
<title>sliceMD&#45;&gt;OutputWorkspace</title>
<path fill="none" stroke="black" d="M351.52,-72.81C344.96,-64.18 336.88,-53.56 329.64,-44.03"/>
<polygon fill="black" stroke="black" points="332.39,-41.87 323.55,-36.03 326.81,-46.11 332.39,-41.87"/>
</g>
<!-- binMD -->
<g id="node7" class="node">
<title>binMD</title>
<path fill="lightskyblue" stroke="black" d="M288.1,-109C288.1,-109 229.1,-109 229.1,-109 223.1,-109 217.1,-103 217.1,-97 217.1,-97 217.1,-85 217.1,-85 217.1,-79 223.1,-73 229.1,-73 229.1,-73 288.1,-73 288.1,-73 294.1,-73 300.1,-79 300.1,-85 300.1,-85 300.1,-97 300.1,-97 300.1,-103 294.1,-109 288.1,-109"/>
<text text-anchor="middle" x="258.6" y="-87.3" font-family="Helvetica,sans-Serif" font-size="14.00">BinMD v1</text>
</g>
<!-- binMD&#45;&gt;OutputWorkspace -->
<g id="edge10" class="edge">
<title>binMD&#45;&gt;OutputWorkspace</title>
<path fill="none" stroke="black" d="M271.18,-72.81C277.44,-64.27 285.13,-53.77 292.05,-44.32"/>
<polygon fill="black" stroke="black" points="295.04,-46.16 298.12,-36.03 289.39,-42.03 295.04,-46.16"/>
</g>
<!-- noPixQuestion&#45;&gt;sliceMD -->
<g id="edge8" class="edge">
<title>noPixQuestion&#45;&gt;sliceMD</title>
<path fill="none" stroke="black" d="M320.59,-162.58C328.22,-150.34 339.35,-132.48 348.51,-117.79"/>
<polygon fill="black" stroke="black" points="351.59,-119.47 353.91,-109.13 345.65,-115.76 351.59,-119.47"/>
<text text-anchor="middle" x="351.1" y="-130.8" font-family="Helvetica,sans-Serif" font-size="14.00">No</text>
</g>
<!-- noPixQuestion&#45;&gt;binMD -->
<g id="edge7" class="edge">
<title>noPixQuestion&#45;&gt;binMD</title>
<path fill="none" stroke="black" d="M302.6,-162.58C294.97,-150.34 283.84,-132.48 274.68,-117.79"/>
<polygon fill="black" stroke="black" points="277.54,-115.76 269.28,-109.13 271.6,-119.47 277.54,-115.76"/>
<text text-anchor="middle" x="300.1" y="-130.8" font-family="Helvetica,sans-Serif" font-size="14.00">Yes</text>
</g>
<!-- extents -->
<g id="node10" class="node">
<title>extents</title>
<polygon fill="lightseagreen" stroke="black" points="358.1,-269 65.1,-269 65.1,-233 358.1,-233 358.1,-269"/>
<text text-anchor="middle" x="211.6" y="-247.3" font-family="Helvetica,sans-Serif" font-size="14.00">Calculate extents of the new workspace</text>
</g>
<!-- scale&#45;&gt;extents -->
<g id="edge5" class="edge">
<title>scale&#45;&gt;extents</title>
<path fill="none" stroke="black" d="M211.6,-305.81C211.6,-297.79 211.6,-288.05 211.6,-279.07"/>
<polygon fill="black" stroke="black" points="215.1,-279.03 211.6,-269.03 208.1,-279.03 215.1,-279.03"/>
</g>
<!-- extents&#45;&gt;noPixQuestion -->
<g id="edge6" class="edge">
<title>extents&#45;&gt;noPixQuestion</title>
<path fill="none" stroke="black" d="M235.55,-232.99C250.95,-222.06 270.94,-207.87 286.55,-196.78"/>
<polygon fill="black" stroke="black" points="288.59,-199.62 294.72,-190.98 284.54,-193.92 288.59,-199.62"/>
</g>
</g>
</svg>
