<?xml version="1.0" encoding="UTF-8" standalone="no"?>
<!DOCTYPE svg PUBLIC "-//W3C//DTD SVG 1.1//EN"
 "http://www.w3.org/Graphics/SVG/1.1/DTD/svg11.dtd">
<!-- Generated by graphviz version 2.47.2 (20210527.1257)
 -->
<!-- Title: Sample Pages: 1 -->
<svg width="726pt" height="980pt"
 viewBox="0.00 0.00 726.01 980.00" xmlns="http://www.w3.org/2000/svg" xmlns:xlink="http://www.w3.org/1999/xlink">
<g id="graph0" class="graph" transform="scale(1 1) rotate(0) translate(4 976)">
<title>Sample</title>
<polygon fill="white" stroke="transparent" points="-4,4 -4,-976 722.01,-976 722.01,4 -4,4"/>
<!-- ExportAscii -->
<g id="node1" class="node">
<title>ExportAscii</title>
<polygon fill="limegreen" stroke="black" points="583.64,-108 506.22,-90 583.64,-72 661.06,-90 583.64,-108"/>
<text text-anchor="middle" x="583.64" y="-86.3" font-family="Helvetica" font-size="14.00">ExportAscii</text>
</g>
<!-- SaveAscii -->
<g id="node19" class="node">
<title>SaveAscii</title>
<path fill="lightskyblue" stroke="black" d="M609.64,-36C609.64,-36 557.64,-36 557.64,-36 551.64,-36 545.64,-30 545.64,-24 545.64,-24 545.64,-12 545.64,-12 545.64,-6 551.64,0 557.64,0 557.64,0 609.64,0 609.64,0 615.64,0 621.64,-6 621.64,-12 621.64,-12 621.64,-24 621.64,-24 621.64,-30 615.64,-36 609.64,-36"/>
<text text-anchor="middle" x="583.64" y="-14.3" font-family="Helvetica" font-size="14.00">SaveAscii</text>
</g>
<!-- ExportAscii&#45;&gt;SaveAscii -->
<g id="edge23" class="edge">
<title>ExportAscii&#45;&gt;SaveAscii</title>
<path fill="none" stroke="black" d="M583.64,-71.7C583.64,-63.98 583.64,-54.71 583.64,-46.11"/>
<polygon fill="black" stroke="black" points="587.14,-46.1 583.64,-36.1 580.14,-46.1 587.14,-46.1"/>
</g>
<!-- CorrectDeadTime -->
<g id="node2" class="node">
<title>CorrectDeadTime</title>
<polygon fill="limegreen" stroke="black" points="571.64,-756 457.69,-738 571.64,-720 685.59,-738 571.64,-756"/>
<text text-anchor="middle" x="571.64" y="-734.3" font-family="Helvetica" font-size="14.00">CorrectDeadTime</text>
</g>
<!-- CorrectBankPositions -->
<g id="node3" class="node">
<title>CorrectBankPositions</title>
<polygon fill="limegreen" stroke="black" points="544.64,-612 410.25,-594 544.64,-576 679.03,-594 544.64,-612"/>
<text text-anchor="middle" x="544.64" y="-590.3" font-family="Helvetica" font-size="14.00">CorrectBankPositions</text>
</g>
<!-- CorrectDeadTime&#45;&gt;CorrectBankPositions -->
<g id="edge9" class="edge">
<title>CorrectDeadTime&#45;&gt;CorrectBankPositions</title>
<path fill="none" stroke="black" d="M580.61,-721.17C589.65,-703.07 601.03,-672.73 591.64,-648 587.19,-636.26 578.81,-625.46 570.35,-616.71"/>
<polygon fill="black" stroke="black" points="572.6,-614.02 562.99,-609.58 567.73,-619.05 572.6,-614.02"/>
</g>
<!-- DeadTimeCorrection -->
<g id="node15" class="node">
<title>DeadTimeCorrection</title>
<path fill="lightskyblue" stroke="black" d="M570.64,-684C570.64,-684 452.64,-684 452.64,-684 446.64,-684 440.64,-678 440.64,-672 440.64,-672 440.64,-660 440.64,-660 440.64,-654 446.64,-648 452.64,-648 452.64,-648 570.64,-648 570.64,-648 576.64,-648 582.64,-654 582.64,-660 582.64,-660 582.64,-672 582.64,-672 582.64,-678 576.64,-684 570.64,-684"/>
<text text-anchor="middle" x="511.64" y="-662.3" font-family="Helvetica" font-size="14.00">DeadTimeCorrection</text>
</g>
<!-- CorrectDeadTime&#45;&gt;DeadTimeCorrection -->
<g id="edge7" class="edge">
<title>CorrectDeadTime&#45;&gt;DeadTimeCorrection</title>
<path fill="none" stroke="black" d="M558.62,-721.81C551.12,-713.05 541.49,-701.83 532.92,-691.82"/>
<polygon fill="black" stroke="black" points="535.49,-689.44 526.32,-684.13 530.17,-694 535.49,-689.44"/>
</g>
<!-- CorrectRelativeEfficiencies -->
<g id="node4" class="node">
<title>CorrectRelativeEfficiencies</title>
<polygon fill="limegreen" stroke="black" points="521.64,-468 357.92,-450 521.64,-432 685.36,-450 521.64,-468"/>
<text text-anchor="middle" x="521.64" y="-446.3" font-family="Helvetica" font-size="14.00">CorrectRelativeEfficiencies</text>
</g>
<!-- CorrectBankPositions&#45;&gt;CorrectRelativeEfficiencies -->
<g id="edge14" class="edge">
<title>CorrectBankPositions&#45;&gt;CorrectRelativeEfficiencies</title>
<path fill="none" stroke="black" d="M541.91,-576.15C537.99,-551.92 530.71,-506.96 526.02,-478.05"/>
<polygon fill="black" stroke="black" points="529.42,-477.14 524.37,-467.82 522.51,-478.26 529.42,-477.14"/>
</g>
<!-- RotateInstrumentComponent -->
<g id="node16" class="node">
<title>RotateInstrumentComponent</title>
<path fill="lightskyblue" stroke="black" d="M441.14,-540C441.14,-540 274.14,-540 274.14,-540 268.14,-540 262.14,-534 262.14,-528 262.14,-528 262.14,-516 262.14,-516 262.14,-510 268.14,-504 274.14,-504 274.14,-504 441.14,-504 441.14,-504 447.14,-504 453.14,-510 453.14,-516 453.14,-516 453.14,-528 453.14,-528 453.14,-534 447.14,-540 441.14,-540"/>
<text text-anchor="middle" x="357.64" y="-518.3" font-family="Helvetica" font-size="14.00">RotateInstrumentComponent</text>
</g>
<!-- CorrectBankPositions&#45;&gt;RotateInstrumentComponent -->
<g id="edge10" class="edge">
<title>CorrectBankPositions&#45;&gt;RotateInstrumentComponent</title>
<path fill="none" stroke="black" d="M510.78,-580.32C483.5,-570.11 444.59,-555.55 412.83,-543.66"/>
<polygon fill="black" stroke="black" points="413.81,-540.29 403.22,-540.06 411.35,-546.84 413.81,-540.29"/>
</g>
<!-- Divide -->
<g id="node17" class="node">
<title>Divide</title>
<path fill="lightskyblue" stroke="black" d="M536.64,-396C536.64,-396 506.64,-396 506.64,-396 500.64,-396 494.64,-390 494.64,-384 494.64,-384 494.64,-372 494.64,-372 494.64,-366 500.64,-360 506.64,-360 506.64,-360 536.64,-360 536.64,-360 542.64,-360 548.64,-366 548.64,-372 548.64,-372 548.64,-384 548.64,-384 548.64,-390 542.64,-396 536.64,-396"/>
<text text-anchor="middle" x="521.64" y="-374.3" font-family="Helvetica" font-size="14.00">Divide</text>
</g>
<!-- CorrectRelativeEfficiencies&#45;&gt;Divide -->
<g id="edge15" class="edge">
<title>CorrectRelativeEfficiencies&#45;&gt;Divide</title>
<path fill="none" stroke="black" d="M521.64,-431.7C521.64,-423.98 521.64,-414.71 521.64,-406.11"/>
<polygon fill="black" stroke="black" points="525.14,-406.1 521.64,-396.1 518.14,-406.1 525.14,-406.1"/>
</g>
<!-- Normalise -->
<g id="node5" class="node">
<title>Normalise</title>
<polygon fill="limegreen" stroke="black" points="617.64,-324 545.75,-306 617.64,-288 689.53,-306 617.64,-324"/>
<text text-anchor="middle" x="617.64" y="-302.3" font-family="Helvetica" font-size="14.00">Normalise</text>
</g>
<!-- OutputWorkspace -->
<g id="node11" class="node">
<title>OutputWorkspace</title>
<polygon fill="grey" stroke="black" points="717.87,-180 504.34,-180 449.41,-144 662.94,-144 717.87,-180"/>
<text text-anchor="middle" x="583.64" y="-158.3" font-family="Times-Roman" font-size="14.00">OutputWorkspace</text>
</g>
<!-- Normalise&#45;&gt;OutputWorkspace -->
<g id="edge21" class="edge">
<title>Normalise&#45;&gt;OutputWorkspace</title>
<path fill="none" stroke="black" d="M614.46,-288.52C610.92,-270.6 604.88,-241.15 598.64,-216 596.51,-207.42 593.97,-198.13 591.58,-189.76"/>
<polygon fill="black" stroke="black" points="594.93,-188.74 588.79,-180.11 588.21,-190.69 594.93,-188.74"/>
</g>
<!-- Divide2 -->
<g id="node18" class="node">
<title>Divide2</title>
<path fill="lightskyblue" stroke="black" d="M577.64,-252C577.64,-252 523.64,-252 523.64,-252 517.64,-252 511.64,-246 511.64,-240 511.64,-240 511.64,-228 511.64,-228 511.64,-222 517.64,-216 523.64,-216 523.64,-216 577.64,-216 577.64,-216 583.64,-216 589.64,-222 589.64,-228 589.64,-228 589.64,-240 589.64,-240 589.64,-246 583.64,-252 577.64,-252"/>
<text text-anchor="middle" x="550.64" y="-230.3" font-family="Helvetica" font-size="14.00">Normalise</text>
</g>
<!-- Normalise&#45;&gt;Divide2 -->
<g id="edge18" class="edge">
<title>Normalise&#45;&gt;Divide2</title>
<path fill="none" stroke="black" d="M604.4,-291.17C595.75,-282.13 584.21,-270.07 574.03,-259.44"/>
<polygon fill="black" stroke="black" points="576.37,-256.82 566.93,-252.02 571.32,-261.66 576.37,-256.82"/>
</g>
<!-- Runs -->
<g id="node6" class="node">
<title>Runs</title>
<ellipse fill="khaki" stroke="black" cx="505.64" cy="-954" rx="31.4" ry="18"/>
<text text-anchor="middle" x="505.64" y="-950.3" font-family="Helvetica" font-size="14.00">Runs</text>
</g>
<!-- LoadAndMerge -->
<g id="node12" class="node">
<title>LoadAndMerge</title>
<path fill="lightskyblue" stroke="black" d="M548.64,-900C548.64,-900 462.64,-900 462.64,-900 456.64,-900 450.64,-894 450.64,-888 450.64,-888 450.64,-876 450.64,-876 450.64,-870 456.64,-864 462.64,-864 462.64,-864 548.64,-864 548.64,-864 554.64,-864 560.64,-870 560.64,-876 560.64,-876 560.64,-888 560.64,-888 560.64,-894 554.64,-900 548.64,-900"/>
<text text-anchor="middle" x="505.64" y="-878.3" font-family="Helvetica" font-size="14.00">LoadAndMerge</text>
</g>
<!-- Runs&#45;&gt;LoadAndMerge -->
<g id="edge1" class="edge">
<title>Runs&#45;&gt;LoadAndMerge</title>
<path fill="none" stroke="black" d="M505.64,-935.7C505.64,-927.98 505.64,-918.71 505.64,-910.11"/>
<polygon fill="black" stroke="black" points="509.14,-910.1 505.64,-900.1 502.14,-910.1 509.14,-910.1"/>
</g>
<!-- BankPositionOffsetsFile -->
<g id="node7" class="node">
<title>BankPositionOffsetsFile</title>
<ellipse fill="khaki" stroke="black" cx="104.64" cy="-594" rx="104.78" ry="18"/>
<text text-anchor="middle" x="104.64" y="-590.3" font-family="Helvetica" font-size="14.00">BankPositionOffsetsFile</text>
</g>
<!-- BankPositionOffsetsFile&#45;&gt;RotateInstrumentComponent -->
<g id="edge11" class="edge">
<title>BankPositionOffsetsFile&#45;&gt;RotateInstrumentComponent</title>
<path fill="none" stroke="black" d="M157.37,-578.41C194.78,-568.06 245.41,-554.05 286.4,-542.71"/>
<polygon fill="black" stroke="black" points="287.36,-546.08 296.07,-540.04 285.5,-539.33 287.36,-546.08"/>
</g>
<!-- ZeroPositionAngle -->
<g id="node8" class="node">
<title>ZeroPositionAngle</title>
<ellipse fill="khaki" stroke="black" cx="309.64" cy="-594" rx="82.59" ry="18"/>
<text text-anchor="middle" x="309.64" y="-590.3" font-family="Helvetica" font-size="14.00">ZeroPositionAngle</text>
</g>
<!-- ZeroPositionAngle&#45;&gt;RotateInstrumentComponent -->
<g id="edge12" class="edge">
<title>ZeroPositionAngle&#45;&gt;RotateInstrumentComponent</title>
<path fill="none" stroke="black" d="M321.26,-576.05C326.9,-567.84 333.78,-557.79 340.05,-548.66"/>
<polygon fill="black" stroke="black" points="343.03,-550.5 345.79,-540.28 337.25,-546.54 343.03,-550.5"/>
</g>
<!-- EfficiencyCalibrationFile -->
<g id="node9" class="node">
<title>EfficiencyCalibrationFile</title>
<ellipse fill="khaki" stroke="black" cx="235.64" cy="-450" rx="104.78" ry="18"/>
<text text-anchor="middle" x="235.64" y="-446.3" font-family="Helvetica" font-size="14.00">EfficiencyCalibrationFile</text>
</g>
<!-- EfficiencyCalibrationFile&#45;&gt;Divide -->
<g id="edge16" class="edge">
<title>EfficiencyCalibrationFile&#45;&gt;Divide</title>
<path fill="none" stroke="black" d="M293.17,-434.92C350.28,-420.94 436.11,-399.93 484.68,-388.05"/>
<polygon fill="black" stroke="black" points="485.58,-391.43 494.46,-385.65 483.91,-384.63 485.58,-391.43"/>
</g>
<!-- NormalisationStandard -->
<g id="node10" class="node">
<title>NormalisationStandard</title>
<ellipse fill="khaki" stroke="black" cx="427.64" cy="-306" rx="100.98" ry="18"/>
<text text-anchor="middle" x="427.64" y="-302.3" font-family="Helvetica" font-size="14.00">NormalisationStandard</text>
</g>
<!-- NormalisationStandard&#45;&gt;Divide2 -->
<g id="edge19" class="edge">
<title>NormalisationStandard&#45;&gt;Divide2</title>
<path fill="none" stroke="black" d="M456.48,-288.59C472.93,-279.23 493.76,-267.37 511.65,-257.19"/>
<polygon fill="black" stroke="black" points="513.74,-260.03 520.7,-252.04 510.28,-253.94 513.74,-260.03"/>
</g>
<!-- OutputWorkspace&#45;&gt;ExportAscii -->
<g id="edge22" class="edge">
<title>OutputWorkspace&#45;&gt;ExportAscii</title>
<path fill="none" stroke="black" d="M583.64,-143.7C583.64,-135.98 583.64,-126.71 583.64,-118.11"/>
<polygon fill="black" stroke="black" points="587.14,-118.1 583.64,-108.1 580.14,-118.1 587.14,-118.1"/>
</g>
<!-- LoadILLDiffraction -->
<g id="node13" class="node">
<title>LoadILLDiffraction</title>
<path fill="lightskyblue" stroke="black" d="M556.64,-828C556.64,-828 454.64,-828 454.64,-828 448.64,-828 442.64,-822 442.64,-816 442.64,-816 442.64,-804 442.64,-804 442.64,-798 448.64,-792 454.64,-792 454.64,-792 556.64,-792 556.64,-792 562.64,-792 568.64,-798 568.64,-804 568.64,-804 568.64,-816 568.64,-816 568.64,-822 562.64,-828 556.64,-828"/>
<text text-anchor="middle" x="505.64" y="-806.3" font-family="Helvetica" font-size="14.00">LoadILLDiffraction</text>
</g>
<!-- LoadAndMerge&#45;&gt;LoadILLDiffraction -->
<g id="edge2" class="edge">
<title>LoadAndMerge&#45;&gt;LoadILLDiffraction</title>
<path fill="none" stroke="black" d="M499.72,-863.7C498.93,-855.98 498.7,-846.71 499.05,-838.11"/>
<polygon fill="black" stroke="black" points="502.54,-838.32 499.75,-828.1 495.56,-837.84 502.54,-838.32"/>
</g>
<!-- ExtractMonitors -->
<g id="node14" class="node">
<title>ExtractMonitors</title>
<path fill="lightskyblue" stroke="black" d="M686.14,-828C686.14,-828 599.14,-828 599.14,-828 593.14,-828 587.14,-822 587.14,-816 587.14,-816 587.14,-804 587.14,-804 587.14,-798 593.14,-792 599.14,-792 599.14,-792 686.14,-792 686.14,-792 692.14,-792 698.14,-798 698.14,-804 698.14,-804 698.14,-816 698.14,-816 698.14,-822 692.14,-828 686.14,-828"/>
<text text-anchor="middle" x="642.64" y="-806.3" font-family="Helvetica" font-size="14.00">ExtractMonitors</text>
</g>
<!-- LoadAndMerge&#45;&gt;ExtractMonitors -->
<g id="edge4" class="edge">
<title>LoadAndMerge&#45;&gt;ExtractMonitors</title>
<path fill="none" stroke="black" d="M539.15,-863.88C557.48,-854.51 580.38,-842.81 599.97,-832.8"/>
<polygon fill="black" stroke="black" points="601.69,-835.86 609,-828.19 598.5,-829.62 601.69,-835.86"/>
</g>
<!-- LoadILLDiffraction&#45;&gt;LoadAndMerge -->
<g id="edge3" class="edge">
<title>LoadILLDiffraction&#45;&gt;LoadAndMerge</title>
<path fill="none" stroke="black" d="M511.54,-828.1C512.34,-835.79 512.58,-845.05 512.24,-853.67"/>
<polygon fill="black" stroke="black" points="508.75,-853.48 511.56,-863.7 515.73,-853.96 508.75,-853.48"/>
</g>
<!-- ExtractMonitors&#45;&gt;CorrectDeadTime -->
<g id="edge5" class="edge">
<title>ExtractMonitors&#45;&gt;CorrectDeadTime</title>
<path fill="none" stroke="black" d="M625.09,-791.7C615.67,-782.41 603.95,-770.86 593.89,-760.94"/>
<polygon fill="black" stroke="black" points="596.17,-758.27 586.59,-753.74 591.25,-763.25 596.17,-758.27"/>
</g>
<!-- ExtractMonitors&#45;&gt;Normalise -->
<g id="edge6" class="edge">
<title>ExtractMonitors&#45;&gt;Normalise</title>
<path fill="none" stroke="black" d="M664.61,-791.79C675.24,-782.33 687.26,-769.74 694.64,-756 713.79,-720.37 713.64,-707.45 713.64,-667 713.64,-667 713.64,-667 713.64,-449 713.64,-398.08 670.75,-351.79 642.31,-326.69"/>
<polygon fill="black" stroke="black" points="644.24,-323.73 634.36,-319.89 639.69,-329.05 644.24,-323.73"/>
</g>
<!-- DeadTimeCorrection&#45;&gt;CorrectBankPositions -->
<g id="edge8" class="edge">
<title>DeadTimeCorrection&#45;&gt;CorrectBankPositions</title>
<path fill="none" stroke="black" d="M519.8,-647.7C523.67,-639.49 528.37,-629.52 532.63,-620.48"/>
<polygon fill="black" stroke="black" points="535.93,-621.68 537.03,-611.14 529.6,-618.7 535.93,-621.68"/>
</g>
<!-- RotateInstrumentComponent&#45;&gt;CorrectRelativeEfficiencies -->
<g id="edge13" class="edge">
<title>RotateInstrumentComponent&#45;&gt;CorrectRelativeEfficiencies</title>
<path fill="none" stroke="black" d="M397.76,-503.88C422.9,-493.14 455.22,-479.35 480.55,-468.54"/>
<polygon fill="black" stroke="black" points="482.06,-471.7 489.88,-464.56 479.31,-465.26 482.06,-471.7"/>
</g>
<!-- Divide&#45;&gt;Normalise -->
<g id="edge17" class="edge">
<title>Divide&#45;&gt;Normalise</title>
<path fill="none" stroke="black" d="M545.37,-359.7C559.44,-349.44 577.29,-336.42 591.72,-325.9"/>
<polygon fill="black" stroke="black" points="594.19,-328.43 600.21,-319.71 590.07,-322.77 594.19,-328.43"/>
</g>
<!-- Divide2&#45;&gt;OutputWorkspace -->
<g id="edge20" class="edge">
<title>Divide2&#45;&gt;OutputWorkspace</title>
<path fill="none" stroke="black" d="M558.8,-215.7C562.55,-207.73 567.09,-198.1 571.26,-189.26"/>
<polygon fill="black" stroke="black" points="574.48,-190.64 575.58,-180.1 568.15,-187.66 574.48,-190.64"/>
</g>
</g>
</svg>
