<?xml version="1.0" encoding="UTF-8" standalone="no"?>
<!DOCTYPE svg PUBLIC "-//W3C//DTD SVG 1.1//EN"
 "http://www.w3.org/Graphics/SVG/1.1/DTD/svg11.dtd">
<!-- Generated by graphviz version 2.47.2 (20210527.1257)
 -->
<!-- Title: Sample Pages: 1 -->
<svg width="747pt" height="1196pt"
 viewBox="0.00 0.00 746.93 1196.00" xmlns="http://www.w3.org/2000/svg" xmlns:xlink="http://www.w3.org/1999/xlink">
<g id="graph0" class="graph" transform="scale(1 1) rotate(0) translate(4 1192)">
<title>Sample</title>
<polygon fill="white" stroke="transparent" points="-4,4 -4,-1192 742.93,-1192 742.93,4 -4,4"/>
<!-- AverageCounts -->
<g id="node1" class="node">
<title>AverageCounts</title>
<polygon fill="limegreen" stroke="black" points="324.69,-396 223.48,-378 324.69,-360 425.91,-378 324.69,-396"/>
<text text-anchor="middle" x="324.69" y="-374.3" font-family="Helvetica" font-size="14.00">AverageCounts</text>
</g>
<!-- OutputUnits -->
<g id="node8" class="node">
<title>OutputUnits</title>
<polygon fill="limegreen" stroke="black" points="365.69,-252 284.08,-234 365.69,-216 447.3,-234 365.69,-252"/>
<text text-anchor="middle" x="365.69" y="-230.3" font-family="Helvetica" font-size="14.00">OutputUnits</text>
</g>
<!-- AverageCounts&#45;&gt;OutputUnits -->
<g id="edge32" class="edge">
<title>AverageCounts&#45;&gt;OutputUnits</title>
<path fill="none" stroke="black" d="M348.84,-364.28C363.31,-355.19 380.46,-341.49 388.69,-324 398.52,-303.09 389.88,-277.37 380.51,-258.97"/>
<polygon fill="black" stroke="black" points="383.52,-257.16 375.64,-250.07 377.38,-260.52 383.52,-257.16"/>
</g>
<!-- Plus -->
<g id="node25" class="node">
<title>Plus</title>
<path fill="lightskyblue" stroke="black" d="M367.69,-324C367.69,-324 281.69,-324 281.69,-324 275.69,-324 269.69,-318 269.69,-312 269.69,-312 269.69,-300 269.69,-300 269.69,-294 275.69,-288 281.69,-288 281.69,-288 367.69,-288 367.69,-288 373.69,-288 379.69,-294 379.69,-300 379.69,-300 379.69,-312 379.69,-312 379.69,-318 373.69,-324 367.69,-324"/>
<text text-anchor="middle" x="324.69" y="-302.3" font-family="Helvetica" font-size="14.00">Average counts</text>
</g>
<!-- AverageCounts&#45;&gt;Plus -->
<g id="edge31" class="edge">
<title>AverageCounts&#45;&gt;Plus</title>
<path fill="none" stroke="black" d="M324.69,-359.7C324.69,-351.98 324.69,-342.71 324.69,-334.11"/>
<polygon fill="black" stroke="black" points="328.19,-334.1 324.69,-324.1 321.19,-334.1 328.19,-334.1"/>
</g>
<!-- SumOverlappingTubes -->
<g id="node28" class="node">
<title>SumOverlappingTubes</title>
<path fill="lightskyblue" stroke="black" d="M239.69,-324C239.69,-324 107.69,-324 107.69,-324 101.69,-324 95.69,-318 95.69,-312 95.69,-312 95.69,-300 95.69,-300 95.69,-294 101.69,-288 107.69,-288 107.69,-288 239.69,-288 239.69,-288 245.69,-288 251.69,-294 251.69,-300 251.69,-300 251.69,-312 251.69,-312 251.69,-318 245.69,-324 239.69,-324"/>
<text text-anchor="middle" x="173.69" y="-302.3" font-family="Helvetica" font-size="14.00">SumOverlappingTubes</text>
</g>
<!-- AverageCounts&#45;&gt;SumOverlappingTubes -->
<g id="edge30" class="edge">
<title>AverageCounts&#45;&gt;SumOverlappingTubes</title>
<path fill="none" stroke="black" d="M298.04,-364.65C276.4,-354.61 245.38,-340.23 219.73,-328.34"/>
<polygon fill="black" stroke="black" points="221.1,-325.12 210.55,-324.09 218.15,-331.47 221.1,-325.12"/>
</g>
<!-- IsotropicMagnetism -->
<g id="node2" class="node">
<title>IsotropicMagnetism</title>
<polygon fill="limegreen" stroke="black" points="320.69,-972 196.52,-954 320.69,-936 444.86,-954 320.69,-972"/>
<text text-anchor="middle" x="320.69" y="-950.3" font-family="Helvetica" font-size="14.00">IsotropicMagnetism</text>
</g>
<!-- Minus3 -->
<g id="node17" class="node">
<title>Minus3</title>
<path fill="lightskyblue" stroke="black" d="M317.69,-900C317.69,-900 241.69,-900 241.69,-900 235.69,-900 229.69,-894 229.69,-888 229.69,-888 229.69,-876 229.69,-876 229.69,-870 235.69,-864 241.69,-864 241.69,-864 317.69,-864 317.69,-864 323.69,-864 329.69,-870 329.69,-876 329.69,-876 329.69,-888 329.69,-888 329.69,-894 323.69,-900 317.69,-900"/>
<text text-anchor="middle" x="279.69" y="-878.3" font-family="Helvetica" font-size="14.00">6&#45;point Ehlers</text>
</g>
<!-- IsotropicMagnetism&#45;&gt;Minus3 -->
<g id="edge6" class="edge">
<title>IsotropicMagnetism&#45;&gt;Minus3</title>
<path fill="none" stroke="black" d="M311.39,-937.12C306.52,-928.8 300.43,-918.41 294.9,-908.96"/>
<polygon fill="black" stroke="black" points="297.89,-907.15 289.82,-900.29 291.85,-910.69 297.89,-907.15"/>
</g>
<!-- Minus31 -->
<g id="node18" class="node">
<title>Minus31</title>
<path fill="lightskyblue" stroke="black" d="M455.19,-900C455.19,-900 360.19,-900 360.19,-900 354.19,-900 348.19,-894 348.19,-888 348.19,-888 348.19,-876 348.19,-876 348.19,-870 354.19,-864 360.19,-864 360.19,-864 455.19,-864 455.19,-864 461.19,-864 467.19,-870 467.19,-876 467.19,-876 467.19,-888 467.19,-888 467.19,-894 461.19,-900 455.19,-900"/>
<text text-anchor="middle" x="407.69" y="-878.3" font-family="Helvetica" font-size="14.00">6&#45;point Schweika</text>
</g>
<!-- IsotropicMagnetism&#45;&gt;Minus31 -->
<g id="edge7" class="edge">
<title>IsotropicMagnetism&#45;&gt;Minus31</title>
<path fill="none" stroke="black" d="M338.72,-938.5C350.18,-929.28 365.27,-917.13 378.42,-906.55"/>
<polygon fill="black" stroke="black" points="380.71,-909.2 386.31,-900.2 376.32,-903.75 380.71,-909.2"/>
</g>
<!-- NormalisationMethod -->
<g id="node3" class="node">
<title>NormalisationMethod</title>
<polygon fill="limegreen" stroke="black" points="279.69,-828 145.3,-810 279.69,-792 414.09,-810 279.69,-828"/>
<text text-anchor="middle" x="279.69" y="-806.3" font-family="Helvetica" font-size="14.00">NormalisationMethod</text>
</g>
<!-- OutputTreatment -->
<g id="node7" class="node">
<title>OutputTreatment</title>
<polygon fill="limegreen" stroke="black" points="388.69,-468 278.59,-450 388.69,-432 498.79,-450 388.69,-468"/>
<text text-anchor="middle" x="388.69" y="-446.3" font-family="Helvetica" font-size="14.00">OutputTreatment</text>
</g>
<!-- NormalisationMethod&#45;&gt;OutputTreatment -->
<g id="edge14" class="edge">
<title>NormalisationMethod&#45;&gt;OutputTreatment</title>
<path fill="none" stroke="black" d="M276.73,-792.01C272.36,-765.43 264.69,-712.37 264.69,-667 264.69,-667 264.69,-667 264.69,-593 264.69,-549.99 274.62,-536.59 302.69,-504 315.73,-488.86 334.19,-476.7 350.67,-467.87"/>
<polygon fill="black" stroke="black" points="352.27,-470.98 359.57,-463.3 349.07,-464.75 352.27,-470.98"/>
</g>
<!-- Divide -->
<g id="node20" class="node">
<title>Divide</title>
<path fill="lightskyblue" stroke="black" d="M634.69,-756C634.69,-756 550.69,-756 550.69,-756 544.69,-756 538.69,-750 538.69,-744 538.69,-744 538.69,-732 538.69,-732 538.69,-726 544.69,-720 550.69,-720 550.69,-720 634.69,-720 634.69,-720 640.69,-720 646.69,-726 646.69,-732 646.69,-732 646.69,-744 646.69,-744 646.69,-750 640.69,-756 634.69,-756"/>
<text text-anchor="middle" x="592.69" y="-734.3" font-family="Helvetica" font-size="14.00">Normalise data</text>
</g>
<!-- NormalisationMethod&#45;&gt;Divide -->
<g id="edge15" class="edge">
<title>NormalisationMethod&#45;&gt;Divide</title>
<path fill="none" stroke="black" d="M331.59,-798.86C380.1,-789.18 454.78,-773.8 528.52,-756.22"/>
<polygon fill="black" stroke="black" points="529.54,-759.58 538.44,-753.84 527.9,-752.77 529.54,-759.58"/>
</g>
<!-- CrossSectionSeparationMethod -->
<g id="node4" class="node">
<title>CrossSectionSeparationMethod</title>
<polygon fill="limegreen" stroke="black" points="205.69,-1116 14.32,-1098 205.69,-1080 397.06,-1098 205.69,-1116"/>
<text text-anchor="middle" x="205.69" y="-1094.3" font-family="Helvetica" font-size="14.00">CrossSectionSeparationMethod</text>
</g>
<!-- CrossSectionSeparationMethod&#45;&gt;NormalisationMethod -->
<g id="edge2" class="edge">
<title>CrossSectionSeparationMethod&#45;&gt;NormalisationMethod</title>
<path fill="none" stroke="black" d="M192.45,-1081.1C160.9,-1041.18 87.41,-934.82 136.69,-864 151.84,-842.22 177.04,-829.37 202.1,-821.8"/>
<polygon fill="black" stroke="black" points="203.34,-825.09 212.05,-819.05 201.48,-818.34 203.34,-825.09"/>
</g>
<!-- Minus -->
<g id="node15" class="node">
<title>Minus</title>
<path fill="lightskyblue" stroke="black" d="M329.19,-1044C329.19,-1044 192.19,-1044 192.19,-1044 186.19,-1044 180.19,-1038 180.19,-1032 180.19,-1032 180.19,-1020 180.19,-1020 180.19,-1014 186.19,-1008 192.19,-1008 192.19,-1008 329.19,-1008 329.19,-1008 335.19,-1008 341.19,-1014 341.19,-1020 341.19,-1020 341.19,-1032 341.19,-1032 341.19,-1038 335.19,-1044 329.19,-1044"/>
<text text-anchor="middle" x="260.69" y="-1022.3" font-family="Helvetica" font-size="14.00">Separate cross&#45;sections</text>
</g>
<!-- CrossSectionSeparationMethod&#45;&gt;Minus -->
<g id="edge3" class="edge">
<title>CrossSectionSeparationMethod&#45;&gt;Minus</title>
<path fill="none" stroke="black" d="M218.17,-1081.12C224.84,-1072.63 233.21,-1061.98 240.75,-1052.38"/>
<polygon fill="black" stroke="black" points="243.68,-1054.32 247.1,-1044.29 238.17,-1049.99 243.68,-1054.32"/>
</g>
<!-- AbsoluteNormalisation -->
<g id="node5" class="node">
<title>AbsoluteNormalisation</title>
<polygon fill="limegreen" stroke="black" points="493.69,-612 353.77,-594 493.69,-576 633.62,-594 493.69,-612"/>
<text text-anchor="middle" x="493.69" y="-590.3" font-family="Helvetica" font-size="14.00">AbsoluteNormalisation</text>
</g>
<!-- AbsoluteNormalisation&#45;&gt;OutputTreatment -->
<g id="edge25" class="edge">
<title>AbsoluteNormalisation&#45;&gt;OutputTreatment</title>
<path fill="none" stroke="black" d="M493.91,-576.03C493.35,-556.86 489.9,-525.56 474.69,-504 463.53,-488.19 446.02,-476.16 429.7,-467.59"/>
<polygon fill="black" stroke="black" points="430.8,-464.23 420.28,-462.94 427.7,-470.51 430.8,-464.23"/>
</g>
<!-- Divide5 -->
<g id="node24" class="node">
<title>Divide5</title>
<path fill="lightskyblue" stroke="black" d="M453.69,-540C453.69,-540 323.69,-540 323.69,-540 317.69,-540 311.69,-534 311.69,-528 311.69,-528 311.69,-516 311.69,-516 311.69,-510 317.69,-504 323.69,-504 323.69,-504 453.69,-504 453.69,-504 459.69,-504 465.69,-510 465.69,-516 465.69,-516 465.69,-528 465.69,-528 465.69,-534 459.69,-540 453.69,-540"/>
<text text-anchor="middle" x="388.69" y="-518.3" font-family="Helvetica" font-size="14.00">Absolute normalisation</text>
</g>
<!-- AbsoluteNormalisation&#45;&gt;Divide5 -->
<g id="edge24" class="edge">
<title>AbsoluteNormalisation&#45;&gt;Divide5</title>
<path fill="none" stroke="black" d="M472.19,-578.67C458.01,-569.22 439.14,-556.63 422.93,-545.82"/>
<polygon fill="black" stroke="black" points="424.5,-542.67 414.24,-540.03 420.62,-548.49 424.5,-542.67"/>
</g>
<!-- SingleCrystal -->
<g id="node6" class="node">
<title>SingleCrystal</title>
<polygon fill="limegreen" stroke="black" points="203.69,-180 115.21,-162 203.69,-144 292.17,-162 203.69,-180"/>
<text text-anchor="middle" x="203.69" y="-158.3" font-family="Helvetica" font-size="14.00">SingleCrystal</text>
</g>
<!-- Plus2 -->
<g id="node26" class="node">
<title>Plus2</title>
<path fill="lightskyblue" stroke="black" d="M218.19,-108C218.19,-108 179.19,-108 179.19,-108 173.19,-108 167.19,-102 167.19,-96 167.19,-96 167.19,-84 167.19,-84 167.19,-78 173.19,-72 179.19,-72 179.19,-72 218.19,-72 218.19,-72 224.19,-72 230.19,-78 230.19,-84 230.19,-84 230.19,-96 230.19,-96 230.19,-102 224.19,-108 218.19,-108"/>
<text text-anchor="middle" x="198.69" y="-86.3" font-family="Helvetica" font-size="14.00">QRebin</text>
</g>
<!-- SingleCrystal&#45;&gt;Plus2 -->
<g id="edge36" class="edge">
<title>SingleCrystal&#45;&gt;Plus2</title>
<path fill="none" stroke="black" d="M202.48,-144.05C201.93,-136.35 201.26,-127.03 200.65,-118.36"/>
<polygon fill="black" stroke="black" points="204.13,-118 199.92,-108.28 197.15,-118.5 204.13,-118"/>
</g>
<!-- OutputTreatment&#45;&gt;AverageCounts -->
<g id="edge27" class="edge">
<title>OutputTreatment&#45;&gt;AverageCounts</title>
<path fill="none" stroke="black" d="M375.12,-434.15C366.38,-424.6 354.86,-411.99 345.03,-401.25"/>
<polygon fill="black" stroke="black" points="347.57,-398.84 338.24,-393.82 342.41,-403.57 347.57,-398.84"/>
</g>
<!-- OutputTreatment&#45;&gt;OutputUnits -->
<g id="edge28" class="edge">
<title>OutputTreatment&#45;&gt;OutputUnits</title>
<path fill="none" stroke="black" d="M406.18,-434.78C416.64,-425.1 428.98,-411.29 434.69,-396 440.29,-381.01 437.83,-375.69 434.69,-360 427.89,-326.01 421.75,-318.18 404.69,-288 398.81,-277.6 391.23,-266.85 384.31,-257.78"/>
<polygon fill="black" stroke="black" points="386.88,-255.38 377.96,-249.65 381.36,-259.69 386.88,-255.38"/>
</g>
<!-- OutputUnits&#45;&gt;SingleCrystal -->
<g id="edge35" class="edge">
<title>OutputUnits&#45;&gt;SingleCrystal</title>
<path fill="none" stroke="black" d="M339.3,-221.6C312.28,-209.92 270.08,-191.69 239.94,-178.66"/>
<polygon fill="black" stroke="black" points="241.18,-175.38 230.61,-174.63 238.4,-181.81 241.18,-175.38"/>
</g>
<!-- ConvertTo2Theta -->
<g id="node29" class="node">
<title>ConvertTo2Theta</title>
<ellipse fill="lightgrey" stroke="black" cx="325.69" cy="-90" rx="77.99" ry="18"/>
<text text-anchor="middle" x="325.69" y="-86.3" font-family="Helvetica" font-size="14.00">ConvertTo2Theta</text>
</g>
<!-- OutputUnits&#45;&gt;ConvertTo2Theta -->
<g id="edge37" class="edge">
<title>OutputUnits&#45;&gt;ConvertTo2Theta</title>
<path fill="none" stroke="black" d="M357.5,-217.63C352.29,-207.26 345.77,-193.12 341.69,-180 335.37,-159.67 331.25,-135.9 328.78,-118.04"/>
<polygon fill="black" stroke="black" points="332.24,-117.49 327.48,-108.03 325.3,-118.4 332.24,-117.49"/>
</g>
<!-- ConvertToQ -->
<g id="node30" class="node">
<title>ConvertToQ</title>
<ellipse fill="lightgrey" stroke="black" cx="408.69" cy="-162" rx="57.69" ry="18"/>
<text text-anchor="middle" x="408.69" y="-158.3" font-family="Helvetica" font-size="14.00">ConvertToQ</text>
</g>
<!-- OutputUnits&#45;&gt;ConvertToQ -->
<g id="edge38" class="edge">
<title>OutputUnits&#45;&gt;ConvertToQ</title>
<path fill="none" stroke="black" d="M375.02,-217.81C380.24,-209.31 386.89,-198.49 392.89,-188.72"/>
<polygon fill="black" stroke="black" points="395.92,-190.48 398.17,-180.13 389.95,-186.82 395.92,-190.48"/>
</g>
<!-- ConvertToSofQW -->
<g id="node31" class="node">
<title>ConvertToSofQW</title>
<ellipse fill="lightgrey" stroke="black" cx="564.69" cy="-162" rx="79.89" ry="18"/>
<text text-anchor="middle" x="564.69" y="-158.3" font-family="Helvetica" font-size="14.00">ConvertToSofQW</text>
</g>
<!-- OutputUnits&#45;&gt;ConvertToSofQW -->
<g id="edge39" class="edge">
<title>OutputUnits&#45;&gt;ConvertToSofQW</title>
<path fill="none" stroke="black" d="M395.48,-222.52C426.74,-211.53 476.43,-194.05 513.89,-180.87"/>
<polygon fill="black" stroke="black" points="515.35,-184.07 523.62,-177.45 513.03,-177.46 515.35,-184.07"/>
</g>
<!-- InputWorkspace -->
<g id="node9" class="node">
<title>InputWorkspace</title>
<ellipse fill="khaki" stroke="black" cx="205.69" cy="-1170" rx="74.19" ry="18"/>
<text text-anchor="middle" x="205.69" y="-1166.3" font-family="Helvetica" font-size="14.00">InputWorkspace</text>
</g>
<!-- InputWorkspace&#45;&gt;CrossSectionSeparationMethod -->
<g id="edge1" class="edge">
<title>InputWorkspace&#45;&gt;CrossSectionSeparationMethod</title>
<path fill="none" stroke="black" d="M205.69,-1151.7C205.69,-1143.98 205.69,-1134.71 205.69,-1126.11"/>
<polygon fill="black" stroke="black" points="209.19,-1126.1 205.69,-1116.1 202.19,-1126.1 209.19,-1126.1"/>
</g>
<!-- RotatedXYZWorkspace -->
<g id="node10" class="node">
<title>RotatedXYZWorkspace</title>
<ellipse fill="khaki" stroke="black" cx="495.69" cy="-1026" rx="102.88" ry="18"/>
<text text-anchor="middle" x="495.69" y="-1022.3" font-family="Helvetica" font-size="14.00">RotatedXYZWorkspace</text>
</g>
<!-- Minus4 -->
<g id="node19" class="node">
<title>Minus4</title>
<path fill="lightskyblue" stroke="black" d="M516.19,-972C516.19,-972 475.19,-972 475.19,-972 469.19,-972 463.19,-966 463.19,-960 463.19,-960 463.19,-948 463.19,-948 463.19,-942 469.19,-936 475.19,-936 475.19,-936 516.19,-936 516.19,-936 522.19,-936 528.19,-942 528.19,-948 528.19,-948 528.19,-960 528.19,-960 528.19,-966 522.19,-972 516.19,-972"/>
<text text-anchor="middle" x="495.69" y="-950.3" font-family="Helvetica" font-size="14.00">10&#45;point</text>
</g>
<!-- RotatedXYZWorkspace&#45;&gt;Minus4 -->
<g id="edge8" class="edge">
<title>RotatedXYZWorkspace&#45;&gt;Minus4</title>
<path fill="none" stroke="black" d="M495.69,-1007.7C495.69,-999.98 495.69,-990.71 495.69,-982.11"/>
<polygon fill="black" stroke="black" points="499.19,-982.1 495.69,-972.1 492.19,-982.1 499.19,-982.1"/>
</g>
<!-- VanadiumInputWorkspace -->
<g id="node11" class="node">
<title>VanadiumInputWorkspace</title>
<ellipse fill="khaki" stroke="black" cx="406.69" cy="-738" rx="113.98" ry="18"/>
<text text-anchor="middle" x="406.69" y="-734.3" font-family="Helvetica" font-size="14.00">VanadiumInputWorkspace</text>
</g>
<!-- Divide2 -->
<g id="node21" class="node">
<title>Divide2</title>
<path fill="lightskyblue" stroke="black" d="M433.19,-684C433.19,-684 380.19,-684 380.19,-684 374.19,-684 368.19,-678 368.19,-672 368.19,-672 368.19,-660 368.19,-660 368.19,-654 374.19,-648 380.19,-648 380.19,-648 433.19,-648 433.19,-648 439.19,-648 445.19,-654 445.19,-660 445.19,-660 445.19,-672 445.19,-672 445.19,-678 439.19,-684 433.19,-684"/>
<text text-anchor="middle" x="406.69" y="-662.3" font-family="Helvetica" font-size="14.00">Vanadium</text>
</g>
<!-- VanadiumInputWorkspace&#45;&gt;Divide2 -->
<g id="edge17" class="edge">
<title>VanadiumInputWorkspace&#45;&gt;Divide2</title>
<path fill="none" stroke="black" d="M406.69,-719.7C406.69,-711.98 406.69,-702.71 406.69,-694.11"/>
<polygon fill="black" stroke="black" points="410.19,-694.1 406.69,-684.1 403.19,-694.1 410.19,-694.1"/>
</g>
<!-- SampleAndEnvironmentProperties -->
<g id="node12" class="node">
<title>SampleAndEnvironmentProperties</title>
<ellipse fill="khaki" stroke="black" cx="592.69" cy="-810" rx="146.47" ry="18"/>
<text text-anchor="middle" x="592.69" y="-806.3" font-family="Helvetica" font-size="14.00">SampleAndEnvironmentProperties</text>
</g>
<!-- SampleAndEnvironmentProperties&#45;&gt;Divide -->
<g id="edge16" class="edge">
<title>SampleAndEnvironmentProperties&#45;&gt;Divide</title>
<path fill="none" stroke="black" d="M592.69,-791.7C592.69,-783.98 592.69,-774.71 592.69,-766.11"/>
<polygon fill="black" stroke="black" points="596.19,-766.1 592.69,-756.1 589.19,-766.1 596.19,-766.1"/>
</g>
<!-- ScatteringAngleBinSize -->
<g id="node13" class="node">
<title>ScatteringAngleBinSize</title>
<ellipse fill="khaki" stroke="black" cx="102.69" cy="-378" rx="102.88" ry="18"/>
<text text-anchor="middle" x="102.69" y="-374.3" font-family="Helvetica" font-size="14.00">ScatteringAngleBinSize</text>
</g>
<!-- ScatteringAngleBinSize&#45;&gt;SumOverlappingTubes -->
<g id="edge29" class="edge">
<title>ScatteringAngleBinSize&#45;&gt;SumOverlappingTubes</title>
<path fill="none" stroke="black" d="M119.88,-360.05C128.56,-351.5 139.25,-340.96 148.81,-331.54"/>
<polygon fill="black" stroke="black" points="151.51,-333.79 156.17,-324.28 146.59,-328.8 151.51,-333.79"/>
</g>
<!-- OutputWorkspace -->
<g id="node14" class="node">
<title>OutputWorkspace</title>
<polygon fill="grey" stroke="black" points="512.92,-36 299.39,-36 244.46,0 457.99,0 512.92,-36"/>
<text text-anchor="middle" x="378.69" y="-14.3" font-family="Times-Roman" font-size="14.00">OutputWorkspace</text>
</g>
<!-- Minus&#45;&gt;IsotropicMagnetism -->
<g id="edge5" class="edge">
<title>Minus&#45;&gt;IsotropicMagnetism</title>
<path fill="none" stroke="black" d="M275.52,-1007.7C283.22,-998.71 292.73,-987.62 301.03,-977.93"/>
<polygon fill="black" stroke="black" points="303.81,-980.07 307.66,-970.2 298.49,-975.52 303.81,-980.07"/>
</g>
<!-- Minus2 -->
<g id="node16" class="node">
<title>Minus2</title>
<path fill="lightskyblue" stroke="black" d="M199.19,-900C199.19,-900 158.19,-900 158.19,-900 152.19,-900 146.19,-894 146.19,-888 146.19,-888 146.19,-876 146.19,-876 146.19,-870 152.19,-864 158.19,-864 158.19,-864 199.19,-864 199.19,-864 205.19,-864 211.19,-870 211.19,-876 211.19,-876 211.19,-888 211.19,-888 211.19,-894 205.19,-900 199.19,-900"/>
<text text-anchor="middle" x="178.69" y="-878.3" font-family="Helvetica" font-size="14.00">Uniaxial</text>
</g>
<!-- Minus&#45;&gt;Minus2 -->
<g id="edge4" class="edge">
<title>Minus&#45;&gt;Minus2</title>
<path fill="none" stroke="black" d="M225.68,-1007.99C211.5,-999.25 196.43,-987.21 187.69,-972 177.01,-953.43 175.23,-929.03 175.85,-910.48"/>
<polygon fill="black" stroke="black" points="179.36,-910.51 176.45,-900.32 172.37,-910.1 179.36,-910.51"/>
</g>
<!-- Minus&#45;&gt;Minus4 -->
<g id="edge9" class="edge">
<title>Minus&#45;&gt;Minus4</title>
<path fill="none" stroke="black" d="M330.51,-1007.92C365.07,-998.98 407.49,-987.27 453.3,-971.95"/>
<polygon fill="black" stroke="black" points="454.46,-975.25 462.81,-968.73 452.22,-968.62 454.46,-975.25"/>
</g>
<!-- Minus2&#45;&gt;NormalisationMethod -->
<g id="edge10" class="edge">
<title>Minus2&#45;&gt;NormalisationMethod</title>
<path fill="none" stroke="black" d="M203.4,-863.88C217.65,-854 235.66,-841.52 250.59,-831.17"/>
<polygon fill="black" stroke="black" points="252.76,-833.92 258.98,-825.35 248.77,-828.17 252.76,-833.92"/>
</g>
<!-- Minus3&#45;&gt;NormalisationMethod -->
<g id="edge11" class="edge">
<title>Minus3&#45;&gt;NormalisationMethod</title>
<path fill="none" stroke="black" d="M279.69,-863.7C279.69,-855.98 279.69,-846.71 279.69,-838.11"/>
<polygon fill="black" stroke="black" points="283.19,-838.1 279.69,-828.1 276.19,-838.1 283.19,-838.1"/>
</g>
<!-- Minus31&#45;&gt;NormalisationMethod -->
<g id="edge12" class="edge">
<title>Minus31&#45;&gt;NormalisationMethod</title>
<path fill="none" stroke="black" d="M376.38,-863.88C357.34,-853.46 333.02,-840.17 313.54,-829.51"/>
<polygon fill="black" stroke="black" points="315.14,-826.4 304.69,-824.67 311.78,-832.54 315.14,-826.4"/>
</g>
<!-- Minus4&#45;&gt;NormalisationMethod -->
<g id="edge13" class="edge">
<title>Minus4&#45;&gt;NormalisationMethod</title>
<path fill="none" stroke="black" d="M496.97,-935.86C497.46,-915.95 495.07,-883.37 476.69,-864 452.34,-838.34 417,-824.63 382.95,-817.46"/>
<polygon fill="black" stroke="black" points="383.4,-813.98 372.92,-815.52 382.07,-820.85 383.4,-813.98"/>
</g>
<!-- Divide&#45;&gt;Divide2 -->
<g id="edge18" class="edge">
<title>Divide&#45;&gt;Divide2</title>
<path fill="none" stroke="black" d="M547.19,-719.88C519.29,-709.38 483.59,-695.94 455.16,-685.24"/>
<polygon fill="black" stroke="black" points="456.03,-681.83 445.44,-681.58 453.56,-688.38 456.03,-681.83"/>
</g>
<!-- Divide3 -->
<g id="node22" class="node">
<title>Divide3</title>
<path fill="lightskyblue" stroke="black" d="M552.19,-684C552.19,-684 475.19,-684 475.19,-684 469.19,-684 463.19,-678 463.19,-672 463.19,-672 463.19,-660 463.19,-660 463.19,-654 469.19,-648 475.19,-648 475.19,-648 552.19,-648 552.19,-648 558.19,-648 564.19,-654 564.19,-660 564.19,-660 564.19,-672 564.19,-672 564.19,-678 558.19,-684 552.19,-684"/>
<text text-anchor="middle" x="513.69" y="-662.3" font-family="Helvetica" font-size="14.00">Paramagnetic</text>
</g>
<!-- Divide&#45;&gt;Divide3 -->
<g id="edge19" class="edge">
<title>Divide&#45;&gt;Divide3</title>
<path fill="none" stroke="black" d="M573.16,-719.7C563.31,-710.97 551.21,-700.24 540.49,-690.75"/>
<polygon fill="black" stroke="black" points="542.8,-688.12 532.99,-684.1 538.16,-693.36 542.8,-688.12"/>
</g>
<!-- Divide4 -->
<g id="node23" class="node">
<title>Divide4</title>
<path fill="lightskyblue" stroke="black" d="M650.69,-684C650.69,-684 594.69,-684 594.69,-684 588.69,-684 582.69,-678 582.69,-672 582.69,-672 582.69,-660 582.69,-660 582.69,-654 588.69,-648 594.69,-648 594.69,-648 650.69,-648 650.69,-648 656.69,-648 662.69,-654 662.69,-660 662.69,-660 662.69,-672 662.69,-672 662.69,-678 656.69,-684 650.69,-684"/>
<text text-anchor="middle" x="622.69" y="-662.3" font-family="Helvetica" font-size="14.00">Incoherent</text>
</g>
<!-- Divide&#45;&gt;Divide4 -->
<g id="edge20" class="edge">
<title>Divide&#45;&gt;Divide4</title>
<path fill="none" stroke="black" d="M600.11,-719.7C603.49,-711.81 607.56,-702.3 611.31,-693.55"/>
<polygon fill="black" stroke="black" points="614.64,-694.67 615.36,-684.1 608.2,-691.92 614.64,-694.67"/>
</g>
<!-- Divide2&#45;&gt;AbsoluteNormalisation -->
<g id="edge21" class="edge">
<title>Divide2&#45;&gt;AbsoluteNormalisation</title>
<path fill="none" stroke="black" d="M428.2,-647.7C440.08,-638.13 454.95,-626.17 467.51,-616.07"/>
<polygon fill="black" stroke="black" points="469.78,-618.73 475.37,-609.74 465.39,-613.28 469.78,-618.73"/>
</g>
<!-- Divide3&#45;&gt;AbsoluteNormalisation -->
<g id="edge22" class="edge">
<title>Divide3&#45;&gt;AbsoluteNormalisation</title>
<path fill="none" stroke="black" d="M508.75,-647.7C506.49,-639.78 503.76,-630.23 501.25,-621.44"/>
<polygon fill="black" stroke="black" points="504.55,-620.28 498.44,-611.62 497.82,-622.2 504.55,-620.28"/>
</g>
<!-- Divide4&#45;&gt;AbsoluteNormalisation -->
<g id="edge23" class="edge">
<title>Divide4&#45;&gt;AbsoluteNormalisation</title>
<path fill="none" stroke="black" d="M591.13,-647.88C572.07,-637.53 547.77,-624.34 528.2,-613.73"/>
<polygon fill="black" stroke="black" points="529.76,-610.59 519.3,-608.9 526.42,-616.74 529.76,-610.59"/>
</g>
<!-- Divide5&#45;&gt;OutputTreatment -->
<g id="edge26" class="edge">
<title>Divide5&#45;&gt;OutputTreatment</title>
<path fill="none" stroke="black" d="M388.69,-503.7C388.69,-495.98 388.69,-486.71 388.69,-478.11"/>
<polygon fill="black" stroke="black" points="392.19,-478.1 388.69,-468.1 385.19,-478.1 392.19,-478.1"/>
</g>
<!-- Plus&#45;&gt;OutputUnits -->
<g id="edge34" class="edge">
<title>Plus&#45;&gt;OutputUnits</title>
<path fill="none" stroke="black" d="M334.83,-287.7C339.88,-279.07 346.07,-268.5 351.57,-259.1"/>
<polygon fill="black" stroke="black" points="354.75,-260.6 356.79,-250.2 348.71,-257.06 354.75,-260.6"/>
</g>
<!-- Plus2&#45;&gt;OutputWorkspace -->
<g id="edge40" class="edge">
<title>Plus2&#45;&gt;OutputWorkspace</title>
<path fill="none" stroke="black" d="M230.52,-75.34C233.28,-74.19 236.03,-73.07 238.69,-72 266.17,-60.96 296.92,-49.25 322.59,-39.65"/>
<polygon fill="black" stroke="black" points="324.02,-42.86 332.16,-36.08 321.57,-36.3 324.02,-42.86"/>
</g>
<!-- SOfQWNormalisedPolygon -->
<g id="node27" class="node">
<title>SOfQWNormalisedPolygon</title>
<path fill="lightskyblue" stroke="black" d="M636.19,-108C636.19,-108 477.19,-108 477.19,-108 471.19,-108 465.19,-102 465.19,-96 465.19,-96 465.19,-84 465.19,-84 465.19,-78 471.19,-72 477.19,-72 477.19,-72 636.19,-72 636.19,-72 642.19,-72 648.19,-78 648.19,-84 648.19,-84 648.19,-96 648.19,-96 648.19,-102 642.19,-108 636.19,-108"/>
<text text-anchor="middle" x="556.69" y="-86.3" font-family="Helvetica" font-size="14.00">SOfQWNormalisedPolygon</text>
</g>
<!-- SOfQWNormalisedPolygon&#45;&gt;OutputWorkspace -->
<g id="edge44" class="edge">
<title>SOfQWNormalisedPolygon&#45;&gt;OutputWorkspace</title>
<path fill="none" stroke="black" d="M513.15,-71.88C488.49,-62.18 457.47,-49.98 431.44,-39.74"/>
<polygon fill="black" stroke="black" points="432.68,-36.47 422.09,-36.07 430.12,-42.99 432.68,-36.47"/>
</g>
<!-- SumOverlappingTubes&#45;&gt;OutputUnits -->
<g id="edge33" class="edge">
<title>SumOverlappingTubes&#45;&gt;OutputUnits</title>
<path fill="none" stroke="black" d="M220.66,-287.88C253.32,-275.97 296.32,-260.29 327.01,-249.1"/>
<polygon fill="black" stroke="black" points="328.31,-252.35 336.51,-245.64 325.91,-245.78 328.31,-252.35"/>
</g>
<!-- ConvertTo2Theta&#45;&gt;OutputWorkspace -->
<g id="edge42" class="edge">
<title>ConvertTo2Theta&#45;&gt;OutputWorkspace</title>
<path fill="none" stroke="black" d="M338.52,-72.05C344.81,-63.75 352.51,-53.58 359.48,-44.38"/>
<polygon fill="black" stroke="black" points="362.37,-46.36 365.61,-36.28 356.78,-42.14 362.37,-46.36"/>
</g>
<!-- ConvertToQ&#45;&gt;OutputWorkspace -->
<g id="edge41" class="edge">
<title>ConvertToQ&#45;&gt;OutputWorkspace</title>
<path fill="none" stroke="black" d="M412.7,-143.88C416.22,-125.66 419.78,-96.19 412.69,-72 409.89,-62.45 404.78,-52.98 399.36,-44.76"/>
<polygon fill="black" stroke="black" points="402.07,-42.52 393.45,-36.37 396.34,-46.56 402.07,-42.52"/>
</g>
<!-- ConvertToSofQW&#45;&gt;SOfQWNormalisedPolygon -->
<g id="edge43" class="edge">
<title>ConvertToSofQW&#45;&gt;SOfQWNormalisedPolygon</title>
<path fill="none" stroke="black" d="M562.71,-143.7C561.83,-135.98 560.77,-126.71 559.79,-118.11"/>
<polygon fill="black" stroke="black" points="563.26,-117.64 558.65,-108.1 556.3,-118.44 563.26,-117.64"/>
</g>
</g>
</svg>
