<?xml version="1.0" encoding="UTF-8" standalone="no"?>
<!DOCTYPE svg PUBLIC "-//W3C//DTD SVG 1.1//EN"
 "http://www.w3.org/Graphics/SVG/1.1/DTD/svg11.dtd">
<!-- Generated by graphviz version 3.0.0 (20220315.2325)
 -->
<!-- Title: Sample Pages: 1 -->
<svg width="835pt" height="1196pt"
 viewBox="0.00 0.00 835.43 1196.00" xmlns="http://www.w3.org/2000/svg" xmlns:xlink="http://www.w3.org/1999/xlink">
<g id="graph0" class="graph" transform="scale(1 1) rotate(0) translate(4 1192)">
<title>Sample</title>
<polygon fill="white" stroke="transparent" points="-4,4 -4,-1192 831.43,-1192 831.43,4 -4,4"/>
<!-- AverageCounts -->
<g id="node1" class="node">
<title>AverageCounts</title>
<polygon fill="limegreen" stroke="black" points="362.34,-396 250.07,-378 362.34,-360 474.61,-378 362.34,-396"/>
<text text-anchor="middle" x="362.34" y="-374.3" font-family="Helvetica,sans-Serif" font-size="14.00">AverageCounts</text>
</g>
<!-- OutputUnits -->
<g id="node8" class="node">
<title>OutputUnits</title>
<polygon fill="limegreen" stroke="black" points="407.34,-252 314.67,-234 407.34,-216 500.01,-234 407.34,-252"/>
<text text-anchor="middle" x="407.34" y="-230.3" font-family="Helvetica,sans-Serif" font-size="14.00">OutputUnits</text>
</g>
<!-- AverageCounts&#45;&gt;OutputUnits -->
<g id="edge32" class="edge">
<title>AverageCounts&#45;&gt;OutputUnits</title>
<path fill="none" stroke="black" d="M390.51,-364.41C406.53,-355.6 425.17,-342.15 434.34,-324 444.94,-303.04 434.78,-277.18 424.03,-258.74"/>
<polygon fill="black" stroke="black" points="426.89,-256.72 418.63,-250.09 420.96,-260.43 426.89,-256.72"/>
</g>
<!-- Plus -->
<g id="node25" class="node">
<title>Plus</title>
<path fill="lightskyblue" stroke="black" d="M412.84,-324C412.84,-324 311.84,-324 311.84,-324 305.84,-324 299.84,-318 299.84,-312 299.84,-312 299.84,-300 299.84,-300 299.84,-294 305.84,-288 311.84,-288 311.84,-288 412.84,-288 412.84,-288 418.84,-288 424.84,-294 424.84,-300 424.84,-300 424.84,-312 424.84,-312 424.84,-318 418.84,-324 412.84,-324"/>
<text text-anchor="middle" x="362.34" y="-302.3" font-family="Helvetica,sans-Serif" font-size="14.00">Average counts</text>
</g>
<!-- AverageCounts&#45;&gt;Plus -->
<g id="edge31" class="edge">
<title>AverageCounts&#45;&gt;Plus</title>
<path fill="none" stroke="black" d="M362.34,-359.7C362.34,-351.98 362.34,-342.71 362.34,-334.11"/>
<polygon fill="black" stroke="black" points="365.84,-334.1 362.34,-324.1 358.84,-334.1 365.84,-334.1"/>
</g>
<!-- SumOverlappingTubes -->
<g id="node28" class="node">
<title>SumOverlappingTubes</title>
<path fill="lightskyblue" stroke="black" d="M269.84,-324C269.84,-324 120.84,-324 120.84,-324 114.84,-324 108.84,-318 108.84,-312 108.84,-312 108.84,-300 108.84,-300 108.84,-294 114.84,-288 120.84,-288 120.84,-288 269.84,-288 269.84,-288 275.84,-288 281.84,-294 281.84,-300 281.84,-300 281.84,-312 281.84,-312 281.84,-318 275.84,-324 269.84,-324"/>
<text text-anchor="middle" x="195.34" y="-302.3" font-family="Helvetica,sans-Serif" font-size="14.00">SumOverlappingTubes</text>
</g>
<!-- AverageCounts&#45;&gt;SumOverlappingTubes -->
<g id="edge30" class="edge">
<title>AverageCounts&#45;&gt;SumOverlappingTubes</title>
<path fill="none" stroke="black" d="M332.87,-364.65C308.72,-354.53 274.02,-339.98 245.51,-328.03"/>
<polygon fill="black" stroke="black" points="246.68,-324.73 236.1,-324.09 243.97,-331.18 246.68,-324.73"/>
</g>
<!-- IsotropicMagnetism -->
<g id="node2" class="node">
<title>IsotropicMagnetism</title>
<polygon fill="limegreen" stroke="black" points="356.34,-972 216.42,-954 356.34,-936 496.26,-954 356.34,-972"/>
<text text-anchor="middle" x="356.34" y="-950.3" font-family="Helvetica,sans-Serif" font-size="14.00">IsotropicMagnetism</text>
</g>
<!-- Minus3 -->
<g id="node17" class="node">
<title>Minus3</title>
<path fill="lightskyblue" stroke="black" d="M357.34,-900C357.34,-900 267.34,-900 267.34,-900 261.34,-900 255.34,-894 255.34,-888 255.34,-888 255.34,-876 255.34,-876 255.34,-870 261.34,-864 267.34,-864 267.34,-864 357.34,-864 357.34,-864 363.34,-864 369.34,-870 369.34,-876 369.34,-876 369.34,-888 369.34,-888 369.34,-894 363.34,-900 357.34,-900"/>
<text text-anchor="middle" x="312.34" y="-878.3" font-family="Helvetica,sans-Serif" font-size="14.00">6&#45;point Ehlers</text>
</g>
<!-- IsotropicMagnetism&#45;&gt;Minus3 -->
<g id="edge6" class="edge">
<title>IsotropicMagnetism&#45;&gt;Minus3</title>
<path fill="none" stroke="black" d="M346.36,-937.12C341.13,-928.8 334.6,-918.41 328.66,-908.96"/>
<polygon fill="black" stroke="black" points="331.49,-906.9 323.21,-900.29 325.57,-910.62 331.49,-906.9"/>
</g>
<!-- Minus31 -->
<g id="node18" class="node">
<title>Minus31</title>
<path fill="lightskyblue" stroke="black" d="M511.34,-900C511.34,-900 399.34,-900 399.34,-900 393.34,-900 387.34,-894 387.34,-888 387.34,-888 387.34,-876 387.34,-876 387.34,-870 393.34,-864 399.34,-864 399.34,-864 511.34,-864 511.34,-864 517.34,-864 523.34,-870 523.34,-876 523.34,-876 523.34,-888 523.34,-888 523.34,-894 517.34,-900 511.34,-900"/>
<text text-anchor="middle" x="455.34" y="-878.3" font-family="Helvetica,sans-Serif" font-size="14.00">6&#45;point Schweika</text>
</g>
<!-- IsotropicMagnetism&#45;&gt;Minus31 -->
<g id="edge7" class="edge">
<title>IsotropicMagnetism&#45;&gt;Minus31</title>
<path fill="none" stroke="black" d="M376.85,-938.5C390.01,-929.19 407.4,-916.9 422.46,-906.25"/>
<polygon fill="black" stroke="black" points="424.86,-908.83 431.01,-900.2 420.82,-903.12 424.86,-908.83"/>
</g>
<!-- NormalisationMethod -->
<g id="node3" class="node">
<title>NormalisationMethod</title>
<polygon fill="limegreen" stroke="black" points="312.34,-828 161.36,-810 312.34,-792 463.32,-810 312.34,-828"/>
<text text-anchor="middle" x="312.34" y="-806.3" font-family="Helvetica,sans-Serif" font-size="14.00">NormalisationMethod</text>
</g>
<!-- OutputTreatment -->
<g id="node7" class="node">
<title>OutputTreatment</title>
<polygon fill="limegreen" stroke="black" points="432.34,-468 308.17,-450 432.34,-432 556.51,-450 432.34,-468"/>
<text text-anchor="middle" x="432.34" y="-446.3" font-family="Helvetica,sans-Serif" font-size="14.00">OutputTreatment</text>
</g>
<!-- NormalisationMethod&#45;&gt;OutputTreatment -->
<g id="edge14" class="edge">
<title>NormalisationMethod&#45;&gt;OutputTreatment</title>
<path fill="none" stroke="black" d="M308.98,-792.03C304.03,-765.48 295.34,-712.44 295.34,-667 295.34,-667 295.34,-667 295.34,-593 295.34,-549.63 305.89,-535.83 335.34,-504 349.99,-488.17 370.47,-476.02 388.85,-467.37"/>
<polygon fill="black" stroke="black" points="390.53,-470.46 398.22,-463.17 387.66,-464.07 390.53,-470.46"/>
</g>
<!-- Divide -->
<g id="node20" class="node">
<title>Divide</title>
<path fill="lightskyblue" stroke="black" d="M711.34,-756C711.34,-756 613.34,-756 613.34,-756 607.34,-756 601.34,-750 601.34,-744 601.34,-744 601.34,-732 601.34,-732 601.34,-726 607.34,-720 613.34,-720 613.34,-720 711.34,-720 711.34,-720 717.34,-720 723.34,-726 723.34,-732 723.34,-732 723.34,-744 723.34,-744 723.34,-750 717.34,-756 711.34,-756"/>
<text text-anchor="middle" x="662.34" y="-734.3" font-family="Helvetica,sans-Serif" font-size="14.00">Normalise data</text>
</g>
<!-- NormalisationMethod&#45;&gt;Divide -->
<g id="edge15" class="edge">
<title>NormalisationMethod&#45;&gt;Divide</title>
<path fill="none" stroke="black" d="M370.43,-798.9C424.96,-789.21 509.05,-773.76 591.28,-756.17"/>
<polygon fill="black" stroke="black" points="592.26,-759.54 601.3,-754.02 590.79,-752.7 592.26,-759.54"/>
</g>
<!-- CrossSectionSeparationMethod -->
<g id="node4" class="node">
<title>CrossSectionSeparationMethod</title>
<polygon fill="limegreen" stroke="black" points="232.34,-1116 18.01,-1098 232.34,-1080 446.67,-1098 232.34,-1116"/>
<text text-anchor="middle" x="232.34" y="-1094.3" font-family="Helvetica,sans-Serif" font-size="14.00">CrossSectionSeparationMethod</text>
</g>
<!-- CrossSectionSeparationMethod&#45;&gt;NormalisationMethod -->
<g id="edge2" class="edge">
<title>CrossSectionSeparationMethod&#45;&gt;NormalisationMethod</title>
<path fill="none" stroke="black" d="M218.2,-1081.09C184.45,-1041.14 105.67,-934.73 156.34,-864 172.14,-841.94 197.66,-828.95 223.52,-821.34"/>
<polygon fill="black" stroke="black" points="224.68,-824.65 233.43,-818.68 222.87,-817.89 224.68,-824.65"/>
</g>
<!-- Minus -->
<g id="node15" class="node">
<title>Minus</title>
<path fill="lightskyblue" stroke="black" d="M371.34,-1044C371.34,-1044 213.34,-1044 213.34,-1044 207.34,-1044 201.34,-1038 201.34,-1032 201.34,-1032 201.34,-1020 201.34,-1020 201.34,-1014 207.34,-1008 213.34,-1008 213.34,-1008 371.34,-1008 371.34,-1008 377.34,-1008 383.34,-1014 383.34,-1020 383.34,-1020 383.34,-1032 383.34,-1032 383.34,-1038 377.34,-1044 371.34,-1044"/>
<text text-anchor="middle" x="292.34" y="-1022.3" font-family="Helvetica,sans-Serif" font-size="14.00">Separate cross&#45;sections</text>
</g>
<!-- CrossSectionSeparationMethod&#45;&gt;Minus -->
<g id="edge3" class="edge">
<title>CrossSectionSeparationMethod&#45;&gt;Minus</title>
<path fill="none" stroke="black" d="M245.95,-1081.12C253.3,-1072.54 262.54,-1061.77 270.83,-1052.09"/>
<polygon fill="black" stroke="black" points="273.67,-1054.16 277.52,-1044.29 268.35,-1049.61 273.67,-1054.16"/>
</g>
<!-- AbsoluteNormalisation -->
<g id="node5" class="node">
<title>AbsoluteNormalisation</title>
<polygon fill="limegreen" stroke="black" points="548.34,-612 389.31,-594 548.34,-576 707.37,-594 548.34,-612"/>
<text text-anchor="middle" x="548.34" y="-590.3" font-family="Helvetica,sans-Serif" font-size="14.00">AbsoluteNormalisation</text>
</g>
<!-- AbsoluteNormalisation&#45;&gt;OutputTreatment -->
<g id="edge25" class="edge">
<title>AbsoluteNormalisation&#45;&gt;OutputTreatment</title>
<path fill="none" stroke="black" d="M548.76,-575.88C548.39,-556.58 545.11,-525.16 529.34,-504 516.84,-487.23 497.4,-475.13 479.19,-466.77"/>
<polygon fill="black" stroke="black" points="480.4,-463.48 469.83,-462.73 477.63,-469.9 480.4,-463.48"/>
</g>
<!-- Divide5 -->
<g id="node24" class="node">
<title>Divide5</title>
<path fill="lightskyblue" stroke="black" d="M508.34,-540C508.34,-540 356.34,-540 356.34,-540 350.34,-540 344.34,-534 344.34,-528 344.34,-528 344.34,-516 344.34,-516 344.34,-510 350.34,-504 356.34,-504 356.34,-504 508.34,-504 508.34,-504 514.34,-504 520.34,-510 520.34,-516 520.34,-516 520.34,-528 520.34,-528 520.34,-534 514.34,-540 508.34,-540"/>
<text text-anchor="middle" x="432.34" y="-518.3" font-family="Helvetica,sans-Serif" font-size="14.00">Absolute normalisation</text>
</g>
<!-- AbsoluteNormalisation&#45;&gt;Divide5 -->
<g id="edge24" class="edge">
<title>AbsoluteNormalisation&#45;&gt;Divide5</title>
<path fill="none" stroke="black" d="M524.59,-578.67C508.64,-569.04 487.3,-556.17 469.17,-545.23"/>
<polygon fill="black" stroke="black" points="470.93,-542.2 460.56,-540.03 467.32,-548.19 470.93,-542.2"/>
</g>
<!-- SingleCrystal -->
<g id="node6" class="node">
<title>SingleCrystal</title>
<polygon fill="limegreen" stroke="black" points="231.34,-180 132.3,-162 231.34,-144 330.38,-162 231.34,-180"/>
<text text-anchor="middle" x="231.34" y="-158.3" font-family="Helvetica,sans-Serif" font-size="14.00">SingleCrystal</text>
</g>
<!-- Plus2 -->
<g id="node26" class="node">
<title>Plus2</title>
<path fill="lightskyblue" stroke="black" d="M247.34,-108C247.34,-108 203.34,-108 203.34,-108 197.34,-108 191.34,-102 191.34,-96 191.34,-96 191.34,-84 191.34,-84 191.34,-78 197.34,-72 203.34,-72 203.34,-72 247.34,-72 247.34,-72 253.34,-72 259.34,-78 259.34,-84 259.34,-84 259.34,-96 259.34,-96 259.34,-102 253.34,-108 247.34,-108"/>
<text text-anchor="middle" x="225.34" y="-86.3" font-family="Helvetica,sans-Serif" font-size="14.00">QRebin</text>
</g>
<!-- SingleCrystal&#45;&gt;Plus2 -->
<g id="edge36" class="edge">
<title>SingleCrystal&#45;&gt;Plus2</title>
<path fill="none" stroke="black" d="M229.89,-144.05C229.23,-136.35 228.43,-127.03 227.69,-118.36"/>
<polygon fill="black" stroke="black" points="231.16,-117.94 226.82,-108.28 224.19,-118.54 231.16,-117.94"/>
</g>
<!-- OutputTreatment&#45;&gt;AverageCounts -->
<g id="edge27" class="edge">
<title>OutputTreatment&#45;&gt;AverageCounts</title>
<path fill="none" stroke="black" d="M417.15,-433.81C407.57,-424.23 395.04,-411.7 384.38,-401.04"/>
<polygon fill="black" stroke="black" points="386.57,-398.28 377.02,-393.68 381.62,-403.23 386.57,-398.28"/>
</g>
<!-- OutputTreatment&#45;&gt;OutputUnits -->
<g id="edge28" class="edge">
<title>OutputTreatment&#45;&gt;OutputUnits</title>
<path fill="none" stroke="black" d="M452.21,-434.75C463.68,-425.24 477.04,-411.63 483.34,-396 489.32,-381.16 486.75,-375.63 483.34,-360 475.83,-325.61 468.91,-317.9 450.34,-288 443.74,-277.36 435.26,-266.48 427.58,-257.36"/>
<polygon fill="black" stroke="black" points="430.01,-254.83 420.83,-249.55 424.71,-259.4 430.01,-254.83"/>
</g>
<!-- OutputUnits&#45;&gt;SingleCrystal -->
<g id="edge35" class="edge">
<title>OutputUnits&#45;&gt;SingleCrystal</title>
<path fill="none" stroke="black" d="M378.28,-221.44C348.81,-209.72 303.03,-191.51 270.41,-178.54"/>
<polygon fill="black" stroke="black" points="271.32,-175.14 260.74,-174.69 268.74,-181.64 271.32,-175.14"/>
</g>
<!-- ConvertTo2Theta -->
<g id="node29" class="node">
<title>ConvertTo2Theta</title>
<ellipse fill="lightgrey" stroke="black" cx="364.34" cy="-90" rx="87.18" ry="18"/>
<text text-anchor="middle" x="364.34" y="-86.3" font-family="Helvetica,sans-Serif" font-size="14.00">ConvertTo2Theta</text>
</g>
<!-- OutputUnits&#45;&gt;ConvertTo2Theta -->
<g id="edge37" class="edge">
<title>OutputUnits&#45;&gt;ConvertTo2Theta</title>
<path fill="none" stroke="black" d="M398.06,-217.76C392.16,-207.44 384.82,-193.31 380.34,-180 373.55,-159.82 369.46,-136.04 367.12,-118.14"/>
<polygon fill="black" stroke="black" points="370.58,-117.61 365.91,-108.1 363.63,-118.45 370.58,-117.61"/>
</g>
<!-- ConvertToQ -->
<g id="node30" class="node">
<title>ConvertToQ</title>
<ellipse fill="lightgrey" stroke="black" cx="453.34" cy="-162" rx="63.89" ry="18"/>
<text text-anchor="middle" x="453.34" y="-158.3" font-family="Helvetica,sans-Serif" font-size="14.00">ConvertToQ</text>
</g>
<!-- OutputUnits&#45;&gt;ConvertToQ -->
<g id="edge38" class="edge">
<title>OutputUnits&#45;&gt;ConvertToQ</title>
<path fill="none" stroke="black" d="M417.32,-217.81C422.9,-209.31 430.01,-198.49 436.44,-188.72"/>
<polygon fill="black" stroke="black" points="439.52,-190.41 442.08,-180.13 433.67,-186.56 439.52,-190.41"/>
</g>
<!-- ConvertToSofQW -->
<g id="node31" class="node">
<title>ConvertToSofQW</title>
<ellipse fill="lightgrey" stroke="black" cx="622.34" cy="-162" rx="87.18" ry="18"/>
<text text-anchor="middle" x="622.34" y="-158.3" font-family="Helvetica,sans-Serif" font-size="14.00">ConvertToSofQW</text>
</g>
<!-- OutputUnits&#45;&gt;ConvertToSofQW -->
<g id="edge39" class="edge">
<title>OutputUnits&#45;&gt;ConvertToSofQW</title>
<path fill="none" stroke="black" d="M440.46,-222.22C474.41,-211.16 527.78,-193.79 567.94,-180.71"/>
<polygon fill="black" stroke="black" points="569.16,-183.99 577.59,-177.57 567,-177.34 569.16,-183.99"/>
</g>
<!-- InputWorkspace -->
<g id="node9" class="node">
<title>InputWorkspace</title>
<ellipse fill="khaki" stroke="black" cx="232.34" cy="-1170" rx="84.49" ry="18"/>
<text text-anchor="middle" x="232.34" y="-1166.3" font-family="Helvetica,sans-Serif" font-size="14.00">InputWorkspace</text>
</g>
<!-- InputWorkspace&#45;&gt;CrossSectionSeparationMethod -->
<g id="edge1" class="edge">
<title>InputWorkspace&#45;&gt;CrossSectionSeparationMethod</title>
<path fill="none" stroke="black" d="M232.34,-1151.7C232.34,-1143.98 232.34,-1134.71 232.34,-1126.11"/>
<polygon fill="black" stroke="black" points="235.84,-1126.1 232.34,-1116.1 228.84,-1126.1 235.84,-1126.1"/>
</g>
<!-- RotatedXYZWorkspace -->
<g id="node10" class="node">
<title>RotatedXYZWorkspace</title>
<ellipse fill="khaki" stroke="black" cx="551.34" cy="-1026" rx="113.98" ry="18"/>
<text text-anchor="middle" x="551.34" y="-1022.3" font-family="Helvetica,sans-Serif" font-size="14.00">RotatedXYZWorkspace</text>
</g>
<!-- Minus4 -->
<g id="node19" class="node">
<title>Minus4</title>
<path fill="lightskyblue" stroke="black" d="M576.84,-972C576.84,-972 525.84,-972 525.84,-972 519.84,-972 513.84,-966 513.84,-960 513.84,-960 513.84,-948 513.84,-948 513.84,-942 519.84,-936 525.84,-936 525.84,-936 576.84,-936 576.84,-936 582.84,-936 588.84,-942 588.84,-948 588.84,-948 588.84,-960 588.84,-960 588.84,-966 582.84,-972 576.84,-972"/>
<text text-anchor="middle" x="551.34" y="-950.3" font-family="Helvetica,sans-Serif" font-size="14.00">10&#45;point</text>
</g>
<!-- RotatedXYZWorkspace&#45;&gt;Minus4 -->
<g id="edge8" class="edge">
<title>RotatedXYZWorkspace&#45;&gt;Minus4</title>
<path fill="none" stroke="black" d="M551.34,-1007.7C551.34,-999.98 551.34,-990.71 551.34,-982.11"/>
<polygon fill="black" stroke="black" points="554.84,-982.1 551.34,-972.1 547.84,-982.1 554.84,-982.1"/>
</g>
<!-- VanadiumInputWorkspace -->
<g id="node11" class="node">
<title>VanadiumInputWorkspace</title>
<ellipse fill="khaki" stroke="black" cx="453.34" cy="-738" rx="129.98" ry="18"/>
<text text-anchor="middle" x="453.34" y="-734.3" font-family="Helvetica,sans-Serif" font-size="14.00">VanadiumInputWorkspace</text>
</g>
<!-- Divide2 -->
<g id="node21" class="node">
<title>Divide2</title>
<path fill="lightskyblue" stroke="black" d="M484.34,-684C484.34,-684 422.34,-684 422.34,-684 416.34,-684 410.34,-678 410.34,-672 410.34,-672 410.34,-660 410.34,-660 410.34,-654 416.34,-648 422.34,-648 422.34,-648 484.34,-648 484.34,-648 490.34,-648 496.34,-654 496.34,-660 496.34,-660 496.34,-672 496.34,-672 496.34,-678 490.34,-684 484.34,-684"/>
<text text-anchor="middle" x="453.34" y="-662.3" font-family="Helvetica,sans-Serif" font-size="14.00">Vanadium</text>
</g>
<!-- VanadiumInputWorkspace&#45;&gt;Divide2 -->
<g id="edge17" class="edge">
<title>VanadiumInputWorkspace&#45;&gt;Divide2</title>
<path fill="none" stroke="black" d="M453.34,-719.7C453.34,-711.98 453.34,-702.71 453.34,-694.11"/>
<polygon fill="black" stroke="black" points="456.84,-694.1 453.34,-684.1 449.84,-694.1 456.84,-694.1"/>
</g>
<!-- SampleAndEnvironmentProperties -->
<g id="node12" class="node">
<title>SampleAndEnvironmentProperties</title>
<ellipse fill="khaki" stroke="black" cx="662.34" cy="-810" rx="165.17" ry="18"/>
<text text-anchor="middle" x="662.34" y="-806.3" font-family="Helvetica,sans-Serif" font-size="14.00">SampleAndEnvironmentProperties</text>
</g>
<!-- SampleAndEnvironmentProperties&#45;&gt;Divide -->
<g id="edge16" class="edge">
<title>SampleAndEnvironmentProperties&#45;&gt;Divide</title>
<path fill="none" stroke="black" d="M662.34,-791.7C662.34,-783.98 662.34,-774.71 662.34,-766.11"/>
<polygon fill="black" stroke="black" points="665.84,-766.1 662.34,-756.1 658.84,-766.1 665.84,-766.1"/>
</g>
<!-- ScatteringAngleBinSize -->
<g id="node13" class="node">
<title>ScatteringAngleBinSize</title>
<ellipse fill="khaki" stroke="black" cx="116.34" cy="-378" rx="116.18" ry="18"/>
<text text-anchor="middle" x="116.34" y="-374.3" font-family="Helvetica,sans-Serif" font-size="14.00">ScatteringAngleBinSize</text>
</g>
<!-- ScatteringAngleBinSize&#45;&gt;SumOverlappingTubes -->
<g id="edge29" class="edge">
<title>ScatteringAngleBinSize&#45;&gt;SumOverlappingTubes</title>
<path fill="none" stroke="black" d="M135.46,-360.05C145.38,-351.26 157.67,-340.38 168.52,-330.76"/>
<polygon fill="black" stroke="black" points="170.95,-333.28 176.12,-324.03 166.31,-328.04 170.95,-333.28"/>
</g>
<!-- OutputWorkspace -->
<g id="node14" class="node">
<title>OutputWorkspace</title>
<polygon fill="grey" stroke="black" points="559.69,-36 339.6,-36 282.99,0 503.08,0 559.69,-36"/>
<text text-anchor="middle" x="421.34" y="-14.3" font-family="Times,serif" font-size="14.00">OutputWorkspace</text>
</g>
<!-- Minus&#45;&gt;IsotropicMagnetism -->
<g id="edge5" class="edge">
<title>Minus&#45;&gt;IsotropicMagnetism</title>
<path fill="none" stroke="black" d="M308.16,-1007.7C316.34,-998.75 326.43,-987.71 335.26,-978.06"/>
<polygon fill="black" stroke="black" points="337.85,-980.41 342.01,-970.67 332.68,-975.69 337.85,-980.41"/>
</g>
<!-- Minus2 -->
<g id="node16" class="node">
<title>Minus2</title>
<path fill="lightskyblue" stroke="black" d="M225.34,-900C225.34,-900 177.34,-900 177.34,-900 171.34,-900 165.34,-894 165.34,-888 165.34,-888 165.34,-876 165.34,-876 165.34,-870 171.34,-864 177.34,-864 177.34,-864 225.34,-864 225.34,-864 231.34,-864 237.34,-870 237.34,-876 237.34,-876 237.34,-888 237.34,-888 237.34,-894 231.34,-900 225.34,-900"/>
<text text-anchor="middle" x="201.34" y="-878.3" font-family="Helvetica,sans-Serif" font-size="14.00">Uniaxial</text>
</g>
<!-- Minus&#45;&gt;Minus2 -->
<g id="edge4" class="edge">
<title>Minus&#45;&gt;Minus2</title>
<path fill="none" stroke="black" d="M248.31,-1007.78C232.72,-999.39 216.73,-987.66 207.34,-972 196.23,-953.48 195.44,-928.74 197.03,-910.04"/>
<polygon fill="black" stroke="black" points="200.51,-910.42 198.14,-900.09 193.55,-909.64 200.51,-910.42"/>
</g>
<!-- Minus&#45;&gt;Minus4 -->
<g id="edge9" class="edge">
<title>Minus&#45;&gt;Minus4</title>
<path fill="none" stroke="black" d="M369.8,-1007.89C407.99,-998.95 454.84,-987.22 504.22,-972.2"/>
<polygon fill="black" stroke="black" points="505.27,-975.54 513.8,-969.26 503.21,-968.85 505.27,-975.54"/>
</g>
<!-- Minus2&#45;&gt;NormalisationMethod -->
<g id="edge10" class="edge">
<title>Minus2&#45;&gt;NormalisationMethod</title>
<path fill="none" stroke="black" d="M228.49,-863.88C244.31,-853.9 264.32,-841.29 280.82,-830.88"/>
<polygon fill="black" stroke="black" points="282.99,-833.65 289.58,-825.35 279.26,-827.73 282.99,-833.65"/>
</g>
<!-- Minus3&#45;&gt;NormalisationMethod -->
<g id="edge11" class="edge">
<title>Minus3&#45;&gt;NormalisationMethod</title>
<path fill="none" stroke="black" d="M312.34,-863.7C312.34,-855.98 312.34,-846.71 312.34,-838.11"/>
<polygon fill="black" stroke="black" points="315.84,-838.1 312.34,-828.1 308.84,-838.1 315.84,-838.1"/>
</g>
<!-- Minus31&#45;&gt;NormalisationMethod -->
<g id="edge12" class="edge">
<title>Minus31&#45;&gt;NormalisationMethod</title>
<path fill="none" stroke="black" d="M420.36,-863.88C398.94,-853.39 371.55,-839.99 349.71,-829.29"/>
<polygon fill="black" stroke="black" points="351.25,-826.15 340.73,-824.9 348.17,-832.44 351.25,-826.15"/>
</g>
<!-- Minus4&#45;&gt;NormalisationMethod -->
<g id="edge13" class="edge">
<title>Minus4&#45;&gt;NormalisationMethod</title>
<path fill="none" stroke="black" d="M552.7,-935.78C553.28,-915.79 550.97,-883.13 532.34,-864 512.82,-843.97 446.96,-829.82 392.34,-821.21"/>
<polygon fill="black" stroke="black" points="392.7,-817.73 382.28,-819.67 391.64,-824.65 392.7,-817.73"/>
</g>
<!-- Divide&#45;&gt;Divide2 -->
<g id="edge18" class="edge">
<title>Divide&#45;&gt;Divide2</title>
<path fill="none" stroke="black" d="M611.48,-719.97C579.61,-709.29 538.62,-695.56 506.36,-684.76"/>
<polygon fill="black" stroke="black" points="507.24,-681.36 496.64,-681.5 505.01,-688 507.24,-681.36"/>
</g>
<!-- Divide3 -->
<g id="node22" class="node">
<title>Divide3</title>
<path fill="lightskyblue" stroke="black" d="M614.34,-684C614.34,-684 526.34,-684 526.34,-684 520.34,-684 514.34,-678 514.34,-672 514.34,-672 514.34,-660 514.34,-660 514.34,-654 520.34,-648 526.34,-648 526.34,-648 614.34,-648 614.34,-648 620.34,-648 626.34,-654 626.34,-660 626.34,-660 626.34,-672 626.34,-672 626.34,-678 620.34,-684 614.34,-684"/>
<text text-anchor="middle" x="570.34" y="-662.3" font-family="Helvetica,sans-Serif" font-size="14.00">Paramagnetic</text>
</g>
<!-- Divide&#45;&gt;Divide3 -->
<g id="edge19" class="edge">
<title>Divide&#45;&gt;Divide3</title>
<path fill="none" stroke="black" d="M639.6,-719.7C627.9,-710.8 613.48,-699.82 600.83,-690.2"/>
<polygon fill="black" stroke="black" points="602.9,-687.37 592.82,-684.1 598.66,-692.94 602.9,-687.37"/>
</g>
<!-- Divide4 -->
<g id="node23" class="node">
<title>Divide4</title>
<path fill="lightskyblue" stroke="black" d="M723.84,-684C723.84,-684 656.84,-684 656.84,-684 650.84,-684 644.84,-678 644.84,-672 644.84,-672 644.84,-660 644.84,-660 644.84,-654 650.84,-648 656.84,-648 656.84,-648 723.84,-648 723.84,-648 729.84,-648 735.84,-654 735.84,-660 735.84,-660 735.84,-672 735.84,-672 735.84,-678 729.84,-684 723.84,-684"/>
<text text-anchor="middle" x="690.34" y="-662.3" font-family="Helvetica,sans-Serif" font-size="14.00">Incoherent</text>
</g>
<!-- Divide&#45;&gt;Divide4 -->
<g id="edge20" class="edge">
<title>Divide&#45;&gt;Divide4</title>
<path fill="none" stroke="black" d="M669.26,-719.7C672.41,-711.81 676.22,-702.3 679.72,-693.55"/>
<polygon fill="black" stroke="black" points="683.03,-694.69 683.5,-684.1 676.53,-692.09 683.03,-694.69"/>
</g>
<!-- Divide2&#45;&gt;AbsoluteNormalisation -->
<g id="edge21" class="edge">
<title>Divide2&#45;&gt;AbsoluteNormalisation</title>
<path fill="none" stroke="black" d="M476.82,-647.7C489.93,-638.04 506.34,-625.95 520.14,-615.78"/>
<polygon fill="black" stroke="black" points="522.36,-618.49 528.34,-609.74 518.21,-612.85 522.36,-618.49"/>
</g>
<!-- Divide3&#45;&gt;AbsoluteNormalisation -->
<g id="edge22" class="edge">
<title>Divide3&#45;&gt;AbsoluteNormalisation</title>
<path fill="none" stroke="black" d="M564.9,-647.7C562.41,-639.78 559.41,-630.23 556.65,-621.44"/>
<polygon fill="black" stroke="black" points="559.9,-620.11 553.56,-611.62 553.22,-622.21 559.9,-620.11"/>
</g>
<!-- Divide4&#45;&gt;AbsoluteNormalisation -->
<g id="edge23" class="edge">
<title>Divide4&#45;&gt;AbsoluteNormalisation</title>
<path fill="none" stroke="black" d="M655.6,-647.88C634.43,-637.44 607.38,-624.1 585.74,-613.44"/>
<polygon fill="black" stroke="black" points="587.04,-610.18 576.53,-608.9 583.95,-616.46 587.04,-610.18"/>
</g>
<!-- Divide5&#45;&gt;OutputTreatment -->
<g id="edge26" class="edge">
<title>Divide5&#45;&gt;OutputTreatment</title>
<path fill="none" stroke="black" d="M432.34,-503.7C432.34,-495.98 432.34,-486.71 432.34,-478.11"/>
<polygon fill="black" stroke="black" points="435.84,-478.1 432.34,-468.1 428.84,-478.1 435.84,-478.1"/>
</g>
<!-- Plus&#45;&gt;OutputUnits -->
<g id="edge34" class="edge">
<title>Plus&#45;&gt;OutputUnits</title>
<path fill="none" stroke="black" d="M373.46,-287.7C379.06,-278.98 385.94,-268.28 392.03,-258.81"/>
<polygon fill="black" stroke="black" points="395.1,-260.51 397.57,-250.2 389.21,-256.72 395.1,-260.51"/>
</g>
<!-- Plus2&#45;&gt;OutputWorkspace -->
<g id="edge40" class="edge">
<title>Plus2&#45;&gt;OutputWorkspace</title>
<path fill="none" stroke="black" d="M259.56,-75.32C262.52,-74.18 265.48,-73.06 268.34,-72 298.64,-60.77 332.57,-48.94 360.77,-39.31"/>
<polygon fill="black" stroke="black" points="362.15,-42.54 370.49,-36 359.9,-35.91 362.15,-42.54"/>
</g>
<!-- SOfQWNormalisedPolygon -->
<g id="node27" class="node">
<title>SOfQWNormalisedPolygon</title>
<path fill="lightskyblue" stroke="black" d="M701.34,-108C701.34,-108 525.34,-108 525.34,-108 519.34,-108 513.34,-102 513.34,-96 513.34,-96 513.34,-84 513.34,-84 513.34,-78 519.34,-72 525.34,-72 525.34,-72 701.34,-72 701.34,-72 707.34,-72 713.34,-78 713.34,-84 713.34,-84 713.34,-96 713.34,-96 713.34,-102 707.34,-108 701.34,-108"/>
<text text-anchor="middle" x="613.34" y="-86.3" font-family="Helvetica,sans-Serif" font-size="14.00">SOfQWNormalisedPolygon</text>
</g>
<!-- SOfQWNormalisedPolygon&#45;&gt;OutputWorkspace -->
<g id="edge44" class="edge">
<title>SOfQWNormalisedPolygon&#45;&gt;OutputWorkspace</title>
<path fill="none" stroke="black" d="M566.37,-71.88C539.66,-62.14 506.02,-49.87 477.86,-39.61"/>
<polygon fill="black" stroke="black" points="478.75,-36.21 468.16,-36.07 476.35,-42.78 478.75,-36.21"/>
</g>
<!-- SumOverlappingTubes&#45;&gt;OutputUnits -->
<g id="edge33" class="edge">
<title>SumOverlappingTubes&#45;&gt;OutputUnits</title>
<path fill="none" stroke="black" d="M246.93,-287.97C283.18,-275.99 331.09,-260.18 365.08,-248.95"/>
<polygon fill="black" stroke="black" points="366.32,-252.23 374.72,-245.77 364.12,-245.58 366.32,-252.23"/>
</g>
<!-- ConvertTo2Theta&#45;&gt;OutputWorkspace -->
<g id="edge42" class="edge">
<title>ConvertTo2Theta&#45;&gt;OutputWorkspace</title>
<path fill="none" stroke="black" d="M378.14,-72.05C384.97,-63.67 393.35,-53.38 400.9,-44.1"/>
<polygon fill="black" stroke="black" points="403.67,-46.24 407.27,-36.28 398.24,-41.82 403.67,-46.24"/>
</g>
<!-- ConvertToQ&#45;&gt;OutputWorkspace -->
<g id="edge41" class="edge">
<title>ConvertToQ&#45;&gt;OutputWorkspace</title>
<path fill="none" stroke="black" d="M458.56,-143.8C463.23,-125.52 468.22,-96 460.34,-72 457.03,-61.91 450.97,-52.15 444.61,-43.82"/>
<polygon fill="black" stroke="black" points="447.26,-41.54 438.23,-36.01 441.84,-45.97 447.26,-41.54"/>
</g>
<!-- ConvertToSofQW&#45;&gt;SOfQWNormalisedPolygon -->
<g id="edge43" class="edge">
<title>ConvertToSofQW&#45;&gt;SOfQWNormalisedPolygon</title>
<path fill="none" stroke="black" d="M620.11,-143.7C619.12,-135.98 617.93,-126.71 616.83,-118.11"/>
<polygon fill="black" stroke="black" points="620.29,-117.58 615.54,-108.1 613.34,-118.47 620.29,-117.58"/>
</g>
</g>
</svg>
