<?xml version="1.0" encoding="UTF-8" standalone="no"?>
<!DOCTYPE svg PUBLIC "-//W3C//DTD SVG 1.1//EN"
 "http://www.w3.org/Graphics/SVG/1.1/DTD/svg11.dtd">
<!-- Generated by graphviz version 2.47.2 (20210527.1257)
 -->
<!-- Title: ReflectometryReductionOne Pages: 1 -->
<svg width="665pt" height="1207pt"
 viewBox="0.00 0.00 665.03 1207.00" xmlns="http://www.w3.org/2000/svg" xmlns:xlink="http://www.w3.org/1999/xlink">
<g id="graph0" class="graph" transform="scale(1 1) rotate(0) translate(4 1203)">
<title>ReflectometryReductionOne</title>
<polygon fill="white" stroke="transparent" points="-4,4 -4,-1203 661.03,-1203 661.03,4 -4,4"/>
<text text-anchor="middle" x="328.52" y="-1183.8" font-family="Helvetica" font-size="14.00">ReflectometryReductionOne Flowchart</text>
<!-- inputWorkspace -->
<g id="node1" class="node">
<title>inputWorkspace</title>
<ellipse fill="khaki" stroke="black" cx="74.09" cy="-1158" rx="74.19" ry="18"/>
<text text-anchor="middle" x="74.09" y="-1154.3" font-family="Helvetica" font-size="14.00">InputWorkspace</text>
</g>
<!-- checkHardMask -->
<g id="node8" class="node">
<title>checkHardMask</title>
<polygon fill="limegreen" stroke="black" points="167.09,-1103 25.49,-1085 167.09,-1067 308.69,-1085 167.09,-1103"/>
<text text-anchor="middle" x="167.09" y="-1081.3" font-family="Helvetica" font-size="14.00">HardMaskWorkspace?</text>
</g>
<!-- inputWorkspace&#45;&gt;checkHardMask -->
<g id="edge1" class="edge">
<title>inputWorkspace&#45;&gt;checkHardMask</title>
<path fill="none" stroke="black" d="M95.66,-1140.53C108.73,-1130.56 125.52,-1117.74 139.54,-1107.04"/>
<polygon fill="black" stroke="black" points="142.03,-1109.54 147.85,-1100.69 137.78,-1103.98 142.03,-1109.54"/>
</g>
<!-- hardMaskWorkspace -->
<g id="node2" class="node">
<title>hardMaskWorkspace</title>
<ellipse fill="khaki" stroke="black" cx="261.09" cy="-1158" rx="94.78" ry="18"/>
<text text-anchor="middle" x="261.09" y="-1154.3" font-family="Helvetica" font-size="14.00">HardMaskWorkspace</text>
</g>
<!-- hardMaskWorkspace&#45;&gt;checkHardMask -->
<g id="edge2" class="edge">
<title>hardMaskWorkspace&#45;&gt;checkHardMask</title>
<path fill="none" stroke="black" d="M238.82,-1140.17C225.69,-1130.26 208.96,-1117.62 194.97,-1107.05"/>
<polygon fill="black" stroke="black" points="196.75,-1104.01 186.66,-1100.78 192.53,-1109.6 196.75,-1104.01"/>
</g>
<!-- outputWorkspace -->
<g id="node3" class="node">
<title>outputWorkspace</title>
<ellipse fill="khaki" stroke="black" cx="409.09" cy="-18" rx="81.49" ry="18"/>
<text text-anchor="middle" x="409.09" y="-14.3" font-family="Helvetica" font-size="14.00">OutputWorkspace</text>
</g>
<!-- detVanCompare -->
<g id="node4" class="node">
<title>detVanCompare</title>
<ellipse fill="khaki" stroke="black" cx="324.09" cy="-916.5" rx="76.09" ry="18"/>
<text text-anchor="middle" x="324.09" y="-912.8" font-family="Helvetica" font-size="14.00">DetVanCompare</text>
</g>
<!-- checkDetVanComp -->
<g id="node9" class="node">
<title>checkDetVanComp</title>
<polygon fill="limegreen" stroke="black" points="277.09,-853 162.3,-835 277.09,-817 391.88,-835 277.09,-853"/>
<text text-anchor="middle" x="277.09" y="-831.3" font-family="Helvetica" font-size="14.00">DetVanCompare?</text>
</g>
<!-- detVanCompare&#45;&gt;checkDetVanComp -->
<g id="edge7" class="edge">
<title>detVanCompare&#45;&gt;checkDetVanComp</title>
<path fill="none" stroke="black" d="M314.13,-898.64C307.6,-887.6 298.96,-872.98 291.66,-860.65"/>
<polygon fill="black" stroke="black" points="294.51,-858.58 286.41,-851.75 288.48,-862.14 294.51,-858.58"/>
</g>
<!-- sampleTotWorkspace -->
<g id="node5" class="node">
<title>sampleTotWorkspace</title>
<ellipse fill="khaki" stroke="black" cx="452.09" cy="-644" rx="131.08" ry="18"/>
<text text-anchor="middle" x="452.09" y="-640.3" font-family="Helvetica" font-size="14.00">SampleTotalCountsWorkspace</text>
</g>
<!-- checkSampleTot -->
<g id="node10" class="node">
<title>checkSampleTot</title>
<polygon fill="limegreen" stroke="black" points="293.09,-589 100.89,-571 293.09,-553 485.3,-571 293.09,-589"/>
<text text-anchor="middle" x="293.09" y="-567.3" font-family="Helvetica" font-size="14.00">SampleTotalCountsWorkspace?</text>
</g>
<!-- sampleTotWorkspace&#45;&gt;checkSampleTot -->
<g id="edge12" class="edge">
<title>sampleTotWorkspace&#45;&gt;checkSampleTot</title>
<path fill="none" stroke="black" d="M415.22,-626.53C390.89,-615.67 359.01,-601.44 333.93,-590.23"/>
<polygon fill="black" stroke="black" points="335.23,-586.98 324.67,-586.1 332.38,-593.37 335.23,-586.98"/>
</g>
<!-- sampleBkgWorkspace -->
<g id="node6" class="node">
<title>sampleBkgWorkspace</title>
<ellipse fill="khaki" stroke="black" cx="525.09" cy="-484" rx="131.88" ry="18"/>
<text text-anchor="middle" x="525.09" y="-480.3" font-family="Helvetica" font-size="14.00">SampleBackgroundWorkspace</text>
</g>
<!-- checkSampleBkg -->
<g id="node11" class="node">
<title>checkSampleBkg</title>
<polygon fill="limegreen" stroke="black" points="357.09,-429 164.05,-411 357.09,-393 550.14,-411 357.09,-429"/>
<text text-anchor="middle" x="357.09" y="-407.3" font-family="Helvetica" font-size="14.00">SampleBackgroundWorkspace?</text>
</g>
<!-- sampleBkgWorkspace&#45;&gt;checkSampleBkg -->
<g id="edge15" class="edge">
<title>sampleBkgWorkspace&#45;&gt;checkSampleBkg</title>
<path fill="none" stroke="black" d="M486.55,-466.71C460.58,-455.74 426.32,-441.25 399.56,-429.95"/>
<polygon fill="black" stroke="black" points="400.65,-426.61 390.07,-425.94 397.92,-433.06 400.65,-426.61"/>
</g>
<!-- sampleWorkspace -->
<g id="node7" class="node">
<title>sampleWorkspace</title>
<ellipse fill="khaki" stroke="black" cx="530.09" cy="-324" rx="85.29" ry="18"/>
<text text-anchor="middle" x="530.09" y="-320.3" font-family="Helvetica" font-size="14.00">SampleWorkspace</text>
</g>
<!-- checkSample -->
<g id="node12" class="node">
<title>checkSample</title>
<polygon fill="limegreen" stroke="black" points="409.09,-269 282.41,-251 409.09,-233 535.78,-251 409.09,-269"/>
<text text-anchor="middle" x="409.09" y="-247.3" font-family="Helvetica" font-size="14.00">SampleWorkspace?</text>
</g>
<!-- sampleWorkspace&#45;&gt;checkSample -->
<g id="edge20" class="edge">
<title>sampleWorkspace&#45;&gt;checkSample</title>
<path fill="none" stroke="black" d="M502.64,-306.89C484.46,-296.22 460.54,-282.19 441.44,-270.98"/>
<polygon fill="black" stroke="black" points="443.16,-267.93 432.77,-265.89 439.62,-273.97 443.16,-267.93"/>
</g>
<!-- useHardMask -->
<g id="node13" class="node">
<title>useHardMask</title>
<path fill="lightskyblue" stroke="black" d="M141.59,-1016C141.59,-1016 58.59,-1016 58.59,-1016 52.59,-1016 46.59,-1010 46.59,-1004 46.59,-1004 46.59,-992 46.59,-992 46.59,-986 52.59,-980 58.59,-980 58.59,-980 141.59,-980 141.59,-980 147.59,-980 153.59,-986 153.59,-992 153.59,-992 153.59,-1004 153.59,-1004 153.59,-1010 147.59,-1016 141.59,-1016"/>
<text text-anchor="middle" x="100.09" y="-994.3" font-family="Helvetica" font-size="14.00">MaskDetectors</text>
</g>
<!-- checkHardMask&#45;&gt;useHardMask -->
<g id="edge3" class="edge">
<title>checkHardMask&#45;&gt;useHardMask</title>
<path fill="none" stroke="black" d="M154.8,-1068.41C145.08,-1056.07 131.3,-1038.59 120,-1024.26"/>
<polygon fill="black" stroke="black" points="122.63,-1021.93 113.69,-1016.25 117.13,-1026.27 122.63,-1021.93"/>
<text text-anchor="middle" x="149.59" y="-1037.8" font-family="Helvetica" font-size="14.00">Yes</text>
</g>
<!-- doDetVanTest2I -->
<g id="node19" class="node">
<title>doDetVanTest2I</title>
<polygon fill="lightseagreen" stroke="black" points="229.59,-943 92.59,-943 92.59,-890 229.59,-890 229.59,-943"/>
<text text-anchor="middle" x="161.09" y="-927.8" font-family="Helvetica" font-size="14.00">Do Detector</text>
<text text-anchor="middle" x="161.09" y="-912.8" font-family="Helvetica" font-size="14.00"> Vanadium Tests</text>
<text text-anchor="middle" x="161.09" y="-897.8" font-family="Helvetica" font-size="14.00"> on Input workspace</text>
</g>
<!-- checkHardMask&#45;&gt;doDetVanTest2I -->
<g id="edge4" class="edge">
<title>checkHardMask&#45;&gt;doDetVanTest2I</title>
<path fill="none" stroke="black" d="M166.47,-1066.81C165.52,-1040.23 163.65,-988.57 162.39,-953.56"/>
<polygon fill="black" stroke="black" points="165.88,-953.14 162.02,-943.27 158.88,-953.39 165.88,-953.14"/>
<text text-anchor="middle" x="174.09" y="-994.3" font-family="Helvetica" font-size="14.00">No</text>
</g>
<!-- checkDetVanComp&#45;&gt;checkSampleTot -->
<g id="edge9" class="edge">
<title>checkDetVanComp&#45;&gt;checkSampleTot</title>
<path fill="none" stroke="black" d="M278.14,-816.81C280.86,-772.29 288.15,-652.96 291.44,-599.07"/>
<polygon fill="black" stroke="black" points="294.94,-599.11 292.06,-588.91 287.96,-598.68 294.94,-599.11"/>
<text text-anchor="middle" x="295.09" y="-683.8" font-family="Helvetica" font-size="14.00">No</text>
</g>
<!-- doDetVanTest2DV -->
<g id="node20" class="node">
<title>doDetVanTest2DV</title>
<polygon fill="lightseagreen" stroke="black" points="260.09,-766 120.09,-766 120.09,-713 260.09,-713 260.09,-766"/>
<text text-anchor="middle" x="190.09" y="-750.8" font-family="Helvetica" font-size="14.00">Do Detector</text>
<text text-anchor="middle" x="190.09" y="-735.8" font-family="Helvetica" font-size="14.00"> Vanadium Tests</text>
<text text-anchor="middle" x="190.09" y="-720.8" font-family="Helvetica" font-size="14.00"> on DetVanCompare</text>
</g>
<!-- checkDetVanComp&#45;&gt;doDetVanTest2DV -->
<g id="edge8" class="edge">
<title>checkDetVanComp&#45;&gt;doDetVanTest2DV</title>
<path fill="none" stroke="black" d="M263.12,-818.98C251.72,-806.73 235.21,-788.99 220.78,-773.47"/>
<polygon fill="black" stroke="black" points="223.26,-771.01 213.88,-766.07 218.13,-775.77 223.26,-771.01"/>
<text text-anchor="middle" x="254.59" y="-787.8" font-family="Helvetica" font-size="14.00">Yes</text>
</g>
<!-- checkSampleTot&#45;&gt;checkSampleBkg -->
<g id="edge14" class="edge">
<title>checkSampleTot&#45;&gt;checkSampleBkg</title>
<path fill="none" stroke="black" d="M303.21,-553.71C311.27,-540.22 322.44,-520.36 330.09,-502 338.7,-481.36 345.83,-457.01 350.6,-438.85"/>
<polygon fill="black" stroke="black" points="354.04,-439.5 353.13,-428.95 347.26,-437.77 354.04,-439.5"/>
<text text-anchor="middle" x="351.09" y="-480.3" font-family="Helvetica" font-size="14.00">No</text>
</g>
<!-- findDetsOutLims -->
<g id="node15" class="node">
<title>findDetsOutLims</title>
<path fill="lightskyblue" stroke="black" d="M309.09,-502C309.09,-502 149.09,-502 149.09,-502 143.09,-502 137.09,-496 137.09,-490 137.09,-490 137.09,-478 137.09,-478 137.09,-472 143.09,-466 149.09,-466 149.09,-466 309.09,-466 309.09,-466 315.09,-466 321.09,-472 321.09,-478 321.09,-478 321.09,-490 321.09,-490 321.09,-496 315.09,-502 309.09,-502"/>
<text text-anchor="middle" x="229.09" y="-480.3" font-family="Helvetica" font-size="14.00">FindDetectorsOutsideLimits</text>
</g>
<!-- checkSampleTot&#45;&gt;findDetsOutLims -->
<g id="edge13" class="edge">
<title>checkSampleTot&#45;&gt;findDetsOutLims</title>
<path fill="none" stroke="black" d="M281.06,-554.01C271.82,-541.75 258.89,-524.57 248.24,-510.43"/>
<polygon fill="black" stroke="black" points="250.77,-507.97 241.96,-502.08 245.17,-512.18 250.77,-507.97"/>
<text text-anchor="middle" x="275.59" y="-523.8" font-family="Helvetica" font-size="14.00">Yes</text>
</g>
<!-- checkSampleBkg&#45;&gt;checkSample -->
<g id="edge18" class="edge">
<title>checkSampleBkg&#45;&gt;checkSample</title>
<path fill="none" stroke="black" d="M363.54,-393.33C368.77,-379.63 376.2,-359.66 382.09,-342 389.21,-320.66 396.5,-296.18 401.7,-278.15"/>
<polygon fill="black" stroke="black" points="405.12,-278.93 404.51,-268.35 398.39,-277 405.12,-278.93"/>
<text text-anchor="middle" x="402.09" y="-320.3" font-family="Helvetica" font-size="14.00">No</text>
</g>
<!-- medianDetTest -->
<g id="node16" class="node">
<title>medianDetTest</title>
<path fill="lightskyblue" stroke="black" d="M360.59,-342C360.59,-342 247.59,-342 247.59,-342 241.59,-342 235.59,-336 235.59,-330 235.59,-330 235.59,-318 235.59,-318 235.59,-312 241.59,-306 247.59,-306 247.59,-306 360.59,-306 360.59,-306 366.59,-306 372.59,-312 372.59,-318 372.59,-318 372.59,-330 372.59,-330 372.59,-336 366.59,-342 360.59,-342"/>
<text text-anchor="middle" x="304.09" y="-320.3" font-family="Helvetica" font-size="14.00">MedianDetectorTest</text>
</g>
<!-- checkSampleBkg&#45;&gt;medianDetTest -->
<g id="edge17" class="edge">
<title>checkSampleBkg&#45;&gt;medianDetTest</title>
<path fill="none" stroke="black" d="M346.87,-393.61C339.32,-381.5 328.89,-364.77 320.22,-350.87"/>
<polygon fill="black" stroke="black" points="323.09,-348.85 314.83,-342.21 317.15,-352.55 323.09,-348.85"/>
<text text-anchor="middle" x="344.59" y="-363.8" font-family="Helvetica" font-size="14.00">Yes</text>
</g>
<!-- createPSDBMask -->
<g id="node17" class="node">
<title>createPSDBMask</title>
<path fill="lightskyblue" stroke="black" d="M417.09,-182C417.09,-182 289.09,-182 289.09,-182 283.09,-182 277.09,-176 277.09,-170 277.09,-170 277.09,-158 277.09,-158 277.09,-152 283.09,-146 289.09,-146 289.09,-146 417.09,-146 417.09,-146 423.09,-146 429.09,-152 429.09,-158 429.09,-158 429.09,-170 429.09,-170 429.09,-176 423.09,-182 417.09,-182"/>
<text text-anchor="middle" x="353.09" y="-160.3" font-family="Helvetica" font-size="14.00">CreatePSDBleedMask</text>
</g>
<!-- checkSample&#45;&gt;createPSDBMask -->
<g id="edge21" class="edge">
<title>checkSample&#45;&gt;createPSDBMask</title>
<path fill="none" stroke="black" d="M398.82,-234.41C390.77,-222.19 379.39,-204.91 370,-190.66"/>
<polygon fill="black" stroke="black" points="372.88,-188.67 364.46,-182.25 367.03,-192.52 372.88,-188.67"/>
<text text-anchor="middle" x="395.59" y="-203.8" font-family="Helvetica" font-size="14.00">Yes</text>
</g>
<!-- extractMask -->
<g id="node18" class="node">
<title>extractMask</title>
<path fill="lightskyblue" stroke="black" d="M443.09,-109C443.09,-109 375.09,-109 375.09,-109 369.09,-109 363.09,-103 363.09,-97 363.09,-97 363.09,-85 363.09,-85 363.09,-79 369.09,-73 375.09,-73 375.09,-73 443.09,-73 443.09,-73 449.09,-73 455.09,-79 455.09,-85 455.09,-85 455.09,-97 455.09,-97 455.09,-103 449.09,-109 443.09,-109"/>
<text text-anchor="middle" x="409.09" y="-87.3" font-family="Helvetica" font-size="14.00">ExtractMask</text>
</g>
<!-- checkSample&#45;&gt;extractMask -->
<g id="edge22" class="edge">
<title>checkSample&#45;&gt;extractMask</title>
<path fill="none" stroke="black" d="M418.76,-234.21C429.98,-213.89 446,-177.45 438.09,-146 435.65,-136.3 431.1,-126.44 426.3,-117.85"/>
<polygon fill="black" stroke="black" points="429.22,-115.9 421.1,-109.09 423.2,-119.48 429.22,-115.9"/>
<text text-anchor="middle" x="449.09" y="-160.3" font-family="Helvetica" font-size="14.00">No</text>
</g>
<!-- useHardMask&#45;&gt;doDetVanTest2I -->
<g id="edge5" class="edge">
<title>useHardMask&#45;&gt;doDetVanTest2I</title>
<path fill="none" stroke="black" d="M113.33,-979.75C119.74,-971.4 127.66,-961.08 135.19,-951.26"/>
<polygon fill="black" stroke="black" points="138.08,-953.24 141.39,-943.18 132.53,-948.98 138.08,-953.24"/>
</g>
<!-- detEfficVar -->
<g id="node14" class="node">
<title>detEfficVar</title>
<path fill="lightskyblue" stroke="black" d="M253.09,-662C253.09,-662 99.09,-662 99.09,-662 93.09,-662 87.09,-656 87.09,-650 87.09,-650 87.09,-638 87.09,-638 87.09,-632 93.09,-626 99.09,-626 99.09,-626 253.09,-626 253.09,-626 259.09,-626 265.09,-632 265.09,-638 265.09,-638 265.09,-650 265.09,-650 265.09,-656 259.09,-662 253.09,-662"/>
<text text-anchor="middle" x="176.09" y="-640.3" font-family="Helvetica" font-size="14.00">DetectorEfficiencyVariation</text>
</g>
<!-- detEfficVar&#45;&gt;checkSampleTot -->
<g id="edge11" class="edge">
<title>detEfficVar&#45;&gt;checkSampleTot</title>
<path fill="none" stroke="black" d="M204.12,-625.99C220.81,-615.86 242.1,-602.94 259.67,-592.28"/>
<polygon fill="black" stroke="black" points="261.74,-595.12 268.47,-586.94 258.11,-589.14 261.74,-595.12"/>
</g>
<!-- findDetsOutLims&#45;&gt;checkSampleBkg -->
<g id="edge16" class="edge">
<title>findDetsOutLims&#45;&gt;checkSampleBkg</title>
<path fill="none" stroke="black" d="M259.75,-465.99C278.4,-455.65 302.28,-442.41 321.72,-431.62"/>
<polygon fill="black" stroke="black" points="323.54,-434.62 330.58,-426.7 320.14,-428.49 323.54,-434.62"/>
</g>
<!-- medianDetTest&#45;&gt;checkSample -->
<g id="edge19" class="edge">
<title>medianDetTest&#45;&gt;checkSample</title>
<path fill="none" stroke="black" d="M329.24,-305.99C344.4,-295.75 363.77,-282.65 379.63,-271.92"/>
<polygon fill="black" stroke="black" points="381.72,-274.74 388.04,-266.24 377.79,-268.94 381.72,-274.74"/>
</g>
<!-- createPSDBMask&#45;&gt;extractMask -->
<g id="edge23" class="edge">
<title>createPSDBMask&#45;&gt;extractMask</title>
<path fill="none" stroke="black" d="M366.65,-145.81C373.46,-137.18 381.84,-126.56 389.35,-117.03"/>
<polygon fill="black" stroke="black" points="392.22,-119.05 395.66,-109.03 386.72,-114.71 392.22,-119.05"/>
</g>
<!-- extractMask&#45;&gt;outputWorkspace -->
<g id="edge24" class="edge">
<title>extractMask&#45;&gt;outputWorkspace</title>
<path fill="none" stroke="black" d="M409.09,-72.81C409.09,-64.79 409.09,-55.05 409.09,-46.07"/>
<polygon fill="black" stroke="black" points="412.59,-46.03 409.09,-36.03 405.59,-46.03 412.59,-46.03"/>
</g>
<!-- doDetVanTest2I&#45;&gt;checkDetVanComp -->
<g id="edge6" class="edge">
<title>doDetVanTest2I&#45;&gt;checkDetVanComp</title>
<path fill="none" stroke="black" d="M198.44,-889.91C214.6,-878.83 233.23,-866.06 248.3,-855.73"/>
<polygon fill="black" stroke="black" points="250.45,-858.5 256.72,-849.96 246.49,-852.73 250.45,-858.5"/>
</g>
<!-- doDetVanTest2DV&#45;&gt;detEfficVar -->
<g id="edge10" class="edge">
<title>doDetVanTest2DV&#45;&gt;detEfficVar</title>
<path fill="none" stroke="black" d="M186.27,-712.95C184.38,-700.36 182.11,-685.17 180.19,-672.35"/>
<polygon fill="black" stroke="black" points="183.62,-671.62 178.68,-662.24 176.7,-672.65 183.62,-671.62"/>
</g>
</g>
</svg>
