<?xml version="1.0" encoding="UTF-8" standalone="no"?>
<!DOCTYPE svg PUBLIC "-//W3C//DTD SVG 1.1//EN"
 "http://www.w3.org/Graphics/SVG/1.1/DTD/svg11.dtd">
<!-- Generated by graphviz version 2.40.1 (20161225.0304)
 -->
<!-- Title: DgsReduction Pages: 1 -->
<svg width="1194pt" height="1582pt"
 viewBox="0.00 0.00 1194.05 1581.65" xmlns="http://www.w3.org/2000/svg" xmlns:xlink="http://www.w3.org/1999/xlink">
<g id="graph0" class="graph" transform="scale(1 1) rotate(0) translate(4 1577.6468)">
<title>DgsReduction</title>
<polygon fill="#ffffff" stroke="transparent" points="-4,4 -4,-1577.6468 1190.0476,-1577.6468 1190.0476,4 -4,4"/>
<text text-anchor="middle" x="593.0238" y="-1558.4468" font-family="Helvetica,sans-Serif" font-size="14.00" fill="#000000">DgsAbsoluteUnitsReduction Flowchart</text>
<!-- absUDWS -->
<g id="node1" class="node">
<title>absUDWS</title>
<ellipse fill="#f0e68c" stroke="#000000" cx="1014.4902" cy="-1513.1701" rx="94.0904" ry="37.4533"/>
<text text-anchor="middle" x="1014.4902" y="-1524.4701" font-family="Helvetica,sans-Serif" font-size="14.00" fill="#000000">Absolute Units</text>
<text text-anchor="middle" x="1014.4902" y="-1509.4701" font-family="Helvetica,sans-Serif" font-size="14.00" fill="#000000">Detector Vanadium</text>
<text text-anchor="middle" x="1014.4902" y="-1494.4701" font-family="Helvetica,sans-Serif" font-size="14.00" fill="#000000">Workspace</text>
</g>
<!-- DgsProcessDetectorVanadium -->
<g id="node18" class="node">
<title>DgsProcessDetectorVanadium</title>
<path fill="#87cefa" stroke="#000000" d="M1103.4902,-1438.6934C1103.4902,-1438.6934 925.4902,-1438.6934 925.4902,-1438.6934 919.4902,-1438.6934 913.4902,-1432.6934 913.4902,-1426.6934 913.4902,-1426.6934 913.4902,-1414.6934 913.4902,-1414.6934 913.4902,-1408.6934 919.4902,-1402.6934 925.4902,-1402.6934 925.4902,-1402.6934 1103.4902,-1402.6934 1103.4902,-1402.6934 1109.4902,-1402.6934 1115.4902,-1408.6934 1115.4902,-1414.6934 1115.4902,-1414.6934 1115.4902,-1426.6934 1115.4902,-1426.6934 1115.4902,-1432.6934 1109.4902,-1438.6934 1103.4902,-1438.6934"/>
<text text-anchor="middle" x="1014.4902" y="-1416.9934" font-family="Helvetica,sans-Serif" font-size="14.00" fill="#000000">DgsProcessDetectorVanadium</text>
</g>
<!-- absUDWS&#45;&gt;DgsProcessDetectorVanadium -->
<g id="edge1" class="edge">
<title>absUDWS&#45;&gt;DgsProcessDetectorVanadium</title>
<path fill="none" stroke="#000000" d="M1014.4902,-1475.5563C1014.4902,-1466.696 1014.4902,-1457.3977 1014.4902,-1449.0256"/>
<polygon fill="#000000" stroke="#000000" points="1017.9903,-1449.0191 1014.4902,-1439.0191 1010.9903,-1449.0191 1017.9903,-1449.0191"/>
</g>
<!-- absUSWS -->
<g id="node2" class="node">
<title>absUSWS</title>
<ellipse fill="#f0e68c" stroke="#000000" cx="348.4902" cy="-1312.6934" rx="95.4188" ry="26.7407"/>
<text text-anchor="middle" x="348.4902" y="-1316.4934" font-family="Helvetica,sans-Serif" font-size="14.00" fill="#000000">Absolute Units</text>
<text text-anchor="middle" x="348.4902" y="-1301.4934" font-family="Helvetica,sans-Serif" font-size="14.00" fill="#000000">Sample Workspace</text>
</g>
<!-- DgsConvertToEnergyTransfer -->
<g id="node19" class="node">
<title>DgsConvertToEnergyTransfer</title>
<path fill="#87cefa" stroke="#000000" d="M785.9902,-1222.6934C785.9902,-1222.6934 612.9902,-1222.6934 612.9902,-1222.6934 606.9902,-1222.6934 600.9902,-1216.6934 600.9902,-1210.6934 600.9902,-1210.6934 600.9902,-1198.6934 600.9902,-1198.6934 600.9902,-1192.6934 606.9902,-1186.6934 612.9902,-1186.6934 612.9902,-1186.6934 785.9902,-1186.6934 785.9902,-1186.6934 791.9902,-1186.6934 797.9902,-1192.6934 797.9902,-1198.6934 797.9902,-1198.6934 797.9902,-1210.6934 797.9902,-1210.6934 797.9902,-1216.6934 791.9902,-1222.6934 785.9902,-1222.6934"/>
<text text-anchor="middle" x="699.4902" y="-1200.9934" font-family="Helvetica,sans-Serif" font-size="14.00" fill="#000000">DgsConvertToEnergyTransfer</text>
</g>
<!-- absUSWS&#45;&gt;DgsConvertToEnergyTransfer -->
<g id="edge6" class="edge">
<title>absUSWS&#45;&gt;DgsConvertToEnergyTransfer</title>
<path fill="none" stroke="#000000" d="M390.1661,-1288.406C408.758,-1278.3792 431.2277,-1267.3395 452.4902,-1259.6934 479.2045,-1250.0869 541.898,-1236.1622 597.4344,-1224.7278"/>
<polygon fill="#000000" stroke="#000000" points="598.2568,-1228.1321 607.3511,-1222.6966 596.8522,-1221.2745 598.2568,-1228.1321"/>
</g>
<!-- absUMWS -->
<g id="node3" class="node">
<title>absUMWS</title>
<ellipse fill="#f0e68c" stroke="#000000" cx="180.4902" cy="-648.8701" rx="86.0347" ry="26.7407"/>
<text text-anchor="middle" x="180.4902" y="-652.6701" font-family="Helvetica,sans-Serif" font-size="14.00" fill="#000000">Absolute Units</text>
<text text-anchor="middle" x="180.4902" y="-637.6701" font-family="Helvetica,sans-Serif" font-size="14.00" fill="#000000">Mask Workspace</text>
</g>
<!-- detDiagParam -->
<g id="node4" class="node">
<title>detDiagParam</title>
<ellipse fill="#f0e68c" stroke="#000000" cx="180.4902" cy="-966.2168" rx="61.5366" ry="37.4533"/>
<text text-anchor="middle" x="180.4902" y="-977.5168" font-family="Helvetica,sans-Serif" font-size="14.00" fill="#000000">Detector</text>
<text text-anchor="middle" x="180.4902" y="-962.5168" font-family="Helvetica,sans-Serif" font-size="14.00" fill="#000000">Diagnostic</text>
<text text-anchor="middle" x="180.4902" y="-947.5168" font-family="Helvetica,sans-Serif" font-size="14.00" fill="#000000">Parameters</text>
</g>
<!-- DetectorDiagnostic -->
<g id="node23" class="node">
<title>DetectorDiagnostic</title>
<path fill="#87cefa" stroke="#000000" d="M245.9902,-891.7401C245.9902,-891.7401 138.9902,-891.7401 138.9902,-891.7401 132.9902,-891.7401 126.9902,-885.7401 126.9902,-879.7401 126.9902,-879.7401 126.9902,-867.7401 126.9902,-867.7401 126.9902,-861.7401 132.9902,-855.7401 138.9902,-855.7401 138.9902,-855.7401 245.9902,-855.7401 245.9902,-855.7401 251.9902,-855.7401 257.9902,-861.7401 257.9902,-867.7401 257.9902,-867.7401 257.9902,-879.7401 257.9902,-879.7401 257.9902,-885.7401 251.9902,-891.7401 245.9902,-891.7401"/>
<text text-anchor="middle" x="192.4902" y="-870.0401" font-family="Helvetica,sans-Serif" font-size="14.00" fill="#000000">DetectorDiagnostic</text>
</g>
<!-- detDiagParam&#45;&gt;DetectorDiagnostic -->
<g id="edge17" class="edge">
<title>detDiagParam&#45;&gt;DetectorDiagnostic</title>
<path fill="none" stroke="#000000" d="M185.3711,-928.603C186.5208,-919.7427 187.7274,-910.4443 188.8137,-902.0723"/>
<polygon fill="#000000" stroke="#000000" points="192.2962,-902.4331 190.1122,-892.0658 185.3544,-901.5322 192.2962,-902.4331"/>
</g>
<!-- AbsUnitsIncidentEnergy -->
<g id="node5" class="node">
<title>AbsUnitsIncidentEnergy</title>
<ellipse fill="#f0e68c" stroke="#000000" cx="566.4902" cy="-1312.6934" rx="104.7816" ry="18"/>
<text text-anchor="middle" x="566.4902" y="-1308.9934" font-family="Helvetica,sans-Serif" font-size="14.00" fill="#000000">AbsUnitsIncidentEnergy</text>
</g>
<!-- AbsUnitsIncidentEnergy&#45;&gt;DgsConvertToEnergyTransfer -->
<g id="edge7" class="edge">
<title>AbsUnitsIncidentEnergy&#45;&gt;DgsConvertToEnergyTransfer</title>
<path fill="none" stroke="#000000" d="M588.4524,-1294.8594C610.4598,-1276.9888 644.5113,-1249.3379 669.1042,-1229.3677"/>
<polygon fill="#000000" stroke="#000000" points="671.4942,-1231.9357 677.0508,-1222.9149 667.0815,-1226.5016 671.4942,-1231.9357"/>
</g>
<!-- VanadiumMass -->
<g id="node6" class="node">
<title>VanadiumMass</title>
<ellipse fill="#f0e68c" stroke="#000000" cx="347.4902" cy="-1204.6934" rx="72.2875" ry="18"/>
<text text-anchor="middle" x="347.4902" y="-1200.9934" font-family="Helvetica,sans-Serif" font-size="14.00" fill="#000000">VanadiumMass</text>
</g>
<!-- Divide -->
<g id="node20" class="node">
<title>Divide</title>
<path fill="#87cefa" stroke="#000000" d="M525.4902,-1149.6934C525.4902,-1149.6934 495.4902,-1149.6934 495.4902,-1149.6934 489.4902,-1149.6934 483.4902,-1143.6934 483.4902,-1137.6934 483.4902,-1137.6934 483.4902,-1125.6934 483.4902,-1125.6934 483.4902,-1119.6934 489.4902,-1113.6934 495.4902,-1113.6934 495.4902,-1113.6934 525.4902,-1113.6934 525.4902,-1113.6934 531.4902,-1113.6934 537.4902,-1119.6934 537.4902,-1125.6934 537.4902,-1125.6934 537.4902,-1137.6934 537.4902,-1137.6934 537.4902,-1143.6934 531.4902,-1149.6934 525.4902,-1149.6934"/>
<text text-anchor="middle" x="510.4902" y="-1127.9934" font-family="Helvetica,sans-Serif" font-size="14.00" fill="#000000">Divide</text>
</g>
<!-- VanadiumMass&#45;&gt;Divide -->
<g id="edge10" class="edge">
<title>VanadiumMass&#45;&gt;Divide</title>
<path fill="none" stroke="#000000" d="M384.6853,-1189.2212C408.043,-1179.3627 438.9597,-1166.0565 473.962,-1149.8355"/>
<polygon fill="#000000" stroke="#000000" points="475.8557,-1152.8144 483.441,-1145.4174 472.8985,-1146.4697 475.8557,-1152.8144"/>
</g>
<!-- VanadiumRmm -->
<g id="node7" class="node">
<title>VanadiumRmm</title>
<ellipse fill="#f0e68c" stroke="#000000" cx="510.4902" cy="-1204.6934" rx="72.5877" ry="18"/>
<text text-anchor="middle" x="510.4902" y="-1200.9934" font-family="Helvetica,sans-Serif" font-size="14.00" fill="#000000">VanadiumRmm</text>
</g>
<!-- VanadiumRmm&#45;&gt;Divide -->
<g id="edge11" class="edge">
<title>VanadiumRmm&#45;&gt;Divide</title>
<path fill="none" stroke="#000000" d="M510.4902,-1186.6485C510.4902,-1178.5763 510.4902,-1168.8698 510.4902,-1159.8752"/>
<polygon fill="#000000" stroke="#000000" points="513.9903,-1159.7838 510.4902,-1149.7838 506.9903,-1159.7838 513.9903,-1159.7838"/>
</g>
<!-- AbsUnitsMinimumEnergy -->
<g id="node8" class="node">
<title>AbsUnitsMinimumEnergy</title>
<ellipse fill="#f0e68c" stroke="#000000" cx="110.4902" cy="-1131.6934" rx="110.4804" ry="18"/>
<text text-anchor="middle" x="110.4902" y="-1127.9934" font-family="Helvetica,sans-Serif" font-size="14.00" fill="#000000">AbsUnitsMinimumEnergy</text>
</g>
<!-- Rebin -->
<g id="node21" class="node">
<title>Rebin</title>
<path fill="#87cefa" stroke="#000000" d="M413.4902,-1076.6934C413.4902,-1076.6934 291.4902,-1076.6934 291.4902,-1076.6934 285.4902,-1076.6934 279.4902,-1070.6934 279.4902,-1064.6934 279.4902,-1064.6934 279.4902,-1052.6934 279.4902,-1052.6934 279.4902,-1046.6934 285.4902,-1040.6934 291.4902,-1040.6934 291.4902,-1040.6934 413.4902,-1040.6934 413.4902,-1040.6934 419.4902,-1040.6934 425.4902,-1046.6934 425.4902,-1052.6934 425.4902,-1052.6934 425.4902,-1064.6934 425.4902,-1064.6934 425.4902,-1070.6934 419.4902,-1076.6934 413.4902,-1076.6934"/>
<text text-anchor="middle" x="352.4902" y="-1054.9934" font-family="Helvetica,sans-Serif" font-size="14.00" fill="#000000">Rebin (as integration)</text>
</g>
<!-- AbsUnitsMinimumEnergy&#45;&gt;Rebin -->
<g id="edge13" class="edge">
<title>AbsUnitsMinimumEnergy&#45;&gt;Rebin</title>
<path fill="none" stroke="#000000" d="M163.0006,-1115.8535C197.9654,-1105.3063 244.3069,-1091.3272 282.4092,-1079.8336"/>
<polygon fill="#000000" stroke="#000000" points="283.8494,-1083.055 292.4125,-1076.816 281.8278,-1076.3532 283.8494,-1083.055"/>
</g>
<!-- AbsUnitsMaximumEnergy -->
<g id="node9" class="node">
<title>AbsUnitsMaximumEnergy</title>
<ellipse fill="#f0e68c" stroke="#000000" cx="352.4902" cy="-1131.6934" rx="113.18" ry="18"/>
<text text-anchor="middle" x="352.4902" y="-1127.9934" font-family="Helvetica,sans-Serif" font-size="14.00" fill="#000000">AbsUnitsMaximumEnergy</text>
</g>
<!-- AbsUnitsMaximumEnergy&#45;&gt;Rebin -->
<g id="edge14" class="edge">
<title>AbsUnitsMaximumEnergy&#45;&gt;Rebin</title>
<path fill="none" stroke="#000000" d="M352.4902,-1113.6485C352.4902,-1105.5763 352.4902,-1095.8698 352.4902,-1086.8752"/>
<polygon fill="#000000" stroke="#000000" points="355.9903,-1086.7838 352.4902,-1076.7838 348.9903,-1086.7838 355.9903,-1086.7838"/>
</g>
<!-- MaskWorkspace -->
<g id="node10" class="node">
<title>MaskWorkspace</title>
<ellipse fill="#f0e68c" stroke="#000000" cx="783.4902" cy="-1513.1701" rx="76.8869" ry="18"/>
<text text-anchor="middle" x="783.4902" y="-1509.4701" font-family="Helvetica,sans-Serif" font-size="14.00" fill="#000000">MaskWorkspace</text>
</g>
<!-- MaskWorkspace&#45;&gt;DgsProcessDetectorVanadium -->
<g id="edge3" class="edge">
<title>MaskWorkspace&#45;&gt;DgsProcessDetectorVanadium</title>
<path fill="none" stroke="#000000" d="M822.415,-1497.5873C860.1895,-1482.4649 917.8529,-1459.3804 960.1442,-1442.4499"/>
<polygon fill="#000000" stroke="#000000" points="961.4777,-1445.6861 969.4606,-1438.7202 958.8761,-1439.1875 961.4777,-1445.6861"/>
</g>
<!-- MaskWorkspace&#45;&gt;DgsConvertToEnergyTransfer -->
<g id="edge2" class="edge">
<title>MaskWorkspace&#45;&gt;DgsConvertToEnergyTransfer</title>
<path fill="none" stroke="#000000" d="M773.4539,-1495.1936C758.7925,-1468.0443 731.8179,-1414.5523 718.4902,-1365.6934 706.1126,-1320.3178 701.7984,-1265.5783 700.2947,-1233.0348"/>
<polygon fill="#000000" stroke="#000000" points="703.786,-1232.7453 699.8849,-1222.8948 696.7917,-1233.028 703.786,-1232.7453"/>
</g>
<!-- GroupingWorkspace -->
<g id="node11" class="node">
<title>GroupingWorkspace</title>
<ellipse fill="#f0e68c" stroke="#000000" cx="819.4902" cy="-1312.6934" rx="91.784" ry="18"/>
<text text-anchor="middle" x="819.4902" y="-1308.9934" font-family="Helvetica,sans-Serif" font-size="14.00" fill="#000000">GroupingWorkspace</text>
</g>
<!-- GroupingWorkspace&#45;&gt;DgsConvertToEnergyTransfer -->
<g id="edge5" class="edge">
<title>GroupingWorkspace&#45;&gt;DgsConvertToEnergyTransfer</title>
<path fill="none" stroke="#000000" d="M799.943,-1295.101C780.2194,-1277.3498 749.5792,-1249.7735 727.3228,-1229.7428"/>
<polygon fill="#000000" stroke="#000000" points="729.6061,-1227.0889 719.8317,-1223.0008 724.9233,-1232.292 729.6061,-1227.0889"/>
</g>
<!-- OutputWorkspace -->
<g id="node12" class="node">
<title>OutputWorkspace</title>
<ellipse fill="#f0e68c" stroke="#000000" cx="389.4902" cy="-18" rx="81.7856" ry="18"/>
<text text-anchor="middle" x="389.4902" y="-14.3" font-family="Helvetica,sans-Serif" font-size="14.00" fill="#000000">OutputWorkspace</text>
</g>
<!-- isIAUDV -->
<g id="node13" class="node">
<title>isIAUDV</title>
<polygon fill="#32cd32" stroke="#000000" points="338.4902,-409 198.4902,-356 338.4902,-303 478.4902,-356 338.4902,-409"/>
<text text-anchor="middle" x="338.4902" y="-367.3" font-family="Helvetica,sans-Serif" font-size="14.00" fill="#000000">Is Integrated</text>
<text text-anchor="middle" x="338.4902" y="-352.3" font-family="Helvetica,sans-Serif" font-size="14.00" fill="#000000">Absolute Units</text>
<text text-anchor="middle" x="338.4902" y="-337.3" font-family="Helvetica,sans-Serif" font-size="14.00" fill="#000000">Detector Vanadium?</text>
</g>
<!-- pauw -->
<g id="node15" class="node">
<title>pauw</title>
<polygon fill="#c0c0c0" stroke="#000000" points="517.0315,-149 314.1418,-149 261.9489,-73 464.8385,-73 517.0315,-149"/>
<text text-anchor="middle" x="389.4902" y="-114.8" font-family="Times,serif" font-size="14.00" fill="#000000">Processed Absolute</text>
<text text-anchor="middle" x="389.4902" y="-99.8" font-family="Times,serif" font-size="14.00" fill="#000000">Units Workspace</text>
</g>
<!-- isIAUDV&#45;&gt;pauw -->
<g id="edge26" class="edge">
<title>isIAUDV&#45;&gt;pauw</title>
<path fill="none" stroke="#000000" d="M351.1386,-307.5984C355.3039,-290.9774 359.8077,-272.223 363.4902,-255 370.3024,-223.1392 376.8145,-187.0607 381.6175,-158.9867"/>
<polygon fill="#000000" stroke="#000000" points="385.0849,-159.4731 383.3071,-149.0285 378.1835,-158.3021 385.0849,-159.4731"/>
<text text-anchor="middle" x="386.4902" y="-200.3" font-family="Helvetica,sans-Serif" font-size="14.00" fill="#000000">No</text>
</g>
<!-- Multiply -->
<g id="node27" class="node">
<title>Multiply</title>
<path fill="#87cefa" stroke="#000000" d="M464.9902,-222C464.9902,-222 425.9902,-222 425.9902,-222 419.9902,-222 413.9902,-216 413.9902,-210 413.9902,-210 413.9902,-198 413.9902,-198 413.9902,-192 419.9902,-186 425.9902,-186 425.9902,-186 464.9902,-186 464.9902,-186 470.9902,-186 476.9902,-192 476.9902,-198 476.9902,-198 476.9902,-210 476.9902,-210 476.9902,-216 470.9902,-222 464.9902,-222"/>
<text text-anchor="middle" x="445.4902" y="-200.3" font-family="Helvetica,sans-Serif" font-size="14.00" fill="#000000">Multiply</text>
</g>
<!-- isIAUDV&#45;&gt;Multiply -->
<g id="edge25" class="edge">
<title>isIAUDV&#45;&gt;Multiply</title>
<path fill="none" stroke="#000000" d="M368.0117,-314.063C386.8803,-287.2589 410.7663,-253.3274 426.9941,-230.2748"/>
<polygon fill="#000000" stroke="#000000" points="429.9179,-232.2017 432.8122,-222.0098 424.1939,-228.1723 429.9179,-232.2017"/>
<text text-anchor="middle" x="432.4902" y="-243.8" font-family="Helvetica,sans-Serif" font-size="14.00" fill="#000000">Yes</text>
</g>
<!-- procSample -->
<g id="node14" class="node">
<title>procSample</title>
<polygon fill="#c0c0c0" stroke="#000000" points="273.2239,-818.7401 144.7946,-818.7401 111.7565,-712.7401 240.1858,-712.7401 273.2239,-818.7401"/>
<text text-anchor="middle" x="192.4902" y="-777.0401" font-family="Times,serif" font-size="14.00" fill="#000000">Processed</text>
<text text-anchor="middle" x="192.4902" y="-762.0401" font-family="Times,serif" font-size="14.00" fill="#000000">Sample</text>
<text text-anchor="middle" x="192.4902" y="-747.0401" font-family="Times,serif" font-size="14.00" fill="#000000">Workspace</text>
</g>
<!-- procSample&#45;&gt;absUMWS -->
<g id="edge19" class="edge">
<title>procSample&#45;&gt;absUMWS</title>
<path fill="none" stroke="#000000" d="M187.0169,-712.4351C186.1042,-703.5459 185.1751,-694.4972 184.315,-686.1203"/>
<polygon fill="#000000" stroke="#000000" points="187.772,-685.5215 183.2688,-675.9313 180.8086,-686.2366 187.772,-685.5215"/>
</g>
<!-- MaskDetectors -->
<g id="node24" class="node">
<title>MaskDetectors</title>
<path fill="#87cefa" stroke="#000000" d="M379.9902,-666.8701C379.9902,-666.8701 296.9902,-666.8701 296.9902,-666.8701 290.9902,-666.8701 284.9902,-660.8701 284.9902,-654.8701 284.9902,-654.8701 284.9902,-642.8701 284.9902,-642.8701 284.9902,-636.8701 290.9902,-630.8701 296.9902,-630.8701 296.9902,-630.8701 379.9902,-630.8701 379.9902,-630.8701 385.9902,-630.8701 391.9902,-636.8701 391.9902,-642.8701 391.9902,-642.8701 391.9902,-654.8701 391.9902,-654.8701 391.9902,-660.8701 385.9902,-666.8701 379.9902,-666.8701"/>
<text text-anchor="middle" x="338.4902" y="-645.1701" font-family="Helvetica,sans-Serif" font-size="14.00" fill="#000000">MaskDetectors</text>
</g>
<!-- procSample&#45;&gt;MaskDetectors -->
<g id="edge20" class="edge">
<title>procSample&#45;&gt;MaskDetectors</title>
<path fill="none" stroke="#000000" d="M243.9643,-724.5361C265.4189,-707.3622 289.5978,-688.0075 308.1307,-673.1722"/>
<polygon fill="#000000" stroke="#000000" points="310.3406,-675.8865 315.9603,-666.9048 305.9661,-670.4217 310.3406,-675.8865"/>
</g>
<!-- pauw&#45;&gt;OutputWorkspace -->
<g id="edge28" class="edge">
<title>pauw&#45;&gt;OutputWorkspace</title>
<path fill="none" stroke="#000000" d="M389.4902,-72.905C389.4902,-64.0168 389.4902,-54.7049 389.4902,-46.3269"/>
<polygon fill="#000000" stroke="#000000" points="392.9903,-46.3165 389.4902,-36.3166 385.9903,-46.3166 392.9903,-46.3165"/>
</g>
<!-- sampleCoeff -->
<g id="node16" class="node">
<title>sampleCoeff</title>
<polygon fill="#c0c0c0" stroke="#000000" points="712.1351,-439 540.8961,-439 496.8452,-273 668.0843,-273 712.1351,-439"/>
<text text-anchor="middle" x="604.4902" y="-382.3" font-family="Times,serif" font-size="14.00" fill="#000000">SampleMass</text>
<text text-anchor="middle" x="604.4902" y="-367.3" font-family="Times,serif" font-size="14.00" fill="#000000">divided by</text>
<text text-anchor="middle" x="604.4902" y="-352.3" font-family="Times,serif" font-size="14.00" fill="#000000">SampleRmm</text>
<text text-anchor="middle" x="604.4902" y="-337.3" font-family="Times,serif" font-size="14.00" fill="#000000">divided by</text>
<text text-anchor="middle" x="604.4902" y="-322.3" font-family="Times,serif" font-size="14.00" fill="#000000">Scattering XSec</text>
</g>
<!-- sampleCoeff&#45;&gt;Multiply -->
<g id="edge24" class="edge">
<title>sampleCoeff&#45;&gt;Multiply</title>
<path fill="none" stroke="#000000" d="M517.5468,-272.8843C500.976,-257.043 484.8403,-241.6177 472.0536,-229.3939"/>
<polygon fill="#000000" stroke="#000000" points="474.1978,-226.6017 464.5508,-222.2215 469.3607,-231.6616 474.1978,-226.6017"/>
</g>
<!-- IAUDV -->
<g id="node17" class="node">
<title>IAUDV</title>
<polygon fill="#c0c0c0" stroke="#000000" points="1186.105,-1365.6934 981.5076,-1365.6934 928.8754,-1259.6934 1133.4728,-1259.6934 1186.105,-1365.6934"/>
<text text-anchor="middle" x="1057.4902" y="-1323.9934" font-family="Times,serif" font-size="14.00" fill="#000000">Integrated</text>
<text text-anchor="middle" x="1057.4902" y="-1308.9934" font-family="Times,serif" font-size="14.00" fill="#000000">Absolute Units</text>
<text text-anchor="middle" x="1057.4902" y="-1293.9934" font-family="Times,serif" font-size="14.00" fill="#000000">Detector Vanadium</text>
</g>
<!-- IAUDV&#45;&gt;DgsConvertToEnergyTransfer -->
<g id="edge8" class="edge">
<title>IAUDV&#45;&gt;DgsConvertToEnergyTransfer</title>
<path fill="none" stroke="#000000" d="M930.4289,-1262.9166C927.0897,-1261.809 923.7726,-1260.7323 920.4902,-1259.6934 878.8765,-1246.5229 832.0561,-1234.4836 792.2579,-1225.0492"/>
<polygon fill="#000000" stroke="#000000" points="792.8341,-1221.5893 782.2985,-1222.7076 791.232,-1228.4035 792.8341,-1221.5893"/>
</g>
<!-- DgsProcessDetectorVanadium&#45;&gt;IAUDV -->
<g id="edge4" class="edge">
<title>DgsProcessDetectorVanadium&#45;&gt;IAUDV</title>
<path fill="none" stroke="#000000" d="M1021.7846,-1402.3727C1024.8351,-1394.7109 1028.5763,-1385.3145 1032.476,-1375.5198"/>
<polygon fill="#000000" stroke="#000000" points="1035.7987,-1376.6361 1036.2461,-1366.0507 1029.2952,-1374.0467 1035.7987,-1376.6361"/>
</g>
<!-- DgsConvertToEnergyTransfer&#45;&gt;Divide -->
<g id="edge9" class="edge">
<title>DgsConvertToEnergyTransfer&#45;&gt;Divide</title>
<path fill="none" stroke="#000000" d="M652.7711,-1186.6485C620.2632,-1174.0925 577.5185,-1157.5827 547.3954,-1145.9478"/>
<polygon fill="#000000" stroke="#000000" points="548.286,-1142.5399 537.6966,-1142.2017 545.7639,-1149.0697 548.286,-1142.5399"/>
</g>
<!-- Divide&#45;&gt;Rebin -->
<g id="edge12" class="edge">
<title>Divide&#45;&gt;Rebin</title>
<path fill="none" stroke="#000000" d="M483.4204,-1118.0131C480.4157,-1116.5379 477.3934,-1115.073 474.4902,-1113.6934 451.079,-1102.569 424.9031,-1090.6952 402.8183,-1080.8378"/>
<polygon fill="#000000" stroke="#000000" points="404.1829,-1077.6142 393.6238,-1076.7447 401.3361,-1084.0092 404.1829,-1077.6142"/>
</g>
<!-- ConvertToMatrixWorkspace -->
<g id="node22" class="node">
<title>ConvertToMatrixWorkspace</title>
<path fill="#87cefa" stroke="#000000" d="M432.9902,-984.2168C432.9902,-984.2168 271.9902,-984.2168 271.9902,-984.2168 265.9902,-984.2168 259.9902,-978.2168 259.9902,-972.2168 259.9902,-972.2168 259.9902,-960.2168 259.9902,-960.2168 259.9902,-954.2168 265.9902,-948.2168 271.9902,-948.2168 271.9902,-948.2168 432.9902,-948.2168 432.9902,-948.2168 438.9902,-948.2168 444.9902,-954.2168 444.9902,-960.2168 444.9902,-960.2168 444.9902,-972.2168 444.9902,-972.2168 444.9902,-978.2168 438.9902,-984.2168 432.9902,-984.2168"/>
<text text-anchor="middle" x="352.4902" y="-962.5168" font-family="Helvetica,sans-Serif" font-size="14.00" fill="#000000">ConvertToMatrixWorkspace</text>
</g>
<!-- Rebin&#45;&gt;ConvertToMatrixWorkspace -->
<g id="edge15" class="edge">
<title>Rebin&#45;&gt;ConvertToMatrixWorkspace</title>
<path fill="none" stroke="#000000" d="M352.4902,-1040.423C352.4902,-1027.3771 352.4902,-1009.5732 352.4902,-994.6746"/>
<polygon fill="#000000" stroke="#000000" points="355.9903,-994.4492 352.4902,-984.4492 348.9903,-994.4493 355.9903,-994.4492"/>
</g>
<!-- ConvertToMatrixWorkspace&#45;&gt;DetectorDiagnostic -->
<g id="edge16" class="edge">
<title>ConvertToMatrixWorkspace&#45;&gt;DetectorDiagnostic</title>
<path fill="none" stroke="#000000" d="M321.2608,-948.1668C295.9317,-933.5271 260.0549,-912.7911 232.601,-896.9233"/>
<polygon fill="#000000" stroke="#000000" points="234.0502,-893.7184 223.6409,-891.7446 230.5473,-899.779 234.0502,-893.7184"/>
</g>
<!-- DetectorDiagnostic&#45;&gt;procSample -->
<g id="edge18" class="edge">
<title>DetectorDiagnostic&#45;&gt;procSample</title>
<path fill="none" stroke="#000000" d="M192.4902,-855.4194C192.4902,-847.9155 192.4902,-838.7479 192.4902,-829.1719"/>
<polygon fill="#000000" stroke="#000000" points="195.9903,-829.0974 192.4902,-819.0974 188.9903,-829.0975 195.9903,-829.0974"/>
</g>
<!-- ConvertFromDistribution -->
<g id="node25" class="node">
<title>ConvertFromDistribution</title>
<path fill="#87cefa" stroke="#000000" d="M408.4902,-585C408.4902,-585 268.4902,-585 268.4902,-585 262.4902,-585 256.4902,-579 256.4902,-573 256.4902,-573 256.4902,-561 256.4902,-561 256.4902,-555 262.4902,-549 268.4902,-549 268.4902,-549 408.4902,-549 408.4902,-549 414.4902,-549 420.4902,-555 420.4902,-561 420.4902,-561 420.4902,-573 420.4902,-573 420.4902,-579 414.4902,-585 408.4902,-585"/>
<text text-anchor="middle" x="338.4902" y="-563.3" font-family="Helvetica,sans-Serif" font-size="14.00" fill="#000000">ConvertFromDistribution</text>
</g>
<!-- MaskDetectors&#45;&gt;ConvertFromDistribution -->
<g id="edge21" class="edge">
<title>MaskDetectors&#45;&gt;ConvertFromDistribution</title>
<path fill="none" stroke="#000000" d="M338.4902,-630.7004C338.4902,-620.313 338.4902,-607.0579 338.4902,-595.3318"/>
<polygon fill="#000000" stroke="#000000" points="341.9903,-595.1188 338.4902,-585.1188 334.9903,-595.1189 341.9903,-595.1188"/>
</g>
<!-- WeightedMeanOfWorkspace -->
<g id="node26" class="node">
<title>WeightedMeanOfWorkspace</title>
<path fill="#87cefa" stroke="#000000" d="M422.4902,-512C422.4902,-512 254.4902,-512 254.4902,-512 248.4902,-512 242.4902,-506 242.4902,-500 242.4902,-500 242.4902,-488 242.4902,-488 242.4902,-482 248.4902,-476 254.4902,-476 254.4902,-476 422.4902,-476 422.4902,-476 428.4902,-476 434.4902,-482 434.4902,-488 434.4902,-488 434.4902,-500 434.4902,-500 434.4902,-506 428.4902,-512 422.4902,-512"/>
<text text-anchor="middle" x="338.4902" y="-490.3" font-family="Helvetica,sans-Serif" font-size="14.00" fill="#000000">WeightedMeanOfWorkspace</text>
</g>
<!-- ConvertFromDistribution&#45;&gt;WeightedMeanOfWorkspace -->
<g id="edge22" class="edge">
<title>ConvertFromDistribution&#45;&gt;WeightedMeanOfWorkspace</title>
<path fill="none" stroke="#000000" d="M338.4902,-548.9551C338.4902,-540.8828 338.4902,-531.1764 338.4902,-522.1817"/>
<polygon fill="#000000" stroke="#000000" points="341.9903,-522.0903 338.4902,-512.0904 334.9903,-522.0904 341.9903,-522.0903"/>
</g>
<!-- WeightedMeanOfWorkspace&#45;&gt;isIAUDV -->
<g id="edge23" class="edge">
<title>WeightedMeanOfWorkspace&#45;&gt;isIAUDV</title>
<path fill="none" stroke="#000000" d="M338.4902,-475.9589C338.4902,-461.3926 338.4902,-439.9807 338.4902,-419.2632"/>
<polygon fill="#000000" stroke="#000000" points="341.9903,-419.1816 338.4902,-409.1817 334.9903,-419.1817 341.9903,-419.1816"/>
</g>
<!-- Multiply&#45;&gt;pauw -->
<g id="edge27" class="edge">
<title>Multiply&#45;&gt;pauw</title>
<path fill="none" stroke="#000000" d="M434.4264,-185.6262C429.5943,-177.6015 423.6843,-167.7867 417.7583,-157.9452"/>
<polygon fill="#000000" stroke="#000000" points="420.7301,-156.0955 412.5732,-149.3342 414.7333,-159.7065 420.7301,-156.0955"/>
</g>
</g>
</svg>
