<?xml version="1.0" encoding="UTF-8" standalone="no"?>
<!DOCTYPE svg PUBLIC "-//W3C//DTD SVG 1.1//EN"
 "http://www.w3.org/Graphics/SVG/1.1/DTD/svg11.dtd">
<!-- Generated by graphviz version 2.40.1 (20161225.0304)
 -->
<!-- Title: DgsRemap Pages: 1 -->
<svg width="665pt" height="373pt"
 viewBox="0.00 0.00 665.34 373.00" xmlns="http://www.w3.org/2000/svg" xmlns:xlink="http://www.w3.org/1999/xlink">
<g id="graph0" class="graph" transform="scale(1 1) rotate(0) translate(4 369)">
<title>DgsRemap</title>
<polygon fill="#ffffff" stroke="transparent" points="-4,4 -4,-369 661.3351,-369 661.3351,4 -4,4"/>
<text text-anchor="middle" x="328.6675" y="-349.8" font-family="Helvetica,sans-Serif" font-size="14.00" fill="#000000">DgsRemap Flowchart</text>
<!-- InputWorkspace -->
<g id="node1" class="node">
<title>InputWorkspace</title>
<ellipse fill="#f0e68c" stroke="#000000" cx="313.6932" cy="-324" rx="74.9875" ry="18"/>
<text text-anchor="middle" x="313.6932" y="-320.3" font-family="Helvetica,sans-Serif" font-size="14.00" fill="#000000">InputWorkspace</text>
</g>
<!-- ExecuteOppositeOrder -->
<g id="node9" class="node">
<title>ExecuteOppositeOrder</title>
<polygon fill="#32cd32" stroke="#000000" points="313.6932,-269 171.2544,-251 313.6932,-233 456.132,-251 313.6932,-269"/>
<text text-anchor="middle" x="313.6932" y="-247.3" font-family="Helvetica,sans-Serif" font-size="14.00" fill="#000000">ExecuteOppositeOrder</text>
</g>
<!-- InputWorkspace&#45;&gt;ExecuteOppositeOrder -->
<g id="edge1" class="edge">
<title>InputWorkspace&#45;&gt;ExecuteOppositeOrder</title>
<path fill="none" stroke="#000000" d="M313.6932,-305.9551C313.6932,-297.8828 313.6932,-288.1764 313.6932,-279.1817"/>
<polygon fill="#000000" stroke="#000000" points="317.1933,-279.0903 313.6932,-269.0904 310.1933,-279.0904 317.1933,-279.0903"/>
</g>
<!-- MaskWorkspace -->
<g id="node2" class="node">
<title>MaskWorkspace</title>
<ellipse fill="#f0e68c" stroke="#000000" cx="76.6932" cy="-251" rx="76.8869" ry="18"/>
<text text-anchor="middle" x="76.6932" y="-247.3" font-family="Helvetica,sans-Serif" font-size="14.00" fill="#000000">MaskWorkspace</text>
</g>
<!-- maskDet1 -->
<g id="node5" class="node">
<title>maskDet1</title>
<path fill="#87cefa" stroke="#000000" d="M276.1932,-182C276.1932,-182 193.1932,-182 193.1932,-182 187.1932,-182 181.1932,-176 181.1932,-170 181.1932,-170 181.1932,-158 181.1932,-158 181.1932,-152 187.1932,-146 193.1932,-146 193.1932,-146 276.1932,-146 276.1932,-146 282.1932,-146 288.1932,-152 288.1932,-158 288.1932,-158 288.1932,-170 288.1932,-170 288.1932,-176 282.1932,-182 276.1932,-182"/>
<text text-anchor="middle" x="234.6932" y="-160.3" font-family="Helvetica,sans-Serif" font-size="14.00" fill="#000000">MaskDetectors</text>
</g>
<!-- MaskWorkspace&#45;&gt;maskDet1 -->
<g id="edge10" class="edge">
<title>MaskWorkspace&#45;&gt;maskDet1</title>
<path fill="none" stroke="#000000" d="M106.7837,-234.4312C131.2381,-220.9658 166.0009,-201.8242 193.1153,-186.8942"/>
<polygon fill="#000000" stroke="#000000" points="194.9198,-189.8961 201.9914,-182.0067 191.5434,-183.7642 194.9198,-189.8961"/>
</g>
<!-- maskDet2 -->
<g id="node6" class="node">
<title>maskDet2</title>
<path fill="#87cefa" stroke="#000000" d="M287.1932,-109C287.1932,-109 204.1932,-109 204.1932,-109 198.1932,-109 192.1932,-103 192.1932,-97 192.1932,-97 192.1932,-85 192.1932,-85 192.1932,-79 198.1932,-73 204.1932,-73 204.1932,-73 287.1932,-73 287.1932,-73 293.1932,-73 299.1932,-79 299.1932,-85 299.1932,-85 299.1932,-97 299.1932,-97 299.1932,-103 293.1932,-109 287.1932,-109"/>
<text text-anchor="middle" x="245.6932" y="-87.3" font-family="Helvetica,sans-Serif" font-size="14.00" fill="#000000">MaskDetectors</text>
</g>
<!-- MaskWorkspace&#45;&gt;maskDet2 -->
<g id="edge11" class="edge">
<title>MaskWorkspace&#45;&gt;maskDet2</title>
<path fill="none" stroke="#000000" d="M90.8654,-233.3064C108.6399,-211.6154 140.5727,-174.2598 171.6932,-146 183.6323,-135.1583 197.6356,-124.3316 210.2291,-115.1872"/>
<polygon fill="#000000" stroke="#000000" points="212.5803,-117.8087 218.6797,-109.1457 208.5092,-112.1143 212.5803,-117.8087"/>
</g>
<!-- GroupingWorkspace -->
<g id="node3" class="node">
<title>GroupingWorkspace</title>
<ellipse fill="#f0e68c" stroke="#000000" cx="565.6932" cy="-251" rx="91.784" ry="18"/>
<text text-anchor="middle" x="565.6932" y="-247.3" font-family="Helvetica,sans-Serif" font-size="14.00" fill="#000000">GroupingWorkspace</text>
</g>
<!-- groupDet1 -->
<g id="node7" class="node">
<title>groupDet1</title>
<path fill="#87cefa" stroke="#000000" d="M418.1932,-109C418.1932,-109 329.1932,-109 329.1932,-109 323.1932,-109 317.1932,-103 317.1932,-97 317.1932,-97 317.1932,-85 317.1932,-85 317.1932,-79 323.1932,-73 329.1932,-73 329.1932,-73 418.1932,-73 418.1932,-73 424.1932,-73 430.1932,-79 430.1932,-85 430.1932,-85 430.1932,-97 430.1932,-97 430.1932,-103 424.1932,-109 418.1932,-109"/>
<text text-anchor="middle" x="373.6932" y="-87.3" font-family="Helvetica,sans-Serif" font-size="14.00" fill="#000000">GroupDetectors</text>
</g>
<!-- GroupingWorkspace&#45;&gt;groupDet1 -->
<g id="edge8" class="edge">
<title>GroupingWorkspace&#45;&gt;groupDet1</title>
<path fill="none" stroke="#000000" d="M544.4122,-233.2659C510.0479,-204.6289 442.2545,-148.1344 403.2317,-115.6154"/>
<polygon fill="#000000" stroke="#000000" points="405.2866,-112.7719 395.3637,-109.0588 400.8053,-118.1494 405.2866,-112.7719"/>
</g>
<!-- groupDet2 -->
<g id="node8" class="node">
<title>groupDet2</title>
<path fill="#87cefa" stroke="#000000" d="M407.1932,-182C407.1932,-182 318.1932,-182 318.1932,-182 312.1932,-182 306.1932,-176 306.1932,-170 306.1932,-170 306.1932,-158 306.1932,-158 306.1932,-152 312.1932,-146 318.1932,-146 318.1932,-146 407.1932,-146 407.1932,-146 413.1932,-146 419.1932,-152 419.1932,-158 419.1932,-158 419.1932,-170 419.1932,-170 419.1932,-176 413.1932,-182 407.1932,-182"/>
<text text-anchor="middle" x="362.6932" y="-160.3" font-family="Helvetica,sans-Serif" font-size="14.00" fill="#000000">GroupDetectors</text>
</g>
<!-- GroupingWorkspace&#45;&gt;groupDet2 -->
<g id="edge9" class="edge">
<title>GroupingWorkspace&#45;&gt;groupDet2</title>
<path fill="none" stroke="#000000" d="M527.5104,-234.636C495.596,-220.9583 449.7761,-201.3213 414.5449,-186.2222"/>
<polygon fill="#000000" stroke="#000000" points="415.4792,-182.8147 404.909,-182.0925 412.7217,-189.2488 415.4792,-182.8147"/>
</g>
<!-- OutputWorkspace -->
<g id="node4" class="node">
<title>OutputWorkspace</title>
<ellipse fill="#f0e68c" stroke="#000000" cx="308.6932" cy="-18" rx="81.7856" ry="18"/>
<text text-anchor="middle" x="308.6932" y="-14.3" font-family="Helvetica,sans-Serif" font-size="14.00" fill="#000000">OutputWorkspace</text>
</g>
<!-- maskDet1&#45;&gt;groupDet1 -->
<g id="edge4" class="edge">
<title>maskDet1&#45;&gt;groupDet1</title>
<path fill="none" stroke="#000000" d="M269.0528,-145.9551C287.5139,-136.2596 310.4642,-124.2066 330.1633,-113.861"/>
<polygon fill="#000000" stroke="#000000" points="332.0212,-116.8387 339.2472,-109.0904 328.7665,-110.6413 332.0212,-116.8387"/>
</g>
<!-- maskDet2&#45;&gt;OutputWorkspace -->
<g id="edge7" class="edge">
<title>maskDet2&#45;&gt;OutputWorkspace</title>
<path fill="none" stroke="#000000" d="M261.2662,-72.9551C268.8954,-64.1149 278.216,-53.3149 286.5689,-43.6361"/>
<polygon fill="#000000" stroke="#000000" points="289.4155,-45.6947 293.2993,-35.8374 284.1161,-41.1212 289.4155,-45.6947"/>
</g>
<!-- groupDet1&#45;&gt;OutputWorkspace -->
<g id="edge6" class="edge">
<title>groupDet1&#45;&gt;OutputWorkspace</title>
<path fill="none" stroke="#000000" d="M357.6258,-72.9551C349.6757,-64.0265 339.9454,-53.0987 331.2616,-43.3461"/>
<polygon fill="#000000" stroke="#000000" points="333.8398,-40.9783 324.5758,-35.8374 328.6118,-45.6334 333.8398,-40.9783"/>
</g>
<!-- groupDet2&#45;&gt;maskDet2 -->
<g id="edge5" class="edge">
<title>groupDet2&#45;&gt;maskDet2</title>
<path fill="none" stroke="#000000" d="M333.7718,-145.9551C318.5841,-136.479 299.7869,-124.7508 283.4631,-114.5658"/>
<polygon fill="#000000" stroke="#000000" points="285.0241,-111.4145 274.6873,-109.0904 281.3187,-117.3533 285.0241,-111.4145"/>
</g>
<!-- ExecuteOppositeOrder&#45;&gt;maskDet1 -->
<g id="edge2" class="edge">
<title>ExecuteOppositeOrder&#45;&gt;maskDet1</title>
<path fill="none" stroke="#000000" d="M298.8339,-234.636C287.3694,-222.0105 271.2939,-204.3071 258.1047,-189.7823"/>
<polygon fill="#000000" stroke="#000000" points="260.4357,-187.1429 251.122,-182.0925 255.2534,-191.8486 260.4357,-187.1429"/>
<text text-anchor="middle" x="293.6932" y="-203.8" font-family="Helvetica,sans-Serif" font-size="14.00" fill="#000000">True</text>
</g>
<!-- ExecuteOppositeOrder&#45;&gt;groupDet2 -->
<g id="edge3" class="edge">
<title>ExecuteOppositeOrder&#45;&gt;groupDet2</title>
<path fill="none" stroke="#000000" d="M323.374,-233.8116C330.2835,-221.5437 339.7119,-204.8035 347.604,-190.7911"/>
<polygon fill="#000000" stroke="#000000" points="350.6686,-192.4819 352.5264,-182.0512 344.5694,-189.0467 350.6686,-192.4819"/>
<text text-anchor="middle" x="357.6932" y="-203.8" font-family="Helvetica,sans-Serif" font-size="14.00" fill="#000000">False</text>
</g>
</g>
</svg>
