<?xml version="1.0" encoding="UTF-8" standalone="no"?>
<!DOCTYPE svg PUBLIC "-//W3C//DTD SVG 1.1//EN"
 "http://www.w3.org/Graphics/SVG/1.1/DTD/svg11.dtd">
<!-- Generated by graphviz version 3.0.0 (20220315.2325)
 -->
<!-- Title: DgsReduction Pages: 1 -->
<svg width="975pt" height="1001pt"
 viewBox="0.00 0.00 974.58 1001.00" xmlns="http://www.w3.org/2000/svg" xmlns:xlink="http://www.w3.org/1999/xlink">
<g id="graph0" class="graph" transform="scale(1 1) rotate(0) translate(4 997)">
<title>DgsReduction</title>
<polygon fill="white" stroke="transparent" points="-4,4 -4,-997 970.58,-997 970.58,4 -4,4"/>
<text text-anchor="middle" x="483.29" y="-977.8" font-family="Helvetica,sans-Serif" font-size="14.00">DgsReduction Flowchart</text>
<!-- Sample -->
<g id="node1" class="node">
<title>Sample</title>
<ellipse fill="khaki" stroke="black" cx="44.2" cy="-952" rx="44.39" ry="18"/>
<text text-anchor="middle" x="44.2" y="-948.3" font-family="Helvetica,sans-Serif" font-size="14.00">Sample</text>
</g>
<!-- DgsDiagnose -->
<g id="node10" class="node">
<title>DgsDiagnose</title>
<path fill="lightskyblue" stroke="black" d="M373.2,-897C373.2,-897 289.2,-897 289.2,-897 283.2,-897 277.2,-891 277.2,-885 277.2,-885 277.2,-873 277.2,-873 277.2,-867 283.2,-861 289.2,-861 289.2,-861 373.2,-861 373.2,-861 379.2,-861 385.2,-867 385.2,-873 385.2,-873 385.2,-885 385.2,-885 385.2,-891 379.2,-897 373.2,-897"/>
<text text-anchor="middle" x="331.2" y="-875.3" font-family="Helvetica,sans-Serif" font-size="14.00">DgsDiagnose</text>
</g>
<!-- Sample&#45;&gt;DgsDiagnose -->
<g id="edge2" class="edge">
<title>Sample&#45;&gt;DgsDiagnose</title>
<path fill="none" stroke="black" d="M77.15,-939.96C83.76,-937.88 90.67,-935.8 97.2,-934 154.24,-918.3 219.94,-903.41 267.18,-893.26"/>
<polygon fill="black" stroke="black" points="267.92,-896.68 276.97,-891.17 266.46,-889.84 267.92,-896.68"/>
</g>
<!-- DgsConvertToEnergyTransfer -->
<g id="node12" class="node">
<title>DgsConvertToEnergyTransfer</title>
<path fill="lightskyblue" stroke="black" d="M339.7,-525C339.7,-525 144.7,-525 144.7,-525 138.7,-525 132.7,-519 132.7,-513 132.7,-513 132.7,-501 132.7,-501 132.7,-495 138.7,-489 144.7,-489 144.7,-489 339.7,-489 339.7,-489 345.7,-489 351.7,-495 351.7,-501 351.7,-501 351.7,-513 351.7,-513 351.7,-519 345.7,-525 339.7,-525"/>
<text text-anchor="middle" x="242.2" y="-503.3" font-family="Helvetica,sans-Serif" font-size="14.00">DgsConvertToEnergyTransfer</text>
</g>
<!-- Sample&#45;&gt;DgsConvertToEnergyTransfer -->
<g id="edge1" class="edge">
<title>Sample&#45;&gt;DgsConvertToEnergyTransfer</title>
<path fill="none" stroke="black" d="M59.55,-934.93C70.83,-921.4 84.2,-900.94 84.2,-880 84.2,-880 84.2,-880 84.2,-599 84.2,-563.84 113.93,-542.07 147.6,-528.67"/>
<polygon fill="black" stroke="black" points="149.03,-531.88 157.18,-525.11 146.59,-525.32 149.03,-531.88"/>
</g>
<!-- HardMask -->
<g id="node2" class="node">
<title>HardMask</title>
<ellipse fill="khaki" stroke="black" cx="162.2" cy="-952" rx="55.79" ry="18"/>
<text text-anchor="middle" x="162.2" y="-948.3" font-family="Helvetica,sans-Serif" font-size="14.00">HardMask</text>
</g>
<!-- HardMask&#45;&gt;DgsDiagnose -->
<g id="edge4" class="edge">
<title>HardMask&#45;&gt;DgsDiagnose</title>
<path fill="none" stroke="black" d="M194.78,-937.31C219.34,-926.99 253.45,-912.66 281.42,-900.91"/>
<polygon fill="black" stroke="black" points="282.79,-904.13 290.65,-897.03 280.07,-897.68 282.79,-904.13"/>
</g>
<!-- HardMask&#45;&gt;DgsConvertToEnergyTransfer -->
<g id="edge3" class="edge">
<title>HardMask&#45;&gt;DgsConvertToEnergyTransfer</title>
<path fill="none" stroke="black" d="M162.2,-933.78C162.2,-919.41 162.2,-898.37 162.2,-880 162.2,-880 162.2,-880 162.2,-599 162.2,-570.77 184.18,-547.13 205.09,-531.03"/>
<polygon fill="black" stroke="black" points="207.31,-533.75 213.31,-525.02 203.18,-528.1 207.31,-533.75"/>
</g>
<!-- DetectorVanadium -->
<g id="node3" class="node">
<title>DetectorVanadium</title>
<ellipse fill="khaki" stroke="black" cx="647.2" cy="-952" rx="94.78" ry="18"/>
<text text-anchor="middle" x="647.2" y="-948.3" font-family="Helvetica,sans-Serif" font-size="14.00">DetectorVanadium</text>
</g>
<!-- DetectorVanadium&#45;&gt;DgsDiagnose -->
<g id="edge5" class="edge">
<title>DetectorVanadium&#45;&gt;DgsDiagnose</title>
<path fill="none" stroke="black" d="M585.99,-938.15C555.38,-931.65 517.8,-923.56 484.2,-916 454.91,-909.41 422.55,-901.84 395.16,-895.34"/>
<polygon fill="black" stroke="black" points="395.84,-891.91 385.31,-893 394.23,-898.72 395.84,-891.91"/>
</g>
<!-- DgsProcessDetectorVanadium -->
<g id="node11" class="node">
<title>DgsProcessDetectorVanadium</title>
<path fill="lightskyblue" stroke="black" d="M563.7,-711C563.7,-711 362.7,-711 362.7,-711 356.7,-711 350.7,-705 350.7,-699 350.7,-699 350.7,-687 350.7,-687 350.7,-681 356.7,-675 362.7,-675 362.7,-675 563.7,-675 563.7,-675 569.7,-675 575.7,-681 575.7,-687 575.7,-687 575.7,-699 575.7,-699 575.7,-705 569.7,-711 563.7,-711"/>
<text text-anchor="middle" x="463.2" y="-689.3" font-family="Helvetica,sans-Serif" font-size="14.00">DgsProcessDetectorVanadium</text>
</g>
<!-- DetectorVanadium&#45;&gt;DgsProcessDetectorVanadium -->
<g id="edge6" class="edge">
<title>DetectorVanadium&#45;&gt;DgsProcessDetectorVanadium</title>
<path fill="none" stroke="black" d="M635.12,-934.14C603.68,-890.22 519.11,-772.1 481.58,-719.67"/>
<polygon fill="black" stroke="black" points="484.22,-717.36 475.55,-711.26 478.53,-721.43 484.22,-717.36"/>
</g>
<!-- ComparsionDetectorVanadium -->
<g id="node4" class="node">
<title>ComparsionDetectorVanadium</title>
<ellipse fill="khaki" stroke="black" cx="385.2" cy="-952" rx="148.67" ry="18"/>
<text text-anchor="middle" x="385.2" y="-948.3" font-family="Helvetica,sans-Serif" font-size="14.00">ComparsionDetectorVanadium</text>
</g>
<!-- ComparsionDetectorVanadium&#45;&gt;DgsDiagnose -->
<g id="edge7" class="edge">
<title>ComparsionDetectorVanadium&#45;&gt;DgsDiagnose</title>
<path fill="none" stroke="black" d="M372.12,-933.81C365.56,-925.18 357.48,-914.56 350.24,-905.03"/>
<polygon fill="black" stroke="black" points="352.99,-902.87 344.15,-897.03 347.42,-907.11 352.99,-902.87"/>
</g>
<!-- Grouping -->
<g id="node5" class="node">
<title>Grouping</title>
<ellipse fill="khaki" stroke="black" cx="242.2" cy="-600" rx="51.99" ry="18"/>
<text text-anchor="middle" x="242.2" y="-596.3" font-family="Helvetica,sans-Serif" font-size="14.00">Grouping</text>
</g>
<!-- Grouping&#45;&gt;DgsConvertToEnergyTransfer -->
<g id="edge8" class="edge">
<title>Grouping&#45;&gt;DgsConvertToEnergyTransfer</title>
<path fill="none" stroke="black" d="M242.2,-581.88C242.2,-568.79 242.2,-550.48 242.2,-535.36"/>
<polygon fill="black" stroke="black" points="245.7,-535.04 242.2,-525.04 238.7,-535.04 245.7,-535.04"/>
</g>
<!-- AbsoluteUnitsSample -->
<g id="node6" class="node">
<title>AbsoluteUnitsSample</title>
<ellipse fill="khaki" stroke="black" cx="511.2" cy="-507" rx="107.48" ry="18"/>
<text text-anchor="middle" x="511.2" y="-503.3" font-family="Helvetica,sans-Serif" font-size="14.00">AbsoluteUnitsSample</text>
</g>
<!-- DgsAbsoluteUnitsReduction -->
<g id="node13" class="node">
<title>DgsAbsoluteUnitsReduction</title>
<path fill="lightskyblue" stroke="black" d="M855.2,-432C855.2,-432 669.2,-432 669.2,-432 663.2,-432 657.2,-426 657.2,-420 657.2,-420 657.2,-408 657.2,-408 657.2,-402 663.2,-396 669.2,-396 669.2,-396 855.2,-396 855.2,-396 861.2,-396 867.2,-402 867.2,-408 867.2,-408 867.2,-420 867.2,-420 867.2,-426 861.2,-432 855.2,-432"/>
<text text-anchor="middle" x="762.2" y="-410.3" font-family="Helvetica,sans-Serif" font-size="14.00">DgsAbsoluteUnitsReduction</text>
</g>
<!-- AbsoluteUnitsSample&#45;&gt;DgsAbsoluteUnitsReduction -->
<g id="edge14" class="edge">
<title>AbsoluteUnitsSample&#45;&gt;DgsAbsoluteUnitsReduction</title>
<path fill="none" stroke="black" d="M554.06,-490.46C595.89,-475.29 659.77,-452.14 705.72,-435.47"/>
<polygon fill="black" stroke="black" points="707.03,-438.72 715.24,-432.02 704.65,-432.14 707.03,-438.72"/>
</g>
<!-- AbsoluteUnitsDetectorVanadium -->
<g id="node7" class="node">
<title>AbsoluteUnitsDetectorVanadium</title>
<ellipse fill="khaki" stroke="black" cx="794.2" cy="-507" rx="157.07" ry="18"/>
<text text-anchor="middle" x="794.2" y="-503.3" font-family="Helvetica,sans-Serif" font-size="14.00">AbsoluteUnitsDetectorVanadium</text>
</g>
<!-- AbsoluteUnitsDetectorVanadium&#45;&gt;DgsAbsoluteUnitsReduction -->
<g id="edge15" class="edge">
<title>AbsoluteUnitsDetectorVanadium&#45;&gt;DgsAbsoluteUnitsReduction</title>
<path fill="none" stroke="black" d="M788.18,-488.88C783.48,-475.54 776.88,-456.77 771.51,-441.49"/>
<polygon fill="black" stroke="black" points="774.81,-440.31 768.19,-432.04 768.2,-442.63 774.81,-440.31"/>
</g>
<!-- OutputWorkspace -->
<g id="node8" class="node">
<title>OutputWorkspace</title>
<ellipse fill="khaki" stroke="black" cx="528.2" cy="-18" rx="92.08" ry="18"/>
<text text-anchor="middle" x="528.2" y="-14.3" font-family="Helvetica,sans-Serif" font-size="14.00">OutputWorkspace</text>
</g>
<!-- isAbsUnits -->
<g id="node9" class="node">
<title>isAbsUnits</title>
<polygon fill="limegreen" stroke="black" points="478.2,-324 401.2,-286 478.2,-248 555.2,-286 478.2,-324"/>
<text text-anchor="middle" x="478.2" y="-289.8" font-family="Helvetica,sans-Serif" font-size="14.00">Absolute</text>
<text text-anchor="middle" x="478.2" y="-274.8" font-family="Helvetica,sans-Serif" font-size="14.00">Units?</text>
</g>
<!-- Divide -->
<g id="node14" class="node">
<title>Divide</title>
<path fill="lightskyblue" stroke="black" d="M601.2,-182C601.2,-182 565.2,-182 565.2,-182 559.2,-182 553.2,-176 553.2,-170 553.2,-170 553.2,-158 553.2,-158 553.2,-152 559.2,-146 565.2,-146 565.2,-146 601.2,-146 601.2,-146 607.2,-146 613.2,-152 613.2,-158 613.2,-158 613.2,-170 613.2,-170 613.2,-176 607.2,-182 601.2,-182"/>
<text text-anchor="middle" x="583.2" y="-160.3" font-family="Helvetica,sans-Serif" font-size="14.00">Divide</text>
</g>
<!-- isAbsUnits&#45;&gt;Divide -->
<g id="edge21" class="edge">
<title>isAbsUnits&#45;&gt;Divide</title>
<path fill="none" stroke="black" d="M500.98,-258.96C518.98,-238.39 543.92,-209.89 561.6,-189.68"/>
<polygon fill="black" stroke="black" points="564.28,-191.94 568.23,-182.11 559.01,-187.33 564.28,-191.94"/>
<text text-anchor="middle" x="562.7" y="-203.8" font-family="Helvetica,sans-Serif" font-size="14.00">Yes</text>
</g>
<!-- SPhiE -->
<g id="node21" class="node">
<title>SPhiE</title>
<polygon fill="grey" stroke="black" points="590.98,-109 491.1,-109 465.41,-73 565.29,-73 590.98,-109"/>
<text text-anchor="middle" x="528.2" y="-87.3" font-family="Times,serif" font-size="14.00">S(φ, E)</text>
</g>
<!-- isAbsUnits&#45;&gt;SPhiE -->
<g id="edge22" class="edge">
<title>isAbsUnits&#45;&gt;SPhiE</title>
<path fill="none" stroke="black" d="M489.89,-253.55C494.1,-241.58 498.68,-227.76 502.2,-215 511.19,-182.42 518.82,-144.24 523.44,-119.16"/>
<polygon fill="black" stroke="black" points="526.89,-119.74 525.23,-109.27 520.01,-118.49 526.89,-119.74"/>
<text text-anchor="middle" x="526.7" y="-160.3" font-family="Helvetica,sans-Serif" font-size="14.00">No</text>
</g>
<!-- detVanMask -->
<g id="node15" class="node">
<title>detVanMask</title>
<polygon fill="grey" stroke="black" points="426.46,-824 274.92,-824 235.93,-748 387.48,-748 426.46,-824"/>
<text text-anchor="middle" x="331.2" y="-789.8" font-family="Times,serif" font-size="14.00">DetVan</text>
<text text-anchor="middle" x="331.2" y="-774.8" font-family="Times,serif" font-size="14.00">Diag Mask</text>
</g>
<!-- DgsDiagnose&#45;&gt;detVanMask -->
<g id="edge9" class="edge">
<title>DgsDiagnose&#45;&gt;detVanMask</title>
<path fill="none" stroke="black" d="M331.2,-860.88C331.2,-853.25 331.2,-843.83 331.2,-834.31"/>
<polygon fill="black" stroke="black" points="334.7,-834.02 331.2,-824.02 327.7,-834.02 334.7,-834.02"/>
</g>
<!-- intDetVan -->
<g id="node16" class="node">
<title>intDetVan</title>
<polygon fill="grey" stroke="black" points="549.46,-638 397.92,-638 358.93,-562 510.48,-562 549.46,-638"/>
<text text-anchor="middle" x="454.2" y="-603.8" font-family="Times,serif" font-size="14.00">Integrated</text>
<text text-anchor="middle" x="454.2" y="-588.8" font-family="Times,serif" font-size="14.00">DetVan</text>
</g>
<!-- DgsProcessDetectorVanadium&#45;&gt;intDetVan -->
<g id="edge12" class="edge">
<title>DgsProcessDetectorVanadium&#45;&gt;intDetVan</title>
<path fill="none" stroke="black" d="M461.5,-674.88C460.74,-667.16 459.8,-657.63 458.85,-648.01"/>
<polygon fill="black" stroke="black" points="462.32,-647.63 457.86,-638.02 455.36,-648.32 462.32,-647.63"/>
</g>
<!-- procSamp -->
<g id="node17" class="node">
<title>procSamp</title>
<polygon fill="grey" stroke="black" points="570.24,-452 423.82,-452 386.15,-376 532.57,-376 570.24,-452"/>
<text text-anchor="middle" x="478.2" y="-417.8" font-family="Times,serif" font-size="14.00">Processed</text>
<text text-anchor="middle" x="478.2" y="-402.8" font-family="Times,serif" font-size="14.00">Sample</text>
</g>
<!-- DgsConvertToEnergyTransfer&#45;&gt;procSamp -->
<g id="edge19" class="edge">
<title>DgsConvertToEnergyTransfer&#45;&gt;procSamp</title>
<path fill="none" stroke="black" d="M286.31,-488.99C320.25,-475.9 367.85,-457.55 407.14,-442.4"/>
<polygon fill="black" stroke="black" points="408.87,-445.48 416.94,-438.62 406.35,-438.95 408.87,-445.48"/>
</g>
<!-- background -->
<g id="node18" class="node">
<title>background</title>
<polygon fill="grey" stroke="black" points="367.43,-452 126.85,-452 64.96,-376 305.54,-376 367.43,-452"/>
<text text-anchor="middle" x="216.2" y="-417.8" font-family="Times,serif" font-size="14.00">Time&#45;independent</text>
<text text-anchor="middle" x="216.2" y="-402.8" font-family="Times,serif" font-size="14.00">background</text>
</g>
<!-- DgsConvertToEnergyTransfer&#45;&gt;background -->
<g id="edge18" class="edge">
<title>DgsConvertToEnergyTransfer&#45;&gt;background</title>
<path fill="none" stroke="black" d="M237.31,-488.88C235.08,-481.08 232.32,-471.43 229.54,-461.7"/>
<polygon fill="black" stroke="black" points="232.89,-460.67 226.77,-452.02 226.15,-462.6 232.89,-460.67"/>
</g>
<!-- procUnits -->
<g id="node19" class="node">
<title>procUnits</title>
<polygon fill="grey" stroke="black" points="757.24,-339 610.82,-339 573.15,-233 719.57,-233 757.24,-339"/>
<text text-anchor="middle" x="665.2" y="-297.3" font-family="Times,serif" font-size="14.00">Processed</text>
<text text-anchor="middle" x="665.2" y="-282.3" font-family="Times,serif" font-size="14.00">Absolute</text>
<text text-anchor="middle" x="665.2" y="-267.3" font-family="Times,serif" font-size="14.00">Units</text>
</g>
<!-- DgsAbsoluteUnitsReduction&#45;&gt;procUnits -->
<g id="edge16" class="edge">
<title>DgsAbsoluteUnitsReduction&#45;&gt;procUnits</title>
<path fill="none" stroke="black" d="M748.91,-395.74C739.15,-383.06 725.25,-365.01 711.58,-347.25"/>
<polygon fill="black" stroke="black" points="714.21,-344.92 705.33,-339.14 708.66,-349.19 714.21,-344.92"/>
</g>
<!-- absUnits -->
<g id="node20" class="node">
<title>absUnits</title>
<polygon fill="grey" stroke="black" points="966.46,-339 814.92,-339 775.93,-233 927.48,-233 966.46,-339"/>
<text text-anchor="middle" x="871.2" y="-297.3" font-family="Times,serif" font-size="14.00">Absolute</text>
<text text-anchor="middle" x="871.2" y="-282.3" font-family="Times,serif" font-size="14.00">Units</text>
<text text-anchor="middle" x="871.2" y="-267.3" font-family="Times,serif" font-size="14.00">Diag Mask</text>
</g>
<!-- DgsAbsoluteUnitsReduction&#45;&gt;absUnits -->
<g id="edge17" class="edge">
<title>DgsAbsoluteUnitsReduction&#45;&gt;absUnits</title>
<path fill="none" stroke="black" d="M777.12,-395.74C788.19,-382.95 803.99,-364.69 819.49,-346.77"/>
<polygon fill="black" stroke="black" points="822.2,-348.99 826.1,-339.14 816.91,-344.41 822.2,-348.99"/>
</g>
<!-- Divide&#45;&gt;SPhiE -->
<g id="edge24" class="edge">
<title>Divide&#45;&gt;SPhiE</title>
<path fill="none" stroke="black" d="M569.88,-145.81C563.19,-137.18 554.96,-126.56 547.59,-117.03"/>
<polygon fill="black" stroke="black" points="550.28,-114.79 541.39,-109.03 544.74,-119.08 550.28,-114.79"/>
</g>
<!-- detVanMask&#45;&gt;DgsProcessDetectorVanadium -->
<g id="edge11" class="edge">
<title>detVanMask&#45;&gt;DgsProcessDetectorVanadium</title>
<path fill="none" stroke="black" d="M384.89,-747.99C400.11,-737.49 416.24,-726.37 429.88,-716.97"/>
<polygon fill="black" stroke="black" points="432.2,-719.62 438.45,-711.06 428.23,-713.86 432.2,-719.62"/>
</g>
<!-- detVanMask&#45;&gt;DgsConvertToEnergyTransfer -->
<g id="edge10" class="edge">
<title>detVanMask&#45;&gt;DgsConvertToEnergyTransfer</title>
<path fill="none" stroke="black" d="M334.25,-747.9C336.39,-701.62 334.52,-621.36 303.2,-562 297,-550.25 287.14,-539.86 277.14,-531.41"/>
<polygon fill="black" stroke="black" points="279.16,-528.54 269.16,-525.05 274.8,-534.02 279.16,-528.54"/>
</g>
<!-- intDetVan&#45;&gt;DgsConvertToEnergyTransfer -->
<g id="edge13" class="edge">
<title>intDetVan&#45;&gt;DgsConvertToEnergyTransfer</title>
<path fill="none" stroke="black" d="M378.46,-561.87C364.5,-555.37 349.98,-548.82 336.2,-543 324.55,-538.08 311.95,-533.14 299.88,-528.58"/>
<polygon fill="black" stroke="black" points="300.92,-525.23 290.33,-525.01 298.47,-531.79 300.92,-525.23"/>
</g>
<!-- procSamp&#45;&gt;isAbsUnits -->
<g id="edge20" class="edge">
<title>procSamp&#45;&gt;isAbsUnits</title>
<path fill="none" stroke="black" d="M478.2,-375.88C478.2,-362.92 478.2,-348.19 478.2,-334.51"/>
<polygon fill="black" stroke="black" points="481.7,-334.29 478.2,-324.29 474.7,-334.29 481.7,-334.29"/>
</g>
<!-- procUnits&#45;&gt;Divide -->
<g id="edge23" class="edge">
<title>procUnits&#45;&gt;Divide</title>
<path fill="none" stroke="black" d="M629.47,-232.72C619.47,-218.08 609.04,-202.82 600.62,-190.5"/>
<polygon fill="black" stroke="black" points="603.41,-188.38 594.88,-182.1 597.63,-192.33 603.41,-188.38"/>
</g>
<!-- SPhiE&#45;&gt;OutputWorkspace -->
<g id="edge25" class="edge">
<title>SPhiE&#45;&gt;OutputWorkspace</title>
<path fill="none" stroke="black" d="M528.2,-72.81C528.2,-64.79 528.2,-55.05 528.2,-46.07"/>
<polygon fill="black" stroke="black" points="531.7,-46.03 528.2,-36.03 524.7,-46.03 531.7,-46.03"/>
</g>
</g>
</svg>
