<?xml version="1.0" encoding="UTF-8" standalone="no"?>
<!DOCTYPE svg PUBLIC "-//W3C//DTD SVG 1.1//EN"
 "http://www.w3.org/Graphics/SVG/1.1/DTD/svg11.dtd">
<!-- Generated by graphviz version 2.47.2 (20210527.1257)
 -->
<!-- Title: DgsReduction Pages: 1 -->
<svg width="921pt" height="1001pt"
 viewBox="0.00 0.00 921.22 1001.00" xmlns="http://www.w3.org/2000/svg" xmlns:xlink="http://www.w3.org/1999/xlink">
<g id="graph0" class="graph" transform="scale(1 1) rotate(0) translate(4 997)">
<title>DgsReduction</title>
<polygon fill="white" stroke="transparent" points="-4,4 -4,-997 917.22,-997 917.22,4 -4,4"/>
<text text-anchor="middle" x="456.61" y="-977.8" font-family="Helvetica" font-size="14.00">DgsReduction Flowchart</text>
<!-- Sample -->
<g id="node1" class="node">
<title>Sample</title>
<ellipse fill="khaki" stroke="black" cx="40.95" cy="-952" rx="40.89" ry="18"/>
<text text-anchor="middle" x="40.95" y="-948.3" font-family="Helvetica" font-size="14.00">Sample</text>
</g>
<!-- DgsDiagnose -->
<g id="node10" class="node">
<title>DgsDiagnose</title>
<path fill="lightskyblue" stroke="black" d="M341.95,-897C341.95,-897 267.95,-897 267.95,-897 261.95,-897 255.95,-891 255.95,-885 255.95,-885 255.95,-873 255.95,-873 255.95,-867 261.95,-861 267.95,-861 267.95,-861 341.95,-861 341.95,-861 347.95,-861 353.95,-867 353.95,-873 353.95,-873 353.95,-885 353.95,-885 353.95,-891 347.95,-897 341.95,-897"/>
<text text-anchor="middle" x="304.95" y="-875.3" font-family="Helvetica" font-size="14.00">DgsDiagnose</text>
</g>
<!-- Sample&#45;&gt;DgsDiagnose -->
<g id="edge2" class="edge">
<title>Sample&#45;&gt;DgsDiagnose</title>
<path fill="none" stroke="black" d="M71.76,-940.09C78.08,-937.98 84.7,-935.85 90.95,-934 142.93,-918.63 202.82,-903.76 246,-893.52"/>
<polygon fill="black" stroke="black" points="246.84,-896.92 255.77,-891.22 245.23,-890.11 246.84,-896.92"/>
</g>
<!-- DgsConvertToEnergyTransfer -->
<g id="node12" class="node">
<title>DgsConvertToEnergyTransfer</title>
<path fill="lightskyblue" stroke="black" d="M311.45,-525C311.45,-525 140.45,-525 140.45,-525 134.45,-525 128.45,-519 128.45,-513 128.45,-513 128.45,-501 128.45,-501 128.45,-495 134.45,-489 140.45,-489 140.45,-489 311.45,-489 311.45,-489 317.45,-489 323.45,-495 323.45,-501 323.45,-501 323.45,-513 323.45,-513 323.45,-519 317.45,-525 311.45,-525"/>
<text text-anchor="middle" x="225.95" y="-503.3" font-family="Helvetica" font-size="14.00">DgsConvertToEnergyTransfer</text>
</g>
<!-- Sample&#45;&gt;DgsConvertToEnergyTransfer -->
<g id="edge1" class="edge">
<title>Sample&#45;&gt;DgsConvertToEnergyTransfer</title>
<path fill="none" stroke="black" d="M54.56,-934.95C64.75,-921.27 76.95,-900.59 76.95,-880 76.95,-880 76.95,-880 76.95,-599 76.95,-564.09 107.1,-542.17 140.28,-528.62"/>
<polygon fill="black" stroke="black" points="141.61,-531.86 149.7,-525.02 139.11,-525.33 141.61,-531.86"/>
</g>
<!-- HardMask -->
<g id="node2" class="node">
<title>HardMask</title>
<ellipse fill="khaki" stroke="black" cx="150.95" cy="-952" rx="51.19" ry="18"/>
<text text-anchor="middle" x="150.95" y="-948.3" font-family="Helvetica" font-size="14.00">HardMask</text>
</g>
<!-- HardMask&#45;&gt;DgsDiagnose -->
<g id="edge4" class="edge">
<title>HardMask&#45;&gt;DgsDiagnose</title>
<path fill="none" stroke="black" d="M180.64,-937.31C202.73,-927.13 233.3,-913.03 258.59,-901.37"/>
<polygon fill="black" stroke="black" points="260.38,-904.4 268,-897.03 257.45,-898.04 260.38,-904.4"/>
</g>
<!-- HardMask&#45;&gt;DgsConvertToEnergyTransfer -->
<g id="edge3" class="edge">
<title>HardMask&#45;&gt;DgsConvertToEnergyTransfer</title>
<path fill="none" stroke="black" d="M150.95,-933.78C150.95,-919.41 150.95,-898.37 150.95,-880 150.95,-880 150.95,-880 150.95,-599 150.95,-571.47 171.64,-547.75 191.29,-531.44"/>
<polygon fill="black" stroke="black" points="193.61,-534.07 199.29,-525.13 189.27,-528.57 193.61,-534.07"/>
</g>
<!-- DetectorVanadium -->
<g id="node3" class="node">
<title>DetectorVanadium</title>
<ellipse fill="khaki" stroke="black" cx="583.95" cy="-952" rx="83.39" ry="18"/>
<text text-anchor="middle" x="583.95" y="-948.3" font-family="Helvetica" font-size="14.00">DetectorVanadium</text>
</g>
<!-- DetectorVanadium&#45;&gt;DgsDiagnose -->
<g id="edge5" class="edge">
<title>DetectorVanadium&#45;&gt;DgsDiagnose</title>
<path fill="none" stroke="black" d="M532.12,-937.81C484.5,-925.69 413.96,-907.74 364.14,-895.06"/>
<polygon fill="black" stroke="black" points="364.71,-891.6 354.15,-892.52 362.98,-898.38 364.71,-891.6"/>
</g>
<!-- DgsProcessDetectorVanadium -->
<g id="node11" class="node">
<title>DgsProcessDetectorVanadium</title>
<path fill="lightskyblue" stroke="black" d="M518.45,-711C518.45,-711 341.45,-711 341.45,-711 335.45,-711 329.45,-705 329.45,-699 329.45,-699 329.45,-687 329.45,-687 329.45,-681 335.45,-675 341.45,-675 341.45,-675 518.45,-675 518.45,-675 524.45,-675 530.45,-681 530.45,-687 530.45,-687 530.45,-699 530.45,-699 530.45,-705 524.45,-711 518.45,-711"/>
<text text-anchor="middle" x="429.95" y="-689.3" font-family="Helvetica" font-size="14.00">DgsProcessDetectorVanadium</text>
</g>
<!-- DetectorVanadium&#45;&gt;DgsProcessDetectorVanadium -->
<g id="edge6" class="edge">
<title>DetectorVanadium&#45;&gt;DgsProcessDetectorVanadium</title>
<path fill="none" stroke="black" d="M573.6,-933.74C547.14,-889.57 476.85,-772.27 445.46,-719.89"/>
<polygon fill="black" stroke="black" points="448.39,-717.97 440.24,-711.19 442.38,-721.56 448.39,-717.97"/>
</g>
<!-- ComparsionDetectorVanadium -->
<g id="node4" class="node">
<title>ComparsionDetectorVanadium</title>
<ellipse fill="khaki" stroke="black" cx="351.95" cy="-952" rx="131.08" ry="18"/>
<text text-anchor="middle" x="351.95" y="-948.3" font-family="Helvetica" font-size="14.00">ComparsionDetectorVanadium</text>
</g>
<!-- ComparsionDetectorVanadium&#45;&gt;DgsDiagnose -->
<g id="edge7" class="edge">
<title>ComparsionDetectorVanadium&#45;&gt;DgsDiagnose</title>
<path fill="none" stroke="black" d="M340.57,-933.81C334.97,-925.35 328.1,-914.98 321.9,-905.61"/>
<polygon fill="black" stroke="black" points="324.66,-903.44 316.22,-897.03 318.82,-907.3 324.66,-903.44"/>
</g>
<!-- Grouping -->
<g id="node5" class="node">
<title>Grouping</title>
<ellipse fill="khaki" stroke="black" cx="225.95" cy="-600" rx="47.39" ry="18"/>
<text text-anchor="middle" x="225.95" y="-596.3" font-family="Helvetica" font-size="14.00">Grouping</text>
</g>
<!-- Grouping&#45;&gt;DgsConvertToEnergyTransfer -->
<g id="edge8" class="edge">
<title>Grouping&#45;&gt;DgsConvertToEnergyTransfer</title>
<path fill="none" stroke="black" d="M225.95,-581.88C225.95,-568.79 225.95,-550.48 225.95,-535.36"/>
<polygon fill="black" stroke="black" points="229.45,-535.04 225.95,-525.04 222.45,-535.04 229.45,-535.04"/>
</g>
<!-- AbsoluteUnitsSample -->
<g id="node6" class="node">
<title>AbsoluteUnitsSample</title>
<ellipse fill="khaki" stroke="black" cx="498.95" cy="-507" rx="94.78" ry="18"/>
<text text-anchor="middle" x="498.95" y="-503.3" font-family="Helvetica" font-size="14.00">AbsoluteUnitsSample</text>
</g>
<!-- DgsAbsoluteUnitsReduction -->
<g id="node13" class="node">
<title>DgsAbsoluteUnitsReduction</title>
<path fill="lightskyblue" stroke="black" d="M746.45,-432C746.45,-432 585.45,-432 585.45,-432 579.45,-432 573.45,-426 573.45,-420 573.45,-420 573.45,-408 573.45,-408 573.45,-402 579.45,-396 585.45,-396 585.45,-396 746.45,-396 746.45,-396 752.45,-396 758.45,-402 758.45,-408 758.45,-408 758.45,-420 758.45,-420 758.45,-426 752.45,-432 746.45,-432"/>
<text text-anchor="middle" x="665.95" y="-410.3" font-family="Helvetica" font-size="14.00">DgsAbsoluteUnitsReduction</text>
</g>
<!-- AbsoluteUnitsSample&#45;&gt;DgsAbsoluteUnitsReduction -->
<g id="edge14" class="edge">
<title>AbsoluteUnitsSample&#45;&gt;DgsAbsoluteUnitsReduction</title>
<path fill="none" stroke="black" d="M528.8,-489.73C555.84,-475 595.89,-453.17 625.74,-436.91"/>
<polygon fill="black" stroke="black" points="627.54,-439.91 634.65,-432.05 624.19,-433.77 627.54,-439.91"/>
</g>
<!-- AbsoluteUnitsDetectorVanadium -->
<g id="node7" class="node">
<title>AbsoluteUnitsDetectorVanadium</title>
<ellipse fill="khaki" stroke="black" cx="749.95" cy="-507" rx="137.58" ry="18"/>
<text text-anchor="middle" x="749.95" y="-503.3" font-family="Helvetica" font-size="14.00">AbsoluteUnitsDetectorVanadium</text>
</g>
<!-- AbsoluteUnitsDetectorVanadium&#45;&gt;DgsAbsoluteUnitsReduction -->
<g id="edge15" class="edge">
<title>AbsoluteUnitsDetectorVanadium&#45;&gt;DgsAbsoluteUnitsReduction</title>
<path fill="none" stroke="black" d="M734.15,-488.88C721.36,-475.03 703.17,-455.33 688.8,-439.76"/>
<polygon fill="black" stroke="black" points="691.03,-437.01 681.68,-432.04 685.89,-441.76 691.03,-437.01"/>
</g>
<!-- OutputWorkspace -->
<g id="node8" class="node">
<title>OutputWorkspace</title>
<ellipse fill="khaki" stroke="black" cx="495.95" cy="-18" rx="81.49" ry="18"/>
<text text-anchor="middle" x="495.95" y="-14.3" font-family="Helvetica" font-size="14.00">OutputWorkspace</text>
</g>
<!-- isAbsUnits -->
<g id="node9" class="node">
<title>isAbsUnits</title>
<polygon fill="limegreen" stroke="black" points="445.95,-324 376.95,-286 445.95,-248 514.95,-286 445.95,-324"/>
<text text-anchor="middle" x="445.95" y="-289.8" font-family="Helvetica" font-size="14.00">Absolute</text>
<text text-anchor="middle" x="445.95" y="-274.8" font-family="Helvetica" font-size="14.00">Units?</text>
</g>
<!-- Divide -->
<g id="node14" class="node">
<title>Divide</title>
<path fill="lightskyblue" stroke="black" d="M561.95,-182C561.95,-182 531.95,-182 531.95,-182 525.95,-182 519.95,-176 519.95,-170 519.95,-170 519.95,-158 519.95,-158 519.95,-152 525.95,-146 531.95,-146 531.95,-146 561.95,-146 561.95,-146 567.95,-146 573.95,-152 573.95,-158 573.95,-158 573.95,-170 573.95,-170 573.95,-176 567.95,-182 561.95,-182"/>
<text text-anchor="middle" x="546.95" y="-160.3" font-family="Helvetica" font-size="14.00">Divide</text>
</g>
<!-- isAbsUnits&#45;&gt;Divide -->
<g id="edge21" class="edge">
<title>isAbsUnits&#45;&gt;Divide</title>
<path fill="none" stroke="black" d="M467.37,-259.55C484.57,-239.11 508.6,-210.56 525.74,-190.19"/>
<polygon fill="black" stroke="black" points="528.64,-192.19 532.4,-182.28 523.28,-187.68 528.64,-192.19"/>
<text text-anchor="middle" x="528.45" y="-203.8" font-family="Helvetica" font-size="14.00">Yes</text>
</g>
<!-- SPhiE -->
<g id="node21" class="node">
<title>SPhiE</title>
<polygon fill="grey" stroke="black" points="556.02,-109 460.46,-109 435.88,-73 531.43,-73 556.02,-109"/>
<text text-anchor="middle" x="495.95" y="-87.3" font-family="Times-Roman" font-size="14.00">S(φ, E)</text>
</g>
<!-- isAbsUnits&#45;&gt;SPhiE -->
<g id="edge22" class="edge">
<title>isAbsUnits&#45;&gt;SPhiE</title>
<path fill="none" stroke="black" d="M457.4,-254.24C461.67,-242.12 466.36,-228 469.95,-215 478.94,-182.42 486.57,-144.24 491.19,-119.16"/>
<polygon fill="black" stroke="black" points="494.64,-119.74 492.98,-109.27 487.76,-118.49 494.64,-119.74"/>
<text text-anchor="middle" x="493.95" y="-160.3" font-family="Helvetica" font-size="14.00">No</text>
</g>
<!-- detVanMask -->
<g id="node15" class="node">
<title>detVanMask</title>
<polygon fill="grey" stroke="black" points="396.99,-824 250.57,-824 212.9,-748 359.32,-748 396.99,-824"/>
<text text-anchor="middle" x="304.95" y="-789.8" font-family="Times-Roman" font-size="14.00">DetVan</text>
<text text-anchor="middle" x="304.95" y="-774.8" font-family="Times-Roman" font-size="14.00">Diag Mask</text>
</g>
<!-- DgsDiagnose&#45;&gt;detVanMask -->
<g id="edge9" class="edge">
<title>DgsDiagnose&#45;&gt;detVanMask</title>
<path fill="none" stroke="black" d="M304.95,-860.88C304.95,-853.25 304.95,-843.83 304.95,-834.31"/>
<polygon fill="black" stroke="black" points="308.45,-834.02 304.95,-824.02 301.45,-834.02 308.45,-834.02"/>
</g>
<!-- intDetVan -->
<g id="node16" class="node">
<title>intDetVan</title>
<polygon fill="grey" stroke="black" points="516.99,-638 370.57,-638 332.9,-562 479.32,-562 516.99,-638"/>
<text text-anchor="middle" x="424.95" y="-603.8" font-family="Times-Roman" font-size="14.00">Integrated</text>
<text text-anchor="middle" x="424.95" y="-588.8" font-family="Times-Roman" font-size="14.00">DetVan</text>
</g>
<!-- DgsProcessDetectorVanadium&#45;&gt;intDetVan -->
<g id="edge12" class="edge">
<title>DgsProcessDetectorVanadium&#45;&gt;intDetVan</title>
<path fill="none" stroke="black" d="M429.01,-674.88C428.58,-667.16 428.06,-657.63 427.53,-648.01"/>
<polygon fill="black" stroke="black" points="431.02,-647.81 426.98,-638.02 424.03,-648.2 431.02,-647.81"/>
</g>
<!-- procSamp -->
<g id="node17" class="node">
<title>procSamp</title>
<polygon fill="grey" stroke="black" points="535.27,-452 393.18,-452 356.62,-376 498.72,-376 535.27,-452"/>
<text text-anchor="middle" x="445.95" y="-417.8" font-family="Times-Roman" font-size="14.00">Processed</text>
<text text-anchor="middle" x="445.95" y="-402.8" font-family="Times-Roman" font-size="14.00">Sample</text>
</g>
<!-- DgsConvertToEnergyTransfer&#45;&gt;procSamp -->
<g id="edge19" class="edge">
<title>DgsConvertToEnergyTransfer&#45;&gt;procSamp</title>
<path fill="none" stroke="black" d="M267.07,-488.99C298.01,-476.19 341.11,-458.36 377.25,-443.41"/>
<polygon fill="black" stroke="black" points="378.86,-446.54 386.76,-439.48 376.18,-440.07 378.86,-446.54"/>
</g>
<!-- background -->
<g id="node18" class="node">
<title>background</title>
<polygon fill="grey" stroke="black" points="338.96,-452 103.5,-452 42.93,-376 278.39,-376 338.96,-452"/>
<text text-anchor="middle" x="190.95" y="-417.8" font-family="Times-Roman" font-size="14.00">Time&#45;independent</text>
<text text-anchor="middle" x="190.95" y="-402.8" font-family="Times-Roman" font-size="14.00">background</text>
</g>
<!-- DgsConvertToEnergyTransfer&#45;&gt;background -->
<g id="edge18" class="edge">
<title>DgsConvertToEnergyTransfer&#45;&gt;background</title>
<path fill="none" stroke="black" d="M219.36,-488.88C216.33,-481 212.57,-471.23 208.79,-461.4"/>
<polygon fill="black" stroke="black" points="212.04,-460.1 205.18,-452.02 205.51,-462.61 212.04,-460.1"/>
</g>
<!-- procUnits -->
<g id="node19" class="node">
<title>procUnits</title>
<polygon fill="grey" stroke="black" points="711.27,-339 569.18,-339 532.62,-233 674.72,-233 711.27,-339"/>
<text text-anchor="middle" x="621.95" y="-297.3" font-family="Times-Roman" font-size="14.00">Processed</text>
<text text-anchor="middle" x="621.95" y="-282.3" font-family="Times-Roman" font-size="14.00">Absolute</text>
<text text-anchor="middle" x="621.95" y="-267.3" font-family="Times-Roman" font-size="14.00">Units</text>
</g>
<!-- DgsAbsoluteUnitsReduction&#45;&gt;procUnits -->
<g id="edge16" class="edge">
<title>DgsAbsoluteUnitsReduction&#45;&gt;procUnits</title>
<path fill="none" stroke="black" d="M659.92,-395.74C655.61,-383.4 649.53,-365.98 643.49,-348.69"/>
<polygon fill="black" stroke="black" points="646.75,-347.42 640.15,-339.14 640.14,-349.73 646.75,-347.42"/>
</g>
<!-- absUnits -->
<g id="node20" class="node">
<title>absUnits</title>
<polygon fill="grey" stroke="black" points="912.99,-339 766.57,-339 728.9,-233 875.32,-233 912.99,-339"/>
<text text-anchor="middle" x="820.95" y="-297.3" font-family="Times-Roman" font-size="14.00">Absolute</text>
<text text-anchor="middle" x="820.95" y="-282.3" font-family="Times-Roman" font-size="14.00">Units</text>
<text text-anchor="middle" x="820.95" y="-267.3" font-family="Times-Roman" font-size="14.00">Diag Mask</text>
</g>
<!-- DgsAbsoluteUnitsReduction&#45;&gt;absUnits -->
<g id="edge17" class="edge">
<title>DgsAbsoluteUnitsReduction&#45;&gt;absUnits</title>
<path fill="none" stroke="black" d="M687.17,-395.74C705.05,-381.21 731.61,-359.63 756.35,-339.51"/>
<polygon fill="black" stroke="black" points="758.76,-342.06 764.31,-333.04 754.34,-336.63 758.76,-342.06"/>
</g>
<!-- Divide&#45;&gt;SPhiE -->
<g id="edge24" class="edge">
<title>Divide&#45;&gt;SPhiE</title>
<path fill="none" stroke="black" d="M534.6,-145.81C528.46,-137.27 520.92,-126.77 514.14,-117.32"/>
<polygon fill="black" stroke="black" points="516.86,-115.11 508.18,-109.03 511.17,-119.19 516.86,-115.11"/>
</g>
<!-- detVanMask&#45;&gt;DgsProcessDetectorVanadium -->
<g id="edge11" class="edge">
<title>detVanMask&#45;&gt;DgsProcessDetectorVanadium</title>
<path fill="none" stroke="black" d="M355.79,-747.99C370.2,-737.49 385.48,-726.37 398.39,-716.97"/>
<polygon fill="black" stroke="black" points="400.48,-719.78 406.51,-711.06 396.36,-714.12 400.48,-719.78"/>
</g>
<!-- detVanMask&#45;&gt;DgsConvertToEnergyTransfer -->
<g id="edge10" class="edge">
<title>detVanMask&#45;&gt;DgsConvertToEnergyTransfer</title>
<path fill="none" stroke="black" d="M308.64,-747.77C311.56,-701.7 311.17,-622.01 281.95,-562 276.4,-550.62 267.41,-540.33 258.24,-531.86"/>
<polygon fill="black" stroke="black" points="260.4,-529.11 250.56,-525.19 255.81,-534.39 260.4,-529.11"/>
</g>
<!-- intDetVan&#45;&gt;DgsConvertToEnergyTransfer -->
<g id="edge13" class="edge">
<title>intDetVan&#45;&gt;DgsConvertToEnergyTransfer</title>
<path fill="none" stroke="black" d="M354.72,-561.98C341.61,-555.44 327.94,-548.85 314.95,-543 304.29,-538.21 292.77,-533.4 281.66,-528.96"/>
<polygon fill="black" stroke="black" points="282.62,-525.57 272.03,-525.15 280.04,-532.08 282.62,-525.57"/>
</g>
<!-- procSamp&#45;&gt;isAbsUnits -->
<g id="edge20" class="edge">
<title>procSamp&#45;&gt;isAbsUnits</title>
<path fill="none" stroke="black" d="M445.95,-375.88C445.95,-362.92 445.95,-348.19 445.95,-334.51"/>
<polygon fill="black" stroke="black" points="449.45,-334.29 445.95,-324.29 442.45,-334.29 449.45,-334.29"/>
</g>
<!-- procUnits&#45;&gt;Divide -->
<g id="edge23" class="edge">
<title>procUnits&#45;&gt;Divide</title>
<path fill="none" stroke="black" d="M589.27,-232.72C580.21,-218.22 570.77,-203.11 563.11,-190.86"/>
<polygon fill="black" stroke="black" points="565.9,-188.72 557.63,-182.1 559.96,-192.43 565.9,-188.72"/>
</g>
<!-- SPhiE&#45;&gt;OutputWorkspace -->
<g id="edge25" class="edge">
<title>SPhiE&#45;&gt;OutputWorkspace</title>
<path fill="none" stroke="black" d="M495.95,-72.81C495.95,-64.79 495.95,-55.05 495.95,-46.07"/>
<polygon fill="black" stroke="black" points="499.45,-46.03 495.95,-36.03 492.45,-46.03 499.45,-46.03"/>
</g>
</g>
</svg>
