<?xml version="1.0" encoding="UTF-8" standalone="no"?>
<!DOCTYPE svg PUBLIC "-//W3C//DTD SVG 1.1//EN"
 "http://www.w3.org/Graphics/SVG/1.1/DTD/svg11.dtd">
<!-- Generated by graphviz version 3.0.0 (20220315.2325)
 -->
<!-- Title: Sample Pages: 1 -->
<svg width="423pt" height="620pt"
 viewBox="0.00 0.00 423.02 620.00" xmlns="http://www.w3.org/2000/svg" xmlns:xlink="http://www.w3.org/1999/xlink">
<g id="graph0" class="graph" transform="scale(1 1) rotate(0) translate(4 616)">
<title>Sample</title>
<polygon fill="white" stroke="transparent" points="-4,4 -4,-616 419.02,-616 419.02,4 -4,4"/>
<!-- Mask -->
<g id="node1" class="node">
<title>Mask</title>
<polygon fill="limegreen" stroke="black" points="277.84,-468 228.91,-450 277.84,-432 326.77,-450 277.84,-468"/>
<text text-anchor="middle" x="277.84" y="-446.3" font-family="Helvetica,sans-Serif" font-size="14.00">Mask</text>
</g>
<!-- Group -->
<g id="node2" class="node">
<title>Group</title>
<polygon fill="limegreen" stroke="black" points="276.84,-324 222.38,-306 276.84,-288 331.3,-306 276.84,-324"/>
<text text-anchor="middle" x="276.84" y="-302.3" font-family="Helvetica,sans-Serif" font-size="14.00">Group</text>
</g>
<!-- Mask&#45;&gt;Group -->
<g id="edge8" class="edge">
<title>Mask&#45;&gt;Group</title>
<path fill="none" stroke="black" d="M286.32,-434.73C291.96,-424.38 298.86,-409.82 301.84,-396 305.22,-380.36 305.34,-375.61 301.84,-360 299.56,-349.79 295.07,-339.24 290.53,-330.26"/>
<polygon fill="black" stroke="black" points="293.49,-328.37 285.67,-321.22 287.32,-331.69 293.49,-328.37"/>
</g>
<!-- MaskDetectors -->
<g id="node8" class="node">
<title>MaskDetectors</title>
<path fill="lightskyblue" stroke="black" d="M280.34,-396C280.34,-396 185.34,-396 185.34,-396 179.34,-396 173.34,-390 173.34,-384 173.34,-384 173.34,-372 173.34,-372 173.34,-366 179.34,-360 185.34,-360 185.34,-360 280.34,-360 280.34,-360 286.34,-360 292.34,-366 292.34,-372 292.34,-372 292.34,-384 292.34,-384 292.34,-390 286.34,-396 280.34,-396"/>
<text text-anchor="middle" x="232.84" y="-374.3" font-family="Helvetica,sans-Serif" font-size="14.00">MaskDetectors</text>
</g>
<!-- Mask&#45;&gt;MaskDetectors -->
<g id="edge6" class="edge">
<title>Mask&#45;&gt;MaskDetectors</title>
<path fill="none" stroke="black" d="M268.95,-435.17C263.37,-426.48 255.99,-415 249.35,-404.68"/>
<polygon fill="black" stroke="black" points="252.14,-402.54 243.78,-396.02 246.25,-406.32 252.14,-402.54"/>
</g>
<!-- Save -->
<g id="node3" class="node">
<title>Save</title>
<polygon fill="limegreen" stroke="black" points="276.84,-180 230.93,-162 276.84,-144 322.76,-162 276.84,-180"/>
<text text-anchor="middle" x="276.84" y="-158.3" font-family="Helvetica,sans-Serif" font-size="14.00">Save</text>
</g>
<!-- Group&#45;&gt;Save -->
<g id="edge11" class="edge">
<title>Group&#45;&gt;Save</title>
<path fill="none" stroke="black" d="M286.37,-290.87C292.71,-280.59 300.47,-266.06 303.84,-252 307.58,-236.44 307.58,-231.56 303.84,-216 301.3,-205.42 296.28,-194.57 291.24,-185.46"/>
<polygon fill="black" stroke="black" points="294.18,-183.54 286.1,-176.69 288.14,-187.08 294.18,-183.54"/>
</g>
<!-- GroupDetectors -->
<g id="node10" class="node">
<title>GroupDetectors</title>
<path fill="lightskyblue" stroke="black" d="M282.34,-252C282.34,-252 181.34,-252 181.34,-252 175.34,-252 169.34,-246 169.34,-240 169.34,-240 169.34,-228 169.34,-228 169.34,-222 175.34,-216 181.34,-216 181.34,-216 282.34,-216 282.34,-216 288.34,-216 294.34,-222 294.34,-228 294.34,-228 294.34,-240 294.34,-240 294.34,-246 288.34,-252 282.34,-252"/>
<text text-anchor="middle" x="231.84" y="-230.3" font-family="Helvetica,sans-Serif" font-size="14.00">GroupDetectors</text>
</g>
<!-- Group&#45;&gt;GroupDetectors -->
<g id="edge9" class="edge">
<title>Group&#45;&gt;GroupDetectors</title>
<path fill="none" stroke="black" d="M267.74,-290.83C262.17,-282.18 254.9,-270.86 248.35,-260.68"/>
<polygon fill="black" stroke="black" points="251.2,-258.63 242.84,-252.11 245.31,-262.42 251.2,-258.63"/>
</g>
<!-- OutputWorkspace -->
<g id="node6" class="node">
<title>OutputWorkspace</title>
<polygon fill="grey" stroke="black" points="415.2,-36 195.11,-36 138.49,0 358.58,0 415.2,-36"/>
<text text-anchor="middle" x="276.84" y="-14.3" font-family="Times,serif" font-size="14.00">OutputWorkspace</text>
</g>
<!-- Save&#45;&gt;OutputWorkspace -->
<g id="edge14" class="edge">
<title>Save&#45;&gt;OutputWorkspace</title>
<path fill="none" stroke="black" d="M283.92,-146.56C288.62,-136.13 294.37,-121.55 296.84,-108 299.71,-92.26 299.71,-87.74 296.84,-72 295.24,-63.2 292.25,-53.95 289.06,-45.7"/>
<polygon fill="black" stroke="black" points="292.19,-44.12 285.15,-36.21 285.72,-46.79 292.19,-44.12"/>
</g>
<!-- SaveOutput -->
<g id="node9" class="node">
<title>SaveOutput</title>
<path fill="lightskyblue" stroke="black" d="M275.34,-108C275.34,-108 200.34,-108 200.34,-108 194.34,-108 188.34,-102 188.34,-96 188.34,-96 188.34,-84 188.34,-84 188.34,-78 194.34,-72 200.34,-72 200.34,-72 275.34,-72 275.34,-72 281.34,-72 287.34,-78 287.34,-84 287.34,-84 287.34,-96 287.34,-96 287.34,-102 281.34,-108 275.34,-108"/>
<text text-anchor="middle" x="237.84" y="-86.3" font-family="Helvetica,sans-Serif" font-size="14.00">SaveOutput</text>
</g>
<!-- Save&#45;&gt;SaveOutput -->
<g id="edge12" class="edge">
<title>Save&#45;&gt;SaveOutput</title>
<path fill="none" stroke="black" d="M268.95,-146.83C264.18,-138.27 257.95,-127.09 252.32,-116.98"/>
<polygon fill="black" stroke="black" points="255.3,-115.14 247.38,-108.11 249.19,-118.55 255.3,-115.14"/>
</g>
<!-- Runs -->
<g id="node4" class="node">
<title>Runs</title>
<ellipse fill="khaki" stroke="black" cx="277.84" cy="-594" rx="33.29" ry="18"/>
<text text-anchor="middle" x="277.84" y="-590.3" font-family="Helvetica,sans-Serif" font-size="14.00">Runs</text>
</g>
<!-- DirectILLCollectData -->
<g id="node7" class="node">
<title>DirectILLCollectData</title>
<path fill="lightskyblue" stroke="black" d="M343.34,-540C343.34,-540 212.34,-540 212.34,-540 206.34,-540 200.34,-534 200.34,-528 200.34,-528 200.34,-516 200.34,-516 200.34,-510 206.34,-504 212.34,-504 212.34,-504 343.34,-504 343.34,-504 349.34,-504 355.34,-510 355.34,-516 355.34,-516 355.34,-528 355.34,-528 355.34,-534 349.34,-540 343.34,-540"/>
<text text-anchor="middle" x="277.84" y="-518.3" font-family="Helvetica,sans-Serif" font-size="14.00">DirectILLCollectData</text>
</g>
<!-- Runs&#45;&gt;DirectILLCollectData -->
<g id="edge1" class="edge">
<title>Runs&#45;&gt;DirectILLCollectData</title>
<path fill="none" stroke="black" d="M277.84,-575.7C277.84,-567.98 277.84,-558.71 277.84,-550.11"/>
<polygon fill="black" stroke="black" points="281.34,-550.1 277.84,-540.1 274.34,-550.1 281.34,-550.1"/>
</g>
<!-- MaskWorkspace -->
<g id="node5" class="node">
<title>MaskWorkspace</title>
<ellipse fill="khaki" stroke="black" cx="83.84" cy="-450" rx="83.69" ry="18"/>
<text text-anchor="middle" x="83.84" y="-446.3" font-family="Helvetica,sans-Serif" font-size="14.00">MaskWorkspace</text>
</g>
<!-- MaskWorkspace&#45;&gt;MaskDetectors -->
<g id="edge5" class="edge">
<title>MaskWorkspace&#45;&gt;MaskDetectors</title>
<path fill="none" stroke="black" d="M117.28,-433.29C138.02,-423.55 164.93,-410.91 187.56,-400.27"/>
<polygon fill="black" stroke="black" points="189.09,-403.42 196.65,-396 186.11,-397.09 189.09,-403.42"/>
</g>
<!-- MaskCreation -->
<g id="node11" class="node">
<title>MaskCreation</title>
<ellipse fill="lightgrey" stroke="black" cx="83.84" cy="-378" rx="71.49" ry="18"/>
<text text-anchor="middle" x="83.84" y="-374.3" font-family="Helvetica,sans-Serif" font-size="14.00">MaskCreation</text>
</g>
<!-- MaskWorkspace&#45;&gt;MaskCreation -->
<g id="edge3" class="edge">
<title>MaskWorkspace&#45;&gt;MaskCreation</title>
<path fill="none" stroke="black" d="M77.93,-431.7C77.13,-423.98 76.9,-414.71 77.25,-406.11"/>
<polygon fill="black" stroke="black" points="80.74,-406.32 77.95,-396.1 73.76,-405.84 80.74,-406.32"/>
</g>
<!-- DirectILLCollectData&#45;&gt;Mask -->
<g id="edge2" class="edge">
<title>DirectILLCollectData&#45;&gt;Mask</title>
<path fill="none" stroke="black" d="M277.84,-503.7C277.84,-495.98 277.84,-486.71 277.84,-478.11"/>
<polygon fill="black" stroke="black" points="281.34,-478.1 277.84,-468.1 274.34,-478.1 281.34,-478.1"/>
</g>
<!-- MaskDetectors&#45;&gt;Group -->
<g id="edge7" class="edge">
<title>MaskDetectors&#45;&gt;Group</title>
<path fill="none" stroke="black" d="M243.72,-359.7C249.35,-350.74 256.3,-339.68 262.38,-330.01"/>
<polygon fill="black" stroke="black" points="265.51,-331.61 267.87,-321.28 259.58,-327.88 265.51,-331.61"/>
</g>
<!-- SaveOutput&#45;&gt;OutputWorkspace -->
<g id="edge13" class="edge">
<title>SaveOutput&#45;&gt;OutputWorkspace</title>
<path fill="none" stroke="black" d="M247.48,-71.7C251.97,-63.64 257.4,-53.89 262.37,-44.98"/>
<polygon fill="black" stroke="black" points="265.5,-46.54 267.31,-36.1 259.39,-43.14 265.5,-46.54"/>
</g>
<!-- GroupDetectors&#45;&gt;Save -->
<g id="edge10" class="edge">
<title>GroupDetectors&#45;&gt;Save</title>
<path fill="none" stroke="black" d="M242.97,-215.7C248.86,-206.52 256.18,-195.14 262.5,-185.31"/>
<polygon fill="black" stroke="black" points="265.49,-187.13 267.96,-176.82 259.6,-183.34 265.49,-187.13"/>
</g>
<!-- MaskCreation&#45;&gt;MaskWorkspace -->
<g id="edge4" class="edge">
<title>MaskCreation&#45;&gt;MaskWorkspace</title>
<path fill="none" stroke="black" d="M89.74,-396.1C90.54,-403.79 90.78,-413.05 90.45,-421.67"/>
<polygon fill="black" stroke="black" points="86.95,-421.48 89.76,-431.7 93.93,-421.96 86.95,-421.48"/>
</g>
</g>
</svg>
