<?xml version="1.0" encoding="UTF-8" standalone="no"?>
<!DOCTYPE svg PUBLIC "-//W3C//DTD SVG 1.1//EN"
 "http://www.w3.org/Graphics/SVG/1.1/DTD/svg11.dtd">
<!-- Generated by graphviz version 2.40.1 (20161225.0304)
 -->
<!-- Title: Sample Pages: 1 -->
<svg width="598pt" height="980pt"
 viewBox="0.00 0.00 598.16 980.00" xmlns="http://www.w3.org/2000/svg" xmlns:xlink="http://www.w3.org/1999/xlink">
<g id="graph0" class="graph" transform="scale(1 1) rotate(0) translate(4 976)">
<title>Sample</title>
<polygon fill="#ffffff" stroke="transparent" points="-4,4 -4,-976 594.1626,-976 594.1626,4 -4,4"/>
<!-- Mask -->
<g id="node1" class="node">
<title>Mask</title>
<polygon fill="#32cd32" stroke="#000000" points="498.2895,-828 452.3737,-810 498.2895,-792 544.2053,-810 498.2895,-828"/>
<text text-anchor="middle" x="498.2895" y="-806.3" font-family="Helvetica,sans-Serif" font-size="14.00" fill="#000000">Mask</text>
</g>
<!-- MaskDetectors -->
<g id="node10" class="node">
<title>MaskDetectors</title>
<path fill="#87cefa" stroke="#000000" d="M498.7895,-756C498.7895,-756 415.7895,-756 415.7895,-756 409.7895,-756 403.7895,-750 403.7895,-744 403.7895,-744 403.7895,-732 403.7895,-732 403.7895,-726 409.7895,-720 415.7895,-720 415.7895,-720 498.7895,-720 498.7895,-720 504.7895,-720 510.7895,-726 510.7895,-732 510.7895,-732 510.7895,-744 510.7895,-744 510.7895,-750 504.7895,-756 498.7895,-756"/>
<text text-anchor="middle" x="457.2895" y="-734.3" font-family="Helvetica,sans-Serif" font-size="14.00" fill="#000000">MaskDetectors</text>
</g>
<!-- Mask&#45;&gt;MaskDetectors -->
<g id="edge6" class="edge">
<title>Mask&#45;&gt;MaskDetectors</title>
<path fill="none" stroke="#000000" d="M489.7943,-795.0816C484.8738,-786.4407 478.5286,-775.2979 472.7522,-765.1541"/>
<polygon fill="#000000" stroke="#000000" points="475.6544,-763.1774 467.6645,-756.2195 469.5715,-766.6413 475.6544,-763.1774"/>
</g>
<!-- Minus -->
<g id="node15" class="node">
<title>Minus</title>
<path fill="#87cefa" stroke="#000000" d="M472.2895,-684C472.2895,-684 442.2895,-684 442.2895,-684 436.2895,-684 430.2895,-678 430.2895,-672 430.2895,-672 430.2895,-660 430.2895,-660 430.2895,-654 436.2895,-648 442.2895,-648 442.2895,-648 472.2895,-648 472.2895,-648 478.2895,-648 484.2895,-654 484.2895,-660 484.2895,-660 484.2895,-672 484.2895,-672 484.2895,-678 478.2895,-684 472.2895,-684"/>
<text text-anchor="middle" x="457.2895" y="-662.3" font-family="Helvetica,sans-Serif" font-size="14.00" fill="#000000">Minus</text>
</g>
<!-- Mask&#45;&gt;Minus -->
<g id="edge8" class="edge">
<title>Mask&#45;&gt;Minus</title>
<path fill="none" stroke="#000000" d="M507.2813,-795.4021C517.3122,-777.1109 530.7217,-745.1176 519.2895,-720 513.5408,-707.3696 503.2168,-696.5444 492.6216,-687.975"/>
<polygon fill="#000000" stroke="#000000" points="494.627,-685.1034 484.5379,-681.869 490.4079,-690.6891 494.627,-685.1034"/>
</g>
<!-- SelfAttenuation -->
<g id="node2" class="node">
<title>SelfAttenuation</title>
<polygon fill="#32cd32" stroke="#000000" points="457.2895,-612 358.251,-594 457.2895,-576 556.328,-594 457.2895,-612"/>
<text text-anchor="middle" x="457.2895" y="-590.3" font-family="Helvetica,sans-Serif" font-size="14.00" fill="#000000">SelfAttenuation</text>
</g>
<!-- PaalmanPingsMonteCarloAbsorption -->
<g id="node11" class="node">
<title>PaalmanPingsMonteCarloAbsorption</title>
<path fill="#87cefa" stroke="#000000" d="M564.7895,-540C564.7895,-540 349.7895,-540 349.7895,-540 343.7895,-540 337.7895,-534 337.7895,-528 337.7895,-528 337.7895,-516 337.7895,-516 337.7895,-510 343.7895,-504 349.7895,-504 349.7895,-504 564.7895,-504 564.7895,-504 570.7895,-504 576.7895,-510 576.7895,-516 576.7895,-516 576.7895,-528 576.7895,-528 576.7895,-534 570.7895,-540 564.7895,-540"/>
<text text-anchor="middle" x="457.2895" y="-518.3" font-family="Helvetica,sans-Serif" font-size="14.00" fill="#000000">PaalmanPingsMonteCarloAbsorption</text>
</g>
<!-- SelfAttenuation&#45;&gt;PaalmanPingsMonteCarloAbsorption -->
<g id="edge12" class="edge">
<title>SelfAttenuation&#45;&gt;PaalmanPingsMonteCarloAbsorption</title>
<path fill="none" stroke="#000000" d="M457.2895,-575.8314C457.2895,-568.131 457.2895,-558.9743 457.2895,-550.4166"/>
<polygon fill="#000000" stroke="#000000" points="460.7896,-550.4132 457.2895,-540.4133 453.7896,-550.4133 460.7896,-550.4132"/>
</g>
<!-- PaalmanPingsAbsorptionCorrection -->
<g id="node12" class="node">
<title>PaalmanPingsAbsorptionCorrection</title>
<path fill="#87cefa" stroke="#000000" d="M307.7895,-540C307.7895,-540 100.7895,-540 100.7895,-540 94.7895,-540 88.7895,-534 88.7895,-528 88.7895,-528 88.7895,-516 88.7895,-516 88.7895,-510 94.7895,-504 100.7895,-504 100.7895,-504 307.7895,-504 307.7895,-504 313.7895,-504 319.7895,-510 319.7895,-516 319.7895,-516 319.7895,-528 319.7895,-528 319.7895,-534 313.7895,-540 307.7895,-540"/>
<text text-anchor="middle" x="204.2895" y="-518.3" font-family="Helvetica,sans-Serif" font-size="14.00" fill="#000000">PaalmanPingsAbsorptionCorrection</text>
</g>
<!-- SelfAttenuation&#45;&gt;PaalmanPingsAbsorptionCorrection -->
<g id="edge11" class="edge">
<title>SelfAttenuation&#45;&gt;PaalmanPingsAbsorptionCorrection</title>
<path fill="none" stroke="#000000" d="M418.5888,-582.9864C381.1118,-572.321 323.347,-555.882 277.2301,-542.7578"/>
<polygon fill="#000000" stroke="#000000" points="278.1536,-539.3817 267.5775,-540.0108 276.2376,-546.1144 278.1536,-539.3817"/>
</g>
<!-- DirectILLReduction -->
<g id="node14" class="node">
<title>DirectILLReduction</title>
<path fill="#87cefa" stroke="#000000" d="M510.7895,-396C510.7895,-396 403.7895,-396 403.7895,-396 397.7895,-396 391.7895,-390 391.7895,-384 391.7895,-384 391.7895,-372 391.7895,-372 391.7895,-366 397.7895,-360 403.7895,-360 403.7895,-360 510.7895,-360 510.7895,-360 516.7895,-360 522.7895,-366 522.7895,-372 522.7895,-372 522.7895,-384 522.7895,-384 522.7895,-390 516.7895,-396 510.7895,-396"/>
<text text-anchor="middle" x="457.2895" y="-374.3" font-family="Helvetica,sans-Serif" font-size="14.00" fill="#000000">DirectILLReduction</text>
</g>
<!-- SelfAttenuation&#45;&gt;DirectILLReduction -->
<g id="edge16" class="edge">
<title>SelfAttenuation&#45;&gt;DirectILLReduction</title>
<path fill="none" stroke="#000000" d="M510.7728,-585.6994C537.9605,-578.4776 568.6884,-565.0216 585.2895,-540 601.6223,-515.3829 570.6575,-437.353 566.2895,-432 555.4074,-418.664 540.406,-408.3461 525.0113,-400.4763"/>
<polygon fill="#000000" stroke="#000000" points="526.46,-397.2895 515.9298,-396.1213 523.4332,-403.6013 526.46,-397.2895"/>
</g>
<!-- Group -->
<g id="node3" class="node">
<title>Group</title>
<polygon fill="#32cd32" stroke="#000000" points="457.2895,-324 406.6821,-306 457.2895,-288 507.8969,-306 457.2895,-324"/>
<text text-anchor="middle" x="457.2895" y="-302.3" font-family="Helvetica,sans-Serif" font-size="14.00" fill="#000000">Group</text>
</g>
<!-- Save -->
<g id="node4" class="node">
<title>Save</title>
<polygon fill="#32cd32" stroke="#000000" points="457.2895,-180 413.8878,-162 457.2895,-144 500.6912,-162 457.2895,-180"/>
<text text-anchor="middle" x="457.2895" y="-158.3" font-family="Helvetica,sans-Serif" font-size="14.00" fill="#000000">Save</text>
</g>
<!-- Group&#45;&gt;Save -->
<g id="edge21" class="edge">
<title>Group&#45;&gt;Save</title>
<path fill="none" stroke="#000000" d="M465.6522,-290.9397C471.0137,-280.3935 477.4775,-265.7781 480.2895,-252 483.489,-236.3232 483.489,-231.6768 480.2895,-216 478.2244,-205.8817 474.1899,-195.3119 470.0689,-186.2337"/>
<polygon fill="#000000" stroke="#000000" points="473.1438,-184.5521 465.6522,-177.0603 466.8368,-187.5888 473.1438,-184.5521"/>
</g>
<!-- GroupDetectors -->
<g id="node18" class="node">
<title>GroupDetectors</title>
<path fill="#87cefa" stroke="#000000" d="M459.7895,-252C459.7895,-252 370.7895,-252 370.7895,-252 364.7895,-252 358.7895,-246 358.7895,-240 358.7895,-240 358.7895,-228 358.7895,-228 358.7895,-222 364.7895,-216 370.7895,-216 370.7895,-216 459.7895,-216 459.7895,-216 465.7895,-216 471.7895,-222 471.7895,-228 471.7895,-228 471.7895,-240 471.7895,-240 471.7895,-246 465.7895,-252 459.7895,-252"/>
<text text-anchor="middle" x="415.2895" y="-230.3" font-family="Helvetica,sans-Serif" font-size="14.00" fill="#000000">GroupDetectors</text>
</g>
<!-- Group&#45;&gt;GroupDetectors -->
<g id="edge19" class="edge">
<title>Group&#45;&gt;GroupDetectors</title>
<path fill="none" stroke="#000000" d="M448.5871,-291.0816C443.5466,-282.4407 437.0466,-271.2979 431.1294,-261.1541"/>
<polygon fill="#000000" stroke="#000000" points="433.9795,-259.0938 425.9176,-252.2195 427.9331,-262.6209 433.9795,-259.0938"/>
</g>
<!-- OutputWorkspace -->
<g id="node8" class="node">
<title>OutputWorkspace</title>
<polygon fill="#c0c0c0" stroke="#000000" points="567.8714,-36 391.9603,-36 346.7076,0 522.6187,0 567.8714,-36"/>
<text text-anchor="middle" x="457.2895" y="-14.3" font-family="Times,serif" font-size="14.00" fill="#000000">OutputWorkspace</text>
</g>
<!-- Save&#45;&gt;OutputWorkspace -->
<g id="edge24" class="edge">
<title>Save&#45;&gt;OutputWorkspace</title>
<path fill="none" stroke="#000000" d="M463.6552,-146.2369C467.5881,-135.6263 472.259,-121.2118 474.2895,-108 476.72,-92.1857 476.72,-87.8143 474.2895,-72 472.9521,-63.2979 470.4691,-54.074 467.8061,-45.759"/>
<polygon fill="#000000" stroke="#000000" points="471.0741,-44.4982 464.5334,-36.1634 464.4489,-46.7579 471.0741,-44.4982"/>
</g>
<!-- SaveOutput -->
<g id="node17" class="node">
<title>SaveOutput</title>
<path fill="#87cefa" stroke="#000000" d="M453.7895,-108C453.7895,-108 388.7895,-108 388.7895,-108 382.7895,-108 376.7895,-102 376.7895,-96 376.7895,-96 376.7895,-84 376.7895,-84 376.7895,-78 382.7895,-72 388.7895,-72 388.7895,-72 453.7895,-72 453.7895,-72 459.7895,-72 465.7895,-78 465.7895,-84 465.7895,-84 465.7895,-96 465.7895,-96 465.7895,-102 459.7895,-108 453.7895,-108"/>
<text text-anchor="middle" x="421.2895" y="-86.3" font-family="Helvetica,sans-Serif" font-size="14.00" fill="#000000">SaveOutput</text>
</g>
<!-- Save&#45;&gt;SaveOutput -->
<g id="edge22" class="edge">
<title>Save&#45;&gt;SaveOutput</title>
<path fill="none" stroke="#000000" d="M449.8303,-147.0816C445.5539,-138.5289 440.052,-127.5251 435.0219,-117.4649"/>
<polygon fill="#000000" stroke="#000000" points="438.002,-115.5985 430.3993,-108.2195 431.741,-118.7291 438.002,-115.5985"/>
</g>
<!-- Runs -->
<g id="node5" class="node">
<title>Runs</title>
<ellipse fill="#f0e68c" stroke="#000000" cx="498.2895" cy="-954" rx="31.3957" ry="18"/>
<text text-anchor="middle" x="498.2895" y="-950.3" font-family="Helvetica,sans-Serif" font-size="14.00" fill="#000000">Runs</text>
</g>
<!-- DirectILLCollectData -->
<g id="node9" class="node">
<title>DirectILLCollectData</title>
<path fill="#87cefa" stroke="#000000" d="M556.2895,-900C556.2895,-900 440.2895,-900 440.2895,-900 434.2895,-900 428.2895,-894 428.2895,-888 428.2895,-888 428.2895,-876 428.2895,-876 428.2895,-870 434.2895,-864 440.2895,-864 440.2895,-864 556.2895,-864 556.2895,-864 562.2895,-864 568.2895,-870 568.2895,-876 568.2895,-876 568.2895,-888 568.2895,-888 568.2895,-894 562.2895,-900 556.2895,-900"/>
<text text-anchor="middle" x="498.2895" y="-878.3" font-family="Helvetica,sans-Serif" font-size="14.00" fill="#000000">DirectILLCollectData</text>
</g>
<!-- Runs&#45;&gt;DirectILLCollectData -->
<g id="edge1" class="edge">
<title>Runs&#45;&gt;DirectILLCollectData</title>
<path fill="none" stroke="#000000" d="M498.2895,-935.8314C498.2895,-928.131 498.2895,-918.9743 498.2895,-910.4166"/>
<polygon fill="#000000" stroke="#000000" points="501.7896,-910.4132 498.2895,-900.4133 494.7896,-910.4133 501.7896,-910.4132"/>
</g>
<!-- EmptyContainerWorkspace -->
<g id="node6" class="node">
<title>EmptyContainerWorkspace</title>
<ellipse fill="#f0e68c" stroke="#000000" cx="118.2895" cy="-738" rx="118.0794" ry="18"/>
<text text-anchor="middle" x="118.2895" y="-734.3" font-family="Helvetica,sans-Serif" font-size="14.00" fill="#000000">EmptyContainerWorkspace</text>
</g>
<!-- EmptyContainerWorkspace&#45;&gt;Minus -->
<g id="edge9" class="edge">
<title>EmptyContainerWorkspace&#45;&gt;Minus</title>
<path fill="none" stroke="#000000" d="M187.2998,-723.3429C257.8297,-708.3631 364.6903,-685.6671 420.4662,-673.8209"/>
<polygon fill="#000000" stroke="#000000" points="421.2114,-677.2408 430.266,-671.7395 419.757,-670.3935 421.2114,-677.2408"/>
</g>
<!-- VanadiumWorkspace -->
<g id="node7" class="node">
<title>VanadiumWorkspace</title>
<ellipse fill="#f0e68c" stroke="#000000" cx="244.2895" cy="-450" rx="94.7833" ry="18"/>
<text text-anchor="middle" x="244.2895" y="-446.3" font-family="Helvetica,sans-Serif" font-size="14.00" fill="#000000">VanadiumWorkspace</text>
</g>
<!-- VanadiumWorkspace&#45;&gt;DirectILLReduction -->
<g id="edge17" class="edge">
<title>VanadiumWorkspace&#45;&gt;DirectILLReduction</title>
<path fill="none" stroke="#000000" d="M290.7701,-434.2883C321.0737,-424.0448 361.0034,-410.5474 394.1656,-399.3376"/>
<polygon fill="#000000" stroke="#000000" points="395.42,-402.6083 403.7726,-396.0902 393.1784,-395.9769 395.42,-402.6083"/>
</g>
<!-- DirectILLCollectData&#45;&gt;Mask -->
<g id="edge2" class="edge">
<title>DirectILLCollectData&#45;&gt;Mask</title>
<path fill="none" stroke="#000000" d="M498.2895,-863.8314C498.2895,-856.131 498.2895,-846.9743 498.2895,-838.4166"/>
<polygon fill="#000000" stroke="#000000" points="501.7896,-838.4132 498.2895,-828.4133 494.7896,-838.4133 501.7896,-838.4132"/>
</g>
<!-- MaskDetectors&#45;&gt;Minus -->
<g id="edge7" class="edge">
<title>MaskDetectors&#45;&gt;Minus</title>
<path fill="none" stroke="#000000" d="M457.2895,-719.8314C457.2895,-712.131 457.2895,-702.9743 457.2895,-694.4166"/>
<polygon fill="#000000" stroke="#000000" points="460.7896,-694.4132 457.2895,-684.4133 453.7896,-694.4133 460.7896,-694.4132"/>
</g>
<!-- ApplyPaalmanPingsCorrection -->
<g id="node13" class="node">
<title>ApplyPaalmanPingsCorrection</title>
<path fill="#87cefa" stroke="#000000" d="M545.2895,-468C545.2895,-468 369.2895,-468 369.2895,-468 363.2895,-468 357.2895,-462 357.2895,-456 357.2895,-456 357.2895,-444 357.2895,-444 357.2895,-438 363.2895,-432 369.2895,-432 369.2895,-432 545.2895,-432 545.2895,-432 551.2895,-432 557.2895,-438 557.2895,-444 557.2895,-444 557.2895,-456 557.2895,-456 557.2895,-462 551.2895,-468 545.2895,-468"/>
<text text-anchor="middle" x="457.2895" y="-446.3" font-family="Helvetica,sans-Serif" font-size="14.00" fill="#000000">ApplyPaalmanPingsCorrection</text>
</g>
<!-- PaalmanPingsMonteCarloAbsorption&#45;&gt;ApplyPaalmanPingsCorrection -->
<g id="edge14" class="edge">
<title>PaalmanPingsMonteCarloAbsorption&#45;&gt;ApplyPaalmanPingsCorrection</title>
<path fill="none" stroke="#000000" d="M457.2895,-503.8314C457.2895,-496.131 457.2895,-486.9743 457.2895,-478.4166"/>
<polygon fill="#000000" stroke="#000000" points="460.7896,-478.4132 457.2895,-468.4133 453.7896,-478.4133 460.7896,-478.4132"/>
</g>
<!-- PaalmanPingsAbsorptionCorrection&#45;&gt;ApplyPaalmanPingsCorrection -->
<g id="edge13" class="edge">
<title>PaalmanPingsAbsorptionCorrection&#45;&gt;ApplyPaalmanPingsCorrection</title>
<path fill="none" stroke="#000000" d="M267.8055,-503.9243C303.144,-493.8675 347.2866,-481.3052 384.0732,-470.8363"/>
<polygon fill="#000000" stroke="#000000" points="385.0873,-474.1867 393.7474,-468.0831 383.1712,-467.454 385.0873,-474.1867"/>
</g>
<!-- ApplyPaalmanPingsCorrection&#45;&gt;DirectILLReduction -->
<g id="edge15" class="edge">
<title>ApplyPaalmanPingsCorrection&#45;&gt;DirectILLReduction</title>
<path fill="none" stroke="#000000" d="M457.2895,-431.8314C457.2895,-424.131 457.2895,-414.9743 457.2895,-406.4166"/>
<polygon fill="#000000" stroke="#000000" points="460.7896,-406.4132 457.2895,-396.4133 453.7896,-406.4133 460.7896,-406.4132"/>
</g>
<!-- DirectILLReduction&#45;&gt;Group -->
<g id="edge18" class="edge">
<title>DirectILLReduction&#45;&gt;Group</title>
<path fill="none" stroke="#000000" d="M457.2895,-359.8314C457.2895,-352.131 457.2895,-342.9743 457.2895,-334.4166"/>
<polygon fill="#000000" stroke="#000000" points="460.7896,-334.4132 457.2895,-324.4133 453.7896,-334.4133 460.7896,-334.4132"/>
</g>
<!-- Minus&#45;&gt;SelfAttenuation -->
<g id="edge10" class="edge">
<title>Minus&#45;&gt;SelfAttenuation</title>
<path fill="none" stroke="#000000" d="M457.2895,-647.8314C457.2895,-640.131 457.2895,-630.9743 457.2895,-622.4166"/>
<polygon fill="#000000" stroke="#000000" points="460.7896,-622.4132 457.2895,-612.4133 453.7896,-622.4133 460.7896,-622.4132"/>
</g>
<!-- MaskWorkspace -->
<g id="node16" class="node">
<title>MaskWorkspace</title>
<path fill="#87cefa" stroke="#000000" d="M367.2895,-828C367.2895,-828 273.2895,-828 273.2895,-828 267.2895,-828 261.2895,-822 261.2895,-816 261.2895,-816 261.2895,-804 261.2895,-804 261.2895,-798 267.2895,-792 273.2895,-792 273.2895,-792 367.2895,-792 367.2895,-792 373.2895,-792 379.2895,-798 379.2895,-804 379.2895,-804 379.2895,-816 379.2895,-816 379.2895,-822 373.2895,-828 367.2895,-828"/>
<text text-anchor="middle" x="320.2895" y="-806.3" font-family="Helvetica,sans-Serif" font-size="14.00" fill="#000000">MaskWorkspace</text>
</g>
<!-- MaskWorkspace&#45;&gt;MaskDetectors -->
<g id="edge5" class="edge">
<title>MaskWorkspace&#45;&gt;MaskDetectors</title>
<path fill="none" stroke="#000000" d="M354.8604,-791.8314C372.708,-782.4516 394.6669,-770.9112 413.6695,-760.9244"/>
<polygon fill="#000000" stroke="#000000" points="415.506,-763.9132 422.7297,-756.1628 412.2494,-757.7168 415.506,-763.9132"/>
</g>
<!-- MaskCreation -->
<g id="node19" class="node">
<title>MaskCreation</title>
<ellipse fill="#d3d3d3" stroke="#000000" cx="320.2895" cy="-738" rx="65.7887" ry="18"/>
<text text-anchor="middle" x="320.2895" y="-734.3" font-family="Helvetica,sans-Serif" font-size="14.00" fill="#000000">MaskCreation</text>
</g>
<!-- MaskWorkspace&#45;&gt;MaskCreation -->
<g id="edge3" class="edge">
<title>MaskWorkspace&#45;&gt;MaskCreation</title>
<path fill="none" stroke="#000000" d="M314.3371,-791.8314C313.5867,-784.131 313.3658,-774.9743 313.6744,-766.4166"/>
<polygon fill="#000000" stroke="#000000" points="317.1687,-766.6161 314.3135,-756.4133 310.183,-766.1697 317.1687,-766.6161"/>
</g>
<!-- SaveOutput&#45;&gt;OutputWorkspace -->
<g id="edge23" class="edge">
<title>SaveOutput&#45;&gt;OutputWorkspace</title>
<path fill="none" stroke="#000000" d="M430.3738,-71.8314C434.351,-63.8771 439.105,-54.369 443.5034,-45.5723"/>
<polygon fill="#000000" stroke="#000000" points="446.7412,-46.9228 448.0829,-36.4133 440.4802,-43.7923 446.7412,-46.9228"/>
</g>
<!-- GroupDetectors&#45;&gt;Save -->
<g id="edge20" class="edge">
<title>GroupDetectors&#45;&gt;Save</title>
<path fill="none" stroke="#000000" d="M425.8879,-215.8314C431.2653,-206.613 437.86,-195.3078 443.6154,-185.4414"/>
<polygon fill="#000000" stroke="#000000" points="446.7936,-186.9391 448.8091,-176.5378 440.7471,-183.412 446.7936,-186.9391"/>
</g>
<!-- MaskCreation&#45;&gt;MaskWorkspace -->
<g id="edge4" class="edge">
<title>MaskCreation&#45;&gt;MaskWorkspace</title>
<path fill="none" stroke="#000000" d="M326.2655,-756.4133C326.9966,-764.0593 327.2098,-773.1084 326.905,-781.5726"/>
<polygon fill="#000000" stroke="#000000" points="323.3943,-781.6264 326.2419,-791.8314 330.3797,-782.078 323.3943,-781.6264"/>
</g>
</g>
</svg>
