<?xml version="1.0" encoding="UTF-8" standalone="no"?>
<!DOCTYPE svg PUBLIC "-//W3C//DTD SVG 1.1//EN"
 "http://www.w3.org/Graphics/SVG/1.1/DTD/svg11.dtd">
<!-- Generated by graphviz version 2.40.1 (20161225.0304)
 -->
<!-- Title: DirectILLCollectData Pages: 1 -->
<svg width="975pt" height="1585pt"
 viewBox="0.00 0.00 975.12 1585.00" xmlns="http://www.w3.org/2000/svg" xmlns:xlink="http://www.w3.org/1999/xlink">
<g id="graph0" class="graph" transform="scale(1 1) rotate(0) translate(4 1581)">
<title>DirectILLCollectData</title>
<polygon fill="#ffffff" stroke="transparent" points="-4,4 -4,-1581 971.1174,-1581 971.1174,4 -4,4"/>
<text text-anchor="middle" x="483.5587" y="-1561.8" font-family="Helvetica,sans-Serif" font-size="14.00" fill="#000000">DirectILLCollectData workflow diagram</text>
<!-- bkgScaling -->
<g id="node1" class="node">
<title>bkgScaling</title>
<ellipse fill="#f0e68c" stroke="#000000" cx="486" cy="-703" rx="69.5877" ry="18"/>
<text text-anchor="middle" x="486" y="-699.3" font-family="Helvetica,sans-Serif" font-size="14.00" fill="#000000">FlatBkgScaling</text>
</g>
<!-- ScaleBkg -->
<g id="node25" class="node">
<title>ScaleBkg</title>
<path fill="#87cefa" stroke="#000000" d="M340.5,-648C340.5,-648 301.5,-648 301.5,-648 295.5,-648 289.5,-642 289.5,-636 289.5,-636 289.5,-624 289.5,-624 289.5,-618 295.5,-612 301.5,-612 301.5,-612 340.5,-612 340.5,-612 346.5,-612 352.5,-618 352.5,-624 352.5,-624 352.5,-636 352.5,-636 352.5,-642 346.5,-648 340.5,-648"/>
<text text-anchor="middle" x="321" y="-626.3" font-family="Helvetica,sans-Serif" font-size="14.00" fill="#000000">Multiply</text>
</g>
<!-- bkgScaling&#45;&gt;ScaleBkg -->
<g id="edge21" class="edge">
<title>bkgScaling&#45;&gt;ScaleBkg</title>
<path fill="none" stroke="#000000" d="M450.6034,-687.3397C424.5989,-675.8347 389.2045,-660.1753 361.9745,-648.1281"/>
<polygon fill="#000000" stroke="#000000" points="363.2733,-644.8755 352.7122,-644.0302 360.441,-651.277 363.2733,-644.8755"/>
</g>
<!-- inputFile -->
<g id="node2" class="node">
<title>inputFile</title>
<ellipse fill="#f0e68c" stroke="#000000" cx="729" cy="-1449" rx="27" ry="18"/>
<text text-anchor="middle" x="729" y="-1445.3" font-family="Helvetica,sans-Serif" font-size="14.00" fill="#000000">Run</text>
</g>
<!-- LoadAndMerge -->
<g id="node22" class="node">
<title>LoadAndMerge</title>
<path fill="#87cefa" stroke="#000000" d="M758,-1359C758,-1359 672,-1359 672,-1359 666,-1359 660,-1353 660,-1347 660,-1347 660,-1335 660,-1335 660,-1329 666,-1323 672,-1323 672,-1323 758,-1323 758,-1323 764,-1323 770,-1329 770,-1335 770,-1335 770,-1347 770,-1347 770,-1353 764,-1359 758,-1359"/>
<text text-anchor="middle" x="715" y="-1337.3" font-family="Helvetica,sans-Serif" font-size="14.00" fill="#000000">LoadAndMerge</text>
</g>
<!-- inputFile&#45;&gt;LoadAndMerge -->
<g id="edge2" class="edge">
<title>inputFile&#45;&gt;LoadAndMerge</title>
<path fill="none" stroke="#000000" d="M726.6251,-1430.6793C724.4398,-1413.821 721.1658,-1388.5651 718.6487,-1369.147"/>
<polygon fill="#000000" stroke="#000000" points="722.0964,-1368.5172 717.3398,-1359.0502 715.1545,-1369.4172 722.0964,-1368.5172"/>
</g>
<!-- inputWS -->
<g id="node3" class="node">
<title>inputWS</title>
<ellipse fill="#f0e68c" stroke="#000000" cx="802" cy="-1395" rx="74.9875" ry="18"/>
<text text-anchor="middle" x="802" y="-1391.3" font-family="Helvetica,sans-Serif" font-size="14.00" fill="#000000">InputWorkspace</text>
</g>
<!-- ExtractMonitors -->
<g id="node17" class="node">
<title>ExtractMonitors</title>
<path fill="#87cefa" stroke="#000000" d="M815.5,-1286C815.5,-1286 728.5,-1286 728.5,-1286 722.5,-1286 716.5,-1280 716.5,-1274 716.5,-1274 716.5,-1262 716.5,-1262 716.5,-1256 722.5,-1250 728.5,-1250 728.5,-1250 815.5,-1250 815.5,-1250 821.5,-1250 827.5,-1256 827.5,-1262 827.5,-1262 827.5,-1274 827.5,-1274 827.5,-1280 821.5,-1286 815.5,-1286"/>
<text text-anchor="middle" x="772" y="-1264.3" font-family="Helvetica,sans-Serif" font-size="14.00" fill="#000000">ExtractMonitors</text>
</g>
<!-- inputWS&#45;&gt;ExtractMonitors -->
<g id="edge5" class="edge">
<title>inputWS&#45;&gt;ExtractMonitors</title>
<path fill="none" stroke="#000000" d="M797.7017,-1376.804C792.7116,-1355.6791 784.4244,-1320.5964 778.6126,-1295.9935"/>
<polygon fill="#000000" stroke="#000000" points="781.9956,-1295.0898 776.2903,-1286.1622 775.1831,-1296.6991 781.9956,-1295.0898"/>
</g>
<!-- inputBkg -->
<g id="node4" class="node">
<title>inputBkg</title>
<ellipse fill="#f0e68c" stroke="#000000" cx="313" cy="-703" rx="85.2851" ry="18"/>
<text text-anchor="middle" x="313" y="-699.3" font-family="Helvetica,sans-Serif" font-size="14.00" fill="#000000">FlatBkgWorkspace</text>
</g>
<!-- inputBkg&#45;&gt;ScaleBkg -->
<g id="edge20" class="edge">
<title>inputBkg&#45;&gt;ScaleBkg</title>
<path fill="none" stroke="#000000" d="M314.9775,-684.9551C315.8622,-676.8828 316.9259,-667.1764 317.9116,-658.1817"/>
<polygon fill="#000000" stroke="#000000" points="321.4072,-658.4122 319.0175,-648.0904 314.4489,-657.6495 321.4072,-658.4122"/>
</g>
<!-- inputEi -->
<g id="node5" class="node">
<title>inputEi</title>
<ellipse fill="#f0e68c" stroke="#000000" cx="250" cy="-377" rx="113.9803" ry="18"/>
<text text-anchor="middle" x="250" y="-373.3" font-family="Helvetica,sans-Serif" font-size="14.00" fill="#000000">IncidentEnergyWorkspace</text>
</g>
<!-- SetIncidentEnergy -->
<g id="node26" class="node">
<title>SetIncidentEnergy</title>
<path fill="#87cefa" stroke="#000000" d="M304,-287C304,-287 196,-287 196,-287 190,-287 184,-281 184,-275 184,-275 184,-263 184,-263 184,-257 190,-251 196,-251 196,-251 304,-251 304,-251 310,-251 316,-257 316,-263 316,-263 316,-275 316,-275 316,-281 310,-287 304,-287"/>
<text text-anchor="middle" x="250" y="-265.3" font-family="Helvetica,sans-Serif" font-size="14.00" fill="#000000">Set incident energy</text>
</g>
<!-- inputEi&#45;&gt;SetIncidentEnergy -->
<g id="edge29" class="edge">
<title>inputEi&#45;&gt;SetIncidentEnergy</title>
<path fill="none" stroke="#000000" d="M250,-358.6793C250,-341.821 250,-316.5651 250,-297.147"/>
<polygon fill="#000000" stroke="#000000" points="253.5001,-297.0501 250,-287.0502 246.5001,-297.0502 253.5001,-297.0501"/>
</g>
<!-- inputElasticChannel -->
<g id="node6" class="node">
<title>inputElasticChannel</title>
<ellipse fill="#f0e68c" stroke="#000000" cx="448" cy="-269" rx="113.9803" ry="18"/>
<text text-anchor="middle" x="448" y="-265.3" font-family="Helvetica,sans-Serif" font-size="14.00" fill="#000000">ElasticChannelWorkspace</text>
</g>
<!-- CorrectTOFAxis -->
<g id="node15" class="node">
<title>CorrectTOFAxis</title>
<path fill="#87cefa" stroke="#000000" d="M446,-213C446,-213 356,-213 356,-213 350,-213 344,-207 344,-201 344,-201 344,-189 344,-189 344,-183 350,-177 356,-177 356,-177 446,-177 446,-177 452,-177 458,-183 458,-189 458,-189 458,-201 458,-201 458,-207 452,-213 446,-213"/>
<text text-anchor="middle" x="401" y="-191.3" font-family="Helvetica,sans-Serif" font-size="14.00" fill="#000000">CorrectTOFAxis</text>
</g>
<!-- inputElasticChannel&#45;&gt;CorrectTOFAxis -->
<g id="edge34" class="edge">
<title>inputElasticChannel&#45;&gt;CorrectTOFAxis</title>
<path fill="none" stroke="#000000" d="M436.6226,-251.0867C431.0066,-242.2444 424.1185,-231.3994 417.9011,-221.6103"/>
<polygon fill="#000000" stroke="#000000" points="420.7514,-219.5697 412.4355,-213.0049 414.8425,-223.3227 420.7514,-219.5697"/>
</g>
<!-- outputBkg -->
<g id="node7" class="node">
<title>outputBkg</title>
<ellipse fill="#f0e68c" stroke="#000000" cx="126" cy="-630" rx="111.5806" ry="18"/>
<text text-anchor="middle" x="126" y="-626.3" font-family="Helvetica,sans-Serif" font-size="14.00" fill="#000000">OutputFlatBkgWorkspace</text>
</g>
<!-- outputEi -->
<g id="node8" class="node">
<title>outputEi</title>
<ellipse fill="#f0e68c" stroke="#000000" cx="157" cy="-195" rx="140.2752" ry="18"/>
<text text-anchor="middle" x="157" y="-191.3" font-family="Helvetica,sans-Serif" font-size="14.00" fill="#000000">OutputIncidentEnergyWorkspace</text>
</g>
<!-- outputElasticChannel -->
<g id="node9" class="node">
<title>outputElasticChannel</title>
<ellipse fill="#f0e68c" stroke="#000000" cx="349" cy="-99.5" rx="140.2752" ry="18"/>
<text text-anchor="middle" x="349" y="-95.8" font-family="Helvetica,sans-Serif" font-size="14.00" fill="#000000">OutputElasticChannelWorkspace</text>
</g>
<!-- outputEPP -->
<g id="node10" class="node">
<title>outputEPP</title>
<ellipse fill="#f0e68c" stroke="#000000" cx="549" cy="-18" rx="99.3824" ry="18"/>
<text text-anchor="middle" x="549" y="-14.3" font-family="Helvetica,sans-Serif" font-size="14.00" fill="#000000">OutputEPPWorkspace</text>
</g>
<!-- outputRaw -->
<g id="node11" class="node">
<title>outputRaw</title>
<ellipse fill="#f0e68c" stroke="#000000" cx="848" cy="-18" rx="99.3824" ry="18"/>
<text text-anchor="middle" x="848" y="-14.3" font-family="Helvetica,sans-Serif" font-size="14.00" fill="#000000">OutputRawWorkspace</text>
</g>
<!-- outputWS -->
<g id="node12" class="node">
<title>outputWS</title>
<ellipse fill="#f0e68c" stroke="#000000" cx="691" cy="-99.5" rx="81.7856" ry="18"/>
<text text-anchor="middle" x="691" y="-95.8" font-family="Helvetica,sans-Serif" font-size="14.00" fill="#000000">OutputWorkspace</text>
</g>
<!-- CalculateFlatBackground -->
<g id="node13" class="node">
<title>CalculateFlatBackground</title>
<path fill="#87cefa" stroke="#000000" d="M197.5,-721C197.5,-721 54.5,-721 54.5,-721 48.5,-721 42.5,-715 42.5,-709 42.5,-709 42.5,-697 42.5,-697 42.5,-691 48.5,-685 54.5,-685 54.5,-685 197.5,-685 197.5,-685 203.5,-685 209.5,-691 209.5,-697 209.5,-697 209.5,-709 209.5,-709 209.5,-715 203.5,-721 197.5,-721"/>
<text text-anchor="middle" x="126" y="-699.3" font-family="Helvetica,sans-Serif" font-size="14.00" fill="#000000">CalculateFlatBackground</text>
</g>
<!-- CalculateFlatBackground&#45;&gt;outputBkg -->
<g id="edge17" class="edge">
<title>CalculateFlatBackground&#45;&gt;outputBkg</title>
<path fill="none" stroke="#000000" d="M126,-684.9551C126,-676.8828 126,-667.1764 126,-658.1817"/>
<polygon fill="#000000" stroke="#000000" points="129.5001,-658.0903 126,-648.0904 122.5001,-658.0904 129.5001,-658.0903"/>
</g>
<!-- CalculateFlatBackground&#45;&gt;ScaleBkg -->
<g id="edge18" class="edge">
<title>CalculateFlatBackground&#45;&gt;ScaleBkg</title>
<path fill="none" stroke="#000000" d="M174.2023,-684.9551C206.6667,-672.8017 249.0265,-656.9439 279.8943,-645.3883"/>
<polygon fill="#000000" stroke="#000000" points="281.3472,-648.5817 289.4854,-641.7978 278.893,-642.026 281.3472,-648.5817"/>
</g>
<!-- CalibrateEi -->
<g id="node14" class="node">
<title>CalibrateEi</title>
<path fill="#87cefa" stroke="#000000" d="M154,-287C154,-287 12,-287 12,-287 6,-287 0,-281 0,-275 0,-275 0,-263 0,-263 0,-257 6,-251 12,-251 12,-251 154,-251 154,-251 160,-251 166,-257 166,-263 166,-263 166,-275 166,-275 166,-281 160,-287 154,-287"/>
<text text-anchor="middle" x="83" y="-265.3" font-family="Helvetica,sans-Serif" font-size="14.00" fill="#000000">Calibrate incident energy</text>
</g>
<!-- CalibrateEi&#45;&gt;outputEi -->
<g id="edge27" class="edge">
<title>CalibrateEi&#45;&gt;outputEi</title>
<path fill="none" stroke="#000000" d="M101.2921,-250.7079C110.4326,-241.5674 121.6401,-230.3599 131.6,-220.4"/>
<polygon fill="#000000" stroke="#000000" points="134.3221,-222.6277 138.9183,-213.0817 129.3723,-217.6779 134.3221,-222.6277"/>
</g>
<!-- CalibrateEi&#45;&gt;CorrectTOFAxis -->
<g id="edge32" class="edge">
<title>CalibrateEi&#45;&gt;CorrectTOFAxis</title>
<path fill="none" stroke="#000000" d="M160.3849,-250.9922C213.4703,-238.639 283.2082,-222.4107 333.9317,-210.6071"/>
<polygon fill="#000000" stroke="#000000" points="334.8658,-213.9833 343.8123,-208.3078 333.2792,-207.1655 334.8658,-213.9833"/>
</g>
<!-- CorrectTOFAxis&#45;&gt;outputElasticChannel -->
<g id="edge37" class="edge">
<title>CorrectTOFAxis&#45;&gt;outputElasticChannel</title>
<path fill="none" stroke="#000000" d="M386.7203,-176.821C382.6747,-171.2642 378.44,-165.0259 375,-159 369.24,-148.9101 363.9038,-137.3008 359.5837,-127.0307"/>
<polygon fill="#000000" stroke="#000000" points="362.7904,-125.6251 355.7725,-117.6879 356.3089,-128.2692 362.7904,-125.6251"/>
</g>
<!-- CorrectTOFAxis&#45;&gt;outputWS -->
<g id="edge41" class="edge">
<title>CorrectTOFAxis&#45;&gt;outputWS</title>
<path fill="none" stroke="#000000" d="M458.0619,-184.8599C488.4376,-178.7492 526.1935,-170.0086 559,-159 590.3065,-148.4948 624.242,-133.1032 649.8645,-120.6065"/>
<polygon fill="#000000" stroke="#000000" points="651.4865,-123.7091 658.908,-116.1479 648.3911,-117.4307 651.4865,-123.7091"/>
</g>
<!-- CorrectTOFAxisRaw -->
<g id="node16" class="node">
<title>CorrectTOFAxisRaw</title>
<path fill="#87cefa" stroke="#000000" d="M893,-117.5C893,-117.5 803,-117.5 803,-117.5 797,-117.5 791,-111.5 791,-105.5 791,-105.5 791,-93.5 791,-93.5 791,-87.5 797,-81.5 803,-81.5 803,-81.5 893,-81.5 893,-81.5 899,-81.5 905,-87.5 905,-93.5 905,-93.5 905,-105.5 905,-105.5 905,-111.5 899,-117.5 893,-117.5"/>
<text text-anchor="middle" x="848" y="-95.8" font-family="Helvetica,sans-Serif" font-size="14.00" fill="#000000">CorrectTOFAxis</text>
</g>
<!-- CorrectTOFAxis&#45;&gt;CorrectTOFAxisRaw -->
<g id="edge38" class="edge">
<title>CorrectTOFAxis&#45;&gt;CorrectTOFAxisRaw</title>
<path fill="none" stroke="#000000" d="M458.0247,-184.9857C560.4737,-166.9503 766.5174,-130.4602 782,-126 786.9165,-124.5836 791.9707,-122.9315 796.989,-121.157"/>
<polygon fill="#000000" stroke="#000000" points="798.3833,-124.3731 806.55,-117.6236 795.9567,-117.8072 798.3833,-124.3731"/>
<text text-anchor="middle" x="752" y="-147.8" font-family="Helvetica,sans-Serif" font-size="14.00" fill="#000000">as reference workspace</text>
</g>
<!-- FindEPPAgain -->
<g id="node19" class="node">
<title>FindEPPAgain</title>
<path fill="#87cefa" stroke="#000000" d="M579,-126C579,-126 519,-126 519,-126 513,-126 507,-120 507,-114 507,-114 507,-85 507,-85 507,-79 513,-73 519,-73 519,-73 579,-73 579,-73 585,-73 591,-79 591,-85 591,-85 591,-114 591,-114 591,-120 585,-126 579,-126"/>
<text text-anchor="middle" x="549" y="-110.8" font-family="Helvetica,sans-Serif" font-size="14.00" fill="#000000">FindEPP</text>
<text text-anchor="middle" x="549" y="-95.8" font-family="Helvetica,sans-Serif" font-size="14.00" fill="#000000">or</text>
<text text-anchor="middle" x="549" y="-80.8" font-family="Helvetica,sans-Serif" font-size="14.00" fill="#000000">CreateEPP</text>
</g>
<!-- CorrectTOFAxis&#45;&gt;FindEPPAgain -->
<g id="edge40" class="edge">
<title>CorrectTOFAxis&#45;&gt;FindEPPAgain</title>
<path fill="none" stroke="#000000" d="M458.1951,-187.0756C492.1718,-181.1421 530.7685,-171.8326 542,-159 547.5032,-152.7123 550.2418,-144.5115 551.409,-136.2175"/>
<polygon fill="#000000" stroke="#000000" points="554.9046,-136.4027 552.1335,-126.1767 547.9228,-135.8988 554.9046,-136.4027"/>
</g>
<!-- CorrectTOFAxisRaw&#45;&gt;outputRaw -->
<g id="edge39" class="edge">
<title>CorrectTOFAxisRaw&#45;&gt;outputRaw</title>
<path fill="none" stroke="#000000" d="M848,-81.4125C848,-71.072 848,-57.8769 848,-46.2037"/>
<polygon fill="#000000" stroke="#000000" points="851.5001,-46.0369 848,-36.0369 844.5001,-46.037 851.5001,-46.0369"/>
</g>
<!-- detectors -->
<g id="node29" class="node">
<title>detectors</title>
<polygon fill="#c0c0c0" stroke="#000000" points="967.2349,-1067 777.5589,-1067 728.7651,-1031 918.4411,-1031 967.2349,-1067"/>
<text text-anchor="middle" x="848" y="-1045.3" font-family="Times,serif" font-size="14.00" fill="#000000">Detector workspace</text>
</g>
<!-- ExtractMonitors&#45;&gt;detectors -->
<g id="edge10" class="edge">
<title>ExtractMonitors&#45;&gt;detectors</title>
<path fill="none" stroke="#000000" d="M795.3552,-1249.7941C806.1542,-1240.0696 818.0921,-1227.1877 825,-1213 846.351,-1169.1485 849.5049,-1111.3991 849.203,-1077.4268"/>
<polygon fill="#000000" stroke="#000000" points="852.6994,-1077.2088 849.0022,-1067.28 845.7008,-1077.3473 852.6994,-1077.2088"/>
</g>
<!-- monitors -->
<g id="node30" class="node">
<title>monitors</title>
<polygon fill="#c0c0c0" stroke="#000000" points="816.4234,-1213 629.629,-1213 581.5766,-1177 768.371,-1177 816.4234,-1213"/>
<text text-anchor="middle" x="699" y="-1191.3" font-family="Times,serif" font-size="14.00" fill="#000000">Monitor workspace</text>
</g>
<!-- ExtractMonitors&#45;&gt;monitors -->
<g id="edge6" class="edge">
<title>ExtractMonitors&#45;&gt;monitors</title>
<path fill="none" stroke="#000000" d="M753.9551,-1249.9551C745.0054,-1241.0054 734.047,-1230.047 724.2769,-1220.2769"/>
<polygon fill="#000000" stroke="#000000" points="726.6363,-1217.6866 717.0904,-1213.0904 721.6866,-1222.6363 726.6363,-1217.6866"/>
</g>
<!-- FindEPP -->
<g id="node18" class="node">
<title>FindEPP</title>
<path fill="#87cefa" stroke="#000000" d="M106,-403.5C106,-403.5 46,-403.5 46,-403.5 40,-403.5 34,-397.5 34,-391.5 34,-391.5 34,-362.5 34,-362.5 34,-356.5 40,-350.5 46,-350.5 46,-350.5 106,-350.5 106,-350.5 112,-350.5 118,-356.5 118,-362.5 118,-362.5 118,-391.5 118,-391.5 118,-397.5 112,-403.5 106,-403.5"/>
<text text-anchor="middle" x="76" y="-388.3" font-family="Helvetica,sans-Serif" font-size="14.00" fill="#000000">FindEPP</text>
<text text-anchor="middle" x="76" y="-373.3" font-family="Helvetica,sans-Serif" font-size="14.00" fill="#000000">or</text>
<text text-anchor="middle" x="76" y="-358.3" font-family="Helvetica,sans-Serif" font-size="14.00" fill="#000000">CreateEPP</text>
</g>
<!-- FindEPP&#45;&gt;CalibrateEi -->
<g id="edge25" class="edge">
<title>FindEPP&#45;&gt;CalibrateEi</title>
<path fill="none" stroke="#000000" d="M77.7303,-350.3034C78.7732,-334.2138 80.1005,-313.7358 81.162,-297.357"/>
<polygon fill="#000000" stroke="#000000" points="84.6614,-297.4785 81.8156,-287.273 77.6761,-297.0256 84.6614,-297.4785"/>
</g>
<!-- FindEPPAgain&#45;&gt;outputEPP -->
<g id="edge42" class="edge">
<title>FindEPPAgain&#45;&gt;outputEPP</title>
<path fill="none" stroke="#000000" d="M549,-72.8139C549,-64.4576 549,-55.2021 549,-46.7124"/>
<polygon fill="#000000" stroke="#000000" points="552.5001,-46.4936 549,-36.4936 545.5001,-46.4936 552.5001,-46.4936"/>
</g>
<!-- FitElasticChannel -->
<g id="node20" class="node">
<title>FitElasticChannel</title>
<path fill="#87cefa" stroke="#000000" d="M704,-288C704,-288 592,-288 592,-288 586,-288 580,-282 580,-276 580,-276 580,-262 580,-262 580,-256 586,-250 592,-250 592,-250 704,-250 704,-250 710,-250 716,-256 716,-262 716,-262 716,-276 716,-276 716,-282 710,-288 704,-288"/>
<text text-anchor="middle" x="648" y="-272.8" font-family="Helvetica,sans-Serif" font-size="14.00" fill="#000000">Find elastic channel</text>
<text text-anchor="middle" x="648" y="-257.8" font-family="Helvetica,sans-Serif" font-size="14.00" fill="#000000">by fitting</text>
</g>
<!-- FitElasticChannel&#45;&gt;CorrectTOFAxis -->
<g id="edge36" class="edge">
<title>FitElasticChannel&#45;&gt;CorrectTOFAxis</title>
<path fill="none" stroke="#000000" d="M584.3914,-249.9432C548.7227,-239.257 504.2597,-225.9361 468.0474,-215.0871"/>
<polygon fill="#000000" stroke="#000000" points="468.6505,-211.6141 458.0667,-212.0969 466.6415,-218.3197 468.6505,-211.6141"/>
</g>
<!-- IntegrateMonitor -->
<g id="node21" class="node">
<title>IntegrateMonitor</title>
<path fill="#87cefa" stroke="#000000" d="M698.5,-1067C698.5,-1067 603.5,-1067 603.5,-1067 597.5,-1067 591.5,-1061 591.5,-1055 591.5,-1055 591.5,-1043 591.5,-1043 591.5,-1037 597.5,-1031 603.5,-1031 603.5,-1031 698.5,-1031 698.5,-1031 704.5,-1031 710.5,-1037 710.5,-1043 710.5,-1043 710.5,-1055 710.5,-1055 710.5,-1061 704.5,-1067 698.5,-1067"/>
<text text-anchor="middle" x="651" y="-1045.3" font-family="Helvetica,sans-Serif" font-size="14.00" fill="#000000">Integrate monitor</text>
</g>
<!-- Normalize -->
<g id="node23" class="node">
<title>Normalize</title>
<path fill="#87cefa" stroke="#000000" d="M793.5,-974C793.5,-974 644.5,-974 644.5,-974 638.5,-974 632.5,-968 632.5,-962 632.5,-962 632.5,-950 632.5,-950 632.5,-944 638.5,-938 644.5,-938 644.5,-938 793.5,-938 793.5,-938 799.5,-938 805.5,-944 805.5,-950 805.5,-950 805.5,-962 805.5,-962 805.5,-968 799.5,-974 793.5,-974"/>
<text text-anchor="middle" x="719" y="-952.3" font-family="Helvetica,sans-Serif" font-size="14.00" fill="#000000">Normalise to monitor/time</text>
</g>
<!-- IntegrateMonitor&#45;&gt;Normalize -->
<g id="edge9" class="edge">
<title>IntegrateMonitor&#45;&gt;Normalize</title>
<path fill="none" stroke="#000000" d="M664.4346,-1030.6262C674.5586,-1016.7802 688.5792,-997.605 699.873,-982.159"/>
<polygon fill="#000000" stroke="#000000" points="702.7476,-984.1574 705.8247,-974.0192 697.097,-980.0257 702.7476,-984.1574"/>
</g>
<!-- LoadAndMerge&#45;&gt;ExtractMonitors -->
<g id="edge3" class="edge">
<title>LoadAndMerge&#45;&gt;ExtractMonitors</title>
<path fill="none" stroke="#000000" d="M729.0899,-1322.9551C735.8724,-1314.2686 744.1326,-1303.6898 751.5877,-1294.142"/>
<polygon fill="#000000" stroke="#000000" points="754.4789,-1296.1263 757.8747,-1286.0904 748.9616,-1291.8182 754.4789,-1296.1263"/>
</g>
<!-- ScaleAfterNormalization -->
<g id="node24" class="node">
<title>ScaleAfterNormalization</title>
<path fill="#87cefa" stroke="#000000" d="M425.5,-881C425.5,-881 386.5,-881 386.5,-881 380.5,-881 374.5,-875 374.5,-869 374.5,-869 374.5,-857 374.5,-857 374.5,-851 380.5,-845 386.5,-845 386.5,-845 425.5,-845 425.5,-845 431.5,-845 437.5,-851 437.5,-857 437.5,-857 437.5,-869 437.5,-869 437.5,-875 431.5,-881 425.5,-881"/>
<text text-anchor="middle" x="406" y="-859.3" font-family="Helvetica,sans-Serif" font-size="14.00" fill="#000000">Multiply</text>
</g>
<!-- Normalize&#45;&gt;ScaleAfterNormalization -->
<g id="edge13" class="edge">
<title>Normalize&#45;&gt;ScaleAfterNormalization</title>
<path fill="none" stroke="#000000" d="M676.8944,-937.9748C660.2771,-931.2202 640.9092,-923.7876 623,-918 562.9141,-898.5825 491.6893,-881.6582 447.6672,-871.8838"/>
<polygon fill="#000000" stroke="#000000" points="448.1425,-868.4047 437.6239,-869.6732 446.6378,-875.241 448.1425,-868.4047"/>
</g>
<!-- SubtractBkgDetector -->
<g id="node27" class="node">
<title>SubtractBkgDetector</title>
<path fill="#87cefa" stroke="#000000" d="M455.5,-575C455.5,-575 316.5,-575 316.5,-575 310.5,-575 304.5,-569 304.5,-563 304.5,-563 304.5,-551 304.5,-551 304.5,-545 310.5,-539 316.5,-539 316.5,-539 455.5,-539 455.5,-539 461.5,-539 467.5,-545 467.5,-551 467.5,-551 467.5,-563 467.5,-563 467.5,-569 461.5,-575 455.5,-575"/>
<text text-anchor="middle" x="386" y="-553.3" font-family="Helvetica,sans-Serif" font-size="14.00" fill="#000000">Subtract flat background</text>
</g>
<!-- ScaleAfterNormalization&#45;&gt;SubtractBkgDetector -->
<g id="edge23" class="edge">
<title>ScaleAfterNormalization&#45;&gt;SubtractBkgDetector</title>
<path fill="none" stroke="#000000" d="M437.8228,-856.7553C489.0219,-845.7864 584,-821.2296 584,-790 584,-790 584,-790 584,-630 584,-605.3907 529.4735,-586.5068 477.6485,-574.1162"/>
<polygon fill="#000000" stroke="#000000" points="478.2098,-570.6535 467.6773,-571.8017 476.6269,-577.4722 478.2098,-570.6535"/>
</g>
<!-- inputBkgGiven -->
<g id="node33" class="node">
<title>inputBkgGiven</title>
<polygon fill="#32cd32" stroke="#000000" points="313,-808 153.1332,-790 313,-772 472.8668,-790 313,-808"/>
<text text-anchor="middle" x="313" y="-786.3" font-family="Helvetica,sans-Serif" font-size="14.00" fill="#000000">FlatBkgWorkspace given?</text>
</g>
<!-- ScaleAfterNormalization&#45;&gt;inputBkgGiven -->
<g id="edge15" class="edge">
<title>ScaleAfterNormalization&#45;&gt;inputBkgGiven</title>
<path fill="none" stroke="#000000" d="M383.0112,-844.9551C370.3607,-835.0251 354.5597,-822.6221 341.1718,-812.1133"/>
<polygon fill="#000000" stroke="#000000" points="343.2247,-809.2753 333.1975,-805.854 338.9026,-814.7816 343.2247,-809.2753"/>
</g>
<!-- ScaleBkg&#45;&gt;SubtractBkgDetector -->
<g id="edge22" class="edge">
<title>ScaleBkg&#45;&gt;SubtractBkgDetector</title>
<path fill="none" stroke="#000000" d="M337.0674,-611.9551C344.9581,-603.0932 354.6026,-592.2616 363.237,-582.5646"/>
<polygon fill="#000000" stroke="#000000" points="365.8561,-584.8863 369.8921,-575.0904 360.6282,-580.2313 365.8561,-584.8863"/>
</g>
<!-- SetIncidentEnergy&#45;&gt;outputEi -->
<g id="edge31" class="edge">
<title>SetIncidentEnergy&#45;&gt;outputEi</title>
<path fill="none" stroke="#000000" d="M227.0112,-250.7079C215.0978,-241.2284 200.3903,-229.5256 187.5354,-219.297"/>
<polygon fill="#000000" stroke="#000000" points="189.4078,-216.314 179.4034,-212.8264 185.0493,-221.7916 189.4078,-216.314"/>
</g>
<!-- SetIncidentEnergy&#45;&gt;CorrectTOFAxis -->
<g id="edge30" class="edge">
<title>SetIncidentEnergy&#45;&gt;CorrectTOFAxis</title>
<path fill="none" stroke="#000000" d="M286.9388,-250.8976C307.4896,-240.8263 333.251,-228.2015 355.0889,-217.4995"/>
<polygon fill="#000000" stroke="#000000" points="356.7418,-220.5872 364.1812,-213.0436 353.6613,-214.3014 356.7418,-220.5872"/>
</g>
<!-- inputEiGiven -->
<g id="node34" class="node">
<title>inputEiGiven</title>
<polygon fill="#32cd32" stroke="#000000" points="386,-502 185.7474,-484 386,-466 586.2526,-484 386,-502"/>
<text text-anchor="middle" x="386" y="-480.3" font-family="Helvetica,sans-Serif" font-size="14.00" fill="#000000">IncidentEnergyWorkspace given?</text>
</g>
<!-- SubtractBkgDetector&#45;&gt;inputEiGiven -->
<g id="edge24" class="edge">
<title>SubtractBkgDetector&#45;&gt;inputEiGiven</title>
<path fill="none" stroke="#000000" d="M386,-538.9551C386,-530.8828 386,-521.1764 386,-512.1817"/>
<polygon fill="#000000" stroke="#000000" points="389.5001,-512.0903 386,-502.0904 382.5001,-512.0904 389.5001,-512.0903"/>
</g>
<!-- SubtractBkgMonitor -->
<g id="node28" class="node">
<title>SubtractBkgMonitor</title>
<path fill="#87cefa" stroke="#000000" d="M729.5,-1140C729.5,-1140 590.5,-1140 590.5,-1140 584.5,-1140 578.5,-1134 578.5,-1128 578.5,-1128 578.5,-1116 578.5,-1116 578.5,-1110 584.5,-1104 590.5,-1104 590.5,-1104 729.5,-1104 729.5,-1104 735.5,-1104 741.5,-1110 741.5,-1116 741.5,-1116 741.5,-1128 741.5,-1128 741.5,-1134 735.5,-1140 729.5,-1140"/>
<text text-anchor="middle" x="660" y="-1118.3" font-family="Helvetica,sans-Serif" font-size="14.00" fill="#000000">Subtract flat background</text>
</g>
<!-- SubtractBkgMonitor&#45;&gt;IntegrateMonitor -->
<g id="edge8" class="edge">
<title>SubtractBkgMonitor&#45;&gt;IntegrateMonitor</title>
<path fill="none" stroke="#000000" d="M657.7753,-1103.9551C656.7801,-1095.8828 655.5834,-1086.1764 654.4745,-1077.1817"/>
<polygon fill="#000000" stroke="#000000" points="657.9277,-1076.5869 653.2303,-1067.0904 650.9803,-1077.4435 657.9277,-1076.5869"/>
</g>
<!-- detectors&#45;&gt;CorrectTOFAxisRaw -->
<g id="edge12" class="edge">
<title>detectors&#45;&gt;CorrectTOFAxisRaw</title>
<path fill="none" stroke="#000000" d="M848,-1030.8233C848,-1012.0767 848,-981.9948 848,-956 848,-956 848,-956 848,-195 848,-172.4423 848,-146.8875 848,-127.8928"/>
<polygon fill="#000000" stroke="#000000" points="851.5001,-127.808 848,-117.808 844.5001,-127.808 851.5001,-127.808"/>
</g>
<!-- detectors&#45;&gt;Normalize -->
<g id="edge11" class="edge">
<title>detectors&#45;&gt;Normalize</title>
<path fill="none" stroke="#000000" d="M822.8213,-1030.8479C802.7548,-1016.3814 774.4776,-995.9955 752.5003,-980.1514"/>
<polygon fill="#000000" stroke="#000000" points="754.2738,-977.1153 744.1152,-974.1063 750.1802,-982.7935 754.2738,-977.1153"/>
</g>
<!-- monitors&#45;&gt;SubtractBkgMonitor -->
<g id="edge7" class="edge">
<title>monitors&#45;&gt;SubtractBkgMonitor</title>
<path fill="none" stroke="#000000" d="M689.3595,-1176.9551C684.8595,-1168.5319 679.4088,-1158.3292 674.4315,-1149.0128"/>
<polygon fill="#000000" stroke="#000000" points="677.464,-1147.2613 669.6647,-1140.0904 671.2898,-1150.5598 677.464,-1147.2613"/>
</g>
<!-- normalisationScaling -->
<g id="node31" class="node">
<title>normalisationScaling</title>
<polygon fill="#c0c0c0" stroke="#000000" points="614.3921,-994 246.2991,-994 151.6079,-918 519.7009,-918 614.3921,-994"/>
<text text-anchor="middle" x="383" y="-959.8" font-family="Times,serif" font-size="14.00" fill="#000000">&#39;scaling_after_monitor_normalisation&#39;</text>
<text text-anchor="middle" x="383" y="-944.8" font-family="Times,serif" font-size="14.00" fill="#000000">sample log</text>
</g>
<!-- normalisationScaling&#45;&gt;ScaleAfterNormalization -->
<g id="edge14" class="edge">
<title>normalisationScaling&#45;&gt;ScaleAfterNormalization</title>
<path fill="none" stroke="#000000" d="M392.4213,-917.905C394.6439,-908.9181 396.9736,-899.4979 399.0634,-891.048"/>
<polygon fill="#000000" stroke="#000000" points="402.4669,-891.8644 401.4701,-881.3166 395.6716,-890.1838 402.4669,-891.8644"/>
</g>
<!-- inputElasticChannelGiven -->
<g id="node32" class="node">
<title>inputElasticChannelGiven</title>
<polygon fill="#32cd32" stroke="#000000" points="631,-415 456,-377 631,-339 806,-377 631,-415"/>
<text text-anchor="middle" x="631" y="-380.8" font-family="Helvetica,sans-Serif" font-size="14.00" fill="#000000">ElasticChannelWorkspace</text>
<text text-anchor="middle" x="631" y="-365.8" font-family="Helvetica,sans-Serif" font-size="14.00" fill="#000000">given?</text>
</g>
<!-- inputElasticChannelGiven&#45;&gt;inputElasticChannel -->
<g id="edge33" class="edge">
<title>inputElasticChannelGiven&#45;&gt;inputElasticChannel</title>
<path fill="none" stroke="#000000" d="M583.873,-349.1873C553.5806,-331.3098 514.7268,-308.3797 486.3326,-291.6225"/>
<polygon fill="#000000" stroke="#000000" points="487.8963,-288.4813 477.5053,-286.413 484.3385,-294.5098 487.8963,-288.4813"/>
<text text-anchor="middle" x="545" y="-309.8" font-family="Helvetica,sans-Serif" font-size="14.00" fill="#000000">yes</text>
</g>
<!-- inputElasticChannelGiven&#45;&gt;FitElasticChannel -->
<g id="edge35" class="edge">
<title>inputElasticChannelGiven&#45;&gt;FitElasticChannel</title>
<path fill="none" stroke="#000000" d="M636.8029,-340.1346C638.9521,-326.481 641.3579,-311.197 643.387,-298.3059"/>
<polygon fill="#000000" stroke="#000000" points="646.8915,-298.5511 644.989,-288.1285 639.9766,-297.4626 646.8915,-298.5511"/>
<text text-anchor="middle" x="650" y="-309.8" font-family="Helvetica,sans-Serif" font-size="14.00" fill="#000000">no</text>
</g>
<!-- inputBkgGiven&#45;&gt;inputBkg -->
<g id="edge19" class="edge">
<title>inputBkgGiven&#45;&gt;inputBkg</title>
<path fill="none" stroke="#000000" d="M313,-771.9735C313,-760.1918 313,-744.5607 313,-731.1581"/>
<polygon fill="#000000" stroke="#000000" points="316.5001,-731.0033 313,-721.0034 309.5001,-731.0034 316.5001,-731.0033"/>
<text text-anchor="middle" x="324" y="-742.8" font-family="Helvetica,sans-Serif" font-size="14.00" fill="#000000">yes</text>
</g>
<!-- inputBkgGiven&#45;&gt;CalculateFlatBackground -->
<g id="edge16" class="edge">
<title>inputBkgGiven&#45;&gt;CalculateFlatBackground</title>
<path fill="none" stroke="#000000" d="M281.7004,-775.4382C252.3336,-761.7755 207.9847,-741.1426 174.1203,-725.3875"/>
<polygon fill="#000000" stroke="#000000" points="175.4112,-722.1279 164.868,-721.083 172.4584,-728.4747 175.4112,-722.1279"/>
<text text-anchor="middle" x="239" y="-742.8" font-family="Helvetica,sans-Serif" font-size="14.00" fill="#000000">no</text>
</g>
<!-- inputEiGiven&#45;&gt;FindEPP -->
<g id="edge26" class="edge">
<title>inputEiGiven&#45;&gt;FindEPP</title>
<path fill="none" stroke="#000000" d="M313.8962,-472.4131C260.4446,-462.0375 186.8034,-443.9148 127,-415 123.4664,-413.2915 119.9307,-411.3248 116.4618,-409.2045"/>
<polygon fill="#000000" stroke="#000000" points="118.2996,-406.2244 108.0155,-403.6775 114.4667,-412.0818 118.2996,-406.2244"/>
<text text-anchor="middle" x="218" y="-436.8" font-family="Helvetica,sans-Serif" font-size="14.00" fill="#000000">no</text>
</g>
<!-- inputEiGiven&#45;&gt;SetIncidentEnergy -->
<g id="edge28" class="edge">
<title>inputEiGiven&#45;&gt;SetIncidentEnergy</title>
<path fill="none" stroke="#000000" d="M389.3184,-466.2743C393.7665,-437.1693 398.4243,-378.5426 373,-339 359.3357,-317.7478 336.8026,-302.2744 314.7304,-291.3663"/>
<polygon fill="#000000" stroke="#000000" points="316.198,-288.1889 305.6578,-287.1145 313.2275,-294.5274 316.198,-288.1889"/>
<text text-anchor="middle" x="404" y="-373.3" font-family="Helvetica,sans-Serif" font-size="14.00" fill="#000000">yes</text>
</g>
<!-- inputFileGiven -->
<g id="node35" class="node">
<title>inputFileGiven</title>
<polygon fill="#32cd32" stroke="#000000" points="765,-1554 686.7431,-1536 765,-1518 843.2569,-1536 765,-1554"/>
<text text-anchor="middle" x="765" y="-1532.3" font-family="Helvetica,sans-Serif" font-size="14.00" fill="#000000">Run given?</text>
</g>
<!-- inputFileGiven&#45;&gt;inputFile -->
<g id="edge1" class="edge">
<title>inputFileGiven&#45;&gt;inputFile</title>
<path fill="none" stroke="#000000" d="M757.5173,-1519.5787C754.7774,-1513.4589 751.6908,-1506.4365 749,-1500 745.7501,-1492.2261 742.3543,-1483.7249 739.3028,-1475.9308"/>
<polygon fill="#000000" stroke="#000000" points="742.5406,-1474.5997 735.6586,-1466.5443 736.0151,-1477.1332 742.5406,-1474.5997"/>
<text text-anchor="middle" x="760" y="-1488.8" font-family="Helvetica,sans-Serif" font-size="14.00" fill="#000000">yes</text>
</g>
<!-- inputFileGiven&#45;&gt;inputWS -->
<g id="edge4" class="edge">
<title>inputFileGiven&#45;&gt;inputWS</title>
<path fill="none" stroke="#000000" d="M769.4631,-1518.9921C775.6941,-1495.2468 787.079,-1451.8612 794.593,-1423.2268"/>
<polygon fill="#000000" stroke="#000000" points="798.0166,-1423.9693 797.1694,-1413.4084 791.2458,-1422.1925 798.0166,-1423.9693"/>
<text text-anchor="middle" x="786" y="-1488.8" font-family="Helvetica,sans-Serif" font-size="14.00" fill="#000000">no</text>
</g>
</g>
</svg>
