<?xml version="1.0" encoding="UTF-8" standalone="no"?>
<!DOCTYPE svg PUBLIC "-//W3C//DTD SVG 1.1//EN"
 "http://www.w3.org/Graphics/SVG/1.1/DTD/svg11.dtd">
<!-- Generated by graphviz version 2.47.2 (20210527.1257)
 -->
<!-- Title: Sample Pages: 1 -->
<svg width="396pt" height="620pt"
 viewBox="0.00 0.00 396.41 620.00" xmlns="http://www.w3.org/2000/svg" xmlns:xlink="http://www.w3.org/1999/xlink">
<g id="graph0" class="graph" transform="scale(1 1) rotate(0) translate(4 616)">
<title>Sample</title>
<polygon fill="white" stroke="transparent" points="-4,4 -4,-616 392.41,-616 392.41,4 -4,4"/>
<!-- Mask -->
<g id="node1" class="node">
<title>Mask</title>
<polygon fill="limegreen" stroke="black" points="255.04,-468 209.13,-450 255.04,-432 300.96,-450 255.04,-468"/>
<text text-anchor="middle" x="255.04" y="-446.3" font-family="Helvetica" font-size="14.00">Mask</text>
</g>
<!-- Group -->
<g id="node2" class="node">
<title>Group</title>
<polygon fill="limegreen" stroke="black" points="254.04,-324 203.44,-306 254.04,-288 304.65,-306 254.04,-324"/>
<text text-anchor="middle" x="254.04" y="-302.3" font-family="Helvetica" font-size="14.00">Group</text>
</g>
<!-- Mask&#45;&gt;Group -->
<g id="edge8" class="edge">
<title>Mask&#45;&gt;Group</title>
<path fill="none" stroke="black" d="M262.47,-434.6C267.41,-424.19 273.45,-409.61 276.04,-396 279.04,-380.28 279.17,-375.69 276.04,-360 274.04,-349.95 270.1,-339.43 266.1,-330.43"/>
<polygon fill="black" stroke="black" points="269.25,-328.91 261.82,-321.36 262.92,-331.9 269.25,-328.91"/>
</g>
<!-- MaskDetectors -->
<g id="node8" class="node">
<title>MaskDetectors</title>
<path fill="lightskyblue" stroke="black" d="M254.54,-396C254.54,-396 171.54,-396 171.54,-396 165.54,-396 159.54,-390 159.54,-384 159.54,-384 159.54,-372 159.54,-372 159.54,-366 165.54,-360 171.54,-360 171.54,-360 254.54,-360 254.54,-360 260.54,-360 266.54,-366 266.54,-372 266.54,-372 266.54,-384 266.54,-384 266.54,-390 260.54,-396 254.54,-396"/>
<text text-anchor="middle" x="213.04" y="-374.3" font-family="Helvetica" font-size="14.00">MaskDetectors</text>
</g>
<!-- Mask&#45;&gt;MaskDetectors -->
<g id="edge6" class="edge">
<title>Mask&#45;&gt;MaskDetectors</title>
<path fill="none" stroke="black" d="M246.75,-435.17C241.53,-426.48 234.64,-415 228.45,-404.68"/>
<polygon fill="black" stroke="black" points="231.4,-402.79 223.25,-396.02 225.4,-406.39 231.4,-402.79"/>
</g>
<!-- Save -->
<g id="node3" class="node">
<title>Save</title>
<polygon fill="limegreen" stroke="black" points="254.04,-180 210.64,-162 254.04,-144 297.44,-162 254.04,-180"/>
<text text-anchor="middle" x="254.04" y="-158.3" font-family="Helvetica" font-size="14.00">Save</text>
</g>
<!-- Group&#45;&gt;Save -->
<g id="edge11" class="edge">
<title>Group&#45;&gt;Save</title>
<path fill="none" stroke="black" d="M262.52,-290.73C268.16,-280.38 275.06,-265.82 278.04,-252 281.42,-236.36 281.42,-231.64 278.04,-216 275.82,-205.7 271.43,-195 267,-185.93"/>
<polygon fill="black" stroke="black" points="269.99,-184.1 262.28,-176.83 263.77,-187.32 269.99,-184.1"/>
</g>
<!-- GroupDetectors -->
<g id="node10" class="node">
<title>GroupDetectors</title>
<path fill="lightskyblue" stroke="black" d="M256.54,-252C256.54,-252 167.54,-252 167.54,-252 161.54,-252 155.54,-246 155.54,-240 155.54,-240 155.54,-228 155.54,-228 155.54,-222 161.54,-216 167.54,-216 167.54,-216 256.54,-216 256.54,-216 262.54,-216 268.54,-222 268.54,-228 268.54,-228 268.54,-240 268.54,-240 268.54,-246 262.54,-252 256.54,-252"/>
<text text-anchor="middle" x="212.04" y="-230.3" font-family="Helvetica" font-size="14.00">GroupDetectors</text>
</g>
<!-- Group&#45;&gt;GroupDetectors -->
<g id="edge9" class="edge">
<title>Group&#45;&gt;GroupDetectors</title>
<path fill="none" stroke="black" d="M245.54,-290.83C240.41,-282.27 233.7,-271.09 227.63,-260.98"/>
<polygon fill="black" stroke="black" points="230.46,-258.89 222.31,-252.11 224.45,-262.49 230.46,-258.89"/>
</g>
<!-- OutputWorkspace -->
<g id="node6" class="node">
<title>OutputWorkspace</title>
<polygon fill="grey" stroke="black" points="388.27,-36 174.74,-36 119.81,0 333.34,0 388.27,-36"/>
<text text-anchor="middle" x="254.04" y="-14.3" font-family="Times-Roman" font-size="14.00">OutputWorkspace</text>
</g>
<!-- Save&#45;&gt;OutputWorkspace -->
<g id="edge14" class="edge">
<title>Save&#45;&gt;OutputWorkspace</title>
<path fill="none" stroke="black" d="M260.42,-146.48C264.65,-136.02 269.83,-121.42 272.04,-108 274.65,-92.21 274.65,-87.79 272.04,-72 270.6,-63.28 267.91,-54.06 265.04,-45.8"/>
<polygon fill="black" stroke="black" points="268.28,-44.46 261.52,-36.3 261.71,-46.89 268.28,-44.46"/>
</g>
<!-- SaveOutput -->
<g id="node9" class="node">
<title>SaveOutput</title>
<path fill="lightskyblue" stroke="black" d="M250.54,-108C250.54,-108 185.54,-108 185.54,-108 179.54,-108 173.54,-102 173.54,-96 173.54,-96 173.54,-84 173.54,-84 173.54,-78 179.54,-72 185.54,-72 185.54,-72 250.54,-72 250.54,-72 256.54,-72 262.54,-78 262.54,-84 262.54,-84 262.54,-96 262.54,-96 262.54,-102 256.54,-108 250.54,-108"/>
<text text-anchor="middle" x="218.04" y="-86.3" font-family="Helvetica" font-size="14.00">SaveOutput</text>
</g>
<!-- Save&#45;&gt;SaveOutput -->
<g id="edge12" class="edge">
<title>Save&#45;&gt;SaveOutput</title>
<path fill="none" stroke="black" d="M246.76,-146.83C242.4,-138.36 236.72,-127.32 231.57,-117.29"/>
<polygon fill="black" stroke="black" points="234.53,-115.4 226.84,-108.11 228.31,-118.61 234.53,-115.4"/>
</g>
<!-- Runs -->
<g id="node4" class="node">
<title>Runs</title>
<ellipse fill="khaki" stroke="black" cx="255.04" cy="-594" rx="31.4" ry="18"/>
<text text-anchor="middle" x="255.04" y="-590.3" font-family="Helvetica" font-size="14.00">Runs</text>
</g>
<!-- DirectILLCollectData -->
<g id="node7" class="node">
<title>DirectILLCollectData</title>
<path fill="lightskyblue" stroke="black" d="M313.04,-540C313.04,-540 197.04,-540 197.04,-540 191.04,-540 185.04,-534 185.04,-528 185.04,-528 185.04,-516 185.04,-516 185.04,-510 191.04,-504 197.04,-504 197.04,-504 313.04,-504 313.04,-504 319.04,-504 325.04,-510 325.04,-516 325.04,-516 325.04,-528 325.04,-528 325.04,-534 319.04,-540 313.04,-540"/>
<text text-anchor="middle" x="255.04" y="-518.3" font-family="Helvetica" font-size="14.00">DirectILLCollectData</text>
</g>
<!-- Runs&#45;&gt;DirectILLCollectData -->
<g id="edge1" class="edge">
<title>Runs&#45;&gt;DirectILLCollectData</title>
<path fill="none" stroke="black" d="M255.04,-575.7C255.04,-567.98 255.04,-558.71 255.04,-550.11"/>
<polygon fill="black" stroke="black" points="258.54,-550.1 255.04,-540.1 251.54,-550.1 258.54,-550.1"/>
</g>
<!-- MaskWorkspace -->
<g id="node5" class="node">
<title>MaskWorkspace</title>
<ellipse fill="khaki" stroke="black" cx="76.04" cy="-450" rx="76.09" ry="18"/>
<text text-anchor="middle" x="76.04" y="-446.3" font-family="Helvetica" font-size="14.00">MaskWorkspace</text>
</g>
<!-- MaskWorkspace&#45;&gt;MaskDetectors -->
<g id="edge5" class="edge">
<title>MaskWorkspace&#45;&gt;MaskDetectors</title>
<path fill="none" stroke="black" d="M106.45,-433.46C125.26,-423.85 149.7,-411.36 170.43,-400.77"/>
<polygon fill="black" stroke="black" points="172.05,-403.88 179.36,-396.21 168.86,-397.64 172.05,-403.88"/>
</g>
<!-- MaskCreation -->
<g id="node11" class="node">
<title>MaskCreation</title>
<ellipse fill="lightgrey" stroke="black" cx="76.04" cy="-378" rx="65.79" ry="18"/>
<text text-anchor="middle" x="76.04" y="-374.3" font-family="Helvetica" font-size="14.00">MaskCreation</text>
</g>
<!-- MaskWorkspace&#45;&gt;MaskCreation -->
<g id="edge3" class="edge">
<title>MaskWorkspace&#45;&gt;MaskCreation</title>
<path fill="none" stroke="black" d="M70.13,-431.7C69.33,-423.98 69.11,-414.71 69.45,-406.11"/>
<polygon fill="black" stroke="black" points="72.94,-406.32 70.15,-396.1 65.96,-405.84 72.94,-406.32"/>
</g>
<!-- DirectILLCollectData&#45;&gt;Mask -->
<g id="edge2" class="edge">
<title>DirectILLCollectData&#45;&gt;Mask</title>
<path fill="none" stroke="black" d="M255.04,-503.7C255.04,-495.98 255.04,-486.71 255.04,-478.11"/>
<polygon fill="black" stroke="black" points="258.54,-478.1 255.04,-468.1 251.54,-478.1 258.54,-478.1"/>
</g>
<!-- MaskDetectors&#45;&gt;Group -->
<g id="edge7" class="edge">
<title>MaskDetectors&#45;&gt;Group</title>
<path fill="none" stroke="black" d="M223.18,-359.7C228.43,-350.74 234.9,-339.68 240.57,-330.01"/>
<polygon fill="black" stroke="black" points="243.65,-331.68 245.68,-321.28 237.61,-328.14 243.65,-331.68"/>
</g>
<!-- SaveOutput&#45;&gt;OutputWorkspace -->
<g id="edge13" class="edge">
<title>SaveOutput&#45;&gt;OutputWorkspace</title>
<path fill="none" stroke="black" d="M226.94,-71.7C231.04,-63.73 235.99,-54.1 240.54,-45.26"/>
<polygon fill="black" stroke="black" points="243.79,-46.6 245.25,-36.1 237.56,-43.4 243.79,-46.6"/>
</g>
<!-- GroupDetectors&#45;&gt;Save -->
<g id="edge10" class="edge">
<title>GroupDetectors&#45;&gt;Save</title>
<path fill="none" stroke="black" d="M222.43,-215.7C227.87,-206.62 234.62,-195.38 240.48,-185.61"/>
<polygon fill="black" stroke="black" points="243.6,-187.2 245.75,-176.82 237.6,-183.6 243.6,-187.2"/>
</g>
<!-- MaskCreation&#45;&gt;MaskWorkspace -->
<g id="edge4" class="edge">
<title>MaskCreation&#45;&gt;MaskWorkspace</title>
<path fill="none" stroke="black" d="M81.94,-396.1C82.74,-403.79 82.98,-413.05 82.65,-421.67"/>
<polygon fill="black" stroke="black" points="79.15,-421.48 81.96,-431.7 86.14,-421.96 79.15,-421.48"/>
</g>
</g>
</svg>
