<?xml version="1.0" encoding="UTF-8" standalone="no"?>
<!DOCTYPE svg PUBLIC "-//W3C//DTD SVG 1.1//EN"
 "http://www.w3.org/Graphics/SVG/1.1/DTD/svg11.dtd">
<!-- Generated by graphviz version 3.0.0 (20220315.2325)
 -->
<!-- Title: Sample Pages: 1 -->
<svg width="662pt" height="1340pt"
 viewBox="0.00 0.00 662.12 1340.00" xmlns="http://www.w3.org/2000/svg" xmlns:xlink="http://www.w3.org/1999/xlink">
<g id="graph0" class="graph" transform="scale(1 1) rotate(0) translate(4 1336)">
<title>Sample</title>
<polygon fill="white" stroke="transparent" points="-4,4 -4,-1336 658.12,-1336 658.12,4 -4,4"/>
<!-- Mask -->
<g id="node1" class="node">
<title>Mask</title>
<polygon fill="limegreen" stroke="black" points="549.89,-1188 500.96,-1170 549.89,-1152 598.82,-1170 549.89,-1188"/>
<text text-anchor="middle" x="549.89" y="-1166.3" font-family="Helvetica,sans-Serif" font-size="14.00">Mask</text>
</g>
<!-- MaskDetectors -->
<g id="node11" class="node">
<title>MaskDetectors</title>
<path fill="lightskyblue" stroke="black" d="M553.39,-1116C553.39,-1116 458.39,-1116 458.39,-1116 452.39,-1116 446.39,-1110 446.39,-1104 446.39,-1104 446.39,-1092 446.39,-1092 446.39,-1086 452.39,-1080 458.39,-1080 458.39,-1080 553.39,-1080 553.39,-1080 559.39,-1080 565.39,-1086 565.39,-1092 565.39,-1092 565.39,-1104 565.39,-1104 565.39,-1110 559.39,-1116 553.39,-1116"/>
<text text-anchor="middle" x="505.89" y="-1094.3" font-family="Helvetica,sans-Serif" font-size="14.00">MaskDetectors</text>
</g>
<!-- Mask&#45;&gt;MaskDetectors -->
<g id="edge6" class="edge">
<title>Mask&#45;&gt;MaskDetectors</title>
<path fill="none" stroke="black" d="M541.2,-1155.17C535.73,-1146.48 528.52,-1135 522.03,-1124.68"/>
<polygon fill="black" stroke="black" points="524.87,-1122.62 516.59,-1116.02 518.94,-1126.35 524.87,-1122.62"/>
</g>
<!-- Minus -->
<g id="node15" class="node">
<title>Minus</title>
<path fill="lightskyblue" stroke="black" d="M522.89,-1044C522.89,-1044 488.89,-1044 488.89,-1044 482.89,-1044 476.89,-1038 476.89,-1032 476.89,-1032 476.89,-1020 476.89,-1020 476.89,-1014 482.89,-1008 488.89,-1008 488.89,-1008 522.89,-1008 522.89,-1008 528.89,-1008 534.89,-1014 534.89,-1020 534.89,-1020 534.89,-1032 534.89,-1032 534.89,-1038 528.89,-1044 522.89,-1044"/>
<text text-anchor="middle" x="505.89" y="-1022.3" font-family="Helvetica,sans-Serif" font-size="14.00">Minus</text>
</g>
<!-- Mask&#45;&gt;Minus -->
<g id="edge8" class="edge">
<title>Mask&#45;&gt;Minus</title>
<path fill="none" stroke="black" d="M559.46,-1155.16C570.63,-1137.14 586.11,-1105.02 573.89,-1080 567.33,-1066.58 555.56,-1055.57 543.63,-1047.13"/>
<polygon fill="black" stroke="black" points="545.26,-1044.02 534.98,-1041.44 541.41,-1049.86 545.26,-1044.02"/>
</g>
<!-- SelfAttenuation -->
<g id="node2" class="node">
<title>SelfAttenuation</title>
<polygon fill="limegreen" stroke="black" points="505.89,-972 391.94,-954 505.89,-936 619.84,-954 505.89,-972"/>
<text text-anchor="middle" x="505.89" y="-950.3" font-family="Helvetica,sans-Serif" font-size="14.00">SelfAttenuation</text>
</g>
<!-- PaalmanPingsMonteCarloAbsorption -->
<g id="node12" class="node">
<title>PaalmanPingsMonteCarloAbsorption</title>
<path fill="lightskyblue" stroke="black" d="M627.89,-900C627.89,-900 383.89,-900 383.89,-900 377.89,-900 371.89,-894 371.89,-888 371.89,-888 371.89,-876 371.89,-876 371.89,-870 377.89,-864 383.89,-864 383.89,-864 627.89,-864 627.89,-864 633.89,-864 639.89,-870 639.89,-876 639.89,-876 639.89,-888 639.89,-888 639.89,-894 633.89,-900 627.89,-900"/>
<text text-anchor="middle" x="505.89" y="-878.3" font-family="Helvetica,sans-Serif" font-size="14.00">PaalmanPingsMonteCarloAbsorption</text>
</g>
<!-- SelfAttenuation&#45;&gt;PaalmanPingsMonteCarloAbsorption -->
<g id="edge12" class="edge">
<title>SelfAttenuation&#45;&gt;PaalmanPingsMonteCarloAbsorption</title>
<path fill="none" stroke="black" d="M505.89,-935.7C505.89,-927.98 505.89,-918.71 505.89,-910.11"/>
<polygon fill="black" stroke="black" points="509.39,-910.1 505.89,-900.1 502.39,-910.1 509.39,-910.1"/>
</g>
<!-- PaalmanPingsAbsorptionCorrection -->
<g id="node13" class="node">
<title>PaalmanPingsAbsorptionCorrection</title>
<path fill="lightskyblue" stroke="black" d="M341.89,-900C341.89,-900 105.89,-900 105.89,-900 99.89,-900 93.89,-894 93.89,-888 93.89,-888 93.89,-876 93.89,-876 93.89,-870 99.89,-864 105.89,-864 105.89,-864 341.89,-864 341.89,-864 347.89,-864 353.89,-870 353.89,-876 353.89,-876 353.89,-888 353.89,-888 353.89,-894 347.89,-900 341.89,-900"/>
<text text-anchor="middle" x="223.89" y="-878.3" font-family="Helvetica,sans-Serif" font-size="14.00">PaalmanPingsAbsorptionCorrection</text>
</g>
<!-- SelfAttenuation&#45;&gt;PaalmanPingsAbsorptionCorrection -->
<g id="edge11" class="edge">
<title>SelfAttenuation&#45;&gt;PaalmanPingsAbsorptionCorrection</title>
<path fill="none" stroke="black" d="M463.97,-942.6C421.52,-932.06 354.85,-915.51 302.52,-902.52"/>
<polygon fill="black" stroke="black" points="303.14,-899.07 292.59,-900.05 301.46,-905.86 303.14,-899.07"/>
</g>
<!-- Divide -->
<g id="node17" class="node">
<title>Divide</title>
<path fill="lightskyblue" stroke="black" d="M523.89,-756C523.89,-756 487.89,-756 487.89,-756 481.89,-756 475.89,-750 475.89,-744 475.89,-744 475.89,-732 475.89,-732 475.89,-726 481.89,-720 487.89,-720 487.89,-720 523.89,-720 523.89,-720 529.89,-720 535.89,-726 535.89,-732 535.89,-732 535.89,-744 535.89,-744 535.89,-750 529.89,-756 523.89,-756"/>
<text text-anchor="middle" x="505.89" y="-734.3" font-family="Helvetica,sans-Serif" font-size="14.00">Divide</text>
</g>
<!-- SelfAttenuation&#45;&gt;Divide -->
<g id="edge16" class="edge">
<title>SelfAttenuation&#45;&gt;Divide</title>
<path fill="none" stroke="black" d="M569.45,-945.93C598.73,-939.13 630.89,-925.86 648.89,-900 667.05,-873.9 630.86,-796.47 626.89,-792 605.8,-768.3 572.17,-754.74 545.71,-747.28"/>
<polygon fill="black" stroke="black" points="546.53,-743.87 535.97,-744.71 544.74,-750.64 546.53,-743.87"/>
</g>
<!-- RebinData -->
<g id="node3" class="node">
<title>RebinData</title>
<polygon fill="limegreen" stroke="black" points="505.89,-468 424.28,-450 505.89,-432 587.5,-450 505.89,-468"/>
<text text-anchor="middle" x="505.89" y="-446.3" font-family="Helvetica,sans-Serif" font-size="14.00">RebinData</text>
</g>
<!-- Group -->
<g id="node4" class="node">
<title>Group</title>
<polygon fill="limegreen" stroke="black" points="505.89,-324 451.43,-306 505.89,-288 560.35,-306 505.89,-324"/>
<text text-anchor="middle" x="505.89" y="-302.3" font-family="Helvetica,sans-Serif" font-size="14.00">Group</text>
</g>
<!-- RebinData&#45;&gt;Group -->
<g id="edge24" class="edge">
<title>RebinData&#45;&gt;Group</title>
<path fill="none" stroke="black" d="M509.45,-432.38C511.49,-421.98 513.85,-408.28 514.89,-396 516.23,-380.06 516.23,-375.94 514.89,-360 514.15,-351.24 512.74,-341.75 511.24,-333.25"/>
<polygon fill="black" stroke="black" points="514.63,-332.33 509.36,-323.15 507.75,-333.62 514.63,-332.33"/>
</g>
<!-- Rebin -->
<g id="node21" class="node">
<title>Rebin</title>
<path fill="lightskyblue" stroke="black" d="M493.89,-396C493.89,-396 461.89,-396 461.89,-396 455.89,-396 449.89,-390 449.89,-384 449.89,-384 449.89,-372 449.89,-372 449.89,-366 455.89,-360 461.89,-360 461.89,-360 493.89,-360 493.89,-360 499.89,-360 505.89,-366 505.89,-372 505.89,-372 505.89,-384 505.89,-384 505.89,-390 499.89,-396 493.89,-396"/>
<text text-anchor="middle" x="477.89" y="-374.3" font-family="Helvetica,sans-Serif" font-size="14.00">Rebin</text>
</g>
<!-- RebinData&#45;&gt;Rebin -->
<g id="edge22" class="edge">
<title>RebinData&#45;&gt;Rebin</title>
<path fill="none" stroke="black" d="M499.53,-433.12C496.31,-425.06 492.31,-415.05 488.62,-405.84"/>
<polygon fill="black" stroke="black" points="491.77,-404.28 484.8,-396.29 485.27,-406.88 491.77,-404.28"/>
</g>
<!-- Save -->
<g id="node5" class="node">
<title>Save</title>
<polygon fill="limegreen" stroke="black" points="505.89,-180 459.97,-162 505.89,-144 551.8,-162 505.89,-180"/>
<text text-anchor="middle" x="505.89" y="-158.3" font-family="Helvetica,sans-Serif" font-size="14.00">Save</text>
</g>
<!-- Group&#45;&gt;Save -->
<g id="edge26" class="edge">
<title>Group&#45;&gt;Save</title>
<path fill="none" stroke="black" d="M515.07,-290.83C521.17,-280.52 528.64,-265.98 531.89,-252 535.51,-236.41 535.51,-231.59 531.89,-216 529.45,-205.48 524.61,-194.64 519.76,-185.52"/>
<polygon fill="black" stroke="black" points="522.77,-183.73 514.81,-176.74 516.67,-187.17 522.77,-183.73"/>
</g>
<!-- GroupDetectors -->
<g id="node23" class="node">
<title>GroupDetectors</title>
<path fill="lightskyblue" stroke="black" d="M511.39,-252C511.39,-252 410.39,-252 410.39,-252 404.39,-252 398.39,-246 398.39,-240 398.39,-240 398.39,-228 398.39,-228 398.39,-222 404.39,-216 410.39,-216 410.39,-216 511.39,-216 511.39,-216 517.39,-216 523.39,-222 523.39,-228 523.39,-228 523.39,-240 523.39,-240 523.39,-246 517.39,-252 511.39,-252"/>
<text text-anchor="middle" x="460.89" y="-230.3" font-family="Helvetica,sans-Serif" font-size="14.00">GroupDetectors</text>
</g>
<!-- Group&#45;&gt;GroupDetectors -->
<g id="edge25" class="edge">
<title>Group&#45;&gt;GroupDetectors</title>
<path fill="none" stroke="black" d="M496.78,-290.83C491.22,-282.18 483.94,-270.86 477.39,-260.68"/>
<polygon fill="black" stroke="black" points="480.24,-258.63 471.89,-252.11 474.35,-262.42 480.24,-258.63"/>
</g>
<!-- OutputWorkspace -->
<g id="node9" class="node">
<title>OutputWorkspace</title>
<polygon fill="grey" stroke="black" points="644.24,-36 424.15,-36 367.54,0 587.62,0 644.24,-36"/>
<text text-anchor="middle" x="505.89" y="-14.3" font-family="Times,serif" font-size="14.00">OutputWorkspace</text>
</g>
<!-- Save&#45;&gt;OutputWorkspace -->
<g id="edge30" class="edge">
<title>Save&#45;&gt;OutputWorkspace</title>
<path fill="none" stroke="black" d="M512.61,-146.52C517.08,-136.07 522.54,-121.48 524.89,-108 527.63,-92.24 527.63,-87.76 524.89,-72 523.36,-63.24 520.52,-54.01 517.49,-45.75"/>
<polygon fill="black" stroke="black" points="520.68,-44.29 513.78,-36.25 514.16,-46.84 520.68,-44.29"/>
</g>
<!-- SaveOutput -->
<g id="node22" class="node">
<title>SaveOutput</title>
<path fill="lightskyblue" stroke="black" d="M504.39,-108C504.39,-108 429.39,-108 429.39,-108 423.39,-108 417.39,-102 417.39,-96 417.39,-96 417.39,-84 417.39,-84 417.39,-78 423.39,-72 429.39,-72 429.39,-72 504.39,-72 504.39,-72 510.39,-72 516.39,-78 516.39,-84 516.39,-84 516.39,-96 516.39,-96 516.39,-102 510.39,-108 504.39,-108"/>
<text text-anchor="middle" x="466.89" y="-86.3" font-family="Helvetica,sans-Serif" font-size="14.00">SaveOutput</text>
</g>
<!-- Save&#45;&gt;SaveOutput -->
<g id="edge28" class="edge">
<title>Save&#45;&gt;SaveOutput</title>
<path fill="none" stroke="black" d="M498,-146.83C493.22,-138.27 487,-127.09 481.37,-116.98"/>
<polygon fill="black" stroke="black" points="484.35,-115.14 476.42,-108.11 478.23,-118.55 484.35,-115.14"/>
</g>
<!-- Runs -->
<g id="node6" class="node">
<title>Runs</title>
<ellipse fill="khaki" stroke="black" cx="549.89" cy="-1314" rx="33.29" ry="18"/>
<text text-anchor="middle" x="549.89" y="-1310.3" font-family="Helvetica,sans-Serif" font-size="14.00">Runs</text>
</g>
<!-- DirectILLCollectData -->
<g id="node10" class="node">
<title>DirectILLCollectData</title>
<path fill="lightskyblue" stroke="black" d="M615.39,-1260C615.39,-1260 484.39,-1260 484.39,-1260 478.39,-1260 472.39,-1254 472.39,-1248 472.39,-1248 472.39,-1236 472.39,-1236 472.39,-1230 478.39,-1224 484.39,-1224 484.39,-1224 615.39,-1224 615.39,-1224 621.39,-1224 627.39,-1230 627.39,-1236 627.39,-1236 627.39,-1248 627.39,-1248 627.39,-1254 621.39,-1260 615.39,-1260"/>
<text text-anchor="middle" x="549.89" y="-1238.3" font-family="Helvetica,sans-Serif" font-size="14.00">DirectILLCollectData</text>
</g>
<!-- Runs&#45;&gt;DirectILLCollectData -->
<g id="edge1" class="edge">
<title>Runs&#45;&gt;DirectILLCollectData</title>
<path fill="none" stroke="black" d="M549.89,-1295.7C549.89,-1287.98 549.89,-1278.71 549.89,-1270.11"/>
<polygon fill="black" stroke="black" points="553.39,-1270.1 549.89,-1260.1 546.39,-1270.1 553.39,-1270.1"/>
</g>
<!-- EmptyContainerWorkspace -->
<g id="node7" class="node">
<title>EmptyContainerWorkspace</title>
<ellipse fill="khaki" stroke="black" cx="133.89" cy="-1098" rx="133.78" ry="18"/>
<text text-anchor="middle" x="133.89" y="-1094.3" font-family="Helvetica,sans-Serif" font-size="14.00">EmptyContainerWorkspace</text>
</g>
<!-- EmptyContainerWorkspace&#45;&gt;Minus -->
<g id="edge9" class="edge">
<title>EmptyContainerWorkspace&#45;&gt;Minus</title>
<path fill="none" stroke="black" d="M208.27,-1083C286.04,-1068.37 405.12,-1045.96 466.41,-1034.43"/>
<polygon fill="black" stroke="black" points="467.27,-1037.83 476.45,-1032.54 465.98,-1030.95 467.27,-1037.83"/>
</g>
<!-- VanadiumWorkspace -->
<g id="node8" class="node">
<title>VanadiumWorkspace</title>
<ellipse fill="khaki" stroke="black" cx="269.89" cy="-810" rx="105.88" ry="18"/>
<text text-anchor="middle" x="269.89" y="-806.3" font-family="Helvetica,sans-Serif" font-size="14.00">VanadiumWorkspace</text>
</g>
<!-- VanadiumWorkspace&#45;&gt;Divide -->
<g id="edge17" class="edge">
<title>VanadiumWorkspace&#45;&gt;Divide</title>
<path fill="none" stroke="black" d="M320.23,-794.07C363.78,-781.15 425.91,-762.72 466.07,-750.81"/>
<polygon fill="black" stroke="black" points="467.19,-754.13 475.78,-747.93 465.2,-747.42 467.19,-754.13"/>
</g>
<!-- DirectILLCollectData&#45;&gt;Mask -->
<g id="edge2" class="edge">
<title>DirectILLCollectData&#45;&gt;Mask</title>
<path fill="none" stroke="black" d="M549.89,-1223.7C549.89,-1215.98 549.89,-1206.71 549.89,-1198.11"/>
<polygon fill="black" stroke="black" points="553.39,-1198.1 549.89,-1188.1 546.39,-1198.1 553.39,-1198.1"/>
</g>
<!-- MaskDetectors&#45;&gt;Minus -->
<g id="edge7" class="edge">
<title>MaskDetectors&#45;&gt;Minus</title>
<path fill="none" stroke="black" d="M505.89,-1079.7C505.89,-1071.98 505.89,-1062.71 505.89,-1054.11"/>
<polygon fill="black" stroke="black" points="509.39,-1054.1 505.89,-1044.1 502.39,-1054.1 509.39,-1054.1"/>
</g>
<!-- ApplyPaalmanPingsCorrection -->
<g id="node14" class="node">
<title>ApplyPaalmanPingsCorrection</title>
<path fill="lightskyblue" stroke="black" d="M605.89,-828C605.89,-828 405.89,-828 405.89,-828 399.89,-828 393.89,-822 393.89,-816 393.89,-816 393.89,-804 393.89,-804 393.89,-798 399.89,-792 405.89,-792 405.89,-792 605.89,-792 605.89,-792 611.89,-792 617.89,-798 617.89,-804 617.89,-804 617.89,-816 617.89,-816 617.89,-822 611.89,-828 605.89,-828"/>
<text text-anchor="middle" x="505.89" y="-806.3" font-family="Helvetica,sans-Serif" font-size="14.00">ApplyPaalmanPingsCorrection</text>
</g>
<!-- PaalmanPingsMonteCarloAbsorption&#45;&gt;ApplyPaalmanPingsCorrection -->
<g id="edge14" class="edge">
<title>PaalmanPingsMonteCarloAbsorption&#45;&gt;ApplyPaalmanPingsCorrection</title>
<path fill="none" stroke="black" d="M505.89,-863.7C505.89,-855.98 505.89,-846.71 505.89,-838.11"/>
<polygon fill="black" stroke="black" points="509.39,-838.1 505.89,-828.1 502.39,-838.1 509.39,-838.1"/>
</g>
<!-- PaalmanPingsAbsorptionCorrection&#45;&gt;ApplyPaalmanPingsCorrection -->
<g id="edge13" class="edge">
<title>PaalmanPingsAbsorptionCorrection&#45;&gt;ApplyPaalmanPingsCorrection</title>
<path fill="none" stroke="black" d="M292.51,-863.97C333.2,-853.87 384.92,-841.03 427.25,-830.52"/>
<polygon fill="black" stroke="black" points="428.09,-833.92 436.96,-828.11 426.41,-827.12 428.09,-833.92"/>
</g>
<!-- ApplyPaalmanPingsCorrection&#45;&gt;Divide -->
<g id="edge15" class="edge">
<title>ApplyPaalmanPingsCorrection&#45;&gt;Divide</title>
<path fill="none" stroke="black" d="M505.89,-791.7C505.89,-783.98 505.89,-774.71 505.89,-766.11"/>
<polygon fill="black" stroke="black" points="509.39,-766.1 505.89,-756.1 502.39,-766.1 509.39,-766.1"/>
</g>
<!-- Minus&#45;&gt;SelfAttenuation -->
<g id="edge10" class="edge">
<title>Minus&#45;&gt;SelfAttenuation</title>
<path fill="none" stroke="black" d="M505.89,-1007.7C505.89,-999.98 505.89,-990.71 505.89,-982.11"/>
<polygon fill="black" stroke="black" points="509.39,-982.1 505.89,-972.1 502.39,-982.1 509.39,-982.1"/>
</g>
<!-- MaskWorkspace -->
<g id="node16" class="node">
<title>MaskWorkspace</title>
<path fill="lightskyblue" stroke="black" d="M409.39,-1188C409.39,-1188 304.39,-1188 304.39,-1188 298.39,-1188 292.39,-1182 292.39,-1176 292.39,-1176 292.39,-1164 292.39,-1164 292.39,-1158 298.39,-1152 304.39,-1152 304.39,-1152 409.39,-1152 409.39,-1152 415.39,-1152 421.39,-1158 421.39,-1164 421.39,-1164 421.39,-1176 421.39,-1176 421.39,-1182 415.39,-1188 409.39,-1188"/>
<text text-anchor="middle" x="356.89" y="-1166.3" font-family="Helvetica,sans-Serif" font-size="14.00">MaskWorkspace</text>
</g>
<!-- MaskWorkspace&#45;&gt;MaskDetectors -->
<g id="edge5" class="edge">
<title>MaskWorkspace&#45;&gt;MaskDetectors</title>
<path fill="none" stroke="black" d="M393.34,-1151.88C413.53,-1142.39 438.81,-1130.51 460.3,-1120.42"/>
<polygon fill="black" stroke="black" points="461.99,-1123.49 469.56,-1116.07 459.02,-1117.15 461.99,-1123.49"/>
</g>
<!-- MaskCreation -->
<g id="node24" class="node">
<title>MaskCreation</title>
<ellipse fill="lightgrey" stroke="black" cx="356.89" cy="-1098" rx="71.49" ry="18"/>
<text text-anchor="middle" x="356.89" y="-1094.3" font-family="Helvetica,sans-Serif" font-size="14.00">MaskCreation</text>
</g>
<!-- MaskWorkspace&#45;&gt;MaskCreation -->
<g id="edge3" class="edge">
<title>MaskWorkspace&#45;&gt;MaskCreation</title>
<path fill="none" stroke="black" d="M350.97,-1151.7C350.18,-1143.98 349.95,-1134.71 350.29,-1126.11"/>
<polygon fill="black" stroke="black" points="353.79,-1126.32 350.99,-1116.1 346.8,-1125.84 353.79,-1126.32"/>
</g>
<!-- ConvertUnits -->
<g id="node18" class="node">
<title>ConvertUnits</title>
<path fill="lightskyblue" stroke="black" d="M547.39,-684C547.39,-684 464.39,-684 464.39,-684 458.39,-684 452.39,-678 452.39,-672 452.39,-672 452.39,-660 452.39,-660 452.39,-654 458.39,-648 464.39,-648 464.39,-648 547.39,-648 547.39,-648 553.39,-648 559.39,-654 559.39,-660 559.39,-660 559.39,-672 559.39,-672 559.39,-678 553.39,-684 547.39,-684"/>
<text text-anchor="middle" x="505.89" y="-662.3" font-family="Helvetica,sans-Serif" font-size="14.00">ConvertUnits</text>
</g>
<!-- Divide&#45;&gt;ConvertUnits -->
<g id="edge18" class="edge">
<title>Divide&#45;&gt;ConvertUnits</title>
<path fill="none" stroke="black" d="M505.89,-719.7C505.89,-711.98 505.89,-702.71 505.89,-694.11"/>
<polygon fill="black" stroke="black" points="509.39,-694.1 505.89,-684.1 502.39,-694.1 509.39,-694.1"/>
</g>
<!-- CorrectKiKf -->
<g id="node19" class="node">
<title>CorrectKiKf</title>
<path fill="lightskyblue" stroke="black" d="M540.89,-612C540.89,-612 470.89,-612 470.89,-612 464.89,-612 458.89,-606 458.89,-600 458.89,-600 458.89,-588 458.89,-588 458.89,-582 464.89,-576 470.89,-576 470.89,-576 540.89,-576 540.89,-576 546.89,-576 552.89,-582 552.89,-588 552.89,-588 552.89,-600 552.89,-600 552.89,-606 546.89,-612 540.89,-612"/>
<text text-anchor="middle" x="505.89" y="-590.3" font-family="Helvetica,sans-Serif" font-size="14.00">CorrectKiKf</text>
</g>
<!-- ConvertUnits&#45;&gt;CorrectKiKf -->
<g id="edge19" class="edge">
<title>ConvertUnits&#45;&gt;CorrectKiKf</title>
<path fill="none" stroke="black" d="M505.89,-647.7C505.89,-639.98 505.89,-630.71 505.89,-622.11"/>
<polygon fill="black" stroke="black" points="509.39,-622.1 505.89,-612.1 502.39,-622.1 509.39,-622.1"/>
</g>
<!-- DetectorEfficiencyCorUser -->
<g id="node20" class="node">
<title>DetectorEfficiencyCorUser</title>
<path fill="lightskyblue" stroke="black" d="M593.89,-540C593.89,-540 417.89,-540 417.89,-540 411.89,-540 405.89,-534 405.89,-528 405.89,-528 405.89,-516 405.89,-516 405.89,-510 411.89,-504 417.89,-504 417.89,-504 593.89,-504 593.89,-504 599.89,-504 605.89,-510 605.89,-516 605.89,-516 605.89,-528 605.89,-528 605.89,-534 599.89,-540 593.89,-540"/>
<text text-anchor="middle" x="505.89" y="-518.3" font-family="Helvetica,sans-Serif" font-size="14.00">DetectorEfficiencyCorUser</text>
</g>
<!-- CorrectKiKf&#45;&gt;DetectorEfficiencyCorUser -->
<g id="edge20" class="edge">
<title>CorrectKiKf&#45;&gt;DetectorEfficiencyCorUser</title>
<path fill="none" stroke="black" d="M505.89,-575.7C505.89,-567.98 505.89,-558.71 505.89,-550.11"/>
<polygon fill="black" stroke="black" points="509.39,-550.1 505.89,-540.1 502.39,-550.1 509.39,-550.1"/>
</g>
<!-- DetectorEfficiencyCorUser&#45;&gt;RebinData -->
<g id="edge21" class="edge">
<title>DetectorEfficiencyCorUser&#45;&gt;RebinData</title>
<path fill="none" stroke="black" d="M505.89,-503.7C505.89,-495.98 505.89,-486.71 505.89,-478.11"/>
<polygon fill="black" stroke="black" points="509.39,-478.1 505.89,-468.1 502.39,-478.1 509.39,-478.1"/>
</g>
<!-- Rebin&#45;&gt;Group -->
<g id="edge23" class="edge">
<title>Rebin&#45;&gt;Group</title>
<path fill="none" stroke="black" d="M484.81,-359.7C488.19,-351.25 492.31,-340.94 496.01,-331.69"/>
<polygon fill="black" stroke="black" points="499.34,-332.79 499.81,-322.2 492.84,-330.19 499.34,-332.79"/>
</g>
<!-- SaveOutput&#45;&gt;OutputWorkspace -->
<g id="edge29" class="edge">
<title>SaveOutput&#45;&gt;OutputWorkspace</title>
<path fill="none" stroke="black" d="M476.53,-71.7C481.02,-63.64 486.45,-53.89 491.41,-44.98"/>
<polygon fill="black" stroke="black" points="494.55,-46.54 496.36,-36.1 488.43,-43.14 494.55,-46.54"/>
</g>
<!-- GroupDetectors&#45;&gt;Save -->
<g id="edge27" class="edge">
<title>GroupDetectors&#45;&gt;Save</title>
<path fill="none" stroke="black" d="M472.01,-215.7C477.91,-206.52 485.22,-195.14 491.54,-185.31"/>
<polygon fill="black" stroke="black" points="494.54,-187.13 497,-176.82 488.65,-183.34 494.54,-187.13"/>
</g>
<!-- MaskCreation&#45;&gt;MaskWorkspace -->
<g id="edge4" class="edge">
<title>MaskCreation&#45;&gt;MaskWorkspace</title>
<path fill="none" stroke="black" d="M362.78,-1116.1C363.59,-1123.79 363.82,-1133.05 363.49,-1141.67"/>
<polygon fill="black" stroke="black" points="360,-1141.48 362.8,-1151.7 366.98,-1141.96 360,-1141.48"/>
</g>
</g>
</svg>
