<?xml version="1.0" encoding="UTF-8" standalone="no"?>
<!DOCTYPE svg PUBLIC "-//W3C//DTD SVG 1.1//EN"
 "http://www.w3.org/Graphics/SVG/1.1/DTD/svg11.dtd">
<!-- Generated by graphviz version 2.47.2 (20210527.1257)
 -->
<!-- Title: ElasticWindowMultiple Pages: 1 -->
<svg width="1142pt" height="669pt"
 viewBox="0.00 0.00 1142.18 669.00" xmlns="http://www.w3.org/2000/svg" xmlns:xlink="http://www.w3.org/1999/xlink">
<g id="graph0" class="graph" transform="scale(1 1) rotate(0) translate(4 665)">
<title>ElasticWindowMultiple</title>
<polygon fill="white" stroke="transparent" points="-4,4 -4,-665 1138.18,-665 1138.18,4 -4,4"/>
<text text-anchor="middle" x="567.09" y="-645.8" font-family="Helvetica" font-size="14.00">ElasticWindowMultiple Flowchart</text>
<!-- HaveTemperatureLogs -->
<g id="node1" class="node">
<title>HaveTemperatureLogs</title>
<polygon fill="limegreen" stroke="black" points="738.39,-184 583.21,-166 738.39,-148 893.56,-166 738.39,-184"/>
<text text-anchor="middle" x="738.39" y="-162.3" font-family="Helvetica" font-size="14.00">Have Temperature Logs?</text>
</g>
<!-- NormaliseByTemperature -->
<g id="node3" class="node">
<title>NormaliseByTemperature</title>
<polygon fill="lightseagreen" stroke="black" points="810.39,-111 666.39,-111 666.39,-73 810.39,-73 810.39,-111"/>
<text text-anchor="middle" x="738.39" y="-95.8" font-family="Helvetica" font-size="14.00">Normalise to run with</text>
<text text-anchor="middle" x="738.39" y="-80.8" font-family="Helvetica" font-size="14.00">lowest temperature</text>
</g>
<!-- HaveTemperatureLogs&#45;&gt;NormaliseByTemperature -->
<g id="edge18" class="edge">
<title>HaveTemperatureLogs&#45;&gt;NormaliseByTemperature</title>
<path fill="none" stroke="black" d="M738.39,-147.94C738.39,-139.99 738.39,-130.31 738.39,-121.31"/>
<polygon fill="black" stroke="black" points="741.89,-121.2 738.39,-111.2 734.89,-121.2 741.89,-121.2"/>
</g>
<!-- ProcessTemperatureLogs -->
<g id="node2" class="node">
<title>ProcessTemperatureLogs</title>
<polygon fill="lightseagreen" stroke="black" points="487.89,-492 316.89,-492 316.89,-454 487.89,-454 487.89,-492"/>
<text text-anchor="middle" x="402.39" y="-476.8" font-family="Helvetica" font-size="14.00">Get temperature from run</text>
<text text-anchor="middle" x="402.39" y="-461.8" font-family="Helvetica" font-size="14.00">and set as vertical axis</text>
</g>
<!-- Logarithm -->
<g id="node16" class="node">
<title>Logarithm</title>
<path fill="lightskyblue" stroke="black" d="M359.89,-403C359.89,-403 306.89,-403 306.89,-403 300.89,-403 294.89,-397 294.89,-391 294.89,-391 294.89,-379 294.89,-379 294.89,-373 300.89,-367 306.89,-367 306.89,-367 359.89,-367 359.89,-367 365.89,-367 371.89,-373 371.89,-379 371.89,-379 371.89,-391 371.89,-391 371.89,-397 365.89,-403 359.89,-403"/>
<text text-anchor="middle" x="333.39" y="-381.3" font-family="Helvetica" font-size="14.00">Logarithm</text>
</g>
<!-- ProcessTemperatureLogs&#45;&gt;Logarithm -->
<g id="edge9" class="edge">
<title>ProcessTemperatureLogs&#45;&gt;Logarithm</title>
<path fill="none" stroke="black" d="M352.58,-453.91C345.36,-449.17 338.87,-443.28 334.39,-436 330.32,-429.39 328.97,-421.3 328.94,-413.57"/>
<polygon fill="black" stroke="black" points="332.44,-413.63 329.58,-403.43 325.45,-413.19 332.44,-413.63"/>
<text text-anchor="middle" x="391.89" y="-424.8" font-family="Helvetica" font-size="14.00">OutputInQSquared</text>
</g>
<!-- AppendSpectra_Q -->
<g id="node19" class="node">
<title>AppendSpectra_Q</title>
<path fill="lightskyblue" stroke="black" d="M514.39,-403C514.39,-403 428.39,-403 428.39,-403 422.39,-403 416.39,-397 416.39,-391 416.39,-391 416.39,-379 416.39,-379 416.39,-373 422.39,-367 428.39,-367 428.39,-367 514.39,-367 514.39,-367 520.39,-367 526.39,-373 526.39,-379 526.39,-379 526.39,-391 526.39,-391 526.39,-397 520.39,-403 514.39,-403"/>
<text text-anchor="middle" x="471.39" y="-381.3" font-family="Helvetica" font-size="14.00">AppendSpectra</text>
</g>
<!-- ProcessTemperatureLogs&#45;&gt;AppendSpectra_Q -->
<g id="edge11" class="edge">
<title>ProcessTemperatureLogs&#45;&gt;AppendSpectra_Q</title>
<path fill="none" stroke="black" d="M430.8,-453.9C437.49,-448.7 444.18,-442.63 449.39,-436 454.8,-429.11 459.18,-420.67 462.55,-412.71"/>
<polygon fill="black" stroke="black" points="465.82,-413.96 466.18,-403.37 459.3,-411.42 465.82,-413.96"/>
<text text-anchor="middle" x="490.39" y="-424.8" font-family="Helvetica" font-size="14.00">OutputInQ</text>
</g>
<!-- OutputELT -->
<g id="node14" class="node">
<title>OutputELT</title>
<ellipse fill="khaki" stroke="black" cx="738.39" cy="-18" rx="53.09" ry="18"/>
<text text-anchor="middle" x="738.39" y="-14.3" font-family="Helvetica" font-size="14.00">OutputELT</text>
</g>
<!-- NormaliseByTemperature&#45;&gt;OutputELT -->
<g id="edge19" class="edge">
<title>NormaliseByTemperature&#45;&gt;OutputELT</title>
<path fill="none" stroke="black" d="M738.39,-72.83C738.39,-64.89 738.39,-55.41 738.39,-46.63"/>
<polygon fill="black" stroke="black" points="741.89,-46.42 738.39,-36.42 734.89,-46.42 741.89,-46.42"/>
</g>
<!-- InputWorkspaces -->
<g id="node4" class="node">
<title>InputWorkspaces</title>
<ellipse fill="khaki" stroke="black" cx="201.39" cy="-620" rx="78.79" ry="18"/>
<text text-anchor="middle" x="201.39" y="-616.3" font-family="Helvetica" font-size="14.00">InputWorkspaces</text>
</g>
<!-- ElasticWindow -->
<g id="node15" class="node">
<title>ElasticWindow</title>
<path fill="lightskyblue" stroke="black" d="M642.89,-565C642.89,-565 561.89,-565 561.89,-565 555.89,-565 549.89,-559 549.89,-553 549.89,-553 549.89,-541 549.89,-541 549.89,-535 555.89,-529 561.89,-529 561.89,-529 642.89,-529 642.89,-529 648.89,-529 654.89,-535 654.89,-541 654.89,-541 654.89,-553 654.89,-553 654.89,-559 648.89,-565 642.89,-565"/>
<text text-anchor="middle" x="602.39" y="-543.3" font-family="Helvetica" font-size="14.00">ElasticWindow</text>
</g>
<!-- InputWorkspaces&#45;&gt;ElasticWindow -->
<g id="edge1" class="edge">
<title>InputWorkspaces&#45;&gt;ElasticWindow</title>
<path fill="none" stroke="black" d="M258.41,-607.46C268.39,-605.55 278.68,-603.66 288.39,-602 396.81,-583.46 427.85,-587.95 539.74,-564.99"/>
<polygon fill="black" stroke="black" points="540.65,-568.37 549.73,-562.91 539.23,-561.52 540.65,-568.37"/>
</g>
<!-- IntegrationRangeStart -->
<g id="node5" class="node">
<title>IntegrationRangeStart</title>
<ellipse fill="khaki" stroke="black" cx="394.39" cy="-620" rx="96.68" ry="18"/>
<text text-anchor="middle" x="394.39" y="-616.3" font-family="Helvetica" font-size="14.00">IntegrationRangeStart</text>
</g>
<!-- IntegrationRangeStart&#45;&gt;ElasticWindow -->
<g id="edge2" class="edge">
<title>IntegrationRangeStart&#45;&gt;ElasticWindow</title>
<path fill="none" stroke="black" d="M438.5,-603.94C468.89,-593.57 509.63,-579.66 542.89,-568.31"/>
<polygon fill="black" stroke="black" points="544.17,-571.57 552.5,-565.03 541.91,-564.95 544.17,-571.57"/>
</g>
<!-- IntegrationRangeEnd -->
<g id="node6" class="node">
<title>IntegrationRangeEnd</title>
<ellipse fill="khaki" stroke="black" cx="602.39" cy="-620" rx="93.68" ry="18"/>
<text text-anchor="middle" x="602.39" y="-616.3" font-family="Helvetica" font-size="14.00">IntegrationRangeEnd</text>
</g>
<!-- IntegrationRangeEnd&#45;&gt;ElasticWindow -->
<g id="edge3" class="edge">
<title>IntegrationRangeEnd&#45;&gt;ElasticWindow</title>
<path fill="none" stroke="black" d="M602.39,-601.81C602.39,-593.79 602.39,-584.05 602.39,-575.07"/>
<polygon fill="black" stroke="black" points="605.89,-575.03 602.39,-565.03 598.89,-575.03 605.89,-575.03"/>
</g>
<!-- BackgroundRangeStart -->
<g id="node7" class="node">
<title>BackgroundRangeStart</title>
<ellipse fill="khaki" stroke="black" cx="816.39" cy="-620" rx="102.08" ry="18"/>
<text text-anchor="middle" x="816.39" y="-616.3" font-family="Helvetica" font-size="14.00">BackgroundRangeStart</text>
</g>
<!-- BackgroundRangeStart&#45;&gt;ElasticWindow -->
<g id="edge4" class="edge">
<title>BackgroundRangeStart&#45;&gt;ElasticWindow</title>
<path fill="none" stroke="black" d="M770.74,-603.86C739.57,-593.51 697.91,-579.69 663.83,-568.38"/>
<polygon fill="black" stroke="black" points="664.57,-564.94 653.97,-565.11 662.36,-571.59 664.57,-564.94"/>
</g>
<!-- BackgroundRangeEnd -->
<g id="node8" class="node">
<title>BackgroundRangeEnd</title>
<ellipse fill="khaki" stroke="black" cx="1035.39" cy="-620" rx="98.58" ry="18"/>
<text text-anchor="middle" x="1035.39" y="-616.3" font-family="Helvetica" font-size="14.00">BackgroundRangeEnd</text>
</g>
<!-- BackgroundRangeEnd&#45;&gt;ElasticWindow -->
<g id="edge5" class="edge">
<title>BackgroundRangeEnd&#45;&gt;ElasticWindow</title>
<path fill="none" stroke="black" d="M964.37,-607.36C881.25,-593.73 744.88,-571.36 665.38,-558.33"/>
<polygon fill="black" stroke="black" points="665.46,-554.8 655.03,-556.63 664.33,-561.7 665.46,-554.8"/>
</g>
<!-- SampleEnvironmentLogValue -->
<g id="node9" class="node">
<title>SampleEnvironmentLogValue</title>
<ellipse fill="khaki" stroke="black" cx="127.39" cy="-547" rx="127.28" ry="18"/>
<text text-anchor="middle" x="127.39" y="-543.3" font-family="Helvetica" font-size="14.00">SampleEnvironmentLogValue</text>
</g>
<!-- SampleEnvironmentLogValue&#45;&gt;ProcessTemperatureLogs -->
<g id="edge6" class="edge">
<title>SampleEnvironmentLogValue&#45;&gt;ProcessTemperatureLogs</title>
<path fill="none" stroke="black" d="M185.04,-530.91C225.3,-520.36 279.55,-506.16 323.78,-494.58"/>
<polygon fill="black" stroke="black" points="324.84,-497.92 333.63,-492 323.07,-491.15 324.84,-497.92"/>
</g>
<!-- SampleEnvironmentLogName -->
<g id="node10" class="node">
<title>SampleEnvironmentLogName</title>
<ellipse fill="khaki" stroke="black" cx="402.39" cy="-547" rx="129.18" ry="18"/>
<text text-anchor="middle" x="402.39" y="-543.3" font-family="Helvetica" font-size="14.00">SampleEnvironmentLogName</text>
</g>
<!-- SampleEnvironmentLogName&#45;&gt;ProcessTemperatureLogs -->
<g id="edge7" class="edge">
<title>SampleEnvironmentLogName&#45;&gt;ProcessTemperatureLogs</title>
<path fill="none" stroke="black" d="M402.39,-528.94C402.39,-520.99 402.39,-511.31 402.39,-502.31"/>
<polygon fill="black" stroke="black" points="405.89,-502.2 402.39,-492.2 398.89,-502.2 405.89,-502.2"/>
</g>
<!-- OutputInQ -->
<g id="node11" class="node">
<title>OutputInQ</title>
<ellipse fill="khaki" stroke="black" cx="464.39" cy="-312" rx="51.99" ry="18"/>
<text text-anchor="middle" x="464.39" y="-308.3" font-family="Helvetica" font-size="14.00">OutputInQ</text>
</g>
<!-- OutputInQSquared -->
<g id="node12" class="node">
<title>OutputInQSquared</title>
<ellipse fill="khaki" stroke="black" cx="333.39" cy="-239" rx="85.29" ry="18"/>
<text text-anchor="middle" x="333.39" y="-235.3" font-family="Helvetica" font-size="14.00">OutputInQSquared</text>
</g>
<!-- OutputELF -->
<g id="node13" class="node">
<title>OutputELF</title>
<ellipse fill="khaki" stroke="black" cx="511.39" cy="-166" rx="53.89" ry="18"/>
<text text-anchor="middle" x="511.39" y="-162.3" font-family="Helvetica" font-size="14.00">OutputELF</text>
</g>
<!-- ElasticWindow&#45;&gt;ProcessTemperatureLogs -->
<g id="edge8" class="edge">
<title>ElasticWindow&#45;&gt;ProcessTemperatureLogs</title>
<path fill="none" stroke="black" d="M554.99,-528.94C527.16,-518.92 491.73,-506.16 462.02,-495.47"/>
<polygon fill="black" stroke="black" points="463.18,-492.17 452.59,-492.07 460.81,-498.75 463.18,-492.17"/>
</g>
<!-- AppendSpectra_Q2 -->
<g id="node20" class="node">
<title>AppendSpectra_Q2</title>
<path fill="lightskyblue" stroke="black" d="M376.39,-330C376.39,-330 290.39,-330 290.39,-330 284.39,-330 278.39,-324 278.39,-318 278.39,-318 278.39,-306 278.39,-306 278.39,-300 284.39,-294 290.39,-294 290.39,-294 376.39,-294 376.39,-294 382.39,-294 388.39,-300 388.39,-306 388.39,-306 388.39,-318 388.39,-318 388.39,-324 382.39,-330 376.39,-330"/>
<text text-anchor="middle" x="333.39" y="-308.3" font-family="Helvetica" font-size="14.00">AppendSpectra</text>
</g>
<!-- Logarithm&#45;&gt;AppendSpectra_Q2 -->
<g id="edge10" class="edge">
<title>Logarithm&#45;&gt;AppendSpectra_Q2</title>
<path fill="none" stroke="black" d="M333.39,-366.81C333.39,-358.79 333.39,-349.05 333.39,-340.07"/>
<polygon fill="black" stroke="black" points="336.89,-340.03 333.39,-330.03 329.89,-340.03 336.89,-340.03"/>
</g>
<!-- Transpose -->
<g id="node17" class="node">
<title>Transpose</title>
<path fill="lightskyblue" stroke="black" d="M602.39,-330C602.39,-330 546.39,-330 546.39,-330 540.39,-330 534.39,-324 534.39,-318 534.39,-318 534.39,-306 534.39,-306 534.39,-300 540.39,-294 546.39,-294 546.39,-294 602.39,-294 602.39,-294 608.39,-294 614.39,-300 614.39,-306 614.39,-306 614.39,-318 614.39,-318 614.39,-324 608.39,-330 602.39,-330"/>
<text text-anchor="middle" x="574.39" y="-308.3" font-family="Helvetica" font-size="14.00">Transpose</text>
</g>
<!-- SortXAxis -->
<g id="node18" class="node">
<title>SortXAxis</title>
<path fill="lightskyblue" stroke="black" d="M600.39,-257C600.39,-257 548.39,-257 548.39,-257 542.39,-257 536.39,-251 536.39,-245 536.39,-245 536.39,-233 536.39,-233 536.39,-227 542.39,-221 548.39,-221 548.39,-221 600.39,-221 600.39,-221 606.39,-221 612.39,-227 612.39,-233 612.39,-233 612.39,-245 612.39,-245 612.39,-251 606.39,-257 600.39,-257"/>
<text text-anchor="middle" x="574.39" y="-235.3" font-family="Helvetica" font-size="14.00">SortXAxis</text>
</g>
<!-- Transpose&#45;&gt;SortXAxis -->
<g id="edge15" class="edge">
<title>Transpose&#45;&gt;SortXAxis</title>
<path fill="none" stroke="black" d="M574.39,-293.81C574.39,-285.79 574.39,-276.05 574.39,-267.07"/>
<polygon fill="black" stroke="black" points="577.89,-267.03 574.39,-257.03 570.89,-267.03 577.89,-267.03"/>
</g>
<!-- SortXAxis&#45;&gt;HaveTemperatureLogs -->
<g id="edge17" class="edge">
<title>SortXAxis&#45;&gt;HaveTemperatureLogs</title>
<path fill="none" stroke="black" d="M612.43,-221.53C638.05,-210.44 671.79,-195.83 697.91,-184.52"/>
<polygon fill="black" stroke="black" points="699.37,-187.71 707.16,-180.52 696.59,-181.28 699.37,-187.71"/>
</g>
<!-- SortXAxis&#45;&gt;OutputELF -->
<g id="edge16" class="edge">
<title>SortXAxis&#45;&gt;OutputELF</title>
<path fill="none" stroke="black" d="M559.14,-220.81C551.21,-211.88 541.38,-200.8 532.71,-191.03"/>
<polygon fill="black" stroke="black" points="535.32,-188.7 526.06,-183.54 530.08,-193.34 535.32,-188.7"/>
</g>
<!-- AppendSpectra_Q&#45;&gt;OutputInQ -->
<g id="edge12" class="edge">
<title>AppendSpectra_Q&#45;&gt;OutputInQ</title>
<path fill="none" stroke="black" d="M469.69,-366.81C468.9,-358.79 467.94,-349.05 467.06,-340.07"/>
<polygon fill="black" stroke="black" points="470.53,-339.64 466.07,-330.03 463.57,-340.32 470.53,-339.64"/>
</g>
<!-- AppendSpectra_Q&#45;&gt;Transpose -->
<g id="edge14" class="edge">
<title>AppendSpectra_Q&#45;&gt;Transpose</title>
<path fill="none" stroke="black" d="M496.06,-366.99C509.59,-357.67 526.55,-345.97 541.23,-335.86"/>
<polygon fill="black" stroke="black" points="543.31,-338.67 549.56,-330.11 539.34,-332.91 543.31,-338.67"/>
</g>
<!-- AppendSpectra_Q2&#45;&gt;OutputInQSquared -->
<g id="edge13" class="edge">
<title>AppendSpectra_Q2&#45;&gt;OutputInQSquared</title>
<path fill="none" stroke="black" d="M333.39,-293.81C333.39,-285.79 333.39,-276.05 333.39,-267.07"/>
<polygon fill="black" stroke="black" points="336.89,-267.03 333.39,-257.03 329.89,-267.03 336.89,-267.03"/>
</g>
</g>
</svg>
