<?xml version="1.0" encoding="UTF-8" standalone="no"?>
<!DOCTYPE svg PUBLIC "-//W3C//DTD SVG 1.1//EN"
 "http://www.w3.org/Graphics/SVG/1.1/DTD/svg11.dtd">
<!-- Generated by graphviz version 2.47.2 (20210527.1257)
 -->
<!-- Pages: 1 -->
<svg width="314pt" height="188pt"
 viewBox="0.00 0.00 314.00 188.00" xmlns="http://www.w3.org/2000/svg" xmlns:xlink="http://www.w3.org/1999/xlink">
<g id="graph0" class="graph" transform="scale(1 1) rotate(0) translate(4 184)">
<polygon fill="white" stroke="transparent" points="-4,4 -4,-184 310,-184 310,4 -4,4"/>
<!-- file -->
<g id="node1" class="node">
<title>file</title>
<polygon fill="none" stroke="black" points="206.5,-180 99.5,-180 99.5,-144 206.5,-144 206.5,-180"/>
<text text-anchor="middle" x="153" y="-158.3" font-family="Times-Roman" font-size="14.00">123456.hdf5</text>
</g>
<!-- bank1 -->
<g id="node2" class="node">
<title>bank1</title>
<polygon fill="none" stroke="black" points="124.5,-108 59.5,-108 59.5,-72 124.5,-72 124.5,-108"/>
<text text-anchor="middle" x="92" y="-86.3" font-family="Times-Roman" font-size="14.00">Bank 1</text>
</g>
<!-- file&#45;&#45;bank1 -->
<g id="edge1" class="edge">
<title>file&#45;&#45;bank1</title>
<path fill="none" stroke="black" d="M137.92,-143.7C128.47,-132.85 116.33,-118.92 106.91,-108.1"/>
</g>
<!-- bank2 -->
<g id="node4" class="node">
<title>bank2</title>
<polygon fill="none" stroke="black" points="246.5,-108 181.5,-108 181.5,-72 246.5,-72 246.5,-108"/>
<text text-anchor="middle" x="214" y="-86.3" font-family="Times-Roman" font-size="14.00">Bank 2</text>
</g>
<!-- file&#45;&#45;bank2 -->
<g id="edge3" class="edge">
<title>file&#45;&#45;bank2</title>
<path fill="none" stroke="black" d="M168.08,-143.7C177.53,-132.85 189.67,-118.92 199.09,-108.1"/>
</g>
<!-- fitgroup1 -->
<g id="node3" class="node">
<title>fitgroup1</title>
<polygon fill="none" stroke="black" points="144,-36 0,-36 0,0 144,0 144,-36"/>
<text text-anchor="middle" x="72" y="-14.3" font-family="Times-Roman" font-size="14.00">Single Peak Fitting</text>
</g>
<!-- bank1&#45;&#45;fitgroup1 -->
<g id="edge2" class="edge">
<title>bank1&#45;&#45;fitgroup1</title>
<path fill="none" stroke="black" d="M87.06,-71.7C83.96,-60.85 79.98,-46.92 76.89,-36.1"/>
</g>
<!-- fitgroup2 -->
<g id="node5" class="node">
<title>fitgroup2</title>
<polygon fill="none" stroke="black" points="306,-36 162,-36 162,0 306,0 306,-36"/>
<text text-anchor="middle" x="234" y="-14.3" font-family="Times-Roman" font-size="14.00">Single Peak Fitting</text>
</g>
<!-- bank2&#45;&#45;fitgroup2 -->
<g id="edge4" class="edge">
<title>bank2&#45;&#45;fitgroup2</title>
<path fill="none" stroke="black" d="M218.94,-71.7C222.04,-60.85 226.02,-46.92 229.11,-36.1"/>
</g>
</g>
</svg>
