<?xml version="1.0" encoding="UTF-8" standalone="no"?>
<!DOCTYPE svg PUBLIC "-//W3C//DTD SVG 1.1//EN"
 "http://www.w3.org/Graphics/SVG/1.1/DTD/svg11.dtd">
<!-- Generated by graphviz version 2.47.2 (20210527.1257)
 -->
<!-- Pages: 1 -->
<svg width="1184pt" height="260pt"
 viewBox="0.00 0.00 1184.00 260.00" xmlns="http://www.w3.org/2000/svg" xmlns:xlink="http://www.w3.org/1999/xlink">
<g id="graph0" class="graph" transform="scale(1 1) rotate(0) translate(4 256)">
<polygon fill="white" stroke="transparent" points="-4,4 -4,-256 1180,-256 1180,4 -4,4"/>
<!-- file -->
<g id="node1" class="node">
<title>file</title>
<polygon fill="none" stroke="black" points="678.5,-252 571.5,-252 571.5,-216 678.5,-216 678.5,-252"/>
<text text-anchor="middle" x="625" y="-230.3" font-family="Times-Roman" font-size="14.00">123456.hdf5</text>
</g>
<!-- bank1 -->
<g id="node2" class="node">
<title>bank1</title>
<polygon fill="none" stroke="black" points="616.5,-180 551.5,-180 551.5,-144 616.5,-144 616.5,-180"/>
<text text-anchor="middle" x="584" y="-158.3" font-family="Times-Roman" font-size="14.00">Bank 1</text>
</g>
<!-- file&#45;&#45;bank1 -->
<g id="edge1" class="edge">
<title>file&#45;&#45;bank1</title>
<path fill="none" stroke="black" d="M614.87,-215.7C608.51,-204.85 600.35,-190.92 594.02,-180.1"/>
</g>
<!-- bank2 -->
<g id="node8" class="node">
<title>bank2</title>
<polygon fill="none" stroke="black" points="782.5,-180 717.5,-180 717.5,-144 782.5,-144 782.5,-180"/>
<text text-anchor="middle" x="750" y="-158.3" font-family="Times-Roman" font-size="14.00">Bank 2</text>
</g>
<!-- file&#45;&#45;bank2 -->
<g id="edge7" class="edge">
<title>file&#45;&#45;bank2</title>
<path fill="none" stroke="black" d="M655.58,-215.88C674.95,-205.03 699.91,-191.05 719.3,-180.19"/>
</g>
<!-- fitgroup1 -->
<g id="node3" class="node">
<title>fitgroup1</title>
<polygon fill="none" stroke="black" points="475,-108 359,-108 359,-72 475,-72 475,-108"/>
<text text-anchor="middle" x="417" y="-86.3" font-family="Times-Roman" font-size="14.00">GSAS&#45;II Fitting</text>
</g>
<!-- bank1&#45;&#45;fitgroup1 -->
<g id="edge2" class="edge">
<title>bank1&#45;&#45;fitgroup1</title>
<path fill="none" stroke="black" d="M551.4,-147.34C524.64,-136.12 486.58,-120.17 457.79,-108.1"/>
</g>
<!-- latticeparams1 -->
<g id="node4" class="node">
<title>latticeparams1</title>
<polygon fill="none" stroke="black" points="146,-36 0,-36 0,0 146,0 146,-36"/>
<text text-anchor="middle" x="73" y="-14.3" font-family="Times-Roman" font-size="14.00">Lattice Parameters</text>
</g>
<!-- fitgroup1&#45;&#45;latticeparams1 -->
<g id="edge3" class="edge">
<title>fitgroup1&#45;&#45;latticeparams1</title>
<path fill="none" stroke="black" d="M358.97,-77.34C305.87,-66.66 225.13,-50.36 155,-36 152.15,-35.42 149.25,-34.82 146.31,-34.22"/>
</g>
<!-- profcoeffs1 -->
<g id="node5" class="node">
<title>profcoeffs1</title>
<polygon fill="none" stroke="black" points="309.5,-36 164.5,-36 164.5,0 309.5,0 309.5,-36"/>
<text text-anchor="middle" x="237" y="-14.3" font-family="Times-Roman" font-size="14.00">Profile Coefficients</text>
</g>
<!-- fitgroup1&#45;&#45;profcoeffs1 -->
<g id="edge4" class="edge">
<title>fitgroup1&#45;&#45;profcoeffs1</title>
<path fill="none" stroke="black" d="M372.97,-71.88C344.97,-60.99 308.86,-46.95 280.89,-36.07"/>
</g>
<!-- refineparams1 -->
<g id="node6" class="node">
<title>refineparams1</title>
<polygon fill="none" stroke="black" points="506.5,-36 327.5,-36 327.5,0 506.5,0 506.5,-36"/>
<text text-anchor="middle" x="417" y="-14.3" font-family="Times-Roman" font-size="14.00">Refinement Parameters</text>
</g>
<!-- fitgroup1&#45;&#45;refineparams1 -->
<g id="edge5" class="edge">
<title>fitgroup1&#45;&#45;refineparams1</title>
<path fill="none" stroke="black" d="M417,-71.7C417,-60.85 417,-46.92 417,-36.1"/>
</g>
<!-- rwp1 -->
<g id="node7" class="node">
<title>rwp1</title>
<polygon fill="none" stroke="black" points="579,-36 525,-36 525,0 579,0 579,-36"/>
<text text-anchor="middle" x="552" y="-14.3" font-family="Times-Roman" font-size="14.00">Rwp</text>
</g>
<!-- fitgroup1&#45;&#45;rwp1 -->
<g id="edge6" class="edge">
<title>fitgroup1&#45;&#45;rwp1</title>
<path fill="none" stroke="black" d="M450.02,-71.88C472.97,-59.98 503.19,-44.31 524.76,-33.12"/>
</g>
<!-- fitgroup2 -->
<g id="node9" class="node">
<title>fitgroup2</title>
<polygon fill="none" stroke="black" points="892,-108 776,-108 776,-72 892,-72 892,-108"/>
<text text-anchor="middle" x="834" y="-86.3" font-family="Times-Roman" font-size="14.00">GSAS&#45;II Fitting</text>
</g>
<!-- bank2&#45;&#45;fitgroup2 -->
<g id="edge8" class="edge">
<title>bank2&#45;&#45;fitgroup2</title>
<path fill="none" stroke="black" d="M770.76,-143.7C783.78,-132.85 800.5,-118.92 813.47,-108.1"/>
</g>
<!-- latticeparams2 -->
<g id="node10" class="node">
<title>latticeparams2</title>
<polygon fill="none" stroke="black" points="743,-36 597,-36 597,0 743,0 743,-36"/>
<text text-anchor="middle" x="670" y="-14.3" font-family="Times-Roman" font-size="14.00">Lattice Parameters</text>
</g>
<!-- fitgroup2&#45;&#45;latticeparams2 -->
<g id="edge9" class="edge">
<title>fitgroup2&#45;&#45;latticeparams2</title>
<path fill="none" stroke="black" d="M793.88,-71.88C768.37,-60.99 735.47,-46.95 709.99,-36.07"/>
</g>
<!-- profcoeffs2 -->
<g id="node11" class="node">
<title>profcoeffs2</title>
<polygon fill="none" stroke="black" points="906.5,-36 761.5,-36 761.5,0 906.5,0 906.5,-36"/>
<text text-anchor="middle" x="834" y="-14.3" font-family="Times-Roman" font-size="14.00">Profile Coefficients</text>
</g>
<!-- fitgroup2&#45;&#45;profcoeffs2 -->
<g id="edge10" class="edge">
<title>fitgroup2&#45;&#45;profcoeffs2</title>
<path fill="none" stroke="black" d="M834,-71.7C834,-60.85 834,-46.92 834,-36.1"/>
</g>
<!-- refineparams2 -->
<g id="node12" class="node">
<title>refineparams2</title>
<polygon fill="none" stroke="black" points="1103.5,-36 924.5,-36 924.5,0 1103.5,0 1103.5,-36"/>
<text text-anchor="middle" x="1014" y="-14.3" font-family="Times-Roman" font-size="14.00">Refinement Parameters</text>
</g>
<!-- fitgroup2&#45;&#45;refineparams2 -->
<g id="edge11" class="edge">
<title>fitgroup2&#45;&#45;refineparams2</title>
<path fill="none" stroke="black" d="M878.03,-71.88C906.03,-60.99 942.14,-46.95 970.11,-36.07"/>
</g>
<!-- rwp2 -->
<g id="node13" class="node">
<title>rwp2</title>
<polygon fill="none" stroke="black" points="1176,-36 1122,-36 1122,0 1176,0 1176,-36"/>
<text text-anchor="middle" x="1149" y="-14.3" font-family="Times-Roman" font-size="14.00">Rwp</text>
</g>
<!-- fitgroup2&#45;&#45;rwp2 -->
<g id="edge12" class="edge">
<title>fitgroup2&#45;&#45;rwp2</title>
<path fill="none" stroke="black" d="M892.24,-82.31C949.44,-74.73 1038.69,-60.17 1113,-36 1115.89,-35.06 1118.85,-33.94 1121.77,-32.73"/>
</g>
</g>
</svg>
