<?xml version="1.0" encoding="UTF-8" standalone="no"?>
<!DOCTYPE svg PUBLIC "-//W3C//DTD SVG 1.1//EN"
 "http://www.w3.org/Graphics/SVG/1.1/DTD/svg11.dtd">
<!-- Generated by graphviz version 7.0.5 (20221231.0122)
 -->
<!-- Pages: 1 -->
<svg width="1228pt" height="260pt"
 viewBox="0.00 0.00 1227.50 260.00" xmlns="http://www.w3.org/2000/svg" xmlns:xlink="http://www.w3.org/1999/xlink">
<g id="graph0" class="graph" transform="scale(1 1) rotate(0) translate(4 256)">
<polygon fill="white" stroke="none" points="-4,4 -4,-256 1223.5,-256 1223.5,4 -4,4"/>
<!-- file -->
<g id="node1" class="node">
<title>file</title>
<polygon fill="none" stroke="black" points="704,-252 597,-252 597,-216 704,-216 704,-252"/>
<text text-anchor="middle" x="650.5" y="-230.3" font-family="Times,serif" font-size="14.00">123456.hdf5</text>
</g>
<!-- bank1 -->
<g id="node2" class="node">
<title>bank1</title>
<polygon fill="none" stroke="black" points="641.5,-180 575.5,-180 575.5,-144 641.5,-144 641.5,-180"/>
<text text-anchor="middle" x="608.5" y="-158.3" font-family="Times,serif" font-size="14.00">Bank 1</text>
</g>
<!-- file&#45;&#45;bank1 -->
<g id="edge1" class="edge">
<title>file&#45;&#45;bank1</title>
<path fill="none" stroke="black" d="M640.12,-215.7C633.61,-204.85 625.25,-190.92 618.76,-180.1"/>
</g>
<!-- bank2 -->
<g id="node8" class="node">
<title>bank2</title>
<polygon fill="none" stroke="black" points="812.5,-180 746.5,-180 746.5,-144 812.5,-144 812.5,-180"/>
<text text-anchor="middle" x="779.5" y="-158.3" font-family="Times,serif" font-size="14.00">Bank 2</text>
</g>
<!-- file&#45;&#45;bank2 -->
<g id="edge7" class="edge">
<title>file&#45;&#45;bank2</title>
<path fill="none" stroke="black" d="M682.72,-215.52C702.57,-204.74 727.92,-190.99 747.69,-180.26"/>
</g>
<!-- fitgroup1 -->
<g id="node3" class="node">
<title>fitgroup1</title>
<polygon fill="none" stroke="black" points="498.5,-108 372.5,-108 372.5,-72 498.5,-72 498.5,-108"/>
<text text-anchor="middle" x="435.5" y="-86.3" font-family="Times,serif" font-size="14.00">GSAS&#45;II Fitting</text>
</g>
<!-- bank1&#45;&#45;fitgroup1 -->
<g id="edge2" class="edge">
<title>bank1&#45;&#45;fitgroup1</title>
<path fill="none" stroke="black" d="M575.14,-147.5C547.65,-136.38 508.47,-120.52 478.6,-108.44"/>
</g>
<!-- latticeparams1 -->
<g id="node4" class="node">
<title>latticeparams1</title>
<polygon fill="none" stroke="black" points="153,-36 0,-36 0,0 153,0 153,-36"/>
<text text-anchor="middle" x="76.5" y="-14.3" font-family="Times,serif" font-size="14.00">Lattice Parameters</text>
</g>
<!-- fitgroup1&#45;&#45;latticeparams1 -->
<g id="edge3" class="edge">
<title>fitgroup1&#45;&#45;latticeparams1</title>
<path fill="none" stroke="black" d="M372.08,-76.85C316.53,-66.18 233.64,-50.19 161.5,-36 158.84,-35.48 156.14,-34.94 153.41,-34.4"/>
</g>
<!-- profcoeffs1 -->
<g id="node5" class="node">
<title>profcoeffs1</title>
<polygon fill="none" stroke="black" points="324,-36 171,-36 171,0 324,0 324,-36"/>
<text text-anchor="middle" x="247.5" y="-14.3" font-family="Times,serif" font-size="14.00">Profile Coefficients</text>
</g>
<!-- fitgroup1&#45;&#45;profcoeffs1 -->
<g id="edge4" class="edge">
<title>fitgroup1&#45;&#45;profcoeffs1</title>
<path fill="none" stroke="black" d="M388.54,-71.52C359.72,-60.79 322.95,-47.09 294.18,-36.38"/>
</g>
<!-- refineparams1 -->
<g id="node6" class="node">
<title>refineparams1</title>
<polygon fill="none" stroke="black" points="528.5,-36 342.5,-36 342.5,0 528.5,0 528.5,-36"/>
<text text-anchor="middle" x="435.5" y="-14.3" font-family="Times,serif" font-size="14.00">Refinement Parameters</text>
</g>
<!-- fitgroup1&#45;&#45;refineparams1 -->
<g id="edge5" class="edge">
<title>fitgroup1&#45;&#45;refineparams1</title>
<path fill="none" stroke="black" d="M435.5,-71.7C435.5,-60.85 435.5,-46.92 435.5,-36.1"/>
</g>
<!-- rwp1 -->
<g id="node7" class="node">
<title>rwp1</title>
<polygon fill="none" stroke="black" points="600.5,-36 546.5,-36 546.5,0 600.5,0 600.5,-36"/>
<text text-anchor="middle" x="573.5" y="-14.3" font-family="Times,serif" font-size="14.00">Rwp</text>
</g>
<!-- fitgroup1&#45;&#45;rwp1 -->
<g id="edge6" class="edge">
<title>fitgroup1&#45;&#45;rwp1</title>
<path fill="none" stroke="black" d="M469.97,-71.52C493.6,-59.53 524.51,-43.85 546.38,-32.75"/>
</g>
<!-- fitgroup2 -->
<g id="node9" class="node">
<title>fitgroup2</title>
<polygon fill="none" stroke="black" points="929.5,-108 803.5,-108 803.5,-72 929.5,-72 929.5,-108"/>
<text text-anchor="middle" x="866.5" y="-86.3" font-family="Times,serif" font-size="14.00">GSAS&#45;II Fitting</text>
</g>
<!-- bank2&#45;&#45;fitgroup2 -->
<g id="edge8" class="edge">
<title>bank2&#45;&#45;fitgroup2</title>
<path fill="none" stroke="black" d="M801.01,-143.7C814.39,-132.93 831.55,-119.12 844.94,-108.35"/>
</g>
<!-- latticeparams2 -->
<g id="node10" class="node">
<title>latticeparams2</title>
<polygon fill="none" stroke="black" points="772,-36 619,-36 619,0 772,0 772,-36"/>
<text text-anchor="middle" x="695.5" y="-14.3" font-family="Times,serif" font-size="14.00">Lattice Parameters</text>
</g>
<!-- fitgroup2&#45;&#45;latticeparams2 -->
<g id="edge9" class="edge">
<title>fitgroup2&#45;&#45;latticeparams2</title>
<path fill="none" stroke="black" d="M823.79,-71.52C797.58,-60.79 764.13,-47.09 737.96,-36.38"/>
</g>
<!-- profcoeffs2 -->
<g id="node11" class="node">
<title>profcoeffs2</title>
<polygon fill="none" stroke="black" points="943,-36 790,-36 790,0 943,0 943,-36"/>
<text text-anchor="middle" x="866.5" y="-14.3" font-family="Times,serif" font-size="14.00">Profile Coefficients</text>
</g>
<!-- fitgroup2&#45;&#45;profcoeffs2 -->
<g id="edge10" class="edge">
<title>fitgroup2&#45;&#45;profcoeffs2</title>
<path fill="none" stroke="black" d="M866.5,-71.7C866.5,-60.85 866.5,-46.92 866.5,-36.1"/>
</g>
<!-- refineparams2 -->
<g id="node12" class="node">
<title>refineparams2</title>
<polygon fill="none" stroke="black" points="1147.5,-36 961.5,-36 961.5,0 1147.5,0 1147.5,-36"/>
<text text-anchor="middle" x="1054.5" y="-14.3" font-family="Times,serif" font-size="14.00">Refinement Parameters</text>
</g>
<!-- fitgroup2&#45;&#45;refineparams2 -->
<g id="edge11" class="edge">
<title>fitgroup2&#45;&#45;refineparams2</title>
<path fill="none" stroke="black" d="M913.46,-71.52C942.28,-60.79 979.05,-47.09 1007.82,-36.38"/>
</g>
<!-- rwp2 -->
<g id="node13" class="node">
<title>rwp2</title>
<polygon fill="none" stroke="black" points="1219.5,-36 1165.5,-36 1165.5,0 1219.5,0 1219.5,-36"/>
<text text-anchor="middle" x="1192.5" y="-14.3" font-family="Times,serif" font-size="14.00">Rwp</text>
</g>
<!-- fitgroup2&#45;&#45;rwp2 -->
<g id="edge12" class="edge">
<title>fitgroup2&#45;&#45;rwp2</title>
<path fill="none" stroke="black" d="M929.88,-82.24C989.43,-74.77 1080.49,-60.43 1156.5,-36 1159.4,-35.07 1162.36,-33.96 1165.28,-32.75"/>
</g>
</g>
</svg>
