<?xml version="1.0" encoding="UTF-8" standalone="no"?>
<!DOCTYPE svg PUBLIC "-//W3C//DTD SVG 1.1//EN"
 "http://www.w3.org/Graphics/SVG/1.1/DTD/svg11.dtd">
<!-- Generated by graphviz version 2.47.2 (20210527.1257)
 -->
<!-- Pages: 1 -->
<svg width="806pt" height="332pt"
 viewBox="0.00 0.00 805.50 332.00" xmlns="http://www.w3.org/2000/svg" xmlns:xlink="http://www.w3.org/1999/xlink">
<g id="graph0" class="graph" transform="scale(1 1) rotate(0) translate(4 328)">
<polygon fill="white" stroke="transparent" points="-4,4 -4,-328 801.5,-328 801.5,4 -4,4"/>
<!-- file -->
<g id="node1" class="node">
<title>file</title>
<polygon fill="none" stroke="black" points="639.5,-324 472.5,-324 472.5,-288 639.5,-288 639.5,-324"/>
<text text-anchor="middle" x="556" y="-302.3" font-family="Times-Roman" font-size="14.00">123456&#45;123457.hdf5</text>
</g>
<!-- run1 -->
<g id="node2" class="node">
<title>run1</title>
<polygon fill="none" stroke="black" points="547,-252 445,-252 445,-216 547,-216 547,-252"/>
<text text-anchor="middle" x="496" y="-230.3" font-family="Times-Roman" font-size="14.00">Run 123456</text>
</g>
<!-- file&#45;&#45;run1 -->
<g id="edge1" class="edge">
<title>file&#45;&#45;run1</title>
<path fill="none" stroke="black" d="M541.17,-287.7C531.87,-276.85 519.93,-262.92 510.66,-252.1"/>
</g>
<!-- run2 -->
<g id="node3" class="node">
<title>run2</title>
<polygon fill="none" stroke="black" points="688,-252 586,-252 586,-216 688,-216 688,-252"/>
<text text-anchor="middle" x="637" y="-230.3" font-family="Times-Roman" font-size="14.00">Run 123457</text>
</g>
<!-- file&#45;&#45;run2 -->
<g id="edge10" class="edge">
<title>file&#45;&#45;run2</title>
<path fill="none" stroke="black" d="M576.02,-287.7C588.58,-276.85 604.7,-262.92 617.21,-252.1"/>
</g>
<!-- bank1 -->
<g id="node4" class="node">
<title>bank1</title>
<polygon fill="none" stroke="black" points="402.5,-180 337.5,-180 337.5,-144 402.5,-144 402.5,-180"/>
<text text-anchor="middle" x="370" y="-158.3" font-family="Times-Roman" font-size="14.00">Bank 1</text>
</g>
<!-- run1&#45;&#45;bank1 -->
<g id="edge2" class="edge">
<title>run1&#45;&#45;bank1</title>
<path fill="none" stroke="black" d="M465.18,-215.88C445.65,-205.03 420.49,-191.05 400.94,-180.19"/>
</g>
<!-- bank2 -->
<g id="node10" class="node">
<title>bank2</title>
<polygon fill="none" stroke="black" points="528.5,-180 463.5,-180 463.5,-144 528.5,-144 528.5,-180"/>
<text text-anchor="middle" x="496" y="-158.3" font-family="Times-Roman" font-size="14.00">Bank 2</text>
</g>
<!-- run1&#45;&#45;bank2 -->
<g id="edge8" class="edge">
<title>run1&#45;&#45;bank2</title>
<path fill="none" stroke="black" d="M496,-215.7C496,-204.85 496,-190.92 496,-180.1"/>
</g>
<!-- bank3 -->
<g id="node12" class="node">
<title>bank3</title>
<polygon fill="none" stroke="black" points="712.5,-180 647.5,-180 647.5,-144 712.5,-144 712.5,-180"/>
<text text-anchor="middle" x="680" y="-158.3" font-family="Times-Roman" font-size="14.00">Bank 1</text>
</g>
<!-- run2&#45;&#45;bank3 -->
<g id="edge11" class="edge">
<title>run2&#45;&#45;bank3</title>
<path fill="none" stroke="black" d="M647.63,-215.7C654.29,-204.85 662.85,-190.92 669.49,-180.1"/>
</g>
<!-- fitgroup1 -->
<g id="node5" class="node">
<title>fitgroup1</title>
<polygon fill="none" stroke="black" points="385,-108 269,-108 269,-72 385,-72 385,-108"/>
<text text-anchor="middle" x="327" y="-86.3" font-family="Times-Roman" font-size="14.00">GSAS&#45;II Fitting</text>
</g>
<!-- bank1&#45;&#45;fitgroup1 -->
<g id="edge3" class="edge">
<title>bank1&#45;&#45;fitgroup1</title>
<path fill="none" stroke="black" d="M359.37,-143.7C352.71,-132.85 344.15,-118.92 337.51,-108.1"/>
</g>
<!-- latticeparams1 -->
<g id="node6" class="node">
<title>latticeparams1</title>
<polygon fill="none" stroke="black" points="146,-36 0,-36 0,0 146,0 146,-36"/>
<text text-anchor="middle" x="73" y="-14.3" font-family="Times-Roman" font-size="14.00">Lattice Parameters</text>
</g>
<!-- fitgroup1&#45;&#45;latticeparams1 -->
<g id="edge4" class="edge">
<title>fitgroup1&#45;&#45;latticeparams1</title>
<path fill="none" stroke="black" d="M268.73,-72.94C228.74,-61.92 175.75,-47.32 134.99,-36.08"/>
</g>
<!-- profcoeffs1 -->
<g id="node7" class="node">
<title>profcoeffs1</title>
<polygon fill="none" stroke="black" points="309.5,-36 164.5,-36 164.5,0 309.5,0 309.5,-36"/>
<text text-anchor="middle" x="237" y="-14.3" font-family="Times-Roman" font-size="14.00">Profile Coefficients</text>
</g>
<!-- fitgroup1&#45;&#45;profcoeffs1 -->
<g id="edge5" class="edge">
<title>fitgroup1&#45;&#45;profcoeffs1</title>
<path fill="none" stroke="black" d="M304.75,-71.7C290.8,-60.85 272.89,-46.92 258.99,-36.1"/>
</g>
<!-- refineparams1 -->
<g id="node8" class="node">
<title>refineparams1</title>
<polygon fill="none" stroke="black" points="506.5,-36 327.5,-36 327.5,0 506.5,0 506.5,-36"/>
<text text-anchor="middle" x="417" y="-14.3" font-family="Times-Roman" font-size="14.00">Refinement Parameters</text>
</g>
<!-- fitgroup1&#45;&#45;refineparams1 -->
<g id="edge6" class="edge">
<title>fitgroup1&#45;&#45;refineparams1</title>
<path fill="none" stroke="black" d="M349.25,-71.7C363.2,-60.85 381.11,-46.92 395.01,-36.1"/>
</g>
<!-- rwp1 -->
<g id="node9" class="node">
<title>rwp1</title>
<polygon fill="none" stroke="black" points="579,-36 525,-36 525,0 579,0 579,-36"/>
<text text-anchor="middle" x="552" y="-14.3" font-family="Times-Roman" font-size="14.00">Rwp</text>
</g>
<!-- fitgroup1&#45;&#45;rwp1 -->
<g id="edge7" class="edge">
<title>fitgroup1&#45;&#45;rwp1</title>
<path fill="none" stroke="black" d="M385.19,-73.66C431.09,-61.36 491.21,-44.76 515,-36 518.18,-34.83 521.48,-33.5 524.72,-32.11"/>
</g>
<!-- fitgroup2 -->
<g id="node11" class="node">
<title>fitgroup2</title>
<polygon fill="none" stroke="black" points="588.5,-108 403.5,-108 403.5,-72 588.5,-72 588.5,-108"/>
<text text-anchor="middle" x="496" y="-86.3" font-family="Times-Roman" font-size="14.00">Fit results, as for Bank 1</text>
</g>
<!-- bank2&#45;&#45;fitgroup2 -->
<g id="edge9" class="edge">
<title>bank2&#45;&#45;fitgroup2</title>
<path fill="none" stroke="black" d="M496,-143.7C496,-132.85 496,-118.92 496,-108.1"/>
</g>
<!-- fitgroup3 -->
<g id="node13" class="node">
<title>fitgroup3</title>
<polygon fill="none" stroke="black" points="797.5,-108 606.5,-108 606.5,-72 797.5,-72 797.5,-108"/>
<text text-anchor="middle" x="702" y="-86.3" font-family="Times-Roman" font-size="14.00">Fit results, as for 123456</text>
</g>
<!-- bank3&#45;&#45;fitgroup3 -->
<g id="edge12" class="edge">
<title>bank3&#45;&#45;fitgroup3</title>
<path fill="none" stroke="black" d="M685.44,-143.7C688.85,-132.85 693.23,-118.92 696.62,-108.1"/>
</g>
</g>
</svg>
