<?xml version="1.0" encoding="UTF-8" standalone="no"?>
<!DOCTYPE svg PUBLIC "-//W3C//DTD SVG 1.1//EN"
 "http://www.w3.org/Graphics/SVG/1.1/DTD/svg11.dtd">
<!-- Generated by graphviz version 7.0.5 (20221231.0122)
 -->
<!-- Pages: 1 -->
<svg width="503pt" height="260pt"
 viewBox="0.00 0.00 503.00 260.00" xmlns="http://www.w3.org/2000/svg" xmlns:xlink="http://www.w3.org/1999/xlink">
<g id="graph0" class="graph" transform="scale(1 1) rotate(0) translate(4 256)">
<polygon fill="white" stroke="none" points="-4,4 -4,-256 499,-256 499,4 -4,4"/>
<!-- file -->
<g id="node1" class="node">
<title>file</title>
<polygon fill="none" stroke="black" points="391.5,-252 225.5,-252 225.5,-216 391.5,-216 391.5,-252"/>
<text text-anchor="middle" x="308.5" y="-230.3" font-family="Times,serif" font-size="14.00">123456&#45;123457.hdf5</text>
</g>
<!-- run1 -->
<g id="node2" class="node">
<title>run1</title>
<polygon fill="none" stroke="black" points="299.5,-180 195.5,-180 195.5,-144 299.5,-144 299.5,-180"/>
<text text-anchor="middle" x="247.5" y="-158.3" font-family="Times,serif" font-size="14.00">Run 123456</text>
</g>
<!-- file&#45;&#45;run1 -->
<g id="edge1" class="edge">
<title>file&#45;&#45;run1</title>
<path fill="none" stroke="black" d="M293.42,-215.7C283.97,-204.85 271.83,-190.92 262.41,-180.1"/>
</g>
<!-- run2 -->
<g id="node3" class="node">
<title>run2</title>
<polygon fill="none" stroke="black" points="433.5,-180 329.5,-180 329.5,-144 433.5,-144 433.5,-180"/>
<text text-anchor="middle" x="381.5" y="-158.3" font-family="Times,serif" font-size="14.00">Run 123457</text>
</g>
<!-- file&#45;&#45;run2 -->
<g id="edge6" class="edge">
<title>file&#45;&#45;run2</title>
<path fill="none" stroke="black" d="M326.54,-215.7C337.78,-204.93 352.17,-191.12 363.41,-180.35"/>
</g>
<!-- bank1 -->
<g id="node4" class="node">
<title>bank1</title>
<polygon fill="none" stroke="black" points="152.5,-108 86.5,-108 86.5,-72 152.5,-72 152.5,-108"/>
<text text-anchor="middle" x="119.5" y="-86.3" font-family="Times,serif" font-size="14.00">Bank 1</text>
</g>
<!-- run1&#45;&#45;bank1 -->
<g id="edge2" class="edge">
<title>run1&#45;&#45;bank1</title>
<path fill="none" stroke="black" d="M215.53,-143.52C195.83,-132.74 170.68,-118.99 151.06,-108.26"/>
</g>
<!-- bank2 -->
<g id="node5" class="node">
<title>bank2</title>
<polygon fill="none" stroke="black" points="280.5,-108 214.5,-108 214.5,-72 280.5,-72 280.5,-108"/>
<text text-anchor="middle" x="247.5" y="-86.3" font-family="Times,serif" font-size="14.00">Bank 2</text>
</g>
<!-- run1&#45;&#45;bank2 -->
<g id="edge4" class="edge">
<title>run1&#45;&#45;bank2</title>
<path fill="none" stroke="black" d="M247.5,-143.7C247.5,-132.85 247.5,-118.92 247.5,-108.1"/>
</g>
<!-- bank3 -->
<g id="node6" class="node">
<title>bank3</title>
<polygon fill="none" stroke="black" points="436.5,-108 374.5,-108 374.5,-72 436.5,-72 436.5,-108"/>
<text text-anchor="middle" x="405.5" y="-86.3" font-family="Times,serif" font-size="14.00">Bank1</text>
</g>
<!-- run2&#45;&#45;bank3 -->
<g id="edge7" class="edge">
<title>run2&#45;&#45;bank3</title>
<path fill="none" stroke="black" d="M387.43,-143.7C391.15,-132.85 395.93,-118.92 399.64,-108.1"/>
</g>
<!-- fitgroup1 -->
<g id="node7" class="node">
<title>fitgroup1</title>
<polygon fill="none" stroke="black" points="153,-36 0,-36 0,0 153,0 153,-36"/>
<text text-anchor="middle" x="76.5" y="-14.3" font-family="Times,serif" font-size="14.00">Single Peak Fitting</text>
</g>
<!-- bank1&#45;&#45;fitgroup1 -->
<g id="edge3" class="edge">
<title>bank1&#45;&#45;fitgroup1</title>
<path fill="none" stroke="black" d="M108.87,-71.7C102.21,-60.85 93.65,-46.92 87.01,-36.1"/>
</g>
<!-- fitgroup2 -->
<g id="node8" class="node">
<title>fitgroup2</title>
<polygon fill="none" stroke="black" points="324,-36 171,-36 171,0 324,0 324,-36"/>
<text text-anchor="middle" x="247.5" y="-14.3" font-family="Times,serif" font-size="14.00">Single Peak Fitting</text>
</g>
<!-- bank2&#45;&#45;fitgroup2 -->
<g id="edge5" class="edge">
<title>bank2&#45;&#45;fitgroup2</title>
<path fill="none" stroke="black" d="M247.5,-71.7C247.5,-60.85 247.5,-46.92 247.5,-36.1"/>
</g>
<!-- fitgroup3 -->
<g id="node9" class="node">
<title>fitgroup3</title>
<polygon fill="none" stroke="black" points="495,-36 342,-36 342,0 495,0 495,-36"/>
<text text-anchor="middle" x="418.5" y="-14.3" font-family="Times,serif" font-size="14.00">Single Peak Fitting</text>
</g>
<!-- bank3&#45;&#45;fitgroup3 -->
<g id="edge8" class="edge">
<title>bank3&#45;&#45;fitgroup3</title>
<path fill="none" stroke="black" d="M408.71,-71.7C410.73,-60.85 413.32,-46.92 415.32,-36.1"/>
</g>
</g>
</svg>
