<?xml version="1.0" encoding="UTF-8" standalone="no"?>
<!DOCTYPE svg PUBLIC "-//W3C//DTD SVG 1.1//EN"
 "http://www.w3.org/Graphics/SVG/1.1/DTD/svg11.dtd">
<!-- Generated by graphviz version 2.47.2 (20210527.1257)
 -->
<!-- Pages: 1 -->
<svg width="476pt" height="260pt"
 viewBox="0.00 0.00 476.00 260.00" xmlns="http://www.w3.org/2000/svg" xmlns:xlink="http://www.w3.org/1999/xlink">
<g id="graph0" class="graph" transform="scale(1 1) rotate(0) translate(4 256)">
<polygon fill="white" stroke="transparent" points="-4,4 -4,-256 472,-256 472,4 -4,4"/>
<!-- file -->
<g id="node1" class="node">
<title>file</title>
<polygon fill="none" stroke="black" points="377.5,-252 210.5,-252 210.5,-216 377.5,-216 377.5,-252"/>
<text text-anchor="middle" x="294" y="-230.3" font-family="Times-Roman" font-size="14.00">123456&#45;123457.hdf5</text>
</g>
<!-- run1 -->
<g id="node2" class="node">
<title>run1</title>
<polygon fill="none" stroke="black" points="285,-180 183,-180 183,-144 285,-144 285,-180"/>
<text text-anchor="middle" x="234" y="-158.3" font-family="Times-Roman" font-size="14.00">Run 123456</text>
</g>
<!-- file&#45;&#45;run1 -->
<g id="edge1" class="edge">
<title>file&#45;&#45;run1</title>
<path fill="none" stroke="black" d="M279.17,-215.7C269.87,-204.85 257.93,-190.92 248.66,-180.1"/>
</g>
<!-- run2 -->
<g id="node3" class="node">
<title>run2</title>
<polygon fill="none" stroke="black" points="415,-180 313,-180 313,-144 415,-144 415,-180"/>
<text text-anchor="middle" x="364" y="-158.3" font-family="Times-Roman" font-size="14.00">Run 123457</text>
</g>
<!-- file&#45;&#45;run2 -->
<g id="edge6" class="edge">
<title>file&#45;&#45;run2</title>
<path fill="none" stroke="black" d="M311.3,-215.7C322.15,-204.85 336.08,-190.92 346.9,-180.1"/>
</g>
<!-- bank1 -->
<g id="node4" class="node">
<title>bank1</title>
<polygon fill="none" stroke="black" points="143.5,-108 78.5,-108 78.5,-72 143.5,-72 143.5,-108"/>
<text text-anchor="middle" x="111" y="-86.3" font-family="Times-Roman" font-size="14.00">Bank 1</text>
</g>
<!-- run1&#45;&#45;bank1 -->
<g id="edge2" class="edge">
<title>run1&#45;&#45;bank1</title>
<path fill="none" stroke="black" d="M203.91,-143.88C184.85,-133.03 160.29,-119.05 141.2,-108.19"/>
</g>
<!-- bank2 -->
<g id="node5" class="node">
<title>bank2</title>
<polygon fill="none" stroke="black" points="266.5,-108 201.5,-108 201.5,-72 266.5,-72 266.5,-108"/>
<text text-anchor="middle" x="234" y="-86.3" font-family="Times-Roman" font-size="14.00">Bank 2</text>
</g>
<!-- run1&#45;&#45;bank2 -->
<g id="edge4" class="edge">
<title>run1&#45;&#45;bank2</title>
<path fill="none" stroke="black" d="M234,-143.7C234,-132.85 234,-118.92 234,-108.1"/>
</g>
<!-- bank3 -->
<g id="node6" class="node">
<title>bank3</title>
<polygon fill="none" stroke="black" points="415.5,-108 354.5,-108 354.5,-72 415.5,-72 415.5,-108"/>
<text text-anchor="middle" x="385" y="-86.3" font-family="Times-Roman" font-size="14.00">Bank1</text>
</g>
<!-- run2&#45;&#45;bank3 -->
<g id="edge7" class="edge">
<title>run2&#45;&#45;bank3</title>
<path fill="none" stroke="black" d="M369.19,-143.7C372.45,-132.85 376.62,-118.92 379.87,-108.1"/>
</g>
<!-- fitgroup1 -->
<g id="node7" class="node">
<title>fitgroup1</title>
<polygon fill="none" stroke="black" points="144,-36 0,-36 0,0 144,0 144,-36"/>
<text text-anchor="middle" x="72" y="-14.3" font-family="Times-Roman" font-size="14.00">Single Peak Fitting</text>
</g>
<!-- bank1&#45;&#45;fitgroup1 -->
<g id="edge3" class="edge">
<title>bank1&#45;&#45;fitgroup1</title>
<path fill="none" stroke="black" d="M101.36,-71.7C95.31,-60.85 87.55,-46.92 81.53,-36.1"/>
</g>
<!-- fitgroup2 -->
<g id="node8" class="node">
<title>fitgroup2</title>
<polygon fill="none" stroke="black" points="306,-36 162,-36 162,0 306,0 306,-36"/>
<text text-anchor="middle" x="234" y="-14.3" font-family="Times-Roman" font-size="14.00">Single Peak Fitting</text>
</g>
<!-- bank2&#45;&#45;fitgroup2 -->
<g id="edge5" class="edge">
<title>bank2&#45;&#45;fitgroup2</title>
<path fill="none" stroke="black" d="M234,-71.7C234,-60.85 234,-46.92 234,-36.1"/>
</g>
<!-- fitgroup3 -->
<g id="node9" class="node">
<title>fitgroup3</title>
<polygon fill="none" stroke="black" points="468,-36 324,-36 324,0 468,0 468,-36"/>
<text text-anchor="middle" x="396" y="-14.3" font-family="Times-Roman" font-size="14.00">Single Peak Fitting</text>
</g>
<!-- bank3&#45;&#45;fitgroup3 -->
<g id="edge8" class="edge">
<title>bank3&#45;&#45;fitgroup3</title>
<path fill="none" stroke="black" d="M387.72,-71.7C389.42,-60.85 391.61,-46.92 393.31,-36.1"/>
</g>
</g>
</svg>
