<?xml version="1.0" encoding="UTF-8" standalone="no"?>
<!DOCTYPE svg PUBLIC "-//W3C//DTD SVG 1.1//EN"
 "http://www.w3.org/Graphics/SVG/1.1/DTD/svg11.dtd">
<!-- Generated by graphviz version 2.47.2 (20210527.1257)
 -->
<!-- Title: HB3AWorkflow Pages: 1 -->
<svg width="297pt" height="328pt"
 viewBox="0.00 0.00 297.00 328.00" xmlns="http://www.w3.org/2000/svg" xmlns:xlink="http://www.w3.org/1999/xlink">
<g id="graph0" class="graph" transform="scale(1 1) rotate(0) translate(4 324)">
<title>HB3AWorkflow</title>
<polygon fill="white" stroke="transparent" points="-4,4 -4,-324 293,-324 293,4 -4,4"/>
<text text-anchor="middle" x="144.5" y="-304.8" font-family="Helvetica" font-size="14.00">HB3A Workflow</text>
<!-- HB3AAdjustSampleNorm -->
<g id="node1" class="node">
<title>HB3AAdjustSampleNorm</title>
<path fill="lightskyblue" stroke="black" d="M262,-297C262,-297 116,-297 116,-297 110,-297 104,-291 104,-285 104,-285 104,-273 104,-273 104,-267 110,-261 116,-261 116,-261 262,-261 262,-261 268,-261 274,-267 274,-273 274,-273 274,-285 274,-285 274,-291 268,-297 262,-297"/>
<text text-anchor="middle" x="189" y="-275.3" font-family="Helvetica" font-size="14.00">HB3AAdjustSampleNorm</text>
</g>
<!-- HB3AFindPeaks -->
<g id="node2" class="node">
<title>HB3AFindPeaks</title>
<path fill="lightskyblue" stroke="black" d="M104,-210C104,-210 12,-210 12,-210 6,-210 0,-204 0,-198 0,-198 0,-186 0,-186 0,-180 6,-174 12,-174 12,-174 104,-174 104,-174 110,-174 116,-180 116,-186 116,-186 116,-198 116,-198 116,-204 110,-210 104,-210"/>
<text text-anchor="middle" x="58" y="-188.3" font-family="Helvetica" font-size="14.00">HB3AFindPeaks</text>
</g>
<!-- HB3AAdjustSampleNorm&#45;&gt;HB3AFindPeaks -->
<g id="edge1" class="edge">
<title>HB3AAdjustSampleNorm&#45;&gt;HB3AFindPeaks</title>
<path fill="none" stroke="black" d="M146.57,-260.83C135.62,-255.69 124.08,-249.64 114,-243 102.78,-235.6 91.51,-226.05 82.05,-217.28"/>
<polygon fill="black" stroke="black" points="84.23,-214.53 74.58,-210.16 79.41,-219.59 84.23,-214.53"/>
<text text-anchor="middle" x="128.5" y="-231.8" font-family="Helvetica" font-size="14.00">Data</text>
</g>
<!-- HB3APredictPeaks -->
<g id="node3" class="node">
<title>HB3APredictPeaks</title>
<path fill="lightskyblue" stroke="black" d="M233.5,-123C233.5,-123 126.5,-123 126.5,-123 120.5,-123 114.5,-117 114.5,-111 114.5,-111 114.5,-99 114.5,-99 114.5,-93 120.5,-87 126.5,-87 126.5,-87 233.5,-87 233.5,-87 239.5,-87 245.5,-93 245.5,-99 245.5,-99 245.5,-111 245.5,-111 245.5,-117 239.5,-123 233.5,-123"/>
<text text-anchor="middle" x="180" y="-101.3" font-family="Helvetica" font-size="14.00">HB3APredictPeaks</text>
</g>
<!-- HB3AAdjustSampleNorm&#45;&gt;HB3APredictPeaks -->
<g id="edge2" class="edge">
<title>HB3AAdjustSampleNorm&#45;&gt;HB3APredictPeaks</title>
<path fill="none" stroke="black" d="M183.16,-260.92C178.83,-247.31 173.3,-227.68 171,-210 167.62,-184.02 170.93,-154.21 174.45,-133.19"/>
<polygon fill="black" stroke="black" points="177.89,-133.81 176.22,-123.35 171,-132.57 177.89,-133.81"/>
<text text-anchor="middle" x="185.5" y="-188.3" font-family="Helvetica" font-size="14.00">Data</text>
</g>
<!-- HB3AAdjustSampleNorm&#45;&gt;HB3APredictPeaks -->
<g id="edge3" class="edge">
<title>HB3AAdjustSampleNorm&#45;&gt;HB3APredictPeaks</title>
<path fill="none" stroke="black" d="M193.46,-260.65C198.18,-239.97 204.37,-204.37 200,-174 198,-160.11 193.81,-145.1 189.78,-132.72"/>
<polygon fill="black" stroke="black" points="193.02,-131.37 186.49,-123.03 186.39,-133.62 193.02,-131.37"/>
<text text-anchor="middle" x="211.5" y="-188.3" font-family="Helvetica" font-size="14.00">UB</text>
</g>
<!-- HB3AIntegratePeaks -->
<g id="node4" class="node">
<title>HB3AIntegratePeaks</title>
<path fill="lightskyblue" stroke="black" d="M239.5,-36C239.5,-36 120.5,-36 120.5,-36 114.5,-36 108.5,-30 108.5,-24 108.5,-24 108.5,-12 108.5,-12 108.5,-6 114.5,0 120.5,0 120.5,0 239.5,0 239.5,0 245.5,0 251.5,-6 251.5,-12 251.5,-12 251.5,-24 251.5,-24 251.5,-30 245.5,-36 239.5,-36"/>
<text text-anchor="middle" x="180" y="-14.3" font-family="Helvetica" font-size="14.00">HB3AIntegratePeaks</text>
</g>
<!-- HB3AAdjustSampleNorm&#45;&gt;HB3AIntegratePeaks -->
<g id="edge4" class="edge">
<title>HB3AAdjustSampleNorm&#45;&gt;HB3AIntegratePeaks</title>
<path fill="none" stroke="black" d="M203.32,-260.88C229.71,-227.15 281.05,-149.88 255,-87 247.45,-68.78 232.11,-53.46 217.26,-42.01"/>
<polygon fill="black" stroke="black" points="219.25,-39.13 209.11,-36.05 215.11,-44.78 219.25,-39.13"/>
<text text-anchor="middle" x="274.5" y="-144.8" font-family="Helvetica" font-size="14.00">Data</text>
</g>
<!-- HB3AFindPeaks&#45;&gt;HB3APredictPeaks -->
<g id="edge5" class="edge">
<title>HB3AFindPeaks&#45;&gt;HB3APredictPeaks</title>
<path fill="none" stroke="black" d="M79.64,-173.83C92.35,-163.94 108.85,-151.44 124,-141 130.04,-136.84 136.55,-132.57 142.93,-128.52"/>
<polygon fill="black" stroke="black" points="144.88,-131.42 151.48,-123.14 141.15,-125.5 144.88,-131.42"/>
<text text-anchor="middle" x="133.5" y="-144.8" font-family="Helvetica" font-size="14.00">UB</text>
</g>
<!-- HB3AFindPeaks&#45;&gt;HB3AIntegratePeaks -->
<g id="edge7" class="edge">
<title>HB3AFindPeaks&#45;&gt;HB3AIntegratePeaks</title>
<path fill="none" stroke="black" d="M54.99,-173.68C52.13,-151.74 50.41,-113.6 67,-87 79.82,-66.44 101.36,-51.26 122.21,-40.52"/>
<polygon fill="black" stroke="black" points="123.94,-43.57 131.39,-36.04 120.87,-37.28 123.94,-43.57"/>
<text text-anchor="middle" x="86" y="-101.3" font-family="Helvetica" font-size="14.00">Peaks</text>
</g>
<!-- HB3APredictPeaks&#45;&gt;HB3AIntegratePeaks -->
<g id="edge6" class="edge">
<title>HB3APredictPeaks&#45;&gt;HB3AIntegratePeaks</title>
<path fill="none" stroke="black" d="M180,-86.8C180,-75.16 180,-59.55 180,-46.24"/>
<polygon fill="black" stroke="black" points="183.5,-46.18 180,-36.18 176.5,-46.18 183.5,-46.18"/>
<text text-anchor="middle" x="199" y="-57.8" font-family="Helvetica" font-size="14.00">Peaks</text>
</g>
</g>
</svg>
