<?xml version="1.0" encoding="UTF-8" standalone="no"?>
<!DOCTYPE svg PUBLIC "-//W3C//DTD SVG 1.1//EN"
 "http://www.w3.org/Graphics/SVG/1.1/DTD/svg11.dtd">
<!-- Generated by graphviz version 2.47.2 (20210527.1257)
 -->
<!-- Title: HB3AReduction Pages: 1 -->
<svg width="1043pt" height="1136pt"
 viewBox="0.00 0.00 1043.03 1136.00" xmlns="http://www.w3.org/2000/svg" xmlns:xlink="http://www.w3.org/1999/xlink">
<g id="graph0" class="graph" transform="scale(1 1) rotate(0) translate(4 1132)">
<title>HB3AReduction</title>
<polygon fill="white" stroke="transparent" points="-4,4 -4,-1132 1039.03,-1132 1039.03,4 -4,4"/>
<text text-anchor="middle" x="517.52" y="-1112.8" font-family="Helvetica" font-size="14.00">HB3A Data Reduction Flowchart</text>
<!-- ExperimentNumber -->
<g id="node1" class="node">
<title>ExperimentNumber</title>
<ellipse fill="khaki" stroke="black" cx="710.05" cy="-1087" rx="87.18" ry="18"/>
<text text-anchor="middle" x="710.05" y="-1083.3" font-family="Helvetica" font-size="14.00">ExperimentNumber</text>
</g>
<!-- downloadData -->
<g id="node5" class="node">
<title>downloadData</title>
<path fill="lightskyblue" stroke="black" d="M752.05,-1032C752.05,-1032 644.05,-1032 644.05,-1032 638.05,-1032 632.05,-1026 632.05,-1020 632.05,-1020 632.05,-1006 632.05,-1006 632.05,-1000 638.05,-994 644.05,-994 644.05,-994 752.05,-994 752.05,-994 758.05,-994 764.05,-1000 764.05,-1006 764.05,-1006 764.05,-1020 764.05,-1020 764.05,-1026 758.05,-1032 752.05,-1032"/>
<text text-anchor="middle" x="698.05" y="-1016.8" font-family="Helvetica" font-size="14.00">DownloadFile v1</text>
<text text-anchor="middle" x="698.05" y="-1001.8" font-family="Helvetica" font-size="14.00"> Spice file, XML file</text>
</g>
<!-- ExperimentNumber&#45;&gt;downloadData -->
<g id="edge1" class="edge">
<title>ExperimentNumber&#45;&gt;downloadData</title>
<path fill="none" stroke="black" d="M707.2,-1068.94C705.88,-1060.99 704.27,-1051.31 702.77,-1042.31"/>
<polygon fill="black" stroke="black" points="706.18,-1041.49 701.08,-1032.2 699.27,-1042.64 706.18,-1041.49"/>
</g>
<!-- collectExpInfo2 -->
<g id="node10" class="node">
<title>collectExpInfo2</title>
<path fill="lightskyblue" stroke="#ee8262" d="M973.55,-1031C973.55,-1031 794.55,-1031 794.55,-1031 788.55,-1031 782.55,-1025 782.55,-1019 782.55,-1019 782.55,-1007 782.55,-1007 782.55,-1001 788.55,-995 794.55,-995 794.55,-995 973.55,-995 973.55,-995 979.55,-995 985.55,-1001 985.55,-1007 985.55,-1007 985.55,-1019 985.55,-1019 985.55,-1025 979.55,-1031 973.55,-1031"/>
<text text-anchor="middle" x="884.05" y="-1009.3" font-family="Helvetica" font-size="14.00">CollectHB3AExperimentInfo v1</text>
</g>
<!-- ExperimentNumber&#45;&gt;collectExpInfo2 -->
<g id="edge24" class="edge">
<title>ExperimentNumber&#45;&gt;collectExpInfo2</title>
<path fill="none" stroke="black" d="M747.37,-1070.55C772.47,-1060.17 805.87,-1046.35 833.37,-1034.97"/>
<polygon fill="black" stroke="black" points="834.92,-1038.12 842.82,-1031.06 832.25,-1031.65 834.92,-1038.12"/>
</g>
<!-- PtNumberList -->
<g id="node2" class="node">
<title>PtNumberList</title>
<ellipse fill="khaki" stroke="black" cx="881.05" cy="-1087" rx="64.19" ry="18"/>
<text text-anchor="middle" x="881.05" y="-1083.3" font-family="Helvetica" font-size="14.00">PtNumberList</text>
</g>
<!-- PtNumberList&#45;&gt;downloadData -->
<g id="edge2" class="edge">
<title>PtNumberList&#45;&gt;downloadData</title>
<path fill="none" stroke="black" d="M845.33,-1071.95C819.24,-1061.68 783.36,-1047.56 753.54,-1035.84"/>
<polygon fill="black" stroke="black" points="754.68,-1032.52 744.1,-1032.12 752.12,-1039.04 754.68,-1032.52"/>
</g>
<!-- PtNumberList&#45;&gt;collectExpInfo2 -->
<g id="edge25" class="edge">
<title>PtNumberList&#45;&gt;collectExpInfo2</title>
<path fill="none" stroke="black" d="M881.76,-1068.94C882.1,-1060.81 882.51,-1050.88 882.89,-1041.7"/>
<polygon fill="black" stroke="black" points="886.4,-1041.58 883.32,-1031.44 879.41,-1041.29 886.4,-1041.58"/>
</g>
<!-- OutputWorkspace -->
<g id="node3" class="node">
<title>OutputWorkspace</title>
<ellipse fill="khaki" stroke="black" cx="248.05" cy="-683" rx="81.49" ry="18"/>
<text text-anchor="middle" x="248.05" y="-679.3" font-family="Helvetica" font-size="14.00">OutputWorkspace</text>
</g>
<!-- isOutputHKL -->
<g id="node4" class="node">
<title>isOutputHKL</title>
<polygon fill="limegreen" stroke="black" points="887.05,-882 739.08,-864 887.05,-846 1035.02,-864 887.05,-882"/>
<text text-anchor="middle" x="887.05" y="-860.3" font-family="Helvetica" font-size="14.00">Is output in HKL&#45;space?</text>
</g>
<!-- convert2HKL -->
<g id="node19" class="node">
<title>convert2HKL</title>
<path fill="lightskyblue" stroke="#ee8262" d="M930.55,-774C930.55,-774 771.55,-774 771.55,-774 765.55,-774 759.55,-768 759.55,-762 759.55,-762 759.55,-750 759.55,-750 759.55,-744 765.55,-738 771.55,-738 771.55,-738 930.55,-738 930.55,-738 936.55,-738 942.55,-744 942.55,-750 942.55,-750 942.55,-762 942.55,-762 942.55,-768 936.55,-774 930.55,-774"/>
<text text-anchor="middle" x="851.05" y="-752.3" font-family="Helvetica" font-size="14.00">ConvertCWSDMDtoHKL v1</text>
</g>
<!-- isOutputHKL&#45;&gt;convert2HKL -->
<g id="edge28" class="edge">
<title>isOutputHKL&#45;&gt;convert2HKL</title>
<path fill="none" stroke="black" d="M881.94,-846.58C877.41,-832.15 870.51,-810.6 864.05,-792 863.09,-789.24 862.07,-786.38 861.03,-783.52"/>
<polygon fill="black" stroke="black" points="864.28,-782.21 857.54,-774.04 857.71,-784.63 864.28,-782.21"/>
<text text-anchor="middle" x="887.55" y="-806.3" font-family="Helvetica" font-size="14.00">Yes</text>
</g>
<!-- mergeMD -->
<g id="node20" class="node">
<title>mergeMD</title>
<path fill="lightskyblue" stroke="#ee8262" d="M987.55,-701C987.55,-701 916.55,-701 916.55,-701 910.55,-701 904.55,-695 904.55,-689 904.55,-689 904.55,-677 904.55,-677 904.55,-671 910.55,-665 916.55,-665 916.55,-665 987.55,-665 987.55,-665 993.55,-665 999.55,-671 999.55,-677 999.55,-677 999.55,-689 999.55,-689 999.55,-695 993.55,-701 987.55,-701"/>
<text text-anchor="middle" x="952.05" y="-679.3" font-family="Helvetica" font-size="14.00">MergeMD v1</text>
</g>
<!-- isOutputHKL&#45;&gt;mergeMD -->
<g id="edge30" class="edge">
<title>isOutputHKL&#45;&gt;mergeMD</title>
<path fill="none" stroke="black" d="M902.71,-847.66C918.35,-831.15 941.43,-803.29 951.05,-774 957.73,-753.65 957.54,-729.28 955.93,-711.04"/>
<polygon fill="black" stroke="black" points="959.4,-710.65 954.85,-701.08 952.44,-711.4 959.4,-710.65"/>
<text text-anchor="middle" x="966.05" y="-752.3" font-family="Helvetica" font-size="14.00">No</text>
</g>
<!-- loadSpiceFile -->
<g id="node7" class="node">
<title>loadSpiceFile</title>
<path fill="lightskyblue" stroke="black" d="M741.55,-956C741.55,-956 638.55,-956 638.55,-956 632.55,-956 626.55,-950 626.55,-944 626.55,-944 626.55,-932 626.55,-932 626.55,-926 632.55,-920 638.55,-920 638.55,-920 741.55,-920 741.55,-920 747.55,-920 753.55,-926 753.55,-932 753.55,-932 753.55,-944 753.55,-944 753.55,-950 747.55,-956 741.55,-956"/>
<text text-anchor="middle" x="690.05" y="-934.3" font-family="Helvetica" font-size="14.00">LoadSpiceAscii v1</text>
</g>
<!-- downloadData&#45;&gt;loadSpiceFile -->
<g id="edge3" class="edge">
<title>downloadData&#45;&gt;loadSpiceFile</title>
<path fill="none" stroke="black" d="M696.07,-993.96C695.15,-985.61 694.05,-975.52 693.04,-966.28"/>
<polygon fill="black" stroke="black" points="696.51,-965.89 691.95,-956.33 689.56,-966.66 696.51,-965.89"/>
</g>
<!-- viewRawData -->
<g id="node6" class="node">
<title>viewRawData</title>
<path fill="lightskyblue" stroke="black" d="M292.55,-774C292.55,-774 203.55,-774 203.55,-774 197.55,-774 191.55,-768 191.55,-762 191.55,-762 191.55,-750 191.55,-750 191.55,-744 197.55,-738 203.55,-738 203.55,-738 292.55,-738 292.55,-738 298.55,-738 304.55,-744 304.55,-750 304.55,-750 304.55,-762 304.55,-762 304.55,-768 298.55,-774 292.55,-774"/>
<text text-anchor="middle" x="248.05" y="-752.3" font-family="Helvetica" font-size="14.00">View data (GUI)</text>
</g>
<!-- viewRawData&#45;&gt;OutputWorkspace -->
<g id="edge35" class="edge">
<title>viewRawData&#45;&gt;OutputWorkspace</title>
<path fill="none" stroke="black" d="M248.05,-737.81C248.05,-729.79 248.05,-720.05 248.05,-711.07"/>
<polygon fill="black" stroke="black" points="251.55,-711.03 248.05,-701.03 244.55,-711.03 251.55,-711.03"/>
</g>
<!-- loadDetFile -->
<g id="node8" class="node">
<title>loadDetFile</title>
<path fill="lightskyblue" stroke="black" d="M575.55,-882C575.55,-882 434.55,-882 434.55,-882 428.55,-882 422.55,-876 422.55,-870 422.55,-870 422.55,-858 422.55,-858 422.55,-852 428.55,-846 434.55,-846 434.55,-846 575.55,-846 575.55,-846 581.55,-846 587.55,-852 587.55,-858 587.55,-858 587.55,-870 587.55,-870 587.55,-876 581.55,-882 575.55,-882"/>
<text text-anchor="middle" x="505.05" y="-860.3" font-family="Helvetica" font-size="14.00">LoadSpiceXML2DDet v1</text>
</g>
<!-- loadSpiceFile&#45;&gt;loadDetFile -->
<g id="edge4" class="edge">
<title>loadSpiceFile&#45;&gt;loadDetFile</title>
<path fill="none" stroke="black" d="M646.2,-919.94C619.92,-909.71 586.31,-896.63 558.48,-885.79"/>
<polygon fill="black" stroke="black" points="559.48,-882.43 548.89,-882.07 556.94,-888.95 559.48,-882.43"/>
</g>
<!-- spiceTable -->
<g id="node23" class="node">
<title>spiceTable</title>
<polygon fill="grey" stroke="black" points="860.05,-828 602.34,-828 536.05,-792 793.75,-792 860.05,-828"/>
<text text-anchor="middle" x="698.05" y="-806.3" font-family="Times-Roman" font-size="14.00">Spice TableWorkspace</text>
</g>
<!-- loadSpiceFile&#45;&gt;spiceTable -->
<g id="edge5" class="edge">
<title>loadSpiceFile&#45;&gt;spiceTable</title>
<path fill="none" stroke="black" d="M691.14,-919.74C692.48,-898.73 694.75,-862.97 696.32,-838.23"/>
<polygon fill="black" stroke="black" points="699.82,-838.25 696.96,-828.05 692.84,-837.81 699.82,-838.25"/>
</g>
<!-- loadDetFile&#45;&gt;viewRawData -->
<g id="edge6" class="edge">
<title>loadDetFile&#45;&gt;viewRawData</title>
<path fill="none" stroke="black" d="M463.76,-845.97C418.93,-827.48 347.29,-797.93 298.99,-778.01"/>
<polygon fill="black" stroke="black" points="300.24,-774.74 289.66,-774.16 297.57,-781.21 300.24,-774.74"/>
</g>
<!-- detMatrix -->
<g id="node22" class="node">
<title>detMatrix</title>
<polygon fill="grey" stroke="black" points="687.07,-774 397.51,-774 323.02,-738 612.58,-738 687.07,-774"/>
<text text-anchor="middle" x="505.05" y="-752.3" font-family="Times-Roman" font-size="14.00">Measurement Workspace</text>
</g>
<!-- loadDetFile&#45;&gt;detMatrix -->
<g id="edge7" class="edge">
<title>loadDetFile&#45;&gt;detMatrix</title>
<path fill="none" stroke="black" d="M505.05,-845.97C505.05,-829.38 505.05,-803.88 505.05,-784.43"/>
<polygon fill="black" stroke="black" points="508.55,-784.34 505.05,-774.34 501.55,-784.34 508.55,-784.34"/>
</g>
<!-- collectExpInfo -->
<g id="node9" class="node">
<title>collectExpInfo</title>
<path fill="lightskyblue" stroke="yellow" d="M746.55,-701C746.55,-701 567.55,-701 567.55,-701 561.55,-701 555.55,-695 555.55,-689 555.55,-689 555.55,-677 555.55,-677 555.55,-671 561.55,-665 567.55,-665 567.55,-665 746.55,-665 746.55,-665 752.55,-665 758.55,-671 758.55,-677 758.55,-677 758.55,-689 758.55,-689 758.55,-695 752.55,-701 746.55,-701"/>
<text text-anchor="middle" x="657.05" y="-679.3" font-family="Helvetica" font-size="14.00">CollectHB3AExperimentInfo v1</text>
</g>
<!-- convertToQ -->
<g id="node11" class="node">
<title>convertToQ</title>
<path fill="lightskyblue" stroke="yellow" d="M760.55,-628C760.55,-628 553.55,-628 553.55,-628 547.55,-628 541.55,-622 541.55,-616 541.55,-616 541.55,-602 541.55,-602 541.55,-596 547.55,-590 553.55,-590 553.55,-590 760.55,-590 760.55,-590 766.55,-590 772.55,-596 772.55,-602 772.55,-602 772.55,-616 772.55,-616 772.55,-622 766.55,-628 760.55,-628"/>
<text text-anchor="middle" x="657.05" y="-612.8" font-family="Helvetica" font-size="14.00">ConvertCWSDExpToMomentum v1</text>
<text text-anchor="middle" x="657.05" y="-597.8" font-family="Helvetica" font-size="14.00">Exp. Info. WS</text>
</g>
<!-- collectExpInfo&#45;&gt;convertToQ -->
<g id="edge10" class="edge">
<title>collectExpInfo&#45;&gt;convertToQ</title>
<path fill="none" stroke="black" d="M657.05,-664.94C657.05,-656.99 657.05,-647.31 657.05,-638.31"/>
<polygon fill="black" stroke="black" points="660.55,-638.2 657.05,-628.2 653.55,-638.2 660.55,-638.2"/>
</g>
<!-- convertToQ2 -->
<g id="node12" class="node">
<title>convertToQ2</title>
<path fill="lightskyblue" stroke="#ee8262" d="M990.55,-957C990.55,-957 783.55,-957 783.55,-957 777.55,-957 771.55,-951 771.55,-945 771.55,-945 771.55,-931 771.55,-931 771.55,-925 777.55,-919 783.55,-919 783.55,-919 990.55,-919 990.55,-919 996.55,-919 1002.55,-925 1002.55,-931 1002.55,-931 1002.55,-945 1002.55,-945 1002.55,-951 996.55,-957 990.55,-957"/>
<text text-anchor="middle" x="887.05" y="-941.8" font-family="Helvetica" font-size="14.00">ConvertCWSDExpToMomentum v1</text>
<text text-anchor="middle" x="887.05" y="-926.8" font-family="Helvetica" font-size="14.00">Exp. Info. WS</text>
</g>
<!-- collectExpInfo2&#45;&gt;convertToQ2 -->
<g id="edge26" class="edge">
<title>collectExpInfo2&#45;&gt;convertToQ2</title>
<path fill="none" stroke="black" d="M884.76,-994.7C885.09,-986.49 885.51,-976.47 885.89,-967.2"/>
<polygon fill="black" stroke="black" points="889.39,-967.33 886.3,-957.19 882.39,-967.04 889.39,-967.33"/>
</g>
<!-- expScanMD -->
<g id="node24" class="node">
<title>expScanMD</title>
<polygon fill="grey" stroke="black" points="831.32,-553 554.09,-553 482.77,-517 760,-517 831.32,-553"/>
<text text-anchor="middle" x="657.05" y="-531.3" font-family="Times-Roman" font-size="14.00">Exp&#45;scan MDWorkspace</text>
</g>
<!-- convertToQ&#45;&gt;expScanMD -->
<g id="edge11" class="edge">
<title>convertToQ&#45;&gt;expScanMD</title>
<path fill="none" stroke="black" d="M657.05,-589.83C657.05,-581.89 657.05,-572.41 657.05,-563.63"/>
<polygon fill="black" stroke="black" points="660.55,-563.42 657.05,-553.42 653.55,-563.42 660.55,-563.42"/>
</g>
<!-- convertToQ2&#45;&gt;isOutputHKL -->
<g id="edge27" class="edge">
<title>convertToQ2&#45;&gt;isOutputHKL</title>
<path fill="none" stroke="black" d="M887.05,-918.83C887.05,-910.89 887.05,-901.41 887.05,-892.63"/>
<polygon fill="black" stroke="black" points="890.55,-892.42 887.05,-882.42 883.55,-892.42 890.55,-892.42"/>
</g>
<!-- findPeaks -->
<g id="node13" class="node">
<title>findPeaks</title>
<path fill="lightskyblue" stroke="yellow" d="M648.05,-480C648.05,-480 552.05,-480 552.05,-480 546.05,-480 540.05,-474 540.05,-468 540.05,-468 540.05,-456 540.05,-456 540.05,-450 546.05,-444 552.05,-444 552.05,-444 648.05,-444 648.05,-444 654.05,-444 660.05,-450 660.05,-456 660.05,-456 660.05,-468 660.05,-468 660.05,-474 654.05,-480 648.05,-480"/>
<text text-anchor="middle" x="600.05" y="-458.3" font-family="Helvetica" font-size="14.00">FindPeaksMD v1</text>
</g>
<!-- peakWS -->
<g id="node25" class="node">
<title>peakWS</title>
<polygon fill="grey" stroke="black" points="686.05,-407 428.34,-407 362.05,-371 619.75,-371 686.05,-407"/>
<text text-anchor="middle" x="524.05" y="-385.3" font-family="Times-Roman" font-size="14.00">Peaks PeakWorkspace</text>
</g>
<!-- findPeaks&#45;&gt;peakWS -->
<g id="edge13" class="edge">
<title>findPeaks&#45;&gt;peakWS</title>
<path fill="none" stroke="black" d="M581.65,-443.81C572.03,-434.83 560.11,-423.69 549.61,-413.89"/>
<polygon fill="black" stroke="black" points="551.97,-411.3 542.27,-407.03 547.19,-416.41 551.97,-411.3"/>
</g>
<!-- combinePeaks -->
<g id="node14" class="node">
<title>combinePeaks</title>
<path fill="lightskyblue" stroke="greenyellow" d="M419.05,-334C419.05,-334 249.05,-334 249.05,-334 243.05,-334 237.05,-328 237.05,-322 237.05,-322 237.05,-308 237.05,-308 237.05,-302 243.05,-296 249.05,-296 249.05,-296 419.05,-296 419.05,-296 425.05,-296 431.05,-302 431.05,-308 431.05,-308 431.05,-322 431.05,-322 431.05,-328 425.05,-334 419.05,-334"/>
<text text-anchor="middle" x="334.05" y="-318.8" font-family="Helvetica" font-size="14.00">CombinePeaksWorkspace v1</text>
<text text-anchor="middle" x="334.05" y="-303.8" font-family="Helvetica" font-size="14.00">(cal ub)</text>
</g>
<!-- combPeakWS -->
<g id="node27" class="node">
<title>combPeakWS</title>
<polygon fill="grey" stroke="black" points="484.14,-259 99.02,-259 -0.05,-223 385.07,-223 484.14,-259"/>
<text text-anchor="middle" x="242.05" y="-237.3" font-family="Times-Roman" font-size="14.00">Combined peaks PeaksWorkspace</text>
</g>
<!-- combinePeaks&#45;&gt;combPeakWS -->
<g id="edge15" class="edge">
<title>combinePeaks&#45;&gt;combPeakWS</title>
<path fill="none" stroke="black" d="M310.83,-295.83C299.04,-286.6 284.58,-275.29 271.96,-265.41"/>
<polygon fill="black" stroke="black" points="274.02,-262.58 263.99,-259.17 269.71,-268.09 274.02,-262.58"/>
</g>
<!-- calUB -->
<g id="node15" class="node">
<title>calUB</title>
<path fill="lightskyblue" stroke="greenyellow" d="M291.05,-186C291.05,-186 177.05,-186 177.05,-186 171.05,-186 165.05,-180 165.05,-174 165.05,-174 165.05,-160 165.05,-160 165.05,-154 171.05,-148 177.05,-148 177.05,-148 291.05,-148 291.05,-148 297.05,-148 303.05,-154 303.05,-160 303.05,-160 303.05,-174 303.05,-174 303.05,-180 297.05,-186 291.05,-186"/>
<text text-anchor="middle" x="234.05" y="-170.8" font-family="Helvetica" font-size="14.00">CalculateUMatrix v1</text>
<text text-anchor="middle" x="234.05" y="-155.8" font-family="Helvetica" font-size="14.00">(cal ub)</text>
</g>
<!-- calUB&#45;&gt;combPeakWS -->
<g id="edge17" class="edge">
<title>calUB&#45;&gt;combPeakWS</title>
<path fill="none" stroke="black" d="M242.02,-186.2C243.69,-194.22 244.97,-203.81 245.58,-212.66"/>
<polygon fill="black" stroke="black" points="242.1,-213.08 245.99,-222.94 249.09,-212.81 242.1,-213.08"/>
</g>
<!-- getUB -->
<g id="node16" class="node">
<title>getUB</title>
<path fill="lightskyblue" stroke="greenyellow" d="M474.55,-186C474.55,-186 333.55,-186 333.55,-186 327.55,-186 321.55,-180 321.55,-174 321.55,-174 321.55,-160 321.55,-160 321.55,-154 327.55,-148 333.55,-148 333.55,-148 474.55,-148 474.55,-148 480.55,-148 486.55,-154 486.55,-160 486.55,-160 486.55,-174 486.55,-174 486.55,-180 480.55,-186 474.55,-186"/>
<text text-anchor="middle" x="404.05" y="-170.8" font-family="Helvetica" font-size="14.00">PeakWorkspace.getUB()</text>
<text text-anchor="middle" x="404.05" y="-155.8" font-family="Helvetica" font-size="14.00">(cal ub)</text>
</g>
<!-- ubmatrix -->
<g id="node29" class="node">
<title>ubmatrix</title>
<polygon fill="grey" stroke="black" points="486.95,-111 356.66,-111 323.14,-75 453.43,-75 486.95,-111"/>
<text text-anchor="middle" x="405.05" y="-89.3" font-family="Times-Roman" font-size="14.00">UB matrix</text>
</g>
<!-- getUB&#45;&gt;ubmatrix -->
<g id="edge19" class="edge">
<title>getUB&#45;&gt;ubmatrix</title>
<path fill="none" stroke="black" d="M404.3,-147.83C404.41,-139.89 404.54,-130.41 404.66,-121.63"/>
<polygon fill="black" stroke="black" points="408.17,-121.47 404.8,-111.42 401.17,-121.37 408.17,-121.47"/>
</g>
<!-- setUB -->
<g id="node17" class="node">
<title>setUB</title>
<path fill="lightskyblue" stroke="deepskyblue" d="M561.05,-38C561.05,-38 487.05,-38 487.05,-38 481.05,-38 475.05,-32 475.05,-26 475.05,-26 475.05,-12 475.05,-12 475.05,-6 481.05,0 487.05,0 487.05,0 561.05,0 561.05,0 567.05,0 573.05,-6 573.05,-12 573.05,-12 573.05,-26 573.05,-26 573.05,-32 567.05,-38 561.05,-38"/>
<text text-anchor="middle" x="524.05" y="-22.8" font-family="Helvetica" font-size="14.00">SetUB v1</text>
<text text-anchor="middle" x="524.05" y="-7.8" font-family="Helvetica" font-size="14.00">(index peaks)</text>
</g>
<!-- setUB&#45;&gt;peakWS -->
<g id="edge22" class="edge">
<title>setUB&#45;&gt;peakWS</title>
<path fill="none" stroke="black" d="M531.34,-38.05C533.05,-52.61 533.05,-73.62 533.05,-92 533.05,-316 533.05,-316 533.05,-316 533.05,-330.79 533.05,-347.3 532.16,-360.77"/>
<polygon fill="black" stroke="black" points="528.66,-360.56 531.24,-370.83 535.63,-361.19 528.66,-360.56"/>
</g>
<!-- indexPeaks -->
<g id="node18" class="node">
<title>indexPeaks</title>
<path fill="lightskyblue" stroke="deepskyblue" d="M654.55,-334C654.55,-334 573.55,-334 573.55,-334 567.55,-334 561.55,-328 561.55,-322 561.55,-322 561.55,-308 561.55,-308 561.55,-302 567.55,-296 573.55,-296 573.55,-296 654.55,-296 654.55,-296 660.55,-296 666.55,-302 666.55,-308 666.55,-308 666.55,-322 666.55,-322 666.55,-328 660.55,-334 654.55,-334"/>
<text text-anchor="middle" x="614.05" y="-318.8" font-family="Helvetica" font-size="14.00">IndexPeaks v1</text>
<text text-anchor="middle" x="614.05" y="-303.8" font-family="Helvetica" font-size="14.00">(index peaks)</text>
</g>
<!-- convert2HKL&#45;&gt;mergeMD -->
<g id="edge29" class="edge">
<title>convert2HKL&#45;&gt;mergeMD</title>
<path fill="none" stroke="black" d="M875.24,-737.99C888.38,-728.75 904.83,-717.19 919.13,-707.14"/>
<polygon fill="black" stroke="black" points="921.53,-709.73 927.7,-701.11 917.51,-704 921.53,-709.73"/>
</g>
<!-- integratePeak -->
<g id="node21" class="node">
<title>integratePeak</title>
<path fill="lightskyblue" stroke="navy" d="M854.55,-333C854.55,-333 711.55,-333 711.55,-333 705.55,-333 699.55,-327 699.55,-321 699.55,-321 699.55,-309 699.55,-309 699.55,-303 705.55,-297 711.55,-297 711.55,-297 854.55,-297 854.55,-297 860.55,-297 866.55,-303 866.55,-309 866.55,-309 866.55,-321 866.55,-321 866.55,-327 860.55,-333 854.55,-333"/>
<text text-anchor="middle" x="783.05" y="-311.3" font-family="Helvetica" font-size="14.00">IntegratePeaksCWSD v1</text>
</g>
<!-- peakWS2 -->
<g id="node26" class="node">
<title>peakWS2</title>
<polygon fill="grey" stroke="black" points="1033.2,-259 657.53,-259 560.89,-223 936.56,-223 1033.2,-259"/>
<text text-anchor="middle" x="797.05" y="-237.3" font-family="Times-Roman" font-size="14.00">Integrated Peaks PeakWorkspace</text>
</g>
<!-- integratePeak&#45;&gt;peakWS2 -->
<g id="edge34" class="edge">
<title>integratePeak&#45;&gt;peakWS2</title>
<path fill="none" stroke="black" d="M786.36,-296.94C787.96,-288.72 789.92,-278.66 791.72,-269.41"/>
<polygon fill="black" stroke="black" points="795.18,-269.92 793.66,-259.44 788.31,-268.59 795.18,-269.92"/>
</g>
<!-- detMatrix&#45;&gt;collectExpInfo -->
<g id="edge8" class="edge">
<title>detMatrix&#45;&gt;collectExpInfo</title>
<path fill="none" stroke="black" d="M541.45,-737.99C562.36,-728.23 588.8,-715.88 611.12,-705.45"/>
<polygon fill="black" stroke="black" points="612.83,-708.52 620.41,-701.11 609.87,-702.17 612.83,-708.52"/>
</g>
<!-- spiceTable&#45;&gt;collectExpInfo -->
<g id="edge9" class="edge">
<title>spiceTable&#45;&gt;collectExpInfo</title>
<path fill="none" stroke="black" d="M700.33,-791.87C701.65,-777.17 702.02,-755.63 696.05,-738 692.59,-727.81 686.5,-717.9 680.15,-709.41"/>
<polygon fill="black" stroke="black" points="682.76,-707.07 673.79,-701.43 677.28,-711.43 682.76,-707.07"/>
</g>
<!-- expScanMD&#45;&gt;findPeaks -->
<g id="edge12" class="edge">
<title>expScanMD&#45;&gt;findPeaks</title>
<path fill="none" stroke="black" d="M643.25,-516.81C636.32,-508.18 627.79,-497.56 620.14,-488.03"/>
<polygon fill="black" stroke="black" points="622.71,-485.64 613.72,-480.03 617.25,-490.02 622.71,-485.64"/>
</g>
<!-- expScanMD&#45;&gt;integratePeak -->
<g id="edge31" class="edge">
<title>expScanMD&#45;&gt;integratePeak</title>
<path fill="none" stroke="black" d="M663.04,-516.93C674.24,-486.26 700.19,-420.39 733.05,-371 740.19,-360.26 749.39,-349.51 757.94,-340.41"/>
<polygon fill="black" stroke="black" points="760.48,-342.81 764.91,-333.19 755.45,-337.95 760.48,-342.81"/>
</g>
<!-- peakWS&#45;&gt;combinePeaks -->
<g id="edge14" class="edge">
<title>peakWS&#45;&gt;combinePeaks</title>
<path fill="none" stroke="black" d="M479.02,-370.94C452.81,-361 419.51,-348.38 391.43,-337.75"/>
<polygon fill="black" stroke="black" points="392.33,-334.34 381.74,-334.07 389.85,-340.89 392.33,-334.34"/>
</g>
<!-- peakWS&#45;&gt;setUB -->
<g id="edge21" class="edge">
<title>peakWS&#45;&gt;setUB</title>
<path fill="none" stroke="black" d="M516.86,-370.83C515.05,-356.25 515.05,-334.75 515.05,-316 515.05,-316 515.05,-316 515.05,-92 515.05,-77.5 515.05,-61.36 515.88,-48.04"/>
<polygon fill="black" stroke="black" points="519.37,-48.31 516.75,-38.05 512.4,-47.71 519.37,-48.31"/>
</g>
<!-- peakWS&#45;&gt;indexPeaks -->
<g id="edge23" class="edge">
<title>peakWS&#45;&gt;indexPeaks</title>
<path fill="none" stroke="black" d="M545.38,-370.94C556.72,-361.86 570.86,-350.55 583.37,-340.54"/>
<polygon fill="black" stroke="black" points="585.68,-343.18 591.3,-334.2 581.3,-337.71 585.68,-343.18"/>
</g>
<!-- peakWS&#45;&gt;integratePeak -->
<g id="edge32" class="edge">
<title>peakWS&#45;&gt;integratePeak</title>
<path fill="none" stroke="black" d="M585.43,-370.94C623.35,-360.39 672.17,-346.82 711.8,-335.81"/>
<polygon fill="black" stroke="black" points="712.96,-339.12 721.66,-333.07 711.09,-332.37 712.96,-339.12"/>
</g>
<!-- combPeakWS&#45;&gt;calUB -->
<g id="edge16" class="edge">
<title>combPeakWS&#45;&gt;calUB</title>
<path fill="none" stroke="black" d="M234.31,-222.94C232.58,-214.99 231.25,-205.31 230.58,-196.31"/>
<polygon fill="black" stroke="black" points="234.07,-196.03 230.11,-186.2 227.08,-196.35 234.07,-196.03"/>
</g>
<!-- combPeakWS&#45;&gt;getUB -->
<g id="edge18" class="edge">
<title>combPeakWS&#45;&gt;getUB</title>
<path fill="none" stroke="black" d="M280.44,-222.94C302.49,-213.14 330.44,-200.71 354.18,-190.16"/>
<polygon fill="black" stroke="black" points="355.67,-193.33 363.38,-186.07 352.82,-186.94 355.67,-193.33"/>
</g>
<!-- maskWS -->
<g id="node28" class="node">
<title>maskWS</title>
<polygon fill="grey" stroke="black" points="991.72,-407 793.39,-407 742.38,-371 940.7,-371 991.72,-407"/>
<text text-anchor="middle" x="867.05" y="-385.3" font-family="Times-Roman" font-size="14.00">Mask workspace</text>
</g>
<!-- maskWS&#45;&gt;integratePeak -->
<g id="edge33" class="edge">
<title>maskWS&#45;&gt;integratePeak</title>
<path fill="none" stroke="black" d="M847.14,-370.94C836.34,-361.68 822.81,-350.09 810.97,-339.94"/>
<polygon fill="black" stroke="black" points="812.97,-337.04 803.1,-333.19 808.42,-342.36 812.97,-337.04"/>
</g>
<!-- ubmatrix&#45;&gt;setUB -->
<g id="edge20" class="edge">
<title>ubmatrix&#45;&gt;setUB</title>
<path fill="none" stroke="black" d="M433.25,-74.94C448.82,-65.52 468.38,-53.68 485.36,-43.41"/>
<polygon fill="black" stroke="black" points="487.22,-46.37 493.97,-38.2 483.6,-40.38 487.22,-46.37"/>
</g>
</g>
</svg>
