<?xml version="1.0" encoding="UTF-8" standalone="no"?>
<!DOCTYPE svg PUBLIC "-//W3C//DTD SVG 1.1//EN"
 "http://www.w3.org/Graphics/SVG/1.1/DTD/svg11.dtd">
<!-- Generated by graphviz version 3.0.0 (20220315.2325)
 -->
<!-- Title: Reference Pages: 1 -->
<svg width="1240pt" height="1136pt"
 viewBox="0.00 0.00 1239.83 1136.00" xmlns="http://www.w3.org/2000/svg" xmlns:xlink="http://www.w3.org/1999/xlink">
<g id="graph0" class="graph" transform="scale(1 1) rotate(0) translate(4 1132)">
<title>Reference</title>
<polygon fill="white" stroke="transparent" points="-4,4 -4,-1132 1235.83,-1132 1235.83,4 -4,4"/>
<!-- NormaliseBy -->
<g id="node1" class="node">
<title>NormaliseBy</title>
<polygon fill="limegreen" stroke="black" points="95.59,-1055 -0.09,-1037 95.59,-1019 191.28,-1037 95.59,-1055"/>
<text text-anchor="middle" x="95.59" y="-1033.3" font-family="Helvetica,sans-Serif" font-size="14.00">NormaliseBy</text>
</g>
<!-- Divide -->
<g id="node16" class="node">
<title>Divide</title>
<path fill="lightskyblue" stroke="black" d="M125.59,-982C125.59,-982 89.59,-982 89.59,-982 83.59,-982 77.59,-976 77.59,-970 77.59,-970 77.59,-958 77.59,-958 77.59,-952 83.59,-946 89.59,-946 89.59,-946 125.59,-946 125.59,-946 131.59,-946 137.59,-952 137.59,-958 137.59,-958 137.59,-970 137.59,-970 137.59,-976 131.59,-982 125.59,-982"/>
<text text-anchor="middle" x="107.59" y="-960.3" font-family="Helvetica,sans-Serif" font-size="14.00">Divide</text>
</g>
<!-- NormaliseBy&#45;&gt;Divide -->
<g id="edge3" class="edge">
<title>NormaliseBy&#45;&gt;Divide</title>
<path fill="none" stroke="black" d="M98.44,-1019.17C99.79,-1011.16 101.45,-1001.36 102.97,-992.32"/>
<polygon fill="black" stroke="black" points="106.47,-992.64 104.69,-982.2 99.57,-991.48 106.47,-992.64"/>
</g>
<!-- Runs -->
<g id="node2" class="node">
<title>Runs</title>
<ellipse fill="khaki" stroke="black" cx="269.59" cy="-1110" rx="33.29" ry="18"/>
<text text-anchor="middle" x="269.59" y="-1106.3" font-family="Helvetica,sans-Serif" font-size="14.00">Runs</text>
</g>
<!-- LoadAndMerge -->
<g id="node15" class="node">
<title>LoadAndMerge</title>
<path fill="lightskyblue" stroke="black" d="M318.09,-1055C318.09,-1055 221.09,-1055 221.09,-1055 215.09,-1055 209.09,-1049 209.09,-1043 209.09,-1043 209.09,-1031 209.09,-1031 209.09,-1025 215.09,-1019 221.09,-1019 221.09,-1019 318.09,-1019 318.09,-1019 324.09,-1019 330.09,-1025 330.09,-1031 330.09,-1031 330.09,-1043 330.09,-1043 330.09,-1049 324.09,-1055 318.09,-1055"/>
<text text-anchor="middle" x="269.59" y="-1033.3" font-family="Helvetica,sans-Serif" font-size="14.00">LoadAndMerge</text>
</g>
<!-- Runs&#45;&gt;LoadAndMerge -->
<g id="edge1" class="edge">
<title>Runs&#45;&gt;LoadAndMerge</title>
<path fill="none" stroke="black" d="M269.59,-1091.81C269.59,-1083.79 269.59,-1074.05 269.59,-1065.07"/>
<polygon fill="black" stroke="black" points="273.09,-1065.03 269.59,-1055.03 266.09,-1065.03 273.09,-1065.03"/>
</g>
<!-- BeamCenter -->
<g id="node3" class="node">
<title>BeamCenter</title>
<ellipse fill="khaki" stroke="black" cx="493.59" cy="-891" rx="66.89" ry="18"/>
<text text-anchor="middle" x="493.59" y="-887.3" font-family="Helvetica,sans-Serif" font-size="14.00">BeamCenter</text>
</g>
<!-- MoveInstrumentComponent -->
<g id="node18" class="node">
<title>MoveInstrumentComponent</title>
<path fill="lightskyblue" stroke="black" d="M489.09,-836C489.09,-836 302.09,-836 302.09,-836 296.09,-836 290.09,-830 290.09,-824 290.09,-824 290.09,-812 290.09,-812 290.09,-806 296.09,-800 302.09,-800 302.09,-800 489.09,-800 489.09,-800 495.09,-800 501.09,-806 501.09,-812 501.09,-812 501.09,-824 501.09,-824 501.09,-830 495.09,-836 489.09,-836"/>
<text text-anchor="middle" x="395.59" y="-814.3" font-family="Helvetica,sans-Serif" font-size="14.00">MoveInstrumentComponent</text>
</g>
<!-- BeamCenter&#45;&gt;MoveInstrumentComponent -->
<g id="edge8" class="edge">
<title>BeamCenter&#45;&gt;MoveInstrumentComponent</title>
<path fill="none" stroke="black" d="M471.35,-873.89C458.33,-864.45 441.65,-852.37 427.27,-841.95"/>
<polygon fill="black" stroke="black" points="429.26,-839.07 419.11,-836.04 425.15,-844.74 429.26,-839.07"/>
</g>
<!-- DarkCurrentWorkspace -->
<g id="node4" class="node">
<title>DarkCurrentWorkspace</title>
<ellipse fill="khaki" stroke="black" cx="271.59" cy="-964" rx="116.18" ry="18"/>
<text text-anchor="middle" x="271.59" y="-960.3" font-family="Helvetica,sans-Serif" font-size="14.00">DarkCurrentWorkspace</text>
</g>
<!-- Minus -->
<g id="node17" class="node">
<title>Minus</title>
<path fill="lightskyblue" stroke="black" d="M288.59,-909C288.59,-909 254.59,-909 254.59,-909 248.59,-909 242.59,-903 242.59,-897 242.59,-897 242.59,-885 242.59,-885 242.59,-879 248.59,-873 254.59,-873 254.59,-873 288.59,-873 288.59,-873 294.59,-873 300.59,-879 300.59,-885 300.59,-885 300.59,-897 300.59,-897 300.59,-903 294.59,-909 288.59,-909"/>
<text text-anchor="middle" x="271.59" y="-887.3" font-family="Helvetica,sans-Serif" font-size="14.00">Minus</text>
</g>
<!-- DarkCurrentWorkspace&#45;&gt;Minus -->
<g id="edge5" class="edge">
<title>DarkCurrentWorkspace&#45;&gt;Minus</title>
<path fill="none" stroke="black" d="M271.59,-945.81C271.59,-937.79 271.59,-928.05 271.59,-919.07"/>
<polygon fill="black" stroke="black" points="275.09,-919.03 271.59,-909.03 268.09,-919.03 275.09,-919.03"/>
</g>
<!-- EmptyBeamWorkspace -->
<g id="node5" class="node">
<title>EmptyBeamWorkspace</title>
<ellipse fill="khaki" stroke="black" cx="521.59" cy="-964" rx="115.88" ry="18"/>
<text text-anchor="middle" x="521.59" y="-960.3" font-family="Helvetica,sans-Serif" font-size="14.00">EmptyBeamWorkspace</text>
</g>
<!-- EmptyBeamWorkspace&#45;&gt;BeamCenter -->
<g id="edge7" class="edge">
<title>EmptyBeamWorkspace&#45;&gt;BeamCenter</title>
<path fill="none" stroke="black" d="M514.81,-945.81C511.58,-937.62 507.64,-927.62 504.04,-918.48"/>
<polygon fill="black" stroke="black" points="507.23,-917.05 500.31,-909.03 500.72,-919.62 507.23,-917.05"/>
</g>
<!-- FluxWorkspace -->
<g id="node6" class="node">
<title>FluxWorkspace</title>
<ellipse fill="khaki" stroke="black" cx="986.59" cy="-338" rx="79.09" ry="18"/>
<text text-anchor="middle" x="986.59" y="-334.3" font-family="Helvetica,sans-Serif" font-size="14.00">FluxWorkspace</text>
</g>
<!-- Divide4 -->
<g id="node26" class="node">
<title>Divide4</title>
<path fill="lightskyblue" stroke="black" d="M940.59,-269C940.59,-269 904.59,-269 904.59,-269 898.59,-269 892.59,-263 892.59,-257 892.59,-257 892.59,-245 892.59,-245 892.59,-239 898.59,-233 904.59,-233 904.59,-233 940.59,-233 940.59,-233 946.59,-233 952.59,-239 952.59,-245 952.59,-245 952.59,-257 952.59,-257 952.59,-263 946.59,-269 940.59,-269"/>
<text text-anchor="middle" x="922.59" y="-247.3" font-family="Helvetica,sans-Serif" font-size="14.00">Divide</text>
</g>
<!-- FluxWorkspace&#45;&gt;Divide4 -->
<g id="edge21" class="edge">
<title>FluxWorkspace&#45;&gt;Divide4</title>
<path fill="none" stroke="black" d="M973.95,-320.21C964.72,-307.95 952.04,-291.11 941.6,-277.24"/>
<polygon fill="black" stroke="black" points="944.24,-274.93 935.43,-269.05 938.65,-279.14 944.24,-274.93"/>
</g>
<!-- TransmissionWorkspace -->
<g id="node7" class="node">
<title>TransmissionWorkspace</title>
<ellipse fill="khaki" stroke="black" cx="637.59" cy="-818" rx="118.88" ry="18"/>
<text text-anchor="middle" x="637.59" y="-814.3" font-family="Helvetica,sans-Serif" font-size="14.00">TransmissionWorkspace</text>
</g>
<!-- ApplyTransmissionCorrection -->
<g id="node19" class="node">
<title>ApplyTransmissionCorrection</title>
<path fill="lightskyblue" stroke="black" d="M613.59,-763C613.59,-763 419.59,-763 419.59,-763 413.59,-763 407.59,-757 407.59,-751 407.59,-751 407.59,-739 407.59,-739 407.59,-733 413.59,-727 419.59,-727 419.59,-727 613.59,-727 613.59,-727 619.59,-727 625.59,-733 625.59,-739 625.59,-739 625.59,-751 625.59,-751 625.59,-757 619.59,-763 613.59,-763"/>
<text text-anchor="middle" x="516.59" y="-741.3" font-family="Helvetica,sans-Serif" font-size="14.00">ApplyTransmissionCorrection</text>
</g>
<!-- TransmissionWorkspace&#45;&gt;ApplyTransmissionCorrection -->
<g id="edge10" class="edge">
<title>TransmissionWorkspace&#45;&gt;ApplyTransmissionCorrection</title>
<path fill="none" stroke="black" d="M609.22,-800.35C592.92,-790.79 572.24,-778.66 554.56,-768.28"/>
<polygon fill="black" stroke="black" points="556.02,-765.08 545.62,-763.04 552.48,-771.11 556.02,-765.08"/>
</g>
<!-- EmptyContainerWorkspace -->
<g id="node8" class="node">
<title>EmptyContainerWorkspace</title>
<ellipse fill="khaki" stroke="black" cx="698.59" cy="-658" rx="133.78" ry="18"/>
<text text-anchor="middle" x="698.59" y="-654.3" font-family="Helvetica,sans-Serif" font-size="14.00">EmptyContainerWorkspace</text>
</g>
<!-- Minus2 -->
<g id="node21" class="node">
<title>Minus2</title>
<path fill="lightskyblue" stroke="black" d="M624.59,-603C624.59,-603 590.59,-603 590.59,-603 584.59,-603 578.59,-597 578.59,-591 578.59,-591 578.59,-579 578.59,-579 578.59,-573 584.59,-567 590.59,-567 590.59,-567 624.59,-567 624.59,-567 630.59,-567 636.59,-573 636.59,-579 636.59,-579 636.59,-591 636.59,-591 636.59,-597 630.59,-603 624.59,-603"/>
<text text-anchor="middle" x="607.59" y="-581.3" font-family="Helvetica,sans-Serif" font-size="14.00">Minus</text>
</g>
<!-- EmptyContainerWorkspace&#45;&gt;Minus2 -->
<g id="edge13" class="edge">
<title>EmptyContainerWorkspace&#45;&gt;Minus2</title>
<path fill="none" stroke="black" d="M677.03,-640.17C665.3,-631.02 650.61,-619.56 637.76,-609.54"/>
<polygon fill="black" stroke="black" points="639.67,-606.59 629.64,-603.2 635.37,-612.11 639.67,-606.59"/>
</g>
<!-- DefaultMaskWorkspace -->
<g id="node9" class="node">
<title>DefaultMaskWorkspace</title>
<ellipse fill="khaki" stroke="black" cx="770.59" cy="-585" rx="116.18" ry="18"/>
<text text-anchor="middle" x="770.59" y="-581.3" font-family="Helvetica,sans-Serif" font-size="14.00">DefaultMaskWorkspace</text>
</g>
<!-- MaskDetectors -->
<g id="node23" class="node">
<title>MaskDetectors</title>
<path fill="lightskyblue" stroke="black" d="M818.09,-516C818.09,-516 723.09,-516 723.09,-516 717.09,-516 711.09,-510 711.09,-504 711.09,-504 711.09,-492 711.09,-492 711.09,-486 717.09,-480 723.09,-480 723.09,-480 818.09,-480 818.09,-480 824.09,-480 830.09,-486 830.09,-492 830.09,-492 830.09,-504 830.09,-504 830.09,-510 824.09,-516 818.09,-516"/>
<text text-anchor="middle" x="770.59" y="-494.3" font-family="Helvetica,sans-Serif" font-size="14.00">MaskDetectors</text>
</g>
<!-- DefaultMaskWorkspace&#45;&gt;MaskDetectors -->
<g id="edge15" class="edge">
<title>DefaultMaskWorkspace&#45;&gt;MaskDetectors</title>
<path fill="none" stroke="black" d="M770.59,-566.8C770.59,-555.16 770.59,-539.55 770.59,-526.24"/>
<polygon fill="black" stroke="black" points="774.09,-526.18 770.59,-516.18 767.09,-526.18 774.09,-526.18"/>
<text text-anchor="middle" x="792.09" y="-537.8" font-family="Helvetica,sans-Serif" font-size="14.00">Edges</text>
</g>
<!-- MaskWorkspace -->
<g id="node10" class="node">
<title>MaskWorkspace</title>
<ellipse fill="khaki" stroke="black" cx="988.59" cy="-585" rx="83.69" ry="18"/>
<text text-anchor="middle" x="988.59" y="-581.3" font-family="Helvetica,sans-Serif" font-size="14.00">MaskWorkspace</text>
</g>
<!-- MaskWorkspace&#45;&gt;MaskDetectors -->
<g id="edge16" class="edge">
<title>MaskWorkspace&#45;&gt;MaskDetectors</title>
<path fill="none" stroke="black" d="M950.12,-569C915.08,-555.34 862.99,-535.02 823.93,-519.8"/>
<polygon fill="black" stroke="black" points="824.89,-516.41 814.3,-516.04 822.34,-522.93 824.89,-516.41"/>
<text text-anchor="middle" x="928.59" y="-537.8" font-family="Helvetica,sans-Serif" font-size="14.00">BeamStop</text>
</g>
<!-- SampleThickness -->
<g id="node11" class="node">
<title>SampleThickness</title>
<ellipse fill="khaki" stroke="black" cx="949.59" cy="-425" rx="89.08" ry="18"/>
<text text-anchor="middle" x="949.59" y="-421.3" font-family="Helvetica,sans-Serif" font-size="14.00">SampleThickness</text>
</g>
<!-- Divide3 -->
<g id="node25" class="node">
<title>Divide3</title>
<path fill="lightskyblue" stroke="black" d="M877.59,-356C877.59,-356 841.59,-356 841.59,-356 835.59,-356 829.59,-350 829.59,-344 829.59,-344 829.59,-332 829.59,-332 829.59,-326 835.59,-320 841.59,-320 841.59,-320 877.59,-320 877.59,-320 883.59,-320 889.59,-326 889.59,-332 889.59,-332 889.59,-344 889.59,-344 889.59,-350 883.59,-356 877.59,-356"/>
<text text-anchor="middle" x="859.59" y="-334.3" font-family="Helvetica,sans-Serif" font-size="14.00">Divide</text>
</g>
<!-- SampleThickness&#45;&gt;Divide3 -->
<g id="edge19" class="edge">
<title>SampleThickness&#45;&gt;Divide3</title>
<path fill="none" stroke="black" d="M931.81,-407.21C918.46,-394.6 899.99,-377.16 885.08,-363.07"/>
<polygon fill="black" stroke="black" points="887.32,-360.37 877.64,-356.05 882.51,-365.46 887.32,-360.37"/>
</g>
<!-- FlatFieldWorkspace -->
<g id="node12" class="node">
<title>FlatFieldWorkspace</title>
<ellipse fill="khaki" stroke="black" cx="1068.59" cy="-251" rx="98.28" ry="18"/>
<text text-anchor="middle" x="1068.59" y="-247.3" font-family="Helvetica,sans-Serif" font-size="14.00">FlatFieldWorkspace</text>
</g>
<!-- Divide5 -->
<g id="node27" class="node">
<title>Divide5</title>
<path fill="lightskyblue" stroke="black" d="M1013.59,-182C1013.59,-182 977.59,-182 977.59,-182 971.59,-182 965.59,-176 965.59,-170 965.59,-170 965.59,-158 965.59,-158 965.59,-152 971.59,-146 977.59,-146 977.59,-146 1013.59,-146 1013.59,-146 1019.59,-146 1025.59,-152 1025.59,-158 1025.59,-158 1025.59,-170 1025.59,-170 1025.59,-176 1019.59,-182 1013.59,-182"/>
<text text-anchor="middle" x="995.59" y="-160.3" font-family="Helvetica,sans-Serif" font-size="14.00">Divide</text>
</g>
<!-- FlatFieldWorkspace&#45;&gt;Divide5 -->
<g id="edge23" class="edge">
<title>FlatFieldWorkspace&#45;&gt;Divide5</title>
<path fill="none" stroke="black" d="M1067.02,-232.82C1065.33,-222.44 1061.83,-209.44 1054.59,-200 1049.23,-193 1042.03,-187.13 1034.51,-182.31"/>
<polygon fill="black" stroke="black" points="1036.03,-179.14 1025.63,-177.13 1032.5,-185.19 1036.03,-179.14"/>
</g>
<!-- SolventWorkspace -->
<g id="node13" class="node">
<title>SolventWorkspace</title>
<ellipse fill="khaki" stroke="black" cx="1137.59" cy="-164" rx="94.48" ry="18"/>
<text text-anchor="middle" x="1137.59" y="-160.3" font-family="Helvetica,sans-Serif" font-size="14.00">SolventWorkspace</text>
</g>
<!-- Minus3 -->
<g id="node22" class="node">
<title>Minus3</title>
<path fill="lightskyblue" stroke="black" d="M1083.59,-109C1083.59,-109 1049.59,-109 1049.59,-109 1043.59,-109 1037.59,-103 1037.59,-97 1037.59,-97 1037.59,-85 1037.59,-85 1037.59,-79 1043.59,-73 1049.59,-73 1049.59,-73 1083.59,-73 1083.59,-73 1089.59,-73 1095.59,-79 1095.59,-85 1095.59,-85 1095.59,-97 1095.59,-97 1095.59,-103 1089.59,-109 1083.59,-109"/>
<text text-anchor="middle" x="1066.59" y="-87.3" font-family="Helvetica,sans-Serif" font-size="14.00">Minus</text>
</g>
<!-- SolventWorkspace&#45;&gt;Minus3 -->
<g id="edge25" class="edge">
<title>SolventWorkspace&#45;&gt;Minus3</title>
<path fill="none" stroke="black" d="M1120.77,-146.17C1111.88,-137.29 1100.81,-126.21 1090.99,-116.4"/>
<polygon fill="black" stroke="black" points="1093.34,-113.79 1083.79,-109.2 1088.39,-118.74 1093.34,-113.79"/>
</g>
<!-- OutputWorkspace -->
<g id="node14" class="node">
<title>OutputWorkspace</title>
<polygon fill="grey" stroke="black" points="1204.94,-36 984.86,-36 928.24,0 1148.33,0 1204.94,-36"/>
<text text-anchor="middle" x="1066.59" y="-14.3" font-family="Times,serif" font-size="14.00">OutputWorkspace</text>
</g>
<!-- LoadAndMerge&#45;&gt;Divide -->
<g id="edge2" class="edge">
<title>LoadAndMerge&#45;&gt;Divide</title>
<path fill="none" stroke="black" d="M230.79,-1018.99C205.47,-1007.9 172.53,-993.46 147.08,-982.31"/>
<polygon fill="black" stroke="black" points="148.29,-979.01 137.72,-978.2 145.48,-985.42 148.29,-979.01"/>
</g>
<!-- Divide&#45;&gt;Minus -->
<g id="edge4" class="edge">
<title>Divide&#45;&gt;Minus</title>
<path fill="none" stroke="black" d="M137.82,-949.81C140.78,-948.52 143.75,-947.23 146.59,-946 175.6,-933.41 208.41,-919.24 233.14,-908.57"/>
<polygon fill="black" stroke="black" points="234.74,-911.7 242.53,-904.52 231.97,-905.27 234.74,-911.7"/>
</g>
<!-- Minus&#45;&gt;MoveInstrumentComponent -->
<g id="edge6" class="edge">
<title>Minus&#45;&gt;MoveInstrumentComponent</title>
<path fill="none" stroke="black" d="M300.66,-873.35C317.37,-863.79 338.56,-851.66 356.68,-841.28"/>
<polygon fill="black" stroke="black" points="358.9,-844.04 365.84,-836.04 355.42,-837.97 358.9,-844.04"/>
</g>
<!-- MoveInstrumentComponent&#45;&gt;ApplyTransmissionCorrection -->
<g id="edge9" class="edge">
<title>MoveInstrumentComponent&#45;&gt;ApplyTransmissionCorrection</title>
<path fill="none" stroke="black" d="M424.57,-799.99C440.77,-790.49 461.14,-778.54 478.6,-768.29"/>
<polygon fill="black" stroke="black" points="480.57,-771.19 487.43,-763.11 477.03,-765.16 480.57,-771.19"/>
</g>
<!-- Divide2 -->
<g id="node24" class="node">
<title>Divide2</title>
<path fill="lightskyblue" stroke="black" d="M534.59,-676C534.59,-676 498.59,-676 498.59,-676 492.59,-676 486.59,-670 486.59,-664 486.59,-664 486.59,-652 486.59,-652 486.59,-646 492.59,-640 498.59,-640 498.59,-640 534.59,-640 534.59,-640 540.59,-640 546.59,-646 546.59,-652 546.59,-652 546.59,-664 546.59,-664 546.59,-670 540.59,-676 534.59,-676"/>
<text text-anchor="middle" x="516.59" y="-654.3" font-family="Helvetica,sans-Serif" font-size="14.00">Divide</text>
</g>
<!-- ApplyTransmissionCorrection&#45;&gt;Divide2 -->
<g id="edge11" class="edge">
<title>ApplyTransmissionCorrection&#45;&gt;Divide2</title>
<path fill="none" stroke="black" d="M516.59,-726.8C516.59,-715.16 516.59,-699.55 516.59,-686.24"/>
<polygon fill="black" stroke="black" points="520.09,-686.18 516.59,-676.18 513.09,-686.18 520.09,-686.18"/>
<text text-anchor="middle" x="553.59" y="-697.8" font-family="Helvetica,sans-Serif" font-size="14.00">SolidAngle</text>
</g>
<!-- ParallaxCorrection -->
<g id="node20" class="node">
<title>ParallaxCorrection</title>
<path fill="lightskyblue" stroke="black" d="M830.09,-443C830.09,-443 711.09,-443 711.09,-443 705.09,-443 699.09,-437 699.09,-431 699.09,-431 699.09,-419 699.09,-419 699.09,-413 705.09,-407 711.09,-407 711.09,-407 830.09,-407 830.09,-407 836.09,-407 842.09,-413 842.09,-419 842.09,-419 842.09,-431 842.09,-431 842.09,-437 836.09,-443 830.09,-443"/>
<text text-anchor="middle" x="770.59" y="-421.3" font-family="Helvetica,sans-Serif" font-size="14.00">ParallaxCorrection</text>
</g>
<!-- ParallaxCorrection&#45;&gt;Divide3 -->
<g id="edge18" class="edge">
<title>ParallaxCorrection&#45;&gt;Divide3</title>
<path fill="none" stroke="black" d="M788.6,-406.8C801.75,-394.24 819.75,-377.05 834.34,-363.12"/>
<polygon fill="black" stroke="black" points="836.79,-365.61 841.61,-356.18 831.96,-360.55 836.79,-365.61"/>
<text text-anchor="middle" x="854.59" y="-377.8" font-family="Helvetica,sans-Serif" font-size="14.00">Thickness</text>
</g>
<!-- Minus2&#45;&gt;MaskDetectors -->
<g id="edge14" class="edge">
<title>Minus2&#45;&gt;MaskDetectors</title>
<path fill="none" stroke="black" d="M636.73,-568.8C662.35,-555.45 699.93,-535.85 728.76,-520.82"/>
<polygon fill="black" stroke="black" points="730.53,-523.84 737.78,-516.11 727.3,-517.63 730.53,-523.84"/>
</g>
<!-- Minus3&#45;&gt;OutputWorkspace -->
<g id="edge26" class="edge">
<title>Minus3&#45;&gt;OutputWorkspace</title>
<path fill="none" stroke="black" d="M1066.59,-72.81C1066.59,-64.79 1066.59,-55.05 1066.59,-46.07"/>
<polygon fill="black" stroke="black" points="1070.09,-46.03 1066.59,-36.03 1063.09,-46.03 1070.09,-46.03"/>
</g>
<!-- MaskDetectors&#45;&gt;ParallaxCorrection -->
<g id="edge17" class="edge">
<title>MaskDetectors&#45;&gt;ParallaxCorrection</title>
<path fill="none" stroke="black" d="M770.59,-479.81C770.59,-471.79 770.59,-462.05 770.59,-453.07"/>
<polygon fill="black" stroke="black" points="774.09,-453.03 770.59,-443.03 767.09,-453.03 774.09,-453.03"/>
</g>
<!-- Divide2&#45;&gt;Minus2 -->
<g id="edge12" class="edge">
<title>Divide2&#45;&gt;Minus2</title>
<path fill="none" stroke="black" d="M538.62,-639.81C550.36,-630.66 564.96,-619.26 577.71,-609.32"/>
<polygon fill="black" stroke="black" points="580.04,-611.94 585.77,-603.03 575.73,-606.42 580.04,-611.94"/>
</g>
<!-- Divide3&#45;&gt;Divide4 -->
<g id="edge20" class="edge">
<title>Divide3&#45;&gt;Divide4</title>
<path fill="none" stroke="black" d="M872.34,-319.8C881.39,-307.59 893.69,-290.99 903.86,-277.28"/>
<polygon fill="black" stroke="black" points="906.72,-279.29 909.86,-269.18 901.1,-275.13 906.72,-279.29"/>
<text text-anchor="middle" x="909.59" y="-290.8" font-family="Helvetica,sans-Serif" font-size="14.00">Flux</text>
</g>
<!-- Divide4&#45;&gt;Divide5 -->
<g id="edge22" class="edge">
<title>Divide4&#45;&gt;Divide5</title>
<path fill="none" stroke="black" d="M918.72,-232.97C917.34,-222.65 917.42,-209.65 923.59,-200 930.99,-188.43 943.41,-180.58 955.86,-175.3"/>
<polygon fill="black" stroke="black" points="957.19,-178.54 965.31,-171.74 954.72,-171.99 957.19,-178.54"/>
<text text-anchor="middle" x="989.09" y="-203.8" font-family="Helvetica,sans-Serif" font-size="14.00">WaterOrSensitivity</text>
</g>
<!-- Divide5&#45;&gt;Minus3 -->
<g id="edge24" class="edge">
<title>Divide5&#45;&gt;Minus3</title>
<path fill="none" stroke="black" d="M1012.78,-145.81C1021.67,-136.92 1032.68,-125.91 1042.42,-116.17"/>
<polygon fill="black" stroke="black" points="1044.97,-118.57 1049.56,-109.03 1040.02,-113.63 1044.97,-118.57"/>
</g>
</g>
</svg>
