<?xml version="1.0" encoding="UTF-8" standalone="no"?>
<!DOCTYPE svg PUBLIC "-//W3C//DTD SVG 1.1//EN"
 "http://www.w3.org/Graphics/SVG/1.1/DTD/svg11.dtd">
<!-- Generated by graphviz version 3.0.0 (20220315.2325)
 -->
<!-- Title: Reference Pages: 1 -->
<svg width="1175pt" height="1063pt"
 viewBox="0.00 0.00 1174.73 1063.00" xmlns="http://www.w3.org/2000/svg" xmlns:xlink="http://www.w3.org/1999/xlink">
<g id="graph0" class="graph" transform="scale(1 1) rotate(0) translate(4 1059)">
<title>Reference</title>
<polygon fill="white" stroke="transparent" points="-4,4 -4,-1059 1170.73,-1059 1170.73,4 -4,4"/>
<!-- NormaliseBy -->
<g id="node1" class="node">
<title>NormaliseBy</title>
<polygon fill="limegreen" stroke="black" points="95.59,-982 -0.09,-964 95.59,-946 191.28,-964 95.59,-982"/>
<text text-anchor="middle" x="95.59" y="-960.3" font-family="Helvetica,sans-Serif" font-size="14.00">NormaliseBy</text>
</g>
<!-- Divide -->
<g id="node15" class="node">
<title>Divide</title>
<path fill="lightskyblue" stroke="black" d="M125.59,-909C125.59,-909 89.59,-909 89.59,-909 83.59,-909 77.59,-903 77.59,-897 77.59,-897 77.59,-885 77.59,-885 77.59,-879 83.59,-873 89.59,-873 89.59,-873 125.59,-873 125.59,-873 131.59,-873 137.59,-879 137.59,-885 137.59,-885 137.59,-897 137.59,-897 137.59,-903 131.59,-909 125.59,-909"/>
<text text-anchor="middle" x="107.59" y="-887.3" font-family="Helvetica,sans-Serif" font-size="14.00">Divide</text>
</g>
<!-- NormaliseBy&#45;&gt;Divide -->
<g id="edge3" class="edge">
<title>NormaliseBy&#45;&gt;Divide</title>
<path fill="none" stroke="black" d="M98.44,-946.17C99.79,-938.16 101.45,-928.36 102.97,-919.32"/>
<polygon fill="black" stroke="black" points="106.47,-919.64 104.69,-909.2 99.57,-918.48 106.47,-919.64"/>
</g>
<!-- Runs -->
<g id="node2" class="node">
<title>Runs</title>
<ellipse fill="khaki" stroke="black" cx="269.59" cy="-1037" rx="33.29" ry="18"/>
<text text-anchor="middle" x="269.59" y="-1033.3" font-family="Helvetica,sans-Serif" font-size="14.00">Runs</text>
</g>
<!-- LoadAndMerge -->
<g id="node14" class="node">
<title>LoadAndMerge</title>
<path fill="lightskyblue" stroke="black" d="M318.09,-982C318.09,-982 221.09,-982 221.09,-982 215.09,-982 209.09,-976 209.09,-970 209.09,-970 209.09,-958 209.09,-958 209.09,-952 215.09,-946 221.09,-946 221.09,-946 318.09,-946 318.09,-946 324.09,-946 330.09,-952 330.09,-958 330.09,-958 330.09,-970 330.09,-970 330.09,-976 324.09,-982 318.09,-982"/>
<text text-anchor="middle" x="269.59" y="-960.3" font-family="Helvetica,sans-Serif" font-size="14.00">LoadAndMerge</text>
</g>
<!-- Runs&#45;&gt;LoadAndMerge -->
<g id="edge1" class="edge">
<title>Runs&#45;&gt;LoadAndMerge</title>
<path fill="none" stroke="black" d="M269.59,-1018.81C269.59,-1010.79 269.59,-1001.05 269.59,-992.07"/>
<polygon fill="black" stroke="black" points="273.09,-992.03 269.59,-982.03 266.09,-992.03 273.09,-992.03"/>
</g>
<!-- BeamCenter -->
<g id="node3" class="node">
<title>BeamCenter</title>
<ellipse fill="khaki" stroke="black" cx="493.59" cy="-818" rx="66.89" ry="18"/>
<text text-anchor="middle" x="493.59" y="-814.3" font-family="Helvetica,sans-Serif" font-size="14.00">BeamCenter</text>
</g>
<!-- MoveInstrumentComponent -->
<g id="node17" class="node">
<title>MoveInstrumentComponent</title>
<path fill="lightskyblue" stroke="black" d="M489.09,-763C489.09,-763 302.09,-763 302.09,-763 296.09,-763 290.09,-757 290.09,-751 290.09,-751 290.09,-739 290.09,-739 290.09,-733 296.09,-727 302.09,-727 302.09,-727 489.09,-727 489.09,-727 495.09,-727 501.09,-733 501.09,-739 501.09,-739 501.09,-751 501.09,-751 501.09,-757 495.09,-763 489.09,-763"/>
<text text-anchor="middle" x="395.59" y="-741.3" font-family="Helvetica,sans-Serif" font-size="14.00">MoveInstrumentComponent</text>
</g>
<!-- BeamCenter&#45;&gt;MoveInstrumentComponent -->
<g id="edge8" class="edge">
<title>BeamCenter&#45;&gt;MoveInstrumentComponent</title>
<path fill="none" stroke="black" d="M471.35,-800.89C458.33,-791.45 441.65,-779.37 427.27,-768.95"/>
<polygon fill="black" stroke="black" points="429.26,-766.07 419.11,-763.04 425.15,-771.74 429.26,-766.07"/>
</g>
<!-- DarkCurrentWorkspace -->
<g id="node4" class="node">
<title>DarkCurrentWorkspace</title>
<ellipse fill="khaki" stroke="black" cx="271.59" cy="-891" rx="116.18" ry="18"/>
<text text-anchor="middle" x="271.59" y="-887.3" font-family="Helvetica,sans-Serif" font-size="14.00">DarkCurrentWorkspace</text>
</g>
<!-- Minus -->
<g id="node16" class="node">
<title>Minus</title>
<path fill="lightskyblue" stroke="black" d="M288.59,-836C288.59,-836 254.59,-836 254.59,-836 248.59,-836 242.59,-830 242.59,-824 242.59,-824 242.59,-812 242.59,-812 242.59,-806 248.59,-800 254.59,-800 254.59,-800 288.59,-800 288.59,-800 294.59,-800 300.59,-806 300.59,-812 300.59,-812 300.59,-824 300.59,-824 300.59,-830 294.59,-836 288.59,-836"/>
<text text-anchor="middle" x="271.59" y="-814.3" font-family="Helvetica,sans-Serif" font-size="14.00">Minus</text>
</g>
<!-- DarkCurrentWorkspace&#45;&gt;Minus -->
<g id="edge5" class="edge">
<title>DarkCurrentWorkspace&#45;&gt;Minus</title>
<path fill="none" stroke="black" d="M271.59,-872.81C271.59,-864.79 271.59,-855.05 271.59,-846.07"/>
<polygon fill="black" stroke="black" points="275.09,-846.03 271.59,-836.03 268.09,-846.03 275.09,-846.03"/>
</g>
<!-- EmptyBeamWorkspace -->
<g id="node5" class="node">
<title>EmptyBeamWorkspace</title>
<ellipse fill="khaki" stroke="black" cx="521.59" cy="-891" rx="115.88" ry="18"/>
<text text-anchor="middle" x="521.59" y="-887.3" font-family="Helvetica,sans-Serif" font-size="14.00">EmptyBeamWorkspace</text>
</g>
<!-- EmptyBeamWorkspace&#45;&gt;BeamCenter -->
<g id="edge7" class="edge">
<title>EmptyBeamWorkspace&#45;&gt;BeamCenter</title>
<path fill="none" stroke="black" d="M514.81,-872.81C511.58,-864.62 507.64,-854.62 504.04,-845.48"/>
<polygon fill="black" stroke="black" points="507.23,-844.05 500.31,-836.03 500.72,-846.62 507.23,-844.05"/>
</g>
<!-- FluxWorkspace -->
<g id="node6" class="node">
<title>FluxWorkspace</title>
<ellipse fill="khaki" stroke="black" cx="986.59" cy="-265" rx="79.09" ry="18"/>
<text text-anchor="middle" x="986.59" y="-261.3" font-family="Helvetica,sans-Serif" font-size="14.00">FluxWorkspace</text>
</g>
<!-- Divide4 -->
<g id="node24" class="node">
<title>Divide4</title>
<path fill="lightskyblue" stroke="black" d="M940.59,-196C940.59,-196 904.59,-196 904.59,-196 898.59,-196 892.59,-190 892.59,-184 892.59,-184 892.59,-172 892.59,-172 892.59,-166 898.59,-160 904.59,-160 904.59,-160 940.59,-160 940.59,-160 946.59,-160 952.59,-166 952.59,-172 952.59,-172 952.59,-184 952.59,-184 952.59,-190 946.59,-196 940.59,-196"/>
<text text-anchor="middle" x="922.59" y="-174.3" font-family="Helvetica,sans-Serif" font-size="14.00">Divide</text>
</g>
<!-- FluxWorkspace&#45;&gt;Divide4 -->
<g id="edge21" class="edge">
<title>FluxWorkspace&#45;&gt;Divide4</title>
<path fill="none" stroke="black" d="M973.95,-247.21C964.72,-234.95 952.04,-218.11 941.6,-204.24"/>
<polygon fill="black" stroke="black" points="944.24,-201.93 935.43,-196.05 938.65,-206.14 944.24,-201.93"/>
</g>
<!-- TransmissionWorkspace -->
<g id="node7" class="node">
<title>TransmissionWorkspace</title>
<ellipse fill="khaki" stroke="black" cx="637.59" cy="-745" rx="118.88" ry="18"/>
<text text-anchor="middle" x="637.59" y="-741.3" font-family="Helvetica,sans-Serif" font-size="14.00">TransmissionWorkspace</text>
</g>
<!-- ApplyTransmissionCorrection -->
<g id="node18" class="node">
<title>ApplyTransmissionCorrection</title>
<path fill="lightskyblue" stroke="black" d="M613.59,-690C613.59,-690 419.59,-690 419.59,-690 413.59,-690 407.59,-684 407.59,-678 407.59,-678 407.59,-666 407.59,-666 407.59,-660 413.59,-654 419.59,-654 419.59,-654 613.59,-654 613.59,-654 619.59,-654 625.59,-660 625.59,-666 625.59,-666 625.59,-678 625.59,-678 625.59,-684 619.59,-690 613.59,-690"/>
<text text-anchor="middle" x="516.59" y="-668.3" font-family="Helvetica,sans-Serif" font-size="14.00">ApplyTransmissionCorrection</text>
</g>
<!-- TransmissionWorkspace&#45;&gt;ApplyTransmissionCorrection -->
<g id="edge10" class="edge">
<title>TransmissionWorkspace&#45;&gt;ApplyTransmissionCorrection</title>
<path fill="none" stroke="black" d="M609.22,-727.35C592.92,-717.79 572.24,-705.66 554.56,-695.28"/>
<polygon fill="black" stroke="black" points="556.02,-692.08 545.62,-690.04 552.48,-698.11 556.02,-692.08"/>
</g>
<!-- EmptyContainerWorkspace -->
<g id="node8" class="node">
<title>EmptyContainerWorkspace</title>
<ellipse fill="khaki" stroke="black" cx="698.59" cy="-585" rx="133.78" ry="18"/>
<text text-anchor="middle" x="698.59" y="-581.3" font-family="Helvetica,sans-Serif" font-size="14.00">EmptyContainerWorkspace</text>
</g>
<!-- Minus2 -->
<g id="node20" class="node">
<title>Minus2</title>
<path fill="lightskyblue" stroke="black" d="M624.59,-530C624.59,-530 590.59,-530 590.59,-530 584.59,-530 578.59,-524 578.59,-518 578.59,-518 578.59,-506 578.59,-506 578.59,-500 584.59,-494 590.59,-494 590.59,-494 624.59,-494 624.59,-494 630.59,-494 636.59,-500 636.59,-506 636.59,-506 636.59,-518 636.59,-518 636.59,-524 630.59,-530 624.59,-530"/>
<text text-anchor="middle" x="607.59" y="-508.3" font-family="Helvetica,sans-Serif" font-size="14.00">Minus</text>
</g>
<!-- EmptyContainerWorkspace&#45;&gt;Minus2 -->
<g id="edge13" class="edge">
<title>EmptyContainerWorkspace&#45;&gt;Minus2</title>
<path fill="none" stroke="black" d="M677.03,-567.17C665.3,-558.02 650.61,-546.56 637.76,-536.54"/>
<polygon fill="black" stroke="black" points="639.67,-533.59 629.64,-530.2 635.37,-539.11 639.67,-533.59"/>
</g>
<!-- DefaultMaskWorkspace -->
<g id="node9" class="node">
<title>DefaultMaskWorkspace</title>
<ellipse fill="khaki" stroke="black" cx="770.59" cy="-512" rx="116.18" ry="18"/>
<text text-anchor="middle" x="770.59" y="-508.3" font-family="Helvetica,sans-Serif" font-size="14.00">DefaultMaskWorkspace</text>
</g>
<!-- MaskDetectors -->
<g id="node21" class="node">
<title>MaskDetectors</title>
<path fill="lightskyblue" stroke="black" d="M818.09,-443C818.09,-443 723.09,-443 723.09,-443 717.09,-443 711.09,-437 711.09,-431 711.09,-431 711.09,-419 711.09,-419 711.09,-413 717.09,-407 723.09,-407 723.09,-407 818.09,-407 818.09,-407 824.09,-407 830.09,-413 830.09,-419 830.09,-419 830.09,-431 830.09,-431 830.09,-437 824.09,-443 818.09,-443"/>
<text text-anchor="middle" x="770.59" y="-421.3" font-family="Helvetica,sans-Serif" font-size="14.00">MaskDetectors</text>
</g>
<!-- DefaultMaskWorkspace&#45;&gt;MaskDetectors -->
<g id="edge15" class="edge">
<title>DefaultMaskWorkspace&#45;&gt;MaskDetectors</title>
<path fill="none" stroke="black" d="M770.59,-493.8C770.59,-482.16 770.59,-466.55 770.59,-453.24"/>
<polygon fill="black" stroke="black" points="774.09,-453.18 770.59,-443.18 767.09,-453.18 774.09,-453.18"/>
<text text-anchor="middle" x="792.09" y="-464.8" font-family="Helvetica,sans-Serif" font-size="14.00">Edges</text>
</g>
<!-- MaskWorkspace -->
<g id="node10" class="node">
<title>MaskWorkspace</title>
<ellipse fill="khaki" stroke="black" cx="988.59" cy="-512" rx="83.69" ry="18"/>
<text text-anchor="middle" x="988.59" y="-508.3" font-family="Helvetica,sans-Serif" font-size="14.00">MaskWorkspace</text>
</g>
<!-- MaskWorkspace&#45;&gt;MaskDetectors -->
<g id="edge16" class="edge">
<title>MaskWorkspace&#45;&gt;MaskDetectors</title>
<path fill="none" stroke="black" d="M950.12,-496C915.08,-482.34 862.99,-462.02 823.93,-446.8"/>
<polygon fill="black" stroke="black" points="824.89,-443.41 814.3,-443.04 822.34,-449.93 824.89,-443.41"/>
<text text-anchor="middle" x="928.59" y="-464.8" font-family="Helvetica,sans-Serif" font-size="14.00">BeamStop</text>
</g>
<!-- SampleThickness -->
<g id="node11" class="node">
<title>SampleThickness</title>
<ellipse fill="khaki" stroke="black" cx="949.59" cy="-352" rx="89.08" ry="18"/>
<text text-anchor="middle" x="949.59" y="-348.3" font-family="Helvetica,sans-Serif" font-size="14.00">SampleThickness</text>
</g>
<!-- Divide3 -->
<g id="node23" class="node">
<title>Divide3</title>
<path fill="lightskyblue" stroke="black" d="M877.59,-283C877.59,-283 841.59,-283 841.59,-283 835.59,-283 829.59,-277 829.59,-271 829.59,-271 829.59,-259 829.59,-259 829.59,-253 835.59,-247 841.59,-247 841.59,-247 877.59,-247 877.59,-247 883.59,-247 889.59,-253 889.59,-259 889.59,-259 889.59,-271 889.59,-271 889.59,-277 883.59,-283 877.59,-283"/>
<text text-anchor="middle" x="859.59" y="-261.3" font-family="Helvetica,sans-Serif" font-size="14.00">Divide</text>
</g>
<!-- SampleThickness&#45;&gt;Divide3 -->
<g id="edge19" class="edge">
<title>SampleThickness&#45;&gt;Divide3</title>
<path fill="none" stroke="black" d="M931.81,-334.21C918.46,-321.6 899.99,-304.16 885.08,-290.07"/>
<polygon fill="black" stroke="black" points="887.32,-287.37 877.64,-283.05 882.51,-292.46 887.32,-287.37"/>
</g>
<!-- FlatFieldWorkspace -->
<g id="node12" class="node">
<title>FlatFieldWorkspace</title>
<ellipse fill="khaki" stroke="black" cx="1068.59" cy="-178" rx="98.28" ry="18"/>
<text text-anchor="middle" x="1068.59" y="-174.3" font-family="Helvetica,sans-Serif" font-size="14.00">FlatFieldWorkspace</text>
</g>
<!-- Divide5 -->
<g id="node25" class="node">
<title>Divide5</title>
<path fill="lightskyblue" stroke="black" d="M1013.59,-109C1013.59,-109 977.59,-109 977.59,-109 971.59,-109 965.59,-103 965.59,-97 965.59,-97 965.59,-85 965.59,-85 965.59,-79 971.59,-73 977.59,-73 977.59,-73 1013.59,-73 1013.59,-73 1019.59,-73 1025.59,-79 1025.59,-85 1025.59,-85 1025.59,-97 1025.59,-97 1025.59,-103 1019.59,-109 1013.59,-109"/>
<text text-anchor="middle" x="995.59" y="-87.3" font-family="Helvetica,sans-Serif" font-size="14.00">Divide</text>
</g>
<!-- FlatFieldWorkspace&#45;&gt;Divide5 -->
<g id="edge23" class="edge">
<title>FlatFieldWorkspace&#45;&gt;Divide5</title>
<path fill="none" stroke="black" d="M1067.02,-159.82C1065.33,-149.44 1061.83,-136.44 1054.59,-127 1049.23,-120 1042.03,-114.13 1034.51,-109.31"/>
<polygon fill="black" stroke="black" points="1036.03,-106.14 1025.63,-104.13 1032.5,-112.19 1036.03,-106.14"/>
</g>
<!-- OutputWorkspace -->
<g id="node13" class="node">
<title>OutputWorkspace</title>
<polygon fill="grey" stroke="black" points="1133.94,-36 913.86,-36 857.24,0 1077.33,0 1133.94,-36"/>
<text text-anchor="middle" x="995.59" y="-14.3" font-family="Times,serif" font-size="14.00">OutputWorkspace</text>
</g>
<!-- LoadAndMerge&#45;&gt;Divide -->
<g id="edge2" class="edge">
<title>LoadAndMerge&#45;&gt;Divide</title>
<path fill="none" stroke="black" d="M230.79,-945.99C205.47,-934.9 172.53,-920.46 147.08,-909.31"/>
<polygon fill="black" stroke="black" points="148.29,-906.01 137.72,-905.2 145.48,-912.42 148.29,-906.01"/>
</g>
<!-- Divide&#45;&gt;Minus -->
<g id="edge4" class="edge">
<title>Divide&#45;&gt;Minus</title>
<path fill="none" stroke="black" d="M137.82,-876.81C140.78,-875.52 143.75,-874.23 146.59,-873 175.6,-860.41 208.41,-846.24 233.14,-835.57"/>
<polygon fill="black" stroke="black" points="234.74,-838.7 242.53,-831.52 231.97,-832.27 234.74,-838.7"/>
</g>
<!-- Minus&#45;&gt;MoveInstrumentComponent -->
<g id="edge6" class="edge">
<title>Minus&#45;&gt;MoveInstrumentComponent</title>
<path fill="none" stroke="black" d="M300.66,-800.35C317.37,-790.79 338.56,-778.66 356.68,-768.28"/>
<polygon fill="black" stroke="black" points="358.9,-771.04 365.84,-763.04 355.42,-764.97 358.9,-771.04"/>
</g>
<!-- MoveInstrumentComponent&#45;&gt;ApplyTransmissionCorrection -->
<g id="edge9" class="edge">
<title>MoveInstrumentComponent&#45;&gt;ApplyTransmissionCorrection</title>
<path fill="none" stroke="black" d="M424.57,-726.99C440.77,-717.49 461.14,-705.54 478.6,-695.29"/>
<polygon fill="black" stroke="black" points="480.57,-698.19 487.43,-690.11 477.03,-692.16 480.57,-698.19"/>
</g>
<!-- Divide2 -->
<g id="node22" class="node">
<title>Divide2</title>
<path fill="lightskyblue" stroke="black" d="M534.59,-603C534.59,-603 498.59,-603 498.59,-603 492.59,-603 486.59,-597 486.59,-591 486.59,-591 486.59,-579 486.59,-579 486.59,-573 492.59,-567 498.59,-567 498.59,-567 534.59,-567 534.59,-567 540.59,-567 546.59,-573 546.59,-579 546.59,-579 546.59,-591 546.59,-591 546.59,-597 540.59,-603 534.59,-603"/>
<text text-anchor="middle" x="516.59" y="-581.3" font-family="Helvetica,sans-Serif" font-size="14.00">Divide</text>
</g>
<!-- ApplyTransmissionCorrection&#45;&gt;Divide2 -->
<g id="edge11" class="edge">
<title>ApplyTransmissionCorrection&#45;&gt;Divide2</title>
<path fill="none" stroke="black" d="M516.59,-653.8C516.59,-642.16 516.59,-626.55 516.59,-613.24"/>
<polygon fill="black" stroke="black" points="520.09,-613.18 516.59,-603.18 513.09,-613.18 520.09,-613.18"/>
<text text-anchor="middle" x="553.59" y="-624.8" font-family="Helvetica,sans-Serif" font-size="14.00">SolidAngle</text>
</g>
<!-- ParallaxCorrection -->
<g id="node19" class="node">
<title>ParallaxCorrection</title>
<path fill="lightskyblue" stroke="black" d="M830.09,-370C830.09,-370 711.09,-370 711.09,-370 705.09,-370 699.09,-364 699.09,-358 699.09,-358 699.09,-346 699.09,-346 699.09,-340 705.09,-334 711.09,-334 711.09,-334 830.09,-334 830.09,-334 836.09,-334 842.09,-340 842.09,-346 842.09,-346 842.09,-358 842.09,-358 842.09,-364 836.09,-370 830.09,-370"/>
<text text-anchor="middle" x="770.59" y="-348.3" font-family="Helvetica,sans-Serif" font-size="14.00">ParallaxCorrection</text>
</g>
<!-- ParallaxCorrection&#45;&gt;Divide3 -->
<g id="edge18" class="edge">
<title>ParallaxCorrection&#45;&gt;Divide3</title>
<path fill="none" stroke="black" d="M788.6,-333.8C801.75,-321.24 819.75,-304.05 834.34,-290.12"/>
<polygon fill="black" stroke="black" points="836.79,-292.61 841.61,-283.18 831.96,-287.55 836.79,-292.61"/>
<text text-anchor="middle" x="854.59" y="-304.8" font-family="Helvetica,sans-Serif" font-size="14.00">Thickness</text>
</g>
<!-- Minus2&#45;&gt;MaskDetectors -->
<g id="edge14" class="edge">
<title>Minus2&#45;&gt;MaskDetectors</title>
<path fill="none" stroke="black" d="M636.73,-495.8C662.35,-482.45 699.93,-462.85 728.76,-447.82"/>
<polygon fill="black" stroke="black" points="730.53,-450.84 737.78,-443.11 727.3,-444.63 730.53,-450.84"/>
</g>
<!-- MaskDetectors&#45;&gt;ParallaxCorrection -->
<g id="edge17" class="edge">
<title>MaskDetectors&#45;&gt;ParallaxCorrection</title>
<path fill="none" stroke="black" d="M770.59,-406.81C770.59,-398.79 770.59,-389.05 770.59,-380.07"/>
<polygon fill="black" stroke="black" points="774.09,-380.03 770.59,-370.03 767.09,-380.03 774.09,-380.03"/>
</g>
<!-- Divide2&#45;&gt;Minus2 -->
<g id="edge12" class="edge">
<title>Divide2&#45;&gt;Minus2</title>
<path fill="none" stroke="black" d="M538.62,-566.81C550.36,-557.66 564.96,-546.26 577.71,-536.32"/>
<polygon fill="black" stroke="black" points="580.04,-538.94 585.77,-530.03 575.73,-533.42 580.04,-538.94"/>
</g>
<!-- Divide3&#45;&gt;Divide4 -->
<g id="edge20" class="edge">
<title>Divide3&#45;&gt;Divide4</title>
<path fill="none" stroke="black" d="M872.34,-246.8C881.39,-234.59 893.69,-217.99 903.86,-204.28"/>
<polygon fill="black" stroke="black" points="906.72,-206.29 909.86,-196.18 901.1,-202.13 906.72,-206.29"/>
<text text-anchor="middle" x="909.59" y="-217.8" font-family="Helvetica,sans-Serif" font-size="14.00">Flux</text>
</g>
<!-- Divide4&#45;&gt;Divide5 -->
<g id="edge22" class="edge">
<title>Divide4&#45;&gt;Divide5</title>
<path fill="none" stroke="black" d="M918.72,-159.97C917.34,-149.65 917.42,-136.65 923.59,-127 930.99,-115.43 943.41,-107.58 955.86,-102.3"/>
<polygon fill="black" stroke="black" points="957.19,-105.54 965.31,-98.74 954.72,-98.99 957.19,-105.54"/>
<text text-anchor="middle" x="989.09" y="-130.8" font-family="Helvetica,sans-Serif" font-size="14.00">WaterOrSensitivity</text>
</g>
<!-- Divide5&#45;&gt;OutputWorkspace -->
<g id="edge24" class="edge">
<title>Divide5&#45;&gt;OutputWorkspace</title>
<path fill="none" stroke="black" d="M995.59,-72.81C995.59,-64.79 995.59,-55.05 995.59,-46.07"/>
<polygon fill="black" stroke="black" points="999.09,-46.03 995.59,-36.03 992.09,-46.03 999.09,-46.03"/>
</g>
</g>
</svg>
