<?xml version="1.0" encoding="UTF-8" standalone="no"?>
<!DOCTYPE svg PUBLIC "-//W3C//DTD SVG 1.1//EN"
 "http://www.w3.org/Graphics/SVG/1.1/DTD/svg11.dtd">
<!-- Generated by graphviz version 3.0.0 (20220315.2325)
 -->
<!-- Title: Beam Pages: 1 -->
<svg width="679pt" height="836pt"
 viewBox="0.00 0.00 678.52 836.00" xmlns="http://www.w3.org/2000/svg" xmlns:xlink="http://www.w3.org/1999/xlink">
<g id="graph0" class="graph" transform="scale(1 1) rotate(0) translate(4 832)">
<title>Beam</title>
<polygon fill="white" stroke="transparent" points="-4,4 -4,-832 674.52,-832 674.52,4 -4,4"/>
<!-- NormaliseBy -->
<g id="node1" class="node">
<title>NormaliseBy</title>
<polygon fill="limegreen" stroke="black" points="441.54,-684 345.86,-666 441.54,-648 537.23,-666 441.54,-684"/>
<text text-anchor="middle" x="441.54" y="-662.3" font-family="Helvetica,sans-Serif" font-size="14.00">NormaliseBy</text>
</g>
<!-- Divide -->
<g id="node12" class="node">
<title>Divide</title>
<path fill="lightskyblue" stroke="black" d="M459.54,-612C459.54,-612 423.54,-612 423.54,-612 417.54,-612 411.54,-606 411.54,-600 411.54,-600 411.54,-588 411.54,-588 411.54,-582 417.54,-576 423.54,-576 423.54,-576 459.54,-576 459.54,-576 465.54,-576 471.54,-582 471.54,-588 471.54,-588 471.54,-600 471.54,-600 471.54,-606 465.54,-612 459.54,-612"/>
<text text-anchor="middle" x="441.54" y="-590.3" font-family="Helvetica,sans-Serif" font-size="14.00">Divide</text>
</g>
<!-- NormaliseBy&#45;&gt;Divide -->
<g id="edge3" class="edge">
<title>NormaliseBy&#45;&gt;Divide</title>
<path fill="none" stroke="black" d="M441.54,-647.7C441.54,-639.98 441.54,-630.71 441.54,-622.11"/>
<polygon fill="black" stroke="black" points="445.04,-622.1 441.54,-612.1 438.04,-622.1 445.04,-622.1"/>
</g>
<!-- DirectBeam -->
<g id="node2" class="node">
<title>DirectBeam</title>
<polygon fill="limegreen" stroke="black" points="348.54,-396 259.22,-378 348.54,-360 437.86,-378 348.54,-396"/>
<text text-anchor="middle" x="348.54" y="-374.3" font-family="Helvetica,sans-Serif" font-size="14.00">DirectBeam</text>
</g>
<!-- BeamCenterX -->
<g id="node6" class="node">
<title>BeamCenterX</title>
<polygon fill="grey" stroke="black" points="221.12,-324 45.21,-324 -0.04,-288 175.87,-288 221.12,-324"/>
<text text-anchor="middle" x="110.54" y="-302.3" font-family="Times,serif" font-size="14.00">BeamCenterX</text>
</g>
<!-- DirectBeam&#45;&gt;BeamCenterX -->
<g id="edge9" class="edge">
<title>DirectBeam&#45;&gt;BeamCenterX</title>
<path fill="none" stroke="black" d="M314.19,-366.9C278.76,-356.48 222.59,-339.96 178.2,-326.9"/>
<polygon fill="black" stroke="black" points="178.93,-323.47 168.35,-324 176.95,-330.18 178.93,-323.47"/>
</g>
<!-- BeamCenterY -->
<g id="node7" class="node">
<title>BeamCenterY</title>
<polygon fill="grey" stroke="black" points="458.22,-324 283.75,-324 238.86,-288 413.33,-288 458.22,-324"/>
<text text-anchor="middle" x="348.54" y="-302.3" font-family="Times,serif" font-size="14.00">BeamCenterY</text>
</g>
<!-- DirectBeam&#45;&gt;BeamCenterY -->
<g id="edge10" class="edge">
<title>DirectBeam&#45;&gt;BeamCenterY</title>
<path fill="none" stroke="black" d="M348.54,-359.7C348.54,-351.98 348.54,-342.71 348.54,-334.11"/>
<polygon fill="black" stroke="black" points="352.04,-334.1 348.54,-324.1 345.04,-334.1 352.04,-334.1"/>
</g>
<!-- Run -->
<g id="node3" class="node">
<title>Run</title>
<ellipse fill="khaki" stroke="black" cx="441.54" cy="-810" rx="28.7" ry="18"/>
<text text-anchor="middle" x="441.54" y="-806.3" font-family="Helvetica,sans-Serif" font-size="14.00">Run</text>
</g>
<!-- LoadAndMerge -->
<g id="node11" class="node">
<title>LoadAndMerge</title>
<path fill="lightskyblue" stroke="black" d="M490.04,-756C490.04,-756 393.04,-756 393.04,-756 387.04,-756 381.04,-750 381.04,-744 381.04,-744 381.04,-732 381.04,-732 381.04,-726 387.04,-720 393.04,-720 393.04,-720 490.04,-720 490.04,-720 496.04,-720 502.04,-726 502.04,-732 502.04,-732 502.04,-744 502.04,-744 502.04,-750 496.04,-756 490.04,-756"/>
<text text-anchor="middle" x="441.54" y="-734.3" font-family="Helvetica,sans-Serif" font-size="14.00">LoadAndMerge</text>
</g>
<!-- Run&#45;&gt;LoadAndMerge -->
<g id="edge1" class="edge">
<title>Run&#45;&gt;LoadAndMerge</title>
<path fill="none" stroke="black" d="M441.54,-791.7C441.54,-783.98 441.54,-774.71 441.54,-766.11"/>
<polygon fill="black" stroke="black" points="445.04,-766.1 441.54,-756.1 438.04,-766.1 445.04,-766.1"/>
</g>
<!-- BeamRadius -->
<g id="node4" class="node">
<title>BeamRadius</title>
<ellipse fill="khaki" stroke="black" cx="477.54" cy="-522" rx="67.69" ry="18"/>
<text text-anchor="middle" x="477.54" y="-518.3" font-family="Helvetica,sans-Serif" font-size="14.00">BeamRadius</text>
</g>
<!-- FindCenterOfMassPosition -->
<g id="node14" class="node">
<title>FindCenterOfMassPosition</title>
<path fill="lightskyblue" stroke="black" d="M441.54,-468C441.54,-468 267.54,-468 267.54,-468 261.54,-468 255.54,-462 255.54,-456 255.54,-456 255.54,-444 255.54,-444 255.54,-438 261.54,-432 267.54,-432 267.54,-432 441.54,-432 441.54,-432 447.54,-432 453.54,-438 453.54,-444 453.54,-444 453.54,-456 453.54,-456 453.54,-462 447.54,-468 441.54,-468"/>
<text text-anchor="middle" x="354.54" y="-446.3" font-family="Helvetica,sans-Serif" font-size="14.00">FindCenterOfMassPosition</text>
</g>
<!-- BeamRadius&#45;&gt;FindCenterOfMassPosition -->
<g id="edge7" class="edge">
<title>BeamRadius&#45;&gt;FindCenterOfMassPosition</title>
<path fill="none" stroke="black" d="M450.24,-505.46C433.58,-495.98 412,-483.7 393.55,-473.2"/>
<polygon fill="black" stroke="black" points="395.21,-470.12 384.78,-468.21 391.74,-476.2 395.21,-470.12"/>
</g>
<!-- IntegrateInRadius -->
<g id="node16" class="node">
<title>IntegrateInRadius</title>
<polygon fill="lightseagreen" stroke="black" points="488.04,-180 347.04,-180 347.04,-144 488.04,-144 488.04,-180"/>
<text text-anchor="middle" x="417.54" y="-158.3" font-family="Helvetica,sans-Serif" font-size="14.00">IntegrateInRadius</text>
</g>
<!-- BeamRadius&#45;&gt;IntegrateInRadius -->
<g id="edge13" class="edge">
<title>BeamRadius&#45;&gt;IntegrateInRadius</title>
<path fill="none" stroke="black" d="M479.32,-503.97C481.94,-477.34 486.54,-424.21 486.54,-379 486.54,-379 486.54,-379 486.54,-305 486.54,-264.14 482.55,-252.17 463.54,-216 458.16,-205.76 450.44,-195.83 442.86,-187.38"/>
<polygon fill="black" stroke="black" points="445.41,-184.97 436.01,-180.07 440.3,-189.76 445.41,-184.97"/>
</g>
<!-- AbsorberInputWorkspace -->
<g id="node5" class="node">
<title>AbsorberInputWorkspace</title>
<ellipse fill="khaki" stroke="black" cx="267.54" cy="-594" rx="126.18" ry="18"/>
<text text-anchor="middle" x="267.54" y="-590.3" font-family="Helvetica,sans-Serif" font-size="14.00">AbsorberInputWorkspace</text>
</g>
<!-- Minus -->
<g id="node13" class="node">
<title>Minus</title>
<path fill="lightskyblue" stroke="black" d="M371.54,-540C371.54,-540 337.54,-540 337.54,-540 331.54,-540 325.54,-534 325.54,-528 325.54,-528 325.54,-516 325.54,-516 325.54,-510 331.54,-504 337.54,-504 337.54,-504 371.54,-504 371.54,-504 377.54,-504 383.54,-510 383.54,-516 383.54,-516 383.54,-528 383.54,-528 383.54,-534 377.54,-540 371.54,-540"/>
<text text-anchor="middle" x="354.54" y="-518.3" font-family="Helvetica,sans-Serif" font-size="14.00">Minus</text>
</g>
<!-- AbsorberInputWorkspace&#45;&gt;Minus -->
<g id="edge5" class="edge">
<title>AbsorberInputWorkspace&#45;&gt;Minus</title>
<path fill="none" stroke="black" d="M288.6,-576.05C299.63,-567.18 313.32,-556.17 325.35,-546.48"/>
<polygon fill="black" stroke="black" points="327.78,-549.03 333.37,-540.03 323.39,-543.57 327.78,-549.03"/>
</g>
<!-- MoveInstrumentComponent -->
<g id="node15" class="node">
<title>MoveInstrumentComponent</title>
<path fill="lightskyblue" stroke="black" d="M442.04,-252C442.04,-252 255.04,-252 255.04,-252 249.04,-252 243.04,-246 243.04,-240 243.04,-240 243.04,-228 243.04,-228 243.04,-222 249.04,-216 255.04,-216 255.04,-216 442.04,-216 442.04,-216 448.04,-216 454.04,-222 454.04,-228 454.04,-228 454.04,-240 454.04,-240 454.04,-246 448.04,-252 442.04,-252"/>
<text text-anchor="middle" x="348.54" y="-230.3" font-family="Helvetica,sans-Serif" font-size="14.00">MoveInstrumentComponent</text>
</g>
<!-- BeamCenterX&#45;&gt;MoveInstrumentComponent -->
<g id="edge11" class="edge">
<title>BeamCenterX&#45;&gt;MoveInstrumentComponent</title>
<path fill="none" stroke="black" d="M168.46,-287.97C202.29,-278.01 245.16,-265.41 280.58,-254.99"/>
<polygon fill="black" stroke="black" points="281.76,-258.29 290.36,-252.11 279.78,-251.57 281.76,-258.29"/>
</g>
<!-- BeamCenterY&#45;&gt;MoveInstrumentComponent -->
<g id="edge12" class="edge">
<title>BeamCenterY&#45;&gt;MoveInstrumentComponent</title>
<path fill="none" stroke="black" d="M348.54,-287.7C348.54,-279.98 348.54,-270.71 348.54,-262.11"/>
<polygon fill="black" stroke="black" points="352.04,-262.1 348.54,-252.1 345.04,-262.1 352.04,-262.1"/>
</g>
<!-- BeamFluxValue -->
<g id="node8" class="node">
<title>BeamFluxValue</title>
<polygon fill="grey" stroke="black" points="408.49,-108 214.49,-108 164.59,-72 358.59,-72 408.49,-108"/>
<text text-anchor="middle" x="286.54" y="-86.3" font-family="Times,serif" font-size="14.00">BeamFluxValue</text>
</g>
<!-- OutputWorkspace -->
<g id="node10" class="node">
<title>OutputWorkspace</title>
<polygon fill="grey" stroke="black" points="555.89,-36 335.81,-36 279.19,0 499.28,0 555.89,-36"/>
<text text-anchor="middle" x="417.54" y="-14.3" font-family="Times,serif" font-size="14.00">OutputWorkspace</text>
</g>
<!-- BeamFluxValue&#45;&gt;OutputWorkspace -->
<g id="edge17" class="edge">
<title>BeamFluxValue&#45;&gt;OutputWorkspace</title>
<path fill="none" stroke="black" d="M318.59,-71.88C336.03,-62.55 357.81,-50.92 376.48,-40.94"/>
<polygon fill="black" stroke="black" points="378.2,-43.99 385.37,-36.19 374.9,-37.82 378.2,-43.99"/>
</g>
<!-- BeamFluxError -->
<g id="node9" class="node">
<title>BeamFluxError</title>
<polygon fill="grey" stroke="black" points="670.49,-108 476.49,-108 426.59,-72 620.59,-72 670.49,-108"/>
<text text-anchor="middle" x="548.54" y="-86.3" font-family="Times,serif" font-size="14.00">BeamFluxError</text>
</g>
<!-- BeamFluxError&#45;&gt;OutputWorkspace -->
<g id="edge18" class="edge">
<title>BeamFluxError&#45;&gt;OutputWorkspace</title>
<path fill="none" stroke="black" d="M516.49,-71.88C499.05,-62.55 477.28,-50.92 458.6,-40.94"/>
<polygon fill="black" stroke="black" points="460.18,-37.82 449.71,-36.19 456.88,-43.99 460.18,-37.82"/>
</g>
<!-- LoadAndMerge&#45;&gt;NormaliseBy -->
<g id="edge2" class="edge">
<title>LoadAndMerge&#45;&gt;NormaliseBy</title>
<path fill="none" stroke="black" d="M441.54,-719.7C441.54,-711.98 441.54,-702.71 441.54,-694.11"/>
<polygon fill="black" stroke="black" points="445.04,-694.1 441.54,-684.1 438.04,-694.1 445.04,-694.1"/>
</g>
<!-- Divide&#45;&gt;Minus -->
<g id="edge4" class="edge">
<title>Divide&#45;&gt;Minus</title>
<path fill="none" stroke="black" d="M420.04,-575.7C409.08,-566.88 395.6,-556.03 383.72,-546.47"/>
<polygon fill="black" stroke="black" points="385.78,-543.65 375.8,-540.1 381.4,-549.1 385.78,-543.65"/>
</g>
<!-- Minus&#45;&gt;FindCenterOfMassPosition -->
<g id="edge6" class="edge">
<title>Minus&#45;&gt;FindCenterOfMassPosition</title>
<path fill="none" stroke="black" d="M354.54,-503.7C354.54,-495.98 354.54,-486.71 354.54,-478.11"/>
<polygon fill="black" stroke="black" points="358.04,-478.1 354.54,-468.1 351.04,-478.1 358.04,-478.1"/>
</g>
<!-- FindCenterOfMassPosition&#45;&gt;DirectBeam -->
<g id="edge8" class="edge">
<title>FindCenterOfMassPosition&#45;&gt;DirectBeam</title>
<path fill="none" stroke="black" d="M353.06,-431.7C352.4,-423.98 351.6,-414.71 350.86,-406.11"/>
<polygon fill="black" stroke="black" points="354.35,-405.77 350.01,-396.1 347.37,-406.37 354.35,-405.77"/>
</g>
<!-- MoveInstrumentComponent&#45;&gt;IntegrateInRadius -->
<g id="edge14" class="edge">
<title>MoveInstrumentComponent&#45;&gt;IntegrateInRadius</title>
<path fill="none" stroke="black" d="M365.6,-215.7C374.04,-207.14 384.37,-196.66 393.58,-187.3"/>
<polygon fill="black" stroke="black" points="396.15,-189.68 400.68,-180.1 391.17,-184.77 396.15,-189.68"/>
</g>
<!-- IntegrateInRadius&#45;&gt;BeamFluxValue -->
<g id="edge15" class="edge">
<title>IntegrateInRadius&#45;&gt;BeamFluxValue</title>
<path fill="none" stroke="black" d="M385.49,-143.88C368.05,-134.55 346.28,-122.92 327.6,-112.94"/>
<polygon fill="black" stroke="black" points="329.18,-109.82 318.71,-108.19 325.88,-115.99 329.18,-109.82"/>
</g>
<!-- IntegrateInRadius&#45;&gt;BeamFluxError -->
<g id="edge16" class="edge">
<title>IntegrateInRadius&#45;&gt;BeamFluxError</title>
<path fill="none" stroke="black" d="M449.59,-143.88C467.03,-134.55 488.81,-122.92 507.48,-112.94"/>
<polygon fill="black" stroke="black" points="509.2,-115.99 516.37,-108.19 505.9,-109.82 509.2,-115.99"/>
</g>
</g>
</svg>
