<?xml version="1.0" encoding="UTF-8" standalone="no"?>
<!DOCTYPE svg PUBLIC "-//W3C//DTD SVG 1.1//EN"
 "http://www.w3.org/Graphics/SVG/1.1/DTD/svg11.dtd">
<!-- Generated by graphviz version 2.40.1 (20161225.0304)
 -->
<!-- Title: Reference Pages: 1 -->
<svg width="1069pt" height="1063pt"
 viewBox="0.00 0.00 1069.44 1063.00" xmlns="http://www.w3.org/2000/svg" xmlns:xlink="http://www.w3.org/1999/xlink">
<g id="graph0" class="graph" transform="scale(1 1) rotate(0) translate(4 1059)">
<title>Reference</title>
<polygon fill="#ffffff" stroke="transparent" points="-4,4 -4,-1059 1065.4429,-1059 1065.4429,4 -4,4"/>
<!-- NormaliseBy -->
<g id="node1" class="node">
<title>NormaliseBy</title>
<polygon fill="#32cd32" stroke="#000000" points="86.4008,-982 .0991,-964 86.4008,-946 172.7025,-964 86.4008,-982"/>
<text text-anchor="middle" x="86.4008" y="-960.3" font-family="Helvetica,sans-Serif" font-size="14.00" fill="#000000">NormaliseBy</text>
</g>
<!-- Divide -->
<g id="node15" class="node">
<title>Divide</title>
<path fill="#87cefa" stroke="#000000" d="M113.4008,-909C113.4008,-909 83.4008,-909 83.4008,-909 77.4008,-909 71.4008,-903 71.4008,-897 71.4008,-897 71.4008,-885 71.4008,-885 71.4008,-879 77.4008,-873 83.4008,-873 83.4008,-873 113.4008,-873 113.4008,-873 119.4008,-873 125.4008,-879 125.4008,-885 125.4008,-885 125.4008,-897 125.4008,-897 125.4008,-903 119.4008,-909 113.4008,-909"/>
<text text-anchor="middle" x="98.4008" y="-887.3" font-family="Helvetica,sans-Serif" font-size="14.00" fill="#000000">Divide</text>
</g>
<!-- NormaliseBy&#45;&gt;Divide -->
<g id="edge3" class="edge">
<title>NormaliseBy&#45;&gt;Divide</title>
<path fill="none" stroke="#000000" d="M89.3056,-946.3287C90.6563,-938.1123 92.2951,-928.1429 93.8075,-918.9424"/>
<polygon fill="#000000" stroke="#000000" points="97.2708,-919.451 95.4393,-909.0157 90.3635,-918.3155 97.2708,-919.451"/>
</g>
<!-- Runs -->
<g id="node2" class="node">
<title>Runs</title>
<ellipse fill="#f0e68c" stroke="#000000" cx="245.4008" cy="-1037" rx="31.3957" ry="18"/>
<text text-anchor="middle" x="245.4008" y="-1033.3" font-family="Helvetica,sans-Serif" font-size="14.00" fill="#000000">Runs</text>
</g>
<!-- LoadAndMerge -->
<g id="node14" class="node">
<title>LoadAndMerge</title>
<path fill="#87cefa" stroke="#000000" d="M288.4008,-982C288.4008,-982 202.4008,-982 202.4008,-982 196.4008,-982 190.4008,-976 190.4008,-970 190.4008,-970 190.4008,-958 190.4008,-958 190.4008,-952 196.4008,-946 202.4008,-946 202.4008,-946 288.4008,-946 288.4008,-946 294.4008,-946 300.4008,-952 300.4008,-958 300.4008,-958 300.4008,-970 300.4008,-970 300.4008,-976 294.4008,-982 288.4008,-982"/>
<text text-anchor="middle" x="245.4008" y="-960.3" font-family="Helvetica,sans-Serif" font-size="14.00" fill="#000000">LoadAndMerge</text>
</g>
<!-- Runs&#45;&gt;LoadAndMerge -->
<g id="edge1" class="edge">
<title>Runs&#45;&gt;LoadAndMerge</title>
<path fill="none" stroke="#000000" d="M245.4008,-1018.9551C245.4008,-1010.8828 245.4008,-1001.1764 245.4008,-992.1817"/>
<polygon fill="#000000" stroke="#000000" points="248.9009,-992.0903 245.4008,-982.0904 241.9009,-992.0904 248.9009,-992.0903"/>
</g>
<!-- BeamCenter -->
<g id="node3" class="node">
<title>BeamCenter</title>
<ellipse fill="#f0e68c" stroke="#000000" cx="446.4008" cy="-818" rx="60.3893" ry="18"/>
<text text-anchor="middle" x="446.4008" y="-814.3" font-family="Helvetica,sans-Serif" font-size="14.00" fill="#000000">BeamCenter</text>
</g>
<!-- MoveInstrumentComponent -->
<g id="node17" class="node">
<title>MoveInstrumentComponent</title>
<path fill="#87cefa" stroke="#000000" d="M438.9008,-763C438.9008,-763 277.9008,-763 277.9008,-763 271.9008,-763 265.9008,-757 265.9008,-751 265.9008,-751 265.9008,-739 265.9008,-739 265.9008,-733 271.9008,-727 277.9008,-727 277.9008,-727 438.9008,-727 438.9008,-727 444.9008,-727 450.9008,-733 450.9008,-739 450.9008,-739 450.9008,-751 450.9008,-751 450.9008,-757 444.9008,-763 438.9008,-763"/>
<text text-anchor="middle" x="358.4008" y="-741.3" font-family="Helvetica,sans-Serif" font-size="14.00" fill="#000000">MoveInstrumentComponent</text>
</g>
<!-- BeamCenter&#45;&gt;MoveInstrumentComponent -->
<g id="edge8" class="edge">
<title>BeamCenter&#45;&gt;MoveInstrumentComponent</title>
<path fill="none" stroke="#000000" d="M425.546,-800.7C414.3723,-791.4309 400.4146,-779.8524 388.1239,-769.6567"/>
<polygon fill="#000000" stroke="#000000" points="390.2651,-766.8854 380.3339,-763.1945 385.7958,-772.2729 390.2651,-766.8854"/>
</g>
<!-- DarkCurrentWorkspace -->
<g id="node4" class="node">
<title>DarkCurrentWorkspace</title>
<ellipse fill="#f0e68c" stroke="#000000" cx="246.4008" cy="-891" rx="102.8821" ry="18"/>
<text text-anchor="middle" x="246.4008" y="-887.3" font-family="Helvetica,sans-Serif" font-size="14.00" fill="#000000">DarkCurrentWorkspace</text>
</g>
<!-- Minus -->
<g id="node16" class="node">
<title>Minus</title>
<path fill="#87cefa" stroke="#000000" d="M261.4008,-836C261.4008,-836 231.4008,-836 231.4008,-836 225.4008,-836 219.4008,-830 219.4008,-824 219.4008,-824 219.4008,-812 219.4008,-812 219.4008,-806 225.4008,-800 231.4008,-800 231.4008,-800 261.4008,-800 261.4008,-800 267.4008,-800 273.4008,-806 273.4008,-812 273.4008,-812 273.4008,-824 273.4008,-824 273.4008,-830 267.4008,-836 261.4008,-836"/>
<text text-anchor="middle" x="246.4008" y="-814.3" font-family="Helvetica,sans-Serif" font-size="14.00" fill="#000000">Minus</text>
</g>
<!-- DarkCurrentWorkspace&#45;&gt;Minus -->
<g id="edge5" class="edge">
<title>DarkCurrentWorkspace&#45;&gt;Minus</title>
<path fill="none" stroke="#000000" d="M246.4008,-872.9551C246.4008,-864.8828 246.4008,-855.1764 246.4008,-846.1817"/>
<polygon fill="#000000" stroke="#000000" points="249.9009,-846.0903 246.4008,-836.0904 242.9009,-846.0904 249.9009,-846.0903"/>
</g>
<!-- EmptyBeamWorkspace -->
<g id="node5" class="node">
<title>EmptyBeamWorkspace</title>
<ellipse fill="#f0e68c" stroke="#000000" cx="471.4008" cy="-891" rx="103.9815" ry="18"/>
<text text-anchor="middle" x="471.4008" y="-887.3" font-family="Helvetica,sans-Serif" font-size="14.00" fill="#000000">EmptyBeamWorkspace</text>
</g>
<!-- EmptyBeamWorkspace&#45;&gt;BeamCenter -->
<g id="edge7" class="edge">
<title>EmptyBeamWorkspace&#45;&gt;BeamCenter</title>
<path fill="none" stroke="#000000" d="M465.221,-872.9551C462.3965,-864.7074 458.9876,-854.7536 455.8515,-845.5962"/>
<polygon fill="#000000" stroke="#000000" points="459.1473,-844.417 452.5961,-836.0904 452.5249,-846.685 459.1473,-844.417"/>
</g>
<!-- FluxWorkspace -->
<g id="node6" class="node">
<title>FluxWorkspace</title>
<ellipse fill="#f0e68c" stroke="#000000" cx="896.4008" cy="-265" rx="71.4873" ry="18"/>
<text text-anchor="middle" x="896.4008" y="-261.3" font-family="Helvetica,sans-Serif" font-size="14.00" fill="#000000">FluxWorkspace</text>
</g>
<!-- Divide4 -->
<g id="node24" class="node">
<title>Divide4</title>
<path fill="#87cefa" stroke="#000000" d="M853.4008,-196C853.4008,-196 823.4008,-196 823.4008,-196 817.4008,-196 811.4008,-190 811.4008,-184 811.4008,-184 811.4008,-172 811.4008,-172 811.4008,-166 817.4008,-160 823.4008,-160 823.4008,-160 853.4008,-160 853.4008,-160 859.4008,-160 865.4008,-166 865.4008,-172 865.4008,-172 865.4008,-184 865.4008,-184 865.4008,-190 859.4008,-196 853.4008,-196"/>
<text text-anchor="middle" x="838.4008" y="-174.3" font-family="Helvetica,sans-Serif" font-size="14.00" fill="#000000">Divide</text>
</g>
<!-- FluxWorkspace&#45;&gt;Divide4 -->
<g id="edge21" class="edge">
<title>FluxWorkspace&#45;&gt;Divide4</title>
<path fill="none" stroke="#000000" d="M884.3831,-246.9735C876.2176,-234.7252 865.2785,-218.3165 856.1185,-204.5766"/>
<polygon fill="#000000" stroke="#000000" points="858.8623,-202.3824 850.403,-196.0034 853.0379,-206.2653 858.8623,-202.3824"/>
</g>
<!-- TransmissionWorkspace -->
<g id="node7" class="node">
<title>TransmissionWorkspace</title>
<ellipse fill="#f0e68c" stroke="#000000" cx="576.4008" cy="-745" rx="107.781" ry="18"/>
<text text-anchor="middle" x="576.4008" y="-741.3" font-family="Helvetica,sans-Serif" font-size="14.00" fill="#000000">TransmissionWorkspace</text>
</g>
<!-- ApplyTransmissionCorrection -->
<g id="node18" class="node">
<title>ApplyTransmissionCorrection</title>
<path fill="#87cefa" stroke="#000000" d="M552.4008,-690C552.4008,-690 382.4008,-690 382.4008,-690 376.4008,-690 370.4008,-684 370.4008,-678 370.4008,-678 370.4008,-666 370.4008,-666 370.4008,-660 376.4008,-654 382.4008,-654 382.4008,-654 552.4008,-654 552.4008,-654 558.4008,-654 564.4008,-660 564.4008,-666 564.4008,-666 564.4008,-678 564.4008,-678 564.4008,-684 558.4008,-690 552.4008,-690"/>
<text text-anchor="middle" x="467.4008" y="-668.3" font-family="Helvetica,sans-Serif" font-size="14.00" fill="#000000">ApplyTransmissionCorrection</text>
</g>
<!-- TransmissionWorkspace&#45;&gt;ApplyTransmissionCorrection -->
<g id="edge10" class="edge">
<title>TransmissionWorkspace&#45;&gt;ApplyTransmissionCorrection</title>
<path fill="none" stroke="#000000" d="M550.2926,-727.5147C536.0508,-717.9766 518.2203,-706.0351 502.749,-695.6736"/>
<polygon fill="#000000" stroke="#000000" points="504.6907,-692.7616 494.4343,-690.105 500.7955,-698.5777 504.6907,-692.7616"/>
</g>
<!-- EmptyContainerWorkspace -->
<g id="node8" class="node">
<title>EmptyContainerWorkspace</title>
<ellipse fill="#f0e68c" stroke="#000000" cx="630.4008" cy="-585" rx="118.0794" ry="18"/>
<text text-anchor="middle" x="630.4008" y="-581.3" font-family="Helvetica,sans-Serif" font-size="14.00" fill="#000000">EmptyContainerWorkspace</text>
</g>
<!-- Minus2 -->
<g id="node20" class="node">
<title>Minus2</title>
<path fill="#87cefa" stroke="#000000" d="M563.4008,-530C563.4008,-530 533.4008,-530 533.4008,-530 527.4008,-530 521.4008,-524 521.4008,-518 521.4008,-518 521.4008,-506 521.4008,-506 521.4008,-500 527.4008,-494 533.4008,-494 533.4008,-494 563.4008,-494 563.4008,-494 569.4008,-494 575.4008,-500 575.4008,-506 575.4008,-506 575.4008,-518 575.4008,-518 575.4008,-524 569.4008,-530 563.4008,-530"/>
<text text-anchor="middle" x="548.4008" y="-508.3" font-family="Helvetica,sans-Serif" font-size="14.00" fill="#000000">Minus</text>
</g>
<!-- EmptyContainerWorkspace&#45;&gt;Minus2 -->
<g id="edge13" class="edge">
<title>EmptyContainerWorkspace&#45;&gt;Minus2</title>
<path fill="none" stroke="#000000" d="M610.1311,-566.9551C599.9795,-557.9177 587.527,-546.8319 576.4717,-536.9899"/>
<polygon fill="#000000" stroke="#000000" points="578.5178,-534.1255 568.7215,-530.0904 573.8633,-539.3539 578.5178,-534.1255"/>
</g>
<!-- DefaultMaskWorkspace -->
<g id="node9" class="node">
<title>DefaultMaskWorkspace</title>
<ellipse fill="#f0e68c" stroke="#000000" cx="698.4008" cy="-512" rx="104.7816" ry="18"/>
<text text-anchor="middle" x="698.4008" y="-508.3" font-family="Helvetica,sans-Serif" font-size="14.00" fill="#000000">DefaultMaskWorkspace</text>
</g>
<!-- MaskDetectors -->
<g id="node21" class="node">
<title>MaskDetectors</title>
<path fill="#87cefa" stroke="#000000" d="M739.9008,-443C739.9008,-443 656.9008,-443 656.9008,-443 650.9008,-443 644.9008,-437 644.9008,-431 644.9008,-431 644.9008,-419 644.9008,-419 644.9008,-413 650.9008,-407 656.9008,-407 656.9008,-407 739.9008,-407 739.9008,-407 745.9008,-407 751.9008,-413 751.9008,-419 751.9008,-419 751.9008,-431 751.9008,-431 751.9008,-437 745.9008,-443 739.9008,-443"/>
<text text-anchor="middle" x="698.4008" y="-421.3" font-family="Helvetica,sans-Serif" font-size="14.00" fill="#000000">MaskDetectors</text>
</g>
<!-- DefaultMaskWorkspace&#45;&gt;MaskDetectors -->
<g id="edge15" class="edge">
<title>DefaultMaskWorkspace&#45;&gt;MaskDetectors</title>
<path fill="none" stroke="#000000" d="M698.4008,-493.9735C698.4008,-482.1918 698.4008,-466.5607 698.4008,-453.1581"/>
<polygon fill="#000000" stroke="#000000" points="701.9009,-453.0033 698.4008,-443.0034 694.9009,-453.0034 701.9009,-453.0033"/>
<text text-anchor="middle" x="717.9008" y="-464.8" font-family="Helvetica,sans-Serif" font-size="14.00" fill="#000000">Edges</text>
</g>
<!-- MaskWorkspace -->
<g id="node10" class="node">
<title>MaskWorkspace</title>
<ellipse fill="#f0e68c" stroke="#000000" cx="897.4008" cy="-512" rx="76.8869" ry="18"/>
<text text-anchor="middle" x="897.4008" y="-508.3" font-family="Helvetica,sans-Serif" font-size="14.00" fill="#000000">MaskWorkspace</text>
</g>
<!-- MaskWorkspace&#45;&gt;MaskDetectors -->
<g id="edge16" class="edge">
<title>MaskWorkspace&#45;&gt;MaskDetectors</title>
<path fill="none" stroke="#000000" d="M860.9011,-496.0429C829.6192,-482.3669 784.2241,-462.5207 749.36,-447.2787"/>
<polygon fill="#000000" stroke="#000000" points="750.391,-443.9096 739.8263,-443.1107 747.5869,-450.3234 750.391,-443.9096"/>
<text text-anchor="middle" x="841.4008" y="-464.8" font-family="Helvetica,sans-Serif" font-size="14.00" fill="#000000">BeamStop</text>
</g>
<!-- SampleThickness -->
<g id="node11" class="node">
<title>SampleThickness</title>
<ellipse fill="#f0e68c" stroke="#000000" cx="861.4008" cy="-352" rx="80.6858" ry="18"/>
<text text-anchor="middle" x="861.4008" y="-348.3" font-family="Helvetica,sans-Serif" font-size="14.00" fill="#000000">SampleThickness</text>
</g>
<!-- Divide3 -->
<g id="node23" class="node">
<title>Divide3</title>
<path fill="#87cefa" stroke="#000000" d="M795.4008,-283C795.4008,-283 765.4008,-283 765.4008,-283 759.4008,-283 753.4008,-277 753.4008,-271 753.4008,-271 753.4008,-259 753.4008,-259 753.4008,-253 759.4008,-247 765.4008,-247 765.4008,-247 795.4008,-247 795.4008,-247 801.4008,-247 807.4008,-253 807.4008,-259 807.4008,-259 807.4008,-271 807.4008,-271 807.4008,-277 801.4008,-283 795.4008,-283"/>
<text text-anchor="middle" x="780.4008" y="-261.3" font-family="Helvetica,sans-Serif" font-size="14.00" fill="#000000">Divide</text>
</g>
<!-- SampleThickness&#45;&gt;Divide3 -->
<g id="edge19" class="edge">
<title>SampleThickness&#45;&gt;Divide3</title>
<path fill="none" stroke="#000000" d="M844.6175,-333.9735C832.8881,-321.3752 817.0607,-304.3755 804.0542,-290.4055"/>
<polygon fill="#000000" stroke="#000000" points="806.5384,-287.9374 797.1625,-283.0034 801.4151,-292.7073 806.5384,-287.9374"/>
</g>
<!-- FlatFieldWorkspace -->
<g id="node12" class="node">
<title>FlatFieldWorkspace</title>
<ellipse fill="#f0e68c" stroke="#000000" cx="972.4008" cy="-178" rx="89.0842" ry="18"/>
<text text-anchor="middle" x="972.4008" y="-174.3" font-family="Helvetica,sans-Serif" font-size="14.00" fill="#000000">FlatFieldWorkspace</text>
</g>
<!-- Divide5 -->
<g id="node25" class="node">
<title>Divide5</title>
<path fill="#87cefa" stroke="#000000" d="M920.4008,-109C920.4008,-109 890.4008,-109 890.4008,-109 884.4008,-109 878.4008,-103 878.4008,-97 878.4008,-97 878.4008,-85 878.4008,-85 878.4008,-79 884.4008,-73 890.4008,-73 890.4008,-73 920.4008,-73 920.4008,-73 926.4008,-73 932.4008,-79 932.4008,-85 932.4008,-85 932.4008,-97 932.4008,-97 932.4008,-103 926.4008,-109 920.4008,-109"/>
<text text-anchor="middle" x="905.4008" y="-87.3" font-family="Helvetica,sans-Serif" font-size="14.00" fill="#000000">Divide</text>
</g>
<!-- FlatFieldWorkspace&#45;&gt;Divide5 -->
<g id="edge23" class="edge">
<title>FlatFieldWorkspace&#45;&gt;Divide5</title>
<path fill="none" stroke="#000000" d="M970.5296,-159.6686C968.7392,-149.3082 965.2392,-136.5582 958.4008,-127 953.7134,-120.4484 947.4365,-114.7226 940.8445,-109.8796"/>
<polygon fill="#000000" stroke="#000000" points="942.6747,-106.8927 932.4221,-104.2216 938.7713,-112.7033 942.6747,-106.8927"/>
</g>
<!-- OutputWorkspace -->
<g id="node13" class="node">
<title>OutputWorkspace</title>
<polygon fill="#c0c0c0" stroke="#000000" points="1015.9827,-36 840.0716,-36 794.8189,0 970.7299,0 1015.9827,-36"/>
<text text-anchor="middle" x="905.4008" y="-14.3" font-family="Times,serif" font-size="14.00" fill="#000000">OutputWorkspace</text>
</g>
<!-- LoadAndMerge&#45;&gt;Divide -->
<g id="edge2" class="edge">
<title>LoadAndMerge&#45;&gt;Divide</title>
<path fill="none" stroke="#000000" d="M208.8891,-945.9499C189.2597,-936.2365 164.4306,-923.9353 134.8534,-909.2185"/>
<polygon fill="#000000" stroke="#000000" points="136.0343,-905.8967 125.5223,-904.5739 132.915,-912.1633 136.0343,-905.8967"/>
</g>
<!-- Divide&#45;&gt;Minus -->
<g id="edge4" class="edge">
<title>Divide&#45;&gt;Minus</title>
<path fill="none" stroke="#000000" d="M125.5172,-877.4158C128.5132,-875.9227 131.5206,-874.4272 134.4008,-873 159.5937,-860.5162 188.0307,-846.5532 209.9464,-835.8198"/>
<polygon fill="#000000" stroke="#000000" points="211.773,-838.8226 219.2157,-831.2823 208.6953,-832.5355 211.773,-838.8226"/>
</g>
<!-- Minus&#45;&gt;MoveInstrumentComponent -->
<g id="edge6" class="edge">
<title>Minus&#45;&gt;MoveInstrumentComponent</title>
<path fill="none" stroke="#000000" d="M273.5129,-800.3287C288.1521,-790.7871 306.4183,-778.8814 322.2523,-768.561"/>
<polygon fill="#000000" stroke="#000000" points="324.2938,-771.4083 330.7603,-763.0157 320.4715,-765.5439 324.2938,-771.4083"/>
</g>
<!-- MoveInstrumentComponent&#45;&gt;ApplyTransmissionCorrection -->
<g id="edge9" class="edge">
<title>MoveInstrumentComponent&#45;&gt;ApplyTransmissionCorrection</title>
<path fill="none" stroke="#000000" d="M385.3446,-726.9551C399.3628,-717.5667 416.6818,-705.9678 431.7905,-695.8491"/>
<polygon fill="#000000" stroke="#000000" points="434.028,-698.5631 440.3891,-690.0904 430.1328,-692.7469 434.028,-698.5631"/>
</g>
<!-- Divide2 -->
<g id="node22" class="node">
<title>Divide2</title>
<path fill="#87cefa" stroke="#000000" d="M482.4008,-603C482.4008,-603 452.4008,-603 452.4008,-603 446.4008,-603 440.4008,-597 440.4008,-591 440.4008,-591 440.4008,-579 440.4008,-579 440.4008,-573 446.4008,-567 452.4008,-567 452.4008,-567 482.4008,-567 482.4008,-567 488.4008,-567 494.4008,-573 494.4008,-579 494.4008,-579 494.4008,-591 494.4008,-591 494.4008,-597 488.4008,-603 482.4008,-603"/>
<text text-anchor="middle" x="467.4008" y="-581.3" font-family="Helvetica,sans-Serif" font-size="14.00" fill="#000000">Divide</text>
</g>
<!-- ApplyTransmissionCorrection&#45;&gt;Divide2 -->
<g id="edge11" class="edge">
<title>ApplyTransmissionCorrection&#45;&gt;Divide2</title>
<path fill="none" stroke="#000000" d="M467.4008,-653.9735C467.4008,-642.1918 467.4008,-626.5607 467.4008,-613.1581"/>
<polygon fill="#000000" stroke="#000000" points="470.9009,-613.0033 467.4008,-603.0034 463.9009,-613.0034 470.9009,-613.0033"/>
<text text-anchor="middle" x="499.9008" y="-624.8" font-family="Helvetica,sans-Serif" font-size="14.00" fill="#000000">SolidAngle</text>
</g>
<!-- ParallaxCorrection -->
<g id="node19" class="node">
<title>ParallaxCorrection</title>
<path fill="#87cefa" stroke="#000000" d="M750.4008,-370C750.4008,-370 646.4008,-370 646.4008,-370 640.4008,-370 634.4008,-364 634.4008,-358 634.4008,-358 634.4008,-346 634.4008,-346 634.4008,-340 640.4008,-334 646.4008,-334 646.4008,-334 750.4008,-334 750.4008,-334 756.4008,-334 762.4008,-340 762.4008,-346 762.4008,-346 762.4008,-358 762.4008,-358 762.4008,-364 756.4008,-370 750.4008,-370"/>
<text text-anchor="middle" x="698.4008" y="-348.3" font-family="Helvetica,sans-Serif" font-size="14.00" fill="#000000">ParallaxCorrection</text>
</g>
<!-- ParallaxCorrection&#45;&gt;Divide3 -->
<g id="edge18" class="edge">
<title>ParallaxCorrection&#45;&gt;Divide3</title>
<path fill="none" stroke="#000000" d="M715.3912,-333.9735C727.2655,-321.3752 743.2883,-304.3755 756.4553,-290.4055"/>
<polygon fill="#000000" stroke="#000000" points="759.1202,-292.6811 763.4321,-283.0034 754.0262,-287.8799 759.1202,-292.6811"/>
<text text-anchor="middle" x="773.9008" y="-304.8" font-family="Helvetica,sans-Serif" font-size="14.00" fill="#000000">Thickness</text>
</g>
<!-- Minus2&#45;&gt;MaskDetectors -->
<g id="edge14" class="edge">
<title>Minus2&#45;&gt;MaskDetectors</title>
<path fill="none" stroke="#000000" d="M575.5647,-496.245C598.6742,-482.8414 632.1831,-463.4063 658.3667,-448.2197"/>
<polygon fill="#000000" stroke="#000000" points="660.3994,-451.087 667.2937,-443.0421 656.8873,-445.0317 660.3994,-451.087"/>
</g>
<!-- MaskDetectors&#45;&gt;ParallaxCorrection -->
<g id="edge17" class="edge">
<title>MaskDetectors&#45;&gt;ParallaxCorrection</title>
<path fill="none" stroke="#000000" d="M698.4008,-406.9551C698.4008,-398.8828 698.4008,-389.1764 698.4008,-380.1817"/>
<polygon fill="#000000" stroke="#000000" points="701.9009,-380.0903 698.4008,-370.0904 694.9009,-380.0904 701.9009,-380.0903"/>
</g>
<!-- Divide2&#45;&gt;Minus2 -->
<g id="edge12" class="edge">
<title>Divide2&#45;&gt;Minus2</title>
<path fill="none" stroke="#000000" d="M487.4233,-566.9551C497.451,-557.9177 509.7517,-546.8319 520.6722,-536.9899"/>
<polygon fill="#000000" stroke="#000000" points="523.2427,-539.385 528.3279,-530.0904 518.5564,-534.1852 523.2427,-539.385"/>
</g>
<!-- Divide3&#45;&gt;Divide4 -->
<g id="edge20" class="edge">
<title>Divide3&#45;&gt;Divide4</title>
<path fill="none" stroke="#000000" d="M792.4184,-246.9735C800.584,-234.7252 811.5231,-218.3165 820.6831,-204.5766"/>
<polygon fill="#000000" stroke="#000000" points="823.7637,-206.2653 826.3985,-196.0034 817.9393,-202.3824 823.7637,-206.2653"/>
<text text-anchor="middle" x="825.4008" y="-217.8" font-family="Helvetica,sans-Serif" font-size="14.00" fill="#000000">Flux</text>
</g>
<!-- Divide4&#45;&gt;Divide5 -->
<g id="edge22" class="edge">
<title>Divide4&#45;&gt;Divide5</title>
<path fill="none" stroke="#000000" d="M836.7293,-159.6713C836.6721,-149.3117 838.1721,-136.5617 844.4008,-127 850.4028,-117.7863 859.6546,-110.6169 869.1535,-105.1878"/>
<polygon fill="#000000" stroke="#000000" points="870.9527,-108.1981 878.2384,-100.5059 867.746,-101.9757 870.9527,-108.1981"/>
<text text-anchor="middle" x="901.4008" y="-130.8" font-family="Helvetica,sans-Serif" font-size="14.00" fill="#000000">WaterOrSensitivity</text>
</g>
<!-- Divide5&#45;&gt;OutputWorkspace -->
<g id="edge24" class="edge">
<title>Divide5&#45;&gt;OutputWorkspace</title>
<path fill="none" stroke="#000000" d="M905.4008,-72.9551C905.4008,-64.8828 905.4008,-55.1764 905.4008,-46.1817"/>
<polygon fill="#000000" stroke="#000000" points="908.9009,-46.0903 905.4008,-36.0904 901.9009,-46.0904 908.9009,-46.0903"/>
</g>
</g>
</svg>
