<?xml version="1.0" encoding="UTF-8" standalone="no"?>
<!DOCTYPE svg PUBLIC "-//W3C//DTD SVG 1.1//EN"
 "http://www.w3.org/Graphics/SVG/1.1/DTD/svg11.dtd">
<!-- Generated by graphviz version 7.0.5 (20221231.0122)
 -->
<!-- Title: Transmission Pages: 1 -->
<svg width="602pt" height="620pt"
 viewBox="0.00 0.00 601.79 620.00" xmlns="http://www.w3.org/2000/svg" xmlns:xlink="http://www.w3.org/1999/xlink">
<g id="graph0" class="graph" transform="scale(1 1) rotate(0) translate(4 616)">
<title>Transmission</title>
<polygon fill="white" stroke="none" points="-4,4 -4,-616 597.79,-616 597.79,4 -4,4"/>
<!-- NormaliseBy -->
<g id="node1" class="node">
<title>NormaliseBy</title>
<polygon fill="limegreen" stroke="black" points="360.89,-468 265.21,-450 360.89,-432 456.58,-450 360.89,-468"/>
<text text-anchor="middle" x="360.89" y="-446.3" font-family="Helvetica,sans-Serif" font-size="14.00">NormaliseBy</text>
</g>
<!-- Divide -->
<g id="node10" class="node">
<title>Divide</title>
<path fill="lightskyblue" stroke="black" d="M378.89,-396C378.89,-396 342.89,-396 342.89,-396 336.89,-396 330.89,-390 330.89,-384 330.89,-384 330.89,-372 330.89,-372 330.89,-366 336.89,-360 342.89,-360 342.89,-360 378.89,-360 378.89,-360 384.89,-360 390.89,-366 390.89,-372 390.89,-372 390.89,-384 390.89,-384 390.89,-390 384.89,-396 378.89,-396"/>
<text text-anchor="middle" x="360.89" y="-374.3" font-family="Helvetica,sans-Serif" font-size="14.00">Divide</text>
</g>
<!-- NormaliseBy&#45;&gt;Divide -->
<g id="edge3" class="edge">
<title>NormaliseBy&#45;&gt;Divide</title>
<path fill="none" stroke="black" d="M360.89,-431.7C360.89,-424.41 360.89,-415.73 360.89,-407.54"/>
<polygon fill="black" stroke="black" points="364.39,-407.62 360.89,-397.62 357.39,-407.62 364.39,-407.62"/>
</g>
<!-- Run -->
<g id="node2" class="node">
<title>Run</title>
<ellipse fill="khaki" stroke="black" cx="360.89" cy="-594" rx="28.7" ry="18"/>
<text text-anchor="middle" x="360.89" y="-590.3" font-family="Helvetica,sans-Serif" font-size="14.00">Run</text>
</g>
<!-- LoadAndMerge -->
<g id="node9" class="node">
<title>LoadAndMerge</title>
<path fill="lightskyblue" stroke="black" d="M409.39,-540C409.39,-540 312.39,-540 312.39,-540 306.39,-540 300.39,-534 300.39,-528 300.39,-528 300.39,-516 300.39,-516 300.39,-510 306.39,-504 312.39,-504 312.39,-504 409.39,-504 409.39,-504 415.39,-504 421.39,-510 421.39,-516 421.39,-516 421.39,-528 421.39,-528 421.39,-534 415.39,-540 409.39,-540"/>
<text text-anchor="middle" x="360.89" y="-518.3" font-family="Helvetica,sans-Serif" font-size="14.00">LoadAndMerge</text>
</g>
<!-- Run&#45;&gt;LoadAndMerge -->
<g id="edge1" class="edge">
<title>Run&#45;&gt;LoadAndMerge</title>
<path fill="none" stroke="black" d="M360.89,-575.7C360.89,-568.41 360.89,-559.73 360.89,-551.54"/>
<polygon fill="black" stroke="black" points="364.39,-551.62 360.89,-541.62 357.39,-551.62 364.39,-551.62"/>
</g>
<!-- BeamRadius -->
<g id="node3" class="node">
<title>BeamRadius</title>
<ellipse fill="khaki" stroke="black" cx="105.89" cy="-234" rx="67.69" ry="18"/>
<text text-anchor="middle" x="105.89" y="-230.3" font-family="Helvetica,sans-Serif" font-size="14.00">BeamRadius</text>
</g>
<!-- CalculateTransmission -->
<g id="node12" class="node">
<title>CalculateTransmission</title>
<path fill="lightskyblue" stroke="black" d="M369.89,-180C369.89,-180 223.89,-180 223.89,-180 217.89,-180 211.89,-174 211.89,-168 211.89,-168 211.89,-156 211.89,-156 211.89,-150 217.89,-144 223.89,-144 223.89,-144 369.89,-144 369.89,-144 375.89,-144 381.89,-150 381.89,-156 381.89,-156 381.89,-168 381.89,-168 381.89,-174 375.89,-180 369.89,-180"/>
<text text-anchor="middle" x="296.89" y="-158.3" font-family="Helvetica,sans-Serif" font-size="14.00">CalculateTransmission</text>
</g>
<!-- BeamRadius&#45;&gt;CalculateTransmission -->
<g id="edge9" class="edge">
<title>BeamRadius&#45;&gt;CalculateTransmission</title>
<path fill="none" stroke="black" d="M144.55,-218.83C171.56,-208.94 208.1,-195.54 238.63,-184.35"/>
<polygon fill="black" stroke="black" points="239.55,-187.74 247.73,-181.02 237.14,-181.17 239.55,-187.74"/>
</g>
<!-- AbsorberInputWorkspace -->
<g id="node4" class="node">
<title>AbsorberInputWorkspace</title>
<ellipse fill="khaki" stroke="black" cx="186.89" cy="-378" rx="126.18" ry="18"/>
<text text-anchor="middle" x="186.89" y="-374.3" font-family="Helvetica,sans-Serif" font-size="14.00">AbsorberInputWorkspace</text>
</g>
<!-- Minus -->
<g id="node11" class="node">
<title>Minus</title>
<path fill="lightskyblue" stroke="black" d="M290.89,-324C290.89,-324 256.89,-324 256.89,-324 250.89,-324 244.89,-318 244.89,-312 244.89,-312 244.89,-300 244.89,-300 244.89,-294 250.89,-288 256.89,-288 256.89,-288 290.89,-288 290.89,-288 296.89,-288 302.89,-294 302.89,-300 302.89,-300 302.89,-312 302.89,-312 302.89,-318 296.89,-324 290.89,-324"/>
<text text-anchor="middle" x="273.89" y="-302.3" font-family="Helvetica,sans-Serif" font-size="14.00">Minus</text>
</g>
<!-- AbsorberInputWorkspace&#45;&gt;Minus -->
<g id="edge5" class="edge">
<title>AbsorberInputWorkspace&#45;&gt;Minus</title>
<path fill="none" stroke="black" d="M207.95,-360.05C218.69,-351.41 231.95,-340.75 243.75,-331.26"/>
<polygon fill="black" stroke="black" points="245.65,-334.22 251.24,-325.22 241.26,-328.77 245.65,-334.22"/>
</g>
<!-- BeamInputWorkspace -->
<g id="node5" class="node">
<title>BeamInputWorkspace</title>
<ellipse fill="khaki" stroke="black" cx="430.89" cy="-306" rx="110.48" ry="18"/>
<text text-anchor="middle" x="430.89" y="-302.3" font-family="Helvetica,sans-Serif" font-size="14.00">BeamInputWorkspace</text>
</g>
<!-- BeamInputWorkspace&#45;&gt;CalculateTransmission -->
<g id="edge10" class="edge">
<title>BeamInputWorkspace&#45;&gt;CalculateTransmission</title>
<path fill="none" stroke="black" d="M431.58,-287.68C431.44,-268.2 428.37,-236.61 411.89,-216 401.31,-202.76 386.66,-192.69 371.37,-185.08"/>
<polygon fill="black" stroke="black" points="373.18,-182.06 362.63,-181.06 370.25,-188.42 373.18,-182.06"/>
</g>
<!-- MoveInstrumentComponent -->
<g id="node13" class="node">
<title>MoveInstrumentComponent</title>
<path fill="lightskyblue" stroke="black" d="M390.39,-252C390.39,-252 203.39,-252 203.39,-252 197.39,-252 191.39,-246 191.39,-240 191.39,-240 191.39,-228 191.39,-228 191.39,-222 197.39,-216 203.39,-216 203.39,-216 390.39,-216 390.39,-216 396.39,-216 402.39,-222 402.39,-228 402.39,-228 402.39,-240 402.39,-240 402.39,-246 396.39,-252 390.39,-252"/>
<text text-anchor="middle" x="296.89" y="-230.3" font-family="Helvetica,sans-Serif" font-size="14.00">MoveInstrumentComponent</text>
</g>
<!-- BeamInputWorkspace&#45;&gt;MoveInstrumentComponent -->
<g id="edge7" class="edge">
<title>BeamInputWorkspace&#45;&gt;MoveInstrumentComponent</title>
<path fill="none" stroke="black" d="M399.14,-288.41C381.56,-279.23 359.45,-267.68 340.29,-257.67"/>
<polygon fill="black" stroke="black" points="342.12,-254.68 331.63,-253.15 338.88,-260.88 342.12,-254.68"/>
</g>
<!-- TransmissionValue -->
<g id="node6" class="node">
<title>TransmissionValue</title>
<polygon fill="grey" stroke="black" points="287.68,-108 58.95,-108 0.11,-72 228.84,-72 287.68,-108"/>
<text text-anchor="middle" x="143.89" y="-86.3" font-family="Times,serif" font-size="14.00">TransmissionValue</text>
</g>
<!-- OutputWorkspace -->
<g id="node8" class="node">
<title>OutputWorkspace</title>
<polygon fill="grey" stroke="black" points="435.25,-36 215.16,-36 158.54,0 378.63,0 435.25,-36"/>
<text text-anchor="middle" x="296.89" y="-14.3" font-family="Times,serif" font-size="14.00">OutputWorkspace</text>
</g>
<!-- TransmissionValue&#45;&gt;OutputWorkspace -->
<g id="edge13" class="edge">
<title>TransmissionValue&#45;&gt;OutputWorkspace</title>
<path fill="none" stroke="black" d="M182.11,-71.52C202.26,-62.29 227.2,-50.89 248.67,-41.06"/>
<polygon fill="black" stroke="black" points="249.89,-44.35 257.53,-37.01 246.98,-37.99 249.89,-44.35"/>
</g>
<!-- TransmissionError -->
<g id="node7" class="node">
<title>TransmissionError</title>
<polygon fill="grey" stroke="black" points="593.68,-108 364.95,-108 306.11,-72 534.84,-72 593.68,-108"/>
<text text-anchor="middle" x="449.89" y="-86.3" font-family="Times,serif" font-size="14.00">TransmissionError</text>
</g>
<!-- TransmissionError&#45;&gt;OutputWorkspace -->
<g id="edge14" class="edge">
<title>TransmissionError&#45;&gt;OutputWorkspace</title>
<path fill="none" stroke="black" d="M411.68,-71.52C391.52,-62.29 366.59,-50.89 345.11,-41.06"/>
<polygon fill="black" stroke="black" points="346.81,-37.99 336.26,-37.01 343.9,-44.35 346.81,-37.99"/>
</g>
<!-- LoadAndMerge&#45;&gt;NormaliseBy -->
<g id="edge2" class="edge">
<title>LoadAndMerge&#45;&gt;NormaliseBy</title>
<path fill="none" stroke="black" d="M360.89,-503.7C360.89,-496.41 360.89,-487.73 360.89,-479.54"/>
<polygon fill="black" stroke="black" points="364.39,-479.62 360.89,-469.62 357.39,-479.62 364.39,-479.62"/>
</g>
<!-- Divide&#45;&gt;Minus -->
<g id="edge4" class="edge">
<title>Divide&#45;&gt;Minus</title>
<path fill="none" stroke="black" d="M339.39,-359.7C328.83,-351.2 315.92,-340.81 304.36,-331.51"/>
<polygon fill="black" stroke="black" points="306.62,-328.84 296.63,-325.3 302.23,-334.29 306.62,-328.84"/>
</g>
<!-- Minus&#45;&gt;MoveInstrumentComponent -->
<g id="edge6" class="edge">
<title>Minus&#45;&gt;MoveInstrumentComponent</title>
<path fill="none" stroke="black" d="M279.58,-287.7C282.03,-280.24 284.96,-271.32 287.71,-262.97"/>
<polygon fill="black" stroke="black" points="291,-264.14 290.8,-253.54 284.35,-261.95 291,-264.14"/>
</g>
<!-- CalculateTransmission&#45;&gt;TransmissionValue -->
<g id="edge11" class="edge">
<title>CalculateTransmission&#45;&gt;TransmissionValue</title>
<path fill="none" stroke="black" d="M258.68,-143.52C238.52,-134.29 213.59,-122.89 192.11,-113.06"/>
<polygon fill="black" stroke="black" points="193.81,-109.99 183.26,-109.01 190.9,-116.35 193.81,-109.99"/>
</g>
<!-- CalculateTransmission&#45;&gt;TransmissionError -->
<g id="edge12" class="edge">
<title>CalculateTransmission&#45;&gt;TransmissionError</title>
<path fill="none" stroke="black" d="M335.11,-143.52C355.26,-134.29 380.2,-122.89 401.67,-113.06"/>
<polygon fill="black" stroke="black" points="402.89,-116.35 410.53,-109.01 399.98,-109.99 402.89,-116.35"/>
</g>
<!-- MoveInstrumentComponent&#45;&gt;CalculateTransmission -->
<g id="edge8" class="edge">
<title>MoveInstrumentComponent&#45;&gt;CalculateTransmission</title>
<path fill="none" stroke="black" d="M296.89,-215.7C296.89,-208.41 296.89,-199.73 296.89,-191.54"/>
<polygon fill="black" stroke="black" points="300.39,-191.62 296.89,-181.62 293.39,-191.62 300.39,-191.62"/>
</g>
</g>
</svg>
