<?xml version="1.0" encoding="UTF-8" standalone="no"?>
<!DOCTYPE svg PUBLIC "-//W3C//DTD SVG 1.1//EN"
 "http://www.w3.org/Graphics/SVG/1.1/DTD/svg11.dtd">
<!-- Generated by graphviz version 3.0.0 (20220315.2325)
 -->
<!-- Title: Sample Pages: 1 -->
<svg width="690pt" height="1167pt"
 viewBox="0.00 0.00 690.48 1167.00" xmlns="http://www.w3.org/2000/svg" xmlns:xlink="http://www.w3.org/1999/xlink">
<g id="graph0" class="graph" transform="scale(1 1) rotate(0) translate(4 1163)">
<title>Sample</title>
<polygon fill="white" stroke="transparent" points="-4,4 -4,-1163 686.48,-1163 686.48,4 -4,4"/>
<!-- NormaliseBy -->
<g id="node1" class="node">
<title>NormaliseBy</title>
<polygon fill="limegreen" stroke="black" points="392.49,-1013 296.81,-995 392.49,-977 488.17,-995 392.49,-1013"/>
<text text-anchor="middle" x="392.49" y="-991.3" font-family="Helvetica,sans-Serif" font-size="14.00">NormaliseBy</text>
</g>
<!-- Divide -->
<g id="node14" class="node">
<title>Divide</title>
<path fill="lightskyblue" stroke="black" d="M410.49,-940C410.49,-940 374.49,-940 374.49,-940 368.49,-940 362.49,-934 362.49,-928 362.49,-928 362.49,-916 362.49,-916 362.49,-910 368.49,-904 374.49,-904 374.49,-904 410.49,-904 410.49,-904 416.49,-904 422.49,-910 422.49,-916 422.49,-916 422.49,-928 422.49,-928 422.49,-934 416.49,-940 410.49,-940"/>
<text text-anchor="middle" x="392.49" y="-918.3" font-family="Helvetica,sans-Serif" font-size="14.00">Divide</text>
</g>
<!-- NormaliseBy&#45;&gt;Divide -->
<g id="edge3" class="edge">
<title>NormaliseBy&#45;&gt;Divide</title>
<path fill="none" stroke="black" d="M392.49,-976.81C392.49,-968.79 392.49,-959.05 392.49,-950.07"/>
<polygon fill="black" stroke="black" points="395.99,-950.03 392.49,-940.03 388.99,-950.03 395.99,-950.03"/>
</g>
<!-- AbsoluteScaleBy -->
<g id="node2" class="node">
<title>AbsoluteScaleBy</title>
<polygon fill="limegreen" stroke="black" points="283.49,-342 162.33,-324 283.49,-306 404.65,-324 283.49,-342"/>
<text text-anchor="middle" x="283.49" y="-320.3" font-family="Helvetica,sans-Serif" font-size="14.00">AbsoluteScaleBy</text>
</g>
<!-- Divide2 -->
<g id="node22" class="node">
<title>Divide2</title>
<path fill="lightskyblue" stroke="black" d="M182.49,-255C182.49,-255 146.49,-255 146.49,-255 140.49,-255 134.49,-249 134.49,-243 134.49,-243 134.49,-231 134.49,-231 134.49,-225 140.49,-219 146.49,-219 146.49,-219 182.49,-219 182.49,-219 188.49,-219 194.49,-225 194.49,-231 194.49,-231 194.49,-243 194.49,-243 194.49,-249 188.49,-255 182.49,-255"/>
<text text-anchor="middle" x="164.49" y="-233.3" font-family="Helvetica,sans-Serif" font-size="14.00">Divide</text>
</g>
<!-- AbsoluteScaleBy&#45;&gt;Divide2 -->
<g id="edge18" class="edge">
<title>AbsoluteScaleBy&#45;&gt;Divide2</title>
<path fill="none" stroke="black" d="M263.57,-308.77C245.35,-295.76 218.06,-276.26 196.73,-261.03"/>
<polygon fill="black" stroke="black" points="198.76,-258.17 188.59,-255.21 194.69,-263.87 198.76,-258.17"/>
<text text-anchor="middle" x="267.49" y="-276.8" font-family="Helvetica,sans-Serif" font-size="14.00">Beam Flux</text>
</g>
<!-- Divide4 -->
<g id="node24" class="node">
<title>Divide4</title>
<path fill="lightskyblue" stroke="black" d="M540.49,-255C540.49,-255 504.49,-255 504.49,-255 498.49,-255 492.49,-249 492.49,-243 492.49,-243 492.49,-231 492.49,-231 492.49,-225 498.49,-219 504.49,-219 504.49,-219 540.49,-219 540.49,-219 546.49,-219 552.49,-225 552.49,-231 552.49,-231 552.49,-243 552.49,-243 552.49,-249 546.49,-255 540.49,-255"/>
<text text-anchor="middle" x="522.49" y="-233.3" font-family="Helvetica,sans-Serif" font-size="14.00">Divide</text>
</g>
<!-- AbsoluteScaleBy&#45;&gt;Divide4 -->
<g id="edge23" class="edge">
<title>AbsoluteScaleBy&#45;&gt;Divide4</title>
<path fill="none" stroke="black" d="M312.6,-310.25C338.09,-299.41 376.28,-283.9 410.49,-273 439.59,-263.73 450.04,-265.32 482.64,-254.95"/>
<polygon fill="black" stroke="black" points="484.07,-258.17 492.45,-251.69 481.86,-251.52 484.07,-258.17"/>
<text text-anchor="middle" x="470.99" y="-276.8" font-family="Helvetica,sans-Serif" font-size="14.00">Standard Sample</text>
</g>
<!-- Run -->
<g id="node3" class="node">
<title>Run</title>
<ellipse fill="khaki" stroke="black" cx="392.49" cy="-1141" rx="28.7" ry="18"/>
<text text-anchor="middle" x="392.49" y="-1137.3" font-family="Helvetica,sans-Serif" font-size="14.00">Run</text>
</g>
<!-- LoadAndMerge -->
<g id="node13" class="node">
<title>LoadAndMerge</title>
<path fill="lightskyblue" stroke="black" d="M440.99,-1086C440.99,-1086 343.99,-1086 343.99,-1086 337.99,-1086 331.99,-1080 331.99,-1074 331.99,-1074 331.99,-1062 331.99,-1062 331.99,-1056 337.99,-1050 343.99,-1050 343.99,-1050 440.99,-1050 440.99,-1050 446.99,-1050 452.99,-1056 452.99,-1062 452.99,-1062 452.99,-1074 452.99,-1074 452.99,-1080 446.99,-1086 440.99,-1086"/>
<text text-anchor="middle" x="392.49" y="-1064.3" font-family="Helvetica,sans-Serif" font-size="14.00">LoadAndMerge</text>
</g>
<!-- Run&#45;&gt;LoadAndMerge -->
<g id="edge1" class="edge">
<title>Run&#45;&gt;LoadAndMerge</title>
<path fill="none" stroke="black" d="M392.49,-1122.81C392.49,-1114.79 392.49,-1105.05 392.49,-1096.07"/>
<polygon fill="black" stroke="black" points="395.99,-1096.03 392.49,-1086.03 388.99,-1096.03 395.99,-1096.03"/>
</g>
<!-- BeamInputWorkspace -->
<g id="node4" class="node">
<title>BeamInputWorkspace</title>
<ellipse fill="khaki" stroke="black" cx="110.49" cy="-849" rx="110.48" ry="18"/>
<text text-anchor="middle" x="110.49" y="-845.3" font-family="Helvetica,sans-Serif" font-size="14.00">BeamInputWorkspace</text>
</g>
<!-- MoveInstrumentComponent -->
<g id="node16" class="node">
<title>MoveInstrumentComponent</title>
<path fill="lightskyblue" stroke="black" d="M361.99,-794C361.99,-794 174.99,-794 174.99,-794 168.99,-794 162.99,-788 162.99,-782 162.99,-782 162.99,-770 162.99,-770 162.99,-764 168.99,-758 174.99,-758 174.99,-758 361.99,-758 361.99,-758 367.99,-758 373.99,-764 373.99,-770 373.99,-770 373.99,-782 373.99,-782 373.99,-788 367.99,-794 361.99,-794"/>
<text text-anchor="middle" x="268.49" y="-772.3" font-family="Helvetica,sans-Serif" font-size="14.00">MoveInstrumentComponent</text>
</g>
<!-- BeamInputWorkspace&#45;&gt;MoveInstrumentComponent -->
<g id="edge7" class="edge">
<title>BeamInputWorkspace&#45;&gt;MoveInstrumentComponent</title>
<path fill="none" stroke="black" d="M146.34,-831.89C168.53,-821.92 197.26,-809.01 221.28,-798.21"/>
<polygon fill="black" stroke="black" points="222.89,-801.33 230.58,-794.04 220.02,-794.94 222.89,-801.33"/>
</g>
<!-- BeamInputWorkspace&#45;&gt;Divide2 -->
<g id="edge19" class="edge">
<title>BeamInputWorkspace&#45;&gt;Divide2</title>
<path fill="none" stroke="black" d="M119.7,-831.03C126.47,-816.98 134.49,-796.26 134.49,-777 134.49,-777 134.49,-777 134.49,-323 134.49,-302.46 142.37,-280.64 150.06,-264.25"/>
<polygon fill="black" stroke="black" points="153.2,-265.8 154.5,-255.28 146.93,-262.69 153.2,-265.8"/>
</g>
<!-- TransmissionInputWorkspace -->
<g id="node5" class="node">
<title>TransmissionInputWorkspace</title>
<ellipse fill="khaki" stroke="black" cx="474.49" cy="-689" rx="142.97" ry="18"/>
<text text-anchor="middle" x="474.49" y="-685.3" font-family="Helvetica,sans-Serif" font-size="14.00">TransmissionInputWorkspace</text>
</g>
<!-- ApplyTransmissionCorrection -->
<g id="node17" class="node">
<title>ApplyTransmissionCorrection</title>
<path fill="lightskyblue" stroke="black" d="M373.49,-634C373.49,-634 179.49,-634 179.49,-634 173.49,-634 167.49,-628 167.49,-622 167.49,-622 167.49,-610 167.49,-610 167.49,-604 173.49,-598 179.49,-598 179.49,-598 373.49,-598 373.49,-598 379.49,-598 385.49,-604 385.49,-610 385.49,-610 385.49,-622 385.49,-622 385.49,-628 379.49,-634 373.49,-634"/>
<text text-anchor="middle" x="276.49" y="-612.3" font-family="Helvetica,sans-Serif" font-size="14.00">ApplyTransmissionCorrection</text>
</g>
<!-- TransmissionInputWorkspace&#45;&gt;ApplyTransmissionCorrection -->
<g id="edge10" class="edge">
<title>TransmissionInputWorkspace&#45;&gt;ApplyTransmissionCorrection</title>
<path fill="none" stroke="black" d="M429.56,-671.89C401.15,-661.7 364.16,-648.44 333.66,-637.5"/>
<polygon fill="black" stroke="black" points="334.6,-634.12 324,-634.04 332.23,-640.71 334.6,-634.12"/>
</g>
<!-- AbsorberInputWorkspace -->
<g id="node6" class="node">
<title>AbsorberInputWorkspace</title>
<ellipse fill="khaki" stroke="black" cx="218.49" cy="-922" rx="126.18" ry="18"/>
<text text-anchor="middle" x="218.49" y="-918.3" font-family="Helvetica,sans-Serif" font-size="14.00">AbsorberInputWorkspace</text>
</g>
<!-- Minus -->
<g id="node15" class="node">
<title>Minus</title>
<path fill="lightskyblue" stroke="black" d="M285.49,-867C285.49,-867 251.49,-867 251.49,-867 245.49,-867 239.49,-861 239.49,-855 239.49,-855 239.49,-843 239.49,-843 239.49,-837 245.49,-831 251.49,-831 251.49,-831 285.49,-831 285.49,-831 291.49,-831 297.49,-837 297.49,-843 297.49,-843 297.49,-855 297.49,-855 297.49,-861 291.49,-867 285.49,-867"/>
<text text-anchor="middle" x="268.49" y="-845.3" font-family="Helvetica,sans-Serif" font-size="14.00">Minus</text>
</g>
<!-- AbsorberInputWorkspace&#45;&gt;Minus -->
<g id="edge5" class="edge">
<title>AbsorberInputWorkspace&#45;&gt;Minus</title>
<path fill="none" stroke="black" d="M230.59,-903.81C236.61,-895.27 244,-884.77 250.66,-875.32"/>
<polygon fill="black" stroke="black" points="253.6,-877.22 256.5,-867.03 247.88,-873.19 253.6,-877.22"/>
</g>
<!-- ContainerInputWorkspace -->
<g id="node7" class="node">
<title>ContainerInputWorkspace</title>
<ellipse fill="khaki" stroke="black" cx="531.49" cy="-616" rx="128.08" ry="18"/>
<text text-anchor="middle" x="531.49" y="-612.3" font-family="Helvetica,sans-Serif" font-size="14.00">ContainerInputWorkspace</text>
</g>
<!-- Minus2 -->
<g id="node19" class="node">
<title>Minus2</title>
<path fill="lightskyblue" stroke="black" d="M297.49,-561C297.49,-561 263.49,-561 263.49,-561 257.49,-561 251.49,-555 251.49,-549 251.49,-549 251.49,-537 251.49,-537 251.49,-531 257.49,-525 263.49,-525 263.49,-525 297.49,-525 297.49,-525 303.49,-525 309.49,-531 309.49,-537 309.49,-537 309.49,-549 309.49,-549 309.49,-555 303.49,-561 297.49,-561"/>
<text text-anchor="middle" x="280.49" y="-539.3" font-family="Helvetica,sans-Serif" font-size="14.00">Minus</text>
</g>
<!-- ContainerInputWorkspace&#45;&gt;Minus2 -->
<g id="edge12" class="edge">
<title>ContainerInputWorkspace&#45;&gt;Minus2</title>
<path fill="none" stroke="black" d="M462.98,-600.79C423.17,-591.81 372.06,-579.02 319.27,-560.99"/>
<polygon fill="black" stroke="black" points="320.34,-557.66 309.75,-557.69 318.05,-564.27 320.34,-557.66"/>
</g>
<!-- SensitivityInputWorkspace -->
<g id="node8" class="node">
<title>SensitivityInputWorkspace</title>
<ellipse fill="khaki" stroke="black" cx="343.49" cy="-237" rx="131.08" ry="18"/>
<text text-anchor="middle" x="343.49" y="-233.3" font-family="Helvetica,sans-Serif" font-size="14.00">SensitivityInputWorkspace</text>
</g>
<!-- Divide3 -->
<g id="node23" class="node">
<title>Divide3</title>
<path fill="lightskyblue" stroke="black" d="M361.49,-182C361.49,-182 325.49,-182 325.49,-182 319.49,-182 313.49,-176 313.49,-170 313.49,-170 313.49,-158 313.49,-158 313.49,-152 319.49,-146 325.49,-146 325.49,-146 361.49,-146 361.49,-146 367.49,-146 373.49,-152 373.49,-158 373.49,-158 373.49,-170 373.49,-170 373.49,-176 367.49,-182 361.49,-182"/>
<text text-anchor="middle" x="343.49" y="-160.3" font-family="Helvetica,sans-Serif" font-size="14.00">Divide</text>
</g>
<!-- SensitivityInputWorkspace&#45;&gt;Divide3 -->
<g id="edge21" class="edge">
<title>SensitivityInputWorkspace&#45;&gt;Divide3</title>
<path fill="none" stroke="black" d="M343.49,-218.81C343.49,-210.79 343.49,-201.05 343.49,-192.07"/>
<polygon fill="black" stroke="black" points="346.99,-192.03 343.49,-182.03 339.99,-192.03 346.99,-192.03"/>
</g>
<!-- ReferenceInputWorkspace -->
<g id="node9" class="node">
<title>ReferenceInputWorkspace</title>
<ellipse fill="khaki" stroke="black" cx="552.49" cy="-324" rx="129.98" ry="18"/>
<text text-anchor="middle" x="552.49" y="-320.3" font-family="Helvetica,sans-Serif" font-size="14.00">ReferenceInputWorkspace</text>
</g>
<!-- ReferenceInputWorkspace&#45;&gt;Divide4 -->
<g id="edge24" class="edge">
<title>ReferenceInputWorkspace&#45;&gt;Divide4</title>
<path fill="none" stroke="black" d="M546.42,-305.8C542.27,-294.05 536.69,-278.24 531.96,-264.84"/>
<polygon fill="black" stroke="black" points="535.18,-263.44 528.55,-255.18 528.58,-265.77 535.18,-263.44"/>
</g>
<!-- MaskedInputWorkspace -->
<g id="node10" class="node">
<title>MaskedInputWorkspace</title>
<ellipse fill="khaki" stroke="black" cx="445.49" cy="-543" rx="118.08" ry="18"/>
<text text-anchor="middle" x="445.49" y="-539.3" font-family="Helvetica,sans-Serif" font-size="14.00">MaskedInputWorkspace</text>
</g>
<!-- MaskDetectors -->
<g id="node20" class="node">
<title>MaskDetectors</title>
<path fill="lightskyblue" stroke="black" d="M329.99,-488C329.99,-488 234.99,-488 234.99,-488 228.99,-488 222.99,-482 222.99,-476 222.99,-476 222.99,-464 222.99,-464 222.99,-458 228.99,-452 234.99,-452 234.99,-452 329.99,-452 329.99,-452 335.99,-452 341.99,-458 341.99,-464 341.99,-464 341.99,-476 341.99,-476 341.99,-482 335.99,-488 329.99,-488"/>
<text text-anchor="middle" x="282.49" y="-466.3" font-family="Helvetica,sans-Serif" font-size="14.00">MaskDetectors</text>
</g>
<!-- MaskedInputWorkspace&#45;&gt;MaskDetectors -->
<g id="edge14" class="edge">
<title>MaskedInputWorkspace&#45;&gt;MaskDetectors</title>
<path fill="none" stroke="black" d="M408.5,-525.89C385.52,-515.88 355.71,-502.89 330.86,-492.07"/>
<polygon fill="black" stroke="black" points="332.17,-488.82 321.6,-488.04 329.37,-495.24 332.17,-488.82"/>
</g>
<!-- SampleThickness -->
<g id="node11" class="node">
<title>SampleThickness</title>
<ellipse fill="khaki" stroke="black" cx="449.49" cy="-470" rx="89.08" ry="18"/>
<text text-anchor="middle" x="449.49" y="-466.3" font-family="Helvetica,sans-Serif" font-size="14.00">SampleThickness</text>
</g>
<!-- NormaliseByThickness -->
<g id="node21" class="node">
<title>NormaliseByThickness</title>
<path fill="lightskyblue" stroke="black" d="M357.99,-415C357.99,-415 208.99,-415 208.99,-415 202.99,-415 196.99,-409 196.99,-403 196.99,-403 196.99,-391 196.99,-391 196.99,-385 202.99,-379 208.99,-379 208.99,-379 357.99,-379 357.99,-379 363.99,-379 369.99,-385 369.99,-391 369.99,-391 369.99,-403 369.99,-403 369.99,-409 363.99,-415 357.99,-415"/>
<text text-anchor="middle" x="283.49" y="-393.3" font-family="Helvetica,sans-Serif" font-size="14.00">NormaliseByThickness</text>
</g>
<!-- SampleThickness&#45;&gt;NormaliseByThickness -->
<g id="edge16" class="edge">
<title>SampleThickness&#45;&gt;NormaliseByThickness</title>
<path fill="none" stroke="black" d="M413.06,-453.42C389.43,-443.31 358.35,-430.02 332.56,-418.99"/>
<polygon fill="black" stroke="black" points="333.89,-415.75 323.32,-415.04 331.14,-422.19 333.89,-415.75"/>
</g>
<!-- OutputWorkspace -->
<g id="node12" class="node">
<title>OutputWorkspace</title>
<polygon fill="grey" stroke="black" points="570.84,-36 350.75,-36 294.14,0 514.23,0 570.84,-36"/>
<text text-anchor="middle" x="432.49" y="-14.3" font-family="Times,serif" font-size="14.00">OutputWorkspace</text>
</g>
<!-- LoadAndMerge&#45;&gt;NormaliseBy -->
<g id="edge2" class="edge">
<title>LoadAndMerge&#45;&gt;NormaliseBy</title>
<path fill="none" stroke="black" d="M392.49,-1049.81C392.49,-1041.79 392.49,-1032.05 392.49,-1023.07"/>
<polygon fill="black" stroke="black" points="395.99,-1023.03 392.49,-1013.03 388.99,-1023.03 395.99,-1023.03"/>
</g>
<!-- Divide&#45;&gt;Minus -->
<g id="edge4" class="edge">
<title>Divide&#45;&gt;Minus</title>
<path fill="none" stroke="black" d="M362.79,-903.99C345.95,-894.35 324.7,-882.18 306.64,-871.84"/>
<polygon fill="black" stroke="black" points="307.94,-868.55 297.52,-866.62 304.46,-874.63 307.94,-868.55"/>
</g>
<!-- Minus&#45;&gt;MoveInstrumentComponent -->
<g id="edge6" class="edge">
<title>Minus&#45;&gt;MoveInstrumentComponent</title>
<path fill="none" stroke="black" d="M268.49,-830.81C268.49,-822.79 268.49,-813.05 268.49,-804.07"/>
<polygon fill="black" stroke="black" points="271.99,-804.03 268.49,-794.03 264.99,-804.03 271.99,-804.03"/>
</g>
<!-- SolidAngle -->
<g id="node18" class="node">
<title>SolidAngle</title>
<path fill="lightskyblue" stroke="black" d="M301.49,-707C301.49,-707 235.49,-707 235.49,-707 229.49,-707 223.49,-701 223.49,-695 223.49,-695 223.49,-683 223.49,-683 223.49,-677 229.49,-671 235.49,-671 235.49,-671 301.49,-671 301.49,-671 307.49,-671 313.49,-677 313.49,-683 313.49,-683 313.49,-695 313.49,-695 313.49,-701 307.49,-707 301.49,-707"/>
<text text-anchor="middle" x="268.49" y="-685.3" font-family="Helvetica,sans-Serif" font-size="14.00">SolidAngle</text>
</g>
<!-- MoveInstrumentComponent&#45;&gt;SolidAngle -->
<g id="edge8" class="edge">
<title>MoveInstrumentComponent&#45;&gt;SolidAngle</title>
<path fill="none" stroke="black" d="M268.49,-757.8C268.49,-746.16 268.49,-730.55 268.49,-717.24"/>
<polygon fill="black" stroke="black" points="271.99,-717.18 268.49,-707.18 264.99,-717.18 271.99,-717.18"/>
<text text-anchor="middle" x="290.49" y="-728.8" font-family="Helvetica,sans-Serif" font-size="14.00">Divide</text>
</g>
<!-- ApplyTransmissionCorrection&#45;&gt;Minus2 -->
<g id="edge11" class="edge">
<title>ApplyTransmissionCorrection&#45;&gt;Minus2</title>
<path fill="none" stroke="black" d="M277.46,-597.81C277.91,-589.79 278.46,-580.05 278.97,-571.07"/>
<polygon fill="black" stroke="black" points="282.46,-571.21 279.53,-561.03 275.47,-570.82 282.46,-571.21"/>
</g>
<!-- SolidAngle&#45;&gt;ApplyTransmissionCorrection -->
<g id="edge9" class="edge">
<title>SolidAngle&#45;&gt;ApplyTransmissionCorrection</title>
<path fill="none" stroke="black" d="M270.43,-670.81C271.33,-662.79 272.43,-653.05 273.44,-644.07"/>
<polygon fill="black" stroke="black" points="276.93,-644.36 274.57,-634.03 269.97,-643.57 276.93,-644.36"/>
</g>
<!-- Minus2&#45;&gt;MaskDetectors -->
<g id="edge13" class="edge">
<title>Minus2&#45;&gt;MaskDetectors</title>
<path fill="none" stroke="black" d="M280.97,-524.81C281.2,-516.79 281.47,-507.05 281.73,-498.07"/>
<polygon fill="black" stroke="black" points="285.23,-498.12 282.01,-488.03 278.23,-497.93 285.23,-498.12"/>
</g>
<!-- MaskDetectors&#45;&gt;NormaliseByThickness -->
<g id="edge15" class="edge">
<title>MaskDetectors&#45;&gt;NormaliseByThickness</title>
<path fill="none" stroke="black" d="M282.73,-451.81C282.85,-443.79 282.98,-434.05 283.11,-425.07"/>
<polygon fill="black" stroke="black" points="286.61,-425.08 283.25,-415.03 279.61,-424.98 286.61,-425.08"/>
</g>
<!-- NormaliseByThickness&#45;&gt;AbsoluteScaleBy -->
<g id="edge17" class="edge">
<title>NormaliseByThickness&#45;&gt;AbsoluteScaleBy</title>
<path fill="none" stroke="black" d="M283.49,-378.81C283.49,-370.79 283.49,-361.05 283.49,-352.07"/>
<polygon fill="black" stroke="black" points="286.99,-352.03 283.49,-342.03 279.99,-352.03 286.99,-352.03"/>
</g>
<!-- Divide2&#45;&gt;Divide3 -->
<g id="edge20" class="edge">
<title>Divide2&#45;&gt;Divide3</title>
<path fill="none" stroke="black" d="M194.67,-222.69C197.64,-221.43 200.62,-220.18 203.49,-219 237.12,-205.19 275.69,-190.39 303.81,-179.78"/>
<polygon fill="black" stroke="black" points="305.17,-183.01 313.3,-176.22 302.71,-176.46 305.17,-183.01"/>
</g>
<!-- ScaleByFluxFactor -->
<g id="node25" class="node">
<title>ScaleByFluxFactor</title>
<polygon fill="lightseagreen" stroke="black" points="503.99,-109 360.99,-109 360.99,-73 503.99,-73 503.99,-109"/>
<text text-anchor="middle" x="432.49" y="-87.3" font-family="Helvetica,sans-Serif" font-size="14.00">ScaleByFluxFactor</text>
</g>
<!-- Divide3&#45;&gt;ScaleByFluxFactor -->
<g id="edge22" class="edge">
<title>Divide3&#45;&gt;ScaleByFluxFactor</title>
<path fill="none" stroke="black" d="M365.03,-145.81C376.51,-136.66 390.8,-125.26 403.26,-115.32"/>
<polygon fill="black" stroke="black" points="405.51,-118 411.14,-109.03 401.14,-112.53 405.51,-118"/>
</g>
<!-- Divide4&#45;&gt;ScaleByFluxFactor -->
<g id="edge25" class="edge">
<title>Divide4&#45;&gt;ScaleByFluxFactor</title>
<path fill="none" stroke="black" d="M511.81,-218.92C496.18,-193.91 466.95,-147.14 448.67,-117.89"/>
<polygon fill="black" stroke="black" points="451.42,-115.69 443.15,-109.06 445.49,-119.4 451.42,-115.69"/>
</g>
<!-- ScaleByFluxFactor&#45;&gt;OutputWorkspace -->
<g id="edge26" class="edge">
<title>ScaleByFluxFactor&#45;&gt;OutputWorkspace</title>
<path fill="none" stroke="black" d="M432.49,-72.81C432.49,-64.79 432.49,-55.05 432.49,-46.07"/>
<polygon fill="black" stroke="black" points="435.99,-46.03 432.49,-36.03 428.99,-46.03 435.99,-46.03"/>
</g>
</g>
</svg>
