<?xml version="1.0" encoding="UTF-8" standalone="no"?>
<!DOCTYPE svg PUBLIC "-//W3C//DTD SVG 1.1//EN"
 "http://www.w3.org/Graphics/SVG/1.1/DTD/svg11.dtd">
<!-- Generated by graphviz version 7.0.5 (20221231.0122)
 -->
<!-- Title: Container Pages: 1 -->
<svg width="765pt" height="569pt"
 viewBox="0.00 0.00 764.53 569.00" xmlns="http://www.w3.org/2000/svg" xmlns:xlink="http://www.w3.org/1999/xlink">
<g id="graph0" class="graph" transform="scale(1 1) rotate(0) translate(4 565)">
<title>Container</title>
<polygon fill="white" stroke="none" points="-4,4 -4,-565 760.53,-565 760.53,4 -4,4"/>
<!-- NormaliseBy -->
<g id="node1" class="node">
<title>NormaliseBy</title>
<polygon fill="limegreen" stroke="black" points="95.59,-488 -0.09,-470 95.59,-452 191.28,-470 95.59,-488"/>
<text text-anchor="middle" x="95.59" y="-466.3" font-family="Helvetica,sans-Serif" font-size="14.00">NormaliseBy</text>
</g>
<!-- Divide -->
<g id="node9" class="node">
<title>Divide</title>
<path fill="lightskyblue" stroke="black" d="M125.59,-415C125.59,-415 89.59,-415 89.59,-415 83.59,-415 77.59,-409 77.59,-403 77.59,-403 77.59,-391 77.59,-391 77.59,-385 83.59,-379 89.59,-379 89.59,-379 125.59,-379 125.59,-379 131.59,-379 137.59,-385 137.59,-391 137.59,-391 137.59,-403 137.59,-403 137.59,-409 131.59,-415 125.59,-415"/>
<text text-anchor="middle" x="107.59" y="-393.3" font-family="Helvetica,sans-Serif" font-size="14.00">Divide</text>
</g>
<!-- NormaliseBy&#45;&gt;Divide -->
<g id="edge3" class="edge">
<title>NormaliseBy&#45;&gt;Divide</title>
<path fill="none" stroke="black" d="M98.44,-452.17C99.72,-444.56 101.28,-435.35 102.74,-426.7"/>
<polygon fill="black" stroke="black" points="106.18,-427.38 104.39,-416.94 99.27,-426.22 106.18,-427.38"/>
</g>
<!-- Runs -->
<g id="node2" class="node">
<title>Runs</title>
<ellipse fill="khaki" stroke="black" cx="269.59" cy="-543" rx="33.29" ry="18"/>
<text text-anchor="middle" x="269.59" y="-539.3" font-family="Helvetica,sans-Serif" font-size="14.00">Runs</text>
</g>
<!-- LoadAndMerge -->
<g id="node8" class="node">
<title>LoadAndMerge</title>
<path fill="lightskyblue" stroke="black" d="M318.09,-488C318.09,-488 221.09,-488 221.09,-488 215.09,-488 209.09,-482 209.09,-476 209.09,-476 209.09,-464 209.09,-464 209.09,-458 215.09,-452 221.09,-452 221.09,-452 318.09,-452 318.09,-452 324.09,-452 330.09,-458 330.09,-464 330.09,-464 330.09,-476 330.09,-476 330.09,-482 324.09,-488 318.09,-488"/>
<text text-anchor="middle" x="269.59" y="-466.3" font-family="Helvetica,sans-Serif" font-size="14.00">LoadAndMerge</text>
</g>
<!-- Runs&#45;&gt;LoadAndMerge -->
<g id="edge1" class="edge">
<title>Runs&#45;&gt;LoadAndMerge</title>
<path fill="none" stroke="black" d="M269.59,-524.81C269.59,-517.23 269.59,-508.1 269.59,-499.54"/>
<polygon fill="black" stroke="black" points="273.09,-499.54 269.59,-489.54 266.09,-499.54 273.09,-499.54"/>
</g>
<!-- BeamCenter -->
<g id="node3" class="node">
<title>BeamCenter</title>
<ellipse fill="khaki" stroke="black" cx="493.59" cy="-324" rx="66.89" ry="18"/>
<text text-anchor="middle" x="493.59" y="-320.3" font-family="Helvetica,sans-Serif" font-size="14.00">BeamCenter</text>
</g>
<!-- MoveInstrumentComponent -->
<g id="node11" class="node">
<title>MoveInstrumentComponent</title>
<path fill="lightskyblue" stroke="black" d="M489.09,-269C489.09,-269 302.09,-269 302.09,-269 296.09,-269 290.09,-263 290.09,-257 290.09,-257 290.09,-245 290.09,-245 290.09,-239 296.09,-233 302.09,-233 302.09,-233 489.09,-233 489.09,-233 495.09,-233 501.09,-239 501.09,-245 501.09,-245 501.09,-257 501.09,-257 501.09,-263 495.09,-269 489.09,-269"/>
<text text-anchor="middle" x="395.59" y="-247.3" font-family="Helvetica,sans-Serif" font-size="14.00">MoveInstrumentComponent</text>
</g>
<!-- BeamCenter&#45;&gt;MoveInstrumentComponent -->
<g id="edge8" class="edge">
<title>BeamCenter&#45;&gt;MoveInstrumentComponent</title>
<path fill="none" stroke="black" d="M471.35,-306.89C458.66,-297.69 442.51,-285.99 428.39,-275.76"/>
<polygon fill="black" stroke="black" points="430.83,-273.21 420.68,-270.18 426.72,-278.88 430.83,-273.21"/>
</g>
<!-- TransmissionWorkspace -->
<g id="node4" class="node">
<title>TransmissionWorkspace</title>
<ellipse fill="khaki" stroke="black" cx="637.59" cy="-251" rx="118.88" ry="18"/>
<text text-anchor="middle" x="637.59" y="-247.3" font-family="Helvetica,sans-Serif" font-size="14.00">TransmissionWorkspace</text>
</g>
<!-- ApplyTransmissionCorrection -->
<g id="node12" class="node">
<title>ApplyTransmissionCorrection</title>
<path fill="lightskyblue" stroke="black" d="M613.59,-196C613.59,-196 419.59,-196 419.59,-196 413.59,-196 407.59,-190 407.59,-184 407.59,-184 407.59,-172 407.59,-172 407.59,-166 413.59,-160 419.59,-160 419.59,-160 613.59,-160 613.59,-160 619.59,-160 625.59,-166 625.59,-172 625.59,-172 625.59,-184 625.59,-184 625.59,-190 619.59,-196 613.59,-196"/>
<text text-anchor="middle" x="516.59" y="-174.3" font-family="Helvetica,sans-Serif" font-size="14.00">ApplyTransmissionCorrection</text>
</g>
<!-- TransmissionWorkspace&#45;&gt;ApplyTransmissionCorrection -->
<g id="edge10" class="edge">
<title>TransmissionWorkspace&#45;&gt;ApplyTransmissionCorrection</title>
<path fill="none" stroke="black" d="M608.92,-233.17C593.14,-223.92 573.34,-212.3 556.12,-202.19"/>
<polygon fill="black" stroke="black" points="558.03,-199.25 547.63,-197.21 554.48,-205.29 558.03,-199.25"/>
</g>
<!-- DarkCurrentWorkspace -->
<g id="node5" class="node">
<title>DarkCurrentWorkspace</title>
<ellipse fill="khaki" stroke="black" cx="271.59" cy="-397" rx="116.18" ry="18"/>
<text text-anchor="middle" x="271.59" y="-393.3" font-family="Helvetica,sans-Serif" font-size="14.00">DarkCurrentWorkspace</text>
</g>
<!-- Minus -->
<g id="node10" class="node">
<title>Minus</title>
<path fill="lightskyblue" stroke="black" d="M288.59,-342C288.59,-342 254.59,-342 254.59,-342 248.59,-342 242.59,-336 242.59,-330 242.59,-330 242.59,-318 242.59,-318 242.59,-312 248.59,-306 254.59,-306 254.59,-306 288.59,-306 288.59,-306 294.59,-306 300.59,-312 300.59,-318 300.59,-318 300.59,-330 300.59,-330 300.59,-336 294.59,-342 288.59,-342"/>
<text text-anchor="middle" x="271.59" y="-320.3" font-family="Helvetica,sans-Serif" font-size="14.00">Minus</text>
</g>
<!-- DarkCurrentWorkspace&#45;&gt;Minus -->
<g id="edge5" class="edge">
<title>DarkCurrentWorkspace&#45;&gt;Minus</title>
<path fill="none" stroke="black" d="M271.59,-378.81C271.59,-371.23 271.59,-362.1 271.59,-353.54"/>
<polygon fill="black" stroke="black" points="275.09,-353.54 271.59,-343.54 268.09,-353.54 275.09,-353.54"/>
</g>
<!-- EmptyBeamWorkspace -->
<g id="node6" class="node">
<title>EmptyBeamWorkspace</title>
<ellipse fill="khaki" stroke="black" cx="521.59" cy="-397" rx="115.88" ry="18"/>
<text text-anchor="middle" x="521.59" y="-393.3" font-family="Helvetica,sans-Serif" font-size="14.00">EmptyBeamWorkspace</text>
</g>
<!-- EmptyBeamWorkspace&#45;&gt;BeamCenter -->
<g id="edge7" class="edge">
<title>EmptyBeamWorkspace&#45;&gt;BeamCenter</title>
<path fill="none" stroke="black" d="M514.81,-378.81C511.72,-370.96 507.97,-361.47 504.5,-352.66"/>
<polygon fill="black" stroke="black" points="507.79,-351.46 500.86,-343.44 501.28,-354.02 507.79,-351.46"/>
</g>
<!-- OutputWorkspace -->
<g id="node7" class="node">
<title>OutputWorkspace</title>
<polygon fill="grey" stroke="black" points="654.94,-36 434.86,-36 378.24,0 598.33,0 654.94,-36"/>
<text text-anchor="middle" x="516.59" y="-14.3" font-family="Times,serif" font-size="14.00">OutputWorkspace</text>
</g>
<!-- LoadAndMerge&#45;&gt;Divide -->
<g id="edge2" class="edge">
<title>LoadAndMerge&#45;&gt;Divide</title>
<path fill="none" stroke="black" d="M229.96,-451.63C205.13,-440.75 173.2,-426.75 148.19,-415.79"/>
<polygon fill="black" stroke="black" points="149.88,-412.71 139.32,-411.9 147.07,-419.12 149.88,-412.71"/>
</g>
<!-- Divide&#45;&gt;Minus -->
<g id="edge4" class="edge">
<title>Divide&#45;&gt;Minus</title>
<path fill="none" stroke="black" d="M137.82,-382.81C140.78,-381.52 143.75,-380.23 146.59,-379 175.12,-366.62 207.33,-352.71 231.91,-342.1"/>
<polygon fill="black" stroke="black" points="233.1,-345.4 240.89,-338.23 230.32,-338.98 233.1,-345.4"/>
</g>
<!-- Minus&#45;&gt;MoveInstrumentComponent -->
<g id="edge6" class="edge">
<title>Minus&#45;&gt;MoveInstrumentComponent</title>
<path fill="none" stroke="black" d="M300.98,-306.17C317.29,-296.83 337.82,-285.08 355.58,-274.91"/>
<polygon fill="black" stroke="black" points="356.87,-278.21 363.81,-270.2 353.39,-272.13 356.87,-278.21"/>
</g>
<!-- MoveInstrumentComponent&#45;&gt;ApplyTransmissionCorrection -->
<g id="edge9" class="edge">
<title>MoveInstrumentComponent&#45;&gt;ApplyTransmissionCorrection</title>
<path fill="none" stroke="black" d="M425.19,-232.63C440.87,-223.43 460.32,-212.02 477.25,-202.08"/>
<polygon fill="black" stroke="black" points="478.72,-205.28 485.57,-197.2 475.18,-199.24 478.72,-205.28"/>
</g>
<!-- Divide2 -->
<g id="node13" class="node">
<title>Divide2</title>
<path fill="lightskyblue" stroke="black" d="M534.59,-109C534.59,-109 498.59,-109 498.59,-109 492.59,-109 486.59,-103 486.59,-97 486.59,-97 486.59,-85 486.59,-85 486.59,-79 492.59,-73 498.59,-73 498.59,-73 534.59,-73 534.59,-73 540.59,-73 546.59,-79 546.59,-85 546.59,-85 546.59,-97 546.59,-97 546.59,-103 540.59,-109 534.59,-109"/>
<text text-anchor="middle" x="516.59" y="-87.3" font-family="Helvetica,sans-Serif" font-size="14.00">Divide</text>
</g>
<!-- ApplyTransmissionCorrection&#45;&gt;Divide2 -->
<g id="edge11" class="edge">
<title>ApplyTransmissionCorrection&#45;&gt;Divide2</title>
<path fill="none" stroke="black" d="M516.59,-159.8C516.59,-148.58 516.59,-133.67 516.59,-120.69"/>
<polygon fill="black" stroke="black" points="520.09,-120.98 516.59,-110.98 513.09,-120.98 520.09,-120.98"/>
<text text-anchor="middle" x="553.59" y="-130.8" font-family="Helvetica,sans-Serif" font-size="14.00">SolidAngle</text>
</g>
<!-- Divide2&#45;&gt;OutputWorkspace -->
<g id="edge12" class="edge">
<title>Divide2&#45;&gt;OutputWorkspace</title>
<path fill="none" stroke="black" d="M516.59,-72.81C516.59,-65.23 516.59,-56.1 516.59,-47.54"/>
<polygon fill="black" stroke="black" points="520.09,-47.54 516.59,-37.54 513.09,-47.54 520.09,-47.54"/>
</g>
</g>
</svg>
