<?xml version="1.0" encoding="UTF-8" standalone="no"?>
<!DOCTYPE svg PUBLIC "-//W3C//DTD SVG 1.1//EN"
 "http://www.w3.org/Graphics/SVG/1.1/DTD/svg11.dtd">
<!-- Generated by graphviz version 2.47.2 (20210527.1257)
 -->
<!-- Title: Beam Pages: 1 -->
<svg width="462pt" height="692pt"
 viewBox="0.00 0.00 462.40 692.00" xmlns="http://www.w3.org/2000/svg" xmlns:xlink="http://www.w3.org/1999/xlink">
<g id="graph0" class="graph" transform="scale(1 1) rotate(0) translate(4 688)">
<title>Beam</title>
<polygon fill="white" stroke="transparent" points="-4,4 -4,-688 458.4,-688 458.4,4 -4,4"/>
<!-- NormaliseBy -->
<g id="node1" class="node">
<title>NormaliseBy</title>
<polygon fill="limegreen" stroke="black" points="86.4,-612 0.1,-594 86.4,-576 172.7,-594 86.4,-612"/>
<text text-anchor="middle" x="86.4" y="-590.3" font-family="Helvetica" font-size="14.00">NormaliseBy</text>
</g>
<!-- Divide -->
<g id="node9" class="node">
<title>Divide</title>
<path fill="lightskyblue" stroke="black" d="M180.4,-540C180.4,-540 150.4,-540 150.4,-540 144.4,-540 138.4,-534 138.4,-528 138.4,-528 138.4,-516 138.4,-516 138.4,-510 144.4,-504 150.4,-504 150.4,-504 180.4,-504 180.4,-504 186.4,-504 192.4,-510 192.4,-516 192.4,-516 192.4,-528 192.4,-528 192.4,-534 186.4,-540 180.4,-540"/>
<text text-anchor="middle" x="165.4" y="-518.3" font-family="Helvetica" font-size="14.00">Divide</text>
</g>
<!-- NormaliseBy&#45;&gt;Divide -->
<g id="edge3" class="edge">
<title>NormaliseBy&#45;&gt;Divide</title>
<path fill="none" stroke="black" d="M102.01,-579.17C112.41,-569.95 126.35,-557.6 138.51,-546.82"/>
<polygon fill="black" stroke="black" points="141.03,-549.27 146.19,-540.02 136.39,-544.03 141.03,-549.27"/>
</g>
<!-- Runs -->
<g id="node2" class="node">
<title>Runs</title>
<ellipse fill="khaki" stroke="black" cx="245.4" cy="-666" rx="31.4" ry="18"/>
<text text-anchor="middle" x="245.4" y="-662.3" font-family="Helvetica" font-size="14.00">Runs</text>
</g>
<!-- LoadAndMerge -->
<g id="node8" class="node">
<title>LoadAndMerge</title>
<path fill="lightskyblue" stroke="black" d="M288.4,-612C288.4,-612 202.4,-612 202.4,-612 196.4,-612 190.4,-606 190.4,-600 190.4,-600 190.4,-588 190.4,-588 190.4,-582 196.4,-576 202.4,-576 202.4,-576 288.4,-576 288.4,-576 294.4,-576 300.4,-582 300.4,-588 300.4,-588 300.4,-600 300.4,-600 300.4,-606 294.4,-612 288.4,-612"/>
<text text-anchor="middle" x="245.4" y="-590.3" font-family="Helvetica" font-size="14.00">LoadAndMerge</text>
</g>
<!-- Runs&#45;&gt;LoadAndMerge -->
<g id="edge1" class="edge">
<title>Runs&#45;&gt;LoadAndMerge</title>
<path fill="none" stroke="black" d="M245.4,-647.7C245.4,-639.98 245.4,-630.71 245.4,-622.11"/>
<polygon fill="black" stroke="black" points="248.9,-622.1 245.4,-612.1 241.9,-622.1 248.9,-622.1"/>
</g>
<!-- BeamRadius -->
<g id="node3" class="node">
<title>BeamRadius</title>
<ellipse fill="khaki" stroke="black" cx="346.4" cy="-450" rx="61.99" ry="18"/>
<text text-anchor="middle" x="346.4" y="-446.3" font-family="Helvetica" font-size="14.00">BeamRadius</text>
</g>
<!-- FindCenterOfMassPosition -->
<g id="node11" class="node">
<title>FindCenterOfMassPosition</title>
<path fill="lightskyblue" stroke="black" d="M369.9,-396C369.9,-396 214.9,-396 214.9,-396 208.9,-396 202.9,-390 202.9,-384 202.9,-384 202.9,-372 202.9,-372 202.9,-366 208.9,-360 214.9,-360 214.9,-360 369.9,-360 369.9,-360 375.9,-360 381.9,-366 381.9,-372 381.9,-372 381.9,-384 381.9,-384 381.9,-390 375.9,-396 369.9,-396"/>
<text text-anchor="middle" x="292.4" y="-374.3" font-family="Helvetica" font-size="14.00">FindCenterOfMassPosition</text>
</g>
<!-- BeamRadius&#45;&gt;FindCenterOfMassPosition -->
<g id="edge7" class="edge">
<title>BeamRadius&#45;&gt;FindCenterOfMassPosition</title>
<path fill="none" stroke="black" d="M333.33,-432.05C326.92,-423.75 319.08,-413.58 311.98,-404.38"/>
<polygon fill="black" stroke="black" points="314.61,-402.06 305.73,-396.28 309.06,-406.33 314.61,-402.06"/>
</g>
<!-- BeamCenter -->
<g id="node4" class="node">
<title>BeamCenter</title>
<ellipse fill="khaki" stroke="black" cx="292.4" cy="-306" rx="60.39" ry="18"/>
<text text-anchor="middle" x="292.4" y="-302.3" font-family="Helvetica" font-size="14.00">BeamCenter</text>
</g>
<!-- MoveInstrumentComponent -->
<g id="node12" class="node">
<title>MoveInstrumentComponent</title>
<path fill="lightskyblue" stroke="black" d="M372.9,-252C372.9,-252 211.9,-252 211.9,-252 205.9,-252 199.9,-246 199.9,-240 199.9,-240 199.9,-228 199.9,-228 199.9,-222 205.9,-216 211.9,-216 211.9,-216 372.9,-216 372.9,-216 378.9,-216 384.9,-222 384.9,-228 384.9,-228 384.9,-240 384.9,-240 384.9,-246 378.9,-252 372.9,-252"/>
<text text-anchor="middle" x="292.4" y="-230.3" font-family="Helvetica" font-size="14.00">MoveInstrumentComponent</text>
</g>
<!-- BeamCenter&#45;&gt;MoveInstrumentComponent -->
<g id="edge9" class="edge">
<title>BeamCenter&#45;&gt;MoveInstrumentComponent</title>
<path fill="none" stroke="black" d="M292.4,-287.7C292.4,-279.98 292.4,-270.71 292.4,-262.11"/>
<polygon fill="black" stroke="black" points="295.9,-262.1 292.4,-252.1 288.9,-262.1 295.9,-262.1"/>
</g>
<!-- DarkCurrentWorkspace -->
<g id="node5" class="node">
<title>DarkCurrentWorkspace</title>
<ellipse fill="khaki" stroke="black" cx="313.4" cy="-522" rx="102.88" ry="18"/>
<text text-anchor="middle" x="313.4" y="-518.3" font-family="Helvetica" font-size="14.00">DarkCurrentWorkspace</text>
</g>
<!-- Minus -->
<g id="node10" class="node">
<title>Minus</title>
<path fill="lightskyblue" stroke="black" d="M254.4,-468C254.4,-468 224.4,-468 224.4,-468 218.4,-468 212.4,-462 212.4,-456 212.4,-456 212.4,-444 212.4,-444 212.4,-438 218.4,-432 224.4,-432 224.4,-432 254.4,-432 254.4,-432 260.4,-432 266.4,-438 266.4,-444 266.4,-444 266.4,-456 266.4,-456 266.4,-462 260.4,-468 254.4,-468"/>
<text text-anchor="middle" x="239.4" y="-446.3" font-family="Helvetica" font-size="14.00">Minus</text>
</g>
<!-- DarkCurrentWorkspace&#45;&gt;Minus -->
<g id="edge5" class="edge">
<title>DarkCurrentWorkspace&#45;&gt;Minus</title>
<path fill="none" stroke="black" d="M295.49,-504.05C286.28,-495.35 274.91,-484.59 264.82,-475.04"/>
<polygon fill="black" stroke="black" points="267.08,-472.36 257.41,-468.03 262.27,-477.45 267.08,-472.36"/>
</g>
<!-- OutputWorkspace -->
<g id="node6" class="node">
<title>OutputWorkspace</title>
<polygon fill="grey" stroke="black" points="426.63,-180 213.1,-180 158.17,-144 371.7,-144 426.63,-180"/>
<text text-anchor="middle" x="292.4" y="-158.3" font-family="Times-Roman" font-size="14.00">OutputWorkspace</text>
</g>
<!-- CalculateFlux -->
<g id="node13" class="node">
<title>CalculateFlux</title>
<path fill="lightskyblue" stroke="black" d="M329.4,-108C329.4,-108 255.4,-108 255.4,-108 249.4,-108 243.4,-102 243.4,-96 243.4,-96 243.4,-84 243.4,-84 243.4,-78 249.4,-72 255.4,-72 255.4,-72 329.4,-72 329.4,-72 335.4,-72 341.4,-78 341.4,-84 341.4,-84 341.4,-96 341.4,-96 341.4,-102 335.4,-108 329.4,-108"/>
<text text-anchor="middle" x="292.4" y="-86.3" font-family="Helvetica" font-size="14.00">CalculateFlux</text>
</g>
<!-- OutputWorkspace&#45;&gt;CalculateFlux -->
<g id="edge11" class="edge">
<title>OutputWorkspace&#45;&gt;CalculateFlux</title>
<path fill="none" stroke="black" d="M292.4,-143.7C292.4,-135.98 292.4,-126.71 292.4,-118.11"/>
<polygon fill="black" stroke="black" points="295.9,-118.1 292.4,-108.1 288.9,-118.1 295.9,-118.1"/>
</g>
<!-- OutputFluxWorkspace -->
<g id="node7" class="node">
<title>OutputFluxWorkspace</title>
<polygon fill="grey" stroke="black" points="454.4,-36 196.7,-36 130.4,0 388.11,0 454.4,-36"/>
<text text-anchor="middle" x="292.4" y="-14.3" font-family="Times-Roman" font-size="14.00">OutputFluxWorkspace</text>
</g>
<!-- LoadAndMerge&#45;&gt;Divide -->
<g id="edge2" class="edge">
<title>LoadAndMerge&#45;&gt;Divide</title>
<path fill="none" stroke="black" d="M225.63,-575.7C215.65,-566.97 203.39,-556.24 192.54,-546.75"/>
<polygon fill="black" stroke="black" points="194.78,-544.06 184.95,-540.1 190.17,-549.32 194.78,-544.06"/>
</g>
<!-- Divide&#45;&gt;Minus -->
<g id="edge4" class="edge">
<title>Divide&#45;&gt;Minus</title>
<path fill="none" stroke="black" d="M183.69,-503.7C192.83,-495.05 204.04,-484.45 214,-475.03"/>
<polygon fill="black" stroke="black" points="216.46,-477.52 221.32,-468.1 211.65,-472.43 216.46,-477.52"/>
</g>
<!-- Minus&#45;&gt;FindCenterOfMassPosition -->
<g id="edge6" class="edge">
<title>Minus&#45;&gt;FindCenterOfMassPosition</title>
<path fill="none" stroke="black" d="M252.5,-431.7C258.79,-423.39 266.45,-413.28 273.37,-404.14"/>
<polygon fill="black" stroke="black" points="276.2,-406.19 279.45,-396.1 270.62,-401.96 276.2,-406.19"/>
</g>
<!-- FindCenterOfMassPosition&#45;&gt;BeamCenter -->
<g id="edge8" class="edge">
<title>FindCenterOfMassPosition&#45;&gt;BeamCenter</title>
<path fill="none" stroke="black" d="M292.4,-359.7C292.4,-351.98 292.4,-342.71 292.4,-334.11"/>
<polygon fill="black" stroke="black" points="295.9,-334.1 292.4,-324.1 288.9,-334.1 295.9,-334.1"/>
</g>
<!-- MoveInstrumentComponent&#45;&gt;OutputWorkspace -->
<g id="edge10" class="edge">
<title>MoveInstrumentComponent&#45;&gt;OutputWorkspace</title>
<path fill="none" stroke="black" d="M292.4,-215.7C292.4,-207.98 292.4,-198.71 292.4,-190.11"/>
<polygon fill="black" stroke="black" points="295.9,-190.1 292.4,-180.1 288.9,-190.1 295.9,-190.1"/>
</g>
<!-- CalculateFlux&#45;&gt;OutputFluxWorkspace -->
<g id="edge12" class="edge">
<title>CalculateFlux&#45;&gt;OutputFluxWorkspace</title>
<path fill="none" stroke="black" d="M292.4,-71.7C292.4,-63.98 292.4,-54.71 292.4,-46.11"/>
<polygon fill="black" stroke="black" points="295.9,-46.1 292.4,-36.1 288.9,-46.1 295.9,-46.1"/>
</g>
</g>
</svg>
