<?xml version="1.0" encoding="UTF-8" standalone="no"?>
<!DOCTYPE svg PUBLIC "-//W3C//DTD SVG 1.1//EN"
 "http://www.w3.org/Graphics/SVG/1.1/DTD/svg11.dtd">
<!-- Generated by graphviz version 2.47.2 (20210527.1257)
 -->
<!-- Title: Reference Pages: 1 -->
<svg width="1188pt" height="934pt"
 viewBox="0.00 0.00 1188.38 934.00" xmlns="http://www.w3.org/2000/svg" xmlns:xlink="http://www.w3.org/1999/xlink">
<g id="graph0" class="graph" transform="scale(1 1) rotate(0) translate(4 930)">
<title>Reference</title>
<polygon fill="white" stroke="transparent" points="-4,4 -4,-930 1184.38,-930 1184.38,4 -4,4"/>
<!-- NormaliseBy -->
<g id="node1" class="node">
<title>NormaliseBy</title>
<polygon fill="limegreen" stroke="black" points="1093.98,-780 1007.67,-762 1093.98,-744 1180.28,-762 1093.98,-780"/>
<text text-anchor="middle" x="1093.98" y="-758.3" font-family="Helvetica" font-size="14.00">NormaliseBy</text>
</g>
<!-- Divide -->
<g id="node12" class="node">
<title>Divide</title>
<path fill="lightskyblue" stroke="black" d="M1108.98,-707C1108.98,-707 1078.98,-707 1078.98,-707 1072.98,-707 1066.98,-701 1066.98,-695 1066.98,-695 1066.98,-683 1066.98,-683 1066.98,-677 1072.98,-671 1078.98,-671 1078.98,-671 1108.98,-671 1108.98,-671 1114.98,-671 1120.98,-677 1120.98,-683 1120.98,-683 1120.98,-695 1120.98,-695 1120.98,-701 1114.98,-707 1108.98,-707"/>
<text text-anchor="middle" x="1093.98" y="-685.3" font-family="Helvetica" font-size="14.00">Divide</text>
</g>
<!-- NormaliseBy&#45;&gt;Divide -->
<g id="edge3" class="edge">
<title>NormaliseBy&#45;&gt;Divide</title>
<path fill="none" stroke="black" d="M1093.98,-743.81C1093.98,-735.79 1093.98,-726.05 1093.98,-717.07"/>
<polygon fill="black" stroke="black" points="1097.48,-717.03 1093.98,-707.03 1090.48,-717.03 1097.48,-717.03"/>
</g>
<!-- Run -->
<g id="node2" class="node">
<title>Run</title>
<ellipse fill="khaki" stroke="black" cx="1093.98" cy="-908" rx="27" ry="18"/>
<text text-anchor="middle" x="1093.98" y="-904.3" font-family="Helvetica" font-size="14.00">Run</text>
</g>
<!-- LoadAndMerge -->
<g id="node11" class="node">
<title>LoadAndMerge</title>
<path fill="lightskyblue" stroke="black" d="M1136.98,-853C1136.98,-853 1050.98,-853 1050.98,-853 1044.98,-853 1038.98,-847 1038.98,-841 1038.98,-841 1038.98,-829 1038.98,-829 1038.98,-823 1044.98,-817 1050.98,-817 1050.98,-817 1136.98,-817 1136.98,-817 1142.98,-817 1148.98,-823 1148.98,-829 1148.98,-829 1148.98,-841 1148.98,-841 1148.98,-847 1142.98,-853 1136.98,-853"/>
<text text-anchor="middle" x="1093.98" y="-831.3" font-family="Helvetica" font-size="14.00">LoadAndMerge</text>
</g>
<!-- Run&#45;&gt;LoadAndMerge -->
<g id="edge1" class="edge">
<title>Run&#45;&gt;LoadAndMerge</title>
<path fill="none" stroke="black" d="M1093.98,-889.81C1093.98,-881.79 1093.98,-872.05 1093.98,-863.07"/>
<polygon fill="black" stroke="black" points="1097.48,-863.03 1093.98,-853.03 1090.48,-863.03 1097.48,-863.03"/>
</g>
<!-- AbsorberInputWorkspace -->
<g id="node3" class="node">
<title>AbsorberInputWorkspace</title>
<ellipse fill="khaki" stroke="black" cx="938.98" cy="-689" rx="109.68" ry="18"/>
<text text-anchor="middle" x="938.98" y="-685.3" font-family="Helvetica" font-size="14.00">AbsorberInputWorkspace</text>
</g>
<!-- Minus -->
<g id="node13" class="node">
<title>Minus</title>
<path fill="lightskyblue" stroke="black" d="M998.98,-634C998.98,-634 968.98,-634 968.98,-634 962.98,-634 956.98,-628 956.98,-622 956.98,-622 956.98,-610 956.98,-610 956.98,-604 962.98,-598 968.98,-598 968.98,-598 998.98,-598 998.98,-598 1004.98,-598 1010.98,-604 1010.98,-610 1010.98,-610 1010.98,-622 1010.98,-622 1010.98,-628 1004.98,-634 998.98,-634"/>
<text text-anchor="middle" x="983.98" y="-612.3" font-family="Helvetica" font-size="14.00">Minus</text>
</g>
<!-- AbsorberInputWorkspace&#45;&gt;Minus -->
<g id="edge5" class="edge">
<title>AbsorberInputWorkspace&#45;&gt;Minus</title>
<path fill="none" stroke="black" d="M949.87,-670.81C955.23,-662.35 961.8,-651.98 967.74,-642.61"/>
<polygon fill="black" stroke="black" points="970.79,-644.35 973.18,-634.03 964.87,-640.6 970.79,-644.35"/>
</g>
<!-- ContainerInputWorkspace -->
<g id="node4" class="node">
<title>ContainerInputWorkspace</title>
<ellipse fill="khaki" stroke="black" cx="494.98" cy="-383" rx="112.38" ry="18"/>
<text text-anchor="middle" x="494.98" y="-379.3" font-family="Helvetica" font-size="14.00">ContainerInputWorkspace</text>
</g>
<!-- Minus2 -->
<g id="node17" class="node">
<title>Minus2</title>
<path fill="lightskyblue" stroke="black" d="M572.98,-328C572.98,-328 542.98,-328 542.98,-328 536.98,-328 530.98,-322 530.98,-316 530.98,-316 530.98,-304 530.98,-304 530.98,-298 536.98,-292 542.98,-292 542.98,-292 572.98,-292 572.98,-292 578.98,-292 584.98,-298 584.98,-304 584.98,-304 584.98,-316 584.98,-316 584.98,-322 578.98,-328 572.98,-328"/>
<text text-anchor="middle" x="557.98" y="-306.3" font-family="Helvetica" font-size="14.00">Minus</text>
</g>
<!-- ContainerInputWorkspace&#45;&gt;Minus2 -->
<g id="edge12" class="edge">
<title>ContainerInputWorkspace&#45;&gt;Minus2</title>
<path fill="none" stroke="black" d="M510.23,-364.81C517.97,-356.09 527.51,-345.34 536.02,-335.75"/>
<polygon fill="black" stroke="black" points="538.85,-337.83 542.87,-328.03 533.61,-333.19 538.85,-337.83"/>
</g>
<!-- MaskedInputWorkspace -->
<g id="node5" class="node">
<title>MaskedInputWorkspace</title>
<ellipse fill="khaki" stroke="black" cx="407.98" cy="-310" rx="105.08" ry="18"/>
<text text-anchor="middle" x="407.98" y="-306.3" font-family="Helvetica" font-size="14.00">MaskedInputWorkspace</text>
</g>
<!-- MaskDetectors -->
<g id="node19" class="node">
<title>MaskDetectors</title>
<path fill="lightskyblue" stroke="black" d="M493.48,-255C493.48,-255 410.48,-255 410.48,-255 404.48,-255 398.48,-249 398.48,-243 398.48,-243 398.48,-231 398.48,-231 398.48,-225 404.48,-219 410.48,-219 410.48,-219 493.48,-219 493.48,-219 499.48,-219 505.48,-225 505.48,-231 505.48,-231 505.48,-243 505.48,-243 505.48,-249 499.48,-255 493.48,-255"/>
<text text-anchor="middle" x="451.98" y="-233.3" font-family="Helvetica" font-size="14.00">MaskDetectors</text>
</g>
<!-- MaskedInputWorkspace&#45;&gt;MaskDetectors -->
<g id="edge14" class="edge">
<title>MaskedInputWorkspace&#45;&gt;MaskDetectors</title>
<path fill="none" stroke="black" d="M418.63,-291.81C423.87,-283.35 430.3,-272.98 436.1,-263.61"/>
<polygon fill="black" stroke="black" points="439.13,-265.37 441.42,-255.03 433.18,-261.69 439.13,-265.37"/>
</g>
<!-- BeamInputWorkspace -->
<g id="node6" class="node">
<title>BeamInputWorkspace</title>
<ellipse fill="khaki" stroke="black" cx="841.98" cy="-616" rx="97.48" ry="18"/>
<text text-anchor="middle" x="841.98" y="-612.3" font-family="Helvetica" font-size="14.00">BeamInputWorkspace</text>
</g>
<!-- MoveInstrumentComponent -->
<g id="node14" class="node">
<title>MoveInstrumentComponent</title>
<path fill="lightskyblue" stroke="black" d="M934.48,-561C934.48,-561 773.48,-561 773.48,-561 767.48,-561 761.48,-555 761.48,-549 761.48,-549 761.48,-537 761.48,-537 761.48,-531 767.48,-525 773.48,-525 773.48,-525 934.48,-525 934.48,-525 940.48,-525 946.48,-531 946.48,-537 946.48,-537 946.48,-549 946.48,-549 946.48,-555 940.48,-561 934.48,-561"/>
<text text-anchor="middle" x="853.98" y="-539.3" font-family="Helvetica" font-size="14.00">MoveInstrumentComponent</text>
</g>
<!-- BeamInputWorkspace&#45;&gt;MoveInstrumentComponent -->
<g id="edge7" class="edge">
<title>BeamInputWorkspace&#45;&gt;MoveInstrumentComponent</title>
<path fill="none" stroke="black" d="M844.88,-597.81C846.24,-589.79 847.88,-580.05 849.4,-571.07"/>
<polygon fill="black" stroke="black" points="852.88,-571.47 851.1,-561.03 845.98,-570.31 852.88,-571.47"/>
</g>
<!-- TransmissionInputWorkspace -->
<g id="node7" class="node">
<title>TransmissionInputWorkspace</title>
<ellipse fill="khaki" stroke="black" cx="668.98" cy="-456" rx="126.98" ry="18"/>
<text text-anchor="middle" x="668.98" y="-452.3" font-family="Helvetica" font-size="14.00">TransmissionInputWorkspace</text>
</g>
<!-- ApplyTransmissionCorrection -->
<g id="node15" class="node">
<title>ApplyTransmissionCorrection</title>
<path fill="lightskyblue" stroke="black" d="M806.98,-401C806.98,-401 636.98,-401 636.98,-401 630.98,-401 624.98,-395 624.98,-389 624.98,-389 624.98,-377 624.98,-377 624.98,-371 630.98,-365 636.98,-365 636.98,-365 806.98,-365 806.98,-365 812.98,-365 818.98,-371 818.98,-377 818.98,-377 818.98,-389 818.98,-389 818.98,-395 812.98,-401 806.98,-401"/>
<text text-anchor="middle" x="721.98" y="-379.3" font-family="Helvetica" font-size="14.00">ApplyTransmissionCorrection</text>
</g>
<!-- TransmissionInputWorkspace&#45;&gt;ApplyTransmissionCorrection -->
<g id="edge10" class="edge">
<title>TransmissionInputWorkspace&#45;&gt;ApplyTransmissionCorrection</title>
<path fill="none" stroke="black" d="M681.81,-437.81C688.19,-429.27 696.02,-418.77 703.07,-409.32"/>
<polygon fill="black" stroke="black" points="706.09,-411.14 709.26,-401.03 700.48,-406.95 706.09,-411.14"/>
</g>
<!-- SampleThickness -->
<g id="node8" class="node">
<title>SampleThickness</title>
<ellipse fill="khaki" stroke="black" cx="299.98" cy="-237" rx="80.69" ry="18"/>
<text text-anchor="middle" x="299.98" y="-233.3" font-family="Helvetica" font-size="14.00">SampleThickness</text>
</g>
<!-- NormaliseByThickness -->
<g id="node20" class="node">
<title>NormaliseByThickness</title>
<path fill="lightskyblue" stroke="black" d="M377.48,-182C377.48,-182 246.48,-182 246.48,-182 240.48,-182 234.48,-176 234.48,-170 234.48,-170 234.48,-158 234.48,-158 234.48,-152 240.48,-146 246.48,-146 246.48,-146 377.48,-146 377.48,-146 383.48,-146 389.48,-152 389.48,-158 389.48,-158 389.48,-170 389.48,-170 389.48,-176 383.48,-182 377.48,-182"/>
<text text-anchor="middle" x="311.98" y="-160.3" font-family="Helvetica" font-size="14.00">NormaliseByThickness</text>
</g>
<!-- SampleThickness&#45;&gt;NormaliseByThickness -->
<g id="edge16" class="edge">
<title>SampleThickness&#45;&gt;NormaliseByThickness</title>
<path fill="none" stroke="black" d="M302.88,-218.81C304.24,-210.79 305.88,-201.05 307.4,-192.07"/>
<polygon fill="black" stroke="black" points="310.88,-192.47 309.1,-182.03 303.98,-191.31 310.88,-192.47"/>
</g>
<!-- OutputWorkspace -->
<g id="node9" class="node">
<title>OutputWorkspace</title>
<polygon fill="grey" stroke="black" points="555.21,-109 341.68,-109 286.75,-73 500.28,-73 555.21,-109"/>
<text text-anchor="middle" x="420.98" y="-87.3" font-family="Times-Roman" font-size="14.00">OutputWorkspace</text>
</g>
<!-- SensitivityOutputWorkspace -->
<g id="node10" class="node">
<title>SensitivityOutputWorkspace</title>
<polygon fill="grey" stroke="black" points="405.93,-36 83.08,-36 0.02,0 322.88,0 405.93,-36"/>
<text text-anchor="middle" x="202.98" y="-14.3" font-family="Times-Roman" font-size="14.00">SensitivityOutputWorkspace</text>
</g>
<!-- LoadAndMerge&#45;&gt;NormaliseBy -->
<g id="edge2" class="edge">
<title>LoadAndMerge&#45;&gt;NormaliseBy</title>
<path fill="none" stroke="black" d="M1093.98,-816.81C1093.98,-808.79 1093.98,-799.05 1093.98,-790.07"/>
<polygon fill="black" stroke="black" points="1097.48,-790.03 1093.98,-780.03 1090.48,-790.03 1097.48,-790.03"/>
</g>
<!-- Divide&#45;&gt;Minus -->
<g id="edge4" class="edge">
<title>Divide&#45;&gt;Minus</title>
<path fill="none" stroke="black" d="M1067.63,-670.99C1053.04,-661.58 1034.72,-649.76 1018.95,-639.57"/>
<polygon fill="black" stroke="black" points="1020.79,-636.6 1010.49,-634.11 1016.99,-642.48 1020.79,-636.6"/>
</g>
<!-- Minus&#45;&gt;MoveInstrumentComponent -->
<g id="edge6" class="edge">
<title>Minus&#45;&gt;MoveInstrumentComponent</title>
<path fill="none" stroke="black" d="M956.72,-600.12C938.65,-590.24 914.61,-577.11 894.32,-566.04"/>
<polygon fill="black" stroke="black" points="895.76,-562.83 885.31,-561.11 892.4,-568.98 895.76,-562.83"/>
</g>
<!-- SolidAngle -->
<g id="node16" class="node">
<title>SolidAngle</title>
<path fill="lightskyblue" stroke="black" d="M882.48,-474C882.48,-474 825.48,-474 825.48,-474 819.48,-474 813.48,-468 813.48,-462 813.48,-462 813.48,-450 813.48,-450 813.48,-444 819.48,-438 825.48,-438 825.48,-438 882.48,-438 882.48,-438 888.48,-438 894.48,-444 894.48,-450 894.48,-450 894.48,-462 894.48,-462 894.48,-468 888.48,-474 882.48,-474"/>
<text text-anchor="middle" x="853.98" y="-452.3" font-family="Helvetica" font-size="14.00">SolidAngle</text>
</g>
<!-- MoveInstrumentComponent&#45;&gt;SolidAngle -->
<g id="edge8" class="edge">
<title>MoveInstrumentComponent&#45;&gt;SolidAngle</title>
<path fill="none" stroke="black" d="M853.98,-524.8C853.98,-513.16 853.98,-497.55 853.98,-484.24"/>
<polygon fill="black" stroke="black" points="857.48,-484.18 853.98,-474.18 850.48,-484.18 857.48,-484.18"/>
<text text-anchor="middle" x="872.98" y="-495.8" font-family="Helvetica" font-size="14.00">Divide</text>
</g>
<!-- ApplyTransmissionCorrection&#45;&gt;Minus2 -->
<g id="edge11" class="edge">
<title>ApplyTransmissionCorrection&#45;&gt;Minus2</title>
<path fill="none" stroke="black" d="M682.69,-364.99C655.86,-353.37 620.55,-338.09 594.35,-326.75"/>
<polygon fill="black" stroke="black" points="595.71,-323.52 585.14,-322.76 592.93,-329.95 595.71,-323.52"/>
</g>
<!-- SolidAngle&#45;&gt;ApplyTransmissionCorrection -->
<g id="edge9" class="edge">
<title>SolidAngle&#45;&gt;ApplyTransmissionCorrection</title>
<path fill="none" stroke="black" d="M822.36,-437.99C804.45,-428.36 781.85,-416.21 762.64,-405.87"/>
<polygon fill="black" stroke="black" points="764.26,-402.77 753.79,-401.11 760.94,-408.93 764.26,-402.77"/>
</g>
<!-- Minus2&#45;&gt;MaskDetectors -->
<g id="edge13" class="edge">
<title>Minus2&#45;&gt;MaskDetectors</title>
<path fill="none" stroke="black" d="M532.59,-291.99C518.66,-282.67 501.21,-270.97 486.1,-260.86"/>
<polygon fill="black" stroke="black" points="487.78,-257.77 477.53,-255.11 483.89,-263.59 487.78,-257.77"/>
</g>
<!-- CalculateEfficiency -->
<g id="node18" class="node">
<title>CalculateEfficiency</title>
<path fill="lightskyblue" stroke="black" d="M256.48,-109C256.48,-109 149.48,-109 149.48,-109 143.48,-109 137.48,-103 137.48,-97 137.48,-97 137.48,-85 137.48,-85 137.48,-79 143.48,-73 149.48,-73 149.48,-73 256.48,-73 256.48,-73 262.48,-73 268.48,-79 268.48,-85 268.48,-85 268.48,-97 268.48,-97 268.48,-103 262.48,-109 256.48,-109"/>
<text text-anchor="middle" x="202.98" y="-87.3" font-family="Helvetica" font-size="14.00">CalculateEfficiency</text>
</g>
<!-- CalculateEfficiency&#45;&gt;SensitivityOutputWorkspace -->
<g id="edge18" class="edge">
<title>CalculateEfficiency&#45;&gt;SensitivityOutputWorkspace</title>
<path fill="none" stroke="black" d="M202.98,-72.81C202.98,-64.79 202.98,-55.05 202.98,-46.07"/>
<polygon fill="black" stroke="black" points="206.48,-46.03 202.98,-36.03 199.48,-46.03 206.48,-46.03"/>
</g>
<!-- MaskDetectors&#45;&gt;NormaliseByThickness -->
<g id="edge15" class="edge">
<title>MaskDetectors&#45;&gt;NormaliseByThickness</title>
<path fill="none" stroke="black" d="M418.44,-218.99C399.36,-209.32 375.27,-197.1 354.82,-186.73"/>
<polygon fill="black" stroke="black" points="356.22,-183.52 345.72,-182.11 353.06,-189.76 356.22,-183.52"/>
</g>
<!-- NormaliseByThickness&#45;&gt;OutputWorkspace -->
<g id="edge19" class="edge">
<title>NormaliseByThickness&#45;&gt;OutputWorkspace</title>
<path fill="none" stroke="black" d="M338.08,-145.99C352.54,-136.58 370.69,-124.76 386.32,-114.57"/>
<polygon fill="black" stroke="black" points="388.23,-117.5 394.7,-109.11 384.41,-111.64 388.23,-117.5"/>
</g>
<!-- NormaliseByThickness&#45;&gt;CalculateEfficiency -->
<g id="edge17" class="edge">
<title>NormaliseByThickness&#45;&gt;CalculateEfficiency</title>
<path fill="none" stroke="black" d="M285.87,-145.99C271.41,-136.58 253.26,-124.76 237.63,-114.57"/>
<polygon fill="black" stroke="black" points="239.54,-111.64 229.25,-109.11 235.72,-117.5 239.54,-111.64"/>
</g>
</g>
</svg>
