<?xml version="1.0" encoding="UTF-8" standalone="no"?>
<!DOCTYPE svg PUBLIC "-//W3C//DTD SVG 1.1//EN"
 "http://www.w3.org/Graphics/SVG/1.1/DTD/svg11.dtd">
<!-- Generated by graphviz version 2.47.2 (20210527.1257)
 -->
<!-- Title: Sample Pages: 1 -->
<svg width="622pt" height="1167pt"
 viewBox="0.00 0.00 621.88 1167.00" xmlns="http://www.w3.org/2000/svg" xmlns:xlink="http://www.w3.org/1999/xlink">
<g id="graph0" class="graph" transform="scale(1 1) rotate(0) translate(4 1163)">
<title>Sample</title>
<polygon fill="white" stroke="transparent" points="-4,4 -4,-1163 617.88,-1163 617.88,4 -4,4"/>
<!-- NormaliseBy -->
<g id="node1" class="node">
<title>NormaliseBy</title>
<polygon fill="limegreen" stroke="black" points="350.49,-1013 264.19,-995 350.49,-977 436.79,-995 350.49,-1013"/>
<text text-anchor="middle" x="350.49" y="-991.3" font-family="Helvetica" font-size="14.00">NormaliseBy</text>
</g>
<!-- Divide -->
<g id="node14" class="node">
<title>Divide</title>
<path fill="lightskyblue" stroke="black" d="M365.49,-940C365.49,-940 335.49,-940 335.49,-940 329.49,-940 323.49,-934 323.49,-928 323.49,-928 323.49,-916 323.49,-916 323.49,-910 329.49,-904 335.49,-904 335.49,-904 365.49,-904 365.49,-904 371.49,-904 377.49,-910 377.49,-916 377.49,-916 377.49,-928 377.49,-928 377.49,-934 371.49,-940 365.49,-940"/>
<text text-anchor="middle" x="350.49" y="-918.3" font-family="Helvetica" font-size="14.00">Divide</text>
</g>
<!-- NormaliseBy&#45;&gt;Divide -->
<g id="edge3" class="edge">
<title>NormaliseBy&#45;&gt;Divide</title>
<path fill="none" stroke="black" d="M350.49,-976.81C350.49,-968.79 350.49,-959.05 350.49,-950.07"/>
<polygon fill="black" stroke="black" points="353.99,-950.03 350.49,-940.03 346.99,-950.03 353.99,-950.03"/>
</g>
<!-- AbsoluteScaleBy -->
<g id="node2" class="node">
<title>AbsoluteScaleBy</title>
<polygon fill="limegreen" stroke="black" points="257.49,-342 148.23,-324 257.49,-306 366.75,-324 257.49,-342"/>
<text text-anchor="middle" x="257.49" y="-320.3" font-family="Helvetica" font-size="14.00">AbsoluteScaleBy</text>
</g>
<!-- Divide2 -->
<g id="node22" class="node">
<title>Divide2</title>
<path fill="lightskyblue" stroke="black" d="M166.49,-255C166.49,-255 136.49,-255 136.49,-255 130.49,-255 124.49,-249 124.49,-243 124.49,-243 124.49,-231 124.49,-231 124.49,-225 130.49,-219 136.49,-219 136.49,-219 166.49,-219 166.49,-219 172.49,-219 178.49,-225 178.49,-231 178.49,-231 178.49,-243 178.49,-243 178.49,-249 172.49,-255 166.49,-255"/>
<text text-anchor="middle" x="151.49" y="-233.3" font-family="Helvetica" font-size="14.00">Divide</text>
</g>
<!-- AbsoluteScaleBy&#45;&gt;Divide2 -->
<g id="edge18" class="edge">
<title>AbsoluteScaleBy&#45;&gt;Divide2</title>
<path fill="none" stroke="black" d="M239.51,-308.58C223.46,-295.71 199.64,-276.61 180.84,-261.53"/>
<polygon fill="black" stroke="black" points="182.85,-258.66 172.85,-255.13 178.47,-264.12 182.85,-258.66"/>
<text text-anchor="middle" x="243.49" y="-276.8" font-family="Helvetica" font-size="14.00">Beam Flux</text>
</g>
<!-- Divide4 -->
<g id="node24" class="node">
<title>Divide4</title>
<path fill="lightskyblue" stroke="black" d="M484.49,-255C484.49,-255 454.49,-255 454.49,-255 448.49,-255 442.49,-249 442.49,-243 442.49,-243 442.49,-231 442.49,-231 442.49,-225 448.49,-219 454.49,-219 454.49,-219 484.49,-219 484.49,-219 490.49,-219 496.49,-225 496.49,-231 496.49,-231 496.49,-243 496.49,-243 496.49,-249 490.49,-255 484.49,-255"/>
<text text-anchor="middle" x="469.49" y="-233.3" font-family="Helvetica" font-size="14.00">Divide</text>
</g>
<!-- AbsoluteScaleBy&#45;&gt;Divide4 -->
<g id="edge23" class="edge">
<title>AbsoluteScaleBy&#45;&gt;Divide4</title>
<path fill="none" stroke="black" d="M284.07,-310.33C307.14,-299.61 341.59,-284.23 372.49,-273 396.46,-264.29 405.33,-264.84 432.62,-255.02"/>
<polygon fill="black" stroke="black" points="434.03,-258.23 442.16,-251.44 431.57,-251.67 434.03,-258.23"/>
<text text-anchor="middle" x="425.49" y="-276.8" font-family="Helvetica" font-size="14.00">Standard Sample</text>
</g>
<!-- Run -->
<g id="node3" class="node">
<title>Run</title>
<ellipse fill="khaki" stroke="black" cx="350.49" cy="-1141" rx="27" ry="18"/>
<text text-anchor="middle" x="350.49" y="-1137.3" font-family="Helvetica" font-size="14.00">Run</text>
</g>
<!-- LoadAndMerge -->
<g id="node13" class="node">
<title>LoadAndMerge</title>
<path fill="lightskyblue" stroke="black" d="M393.49,-1086C393.49,-1086 307.49,-1086 307.49,-1086 301.49,-1086 295.49,-1080 295.49,-1074 295.49,-1074 295.49,-1062 295.49,-1062 295.49,-1056 301.49,-1050 307.49,-1050 307.49,-1050 393.49,-1050 393.49,-1050 399.49,-1050 405.49,-1056 405.49,-1062 405.49,-1062 405.49,-1074 405.49,-1074 405.49,-1080 399.49,-1086 393.49,-1086"/>
<text text-anchor="middle" x="350.49" y="-1064.3" font-family="Helvetica" font-size="14.00">LoadAndMerge</text>
</g>
<!-- Run&#45;&gt;LoadAndMerge -->
<g id="edge1" class="edge">
<title>Run&#45;&gt;LoadAndMerge</title>
<path fill="none" stroke="black" d="M350.49,-1122.81C350.49,-1114.79 350.49,-1105.05 350.49,-1096.07"/>
<polygon fill="black" stroke="black" points="353.99,-1096.03 350.49,-1086.03 346.99,-1096.03 353.99,-1096.03"/>
</g>
<!-- BeamInputWorkspace -->
<g id="node4" class="node">
<title>BeamInputWorkspace</title>
<ellipse fill="khaki" stroke="black" cx="97.49" cy="-849" rx="97.48" ry="18"/>
<text text-anchor="middle" x="97.49" y="-845.3" font-family="Helvetica" font-size="14.00">BeamInputWorkspace</text>
</g>
<!-- MoveInstrumentComponent -->
<g id="node16" class="node">
<title>MoveInstrumentComponent</title>
<path fill="lightskyblue" stroke="black" d="M320.99,-794C320.99,-794 159.99,-794 159.99,-794 153.99,-794 147.99,-788 147.99,-782 147.99,-782 147.99,-770 147.99,-770 147.99,-764 153.99,-758 159.99,-758 159.99,-758 320.99,-758 320.99,-758 326.99,-758 332.99,-764 332.99,-770 332.99,-770 332.99,-782 332.99,-782 332.99,-788 326.99,-794 320.99,-794"/>
<text text-anchor="middle" x="240.49" y="-772.3" font-family="Helvetica" font-size="14.00">MoveInstrumentComponent</text>
</g>
<!-- BeamInputWorkspace&#45;&gt;MoveInstrumentComponent -->
<g id="edge7" class="edge">
<title>BeamInputWorkspace&#45;&gt;MoveInstrumentComponent</title>
<path fill="none" stroke="black" d="M129.94,-831.89C149.84,-822.01 175.56,-809.24 197.19,-798.5"/>
<polygon fill="black" stroke="black" points="198.78,-801.62 206.18,-794.04 195.66,-795.35 198.78,-801.62"/>
</g>
<!-- BeamInputWorkspace&#45;&gt;Divide2 -->
<g id="edge19" class="edge">
<title>BeamInputWorkspace&#45;&gt;Divide2</title>
<path fill="none" stroke="black" d="M106.32,-830.99C112.8,-816.91 120.49,-796.18 120.49,-777 120.49,-777 120.49,-777 120.49,-323 120.49,-302.38 128.64,-280.57 136.58,-264.2"/>
<polygon fill="black" stroke="black" points="139.72,-265.74 141.17,-255.24 133.49,-262.54 139.72,-265.74"/>
</g>
<!-- TransmissionInputWorkspace -->
<g id="node5" class="node">
<title>TransmissionInputWorkspace</title>
<ellipse fill="khaki" stroke="black" cx="425.49" cy="-689" rx="126.98" ry="18"/>
<text text-anchor="middle" x="425.49" y="-685.3" font-family="Helvetica" font-size="14.00">TransmissionInputWorkspace</text>
</g>
<!-- ApplyTransmissionCorrection -->
<g id="node17" class="node">
<title>ApplyTransmissionCorrection</title>
<path fill="lightskyblue" stroke="black" d="M331.49,-634C331.49,-634 161.49,-634 161.49,-634 155.49,-634 149.49,-628 149.49,-622 149.49,-622 149.49,-610 149.49,-610 149.49,-604 155.49,-598 161.49,-598 161.49,-598 331.49,-598 331.49,-598 337.49,-598 343.49,-604 343.49,-610 343.49,-610 343.49,-622 343.49,-622 343.49,-628 337.49,-634 331.49,-634"/>
<text text-anchor="middle" x="246.49" y="-612.3" font-family="Helvetica" font-size="14.00">ApplyTransmissionCorrection</text>
</g>
<!-- TransmissionInputWorkspace&#45;&gt;ApplyTransmissionCorrection -->
<g id="edge10" class="edge">
<title>TransmissionInputWorkspace&#45;&gt;ApplyTransmissionCorrection</title>
<path fill="none" stroke="black" d="M384.87,-671.89C359.41,-661.79 326.32,-648.67 298.89,-637.78"/>
<polygon fill="black" stroke="black" points="300.03,-634.47 289.44,-634.04 297.45,-640.98 300.03,-634.47"/>
</g>
<!-- AbsorberInputWorkspace -->
<g id="node6" class="node">
<title>AbsorberInputWorkspace</title>
<ellipse fill="khaki" stroke="black" cx="195.49" cy="-922" rx="109.68" ry="18"/>
<text text-anchor="middle" x="195.49" y="-918.3" font-family="Helvetica" font-size="14.00">AbsorberInputWorkspace</text>
</g>
<!-- Minus -->
<g id="node15" class="node">
<title>Minus</title>
<path fill="lightskyblue" stroke="black" d="M255.49,-867C255.49,-867 225.49,-867 225.49,-867 219.49,-867 213.49,-861 213.49,-855 213.49,-855 213.49,-843 213.49,-843 213.49,-837 219.49,-831 225.49,-831 225.49,-831 255.49,-831 255.49,-831 261.49,-831 267.49,-837 267.49,-843 267.49,-843 267.49,-855 267.49,-855 267.49,-861 261.49,-867 255.49,-867"/>
<text text-anchor="middle" x="240.49" y="-845.3" font-family="Helvetica" font-size="14.00">Minus</text>
</g>
<!-- AbsorberInputWorkspace&#45;&gt;Minus -->
<g id="edge5" class="edge">
<title>AbsorberInputWorkspace&#45;&gt;Minus</title>
<path fill="none" stroke="black" d="M206.38,-903.81C211.75,-895.35 218.32,-884.98 224.26,-875.61"/>
<polygon fill="black" stroke="black" points="227.3,-877.35 229.7,-867.03 221.39,-873.6 227.3,-877.35"/>
</g>
<!-- ContainerInputWorkspace -->
<g id="node7" class="node">
<title>ContainerInputWorkspace</title>
<ellipse fill="khaki" stroke="black" cx="473.49" cy="-616" rx="112.38" ry="18"/>
<text text-anchor="middle" x="473.49" y="-612.3" font-family="Helvetica" font-size="14.00">ContainerInputWorkspace</text>
</g>
<!-- Minus2 -->
<g id="node19" class="node">
<title>Minus2</title>
<path fill="lightskyblue" stroke="black" d="M264.49,-561C264.49,-561 234.49,-561 234.49,-561 228.49,-561 222.49,-555 222.49,-549 222.49,-549 222.49,-537 222.49,-537 222.49,-531 228.49,-525 234.49,-525 234.49,-525 264.49,-525 264.49,-525 270.49,-525 276.49,-531 276.49,-537 276.49,-537 276.49,-549 276.49,-549 276.49,-555 270.49,-561 264.49,-561"/>
<text text-anchor="middle" x="249.49" y="-539.3" font-family="Helvetica" font-size="14.00">Minus</text>
</g>
<!-- ContainerInputWorkspace&#45;&gt;Minus2 -->
<g id="edge12" class="edge">
<title>ContainerInputWorkspace&#45;&gt;Minus2</title>
<path fill="none" stroke="black" d="M414.27,-600.61C379.19,-591.49 333.85,-578.66 286.34,-561.05"/>
<polygon fill="black" stroke="black" points="287.4,-557.71 276.81,-557.46 284.94,-564.26 287.4,-557.71"/>
</g>
<!-- SensitivityInputWorkspace -->
<g id="node8" class="node">
<title>SensitivityInputWorkspace</title>
<ellipse fill="khaki" stroke="black" cx="310.49" cy="-237" rx="113.98" ry="18"/>
<text text-anchor="middle" x="310.49" y="-233.3" font-family="Helvetica" font-size="14.00">SensitivityInputWorkspace</text>
</g>
<!-- Divide3 -->
<g id="node23" class="node">
<title>Divide3</title>
<path fill="lightskyblue" stroke="black" d="M325.49,-182C325.49,-182 295.49,-182 295.49,-182 289.49,-182 283.49,-176 283.49,-170 283.49,-170 283.49,-158 283.49,-158 283.49,-152 289.49,-146 295.49,-146 295.49,-146 325.49,-146 325.49,-146 331.49,-146 337.49,-152 337.49,-158 337.49,-158 337.49,-170 337.49,-170 337.49,-176 331.49,-182 325.49,-182"/>
<text text-anchor="middle" x="310.49" y="-160.3" font-family="Helvetica" font-size="14.00">Divide</text>
</g>
<!-- SensitivityInputWorkspace&#45;&gt;Divide3 -->
<g id="edge21" class="edge">
<title>SensitivityInputWorkspace&#45;&gt;Divide3</title>
<path fill="none" stroke="black" d="M310.49,-218.81C310.49,-210.79 310.49,-201.05 310.49,-192.07"/>
<polygon fill="black" stroke="black" points="313.99,-192.03 310.49,-182.03 306.99,-192.03 313.99,-192.03"/>
</g>
<!-- ReferenceInputWorkspace -->
<g id="node9" class="node">
<title>ReferenceInputWorkspace</title>
<ellipse fill="khaki" stroke="black" cx="499.49" cy="-324" rx="114.28" ry="18"/>
<text text-anchor="middle" x="499.49" y="-320.3" font-family="Helvetica" font-size="14.00">ReferenceInputWorkspace</text>
</g>
<!-- ReferenceInputWorkspace&#45;&gt;Divide4 -->
<g id="edge24" class="edge">
<title>ReferenceInputWorkspace&#45;&gt;Divide4</title>
<path fill="none" stroke="black" d="M493.42,-305.8C489.27,-294.05 483.69,-278.24 478.97,-264.84"/>
<polygon fill="black" stroke="black" points="482.18,-263.44 475.55,-255.18 475.58,-265.77 482.18,-263.44"/>
</g>
<!-- MaskedInputWorkspace -->
<g id="node10" class="node">
<title>MaskedInputWorkspace</title>
<ellipse fill="khaki" stroke="black" cx="399.49" cy="-543" rx="105.08" ry="18"/>
<text text-anchor="middle" x="399.49" y="-539.3" font-family="Helvetica" font-size="14.00">MaskedInputWorkspace</text>
</g>
<!-- MaskDetectors -->
<g id="node20" class="node">
<title>MaskDetectors</title>
<path fill="lightskyblue" stroke="black" d="M291.99,-488C291.99,-488 208.99,-488 208.99,-488 202.99,-488 196.99,-482 196.99,-476 196.99,-476 196.99,-464 196.99,-464 196.99,-458 202.99,-452 208.99,-452 208.99,-452 291.99,-452 291.99,-452 297.99,-452 303.99,-458 303.99,-464 303.99,-464 303.99,-476 303.99,-476 303.99,-482 297.99,-488 291.99,-488"/>
<text text-anchor="middle" x="250.49" y="-466.3" font-family="Helvetica" font-size="14.00">MaskDetectors</text>
</g>
<!-- MaskedInputWorkspace&#45;&gt;MaskDetectors -->
<g id="edge14" class="edge">
<title>MaskedInputWorkspace&#45;&gt;MaskDetectors</title>
<path fill="none" stroke="black" d="M365.68,-525.89C344.85,-515.96 317.9,-503.12 295.31,-492.36"/>
<polygon fill="black" stroke="black" points="296.78,-489.18 286.25,-488.04 293.77,-495.5 296.78,-489.18"/>
</g>
<!-- SampleThickness -->
<g id="node11" class="node">
<title>SampleThickness</title>
<ellipse fill="khaki" stroke="black" cx="402.49" cy="-470" rx="80.69" ry="18"/>
<text text-anchor="middle" x="402.49" y="-466.3" font-family="Helvetica" font-size="14.00">SampleThickness</text>
</g>
<!-- NormaliseByThickness -->
<g id="node21" class="node">
<title>NormaliseByThickness</title>
<path fill="lightskyblue" stroke="black" d="M322.99,-415C322.99,-415 191.99,-415 191.99,-415 185.99,-415 179.99,-409 179.99,-403 179.99,-403 179.99,-391 179.99,-391 179.99,-385 185.99,-379 191.99,-379 191.99,-379 322.99,-379 322.99,-379 328.99,-379 334.99,-385 334.99,-391 334.99,-391 334.99,-403 334.99,-403 334.99,-409 328.99,-415 322.99,-415"/>
<text text-anchor="middle" x="257.49" y="-393.3" font-family="Helvetica" font-size="14.00">NormaliseByThickness</text>
</g>
<!-- SampleThickness&#45;&gt;NormaliseByThickness -->
<g id="edge16" class="edge">
<title>SampleThickness&#45;&gt;NormaliseByThickness</title>
<path fill="none" stroke="black" d="M370.67,-453.42C350.39,-443.49 323.84,-430.49 301.54,-419.57"/>
<polygon fill="black" stroke="black" points="302.8,-416.29 292.28,-415.04 299.72,-422.58 302.8,-416.29"/>
</g>
<!-- OutputWorkspace -->
<g id="node12" class="node">
<title>OutputWorkspace</title>
<polygon fill="grey" stroke="black" points="523.72,-36 310.19,-36 255.26,0 468.79,0 523.72,-36"/>
<text text-anchor="middle" x="389.49" y="-14.3" font-family="Times-Roman" font-size="14.00">OutputWorkspace</text>
</g>
<!-- LoadAndMerge&#45;&gt;NormaliseBy -->
<g id="edge2" class="edge">
<title>LoadAndMerge&#45;&gt;NormaliseBy</title>
<path fill="none" stroke="black" d="M350.49,-1049.81C350.49,-1041.79 350.49,-1032.05 350.49,-1023.07"/>
<polygon fill="black" stroke="black" points="353.99,-1023.03 350.49,-1013.03 346.99,-1023.03 353.99,-1023.03"/>
</g>
<!-- Divide&#45;&gt;Minus -->
<g id="edge4" class="edge">
<title>Divide&#45;&gt;Minus</title>
<path fill="none" stroke="black" d="M324.14,-903.99C309.56,-894.58 291.24,-882.76 275.47,-872.57"/>
<polygon fill="black" stroke="black" points="277.31,-869.6 267.01,-867.11 273.51,-875.48 277.31,-869.6"/>
</g>
<!-- Minus&#45;&gt;MoveInstrumentComponent -->
<g id="edge6" class="edge">
<title>Minus&#45;&gt;MoveInstrumentComponent</title>
<path fill="none" stroke="black" d="M240.49,-830.81C240.49,-822.79 240.49,-813.05 240.49,-804.07"/>
<polygon fill="black" stroke="black" points="243.99,-804.03 240.49,-794.03 236.99,-804.03 243.99,-804.03"/>
</g>
<!-- SolidAngle -->
<g id="node18" class="node">
<title>SolidAngle</title>
<path fill="lightskyblue" stroke="black" d="M268.99,-707C268.99,-707 211.99,-707 211.99,-707 205.99,-707 199.99,-701 199.99,-695 199.99,-695 199.99,-683 199.99,-683 199.99,-677 205.99,-671 211.99,-671 211.99,-671 268.99,-671 268.99,-671 274.99,-671 280.99,-677 280.99,-683 280.99,-683 280.99,-695 280.99,-695 280.99,-701 274.99,-707 268.99,-707"/>
<text text-anchor="middle" x="240.49" y="-685.3" font-family="Helvetica" font-size="14.00">SolidAngle</text>
</g>
<!-- MoveInstrumentComponent&#45;&gt;SolidAngle -->
<g id="edge8" class="edge">
<title>MoveInstrumentComponent&#45;&gt;SolidAngle</title>
<path fill="none" stroke="black" d="M240.49,-757.8C240.49,-746.16 240.49,-730.55 240.49,-717.24"/>
<polygon fill="black" stroke="black" points="243.99,-717.18 240.49,-707.18 236.99,-717.18 243.99,-717.18"/>
<text text-anchor="middle" x="259.49" y="-728.8" font-family="Helvetica" font-size="14.00">Divide</text>
</g>
<!-- ApplyTransmissionCorrection&#45;&gt;Minus2 -->
<g id="edge11" class="edge">
<title>ApplyTransmissionCorrection&#45;&gt;Minus2</title>
<path fill="none" stroke="black" d="M247.22,-597.81C247.56,-589.79 247.97,-580.05 248.35,-571.07"/>
<polygon fill="black" stroke="black" points="251.85,-571.17 248.77,-561.03 244.85,-570.87 251.85,-571.17"/>
</g>
<!-- SolidAngle&#45;&gt;ApplyTransmissionCorrection -->
<g id="edge9" class="edge">
<title>SolidAngle&#45;&gt;ApplyTransmissionCorrection</title>
<path fill="none" stroke="black" d="M241.94,-670.81C242.62,-662.79 243.45,-653.05 244.2,-644.07"/>
<polygon fill="black" stroke="black" points="247.7,-644.29 245.05,-634.03 240.72,-643.7 247.7,-644.29"/>
</g>
<!-- Minus2&#45;&gt;MaskDetectors -->
<g id="edge13" class="edge">
<title>Minus2&#45;&gt;MaskDetectors</title>
<path fill="none" stroke="black" d="M249.73,-524.81C249.85,-516.79 249.98,-507.05 250.11,-498.07"/>
<polygon fill="black" stroke="black" points="253.61,-498.08 250.25,-488.03 246.61,-497.98 253.61,-498.08"/>
</g>
<!-- MaskDetectors&#45;&gt;NormaliseByThickness -->
<g id="edge15" class="edge">
<title>MaskDetectors&#45;&gt;NormaliseByThickness</title>
<path fill="none" stroke="black" d="M252.19,-451.81C252.98,-443.79 253.94,-434.05 254.82,-425.07"/>
<polygon fill="black" stroke="black" points="258.31,-425.32 255.81,-415.03 251.35,-424.64 258.31,-425.32"/>
</g>
<!-- NormaliseByThickness&#45;&gt;AbsoluteScaleBy -->
<g id="edge17" class="edge">
<title>NormaliseByThickness&#45;&gt;AbsoluteScaleBy</title>
<path fill="none" stroke="black" d="M257.49,-378.81C257.49,-370.79 257.49,-361.05 257.49,-352.07"/>
<polygon fill="black" stroke="black" points="260.99,-352.03 257.49,-342.03 253.99,-352.03 260.99,-352.03"/>
</g>
<!-- Divide2&#45;&gt;Divide3 -->
<g id="edge20" class="edge">
<title>Divide2&#45;&gt;Divide3</title>
<path fill="none" stroke="black" d="M178.58,-223.11C181.58,-221.71 184.6,-220.32 187.49,-219 216.35,-205.86 249.24,-191.44 273.75,-180.82"/>
<polygon fill="black" stroke="black" points="275.25,-183.98 283.04,-176.8 272.47,-177.56 275.25,-183.98"/>
</g>
<!-- ScaleByFluxFactor -->
<g id="node25" class="node">
<title>ScaleByFluxFactor</title>
<polygon fill="lightseagreen" stroke="black" points="454.49,-109 324.49,-109 324.49,-73 454.49,-73 454.49,-109"/>
<text text-anchor="middle" x="389.49" y="-87.3" font-family="Helvetica" font-size="14.00">ScaleByFluxFactor</text>
</g>
<!-- Divide3&#45;&gt;ScaleByFluxFactor -->
<g id="edge22" class="edge">
<title>Divide3&#45;&gt;ScaleByFluxFactor</title>
<path fill="none" stroke="black" d="M329.62,-145.81C339.61,-136.83 352,-125.69 362.91,-115.89"/>
<polygon fill="black" stroke="black" points="365.45,-118.32 370.54,-109.03 360.77,-113.11 365.45,-118.32"/>
</g>
<!-- Divide4&#45;&gt;ScaleByFluxFactor -->
<g id="edge25" class="edge">
<title>Divide4&#45;&gt;ScaleByFluxFactor</title>
<path fill="none" stroke="black" d="M460,-218.92C446.11,-193.91 420.12,-147.14 403.88,-117.89"/>
<polygon fill="black" stroke="black" points="406.89,-116.1 398.97,-109.06 400.77,-119.5 406.89,-116.1"/>
</g>
<!-- ScaleByFluxFactor&#45;&gt;OutputWorkspace -->
<g id="edge26" class="edge">
<title>ScaleByFluxFactor&#45;&gt;OutputWorkspace</title>
<path fill="none" stroke="black" d="M389.49,-72.81C389.49,-64.79 389.49,-55.05 389.49,-46.07"/>
<polygon fill="black" stroke="black" points="392.99,-46.03 389.49,-36.03 385.99,-46.03 392.99,-46.03"/>
</g>
</g>
</svg>
