<?xml version="1.0" encoding="UTF-8" standalone="no"?>
<!DOCTYPE svg PUBLIC "-//W3C//DTD SVG 1.1//EN"
 "http://www.w3.org/Graphics/SVG/1.1/DTD/svg11.dtd">
<!-- Generated by graphviz version 2.47.2 (20210527.1257)
 -->
<!-- Title: Container Pages: 1 -->
<svg width="691pt" height="569pt"
 viewBox="0.00 0.00 690.64 569.00" xmlns="http://www.w3.org/2000/svg" xmlns:xlink="http://www.w3.org/1999/xlink">
<g id="graph0" class="graph" transform="scale(1 1) rotate(0) translate(4 565)">
<title>Container</title>
<polygon fill="white" stroke="transparent" points="-4,4 -4,-565 686.64,-565 686.64,4 -4,4"/>
<!-- NormaliseBy -->
<g id="node1" class="node">
<title>NormaliseBy</title>
<polygon fill="limegreen" stroke="black" points="86.4,-488 0.1,-470 86.4,-452 172.7,-470 86.4,-488"/>
<text text-anchor="middle" x="86.4" y="-466.3" font-family="Helvetica" font-size="14.00">NormaliseBy</text>
</g>
<!-- Divide -->
<g id="node9" class="node">
<title>Divide</title>
<path fill="lightskyblue" stroke="black" d="M113.4,-415C113.4,-415 83.4,-415 83.4,-415 77.4,-415 71.4,-409 71.4,-403 71.4,-403 71.4,-391 71.4,-391 71.4,-385 77.4,-379 83.4,-379 83.4,-379 113.4,-379 113.4,-379 119.4,-379 125.4,-385 125.4,-391 125.4,-391 125.4,-403 125.4,-403 125.4,-409 119.4,-415 113.4,-415"/>
<text text-anchor="middle" x="98.4" y="-393.3" font-family="Helvetica" font-size="14.00">Divide</text>
</g>
<!-- NormaliseBy&#45;&gt;Divide -->
<g id="edge3" class="edge">
<title>NormaliseBy&#45;&gt;Divide</title>
<path fill="none" stroke="black" d="M89.18,-452.53C90.55,-444.44 92.24,-434.47 93.79,-425.27"/>
<polygon fill="black" stroke="black" points="97.25,-425.81 95.47,-415.37 90.35,-424.65 97.25,-425.81"/>
</g>
<!-- Runs -->
<g id="node2" class="node">
<title>Runs</title>
<ellipse fill="khaki" stroke="black" cx="245.4" cy="-543" rx="31.4" ry="18"/>
<text text-anchor="middle" x="245.4" y="-539.3" font-family="Helvetica" font-size="14.00">Runs</text>
</g>
<!-- LoadAndMerge -->
<g id="node8" class="node">
<title>LoadAndMerge</title>
<path fill="lightskyblue" stroke="black" d="M288.4,-488C288.4,-488 202.4,-488 202.4,-488 196.4,-488 190.4,-482 190.4,-476 190.4,-476 190.4,-464 190.4,-464 190.4,-458 196.4,-452 202.4,-452 202.4,-452 288.4,-452 288.4,-452 294.4,-452 300.4,-458 300.4,-464 300.4,-464 300.4,-476 300.4,-476 300.4,-482 294.4,-488 288.4,-488"/>
<text text-anchor="middle" x="245.4" y="-466.3" font-family="Helvetica" font-size="14.00">LoadAndMerge</text>
</g>
<!-- Runs&#45;&gt;LoadAndMerge -->
<g id="edge1" class="edge">
<title>Runs&#45;&gt;LoadAndMerge</title>
<path fill="none" stroke="black" d="M245.4,-524.81C245.4,-516.79 245.4,-507.05 245.4,-498.07"/>
<polygon fill="black" stroke="black" points="248.9,-498.03 245.4,-488.03 241.9,-498.03 248.9,-498.03"/>
</g>
<!-- BeamCenter -->
<g id="node3" class="node">
<title>BeamCenter</title>
<ellipse fill="khaki" stroke="black" cx="445.4" cy="-324" rx="60.39" ry="18"/>
<text text-anchor="middle" x="445.4" y="-320.3" font-family="Helvetica" font-size="14.00">BeamCenter</text>
</g>
<!-- MoveInstrumentComponent -->
<g id="node11" class="node">
<title>MoveInstrumentComponent</title>
<path fill="lightskyblue" stroke="black" d="M437.9,-269C437.9,-269 276.9,-269 276.9,-269 270.9,-269 264.9,-263 264.9,-257 264.9,-257 264.9,-245 264.9,-245 264.9,-239 270.9,-233 276.9,-233 276.9,-233 437.9,-233 437.9,-233 443.9,-233 449.9,-239 449.9,-245 449.9,-245 449.9,-257 449.9,-257 449.9,-263 443.9,-269 437.9,-269"/>
<text text-anchor="middle" x="357.4" y="-247.3" font-family="Helvetica" font-size="14.00">MoveInstrumentComponent</text>
</g>
<!-- BeamCenter&#45;&gt;MoveInstrumentComponent -->
<g id="edge8" class="edge">
<title>BeamCenter&#45;&gt;MoveInstrumentComponent</title>
<path fill="none" stroke="black" d="M425.43,-306.89C413.95,-297.63 399.32,-285.82 386.57,-275.54"/>
<polygon fill="black" stroke="black" points="388.5,-272.59 378.52,-269.04 384.1,-278.04 388.5,-272.59"/>
</g>
<!-- TransmissionWorkspace -->
<g id="node4" class="node">
<title>TransmissionWorkspace</title>
<ellipse fill="khaki" stroke="black" cx="575.4" cy="-251" rx="107.48" ry="18"/>
<text text-anchor="middle" x="575.4" y="-247.3" font-family="Helvetica" font-size="14.00">TransmissionWorkspace</text>
</g>
<!-- ApplyTransmissionCorrection -->
<g id="node12" class="node">
<title>ApplyTransmissionCorrection</title>
<path fill="lightskyblue" stroke="black" d="M551.4,-196C551.4,-196 381.4,-196 381.4,-196 375.4,-196 369.4,-190 369.4,-184 369.4,-184 369.4,-172 369.4,-172 369.4,-166 375.4,-160 381.4,-160 381.4,-160 551.4,-160 551.4,-160 557.4,-160 563.4,-166 563.4,-172 563.4,-172 563.4,-184 563.4,-184 563.4,-190 557.4,-196 551.4,-196"/>
<text text-anchor="middle" x="466.4" y="-174.3" font-family="Helvetica" font-size="14.00">ApplyTransmissionCorrection</text>
</g>
<!-- TransmissionWorkspace&#45;&gt;ApplyTransmissionCorrection -->
<g id="edge10" class="edge">
<title>TransmissionWorkspace&#45;&gt;ApplyTransmissionCorrection</title>
<path fill="none" stroke="black" d="M549.85,-233.35C535.3,-223.88 516.87,-211.88 501.04,-201.56"/>
<polygon fill="black" stroke="black" points="502.84,-198.56 492.55,-196.04 499.02,-204.43 502.84,-198.56"/>
</g>
<!-- DarkCurrentWorkspace -->
<g id="node5" class="node">
<title>DarkCurrentWorkspace</title>
<ellipse fill="khaki" stroke="black" cx="246.4" cy="-397" rx="102.88" ry="18"/>
<text text-anchor="middle" x="246.4" y="-393.3" font-family="Helvetica" font-size="14.00">DarkCurrentWorkspace</text>
</g>
<!-- Minus -->
<g id="node10" class="node">
<title>Minus</title>
<path fill="lightskyblue" stroke="black" d="M261.4,-342C261.4,-342 231.4,-342 231.4,-342 225.4,-342 219.4,-336 219.4,-330 219.4,-330 219.4,-318 219.4,-318 219.4,-312 225.4,-306 231.4,-306 231.4,-306 261.4,-306 261.4,-306 267.4,-306 273.4,-312 273.4,-318 273.4,-318 273.4,-330 273.4,-330 273.4,-336 267.4,-342 261.4,-342"/>
<text text-anchor="middle" x="246.4" y="-320.3" font-family="Helvetica" font-size="14.00">Minus</text>
</g>
<!-- DarkCurrentWorkspace&#45;&gt;Minus -->
<g id="edge5" class="edge">
<title>DarkCurrentWorkspace&#45;&gt;Minus</title>
<path fill="none" stroke="black" d="M246.4,-378.81C246.4,-370.79 246.4,-361.05 246.4,-352.07"/>
<polygon fill="black" stroke="black" points="249.9,-352.03 246.4,-342.03 242.9,-352.03 249.9,-352.03"/>
</g>
<!-- EmptyBeamWorkspace -->
<g id="node6" class="node">
<title>EmptyBeamWorkspace</title>
<ellipse fill="khaki" stroke="black" cx="470.4" cy="-397" rx="103.18" ry="18"/>
<text text-anchor="middle" x="470.4" y="-393.3" font-family="Helvetica" font-size="14.00">EmptyBeamWorkspace</text>
</g>
<!-- EmptyBeamWorkspace&#45;&gt;BeamCenter -->
<g id="edge7" class="edge">
<title>EmptyBeamWorkspace&#45;&gt;BeamCenter</title>
<path fill="none" stroke="black" d="M464.35,-378.81C461.46,-370.62 457.94,-360.62 454.73,-351.48"/>
<polygon fill="black" stroke="black" points="458.02,-350.3 451.4,-342.03 451.42,-352.62 458.02,-350.3"/>
</g>
<!-- OutputWorkspace -->
<g id="node7" class="node">
<title>OutputWorkspace</title>
<polygon fill="grey" stroke="black" points="600.63,-36 387.1,-36 332.17,0 545.7,0 600.63,-36"/>
<text text-anchor="middle" x="466.4" y="-14.3" font-family="Times-Roman" font-size="14.00">OutputWorkspace</text>
</g>
<!-- LoadAndMerge&#45;&gt;Divide -->
<g id="edge2" class="edge">
<title>LoadAndMerge&#45;&gt;Divide</title>
<path fill="none" stroke="black" d="M210.19,-451.99C187.35,-440.96 157.66,-426.62 134.62,-415.49"/>
<polygon fill="black" stroke="black" points="136.03,-412.29 125.51,-411.09 132.99,-418.59 136.03,-412.29"/>
</g>
<!-- Divide&#45;&gt;Minus -->
<g id="edge4" class="edge">
<title>Divide&#45;&gt;Minus</title>
<path fill="none" stroke="black" d="M125.55,-382.98C149.26,-371.6 183.86,-355 209.98,-342.47"/>
<polygon fill="black" stroke="black" points="211.67,-345.54 219.18,-338.06 208.65,-339.23 211.67,-345.54"/>
</g>
<!-- Minus&#45;&gt;MoveInstrumentComponent -->
<g id="edge6" class="edge">
<title>Minus&#45;&gt;MoveInstrumentComponent</title>
<path fill="none" stroke="black" d="M272.99,-305.99C287.71,-296.58 306.19,-284.76 322.11,-274.57"/>
<polygon fill="black" stroke="black" points="324.11,-277.45 330.65,-269.11 320.34,-271.55 324.11,-277.45"/>
</g>
<!-- MoveInstrumentComponent&#45;&gt;ApplyTransmissionCorrection -->
<g id="edge9" class="edge">
<title>MoveInstrumentComponent&#45;&gt;ApplyTransmissionCorrection</title>
<path fill="none" stroke="black" d="M383.51,-232.99C397.96,-223.58 416.11,-211.76 431.74,-201.57"/>
<polygon fill="black" stroke="black" points="433.66,-204.5 440.13,-196.11 429.84,-198.64 433.66,-204.5"/>
</g>
<!-- Divide2 -->
<g id="node13" class="node">
<title>Divide2</title>
<path fill="lightskyblue" stroke="black" d="M481.4,-109C481.4,-109 451.4,-109 451.4,-109 445.4,-109 439.4,-103 439.4,-97 439.4,-97 439.4,-85 439.4,-85 439.4,-79 445.4,-73 451.4,-73 451.4,-73 481.4,-73 481.4,-73 487.4,-73 493.4,-79 493.4,-85 493.4,-85 493.4,-97 493.4,-97 493.4,-103 487.4,-109 481.4,-109"/>
<text text-anchor="middle" x="466.4" y="-87.3" font-family="Helvetica" font-size="14.00">Divide</text>
</g>
<!-- ApplyTransmissionCorrection&#45;&gt;Divide2 -->
<g id="edge11" class="edge">
<title>ApplyTransmissionCorrection&#45;&gt;Divide2</title>
<path fill="none" stroke="black" d="M466.4,-159.8C466.4,-148.16 466.4,-132.55 466.4,-119.24"/>
<polygon fill="black" stroke="black" points="469.9,-119.18 466.4,-109.18 462.9,-119.18 469.9,-119.18"/>
<text text-anchor="middle" x="498.9" y="-130.8" font-family="Helvetica" font-size="14.00">SolidAngle</text>
</g>
<!-- Divide2&#45;&gt;OutputWorkspace -->
<g id="edge12" class="edge">
<title>Divide2&#45;&gt;OutputWorkspace</title>
<path fill="none" stroke="black" d="M466.4,-72.81C466.4,-64.79 466.4,-55.05 466.4,-46.07"/>
<polygon fill="black" stroke="black" points="469.9,-46.03 466.4,-36.03 462.9,-46.03 469.9,-46.03"/>
</g>
</g>
</svg>
