<?xml version="1.0" encoding="UTF-8" standalone="no"?>
<!DOCTYPE svg PUBLIC "-//W3C//DTD SVG 1.1//EN"
 "http://www.w3.org/Graphics/SVG/1.1/DTD/svg11.dtd">
<!-- Generated by graphviz version 7.0.5 (20221231.0122)
 -->
<!-- Title: Beam Pages: 1 -->
<svg width="497pt" height="692pt"
 viewBox="0.00 0.00 497.31 692.00" xmlns="http://www.w3.org/2000/svg" xmlns:xlink="http://www.w3.org/1999/xlink">
<g id="graph0" class="graph" transform="scale(1 1) rotate(0) translate(4 688)">
<title>Beam</title>
<polygon fill="white" stroke="none" points="-4,4 -4,-688 493.31,-688 493.31,4 -4,4"/>
<!-- NormaliseBy -->
<g id="node1" class="node">
<title>NormaliseBy</title>
<polygon fill="limegreen" stroke="black" points="95.59,-612 -0.09,-594 95.59,-576 191.28,-594 95.59,-612"/>
<text text-anchor="middle" x="95.59" y="-590.3" font-family="Helvetica,sans-Serif" font-size="14.00">NormaliseBy</text>
</g>
<!-- Divide -->
<g id="node9" class="node">
<title>Divide</title>
<path fill="lightskyblue" stroke="black" d="M200.59,-540C200.59,-540 164.59,-540 164.59,-540 158.59,-540 152.59,-534 152.59,-528 152.59,-528 152.59,-516 152.59,-516 152.59,-510 158.59,-504 164.59,-504 164.59,-504 200.59,-504 200.59,-504 206.59,-504 212.59,-510 212.59,-516 212.59,-516 212.59,-528 212.59,-528 212.59,-534 206.59,-540 200.59,-540"/>
<text text-anchor="middle" x="182.59" y="-518.3" font-family="Helvetica,sans-Serif" font-size="14.00">Divide</text>
</g>
<!-- NormaliseBy&#45;&gt;Divide -->
<g id="edge3" class="edge">
<title>NormaliseBy&#45;&gt;Divide</title>
<path fill="none" stroke="black" d="M113.2,-578.83C124.41,-569.81 139.24,-557.88 152.31,-547.37"/>
<polygon fill="black" stroke="black" points="154.23,-550.31 159.83,-541.32 149.84,-544.86 154.23,-550.31"/>
</g>
<!-- Runs -->
<g id="node2" class="node">
<title>Runs</title>
<ellipse fill="khaki" stroke="black" cx="269.59" cy="-666" rx="33.29" ry="18"/>
<text text-anchor="middle" x="269.59" y="-662.3" font-family="Helvetica,sans-Serif" font-size="14.00">Runs</text>
</g>
<!-- LoadAndMerge -->
<g id="node8" class="node">
<title>LoadAndMerge</title>
<path fill="lightskyblue" stroke="black" d="M318.09,-612C318.09,-612 221.09,-612 221.09,-612 215.09,-612 209.09,-606 209.09,-600 209.09,-600 209.09,-588 209.09,-588 209.09,-582 215.09,-576 221.09,-576 221.09,-576 318.09,-576 318.09,-576 324.09,-576 330.09,-582 330.09,-588 330.09,-588 330.09,-600 330.09,-600 330.09,-606 324.09,-612 318.09,-612"/>
<text text-anchor="middle" x="269.59" y="-590.3" font-family="Helvetica,sans-Serif" font-size="14.00">LoadAndMerge</text>
</g>
<!-- Runs&#45;&gt;LoadAndMerge -->
<g id="edge1" class="edge">
<title>Runs&#45;&gt;LoadAndMerge</title>
<path fill="none" stroke="black" d="M269.59,-647.7C269.59,-640.41 269.59,-631.73 269.59,-623.54"/>
<polygon fill="black" stroke="black" points="273.09,-623.62 269.59,-613.62 266.09,-623.62 273.09,-623.62"/>
</g>
<!-- BeamRadius -->
<g id="node3" class="node">
<title>BeamRadius</title>
<ellipse fill="khaki" stroke="black" cx="379.59" cy="-450" rx="67.69" ry="18"/>
<text text-anchor="middle" x="379.59" y="-446.3" font-family="Helvetica,sans-Serif" font-size="14.00">BeamRadius</text>
</g>
<!-- FindCenterOfMassPosition -->
<g id="node11" class="node">
<title>FindCenterOfMassPosition</title>
<path fill="lightskyblue" stroke="black" d="M408.59,-396C408.59,-396 234.59,-396 234.59,-396 228.59,-396 222.59,-390 222.59,-384 222.59,-384 222.59,-372 222.59,-372 222.59,-366 228.59,-360 234.59,-360 234.59,-360 408.59,-360 408.59,-360 414.59,-360 420.59,-366 420.59,-372 420.59,-372 420.59,-384 420.59,-384 420.59,-390 414.59,-396 408.59,-396"/>
<text text-anchor="middle" x="321.59" y="-374.3" font-family="Helvetica,sans-Serif" font-size="14.00">FindCenterOfMassPosition</text>
</g>
<!-- BeamRadius&#45;&gt;FindCenterOfMassPosition -->
<g id="edge7" class="edge">
<title>BeamRadius&#45;&gt;FindCenterOfMassPosition</title>
<path fill="none" stroke="black" d="M365.55,-432.05C358.81,-423.92 350.59,-414 343.09,-404.94"/>
<polygon fill="black" stroke="black" points="345.95,-402.91 336.87,-397.44 340.56,-407.37 345.95,-402.91"/>
</g>
<!-- BeamCenter -->
<g id="node4" class="node">
<title>BeamCenter</title>
<ellipse fill="khaki" stroke="black" cx="321.59" cy="-306" rx="66.89" ry="18"/>
<text text-anchor="middle" x="321.59" y="-302.3" font-family="Helvetica,sans-Serif" font-size="14.00">BeamCenter</text>
</g>
<!-- MoveInstrumentComponent -->
<g id="node12" class="node">
<title>MoveInstrumentComponent</title>
<path fill="lightskyblue" stroke="black" d="M415.09,-252C415.09,-252 228.09,-252 228.09,-252 222.09,-252 216.09,-246 216.09,-240 216.09,-240 216.09,-228 216.09,-228 216.09,-222 222.09,-216 228.09,-216 228.09,-216 415.09,-216 415.09,-216 421.09,-216 427.09,-222 427.09,-228 427.09,-228 427.09,-240 427.09,-240 427.09,-246 421.09,-252 415.09,-252"/>
<text text-anchor="middle" x="321.59" y="-230.3" font-family="Helvetica,sans-Serif" font-size="14.00">MoveInstrumentComponent</text>
</g>
<!-- BeamCenter&#45;&gt;MoveInstrumentComponent -->
<g id="edge9" class="edge">
<title>BeamCenter&#45;&gt;MoveInstrumentComponent</title>
<path fill="none" stroke="black" d="M321.59,-287.7C321.59,-280.41 321.59,-271.73 321.59,-263.54"/>
<polygon fill="black" stroke="black" points="325.09,-263.62 321.59,-253.62 318.09,-263.62 325.09,-263.62"/>
</g>
<!-- DarkCurrentWorkspace -->
<g id="node5" class="node">
<title>DarkCurrentWorkspace</title>
<ellipse fill="khaki" stroke="black" cx="346.59" cy="-522" rx="116.18" ry="18"/>
<text text-anchor="middle" x="346.59" y="-518.3" font-family="Helvetica,sans-Serif" font-size="14.00">DarkCurrentWorkspace</text>
</g>
<!-- Minus -->
<g id="node10" class="node">
<title>Minus</title>
<path fill="lightskyblue" stroke="black" d="M281.59,-468C281.59,-468 247.59,-468 247.59,-468 241.59,-468 235.59,-462 235.59,-456 235.59,-456 235.59,-444 235.59,-444 235.59,-438 241.59,-432 247.59,-432 247.59,-432 281.59,-432 281.59,-432 287.59,-432 293.59,-438 293.59,-444 293.59,-444 293.59,-456 293.59,-456 293.59,-462 287.59,-468 281.59,-468"/>
<text text-anchor="middle" x="264.59" y="-446.3" font-family="Helvetica,sans-Serif" font-size="14.00">Minus</text>
</g>
<!-- DarkCurrentWorkspace&#45;&gt;Minus -->
<g id="edge5" class="edge">
<title>DarkCurrentWorkspace&#45;&gt;Minus</title>
<path fill="none" stroke="black" d="M326.74,-504.05C316.72,-495.5 304.37,-484.96 293.33,-475.54"/>
<polygon fill="black" stroke="black" points="295.86,-473.09 285.98,-469.26 291.31,-478.41 295.86,-473.09"/>
</g>
<!-- OutputWorkspace -->
<g id="node6" class="node">
<title>OutputWorkspace</title>
<polygon fill="grey" stroke="black" points="459.94,-180 239.86,-180 183.24,-144 403.33,-144 459.94,-180"/>
<text text-anchor="middle" x="321.59" y="-158.3" font-family="Times,serif" font-size="14.00">OutputWorkspace</text>
</g>
<!-- CalculateFlux -->
<g id="node13" class="node">
<title>CalculateFlux</title>
<path fill="lightskyblue" stroke="black" d="M364.59,-108C364.59,-108 278.59,-108 278.59,-108 272.59,-108 266.59,-102 266.59,-96 266.59,-96 266.59,-84 266.59,-84 266.59,-78 272.59,-72 278.59,-72 278.59,-72 364.59,-72 364.59,-72 370.59,-72 376.59,-78 376.59,-84 376.59,-84 376.59,-96 376.59,-96 376.59,-102 370.59,-108 364.59,-108"/>
<text text-anchor="middle" x="321.59" y="-86.3" font-family="Helvetica,sans-Serif" font-size="14.00">CalculateFlux</text>
</g>
<!-- OutputWorkspace&#45;&gt;CalculateFlux -->
<g id="edge11" class="edge">
<title>OutputWorkspace&#45;&gt;CalculateFlux</title>
<path fill="none" stroke="black" d="M321.59,-143.7C321.59,-136.41 321.59,-127.73 321.59,-119.54"/>
<polygon fill="black" stroke="black" points="325.09,-119.62 321.59,-109.62 318.09,-119.62 325.09,-119.62"/>
</g>
<!-- OutputFluxWorkspace -->
<g id="node7" class="node">
<title>OutputFluxWorkspace</title>
<polygon fill="grey" stroke="black" points="489.53,-36 222.38,-36 153.66,0 420.8,0 489.53,-36"/>
<text text-anchor="middle" x="321.59" y="-14.3" font-family="Times,serif" font-size="14.00">OutputFluxWorkspace</text>
</g>
<!-- LoadAndMerge&#45;&gt;Divide -->
<g id="edge2" class="edge">
<title>LoadAndMerge&#45;&gt;Divide</title>
<path fill="none" stroke="black" d="M248.09,-575.7C237.53,-567.2 224.62,-556.81 213.06,-547.51"/>
<polygon fill="black" stroke="black" points="215.32,-544.84 205.33,-541.3 210.93,-550.29 215.32,-544.84"/>
</g>
<!-- Divide&#45;&gt;Minus -->
<g id="edge4" class="edge">
<title>Divide&#45;&gt;Minus</title>
<path fill="none" stroke="black" d="M202.86,-503.7C212.72,-495.28 224.74,-485.02 235.55,-475.79"/>
<polygon fill="black" stroke="black" points="237.79,-478.48 243.12,-469.33 233.24,-473.16 237.79,-478.48"/>
</g>
<!-- Minus&#45;&gt;FindCenterOfMassPosition -->
<g id="edge6" class="edge">
<title>Minus&#45;&gt;FindCenterOfMassPosition</title>
<path fill="none" stroke="black" d="M278.68,-431.7C285.24,-423.64 293.18,-413.89 300.44,-404.98"/>
<polygon fill="black" stroke="black" points="303.11,-407.24 306.71,-397.28 297.68,-402.82 303.11,-407.24"/>
</g>
<!-- FindCenterOfMassPosition&#45;&gt;BeamCenter -->
<g id="edge8" class="edge">
<title>FindCenterOfMassPosition&#45;&gt;BeamCenter</title>
<path fill="none" stroke="black" d="M321.59,-359.7C321.59,-352.41 321.59,-343.73 321.59,-335.54"/>
<polygon fill="black" stroke="black" points="325.09,-335.62 321.59,-325.62 318.09,-335.62 325.09,-335.62"/>
</g>
<!-- MoveInstrumentComponent&#45;&gt;OutputWorkspace -->
<g id="edge10" class="edge">
<title>MoveInstrumentComponent&#45;&gt;OutputWorkspace</title>
<path fill="none" stroke="black" d="M321.59,-215.7C321.59,-208.41 321.59,-199.73 321.59,-191.54"/>
<polygon fill="black" stroke="black" points="325.09,-191.62 321.59,-181.62 318.09,-191.62 325.09,-191.62"/>
</g>
<!-- CalculateFlux&#45;&gt;OutputFluxWorkspace -->
<g id="edge12" class="edge">
<title>CalculateFlux&#45;&gt;OutputFluxWorkspace</title>
<path fill="none" stroke="black" d="M321.59,-71.7C321.59,-64.41 321.59,-55.73 321.59,-47.54"/>
<polygon fill="black" stroke="black" points="325.09,-47.62 321.59,-37.62 318.09,-47.62 325.09,-47.62"/>
</g>
</g>
</svg>
