<?xml version="1.0" encoding="UTF-8" standalone="no"?>
<!DOCTYPE svg PUBLIC "-//W3C//DTD SVG 1.1//EN"
 "http://www.w3.org/Graphics/SVG/1.1/DTD/svg11.dtd">
<!-- Generated by graphviz version 7.0.5 (20221231.0122)
 -->
<!-- Title: Sample Pages: 1 -->
<svg width="690pt" height="1167pt"
 viewBox="0.00 0.00 690.48 1167.00" xmlns="http://www.w3.org/2000/svg" xmlns:xlink="http://www.w3.org/1999/xlink">
<g id="graph0" class="graph" transform="scale(1 1) rotate(0) translate(4 1163)">
<title>Sample</title>
<polygon fill="white" stroke="none" points="-4,4 -4,-1163 686.48,-1163 686.48,4 -4,4"/>
<!-- NormaliseBy -->
<g id="node1" class="node">
<title>NormaliseBy</title>
<polygon fill="limegreen" stroke="black" points="392.49,-1013 296.81,-995 392.49,-977 488.17,-995 392.49,-1013"/>
<text text-anchor="middle" x="392.49" y="-991.3" font-family="Helvetica,sans-Serif" font-size="14.00">NormaliseBy</text>
</g>
<!-- Divide -->
<g id="node14" class="node">
<title>Divide</title>
<path fill="lightskyblue" stroke="black" d="M410.49,-940C410.49,-940 374.49,-940 374.49,-940 368.49,-940 362.49,-934 362.49,-928 362.49,-928 362.49,-916 362.49,-916 362.49,-910 368.49,-904 374.49,-904 374.49,-904 410.49,-904 410.49,-904 416.49,-904 422.49,-910 422.49,-916 422.49,-916 422.49,-928 422.49,-928 422.49,-934 416.49,-940 410.49,-940"/>
<text text-anchor="middle" x="392.49" y="-918.3" font-family="Helvetica,sans-Serif" font-size="14.00">Divide</text>
</g>
<!-- NormaliseBy&#45;&gt;Divide -->
<g id="edge3" class="edge">
<title>NormaliseBy&#45;&gt;Divide</title>
<path fill="none" stroke="black" d="M392.49,-976.81C392.49,-969.23 392.49,-960.1 392.49,-951.54"/>
<polygon fill="black" stroke="black" points="395.99,-951.54 392.49,-941.54 388.99,-951.54 395.99,-951.54"/>
</g>
<!-- AbsoluteScaleBy -->
<g id="node2" class="node">
<title>AbsoluteScaleBy</title>
<polygon fill="limegreen" stroke="black" points="283.49,-342 162.33,-324 283.49,-306 404.65,-324 283.49,-342"/>
<text text-anchor="middle" x="283.49" y="-320.3" font-family="Helvetica,sans-Serif" font-size="14.00">AbsoluteScaleBy</text>
</g>
<!-- Divide2 -->
<g id="node22" class="node">
<title>Divide2</title>
<path fill="lightskyblue" stroke="black" d="M182.49,-255C182.49,-255 146.49,-255 146.49,-255 140.49,-255 134.49,-249 134.49,-243 134.49,-243 134.49,-231 134.49,-231 134.49,-225 140.49,-219 146.49,-219 146.49,-219 182.49,-219 182.49,-219 188.49,-219 194.49,-225 194.49,-231 194.49,-231 194.49,-243 194.49,-243 194.49,-249 188.49,-255 182.49,-255"/>
<text text-anchor="middle" x="164.49" y="-233.3" font-family="Helvetica,sans-Serif" font-size="14.00">Divide</text>
</g>
<!-- AbsoluteScaleBy&#45;&gt;Divide2 -->
<g id="edge18" class="edge">
<title>AbsoluteScaleBy&#45;&gt;Divide2</title>
<path fill="none" stroke="black" d="M263.3,-308.58C245.48,-295.85 219.13,-277.03 198.12,-262.02"/>
<polygon fill="black" stroke="black" points="200.3,-259.28 190.13,-256.31 196.23,-264.97 200.3,-259.28"/>
<text text-anchor="middle" x="267.49" y="-276.8" font-family="Helvetica,sans-Serif" font-size="14.00">Beam Flux</text>
</g>
<!-- Divide4 -->
<g id="node24" class="node">
<title>Divide4</title>
<path fill="lightskyblue" stroke="black" d="M540.49,-255C540.49,-255 504.49,-255 504.49,-255 498.49,-255 492.49,-249 492.49,-243 492.49,-243 492.49,-231 492.49,-231 492.49,-225 498.49,-219 504.49,-219 504.49,-219 540.49,-219 540.49,-219 546.49,-219 552.49,-225 552.49,-231 552.49,-231 552.49,-243 552.49,-243 552.49,-249 546.49,-255 540.49,-255"/>
<text text-anchor="middle" x="522.49" y="-233.3" font-family="Helvetica,sans-Serif" font-size="14.00">Divide</text>
</g>
<!-- AbsoluteScaleBy&#45;&gt;Divide4 -->
<g id="edge23" class="edge">
<title>AbsoluteScaleBy&#45;&gt;Divide4</title>
<path fill="none" stroke="black" d="M313.11,-310.04C338.59,-299.2 376.51,-283.83 410.49,-273 439.34,-263.81 449.86,-265.29 481.49,-255.34"/>
<polygon fill="black" stroke="black" points="482.19,-258.8 490.59,-252.34 480,-252.15 482.19,-258.8"/>
<text text-anchor="middle" x="470.99" y="-276.8" font-family="Helvetica,sans-Serif" font-size="14.00">Standard Sample</text>
</g>
<!-- Run -->
<g id="node3" class="node">
<title>Run</title>
<ellipse fill="khaki" stroke="black" cx="392.49" cy="-1141" rx="28.7" ry="18"/>
<text text-anchor="middle" x="392.49" y="-1137.3" font-family="Helvetica,sans-Serif" font-size="14.00">Run</text>
</g>
<!-- LoadAndMerge -->
<g id="node13" class="node">
<title>LoadAndMerge</title>
<path fill="lightskyblue" stroke="black" d="M440.99,-1086C440.99,-1086 343.99,-1086 343.99,-1086 337.99,-1086 331.99,-1080 331.99,-1074 331.99,-1074 331.99,-1062 331.99,-1062 331.99,-1056 337.99,-1050 343.99,-1050 343.99,-1050 440.99,-1050 440.99,-1050 446.99,-1050 452.99,-1056 452.99,-1062 452.99,-1062 452.99,-1074 452.99,-1074 452.99,-1080 446.99,-1086 440.99,-1086"/>
<text text-anchor="middle" x="392.49" y="-1064.3" font-family="Helvetica,sans-Serif" font-size="14.00">LoadAndMerge</text>
</g>
<!-- Run&#45;&gt;LoadAndMerge -->
<g id="edge1" class="edge">
<title>Run&#45;&gt;LoadAndMerge</title>
<path fill="none" stroke="black" d="M392.49,-1122.81C392.49,-1115.23 392.49,-1106.1 392.49,-1097.54"/>
<polygon fill="black" stroke="black" points="395.99,-1097.54 392.49,-1087.54 388.99,-1097.54 395.99,-1097.54"/>
</g>
<!-- BeamInputWorkspace -->
<g id="node4" class="node">
<title>BeamInputWorkspace</title>
<ellipse fill="khaki" stroke="black" cx="110.49" cy="-849" rx="110.48" ry="18"/>
<text text-anchor="middle" x="110.49" y="-845.3" font-family="Helvetica,sans-Serif" font-size="14.00">BeamInputWorkspace</text>
</g>
<!-- MoveInstrumentComponent -->
<g id="node16" class="node">
<title>MoveInstrumentComponent</title>
<path fill="lightskyblue" stroke="black" d="M361.99,-794C361.99,-794 174.99,-794 174.99,-794 168.99,-794 162.99,-788 162.99,-782 162.99,-782 162.99,-770 162.99,-770 162.99,-764 168.99,-758 174.99,-758 174.99,-758 361.99,-758 361.99,-758 367.99,-758 373.99,-764 373.99,-770 373.99,-770 373.99,-782 373.99,-782 373.99,-788 367.99,-794 361.99,-794"/>
<text text-anchor="middle" x="268.49" y="-772.3" font-family="Helvetica,sans-Serif" font-size="14.00">MoveInstrumentComponent</text>
</g>
<!-- BeamInputWorkspace&#45;&gt;MoveInstrumentComponent -->
<g id="edge7" class="edge">
<title>BeamInputWorkspace&#45;&gt;MoveInstrumentComponent</title>
<path fill="none" stroke="black" d="M146.74,-831.71C168.23,-822.05 195.76,-809.68 219.2,-799.15"/>
<polygon fill="black" stroke="black" points="220.58,-802.37 228.27,-795.07 217.71,-795.98 220.58,-802.37"/>
</g>
<!-- BeamInputWorkspace&#45;&gt;Divide2 -->
<g id="edge19" class="edge">
<title>BeamInputWorkspace&#45;&gt;Divide2</title>
<path fill="none" stroke="black" d="M119.84,-830.75C126.58,-816.7 134.49,-796.13 134.49,-777 134.49,-777 134.49,-777 134.49,-323 134.49,-302.85 142.08,-281.46 149.63,-265.18"/>
<polygon fill="black" stroke="black" points="152.56,-267.16 153.83,-256.64 146.28,-264.06 152.56,-267.16"/>
</g>
<!-- TransmissionInputWorkspace -->
<g id="node5" class="node">
<title>TransmissionInputWorkspace</title>
<ellipse fill="khaki" stroke="black" cx="474.49" cy="-689" rx="142.97" ry="18"/>
<text text-anchor="middle" x="474.49" y="-685.3" font-family="Helvetica,sans-Serif" font-size="14.00">TransmissionInputWorkspace</text>
</g>
<!-- ApplyTransmissionCorrection -->
<g id="node17" class="node">
<title>ApplyTransmissionCorrection</title>
<path fill="lightskyblue" stroke="black" d="M373.49,-634C373.49,-634 179.49,-634 179.49,-634 173.49,-634 167.49,-628 167.49,-622 167.49,-622 167.49,-610 167.49,-610 167.49,-604 173.49,-598 179.49,-598 179.49,-598 373.49,-598 373.49,-598 379.49,-598 385.49,-604 385.49,-610 385.49,-610 385.49,-622 385.49,-622 385.49,-628 379.49,-634 373.49,-634"/>
<text text-anchor="middle" x="276.49" y="-612.3" font-family="Helvetica,sans-Serif" font-size="14.00">ApplyTransmissionCorrection</text>
</g>
<!-- TransmissionInputWorkspace&#45;&gt;ApplyTransmissionCorrection -->
<g id="edge10" class="edge">
<title>TransmissionInputWorkspace&#45;&gt;ApplyTransmissionCorrection</title>
<path fill="none" stroke="black" d="M428.57,-671.53C400.99,-661.65 365.62,-648.96 335.93,-638.31"/>
<polygon fill="black" stroke="black" points="337.29,-635.09 326.7,-635 334.93,-641.67 337.29,-635.09"/>
</g>
<!-- AbsorberInputWorkspace -->
<g id="node6" class="node">
<title>AbsorberInputWorkspace</title>
<ellipse fill="khaki" stroke="black" cx="218.49" cy="-922" rx="126.18" ry="18"/>
<text text-anchor="middle" x="218.49" y="-918.3" font-family="Helvetica,sans-Serif" font-size="14.00">AbsorberInputWorkspace</text>
</g>
<!-- Minus -->
<g id="node15" class="node">
<title>Minus</title>
<path fill="lightskyblue" stroke="black" d="M285.49,-867C285.49,-867 251.49,-867 251.49,-867 245.49,-867 239.49,-861 239.49,-855 239.49,-855 239.49,-843 239.49,-843 239.49,-837 245.49,-831 251.49,-831 251.49,-831 285.49,-831 285.49,-831 291.49,-831 297.49,-837 297.49,-843 297.49,-843 297.49,-855 297.49,-855 297.49,-861 291.49,-867 285.49,-867"/>
<text text-anchor="middle" x="268.49" y="-845.3" font-family="Helvetica,sans-Serif" font-size="14.00">Minus</text>
</g>
<!-- AbsorberInputWorkspace&#45;&gt;Minus -->
<g id="edge5" class="edge">
<title>AbsorberInputWorkspace&#45;&gt;Minus</title>
<path fill="none" stroke="black" d="M230.59,-903.81C236.43,-895.53 243.55,-885.41 250.04,-876.19"/>
<polygon fill="black" stroke="black" points="252.73,-878.46 255.63,-868.27 247.01,-874.43 252.73,-878.46"/>
</g>
<!-- ContainerInputWorkspace -->
<g id="node7" class="node">
<title>ContainerInputWorkspace</title>
<ellipse fill="khaki" stroke="black" cx="531.49" cy="-616" rx="128.08" ry="18"/>
<text text-anchor="middle" x="531.49" y="-612.3" font-family="Helvetica,sans-Serif" font-size="14.00">ContainerInputWorkspace</text>
</g>
<!-- Minus2 -->
<g id="node19" class="node">
<title>Minus2</title>
<path fill="lightskyblue" stroke="black" d="M297.49,-561C297.49,-561 263.49,-561 263.49,-561 257.49,-561 251.49,-555 251.49,-549 251.49,-549 251.49,-537 251.49,-537 251.49,-531 257.49,-525 263.49,-525 263.49,-525 297.49,-525 297.49,-525 303.49,-525 309.49,-531 309.49,-537 309.49,-537 309.49,-549 309.49,-549 309.49,-555 303.49,-561 297.49,-561"/>
<text text-anchor="middle" x="280.49" y="-539.3" font-family="Helvetica,sans-Serif" font-size="14.00">Minus</text>
</g>
<!-- ContainerInputWorkspace&#45;&gt;Minus2 -->
<g id="edge12" class="edge">
<title>ContainerInputWorkspace&#45;&gt;Minus2</title>
<path fill="none" stroke="black" d="M462.01,-600.57C422.66,-591.67 372.48,-579.09 320.51,-561.42"/>
<polygon fill="black" stroke="black" points="321.77,-558.15 311.18,-558.18 319.48,-564.76 321.77,-558.15"/>
</g>
<!-- SensitivityInputWorkspace -->
<g id="node8" class="node">
<title>SensitivityInputWorkspace</title>
<ellipse fill="khaki" stroke="black" cx="343.49" cy="-237" rx="131.08" ry="18"/>
<text text-anchor="middle" x="343.49" y="-233.3" font-family="Helvetica,sans-Serif" font-size="14.00">SensitivityInputWorkspace</text>
</g>
<!-- Divide3 -->
<g id="node23" class="node">
<title>Divide3</title>
<path fill="lightskyblue" stroke="black" d="M361.49,-182C361.49,-182 325.49,-182 325.49,-182 319.49,-182 313.49,-176 313.49,-170 313.49,-170 313.49,-158 313.49,-158 313.49,-152 319.49,-146 325.49,-146 325.49,-146 361.49,-146 361.49,-146 367.49,-146 373.49,-152 373.49,-158 373.49,-158 373.49,-170 373.49,-170 373.49,-176 367.49,-182 361.49,-182"/>
<text text-anchor="middle" x="343.49" y="-160.3" font-family="Helvetica,sans-Serif" font-size="14.00">Divide</text>
</g>
<!-- SensitivityInputWorkspace&#45;&gt;Divide3 -->
<g id="edge21" class="edge">
<title>SensitivityInputWorkspace&#45;&gt;Divide3</title>
<path fill="none" stroke="black" d="M343.49,-218.81C343.49,-211.23 343.49,-202.1 343.49,-193.54"/>
<polygon fill="black" stroke="black" points="346.99,-193.54 343.49,-183.54 339.99,-193.54 346.99,-193.54"/>
</g>
<!-- ReferenceInputWorkspace -->
<g id="node9" class="node">
<title>ReferenceInputWorkspace</title>
<ellipse fill="khaki" stroke="black" cx="552.49" cy="-324" rx="129.98" ry="18"/>
<text text-anchor="middle" x="552.49" y="-320.3" font-family="Helvetica,sans-Serif" font-size="14.00">ReferenceInputWorkspace</text>
</g>
<!-- ReferenceInputWorkspace&#45;&gt;Divide4 -->
<g id="edge24" class="edge">
<title>ReferenceInputWorkspace&#45;&gt;Divide4</title>
<path fill="none" stroke="black" d="M546.42,-305.8C542.42,-294.47 537.09,-279.36 532.47,-266.29"/>
<polygon fill="black" stroke="black" points="535.79,-265.16 529.16,-256.89 529.19,-267.49 535.79,-265.16"/>
</g>
<!-- MaskedInputWorkspace -->
<g id="node10" class="node">
<title>MaskedInputWorkspace</title>
<ellipse fill="khaki" stroke="black" cx="445.49" cy="-543" rx="118.08" ry="18"/>
<text text-anchor="middle" x="445.49" y="-539.3" font-family="Helvetica,sans-Serif" font-size="14.00">MaskedInputWorkspace</text>
</g>
<!-- MaskDetectors -->
<g id="node20" class="node">
<title>MaskDetectors</title>
<path fill="lightskyblue" stroke="black" d="M329.99,-488C329.99,-488 234.99,-488 234.99,-488 228.99,-488 222.99,-482 222.99,-476 222.99,-476 222.99,-464 222.99,-464 222.99,-458 228.99,-452 234.99,-452 234.99,-452 329.99,-452 329.99,-452 335.99,-452 341.99,-458 341.99,-464 341.99,-464 341.99,-476 341.99,-476 341.99,-482 335.99,-488 329.99,-488"/>
<text text-anchor="middle" x="282.49" y="-466.3" font-family="Helvetica,sans-Serif" font-size="14.00">MaskDetectors</text>
</g>
<!-- MaskedInputWorkspace&#45;&gt;MaskDetectors -->
<g id="edge14" class="edge">
<title>MaskedInputWorkspace&#45;&gt;MaskDetectors</title>
<path fill="none" stroke="black" d="M407.69,-525.53C385.48,-515.86 357.14,-503.52 333.04,-493.02"/>
<polygon fill="black" stroke="black" points="334.6,-489.88 324.04,-489.1 331.81,-496.3 334.6,-489.88"/>
</g>
<!-- SampleThickness -->
<g id="node11" class="node">
<title>SampleThickness</title>
<ellipse fill="khaki" stroke="black" cx="449.49" cy="-470" rx="89.08" ry="18"/>
<text text-anchor="middle" x="449.49" y="-466.3" font-family="Helvetica,sans-Serif" font-size="14.00">SampleThickness</text>
</g>
<!-- NormaliseByThickness -->
<g id="node21" class="node">
<title>NormaliseByThickness</title>
<path fill="lightskyblue" stroke="black" d="M357.99,-415C357.99,-415 208.99,-415 208.99,-415 202.99,-415 196.99,-409 196.99,-403 196.99,-403 196.99,-391 196.99,-391 196.99,-385 202.99,-379 208.99,-379 208.99,-379 357.99,-379 357.99,-379 363.99,-379 369.99,-385 369.99,-391 369.99,-391 369.99,-403 369.99,-403 369.99,-409 363.99,-415 357.99,-415"/>
<text text-anchor="middle" x="283.49" y="-393.3" font-family="Helvetica,sans-Serif" font-size="14.00">NormaliseByThickness</text>
</g>
<!-- SampleThickness&#45;&gt;NormaliseByThickness -->
<g id="edge16" class="edge">
<title>SampleThickness&#45;&gt;NormaliseByThickness</title>
<path fill="none" stroke="black" d="M412.65,-453.24C389.75,-443.45 359.97,-430.71 334.79,-419.94"/>
<polygon fill="black" stroke="black" points="336.27,-416.77 325.7,-416.05 333.51,-423.2 336.27,-416.77"/>
</g>
<!-- OutputWorkspace -->
<g id="node12" class="node">
<title>OutputWorkspace</title>
<polygon fill="grey" stroke="black" points="570.84,-36 350.75,-36 294.14,0 514.23,0 570.84,-36"/>
<text text-anchor="middle" x="432.49" y="-14.3" font-family="Times,serif" font-size="14.00">OutputWorkspace</text>
</g>
<!-- LoadAndMerge&#45;&gt;NormaliseBy -->
<g id="edge2" class="edge">
<title>LoadAndMerge&#45;&gt;NormaliseBy</title>
<path fill="none" stroke="black" d="M392.49,-1049.81C392.49,-1042.23 392.49,-1033.1 392.49,-1024.54"/>
<polygon fill="black" stroke="black" points="395.99,-1024.54 392.49,-1014.54 388.99,-1024.54 395.99,-1024.54"/>
</g>
<!-- Divide&#45;&gt;Minus -->
<g id="edge4" class="edge">
<title>Divide&#45;&gt;Minus</title>
<path fill="none" stroke="black" d="M362.16,-903.63C345.73,-894.23 325.26,-882.51 307.65,-872.42"/>
<polygon fill="black" stroke="black" points="309.39,-869.38 298.97,-867.45 305.91,-875.46 309.39,-869.38"/>
</g>
<!-- Minus&#45;&gt;MoveInstrumentComponent -->
<g id="edge6" class="edge">
<title>Minus&#45;&gt;MoveInstrumentComponent</title>
<path fill="none" stroke="black" d="M268.49,-830.81C268.49,-823.23 268.49,-814.1 268.49,-805.54"/>
<polygon fill="black" stroke="black" points="271.99,-805.54 268.49,-795.54 264.99,-805.54 271.99,-805.54"/>
</g>
<!-- SolidAngle -->
<g id="node18" class="node">
<title>SolidAngle</title>
<path fill="lightskyblue" stroke="black" d="M301.49,-707C301.49,-707 235.49,-707 235.49,-707 229.49,-707 223.49,-701 223.49,-695 223.49,-695 223.49,-683 223.49,-683 223.49,-677 229.49,-671 235.49,-671 235.49,-671 301.49,-671 301.49,-671 307.49,-671 313.49,-677 313.49,-683 313.49,-683 313.49,-695 313.49,-695 313.49,-701 307.49,-707 301.49,-707"/>
<text text-anchor="middle" x="268.49" y="-685.3" font-family="Helvetica,sans-Serif" font-size="14.00">SolidAngle</text>
</g>
<!-- MoveInstrumentComponent&#45;&gt;SolidAngle -->
<g id="edge8" class="edge">
<title>MoveInstrumentComponent&#45;&gt;SolidAngle</title>
<path fill="none" stroke="black" d="M268.49,-757.8C268.49,-746.58 268.49,-731.67 268.49,-718.69"/>
<polygon fill="black" stroke="black" points="271.99,-718.98 268.49,-708.98 264.99,-718.98 271.99,-718.98"/>
<text text-anchor="middle" x="290.49" y="-728.8" font-family="Helvetica,sans-Serif" font-size="14.00">Divide</text>
</g>
<!-- ApplyTransmissionCorrection&#45;&gt;Minus2 -->
<g id="edge11" class="edge">
<title>ApplyTransmissionCorrection&#45;&gt;Minus2</title>
<path fill="none" stroke="black" d="M277.46,-597.81C277.89,-590.14 278.41,-580.89 278.9,-572.24"/>
<polygon fill="black" stroke="black" points="282.38,-572.72 279.45,-562.54 275.39,-572.33 282.38,-572.72"/>
</g>
<!-- SolidAngle&#45;&gt;ApplyTransmissionCorrection -->
<g id="edge9" class="edge">
<title>SolidAngle&#45;&gt;ApplyTransmissionCorrection</title>
<path fill="none" stroke="black" d="M270.43,-670.81C271.29,-663.14 272.33,-653.89 273.31,-645.24"/>
<polygon fill="black" stroke="black" points="276.76,-645.86 274.4,-635.53 269.8,-645.08 276.76,-645.86"/>
</g>
<!-- Minus2&#45;&gt;MaskDetectors -->
<g id="edge13" class="edge">
<title>Minus2&#45;&gt;MaskDetectors</title>
<path fill="none" stroke="black" d="M280.97,-524.81C281.19,-517.14 281.45,-507.89 281.69,-499.24"/>
<polygon fill="black" stroke="black" points="285.18,-499.64 281.97,-489.54 278.19,-499.44 285.18,-499.64"/>
</g>
<!-- MaskDetectors&#45;&gt;NormaliseByThickness -->
<g id="edge15" class="edge">
<title>MaskDetectors&#45;&gt;NormaliseByThickness</title>
<path fill="none" stroke="black" d="M282.73,-451.81C282.84,-444.23 282.97,-435.1 283.09,-426.54"/>
<polygon fill="black" stroke="black" points="286.59,-426.59 283.23,-416.54 279.59,-426.49 286.59,-426.59"/>
</g>
<!-- NormaliseByThickness&#45;&gt;AbsoluteScaleBy -->
<g id="edge17" class="edge">
<title>NormaliseByThickness&#45;&gt;AbsoluteScaleBy</title>
<path fill="none" stroke="black" d="M283.49,-378.81C283.49,-371.23 283.49,-362.1 283.49,-353.54"/>
<polygon fill="black" stroke="black" points="286.99,-353.54 283.49,-343.54 279.99,-353.54 286.99,-353.54"/>
</g>
<!-- Divide2&#45;&gt;Divide3 -->
<g id="edge20" class="edge">
<title>Divide2&#45;&gt;Divide3</title>
<path fill="none" stroke="black" d="M194.67,-222.69C197.64,-221.43 200.62,-220.18 203.49,-219 236.57,-205.42 274.43,-190.87 302.43,-180.31"/>
<polygon fill="black" stroke="black" points="303.48,-183.65 311.61,-176.85 301.02,-177.1 303.48,-183.65"/>
</g>
<!-- ScaleByFluxFactor -->
<g id="node25" class="node">
<title>ScaleByFluxFactor</title>
<polygon fill="lightseagreen" stroke="black" points="503.99,-109 360.99,-109 360.99,-73 503.99,-73 503.99,-109"/>
<text text-anchor="middle" x="432.49" y="-87.3" font-family="Helvetica,sans-Serif" font-size="14.00">ScaleByFluxFactor</text>
</g>
<!-- Divide3&#45;&gt;ScaleByFluxFactor -->
<g id="edge22" class="edge">
<title>Divide3&#45;&gt;ScaleByFluxFactor</title>
<path fill="none" stroke="black" d="M365.03,-145.81C376.1,-136.98 389.78,-126.07 401.92,-116.39"/>
<polygon fill="black" stroke="black" points="404.02,-119.19 409.65,-110.22 399.65,-113.72 404.02,-119.19"/>
</g>
<!-- Divide4&#45;&gt;ScaleByFluxFactor -->
<g id="edge25" class="edge">
<title>Divide4&#45;&gt;ScaleByFluxFactor</title>
<path fill="none" stroke="black" d="M511.63,-218.63C496.16,-193.87 467.62,-148.21 449.37,-119.01"/>
<polygon fill="black" stroke="black" points="452.46,-117.34 444.19,-110.71 446.52,-121.05 452.46,-117.34"/>
</g>
<!-- ScaleByFluxFactor&#45;&gt;OutputWorkspace -->
<g id="edge26" class="edge">
<title>ScaleByFluxFactor&#45;&gt;OutputWorkspace</title>
<path fill="none" stroke="black" d="M432.49,-72.81C432.49,-65.23 432.49,-56.1 432.49,-47.54"/>
<polygon fill="black" stroke="black" points="435.99,-47.54 432.49,-37.54 428.99,-47.54 435.99,-47.54"/>
</g>
</g>
</svg>
