<?xml version="1.0" encoding="UTF-8" standalone="no"?>
<!DOCTYPE svg PUBLIC "-//W3C//DTD SVG 1.1//EN"
 "http://www.w3.org/Graphics/SVG/1.1/DTD/svg11.dtd">
<!-- Generated by graphviz version 7.0.5 (20221231.0122)
 -->
<!-- Title: FullTreatment Pages: 1 -->
<svg width="280pt" height="404pt"
 viewBox="0.00 0.00 280.00 404.00" xmlns="http://www.w3.org/2000/svg" xmlns:xlink="http://www.w3.org/1999/xlink">
<g id="graph0" class="graph" transform="scale(1 1) rotate(0) translate(4 400)">
<title>FullTreatment</title>
<polygon fill="white" stroke="none" points="-4,4 -4,-400 276,-400 276,4 -4,4"/>
<!-- A -->
<g id="node1" class="node">
<title>A</title>
<ellipse fill="khaki" stroke="black" cx="158" cy="-378" rx="27" ry="18"/>
<text text-anchor="middle" x="158" y="-374.3" font-family="Helvetica,sans-Serif" font-size="14.00">A</text>
</g>
<!-- B -->
<g id="node2" class="node">
<title>B</title>
<ellipse fill="khaki" stroke="black" cx="65" cy="-306" rx="27" ry="18"/>
<text text-anchor="middle" x="65" y="-302.3" font-family="Helvetica,sans-Serif" font-size="14.00">B</text>
</g>
<!-- A&#45;&gt;B -->
<g id="edge1" class="edge">
<title>A&#45;&gt;B</title>
<path fill="none" stroke="black" d="M140.51,-363.83C126.61,-353.37 106.95,-338.58 91.18,-326.7"/>
<polygon fill="black" stroke="black" points="93.72,-324.24 83.62,-321.02 89.51,-329.83 93.72,-324.24"/>
</g>
<!-- T -->
<g id="node3" class="node">
<title>T</title>
<ellipse fill="khaki" stroke="black" cx="27" cy="-234" rx="27" ry="18"/>
<text text-anchor="middle" x="27" y="-230.3" font-family="Helvetica,sans-Serif" font-size="14.00">T</text>
</g>
<!-- A&#45;&gt;T -->
<g id="edge2" class="edge">
<title>A&#45;&gt;T</title>
<path fill="none" stroke="black" d="M149.95,-360.61C140.14,-341.7 122.22,-310.36 101,-288 88,-274.31 71.03,-261.86 56.61,-252.47"/>
<polygon fill="black" stroke="black" points="58.73,-249.67 48.4,-247.29 54.99,-255.59 58.73,-249.67"/>
</g>
<!-- C -->
<g id="node4" class="node">
<title>C</title>
<ellipse fill="khaki" stroke="black" cx="27" cy="-162" rx="27" ry="18"/>
<text text-anchor="middle" x="27" y="-158.3" font-family="Helvetica,sans-Serif" font-size="14.00">C</text>
</g>
<!-- A&#45;&gt;C -->
<g id="edge3" class="edge">
<title>A&#45;&gt;C</title>
<path fill="none" stroke="black" d="M153.77,-360.06C148.87,-341.74 139.9,-311.95 128,-288 110.77,-253.34 103.54,-245.93 79,-216 70.24,-205.31 59.7,-194.29 50.41,-185.07"/>
<polygon fill="black" stroke="black" points="53,-182.71 43.39,-178.24 48.11,-187.73 53,-182.71"/>
</g>
<!-- R -->
<g id="node5" class="node">
<title>R</title>
<ellipse fill="khaki" stroke="black" cx="65" cy="-90" rx="27" ry="18"/>
<text text-anchor="middle" x="65" y="-86.3" font-family="Helvetica,sans-Serif" font-size="14.00">R</text>
</g>
<!-- A&#45;&gt;R -->
<g id="edge4" class="edge">
<title>A&#45;&gt;R</title>
<path fill="none" stroke="black" d="M157.6,-359.72C156.87,-341.62 154.8,-312.48 149,-288 133.19,-221.34 122.73,-206.19 94,-144 89.81,-134.93 84.72,-125.27 79.99,-116.72"/>
<polygon fill="black" stroke="black" points="83.18,-115.25 75.21,-108.26 77.08,-118.69 83.18,-115.25"/>
</g>
<!-- S -->
<g id="node6" class="node">
<title>S</title>
<ellipse fill="khaki" stroke="black" cx="158" cy="-18" rx="27" ry="18"/>
<text text-anchor="middle" x="158" y="-14.3" font-family="Helvetica,sans-Serif" font-size="14.00">S</text>
</g>
<!-- A&#45;&gt;S -->
<g id="edge5" class="edge">
<title>A&#45;&gt;S</title>
<path fill="none" stroke="black" d="M177.34,-365.19C209.86,-343.67 272,-294.75 272,-235 272,-235 272,-235 272,-161 272,-106.62 220.53,-61.2 186.76,-37.26"/>
<polygon fill="black" stroke="black" points="188.82,-34.43 178.59,-31.67 184.86,-40.2 188.82,-34.43"/>
</g>
<!-- B&#45;&gt;T -->
<g id="edge6" class="edge">
<title>B&#45;&gt;T</title>
<path fill="none" stroke="black" d="M56.19,-288.76C51.73,-280.55 46.2,-270.37 41.16,-261.09"/>
<polygon fill="black" stroke="black" points="44.33,-259.6 36.49,-252.48 38.18,-262.94 44.33,-259.6"/>
</g>
<!-- B&#45;&gt;C -->
<g id="edge7" class="edge">
<title>B&#45;&gt;C</title>
<path fill="none" stroke="black" d="M67.44,-287.8C69.39,-269.52 70.67,-239.99 63,-216 59.7,-205.69 53.7,-195.55 47.54,-186.95"/>
<polygon fill="black" stroke="black" points="50.43,-184.97 41.56,-179.17 44.88,-189.23 50.43,-184.97"/>
</g>
<!-- B&#45;&gt;R -->
<g id="edge8" class="edge">
<title>B&#45;&gt;R</title>
<path fill="none" stroke="black" d="M70.68,-288.04C73.82,-277.74 77.41,-264.27 79,-252 85.18,-204.4 85.18,-191.6 79,-144 77.93,-135.76 75.96,-126.97 73.83,-118.97"/>
<polygon fill="black" stroke="black" points="77.21,-118.07 71.09,-109.42 70.48,-119.99 77.21,-118.07"/>
</g>
<!-- B&#45;&gt;S -->
<g id="edge9" class="edge">
<title>B&#45;&gt;S</title>
<path fill="none" stroke="black" d="M74.47,-289.06C80.44,-278.68 88.11,-264.76 94,-252 122.73,-189.81 133.19,-174.66 149,-108 153.69,-88.21 155.94,-65.37 157.02,-47.78"/>
<polygon fill="black" stroke="black" points="160.51,-47.96 157.52,-37.8 153.52,-47.61 160.51,-47.96"/>
</g>
<!-- T&#45;&gt;C -->
<g id="edge10" class="edge">
<title>T&#45;&gt;C</title>
<path fill="none" stroke="black" d="M27,-215.7C27,-208.41 27,-199.73 27,-191.54"/>
<polygon fill="black" stroke="black" points="30.5,-191.62 27,-181.62 23.5,-191.62 30.5,-191.62"/>
</g>
<!-- T&#45;&gt;R -->
<g id="edge11" class="edge">
<title>T&#45;&gt;R</title>
<path fill="none" stroke="black" d="M40.64,-218.03C48.81,-208.05 58.46,-194.2 63,-180 69.24,-160.5 69.55,-137.36 68.41,-119.56"/>
<polygon fill="black" stroke="black" points="71.91,-119.38 67.57,-109.71 64.93,-119.97 71.91,-119.38"/>
</g>
<!-- T&#45;&gt;S -->
<g id="edge12" class="edge">
<title>T&#45;&gt;S</title>
<path fill="none" stroke="black" d="M42.31,-218.81C53.08,-208.5 67.56,-193.96 79,-180 103.54,-150.07 110.77,-142.66 128,-108 137.76,-88.36 145.55,-64.78 150.74,-46.83"/>
<polygon fill="black" stroke="black" points="154.06,-47.97 153.37,-37.4 147.31,-46.1 154.06,-47.97"/>
</g>
<!-- C&#45;&gt;R -->
<g id="edge13" class="edge">
<title>C&#45;&gt;R</title>
<path fill="none" stroke="black" d="M35.81,-144.76C40.27,-136.55 45.8,-126.37 50.84,-117.09"/>
<polygon fill="black" stroke="black" points="53.82,-118.94 55.51,-108.48 47.67,-115.6 53.82,-118.94"/>
</g>
<!-- C&#45;&gt;S -->
<g id="edge14" class="edge">
<title>C&#45;&gt;S</title>
<path fill="none" stroke="black" d="M47.12,-149.52C62.98,-139.82 85.01,-124.85 101,-108 118.83,-89.23 134.32,-64.11 144.63,-45.35"/>
<polygon fill="black" stroke="black" points="147.61,-47.2 149.24,-36.73 141.44,-43.9 147.61,-47.2"/>
</g>
<!-- R&#45;&gt;S -->
<g id="edge15" class="edge">
<title>R&#45;&gt;S</title>
<path fill="none" stroke="black" d="M82.49,-75.83C96.39,-65.37 116.05,-50.58 131.82,-38.7"/>
<polygon fill="black" stroke="black" points="133.49,-41.83 139.38,-33.02 129.28,-36.24 133.49,-41.83"/>
</g>
</g>
</svg>
