<?xml version="1.0" encoding="UTF-8" standalone="no"?>
<!DOCTYPE svg PUBLIC "-//W3C//DTD SVG 1.1//EN"
 "http://www.w3.org/Graphics/SVG/1.1/DTD/svg11.dtd">
<!-- Generated by graphviz version 2.40.1 (20161225.0304)
 -->
<!-- Title: FullTreatment Pages: 1 -->
<svg width="394pt" height="476pt"
 viewBox="0.00 0.00 394.00 476.00" xmlns="http://www.w3.org/2000/svg" xmlns:xlink="http://www.w3.org/1999/xlink">
<g id="graph0" class="graph" transform="scale(1 1) rotate(0) translate(4 472)">
<title>FullTreatment</title>
<polygon fill="#ffffff" stroke="transparent" points="-4,4 -4,-472 390,-472 390,4 -4,4"/>
<!-- DC -->
<g id="node1" class="node">
<title>DC</title>
<ellipse fill="#f0e68c" stroke="#000000" cx="204" cy="-450" rx="27" ry="18"/>
<text text-anchor="middle" x="204" y="-446.3" font-family="Helvetica,sans-Serif" font-size="14.00" fill="#000000">DC</text>
</g>
<!-- EB -->
<g id="node2" class="node">
<title>EB</title>
<ellipse fill="#f0e68c" stroke="#000000" cx="82" cy="-378" rx="27" ry="18"/>
<text text-anchor="middle" x="82" y="-374.3" font-family="Helvetica,sans-Serif" font-size="14.00" fill="#000000">EB</text>
</g>
<!-- DC&#45;&gt;EB -->
<g id="edge1" class="edge">
<title>DC&#45;&gt;EB</title>
<path fill="none" stroke="#000000" d="M183.5799,-437.9488C163.7865,-426.2675 133.5607,-408.4293 111.2226,-395.2461"/>
<polygon fill="#000000" stroke="#000000" points="112.8777,-392.1589 102.4867,-390.0905 109.3199,-398.1873 112.8777,-392.1589"/>
</g>
<!-- TR -->
<g id="node3" class="node">
<title>TR</title>
<ellipse fill="#f0e68c" stroke="#000000" cx="27" cy="-306" rx="27" ry="18"/>
<text text-anchor="middle" x="27" y="-302.3" font-family="Helvetica,sans-Serif" font-size="14.00" fill="#000000">TR</text>
</g>
<!-- DC&#45;&gt;TR -->
<g id="edge2" class="edge">
<title>DC&#45;&gt;TR</title>
<path fill="none" stroke="#000000" d="M191.14,-434.0957C175.2442,-415.0524 146.7554,-382.8678 118,-360 99.3889,-345.1995 76.3341,-331.5608 58.087,-321.6927"/>
<polygon fill="#000000" stroke="#000000" points="59.5065,-318.4838 49.0322,-316.8899 56.2264,-324.6677 59.5065,-318.4838"/>
</g>
<!-- EC -->
<g id="node4" class="node">
<title>EC</title>
<ellipse fill="#f0e68c" stroke="#000000" cx="27" cy="-234" rx="27" ry="18"/>
<text text-anchor="middle" x="27" y="-230.3" font-family="Helvetica,sans-Serif" font-size="14.00" fill="#000000">EC</text>
</g>
<!-- DC&#45;&gt;EC -->
<g id="edge3" class="edge">
<title>DC&#45;&gt;EC</title>
<path fill="none" stroke="#000000" d="M195.0847,-432.7108C185.1368,-414.0528 168.0525,-383.8147 150,-360 123.4104,-324.9233 112.8206,-319.4241 82,-288 71.5466,-277.3419 59.7589,-265.7178 49.7851,-255.9939"/>
<polygon fill="#000000" stroke="#000000" points="52.1744,-253.4353 42.5639,-248.9758 47.2958,-258.4552 52.1744,-253.4353"/>
</g>
<!-- FF -->
<g id="node5" class="node">
<title>FF</title>
<ellipse fill="#f0e68c" stroke="#000000" cx="27" cy="-162" rx="27" ry="18"/>
<text text-anchor="middle" x="27" y="-158.3" font-family="Helvetica,sans-Serif" font-size="14.00" fill="#000000">FF</text>
</g>
<!-- DC&#45;&gt;FF -->
<g id="edge4" class="edge">
<title>DC&#45;&gt;FF</title>
<path fill="none" stroke="#000000" d="M199.5763,-432.0232C194.7675,-413.5735 186.3651,-384.2209 176,-360 147.1957,-292.6909 143.552,-271.6687 96,-216 84.3294,-202.3373 68.738,-189.7859 55.3289,-180.2292"/>
<polygon fill="#000000" stroke="#000000" points="57.1118,-177.2069 46.8955,-174.4 53.1316,-182.9652 57.1118,-177.2069"/>
</g>
<!-- SB -->
<g id="node6" class="node">
<title>SB</title>
<ellipse fill="#f0e68c" stroke="#000000" cx="177" cy="-90" rx="27" ry="18"/>
<text text-anchor="middle" x="177" y="-86.3" font-family="Helvetica,sans-Serif" font-size="14.00" fill="#000000">SB</text>
</g>
<!-- DC&#45;&gt;SB -->
<g id="edge5" class="edge">
<title>DC&#45;&gt;SB</title>
<path fill="none" stroke="#000000" d="M226.8172,-440.0767C267.4213,-420.6959 348,-373.7055 348,-306 348,-306 348,-306 348,-234 348,-163.0474 260.7977,-119.9974 210.9374,-101.1815"/>
<polygon fill="#000000" stroke="#000000" points="212.0941,-97.8779 201.5001,-97.7403 209.696,-104.4543 212.0941,-97.8779"/>
</g>
<!-- SA -->
<g id="node7" class="node">
<title>SA</title>
<ellipse fill="#f0e68c" stroke="#000000" cx="253" cy="-18" rx="27" ry="18"/>
<text text-anchor="middle" x="253" y="-14.3" font-family="Helvetica,sans-Serif" font-size="14.00" fill="#000000">SA</text>
</g>
<!-- DC&#45;&gt;SA -->
<g id="edge6" class="edge">
<title>DC&#45;&gt;SA</title>
<path fill="none" stroke="#000000" d="M229.3063,-442.9914C279.3149,-427.4277 386,-384.9708 386,-306 386,-306 386,-306 386,-162 386,-102.1387 323.2092,-56.5552 283.9152,-33.89"/>
<polygon fill="#000000" stroke="#000000" points="285.3988,-30.7097 274.9622,-28.8853 281.9832,-36.8198 285.3988,-30.7097"/>
</g>
<!-- EB&#45;&gt;TR -->
<g id="edge7" class="edge">
<title>EB&#45;&gt;TR</title>
<path fill="none" stroke="#000000" d="M69.5196,-361.6621C62.4876,-352.4564 53.5653,-340.7764 45.7117,-330.4953"/>
<polygon fill="#000000" stroke="#000000" points="48.2828,-328.0953 39.431,-322.2733 42.72,-332.3446 48.2828,-328.0953"/>
</g>
<!-- EB&#45;&gt;EC -->
<g id="edge8" class="edge">
<title>EB&#45;&gt;EC</title>
<path fill="none" stroke="#000000" d="M80.2095,-359.8083C77.9112,-341.1875 72.9655,-311.7008 63,-288 58.6764,-277.7173 52.313,-267.3119 46.134,-258.4164"/>
<polygon fill="#000000" stroke="#000000" points="48.7998,-256.1301 40.0989,-250.0847 43.1307,-260.2365 48.7998,-256.1301"/>
</g>
<!-- EB&#45;&gt;FF -->
<g id="edge9" class="edge">
<title>EB&#45;&gt;FF</title>
<path fill="none" stroke="#000000" d="M85.7265,-360.0664C91.2586,-329.1801 98.8968,-264.588 78,-216 72.4523,-203.1007 62.3968,-191.4049 52.6721,-182.2227"/>
<polygon fill="#000000" stroke="#000000" points="54.8321,-179.4595 45.0364,-175.4226 50.1766,-184.687 54.8321,-179.4595"/>
</g>
<!-- EB&#45;&gt;SB -->
<g id="edge10" class="edge">
<title>EB&#45;&gt;SB</title>
<path fill="none" stroke="#000000" d="M89.7079,-360.5923C94.2976,-350.0609 100.153,-336.3283 105,-324 129.8975,-260.6736 138.0252,-245.3458 157,-180 162.9419,-159.537 168.1124,-136.0185 171.707,-118.156"/>
<polygon fill="#000000" stroke="#000000" points="175.1889,-118.5885 173.6847,-108.101 168.3205,-117.2375 175.1889,-118.5885"/>
</g>
<!-- EB&#45;&gt;SA -->
<g id="edge11" class="edge">
<title>EB&#45;&gt;SA</title>
<path fill="none" stroke="#000000" d="M108.6007,-374.0262C168.7446,-363.3806 310,-328.3364 310,-234 310,-234 310,-234 310,-162 310,-117.7935 286.4889,-70.9731 269.6664,-43.1305"/>
<polygon fill="#000000" stroke="#000000" points="272.5172,-41.0871 264.2614,-34.4469 266.5743,-44.7862 272.5172,-41.0871"/>
</g>
<!-- TR&#45;&gt;EC -->
<g id="edge12" class="edge">
<title>TR&#45;&gt;EC</title>
<path fill="none" stroke="#000000" d="M27,-287.8314C27,-280.131 27,-270.9743 27,-262.4166"/>
<polygon fill="#000000" stroke="#000000" points="30.5001,-262.4132 27,-252.4133 23.5001,-262.4133 30.5001,-262.4132"/>
</g>
<!-- TR&#45;&gt;FF -->
<g id="edge13" class="edge">
<title>TR&#45;&gt;FF</title>
<path fill="none" stroke="#000000" d="M41.1229,-290.2844C49.2535,-280.1468 58.6901,-266.2347 63,-252 67.6365,-236.6865 67.6365,-231.3135 63,-216 59.7339,-205.2127 53.5236,-194.6108 47.1687,-185.6963"/>
<polygon fill="#000000" stroke="#000000" points="49.9513,-183.5732 41.1229,-177.7156 44.3715,-187.8001 49.9513,-183.5732"/>
</g>
<!-- TR&#45;&gt;SB -->
<g id="edge14" class="edge">
<title>TR&#45;&gt;SB</title>
<path fill="none" stroke="#000000" d="M42.1334,-290.7673C52.4998,-280.1442 66.4147,-265.5077 78,-252 104.3924,-221.2283 112.6939,-214.4892 134,-180 146.5748,-159.6446 158.1016,-135.045 166.0487,-116.7119"/>
<polygon fill="#000000" stroke="#000000" points="169.2755,-118.0674 169.972,-107.4955 162.8348,-115.3257 169.2755,-118.0674"/>
</g>
<!-- TR&#45;&gt;SA -->
<g id="edge15" class="edge">
<title>TR&#45;&gt;SA</title>
<path fill="none" stroke="#000000" d="M47.7257,-294.1563C92.0815,-267.5168 195.6856,-198.0967 239,-108 248.2784,-88.7003 251.6581,-64.6345 252.7833,-46.2457"/>
<polygon fill="#000000" stroke="#000000" points="256.2844,-46.2934 253.2129,-36.1536 249.2907,-45.9957 256.2844,-46.2934"/>
</g>
<!-- EC&#45;&gt;FF -->
<g id="edge16" class="edge">
<title>EC&#45;&gt;FF</title>
<path fill="none" stroke="#000000" d="M27,-215.8314C27,-208.131 27,-198.9743 27,-190.4166"/>
<polygon fill="#000000" stroke="#000000" points="30.5001,-190.4132 27,-180.4133 23.5001,-190.4133 30.5001,-190.4132"/>
</g>
<!-- EC&#45;&gt;SB -->
<g id="edge17" class="edge">
<title>EC&#45;&gt;SB</title>
<path fill="none" stroke="#000000" d="M42.4877,-219.1318C68.9856,-193.6938 123.1445,-141.7013 154.0473,-112.0346"/>
<polygon fill="#000000" stroke="#000000" points="156.5818,-114.4532 161.3719,-105.003 151.7341,-109.4035 156.5818,-114.4532"/>
</g>
<!-- EC&#45;&gt;SA -->
<g id="edge18" class="edge">
<title>EC&#45;&gt;SA</title>
<path fill="none" stroke="#000000" d="M37.924,-217.4959C63.8055,-178.54 127.6895,-83.2894 141,-72 163.9035,-52.5742 194.9916,-38.3139 218.6038,-29.342"/>
<polygon fill="#000000" stroke="#000000" points="220.0331,-32.546 228.22,-25.821 217.6263,-25.9727 220.0331,-32.546"/>
</g>
<!-- FF&#45;&gt;SB -->
<g id="edge19" class="edge">
<title>FF&#45;&gt;SB</title>
<path fill="none" stroke="#000000" d="M49.133,-151.3762C74.6127,-139.1459 116.6555,-118.9654 145.5313,-105.105"/>
<polygon fill="#000000" stroke="#000000" points="147.2755,-108.1501 154.7762,-100.6674 144.2464,-101.8395 147.2755,-108.1501"/>
</g>
<!-- FF&#45;&gt;SA -->
<g id="edge20" class="edge">
<title>FF&#45;&gt;SA</title>
<path fill="none" stroke="#000000" d="M53.2731,-157.2025C98.6113,-148.473 188.9966,-128.9494 213,-108 231.4298,-91.9151 241.7531,-65.7009 247.2746,-45.702"/>
<polygon fill="#000000" stroke="#000000" points="250.6957,-46.4488 249.7419,-35.897 243.9074,-44.7406 250.6957,-46.4488"/>
</g>
<!-- SB&#45;&gt;SA -->
<g id="edge21" class="edge">
<title>SB&#45;&gt;SA</title>
<path fill="none" stroke="#000000" d="M192.7472,-75.0816C203.447,-64.945 217.781,-51.3654 229.7837,-39.9944"/>
<polygon fill="#000000" stroke="#000000" points="232.4205,-42.3177 237.2729,-32.8993 227.6063,-37.236 232.4205,-42.3177"/>
</g>
</g>
</svg>
