<?xml version="1.0" encoding="UTF-8" standalone="no"?>
<!DOCTYPE svg PUBLIC "-//W3C//DTD SVG 1.1//EN"
 "http://www.w3.org/Graphics/SVG/1.1/DTD/svg11.dtd">
<!-- Generated by graphviz version 3.0.0 (20220315.2325)
 -->
<!-- Title: Reference Pages: 1 -->
<svg width="1141pt" height="1122pt"
 viewBox="0.00 0.00 1141.19 1122.00" xmlns="http://www.w3.org/2000/svg" xmlns:xlink="http://www.w3.org/1999/xlink">
<g id="graph0" class="graph" transform="scale(1 1) rotate(0) translate(4 1118)">
<title>Reference</title>
<polygon fill="white" stroke="transparent" points="-4,4 -4,-1118 1137.19,-1118 1137.19,4 -4,4"/>
<!-- NormaliseBy -->
<g id="node1" class="node">
<title>NormaliseBy</title>
<polygon fill="limegreen" stroke="black" points="95.59,-1041 -0.09,-1023 95.59,-1005 191.28,-1023 95.59,-1041"/>
<text text-anchor="middle" x="95.59" y="-1019.3" font-family="Helvetica,sans-Serif" font-size="14.00">NormaliseBy</text>
</g>
<!-- Divide -->
<g id="node15" class="node">
<title>Divide</title>
<path fill="lightskyblue" stroke="black" d="M125.59,-968C125.59,-968 89.59,-968 89.59,-968 83.59,-968 77.59,-962 77.59,-956 77.59,-956 77.59,-944 77.59,-944 77.59,-938 83.59,-932 89.59,-932 89.59,-932 125.59,-932 125.59,-932 131.59,-932 137.59,-938 137.59,-944 137.59,-944 137.59,-956 137.59,-956 137.59,-962 131.59,-968 125.59,-968"/>
<text text-anchor="middle" x="107.59" y="-946.3" font-family="Helvetica,sans-Serif" font-size="14.00">Divide</text>
</g>
<!-- NormaliseBy&#45;&gt;Divide -->
<g id="edge3" class="edge">
<title>NormaliseBy&#45;&gt;Divide</title>
<path fill="none" stroke="black" d="M98.44,-1005.17C99.79,-997.16 101.45,-987.36 102.97,-978.32"/>
<polygon fill="black" stroke="black" points="106.47,-978.64 104.69,-968.2 99.57,-977.48 106.47,-978.64"/>
</g>
<!-- Runs -->
<g id="node2" class="node">
<title>Runs</title>
<ellipse fill="khaki" stroke="black" cx="269.59" cy="-1096" rx="33.29" ry="18"/>
<text text-anchor="middle" x="269.59" y="-1092.3" font-family="Helvetica,sans-Serif" font-size="14.00">Runs</text>
</g>
<!-- LoadAndMerge -->
<g id="node14" class="node">
<title>LoadAndMerge</title>
<path fill="lightskyblue" stroke="black" d="M318.09,-1041C318.09,-1041 221.09,-1041 221.09,-1041 215.09,-1041 209.09,-1035 209.09,-1029 209.09,-1029 209.09,-1017 209.09,-1017 209.09,-1011 215.09,-1005 221.09,-1005 221.09,-1005 318.09,-1005 318.09,-1005 324.09,-1005 330.09,-1011 330.09,-1017 330.09,-1017 330.09,-1029 330.09,-1029 330.09,-1035 324.09,-1041 318.09,-1041"/>
<text text-anchor="middle" x="269.59" y="-1019.3" font-family="Helvetica,sans-Serif" font-size="14.00">LoadAndMerge</text>
</g>
<!-- Runs&#45;&gt;LoadAndMerge -->
<g id="edge1" class="edge">
<title>Runs&#45;&gt;LoadAndMerge</title>
<path fill="none" stroke="black" d="M269.59,-1077.81C269.59,-1069.79 269.59,-1060.05 269.59,-1051.07"/>
<polygon fill="black" stroke="black" points="273.09,-1051.03 269.59,-1041.03 266.09,-1051.03 273.09,-1051.03"/>
</g>
<!-- BeamCenter -->
<g id="node3" class="node">
<title>BeamCenter</title>
<ellipse fill="khaki" stroke="black" cx="493.59" cy="-877" rx="66.89" ry="18"/>
<text text-anchor="middle" x="493.59" y="-873.3" font-family="Helvetica,sans-Serif" font-size="14.00">BeamCenter</text>
</g>
<!-- MoveInstrumentComponent -->
<g id="node17" class="node">
<title>MoveInstrumentComponent</title>
<path fill="lightskyblue" stroke="black" d="M489.09,-822C489.09,-822 302.09,-822 302.09,-822 296.09,-822 290.09,-816 290.09,-810 290.09,-810 290.09,-798 290.09,-798 290.09,-792 296.09,-786 302.09,-786 302.09,-786 489.09,-786 489.09,-786 495.09,-786 501.09,-792 501.09,-798 501.09,-798 501.09,-810 501.09,-810 501.09,-816 495.09,-822 489.09,-822"/>
<text text-anchor="middle" x="395.59" y="-800.3" font-family="Helvetica,sans-Serif" font-size="14.00">MoveInstrumentComponent</text>
</g>
<!-- BeamCenter&#45;&gt;MoveInstrumentComponent -->
<g id="edge8" class="edge">
<title>BeamCenter&#45;&gt;MoveInstrumentComponent</title>
<path fill="none" stroke="black" d="M471.35,-859.89C458.33,-850.45 441.65,-838.37 427.27,-827.95"/>
<polygon fill="black" stroke="black" points="429.26,-825.07 419.11,-822.04 425.15,-830.74 429.26,-825.07"/>
</g>
<!-- DarkCurrentWorkspace -->
<g id="node4" class="node">
<title>DarkCurrentWorkspace</title>
<ellipse fill="khaki" stroke="black" cx="271.59" cy="-950" rx="116.18" ry="18"/>
<text text-anchor="middle" x="271.59" y="-946.3" font-family="Helvetica,sans-Serif" font-size="14.00">DarkCurrentWorkspace</text>
</g>
<!-- Minus -->
<g id="node16" class="node">
<title>Minus</title>
<path fill="lightskyblue" stroke="black" d="M288.59,-895C288.59,-895 254.59,-895 254.59,-895 248.59,-895 242.59,-889 242.59,-883 242.59,-883 242.59,-871 242.59,-871 242.59,-865 248.59,-859 254.59,-859 254.59,-859 288.59,-859 288.59,-859 294.59,-859 300.59,-865 300.59,-871 300.59,-871 300.59,-883 300.59,-883 300.59,-889 294.59,-895 288.59,-895"/>
<text text-anchor="middle" x="271.59" y="-873.3" font-family="Helvetica,sans-Serif" font-size="14.00">Minus</text>
</g>
<!-- DarkCurrentWorkspace&#45;&gt;Minus -->
<g id="edge5" class="edge">
<title>DarkCurrentWorkspace&#45;&gt;Minus</title>
<path fill="none" stroke="black" d="M271.59,-931.81C271.59,-923.79 271.59,-914.05 271.59,-905.07"/>
<polygon fill="black" stroke="black" points="275.09,-905.03 271.59,-895.03 268.09,-905.03 275.09,-905.03"/>
</g>
<!-- EmptyBeamWorkspace -->
<g id="node5" class="node">
<title>EmptyBeamWorkspace</title>
<ellipse fill="khaki" stroke="black" cx="521.59" cy="-950" rx="115.88" ry="18"/>
<text text-anchor="middle" x="521.59" y="-946.3" font-family="Helvetica,sans-Serif" font-size="14.00">EmptyBeamWorkspace</text>
</g>
<!-- EmptyBeamWorkspace&#45;&gt;BeamCenter -->
<g id="edge7" class="edge">
<title>EmptyBeamWorkspace&#45;&gt;BeamCenter</title>
<path fill="none" stroke="black" d="M514.81,-931.81C511.58,-923.62 507.64,-913.62 504.04,-904.48"/>
<polygon fill="black" stroke="black" points="507.23,-903.05 500.31,-895.03 500.72,-905.62 507.23,-903.05"/>
</g>
<!-- FluxWorkspace -->
<g id="node6" class="node">
<title>FluxWorkspace</title>
<ellipse fill="khaki" stroke="black" cx="986.59" cy="-324" rx="79.09" ry="18"/>
<text text-anchor="middle" x="986.59" y="-320.3" font-family="Helvetica,sans-Serif" font-size="14.00">FluxWorkspace</text>
</g>
<!-- Divide4 -->
<g id="node25" class="node">
<title>Divide4</title>
<path fill="lightskyblue" stroke="black" d="M940.59,-255C940.59,-255 904.59,-255 904.59,-255 898.59,-255 892.59,-249 892.59,-243 892.59,-243 892.59,-231 892.59,-231 892.59,-225 898.59,-219 904.59,-219 904.59,-219 940.59,-219 940.59,-219 946.59,-219 952.59,-225 952.59,-231 952.59,-231 952.59,-243 952.59,-243 952.59,-249 946.59,-255 940.59,-255"/>
<text text-anchor="middle" x="922.59" y="-233.3" font-family="Helvetica,sans-Serif" font-size="14.00">Divide</text>
</g>
<!-- FluxWorkspace&#45;&gt;Divide4 -->
<g id="edge21" class="edge">
<title>FluxWorkspace&#45;&gt;Divide4</title>
<path fill="none" stroke="black" d="M973.95,-306.21C964.72,-293.95 952.04,-277.11 941.6,-263.24"/>
<polygon fill="black" stroke="black" points="944.24,-260.93 935.43,-255.05 938.65,-265.14 944.24,-260.93"/>
</g>
<!-- TransmissionWorkspace -->
<g id="node7" class="node">
<title>TransmissionWorkspace</title>
<ellipse fill="khaki" stroke="black" cx="637.59" cy="-804" rx="118.88" ry="18"/>
<text text-anchor="middle" x="637.59" y="-800.3" font-family="Helvetica,sans-Serif" font-size="14.00">TransmissionWorkspace</text>
</g>
<!-- ApplyTransmissionCorrection -->
<g id="node18" class="node">
<title>ApplyTransmissionCorrection</title>
<path fill="lightskyblue" stroke="black" d="M613.59,-749C613.59,-749 419.59,-749 419.59,-749 413.59,-749 407.59,-743 407.59,-737 407.59,-737 407.59,-725 407.59,-725 407.59,-719 413.59,-713 419.59,-713 419.59,-713 613.59,-713 613.59,-713 619.59,-713 625.59,-719 625.59,-725 625.59,-725 625.59,-737 625.59,-737 625.59,-743 619.59,-749 613.59,-749"/>
<text text-anchor="middle" x="516.59" y="-727.3" font-family="Helvetica,sans-Serif" font-size="14.00">ApplyTransmissionCorrection</text>
</g>
<!-- TransmissionWorkspace&#45;&gt;ApplyTransmissionCorrection -->
<g id="edge10" class="edge">
<title>TransmissionWorkspace&#45;&gt;ApplyTransmissionCorrection</title>
<path fill="none" stroke="black" d="M609.22,-786.35C592.92,-776.79 572.24,-764.66 554.56,-754.28"/>
<polygon fill="black" stroke="black" points="556.02,-751.08 545.62,-749.04 552.48,-757.11 556.02,-751.08"/>
</g>
<!-- EmptyContainerWorkspace -->
<g id="node8" class="node">
<title>EmptyContainerWorkspace</title>
<ellipse fill="khaki" stroke="black" cx="698.59" cy="-644" rx="133.78" ry="18"/>
<text text-anchor="middle" x="698.59" y="-640.3" font-family="Helvetica,sans-Serif" font-size="14.00">EmptyContainerWorkspace</text>
</g>
<!-- Minus2 -->
<g id="node20" class="node">
<title>Minus2</title>
<path fill="lightskyblue" stroke="black" d="M624.59,-589C624.59,-589 590.59,-589 590.59,-589 584.59,-589 578.59,-583 578.59,-577 578.59,-577 578.59,-565 578.59,-565 578.59,-559 584.59,-553 590.59,-553 590.59,-553 624.59,-553 624.59,-553 630.59,-553 636.59,-559 636.59,-565 636.59,-565 636.59,-577 636.59,-577 636.59,-583 630.59,-589 624.59,-589"/>
<text text-anchor="middle" x="607.59" y="-567.3" font-family="Helvetica,sans-Serif" font-size="14.00">Minus</text>
</g>
<!-- EmptyContainerWorkspace&#45;&gt;Minus2 -->
<g id="edge13" class="edge">
<title>EmptyContainerWorkspace&#45;&gt;Minus2</title>
<path fill="none" stroke="black" d="M677.03,-626.17C665.3,-617.02 650.61,-605.56 637.76,-595.54"/>
<polygon fill="black" stroke="black" points="639.67,-592.59 629.64,-589.2 635.37,-598.11 639.67,-592.59"/>
</g>
<!-- DefaultMaskWorkspace -->
<g id="node9" class="node">
<title>DefaultMaskWorkspace</title>
<ellipse fill="khaki" stroke="black" cx="770.59" cy="-571" rx="116.18" ry="18"/>
<text text-anchor="middle" x="770.59" y="-567.3" font-family="Helvetica,sans-Serif" font-size="14.00">DefaultMaskWorkspace</text>
</g>
<!-- MaskDetectors -->
<g id="node22" class="node">
<title>MaskDetectors</title>
<path fill="lightskyblue" stroke="black" d="M818.09,-502C818.09,-502 723.09,-502 723.09,-502 717.09,-502 711.09,-496 711.09,-490 711.09,-490 711.09,-478 711.09,-478 711.09,-472 717.09,-466 723.09,-466 723.09,-466 818.09,-466 818.09,-466 824.09,-466 830.09,-472 830.09,-478 830.09,-478 830.09,-490 830.09,-490 830.09,-496 824.09,-502 818.09,-502"/>
<text text-anchor="middle" x="770.59" y="-480.3" font-family="Helvetica,sans-Serif" font-size="14.00">MaskDetectors</text>
</g>
<!-- DefaultMaskWorkspace&#45;&gt;MaskDetectors -->
<g id="edge15" class="edge">
<title>DefaultMaskWorkspace&#45;&gt;MaskDetectors</title>
<path fill="none" stroke="black" d="M770.59,-552.8C770.59,-541.16 770.59,-525.55 770.59,-512.24"/>
<polygon fill="black" stroke="black" points="774.09,-512.18 770.59,-502.18 767.09,-512.18 774.09,-512.18"/>
<text text-anchor="middle" x="792.09" y="-523.8" font-family="Helvetica,sans-Serif" font-size="14.00">Edges</text>
</g>
<!-- MaskWorkspace -->
<g id="node10" class="node">
<title>MaskWorkspace</title>
<ellipse fill="khaki" stroke="black" cx="988.59" cy="-571" rx="83.69" ry="18"/>
<text text-anchor="middle" x="988.59" y="-567.3" font-family="Helvetica,sans-Serif" font-size="14.00">MaskWorkspace</text>
</g>
<!-- MaskWorkspace&#45;&gt;MaskDetectors -->
<g id="edge16" class="edge">
<title>MaskWorkspace&#45;&gt;MaskDetectors</title>
<path fill="none" stroke="black" d="M950.12,-555C915.08,-541.34 862.99,-521.02 823.93,-505.8"/>
<polygon fill="black" stroke="black" points="824.89,-502.41 814.3,-502.04 822.34,-508.93 824.89,-502.41"/>
<text text-anchor="middle" x="928.59" y="-523.8" font-family="Helvetica,sans-Serif" font-size="14.00">BeamStop</text>
</g>
<!-- SampleThickness -->
<g id="node11" class="node">
<title>SampleThickness</title>
<ellipse fill="khaki" stroke="black" cx="949.59" cy="-411" rx="89.08" ry="18"/>
<text text-anchor="middle" x="949.59" y="-407.3" font-family="Helvetica,sans-Serif" font-size="14.00">SampleThickness</text>
</g>
<!-- Divide3 -->
<g id="node24" class="node">
<title>Divide3</title>
<path fill="lightskyblue" stroke="black" d="M877.59,-342C877.59,-342 841.59,-342 841.59,-342 835.59,-342 829.59,-336 829.59,-330 829.59,-330 829.59,-318 829.59,-318 829.59,-312 835.59,-306 841.59,-306 841.59,-306 877.59,-306 877.59,-306 883.59,-306 889.59,-312 889.59,-318 889.59,-318 889.59,-330 889.59,-330 889.59,-336 883.59,-342 877.59,-342"/>
<text text-anchor="middle" x="859.59" y="-320.3" font-family="Helvetica,sans-Serif" font-size="14.00">Divide</text>
</g>
<!-- SampleThickness&#45;&gt;Divide3 -->
<g id="edge19" class="edge">
<title>SampleThickness&#45;&gt;Divide3</title>
<path fill="none" stroke="black" d="M931.81,-393.21C918.46,-380.6 899.99,-363.16 885.08,-349.07"/>
<polygon fill="black" stroke="black" points="887.32,-346.37 877.64,-342.05 882.51,-351.46 887.32,-346.37"/>
</g>
<!-- OutputWorkspace -->
<g id="node12" class="node">
<title>OutputWorkspace</title>
<polygon fill="grey" stroke="black" points="1060.94,-182 840.86,-182 784.24,-146 1004.33,-146 1060.94,-182"/>
<text text-anchor="middle" x="922.59" y="-160.3" font-family="Times,serif" font-size="14.00">OutputWorkspace</text>
</g>
<!-- CalculateEfficiency -->
<g id="node21" class="node">
<title>CalculateEfficiency</title>
<path fill="lightskyblue" stroke="black" d="M984.59,-109C984.59,-109 860.59,-109 860.59,-109 854.59,-109 848.59,-103 848.59,-97 848.59,-97 848.59,-85 848.59,-85 848.59,-79 854.59,-73 860.59,-73 860.59,-73 984.59,-73 984.59,-73 990.59,-73 996.59,-79 996.59,-85 996.59,-85 996.59,-97 996.59,-97 996.59,-103 990.59,-109 984.59,-109"/>
<text text-anchor="middle" x="922.59" y="-87.3" font-family="Helvetica,sans-Serif" font-size="14.00">CalculateEfficiency</text>
</g>
<!-- OutputWorkspace&#45;&gt;CalculateEfficiency -->
<g id="edge23" class="edge">
<title>OutputWorkspace&#45;&gt;CalculateEfficiency</title>
<path fill="none" stroke="black" d="M922.59,-145.81C922.59,-137.79 922.59,-128.05 922.59,-119.07"/>
<polygon fill="black" stroke="black" points="926.09,-119.03 922.59,-109.03 919.09,-119.03 926.09,-119.03"/>
</g>
<!-- OutputSensitivityWorkspace -->
<g id="node13" class="node">
<title>OutputSensitivityWorkspace</title>
<polygon fill="grey" stroke="black" points="1133.29,-36 798.12,-36 711.89,0 1047.07,0 1133.29,-36"/>
<text text-anchor="middle" x="922.59" y="-14.3" font-family="Times,serif" font-size="14.00">OutputSensitivityWorkspace</text>
</g>
<!-- LoadAndMerge&#45;&gt;Divide -->
<g id="edge2" class="edge">
<title>LoadAndMerge&#45;&gt;Divide</title>
<path fill="none" stroke="black" d="M230.79,-1004.99C205.47,-993.9 172.53,-979.46 147.08,-968.31"/>
<polygon fill="black" stroke="black" points="148.29,-965.01 137.72,-964.2 145.48,-971.42 148.29,-965.01"/>
</g>
<!-- Divide&#45;&gt;Minus -->
<g id="edge4" class="edge">
<title>Divide&#45;&gt;Minus</title>
<path fill="none" stroke="black" d="M137.82,-935.81C140.78,-934.52 143.75,-933.23 146.59,-932 175.6,-919.41 208.41,-905.24 233.14,-894.57"/>
<polygon fill="black" stroke="black" points="234.74,-897.7 242.53,-890.52 231.97,-891.27 234.74,-897.7"/>
</g>
<!-- Minus&#45;&gt;MoveInstrumentComponent -->
<g id="edge6" class="edge">
<title>Minus&#45;&gt;MoveInstrumentComponent</title>
<path fill="none" stroke="black" d="M300.66,-859.35C317.37,-849.79 338.56,-837.66 356.68,-827.28"/>
<polygon fill="black" stroke="black" points="358.9,-830.04 365.84,-822.04 355.42,-823.97 358.9,-830.04"/>
</g>
<!-- MoveInstrumentComponent&#45;&gt;ApplyTransmissionCorrection -->
<g id="edge9" class="edge">
<title>MoveInstrumentComponent&#45;&gt;ApplyTransmissionCorrection</title>
<path fill="none" stroke="black" d="M424.57,-785.99C440.77,-776.49 461.14,-764.54 478.6,-754.29"/>
<polygon fill="black" stroke="black" points="480.57,-757.19 487.43,-749.11 477.03,-751.16 480.57,-757.19"/>
</g>
<!-- Divide2 -->
<g id="node23" class="node">
<title>Divide2</title>
<path fill="lightskyblue" stroke="black" d="M534.59,-662C534.59,-662 498.59,-662 498.59,-662 492.59,-662 486.59,-656 486.59,-650 486.59,-650 486.59,-638 486.59,-638 486.59,-632 492.59,-626 498.59,-626 498.59,-626 534.59,-626 534.59,-626 540.59,-626 546.59,-632 546.59,-638 546.59,-638 546.59,-650 546.59,-650 546.59,-656 540.59,-662 534.59,-662"/>
<text text-anchor="middle" x="516.59" y="-640.3" font-family="Helvetica,sans-Serif" font-size="14.00">Divide</text>
</g>
<!-- ApplyTransmissionCorrection&#45;&gt;Divide2 -->
<g id="edge11" class="edge">
<title>ApplyTransmissionCorrection&#45;&gt;Divide2</title>
<path fill="none" stroke="black" d="M516.59,-712.8C516.59,-701.16 516.59,-685.55 516.59,-672.24"/>
<polygon fill="black" stroke="black" points="520.09,-672.18 516.59,-662.18 513.09,-672.18 520.09,-672.18"/>
<text text-anchor="middle" x="553.59" y="-683.8" font-family="Helvetica,sans-Serif" font-size="14.00">SolidAngle</text>
</g>
<!-- ParallaxCorrection -->
<g id="node19" class="node">
<title>ParallaxCorrection</title>
<path fill="lightskyblue" stroke="black" d="M830.09,-429C830.09,-429 711.09,-429 711.09,-429 705.09,-429 699.09,-423 699.09,-417 699.09,-417 699.09,-405 699.09,-405 699.09,-399 705.09,-393 711.09,-393 711.09,-393 830.09,-393 830.09,-393 836.09,-393 842.09,-399 842.09,-405 842.09,-405 842.09,-417 842.09,-417 842.09,-423 836.09,-429 830.09,-429"/>
<text text-anchor="middle" x="770.59" y="-407.3" font-family="Helvetica,sans-Serif" font-size="14.00">ParallaxCorrection</text>
</g>
<!-- ParallaxCorrection&#45;&gt;Divide3 -->
<g id="edge18" class="edge">
<title>ParallaxCorrection&#45;&gt;Divide3</title>
<path fill="none" stroke="black" d="M788.6,-392.8C801.75,-380.24 819.75,-363.05 834.34,-349.12"/>
<polygon fill="black" stroke="black" points="836.79,-351.61 841.61,-342.18 831.96,-346.55 836.79,-351.61"/>
<text text-anchor="middle" x="854.59" y="-363.8" font-family="Helvetica,sans-Serif" font-size="14.00">Thickness</text>
</g>
<!-- Minus2&#45;&gt;MaskDetectors -->
<g id="edge14" class="edge">
<title>Minus2&#45;&gt;MaskDetectors</title>
<path fill="none" stroke="black" d="M636.73,-554.8C662.35,-541.45 699.93,-521.85 728.76,-506.82"/>
<polygon fill="black" stroke="black" points="730.53,-509.84 737.78,-502.11 727.3,-503.63 730.53,-509.84"/>
</g>
<!-- CalculateEfficiency&#45;&gt;OutputSensitivityWorkspace -->
<g id="edge24" class="edge">
<title>CalculateEfficiency&#45;&gt;OutputSensitivityWorkspace</title>
<path fill="none" stroke="black" d="M922.59,-72.81C922.59,-64.79 922.59,-55.05 922.59,-46.07"/>
<polygon fill="black" stroke="black" points="926.09,-46.03 922.59,-36.03 919.09,-46.03 926.09,-46.03"/>
</g>
<!-- MaskDetectors&#45;&gt;ParallaxCorrection -->
<g id="edge17" class="edge">
<title>MaskDetectors&#45;&gt;ParallaxCorrection</title>
<path fill="none" stroke="black" d="M770.59,-465.81C770.59,-457.79 770.59,-448.05 770.59,-439.07"/>
<polygon fill="black" stroke="black" points="774.09,-439.03 770.59,-429.03 767.09,-439.03 774.09,-439.03"/>
</g>
<!-- Divide2&#45;&gt;Minus2 -->
<g id="edge12" class="edge">
<title>Divide2&#45;&gt;Minus2</title>
<path fill="none" stroke="black" d="M538.62,-625.81C550.36,-616.66 564.96,-605.26 577.71,-595.32"/>
<polygon fill="black" stroke="black" points="580.04,-597.94 585.77,-589.03 575.73,-592.42 580.04,-597.94"/>
</g>
<!-- Divide3&#45;&gt;Divide4 -->
<g id="edge20" class="edge">
<title>Divide3&#45;&gt;Divide4</title>
<path fill="none" stroke="black" d="M872.34,-305.8C881.39,-293.59 893.69,-276.99 903.86,-263.28"/>
<polygon fill="black" stroke="black" points="906.72,-265.29 909.86,-255.18 901.1,-261.13 906.72,-265.29"/>
<text text-anchor="middle" x="909.59" y="-276.8" font-family="Helvetica,sans-Serif" font-size="14.00">Flux</text>
</g>
<!-- Divide4&#45;&gt;OutputWorkspace -->
<g id="edge22" class="edge">
<title>Divide4&#45;&gt;OutputWorkspace</title>
<path fill="none" stroke="black" d="M922.59,-218.81C922.59,-210.79 922.59,-201.05 922.59,-192.07"/>
<polygon fill="black" stroke="black" points="926.09,-192.03 922.59,-182.03 919.09,-192.03 926.09,-192.03"/>
</g>
</g>
</svg>
