<?xml version="1.0" encoding="UTF-8" standalone="no"?>
<!DOCTYPE svg PUBLIC "-//W3C//DTD SVG 1.1//EN"
 "http://www.w3.org/Graphics/SVG/1.1/DTD/svg11.dtd">
<!-- Generated by graphviz version 3.0.0 (20220315.2325)
 -->
<!-- Title: Absorber Pages: 1 -->
<svg width="284pt" height="332pt"
 viewBox="0.00 0.00 284.35 332.00" xmlns="http://www.w3.org/2000/svg" xmlns:xlink="http://www.w3.org/1999/xlink">
<g id="graph0" class="graph" transform="scale(1 1) rotate(0) translate(4 328)">
<title>Absorber</title>
<polygon fill="white" stroke="transparent" points="-4,4 -4,-328 280.35,-328 280.35,4 -4,4"/>
<!-- NormaliseBy -->
<g id="node1" class="node">
<title>NormaliseBy</title>
<polygon fill="limegreen" stroke="black" points="138.18,-180 42.49,-162 138.18,-144 233.86,-162 138.18,-180"/>
<text text-anchor="middle" x="138.18" y="-158.3" font-family="Helvetica,sans-Serif" font-size="14.00">NormaliseBy</text>
</g>
<!-- Divide -->
<g id="node5" class="node">
<title>Divide</title>
<path fill="lightskyblue" stroke="black" d="M156.18,-108C156.18,-108 120.18,-108 120.18,-108 114.18,-108 108.18,-102 108.18,-96 108.18,-96 108.18,-84 108.18,-84 108.18,-78 114.18,-72 120.18,-72 120.18,-72 156.18,-72 156.18,-72 162.18,-72 168.18,-78 168.18,-84 168.18,-84 168.18,-96 168.18,-96 168.18,-102 162.18,-108 156.18,-108"/>
<text text-anchor="middle" x="138.18" y="-86.3" font-family="Helvetica,sans-Serif" font-size="14.00">Divide</text>
</g>
<!-- NormaliseBy&#45;&gt;Divide -->
<g id="edge3" class="edge">
<title>NormaliseBy&#45;&gt;Divide</title>
<path fill="none" stroke="black" d="M138.18,-143.7C138.18,-135.98 138.18,-126.71 138.18,-118.11"/>
<polygon fill="black" stroke="black" points="141.68,-118.1 138.18,-108.1 134.68,-118.1 141.68,-118.1"/>
</g>
<!-- Run -->
<g id="node2" class="node">
<title>Run</title>
<ellipse fill="khaki" stroke="black" cx="138.18" cy="-306" rx="28.7" ry="18"/>
<text text-anchor="middle" x="138.18" y="-302.3" font-family="Helvetica,sans-Serif" font-size="14.00">Run</text>
</g>
<!-- LoadAndMerge -->
<g id="node4" class="node">
<title>LoadAndMerge</title>
<path fill="lightskyblue" stroke="black" d="M186.68,-252C186.68,-252 89.68,-252 89.68,-252 83.68,-252 77.68,-246 77.68,-240 77.68,-240 77.68,-228 77.68,-228 77.68,-222 83.68,-216 89.68,-216 89.68,-216 186.68,-216 186.68,-216 192.68,-216 198.68,-222 198.68,-228 198.68,-228 198.68,-240 198.68,-240 198.68,-246 192.68,-252 186.68,-252"/>
<text text-anchor="middle" x="138.18" y="-230.3" font-family="Helvetica,sans-Serif" font-size="14.00">LoadAndMerge</text>
</g>
<!-- Run&#45;&gt;LoadAndMerge -->
<g id="edge1" class="edge">
<title>Run&#45;&gt;LoadAndMerge</title>
<path fill="none" stroke="black" d="M138.18,-287.7C138.18,-279.98 138.18,-270.71 138.18,-262.11"/>
<polygon fill="black" stroke="black" points="141.68,-262.1 138.18,-252.1 134.68,-262.1 141.68,-262.1"/>
</g>
<!-- OutputWorkspace -->
<g id="node3" class="node">
<title>OutputWorkspace</title>
<polygon fill="grey" stroke="black" points="276.53,-36 56.44,-36 -0.18,0 219.91,0 276.53,-36"/>
<text text-anchor="middle" x="138.18" y="-14.3" font-family="Times,serif" font-size="14.00">OutputWorkspace</text>
</g>
<!-- LoadAndMerge&#45;&gt;NormaliseBy -->
<g id="edge2" class="edge">
<title>LoadAndMerge&#45;&gt;NormaliseBy</title>
<path fill="none" stroke="black" d="M138.18,-215.7C138.18,-207.98 138.18,-198.71 138.18,-190.11"/>
<polygon fill="black" stroke="black" points="141.68,-190.1 138.18,-180.1 134.68,-190.1 141.68,-190.1"/>
</g>
<!-- Divide&#45;&gt;OutputWorkspace -->
<g id="edge4" class="edge">
<title>Divide&#45;&gt;OutputWorkspace</title>
<path fill="none" stroke="black" d="M138.18,-71.7C138.18,-63.98 138.18,-54.71 138.18,-46.11"/>
<polygon fill="black" stroke="black" points="141.68,-46.1 138.18,-36.1 134.68,-46.1 141.68,-46.1"/>
</g>
</g>
</svg>
