<?xml version="1.0" encoding="UTF-8" standalone="no"?>
<!DOCTYPE svg PUBLIC "-//W3C//DTD SVG 1.1//EN"
 "http://www.w3.org/Graphics/SVG/1.1/DTD/svg11.dtd">
<!-- Generated by graphviz version 2.47.2 (20210527.1257)
 -->
<!-- Title: Container Pages: 1 -->
<svg width="646pt" height="642pt"
 viewBox="0.00 0.00 646.14 642.00" xmlns="http://www.w3.org/2000/svg" xmlns:xlink="http://www.w3.org/1999/xlink">
<g id="graph0" class="graph" transform="scale(1 1) rotate(0) translate(4 638)">
<title>Container</title>
<polygon fill="white" stroke="transparent" points="-4,4 -4,-638 642.14,-638 642.14,4 -4,4"/>
<!-- NormaliseBy -->
<g id="node1" class="node">
<title>NormaliseBy</title>
<polygon fill="limegreen" stroke="black" points="551.74,-488 465.44,-470 551.74,-452 638.04,-470 551.74,-488"/>
<text text-anchor="middle" x="551.74" y="-466.3" font-family="Helvetica" font-size="14.00">NormaliseBy</text>
</g>
<!-- Divide -->
<g id="node8" class="node">
<title>Divide</title>
<path fill="lightskyblue" stroke="black" d="M566.74,-415C566.74,-415 536.74,-415 536.74,-415 530.74,-415 524.74,-409 524.74,-403 524.74,-403 524.74,-391 524.74,-391 524.74,-385 530.74,-379 536.74,-379 536.74,-379 566.74,-379 566.74,-379 572.74,-379 578.74,-385 578.74,-391 578.74,-391 578.74,-403 578.74,-403 578.74,-409 572.74,-415 566.74,-415"/>
<text text-anchor="middle" x="551.74" y="-393.3" font-family="Helvetica" font-size="14.00">Divide</text>
</g>
<!-- NormaliseBy&#45;&gt;Divide -->
<g id="edge3" class="edge">
<title>NormaliseBy&#45;&gt;Divide</title>
<path fill="none" stroke="black" d="M551.74,-451.81C551.74,-443.79 551.74,-434.05 551.74,-425.07"/>
<polygon fill="black" stroke="black" points="555.24,-425.03 551.74,-415.03 548.24,-425.03 555.24,-425.03"/>
</g>
<!-- Run -->
<g id="node2" class="node">
<title>Run</title>
<ellipse fill="khaki" stroke="black" cx="551.74" cy="-616" rx="27" ry="18"/>
<text text-anchor="middle" x="551.74" y="-612.3" font-family="Helvetica" font-size="14.00">Run</text>
</g>
<!-- LoadAndMerge -->
<g id="node7" class="node">
<title>LoadAndMerge</title>
<path fill="lightskyblue" stroke="black" d="M594.74,-561C594.74,-561 508.74,-561 508.74,-561 502.74,-561 496.74,-555 496.74,-549 496.74,-549 496.74,-537 496.74,-537 496.74,-531 502.74,-525 508.74,-525 508.74,-525 594.74,-525 594.74,-525 600.74,-525 606.74,-531 606.74,-537 606.74,-537 606.74,-549 606.74,-549 606.74,-555 600.74,-561 594.74,-561"/>
<text text-anchor="middle" x="551.74" y="-539.3" font-family="Helvetica" font-size="14.00">LoadAndMerge</text>
</g>
<!-- Run&#45;&gt;LoadAndMerge -->
<g id="edge1" class="edge">
<title>Run&#45;&gt;LoadAndMerge</title>
<path fill="none" stroke="black" d="M551.74,-597.81C551.74,-589.79 551.74,-580.05 551.74,-571.07"/>
<polygon fill="black" stroke="black" points="555.24,-571.03 551.74,-561.03 548.24,-571.03 555.24,-571.03"/>
</g>
<!-- TransmissionInputWorkspace -->
<g id="node3" class="node">
<title>TransmissionInputWorkspace</title>
<ellipse fill="khaki" stroke="black" cx="126.74" cy="-164" rx="126.98" ry="18"/>
<text text-anchor="middle" x="126.74" y="-160.3" font-family="Helvetica" font-size="14.00">TransmissionInputWorkspace</text>
</g>
<!-- ApplyTransmissionCorrection -->
<g id="node11" class="node">
<title>ApplyTransmissionCorrection</title>
<path fill="lightskyblue" stroke="black" d="M223.74,-109C223.74,-109 53.74,-109 53.74,-109 47.74,-109 41.74,-103 41.74,-97 41.74,-97 41.74,-85 41.74,-85 41.74,-79 47.74,-73 53.74,-73 53.74,-73 223.74,-73 223.74,-73 229.74,-73 235.74,-79 235.74,-85 235.74,-85 235.74,-97 235.74,-97 235.74,-103 229.74,-109 223.74,-109"/>
<text text-anchor="middle" x="138.74" y="-87.3" font-family="Helvetica" font-size="14.00">ApplyTransmissionCorrection</text>
</g>
<!-- TransmissionInputWorkspace&#45;&gt;ApplyTransmissionCorrection -->
<g id="edge10" class="edge">
<title>TransmissionInputWorkspace&#45;&gt;ApplyTransmissionCorrection</title>
<path fill="none" stroke="black" d="M129.64,-145.81C131,-137.79 132.65,-128.05 134.16,-119.07"/>
<polygon fill="black" stroke="black" points="137.65,-119.47 135.86,-109.03 130.74,-118.31 137.65,-119.47"/>
</g>
<!-- BeamInputWorkspace -->
<g id="node4" class="node">
<title>BeamInputWorkspace</title>
<ellipse fill="khaki" stroke="black" cx="299.74" cy="-324" rx="97.48" ry="18"/>
<text text-anchor="middle" x="299.74" y="-320.3" font-family="Helvetica" font-size="14.00">BeamInputWorkspace</text>
</g>
<!-- MoveInstrumentComponent -->
<g id="node10" class="node">
<title>MoveInstrumentComponent</title>
<path fill="lightskyblue" stroke="black" d="M392.24,-269C392.24,-269 231.24,-269 231.24,-269 225.24,-269 219.24,-263 219.24,-257 219.24,-257 219.24,-245 219.24,-245 219.24,-239 225.24,-233 231.24,-233 231.24,-233 392.24,-233 392.24,-233 398.24,-233 404.24,-239 404.24,-245 404.24,-245 404.24,-257 404.24,-257 404.24,-263 398.24,-269 392.24,-269"/>
<text text-anchor="middle" x="311.74" y="-247.3" font-family="Helvetica" font-size="14.00">MoveInstrumentComponent</text>
</g>
<!-- BeamInputWorkspace&#45;&gt;MoveInstrumentComponent -->
<g id="edge7" class="edge">
<title>BeamInputWorkspace&#45;&gt;MoveInstrumentComponent</title>
<path fill="none" stroke="black" d="M302.64,-305.81C304,-297.79 305.65,-288.05 307.16,-279.07"/>
<polygon fill="black" stroke="black" points="310.65,-279.47 308.86,-269.03 303.74,-278.31 310.65,-279.47"/>
</g>
<!-- AbsorberInputWorkspace -->
<g id="node5" class="node">
<title>AbsorberInputWorkspace</title>
<ellipse fill="khaki" stroke="black" cx="396.74" cy="-397" rx="109.68" ry="18"/>
<text text-anchor="middle" x="396.74" y="-393.3" font-family="Helvetica" font-size="14.00">AbsorberInputWorkspace</text>
</g>
<!-- Minus -->
<g id="node9" class="node">
<title>Minus</title>
<path fill="lightskyblue" stroke="black" d="M456.74,-342C456.74,-342 426.74,-342 426.74,-342 420.74,-342 414.74,-336 414.74,-330 414.74,-330 414.74,-318 414.74,-318 414.74,-312 420.74,-306 426.74,-306 426.74,-306 456.74,-306 456.74,-306 462.74,-306 468.74,-312 468.74,-318 468.74,-318 468.74,-330 468.74,-330 468.74,-336 462.74,-342 456.74,-342"/>
<text text-anchor="middle" x="441.74" y="-320.3" font-family="Helvetica" font-size="14.00">Minus</text>
</g>
<!-- AbsorberInputWorkspace&#45;&gt;Minus -->
<g id="edge5" class="edge">
<title>AbsorberInputWorkspace&#45;&gt;Minus</title>
<path fill="none" stroke="black" d="M407.63,-378.81C412.99,-370.35 419.57,-359.98 425.51,-350.61"/>
<polygon fill="black" stroke="black" points="428.55,-352.35 430.95,-342.03 422.64,-348.6 428.55,-352.35"/>
</g>
<!-- OutputWorkspace -->
<g id="node6" class="node">
<title>OutputWorkspace</title>
<polygon fill="grey" stroke="black" points="272.97,-36 59.44,-36 4.51,0 218.04,0 272.97,-36"/>
<text text-anchor="middle" x="138.74" y="-14.3" font-family="Times-Roman" font-size="14.00">OutputWorkspace</text>
</g>
<!-- LoadAndMerge&#45;&gt;NormaliseBy -->
<g id="edge2" class="edge">
<title>LoadAndMerge&#45;&gt;NormaliseBy</title>
<path fill="none" stroke="black" d="M551.74,-524.81C551.74,-516.79 551.74,-507.05 551.74,-498.07"/>
<polygon fill="black" stroke="black" points="555.24,-498.03 551.74,-488.03 548.24,-498.03 555.24,-498.03"/>
</g>
<!-- Divide&#45;&gt;Minus -->
<g id="edge4" class="edge">
<title>Divide&#45;&gt;Minus</title>
<path fill="none" stroke="black" d="M525.39,-378.99C510.8,-369.58 492.49,-357.76 476.71,-347.57"/>
<polygon fill="black" stroke="black" points="478.55,-344.6 468.25,-342.11 474.76,-350.48 478.55,-344.6"/>
</g>
<!-- Minus&#45;&gt;MoveInstrumentComponent -->
<g id="edge6" class="edge">
<title>Minus&#45;&gt;MoveInstrumentComponent</title>
<path fill="none" stroke="black" d="M414.49,-308.12C396.41,-298.24 372.37,-285.11 352.09,-274.04"/>
<polygon fill="black" stroke="black" points="353.52,-270.83 343.07,-269.11 350.17,-276.98 353.52,-270.83"/>
</g>
<!-- SolidAngle -->
<g id="node12" class="node">
<title>SolidAngle</title>
<path fill="lightskyblue" stroke="black" d="M340.24,-182C340.24,-182 283.24,-182 283.24,-182 277.24,-182 271.24,-176 271.24,-170 271.24,-170 271.24,-158 271.24,-158 271.24,-152 277.24,-146 283.24,-146 283.24,-146 340.24,-146 340.24,-146 346.24,-146 352.24,-152 352.24,-158 352.24,-158 352.24,-170 352.24,-170 352.24,-176 346.24,-182 340.24,-182"/>
<text text-anchor="middle" x="311.74" y="-160.3" font-family="Helvetica" font-size="14.00">SolidAngle</text>
</g>
<!-- MoveInstrumentComponent&#45;&gt;SolidAngle -->
<g id="edge8" class="edge">
<title>MoveInstrumentComponent&#45;&gt;SolidAngle</title>
<path fill="none" stroke="black" d="M311.74,-232.8C311.74,-221.16 311.74,-205.55 311.74,-192.24"/>
<polygon fill="black" stroke="black" points="315.24,-192.18 311.74,-182.18 308.24,-192.18 315.24,-192.18"/>
<text text-anchor="middle" x="330.74" y="-203.8" font-family="Helvetica" font-size="14.00">Divide</text>
</g>
<!-- ApplyTransmissionCorrection&#45;&gt;OutputWorkspace -->
<g id="edge11" class="edge">
<title>ApplyTransmissionCorrection&#45;&gt;OutputWorkspace</title>
<path fill="none" stroke="black" d="M138.74,-72.81C138.74,-64.79 138.74,-55.05 138.74,-46.07"/>
<polygon fill="black" stroke="black" points="142.24,-46.03 138.74,-36.03 135.24,-46.03 142.24,-46.03"/>
</g>
<!-- SolidAngle&#45;&gt;ApplyTransmissionCorrection -->
<g id="edge9" class="edge">
<title>SolidAngle&#45;&gt;ApplyTransmissionCorrection</title>
<path fill="none" stroke="black" d="M271.18,-146.35C246.81,-136.35 215.58,-123.54 189.57,-112.86"/>
<polygon fill="black" stroke="black" points="190.83,-109.59 180.25,-109.04 188.17,-116.07 190.83,-109.59"/>
</g>
</g>
</svg>
