<?xml version="1.0" encoding="UTF-8" standalone="no"?>
<!DOCTYPE svg PUBLIC "-//W3C//DTD SVG 1.1//EN"
 "http://www.w3.org/Graphics/SVG/1.1/DTD/svg11.dtd">
<!-- Generated by graphviz version 2.47.2 (20210527.1257)
 -->
<!-- Title: IndirectFlatePlateAbsorption Pages: 1 -->
<svg width="1665pt" height="1743pt"
 viewBox="0.00 0.00 1665.09 1743.00" xmlns="http://www.w3.org/2000/svg" xmlns:xlink="http://www.w3.org/1999/xlink">
<g id="graph0" class="graph" transform="scale(1 1) rotate(0) translate(4 1739)">
<title>IndirectFlatePlateAbsorption</title>
<polygon fill="white" stroke="transparent" points="-4,4 -4,-1739 1661.09,-1739 1661.09,4 -4,4"/>
<text text-anchor="middle" x="828.55" y="-1719.8" font-family="Helvetica" font-size="14.00">IndirectFlatePlateAbsorption Flowchart</text>
<!-- SampleWorkspace1 -->
<g id="node1" class="node">
<title>SampleWorkspace1</title>
<ellipse fill="khaki" stroke="black" cx="1418.09" cy="-1694" rx="85.29" ry="18"/>
<text text-anchor="middle" x="1418.09" y="-1690.3" font-family="Helvetica" font-size="14.00">SampleWorkspace</text>
</g>
<!-- GetEFixed -->
<g id="node23" class="node">
<title>GetEFixed</title>
<path fill="lightskyblue" stroke="black" d="M1446.59,-1639C1446.59,-1639 1389.59,-1639 1389.59,-1639 1383.59,-1639 1377.59,-1633 1377.59,-1627 1377.59,-1627 1377.59,-1615 1377.59,-1615 1377.59,-1609 1383.59,-1603 1389.59,-1603 1389.59,-1603 1446.59,-1603 1446.59,-1603 1452.59,-1603 1458.59,-1609 1458.59,-1615 1458.59,-1615 1458.59,-1627 1458.59,-1627 1458.59,-1633 1452.59,-1639 1446.59,-1639"/>
<text text-anchor="middle" x="1418.09" y="-1617.3" font-family="Helvetica" font-size="14.00">GetEFixed</text>
</g>
<!-- SampleWorkspace1&#45;&gt;GetEFixed -->
<g id="edge1" class="edge">
<title>SampleWorkspace1&#45;&gt;GetEFixed</title>
<path fill="none" stroke="black" d="M1418.09,-1675.81C1418.09,-1667.79 1418.09,-1658.05 1418.09,-1649.07"/>
<polygon fill="black" stroke="black" points="1421.59,-1649.03 1418.09,-1639.03 1414.59,-1649.03 1421.59,-1649.03"/>
</g>
<!-- SampleWorkspace2 -->
<g id="node2" class="node">
<title>SampleWorkspace2</title>
<ellipse fill="khaki" stroke="black" cx="437.09" cy="-1009" rx="85.29" ry="18"/>
<text text-anchor="middle" x="437.09" y="-1005.3" font-family="Helvetica" font-size="14.00">SampleWorkspace</text>
</g>
<!-- Divide1 -->
<g id="node45" class="node">
<title>Divide1</title>
<ellipse fill="lightgrey" stroke="black" cx="636.09" cy="-936" rx="40.09" ry="18"/>
<text text-anchor="middle" x="636.09" y="-932.3" font-family="Helvetica" font-size="14.00">Divide1</text>
</g>
<!-- SampleWorkspace2&#45;&gt;Divide1 -->
<g id="edge23" class="edge">
<title>SampleWorkspace2&#45;&gt;Divide1</title>
<path fill="none" stroke="black" d="M478.81,-993.12C513.25,-980.83 561.82,-963.5 595.85,-951.36"/>
<polygon fill="black" stroke="black" points="597.23,-954.58 605.47,-947.92 594.88,-947.99 597.23,-954.58"/>
</g>
<!-- SampleChemicalFormula -->
<g id="node3" class="node">
<title>SampleChemicalFormula</title>
<ellipse fill="khaki" stroke="black" cx="281.09" cy="-1461" rx="110.48" ry="18"/>
<text text-anchor="middle" x="281.09" y="-1457.3" font-family="Helvetica" font-size="14.00">SampleChemicalFormula</text>
</g>
<!-- SetSample -->
<g id="node30" class="node">
<title>SetSample</title>
<path fill="lightskyblue" stroke="black" d="M836.59,-1406C836.59,-1406 777.59,-1406 777.59,-1406 771.59,-1406 765.59,-1400 765.59,-1394 765.59,-1394 765.59,-1382 765.59,-1382 765.59,-1376 771.59,-1370 777.59,-1370 777.59,-1370 836.59,-1370 836.59,-1370 842.59,-1370 848.59,-1376 848.59,-1382 848.59,-1382 848.59,-1394 848.59,-1394 848.59,-1400 842.59,-1406 836.59,-1406"/>
<text text-anchor="middle" x="807.09" y="-1384.3" font-family="Helvetica" font-size="14.00">SetSample</text>
</g>
<!-- SampleChemicalFormula&#45;&gt;SetSample -->
<g id="edge11" class="edge">
<title>SampleChemicalFormula&#45;&gt;SetSample</title>
<path fill="none" stroke="black" d="M360.11,-1448.38C373.77,-1446.49 387.83,-1444.63 401.09,-1443 555.74,-1424.02 599.9,-1439.38 755.62,-1406.06"/>
<polygon fill="black" stroke="black" points="756.52,-1409.45 765.55,-1403.9 755.03,-1402.61 756.52,-1409.45"/>
</g>
<!-- SampleDensity -->
<g id="node4" class="node">
<title>SampleDensity</title>
<ellipse fill="khaki" stroke="black" cx="480.09" cy="-1461" rx="70.39" ry="18"/>
<text text-anchor="middle" x="480.09" y="-1457.3" font-family="Helvetica" font-size="14.00">SampleDensity</text>
</g>
<!-- SampleDensity&#45;&gt;SetSample -->
<g id="edge12" class="edge">
<title>SampleDensity&#45;&gt;SetSample</title>
<path fill="none" stroke="black" d="M531.47,-1448.73C540.66,-1446.78 550.15,-1444.8 559.09,-1443 643.78,-1425.98 668.75,-1428.48 755.73,-1406.18"/>
<polygon fill="black" stroke="black" points="756.69,-1409.55 765.49,-1403.64 754.93,-1402.77 756.69,-1409.55"/>
</g>
<!-- SampleHeight -->
<g id="node5" class="node">
<title>SampleHeight</title>
<ellipse fill="khaki" stroke="black" cx="634.09" cy="-1461" rx="66.09" ry="18"/>
<text text-anchor="middle" x="634.09" y="-1457.3" font-family="Helvetica" font-size="14.00">SampleHeight</text>
</g>
<!-- SampleHeight&#45;&gt;SetSample -->
<g id="edge9" class="edge">
<title>SampleHeight&#45;&gt;SetSample</title>
<path fill="none" stroke="black" d="M669.1,-1445.63C694.01,-1435.41 727.87,-1421.51 755.81,-1410.04"/>
<polygon fill="black" stroke="black" points="757.51,-1413.13 765.43,-1406.1 754.85,-1406.66 757.51,-1413.13"/>
</g>
<!-- SampleInnerRadius -->
<g id="node6" class="node">
<title>SampleInnerRadius</title>
<ellipse fill="khaki" stroke="black" cx="807.09" cy="-1461" rx="88.28" ry="18"/>
<text text-anchor="middle" x="807.09" y="-1457.3" font-family="Helvetica" font-size="14.00">SampleInnerRadius</text>
</g>
<!-- SampleInnerRadius&#45;&gt;SetSample -->
<g id="edge7" class="edge">
<title>SampleInnerRadius&#45;&gt;SetSample</title>
<path fill="none" stroke="black" d="M807.09,-1442.81C807.09,-1434.79 807.09,-1425.05 807.09,-1416.07"/>
<polygon fill="black" stroke="black" points="810.59,-1416.03 807.09,-1406.03 803.59,-1416.03 810.59,-1416.03"/>
</g>
<!-- SampleOuterRadius -->
<g id="node7" class="node">
<title>SampleOuterRadius</title>
<ellipse fill="khaki" stroke="black" cx="1004.09" cy="-1461" rx="90.98" ry="18"/>
<text text-anchor="middle" x="1004.09" y="-1457.3" font-family="Helvetica" font-size="14.00">SampleOuterRadius</text>
</g>
<!-- SampleOuterRadius&#45;&gt;SetSample -->
<g id="edge8" class="edge">
<title>SampleOuterRadius&#45;&gt;SetSample</title>
<path fill="none" stroke="black" d="M962.31,-1444.94C932.02,-1434.02 890.86,-1419.19 858.54,-1407.54"/>
<polygon fill="black" stroke="black" points="859.41,-1404.13 848.81,-1404.04 857.03,-1410.72 859.41,-1404.13"/>
</g>
<!-- SampleAngle -->
<g id="node8" class="node">
<title>SampleAngle</title>
<ellipse fill="khaki" stroke="black" cx="1177.09" cy="-1461" rx="63.89" ry="18"/>
<text text-anchor="middle" x="1177.09" y="-1457.3" font-family="Helvetica" font-size="14.00">SampleAngle</text>
</g>
<!-- SampleAngle&#45;&gt;SetSample -->
<g id="edge10" class="edge">
<title>SampleAngle&#45;&gt;SetSample</title>
<path fill="none" stroke="black" d="M1130.05,-1448.69C1121.43,-1446.72 1112.5,-1444.74 1104.09,-1443 1018.47,-1425.26 918.3,-1407.7 858.91,-1397.63"/>
<polygon fill="black" stroke="black" points="859.47,-1394.17 849.03,-1395.96 858.3,-1401.08 859.47,-1394.17"/>
</g>
<!-- BeamHeight -->
<g id="node9" class="node">
<title>BeamHeight</title>
<ellipse fill="khaki" stroke="black" cx="1160.09" cy="-1534" rx="59.59" ry="18"/>
<text text-anchor="middle" x="1160.09" y="-1530.3" font-family="Helvetica" font-size="14.00">BeamHeight</text>
</g>
<!-- SetBeam -->
<g id="node27" class="node">
<title>SetBeam</title>
<path fill="lightskyblue" stroke="black" d="M1319.59,-1479C1319.59,-1479 1270.59,-1479 1270.59,-1479 1264.59,-1479 1258.59,-1473 1258.59,-1467 1258.59,-1467 1258.59,-1455 1258.59,-1455 1258.59,-1449 1264.59,-1443 1270.59,-1443 1270.59,-1443 1319.59,-1443 1319.59,-1443 1325.59,-1443 1331.59,-1449 1331.59,-1455 1331.59,-1455 1331.59,-1467 1331.59,-1467 1331.59,-1473 1325.59,-1479 1319.59,-1479"/>
<text text-anchor="middle" x="1295.09" y="-1457.3" font-family="Helvetica" font-size="14.00">SetBeam</text>
</g>
<!-- BeamHeight&#45;&gt;SetBeam -->
<g id="edge4" class="edge">
<title>BeamHeight&#45;&gt;SetBeam</title>
<path fill="none" stroke="black" d="M1188.39,-1518.12C1207.25,-1508.2 1232.36,-1494.99 1253.48,-1483.89"/>
<polygon fill="black" stroke="black" points="1255.34,-1486.86 1262.56,-1479.11 1252.08,-1480.67 1255.34,-1486.86"/>
</g>
<!-- BeamWidth -->
<g id="node10" class="node">
<title>BeamWidth</title>
<ellipse fill="khaki" stroke="black" cx="1295.09" cy="-1534" rx="57.39" ry="18"/>
<text text-anchor="middle" x="1295.09" y="-1530.3" font-family="Helvetica" font-size="14.00">BeamWidth</text>
</g>
<!-- BeamWidth&#45;&gt;SetBeam -->
<g id="edge5" class="edge">
<title>BeamWidth&#45;&gt;SetBeam</title>
<path fill="none" stroke="black" d="M1295.09,-1515.81C1295.09,-1507.79 1295.09,-1498.05 1295.09,-1489.07"/>
<polygon fill="black" stroke="black" points="1298.59,-1489.03 1295.09,-1479.03 1291.59,-1489.03 1298.59,-1489.03"/>
</g>
<!-- Events -->
<g id="node11" class="node">
<title>Events</title>
<ellipse fill="khaki" stroke="black" cx="487.09" cy="-1388" rx="37.89" ry="18"/>
<text text-anchor="middle" x="487.09" y="-1384.3" font-family="Helvetica" font-size="14.00">Events</text>
</g>
<!-- MonteCarlo -->
<g id="node33" class="node">
<title>MonteCarlo</title>
<path fill="lightskyblue" stroke="black" d="M676.59,-1333C676.59,-1333 613.59,-1333 613.59,-1333 607.59,-1333 601.59,-1327 601.59,-1321 601.59,-1321 601.59,-1309 601.59,-1309 601.59,-1303 607.59,-1297 613.59,-1297 613.59,-1297 676.59,-1297 676.59,-1297 682.59,-1297 688.59,-1303 688.59,-1309 688.59,-1309 688.59,-1321 688.59,-1321 688.59,-1327 682.59,-1333 676.59,-1333"/>
<text text-anchor="middle" x="645.09" y="-1311.3" font-family="Helvetica" font-size="14.00">MonteCarlo</text>
</g>
<!-- Events&#45;&gt;MonteCarlo -->
<g id="edge14" class="edge">
<title>Events&#45;&gt;MonteCarlo</title>
<path fill="none" stroke="black" d="M513.54,-1375.12C536.41,-1364.84 570.03,-1349.73 597.56,-1337.36"/>
<polygon fill="black" stroke="black" points="599.32,-1340.4 607.01,-1333.11 596.45,-1334.02 599.32,-1340.4"/>
</g>
<!-- NumberOfWavelengths -->
<g id="node12" class="node">
<title>NumberOfWavelengths</title>
<ellipse fill="khaki" stroke="black" cx="645.09" cy="-1388" rx="102.88" ry="18"/>
<text text-anchor="middle" x="645.09" y="-1384.3" font-family="Helvetica" font-size="14.00">NumberOfWavelengths</text>
</g>
<!-- NumberOfWavelengths&#45;&gt;MonteCarlo -->
<g id="edge15" class="edge">
<title>NumberOfWavelengths&#45;&gt;MonteCarlo</title>
<path fill="none" stroke="black" d="M645.09,-1369.81C645.09,-1361.79 645.09,-1352.05 645.09,-1343.07"/>
<polygon fill="black" stroke="black" points="648.59,-1343.03 645.09,-1333.03 641.59,-1343.03 648.59,-1343.03"/>
</g>
<!-- AbsWorkspace1 -->
<g id="node13" class="node">
<title>AbsWorkspace1</title>
<ellipse fill="khaki" stroke="black" cx="633.09" cy="-1242" rx="96.68" ry="18"/>
<text text-anchor="middle" x="633.09" y="-1238.3" font-family="Helvetica" font-size="14.00">AbsorptionWorkspace</text>
</g>
<!-- AbsWorkspace2 -->
<g id="node14" class="node">
<title>AbsWorkspace2</title>
<ellipse fill="khaki" stroke="black" cx="637.09" cy="-1009" rx="96.68" ry="18"/>
<text text-anchor="middle" x="637.09" y="-1005.3" font-family="Helvetica" font-size="14.00">AbsorptionWorkspace</text>
</g>
<!-- AbsWorkspace2&#45;&gt;Divide1 -->
<g id="edge24" class="edge">
<title>AbsWorkspace2&#45;&gt;Divide1</title>
<path fill="none" stroke="black" d="M636.85,-990.81C636.74,-982.79 636.6,-973.05 636.47,-964.07"/>
<polygon fill="black" stroke="black" points="639.97,-963.98 636.33,-954.03 632.97,-964.08 639.97,-963.98"/>
</g>
<!-- CanAbsorptionWorkspace -->
<g id="node15" class="node">
<title>CanAbsorptionWorkspace</title>
<ellipse fill="khaki" stroke="black" cx="585.09" cy="-397" rx="112.38" ry="18"/>
<text text-anchor="middle" x="585.09" y="-393.3" font-family="Helvetica" font-size="14.00">CanAbsorptionWorkspace</text>
</g>
<!-- CanWorkspace1 -->
<g id="node16" class="node">
<title>CanWorkspace1</title>
<ellipse fill="khaki" stroke="black" cx="400.09" cy="-776" rx="75.29" ry="18"/>
<text text-anchor="middle" x="400.09" y="-772.3" font-family="Helvetica" font-size="14.00">CanWorkspace1</text>
</g>
<!-- SetBeam1 -->
<g id="node28" class="node">
<title>SetBeam1</title>
<path fill="lightskyblue" stroke="black" d="M227.59,-707C227.59,-707 178.59,-707 178.59,-707 172.59,-707 166.59,-701 166.59,-695 166.59,-695 166.59,-683 166.59,-683 166.59,-677 172.59,-671 178.59,-671 178.59,-671 227.59,-671 227.59,-671 233.59,-671 239.59,-677 239.59,-683 239.59,-683 239.59,-695 239.59,-695 239.59,-701 233.59,-707 227.59,-707"/>
<text text-anchor="middle" x="203.09" y="-685.3" font-family="Helvetica" font-size="14.00">SetBeam</text>
</g>
<!-- CanWorkspace1&#45;&gt;SetBeam1 -->
<g id="edge27" class="edge">
<title>CanWorkspace1&#45;&gt;SetBeam1</title>
<path fill="none" stroke="black" d="M365.33,-760C332.98,-746.04 284.57,-725.15 249.04,-709.83"/>
<polygon fill="black" stroke="black" points="250.42,-706.61 239.85,-705.86 247.65,-713.04 250.42,-706.61"/>
</g>
<!-- CanWorkspace2 -->
<g id="node17" class="node">
<title>CanWorkspace2</title>
<ellipse fill="khaki" stroke="black" cx="635.09" cy="-776" rx="75.29" ry="18"/>
<text text-anchor="middle" x="635.09" y="-772.3" font-family="Helvetica" font-size="14.00">CanWorkspace2</text>
</g>
<!-- SetBeam2 -->
<g id="node29" class="node">
<title>SetBeam2</title>
<path fill="lightskyblue" stroke="black" d="M659.59,-707C659.59,-707 610.59,-707 610.59,-707 604.59,-707 598.59,-701 598.59,-695 598.59,-695 598.59,-683 598.59,-683 598.59,-677 604.59,-671 610.59,-671 610.59,-671 659.59,-671 659.59,-671 665.59,-671 671.59,-677 671.59,-683 671.59,-683 671.59,-695 671.59,-695 671.59,-701 665.59,-707 659.59,-707"/>
<text text-anchor="middle" x="635.09" y="-685.3" font-family="Helvetica" font-size="14.00">SetBeam</text>
</g>
<!-- CanWorkspace2&#45;&gt;SetBeam2 -->
<g id="edge35" class="edge">
<title>CanWorkspace2&#45;&gt;SetBeam2</title>
<path fill="none" stroke="black" d="M635.09,-757.8C635.09,-746.16 635.09,-730.55 635.09,-717.24"/>
<polygon fill="black" stroke="black" points="638.59,-717.18 635.09,-707.18 631.59,-717.18 638.59,-717.18"/>
</g>
<!-- CanChemicalFormula -->
<g id="node18" class="node">
<title>CanChemicalFormula</title>
<ellipse fill="khaki" stroke="black" cx="354.09" cy="-689" rx="96.68" ry="18"/>
<text text-anchor="middle" x="354.09" y="-685.3" font-family="Helvetica" font-size="14.00">CanChemicalFormula</text>
</g>
<!-- SetSample1 -->
<g id="node31" class="node">
<title>SetSample1</title>
<path fill="lightskyblue" stroke="black" d="M383.59,-634C383.59,-634 324.59,-634 324.59,-634 318.59,-634 312.59,-628 312.59,-622 312.59,-622 312.59,-610 312.59,-610 312.59,-604 318.59,-598 324.59,-598 324.59,-598 383.59,-598 383.59,-598 389.59,-598 395.59,-604 395.59,-610 395.59,-610 395.59,-622 395.59,-622 395.59,-628 389.59,-634 383.59,-634"/>
<text text-anchor="middle" x="354.09" y="-612.3" font-family="Helvetica" font-size="14.00">SetSample</text>
</g>
<!-- CanChemicalFormula&#45;&gt;SetSample1 -->
<g id="edge29" class="edge">
<title>CanChemicalFormula&#45;&gt;SetSample1</title>
<path fill="none" stroke="black" d="M354.09,-670.81C354.09,-662.79 354.09,-653.05 354.09,-644.07"/>
<polygon fill="black" stroke="black" points="357.59,-644.03 354.09,-634.03 350.59,-644.03 357.59,-644.03"/>
</g>
<!-- SetSample2 -->
<g id="node32" class="node">
<title>SetSample2</title>
<path fill="lightskyblue" stroke="black" d="M614.59,-634C614.59,-634 555.59,-634 555.59,-634 549.59,-634 543.59,-628 543.59,-622 543.59,-622 543.59,-610 543.59,-610 543.59,-604 549.59,-598 555.59,-598 555.59,-598 614.59,-598 614.59,-598 620.59,-598 626.59,-604 626.59,-610 626.59,-610 626.59,-622 626.59,-622 626.59,-628 620.59,-634 614.59,-634"/>
<text text-anchor="middle" x="585.09" y="-612.3" font-family="Helvetica" font-size="14.00">SetSample</text>
</g>
<!-- CanChemicalFormula&#45;&gt;SetSample2 -->
<g id="edge38" class="edge">
<title>CanChemicalFormula&#45;&gt;SetSample2</title>
<path fill="none" stroke="black" d="M401.96,-673.29C440.45,-661.46 494.43,-644.87 533.81,-632.76"/>
<polygon fill="black" stroke="black" points="534.96,-636.07 543.49,-629.79 532.9,-629.38 534.96,-636.07"/>
</g>
<!-- CanDensity -->
<g id="node19" class="node">
<title>CanDensity</title>
<ellipse fill="khaki" stroke="black" cx="525.09" cy="-689" rx="55.79" ry="18"/>
<text text-anchor="middle" x="525.09" y="-685.3" font-family="Helvetica" font-size="14.00">CanDensity</text>
</g>
<!-- CanDensity&#45;&gt;SetSample1 -->
<g id="edge30" class="edge">
<title>CanDensity&#45;&gt;SetSample1</title>
<path fill="none" stroke="black" d="M492.12,-674.31C467.27,-663.99 432.76,-649.66 404.46,-637.91"/>
<polygon fill="black" stroke="black" points="405.7,-634.64 395.12,-634.03 403.01,-641.1 405.7,-634.64"/>
</g>
<!-- CanDensity&#45;&gt;SetSample2 -->
<g id="edge39" class="edge">
<title>CanDensity&#45;&gt;SetSample2</title>
<path fill="none" stroke="black" d="M539.01,-671.53C546.37,-662.83 555.55,-651.95 563.79,-642.21"/>
<polygon fill="black" stroke="black" points="566.63,-644.27 570.42,-634.37 561.29,-639.75 566.63,-644.27"/>
</g>
<!-- CanInnerRadius -->
<g id="node20" class="node">
<title>CanInnerRadius</title>
<ellipse fill="khaki" stroke="black" cx="74.09" cy="-689" rx="74.19" ry="18"/>
<text text-anchor="middle" x="74.09" y="-685.3" font-family="Helvetica" font-size="14.00">CanInnerRadius</text>
</g>
<!-- CanInnerRadius&#45;&gt;SetSample1 -->
<g id="edge31" class="edge">
<title>CanInnerRadius&#45;&gt;SetSample1</title>
<path fill="none" stroke="black" d="M123.51,-675.47C173.84,-662.71 251.56,-643 302.63,-630.05"/>
<polygon fill="black" stroke="black" points="303.64,-633.41 312.47,-627.55 301.92,-626.62 303.64,-633.41"/>
</g>
<!-- CanOuterRadius -->
<g id="node21" class="node">
<title>CanOuterRadius</title>
<ellipse fill="khaki" stroke="black" cx="766.09" cy="-689" rx="76.89" ry="18"/>
<text text-anchor="middle" x="766.09" y="-685.3" font-family="Helvetica" font-size="14.00">CanOuterRadius</text>
</g>
<!-- CanOuterRadius&#45;&gt;SetSample2 -->
<g id="edge37" class="edge">
<title>CanOuterRadius&#45;&gt;SetSample2</title>
<path fill="none" stroke="black" d="M728.59,-673.29C701.89,-662.82 665.69,-648.61 636.33,-637.1"/>
<polygon fill="black" stroke="black" points="637.24,-633.7 626.66,-633.3 634.69,-640.21 637.24,-633.7"/>
</g>
<!-- OutputWorkspace -->
<g id="node22" class="node">
<title>OutputWorkspace</title>
<ellipse fill="khaki" stroke="black" cx="840.09" cy="-18" rx="81.49" ry="18"/>
<text text-anchor="middle" x="840.09" y="-14.3" font-family="Helvetica" font-size="14.00">OutputWorkspace</text>
</g>
<!-- ConvertUnits1 -->
<g id="node24" class="node">
<title>ConvertUnits1</title>
<path fill="lightskyblue" stroke="black" d="M1453.59,-1552C1453.59,-1552 1382.59,-1552 1382.59,-1552 1376.59,-1552 1370.59,-1546 1370.59,-1540 1370.59,-1540 1370.59,-1528 1370.59,-1528 1370.59,-1522 1376.59,-1516 1382.59,-1516 1382.59,-1516 1453.59,-1516 1453.59,-1516 1459.59,-1516 1465.59,-1522 1465.59,-1528 1465.59,-1528 1465.59,-1540 1465.59,-1540 1465.59,-1546 1459.59,-1552 1453.59,-1552"/>
<text text-anchor="middle" x="1418.09" y="-1530.3" font-family="Helvetica" font-size="14.00">ConvertUnits</text>
</g>
<!-- GetEFixed&#45;&gt;ConvertUnits1 -->
<g id="edge2" class="edge">
<title>GetEFixed&#45;&gt;ConvertUnits1</title>
<path fill="none" stroke="black" d="M1418.09,-1602.8C1418.09,-1591.16 1418.09,-1575.55 1418.09,-1562.24"/>
<polygon fill="black" stroke="black" points="1421.59,-1562.18 1418.09,-1552.18 1414.59,-1562.18 1421.59,-1562.18"/>
<text text-anchor="middle" x="1537.59" y="-1573.8" font-family="Helvetica" font-size="14.00">Convert input workspace to Wavelength</text>
</g>
<!-- ConvertUnits1&#45;&gt;SetBeam -->
<g id="edge3" class="edge">
<title>ConvertUnits1&#45;&gt;SetBeam</title>
<path fill="none" stroke="black" d="M1388.63,-1515.99C1372.17,-1506.49 1351.46,-1494.54 1333.71,-1484.29"/>
<polygon fill="black" stroke="black" points="1335.15,-1481.08 1324.74,-1479.11 1331.65,-1487.14 1335.15,-1481.08"/>
</g>
<!-- ConvertUnits2 -->
<g id="node25" class="node">
<title>ConvertUnits2</title>
<path fill="lightskyblue" stroke="black" d="M876.59,-1173C876.59,-1173 805.59,-1173 805.59,-1173 799.59,-1173 793.59,-1167 793.59,-1161 793.59,-1161 793.59,-1149 793.59,-1149 793.59,-1143 799.59,-1137 805.59,-1137 805.59,-1137 876.59,-1137 876.59,-1137 882.59,-1137 888.59,-1143 888.59,-1149 888.59,-1149 888.59,-1161 888.59,-1161 888.59,-1167 882.59,-1173 876.59,-1173"/>
<text text-anchor="middle" x="841.09" y="-1151.3" font-family="Helvetica" font-size="14.00">ConvertUnits</text>
</g>
<!-- Scale -->
<g id="node36" class="node">
<title>Scale</title>
<path fill="lightskyblue" stroke="black" d="M801.09,-1100C801.09,-1100 771.09,-1100 771.09,-1100 765.09,-1100 759.09,-1094 759.09,-1088 759.09,-1088 759.09,-1076 759.09,-1076 759.09,-1070 765.09,-1064 771.09,-1064 771.09,-1064 801.09,-1064 801.09,-1064 807.09,-1064 813.09,-1070 813.09,-1076 813.09,-1076 813.09,-1088 813.09,-1088 813.09,-1094 807.09,-1100 801.09,-1100"/>
<text text-anchor="middle" x="786.09" y="-1078.3" font-family="Helvetica" font-size="14.00">Scale</text>
</g>
<!-- ConvertUnits2&#45;&gt;Scale -->
<g id="edge19" class="edge">
<title>ConvertUnits2&#45;&gt;Scale</title>
<path fill="none" stroke="black" d="M827.78,-1136.81C821.09,-1128.18 812.86,-1117.56 805.49,-1108.03"/>
<polygon fill="black" stroke="black" points="808.18,-1105.79 799.28,-1100.03 802.64,-1110.08 808.18,-1105.79"/>
</g>
<!-- Clone -->
<g id="node44" class="node">
<title>Clone</title>
<ellipse fill="lightgrey" stroke="black" cx="786.09" cy="-1009" rx="33.6" ry="18"/>
<text text-anchor="middle" x="786.09" y="-1005.3" font-family="Helvetica" font-size="14.00">Clone</text>
</g>
<!-- ConvertUnits2&#45;&gt;Clone -->
<g id="edge20" class="edge">
<title>ConvertUnits2&#45;&gt;Clone</title>
<path fill="none" stroke="black" d="M839.43,-1136.84C837.19,-1118.29 832.24,-1088.14 822.09,-1064 817.77,-1053.72 811.41,-1043.31 805.23,-1034.42"/>
<polygon fill="black" stroke="black" points="807.89,-1032.13 799.19,-1026.08 802.22,-1036.24 807.89,-1032.13"/>
</g>
<!-- ConvertUnits3 -->
<g id="node26" class="node">
<title>ConvertUnits3</title>
<path fill="lightskyblue" stroke="black" d="M875.59,-255C875.59,-255 804.59,-255 804.59,-255 798.59,-255 792.59,-249 792.59,-243 792.59,-243 792.59,-231 792.59,-231 792.59,-225 798.59,-219 804.59,-219 804.59,-219 875.59,-219 875.59,-219 881.59,-219 887.59,-225 887.59,-231 887.59,-231 887.59,-243 887.59,-243 887.59,-249 881.59,-255 875.59,-255"/>
<text text-anchor="middle" x="840.09" y="-233.3" font-family="Helvetica" font-size="14.00">ConvertUnits</text>
</g>
<!-- AddSampleLogMultiple -->
<g id="node39" class="node">
<title>AddSampleLogMultiple</title>
<path fill="lightskyblue" stroke="black" d="M906.59,-182C906.59,-182 773.59,-182 773.59,-182 767.59,-182 761.59,-176 761.59,-170 761.59,-170 761.59,-158 761.59,-158 761.59,-152 767.59,-146 773.59,-146 773.59,-146 906.59,-146 906.59,-146 912.59,-146 918.59,-152 918.59,-158 918.59,-158 918.59,-170 918.59,-170 918.59,-176 912.59,-182 906.59,-182"/>
<text text-anchor="middle" x="840.09" y="-160.3" font-family="Helvetica" font-size="14.00">AddSampleLogMultiple</text>
</g>
<!-- ConvertUnits3&#45;&gt;AddSampleLogMultiple -->
<g id="edge48" class="edge">
<title>ConvertUnits3&#45;&gt;AddSampleLogMultiple</title>
<path fill="none" stroke="black" d="M840.09,-218.81C840.09,-210.79 840.09,-201.05 840.09,-192.07"/>
<polygon fill="black" stroke="black" points="843.59,-192.03 840.09,-182.03 836.59,-192.03 843.59,-192.03"/>
</g>
<!-- SetBeam&#45;&gt;SetSample -->
<g id="edge6" class="edge">
<title>SetBeam&#45;&gt;SetSample</title>
<path fill="none" stroke="black" d="M1258.48,-1445.35C1255.67,-1444.48 1252.85,-1443.68 1250.09,-1443 1111.21,-1408.83 942.26,-1395.86 858.84,-1391.28"/>
<polygon fill="black" stroke="black" points="858.78,-1387.78 848.61,-1390.74 858.41,-1394.77 858.78,-1387.78"/>
</g>
<!-- SetBeam1&#45;&gt;SetSample1 -->
<g id="edge28" class="edge">
<title>SetBeam1&#45;&gt;SetSample1</title>
<path fill="none" stroke="black" d="M239.26,-670.99C260.03,-661.23 286.3,-648.88 308.47,-638.45"/>
<polygon fill="black" stroke="black" points="310.14,-641.54 317.7,-634.11 307.16,-635.2 310.14,-641.54"/>
</g>
<!-- SetBeam2&#45;&gt;SetSample2 -->
<g id="edge36" class="edge">
<title>SetBeam2&#45;&gt;SetSample2</title>
<path fill="none" stroke="black" d="M622.99,-670.81C616.97,-662.27 609.58,-651.77 602.93,-642.32"/>
<polygon fill="black" stroke="black" points="605.71,-640.19 597.09,-634.03 599.98,-644.22 605.71,-640.19"/>
</g>
<!-- SetSample&#45;&gt;MonteCarlo -->
<g id="edge13" class="edge">
<title>SetSample&#45;&gt;MonteCarlo</title>
<path fill="none" stroke="black" d="M768.29,-1369.99C745.81,-1360.14 717.32,-1347.66 693.4,-1337.17"/>
<polygon fill="black" stroke="black" points="694.71,-1333.92 684.14,-1333.11 691.9,-1340.33 694.71,-1333.92"/>
</g>
<!-- MonteCarlo1 -->
<g id="node34" class="node">
<title>MonteCarlo1</title>
<path fill="lightskyblue" stroke="black" d="M475.59,-561C475.59,-561 412.59,-561 412.59,-561 406.59,-561 400.59,-555 400.59,-549 400.59,-549 400.59,-537 400.59,-537 400.59,-531 406.59,-525 412.59,-525 412.59,-525 475.59,-525 475.59,-525 481.59,-525 487.59,-531 487.59,-537 487.59,-537 487.59,-549 487.59,-549 487.59,-555 481.59,-561 475.59,-561"/>
<text text-anchor="middle" x="444.09" y="-539.3" font-family="Helvetica" font-size="14.00">MonteCarlo</text>
</g>
<!-- SetSample1&#45;&gt;MonteCarlo1 -->
<g id="edge32" class="edge">
<title>SetSample1&#45;&gt;MonteCarlo1</title>
<path fill="none" stroke="black" d="M375.88,-597.81C387.49,-588.66 401.93,-577.26 414.54,-567.32"/>
<polygon fill="black" stroke="black" points="416.82,-569.97 422.51,-561.03 412.49,-564.47 416.82,-569.97"/>
</g>
<!-- MonteCarlo2 -->
<g id="node35" class="node">
<title>MonteCarlo2</title>
<path fill="lightskyblue" stroke="black" d="M616.59,-561C616.59,-561 553.59,-561 553.59,-561 547.59,-561 541.59,-555 541.59,-549 541.59,-549 541.59,-537 541.59,-537 541.59,-531 547.59,-525 553.59,-525 553.59,-525 616.59,-525 616.59,-525 622.59,-525 628.59,-531 628.59,-537 628.59,-537 628.59,-549 628.59,-549 628.59,-555 622.59,-561 616.59,-561"/>
<text text-anchor="middle" x="585.09" y="-539.3" font-family="Helvetica" font-size="14.00">MonteCarlo</text>
</g>
<!-- SetSample2&#45;&gt;MonteCarlo2 -->
<g id="edge40" class="edge">
<title>SetSample2&#45;&gt;MonteCarlo2</title>
<path fill="none" stroke="black" d="M585.09,-597.81C585.09,-589.79 585.09,-580.05 585.09,-571.07"/>
<polygon fill="black" stroke="black" points="588.59,-571.03 585.09,-561.03 581.59,-571.03 588.59,-571.03"/>
</g>
<!-- MonteCarlo&#45;&gt;AbsWorkspace1 -->
<g id="edge16" class="edge">
<title>MonteCarlo&#45;&gt;AbsWorkspace1</title>
<path fill="none" stroke="black" d="M642.19,-1296.81C640.83,-1288.79 639.19,-1279.05 637.67,-1270.07"/>
<polygon fill="black" stroke="black" points="641.09,-1269.31 635.97,-1260.03 634.19,-1270.47 641.09,-1269.31"/>
</g>
<!-- canGiven -->
<g id="node42" class="node">
<title>canGiven</title>
<polygon fill="limegreen" stroke="black" points="889.09,-1260 747.49,-1242 889.09,-1224 1030.69,-1242 889.09,-1260"/>
<text text-anchor="middle" x="889.09" y="-1238.3" font-family="Helvetica" font-size="14.00">Container Workspace?</text>
</g>
<!-- MonteCarlo&#45;&gt;canGiven -->
<g id="edge17" class="edge">
<title>MonteCarlo&#45;&gt;canGiven</title>
<path fill="none" stroke="black" d="M688.72,-1301.31C730.77,-1289.07 794.37,-1270.56 838.6,-1257.69"/>
<polygon fill="black" stroke="black" points="839.66,-1261.03 848.28,-1254.88 837.7,-1254.31 839.66,-1261.03"/>
</g>
<!-- Multiply -->
<g id="node41" class="node">
<title>Multiply</title>
<path fill="lightskyblue" stroke="black" d="M604.59,-488C604.59,-488 565.59,-488 565.59,-488 559.59,-488 553.59,-482 553.59,-476 553.59,-476 553.59,-464 553.59,-464 553.59,-458 559.59,-452 565.59,-452 565.59,-452 604.59,-452 604.59,-452 610.59,-452 616.59,-458 616.59,-464 616.59,-464 616.59,-476 616.59,-476 616.59,-482 610.59,-488 604.59,-488"/>
<text text-anchor="middle" x="585.09" y="-466.3" font-family="Helvetica" font-size="14.00">Multiply</text>
</g>
<!-- MonteCarlo1&#45;&gt;Multiply -->
<g id="edge33" class="edge">
<title>MonteCarlo1&#45;&gt;Multiply</title>
<path fill="none" stroke="black" d="M477.87,-524.99C497.88,-514.92 523.37,-502.08 544.48,-491.45"/>
<polygon fill="black" stroke="black" points="546.17,-494.52 553.53,-486.89 543.02,-488.27 546.17,-494.52"/>
</g>
<!-- MonteCarlo2&#45;&gt;Multiply -->
<g id="edge41" class="edge">
<title>MonteCarlo2&#45;&gt;Multiply</title>
<path fill="none" stroke="black" d="M585.09,-524.81C585.09,-516.79 585.09,-507.05 585.09,-498.07"/>
<polygon fill="black" stroke="black" points="588.59,-498.03 585.09,-488.03 581.59,-498.03 588.59,-498.03"/>
</g>
<!-- Scale&#45;&gt;Clone -->
<g id="edge21" class="edge">
<title>Scale&#45;&gt;Clone</title>
<path fill="none" stroke="black" d="M786.09,-1063.81C786.09,-1055.79 786.09,-1046.05 786.09,-1037.07"/>
<polygon fill="black" stroke="black" points="789.59,-1037.03 786.09,-1027.03 782.59,-1037.03 789.59,-1037.03"/>
</g>
<!-- Divide -->
<g id="node37" class="node">
<title>Divide</title>
<path fill="lightskyblue" stroke="black" d="M778.09,-415C778.09,-415 748.09,-415 748.09,-415 742.09,-415 736.09,-409 736.09,-403 736.09,-403 736.09,-391 736.09,-391 736.09,-385 742.09,-379 748.09,-379 748.09,-379 778.09,-379 778.09,-379 784.09,-379 790.09,-385 790.09,-391 790.09,-391 790.09,-403 790.09,-403 790.09,-409 784.09,-415 778.09,-415"/>
<text text-anchor="middle" x="763.09" y="-393.3" font-family="Helvetica" font-size="14.00">Divide</text>
</g>
<!-- Minus -->
<g id="node38" class="node">
<title>Minus</title>
<path fill="lightskyblue" stroke="black" d="M778.09,-342C778.09,-342 748.09,-342 748.09,-342 742.09,-342 736.09,-336 736.09,-330 736.09,-330 736.09,-318 736.09,-318 736.09,-312 742.09,-306 748.09,-306 748.09,-306 778.09,-306 778.09,-306 784.09,-306 790.09,-312 790.09,-318 790.09,-318 790.09,-330 790.09,-330 790.09,-336 784.09,-342 778.09,-342"/>
<text text-anchor="middle" x="763.09" y="-320.3" font-family="Helvetica" font-size="14.00">Minus</text>
</g>
<!-- Divide&#45;&gt;Minus -->
<g id="edge45" class="edge">
<title>Divide&#45;&gt;Minus</title>
<path fill="none" stroke="black" d="M763.09,-378.81C763.09,-370.79 763.09,-361.05 763.09,-352.07"/>
<polygon fill="black" stroke="black" points="766.59,-352.03 763.09,-342.03 759.59,-352.03 766.59,-352.03"/>
</g>
<!-- Minus&#45;&gt;ConvertUnits3 -->
<g id="edge46" class="edge">
<title>Minus&#45;&gt;ConvertUnits3</title>
<path fill="none" stroke="black" d="M759.15,-305.92C757.75,-295.58 757.82,-282.59 764.09,-273 768.9,-265.66 775.66,-259.84 783.2,-255.22"/>
<polygon fill="black" stroke="black" points="785.15,-258.14 792.32,-250.34 781.85,-251.97 785.15,-258.14"/>
<text text-anchor="middle" x="833.59" y="-276.8" font-family="Helvetica" font-size="14.00">Convert back to DeltaE</text>
</g>
<!-- GroupWorkspaces -->
<g id="node40" class="node">
<title>GroupWorkspaces</title>
<path fill="lightskyblue" stroke="black" d="M892.59,-109C892.59,-109 787.59,-109 787.59,-109 781.59,-109 775.59,-103 775.59,-97 775.59,-97 775.59,-85 775.59,-85 775.59,-79 781.59,-73 787.59,-73 787.59,-73 892.59,-73 892.59,-73 898.59,-73 904.59,-79 904.59,-85 904.59,-85 904.59,-97 904.59,-97 904.59,-103 898.59,-109 892.59,-109"/>
<text text-anchor="middle" x="840.09" y="-87.3" font-family="Helvetica" font-size="14.00">GroupWorkspaces</text>
</g>
<!-- AddSampleLogMultiple&#45;&gt;GroupWorkspaces -->
<g id="edge49" class="edge">
<title>AddSampleLogMultiple&#45;&gt;GroupWorkspaces</title>
<path fill="none" stroke="black" d="M840.09,-145.81C840.09,-137.79 840.09,-128.05 840.09,-119.07"/>
<polygon fill="black" stroke="black" points="843.59,-119.03 840.09,-109.03 836.59,-119.03 843.59,-119.03"/>
</g>
<!-- GroupWorkspaces&#45;&gt;OutputWorkspace -->
<g id="edge50" class="edge">
<title>GroupWorkspaces&#45;&gt;OutputWorkspace</title>
<path fill="none" stroke="black" d="M840.09,-72.81C840.09,-64.79 840.09,-55.05 840.09,-46.07"/>
<polygon fill="black" stroke="black" points="843.59,-46.03 840.09,-36.03 836.59,-46.03 843.59,-46.03"/>
</g>
<!-- Multiply&#45;&gt;CanAbsorptionWorkspace -->
<g id="edge42" class="edge">
<title>Multiply&#45;&gt;CanAbsorptionWorkspace</title>
<path fill="none" stroke="black" d="M585.09,-451.81C585.09,-443.79 585.09,-434.05 585.09,-425.07"/>
<polygon fill="black" stroke="black" points="588.59,-425.03 585.09,-415.03 581.59,-425.03 588.59,-425.03"/>
</g>
<!-- Multiply&#45;&gt;Divide -->
<g id="edge43" class="edge">
<title>Multiply&#45;&gt;Divide</title>
<path fill="none" stroke="black" d="M616.92,-456.31C647.64,-444.05 694.12,-425.51 726.39,-412.64"/>
<polygon fill="black" stroke="black" points="727.92,-415.8 735.92,-408.84 725.33,-409.29 727.92,-415.8"/>
</g>
<!-- canGiven&#45;&gt;ConvertUnits2 -->
<g id="edge18" class="edge">
<title>canGiven&#45;&gt;ConvertUnits2</title>
<path fill="none" stroke="black" d="M880.06,-1225.01C873.2,-1212.86 863.62,-1195.9 855.68,-1181.83"/>
<polygon fill="black" stroke="black" points="858.71,-1180.07 850.74,-1173.08 852.61,-1183.51 858.71,-1180.07"/>
<text text-anchor="middle" x="879.59" y="-1194.8" font-family="Helvetica" font-size="14.00">Yes</text>
</g>
<!-- canGiven&#45;&gt;ConvertUnits3 -->
<g id="edge47" class="edge">
<title>canGiven&#45;&gt;ConvertUnits3</title>
<path fill="none" stroke="black" d="M897.8,-1224.91C906.02,-1208.18 917.09,-1181.01 917.09,-1156 917.09,-1156 917.09,-1156 917.09,-323 917.09,-299.92 917.39,-291.11 903.09,-273 899.47,-268.41 895.06,-264.33 890.29,-260.72"/>
<polygon fill="black" stroke="black" points="892.21,-257.8 881.97,-255.1 888.29,-263.6 892.21,-257.8"/>
<text text-anchor="middle" x="926.09" y="-728.8" font-family="Helvetica" font-size="14.00">No</text>
</g>
<!-- useCorrections -->
<g id="node43" class="node">
<title>useCorrections</title>
<polygon fill="limegreen" stroke="black" points="635.09,-881 492.65,-863 635.09,-845 777.53,-863 635.09,-881"/>
<text text-anchor="middle" x="635.09" y="-859.3" font-family="Helvetica" font-size="14.00">Container Corrections?</text>
</g>
<!-- useCorrections&#45;&gt;CanWorkspace1 -->
<g id="edge26" class="edge">
<title>useCorrections&#45;&gt;CanWorkspace1</title>
<path fill="none" stroke="black" d="M600.17,-849.37C560.26,-834.93 494.66,-811.21 449.52,-794.88"/>
<polygon fill="black" stroke="black" points="450.53,-791.52 439.94,-791.41 448.15,-798.1 450.53,-791.52"/>
<text text-anchor="middle" x="543.59" y="-815.8" font-family="Helvetica" font-size="14.00">Yes</text>
</g>
<!-- useCorrections&#45;&gt;CanWorkspace2 -->
<g id="edge34" class="edge">
<title>useCorrections&#45;&gt;CanWorkspace2</title>
<path fill="none" stroke="black" d="M635.09,-844.8C635.09,-833.16 635.09,-817.55 635.09,-804.24"/>
<polygon fill="black" stroke="black" points="638.59,-804.18 635.09,-794.18 631.59,-804.18 638.59,-804.18"/>
<text text-anchor="middle" x="646.59" y="-815.8" font-family="Helvetica" font-size="14.00">Yes</text>
</g>
<!-- useCorrections&#45;&gt;Divide -->
<g id="edge44" class="edge">
<title>useCorrections&#45;&gt;Divide</title>
<path fill="none" stroke="black" d="M695.26,-852.54C765.18,-839.8 871.09,-814.34 871.09,-777 871.09,-777 871.09,-777 871.09,-469 871.09,-434.17 831.4,-415.48 800.14,-406.16"/>
<polygon fill="black" stroke="black" points="800.92,-402.74 790.35,-403.45 799.05,-409.49 800.92,-402.74"/>
<text text-anchor="middle" x="880.09" y="-612.3" font-family="Helvetica" font-size="14.00">No</text>
</g>
<!-- Clone&#45;&gt;Divide1 -->
<g id="edge22" class="edge">
<title>Clone&#45;&gt;Divide1</title>
<path fill="none" stroke="black" d="M761.66,-996.43C737.38,-984.94 699.86,-967.18 672.15,-954.07"/>
<polygon fill="black" stroke="black" points="673.33,-950.75 662.79,-949.64 670.34,-957.08 673.33,-950.75"/>
</g>
<!-- Divide1&#45;&gt;useCorrections -->
<g id="edge25" class="edge">
<title>Divide1&#45;&gt;useCorrections</title>
<path fill="none" stroke="black" d="M635.85,-917.81C635.74,-909.79 635.6,-900.05 635.47,-891.07"/>
<polygon fill="black" stroke="black" points="638.97,-890.98 635.33,-881.03 631.97,-891.08 638.97,-890.98"/>
</g>
</g>
</svg>
