<?xml version="1.0" encoding="UTF-8" standalone="no"?>
<!DOCTYPE svg PUBLIC "-//W3C//DTD SVG 1.1//EN"
 "http://www.w3.org/Graphics/SVG/1.1/DTD/svg11.dtd">
<!-- Generated by graphviz version 2.47.2 (20210527.1257)
 -->
<!-- Title: IndirectFlatePlateAbsorption Pages: 1 -->
<svg width="1326pt" height="1670pt"
 viewBox="0.00 0.00 1325.84 1670.00" xmlns="http://www.w3.org/2000/svg" xmlns:xlink="http://www.w3.org/1999/xlink">
<g id="graph0" class="graph" transform="scale(1 1) rotate(0) translate(4 1666)">
<title>IndirectFlatePlateAbsorption</title>
<polygon fill="white" stroke="transparent" points="-4,4 -4,-1666 1321.84,-1666 1321.84,4 -4,4"/>
<text text-anchor="middle" x="658.92" y="-1646.8" font-family="Helvetica" font-size="14.00">IndirectFlatePlateAbsorption Flowchart</text>
<!-- SampleWorkspace1 -->
<g id="node1" class="node">
<title>SampleWorkspace1</title>
<ellipse fill="khaki" stroke="black" cx="1078.84" cy="-1621" rx="85.29" ry="18"/>
<text text-anchor="middle" x="1078.84" y="-1617.3" font-family="Helvetica" font-size="14.00">SampleWorkspace</text>
</g>
<!-- GetEFixed -->
<g id="node19" class="node">
<title>GetEFixed</title>
<path fill="lightskyblue" stroke="black" d="M1107.34,-1566C1107.34,-1566 1050.34,-1566 1050.34,-1566 1044.34,-1566 1038.34,-1560 1038.34,-1554 1038.34,-1554 1038.34,-1542 1038.34,-1542 1038.34,-1536 1044.34,-1530 1050.34,-1530 1050.34,-1530 1107.34,-1530 1107.34,-1530 1113.34,-1530 1119.34,-1536 1119.34,-1542 1119.34,-1542 1119.34,-1554 1119.34,-1554 1119.34,-1560 1113.34,-1566 1107.34,-1566"/>
<text text-anchor="middle" x="1078.84" y="-1544.3" font-family="Helvetica" font-size="14.00">GetEFixed</text>
</g>
<!-- SampleWorkspace1&#45;&gt;GetEFixed -->
<g id="edge1" class="edge">
<title>SampleWorkspace1&#45;&gt;GetEFixed</title>
<path fill="none" stroke="black" d="M1078.84,-1602.81C1078.84,-1594.79 1078.84,-1585.05 1078.84,-1576.07"/>
<polygon fill="black" stroke="black" points="1082.34,-1576.03 1078.84,-1566.03 1075.34,-1576.03 1082.34,-1576.03"/>
</g>
<!-- SampleWorkspace2 -->
<g id="node2" class="node">
<title>SampleWorkspace2</title>
<ellipse fill="khaki" stroke="black" cx="309.84" cy="-936" rx="85.29" ry="18"/>
<text text-anchor="middle" x="309.84" y="-932.3" font-family="Helvetica" font-size="14.00">SampleWorkspace</text>
</g>
<!-- Divide1 -->
<g id="node38" class="node">
<title>Divide1</title>
<ellipse fill="lightgrey" stroke="black" cx="509.84" cy="-863" rx="40.09" ry="18"/>
<text text-anchor="middle" x="509.84" y="-859.3" font-family="Helvetica" font-size="14.00">Divide1</text>
</g>
<!-- SampleWorkspace2&#45;&gt;Divide1 -->
<g id="edge22" class="edge">
<title>SampleWorkspace2&#45;&gt;Divide1</title>
<path fill="none" stroke="black" d="M351.77,-920.12C386.48,-907.79 435.49,-890.39 469.7,-878.25"/>
<polygon fill="black" stroke="black" points="471.12,-881.46 479.37,-874.82 468.78,-874.86 471.12,-881.46"/>
</g>
<!-- SampleChemicalFormula -->
<g id="node3" class="node">
<title>SampleChemicalFormula</title>
<ellipse fill="khaki" stroke="black" cx="181.84" cy="-1388" rx="110.48" ry="18"/>
<text text-anchor="middle" x="181.84" y="-1384.3" font-family="Helvetica" font-size="14.00">SampleChemicalFormula</text>
</g>
<!-- SetSample -->
<g id="node25" class="node">
<title>SetSample</title>
<path fill="lightskyblue" stroke="black" d="M641.34,-1333C641.34,-1333 582.34,-1333 582.34,-1333 576.34,-1333 570.34,-1327 570.34,-1321 570.34,-1321 570.34,-1309 570.34,-1309 570.34,-1303 576.34,-1297 582.34,-1297 582.34,-1297 641.34,-1297 641.34,-1297 647.34,-1297 653.34,-1303 653.34,-1309 653.34,-1309 653.34,-1321 653.34,-1321 653.34,-1327 647.34,-1333 641.34,-1333"/>
<text text-anchor="middle" x="611.84" y="-1311.3" font-family="Helvetica" font-size="14.00">SetSample</text>
</g>
<!-- SampleChemicalFormula&#45;&gt;SetSample -->
<g id="edge10" class="edge">
<title>SampleChemicalFormula&#45;&gt;SetSample</title>
<path fill="none" stroke="black" d="M262.19,-1375.61C360.61,-1361.64 518.73,-1339.21 560.33,-1332.53"/>
<polygon fill="black" stroke="black" points="561.03,-1335.97 570.27,-1330.78 559.81,-1329.07 561.03,-1335.97"/>
</g>
<!-- SampleDensity -->
<g id="node4" class="node">
<title>SampleDensity</title>
<ellipse fill="khaki" stroke="black" cx="380.84" cy="-1388" rx="70.39" ry="18"/>
<text text-anchor="middle" x="380.84" y="-1384.3" font-family="Helvetica" font-size="14.00">SampleDensity</text>
</g>
<!-- SampleDensity&#45;&gt;SetSample -->
<g id="edge11" class="edge">
<title>SampleDensity&#45;&gt;SetSample</title>
<path fill="none" stroke="black" d="M425.99,-1374.04C460.54,-1364.01 509.6,-1349.52 560.6,-1333.35"/>
<polygon fill="black" stroke="black" points="561.67,-1336.68 570.14,-1330.31 559.55,-1330.01 561.67,-1336.68"/>
</g>
<!-- SampleHeight -->
<g id="node5" class="node">
<title>SampleHeight</title>
<ellipse fill="khaki" stroke="black" cx="534.84" cy="-1388" rx="66.09" ry="18"/>
<text text-anchor="middle" x="534.84" y="-1384.3" font-family="Helvetica" font-size="14.00">SampleHeight</text>
</g>
<!-- SampleHeight&#45;&gt;SetSample -->
<g id="edge8" class="edge">
<title>SampleHeight&#45;&gt;SetSample</title>
<path fill="none" stroke="black" d="M552.7,-1370.53C562.5,-1361.5 574.82,-1350.13 585.68,-1340.12"/>
<polygon fill="black" stroke="black" points="588.3,-1342.47 593.28,-1333.12 583.55,-1337.32 588.3,-1342.47"/>
</g>
<!-- SampleRadius -->
<g id="node6" class="node">
<title>SampleRadius</title>
<ellipse fill="khaki" stroke="black" cx="687.84" cy="-1388" rx="68.49" ry="18"/>
<text text-anchor="middle" x="687.84" y="-1384.3" font-family="Helvetica" font-size="14.00">SampleRadius</text>
</g>
<!-- SampleRadius&#45;&gt;SetSample -->
<g id="edge7" class="edge">
<title>SampleRadius&#45;&gt;SetSample</title>
<path fill="none" stroke="black" d="M670.21,-1370.53C660.55,-1361.5 648.38,-1350.13 637.66,-1340.12"/>
<polygon fill="black" stroke="black" points="639.86,-1337.39 630.17,-1333.12 635.08,-1342.5 639.86,-1337.39"/>
</g>
<!-- SampleAngle -->
<g id="node7" class="node">
<title>SampleAngle</title>
<ellipse fill="khaki" stroke="black" cx="837.84" cy="-1388" rx="63.89" ry="18"/>
<text text-anchor="middle" x="837.84" y="-1384.3" font-family="Helvetica" font-size="14.00">SampleAngle</text>
</g>
<!-- SampleAngle&#45;&gt;SetSample -->
<g id="edge9" class="edge">
<title>SampleAngle&#45;&gt;SetSample</title>
<path fill="none" stroke="black" d="M796.91,-1374.14C759.43,-1362.37 703.78,-1344.88 663.3,-1332.17"/>
<polygon fill="black" stroke="black" points="664.2,-1328.78 653.61,-1329.12 662.1,-1335.46 664.2,-1328.78"/>
</g>
<!-- BeamHeight -->
<g id="node8" class="node">
<title>BeamHeight</title>
<ellipse fill="khaki" stroke="black" cx="820.84" cy="-1461" rx="59.59" ry="18"/>
<text text-anchor="middle" x="820.84" y="-1457.3" font-family="Helvetica" font-size="14.00">BeamHeight</text>
</g>
<!-- SetBeam -->
<g id="node23" class="node">
<title>SetBeam</title>
<path fill="lightskyblue" stroke="black" d="M980.34,-1406C980.34,-1406 931.34,-1406 931.34,-1406 925.34,-1406 919.34,-1400 919.34,-1394 919.34,-1394 919.34,-1382 919.34,-1382 919.34,-1376 925.34,-1370 931.34,-1370 931.34,-1370 980.34,-1370 980.34,-1370 986.34,-1370 992.34,-1376 992.34,-1382 992.34,-1382 992.34,-1394 992.34,-1394 992.34,-1400 986.34,-1406 980.34,-1406"/>
<text text-anchor="middle" x="955.84" y="-1384.3" font-family="Helvetica" font-size="14.00">SetBeam</text>
</g>
<!-- BeamHeight&#45;&gt;SetBeam -->
<g id="edge4" class="edge">
<title>BeamHeight&#45;&gt;SetBeam</title>
<path fill="none" stroke="black" d="M849.14,-1445.12C868,-1435.2 893.1,-1421.99 914.23,-1410.89"/>
<polygon fill="black" stroke="black" points="916.09,-1413.86 923.31,-1406.11 912.83,-1407.67 916.09,-1413.86"/>
</g>
<!-- BeamWidth -->
<g id="node9" class="node">
<title>BeamWidth</title>
<ellipse fill="khaki" stroke="black" cx="955.84" cy="-1461" rx="57.39" ry="18"/>
<text text-anchor="middle" x="955.84" y="-1457.3" font-family="Helvetica" font-size="14.00">BeamWidth</text>
</g>
<!-- BeamWidth&#45;&gt;SetBeam -->
<g id="edge5" class="edge">
<title>BeamWidth&#45;&gt;SetBeam</title>
<path fill="none" stroke="black" d="M955.84,-1442.81C955.84,-1434.79 955.84,-1425.05 955.84,-1416.07"/>
<polygon fill="black" stroke="black" points="959.34,-1416.03 955.84,-1406.03 952.34,-1416.03 959.34,-1416.03"/>
</g>
<!-- Events -->
<g id="node10" class="node">
<title>Events</title>
<ellipse fill="khaki" stroke="black" cx="291.84" cy="-1315" rx="37.89" ry="18"/>
<text text-anchor="middle" x="291.84" y="-1311.3" font-family="Helvetica" font-size="14.00">Events</text>
</g>
<!-- MonteCarlo -->
<g id="node27" class="node">
<title>MonteCarlo</title>
<path fill="lightskyblue" stroke="black" d="M481.34,-1260C481.34,-1260 418.34,-1260 418.34,-1260 412.34,-1260 406.34,-1254 406.34,-1248 406.34,-1248 406.34,-1236 406.34,-1236 406.34,-1230 412.34,-1224 418.34,-1224 418.34,-1224 481.34,-1224 481.34,-1224 487.34,-1224 493.34,-1230 493.34,-1236 493.34,-1236 493.34,-1248 493.34,-1248 493.34,-1254 487.34,-1260 481.34,-1260"/>
<text text-anchor="middle" x="449.84" y="-1238.3" font-family="Helvetica" font-size="14.00">MonteCarlo</text>
</g>
<!-- Events&#45;&gt;MonteCarlo -->
<g id="edge13" class="edge">
<title>Events&#45;&gt;MonteCarlo</title>
<path fill="none" stroke="black" d="M318.29,-1302.12C341.15,-1291.84 374.78,-1276.73 402.3,-1264.36"/>
<polygon fill="black" stroke="black" points="404.07,-1267.4 411.76,-1260.11 401.2,-1261.02 404.07,-1267.4"/>
</g>
<!-- NumberOfWavelengths -->
<g id="node11" class="node">
<title>NumberOfWavelengths</title>
<ellipse fill="khaki" stroke="black" cx="449.84" cy="-1315" rx="102.88" ry="18"/>
<text text-anchor="middle" x="449.84" y="-1311.3" font-family="Helvetica" font-size="14.00">NumberOfWavelengths</text>
</g>
<!-- NumberOfWavelengths&#45;&gt;MonteCarlo -->
<g id="edge14" class="edge">
<title>NumberOfWavelengths&#45;&gt;MonteCarlo</title>
<path fill="none" stroke="black" d="M449.84,-1296.81C449.84,-1288.79 449.84,-1279.05 449.84,-1270.07"/>
<polygon fill="black" stroke="black" points="453.34,-1270.03 449.84,-1260.03 446.34,-1270.03 453.34,-1270.03"/>
</g>
<!-- AbsWorkspace1 -->
<g id="node12" class="node">
<title>AbsWorkspace1</title>
<ellipse fill="khaki" stroke="black" cx="437.84" cy="-1169" rx="96.68" ry="18"/>
<text text-anchor="middle" x="437.84" y="-1165.3" font-family="Helvetica" font-size="14.00">AbsorptionWorkspace</text>
</g>
<!-- AbsWorkspace2 -->
<g id="node13" class="node">
<title>AbsWorkspace2</title>
<ellipse fill="khaki" stroke="black" cx="509.84" cy="-936" rx="96.68" ry="18"/>
<text text-anchor="middle" x="509.84" y="-932.3" font-family="Helvetica" font-size="14.00">AbsorptionWorkspace</text>
</g>
<!-- AbsWorkspace2&#45;&gt;Divide1 -->
<g id="edge23" class="edge">
<title>AbsWorkspace2&#45;&gt;Divide1</title>
<path fill="none" stroke="black" d="M509.84,-917.81C509.84,-909.79 509.84,-900.05 509.84,-891.07"/>
<polygon fill="black" stroke="black" points="513.34,-891.03 509.84,-881.03 506.34,-891.03 513.34,-891.03"/>
</g>
<!-- CanAbsorptionWorkspace -->
<g id="node14" class="node">
<title>CanAbsorptionWorkspace</title>
<ellipse fill="khaki" stroke="black" cx="409.84" cy="-397" rx="112.38" ry="18"/>
<text text-anchor="middle" x="409.84" y="-393.3" font-family="Helvetica" font-size="14.00">CanAbsorptionWorkspace</text>
</g>
<!-- CanChemicalFormula -->
<g id="node15" class="node">
<title>CanChemicalFormula</title>
<ellipse fill="khaki" stroke="black" cx="96.84" cy="-703" rx="96.68" ry="18"/>
<text text-anchor="middle" x="96.84" y="-699.3" font-family="Helvetica" font-size="14.00">CanChemicalFormula</text>
</g>
<!-- SetSample1 -->
<g id="node26" class="node">
<title>SetSample1</title>
<path fill="lightskyblue" stroke="black" d="M425.34,-648C425.34,-648 366.34,-648 366.34,-648 360.34,-648 354.34,-642 354.34,-636 354.34,-636 354.34,-624 354.34,-624 354.34,-618 360.34,-612 366.34,-612 366.34,-612 425.34,-612 425.34,-612 431.34,-612 437.34,-618 437.34,-624 437.34,-624 437.34,-636 437.34,-636 437.34,-642 431.34,-648 425.34,-648"/>
<text text-anchor="middle" x="395.84" y="-626.3" font-family="Helvetica" font-size="14.00">SetSample</text>
</g>
<!-- CanChemicalFormula&#45;&gt;SetSample1 -->
<g id="edge27" class="edge">
<title>CanChemicalFormula&#45;&gt;SetSample1</title>
<path fill="none" stroke="black" d="M154.14,-688.39C209.1,-675.34 291.33,-655.82 344.29,-643.24"/>
<polygon fill="black" stroke="black" points="345.22,-646.62 354.14,-640.9 343.61,-639.81 345.22,-646.62"/>
</g>
<!-- CanDensity -->
<g id="node16" class="node">
<title>CanDensity</title>
<ellipse fill="khaki" stroke="black" cx="267.84" cy="-703" rx="55.79" ry="18"/>
<text text-anchor="middle" x="267.84" y="-699.3" font-family="Helvetica" font-size="14.00">CanDensity</text>
</g>
<!-- CanDensity&#45;&gt;SetSample1 -->
<g id="edge28" class="edge">
<title>CanDensity&#45;&gt;SetSample1</title>
<path fill="none" stroke="black" d="M294.67,-687.12C312.47,-677.24 336.14,-664.11 356.11,-653.04"/>
<polygon fill="black" stroke="black" points="357.95,-656.02 364.99,-648.11 354.55,-649.9 357.95,-656.02"/>
</g>
<!-- CanRadius -->
<g id="node17" class="node">
<title>CanRadius</title>
<ellipse fill="khaki" stroke="black" cx="395.84" cy="-703" rx="53.89" ry="18"/>
<text text-anchor="middle" x="395.84" y="-699.3" font-family="Helvetica" font-size="14.00">CanRadius</text>
</g>
<!-- CanRadius&#45;&gt;SetSample1 -->
<g id="edge29" class="edge">
<title>CanRadius&#45;&gt;SetSample1</title>
<path fill="none" stroke="black" d="M395.84,-684.81C395.84,-676.79 395.84,-667.05 395.84,-658.07"/>
<polygon fill="black" stroke="black" points="399.34,-658.03 395.84,-648.03 392.34,-658.03 399.34,-658.03"/>
</g>
<!-- OutputWorkspace -->
<g id="node18" class="node">
<title>OutputWorkspace</title>
<ellipse fill="khaki" stroke="black" cx="644.84" cy="-18" rx="81.49" ry="18"/>
<text text-anchor="middle" x="644.84" y="-14.3" font-family="Helvetica" font-size="14.00">OutputWorkspace</text>
</g>
<!-- ConvertUnits1 -->
<g id="node20" class="node">
<title>ConvertUnits1</title>
<path fill="lightskyblue" stroke="black" d="M1114.34,-1479C1114.34,-1479 1043.34,-1479 1043.34,-1479 1037.34,-1479 1031.34,-1473 1031.34,-1467 1031.34,-1467 1031.34,-1455 1031.34,-1455 1031.34,-1449 1037.34,-1443 1043.34,-1443 1043.34,-1443 1114.34,-1443 1114.34,-1443 1120.34,-1443 1126.34,-1449 1126.34,-1455 1126.34,-1455 1126.34,-1467 1126.34,-1467 1126.34,-1473 1120.34,-1479 1114.34,-1479"/>
<text text-anchor="middle" x="1078.84" y="-1457.3" font-family="Helvetica" font-size="14.00">ConvertUnits</text>
</g>
<!-- GetEFixed&#45;&gt;ConvertUnits1 -->
<g id="edge2" class="edge">
<title>GetEFixed&#45;&gt;ConvertUnits1</title>
<path fill="none" stroke="black" d="M1078.84,-1529.8C1078.84,-1518.16 1078.84,-1502.55 1078.84,-1489.24"/>
<polygon fill="black" stroke="black" points="1082.34,-1489.18 1078.84,-1479.18 1075.34,-1489.18 1082.34,-1489.18"/>
<text text-anchor="middle" x="1198.34" y="-1500.8" font-family="Helvetica" font-size="14.00">Convert input workspace to Wavelength</text>
</g>
<!-- ConvertUnits1&#45;&gt;SetBeam -->
<g id="edge3" class="edge">
<title>ConvertUnits1&#45;&gt;SetBeam</title>
<path fill="none" stroke="black" d="M1049.38,-1442.99C1032.92,-1433.49 1012.21,-1421.54 994.46,-1411.29"/>
<polygon fill="black" stroke="black" points="995.9,-1408.08 985.49,-1406.11 992.4,-1414.14 995.9,-1408.08"/>
</g>
<!-- ConvertUnits2 -->
<g id="node21" class="node">
<title>ConvertUnits2</title>
<path fill="lightskyblue" stroke="black" d="M681.34,-1100C681.34,-1100 610.34,-1100 610.34,-1100 604.34,-1100 598.34,-1094 598.34,-1088 598.34,-1088 598.34,-1076 598.34,-1076 598.34,-1070 604.34,-1064 610.34,-1064 610.34,-1064 681.34,-1064 681.34,-1064 687.34,-1064 693.34,-1070 693.34,-1076 693.34,-1076 693.34,-1088 693.34,-1088 693.34,-1094 687.34,-1100 681.34,-1100"/>
<text text-anchor="middle" x="645.84" y="-1078.3" font-family="Helvetica" font-size="14.00">ConvertUnits</text>
</g>
<!-- Scale -->
<g id="node29" class="node">
<title>Scale</title>
<path fill="lightskyblue" stroke="black" d="M630.84,-1027C630.84,-1027 600.84,-1027 600.84,-1027 594.84,-1027 588.84,-1021 588.84,-1015 588.84,-1015 588.84,-1003 588.84,-1003 588.84,-997 594.84,-991 600.84,-991 600.84,-991 630.84,-991 630.84,-991 636.84,-991 642.84,-997 642.84,-1003 642.84,-1003 642.84,-1015 642.84,-1015 642.84,-1021 636.84,-1027 630.84,-1027"/>
<text text-anchor="middle" x="615.84" y="-1005.3" font-family="Helvetica" font-size="14.00">Scale</text>
</g>
<!-- ConvertUnits2&#45;&gt;Scale -->
<g id="edge18" class="edge">
<title>ConvertUnits2&#45;&gt;Scale</title>
<path fill="none" stroke="black" d="M638.58,-1063.81C635.12,-1055.62 630.89,-1045.62 627.03,-1036.48"/>
<polygon fill="black" stroke="black" points="630.15,-1034.88 623.04,-1027.03 623.7,-1037.6 630.15,-1034.88"/>
</g>
<!-- Clone -->
<g id="node37" class="node">
<title>Clone</title>
<ellipse fill="lightgrey" stroke="black" cx="658.84" cy="-936" rx="33.6" ry="18"/>
<text text-anchor="middle" x="658.84" y="-932.3" font-family="Helvetica" font-size="14.00">Clone</text>
</g>
<!-- ConvertUnits2&#45;&gt;Clone -->
<g id="edge19" class="edge">
<title>ConvertUnits2&#45;&gt;Clone</title>
<path fill="none" stroke="black" d="M647.88,-1063.99C649.11,-1053.37 650.67,-1039.4 651.84,-1027 653.83,-1005.97 655.66,-982.13 656.96,-964.28"/>
<polygon fill="black" stroke="black" points="660.45,-964.49 657.67,-954.27 653.47,-963.99 660.45,-964.49"/>
</g>
<!-- ConvertUnits3 -->
<g id="node22" class="node">
<title>ConvertUnits3</title>
<path fill="lightskyblue" stroke="black" d="M680.34,-255C680.34,-255 609.34,-255 609.34,-255 603.34,-255 597.34,-249 597.34,-243 597.34,-243 597.34,-231 597.34,-231 597.34,-225 603.34,-219 609.34,-219 609.34,-219 680.34,-219 680.34,-219 686.34,-219 692.34,-225 692.34,-231 692.34,-231 692.34,-243 692.34,-243 692.34,-249 686.34,-255 680.34,-255"/>
<text text-anchor="middle" x="644.84" y="-233.3" font-family="Helvetica" font-size="14.00">ConvertUnits</text>
</g>
<!-- AddSampleLogMultiple -->
<g id="node32" class="node">
<title>AddSampleLogMultiple</title>
<path fill="lightskyblue" stroke="black" d="M711.34,-182C711.34,-182 578.34,-182 578.34,-182 572.34,-182 566.34,-176 566.34,-170 566.34,-170 566.34,-158 566.34,-158 566.34,-152 572.34,-146 578.34,-146 578.34,-146 711.34,-146 711.34,-146 717.34,-146 723.34,-152 723.34,-158 723.34,-158 723.34,-170 723.34,-170 723.34,-176 717.34,-182 711.34,-182"/>
<text text-anchor="middle" x="644.84" y="-160.3" font-family="Helvetica" font-size="14.00">AddSampleLogMultiple</text>
</g>
<!-- ConvertUnits3&#45;&gt;AddSampleLogMultiple -->
<g id="edge38" class="edge">
<title>ConvertUnits3&#45;&gt;AddSampleLogMultiple</title>
<path fill="none" stroke="black" d="M644.84,-218.81C644.84,-210.79 644.84,-201.05 644.84,-192.07"/>
<polygon fill="black" stroke="black" points="648.34,-192.03 644.84,-182.03 641.34,-192.03 648.34,-192.03"/>
</g>
<!-- SetBeam&#45;&gt;SetSample -->
<g id="edge6" class="edge">
<title>SetBeam&#45;&gt;SetSample</title>
<path fill="none" stroke="black" d="M919.19,-1372.53C916.38,-1371.61 913.58,-1370.76 910.84,-1370 825.54,-1346.4 723.61,-1330.54 663.49,-1322.41"/>
<polygon fill="black" stroke="black" points="663.86,-1318.93 653.49,-1321.08 662.94,-1325.87 663.86,-1318.93"/>
</g>
<!-- SetBeam1 -->
<g id="node24" class="node">
<title>SetBeam1</title>
<path fill="lightskyblue" stroke="black" d="M528.34,-721C528.34,-721 479.34,-721 479.34,-721 473.34,-721 467.34,-715 467.34,-709 467.34,-709 467.34,-697 467.34,-697 467.34,-691 473.34,-685 479.34,-685 479.34,-685 528.34,-685 528.34,-685 534.34,-685 540.34,-691 540.34,-697 540.34,-697 540.34,-709 540.34,-709 540.34,-715 534.34,-721 528.34,-721"/>
<text text-anchor="middle" x="503.84" y="-699.3" font-family="Helvetica" font-size="14.00">SetBeam</text>
</g>
<!-- SetBeam1&#45;&gt;SetSample1 -->
<g id="edge26" class="edge">
<title>SetBeam1&#45;&gt;SetSample1</title>
<path fill="none" stroke="black" d="M477.97,-684.99C463.78,-675.67 446,-663.97 430.61,-653.86"/>
<polygon fill="black" stroke="black" points="432.15,-650.68 421.87,-648.11 428.31,-656.53 432.15,-650.68"/>
</g>
<!-- SetSample&#45;&gt;MonteCarlo -->
<g id="edge12" class="edge">
<title>SetSample&#45;&gt;MonteCarlo</title>
<path fill="none" stroke="black" d="M573.04,-1296.99C550.56,-1287.14 522.07,-1274.66 498.15,-1264.17"/>
<polygon fill="black" stroke="black" points="499.45,-1260.92 488.89,-1260.11 496.64,-1267.33 499.45,-1260.92"/>
</g>
<!-- MonteCarlo1 -->
<g id="node28" class="node">
<title>MonteCarlo1</title>
<path fill="lightskyblue" stroke="black" d="M435.34,-561C435.34,-561 372.34,-561 372.34,-561 366.34,-561 360.34,-555 360.34,-549 360.34,-549 360.34,-537 360.34,-537 360.34,-531 366.34,-525 372.34,-525 372.34,-525 435.34,-525 435.34,-525 441.34,-525 447.34,-531 447.34,-537 447.34,-537 447.34,-549 447.34,-549 447.34,-555 441.34,-561 435.34,-561"/>
<text text-anchor="middle" x="403.84" y="-539.3" font-family="Helvetica" font-size="14.00">MonteCarlo</text>
</g>
<!-- SetSample1&#45;&gt;MonteCarlo1 -->
<g id="edge30" class="edge">
<title>SetSample1&#45;&gt;MonteCarlo1</title>
<path fill="none" stroke="black" d="M397.46,-611.8C398.56,-600.16 400.03,-584.55 401.28,-571.24"/>
<polygon fill="black" stroke="black" points="404.77,-571.46 402.22,-561.18 397.8,-570.8 404.77,-571.46"/>
</g>
<!-- MonteCarlo&#45;&gt;AbsWorkspace1 -->
<g id="edge15" class="edge">
<title>MonteCarlo&#45;&gt;AbsWorkspace1</title>
<path fill="none" stroke="black" d="M446.94,-1223.81C445.58,-1215.79 443.93,-1206.05 442.42,-1197.07"/>
<polygon fill="black" stroke="black" points="445.84,-1196.31 440.72,-1187.03 438.94,-1197.47 445.84,-1196.31"/>
</g>
<!-- canGiven -->
<g id="node35" class="node">
<title>canGiven</title>
<polygon fill="limegreen" stroke="black" points="693.84,-1187 552.24,-1169 693.84,-1151 835.44,-1169 693.84,-1187"/>
<text text-anchor="middle" x="693.84" y="-1165.3" font-family="Helvetica" font-size="14.00">Container Workspace?</text>
</g>
<!-- MonteCarlo&#45;&gt;canGiven -->
<g id="edge16" class="edge">
<title>MonteCarlo&#45;&gt;canGiven</title>
<path fill="none" stroke="black" d="M493.46,-1228.31C535.52,-1216.07 599.12,-1197.56 643.35,-1184.69"/>
<polygon fill="black" stroke="black" points="644.41,-1188.03 653.03,-1181.88 642.45,-1181.31 644.41,-1188.03"/>
</g>
<!-- Multiply -->
<g id="node34" class="node">
<title>Multiply</title>
<path fill="lightskyblue" stroke="black" d="M429.34,-488C429.34,-488 390.34,-488 390.34,-488 384.34,-488 378.34,-482 378.34,-476 378.34,-476 378.34,-464 378.34,-464 378.34,-458 384.34,-452 390.34,-452 390.34,-452 429.34,-452 429.34,-452 435.34,-452 441.34,-458 441.34,-464 441.34,-464 441.34,-476 441.34,-476 441.34,-482 435.34,-488 429.34,-488"/>
<text text-anchor="middle" x="409.84" y="-466.3" font-family="Helvetica" font-size="14.00">Multiply</text>
</g>
<!-- MonteCarlo1&#45;&gt;Multiply -->
<g id="edge31" class="edge">
<title>MonteCarlo1&#45;&gt;Multiply</title>
<path fill="none" stroke="black" d="M405.29,-524.81C405.97,-516.79 406.8,-507.05 407.55,-498.07"/>
<polygon fill="black" stroke="black" points="411.05,-498.29 408.4,-488.03 404.07,-497.7 411.05,-498.29"/>
</g>
<!-- Scale&#45;&gt;Clone -->
<g id="edge20" class="edge">
<title>Scale&#45;&gt;Clone</title>
<path fill="none" stroke="black" d="M626.25,-990.81C631.45,-982.23 637.84,-971.68 643.58,-962.2"/>
<polygon fill="black" stroke="black" points="646.64,-963.91 648.82,-953.54 640.65,-960.28 646.64,-963.91"/>
</g>
<!-- Divide -->
<g id="node30" class="node">
<title>Divide</title>
<path fill="lightskyblue" stroke="black" d="M582.84,-415C582.84,-415 552.84,-415 552.84,-415 546.84,-415 540.84,-409 540.84,-403 540.84,-403 540.84,-391 540.84,-391 540.84,-385 546.84,-379 552.84,-379 552.84,-379 582.84,-379 582.84,-379 588.84,-379 594.84,-385 594.84,-391 594.84,-391 594.84,-403 594.84,-403 594.84,-409 588.84,-415 582.84,-415"/>
<text text-anchor="middle" x="567.84" y="-393.3" font-family="Helvetica" font-size="14.00">Divide</text>
</g>
<!-- Minus -->
<g id="node31" class="node">
<title>Minus</title>
<path fill="lightskyblue" stroke="black" d="M582.84,-342C582.84,-342 552.84,-342 552.84,-342 546.84,-342 540.84,-336 540.84,-330 540.84,-330 540.84,-318 540.84,-318 540.84,-312 546.84,-306 552.84,-306 552.84,-306 582.84,-306 582.84,-306 588.84,-306 594.84,-312 594.84,-318 594.84,-318 594.84,-330 594.84,-330 594.84,-336 588.84,-342 582.84,-342"/>
<text text-anchor="middle" x="567.84" y="-320.3" font-family="Helvetica" font-size="14.00">Minus</text>
</g>
<!-- Divide&#45;&gt;Minus -->
<g id="edge35" class="edge">
<title>Divide&#45;&gt;Minus</title>
<path fill="none" stroke="black" d="M567.84,-378.81C567.84,-370.79 567.84,-361.05 567.84,-352.07"/>
<polygon fill="black" stroke="black" points="571.34,-352.03 567.84,-342.03 564.34,-352.03 571.34,-352.03"/>
</g>
<!-- Minus&#45;&gt;ConvertUnits3 -->
<g id="edge36" class="edge">
<title>Minus&#45;&gt;ConvertUnits3</title>
<path fill="none" stroke="black" d="M563.9,-305.92C562.49,-295.58 562.56,-282.59 568.84,-273 573.64,-265.66 580.41,-259.84 587.94,-255.22"/>
<polygon fill="black" stroke="black" points="589.9,-258.14 597.07,-250.34 586.6,-251.97 589.9,-258.14"/>
<text text-anchor="middle" x="638.34" y="-276.8" font-family="Helvetica" font-size="14.00">Convert back to DeltaE</text>
</g>
<!-- GroupWorkspaces -->
<g id="node33" class="node">
<title>GroupWorkspaces</title>
<path fill="lightskyblue" stroke="black" d="M697.34,-109C697.34,-109 592.34,-109 592.34,-109 586.34,-109 580.34,-103 580.34,-97 580.34,-97 580.34,-85 580.34,-85 580.34,-79 586.34,-73 592.34,-73 592.34,-73 697.34,-73 697.34,-73 703.34,-73 709.34,-79 709.34,-85 709.34,-85 709.34,-97 709.34,-97 709.34,-103 703.34,-109 697.34,-109"/>
<text text-anchor="middle" x="644.84" y="-87.3" font-family="Helvetica" font-size="14.00">GroupWorkspaces</text>
</g>
<!-- AddSampleLogMultiple&#45;&gt;GroupWorkspaces -->
<g id="edge39" class="edge">
<title>AddSampleLogMultiple&#45;&gt;GroupWorkspaces</title>
<path fill="none" stroke="black" d="M644.84,-145.81C644.84,-137.79 644.84,-128.05 644.84,-119.07"/>
<polygon fill="black" stroke="black" points="648.34,-119.03 644.84,-109.03 641.34,-119.03 648.34,-119.03"/>
</g>
<!-- GroupWorkspaces&#45;&gt;OutputWorkspace -->
<g id="edge40" class="edge">
<title>GroupWorkspaces&#45;&gt;OutputWorkspace</title>
<path fill="none" stroke="black" d="M644.84,-72.81C644.84,-64.79 644.84,-55.05 644.84,-46.07"/>
<polygon fill="black" stroke="black" points="648.34,-46.03 644.84,-36.03 641.34,-46.03 648.34,-46.03"/>
</g>
<!-- Multiply&#45;&gt;CanAbsorptionWorkspace -->
<g id="edge32" class="edge">
<title>Multiply&#45;&gt;CanAbsorptionWorkspace</title>
<path fill="none" stroke="black" d="M409.84,-451.81C409.84,-443.79 409.84,-434.05 409.84,-425.07"/>
<polygon fill="black" stroke="black" points="413.34,-425.03 409.84,-415.03 406.34,-425.03 413.34,-425.03"/>
</g>
<!-- Multiply&#45;&gt;Divide -->
<g id="edge33" class="edge">
<title>Multiply&#45;&gt;Divide</title>
<path fill="none" stroke="black" d="M441.48,-455C465.91,-444.15 500.56,-428.71 530.84,-415 531.04,-414.91 531.24,-414.82 531.45,-414.73"/>
<polygon fill="black" stroke="black" points="533.13,-417.81 540.78,-410.48 530.23,-411.44 533.13,-417.81"/>
</g>
<!-- canGiven&#45;&gt;ConvertUnits2 -->
<g id="edge17" class="edge">
<title>canGiven&#45;&gt;ConvertUnits2</title>
<path fill="none" stroke="black" d="M684.81,-1152.01C677.95,-1139.86 668.37,-1122.9 660.43,-1108.83"/>
<polygon fill="black" stroke="black" points="663.45,-1107.07 655.49,-1100.08 657.36,-1110.51 663.45,-1107.07"/>
<text text-anchor="middle" x="684.34" y="-1121.8" font-family="Helvetica" font-size="14.00">Yes</text>
</g>
<!-- canGiven&#45;&gt;ConvertUnits3 -->
<g id="edge37" class="edge">
<title>canGiven&#45;&gt;ConvertUnits3</title>
<path fill="none" stroke="black" d="M702.55,-1151.91C710.77,-1135.18 721.84,-1108.01 721.84,-1083 721.84,-1083 721.84,-1083 721.84,-323 721.84,-299.92 722.14,-291.11 707.84,-273 704.22,-268.41 699.81,-264.33 695.04,-260.72"/>
<polygon fill="black" stroke="black" points="696.96,-257.8 686.72,-255.1 693.04,-263.6 696.96,-257.8"/>
<text text-anchor="middle" x="730.84" y="-699.3" font-family="Helvetica" font-size="14.00">No</text>
</g>
<!-- useCorrections -->
<g id="node36" class="node">
<title>useCorrections</title>
<polygon fill="limegreen" stroke="black" points="509.84,-808 367.4,-790 509.84,-772 652.28,-790 509.84,-808"/>
<text text-anchor="middle" x="509.84" y="-786.3" font-family="Helvetica" font-size="14.00">Container Corrections?</text>
</g>
<!-- useCorrections&#45;&gt;SetBeam1 -->
<g id="edge25" class="edge">
<title>useCorrections&#45;&gt;SetBeam1</title>
<path fill="none" stroke="black" d="M508.63,-771.8C507.81,-760.16 506.7,-744.55 505.76,-731.24"/>
<polygon fill="black" stroke="black" points="509.25,-730.9 505.05,-721.18 502.27,-731.4 509.25,-730.9"/>
<text text-anchor="middle" x="519.34" y="-742.8" font-family="Helvetica" font-size="14.00">Yes</text>
</g>
<!-- useCorrections&#45;&gt;Divide -->
<g id="edge34" class="edge">
<title>useCorrections&#45;&gt;Divide</title>
<path fill="none" stroke="black" d="M528.51,-774.23C545.79,-758.76 568.84,-732.74 568.84,-704 568.84,-704 568.84,-704 568.84,-469 568.84,-454.65 568.63,-438.67 568.41,-425.51"/>
<polygon fill="black" stroke="black" points="571.9,-425.15 568.22,-415.22 564.9,-425.28 571.9,-425.15"/>
<text text-anchor="middle" x="577.84" y="-582.8" font-family="Helvetica" font-size="14.00">No</text>
</g>
<!-- Clone&#45;&gt;Divide1 -->
<g id="edge21" class="edge">
<title>Clone&#45;&gt;Divide1</title>
<path fill="none" stroke="black" d="M634.57,-923.43C610.45,-911.94 573.18,-894.18 545.66,-881.07"/>
<polygon fill="black" stroke="black" points="546.9,-877.78 536.36,-876.64 543.89,-884.1 546.9,-877.78"/>
</g>
<!-- Divide1&#45;&gt;useCorrections -->
<g id="edge24" class="edge">
<title>Divide1&#45;&gt;useCorrections</title>
<path fill="none" stroke="black" d="M509.84,-844.81C509.84,-836.79 509.84,-827.05 509.84,-818.07"/>
<polygon fill="black" stroke="black" points="513.34,-818.03 509.84,-808.03 506.34,-818.03 513.34,-818.03"/>
</g>
</g>
</svg>
