<?xml version="1.0" encoding="UTF-8" standalone="no"?>
<!DOCTYPE svg PUBLIC "-//W3C//DTD SVG 1.1//EN"
 "http://www.w3.org/Graphics/SVG/1.1/DTD/svg11.dtd">
<!-- Generated by graphviz version 2.40.1 (20161225.0304)
 -->
<!-- Title: IndirectResolution Pages: 1 -->
<svg width="611pt" height="592pt"
 viewBox="0.00 0.00 611.29 592.00" xmlns="http://www.w3.org/2000/svg" xmlns:xlink="http://www.w3.org/1999/xlink">
<g id="graph0" class="graph" transform="scale(1 1) rotate(0) translate(4 588)">
<title>IndirectResolution</title>
<polygon fill="#ffffff" stroke="transparent" points="-4,4 -4,-588 607.2895,-588 607.2895,4 -4,4"/>
<text text-anchor="middle" x="301.6448" y="-568.8" font-family="Helvetica,sans-Serif" font-size="14.00" fill="#000000">IndirectResolution Flowchart</text>
<!-- ScaleFactorIsOne -->
<g id="node1" class="node">
<title>ScaleFactorIsOne</title>
<polygon fill="#32cd32" stroke="#000000" points="128.7457,-342 17.3092,-324 128.7457,-306 240.1822,-324 128.7457,-342"/>
<text text-anchor="middle" x="128.7457" y="-320.3" font-family="Helvetica,sans-Serif" font-size="14.00" fill="#000000">ScaleFactor is 1?</text>
</g>
<!-- Scale -->
<g id="node13" class="node">
<title>Scale</title>
<path fill="#87cefa" stroke="#000000" d="M396.7457,-255C396.7457,-255 366.7457,-255 366.7457,-255 360.7457,-255 354.7457,-249 354.7457,-243 354.7457,-243 354.7457,-231 354.7457,-231 354.7457,-225 360.7457,-219 366.7457,-219 366.7457,-219 396.7457,-219 396.7457,-219 402.7457,-219 408.7457,-225 408.7457,-231 408.7457,-231 408.7457,-243 408.7457,-243 408.7457,-249 402.7457,-255 396.7457,-255"/>
<text text-anchor="middle" x="381.7457" y="-233.3" font-family="Helvetica,sans-Serif" font-size="14.00" fill="#000000">Scale</text>
</g>
<!-- ScaleFactorIsOne&#45;&gt;Scale -->
<g id="edge8" class="edge">
<title>ScaleFactorIsOne&#45;&gt;Scale</title>
<path fill="none" stroke="#000000" d="M171.0317,-312.6693C213.1989,-300.9056 279.7996,-281.0673 344.8483,-255.0853"/>
<polygon fill="#000000" stroke="#000000" points="346.4743,-258.2031 354.4313,-251.2075 343.8486,-251.7142 346.4743,-258.2031"/>
<text text-anchor="middle" x="302.7457" y="-276.8" font-family="Helvetica,sans-Serif" font-size="14.00" fill="#000000">No</text>
</g>
<!-- CalculateFlatBackground -->
<g id="node14" class="node">
<title>CalculateFlatBackground</title>
<path fill="#87cefa" stroke="#000000" d="M364.2457,-182C364.2457,-182 221.2457,-182 221.2457,-182 215.2457,-182 209.2457,-176 209.2457,-170 209.2457,-170 209.2457,-158 209.2457,-158 209.2457,-152 215.2457,-146 221.2457,-146 221.2457,-146 364.2457,-146 364.2457,-146 370.2457,-146 376.2457,-152 376.2457,-158 376.2457,-158 376.2457,-170 376.2457,-170 376.2457,-176 370.2457,-182 364.2457,-182"/>
<text text-anchor="middle" x="292.7457" y="-160.3" font-family="Helvetica,sans-Serif" font-size="14.00" fill="#000000">CalculateFlatBackground</text>
</g>
<!-- ScaleFactorIsOne&#45;&gt;CalculateFlatBackground -->
<g id="edge10" class="edge">
<title>ScaleFactorIsOne&#45;&gt;CalculateFlatBackground</title>
<path fill="none" stroke="#000000" d="M124.9346,-306.3375C121.1215,-283.6479 118.2859,-244.195 137.7457,-219 147.3944,-206.5075 177.6202,-194.5468 208.8494,-184.9887"/>
<polygon fill="#000000" stroke="#000000" points="209.9654,-188.3084 218.5518,-182.1016 207.9688,-181.5991 209.9654,-188.3084"/>
<text text-anchor="middle" x="149.7457" y="-233.3" font-family="Helvetica,sans-Serif" font-size="14.00" fill="#000000">Yes</text>
</g>
<!-- InputFiles -->
<g id="node2" class="node">
<title>InputFiles</title>
<ellipse fill="#f0e68c" stroke="#000000" cx="48.7457" cy="-543" rx="48.9926" ry="18"/>
<text text-anchor="middle" x="48.7457" y="-539.3" font-family="Helvetica,sans-Serif" font-size="14.00" fill="#000000">InputFiles</text>
</g>
<!-- ISISIndirectEnergyTransferWrapper -->
<g id="node11" class="node">
<title>ISISIndirectEnergyTransferWrapper</title>
<path fill="#87cefa" stroke="#000000" d="M386.7457,-488C386.7457,-488 178.7457,-488 178.7457,-488 172.7457,-488 166.7457,-482 166.7457,-476 166.7457,-476 166.7457,-464 166.7457,-464 166.7457,-458 172.7457,-452 178.7457,-452 178.7457,-452 386.7457,-452 386.7457,-452 392.7457,-452 398.7457,-458 398.7457,-464 398.7457,-464 398.7457,-476 398.7457,-476 398.7457,-482 392.7457,-488 386.7457,-488"/>
<text text-anchor="middle" x="282.7457" y="-466.3" font-family="Helvetica,sans-Serif" font-size="14.00" fill="#000000">ISISIndirectEnergyTransferWrapper</text>
</g>
<!-- InputFiles&#45;&gt;ISISIndirectEnergyTransferWrapper -->
<g id="edge1" class="edge">
<title>InputFiles&#45;&gt;ISISIndirectEnergyTransferWrapper</title>
<path fill="none" stroke="#000000" d="M85.8381,-531.2594C92.4658,-529.1693 99.3087,-527.0164 105.7457,-525 141.6442,-513.7544 181.6676,-501.3099 214.5622,-491.1067"/>
<polygon fill="#000000" stroke="#000000" points="216.0148,-494.3207 224.5295,-488.0159 213.9415,-487.6348 216.0148,-494.3207"/>
</g>
<!-- Instrument -->
<g id="node3" class="node">
<title>Instrument</title>
<ellipse fill="#f0e68c" stroke="#000000" cx="167.7457" cy="-543" rx="52.7911" ry="18"/>
<text text-anchor="middle" x="167.7457" y="-539.3" font-family="Helvetica,sans-Serif" font-size="14.00" fill="#000000">Instrument</text>
</g>
<!-- Instrument&#45;&gt;ISISIndirectEnergyTransferWrapper -->
<g id="edge2" class="edge">
<title>Instrument&#45;&gt;ISISIndirectEnergyTransferWrapper</title>
<path fill="none" stroke="#000000" d="M192.9829,-526.9798C208.41,-517.187 228.4181,-504.4862 245.6281,-493.5616"/>
<polygon fill="#000000" stroke="#000000" points="247.7668,-496.3497 254.3337,-488.0354 244.0153,-490.4398 247.7668,-496.3497"/>
</g>
<!-- Analyser -->
<g id="node4" class="node">
<title>Analyser</title>
<ellipse fill="#f0e68c" stroke="#000000" cx="282.7457" cy="-543" rx="44.6926" ry="18"/>
<text text-anchor="middle" x="282.7457" y="-539.3" font-family="Helvetica,sans-Serif" font-size="14.00" fill="#000000">Analyser</text>
</g>
<!-- Analyser&#45;&gt;ISISIndirectEnergyTransferWrapper -->
<g id="edge3" class="edge">
<title>Analyser&#45;&gt;ISISIndirectEnergyTransferWrapper</title>
<path fill="none" stroke="#000000" d="M282.7457,-524.9551C282.7457,-516.8828 282.7457,-507.1764 282.7457,-498.1817"/>
<polygon fill="#000000" stroke="#000000" points="286.2458,-498.0903 282.7457,-488.0904 279.2458,-498.0904 286.2458,-498.0903"/>
</g>
<!-- Reflection -->
<g id="node5" class="node">
<title>Reflection</title>
<ellipse fill="#f0e68c" stroke="#000000" cx="395.7457" cy="-543" rx="50.0912" ry="18"/>
<text text-anchor="middle" x="395.7457" y="-539.3" font-family="Helvetica,sans-Serif" font-size="14.00" fill="#000000">Reflection</text>
</g>
<!-- Reflection&#45;&gt;ISISIndirectEnergyTransferWrapper -->
<g id="edge4" class="edge">
<title>Reflection&#45;&gt;ISISIndirectEnergyTransferWrapper</title>
<path fill="none" stroke="#000000" d="M371.2264,-527.1601C356.0809,-517.3759 336.3639,-504.6383 319.3875,-493.6713"/>
<polygon fill="#000000" stroke="#000000" points="321.0974,-490.6091 310.7985,-488.1226 317.2989,-496.4889 321.0974,-490.6091"/>
</g>
<!-- DetectorRange -->
<g id="node6" class="node">
<title>DetectorRange</title>
<ellipse fill="#f0e68c" stroke="#000000" cx="533.7457" cy="-543" rx="69.5877" ry="18"/>
<text text-anchor="middle" x="533.7457" y="-539.3" font-family="Helvetica,sans-Serif" font-size="14.00" fill="#000000">DetectorRange</text>
</g>
<!-- DetectorRange&#45;&gt;ISISIndirectEnergyTransferWrapper -->
<g id="edge5" class="edge">
<title>DetectorRange&#45;&gt;ISISIndirectEnergyTransferWrapper</title>
<path fill="none" stroke="#000000" d="M487.4159,-529.5256C450.2257,-518.7093 397.3582,-503.3335 354.671,-490.9185"/>
<polygon fill="#000000" stroke="#000000" points="355.4728,-487.5068 344.8932,-488.0748 353.5179,-494.2283 355.4728,-487.5068"/>
</g>
<!-- BackgroundRange -->
<g id="node7" class="node">
<title>BackgroundRange</title>
<ellipse fill="#f0e68c" stroke="#000000" cx="253.7457" cy="-237" rx="83.3857" ry="18"/>
<text text-anchor="middle" x="253.7457" y="-233.3" font-family="Helvetica,sans-Serif" font-size="14.00" fill="#000000">BackgroundRange</text>
</g>
<!-- BackgroundRange&#45;&gt;CalculateFlatBackground -->
<g id="edge13" class="edge">
<title>BackgroundRange&#45;&gt;CalculateFlatBackground</title>
<path fill="none" stroke="#000000" d="M263.3861,-218.9551C267.8862,-210.5319 273.3369,-200.3292 278.3142,-191.0128"/>
<polygon fill="#000000" stroke="#000000" points="281.4558,-192.5598 283.081,-182.0904 275.2817,-189.2613 281.4558,-192.5598"/>
</g>
<!-- RebinParam -->
<g id="node8" class="node">
<title>RebinParam</title>
<ellipse fill="#f0e68c" stroke="#000000" cx="131.7457" cy="-164" rx="59.5901" ry="18"/>
<text text-anchor="middle" x="131.7457" y="-160.3" font-family="Helvetica,sans-Serif" font-size="14.00" fill="#000000">RebinParam</text>
</g>
<!-- Rebin -->
<g id="node15" class="node">
<title>Rebin</title>
<path fill="#87cefa" stroke="#000000" d="M158.7457,-109C158.7457,-109 128.7457,-109 128.7457,-109 122.7457,-109 116.7457,-103 116.7457,-97 116.7457,-97 116.7457,-85 116.7457,-85 116.7457,-79 122.7457,-73 128.7457,-73 128.7457,-73 158.7457,-73 158.7457,-73 164.7457,-73 170.7457,-79 170.7457,-85 170.7457,-85 170.7457,-97 170.7457,-97 170.7457,-103 164.7457,-109 158.7457,-109"/>
<text text-anchor="middle" x="143.7457" y="-87.3" font-family="Helvetica,sans-Serif" font-size="14.00" fill="#000000">Rebin</text>
</g>
<!-- RebinParam&#45;&gt;Rebin -->
<g id="edge15" class="edge">
<title>RebinParam&#45;&gt;Rebin</title>
<path fill="none" stroke="#000000" d="M134.712,-145.9551C136.0389,-137.8828 137.6345,-128.1764 139.1131,-119.1817"/>
<polygon fill="#000000" stroke="#000000" points="142.6034,-119.5257 140.7719,-109.0904 135.6961,-118.3902 142.6034,-119.5257"/>
</g>
<!-- ScaleFactor -->
<g id="node9" class="node">
<title>ScaleFactor</title>
<ellipse fill="#f0e68c" stroke="#000000" cx="350.7457" cy="-324" rx="57.6901" ry="18"/>
<text text-anchor="middle" x="350.7457" y="-320.3" font-family="Helvetica,sans-Serif" font-size="14.00" fill="#000000">ScaleFactor</text>
</g>
<!-- ScaleFactor&#45;&gt;Scale -->
<g id="edge9" class="edge">
<title>ScaleFactor&#45;&gt;Scale</title>
<path fill="none" stroke="#000000" d="M357.1689,-305.9735C361.4086,-294.0751 367.0471,-278.2508 371.854,-264.7606"/>
<polygon fill="#000000" stroke="#000000" points="375.2711,-265.598 375.3307,-255.0034 368.6772,-263.2484 375.2711,-265.598"/>
</g>
<!-- OutputWorkspace -->
<g id="node10" class="node">
<title>OutputWorkspace</title>
<ellipse fill="#f0e68c" stroke="#000000" cx="143.7457" cy="-18" rx="81.7856" ry="18"/>
<text text-anchor="middle" x="143.7457" y="-14.3" font-family="Helvetica,sans-Serif" font-size="14.00" fill="#000000">OutputWorkspace</text>
</g>
<!-- ISISIndirectEnergyTransfer -->
<g id="node12" class="node">
<title>ISISIndirectEnergyTransfer</title>
<path fill="#87cefa" stroke="#000000" d="M360.2457,-415C360.2457,-415 205.2457,-415 205.2457,-415 199.2457,-415 193.2457,-409 193.2457,-403 193.2457,-403 193.2457,-391 193.2457,-391 193.2457,-385 199.2457,-379 205.2457,-379 205.2457,-379 360.2457,-379 360.2457,-379 366.2457,-379 372.2457,-385 372.2457,-391 372.2457,-391 372.2457,-403 372.2457,-403 372.2457,-409 366.2457,-415 360.2457,-415"/>
<text text-anchor="middle" x="282.7457" y="-393.3" font-family="Helvetica,sans-Serif" font-size="14.00" fill="#000000">ISISIndirectEnergyTransfer</text>
</g>
<!-- ISISIndirectEnergyTransferWrapper&#45;&gt;ISISIndirectEnergyTransfer -->
<g id="edge6" class="edge">
<title>ISISIndirectEnergyTransferWrapper&#45;&gt;ISISIndirectEnergyTransfer</title>
<path fill="none" stroke="#000000" d="M282.7457,-451.9551C282.7457,-443.8828 282.7457,-434.1764 282.7457,-425.1817"/>
<polygon fill="#000000" stroke="#000000" points="286.2458,-425.0903 282.7457,-415.0904 279.2458,-425.0904 286.2458,-425.0903"/>
</g>
<!-- ISISIndirectEnergyTransfer&#45;&gt;ScaleFactorIsOne -->
<g id="edge7" class="edge">
<title>ISISIndirectEnergyTransfer&#45;&gt;ScaleFactorIsOne</title>
<path fill="none" stroke="#000000" d="M244.6782,-378.9551C220.7741,-367.6239 190.0767,-353.0725 166.2754,-341.7901"/>
<polygon fill="#000000" stroke="#000000" points="167.729,-338.6058 157.1936,-337.485 164.7306,-344.9312 167.729,-338.6058"/>
</g>
<!-- ISISIndirectEnergyTransfer&#45;&gt;CalculateFlatBackground -->
<g id="edge12" class="edge">
<title>ISISIndirectEnergyTransfer&#45;&gt;CalculateFlatBackground</title>
<path fill="none" stroke="#000000" d="M369.717,-378.8826C388.5919,-370.764 406.3072,-359.0114 417.7457,-342 448.2491,-296.635 447.6194,-264.7821 417.7457,-219 408.4854,-204.8084 394.6525,-194.2541 379.522,-186.4122"/>
<polygon fill="#000000" stroke="#000000" points="381.0207,-183.2493 370.4883,-182.1014 378.006,-189.5669 381.0207,-183.2493"/>
</g>
<!-- Scale&#45;&gt;CalculateFlatBackground -->
<g id="edge11" class="edge">
<title>Scale&#45;&gt;CalculateFlatBackground</title>
<path fill="none" stroke="#000000" d="M359.7457,-218.9551C348.6205,-209.8299 334.9493,-198.6165 322.8638,-188.7036"/>
<polygon fill="#000000" stroke="#000000" points="324.7525,-185.7261 314.801,-182.0904 320.3132,-191.1384 324.7525,-185.7261"/>
</g>
<!-- CalculateFlatBackground&#45;&gt;Rebin -->
<g id="edge14" class="edge">
<title>CalculateFlatBackground&#45;&gt;Rebin</title>
<path fill="none" stroke="#000000" d="M255.9142,-145.9551C232.737,-134.5998 202.9591,-120.0106 179.9102,-108.7182"/>
<polygon fill="#000000" stroke="#000000" points="181.3214,-105.5121 170.8013,-104.2555 178.2416,-111.7982 181.3214,-105.5121"/>
</g>
<!-- Rebin&#45;&gt;OutputWorkspace -->
<g id="edge16" class="edge">
<title>Rebin&#45;&gt;OutputWorkspace</title>
<path fill="none" stroke="#000000" d="M143.7457,-72.9551C143.7457,-64.8828 143.7457,-55.1764 143.7457,-46.1817"/>
<polygon fill="#000000" stroke="#000000" points="147.2458,-46.0903 143.7457,-36.0904 140.2458,-46.0904 147.2458,-46.0903"/>
</g>
</g>
</svg>
