<?xml version="1.0" encoding="UTF-8" standalone="no"?>
<!DOCTYPE svg PUBLIC "-//W3C//DTD SVG 1.1//EN"
 "http://www.w3.org/Graphics/SVG/1.1/DTD/svg11.dtd">
<!-- Generated by graphviz version 3.0.0 (20220315.2325)
 -->
<!-- Title: IndirectAnnulusAbsorption Pages: 1 -->
<svg width="1888pt" height="1879pt"
 viewBox="0.00 0.00 1888.21 1879.00" xmlns="http://www.w3.org/2000/svg" xmlns:xlink="http://www.w3.org/1999/xlink">
<g id="graph0" class="graph" transform="scale(1 1) rotate(0) translate(4 1875)">
<title>IndirectAnnulusAbsorption</title>
<polygon fill="white" stroke="transparent" points="-4,4 -4,-1875 1884.21,-1875 1884.21,4 -4,4"/>
<text text-anchor="middle" x="940.1" y="-1855.8" font-family="Helvetica,sans-Serif" font-size="14.00">IndirectAnnulusAbsorption Flowchart</text>
<!-- SampleWorkspace1 -->
<g id="node1" class="node">
<title>SampleWorkspace1</title>
<ellipse fill="khaki" stroke="black" cx="1139.17" cy="-1830" rx="94.48" ry="18"/>
<text text-anchor="middle" x="1139.17" y="-1826.3" font-family="Helvetica,sans-Serif" font-size="14.00">SampleWorkspace</text>
</g>
<!-- GetEFixed -->
<g id="node25" class="node">
<title>GetEFixed</title>
<path fill="lightskyblue" stroke="black" d="M1134.17,-1775C1134.17,-1775 1072.17,-1775 1072.17,-1775 1066.17,-1775 1060.17,-1769 1060.17,-1763 1060.17,-1763 1060.17,-1751 1060.17,-1751 1060.17,-1745 1066.17,-1739 1072.17,-1739 1072.17,-1739 1134.17,-1739 1134.17,-1739 1140.17,-1739 1146.17,-1745 1146.17,-1751 1146.17,-1751 1146.17,-1763 1146.17,-1763 1146.17,-1769 1140.17,-1775 1134.17,-1775"/>
<text text-anchor="middle" x="1103.17" y="-1753.3" font-family="Helvetica,sans-Serif" font-size="14.00">GetEFixed</text>
</g>
<!-- SampleWorkspace1&#45;&gt;GetEFixed -->
<g id="edge1" class="edge">
<title>SampleWorkspace1&#45;&gt;GetEFixed</title>
<path fill="none" stroke="black" d="M1130.45,-1811.81C1126.25,-1803.53 1121.12,-1793.41 1116.45,-1784.19"/>
<polygon fill="black" stroke="black" points="1119.45,-1782.37 1111.8,-1775.03 1113.2,-1785.53 1119.45,-1782.37"/>
</g>
<!-- ConvertUnits1 -->
<g id="node26" class="node">
<title>ConvertUnits1</title>
<path fill="lightskyblue" stroke="black" d="M1218.67,-1629C1218.67,-1629 1135.67,-1629 1135.67,-1629 1129.67,-1629 1123.67,-1623 1123.67,-1617 1123.67,-1617 1123.67,-1605 1123.67,-1605 1123.67,-1599 1129.67,-1593 1135.67,-1593 1135.67,-1593 1218.67,-1593 1218.67,-1593 1224.67,-1593 1230.67,-1599 1230.67,-1605 1230.67,-1605 1230.67,-1617 1230.67,-1617 1230.67,-1623 1224.67,-1629 1218.67,-1629"/>
<text text-anchor="middle" x="1177.17" y="-1607.3" font-family="Helvetica,sans-Serif" font-size="14.00">ConvertUnits</text>
</g>
<!-- SampleWorkspace1&#45;&gt;ConvertUnits1 -->
<g id="edge4" class="edge">
<title>SampleWorkspace1&#45;&gt;ConvertUnits1</title>
<path fill="none" stroke="black" d="M1145.04,-1811.67C1148.42,-1801.16 1152.5,-1787.43 1155.17,-1775 1165.27,-1727.84 1171.62,-1671.95 1174.77,-1639.39"/>
<polygon fill="black" stroke="black" points="1178.27,-1639.56 1175.72,-1629.28 1171.3,-1638.91 1178.27,-1639.56"/>
</g>
<!-- SampleWorkspace2 -->
<g id="node2" class="node">
<title>SampleWorkspace2</title>
<ellipse fill="khaki" stroke="black" cx="441.17" cy="-543" rx="94.48" ry="18"/>
<text text-anchor="middle" x="441.17" y="-539.3" font-family="Helvetica,sans-Serif" font-size="14.00">SampleWorkspace</text>
</g>
<!-- Minus1 -->
<g id="node37" class="node">
<title>Minus1</title>
<path fill="lightskyblue" stroke="black" d="M520.17,-415C520.17,-415 486.17,-415 486.17,-415 480.17,-415 474.17,-409 474.17,-403 474.17,-403 474.17,-391 474.17,-391 474.17,-385 480.17,-379 486.17,-379 486.17,-379 520.17,-379 520.17,-379 526.17,-379 532.17,-385 532.17,-391 532.17,-391 532.17,-403 532.17,-403 532.17,-409 526.17,-415 520.17,-415"/>
<text text-anchor="middle" x="503.17" y="-393.3" font-family="Helvetica,sans-Serif" font-size="14.00">Minus</text>
</g>
<!-- SampleWorkspace2&#45;&gt;Minus1 -->
<g id="edge37" class="edge">
<title>SampleWorkspace2&#45;&gt;Minus1</title>
<path fill="none" stroke="black" d="M448.52,-524.92C459.24,-500.02 479.25,-453.54 491.86,-424.27"/>
<polygon fill="black" stroke="black" points="495.08,-425.63 495.82,-415.06 488.65,-422.86 495.08,-425.63"/>
</g>
<!-- Minus2 -->
<g id="node38" class="node">
<title>Minus2</title>
<path fill="lightskyblue" stroke="black" d="M401.17,-488C401.17,-488 367.17,-488 367.17,-488 361.17,-488 355.17,-482 355.17,-476 355.17,-476 355.17,-464 355.17,-464 355.17,-458 361.17,-452 367.17,-452 367.17,-452 401.17,-452 401.17,-452 407.17,-452 413.17,-458 413.17,-464 413.17,-464 413.17,-476 413.17,-476 413.17,-482 407.17,-488 401.17,-488"/>
<text text-anchor="middle" x="384.17" y="-466.3" font-family="Helvetica,sans-Serif" font-size="14.00">Minus</text>
</g>
<!-- SampleWorkspace2&#45;&gt;Minus2 -->
<g id="edge39" class="edge">
<title>SampleWorkspace2&#45;&gt;Minus2</title>
<path fill="none" stroke="black" d="M427.66,-525.17C420.73,-516.55 412.16,-505.86 404.45,-496.27"/>
<polygon fill="black" stroke="black" points="406.96,-493.81 397.97,-488.2 401.51,-498.19 406.96,-493.81"/>
</g>
<!-- SampleWorkspace_Wave -->
<g id="node3" class="node">
<title>SampleWorkspace_Wave</title>
<ellipse fill="khaki" stroke="black" cx="1246.17" cy="-1524" rx="123.48" ry="18"/>
<text text-anchor="middle" x="1246.17" y="-1520.3" font-family="Helvetica,sans-Serif" font-size="14.00">SampleWorkspace_Wave</text>
</g>
<!-- SetSampleMaterial1 -->
<g id="node29" class="node">
<title>SetSampleMaterial1</title>
<path fill="lightskyblue" stroke="black" d="M1499.17,-1469C1499.17,-1469 1377.17,-1469 1377.17,-1469 1371.17,-1469 1365.17,-1463 1365.17,-1457 1365.17,-1457 1365.17,-1445 1365.17,-1445 1365.17,-1439 1371.17,-1433 1377.17,-1433 1377.17,-1433 1499.17,-1433 1499.17,-1433 1505.17,-1433 1511.17,-1439 1511.17,-1445 1511.17,-1445 1511.17,-1457 1511.17,-1457 1511.17,-1463 1505.17,-1469 1499.17,-1469"/>
<text text-anchor="middle" x="1438.17" y="-1447.3" font-family="Helvetica,sans-Serif" font-size="14.00">SetSampleMaterial</text>
</g>
<!-- SampleWorkspace_Wave&#45;&gt;SetSampleMaterial1 -->
<g id="edge6" class="edge">
<title>SampleWorkspace_Wave&#45;&gt;SetSampleMaterial1</title>
<path fill="none" stroke="black" d="M1289.26,-1507.07C1316.79,-1496.88 1352.77,-1483.58 1382.47,-1472.6"/>
<polygon fill="black" stroke="black" points="1383.7,-1475.87 1391.87,-1469.12 1381.28,-1469.31 1383.7,-1475.87"/>
</g>
<!-- SampleWorkspace_Wave2 -->
<g id="node4" class="node">
<title>SampleWorkspace_Wave2</title>
<ellipse fill="khaki" stroke="black" cx="503.17" cy="-324" rx="123.48" ry="18"/>
<text text-anchor="middle" x="503.17" y="-320.3" font-family="Helvetica,sans-Serif" font-size="14.00">SampleWorkspace_Wave</text>
</g>
<!-- ConvertUnits3 -->
<g id="node28" class="node">
<title>ConvertUnits3</title>
<path fill="lightskyblue" stroke="black" d="M544.67,-255C544.67,-255 461.67,-255 461.67,-255 455.67,-255 449.67,-249 449.67,-243 449.67,-243 449.67,-231 449.67,-231 449.67,-225 455.67,-219 461.67,-219 461.67,-219 544.67,-219 544.67,-219 550.67,-219 556.67,-225 556.67,-231 556.67,-231 556.67,-243 556.67,-243 556.67,-249 550.67,-255 544.67,-255"/>
<text text-anchor="middle" x="503.17" y="-233.3" font-family="Helvetica,sans-Serif" font-size="14.00">ConvertUnits</text>
</g>
<!-- SampleWorkspace_Wave2&#45;&gt;ConvertUnits3 -->
<g id="edge46" class="edge">
<title>SampleWorkspace_Wave2&#45;&gt;ConvertUnits3</title>
<path fill="none" stroke="black" d="M503.17,-305.8C503.17,-294.16 503.17,-278.55 503.17,-265.24"/>
<polygon fill="black" stroke="black" points="506.67,-265.18 503.17,-255.18 499.67,-265.18 506.67,-265.18"/>
<text text-anchor="middle" x="583.17" y="-276.8" font-family="Helvetica,sans-Serif" font-size="14.00">Convert back to DeltaE</text>
</g>
<!-- SampleChemicalFormula -->
<g id="node5" class="node">
<title>SampleChemicalFormula</title>
<ellipse fill="khaki" stroke="black" cx="1510.17" cy="-1524" rx="122.38" ry="18"/>
<text text-anchor="middle" x="1510.17" y="-1520.3" font-family="Helvetica,sans-Serif" font-size="14.00">SampleChemicalFormula</text>
</g>
<!-- SampleChemicalFormula&#45;&gt;SetSampleMaterial1 -->
<g id="edge7" class="edge">
<title>SampleChemicalFormula&#45;&gt;SetSampleMaterial1</title>
<path fill="none" stroke="black" d="M1493.1,-1506.17C1484.09,-1497.29 1472.86,-1486.21 1462.91,-1476.4"/>
<polygon fill="black" stroke="black" points="1465.19,-1473.73 1455.61,-1469.2 1460.27,-1478.71 1465.19,-1473.73"/>
</g>
<!-- SampleNumberDensity -->
<g id="node6" class="node">
<title>SampleNumberDensity</title>
<ellipse fill="khaki" stroke="black" cx="1765.17" cy="-1524" rx="115.08" ry="18"/>
<text text-anchor="middle" x="1765.17" y="-1520.3" font-family="Helvetica,sans-Serif" font-size="14.00">SampleNumberDensity</text>
</g>
<!-- SampleNumberDensity&#45;&gt;SetSampleMaterial1 -->
<g id="edge8" class="edge">
<title>SampleNumberDensity&#45;&gt;SetSampleMaterial1</title>
<path fill="none" stroke="black" d="M1700.95,-1509.06C1649.54,-1497.89 1577.05,-1482.16 1521.23,-1470.03"/>
<polygon fill="black" stroke="black" points="1521.88,-1466.59 1511.36,-1467.89 1520.39,-1473.43 1521.88,-1466.59"/>
</g>
<!-- SampleInnerRadius -->
<g id="node7" class="node">
<title>SampleInnerRadius</title>
<ellipse fill="khaki" stroke="black" cx="598.17" cy="-1451" rx="98.58" ry="18"/>
<text text-anchor="middle" x="598.17" y="-1447.3" font-family="Helvetica,sans-Serif" font-size="14.00">SampleInnerRadius</text>
</g>
<!-- AnnulusAbsorption1 -->
<g id="node31" class="node">
<title>AnnulusAbsorption1</title>
<path fill="lightskyblue" stroke="black" d="M1063.67,-1396C1063.67,-1396 938.67,-1396 938.67,-1396 932.67,-1396 926.67,-1390 926.67,-1384 926.67,-1384 926.67,-1372 926.67,-1372 926.67,-1366 932.67,-1360 938.67,-1360 938.67,-1360 1063.67,-1360 1063.67,-1360 1069.67,-1360 1075.67,-1366 1075.67,-1372 1075.67,-1372 1075.67,-1384 1075.67,-1384 1075.67,-1390 1069.67,-1396 1063.67,-1396"/>
<text text-anchor="middle" x="1001.17" y="-1374.3" font-family="Helvetica,sans-Serif" font-size="14.00">AnnulusAbsorption</text>
</g>
<!-- SampleInnerRadius&#45;&gt;AnnulusAbsorption1 -->
<g id="edge10" class="edge">
<title>SampleInnerRadius&#45;&gt;AnnulusAbsorption1</title>
<path fill="none" stroke="black" d="M666.53,-1437.96C735.49,-1425.81 842.09,-1407.03 916.39,-1393.94"/>
<polygon fill="black" stroke="black" points="917.41,-1397.31 926.65,-1392.13 916.19,-1390.42 917.41,-1397.31"/>
</g>
<!-- SampleOuterRadius -->
<g id="node8" class="node">
<title>SampleOuterRadius</title>
<ellipse fill="khaki" stroke="black" cx="816.17" cy="-1451" rx="100.98" ry="18"/>
<text text-anchor="middle" x="816.17" y="-1447.3" font-family="Helvetica,sans-Serif" font-size="14.00">SampleOuterRadius</text>
</g>
<!-- SampleOuterRadius&#45;&gt;AnnulusAbsorption1 -->
<g id="edge11" class="edge">
<title>SampleOuterRadius&#45;&gt;AnnulusAbsorption1</title>
<path fill="none" stroke="black" d="M856.77,-1434.42C883.33,-1424.22 918.34,-1410.79 947.24,-1399.7"/>
<polygon fill="black" stroke="black" points="948.7,-1402.89 956.78,-1396.04 946.19,-1396.35 948.7,-1402.89"/>
</g>
<!-- SampleInnerRadius2 -->
<g id="node9" class="node">
<title>SampleInnerRadius2</title>
<ellipse fill="khaki" stroke="black" cx="622.17" cy="-630" rx="98.58" ry="18"/>
<text text-anchor="middle" x="622.17" y="-626.3" font-family="Helvetica,sans-Serif" font-size="14.00">SampleInnerRadius</text>
</g>
<!-- AnnulusAbsorption2 -->
<g id="node32" class="node">
<title>AnnulusAbsorption2</title>
<path fill="lightskyblue" stroke="black" d="M690.67,-561C690.67,-561 565.67,-561 565.67,-561 559.67,-561 553.67,-555 553.67,-549 553.67,-549 553.67,-537 553.67,-537 553.67,-531 559.67,-525 565.67,-525 565.67,-525 690.67,-525 690.67,-525 696.67,-525 702.67,-531 702.67,-537 702.67,-537 702.67,-549 702.67,-549 702.67,-555 696.67,-561 690.67,-561"/>
<text text-anchor="middle" x="628.17" y="-539.3" font-family="Helvetica,sans-Serif" font-size="14.00">AnnulusAbsorption</text>
</g>
<!-- SampleInnerRadius2&#45;&gt;AnnulusAbsorption2 -->
<g id="edge31" class="edge">
<title>SampleInnerRadius2&#45;&gt;AnnulusAbsorption2</title>
<path fill="none" stroke="black" d="M623.38,-611.8C624.2,-600.16 625.3,-584.55 626.24,-571.24"/>
<polygon fill="black" stroke="black" points="629.74,-571.4 626.95,-561.18 622.76,-570.9 629.74,-571.4"/>
</g>
<!-- SampleOuterRadius2 -->
<g id="node10" class="node">
<title>SampleOuterRadius2</title>
<ellipse fill="khaki" stroke="black" cx="840.17" cy="-630" rx="100.98" ry="18"/>
<text text-anchor="middle" x="840.17" y="-626.3" font-family="Helvetica,sans-Serif" font-size="14.00">SampleOuterRadius</text>
</g>
<!-- SampleOuterRadius2&#45;&gt;AnnulusAbsorption2 -->
<g id="edge32" class="edge">
<title>SampleOuterRadius2&#45;&gt;AnnulusAbsorption2</title>
<path fill="none" stroke="black" d="M800.79,-613.21C766.82,-599.59 717.51,-579.82 680.28,-564.89"/>
<polygon fill="black" stroke="black" points="681.19,-561.49 670.61,-561.02 678.59,-567.99 681.19,-561.49"/>
</g>
<!-- AbsWorkspace1 -->
<g id="node11" class="node">
<title>AbsWorkspace1</title>
<ellipse fill="khaki" stroke="black" cx="1001.17" cy="-1305" rx="109.68" ry="18"/>
<text text-anchor="middle" x="1001.17" y="-1301.3" font-family="Helvetica,sans-Serif" font-size="14.00">AbsorptionWorkspace</text>
</g>
<!-- canGiven -->
<g id="node41" class="node">
<title>canGiven</title>
<polygon fill="limegreen" stroke="black" points="1001.17,-1250 880.01,-1232 1001.17,-1214 1122.32,-1232 1001.17,-1250"/>
<text text-anchor="middle" x="1001.17" y="-1228.3" font-family="Helvetica,sans-Serif" font-size="14.00">Can Workspace?</text>
</g>
<!-- AbsWorkspace1&#45;&gt;canGiven -->
<g id="edge15" class="edge">
<title>AbsWorkspace1&#45;&gt;canGiven</title>
<path fill="none" stroke="black" d="M1001.17,-1286.81C1001.17,-1278.79 1001.17,-1269.05 1001.17,-1260.07"/>
<polygon fill="black" stroke="black" points="1004.67,-1260.03 1001.17,-1250.03 997.67,-1260.03 1004.67,-1260.03"/>
</g>
<!-- AbsWorkspace2 -->
<g id="node12" class="node">
<title>AbsWorkspace2</title>
<ellipse fill="khaki" stroke="black" cx="227.17" cy="-470" rx="109.68" ry="18"/>
<text text-anchor="middle" x="227.17" y="-466.3" font-family="Helvetica,sans-Serif" font-size="14.00">AbsorptionWorkspace</text>
</g>
<!-- Divide2 -->
<g id="node35" class="node">
<title>Divide2</title>
<path fill="lightskyblue" stroke="black" d="M402.17,-415C402.17,-415 366.17,-415 366.17,-415 360.17,-415 354.17,-409 354.17,-403 354.17,-403 354.17,-391 354.17,-391 354.17,-385 360.17,-379 366.17,-379 366.17,-379 402.17,-379 402.17,-379 408.17,-379 414.17,-385 414.17,-391 414.17,-391 414.17,-403 414.17,-403 414.17,-409 408.17,-415 402.17,-415"/>
<text text-anchor="middle" x="384.17" y="-393.3" font-family="Helvetica,sans-Serif" font-size="14.00">Divide</text>
</g>
<!-- AbsWorkspace2&#45;&gt;Divide2 -->
<g id="edge41" class="edge">
<title>AbsWorkspace2&#45;&gt;Divide2</title>
<path fill="none" stroke="black" d="M262.79,-452.89C287.18,-441.86 319.53,-427.23 344.7,-415.85"/>
<polygon fill="black" stroke="black" points="346.3,-418.97 353.97,-411.66 343.41,-412.59 346.3,-418.97"/>
</g>
<!-- CanWorkspace -->
<g id="node13" class="node">
<title>CanWorkspace</title>
<ellipse fill="khaki" stroke="black" cx="935.17" cy="-1145" rx="77.99" ry="18"/>
<text text-anchor="middle" x="935.17" y="-1141.3" font-family="Helvetica,sans-Serif" font-size="14.00">CanWorkspace</text>
</g>
<!-- ConvertUnits2 -->
<g id="node27" class="node">
<title>ConvertUnits2</title>
<path fill="lightskyblue" stroke="black" d="M813.67,-1055C813.67,-1055 730.67,-1055 730.67,-1055 724.67,-1055 718.67,-1049 718.67,-1043 718.67,-1043 718.67,-1031 718.67,-1031 718.67,-1025 724.67,-1019 730.67,-1019 730.67,-1019 813.67,-1019 813.67,-1019 819.67,-1019 825.67,-1025 825.67,-1031 825.67,-1031 825.67,-1043 825.67,-1043 825.67,-1049 819.67,-1055 813.67,-1055"/>
<text text-anchor="middle" x="772.17" y="-1033.3" font-family="Helvetica,sans-Serif" font-size="14.00">ConvertUnits</text>
</g>
<!-- CanWorkspace&#45;&gt;ConvertUnits2 -->
<g id="edge17" class="edge">
<title>CanWorkspace&#45;&gt;ConvertUnits2</title>
<path fill="none" stroke="black" d="M910.41,-1127.9C882.93,-1110.03 838.37,-1081.05 807.29,-1060.84"/>
<polygon fill="black" stroke="black" points="808.8,-1057.65 798.51,-1055.13 804.99,-1063.52 808.8,-1057.65"/>
</g>
<!-- CanWorkspace_Wave -->
<g id="node14" class="node">
<title>CanWorkspace_Wave</title>
<ellipse fill="khaki" stroke="black" cx="389.17" cy="-950" rx="107.48" ry="18"/>
<text text-anchor="middle" x="389.17" y="-946.3" font-family="Helvetica,sans-Serif" font-size="14.00">CanWorkspace_Wave</text>
</g>
<!-- canScale -->
<g id="node42" class="node">
<title>canScale</title>
<polygon fill="limegreen" stroke="black" points="103.17,-895 18.54,-877 103.17,-859 187.79,-877 103.17,-895"/>
<text text-anchor="middle" x="103.17" y="-873.3" font-family="Helvetica,sans-Serif" font-size="14.00">Can Scale?</text>
</g>
<!-- CanWorkspace_Wave&#45;&gt;canScale -->
<g id="edge20" class="edge">
<title>CanWorkspace_Wave&#45;&gt;canScale</title>
<path fill="none" stroke="black" d="M331.63,-934.72C278.22,-921.46 199.68,-901.96 150,-889.63"/>
<polygon fill="black" stroke="black" points="150.71,-886.2 140.16,-887.18 149.03,-892.99 150.71,-886.2"/>
</g>
<!-- CanScale -->
<g id="node15" class="node">
<title>CanScale</title>
<ellipse fill="khaki" stroke="black" cx="258.17" cy="-877" rx="51.99" ry="18"/>
<text text-anchor="middle" x="258.17" y="-873.3" font-family="Helvetica,sans-Serif" font-size="14.00">CanScale</text>
</g>
<!-- Scale -->
<g id="node33" class="node">
<title>Scale</title>
<path fill="lightskyblue" stroke="black" d="M254.17,-808C254.17,-808 224.17,-808 224.17,-808 218.17,-808 212.17,-802 212.17,-796 212.17,-796 212.17,-784 212.17,-784 212.17,-778 218.17,-772 224.17,-772 224.17,-772 254.17,-772 254.17,-772 260.17,-772 266.17,-778 266.17,-784 266.17,-784 266.17,-796 266.17,-796 266.17,-802 260.17,-808 254.17,-808"/>
<text text-anchor="middle" x="239.17" y="-786.3" font-family="Helvetica,sans-Serif" font-size="14.00">Scale</text>
</g>
<!-- CanScale&#45;&gt;Scale -->
<g id="edge22" class="edge">
<title>CanScale&#45;&gt;Scale</title>
<path fill="none" stroke="black" d="M254.32,-858.8C251.72,-847.16 248.23,-831.55 245.26,-818.24"/>
<polygon fill="black" stroke="black" points="248.6,-817.17 243.01,-808.18 241.77,-818.7 248.6,-817.17"/>
</g>
<!-- CanChemicalFormula -->
<g id="node16" class="node">
<title>CanChemicalFormula</title>
<ellipse fill="khaki" stroke="black" cx="796.17" cy="-717" rx="106.68" ry="18"/>
<text text-anchor="middle" x="796.17" y="-713.3" font-family="Helvetica,sans-Serif" font-size="14.00">CanChemicalFormula</text>
</g>
<!-- SetSampleMaterial2 -->
<g id="node30" class="node">
<title>SetSampleMaterial2</title>
<path fill="lightskyblue" stroke="black" d="M1093.17,-648C1093.17,-648 971.17,-648 971.17,-648 965.17,-648 959.17,-642 959.17,-636 959.17,-636 959.17,-624 959.17,-624 959.17,-618 965.17,-612 971.17,-612 971.17,-612 1093.17,-612 1093.17,-612 1099.17,-612 1105.17,-618 1105.17,-624 1105.17,-624 1105.17,-636 1105.17,-636 1105.17,-642 1099.17,-648 1093.17,-648"/>
<text text-anchor="middle" x="1032.17" y="-626.3" font-family="Helvetica,sans-Serif" font-size="14.00">SetSampleMaterial</text>
</g>
<!-- CanChemicalFormula&#45;&gt;SetSampleMaterial2 -->
<g id="edge26" class="edge">
<title>CanChemicalFormula&#45;&gt;SetSampleMaterial2</title>
<path fill="none" stroke="black" d="M839.18,-700.51C877.29,-686.78 933.23,-666.64 975.08,-651.56"/>
<polygon fill="black" stroke="black" points="976.36,-654.82 984.58,-648.14 973.99,-648.23 976.36,-654.82"/>
</g>
<!-- CanNumberDensity -->
<g id="node17" class="node">
<title>CanNumberDensity</title>
<ellipse fill="khaki" stroke="black" cx="1019.17" cy="-717" rx="98.58" ry="18"/>
<text text-anchor="middle" x="1019.17" y="-713.3" font-family="Helvetica,sans-Serif" font-size="14.00">CanNumberDensity</text>
</g>
<!-- CanNumberDensity&#45;&gt;SetSampleMaterial2 -->
<g id="edge27" class="edge">
<title>CanNumberDensity&#45;&gt;SetSampleMaterial2</title>
<path fill="none" stroke="black" d="M1021.8,-698.8C1023.58,-687.16 1025.97,-671.55 1028,-658.24"/>
<polygon fill="black" stroke="black" points="1031.49,-658.59 1029.54,-648.18 1024.57,-657.53 1031.49,-658.59"/>
</g>
<!-- CanInnerRadius -->
<g id="node18" class="node">
<title>CanInnerRadius</title>
<ellipse fill="khaki" stroke="black" cx="234.17" cy="-630" rx="83.39" ry="18"/>
<text text-anchor="middle" x="234.17" y="-626.3" font-family="Helvetica,sans-Serif" font-size="14.00">CanInnerRadius</text>
</g>
<!-- CanInnerRadius&#45;&gt;AnnulusAbsorption2 -->
<g id="edge29" class="edge">
<title>CanInnerRadius&#45;&gt;AnnulusAbsorption2</title>
<path fill="none" stroke="black" d="M291.04,-616.73C357.22,-602.45 467.15,-578.74 543.41,-562.29"/>
<polygon fill="black" stroke="black" points="544.43,-565.65 553.47,-560.12 542.95,-558.8 544.43,-565.65"/>
</g>
<!-- CanOuterRadius -->
<g id="node19" class="node">
<title>CanOuterRadius</title>
<ellipse fill="khaki" stroke="black" cx="420.17" cy="-630" rx="85.29" ry="18"/>
<text text-anchor="middle" x="420.17" y="-626.3" font-family="Helvetica,sans-Serif" font-size="14.00">CanOuterRadius</text>
</g>
<!-- CanOuterRadius&#45;&gt;AnnulusAbsorption2 -->
<g id="edge30" class="edge">
<title>CanOuterRadius&#45;&gt;AnnulusAbsorption2</title>
<path fill="none" stroke="black" d="M457.35,-613.8C490.61,-600.21 539.66,-580.17 576.68,-565.04"/>
<polygon fill="black" stroke="black" points="578.37,-568.13 586.3,-561.11 575.72,-561.65 578.37,-568.13"/>
</g>
<!-- ElementSize1 -->
<g id="node20" class="node">
<title>ElementSize1</title>
<ellipse fill="khaki" stroke="black" cx="1001.17" cy="-1451" rx="66.09" ry="18"/>
<text text-anchor="middle" x="1001.17" y="-1447.3" font-family="Helvetica,sans-Serif" font-size="14.00">ElementSize</text>
</g>
<!-- ElementSize1&#45;&gt;AnnulusAbsorption1 -->
<g id="edge12" class="edge">
<title>ElementSize1&#45;&gt;AnnulusAbsorption1</title>
<path fill="none" stroke="black" d="M1001.17,-1432.81C1001.17,-1424.79 1001.17,-1415.05 1001.17,-1406.07"/>
<polygon fill="black" stroke="black" points="1004.67,-1406.03 1001.17,-1396.03 997.67,-1406.03 1004.67,-1406.03"/>
</g>
<!-- SampleLogs -->
<g id="node21" class="node">
<title>SampleLogs</title>
<ellipse fill="khaki" stroke="black" cx="366.17" cy="-237" rx="65.79" ry="18"/>
<text text-anchor="middle" x="366.17" y="-233.3" font-family="Helvetica,sans-Serif" font-size="14.00">SampleLogs</text>
</g>
<!-- AddSampleLogMultiple -->
<g id="node39" class="node">
<title>AddSampleLogMultiple</title>
<path fill="lightskyblue" stroke="black" d="M454.17,-182C454.17,-182 302.17,-182 302.17,-182 296.17,-182 290.17,-176 290.17,-170 290.17,-170 290.17,-158 290.17,-158 290.17,-152 296.17,-146 302.17,-146 302.17,-146 454.17,-146 454.17,-146 460.17,-146 466.17,-152 466.17,-158 466.17,-158 466.17,-170 466.17,-170 466.17,-176 460.17,-182 454.17,-182"/>
<text text-anchor="middle" x="378.17" y="-160.3" font-family="Helvetica,sans-Serif" font-size="14.00">AddSampleLogMultiple</text>
</g>
<!-- SampleLogs&#45;&gt;AddSampleLogMultiple -->
<g id="edge48" class="edge">
<title>SampleLogs&#45;&gt;AddSampleLogMultiple</title>
<path fill="none" stroke="black" d="M369.07,-218.81C370.43,-210.79 372.07,-201.05 373.59,-192.07"/>
<polygon fill="black" stroke="black" points="377.07,-192.47 375.29,-182.03 370.17,-191.31 377.07,-192.47"/>
</g>
<!-- EFixed1 -->
<g id="node22" class="node">
<title>EFixed1</title>
<ellipse fill="khaki" stroke="black" cx="1095.17" cy="-1684" rx="40.09" ry="18"/>
<text text-anchor="middle" x="1095.17" y="-1680.3" font-family="Helvetica,sans-Serif" font-size="14.00">eFixed</text>
</g>
<!-- EFixed1&#45;&gt;ConvertUnits1 -->
<g id="edge3" class="edge">
<title>EFixed1&#45;&gt;ConvertUnits1</title>
<path fill="none" stroke="black" d="M1112.96,-1667.59C1123.7,-1658.29 1137.61,-1646.25 1149.74,-1635.75"/>
<polygon fill="black" stroke="black" points="1152.13,-1638.31 1157.4,-1629.12 1147.55,-1633.02 1152.13,-1638.31"/>
</g>
<!-- EFixed1&#45;&gt;AnnulusAbsorption1 -->
<g id="edge13" class="edge">
<title>EFixed1&#45;&gt;AnnulusAbsorption1</title>
<path fill="none" stroke="black" d="M1095.17,-1665.78C1095.17,-1651.41 1095.17,-1630.37 1095.17,-1612 1095.17,-1612 1095.17,-1612 1095.17,-1450 1095.17,-1428.1 1078.72,-1412.09 1059.58,-1400.89"/>
<polygon fill="black" stroke="black" points="1061.11,-1397.74 1050.64,-1396.07 1057.79,-1403.9 1061.11,-1397.74"/>
</g>
<!-- EFixed2 -->
<g id="node23" class="node">
<title>EFixed2</title>
<ellipse fill="khaki" stroke="black" cx="772.17" cy="-1145" rx="40.09" ry="18"/>
<text text-anchor="middle" x="772.17" y="-1141.3" font-family="Helvetica,sans-Serif" font-size="14.00">eFixed</text>
</g>
<!-- EFixed2&#45;&gt;ConvertUnits2 -->
<g id="edge18" class="edge">
<title>EFixed2&#45;&gt;ConvertUnits2</title>
<path fill="none" stroke="black" d="M772.17,-1126.97C772.17,-1110.38 772.17,-1084.88 772.17,-1065.43"/>
<polygon fill="black" stroke="black" points="775.67,-1065.34 772.17,-1055.34 768.67,-1065.34 775.67,-1065.34"/>
</g>
<!-- OutputWorkspace -->
<g id="node24" class="node">
<title>OutputWorkspace</title>
<ellipse fill="khaki" stroke="black" cx="378.17" cy="-18" rx="92.08" ry="18"/>
<text text-anchor="middle" x="378.17" y="-14.3" font-family="Helvetica,sans-Serif" font-size="14.00">OutputWorkspace</text>
</g>
<!-- GetEFixed&#45;&gt;EFixed1 -->
<g id="edge2" class="edge">
<title>GetEFixed&#45;&gt;EFixed1</title>
<path fill="none" stroke="black" d="M1101.23,-1738.81C1100.33,-1730.79 1099.23,-1721.05 1098.22,-1712.07"/>
<polygon fill="black" stroke="black" points="1101.68,-1711.57 1097.09,-1702.03 1094.73,-1712.36 1101.68,-1711.57"/>
</g>
<!-- ConvertUnits1&#45;&gt;SampleWorkspace_Wave -->
<g id="edge5" class="edge">
<title>ConvertUnits1&#45;&gt;SampleWorkspace_Wave</title>
<path fill="none" stroke="black" d="M1191.13,-1592.8C1201.04,-1580.59 1214.51,-1563.99 1225.65,-1550.28"/>
<polygon fill="black" stroke="black" points="1228.64,-1552.15 1232.22,-1542.18 1223.2,-1547.73 1228.64,-1552.15"/>
<text text-anchor="middle" x="1361.17" y="-1563.8" font-family="Helvetica,sans-Serif" font-size="14.00">Convert input workspace into Wavelength</text>
</g>
<!-- ConvertUnits2&#45;&gt;CanWorkspace_Wave -->
<g id="edge19" class="edge">
<title>ConvertUnits2&#45;&gt;CanWorkspace_Wave</title>
<path fill="none" stroke="black" d="M718.51,-1024.09C651.22,-1009.16 535.64,-983.51 460.84,-966.91"/>
<polygon fill="black" stroke="black" points="461.54,-963.48 451.02,-964.73 460.02,-970.31 461.54,-963.48"/>
<text text-anchor="middle" x="744.67" y="-989.8" font-family="Helvetica,sans-Serif" font-size="14.00">Convert can workspace into Wavelength</text>
</g>
<!-- ConvertUnits3&#45;&gt;AddSampleLogMultiple -->
<g id="edge47" class="edge">
<title>ConvertUnits3&#45;&gt;AddSampleLogMultiple</title>
<path fill="none" stroke="black" d="M473.23,-218.99C456.5,-209.49 435.45,-197.54 417.41,-187.29"/>
<polygon fill="black" stroke="black" points="418.72,-184.01 408.3,-182.11 415.26,-190.1 418.72,-184.01"/>
</g>
<!-- SetSampleMaterial1&#45;&gt;AnnulusAbsorption1 -->
<g id="edge9" class="edge">
<title>SetSampleMaterial1&#45;&gt;AnnulusAbsorption1</title>
<path fill="none" stroke="black" d="M1365.02,-1438.12C1288.13,-1425.62 1167.28,-1405.99 1086.19,-1392.81"/>
<polygon fill="black" stroke="black" points="1086.45,-1389.31 1076.01,-1391.16 1085.32,-1396.22 1086.45,-1389.31"/>
</g>
<!-- SetSampleMaterial2&#45;&gt;AnnulusAbsorption2 -->
<g id="edge28" class="edge">
<title>SetSampleMaterial2&#45;&gt;AnnulusAbsorption2</title>
<path fill="none" stroke="black" d="M959.01,-613.61C889.73,-599.03 785.75,-577.15 712.9,-561.83"/>
<polygon fill="black" stroke="black" points="713.34,-558.34 702.84,-559.71 711.9,-565.19 713.34,-558.34"/>
</g>
<!-- Divide1 -->
<g id="node34" class="node">
<title>Divide1</title>
<path fill="lightskyblue" stroke="black" d="M646.17,-488C646.17,-488 610.17,-488 610.17,-488 604.17,-488 598.17,-482 598.17,-476 598.17,-476 598.17,-464 598.17,-464 598.17,-458 604.17,-452 610.17,-452 610.17,-452 646.17,-452 646.17,-452 652.17,-452 658.17,-458 658.17,-464 658.17,-464 658.17,-476 658.17,-476 658.17,-482 652.17,-488 646.17,-488"/>
<text text-anchor="middle" x="628.17" y="-466.3" font-family="Helvetica,sans-Serif" font-size="14.00">Divide</text>
</g>
<!-- SetSampleMaterial2&#45;&gt;Divide1 -->
<g id="edge35" class="edge">
<title>SetSampleMaterial2&#45;&gt;Divide1</title>
<path fill="none" stroke="black" d="M1031.65,-611.97C1029.95,-588.52 1023.2,-546.73 997.17,-525 947.85,-483.82 753.21,-474.03 668.22,-471.72"/>
<polygon fill="black" stroke="black" points="668.26,-468.22 658.18,-471.46 668.09,-475.21 668.26,-468.22"/>
</g>
<!-- AnnulusAbsorption1&#45;&gt;AbsWorkspace1 -->
<g id="edge14" class="edge">
<title>AnnulusAbsorption1&#45;&gt;AbsWorkspace1</title>
<path fill="none" stroke="black" d="M1001.17,-1359.81C1001.17,-1351.79 1001.17,-1342.05 1001.17,-1333.07"/>
<polygon fill="black" stroke="black" points="1004.67,-1333.03 1001.17,-1323.03 997.67,-1333.03 1004.67,-1333.03"/>
</g>
<!-- AnnulusAbsorption2&#45;&gt;AnnulusAbsorption2 -->
<g id="edge33" class="edge">
<title>AnnulusAbsorption2&#45;&gt;AnnulusAbsorption2</title>
<path fill="none" stroke="black" d="M702.93,-549.06C713.54,-548.08 720.67,-546.06 720.67,-543 720.67,-541.04 717.74,-539.51 712.85,-538.4"/>
<polygon fill="black" stroke="black" points="713.33,-534.93 702.93,-536.94 712.32,-541.86 713.33,-534.93"/>
<text text-anchor="middle" x="854.67" y="-539.3" font-family="Helvetica,sans-Serif" font-size="14.00">Repeated for Inner/Outer, Can/Sample</text>
</g>
<!-- AnnulusAbsorption2&#45;&gt;Divide1 -->
<g id="edge34" class="edge">
<title>AnnulusAbsorption2&#45;&gt;Divide1</title>
<path fill="none" stroke="black" d="M628.17,-524.81C628.17,-516.79 628.17,-507.05 628.17,-498.07"/>
<polygon fill="black" stroke="black" points="631.67,-498.03 628.17,-488.03 624.67,-498.03 631.67,-498.03"/>
</g>
<!-- useCorrections -->
<g id="node43" class="node">
<title>useCorrections</title>
<polygon fill="limegreen" stroke="black" points="123.17,-735 -0.17,-717 123.17,-699 246.5,-717 123.17,-735"/>
<text text-anchor="middle" x="123.17" y="-713.3" font-family="Helvetica,sans-Serif" font-size="14.00">Can Corrections?</text>
</g>
<!-- Scale&#45;&gt;useCorrections -->
<g id="edge23" class="edge">
<title>Scale&#45;&gt;useCorrections</title>
<path fill="none" stroke="black" d="M211.97,-772.35C194.86,-761.88 172.72,-748.33 154.82,-737.38"/>
<polygon fill="black" stroke="black" points="156.26,-734.15 145.9,-731.91 152.6,-740.12 156.26,-734.15"/>
</g>
<!-- Divide1&#45;&gt;Minus1 -->
<g id="edge36" class="edge">
<title>Divide1&#45;&gt;Minus1</title>
<path fill="none" stroke="black" d="M598.23,-451.99C581.17,-442.31 559.63,-430.07 541.37,-419.7"/>
<polygon fill="black" stroke="black" points="542.86,-416.52 532.43,-414.62 539.4,-422.6 542.86,-416.52"/>
</g>
<!-- Divide2&#45;&gt;SampleWorkspace_Wave2 -->
<g id="edge44" class="edge">
<title>Divide2&#45;&gt;SampleWorkspace_Wave2</title>
<path fill="none" stroke="black" d="M412.67,-378.99C428.83,-369.35 449.22,-357.18 466.56,-346.84"/>
<polygon fill="black" stroke="black" points="468.51,-349.75 475.31,-341.62 464.93,-343.74 468.51,-349.75"/>
</g>
<!-- Divide3 -->
<g id="node36" class="node">
<title>Divide3</title>
<path fill="lightskyblue" stroke="black" d="M1118.17,-1109C1118.17,-1109 1082.17,-1109 1082.17,-1109 1076.17,-1109 1070.17,-1103 1070.17,-1097 1070.17,-1097 1070.17,-1085 1070.17,-1085 1070.17,-1079 1076.17,-1073 1082.17,-1073 1082.17,-1073 1118.17,-1073 1118.17,-1073 1124.17,-1073 1130.17,-1079 1130.17,-1085 1130.17,-1085 1130.17,-1097 1130.17,-1097 1130.17,-1103 1124.17,-1109 1118.17,-1109"/>
<text text-anchor="middle" x="1100.17" y="-1087.3" font-family="Helvetica,sans-Serif" font-size="14.00">Divide</text>
</g>
<!-- Divide3&#45;&gt;SampleWorkspace_Wave2 -->
<g id="edge45" class="edge">
<title>Divide3&#45;&gt;SampleWorkspace_Wave2</title>
<path fill="none" stroke="black" d="M1114.22,-1072.89C1127.75,-1054.64 1146.17,-1024.31 1146.17,-994.5 1146.17,-994.5 1146.17,-994.5 1146.17,-396 1146.17,-345.13 824.14,-330.7 635.88,-326.61"/>
<polygon fill="black" stroke="black" points="635.7,-323.11 625.62,-326.4 635.55,-330.11 635.7,-323.11"/>
</g>
<!-- Minus1&#45;&gt;SampleWorkspace_Wave2 -->
<g id="edge43" class="edge">
<title>Minus1&#45;&gt;SampleWorkspace_Wave2</title>
<path fill="none" stroke="black" d="M503.17,-378.81C503.17,-370.79 503.17,-361.05 503.17,-352.07"/>
<polygon fill="black" stroke="black" points="506.67,-352.03 503.17,-342.03 499.67,-352.03 506.67,-352.03"/>
</g>
<!-- Minus2&#45;&gt;Divide2 -->
<g id="edge40" class="edge">
<title>Minus2&#45;&gt;Divide2</title>
<path fill="none" stroke="black" d="M384.17,-451.81C384.17,-443.79 384.17,-434.05 384.17,-425.07"/>
<polygon fill="black" stroke="black" points="387.67,-425.03 384.17,-415.03 380.67,-425.03 387.67,-425.03"/>
</g>
<!-- GroupWorkspaces -->
<g id="node40" class="node">
<title>GroupWorkspaces</title>
<path fill="lightskyblue" stroke="black" d="M437.67,-109C437.67,-109 318.67,-109 318.67,-109 312.67,-109 306.67,-103 306.67,-97 306.67,-97 306.67,-85 306.67,-85 306.67,-79 312.67,-73 318.67,-73 318.67,-73 437.67,-73 437.67,-73 443.67,-73 449.67,-79 449.67,-85 449.67,-85 449.67,-97 449.67,-97 449.67,-103 443.67,-109 437.67,-109"/>
<text text-anchor="middle" x="378.17" y="-87.3" font-family="Helvetica,sans-Serif" font-size="14.00">GroupWorkspaces</text>
</g>
<!-- AddSampleLogMultiple&#45;&gt;GroupWorkspaces -->
<g id="edge49" class="edge">
<title>AddSampleLogMultiple&#45;&gt;GroupWorkspaces</title>
<path fill="none" stroke="black" d="M378.17,-145.81C378.17,-137.79 378.17,-128.05 378.17,-119.07"/>
<polygon fill="black" stroke="black" points="381.67,-119.03 378.17,-109.03 374.67,-119.03 381.67,-119.03"/>
</g>
<!-- GroupWorkspaces&#45;&gt;OutputWorkspace -->
<g id="edge50" class="edge">
<title>GroupWorkspaces&#45;&gt;OutputWorkspace</title>
<path fill="none" stroke="black" d="M378.17,-72.81C378.17,-64.79 378.17,-55.05 378.17,-46.07"/>
<polygon fill="black" stroke="black" points="381.67,-46.03 378.17,-36.03 374.67,-46.03 381.67,-46.03"/>
</g>
<!-- canGiven&#45;&gt;CanWorkspace -->
<g id="edge16" class="edge">
<title>canGiven&#45;&gt;CanWorkspace</title>
<path fill="none" stroke="black" d="M989.06,-1215.41C979.42,-1202.99 965.73,-1185.36 954.56,-1170.98"/>
<polygon fill="black" stroke="black" points="957.22,-1168.7 948.33,-1162.95 951.7,-1172.99 957.22,-1168.7"/>
<text text-anchor="middle" x="983.67" y="-1184.8" font-family="Helvetica,sans-Serif" font-size="14.00">Yes</text>
</g>
<!-- canGiven&#45;&gt;Divide3 -->
<g id="edge42" class="edge">
<title>canGiven&#45;&gt;Divide3</title>
<path fill="none" stroke="black" d="M1012.14,-1215.59C1029.02,-1191.89 1061.55,-1146.23 1081.98,-1117.53"/>
<polygon fill="black" stroke="black" points="1084.96,-1119.39 1087.91,-1109.21 1079.26,-1115.33 1084.96,-1119.39"/>
<text text-anchor="middle" x="1045.67" y="-1184.8" font-family="Helvetica,sans-Serif" font-size="14.00">No</text>
</g>
<!-- canScale&#45;&gt;Scale -->
<g id="edge21" class="edge">
<title>canScale&#45;&gt;Scale</title>
<path fill="none" stroke="black" d="M112.51,-860.95C120.09,-849.88 131.69,-835.21 145.17,-826 165.7,-811.96 174.89,-816.77 198.17,-808 199.56,-807.47 200.98,-806.93 202.42,-806.37"/>
<polygon fill="black" stroke="black" points="203.92,-809.54 211.92,-802.59 201.33,-803.04 203.92,-809.54"/>
<text text-anchor="middle" x="194.67" y="-829.8" font-family="Helvetica,sans-Serif" font-size="14.00">Not equal to 1</text>
</g>
<!-- canScale&#45;&gt;useCorrections -->
<g id="edge24" class="edge">
<title>canScale&#45;&gt;useCorrections</title>
<path fill="none" stroke="black" d="M106.23,-859.3C107.24,-853.51 108.31,-846.98 109.17,-841 113.84,-808.19 117.96,-770.29 120.5,-745.32"/>
<polygon fill="black" stroke="black" points="124.01,-745.45 121.52,-735.15 117.04,-744.75 124.01,-745.45"/>
<text text-anchor="middle" x="153.67" y="-786.3" font-family="Helvetica,sans-Serif" font-size="14.00">Equal to 1</text>
</g>
<!-- useCorrections&#45;&gt;SetSampleMaterial2 -->
<g id="edge25" class="edge">
<title>useCorrections&#45;&gt;SetSampleMaterial2</title>
<path fill="none" stroke="black" d="M213.83,-712.18C364.57,-705.03 676.34,-686.83 948.84,-648.09"/>
<polygon fill="black" stroke="black" points="949.53,-651.53 958.93,-646.65 948.53,-644.6 949.53,-651.53"/>
<text text-anchor="middle" x="804.67" y="-669.8" font-family="Helvetica,sans-Serif" font-size="14.00">Yes</text>
</g>
<!-- useCorrections&#45;&gt;Minus2 -->
<g id="edge38" class="edge">
<title>useCorrections&#45;&gt;Minus2</title>
<path fill="none" stroke="black" d="M122.12,-698.87C121.64,-676.79 123.82,-638.14 142.17,-612 168.15,-574.98 284.18,-517.3 345.65,-488.54"/>
<polygon fill="black" stroke="black" points="347.44,-491.57 355.03,-484.18 344.49,-485.22 347.44,-491.57"/>
<text text-anchor="middle" x="188.67" y="-582.8" font-family="Helvetica,sans-Serif" font-size="14.00">No</text>
</g>
</g>
</svg>
