<?xml version="1.0" encoding="UTF-8" standalone="no"?>
<!DOCTYPE svg PUBLIC "-//W3C//DTD SVG 1.1//EN"
 "http://www.w3.org/Graphics/SVG/1.1/DTD/svg11.dtd">
<!-- Generated by graphviz version 2.47.2 (20210527.1257)
 -->
<!-- Title: IndirectILLReductionQENS Pages: 1 -->
<svg width="1405pt" height="787pt"
 viewBox="0.00 0.00 1405.49 787.00" xmlns="http://www.w3.org/2000/svg" xmlns:xlink="http://www.w3.org/1999/xlink">
<g id="graph0" class="graph" transform="scale(1 1) rotate(0) translate(4 783)">
<title>IndirectILLReductionQENS</title>
<polygon fill="white" stroke="transparent" points="-4,4 -4,-783 1401.49,-783 1401.49,4 -4,4"/>
<text text-anchor="middle" x="698.75" y="-763.8" font-family="Helvetica" font-size="14.00">IndirectILLReductionQENS Flowchart</text>
<!-- OutputWorkspace -->
<g id="node1" class="node">
<title>OutputWorkspace</title>
<polygon fill="grey" stroke="black" points="381.72,-36 168.19,-36 113.26,0 326.79,0 381.72,-36"/>
<text text-anchor="middle" x="247.49" y="-14.3" font-family="Times-Roman" font-size="14.00">OutputWorkspace</text>
</g>
<!-- Run -->
<g id="node2" class="node">
<title>Run</title>
<ellipse fill="khaki" stroke="black" cx="858.49" cy="-594" rx="27" ry="18"/>
<text text-anchor="middle" x="858.49" y="-590.3" font-family="Helvetica" font-size="14.00">Run</text>
</g>
<!-- SelectNexusFilesByMetadata -->
<g id="node12" class="node">
<title>SelectNexusFilesByMetadata</title>
<path fill="lightskyblue" stroke="black" d="M943.49,-540C943.49,-540 773.49,-540 773.49,-540 767.49,-540 761.49,-534 761.49,-528 761.49,-528 761.49,-516 761.49,-516 761.49,-510 767.49,-504 773.49,-504 773.49,-504 943.49,-504 943.49,-504 949.49,-504 955.49,-510 955.49,-516 955.49,-516 955.49,-528 955.49,-528 955.49,-534 949.49,-540 943.49,-540"/>
<text text-anchor="middle" x="858.49" y="-518.3" font-family="Helvetica" font-size="14.00">SelectNexusFilesByMetadata</text>
</g>
<!-- Run&#45;&gt;SelectNexusFilesByMetadata -->
<g id="edge1" class="edge">
<title>Run&#45;&gt;SelectNexusFilesByMetadata</title>
<path fill="none" stroke="black" d="M858.49,-575.7C858.49,-567.98 858.49,-558.71 858.49,-550.11"/>
<polygon fill="black" stroke="black" points="861.99,-550.1 858.49,-540.1 854.99,-550.1 861.99,-550.1"/>
</g>
<!-- BackgroundRun -->
<g id="node3" class="node">
<title>BackgroundRun</title>
<ellipse fill="khaki" stroke="black" cx="1300.49" cy="-666" rx="73.39" ry="18"/>
<text text-anchor="middle" x="1300.49" y="-662.3" font-family="Helvetica" font-size="14.00">BackgroundRun</text>
</g>
<!-- SelectNexusFilesByMetadataB -->
<g id="node14" class="node">
<title>SelectNexusFilesByMetadataB</title>
<path fill="lightskyblue" stroke="black" d="M1385.49,-612C1385.49,-612 1215.49,-612 1215.49,-612 1209.49,-612 1203.49,-606 1203.49,-600 1203.49,-600 1203.49,-588 1203.49,-588 1203.49,-582 1209.49,-576 1215.49,-576 1215.49,-576 1385.49,-576 1385.49,-576 1391.49,-576 1397.49,-582 1397.49,-588 1397.49,-588 1397.49,-600 1397.49,-600 1397.49,-606 1391.49,-612 1385.49,-612"/>
<text text-anchor="middle" x="1300.49" y="-590.3" font-family="Helvetica" font-size="14.00">SelectNexusFilesByMetadata</text>
</g>
<!-- BackgroundRun&#45;&gt;SelectNexusFilesByMetadataB -->
<g id="edge5" class="edge">
<title>BackgroundRun&#45;&gt;SelectNexusFilesByMetadataB</title>
<path fill="none" stroke="black" d="M1300.49,-647.7C1300.49,-639.98 1300.49,-630.71 1300.49,-622.11"/>
<polygon fill="black" stroke="black" points="1303.99,-622.1 1300.49,-612.1 1296.99,-622.1 1303.99,-622.1"/>
</g>
<!-- CalibrationRun -->
<g id="node4" class="node">
<title>CalibrationRun</title>
<ellipse fill="khaki" stroke="black" cx="194.49" cy="-666" rx="68.79" ry="18"/>
<text text-anchor="middle" x="194.49" y="-662.3" font-family="Helvetica" font-size="14.00">CalibrationRun</text>
</g>
<!-- SelectNexusFilesByMetadataC -->
<g id="node15" class="node">
<title>SelectNexusFilesByMetadataC</title>
<path fill="lightskyblue" stroke="black" d="M279.49,-612C279.49,-612 109.49,-612 109.49,-612 103.49,-612 97.49,-606 97.49,-600 97.49,-600 97.49,-588 97.49,-588 97.49,-582 103.49,-576 109.49,-576 109.49,-576 279.49,-576 279.49,-576 285.49,-576 291.49,-582 291.49,-588 291.49,-588 291.49,-600 291.49,-600 291.49,-606 285.49,-612 279.49,-612"/>
<text text-anchor="middle" x="194.49" y="-590.3" font-family="Helvetica" font-size="14.00">SelectNexusFilesByMetadata</text>
</g>
<!-- CalibrationRun&#45;&gt;SelectNexusFilesByMetadataC -->
<g id="edge10" class="edge">
<title>CalibrationRun&#45;&gt;SelectNexusFilesByMetadataC</title>
<path fill="none" stroke="black" d="M194.49,-647.7C194.49,-639.98 194.49,-630.71 194.49,-622.11"/>
<polygon fill="black" stroke="black" points="197.99,-622.1 194.49,-612.1 190.99,-622.1 197.99,-622.1"/>
</g>
<!-- CalibrationBackgroundRun -->
<g id="node5" class="node">
<title>CalibrationBackgroundRun</title>
<ellipse fill="khaki" stroke="black" cx="720.49" cy="-738" rx="115.88" ry="18"/>
<text text-anchor="middle" x="720.49" y="-734.3" font-family="Helvetica" font-size="14.00">CalibrationBackgroundRun</text>
</g>
<!-- SelectNexusFilesByMetadataD -->
<g id="node16" class="node">
<title>SelectNexusFilesByMetadataD</title>
<path fill="lightskyblue" stroke="black" d="M805.49,-684C805.49,-684 635.49,-684 635.49,-684 629.49,-684 623.49,-678 623.49,-672 623.49,-672 623.49,-660 623.49,-660 623.49,-654 629.49,-648 635.49,-648 635.49,-648 805.49,-648 805.49,-648 811.49,-648 817.49,-654 817.49,-660 817.49,-660 817.49,-672 817.49,-672 817.49,-678 811.49,-684 805.49,-684"/>
<text text-anchor="middle" x="720.49" y="-662.3" font-family="Helvetica" font-size="14.00">SelectNexusFilesByMetadata</text>
</g>
<!-- CalibrationBackgroundRun&#45;&gt;SelectNexusFilesByMetadataD -->
<g id="edge13" class="edge">
<title>CalibrationBackgroundRun&#45;&gt;SelectNexusFilesByMetadataD</title>
<path fill="none" stroke="black" d="M720.49,-719.7C720.49,-711.98 720.49,-702.71 720.49,-694.11"/>
<polygon fill="black" stroke="black" points="723.99,-694.1 720.49,-684.1 716.99,-694.1 723.99,-694.1"/>
</g>
<!-- AlignmentRun -->
<g id="node6" class="node">
<title>AlignmentRun</title>
<ellipse fill="khaki" stroke="black" cx="135.49" cy="-450" rx="66.09" ry="18"/>
<text text-anchor="middle" x="135.49" y="-446.3" font-family="Helvetica" font-size="14.00">AlignmentRun</text>
</g>
<!-- SelectNexusFilesByMetadataA -->
<g id="node13" class="node">
<title>SelectNexusFilesByMetadataA</title>
<path fill="lightskyblue" stroke="black" d="M306.49,-396C306.49,-396 136.49,-396 136.49,-396 130.49,-396 124.49,-390 124.49,-384 124.49,-384 124.49,-372 124.49,-372 124.49,-366 130.49,-360 136.49,-360 136.49,-360 306.49,-360 306.49,-360 312.49,-360 318.49,-366 318.49,-372 318.49,-372 318.49,-384 318.49,-384 318.49,-390 312.49,-396 306.49,-396"/>
<text text-anchor="middle" x="221.49" y="-374.3" font-family="Helvetica" font-size="14.00">SelectNexusFilesByMetadata</text>
</g>
<!-- AlignmentRun&#45;&gt;SelectNexusFilesByMetadataA -->
<g id="edge24" class="edge">
<title>AlignmentRun&#45;&gt;SelectNexusFilesByMetadataA</title>
<path fill="none" stroke="black" d="M155.44,-432.76C166.41,-423.84 180.21,-412.6 192.36,-402.71"/>
<polygon fill="black" stroke="black" points="194.91,-405.15 200.46,-396.12 190.49,-399.72 194.91,-405.15"/>
</g>
<!-- BackgroundScalingFactor -->
<g id="node7" class="node">
<title>BackgroundScalingFactor</title>
<ellipse fill="khaki" stroke="black" cx="1084.49" cy="-522" rx="111.28" ry="18"/>
<text text-anchor="middle" x="1084.49" y="-518.3" font-family="Helvetica" font-size="14.00">BackgroundScalingFactor</text>
</g>
<!-- ScaleA -->
<g id="node27" class="node">
<title>ScaleA</title>
<path fill="lightskyblue" stroke="black" d="M1099.49,-468C1099.49,-468 1069.49,-468 1069.49,-468 1063.49,-468 1057.49,-462 1057.49,-456 1057.49,-456 1057.49,-444 1057.49,-444 1057.49,-438 1063.49,-432 1069.49,-432 1069.49,-432 1099.49,-432 1099.49,-432 1105.49,-432 1111.49,-438 1111.49,-444 1111.49,-444 1111.49,-456 1111.49,-456 1111.49,-462 1105.49,-468 1099.49,-468"/>
<text text-anchor="middle" x="1084.49" y="-446.3" font-family="Helvetica" font-size="14.00">Scale</text>
</g>
<!-- BackgroundScalingFactor&#45;&gt;ScaleA -->
<g id="edge8" class="edge">
<title>BackgroundScalingFactor&#45;&gt;ScaleA</title>
<path fill="none" stroke="black" d="M1084.49,-503.7C1084.49,-495.98 1084.49,-486.71 1084.49,-478.11"/>
<polygon fill="black" stroke="black" points="1087.99,-478.1 1084.49,-468.1 1080.99,-478.1 1087.99,-478.1"/>
</g>
<!-- CalibrationBackgroundScalingFactor -->
<g id="node8" class="node">
<title>CalibrationBackgroundScalingFactor</title>
<ellipse fill="khaki" stroke="black" cx="462.49" cy="-594" rx="153.27" ry="18"/>
<text text-anchor="middle" x="462.49" y="-590.3" font-family="Helvetica" font-size="14.00">CalibrationBackgroundScalingFactor</text>
</g>
<!-- ScaleB -->
<g id="node28" class="node">
<title>ScaleB</title>
<path fill="lightskyblue" stroke="black" d="M477.49,-540C477.49,-540 447.49,-540 447.49,-540 441.49,-540 435.49,-534 435.49,-528 435.49,-528 435.49,-516 435.49,-516 435.49,-510 441.49,-504 447.49,-504 447.49,-504 477.49,-504 477.49,-504 483.49,-504 489.49,-510 489.49,-516 489.49,-516 489.49,-528 489.49,-528 489.49,-534 483.49,-540 477.49,-540"/>
<text text-anchor="middle" x="462.49" y="-518.3" font-family="Helvetica" font-size="14.00">Scale</text>
</g>
<!-- CalibrationBackgroundScalingFactor&#45;&gt;ScaleB -->
<g id="edge17" class="edge">
<title>CalibrationBackgroundScalingFactor&#45;&gt;ScaleB</title>
<path fill="none" stroke="black" d="M462.49,-575.7C462.49,-567.98 462.49,-558.71 462.49,-550.11"/>
<polygon fill="black" stroke="black" points="465.99,-550.1 462.49,-540.1 458.99,-550.1 465.99,-550.1"/>
</g>
<!-- CalibrationPeakRange -->
<g id="node9" class="node">
<title>CalibrationPeakRange</title>
<ellipse fill="khaki" stroke="black" cx="318.49" cy="-450" rx="98.58" ry="18"/>
<text text-anchor="middle" x="318.49" y="-446.3" font-family="Helvetica" font-size="14.00">CalibrationPeakRange</text>
</g>
<!-- Integration -->
<g id="node22" class="node">
<title>Integration</title>
<path fill="lightskyblue" stroke="black" d="M418.49,-396C418.49,-396 362.49,-396 362.49,-396 356.49,-396 350.49,-390 350.49,-384 350.49,-384 350.49,-372 350.49,-372 350.49,-366 356.49,-360 362.49,-360 362.49,-360 418.49,-360 418.49,-360 424.49,-360 430.49,-366 430.49,-372 430.49,-372 430.49,-384 430.49,-384 430.49,-390 424.49,-396 418.49,-396"/>
<text text-anchor="middle" x="390.49" y="-374.3" font-family="Helvetica" font-size="14.00">Integration</text>
</g>
<!-- CalibrationPeakRange&#45;&gt;Integration -->
<g id="edge19" class="edge">
<title>CalibrationPeakRange&#45;&gt;Integration</title>
<path fill="none" stroke="black" d="M335.92,-432.05C344.88,-423.35 355.94,-412.59 365.76,-403.04"/>
<polygon fill="black" stroke="black" points="368.25,-405.51 372.98,-396.03 363.37,-400.49 368.25,-405.51"/>
</g>
<!-- UnmirrorOption -->
<g id="node10" class="node">
<title>UnmirrorOption</title>
<ellipse fill="khaki" stroke="black" cx="71.49" cy="-306" rx="71.49" ry="18"/>
<text text-anchor="middle" x="71.49" y="-302.3" font-family="Helvetica" font-size="14.00">UnmirrorOption</text>
</g>
<!-- MatchPeaks -->
<g id="node29" class="node">
<title>MatchPeaks</title>
<path fill="lightskyblue" stroke="black" d="M281.49,-252C281.49,-252 213.49,-252 213.49,-252 207.49,-252 201.49,-246 201.49,-240 201.49,-240 201.49,-228 201.49,-228 201.49,-222 207.49,-216 213.49,-216 213.49,-216 281.49,-216 281.49,-216 287.49,-216 293.49,-222 293.49,-228 293.49,-228 293.49,-240 293.49,-240 293.49,-246 287.49,-252 281.49,-252"/>
<text text-anchor="middle" x="247.49" y="-230.3" font-family="Helvetica" font-size="14.00">MatchPeaks</text>
</g>
<!-- UnmirrorOption&#45;&gt;MatchPeaks -->
<g id="edge23" class="edge">
<title>UnmirrorOption&#45;&gt;MatchPeaks</title>
<path fill="none" stroke="black" d="M107.96,-290.5C133.09,-280.5 166.87,-267.06 194.91,-255.92"/>
<polygon fill="black" stroke="black" points="196.56,-259.03 204.56,-252.08 193.97,-252.52 196.56,-259.03"/>
</g>
<!-- CropDeadMonitorChannels -->
<g id="node11" class="node">
<title>CropDeadMonitorChannels</title>
<ellipse fill="khaki" stroke="black" cx="625.49" cy="-522" rx="117.78" ry="18"/>
<text text-anchor="middle" x="625.49" y="-518.3" font-family="Helvetica" font-size="14.00">CropDeadMonitorChannels</text>
</g>
<!-- IndirectILLEnergyTransfer -->
<g id="node17" class="node">
<title>IndirectILLEnergyTransfer</title>
<path fill="lightskyblue" stroke="black" d="M815.99,-468C815.99,-468 666.99,-468 666.99,-468 660.99,-468 654.99,-462 654.99,-456 654.99,-456 654.99,-444 654.99,-444 654.99,-438 660.99,-432 666.99,-432 666.99,-432 815.99,-432 815.99,-432 821.99,-432 827.99,-438 827.99,-444 827.99,-444 827.99,-456 827.99,-456 827.99,-462 821.99,-468 815.99,-468"/>
<text text-anchor="middle" x="741.49" y="-446.3" font-family="Helvetica" font-size="14.00">IndirectILLEnergyTransfer</text>
</g>
<!-- CropDeadMonitorChannels&#45;&gt;IndirectILLEnergyTransfer -->
<g id="edge3" class="edge">
<title>CropDeadMonitorChannels&#45;&gt;IndirectILLEnergyTransfer</title>
<path fill="none" stroke="black" d="M652.98,-504.41C668.25,-495.2 687.45,-483.61 704.07,-473.59"/>
<polygon fill="black" stroke="black" points="706.24,-476.36 712.99,-468.2 702.62,-470.37 706.24,-476.36"/>
</g>
<!-- SelectNexusFilesByMetadata&#45;&gt;IndirectILLEnergyTransfer -->
<g id="edge2" class="edge">
<title>SelectNexusFilesByMetadata&#45;&gt;IndirectILLEnergyTransfer</title>
<path fill="none" stroke="black" d="M829.87,-503.88C814.57,-494.72 795.55,-483.34 779.08,-473.48"/>
<polygon fill="black" stroke="black" points="780.6,-470.32 770.23,-468.19 777.01,-476.33 780.6,-470.32"/>
</g>
<!-- IndirectILLEnergyTransferA -->
<g id="node18" class="node">
<title>IndirectILLEnergyTransferA</title>
<path fill="lightskyblue" stroke="black" d="M321.99,-324C321.99,-324 172.99,-324 172.99,-324 166.99,-324 160.99,-318 160.99,-312 160.99,-312 160.99,-300 160.99,-300 160.99,-294 166.99,-288 172.99,-288 172.99,-288 321.99,-288 321.99,-288 327.99,-288 333.99,-294 333.99,-300 333.99,-300 333.99,-312 333.99,-312 333.99,-318 327.99,-324 321.99,-324"/>
<text text-anchor="middle" x="247.49" y="-302.3" font-family="Helvetica" font-size="14.00">IndirectILLEnergyTransfer</text>
</g>
<!-- SelectNexusFilesByMetadataA&#45;&gt;IndirectILLEnergyTransferA -->
<g id="edge25" class="edge">
<title>SelectNexusFilesByMetadataA&#45;&gt;IndirectILLEnergyTransferA</title>
<path fill="none" stroke="black" d="M227.92,-359.7C230.85,-351.81 234.38,-342.3 237.63,-333.55"/>
<polygon fill="black" stroke="black" points="240.94,-334.7 241.14,-324.1 234.38,-332.26 240.94,-334.7"/>
</g>
<!-- IndirectILLEnergyTransferB -->
<g id="node19" class="node">
<title>IndirectILLEnergyTransferB</title>
<path fill="lightskyblue" stroke="black" d="M1374.99,-540C1374.99,-540 1225.99,-540 1225.99,-540 1219.99,-540 1213.99,-534 1213.99,-528 1213.99,-528 1213.99,-516 1213.99,-516 1213.99,-510 1219.99,-504 1225.99,-504 1225.99,-504 1374.99,-504 1374.99,-504 1380.99,-504 1386.99,-510 1386.99,-516 1386.99,-516 1386.99,-528 1386.99,-528 1386.99,-534 1380.99,-540 1374.99,-540"/>
<text text-anchor="middle" x="1300.49" y="-518.3" font-family="Helvetica" font-size="14.00">IndirectILLEnergyTransfer</text>
</g>
<!-- SelectNexusFilesByMetadataB&#45;&gt;IndirectILLEnergyTransferB -->
<g id="edge6" class="edge">
<title>SelectNexusFilesByMetadataB&#45;&gt;IndirectILLEnergyTransferB</title>
<path fill="none" stroke="black" d="M1300.49,-575.7C1300.49,-567.98 1300.49,-558.71 1300.49,-550.11"/>
<polygon fill="black" stroke="black" points="1303.99,-550.1 1300.49,-540.1 1296.99,-550.1 1303.99,-550.1"/>
</g>
<!-- IndirectILLEnergyTransferC -->
<g id="node20" class="node">
<title>IndirectILLEnergyTransferC</title>
<path fill="lightskyblue" stroke="black" d="M336.99,-540C336.99,-540 187.99,-540 187.99,-540 181.99,-540 175.99,-534 175.99,-528 175.99,-528 175.99,-516 175.99,-516 175.99,-510 181.99,-504 187.99,-504 187.99,-504 336.99,-504 336.99,-504 342.99,-504 348.99,-510 348.99,-516 348.99,-516 348.99,-528 348.99,-528 348.99,-534 342.99,-540 336.99,-540"/>
<text text-anchor="middle" x="262.49" y="-518.3" font-family="Helvetica" font-size="14.00">IndirectILLEnergyTransfer</text>
</g>
<!-- SelectNexusFilesByMetadataC&#45;&gt;IndirectILLEnergyTransferC -->
<g id="edge11" class="edge">
<title>SelectNexusFilesByMetadataC&#45;&gt;IndirectILLEnergyTransferC</title>
<path fill="none" stroke="black" d="M211.3,-575.7C219.62,-567.14 229.8,-556.66 238.88,-547.3"/>
<polygon fill="black" stroke="black" points="241.42,-549.72 245.88,-540.1 236.4,-544.84 241.42,-549.72"/>
</g>
<!-- IndirectILLEnergyTransferD -->
<g id="node21" class="node">
<title>IndirectILLEnergyTransferD</title>
<path fill="lightskyblue" stroke="black" d="M794.99,-612C794.99,-612 645.99,-612 645.99,-612 639.99,-612 633.99,-606 633.99,-600 633.99,-600 633.99,-588 633.99,-588 633.99,-582 639.99,-576 645.99,-576 645.99,-576 794.99,-576 794.99,-576 800.99,-576 806.99,-582 806.99,-588 806.99,-588 806.99,-600 806.99,-600 806.99,-606 800.99,-612 794.99,-612"/>
<text text-anchor="middle" x="720.49" y="-590.3" font-family="Helvetica" font-size="14.00">IndirectILLEnergyTransfer</text>
</g>
<!-- SelectNexusFilesByMetadataD&#45;&gt;IndirectILLEnergyTransferD -->
<g id="edge14" class="edge">
<title>SelectNexusFilesByMetadataD&#45;&gt;IndirectILLEnergyTransferD</title>
<path fill="none" stroke="black" d="M720.49,-647.7C720.49,-639.98 720.49,-630.71 720.49,-622.11"/>
<polygon fill="black" stroke="black" points="723.99,-622.1 720.49,-612.1 716.99,-622.1 723.99,-622.1"/>
</g>
<!-- MinusA -->
<g id="node23" class="node">
<title>MinusA</title>
<path fill="lightskyblue" stroke="black" d="M756.49,-396C756.49,-396 726.49,-396 726.49,-396 720.49,-396 714.49,-390 714.49,-384 714.49,-384 714.49,-372 714.49,-372 714.49,-366 720.49,-360 726.49,-360 726.49,-360 756.49,-360 756.49,-360 762.49,-360 768.49,-366 768.49,-372 768.49,-372 768.49,-384 768.49,-384 768.49,-390 762.49,-396 756.49,-396"/>
<text text-anchor="middle" x="741.49" y="-374.3" font-family="Helvetica" font-size="14.00">Minus</text>
</g>
<!-- IndirectILLEnergyTransfer&#45;&gt;MinusA -->
<g id="edge4" class="edge">
<title>IndirectILLEnergyTransfer&#45;&gt;MinusA</title>
<path fill="none" stroke="black" d="M741.49,-431.7C741.49,-423.98 741.49,-414.71 741.49,-406.11"/>
<polygon fill="black" stroke="black" points="744.99,-406.1 741.49,-396.1 737.99,-406.1 744.99,-406.1"/>
</g>
<!-- IndirectILLEnergyTransferA&#45;&gt;MatchPeaks -->
<g id="edge26" class="edge">
<title>IndirectILLEnergyTransferA&#45;&gt;MatchPeaks</title>
<path fill="none" stroke="black" d="M247.49,-287.7C247.49,-279.98 247.49,-270.71 247.49,-262.11"/>
<polygon fill="black" stroke="black" points="250.99,-262.1 247.49,-252.1 243.99,-262.1 250.99,-262.1"/>
</g>
<!-- IndirectILLEnergyTransferB&#45;&gt;ScaleA -->
<g id="edge7" class="edge">
<title>IndirectILLEnergyTransferB&#45;&gt;ScaleA</title>
<path fill="none" stroke="black" d="M1247.93,-503.97C1208.72,-491.26 1156.13,-474.22 1121.32,-462.94"/>
<polygon fill="black" stroke="black" points="1122.16,-459.53 1111.56,-459.77 1120,-466.19 1122.16,-459.53"/>
</g>
<!-- MinusB -->
<g id="node24" class="node">
<title>MinusB</title>
<path fill="lightskyblue" stroke="black" d="M477.49,-468C477.49,-468 447.49,-468 447.49,-468 441.49,-468 435.49,-462 435.49,-456 435.49,-456 435.49,-444 435.49,-444 435.49,-438 441.49,-432 447.49,-432 447.49,-432 477.49,-432 477.49,-432 483.49,-432 489.49,-438 489.49,-444 489.49,-444 489.49,-456 489.49,-456 489.49,-462 483.49,-468 477.49,-468"/>
<text text-anchor="middle" x="462.49" y="-446.3" font-family="Helvetica" font-size="14.00">Minus</text>
</g>
<!-- IndirectILLEnergyTransferC&#45;&gt;MinusB -->
<g id="edge12" class="edge">
<title>IndirectILLEnergyTransferC&#45;&gt;MinusB</title>
<path fill="none" stroke="black" d="M321.59,-503.92C350.74,-495.02 386.5,-483.42 425.65,-468.12"/>
<polygon fill="black" stroke="black" points="427.13,-471.3 435.14,-464.36 424.55,-464.79 427.13,-471.3"/>
</g>
<!-- IndirectILLEnergyTransferD&#45;&gt;ScaleB -->
<g id="edge15" class="edge">
<title>IndirectILLEnergyTransferD&#45;&gt;ScaleB</title>
<path fill="none" stroke="black" d="M633.91,-576.68C594.88,-568.29 548.27,-556.85 499.27,-539.93"/>
<polygon fill="black" stroke="black" points="500.36,-536.61 489.77,-536.59 498.04,-543.21 500.36,-536.61"/>
</g>
<!-- Divide -->
<g id="node25" class="node">
<title>Divide</title>
<path fill="lightskyblue" stroke="black" d="M405.49,-324C405.49,-324 375.49,-324 375.49,-324 369.49,-324 363.49,-318 363.49,-312 363.49,-312 363.49,-300 363.49,-300 363.49,-294 369.49,-288 375.49,-288 375.49,-288 405.49,-288 405.49,-288 411.49,-288 417.49,-294 417.49,-300 417.49,-300 417.49,-312 417.49,-312 417.49,-318 411.49,-324 405.49,-324"/>
<text text-anchor="middle" x="390.49" y="-302.3" font-family="Helvetica" font-size="14.00">Divide</text>
</g>
<!-- Integration&#45;&gt;Divide -->
<g id="edge20" class="edge">
<title>Integration&#45;&gt;Divide</title>
<path fill="none" stroke="black" d="M390.49,-359.7C390.49,-351.98 390.49,-342.71 390.49,-334.11"/>
<polygon fill="black" stroke="black" points="393.99,-334.1 390.49,-324.1 386.99,-334.1 393.99,-334.1"/>
</g>
<!-- MinusA&#45;&gt;Divide -->
<g id="edge21" class="edge">
<title>MinusA&#45;&gt;Divide</title>
<path fill="none" stroke="black" d="M714.24,-371.57C651.91,-359.13 498.87,-328.61 427.83,-314.45"/>
<polygon fill="black" stroke="black" points="428.46,-311 417.97,-312.48 427.09,-317.87 428.46,-311"/>
</g>
<!-- MinusB&#45;&gt;Integration -->
<g id="edge18" class="edge">
<title>MinusB&#45;&gt;Integration</title>
<path fill="none" stroke="black" d="M444.7,-431.7C435.89,-423.14 425.11,-412.66 415.49,-403.3"/>
<polygon fill="black" stroke="black" points="417.7,-400.57 408.09,-396.1 412.82,-405.58 417.7,-400.57"/>
</g>
<!-- Divide&#45;&gt;MatchPeaks -->
<g id="edge22" class="edge">
<title>Divide&#45;&gt;MatchPeaks</title>
<path fill="none" stroke="black" d="M363.26,-291.67C342.94,-281.72 314.76,-267.93 291.29,-256.44"/>
<polygon fill="black" stroke="black" points="292.75,-253.26 282.23,-252 289.67,-259.54 292.75,-253.26"/>
</g>
<!-- Plus -->
<g id="node26" class="node">
<title>Plus</title>
<path fill="lightskyblue" stroke="black" d="M262.49,-180C262.49,-180 232.49,-180 232.49,-180 226.49,-180 220.49,-174 220.49,-168 220.49,-168 220.49,-156 220.49,-156 220.49,-150 226.49,-144 232.49,-144 232.49,-144 262.49,-144 262.49,-144 268.49,-144 274.49,-150 274.49,-156 274.49,-156 274.49,-168 274.49,-168 274.49,-174 268.49,-180 262.49,-180"/>
<text text-anchor="middle" x="247.49" y="-158.3" font-family="Helvetica" font-size="14.00">Plus</text>
</g>
<!-- GroupWorkspaces -->
<g id="node30" class="node">
<title>GroupWorkspaces</title>
<path fill="lightskyblue" stroke="black" d="M299.99,-108C299.99,-108 194.99,-108 194.99,-108 188.99,-108 182.99,-102 182.99,-96 182.99,-96 182.99,-84 182.99,-84 182.99,-78 188.99,-72 194.99,-72 194.99,-72 299.99,-72 299.99,-72 305.99,-72 311.99,-78 311.99,-84 311.99,-84 311.99,-96 311.99,-96 311.99,-102 305.99,-108 299.99,-108"/>
<text text-anchor="middle" x="247.49" y="-86.3" font-family="Helvetica" font-size="14.00">GroupWorkspaces</text>
</g>
<!-- Plus&#45;&gt;GroupWorkspaces -->
<g id="edge28" class="edge">
<title>Plus&#45;&gt;GroupWorkspaces</title>
<path fill="none" stroke="black" d="M247.49,-143.7C247.49,-135.98 247.49,-126.71 247.49,-118.11"/>
<polygon fill="black" stroke="black" points="250.99,-118.1 247.49,-108.1 243.99,-118.1 250.99,-118.1"/>
</g>
<!-- ScaleA&#45;&gt;MinusA -->
<g id="edge9" class="edge">
<title>ScaleA&#45;&gt;MinusA</title>
<path fill="none" stroke="black" d="M1057.29,-443.45C996.25,-430.99 848.29,-400.8 778.76,-386.61"/>
<polygon fill="black" stroke="black" points="779.2,-383.12 768.7,-384.55 777.8,-389.98 779.2,-383.12"/>
</g>
<!-- ScaleB&#45;&gt;MinusB -->
<g id="edge16" class="edge">
<title>ScaleB&#45;&gt;MinusB</title>
<path fill="none" stroke="black" d="M462.49,-503.7C462.49,-495.98 462.49,-486.71 462.49,-478.11"/>
<polygon fill="black" stroke="black" points="465.99,-478.1 462.49,-468.1 458.99,-478.1 465.99,-478.1"/>
</g>
<!-- MatchPeaks&#45;&gt;Plus -->
<g id="edge27" class="edge">
<title>MatchPeaks&#45;&gt;Plus</title>
<path fill="none" stroke="black" d="M247.49,-215.7C247.49,-207.98 247.49,-198.71 247.49,-190.11"/>
<polygon fill="black" stroke="black" points="250.99,-190.1 247.49,-180.1 243.99,-190.1 250.99,-190.1"/>
</g>
<!-- GroupWorkspaces&#45;&gt;OutputWorkspace -->
<g id="edge29" class="edge">
<title>GroupWorkspaces&#45;&gt;OutputWorkspace</title>
<path fill="none" stroke="black" d="M247.49,-71.7C247.49,-63.98 247.49,-54.71 247.49,-46.11"/>
<polygon fill="black" stroke="black" points="250.99,-46.1 247.49,-36.1 243.99,-46.1 250.99,-46.1"/>
</g>
</g>
</svg>
