<?xml version="1.0" encoding="UTF-8" standalone="no"?>
<!DOCTYPE svg PUBLIC "-//W3C//DTD SVG 1.1//EN"
 "http://www.w3.org/Graphics/SVG/1.1/DTD/svg11.dtd">
<!-- Generated by graphviz version 3.0.0 (20220315.2325)
 -->
<!-- Title: IndirectILLReductionFWS Pages: 1 -->
<svg width="920pt" height="825pt"
 viewBox="0.00 0.00 919.79 825.00" xmlns="http://www.w3.org/2000/svg" xmlns:xlink="http://www.w3.org/1999/xlink">
<g id="graph0" class="graph" transform="scale(1 1) rotate(0) translate(4 821)">
<title>IndirectILLReductionFWS</title>
<polygon fill="white" stroke="transparent" points="-4,4 -4,-821 915.79,-821 915.79,4 -4,4"/>
<text text-anchor="middle" x="455.89" y="-801.8" font-family="Helvetica,sans-Serif" font-size="14.00">IndirectILLReductionFWS Flowchart</text>
<!-- OutputWorkspace -->
<g id="node1" class="node">
<title>OutputWorkspace</title>
<polygon fill="grey" stroke="black" points="543.64,-36 323.55,-36 266.94,0 487.02,0 543.64,-36"/>
<text text-anchor="middle" x="405.29" y="-14.3" font-family="Times,serif" font-size="14.00">OutputWorkspace</text>
</g>
<!-- Run -->
<g id="node2" class="node">
<title>Run</title>
<ellipse fill="khaki" stroke="black" cx="804.29" cy="-630" rx="28.7" ry="18"/>
<text text-anchor="middle" x="804.29" y="-626.3" font-family="Helvetica,sans-Serif" font-size="14.00">Run</text>
</g>
<!-- SelectNexusFilesByMetadata -->
<g id="node11" class="node">
<title>SelectNexusFilesByMetadata</title>
<path fill="lightskyblue" stroke="black" d="M899.79,-575C899.79,-575 708.79,-575 708.79,-575 702.79,-575 696.79,-569 696.79,-563 696.79,-563 696.79,-551 696.79,-551 696.79,-545 702.79,-539 708.79,-539 708.79,-539 899.79,-539 899.79,-539 905.79,-539 911.79,-545 911.79,-551 911.79,-551 911.79,-563 911.79,-563 911.79,-569 905.79,-575 899.79,-575"/>
<text text-anchor="middle" x="804.29" y="-553.3" font-family="Helvetica,sans-Serif" font-size="14.00">SelectNexusFilesByMetadata</text>
</g>
<!-- Run&#45;&gt;SelectNexusFilesByMetadata -->
<g id="edge1" class="edge">
<title>Run&#45;&gt;SelectNexusFilesByMetadata</title>
<path fill="none" stroke="black" d="M804.29,-611.81C804.29,-603.79 804.29,-594.05 804.29,-585.07"/>
<polygon fill="black" stroke="black" points="807.79,-585.03 804.29,-575.03 800.79,-585.03 807.79,-585.03"/>
</g>
<!-- Observable -->
<g id="node3" class="node">
<title>Observable</title>
<ellipse fill="khaki" stroke="black" cx="677.29" cy="-411" rx="62.29" ry="18"/>
<text text-anchor="middle" x="677.29" y="-407.3" font-family="Helvetica,sans-Serif" font-size="14.00">Observable</text>
</g>
<!-- Scan -->
<g id="node29" class="node">
<title>Scan</title>
<polygon fill="lightseagreen" stroke="black" points="710.29,-342 656.29,-342 656.29,-306 710.29,-306 710.29,-342"/>
<text text-anchor="middle" x="683.29" y="-320.3" font-family="Helvetica,sans-Serif" font-size="14.00">Scan</text>
</g>
<!-- Observable&#45;&gt;Scan -->
<g id="edge5" class="edge">
<title>Observable&#45;&gt;Scan</title>
<path fill="none" stroke="black" d="M678.5,-392.8C679.32,-381.16 680.43,-365.55 681.37,-352.24"/>
<polygon fill="black" stroke="black" points="684.86,-352.4 682.08,-342.18 677.88,-351.9 684.86,-352.4"/>
</g>
<!-- CalibrationRun -->
<g id="node4" class="node">
<title>CalibrationRun</title>
<ellipse fill="khaki" stroke="black" cx="358.29" cy="-703" rx="77.19" ry="18"/>
<text text-anchor="middle" x="358.29" y="-699.3" font-family="Helvetica,sans-Serif" font-size="14.00">CalibrationRun</text>
</g>
<!-- SelectNexusFilesByMetadataC -->
<g id="node13" class="node">
<title>SelectNexusFilesByMetadataC</title>
<path fill="lightskyblue" stroke="black" d="M453.79,-648C453.79,-648 262.79,-648 262.79,-648 256.79,-648 250.79,-642 250.79,-636 250.79,-636 250.79,-624 250.79,-624 250.79,-618 256.79,-612 262.79,-612 262.79,-612 453.79,-612 453.79,-612 459.79,-612 465.79,-618 465.79,-624 465.79,-624 465.79,-636 465.79,-636 465.79,-642 459.79,-648 453.79,-648"/>
<text text-anchor="middle" x="358.29" y="-626.3" font-family="Helvetica,sans-Serif" font-size="14.00">SelectNexusFilesByMetadata</text>
</g>
<!-- CalibrationRun&#45;&gt;SelectNexusFilesByMetadataC -->
<g id="edge12" class="edge">
<title>CalibrationRun&#45;&gt;SelectNexusFilesByMetadataC</title>
<path fill="none" stroke="black" d="M358.29,-684.81C358.29,-676.79 358.29,-667.05 358.29,-658.07"/>
<polygon fill="black" stroke="black" points="361.79,-658.03 358.29,-648.03 354.79,-658.03 361.79,-658.03"/>
</g>
<!-- BackgroundRun -->
<g id="node5" class="node">
<title>BackgroundRun</title>
<ellipse fill="khaki" stroke="black" cx="591.29" cy="-703" rx="82.59" ry="18"/>
<text text-anchor="middle" x="591.29" y="-699.3" font-family="Helvetica,sans-Serif" font-size="14.00">BackgroundRun</text>
</g>
<!-- SelectNexusFilesByMetadataB -->
<g id="node12" class="node">
<title>SelectNexusFilesByMetadataB</title>
<path fill="lightskyblue" stroke="black" d="M686.79,-648C686.79,-648 495.79,-648 495.79,-648 489.79,-648 483.79,-642 483.79,-636 483.79,-636 483.79,-624 483.79,-624 483.79,-618 489.79,-612 495.79,-612 495.79,-612 686.79,-612 686.79,-612 692.79,-612 698.79,-618 698.79,-624 698.79,-624 698.79,-636 698.79,-636 698.79,-642 692.79,-648 686.79,-648"/>
<text text-anchor="middle" x="591.29" y="-626.3" font-family="Helvetica,sans-Serif" font-size="14.00">SelectNexusFilesByMetadata</text>
</g>
<!-- BackgroundRun&#45;&gt;SelectNexusFilesByMetadataB -->
<g id="edge6" class="edge">
<title>BackgroundRun&#45;&gt;SelectNexusFilesByMetadataB</title>
<path fill="none" stroke="black" d="M591.29,-684.81C591.29,-676.79 591.29,-667.05 591.29,-658.07"/>
<polygon fill="black" stroke="black" points="594.79,-658.03 591.29,-648.03 587.79,-658.03 594.79,-658.03"/>
</g>
<!-- CalibrationBackgroundRun -->
<g id="node6" class="node">
<title>CalibrationBackgroundRun</title>
<ellipse fill="khaki" stroke="black" cx="131.29" cy="-776" rx="131.08" ry="18"/>
<text text-anchor="middle" x="131.29" y="-772.3" font-family="Helvetica,sans-Serif" font-size="14.00">CalibrationBackgroundRun</text>
</g>
<!-- SelectNexusFilesByMetadataCB -->
<g id="node14" class="node">
<title>SelectNexusFilesByMetadataCB</title>
<path fill="lightskyblue" stroke="black" d="M226.79,-721C226.79,-721 35.79,-721 35.79,-721 29.79,-721 23.79,-715 23.79,-709 23.79,-709 23.79,-697 23.79,-697 23.79,-691 29.79,-685 35.79,-685 35.79,-685 226.79,-685 226.79,-685 232.79,-685 238.79,-691 238.79,-697 238.79,-697 238.79,-709 238.79,-709 238.79,-715 232.79,-721 226.79,-721"/>
<text text-anchor="middle" x="131.29" y="-699.3" font-family="Helvetica,sans-Serif" font-size="14.00">SelectNexusFilesByMetadata</text>
</g>
<!-- CalibrationBackgroundRun&#45;&gt;SelectNexusFilesByMetadataCB -->
<g id="edge25" class="edge">
<title>CalibrationBackgroundRun&#45;&gt;SelectNexusFilesByMetadataCB</title>
<path fill="none" stroke="black" d="M131.29,-757.81C131.29,-749.79 131.29,-740.05 131.29,-731.07"/>
<polygon fill="black" stroke="black" points="134.79,-731.03 131.29,-721.03 127.79,-731.03 134.79,-731.03"/>
</g>
<!-- IndirectILLEnergyTransfer -->
<g id="node7" class="node">
<title>IndirectILLEnergyTransfer</title>
<path fill="lightskyblue" stroke="black" d="M889.29,-502C889.29,-502 719.29,-502 719.29,-502 713.29,-502 707.29,-496 707.29,-490 707.29,-490 707.29,-478 707.29,-478 707.29,-472 713.29,-466 719.29,-466 719.29,-466 889.29,-466 889.29,-466 895.29,-466 901.29,-472 901.29,-478 901.29,-478 901.29,-490 901.29,-490 901.29,-496 895.29,-502 889.29,-502"/>
<text text-anchor="middle" x="804.29" y="-480.3" font-family="Helvetica,sans-Serif" font-size="14.00">IndirectILLEnergyTransfer</text>
</g>
<!-- Integration -->
<g id="node15" class="node">
<title>Integration</title>
<path fill="lightskyblue" stroke="black" d="M838.79,-429C838.79,-429 769.79,-429 769.79,-429 763.79,-429 757.79,-423 757.79,-417 757.79,-417 757.79,-405 757.79,-405 757.79,-399 763.79,-393 769.79,-393 769.79,-393 838.79,-393 838.79,-393 844.79,-393 850.79,-399 850.79,-405 850.79,-405 850.79,-417 850.79,-417 850.79,-423 844.79,-429 838.79,-429"/>
<text text-anchor="middle" x="804.29" y="-407.3" font-family="Helvetica,sans-Serif" font-size="14.00">Integration</text>
</g>
<!-- IndirectILLEnergyTransfer&#45;&gt;Integration -->
<g id="edge3" class="edge">
<title>IndirectILLEnergyTransfer&#45;&gt;Integration</title>
<path fill="none" stroke="black" d="M804.29,-465.81C804.29,-457.79 804.29,-448.05 804.29,-439.07"/>
<polygon fill="black" stroke="black" points="807.79,-439.03 804.29,-429.03 800.79,-439.03 807.79,-439.03"/>
</g>
<!-- IndirectILLEnergyTransferB -->
<g id="node8" class="node">
<title>IndirectILLEnergyTransferB</title>
<path fill="lightskyblue" stroke="black" d="M661.29,-575C661.29,-575 491.29,-575 491.29,-575 485.29,-575 479.29,-569 479.29,-563 479.29,-563 479.29,-551 479.29,-551 479.29,-545 485.29,-539 491.29,-539 491.29,-539 661.29,-539 661.29,-539 667.29,-539 673.29,-545 673.29,-551 673.29,-551 673.29,-563 673.29,-563 673.29,-569 667.29,-575 661.29,-575"/>
<text text-anchor="middle" x="576.29" y="-553.3" font-family="Helvetica,sans-Serif" font-size="14.00">IndirectILLEnergyTransfer</text>
</g>
<!-- IntegrationB -->
<g id="node16" class="node">
<title>IntegrationB</title>
<path fill="lightskyblue" stroke="black" d="M605.79,-502C605.79,-502 536.79,-502 536.79,-502 530.79,-502 524.79,-496 524.79,-490 524.79,-490 524.79,-478 524.79,-478 524.79,-472 530.79,-466 536.79,-466 536.79,-466 605.79,-466 605.79,-466 611.79,-466 617.79,-472 617.79,-478 617.79,-478 617.79,-490 617.79,-490 617.79,-496 611.79,-502 605.79,-502"/>
<text text-anchor="middle" x="571.29" y="-480.3" font-family="Helvetica,sans-Serif" font-size="14.00">Integration</text>
</g>
<!-- IndirectILLEnergyTransferB&#45;&gt;IntegrationB -->
<g id="edge8" class="edge">
<title>IndirectILLEnergyTransferB&#45;&gt;IntegrationB</title>
<path fill="none" stroke="black" d="M575.08,-538.81C574.51,-530.79 573.83,-521.05 573.19,-512.07"/>
<polygon fill="black" stroke="black" points="576.68,-511.76 572.49,-502.03 569.7,-512.25 576.68,-511.76"/>
</g>
<!-- IndirectILLEnergyTransferC -->
<g id="node9" class="node">
<title>IndirectILLEnergyTransferC</title>
<path fill="lightskyblue" stroke="black" d="M444.29,-575C444.29,-575 274.29,-575 274.29,-575 268.29,-575 262.29,-569 262.29,-563 262.29,-563 262.29,-551 262.29,-551 262.29,-545 268.29,-539 274.29,-539 274.29,-539 444.29,-539 444.29,-539 450.29,-539 456.29,-545 456.29,-551 456.29,-551 456.29,-563 456.29,-563 456.29,-569 450.29,-575 444.29,-575"/>
<text text-anchor="middle" x="359.29" y="-553.3" font-family="Helvetica,sans-Serif" font-size="14.00">IndirectILLEnergyTransfer</text>
</g>
<!-- IntegrationC -->
<g id="node17" class="node">
<title>IntegrationC</title>
<path fill="lightskyblue" stroke="black" d="M396.79,-502C396.79,-502 327.79,-502 327.79,-502 321.79,-502 315.79,-496 315.79,-490 315.79,-490 315.79,-478 315.79,-478 315.79,-472 321.79,-466 327.79,-466 327.79,-466 396.79,-466 396.79,-466 402.79,-466 408.79,-472 408.79,-478 408.79,-478 408.79,-490 408.79,-490 408.79,-496 402.79,-502 396.79,-502"/>
<text text-anchor="middle" x="362.29" y="-480.3" font-family="Helvetica,sans-Serif" font-size="14.00">Integration</text>
</g>
<!-- IndirectILLEnergyTransferC&#45;&gt;IntegrationC -->
<g id="edge14" class="edge">
<title>IndirectILLEnergyTransferC&#45;&gt;IntegrationC</title>
<path fill="none" stroke="black" d="M360.01,-538.81C360.35,-530.79 360.77,-521.05 361.14,-512.07"/>
<polygon fill="black" stroke="black" points="364.64,-512.17 361.57,-502.03 357.65,-511.87 364.64,-512.17"/>
</g>
<!-- IndirectILLEnergyTransferCB -->
<g id="node10" class="node">
<title>IndirectILLEnergyTransferCB</title>
<path fill="lightskyblue" stroke="black" d="M216.29,-648C216.29,-648 46.29,-648 46.29,-648 40.29,-648 34.29,-642 34.29,-636 34.29,-636 34.29,-624 34.29,-624 34.29,-618 40.29,-612 46.29,-612 46.29,-612 216.29,-612 216.29,-612 222.29,-612 228.29,-618 228.29,-624 228.29,-624 228.29,-636 228.29,-636 228.29,-642 222.29,-648 216.29,-648"/>
<text text-anchor="middle" x="131.29" y="-626.3" font-family="Helvetica,sans-Serif" font-size="14.00">IndirectILLEnergyTransfer</text>
</g>
<!-- IntegrationCB -->
<g id="node18" class="node">
<title>IntegrationCB</title>
<path fill="lightskyblue" stroke="black" d="M165.79,-575C165.79,-575 96.79,-575 96.79,-575 90.79,-575 84.79,-569 84.79,-563 84.79,-563 84.79,-551 84.79,-551 84.79,-545 90.79,-539 96.79,-539 96.79,-539 165.79,-539 165.79,-539 171.79,-539 177.79,-545 177.79,-551 177.79,-551 177.79,-563 177.79,-563 177.79,-569 171.79,-575 165.79,-575"/>
<text text-anchor="middle" x="131.29" y="-553.3" font-family="Helvetica,sans-Serif" font-size="14.00">Integration</text>
</g>
<!-- IndirectILLEnergyTransferCB&#45;&gt;IntegrationCB -->
<g id="edge27" class="edge">
<title>IndirectILLEnergyTransferCB&#45;&gt;IntegrationCB</title>
<path fill="none" stroke="black" d="M131.29,-611.81C131.29,-603.79 131.29,-594.05 131.29,-585.07"/>
<polygon fill="black" stroke="black" points="134.79,-585.03 131.29,-575.03 127.79,-585.03 134.79,-585.03"/>
</g>
<!-- SelectNexusFilesByMetadata&#45;&gt;IndirectILLEnergyTransfer -->
<g id="edge2" class="edge">
<title>SelectNexusFilesByMetadata&#45;&gt;IndirectILLEnergyTransfer</title>
<path fill="none" stroke="black" d="M804.29,-538.81C804.29,-530.79 804.29,-521.05 804.29,-512.07"/>
<polygon fill="black" stroke="black" points="807.79,-512.03 804.29,-502.03 800.79,-512.03 807.79,-512.03"/>
</g>
<!-- SelectNexusFilesByMetadataB&#45;&gt;IndirectILLEnergyTransferB -->
<g id="edge7" class="edge">
<title>SelectNexusFilesByMetadataB&#45;&gt;IndirectILLEnergyTransferB</title>
<path fill="none" stroke="black" d="M587.66,-611.81C585.96,-603.79 583.9,-594.05 582.01,-585.07"/>
<polygon fill="black" stroke="black" points="585.38,-584.09 579.89,-575.03 578.53,-585.54 585.38,-584.09"/>
</g>
<!-- SelectNexusFilesByMetadataC&#45;&gt;IndirectILLEnergyTransferC -->
<g id="edge13" class="edge">
<title>SelectNexusFilesByMetadataC&#45;&gt;IndirectILLEnergyTransferC</title>
<path fill="none" stroke="black" d="M358.53,-611.81C358.64,-603.79 358.78,-594.05 358.91,-585.07"/>
<polygon fill="black" stroke="black" points="362.41,-585.08 359.05,-575.03 355.41,-584.98 362.41,-585.08"/>
</g>
<!-- SelectNexusFilesByMetadataCB&#45;&gt;IndirectILLEnergyTransferCB -->
<g id="edge26" class="edge">
<title>SelectNexusFilesByMetadataCB&#45;&gt;IndirectILLEnergyTransferCB</title>
<path fill="none" stroke="black" d="M131.29,-684.81C131.29,-676.79 131.29,-667.05 131.29,-658.07"/>
<polygon fill="black" stroke="black" points="134.79,-658.03 131.29,-648.03 127.79,-658.03 134.79,-658.03"/>
</g>
<!-- Integration&#45;&gt;Scan -->
<g id="edge4" class="edge">
<title>Integration&#45;&gt;Scan</title>
<path fill="none" stroke="black" d="M779.8,-392.8C761.43,-379.9 736.1,-362.1 716,-347.98"/>
<polygon fill="black" stroke="black" points="717.93,-345.06 707.74,-342.18 713.91,-350.79 717.93,-345.06"/>
</g>
<!-- ScanB -->
<g id="node30" class="node">
<title>ScanB</title>
<polygon fill="lightseagreen" stroke="black" points="591.29,-429 537.29,-429 537.29,-393 591.29,-393 591.29,-429"/>
<text text-anchor="middle" x="564.29" y="-407.3" font-family="Helvetica,sans-Serif" font-size="14.00">Scan</text>
</g>
<!-- IntegrationB&#45;&gt;ScanB -->
<g id="edge9" class="edge">
<title>IntegrationB&#45;&gt;ScanB</title>
<path fill="none" stroke="black" d="M569.59,-465.81C568.8,-457.79 567.84,-448.05 566.96,-439.07"/>
<polygon fill="black" stroke="black" points="570.43,-438.64 565.97,-429.03 563.47,-439.32 570.43,-438.64"/>
</g>
<!-- ScanC -->
<g id="node31" class="node">
<title>ScanC</title>
<polygon fill="lightseagreen" stroke="black" points="390.29,-429 336.29,-429 336.29,-393 390.29,-393 390.29,-429"/>
<text text-anchor="middle" x="363.29" y="-407.3" font-family="Helvetica,sans-Serif" font-size="14.00">Scan</text>
</g>
<!-- IntegrationC&#45;&gt;ScanC -->
<g id="edge15" class="edge">
<title>IntegrationC&#45;&gt;ScanC</title>
<path fill="none" stroke="black" d="M362.53,-465.81C362.64,-457.79 362.78,-448.05 362.91,-439.07"/>
<polygon fill="black" stroke="black" points="366.41,-439.08 363.05,-429.03 359.41,-438.98 366.41,-439.08"/>
</g>
<!-- ScanCB -->
<g id="node32" class="node">
<title>ScanCB</title>
<polygon fill="lightseagreen" stroke="black" points="158.29,-502 104.29,-502 104.29,-466 158.29,-466 158.29,-502"/>
<text text-anchor="middle" x="131.29" y="-480.3" font-family="Helvetica,sans-Serif" font-size="14.00">Scan</text>
</g>
<!-- IntegrationCB&#45;&gt;ScanCB -->
<g id="edge28" class="edge">
<title>IntegrationCB&#45;&gt;ScanCB</title>
<path fill="none" stroke="black" d="M131.29,-538.81C131.29,-530.79 131.29,-521.05 131.29,-512.07"/>
<polygon fill="black" stroke="black" points="134.79,-512.03 131.29,-502.03 127.79,-512.03 134.79,-512.03"/>
</g>
<!-- GroupWorkspaces -->
<g id="node19" class="node">
<title>GroupWorkspaces</title>
<path fill="lightskyblue" stroke="black" d="M464.79,-109C464.79,-109 345.79,-109 345.79,-109 339.79,-109 333.79,-103 333.79,-97 333.79,-97 333.79,-85 333.79,-85 333.79,-79 339.79,-73 345.79,-73 345.79,-73 464.79,-73 464.79,-73 470.79,-73 476.79,-79 476.79,-85 476.79,-85 476.79,-97 476.79,-97 476.79,-103 470.79,-109 464.79,-109"/>
<text text-anchor="middle" x="405.29" y="-87.3" font-family="Helvetica,sans-Serif" font-size="14.00">GroupWorkspaces</text>
</g>
<!-- GroupWorkspaces&#45;&gt;OutputWorkspace -->
<g id="edge34" class="edge">
<title>GroupWorkspaces&#45;&gt;OutputWorkspace</title>
<path fill="none" stroke="black" d="M405.29,-72.81C405.29,-64.79 405.29,-55.05 405.29,-46.07"/>
<polygon fill="black" stroke="black" points="408.79,-46.03 405.29,-36.03 401.79,-46.03 408.79,-46.03"/>
</g>
<!-- SplineInterpolationB -->
<g id="node20" class="node">
<title>SplineInterpolationB</title>
<path fill="lightskyblue" stroke="black" d="M626.29,-342C626.29,-342 502.29,-342 502.29,-342 496.29,-342 490.29,-336 490.29,-330 490.29,-330 490.29,-318 490.29,-318 490.29,-312 496.29,-306 502.29,-306 502.29,-306 626.29,-306 626.29,-306 632.29,-306 638.29,-312 638.29,-318 638.29,-318 638.29,-330 638.29,-330 638.29,-336 632.29,-342 626.29,-342"/>
<text text-anchor="middle" x="564.29" y="-320.3" font-family="Helvetica,sans-Serif" font-size="14.00">SplineInterpolation</text>
</g>
<!-- MinusA -->
<g id="node26" class="node">
<title>MinusA</title>
<path fill="lightskyblue" stroke="black" d="M547.29,-255C547.29,-255 513.29,-255 513.29,-255 507.29,-255 501.29,-249 501.29,-243 501.29,-243 501.29,-231 501.29,-231 501.29,-225 507.29,-219 513.29,-219 513.29,-219 547.29,-219 547.29,-219 553.29,-219 559.29,-225 559.29,-231 559.29,-231 559.29,-243 559.29,-243 559.29,-249 553.29,-255 547.29,-255"/>
<text text-anchor="middle" x="530.29" y="-233.3" font-family="Helvetica,sans-Serif" font-size="14.00">Minus</text>
</g>
<!-- SplineInterpolationB&#45;&gt;MinusA -->
<g id="edge21" class="edge">
<title>SplineInterpolationB&#45;&gt;MinusA</title>
<path fill="none" stroke="black" d="M557.41,-305.8C552.71,-294.05 546.38,-278.24 541.03,-264.84"/>
<polygon fill="black" stroke="black" points="544.12,-263.16 537.16,-255.18 537.62,-265.76 544.12,-263.16"/>
</g>
<!-- SplineInterpolationC -->
<g id="node21" class="node">
<title>SplineInterpolationC</title>
<path fill="lightskyblue" stroke="black" d="M467.29,-255C467.29,-255 343.29,-255 343.29,-255 337.29,-255 331.29,-249 331.29,-243 331.29,-243 331.29,-231 331.29,-231 331.29,-225 337.29,-219 343.29,-219 343.29,-219 467.29,-219 467.29,-219 473.29,-219 479.29,-225 479.29,-231 479.29,-231 479.29,-243 479.29,-243 479.29,-249 473.29,-255 467.29,-255"/>
<text text-anchor="middle" x="405.29" y="-233.3" font-family="Helvetica,sans-Serif" font-size="14.00">SplineInterpolation</text>
</g>
<!-- Divide -->
<g id="node28" class="node">
<title>Divide</title>
<path fill="lightskyblue" stroke="black" d="M423.29,-182C423.29,-182 387.29,-182 387.29,-182 381.29,-182 375.29,-176 375.29,-170 375.29,-170 375.29,-158 375.29,-158 375.29,-152 381.29,-146 387.29,-146 387.29,-146 423.29,-146 423.29,-146 429.29,-146 435.29,-152 435.29,-158 435.29,-158 435.29,-170 435.29,-170 435.29,-176 429.29,-182 423.29,-182"/>
<text text-anchor="middle" x="405.29" y="-160.3" font-family="Helvetica,sans-Serif" font-size="14.00">Divide</text>
</g>
<!-- SplineInterpolationC&#45;&gt;Divide -->
<g id="edge24" class="edge">
<title>SplineInterpolationC&#45;&gt;Divide</title>
<path fill="none" stroke="black" d="M405.29,-218.81C405.29,-210.79 405.29,-201.05 405.29,-192.07"/>
<polygon fill="black" stroke="black" points="408.79,-192.03 405.29,-182.03 401.79,-192.03 408.79,-192.03"/>
</g>
<!-- SplineInterpolationCB -->
<g id="node22" class="node">
<title>SplineInterpolationCB</title>
<path fill="lightskyblue" stroke="black" d="M306.29,-429C306.29,-429 182.29,-429 182.29,-429 176.29,-429 170.29,-423 170.29,-417 170.29,-417 170.29,-405 170.29,-405 170.29,-399 176.29,-393 182.29,-393 182.29,-393 306.29,-393 306.29,-393 312.29,-393 318.29,-399 318.29,-405 318.29,-405 318.29,-417 318.29,-417 318.29,-423 312.29,-429 306.29,-429"/>
<text text-anchor="middle" x="244.29" y="-407.3" font-family="Helvetica,sans-Serif" font-size="14.00">SplineInterpolation</text>
</g>
<!-- MinusB -->
<g id="node27" class="node">
<title>MinusB</title>
<path fill="lightskyblue" stroke="black" d="M283.29,-342C283.29,-342 249.29,-342 249.29,-342 243.29,-342 237.29,-336 237.29,-330 237.29,-330 237.29,-318 237.29,-318 237.29,-312 243.29,-306 249.29,-306 249.29,-306 283.29,-306 283.29,-306 289.29,-306 295.29,-312 295.29,-318 295.29,-318 295.29,-330 295.29,-330 295.29,-336 289.29,-342 283.29,-342"/>
<text text-anchor="middle" x="266.29" y="-320.3" font-family="Helvetica,sans-Serif" font-size="14.00">Minus</text>
</g>
<!-- SplineInterpolationCB&#45;&gt;MinusB -->
<g id="edge32" class="edge">
<title>SplineInterpolationCB&#45;&gt;MinusB</title>
<path fill="none" stroke="black" d="M248.74,-392.8C251.75,-381.16 255.79,-365.55 259.24,-352.24"/>
<polygon fill="black" stroke="black" points="262.73,-352.73 261.84,-342.18 255.95,-350.98 262.73,-352.73"/>
</g>
<!-- IntegrationBB -->
<g id="node23" class="node">
<title>IntegrationBB</title>
<path fill="lightskyblue" stroke="black" d="M459.79,-342C459.79,-342 390.79,-342 390.79,-342 384.79,-342 378.79,-336 378.79,-330 378.79,-330 378.79,-318 378.79,-318 378.79,-312 384.79,-306 390.79,-306 390.79,-306 459.79,-306 459.79,-306 465.79,-306 471.79,-312 471.79,-318 471.79,-318 471.79,-330 471.79,-330 471.79,-336 465.79,-342 459.79,-342"/>
<text text-anchor="middle" x="425.29" y="-320.3" font-family="Helvetica,sans-Serif" font-size="14.00">Integration</text>
</g>
<!-- IntegrationBB&#45;&gt;MinusA -->
<g id="edge20" class="edge">
<title>IntegrationBB&#45;&gt;MinusA</title>
<path fill="none" stroke="black" d="M446.54,-305.8C462.19,-293.13 483.68,-275.73 500.97,-261.74"/>
<polygon fill="black" stroke="black" points="503.5,-264.19 509.07,-255.18 499.1,-258.75 503.5,-264.19"/>
</g>
<!-- IntegrationCC -->
<g id="node24" class="node">
<title>IntegrationCC</title>
<path fill="lightskyblue" stroke="black" d="M300.79,-255C300.79,-255 231.79,-255 231.79,-255 225.79,-255 219.79,-249 219.79,-243 219.79,-243 219.79,-231 219.79,-231 219.79,-225 225.79,-219 231.79,-219 231.79,-219 300.79,-219 300.79,-219 306.79,-219 312.79,-225 312.79,-231 312.79,-231 312.79,-243 312.79,-243 312.79,-249 306.79,-255 300.79,-255"/>
<text text-anchor="middle" x="266.29" y="-233.3" font-family="Helvetica,sans-Serif" font-size="14.00">Integration</text>
</g>
<!-- IntegrationCC&#45;&gt;Divide -->
<g id="edge23" class="edge">
<title>IntegrationCC&#45;&gt;Divide</title>
<path fill="none" stroke="black" d="M299.58,-218.99C319.59,-208.77 345.16,-195.71 366.13,-185"/>
<polygon fill="black" stroke="black" points="367.8,-188.08 375.11,-180.41 364.61,-181.85 367.8,-188.08"/>
</g>
<!-- IntegrationCCBB -->
<g id="node25" class="node">
<title>IntegrationCCBB</title>
<path fill="lightskyblue" stroke="black" d="M139.79,-429C139.79,-429 70.79,-429 70.79,-429 64.79,-429 58.79,-423 58.79,-417 58.79,-417 58.79,-405 58.79,-405 58.79,-399 64.79,-393 70.79,-393 70.79,-393 139.79,-393 139.79,-393 145.79,-393 151.79,-399 151.79,-405 151.79,-405 151.79,-417 151.79,-417 151.79,-423 145.79,-429 139.79,-429"/>
<text text-anchor="middle" x="105.29" y="-407.3" font-family="Helvetica,sans-Serif" font-size="14.00">Integration</text>
</g>
<!-- IntegrationCCBB&#45;&gt;MinusB -->
<g id="edge30" class="edge">
<title>IntegrationCCBB&#45;&gt;MinusB</title>
<path fill="none" stroke="black" d="M137.87,-392.8C164.04,-378.98 200.83,-359.56 228.33,-345.04"/>
<polygon fill="black" stroke="black" points="230.06,-348.08 237.27,-340.32 226.79,-341.89 230.06,-348.08"/>
</g>
<!-- MinusA&#45;&gt;Divide -->
<g id="edge22" class="edge">
<title>MinusA&#45;&gt;Divide</title>
<path fill="none" stroke="black" d="M500.98,-219.35C483.99,-209.7 462.39,-197.43 444.01,-186.99"/>
<polygon fill="black" stroke="black" points="445.7,-183.93 435.28,-182.04 442.25,-190.02 445.7,-183.93"/>
</g>
<!-- MinusB&#45;&gt;SplineInterpolationC -->
<g id="edge18" class="edge">
<title>MinusB&#45;&gt;SplineInterpolationC</title>
<path fill="none" stroke="black" d="M294.42,-305.8C315.8,-292.72 345.4,-274.62 368.64,-260.41"/>
<polygon fill="black" stroke="black" points="370.5,-263.38 377.2,-255.18 366.84,-257.41 370.5,-263.38"/>
<text text-anchor="middle" x="382.29" y="-276.8" font-family="Helvetica,sans-Serif" font-size="14.00">Interpolate</text>
</g>
<!-- MinusB&#45;&gt;IntegrationCC -->
<g id="edge17" class="edge">
<title>MinusB&#45;&gt;IntegrationCC</title>
<path fill="none" stroke="black" d="M266.29,-305.8C266.29,-294.16 266.29,-278.55 266.29,-265.24"/>
<polygon fill="black" stroke="black" points="269.79,-265.18 266.29,-255.18 262.79,-265.18 269.79,-265.18"/>
<text text-anchor="middle" x="282.29" y="-276.8" font-family="Helvetica,sans-Serif" font-size="14.00">Sum</text>
</g>
<!-- Divide&#45;&gt;GroupWorkspaces -->
<g id="edge33" class="edge">
<title>Divide&#45;&gt;GroupWorkspaces</title>
<path fill="none" stroke="black" d="M405.29,-145.81C405.29,-137.79 405.29,-128.05 405.29,-119.07"/>
<polygon fill="black" stroke="black" points="408.79,-119.03 405.29,-109.03 401.79,-119.03 408.79,-119.03"/>
</g>
<!-- Scan&#45;&gt;MinusA -->
<g id="edge19" class="edge">
<title>Scan&#45;&gt;MinusA</title>
<path fill="none" stroke="black" d="M656.29,-308C631.85,-294.43 595.62,-274.29 568.27,-259.1"/>
<polygon fill="black" stroke="black" points="569.8,-255.95 559.36,-254.15 566.4,-262.07 569.8,-255.95"/>
</g>
<!-- ScanB&#45;&gt;SplineInterpolationB -->
<g id="edge11" class="edge">
<title>ScanB&#45;&gt;SplineInterpolationB</title>
<path fill="none" stroke="black" d="M564.29,-392.8C564.29,-381.16 564.29,-365.55 564.29,-352.24"/>
<polygon fill="black" stroke="black" points="567.79,-352.18 564.29,-342.18 560.79,-352.18 567.79,-352.18"/>
<text text-anchor="middle" x="602.29" y="-363.8" font-family="Helvetica,sans-Serif" font-size="14.00">Interpolate</text>
</g>
<!-- ScanB&#45;&gt;IntegrationBB -->
<g id="edge10" class="edge">
<title>ScanB&#45;&gt;IntegrationBB</title>
<path fill="none" stroke="black" d="M537.16,-393.41C515.72,-380.3 485.59,-361.87 461.99,-347.45"/>
<polygon fill="black" stroke="black" points="463.66,-344.36 453.3,-342.13 460.01,-350.33 463.66,-344.36"/>
<text text-anchor="middle" x="519.29" y="-363.8" font-family="Helvetica,sans-Serif" font-size="14.00">Sum</text>
</g>
<!-- ScanC&#45;&gt;MinusB -->
<g id="edge16" class="edge">
<title>ScanC&#45;&gt;MinusB</title>
<path fill="none" stroke="black" d="M343.66,-392.8C329.33,-380.24 309.71,-363.05 293.81,-349.12"/>
<polygon fill="black" stroke="black" points="295.72,-346.13 285.89,-342.18 291.1,-351.4 295.72,-346.13"/>
</g>
<!-- ScanCB&#45;&gt;SplineInterpolationCB -->
<g id="edge31" class="edge">
<title>ScanCB&#45;&gt;SplineInterpolationCB</title>
<path fill="none" stroke="black" d="M158.35,-465.99C173.34,-456.58 192.16,-444.76 208.36,-434.57"/>
<polygon fill="black" stroke="black" points="210.45,-437.4 217.05,-429.11 206.72,-431.47 210.45,-437.4"/>
</g>
<!-- ScanCB&#45;&gt;IntegrationCCBB -->
<g id="edge29" class="edge">
<title>ScanCB&#45;&gt;IntegrationCCBB</title>
<path fill="none" stroke="black" d="M124.99,-465.81C121.99,-457.62 118.33,-447.62 114.99,-438.48"/>
<polygon fill="black" stroke="black" points="118.25,-437.22 111.52,-429.03 111.68,-439.62 118.25,-437.22"/>
</g>
</g>
</svg>
