<?xml version="1.0" encoding="UTF-8" standalone="no"?>
<!DOCTYPE svg PUBLIC "-//W3C//DTD SVG 1.1//EN"
 "http://www.w3.org/Graphics/SVG/1.1/DTD/svg11.dtd">
<!-- Generated by graphviz version 3.0.0 (20220315.2325)
 -->
<!-- Title: IndirectFlatePlateAbsorption Pages: 1 -->
<svg width="1831pt" height="1743pt"
 viewBox="0.00 0.00 1831.19 1743.00" xmlns="http://www.w3.org/2000/svg" xmlns:xlink="http://www.w3.org/1999/xlink">
<g id="graph0" class="graph" transform="scale(1 1) rotate(0) translate(4 1739)">
<title>IndirectFlatePlateAbsorption</title>
<polygon fill="white" stroke="transparent" points="-4,4 -4,-1739 1827.19,-1739 1827.19,4 -4,4"/>
<text text-anchor="middle" x="911.6" y="-1719.8" font-family="Helvetica,sans-Serif" font-size="14.00">IndirectFlatePlateAbsorption Flowchart</text>
<!-- SampleWorkspace1 -->
<g id="node1" class="node">
<title>SampleWorkspace1</title>
<ellipse fill="khaki" stroke="black" cx="1543.19" cy="-1694" rx="94.48" ry="18"/>
<text text-anchor="middle" x="1543.19" y="-1690.3" font-family="Helvetica,sans-Serif" font-size="14.00">SampleWorkspace</text>
</g>
<!-- GetEFixed -->
<g id="node23" class="node">
<title>GetEFixed</title>
<path fill="lightskyblue" stroke="black" d="M1574.19,-1639C1574.19,-1639 1512.19,-1639 1512.19,-1639 1506.19,-1639 1500.19,-1633 1500.19,-1627 1500.19,-1627 1500.19,-1615 1500.19,-1615 1500.19,-1609 1506.19,-1603 1512.19,-1603 1512.19,-1603 1574.19,-1603 1574.19,-1603 1580.19,-1603 1586.19,-1609 1586.19,-1615 1586.19,-1615 1586.19,-1627 1586.19,-1627 1586.19,-1633 1580.19,-1639 1574.19,-1639"/>
<text text-anchor="middle" x="1543.19" y="-1617.3" font-family="Helvetica,sans-Serif" font-size="14.00">GetEFixed</text>
</g>
<!-- SampleWorkspace1&#45;&gt;GetEFixed -->
<g id="edge1" class="edge">
<title>SampleWorkspace1&#45;&gt;GetEFixed</title>
<path fill="none" stroke="black" d="M1543.19,-1675.81C1543.19,-1667.79 1543.19,-1658.05 1543.19,-1649.07"/>
<polygon fill="black" stroke="black" points="1546.69,-1649.03 1543.19,-1639.03 1539.69,-1649.03 1546.69,-1649.03"/>
</g>
<!-- SampleWorkspace2 -->
<g id="node2" class="node">
<title>SampleWorkspace2</title>
<ellipse fill="khaki" stroke="black" cx="475.19" cy="-1009" rx="94.48" ry="18"/>
<text text-anchor="middle" x="475.19" y="-1005.3" font-family="Helvetica,sans-Serif" font-size="14.00">SampleWorkspace</text>
</g>
<!-- Divide1 -->
<g id="node45" class="node">
<title>Divide1</title>
<ellipse fill="lightgrey" stroke="black" cx="696.19" cy="-936" rx="44.69" ry="18"/>
<text text-anchor="middle" x="696.19" y="-932.3" font-family="Helvetica,sans-Serif" font-size="14.00">Divide1</text>
</g>
<!-- SampleWorkspace2&#45;&gt;Divide1 -->
<g id="edge23" class="edge">
<title>SampleWorkspace2&#45;&gt;Divide1</title>
<path fill="none" stroke="black" d="M521.25,-993.2C559.81,-980.82 614.45,-963.26 652.36,-951.08"/>
<polygon fill="black" stroke="black" points="653.65,-954.34 662.1,-947.95 651.51,-947.68 653.65,-954.34"/>
</g>
<!-- SampleChemicalFormula -->
<g id="node3" class="node">
<title>SampleChemicalFormula</title>
<ellipse fill="khaki" stroke="black" cx="292.19" cy="-1461" rx="122.38" ry="18"/>
<text text-anchor="middle" x="292.19" y="-1457.3" font-family="Helvetica,sans-Serif" font-size="14.00">SampleChemicalFormula</text>
</g>
<!-- SetSample -->
<g id="node30" class="node">
<title>SetSample</title>
<path fill="lightskyblue" stroke="black" d="M906.69,-1406C906.69,-1406 839.69,-1406 839.69,-1406 833.69,-1406 827.69,-1400 827.69,-1394 827.69,-1394 827.69,-1382 827.69,-1382 827.69,-1376 833.69,-1370 839.69,-1370 839.69,-1370 906.69,-1370 906.69,-1370 912.69,-1370 918.69,-1376 918.69,-1382 918.69,-1382 918.69,-1394 918.69,-1394 918.69,-1400 912.69,-1406 906.69,-1406"/>
<text text-anchor="middle" x="873.19" y="-1384.3" font-family="Helvetica,sans-Serif" font-size="14.00">SetSample</text>
</g>
<!-- SampleChemicalFormula&#45;&gt;SetSample -->
<g id="edge11" class="edge">
<title>SampleChemicalFormula&#45;&gt;SetSample</title>
<path fill="none" stroke="black" d="M379.17,-1448.27C393.85,-1446.42 408.95,-1444.59 423.19,-1443 595.18,-1423.79 643.48,-1439.82 817.45,-1405.89"/>
<polygon fill="black" stroke="black" points="818.33,-1409.28 827.46,-1403.91 816.97,-1402.42 818.33,-1409.28"/>
</g>
<!-- SampleDensity -->
<g id="node4" class="node">
<title>SampleDensity</title>
<ellipse fill="khaki" stroke="black" cx="511.19" cy="-1461" rx="78.79" ry="18"/>
<text text-anchor="middle" x="511.19" y="-1457.3" font-family="Helvetica,sans-Serif" font-size="14.00">SampleDensity</text>
</g>
<!-- SampleDensity&#45;&gt;SetSample -->
<g id="edge12" class="edge">
<title>SampleDensity&#45;&gt;SetSample</title>
<path fill="none" stroke="black" d="M568.91,-1448.65C578.99,-1446.72 589.39,-1444.77 599.19,-1443 693.2,-1425.98 720.42,-1428.65 817.47,-1406"/>
<polygon fill="black" stroke="black" points="818.48,-1409.36 827.4,-1403.65 816.86,-1402.55 818.48,-1409.36"/>
</g>
<!-- SampleHeight -->
<g id="node5" class="node">
<title>SampleHeight</title>
<ellipse fill="khaki" stroke="black" cx="682.19" cy="-1461" rx="74.19" ry="18"/>
<text text-anchor="middle" x="682.19" y="-1457.3" font-family="Helvetica,sans-Serif" font-size="14.00">SampleHeight</text>
</g>
<!-- SampleHeight&#45;&gt;SetSample -->
<g id="edge9" class="edge">
<title>SampleHeight&#45;&gt;SetSample</title>
<path fill="none" stroke="black" d="M720.84,-1445.63C748.8,-1435.24 786.98,-1421.05 818.12,-1409.47"/>
<polygon fill="black" stroke="black" points="819.38,-1412.74 827.54,-1405.97 816.95,-1406.17 819.38,-1412.74"/>
</g>
<!-- SampleInnerRadius -->
<g id="node6" class="node">
<title>SampleInnerRadius</title>
<ellipse fill="khaki" stroke="black" cx="873.19" cy="-1461" rx="98.58" ry="18"/>
<text text-anchor="middle" x="873.19" y="-1457.3" font-family="Helvetica,sans-Serif" font-size="14.00">SampleInnerRadius</text>
</g>
<!-- SampleInnerRadius&#45;&gt;SetSample -->
<g id="edge7" class="edge">
<title>SampleInnerRadius&#45;&gt;SetSample</title>
<path fill="none" stroke="black" d="M873.19,-1442.81C873.19,-1434.79 873.19,-1425.05 873.19,-1416.07"/>
<polygon fill="black" stroke="black" points="876.69,-1416.03 873.19,-1406.03 869.69,-1416.03 876.69,-1416.03"/>
</g>
<!-- SampleOuterRadius -->
<g id="node7" class="node">
<title>SampleOuterRadius</title>
<ellipse fill="khaki" stroke="black" cx="1091.19" cy="-1461" rx="100.98" ry="18"/>
<text text-anchor="middle" x="1091.19" y="-1457.3" font-family="Helvetica,sans-Serif" font-size="14.00">SampleOuterRadius</text>
</g>
<!-- SampleOuterRadius&#45;&gt;SetSample -->
<g id="edge8" class="edge">
<title>SampleOuterRadius&#45;&gt;SetSample</title>
<path fill="none" stroke="black" d="M1044.96,-1444.94C1011.03,-1433.89 964.79,-1418.83 928.83,-1407.12"/>
<polygon fill="black" stroke="black" points="929.58,-1403.68 918.98,-1403.91 927.41,-1410.34 929.58,-1403.68"/>
</g>
<!-- SampleAngle -->
<g id="node8" class="node">
<title>SampleAngle</title>
<ellipse fill="khaki" stroke="black" cx="1280.19" cy="-1461" rx="70.39" ry="18"/>
<text text-anchor="middle" x="1280.19" y="-1457.3" font-family="Helvetica,sans-Serif" font-size="14.00">SampleAngle</text>
</g>
<!-- SampleAngle&#45;&gt;SetSample -->
<g id="edge10" class="edge">
<title>SampleAngle&#45;&gt;SetSample</title>
<path fill="none" stroke="black" d="M1228.85,-1448.57C1219.65,-1446.63 1210.15,-1444.7 1201.19,-1443 1105.93,-1424.92 994.43,-1407.31 929.04,-1397.34"/>
<polygon fill="black" stroke="black" points="929.36,-1393.85 918.95,-1395.81 928.31,-1400.77 929.36,-1393.85"/>
</g>
<!-- BeamHeight -->
<g id="node9" class="node">
<title>BeamHeight</title>
<ellipse fill="khaki" stroke="black" cx="1261.19" cy="-1534" rx="66.09" ry="18"/>
<text text-anchor="middle" x="1261.19" y="-1530.3" font-family="Helvetica,sans-Serif" font-size="14.00">BeamHeight</text>
</g>
<!-- SetBeam -->
<g id="node27" class="node">
<title>SetBeam</title>
<path fill="lightskyblue" stroke="black" d="M1435.69,-1479C1435.69,-1479 1380.69,-1479 1380.69,-1479 1374.69,-1479 1368.69,-1473 1368.69,-1467 1368.69,-1467 1368.69,-1455 1368.69,-1455 1368.69,-1449 1374.69,-1443 1380.69,-1443 1380.69,-1443 1435.69,-1443 1435.69,-1443 1441.69,-1443 1447.69,-1449 1447.69,-1455 1447.69,-1455 1447.69,-1467 1447.69,-1467 1447.69,-1473 1441.69,-1479 1435.69,-1479"/>
<text text-anchor="middle" x="1408.19" y="-1457.3" font-family="Helvetica,sans-Serif" font-size="14.00">SetBeam</text>
</g>
<!-- BeamHeight&#45;&gt;SetBeam -->
<g id="edge4" class="edge">
<title>BeamHeight&#45;&gt;SetBeam</title>
<path fill="none" stroke="black" d="M1292.37,-1517.94C1313.11,-1507.93 1340.67,-1494.61 1363.7,-1483.49"/>
<polygon fill="black" stroke="black" points="1365.45,-1486.53 1372.94,-1479.03 1362.41,-1480.23 1365.45,-1486.53"/>
</g>
<!-- BeamWidth -->
<g id="node10" class="node">
<title>BeamWidth</title>
<ellipse fill="khaki" stroke="black" cx="1408.19" cy="-1534" rx="63.09" ry="18"/>
<text text-anchor="middle" x="1408.19" y="-1530.3" font-family="Helvetica,sans-Serif" font-size="14.00">BeamWidth</text>
</g>
<!-- BeamWidth&#45;&gt;SetBeam -->
<g id="edge5" class="edge">
<title>BeamWidth&#45;&gt;SetBeam</title>
<path fill="none" stroke="black" d="M1408.19,-1515.81C1408.19,-1507.79 1408.19,-1498.05 1408.19,-1489.07"/>
<polygon fill="black" stroke="black" points="1411.69,-1489.03 1408.19,-1479.03 1404.69,-1489.03 1411.69,-1489.03"/>
</g>
<!-- Events -->
<g id="node11" class="node">
<title>Events</title>
<ellipse fill="khaki" stroke="black" cx="517.19" cy="-1388" rx="41.69" ry="18"/>
<text text-anchor="middle" x="517.19" y="-1384.3" font-family="Helvetica,sans-Serif" font-size="14.00">Events</text>
</g>
<!-- MonteCarlo -->
<g id="node33" class="node">
<title>MonteCarlo</title>
<path fill="lightskyblue" stroke="black" d="M728.69,-1333C728.69,-1333 657.69,-1333 657.69,-1333 651.69,-1333 645.69,-1327 645.69,-1321 645.69,-1321 645.69,-1309 645.69,-1309 645.69,-1303 651.69,-1297 657.69,-1297 657.69,-1297 728.69,-1297 728.69,-1297 734.69,-1297 740.69,-1303 740.69,-1309 740.69,-1309 740.69,-1321 740.69,-1321 740.69,-1327 734.69,-1333 728.69,-1333"/>
<text text-anchor="middle" x="693.19" y="-1311.3" font-family="Helvetica,sans-Serif" font-size="14.00">MonteCarlo</text>
</g>
<!-- Events&#45;&gt;MonteCarlo -->
<g id="edge14" class="edge">
<title>Events&#45;&gt;MonteCarlo</title>
<path fill="none" stroke="black" d="M546.65,-1375.12C572.46,-1364.71 610.56,-1349.34 641.44,-1336.88"/>
<polygon fill="black" stroke="black" points="642.81,-1340.1 650.77,-1333.11 640.19,-1333.61 642.81,-1340.1"/>
</g>
<!-- NumberOfWavelengths -->
<g id="node12" class="node">
<title>NumberOfWavelengths</title>
<ellipse fill="khaki" stroke="black" cx="693.19" cy="-1388" rx="116.18" ry="18"/>
<text text-anchor="middle" x="693.19" y="-1384.3" font-family="Helvetica,sans-Serif" font-size="14.00">NumberOfWavelengths</text>
</g>
<!-- NumberOfWavelengths&#45;&gt;MonteCarlo -->
<g id="edge15" class="edge">
<title>NumberOfWavelengths&#45;&gt;MonteCarlo</title>
<path fill="none" stroke="black" d="M693.19,-1369.81C693.19,-1361.79 693.19,-1352.05 693.19,-1343.07"/>
<polygon fill="black" stroke="black" points="696.69,-1343.03 693.19,-1333.03 689.69,-1343.03 696.69,-1343.03"/>
</g>
<!-- AbsWorkspace1 -->
<g id="node13" class="node">
<title>AbsWorkspace1</title>
<ellipse fill="khaki" stroke="black" cx="681.19" cy="-1242" rx="109.68" ry="18"/>
<text text-anchor="middle" x="681.19" y="-1238.3" font-family="Helvetica,sans-Serif" font-size="14.00">AbsorptionWorkspace</text>
</g>
<!-- AbsWorkspace2 -->
<g id="node14" class="node">
<title>AbsWorkspace2</title>
<ellipse fill="khaki" stroke="black" cx="697.19" cy="-1009" rx="109.68" ry="18"/>
<text text-anchor="middle" x="697.19" y="-1005.3" font-family="Helvetica,sans-Serif" font-size="14.00">AbsorptionWorkspace</text>
</g>
<!-- AbsWorkspace2&#45;&gt;Divide1 -->
<g id="edge24" class="edge">
<title>AbsWorkspace2&#45;&gt;Divide1</title>
<path fill="none" stroke="black" d="M696.95,-990.81C696.84,-982.79 696.7,-973.05 696.57,-964.07"/>
<polygon fill="black" stroke="black" points="700.07,-963.98 696.43,-954.03 693.07,-964.08 700.07,-963.98"/>
</g>
<!-- CanAbsorptionWorkspace -->
<g id="node15" class="node">
<title>CanAbsorptionWorkspace</title>
<ellipse fill="khaki" stroke="black" cx="629.19" cy="-397" rx="127.28" ry="18"/>
<text text-anchor="middle" x="629.19" y="-393.3" font-family="Helvetica,sans-Serif" font-size="14.00">CanAbsorptionWorkspace</text>
</g>
<!-- CanWorkspace1 -->
<g id="node16" class="node">
<title>CanWorkspace1</title>
<ellipse fill="khaki" stroke="black" cx="438.19" cy="-776" rx="83.69" ry="18"/>
<text text-anchor="middle" x="438.19" y="-772.3" font-family="Helvetica,sans-Serif" font-size="14.00">CanWorkspace1</text>
</g>
<!-- SetBeam1 -->
<g id="node28" class="node">
<title>SetBeam1</title>
<path fill="lightskyblue" stroke="black" d="M251.69,-707C251.69,-707 196.69,-707 196.69,-707 190.69,-707 184.69,-701 184.69,-695 184.69,-695 184.69,-683 184.69,-683 184.69,-677 190.69,-671 196.69,-671 196.69,-671 251.69,-671 251.69,-671 257.69,-671 263.69,-677 263.69,-683 263.69,-683 263.69,-695 263.69,-695 263.69,-701 257.69,-707 251.69,-707"/>
<text text-anchor="middle" x="224.19" y="-685.3" font-family="Helvetica,sans-Serif" font-size="14.00">SetBeam</text>
</g>
<!-- CanWorkspace1&#45;&gt;SetBeam1 -->
<g id="edge27" class="edge">
<title>CanWorkspace1&#45;&gt;SetBeam1</title>
<path fill="none" stroke="black" d="M399.93,-759.8C364.58,-745.76 311.86,-724.82 273.39,-709.54"/>
<polygon fill="black" stroke="black" points="274.52,-706.22 263.93,-705.78 271.93,-712.73 274.52,-706.22"/>
</g>
<!-- CanWorkspace2 -->
<g id="node17" class="node">
<title>CanWorkspace2</title>
<ellipse fill="khaki" stroke="black" cx="695.19" cy="-776" rx="83.69" ry="18"/>
<text text-anchor="middle" x="695.19" y="-772.3" font-family="Helvetica,sans-Serif" font-size="14.00">CanWorkspace2</text>
</g>
<!-- SetBeam2 -->
<g id="node29" class="node">
<title>SetBeam2</title>
<path fill="lightskyblue" stroke="black" d="M722.69,-707C722.69,-707 667.69,-707 667.69,-707 661.69,-707 655.69,-701 655.69,-695 655.69,-695 655.69,-683 655.69,-683 655.69,-677 661.69,-671 667.69,-671 667.69,-671 722.69,-671 722.69,-671 728.69,-671 734.69,-677 734.69,-683 734.69,-683 734.69,-695 734.69,-695 734.69,-701 728.69,-707 722.69,-707"/>
<text text-anchor="middle" x="695.19" y="-685.3" font-family="Helvetica,sans-Serif" font-size="14.00">SetBeam</text>
</g>
<!-- CanWorkspace2&#45;&gt;SetBeam2 -->
<g id="edge35" class="edge">
<title>CanWorkspace2&#45;&gt;SetBeam2</title>
<path fill="none" stroke="black" d="M695.19,-757.8C695.19,-746.16 695.19,-730.55 695.19,-717.24"/>
<polygon fill="black" stroke="black" points="698.69,-717.18 695.19,-707.18 691.69,-717.18 698.69,-717.18"/>
</g>
<!-- CanChemicalFormula -->
<g id="node18" class="node">
<title>CanChemicalFormula</title>
<ellipse fill="khaki" stroke="black" cx="388.19" cy="-689" rx="106.68" ry="18"/>
<text text-anchor="middle" x="388.19" y="-685.3" font-family="Helvetica,sans-Serif" font-size="14.00">CanChemicalFormula</text>
</g>
<!-- SetSample1 -->
<g id="node31" class="node">
<title>SetSample1</title>
<path fill="lightskyblue" stroke="black" d="M421.69,-634C421.69,-634 354.69,-634 354.69,-634 348.69,-634 342.69,-628 342.69,-622 342.69,-622 342.69,-610 342.69,-610 342.69,-604 348.69,-598 354.69,-598 354.69,-598 421.69,-598 421.69,-598 427.69,-598 433.69,-604 433.69,-610 433.69,-610 433.69,-622 433.69,-622 433.69,-628 427.69,-634 421.69,-634"/>
<text text-anchor="middle" x="388.19" y="-612.3" font-family="Helvetica,sans-Serif" font-size="14.00">SetSample</text>
</g>
<!-- CanChemicalFormula&#45;&gt;SetSample1 -->
<g id="edge29" class="edge">
<title>CanChemicalFormula&#45;&gt;SetSample1</title>
<path fill="none" stroke="black" d="M388.19,-670.81C388.19,-662.79 388.19,-653.05 388.19,-644.07"/>
<polygon fill="black" stroke="black" points="391.69,-644.03 388.19,-634.03 384.69,-644.03 391.69,-644.03"/>
</g>
<!-- SetSample2 -->
<g id="node32" class="node">
<title>SetSample2</title>
<path fill="lightskyblue" stroke="black" d="M662.69,-634C662.69,-634 595.69,-634 595.69,-634 589.69,-634 583.69,-628 583.69,-622 583.69,-622 583.69,-610 583.69,-610 583.69,-604 589.69,-598 595.69,-598 595.69,-598 662.69,-598 662.69,-598 668.69,-598 674.69,-604 674.69,-610 674.69,-610 674.69,-622 674.69,-622 674.69,-628 668.69,-634 662.69,-634"/>
<text text-anchor="middle" x="629.19" y="-612.3" font-family="Helvetica,sans-Serif" font-size="14.00">SetSample</text>
</g>
<!-- CanChemicalFormula&#45;&gt;SetSample2 -->
<g id="edge38" class="edge">
<title>CanChemicalFormula&#45;&gt;SetSample2</title>
<path fill="none" stroke="black" d="M438.71,-673.12C478.24,-661.47 533.15,-645.3 573.86,-633.3"/>
<polygon fill="black" stroke="black" points="575.02,-636.61 583.62,-630.43 573.04,-629.89 575.02,-636.61"/>
</g>
<!-- CanDensity -->
<g id="node19" class="node">
<title>CanDensity</title>
<ellipse fill="khaki" stroke="black" cx="575.19" cy="-689" rx="62.29" ry="18"/>
<text text-anchor="middle" x="575.19" y="-685.3" font-family="Helvetica,sans-Serif" font-size="14.00">CanDensity</text>
</g>
<!-- CanDensity&#45;&gt;SetSample1 -->
<g id="edge30" class="edge">
<title>CanDensity&#45;&gt;SetSample1</title>
<path fill="none" stroke="black" d="M538.69,-674.14C511.34,-663.76 473.45,-649.37 442.54,-637.63"/>
<polygon fill="black" stroke="black" points="443.78,-634.36 433.19,-634.08 441.29,-640.91 443.78,-634.36"/>
</g>
<!-- CanDensity&#45;&gt;SetSample2 -->
<g id="edge39" class="edge">
<title>CanDensity&#45;&gt;SetSample2</title>
<path fill="none" stroke="black" d="M587.99,-671.17C594.55,-662.55 602.68,-651.86 609.97,-642.27"/>
<polygon fill="black" stroke="black" points="612.84,-644.28 616.11,-634.2 607.27,-640.04 612.84,-644.28"/>
</g>
<!-- CanInnerRadius -->
<g id="node20" class="node">
<title>CanInnerRadius</title>
<ellipse fill="khaki" stroke="black" cx="83.19" cy="-689" rx="83.39" ry="18"/>
<text text-anchor="middle" x="83.19" y="-685.3" font-family="Helvetica,sans-Serif" font-size="14.00">CanInnerRadius</text>
</g>
<!-- CanInnerRadius&#45;&gt;SetSample1 -->
<g id="edge31" class="edge">
<title>CanInnerRadius&#45;&gt;SetSample1</title>
<path fill="none" stroke="black" d="M137.72,-675.31C192.73,-662.5 277.22,-642.83 332.6,-629.94"/>
<polygon fill="black" stroke="black" points="333.64,-633.29 342.59,-627.62 332.06,-626.47 333.64,-633.29"/>
</g>
<!-- CanOuterRadius -->
<g id="node21" class="node">
<title>CanOuterRadius</title>
<ellipse fill="khaki" stroke="black" cx="838.19" cy="-689" rx="85.29" ry="18"/>
<text text-anchor="middle" x="838.19" y="-685.3" font-family="Helvetica,sans-Serif" font-size="14.00">CanOuterRadius</text>
</g>
<!-- CanOuterRadius&#45;&gt;SetSample2 -->
<g id="edge37" class="edge">
<title>CanOuterRadius&#45;&gt;SetSample2</title>
<path fill="none" stroke="black" d="M795.14,-673.37C763.03,-662.47 718.91,-647.48 684.23,-635.7"/>
<polygon fill="black" stroke="black" points="685.32,-632.37 674.72,-632.47 683.06,-639 685.32,-632.37"/>
</g>
<!-- OutputWorkspace -->
<g id="node22" class="node">
<title>OutputWorkspace</title>
<ellipse fill="khaki" stroke="black" cx="910.19" cy="-18" rx="92.08" ry="18"/>
<text text-anchor="middle" x="910.19" y="-14.3" font-family="Helvetica,sans-Serif" font-size="14.00">OutputWorkspace</text>
</g>
<!-- ConvertUnits1 -->
<g id="node24" class="node">
<title>ConvertUnits1</title>
<path fill="lightskyblue" stroke="black" d="M1584.69,-1552C1584.69,-1552 1501.69,-1552 1501.69,-1552 1495.69,-1552 1489.69,-1546 1489.69,-1540 1489.69,-1540 1489.69,-1528 1489.69,-1528 1489.69,-1522 1495.69,-1516 1501.69,-1516 1501.69,-1516 1584.69,-1516 1584.69,-1516 1590.69,-1516 1596.69,-1522 1596.69,-1528 1596.69,-1528 1596.69,-1540 1596.69,-1540 1596.69,-1546 1590.69,-1552 1584.69,-1552"/>
<text text-anchor="middle" x="1543.19" y="-1530.3" font-family="Helvetica,sans-Serif" font-size="14.00">ConvertUnits</text>
</g>
<!-- GetEFixed&#45;&gt;ConvertUnits1 -->
<g id="edge2" class="edge">
<title>GetEFixed&#45;&gt;ConvertUnits1</title>
<path fill="none" stroke="black" d="M1543.19,-1602.8C1543.19,-1591.16 1543.19,-1575.55 1543.19,-1562.24"/>
<polygon fill="black" stroke="black" points="1546.69,-1562.18 1543.19,-1552.18 1539.69,-1562.18 1546.69,-1562.18"/>
<text text-anchor="middle" x="1683.19" y="-1573.8" font-family="Helvetica,sans-Serif" font-size="14.00">Convert input workspace to Wavelength</text>
</g>
<!-- ConvertUnits1&#45;&gt;SetBeam -->
<g id="edge3" class="edge">
<title>ConvertUnits1&#45;&gt;SetBeam</title>
<path fill="none" stroke="black" d="M1510.86,-1515.99C1492.54,-1506.36 1469.43,-1494.21 1449.78,-1483.87"/>
<polygon fill="black" stroke="black" points="1451.21,-1480.67 1440.73,-1479.11 1447.95,-1486.87 1451.21,-1480.67"/>
</g>
<!-- ConvertUnits2 -->
<g id="node25" class="node">
<title>ConvertUnits2</title>
<path fill="lightskyblue" stroke="black" d="M957.69,-1173C957.69,-1173 874.69,-1173 874.69,-1173 868.69,-1173 862.69,-1167 862.69,-1161 862.69,-1161 862.69,-1149 862.69,-1149 862.69,-1143 868.69,-1137 874.69,-1137 874.69,-1137 957.69,-1137 957.69,-1137 963.69,-1137 969.69,-1143 969.69,-1149 969.69,-1149 969.69,-1161 969.69,-1161 969.69,-1167 963.69,-1173 957.69,-1173"/>
<text text-anchor="middle" x="916.19" y="-1151.3" font-family="Helvetica,sans-Serif" font-size="14.00">ConvertUnits</text>
</g>
<!-- Scale -->
<g id="node36" class="node">
<title>Scale</title>
<path fill="lightskyblue" stroke="black" d="M876.19,-1100C876.19,-1100 846.19,-1100 846.19,-1100 840.19,-1100 834.19,-1094 834.19,-1088 834.19,-1088 834.19,-1076 834.19,-1076 834.19,-1070 840.19,-1064 846.19,-1064 846.19,-1064 876.19,-1064 876.19,-1064 882.19,-1064 888.19,-1070 888.19,-1076 888.19,-1076 888.19,-1088 888.19,-1088 888.19,-1094 882.19,-1100 876.19,-1100"/>
<text text-anchor="middle" x="861.19" y="-1078.3" font-family="Helvetica,sans-Serif" font-size="14.00">Scale</text>
</g>
<!-- ConvertUnits2&#45;&gt;Scale -->
<g id="edge19" class="edge">
<title>ConvertUnits2&#45;&gt;Scale</title>
<path fill="none" stroke="black" d="M902.88,-1136.81C896.19,-1128.18 887.96,-1117.56 880.59,-1108.03"/>
<polygon fill="black" stroke="black" points="883.27,-1105.79 874.38,-1100.03 877.74,-1110.08 883.27,-1105.79"/>
</g>
<!-- Clone -->
<g id="node44" class="node">
<title>Clone</title>
<ellipse fill="lightgrey" stroke="black" cx="861.19" cy="-1009" rx="36.29" ry="18"/>
<text text-anchor="middle" x="861.19" y="-1005.3" font-family="Helvetica,sans-Serif" font-size="14.00">Clone</text>
</g>
<!-- ConvertUnits2&#45;&gt;Clone -->
<g id="edge20" class="edge">
<title>ConvertUnits2&#45;&gt;Clone</title>
<path fill="none" stroke="black" d="M914.53,-1136.84C912.29,-1118.29 907.34,-1088.14 897.19,-1064 892.87,-1053.72 886.51,-1043.31 880.33,-1034.42"/>
<polygon fill="black" stroke="black" points="882.99,-1032.13 874.29,-1026.08 877.32,-1036.24 882.99,-1032.13"/>
</g>
<!-- ConvertUnits3 -->
<g id="node26" class="node">
<title>ConvertUnits3</title>
<path fill="lightskyblue" stroke="black" d="M951.69,-255C951.69,-255 868.69,-255 868.69,-255 862.69,-255 856.69,-249 856.69,-243 856.69,-243 856.69,-231 856.69,-231 856.69,-225 862.69,-219 868.69,-219 868.69,-219 951.69,-219 951.69,-219 957.69,-219 963.69,-225 963.69,-231 963.69,-231 963.69,-243 963.69,-243 963.69,-249 957.69,-255 951.69,-255"/>
<text text-anchor="middle" x="910.19" y="-233.3" font-family="Helvetica,sans-Serif" font-size="14.00">ConvertUnits</text>
</g>
<!-- AddSampleLogMultiple -->
<g id="node39" class="node">
<title>AddSampleLogMultiple</title>
<path fill="lightskyblue" stroke="black" d="M986.19,-182C986.19,-182 834.19,-182 834.19,-182 828.19,-182 822.19,-176 822.19,-170 822.19,-170 822.19,-158 822.19,-158 822.19,-152 828.19,-146 834.19,-146 834.19,-146 986.19,-146 986.19,-146 992.19,-146 998.19,-152 998.19,-158 998.19,-158 998.19,-170 998.19,-170 998.19,-176 992.19,-182 986.19,-182"/>
<text text-anchor="middle" x="910.19" y="-160.3" font-family="Helvetica,sans-Serif" font-size="14.00">AddSampleLogMultiple</text>
</g>
<!-- ConvertUnits3&#45;&gt;AddSampleLogMultiple -->
<g id="edge48" class="edge">
<title>ConvertUnits3&#45;&gt;AddSampleLogMultiple</title>
<path fill="none" stroke="black" d="M910.19,-218.81C910.19,-210.79 910.19,-201.05 910.19,-192.07"/>
<polygon fill="black" stroke="black" points="913.69,-192.03 910.19,-182.03 906.69,-192.03 913.69,-192.03"/>
</g>
<!-- SetBeam&#45;&gt;SetSample -->
<g id="edge6" class="edge">
<title>SetBeam&#45;&gt;SetSample</title>
<path fill="none" stroke="black" d="M1368.56,-1445.42C1365.42,-1444.52 1362.27,-1443.69 1359.19,-1443 1205.91,-1408.35 1020.18,-1395.58 929.08,-1391.16"/>
<polygon fill="black" stroke="black" points="929.13,-1387.66 918.98,-1390.68 928.81,-1394.65 929.13,-1387.66"/>
</g>
<!-- SetBeam1&#45;&gt;SetSample1 -->
<g id="edge28" class="edge">
<title>SetBeam1&#45;&gt;SetSample1</title>
<path fill="none" stroke="black" d="M263.47,-670.99C286.23,-661.14 315.07,-648.66 339.29,-638.17"/>
<polygon fill="black" stroke="black" points="340.88,-641.3 348.66,-634.11 338.1,-634.87 340.88,-641.3"/>
</g>
<!-- SetBeam2&#45;&gt;SetSample2 -->
<g id="edge36" class="edge">
<title>SetBeam2&#45;&gt;SetSample2</title>
<path fill="none" stroke="black" d="M679.22,-670.81C671.03,-662 660.91,-651.13 651.93,-641.46"/>
<polygon fill="black" stroke="black" points="654.39,-638.97 645.02,-634.03 649.27,-643.74 654.39,-638.97"/>
</g>
<!-- SetSample&#45;&gt;MonteCarlo -->
<g id="edge13" class="edge">
<title>SetSample&#45;&gt;MonteCarlo</title>
<path fill="none" stroke="black" d="M830.08,-1369.99C804.88,-1360.06 772.89,-1347.43 746.16,-1336.89"/>
<polygon fill="black" stroke="black" points="747.17,-1333.53 736.58,-1333.11 744.6,-1340.04 747.17,-1333.53"/>
</g>
<!-- MonteCarlo1 -->
<g id="node34" class="node">
<title>MonteCarlo1</title>
<path fill="lightskyblue" stroke="black" d="M515.69,-561C515.69,-561 444.69,-561 444.69,-561 438.69,-561 432.69,-555 432.69,-549 432.69,-549 432.69,-537 432.69,-537 432.69,-531 438.69,-525 444.69,-525 444.69,-525 515.69,-525 515.69,-525 521.69,-525 527.69,-531 527.69,-537 527.69,-537 527.69,-549 527.69,-549 527.69,-555 521.69,-561 515.69,-561"/>
<text text-anchor="middle" x="480.19" y="-539.3" font-family="Helvetica,sans-Serif" font-size="14.00">MonteCarlo</text>
</g>
<!-- SetSample1&#45;&gt;MonteCarlo1 -->
<g id="edge32" class="edge">
<title>SetSample1&#45;&gt;MonteCarlo1</title>
<path fill="none" stroke="black" d="M410.46,-597.81C422.33,-588.66 437.1,-577.26 449.98,-567.32"/>
<polygon fill="black" stroke="black" points="452.35,-569.91 458.13,-561.03 448.07,-564.37 452.35,-569.91"/>
</g>
<!-- MonteCarlo2 -->
<g id="node35" class="node">
<title>MonteCarlo2</title>
<path fill="lightskyblue" stroke="black" d="M664.69,-561C664.69,-561 593.69,-561 593.69,-561 587.69,-561 581.69,-555 581.69,-549 581.69,-549 581.69,-537 581.69,-537 581.69,-531 587.69,-525 593.69,-525 593.69,-525 664.69,-525 664.69,-525 670.69,-525 676.69,-531 676.69,-537 676.69,-537 676.69,-549 676.69,-549 676.69,-555 670.69,-561 664.69,-561"/>
<text text-anchor="middle" x="629.19" y="-539.3" font-family="Helvetica,sans-Serif" font-size="14.00">MonteCarlo</text>
</g>
<!-- SetSample2&#45;&gt;MonteCarlo2 -->
<g id="edge40" class="edge">
<title>SetSample2&#45;&gt;MonteCarlo2</title>
<path fill="none" stroke="black" d="M629.19,-597.81C629.19,-589.79 629.19,-580.05 629.19,-571.07"/>
<polygon fill="black" stroke="black" points="632.69,-571.03 629.19,-561.03 625.69,-571.03 632.69,-571.03"/>
</g>
<!-- MonteCarlo&#45;&gt;AbsWorkspace1 -->
<g id="edge16" class="edge">
<title>MonteCarlo&#45;&gt;AbsWorkspace1</title>
<path fill="none" stroke="black" d="M690.29,-1296.81C688.93,-1288.79 687.29,-1279.05 685.77,-1270.07"/>
<polygon fill="black" stroke="black" points="689.19,-1269.31 684.07,-1260.03 682.29,-1270.47 689.19,-1269.31"/>
</g>
<!-- canGiven -->
<g id="node42" class="node">
<title>canGiven</title>
<polygon fill="limegreen" stroke="black" points="968.19,-1260 809.16,-1242 968.19,-1224 1127.22,-1242 968.19,-1260"/>
<text text-anchor="middle" x="968.19" y="-1238.3" font-family="Helvetica,sans-Serif" font-size="14.00">Container Workspace?</text>
</g>
<!-- MonteCarlo&#45;&gt;canGiven -->
<g id="edge17" class="edge">
<title>MonteCarlo&#45;&gt;canGiven</title>
<path fill="none" stroke="black" d="M740.78,-1301.71C788.48,-1289.4 861.9,-1270.44 912.34,-1257.42"/>
<polygon fill="black" stroke="black" points="913.3,-1260.79 922.1,-1254.9 911.55,-1254.01 913.3,-1260.79"/>
</g>
<!-- Multiply -->
<g id="node41" class="node">
<title>Multiply</title>
<path fill="lightskyblue" stroke="black" d="M652.69,-488C652.69,-488 605.69,-488 605.69,-488 599.69,-488 593.69,-482 593.69,-476 593.69,-476 593.69,-464 593.69,-464 593.69,-458 599.69,-452 605.69,-452 605.69,-452 652.69,-452 652.69,-452 658.69,-452 664.69,-458 664.69,-464 664.69,-464 664.69,-476 664.69,-476 664.69,-482 658.69,-488 652.69,-488"/>
<text text-anchor="middle" x="629.19" y="-466.3" font-family="Helvetica,sans-Serif" font-size="14.00">Multiply</text>
</g>
<!-- MonteCarlo1&#45;&gt;Multiply -->
<g id="edge33" class="edge">
<title>MonteCarlo1&#45;&gt;Multiply</title>
<path fill="none" stroke="black" d="M515.88,-524.99C536.45,-515.19 562.49,-502.79 584.42,-492.34"/>
<polygon fill="black" stroke="black" points="586.01,-495.45 593.54,-487.99 583,-489.13 586.01,-495.45"/>
</g>
<!-- MonteCarlo2&#45;&gt;Multiply -->
<g id="edge41" class="edge">
<title>MonteCarlo2&#45;&gt;Multiply</title>
<path fill="none" stroke="black" d="M629.19,-524.81C629.19,-516.79 629.19,-507.05 629.19,-498.07"/>
<polygon fill="black" stroke="black" points="632.69,-498.03 629.19,-488.03 625.69,-498.03 632.69,-498.03"/>
</g>
<!-- Scale&#45;&gt;Clone -->
<g id="edge21" class="edge">
<title>Scale&#45;&gt;Clone</title>
<path fill="none" stroke="black" d="M861.19,-1063.81C861.19,-1055.79 861.19,-1046.05 861.19,-1037.07"/>
<polygon fill="black" stroke="black" points="864.69,-1037.03 861.19,-1027.03 857.69,-1037.03 864.69,-1037.03"/>
</g>
<!-- Divide -->
<g id="node37" class="node">
<title>Divide</title>
<path fill="lightskyblue" stroke="black" d="M841.19,-415C841.19,-415 805.19,-415 805.19,-415 799.19,-415 793.19,-409 793.19,-403 793.19,-403 793.19,-391 793.19,-391 793.19,-385 799.19,-379 805.19,-379 805.19,-379 841.19,-379 841.19,-379 847.19,-379 853.19,-385 853.19,-391 853.19,-391 853.19,-403 853.19,-403 853.19,-409 847.19,-415 841.19,-415"/>
<text text-anchor="middle" x="823.19" y="-393.3" font-family="Helvetica,sans-Serif" font-size="14.00">Divide</text>
</g>
<!-- Minus -->
<g id="node38" class="node">
<title>Minus</title>
<path fill="lightskyblue" stroke="black" d="M840.19,-342C840.19,-342 806.19,-342 806.19,-342 800.19,-342 794.19,-336 794.19,-330 794.19,-330 794.19,-318 794.19,-318 794.19,-312 800.19,-306 806.19,-306 806.19,-306 840.19,-306 840.19,-306 846.19,-306 852.19,-312 852.19,-318 852.19,-318 852.19,-330 852.19,-330 852.19,-336 846.19,-342 840.19,-342"/>
<text text-anchor="middle" x="823.19" y="-320.3" font-family="Helvetica,sans-Serif" font-size="14.00">Minus</text>
</g>
<!-- Divide&#45;&gt;Minus -->
<g id="edge45" class="edge">
<title>Divide&#45;&gt;Minus</title>
<path fill="none" stroke="black" d="M823.19,-378.81C823.19,-370.79 823.19,-361.05 823.19,-352.07"/>
<polygon fill="black" stroke="black" points="826.69,-352.03 823.19,-342.03 819.69,-352.03 826.69,-352.03"/>
</g>
<!-- Minus&#45;&gt;ConvertUnits3 -->
<g id="edge46" class="edge">
<title>Minus&#45;&gt;ConvertUnits3</title>
<path fill="none" stroke="black" d="M819.1,-305.82C817.64,-295.44 817.7,-282.44 824.19,-273 829.94,-264.63 838.07,-258.26 847.06,-253.41"/>
<polygon fill="black" stroke="black" points="848.74,-256.49 856.28,-249.06 845.74,-250.17 848.74,-256.49"/>
<text text-anchor="middle" x="904.19" y="-276.8" font-family="Helvetica,sans-Serif" font-size="14.00">Convert back to DeltaE</text>
</g>
<!-- GroupWorkspaces -->
<g id="node40" class="node">
<title>GroupWorkspaces</title>
<path fill="lightskyblue" stroke="black" d="M969.69,-109C969.69,-109 850.69,-109 850.69,-109 844.69,-109 838.69,-103 838.69,-97 838.69,-97 838.69,-85 838.69,-85 838.69,-79 844.69,-73 850.69,-73 850.69,-73 969.69,-73 969.69,-73 975.69,-73 981.69,-79 981.69,-85 981.69,-85 981.69,-97 981.69,-97 981.69,-103 975.69,-109 969.69,-109"/>
<text text-anchor="middle" x="910.19" y="-87.3" font-family="Helvetica,sans-Serif" font-size="14.00">GroupWorkspaces</text>
</g>
<!-- AddSampleLogMultiple&#45;&gt;GroupWorkspaces -->
<g id="edge49" class="edge">
<title>AddSampleLogMultiple&#45;&gt;GroupWorkspaces</title>
<path fill="none" stroke="black" d="M910.19,-145.81C910.19,-137.79 910.19,-128.05 910.19,-119.07"/>
<polygon fill="black" stroke="black" points="913.69,-119.03 910.19,-109.03 906.69,-119.03 913.69,-119.03"/>
</g>
<!-- GroupWorkspaces&#45;&gt;OutputWorkspace -->
<g id="edge50" class="edge">
<title>GroupWorkspaces&#45;&gt;OutputWorkspace</title>
<path fill="none" stroke="black" d="M910.19,-72.81C910.19,-64.79 910.19,-55.05 910.19,-46.07"/>
<polygon fill="black" stroke="black" points="913.69,-46.03 910.19,-36.03 906.69,-46.03 913.69,-46.03"/>
</g>
<!-- Multiply&#45;&gt;CanAbsorptionWorkspace -->
<g id="edge42" class="edge">
<title>Multiply&#45;&gt;CanAbsorptionWorkspace</title>
<path fill="none" stroke="black" d="M629.19,-451.81C629.19,-443.79 629.19,-434.05 629.19,-425.07"/>
<polygon fill="black" stroke="black" points="632.69,-425.03 629.19,-415.03 625.69,-425.03 632.69,-425.03"/>
</g>
<!-- Multiply&#45;&gt;Divide -->
<g id="edge43" class="edge">
<title>Multiply&#45;&gt;Divide</title>
<path fill="none" stroke="black" d="M664.78,-455.98C698.37,-443.68 748.66,-425.28 783.53,-412.51"/>
<polygon fill="black" stroke="black" points="784.75,-415.8 792.93,-409.07 782.34,-409.22 784.75,-415.8"/>
</g>
<!-- canGiven&#45;&gt;ConvertUnits2 -->
<g id="edge18" class="edge">
<title>canGiven&#45;&gt;ConvertUnits2</title>
<path fill="none" stroke="black" d="M958.41,-1225.01C950.98,-1212.86 940.6,-1195.9 931.99,-1181.83"/>
<polygon fill="black" stroke="black" points="934.85,-1179.79 926.64,-1173.08 928.88,-1183.44 934.85,-1179.79"/>
<text text-anchor="middle" x="957.69" y="-1194.8" font-family="Helvetica,sans-Serif" font-size="14.00">Yes</text>
</g>
<!-- canGiven&#45;&gt;ConvertUnits3 -->
<g id="edge47" class="edge">
<title>canGiven&#45;&gt;ConvertUnits3</title>
<path fill="none" stroke="black" d="M977.52,-1224.98C986.33,-1208.32 998.19,-1181.2 998.19,-1156 998.19,-1156 998.19,-1156 998.19,-323 998.19,-299.92 999.08,-290.64 984.19,-273 980.16,-268.22 975.33,-264.06 970.1,-260.43"/>
<polygon fill="black" stroke="black" points="971.94,-257.45 961.6,-255.16 968.26,-263.41 971.94,-257.45"/>
<text text-anchor="middle" x="1007.69" y="-728.8" font-family="Helvetica,sans-Serif" font-size="14.00">No</text>
</g>
<!-- useCorrections -->
<g id="node43" class="node">
<title>useCorrections</title>
<polygon fill="limegreen" stroke="black" points="695.19,-881 534.49,-863 695.19,-845 855.9,-863 695.19,-881"/>
<text text-anchor="middle" x="695.19" y="-859.3" font-family="Helvetica,sans-Serif" font-size="14.00">Container Corrections?</text>
</g>
<!-- useCorrections&#45;&gt;CanWorkspace1 -->
<g id="edge26" class="edge">
<title>useCorrections&#45;&gt;CanWorkspace1</title>
<path fill="none" stroke="black" d="M656.72,-849.27C612.87,-834.77 540.92,-810.98 491.64,-794.68"/>
<polygon fill="black" stroke="black" points="492.7,-791.34 482.11,-791.52 490.5,-797.99 492.7,-791.34"/>
<text text-anchor="middle" x="593.69" y="-815.8" font-family="Helvetica,sans-Serif" font-size="14.00">Yes</text>
</g>
<!-- useCorrections&#45;&gt;CanWorkspace2 -->
<g id="edge34" class="edge">
<title>useCorrections&#45;&gt;CanWorkspace2</title>
<path fill="none" stroke="black" d="M695.19,-844.8C695.19,-833.16 695.19,-817.55 695.19,-804.24"/>
<polygon fill="black" stroke="black" points="698.69,-804.18 695.19,-794.18 691.69,-804.18 698.69,-804.18"/>
<text text-anchor="middle" x="706.69" y="-815.8" font-family="Helvetica,sans-Serif" font-size="14.00">Yes</text>
</g>
<!-- useCorrections&#45;&gt;Divide -->
<g id="edge44" class="edge">
<title>useCorrections&#45;&gt;Divide</title>
<path fill="none" stroke="black" d="M764.81,-852.77C840.61,-840.72 951.19,-816.4 951.19,-777 951.19,-777 951.19,-777 951.19,-469 951.19,-428.23 900.93,-410.68 863.4,-403.25"/>
<polygon fill="black" stroke="black" points="863.67,-399.75 853.2,-401.42 862.42,-406.63 863.67,-399.75"/>
<text text-anchor="middle" x="960.69" y="-612.3" font-family="Helvetica,sans-Serif" font-size="14.00">No</text>
</g>
<!-- Clone&#45;&gt;Divide1 -->
<g id="edge22" class="edge">
<title>Clone&#45;&gt;Divide1</title>
<path fill="none" stroke="black" d="M834.68,-996.59C807.8,-985.03 765.91,-967 735.23,-953.8"/>
<polygon fill="black" stroke="black" points="736.27,-950.44 725.7,-949.7 733.5,-956.87 736.27,-950.44"/>
</g>
<!-- Divide1&#45;&gt;useCorrections -->
<g id="edge25" class="edge">
<title>Divide1&#45;&gt;useCorrections</title>
<path fill="none" stroke="black" d="M695.95,-917.81C695.84,-909.79 695.7,-900.05 695.57,-891.07"/>
<polygon fill="black" stroke="black" points="699.07,-890.98 695.43,-881.03 692.07,-891.08 699.07,-890.98"/>
</g>
</g>
</svg>
