<?xml version="1.0" encoding="UTF-8" standalone="no"?>
<!DOCTYPE svg PUBLIC "-//W3C//DTD SVG 1.1//EN"
 "http://www.w3.org/Graphics/SVG/1.1/DTD/svg11.dtd">
<!-- Generated by graphviz version 7.0.5 (20221231.0122)
 -->
<!-- Title: IndirectILLReductionFWS Pages: 1 -->
<svg width="920pt" height="825pt"
 viewBox="0.00 0.00 919.79 825.00" xmlns="http://www.w3.org/2000/svg" xmlns:xlink="http://www.w3.org/1999/xlink">
<g id="graph0" class="graph" transform="scale(1 1) rotate(0) translate(4 821)">
<title>IndirectILLReductionFWS</title>
<polygon fill="white" stroke="none" points="-4,4 -4,-821 915.79,-821 915.79,4 -4,4"/>
<text text-anchor="middle" x="455.89" y="-801.8" font-family="Helvetica,sans-Serif" font-size="14.00">IndirectILLReductionFWS Flowchart</text>
<!-- OutputWorkspace -->
<g id="node1" class="node">
<title>OutputWorkspace</title>
<polygon fill="grey" stroke="black" points="543.64,-36 323.55,-36 266.94,0 487.02,0 543.64,-36"/>
<text text-anchor="middle" x="405.29" y="-14.3" font-family="Times,serif" font-size="14.00">OutputWorkspace</text>
</g>
<!-- Run -->
<g id="node2" class="node">
<title>Run</title>
<ellipse fill="khaki" stroke="black" cx="804.29" cy="-630" rx="28.7" ry="18"/>
<text text-anchor="middle" x="804.29" y="-626.3" font-family="Helvetica,sans-Serif" font-size="14.00">Run</text>
</g>
<!-- SelectNexusFilesByMetadata -->
<g id="node11" class="node">
<title>SelectNexusFilesByMetadata</title>
<path fill="lightskyblue" stroke="black" d="M899.79,-575C899.79,-575 708.79,-575 708.79,-575 702.79,-575 696.79,-569 696.79,-563 696.79,-563 696.79,-551 696.79,-551 696.79,-545 702.79,-539 708.79,-539 708.79,-539 899.79,-539 899.79,-539 905.79,-539 911.79,-545 911.79,-551 911.79,-551 911.79,-563 911.79,-563 911.79,-569 905.79,-575 899.79,-575"/>
<text text-anchor="middle" x="804.29" y="-553.3" font-family="Helvetica,sans-Serif" font-size="14.00">SelectNexusFilesByMetadata</text>
</g>
<!-- Run&#45;&gt;SelectNexusFilesByMetadata -->
<g id="edge1" class="edge">
<title>Run&#45;&gt;SelectNexusFilesByMetadata</title>
<path fill="none" stroke="black" d="M804.29,-611.81C804.29,-604.23 804.29,-595.1 804.29,-586.54"/>
<polygon fill="black" stroke="black" points="807.79,-586.54 804.29,-576.54 800.79,-586.54 807.79,-586.54"/>
</g>
<!-- Observable -->
<g id="node3" class="node">
<title>Observable</title>
<ellipse fill="khaki" stroke="black" cx="677.29" cy="-411" rx="62.29" ry="18"/>
<text text-anchor="middle" x="677.29" y="-407.3" font-family="Helvetica,sans-Serif" font-size="14.00">Observable</text>
</g>
<!-- Scan -->
<g id="node29" class="node">
<title>Scan</title>
<polygon fill="lightseagreen" stroke="black" points="710.29,-342 656.29,-342 656.29,-306 710.29,-306 710.29,-342"/>
<text text-anchor="middle" x="683.29" y="-320.3" font-family="Helvetica,sans-Serif" font-size="14.00">Scan</text>
</g>
<!-- Observable&#45;&gt;Scan -->
<g id="edge5" class="edge">
<title>Observable&#45;&gt;Scan</title>
<path fill="none" stroke="black" d="M678.5,-392.8C679.29,-381.58 680.35,-366.67 681.26,-353.69"/>
<polygon fill="black" stroke="black" points="684.74,-354.2 681.95,-343.98 677.75,-353.71 684.74,-354.2"/>
</g>
<!-- CalibrationRun -->
<g id="node4" class="node">
<title>CalibrationRun</title>
<ellipse fill="khaki" stroke="black" cx="358.29" cy="-703" rx="77.19" ry="18"/>
<text text-anchor="middle" x="358.29" y="-699.3" font-family="Helvetica,sans-Serif" font-size="14.00">CalibrationRun</text>
</g>
<!-- SelectNexusFilesByMetadataC -->
<g id="node13" class="node">
<title>SelectNexusFilesByMetadataC</title>
<path fill="lightskyblue" stroke="black" d="M453.79,-648C453.79,-648 262.79,-648 262.79,-648 256.79,-648 250.79,-642 250.79,-636 250.79,-636 250.79,-624 250.79,-624 250.79,-618 256.79,-612 262.79,-612 262.79,-612 453.79,-612 453.79,-612 459.79,-612 465.79,-618 465.79,-624 465.79,-624 465.79,-636 465.79,-636 465.79,-642 459.79,-648 453.79,-648"/>
<text text-anchor="middle" x="358.29" y="-626.3" font-family="Helvetica,sans-Serif" font-size="14.00">SelectNexusFilesByMetadata</text>
</g>
<!-- CalibrationRun&#45;&gt;SelectNexusFilesByMetadataC -->
<g id="edge12" class="edge">
<title>CalibrationRun&#45;&gt;SelectNexusFilesByMetadataC</title>
<path fill="none" stroke="black" d="M358.29,-684.81C358.29,-677.23 358.29,-668.1 358.29,-659.54"/>
<polygon fill="black" stroke="black" points="361.79,-659.54 358.29,-649.54 354.79,-659.54 361.79,-659.54"/>
</g>
<!-- BackgroundRun -->
<g id="node5" class="node">
<title>BackgroundRun</title>
<ellipse fill="khaki" stroke="black" cx="591.29" cy="-703" rx="82.59" ry="18"/>
<text text-anchor="middle" x="591.29" y="-699.3" font-family="Helvetica,sans-Serif" font-size="14.00">BackgroundRun</text>
</g>
<!-- SelectNexusFilesByMetadataB -->
<g id="node12" class="node">
<title>SelectNexusFilesByMetadataB</title>
<path fill="lightskyblue" stroke="black" d="M686.79,-648C686.79,-648 495.79,-648 495.79,-648 489.79,-648 483.79,-642 483.79,-636 483.79,-636 483.79,-624 483.79,-624 483.79,-618 489.79,-612 495.79,-612 495.79,-612 686.79,-612 686.79,-612 692.79,-612 698.79,-618 698.79,-624 698.79,-624 698.79,-636 698.79,-636 698.79,-642 692.79,-648 686.79,-648"/>
<text text-anchor="middle" x="591.29" y="-626.3" font-family="Helvetica,sans-Serif" font-size="14.00">SelectNexusFilesByMetadata</text>
</g>
<!-- BackgroundRun&#45;&gt;SelectNexusFilesByMetadataB -->
<g id="edge6" class="edge">
<title>BackgroundRun&#45;&gt;SelectNexusFilesByMetadataB</title>
<path fill="none" stroke="black" d="M591.29,-684.81C591.29,-677.23 591.29,-668.1 591.29,-659.54"/>
<polygon fill="black" stroke="black" points="594.79,-659.54 591.29,-649.54 587.79,-659.54 594.79,-659.54"/>
</g>
<!-- CalibrationBackgroundRun -->
<g id="node6" class="node">
<title>CalibrationBackgroundRun</title>
<ellipse fill="khaki" stroke="black" cx="131.29" cy="-776" rx="131.08" ry="18"/>
<text text-anchor="middle" x="131.29" y="-772.3" font-family="Helvetica,sans-Serif" font-size="14.00">CalibrationBackgroundRun</text>
</g>
<!-- SelectNexusFilesByMetadataCB -->
<g id="node14" class="node">
<title>SelectNexusFilesByMetadataCB</title>
<path fill="lightskyblue" stroke="black" d="M226.79,-721C226.79,-721 35.79,-721 35.79,-721 29.79,-721 23.79,-715 23.79,-709 23.79,-709 23.79,-697 23.79,-697 23.79,-691 29.79,-685 35.79,-685 35.79,-685 226.79,-685 226.79,-685 232.79,-685 238.79,-691 238.79,-697 238.79,-697 238.79,-709 238.79,-709 238.79,-715 232.79,-721 226.79,-721"/>
<text text-anchor="middle" x="131.29" y="-699.3" font-family="Helvetica,sans-Serif" font-size="14.00">SelectNexusFilesByMetadata</text>
</g>
<!-- CalibrationBackgroundRun&#45;&gt;SelectNexusFilesByMetadataCB -->
<g id="edge25" class="edge">
<title>CalibrationBackgroundRun&#45;&gt;SelectNexusFilesByMetadataCB</title>
<path fill="none" stroke="black" d="M131.29,-757.81C131.29,-750.23 131.29,-741.1 131.29,-732.54"/>
<polygon fill="black" stroke="black" points="134.79,-732.54 131.29,-722.54 127.79,-732.54 134.79,-732.54"/>
</g>
<!-- IndirectILLEnergyTransfer -->
<g id="node7" class="node">
<title>IndirectILLEnergyTransfer</title>
<path fill="lightskyblue" stroke="black" d="M889.29,-502C889.29,-502 719.29,-502 719.29,-502 713.29,-502 707.29,-496 707.29,-490 707.29,-490 707.29,-478 707.29,-478 707.29,-472 713.29,-466 719.29,-466 719.29,-466 889.29,-466 889.29,-466 895.29,-466 901.29,-472 901.29,-478 901.29,-478 901.29,-490 901.29,-490 901.29,-496 895.29,-502 889.29,-502"/>
<text text-anchor="middle" x="804.29" y="-480.3" font-family="Helvetica,sans-Serif" font-size="14.00">IndirectILLEnergyTransfer</text>
</g>
<!-- Integration -->
<g id="node15" class="node">
<title>Integration</title>
<path fill="lightskyblue" stroke="black" d="M838.79,-429C838.79,-429 769.79,-429 769.79,-429 763.79,-429 757.79,-423 757.79,-417 757.79,-417 757.79,-405 757.79,-405 757.79,-399 763.79,-393 769.79,-393 769.79,-393 838.79,-393 838.79,-393 844.79,-393 850.79,-399 850.79,-405 850.79,-405 850.79,-417 850.79,-417 850.79,-423 844.79,-429 838.79,-429"/>
<text text-anchor="middle" x="804.29" y="-407.3" font-family="Helvetica,sans-Serif" font-size="14.00">Integration</text>
</g>
<!-- IndirectILLEnergyTransfer&#45;&gt;Integration -->
<g id="edge3" class="edge">
<title>IndirectILLEnergyTransfer&#45;&gt;Integration</title>
<path fill="none" stroke="black" d="M804.29,-465.81C804.29,-458.23 804.29,-449.1 804.29,-440.54"/>
<polygon fill="black" stroke="black" points="807.79,-440.54 804.29,-430.54 800.79,-440.54 807.79,-440.54"/>
</g>
<!-- IndirectILLEnergyTransferB -->
<g id="node8" class="node">
<title>IndirectILLEnergyTransferB</title>
<path fill="lightskyblue" stroke="black" d="M661.29,-575C661.29,-575 491.29,-575 491.29,-575 485.29,-575 479.29,-569 479.29,-563 479.29,-563 479.29,-551 479.29,-551 479.29,-545 485.29,-539 491.29,-539 491.29,-539 661.29,-539 661.29,-539 667.29,-539 673.29,-545 673.29,-551 673.29,-551 673.29,-563 673.29,-563 673.29,-569 667.29,-575 661.29,-575"/>
<text text-anchor="middle" x="576.29" y="-553.3" font-family="Helvetica,sans-Serif" font-size="14.00">IndirectILLEnergyTransfer</text>
</g>
<!-- IntegrationB -->
<g id="node16" class="node">
<title>IntegrationB</title>
<path fill="lightskyblue" stroke="black" d="M605.79,-502C605.79,-502 536.79,-502 536.79,-502 530.79,-502 524.79,-496 524.79,-490 524.79,-490 524.79,-478 524.79,-478 524.79,-472 530.79,-466 536.79,-466 536.79,-466 605.79,-466 605.79,-466 611.79,-466 617.79,-472 617.79,-478 617.79,-478 617.79,-490 617.79,-490 617.79,-496 611.79,-502 605.79,-502"/>
<text text-anchor="middle" x="571.29" y="-480.3" font-family="Helvetica,sans-Serif" font-size="14.00">Integration</text>
</g>
<!-- IndirectILLEnergyTransferB&#45;&gt;IntegrationB -->
<g id="edge8" class="edge">
<title>IndirectILLEnergyTransferB&#45;&gt;IntegrationB</title>
<path fill="none" stroke="black" d="M575.08,-538.81C574.54,-531.14 573.89,-521.89 573.28,-513.24"/>
<polygon fill="black" stroke="black" points="576.79,-513.27 572.59,-503.54 569.81,-513.76 576.79,-513.27"/>
</g>
<!-- IndirectILLEnergyTransferC -->
<g id="node9" class="node">
<title>IndirectILLEnergyTransferC</title>
<path fill="lightskyblue" stroke="black" d="M444.29,-575C444.29,-575 274.29,-575 274.29,-575 268.29,-575 262.29,-569 262.29,-563 262.29,-563 262.29,-551 262.29,-551 262.29,-545 268.29,-539 274.29,-539 274.29,-539 444.29,-539 444.29,-539 450.29,-539 456.29,-545 456.29,-551 456.29,-551 456.29,-563 456.29,-563 456.29,-569 450.29,-575 444.29,-575"/>
<text text-anchor="middle" x="359.29" y="-553.3" font-family="Helvetica,sans-Serif" font-size="14.00">IndirectILLEnergyTransfer</text>
</g>
<!-- IntegrationC -->
<g id="node17" class="node">
<title>IntegrationC</title>
<path fill="lightskyblue" stroke="black" d="M396.79,-502C396.79,-502 327.79,-502 327.79,-502 321.79,-502 315.79,-496 315.79,-490 315.79,-490 315.79,-478 315.79,-478 315.79,-472 321.79,-466 327.79,-466 327.79,-466 396.79,-466 396.79,-466 402.79,-466 408.79,-472 408.79,-478 408.79,-478 408.79,-490 408.79,-490 408.79,-496 402.79,-502 396.79,-502"/>
<text text-anchor="middle" x="362.29" y="-480.3" font-family="Helvetica,sans-Serif" font-size="14.00">Integration</text>
</g>
<!-- IndirectILLEnergyTransferC&#45;&gt;IntegrationC -->
<g id="edge14" class="edge">
<title>IndirectILLEnergyTransferC&#45;&gt;IntegrationC</title>
<path fill="none" stroke="black" d="M360.01,-538.81C360.34,-531.14 360.73,-521.89 361.09,-513.24"/>
<polygon fill="black" stroke="black" points="364.58,-513.68 361.5,-503.54 357.59,-513.38 364.58,-513.68"/>
</g>
<!-- IndirectILLEnergyTransferCB -->
<g id="node10" class="node">
<title>IndirectILLEnergyTransferCB</title>
<path fill="lightskyblue" stroke="black" d="M216.29,-648C216.29,-648 46.29,-648 46.29,-648 40.29,-648 34.29,-642 34.29,-636 34.29,-636 34.29,-624 34.29,-624 34.29,-618 40.29,-612 46.29,-612 46.29,-612 216.29,-612 216.29,-612 222.29,-612 228.29,-618 228.29,-624 228.29,-624 228.29,-636 228.29,-636 228.29,-642 222.29,-648 216.29,-648"/>
<text text-anchor="middle" x="131.29" y="-626.3" font-family="Helvetica,sans-Serif" font-size="14.00">IndirectILLEnergyTransfer</text>
</g>
<!-- IntegrationCB -->
<g id="node18" class="node">
<title>IntegrationCB</title>
<path fill="lightskyblue" stroke="black" d="M165.79,-575C165.79,-575 96.79,-575 96.79,-575 90.79,-575 84.79,-569 84.79,-563 84.79,-563 84.79,-551 84.79,-551 84.79,-545 90.79,-539 96.79,-539 96.79,-539 165.79,-539 165.79,-539 171.79,-539 177.79,-545 177.79,-551 177.79,-551 177.79,-563 177.79,-563 177.79,-569 171.79,-575 165.79,-575"/>
<text text-anchor="middle" x="131.29" y="-553.3" font-family="Helvetica,sans-Serif" font-size="14.00">Integration</text>
</g>
<!-- IndirectILLEnergyTransferCB&#45;&gt;IntegrationCB -->
<g id="edge27" class="edge">
<title>IndirectILLEnergyTransferCB&#45;&gt;IntegrationCB</title>
<path fill="none" stroke="black" d="M131.29,-611.81C131.29,-604.23 131.29,-595.1 131.29,-586.54"/>
<polygon fill="black" stroke="black" points="134.79,-586.54 131.29,-576.54 127.79,-586.54 134.79,-586.54"/>
</g>
<!-- SelectNexusFilesByMetadata&#45;&gt;IndirectILLEnergyTransfer -->
<g id="edge2" class="edge">
<title>SelectNexusFilesByMetadata&#45;&gt;IndirectILLEnergyTransfer</title>
<path fill="none" stroke="black" d="M804.29,-538.81C804.29,-531.23 804.29,-522.1 804.29,-513.54"/>
<polygon fill="black" stroke="black" points="807.79,-513.54 804.29,-503.54 800.79,-513.54 807.79,-513.54"/>
</g>
<!-- SelectNexusFilesByMetadataB&#45;&gt;IndirectILLEnergyTransferB -->
<g id="edge7" class="edge">
<title>SelectNexusFilesByMetadataB&#45;&gt;IndirectILLEnergyTransferB</title>
<path fill="none" stroke="black" d="M587.66,-611.81C586.04,-604.14 584.08,-594.89 582.26,-586.24"/>
<polygon fill="black" stroke="black" points="585.69,-585.57 580.2,-576.51 578.84,-587.02 585.69,-585.57"/>
</g>
<!-- SelectNexusFilesByMetadataC&#45;&gt;IndirectILLEnergyTransferC -->
<g id="edge13" class="edge">
<title>SelectNexusFilesByMetadataC&#45;&gt;IndirectILLEnergyTransferC</title>
<path fill="none" stroke="black" d="M358.53,-611.81C358.64,-604.23 358.77,-595.1 358.89,-586.54"/>
<polygon fill="black" stroke="black" points="362.39,-586.59 359.03,-576.54 355.39,-586.49 362.39,-586.59"/>
</g>
<!-- SelectNexusFilesByMetadataCB&#45;&gt;IndirectILLEnergyTransferCB -->
<g id="edge26" class="edge">
<title>SelectNexusFilesByMetadataCB&#45;&gt;IndirectILLEnergyTransferCB</title>
<path fill="none" stroke="black" d="M131.29,-684.81C131.29,-677.23 131.29,-668.1 131.29,-659.54"/>
<polygon fill="black" stroke="black" points="134.79,-659.54 131.29,-649.54 127.79,-659.54 134.79,-659.54"/>
</g>
<!-- Integration&#45;&gt;Scan -->
<g id="edge4" class="edge">
<title>Integration&#45;&gt;Scan</title>
<path fill="none" stroke="black" d="M779.51,-392.59C761.57,-379.99 737.09,-362.79 717.31,-348.9"/>
<polygon fill="black" stroke="black" points="719.47,-346.14 709.27,-343.25 715.44,-351.87 719.47,-346.14"/>
</g>
<!-- ScanB -->
<g id="node30" class="node">
<title>ScanB</title>
<polygon fill="lightseagreen" stroke="black" points="591.29,-429 537.29,-429 537.29,-393 591.29,-393 591.29,-429"/>
<text text-anchor="middle" x="564.29" y="-407.3" font-family="Helvetica,sans-Serif" font-size="14.00">Scan</text>
</g>
<!-- IntegrationB&#45;&gt;ScanB -->
<g id="edge9" class="edge">
<title>IntegrationB&#45;&gt;ScanB</title>
<path fill="none" stroke="black" d="M569.59,-465.81C568.84,-458.14 567.93,-448.89 567.07,-440.24"/>
<polygon fill="black" stroke="black" points="570.58,-440.14 566.12,-430.54 563.61,-440.83 570.58,-440.14"/>
</g>
<!-- ScanC -->
<g id="node31" class="node">
<title>ScanC</title>
<polygon fill="lightseagreen" stroke="black" points="390.29,-429 336.29,-429 336.29,-393 390.29,-393 390.29,-429"/>
<text text-anchor="middle" x="363.29" y="-407.3" font-family="Helvetica,sans-Serif" font-size="14.00">Scan</text>
</g>
<!-- IntegrationC&#45;&gt;ScanC -->
<g id="edge15" class="edge">
<title>IntegrationC&#45;&gt;ScanC</title>
<path fill="none" stroke="black" d="M362.53,-465.81C362.64,-458.23 362.77,-449.1 362.89,-440.54"/>
<polygon fill="black" stroke="black" points="366.39,-440.59 363.03,-430.54 359.39,-440.49 366.39,-440.59"/>
</g>
<!-- ScanCB -->
<g id="node32" class="node">
<title>ScanCB</title>
<polygon fill="lightseagreen" stroke="black" points="158.29,-502 104.29,-502 104.29,-466 158.29,-466 158.29,-502"/>
<text text-anchor="middle" x="131.29" y="-480.3" font-family="Helvetica,sans-Serif" font-size="14.00">Scan</text>
</g>
<!-- IntegrationCB&#45;&gt;ScanCB -->
<g id="edge28" class="edge">
<title>IntegrationCB&#45;&gt;ScanCB</title>
<path fill="none" stroke="black" d="M131.29,-538.81C131.29,-531.23 131.29,-522.1 131.29,-513.54"/>
<polygon fill="black" stroke="black" points="134.79,-513.54 131.29,-503.54 127.79,-513.54 134.79,-513.54"/>
</g>
<!-- GroupWorkspaces -->
<g id="node19" class="node">
<title>GroupWorkspaces</title>
<path fill="lightskyblue" stroke="black" d="M464.79,-109C464.79,-109 345.79,-109 345.79,-109 339.79,-109 333.79,-103 333.79,-97 333.79,-97 333.79,-85 333.79,-85 333.79,-79 339.79,-73 345.79,-73 345.79,-73 464.79,-73 464.79,-73 470.79,-73 476.79,-79 476.79,-85 476.79,-85 476.79,-97 476.79,-97 476.79,-103 470.79,-109 464.79,-109"/>
<text text-anchor="middle" x="405.29" y="-87.3" font-family="Helvetica,sans-Serif" font-size="14.00">GroupWorkspaces</text>
</g>
<!-- GroupWorkspaces&#45;&gt;OutputWorkspace -->
<g id="edge34" class="edge">
<title>GroupWorkspaces&#45;&gt;OutputWorkspace</title>
<path fill="none" stroke="black" d="M405.29,-72.81C405.29,-65.23 405.29,-56.1 405.29,-47.54"/>
<polygon fill="black" stroke="black" points="408.79,-47.54 405.29,-37.54 401.79,-47.54 408.79,-47.54"/>
</g>
<!-- SplineInterpolationB -->
<g id="node20" class="node">
<title>SplineInterpolationB</title>
<path fill="lightskyblue" stroke="black" d="M626.29,-342C626.29,-342 502.29,-342 502.29,-342 496.29,-342 490.29,-336 490.29,-330 490.29,-330 490.29,-318 490.29,-318 490.29,-312 496.29,-306 502.29,-306 502.29,-306 626.29,-306 626.29,-306 632.29,-306 638.29,-312 638.29,-318 638.29,-318 638.29,-330 638.29,-330 638.29,-336 632.29,-342 626.29,-342"/>
<text text-anchor="middle" x="564.29" y="-320.3" font-family="Helvetica,sans-Serif" font-size="14.00">SplineInterpolation</text>
</g>
<!-- MinusA -->
<g id="node26" class="node">
<title>MinusA</title>
<path fill="lightskyblue" stroke="black" d="M547.29,-255C547.29,-255 513.29,-255 513.29,-255 507.29,-255 501.29,-249 501.29,-243 501.29,-243 501.29,-231 501.29,-231 501.29,-225 507.29,-219 513.29,-219 513.29,-219 547.29,-219 547.29,-219 553.29,-219 559.29,-225 559.29,-231 559.29,-231 559.29,-243 559.29,-243 559.29,-249 553.29,-255 547.29,-255"/>
<text text-anchor="middle" x="530.29" y="-233.3" font-family="Helvetica,sans-Serif" font-size="14.00">Minus</text>
</g>
<!-- SplineInterpolationB&#45;&gt;MinusA -->
<g id="edge21" class="edge">
<title>SplineInterpolationB&#45;&gt;MinusA</title>
<path fill="none" stroke="black" d="M557.41,-305.8C552.83,-294.35 546.71,-279.06 541.45,-265.89"/>
<polygon fill="black" stroke="black" points="544.8,-264.86 537.84,-256.87 538.3,-267.46 544.8,-264.86"/>
</g>
<!-- SplineInterpolationC -->
<g id="node21" class="node">
<title>SplineInterpolationC</title>
<path fill="lightskyblue" stroke="black" d="M467.29,-255C467.29,-255 343.29,-255 343.29,-255 337.29,-255 331.29,-249 331.29,-243 331.29,-243 331.29,-231 331.29,-231 331.29,-225 337.29,-219 343.29,-219 343.29,-219 467.29,-219 467.29,-219 473.29,-219 479.29,-225 479.29,-231 479.29,-231 479.29,-243 479.29,-243 479.29,-249 473.29,-255 467.29,-255"/>
<text text-anchor="middle" x="405.29" y="-233.3" font-family="Helvetica,sans-Serif" font-size="14.00">SplineInterpolation</text>
</g>
<!-- Divide -->
<g id="node28" class="node">
<title>Divide</title>
<path fill="lightskyblue" stroke="black" d="M423.29,-182C423.29,-182 387.29,-182 387.29,-182 381.29,-182 375.29,-176 375.29,-170 375.29,-170 375.29,-158 375.29,-158 375.29,-152 381.29,-146 387.29,-146 387.29,-146 423.29,-146 423.29,-146 429.29,-146 435.29,-152 435.29,-158 435.29,-158 435.29,-170 435.29,-170 435.29,-176 429.29,-182 423.29,-182"/>
<text text-anchor="middle" x="405.29" y="-160.3" font-family="Helvetica,sans-Serif" font-size="14.00">Divide</text>
</g>
<!-- SplineInterpolationC&#45;&gt;Divide -->
<g id="edge24" class="edge">
<title>SplineInterpolationC&#45;&gt;Divide</title>
<path fill="none" stroke="black" d="M405.29,-218.81C405.29,-211.23 405.29,-202.1 405.29,-193.54"/>
<polygon fill="black" stroke="black" points="408.79,-193.54 405.29,-183.54 401.79,-193.54 408.79,-193.54"/>
</g>
<!-- SplineInterpolationCB -->
<g id="node22" class="node">
<title>SplineInterpolationCB</title>
<path fill="lightskyblue" stroke="black" d="M306.29,-429C306.29,-429 182.29,-429 182.29,-429 176.29,-429 170.29,-423 170.29,-417 170.29,-417 170.29,-405 170.29,-405 170.29,-399 176.29,-393 182.29,-393 182.29,-393 306.29,-393 306.29,-393 312.29,-393 318.29,-399 318.29,-405 318.29,-405 318.29,-417 318.29,-417 318.29,-423 312.29,-429 306.29,-429"/>
<text text-anchor="middle" x="244.29" y="-407.3" font-family="Helvetica,sans-Serif" font-size="14.00">SplineInterpolation</text>
</g>
<!-- MinusB -->
<g id="node27" class="node">
<title>MinusB</title>
<path fill="lightskyblue" stroke="black" d="M283.29,-342C283.29,-342 249.29,-342 249.29,-342 243.29,-342 237.29,-336 237.29,-330 237.29,-330 237.29,-318 237.29,-318 237.29,-312 243.29,-306 249.29,-306 249.29,-306 283.29,-306 283.29,-306 289.29,-306 295.29,-312 295.29,-318 295.29,-318 295.29,-330 295.29,-330 295.29,-336 289.29,-342 283.29,-342"/>
<text text-anchor="middle" x="266.29" y="-320.3" font-family="Helvetica,sans-Serif" font-size="14.00">Minus</text>
</g>
<!-- SplineInterpolationCB&#45;&gt;MinusB -->
<g id="edge32" class="edge">
<title>SplineInterpolationCB&#45;&gt;MinusB</title>
<path fill="none" stroke="black" d="M248.74,-392.8C251.67,-381.47 255.58,-366.36 258.97,-353.29"/>
<polygon fill="black" stroke="black" points="262.27,-354.49 261.39,-343.93 255.49,-352.74 262.27,-354.49"/>
</g>
<!-- IntegrationBB -->
<g id="node23" class="node">
<title>IntegrationBB</title>
<path fill="lightskyblue" stroke="black" d="M459.79,-342C459.79,-342 390.79,-342 390.79,-342 384.79,-342 378.79,-336 378.79,-330 378.79,-330 378.79,-318 378.79,-318 378.79,-312 384.79,-306 390.79,-306 390.79,-306 459.79,-306 459.79,-306 465.79,-306 471.79,-312 471.79,-318 471.79,-318 471.79,-330 471.79,-330 471.79,-336 465.79,-342 459.79,-342"/>
<text text-anchor="middle" x="425.29" y="-320.3" font-family="Helvetica,sans-Serif" font-size="14.00">Integration</text>
</g>
<!-- IntegrationBB&#45;&gt;MinusA -->
<g id="edge20" class="edge">
<title>IntegrationBB&#45;&gt;MinusA</title>
<path fill="none" stroke="black" d="M446.79,-305.59C462.22,-293.1 483.22,-276.11 500.29,-262.28"/>
<polygon fill="black" stroke="black" points="502.07,-265.35 507.64,-256.34 497.66,-259.91 502.07,-265.35"/>
</g>
<!-- IntegrationCC -->
<g id="node24" class="node">
<title>IntegrationCC</title>
<path fill="lightskyblue" stroke="black" d="M300.79,-255C300.79,-255 231.79,-255 231.79,-255 225.79,-255 219.79,-249 219.79,-243 219.79,-243 219.79,-231 219.79,-231 219.79,-225 225.79,-219 231.79,-219 231.79,-219 300.79,-219 300.79,-219 306.79,-219 312.79,-225 312.79,-231 312.79,-231 312.79,-243 312.79,-243 312.79,-249 306.79,-255 300.79,-255"/>
<text text-anchor="middle" x="266.29" y="-233.3" font-family="Helvetica,sans-Serif" font-size="14.00">Integration</text>
</g>
<!-- IntegrationCC&#45;&gt;Divide -->
<g id="edge23" class="edge">
<title>IntegrationCC&#45;&gt;Divide</title>
<path fill="none" stroke="black" d="M300.29,-218.63C319.82,-208.66 344.46,-196.07 364.96,-185.6"/>
<polygon fill="black" stroke="black" points="366.29,-188.85 373.6,-181.19 363.1,-182.62 366.29,-188.85"/>
</g>
<!-- IntegrationCCBB -->
<g id="node25" class="node">
<title>IntegrationCCBB</title>
<path fill="lightskyblue" stroke="black" d="M139.79,-429C139.79,-429 70.79,-429 70.79,-429 64.79,-429 58.79,-423 58.79,-417 58.79,-417 58.79,-405 58.79,-405 58.79,-399 64.79,-393 70.79,-393 70.79,-393 139.79,-393 139.79,-393 145.79,-393 151.79,-399 151.79,-405 151.79,-405 151.79,-417 151.79,-417 151.79,-423 145.79,-429 139.79,-429"/>
<text text-anchor="middle" x="105.29" y="-407.3" font-family="Helvetica,sans-Serif" font-size="14.00">Integration</text>
</g>
<!-- IntegrationCCBB&#45;&gt;MinusB -->
<g id="edge30" class="edge">
<title>IntegrationCCBB&#45;&gt;MinusB</title>
<path fill="none" stroke="black" d="M138.26,-392.59C163.95,-379.03 199.72,-360.15 226.92,-345.79"/>
<polygon fill="black" stroke="black" points="228.33,-349 235.54,-341.23 225.07,-342.81 228.33,-349"/>
</g>
<!-- MinusA&#45;&gt;Divide -->
<g id="edge22" class="edge">
<title>MinusA&#45;&gt;Divide</title>
<path fill="none" stroke="black" d="M500.98,-219.35C484.5,-209.99 463.67,-198.16 445.66,-187.93"/>
<polygon fill="black" stroke="black" points="447.46,-184.93 437.03,-183.03 444,-191.01 447.46,-184.93"/>
</g>
<!-- MinusB&#45;&gt;SplineInterpolationC -->
<g id="edge18" class="edge">
<title>MinusB&#45;&gt;SplineInterpolationC</title>
<path fill="none" stroke="black" d="M294.75,-305.59C315.65,-292.82 344.25,-275.32 367.13,-261.34"/>
<polygon fill="black" stroke="black" points="368.87,-264.38 375.57,-256.17 365.21,-258.4 368.87,-264.38"/>
<text text-anchor="middle" x="382.29" y="-276.8" font-family="Helvetica,sans-Serif" font-size="14.00">Interpolate</text>
</g>
<!-- MinusB&#45;&gt;IntegrationCC -->
<g id="edge17" class="edge">
<title>MinusB&#45;&gt;IntegrationCC</title>
<path fill="none" stroke="black" d="M266.29,-305.8C266.29,-294.58 266.29,-279.67 266.29,-266.69"/>
<polygon fill="black" stroke="black" points="269.79,-266.98 266.29,-256.98 262.79,-266.98 269.79,-266.98"/>
<text text-anchor="middle" x="282.29" y="-276.8" font-family="Helvetica,sans-Serif" font-size="14.00">Sum</text>
</g>
<!-- Divide&#45;&gt;GroupWorkspaces -->
<g id="edge33" class="edge">
<title>Divide&#45;&gt;GroupWorkspaces</title>
<path fill="none" stroke="black" d="M405.29,-145.81C405.29,-138.23 405.29,-129.1 405.29,-120.54"/>
<polygon fill="black" stroke="black" points="408.79,-120.54 405.29,-110.54 401.79,-120.54 408.79,-120.54"/>
</g>
<!-- Scan&#45;&gt;MinusA -->
<g id="edge19" class="edge">
<title>Scan&#45;&gt;MinusA</title>
<path fill="none" stroke="black" d="M655.94,-307.8C631.93,-294.47 596.72,-274.91 569.68,-259.88"/>
<polygon fill="black" stroke="black" points="571.52,-256.9 561.08,-255.1 568.12,-263.02 571.52,-256.9"/>
</g>
<!-- ScanB&#45;&gt;SplineInterpolationB -->
<g id="edge11" class="edge">
<title>ScanB&#45;&gt;SplineInterpolationB</title>
<path fill="none" stroke="black" d="M564.29,-392.8C564.29,-381.58 564.29,-366.67 564.29,-353.69"/>
<polygon fill="black" stroke="black" points="567.79,-353.98 564.29,-343.98 560.79,-353.98 567.79,-353.98"/>
<text text-anchor="middle" x="602.29" y="-363.8" font-family="Helvetica,sans-Serif" font-size="14.00">Interpolate</text>
</g>
<!-- ScanB&#45;&gt;IntegrationBB -->
<g id="edge10" class="edge">
<title>ScanB&#45;&gt;IntegrationBB</title>
<path fill="none" stroke="black" d="M536.83,-393.21C515.78,-380.34 486.5,-362.43 463.22,-348.19"/>
<polygon fill="black" stroke="black" points="465.3,-345.36 454.94,-343.13 461.64,-351.33 465.3,-345.36"/>
<text text-anchor="middle" x="519.29" y="-363.8" font-family="Helvetica,sans-Serif" font-size="14.00">Sum</text>
</g>
<!-- ScanC&#45;&gt;MinusB -->
<g id="edge16" class="edge">
<title>ScanC&#45;&gt;MinusB</title>
<path fill="none" stroke="black" d="M343.66,-392.8C329.55,-380.44 310.32,-363.59 294.56,-349.78"/>
<polygon fill="black" stroke="black" points="297.19,-347.42 287.36,-343.46 292.57,-352.69 297.19,-347.42"/>
</g>
<!-- ScanCB&#45;&gt;SplineInterpolationCB -->
<g id="edge31" class="edge">
<title>ScanCB&#45;&gt;SplineInterpolationCB</title>
<path fill="none" stroke="black" d="M158.64,-465.81C173.25,-456.64 191.43,-445.21 207.28,-435.25"/>
<polygon fill="black" stroke="black" points="208.91,-438.36 215.51,-430.08 205.18,-432.44 208.91,-438.36"/>
</g>
<!-- ScanCB&#45;&gt;IntegrationCCBB -->
<g id="edge29" class="edge">
<title>ScanCB&#45;&gt;IntegrationCCBB</title>
<path fill="none" stroke="black" d="M124.99,-465.81C122.12,-457.96 118.64,-448.47 115.42,-439.66"/>
<polygon fill="black" stroke="black" points="118.77,-438.64 112.04,-430.45 112.2,-441.04 118.77,-438.64"/>
</g>
</g>
</svg>
