<?xml version="1.0" encoding="UTF-8" standalone="no"?>
<!DOCTYPE svg PUBLIC "-//W3C//DTD SVG 1.1//EN"
 "http://www.w3.org/Graphics/SVG/1.1/DTD/svg11.dtd">
<!-- Generated by graphviz version 3.0.0 (20220315.2325)
 -->
<!-- Title: IndirectFlatePlateAbsorption Pages: 1 -->
<svg width="1824pt" height="1743pt"
 viewBox="0.00 0.00 1824.19 1743.00" xmlns="http://www.w3.org/2000/svg" xmlns:xlink="http://www.w3.org/1999/xlink">
<g id="graph0" class="graph" transform="scale(1 1) rotate(0) translate(4 1739)">
<title>IndirectFlatePlateAbsorption</title>
<polygon fill="white" stroke="transparent" points="-4,4 -4,-1739 1820.19,-1739 1820.19,4 -4,4"/>
<text text-anchor="middle" x="908.1" y="-1719.8" font-family="Helvetica,sans-Serif" font-size="14.00">IndirectFlatePlateAbsorption Flowchart</text>
<!-- SampleWorkspace1 -->
<g id="node1" class="node">
<title>SampleWorkspace1</title>
<ellipse fill="khaki" stroke="black" cx="1536.19" cy="-1694" rx="94.48" ry="18"/>
<text text-anchor="middle" x="1536.19" y="-1690.3" font-family="Helvetica,sans-Serif" font-size="14.00">SampleWorkspace</text>
</g>
<!-- GetEFixed -->
<g id="node23" class="node">
<title>GetEFixed</title>
<path fill="lightskyblue" stroke="black" d="M1567.19,-1639C1567.19,-1639 1505.19,-1639 1505.19,-1639 1499.19,-1639 1493.19,-1633 1493.19,-1627 1493.19,-1627 1493.19,-1615 1493.19,-1615 1493.19,-1609 1499.19,-1603 1505.19,-1603 1505.19,-1603 1567.19,-1603 1567.19,-1603 1573.19,-1603 1579.19,-1609 1579.19,-1615 1579.19,-1615 1579.19,-1627 1579.19,-1627 1579.19,-1633 1573.19,-1639 1567.19,-1639"/>
<text text-anchor="middle" x="1536.19" y="-1617.3" font-family="Helvetica,sans-Serif" font-size="14.00">GetEFixed</text>
</g>
<!-- SampleWorkspace1&#45;&gt;GetEFixed -->
<g id="edge1" class="edge">
<title>SampleWorkspace1&#45;&gt;GetEFixed</title>
<path fill="none" stroke="black" d="M1536.19,-1675.81C1536.19,-1667.79 1536.19,-1658.05 1536.19,-1649.07"/>
<polygon fill="black" stroke="black" points="1539.69,-1649.03 1536.19,-1639.03 1532.69,-1649.03 1539.69,-1649.03"/>
</g>
<!-- SampleWorkspace2 -->
<g id="node2" class="node">
<title>SampleWorkspace2</title>
<ellipse fill="khaki" stroke="black" cx="519.19" cy="-1009" rx="94.48" ry="18"/>
<text text-anchor="middle" x="519.19" y="-1005.3" font-family="Helvetica,sans-Serif" font-size="14.00">SampleWorkspace</text>
</g>
<!-- Divide1 -->
<g id="node45" class="node">
<title>Divide1</title>
<ellipse fill="lightgrey" stroke="black" cx="740.19" cy="-936" rx="44.69" ry="18"/>
<text text-anchor="middle" x="740.19" y="-932.3" font-family="Helvetica,sans-Serif" font-size="14.00">Divide1</text>
</g>
<!-- SampleWorkspace2&#45;&gt;Divide1 -->
<g id="edge23" class="edge">
<title>SampleWorkspace2&#45;&gt;Divide1</title>
<path fill="none" stroke="black" d="M565.25,-993.2C603.8,-980.82 658.44,-963.26 696.36,-951.08"/>
<polygon fill="black" stroke="black" points="697.65,-954.34 706.1,-947.95 695.51,-947.68 697.65,-954.34"/>
</g>
<!-- SampleChemicalFormula -->
<g id="node3" class="node">
<title>SampleChemicalFormula</title>
<ellipse fill="khaki" stroke="black" cx="365.19" cy="-1461" rx="122.38" ry="18"/>
<text text-anchor="middle" x="365.19" y="-1457.3" font-family="Helvetica,sans-Serif" font-size="14.00">SampleChemicalFormula</text>
</g>
<!-- SetSample -->
<g id="node30" class="node">
<title>SetSample</title>
<path fill="lightskyblue" stroke="black" d="M951.69,-1406C951.69,-1406 884.69,-1406 884.69,-1406 878.69,-1406 872.69,-1400 872.69,-1394 872.69,-1394 872.69,-1382 872.69,-1382 872.69,-1376 878.69,-1370 884.69,-1370 884.69,-1370 951.69,-1370 951.69,-1370 957.69,-1370 963.69,-1376 963.69,-1382 963.69,-1382 963.69,-1394 963.69,-1394 963.69,-1400 957.69,-1406 951.69,-1406"/>
<text text-anchor="middle" x="918.19" y="-1384.3" font-family="Helvetica,sans-Serif" font-size="14.00">SetSample</text>
</g>
<!-- SampleChemicalFormula&#45;&gt;SetSample -->
<g id="edge11" class="edge">
<title>SampleChemicalFormula&#45;&gt;SetSample</title>
<path fill="none" stroke="black" d="M452.53,-1448.31C467.1,-1446.46 482.07,-1444.63 496.19,-1443 655.87,-1424.59 700.78,-1438.04 862.64,-1405.86"/>
<polygon fill="black" stroke="black" points="863.34,-1409.29 872.45,-1403.89 861.96,-1402.43 863.34,-1409.29"/>
</g>
<!-- SampleDensity -->
<g id="node4" class="node">
<title>SampleDensity</title>
<ellipse fill="khaki" stroke="black" cx="584.19" cy="-1461" rx="78.79" ry="18"/>
<text text-anchor="middle" x="584.19" y="-1457.3" font-family="Helvetica,sans-Serif" font-size="14.00">SampleDensity</text>
</g>
<!-- SampleDensity&#45;&gt;SetSample -->
<g id="edge12" class="edge">
<title>SampleDensity&#45;&gt;SetSample</title>
<path fill="none" stroke="black" d="M642.33,-1448.77C713.21,-1435.07 827.17,-1413.04 862.54,-1405.7"/>
<polygon fill="black" stroke="black" points="863.66,-1409.04 872.68,-1403.48 862.16,-1402.2 863.66,-1409.04"/>
</g>
<!-- SampleHeight -->
<g id="node5" class="node">
<title>SampleHeight</title>
<ellipse fill="khaki" stroke="black" cx="755.19" cy="-1461" rx="74.19" ry="18"/>
<text text-anchor="middle" x="755.19" y="-1457.3" font-family="Helvetica,sans-Serif" font-size="14.00">SampleHeight</text>
</g>
<!-- SampleHeight&#45;&gt;SetSample -->
<g id="edge7" class="edge">
<title>SampleHeight&#45;&gt;SetSample</title>
<path fill="none" stroke="black" d="M789.76,-1444.94C813.06,-1434.79 844.13,-1421.26 869.88,-1410.04"/>
<polygon fill="black" stroke="black" points="871.33,-1413.23 879.1,-1406.03 868.53,-1406.81 871.33,-1413.23"/>
</g>
<!-- SampleWidth -->
<g id="node6" class="node">
<title>SampleWidth</title>
<ellipse fill="khaki" stroke="black" cx="918.19" cy="-1461" rx="70.69" ry="18"/>
<text text-anchor="middle" x="918.19" y="-1457.3" font-family="Helvetica,sans-Serif" font-size="14.00">SampleWidth</text>
</g>
<!-- SampleWidth&#45;&gt;SetSample -->
<g id="edge8" class="edge">
<title>SampleWidth&#45;&gt;SetSample</title>
<path fill="none" stroke="black" d="M918.19,-1442.81C918.19,-1434.79 918.19,-1425.05 918.19,-1416.07"/>
<polygon fill="black" stroke="black" points="921.69,-1416.03 918.19,-1406.03 914.69,-1416.03 921.69,-1416.03"/>
</g>
<!-- SampleThickness -->
<g id="node7" class="node">
<title>SampleThickness</title>
<ellipse fill="khaki" stroke="black" cx="1096.19" cy="-1461" rx="89.08" ry="18"/>
<text text-anchor="middle" x="1096.19" y="-1457.3" font-family="Helvetica,sans-Serif" font-size="14.00">SampleThickness</text>
</g>
<!-- SampleThickness&#45;&gt;SetSample -->
<g id="edge9" class="edge">
<title>SampleThickness&#45;&gt;SetSample</title>
<path fill="none" stroke="black" d="M1057.57,-1444.59C1032.14,-1434.45 998.53,-1421.05 970.69,-1409.94"/>
<polygon fill="black" stroke="black" points="971.69,-1406.57 961.11,-1406.12 969.1,-1413.07 971.69,-1406.57"/>
</g>
<!-- SampleAngle -->
<g id="node8" class="node">
<title>SampleAngle</title>
<ellipse fill="khaki" stroke="black" cx="1273.19" cy="-1461" rx="70.39" ry="18"/>
<text text-anchor="middle" x="1273.19" y="-1457.3" font-family="Helvetica,sans-Serif" font-size="14.00">SampleAngle</text>
</g>
<!-- SampleAngle&#45;&gt;SetSample -->
<g id="edge10" class="edge">
<title>SampleAngle&#45;&gt;SetSample</title>
<path fill="none" stroke="black" d="M1221.38,-1448.7C1212.32,-1446.77 1202.99,-1444.81 1194.19,-1443 1118.1,-1427.37 1029.99,-1410.31 974.18,-1399.64"/>
<polygon fill="black" stroke="black" points="974.63,-1396.16 964.15,-1397.72 973.31,-1403.03 974.63,-1396.16"/>
</g>
<!-- BeamHeight -->
<g id="node9" class="node">
<title>BeamHeight</title>
<ellipse fill="khaki" stroke="black" cx="1254.19" cy="-1534" rx="66.09" ry="18"/>
<text text-anchor="middle" x="1254.19" y="-1530.3" font-family="Helvetica,sans-Serif" font-size="14.00">BeamHeight</text>
</g>
<!-- SetBeam -->
<g id="node27" class="node">
<title>SetBeam</title>
<path fill="lightskyblue" stroke="black" d="M1428.69,-1479C1428.69,-1479 1373.69,-1479 1373.69,-1479 1367.69,-1479 1361.69,-1473 1361.69,-1467 1361.69,-1467 1361.69,-1455 1361.69,-1455 1361.69,-1449 1367.69,-1443 1373.69,-1443 1373.69,-1443 1428.69,-1443 1428.69,-1443 1434.69,-1443 1440.69,-1449 1440.69,-1455 1440.69,-1455 1440.69,-1467 1440.69,-1467 1440.69,-1473 1434.69,-1479 1428.69,-1479"/>
<text text-anchor="middle" x="1401.19" y="-1457.3" font-family="Helvetica,sans-Serif" font-size="14.00">SetBeam</text>
</g>
<!-- BeamHeight&#45;&gt;SetBeam -->
<g id="edge4" class="edge">
<title>BeamHeight&#45;&gt;SetBeam</title>
<path fill="none" stroke="black" d="M1285.37,-1517.94C1306.11,-1507.93 1333.67,-1494.61 1356.7,-1483.49"/>
<polygon fill="black" stroke="black" points="1358.45,-1486.53 1365.93,-1479.03 1355.41,-1480.23 1358.45,-1486.53"/>
</g>
<!-- BeamWidth -->
<g id="node10" class="node">
<title>BeamWidth</title>
<ellipse fill="khaki" stroke="black" cx="1401.19" cy="-1534" rx="63.09" ry="18"/>
<text text-anchor="middle" x="1401.19" y="-1530.3" font-family="Helvetica,sans-Serif" font-size="14.00">BeamWidth</text>
</g>
<!-- BeamWidth&#45;&gt;SetBeam -->
<g id="edge5" class="edge">
<title>BeamWidth&#45;&gt;SetBeam</title>
<path fill="none" stroke="black" d="M1401.19,-1515.81C1401.19,-1507.79 1401.19,-1498.05 1401.19,-1489.07"/>
<polygon fill="black" stroke="black" points="1404.69,-1489.03 1401.19,-1479.03 1397.69,-1489.03 1404.69,-1489.03"/>
</g>
<!-- Events -->
<g id="node11" class="node">
<title>Events</title>
<ellipse fill="khaki" stroke="black" cx="562.19" cy="-1388" rx="41.69" ry="18"/>
<text text-anchor="middle" x="562.19" y="-1384.3" font-family="Helvetica,sans-Serif" font-size="14.00">Events</text>
</g>
<!-- MonteCarlo -->
<g id="node33" class="node">
<title>MonteCarlo</title>
<path fill="lightskyblue" stroke="black" d="M773.69,-1333C773.69,-1333 702.69,-1333 702.69,-1333 696.69,-1333 690.69,-1327 690.69,-1321 690.69,-1321 690.69,-1309 690.69,-1309 690.69,-1303 696.69,-1297 702.69,-1297 702.69,-1297 773.69,-1297 773.69,-1297 779.69,-1297 785.69,-1303 785.69,-1309 785.69,-1309 785.69,-1321 785.69,-1321 785.69,-1327 779.69,-1333 773.69,-1333"/>
<text text-anchor="middle" x="738.19" y="-1311.3" font-family="Helvetica,sans-Serif" font-size="14.00">MonteCarlo</text>
</g>
<!-- Events&#45;&gt;MonteCarlo -->
<g id="edge14" class="edge">
<title>Events&#45;&gt;MonteCarlo</title>
<path fill="none" stroke="black" d="M591.65,-1375.12C617.46,-1364.71 655.56,-1349.34 686.44,-1336.88"/>
<polygon fill="black" stroke="black" points="687.81,-1340.1 695.77,-1333.11 685.19,-1333.61 687.81,-1340.1"/>
</g>
<!-- NumberOfWavelengths -->
<g id="node12" class="node">
<title>NumberOfWavelengths</title>
<ellipse fill="khaki" stroke="black" cx="738.19" cy="-1388" rx="116.18" ry="18"/>
<text text-anchor="middle" x="738.19" y="-1384.3" font-family="Helvetica,sans-Serif" font-size="14.00">NumberOfWavelengths</text>
</g>
<!-- NumberOfWavelengths&#45;&gt;MonteCarlo -->
<g id="edge15" class="edge">
<title>NumberOfWavelengths&#45;&gt;MonteCarlo</title>
<path fill="none" stroke="black" d="M738.19,-1369.81C738.19,-1361.79 738.19,-1352.05 738.19,-1343.07"/>
<polygon fill="black" stroke="black" points="741.69,-1343.03 738.19,-1333.03 734.69,-1343.03 741.69,-1343.03"/>
</g>
<!-- AbsWorkspace1 -->
<g id="node13" class="node">
<title>AbsWorkspace1</title>
<ellipse fill="khaki" stroke="black" cx="726.19" cy="-1242" rx="109.68" ry="18"/>
<text text-anchor="middle" x="726.19" y="-1238.3" font-family="Helvetica,sans-Serif" font-size="14.00">AbsorptionWorkspace</text>
</g>
<!-- AbsWorkspace2 -->
<g id="node14" class="node">
<title>AbsWorkspace2</title>
<ellipse fill="khaki" stroke="black" cx="741.19" cy="-1009" rx="109.68" ry="18"/>
<text text-anchor="middle" x="741.19" y="-1005.3" font-family="Helvetica,sans-Serif" font-size="14.00">AbsorptionWorkspace</text>
</g>
<!-- AbsWorkspace2&#45;&gt;Divide1 -->
<g id="edge24" class="edge">
<title>AbsWorkspace2&#45;&gt;Divide1</title>
<path fill="none" stroke="black" d="M740.95,-990.81C740.84,-982.79 740.7,-973.05 740.57,-964.07"/>
<polygon fill="black" stroke="black" points="744.07,-963.98 740.43,-954.03 737.07,-964.08 744.07,-963.98"/>
</g>
<!-- CanAbsorptionWorkspace -->
<g id="node15" class="node">
<title>CanAbsorptionWorkspace</title>
<ellipse fill="khaki" stroke="black" cx="655.19" cy="-397" rx="127.28" ry="18"/>
<text text-anchor="middle" x="655.19" y="-393.3" font-family="Helvetica,sans-Serif" font-size="14.00">CanAbsorptionWorkspace</text>
</g>
<!-- CanWorkspace1 -->
<g id="node16" class="node">
<title>CanWorkspace1</title>
<ellipse fill="khaki" stroke="black" cx="465.19" cy="-776" rx="83.69" ry="18"/>
<text text-anchor="middle" x="465.19" y="-772.3" font-family="Helvetica,sans-Serif" font-size="14.00">CanWorkspace1</text>
</g>
<!-- SetBeam1 -->
<g id="node28" class="node">
<title>SetBeam1</title>
<path fill="lightskyblue" stroke="black" d="M277.69,-707C277.69,-707 222.69,-707 222.69,-707 216.69,-707 210.69,-701 210.69,-695 210.69,-695 210.69,-683 210.69,-683 210.69,-677 216.69,-671 222.69,-671 222.69,-671 277.69,-671 277.69,-671 283.69,-671 289.69,-677 289.69,-683 289.69,-683 289.69,-695 289.69,-695 289.69,-701 283.69,-707 277.69,-707"/>
<text text-anchor="middle" x="250.19" y="-685.3" font-family="Helvetica,sans-Serif" font-size="14.00">SetBeam</text>
</g>
<!-- CanWorkspace1&#45;&gt;SetBeam1 -->
<g id="edge27" class="edge">
<title>CanWorkspace1&#45;&gt;SetBeam1</title>
<path fill="none" stroke="black" d="M426.75,-759.8C391.12,-745.72 337.94,-724.69 299.25,-709.4"/>
<polygon fill="black" stroke="black" points="300.34,-706.06 289.75,-705.64 297.76,-712.57 300.34,-706.06"/>
</g>
<!-- CanWorkspace2 -->
<g id="node17" class="node">
<title>CanWorkspace2</title>
<ellipse fill="khaki" stroke="black" cx="724.19" cy="-776" rx="83.69" ry="18"/>
<text text-anchor="middle" x="724.19" y="-772.3" font-family="Helvetica,sans-Serif" font-size="14.00">CanWorkspace2</text>
</g>
<!-- SetBeam2 -->
<g id="node29" class="node">
<title>SetBeam2</title>
<path fill="lightskyblue" stroke="black" d="M748.69,-707C748.69,-707 693.69,-707 693.69,-707 687.69,-707 681.69,-701 681.69,-695 681.69,-695 681.69,-683 681.69,-683 681.69,-677 687.69,-671 693.69,-671 693.69,-671 748.69,-671 748.69,-671 754.69,-671 760.69,-677 760.69,-683 760.69,-683 760.69,-695 760.69,-695 760.69,-701 754.69,-707 748.69,-707"/>
<text text-anchor="middle" x="721.19" y="-685.3" font-family="Helvetica,sans-Serif" font-size="14.00">SetBeam</text>
</g>
<!-- CanWorkspace2&#45;&gt;SetBeam2 -->
<g id="edge35" class="edge">
<title>CanWorkspace2&#45;&gt;SetBeam2</title>
<path fill="none" stroke="black" d="M723.58,-757.8C723.17,-746.16 722.62,-730.55 722.15,-717.24"/>
<polygon fill="black" stroke="black" points="725.65,-717.05 721.8,-707.18 718.65,-717.29 725.65,-717.05"/>
</g>
<!-- CanChemicalFormula -->
<g id="node18" class="node">
<title>CanChemicalFormula</title>
<ellipse fill="khaki" stroke="black" cx="414.19" cy="-689" rx="106.68" ry="18"/>
<text text-anchor="middle" x="414.19" y="-685.3" font-family="Helvetica,sans-Serif" font-size="14.00">CanChemicalFormula</text>
</g>
<!-- SetSample1 -->
<g id="node31" class="node">
<title>SetSample1</title>
<path fill="lightskyblue" stroke="black" d="M447.69,-634C447.69,-634 380.69,-634 380.69,-634 374.69,-634 368.69,-628 368.69,-622 368.69,-622 368.69,-610 368.69,-610 368.69,-604 374.69,-598 380.69,-598 380.69,-598 447.69,-598 447.69,-598 453.69,-598 459.69,-604 459.69,-610 459.69,-610 459.69,-622 459.69,-622 459.69,-628 453.69,-634 447.69,-634"/>
<text text-anchor="middle" x="414.19" y="-612.3" font-family="Helvetica,sans-Serif" font-size="14.00">SetSample</text>
</g>
<!-- CanChemicalFormula&#45;&gt;SetSample1 -->
<g id="edge30" class="edge">
<title>CanChemicalFormula&#45;&gt;SetSample1</title>
<path fill="none" stroke="black" d="M414.19,-670.81C414.19,-662.79 414.19,-653.05 414.19,-644.07"/>
<polygon fill="black" stroke="black" points="417.69,-644.03 414.19,-634.03 410.69,-644.03 417.69,-644.03"/>
</g>
<!-- SetSample2 -->
<g id="node32" class="node">
<title>SetSample2</title>
<path fill="lightskyblue" stroke="black" d="M688.69,-634C688.69,-634 621.69,-634 621.69,-634 615.69,-634 609.69,-628 609.69,-622 609.69,-622 609.69,-610 609.69,-610 609.69,-604 615.69,-598 621.69,-598 621.69,-598 688.69,-598 688.69,-598 694.69,-598 700.69,-604 700.69,-610 700.69,-610 700.69,-622 700.69,-622 700.69,-628 694.69,-634 688.69,-634"/>
<text text-anchor="middle" x="655.19" y="-612.3" font-family="Helvetica,sans-Serif" font-size="14.00">SetSample</text>
</g>
<!-- CanChemicalFormula&#45;&gt;SetSample2 -->
<g id="edge38" class="edge">
<title>CanChemicalFormula&#45;&gt;SetSample2</title>
<path fill="none" stroke="black" d="M464.71,-673.12C504.24,-661.47 559.14,-645.3 599.86,-633.3"/>
<polygon fill="black" stroke="black" points="601.02,-636.61 609.62,-630.43 599.04,-629.89 601.02,-636.61"/>
</g>
<!-- CanDensity -->
<g id="node19" class="node">
<title>CanDensity</title>
<ellipse fill="khaki" stroke="black" cx="601.19" cy="-689" rx="62.29" ry="18"/>
<text text-anchor="middle" x="601.19" y="-685.3" font-family="Helvetica,sans-Serif" font-size="14.00">CanDensity</text>
</g>
<!-- CanDensity&#45;&gt;SetSample1 -->
<g id="edge31" class="edge">
<title>CanDensity&#45;&gt;SetSample1</title>
<path fill="none" stroke="black" d="M564.69,-674.14C537.34,-663.76 499.45,-649.37 468.54,-637.63"/>
<polygon fill="black" stroke="black" points="469.78,-634.36 459.19,-634.08 467.29,-640.91 469.78,-634.36"/>
</g>
<!-- CanDensity&#45;&gt;SetSample2 -->
<g id="edge39" class="edge">
<title>CanDensity&#45;&gt;SetSample2</title>
<path fill="none" stroke="black" d="M613.99,-671.17C620.55,-662.55 628.68,-651.86 635.97,-642.27"/>
<polygon fill="black" stroke="black" points="638.84,-644.28 642.11,-634.2 633.27,-640.04 638.84,-644.28"/>
</g>
<!-- CanFrontThickness -->
<g id="node20" class="node">
<title>CanFrontThickness</title>
<ellipse fill="khaki" stroke="black" cx="96.19" cy="-689" rx="96.38" ry="18"/>
<text text-anchor="middle" x="96.19" y="-685.3" font-family="Helvetica,sans-Serif" font-size="14.00">CanFrontThickness</text>
</g>
<!-- CanFrontThickness&#45;&gt;SetSample1 -->
<g id="edge29" class="edge">
<title>CanFrontThickness&#45;&gt;SetSample1</title>
<path fill="none" stroke="black" d="M155.63,-674.73C213.8,-661.74 301.71,-642.11 358.54,-629.42"/>
<polygon fill="black" stroke="black" points="359.43,-632.81 368.43,-627.22 357.91,-625.98 359.43,-632.81"/>
</g>
<!-- CanBackThickness -->
<g id="node21" class="node">
<title>CanBackThickness</title>
<ellipse fill="khaki" stroke="black" cx="873.19" cy="-689" rx="94.78" ry="18"/>
<text text-anchor="middle" x="873.19" y="-685.3" font-family="Helvetica,sans-Serif" font-size="14.00">CanBackThickness</text>
</g>
<!-- CanBackThickness&#45;&gt;SetSample2 -->
<g id="edge37" class="edge">
<title>CanBackThickness&#45;&gt;SetSample2</title>
<path fill="none" stroke="black" d="M827.49,-673.12C793.48,-662.04 746.89,-646.87 710.73,-635.09"/>
<polygon fill="black" stroke="black" points="711.42,-631.63 700.83,-631.86 709.26,-638.29 711.42,-631.63"/>
</g>
<!-- OutputWorkspace -->
<g id="node22" class="node">
<title>OutputWorkspace</title>
<ellipse fill="khaki" stroke="black" cx="955.19" cy="-18" rx="92.08" ry="18"/>
<text text-anchor="middle" x="955.19" y="-14.3" font-family="Helvetica,sans-Serif" font-size="14.00">OutputWorkspace</text>
</g>
<!-- ConvertUnits1 -->
<g id="node24" class="node">
<title>ConvertUnits1</title>
<path fill="lightskyblue" stroke="black" d="M1577.69,-1552C1577.69,-1552 1494.69,-1552 1494.69,-1552 1488.69,-1552 1482.69,-1546 1482.69,-1540 1482.69,-1540 1482.69,-1528 1482.69,-1528 1482.69,-1522 1488.69,-1516 1494.69,-1516 1494.69,-1516 1577.69,-1516 1577.69,-1516 1583.69,-1516 1589.69,-1522 1589.69,-1528 1589.69,-1528 1589.69,-1540 1589.69,-1540 1589.69,-1546 1583.69,-1552 1577.69,-1552"/>
<text text-anchor="middle" x="1536.19" y="-1530.3" font-family="Helvetica,sans-Serif" font-size="14.00">ConvertUnits</text>
</g>
<!-- GetEFixed&#45;&gt;ConvertUnits1 -->
<g id="edge2" class="edge">
<title>GetEFixed&#45;&gt;ConvertUnits1</title>
<path fill="none" stroke="black" d="M1536.19,-1602.8C1536.19,-1591.16 1536.19,-1575.55 1536.19,-1562.24"/>
<polygon fill="black" stroke="black" points="1539.69,-1562.18 1536.19,-1552.18 1532.69,-1562.18 1539.69,-1562.18"/>
<text text-anchor="middle" x="1676.19" y="-1573.8" font-family="Helvetica,sans-Serif" font-size="14.00">Convert input workspace to Wavelength</text>
</g>
<!-- ConvertUnits1&#45;&gt;SetBeam -->
<g id="edge3" class="edge">
<title>ConvertUnits1&#45;&gt;SetBeam</title>
<path fill="none" stroke="black" d="M1503.86,-1515.99C1485.54,-1506.36 1462.43,-1494.21 1442.78,-1483.87"/>
<polygon fill="black" stroke="black" points="1444.21,-1480.67 1433.73,-1479.11 1440.95,-1486.87 1444.21,-1480.67"/>
</g>
<!-- ConvertUnits2 -->
<g id="node25" class="node">
<title>ConvertUnits2</title>
<path fill="lightskyblue" stroke="black" d="M1002.69,-1173C1002.69,-1173 919.69,-1173 919.69,-1173 913.69,-1173 907.69,-1167 907.69,-1161 907.69,-1161 907.69,-1149 907.69,-1149 907.69,-1143 913.69,-1137 919.69,-1137 919.69,-1137 1002.69,-1137 1002.69,-1137 1008.69,-1137 1014.69,-1143 1014.69,-1149 1014.69,-1149 1014.69,-1161 1014.69,-1161 1014.69,-1167 1008.69,-1173 1002.69,-1173"/>
<text text-anchor="middle" x="961.19" y="-1151.3" font-family="Helvetica,sans-Serif" font-size="14.00">ConvertUnits</text>
</g>
<!-- Scale -->
<g id="node36" class="node">
<title>Scale</title>
<path fill="lightskyblue" stroke="black" d="M921.19,-1100C921.19,-1100 891.19,-1100 891.19,-1100 885.19,-1100 879.19,-1094 879.19,-1088 879.19,-1088 879.19,-1076 879.19,-1076 879.19,-1070 885.19,-1064 891.19,-1064 891.19,-1064 921.19,-1064 921.19,-1064 927.19,-1064 933.19,-1070 933.19,-1076 933.19,-1076 933.19,-1088 933.19,-1088 933.19,-1094 927.19,-1100 921.19,-1100"/>
<text text-anchor="middle" x="906.19" y="-1078.3" font-family="Helvetica,sans-Serif" font-size="14.00">Scale</text>
</g>
<!-- ConvertUnits2&#45;&gt;Scale -->
<g id="edge19" class="edge">
<title>ConvertUnits2&#45;&gt;Scale</title>
<path fill="none" stroke="black" d="M947.88,-1136.81C941.19,-1128.18 932.96,-1117.56 925.58,-1108.03"/>
<polygon fill="black" stroke="black" points="928.27,-1105.79 919.38,-1100.03 922.74,-1110.08 928.27,-1105.79"/>
</g>
<!-- Clone -->
<g id="node44" class="node">
<title>Clone</title>
<ellipse fill="lightgrey" stroke="black" cx="906.19" cy="-1009" rx="36.29" ry="18"/>
<text text-anchor="middle" x="906.19" y="-1005.3" font-family="Helvetica,sans-Serif" font-size="14.00">Clone</text>
</g>
<!-- ConvertUnits2&#45;&gt;Clone -->
<g id="edge20" class="edge">
<title>ConvertUnits2&#45;&gt;Clone</title>
<path fill="none" stroke="black" d="M959.53,-1136.84C957.29,-1118.29 952.34,-1088.14 942.19,-1064 937.87,-1053.72 931.5,-1043.31 925.33,-1034.42"/>
<polygon fill="black" stroke="black" points="927.99,-1032.13 919.29,-1026.08 922.32,-1036.24 927.99,-1032.13"/>
</g>
<!-- ConvertUnits3 -->
<g id="node26" class="node">
<title>ConvertUnits3</title>
<path fill="lightskyblue" stroke="black" d="M996.69,-255C996.69,-255 913.69,-255 913.69,-255 907.69,-255 901.69,-249 901.69,-243 901.69,-243 901.69,-231 901.69,-231 901.69,-225 907.69,-219 913.69,-219 913.69,-219 996.69,-219 996.69,-219 1002.69,-219 1008.69,-225 1008.69,-231 1008.69,-231 1008.69,-243 1008.69,-243 1008.69,-249 1002.69,-255 996.69,-255"/>
<text text-anchor="middle" x="955.19" y="-233.3" font-family="Helvetica,sans-Serif" font-size="14.00">ConvertUnits</text>
</g>
<!-- AddSampleLogMultiple -->
<g id="node39" class="node">
<title>AddSampleLogMultiple</title>
<path fill="lightskyblue" stroke="black" d="M1031.19,-182C1031.19,-182 879.19,-182 879.19,-182 873.19,-182 867.19,-176 867.19,-170 867.19,-170 867.19,-158 867.19,-158 867.19,-152 873.19,-146 879.19,-146 879.19,-146 1031.19,-146 1031.19,-146 1037.19,-146 1043.19,-152 1043.19,-158 1043.19,-158 1043.19,-170 1043.19,-170 1043.19,-176 1037.19,-182 1031.19,-182"/>
<text text-anchor="middle" x="955.19" y="-160.3" font-family="Helvetica,sans-Serif" font-size="14.00">AddSampleLogMultiple</text>
</g>
<!-- ConvertUnits3&#45;&gt;AddSampleLogMultiple -->
<g id="edge48" class="edge">
<title>ConvertUnits3&#45;&gt;AddSampleLogMultiple</title>
<path fill="none" stroke="black" d="M955.19,-218.81C955.19,-210.79 955.19,-201.05 955.19,-192.07"/>
<polygon fill="black" stroke="black" points="958.69,-192.03 955.19,-182.03 951.69,-192.03 958.69,-192.03"/>
</g>
<!-- SetBeam&#45;&gt;SetSample -->
<g id="edge6" class="edge">
<title>SetBeam&#45;&gt;SetSample</title>
<path fill="none" stroke="black" d="M1361.55,-1445.46C1358.41,-1444.55 1355.26,-1443.71 1352.19,-1443 1218.38,-1411.83 1056.9,-1397.74 973.72,-1392.16"/>
<polygon fill="black" stroke="black" points="973.93,-1388.67 963.73,-1391.51 973.48,-1395.66 973.93,-1388.67"/>
</g>
<!-- SetBeam1&#45;&gt;SetSample1 -->
<g id="edge28" class="edge">
<title>SetBeam1&#45;&gt;SetSample1</title>
<path fill="none" stroke="black" d="M289.47,-670.99C312.23,-661.14 341.07,-648.66 365.29,-638.17"/>
<polygon fill="black" stroke="black" points="366.88,-641.3 374.66,-634.11 364.09,-634.87 366.88,-641.3"/>
</g>
<!-- SetBeam2&#45;&gt;SetSample2 -->
<g id="edge36" class="edge">
<title>SetBeam2&#45;&gt;SetSample2</title>
<path fill="none" stroke="black" d="M705.21,-670.81C697.03,-662 686.91,-651.13 677.93,-641.46"/>
<polygon fill="black" stroke="black" points="680.39,-638.97 671.02,-634.03 675.27,-643.74 680.39,-638.97"/>
</g>
<!-- SetSample&#45;&gt;MonteCarlo -->
<g id="edge13" class="edge">
<title>SetSample&#45;&gt;MonteCarlo</title>
<path fill="none" stroke="black" d="M875.08,-1369.99C849.88,-1360.06 817.88,-1347.43 791.16,-1336.89"/>
<polygon fill="black" stroke="black" points="792.16,-1333.53 781.58,-1333.11 789.6,-1340.04 792.16,-1333.53"/>
</g>
<!-- MonteCarlo1 -->
<g id="node34" class="node">
<title>MonteCarlo1</title>
<path fill="lightskyblue" stroke="black" d="M559.69,-561C559.69,-561 488.69,-561 488.69,-561 482.69,-561 476.69,-555 476.69,-549 476.69,-549 476.69,-537 476.69,-537 476.69,-531 482.69,-525 488.69,-525 488.69,-525 559.69,-525 559.69,-525 565.69,-525 571.69,-531 571.69,-537 571.69,-537 571.69,-549 571.69,-549 571.69,-555 565.69,-561 559.69,-561"/>
<text text-anchor="middle" x="524.19" y="-539.3" font-family="Helvetica,sans-Serif" font-size="14.00">MonteCarlo</text>
</g>
<!-- SetSample1&#45;&gt;MonteCarlo1 -->
<g id="edge32" class="edge">
<title>SetSample1&#45;&gt;MonteCarlo1</title>
<path fill="none" stroke="black" d="M440.54,-597.99C455.13,-588.58 473.44,-576.76 489.22,-566.57"/>
<polygon fill="black" stroke="black" points="491.17,-569.48 497.68,-561.11 487.38,-563.6 491.17,-569.48"/>
</g>
<!-- MonteCarlo2 -->
<g id="node35" class="node">
<title>MonteCarlo2</title>
<path fill="lightskyblue" stroke="black" d="M690.69,-561C690.69,-561 619.69,-561 619.69,-561 613.69,-561 607.69,-555 607.69,-549 607.69,-549 607.69,-537 607.69,-537 607.69,-531 613.69,-525 619.69,-525 619.69,-525 690.69,-525 690.69,-525 696.69,-525 702.69,-531 702.69,-537 702.69,-537 702.69,-549 702.69,-549 702.69,-555 696.69,-561 690.69,-561"/>
<text text-anchor="middle" x="655.19" y="-539.3" font-family="Helvetica,sans-Serif" font-size="14.00">MonteCarlo</text>
</g>
<!-- SetSample2&#45;&gt;MonteCarlo2 -->
<g id="edge40" class="edge">
<title>SetSample2&#45;&gt;MonteCarlo2</title>
<path fill="none" stroke="black" d="M655.19,-597.81C655.19,-589.79 655.19,-580.05 655.19,-571.07"/>
<polygon fill="black" stroke="black" points="658.69,-571.03 655.19,-561.03 651.69,-571.03 658.69,-571.03"/>
</g>
<!-- MonteCarlo&#45;&gt;AbsWorkspace1 -->
<g id="edge16" class="edge">
<title>MonteCarlo&#45;&gt;AbsWorkspace1</title>
<path fill="none" stroke="black" d="M735.29,-1296.81C733.93,-1288.79 732.28,-1279.05 730.77,-1270.07"/>
<polygon fill="black" stroke="black" points="734.19,-1269.31 729.07,-1260.03 727.29,-1270.47 734.19,-1269.31"/>
</g>
<!-- canGiven -->
<g id="node42" class="node">
<title>canGiven</title>
<polygon fill="limegreen" stroke="black" points="1013.19,-1260 854.16,-1242 1013.19,-1224 1172.22,-1242 1013.19,-1260"/>
<text text-anchor="middle" x="1013.19" y="-1238.3" font-family="Helvetica,sans-Serif" font-size="14.00">Container Workspace?</text>
</g>
<!-- MonteCarlo&#45;&gt;canGiven -->
<g id="edge17" class="edge">
<title>MonteCarlo&#45;&gt;canGiven</title>
<path fill="none" stroke="black" d="M785.78,-1301.71C833.48,-1289.4 906.9,-1270.44 957.33,-1257.42"/>
<polygon fill="black" stroke="black" points="958.29,-1260.79 967.1,-1254.9 956.54,-1254.01 958.29,-1260.79"/>
</g>
<!-- Multiply -->
<g id="node41" class="node">
<title>Multiply</title>
<path fill="lightskyblue" stroke="black" d="M678.69,-488C678.69,-488 631.69,-488 631.69,-488 625.69,-488 619.69,-482 619.69,-476 619.69,-476 619.69,-464 619.69,-464 619.69,-458 625.69,-452 631.69,-452 631.69,-452 678.69,-452 678.69,-452 684.69,-452 690.69,-458 690.69,-464 690.69,-464 690.69,-476 690.69,-476 690.69,-482 684.69,-488 678.69,-488"/>
<text text-anchor="middle" x="655.19" y="-466.3" font-family="Helvetica,sans-Serif" font-size="14.00">Multiply</text>
</g>
<!-- MonteCarlo1&#45;&gt;Multiply -->
<g id="edge33" class="edge">
<title>MonteCarlo1&#45;&gt;Multiply</title>
<path fill="none" stroke="black" d="M555.57,-524.99C573.26,-515.4 595.56,-503.32 614.58,-493.01"/>
<polygon fill="black" stroke="black" points="616.49,-495.96 623.62,-488.11 613.16,-489.8 616.49,-495.96"/>
</g>
<!-- MonteCarlo2&#45;&gt;Multiply -->
<g id="edge41" class="edge">
<title>MonteCarlo2&#45;&gt;Multiply</title>
<path fill="none" stroke="black" d="M655.19,-524.81C655.19,-516.79 655.19,-507.05 655.19,-498.07"/>
<polygon fill="black" stroke="black" points="658.69,-498.03 655.19,-488.03 651.69,-498.03 658.69,-498.03"/>
</g>
<!-- Scale&#45;&gt;Clone -->
<g id="edge21" class="edge">
<title>Scale&#45;&gt;Clone</title>
<path fill="none" stroke="black" d="M906.19,-1063.81C906.19,-1055.79 906.19,-1046.05 906.19,-1037.07"/>
<polygon fill="black" stroke="black" points="909.69,-1037.03 906.19,-1027.03 902.69,-1037.03 909.69,-1037.03"/>
</g>
<!-- Divide -->
<g id="node37" class="node">
<title>Divide</title>
<path fill="lightskyblue" stroke="black" d="M886.19,-415C886.19,-415 850.19,-415 850.19,-415 844.19,-415 838.19,-409 838.19,-403 838.19,-403 838.19,-391 838.19,-391 838.19,-385 844.19,-379 850.19,-379 850.19,-379 886.19,-379 886.19,-379 892.19,-379 898.19,-385 898.19,-391 898.19,-391 898.19,-403 898.19,-403 898.19,-409 892.19,-415 886.19,-415"/>
<text text-anchor="middle" x="868.19" y="-393.3" font-family="Helvetica,sans-Serif" font-size="14.00">Divide</text>
</g>
<!-- Minus -->
<g id="node38" class="node">
<title>Minus</title>
<path fill="lightskyblue" stroke="black" d="M885.19,-342C885.19,-342 851.19,-342 851.19,-342 845.19,-342 839.19,-336 839.19,-330 839.19,-330 839.19,-318 839.19,-318 839.19,-312 845.19,-306 851.19,-306 851.19,-306 885.19,-306 885.19,-306 891.19,-306 897.19,-312 897.19,-318 897.19,-318 897.19,-330 897.19,-330 897.19,-336 891.19,-342 885.19,-342"/>
<text text-anchor="middle" x="868.19" y="-320.3" font-family="Helvetica,sans-Serif" font-size="14.00">Minus</text>
</g>
<!-- Divide&#45;&gt;Minus -->
<g id="edge45" class="edge">
<title>Divide&#45;&gt;Minus</title>
<path fill="none" stroke="black" d="M868.19,-378.81C868.19,-370.79 868.19,-361.05 868.19,-352.07"/>
<polygon fill="black" stroke="black" points="871.69,-352.03 868.19,-342.03 864.69,-352.03 871.69,-352.03"/>
</g>
<!-- Minus&#45;&gt;ConvertUnits3 -->
<g id="edge46" class="edge">
<title>Minus&#45;&gt;ConvertUnits3</title>
<path fill="none" stroke="black" d="M864.1,-305.82C862.64,-295.44 862.7,-282.44 869.19,-273 874.94,-264.63 883.07,-258.26 892.06,-253.41"/>
<polygon fill="black" stroke="black" points="893.73,-256.49 901.28,-249.06 890.74,-250.17 893.73,-256.49"/>
<text text-anchor="middle" x="949.19" y="-276.8" font-family="Helvetica,sans-Serif" font-size="14.00">Convert back to DeltaE</text>
</g>
<!-- GroupWorkspaces -->
<g id="node40" class="node">
<title>GroupWorkspaces</title>
<path fill="lightskyblue" stroke="black" d="M1014.69,-109C1014.69,-109 895.69,-109 895.69,-109 889.69,-109 883.69,-103 883.69,-97 883.69,-97 883.69,-85 883.69,-85 883.69,-79 889.69,-73 895.69,-73 895.69,-73 1014.69,-73 1014.69,-73 1020.69,-73 1026.69,-79 1026.69,-85 1026.69,-85 1026.69,-97 1026.69,-97 1026.69,-103 1020.69,-109 1014.69,-109"/>
<text text-anchor="middle" x="955.19" y="-87.3" font-family="Helvetica,sans-Serif" font-size="14.00">GroupWorkspaces</text>
</g>
<!-- AddSampleLogMultiple&#45;&gt;GroupWorkspaces -->
<g id="edge49" class="edge">
<title>AddSampleLogMultiple&#45;&gt;GroupWorkspaces</title>
<path fill="none" stroke="black" d="M955.19,-145.81C955.19,-137.79 955.19,-128.05 955.19,-119.07"/>
<polygon fill="black" stroke="black" points="958.69,-119.03 955.19,-109.03 951.69,-119.03 958.69,-119.03"/>
</g>
<!-- GroupWorkspaces&#45;&gt;OutputWorkspace -->
<g id="edge50" class="edge">
<title>GroupWorkspaces&#45;&gt;OutputWorkspace</title>
<path fill="none" stroke="black" d="M955.19,-72.81C955.19,-64.79 955.19,-55.05 955.19,-46.07"/>
<polygon fill="black" stroke="black" points="958.69,-46.03 955.19,-36.03 951.69,-46.03 958.69,-46.03"/>
</g>
<!-- Multiply&#45;&gt;CanAbsorptionWorkspace -->
<g id="edge42" class="edge">
<title>Multiply&#45;&gt;CanAbsorptionWorkspace</title>
<path fill="none" stroke="black" d="M655.19,-451.81C655.19,-443.79 655.19,-434.05 655.19,-425.07"/>
<polygon fill="black" stroke="black" points="658.69,-425.03 655.19,-415.03 651.69,-425.03 658.69,-425.03"/>
</g>
<!-- Multiply&#45;&gt;Divide -->
<g id="edge43" class="edge">
<title>Multiply&#45;&gt;Divide</title>
<path fill="none" stroke="black" d="M690.84,-457.12C728.84,-444.45 788.85,-424.45 828.37,-411.28"/>
<polygon fill="black" stroke="black" points="829.57,-414.56 837.95,-408.08 827.35,-407.92 829.57,-414.56"/>
</g>
<!-- canGiven&#45;&gt;ConvertUnits2 -->
<g id="edge18" class="edge">
<title>canGiven&#45;&gt;ConvertUnits2</title>
<path fill="none" stroke="black" d="M1003.41,-1225.01C995.98,-1212.86 985.6,-1195.9 976.99,-1181.83"/>
<polygon fill="black" stroke="black" points="979.85,-1179.79 971.64,-1173.08 973.88,-1183.44 979.85,-1179.79"/>
<text text-anchor="middle" x="1002.69" y="-1194.8" font-family="Helvetica,sans-Serif" font-size="14.00">Yes</text>
</g>
<!-- canGiven&#45;&gt;ConvertUnits3 -->
<g id="edge47" class="edge">
<title>canGiven&#45;&gt;ConvertUnits3</title>
<path fill="none" stroke="black" d="M1022.52,-1224.98C1031.33,-1208.32 1043.19,-1181.2 1043.19,-1156 1043.19,-1156 1043.19,-1156 1043.19,-323 1043.19,-299.92 1044.08,-290.64 1029.19,-273 1025.16,-268.22 1020.33,-264.06 1015.1,-260.43"/>
<polygon fill="black" stroke="black" points="1016.94,-257.45 1006.6,-255.16 1013.25,-263.41 1016.94,-257.45"/>
<text text-anchor="middle" x="1052.69" y="-728.8" font-family="Helvetica,sans-Serif" font-size="14.00">No</text>
</g>
<!-- useCorrections -->
<g id="node43" class="node">
<title>useCorrections</title>
<polygon fill="limegreen" stroke="black" points="725.19,-881 564.49,-863 725.19,-845 885.9,-863 725.19,-881"/>
<text text-anchor="middle" x="725.19" y="-859.3" font-family="Helvetica,sans-Serif" font-size="14.00">Container Corrections?</text>
</g>
<!-- useCorrections&#45;&gt;CanWorkspace1 -->
<g id="edge26" class="edge">
<title>useCorrections&#45;&gt;CanWorkspace1</title>
<path fill="none" stroke="black" d="M686.27,-849.27C641.78,-834.73 568.68,-810.83 518.82,-794.53"/>
<polygon fill="black" stroke="black" points="519.76,-791.16 509.17,-791.38 517.59,-797.81 519.76,-791.16"/>
<text text-anchor="middle" x="622.69" y="-815.8" font-family="Helvetica,sans-Serif" font-size="14.00">Yes</text>
</g>
<!-- useCorrections&#45;&gt;CanWorkspace2 -->
<g id="edge34" class="edge">
<title>useCorrections&#45;&gt;CanWorkspace2</title>
<path fill="none" stroke="black" d="M724.99,-844.8C724.85,-833.16 724.67,-817.55 724.51,-804.24"/>
<polygon fill="black" stroke="black" points="728.01,-804.13 724.39,-794.18 721.01,-804.22 728.01,-804.13"/>
<text text-anchor="middle" x="736.69" y="-815.8" font-family="Helvetica,sans-Serif" font-size="14.00">Yes</text>
</g>
<!-- useCorrections&#45;&gt;Divide -->
<g id="edge44" class="edge">
<title>useCorrections&#45;&gt;Divide</title>
<path fill="none" stroke="black" d="M799.96,-853.35C880.18,-841.94 996.19,-818.3 996.19,-777 996.19,-777 996.19,-777 996.19,-469 996.19,-428.23 945.93,-410.68 908.4,-403.25"/>
<polygon fill="black" stroke="black" points="908.66,-399.75 898.2,-401.42 907.42,-406.63 908.66,-399.75"/>
<text text-anchor="middle" x="1005.69" y="-612.3" font-family="Helvetica,sans-Serif" font-size="14.00">No</text>
</g>
<!-- Clone&#45;&gt;Divide1 -->
<g id="edge22" class="edge">
<title>Clone&#45;&gt;Divide1</title>
<path fill="none" stroke="black" d="M879.52,-996.59C852.48,-985.03 810.33,-967 779.47,-953.8"/>
<polygon fill="black" stroke="black" points="780.45,-950.41 769.88,-949.7 777.7,-956.85 780.45,-950.41"/>
</g>
<!-- Divide1&#45;&gt;useCorrections -->
<g id="edge25" class="edge">
<title>Divide1&#45;&gt;useCorrections</title>
<path fill="none" stroke="black" d="M736.56,-917.81C734.87,-909.79 732.81,-900.05 730.91,-891.07"/>
<polygon fill="black" stroke="black" points="734.28,-890.09 728.79,-881.03 727.43,-891.54 734.28,-890.09"/>
</g>
</g>
</svg>
