<?xml version="1.0" encoding="UTF-8" standalone="no"?>
<!DOCTYPE svg PUBLIC "-//W3C//DTD SVG 1.1//EN"
 "http://www.w3.org/Graphics/SVG/1.1/DTD/svg11.dtd">
<!-- Generated by graphviz version 2.47.2 (20210527.1257)
 -->
<!-- Title: IndirectILLEnergyTransfer Pages: 1 -->
<svg width="341pt" height="811pt"
 viewBox="0.00 0.00 340.73 811.00" xmlns="http://www.w3.org/2000/svg" xmlns:xlink="http://www.w3.org/1999/xlink">
<g id="graph0" class="graph" transform="scale(1 1) rotate(0) translate(4 807)">
<title>IndirectILLEnergyTransfer</title>
<polygon fill="white" stroke="transparent" points="-4,4 -4,-807 336.73,-807 336.73,4 -4,4"/>
<text text-anchor="middle" x="166.37" y="-787.8" font-family="Helvetica" font-size="14.00">IndirectILLEnergyTransfer Flowchart</text>
<!-- OutputWorkspace -->
<g id="node1" class="node">
<title>OutputWorkspace</title>
<polygon fill="grey" stroke="black" points="300.6,-36 87.07,-36 32.14,0 245.67,0 300.6,-36"/>
<text text-anchor="middle" x="166.37" y="-14.3" font-family="Times-Roman" font-size="14.00">OutputWorkspace</text>
</g>
<!-- CropDeadMonitorChannels -->
<g id="node2" class="node">
<title>CropDeadMonitorChannels</title>
<polygon fill="limegreen" stroke="black" points="166.37,-415 0.13,-397 166.37,-379 332.6,-397 166.37,-415"/>
<text text-anchor="middle" x="166.37" y="-393.3" font-family="Helvetica" font-size="14.00">CropDeadMonitorChannels</text>
</g>
<!-- CropWorkspace -->
<g id="node11" class="node">
<title>CropWorkspace</title>
<path fill="lightskyblue" stroke="black" d="M154.87,-328C154.87,-328 65.87,-328 65.87,-328 59.87,-328 53.87,-322 53.87,-316 53.87,-316 53.87,-304 53.87,-304 53.87,-298 59.87,-292 65.87,-292 65.87,-292 154.87,-292 154.87,-292 160.87,-292 166.87,-298 166.87,-304 166.87,-304 166.87,-316 166.87,-316 166.87,-322 160.87,-328 154.87,-328"/>
<text text-anchor="middle" x="110.37" y="-306.3" font-family="Helvetica" font-size="14.00">CropWorkspace</text>
</g>
<!-- CropDeadMonitorChannels&#45;&gt;CropWorkspace -->
<g id="edge7" class="edge">
<title>CropDeadMonitorChannels&#45;&gt;CropWorkspace</title>
<path fill="none" stroke="black" d="M155.83,-380.01C147.83,-367.86 136.65,-350.9 127.38,-336.83"/>
<polygon fill="black" stroke="black" points="130.05,-334.51 121.62,-328.08 124.2,-338.36 130.05,-334.51"/>
<text text-anchor="middle" x="153.37" y="-349.8" font-family="Helvetica" font-size="14.00">yes</text>
</g>
<!-- MaskBins -->
<g id="node12" class="node">
<title>MaskBins</title>
<path fill="lightskyblue" stroke="black" d="M249.37,-328C249.37,-328 197.37,-328 197.37,-328 191.37,-328 185.37,-322 185.37,-316 185.37,-316 185.37,-304 185.37,-304 185.37,-298 191.37,-292 197.37,-292 197.37,-292 249.37,-292 249.37,-292 255.37,-292 261.37,-298 261.37,-304 261.37,-304 261.37,-316 261.37,-316 261.37,-322 255.37,-328 249.37,-328"/>
<text text-anchor="middle" x="223.37" y="-306.3" font-family="Helvetica" font-size="14.00">MaskBins</text>
</g>
<!-- CropDeadMonitorChannels&#45;&gt;MaskBins -->
<g id="edge8" class="edge">
<title>CropDeadMonitorChannels&#45;&gt;MaskBins</title>
<path fill="none" stroke="black" d="M177.09,-380.01C185.31,-367.75 196.83,-350.57 206.32,-336.43"/>
<polygon fill="black" stroke="black" points="209.25,-338.34 211.91,-328.08 203.44,-334.44 209.25,-338.34"/>
<text text-anchor="middle" x="205.37" y="-349.8" font-family="Helvetica" font-size="14.00">no</text>
</g>
<!-- Run -->
<g id="node3" class="node">
<title>Run</title>
<ellipse fill="khaki" stroke="black" cx="258.37" cy="-762" rx="27" ry="18"/>
<text text-anchor="middle" x="258.37" y="-758.3" font-family="Helvetica" font-size="14.00">Run</text>
</g>
<!-- LoadILLIndirect -->
<g id="node5" class="node">
<title>LoadILLIndirect</title>
<path fill="lightskyblue" stroke="black" d="M301.37,-707C301.37,-707 215.37,-707 215.37,-707 209.37,-707 203.37,-701 203.37,-695 203.37,-695 203.37,-683 203.37,-683 203.37,-677 209.37,-671 215.37,-671 215.37,-671 301.37,-671 301.37,-671 307.37,-671 313.37,-677 313.37,-683 313.37,-683 313.37,-695 313.37,-695 313.37,-701 307.37,-707 301.37,-707"/>
<text text-anchor="middle" x="258.37" y="-685.3" font-family="Helvetica" font-size="14.00">LoadILLIndirect</text>
</g>
<!-- Run&#45;&gt;LoadILLIndirect -->
<g id="edge1" class="edge">
<title>Run&#45;&gt;LoadILLIndirect</title>
<path fill="none" stroke="black" d="M258.37,-743.81C258.37,-735.79 258.37,-726.05 258.37,-717.07"/>
<polygon fill="black" stroke="black" points="261.87,-717.03 258.37,-707.03 254.87,-717.03 261.87,-717.03"/>
</g>
<!-- MapFile -->
<g id="node4" class="node">
<title>MapFile</title>
<ellipse fill="khaki" stroke="black" cx="154.37" cy="-616" rx="42.49" ry="18"/>
<text text-anchor="middle" x="154.37" y="-612.3" font-family="Helvetica" font-size="14.00">MapFile</text>
</g>
<!-- GroupDetectors -->
<g id="node7" class="node">
<title>GroupDetectors</title>
<path fill="lightskyblue" stroke="black" d="M210.87,-561C210.87,-561 121.87,-561 121.87,-561 115.87,-561 109.87,-555 109.87,-549 109.87,-549 109.87,-537 109.87,-537 109.87,-531 115.87,-525 121.87,-525 121.87,-525 210.87,-525 210.87,-525 216.87,-525 222.87,-531 222.87,-537 222.87,-537 222.87,-549 222.87,-549 222.87,-555 216.87,-561 210.87,-561"/>
<text text-anchor="middle" x="166.37" y="-539.3" font-family="Helvetica" font-size="14.00">GroupDetectors</text>
</g>
<!-- MapFile&#45;&gt;GroupDetectors -->
<g id="edge3" class="edge">
<title>MapFile&#45;&gt;GroupDetectors</title>
<path fill="none" stroke="black" d="M157.27,-597.81C158.63,-589.79 160.27,-580.05 161.79,-571.07"/>
<polygon fill="black" stroke="black" points="165.27,-571.47 163.49,-561.03 158.37,-570.31 165.27,-571.47"/>
</g>
<!-- MergeRuns -->
<g id="node6" class="node">
<title>MergeRuns</title>
<path fill="lightskyblue" stroke="black" d="M289.87,-634C289.87,-634 226.87,-634 226.87,-634 220.87,-634 214.87,-628 214.87,-622 214.87,-622 214.87,-610 214.87,-610 214.87,-604 220.87,-598 226.87,-598 226.87,-598 289.87,-598 289.87,-598 295.87,-598 301.87,-604 301.87,-610 301.87,-610 301.87,-622 301.87,-622 301.87,-628 295.87,-634 289.87,-634"/>
<text text-anchor="middle" x="258.37" y="-612.3" font-family="Helvetica" font-size="14.00">MergeRuns</text>
</g>
<!-- LoadILLIndirect&#45;&gt;MergeRuns -->
<g id="edge2" class="edge">
<title>LoadILLIndirect&#45;&gt;MergeRuns</title>
<path fill="none" stroke="black" d="M258.37,-670.81C258.37,-662.79 258.37,-653.05 258.37,-644.07"/>
<polygon fill="black" stroke="black" points="261.87,-644.03 258.37,-634.03 254.87,-644.03 261.87,-644.03"/>
</g>
<!-- MergeRuns&#45;&gt;GroupDetectors -->
<g id="edge4" class="edge">
<title>MergeRuns&#45;&gt;GroupDetectors</title>
<path fill="none" stroke="black" d="M236.1,-597.81C224.23,-588.66 209.46,-577.26 196.58,-567.32"/>
<polygon fill="black" stroke="black" points="198.49,-564.37 188.43,-561.03 194.21,-569.91 198.49,-564.37"/>
</g>
<!-- NormaliseToMonitor -->
<g id="node8" class="node">
<title>NormaliseToMonitor</title>
<path fill="lightskyblue" stroke="black" d="M223.37,-488C223.37,-488 109.37,-488 109.37,-488 103.37,-488 97.37,-482 97.37,-476 97.37,-476 97.37,-464 97.37,-464 97.37,-458 103.37,-452 109.37,-452 109.37,-452 223.37,-452 223.37,-452 229.37,-452 235.37,-458 235.37,-464 235.37,-464 235.37,-476 235.37,-476 235.37,-482 229.37,-488 223.37,-488"/>
<text text-anchor="middle" x="166.37" y="-466.3" font-family="Helvetica" font-size="14.00">NormaliseToMonitor</text>
</g>
<!-- GroupDetectors&#45;&gt;NormaliseToMonitor -->
<g id="edge5" class="edge">
<title>GroupDetectors&#45;&gt;NormaliseToMonitor</title>
<path fill="none" stroke="black" d="M166.37,-524.81C166.37,-516.79 166.37,-507.05 166.37,-498.07"/>
<polygon fill="black" stroke="black" points="169.87,-498.03 166.37,-488.03 162.87,-498.03 169.87,-498.03"/>
</g>
<!-- NormaliseToMonitor&#45;&gt;CropDeadMonitorChannels -->
<g id="edge6" class="edge">
<title>NormaliseToMonitor&#45;&gt;CropDeadMonitorChannels</title>
<path fill="none" stroke="black" d="M166.37,-451.81C166.37,-443.79 166.37,-434.05 166.37,-425.07"/>
<polygon fill="black" stroke="black" points="169.87,-425.03 166.37,-415.03 162.87,-425.03 169.87,-425.03"/>
</g>
<!-- ConvertAxisByFormula -->
<g id="node9" class="node">
<title>ConvertAxisByFormula</title>
<path fill="lightskyblue" stroke="black" d="M231.87,-255C231.87,-255 100.87,-255 100.87,-255 94.87,-255 88.87,-249 88.87,-243 88.87,-243 88.87,-231 88.87,-231 88.87,-225 94.87,-219 100.87,-219 100.87,-219 231.87,-219 231.87,-219 237.87,-219 243.87,-225 243.87,-231 243.87,-231 243.87,-243 243.87,-243 243.87,-249 237.87,-255 231.87,-255"/>
<text text-anchor="middle" x="166.37" y="-233.3" font-family="Helvetica" font-size="14.00">ConvertAxisByFormula</text>
</g>
<!-- ConvertSpectrumAxis -->
<g id="node10" class="node">
<title>ConvertSpectrumAxis</title>
<path fill="lightskyblue" stroke="black" d="M228.37,-182C228.37,-182 104.37,-182 104.37,-182 98.37,-182 92.37,-176 92.37,-170 92.37,-170 92.37,-158 92.37,-158 92.37,-152 98.37,-146 104.37,-146 104.37,-146 228.37,-146 228.37,-146 234.37,-146 240.37,-152 240.37,-158 240.37,-158 240.37,-170 240.37,-170 240.37,-176 234.37,-182 228.37,-182"/>
<text text-anchor="middle" x="166.37" y="-160.3" font-family="Helvetica" font-size="14.00">ConvertSpectrumAxis</text>
</g>
<!-- ConvertAxisByFormula&#45;&gt;ConvertSpectrumAxis -->
<g id="edge11" class="edge">
<title>ConvertAxisByFormula&#45;&gt;ConvertSpectrumAxis</title>
<path fill="none" stroke="black" d="M166.37,-218.81C166.37,-210.79 166.37,-201.05 166.37,-192.07"/>
<polygon fill="black" stroke="black" points="169.87,-192.03 166.37,-182.03 162.87,-192.03 169.87,-192.03"/>
</g>
<!-- GroupWorkspaces -->
<g id="node13" class="node">
<title>GroupWorkspaces</title>
<path fill="lightskyblue" stroke="black" d="M218.87,-109C218.87,-109 113.87,-109 113.87,-109 107.87,-109 101.87,-103 101.87,-97 101.87,-97 101.87,-85 101.87,-85 101.87,-79 107.87,-73 113.87,-73 113.87,-73 218.87,-73 218.87,-73 224.87,-73 230.87,-79 230.87,-85 230.87,-85 230.87,-97 230.87,-97 230.87,-103 224.87,-109 218.87,-109"/>
<text text-anchor="middle" x="166.37" y="-87.3" font-family="Helvetica" font-size="14.00">GroupWorkspaces</text>
</g>
<!-- ConvertSpectrumAxis&#45;&gt;GroupWorkspaces -->
<g id="edge12" class="edge">
<title>ConvertSpectrumAxis&#45;&gt;GroupWorkspaces</title>
<path fill="none" stroke="black" d="M166.37,-145.81C166.37,-137.79 166.37,-128.05 166.37,-119.07"/>
<polygon fill="black" stroke="black" points="169.87,-119.03 166.37,-109.03 162.87,-119.03 169.87,-119.03"/>
</g>
<!-- CropWorkspace&#45;&gt;ConvertAxisByFormula -->
<g id="edge9" class="edge">
<title>CropWorkspace&#45;&gt;ConvertAxisByFormula</title>
<path fill="none" stroke="black" d="M123.92,-291.81C130.73,-283.18 139.11,-272.56 146.62,-263.03"/>
<polygon fill="black" stroke="black" points="149.49,-265.05 152.94,-255.03 144,-260.71 149.49,-265.05"/>
</g>
<!-- MaskBins&#45;&gt;ConvertAxisByFormula -->
<g id="edge10" class="edge">
<title>MaskBins&#45;&gt;ConvertAxisByFormula</title>
<path fill="none" stroke="black" d="M209.57,-291.81C202.64,-283.18 194.11,-272.56 186.47,-263.03"/>
<polygon fill="black" stroke="black" points="189.03,-260.64 180.04,-255.03 183.57,-265.02 189.03,-260.64"/>
</g>
<!-- GroupWorkspaces&#45;&gt;OutputWorkspace -->
<g id="edge13" class="edge">
<title>GroupWorkspaces&#45;&gt;OutputWorkspace</title>
<path fill="none" stroke="black" d="M166.37,-72.81C166.37,-64.79 166.37,-55.05 166.37,-46.07"/>
<polygon fill="black" stroke="black" points="169.87,-46.03 166.37,-36.03 162.87,-46.03 169.87,-46.03"/>
</g>
</g>
</svg>
