<?xml version="1.0" encoding="UTF-8" standalone="no"?>
<!DOCTYPE svg PUBLIC "-//W3C//DTD SVG 1.1//EN"
 "http://www.w3.org/Graphics/SVG/1.1/DTD/svg11.dtd">
<!-- Generated by graphviz version 3.0.0 (20220315.2325)
 -->
<!-- Title: isisPowderCreateVanadium Pages: 1 -->
<svg width="1906pt" height="1239pt"
 viewBox="0.00 0.00 1906.17 1239.00" xmlns="http://www.w3.org/2000/svg" xmlns:xlink="http://www.w3.org/1999/xlink">
<g id="graph0" class="graph" transform="scale(1 1) rotate(0) translate(4 1235)">
<title>isisPowderCreateVanadium</title>
<polygon fill="white" stroke="transparent" points="-4,4 -4,-1235 1902.17,-1235 1902.17,4 -4,4"/>
<text text-anchor="middle" x="949.09" y="-1215.8" font-family="Helvetica,sans-Serif" font-size="14.00">ISISPowder &#45; &#39;create_vanadium&#39;</text>
<!-- label_start -->
<g id="node1" class="node">
<title>label_start</title>
<ellipse fill="lightgrey" stroke="black" cx="249.79" cy="-1190" rx="170.87" ry="18"/>
<text text-anchor="middle" x="249.79" y="-1186.3" font-family="Helvetica,sans-Serif" font-size="14.00">Start ISISPowder &#39;create_vanadium&#39;</text>
</g>
<!-- param_calMapping_1 -->
<g id="node4" class="node">
<title>param_calMapping_1</title>
<ellipse fill="khaki" stroke="black" cx="249.79" cy="-1117" rx="118.88" ry="18"/>
<text text-anchor="middle" x="249.79" y="-1113.3" font-family="Helvetica,sans-Serif" font-size="14.00">Calibration mapping file</text>
</g>
<!-- label_start&#45;&gt;param_calMapping_1 -->
<g id="edge1" class="edge">
<title>label_start&#45;&gt;param_calMapping_1</title>
<path fill="none" stroke="black" d="M249.79,-1171.81C249.79,-1163.79 249.79,-1154.05 249.79,-1145.07"/>
<polygon fill="black" stroke="black" points="253.29,-1145.03 249.79,-1135.03 246.29,-1145.03 253.29,-1145.03"/>
</g>
<!-- param_apply_absorb -->
<g id="node2" class="node">
<title>param_apply_absorb</title>
<ellipse fill="khaki" stroke="black" cx="924.79" cy="-630" rx="170.87" ry="18"/>
<text text-anchor="middle" x="924.79" y="-626.3" font-family="Helvetica,sans-Serif" font-size="14.00">User param: absorption corrections</text>
</g>
<!-- if_apply_absorb -->
<g id="node26" class="node">
<title>if_apply_absorb</title>
<polygon fill="limegreen" stroke="black" points="799.79,-575 648.8,-557 799.79,-539 950.77,-557 799.79,-575"/>
<text text-anchor="middle" x="799.79" y="-553.3" font-family="Helvetica,sans-Serif" font-size="14.00">If: absorb corrections</text>
</g>
<!-- param_apply_absorb&#45;&gt;if_apply_absorb -->
<g id="edge15" class="edge">
<title>param_apply_absorb&#45;&gt;if_apply_absorb</title>
<path fill="none" stroke="black" d="M895.17,-612.17C876.59,-601.62 852.6,-588 833.33,-577.05"/>
<polygon fill="black" stroke="black" points="835,-573.97 824.57,-572.08 831.54,-580.06 835,-573.97"/>
</g>
<!-- param_calFileName -->
<g id="node3" class="node">
<title>param_calFileName</title>
<ellipse fill="khaki" stroke="black" cx="797.79" cy="-703" rx="104.78" ry="18"/>
<text text-anchor="middle" x="797.79" y="-699.3" font-family="Helvetica,sans-Serif" font-size="14.00">Calibration file name</text>
</g>
<!-- alg_Align -->
<g id="node17" class="node">
<title>alg_Align</title>
<path fill="lightskyblue" stroke="black" d="M724.29,-648C724.29,-648 625.29,-648 625.29,-648 619.29,-648 613.29,-642 613.29,-636 613.29,-636 613.29,-624 613.29,-624 613.29,-618 619.29,-612 625.29,-612 625.29,-612 724.29,-612 724.29,-612 730.29,-612 736.29,-618 736.29,-624 736.29,-624 736.29,-636 736.29,-636 736.29,-642 730.29,-648 724.29,-648"/>
<text text-anchor="middle" x="674.79" y="-626.3" font-family="Helvetica,sans-Serif" font-size="14.00">Align Detectors</text>
</g>
<!-- param_calFileName&#45;&gt;alg_Align -->
<g id="edge12" class="edge">
<title>param_calFileName&#45;&gt;alg_Align</title>
<path fill="none" stroke="black" d="M769.26,-685.53C752.7,-675.97 731.62,-663.8 713.57,-653.38"/>
<polygon fill="black" stroke="black" points="714.86,-650.09 704.45,-648.12 711.36,-656.15 714.86,-650.09"/>
</g>
<!-- param_emptyRunNumber -->
<g id="node6" class="node">
<title>param_emptyRunNumber</title>
<ellipse fill="khaki" stroke="black" cx="375.79" cy="-1044" rx="108.58" ry="18"/>
<text text-anchor="middle" x="375.79" y="-1040.3" font-family="Helvetica,sans-Serif" font-size="14.00">Empty run number(s)</text>
</g>
<!-- param_calMapping_1&#45;&gt;param_emptyRunNumber -->
<g id="edge4" class="edge">
<title>param_calMapping_1&#45;&gt;param_emptyRunNumber</title>
<path fill="none" stroke="black" d="M279.01,-1099.53C296.51,-1089.68 318.93,-1077.04 337.79,-1066.41"/>
<polygon fill="black" stroke="black" points="339.73,-1069.34 346.72,-1061.38 336.29,-1063.24 339.73,-1069.34"/>
</g>
<!-- param_vanadiumRunNumber -->
<g id="node7" class="node">
<title>param_vanadiumRunNumber</title>
<ellipse fill="khaki" stroke="black" cx="124.79" cy="-1044" rx="124.58" ry="18"/>
<text text-anchor="middle" x="124.79" y="-1040.3" font-family="Helvetica,sans-Serif" font-size="14.00">Vanadium run number(s)</text>
</g>
<!-- param_calMapping_1&#45;&gt;param_vanadiumRunNumber -->
<g id="edge2" class="edge">
<title>param_calMapping_1&#45;&gt;param_vanadiumRunNumber</title>
<path fill="none" stroke="black" d="M220.8,-1099.53C203.57,-1089.75 181.51,-1077.22 162.89,-1066.64"/>
<polygon fill="black" stroke="black" points="164.48,-1063.52 154.06,-1061.62 161.02,-1069.61 164.48,-1063.52"/>
</g>
<!-- param_calMapping_2 -->
<g id="node5" class="node">
<title>param_calMapping_2</title>
<ellipse fill="khaki" stroke="black" cx="833.79" cy="-776" rx="118.88" ry="18"/>
<text text-anchor="middle" x="833.79" y="-772.3" font-family="Helvetica,sans-Serif" font-size="14.00">Calibration mapping file</text>
</g>
<!-- param_calMapping_2&#45;&gt;param_calFileName -->
<g id="edge11" class="edge">
<title>param_calMapping_2&#45;&gt;param_calFileName</title>
<path fill="none" stroke="black" d="M825.07,-757.81C820.87,-749.53 815.74,-739.41 811.07,-730.19"/>
<polygon fill="black" stroke="black" points="814.07,-728.37 806.42,-721.03 807.82,-731.53 814.07,-728.37"/>
</g>
<!-- proc_LoadCurrentNormWS_2 -->
<g id="node13" class="node">
<title>proc_LoadCurrentNormWS_2</title>
<polygon fill="lightseagreen" stroke="black" points="476.29,-975 193.29,-975 193.29,-939 476.29,-939 476.29,-975"/>
<text text-anchor="middle" x="334.79" y="-953.3" font-family="Helvetica,sans-Serif" font-size="14.00">Load current normalised workspace(s)</text>
</g>
<!-- param_emptyRunNumber&#45;&gt;proc_LoadCurrentNormWS_2 -->
<g id="edge5" class="edge">
<title>param_emptyRunNumber&#45;&gt;proc_LoadCurrentNormWS_2</title>
<path fill="none" stroke="black" d="M367.49,-1025.8C361.77,-1013.93 354.05,-997.93 347.55,-984.45"/>
<polygon fill="black" stroke="black" points="350.57,-982.66 343.07,-975.18 344.27,-985.7 350.57,-982.66"/>
<text text-anchor="middle" x="431.29" y="-996.8" font-family="Helvetica,sans-Serif" font-size="14.00">InputMode=Summed</text>
</g>
<!-- proc_LoadCurrentNormWS_1 -->
<g id="node12" class="node">
<title>proc_LoadCurrentNormWS_1</title>
<polygon fill="lightseagreen" stroke="black" points="311.29,-921 28.29,-921 28.29,-885 311.29,-885 311.29,-921"/>
<text text-anchor="middle" x="169.79" y="-899.3" font-family="Helvetica,sans-Serif" font-size="14.00">Load current normalised workspace(s)</text>
</g>
<!-- param_vanadiumRunNumber&#45;&gt;proc_LoadCurrentNormWS_1 -->
<g id="edge3" class="edge">
<title>param_vanadiumRunNumber&#45;&gt;proc_LoadCurrentNormWS_1</title>
<path fill="none" stroke="black" d="M130.31,-1025.96C138,-1002.2 152.02,-958.88 161.12,-930.78"/>
<polygon fill="black" stroke="black" points="164.48,-931.78 164.23,-921.18 157.82,-929.62 164.48,-931.78"/>
<text text-anchor="middle" x="215.29" y="-996.8" font-family="Helvetica,sans-Serif" font-size="14.00">InputMode=Summed</text>
</g>
<!-- param_groupingCalFile -->
<g id="node8" class="node">
<title>param_groupingCalFile</title>
<ellipse fill="khaki" stroke="black" cx="1115.79" cy="-470" rx="167.07" ry="18"/>
<text text-anchor="middle" x="1115.79" y="-466.3" font-family="Helvetica,sans-Serif" font-size="14.00">Adv config: Grouping cal file name</text>
</g>
<!-- alg_DiffractionFocusing -->
<g id="node20" class="node">
<title>alg_DiffractionFocusing</title>
<path fill="lightskyblue" stroke="black" d="M960.29,-415C960.29,-415 829.29,-415 829.29,-415 823.29,-415 817.29,-409 817.29,-403 817.29,-403 817.29,-391 817.29,-391 817.29,-385 823.29,-379 829.29,-379 829.29,-379 960.29,-379 960.29,-379 966.29,-379 972.29,-385 972.29,-391 972.29,-391 972.29,-403 972.29,-403 972.29,-409 966.29,-415 960.29,-415"/>
<text text-anchor="middle" x="894.79" y="-393.3" font-family="Helvetica,sans-Serif" font-size="14.00">Diffraction Focusing</text>
</g>
<!-- param_groupingCalFile&#45;&gt;alg_DiffractionFocusing -->
<g id="edge17" class="edge">
<title>param_groupingCalFile&#45;&gt;alg_DiffractionFocusing</title>
<path fill="none" stroke="black" d="M1065.36,-452.8C1033.48,-442.56 992,-429.23 957.94,-418.29"/>
<polygon fill="black" stroke="black" points="958.67,-414.85 948.08,-415.12 956.53,-421.51 958.67,-414.85"/>
</g>
<!-- param_rawTOFCropValues -->
<g id="node9" class="node">
<title>param_rawTOFCropValues</title>
<ellipse fill="khaki" stroke="black" cx="517.79" cy="-776" rx="179.27" ry="18"/>
<text text-anchor="middle" x="517.79" y="-772.3" font-family="Helvetica,sans-Serif" font-size="14.00">Adv config: Raw TOF cropping values</text>
</g>
<!-- alg_CropRawTOF -->
<g id="node18" class="node">
<title>alg_CropRawTOF</title>
<path fill="lightskyblue" stroke="black" d="M607.29,-721C607.29,-721 428.29,-721 428.29,-721 422.29,-721 416.29,-715 416.29,-709 416.29,-709 416.29,-697 416.29,-697 416.29,-691 422.29,-685 428.29,-685 428.29,-685 607.29,-685 607.29,-685 613.29,-685 619.29,-691 619.29,-697 619.29,-697 619.29,-709 619.29,-709 619.29,-715 613.29,-721 607.29,-721"/>
<text text-anchor="middle" x="517.79" y="-699.3" font-family="Helvetica,sans-Serif" font-size="14.00">Crop data to expected TOF</text>
</g>
<!-- param_rawTOFCropValues&#45;&gt;alg_CropRawTOF -->
<g id="edge9" class="edge">
<title>param_rawTOFCropValues&#45;&gt;alg_CropRawTOF</title>
<path fill="none" stroke="black" d="M517.79,-757.81C517.79,-749.79 517.79,-740.05 517.79,-731.07"/>
<polygon fill="black" stroke="black" points="521.29,-731.03 517.79,-721.03 514.29,-731.03 521.29,-731.03"/>
</g>
<!-- param_vanadiumTOFCropValues -->
<g id="node10" class="node">
<title>param_vanadiumTOFCropValues</title>
<ellipse fill="khaki" stroke="black" cx="1516.79" cy="-310" rx="206.06" ry="18"/>
<text text-anchor="middle" x="1516.79" y="-306.3" font-family="Helvetica,sans-Serif" font-size="14.00">Adv config: Vanadium TOF cropping values</text>
</g>
<!-- alg_CropVanTOF -->
<g id="node19" class="node">
<title>alg_CropVanTOF</title>
<path fill="lightskyblue" stroke="black" d="M1426.29,-255C1426.29,-255 1247.29,-255 1247.29,-255 1241.29,-255 1235.29,-249 1235.29,-243 1235.29,-243 1235.29,-231 1235.29,-231 1235.29,-225 1241.29,-219 1247.29,-219 1247.29,-219 1426.29,-219 1426.29,-219 1432.29,-219 1438.29,-225 1438.29,-231 1438.29,-231 1438.29,-243 1438.29,-243 1438.29,-249 1432.29,-255 1426.29,-255"/>
<text text-anchor="middle" x="1336.79" y="-233.3" font-family="Helvetica,sans-Serif" font-size="14.00">Crop data to expected TOF</text>
</g>
<!-- param_vanadiumTOFCropValues&#45;&gt;alg_CropVanTOF -->
<g id="edge22" class="edge">
<title>param_vanadiumTOFCropValues&#45;&gt;alg_CropVanTOF</title>
<path fill="none" stroke="black" d="M1474.59,-292.35C1449.12,-282.31 1416.46,-269.42 1389.32,-258.72"/>
<polygon fill="black" stroke="black" points="1390.56,-255.45 1379.98,-255.04 1387.99,-261.96 1390.56,-255.45"/>
</g>
<!-- param_vanadiumSplineCoefficient -->
<g id="node11" class="node">
<title>param_vanadiumSplineCoefficient</title>
<ellipse fill="khaki" stroke="black" cx="1705.79" cy="-164" rx="192.27" ry="18"/>
<text text-anchor="middle" x="1705.79" y="-160.3" font-family="Helvetica,sans-Serif" font-size="14.00">Adv config: Vanadium Spline Coefficient</text>
</g>
<!-- alg_SplineVanadium -->
<g id="node24" class="node">
<title>alg_SplineVanadium</title>
<path fill="lightskyblue" stroke="black" d="M1582.29,-109C1582.29,-109 1459.29,-109 1459.29,-109 1453.29,-109 1447.29,-103 1447.29,-97 1447.29,-97 1447.29,-85 1447.29,-85 1447.29,-79 1453.29,-73 1459.29,-73 1459.29,-73 1582.29,-73 1582.29,-73 1588.29,-73 1594.29,-79 1594.29,-85 1594.29,-85 1594.29,-97 1594.29,-97 1594.29,-103 1588.29,-109 1582.29,-109"/>
<text text-anchor="middle" x="1520.79" y="-87.3" font-family="Helvetica,sans-Serif" font-size="14.00">Spline Background</text>
</g>
<!-- param_vanadiumSplineCoefficient&#45;&gt;alg_SplineVanadium -->
<g id="edge25" class="edge">
<title>param_vanadiumSplineCoefficient&#45;&gt;alg_SplineVanadium</title>
<path fill="none" stroke="black" d="M1662.41,-146.35C1636.24,-136.31 1602.67,-123.42 1574.78,-112.72"/>
<polygon fill="black" stroke="black" points="1575.77,-109.35 1565.18,-109.04 1573.26,-115.89 1575.77,-109.35"/>
</g>
<!-- alg_Subtract_van_empty -->
<g id="node25" class="node">
<title>alg_Subtract_van_empty</title>
<path fill="lightskyblue" stroke="black" d="M308.79,-794C308.79,-794 120.79,-794 120.79,-794 114.79,-794 108.79,-788 108.79,-782 108.79,-782 108.79,-770 108.79,-770 108.79,-764 114.79,-758 120.79,-758 120.79,-758 308.79,-758 308.79,-758 314.79,-758 320.79,-764 320.79,-770 320.79,-770 320.79,-782 320.79,-782 320.79,-788 314.79,-794 308.79,-794"/>
<text text-anchor="middle" x="214.79" y="-772.3" font-family="Helvetica,sans-Serif" font-size="14.00">Subtract: vanadium &#45; empty</text>
</g>
<!-- proc_LoadCurrentNormWS_1&#45;&gt;alg_Subtract_van_empty -->
<g id="edge7" class="edge">
<title>proc_LoadCurrentNormWS_1&#45;&gt;alg_Subtract_van_empty</title>
<path fill="none" stroke="black" d="M175.95,-884.88C183.48,-863.96 196.31,-828.32 205.15,-803.76"/>
<polygon fill="black" stroke="black" points="208.46,-804.91 208.56,-794.31 201.88,-802.54 208.46,-804.91"/>
</g>
<!-- alg_SaveNexusProcessedEmpty -->
<g id="node22" class="node">
<title>alg_SaveNexusProcessedEmpty</title>
<path fill="lightskyblue" stroke="black" d="M359.79,-867C359.79,-867 259.79,-867 259.79,-867 253.79,-867 247.79,-861 247.79,-855 247.79,-855 247.79,-843 247.79,-843 247.79,-837 253.79,-831 259.79,-831 259.79,-831 359.79,-831 359.79,-831 365.79,-831 371.79,-837 371.79,-843 371.79,-843 371.79,-855 371.79,-855 371.79,-861 365.79,-867 359.79,-867"/>
<text text-anchor="middle" x="309.79" y="-845.3" font-family="Helvetica,sans-Serif" font-size="14.00">Save Nexus file</text>
</g>
<!-- proc_LoadCurrentNormWS_2&#45;&gt;alg_SaveNexusProcessedEmpty -->
<g id="edge6" class="edge">
<title>proc_LoadCurrentNormWS_2&#45;&gt;alg_SaveNexusProcessedEmpty</title>
<path fill="none" stroke="black" d="M330.77,-938.97C326.84,-922.3 320.79,-896.65 316.19,-877.16"/>
<polygon fill="black" stroke="black" points="319.58,-876.27 313.88,-867.34 312.77,-877.88 319.58,-876.27"/>
</g>
<!-- proc_InstApplyAbsorbCorr -->
<g id="node14" class="node">
<title>proc_InstApplyAbsorbCorr</title>
<polygon fill="lightseagreen" stroke="black" points="858.79,-488 550.79,-488 550.79,-452 858.79,-452 858.79,-488"/>
<text text-anchor="middle" x="704.79" y="-466.3" font-family="Helvetica,sans-Serif" font-size="14.00">Inst specific: Apply absorption corrections</text>
</g>
<!-- proc_InstApplyAbsorbCorr&#45;&gt;alg_DiffractionFocusing -->
<g id="edge19" class="edge">
<title>proc_InstApplyAbsorbCorr&#45;&gt;alg_DiffractionFocusing</title>
<path fill="none" stroke="black" d="M750.3,-451.99C777.13,-441.97 811.26,-429.21 839.62,-418.62"/>
<polygon fill="black" stroke="black" points="840.85,-421.89 848.99,-415.11 838.4,-415.34 840.85,-421.89"/>
</g>
<!-- proc_InstMaskPeaks -->
<g id="node15" class="node">
<title>proc_InstMaskPeaks</title>
<polygon fill="lightseagreen" stroke="black" points="1495.29,-182 1178.29,-182 1178.29,-146 1495.29,-146 1495.29,-182"/>
<text text-anchor="middle" x="1336.79" y="-160.3" font-family="Helvetica,sans-Serif" font-size="14.00">Inst specific: Mask peaks in Vanadium data</text>
</g>
<!-- proc_InstMaskPeaks&#45;&gt;alg_SplineVanadium -->
<g id="edge26" class="edge">
<title>proc_InstMaskPeaks&#45;&gt;alg_SplineVanadium</title>
<path fill="none" stroke="black" d="M1380.86,-145.99C1406.73,-136.01 1439.61,-123.32 1467,-112.76"/>
<polygon fill="black" stroke="black" points="1468.37,-115.98 1476.44,-109.11 1465.85,-109.45 1468.37,-115.98"/>
</g>
<!-- proc_InstSaveFocused -->
<g id="node16" class="node">
<title>proc_InstSaveFocused</title>
<polygon fill="lightseagreen" stroke="black" points="1002.79,-328 754.79,-328 754.79,-292 1002.79,-292 1002.79,-328"/>
<text text-anchor="middle" x="878.79" y="-306.3" font-family="Helvetica,sans-Serif" font-size="14.00">Inst specific: Save focused banks</text>
</g>
<!-- alg_Align&#45;&gt;if_apply_absorb -->
<g id="edge14" class="edge">
<title>alg_Align&#45;&gt;if_apply_absorb</title>
<path fill="none" stroke="black" d="M704.73,-611.99C723.19,-601.51 746.9,-588.04 766.02,-577.18"/>
<polygon fill="black" stroke="black" points="767.76,-580.22 774.72,-572.24 764.3,-574.13 767.76,-580.22"/>
</g>
<!-- alg_CropRawTOF&#45;&gt;alg_Align -->
<g id="edge13" class="edge">
<title>alg_CropRawTOF&#45;&gt;alg_Align</title>
<path fill="none" stroke="black" d="M555.39,-684.99C577.08,-675.19 604.55,-662.77 627.66,-652.31"/>
<polygon fill="black" stroke="black" points="629.28,-655.42 636.95,-648.11 626.39,-649.05 629.28,-655.42"/>
</g>
<!-- alg_CropVanTOF&#45;&gt;proc_InstMaskPeaks -->
<g id="edge24" class="edge">
<title>alg_CropVanTOF&#45;&gt;proc_InstMaskPeaks</title>
<path fill="none" stroke="black" d="M1336.79,-218.81C1336.79,-210.79 1336.79,-201.05 1336.79,-192.07"/>
<polygon fill="black" stroke="black" points="1340.29,-192.03 1336.79,-182.03 1333.29,-192.03 1340.29,-192.03"/>
</g>
<!-- alg_DiffractionFocusing&#45;&gt;proc_InstSaveFocused -->
<g id="edge20" class="edge">
<title>alg_DiffractionFocusing&#45;&gt;proc_InstSaveFocused</title>
<path fill="none" stroke="black" d="M891.55,-378.8C889.36,-367.16 886.42,-351.55 883.92,-338.24"/>
<polygon fill="black" stroke="black" points="887.31,-337.36 882.02,-328.18 880.43,-338.65 887.31,-337.36"/>
</g>
<!-- alg_ExtractWsSpectra -->
<g id="node21" class="node">
<title>alg_ExtractWsSpectra</title>
<path fill="lightskyblue" stroke="black" d="M1280.79,-328C1280.79,-328 1032.79,-328 1032.79,-328 1026.79,-328 1020.79,-322 1020.79,-316 1020.79,-316 1020.79,-304 1020.79,-304 1020.79,-298 1026.79,-292 1032.79,-292 1032.79,-292 1280.79,-292 1280.79,-292 1286.79,-292 1292.79,-298 1292.79,-304 1292.79,-304 1292.79,-316 1292.79,-316 1292.79,-322 1286.79,-328 1280.79,-328"/>
<text text-anchor="middle" x="1156.79" y="-306.3" font-family="Helvetica,sans-Serif" font-size="14.00">Extract spectra into individual banks</text>
</g>
<!-- alg_DiffractionFocusing&#45;&gt;alg_ExtractWsSpectra -->
<g id="edge21" class="edge">
<title>alg_DiffractionFocusing&#45;&gt;alg_ExtractWsSpectra</title>
<path fill="none" stroke="black" d="M947.49,-378.9C989.95,-365.13 1049.75,-345.73 1094.56,-331.19"/>
<polygon fill="black" stroke="black" points="1095.74,-334.49 1104.17,-328.07 1093.58,-327.83 1095.74,-334.49"/>
<text text-anchor="middle" x="1133.79" y="-349.8" font-family="Helvetica,sans-Serif" font-size="14.00">Creating vanadium splines</text>
</g>
<!-- alg_ExtractWsSpectra&#45;&gt;alg_CropVanTOF -->
<g id="edge23" class="edge">
<title>alg_ExtractWsSpectra&#45;&gt;alg_CropVanTOF</title>
<path fill="none" stroke="black" d="M1199.9,-291.99C1225.1,-282.06 1257.1,-269.43 1283.82,-258.89"/>
<polygon fill="black" stroke="black" points="1285.38,-262.04 1293.4,-255.11 1282.82,-255.53 1285.38,-262.04"/>
</g>
<!-- alg_SaveNexusProcessedEmpty&#45;&gt;alg_Subtract_van_empty -->
<g id="edge8" class="edge">
<title>alg_SaveNexusProcessedEmpty&#45;&gt;alg_Subtract_van_empty</title>
<path fill="none" stroke="black" d="M286.79,-830.81C274.42,-821.57 259,-810.04 245.61,-800.03"/>
<polygon fill="black" stroke="black" points="247.68,-797.21 237.57,-794.03 243.49,-802.82 247.68,-797.21"/>
</g>
<!-- alg_SaveNexusProcessed -->
<g id="node23" class="node">
<title>alg_SaveNexusProcessed</title>
<path fill="lightskyblue" stroke="black" d="M1570.79,-36C1570.79,-36 1470.79,-36 1470.79,-36 1464.79,-36 1458.79,-30 1458.79,-24 1458.79,-24 1458.79,-12 1458.79,-12 1458.79,-6 1464.79,0 1470.79,0 1470.79,0 1570.79,0 1570.79,0 1576.79,0 1582.79,-6 1582.79,-12 1582.79,-12 1582.79,-24 1582.79,-24 1582.79,-30 1576.79,-36 1570.79,-36"/>
<text text-anchor="middle" x="1520.79" y="-14.3" font-family="Helvetica,sans-Serif" font-size="14.00">Save Nexus file</text>
</g>
<!-- alg_SplineVanadium&#45;&gt;alg_SaveNexusProcessed -->
<g id="edge27" class="edge">
<title>alg_SplineVanadium&#45;&gt;alg_SaveNexusProcessed</title>
<path fill="none" stroke="black" d="M1520.79,-72.81C1520.79,-64.79 1520.79,-55.05 1520.79,-46.07"/>
<polygon fill="black" stroke="black" points="1524.29,-46.03 1520.79,-36.03 1517.29,-46.03 1524.29,-46.03"/>
</g>
<!-- alg_Subtract_van_empty&#45;&gt;alg_CropRawTOF -->
<g id="edge10" class="edge">
<title>alg_Subtract_van_empty&#45;&gt;alg_CropRawTOF</title>
<path fill="none" stroke="black" d="M287.36,-757.99C331.81,-747.58 388.83,-734.22 435.03,-723.39"/>
<polygon fill="black" stroke="black" points="436.08,-726.74 445.02,-721.05 434.48,-719.93 436.08,-726.74"/>
</g>
<!-- if_apply_absorb&#45;&gt;proc_InstApplyAbsorbCorr -->
<g id="edge16" class="edge">
<title>if_apply_absorb&#45;&gt;proc_InstApplyAbsorbCorr</title>
<path fill="none" stroke="black" d="M782.8,-540.8C768.59,-528.08 748.04,-509.7 731.61,-494.99"/>
<polygon fill="black" stroke="black" points="733.7,-492.17 723.91,-488.11 729.03,-497.39 733.7,-492.17"/>
<text text-anchor="middle" x="772.79" y="-509.8" font-family="Helvetica,sans-Serif" font-size="14.00">True</text>
</g>
<!-- if_apply_absorb&#45;&gt;alg_DiffractionFocusing -->
<g id="edge18" class="edge">
<title>if_apply_absorb&#45;&gt;alg_DiffractionFocusing</title>
<path fill="none" stroke="black" d="M819.12,-541.23C834.37,-528.63 855.12,-509.21 867.79,-488 879.38,-468.59 886.33,-443.82 890.27,-425.19"/>
<polygon fill="black" stroke="black" points="893.73,-425.76 892.21,-415.27 886.86,-424.42 893.73,-425.76"/>
<text text-anchor="middle" x="900.79" y="-466.3" font-family="Helvetica,sans-Serif" font-size="14.00">False</text>
</g>
</g>
</svg>
