<?xml version="1.0" encoding="UTF-8" standalone="no"?>
<!DOCTYPE svg PUBLIC "-//W3C//DTD SVG 1.1//EN"
 "http://www.w3.org/Graphics/SVG/1.1/DTD/svg11.dtd">
<!-- Generated by graphviz version 7.0.5 (20221231.0122)
 -->
<!-- Title: isisPowderCreateVanadium Pages: 1 -->
<svg width="2698pt" height="768pt"
 viewBox="0.00 0.00 2697.76 767.74" xmlns="http://www.w3.org/2000/svg" xmlns:xlink="http://www.w3.org/1999/xlink">
<g id="graph0" class="graph" transform="scale(1 1) rotate(0) translate(4 763.74)">
<title>isisPowderCreateVanadium</title>
<polygon fill="white" stroke="none" points="-4,4 -4,-763.74 2693.76,-763.74 2693.76,4 -4,4"/>
<text text-anchor="middle" x="1344.88" y="-744.54" font-family="Helvetica,sans-Serif" font-size="14.00">ISISPowder &#45; PEARL Focus Mode saving</text>
<!-- label_focusModeAllPearl -->
<g id="node1" class="node">
<title>label_focusModeAllPearl</title>
<ellipse fill="lightgrey" stroke="black" cx="292" cy="-709.87" rx="81.79" ry="18"/>
<text text-anchor="middle" x="292" y="-706.17" font-family="Helvetica,sans-Serif" font-size="14.00">Focus mode: All</text>
</g>
<!-- alg_MergeRuns_all -->
<g id="node11" class="node">
<title>alg_MergeRuns_all</title>
<path fill="lightskyblue" stroke="black" d="M206,-645C206,-645 12,-645 12,-645 6,-645 0,-639 0,-633 0,-633 0,-621 0,-621 0,-615 6,-609 12,-609 12,-609 206,-609 206,-609 212,-609 218,-615 218,-621 218,-621 218,-633 218,-633 218,-639 212,-645 206,-645"/>
<text text-anchor="middle" x="109" y="-623.3" font-family="Helvetica,sans-Serif" font-size="14.00">Merge Runs: Banks 1&#45;9 (inc.)</text>
</g>
<!-- label_focusModeAllPearl&#45;&gt;alg_MergeRuns_all -->
<g id="edge1" class="edge">
<title>label_focusModeAllPearl&#45;&gt;alg_MergeRuns_all</title>
<path fill="none" stroke="black" d="M256.72,-693.28C228.81,-680.95 189.53,-663.59 158.48,-649.87"/>
<polygon fill="black" stroke="black" points="160.25,-646.82 149.68,-645.98 157.42,-653.22 160.25,-646.82"/>
</g>
<!-- alg_SaveGss_all -->
<g id="node13" class="node">
<title>alg_SaveGss_all</title>
<path fill="lightskyblue" stroke="black" d="M565.5,-646C565.5,-646 248.5,-646 248.5,-646 242.5,-646 236.5,-640 236.5,-634 236.5,-634 236.5,-620 236.5,-620 236.5,-614 242.5,-608 248.5,-608 248.5,-608 565.5,-608 565.5,-608 571.5,-608 577.5,-614 577.5,-620 577.5,-620 577.5,-634 577.5,-634 577.5,-640 571.5,-646 565.5,-646"/>
<text text-anchor="middle" x="407" y="-630.8" font-family="Helvetica,sans-Serif" font-size="14.00">Save GSS: TOF</text>
<text text-anchor="middle" x="407" y="-615.8" font-family="Helvetica,sans-Serif" font-size="14.00"> Appending banks 10&#45;12 (inc.) to merged runs</text>
</g>
<!-- label_focusModeAllPearl&#45;&gt;alg_SaveGss_all -->
<g id="edge9" class="edge">
<title>label_focusModeAllPearl&#45;&gt;alg_SaveGss_all</title>
<path fill="none" stroke="black" d="M315.55,-692.31C331.78,-680.9 353.63,-665.53 371.9,-652.68"/>
<polygon fill="black" stroke="black" points="373.67,-655.71 379.84,-647.1 369.65,-649.99 373.67,-655.71"/>
</g>
<!-- label_focusModeGroupsPearl -->
<g id="node2" class="node">
<title>label_focusModeGroupsPearl</title>
<ellipse fill="lightgrey" stroke="black" cx="1171" cy="-709.87" rx="102.88" ry="18"/>
<text text-anchor="middle" x="1171" y="-706.17" font-family="Helvetica,sans-Serif" font-size="14.00">Focus mode: Groups</text>
</g>
<!-- alg_MergeRuns_groups -->
<g id="node18" class="node">
<title>alg_MergeRuns_groups</title>
<path fill="lightskyblue" stroke="black" d="M1130,-646C1130,-646 936,-646 936,-646 930,-646 924,-640 924,-634 924,-634 924,-620 924,-620 924,-614 930,-608 936,-608 936,-608 1130,-608 1130,-608 1136,-608 1142,-614 1142,-620 1142,-620 1142,-634 1142,-634 1142,-640 1136,-646 1130,-646"/>
<text text-anchor="middle" x="1033" y="-630.8" font-family="Helvetica,sans-Serif" font-size="14.00">Merge Runs: (1&#45;3)/(4&#45;6)/(7&#45;9)</text>
<text text-anchor="middle" x="1033" y="-615.8" font-family="Helvetica,sans-Serif" font-size="14.00"> All inc.</text>
</g>
<!-- label_focusModeGroupsPearl&#45;&gt;alg_MergeRuns_groups -->
<g id="edge11" class="edge">
<title>label_focusModeGroupsPearl&#45;&gt;alg_MergeRuns_groups</title>
<path fill="none" stroke="black" d="M1142.41,-692.11C1122.69,-680.56 1096.18,-665.02 1074.19,-652.14"/>
<polygon fill="black" stroke="black" points="1076.15,-649.23 1065.75,-647.19 1072.61,-655.27 1076.15,-649.23"/>
</g>
<!-- alg_SaveGss_groups -->
<g id="node22" class="node">
<title>alg_SaveGss_groups</title>
<path fill="lightskyblue" stroke="black" d="M1511.5,-646C1511.5,-646 1194.5,-646 1194.5,-646 1188.5,-646 1182.5,-640 1182.5,-634 1182.5,-634 1182.5,-620 1182.5,-620 1182.5,-614 1188.5,-608 1194.5,-608 1194.5,-608 1511.5,-608 1511.5,-608 1517.5,-608 1523.5,-614 1523.5,-620 1523.5,-620 1523.5,-634 1523.5,-634 1523.5,-640 1517.5,-646 1511.5,-646"/>
<text text-anchor="middle" x="1353" y="-630.8" font-family="Helvetica,sans-Serif" font-size="14.00">Save GSS: TOF</text>
<text text-anchor="middle" x="1353" y="-615.8" font-family="Helvetica,sans-Serif" font-size="14.00"> Appending banks 10&#45;14 (inc.) to merged runs</text>
</g>
<!-- label_focusModeGroupsPearl&#45;&gt;alg_SaveGss_groups -->
<g id="edge18" class="edge">
<title>label_focusModeGroupsPearl&#45;&gt;alg_SaveGss_groups</title>
<path fill="none" stroke="black" d="M1207.39,-692.7C1234.3,-680.74 1271.32,-664.29 1301.3,-650.97"/>
<polygon fill="black" stroke="black" points="1302.48,-654.28 1310.2,-647.02 1299.64,-647.88 1302.48,-654.28"/>
</g>
<!-- label_focusModeModsPearl -->
<g id="node3" class="node">
<title>label_focusModeModsPearl</title>
<ellipse fill="lightgrey" stroke="black" cx="1670" cy="-709.87" rx="94.78" ry="18"/>
<text text-anchor="middle" x="1670" y="-706.17" font-family="Helvetica,sans-Serif" font-size="14.00">Focus mode: Mods</text>
</g>
<!-- alg_SaveGss_mods -->
<g id="node25" class="node">
<title>alg_SaveGss_mods</title>
<path fill="lightskyblue" stroke="black" d="M1764.5,-646C1764.5,-646 1575.5,-646 1575.5,-646 1569.5,-646 1563.5,-640 1563.5,-634 1563.5,-634 1563.5,-620 1563.5,-620 1563.5,-614 1569.5,-608 1575.5,-608 1575.5,-608 1764.5,-608 1764.5,-608 1770.5,-608 1776.5,-614 1776.5,-620 1776.5,-620 1776.5,-634 1776.5,-634 1776.5,-640 1770.5,-646 1764.5,-646"/>
<text text-anchor="middle" x="1670" y="-630.8" font-family="Helvetica,sans-Serif" font-size="14.00">Save GSS: TOF</text>
<text text-anchor="middle" x="1670" y="-615.8" font-family="Helvetica,sans-Serif" font-size="14.00"> Appending each workspace</text>
</g>
<!-- label_focusModeModsPearl&#45;&gt;alg_SaveGss_mods -->
<g id="edge20" class="edge">
<title>label_focusModeModsPearl&#45;&gt;alg_SaveGss_mods</title>
<path fill="none" stroke="black" d="M1670,-691.72C1670,-681.81 1670,-669.07 1670,-657.59"/>
<polygon fill="black" stroke="black" points="1673.5,-657.76 1670,-647.76 1666.5,-657.76 1673.5,-657.76"/>
</g>
<!-- label_focusModeTransPearl -->
<g id="node4" class="node">
<title>label_focusModeTransPearl</title>
<ellipse fill="lightgrey" stroke="black" cx="1904" cy="-709.87" rx="94.78" ry="18"/>
<text text-anchor="middle" x="1904" y="-706.17" font-family="Helvetica,sans-Serif" font-size="14.00">Focus mode: Trans</text>
</g>
<!-- alg_MergeRuns_trans -->
<g id="node27" class="node">
<title>alg_MergeRuns_trans</title>
<path fill="lightskyblue" stroke="black" d="M2001,-645C2001,-645 1807,-645 1807,-645 1801,-645 1795,-639 1795,-633 1795,-633 1795,-621 1795,-621 1795,-615 1801,-609 1807,-609 1807,-609 2001,-609 2001,-609 2007,-609 2013,-615 2013,-621 2013,-621 2013,-633 2013,-633 2013,-639 2007,-645 2001,-645"/>
<text text-anchor="middle" x="1904" y="-623.3" font-family="Helvetica,sans-Serif" font-size="14.00">Merge Runs: Banks 1&#45;9 (inc.)</text>
</g>
<!-- label_focusModeTransPearl&#45;&gt;alg_MergeRuns_trans -->
<g id="edge22" class="edge">
<title>label_focusModeTransPearl&#45;&gt;alg_MergeRuns_trans</title>
<path fill="none" stroke="black" d="M1904,-691.72C1904,-681.6 1904,-668.54 1904,-656.87"/>
<polygon fill="black" stroke="black" points="1907.5,-656.92 1904,-646.92 1900.5,-656.92 1907.5,-656.92"/>
</g>
<!-- label_attenuateWorkspacePearl -->
<g id="node5" class="node">
<title>label_attenuateWorkspacePearl</title>
<ellipse fill="lightgrey" stroke="black" cx="2234" cy="-709.87" rx="107.78" ry="18"/>
<text text-anchor="middle" x="2234" y="-706.17" font-family="Helvetica,sans-Serif" font-size="14.00">Attenuate Workspace</text>
</g>
<!-- alg_PearlMCAbsorption -->
<g id="node38" class="node">
<title>alg_PearlMCAbsorption</title>
<path fill="lightskyblue" stroke="black" d="M2416.5,-645C2416.5,-645 2291.5,-645 2291.5,-645 2285.5,-645 2279.5,-639 2279.5,-633 2279.5,-633 2279.5,-621 2279.5,-621 2279.5,-615 2285.5,-609 2291.5,-609 2291.5,-609 2416.5,-609 2416.5,-609 2422.5,-609 2428.5,-615 2428.5,-621 2428.5,-621 2428.5,-633 2428.5,-633 2428.5,-639 2422.5,-645 2416.5,-645"/>
<text text-anchor="middle" x="2354" y="-623.3" font-family="Helvetica,sans-Serif" font-size="14.00">PearlMCAbsorption</text>
</g>
<!-- label_attenuateWorkspacePearl&#45;&gt;alg_PearlMCAbsorption -->
<g id="edge33" class="edge">
<title>label_attenuateWorkspacePearl&#45;&gt;alg_PearlMCAbsorption</title>
<path fill="none" stroke="black" d="M2259.16,-691.92C2276.44,-680.27 2299.63,-664.64 2318.75,-651.75"/>
<polygon fill="black" stroke="black" points="2320.46,-654.83 2326.79,-646.34 2316.54,-649.02 2320.46,-654.83"/>
</g>
<!-- param_attenuatePearl_all -->
<g id="node6" class="node">
<title>param_attenuatePearl_all</title>
<ellipse fill="khaki" stroke="black" cx="706" cy="-552" rx="113.18" ry="18"/>
<text text-anchor="middle" x="706" y="-548.3" font-family="Helvetica,sans-Serif" font-size="14.00">User param: attenuate</text>
</g>
<!-- if_attenuatePearl_all -->
<g id="node40" class="node">
<title>if_attenuatePearl_all</title>
<polygon fill="limegreen" stroke="black" points="694,-495 601.33,-477 694,-459 786.67,-477 694,-495"/>
<text text-anchor="middle" x="694" y="-473.3" font-family="Helvetica,sans-Serif" font-size="14.00">If: attenuate</text>
</g>
<!-- param_attenuatePearl_all&#45;&gt;if_attenuatePearl_all -->
<g id="edge4" class="edge">
<title>param_attenuatePearl_all&#45;&gt;if_attenuatePearl_all</title>
<path fill="none" stroke="black" d="M703.16,-533.7C701.8,-525.46 700.15,-515.39 698.62,-506.09"/>
<polygon fill="black" stroke="black" points="702.1,-505.72 697.03,-496.42 695.2,-506.85 702.1,-505.72"/>
</g>
<!-- param_attenuatePearl_trans -->
<g id="node7" class="node">
<title>param_attenuatePearl_trans</title>
<ellipse fill="khaki" stroke="black" cx="2128" cy="-552" rx="113.18" ry="18"/>
<text text-anchor="middle" x="2128" y="-548.3" font-family="Helvetica,sans-Serif" font-size="14.00">User param: attenuate</text>
</g>
<!-- if_attenuatePearl_trans -->
<g id="node41" class="node">
<title>if_attenuatePearl_trans</title>
<polygon fill="limegreen" stroke="black" points="2025,-495 1932.33,-477 2025,-459 2117.67,-477 2025,-495"/>
<text text-anchor="middle" x="2025" y="-473.3" font-family="Helvetica,sans-Serif" font-size="14.00">If: attenuate</text>
</g>
<!-- param_attenuatePearl_trans&#45;&gt;if_attenuatePearl_trans -->
<g id="edge25" class="edge">
<title>param_attenuatePearl_trans&#45;&gt;if_attenuatePearl_trans</title>
<path fill="none" stroke="black" d="M2104.11,-534.07C2089.05,-523.4 2069.52,-509.55 2053.63,-498.29"/>
<polygon fill="black" stroke="black" points="2055.7,-495.47 2045.52,-492.54 2051.65,-501.18 2055.7,-495.47"/>
</g>
<!-- param_attenuatePearlFilePath -->
<g id="node8" class="node">
<title>param_attenuatePearlFilePath</title>
<ellipse fill="khaki" stroke="black" cx="2525" cy="-709.87" rx="164.51" ry="26.74"/>
<text text-anchor="middle" x="2525" y="-713.67" font-family="Helvetica,sans-Serif" font-size="14.00">User param:</text>
<text text-anchor="middle" x="2525" y="-698.67" font-family="Helvetica,sans-Serif" font-size="14.00"> Full file path to attenuation file</text>
</g>
<!-- param_attenuatePearlFilePath&#45;&gt;alg_PearlMCAbsorption -->
<g id="edge34" class="edge">
<title>param_attenuatePearlFilePath&#45;&gt;alg_PearlMCAbsorption</title>
<path fill="none" stroke="black" d="M2472.77,-684.17C2449.87,-673.34 2423.21,-660.73 2400.95,-650.21"/>
<polygon fill="black" stroke="black" points="2402.65,-647.13 2392.11,-646.02 2399.65,-653.46 2402.65,-647.13"/>
</g>
<!-- proc_attenuatePearl_all -->
<g id="node9" class="node">
<title>proc_attenuatePearl_all</title>
<polygon fill="lightseagreen" stroke="black" points="777.5,-406 570.5,-406 570.5,-370 777.5,-370 777.5,-406"/>
<text text-anchor="middle" x="674" y="-384.3" font-family="Helvetica,sans-Serif" font-size="14.00">Pearl: Attenuate workspace</text>
</g>
<!-- alg_SaveGssSummed_all -->
<g id="node14" class="node">
<title>alg_SaveGssSummed_all</title>
<path fill="lightskyblue" stroke="black" d="M768,-332C768,-332 672,-332 672,-332 666,-332 660,-326 660,-320 660,-320 660,-308 660,-308 660,-302 666,-296 672,-296 672,-296 768,-296 768,-296 774,-296 780,-302 780,-308 780,-308 780,-320 780,-320 780,-326 774,-332 768,-332"/>
<text text-anchor="middle" x="720" y="-310.3" font-family="Helvetica,sans-Serif" font-size="14.00">Save GSS: TOF</text>
</g>
<!-- proc_attenuatePearl_all&#45;&gt;alg_SaveGssSummed_all -->
<g id="edge6" class="edge">
<title>proc_attenuatePearl_all&#45;&gt;alg_SaveGssSummed_all</title>
<path fill="none" stroke="black" d="M685.14,-369.57C690.45,-361.26 696.92,-351.12 702.84,-341.86"/>
<polygon fill="black" stroke="black" points="705.72,-343.86 708.15,-333.54 699.82,-340.09 705.72,-343.86"/>
</g>
<!-- proc_attenuatePearl_trans -->
<g id="node10" class="node">
<title>proc_attenuatePearl_trans</title>
<polygon fill="lightseagreen" stroke="black" points="2061.5,-406 1854.5,-406 1854.5,-370 2061.5,-370 2061.5,-406"/>
<text text-anchor="middle" x="1958" y="-384.3" font-family="Helvetica,sans-Serif" font-size="14.00">Pearl: Attenuate workspace</text>
</g>
<!-- alg_SaveGssSummed_trans -->
<g id="node29" class="node">
<title>alg_SaveGssSummed_trans</title>
<path fill="lightskyblue" stroke="black" d="M2076,-332C2076,-332 1980,-332 1980,-332 1974,-332 1968,-326 1968,-320 1968,-320 1968,-308 1968,-308 1968,-302 1974,-296 1980,-296 1980,-296 2076,-296 2076,-296 2082,-296 2088,-302 2088,-308 2088,-308 2088,-320 2088,-320 2088,-326 2082,-332 2076,-332"/>
<text text-anchor="middle" x="2028" y="-310.3" font-family="Helvetica,sans-Serif" font-size="14.00">Save GSS: TOF</text>
</g>
<!-- proc_attenuatePearl_trans&#45;&gt;alg_SaveGssSummed_trans -->
<g id="edge28" class="edge">
<title>proc_attenuatePearl_trans&#45;&gt;alg_SaveGssSummed_trans</title>
<path fill="none" stroke="black" d="M1974.95,-369.57C1983.46,-360.82 1993.93,-350.04 2003.32,-340.39"/>
<polygon fill="black" stroke="black" points="2005.69,-342.96 2010.16,-333.35 2000.68,-338.08 2005.69,-342.96"/>
</g>
<!-- alg_Scale_all -->
<g id="node12" class="node">
<title>alg_Scale_all</title>
<path fill="lightskyblue" stroke="black" d="M201.5,-570C201.5,-570 40.5,-570 40.5,-570 34.5,-570 28.5,-564 28.5,-558 28.5,-558 28.5,-546 28.5,-546 28.5,-540 34.5,-534 40.5,-534 40.5,-534 201.5,-534 201.5,-534 207.5,-534 213.5,-540 213.5,-546 213.5,-546 213.5,-558 213.5,-558 213.5,-564 207.5,-570 201.5,-570"/>
<text text-anchor="middle" x="121" y="-548.3" font-family="Helvetica,sans-Serif" font-size="14.00">Scale: 0.11111111 (1/9)</text>
</g>
<!-- alg_MergeRuns_all&#45;&gt;alg_Scale_all -->
<g id="edge2" class="edge">
<title>alg_MergeRuns_all&#45;&gt;alg_Scale_all</title>
<path fill="none" stroke="black" d="M111.84,-608.7C113.18,-600.58 114.81,-590.68 116.32,-581.5"/>
<polygon fill="black" stroke="black" points="119.72,-582.36 117.89,-571.92 112.81,-581.22 119.72,-582.36"/>
</g>
<!-- alg_Scale_all&#45;&gt;if_attenuatePearl_all -->
<g id="edge3" class="edge">
<title>alg_Scale_all&#45;&gt;if_attenuatePearl_all</title>
<path fill="none" stroke="black" d="M213.88,-534.52C217.3,-533.99 220.68,-533.48 224,-533 365.11,-512.43 530.94,-494.47 623.09,-485.04"/>
<polygon fill="black" stroke="black" points="623.4,-488.52 633,-484.03 622.69,-481.56 623.4,-488.52"/>
</g>
<!-- alg_SaveNexusProcessed_all -->
<g id="node16" class="node">
<title>alg_SaveNexusProcessed_all</title>
<path fill="lightskyblue" stroke="black" d="M562.5,-571C562.5,-571 245.5,-571 245.5,-571 239.5,-571 233.5,-565 233.5,-559 233.5,-559 233.5,-545 233.5,-545 233.5,-539 239.5,-533 245.5,-533 245.5,-533 562.5,-533 562.5,-533 568.5,-533 574.5,-539 574.5,-545 574.5,-545 574.5,-559 574.5,-559 574.5,-565 568.5,-571 562.5,-571"/>
<text text-anchor="middle" x="404" y="-555.8" font-family="Helvetica,sans-Serif" font-size="14.00">Save Nexus Processed: dSpacing</text>
<text text-anchor="middle" x="404" y="-540.8" font-family="Helvetica,sans-Serif" font-size="14.00"> Appending banks 10&#45;12 (inc.) to merged runs</text>
</g>
<!-- alg_SaveGss_all&#45;&gt;alg_SaveNexusProcessed_all -->
<g id="edge10" class="edge">
<title>alg_SaveGss_all&#45;&gt;alg_SaveNexusProcessed_all</title>
<path fill="none" stroke="black" d="M406.24,-607.58C405.93,-600.06 405.57,-591.17 405.22,-582.77"/>
<polygon fill="black" stroke="black" points="408.73,-582.78 404.82,-572.93 401.73,-583.06 408.73,-582.78"/>
</g>
<!-- alg_SaveNexusProcessedSummed_all -->
<g id="node15" class="node">
<title>alg_SaveNexusProcessedSummed_all</title>
<path fill="lightskyblue" stroke="black" d="M831,-258C831,-258 609,-258 609,-258 603,-258 597,-252 597,-246 597,-246 597,-234 597,-234 597,-228 603,-222 609,-222 609,-222 831,-222 831,-222 837,-222 843,-228 843,-234 843,-234 843,-246 843,-246 843,-252 837,-258 831,-258"/>
<text text-anchor="middle" x="720" y="-236.3" font-family="Helvetica,sans-Serif" font-size="14.00">Save Nexus Processed: dSpacing</text>
</g>
<!-- alg_SaveGssSummed_all&#45;&gt;alg_SaveNexusProcessedSummed_all -->
<g id="edge8" class="edge">
<title>alg_SaveGssSummed_all&#45;&gt;alg_SaveNexusProcessedSummed_all</title>
<path fill="none" stroke="black" d="M720,-295.57C720,-287.79 720,-278.41 720,-269.64"/>
<polygon fill="black" stroke="black" points="723.5,-269.78 720,-259.78 716.5,-269.78 723.5,-269.78"/>
</g>
<!-- alg_Plus_groups -->
<g id="node17" class="node">
<title>alg_Plus_groups</title>
<path fill="lightskyblue" stroke="black" d="M1016,-495C1016,-495 858,-495 858,-495 852,-495 846,-489 846,-483 846,-483 846,-471 846,-471 846,-465 852,-459 858,-459 858,-459 1016,-459 1016,-459 1022,-459 1028,-465 1028,-471 1028,-471 1028,-483 1028,-483 1028,-489 1022,-495 1016,-495"/>
<text text-anchor="middle" x="937" y="-473.3" font-family="Helvetica,sans-Serif" font-size="14.00">Plus: Runs (4&#45;6) + (7&#45;9)</text>
</g>
<!-- alg_ScaleHalf_groups -->
<g id="node20" class="node">
<title>alg_ScaleHalf_groups</title>
<path fill="lightskyblue" stroke="black" d="M1008,-406C1008,-406 910,-406 910,-406 904,-406 898,-400 898,-394 898,-394 898,-382 898,-382 898,-376 904,-370 910,-370 910,-370 1008,-370 1008,-370 1014,-370 1020,-376 1020,-382 1020,-382 1020,-394 1020,-394 1020,-400 1014,-406 1008,-406"/>
<text text-anchor="middle" x="959" y="-384.3" font-family="Helvetica,sans-Serif" font-size="14.00">Scale: 0.5 (1/2)</text>
</g>
<!-- alg_Plus_groups&#45;&gt;alg_ScaleHalf_groups -->
<g id="edge14" class="edge">
<title>alg_Plus_groups&#45;&gt;alg_ScaleHalf_groups</title>
<path fill="none" stroke="black" d="M941.35,-458.81C944.34,-446.97 948.39,-430.97 951.85,-417.27"/>
<polygon fill="black" stroke="black" points="955.16,-418.47 954.22,-407.92 948.37,-416.75 955.16,-418.47"/>
</g>
<!-- alg_Scale_groups -->
<g id="node19" class="node">
<title>alg_Scale_groups</title>
<path fill="lightskyblue" stroke="black" d="M1157,-570C1157,-570 875,-570 875,-570 869,-570 863,-564 863,-558 863,-558 863,-546 863,-546 863,-540 869,-534 875,-534 875,-534 1157,-534 1157,-534 1163,-534 1169,-540 1169,-546 1169,-546 1169,-558 1169,-558 1169,-564 1163,-570 1157,-570"/>
<text text-anchor="middle" x="1016" y="-548.3" font-family="Helvetica,sans-Serif" font-size="14.00">Scale: Each workspace by 0.333333 (1/3)</text>
</g>
<!-- alg_MergeRuns_groups&#45;&gt;alg_Scale_groups -->
<g id="edge12" class="edge">
<title>alg_MergeRuns_groups&#45;&gt;alg_Scale_groups</title>
<path fill="none" stroke="black" d="M1028.71,-607.58C1026.86,-599.65 1024.66,-590.2 1022.61,-581.4"/>
<polygon fill="black" stroke="black" points="1026.07,-580.83 1020.4,-571.88 1019.26,-582.42 1026.07,-580.83"/>
</g>
<!-- alg_Scale_groups&#45;&gt;alg_Plus_groups -->
<g id="edge13" class="edge">
<title>alg_Scale_groups&#45;&gt;alg_Plus_groups</title>
<path fill="none" stroke="black" d="M997.28,-533.7C987.41,-524.58 975.13,-513.24 964.23,-503.16"/>
<polygon fill="black" stroke="black" points="966.69,-500.67 956.97,-496.46 961.94,-505.81 966.69,-500.67"/>
</g>
<!-- alg_SaveGssSummed_groups -->
<g id="node21" class="node">
<title>alg_SaveGssSummed_groups</title>
<path fill="lightskyblue" stroke="black" d="M1087,-332C1087,-332 991,-332 991,-332 985,-332 979,-326 979,-320 979,-320 979,-308 979,-308 979,-302 985,-296 991,-296 991,-296 1087,-296 1087,-296 1093,-296 1099,-302 1099,-308 1099,-308 1099,-320 1099,-320 1099,-326 1093,-332 1087,-332"/>
<text text-anchor="middle" x="1039" y="-310.3" font-family="Helvetica,sans-Serif" font-size="14.00">Save GSS: TOF</text>
</g>
<!-- alg_Scale_groups&#45;&gt;alg_SaveGssSummed_groups -->
<g id="edge15" class="edge">
<title>alg_Scale_groups&#45;&gt;alg_SaveGssSummed_groups</title>
<path fill="none" stroke="black" d="M1024.45,-533.63C1029.14,-523.03 1034.52,-509.05 1037,-496 1047.1,-442.88 1044.53,-379.41 1041.75,-343.49"/>
<polygon fill="black" stroke="black" points="1045.28,-343.6 1040.95,-333.93 1038.3,-344.19 1045.28,-343.6"/>
</g>
<!-- alg_ScaleHalf_groups&#45;&gt;alg_SaveGssSummed_groups -->
<g id="edge16" class="edge">
<title>alg_ScaleHalf_groups&#45;&gt;alg_SaveGssSummed_groups</title>
<path fill="none" stroke="black" d="M978.37,-369.57C988.29,-360.64 1000.55,-349.61 1011.44,-339.8"/>
<polygon fill="black" stroke="black" points="1013.6,-342.57 1018.69,-333.28 1008.91,-337.37 1013.6,-342.57"/>
</g>
<!-- alg_SaveNexusProcessedSummed_groups -->
<g id="node23" class="node">
<title>alg_SaveNexusProcessedSummed_groups</title>
<path fill="lightskyblue" stroke="black" d="M1150,-258C1150,-258 928,-258 928,-258 922,-258 916,-252 916,-246 916,-246 916,-234 916,-234 916,-228 922,-222 928,-222 928,-222 1150,-222 1150,-222 1156,-222 1162,-228 1162,-234 1162,-234 1162,-246 1162,-246 1162,-252 1156,-258 1150,-258"/>
<text text-anchor="middle" x="1039" y="-236.3" font-family="Helvetica,sans-Serif" font-size="14.00">Save Nexus Processed: dSpacing</text>
</g>
<!-- alg_SaveGssSummed_groups&#45;&gt;alg_SaveNexusProcessedSummed_groups -->
<g id="edge17" class="edge">
<title>alg_SaveGssSummed_groups&#45;&gt;alg_SaveNexusProcessedSummed_groups</title>
<path fill="none" stroke="black" d="M1039,-295.57C1039,-287.79 1039,-278.41 1039,-269.64"/>
<polygon fill="black" stroke="black" points="1042.5,-269.78 1039,-259.78 1035.5,-269.78 1042.5,-269.78"/>
</g>
<!-- alg_SaveNexusProcessed_groups -->
<g id="node24" class="node">
<title>alg_SaveNexusProcessed_groups</title>
<path fill="lightskyblue" stroke="black" d="M1516.5,-571C1516.5,-571 1199.5,-571 1199.5,-571 1193.5,-571 1187.5,-565 1187.5,-559 1187.5,-559 1187.5,-545 1187.5,-545 1187.5,-539 1193.5,-533 1199.5,-533 1199.5,-533 1516.5,-533 1516.5,-533 1522.5,-533 1528.5,-539 1528.5,-545 1528.5,-545 1528.5,-559 1528.5,-559 1528.5,-565 1522.5,-571 1516.5,-571"/>
<text text-anchor="middle" x="1358" y="-555.8" font-family="Helvetica,sans-Serif" font-size="14.00">Save Nexus Processed: dSpacing</text>
<text text-anchor="middle" x="1358" y="-540.8" font-family="Helvetica,sans-Serif" font-size="14.00"> Appending banks 10&#45;14 (inc.) to merged runs</text>
</g>
<!-- alg_SaveGss_groups&#45;&gt;alg_SaveNexusProcessed_groups -->
<g id="edge19" class="edge">
<title>alg_SaveGss_groups&#45;&gt;alg_SaveNexusProcessed_groups</title>
<path fill="none" stroke="black" d="M1354.26,-607.58C1354.78,-600.06 1355.39,-591.17 1355.96,-582.77"/>
<polygon fill="black" stroke="black" points="1359.44,-583.14 1356.64,-572.93 1352.46,-582.66 1359.44,-583.14"/>
</g>
<!-- alg_SaveNexusProcessed_mods -->
<g id="node26" class="node">
<title>alg_SaveNexusProcessed_mods</title>
<path fill="lightskyblue" stroke="black" d="M1781,-571C1781,-571 1559,-571 1559,-571 1553,-571 1547,-565 1547,-559 1547,-559 1547,-545 1547,-545 1547,-539 1553,-533 1559,-533 1559,-533 1781,-533 1781,-533 1787,-533 1793,-539 1793,-545 1793,-545 1793,-559 1793,-559 1793,-565 1787,-571 1781,-571"/>
<text text-anchor="middle" x="1670" y="-555.8" font-family="Helvetica,sans-Serif" font-size="14.00">Save Nexus Processed: dSpacing</text>
<text text-anchor="middle" x="1670" y="-540.8" font-family="Helvetica,sans-Serif" font-size="14.00"> Appending each workspace</text>
</g>
<!-- alg_SaveGss_mods&#45;&gt;alg_SaveNexusProcessed_mods -->
<g id="edge21" class="edge">
<title>alg_SaveGss_mods&#45;&gt;alg_SaveNexusProcessed_mods</title>
<path fill="none" stroke="black" d="M1670,-607.58C1670,-600.06 1670,-591.17 1670,-582.77"/>
<polygon fill="black" stroke="black" points="1673.5,-582.93 1670,-572.93 1666.5,-582.93 1673.5,-582.93"/>
</g>
<!-- alg_Scale_trans -->
<g id="node28" class="node">
<title>alg_Scale_trans</title>
<path fill="lightskyblue" stroke="black" d="M1984.5,-570C1984.5,-570 1823.5,-570 1823.5,-570 1817.5,-570 1811.5,-564 1811.5,-558 1811.5,-558 1811.5,-546 1811.5,-546 1811.5,-540 1817.5,-534 1823.5,-534 1823.5,-534 1984.5,-534 1984.5,-534 1990.5,-534 1996.5,-540 1996.5,-546 1996.5,-546 1996.5,-558 1996.5,-558 1996.5,-564 1990.5,-570 1984.5,-570"/>
<text text-anchor="middle" x="1904" y="-548.3" font-family="Helvetica,sans-Serif" font-size="14.00">Scale: 0.11111111 (1/9)</text>
</g>
<!-- alg_MergeRuns_trans&#45;&gt;alg_Scale_trans -->
<g id="edge23" class="edge">
<title>alg_MergeRuns_trans&#45;&gt;alg_Scale_trans</title>
<path fill="none" stroke="black" d="M1904,-608.7C1904,-600.67 1904,-590.9 1904,-581.8"/>
<polygon fill="black" stroke="black" points="1907.5,-581.94 1904,-571.94 1900.5,-581.94 1907.5,-581.94"/>
</g>
<!-- alg_Scale_trans&#45;&gt;if_attenuatePearl_trans -->
<g id="edge24" class="edge">
<title>alg_Scale_trans&#45;&gt;if_attenuatePearl_trans</title>
<path fill="none" stroke="black" d="M1932.98,-533.51C1951.15,-522.55 1974.58,-508.42 1993.25,-497.15"/>
<polygon fill="black" stroke="black" points="1995.02,-500.17 2001.78,-492.01 1991.41,-494.18 1995.02,-500.17"/>
</g>
<!-- alg_SaveFocusedXyeTOFSummed_trans -->
<g id="node31" class="node">
<title>alg_SaveFocusedXyeTOFSummed_trans</title>
<path fill="lightskyblue" stroke="black" d="M2106,-258C2106,-258 1950,-258 1950,-258 1944,-258 1938,-252 1938,-246 1938,-246 1938,-234 1938,-234 1938,-228 1944,-222 1950,-222 1950,-222 2106,-222 2106,-222 2112,-222 2118,-228 2118,-234 2118,-234 2118,-246 2118,-246 2118,-252 2112,-258 2106,-258"/>
<text text-anchor="middle" x="2028" y="-236.3" font-family="Helvetica,sans-Serif" font-size="14.00">Save Focused XYE: TOF</text>
</g>
<!-- alg_SaveGssSummed_trans&#45;&gt;alg_SaveFocusedXyeTOFSummed_trans -->
<g id="edge29" class="edge">
<title>alg_SaveGssSummed_trans&#45;&gt;alg_SaveFocusedXyeTOFSummed_trans</title>
<path fill="none" stroke="black" d="M2028,-295.57C2028,-287.79 2028,-278.41 2028,-269.64"/>
<polygon fill="black" stroke="black" points="2031.5,-269.78 2028,-259.78 2024.5,-269.78 2031.5,-269.78"/>
</g>
<!-- alg_SaveFocusedXyeDSummed_trans -->
<g id="node30" class="node">
<title>alg_SaveFocusedXyeDSummed_trans</title>
<path fill="lightskyblue" stroke="black" d="M2124.5,-184C2124.5,-184 1931.5,-184 1931.5,-184 1925.5,-184 1919.5,-178 1919.5,-172 1919.5,-172 1919.5,-160 1919.5,-160 1919.5,-154 1925.5,-148 1931.5,-148 1931.5,-148 2124.5,-148 2124.5,-148 2130.5,-148 2136.5,-154 2136.5,-160 2136.5,-160 2136.5,-172 2136.5,-172 2136.5,-178 2130.5,-184 2124.5,-184"/>
<text text-anchor="middle" x="2028" y="-162.3" font-family="Helvetica,sans-Serif" font-size="14.00">Save Focused XYE: dSpacing</text>
</g>
<!-- alg_SaveNexusProcessedSummed_trans -->
<g id="node32" class="node">
<title>alg_SaveNexusProcessedSummed_trans</title>
<path fill="lightskyblue" stroke="black" d="M2139,-111C2139,-111 1917,-111 1917,-111 1911,-111 1905,-105 1905,-99 1905,-99 1905,-87 1905,-87 1905,-81 1911,-75 1917,-75 1917,-75 2139,-75 2139,-75 2145,-75 2151,-81 2151,-87 2151,-87 2151,-99 2151,-99 2151,-105 2145,-111 2139,-111"/>
<text text-anchor="middle" x="2028" y="-89.3" font-family="Helvetica,sans-Serif" font-size="14.00">Save Nexus Processed: dSpacing</text>
</g>
<!-- alg_SaveFocusedXyeDSummed_trans&#45;&gt;alg_SaveNexusProcessedSummed_trans -->
<g id="edge31" class="edge">
<title>alg_SaveFocusedXyeDSummed_trans&#45;&gt;alg_SaveNexusProcessedSummed_trans</title>
<path fill="none" stroke="black" d="M2028,-147.81C2028,-140.23 2028,-131.1 2028,-122.54"/>
<polygon fill="black" stroke="black" points="2031.5,-122.54 2028,-112.54 2024.5,-122.54 2031.5,-122.54"/>
</g>
<!-- alg_SaveFocusedXyeTOFSummed_trans&#45;&gt;alg_SaveFocusedXyeDSummed_trans -->
<g id="edge30" class="edge">
<title>alg_SaveFocusedXyeTOFSummed_trans&#45;&gt;alg_SaveFocusedXyeDSummed_trans</title>
<path fill="none" stroke="black" d="M2028,-221.57C2028,-213.79 2028,-204.41 2028,-195.64"/>
<polygon fill="black" stroke="black" points="2031.5,-195.78 2028,-185.78 2024.5,-195.78 2031.5,-195.78"/>
</g>
<!-- alg_SaveNexusProcessed_trans -->
<g id="node33" class="node">
<title>alg_SaveNexusProcessed_trans</title>
<path fill="lightskyblue" stroke="black" d="M2182,-38C2182,-38 1874,-38 1874,-38 1868,-38 1862,-32 1862,-26 1862,-26 1862,-12 1862,-12 1862,-6 1868,0 1874,0 1874,0 2182,0 2182,0 2188,0 2194,-6 2194,-12 2194,-12 2194,-26 2194,-26 2194,-32 2188,-38 2182,-38"/>
<text text-anchor="middle" x="2028" y="-22.8" font-family="Helvetica,sans-Serif" font-size="14.00">Save Nexus Processed: dSpacing</text>
<text text-anchor="middle" x="2028" y="-7.8" font-family="Helvetica,sans-Serif" font-size="14.00"> Appending banks 1&#45;10 (inc.) to merged runs</text>
</g>
<!-- alg_SaveNexusProcessedSummed_trans&#45;&gt;alg_SaveNexusProcessed_trans -->
<g id="edge32" class="edge">
<title>alg_SaveNexusProcessedSummed_trans&#45;&gt;alg_SaveNexusProcessed_trans</title>
<path fill="none" stroke="black" d="M2028,-74.57C2028,-67.1 2028,-58.17 2028,-49.71"/>
<polygon fill="black" stroke="black" points="2031.5,-49.79 2028,-39.79 2024.5,-49.79 2031.5,-49.79"/>
</g>
<!-- alg_ConvertToHistogram -->
<g id="node34" class="node">
<title>alg_ConvertToHistogram</title>
<path fill="lightskyblue" stroke="black" d="M2425.5,-570C2425.5,-570 2282.5,-570 2282.5,-570 2276.5,-570 2270.5,-564 2270.5,-558 2270.5,-558 2270.5,-546 2270.5,-546 2270.5,-540 2276.5,-534 2282.5,-534 2282.5,-534 2425.5,-534 2425.5,-534 2431.5,-534 2437.5,-540 2437.5,-546 2437.5,-546 2437.5,-558 2437.5,-558 2437.5,-564 2431.5,-570 2425.5,-570"/>
<text text-anchor="middle" x="2354" y="-548.3" font-family="Helvetica,sans-Serif" font-size="14.00">Convert To Histogram</text>
</g>
<!-- alg_ConvertUnits -->
<g id="node35" class="node">
<title>alg_ConvertUnits</title>
<path fill="lightskyblue" stroke="black" d="M2494,-496C2494,-496 2214,-496 2214,-496 2208,-496 2202,-490 2202,-484 2202,-484 2202,-470 2202,-470 2202,-464 2208,-458 2214,-458 2214,-458 2494,-458 2494,-458 2500,-458 2506,-464 2506,-470 2506,-470 2506,-484 2506,-484 2506,-490 2500,-496 2494,-496"/>
<text text-anchor="middle" x="2354" y="-480.8" font-family="Helvetica,sans-Serif" font-size="14.00">Convert Units:</text>
<text text-anchor="middle" x="2354" y="-465.8" font-family="Helvetica,sans-Serif" font-size="14.00"> Match the loaded attenuation workspace</text>
</g>
<!-- alg_ConvertToHistogram&#45;&gt;alg_ConvertUnits -->
<g id="edge36" class="edge">
<title>alg_ConvertToHistogram&#45;&gt;alg_ConvertUnits</title>
<path fill="none" stroke="black" d="M2354,-533.7C2354,-525.99 2354,-516.68 2354,-507.9"/>
<polygon fill="black" stroke="black" points="2357.5,-507.97 2354,-497.97 2350.5,-507.97 2357.5,-507.97"/>
</g>
<!-- alg_RebinWorkspace -->
<g id="node39" class="node">
<title>alg_RebinWorkspace</title>
<path fill="lightskyblue" stroke="black" d="M2538,-407C2538,-407 2170,-407 2170,-407 2164,-407 2158,-401 2158,-395 2158,-395 2158,-381 2158,-381 2158,-375 2164,-369 2170,-369 2170,-369 2538,-369 2538,-369 2544,-369 2550,-375 2550,-381 2550,-381 2550,-395 2550,-395 2550,-401 2544,-407 2538,-407"/>
<text text-anchor="middle" x="2354" y="-391.8" font-family="Helvetica,sans-Serif" font-size="14.00">Rebin:</text>
<text text-anchor="middle" x="2354" y="-376.8" font-family="Helvetica,sans-Serif" font-size="14.00"> Attenuated workspace to match workspace to correct</text>
</g>
<!-- alg_ConvertUnits&#45;&gt;alg_RebinWorkspace -->
<g id="edge37" class="edge">
<title>alg_ConvertUnits&#45;&gt;alg_RebinWorkspace</title>
<path fill="none" stroke="black" d="M2354,-457.55C2354,-446.25 2354,-431.52 2354,-418.61"/>
<polygon fill="black" stroke="black" points="2357.5,-418.94 2354,-408.94 2350.5,-418.94 2357.5,-418.94"/>
</g>
<!-- alg_ConvertUnitsOriginal -->
<g id="node36" class="node">
<title>alg_ConvertUnitsOriginal</title>
<path fill="lightskyblue" stroke="black" d="M2446.5,-259C2446.5,-259 2261.5,-259 2261.5,-259 2255.5,-259 2249.5,-253 2249.5,-247 2249.5,-247 2249.5,-233 2249.5,-233 2249.5,-227 2255.5,-221 2261.5,-221 2261.5,-221 2446.5,-221 2446.5,-221 2452.5,-221 2458.5,-227 2458.5,-233 2458.5,-233 2458.5,-247 2458.5,-247 2458.5,-253 2452.5,-259 2446.5,-259"/>
<text text-anchor="middle" x="2354" y="-243.8" font-family="Helvetica,sans-Serif" font-size="14.00">Convert Units:</text>
<text text-anchor="middle" x="2354" y="-228.8" font-family="Helvetica,sans-Serif" font-size="14.00"> Back to original input units</text>
</g>
<!-- alg_Divide -->
<g id="node37" class="node">
<title>alg_Divide</title>
<path fill="lightskyblue" stroke="black" d="M2491.5,-332C2491.5,-332 2216.5,-332 2216.5,-332 2210.5,-332 2204.5,-326 2204.5,-320 2204.5,-320 2204.5,-308 2204.5,-308 2204.5,-302 2210.5,-296 2216.5,-296 2216.5,-296 2491.5,-296 2491.5,-296 2497.5,-296 2503.5,-302 2503.5,-308 2503.5,-308 2503.5,-320 2503.5,-320 2503.5,-326 2497.5,-332 2491.5,-332"/>
<text text-anchor="middle" x="2354" y="-310.3" font-family="Helvetica,sans-Serif" font-size="14.00">Divide: Data Ws / Attenuated Workspace</text>
</g>
<!-- alg_Divide&#45;&gt;alg_ConvertUnitsOriginal -->
<g id="edge39" class="edge">
<title>alg_Divide&#45;&gt;alg_ConvertUnitsOriginal</title>
<path fill="none" stroke="black" d="M2354,-295.57C2354,-288.1 2354,-279.17 2354,-270.71"/>
<polygon fill="black" stroke="black" points="2357.5,-270.79 2354,-260.79 2350.5,-270.79 2357.5,-270.79"/>
</g>
<!-- alg_PearlMCAbsorption&#45;&gt;alg_ConvertToHistogram -->
<g id="edge35" class="edge">
<title>alg_PearlMCAbsorption&#45;&gt;alg_ConvertToHistogram</title>
<path fill="none" stroke="black" d="M2354,-608.7C2354,-600.67 2354,-590.9 2354,-581.8"/>
<polygon fill="black" stroke="black" points="2357.5,-581.94 2354,-571.94 2350.5,-581.94 2357.5,-581.94"/>
</g>
<!-- alg_RebinWorkspace&#45;&gt;alg_Divide -->
<g id="edge38" class="edge">
<title>alg_RebinWorkspace&#45;&gt;alg_Divide</title>
<path fill="none" stroke="black" d="M2354,-368.83C2354,-361.24 2354,-352.24 2354,-343.79"/>
<polygon fill="black" stroke="black" points="2357.5,-343.93 2354,-333.93 2350.5,-343.93 2357.5,-343.93"/>
</g>
<!-- if_attenuatePearl_all&#45;&gt;proc_attenuatePearl_all -->
<g id="edge5" class="edge">
<title>if_attenuatePearl_all&#45;&gt;proc_attenuatePearl_all</title>
<path fill="none" stroke="black" d="M690.24,-459.64C687.52,-447.79 683.77,-431.48 680.55,-417.51"/>
<polygon fill="black" stroke="black" points="684.01,-416.92 678.36,-407.96 677.19,-418.49 684.01,-416.92"/>
<text text-anchor="middle" x="701" y="-428.8" font-family="Helvetica,sans-Serif" font-size="14.00">True</text>
</g>
<!-- if_attenuatePearl_all&#45;&gt;alg_SaveGssSummed_all -->
<g id="edge7" class="edge">
<title>if_attenuatePearl_all&#45;&gt;alg_SaveGssSummed_all</title>
<path fill="none" stroke="black" d="M721.37,-464.08C743.32,-452.87 772.61,-433.79 786,-407 793.55,-391.89 793.23,-384.26 786,-369 780.41,-357.2 770.84,-347.13 760.7,-338.99"/>
<polygon fill="black" stroke="black" points="763.06,-336.38 752.94,-333.24 758.89,-342 763.06,-336.38"/>
<text text-anchor="middle" x="810" y="-384.3" font-family="Helvetica,sans-Serif" font-size="14.00">False</text>
</g>
<!-- if_attenuatePearl_trans&#45;&gt;proc_attenuatePearl_trans -->
<g id="edge26" class="edge">
<title>if_attenuatePearl_trans&#45;&gt;proc_attenuatePearl_trans</title>
<path fill="none" stroke="black" d="M2013.33,-460.85C2003.64,-448.27 1989.64,-430.09 1978.15,-415.16"/>
<polygon fill="black" stroke="black" points="1981.18,-413.36 1972.3,-407.57 1975.63,-417.63 1981.18,-413.36"/>
<text text-anchor="middle" x="2011" y="-428.8" font-family="Helvetica,sans-Serif" font-size="14.00">True</text>
</g>
<!-- if_attenuatePearl_trans&#45;&gt;alg_SaveGssSummed_trans -->
<g id="edge27" class="edge">
<title>if_attenuatePearl_trans&#45;&gt;alg_SaveGssSummed_trans</title>
<path fill="none" stroke="black" d="M2038.4,-461.15C2049.3,-447.99 2063.85,-427.7 2070,-407 2074.81,-390.81 2075.48,-384.97 2070,-369 2066.49,-358.77 2060.16,-348.99 2053.47,-340.62"/>
<polygon fill="black" stroke="black" points="2056.34,-338.59 2047.16,-333.3 2051.03,-343.16 2056.34,-338.59"/>
<text text-anchor="middle" x="2092" y="-384.3" font-family="Helvetica,sans-Serif" font-size="14.00">False</text>
</g>
</g>
</svg>
