<?xml version="1.0" encoding="UTF-8" standalone="no"?>
<!DOCTYPE svg PUBLIC "-//W3C//DTD SVG 1.1//EN"
 "http://www.w3.org/Graphics/SVG/1.1/DTD/svg11.dtd">
<!-- Generated by graphviz version 2.40.1 (20161225.0304)
 -->
<!-- Title: isisPowderCreateVanadium Pages: 1 -->
<svg width="1656pt" height="1260pt"
 viewBox="0.00 0.00 1656.12 1260.00" xmlns="http://www.w3.org/2000/svg" xmlns:xlink="http://www.w3.org/1999/xlink">
<g id="graph0" class="graph" transform="scale(1 1) rotate(0) translate(4 1256)">
<title>isisPowderCreateVanadium</title>
<polygon fill="#ffffff" stroke="transparent" points="-4,4 -4,-1256 1652.1217,-1256 1652.1217,4 -4,4"/>
<text text-anchor="middle" x="824.0608" y="-1236.8" font-family="Helvetica,sans-Serif" font-size="14.00" fill="#000000">ISISPowder &#45; &#39;create_vanadium&#39;</text>
<!-- label_start -->
<g id="node1" class="node">
<title>label_start</title>
<ellipse fill="#d3d3d3" stroke="#000000" cx="152.0865" cy="-1211" rx="152.1731" ry="18"/>
<text text-anchor="middle" x="152.0865" y="-1207.3" font-family="Helvetica,sans-Serif" font-size="14.00" fill="#000000">Start ISISPowder &#39;create_vanadium&#39;</text>
</g>
<!-- param_calMapping_1 -->
<g id="node4" class="node">
<title>param_calMapping_1</title>
<ellipse fill="#f0e68c" stroke="#000000" cx="152.0865" cy="-1138" rx="102.8821" ry="18"/>
<text text-anchor="middle" x="152.0865" y="-1134.3" font-family="Helvetica,sans-Serif" font-size="14.00" fill="#000000">Calibration mapping file</text>
</g>
<!-- label_start&#45;&gt;param_calMapping_1 -->
<g id="edge1" class="edge">
<title>label_start&#45;&gt;param_calMapping_1</title>
<path fill="none" stroke="#000000" d="M152.0865,-1192.9551C152.0865,-1184.8828 152.0865,-1175.1764 152.0865,-1166.1817"/>
<polygon fill="#000000" stroke="#000000" points="155.5866,-1166.0903 152.0865,-1156.0904 148.5866,-1166.0904 155.5866,-1166.0903"/>
</g>
<!-- param_apply_absorb -->
<g id="node2" class="node">
<title>param_apply_absorb</title>
<ellipse fill="#f0e68c" stroke="#000000" cx="799.0865" cy="-630" rx="148.3739" ry="18"/>
<text text-anchor="middle" x="799.0865" y="-626.3" font-family="Helvetica,sans-Serif" font-size="14.00" fill="#000000">User param: absorption corrections</text>
</g>
<!-- if_apply_absorb -->
<g id="node26" class="node">
<title>if_apply_absorb</title>
<polygon fill="#32cd32" stroke="#000000" points="689.0865,-575 557.7075,-557 689.0865,-539 820.4655,-557 689.0865,-575"/>
<text text-anchor="middle" x="689.0865" y="-553.3" font-family="Helvetica,sans-Serif" font-size="14.00" fill="#000000">If: absorb corrections</text>
</g>
<!-- param_apply_absorb&#45;&gt;if_apply_absorb -->
<g id="edge15" class="edge">
<title>param_apply_absorb&#45;&gt;if_apply_absorb</title>
<path fill="none" stroke="#000000" d="M772.1775,-612.1422C756.507,-601.7427 736.6777,-588.5833 720.3207,-577.7281"/>
<polygon fill="#000000" stroke="#000000" points="721.9066,-574.58 711.6391,-571.9667 718.0359,-580.4125 721.9066,-574.58"/>
</g>
<!-- param_calFileName -->
<g id="node3" class="node">
<title>param_calFileName</title>
<ellipse fill="#f0e68c" stroke="#000000" cx="687.0865" cy="-703" rx="90.9839" ry="18"/>
<text text-anchor="middle" x="687.0865" y="-699.3" font-family="Helvetica,sans-Serif" font-size="14.00" fill="#000000">Calibration file name</text>
</g>
<!-- alg_Align -->
<g id="node17" class="node">
<title>alg_Align</title>
<path fill="#87cefa" stroke="#000000" d="M621.0865,-648C621.0865,-648 537.0865,-648 537.0865,-648 531.0865,-648 525.0865,-642 525.0865,-636 525.0865,-636 525.0865,-624 525.0865,-624 525.0865,-618 531.0865,-612 537.0865,-612 537.0865,-612 621.0865,-612 621.0865,-612 627.0865,-612 633.0865,-618 633.0865,-624 633.0865,-624 633.0865,-636 633.0865,-636 633.0865,-642 627.0865,-648 621.0865,-648"/>
<text text-anchor="middle" x="579.0865" y="-626.3" font-family="Helvetica,sans-Serif" font-size="14.00" fill="#000000">Align Detectors</text>
</g>
<!-- param_calFileName&#45;&gt;alg_Align -->
<g id="edge12" class="edge">
<title>param_calFileName&#45;&gt;alg_Align</title>
<path fill="none" stroke="#000000" d="M661.492,-685.7C647.5176,-676.2544 629.9952,-664.4105 614.7052,-654.0756"/>
<polygon fill="#000000" stroke="#000000" points="616.2493,-650.8948 606.0044,-648.1945 612.3293,-656.6943 616.2493,-650.8948"/>
</g>
<!-- param_emptyRunNumber -->
<g id="node6" class="node">
<title>param_emptyRunNumber</title>
<ellipse fill="#f0e68c" stroke="#000000" cx="282.0865" cy="-1065" rx="94.4839" ry="18"/>
<text text-anchor="middle" x="282.0865" y="-1061.3" font-family="Helvetica,sans-Serif" font-size="14.00" fill="#000000">Empty run number(s)</text>
</g>
<!-- param_calMapping_1&#45;&gt;param_emptyRunNumber -->
<g id="edge4" class="edge">
<title>param_calMapping_1&#45;&gt;param_emptyRunNumber</title>
<path fill="none" stroke="#000000" d="M182.8947,-1120.7C200.7845,-1110.6542 223.505,-1097.8957 242.6859,-1087.1249"/>
<polygon fill="#000000" stroke="#000000" points="244.4938,-1090.1239 251.4995,-1082.1758 241.0664,-1084.0203 244.4938,-1090.1239"/>
</g>
<!-- param_vanadiumRunNumber -->
<g id="node7" class="node">
<title>param_vanadiumRunNumber</title>
<ellipse fill="#f0e68c" stroke="#000000" cx="135.0865" cy="-1011" rx="108.5808" ry="18"/>
<text text-anchor="middle" x="135.0865" y="-1007.3" font-family="Helvetica,sans-Serif" font-size="14.00" fill="#000000">Vanadium run number(s)</text>
</g>
<!-- param_calMapping_1&#45;&gt;param_vanadiumRunNumber -->
<g id="edge2" class="edge">
<title>param_calMapping_1&#45;&gt;param_vanadiumRunNumber</title>
<path fill="none" stroke="#000000" d="M149.6508,-1119.804C146.8357,-1098.7735 142.1689,-1063.9094 138.8779,-1039.3236"/>
<polygon fill="#000000" stroke="#000000" points="142.3136,-1038.6095 137.5177,-1029.1622 135.3754,-1039.5382 142.3136,-1038.6095"/>
</g>
<!-- param_calMapping_2 -->
<g id="node5" class="node">
<title>param_calMapping_2</title>
<ellipse fill="#f0e68c" stroke="#000000" cx="719.0865" cy="-776" rx="102.8821" ry="18"/>
<text text-anchor="middle" x="719.0865" y="-772.3" font-family="Helvetica,sans-Serif" font-size="14.00" fill="#000000">Calibration mapping file</text>
</g>
<!-- param_calMapping_2&#45;&gt;param_calFileName -->
<g id="edge11" class="edge">
<title>param_calMapping_2&#45;&gt;param_calFileName</title>
<path fill="none" stroke="#000000" d="M711.1764,-757.9551C707.5225,-749.6196 703.1047,-739.5416 699.0555,-730.3042"/>
<polygon fill="#000000" stroke="#000000" points="702.2369,-728.8439 695.0165,-721.0904 695.8258,-731.6542 702.2369,-728.8439"/>
</g>
<!-- proc_LoadCurrentNormWS_2 -->
<g id="node13" class="node">
<title>proc_LoadCurrentNormWS_2</title>
<polygon fill="#20b2aa" stroke="#000000" points="460.5865,-975 213.5865,-975 213.5865,-939 460.5865,-939 460.5865,-975"/>
<text text-anchor="middle" x="337.0865" y="-953.3" font-family="Helvetica,sans-Serif" font-size="14.00" fill="#000000">Load current normalised workspace(s)</text>
</g>
<!-- param_emptyRunNumber&#45;&gt;proc_LoadCurrentNormWS_2 -->
<g id="edge5" class="edge">
<title>param_emptyRunNumber&#45;&gt;proc_LoadCurrentNormWS_2</title>
<path fill="none" stroke="#000000" d="M291.4165,-1046.6793C300.1607,-1029.5088 313.3414,-1003.6268 323.2987,-984.0743"/>
<polygon fill="#000000" stroke="#000000" points="326.4751,-985.5495 327.8943,-975.0502 320.2374,-982.3729 326.4751,-985.5495"/>
<text text-anchor="middle" x="381.5865" y="-1007.3" font-family="Helvetica,sans-Serif" font-size="14.00" fill="#000000">InputMode=Summed</text>
</g>
<!-- proc_LoadCurrentNormWS_1 -->
<g id="node12" class="node">
<title>proc_LoadCurrentNormWS_1</title>
<polygon fill="#20b2aa" stroke="#000000" points="255.5865,-921 8.5865,-921 8.5865,-885 255.5865,-885 255.5865,-921"/>
<text text-anchor="middle" x="132.0865" y="-899.3" font-family="Helvetica,sans-Serif" font-size="14.00" fill="#000000">Load current normalised workspace(s)</text>
</g>
<!-- param_vanadiumRunNumber&#45;&gt;proc_LoadCurrentNormWS_1 -->
<g id="edge3" class="edge">
<title>param_vanadiumRunNumber&#45;&gt;proc_LoadCurrentNormWS_1</title>
<path fill="none" stroke="#000000" d="M94.9172,-994.2284C87.3792,-989.1872 80.4913,-982.8478 76.0865,-975 68.2552,-961.0476 68.4195,-953.0434 76.0865,-939 78.3278,-934.8947 81.2599,-931.1876 84.6084,-927.8556"/>
<polygon fill="#000000" stroke="#000000" points="87.144,-930.294 92.4975,-921.1511 82.611,-924.96 87.144,-930.294"/>
<text text-anchor="middle" x="140.5865" y="-953.3" font-family="Helvetica,sans-Serif" font-size="14.00" fill="#000000">InputMode=Summed</text>
</g>
<!-- param_groupingCalFile -->
<g id="node8" class="node">
<title>param_groupingCalFile</title>
<ellipse fill="#f0e68c" stroke="#000000" cx="972.0865" cy="-470" rx="145.6742" ry="18"/>
<text text-anchor="middle" x="972.0865" y="-466.3" font-family="Helvetica,sans-Serif" font-size="14.00" fill="#000000">Adv config: Grouping cal file name</text>
</g>
<!-- alg_DiffractionFocusing -->
<g id="node20" class="node">
<title>alg_DiffractionFocusing</title>
<path fill="#87cefa" stroke="#000000" d="M830.0865,-415C830.0865,-415 718.0865,-415 718.0865,-415 712.0865,-415 706.0865,-409 706.0865,-403 706.0865,-403 706.0865,-391 706.0865,-391 706.0865,-385 712.0865,-379 718.0865,-379 718.0865,-379 830.0865,-379 830.0865,-379 836.0865,-379 842.0865,-385 842.0865,-391 842.0865,-391 842.0865,-403 842.0865,-403 842.0865,-409 836.0865,-415 830.0865,-415"/>
<text text-anchor="middle" x="774.0865" y="-393.3" font-family="Helvetica,sans-Serif" font-size="14.00" fill="#000000">Diffraction Focusing</text>
</g>
<!-- param_groupingCalFile&#45;&gt;alg_DiffractionFocusing -->
<g id="edge17" class="edge">
<title>param_groupingCalFile&#45;&gt;alg_DiffractionFocusing</title>
<path fill="none" stroke="#000000" d="M925.6643,-452.8847C897.8165,-442.6176 862.1496,-429.4677 832.4105,-418.5033"/>
<polygon fill="#000000" stroke="#000000" points="833.5741,-415.202 822.9807,-415.0266 831.1526,-421.7699 833.5741,-415.202"/>
</g>
<!-- param_rawTOFCropValues -->
<g id="node9" class="node">
<title>param_rawTOFCropValues</title>
<ellipse fill="#f0e68c" stroke="#000000" cx="440.0865" cy="-776" rx="158.6719" ry="18"/>
<text text-anchor="middle" x="440.0865" y="-772.3" font-family="Helvetica,sans-Serif" font-size="14.00" fill="#000000">Adv config: Raw TOF cropping values</text>
</g>
<!-- alg_CropRawTOF -->
<g id="node18" class="node">
<title>alg_CropRawTOF</title>
<path fill="#87cefa" stroke="#000000" d="M518.5865,-721C518.5865,-721 361.5865,-721 361.5865,-721 355.5865,-721 349.5865,-715 349.5865,-709 349.5865,-709 349.5865,-697 349.5865,-697 349.5865,-691 355.5865,-685 361.5865,-685 361.5865,-685 518.5865,-685 518.5865,-685 524.5865,-685 530.5865,-691 530.5865,-697 530.5865,-697 530.5865,-709 530.5865,-709 530.5865,-715 524.5865,-721 518.5865,-721"/>
<text text-anchor="middle" x="440.0865" y="-699.3" font-family="Helvetica,sans-Serif" font-size="14.00" fill="#000000">Crop data to expected TOF</text>
</g>
<!-- param_rawTOFCropValues&#45;&gt;alg_CropRawTOF -->
<g id="edge9" class="edge">
<title>param_rawTOFCropValues&#45;&gt;alg_CropRawTOF</title>
<path fill="none" stroke="#000000" d="M440.0865,-757.9551C440.0865,-749.8828 440.0865,-740.1764 440.0865,-731.1817"/>
<polygon fill="#000000" stroke="#000000" points="443.5866,-731.0903 440.0865,-721.0904 436.5866,-731.0904 443.5866,-731.0903"/>
</g>
<!-- param_vanadiumTOFCropValues -->
<g id="node10" class="node">
<title>param_vanadiumTOFCropValues</title>
<ellipse fill="#f0e68c" stroke="#000000" cx="1315.0865" cy="-310" rx="180.8681" ry="18"/>
<text text-anchor="middle" x="1315.0865" y="-306.3" font-family="Helvetica,sans-Serif" font-size="14.00" fill="#000000">Adv config: Vanadium TOF cropping values</text>
</g>
<!-- alg_CropVanTOF -->
<g id="node19" class="node">
<title>alg_CropVanTOF</title>
<path fill="#87cefa" stroke="#000000" d="M1235.5865,-255C1235.5865,-255 1078.5865,-255 1078.5865,-255 1072.5865,-255 1066.5865,-249 1066.5865,-243 1066.5865,-243 1066.5865,-231 1066.5865,-231 1066.5865,-225 1072.5865,-219 1078.5865,-219 1078.5865,-219 1235.5865,-219 1235.5865,-219 1241.5865,-219 1247.5865,-225 1247.5865,-231 1247.5865,-231 1247.5865,-243 1247.5865,-243 1247.5865,-249 1241.5865,-255 1235.5865,-255"/>
<text text-anchor="middle" x="1157.0865" y="-233.3" font-family="Helvetica,sans-Serif" font-size="14.00" fill="#000000">Crop data to expected TOF</text>
</g>
<!-- param_vanadiumTOFCropValues&#45;&gt;alg_CropVanTOF -->
<g id="edge22" class="edge">
<title>param_vanadiumTOFCropValues&#45;&gt;alg_CropVanTOF</title>
<path fill="none" stroke="#000000" d="M1276.8391,-292.3287C1255.3268,-282.3895 1228.2626,-269.8852 1205.308,-259.2795"/>
<polygon fill="#000000" stroke="#000000" points="1206.6252,-256.0327 1196.0793,-255.0157 1203.6892,-262.3872 1206.6252,-256.0327"/>
</g>
<!-- param_vanadiumSplineCoefficient -->
<g id="node11" class="node">
<title>param_vanadiumSplineCoefficient</title>
<ellipse fill="#f0e68c" stroke="#000000" cx="1481.0865" cy="-164" rx="167.0704" ry="18"/>
<text text-anchor="middle" x="1481.0865" y="-160.3" font-family="Helvetica,sans-Serif" font-size="14.00" fill="#000000">Adv config: Vanadium Spline Coefficient</text>
</g>
<!-- alg_SplineVanadium -->
<g id="node24" class="node">
<title>alg_SplineVanadium</title>
<path fill="#87cefa" stroke="#000000" d="M1372.0865,-109C1372.0865,-109 1266.0865,-109 1266.0865,-109 1260.0865,-109 1254.0865,-103 1254.0865,-97 1254.0865,-97 1254.0865,-85 1254.0865,-85 1254.0865,-79 1260.0865,-73 1266.0865,-73 1266.0865,-73 1372.0865,-73 1372.0865,-73 1378.0865,-73 1384.0865,-79 1384.0865,-85 1384.0865,-85 1384.0865,-97 1384.0865,-97 1384.0865,-103 1378.0865,-109 1372.0865,-109"/>
<text text-anchor="middle" x="1319.0865" y="-87.3" font-family="Helvetica,sans-Serif" font-size="14.00" fill="#000000">Spline Background</text>
</g>
<!-- param_vanadiumSplineCoefficient&#45;&gt;alg_SplineVanadium -->
<g id="edge25" class="edge">
<title>param_vanadiumSplineCoefficient&#45;&gt;alg_SplineVanadium</title>
<path fill="none" stroke="#000000" d="M1441.8708,-146.3287C1419.7159,-136.3453 1391.8178,-123.774 1368.2152,-113.1382"/>
<polygon fill="#000000" stroke="#000000" points="1369.6215,-109.9331 1359.0665,-109.0157 1366.7457,-116.315 1369.6215,-109.9331"/>
</g>
<!-- alg_Subtract_van_empty -->
<g id="node25" class="node">
<title>alg_Subtract_van_empty</title>
<path fill="#87cefa" stroke="#000000" d="M251.5865,-794C251.5865,-794 92.5865,-794 92.5865,-794 86.5865,-794 80.5865,-788 80.5865,-782 80.5865,-782 80.5865,-770 80.5865,-770 80.5865,-764 86.5865,-758 92.5865,-758 92.5865,-758 251.5865,-758 251.5865,-758 257.5865,-758 263.5865,-764 263.5865,-770 263.5865,-770 263.5865,-782 263.5865,-782 263.5865,-788 257.5865,-794 251.5865,-794"/>
<text text-anchor="middle" x="172.0865" y="-772.3" font-family="Helvetica,sans-Serif" font-size="14.00" fill="#000000">Subtract: vanadium &#45; empty</text>
</g>
<!-- proc_LoadCurrentNormWS_1&#45;&gt;alg_Subtract_van_empty -->
<g id="edge7" class="edge">
<title>proc_LoadCurrentNormWS_1&#45;&gt;alg_Subtract_van_empty</title>
<path fill="none" stroke="#000000" d="M137.8175,-884.804C144.471,-863.6791 155.5207,-828.5964 163.2697,-803.9935"/>
<polygon fill="#000000" stroke="#000000" points="166.7003,-804.7518 166.3661,-794.1622 160.0236,-802.6489 166.7003,-804.7518"/>
</g>
<!-- alg_SaveNexusProcessedEmpty -->
<g id="node22" class="node">
<title>alg_SaveNexusProcessedEmpty</title>
<path fill="#87cefa" stroke="#000000" d="M300.0865,-867C300.0865,-867 214.0865,-867 214.0865,-867 208.0865,-867 202.0865,-861 202.0865,-855 202.0865,-855 202.0865,-843 202.0865,-843 202.0865,-837 208.0865,-831 214.0865,-831 214.0865,-831 300.0865,-831 300.0865,-831 306.0865,-831 312.0865,-837 312.0865,-843 312.0865,-843 312.0865,-855 312.0865,-855 312.0865,-861 306.0865,-867 300.0865,-867"/>
<text text-anchor="middle" x="257.0865" y="-845.3" font-family="Helvetica,sans-Serif" font-size="14.00" fill="#000000">Save Nexus file</text>
</g>
<!-- proc_LoadCurrentNormWS_2&#45;&gt;alg_SaveNexusProcessedEmpty -->
<g id="edge6" class="edge">
<title>proc_LoadCurrentNormWS_2&#45;&gt;alg_SaveNexusProcessedEmpty</title>
<path fill="none" stroke="#000000" d="M323.5156,-938.6793C310.6233,-921.2746 291.1008,-894.9193 276.5517,-875.278"/>
<polygon fill="#000000" stroke="#000000" points="279.2218,-873.0024 270.457,-867.0502 273.5969,-877.1691 279.2218,-873.0024"/>
</g>
<!-- proc_InstApplyAbsorbCorr -->
<g id="node14" class="node">
<title>proc_InstApplyAbsorbCorr</title>
<polygon fill="#20b2aa" stroke="#000000" points="737.5865,-488 472.5865,-488 472.5865,-452 737.5865,-452 737.5865,-488"/>
<text text-anchor="middle" x="605.0865" y="-466.3" font-family="Helvetica,sans-Serif" font-size="14.00" fill="#000000">Inst specific: Apply absorption corrections</text>
</g>
<!-- proc_InstApplyAbsorbCorr&#45;&gt;alg_DiffractionFocusing -->
<g id="edge19" class="edge">
<title>proc_InstApplyAbsorbCorr&#45;&gt;alg_DiffractionFocusing</title>
<path fill="none" stroke="#000000" d="M646.8618,-451.9551C669.8152,-442.0403 698.4763,-429.66 722.781,-419.1615"/>
<polygon fill="#000000" stroke="#000000" points="724.4138,-422.2689 732.2061,-415.0904 721.638,-415.8428 724.4138,-422.2689"/>
</g>
<!-- proc_InstMaskPeaks -->
<g id="node15" class="node">
<title>proc_InstMaskPeaks</title>
<polygon fill="#20b2aa" stroke="#000000" points="1295.5865,-182 1018.5865,-182 1018.5865,-146 1295.5865,-146 1295.5865,-182"/>
<text text-anchor="middle" x="1157.0865" y="-160.3" font-family="Helvetica,sans-Serif" font-size="14.00" fill="#000000">Inst specific: Mask peaks in Vanadium data</text>
</g>
<!-- proc_InstMaskPeaks&#45;&gt;alg_SplineVanadium -->
<g id="edge26" class="edge">
<title>proc_InstMaskPeaks&#45;&gt;alg_SplineVanadium</title>
<path fill="none" stroke="#000000" d="M1197.1315,-145.9551C1219.0368,-136.0841 1246.3651,-123.7695 1269.5966,-113.301"/>
<polygon fill="#000000" stroke="#000000" points="1271.2616,-116.3897 1278.9408,-109.0904 1268.3857,-110.0078 1271.2616,-116.3897"/>
</g>
<!-- proc_InstSaveFocused -->
<g id="node16" class="node">
<title>proc_InstSaveFocused</title>
<polygon fill="#20b2aa" stroke="#000000" points="866.0865,-328 650.0865,-328 650.0865,-292 866.0865,-292 866.0865,-328"/>
<text text-anchor="middle" x="758.0865" y="-306.3" font-family="Helvetica,sans-Serif" font-size="14.00" fill="#000000">Inst specific: Save focused banks</text>
</g>
<!-- alg_Align&#45;&gt;if_apply_absorb -->
<g id="edge14" class="edge">
<title>alg_Align&#45;&gt;if_apply_absorb</title>
<path fill="none" stroke="#000000" d="M606.2775,-611.9551C621.8449,-601.624 641.4458,-588.6161 657.6695,-577.8495"/>
<polygon fill="#000000" stroke="#000000" points="659.8914,-580.5756 666.2882,-572.1298 656.0207,-574.7431 659.8914,-580.5756"/>
</g>
<!-- alg_CropRawTOF&#45;&gt;alg_Align -->
<g id="edge13" class="edge">
<title>alg_CropRawTOF&#45;&gt;alg_Align</title>
<path fill="none" stroke="#000000" d="M474.4461,-684.9551C492.9072,-675.2596 515.8575,-663.2066 535.5566,-652.861"/>
<polygon fill="#000000" stroke="#000000" points="537.4145,-655.8387 544.6405,-648.0904 534.1598,-649.6413 537.4145,-655.8387"/>
</g>
<!-- alg_CropVanTOF&#45;&gt;proc_InstMaskPeaks -->
<g id="edge24" class="edge">
<title>alg_CropVanTOF&#45;&gt;proc_InstMaskPeaks</title>
<path fill="none" stroke="#000000" d="M1157.0865,-218.9551C1157.0865,-210.8828 1157.0865,-201.1764 1157.0865,-192.1817"/>
<polygon fill="#000000" stroke="#000000" points="1160.5866,-192.0903 1157.0865,-182.0904 1153.5866,-192.0904 1160.5866,-192.0903"/>
</g>
<!-- alg_DiffractionFocusing&#45;&gt;proc_InstSaveFocused -->
<g id="edge20" class="edge">
<title>alg_DiffractionFocusing&#45;&gt;proc_InstSaveFocused</title>
<path fill="none" stroke="#000000" d="M770.7713,-378.9735C768.6045,-367.1918 765.7298,-351.5607 763.265,-338.1581"/>
<polygon fill="#000000" stroke="#000000" points="766.6486,-337.2053 761.3975,-328.0034 759.764,-338.4715 766.6486,-337.2053"/>
</g>
<!-- alg_ExtractWsSpectra -->
<g id="node21" class="node">
<title>alg_ExtractWsSpectra</title>
<path fill="#87cefa" stroke="#000000" d="M1104.0865,-328C1104.0865,-328 896.0865,-328 896.0865,-328 890.0865,-328 884.0865,-322 884.0865,-316 884.0865,-316 884.0865,-304 884.0865,-304 884.0865,-298 890.0865,-292 896.0865,-292 896.0865,-292 1104.0865,-292 1104.0865,-292 1110.0865,-292 1116.0865,-298 1116.0865,-304 1116.0865,-304 1116.0865,-316 1116.0865,-316 1116.0865,-322 1110.0865,-328 1104.0865,-328"/>
<text text-anchor="middle" x="1000.0865" y="-306.3" font-family="Helvetica,sans-Serif" font-size="14.00" fill="#000000">Extract spectra into individual banks</text>
</g>
<!-- alg_DiffractionFocusing&#45;&gt;alg_ExtractWsSpectra -->
<g id="edge21" class="edge">
<title>alg_DiffractionFocusing&#45;&gt;alg_ExtractWsSpectra</title>
<path fill="none" stroke="#000000" d="M820.9139,-378.9735C856.6708,-365.2087 906.0766,-346.1896 943.9532,-331.6088"/>
<polygon fill="#000000" stroke="#000000" points="945.2442,-334.8623 953.3191,-328.0034 942.7293,-328.3296 945.2442,-334.8623"/>
<text text-anchor="middle" x="980.0865" y="-349.8" font-family="Helvetica,sans-Serif" font-size="14.00" fill="#000000">Creating vanadium splines</text>
</g>
<!-- alg_ExtractWsSpectra&#45;&gt;alg_CropVanTOF -->
<g id="edge23" class="edge">
<title>alg_ExtractWsSpectra&#45;&gt;alg_CropVanTOF</title>
<path fill="none" stroke="#000000" d="M1038.8955,-291.9551C1060.0304,-282.128 1086.3743,-269.8789 1108.8237,-259.4407"/>
<polygon fill="#000000" stroke="#000000" points="1110.5878,-262.4803 1118.1798,-255.0904 1107.6364,-256.1329 1110.5878,-262.4803"/>
</g>
<!-- alg_SaveNexusProcessedEmpty&#45;&gt;alg_Subtract_van_empty -->
<g id="edge8" class="edge">
<title>alg_SaveNexusProcessedEmpty&#45;&gt;alg_Subtract_van_empty</title>
<path fill="none" stroke="#000000" d="M236.0753,-830.9551C225.4501,-821.8299 212.3933,-810.6165 200.851,-800.7036"/>
<polygon fill="#000000" stroke="#000000" points="203.0173,-797.9505 193.1506,-794.0904 198.4566,-803.2609 203.0173,-797.9505"/>
</g>
<!-- alg_SaveNexusProcessed -->
<g id="node23" class="node">
<title>alg_SaveNexusProcessed</title>
<path fill="#87cefa" stroke="#000000" d="M1362.0865,-36C1362.0865,-36 1276.0865,-36 1276.0865,-36 1270.0865,-36 1264.0865,-30 1264.0865,-24 1264.0865,-24 1264.0865,-12 1264.0865,-12 1264.0865,-6 1270.0865,0 1276.0865,0 1276.0865,0 1362.0865,0 1362.0865,0 1368.0865,0 1374.0865,-6 1374.0865,-12 1374.0865,-12 1374.0865,-24 1374.0865,-24 1374.0865,-30 1368.0865,-36 1362.0865,-36"/>
<text text-anchor="middle" x="1319.0865" y="-14.3" font-family="Helvetica,sans-Serif" font-size="14.00" fill="#000000">Save Nexus file</text>
</g>
<!-- alg_SplineVanadium&#45;&gt;alg_SaveNexusProcessed -->
<g id="edge27" class="edge">
<title>alg_SplineVanadium&#45;&gt;alg_SaveNexusProcessed</title>
<path fill="none" stroke="#000000" d="M1319.0865,-72.9551C1319.0865,-64.8828 1319.0865,-55.1764 1319.0865,-46.1817"/>
<polygon fill="#000000" stroke="#000000" points="1322.5866,-46.0903 1319.0865,-36.0904 1315.5866,-46.0904 1322.5866,-46.0903"/>
</g>
<!-- alg_Subtract_van_empty&#45;&gt;alg_CropRawTOF -->
<g id="edge10" class="edge">
<title>alg_Subtract_van_empty&#45;&gt;alg_CropRawTOF</title>
<path fill="none" stroke="#000000" d="M238.3337,-757.9551C276.3438,-747.6016 324.2239,-734.5596 363.8007,-723.7794"/>
<polygon fill="#000000" stroke="#000000" points="364.944,-727.0955 373.6726,-721.0904 363.1042,-720.3416 364.944,-727.0955"/>
</g>
<!-- if_apply_absorb&#45;&gt;proc_InstApplyAbsorbCorr -->
<g id="edge16" class="edge">
<title>if_apply_absorb&#45;&gt;proc_InstApplyAbsorbCorr</title>
<path fill="none" stroke="#000000" d="M673.6796,-541.0429C661.4184,-528.3437 644.0205,-510.3245 629.8148,-495.6115"/>
<polygon fill="#000000" stroke="#000000" points="632.1851,-493.0275 622.7213,-488.2646 627.1493,-497.8897 632.1851,-493.0275"/>
<text text-anchor="middle" x="666.0865" y="-509.8" font-family="Helvetica,sans-Serif" font-size="14.00" fill="#000000">True</text>
</g>
<!-- if_apply_absorb&#45;&gt;alg_DiffractionFocusing -->
<g id="edge18" class="edge">
<title>if_apply_absorb&#45;&gt;alg_DiffractionFocusing</title>
<path fill="none" stroke="#000000" d="M705.7478,-541.1424C718.6789,-528.0013 736.1848,-508.257 747.0865,-488 757.7118,-468.2566 764.6694,-443.7957 768.8567,-425.2083"/>
<polygon fill="#000000" stroke="#000000" points="772.3096,-425.7968 770.9562,-415.2888 765.4613,-424.3473 772.3096,-425.7968"/>
<text text-anchor="middle" x="778.0865" y="-466.3" font-family="Helvetica,sans-Serif" font-size="14.00" fill="#000000">False</text>
</g>
</g>
</svg>
