<?xml version="1.0" encoding="UTF-8" standalone="no"?>
<!DOCTYPE svg PUBLIC "-//W3C//DTD SVG 1.1//EN"
 "http://www.w3.org/Graphics/SVG/1.1/DTD/svg11.dtd">
<!-- Generated by graphviz version 2.47.2 (20210527.1257)
 -->
<!-- Title: isisPowderGenericAlgs Pages: 1 -->
<svg width="553pt" height="373pt"
 viewBox="0.00 0.00 553.03 373.00" xmlns="http://www.w3.org/2000/svg" xmlns:xlink="http://www.w3.org/1999/xlink">
<g id="graph0" class="graph" transform="scale(1 1) rotate(0) translate(4 369)">
<title>isisPowderGenericAlgs</title>
<polygon fill="white" stroke="transparent" points="-4,4 -4,-369 549.03,-369 549.03,4 -4,4"/>
<text text-anchor="middle" x="272.51" y="-349.8" font-family="Helvetica" font-size="14.00">ISISPowder &#45; Generic Processes</text>
<!-- label_LoadCurrentNormWs -->
<g id="node1" class="node">
<title>label_LoadCurrentNormWs</title>
<ellipse fill="lightgrey" stroke="black" cx="126.09" cy="-324" rx="126.18" ry="18"/>
<text text-anchor="middle" x="126.09" y="-320.3" font-family="Helvetica" font-size="14.00">Load Current Normalised WS</text>
</g>
<!-- alg_Load -->
<g id="node5" class="node">
<title>alg_Load</title>
<path fill="lightskyblue" stroke="black" d="M303.09,-269C303.09,-269 193.09,-269 193.09,-269 187.09,-269 181.09,-263 181.09,-257 181.09,-257 181.09,-245 181.09,-245 181.09,-239 187.09,-233 193.09,-233 193.09,-233 303.09,-233 303.09,-233 309.09,-233 315.09,-239 315.09,-245 315.09,-245 315.09,-257 315.09,-257 315.09,-263 309.09,-269 303.09,-269"/>
<text text-anchor="middle" x="248.09" y="-247.3" font-family="Helvetica" font-size="14.00">Load Workspace(s)</text>
</g>
<!-- label_LoadCurrentNormWs&#45;&gt;alg_Load -->
<g id="edge1" class="edge">
<title>label_LoadCurrentNormWs&#45;&gt;alg_Load</title>
<path fill="none" stroke="black" d="M154.69,-306.35C171.13,-296.79 191.98,-284.66 209.81,-274.28"/>
<polygon fill="black" stroke="black" points="211.93,-277.09 218.82,-269.04 208.41,-271.04 211.93,-277.09"/>
</g>
<!-- param_runNumbers -->
<g id="node2" class="node">
<title>param_runNumbers</title>
<ellipse fill="khaki" stroke="black" cx="371.09" cy="-324" rx="100.98" ry="18"/>
<text text-anchor="middle" x="371.09" y="-320.3" font-family="Helvetica" font-size="14.00">Param: Run number(s)</text>
</g>
<!-- param_runNumbers&#45;&gt;alg_Load -->
<g id="edge2" class="edge">
<title>param_runNumbers&#45;&gt;alg_Load</title>
<path fill="none" stroke="black" d="M342.87,-306.71C326.17,-297.07 304.78,-284.73 286.55,-274.2"/>
<polygon fill="black" stroke="black" points="288.3,-271.17 277.89,-269.2 284.8,-277.23 288.3,-271.17"/>
</g>
<!-- param_inputMode -->
<g id="node3" class="node">
<title>param_inputMode</title>
<ellipse fill="khaki" stroke="black" cx="439.09" cy="-251" rx="105.88" ry="18"/>
<text text-anchor="middle" x="439.09" y="-247.3" font-family="Helvetica" font-size="14.00">User param: input mode</text>
</g>
<!-- if_inputMode -->
<g id="node7" class="node">
<title>if_inputMode</title>
<polygon fill="limegreen" stroke="black" points="343.09,-196 252.1,-178 343.09,-160 434.08,-178 343.09,-196"/>
<text text-anchor="middle" x="343.09" y="-174.3" font-family="Helvetica" font-size="14.00">If: input mode</text>
</g>
<!-- param_inputMode&#45;&gt;if_inputMode -->
<g id="edge4" class="edge">
<title>param_inputMode&#45;&gt;if_inputMode</title>
<path fill="none" stroke="black" d="M416.34,-233.17C402.34,-222.82 384.34,-209.51 369.68,-198.67"/>
<polygon fill="black" stroke="black" points="371.62,-195.75 361.5,-192.61 367.46,-201.38 371.62,-195.75"/>
</g>
<!-- proc_instNormaliseWorkspaces -->
<g id="node4" class="node">
<title>proc_instNormaliseWorkspaces</title>
<polygon fill="lightseagreen" stroke="black" points="492.59,-36 249.59,-36 249.59,0 492.59,0 492.59,-36"/>
<text text-anchor="middle" x="371.09" y="-14.3" font-family="Helvetica" font-size="14.00">Inst specific: Normalise Workspace(s)</text>
</g>
<!-- alg_Load&#45;&gt;if_inputMode -->
<g id="edge3" class="edge">
<title>alg_Load&#45;&gt;if_inputMode</title>
<path fill="none" stroke="black" d="M271.09,-232.81C284.95,-222.45 302.65,-209.23 317.03,-198.48"/>
<polygon fill="black" stroke="black" points="319.14,-201.27 325.06,-192.48 314.95,-195.66 319.14,-201.27"/>
</g>
<!-- alg_MergeWorkspaces -->
<g id="node6" class="node">
<title>alg_MergeWorkspaces</title>
<path fill="lightskyblue" stroke="black" d="M336.59,-109C336.59,-109 269.59,-109 269.59,-109 263.59,-109 257.59,-103 257.59,-97 257.59,-97 257.59,-85 257.59,-85 257.59,-79 263.59,-73 269.59,-73 269.59,-73 336.59,-73 336.59,-73 342.59,-73 348.59,-79 348.59,-85 348.59,-85 348.59,-97 348.59,-97 348.59,-103 342.59,-109 336.59,-109"/>
<text text-anchor="middle" x="303.09" y="-87.3" font-family="Helvetica" font-size="14.00">Merge Runs</text>
</g>
<!-- alg_MergeWorkspaces&#45;&gt;proc_instNormaliseWorkspaces -->
<g id="edge6" class="edge">
<title>alg_MergeWorkspaces&#45;&gt;proc_instNormaliseWorkspaces</title>
<path fill="none" stroke="black" d="M319.55,-72.81C327.99,-64 338.41,-53.13 347.66,-43.46"/>
<polygon fill="black" stroke="black" points="350.39,-45.67 354.78,-36.03 345.33,-40.83 350.39,-45.67"/>
</g>
<!-- if_inputMode&#45;&gt;proc_instNormaliseWorkspaces -->
<g id="edge7" class="edge">
<title>if_inputMode&#45;&gt;proc_instNormaliseWorkspaces</title>
<path fill="none" stroke="black" d="M371.95,-165.71C382.09,-160.18 392.37,-152.42 398.09,-142 414.86,-111.45 400.27,-71.25 386.88,-45.26"/>
<polygon fill="black" stroke="black" points="389.9,-43.5 382.06,-36.38 383.75,-46.84 389.9,-43.5"/>
<text text-anchor="middle" x="437.09" y="-87.3" font-family="Helvetica" font-size="14.00">&#39;Individual&#39;</text>
</g>
<!-- if_inputMode&#45;&gt;alg_MergeWorkspaces -->
<g id="edge5" class="edge">
<title>if_inputMode&#45;&gt;alg_MergeWorkspaces</title>
<path fill="none" stroke="black" d="M307.76,-166.98C295.54,-161.64 283.16,-153.67 276.09,-142 271.36,-134.19 273.58,-125.5 278.34,-117.57"/>
<polygon fill="black" stroke="black" points="281.25,-119.51 284.29,-109.36 275.59,-115.4 281.25,-119.51"/>
<text text-anchor="middle" x="337.09" y="-130.8" font-family="Helvetica" font-size="14.00">&#39;Summed&#39; or not set</text>
</g>
</g>
</svg>
