<?xml version="1.0" encoding="UTF-8" standalone="no"?>
<!DOCTYPE svg PUBLIC "-//W3C//DTD SVG 1.1//EN"
 "http://www.w3.org/Graphics/SVG/1.1/DTD/svg11.dtd">
<!-- Generated by graphviz version 2.47.2 (20210527.1257)
 -->
<!-- Title: isisPowderGenericAlgs Pages: 1 -->
<svg width="1510pt" height="439pt"
 viewBox="0.00 0.00 1509.64 439.22" xmlns="http://www.w3.org/2000/svg" xmlns:xlink="http://www.w3.org/1999/xlink">
<g id="graph0" class="graph" transform="scale(1 1) rotate(0) translate(4 435.22)">
<title>isisPowderGenericAlgs</title>
<polygon fill="white" stroke="transparent" points="-4,4 -4,-435.22 1505.64,-435.22 1505.64,4 -4,4"/>
<text text-anchor="middle" x="750.82" y="-416.02" font-family="Helvetica" font-size="14.00">ISISPowder &#45; Apply absorption corrections</text>
<!-- label_GEM -->
<g id="node1" class="node">
<title>label_GEM</title>
<ellipse fill="lightgrey" stroke="black" cx="162.5" cy="-390.22" rx="150.27" ry="18"/>
<text text-anchor="middle" x="162.5" y="-386.52" font-family="Helvetica" font-size="14.00">Apply absorption corrections &#45; GEM</text>
</g>
<!-- if_GEM_isVanadium -->
<g id="node12" class="node">
<title>if_GEM_isVanadium</title>
<polygon fill="limegreen" stroke="black" points="162.5,-335.22 64.3,-317.22 162.5,-299.22 260.7,-317.22 162.5,-335.22"/>
<text text-anchor="middle" x="162.5" y="-313.52" font-family="Helvetica" font-size="14.00">If: Is Vanadium</text>
</g>
<!-- label_GEM&#45;&gt;if_GEM_isVanadium -->
<g id="edge1" class="edge">
<title>label_GEM&#45;&gt;if_GEM_isVanadium</title>
<path fill="none" stroke="black" d="M162.5,-372.03C162.5,-364.01 162.5,-354.27 162.5,-345.29"/>
<polygon fill="black" stroke="black" points="166,-345.25 162.5,-335.25 159,-345.25 166,-345.25"/>
</g>
<!-- label_PEARL -->
<g id="node2" class="node">
<title>label_PEARL</title>
<ellipse fill="lightgrey" stroke="black" cx="1051.5" cy="-390.22" rx="157.87" ry="18"/>
<text text-anchor="middle" x="1051.5" y="-386.52" font-family="Helvetica" font-size="14.00">Apply absorption corrections &#45; PEARL</text>
</g>
<!-- alg_PEARL_Load -->
<g id="node9" class="node">
<title>alg_PEARL_Load</title>
<path fill="lightskyblue" stroke="black" d="M1164.5,-335.22C1164.5,-335.22 1134.5,-335.22 1134.5,-335.22 1128.5,-335.22 1122.5,-329.22 1122.5,-323.22 1122.5,-323.22 1122.5,-311.22 1122.5,-311.22 1122.5,-305.22 1128.5,-299.22 1134.5,-299.22 1134.5,-299.22 1164.5,-299.22 1164.5,-299.22 1170.5,-299.22 1176.5,-305.22 1176.5,-311.22 1176.5,-311.22 1176.5,-323.22 1176.5,-323.22 1176.5,-329.22 1170.5,-335.22 1164.5,-335.22"/>
<text text-anchor="middle" x="1149.5" y="-313.52" font-family="Helvetica" font-size="14.00">Load</text>
</g>
<!-- label_PEARL&#45;&gt;alg_PEARL_Load -->
<g id="edge10" class="edge">
<title>label_PEARL&#45;&gt;alg_PEARL_Load</title>
<path fill="none" stroke="black" d="M1074.72,-372.39C1087.47,-363.16 1103.48,-351.56 1117.41,-341.47"/>
<polygon fill="black" stroke="black" points="1119.72,-344.12 1125.76,-335.42 1115.61,-338.45 1119.72,-344.12"/>
</g>
<!-- label_POLARIS -->
<g id="node3" class="node">
<title>label_POLARIS</title>
<ellipse fill="lightgrey" stroke="black" cx="688.5" cy="-390.22" rx="167.87" ry="18"/>
<text text-anchor="middle" x="688.5" y="-386.52" font-family="Helvetica" font-size="14.00">Apply absorption corrections &#45; POLARIS</text>
</g>
<!-- if_POLARIS_isVanadium -->
<g id="node13" class="node">
<title>if_POLARIS_isVanadium</title>
<polygon fill="limegreen" stroke="black" points="688.5,-335.22 590.3,-317.22 688.5,-299.22 786.7,-317.22 688.5,-335.22"/>
<text text-anchor="middle" x="688.5" y="-313.52" font-family="Helvetica" font-size="14.00">If: Is Vanadium</text>
</g>
<!-- label_POLARIS&#45;&gt;if_POLARIS_isVanadium -->
<g id="edge5" class="edge">
<title>label_POLARIS&#45;&gt;if_POLARIS_isVanadium</title>
<path fill="none" stroke="black" d="M688.5,-372.03C688.5,-364.01 688.5,-354.27 688.5,-345.29"/>
<polygon fill="black" stroke="black" points="692,-345.25 688.5,-335.25 685,-345.25 692,-345.25"/>
</g>
<!-- param_MayersInputs -->
<g id="node4" class="node">
<title>param_MayersInputs</title>
<ellipse fill="khaki" stroke="black" cx="439.5" cy="-167.61" rx="92.76" ry="80.72"/>
<text text-anchor="middle" x="439.5" y="-209.41" font-family="Helvetica" font-size="14.00">User/Adv config:</text>
<text text-anchor="middle" x="439.5" y="-178.41" font-family="Helvetica" font-size="14.00"> Chemical Formula</text>
<text text-anchor="middle" x="439.5" y="-163.41" font-family="Helvetica" font-size="14.00"> Cylinder Height</text>
<text text-anchor="middle" x="439.5" y="-148.41" font-family="Helvetica" font-size="14.00"> Cylinder Position</text>
<text text-anchor="middle" x="439.5" y="-133.41" font-family="Helvetica" font-size="14.00"> Cylinder Radius</text>
<text text-anchor="middle" x="439.5" y="-118.41" font-family="Helvetica" font-size="14.00"> Number Density</text>
</g>
<!-- alg_MayersSampleCorr -->
<g id="node6" class="node">
<title>alg_MayersSampleCorr</title>
<path fill="lightskyblue" stroke="black" d="M516.5,-36C516.5,-36 362.5,-36 362.5,-36 356.5,-36 350.5,-30 350.5,-24 350.5,-24 350.5,-12 350.5,-12 350.5,-6 356.5,0 362.5,0 362.5,0 516.5,0 516.5,0 522.5,0 528.5,-6 528.5,-12 528.5,-12 528.5,-24 528.5,-24 528.5,-30 522.5,-36 516.5,-36"/>
<text text-anchor="middle" x="439.5" y="-14.3" font-family="Helvetica" font-size="14.00">Mayers Sample Correction</text>
</g>
<!-- param_MayersInputs&#45;&gt;alg_MayersSampleCorr -->
<g id="edge9" class="edge">
<title>param_MayersInputs&#45;&gt;alg_MayersSampleCorr</title>
<path fill="none" stroke="black" d="M439.5,-86.76C439.5,-72.24 439.5,-58.04 439.5,-46.42"/>
<polygon fill="black" stroke="black" points="443,-46.14 439.5,-36.14 436,-46.14 443,-46.14"/>
</g>
<!-- param_advAbsFilename -->
<g id="node5" class="node">
<title>param_advAbsFilename</title>
<ellipse fill="khaki" stroke="black" cx="1364.5" cy="-390.22" rx="137.28" ry="18"/>
<text text-anchor="middle" x="1364.5" y="-386.52" font-family="Helvetica" font-size="14.00">Adv config: Absorption Filename</text>
</g>
<!-- param_advAbsFilename&#45;&gt;alg_PEARL_Load -->
<g id="edge11" class="edge">
<title>param_advAbsFilename&#45;&gt;alg_PEARL_Load</title>
<path fill="none" stroke="black" d="M1316.25,-373.29C1276.87,-360.28 1222.06,-342.18 1186.19,-330.34"/>
<polygon fill="black" stroke="black" points="1187.2,-326.98 1176.6,-327.17 1185,-333.63 1187.2,-326.98"/>
</g>
<!-- alg_GEM_maskDetector -->
<g id="node7" class="node">
<title>alg_GEM_maskDetector</title>
<path fill="lightskyblue" stroke="black" d="M135,-185.61C135,-185.61 12,-185.61 12,-185.61 6,-185.61 0,-179.61 0,-173.61 0,-173.61 0,-161.61 0,-161.61 0,-155.61 6,-149.61 12,-149.61 12,-149.61 135,-149.61 135,-149.61 141,-149.61 147,-155.61 147,-161.61 147,-161.61 147,-173.61 147,-173.61 147,-179.61 141,-185.61 135,-185.61"/>
<text text-anchor="middle" x="73.5" y="-163.91" font-family="Helvetica" font-size="14.00">Mask detectors 1&#45;100</text>
</g>
<!-- alg_GEM_maskDetector&#45;&gt;alg_MayersSampleCorr -->
<g id="edge3" class="edge">
<title>alg_GEM_maskDetector&#45;&gt;alg_MayersSampleCorr</title>
<path fill="none" stroke="black" d="M67.61,-149.56C60.32,-125.02 51.6,-79.84 75.5,-54 93.23,-34.83 238.51,-25.84 340.07,-21.87"/>
<polygon fill="black" stroke="black" points="340.21,-25.37 350.07,-21.49 339.94,-18.37 340.21,-25.37"/>
<text text-anchor="middle" x="122.5" y="-57.8" font-family="Helvetica" font-size="14.00">Use Adv Config</text>
</g>
<!-- alg_PEARL_Divide -->
<g id="node8" class="node">
<title>alg_PEARL_Divide</title>
<path fill="lightskyblue" stroke="black" d="M1227,-36C1227,-36 1072,-36 1072,-36 1066,-36 1060,-30 1060,-24 1060,-24 1060,-12 1060,-12 1060,-6 1066,0 1072,0 1072,0 1227,0 1227,0 1233,0 1239,-6 1239,-12 1239,-12 1239,-24 1239,-24 1239,-30 1233,-36 1227,-36"/>
<text text-anchor="middle" x="1149.5" y="-14.3" font-family="Helvetica" font-size="14.00">Divide: Van ws / Absorb ws</text>
</g>
<!-- alg_PEARL_RebinWorkspace -->
<g id="node10" class="node">
<title>alg_PEARL_RebinWorkspace</title>
<path fill="lightskyblue" stroke="black" d="M1250,-185.61C1250,-185.61 1049,-185.61 1049,-185.61 1043,-185.61 1037,-179.61 1037,-173.61 1037,-173.61 1037,-161.61 1037,-161.61 1037,-155.61 1043,-149.61 1049,-149.61 1049,-149.61 1250,-149.61 1250,-149.61 1256,-149.61 1262,-155.61 1262,-161.61 1262,-161.61 1262,-173.61 1262,-173.61 1262,-179.61 1256,-185.61 1250,-185.61"/>
<text text-anchor="middle" x="1149.5" y="-163.91" font-family="Helvetica" font-size="14.00">Rebin: Van ws to match Absorb ws</text>
</g>
<!-- alg_PEARL_Load&#45;&gt;alg_PEARL_RebinWorkspace -->
<g id="edge12" class="edge">
<title>alg_PEARL_Load&#45;&gt;alg_PEARL_RebinWorkspace</title>
<path fill="none" stroke="black" d="M1149.5,-299C1149.5,-273.67 1149.5,-226.11 1149.5,-195.97"/>
<polygon fill="black" stroke="black" points="1153,-195.72 1149.5,-185.72 1146,-195.72 1153,-195.72"/>
</g>
<!-- alg_PEARL_RebinWorkspace&#45;&gt;alg_PEARL_Divide -->
<g id="edge13" class="edge">
<title>alg_PEARL_RebinWorkspace&#45;&gt;alg_PEARL_Divide</title>
<path fill="none" stroke="black" d="M1149.5,-149.39C1149.5,-124.06 1149.5,-76.5 1149.5,-46.36"/>
<polygon fill="black" stroke="black" points="1153,-46.11 1149.5,-36.11 1146,-46.11 1153,-46.11"/>
</g>
<!-- alg_POLARIS_maskDetector -->
<g id="node11" class="node">
<title>alg_POLARIS_maskDetector</title>
<path fill="lightskyblue" stroke="black" d="M678.5,-185.61C678.5,-185.61 562.5,-185.61 562.5,-185.61 556.5,-185.61 550.5,-179.61 550.5,-173.61 550.5,-173.61 550.5,-161.61 550.5,-161.61 550.5,-155.61 556.5,-149.61 562.5,-149.61 562.5,-149.61 678.5,-149.61 678.5,-149.61 684.5,-149.61 690.5,-155.61 690.5,-161.61 690.5,-161.61 690.5,-173.61 690.5,-173.61 690.5,-179.61 684.5,-185.61 678.5,-185.61"/>
<text text-anchor="middle" x="620.5" y="-163.91" font-family="Helvetica" font-size="14.00">Mask detectors 1&#45;54</text>
</g>
<!-- alg_POLARIS_maskDetector&#45;&gt;alg_MayersSampleCorr -->
<g id="edge7" class="edge">
<title>alg_POLARIS_maskDetector&#45;&gt;alg_MayersSampleCorr</title>
<path fill="none" stroke="black" d="M605.36,-149.46C590.09,-132.62 565.4,-106.67 541.5,-87 521.17,-70.27 496.68,-53.83 476.78,-41.31"/>
<polygon fill="black" stroke="black" points="478.62,-38.33 468.28,-36.02 474.92,-44.27 478.62,-38.33"/>
<text text-anchor="middle" x="565.5" y="-57.8" font-family="Helvetica" font-size="14.00">Use Adv Config</text>
</g>
<!-- if_GEM_isVanadium&#45;&gt;alg_MayersSampleCorr -->
<g id="edge4" class="edge">
<title>if_GEM_isVanadium&#45;&gt;alg_MayersSampleCorr</title>
<path fill="none" stroke="black" d="M166.12,-299.53C167.3,-293.75 168.55,-287.22 169.5,-281.22 183.15,-195.37 135.84,-152.92 192.5,-87 212.2,-64.08 280.62,-46.32 340.47,-34.71"/>
<polygon fill="black" stroke="black" points="341.2,-38.14 350.37,-32.83 339.9,-31.26 341.2,-38.14"/>
<text text-anchor="middle" x="265" y="-163.91" font-family="Helvetica" font-size="14.00">False &#45; Use User Config</text>
</g>
<!-- if_GEM_isVanadium&#45;&gt;alg_GEM_maskDetector -->
<g id="edge2" class="edge">
<title>if_GEM_isVanadium&#45;&gt;alg_GEM_maskDetector</title>
<path fill="none" stroke="black" d="M153.14,-300.7C137.94,-275.48 107.69,-225.32 89.17,-194.59"/>
<polygon fill="black" stroke="black" points="91.98,-192.48 83.82,-185.73 85.99,-196.1 91.98,-192.48"/>
<text text-anchor="middle" x="155.5" y="-270.02" font-family="Helvetica" font-size="14.00">True</text>
</g>
<!-- if_POLARIS_isVanadium&#45;&gt;alg_MayersSampleCorr -->
<g id="edge8" class="edge">
<title>if_POLARIS_isVanadium&#45;&gt;alg_MayersSampleCorr</title>
<path fill="none" stroke="black" d="M697.33,-300.69C700.22,-294.79 703.05,-287.88 704.5,-281.22 705.92,-274.71 704.59,-272.89 704.5,-266.22 703.39,-186.54 745.16,-152.31 699.5,-87 680.68,-60.08 603.94,-42.21 538.67,-31.57"/>
<polygon fill="black" stroke="black" points="539.14,-28.1 528.72,-29.99 538.04,-35.01 539.14,-28.1"/>
<text text-anchor="middle" x="794" y="-163.91" font-family="Helvetica" font-size="14.00">False &#45; Use User Config</text>
</g>
<!-- if_POLARIS_isVanadium&#45;&gt;alg_POLARIS_maskDetector -->
<g id="edge6" class="edge">
<title>if_POLARIS_isVanadium&#45;&gt;alg_POLARIS_maskDetector</title>
<path fill="none" stroke="black" d="M681.22,-300.42C669.6,-275.19 646.72,-225.52 632.6,-194.88"/>
<polygon fill="black" stroke="black" points="635.71,-193.27 628.35,-185.65 629.36,-196.2 635.71,-193.27"/>
<text text-anchor="middle" x="686.5" y="-270.02" font-family="Helvetica" font-size="14.00">True</text>
</g>
</g>
</svg>
