<?xml version="1.0" encoding="UTF-8" standalone="no"?>
<!DOCTYPE svg PUBLIC "-//W3C//DTD SVG 1.1//EN"
 "http://www.w3.org/Graphics/SVG/1.1/DTD/svg11.dtd">
<!-- Generated by graphviz version 2.47.2 (20210527.1257)
 -->
<!-- Title: isisPowderCreateVanadium Pages: 1 -->
<svg width="1671pt" height="1239pt"
 viewBox="0.00 0.00 1670.58 1239.00" xmlns="http://www.w3.org/2000/svg" xmlns:xlink="http://www.w3.org/1999/xlink">
<g id="graph0" class="graph" transform="scale(1 1) rotate(0) translate(4 1235)">
<title>isisPowderCreateVanadium</title>
<polygon fill="white" stroke="transparent" points="-4,4 -4,-1235 1666.58,-1235 1666.58,4 -4,4"/>
<text text-anchor="middle" x="831.29" y="-1215.8" font-family="Helvetica" font-size="14.00">ISISPowder &#45; &#39;create_vanadium&#39;</text>
<!-- label_start -->
<g id="node1" class="node">
<title>label_start</title>
<ellipse fill="lightgrey" stroke="black" cx="218.54" cy="-1190" rx="152.17" ry="18"/>
<text text-anchor="middle" x="218.54" y="-1186.3" font-family="Helvetica" font-size="14.00">Start ISISPowder &#39;create_vanadium&#39;</text>
</g>
<!-- param_calMapping_1 -->
<g id="node4" class="node">
<title>param_calMapping_1</title>
<ellipse fill="khaki" stroke="black" cx="218.54" cy="-1117" rx="102.88" ry="18"/>
<text text-anchor="middle" x="218.54" y="-1113.3" font-family="Helvetica" font-size="14.00">Calibration mapping file</text>
</g>
<!-- label_start&#45;&gt;param_calMapping_1 -->
<g id="edge1" class="edge">
<title>label_start&#45;&gt;param_calMapping_1</title>
<path fill="none" stroke="black" d="M218.54,-1171.81C218.54,-1163.79 218.54,-1154.05 218.54,-1145.07"/>
<polygon fill="black" stroke="black" points="222.04,-1145.03 218.54,-1135.03 215.04,-1145.03 222.04,-1145.03"/>
</g>
<!-- param_apply_absorb -->
<g id="node2" class="node">
<title>param_apply_absorb</title>
<ellipse fill="khaki" stroke="black" cx="815.54" cy="-630" rx="148.37" ry="18"/>
<text text-anchor="middle" x="815.54" y="-626.3" font-family="Helvetica" font-size="14.00">User param: absorption corrections</text>
</g>
<!-- if_apply_absorb -->
<g id="node26" class="node">
<title>if_apply_absorb</title>
<polygon fill="limegreen" stroke="black" points="705.54,-575 574.16,-557 705.54,-539 836.92,-557 705.54,-575"/>
<text text-anchor="middle" x="705.54" y="-553.3" font-family="Helvetica" font-size="14.00">If: absorb corrections</text>
</g>
<!-- param_apply_absorb&#45;&gt;if_apply_absorb -->
<g id="edge15" class="edge">
<title>param_apply_absorb&#45;&gt;if_apply_absorb</title>
<path fill="none" stroke="black" d="M789.47,-612.17C773.35,-601.77 752.59,-588.37 735.75,-577.5"/>
<polygon fill="black" stroke="black" points="737.65,-574.56 727.35,-572.08 733.85,-580.44 737.65,-574.56"/>
</g>
<!-- param_calFileName -->
<g id="node3" class="node">
<title>param_calFileName</title>
<ellipse fill="khaki" stroke="black" cx="703.54" cy="-703" rx="90.98" ry="18"/>
<text text-anchor="middle" x="703.54" y="-699.3" font-family="Helvetica" font-size="14.00">Calibration file name</text>
</g>
<!-- alg_Align -->
<g id="node17" class="node">
<title>alg_Align</title>
<path fill="lightskyblue" stroke="black" d="M637.54,-648C637.54,-648 553.54,-648 553.54,-648 547.54,-648 541.54,-642 541.54,-636 541.54,-636 541.54,-624 541.54,-624 541.54,-618 547.54,-612 553.54,-612 553.54,-612 637.54,-612 637.54,-612 643.54,-612 649.54,-618 649.54,-624 649.54,-624 649.54,-636 649.54,-636 649.54,-642 643.54,-648 637.54,-648"/>
<text text-anchor="middle" x="595.54" y="-626.3" font-family="Helvetica" font-size="14.00">Align Detectors</text>
</g>
<!-- param_calFileName&#45;&gt;alg_Align -->
<g id="edge12" class="edge">
<title>param_calFileName&#45;&gt;alg_Align</title>
<path fill="none" stroke="black" d="M678.49,-685.53C664.09,-676.06 645.78,-664.03 630.03,-653.67"/>
<polygon fill="black" stroke="black" points="631.86,-650.69 621.58,-648.12 628.01,-656.54 631.86,-650.69"/>
</g>
<!-- param_emptyRunNumber -->
<g id="node6" class="node">
<title>param_emptyRunNumber</title>
<ellipse fill="khaki" stroke="black" cx="329.54" cy="-1044" rx="94.48" ry="18"/>
<text text-anchor="middle" x="329.54" y="-1040.3" font-family="Helvetica" font-size="14.00">Empty run number(s)</text>
</g>
<!-- param_calMapping_1&#45;&gt;param_emptyRunNumber -->
<g id="edge4" class="edge">
<title>param_calMapping_1&#45;&gt;param_emptyRunNumber</title>
<path fill="none" stroke="black" d="M244.28,-1099.53C259.42,-1089.85 278.73,-1077.5 295.16,-1066.99"/>
<polygon fill="black" stroke="black" points="297.4,-1069.71 303.94,-1061.38 293.63,-1063.82 297.4,-1069.71"/>
</g>
<!-- param_vanadiumRunNumber -->
<g id="node7" class="node">
<title>param_vanadiumRunNumber</title>
<ellipse fill="khaki" stroke="black" cx="108.54" cy="-1044" rx="108.58" ry="18"/>
<text text-anchor="middle" x="108.54" y="-1040.3" font-family="Helvetica" font-size="14.00">Vanadium run number(s)</text>
</g>
<!-- param_calMapping_1&#45;&gt;param_vanadiumRunNumber -->
<g id="edge2" class="edge">
<title>param_calMapping_1&#45;&gt;param_vanadiumRunNumber</title>
<path fill="none" stroke="black" d="M193.03,-1099.53C178.14,-1089.92 159.16,-1077.67 142.96,-1067.22"/>
<polygon fill="black" stroke="black" points="144.6,-1064.11 134.3,-1061.62 140.8,-1069.99 144.6,-1064.11"/>
</g>
<!-- param_calMapping_2 -->
<g id="node5" class="node">
<title>param_calMapping_2</title>
<ellipse fill="khaki" stroke="black" cx="735.54" cy="-776" rx="102.88" ry="18"/>
<text text-anchor="middle" x="735.54" y="-772.3" font-family="Helvetica" font-size="14.00">Calibration mapping file</text>
</g>
<!-- param_calMapping_2&#45;&gt;param_calFileName -->
<g id="edge11" class="edge">
<title>param_calMapping_2&#45;&gt;param_calFileName</title>
<path fill="none" stroke="black" d="M727.79,-757.81C724.06,-749.53 719.5,-739.41 715.35,-730.19"/>
<polygon fill="black" stroke="black" points="718.52,-728.71 711.22,-721.03 712.13,-731.58 718.52,-728.71"/>
</g>
<!-- proc_LoadCurrentNormWS_2 -->
<g id="node13" class="node">
<title>proc_LoadCurrentNormWS_2</title>
<polygon fill="lightseagreen" stroke="black" points="435.04,-975 188.04,-975 188.04,-939 435.04,-939 435.04,-975"/>
<text text-anchor="middle" x="311.54" y="-953.3" font-family="Helvetica" font-size="14.00">Load current normalised workspace(s)</text>
</g>
<!-- param_emptyRunNumber&#45;&gt;proc_LoadCurrentNormWS_2 -->
<g id="edge5" class="edge">
<title>param_emptyRunNumber&#45;&gt;proc_LoadCurrentNormWS_2</title>
<path fill="none" stroke="black" d="M325.9,-1025.8C323.43,-1014.16 320.13,-998.55 317.31,-985.24"/>
<polygon fill="black" stroke="black" points="320.67,-984.23 315.18,-975.18 313.83,-985.68 320.67,-984.23"/>
<text text-anchor="middle" x="386.04" y="-996.8" font-family="Helvetica" font-size="14.00">InputMode=Summed</text>
</g>
<!-- proc_LoadCurrentNormWS_1 -->
<g id="node12" class="node">
<title>proc_LoadCurrentNormWS_1</title>
<polygon fill="lightseagreen" stroke="black" points="272.04,-921 25.04,-921 25.04,-885 272.04,-885 272.04,-921"/>
<text text-anchor="middle" x="148.54" y="-899.3" font-family="Helvetica" font-size="14.00">Load current normalised workspace(s)</text>
</g>
<!-- param_vanadiumRunNumber&#45;&gt;proc_LoadCurrentNormWS_1 -->
<g id="edge3" class="edge">
<title>param_vanadiumRunNumber&#45;&gt;proc_LoadCurrentNormWS_1</title>
<path fill="none" stroke="black" d="M113.45,-1025.96C120.25,-1002.3 132.64,-959.26 140.73,-931.15"/>
<polygon fill="black" stroke="black" points="144.19,-931.76 143.6,-921.18 137.47,-929.83 144.19,-931.76"/>
<text text-anchor="middle" x="188.04" y="-996.8" font-family="Helvetica" font-size="14.00">InputMode=Summed</text>
</g>
<!-- param_groupingCalFile -->
<g id="node8" class="node">
<title>param_groupingCalFile</title>
<ellipse fill="khaki" stroke="black" cx="987.54" cy="-470" rx="145.67" ry="18"/>
<text text-anchor="middle" x="987.54" y="-466.3" font-family="Helvetica" font-size="14.00">Adv config: Grouping cal file name</text>
</g>
<!-- alg_DiffractionFocusing -->
<g id="node20" class="node">
<title>alg_DiffractionFocusing</title>
<path fill="lightskyblue" stroke="black" d="M845.54,-415C845.54,-415 733.54,-415 733.54,-415 727.54,-415 721.54,-409 721.54,-403 721.54,-403 721.54,-391 721.54,-391 721.54,-385 727.54,-379 733.54,-379 733.54,-379 845.54,-379 845.54,-379 851.54,-379 857.54,-385 857.54,-391 857.54,-391 857.54,-403 857.54,-403 857.54,-409 851.54,-415 845.54,-415"/>
<text text-anchor="middle" x="789.54" y="-393.3" font-family="Helvetica" font-size="14.00">Diffraction Focusing</text>
</g>
<!-- param_groupingCalFile&#45;&gt;alg_DiffractionFocusing -->
<g id="edge17" class="edge">
<title>param_groupingCalFile&#45;&gt;alg_DiffractionFocusing</title>
<path fill="none" stroke="black" d="M942.12,-452.71C913.78,-442.55 877.08,-429.39 846.77,-418.52"/>
<polygon fill="black" stroke="black" points="847.76,-415.16 837.17,-415.08 845.4,-421.75 847.76,-415.16"/>
</g>
<!-- param_rawTOFCropValues -->
<g id="node9" class="node">
<title>param_rawTOFCropValues</title>
<ellipse fill="khaki" stroke="black" cx="456.54" cy="-776" rx="158.67" ry="18"/>
<text text-anchor="middle" x="456.54" y="-772.3" font-family="Helvetica" font-size="14.00">Adv config: Raw TOF cropping values</text>
</g>
<!-- alg_CropRawTOF -->
<g id="node18" class="node">
<title>alg_CropRawTOF</title>
<path fill="lightskyblue" stroke="black" d="M535.04,-721C535.04,-721 378.04,-721 378.04,-721 372.04,-721 366.04,-715 366.04,-709 366.04,-709 366.04,-697 366.04,-697 366.04,-691 372.04,-685 378.04,-685 378.04,-685 535.04,-685 535.04,-685 541.04,-685 547.04,-691 547.04,-697 547.04,-697 547.04,-709 547.04,-709 547.04,-715 541.04,-721 535.04,-721"/>
<text text-anchor="middle" x="456.54" y="-699.3" font-family="Helvetica" font-size="14.00">Crop data to expected TOF</text>
</g>
<!-- param_rawTOFCropValues&#45;&gt;alg_CropRawTOF -->
<g id="edge9" class="edge">
<title>param_rawTOFCropValues&#45;&gt;alg_CropRawTOF</title>
<path fill="none" stroke="black" d="M456.54,-757.81C456.54,-749.79 456.54,-740.05 456.54,-731.07"/>
<polygon fill="black" stroke="black" points="460.04,-731.03 456.54,-721.03 453.04,-731.03 460.04,-731.03"/>
</g>
<!-- param_vanadiumTOFCropValues -->
<g id="node10" class="node">
<title>param_vanadiumTOFCropValues</title>
<ellipse fill="khaki" stroke="black" cx="1330.54" cy="-310" rx="180.87" ry="18"/>
<text text-anchor="middle" x="1330.54" y="-306.3" font-family="Helvetica" font-size="14.00">Adv config: Vanadium TOF cropping values</text>
</g>
<!-- alg_CropVanTOF -->
<g id="node19" class="node">
<title>alg_CropVanTOF</title>
<path fill="lightskyblue" stroke="black" d="M1251.04,-255C1251.04,-255 1094.04,-255 1094.04,-255 1088.04,-255 1082.04,-249 1082.04,-243 1082.04,-243 1082.04,-231 1082.04,-231 1082.04,-225 1088.04,-219 1094.04,-219 1094.04,-219 1251.04,-219 1251.04,-219 1257.04,-219 1263.04,-225 1263.04,-231 1263.04,-231 1263.04,-243 1263.04,-243 1263.04,-249 1257.04,-255 1251.04,-255"/>
<text text-anchor="middle" x="1172.54" y="-233.3" font-family="Helvetica" font-size="14.00">Crop data to expected TOF</text>
</g>
<!-- param_vanadiumTOFCropValues&#45;&gt;alg_CropVanTOF -->
<g id="edge22" class="edge">
<title>param_vanadiumTOFCropValues&#45;&gt;alg_CropVanTOF</title>
<path fill="none" stroke="black" d="M1293.5,-292.35C1271.43,-282.44 1243.22,-269.76 1219.59,-259.14"/>
<polygon fill="black" stroke="black" points="1221.01,-255.94 1210.45,-255.04 1218.14,-262.33 1221.01,-255.94"/>
</g>
<!-- param_vanadiumSplineCoefficient -->
<g id="node11" class="node">
<title>param_vanadiumSplineCoefficient</title>
<ellipse fill="khaki" stroke="black" cx="1495.54" cy="-164" rx="167.07" ry="18"/>
<text text-anchor="middle" x="1495.54" y="-160.3" font-family="Helvetica" font-size="14.00">Adv config: Vanadium Spline Coefficient</text>
</g>
<!-- alg_SplineVanadium -->
<g id="node24" class="node">
<title>alg_SplineVanadium</title>
<path fill="lightskyblue" stroke="black" d="M1386.54,-109C1386.54,-109 1280.54,-109 1280.54,-109 1274.54,-109 1268.54,-103 1268.54,-97 1268.54,-97 1268.54,-85 1268.54,-85 1268.54,-79 1274.54,-73 1280.54,-73 1280.54,-73 1386.54,-73 1386.54,-73 1392.54,-73 1398.54,-79 1398.54,-85 1398.54,-85 1398.54,-97 1398.54,-97 1398.54,-103 1392.54,-109 1386.54,-109"/>
<text text-anchor="middle" x="1333.54" y="-87.3" font-family="Helvetica" font-size="14.00">Spline Background</text>
</g>
<!-- param_vanadiumSplineCoefficient&#45;&gt;alg_SplineVanadium -->
<g id="edge25" class="edge">
<title>param_vanadiumSplineCoefficient&#45;&gt;alg_SplineVanadium</title>
<path fill="none" stroke="black" d="M1457.56,-146.35C1434.94,-136.44 1406.01,-123.76 1381.78,-113.14"/>
<polygon fill="black" stroke="black" points="1382.97,-109.84 1372.41,-109.04 1380.16,-116.26 1382.97,-109.84"/>
</g>
<!-- alg_Subtract_van_empty -->
<g id="node25" class="node">
<title>alg_Subtract_van_empty</title>
<path fill="lightskyblue" stroke="black" d="M268.04,-794C268.04,-794 109.04,-794 109.04,-794 103.04,-794 97.04,-788 97.04,-782 97.04,-782 97.04,-770 97.04,-770 97.04,-764 103.04,-758 109.04,-758 109.04,-758 268.04,-758 268.04,-758 274.04,-758 280.04,-764 280.04,-770 280.04,-770 280.04,-782 280.04,-782 280.04,-788 274.04,-794 268.04,-794"/>
<text text-anchor="middle" x="188.54" y="-772.3" font-family="Helvetica" font-size="14.00">Subtract: vanadium &#45; empty</text>
</g>
<!-- proc_LoadCurrentNormWS_1&#45;&gt;alg_Subtract_van_empty -->
<g id="edge7" class="edge">
<title>proc_LoadCurrentNormWS_1&#45;&gt;alg_Subtract_van_empty</title>
<path fill="none" stroke="black" d="M154.02,-884.88C160.68,-864.05 172.02,-828.64 179.87,-804.09"/>
<polygon fill="black" stroke="black" points="183.29,-804.9 183,-794.31 176.62,-802.77 183.29,-804.9"/>
</g>
<!-- alg_SaveNexusProcessedEmpty -->
<g id="node22" class="node">
<title>alg_SaveNexusProcessedEmpty</title>
<path fill="lightskyblue" stroke="black" d="M316.54,-867C316.54,-867 230.54,-867 230.54,-867 224.54,-867 218.54,-861 218.54,-855 218.54,-855 218.54,-843 218.54,-843 218.54,-837 224.54,-831 230.54,-831 230.54,-831 316.54,-831 316.54,-831 322.54,-831 328.54,-837 328.54,-843 328.54,-843 328.54,-855 328.54,-855 328.54,-861 322.54,-867 316.54,-867"/>
<text text-anchor="middle" x="273.54" y="-845.3" font-family="Helvetica" font-size="14.00">Save Nexus file</text>
</g>
<!-- proc_LoadCurrentNormWS_2&#45;&gt;alg_SaveNexusProcessedEmpty -->
<g id="edge6" class="edge">
<title>proc_LoadCurrentNormWS_2&#45;&gt;alg_SaveNexusProcessedEmpty</title>
<path fill="none" stroke="black" d="M305.44,-938.97C299.43,-922.22 290.18,-896.41 283.18,-876.89"/>
<polygon fill="black" stroke="black" points="286.43,-875.57 279.76,-867.34 279.84,-877.94 286.43,-875.57"/>
</g>
<!-- proc_InstApplyAbsorbCorr -->
<g id="node14" class="node">
<title>proc_InstApplyAbsorbCorr</title>
<polygon fill="lightseagreen" stroke="black" points="753.54,-488 489.54,-488 489.54,-452 753.54,-452 753.54,-488"/>
<text text-anchor="middle" x="621.54" y="-466.3" font-family="Helvetica" font-size="14.00">Inst specific: Apply absorption corrections</text>
</g>
<!-- proc_InstApplyAbsorbCorr&#45;&gt;alg_DiffractionFocusing -->
<g id="edge19" class="edge">
<title>proc_InstApplyAbsorbCorr&#45;&gt;alg_DiffractionFocusing</title>
<path fill="none" stroke="black" d="M661.78,-451.99C685.19,-442.1 714.9,-429.54 739.77,-419.03"/>
<polygon fill="black" stroke="black" points="741.2,-422.23 749.05,-415.11 738.47,-415.78 741.2,-422.23"/>
</g>
<!-- proc_InstMaskPeaks -->
<g id="node15" class="node">
<title>proc_InstMaskPeaks</title>
<polygon fill="lightseagreen" stroke="black" points="1310.54,-182 1034.54,-182 1034.54,-146 1310.54,-146 1310.54,-182"/>
<text text-anchor="middle" x="1172.54" y="-160.3" font-family="Helvetica" font-size="14.00">Inst specific: Mask peaks in Vanadium data</text>
</g>
<!-- proc_InstMaskPeaks&#45;&gt;alg_SplineVanadium -->
<g id="edge26" class="edge">
<title>proc_InstMaskPeaks&#45;&gt;alg_SplineVanadium</title>
<path fill="none" stroke="black" d="M1211.1,-145.99C1233.44,-136.14 1261.76,-123.66 1285.53,-113.17"/>
<polygon fill="black" stroke="black" points="1287,-116.35 1294.73,-109.11 1284.17,-109.95 1287,-116.35"/>
</g>
<!-- proc_InstSaveFocused -->
<g id="node16" class="node">
<title>proc_InstSaveFocused</title>
<polygon fill="lightseagreen" stroke="black" points="881.54,-328 665.54,-328 665.54,-292 881.54,-292 881.54,-328"/>
<text text-anchor="middle" x="773.54" y="-306.3" font-family="Helvetica" font-size="14.00">Inst specific: Save focused banks</text>
</g>
<!-- alg_Align&#45;&gt;if_apply_absorb -->
<g id="edge14" class="edge">
<title>alg_Align&#45;&gt;if_apply_absorb</title>
<path fill="none" stroke="black" d="M621.89,-611.99C637.76,-601.75 658.05,-588.65 674.68,-577.92"/>
<polygon fill="black" stroke="black" points="676.98,-580.6 683.48,-572.24 673.18,-574.72 676.98,-580.6"/>
</g>
<!-- alg_CropRawTOF&#45;&gt;alg_Align -->
<g id="edge13" class="edge">
<title>alg_CropRawTOF&#45;&gt;alg_Align</title>
<path fill="none" stroke="black" d="M489.83,-684.99C508.78,-675.32 532.7,-663.1 553,-652.73"/>
<polygon fill="black" stroke="black" points="554.72,-655.78 562.04,-648.11 551.54,-649.55 554.72,-655.78"/>
</g>
<!-- alg_CropVanTOF&#45;&gt;proc_InstMaskPeaks -->
<g id="edge24" class="edge">
<title>alg_CropVanTOF&#45;&gt;proc_InstMaskPeaks</title>
<path fill="none" stroke="black" d="M1172.54,-218.81C1172.54,-210.79 1172.54,-201.05 1172.54,-192.07"/>
<polygon fill="black" stroke="black" points="1176.04,-192.03 1172.54,-182.03 1169.04,-192.03 1176.04,-192.03"/>
</g>
<!-- alg_DiffractionFocusing&#45;&gt;proc_InstSaveFocused -->
<g id="edge20" class="edge">
<title>alg_DiffractionFocusing&#45;&gt;proc_InstSaveFocused</title>
<path fill="none" stroke="black" d="M786.3,-378.8C784.11,-367.16 781.17,-351.55 778.67,-338.24"/>
<polygon fill="black" stroke="black" points="782.06,-337.36 776.77,-328.18 775.18,-338.65 782.06,-337.36"/>
</g>
<!-- alg_ExtractWsSpectra -->
<g id="node21" class="node">
<title>alg_ExtractWsSpectra</title>
<path fill="lightskyblue" stroke="black" d="M1119.54,-328C1119.54,-328 911.54,-328 911.54,-328 905.54,-328 899.54,-322 899.54,-316 899.54,-316 899.54,-304 899.54,-304 899.54,-298 905.54,-292 911.54,-292 911.54,-292 1119.54,-292 1119.54,-292 1125.54,-292 1131.54,-298 1131.54,-304 1131.54,-304 1131.54,-316 1131.54,-316 1131.54,-322 1125.54,-328 1119.54,-328"/>
<text text-anchor="middle" x="1015.54" y="-306.3" font-family="Helvetica" font-size="14.00">Extract spectra into individual banks</text>
</g>
<!-- alg_DiffractionFocusing&#45;&gt;alg_ExtractWsSpectra -->
<g id="edge21" class="edge">
<title>alg_DiffractionFocusing&#45;&gt;alg_ExtractWsSpectra</title>
<path fill="none" stroke="black" d="M835,-378.9C871.25,-365.27 922.13,-346.13 960.64,-331.65"/>
<polygon fill="black" stroke="black" points="962.02,-334.87 970.15,-328.07 959.56,-328.32 962.02,-334.87"/>
<text text-anchor="middle" x="995.54" y="-349.8" font-family="Helvetica" font-size="14.00">Creating vanadium splines</text>
</g>
<!-- alg_ExtractWsSpectra&#45;&gt;alg_CropVanTOF -->
<g id="edge23" class="edge">
<title>alg_ExtractWsSpectra&#45;&gt;alg_CropVanTOF</title>
<path fill="none" stroke="black" d="M1053.15,-291.99C1074.83,-282.19 1102.3,-269.77 1125.42,-259.31"/>
<polygon fill="black" stroke="black" points="1127.03,-262.42 1134.7,-255.11 1124.14,-256.05 1127.03,-262.42"/>
</g>
<!-- alg_SaveNexusProcessedEmpty&#45;&gt;alg_Subtract_van_empty -->
<g id="edge8" class="edge">
<title>alg_SaveNexusProcessedEmpty&#45;&gt;alg_Subtract_van_empty</title>
<path fill="none" stroke="black" d="M252.96,-830.81C242.11,-821.74 228.62,-810.48 216.79,-800.6"/>
<polygon fill="black" stroke="black" points="218.85,-797.75 208.93,-794.03 214.36,-803.13 218.85,-797.75"/>
</g>
<!-- alg_SaveNexusProcessed -->
<g id="node23" class="node">
<title>alg_SaveNexusProcessed</title>
<path fill="lightskyblue" stroke="black" d="M1376.54,-36C1376.54,-36 1290.54,-36 1290.54,-36 1284.54,-36 1278.54,-30 1278.54,-24 1278.54,-24 1278.54,-12 1278.54,-12 1278.54,-6 1284.54,0 1290.54,0 1290.54,0 1376.54,0 1376.54,0 1382.54,0 1388.54,-6 1388.54,-12 1388.54,-12 1388.54,-24 1388.54,-24 1388.54,-30 1382.54,-36 1376.54,-36"/>
<text text-anchor="middle" x="1333.54" y="-14.3" font-family="Helvetica" font-size="14.00">Save Nexus file</text>
</g>
<!-- alg_SplineVanadium&#45;&gt;alg_SaveNexusProcessed -->
<g id="edge27" class="edge">
<title>alg_SplineVanadium&#45;&gt;alg_SaveNexusProcessed</title>
<path fill="none" stroke="black" d="M1333.54,-72.81C1333.54,-64.79 1333.54,-55.05 1333.54,-46.07"/>
<polygon fill="black" stroke="black" points="1337.04,-46.03 1333.54,-36.03 1330.04,-46.03 1337.04,-46.03"/>
</g>
<!-- alg_Subtract_van_empty&#45;&gt;alg_CropRawTOF -->
<g id="edge10" class="edge">
<title>alg_Subtract_van_empty&#45;&gt;alg_CropRawTOF</title>
<path fill="none" stroke="black" d="M252.73,-757.99C291.65,-747.68 341.45,-734.49 382.09,-723.72"/>
<polygon fill="black" stroke="black" points="383.17,-727.06 391.94,-721.11 381.38,-720.29 383.17,-727.06"/>
</g>
<!-- if_apply_absorb&#45;&gt;proc_InstApplyAbsorbCorr -->
<g id="edge16" class="edge">
<title>if_apply_absorb&#45;&gt;proc_InstApplyAbsorbCorr</title>
<path fill="none" stroke="black" d="M690.52,-540.8C678.07,-528.2 660.12,-510.03 645.65,-495.4"/>
<polygon fill="black" stroke="black" points="647.97,-492.76 638.45,-488.11 642.99,-497.68 647.97,-492.76"/>
<text text-anchor="middle" x="682.54" y="-509.8" font-family="Helvetica" font-size="14.00">True</text>
</g>
<!-- if_apply_absorb&#45;&gt;alg_DiffractionFocusing -->
<g id="edge18" class="edge">
<title>if_apply_absorb&#45;&gt;alg_DiffractionFocusing</title>
<path fill="none" stroke="black" d="M721.38,-540.88C734.12,-527.92 751.65,-508.2 762.54,-488 773.27,-468.1 780.29,-443.38 784.48,-424.88"/>
<polygon fill="black" stroke="black" points="787.91,-425.56 786.57,-415.05 781.07,-424.1 787.91,-425.56"/>
<text text-anchor="middle" x="793.54" y="-466.3" font-family="Helvetica" font-size="14.00">False</text>
</g>
</g>
</svg>
