<?xml version="1.0" encoding="UTF-8" standalone="no"?>
<!DOCTYPE svg PUBLIC "-//W3C//DTD SVG 1.1//EN"
 "http://www.w3.org/Graphics/SVG/1.1/DTD/svg11.dtd">
<!-- Generated by graphviz version 2.47.2 (20210527.1257)
 -->
<!-- Title: isisPowderCreateVanadium Pages: 1 -->
<svg width="1143pt" height="606pt"
 viewBox="0.00 0.00 1142.74 606.48" xmlns="http://www.w3.org/2000/svg" xmlns:xlink="http://www.w3.org/1999/xlink">
<g id="graph0" class="graph" transform="scale(1 1) rotate(0) translate(4 602.48)">
<title>isisPowderCreateVanadium</title>
<polygon fill="white" stroke="transparent" points="-4,4 -4,-602.48 1138.74,-602.48 1138.74,4 -4,4"/>
<text text-anchor="middle" x="567.37" y="-583.28" font-family="Helvetica" font-size="14.00">ISISPowder &#45; Normalise By Current</text>
<!-- label_normaliseByCurrentGeneric -->
<g id="node1" class="node">
<title>label_normaliseByCurrentGeneric</title>
<ellipse fill="lightgrey" stroke="black" cx="133.24" cy="-557.48" rx="133.48" ry="18"/>
<text text-anchor="middle" x="133.24" y="-553.78" font-family="Helvetica" font-size="14.00">Normalise by Current &#45; Generic</text>
</g>
<!-- alg_NormaliseByCurrent -->
<g id="node7" class="node">
<title>alg_NormaliseByCurrent</title>
<path fill="lightskyblue" stroke="black" d="M193.74,-503.48C193.74,-503.48 72.74,-503.48 72.74,-503.48 66.74,-503.48 60.74,-497.48 60.74,-491.48 60.74,-491.48 60.74,-479.48 60.74,-479.48 60.74,-473.48 66.74,-467.48 72.74,-467.48 72.74,-467.48 193.74,-467.48 193.74,-467.48 199.74,-467.48 205.74,-473.48 205.74,-479.48 205.74,-479.48 205.74,-491.48 205.74,-491.48 205.74,-497.48 199.74,-503.48 193.74,-503.48"/>
<text text-anchor="middle" x="133.24" y="-481.78" font-family="Helvetica" font-size="14.00">Normalise by Current</text>
</g>
<!-- label_normaliseByCurrentGeneric&#45;&gt;alg_NormaliseByCurrent -->
<g id="edge1" class="edge">
<title>label_normaliseByCurrentGeneric&#45;&gt;alg_NormaliseByCurrent</title>
<path fill="none" stroke="black" d="M133.24,-539.18C133.24,-531.46 133.24,-522.19 133.24,-513.59"/>
<polygon fill="black" stroke="black" points="136.74,-513.58 133.24,-503.58 129.74,-513.58 136.74,-513.58"/>
</g>
<!-- label_normaliseByCurrentPearl -->
<g id="node2" class="node">
<title>label_normaliseByCurrentPearl</title>
<ellipse fill="lightgrey" stroke="black" cx="415.24" cy="-557.48" rx="130.78" ry="18"/>
<text text-anchor="middle" x="415.24" y="-553.78" font-family="Helvetica" font-size="14.00">Normalise by Current &#45; PEARL</text>
</g>
<!-- alg_ExtractSpectrumPearl -->
<g id="node12" class="node">
<title>alg_ExtractSpectrumPearl</title>
<path fill="lightskyblue" stroke="black" d="M719.74,-503.48C719.74,-503.48 622.74,-503.48 622.74,-503.48 616.74,-503.48 610.74,-497.48 610.74,-491.48 610.74,-491.48 610.74,-479.48 610.74,-479.48 610.74,-473.48 616.74,-467.48 622.74,-467.48 622.74,-467.48 719.74,-467.48 719.74,-467.48 725.74,-467.48 731.74,-473.48 731.74,-479.48 731.74,-479.48 731.74,-491.48 731.74,-491.48 731.74,-497.48 725.74,-503.48 719.74,-503.48"/>
<text text-anchor="middle" x="671.24" y="-481.78" font-family="Helvetica" font-size="14.00">Extract Spectrum</text>
</g>
<!-- label_normaliseByCurrentPearl&#45;&gt;alg_ExtractSpectrumPearl -->
<g id="edge2" class="edge">
<title>label_normaliseByCurrentPearl&#45;&gt;alg_ExtractSpectrumPearl</title>
<path fill="none" stroke="black" d="M471.1,-541.2C509.16,-530.8 559.84,-516.94 600.69,-505.77"/>
<polygon fill="black" stroke="black" points="601.85,-509.08 610.57,-503.07 600.01,-502.33 601.85,-509.08"/>
</g>
<!-- param_advConfigMonitorSpectrum -->
<g id="node3" class="node">
<title>param_advConfigMonitorSpectrum</title>
<ellipse fill="khaki" stroke="black" cx="689.24" cy="-557.48" rx="125.38" ry="18"/>
<text text-anchor="middle" x="689.24" y="-553.78" font-family="Helvetica" font-size="14.00">Adv config: Monitor spectrum</text>
</g>
<!-- param_advConfigMonitorSpectrum&#45;&gt;alg_ExtractSpectrumPearl -->
<g id="edge4" class="edge">
<title>param_advConfigMonitorSpectrum&#45;&gt;alg_ExtractSpectrumPearl</title>
<path fill="none" stroke="black" d="M684.79,-539.18C682.78,-531.38 680.37,-521.99 678.14,-513.31"/>
<polygon fill="black" stroke="black" points="681.52,-512.4 675.64,-503.58 674.74,-514.14 681.52,-512.4"/>
</g>
<!-- param_advConfigMonitorLambdaCropRange -->
<g id="node4" class="node">
<title>param_advConfigMonitorLambdaCropRange</title>
<ellipse fill="khaki" stroke="black" cx="889.24" cy="-404.61" rx="129.3" ry="26.74"/>
<text text-anchor="middle" x="889.24" y="-408.41" font-family="Helvetica" font-size="14.00">Adv config:</text>
<text text-anchor="middle" x="889.24" y="-393.41" font-family="Helvetica" font-size="14.00"> Monitor lambda crop range</text>
</g>
<!-- alg_CropWorkspace -->
<g id="node11" class="node">
<title>alg_CropWorkspace</title>
<path fill="lightskyblue" stroke="black" d="M766.74,-341.74C766.74,-341.74 673.74,-341.74 673.74,-341.74 667.74,-341.74 661.74,-335.74 661.74,-329.74 661.74,-329.74 661.74,-317.74 661.74,-317.74 661.74,-311.74 667.74,-305.74 673.74,-305.74 673.74,-305.74 766.74,-305.74 766.74,-305.74 772.74,-305.74 778.74,-311.74 778.74,-317.74 778.74,-317.74 778.74,-329.74 778.74,-329.74 778.74,-335.74 772.74,-341.74 766.74,-341.74"/>
<text text-anchor="middle" x="720.24" y="-320.04" font-family="Helvetica" font-size="14.00">Crop Workspace</text>
</g>
<!-- param_advConfigMonitorLambdaCropRange&#45;&gt;alg_CropWorkspace -->
<g id="edge6" class="edge">
<title>param_advConfigMonitorLambdaCropRange&#45;&gt;alg_CropWorkspace</title>
<path fill="none" stroke="black" d="M838.07,-379.73C815.12,-369.02 788.26,-356.49 765.99,-346.09"/>
<polygon fill="black" stroke="black" points="767.29,-342.84 756.75,-341.78 764.33,-349.18 767.29,-342.84"/>
</g>
<!-- param_advConfigMonitorSplineCoefficient -->
<g id="node5" class="node">
<title>param_advConfigMonitorSplineCoefficient</title>
<ellipse fill="khaki" stroke="black" cx="898.24" cy="-242.87" rx="120.42" ry="26.74"/>
<text text-anchor="middle" x="898.24" y="-246.67" font-family="Helvetica" font-size="14.00">Adv config:</text>
<text text-anchor="middle" x="898.24" y="-231.67" font-family="Helvetica" font-size="14.00"> Monitor spline coefficient</text>
</g>
<!-- alg_SplineBackground -->
<g id="node15" class="node">
<title>alg_SplineBackground</title>
<path fill="lightskyblue" stroke="black" d="M951.24,-180C951.24,-180 845.24,-180 845.24,-180 839.24,-180 833.24,-174 833.24,-168 833.24,-168 833.24,-156 833.24,-156 833.24,-150 839.24,-144 845.24,-144 845.24,-144 951.24,-144 951.24,-144 957.24,-144 963.24,-150 963.24,-156 963.24,-156 963.24,-168 963.24,-168 963.24,-174 957.24,-180 951.24,-180"/>
<text text-anchor="middle" x="898.24" y="-158.3" font-family="Helvetica" font-size="14.00">Spline Background</text>
</g>
<!-- param_advConfigMonitorSplineCoefficient&#45;&gt;alg_SplineBackground -->
<g id="edge10" class="edge">
<title>param_advConfigMonitorSplineCoefficient&#45;&gt;alg_SplineBackground</title>
<path fill="none" stroke="black" d="M898.24,-215.61C898.24,-207.51 898.24,-198.57 898.24,-190.39"/>
<polygon fill="black" stroke="black" points="901.74,-190.22 898.24,-180.22 894.74,-190.22 901.74,-190.22"/>
</g>
<!-- param_inputWorkspace -->
<g id="node6" class="node">
<title>param_inputWorkspace</title>
<ellipse fill="khaki" stroke="black" cx="1010.24" cy="-557.48" rx="105.08" ry="18"/>
<text text-anchor="middle" x="1010.24" y="-553.78" font-family="Helvetica" font-size="14.00">Workspace to normalise</text>
</g>
<!-- alg_ConvertUnitsWavelengthInputWs -->
<g id="node10" class="node">
<title>alg_ConvertUnitsWavelengthInputWs</title>
<path fill="lightskyblue" stroke="black" d="M1122.74,-341.74C1122.74,-341.74 969.74,-341.74 969.74,-341.74 963.74,-341.74 957.74,-335.74 957.74,-329.74 957.74,-329.74 957.74,-317.74 957.74,-317.74 957.74,-311.74 963.74,-305.74 969.74,-305.74 969.74,-305.74 1122.74,-305.74 1122.74,-305.74 1128.74,-305.74 1134.74,-311.74 1134.74,-317.74 1134.74,-317.74 1134.74,-329.74 1134.74,-329.74 1134.74,-335.74 1128.74,-341.74 1122.74,-341.74"/>
<text text-anchor="middle" x="1046.24" y="-320.04" font-family="Helvetica" font-size="14.00">Convert Units: Wavelength</text>
</g>
<!-- param_inputWorkspace&#45;&gt;alg_ConvertUnitsWavelengthInputWs -->
<g id="edge11" class="edge">
<title>param_inputWorkspace&#45;&gt;alg_ConvertUnitsWavelengthInputWs</title>
<path fill="none" stroke="black" d="M1012.89,-539.44C1019.07,-499.6 1034.53,-400.08 1042.03,-351.83"/>
<polygon fill="black" stroke="black" points="1045.51,-352.22 1043.59,-341.81 1038.59,-351.15 1045.51,-352.22"/>
</g>
<!-- param_inputWorkspace&#45;&gt;alg_ExtractSpectrumPearl -->
<g id="edge3" class="edge">
<title>param_inputWorkspace&#45;&gt;alg_ExtractSpectrumPearl</title>
<path fill="none" stroke="black" d="M945.68,-543.15C887.47,-531.13 802.06,-513.49 742.01,-501.09"/>
<polygon fill="black" stroke="black" points="742.36,-497.59 731.86,-499 740.94,-504.45 742.36,-497.59"/>
</g>
<!-- alg_ConvertUnitsTOF -->
<g id="node8" class="node">
<title>alg_ConvertUnitsTOF</title>
<path fill="lightskyblue" stroke="black" d="M1027.24,-36C1027.24,-36 917.24,-36 917.24,-36 911.24,-36 905.24,-30 905.24,-24 905.24,-24 905.24,-12 905.24,-12 905.24,-6 911.24,0 917.24,0 917.24,0 1027.24,0 1027.24,0 1033.24,0 1039.24,-6 1039.24,-12 1039.24,-12 1039.24,-24 1039.24,-24 1039.24,-30 1033.24,-36 1027.24,-36"/>
<text text-anchor="middle" x="972.24" y="-14.3" font-family="Helvetica" font-size="14.00">Convert Units: TOF</text>
</g>
<!-- alg_ConvertUnitsWavelength -->
<g id="node9" class="node">
<title>alg_ConvertUnitsWavelength</title>
<path fill="lightskyblue" stroke="black" d="M729.74,-422.61C729.74,-422.61 576.74,-422.61 576.74,-422.61 570.74,-422.61 564.74,-416.61 564.74,-410.61 564.74,-410.61 564.74,-398.61 564.74,-398.61 564.74,-392.61 570.74,-386.61 576.74,-386.61 576.74,-386.61 729.74,-386.61 729.74,-386.61 735.74,-386.61 741.74,-392.61 741.74,-398.61 741.74,-398.61 741.74,-410.61 741.74,-410.61 741.74,-416.61 735.74,-422.61 729.74,-422.61"/>
<text text-anchor="middle" x="653.24" y="-400.91" font-family="Helvetica" font-size="14.00">Convert Units: Wavelength</text>
</g>
<!-- alg_ConvertUnitsWavelength&#45;&gt;alg_CropWorkspace -->
<g id="edge7" class="edge">
<title>alg_ConvertUnitsWavelength&#45;&gt;alg_CropWorkspace</title>
<path fill="none" stroke="black" d="M667.78,-386.5C676.91,-375.75 688.84,-361.7 699.02,-349.72"/>
<polygon fill="black" stroke="black" points="701.92,-351.71 705.73,-341.82 696.59,-347.18 701.92,-351.71"/>
</g>
<!-- alg_NormaliseToMonitor -->
<g id="node14" class="node">
<title>alg_NormaliseToMonitor</title>
<path fill="lightskyblue" stroke="black" d="M1031.74,-108C1031.74,-108 912.74,-108 912.74,-108 906.74,-108 900.74,-102 900.74,-96 900.74,-96 900.74,-84 900.74,-84 900.74,-78 906.74,-72 912.74,-72 912.74,-72 1031.74,-72 1031.74,-72 1037.74,-72 1043.74,-78 1043.74,-84 1043.74,-84 1043.74,-96 1043.74,-96 1043.74,-102 1037.74,-108 1031.74,-108"/>
<text text-anchor="middle" x="972.24" y="-86.3" font-family="Helvetica" font-size="14.00">Normalise to monitor</text>
</g>
<!-- alg_ConvertUnitsWavelengthInputWs&#45;&gt;alg_NormaliseToMonitor -->
<g id="edge13" class="edge">
<title>alg_ConvertUnitsWavelengthInputWs&#45;&gt;alg_NormaliseToMonitor</title>
<path fill="none" stroke="black" d="M1044.44,-305.44C1041.94,-284.07 1036.61,-246.79 1027.24,-216 1016.52,-180.76 998.55,-142.25 986.08,-117.42"/>
<polygon fill="black" stroke="black" points="989.09,-115.62 981.44,-108.3 982.85,-118.8 989.09,-115.62"/>
</g>
<!-- alg_MaskBins -->
<g id="node13" class="node">
<title>alg_MaskBins</title>
<path fill="lightskyblue" stroke="black" d="M748.24,-260.87C748.24,-260.87 692.24,-260.87 692.24,-260.87 686.24,-260.87 680.24,-254.87 680.24,-248.87 680.24,-248.87 680.24,-236.87 680.24,-236.87 680.24,-230.87 686.24,-224.87 692.24,-224.87 692.24,-224.87 748.24,-224.87 748.24,-224.87 754.24,-224.87 760.24,-230.87 760.24,-236.87 760.24,-236.87 760.24,-248.87 760.24,-248.87 760.24,-254.87 754.24,-260.87 748.24,-260.87"/>
<text text-anchor="middle" x="720.24" y="-239.17" font-family="Helvetica" font-size="14.00">Mask Bins</text>
</g>
<!-- alg_CropWorkspace&#45;&gt;alg_MaskBins -->
<g id="edge8" class="edge">
<title>alg_CropWorkspace&#45;&gt;alg_MaskBins</title>
<path fill="none" stroke="black" d="M720.24,-305.63C720.24,-295.6 720.24,-282.71 720.24,-271.29"/>
<polygon fill="black" stroke="black" points="723.74,-270.95 720.24,-260.95 716.74,-270.95 723.74,-270.95"/>
</g>
<!-- alg_ExtractSpectrumPearl&#45;&gt;alg_ConvertUnitsWavelength -->
<g id="edge5" class="edge">
<title>alg_ExtractSpectrumPearl&#45;&gt;alg_ConvertUnitsWavelength</title>
<path fill="none" stroke="black" d="M667.33,-467.37C665.02,-457.24 662.04,-444.18 659.42,-432.68"/>
<polygon fill="black" stroke="black" points="662.77,-431.66 657.14,-422.69 655.95,-433.22 662.77,-431.66"/>
</g>
<!-- alg_MaskBins&#45;&gt;alg_SplineBackground -->
<g id="edge9" class="edge">
<title>alg_MaskBins&#45;&gt;alg_SplineBackground</title>
<path fill="none" stroke="black" d="M751.38,-224.86C757.26,-221.81 763.4,-218.73 769.24,-216 793.52,-204.63 820.94,-193.18 844.23,-183.85"/>
<polygon fill="black" stroke="black" points="845.61,-187.07 853.6,-180.12 843.02,-180.56 845.61,-187.07"/>
</g>
<!-- alg_NormaliseToMonitor&#45;&gt;alg_ConvertUnitsTOF -->
<g id="edge14" class="edge">
<title>alg_NormaliseToMonitor&#45;&gt;alg_ConvertUnitsTOF</title>
<path fill="none" stroke="black" d="M972.24,-71.7C972.24,-63.98 972.24,-54.71 972.24,-46.11"/>
<polygon fill="black" stroke="black" points="975.74,-46.1 972.24,-36.1 968.74,-46.1 975.74,-46.1"/>
</g>
<!-- alg_SplineBackground&#45;&gt;alg_NormaliseToMonitor -->
<g id="edge12" class="edge">
<title>alg_SplineBackground&#45;&gt;alg_NormaliseToMonitor</title>
<path fill="none" stroke="black" d="M916.53,-143.7C925.67,-135.05 936.88,-124.45 946.84,-115.03"/>
<polygon fill="black" stroke="black" points="949.3,-117.52 954.16,-108.1 944.49,-112.43 949.3,-117.52"/>
</g>
</g>
</svg>
