<?xml version="1.0" encoding="UTF-8" standalone="no"?>
<!DOCTYPE svg PUBLIC "-//W3C//DTD SVG 1.1//EN"
 "http://www.w3.org/Graphics/SVG/1.1/DTD/svg11.dtd">
<!-- Generated by graphviz version 7.0.5 (20221231.0122)
 -->
<!-- Title: ISISIndirectDiffractionReduction Pages: 1 -->
<svg width="1612pt" height="1452pt"
 viewBox="0.00 0.00 1611.63 1452.00" xmlns="http://www.w3.org/2000/svg" xmlns:xlink="http://www.w3.org/1999/xlink">
<g id="graph0" class="graph" transform="scale(1 1) rotate(0) translate(4 1448)">
<title>ISISIndirectDiffractionReduction</title>
<polygon fill="white" stroke="none" points="-4,4 -4,-1448 1607.63,-1448 1607.63,4 -4,4"/>
<text text-anchor="middle" x="801.82" y="-1428.8" font-family="Helvetica,sans-Serif" font-size="14.00">ISISIndirectDiffractionReduction Flowchart</text>
<!-- need_to_unwrap -->
<g id="node1" class="node">
<title>need_to_unwrap</title>
<polygon fill="limegreen" stroke="black" points="1128.51,-1234.5 949.03,-1216.5 1128.51,-1198.5 1307.98,-1216.5 1128.51,-1234.5"/>
<text text-anchor="middle" x="1128.51" y="-1212.8" font-family="Helvetica,sans-Serif" font-size="14.00">Need To Unwrap Monitor?</text>
</g>
<!-- unwrap_monitor -->
<g id="node18" class="node">
<title>unwrap_monitor</title>
<polygon fill="lightseagreen" stroke="black" points="1272.51,-1139 986.51,-1139 986.51,-1086 1272.51,-1086 1272.51,-1139"/>
<text text-anchor="middle" x="1129.51" y="-1123.8" font-family="Helvetica,sans-Serif" font-size="14.00">unwrap_monitor</text>
<text text-anchor="middle" x="1129.51" y="-1108.8" font-family="Helvetica,sans-Serif" font-size="14.00">Unwraps monitor based on IPF options</text>
<text text-anchor="middle" x="1129.51" y="-1093.8" font-family="Helvetica,sans-Serif" font-size="14.00">using UnwrapMonitor algorithm.</text>
</g>
<!-- need_to_unwrap&#45;&gt;unwrap_monitor -->
<g id="edge19" class="edge">
<title>need_to_unwrap&#45;&gt;unwrap_monitor</title>
<path fill="none" stroke="black" d="M1128.68,-1198.2C1128.8,-1185.21 1128.98,-1166.94 1129.14,-1150.69"/>
<polygon fill="black" stroke="black" points="1132.64,-1150.87 1129.24,-1140.84 1125.64,-1150.8 1132.64,-1150.87"/>
<text text-anchor="middle" x="1140.01" y="-1160.8" font-family="Helvetica,sans-Serif" font-size="14.00">Yes</text>
</g>
<!-- process_monitor_efficiency -->
<g id="node19" class="node">
<title>process_monitor_efficiency</title>
<polygon fill="lightseagreen" stroke="black" points="1421.51,-927 1171.51,-927 1171.51,-874 1421.51,-874 1421.51,-927"/>
<text text-anchor="middle" x="1296.51" y="-911.8" font-family="Helvetica,sans-Serif" font-size="14.00">process_monitor_efficiency</text>
<text text-anchor="middle" x="1296.51" y="-896.8" font-family="Helvetica,sans-Serif" font-size="14.00">Corrects for monitor efficiency by</text>
<text text-anchor="middle" x="1296.51" y="-881.8" font-family="Helvetica,sans-Serif" font-size="14.00">area, thickness and attenuation.</text>
</g>
<!-- need_to_unwrap&#45;&gt;process_monitor_efficiency -->
<g id="edge24" class="edge">
<title>need_to_unwrap&#45;&gt;process_monitor_efficiency</title>
<path fill="none" stroke="black" d="M1182.01,-1203.38C1216.49,-1192.58 1258.95,-1173.04 1281.51,-1139 1292.28,-1122.74 1295.32,-1001.25 1296.17,-938.61"/>
<polygon fill="black" stroke="black" points="1299.67,-938.84 1296.29,-928.79 1292.67,-938.75 1299.67,-938.84"/>
<text text-anchor="middle" x="1303.01" y="-1046.3" font-family="Helvetica,sans-Serif" font-size="14.00">No</text>
</g>
<!-- is_multi_frame -->
<g id="node2" class="node">
<title>is_multi_frame</title>
<polygon fill="limegreen" stroke="black" points="861.51,-376 723.76,-358 861.51,-340 999.25,-358 861.51,-376"/>
<text text-anchor="middle" x="861.51" y="-354.3" font-family="Helvetica,sans-Serif" font-size="14.00">Is Multiple Frames?</text>
</g>
<!-- fold_chopped -->
<g id="node24" class="node">
<title>fold_chopped</title>
<polygon fill="lightseagreen" stroke="black" points="892.01,-289 695.01,-289 695.01,-236 892.01,-236 892.01,-289"/>
<text text-anchor="middle" x="793.51" y="-273.8" font-family="Helvetica,sans-Serif" font-size="14.00">fold_chopped</text>
<text text-anchor="middle" x="793.51" y="-258.8" font-family="Helvetica,sans-Serif" font-size="14.00">Folds multiple frames into</text>
<text text-anchor="middle" x="793.51" y="-243.8" font-family="Helvetica,sans-Serif" font-size="14.00">a single reduction.</text>
</g>
<!-- is_multi_frame&#45;&gt;fold_chopped -->
<g id="edge38" class="edge">
<title>is_multi_frame&#45;&gt;fold_chopped</title>
<path fill="none" stroke="black" d="M849.97,-341.14C841.52,-329.51 829.71,-313.28 819.07,-298.65"/>
<polygon fill="black" stroke="black" points="821.9,-296.6 813.19,-290.57 816.24,-300.71 821.9,-296.6"/>
<text text-anchor="middle" x="848.01" y="-310.8" font-family="Helvetica,sans-Serif" font-size="14.00">Yes</text>
</g>
<!-- rename_reduction -->
<g id="node25" class="node">
<title>rename_reduction</title>
<polygon fill="lightseagreen" stroke="black" points="974.51,-199 746.51,-199 746.51,-146 974.51,-146 974.51,-199"/>
<text text-anchor="middle" x="860.51" y="-183.8" font-family="Helvetica,sans-Serif" font-size="14.00">rename_reduction</text>
<text text-anchor="middle" x="860.51" y="-168.8" font-family="Helvetica,sans-Serif" font-size="14.00">Renames reduced workspaces</text>
<text text-anchor="middle" x="860.51" y="-153.8" font-family="Helvetica,sans-Serif" font-size="14.00">as per the IPF options.</text>
</g>
<!-- is_multi_frame&#45;&gt;rename_reduction -->
<g id="edge40" class="edge">
<title>is_multi_frame&#45;&gt;rename_reduction</title>
<path fill="none" stroke="black" d="M874.01,-341.35C883.64,-328.23 896.18,-308.56 901.51,-289 907.69,-266.27 908.25,-258.57 901.51,-236 898.7,-226.62 893.99,-217.33 888.73,-208.91"/>
<polygon fill="black" stroke="black" points="891.72,-207.07 883.24,-200.71 885.9,-210.97 891.72,-207.07"/>
<text text-anchor="middle" x="915.01" y="-258.8" font-family="Helvetica,sans-Serif" font-size="14.00">No</text>
</g>
<!-- InputFiles -->
<g id="node3" class="node">
<title>InputFiles</title>
<ellipse fill="khaki" stroke="black" cx="849.51" cy="-1403" rx="54.69" ry="18"/>
<text text-anchor="middle" x="849.51" y="-1399.3" font-family="Helvetica,sans-Serif" font-size="14.00">InputFiles</text>
</g>
<!-- load_files -->
<g id="node15" class="node">
<title>load_files</title>
<polygon fill="lightseagreen" stroke="black" points="1263.51,-1348 943.51,-1348 943.51,-1280 1263.51,-1280 1263.51,-1348"/>
<text text-anchor="middle" x="1103.51" y="-1332.8" font-family="Helvetica,sans-Serif" font-size="14.00">load_files</text>
<text text-anchor="middle" x="1103.51" y="-1317.8" font-family="Helvetica,sans-Serif" font-size="14.00">Loads run files and instrument parameters.</text>
<text text-anchor="middle" x="1103.51" y="-1302.8" font-family="Helvetica,sans-Serif" font-size="14.00">Chops data into multiple frames if required.</text>
<text text-anchor="middle" x="1103.51" y="-1287.8" font-family="Helvetica,sans-Serif" font-size="14.00">Summs runs if required.</text>
</g>
<!-- InputFiles&#45;&gt;load_files -->
<g id="edge1" class="edge">
<title>InputFiles&#45;&gt;load_files</title>
<path fill="none" stroke="black" d="M886.44,-1389.35C915.05,-1379.55 956.23,-1365.45 995.04,-1352.15"/>
<polygon fill="black" stroke="black" points="996.16,-1355.47 1004.49,-1348.92 993.89,-1348.85 996.16,-1355.47"/>
</g>
<!-- SumFiles -->
<g id="node4" class="node">
<title>SumFiles</title>
<ellipse fill="khaki" stroke="black" cx="973.51" cy="-1403" rx="51.19" ry="18"/>
<text text-anchor="middle" x="973.51" y="-1399.3" font-family="Helvetica,sans-Serif" font-size="14.00">SumFiles</text>
</g>
<!-- SumFiles&#45;&gt;load_files -->
<g id="edge5" class="edge">
<title>SumFiles&#45;&gt;load_files</title>
<path fill="none" stroke="black" d="M996.45,-1386.65C1009.79,-1377.71 1027.29,-1366.01 1044.25,-1354.66"/>
<polygon fill="black" stroke="black" points="1045.97,-1357.72 1052.33,-1349.25 1042.08,-1351.9 1045.97,-1357.72"/>
</g>
<!-- CalibrationFile -->
<g id="node5" class="node">
<title>CalibrationFile</title>
<ellipse fill="khaki" stroke="black" cx="370.51" cy="-996" rx="74.99" ry="18"/>
<text text-anchor="middle" x="370.51" y="-992.3" font-family="Helvetica,sans-Serif" font-size="14.00">CalibrationFile</text>
</g>
<!-- AlignDetectors -->
<g id="node34" class="node">
<title>AlignDetectors</title>
<ellipse fill="lightgrey" stroke="black" cx="375.51" cy="-900.5" rx="77.19" ry="18"/>
<text text-anchor="middle" x="375.51" y="-896.8" font-family="Helvetica,sans-Serif" font-size="14.00">AlignDetectors</text>
</g>
<!-- CalibrationFile&#45;&gt;AlignDetectors -->
<g id="edge8" class="edge">
<title>CalibrationFile&#45;&gt;AlignDetectors</title>
<path fill="none" stroke="black" d="M371.42,-977.85C372.14,-964.49 373.14,-945.65 373.98,-930.03"/>
<polygon fill="black" stroke="black" points="377.46,-930.54 374.5,-920.37 370.47,-930.17 377.46,-930.54"/>
</g>
<!-- DiffractionFocussing -->
<g id="node35" class="node">
<title>DiffractionFocussing</title>
<ellipse fill="lightgrey" stroke="black" cx="480.51" cy="-796.5" rx="102.88" ry="18"/>
<text text-anchor="middle" x="480.51" y="-792.8" font-family="Helvetica,sans-Serif" font-size="14.00">DiffractionFocussing</text>
</g>
<!-- CalibrationFile&#45;&gt;DiffractionFocussing -->
<g id="edge10" class="edge">
<title>CalibrationFile&#45;&gt;DiffractionFocussing</title>
<path fill="none" stroke="black" d="M402.7,-979.37C422.95,-967.79 447.78,-950.04 461.51,-927 479.95,-896.05 482.83,-853.77 482.36,-826.06"/>
<polygon fill="black" stroke="black" points="485.87,-826.19 482.02,-816.31 478.87,-826.43 485.87,-826.19"/>
</g>
<!-- Instrument -->
<g id="node6" class="node">
<title>Instrument</title>
<ellipse fill="khaki" stroke="black" cx="1103.51" cy="-1403" rx="61.19" ry="18"/>
<text text-anchor="middle" x="1103.51" y="-1399.3" font-family="Helvetica,sans-Serif" font-size="14.00">Instrument</text>
</g>
<!-- Instrument&#45;&gt;load_files -->
<g id="edge3" class="edge">
<title>Instrument&#45;&gt;load_files</title>
<path fill="none" stroke="black" d="M1103.51,-1384.81C1103.51,-1377.5 1103.51,-1368.6 1103.51,-1359.63"/>
<polygon fill="black" stroke="black" points="1107.01,-1359.87 1103.51,-1349.87 1100.01,-1359.87 1107.01,-1359.87"/>
</g>
<!-- Mode -->
<g id="node7" class="node">
<title>Mode</title>
<ellipse fill="khaki" stroke="black" cx="1217.51" cy="-1403" rx="35.19" ry="18"/>
<text text-anchor="middle" x="1217.51" y="-1399.3" font-family="Helvetica,sans-Serif" font-size="14.00">Mode</text>
</g>
<!-- Mode&#45;&gt;load_files -->
<g id="edge4" class="edge">
<title>Mode&#45;&gt;load_files</title>
<path fill="none" stroke="black" d="M1198.42,-1387.44C1186.77,-1378.54 1171.24,-1366.69 1156.12,-1355.16"/>
<polygon fill="black" stroke="black" points="1158.58,-1352.63 1148.51,-1349.34 1154.33,-1358.19 1158.58,-1352.63"/>
</g>
<!-- SpectraRange -->
<g id="node8" class="node">
<title>SpectraRange</title>
<ellipse fill="khaki" stroke="black" cx="1344.51" cy="-1403" rx="74.19" ry="18"/>
<text text-anchor="middle" x="1344.51" y="-1399.3" font-family="Helvetica,sans-Serif" font-size="14.00">SpectraRange</text>
</g>
<!-- SpectraRange&#45;&gt;load_files -->
<g id="edge2" class="edge">
<title>SpectraRange&#45;&gt;load_files</title>
<path fill="none" stroke="black" d="M1304.17,-1387.44C1277.45,-1377.79 1241.11,-1364.68 1206.7,-1352.25"/>
<polygon fill="black" stroke="black" points="1208.11,-1349.04 1197.52,-1348.94 1205.74,-1355.63 1208.11,-1349.04"/>
</g>
<!-- RebinParam -->
<g id="node9" class="node">
<title>RebinParam</title>
<ellipse fill="khaki" stroke="black" cx="799.51" cy="-796.5" rx="65.79" ry="18"/>
<text text-anchor="middle" x="799.51" y="-792.8" font-family="Helvetica,sans-Serif" font-size="14.00">RebinParam</text>
</g>
<!-- get_multi_frame_rebin -->
<g id="node16" class="node">
<title>get_multi_frame_rebin</title>
<polygon fill="lightseagreen" stroke="black" points="733.51,-733 493.51,-733 493.51,-680 733.51,-680 733.51,-733"/>
<text text-anchor="middle" x="613.51" y="-717.8" font-family="Helvetica,sans-Serif" font-size="14.00">get_multi_frame_rebin</text>
<text text-anchor="middle" x="613.51" y="-702.8" font-family="Helvetica,sans-Serif" font-size="14.00">Gets a rebin string for rebinning</text>
<text text-anchor="middle" x="613.51" y="-687.8" font-family="Helvetica,sans-Serif" font-size="14.00">multiple frames.</text>
</g>
<!-- RebinParam&#45;&gt;get_multi_frame_rebin -->
<g id="edge13" class="edge">
<title>RebinParam&#45;&gt;get_multi_frame_rebin</title>
<path fill="none" stroke="black" d="M767.53,-780.37C743.08,-768.8 708.56,-752.47 678.39,-738.2"/>
<polygon fill="black" stroke="black" points="680.25,-735.21 669.71,-734.09 677.26,-741.53 680.25,-735.21"/>
</g>
<!-- rebin_reduction -->
<g id="node22" class="node">
<title>rebin_reduction</title>
<polygon fill="lightseagreen" stroke="black" points="965.01,-556 758.01,-556 758.01,-503 965.01,-503 965.01,-556"/>
<text text-anchor="middle" x="861.51" y="-540.8" font-family="Helvetica,sans-Serif" font-size="14.00">rebin_reduction</text>
<text text-anchor="middle" x="861.51" y="-525.8" font-family="Helvetica,sans-Serif" font-size="14.00">Rebins the reduction based</text>
<text text-anchor="middle" x="861.51" y="-510.8" font-family="Helvetica,sans-Serif" font-size="14.00">on the RebinParam option.</text>
</g>
<!-- RebinParam&#45;&gt;rebin_reduction -->
<g id="edge31" class="edge">
<title>RebinParam&#45;&gt;rebin_reduction</title>
<path fill="none" stroke="black" d="M804.38,-778.09C812.76,-747.88 830.17,-683.75 842.51,-629 847.08,-608.7 851.53,-585.88 854.96,-567.33"/>
<polygon fill="black" stroke="black" points="858.39,-568.06 856.75,-557.59 851.5,-566.8 858.39,-568.06"/>
</g>
<!-- GroupingPolicy -->
<g id="node10" class="node">
<title>GroupingPolicy</title>
<ellipse fill="khaki" stroke="black" cx="662.51" cy="-529.5" rx="77.99" ry="18"/>
<text text-anchor="middle" x="662.51" y="-525.8" font-family="Helvetica,sans-Serif" font-size="14.00">GroupingPolicy</text>
</g>
<!-- group_spectra -->
<g id="node23" class="node">
<title>group_spectra</title>
<polygon fill="lightseagreen" stroke="black" points="947.51,-466 775.51,-466 775.51,-413 947.51,-413 947.51,-466"/>
<text text-anchor="middle" x="861.51" y="-450.8" font-family="Helvetica,sans-Serif" font-size="14.00">group_spectra</text>
<text text-anchor="middle" x="861.51" y="-435.8" font-family="Helvetica,sans-Serif" font-size="14.00">Groups spectra based</text>
<text text-anchor="middle" x="861.51" y="-420.8" font-family="Helvetica,sans-Serif" font-size="14.00">on the GroupingPolicy.</text>
</g>
<!-- GroupingPolicy&#45;&gt;group_spectra -->
<g id="edge35" class="edge">
<title>GroupingPolicy&#45;&gt;group_spectra</title>
<path fill="none" stroke="black" d="M697.62,-512.97C723.9,-501.35 760.68,-485.09 792.74,-470.91"/>
<polygon fill="black" stroke="black" points="793.85,-474.25 801.58,-467 791.02,-467.84 793.85,-474.25"/>
</g>
<!-- OutputWorkspace -->
<g id="node11" class="node">
<title>OutputWorkspace</title>
<ellipse fill="khaki" stroke="black" cx="860.51" cy="-18" rx="92.08" ry="18"/>
<text text-anchor="middle" x="860.51" y="-14.3" font-family="Helvetica,sans-Serif" font-size="14.00">OutputWorkspace</text>
</g>
<!-- ConvertUnits_unwrap_monitor -->
<g id="node12" class="node">
<title>ConvertUnits_unwrap_monitor</title>
<path fill="lightskyblue" stroke="black" d="M994.01,-1014C994.01,-1014 911.01,-1014 911.01,-1014 905.01,-1014 899.01,-1008 899.01,-1002 899.01,-1002 899.01,-990 899.01,-990 899.01,-984 905.01,-978 911.01,-978 911.01,-978 994.01,-978 994.01,-978 1000.01,-978 1006.01,-984 1006.01,-990 1006.01,-990 1006.01,-1002 1006.01,-1002 1006.01,-1008 1000.01,-1014 994.01,-1014"/>
<text text-anchor="middle" x="952.51" y="-992.3" font-family="Helvetica,sans-Serif" font-size="14.00">ConvertUnits</text>
</g>
<!-- ConvertUnits_unwrap_monitor&#45;&gt;process_monitor_efficiency -->
<g id="edge23" class="edge">
<title>ConvertUnits_unwrap_monitor&#45;&gt;process_monitor_efficiency</title>
<path fill="none" stroke="black" d="M1006.26,-980.39C1055.28,-967.07 1129.14,-946.99 1190.08,-930.43"/>
<polygon fill="black" stroke="black" points="1190.72,-933.88 1199.45,-927.88 1188.88,-927.13 1190.72,-933.88"/>
</g>
<!-- ConvertUnits_dSpacing -->
<g id="node13" class="node">
<title>ConvertUnits_dSpacing</title>
<path fill="lightskyblue" stroke="black" d="M1109.01,-629C1109.01,-629 1026.01,-629 1026.01,-629 1020.01,-629 1014.01,-623 1014.01,-617 1014.01,-617 1014.01,-605 1014.01,-605 1014.01,-599 1020.01,-593 1026.01,-593 1026.01,-593 1109.01,-593 1109.01,-593 1115.01,-593 1121.01,-599 1121.01,-605 1121.01,-605 1121.01,-617 1121.01,-617 1121.01,-623 1115.01,-629 1109.01,-629"/>
<text text-anchor="middle" x="1067.51" y="-607.3" font-family="Helvetica,sans-Serif" font-size="14.00">ConvertUnits</text>
</g>
<!-- ConvertUnits_dSpacing&#45;&gt;rebin_reduction -->
<g id="edge30" class="edge">
<title>ConvertUnits_dSpacing&#45;&gt;rebin_reduction</title>
<path fill="none" stroke="black" d="M1022.3,-592.55C997.93,-583.15 967.19,-571.29 939.13,-560.46"/>
<polygon fill="black" stroke="black" points="940.52,-557.24 929.93,-556.91 938,-563.77 940.52,-557.24"/>
</g>
<!-- GroupWorkspaces -->
<g id="node14" class="node">
<title>GroupWorkspaces</title>
<path fill="lightskyblue" stroke="black" d="M920.01,-109C920.01,-109 801.01,-109 801.01,-109 795.01,-109 789.01,-103 789.01,-97 789.01,-97 789.01,-85 789.01,-85 789.01,-79 795.01,-73 801.01,-73 801.01,-73 920.01,-73 920.01,-73 926.01,-73 932.01,-79 932.01,-85 932.01,-85 932.01,-97 932.01,-97 932.01,-103 926.01,-109 920.01,-109"/>
<text text-anchor="middle" x="860.51" y="-87.3" font-family="Helvetica,sans-Serif" font-size="14.00">GroupWorkspaces</text>
</g>
<!-- GroupWorkspaces&#45;&gt;OutputWorkspace -->
<g id="edge42" class="edge">
<title>GroupWorkspaces&#45;&gt;OutputWorkspace</title>
<path fill="none" stroke="black" d="M860.51,-72.81C860.51,-65.23 860.51,-56.1 860.51,-47.54"/>
<polygon fill="black" stroke="black" points="864.01,-47.54 860.51,-37.54 857.01,-47.54 864.01,-47.54"/>
</g>
<!-- load_files&#45;&gt;need_to_unwrap -->
<g id="edge18" class="edge">
<title>load_files&#45;&gt;need_to_unwrap</title>
<path fill="none" stroke="black" d="M1112.25,-1279.6C1115.19,-1268.38 1118.43,-1256 1121.24,-1245.26"/>
<polygon fill="black" stroke="black" points="1124.55,-1246.41 1123.7,-1235.85 1117.78,-1244.64 1124.55,-1246.41"/>
</g>
<!-- identify_bad_detectors -->
<g id="node17" class="node">
<title>identify_bad_detectors</title>
<polygon fill="lightseagreen" stroke="black" points="1603.01,-1243 1326.01,-1243 1326.01,-1190 1603.01,-1190 1603.01,-1243"/>
<text text-anchor="middle" x="1464.51" y="-1227.8" font-family="Helvetica,sans-Serif" font-size="14.00">identify_bad_detectors</text>
<text text-anchor="middle" x="1464.51" y="-1212.8" font-family="Helvetica,sans-Serif" font-size="14.00">Gets a list of noisy detectors using</text>
<text text-anchor="middle" x="1464.51" y="-1197.8" font-family="Helvetica,sans-Serif" font-size="14.00">the IdentifyNoisyDetectors algorithm.</text>
</g>
<!-- load_files&#45;&gt;identify_bad_detectors -->
<g id="edge16" class="edge">
<title>load_files&#45;&gt;identify_bad_detectors</title>
<path fill="none" stroke="black" d="M1230.02,-1279.53C1270.89,-1268.72 1315.83,-1256.83 1355.33,-1246.38"/>
<polygon fill="black" stroke="black" points="1356.09,-1249.8 1364.86,-1243.86 1354.3,-1243.03 1356.09,-1249.8"/>
</g>
<!-- has_calib_file -->
<g id="node33" class="node">
<title>has_calib_file</title>
<polygon fill="limegreen" stroke="black" points="613.51,-1014 462.52,-996 613.51,-978 764.49,-996 613.51,-1014"/>
<text text-anchor="middle" x="613.51" y="-992.3" font-family="Helvetica,sans-Serif" font-size="14.00">Using Calibration File</text>
</g>
<!-- load_files&#45;&gt;has_calib_file -->
<g id="edge6" class="edge">
<title>load_files&#45;&gt;has_calib_file</title>
<path fill="none" stroke="black" d="M943.06,-1297.76C836.32,-1278.66 702.42,-1235.67 627.51,-1139 602.32,-1106.5 603.91,-1056.46 608.14,-1025.28"/>
<polygon fill="black" stroke="black" points="611.59,-1025.86 609.67,-1015.44 604.67,-1024.78 611.59,-1025.86"/>
</g>
<!-- multi_frame_rebin_string -->
<g id="node26" class="node">
<title>multi_frame_rebin_string</title>
<polygon fill="grey" stroke="black" points="425.02,-629 86.96,-629 -0.01,-593 338.05,-593 425.02,-629"/>
<text text-anchor="middle" x="212.51" y="-607.3" font-family="Times,serif" font-size="14.00">Multiple Frame Rebin String</text>
</g>
<!-- get_multi_frame_rebin&#45;&gt;multi_frame_rebin_string -->
<g id="edge14" class="edge">
<title>get_multi_frame_rebin&#45;&gt;multi_frame_rebin_string</title>
<path fill="none" stroke="black" d="M502.07,-679.52C437.6,-664.48 357.7,-645.86 298.18,-631.98"/>
<polygon fill="black" stroke="black" points="299.32,-628.65 288.78,-629.79 297.73,-635.46 299.32,-628.65"/>
</g>
<!-- multi_frame_num_bins -->
<g id="node27" class="node">
<title>multi_frame_num_bins</title>
<polygon fill="grey" stroke="black" points="833.71,-629 523.18,-629 443.3,-593 753.83,-593 833.71,-629"/>
<text text-anchor="middle" x="638.51" y="-607.3" font-family="Times,serif" font-size="14.00">Maximum Number of Bins</text>
</g>
<!-- get_multi_frame_rebin&#45;&gt;multi_frame_num_bins -->
<g id="edge15" class="edge">
<title>get_multi_frame_rebin&#45;&gt;multi_frame_num_bins</title>
<path fill="none" stroke="black" d="M620.34,-679.95C623.64,-667.61 627.6,-652.78 630.99,-640.12"/>
<polygon fill="black" stroke="black" points="634.3,-641.27 633.5,-630.71 627.54,-639.46 634.3,-641.27"/>
</g>
<!-- masked_detectors -->
<g id="node28" class="node">
<title>masked_detectors</title>
<polygon fill="grey" stroke="black" points="1603.76,-1068 1382.23,-1068 1325.25,-1032 1546.78,-1032 1603.76,-1068"/>
<text text-anchor="middle" x="1464.51" y="-1046.3" font-family="Times,serif" font-size="14.00">Masked Detectors</text>
</g>
<!-- identify_bad_detectors&#45;&gt;masked_detectors -->
<g id="edge17" class="edge">
<title>identify_bad_detectors&#45;&gt;masked_detectors</title>
<path fill="none" stroke="black" d="M1464.51,-1189.8C1464.51,-1159.96 1464.51,-1110.89 1464.51,-1079.79"/>
<polygon fill="black" stroke="black" points="1468.01,-1079.96 1464.51,-1069.96 1461.01,-1079.96 1468.01,-1079.96"/>
</g>
<!-- unwrap_monitor&#45;&gt;ConvertUnits_unwrap_monitor -->
<g id="edge20" class="edge">
<title>unwrap_monitor&#45;&gt;ConvertUnits_unwrap_monitor</title>
<path fill="none" stroke="black" d="M1089.34,-1085.52C1059.1,-1065.96 1018,-1039.37 988.75,-1020.45"/>
<polygon fill="black" stroke="black" points="990.89,-1017.66 980.6,-1015.17 987.09,-1023.54 990.89,-1017.66"/>
</g>
<!-- scale_monitor -->
<g id="node20" class="node">
<title>scale_monitor</title>
<polygon fill="lightseagreen" stroke="black" points="1386.01,-823 1207.01,-823 1207.01,-770 1386.01,-770 1386.01,-823"/>
<text text-anchor="middle" x="1296.51" y="-807.8" font-family="Helvetica,sans-Serif" font-size="14.00">scale_monitor</text>
<text text-anchor="middle" x="1296.51" y="-792.8" font-family="Helvetica,sans-Serif" font-size="14.00">Applies monitor scaling</text>
<text text-anchor="middle" x="1296.51" y="-777.8" font-family="Helvetica,sans-Serif" font-size="14.00">as per the IPF.</text>
</g>
<!-- process_monitor_efficiency&#45;&gt;scale_monitor -->
<g id="edge25" class="edge">
<title>process_monitor_efficiency&#45;&gt;scale_monitor</title>
<path fill="none" stroke="black" d="M1296.51,-873.76C1296.51,-861.92 1296.51,-847.65 1296.51,-834.68"/>
<polygon fill="black" stroke="black" points="1300.01,-834.74 1296.51,-824.74 1293.01,-834.74 1300.01,-834.74"/>
</g>
<!-- scale_detectors -->
<g id="node21" class="node">
<title>scale_detectors</title>
<polygon fill="lightseagreen" stroke="black" points="1386.01,-733 1207.01,-733 1207.01,-680 1386.01,-680 1386.01,-733"/>
<text text-anchor="middle" x="1296.51" y="-717.8" font-family="Helvetica,sans-Serif" font-size="14.00">scale_detectors</text>
<text text-anchor="middle" x="1296.51" y="-702.8" font-family="Helvetica,sans-Serif" font-size="14.00">Scales detectors by the</text>
<text text-anchor="middle" x="1296.51" y="-687.8" font-family="Helvetica,sans-Serif" font-size="14.00">monitor intensity.</text>
</g>
<!-- scale_monitor&#45;&gt;scale_detectors -->
<g id="edge26" class="edge">
<title>scale_monitor&#45;&gt;scale_detectors</title>
<path fill="none" stroke="black" d="M1296.51,-769.57C1296.51,-761.79 1296.51,-753.08 1296.51,-744.72"/>
<polygon fill="black" stroke="black" points="1300.01,-744.76 1296.51,-734.76 1293.01,-744.76 1300.01,-744.76"/>
</g>
<!-- scale_detectors&#45;&gt;ConvertUnits_dSpacing -->
<g id="edge27" class="edge">
<title>scale_detectors&#45;&gt;ConvertUnits_dSpacing</title>
<path fill="none" stroke="black" d="M1233.02,-679.58C1197.67,-665.14 1154.16,-647.38 1120.62,-633.69"/>
<polygon fill="black" stroke="black" points="1122.09,-630.51 1111.51,-629.97 1119.44,-636.99 1122.09,-630.51"/>
</g>
<!-- rebin_reduction&#45;&gt;group_spectra -->
<g id="edge34" class="edge">
<title>rebin_reduction&#45;&gt;group_spectra</title>
<path fill="none" stroke="black" d="M861.51,-502.57C861.51,-494.79 861.51,-486.08 861.51,-477.72"/>
<polygon fill="black" stroke="black" points="865.01,-477.76 861.51,-467.76 858.01,-477.76 865.01,-477.76"/>
</g>
<!-- group_spectra&#45;&gt;is_multi_frame -->
<g id="edge37" class="edge">
<title>group_spectra&#45;&gt;is_multi_frame</title>
<path fill="none" stroke="black" d="M861.51,-412.91C861.51,-404.86 861.51,-395.91 861.51,-387.66"/>
<polygon fill="black" stroke="black" points="865.01,-387.77 861.51,-377.77 858.01,-387.77 865.01,-387.77"/>
</g>
<!-- fold_chopped&#45;&gt;rename_reduction -->
<g id="edge39" class="edge">
<title>fold_chopped&#45;&gt;rename_reduction</title>
<path fill="none" stroke="black" d="M813.25,-235.57C819.79,-226.98 827.18,-217.27 834.14,-208.13"/>
<polygon fill="black" stroke="black" points="836.72,-210.52 839.99,-200.45 831.15,-206.28 836.72,-210.52"/>
</g>
<!-- rename_reduction&#45;&gt;GroupWorkspaces -->
<g id="edge41" class="edge">
<title>rename_reduction&#45;&gt;GroupWorkspaces</title>
<path fill="none" stroke="black" d="M860.51,-145.91C860.51,-137.86 860.51,-128.91 860.51,-120.66"/>
<polygon fill="black" stroke="black" points="864.01,-120.77 860.51,-110.77 857.01,-120.77 864.01,-120.77"/>
</g>
<!-- multi_frame_rebin_string&#45;&gt;rebin_reduction -->
<g id="edge32" class="edge">
<title>multi_frame_rebin_string&#45;&gt;rebin_reduction</title>
<path fill="none" stroke="black" d="M351.21,-598.02C478.54,-586.67 659.2,-569.63 746.39,-556.39"/>
<polygon fill="black" stroke="black" points="746.73,-559.88 756.06,-554.86 745.64,-552.96 746.73,-559.88"/>
</g>
<!-- multi_frame_num_bins&#45;&gt;rebin_reduction -->
<g id="edge33" class="edge">
<title>multi_frame_num_bins&#45;&gt;rebin_reduction</title>
<path fill="none" stroke="black" d="M687.44,-592.55C714.05,-583.07 747.69,-571.08 778.28,-560.17"/>
<polygon fill="black" stroke="black" points="779.29,-563.53 787.53,-556.87 776.94,-556.93 779.29,-563.53"/>
</g>
<!-- masked_detectors&#45;&gt;group_spectra -->
<g id="edge36" class="edge">
<title>masked_detectors&#45;&gt;group_spectra</title>
<path fill="none" stroke="black" d="M1461.61,-1031.8C1458.66,-1012.73 1454.51,-981.01 1454.51,-953.5 1454.51,-953.5 1454.51,-953.5 1454.51,-528.5 1454.51,-479.03 1127.4,-454.5 959.08,-445.15"/>
<polygon fill="black" stroke="black" points="959.42,-441.67 949.24,-444.62 959.04,-448.66 959.42,-441.67"/>
</g>
<!-- e_mode_unwrap_monitor -->
<g id="node29" class="node">
<title>e_mode_unwrap_monitor</title>
<polygon fill="grey" stroke="black" points="760.39,-1130.5 661.95,-1130.5 636.62,-1094.5 735.06,-1094.5 760.39,-1130.5"/>
<text text-anchor="middle" x="698.51" y="-1108.8" font-family="Times,serif" font-size="14.00">Elastic</text>
</g>
<!-- e_mode_unwrap_monitor&#45;&gt;ConvertUnits_unwrap_monitor -->
<g id="edge22" class="edge">
<title>e_mode_unwrap_monitor&#45;&gt;ConvertUnits_unwrap_monitor</title>
<path fill="none" stroke="black" d="M729.15,-1094.06C759.8,-1077.01 808.57,-1050.92 852.51,-1032 863.76,-1027.15 875.93,-1022.46 887.77,-1018.17"/>
<polygon fill="black" stroke="black" points="888.84,-1021.5 897.09,-1014.85 886.5,-1014.91 888.84,-1021.5"/>
<text text-anchor="middle" x="876.01" y="-1046.3" font-family="Helvetica,sans-Serif" font-size="14.00">EMode</text>
</g>
<!-- unit_unwrap_monitor -->
<g id="node30" class="node">
<title>unit_unwrap_monitor</title>
<polygon fill="grey" stroke="black" points="968.59,-1130.5 817.33,-1130.5 778.42,-1094.5 929.68,-1094.5 968.59,-1130.5"/>
<text text-anchor="middle" x="873.51" y="-1108.8" font-family="Times,serif" font-size="14.00">Wavelength</text>
</g>
<!-- unit_unwrap_monitor&#45;&gt;ConvertUnits_unwrap_monitor -->
<g id="edge21" class="edge">
<title>unit_unwrap_monitor&#45;&gt;ConvertUnits_unwrap_monitor</title>
<path fill="none" stroke="black" d="M885.5,-1094.11C898.46,-1075.34 919.24,-1045.22 934.22,-1023.5"/>
<polygon fill="black" stroke="black" points="937,-1025.64 939.79,-1015.42 931.23,-1021.67 937,-1025.64"/>
<text text-anchor="middle" x="948.51" y="-1046.3" font-family="Helvetica,sans-Serif" font-size="14.00">Target</text>
</g>
<!-- e_mode -->
<g id="node31" class="node">
<title>e_mode</title>
<polygon fill="grey" stroke="black" points="1189.39,-724.5 1090.95,-724.5 1065.62,-688.5 1164.06,-688.5 1189.39,-724.5"/>
<text text-anchor="middle" x="1127.51" y="-702.8" font-family="Times,serif" font-size="14.00">Elastic</text>
</g>
<!-- e_mode&#45;&gt;ConvertUnits_dSpacing -->
<g id="edge29" class="edge">
<title>e_mode&#45;&gt;ConvertUnits_dSpacing</title>
<path fill="none" stroke="black" d="M1116.5,-688.35C1107.59,-674.47 1094.89,-654.67 1084.65,-638.71"/>
<polygon fill="black" stroke="black" points="1087.81,-637.16 1079.46,-630.63 1081.92,-640.94 1087.81,-637.16"/>
<text text-anchor="middle" x="1122.01" y="-650.8" font-family="Helvetica,sans-Serif" font-size="14.00">EMode</text>
</g>
<!-- dspacing_unit -->
<g id="node32" class="node">
<title>dspacing_unit</title>
<polygon fill="grey" stroke="black" points="1047.69,-724.5 921.72,-724.5 889.32,-688.5 1015.29,-688.5 1047.69,-724.5"/>
<text text-anchor="middle" x="968.51" y="-702.8" font-family="Times,serif" font-size="14.00">dSpacing</text>
</g>
<!-- dspacing_unit&#45;&gt;ConvertUnits_dSpacing -->
<g id="edge28" class="edge">
<title>dspacing_unit&#45;&gt;ConvertUnits_dSpacing</title>
<path fill="none" stroke="black" d="M986.66,-688.35C1001.92,-673.94 1023.92,-653.16 1041.12,-636.92"/>
<polygon fill="black" stroke="black" points="1043.16,-639.81 1048.03,-630.4 1038.35,-634.72 1043.16,-639.81"/>
<text text-anchor="middle" x="1051.51" y="-650.8" font-family="Helvetica,sans-Serif" font-size="14.00">Target</text>
</g>
<!-- has_calib_file&#45;&gt;get_multi_frame_rebin -->
<g id="edge12" class="edge">
<title>has_calib_file&#45;&gt;get_multi_frame_rebin</title>
<path fill="none" stroke="black" d="M613.51,-977.88C613.51,-932.34 613.51,-807.44 613.51,-744.61"/>
<polygon fill="black" stroke="black" points="617.01,-744.79 613.51,-734.79 610.01,-744.79 617.01,-744.79"/>
<text text-anchor="middle" x="623.01" y="-844.8" font-family="Helvetica,sans-Serif" font-size="14.00">No</text>
</g>
<!-- has_calib_file&#45;&gt;AlignDetectors -->
<g id="edge7" class="edge">
<title>has_calib_file&#45;&gt;AlignDetectors</title>
<path fill="none" stroke="black" d="M579.41,-981.6C538.83,-965.66 470.77,-938.93 424.55,-920.77"/>
<polygon fill="black" stroke="black" points="425.87,-917.53 415.29,-917.13 423.31,-924.04 425.87,-917.53"/>
<text text-anchor="middle" x="535.01" y="-948.8" font-family="Helvetica,sans-Serif" font-size="14.00">Yes</text>
</g>
<!-- AlignDetectors&#45;&gt;DiffractionFocussing -->
<g id="edge9" class="edge">
<title>AlignDetectors&#45;&gt;DiffractionFocussing</title>
<path fill="none" stroke="black" d="M392.84,-882.66C409.69,-866.29 435.47,-841.25 454.72,-822.55"/>
<polygon fill="black" stroke="black" points="456.97,-825.24 461.7,-815.76 452.09,-820.22 456.97,-825.24"/>
</g>
<!-- DiffractionFocussing&#45;&gt;get_multi_frame_rebin -->
<g id="edge11" class="edge">
<title>DiffractionFocussing&#45;&gt;get_multi_frame_rebin</title>
<path fill="none" stroke="black" d="M505.83,-778.74C522.48,-767.73 544.8,-752.96 564.8,-739.72"/>
<polygon fill="black" stroke="black" points="566.73,-742.65 573.14,-734.21 562.87,-736.81 566.73,-742.65"/>
</g>
</g>
</svg>
