<?xml version="1.0" encoding="UTF-8" standalone="no"?>
<!DOCTYPE svg PUBLIC "-//W3C//DTD SVG 1.1//EN"
 "http://www.w3.org/Graphics/SVG/1.1/DTD/svg11.dtd">
<!-- Generated by graphviz version 7.0.5 (20221231.0122)
 -->
<!-- Title: isisPowderGenericAlgs Pages: 1 -->
<svg width="1637pt" height="439pt"
 viewBox="0.00 0.00 1636.57 439.22" xmlns="http://www.w3.org/2000/svg" xmlns:xlink="http://www.w3.org/1999/xlink">
<g id="graph0" class="graph" transform="scale(1 1) rotate(0) translate(4 435.22)">
<title>isisPowderGenericAlgs</title>
<polygon fill="white" stroke="none" points="-4,4 -4,-435.22 1632.57,-435.22 1632.57,4 -4,4"/>
<text text-anchor="middle" x="814.29" y="-416.02" font-family="Helvetica,sans-Serif" font-size="14.00">ISISPowder &#45; Apply absorption corrections</text>
<!-- label_GEM -->
<g id="node1" class="node">
<title>label_GEM</title>
<ellipse fill="lightgrey" stroke="black" cx="170.28" cy="-390.22" rx="170.07" ry="18"/>
<text text-anchor="middle" x="170.28" y="-386.52" font-family="Helvetica,sans-Serif" font-size="14.00">Apply absorption corrections &#45; GEM</text>
</g>
<!-- if_GEM_isVanadium -->
<g id="node12" class="node">
<title>if_GEM_isVanadium</title>
<polygon fill="limegreen" stroke="black" points="170.28,-335.22 58.85,-317.22 170.28,-299.22 281.72,-317.22 170.28,-335.22"/>
<text text-anchor="middle" x="170.28" y="-313.52" font-family="Helvetica,sans-Serif" font-size="14.00">If: Is Vanadium</text>
</g>
<!-- label_GEM&#45;&gt;if_GEM_isVanadium -->
<g id="edge1" class="edge">
<title>label_GEM&#45;&gt;if_GEM_isVanadium</title>
<path fill="none" stroke="black" d="M170.28,-372.03C170.28,-364.45 170.28,-355.32 170.28,-346.76"/>
<polygon fill="black" stroke="black" points="173.78,-346.76 170.28,-336.76 166.78,-346.76 173.78,-346.76"/>
</g>
<!-- label_PEARL -->
<g id="node2" class="node">
<title>label_PEARL</title>
<ellipse fill="lightgrey" stroke="black" cx="1117.28" cy="-390.22" rx="178.97" ry="18"/>
<text text-anchor="middle" x="1117.28" y="-386.52" font-family="Helvetica,sans-Serif" font-size="14.00">Apply absorption corrections &#45; PEARL</text>
</g>
<!-- alg_PEARL_Load -->
<g id="node9" class="node">
<title>alg_PEARL_Load</title>
<path fill="lightskyblue" stroke="black" d="M1137.28,-335.22C1137.28,-335.22 1107.28,-335.22 1107.28,-335.22 1101.28,-335.22 1095.28,-329.22 1095.28,-323.22 1095.28,-323.22 1095.28,-311.22 1095.28,-311.22 1095.28,-305.22 1101.28,-299.22 1107.28,-299.22 1107.28,-299.22 1137.28,-299.22 1137.28,-299.22 1143.28,-299.22 1149.28,-305.22 1149.28,-311.22 1149.28,-311.22 1149.28,-323.22 1149.28,-323.22 1149.28,-329.22 1143.28,-335.22 1137.28,-335.22"/>
<text text-anchor="middle" x="1122.28" y="-313.52" font-family="Helvetica,sans-Serif" font-size="14.00">Load</text>
</g>
<!-- label_PEARL&#45;&gt;alg_PEARL_Load -->
<g id="edge10" class="edge">
<title>label_PEARL&#45;&gt;alg_PEARL_Load</title>
<path fill="none" stroke="black" d="M1118.5,-372.03C1119.04,-364.36 1119.69,-355.11 1120.3,-346.46"/>
<polygon fill="black" stroke="black" points="1123.77,-346.98 1120.98,-336.76 1116.79,-346.49 1123.77,-346.98"/>
</g>
<!-- label_POLARIS -->
<g id="node3" class="node">
<title>label_POLARIS</title>
<ellipse fill="lightgrey" stroke="black" cx="726.28" cy="-390.22" rx="189.27" ry="18"/>
<text text-anchor="middle" x="726.28" y="-386.52" font-family="Helvetica,sans-Serif" font-size="14.00">Apply absorption corrections &#45; POLARIS</text>
</g>
<!-- if_POLARIS_isVanadium -->
<g id="node13" class="node">
<title>if_POLARIS_isVanadium</title>
<polygon fill="limegreen" stroke="black" points="726.28,-335.22 614.85,-317.22 726.28,-299.22 837.72,-317.22 726.28,-335.22"/>
<text text-anchor="middle" x="726.28" y="-313.52" font-family="Helvetica,sans-Serif" font-size="14.00">If: Is Vanadium</text>
</g>
<!-- label_POLARIS&#45;&gt;if_POLARIS_isVanadium -->
<g id="edge5" class="edge">
<title>label_POLARIS&#45;&gt;if_POLARIS_isVanadium</title>
<path fill="none" stroke="black" d="M726.28,-372.03C726.28,-364.45 726.28,-355.32 726.28,-346.76"/>
<polygon fill="black" stroke="black" points="729.78,-346.76 726.28,-336.76 722.78,-346.76 729.78,-346.76"/>
</g>
<!-- param_MayersInputs -->
<g id="node4" class="node">
<title>param_MayersInputs</title>
<ellipse fill="khaki" stroke="black" cx="495.28" cy="-167.61" rx="103.48" ry="80.72"/>
<text text-anchor="middle" x="495.28" y="-209.41" font-family="Helvetica,sans-Serif" font-size="14.00">User/Adv config:</text>
<text text-anchor="middle" x="495.28" y="-178.41" font-family="Helvetica,sans-Serif" font-size="14.00"> Chemical Formula</text>
<text text-anchor="middle" x="495.28" y="-163.41" font-family="Helvetica,sans-Serif" font-size="14.00"> Cylinder Height</text>
<text text-anchor="middle" x="495.28" y="-148.41" font-family="Helvetica,sans-Serif" font-size="14.00"> Cylinder Position</text>
<text text-anchor="middle" x="495.28" y="-133.41" font-family="Helvetica,sans-Serif" font-size="14.00"> Cylinder Radius</text>
<text text-anchor="middle" x="495.28" y="-118.41" font-family="Helvetica,sans-Serif" font-size="14.00"> Number Density</text>
</g>
<!-- alg_MayersSampleCorr -->
<g id="node6" class="node">
<title>alg_MayersSampleCorr</title>
<path fill="lightskyblue" stroke="black" d="M582.78,-36C582.78,-36 407.78,-36 407.78,-36 401.78,-36 395.78,-30 395.78,-24 395.78,-24 395.78,-12 395.78,-12 395.78,-6 401.78,0 407.78,0 407.78,0 582.78,0 582.78,0 588.78,0 594.78,-6 594.78,-12 594.78,-12 594.78,-24 594.78,-24 594.78,-30 588.78,-36 582.78,-36"/>
<text text-anchor="middle" x="495.28" y="-14.3" font-family="Helvetica,sans-Serif" font-size="14.00">Mayers Sample Correction</text>
</g>
<!-- param_MayersInputs&#45;&gt;alg_MayersSampleCorr -->
<g id="edge9" class="edge">
<title>param_MayersInputs&#45;&gt;alg_MayersSampleCorr</title>
<path fill="none" stroke="black" d="M495.28,-86.76C495.28,-72.79 495.28,-59.11 495.28,-47.74"/>
<polygon fill="black" stroke="black" points="498.78,-47.93 495.28,-37.93 491.78,-47.93 498.78,-47.93"/>
</g>
<!-- param_advAbsFilename -->
<g id="node5" class="node">
<title>param_advAbsFilename</title>
<ellipse fill="khaki" stroke="black" cx="1471.28" cy="-390.22" rx="157.07" ry="18"/>
<text text-anchor="middle" x="1471.28" y="-386.52" font-family="Helvetica,sans-Serif" font-size="14.00">Adv config: Absorption Filename</text>
</g>
<!-- param_advAbsFilename&#45;&gt;alg_PEARL_Load -->
<g id="edge11" class="edge">
<title>param_advAbsFilename&#45;&gt;alg_PEARL_Load</title>
<path fill="none" stroke="black" d="M1396.42,-373.99C1324.05,-359.27 1217.31,-337.55 1160.74,-326.04"/>
<polygon fill="black" stroke="black" points="1161.45,-322.62 1150.95,-324.05 1160.05,-329.47 1161.45,-322.62"/>
</g>
<!-- alg_GEM_maskDetector -->
<g id="node7" class="node">
<title>alg_GEM_maskDetector</title>
<path fill="lightskyblue" stroke="black" d="M162.28,-185.61C162.28,-185.61 18.28,-185.61 18.28,-185.61 12.28,-185.61 6.28,-179.61 6.28,-173.61 6.28,-173.61 6.28,-161.61 6.28,-161.61 6.28,-155.61 12.28,-149.61 18.28,-149.61 18.28,-149.61 162.28,-149.61 162.28,-149.61 168.28,-149.61 174.28,-155.61 174.28,-161.61 174.28,-161.61 174.28,-173.61 174.28,-173.61 174.28,-179.61 168.28,-185.61 162.28,-185.61"/>
<text text-anchor="middle" x="90.28" y="-163.91" font-family="Helvetica,sans-Serif" font-size="14.00">Mask detectors 1&#45;100</text>
</g>
<!-- alg_GEM_maskDetector&#45;&gt;alg_MayersSampleCorr -->
<g id="edge3" class="edge">
<title>alg_GEM_maskDetector&#45;&gt;alg_MayersSampleCorr</title>
<path fill="none" stroke="black" d="M83.65,-149.17C75.54,-124.57 65.63,-79.79 89.28,-54 108.94,-32.58 270.7,-24.24 384,-21.01"/>
<polygon fill="black" stroke="black" points="384.08,-24.51 393.98,-20.74 383.89,-17.51 384.08,-24.51"/>
<text text-anchor="middle" x="143.28" y="-57.8" font-family="Helvetica,sans-Serif" font-size="14.00">Use Adv Config</text>
</g>
<!-- alg_PEARL_Divide -->
<g id="node8" class="node">
<title>alg_PEARL_Divide</title>
<path fill="lightskyblue" stroke="black" d="M1212.78,-36C1212.78,-36 1031.78,-36 1031.78,-36 1025.78,-36 1019.78,-30 1019.78,-24 1019.78,-24 1019.78,-12 1019.78,-12 1019.78,-6 1025.78,0 1031.78,0 1031.78,0 1212.78,0 1212.78,0 1218.78,0 1224.78,-6 1224.78,-12 1224.78,-12 1224.78,-24 1224.78,-24 1224.78,-30 1218.78,-36 1212.78,-36"/>
<text text-anchor="middle" x="1122.28" y="-14.3" font-family="Helvetica,sans-Serif" font-size="14.00">Divide: Van ws / Absorb ws</text>
</g>
<!-- alg_PEARL_RebinWorkspace -->
<g id="node10" class="node">
<title>alg_PEARL_RebinWorkspace</title>
<path fill="lightskyblue" stroke="black" d="M1239.28,-185.61C1239.28,-185.61 1005.28,-185.61 1005.28,-185.61 999.28,-185.61 993.28,-179.61 993.28,-173.61 993.28,-173.61 993.28,-161.61 993.28,-161.61 993.28,-155.61 999.28,-149.61 1005.28,-149.61 1005.28,-149.61 1239.28,-149.61 1239.28,-149.61 1245.28,-149.61 1251.28,-155.61 1251.28,-161.61 1251.28,-161.61 1251.28,-173.61 1251.28,-173.61 1251.28,-179.61 1245.28,-185.61 1239.28,-185.61"/>
<text text-anchor="middle" x="1122.28" y="-163.91" font-family="Helvetica,sans-Serif" font-size="14.00">Rebin: Van ws to match Absorb ws</text>
</g>
<!-- alg_PEARL_Load&#45;&gt;alg_PEARL_RebinWorkspace -->
<g id="edge12" class="edge">
<title>alg_PEARL_Load&#45;&gt;alg_PEARL_RebinWorkspace</title>
<path fill="none" stroke="black" d="M1122.28,-299C1122.28,-274 1122.28,-227.36 1122.28,-197.16"/>
<polygon fill="black" stroke="black" points="1125.78,-197.24 1122.28,-187.24 1118.78,-197.24 1125.78,-197.24"/>
</g>
<!-- alg_PEARL_RebinWorkspace&#45;&gt;alg_PEARL_Divide -->
<g id="edge13" class="edge">
<title>alg_PEARL_RebinWorkspace&#45;&gt;alg_PEARL_Divide</title>
<path fill="none" stroke="black" d="M1122.28,-149.39C1122.28,-124.39 1122.28,-77.75 1122.28,-47.55"/>
<polygon fill="black" stroke="black" points="1125.78,-47.63 1122.28,-37.63 1118.78,-47.63 1125.78,-47.63"/>
</g>
<!-- alg_POLARIS_maskDetector -->
<g id="node11" class="node">
<title>alg_POLARIS_maskDetector</title>
<path fill="lightskyblue" stroke="black" d="M763.78,-185.61C763.78,-185.61 628.78,-185.61 628.78,-185.61 622.78,-185.61 616.78,-179.61 616.78,-173.61 616.78,-173.61 616.78,-161.61 616.78,-161.61 616.78,-155.61 622.78,-149.61 628.78,-149.61 628.78,-149.61 763.78,-149.61 763.78,-149.61 769.78,-149.61 775.78,-155.61 775.78,-161.61 775.78,-161.61 775.78,-173.61 775.78,-173.61 775.78,-179.61 769.78,-185.61 763.78,-185.61"/>
<text text-anchor="middle" x="696.28" y="-163.91" font-family="Helvetica,sans-Serif" font-size="14.00">Mask detectors 1&#45;54</text>
</g>
<!-- alg_POLARIS_maskDetector&#45;&gt;alg_MayersSampleCorr -->
<g id="edge7" class="edge">
<title>alg_POLARIS_maskDetector&#45;&gt;alg_MayersSampleCorr</title>
<path fill="none" stroke="black" d="M678.71,-149.12C661.34,-132.26 633.6,-106.5 607.28,-87 585.04,-70.52 558.63,-54.33 537.04,-41.89"/>
<polygon fill="black" stroke="black" points="538.92,-38.94 528.5,-37.03 535.45,-45.02 538.92,-38.94"/>
<text text-anchor="middle" x="635.28" y="-57.8" font-family="Helvetica,sans-Serif" font-size="14.00">Use Adv Config</text>
</g>
<!-- if_GEM_isVanadium&#45;&gt;alg_MayersSampleCorr -->
<g id="edge4" class="edge">
<title>if_GEM_isVanadium&#45;&gt;alg_MayersSampleCorr</title>
<path fill="none" stroke="black" d="M178.09,-300.12C180.68,-294.28 183.38,-287.55 185.28,-281.22 210.5,-197.21 160.28,-150.98 220.28,-87 242.98,-62.8 318.16,-45.21 384.19,-34"/>
<polygon fill="black" stroke="black" points="384.76,-37.45 394.05,-32.36 383.61,-30.55 384.76,-37.45"/>
<text text-anchor="middle" x="301.78" y="-163.91" font-family="Helvetica,sans-Serif" font-size="14.00">False &#45; Use User Config</text>
</g>
<!-- if_GEM_isVanadium&#45;&gt;alg_GEM_maskDetector -->
<g id="edge2" class="edge">
<title>if_GEM_isVanadium&#45;&gt;alg_GEM_maskDetector</title>
<path fill="none" stroke="black" d="M161.57,-300.14C148.02,-275.14 121.74,-226.66 105.16,-196.05"/>
<polygon fill="black" stroke="black" points="108.29,-194.49 100.45,-187.37 102.14,-197.83 108.29,-194.49"/>
<text text-anchor="middle" x="166.28" y="-270.02" font-family="Helvetica,sans-Serif" font-size="14.00">True</text>
</g>
<!-- if_POLARIS_isVanadium&#45;&gt;alg_MayersSampleCorr -->
<g id="edge8" class="edge">
<title>if_POLARIS_isVanadium&#45;&gt;alg_MayersSampleCorr</title>
<path fill="none" stroke="black" d="M744.3,-301.63C758.2,-289.13 776.34,-269.77 784.28,-248.22 809.06,-180.99 825.42,-145.67 784.28,-87 763.53,-57.39 678.72,-39.81 606.3,-29.97"/>
<polygon fill="black" stroke="black" points="607.13,-26.55 596.76,-28.71 606.22,-33.49 607.13,-26.55"/>
<text text-anchor="middle" x="891.78" y="-163.91" font-family="Helvetica,sans-Serif" font-size="14.00">False &#45; Use User Config</text>
</g>
<!-- if_POLARIS_isVanadium&#45;&gt;alg_POLARIS_maskDetector -->
<g id="edge6" class="edge">
<title>if_POLARIS_isVanadium&#45;&gt;alg_POLARIS_maskDetector</title>
<path fill="none" stroke="black" d="M722.84,-299.29C717.76,-274.28 708.19,-227.19 702.03,-196.89"/>
<polygon fill="black" stroke="black" points="705.5,-196.39 700.08,-187.28 698.64,-197.78 705.5,-196.39"/>
<text text-anchor="middle" x="734.28" y="-270.02" font-family="Helvetica,sans-Serif" font-size="14.00">True</text>
</g>
</g>
</svg>
