<?xml version="1.0" encoding="UTF-8" standalone="no"?>
<!DOCTYPE svg PUBLIC "-//W3C//DTD SVG 1.1//EN"
 "http://www.w3.org/Graphics/SVG/1.1/DTD/svg11.dtd">
<!-- Generated by graphviz version 7.0.5 (20221231.0122)
 -->
<!-- Title: isisPowderCreateVanadium Pages: 1 -->
<svg width="1906pt" height="1239pt"
 viewBox="0.00 0.00 1906.17 1239.00" xmlns="http://www.w3.org/2000/svg" xmlns:xlink="http://www.w3.org/1999/xlink">
<g id="graph0" class="graph" transform="scale(1 1) rotate(0) translate(4 1235)">
<title>isisPowderCreateVanadium</title>
<polygon fill="white" stroke="none" points="-4,4 -4,-1235 1902.17,-1235 1902.17,4 -4,4"/>
<text text-anchor="middle" x="949.09" y="-1215.8" font-family="Helvetica,sans-Serif" font-size="14.00">ISISPowder &#45; &#39;create_vanadium&#39;</text>
<!-- label_start -->
<g id="node1" class="node">
<title>label_start</title>
<ellipse fill="lightgrey" stroke="black" cx="249.79" cy="-1190" rx="170.87" ry="18"/>
<text text-anchor="middle" x="249.79" y="-1186.3" font-family="Helvetica,sans-Serif" font-size="14.00">Start ISISPowder &#39;create_vanadium&#39;</text>
</g>
<!-- param_calMapping_1 -->
<g id="node4" class="node">
<title>param_calMapping_1</title>
<ellipse fill="khaki" stroke="black" cx="249.79" cy="-1117" rx="118.88" ry="18"/>
<text text-anchor="middle" x="249.79" y="-1113.3" font-family="Helvetica,sans-Serif" font-size="14.00">Calibration mapping file</text>
</g>
<!-- label_start&#45;&gt;param_calMapping_1 -->
<g id="edge1" class="edge">
<title>label_start&#45;&gt;param_calMapping_1</title>
<path fill="none" stroke="black" d="M249.79,-1171.81C249.79,-1164.23 249.79,-1155.1 249.79,-1146.54"/>
<polygon fill="black" stroke="black" points="253.29,-1146.54 249.79,-1136.54 246.29,-1146.54 253.29,-1146.54"/>
</g>
<!-- param_apply_absorb -->
<g id="node2" class="node">
<title>param_apply_absorb</title>
<ellipse fill="khaki" stroke="black" cx="924.79" cy="-630" rx="170.87" ry="18"/>
<text text-anchor="middle" x="924.79" y="-626.3" font-family="Helvetica,sans-Serif" font-size="14.00">User param: absorption corrections</text>
</g>
<!-- if_apply_absorb -->
<g id="node26" class="node">
<title>if_apply_absorb</title>
<polygon fill="limegreen" stroke="black" points="799.79,-575 648.8,-557 799.79,-539 950.77,-557 799.79,-575"/>
<text text-anchor="middle" x="799.79" y="-553.3" font-family="Helvetica,sans-Serif" font-size="14.00">If: absorb corrections</text>
</g>
<!-- param_apply_absorb&#45;&gt;if_apply_absorb -->
<g id="edge15" class="edge">
<title>param_apply_absorb&#45;&gt;if_apply_absorb</title>
<path fill="none" stroke="black" d="M894.53,-611.81C876.61,-601.63 853.81,-588.68 835.07,-578.04"/>
<polygon fill="black" stroke="black" points="836.88,-575.04 826.45,-573.14 833.42,-581.13 836.88,-575.04"/>
</g>
<!-- param_calFileName -->
<g id="node3" class="node">
<title>param_calFileName</title>
<ellipse fill="khaki" stroke="black" cx="797.79" cy="-703" rx="104.78" ry="18"/>
<text text-anchor="middle" x="797.79" y="-699.3" font-family="Helvetica,sans-Serif" font-size="14.00">Calibration file name</text>
</g>
<!-- alg_Align -->
<g id="node17" class="node">
<title>alg_Align</title>
<path fill="lightskyblue" stroke="black" d="M724.29,-648C724.29,-648 625.29,-648 625.29,-648 619.29,-648 613.29,-642 613.29,-636 613.29,-636 613.29,-624 613.29,-624 613.29,-618 619.29,-612 625.29,-612 625.29,-612 724.29,-612 724.29,-612 730.29,-612 736.29,-618 736.29,-624 736.29,-624 736.29,-636 736.29,-636 736.29,-642 730.29,-648 724.29,-648"/>
<text text-anchor="middle" x="674.79" y="-626.3" font-family="Helvetica,sans-Serif" font-size="14.00">Align Detectors</text>
</g>
<!-- param_calFileName&#45;&gt;alg_Align -->
<g id="edge12" class="edge">
<title>param_calFileName&#45;&gt;alg_Align</title>
<path fill="none" stroke="black" d="M768.95,-685.35C752.66,-675.95 732.05,-664.05 714.27,-653.79"/>
<polygon fill="black" stroke="black" points="716.45,-651.01 706.04,-649.04 712.95,-657.07 716.45,-651.01"/>
</g>
<!-- param_emptyRunNumber -->
<g id="node6" class="node">
<title>param_emptyRunNumber</title>
<ellipse fill="khaki" stroke="black" cx="375.79" cy="-1044" rx="108.58" ry="18"/>
<text text-anchor="middle" x="375.79" y="-1040.3" font-family="Helvetica,sans-Serif" font-size="14.00">Empty run number(s)</text>
</g>
<!-- param_calMapping_1&#45;&gt;param_emptyRunNumber -->
<g id="edge4" class="edge">
<title>param_calMapping_1&#45;&gt;param_emptyRunNumber</title>
<path fill="none" stroke="black" d="M279.65,-1099.17C296.6,-1089.62 318.02,-1077.55 336.33,-1067.23"/>
<polygon fill="black" stroke="black" points="337.83,-1070.41 344.82,-1062.45 334.39,-1064.31 337.83,-1070.41"/>
</g>
<!-- param_vanadiumRunNumber -->
<g id="node7" class="node">
<title>param_vanadiumRunNumber</title>
<ellipse fill="khaki" stroke="black" cx="124.79" cy="-1044" rx="124.58" ry="18"/>
<text text-anchor="middle" x="124.79" y="-1040.3" font-family="Helvetica,sans-Serif" font-size="14.00">Vanadium run number(s)</text>
</g>
<!-- param_calMapping_1&#45;&gt;param_vanadiumRunNumber -->
<g id="edge2" class="edge">
<title>param_calMapping_1&#45;&gt;param_vanadiumRunNumber</title>
<path fill="none" stroke="black" d="M220.17,-1099.17C203.55,-1089.74 182.61,-1077.84 164.58,-1067.6"/>
<polygon fill="black" stroke="black" points="166.37,-1064.59 155.95,-1062.7 162.92,-1070.68 166.37,-1064.59"/>
</g>
<!-- param_calMapping_2 -->
<g id="node5" class="node">
<title>param_calMapping_2</title>
<ellipse fill="khaki" stroke="black" cx="833.79" cy="-776" rx="118.88" ry="18"/>
<text text-anchor="middle" x="833.79" y="-772.3" font-family="Helvetica,sans-Serif" font-size="14.00">Calibration mapping file</text>
</g>
<!-- param_calMapping_2&#45;&gt;param_calFileName -->
<g id="edge11" class="edge">
<title>param_calMapping_2&#45;&gt;param_calFileName</title>
<path fill="none" stroke="black" d="M825.07,-757.81C821.01,-749.79 816.07,-740.05 811.51,-731.07"/>
<polygon fill="black" stroke="black" points="814.75,-729.71 807.11,-722.38 808.51,-732.88 814.75,-729.71"/>
</g>
<!-- proc_LoadCurrentNormWS_2 -->
<g id="node13" class="node">
<title>proc_LoadCurrentNormWS_2</title>
<polygon fill="lightseagreen" stroke="black" points="476.29,-975 193.29,-975 193.29,-939 476.29,-939 476.29,-975"/>
<text text-anchor="middle" x="334.79" y="-953.3" font-family="Helvetica,sans-Serif" font-size="14.00">Load current normalised workspace(s)</text>
</g>
<!-- param_emptyRunNumber&#45;&gt;proc_LoadCurrentNormWS_2 -->
<g id="edge5" class="edge">
<title>param_emptyRunNumber&#45;&gt;proc_LoadCurrentNormWS_2</title>
<path fill="none" stroke="black" d="M367.49,-1025.8C361.92,-1014.24 354.45,-998.75 348.05,-985.5"/>
<polygon fill="black" stroke="black" points="351.37,-984.32 343.87,-976.83 345.06,-987.36 351.37,-984.32"/>
<text text-anchor="middle" x="431.29" y="-996.8" font-family="Helvetica,sans-Serif" font-size="14.00">InputMode=Summed</text>
</g>
<!-- proc_LoadCurrentNormWS_1 -->
<g id="node12" class="node">
<title>proc_LoadCurrentNormWS_1</title>
<polygon fill="lightseagreen" stroke="black" points="311.29,-921 28.29,-921 28.29,-885 311.29,-885 311.29,-921"/>
<text text-anchor="middle" x="169.79" y="-899.3" font-family="Helvetica,sans-Serif" font-size="14.00">Load current normalised workspace(s)</text>
</g>
<!-- param_vanadiumRunNumber&#45;&gt;proc_LoadCurrentNormWS_1 -->
<g id="edge3" class="edge">
<title>param_vanadiumRunNumber&#45;&gt;proc_LoadCurrentNormWS_1</title>
<path fill="none" stroke="black" d="M130.4,-1025.68C138.02,-1002.14 151.73,-959.78 160.8,-931.78"/>
<polygon fill="black" stroke="black" points="164.03,-933.14 163.79,-922.55 157.38,-930.98 164.03,-933.14"/>
<text text-anchor="middle" x="215.29" y="-996.8" font-family="Helvetica,sans-Serif" font-size="14.00">InputMode=Summed</text>
</g>
<!-- param_groupingCalFile -->
<g id="node8" class="node">
<title>param_groupingCalFile</title>
<ellipse fill="khaki" stroke="black" cx="1115.79" cy="-470" rx="167.07" ry="18"/>
<text text-anchor="middle" x="1115.79" y="-466.3" font-family="Helvetica,sans-Serif" font-size="14.00">Adv config: Grouping cal file name</text>
</g>
<!-- alg_DiffractionFocusing -->
<g id="node20" class="node">
<title>alg_DiffractionFocusing</title>
<path fill="lightskyblue" stroke="black" d="M960.29,-415C960.29,-415 829.29,-415 829.29,-415 823.29,-415 817.29,-409 817.29,-403 817.29,-403 817.29,-391 817.29,-391 817.29,-385 823.29,-379 829.29,-379 829.29,-379 960.29,-379 960.29,-379 966.29,-379 972.29,-385 972.29,-391 972.29,-391 972.29,-403 972.29,-403 972.29,-409 966.29,-415 960.29,-415"/>
<text text-anchor="middle" x="894.79" y="-393.3" font-family="Helvetica,sans-Serif" font-size="14.00">Diffraction Focusing</text>
</g>
<!-- param_groupingCalFile&#45;&gt;alg_DiffractionFocusing -->
<g id="edge17" class="edge">
<title>param_groupingCalFile&#45;&gt;alg_DiffractionFocusing</title>
<path fill="none" stroke="black" d="M1064.25,-452.44C1033.06,-442.42 993.01,-429.56 959.67,-418.85"/>
<polygon fill="black" stroke="black" points="961.14,-415.64 950.55,-415.91 959,-422.3 961.14,-415.64"/>
</g>
<!-- param_rawTOFCropValues -->
<g id="node9" class="node">
<title>param_rawTOFCropValues</title>
<ellipse fill="khaki" stroke="black" cx="517.79" cy="-776" rx="179.27" ry="18"/>
<text text-anchor="middle" x="517.79" y="-772.3" font-family="Helvetica,sans-Serif" font-size="14.00">Adv config: Raw TOF cropping values</text>
</g>
<!-- alg_CropRawTOF -->
<g id="node18" class="node">
<title>alg_CropRawTOF</title>
<path fill="lightskyblue" stroke="black" d="M607.29,-721C607.29,-721 428.29,-721 428.29,-721 422.29,-721 416.29,-715 416.29,-709 416.29,-709 416.29,-697 416.29,-697 416.29,-691 422.29,-685 428.29,-685 428.29,-685 607.29,-685 607.29,-685 613.29,-685 619.29,-691 619.29,-697 619.29,-697 619.29,-709 619.29,-709 619.29,-715 613.29,-721 607.29,-721"/>
<text text-anchor="middle" x="517.79" y="-699.3" font-family="Helvetica,sans-Serif" font-size="14.00">Crop data to expected TOF</text>
</g>
<!-- param_rawTOFCropValues&#45;&gt;alg_CropRawTOF -->
<g id="edge9" class="edge">
<title>param_rawTOFCropValues&#45;&gt;alg_CropRawTOF</title>
<path fill="none" stroke="black" d="M517.79,-757.81C517.79,-750.23 517.79,-741.1 517.79,-732.54"/>
<polygon fill="black" stroke="black" points="521.29,-732.54 517.79,-722.54 514.29,-732.54 521.29,-732.54"/>
</g>
<!-- param_vanadiumTOFCropValues -->
<g id="node10" class="node">
<title>param_vanadiumTOFCropValues</title>
<ellipse fill="khaki" stroke="black" cx="1516.79" cy="-310" rx="206.06" ry="18"/>
<text text-anchor="middle" x="1516.79" y="-306.3" font-family="Helvetica,sans-Serif" font-size="14.00">Adv config: Vanadium TOF cropping values</text>
</g>
<!-- alg_CropVanTOF -->
<g id="node19" class="node">
<title>alg_CropVanTOF</title>
<path fill="lightskyblue" stroke="black" d="M1426.29,-255C1426.29,-255 1247.29,-255 1247.29,-255 1241.29,-255 1235.29,-249 1235.29,-243 1235.29,-243 1235.29,-231 1235.29,-231 1235.29,-225 1241.29,-219 1247.29,-219 1247.29,-219 1426.29,-219 1426.29,-219 1432.29,-219 1438.29,-225 1438.29,-231 1438.29,-231 1438.29,-243 1438.29,-243 1438.29,-249 1432.29,-255 1426.29,-255"/>
<text text-anchor="middle" x="1336.79" y="-233.3" font-family="Helvetica,sans-Serif" font-size="14.00">Crop data to expected TOF</text>
</g>
<!-- param_vanadiumTOFCropValues&#45;&gt;alg_CropVanTOF -->
<g id="edge22" class="edge">
<title>param_vanadiumTOFCropValues&#45;&gt;alg_CropVanTOF</title>
<path fill="none" stroke="black" d="M1473.67,-291.99C1449.08,-282.29 1418.02,-270.04 1391.7,-259.66"/>
<polygon fill="black" stroke="black" points="1393.11,-256.45 1382.52,-256.04 1390.54,-262.97 1393.11,-256.45"/>
</g>
<!-- param_vanadiumSplineCoefficient -->
<g id="node11" class="node">
<title>param_vanadiumSplineCoefficient</title>
<ellipse fill="khaki" stroke="black" cx="1705.79" cy="-164" rx="192.27" ry="18"/>
<text text-anchor="middle" x="1705.79" y="-160.3" font-family="Helvetica,sans-Serif" font-size="14.00">Adv config: Vanadium Spline Coefficient</text>
</g>
<!-- alg_SplineVanadium -->
<g id="node24" class="node">
<title>alg_SplineVanadium</title>
<path fill="lightskyblue" stroke="black" d="M1582.29,-109C1582.29,-109 1459.29,-109 1459.29,-109 1453.29,-109 1447.29,-103 1447.29,-97 1447.29,-97 1447.29,-85 1447.29,-85 1447.29,-79 1453.29,-73 1459.29,-73 1459.29,-73 1582.29,-73 1582.29,-73 1588.29,-73 1594.29,-79 1594.29,-85 1594.29,-85 1594.29,-97 1594.29,-97 1594.29,-103 1588.29,-109 1582.29,-109"/>
<text text-anchor="middle" x="1520.79" y="-87.3" font-family="Helvetica,sans-Serif" font-size="14.00">Spline Background</text>
</g>
<!-- param_vanadiumSplineCoefficient&#45;&gt;alg_SplineVanadium -->
<g id="edge25" class="edge">
<title>param_vanadiumSplineCoefficient&#45;&gt;alg_SplineVanadium</title>
<path fill="none" stroke="black" d="M1661.95,-146.17C1636.48,-136.4 1604.13,-123.98 1576.83,-113.51"/>
<polygon fill="black" stroke="black" points="1578.25,-110.3 1567.66,-109.99 1575.74,-116.84 1578.25,-110.3"/>
</g>
<!-- alg_Subtract_van_empty -->
<g id="node25" class="node">
<title>alg_Subtract_van_empty</title>
<path fill="lightskyblue" stroke="black" d="M308.79,-794C308.79,-794 120.79,-794 120.79,-794 114.79,-794 108.79,-788 108.79,-782 108.79,-782 108.79,-770 108.79,-770 108.79,-764 114.79,-758 120.79,-758 120.79,-758 308.79,-758 308.79,-758 314.79,-758 320.79,-764 320.79,-770 320.79,-770 320.79,-782 320.79,-782 320.79,-788 314.79,-794 308.79,-794"/>
<text text-anchor="middle" x="214.79" y="-772.3" font-family="Helvetica,sans-Serif" font-size="14.00">Subtract: vanadium &#45; empty</text>
</g>
<!-- proc_LoadCurrentNormWS_1&#45;&gt;alg_Subtract_van_empty -->
<g id="edge7" class="edge">
<title>proc_LoadCurrentNormWS_1&#45;&gt;alg_Subtract_van_empty</title>
<path fill="none" stroke="black" d="M176.05,-884.62C183.47,-864 195.94,-829.36 204.72,-804.96"/>
<polygon fill="black" stroke="black" points="207.98,-806.25 208.07,-795.66 201.39,-803.88 207.98,-806.25"/>
</g>
<!-- alg_SaveNexusProcessedEmpty -->
<g id="node22" class="node">
<title>alg_SaveNexusProcessedEmpty</title>
<path fill="lightskyblue" stroke="black" d="M359.79,-867C359.79,-867 259.79,-867 259.79,-867 253.79,-867 247.79,-861 247.79,-855 247.79,-855 247.79,-843 247.79,-843 247.79,-837 253.79,-831 259.79,-831 259.79,-831 359.79,-831 359.79,-831 365.79,-831 371.79,-837 371.79,-843 371.79,-843 371.79,-855 371.79,-855 371.79,-861 365.79,-867 359.79,-867"/>
<text text-anchor="middle" x="309.79" y="-845.3" font-family="Helvetica,sans-Serif" font-size="14.00">Save Nexus file</text>
</g>
<!-- proc_LoadCurrentNormWS_2&#45;&gt;alg_SaveNexusProcessedEmpty -->
<g id="edge6" class="edge">
<title>proc_LoadCurrentNormWS_2&#45;&gt;alg_SaveNexusProcessedEmpty</title>
<path fill="none" stroke="black" d="M330.77,-938.97C326.93,-922.69 321.07,-897.82 316.51,-878.52"/>
<polygon fill="black" stroke="black" points="319.93,-877.74 314.23,-868.81 313.12,-879.35 319.93,-877.74"/>
</g>
<!-- proc_InstApplyAbsorbCorr -->
<g id="node14" class="node">
<title>proc_InstApplyAbsorbCorr</title>
<polygon fill="lightseagreen" stroke="black" points="858.79,-488 550.79,-488 550.79,-452 858.79,-452 858.79,-488"/>
<text text-anchor="middle" x="704.79" y="-466.3" font-family="Helvetica,sans-Serif" font-size="14.00">Inst specific: Apply absorption corrections</text>
</g>
<!-- proc_InstApplyAbsorbCorr&#45;&gt;alg_DiffractionFocusing -->
<g id="edge19" class="edge">
<title>proc_InstApplyAbsorbCorr&#45;&gt;alg_DiffractionFocusing</title>
<path fill="none" stroke="black" d="M751.27,-451.63C777.26,-441.92 809.88,-429.73 837.45,-419.43"/>
<polygon fill="black" stroke="black" points="838.57,-422.74 846.71,-415.97 836.12,-416.19 838.57,-422.74"/>
</g>
<!-- proc_InstMaskPeaks -->
<g id="node15" class="node">
<title>proc_InstMaskPeaks</title>
<polygon fill="lightseagreen" stroke="black" points="1495.29,-182 1178.29,-182 1178.29,-146 1495.29,-146 1495.29,-182"/>
<text text-anchor="middle" x="1336.79" y="-160.3" font-family="Helvetica,sans-Serif" font-size="14.00">Inst specific: Mask peaks in Vanadium data</text>
</g>
<!-- proc_InstMaskPeaks&#45;&gt;alg_SplineVanadium -->
<g id="edge26" class="edge">
<title>proc_InstMaskPeaks&#45;&gt;alg_SplineVanadium</title>
<path fill="none" stroke="black" d="M1381.8,-145.63C1406.86,-135.96 1438.28,-123.84 1464.9,-113.56"/>
<polygon fill="black" stroke="black" points="1466.12,-116.85 1474.19,-109.98 1463.6,-110.31 1466.12,-116.85"/>
</g>
<!-- proc_InstSaveFocused -->
<g id="node16" class="node">
<title>proc_InstSaveFocused</title>
<polygon fill="lightseagreen" stroke="black" points="1002.79,-328 754.79,-328 754.79,-292 1002.79,-292 1002.79,-328"/>
<text text-anchor="middle" x="878.79" y="-306.3" font-family="Helvetica,sans-Serif" font-size="14.00">Inst specific: Save focused banks</text>
</g>
<!-- alg_Align&#45;&gt;if_apply_absorb -->
<g id="edge14" class="edge">
<title>alg_Align&#45;&gt;if_apply_absorb</title>
<path fill="none" stroke="black" d="M705.37,-611.63C723.3,-601.45 746.02,-588.54 764.68,-577.94"/>
<polygon fill="black" stroke="black" points="766.29,-581.05 773.25,-573.07 762.83,-574.97 766.29,-581.05"/>
</g>
<!-- alg_CropRawTOF&#45;&gt;alg_Align -->
<g id="edge13" class="edge">
<title>alg_CropRawTOF&#45;&gt;alg_Align</title>
<path fill="none" stroke="black" d="M556.2,-684.63C577.2,-675.13 603.44,-663.27 625.89,-653.11"/>
<polygon fill="black" stroke="black" points="627.19,-656.37 634.86,-649.06 624.3,-649.99 627.19,-656.37"/>
</g>
<!-- alg_CropVanTOF&#45;&gt;proc_InstMaskPeaks -->
<g id="edge24" class="edge">
<title>alg_CropVanTOF&#45;&gt;proc_InstMaskPeaks</title>
<path fill="none" stroke="black" d="M1336.79,-218.81C1336.79,-211.23 1336.79,-202.1 1336.79,-193.54"/>
<polygon fill="black" stroke="black" points="1340.29,-193.54 1336.79,-183.54 1333.29,-193.54 1340.29,-193.54"/>
</g>
<!-- alg_DiffractionFocusing&#45;&gt;proc_InstSaveFocused -->
<g id="edge20" class="edge">
<title>alg_DiffractionFocusing&#45;&gt;proc_InstSaveFocused</title>
<path fill="none" stroke="black" d="M891.55,-378.8C889.44,-367.58 886.63,-352.67 884.19,-339.69"/>
<polygon fill="black" stroke="black" points="887.65,-339.13 882.36,-329.95 880.77,-340.43 887.65,-339.13"/>
</g>
<!-- alg_ExtractWsSpectra -->
<g id="node21" class="node">
<title>alg_ExtractWsSpectra</title>
<path fill="lightskyblue" stroke="black" d="M1280.79,-328C1280.79,-328 1032.79,-328 1032.79,-328 1026.79,-328 1020.79,-322 1020.79,-316 1020.79,-316 1020.79,-304 1020.79,-304 1020.79,-298 1026.79,-292 1032.79,-292 1032.79,-292 1280.79,-292 1280.79,-292 1286.79,-292 1292.79,-298 1292.79,-304 1292.79,-304 1292.79,-316 1292.79,-316 1292.79,-322 1286.79,-328 1280.79,-328"/>
<text text-anchor="middle" x="1156.79" y="-306.3" font-family="Helvetica,sans-Serif" font-size="14.00">Extract spectra into individual banks</text>
</g>
<!-- alg_DiffractionFocusing&#45;&gt;alg_ExtractWsSpectra -->
<g id="edge21" class="edge">
<title>alg_DiffractionFocusing&#45;&gt;alg_ExtractWsSpectra</title>
<path fill="none" stroke="black" d="M948.44,-378.59C990.12,-365.07 1048.08,-346.27 1092.28,-331.93"/>
<polygon fill="black" stroke="black" points="1093.34,-335.27 1101.77,-328.85 1091.18,-328.61 1093.34,-335.27"/>
<text text-anchor="middle" x="1133.79" y="-349.8" font-family="Helvetica,sans-Serif" font-size="14.00">Creating vanadium splines</text>
</g>
<!-- alg_ExtractWsSpectra&#45;&gt;alg_CropVanTOF -->
<g id="edge23" class="edge">
<title>alg_ExtractWsSpectra&#45;&gt;alg_CropVanTOF</title>
<path fill="none" stroke="black" d="M1200.82,-291.63C1225.34,-281.96 1256.07,-269.84 1282.12,-259.56"/>
<polygon fill="black" stroke="black" points="1283.16,-262.92 1291.18,-255.99 1280.59,-256.4 1283.16,-262.92"/>
</g>
<!-- alg_SaveNexusProcessedEmpty&#45;&gt;alg_Subtract_van_empty -->
<g id="edge8" class="edge">
<title>alg_SaveNexusProcessedEmpty&#45;&gt;alg_Subtract_van_empty</title>
<path fill="none" stroke="black" d="M286.79,-830.81C274.86,-821.9 260.09,-810.86 247.04,-801.1"/>
<polygon fill="black" stroke="black" points="249.22,-798.36 239.12,-795.18 245.03,-803.97 249.22,-798.36"/>
</g>
<!-- alg_SaveNexusProcessed -->
<g id="node23" class="node">
<title>alg_SaveNexusProcessed</title>
<path fill="lightskyblue" stroke="black" d="M1570.79,-36C1570.79,-36 1470.79,-36 1470.79,-36 1464.79,-36 1458.79,-30 1458.79,-24 1458.79,-24 1458.79,-12 1458.79,-12 1458.79,-6 1464.79,0 1470.79,0 1470.79,0 1570.79,0 1570.79,0 1576.79,0 1582.79,-6 1582.79,-12 1582.79,-12 1582.79,-24 1582.79,-24 1582.79,-30 1576.79,-36 1570.79,-36"/>
<text text-anchor="middle" x="1520.79" y="-14.3" font-family="Helvetica,sans-Serif" font-size="14.00">Save Nexus file</text>
</g>
<!-- alg_SplineVanadium&#45;&gt;alg_SaveNexusProcessed -->
<g id="edge27" class="edge">
<title>alg_SplineVanadium&#45;&gt;alg_SaveNexusProcessed</title>
<path fill="none" stroke="black" d="M1520.79,-72.81C1520.79,-65.23 1520.79,-56.1 1520.79,-47.54"/>
<polygon fill="black" stroke="black" points="1524.29,-47.54 1520.79,-37.54 1517.29,-47.54 1524.29,-47.54"/>
</g>
<!-- alg_Subtract_van_empty&#45;&gt;alg_CropRawTOF -->
<g id="edge10" class="edge">
<title>alg_Subtract_van_empty&#45;&gt;alg_CropRawTOF</title>
<path fill="none" stroke="black" d="M289.3,-757.54C332.6,-747.39 387.33,-734.57 432.37,-724.02"/>
<polygon fill="black" stroke="black" points="432.89,-727.49 441.83,-721.8 431.3,-720.67 432.89,-727.49"/>
</g>
<!-- if_apply_absorb&#45;&gt;proc_InstApplyAbsorbCorr -->
<g id="edge16" class="edge">
<title>if_apply_absorb&#45;&gt;proc_InstApplyAbsorbCorr</title>
<path fill="none" stroke="black" d="M782.8,-540.8C768.94,-528.39 749.05,-510.6 732.82,-496.08"/>
<polygon fill="black" stroke="black" points="735.16,-493.48 725.37,-489.42 730.49,-498.69 735.16,-493.48"/>
<text text-anchor="middle" x="772.79" y="-509.8" font-family="Helvetica,sans-Serif" font-size="14.00">True</text>
</g>
<!-- if_apply_absorb&#45;&gt;alg_DiffractionFocusing -->
<g id="edge18" class="edge">
<title>if_apply_absorb&#45;&gt;alg_DiffractionFocusing</title>
<path fill="none" stroke="black" d="M819.43,-540.97C834.65,-528.36 855.2,-509.07 867.79,-488 879.11,-469.04 886.01,-444.97 889.99,-426.5"/>
<polygon fill="black" stroke="black" points="893.41,-427.25 891.92,-416.76 886.55,-425.89 893.41,-427.25"/>
<text text-anchor="middle" x="900.79" y="-466.3" font-family="Helvetica,sans-Serif" font-size="14.00">False</text>
</g>
</g>
</svg>
