<?xml version="1.0" encoding="UTF-8" standalone="no"?>
<!DOCTYPE svg PUBLIC "-//W3C//DTD SVG 1.1//EN"
 "http://www.w3.org/Graphics/SVG/1.1/DTD/svg11.dtd">
<!-- Generated by graphviz version 7.0.5 (20221231.0122)
 -->
<!-- Title: isisPowderCreateVanadium Pages: 1 -->
<svg width="1288pt" height="606pt"
 viewBox="0.00 0.00 1287.94 606.48" xmlns="http://www.w3.org/2000/svg" xmlns:xlink="http://www.w3.org/1999/xlink">
<g id="graph0" class="graph" transform="scale(1 1) rotate(0) translate(4 602.48)">
<title>isisPowderCreateVanadium</title>
<polygon fill="white" stroke="none" points="-4,4 -4,-602.48 1283.94,-602.48 1283.94,4 -4,4"/>
<text text-anchor="middle" x="639.97" y="-583.28" font-family="Helvetica,sans-Serif" font-size="14.00">ISISPowder &#45; Normalise By Current</text>
<!-- label_normaliseByCurrentGeneric -->
<g id="node1" class="node">
<title>label_normaliseByCurrentGeneric</title>
<ellipse fill="lightgrey" stroke="black" cx="151.44" cy="-557.48" rx="151.37" ry="18"/>
<text text-anchor="middle" x="151.44" y="-553.78" font-family="Helvetica,sans-Serif" font-size="14.00">Normalise by Current &#45; Generic</text>
</g>
<!-- alg_NormaliseByCurrent -->
<g id="node7" class="node">
<title>alg_NormaliseByCurrent</title>
<path fill="lightskyblue" stroke="black" d="M221.94,-503.48C221.94,-503.48 80.94,-503.48 80.94,-503.48 74.94,-503.48 68.94,-497.48 68.94,-491.48 68.94,-491.48 68.94,-479.48 68.94,-479.48 68.94,-473.48 74.94,-467.48 80.94,-467.48 80.94,-467.48 221.94,-467.48 221.94,-467.48 227.94,-467.48 233.94,-473.48 233.94,-479.48 233.94,-479.48 233.94,-491.48 233.94,-491.48 233.94,-497.48 227.94,-503.48 221.94,-503.48"/>
<text text-anchor="middle" x="151.44" y="-481.78" font-family="Helvetica,sans-Serif" font-size="14.00">Normalise by Current</text>
</g>
<!-- label_normaliseByCurrentGeneric&#45;&gt;alg_NormaliseByCurrent -->
<g id="edge1" class="edge">
<title>label_normaliseByCurrentGeneric&#45;&gt;alg_NormaliseByCurrent</title>
<path fill="none" stroke="black" d="M151.44,-539.18C151.44,-531.89 151.44,-523.21 151.44,-515.02"/>
<polygon fill="black" stroke="black" points="154.94,-515.1 151.44,-505.1 147.94,-515.1 154.94,-515.1"/>
</g>
<!-- label_normaliseByCurrentPearl -->
<g id="node2" class="node">
<title>label_normaliseByCurrentPearl</title>
<ellipse fill="lightgrey" stroke="black" cx="466.44" cy="-557.48" rx="145.67" ry="18"/>
<text text-anchor="middle" x="466.44" y="-553.78" font-family="Helvetica,sans-Serif" font-size="14.00">Normalise by Current &#45; PEARL</text>
</g>
<!-- alg_ExtractSpectrumPearl -->
<g id="node12" class="node">
<title>alg_ExtractSpectrumPearl</title>
<path fill="lightskyblue" stroke="black" d="M812.44,-503.48C812.44,-503.48 698.44,-503.48 698.44,-503.48 692.44,-503.48 686.44,-497.48 686.44,-491.48 686.44,-491.48 686.44,-479.48 686.44,-479.48 686.44,-473.48 692.44,-467.48 698.44,-467.48 698.44,-467.48 812.44,-467.48 812.44,-467.48 818.44,-467.48 824.44,-473.48 824.44,-479.48 824.44,-479.48 824.44,-491.48 824.44,-491.48 824.44,-497.48 818.44,-503.48 812.44,-503.48"/>
<text text-anchor="middle" x="755.44" y="-481.78" font-family="Helvetica,sans-Serif" font-size="14.00">Extract Spectrum</text>
</g>
<!-- label_normaliseByCurrentPearl&#45;&gt;alg_ExtractSpectrumPearl -->
<g id="edge2" class="edge">
<title>label_normaliseByCurrentPearl&#45;&gt;alg_ExtractSpectrumPearl</title>
<path fill="none" stroke="black" d="M530.58,-540.94C573.21,-530.62 629.52,-516.98 675.13,-505.93"/>
<polygon fill="black" stroke="black" points="675.81,-509.37 684.71,-503.61 674.16,-502.56 675.81,-509.37"/>
</g>
<!-- param_advConfigMonitorSpectrum -->
<g id="node3" class="node">
<title>param_advConfigMonitorSpectrum</title>
<ellipse fill="khaki" stroke="black" cx="775.44" cy="-557.48" rx="144.87" ry="18"/>
<text text-anchor="middle" x="775.44" y="-553.78" font-family="Helvetica,sans-Serif" font-size="14.00">Adv config: Monitor spectrum</text>
</g>
<!-- param_advConfigMonitorSpectrum&#45;&gt;alg_ExtractSpectrumPearl -->
<g id="edge4" class="edge">
<title>param_advConfigMonitorSpectrum&#45;&gt;alg_ExtractSpectrumPearl</title>
<path fill="none" stroke="black" d="M770.49,-539.18C768.36,-531.72 765.81,-522.8 763.43,-514.45"/>
<polygon fill="black" stroke="black" points="766.85,-513.69 760.74,-505.04 760.12,-515.62 766.85,-513.69"/>
</g>
<!-- param_advConfigMonitorLambdaCropRange -->
<g id="node4" class="node">
<title>param_advConfigMonitorLambdaCropRange</title>
<ellipse fill="khaki" stroke="black" cx="1002.44" cy="-404.61" rx="147.57" ry="26.74"/>
<text text-anchor="middle" x="1002.44" y="-408.41" font-family="Helvetica,sans-Serif" font-size="14.00">Adv config:</text>
<text text-anchor="middle" x="1002.44" y="-393.41" font-family="Helvetica,sans-Serif" font-size="14.00"> Monitor lambda crop range</text>
</g>
<!-- alg_CropWorkspace -->
<g id="node11" class="node">
<title>alg_CropWorkspace</title>
<path fill="lightskyblue" stroke="black" d="M864.44,-341.74C864.44,-341.74 758.44,-341.74 758.44,-341.74 752.44,-341.74 746.44,-335.74 746.44,-329.74 746.44,-329.74 746.44,-317.74 746.44,-317.74 746.44,-311.74 752.44,-305.74 758.44,-305.74 758.44,-305.74 864.44,-305.74 864.44,-305.74 870.44,-305.74 876.44,-311.74 876.44,-317.74 876.44,-317.74 876.44,-329.74 876.44,-329.74 876.44,-335.74 870.44,-341.74 864.44,-341.74"/>
<text text-anchor="middle" x="811.44" y="-320.04" font-family="Helvetica,sans-Serif" font-size="14.00">Crop Workspace</text>
</g>
<!-- param_advConfigMonitorLambdaCropRange&#45;&gt;alg_CropWorkspace -->
<g id="edge6" class="edge">
<title>param_advConfigMonitorLambdaCropRange&#45;&gt;alg_CropWorkspace</title>
<path fill="none" stroke="black" d="M944.35,-379.63C918.81,-369.08 889.02,-356.78 864.13,-346.5"/>
<polygon fill="black" stroke="black" points="865.76,-343.39 855.18,-342.8 863.09,-349.86 865.76,-343.39"/>
</g>
<!-- param_advConfigMonitorSplineCoefficient -->
<g id="node5" class="node">
<title>param_advConfigMonitorSplineCoefficient</title>
<ellipse fill="khaki" stroke="black" cx="1011.44" cy="-242.87" rx="138.69" ry="26.74"/>
<text text-anchor="middle" x="1011.44" y="-246.67" font-family="Helvetica,sans-Serif" font-size="14.00">Adv config:</text>
<text text-anchor="middle" x="1011.44" y="-231.67" font-family="Helvetica,sans-Serif" font-size="14.00"> Monitor spline coefficient</text>
</g>
<!-- alg_SplineBackground -->
<g id="node15" class="node">
<title>alg_SplineBackground</title>
<path fill="lightskyblue" stroke="black" d="M1072.94,-180C1072.94,-180 949.94,-180 949.94,-180 943.94,-180 937.94,-174 937.94,-168 937.94,-168 937.94,-156 937.94,-156 937.94,-150 943.94,-144 949.94,-144 949.94,-144 1072.94,-144 1072.94,-144 1078.94,-144 1084.94,-150 1084.94,-156 1084.94,-156 1084.94,-168 1084.94,-168 1084.94,-174 1078.94,-180 1072.94,-180"/>
<text text-anchor="middle" x="1011.44" y="-158.3" font-family="Helvetica,sans-Serif" font-size="14.00">Spline Background</text>
</g>
<!-- param_advConfigMonitorSplineCoefficient&#45;&gt;alg_SplineBackground -->
<g id="edge10" class="edge">
<title>param_advConfigMonitorSplineCoefficient&#45;&gt;alg_SplineBackground</title>
<path fill="none" stroke="black" d="M1011.44,-216.05C1011.44,-208.29 1011.44,-199.73 1011.44,-191.79"/>
<polygon fill="black" stroke="black" points="1014.94,-191.93 1011.44,-181.93 1007.94,-191.93 1014.94,-191.93"/>
</g>
<!-- param_inputWorkspace -->
<g id="node6" class="node">
<title>param_inputWorkspace</title>
<ellipse fill="khaki" stroke="black" cx="1138.44" cy="-557.48" rx="119.68" ry="18"/>
<text text-anchor="middle" x="1138.44" y="-553.78" font-family="Helvetica,sans-Serif" font-size="14.00">Workspace to normalise</text>
</g>
<!-- alg_ConvertUnitsWavelengthInputWs -->
<g id="node10" class="node">
<title>alg_ConvertUnitsWavelengthInputWs</title>
<path fill="lightskyblue" stroke="black" d="M1267.94,-341.74C1267.94,-341.74 1088.94,-341.74 1088.94,-341.74 1082.94,-341.74 1076.94,-335.74 1076.94,-329.74 1076.94,-329.74 1076.94,-317.74 1076.94,-317.74 1076.94,-311.74 1082.94,-305.74 1088.94,-305.74 1088.94,-305.74 1267.94,-305.74 1267.94,-305.74 1273.94,-305.74 1279.94,-311.74 1279.94,-317.74 1279.94,-317.74 1279.94,-329.74 1279.94,-329.74 1279.94,-335.74 1273.94,-341.74 1267.94,-341.74"/>
<text text-anchor="middle" x="1178.44" y="-320.04" font-family="Helvetica,sans-Serif" font-size="14.00">Convert Units: Wavelength</text>
</g>
<!-- param_inputWorkspace&#45;&gt;alg_ConvertUnitsWavelengthInputWs -->
<g id="edge11" class="edge">
<title>param_inputWorkspace&#45;&gt;alg_ConvertUnitsWavelengthInputWs</title>
<path fill="none" stroke="black" d="M1141.44,-539.06C1148.29,-499.37 1165.12,-401.91 1173.51,-353.29"/>
<polygon fill="black" stroke="black" points="1176.94,-353.99 1175.19,-343.54 1170.04,-352.79 1176.94,-353.99"/>
</g>
<!-- param_inputWorkspace&#45;&gt;alg_ExtractSpectrumPearl -->
<g id="edge3" class="edge">
<title>param_inputWorkspace&#45;&gt;alg_ExtractSpectrumPearl</title>
<path fill="none" stroke="black" d="M1064.59,-542.98C999.01,-531 903.37,-513.52 835.87,-501.18"/>
<polygon fill="black" stroke="black" points="836.82,-497.8 826.35,-499.44 835.56,-504.68 836.82,-497.8"/>
</g>
<!-- alg_ConvertUnitsTOF -->
<g id="node8" class="node">
<title>alg_ConvertUnitsTOF</title>
<path fill="lightskyblue" stroke="black" d="M1156.94,-36C1156.94,-36 1031.94,-36 1031.94,-36 1025.94,-36 1019.94,-30 1019.94,-24 1019.94,-24 1019.94,-12 1019.94,-12 1019.94,-6 1025.94,0 1031.94,0 1031.94,0 1156.94,0 1156.94,0 1162.94,0 1168.94,-6 1168.94,-12 1168.94,-12 1168.94,-24 1168.94,-24 1168.94,-30 1162.94,-36 1156.94,-36"/>
<text text-anchor="middle" x="1094.44" y="-14.3" font-family="Helvetica,sans-Serif" font-size="14.00">Convert Units: TOF</text>
</g>
<!-- alg_ConvertUnitsWavelength -->
<g id="node9" class="node">
<title>alg_ConvertUnitsWavelength</title>
<path fill="lightskyblue" stroke="black" d="M824.94,-422.61C824.94,-422.61 645.94,-422.61 645.94,-422.61 639.94,-422.61 633.94,-416.61 633.94,-410.61 633.94,-410.61 633.94,-398.61 633.94,-398.61 633.94,-392.61 639.94,-386.61 645.94,-386.61 645.94,-386.61 824.94,-386.61 824.94,-386.61 830.94,-386.61 836.94,-392.61 836.94,-398.61 836.94,-398.61 836.94,-410.61 836.94,-410.61 836.94,-416.61 830.94,-422.61 824.94,-422.61"/>
<text text-anchor="middle" x="735.44" y="-400.91" font-family="Helvetica,sans-Serif" font-size="14.00">Convert Units: Wavelength</text>
</g>
<!-- alg_ConvertUnitsWavelength&#45;&gt;alg_CropWorkspace -->
<g id="edge7" class="edge">
<title>alg_ConvertUnitsWavelength&#45;&gt;alg_CropWorkspace</title>
<path fill="none" stroke="black" d="M751.93,-386.5C762.12,-375.92 775.38,-362.16 786.8,-350.31"/>
<polygon fill="black" stroke="black" points="789.25,-352.81 793.67,-343.18 784.21,-347.95 789.25,-352.81"/>
</g>
<!-- alg_NormaliseToMonitor -->
<g id="node14" class="node">
<title>alg_NormaliseToMonitor</title>
<path fill="lightskyblue" stroke="black" d="M1163.94,-108C1163.94,-108 1024.94,-108 1024.94,-108 1018.94,-108 1012.94,-102 1012.94,-96 1012.94,-96 1012.94,-84 1012.94,-84 1012.94,-78 1018.94,-72 1024.94,-72 1024.94,-72 1163.94,-72 1163.94,-72 1169.94,-72 1175.94,-78 1175.94,-84 1175.94,-84 1175.94,-96 1175.94,-96 1175.94,-102 1169.94,-108 1163.94,-108"/>
<text text-anchor="middle" x="1094.44" y="-86.3" font-family="Helvetica,sans-Serif" font-size="14.00">Normalise to monitor</text>
</g>
<!-- alg_ConvertUnitsWavelengthInputWs&#45;&gt;alg_NormaliseToMonitor -->
<g id="edge13" class="edge">
<title>alg_ConvertUnitsWavelengthInputWs&#45;&gt;alg_NormaliseToMonitor</title>
<path fill="none" stroke="black" d="M1176.97,-305.33C1174.8,-283.86 1169.8,-246.47 1159.44,-216 1147.38,-180.54 1126.49,-142.78 1111.65,-118.16"/>
<polygon fill="black" stroke="black" points="1114.7,-116.44 1106.49,-109.74 1108.73,-120.1 1114.7,-116.44"/>
</g>
<!-- alg_MaskBins -->
<g id="node13" class="node">
<title>alg_MaskBins</title>
<path fill="lightskyblue" stroke="black" d="M842.94,-260.87C842.94,-260.87 779.94,-260.87 779.94,-260.87 773.94,-260.87 767.94,-254.87 767.94,-248.87 767.94,-248.87 767.94,-236.87 767.94,-236.87 767.94,-230.87 773.94,-224.87 779.94,-224.87 779.94,-224.87 842.94,-224.87 842.94,-224.87 848.94,-224.87 854.94,-230.87 854.94,-236.87 854.94,-236.87 854.94,-248.87 854.94,-248.87 854.94,-254.87 848.94,-260.87 842.94,-260.87"/>
<text text-anchor="middle" x="811.44" y="-239.17" font-family="Helvetica,sans-Serif" font-size="14.00">Mask Bins</text>
</g>
<!-- alg_CropWorkspace&#45;&gt;alg_MaskBins -->
<g id="edge8" class="edge">
<title>alg_CropWorkspace&#45;&gt;alg_MaskBins</title>
<path fill="none" stroke="black" d="M811.44,-305.63C811.44,-295.98 811.44,-283.67 811.44,-272.59"/>
<polygon fill="black" stroke="black" points="814.94,-272.74 811.44,-262.74 807.94,-272.74 814.94,-272.74"/>
</g>
<!-- alg_ExtractSpectrumPearl&#45;&gt;alg_ConvertUnitsWavelength -->
<g id="edge5" class="edge">
<title>alg_ExtractSpectrumPearl&#45;&gt;alg_ConvertUnitsWavelength</title>
<path fill="none" stroke="black" d="M751.1,-467.37C748.62,-457.62 745.46,-445.15 742.63,-433.97"/>
<polygon fill="black" stroke="black" points="746.06,-433.26 740.21,-424.43 739.27,-434.98 746.06,-433.26"/>
</g>
<!-- alg_MaskBins&#45;&gt;alg_SplineBackground -->
<g id="edge9" class="edge">
<title>alg_MaskBins&#45;&gt;alg_SplineBackground</title>
<path fill="none" stroke="black" d="M845.01,-224.45C851.09,-221.5 857.41,-218.57 863.44,-216 890.58,-204.44 921.19,-193.19 947.5,-184.05"/>
<polygon fill="black" stroke="black" points="948.36,-187.45 956.68,-180.89 946.08,-180.84 948.36,-187.45"/>
</g>
<!-- alg_NormaliseToMonitor&#45;&gt;alg_ConvertUnitsTOF -->
<g id="edge14" class="edge">
<title>alg_NormaliseToMonitor&#45;&gt;alg_ConvertUnitsTOF</title>
<path fill="none" stroke="black" d="M1094.44,-71.7C1094.44,-64.41 1094.44,-55.73 1094.44,-47.54"/>
<polygon fill="black" stroke="black" points="1097.94,-47.62 1094.44,-37.62 1090.94,-47.62 1097.94,-47.62"/>
</g>
<!-- alg_SplineBackground&#45;&gt;alg_NormaliseToMonitor -->
<g id="edge12" class="edge">
<title>alg_SplineBackground&#45;&gt;alg_NormaliseToMonitor</title>
<path fill="none" stroke="black" d="M1031.95,-143.7C1042.03,-135.2 1054.34,-124.81 1065.37,-115.51"/>
<polygon fill="black" stroke="black" points="1067.32,-118.45 1072.71,-109.32 1062.81,-113.09 1067.32,-118.45"/>
</g>
</g>
</svg>
