<?xml version="1.0" encoding="UTF-8" standalone="no"?>
<!DOCTYPE svg PUBLIC "-//W3C//DTD SVG 1.1//EN"
 "http://www.w3.org/Graphics/SVG/1.1/DTD/svg11.dtd">
<!-- Generated by graphviz version 3.0.0 (20220315.2325)
 -->
<!-- Title: isisPowderGenericAlgs Pages: 1 -->
<svg width="1636pt" height="439pt"
 viewBox="0.00 0.00 1635.57 439.22" xmlns="http://www.w3.org/2000/svg" xmlns:xlink="http://www.w3.org/1999/xlink">
<g id="graph0" class="graph" transform="scale(1 1) rotate(0) translate(4 435.22)">
<title>isisPowderGenericAlgs</title>
<polygon fill="white" stroke="transparent" points="-4,4 -4,-435.22 1631.57,-435.22 1631.57,4 -4,4"/>
<text text-anchor="middle" x="813.79" y="-416.02" font-family="Helvetica,sans-Serif" font-size="14.00">ISISPowder &#45; Apply absorption corrections</text>
<!-- label_GEM -->
<g id="node1" class="node">
<title>label_GEM</title>
<ellipse fill="lightgrey" stroke="black" cx="170.28" cy="-390.22" rx="170.07" ry="18"/>
<text text-anchor="middle" x="170.28" y="-386.52" font-family="Helvetica,sans-Serif" font-size="14.00">Apply absorption corrections &#45; GEM</text>
</g>
<!-- if_GEM_isVanadium -->
<g id="node12" class="node">
<title>if_GEM_isVanadium</title>
<polygon fill="limegreen" stroke="black" points="170.28,-335.22 58.85,-317.22 170.28,-299.22 281.72,-317.22 170.28,-335.22"/>
<text text-anchor="middle" x="170.28" y="-313.52" font-family="Helvetica,sans-Serif" font-size="14.00">If: Is Vanadium</text>
</g>
<!-- label_GEM&#45;&gt;if_GEM_isVanadium -->
<g id="edge1" class="edge">
<title>label_GEM&#45;&gt;if_GEM_isVanadium</title>
<path fill="none" stroke="black" d="M170.28,-372.03C170.28,-364.01 170.28,-354.27 170.28,-345.29"/>
<polygon fill="black" stroke="black" points="173.78,-345.25 170.28,-335.25 166.78,-345.25 173.78,-345.25"/>
</g>
<!-- label_PEARL -->
<g id="node2" class="node">
<title>label_PEARL</title>
<ellipse fill="lightgrey" stroke="black" cx="1116.28" cy="-390.22" rx="178.97" ry="18"/>
<text text-anchor="middle" x="1116.28" y="-386.52" font-family="Helvetica,sans-Serif" font-size="14.00">Apply absorption corrections &#45; PEARL</text>
</g>
<!-- alg_PEARL_Load -->
<g id="node9" class="node">
<title>alg_PEARL_Load</title>
<path fill="lightskyblue" stroke="black" d="M1136.28,-335.22C1136.28,-335.22 1106.28,-335.22 1106.28,-335.22 1100.28,-335.22 1094.28,-329.22 1094.28,-323.22 1094.28,-323.22 1094.28,-311.22 1094.28,-311.22 1094.28,-305.22 1100.28,-299.22 1106.28,-299.22 1106.28,-299.22 1136.28,-299.22 1136.28,-299.22 1142.28,-299.22 1148.28,-305.22 1148.28,-311.22 1148.28,-311.22 1148.28,-323.22 1148.28,-323.22 1148.28,-329.22 1142.28,-335.22 1136.28,-335.22"/>
<text text-anchor="middle" x="1121.28" y="-313.52" font-family="Helvetica,sans-Serif" font-size="14.00">Load</text>
</g>
<!-- label_PEARL&#45;&gt;alg_PEARL_Load -->
<g id="edge10" class="edge">
<title>label_PEARL&#45;&gt;alg_PEARL_Load</title>
<path fill="none" stroke="black" d="M1117.5,-372.03C1118.06,-364.01 1118.75,-354.27 1119.38,-345.29"/>
<polygon fill="black" stroke="black" points="1122.87,-345.47 1120.09,-335.25 1115.89,-344.98 1122.87,-345.47"/>
</g>
<!-- label_POLARIS -->
<g id="node3" class="node">
<title>label_POLARIS</title>
<ellipse fill="lightgrey" stroke="black" cx="725.28" cy="-390.22" rx="189.27" ry="18"/>
<text text-anchor="middle" x="725.28" y="-386.52" font-family="Helvetica,sans-Serif" font-size="14.00">Apply absorption corrections &#45; POLARIS</text>
</g>
<!-- if_POLARIS_isVanadium -->
<g id="node13" class="node">
<title>if_POLARIS_isVanadium</title>
<polygon fill="limegreen" stroke="black" points="725.28,-335.22 613.85,-317.22 725.28,-299.22 836.72,-317.22 725.28,-335.22"/>
<text text-anchor="middle" x="725.28" y="-313.52" font-family="Helvetica,sans-Serif" font-size="14.00">If: Is Vanadium</text>
</g>
<!-- label_POLARIS&#45;&gt;if_POLARIS_isVanadium -->
<g id="edge5" class="edge">
<title>label_POLARIS&#45;&gt;if_POLARIS_isVanadium</title>
<path fill="none" stroke="black" d="M725.28,-372.03C725.28,-364.01 725.28,-354.27 725.28,-345.29"/>
<polygon fill="black" stroke="black" points="728.78,-345.25 725.28,-335.25 721.78,-345.25 728.78,-345.25"/>
</g>
<!-- param_MayersInputs -->
<g id="node4" class="node">
<title>param_MayersInputs</title>
<ellipse fill="khaki" stroke="black" cx="495.28" cy="-167.61" rx="103.48" ry="80.72"/>
<text text-anchor="middle" x="495.28" y="-209.41" font-family="Helvetica,sans-Serif" font-size="14.00">User/Adv config:</text>
<text text-anchor="middle" x="495.28" y="-178.41" font-family="Helvetica,sans-Serif" font-size="14.00"> Chemical Formula</text>
<text text-anchor="middle" x="495.28" y="-163.41" font-family="Helvetica,sans-Serif" font-size="14.00"> Cylinder Height</text>
<text text-anchor="middle" x="495.28" y="-148.41" font-family="Helvetica,sans-Serif" font-size="14.00"> Cylinder Position</text>
<text text-anchor="middle" x="495.28" y="-133.41" font-family="Helvetica,sans-Serif" font-size="14.00"> Cylinder Radius</text>
<text text-anchor="middle" x="495.28" y="-118.41" font-family="Helvetica,sans-Serif" font-size="14.00"> Number Density</text>
</g>
<!-- alg_MayersSampleCorr -->
<g id="node6" class="node">
<title>alg_MayersSampleCorr</title>
<path fill="lightskyblue" stroke="black" d="M582.78,-36C582.78,-36 407.78,-36 407.78,-36 401.78,-36 395.78,-30 395.78,-24 395.78,-24 395.78,-12 395.78,-12 395.78,-6 401.78,0 407.78,0 407.78,0 582.78,0 582.78,0 588.78,0 594.78,-6 594.78,-12 594.78,-12 594.78,-24 594.78,-24 594.78,-30 588.78,-36 582.78,-36"/>
<text text-anchor="middle" x="495.28" y="-14.3" font-family="Helvetica,sans-Serif" font-size="14.00">Mayers Sample Correction</text>
</g>
<!-- param_MayersInputs&#45;&gt;alg_MayersSampleCorr -->
<g id="edge9" class="edge">
<title>param_MayersInputs&#45;&gt;alg_MayersSampleCorr</title>
<path fill="none" stroke="black" d="M495.28,-86.76C495.28,-72.24 495.28,-58.04 495.28,-46.42"/>
<polygon fill="black" stroke="black" points="498.78,-46.14 495.28,-36.14 491.78,-46.14 498.78,-46.14"/>
</g>
<!-- param_advAbsFilename -->
<g id="node5" class="node">
<title>param_advAbsFilename</title>
<ellipse fill="khaki" stroke="black" cx="1470.28" cy="-390.22" rx="157.07" ry="18"/>
<text text-anchor="middle" x="1470.28" y="-386.52" font-family="Helvetica,sans-Serif" font-size="14.00">Adv config: Absorption Filename</text>
</g>
<!-- param_advAbsFilename&#45;&gt;alg_PEARL_Load -->
<g id="edge11" class="edge">
<title>param_advAbsFilename&#45;&gt;alg_PEARL_Load</title>
<path fill="none" stroke="black" d="M1396.7,-374.25C1323.84,-359.43 1215.22,-337.33 1158.62,-325.82"/>
<polygon fill="black" stroke="black" points="1159.17,-322.36 1148.68,-323.79 1157.78,-329.22 1159.17,-322.36"/>
</g>
<!-- alg_GEM_maskDetector -->
<g id="node7" class="node">
<title>alg_GEM_maskDetector</title>
<path fill="lightskyblue" stroke="black" d="M162.28,-185.61C162.28,-185.61 18.28,-185.61 18.28,-185.61 12.28,-185.61 6.28,-179.61 6.28,-173.61 6.28,-173.61 6.28,-161.61 6.28,-161.61 6.28,-155.61 12.28,-149.61 18.28,-149.61 18.28,-149.61 162.28,-149.61 162.28,-149.61 168.28,-149.61 174.28,-155.61 174.28,-161.61 174.28,-161.61 174.28,-173.61 174.28,-173.61 174.28,-179.61 168.28,-185.61 162.28,-185.61"/>
<text text-anchor="middle" x="90.28" y="-163.91" font-family="Helvetica,sans-Serif" font-size="14.00">Mask detectors 1&#45;100</text>
</g>
<!-- alg_GEM_maskDetector&#45;&gt;alg_MayersSampleCorr -->
<g id="edge3" class="edge">
<title>alg_GEM_maskDetector&#45;&gt;alg_MayersSampleCorr</title>
<path fill="none" stroke="black" d="M83.78,-149.58C75.65,-125.07 65.49,-79.93 89.28,-54 109.02,-32.49 272.01,-24.17 385.37,-20.97"/>
<polygon fill="black" stroke="black" points="385.59,-24.47 395.5,-20.69 385.4,-17.47 385.59,-24.47"/>
<text text-anchor="middle" x="143.28" y="-57.8" font-family="Helvetica,sans-Serif" font-size="14.00">Use Adv Config</text>
</g>
<!-- alg_PEARL_Divide -->
<g id="node8" class="node">
<title>alg_PEARL_Divide</title>
<path fill="lightskyblue" stroke="black" d="M1211.78,-36C1211.78,-36 1030.78,-36 1030.78,-36 1024.78,-36 1018.78,-30 1018.78,-24 1018.78,-24 1018.78,-12 1018.78,-12 1018.78,-6 1024.78,0 1030.78,0 1030.78,0 1211.78,0 1211.78,0 1217.78,0 1223.78,-6 1223.78,-12 1223.78,-12 1223.78,-24 1223.78,-24 1223.78,-30 1217.78,-36 1211.78,-36"/>
<text text-anchor="middle" x="1121.28" y="-14.3" font-family="Helvetica,sans-Serif" font-size="14.00">Divide: Van ws / Absorb ws</text>
</g>
<!-- alg_PEARL_RebinWorkspace -->
<g id="node10" class="node">
<title>alg_PEARL_RebinWorkspace</title>
<path fill="lightskyblue" stroke="black" d="M1238.28,-185.61C1238.28,-185.61 1004.28,-185.61 1004.28,-185.61 998.28,-185.61 992.28,-179.61 992.28,-173.61 992.28,-173.61 992.28,-161.61 992.28,-161.61 992.28,-155.61 998.28,-149.61 1004.28,-149.61 1004.28,-149.61 1238.28,-149.61 1238.28,-149.61 1244.28,-149.61 1250.28,-155.61 1250.28,-161.61 1250.28,-161.61 1250.28,-173.61 1250.28,-173.61 1250.28,-179.61 1244.28,-185.61 1238.28,-185.61"/>
<text text-anchor="middle" x="1121.28" y="-163.91" font-family="Helvetica,sans-Serif" font-size="14.00">Rebin: Van ws to match Absorb ws</text>
</g>
<!-- alg_PEARL_Load&#45;&gt;alg_PEARL_RebinWorkspace -->
<g id="edge12" class="edge">
<title>alg_PEARL_Load&#45;&gt;alg_PEARL_RebinWorkspace</title>
<path fill="none" stroke="black" d="M1121.28,-299C1121.28,-273.67 1121.28,-226.11 1121.28,-195.97"/>
<polygon fill="black" stroke="black" points="1124.78,-195.72 1121.28,-185.72 1117.78,-195.72 1124.78,-195.72"/>
</g>
<!-- alg_PEARL_RebinWorkspace&#45;&gt;alg_PEARL_Divide -->
<g id="edge13" class="edge">
<title>alg_PEARL_RebinWorkspace&#45;&gt;alg_PEARL_Divide</title>
<path fill="none" stroke="black" d="M1121.28,-149.39C1121.28,-124.06 1121.28,-76.5 1121.28,-46.36"/>
<polygon fill="black" stroke="black" points="1124.78,-46.11 1121.28,-36.11 1117.78,-46.11 1124.78,-46.11"/>
</g>
<!-- alg_POLARIS_maskDetector -->
<g id="node11" class="node">
<title>alg_POLARIS_maskDetector</title>
<path fill="lightskyblue" stroke="black" d="M763.78,-185.61C763.78,-185.61 628.78,-185.61 628.78,-185.61 622.78,-185.61 616.78,-179.61 616.78,-173.61 616.78,-173.61 616.78,-161.61 616.78,-161.61 616.78,-155.61 622.78,-149.61 628.78,-149.61 628.78,-149.61 763.78,-149.61 763.78,-149.61 769.78,-149.61 775.78,-155.61 775.78,-161.61 775.78,-161.61 775.78,-173.61 775.78,-173.61 775.78,-179.61 769.78,-185.61 763.78,-185.61"/>
<text text-anchor="middle" x="696.28" y="-163.91" font-family="Helvetica,sans-Serif" font-size="14.00">Mask detectors 1&#45;54</text>
</g>
<!-- alg_POLARIS_maskDetector&#45;&gt;alg_MayersSampleCorr -->
<g id="edge7" class="edge">
<title>alg_POLARIS_maskDetector&#45;&gt;alg_MayersSampleCorr</title>
<path fill="none" stroke="black" d="M679.04,-149.44C661.69,-132.58 633.77,-106.62 607.28,-87 584.47,-70.1 557.29,-53.51 535.41,-40.96"/>
<polygon fill="black" stroke="black" points="537.12,-37.9 526.69,-36 533.66,-43.99 537.12,-37.9"/>
<text text-anchor="middle" x="635.28" y="-57.8" font-family="Helvetica,sans-Serif" font-size="14.00">Use Adv Config</text>
</g>
<!-- if_GEM_isVanadium&#45;&gt;alg_MayersSampleCorr -->
<g id="edge4" class="edge">
<title>if_GEM_isVanadium&#45;&gt;alg_MayersSampleCorr</title>
<path fill="none" stroke="black" d="M178.09,-300.12C180.68,-294.28 183.38,-287.55 185.28,-281.22 210.5,-197.21 160.28,-150.98 220.28,-87 243.13,-62.65 319.1,-45 385.42,-33.79"/>
<polygon fill="black" stroke="black" points="386.25,-37.2 395.55,-32.12 385.11,-30.29 386.25,-37.2"/>
<text text-anchor="middle" x="301.78" y="-163.91" font-family="Helvetica,sans-Serif" font-size="14.00">False &#45; Use User Config</text>
</g>
<!-- if_GEM_isVanadium&#45;&gt;alg_GEM_maskDetector -->
<g id="edge2" class="edge">
<title>if_GEM_isVanadium&#45;&gt;alg_GEM_maskDetector</title>
<path fill="none" stroke="black" d="M161.72,-300.42C147.99,-275.08 120.89,-225.09 104.3,-194.48"/>
<polygon fill="black" stroke="black" points="107.36,-192.78 99.52,-185.65 101.21,-196.11 107.36,-192.78"/>
<text text-anchor="middle" x="166.28" y="-270.02" font-family="Helvetica,sans-Serif" font-size="14.00">True</text>
</g>
<!-- if_POLARIS_isVanadium&#45;&gt;alg_MayersSampleCorr -->
<g id="edge8" class="edge">
<title>if_POLARIS_isVanadium&#45;&gt;alg_MayersSampleCorr</title>
<path fill="none" stroke="black" d="M743.32,-301.95C757.49,-289.49 776.14,-270.04 784.28,-248.22 809.35,-181.09 825.42,-145.67 784.28,-87 763.41,-57.22 677.74,-39.61 605.04,-29.8"/>
<polygon fill="black" stroke="black" points="605.25,-26.3 594.88,-28.47 604.34,-33.24 605.25,-26.3"/>
<text text-anchor="middle" x="891.78" y="-163.91" font-family="Helvetica,sans-Serif" font-size="14.00">False &#45; Use User Config</text>
</g>
<!-- if_POLARIS_isVanadium&#45;&gt;alg_POLARIS_maskDetector -->
<g id="edge6" class="edge">
<title>if_POLARIS_isVanadium&#45;&gt;alg_POLARIS_maskDetector</title>
<path fill="none" stroke="black" d="M722.01,-299.57C717.06,-274.35 707.59,-226.17 701.63,-195.81"/>
<polygon fill="black" stroke="black" points="705.04,-195.02 699.68,-185.88 698.17,-196.37 705.04,-195.02"/>
<text text-anchor="middle" x="733.28" y="-270.02" font-family="Helvetica,sans-Serif" font-size="14.00">True</text>
</g>
</g>
</svg>
