<?xml version="1.0" encoding="UTF-8" standalone="no"?>
<!DOCTYPE svg PUBLIC "-//W3C//DTD SVG 1.1//EN"
 "http://www.w3.org/Graphics/SVG/1.1/DTD/svg11.dtd">
<!-- Generated by graphviz version 2.47.2 (20210527.1257)
 -->
<!-- Title: ISISIndirectDiffractionReduction Pages: 1 -->
<svg width="1543pt" height="1452pt"
 viewBox="0.00 0.00 1542.58 1452.00" xmlns="http://www.w3.org/2000/svg" xmlns:xlink="http://www.w3.org/1999/xlink">
<g id="graph0" class="graph" transform="scale(1 1) rotate(0) translate(4 1448)">
<title>ISISIndirectDiffractionReduction</title>
<polygon fill="white" stroke="transparent" points="-4,4 -4,-1448 1538.58,-1448 1538.58,4 -4,4"/>
<text text-anchor="middle" x="767.29" y="-1428.8" font-family="Helvetica" font-size="14.00">ISISIndirectDiffractionReduction Flowchart</text>
<!-- need_to_unwrap -->
<g id="node1" class="node">
<title>need_to_unwrap</title>
<polygon fill="limegreen" stroke="black" points="1096.16,-1234.5 936.3,-1216.5 1096.16,-1198.5 1256.03,-1216.5 1096.16,-1234.5"/>
<text text-anchor="middle" x="1096.16" y="-1212.8" font-family="Helvetica" font-size="14.00">Need To Unwrap Monitor?</text>
</g>
<!-- unwrap_monitor -->
<g id="node18" class="node">
<title>unwrap_monitor</title>
<polygon fill="lightseagreen" stroke="black" points="1216.66,-1139 965.66,-1139 965.66,-1086 1216.66,-1086 1216.66,-1139"/>
<text text-anchor="middle" x="1091.16" y="-1123.8" font-family="Helvetica" font-size="14.00">unwrap_monitor</text>
<text text-anchor="middle" x="1091.16" y="-1108.8" font-family="Helvetica" font-size="14.00">Unwraps monitor based on IPF options</text>
<text text-anchor="middle" x="1091.16" y="-1093.8" font-family="Helvetica" font-size="14.00">using UnwrapMonitor algorithm.</text>
</g>
<!-- need_to_unwrap&#45;&gt;unwrap_monitor -->
<g id="edge19" class="edge">
<title>need_to_unwrap&#45;&gt;unwrap_monitor</title>
<path fill="none" stroke="black" d="M1095.32,-1198.2C1094.67,-1184.96 1093.75,-1166.23 1092.94,-1149.75"/>
<polygon fill="black" stroke="black" points="1096.42,-1149.14 1092.43,-1139.33 1089.42,-1149.48 1096.42,-1149.14"/>
<text text-anchor="middle" x="1104.66" y="-1160.8" font-family="Helvetica" font-size="14.00">Yes</text>
</g>
<!-- process_monitor_efficiency -->
<g id="node19" class="node">
<title>process_monitor_efficiency</title>
<polygon fill="lightseagreen" stroke="black" points="1344.66,-927 1129.66,-927 1129.66,-874 1344.66,-874 1344.66,-927"/>
<text text-anchor="middle" x="1237.16" y="-911.8" font-family="Helvetica" font-size="14.00">process_monitor_efficiency</text>
<text text-anchor="middle" x="1237.16" y="-896.8" font-family="Helvetica" font-size="14.00">Corrects for monitor efficiency by</text>
<text text-anchor="middle" x="1237.16" y="-881.8" font-family="Helvetica" font-size="14.00">area, thickness and attenuation.</text>
</g>
<!-- need_to_unwrap&#45;&gt;process_monitor_efficiency -->
<g id="edge24" class="edge">
<title>need_to_unwrap&#45;&gt;process_monitor_efficiency</title>
<path fill="none" stroke="black" d="M1137.55,-1203.05C1167.72,-1191.6 1206.62,-1171.41 1226.16,-1139 1236.29,-1122.21 1237.44,-999.51 1237.37,-937.36"/>
<polygon fill="black" stroke="black" points="1240.87,-937.21 1237.34,-927.22 1233.87,-937.23 1240.87,-937.21"/>
<text text-anchor="middle" x="1245.16" y="-1046.3" font-family="Helvetica" font-size="14.00">No</text>
</g>
<!-- is_multi_frame -->
<g id="node2" class="node">
<title>is_multi_frame</title>
<polygon fill="limegreen" stroke="black" points="822.16,-376 697.15,-358 822.16,-340 947.18,-358 822.16,-376"/>
<text text-anchor="middle" x="822.16" y="-354.3" font-family="Helvetica" font-size="14.00">Is Multiple Frames?</text>
</g>
<!-- fold_chopped -->
<g id="node24" class="node">
<title>fold_chopped</title>
<polygon fill="lightseagreen" stroke="black" points="847.16,-289 675.16,-289 675.16,-236 847.16,-236 847.16,-289"/>
<text text-anchor="middle" x="761.16" y="-273.8" font-family="Helvetica" font-size="14.00">fold_chopped</text>
<text text-anchor="middle" x="761.16" y="-258.8" font-family="Helvetica" font-size="14.00">Folds multiple frames into</text>
<text text-anchor="middle" x="761.16" y="-243.8" font-family="Helvetica" font-size="14.00">a single reduction.</text>
</g>
<!-- is_multi_frame&#45;&gt;fold_chopped -->
<g id="edge38" class="edge">
<title>is_multi_frame&#45;&gt;fold_chopped</title>
<path fill="none" stroke="black" d="M811.82,-341.14C804.09,-329.29 793.23,-312.66 783.56,-297.82"/>
<polygon fill="black" stroke="black" points="786.42,-295.81 778.02,-289.34 780.56,-299.63 786.42,-295.81"/>
<text text-anchor="middle" x="810.66" y="-310.8" font-family="Helvetica" font-size="14.00">Yes</text>
</g>
<!-- rename_reduction -->
<g id="node25" class="node">
<title>rename_reduction</title>
<polygon fill="lightseagreen" stroke="black" points="923.66,-199 720.66,-199 720.66,-146 923.66,-146 923.66,-199"/>
<text text-anchor="middle" x="822.16" y="-183.8" font-family="Helvetica" font-size="14.00">rename_reduction</text>
<text text-anchor="middle" x="822.16" y="-168.8" font-family="Helvetica" font-size="14.00">Renames reduced workspaces</text>
<text text-anchor="middle" x="822.16" y="-153.8" font-family="Helvetica" font-size="14.00">as per the IPF options.</text>
</g>
<!-- is_multi_frame&#45;&gt;rename_reduction -->
<g id="edge40" class="edge">
<title>is_multi_frame&#45;&gt;rename_reduction</title>
<path fill="none" stroke="black" d="M832.65,-341.32C840.87,-328.04 851.65,-308.14 856.16,-289 861.58,-266.07 861.97,-258.83 856.16,-236 853.72,-226.4 849.48,-216.69 844.8,-207.87"/>
<polygon fill="black" stroke="black" points="847.78,-206.04 839.82,-199.05 841.68,-209.48 847.78,-206.04"/>
<text text-anchor="middle" x="869.16" y="-258.8" font-family="Helvetica" font-size="14.00">No</text>
</g>
<!-- InputFiles -->
<g id="node3" class="node">
<title>InputFiles</title>
<ellipse fill="khaki" stroke="black" cx="837.16" cy="-1403" rx="48.99" ry="18"/>
<text text-anchor="middle" x="837.16" y="-1399.3" font-family="Helvetica" font-size="14.00">InputFiles</text>
</g>
<!-- load_files -->
<g id="node15" class="node">
<title>load_files</title>
<polygon fill="lightseagreen" stroke="black" points="1208.66,-1348 933.66,-1348 933.66,-1280 1208.66,-1280 1208.66,-1348"/>
<text text-anchor="middle" x="1071.16" y="-1332.8" font-family="Helvetica" font-size="14.00">load_files</text>
<text text-anchor="middle" x="1071.16" y="-1317.8" font-family="Helvetica" font-size="14.00">Loads run files and instrument parameters.</text>
<text text-anchor="middle" x="1071.16" y="-1302.8" font-family="Helvetica" font-size="14.00">Chops data into multiple frames if required.</text>
<text text-anchor="middle" x="1071.16" y="-1287.8" font-family="Helvetica" font-size="14.00">Summs runs if required.</text>
</g>
<!-- InputFiles&#45;&gt;load_files -->
<g id="edge1" class="edge">
<title>InputFiles&#45;&gt;load_files</title>
<path fill="none" stroke="black" d="M870.19,-1389.72C896.91,-1379.79 935.97,-1365.27 972.56,-1351.66"/>
<polygon fill="black" stroke="black" points="974.15,-1354.8 982.3,-1348.04 971.71,-1348.24 974.15,-1354.8"/>
</g>
<!-- SumFiles -->
<g id="node4" class="node">
<title>SumFiles</title>
<ellipse fill="khaki" stroke="black" cx="952.16" cy="-1403" rx="48.19" ry="18"/>
<text text-anchor="middle" x="952.16" y="-1399.3" font-family="Helvetica" font-size="14.00">SumFiles</text>
</g>
<!-- SumFiles&#45;&gt;load_files -->
<g id="edge5" class="edge">
<title>SumFiles&#45;&gt;load_files</title>
<path fill="none" stroke="black" d="M973.17,-1386.65C985.55,-1377.59 1001.84,-1365.68 1017.57,-1354.18"/>
<polygon fill="black" stroke="black" points="1019.72,-1356.95 1025.72,-1348.22 1015.58,-1351.3 1019.72,-1356.95"/>
</g>
<!-- CalibrationFile -->
<g id="node5" class="node">
<title>CalibrationFile</title>
<ellipse fill="khaki" stroke="black" cx="381.16" cy="-996" rx="66.89" ry="18"/>
<text text-anchor="middle" x="381.16" y="-992.3" font-family="Helvetica" font-size="14.00">CalibrationFile</text>
</g>
<!-- AlignDetectors -->
<g id="node34" class="node">
<title>AlignDetectors</title>
<ellipse fill="lightgrey" stroke="black" cx="384.16" cy="-900.5" rx="67.69" ry="18"/>
<text text-anchor="middle" x="384.16" y="-896.8" font-family="Helvetica" font-size="14.00">AlignDetectors</text>
</g>
<!-- CalibrationFile&#45;&gt;AlignDetectors -->
<g id="edge8" class="edge">
<title>CalibrationFile&#45;&gt;AlignDetectors</title>
<path fill="none" stroke="black" d="M381.71,-977.85C382.15,-964.14 382.78,-944.67 383.29,-928.82"/>
<polygon fill="black" stroke="black" points="386.79,-928.65 383.62,-918.54 379.8,-928.42 386.79,-928.65"/>
</g>
<!-- DiffractionFocussing -->
<g id="node35" class="node">
<title>DiffractionFocussing</title>
<ellipse fill="lightgrey" stroke="black" cx="480.16" cy="-796.5" rx="90.18" ry="18"/>
<text text-anchor="middle" x="480.16" y="-792.8" font-family="Helvetica" font-size="14.00">DiffractionFocussing</text>
</g>
<!-- CalibrationFile&#45;&gt;DiffractionFocussing -->
<g id="edge10" class="edge">
<title>CalibrationFile&#45;&gt;DiffractionFocussing</title>
<path fill="none" stroke="black" d="M408.33,-979.26C426.35,-967.31 448.88,-949.16 461.16,-927 478.86,-895.06 481.83,-852.2 481.58,-824.71"/>
<polygon fill="black" stroke="black" points="485.08,-824.55 481.34,-814.64 478.08,-824.72 485.08,-824.55"/>
</g>
<!-- Instrument -->
<g id="node6" class="node">
<title>Instrument</title>
<ellipse fill="khaki" stroke="black" cx="1071.16" cy="-1403" rx="52.79" ry="18"/>
<text text-anchor="middle" x="1071.16" y="-1399.3" font-family="Helvetica" font-size="14.00">Instrument</text>
</g>
<!-- Instrument&#45;&gt;load_files -->
<g id="edge3" class="edge">
<title>Instrument&#45;&gt;load_files</title>
<path fill="none" stroke="black" d="M1071.16,-1384.81C1071.16,-1377.1 1071.16,-1367.63 1071.16,-1358.17"/>
<polygon fill="black" stroke="black" points="1074.66,-1358 1071.16,-1348 1067.66,-1358 1074.66,-1358"/>
</g>
<!-- Mode -->
<g id="node7" class="node">
<title>Mode</title>
<ellipse fill="khaki" stroke="black" cx="1175.16" cy="-1403" rx="33.29" ry="18"/>
<text text-anchor="middle" x="1175.16" y="-1399.3" font-family="Helvetica" font-size="14.00">Mode</text>
</g>
<!-- Mode&#45;&gt;load_files -->
<g id="edge4" class="edge">
<title>Mode&#45;&gt;load_files</title>
<path fill="none" stroke="black" d="M1157.52,-1387.24C1146.86,-1378.33 1132.72,-1366.49 1118.97,-1354.99"/>
<polygon fill="black" stroke="black" points="1120.87,-1352.01 1110.95,-1348.28 1116.38,-1357.38 1120.87,-1352.01"/>
</g>
<!-- SpectraRange -->
<g id="node8" class="node">
<title>SpectraRange</title>
<ellipse fill="khaki" stroke="black" cx="1293.16" cy="-1403" rx="66.89" ry="18"/>
<text text-anchor="middle" x="1293.16" y="-1399.3" font-family="Helvetica" font-size="14.00">SpectraRange</text>
</g>
<!-- SpectraRange&#45;&gt;load_files -->
<g id="edge2" class="edge">
<title>SpectraRange&#45;&gt;load_files</title>
<path fill="none" stroke="black" d="M1257,-1387.83C1232.07,-1378.06 1197.7,-1364.59 1165.29,-1351.89"/>
<polygon fill="black" stroke="black" points="1166.35,-1348.54 1155.76,-1348.15 1163.8,-1355.06 1166.35,-1348.54"/>
</g>
<!-- RebinParam -->
<g id="node9" class="node">
<title>RebinParam</title>
<ellipse fill="khaki" stroke="black" cx="754.16" cy="-796.5" rx="59.59" ry="18"/>
<text text-anchor="middle" x="754.16" y="-792.8" font-family="Helvetica" font-size="14.00">RebinParam</text>
</g>
<!-- get_multi_frame_rebin -->
<g id="node16" class="node">
<title>get_multi_frame_rebin</title>
<polygon fill="lightseagreen" stroke="black" points="702.16,-733 496.16,-733 496.16,-680 702.16,-680 702.16,-733"/>
<text text-anchor="middle" x="599.16" y="-717.8" font-family="Helvetica" font-size="14.00">get_multi_frame_rebin</text>
<text text-anchor="middle" x="599.16" y="-702.8" font-family="Helvetica" font-size="14.00">Gets a rebin string for rebinning</text>
<text text-anchor="middle" x="599.16" y="-687.8" font-family="Helvetica" font-size="14.00">multiple frames.</text>
</g>
<!-- RebinParam&#45;&gt;get_multi_frame_rebin -->
<g id="edge13" class="edge">
<title>RebinParam&#45;&gt;get_multi_frame_rebin</title>
<path fill="none" stroke="black" d="M727.52,-780.37C707.08,-768.77 678.19,-752.36 652.99,-738.06"/>
<polygon fill="black" stroke="black" points="654.67,-734.99 644.25,-733.1 651.22,-741.08 654.67,-734.99"/>
</g>
<!-- rebin_reduction -->
<g id="node22" class="node">
<title>rebin_reduction</title>
<polygon fill="lightseagreen" stroke="black" points="912.66,-556 731.66,-556 731.66,-503 912.66,-503 912.66,-556"/>
<text text-anchor="middle" x="822.16" y="-540.8" font-family="Helvetica" font-size="14.00">rebin_reduction</text>
<text text-anchor="middle" x="822.16" y="-525.8" font-family="Helvetica" font-size="14.00">Rebins the reduction based</text>
<text text-anchor="middle" x="822.16" y="-510.8" font-family="Helvetica" font-size="14.00">on the RebinParam option.</text>
</g>
<!-- RebinParam&#45;&gt;rebin_reduction -->
<g id="edge31" class="edge">
<title>RebinParam&#45;&gt;rebin_reduction</title>
<path fill="none" stroke="black" d="M759.87,-778.15C769.63,-748.04 789.79,-684.05 803.16,-629 808.2,-608.3 812.76,-584.88 816.15,-566.08"/>
<polygon fill="black" stroke="black" points="819.61,-566.61 817.91,-556.16 812.72,-565.39 819.61,-566.61"/>
</g>
<!-- GroupingPolicy -->
<g id="node10" class="node">
<title>GroupingPolicy</title>
<ellipse fill="khaki" stroke="black" cx="643.16" cy="-529.5" rx="70.69" ry="18"/>
<text text-anchor="middle" x="643.16" y="-525.8" font-family="Helvetica" font-size="14.00">GroupingPolicy</text>
</g>
<!-- group_spectra -->
<g id="node23" class="node">
<title>group_spectra</title>
<polygon fill="lightseagreen" stroke="black" points="898.66,-466 745.66,-466 745.66,-413 898.66,-413 898.66,-466"/>
<text text-anchor="middle" x="822.16" y="-450.8" font-family="Helvetica" font-size="14.00">group_spectra</text>
<text text-anchor="middle" x="822.16" y="-435.8" font-family="Helvetica" font-size="14.00">Groups spectra based</text>
<text text-anchor="middle" x="822.16" y="-420.8" font-family="Helvetica" font-size="14.00">on the GroupingPolicy.</text>
</g>
<!-- GroupingPolicy&#45;&gt;group_spectra -->
<g id="edge35" class="edge">
<title>GroupingPolicy&#45;&gt;group_spectra</title>
<path fill="none" stroke="black" d="M674.34,-513.17C698.11,-501.49 731.61,-485.02 760.7,-470.72"/>
<polygon fill="black" stroke="black" points="762.55,-473.71 769.98,-466.16 759.46,-467.43 762.55,-473.71"/>
</g>
<!-- OutputWorkspace -->
<g id="node11" class="node">
<title>OutputWorkspace</title>
<ellipse fill="khaki" stroke="black" cx="822.16" cy="-18" rx="81.49" ry="18"/>
<text text-anchor="middle" x="822.16" y="-14.3" font-family="Helvetica" font-size="14.00">OutputWorkspace</text>
</g>
<!-- ConvertUnits_unwrap_monitor -->
<g id="node12" class="node">
<title>ConvertUnits_unwrap_monitor</title>
<path fill="lightskyblue" stroke="black" d="M962.66,-1014C962.66,-1014 891.66,-1014 891.66,-1014 885.66,-1014 879.66,-1008 879.66,-1002 879.66,-1002 879.66,-990 879.66,-990 879.66,-984 885.66,-978 891.66,-978 891.66,-978 962.66,-978 962.66,-978 968.66,-978 974.66,-984 974.66,-990 974.66,-990 974.66,-1002 974.66,-1002 974.66,-1008 968.66,-1014 962.66,-1014"/>
<text text-anchor="middle" x="927.16" y="-992.3" font-family="Helvetica" font-size="14.00">ConvertUnits</text>
</g>
<!-- ConvertUnits_unwrap_monitor&#45;&gt;process_monitor_efficiency -->
<g id="edge23" class="edge">
<title>ConvertUnits_unwrap_monitor&#45;&gt;process_monitor_efficiency</title>
<path fill="none" stroke="black" d="M974.92,-980.6C1019.46,-967.16 1087.18,-946.74 1142.64,-930.01"/>
<polygon fill="black" stroke="black" points="1143.93,-933.28 1152.49,-927.04 1141.91,-926.58 1143.93,-933.28"/>
</g>
<!-- ConvertUnits_dSpacing -->
<g id="node13" class="node">
<title>ConvertUnits_dSpacing</title>
<path fill="lightskyblue" stroke="black" d="M1039.66,-629C1039.66,-629 968.66,-629 968.66,-629 962.66,-629 956.66,-623 956.66,-617 956.66,-617 956.66,-605 956.66,-605 956.66,-599 962.66,-593 968.66,-593 968.66,-593 1039.66,-593 1039.66,-593 1045.66,-593 1051.66,-599 1051.66,-605 1051.66,-605 1051.66,-617 1051.66,-617 1051.66,-623 1045.66,-629 1039.66,-629"/>
<text text-anchor="middle" x="1004.16" y="-607.3" font-family="Helvetica" font-size="14.00">ConvertUnits</text>
</g>
<!-- ConvertUnits_dSpacing&#45;&gt;rebin_reduction -->
<g id="edge30" class="edge">
<title>ConvertUnits_dSpacing&#45;&gt;rebin_reduction</title>
<path fill="none" stroke="black" d="M965.12,-592.95C943.26,-583.4 915.38,-571.22 890.06,-560.16"/>
<polygon fill="black" stroke="black" points="891.43,-556.94 880.86,-556.14 888.63,-563.35 891.43,-556.94"/>
</g>
<!-- GroupWorkspaces -->
<g id="node14" class="node">
<title>GroupWorkspaces</title>
<path fill="lightskyblue" stroke="black" d="M874.66,-109C874.66,-109 769.66,-109 769.66,-109 763.66,-109 757.66,-103 757.66,-97 757.66,-97 757.66,-85 757.66,-85 757.66,-79 763.66,-73 769.66,-73 769.66,-73 874.66,-73 874.66,-73 880.66,-73 886.66,-79 886.66,-85 886.66,-85 886.66,-97 886.66,-97 886.66,-103 880.66,-109 874.66,-109"/>
<text text-anchor="middle" x="822.16" y="-87.3" font-family="Helvetica" font-size="14.00">GroupWorkspaces</text>
</g>
<!-- GroupWorkspaces&#45;&gt;OutputWorkspace -->
<g id="edge42" class="edge">
<title>GroupWorkspaces&#45;&gt;OutputWorkspace</title>
<path fill="none" stroke="black" d="M822.16,-72.81C822.16,-64.79 822.16,-55.05 822.16,-46.07"/>
<polygon fill="black" stroke="black" points="825.66,-46.03 822.16,-36.03 818.66,-46.03 825.66,-46.03"/>
</g>
<!-- load_files&#45;&gt;need_to_unwrap -->
<g id="edge18" class="edge">
<title>load_files&#45;&gt;need_to_unwrap</title>
<path fill="none" stroke="black" d="M1079.84,-1279.87C1082.89,-1268.19 1086.29,-1255.22 1089.19,-1244.15"/>
<polygon fill="black" stroke="black" points="1092.64,-1244.78 1091.79,-1234.22 1085.87,-1243.01 1092.64,-1244.78"/>
</g>
<!-- identify_bad_detectors -->
<g id="node17" class="node">
<title>identify_bad_detectors</title>
<polygon fill="lightseagreen" stroke="black" points="1518.16,-1243 1280.16,-1243 1280.16,-1190 1518.16,-1190 1518.16,-1243"/>
<text text-anchor="middle" x="1399.16" y="-1227.8" font-family="Helvetica" font-size="14.00">identify_bad_detectors</text>
<text text-anchor="middle" x="1399.16" y="-1212.8" font-family="Helvetica" font-size="14.00">Gets a list of noisy detectors using</text>
<text text-anchor="middle" x="1399.16" y="-1197.8" font-family="Helvetica" font-size="14.00">the IdentifyNoisyDetectors algorithm.</text>
</g>
<!-- load_files&#45;&gt;identify_bad_detectors -->
<g id="edge16" class="edge">
<title>load_files&#45;&gt;identify_bad_detectors</title>
<path fill="none" stroke="black" d="M1184.96,-1279.87C1223.01,-1268.79 1265.04,-1256.55 1301.73,-1245.87"/>
<polygon fill="black" stroke="black" points="1302.81,-1249.2 1311.43,-1243.05 1300.85,-1242.48 1302.81,-1249.2"/>
</g>
<!-- has_calib_file -->
<g id="node33" class="node">
<title>has_calib_file</title>
<polygon fill="limegreen" stroke="black" points="599.16,-1014 466.11,-996 599.16,-978 732.22,-996 599.16,-1014"/>
<text text-anchor="middle" x="599.16" y="-992.3" font-family="Helvetica" font-size="14.00">Using Calibration File</text>
</g>
<!-- load_files&#45;&gt;has_calib_file -->
<g id="edge6" class="edge">
<title>load_files&#45;&gt;has_calib_file</title>
<path fill="none" stroke="black" d="M933.66,-1298.21C829.65,-1279.34 692.16,-1236.45 616.16,-1139 590.49,-1106.07 591.21,-1055.13 594.73,-1024.05"/>
<polygon fill="black" stroke="black" points="598.22,-1024.31 596.05,-1013.94 591.28,-1023.4 598.22,-1024.31"/>
</g>
<!-- multi_frame_rebin_string -->
<g id="node26" class="node">
<title>multi_frame_rebin_string</title>
<polygon fill="grey" stroke="black" points="398.49,-629 81.41,-629 -0.16,-593 316.92,-593 398.49,-629"/>
<text text-anchor="middle" x="199.16" y="-607.3" font-family="Times-Roman" font-size="14.00">Multiple Frame Rebin String</text>
</g>
<!-- get_multi_frame_rebin&#45;&gt;multi_frame_rebin_string -->
<g id="edge14" class="edge">
<title>get_multi_frame_rebin&#45;&gt;multi_frame_rebin_string</title>
<path fill="none" stroke="black" d="M496.15,-681.42C429.58,-665.86 344.08,-645.87 281.93,-631.35"/>
<polygon fill="black" stroke="black" points="282.7,-627.93 272.16,-629.06 281.1,-634.75 282.7,-627.93"/>
</g>
<!-- multi_frame_num_bins -->
<g id="node27" class="node">
<title>multi_frame_num_bins</title>
<polygon fill="grey" stroke="black" points="794.03,-629 493.59,-629 416.3,-593 716.74,-593 794.03,-629"/>
<text text-anchor="middle" x="605.16" y="-607.3" font-family="Times-Roman" font-size="14.00">Maximum Number of Bins</text>
</g>
<!-- get_multi_frame_rebin&#45;&gt;multi_frame_num_bins -->
<g id="edge15" class="edge">
<title>get_multi_frame_rebin&#45;&gt;multi_frame_num_bins</title>
<path fill="none" stroke="black" d="M600.8,-679.95C601.61,-667.36 602.59,-652.17 603.41,-639.35"/>
<polygon fill="black" stroke="black" points="606.91,-639.45 604.06,-629.24 599.92,-639 606.91,-639.45"/>
</g>
<!-- masked_detectors -->
<g id="node28" class="node">
<title>masked_detectors</title>
<polygon fill="grey" stroke="black" points="1534.49,-1068 1322.4,-1068 1267.84,-1032 1479.93,-1032 1534.49,-1068"/>
<text text-anchor="middle" x="1401.16" y="-1046.3" font-family="Times-Roman" font-size="14.00">Masked Detectors</text>
</g>
<!-- identify_bad_detectors&#45;&gt;masked_detectors -->
<g id="edge17" class="edge">
<title>identify_bad_detectors&#45;&gt;masked_detectors</title>
<path fill="none" stroke="black" d="M1399.48,-1189.8C1399.84,-1159.57 1400.45,-1109.58 1400.83,-1078.56"/>
<polygon fill="black" stroke="black" points="1404.33,-1078.49 1400.95,-1068.45 1397.33,-1078.41 1404.33,-1078.49"/>
</g>
<!-- unwrap_monitor&#45;&gt;ConvertUnits_unwrap_monitor -->
<g id="edge20" class="edge">
<title>unwrap_monitor&#45;&gt;ConvertUnits_unwrap_monitor</title>
<path fill="none" stroke="black" d="M1054.36,-1085.8C1026.07,-1066.05 987.34,-1039.01 960.07,-1019.97"/>
<polygon fill="black" stroke="black" points="961.85,-1016.95 951.65,-1014.09 957.84,-1022.69 961.85,-1016.95"/>
</g>
<!-- scale_monitor -->
<g id="node20" class="node">
<title>scale_monitor</title>
<polygon fill="lightseagreen" stroke="black" points="1315.16,-823 1159.16,-823 1159.16,-770 1315.16,-770 1315.16,-823"/>
<text text-anchor="middle" x="1237.16" y="-807.8" font-family="Helvetica" font-size="14.00">scale_monitor</text>
<text text-anchor="middle" x="1237.16" y="-792.8" font-family="Helvetica" font-size="14.00">Applies monitor scaling</text>
<text text-anchor="middle" x="1237.16" y="-777.8" font-family="Helvetica" font-size="14.00">as per the IPF.</text>
</g>
<!-- process_monitor_efficiency&#45;&gt;scale_monitor -->
<g id="edge25" class="edge">
<title>process_monitor_efficiency&#45;&gt;scale_monitor</title>
<path fill="none" stroke="black" d="M1237.16,-873.76C1237.16,-861.56 1237.16,-846.78 1237.16,-833.49"/>
<polygon fill="black" stroke="black" points="1240.66,-833.23 1237.16,-823.23 1233.66,-833.23 1240.66,-833.23"/>
</g>
<!-- scale_detectors -->
<g id="node21" class="node">
<title>scale_detectors</title>
<polygon fill="lightseagreen" stroke="black" points="1315.66,-733 1158.66,-733 1158.66,-680 1315.66,-680 1315.66,-733"/>
<text text-anchor="middle" x="1237.16" y="-717.8" font-family="Helvetica" font-size="14.00">scale_detectors</text>
<text text-anchor="middle" x="1237.16" y="-702.8" font-family="Helvetica" font-size="14.00">Scales detectors by the</text>
<text text-anchor="middle" x="1237.16" y="-687.8" font-family="Helvetica" font-size="14.00">monitor intensity.</text>
</g>
<!-- scale_monitor&#45;&gt;scale_detectors -->
<g id="edge26" class="edge">
<title>scale_monitor&#45;&gt;scale_detectors</title>
<path fill="none" stroke="black" d="M1237.16,-769.57C1237.16,-761.34 1237.16,-752.08 1237.16,-743.28"/>
<polygon fill="black" stroke="black" points="1240.66,-743.24 1237.16,-733.24 1233.66,-743.24 1240.66,-743.24"/>
</g>
<!-- scale_detectors&#45;&gt;ConvertUnits_dSpacing -->
<g id="edge27" class="edge">
<title>scale_detectors&#45;&gt;ConvertUnits_dSpacing</title>
<path fill="none" stroke="black" d="M1174.03,-679.95C1148.6,-669.68 1119,-657.75 1092.16,-647 1080.72,-642.41 1068.42,-637.51 1056.76,-632.87"/>
<polygon fill="black" stroke="black" points="1057.74,-629.49 1047.15,-629.05 1055.15,-636 1057.74,-629.49"/>
</g>
<!-- rebin_reduction&#45;&gt;group_spectra -->
<g id="edge34" class="edge">
<title>rebin_reduction&#45;&gt;group_spectra</title>
<path fill="none" stroke="black" d="M822.16,-502.57C822.16,-494.34 822.16,-485.08 822.16,-476.28"/>
<polygon fill="black" stroke="black" points="825.66,-476.24 822.16,-466.24 818.66,-476.24 825.66,-476.24"/>
</g>
<!-- group_spectra&#45;&gt;is_multi_frame -->
<g id="edge37" class="edge">
<title>group_spectra&#45;&gt;is_multi_frame</title>
<path fill="none" stroke="black" d="M822.16,-412.91C822.16,-404.48 822.16,-395.08 822.16,-386.52"/>
<polygon fill="black" stroke="black" points="825.66,-386.26 822.16,-376.26 818.66,-386.26 825.66,-386.26"/>
</g>
<!-- fold_chopped&#45;&gt;rename_reduction -->
<g id="edge39" class="edge">
<title>fold_chopped&#45;&gt;rename_reduction</title>
<path fill="none" stroke="black" d="M779.14,-235.57C785.22,-226.8 792.1,-216.87 798.55,-207.56"/>
<polygon fill="black" stroke="black" points="801.5,-209.45 804.32,-199.24 795.75,-205.47 801.5,-209.45"/>
</g>
<!-- rename_reduction&#45;&gt;GroupWorkspaces -->
<g id="edge41" class="edge">
<title>rename_reduction&#45;&gt;GroupWorkspaces</title>
<path fill="none" stroke="black" d="M822.16,-145.91C822.16,-137.48 822.16,-128.08 822.16,-119.52"/>
<polygon fill="black" stroke="black" points="825.66,-119.26 822.16,-109.26 818.66,-119.26 825.66,-119.26"/>
</g>
<!-- multi_frame_rebin_string&#45;&gt;rebin_reduction -->
<g id="edge32" class="edge">
<title>multi_frame_rebin_string&#45;&gt;rebin_reduction</title>
<path fill="none" stroke="black" d="M330.04,-598.77C454.99,-587.65 635.54,-570.47 721.63,-556.13"/>
<polygon fill="black" stroke="black" points="722.39,-559.55 731.65,-554.39 721.2,-552.65 722.39,-559.55"/>
</g>
<!-- multi_frame_num_bins&#45;&gt;rebin_reduction -->
<g id="edge33" class="edge">
<title>multi_frame_num_bins&#45;&gt;rebin_reduction</title>
<path fill="none" stroke="black" d="M651.72,-592.95C678.12,-583.27 711.89,-570.9 742.4,-559.72"/>
<polygon fill="black" stroke="black" points="743.99,-562.87 752.18,-556.14 741.58,-556.29 743.99,-562.87"/>
</g>
<!-- masked_detectors&#45;&gt;group_spectra -->
<g id="edge36" class="edge">
<title>masked_detectors&#45;&gt;group_spectra</title>
<path fill="none" stroke="black" d="M1397.11,-1031.86C1392.98,-1012.83 1387.16,-981.15 1387.16,-953.5 1387.16,-953.5 1387.16,-953.5 1387.16,-528.5 1387.16,-480.72 1067.62,-455.03 909.15,-445.24"/>
<polygon fill="black" stroke="black" points="909.15,-441.73 898.95,-444.61 908.72,-448.72 909.15,-441.73"/>
</g>
<!-- e_mode_unwrap_monitor -->
<g id="node29" class="node">
<title>e_mode_unwrap_monitor</title>
<polygon fill="grey" stroke="black" points="743.33,-1130.5 649.21,-1130.5 625,-1094.5 719.12,-1094.5 743.33,-1130.5"/>
<text text-anchor="middle" x="684.16" y="-1108.8" font-family="Times-Roman" font-size="14.00">Elastic</text>
</g>
<!-- e_mode_unwrap_monitor&#45;&gt;ConvertUnits_unwrap_monitor -->
<g id="edge22" class="edge">
<title>e_mode_unwrap_monitor&#45;&gt;ConvertUnits_unwrap_monitor</title>
<path fill="none" stroke="black" d="M713.26,-1094.47C742.88,-1077.51 790.39,-1051.27 833.16,-1032 844.82,-1026.75 857.51,-1021.64 869.69,-1017.01"/>
<polygon fill="black" stroke="black" points="871.18,-1020.19 879.33,-1013.41 868.73,-1013.63 871.18,-1020.19"/>
<text text-anchor="middle" x="855.16" y="-1046.3" font-family="Helvetica" font-size="14.00">EMode</text>
</g>
<!-- unit_unwrap_monitor -->
<g id="node30" class="node">
<title>unit_unwrap_monitor</title>
<polygon fill="grey" stroke="black" points="947.44,-1130.5 799.06,-1130.5 760.89,-1094.5 909.27,-1094.5 947.44,-1130.5"/>
<text text-anchor="middle" x="854.16" y="-1108.8" font-family="Times-Roman" font-size="14.00">Wavelength</text>
</g>
<!-- unit_unwrap_monitor&#45;&gt;ConvertUnits_unwrap_monitor -->
<g id="edge21" class="edge">
<title>unit_unwrap_monitor&#45;&gt;ConvertUnits_unwrap_monitor</title>
<path fill="none" stroke="black" d="M865.25,-1094.11C877.38,-1075.09 896.94,-1044.4 910.83,-1022.62"/>
<polygon fill="black" stroke="black" points="913.79,-1024.49 916.21,-1014.18 907.88,-1020.73 913.79,-1024.49"/>
<text text-anchor="middle" x="922.16" y="-1046.3" font-family="Helvetica" font-size="14.00">Target</text>
</g>
<!-- e_mode -->
<g id="node31" class="node">
<title>e_mode</title>
<polygon fill="grey" stroke="black" points="1140.33,-724.5 1046.21,-724.5 1022,-688.5 1116.12,-688.5 1140.33,-724.5"/>
<text text-anchor="middle" x="1081.16" y="-702.8" font-family="Times-Roman" font-size="14.00">Elastic</text>
</g>
<!-- e_mode&#45;&gt;ConvertUnits_dSpacing -->
<g id="edge29" class="edge">
<title>e_mode&#45;&gt;ConvertUnits_dSpacing</title>
<path fill="none" stroke="black" d="M1067.04,-688.35C1055.21,-673.98 1038.16,-653.28 1024.8,-637.06"/>
<polygon fill="black" stroke="black" points="1027.26,-634.53 1018.2,-629.04 1021.85,-638.98 1027.26,-634.53"/>
<text text-anchor="middle" x="1066.16" y="-650.8" font-family="Helvetica" font-size="14.00">EMode</text>
</g>
<!-- dspacing_unit -->
<g id="node32" class="node">
<title>dspacing_unit</title>
<polygon fill="grey" stroke="black" points="1004.54,-724.5 881.45,-724.5 849.79,-688.5 972.88,-688.5 1004.54,-724.5"/>
<text text-anchor="middle" x="927.16" y="-702.8" font-family="Times-Roman" font-size="14.00">dSpacing</text>
</g>
<!-- dspacing_unit&#45;&gt;ConvertUnits_dSpacing -->
<g id="edge28" class="edge">
<title>dspacing_unit&#45;&gt;ConvertUnits_dSpacing</title>
<path fill="none" stroke="black" d="M941.29,-688.35C953.12,-673.98 970.17,-653.28 983.53,-637.06"/>
<polygon fill="black" stroke="black" points="986.48,-638.98 990.13,-629.04 981.07,-634.53 986.48,-638.98"/>
<text text-anchor="middle" x="993.16" y="-650.8" font-family="Helvetica" font-size="14.00">Target</text>
</g>
<!-- has_calib_file&#45;&gt;get_multi_frame_rebin -->
<g id="edge12" class="edge">
<title>has_calib_file&#45;&gt;get_multi_frame_rebin</title>
<path fill="none" stroke="black" d="M599.16,-977.88C599.16,-932.05 599.16,-805.88 599.16,-743.45"/>
<polygon fill="black" stroke="black" points="602.66,-743.28 599.16,-733.28 595.66,-743.28 602.66,-743.28"/>
<text text-anchor="middle" x="608.16" y="-844.8" font-family="Helvetica" font-size="14.00">No</text>
</g>
<!-- has_calib_file&#45;&gt;AlignDetectors -->
<g id="edge7" class="edge">
<title>has_calib_file&#45;&gt;AlignDetectors</title>
<path fill="none" stroke="black" d="M569.27,-982C532.37,-965.95 469.34,-938.54 427.23,-920.23"/>
<polygon fill="black" stroke="black" points="428.62,-917.02 418.05,-916.24 425.83,-923.44 428.62,-917.02"/>
<text text-anchor="middle" x="529.66" y="-948.8" font-family="Helvetica" font-size="14.00">Yes</text>
</g>
<!-- AlignDetectors&#45;&gt;DiffractionFocussing -->
<g id="edge9" class="edge">
<title>AlignDetectors&#45;&gt;DiffractionFocussing</title>
<path fill="none" stroke="black" d="M400.02,-882.66C415.58,-866.12 439.49,-840.72 457.15,-821.96"/>
<polygon fill="black" stroke="black" points="459.98,-824.05 464.29,-814.37 454.89,-819.25 459.98,-824.05"/>
</g>
<!-- DiffractionFocussing&#45;&gt;get_multi_frame_rebin -->
<g id="edge11" class="edge">
<title>DiffractionFocussing&#45;&gt;get_multi_frame_rebin</title>
<path fill="none" stroke="black" d="M502.55,-778.95C517.61,-767.81 537.96,-752.76 556.1,-739.35"/>
<polygon fill="black" stroke="black" points="558.29,-742.08 564.25,-733.32 554.13,-736.45 558.29,-742.08"/>
</g>
</g>
</svg>
