<?xml version="1.0" encoding="UTF-8" standalone="no"?>
<!DOCTYPE svg PUBLIC "-//W3C//DTD SVG 1.1//EN"
 "http://www.w3.org/Graphics/SVG/1.1/DTD/svg11.dtd">
<!-- Generated by graphviz version 3.0.0 (20220315.2325)
 -->
<!-- Title: isisPowderCreateVanadium Pages: 1 -->
<svg width="1104pt" height="373pt"
 viewBox="0.00 0.00 1103.54 373.00" xmlns="http://www.w3.org/2000/svg" xmlns:xlink="http://www.w3.org/1999/xlink">
<g id="graph0" class="graph" transform="scale(1 1) rotate(0) translate(4 369)">
<title>isisPowderCreateVanadium</title>
<polygon fill="white" stroke="transparent" points="-4,4 -4,-369 1099.54,-369 1099.54,4 -4,4"/>
<text text-anchor="middle" x="547.77" y="-349.8" font-family="Helvetica,sans-Serif" font-size="14.00">ISISPowder &#45; Save Focused Banks</text>
<!-- label_saveFocusedGeneric -->
<g id="node1" class="node">
<title>label_saveFocusedGeneric</title>
<ellipse fill="lightgrey" stroke="black" cx="147.54" cy="-324" rx="147.57" ry="18"/>
<text text-anchor="middle" x="147.54" y="-320.3" font-family="Helvetica,sans-Serif" font-size="14.00">Save Focused Banks &#45; Generic</text>
</g>
<!-- alg_SaveNexusProcessedGeneric -->
<g id="node8" class="node">
<title>alg_SaveNexusProcessedGeneric</title>
<path fill="lightskyblue" stroke="black" d="M369.04,-269C369.04,-269 178.04,-269 178.04,-269 172.04,-269 166.04,-263 166.04,-257 166.04,-257 166.04,-245 166.04,-245 166.04,-239 172.04,-233 178.04,-233 178.04,-233 369.04,-233 369.04,-233 375.04,-233 381.04,-239 381.04,-245 381.04,-245 381.04,-257 381.04,-257 381.04,-263 375.04,-269 369.04,-269"/>
<text text-anchor="middle" x="273.54" y="-247.3" font-family="Helvetica,sans-Serif" font-size="14.00">Save Nexus Processed &#45; TOF</text>
</g>
<!-- label_saveFocusedGeneric&#45;&gt;alg_SaveNexusProcessedGeneric -->
<g id="edge1" class="edge">
<title>label_saveFocusedGeneric&#45;&gt;alg_SaveNexusProcessedGeneric</title>
<path fill="none" stroke="black" d="M177.08,-306.35C194.21,-296.7 215.98,-284.43 234.51,-273.99"/>
<polygon fill="black" stroke="black" points="236.31,-276.99 243.31,-269.04 232.88,-270.9 236.31,-276.99"/>
</g>
<!-- param_processedBanksGeneric -->
<g id="node2" class="node">
<title>param_processedBanksGeneric</title>
<ellipse fill="khaki" stroke="black" cx="399.54" cy="-324" rx="86.38" ry="18"/>
<text text-anchor="middle" x="399.54" y="-320.3" font-family="Helvetica,sans-Serif" font-size="14.00">Processed banks</text>
</g>
<!-- param_processedBanksGeneric&#45;&gt;alg_SaveNexusProcessedGeneric -->
<g id="edge2" class="edge">
<title>param_processedBanksGeneric&#45;&gt;alg_SaveNexusProcessedGeneric</title>
<path fill="none" stroke="black" d="M370.95,-306.89C353.72,-297.18 331.55,-284.69 312.72,-274.08"/>
<polygon fill="black" stroke="black" points="314.2,-270.9 303.77,-269.04 310.77,-277 314.2,-270.9"/>
</g>
<!-- param_focusModePearl -->
<g id="node3" class="node">
<title>param_focusModePearl</title>
<ellipse fill="khaki" stroke="black" cx="626.54" cy="-324" rx="122.38" ry="18"/>
<text text-anchor="middle" x="626.54" y="-320.3" font-family="Helvetica,sans-Serif" font-size="14.00">User param: focus mode</text>
</g>
<!-- if_focusModePearl -->
<g id="node12" class="node">
<title>if_focusModePearl</title>
<polygon fill="limegreen" stroke="black" points="773.54,-269 666.79,-251 773.54,-233 880.28,-251 773.54,-269"/>
<text text-anchor="middle" x="773.54" y="-247.3" font-family="Helvetica,sans-Serif" font-size="14.00">If: focus mode</text>
</g>
<!-- param_focusModePearl&#45;&gt;if_focusModePearl -->
<g id="edge7" class="edge">
<title>param_focusModePearl&#45;&gt;if_focusModePearl</title>
<path fill="none" stroke="black" d="M660.63,-306.53C683.89,-295.3 714.62,-280.46 738.15,-269.09"/>
<polygon fill="black" stroke="black" points="739.94,-272.11 747.43,-264.61 736.9,-265.81 739.94,-272.11"/>
</g>
<!-- proc_focusModeAllPearl -->
<g id="node4" class="node">
<title>proc_focusModeAllPearl</title>
<polygon fill="lightseagreen" stroke="black" points="591.54,-196 465.54,-196 465.54,-160 591.54,-160 591.54,-196"/>
<text text-anchor="middle" x="528.54" y="-174.3" font-family="Helvetica,sans-Serif" font-size="14.00">Focus mode: All</text>
</g>
<!-- proc_focusModeGroupsPearl -->
<g id="node5" class="node">
<title>proc_focusModeGroupsPearl</title>
<polygon fill="lightseagreen" stroke="black" points="767.54,-196 609.54,-196 609.54,-160 767.54,-160 767.54,-196"/>
<text text-anchor="middle" x="688.54" y="-174.3" font-family="Helvetica,sans-Serif" font-size="14.00">Focus mode: Groups</text>
</g>
<!-- proc_focusModeTransPearl -->
<g id="node6" class="node">
<title>proc_focusModeTransPearl</title>
<polygon fill="lightseagreen" stroke="black" points="1095.54,-196 949.54,-196 949.54,-160 1095.54,-160 1095.54,-196"/>
<text text-anchor="middle" x="1022.54" y="-174.3" font-family="Helvetica,sans-Serif" font-size="14.00">Focus mode: Trans</text>
</g>
<!-- proc_focusModeModsPearl -->
<g id="node7" class="node">
<title>proc_focusModeModsPearl</title>
<polygon fill="lightseagreen" stroke="black" points="931.54,-196 785.54,-196 785.54,-160 931.54,-160 931.54,-196"/>
<text text-anchor="middle" x="858.54" y="-174.3" font-family="Helvetica,sans-Serif" font-size="14.00">Focus mode: Mods</text>
</g>
<!-- alg_SaveGSSProcessedGeneric -->
<g id="node9" class="node">
<title>alg_SaveGSSProcessedGeneric</title>
<path fill="lightskyblue" stroke="black" d="M324.04,-196C324.04,-196 223.04,-196 223.04,-196 217.04,-196 211.04,-190 211.04,-184 211.04,-184 211.04,-172 211.04,-172 211.04,-166 217.04,-160 223.04,-160 223.04,-160 324.04,-160 324.04,-160 330.04,-160 336.04,-166 336.04,-172 336.04,-172 336.04,-184 336.04,-184 336.04,-190 330.04,-196 324.04,-196"/>
<text text-anchor="middle" x="273.54" y="-174.3" font-family="Helvetica,sans-Serif" font-size="14.00">Save GSS &#45; TOF</text>
</g>
<!-- alg_SaveNexusProcessedGeneric&#45;&gt;alg_SaveGSSProcessedGeneric -->
<g id="edge3" class="edge">
<title>alg_SaveNexusProcessedGeneric&#45;&gt;alg_SaveGSSProcessedGeneric</title>
<path fill="none" stroke="black" d="M273.54,-232.81C273.54,-224.79 273.54,-215.05 273.54,-206.07"/>
<polygon fill="black" stroke="black" points="277.04,-206.03 273.54,-196.03 270.04,-206.03 277.04,-206.03"/>
</g>
<!-- alg_SaveXyeDSpacing -->
<g id="node10" class="node">
<title>alg_SaveXyeDSpacing</title>
<path fill="lightskyblue" stroke="black" d="M342.54,-109C342.54,-109 204.54,-109 204.54,-109 198.54,-109 192.54,-103 192.54,-97 192.54,-97 192.54,-85 192.54,-85 192.54,-79 198.54,-73 204.54,-73 204.54,-73 342.54,-73 342.54,-73 348.54,-73 354.54,-79 354.54,-85 354.54,-85 354.54,-97 354.54,-97 354.54,-103 348.54,-109 342.54,-109"/>
<text text-anchor="middle" x="273.54" y="-87.3" font-family="Helvetica,sans-Serif" font-size="14.00">Save GSS &#45; dSpacing</text>
</g>
<!-- alg_SaveGSSProcessedGeneric&#45;&gt;alg_SaveXyeDSpacing -->
<g id="edge4" class="edge">
<title>alg_SaveGSSProcessedGeneric&#45;&gt;alg_SaveXyeDSpacing</title>
<path fill="none" stroke="black" d="M273.54,-159.8C273.54,-148.16 273.54,-132.55 273.54,-119.24"/>
<polygon fill="black" stroke="black" points="277.04,-119.18 273.54,-109.18 270.04,-119.18 277.04,-119.18"/>
<text text-anchor="middle" x="388.04" y="-130.8" font-family="Helvetica,sans-Serif" font-size="14.00">XYE files saved into subdirectory</text>
</g>
<!-- alg_SaveXyeTofGeneric -->
<g id="node11" class="node">
<title>alg_SaveXyeTofGeneric</title>
<path fill="lightskyblue" stroke="black" d="M323.54,-36C323.54,-36 223.54,-36 223.54,-36 217.54,-36 211.54,-30 211.54,-24 211.54,-24 211.54,-12 211.54,-12 211.54,-6 217.54,0 223.54,0 223.54,0 323.54,0 323.54,0 329.54,0 335.54,-6 335.54,-12 335.54,-12 335.54,-24 335.54,-24 335.54,-30 329.54,-36 323.54,-36"/>
<text text-anchor="middle" x="273.54" y="-14.3" font-family="Helvetica,sans-Serif" font-size="14.00">Save XYE &#45; TOF</text>
</g>
<!-- alg_SaveXyeDSpacing&#45;&gt;alg_SaveXyeTofGeneric -->
<g id="edge5" class="edge">
<title>alg_SaveXyeDSpacing&#45;&gt;alg_SaveXyeTofGeneric</title>
<path fill="none" stroke="black" d="M273.54,-72.81C273.54,-64.79 273.54,-55.05 273.54,-46.07"/>
<polygon fill="black" stroke="black" points="277.04,-46.03 273.54,-36.03 270.04,-46.03 277.04,-46.03"/>
</g>
<!-- if_focusModePearl&#45;&gt;proc_focusModeAllPearl -->
<g id="edge8" class="edge">
<title>if_focusModePearl&#45;&gt;proc_focusModeAllPearl</title>
<path fill="none" stroke="black" d="M736.33,-239.22C699.54,-228.55 642.37,-211.99 597.31,-198.93"/>
<polygon fill="black" stroke="black" points="598.17,-195.54 587.59,-196.11 596.22,-202.26 598.17,-195.54"/>
</g>
<!-- if_focusModePearl&#45;&gt;proc_focusModeGroupsPearl -->
<g id="edge9" class="edge">
<title>if_focusModePearl&#45;&gt;proc_focusModeGroupsPearl</title>
<path fill="none" stroke="black" d="M756.34,-235.63C745.01,-226.17 729.91,-213.56 716.83,-202.64"/>
<polygon fill="black" stroke="black" points="718.93,-199.82 709.01,-196.1 714.44,-205.2 718.93,-199.82"/>
</g>
<!-- if_focusModePearl&#45;&gt;proc_focusModeTransPearl -->
<g id="edge11" class="edge">
<title>if_focusModePearl&#45;&gt;proc_focusModeTransPearl</title>
<path fill="none" stroke="black" d="M811.08,-239.29C848.55,-228.61 907,-211.94 952.96,-198.84"/>
<polygon fill="black" stroke="black" points="954.2,-202.12 962.86,-196.02 952.28,-195.39 954.2,-202.12"/>
</g>
<!-- if_focusModePearl&#45;&gt;proc_focusModeModsPearl -->
<g id="edge10" class="edge">
<title>if_focusModePearl&#45;&gt;proc_focusModeModsPearl</title>
<path fill="none" stroke="black" d="M790.74,-235.63C802.07,-226.17 817.17,-213.56 830.24,-202.64"/>
<polygon fill="black" stroke="black" points="832.63,-205.2 838.07,-196.1 828.15,-199.82 832.63,-205.2"/>
</g>
<!-- label_saveFocusedPearl -->
<g id="node13" class="node">
<title>label_saveFocusedPearl</title>
<ellipse fill="lightgrey" stroke="black" cx="883.54" cy="-324" rx="116.98" ry="18"/>
<text text-anchor="middle" x="883.54" y="-320.3" font-family="Helvetica,sans-Serif" font-size="14.00">label_saveFocusedPearl</text>
</g>
<!-- label_saveFocusedPearl&#45;&gt;if_focusModePearl -->
<g id="edge6" class="edge">
<title>label_saveFocusedPearl&#45;&gt;if_focusModePearl</title>
<path fill="none" stroke="black" d="M857.75,-306.35C841.42,-295.81 820.25,-282.15 803.22,-271.16"/>
<polygon fill="black" stroke="black" points="805.04,-268.17 794.74,-265.68 801.24,-274.05 805.04,-268.17"/>
</g>
</g>
</svg>
