<?xml version="1.0" encoding="UTF-8" standalone="no"?>
<!DOCTYPE svg PUBLIC "-//W3C//DTD SVG 1.1//EN"
 "http://www.w3.org/Graphics/SVG/1.1/DTD/svg11.dtd">
<!-- Generated by graphviz version 3.0.0 (20220315.2325)
 -->
<!-- Title: isisPowderfocus Pages: 1 -->
<svg width="1508pt" height="1510pt"
 viewBox="0.00 0.00 1507.54 1510.00" xmlns="http://www.w3.org/2000/svg" xmlns:xlink="http://www.w3.org/1999/xlink">
<g id="graph0" class="graph" transform="scale(1 1) rotate(0) translate(4 1506)">
<title>isisPowderfocus</title>
<polygon fill="white" stroke="transparent" points="-4,4 -4,-1506 1503.54,-1506 1503.54,4 -4,4"/>
<text text-anchor="middle" x="749.77" y="-1486.8" font-family="Helvetica,sans-Serif" font-size="14.00">ISISPowder &#45; &#39;focus&#39;</text>
<!-- label_start -->
<g id="node1" class="node">
<title>label_start</title>
<ellipse fill="lightgrey" stroke="black" cx="520" cy="-1388" rx="118.08" ry="18"/>
<text text-anchor="middle" x="520" y="-1384.3" font-family="Helvetica,sans-Serif" font-size="14.00">Start ISISPowder &#39;focus&#39;</text>
</g>
<!-- param_runNumbers -->
<g id="node2" class="node">
<title>param_runNumbers</title>
<ellipse fill="khaki" stroke="black" cx="520" cy="-1315" rx="137.58" ry="18"/>
<text text-anchor="middle" x="520" y="-1311.3" font-family="Helvetica,sans-Serif" font-size="14.00">User param: Run number(s)</text>
</g>
<!-- label_start&#45;&gt;param_runNumbers -->
<g id="edge1" class="edge">
<title>label_start&#45;&gt;param_runNumbers</title>
<path fill="none" stroke="black" d="M520,-1369.81C520,-1361.79 520,-1352.05 520,-1343.07"/>
<polygon fill="black" stroke="black" points="523.5,-1343.03 520,-1333.03 516.5,-1343.03 523.5,-1343.03"/>
</g>
<!-- proc_LoadCurrentNormWS_1 -->
<g id="node11" class="node">
<title>proc_LoadCurrentNormWS_1</title>
<polygon fill="lightseagreen" stroke="black" points="1153.5,-1246 870.5,-1246 870.5,-1210 1153.5,-1210 1153.5,-1246"/>
<text text-anchor="middle" x="1012" y="-1224.3" font-family="Helvetica,sans-Serif" font-size="14.00">Load current normalised workspace(s)</text>
</g>
<!-- param_runNumbers&#45;&gt;proc_LoadCurrentNormWS_1 -->
<g id="edge2" class="edge">
<title>param_runNumbers&#45;&gt;proc_LoadCurrentNormWS_1</title>
<path fill="none" stroke="black" d="M599.6,-1300.25C682.12,-1285.99 811.68,-1263.61 903.54,-1247.74"/>
<polygon fill="black" stroke="black" points="904.17,-1251.18 913.43,-1246.03 902.98,-1244.28 904.17,-1251.18"/>
</g>
<!-- param_sampleEmptyRunNumber -->
<g id="node3" class="node">
<title>param_sampleEmptyRunNumber</title>
<ellipse fill="khaki" stroke="black" cx="880" cy="-1315" rx="204.16" ry="18"/>
<text text-anchor="middle" x="880" y="-1311.3" font-family="Helvetica,sans-Serif" font-size="14.00">User param: Sample empty run number(s)</text>
</g>
<!-- param_sampleEmptyRunNumber&#45;&gt;proc_LoadCurrentNormWS_1 -->
<g id="edge8" class="edge">
<title>param_sampleEmptyRunNumber&#45;&gt;proc_LoadCurrentNormWS_1</title>
<path fill="none" stroke="black" d="M906.39,-1297C926.59,-1284 954.63,-1265.95 976.74,-1251.71"/>
<polygon fill="black" stroke="black" points="978.69,-1254.62 985.2,-1246.26 974.9,-1248.73 978.69,-1254.62"/>
</g>
<!-- param_vanNorm -->
<g id="node4" class="node">
<title>param_vanNorm</title>
<ellipse fill="khaki" stroke="black" cx="311" cy="-543" rx="179.27" ry="18"/>
<text text-anchor="middle" x="311" y="-539.3" font-family="Helvetica,sans-Serif" font-size="14.00">User param: Vanadium normalisation</text>
</g>
<!-- if_van_normalisation -->
<g id="node28" class="node">
<title>if_van_normalisation</title>
<polygon fill="limegreen" stroke="black" points="323,-488 136.32,-470 323,-452 509.68,-470 323,-488"/>
<text text-anchor="middle" x="323" y="-466.3" font-family="Helvetica,sans-Serif" font-size="14.00">If: Vanadium normalisation</text>
</g>
<!-- param_vanNorm&#45;&gt;if_van_normalisation -->
<g id="edge27" class="edge">
<title>param_vanNorm&#45;&gt;if_van_normalisation</title>
<path fill="none" stroke="black" d="M313.9,-524.81C315.26,-516.79 316.91,-507.05 318.42,-498.07"/>
<polygon fill="black" stroke="black" points="321.91,-498.47 320.12,-488.03 315,-497.31 321.91,-498.47"/>
</g>
<!-- param_calFileName -->
<g id="node5" class="node">
<title>param_calFileName</title>
<ellipse fill="khaki" stroke="black" cx="536" cy="-995" rx="104.78" ry="18"/>
<text text-anchor="middle" x="536" y="-991.3" font-family="Helvetica,sans-Serif" font-size="14.00">Calibration file name</text>
</g>
<!-- alg_Align -->
<g id="node15" class="node">
<title>alg_Align</title>
<path fill="lightskyblue" stroke="black" d="M696.5,-940C696.5,-940 597.5,-940 597.5,-940 591.5,-940 585.5,-934 585.5,-928 585.5,-928 585.5,-916 585.5,-916 585.5,-910 591.5,-904 597.5,-904 597.5,-904 696.5,-904 696.5,-904 702.5,-904 708.5,-910 708.5,-916 708.5,-916 708.5,-928 708.5,-928 708.5,-934 702.5,-940 696.5,-940"/>
<text text-anchor="middle" x="647" y="-918.3" font-family="Helvetica,sans-Serif" font-size="14.00">Align Detectors</text>
</g>
<!-- param_calFileName&#45;&gt;alg_Align -->
<g id="edge16" class="edge">
<title>param_calFileName&#45;&gt;alg_Align</title>
<path fill="none" stroke="black" d="M561.74,-977.53C576.55,-968.06 595.37,-956.03 611.56,-945.67"/>
<polygon fill="black" stroke="black" points="613.7,-948.46 620.24,-940.12 609.93,-942.56 613.7,-948.46"/>
</g>
<!-- param_calMapping_1 -->
<g id="node6" class="node">
<title>param_calMapping_1</title>
<ellipse fill="khaki" stroke="black" cx="1301" cy="-1461" rx="118.88" ry="18"/>
<text text-anchor="middle" x="1301" y="-1457.3" font-family="Helvetica,sans-Serif" font-size="14.00">Calibration mapping file</text>
</g>
<!-- param_emptyRunNumber -->
<g id="node8" class="node">
<title>param_emptyRunNumber</title>
<ellipse fill="khaki" stroke="black" cx="1301" cy="-1388" rx="108.58" ry="18"/>
<text text-anchor="middle" x="1301" y="-1384.3" font-family="Helvetica,sans-Serif" font-size="14.00">Empty run number(s)</text>
</g>
<!-- param_calMapping_1&#45;&gt;param_emptyRunNumber -->
<g id="edge3" class="edge">
<title>param_calMapping_1&#45;&gt;param_emptyRunNumber</title>
<path fill="none" stroke="black" d="M1301,-1442.81C1301,-1434.79 1301,-1425.05 1301,-1416.07"/>
<polygon fill="black" stroke="black" points="1304.5,-1416.03 1301,-1406.03 1297.5,-1416.03 1304.5,-1416.03"/>
</g>
<!-- param_calMapping_2 -->
<g id="node7" class="node">
<title>param_calMapping_2</title>
<ellipse fill="khaki" stroke="black" cx="406" cy="-1068" rx="118.88" ry="18"/>
<text text-anchor="middle" x="406" y="-1064.3" font-family="Helvetica,sans-Serif" font-size="14.00">Calibration mapping file</text>
</g>
<!-- param_calMapping_2&#45;&gt;param_calFileName -->
<g id="edge15" class="edge">
<title>param_calMapping_2&#45;&gt;param_calFileName</title>
<path fill="none" stroke="black" d="M436.15,-1050.53C454.28,-1040.63 477.55,-1027.92 497.06,-1017.27"/>
<polygon fill="black" stroke="black" points="498.91,-1020.24 506.01,-1012.38 495.56,-1014.1 498.91,-1020.24"/>
</g>
<!-- if_presummed_empty_exists -->
<g id="node30" class="node">
<title>if_presummed_empty_exists</title>
<polygon fill="limegreen" stroke="black" points="1301,-1333 1102.42,-1315 1301,-1297 1499.58,-1315 1301,-1333"/>
<text text-anchor="middle" x="1301" y="-1311.3" font-family="Helvetica,sans-Serif" font-size="14.00">If: Pre&#45;summed empty exists</text>
</g>
<!-- param_emptyRunNumber&#45;&gt;if_presummed_empty_exists -->
<g id="edge4" class="edge">
<title>param_emptyRunNumber&#45;&gt;if_presummed_empty_exists</title>
<path fill="none" stroke="black" d="M1301,-1369.81C1301,-1361.79 1301,-1352.05 1301,-1343.07"/>
<polygon fill="black" stroke="black" points="1304.5,-1343.03 1301,-1333.03 1297.5,-1343.03 1304.5,-1343.03"/>
</g>
<!-- param_groupingCalFile -->
<g id="node9" class="node">
<title>param_groupingCalFile</title>
<ellipse fill="khaki" stroke="black" cx="305" cy="-762" rx="167.07" ry="18"/>
<text text-anchor="middle" x="305" y="-758.3" font-family="Helvetica,sans-Serif" font-size="14.00">Adv config: Grouping cal file name</text>
</g>
<!-- alg_DiffractionFocusing -->
<g id="node19" class="node">
<title>alg_DiffractionFocusing</title>
<path fill="lightskyblue" stroke="black" d="M709.5,-707C709.5,-707 578.5,-707 578.5,-707 572.5,-707 566.5,-701 566.5,-695 566.5,-695 566.5,-683 566.5,-683 566.5,-677 572.5,-671 578.5,-671 578.5,-671 709.5,-671 709.5,-671 715.5,-671 721.5,-677 721.5,-683 721.5,-683 721.5,-695 721.5,-695 721.5,-701 715.5,-707 709.5,-707"/>
<text text-anchor="middle" x="644" y="-685.3" font-family="Helvetica,sans-Serif" font-size="14.00">Diffraction Focusing</text>
</g>
<!-- param_groupingCalFile&#45;&gt;alg_DiffractionFocusing -->
<g id="edge21" class="edge">
<title>param_groupingCalFile&#45;&gt;alg_DiffractionFocusing</title>
<path fill="none" stroke="black" d="M377.72,-745.77C430.12,-734.79 501.08,-719.93 556.56,-708.31"/>
<polygon fill="black" stroke="black" points="557.31,-711.73 566.38,-706.26 555.88,-704.88 557.31,-711.73"/>
</g>
<!-- param_rawTOFCropValues -->
<g id="node10" class="node">
<title>param_rawTOFCropValues</title>
<ellipse fill="khaki" stroke="black" cx="722" cy="-1068" rx="179.27" ry="18"/>
<text text-anchor="middle" x="722" y="-1064.3" font-family="Helvetica,sans-Serif" font-size="14.00">Adv config: Raw TOF cropping values</text>
</g>
<!-- alg_CropRawTOF -->
<g id="node17" class="node">
<title>alg_CropRawTOF</title>
<path fill="lightskyblue" stroke="black" d="M895.5,-1013C895.5,-1013 716.5,-1013 716.5,-1013 710.5,-1013 704.5,-1007 704.5,-1001 704.5,-1001 704.5,-989 704.5,-989 704.5,-983 710.5,-977 716.5,-977 716.5,-977 895.5,-977 895.5,-977 901.5,-977 907.5,-983 907.5,-989 907.5,-989 907.5,-1001 907.5,-1001 907.5,-1007 901.5,-1013 895.5,-1013"/>
<text text-anchor="middle" x="806" y="-991.3" font-family="Helvetica,sans-Serif" font-size="14.00">Crop data to expected TOF</text>
</g>
<!-- param_rawTOFCropValues&#45;&gt;alg_CropRawTOF -->
<g id="edge12" class="edge">
<title>param_rawTOFCropValues&#45;&gt;alg_CropRawTOF</title>
<path fill="none" stroke="black" d="M742.33,-1049.81C753.06,-1040.74 766.39,-1029.48 778.08,-1019.6"/>
<polygon fill="black" stroke="black" points="780.48,-1022.16 785.85,-1013.03 775.96,-1016.81 780.48,-1022.16"/>
</g>
<!-- alg_Subtract_van_empty -->
<g id="node25" class="node">
<title>alg_Subtract_van_empty</title>
<path fill="lightskyblue" stroke="black" d="M1221,-1173C1221,-1173 989,-1173 989,-1173 983,-1173 977,-1167 977,-1161 977,-1161 977,-1149 977,-1149 977,-1143 983,-1137 989,-1137 989,-1137 1221,-1137 1221,-1137 1227,-1137 1233,-1143 1233,-1149 1233,-1149 1233,-1161 1233,-1161 1233,-1167 1227,-1173 1221,-1173"/>
<text text-anchor="middle" x="1105" y="-1151.3" font-family="Helvetica,sans-Serif" font-size="14.00">Subtract: runs &#45; instrument empty</text>
</g>
<!-- proc_LoadCurrentNormWS_1&#45;&gt;alg_Subtract_van_empty -->
<g id="edge10" class="edge">
<title>proc_LoadCurrentNormWS_1&#45;&gt;alg_Subtract_van_empty</title>
<path fill="none" stroke="black" d="M1034.51,-1209.81C1046.51,-1200.66 1061.43,-1189.26 1074.46,-1179.32"/>
<polygon fill="black" stroke="black" points="1076.87,-1181.88 1082.69,-1173.03 1072.62,-1176.32 1076.87,-1181.88"/>
</g>
<!-- proc_InstApplyAbsorbCorr -->
<g id="node12" class="node">
<title>proc_InstApplyAbsorbCorr</title>
<polygon fill="lightseagreen" stroke="black" points="798,-780 490,-780 490,-744 798,-744 798,-780"/>
<text text-anchor="middle" x="644" y="-758.3" font-family="Helvetica,sans-Serif" font-size="14.00">Inst specific: Apply absorption corrections</text>
</g>
<!-- proc_InstApplyAbsorbCorr&#45;&gt;alg_DiffractionFocusing -->
<g id="edge23" class="edge">
<title>proc_InstApplyAbsorbCorr&#45;&gt;alg_DiffractionFocusing</title>
<path fill="none" stroke="black" d="M644,-743.81C644,-735.79 644,-726.05 644,-717.07"/>
<polygon fill="black" stroke="black" points="647.5,-717.03 644,-707.03 640.5,-717.03 647.5,-717.03"/>
</g>
<!-- proc_InstReduceBinWidths -->
<g id="node13" class="node">
<title>proc_InstReduceBinWidths</title>
<polygon fill="lightseagreen" stroke="black" points="498.5,-109 169.5,-109 169.5,-73 498.5,-73 498.5,-109"/>
<text text-anchor="middle" x="334" y="-87.3" font-family="Helvetica,sans-Serif" font-size="14.00">Inst specific: Rebin to reduce final bin widths</text>
</g>
<!-- proc_InstSaveFocused -->
<g id="node14" class="node">
<title>proc_InstSaveFocused</title>
<polygon fill="lightseagreen" stroke="black" points="458,-36 210,-36 210,0 458,0 458,-36"/>
<text text-anchor="middle" x="334" y="-14.3" font-family="Helvetica,sans-Serif" font-size="14.00">Inst specific: Save focused banks</text>
</g>
<!-- proc_InstReduceBinWidths&#45;&gt;proc_InstSaveFocused -->
<g id="edge34" class="edge">
<title>proc_InstReduceBinWidths&#45;&gt;proc_InstSaveFocused</title>
<path fill="none" stroke="black" d="M334,-72.81C334,-64.79 334,-55.05 334,-46.07"/>
<polygon fill="black" stroke="black" points="337.5,-46.03 334,-36.03 330.5,-46.03 337.5,-46.03"/>
</g>
<!-- if_apply_absorb -->
<g id="node27" class="node">
<title>if_apply_absorb</title>
<polygon fill="limegreen" stroke="black" points="739,-867 588.02,-849 739,-831 889.98,-849 739,-867"/>
<text text-anchor="middle" x="739" y="-845.3" font-family="Helvetica,sans-Serif" font-size="14.00">If: absorb corrections</text>
</g>
<!-- alg_Align&#45;&gt;if_apply_absorb -->
<g id="edge18" class="edge">
<title>alg_Align&#45;&gt;if_apply_absorb</title>
<path fill="none" stroke="black" d="M669.27,-903.81C682.04,-893.96 698.17,-881.51 711.7,-871.07"/>
<polygon fill="black" stroke="black" points="713.96,-873.75 719.74,-864.87 709.68,-868.2 713.96,-873.75"/>
</g>
<!-- alg_ConvertUnitsTOFVan -->
<g id="node16" class="node">
<title>alg_ConvertUnitsTOFVan</title>
<path fill="lightskyblue" stroke="black" d="M706.5,-634C706.5,-634 581.5,-634 581.5,-634 575.5,-634 569.5,-628 569.5,-622 569.5,-622 569.5,-610 569.5,-610 569.5,-604 575.5,-598 581.5,-598 581.5,-598 706.5,-598 706.5,-598 712.5,-598 718.5,-604 718.5,-610 718.5,-610 718.5,-622 718.5,-622 718.5,-628 712.5,-634 706.5,-634"/>
<text text-anchor="middle" x="644" y="-612.3" font-family="Helvetica,sans-Serif" font-size="14.00">Convert Units: TOF</text>
</g>
<!-- alg_ExtractWsSpectra -->
<g id="node21" class="node">
<title>alg_ExtractWsSpectra</title>
<path fill="lightskyblue" stroke="black" d="M768,-561C768,-561 520,-561 520,-561 514,-561 508,-555 508,-549 508,-549 508,-537 508,-537 508,-531 514,-525 520,-525 520,-525 768,-525 768,-525 774,-525 780,-531 780,-537 780,-537 780,-549 780,-549 780,-555 774,-561 768,-561"/>
<text text-anchor="middle" x="644" y="-539.3" font-family="Helvetica,sans-Serif" font-size="14.00">Extract spectra into individual banks</text>
</g>
<!-- alg_ConvertUnitsTOFVan&#45;&gt;alg_ExtractWsSpectra -->
<g id="edge25" class="edge">
<title>alg_ConvertUnitsTOFVan&#45;&gt;alg_ExtractWsSpectra</title>
<path fill="none" stroke="black" d="M644,-597.81C644,-589.79 644,-580.05 644,-571.07"/>
<polygon fill="black" stroke="black" points="647.5,-571.03 644,-561.03 640.5,-571.03 647.5,-571.03"/>
</g>
<!-- alg_CropRawTOF&#45;&gt;alg_Align -->
<g id="edge17" class="edge">
<title>alg_CropRawTOF&#45;&gt;alg_Align</title>
<path fill="none" stroke="black" d="M767.92,-976.99C745.95,-967.19 718.14,-954.77 694.72,-944.31"/>
<polygon fill="black" stroke="black" points="695.88,-941 685.32,-940.11 693.03,-947.39 695.88,-941"/>
</g>
<!-- alg_CropFinalTOF -->
<g id="node18" class="node">
<title>alg_CropFinalTOF</title>
<path fill="lightskyblue" stroke="black" d="M429,-182C429,-182 239,-182 239,-182 233,-182 227,-176 227,-170 227,-170 227,-158 227,-158 227,-152 233,-146 239,-146 239,-146 429,-146 429,-146 435,-146 441,-152 441,-158 441,-158 441,-170 441,-170 441,-176 435,-182 429,-182"/>
<text text-anchor="middle" x="334" y="-160.3" font-family="Helvetica,sans-Serif" font-size="14.00">Crop data to final TOF range</text>
</g>
<!-- alg_CropFinalTOF&#45;&gt;proc_InstReduceBinWidths -->
<g id="edge33" class="edge">
<title>alg_CropFinalTOF&#45;&gt;proc_InstReduceBinWidths</title>
<path fill="none" stroke="black" d="M334,-145.81C334,-137.79 334,-128.05 334,-119.07"/>
<polygon fill="black" stroke="black" points="337.5,-119.03 334,-109.03 330.5,-119.03 337.5,-119.03"/>
</g>
<!-- alg_DiffractionFocusing&#45;&gt;alg_ConvertUnitsTOFVan -->
<g id="edge24" class="edge">
<title>alg_DiffractionFocusing&#45;&gt;alg_ConvertUnitsTOFVan</title>
<path fill="none" stroke="black" d="M644,-670.81C644,-662.79 644,-653.05 644,-644.07"/>
<polygon fill="black" stroke="black" points="647.5,-644.03 644,-634.03 640.5,-644.03 647.5,-644.03"/>
</g>
<!-- alg_DivideVan -->
<g id="node20" class="node">
<title>alg_DivideVan</title>
<path fill="lightskyblue" stroke="black" d="M318.5,-255C318.5,-255 159.5,-255 159.5,-255 153.5,-255 147.5,-249 147.5,-243 147.5,-243 147.5,-231 147.5,-231 147.5,-225 153.5,-219 159.5,-219 159.5,-219 318.5,-219 318.5,-219 324.5,-219 330.5,-225 330.5,-231 330.5,-231 330.5,-243 330.5,-243 330.5,-249 324.5,-255 318.5,-255"/>
<text text-anchor="middle" x="239" y="-233.3" font-family="Helvetica,sans-Serif" font-size="14.00">Divide: data / Vanadium</text>
</g>
<!-- alg_DivideVan&#45;&gt;alg_CropFinalTOF -->
<g id="edge32" class="edge">
<title>alg_DivideVan&#45;&gt;alg_CropFinalTOF</title>
<path fill="none" stroke="black" d="M262,-218.81C274.37,-209.57 289.79,-198.04 303.18,-188.03"/>
<polygon fill="black" stroke="black" points="305.3,-190.82 311.21,-182.03 301.11,-185.21 305.3,-190.82"/>
</g>
<!-- alg_ExtractWsSpectra&#45;&gt;if_van_normalisation -->
<g id="edge26" class="edge">
<title>alg_ExtractWsSpectra&#45;&gt;if_van_normalisation</title>
<path fill="none" stroke="black" d="M567.11,-524.99C511.99,-512.8 438.61,-496.57 386.75,-485.1"/>
<polygon fill="black" stroke="black" points="387.19,-481.61 376.67,-482.87 385.68,-488.45 387.19,-481.61"/>
</g>
<!-- alg_LoadNexusVan -->
<g id="node22" class="node">
<title>alg_LoadNexusVan</title>
<path fill="lightskyblue" stroke="black" d="M334,-401C334,-401 12,-401 12,-401 6,-401 0,-395 0,-389 0,-389 0,-377 0,-377 0,-371 6,-365 12,-365 12,-365 334,-365 334,-365 340,-365 346,-371 346,-377 346,-377 346,-389 346,-389 346,-395 340,-401 334,-401"/>
<text text-anchor="middle" x="173" y="-379.3" font-family="Helvetica,sans-Serif" font-size="14.00">Load splined Vanadium from &#39;create_vanadium&#39;</text>
</g>
<!-- alg_RebinToWorkspaceVan -->
<g id="node23" class="node">
<title>alg_RebinToWorkspaceVan</title>
<path fill="lightskyblue" stroke="black" d="M318.5,-328C318.5,-328 69.5,-328 69.5,-328 63.5,-328 57.5,-322 57.5,-316 57.5,-316 57.5,-304 57.5,-304 57.5,-298 63.5,-292 69.5,-292 69.5,-292 318.5,-292 318.5,-292 324.5,-292 330.5,-298 330.5,-304 330.5,-304 330.5,-316 330.5,-316 330.5,-322 324.5,-328 318.5,-328"/>
<text text-anchor="middle" x="194" y="-306.3" font-family="Helvetica,sans-Serif" font-size="14.00">Rebin: Van ws to match data binning</text>
</g>
<!-- alg_LoadNexusVan&#45;&gt;alg_RebinToWorkspaceVan -->
<g id="edge29" class="edge">
<title>alg_LoadNexusVan&#45;&gt;alg_RebinToWorkspaceVan</title>
<path fill="none" stroke="black" d="M178.08,-364.81C180.48,-356.7 183.4,-346.84 186.08,-337.78"/>
<polygon fill="black" stroke="black" points="189.48,-338.61 188.96,-328.03 182.77,-336.63 189.48,-338.61"/>
</g>
<!-- alg_RebinToWorkspaceVan&#45;&gt;alg_DivideVan -->
<g id="edge30" class="edge">
<title>alg_RebinToWorkspaceVan&#45;&gt;alg_DivideVan</title>
<path fill="none" stroke="black" d="M204.89,-291.81C210.25,-283.35 216.83,-272.98 222.77,-263.61"/>
<polygon fill="black" stroke="black" points="225.81,-265.35 228.21,-255.03 219.9,-261.6 225.81,-265.35"/>
</g>
<!-- alg_Subtract_sample_empty -->
<g id="node24" class="node">
<title>alg_Subtract_sample_empty</title>
<path fill="lightskyblue" stroke="black" d="M1137,-1086C1137,-1086 931,-1086 931,-1086 925,-1086 919,-1080 919,-1074 919,-1074 919,-1062 919,-1062 919,-1056 925,-1050 931,-1050 931,-1050 1137,-1050 1137,-1050 1143,-1050 1149,-1056 1149,-1062 1149,-1062 1149,-1074 1149,-1074 1149,-1080 1143,-1086 1137,-1086"/>
<text text-anchor="middle" x="1034" y="-1064.3" font-family="Helvetica,sans-Serif" font-size="14.00">Subtract: runs &#45; sample empty</text>
</g>
<!-- alg_Subtract_sample_empty&#45;&gt;alg_CropRawTOF -->
<g id="edge13" class="edge">
<title>alg_Subtract_sample_empty&#45;&gt;alg_CropRawTOF</title>
<path fill="none" stroke="black" d="M979.39,-1049.99C946.77,-1039.84 905.16,-1026.88 870.88,-1016.2"/>
<polygon fill="black" stroke="black" points="871.54,-1012.75 860.96,-1013.11 869.46,-1019.43 871.54,-1012.75"/>
</g>
<!-- alg_Subtract_van_empty&#45;&gt;alg_CropRawTOF -->
<g id="edge14" class="edge">
<title>alg_Subtract_van_empty&#45;&gt;alg_CropRawTOF</title>
<path fill="none" stroke="black" d="M1161.06,-1136.88C1168.57,-1132.25 1175.29,-1126.39 1180,-1119 1193.68,-1097.52 1179.32,-1066.83 1158,-1050 1121.55,-1021.23 1006.68,-1007.63 917.98,-1001.31"/>
<polygon fill="black" stroke="black" points="918.06,-997.8 907.84,-1000.61 917.58,-1004.79 918.06,-997.8"/>
</g>
<!-- alg_Subtract_van_empty&#45;&gt;alg_Subtract_sample_empty -->
<g id="edge11" class="edge">
<title>alg_Subtract_van_empty&#45;&gt;alg_Subtract_sample_empty</title>
<path fill="none" stroke="black" d="M1037.59,-1136.87C1029.89,-1132.27 1023.01,-1126.42 1018,-1119 1013.23,-1111.94 1014.08,-1103.38 1017.07,-1095.34"/>
<polygon fill="black" stroke="black" points="1020.25,-1096.81 1021.37,-1086.28 1013.92,-1093.82 1020.25,-1096.81"/>
<text text-anchor="middle" x="1099" y="-1107.8" font-family="Helvetica,sans-Serif" font-size="14.00">If: Sample empty given</text>
</g>
<!-- alg_Load -->
<g id="node26" class="node">
<title>alg_Load</title>
<path fill="lightskyblue" stroke="black" d="M1272,-1246C1272,-1246 1242,-1246 1242,-1246 1236,-1246 1230,-1240 1230,-1234 1230,-1234 1230,-1222 1230,-1222 1230,-1216 1236,-1210 1242,-1210 1242,-1210 1272,-1210 1272,-1210 1278,-1210 1284,-1216 1284,-1222 1284,-1222 1284,-1234 1284,-1234 1284,-1240 1278,-1246 1272,-1246"/>
<text text-anchor="middle" x="1257" y="-1224.3" font-family="Helvetica,sans-Serif" font-size="14.00">Load</text>
</g>
<!-- alg_Load&#45;&gt;alg_Subtract_van_empty -->
<g id="edge9" class="edge">
<title>alg_Load&#45;&gt;alg_Subtract_van_empty</title>
<path fill="none" stroke="black" d="M1229.83,-1214.31C1207.92,-1204.08 1176.64,-1189.46 1150.87,-1177.42"/>
<polygon fill="black" stroke="black" points="1152.19,-1174.18 1141.65,-1173.12 1149.23,-1180.52 1152.19,-1174.18"/>
</g>
<!-- if_apply_absorb&#45;&gt;proc_InstApplyAbsorbCorr -->
<g id="edge20" class="edge">
<title>if_apply_absorb&#45;&gt;proc_InstApplyAbsorbCorr</title>
<path fill="none" stroke="black" d="M722.02,-832.8C707.8,-820.08 687.25,-801.7 670.82,-786.99"/>
<polygon fill="black" stroke="black" points="672.91,-784.17 663.12,-780.11 668.24,-789.39 672.91,-784.17"/>
<text text-anchor="middle" x="713" y="-801.8" font-family="Helvetica,sans-Serif" font-size="14.00">True</text>
</g>
<!-- if_apply_absorb&#45;&gt;alg_DiffractionFocusing -->
<g id="edge22" class="edge">
<title>if_apply_absorb&#45;&gt;alg_DiffractionFocusing</title>
<path fill="none" stroke="black" d="M760.82,-833.24C788.29,-812.82 829.35,-774.96 807,-744 789.36,-719.57 760.24,-706.02 731.45,-698.55"/>
<polygon fill="black" stroke="black" points="732.26,-695.15 721.72,-696.25 730.65,-701.96 732.26,-695.15"/>
<text text-anchor="middle" x="832" y="-758.3" font-family="Helvetica,sans-Serif" font-size="14.00">False</text>
</g>
<!-- if_van_normalisation&#45;&gt;alg_CropFinalTOF -->
<g id="edge31" class="edge">
<title>if_van_normalisation&#45;&gt;alg_CropFinalTOF</title>
<path fill="none" stroke="black" d="M339.42,-453.42C354.33,-437.53 374,-411.36 374,-384 374,-384 374,-384 374,-236 374,-219.45 365.64,-203.19 356.57,-190.42"/>
<polygon fill="black" stroke="black" points="359.12,-188 350.27,-182.18 353.56,-192.25 359.12,-188"/>
<text text-anchor="middle" x="392" y="-306.3" font-family="Helvetica,sans-Serif" font-size="14.00">False</text>
</g>
<!-- if_van_normalisation&#45;&gt;alg_LoadNexusVan -->
<g id="edge28" class="edge">
<title>if_van_normalisation&#45;&gt;alg_LoadNexusVan</title>
<path fill="none" stroke="black" d="M297.21,-454.39C273.73,-441.08 238.73,-421.25 211.86,-406.02"/>
<polygon fill="black" stroke="black" points="213.52,-402.94 203.09,-401.05 210.06,-409.03 213.52,-402.94"/>
<text text-anchor="middle" x="272" y="-422.8" font-family="Helvetica,sans-Serif" font-size="14.00">True</text>
</g>
<!-- if_sample_empty_provided_1 -->
<g id="node29" class="node">
<title>if_sample_empty_provided_1</title>
<polygon fill="limegreen" stroke="black" points="880,-1406 716.28,-1388 880,-1370 1043.72,-1388 880,-1406"/>
<text text-anchor="middle" x="880" y="-1384.3" font-family="Helvetica,sans-Serif" font-size="14.00">If: Sample empty given</text>
</g>
<!-- if_sample_empty_provided_1&#45;&gt;param_sampleEmptyRunNumber -->
<g id="edge7" class="edge">
<title>if_sample_empty_provided_1&#45;&gt;param_sampleEmptyRunNumber</title>
<path fill="none" stroke="black" d="M880,-1369.81C880,-1361.79 880,-1352.05 880,-1343.07"/>
<polygon fill="black" stroke="black" points="883.5,-1343.03 880,-1333.03 876.5,-1343.03 883.5,-1343.03"/>
</g>
<!-- if_presummed_empty_exists&#45;&gt;proc_LoadCurrentNormWS_1 -->
<g id="edge5" class="edge">
<title>if_presummed_empty_exists&#45;&gt;proc_LoadCurrentNormWS_1</title>
<path fill="none" stroke="black" d="M1256.79,-1301C1209.58,-1287.11 1134.19,-1264.94 1079.54,-1248.86"/>
<polygon fill="black" stroke="black" points="1080.51,-1245.5 1069.93,-1246.04 1078.53,-1252.22 1080.51,-1245.5"/>
<text text-anchor="middle" x="1191" y="-1267.8" font-family="Helvetica,sans-Serif" font-size="14.00">False</text>
</g>
<!-- if_presummed_empty_exists&#45;&gt;alg_Load -->
<g id="edge6" class="edge">
<title>if_presummed_empty_exists&#45;&gt;alg_Load</title>
<path fill="none" stroke="black" d="M1292.52,-1297.61C1286.31,-1285.62 1277.75,-1269.09 1270.6,-1255.27"/>
<polygon fill="black" stroke="black" points="1273.62,-1253.49 1265.91,-1246.21 1267.4,-1256.7 1273.62,-1253.49"/>
<text text-anchor="middle" x="1296" y="-1267.8" font-family="Helvetica,sans-Serif" font-size="14.00">True</text>
</g>
<!-- param_apply_absorb -->
<g id="node31" class="node">
<title>param_apply_absorb</title>
<ellipse fill="lightgrey" stroke="black" cx="831" cy="-922" rx="104.78" ry="18"/>
<text text-anchor="middle" x="831" y="-918.3" font-family="Helvetica,sans-Serif" font-size="14.00">param_apply_absorb</text>
</g>
<!-- param_apply_absorb&#45;&gt;if_apply_absorb -->
<g id="edge19" class="edge">
<title>param_apply_absorb&#45;&gt;if_apply_absorb</title>
<path fill="none" stroke="black" d="M809.2,-904.17C796.35,-894.26 779.98,-881.62 766.28,-871.05"/>
<polygon fill="black" stroke="black" points="768.2,-868.12 758.15,-864.78 763.93,-873.66 768.2,-868.12"/>
</g>
</g>
</svg>
