<?xml version="1.0" encoding="UTF-8" standalone="no"?>
<!DOCTYPE svg PUBLIC "-//W3C//DTD SVG 1.1//EN"
 "http://www.w3.org/Graphics/SVG/1.1/DTD/svg11.dtd">
<!-- Generated by graphviz version 2.40.1 (20161225.0304)
 -->
<!-- Title: LoadEventAndCompress Pages: 1 -->
<svg width="352pt" height="533pt"
 viewBox="0.00 0.00 351.59 533.00" xmlns="http://www.w3.org/2000/svg" xmlns:xlink="http://www.w3.org/1999/xlink">
<g id="graph0" class="graph" transform="scale(1 1) rotate(0) translate(4 529)">
<title>LoadEventAndCompress</title>
<polygon fill="#ffffff" stroke="transparent" points="-4,4 -4,-529 347.5894,-529 347.5894,4 -4,4"/>
<text text-anchor="middle" x="171.7947" y="-509.8" font-family="Helvetica,sans-Serif" font-size="14.00" fill="#000000">LoadEventAndCompress Flowchart</text>
<!-- file1 -->
<g id="node1" class="node">
<title>file1</title>
<ellipse fill="#f0e68c" stroke="#000000" cx="85.1436" cy="-484" rx="47.3916" ry="18"/>
<text text-anchor="middle" x="85.1436" y="-480.3" font-family="Helvetica,sans-Serif" font-size="14.00" fill="#000000">Filename</text>
</g>
<!-- determineChunking -->
<g id="node8" class="node">
<title>determineChunking</title>
<path fill="#87cefa" stroke="#000000" d="M218.6436,-429C218.6436,-429 87.6436,-429 87.6436,-429 81.6436,-429 75.6436,-423 75.6436,-417 75.6436,-417 75.6436,-405 75.6436,-405 75.6436,-399 81.6436,-393 87.6436,-393 87.6436,-393 218.6436,-393 218.6436,-393 224.6436,-393 230.6436,-399 230.6436,-405 230.6436,-405 230.6436,-417 230.6436,-417 230.6436,-423 224.6436,-429 218.6436,-429"/>
<text text-anchor="middle" x="153.1436" y="-407.3" font-family="Helvetica,sans-Serif" font-size="14.00" fill="#000000">DetermineChunking v1</text>
</g>
<!-- file1&#45;&gt;determineChunking -->
<g id="edge1" class="edge">
<title>file1&#45;&gt;determineChunking</title>
<path fill="none" stroke="#000000" d="M101.2586,-466.7C109.6462,-457.6957 120.0638,-446.5122 129.3586,-436.5339"/>
<polygon fill="#000000" stroke="#000000" points="131.9403,-438.8974 136.1953,-429.1945 126.8182,-434.1261 131.9403,-438.8974"/>
</g>
<!-- file2 -->
<g id="node2" class="node">
<title>file2</title>
<ellipse fill="#f0e68c" stroke="#000000" cx="296.1436" cy="-411" rx="47.3916" ry="18"/>
<text text-anchor="middle" x="296.1436" y="-407.3" font-family="Helvetica,sans-Serif" font-size="14.00" fill="#000000">Filename</text>
</g>
<!-- loadEventNexus -->
<g id="node6" class="node">
<title>loadEventNexus</title>
<path fill="#87cefa" stroke="#000000" d="M287.6436,-342C287.6436,-342 174.6436,-342 174.6436,-342 168.6436,-342 162.6436,-336 162.6436,-330 162.6436,-330 162.6436,-318 162.6436,-318 162.6436,-312 168.6436,-306 174.6436,-306 174.6436,-306 287.6436,-306 287.6436,-306 293.6436,-306 299.6436,-312 299.6436,-318 299.6436,-318 299.6436,-330 299.6436,-330 299.6436,-336 293.6436,-342 287.6436,-342"/>
<text text-anchor="middle" x="231.1436" y="-320.3" font-family="Helvetica,sans-Serif" font-size="14.00" fill="#000000">LoadEventNexus v1</text>
</g>
<!-- file2&#45;&gt;loadEventNexus -->
<g id="edge3" class="edge">
<title>file2&#45;&gt;loadEventNexus</title>
<path fill="none" stroke="#000000" d="M290.2339,-392.9628C286.3473,-382.7004 280.5973,-369.9504 273.1436,-360 270.2719,-356.1665 266.925,-352.4602 263.3971,-348.9772"/>
<polygon fill="#000000" stroke="#000000" points="265.7258,-346.3637 255.9954,-342.172 260.988,-351.5168 265.7258,-346.3637"/>
</g>
<!-- OutputWorkspace -->
<g id="node3" class="node">
<title>OutputWorkspace</title>
<ellipse fill="#f0e68c" stroke="#000000" cx="182.1436" cy="-18" rx="81.7856" ry="18"/>
<text text-anchor="middle" x="182.1436" y="-14.3" font-family="Helvetica,sans-Serif" font-size="14.00" fill="#000000">OutputWorkspace</text>
</g>
<!-- MaxChunkSize -->
<g id="node4" class="node">
<title>MaxChunkSize</title>
<ellipse fill="#f0e68c" stroke="#000000" cx="221.1436" cy="-484" rx="70.3881" ry="18"/>
<text text-anchor="middle" x="221.1436" y="-480.3" font-family="Helvetica,sans-Serif" font-size="14.00" fill="#000000">MaxChunkSize</text>
</g>
<!-- MaxChunkSize&#45;&gt;determineChunking -->
<g id="edge2" class="edge">
<title>MaxChunkSize&#45;&gt;determineChunking</title>
<path fill="none" stroke="#000000" d="M204.6827,-466.3287C196.3707,-457.4055 186.1327,-446.4148 176.9778,-436.5867"/>
<polygon fill="#000000" stroke="#000000" points="179.3024,-433.9473 169.9253,-429.0157 174.1804,-438.7185 179.3024,-433.9473"/>
</g>
<!-- FilterBadPulses -->
<g id="node5" class="node">
<title>FilterBadPulses</title>
<ellipse fill="#f0e68c" stroke="#000000" cx="72.1436" cy="-324" rx="72.2875" ry="18"/>
<text text-anchor="middle" x="72.1436" y="-320.3" font-family="Helvetica,sans-Serif" font-size="14.00" fill="#000000">FilterBadPulses</text>
</g>
<!-- filterBadPulses -->
<g id="node9" class="node">
<title>filterBadPulses</title>
<path fill="#87cefa" stroke="#000000" d="M186.6436,-269C186.6436,-269 81.6436,-269 81.6436,-269 75.6436,-269 69.6436,-263 69.6436,-257 69.6436,-257 69.6436,-245 69.6436,-245 69.6436,-239 75.6436,-233 81.6436,-233 81.6436,-233 186.6436,-233 186.6436,-233 192.6436,-233 198.6436,-239 198.6436,-245 198.6436,-245 198.6436,-257 198.6436,-257 198.6436,-263 192.6436,-269 186.6436,-269"/>
<text text-anchor="middle" x="134.1436" y="-247.3" font-family="Helvetica,sans-Serif" font-size="14.00" fill="#000000">FilterBadPulses v1</text>
</g>
<!-- FilterBadPulses&#45;&gt;filterBadPulses -->
<g id="edge6" class="edge">
<title>FilterBadPulses&#45;&gt;filterBadPulses</title>
<path fill="none" stroke="#000000" d="M87.1521,-306.3287C94.6557,-297.4939 103.8806,-286.6323 112.1642,-276.8789"/>
<polygon fill="#000000" stroke="#000000" points="115.0368,-278.9034 118.8426,-269.0157 109.7014,-274.3719 115.0368,-278.9034"/>
</g>
<!-- loadEventNexus&#45;&gt;filterBadPulses -->
<g id="edge5" class="edge">
<title>loadEventNexus&#45;&gt;filterBadPulses</title>
<path fill="none" stroke="#000000" d="M207.1661,-305.9551C194.8077,-296.6545 179.5667,-285.1844 166.211,-275.1332"/>
<polygon fill="#000000" stroke="#000000" points="168.2762,-272.307 158.1815,-269.0904 164.067,-277.9001 168.2762,-272.307"/>
</g>
<!-- compressEvents -->
<g id="node7" class="node">
<title>compressEvents</title>
<path fill="#87cefa" stroke="#000000" d="M191.1436,-182C191.1436,-182 77.1436,-182 77.1436,-182 71.1436,-182 65.1436,-176 65.1436,-170 65.1436,-170 65.1436,-158 65.1436,-158 65.1436,-152 71.1436,-146 77.1436,-146 77.1436,-146 191.1436,-146 191.1436,-146 197.1436,-146 203.1436,-152 203.1436,-158 203.1436,-158 203.1436,-170 203.1436,-170 203.1436,-176 197.1436,-182 191.1436,-182"/>
<text text-anchor="middle" x="134.1436" y="-160.3" font-family="Helvetica,sans-Serif" font-size="14.00" fill="#000000">CompressEvents v1</text>
</g>
<!-- plus -->
<g id="node10" class="node">
<title>plus</title>
<path fill="#87cefa" stroke="#000000" d="M200.6436,-109C200.6436,-109 163.6436,-109 163.6436,-109 157.6436,-109 151.6436,-103 151.6436,-97 151.6436,-97 151.6436,-85 151.6436,-85 151.6436,-79 157.6436,-73 163.6436,-73 163.6436,-73 200.6436,-73 200.6436,-73 206.6436,-73 212.6436,-79 212.6436,-85 212.6436,-85 212.6436,-97 212.6436,-97 212.6436,-103 206.6436,-109 200.6436,-109"/>
<text text-anchor="middle" x="182.1436" y="-87.3" font-family="Helvetica,sans-Serif" font-size="14.00" fill="#000000">Plus v1</text>
</g>
<!-- compressEvents&#45;&gt;plus -->
<g id="edge8" class="edge">
<title>compressEvents&#45;&gt;plus</title>
<path fill="none" stroke="#000000" d="M146.0088,-145.9551C151.605,-137.4441 158.3958,-127.1165 164.573,-117.7219"/>
<polygon fill="#000000" stroke="#000000" points="167.6789,-119.3689 170.2486,-109.0904 161.83,-115.523 167.6789,-119.3689"/>
</g>
<!-- determineChunking&#45;&gt;loadEventNexus -->
<g id="edge4" class="edge">
<title>determineChunking&#45;&gt;loadEventNexus</title>
<path fill="none" stroke="#000000" d="M154.2169,-392.9316C155.6471,-382.4082 158.8861,-369.4036 166.1436,-360 169.5918,-355.5322 173.7598,-351.54 178.3009,-347.9914"/>
<polygon fill="#000000" stroke="#000000" points="180.5932,-350.6604 186.8029,-342.0761 176.5953,-344.9143 180.5932,-350.6604"/>
<text text-anchor="middle" x="217.6436" y="-363.8" font-family="Helvetica,sans-Serif" font-size="14.00" fill="#000000">loop over chunks</text>
</g>
<!-- filterBadPulses&#45;&gt;compressEvents -->
<g id="edge7" class="edge">
<title>filterBadPulses&#45;&gt;compressEvents</title>
<path fill="none" stroke="#000000" d="M134.1436,-232.9735C134.1436,-221.1918 134.1436,-205.5607 134.1436,-192.1581"/>
<polygon fill="#000000" stroke="#000000" points="137.6437,-192.0033 134.1436,-182.0034 130.6437,-192.0034 137.6437,-192.0033"/>
</g>
<!-- plus&#45;&gt;OutputWorkspace -->
<g id="edge10" class="edge">
<title>plus&#45;&gt;OutputWorkspace</title>
<path fill="none" stroke="#000000" d="M182.1436,-72.9551C182.1436,-64.8828 182.1436,-55.1764 182.1436,-46.1817"/>
<polygon fill="#000000" stroke="#000000" points="185.6437,-46.0903 182.1436,-36.0904 178.6437,-46.0904 185.6437,-46.0903"/>
</g>
<!-- plus&#45;&gt;loadEventNexus -->
<g id="edge9" class="edge">
<title>plus&#45;&gt;loadEventNexus</title>
<path fill="none" stroke="#000000" d="M194.3332,-109.0248C200.7251,-119.391 208.0564,-132.919 212.1436,-146 228.103,-197.0778 231.1892,-259.9723 231.4994,-295.6799"/>
<polygon fill="#000000" stroke="#000000" points="227.9996,-295.8519 231.5177,-305.8455 234.9996,-295.8392 227.9996,-295.8519"/>
<text text-anchor="middle" x="261.1436" y="-203.8" font-family="Helvetica,sans-Serif" font-size="14.00" fill="#000000">accumulate</text>
</g>
</g>
</svg>
