<?xml version="1.0" encoding="UTF-8" standalone="no"?>
<!DOCTYPE svg PUBLIC "-//W3C//DTD SVG 1.1//EN"
 "http://www.w3.org/Graphics/SVG/1.1/DTD/svg11.dtd">
<!-- Generated by graphviz version 2.47.2 (20210527.1257)
 -->
<!-- Title: MatchAndMergeWorkspaces Pages: 1 -->
<svg width="710pt" height="770pt"
 viewBox="0.00 0.00 710.49 770.00" xmlns="http://www.w3.org/2000/svg" xmlns:xlink="http://www.w3.org/1999/xlink">
<g id="graph0" class="graph" transform="scale(1 1) rotate(0) translate(4 766)">
<title>MatchAndMergeWorkspaces</title>
<polygon fill="white" stroke="transparent" points="-4,4 -4,-766 706.49,-766 706.49,4 -4,4"/>
<text text-anchor="middle" x="351.25" y="-746.8" font-family="Helvetica" font-size="14.00">MatchAndMergeWorkspaces Workflow Diagram</text>
<!-- inputWorkspace -->
<g id="node1" class="node">
<title>inputWorkspace</title>
<ellipse fill="khaki" stroke="black" cx="302" cy="-721" rx="78.79" ry="18"/>
<text text-anchor="middle" x="302" y="-717.3" font-family="Helvetica" font-size="14.00">InputWorkspaces</text>
</g>
<!-- findLargestRange -->
<g id="node15" class="node">
<title>findLargestRange</title>
<polygon fill="lightseagreen" stroke="black" points="437.5,-666 166.5,-666 166.5,-630 437.5,-630 437.5,-666"/>
<text text-anchor="middle" x="302" y="-644.3" font-family="Helvetica" font-size="14.00">Find detector data with the largest X range</text>
</g>
<!-- inputWorkspace&#45;&gt;findLargestRange -->
<g id="edge1" class="edge">
<title>inputWorkspace&#45;&gt;findLargestRange</title>
<path fill="none" stroke="black" d="M302,-702.81C302,-694.79 302,-685.05 302,-676.07"/>
<polygon fill="black" stroke="black" points="305.5,-676.03 302,-666.03 298.5,-676.03 305.5,-676.03"/>
</g>
<!-- outputWorkspace -->
<g id="node2" class="node">
<title>outputWorkspace</title>
<ellipse fill="khaki" stroke="black" cx="532" cy="-18" rx="81.49" ry="18"/>
<text text-anchor="middle" x="532" y="-14.3" font-family="Helvetica" font-size="14.00">OutputWorkspace</text>
</g>
<!-- xMin -->
<g id="node3" class="node">
<title>xMin</title>
<ellipse fill="khaki" stroke="black" cx="532" cy="-310" rx="31.4" ry="18"/>
<text text-anchor="middle" x="532" y="-306.3" font-family="Helvetica" font-size="14.00">XMin</text>
</g>
<!-- CropWorkspaceRagged -->
<g id="node12" class="node">
<title>CropWorkspaceRagged</title>
<path fill="lightskyblue" stroke="black" d="M609.5,-255C609.5,-255 454.5,-255 454.5,-255 448.5,-255 442.5,-249 442.5,-243 442.5,-243 442.5,-231 442.5,-231 442.5,-225 448.5,-219 454.5,-219 454.5,-219 609.5,-219 609.5,-219 615.5,-219 621.5,-225 621.5,-231 621.5,-231 621.5,-243 621.5,-243 621.5,-249 615.5,-255 609.5,-255"/>
<text text-anchor="middle" x="532" y="-233.3" font-family="Helvetica" font-size="14.00">CropWorkspaceRagged v1</text>
</g>
<!-- xMin&#45;&gt;CropWorkspaceRagged -->
<g id="edge12" class="edge">
<title>xMin&#45;&gt;CropWorkspaceRagged</title>
<path fill="none" stroke="black" d="M532,-291.81C532,-283.79 532,-274.05 532,-265.07"/>
<polygon fill="black" stroke="black" points="535.5,-265.03 532,-255.03 528.5,-265.03 535.5,-265.03"/>
</g>
<!-- xMax -->
<g id="node4" class="node">
<title>xMax</title>
<ellipse fill="khaki" stroke="black" cx="615" cy="-310" rx="33.6" ry="18"/>
<text text-anchor="middle" x="615" y="-306.3" font-family="Helvetica" font-size="14.00">XMax</text>
</g>
<!-- xMax&#45;&gt;CropWorkspaceRagged -->
<g id="edge13" class="edge">
<title>xMax&#45;&gt;CropWorkspaceRagged</title>
<path fill="none" stroke="black" d="M597.8,-294.29C586.9,-284.96 572.53,-272.67 560.01,-261.96"/>
<polygon fill="black" stroke="black" points="561.97,-259.03 552.1,-255.19 557.42,-264.35 561.97,-259.03"/>
</g>
<!-- calculateScale -->
<g id="node5" class="node">
<title>calculateScale</title>
<ellipse fill="khaki" stroke="black" cx="472" cy="-432" rx="69.59" ry="18"/>
<text text-anchor="middle" x="472" y="-428.3" font-family="Helvetica" font-size="14.00">CalculateScale</text>
</g>
<!-- MatchSpectra -->
<g id="node11" class="node">
<title>MatchSpectra</title>
<path fill="lightskyblue" stroke="black" d="M470.5,-328C470.5,-328 375.5,-328 375.5,-328 369.5,-328 363.5,-322 363.5,-316 363.5,-316 363.5,-304 363.5,-304 363.5,-298 369.5,-292 375.5,-292 375.5,-292 470.5,-292 470.5,-292 476.5,-292 482.5,-298 482.5,-304 482.5,-304 482.5,-316 482.5,-316 482.5,-322 476.5,-328 470.5,-328"/>
<text text-anchor="middle" x="423" y="-306.3" font-family="Helvetica" font-size="14.00">MatchSpectra v1</text>
</g>
<!-- calculateScale&#45;&gt;MatchSpectra -->
<g id="edge9" class="edge">
<title>calculateScale&#45;&gt;MatchSpectra</title>
<path fill="none" stroke="black" d="M465.08,-414.06C456.96,-394.16 443.38,-360.91 433.85,-337.57"/>
<polygon fill="black" stroke="black" points="437.06,-336.18 430.04,-328.24 430.58,-338.82 437.06,-336.18"/>
</g>
<!-- calculateOffset -->
<g id="node6" class="node">
<title>calculateOffset</title>
<ellipse fill="khaki" stroke="black" cx="631" cy="-432" rx="71.49" ry="18"/>
<text text-anchor="middle" x="631" y="-428.3" font-family="Helvetica" font-size="14.00">CalculateOffset</text>
</g>
<!-- calculateOffset&#45;&gt;MatchSpectra -->
<g id="edge10" class="edge">
<title>calculateOffset&#45;&gt;MatchSpectra</title>
<path fill="none" stroke="black" d="M607.54,-414.97C591.78,-404.4 570.41,-390.43 551,-379 523.19,-362.62 491.12,-345.59 466.04,-332.66"/>
<polygon fill="black" stroke="black" points="467.63,-329.55 457.13,-328.1 464.44,-335.77 467.63,-329.55"/>
</g>
<!-- matchSpectraIndex -->
<g id="node7" class="node">
<title>matchSpectraIndex</title>
<ellipse fill="khaki" stroke="black" cx="365" cy="-521" rx="153.27" ry="18"/>
<text text-anchor="middle" x="365" y="-517.3" font-family="Helvetica" font-size="14.00">Index of spectra with largest X range</text>
</g>
<!-- matchSpectraIndex&#45;&gt;MatchSpectra -->
<g id="edge8" class="edge">
<title>matchSpectraIndex&#45;&gt;MatchSpectra</title>
<path fill="none" stroke="black" d="M367.18,-502.77C370.85,-475.89 379.25,-422.55 393,-379 397.44,-364.92 403.91,-349.84 409.7,-337.47"/>
<polygon fill="black" stroke="black" points="412.98,-338.73 414.15,-328.2 406.67,-335.7 412.98,-338.73"/>
</g>
<!-- isGroupWsNotConjoined -->
<g id="node8" class="node">
<title>isGroupWsNotConjoined</title>
<polygon fill="limegreen" stroke="black" points="173,-485 0,-432 173,-379 346,-432 173,-485"/>
<text text-anchor="middle" x="173" y="-443.3" font-family="Helvetica" font-size="14.00">Are there</text>
<text text-anchor="middle" x="173" y="-428.3" font-family="Helvetica" font-size="14.00"> un&#45;conjoined workspaces</text>
<text text-anchor="middle" x="173" y="-413.3" font-family="Helvetica" font-size="14.00"> in the workspace list</text>
</g>
<!-- ConjoinWorkspaces -->
<g id="node10" class="node">
<title>ConjoinWorkspaces</title>
<path fill="lightskyblue" stroke="black" d="M255.5,-328C255.5,-328 124.5,-328 124.5,-328 118.5,-328 112.5,-322 112.5,-316 112.5,-316 112.5,-304 112.5,-304 112.5,-298 118.5,-292 124.5,-292 124.5,-292 255.5,-292 255.5,-292 261.5,-292 267.5,-298 267.5,-304 267.5,-304 267.5,-316 267.5,-316 267.5,-322 261.5,-328 255.5,-328"/>
<text text-anchor="middle" x="190" y="-306.3" font-family="Helvetica" font-size="14.00">ConjoinWorkspaces v1</text>
</g>
<!-- isGroupWsNotConjoined&#45;&gt;ConjoinWorkspaces -->
<g id="edge5" class="edge">
<title>isGroupWsNotConjoined&#45;&gt;ConjoinWorkspaces</title>
<path fill="none" stroke="black" d="M150.19,-385.93C146.47,-372.75 145.41,-358.53 151,-346 152.66,-342.27 154.94,-338.78 157.56,-335.55"/>
<polygon fill="black" stroke="black" points="160.3,-337.75 164.65,-328.09 155.23,-332.93 160.3,-337.75"/>
<text text-anchor="middle" x="162.5" y="-349.8" font-family="Helvetica" font-size="14.00">Yes</text>
</g>
<!-- isGroupWsNotConjoined&#45;&gt;MatchSpectra -->
<g id="edge6" class="edge">
<title>isGroupWsNotConjoined&#45;&gt;MatchSpectra</title>
<path fill="none" stroke="black" d="M235.97,-398.23C267.58,-382.07 306.59,-362.54 342,-346 351.88,-341.38 362.53,-336.63 372.76,-332.17"/>
<polygon fill="black" stroke="black" points="374.22,-335.35 382,-328.17 371.43,-328.93 374.22,-335.35"/>
<text text-anchor="middle" x="351" y="-349.8" font-family="Helvetica" font-size="14.00">No</text>
</g>
<!-- Rebin1 -->
<g id="node9" class="node">
<title>Rebin1</title>
<path fill="lightskyblue" stroke="black" d="M264,-593C264,-593 218,-593 218,-593 212,-593 206,-587 206,-581 206,-581 206,-569 206,-569 206,-563 212,-557 218,-557 218,-557 264,-557 264,-557 270,-557 276,-563 276,-569 276,-569 276,-581 276,-581 276,-587 270,-593 264,-593"/>
<text text-anchor="middle" x="241" y="-571.3" font-family="Helvetica" font-size="14.00">Rebin v1</text>
</g>
<!-- Rebin1&#45;&gt;isGroupWsNotConjoined -->
<g id="edge4" class="edge">
<title>Rebin1&#45;&gt;isGroupWsNotConjoined</title>
<path fill="none" stroke="black" d="M218.33,-556.89C212.65,-551.68 207.04,-545.57 203,-539 194.33,-524.9 188.1,-508.22 183.64,-492.31"/>
<polygon fill="black" stroke="black" points="187,-491.33 181.09,-482.54 180.23,-493.1 187,-491.33"/>
</g>
<!-- ConjoinWorkspaces&#45;&gt;isGroupWsNotConjoined -->
<g id="edge7" class="edge">
<title>ConjoinWorkspaces&#45;&gt;isGroupWsNotConjoined</title>
<path fill="none" stroke="black" d="M205.58,-328.35C209.41,-333.65 212.99,-339.74 215,-346 217.03,-352.35 216.78,-354.58 215,-361 213.31,-367.09 210.94,-373.19 208.16,-379.11"/>
<polygon fill="black" stroke="black" points="204.94,-377.72 203.52,-388.22 211.18,-380.9 204.94,-377.72"/>
</g>
<!-- MatchSpectra&#45;&gt;CropWorkspaceRagged -->
<g id="edge11" class="edge">
<title>MatchSpectra&#45;&gt;CropWorkspaceRagged</title>
<path fill="none" stroke="black" d="M449.11,-291.99C463.56,-282.58 481.71,-270.76 497.34,-260.57"/>
<polygon fill="black" stroke="black" points="499.26,-263.5 505.73,-255.11 495.44,-257.64 499.26,-263.5"/>
</g>
<!-- Rebin2 -->
<g id="node13" class="node">
<title>Rebin2</title>
<path fill="lightskyblue" stroke="black" d="M555,-182C555,-182 509,-182 509,-182 503,-182 497,-176 497,-170 497,-170 497,-158 497,-158 497,-152 503,-146 509,-146 509,-146 555,-146 555,-146 561,-146 567,-152 567,-158 567,-158 567,-170 567,-170 567,-176 561,-182 555,-182"/>
<text text-anchor="middle" x="532" y="-160.3" font-family="Helvetica" font-size="14.00">Rebin v1</text>
</g>
<!-- CropWorkspaceRagged&#45;&gt;Rebin2 -->
<g id="edge14" class="edge">
<title>CropWorkspaceRagged&#45;&gt;Rebin2</title>
<path fill="none" stroke="black" d="M532,-218.81C532,-210.79 532,-201.05 532,-192.07"/>
<polygon fill="black" stroke="black" points="535.5,-192.03 532,-182.03 528.5,-192.03 535.5,-192.03"/>
</g>
<!-- SumSpectra -->
<g id="node14" class="node">
<title>SumSpectra</title>
<path fill="lightskyblue" stroke="black" d="M575,-109C575,-109 489,-109 489,-109 483,-109 477,-103 477,-97 477,-97 477,-85 477,-85 477,-79 483,-73 489,-73 489,-73 575,-73 575,-73 581,-73 587,-79 587,-85 587,-85 587,-97 587,-97 587,-103 581,-109 575,-109"/>
<text text-anchor="middle" x="532" y="-87.3" font-family="Helvetica" font-size="14.00">SumSpectra v1</text>
</g>
<!-- Rebin2&#45;&gt;SumSpectra -->
<g id="edge15" class="edge">
<title>Rebin2&#45;&gt;SumSpectra</title>
<path fill="none" stroke="black" d="M532,-145.81C532,-137.79 532,-128.05 532,-119.07"/>
<polygon fill="black" stroke="black" points="535.5,-119.03 532,-109.03 528.5,-119.03 535.5,-119.03"/>
</g>
<!-- SumSpectra&#45;&gt;outputWorkspace -->
<g id="edge16" class="edge">
<title>SumSpectra&#45;&gt;outputWorkspace</title>
<path fill="none" stroke="black" d="M532,-72.81C532,-64.79 532,-55.05 532,-46.07"/>
<polygon fill="black" stroke="black" points="535.5,-46.03 532,-36.03 528.5,-46.03 535.5,-46.03"/>
</g>
<!-- findLargestRange&#45;&gt;matchSpectraIndex -->
<g id="edge3" class="edge">
<title>findLargestRange&#45;&gt;matchSpectraIndex</title>
<path fill="none" stroke="black" d="M310.63,-629.88C321.22,-608.87 339.29,-573 351.68,-548.44"/>
<polygon fill="black" stroke="black" points="354.9,-549.82 356.27,-539.31 348.65,-546.67 354.9,-549.82"/>
</g>
<!-- findLargestRange&#45;&gt;Rebin1 -->
<g id="edge2" class="edge">
<title>findLargestRange&#45;&gt;Rebin1</title>
<path fill="none" stroke="black" d="M287.23,-629.81C279.74,-621.09 270.5,-610.34 262.26,-600.75"/>
<polygon fill="black" stroke="black" points="264.8,-598.33 255.63,-593.03 259.49,-602.89 264.8,-598.33"/>
</g>
</g>
</svg>
