<?xml version="1.0" encoding="UTF-8" standalone="no"?>
<!DOCTYPE svg PUBLIC "-//W3C//DTD SVG 1.1//EN"
 "http://www.w3.org/Graphics/SVG/1.1/DTD/svg11.dtd">
<!-- Generated by graphviz version 3.0.0 (20220315.2325)
 -->
<!-- Title: MatchAndMergeWorkspaces Pages: 1 -->
<svg width="788pt" height="770pt"
 viewBox="0.00 0.00 787.94 770.00" xmlns="http://www.w3.org/2000/svg" xmlns:xlink="http://www.w3.org/1999/xlink">
<g id="graph0" class="graph" transform="scale(1 1) rotate(0) translate(4 766)">
<title>MatchAndMergeWorkspaces</title>
<polygon fill="white" stroke="transparent" points="-4,4 -4,-766 783.94,-766 783.94,4 -4,4"/>
<text text-anchor="middle" x="389.97" y="-746.8" font-family="Helvetica,sans-Serif" font-size="14.00">MatchAndMergeWorkspaces Workflow Diagram</text>
<!-- inputWorkspace -->
<g id="node1" class="node">
<title>inputWorkspace</title>
<ellipse fill="khaki" stroke="black" cx="344" cy="-721" rx="89.08" ry="18"/>
<text text-anchor="middle" x="344" y="-717.3" font-family="Helvetica,sans-Serif" font-size="14.00">InputWorkspaces</text>
</g>
<!-- findLargestRange -->
<g id="node15" class="node">
<title>findLargestRange</title>
<polygon fill="lightseagreen" stroke="black" points="502,-666 186,-666 186,-630 502,-630 502,-666"/>
<text text-anchor="middle" x="344" y="-644.3" font-family="Helvetica,sans-Serif" font-size="14.00">Find detector data with the largest X range</text>
</g>
<!-- inputWorkspace&#45;&gt;findLargestRange -->
<g id="edge1" class="edge">
<title>inputWorkspace&#45;&gt;findLargestRange</title>
<path fill="none" stroke="black" d="M344,-702.81C344,-694.79 344,-685.05 344,-676.07"/>
<polygon fill="black" stroke="black" points="347.5,-676.03 344,-666.03 340.5,-676.03 347.5,-676.03"/>
</g>
<!-- outputWorkspace -->
<g id="node2" class="node">
<title>outputWorkspace</title>
<ellipse fill="khaki" stroke="black" cx="592" cy="-18" rx="92.08" ry="18"/>
<text text-anchor="middle" x="592" y="-14.3" font-family="Helvetica,sans-Serif" font-size="14.00">OutputWorkspace</text>
</g>
<!-- xMin -->
<g id="node3" class="node">
<title>xMin</title>
<ellipse fill="khaki" stroke="black" cx="592" cy="-310" rx="33.29" ry="18"/>
<text text-anchor="middle" x="592" y="-306.3" font-family="Helvetica,sans-Serif" font-size="14.00">XMin</text>
</g>
<!-- CropWorkspaceRagged -->
<g id="node12" class="node">
<title>CropWorkspaceRagged</title>
<path fill="lightskyblue" stroke="black" d="M680,-255C680,-255 504,-255 504,-255 498,-255 492,-249 492,-243 492,-243 492,-231 492,-231 492,-225 498,-219 504,-219 504,-219 680,-219 680,-219 686,-219 692,-225 692,-231 692,-231 692,-243 692,-243 692,-249 686,-255 680,-255"/>
<text text-anchor="middle" x="592" y="-233.3" font-family="Helvetica,sans-Serif" font-size="14.00">CropWorkspaceRagged v1</text>
</g>
<!-- xMin&#45;&gt;CropWorkspaceRagged -->
<g id="edge12" class="edge">
<title>xMin&#45;&gt;CropWorkspaceRagged</title>
<path fill="none" stroke="black" d="M592,-291.81C592,-283.79 592,-274.05 592,-265.07"/>
<polygon fill="black" stroke="black" points="595.5,-265.03 592,-255.03 588.5,-265.03 595.5,-265.03"/>
</g>
<!-- xMax -->
<g id="node4" class="node">
<title>xMax</title>
<ellipse fill="khaki" stroke="black" cx="679" cy="-310" rx="36" ry="18"/>
<text text-anchor="middle" x="679" y="-306.3" font-family="Helvetica,sans-Serif" font-size="14.00">XMax</text>
</g>
<!-- xMax&#45;&gt;CropWorkspaceRagged -->
<g id="edge13" class="edge">
<title>xMax&#45;&gt;CropWorkspaceRagged</title>
<path fill="none" stroke="black" d="M660.97,-294.29C649.43,-284.87 634.2,-272.44 620.98,-261.65"/>
<polygon fill="black" stroke="black" points="623.03,-258.8 613.07,-255.19 618.6,-264.23 623.03,-258.8"/>
</g>
<!-- calculateScale -->
<g id="node5" class="node">
<title>calculateScale</title>
<ellipse fill="khaki" stroke="black" cx="526" cy="-432" rx="76.09" ry="18"/>
<text text-anchor="middle" x="526" y="-428.3" font-family="Helvetica,sans-Serif" font-size="14.00">CalculateScale</text>
</g>
<!-- MatchSpectra -->
<g id="node11" class="node">
<title>MatchSpectra</title>
<path fill="lightskyblue" stroke="black" d="M529,-328C529,-328 419,-328 419,-328 413,-328 407,-322 407,-316 407,-316 407,-304 407,-304 407,-298 413,-292 419,-292 419,-292 529,-292 529,-292 535,-292 541,-298 541,-304 541,-304 541,-316 541,-316 541,-322 535,-328 529,-328"/>
<text text-anchor="middle" x="474" y="-306.3" font-family="Helvetica,sans-Serif" font-size="14.00">MatchSpectra v1</text>
</g>
<!-- calculateScale&#45;&gt;MatchSpectra -->
<g id="edge9" class="edge">
<title>calculateScale&#45;&gt;MatchSpectra</title>
<path fill="none" stroke="black" d="M518.66,-414.06C510.04,-394.16 495.63,-360.91 485.51,-337.57"/>
<polygon fill="black" stroke="black" points="488.66,-336.02 481.47,-328.24 482.24,-338.81 488.66,-336.02"/>
</g>
<!-- calculateOffset -->
<g id="node6" class="node">
<title>calculateOffset</title>
<ellipse fill="khaki" stroke="black" cx="700" cy="-432" rx="79.89" ry="18"/>
<text text-anchor="middle" x="700" y="-428.3" font-family="Helvetica,sans-Serif" font-size="14.00">CalculateOffset</text>
</g>
<!-- calculateOffset&#45;&gt;MatchSpectra -->
<g id="edge10" class="edge">
<title>calculateOffset&#45;&gt;MatchSpectra</title>
<path fill="none" stroke="black" d="M673.4,-414.82C655.85,-404.3 632.26,-390.47 611,-379 580.79,-362.7 546.16,-345.53 519.28,-332.51"/>
<polygon fill="black" stroke="black" points="520.64,-329.29 510.11,-328.09 517.6,-335.59 520.64,-329.29"/>
</g>
<!-- matchSpectraIndex -->
<g id="node7" class="node">
<title>matchSpectraIndex</title>
<ellipse fill="khaki" stroke="black" cx="414" cy="-521" rx="178.97" ry="18"/>
<text text-anchor="middle" x="414" y="-517.3" font-family="Helvetica,sans-Serif" font-size="14.00">Index of spectra with largest X range</text>
</g>
<!-- matchSpectraIndex&#45;&gt;MatchSpectra -->
<g id="edge8" class="edge">
<title>matchSpectraIndex&#45;&gt;MatchSpectra</title>
<path fill="none" stroke="black" d="M415.83,-502.7C419.01,-475.74 426.63,-422.29 441,-379 445.78,-364.61 452.96,-349.36 459.41,-336.95"/>
<polygon fill="black" stroke="black" points="462.53,-338.55 464.15,-328.08 456.35,-335.25 462.53,-338.55"/>
</g>
<!-- isGroupWsNotConjoined -->
<g id="node8" class="node">
<title>isGroupWsNotConjoined</title>
<polygon fill="limegreen" stroke="black" points="197,-485 0,-432 197,-379 394,-432 197,-485"/>
<text text-anchor="middle" x="197" y="-443.3" font-family="Helvetica,sans-Serif" font-size="14.00">Are there</text>
<text text-anchor="middle" x="197" y="-428.3" font-family="Helvetica,sans-Serif" font-size="14.00"> un&#45;conjoined workspaces</text>
<text text-anchor="middle" x="197" y="-413.3" font-family="Helvetica,sans-Serif" font-size="14.00"> in the workspace list</text>
</g>
<!-- ConjoinWorkspaces -->
<g id="node10" class="node">
<title>ConjoinWorkspaces</title>
<path fill="lightskyblue" stroke="black" d="M289,-328C289,-328 139,-328 139,-328 133,-328 127,-322 127,-316 127,-316 127,-304 127,-304 127,-298 133,-292 139,-292 139,-292 289,-292 289,-292 295,-292 301,-298 301,-304 301,-304 301,-316 301,-316 301,-322 295,-328 289,-328"/>
<text text-anchor="middle" x="214" y="-306.3" font-family="Helvetica,sans-Serif" font-size="14.00">ConjoinWorkspaces v1</text>
</g>
<!-- isGroupWsNotConjoined&#45;&gt;ConjoinWorkspaces -->
<g id="edge5" class="edge">
<title>isGroupWsNotConjoined&#45;&gt;ConjoinWorkspaces</title>
<path fill="none" stroke="black" d="M173.95,-385.05C170.43,-372.12 169.53,-358.25 175,-346 176.66,-342.27 178.94,-338.78 181.56,-335.55"/>
<polygon fill="black" stroke="black" points="184.3,-337.75 188.65,-328.09 179.23,-332.93 184.3,-337.75"/>
<text text-anchor="middle" x="186.5" y="-349.8" font-family="Helvetica,sans-Serif" font-size="14.00">Yes</text>
</g>
<!-- isGroupWsNotConjoined&#45;&gt;MatchSpectra -->
<g id="edge6" class="edge">
<title>isGroupWsNotConjoined&#45;&gt;MatchSpectra</title>
<path fill="none" stroke="black" d="M269.74,-398.26C305.56,-382.28 349.44,-362.9 389,-346 399.78,-341.39 411.38,-336.55 422.43,-331.98"/>
<polygon fill="black" stroke="black" points="424.06,-335.1 431.97,-328.05 421.39,-328.62 424.06,-335.1"/>
<text text-anchor="middle" x="398.5" y="-349.8" font-family="Helvetica,sans-Serif" font-size="14.00">No</text>
</g>
<!-- Rebin1 -->
<g id="node9" class="node">
<title>Rebin1</title>
<path fill="lightskyblue" stroke="black" d="M302,-593C302,-593 248,-593 248,-593 242,-593 236,-587 236,-581 236,-581 236,-569 236,-569 236,-563 242,-557 248,-557 248,-557 302,-557 302,-557 308,-557 314,-563 314,-569 314,-569 314,-581 314,-581 314,-587 308,-593 302,-593"/>
<text text-anchor="middle" x="275" y="-571.3" font-family="Helvetica,sans-Serif" font-size="14.00">Rebin v1</text>
</g>
<!-- Rebin1&#45;&gt;isGroupWsNotConjoined -->
<g id="edge4" class="edge">
<title>Rebin1&#45;&gt;isGroupWsNotConjoined</title>
<path fill="none" stroke="black" d="M244.15,-556.85C237.36,-551.85 230.78,-545.86 226,-539 216.6,-525.52 210.25,-509.11 205.95,-493.27"/>
<polygon fill="black" stroke="black" points="209.33,-492.38 203.53,-483.52 202.54,-494.06 209.33,-492.38"/>
</g>
<!-- ConjoinWorkspaces&#45;&gt;isGroupWsNotConjoined -->
<g id="edge7" class="edge">
<title>ConjoinWorkspaces&#45;&gt;isGroupWsNotConjoined</title>
<path fill="none" stroke="black" d="M230.19,-328.27C234.18,-333.56 237.91,-339.68 240,-346 242.09,-352.33 241.81,-354.58 240,-361 238.38,-366.72 236.16,-372.42 233.56,-377.98"/>
<polygon fill="black" stroke="black" points="230.31,-376.65 228.88,-387.14 236.54,-379.83 230.31,-376.65"/>
</g>
<!-- MatchSpectra&#45;&gt;CropWorkspaceRagged -->
<g id="edge11" class="edge">
<title>MatchSpectra&#45;&gt;CropWorkspaceRagged</title>
<path fill="none" stroke="black" d="M502.26,-291.99C518.06,-282.49 537.93,-270.54 554.95,-260.29"/>
<polygon fill="black" stroke="black" points="556.79,-263.27 563.56,-255.11 553.18,-257.27 556.79,-263.27"/>
</g>
<!-- Rebin2 -->
<g id="node13" class="node">
<title>Rebin2</title>
<path fill="lightskyblue" stroke="black" d="M619,-182C619,-182 565,-182 565,-182 559,-182 553,-176 553,-170 553,-170 553,-158 553,-158 553,-152 559,-146 565,-146 565,-146 619,-146 619,-146 625,-146 631,-152 631,-158 631,-158 631,-170 631,-170 631,-176 625,-182 619,-182"/>
<text text-anchor="middle" x="592" y="-160.3" font-family="Helvetica,sans-Serif" font-size="14.00">Rebin v1</text>
</g>
<!-- CropWorkspaceRagged&#45;&gt;Rebin2 -->
<g id="edge14" class="edge">
<title>CropWorkspaceRagged&#45;&gt;Rebin2</title>
<path fill="none" stroke="black" d="M592,-218.81C592,-210.79 592,-201.05 592,-192.07"/>
<polygon fill="black" stroke="black" points="595.5,-192.03 592,-182.03 588.5,-192.03 595.5,-192.03"/>
</g>
<!-- SumSpectra -->
<g id="node14" class="node">
<title>SumSpectra</title>
<path fill="lightskyblue" stroke="black" d="M641.5,-109C641.5,-109 542.5,-109 542.5,-109 536.5,-109 530.5,-103 530.5,-97 530.5,-97 530.5,-85 530.5,-85 530.5,-79 536.5,-73 542.5,-73 542.5,-73 641.5,-73 641.5,-73 647.5,-73 653.5,-79 653.5,-85 653.5,-85 653.5,-97 653.5,-97 653.5,-103 647.5,-109 641.5,-109"/>
<text text-anchor="middle" x="592" y="-87.3" font-family="Helvetica,sans-Serif" font-size="14.00">SumSpectra v1</text>
</g>
<!-- Rebin2&#45;&gt;SumSpectra -->
<g id="edge15" class="edge">
<title>Rebin2&#45;&gt;SumSpectra</title>
<path fill="none" stroke="black" d="M592,-145.81C592,-137.79 592,-128.05 592,-119.07"/>
<polygon fill="black" stroke="black" points="595.5,-119.03 592,-109.03 588.5,-119.03 595.5,-119.03"/>
</g>
<!-- SumSpectra&#45;&gt;outputWorkspace -->
<g id="edge16" class="edge">
<title>SumSpectra&#45;&gt;outputWorkspace</title>
<path fill="none" stroke="black" d="M592,-72.81C592,-64.79 592,-55.05 592,-46.07"/>
<polygon fill="black" stroke="black" points="595.5,-46.03 592,-36.03 588.5,-46.03 595.5,-46.03"/>
</g>
<!-- findLargestRange&#45;&gt;matchSpectraIndex -->
<g id="edge3" class="edge">
<title>findLargestRange&#45;&gt;matchSpectraIndex</title>
<path fill="none" stroke="black" d="M353.59,-629.88C365.41,-608.77 385.62,-572.69 399.38,-548.11"/>
<polygon fill="black" stroke="black" points="402.47,-549.75 404.3,-539.31 396.36,-546.33 402.47,-549.75"/>
</g>
<!-- findLargestRange&#45;&gt;Rebin1 -->
<g id="edge2" class="edge">
<title>findLargestRange&#45;&gt;Rebin1</title>
<path fill="none" stroke="black" d="M327.3,-629.81C318.74,-621 308.16,-610.13 298.77,-600.46"/>
<polygon fill="black" stroke="black" points="301.03,-597.76 291.55,-593.03 296.01,-602.64 301.03,-597.76"/>
</g>
</g>
</svg>
