<?xml version="1.0" encoding="UTF-8" standalone="no"?>
<!DOCTYPE svg PUBLIC "-//W3C//DTD SVG 1.1//EN"
 "http://www.w3.org/Graphics/SVG/1.1/DTD/svg11.dtd">
<!-- Generated by graphviz version 3.0.0 (20220315.2325)
 -->
<!-- Title: MolDyn Pages: 1 -->
<svg width="1036pt" height="648pt"
 viewBox="0.00 0.00 1036.34 648.00" xmlns="http://www.w3.org/2000/svg" xmlns:xlink="http://www.w3.org/1999/xlink">
<g id="graph0" class="graph" transform="scale(1 1) rotate(0) translate(4 644)">
<title>MolDyn</title>
<polygon fill="white" stroke="transparent" points="-4,4 -4,-644 1032.34,-644 1032.34,4 -4,4"/>
<text text-anchor="middle" x="514.17" y="-624.8" font-family="Helvetica,sans-Serif" font-size="14.00">MolDyn Flowchart</text>
<!-- Version -->
<g id="node1" class="node">
<title>Version</title>
<polygon fill="limegreen" stroke="black" points="169.29,-544 48.97,-526 169.29,-508 289.61,-526 169.29,-544"/>
<text text-anchor="middle" x="169.29" y="-522.3" font-family="Helvetica,sans-Serif" font-size="14.00">nMoldyn version</text>
</g>
<!-- LoadNMoldyn3Ascii -->
<g id="node13" class="node">
<title>LoadNMoldyn3Ascii</title>
<path fill="lightskyblue" stroke="black" d="M249.29,-457C249.29,-457 121.29,-457 121.29,-457 115.29,-457 109.29,-451 109.29,-445 109.29,-445 109.29,-433 109.29,-433 109.29,-427 115.29,-421 121.29,-421 121.29,-421 249.29,-421 249.29,-421 255.29,-421 261.29,-427 261.29,-433 261.29,-433 261.29,-445 261.29,-445 261.29,-451 255.29,-457 249.29,-457"/>
<text text-anchor="middle" x="185.29" y="-435.3" font-family="Helvetica,sans-Serif" font-size="14.00">LoadNMoldyn3Ascii</text>
</g>
<!-- Version&#45;&gt;LoadNMoldyn3Ascii -->
<g id="edge3" class="edge">
<title>Version&#45;&gt;LoadNMoldyn3Ascii</title>
<path fill="none" stroke="black" d="M172.45,-508.21C174.65,-496.52 177.63,-480.69 180.17,-467.22"/>
<polygon fill="black" stroke="black" points="183.67,-467.52 182.08,-457.05 176.79,-466.23 183.67,-467.52"/>
<text text-anchor="middle" x="183.29" y="-478.8" font-family="Helvetica,sans-Serif" font-size="14.00">3</text>
</g>
<!-- LoadNMoldyn4Ascii -->
<g id="node14" class="node">
<title>LoadNMoldyn4Ascii</title>
<path fill="lightskyblue" stroke="black" d="M419.29,-457C419.29,-457 291.29,-457 291.29,-457 285.29,-457 279.29,-451 279.29,-445 279.29,-445 279.29,-433 279.29,-433 279.29,-427 285.29,-421 291.29,-421 291.29,-421 419.29,-421 419.29,-421 425.29,-421 431.29,-427 431.29,-433 431.29,-433 431.29,-445 431.29,-445 431.29,-451 425.29,-457 419.29,-457"/>
<text text-anchor="middle" x="355.29" y="-435.3" font-family="Helvetica,sans-Serif" font-size="14.00">LoadNMoldyn4Ascii</text>
</g>
<!-- Version&#45;&gt;LoadNMoldyn4Ascii -->
<g id="edge5" class="edge">
<title>Version&#45;&gt;LoadNMoldyn4Ascii</title>
<path fill="none" stroke="black" d="M197.54,-512.09C226.9,-498.68 273.34,-477.45 308.24,-461.5"/>
<polygon fill="black" stroke="black" points="310.12,-464.49 317.76,-457.15 307.21,-458.13 310.12,-464.49"/>
<text text-anchor="middle" x="279.29" y="-478.8" font-family="Helvetica,sans-Serif" font-size="14.00">4</text>
</g>
<!-- IfSave -->
<g id="node2" class="node">
<title>IfSave</title>
<polygon fill="limegreen" stroke="black" points="256.29,-283 203.17,-265 256.29,-247 309.41,-265 256.29,-283"/>
<text text-anchor="middle" x="256.29" y="-261.3" font-family="Helvetica,sans-Serif" font-size="14.00">Save?</text>
</g>
<!-- SaveNexus -->
<g id="node15" class="node">
<title>SaveNexus</title>
<path fill="lightskyblue" stroke="black" d="M291.29,-196C291.29,-196 221.29,-196 221.29,-196 215.29,-196 209.29,-190 209.29,-184 209.29,-184 209.29,-172 209.29,-172 209.29,-166 215.29,-160 221.29,-160 221.29,-160 291.29,-160 291.29,-160 297.29,-160 303.29,-166 303.29,-172 303.29,-172 303.29,-184 303.29,-184 303.29,-190 297.29,-196 291.29,-196"/>
<text text-anchor="middle" x="256.29" y="-174.3" font-family="Helvetica,sans-Serif" font-size="14.00">SaveNexus</text>
</g>
<!-- IfSave&#45;&gt;SaveNexus -->
<g id="edge10" class="edge">
<title>IfSave&#45;&gt;SaveNexus</title>
<path fill="none" stroke="black" d="M256.29,-246.8C256.29,-235.16 256.29,-219.55 256.29,-206.24"/>
<polygon fill="black" stroke="black" points="259.79,-206.18 256.29,-196.18 252.79,-206.18 259.79,-206.18"/>
<text text-anchor="middle" x="267.79" y="-217.8" font-family="Helvetica,sans-Serif" font-size="14.00">Yes</text>
</g>
<!-- IsWorkspaceInEnergy -->
<g id="node3" class="node">
<title>IsWorkspaceInEnergy</title>
<polygon fill="limegreen" stroke="black" points="858.29,-544 688.2,-526 858.29,-508 1028.38,-526 858.29,-544"/>
<text text-anchor="middle" x="858.29" y="-522.3" font-family="Helvetica,sans-Serif" font-size="14.00">Is workspace in energy?</text>
</g>
<!-- IfSymmetrise -->
<g id="node4" class="node">
<title>IfSymmetrise</title>
<polygon fill="limegreen" stroke="black" points="729.29,-457 585.18,-439 729.29,-421 873.41,-439 729.29,-457"/>
<text text-anchor="middle" x="729.29" y="-435.3" font-family="Helvetica,sans-Serif" font-size="14.00">SymmetriseEnergy?</text>
</g>
<!-- IsWorkspaceInEnergy&#45;&gt;IfSymmetrise -->
<g id="edge12" class="edge">
<title>IsWorkspaceInEnergy&#45;&gt;IfSymmetrise</title>
<path fill="none" stroke="black" d="M835.82,-510.19C814.7,-496.28 782.92,-475.34 759.57,-459.95"/>
<polygon fill="black" stroke="black" points="761.35,-456.93 751.07,-454.35 757.5,-462.78 761.35,-456.93"/>
<text text-anchor="middle" x="813.79" y="-478.8" font-family="Helvetica,sans-Serif" font-size="14.00">Yes</text>
</g>
<!-- ProcessEnergyWorkspaces_End -->
<g id="node20" class="node">
<title>ProcessEnergyWorkspaces_End</title>
<ellipse fill="lightgrey" stroke="black" cx="708.29" cy="-18" rx="28.7" ry="18"/>
<text text-anchor="middle" x="708.29" y="-14.3" font-family="Helvetica,sans-Serif" font-size="14.00">End</text>
</g>
<!-- IsWorkspaceInEnergy&#45;&gt;ProcessEnergyWorkspaces_End -->
<g id="edge25" class="edge">
<title>IsWorkspaceInEnergy&#45;&gt;ProcessEnergyWorkspaces_End</title>
<path fill="none" stroke="black" d="M871.9,-509.27C884.49,-493.05 901.29,-466.46 901.29,-440 901.29,-440 901.29,-440 901.29,-90 901.29,-57.23 802.05,-34.95 745.89,-24.96"/>
<polygon fill="black" stroke="black" points="746.39,-21.5 735.94,-23.24 745.2,-28.4 746.39,-21.5"/>
<text text-anchor="middle" x="910.79" y="-261.3" font-family="Helvetica,sans-Serif" font-size="14.00">No</text>
</g>
<!-- IfCrop -->
<g id="node5" class="node">
<title>IfCrop</title>
<polygon fill="limegreen" stroke="black" points="742.29,-370 611.75,-352 742.29,-334 872.83,-352 742.29,-370"/>
<text text-anchor="middle" x="742.29" y="-348.3" font-family="Helvetica,sans-Serif" font-size="14.00">Have MaxEnergy?</text>
</g>
<!-- IfSymmetrise&#45;&gt;IfCrop -->
<g id="edge16" class="edge">
<title>IfSymmetrise&#45;&gt;IfCrop</title>
<path fill="none" stroke="black" d="M731.86,-421.21C733.66,-409.45 736.1,-393.48 738.17,-379.96"/>
<polygon fill="black" stroke="black" points="741.68,-380.17 739.73,-369.76 734.76,-379.11 741.68,-380.17"/>
<text text-anchor="middle" x="746.79" y="-391.8" font-family="Helvetica,sans-Serif" font-size="14.00">No</text>
</g>
<!-- Symmetrise -->
<g id="node16" class="node">
<title>Symmetrise</title>
<path fill="lightskyblue" stroke="black" d="M555.29,-283C555.29,-283 479.29,-283 479.29,-283 473.29,-283 467.29,-277 467.29,-271 467.29,-271 467.29,-259 467.29,-259 467.29,-253 473.29,-247 479.29,-247 479.29,-247 555.29,-247 555.29,-247 561.29,-247 567.29,-253 567.29,-259 567.29,-259 567.29,-271 567.29,-271 567.29,-277 561.29,-283 555.29,-283"/>
<text text-anchor="middle" x="517.29" y="-261.3" font-family="Helvetica,sans-Serif" font-size="14.00">Symmetrise</text>
</g>
<!-- IfSymmetrise&#45;&gt;Symmetrise -->
<g id="edge14" class="edge">
<title>IfSymmetrise&#45;&gt;Symmetrise</title>
<path fill="none" stroke="black" d="M651.68,-430.63C574.68,-421.52 464.49,-403.03 438.29,-370 416.4,-342.4 450.19,-309.99 480.13,-288.77"/>
<polygon fill="black" stroke="black" points="482.15,-291.64 488.43,-283.1 478.2,-285.86 482.15,-291.64"/>
<text text-anchor="middle" x="449.79" y="-348.3" font-family="Helvetica,sans-Serif" font-size="14.00">Yes</text>
</g>
<!-- IfConvolve -->
<g id="node6" class="node">
<title>IfConvolve</title>
<polygon fill="limegreen" stroke="black" points="669.29,-196 471.55,-178 669.29,-160 867.03,-178 669.29,-196"/>
<text text-anchor="middle" x="669.29" y="-174.3" font-family="Helvetica,sans-Serif" font-size="14.00">Have Resolution workspace?</text>
</g>
<!-- IfCrop&#45;&gt;IfConvolve -->
<g id="edge20" class="edge">
<title>IfCrop&#45;&gt;IfConvolve</title>
<path fill="none" stroke="black" d="M740.73,-334.11C738.3,-312.96 732.43,-275.97 719.29,-247 712.06,-231.06 700.69,-215.19 690.62,-202.8"/>
<polygon fill="black" stroke="black" points="693.04,-200.23 683.93,-194.82 687.67,-204.73 693.04,-200.23"/>
<text text-anchor="middle" x="741.79" y="-261.3" font-family="Helvetica,sans-Serif" font-size="14.00">No</text>
</g>
<!-- CropWorkspace -->
<g id="node17" class="node">
<title>CropWorkspace</title>
<path fill="lightskyblue" stroke="black" d="M698.79,-283C698.79,-283 597.79,-283 597.79,-283 591.79,-283 585.79,-277 585.79,-271 585.79,-271 585.79,-259 585.79,-259 585.79,-253 591.79,-247 597.79,-247 597.79,-247 698.79,-247 698.79,-247 704.79,-247 710.79,-253 710.79,-259 710.79,-259 710.79,-271 710.79,-271 710.79,-277 704.79,-283 698.79,-283"/>
<text text-anchor="middle" x="648.29" y="-261.3" font-family="Helvetica,sans-Serif" font-size="14.00">CropWorkspace</text>
</g>
<!-- IfCrop&#45;&gt;CropWorkspace -->
<g id="edge18" class="edge">
<title>IfCrop&#45;&gt;CropWorkspace</title>
<path fill="none" stroke="black" d="M725.92,-336.19C711.91,-323.52 691.46,-305.03 675.07,-290.21"/>
<polygon fill="black" stroke="black" points="677.16,-287.38 667.39,-283.27 672.46,-292.57 677.16,-287.38"/>
<text text-anchor="middle" x="712.79" y="-304.8" font-family="Helvetica,sans-Serif" font-size="14.00">Yes</text>
</g>
<!-- ConvolveWorkspaces -->
<g id="node18" class="node">
<title>ConvolveWorkspaces</title>
<path fill="lightskyblue" stroke="black" d="M660.29,-109C660.29,-109 520.29,-109 520.29,-109 514.29,-109 508.29,-103 508.29,-97 508.29,-97 508.29,-85 508.29,-85 508.29,-79 514.29,-73 520.29,-73 520.29,-73 660.29,-73 660.29,-73 666.29,-73 672.29,-79 672.29,-85 672.29,-85 672.29,-97 672.29,-97 672.29,-103 666.29,-109 660.29,-109"/>
<text text-anchor="middle" x="590.29" y="-87.3" font-family="Helvetica,sans-Serif" font-size="14.00">ConvolveWorkspaces</text>
</g>
<!-- IfConvolve&#45;&gt;ConvolveWorkspaces -->
<g id="edge21" class="edge">
<title>IfConvolve&#45;&gt;ConvolveWorkspaces</title>
<path fill="none" stroke="black" d="M654.43,-161.01C642.82,-148.51 626.47,-130.92 613.18,-116.63"/>
<polygon fill="black" stroke="black" points="615.54,-114.02 606.17,-109.08 610.41,-118.79 615.54,-114.02"/>
<text text-anchor="middle" x="646.79" y="-130.8" font-family="Helvetica,sans-Serif" font-size="14.00">Yes</text>
</g>
<!-- IfConvolve&#45;&gt;ProcessEnergyWorkspaces_End -->
<g id="edge24" class="edge">
<title>IfConvolve&#45;&gt;ProcessEnergyWorkspaces_End</title>
<path fill="none" stroke="black" d="M673.47,-160.09C680.2,-132.79 693.54,-78.78 701.61,-46.07"/>
<polygon fill="black" stroke="black" points="705.03,-46.81 704.03,-36.27 698.24,-45.14 705.03,-46.81"/>
<text text-anchor="middle" x="704.79" y="-87.3" font-family="Helvetica,sans-Serif" font-size="14.00">No</text>
</g>
<!-- ProcessEnergyWorkspaces -->
<g id="node7" class="node">
<title>ProcessEnergyWorkspaces</title>
<polygon fill="lightseagreen" stroke="black" points="322.79,-370 113.79,-370 113.79,-334 322.79,-334 322.79,-370"/>
<text text-anchor="middle" x="218.29" y="-348.3" font-family="Helvetica,sans-Serif" font-size="14.00">Process energy workspaces</text>
</g>
<!-- ProcessEnergyWorkspaces&#45;&gt;IfSave -->
<g id="edge9" class="edge">
<title>ProcessEnergyWorkspaces&#45;&gt;IfSave</title>
<path fill="none" stroke="black" d="M225.98,-333.8C231.57,-321.31 239.2,-304.23 245.41,-290.34"/>
<polygon fill="black" stroke="black" points="248.74,-291.46 249.63,-280.9 242.35,-288.6 248.74,-291.46"/>
</g>
<!-- OutputWorkspace -->
<g id="node12" class="node">
<title>OutputWorkspace</title>
<ellipse fill="khaki" stroke="black" cx="92.29" cy="-265" rx="92.08" ry="18"/>
<text text-anchor="middle" x="92.29" y="-261.3" font-family="Helvetica,sans-Serif" font-size="14.00">OutputWorkspace</text>
</g>
<!-- ProcessEnergyWorkspaces&#45;&gt;OutputWorkspace -->
<g id="edge8" class="edge">
<title>ProcessEnergyWorkspaces&#45;&gt;OutputWorkspace</title>
<path fill="none" stroke="black" d="M192.79,-333.8C173.33,-320.67 146.35,-302.47 125.25,-288.23"/>
<polygon fill="black" stroke="black" points="127.14,-285.29 116.89,-282.6 123.23,-291.09 127.14,-285.29"/>
</g>
<!-- Data -->
<g id="node8" class="node">
<title>Data</title>
<ellipse fill="khaki" stroke="black" cx="169.29" cy="-599" rx="31.7" ry="18"/>
<text text-anchor="middle" x="169.29" y="-595.3" font-family="Helvetica,sans-Serif" font-size="14.00">Data</text>
</g>
<!-- Data&#45;&gt;Version -->
<g id="edge1" class="edge">
<title>Data&#45;&gt;Version</title>
<path fill="none" stroke="black" d="M169.29,-580.81C169.29,-572.79 169.29,-563.05 169.29,-554.07"/>
<polygon fill="black" stroke="black" points="172.79,-554.03 169.29,-544.03 165.79,-554.03 172.79,-554.03"/>
</g>
<!-- Functions -->
<g id="node9" class="node">
<title>Functions</title>
<ellipse fill="khaki" stroke="black" cx="361.29" cy="-526" rx="53.89" ry="18"/>
<text text-anchor="middle" x="361.29" y="-522.3" font-family="Helvetica,sans-Serif" font-size="14.00">Functions</text>
</g>
<!-- Functions&#45;&gt;LoadNMoldyn3Ascii -->
<g id="edge2" class="edge">
<title>Functions&#45;&gt;LoadNMoldyn3Ascii</title>
<path fill="none" stroke="black" d="M331.83,-510.77C303.96,-497.31 261.73,-476.92 229.76,-461.48"/>
<polygon fill="black" stroke="black" points="231.14,-458.26 220.61,-457.06 228.1,-464.56 231.14,-458.26"/>
</g>
<!-- Functions&#45;&gt;LoadNMoldyn4Ascii -->
<g id="edge4" class="edge">
<title>Functions&#45;&gt;LoadNMoldyn4Ascii</title>
<path fill="none" stroke="black" d="M360.08,-507.8C359.26,-496.16 358.15,-480.55 357.21,-467.24"/>
<polygon fill="black" stroke="black" points="360.7,-466.9 356.5,-457.18 353.72,-467.4 360.7,-466.9"/>
</g>
<!-- Resolution -->
<g id="node10" class="node">
<title>Resolution</title>
<ellipse fill="khaki" stroke="black" cx="396.29" cy="-178" rx="57.69" ry="18"/>
<text text-anchor="middle" x="396.29" y="-174.3" font-family="Helvetica,sans-Serif" font-size="14.00">Resolution</text>
</g>
<!-- Resolution&#45;&gt;ConvolveWorkspaces -->
<g id="edge22" class="edge">
<title>Resolution&#45;&gt;ConvolveWorkspaces</title>
<path fill="none" stroke="black" d="M428.33,-162.96C459.25,-149.42 506.47,-128.73 541.96,-113.18"/>
<polygon fill="black" stroke="black" points="543.42,-116.36 551.18,-109.14 540.61,-109.95 543.42,-116.36"/>
</g>
<!-- MaxEnergy -->
<g id="node11" class="node">
<title>MaxEnergy</title>
<ellipse fill="khaki" stroke="black" cx="532.29" cy="-352" rx="61.99" ry="18"/>
<text text-anchor="middle" x="532.29" y="-348.3" font-family="Helvetica,sans-Serif" font-size="14.00">MaxEnergy</text>
</g>
<!-- MaxEnergy&#45;&gt;Symmetrise -->
<g id="edge13" class="edge">
<title>MaxEnergy&#45;&gt;Symmetrise</title>
<path fill="none" stroke="black" d="M529.26,-333.8C527.2,-322.16 524.45,-306.55 522.1,-293.24"/>
<polygon fill="black" stroke="black" points="525.51,-292.41 520.32,-283.18 518.61,-293.63 525.51,-292.41"/>
</g>
<!-- MaxEnergy&#45;&gt;CropWorkspace -->
<g id="edge17" class="edge">
<title>MaxEnergy&#45;&gt;CropWorkspace</title>
<path fill="none" stroke="black" d="M554.11,-335.01C571.8,-322.05 596.96,-303.61 616.83,-289.06"/>
<polygon fill="black" stroke="black" points="618.98,-291.82 624.98,-283.08 614.84,-286.17 618.98,-291.82"/>
</g>
<!-- LoadNMoldyn3Ascii&#45;&gt;ProcessEnergyWorkspaces -->
<g id="edge6" class="edge">
<title>LoadNMoldyn3Ascii&#45;&gt;ProcessEnergyWorkspaces</title>
<path fill="none" stroke="black" d="M191.97,-420.8C196.53,-409.05 202.67,-393.24 207.87,-379.84"/>
<polygon fill="black" stroke="black" points="211.27,-380.76 211.62,-370.18 204.74,-378.23 211.27,-380.76"/>
</g>
<!-- LoadNMoldyn4Ascii&#45;&gt;ProcessEnergyWorkspaces -->
<g id="edge7" class="edge">
<title>LoadNMoldyn4Ascii&#45;&gt;ProcessEnergyWorkspaces</title>
<path fill="none" stroke="black" d="M327.57,-420.8C306.58,-407.78 277.57,-389.78 254.72,-375.6"/>
<polygon fill="black" stroke="black" points="256.32,-372.47 245.97,-370.18 252.63,-378.42 256.32,-372.47"/>
</g>
<!-- Symmetrise&#45;&gt;IfConvolve -->
<g id="edge15" class="edge">
<title>Symmetrise&#45;&gt;IfConvolve</title>
<path fill="none" stroke="black" d="M548.05,-246.8C573.04,-232.83 608.28,-213.12 634.34,-198.55"/>
<polygon fill="black" stroke="black" points="636.12,-201.56 643.14,-193.63 632.7,-195.45 636.12,-201.56"/>
</g>
<!-- CropWorkspace&#45;&gt;IfConvolve -->
<g id="edge19" class="edge">
<title>CropWorkspace&#45;&gt;IfConvolve</title>
<path fill="none" stroke="black" d="M652.54,-246.8C655.44,-235.09 659.32,-219.34 662.63,-205.97"/>
<polygon fill="black" stroke="black" points="666.12,-206.43 665.12,-195.89 659.32,-204.75 666.12,-206.43"/>
</g>
<!-- ConvolveWorkspaces&#45;&gt;ProcessEnergyWorkspaces_End -->
<g id="edge23" class="edge">
<title>ConvolveWorkspaces&#45;&gt;ProcessEnergyWorkspaces_End</title>
<path fill="none" stroke="black" d="M618.56,-72.99C637.07,-61.85 661.19,-47.34 679.76,-36.17"/>
<polygon fill="black" stroke="black" points="681.62,-39.13 688.38,-30.98 678.01,-33.14 681.62,-39.13"/>
</g>
<!-- ProcessEnergyWorkspaces_Start -->
<g id="node19" class="node">
<title>ProcessEnergyWorkspaces_Start</title>
<ellipse fill="lightgrey" stroke="black" cx="858.29" cy="-599" rx="135.68" ry="18"/>
<text text-anchor="middle" x="858.29" y="-595.3" font-family="Helvetica,sans-Serif" font-size="14.00">Process energy workspaces</text>
</g>
<!-- ProcessEnergyWorkspaces_Start&#45;&gt;IsWorkspaceInEnergy -->
<g id="edge11" class="edge">
<title>ProcessEnergyWorkspaces_Start&#45;&gt;IsWorkspaceInEnergy</title>
<path fill="none" stroke="black" d="M858.29,-580.81C858.29,-572.79 858.29,-563.05 858.29,-554.07"/>
<polygon fill="black" stroke="black" points="861.79,-554.03 858.29,-544.03 854.79,-554.03 861.79,-554.03"/>
</g>
</g>
</svg>
