<?xml version="1.0" encoding="UTF-8" standalone="no"?>
<!DOCTYPE svg PUBLIC "-//W3C//DTD SVG 1.1//EN"
 "http://www.w3.org/Graphics/SVG/1.1/DTD/svg11.dtd">
<!-- Generated by graphviz version 2.47.2 (20210527.1257)
 -->
<!-- Title: MolDyn Pages: 1 -->
<svg width="933pt" height="648pt"
 viewBox="0.00 0.00 933.15 648.00" xmlns="http://www.w3.org/2000/svg" xmlns:xlink="http://www.w3.org/1999/xlink">
<g id="graph0" class="graph" transform="scale(1 1) rotate(0) translate(4 644)">
<title>MolDyn</title>
<polygon fill="white" stroke="transparent" points="-4,4 -4,-644 929.15,-644 929.15,4 -4,4"/>
<text text-anchor="middle" x="462.57" y="-624.8" font-family="Helvetica" font-size="14.00">MolDyn Flowchart</text>
<!-- Version -->
<g id="node1" class="node">
<title>Version</title>
<polygon fill="limegreen" stroke="black" points="172.24,-544 65.5,-526 172.24,-508 278.99,-526 172.24,-544"/>
<text text-anchor="middle" x="172.24" y="-522.3" font-family="Helvetica" font-size="14.00">nMoldyn version</text>
</g>
<!-- LoadNMoldyn3Ascii -->
<g id="node13" class="node">
<title>LoadNMoldyn3Ascii</title>
<path fill="lightskyblue" stroke="black" d="M241.74,-457C241.74,-457 128.74,-457 128.74,-457 122.74,-457 116.74,-451 116.74,-445 116.74,-445 116.74,-433 116.74,-433 116.74,-427 122.74,-421 128.74,-421 128.74,-421 241.74,-421 241.74,-421 247.74,-421 253.74,-427 253.74,-433 253.74,-433 253.74,-445 253.74,-445 253.74,-451 247.74,-457 241.74,-457"/>
<text text-anchor="middle" x="185.24" y="-435.3" font-family="Helvetica" font-size="14.00">LoadNMoldyn3Ascii</text>
</g>
<!-- Version&#45;&gt;LoadNMoldyn3Ascii -->
<g id="edge3" class="edge">
<title>Version&#45;&gt;LoadNMoldyn3Ascii</title>
<path fill="none" stroke="black" d="M174.81,-508.21C176.6,-496.52 179.02,-480.69 181.08,-467.22"/>
<polygon fill="black" stroke="black" points="184.58,-467.46 182.64,-457.05 177.66,-466.41 184.58,-467.46"/>
<text text-anchor="middle" x="184.24" y="-478.8" font-family="Helvetica" font-size="14.00">3</text>
</g>
<!-- LoadNMoldyn4Ascii -->
<g id="node14" class="node">
<title>LoadNMoldyn4Ascii</title>
<path fill="lightskyblue" stroke="black" d="M396.74,-457C396.74,-457 283.74,-457 283.74,-457 277.74,-457 271.74,-451 271.74,-445 271.74,-445 271.74,-433 271.74,-433 271.74,-427 277.74,-421 283.74,-421 283.74,-421 396.74,-421 396.74,-421 402.74,-421 408.74,-427 408.74,-433 408.74,-433 408.74,-445 408.74,-445 408.74,-451 402.74,-457 396.74,-457"/>
<text text-anchor="middle" x="340.24" y="-435.3" font-family="Helvetica" font-size="14.00">LoadNMoldyn4Ascii</text>
</g>
<!-- Version&#45;&gt;LoadNMoldyn4Ascii -->
<g id="edge5" class="edge">
<title>Version&#45;&gt;LoadNMoldyn4Ascii</title>
<path fill="none" stroke="black" d="M197.76,-512.09C224.16,-498.73 265.86,-477.63 297.34,-461.71"/>
<polygon fill="black" stroke="black" points="299,-464.79 306.34,-457.15 295.84,-458.54 299,-464.79"/>
<text text-anchor="middle" x="271.24" y="-478.8" font-family="Helvetica" font-size="14.00">4</text>
</g>
<!-- IfSave -->
<g id="node2" class="node">
<title>IfSave</title>
<polygon fill="limegreen" stroke="black" points="231.24,-283 180.64,-265 231.24,-247 281.85,-265 231.24,-283"/>
<text text-anchor="middle" x="231.24" y="-261.3" font-family="Helvetica" font-size="14.00">Save?</text>
</g>
<!-- SaveNexus -->
<g id="node15" class="node">
<title>SaveNexus</title>
<path fill="lightskyblue" stroke="black" d="M262.24,-196C262.24,-196 200.24,-196 200.24,-196 194.24,-196 188.24,-190 188.24,-184 188.24,-184 188.24,-172 188.24,-172 188.24,-166 194.24,-160 200.24,-160 200.24,-160 262.24,-160 262.24,-160 268.24,-160 274.24,-166 274.24,-172 274.24,-172 274.24,-184 274.24,-184 274.24,-190 268.24,-196 262.24,-196"/>
<text text-anchor="middle" x="231.24" y="-174.3" font-family="Helvetica" font-size="14.00">SaveNexus</text>
</g>
<!-- IfSave&#45;&gt;SaveNexus -->
<g id="edge10" class="edge">
<title>IfSave&#45;&gt;SaveNexus</title>
<path fill="none" stroke="black" d="M231.24,-246.8C231.24,-235.16 231.24,-219.55 231.24,-206.24"/>
<polygon fill="black" stroke="black" points="234.74,-206.18 231.24,-196.18 227.74,-206.18 234.74,-206.18"/>
<text text-anchor="middle" x="242.74" y="-217.8" font-family="Helvetica" font-size="14.00">Yes</text>
</g>
<!-- IsWorkspaceInEnergy -->
<g id="node3" class="node">
<title>IsWorkspaceInEnergy</title>
<polygon fill="limegreen" stroke="black" points="776.24,-544 627.44,-526 776.24,-508 925.05,-526 776.24,-544"/>
<text text-anchor="middle" x="776.24" y="-522.3" font-family="Helvetica" font-size="14.00">Is workspace in energy?</text>
</g>
<!-- IfSymmetrise -->
<g id="node4" class="node">
<title>IfSymmetrise</title>
<polygon fill="limegreen" stroke="black" points="659.24,-457 530.38,-439 659.24,-421 788.11,-439 659.24,-457"/>
<text text-anchor="middle" x="659.24" y="-435.3" font-family="Helvetica" font-size="14.00">SymmetriseEnergy?</text>
</g>
<!-- IsWorkspaceInEnergy&#45;&gt;IfSymmetrise -->
<g id="edge12" class="edge">
<title>IsWorkspaceInEnergy&#45;&gt;IfSymmetrise</title>
<path fill="none" stroke="black" d="M756.13,-510.39C737.18,-496.62 708.61,-475.86 687.4,-460.45"/>
<polygon fill="black" stroke="black" points="689.24,-457.47 679.09,-454.42 685.13,-463.13 689.24,-457.47"/>
<text text-anchor="middle" x="736.74" y="-478.8" font-family="Helvetica" font-size="14.00">Yes</text>
</g>
<!-- ProcessEnergyWorkspaces_End -->
<g id="node20" class="node">
<title>ProcessEnergyWorkspaces_End</title>
<ellipse fill="lightgrey" stroke="black" cx="642.24" cy="-18" rx="27" ry="18"/>
<text text-anchor="middle" x="642.24" y="-14.3" font-family="Helvetica" font-size="14.00">End</text>
</g>
<!-- IsWorkspaceInEnergy&#45;&gt;ProcessEnergyWorkspaces_End -->
<g id="edge25" class="edge">
<title>IsWorkspaceInEnergy&#45;&gt;ProcessEnergyWorkspaces_End</title>
<path fill="none" stroke="black" d="M788.68,-509.42C800.42,-493.11 816.24,-466.26 816.24,-440 816.24,-440 816.24,-440 816.24,-90 816.24,-31.39 730.58,-20.08 679.46,-18.54"/>
<polygon fill="black" stroke="black" points="679.5,-15.04 669.43,-18.35 679.36,-22.04 679.5,-15.04"/>
<text text-anchor="middle" x="825.24" y="-261.3" font-family="Helvetica" font-size="14.00">No</text>
</g>
<!-- IfCrop -->
<g id="node5" class="node">
<title>IfCrop</title>
<polygon fill="limegreen" stroke="black" points="670.24,-370 552.44,-352 670.24,-334 788.05,-352 670.24,-370"/>
<text text-anchor="middle" x="670.24" y="-348.3" font-family="Helvetica" font-size="14.00">Have MaxEnergy?</text>
</g>
<!-- IfSymmetrise&#45;&gt;IfCrop -->
<g id="edge16" class="edge">
<title>IfSymmetrise&#45;&gt;IfCrop</title>
<path fill="none" stroke="black" d="M661.42,-421.21C662.94,-409.45 665,-393.48 666.75,-379.96"/>
<polygon fill="black" stroke="black" points="670.26,-380.12 668.07,-369.76 663.32,-379.23 670.26,-380.12"/>
<text text-anchor="middle" x="675.24" y="-391.8" font-family="Helvetica" font-size="14.00">No</text>
</g>
<!-- Symmetrise -->
<g id="node16" class="node">
<title>Symmetrise</title>
<path fill="lightskyblue" stroke="black" d="M495.74,-283C495.74,-283 430.74,-283 430.74,-283 424.74,-283 418.74,-277 418.74,-271 418.74,-271 418.74,-259 418.74,-259 418.74,-253 424.74,-247 430.74,-247 430.74,-247 495.74,-247 495.74,-247 501.74,-247 507.74,-253 507.74,-259 507.74,-259 507.74,-271 507.74,-271 507.74,-277 501.74,-283 495.74,-283"/>
<text text-anchor="middle" x="463.24" y="-261.3" font-family="Helvetica" font-size="14.00">Symmetrise</text>
</g>
<!-- IfSymmetrise&#45;&gt;Symmetrise -->
<g id="edge14" class="edge">
<title>IfSymmetrise&#45;&gt;Symmetrise</title>
<path fill="none" stroke="black" d="M591.99,-430.39C520.62,-420.77 414.81,-401.55 390.24,-370 369.21,-342.99 400.5,-310.51 428.41,-289.12"/>
<polygon fill="black" stroke="black" points="430.56,-291.88 436.52,-283.12 426.4,-286.25 430.56,-291.88"/>
<text text-anchor="middle" x="401.74" y="-348.3" font-family="Helvetica" font-size="14.00">Yes</text>
</g>
<!-- IfConvolve -->
<g id="node6" class="node">
<title>IfConvolve</title>
<polygon fill="limegreen" stroke="black" points="605.24,-196 429.62,-178 605.24,-160 780.86,-178 605.24,-196"/>
<text text-anchor="middle" x="605.24" y="-174.3" font-family="Helvetica" font-size="14.00">Have Resolution workspace?</text>
</g>
<!-- IfCrop&#45;&gt;IfConvolve -->
<g id="edge20" class="edge">
<title>IfCrop&#45;&gt;IfConvolve</title>
<path fill="none" stroke="black" d="M666.58,-334.33C664.45,-324.61 661.7,-312.11 659.24,-301 653.93,-276.99 656.5,-269.78 647.24,-247 641.02,-231.69 631.5,-215.91 623.09,-203.41"/>
<polygon fill="black" stroke="black" points="625.8,-201.17 617.23,-194.94 620.04,-205.15 625.8,-201.17"/>
<text text-anchor="middle" x="665.24" y="-261.3" font-family="Helvetica" font-size="14.00">No</text>
</g>
<!-- CropWorkspace -->
<g id="node17" class="node">
<title>CropWorkspace</title>
<path fill="lightskyblue" stroke="black" d="M626.74,-283C626.74,-283 537.74,-283 537.74,-283 531.74,-283 525.74,-277 525.74,-271 525.74,-271 525.74,-259 525.74,-259 525.74,-253 531.74,-247 537.74,-247 537.74,-247 626.74,-247 626.74,-247 632.74,-247 638.74,-253 638.74,-259 638.74,-259 638.74,-271 638.74,-271 638.74,-277 632.74,-283 626.74,-283"/>
<text text-anchor="middle" x="582.24" y="-261.3" font-family="Helvetica" font-size="14.00">CropWorkspace</text>
</g>
<!-- IfCrop&#45;&gt;CropWorkspace -->
<g id="edge18" class="edge">
<title>IfCrop&#45;&gt;CropWorkspace</title>
<path fill="none" stroke="black" d="M654.91,-336.19C641.91,-323.64 623,-305.37 607.73,-290.62"/>
<polygon fill="black" stroke="black" points="609.75,-287.7 600.12,-283.27 604.88,-292.74 609.75,-287.7"/>
<text text-anchor="middle" x="643.74" y="-304.8" font-family="Helvetica" font-size="14.00">Yes</text>
</g>
<!-- ConvolveWorkspaces -->
<g id="node18" class="node">
<title>ConvolveWorkspaces</title>
<path fill="lightskyblue" stroke="black" d="M593.74,-109C593.74,-109 470.74,-109 470.74,-109 464.74,-109 458.74,-103 458.74,-97 458.74,-97 458.74,-85 458.74,-85 458.74,-79 464.74,-73 470.74,-73 470.74,-73 593.74,-73 593.74,-73 599.74,-73 605.74,-79 605.74,-85 605.74,-85 605.74,-97 605.74,-97 605.74,-103 599.74,-109 593.74,-109"/>
<text text-anchor="middle" x="532.24" y="-87.3" font-family="Helvetica" font-size="14.00">ConvolveWorkspaces</text>
</g>
<!-- IfConvolve&#45;&gt;ConvolveWorkspaces -->
<g id="edge21" class="edge">
<title>IfConvolve&#45;&gt;ConvolveWorkspaces</title>
<path fill="none" stroke="black" d="M591.51,-161.01C580.88,-148.63 565.95,-131.25 553.74,-117.03"/>
<polygon fill="black" stroke="black" points="556.08,-114.39 546.91,-109.08 550.77,-118.95 556.08,-114.39"/>
<text text-anchor="middle" x="584.74" y="-130.8" font-family="Helvetica" font-size="14.00">Yes</text>
</g>
<!-- IfConvolve&#45;&gt;ProcessEnergyWorkspaces_End -->
<g id="edge24" class="edge">
<title>IfConvolve&#45;&gt;ProcessEnergyWorkspaces_End</title>
<path fill="none" stroke="black" d="M609.13,-160.39C615.53,-133.08 628.32,-78.46 636,-45.68"/>
<polygon fill="black" stroke="black" points="639.42,-46.4 638.29,-35.86 632.61,-44.8 639.42,-46.4"/>
<text text-anchor="middle" x="639.24" y="-87.3" font-family="Helvetica" font-size="14.00">No</text>
</g>
<!-- ProcessEnergyWorkspaces -->
<g id="node7" class="node">
<title>ProcessEnergyWorkspaces</title>
<polygon fill="lightseagreen" stroke="black" points="315.74,-370 130.74,-370 130.74,-334 315.74,-334 315.74,-370"/>
<text text-anchor="middle" x="223.24" y="-348.3" font-family="Helvetica" font-size="14.00">Process energy workspaces</text>
</g>
<!-- ProcessEnergyWorkspaces&#45;&gt;IfSave -->
<g id="edge9" class="edge">
<title>ProcessEnergyWorkspaces&#45;&gt;IfSave</title>
<path fill="none" stroke="black" d="M224.86,-333.8C225.97,-322.01 227.47,-306.14 228.73,-292.71"/>
<polygon fill="black" stroke="black" points="232.23,-292.88 229.68,-282.6 225.26,-292.22 232.23,-292.88"/>
</g>
<!-- OutputWorkspace -->
<g id="node12" class="node">
<title>OutputWorkspace</title>
<ellipse fill="khaki" stroke="black" cx="81.24" cy="-265" rx="81.49" ry="18"/>
<text text-anchor="middle" x="81.24" y="-261.3" font-family="Helvetica" font-size="14.00">OutputWorkspace</text>
</g>
<!-- ProcessEnergyWorkspaces&#45;&gt;OutputWorkspace -->
<g id="edge8" class="edge">
<title>ProcessEnergyWorkspaces&#45;&gt;OutputWorkspace</title>
<path fill="none" stroke="black" d="M194.51,-333.8C172.09,-320.38 140.83,-301.67 116.82,-287.3"/>
<polygon fill="black" stroke="black" points="118.39,-284.16 108.01,-282.03 114.8,-290.16 118.39,-284.16"/>
</g>
<!-- Data -->
<g id="node8" class="node">
<title>Data</title>
<ellipse fill="khaki" stroke="black" cx="172.24" cy="-599" rx="29.5" ry="18"/>
<text text-anchor="middle" x="172.24" y="-595.3" font-family="Helvetica" font-size="14.00">Data</text>
</g>
<!-- Data&#45;&gt;Version -->
<g id="edge1" class="edge">
<title>Data&#45;&gt;Version</title>
<path fill="none" stroke="black" d="M172.24,-580.81C172.24,-572.79 172.24,-563.05 172.24,-554.07"/>
<polygon fill="black" stroke="black" points="175.74,-554.03 172.24,-544.03 168.74,-554.03 175.74,-554.03"/>
</g>
<!-- Functions -->
<g id="node9" class="node">
<title>Functions</title>
<ellipse fill="khaki" stroke="black" cx="345.24" cy="-526" rx="48.99" ry="18"/>
<text text-anchor="middle" x="345.24" y="-522.3" font-family="Helvetica" font-size="14.00">Functions</text>
</g>
<!-- Functions&#45;&gt;LoadNMoldyn3Ascii -->
<g id="edge2" class="edge">
<title>Functions&#45;&gt;LoadNMoldyn3Ascii</title>
<path fill="none" stroke="black" d="M318.46,-510.77C293.34,-497.42 255.39,-477.27 226.42,-461.87"/>
<polygon fill="black" stroke="black" points="227.83,-458.66 217.35,-457.06 224.54,-464.84 227.83,-458.66"/>
</g>
<!-- Functions&#45;&gt;LoadNMoldyn4Ascii -->
<g id="edge4" class="edge">
<title>Functions&#45;&gt;LoadNMoldyn4Ascii</title>
<path fill="none" stroke="black" d="M344.23,-507.8C343.55,-496.16 342.63,-480.55 341.84,-467.24"/>
<polygon fill="black" stroke="black" points="345.33,-466.95 341.25,-457.18 338.35,-467.36 345.33,-466.95"/>
</g>
<!-- Resolution -->
<g id="node10" class="node">
<title>Resolution</title>
<ellipse fill="khaki" stroke="black" cx="359.24" cy="-178" rx="51.99" ry="18"/>
<text text-anchor="middle" x="359.24" y="-174.3" font-family="Helvetica" font-size="14.00">Resolution</text>
</g>
<!-- Resolution&#45;&gt;ConvolveWorkspaces -->
<g id="edge22" class="edge">
<title>Resolution&#45;&gt;ConvolveWorkspaces</title>
<path fill="none" stroke="black" d="M388.2,-162.77C415.6,-149.31 457.1,-128.92 488.53,-113.48"/>
<polygon fill="black" stroke="black" points="490.09,-116.61 497.52,-109.06 487,-110.33 490.09,-116.61"/>
</g>
<!-- MaxEnergy -->
<g id="node11" class="node">
<title>MaxEnergy</title>
<ellipse fill="khaki" stroke="black" cx="478.24" cy="-352" rx="55.79" ry="18"/>
<text text-anchor="middle" x="478.24" y="-348.3" font-family="Helvetica" font-size="14.00">MaxEnergy</text>
</g>
<!-- MaxEnergy&#45;&gt;Symmetrise -->
<g id="edge13" class="edge">
<title>MaxEnergy&#45;&gt;Symmetrise</title>
<path fill="none" stroke="black" d="M475.21,-333.8C473.15,-322.16 470.4,-306.55 468.05,-293.24"/>
<polygon fill="black" stroke="black" points="471.46,-292.41 466.27,-283.18 464.56,-293.63 471.46,-292.41"/>
</g>
<!-- MaxEnergy&#45;&gt;CropWorkspace -->
<g id="edge17" class="edge">
<title>MaxEnergy&#45;&gt;CropWorkspace</title>
<path fill="none" stroke="black" d="M497.8,-335.01C513.52,-322.17 535.82,-303.94 553.55,-289.45"/>
<polygon fill="black" stroke="black" points="555.81,-292.12 561.34,-283.08 551.38,-286.7 555.81,-292.12"/>
</g>
<!-- LoadNMoldyn3Ascii&#45;&gt;ProcessEnergyWorkspaces -->
<g id="edge6" class="edge">
<title>LoadNMoldyn3Ascii&#45;&gt;ProcessEnergyWorkspaces</title>
<path fill="none" stroke="black" d="M192.93,-420.8C198.24,-408.93 205.39,-392.93 211.42,-379.45"/>
<polygon fill="black" stroke="black" points="214.68,-380.73 215.56,-370.18 208.29,-377.88 214.68,-380.73"/>
</g>
<!-- LoadNMoldyn4Ascii&#45;&gt;ProcessEnergyWorkspaces -->
<g id="edge7" class="edge">
<title>LoadNMoldyn4Ascii&#45;&gt;ProcessEnergyWorkspaces</title>
<path fill="none" stroke="black" d="M316.57,-420.8C298.88,-407.95 274.53,-390.26 255.13,-376.17"/>
<polygon fill="black" stroke="black" points="257.03,-373.22 246.88,-370.18 252.92,-378.88 257.03,-373.22"/>
</g>
<!-- Symmetrise&#45;&gt;IfConvolve -->
<g id="edge15" class="edge">
<title>Symmetrise&#45;&gt;IfConvolve</title>
<path fill="none" stroke="black" d="M491.98,-246.8C515.12,-232.95 547.67,-213.46 571.95,-198.93"/>
<polygon fill="black" stroke="black" points="574.02,-201.77 580.81,-193.63 570.43,-195.76 574.02,-201.77"/>
</g>
<!-- CropWorkspace&#45;&gt;IfConvolve -->
<g id="edge19" class="edge">
<title>CropWorkspace&#45;&gt;IfConvolve</title>
<path fill="none" stroke="black" d="M586.9,-246.8C590.12,-234.89 594.47,-218.82 598.12,-205.31"/>
<polygon fill="black" stroke="black" points="601.52,-206.16 600.75,-195.6 594.76,-204.34 601.52,-206.16"/>
</g>
<!-- ConvolveWorkspaces&#45;&gt;ProcessEnergyWorkspaces_End -->
<g id="edge23" class="edge">
<title>ConvolveWorkspaces&#45;&gt;ProcessEnergyWorkspaces_End</title>
<path fill="none" stroke="black" d="M558.59,-72.99C575.59,-62.02 597.65,-47.79 614.84,-36.68"/>
<polygon fill="black" stroke="black" points="616.84,-39.56 623.34,-31.2 613.04,-33.68 616.84,-39.56"/>
</g>
<!-- ProcessEnergyWorkspaces_Start -->
<g id="node19" class="node">
<title>ProcessEnergyWorkspaces_Start</title>
<ellipse fill="lightgrey" stroke="black" cx="776.24" cy="-599" rx="120.48" ry="18"/>
<text text-anchor="middle" x="776.24" y="-595.3" font-family="Helvetica" font-size="14.00">Process energy workspaces</text>
</g>
<!-- ProcessEnergyWorkspaces_Start&#45;&gt;IsWorkspaceInEnergy -->
<g id="edge11" class="edge">
<title>ProcessEnergyWorkspaces_Start&#45;&gt;IsWorkspaceInEnergy</title>
<path fill="none" stroke="black" d="M776.24,-580.81C776.24,-572.79 776.24,-563.05 776.24,-554.07"/>
<polygon fill="black" stroke="black" points="779.74,-554.03 776.24,-544.03 772.74,-554.03 779.74,-554.03"/>
</g>
</g>
</svg>
