<?xml version="1.0" encoding="UTF-8" standalone="no"?>
<!DOCTYPE svg PUBLIC "-//W3C//DTD SVG 1.1//EN"
 "http://www.w3.org/Graphics/SVG/1.1/DTD/svg11.dtd">
<!-- Generated by graphviz version 3.0.0 (20220315.2325)
 -->
<!-- Title: MuonProcess Pages: 1 -->
<svg width="1488pt" height="643pt"
 viewBox="0.00 0.00 1487.69 643.00" xmlns="http://www.w3.org/2000/svg" xmlns:xlink="http://www.w3.org/1999/xlink">
<g id="graph0" class="graph" transform="scale(1 1) rotate(0) translate(4 639)">
<title>MuonProcess</title>
<polygon fill="white" stroke="transparent" points="-4,4 -4,-639 1483.69,-639 1483.69,4 -4,4"/>
<text text-anchor="middle" x="739.85" y="-619.8" font-family="Helvetica,sans-Serif" font-size="14.00">MuonProcess Flowchart</text>
<!-- Filename -->
<g id="node1" class="node">
<title>Filename</title>
<ellipse fill="khaki" stroke="black" cx="359" cy="-594" rx="51.19" ry="18"/>
<text text-anchor="middle" x="359" y="-590.3" font-family="Helvetica,sans-Serif" font-size="14.00">Filename</text>
</g>
<!-- LoadMuonNexus -->
<g id="node15" class="node">
<title>LoadMuonNexus</title>
<path fill="lightskyblue" stroke="black" d="M412.5,-540C412.5,-540 305.5,-540 305.5,-540 299.5,-540 293.5,-534 293.5,-528 293.5,-528 293.5,-516 293.5,-516 293.5,-510 299.5,-504 305.5,-504 305.5,-504 412.5,-504 412.5,-504 418.5,-504 424.5,-510 424.5,-516 424.5,-516 424.5,-528 424.5,-528 424.5,-534 418.5,-540 412.5,-540"/>
<text text-anchor="middle" x="359" y="-518.3" font-family="Helvetica,sans-Serif" font-size="14.00">LoadMuonNexus</text>
</g>
<!-- Filename&#45;&gt;LoadMuonNexus -->
<g id="edge1" class="edge">
<title>Filename&#45;&gt;LoadMuonNexus</title>
<path fill="none" stroke="black" d="M359,-575.7C359,-567.98 359,-558.71 359,-550.11"/>
<polygon fill="black" stroke="black" points="362.5,-550.1 359,-540.1 355.5,-550.1 362.5,-550.1"/>
</g>
<!-- DeadTimeTable -->
<g id="node2" class="node">
<title>DeadTimeTable</title>
<ellipse fill="khaki" stroke="black" cx="253" cy="-450" rx="79.09" ry="18"/>
<text text-anchor="middle" x="253" y="-446.3" font-family="Helvetica,sans-Serif" font-size="14.00">DeadTimeTable</text>
</g>
<!-- DetectorGroupingTable -->
<g id="node3" class="node">
<title>DetectorGroupingTable</title>
<ellipse fill="khaki" stroke="black" cx="465" cy="-450" rx="114.28" ry="18"/>
<text text-anchor="middle" x="465" y="-446.3" font-family="Helvetica,sans-Serif" font-size="14.00">DetectorGroupingTable</text>
</g>
<!-- TimeZero -->
<g id="node4" class="node">
<title>TimeZero</title>
<ellipse fill="khaki" stroke="black" cx="678" cy="-378" rx="53.09" ry="18"/>
<text text-anchor="middle" x="678" y="-374.3" font-family="Helvetica,sans-Serif" font-size="14.00">TimeZero</text>
</g>
<!-- ChangeBinOffset -->
<g id="node18" class="node">
<title>ChangeBinOffset</title>
<path fill="lightskyblue" stroke="black" d="M576.5,-324C576.5,-324 465.5,-324 465.5,-324 459.5,-324 453.5,-318 453.5,-312 453.5,-312 453.5,-300 453.5,-300 453.5,-294 459.5,-288 465.5,-288 465.5,-288 576.5,-288 576.5,-288 582.5,-288 588.5,-294 588.5,-300 588.5,-300 588.5,-312 588.5,-312 588.5,-318 582.5,-324 576.5,-324"/>
<text text-anchor="middle" x="521" y="-302.3" font-family="Helvetica,sans-Serif" font-size="14.00">ChangeBinOffset</text>
</g>
<!-- TimeZero&#45;&gt;ChangeBinOffset -->
<g id="edge8" class="edge">
<title>TimeZero&#45;&gt;ChangeBinOffset</title>
<path fill="none" stroke="black" d="M646.98,-363.17C624.64,-353.21 594.07,-339.58 568.64,-328.24"/>
<polygon fill="black" stroke="black" points="569.73,-324.89 559.17,-324.02 566.88,-331.29 569.73,-324.89"/>
</g>
<!-- LoadedTimeZero -->
<g id="node5" class="node">
<title>LoadedTimeZero</title>
<ellipse fill="khaki" stroke="black" cx="521" cy="-378" rx="85.59" ry="18"/>
<text text-anchor="middle" x="521" y="-374.3" font-family="Helvetica,sans-Serif" font-size="14.00">LoadedTimeZero</text>
</g>
<!-- LoadedTimeZero&#45;&gt;ChangeBinOffset -->
<g id="edge9" class="edge">
<title>LoadedTimeZero&#45;&gt;ChangeBinOffset</title>
<path fill="none" stroke="black" d="M521,-359.7C521,-351.98 521,-342.71 521,-334.11"/>
<polygon fill="black" stroke="black" points="524.5,-334.1 521,-324.1 517.5,-334.1 524.5,-334.1"/>
</g>
<!-- Xmin -->
<g id="node6" class="node">
<title>Xmin</title>
<ellipse fill="khaki" stroke="black" cx="641" cy="-306" rx="34.39" ry="18"/>
<text text-anchor="middle" x="641" y="-302.3" font-family="Helvetica,sans-Serif" font-size="14.00">Xmin</text>
</g>
<!-- CropWorkspace -->
<g id="node19" class="node">
<title>CropWorkspace</title>
<path fill="lightskyblue" stroke="black" d="M691.5,-252C691.5,-252 590.5,-252 590.5,-252 584.5,-252 578.5,-246 578.5,-240 578.5,-240 578.5,-228 578.5,-228 578.5,-222 584.5,-216 590.5,-216 590.5,-216 691.5,-216 691.5,-216 697.5,-216 703.5,-222 703.5,-228 703.5,-228 703.5,-240 703.5,-240 703.5,-246 697.5,-252 691.5,-252"/>
<text text-anchor="middle" x="641" y="-230.3" font-family="Helvetica,sans-Serif" font-size="14.00">CropWorkspace</text>
</g>
<!-- Xmin&#45;&gt;CropWorkspace -->
<g id="edge11" class="edge">
<title>Xmin&#45;&gt;CropWorkspace</title>
<path fill="none" stroke="black" d="M641,-287.7C641,-279.98 641,-270.71 641,-262.11"/>
<polygon fill="black" stroke="black" points="644.5,-262.1 641,-252.1 637.5,-262.1 644.5,-262.1"/>
</g>
<!-- Xmax -->
<g id="node7" class="node">
<title>Xmax</title>
<ellipse fill="khaki" stroke="black" cx="730" cy="-306" rx="36.29" ry="18"/>
<text text-anchor="middle" x="730" y="-302.3" font-family="Helvetica,sans-Serif" font-size="14.00">Xmax</text>
</g>
<!-- Xmax&#45;&gt;CropWorkspace -->
<g id="edge12" class="edge">
<title>Xmax&#45;&gt;CropWorkspace</title>
<path fill="none" stroke="black" d="M711.13,-290.15C699.38,-280.92 684.02,-268.83 670.67,-258.33"/>
<polygon fill="black" stroke="black" points="672.69,-255.47 662.67,-252.04 668.36,-260.97 672.69,-255.47"/>
</g>
<!-- RebinParams -->
<g id="node8" class="node">
<title>RebinParams</title>
<ellipse fill="khaki" stroke="black" cx="792" cy="-234" rx="70.39" ry="18"/>
<text text-anchor="middle" x="792" y="-230.3" font-family="Helvetica,sans-Serif" font-size="14.00">RebinParams</text>
</g>
<!-- Rebin -->
<g id="node20" class="node">
<title>Rebin</title>
<path fill="lightskyblue" stroke="black" d="M732,-180C732,-180 700,-180 700,-180 694,-180 688,-174 688,-168 688,-168 688,-156 688,-156 688,-150 694,-144 700,-144 700,-144 732,-144 732,-144 738,-144 744,-150 744,-156 744,-156 744,-168 744,-168 744,-174 738,-180 732,-180"/>
<text text-anchor="middle" x="716" y="-158.3" font-family="Helvetica,sans-Serif" font-size="14.00">Rebin</text>
</g>
<!-- RebinParams&#45;&gt;Rebin -->
<g id="edge14" class="edge">
<title>RebinParams&#45;&gt;Rebin</title>
<path fill="none" stroke="black" d="M773.99,-216.41C764.45,-207.63 752.57,-196.68 742.04,-186.99"/>
<polygon fill="black" stroke="black" points="744.4,-184.4 734.68,-180.2 739.66,-189.55 744.4,-184.4"/>
</g>
<!-- OutputType -->
<g id="node9" class="node">
<title>OutputType</title>
<ellipse fill="khaki" stroke="black" cx="826" cy="-162" rx="63.89" ry="18"/>
<text text-anchor="middle" x="826" y="-158.3" font-family="Helvetica,sans-Serif" font-size="14.00">OutputType</text>
</g>
<!-- MuonCalculateAsymmetry -->
<g id="node21" class="node">
<title>MuonCalculateAsymmetry</title>
<path fill="lightskyblue" stroke="black" d="M1088,-108C1088,-108 926,-108 926,-108 920,-108 914,-102 914,-96 914,-96 914,-84 914,-84 914,-78 920,-72 926,-72 926,-72 1088,-72 1088,-72 1094,-72 1100,-78 1100,-84 1100,-84 1100,-96 1100,-96 1100,-102 1094,-108 1088,-108"/>
<text text-anchor="middle" x="1007" y="-86.3" font-family="Helvetica,sans-Serif" font-size="14.00">(Asymmetry calculation)</text>
</g>
<!-- OutputType&#45;&gt;MuonCalculateAsymmetry -->
<g id="edge16" class="edge">
<title>OutputType&#45;&gt;MuonCalculateAsymmetry</title>
<path fill="none" stroke="black" d="M862.19,-147C888.24,-136.93 923.81,-123.17 953.17,-111.82"/>
<polygon fill="black" stroke="black" points="954.81,-114.94 962.87,-108.07 952.28,-108.41 954.81,-114.94"/>
</g>
<!-- Alpha -->
<g id="node10" class="node">
<title>Alpha</title>
<ellipse fill="khaki" stroke="black" cx="944" cy="-162" rx="36.29" ry="18"/>
<text text-anchor="middle" x="944" y="-158.3" font-family="Helvetica,sans-Serif" font-size="14.00">Alpha</text>
</g>
<!-- Alpha&#45;&gt;MuonCalculateAsymmetry -->
<g id="edge20" class="edge">
<title>Alpha&#45;&gt;MuonCalculateAsymmetry</title>
<path fill="none" stroke="black" d="M958.3,-145.12C966.09,-136.46 975.91,-125.55 984.68,-115.8"/>
<polygon fill="black" stroke="black" points="987.35,-118.07 991.44,-108.29 982.15,-113.38 987.35,-118.07"/>
</g>
<!-- FirstPairIndex -->
<g id="node11" class="node">
<title>FirstPairIndex</title>
<ellipse fill="khaki" stroke="black" cx="1071" cy="-162" rx="72.59" ry="18"/>
<text text-anchor="middle" x="1071" y="-158.3" font-family="Helvetica,sans-Serif" font-size="14.00">FirstPairIndex</text>
</g>
<!-- FirstPairIndex&#45;&gt;MuonCalculateAsymmetry -->
<g id="edge17" class="edge">
<title>FirstPairIndex&#45;&gt;MuonCalculateAsymmetry</title>
<path fill="none" stroke="black" d="M1055.51,-144.05C1047.76,-135.58 1038.24,-125.17 1029.69,-115.82"/>
<polygon fill="black" stroke="black" points="1032.13,-113.29 1022.79,-108.28 1026.96,-118.02 1032.13,-113.29"/>
</g>
<!-- SecondPairIndex -->
<g id="node12" class="node">
<title>SecondPairIndex</title>
<ellipse fill="khaki" stroke="black" cx="1248" cy="-162" rx="86.38" ry="18"/>
<text text-anchor="middle" x="1248" y="-158.3" font-family="Helvetica,sans-Serif" font-size="14.00">SecondPairIndex</text>
</g>
<!-- SecondPairIndex&#45;&gt;MuonCalculateAsymmetry -->
<g id="edge18" class="edge">
<title>SecondPairIndex&#45;&gt;MuonCalculateAsymmetry</title>
<path fill="none" stroke="black" d="M1199.81,-147C1164.15,-136.65 1115.09,-122.39 1075.38,-110.86"/>
<polygon fill="black" stroke="black" points="1076.34,-107.49 1065.76,-108.07 1074.38,-114.22 1076.34,-107.49"/>
</g>
<!-- GroupIndex -->
<g id="node13" class="node">
<title>GroupIndex</title>
<ellipse fill="khaki" stroke="black" cx="1416" cy="-162" rx="63.89" ry="18"/>
<text text-anchor="middle" x="1416" y="-158.3" font-family="Helvetica,sans-Serif" font-size="14.00">GroupIndex</text>
</g>
<!-- GroupIndex&#45;&gt;MuonCalculateAsymmetry -->
<g id="edge19" class="edge">
<title>GroupIndex&#45;&gt;MuonCalculateAsymmetry</title>
<path fill="none" stroke="black" d="M1369.38,-149.61C1360.64,-147.63 1351.56,-145.67 1343,-144 1265.26,-128.84 1176.76,-115.02 1110.11,-105.29"/>
<polygon fill="black" stroke="black" points="1110.42,-101.8 1100.02,-103.83 1109.41,-108.73 1110.42,-101.8"/>
</g>
<!-- OutputWorkspace -->
<g id="node14" class="node">
<title>OutputWorkspace</title>
<ellipse fill="khaki" stroke="black" cx="1007" cy="-18" rx="92.08" ry="18"/>
<text text-anchor="middle" x="1007" y="-14.3" font-family="Helvetica,sans-Serif" font-size="14.00">OutputWorkspace</text>
</g>
<!-- LoadMuonNexus&#45;&gt;DeadTimeTable -->
<g id="edge3" class="edge">
<title>LoadMuonNexus&#45;&gt;DeadTimeTable</title>
<path fill="none" stroke="black" d="M333.07,-503.88C318.93,-494.54 301.27,-482.88 286.14,-472.89"/>
<polygon fill="black" stroke="black" points="287.84,-469.82 277.57,-467.23 283.99,-475.66 287.84,-469.82"/>
</g>
<!-- LoadMuonNexus&#45;&gt;DetectorGroupingTable -->
<g id="edge4" class="edge">
<title>LoadMuonNexus&#45;&gt;DetectorGroupingTable</title>
<path fill="none" stroke="black" d="M384.93,-503.88C398.87,-494.67 416.22,-483.22 431.2,-473.32"/>
<polygon fill="black" stroke="black" points="433.29,-476.14 439.7,-467.71 429.43,-470.3 433.29,-476.14"/>
</g>
<!-- LoadMuonNexus&#45;&gt;LoadedTimeZero -->
<g id="edge5" class="edge">
<title>LoadMuonNexus&#45;&gt;LoadedTimeZero</title>
<path fill="none" stroke="black" d="M424.59,-514.81C484.89,-507.6 567.87,-493.32 588,-468 597.96,-455.48 594.97,-446.4 588,-432 581.92,-419.45 571.27,-408.97 560.23,-400.73"/>
<polygon fill="black" stroke="black" points="561.98,-397.69 551.77,-394.87 558,-403.44 561.98,-397.69"/>
</g>
<!-- ApplyDeadTimeCorr -->
<g id="node16" class="node">
<title>ApplyDeadTimeCorr</title>
<path fill="lightskyblue" stroke="black" d="M144,-468C144,-468 12,-468 12,-468 6,-468 0,-462 0,-456 0,-456 0,-444 0,-444 0,-438 6,-432 12,-432 12,-432 144,-432 144,-432 150,-432 156,-438 156,-444 156,-444 156,-456 156,-456 156,-462 150,-468 144,-468"/>
<text text-anchor="middle" x="78" y="-446.3" font-family="Helvetica,sans-Serif" font-size="14.00">ApplyDeadTimeCorr</text>
</g>
<!-- LoadMuonNexus&#45;&gt;ApplyDeadTimeCorr -->
<g id="edge2" class="edge">
<title>LoadMuonNexus&#45;&gt;ApplyDeadTimeCorr</title>
<path fill="none" stroke="black" d="M293.47,-504.68C252.55,-494.48 199.62,-481.3 156.47,-470.55"/>
<polygon fill="black" stroke="black" points="157.12,-467.1 146.57,-468.08 155.43,-473.9 157.12,-467.1"/>
</g>
<!-- MuonGroupDetectors -->
<g id="node17" class="node">
<title>MuonGroupDetectors</title>
<path fill="lightskyblue" stroke="black" d="M319,-396C319,-396 179,-396 179,-396 173,-396 167,-390 167,-384 167,-384 167,-372 167,-372 167,-366 173,-360 179,-360 179,-360 319,-360 319,-360 325,-360 331,-366 331,-372 331,-372 331,-384 331,-384 331,-390 325,-396 319,-396"/>
<text text-anchor="middle" x="249" y="-374.3" font-family="Helvetica,sans-Serif" font-size="14.00">MuonGroupDetectors</text>
</g>
<!-- ApplyDeadTimeCorr&#45;&gt;MuonGroupDetectors -->
<g id="edge6" class="edge">
<title>ApplyDeadTimeCorr&#45;&gt;MuonGroupDetectors</title>
<path fill="none" stroke="black" d="M119.83,-431.88C143.42,-422.22 173.06,-410.09 198,-399.88"/>
<polygon fill="black" stroke="black" points="199.38,-403.1 207.3,-396.07 196.72,-396.62 199.38,-403.1"/>
</g>
<!-- MuonGroupDetectors&#45;&gt;ChangeBinOffset -->
<g id="edge7" class="edge">
<title>MuonGroupDetectors&#45;&gt;ChangeBinOffset</title>
<path fill="none" stroke="black" d="M315.19,-359.97C354.27,-349.91 403.9,-337.14 444.63,-326.65"/>
<polygon fill="black" stroke="black" points="445.7,-329.99 454.51,-324.11 443.96,-323.21 445.7,-329.99"/>
</g>
<!-- ChangeBinOffset&#45;&gt;CropWorkspace -->
<g id="edge10" class="edge">
<title>ChangeBinOffset&#45;&gt;CropWorkspace</title>
<path fill="none" stroke="black" d="M550.36,-287.88C566.05,-278.72 585.56,-267.34 602.45,-257.48"/>
<polygon fill="black" stroke="black" points="604.66,-260.25 611.53,-252.19 601.13,-254.21 604.66,-260.25"/>
</g>
<!-- CropWorkspace&#45;&gt;Rebin -->
<g id="edge13" class="edge">
<title>CropWorkspace&#45;&gt;Rebin</title>
<path fill="none" stroke="black" d="M659.54,-215.7C668.8,-207.05 680.16,-196.45 690.26,-187.03"/>
<polygon fill="black" stroke="black" points="692.75,-189.49 697.67,-180.1 687.98,-184.37 692.75,-189.49"/>
</g>
<!-- Rebin&#45;&gt;MuonCalculateAsymmetry -->
<g id="edge15" class="edge">
<title>Rebin&#45;&gt;MuonCalculateAsymmetry</title>
<path fill="none" stroke="black" d="M744.02,-147.34C747.01,-146.11 750.05,-144.97 753,-144 801.73,-127.95 857.38,-115.69 904.14,-107.02"/>
<polygon fill="black" stroke="black" points="904.77,-110.47 913.98,-105.23 903.52,-103.58 904.77,-110.47"/>
</g>
<!-- MuonCalculateAsymmetry&#45;&gt;OutputWorkspace -->
<g id="edge21" class="edge">
<title>MuonCalculateAsymmetry&#45;&gt;OutputWorkspace</title>
<path fill="none" stroke="black" d="M1007,-71.7C1007,-63.98 1007,-54.71 1007,-46.11"/>
<polygon fill="black" stroke="black" points="1010.5,-46.1 1007,-36.1 1003.5,-46.1 1010.5,-46.1"/>
</g>
</g>
</svg>
