<?xml version="1.0" encoding="UTF-8" standalone="no"?>
<!DOCTYPE svg PUBLIC "-//W3C//DTD SVG 1.1//EN"
 "http://www.w3.org/Graphics/SVG/1.1/DTD/svg11.dtd">
<!-- Generated by graphviz version 7.0.5 (20221231.0122)
 -->
<!-- Title: MuonProcess Pages: 1 -->
<svg width="1488pt" height="643pt"
 viewBox="0.00 0.00 1487.69 643.00" xmlns="http://www.w3.org/2000/svg" xmlns:xlink="http://www.w3.org/1999/xlink">
<g id="graph0" class="graph" transform="scale(1 1) rotate(0) translate(4 639)">
<title>MuonProcess</title>
<polygon fill="white" stroke="none" points="-4,4 -4,-639 1483.69,-639 1483.69,4 -4,4"/>
<text text-anchor="middle" x="739.85" y="-619.8" font-family="Helvetica,sans-Serif" font-size="14.00">MuonProcess Flowchart</text>
<!-- Filename -->
<g id="node1" class="node">
<title>Filename</title>
<ellipse fill="khaki" stroke="black" cx="359" cy="-594" rx="51.19" ry="18"/>
<text text-anchor="middle" x="359" y="-590.3" font-family="Helvetica,sans-Serif" font-size="14.00">Filename</text>
</g>
<!-- LoadMuonNexus -->
<g id="node15" class="node">
<title>LoadMuonNexus</title>
<path fill="lightskyblue" stroke="black" d="M412.5,-540C412.5,-540 305.5,-540 305.5,-540 299.5,-540 293.5,-534 293.5,-528 293.5,-528 293.5,-516 293.5,-516 293.5,-510 299.5,-504 305.5,-504 305.5,-504 412.5,-504 412.5,-504 418.5,-504 424.5,-510 424.5,-516 424.5,-516 424.5,-528 424.5,-528 424.5,-534 418.5,-540 412.5,-540"/>
<text text-anchor="middle" x="359" y="-518.3" font-family="Helvetica,sans-Serif" font-size="14.00">LoadMuonNexus</text>
</g>
<!-- Filename&#45;&gt;LoadMuonNexus -->
<g id="edge1" class="edge">
<title>Filename&#45;&gt;LoadMuonNexus</title>
<path fill="none" stroke="black" d="M359,-575.7C359,-568.41 359,-559.73 359,-551.54"/>
<polygon fill="black" stroke="black" points="362.5,-551.62 359,-541.62 355.5,-551.62 362.5,-551.62"/>
</g>
<!-- DeadTimeTable -->
<g id="node2" class="node">
<title>DeadTimeTable</title>
<ellipse fill="khaki" stroke="black" cx="253" cy="-450" rx="79.09" ry="18"/>
<text text-anchor="middle" x="253" y="-446.3" font-family="Helvetica,sans-Serif" font-size="14.00">DeadTimeTable</text>
</g>
<!-- DetectorGroupingTable -->
<g id="node3" class="node">
<title>DetectorGroupingTable</title>
<ellipse fill="khaki" stroke="black" cx="465" cy="-450" rx="114.28" ry="18"/>
<text text-anchor="middle" x="465" y="-446.3" font-family="Helvetica,sans-Serif" font-size="14.00">DetectorGroupingTable</text>
</g>
<!-- TimeZero -->
<g id="node4" class="node">
<title>TimeZero</title>
<ellipse fill="khaki" stroke="black" cx="678" cy="-378" rx="53.09" ry="18"/>
<text text-anchor="middle" x="678" y="-374.3" font-family="Helvetica,sans-Serif" font-size="14.00">TimeZero</text>
</g>
<!-- ChangeBinOffset -->
<g id="node18" class="node">
<title>ChangeBinOffset</title>
<path fill="lightskyblue" stroke="black" d="M576.5,-324C576.5,-324 465.5,-324 465.5,-324 459.5,-324 453.5,-318 453.5,-312 453.5,-312 453.5,-300 453.5,-300 453.5,-294 459.5,-288 465.5,-288 465.5,-288 576.5,-288 576.5,-288 582.5,-288 588.5,-294 588.5,-300 588.5,-300 588.5,-312 588.5,-312 588.5,-318 582.5,-324 576.5,-324"/>
<text text-anchor="middle" x="521" y="-302.3" font-family="Helvetica,sans-Serif" font-size="14.00">ChangeBinOffset</text>
</g>
<!-- TimeZero&#45;&gt;ChangeBinOffset -->
<g id="edge8" class="edge">
<title>TimeZero&#45;&gt;ChangeBinOffset</title>
<path fill="none" stroke="black" d="M646.98,-363.17C625.17,-353.44 595.51,-340.22 570.46,-329.05"/>
<polygon fill="black" stroke="black" points="571.98,-325.9 561.42,-325.02 569.12,-332.29 571.98,-325.9"/>
</g>
<!-- LoadedTimeZero -->
<g id="node5" class="node">
<title>LoadedTimeZero</title>
<ellipse fill="khaki" stroke="black" cx="521" cy="-378" rx="85.59" ry="18"/>
<text text-anchor="middle" x="521" y="-374.3" font-family="Helvetica,sans-Serif" font-size="14.00">LoadedTimeZero</text>
</g>
<!-- LoadedTimeZero&#45;&gt;ChangeBinOffset -->
<g id="edge9" class="edge">
<title>LoadedTimeZero&#45;&gt;ChangeBinOffset</title>
<path fill="none" stroke="black" d="M521,-359.7C521,-352.41 521,-343.73 521,-335.54"/>
<polygon fill="black" stroke="black" points="524.5,-335.62 521,-325.62 517.5,-335.62 524.5,-335.62"/>
</g>
<!-- Xmin -->
<g id="node6" class="node">
<title>Xmin</title>
<ellipse fill="khaki" stroke="black" cx="641" cy="-306" rx="34.39" ry="18"/>
<text text-anchor="middle" x="641" y="-302.3" font-family="Helvetica,sans-Serif" font-size="14.00">Xmin</text>
</g>
<!-- CropWorkspace -->
<g id="node19" class="node">
<title>CropWorkspace</title>
<path fill="lightskyblue" stroke="black" d="M691.5,-252C691.5,-252 590.5,-252 590.5,-252 584.5,-252 578.5,-246 578.5,-240 578.5,-240 578.5,-228 578.5,-228 578.5,-222 584.5,-216 590.5,-216 590.5,-216 691.5,-216 691.5,-216 697.5,-216 703.5,-222 703.5,-228 703.5,-228 703.5,-240 703.5,-240 703.5,-246 697.5,-252 691.5,-252"/>
<text text-anchor="middle" x="641" y="-230.3" font-family="Helvetica,sans-Serif" font-size="14.00">CropWorkspace</text>
</g>
<!-- Xmin&#45;&gt;CropWorkspace -->
<g id="edge11" class="edge">
<title>Xmin&#45;&gt;CropWorkspace</title>
<path fill="none" stroke="black" d="M641,-287.7C641,-280.41 641,-271.73 641,-263.54"/>
<polygon fill="black" stroke="black" points="644.5,-263.62 641,-253.62 637.5,-263.62 644.5,-263.62"/>
</g>
<!-- Xmax -->
<g id="node7" class="node">
<title>Xmax</title>
<ellipse fill="khaki" stroke="black" cx="730" cy="-306" rx="36.29" ry="18"/>
<text text-anchor="middle" x="730" y="-302.3" font-family="Helvetica,sans-Serif" font-size="14.00">Xmax</text>
</g>
<!-- Xmax&#45;&gt;CropWorkspace -->
<g id="edge12" class="edge">
<title>Xmax&#45;&gt;CropWorkspace</title>
<path fill="none" stroke="black" d="M711.13,-290.15C699.68,-281.16 684.81,-269.46 671.71,-259.15"/>
<polygon fill="black" stroke="black" points="674.2,-256.66 664.18,-253.23 669.87,-262.16 674.2,-256.66"/>
</g>
<!-- RebinParams -->
<g id="node8" class="node">
<title>RebinParams</title>
<ellipse fill="khaki" stroke="black" cx="792" cy="-234" rx="70.39" ry="18"/>
<text text-anchor="middle" x="792" y="-230.3" font-family="Helvetica,sans-Serif" font-size="14.00">RebinParams</text>
</g>
<!-- Rebin -->
<g id="node20" class="node">
<title>Rebin</title>
<path fill="lightskyblue" stroke="black" d="M732,-180C732,-180 700,-180 700,-180 694,-180 688,-174 688,-168 688,-168 688,-156 688,-156 688,-150 694,-144 700,-144 700,-144 732,-144 732,-144 738,-144 744,-150 744,-156 744,-156 744,-168 744,-168 744,-174 738,-180 732,-180"/>
<text text-anchor="middle" x="716" y="-158.3" font-family="Helvetica,sans-Serif" font-size="14.00">Rebin</text>
</g>
<!-- RebinParams&#45;&gt;Rebin -->
<g id="edge14" class="edge">
<title>RebinParams&#45;&gt;Rebin</title>
<path fill="none" stroke="black" d="M773.99,-216.41C764.8,-207.95 753.43,-197.47 743.2,-188.05"/>
<polygon fill="black" stroke="black" points="745.78,-185.67 736.06,-181.47 741.04,-190.82 745.78,-185.67"/>
</g>
<!-- OutputType -->
<g id="node9" class="node">
<title>OutputType</title>
<ellipse fill="khaki" stroke="black" cx="826" cy="-162" rx="63.89" ry="18"/>
<text text-anchor="middle" x="826" y="-158.3" font-family="Helvetica,sans-Serif" font-size="14.00">OutputType</text>
</g>
<!-- MuonCalculateAsymmetry -->
<g id="node21" class="node">
<title>MuonCalculateAsymmetry</title>
<path fill="lightskyblue" stroke="black" d="M1088,-108C1088,-108 926,-108 926,-108 920,-108 914,-102 914,-96 914,-96 914,-84 914,-84 914,-78 920,-72 926,-72 926,-72 1088,-72 1088,-72 1094,-72 1100,-78 1100,-84 1100,-84 1100,-96 1100,-96 1100,-102 1094,-108 1088,-108"/>
<text text-anchor="middle" x="1007" y="-86.3" font-family="Helvetica,sans-Serif" font-size="14.00">(Asymmetry calculation)</text>
</g>
<!-- OutputType&#45;&gt;MuonCalculateAsymmetry -->
<g id="edge16" class="edge">
<title>OutputType&#45;&gt;MuonCalculateAsymmetry</title>
<path fill="none" stroke="black" d="M862.63,-146.83C888,-137.02 922.25,-123.77 951.03,-112.65"/>
<polygon fill="black" stroke="black" points="952.28,-115.91 960.35,-109.04 949.76,-109.38 952.28,-115.91"/>
</g>
<!-- Alpha -->
<g id="node10" class="node">
<title>Alpha</title>
<ellipse fill="khaki" stroke="black" cx="944" cy="-162" rx="36.29" ry="18"/>
<text text-anchor="middle" x="944" y="-158.3" font-family="Helvetica,sans-Serif" font-size="14.00">Alpha</text>
</g>
<!-- Alpha&#45;&gt;MuonCalculateAsymmetry -->
<g id="edge20" class="edge">
<title>Alpha&#45;&gt;MuonCalculateAsymmetry</title>
<path fill="none" stroke="black" d="M958.3,-145.12C965.86,-136.72 975.32,-126.2 983.9,-116.67"/>
<polygon fill="black" stroke="black" points="986.34,-119.19 990.42,-109.42 981.13,-114.51 986.34,-119.19"/>
</g>
<!-- FirstPairIndex -->
<g id="node11" class="node">
<title>FirstPairIndex</title>
<ellipse fill="khaki" stroke="black" cx="1071" cy="-162" rx="72.59" ry="18"/>
<text text-anchor="middle" x="1071" y="-158.3" font-family="Helvetica,sans-Serif" font-size="14.00">FirstPairIndex</text>
</g>
<!-- FirstPairIndex&#45;&gt;MuonCalculateAsymmetry -->
<g id="edge17" class="edge">
<title>FirstPairIndex&#45;&gt;MuonCalculateAsymmetry</title>
<path fill="none" stroke="black" d="M1055.51,-144.05C1047.99,-135.84 1038.81,-125.79 1030.46,-116.66"/>
<polygon fill="black" stroke="black" points="1033.15,-114.41 1023.82,-109.39 1027.98,-119.13 1033.15,-114.41"/>
</g>
<!-- SecondPairIndex -->
<g id="node12" class="node">
<title>SecondPairIndex</title>
<ellipse fill="khaki" stroke="black" cx="1248" cy="-162" rx="86.38" ry="18"/>
<text text-anchor="middle" x="1248" y="-158.3" font-family="Helvetica,sans-Serif" font-size="14.00">SecondPairIndex</text>
</g>
<!-- SecondPairIndex&#45;&gt;MuonCalculateAsymmetry -->
<g id="edge18" class="edge">
<title>SecondPairIndex&#45;&gt;MuonCalculateAsymmetry</title>
<path fill="none" stroke="black" d="M1198.94,-146.75C1164.09,-136.63 1116.77,-122.88 1077.84,-111.57"/>
<polygon fill="black" stroke="black" points="1079.13,-108.31 1068.55,-108.88 1077.17,-115.03 1079.13,-108.31"/>
</g>
<!-- GroupIndex -->
<g id="node13" class="node">
<title>GroupIndex</title>
<ellipse fill="khaki" stroke="black" cx="1416" cy="-162" rx="63.89" ry="18"/>
<text text-anchor="middle" x="1416" y="-158.3" font-family="Helvetica,sans-Serif" font-size="14.00">GroupIndex</text>
</g>
<!-- GroupIndex&#45;&gt;MuonCalculateAsymmetry -->
<g id="edge19" class="edge">
<title>GroupIndex&#45;&gt;MuonCalculateAsymmetry</title>
<path fill="none" stroke="black" d="M1368.98,-149.52C1360.36,-147.57 1351.43,-145.64 1343,-144 1265.88,-128.96 1178.16,-115.24 1111.69,-105.52"/>
<polygon fill="black" stroke="black" points="1112.27,-102.07 1101.88,-104.1 1111.27,-109 1112.27,-102.07"/>
</g>
<!-- OutputWorkspace -->
<g id="node14" class="node">
<title>OutputWorkspace</title>
<ellipse fill="khaki" stroke="black" cx="1007" cy="-18" rx="92.08" ry="18"/>
<text text-anchor="middle" x="1007" y="-14.3" font-family="Helvetica,sans-Serif" font-size="14.00">OutputWorkspace</text>
</g>
<!-- LoadMuonNexus&#45;&gt;DeadTimeTable -->
<g id="edge3" class="edge">
<title>LoadMuonNexus&#45;&gt;DeadTimeTable</title>
<path fill="none" stroke="black" d="M332.53,-503.52C318.84,-494.48 301.98,-483.35 287.31,-473.66"/>
<polygon fill="black" stroke="black" points="289.58,-470.96 279.31,-468.37 285.72,-476.8 289.58,-470.96"/>
</g>
<!-- LoadMuonNexus&#45;&gt;DetectorGroupingTable -->
<g id="edge4" class="edge">
<title>LoadMuonNexus&#45;&gt;DetectorGroupingTable</title>
<path fill="none" stroke="black" d="M385.47,-503.52C398.83,-494.7 415.21,-483.88 429.62,-474.36"/>
<polygon fill="black" stroke="black" points="431.55,-477.28 437.97,-468.85 427.69,-471.44 431.55,-477.28"/>
</g>
<!-- LoadMuonNexus&#45;&gt;LoadedTimeZero -->
<g id="edge5" class="edge">
<title>LoadMuonNexus&#45;&gt;LoadedTimeZero</title>
<path fill="none" stroke="black" d="M424.88,-514.77C485.15,-507.55 567.91,-493.28 588,-468 597.96,-455.48 594.97,-446.4 588,-432 582.15,-419.92 572.07,-409.76 561.47,-401.67"/>
<polygon fill="black" stroke="black" points="563.55,-398.85 553.36,-395.96 559.53,-404.58 563.55,-398.85"/>
</g>
<!-- ApplyDeadTimeCorr -->
<g id="node16" class="node">
<title>ApplyDeadTimeCorr</title>
<path fill="lightskyblue" stroke="black" d="M144,-468C144,-468 12,-468 12,-468 6,-468 0,-462 0,-456 0,-456 0,-444 0,-444 0,-438 6,-432 12,-432 12,-432 144,-432 144,-432 150,-432 156,-438 156,-444 156,-444 156,-456 156,-456 156,-462 150,-468 144,-468"/>
<text text-anchor="middle" x="78" y="-446.3" font-family="Helvetica,sans-Serif" font-size="14.00">ApplyDeadTimeCorr</text>
</g>
<!-- LoadMuonNexus&#45;&gt;ApplyDeadTimeCorr -->
<g id="edge2" class="edge">
<title>LoadMuonNexus&#45;&gt;ApplyDeadTimeCorr</title>
<path fill="none" stroke="black" d="M293.12,-504.59C252.98,-494.59 201.39,-481.74 158.79,-471.13"/>
<polygon fill="black" stroke="black" points="159.9,-467.8 149.35,-468.78 158.21,-474.59 159.9,-467.8"/>
</g>
<!-- MuonGroupDetectors -->
<g id="node17" class="node">
<title>MuonGroupDetectors</title>
<path fill="lightskyblue" stroke="black" d="M319,-396C319,-396 179,-396 179,-396 173,-396 167,-390 167,-384 167,-384 167,-372 167,-372 167,-366 173,-360 179,-360 179,-360 319,-360 319,-360 325,-360 331,-366 331,-372 331,-372 331,-384 331,-384 331,-390 325,-396 319,-396"/>
<text text-anchor="middle" x="249" y="-374.3" font-family="Helvetica,sans-Serif" font-size="14.00">MuonGroupDetectors</text>
</g>
<!-- ApplyDeadTimeCorr&#45;&gt;MuonGroupDetectors -->
<g id="edge6" class="edge">
<title>ApplyDeadTimeCorr&#45;&gt;MuonGroupDetectors</title>
<path fill="none" stroke="black" d="M120.71,-431.52C143.54,-422.17 171.87,-410.57 196.09,-400.66"/>
<polygon fill="black" stroke="black" points="197.21,-403.98 205.14,-396.96 194.56,-397.5 197.21,-403.98"/>
</g>
<!-- MuonGroupDetectors&#45;&gt;ChangeBinOffset -->
<g id="edge7" class="edge">
<title>MuonGroupDetectors&#45;&gt;ChangeBinOffset</title>
<path fill="none" stroke="black" d="M316.94,-359.52C355.05,-349.71 402.78,-337.43 442.49,-327.21"/>
<polygon fill="black" stroke="black" points="443.18,-330.64 451.99,-324.76 441.44,-323.86 443.18,-330.64"/>
</g>
<!-- ChangeBinOffset&#45;&gt;CropWorkspace -->
<g id="edge10" class="edge">
<title>ChangeBinOffset&#45;&gt;CropWorkspace</title>
<path fill="none" stroke="black" d="M550.97,-287.52C566.26,-278.6 585.06,-267.63 601.52,-258.03"/>
<polygon fill="black" stroke="black" points="603.23,-261.09 610.1,-253.02 599.7,-255.04 603.23,-261.09"/>
</g>
<!-- CropWorkspace&#45;&gt;Rebin -->
<g id="edge13" class="edge">
<title>CropWorkspace&#45;&gt;Rebin</title>
<path fill="none" stroke="black" d="M659.54,-215.7C668.46,-207.37 679.33,-197.22 689.14,-188.07"/>
<polygon fill="black" stroke="black" points="691.39,-190.76 696.31,-181.38 686.61,-185.64 691.39,-190.76"/>
</g>
<!-- Rebin&#45;&gt;MuonCalculateAsymmetry -->
<g id="edge15" class="edge">
<title>Rebin&#45;&gt;MuonCalculateAsymmetry</title>
<path fill="none" stroke="black" d="M744.43,-147.17C747.29,-146.01 750.18,-144.93 753,-144 801.12,-128.15 855.99,-115.99 902.39,-107.35"/>
<polygon fill="black" stroke="black" points="902.99,-110.8 912.19,-105.56 901.73,-103.91 902.99,-110.8"/>
</g>
<!-- MuonCalculateAsymmetry&#45;&gt;OutputWorkspace -->
<g id="edge21" class="edge">
<title>MuonCalculateAsymmetry&#45;&gt;OutputWorkspace</title>
<path fill="none" stroke="black" d="M1007,-71.7C1007,-64.41 1007,-55.73 1007,-47.54"/>
<polygon fill="black" stroke="black" points="1010.5,-47.62 1007,-37.62 1003.5,-47.62 1010.5,-47.62"/>
</g>
</g>
</svg>
