<?xml version="1.0" encoding="UTF-8" standalone="no"?>
<!DOCTYPE svg PUBLIC "-//W3C//DTD SVG 1.1//EN"
 "http://www.w3.org/Graphics/SVG/1.1/DTD/svg11.dtd">
<!-- Generated by graphviz version 2.40.1 (20161225.0304)
 -->
<!-- Title: MuscatSofQW Pages: 1 -->
<svg width="1627pt" height="1069pt"
 viewBox="0.00 0.00 1626.94 1069.00" xmlns="http://www.w3.org/2000/svg" xmlns:xlink="http://www.w3.org/1999/xlink">
<g id="graph0" class="graph" transform="scale(1 1) rotate(0) translate(4 1065)">
<title>MuscatSofQW</title>
<polygon fill="#ffffff" stroke="transparent" points="-4,4 -4,-1065 1622.9371,-1065 1622.9371,4 -4,4"/>
<text text-anchor="middle" x="809.4686" y="-1045.8" font-family="Helvetica,sans-Serif" font-size="14.00" fill="#000000">MuscatSofQW Flowchart</text>
<!-- SampleWorkspace -->
<g id="node1" class="node">
<title>SampleWorkspace</title>
<ellipse fill="#f0e68c" stroke="#000000" cx="1322.0957" cy="-933" rx="85.2851" ry="18"/>
<text text-anchor="middle" x="1322.0957" y="-929.3" font-family="Helvetica,sans-Serif" font-size="14.00" fill="#000000">SampleWorkspace</text>
</g>
<!-- Rebin -->
<g id="node23" class="node">
<title>Rebin</title>
<path fill="#87cefa" stroke="#000000" d="M1201.0957,-864C1201.0957,-864 1171.0957,-864 1171.0957,-864 1165.0957,-864 1159.0957,-858 1159.0957,-852 1159.0957,-852 1159.0957,-840 1159.0957,-840 1159.0957,-834 1165.0957,-828 1171.0957,-828 1171.0957,-828 1201.0957,-828 1201.0957,-828 1207.0957,-828 1213.0957,-834 1213.0957,-840 1213.0957,-840 1213.0957,-852 1213.0957,-852 1213.0957,-858 1207.0957,-864 1201.0957,-864"/>
<text text-anchor="middle" x="1186.0957" y="-842.3" font-family="Helvetica,sans-Serif" font-size="14.00" fill="#000000">Rebin</text>
</g>
<!-- SampleWorkspace&#45;&gt;Rebin -->
<g id="edge9" class="edge">
<title>SampleWorkspace&#45;&gt;Rebin</title>
<path fill="none" stroke="#000000" d="M1295.2265,-915.8116C1274.2221,-902.3749 1244.8309,-883.5733 1221.8414,-868.8667"/>
<polygon fill="#000000" stroke="#000000" points="1223.6846,-865.891 1213.3746,-863.4505 1219.9124,-871.7877 1223.6846,-865.891"/>
</g>
<!-- ResolutionWorkspace -->
<g id="node2" class="node">
<title>ResolutionWorkspace</title>
<ellipse fill="#f0e68c" stroke="#000000" cx="1522.0957" cy="-933" rx="96.6831" ry="18"/>
<text text-anchor="middle" x="1522.0957" y="-929.3" font-family="Helvetica,sans-Serif" font-size="14.00" fill="#000000">ResolutionWorkspace</text>
</g>
<!-- ResolutionWorkspace&#45;&gt;Rebin -->
<g id="edge10" class="edge">
<title>ResolutionWorkspace&#45;&gt;Rebin</title>
<path fill="none" stroke="#000000" d="M1465.4779,-918.34C1396.4926,-900.4778 1281.9041,-870.8075 1223.2225,-855.6132"/>
<polygon fill="#000000" stroke="#000000" points="1223.8372,-852.157 1213.2791,-853.0386 1222.0825,-858.9335 1223.8372,-852.157"/>
</g>
<!-- ParameterWorkspace1 -->
<g id="node3" class="node">
<title>ParameterWorkspace1</title>
<ellipse fill="#f0e68c" stroke="#000000" cx="779.0957" cy="-1020" rx="96.6831" ry="18"/>
<text text-anchor="middle" x="779.0957" y="-1016.3" font-family="Helvetica,sans-Serif" font-size="14.00" fill="#000000">ParameterWorkspace</text>
</g>
<!-- isConvFitProg -->
<g id="node28" class="node">
<title>isConvFitProg</title>
<polygon fill="#32cd32" stroke="#000000" points="622.0957,-951 495.4081,-933 622.0957,-915 748.7833,-933 622.0957,-951"/>
<text text-anchor="middle" x="622.0957" y="-929.3" font-family="Helvetica,sans-Serif" font-size="14.00" fill="#000000">ConvFit Fit Program</text>
</g>
<!-- ParameterWorkspace1&#45;&gt;isConvFitProg -->
<g id="edge1" class="edge">
<title>ParameterWorkspace1&#45;&gt;isConvFitProg</title>
<path fill="none" stroke="#000000" d="M748.0776,-1002.8116C721.8233,-988.263 684.2187,-967.4248 656.9339,-952.3053"/>
<polygon fill="#000000" stroke="#000000" points="658.5511,-949.1999 648.1078,-947.4143 655.1582,-955.3227 658.5511,-949.1999"/>
<text text-anchor="middle" x="767.5957" y="-972.8" font-family="Helvetica,sans-Serif" font-size="14.00" fill="#000000">Extract fit_program</text>
</g>
<!-- hasLor -->
<g id="node29" class="node">
<title>hasLor</title>
<polygon fill="#32cd32" stroke="#000000" points="908.0957,-951 766.4953,-933 908.0957,-915 1049.6962,-933 908.0957,-951"/>
<text text-anchor="middle" x="908.0957" y="-929.3" font-family="Helvetica,sans-Serif" font-size="14.00" fill="#000000">Number of Lorentzians</text>
</g>
<!-- ParameterWorkspace1&#45;&gt;hasLor -->
<g id="edge4" class="edge">
<title>ParameterWorkspace1&#45;&gt;hasLor</title>
<path fill="none" stroke="#000000" d="M804.8908,-1002.6033C825.662,-988.5949 854.9312,-968.8552 876.9972,-953.9734"/>
<polygon fill="#000000" stroke="#000000" points="879.0334,-956.8218 885.3671,-948.3286 875.1193,-951.0183 879.0334,-956.8218"/>
</g>
<!-- ParameterWorkspace2 -->
<g id="node4" class="node">
<title>ParameterWorkspace2</title>
<ellipse fill="#f0e68c" stroke="#000000" cx="467.0957" cy="-1020" rx="96.6831" ry="18"/>
<text text-anchor="middle" x="467.0957" y="-1016.3" font-family="Helvetica,sans-Serif" font-size="14.00" fill="#000000">ParameterWorkspace</text>
</g>
<!-- qValues -->
<g id="node14" class="node">
<title>qValues</title>
<ellipse fill="#f0e68c" stroke="#000000" cx="359.0957" cy="-933" rx="42.4939" ry="18"/>
<text text-anchor="middle" x="359.0957" y="-929.3" font-family="Helvetica,sans-Serif" font-size="14.00" fill="#000000">qValues</text>
</g>
<!-- ParameterWorkspace2&#45;&gt;qValues -->
<g id="edge18" class="edge">
<title>ParameterWorkspace2&#45;&gt;qValues</title>
<path fill="none" stroke="#000000" d="M445.2403,-1002.3943C428.4569,-988.8743 405.1599,-970.1073 387.0247,-955.4983"/>
<polygon fill="#000000" stroke="#000000" points="389.0807,-952.6602 379.0974,-949.1125 384.6893,-958.1115 389.0807,-952.6602"/>
</g>
<!-- lorHeights -->
<g id="node15" class="node">
<title>lorHeights</title>
<ellipse fill="#f0e68c" stroke="#000000" cx="500.0957" cy="-738" rx="81.4863" ry="18"/>
<text text-anchor="middle" x="500.0957" y="-734.3" font-family="Helvetica,sans-Serif" font-size="14.00" fill="#000000">LorentzianHeights</text>
</g>
<!-- ParameterWorkspace2&#45;&gt;lorHeights -->
<g id="edge14" class="edge">
<title>ParameterWorkspace2&#45;&gt;lorHeights</title>
<path fill="none" stroke="#000000" d="M458.4739,-1001.7024C456.2693,-996.1424 454.2086,-989.9319 453.0957,-984 435.8865,-892.2669 411.7794,-857.6903 453.0957,-774 455.311,-769.5128 458.3836,-765.4302 461.9074,-761.7607"/>
<polygon fill="#000000" stroke="#000000" points="464.5434,-764.0977 469.644,-754.8114 459.8657,-758.8901 464.5434,-764.0977"/>
</g>
<!-- lorWidths -->
<g id="node16" class="node">
<title>lorWidths</title>
<ellipse fill="#f0e68c" stroke="#000000" cx="679.0957" cy="-738" rx="79.0865" ry="18"/>
<text text-anchor="middle" x="679.0957" y="-734.3" font-family="Helvetica,sans-Serif" font-size="14.00" fill="#000000">LorentzianWidths</text>
</g>
<!-- ParameterWorkspace2&#45;&gt;lorWidths -->
<g id="edge15" class="edge">
<title>ParameterWorkspace2&#45;&gt;lorWidths</title>
<path fill="none" stroke="#000000" d="M466.3834,-1001.9715C465.8989,-964.8306 469.9828,-879.0038 514.0957,-828 543.2915,-794.2435 588.3907,-770.8667 624.0651,-756.4144"/>
<polygon fill="#000000" stroke="#000000" points="625.3575,-759.6671 633.385,-752.7527 622.7977,-753.1519 625.3575,-759.6671"/>
</g>
<!-- ParameterWorkspace3 -->
<g id="node5" class="node">
<title>ParameterWorkspace3</title>
<ellipse fill="#f0e68c" stroke="#000000" cx="371.0957" cy="-164" rx="96.6831" ry="18"/>
<text text-anchor="middle" x="371.0957" y="-160.3" font-family="Helvetica,sans-Serif" font-size="14.00" fill="#000000">ParameterWorkspace</text>
</g>
<!-- CopyLogs -->
<g id="node27" class="node">
<title>CopyLogs</title>
<path fill="#87cefa" stroke="#000000" d="M308.5957,-109C308.5957,-109 255.5957,-109 255.5957,-109 249.5957,-109 243.5957,-103 243.5957,-97 243.5957,-97 243.5957,-85 243.5957,-85 243.5957,-79 249.5957,-73 255.5957,-73 255.5957,-73 308.5957,-73 308.5957,-73 314.5957,-73 320.5957,-79 320.5957,-85 320.5957,-85 320.5957,-97 320.5957,-97 320.5957,-103 314.5957,-109 308.5957,-109"/>
<text text-anchor="middle" x="282.0957" y="-87.3" font-family="Helvetica,sans-Serif" font-size="14.00" fill="#000000">CopyLogs</text>
</g>
<!-- ParameterWorkspace3&#45;&gt;CopyLogs -->
<g id="edge43" class="edge">
<title>ParameterWorkspace3&#45;&gt;CopyLogs</title>
<path fill="none" stroke="#000000" d="M349.5513,-146.3287C338.2415,-137.0521 324.2074,-125.541 311.8737,-115.4247"/>
<polygon fill="#000000" stroke="#000000" points="314.0115,-112.6514 304.06,-109.0157 309.5722,-118.0637 314.0115,-112.6514"/>
</g>
<!-- EnergyMax -->
<g id="node6" class="node">
<title>EnergyMax</title>
<ellipse fill="#f0e68c" stroke="#000000" cx="1205.0957" cy="-1020" rx="55.7903" ry="18"/>
<text text-anchor="middle" x="1205.0957" y="-1016.3" font-family="Helvetica,sans-Serif" font-size="14.00" fill="#000000">EnergyMax</text>
</g>
<!-- rebinParam -->
<g id="node17" class="node">
<title>rebinParam</title>
<ellipse fill="#f0e68c" stroke="#000000" cx="1143.0957" cy="-933" rx="75.2868" ry="18"/>
<text text-anchor="middle" x="1143.0957" y="-929.3" font-family="Helvetica,sans-Serif" font-size="14.00" fill="#000000">RebinParameter</text>
</g>
<!-- EnergyMax&#45;&gt;rebinParam -->
<g id="edge7" class="edge">
<title>EnergyMax&#45;&gt;rebinParam</title>
<path fill="none" stroke="#000000" d="M1192.5491,-1002.3943C1183.6998,-989.9767 1171.6962,-973.1329 1161.7312,-959.1498"/>
<polygon fill="#000000" stroke="#000000" points="1164.4903,-956.9906 1155.8365,-950.8782 1158.7898,-961.0531 1164.4903,-956.9906"/>
</g>
<!-- EnergyInc -->
<g id="node7" class="node">
<title>EnergyInc</title>
<ellipse fill="#f0e68c" stroke="#000000" cx="1081.0957" cy="-1020" rx="50.0912" ry="18"/>
<text text-anchor="middle" x="1081.0957" y="-1016.3" font-family="Helvetica,sans-Serif" font-size="14.00" fill="#000000">EnergyInc</text>
</g>
<!-- EnergyInc&#45;&gt;rebinParam -->
<g id="edge8" class="edge">
<title>EnergyInc&#45;&gt;rebinParam</title>
<path fill="none" stroke="#000000" d="M1093.6424,-1002.3943C1102.4917,-989.9767 1114.4953,-973.1329 1124.4602,-959.1498"/>
<polygon fill="#000000" stroke="#000000" points="1127.4017,-961.0531 1130.355,-950.8782 1121.7011,-956.9906 1127.4017,-961.0531"/>
</g>
<!-- OutputWorkspace -->
<g id="node8" class="node">
<title>OutputWorkspace</title>
<ellipse fill="#f0e68c" stroke="#000000" cx="282.0957" cy="-18" rx="81.7856" ry="18"/>
<text text-anchor="middle" x="282.0957" y="-14.3" font-family="Helvetica,sans-Serif" font-size="14.00" fill="#000000">OutputWorkspace</text>
</g>
<!-- Delta -->
<g id="node9" class="node">
<title>Delta</title>
<ellipse fill="#f0e68c" stroke="#000000" cx="877.0957" cy="-792" rx="31.3957" ry="18"/>
<text text-anchor="middle" x="877.0957" y="-788.3" font-family="Helvetica,sans-Serif" font-size="14.00" fill="#000000">Delta</text>
</g>
<!-- ConstructConvFitFunction -->
<g id="node21" class="node">
<title>ConstructConvFitFunction</title>
<ellipse fill="#f0e68c" stroke="#000000" cx="636.0957" cy="-665" rx="112.3801" ry="18"/>
<text text-anchor="middle" x="636.0957" y="-661.3" font-family="Helvetica,sans-Serif" font-size="14.00" fill="#000000">ConstructConvFitFunction</text>
</g>
<!-- Delta&#45;&gt;ConstructConvFitFunction -->
<g id="edge22" class="edge">
<title>Delta&#45;&gt;ConstructConvFitFunction</title>
<path fill="none" stroke="#000000" d="M857.4936,-777.5938C835.9969,-762.1758 800.1491,-737.568 767.0957,-720 742.5795,-706.9696 714.297,-694.765 690.2997,-685.1791"/>
<polygon fill="#000000" stroke="#000000" points="691.5752,-681.9199 680.9885,-681.5044 689.0054,-688.4311 691.5752,-681.9199"/>
</g>
<!-- Lorentzians -->
<g id="node10" class="node">
<title>Lorentzians</title>
<ellipse fill="#f0e68c" stroke="#000000" cx="679.0957" cy="-846" rx="55.7903" ry="18"/>
<text text-anchor="middle" x="679.0957" y="-842.3" font-family="Helvetica,sans-Serif" font-size="14.00" fill="#000000">Lorentzians</text>
</g>
<!-- Lorentzians&#45;&gt;lorHeights -->
<g id="edge16" class="edge">
<title>Lorentzians&#45;&gt;lorHeights</title>
<path fill="none" stroke="#000000" d="M652.6837,-830.0642C622.1526,-811.6432 571.6928,-781.1982 537.223,-760.4008"/>
<polygon fill="#000000" stroke="#000000" points="538.7613,-757.2412 528.3909,-755.0719 535.145,-763.2348 538.7613,-757.2412"/>
</g>
<!-- Lorentzians&#45;&gt;lorWidths -->
<g id="edge17" class="edge">
<title>Lorentzians&#45;&gt;lorWidths</title>
<path fill="none" stroke="#000000" d="M679.0957,-827.6793C679.0957,-810.821 679.0957,-785.5651 679.0957,-766.147"/>
<polygon fill="#000000" stroke="#000000" points="682.5958,-766.0501 679.0957,-756.0502 675.5958,-766.0502 682.5958,-766.0501"/>
</g>
<!-- RebinnedSample -->
<g id="node11" class="node">
<title>RebinnedSample</title>
<ellipse fill="#f0e68c" stroke="#000000" cx="1000.0957" cy="-738" rx="78.7863" ry="18"/>
<text text-anchor="middle" x="1000.0957" y="-734.3" font-family="Helvetica,sans-Serif" font-size="14.00" fill="#000000">RebinnedSample</text>
</g>
<!-- RebinnedSample2 -->
<g id="node12" class="node">
<title>RebinnedSample2</title>
<ellipse fill="#f0e68c" stroke="#000000" cx="279.0957" cy="-592" rx="78.7863" ry="18"/>
<text text-anchor="middle" x="279.0957" y="-588.3" font-family="Helvetica,sans-Serif" font-size="14.00" fill="#000000">RebinnedSample</text>
</g>
<!-- Fit -->
<g id="node24" class="node">
<title>Fit</title>
<path fill="#87cefa" stroke="#000000" d="M260.0957,-537C260.0957,-537 230.0957,-537 230.0957,-537 224.0957,-537 218.0957,-531 218.0957,-525 218.0957,-525 218.0957,-513 218.0957,-513 218.0957,-507 224.0957,-501 230.0957,-501 230.0957,-501 260.0957,-501 260.0957,-501 266.0957,-501 272.0957,-507 272.0957,-513 272.0957,-513 272.0957,-525 272.0957,-525 272.0957,-531 266.0957,-537 260.0957,-537"/>
<text text-anchor="middle" x="245.0957" y="-515.3" font-family="Helvetica,sans-Serif" font-size="14.00" fill="#000000">Fit</text>
</g>
<!-- RebinnedSample2&#45;&gt;Fit -->
<g id="edge28" class="edge">
<title>RebinnedSample2&#45;&gt;Fit</title>
<path fill="none" stroke="#000000" d="M270.6912,-573.9551C266.809,-565.6196 262.1151,-555.5416 257.8127,-546.3042"/>
<polygon fill="#000000" stroke="#000000" points="260.9162,-544.6776 253.5214,-537.0904 254.5707,-547.6331 260.9162,-544.6776"/>
</g>
<!-- RebinnedResolution -->
<g id="node13" class="node">
<title>RebinnedResolution</title>
<ellipse fill="#f0e68c" stroke="#000000" cx="1186.0957" cy="-738" rx="89.8845" ry="18"/>
<text text-anchor="middle" x="1186.0957" y="-734.3" font-family="Helvetica,sans-Serif" font-size="14.00" fill="#000000">RebinnedResolution</text>
</g>
<!-- RebinnedResolution&#45;&gt;ConstructConvFitFunction -->
<g id="edge25" class="edge">
<title>RebinnedResolution&#45;&gt;ConstructConvFitFunction</title>
<path fill="none" stroke="#000000" d="M1121.3499,-725.5359C1110.2752,-723.5679 1098.8692,-721.6433 1088.0957,-720 969.4613,-701.9042 832.5807,-685.9292 740.8123,-675.9232"/>
<polygon fill="#000000" stroke="#000000" points="741.0048,-672.4236 730.6854,-674.8232 740.2489,-679.3827 741.0048,-672.4236"/>
</g>
<!-- SpecMax -->
<g id="node18" class="node">
<title>SpecMax</title>
<ellipse fill="#f0e68c" stroke="#000000" cx="48.0957" cy="-846" rx="48.1917" ry="18"/>
<text text-anchor="middle" x="48.0957" y="-842.3" font-family="Helvetica,sans-Serif" font-size="14.00" fill="#000000">SpecMax</text>
</g>
<!-- qValues&#45;&gt;SpecMax -->
<g id="edge19" class="edge">
<title>qValues&#45;&gt;SpecMax</title>
<path fill="none" stroke="#000000" d="M323.7229,-923.1047C267.9595,-907.5053 159.4988,-877.1642 96.5389,-859.5516"/>
<polygon fill="#000000" stroke="#000000" points="97.4132,-856.1619 86.84,-856.8384 95.5273,-862.9031 97.4132,-856.1619"/>
<text text-anchor="middle" x="277.5957" y="-885.8" font-family="Helvetica,sans-Serif" font-size="14.00" fill="#000000">Length of qValues</text>
</g>
<!-- CreateWorkspace -->
<g id="node26" class="node">
<title>CreateWorkspace</title>
<path fill="#87cefa" stroke="#000000" d="M244.5957,-182C244.5957,-182 143.5957,-182 143.5957,-182 137.5957,-182 131.5957,-176 131.5957,-170 131.5957,-170 131.5957,-158 131.5957,-158 131.5957,-152 137.5957,-146 143.5957,-146 143.5957,-146 244.5957,-146 244.5957,-146 250.5957,-146 256.5957,-152 256.5957,-158 256.5957,-158 256.5957,-170 256.5957,-170 256.5957,-176 250.5957,-182 244.5957,-182"/>
<text text-anchor="middle" x="194.0957" y="-160.3" font-family="Helvetica,sans-Serif" font-size="14.00" fill="#000000">CreateWorkspace</text>
</g>
<!-- qValues&#45;&gt;CreateWorkspace -->
<g id="edge42" class="edge">
<title>qValues&#45;&gt;CreateWorkspace</title>
<path fill="none" stroke="#000000" d="M369.7513,-915.3663C379.0601,-898.2642 391.0957,-871.2668 391.0957,-846 391.0957,-846 391.0957,-846 391.0957,-251 391.0957,-236.0808 314.5132,-205.9449 256.8455,-185.3671"/>
<polygon fill="#000000" stroke="#000000" points="258.0015,-182.0636 247.4068,-182.0236 255.6641,-188.6618 258.0015,-182.0636"/>
</g>
<!-- lorHeights&#45;&gt;ConstructConvFitFunction -->
<g id="edge23" class="edge">
<title>lorHeights&#45;&gt;ConstructConvFitFunction</title>
<path fill="none" stroke="#000000" d="M531.2969,-721.2523C550.0666,-711.1774 574.1892,-698.2293 594.5583,-687.2958"/>
<polygon fill="#000000" stroke="#000000" points="596.4646,-690.245 603.6203,-682.4317 593.154,-684.0773 596.4646,-690.245"/>
</g>
<!-- lorWidths&#45;&gt;ConstructConvFitFunction -->
<g id="edge24" class="edge">
<title>lorWidths&#45;&gt;ConstructConvFitFunction</title>
<path fill="none" stroke="#000000" d="M668.4665,-719.9551C663.4532,-711.4441 657.3698,-701.1165 651.836,-691.7219"/>
<polygon fill="#000000" stroke="#000000" points="654.8428,-689.9303 646.7517,-683.0904 648.8114,-693.4831 654.8428,-689.9303"/>
</g>
<!-- rebinParam&#45;&gt;Rebin -->
<g id="edge11" class="edge">
<title>rebinParam&#45;&gt;Rebin</title>
<path fill="none" stroke="#000000" d="M1152.0054,-914.9735C1158.0015,-902.8418 1166.0149,-886.6287 1172.7658,-872.9698"/>
<polygon fill="#000000" stroke="#000000" points="1175.9043,-874.519 1177.1975,-864.0034 1169.6289,-871.4173 1175.9043,-874.519"/>
</g>
<!-- CurrentSpec -->
<g id="node19" class="node">
<title>CurrentSpec</title>
<ellipse fill="#f0e68c" stroke="#000000" cx="147.0957" cy="-738" rx="59.5901" ry="18"/>
<text text-anchor="middle" x="147.0957" y="-734.3" font-family="Helvetica,sans-Serif" font-size="14.00" fill="#000000">CurrentSpec</text>
</g>
<!-- SpecMax&#45;&gt;CurrentSpec -->
<g id="edge20" class="edge">
<title>SpecMax&#45;&gt;CurrentSpec</title>
<path fill="none" stroke="#000000" d="M64.0018,-828.6479C80.2148,-810.961 105.5317,-783.3426 123.9621,-763.2367"/>
<polygon fill="#000000" stroke="#000000" points="126.723,-765.4044 130.9003,-755.6678 121.5629,-760.6743 126.723,-765.4044"/>
</g>
<!-- SpecMax&#45;&gt;CreateWorkspace -->
<g id="edge41" class="edge">
<title>SpecMax&#45;&gt;CreateWorkspace</title>
<path fill="none" stroke="#000000" d="M48.0957,-827.655C48.0957,-806.168 48.0957,-769.5 48.0957,-738 48.0957,-738 48.0957,-738 48.0957,-251 48.0957,-213.0799 84.8904,-191.3071 121.5368,-179.0257"/>
<polygon fill="#000000" stroke="#000000" points="122.8358,-182.2866 131.3313,-175.9559 120.7422,-175.607 122.8358,-182.2866"/>
</g>
<!-- CurrentSpec&#45;&gt;ConstructConvFitFunction -->
<g id="edge21" class="edge">
<title>CurrentSpec&#45;&gt;ConstructConvFitFunction</title>
<path fill="none" stroke="#000000" d="M200.8261,-729.9789C283.4232,-717.6485 442.6348,-693.8807 543.9067,-678.7624"/>
<polygon fill="#000000" stroke="#000000" points="544.4523,-682.2198 553.8259,-677.2816 543.4187,-675.2965 544.4523,-682.2198"/>
</g>
<!-- CurrentSpec&#45;&gt;Fit -->
<g id="edge29" class="edge">
<title>CurrentSpec&#45;&gt;Fit</title>
<path fill="none" stroke="#000000" d="M148.9395,-719.6185C152.7581,-688.009 163.5981,-622.118 191.0957,-574 197.3721,-563.0171 206.3763,-552.6458 215.2381,-543.932"/>
<polygon fill="#000000" stroke="#000000" points="217.6965,-546.4247 222.5854,-537.0253 212.902,-541.3244 217.6965,-546.4247"/>
</g>
<!-- FitFunctionString -->
<g id="node20" class="node">
<title>FitFunctionString</title>
<ellipse fill="#f0e68c" stroke="#000000" cx="513.0957" cy="-592" rx="77.1866" ry="18"/>
<text text-anchor="middle" x="513.0957" y="-588.3" font-family="Helvetica,sans-Serif" font-size="14.00" fill="#000000">FitFunctionString</text>
</g>
<!-- FitFunctionString&#45;&gt;Fit -->
<g id="edge27" class="edge">
<title>FitFunctionString&#45;&gt;Fit</title>
<path fill="none" stroke="#000000" d="M462.687,-578.2693C410.1375,-563.9554 329.0315,-541.8631 282.106,-529.0812"/>
<polygon fill="#000000" stroke="#000000" points="282.9217,-525.6759 272.3534,-526.4247 281.082,-532.4298 282.9217,-525.6759"/>
</g>
<!-- ConstructConvFitFunction&#45;&gt;FitFunctionString -->
<g id="edge26" class="edge">
<title>ConstructConvFitFunction&#45;&gt;FitFunctionString</title>
<path fill="none" stroke="#000000" d="M606.6342,-647.5147C589.8092,-637.5291 568.5456,-624.9093 550.545,-614.226"/>
<polygon fill="#000000" stroke="#000000" points="551.8559,-610.934 541.4701,-608.8401 548.2832,-616.9537 551.8559,-610.934"/>
</g>
<!-- End -->
<g id="node22" class="node">
<title>End</title>
<path fill="#87cefa" stroke="#000000" d="M565.0957,-864C565.0957,-864 535.0957,-864 535.0957,-864 529.0957,-864 523.0957,-858 523.0957,-852 523.0957,-852 523.0957,-840 523.0957,-840 523.0957,-834 529.0957,-828 535.0957,-828 535.0957,-828 565.0957,-828 565.0957,-828 571.0957,-828 577.0957,-834 577.0957,-840 577.0957,-840 577.0957,-852 577.0957,-852 577.0957,-858 571.0957,-864 565.0957,-864"/>
<text text-anchor="middle" x="550.0957" y="-842.3" font-family="Helvetica,sans-Serif" font-size="14.00" fill="#000000">End</text>
</g>
<!-- Rebin&#45;&gt;RebinnedSample -->
<g id="edge12" class="edge">
<title>Rebin&#45;&gt;RebinnedSample</title>
<path fill="none" stroke="#000000" d="M1159.0497,-830.2959C1127.0977,-811.7431 1073.7462,-780.7648 1037.7622,-759.8708"/>
<polygon fill="#000000" stroke="#000000" points="1039.4169,-756.7844 1029.0115,-754.7898 1035.9019,-762.838 1039.4169,-756.7844"/>
</g>
<!-- Rebin&#45;&gt;RebinnedResolution -->
<g id="edge13" class="edge">
<title>Rebin&#45;&gt;RebinnedResolution</title>
<path fill="none" stroke="#000000" d="M1186.0957,-827.6793C1186.0957,-810.821 1186.0957,-785.5651 1186.0957,-766.147"/>
<polygon fill="#000000" stroke="#000000" points="1189.5958,-766.0501 1186.0957,-756.0502 1182.5958,-766.0502 1189.5958,-766.0501"/>
</g>
<!-- FitOutputWorkspace -->
<g id="node31" class="node">
<title>FitOutputWorkspace</title>
<ellipse fill="#d3d3d3" stroke="#000000" cx="211.0957" cy="-432" rx="91.784" ry="18"/>
<text text-anchor="middle" x="211.0957" y="-428.3" font-family="Helvetica,sans-Serif" font-size="14.00" fill="#000000">FitOutputWorkspace</text>
</g>
<!-- Fit&#45;&gt;FitOutputWorkspace -->
<g id="edge30" class="edge">
<title>Fit&#45;&gt;FitOutputWorkspace</title>
<path fill="none" stroke="#000000" d="M238.0509,-500.9735C233.3554,-488.9585 227.0953,-472.9401 221.7899,-459.3646"/>
<polygon fill="#000000" stroke="#000000" points="225.0315,-458.0434 218.1315,-450.0034 218.5116,-460.5914 225.0315,-458.0434"/>
</g>
<!-- DeleteWorkspace -->
<g id="node25" class="node">
<title>DeleteWorkspace</title>
<path fill="#87cefa" stroke="#000000" d="M351.0957,-377C351.0957,-377 251.0957,-377 251.0957,-377 245.0957,-377 239.0957,-371 239.0957,-365 239.0957,-365 239.0957,-353 239.0957,-353 239.0957,-347 245.0957,-341 251.0957,-341 251.0957,-341 351.0957,-341 351.0957,-341 357.0957,-341 363.0957,-347 363.0957,-353 363.0957,-353 363.0957,-365 363.0957,-365 363.0957,-371 357.0957,-377 351.0957,-377"/>
<text text-anchor="middle" x="301.0957" y="-355.3" font-family="Helvetica,sans-Serif" font-size="14.00" fill="#000000">DeleteWorkspace</text>
</g>
<!-- processedAll -->
<g id="node30" class="node">
<title>processedAll</title>
<polygon fill="#32cd32" stroke="#000000" points="636.0957,-269 419.2535,-251 636.0957,-233 852.938,-251 636.0957,-269"/>
<text text-anchor="middle" x="636.0957" y="-247.3" font-family="Helvetica,sans-Serif" font-size="14.00" fill="#000000">Have all the spectra been processed</text>
</g>
<!-- DeleteWorkspace&#45;&gt;processedAll -->
<g id="edge35" class="edge">
<title>DeleteWorkspace&#45;&gt;processedAll</title>
<path fill="none" stroke="#000000" d="M357.1672,-340.9232C419.7557,-320.7454 520.3323,-288.3207 582.0758,-268.4154"/>
<polygon fill="#000000" stroke="#000000" points="583.1964,-271.7316 591.6401,-265.332 581.0485,-265.0692 583.1964,-271.7316"/>
</g>
<!-- CreateWorkspace&#45;&gt;CopyLogs -->
<g id="edge44" class="edge">
<title>CreateWorkspace&#45;&gt;CopyLogs</title>
<path fill="none" stroke="#000000" d="M215.8485,-145.9551C226.8487,-136.8299 240.3663,-125.6165 252.316,-115.7036"/>
<polygon fill="#000000" stroke="#000000" points="254.8263,-118.1688 260.2882,-109.0904 250.357,-112.7812 254.8263,-118.1688"/>
</g>
<!-- CopyLogs&#45;&gt;OutputWorkspace -->
<g id="edge45" class="edge">
<title>CopyLogs&#45;&gt;OutputWorkspace</title>
<path fill="none" stroke="#000000" d="M282.0957,-72.9551C282.0957,-64.8828 282.0957,-55.1764 282.0957,-46.1817"/>
<polygon fill="#000000" stroke="#000000" points="285.5958,-46.0903 282.0957,-36.0904 278.5958,-46.0904 285.5958,-46.0903"/>
</g>
<!-- isConvFitProg&#45;&gt;Delta -->
<g id="edge3" class="edge">
<title>isConvFitProg&#45;&gt;Delta</title>
<path fill="none" stroke="#000000" d="M687.4346,-924.2515C758.0406,-914.6553 860.9855,-900.1873 864.0957,-897 883.5637,-877.0492 884.5187,-843.8535 882.0685,-820.1272"/>
<polygon fill="#000000" stroke="#000000" points="885.5094,-819.4432 880.7574,-809.9738 878.567,-820.3398 885.5094,-819.4432"/>
<text text-anchor="middle" x="940.0957" y="-885.8" font-family="Helvetica,sans-Serif" font-size="14.00" fill="#000000">Extract delta_function</text>
</g>
<!-- isConvFitProg&#45;&gt;End -->
<g id="edge2" class="edge">
<title>isConvFitProg&#45;&gt;End</title>
<path fill="none" stroke="#000000" d="M565.5715,-922.9191C538.0937,-916.7503 509.2523,-907.9367 501.0957,-897 492.6052,-885.6155 501.7895,-874.1075 514.4105,-864.9115"/>
<polygon fill="#000000" stroke="#000000" points="516.6196,-867.6477 523.0493,-859.2268 512.7717,-861.8001 516.6196,-867.6477"/>
<text text-anchor="middle" x="593.0957" y="-885.8" font-family="Helvetica,sans-Serif" font-size="14.00" fill="#000000">No : Program must be ConvFit</text>
</g>
<!-- hasLor&#45;&gt;Lorentzians -->
<g id="edge6" class="edge">
<title>hasLor&#45;&gt;Lorentzians</title>
<path fill="none" stroke="#000000" d="M973.0204,-923.1292C1005.9789,-915.4259 1035.5349,-902.5074 1017.0957,-882 999.2688,-862.1735 838.1609,-852.3988 744.9571,-848.3646"/>
<polygon fill="#000000" stroke="#000000" points="744.9113,-844.8597 734.7726,-847.9349 744.6162,-851.8535 744.9113,-844.8597"/>
<text text-anchor="middle" x="1040.5957" y="-885.8" font-family="Helvetica,sans-Serif" font-size="14.00" fill="#000000">1 or 2</text>
</g>
<!-- hasLor&#45;&gt;End -->
<g id="edge5" class="edge">
<title>hasLor&#45;&gt;End</title>
<path fill="none" stroke="#000000" d="M824.7928,-925.5543C788.0748,-920.3742 744.9841,-911.6481 708.0957,-897 696.7532,-892.496 696.2732,-886.8993 685.0957,-882 655.2802,-868.9314 645.5451,-872.4076 614.0957,-864 605.265,-861.6392 595.773,-859.0164 586.8741,-856.5197"/>
<polygon fill="#000000" stroke="#000000" points="587.7204,-853.1219 577.1457,-853.7751 585.8197,-859.8589 587.7204,-853.1219"/>
<text text-anchor="middle" x="786.0957" y="-885.8" font-family="Helvetica,sans-Serif" font-size="14.00" fill="#000000">0 : Must have Lorentzians</text>
</g>
<!-- processedAll&#45;&gt;ConstructConvFitFunction -->
<g id="edge36" class="edge">
<title>processedAll&#45;&gt;ConstructConvFitFunction</title>
<path fill="none" stroke="#000000" d="M636.0957,-269.345C636.0957,-290.832 636.0957,-327.5 636.0957,-359 636.0957,-592 636.0957,-592 636.0957,-592 636.0957,-606.7004 636.0957,-623.066 636.0957,-636.5698"/>
<polygon fill="#000000" stroke="#000000" points="632.5958,-636.6996 636.0957,-646.6997 639.5958,-636.6997 632.5958,-636.6996"/>
<text text-anchor="middle" x="645.0957" y="-471.8" font-family="Helvetica,sans-Serif" font-size="14.00" fill="#000000">No</text>
</g>
<!-- processedAll&#45;&gt;CreateWorkspace -->
<g id="edge37" class="edge">
<title>processedAll&#45;&gt;CreateWorkspace</title>
<path fill="none" stroke="#000000" d="M581.2952,-237.4508C534.662,-226.2703 465.7855,-210.5792 405.0957,-200 346.311,-189.7529 328.4498,-193.3263 266.6074,-182.154"/>
<polygon fill="#000000" stroke="#000000" points="267.1961,-178.7035 256.7242,-180.3129 265.9141,-185.5851 267.1961,-178.7035"/>
<text text-anchor="middle" x="494.0957" y="-203.8" font-family="Helvetica,sans-Serif" font-size="14.00" fill="#000000">Yes</text>
</g>
<!-- FitOutputWorkspace&#45;&gt;DeleteWorkspace -->
<g id="edge34" class="edge">
<title>FitOutputWorkspace&#45;&gt;DeleteWorkspace</title>
<path fill="none" stroke="#000000" d="M232.8822,-414.3287C244.3191,-405.0521 258.5109,-393.541 270.9831,-383.4247"/>
<polygon fill="#000000" stroke="#000000" points="273.323,-386.0334 278.8846,-377.0157 268.9134,-380.5969 273.323,-386.0334"/>
</g>
<!-- x_data -->
<g id="node32" class="node">
<title>x_data</title>
<ellipse fill="#d3d3d3" stroke="#000000" cx="100.0957" cy="-305" rx="37.0935" ry="18"/>
<text text-anchor="middle" x="100.0957" y="-301.3" font-family="Helvetica,sans-Serif" font-size="14.00" fill="#000000">x_data</text>
</g>
<!-- FitOutputWorkspace&#45;&gt;x_data -->
<g id="edge31" class="edge">
<title>FitOutputWorkspace&#45;&gt;x_data</title>
<path fill="none" stroke="#000000" d="M195.4276,-414.0734C176.0148,-391.8624 142.8604,-353.929 121.2159,-329.1645"/>
<polygon fill="#000000" stroke="#000000" points="123.841,-326.8496 114.6249,-321.6234 118.5704,-331.4562 123.841,-326.8496"/>
</g>
<!-- y_data -->
<g id="node33" class="node">
<title>y_data</title>
<ellipse fill="#d3d3d3" stroke="#000000" cx="179.0957" cy="-305" rx="37.0935" ry="18"/>
<text text-anchor="middle" x="179.0957" y="-301.3" font-family="Helvetica,sans-Serif" font-size="14.00" fill="#000000">y_data</text>
</g>
<!-- FitOutputWorkspace&#45;&gt;y_data -->
<g id="edge32" class="edge">
<title>FitOutputWorkspace&#45;&gt;y_data</title>
<path fill="none" stroke="#000000" d="M203.3422,-413.9C201.1118,-408.2395 198.819,-401.9239 197.0957,-396 191.0416,-375.188 186.3781,-351.1075 183.3163,-332.9474"/>
<polygon fill="#000000" stroke="#000000" points="186.7599,-332.3172 181.7003,-323.0086 179.8507,-333.4407 186.7599,-332.3172"/>
</g>
<!-- e_data -->
<g id="node34" class="node">
<title>e_data</title>
<ellipse fill="#d3d3d3" stroke="#000000" cx="238.0957" cy="-251" rx="37.8943" ry="18"/>
<text text-anchor="middle" x="238.0957" y="-247.3" font-family="Helvetica,sans-Serif" font-size="14.00" fill="#000000">e_data</text>
</g>
<!-- FitOutputWorkspace&#45;&gt;e_data -->
<g id="edge33" class="edge">
<title>FitOutputWorkspace&#45;&gt;e_data</title>
<path fill="none" stroke="#000000" d="M213.7833,-413.9833C218.4815,-382.4877 228.2219,-317.1909 233.8434,-279.5061"/>
<polygon fill="#000000" stroke="#000000" points="237.3652,-279.6194 235.379,-269.2125 230.4418,-278.5866 237.3652,-279.6194"/>
</g>
<!-- x_data&#45;&gt;CreateWorkspace -->
<g id="edge38" class="edge">
<title>x_data&#45;&gt;CreateWorkspace</title>
<path fill="none" stroke="#000000" d="M111.622,-287.7106C127.7243,-263.5571 157.1079,-219.4818 176.1059,-190.9847"/>
<polygon fill="#000000" stroke="#000000" points="179.2443,-192.5868 181.8792,-182.3248 173.42,-188.7039 179.2443,-192.5868"/>
</g>
<!-- y_data&#45;&gt;CreateWorkspace -->
<g id="edge39" class="edge">
<title>y_data&#45;&gt;CreateWorkspace</title>
<path fill="none" stroke="#000000" d="M181.026,-286.8554C183.5799,-262.8485 188.1079,-220.2861 191.106,-192.1035"/>
<polygon fill="#000000" stroke="#000000" points="194.5953,-192.3892 192.1729,-182.075 187.6346,-191.6486 194.5953,-192.3892"/>
</g>
<!-- e_data&#45;&gt;CreateWorkspace -->
<g id="edge40" class="edge">
<title>e_data&#45;&gt;CreateWorkspace</title>
<path fill="none" stroke="#000000" d="M229.1917,-233.3943C223.0708,-221.2917 214.8236,-204.9846 207.8618,-191.2193"/>
<polygon fill="#000000" stroke="#000000" points="210.9259,-189.5225 203.2894,-182.1785 204.6793,-192.6817 210.9259,-189.5225"/>
</g>
</g>
</svg>
