<?xml version="1.0" encoding="UTF-8" standalone="no"?>
<!DOCTYPE svg PUBLIC "-//W3C//DTD SVG 1.1//EN"
 "http://www.w3.org/Graphics/SVG/1.1/DTD/svg11.dtd">
<!-- Generated by graphviz version 3.0.0 (20220315.2325)
 -->
<!-- Title: OSIRISDiffractionReduction Pages: 1 -->
<svg width="1115pt" height="2216pt"
 viewBox="0.00 0.00 1115.00 2216.00" xmlns="http://www.w3.org/2000/svg" xmlns:xlink="http://www.w3.org/1999/xlink">
<g id="graph0" class="graph" transform="scale(1 1) rotate(0) translate(4 2212)">
<title>OSIRISDiffractionReduction</title>
<polygon fill="white" stroke="transparent" points="-4,4 -4,-2212 1111,-2212 1111,4 -4,4"/>
<text text-anchor="middle" x="553.5" y="-2192.8" font-family="Helvetica,sans-Serif" font-size="14.00">OSIRISDiffractionReduction Flowchart</text>
<!-- CalibrationFile -->
<g id="node1" class="node">
<title>CalibrationFile</title>
<ellipse fill="khaki" stroke="black" cx="397" cy="-1155" rx="74.99" ry="18"/>
<text text-anchor="middle" x="397" y="-1151.3" font-family="Helvetica,sans-Serif" font-size="14.00">CalibrationFile</text>
</g>
<!-- AlignDetectors -->
<g id="node26" class="node">
<title>AlignDetectors</title>
<path fill="lightskyblue" stroke="black" d="M356.5,-1100C356.5,-1100 261.5,-1100 261.5,-1100 255.5,-1100 249.5,-1094 249.5,-1088 249.5,-1088 249.5,-1076 249.5,-1076 249.5,-1070 255.5,-1064 261.5,-1064 261.5,-1064 356.5,-1064 356.5,-1064 362.5,-1064 368.5,-1070 368.5,-1076 368.5,-1076 368.5,-1088 368.5,-1088 368.5,-1094 362.5,-1100 356.5,-1100"/>
<text text-anchor="middle" x="309" y="-1078.3" font-family="Helvetica,sans-Serif" font-size="14.00">AlignDetectors</text>
</g>
<!-- CalibrationFile&#45;&gt;AlignDetectors -->
<g id="edge27" class="edge">
<title>CalibrationFile&#45;&gt;AlignDetectors</title>
<path fill="none" stroke="black" d="M376.59,-1137.53C365.18,-1128.33 350.76,-1116.69 338.17,-1106.54"/>
<polygon fill="black" stroke="black" points="340.2,-1103.67 330.22,-1100.12 335.8,-1109.12 340.2,-1103.67"/>
</g>
<!-- DiffractionFocussing -->
<g id="node27" class="node">
<title>DiffractionFocussing</title>
<path fill="lightskyblue" stroke="black" d="M420,-1027C420,-1027 286,-1027 286,-1027 280,-1027 274,-1021 274,-1015 274,-1015 274,-1003 274,-1003 274,-997 280,-991 286,-991 286,-991 420,-991 420,-991 426,-991 432,-997 432,-1003 432,-1003 432,-1015 432,-1015 432,-1021 426,-1027 420,-1027"/>
<text text-anchor="middle" x="353" y="-1005.3" font-family="Helvetica,sans-Serif" font-size="14.00">DiffractionFocussing</text>
</g>
<!-- CalibrationFile&#45;&gt;DiffractionFocussing -->
<g id="edge29" class="edge">
<title>CalibrationFile&#45;&gt;DiffractionFocussing</title>
<path fill="none" stroke="black" d="M394.23,-1136.81C391.04,-1118.49 385.17,-1088.78 377,-1064 373.97,-1054.8 369.9,-1045.03 365.99,-1036.38"/>
<polygon fill="black" stroke="black" points="369.09,-1034.74 361.68,-1027.16 362.74,-1037.7 369.09,-1034.74"/>
</g>
<!-- OutputWorkspace -->
<g id="node2" class="node">
<title>OutputWorkspace</title>
<ellipse fill="khaki" stroke="black" cx="494" cy="-18" rx="92.08" ry="18"/>
<text text-anchor="middle" x="494" y="-14.3" font-family="Helvetica,sans-Serif" font-size="14.00">OutputWorkspace</text>
</g>
<!-- SampleRuns -->
<g id="node3" class="node">
<title>SampleRuns</title>
<ellipse fill="khaki" stroke="black" cx="93" cy="-2167" rx="66.89" ry="18"/>
<text text-anchor="middle" x="93" y="-2163.3" font-family="Helvetica,sans-Serif" font-size="14.00">SampleRuns</text>
</g>
<!-- Load -->
<g id="node21" class="node">
<title>Load</title>
<path fill="lightskyblue" stroke="black" d="M344,-2112C344,-2112 314,-2112 314,-2112 308,-2112 302,-2106 302,-2100 302,-2100 302,-2088 302,-2088 302,-2082 308,-2076 314,-2076 314,-2076 344,-2076 344,-2076 350,-2076 356,-2082 356,-2088 356,-2088 356,-2100 356,-2100 356,-2106 350,-2112 344,-2112"/>
<text text-anchor="middle" x="329" y="-2090.3" font-family="Helvetica,sans-Serif" font-size="14.00">Load</text>
</g>
<!-- SampleRuns&#45;&gt;Load -->
<g id="edge1" class="edge">
<title>SampleRuns&#45;&gt;Load</title>
<path fill="none" stroke="black" d="M135.74,-2153.14C180.38,-2139.71 249.68,-2118.86 292.03,-2106.12"/>
<polygon fill="black" stroke="black" points="293.11,-2109.45 301.67,-2103.22 291.09,-2102.75 293.11,-2109.45"/>
</g>
<!-- VanadiumRuns -->
<g id="node4" class="node">
<title>VanadiumRuns</title>
<ellipse fill="khaki" stroke="black" cx="257" cy="-2167" rx="78.79" ry="18"/>
<text text-anchor="middle" x="257" y="-2163.3" font-family="Helvetica,sans-Serif" font-size="14.00">VanadiumRuns</text>
</g>
<!-- VanadiumRuns&#45;&gt;Load -->
<g id="edge2" class="edge">
<title>VanadiumRuns&#45;&gt;Load</title>
<path fill="none" stroke="black" d="M274.06,-2149.17C283.08,-2140.29 294.3,-2129.21 304.26,-2119.4"/>
<polygon fill="black" stroke="black" points="306.9,-2121.71 311.56,-2112.2 301.98,-2116.73 306.9,-2121.71"/>
</g>
<!-- VanadiumWorkspaces -->
<g id="node5" class="node">
<title>VanadiumWorkspaces</title>
<ellipse fill="khaki" stroke="black" cx="216" cy="-2021" rx="110.48" ry="18"/>
<text text-anchor="middle" x="216" y="-2017.3" font-family="Helvetica,sans-Serif" font-size="14.00">VanadiumWorkspaces</text>
</g>
<!-- VanadiumWorkspaceMap -->
<g id="node16" class="node">
<title>VanadiumWorkspaceMap</title>
<ellipse fill="khaki" stroke="black" cx="214" cy="-1894" rx="124.58" ry="18"/>
<text text-anchor="middle" x="214" y="-1890.3" font-family="Helvetica,sans-Serif" font-size="14.00">VanadiumWorkspaceMap</text>
</g>
<!-- VanadiumWorkspaces&#45;&gt;VanadiumWorkspaceMap -->
<g id="edge21" class="edge">
<title>VanadiumWorkspaces&#45;&gt;VanadiumWorkspaceMap</title>
<path fill="none" stroke="black" d="M215.73,-2002.88C215.39,-1982.15 214.83,-1946.95 214.44,-1922.42"/>
<polygon fill="black" stroke="black" points="217.94,-1922.26 214.28,-1912.31 210.94,-1922.37 217.94,-1922.26"/>
</g>
<!-- SampleWorkspaces -->
<g id="node6" class="node">
<title>SampleWorkspaces</title>
<ellipse fill="khaki" stroke="black" cx="443" cy="-2021" rx="98.58" ry="18"/>
<text text-anchor="middle" x="443" y="-2017.3" font-family="Helvetica,sans-Serif" font-size="14.00">SampleWorkspaces</text>
</g>
<!-- useContainer -->
<g id="node33" class="node">
<title>useContainer</title>
<polygon fill="limegreen" stroke="black" points="443,-1966 341.79,-1948 443,-1930 544.21,-1948 443,-1966"/>
<text text-anchor="middle" x="443" y="-1944.3" font-family="Helvetica,sans-Serif" font-size="14.00">Container file</text>
</g>
<!-- SampleWorkspaces&#45;&gt;useContainer -->
<g id="edge7" class="edge">
<title>SampleWorkspaces&#45;&gt;useContainer</title>
<path fill="none" stroke="black" d="M443,-2002.81C443,-1994.79 443,-1985.05 443,-1976.07"/>
<polygon fill="black" stroke="black" points="446.5,-1976.03 443,-1966.03 439.5,-1976.03 446.5,-1976.03"/>
</g>
<!-- SampleWorkspaces1 -->
<g id="node7" class="node">
<title>SampleWorkspaces1</title>
<ellipse fill="khaki" stroke="black" cx="655" cy="-1534" rx="98.58" ry="18"/>
<text text-anchor="middle" x="655" y="-1530.3" font-family="Helvetica,sans-Serif" font-size="14.00">SampleWorkspaces</text>
</g>
<!-- Minus -->
<g id="node24" class="node">
<title>Minus</title>
<path fill="lightskyblue" stroke="black" d="M568,-1479C568,-1479 534,-1479 534,-1479 528,-1479 522,-1473 522,-1467 522,-1467 522,-1455 522,-1455 522,-1449 528,-1443 534,-1443 534,-1443 568,-1443 568,-1443 574,-1443 580,-1449 580,-1455 580,-1455 580,-1467 580,-1467 580,-1473 574,-1479 568,-1479"/>
<text text-anchor="middle" x="551" y="-1457.3" font-family="Helvetica,sans-Serif" font-size="14.00">Minus</text>
</g>
<!-- SampleWorkspaces1&#45;&gt;Minus -->
<g id="edge18" class="edge">
<title>SampleWorkspaces1&#45;&gt;Minus</title>
<path fill="none" stroke="black" d="M630.88,-1516.53C617.13,-1507.15 599.7,-1495.25 584.63,-1484.96"/>
<polygon fill="black" stroke="black" points="586.31,-1481.87 576.08,-1479.12 582.36,-1487.65 586.31,-1481.87"/>
</g>
<!-- SampleWorkspace -->
<g id="node8" class="node">
<title>SampleWorkspace</title>
<ellipse fill="khaki" stroke="black" cx="223" cy="-630" rx="94.48" ry="18"/>
<text text-anchor="middle" x="223" y="-626.3" font-family="Helvetica,sans-Serif" font-size="14.00">SampleWorkspace</text>
</g>
<!-- Divide -->
<g id="node29" class="node">
<title>Divide</title>
<path fill="lightskyblue" stroke="black" d="M252,-575C252,-575 216,-575 216,-575 210,-575 204,-569 204,-563 204,-563 204,-551 204,-551 204,-545 210,-539 216,-539 216,-539 252,-539 252,-539 258,-539 264,-545 264,-551 264,-551 264,-563 264,-563 264,-569 258,-575 252,-575"/>
<text text-anchor="middle" x="234" y="-553.3" font-family="Helvetica,sans-Serif" font-size="14.00">Divide</text>
</g>
<!-- SampleWorkspace&#45;&gt;Divide -->
<g id="edge37" class="edge">
<title>SampleWorkspace&#45;&gt;Divide</title>
<path fill="none" stroke="black" d="M225.66,-611.81C226.91,-603.79 228.42,-594.05 229.81,-585.07"/>
<polygon fill="black" stroke="black" points="233.29,-585.45 231.36,-575.03 226.37,-584.38 233.29,-585.45"/>
</g>
<!-- ContainerFiles -->
<g id="node9" class="node">
<title>ContainerFiles</title>
<ellipse fill="khaki" stroke="black" cx="443" cy="-1840" rx="74.99" ry="18"/>
<text text-anchor="middle" x="443" y="-1836.3" font-family="Helvetica,sans-Serif" font-size="14.00">ContainerFiles</text>
</g>
<!-- Load1 -->
<g id="node22" class="node">
<title>Load1</title>
<path fill="lightskyblue" stroke="black" d="M603,-1785C603,-1785 573,-1785 573,-1785 567,-1785 561,-1779 561,-1773 561,-1773 561,-1761 561,-1761 561,-1755 567,-1749 573,-1749 573,-1749 603,-1749 603,-1749 609,-1749 615,-1755 615,-1761 615,-1761 615,-1773 615,-1773 615,-1779 609,-1785 603,-1785"/>
<text text-anchor="middle" x="588" y="-1763.3" font-family="Helvetica,sans-Serif" font-size="14.00">Load</text>
</g>
<!-- ContainerFiles&#45;&gt;Load1 -->
<g id="edge9" class="edge">
<title>ContainerFiles&#45;&gt;Load1</title>
<path fill="none" stroke="black" d="M474.46,-1823.59C497.26,-1812.43 528.12,-1797.32 551.92,-1785.67"/>
<polygon fill="black" stroke="black" points="553.54,-1788.77 560.98,-1781.23 550.46,-1782.48 553.54,-1788.77"/>
</g>
<!-- ContainerWorkspaces -->
<g id="node10" class="node">
<title>ContainerWorkspaces</title>
<ellipse fill="khaki" stroke="black" cx="429" cy="-1534" rx="109.38" ry="18"/>
<text text-anchor="middle" x="429" y="-1530.3" font-family="Helvetica,sans-Serif" font-size="14.00">ContainerWorkspaces</text>
</g>
<!-- ContainerWorkspaces&#45;&gt;Minus -->
<g id="edge17" class="edge">
<title>ContainerWorkspaces&#45;&gt;Minus</title>
<path fill="none" stroke="black" d="M457.3,-1516.53C473.72,-1506.97 494.64,-1494.8 512.54,-1484.38"/>
<polygon fill="black" stroke="black" points="514.7,-1487.17 521.58,-1479.12 511.18,-1481.12 514.7,-1487.17"/>
</g>
<!-- ContainerScaleFactor -->
<g id="node11" class="node">
<title>ContainerScaleFactor</title>
<ellipse fill="khaki" stroke="black" cx="349" cy="-1694" rx="106.68" ry="18"/>
<text text-anchor="middle" x="349" y="-1690.3" font-family="Helvetica,sans-Serif" font-size="14.00">ContainerScaleFactor</text>
</g>
<!-- Scale -->
<g id="node23" class="node">
<title>Scale</title>
<path fill="lightskyblue" stroke="black" d="M444,-1625C444,-1625 414,-1625 414,-1625 408,-1625 402,-1619 402,-1613 402,-1613 402,-1601 402,-1601 402,-1595 408,-1589 414,-1589 414,-1589 444,-1589 444,-1589 450,-1589 456,-1595 456,-1601 456,-1601 456,-1613 456,-1613 456,-1619 450,-1625 444,-1625"/>
<text text-anchor="middle" x="429" y="-1603.3" font-family="Helvetica,sans-Serif" font-size="14.00">Scale</text>
</g>
<!-- ContainerScaleFactor&#45;&gt;Scale -->
<g id="edge14" class="edge">
<title>ContainerScaleFactor&#45;&gt;Scale</title>
<path fill="none" stroke="black" d="M365.19,-1675.8C376.9,-1663.36 392.89,-1646.36 405.94,-1632.5"/>
<polygon fill="black" stroke="black" points="408.53,-1634.86 412.83,-1625.18 403.43,-1630.06 408.53,-1634.86"/>
</g>
<!-- SampleWorkspaceMap -->
<g id="node12" class="node">
<title>SampleWorkspaceMap</title>
<ellipse fill="khaki" stroke="black" cx="551" cy="-1388" rx="113.18" ry="18"/>
<text text-anchor="middle" x="551" y="-1384.3" font-family="Helvetica,sans-Serif" font-size="14.00">SampleWorkspaceMap</text>
</g>
<!-- averageWorkspaces -->
<g id="node37" class="node">
<title>averageWorkspaces</title>
<polygon fill="lightseagreen" stroke="black" points="452,-1333 0,-1333 0,-1297 452,-1297 452,-1333"/>
<text text-anchor="middle" x="226" y="-1311.3" font-family="Helvetica,sans-Serif" font-size="14.00">Average together any workspaces that have the same DRange</text>
</g>
<!-- SampleWorkspaceMap&#45;&gt;averageWorkspaces -->
<g id="edge23" class="edge">
<title>SampleWorkspaceMap&#45;&gt;averageWorkspaces</title>
<path fill="none" stroke="black" d="M487.18,-1373.06C437.75,-1362.26 368.73,-1347.18 314.05,-1335.24"/>
<polygon fill="black" stroke="black" points="314.53,-1331.76 304.02,-1333.04 313.04,-1338.6 314.53,-1331.76"/>
</g>
<!-- SampleWorkspaceMap1 -->
<g id="node13" class="node">
<title>SampleWorkspaceMap1</title>
<ellipse fill="khaki" stroke="black" cx="353" cy="-863" rx="113.18" ry="18"/>
<text text-anchor="middle" x="353" y="-859.3" font-family="Helvetica,sans-Serif" font-size="14.00">SampleWorkspaceMap</text>
</g>
<!-- dRange -->
<g id="node41" class="node">
<title>dRange</title>
<ellipse fill="lightgrey" stroke="black" cx="353" cy="-776" rx="45.49" ry="18"/>
<text text-anchor="middle" x="353" y="-772.3" font-family="Helvetica,sans-Serif" font-size="14.00">dRange</text>
</g>
<!-- SampleWorkspaceMap1&#45;&gt;dRange -->
<g id="edge32" class="edge">
<title>SampleWorkspaceMap1&#45;&gt;dRange</title>
<path fill="none" stroke="black" d="M353,-844.8C353,-833.16 353,-817.55 353,-804.24"/>
<polygon fill="black" stroke="black" points="356.5,-804.18 353,-794.18 349.5,-804.18 356.5,-804.18"/>
<text text-anchor="middle" x="443" y="-815.8" font-family="Helvetica,sans-Serif" font-size="14.00">Extract dRange from map</text>
</g>
<!-- SampleWorkspaceMap2 -->
<g id="node14" class="node">
<title>SampleWorkspaceMap2</title>
<ellipse fill="khaki" stroke="black" cx="223" cy="-703" rx="113.18" ry="18"/>
<text text-anchor="middle" x="223" y="-699.3" font-family="Helvetica,sans-Serif" font-size="14.00">SampleWorkspaceMap</text>
</g>
<!-- SampleWorkspaceMap2&#45;&gt;SampleWorkspace -->
<g id="edge35" class="edge">
<title>SampleWorkspaceMap2&#45;&gt;SampleWorkspace</title>
<path fill="none" stroke="black" d="M223,-684.81C223,-676.79 223,-667.05 223,-658.07"/>
<polygon fill="black" stroke="black" points="226.5,-658.03 223,-648.03 219.5,-658.03 226.5,-658.03"/>
</g>
<!-- SampleWorkspaceMap3 -->
<g id="node15" class="node">
<title>SampleWorkspaceMap3</title>
<ellipse fill="khaki" stroke="black" cx="671" cy="-237" rx="113.18" ry="18"/>
<text text-anchor="middle" x="671" y="-233.3" font-family="Helvetica,sans-Serif" font-size="14.00">SampleWorkspaceMap</text>
</g>
<!-- getIntersection -->
<g id="node38" class="node">
<title>getIntersection</title>
<polygon fill="lightseagreen" stroke="black" points="916.5,-182 425.5,-182 425.5,-146 916.5,-146 916.5,-182"/>
<text text-anchor="middle" x="671" y="-160.3" font-family="Helvetica,sans-Serif" font-size="14.00">Create scalar data for where merge has combined overlapping data.</text>
</g>
<!-- SampleWorkspaceMap3&#45;&gt;getIntersection -->
<g id="edge47" class="edge">
<title>SampleWorkspaceMap3&#45;&gt;getIntersection</title>
<path fill="none" stroke="black" d="M671,-218.81C671,-210.79 671,-201.05 671,-192.07"/>
<polygon fill="black" stroke="black" points="674.5,-192.03 671,-182.03 667.5,-192.03 674.5,-192.03"/>
</g>
<!-- VanadiumWorkspaceMap&#45;&gt;averageWorkspaces -->
<g id="edge22" class="edge">
<title>VanadiumWorkspaceMap&#45;&gt;averageWorkspaces</title>
<path fill="none" stroke="black" d="M214,-1875.94C214,-1858.02 214,-1829.03 214,-1804 214,-1804 214,-1804 214,-1387 214,-1372.3 216.53,-1356.13 219.27,-1342.94"/>
<polygon fill="black" stroke="black" points="222.71,-1343.6 221.46,-1333.08 215.87,-1342.08 222.71,-1343.6"/>
</g>
<!-- SpecMin -->
<g id="node17" class="node">
<title>SpecMin</title>
<ellipse fill="khaki" stroke="black" cx="402" cy="-2167" rx="48.99" ry="18"/>
<text text-anchor="middle" x="402" y="-2163.3" font-family="Helvetica,sans-Serif" font-size="14.00">SpecMin</text>
</g>
<!-- SpecMin&#45;&gt;Load -->
<g id="edge3" class="edge">
<title>SpecMin&#45;&gt;Load</title>
<path fill="none" stroke="black" d="M385.44,-2149.89C376.09,-2140.8 364.24,-2129.27 353.8,-2119.13"/>
<polygon fill="black" stroke="black" points="356.13,-2116.5 346.52,-2112.04 351.25,-2121.52 356.13,-2116.5"/>
</g>
<!-- SpecMin1 -->
<g id="node18" class="node">
<title>SpecMin1</title>
<ellipse fill="khaki" stroke="black" cx="705" cy="-1840" rx="48.99" ry="18"/>
<text text-anchor="middle" x="705" y="-1836.3" font-family="Helvetica,sans-Serif" font-size="14.00">SpecMin</text>
</g>
<!-- SpecMin1&#45;&gt;Load1 -->
<g id="edge10" class="edge">
<title>SpecMin1&#45;&gt;Load1</title>
<path fill="none" stroke="black" d="M680.76,-1824.29C664.31,-1814.31 642.27,-1800.94 623.81,-1789.73"/>
<polygon fill="black" stroke="black" points="625.44,-1786.63 615.07,-1784.43 621.81,-1792.61 625.44,-1786.63"/>
</g>
<!-- SpecMax -->
<g id="node19" class="node">
<title>SpecMax</title>
<ellipse fill="khaki" stroke="black" cx="520" cy="-2167" rx="51.19" ry="18"/>
<text text-anchor="middle" x="520" y="-2163.3" font-family="Helvetica,sans-Serif" font-size="14.00">SpecMax</text>
</g>
<!-- SpecMax&#45;&gt;Load -->
<g id="edge4" class="edge">
<title>SpecMax&#45;&gt;Load</title>
<path fill="none" stroke="black" d="M485.85,-2153.31C452.06,-2140.75 400.5,-2121.58 365.81,-2108.68"/>
<polygon fill="black" stroke="black" points="366.66,-2105.26 356.06,-2105.06 364.22,-2111.83 366.66,-2105.26"/>
</g>
<!-- SpecMax1 -->
<g id="node20" class="node">
<title>SpecMax1</title>
<ellipse fill="khaki" stroke="black" cx="587" cy="-1840" rx="51.19" ry="18"/>
<text text-anchor="middle" x="587" y="-1836.3" font-family="Helvetica,sans-Serif" font-size="14.00">SpecMax</text>
</g>
<!-- SpecMax1&#45;&gt;Load1 -->
<g id="edge11" class="edge">
<title>SpecMax1&#45;&gt;Load1</title>
<path fill="none" stroke="black" d="M587.24,-1821.81C587.36,-1813.79 587.49,-1804.05 587.62,-1795.07"/>
<polygon fill="black" stroke="black" points="591.12,-1795.08 587.76,-1785.03 584.12,-1794.98 591.12,-1795.08"/>
</g>
<!-- Load&#45;&gt;VanadiumWorkspaces -->
<g id="edge5" class="edge">
<title>Load&#45;&gt;VanadiumWorkspaces</title>
<path fill="none" stroke="black" d="M301.93,-2075.99C286.73,-2066.44 267.58,-2054.41 251.22,-2044.13"/>
<polygon fill="black" stroke="black" points="252.78,-2040.98 242.46,-2038.62 249.06,-2046.91 252.78,-2040.98"/>
</g>
<!-- Load&#45;&gt;SampleWorkspaces -->
<g id="edge6" class="edge">
<title>Load&#45;&gt;SampleWorkspaces</title>
<path fill="none" stroke="black" d="M356.02,-2076.17C371.46,-2066.56 391.01,-2054.38 407.66,-2044.01"/>
<polygon fill="black" stroke="black" points="409.93,-2046.72 416.57,-2038.46 406.23,-2040.78 409.93,-2046.72"/>
</g>
<!-- scaleContainer -->
<g id="node34" class="node">
<title>scaleContainer</title>
<polygon fill="limegreen" stroke="black" points="588,-1712 473.21,-1694 588,-1676 702.79,-1694 588,-1712"/>
<text text-anchor="middle" x="588" y="-1690.3" font-family="Helvetica,sans-Serif" font-size="14.00">Scale Container</text>
</g>
<!-- Load1&#45;&gt;scaleContainer -->
<g id="edge12" class="edge">
<title>Load1&#45;&gt;scaleContainer</title>
<path fill="none" stroke="black" d="M588,-1748.81C588,-1740.79 588,-1731.05 588,-1722.07"/>
<polygon fill="black" stroke="black" points="591.5,-1722.03 588,-1712.03 584.5,-1722.03 591.5,-1722.03"/>
</g>
<!-- Scale&#45;&gt;ContainerWorkspaces -->
<g id="edge15" class="edge">
<title>Scale&#45;&gt;ContainerWorkspaces</title>
<path fill="none" stroke="black" d="M429,-1588.81C429,-1580.79 429,-1571.05 429,-1562.07"/>
<polygon fill="black" stroke="black" points="432.5,-1562.03 429,-1552.03 425.5,-1562.03 432.5,-1562.03"/>
</g>
<!-- Minus&#45;&gt;SampleWorkspaceMap -->
<g id="edge19" class="edge">
<title>Minus&#45;&gt;SampleWorkspaceMap</title>
<path fill="none" stroke="black" d="M551,-1442.81C551,-1434.79 551,-1425.05 551,-1416.07"/>
<polygon fill="black" stroke="black" points="554.5,-1416.03 551,-1406.03 547.5,-1416.03 554.5,-1416.03"/>
</g>
<!-- NormaliseByCurrent -->
<g id="node25" class="node">
<title>NormaliseByCurrent</title>
<path fill="lightskyblue" stroke="black" d="M292.5,-1173C292.5,-1173 159.5,-1173 159.5,-1173 153.5,-1173 147.5,-1167 147.5,-1161 147.5,-1161 147.5,-1149 147.5,-1149 147.5,-1143 153.5,-1137 159.5,-1137 159.5,-1137 292.5,-1137 292.5,-1137 298.5,-1137 304.5,-1143 304.5,-1149 304.5,-1149 304.5,-1161 304.5,-1161 304.5,-1167 298.5,-1173 292.5,-1173"/>
<text text-anchor="middle" x="226" y="-1151.3" font-family="Helvetica,sans-Serif" font-size="14.00">NormaliseByCurrent</text>
</g>
<!-- NormaliseByCurrent&#45;&gt;AlignDetectors -->
<g id="edge26" class="edge">
<title>NormaliseByCurrent&#45;&gt;AlignDetectors</title>
<path fill="none" stroke="black" d="M246.09,-1136.81C256.69,-1127.74 269.87,-1116.48 281.41,-1106.6"/>
<polygon fill="black" stroke="black" points="283.77,-1109.19 289.09,-1100.03 279.22,-1103.87 283.77,-1109.19"/>
</g>
<!-- AlignDetectors&#45;&gt;DiffractionFocussing -->
<g id="edge28" class="edge">
<title>AlignDetectors&#45;&gt;DiffractionFocussing</title>
<path fill="none" stroke="black" d="M319.65,-1063.81C324.89,-1055.35 331.32,-1044.98 337.13,-1035.61"/>
<polygon fill="black" stroke="black" points="340.15,-1037.37 342.45,-1027.03 334.2,-1033.69 340.15,-1037.37"/>
</g>
<!-- CropWorkspace -->
<g id="node28" class="node">
<title>CropWorkspace</title>
<path fill="lightskyblue" stroke="black" d="M403.5,-954C403.5,-954 302.5,-954 302.5,-954 296.5,-954 290.5,-948 290.5,-942 290.5,-942 290.5,-930 290.5,-930 290.5,-924 296.5,-918 302.5,-918 302.5,-918 403.5,-918 403.5,-918 409.5,-918 415.5,-924 415.5,-930 415.5,-930 415.5,-942 415.5,-942 415.5,-948 409.5,-954 403.5,-954"/>
<text text-anchor="middle" x="353" y="-932.3" font-family="Helvetica,sans-Serif" font-size="14.00">CropWorkspace</text>
</g>
<!-- DiffractionFocussing&#45;&gt;CropWorkspace -->
<g id="edge30" class="edge">
<title>DiffractionFocussing&#45;&gt;CropWorkspace</title>
<path fill="none" stroke="black" d="M353,-990.81C353,-982.79 353,-973.05 353,-964.07"/>
<polygon fill="black" stroke="black" points="356.5,-964.03 353,-954.03 349.5,-964.03 356.5,-964.03"/>
</g>
<!-- CropWorkspace&#45;&gt;SampleWorkspaceMap1 -->
<g id="edge31" class="edge">
<title>CropWorkspace&#45;&gt;SampleWorkspaceMap1</title>
<path fill="none" stroke="black" d="M353,-917.81C353,-909.79 353,-900.05 353,-891.07"/>
<polygon fill="black" stroke="black" points="356.5,-891.03 353,-881.03 349.5,-891.03 356.5,-891.03"/>
</g>
<!-- ReplaceSpecialValues -->
<g id="node30" class="node">
<title>ReplaceSpecialValues</title>
<path fill="lightskyblue" stroke="black" d="M305.5,-502C305.5,-502 162.5,-502 162.5,-502 156.5,-502 150.5,-496 150.5,-490 150.5,-490 150.5,-478 150.5,-478 150.5,-472 156.5,-466 162.5,-466 162.5,-466 305.5,-466 305.5,-466 311.5,-466 317.5,-472 317.5,-478 317.5,-478 317.5,-490 317.5,-490 317.5,-496 311.5,-502 305.5,-502"/>
<text text-anchor="middle" x="234" y="-480.3" font-family="Helvetica,sans-Serif" font-size="14.00">ReplaceSpecialValues</text>
</g>
<!-- Divide&#45;&gt;ReplaceSpecialValues -->
<g id="edge39" class="edge">
<title>Divide&#45;&gt;ReplaceSpecialValues</title>
<path fill="none" stroke="black" d="M234,-538.81C234,-530.79 234,-521.05 234,-512.07"/>
<polygon fill="black" stroke="black" points="237.5,-512.03 234,-502.03 230.5,-512.03 237.5,-512.03"/>
</g>
<!-- processedWks -->
<g id="node35" class="node">
<title>processedWks</title>
<polygon fill="limegreen" stroke="black" points="289,-429 56.41,-411 289,-393 521.59,-411 289,-429"/>
<text text-anchor="middle" x="289" y="-407.3" font-family="Helvetica,sans-Serif" font-size="14.00">Processed all workspaces in maps</text>
</g>
<!-- ReplaceSpecialValues&#45;&gt;processedWks -->
<g id="edge40" class="edge">
<title>ReplaceSpecialValues&#45;&gt;processedWks</title>
<path fill="none" stroke="black" d="M247.31,-465.81C254.2,-456.93 262.72,-445.93 270.26,-436.2"/>
<polygon fill="black" stroke="black" points="273.21,-438.1 276.56,-428.06 267.67,-433.82 273.21,-438.1"/>
</g>
<!-- MergeRuns -->
<g id="node31" class="node">
<title>MergeRuns</title>
<path fill="lightskyblue" stroke="black" d="M254.5,-255C254.5,-255 183.5,-255 183.5,-255 177.5,-255 171.5,-249 171.5,-243 171.5,-243 171.5,-231 171.5,-231 171.5,-225 177.5,-219 183.5,-219 183.5,-219 254.5,-219 254.5,-219 260.5,-219 266.5,-225 266.5,-231 266.5,-231 266.5,-243 266.5,-243 266.5,-249 260.5,-255 254.5,-255"/>
<text text-anchor="middle" x="219" y="-233.3" font-family="Helvetica,sans-Serif" font-size="14.00">MergeRuns</text>
</g>
<!-- ResultWorkspace -->
<g id="node44" class="node">
<title>ResultWorkspace</title>
<ellipse fill="lightgrey" stroke="black" cx="318" cy="-164" rx="89.08" ry="18"/>
<text text-anchor="middle" x="318" y="-160.3" font-family="Helvetica,sans-Serif" font-size="14.00">ResultWorkspace</text>
</g>
<!-- MergeRuns&#45;&gt;ResultWorkspace -->
<g id="edge45" class="edge">
<title>MergeRuns&#45;&gt;ResultWorkspace</title>
<path fill="none" stroke="black" d="M242.71,-218.99C255.79,-209.62 272.19,-197.85 286.35,-187.7"/>
<polygon fill="black" stroke="black" points="288.74,-190.29 294.82,-181.62 284.66,-184.61 288.74,-190.29"/>
</g>
<!-- RenameWorkspace -->
<g id="node32" class="node">
<title>RenameWorkspace</title>
<path fill="lightskyblue" stroke="black" d="M423,-255C423,-255 297,-255 297,-255 291,-255 285,-249 285,-243 285,-243 285,-231 285,-231 285,-225 291,-219 297,-219 297,-219 423,-219 423,-219 429,-219 435,-225 435,-231 435,-231 435,-243 435,-243 435,-249 429,-255 423,-255"/>
<text text-anchor="middle" x="360" y="-233.3" font-family="Helvetica,sans-Serif" font-size="14.00">RenameWorkspace</text>
</g>
<!-- RenameWorkspace&#45;&gt;ResultWorkspace -->
<g id="edge46" class="edge">
<title>RenameWorkspace&#45;&gt;ResultWorkspace</title>
<path fill="none" stroke="black" d="M349.83,-218.81C344.88,-210.44 338.82,-200.2 333.32,-190.9"/>
<polygon fill="black" stroke="black" points="336.18,-188.85 328.07,-182.03 330.15,-192.42 336.18,-188.85"/>
</g>
<!-- useContainer&#45;&gt;ContainerFiles -->
<g id="edge8" class="edge">
<title>useContainer&#45;&gt;ContainerFiles</title>
<path fill="none" stroke="black" d="M443,-1929.97C443,-1913.38 443,-1887.88 443,-1868.43"/>
<polygon fill="black" stroke="black" points="446.5,-1868.34 443,-1858.34 439.5,-1868.34 446.5,-1868.34"/>
<text text-anchor="middle" x="454.5" y="-1890.3" font-family="Helvetica,sans-Serif" font-size="14.00">Yes</text>
</g>
<!-- useContainer&#45;&gt;SampleWorkspaceMap -->
<g id="edge20" class="edge">
<title>useContainer&#45;&gt;SampleWorkspaceMap</title>
<path fill="none" stroke="black" d="M503.22,-1940.66C600.63,-1928.72 782,-1898.73 782,-1841 782,-1841 782,-1841 782,-1460 782,-1430.33 711.49,-1411.77 648.38,-1401.11"/>
<polygon fill="black" stroke="black" points="648.77,-1397.62 638.33,-1399.46 647.63,-1404.53 648.77,-1397.62"/>
<text text-anchor="middle" x="944.5" y="-1646.8" font-family="Helvetica,sans-Serif" font-size="14.00">No: Add SampleWorkspaces to WorkspaceMap</text>
</g>
<!-- scaleContainer&#45;&gt;ContainerWorkspaces -->
<g id="edge16" class="edge">
<title>scaleContainer&#45;&gt;ContainerWorkspaces</title>
<path fill="none" stroke="black" d="M573.04,-1678.14C545.56,-1650.83 486.8,-1592.43 453.44,-1559.29"/>
<polygon fill="black" stroke="black" points="455.5,-1556.4 445.94,-1551.83 450.57,-1561.37 455.5,-1556.4"/>
<text text-anchor="middle" x="529.5" y="-1603.3" font-family="Helvetica,sans-Serif" font-size="14.00">No</text>
</g>
<!-- scaleContainer&#45;&gt;Scale -->
<g id="edge13" class="edge">
<title>scaleContainer&#45;&gt;Scale</title>
<path fill="none" stroke="black" d="M554.59,-1681.06C538.62,-1674.9 519.45,-1666.83 503,-1658 488.35,-1650.14 472.98,-1640.09 460.08,-1631.06"/>
<polygon fill="black" stroke="black" points="461.75,-1627.96 451.57,-1625.02 457.69,-1633.66 461.75,-1627.96"/>
<text text-anchor="middle" x="514.5" y="-1646.8" font-family="Helvetica,sans-Serif" font-size="14.00">Yes</text>
</g>
<!-- processedWks&#45;&gt;SampleWorkspaceMap2 -->
<g id="edge41" class="edge">
<title>processedWks&#45;&gt;SampleWorkspaceMap2</title>
<path fill="none" stroke="black" d="M311.13,-427.37C326.79,-440.21 345,-460.08 345,-483 345,-631 345,-631 345,-631 345,-657.41 323.38,-674.17 298.34,-684.72"/>
<polygon fill="black" stroke="black" points="297.06,-681.46 289,-688.33 299.59,-687.99 297.06,-681.46"/>
<text text-anchor="middle" x="354.5" y="-553.3" font-family="Helvetica,sans-Serif" font-size="14.00">No</text>
</g>
<!-- runNumbers -->
<g id="node36" class="node">
<title>runNumbers</title>
<polygon fill="limegreen" stroke="black" points="289,-342 172.03,-324 289,-306 405.97,-324 289,-342"/>
<text text-anchor="middle" x="289" y="-320.3" font-family="Helvetica,sans-Serif" font-size="14.00">Number of runs</text>
</g>
<!-- processedWks&#45;&gt;runNumbers -->
<g id="edge42" class="edge">
<title>processedWks&#45;&gt;runNumbers</title>
<path fill="none" stroke="black" d="M289,-392.8C289,-381.16 289,-365.55 289,-352.24"/>
<polygon fill="black" stroke="black" points="292.5,-352.18 289,-342.18 285.5,-352.18 292.5,-352.18"/>
<text text-anchor="middle" x="300.5" y="-363.8" font-family="Helvetica,sans-Serif" font-size="14.00">Yes</text>
</g>
<!-- runNumbers&#45;&gt;MergeRuns -->
<g id="edge43" class="edge">
<title>runNumbers&#45;&gt;MergeRuns</title>
<path fill="none" stroke="black" d="M267.71,-308.92C259.93,-303.08 251.46,-295.83 245,-288 239.19,-280.94 234.15,-272.38 230.1,-264.34"/>
<polygon fill="black" stroke="black" points="233.26,-262.82 225.82,-255.28 226.93,-265.82 233.26,-262.82"/>
<text text-anchor="middle" x="287" y="-276.8" font-family="Helvetica,sans-Serif" font-size="14.00">More than 1</text>
</g>
<!-- runNumbers&#45;&gt;RenameWorkspace -->
<g id="edge44" class="edge">
<title>runNumbers&#45;&gt;RenameWorkspace</title>
<path fill="none" stroke="black" d="M307.59,-308.72C314.73,-302.74 322.67,-295.46 329,-288 335.24,-280.64 341.1,-271.91 346,-263.81"/>
<polygon fill="black" stroke="black" points="349.09,-265.46 351.11,-255.06 343.05,-261.93 349.09,-265.46"/>
<text text-anchor="middle" x="380.5" y="-276.8" font-family="Helvetica,sans-Serif" font-size="14.00">Less than 1</text>
</g>
<!-- CurrentWorkspace -->
<g id="node40" class="node">
<title>CurrentWorkspace</title>
<ellipse fill="lightgrey" stroke="black" cx="226" cy="-1228" rx="94.78" ry="18"/>
<text text-anchor="middle" x="226" y="-1224.3" font-family="Helvetica,sans-Serif" font-size="14.00">CurrentWorkspace</text>
</g>
<!-- averageWorkspaces&#45;&gt;CurrentWorkspace -->
<g id="edge24" class="edge">
<title>averageWorkspaces&#45;&gt;CurrentWorkspace</title>
<path fill="none" stroke="black" d="M226,-1296.8C226,-1285.16 226,-1269.55 226,-1256.24"/>
<polygon fill="black" stroke="black" points="229.5,-1256.18 226,-1246.18 222.5,-1256.18 229.5,-1256.18"/>
<text text-anchor="middle" x="453.5" y="-1267.8" font-family="Helvetica,sans-Serif" font-size="14.00">Extract next workspace from either the vanadium or sample map</text>
</g>
<!-- appendResults -->
<g id="node39" class="node">
<title>appendResults</title>
<polygon fill="lightseagreen" stroke="black" points="656,-109 332,-109 332,-73 656,-73 656,-109"/>
<text text-anchor="middle" x="494" y="-87.3" font-family="Helvetica,sans-Serif" font-size="14.00">Add the scalar data to the result workspace.</text>
</g>
<!-- getIntersection&#45;&gt;appendResults -->
<g id="edge48" class="edge">
<title>getIntersection&#45;&gt;appendResults</title>
<path fill="none" stroke="black" d="M628.6,-145.99C603.83,-136.06 572.36,-123.43 546.09,-112.89"/>
<polygon fill="black" stroke="black" points="547.25,-109.59 536.66,-109.11 544.64,-116.08 547.25,-109.59"/>
</g>
<!-- appendResults&#45;&gt;OutputWorkspace -->
<g id="edge50" class="edge">
<title>appendResults&#45;&gt;OutputWorkspace</title>
<path fill="none" stroke="black" d="M494,-72.81C494,-64.79 494,-55.05 494,-46.07"/>
<polygon fill="black" stroke="black" points="497.5,-46.03 494,-36.03 490.5,-46.03 497.5,-46.03"/>
</g>
<!-- CurrentWorkspace&#45;&gt;NormaliseByCurrent -->
<g id="edge25" class="edge">
<title>CurrentWorkspace&#45;&gt;NormaliseByCurrent</title>
<path fill="none" stroke="black" d="M226,-1209.81C226,-1201.79 226,-1192.05 226,-1183.07"/>
<polygon fill="black" stroke="black" points="229.5,-1183.03 226,-1173.03 222.5,-1183.03 229.5,-1183.03"/>
</g>
<!-- dRange&#45;&gt;SampleWorkspaceMap2 -->
<g id="edge33" class="edge">
<title>dRange&#45;&gt;SampleWorkspaceMap2</title>
<path fill="none" stroke="black" d="M327.32,-760.97C308.75,-750.83 283.34,-736.95 262.24,-725.43"/>
<polygon fill="black" stroke="black" points="263.65,-722.21 253.19,-720.49 260.29,-728.35 263.65,-722.21"/>
</g>
<!-- VanadiumWorkspaceMap1 -->
<g id="node42" class="node">
<title>VanadiumWorkspaceMap1</title>
<ellipse fill="lightgrey" stroke="black" cx="485" cy="-703" rx="130.78" ry="18"/>
<text text-anchor="middle" x="485" y="-699.3" font-family="Helvetica,sans-Serif" font-size="14.00">VanadiumWorkspaceMap1</text>
</g>
<!-- dRange&#45;&gt;VanadiumWorkspaceMap1 -->
<g id="edge34" class="edge">
<title>dRange&#45;&gt;VanadiumWorkspaceMap1</title>
<path fill="none" stroke="black" d="M378.76,-761.14C397.67,-750.97 423.7,-736.97 445.26,-725.37"/>
<polygon fill="black" stroke="black" points="447.05,-728.39 454.2,-720.57 443.73,-722.22 447.05,-728.39"/>
</g>
<!-- VanadiumWorkspace -->
<g id="node43" class="node">
<title>VanadiumWorkspace</title>
<ellipse fill="lightgrey" stroke="black" cx="482" cy="-630" rx="105.88" ry="18"/>
<text text-anchor="middle" x="482" y="-626.3" font-family="Helvetica,sans-Serif" font-size="14.00">VanadiumWorkspace</text>
</g>
<!-- VanadiumWorkspaceMap1&#45;&gt;VanadiumWorkspace -->
<g id="edge36" class="edge">
<title>VanadiumWorkspaceMap1&#45;&gt;VanadiumWorkspace</title>
<path fill="none" stroke="black" d="M484.27,-684.81C483.93,-676.79 483.52,-667.05 483.14,-658.07"/>
<polygon fill="black" stroke="black" points="486.64,-657.87 482.72,-648.03 479.64,-658.17 486.64,-657.87"/>
</g>
<!-- VanadiumWorkspace&#45;&gt;Divide -->
<g id="edge38" class="edge">
<title>VanadiumWorkspace&#45;&gt;Divide</title>
<path fill="none" stroke="black" d="M430.31,-614.2C383.79,-600.88 316.39,-581.59 273.9,-569.42"/>
<polygon fill="black" stroke="black" points="274.77,-566.03 264.19,-566.64 272.84,-572.76 274.77,-566.03"/>
</g>
<!-- ResultWorkspace&#45;&gt;appendResults -->
<g id="edge49" class="edge">
<title>ResultWorkspace&#45;&gt;appendResults</title>
<path fill="none" stroke="black" d="M356.19,-147.59C381.33,-137.45 414.56,-124.05 442.09,-112.94"/>
<polygon fill="black" stroke="black" points="443.6,-116.1 451.57,-109.12 440.98,-109.61 443.6,-116.1"/>
</g>
</g>
</svg>
