<?xml version="1.0" encoding="UTF-8" standalone="no"?>
<!DOCTYPE svg PUBLIC "-//W3C//DTD SVG 1.1//EN"
 "http://www.w3.org/Graphics/SVG/1.1/DTD/svg11.dtd">
<!-- Generated by graphviz version 2.47.2 (20210527.1257)
 -->
<!-- Title: PDToGUDRUN Pages: 1 -->
<svg width="381pt" height="592pt"
 viewBox="0.00 0.00 380.50 592.00" xmlns="http://www.w3.org/2000/svg" xmlns:xlink="http://www.w3.org/1999/xlink">
<g id="graph0" class="graph" transform="scale(1 1) rotate(0) translate(4 588)">
<title>PDToGUDRUN</title>
<polygon fill="white" stroke="transparent" points="-4,4 -4,-588 376.5,-588 376.5,4 -4,4"/>
<text text-anchor="middle" x="186.25" y="-568.8" font-family="Helvetica" font-size="14.00">PDToGUDRUN Flowchart</text>
<!-- InputWorkspace -->
<g id="node1" class="node">
<title>InputWorkspace</title>
<ellipse fill="khaki" stroke="black" cx="280" cy="-470" rx="74.19" ry="18"/>
<text text-anchor="middle" x="280" y="-466.3" font-family="Helvetica" font-size="14.00">InputWorkspace</text>
</g>
<!-- determineChar -->
<g id="node4" class="node">
<title>determineChar</title>
<path fill="lightskyblue" stroke="black" d="M239.5,-415C239.5,-415 42.5,-415 42.5,-415 36.5,-415 30.5,-409 30.5,-403 30.5,-403 30.5,-391 30.5,-391 30.5,-385 36.5,-379 42.5,-379 42.5,-379 239.5,-379 239.5,-379 245.5,-379 251.5,-385 251.5,-391 251.5,-391 251.5,-403 251.5,-403 251.5,-409 245.5,-415 239.5,-415"/>
<text text-anchor="middle" x="141" y="-393.3" font-family="Helvetica" font-size="14.00">PDDetermineCharacterizations v1</text>
</g>
<!-- InputWorkspace&#45;&gt;determineChar -->
<g id="edge3" class="edge">
<title>InputWorkspace&#45;&gt;determineChar</title>
<path fill="none" stroke="black" d="M249.5,-453.42C230.14,-443.53 204.83,-430.6 183.52,-419.72"/>
<polygon fill="black" stroke="black" points="184.85,-416.47 174.35,-415.04 181.66,-422.7 184.85,-416.47"/>
</g>
<!-- alignAndFocus -->
<g id="node5" class="node">
<title>alignAndFocus</title>
<path fill="lightskyblue" stroke="black" d="M283.5,-342C283.5,-342 136.5,-342 136.5,-342 130.5,-342 124.5,-336 124.5,-330 124.5,-330 124.5,-318 124.5,-318 124.5,-312 130.5,-306 136.5,-306 136.5,-306 283.5,-306 283.5,-306 289.5,-306 295.5,-312 295.5,-318 295.5,-318 295.5,-330 295.5,-330 295.5,-336 289.5,-342 283.5,-342"/>
<text text-anchor="middle" x="210" y="-320.3" font-family="Helvetica" font-size="14.00">AlignAndFocusPowder v1</text>
</g>
<!-- InputWorkspace&#45;&gt;alignAndFocus -->
<g id="edge4" class="edge">
<title>InputWorkspace&#45;&gt;alignAndFocus</title>
<path fill="none" stroke="black" d="M279.14,-451.82C277.58,-432.98 273.22,-402.34 261,-379 255.31,-368.13 246.8,-357.88 238.36,-349.3"/>
<polygon fill="black" stroke="black" points="240.65,-346.64 231.03,-342.2 235.79,-351.67 240.65,-346.64"/>
</g>
<!-- loadChar -->
<g id="node2" class="node">
<title>loadChar</title>
<path fill="lightskyblue" stroke="black" d="M176,-488C176,-488 12,-488 12,-488 6,-488 0,-482 0,-476 0,-476 0,-464 0,-464 0,-458 6,-452 12,-452 12,-452 176,-452 176,-452 182,-452 188,-458 188,-464 188,-464 188,-476 188,-476 188,-482 182,-488 176,-488"/>
<text text-anchor="middle" x="94" y="-466.3" font-family="Helvetica" font-size="14.00">PDLoadCharacterizations v1</text>
</g>
<!-- loadChar&#45;&gt;determineChar -->
<g id="edge1" class="edge">
<title>loadChar&#45;&gt;determineChar</title>
<path fill="none" stroke="black" d="M105.38,-451.81C110.98,-443.35 117.84,-432.98 124.05,-423.61"/>
<polygon fill="black" stroke="black" points="127.13,-425.3 129.73,-415.03 121.29,-421.44 127.13,-425.3"/>
</g>
<!-- loadEvent -->
<g id="node3" class="node">
<title>loadEvent</title>
<path fill="lightskyblue" stroke="black" d="M360.5,-561C360.5,-561 199.5,-561 199.5,-561 193.5,-561 187.5,-555 187.5,-549 187.5,-549 187.5,-537 187.5,-537 187.5,-531 193.5,-525 199.5,-525 199.5,-525 360.5,-525 360.5,-525 366.5,-525 372.5,-531 372.5,-537 372.5,-537 372.5,-549 372.5,-549 372.5,-555 366.5,-561 360.5,-561"/>
<text text-anchor="middle" x="280" y="-539.3" font-family="Helvetica" font-size="14.00">LoadEventAndCompress v1</text>
</g>
<!-- loadEvent&#45;&gt;InputWorkspace -->
<g id="edge2" class="edge">
<title>loadEvent&#45;&gt;InputWorkspace</title>
<path fill="none" stroke="black" d="M280,-524.81C280,-516.79 280,-507.05 280,-498.07"/>
<polygon fill="black" stroke="black" points="283.5,-498.03 280,-488.03 276.5,-498.03 283.5,-498.03"/>
</g>
<!-- determineChar&#45;&gt;alignAndFocus -->
<g id="edge5" class="edge">
<title>determineChar&#45;&gt;alignAndFocus</title>
<path fill="none" stroke="black" d="M157.7,-378.81C166.26,-370 176.84,-359.13 186.23,-349.46"/>
<polygon fill="black" stroke="black" points="188.99,-351.64 193.45,-342.03 183.97,-346.76 188.99,-351.64"/>
</g>
<!-- norm -->
<g id="node6" class="node">
<title>norm</title>
<path fill="lightskyblue" stroke="black" d="M276.5,-269C276.5,-269 143.5,-269 143.5,-269 137.5,-269 131.5,-263 131.5,-257 131.5,-257 131.5,-245 131.5,-245 131.5,-239 137.5,-233 143.5,-233 143.5,-233 276.5,-233 276.5,-233 282.5,-233 288.5,-239 288.5,-245 288.5,-245 288.5,-257 288.5,-257 288.5,-263 282.5,-269 276.5,-269"/>
<text text-anchor="middle" x="210" y="-247.3" font-family="Helvetica" font-size="14.00">NormaliseByCurrent v1</text>
</g>
<!-- alignAndFocus&#45;&gt;norm -->
<g id="edge6" class="edge">
<title>alignAndFocus&#45;&gt;norm</title>
<path fill="none" stroke="black" d="M210,-305.81C210,-297.79 210,-288.05 210,-279.07"/>
<polygon fill="black" stroke="black" points="213.5,-279.03 210,-269.03 206.5,-279.03 213.5,-279.03"/>
</g>
<!-- ifSetUncert -->
<g id="node9" class="node">
<title>ifSetUncert</title>
<polygon fill="limegreen" stroke="black" points="210,-196 93.03,-178 210,-160 326.97,-178 210,-196"/>
<text text-anchor="middle" x="210" y="-174.3" font-family="Helvetica" font-size="14.00">If SetUncertainties</text>
</g>
<!-- norm&#45;&gt;ifSetUncert -->
<g id="edge7" class="edge">
<title>norm&#45;&gt;ifSetUncert</title>
<path fill="none" stroke="black" d="M210,-232.81C210,-224.79 210,-215.05 210,-206.07"/>
<polygon fill="black" stroke="black" points="213.5,-206.03 210,-196.03 206.5,-206.03 213.5,-206.03"/>
</g>
<!-- setUncert -->
<g id="node7" class="node">
<title>setUncert</title>
<path fill="lightskyblue" stroke="black" d="M213,-109C213,-109 103,-109 103,-109 97,-109 91,-103 91,-97 91,-97 91,-85 91,-85 91,-79 97,-73 103,-73 103,-73 213,-73 213,-73 219,-73 225,-79 225,-85 225,-85 225,-97 225,-97 225,-103 219,-109 213,-109"/>
<text text-anchor="middle" x="158" y="-87.3" font-family="Helvetica" font-size="14.00">SetUncertainties v1</text>
</g>
<!-- saveNexusPD -->
<g id="node8" class="node">
<title>saveNexusPD</title>
<path fill="lightskyblue" stroke="black" d="M258,-36C258,-36 160,-36 160,-36 154,-36 148,-30 148,-24 148,-24 148,-12 148,-12 148,-6 154,0 160,0 160,0 258,0 258,0 264,0 270,-6 270,-12 270,-12 270,-24 270,-24 270,-30 264,-36 258,-36"/>
<text text-anchor="middle" x="209" y="-14.3" font-family="Helvetica" font-size="14.00">SaveNexusPD v1</text>
</g>
<!-- setUncert&#45;&gt;saveNexusPD -->
<g id="edge10" class="edge">
<title>setUncert&#45;&gt;saveNexusPD</title>
<path fill="none" stroke="black" d="M170.35,-72.81C176.48,-64.27 184.02,-53.77 190.81,-44.32"/>
<polygon fill="black" stroke="black" points="193.78,-46.19 196.77,-36.03 188.09,-42.11 193.78,-46.19"/>
</g>
<!-- ifSetUncert&#45;&gt;setUncert -->
<g id="edge8" class="edge">
<title>ifSetUncert&#45;&gt;setUncert</title>
<path fill="none" stroke="black" d="M200.46,-161.41C193.05,-149.3 182.62,-132.24 173.95,-118.06"/>
<polygon fill="black" stroke="black" points="176.75,-115.95 168.55,-109.25 170.78,-119.6 176.75,-115.95"/>
<text text-anchor="middle" x="198.5" y="-130.8" font-family="Helvetica" font-size="14.00">Yes</text>
</g>
<!-- ifSetUncert&#45;&gt;saveNexusPD -->
<g id="edge9" class="edge">
<title>ifSetUncert&#45;&gt;saveNexusPD</title>
<path fill="none" stroke="black" d="M218.11,-161.16C227.51,-140.8 240.9,-104.31 234,-73 231.93,-63.62 228.07,-53.92 223.99,-45.39"/>
<polygon fill="black" stroke="black" points="227.02,-43.64 219.37,-36.31 220.78,-46.81 227.02,-43.64"/>
<text text-anchor="middle" x="244" y="-87.3" font-family="Helvetica" font-size="14.00">No</text>
</g>
</g>
</svg>
