<?xml version="1.0" encoding="UTF-8" standalone="no"?>
<!DOCTYPE svg PUBLIC "-//W3C//DTD SVG 1.1//EN"
 "http://www.w3.org/Graphics/SVG/1.1/DTD/svg11.dtd">
<!-- Generated by graphviz version 7.0.5 (20221231.0122)
 -->
<!-- Title: PDToGUDRUN Pages: 1 -->
<svg width="426pt" height="592pt"
 viewBox="0.00 0.00 426.00 592.00" xmlns="http://www.w3.org/2000/svg" xmlns:xlink="http://www.w3.org/1999/xlink">
<g id="graph0" class="graph" transform="scale(1 1) rotate(0) translate(4 588)">
<title>PDToGUDRUN</title>
<polygon fill="white" stroke="none" points="-4,4 -4,-588 422,-588 422,4 -4,4"/>
<text text-anchor="middle" x="209" y="-568.8" font-family="Helvetica,sans-Serif" font-size="14.00">PDToGUDRUN Flowchart</text>
<!-- InputWorkspace -->
<g id="node1" class="node">
<title>InputWorkspace</title>
<ellipse fill="khaki" stroke="black" cx="314" cy="-470" rx="84.49" ry="18"/>
<text text-anchor="middle" x="314" y="-466.3" font-family="Helvetica,sans-Serif" font-size="14.00">InputWorkspace</text>
</g>
<!-- determineChar -->
<g id="node4" class="node">
<title>determineChar</title>
<path fill="lightskyblue" stroke="black" d="M273.5,-415C273.5,-415 46.5,-415 46.5,-415 40.5,-415 34.5,-409 34.5,-403 34.5,-403 34.5,-391 34.5,-391 34.5,-385 40.5,-379 46.5,-379 46.5,-379 273.5,-379 273.5,-379 279.5,-379 285.5,-385 285.5,-391 285.5,-391 285.5,-403 285.5,-403 285.5,-409 279.5,-415 273.5,-415"/>
<text text-anchor="middle" x="160" y="-393.3" font-family="Helvetica,sans-Serif" font-size="14.00">PDDetermineCharacterizations v1</text>
</g>
<!-- InputWorkspace&#45;&gt;determineChar -->
<g id="edge3" class="edge">
<title>InputWorkspace&#45;&gt;determineChar</title>
<path fill="none" stroke="black" d="M279.82,-453.24C258.77,-443.54 231.45,-430.94 208.21,-420.23"/>
<polygon fill="black" stroke="black" points="209.78,-417.1 199.24,-416.09 206.85,-423.46 209.78,-417.1"/>
</g>
<!-- alignAndFocus -->
<g id="node5" class="node">
<title>alignAndFocus</title>
<path fill="lightskyblue" stroke="black" d="M321,-342C321,-342 153,-342 153,-342 147,-342 141,-336 141,-330 141,-330 141,-318 141,-318 141,-312 147,-306 153,-306 153,-306 321,-306 321,-306 327,-306 333,-312 333,-318 333,-318 333,-330 333,-330 333,-336 327,-342 321,-342"/>
<text text-anchor="middle" x="237" y="-320.3" font-family="Helvetica,sans-Serif" font-size="14.00">AlignAndFocusPowder v1</text>
</g>
<!-- InputWorkspace&#45;&gt;alignAndFocus -->
<g id="edge4" class="edge">
<title>InputWorkspace&#45;&gt;alignAndFocus</title>
<path fill="none" stroke="black" d="M313.42,-451.66C312.11,-432.69 307.97,-401.94 295,-379 288.84,-368.11 279.74,-358.14 270.56,-349.82"/>
<polygon fill="black" stroke="black" points="272.86,-347.18 262.99,-343.34 268.32,-352.5 272.86,-347.18"/>
</g>
<!-- loadChar -->
<g id="node2" class="node">
<title>loadChar</title>
<path fill="lightskyblue" stroke="black" d="M200,-488C200,-488 12,-488 12,-488 6,-488 0,-482 0,-476 0,-476 0,-464 0,-464 0,-458 6,-452 12,-452 12,-452 200,-452 200,-452 206,-452 212,-458 212,-464 212,-464 212,-476 212,-476 212,-482 206,-488 200,-488"/>
<text text-anchor="middle" x="106" y="-466.3" font-family="Helvetica,sans-Serif" font-size="14.00">PDLoadCharacterizations v1</text>
</g>
<!-- loadChar&#45;&gt;determineChar -->
<g id="edge1" class="edge">
<title>loadChar&#45;&gt;determineChar</title>
<path fill="none" stroke="black" d="M119.07,-451.81C125.44,-443.44 133.23,-433.2 140.3,-423.9"/>
<polygon fill="black" stroke="black" points="142.86,-426.31 146.13,-416.23 137.29,-422.07 142.86,-426.31"/>
</g>
<!-- loadEvent -->
<g id="node3" class="node">
<title>loadEvent</title>
<path fill="lightskyblue" stroke="black" d="M406,-561C406,-561 222,-561 222,-561 216,-561 210,-555 210,-549 210,-549 210,-537 210,-537 210,-531 216,-525 222,-525 222,-525 406,-525 406,-525 412,-525 418,-531 418,-537 418,-537 418,-549 418,-549 418,-555 412,-561 406,-561"/>
<text text-anchor="middle" x="314" y="-539.3" font-family="Helvetica,sans-Serif" font-size="14.00">LoadEventAndCompress v1</text>
</g>
<!-- loadEvent&#45;&gt;InputWorkspace -->
<g id="edge2" class="edge">
<title>loadEvent&#45;&gt;InputWorkspace</title>
<path fill="none" stroke="black" d="M314,-524.81C314,-517.23 314,-508.1 314,-499.54"/>
<polygon fill="black" stroke="black" points="317.5,-499.54 314,-489.54 310.5,-499.54 317.5,-499.54"/>
</g>
<!-- determineChar&#45;&gt;alignAndFocus -->
<g id="edge5" class="edge">
<title>determineChar&#45;&gt;alignAndFocus</title>
<path fill="none" stroke="black" d="M178.64,-378.81C188.03,-370.16 199.59,-359.5 209.93,-349.96"/>
<polygon fill="black" stroke="black" points="212.17,-352.65 217.15,-343.3 207.43,-347.51 212.17,-352.65"/>
</g>
<!-- norm -->
<g id="node6" class="node">
<title>norm</title>
<path fill="lightskyblue" stroke="black" d="M314.5,-269C314.5,-269 159.5,-269 159.5,-269 153.5,-269 147.5,-263 147.5,-257 147.5,-257 147.5,-245 147.5,-245 147.5,-239 153.5,-233 159.5,-233 159.5,-233 314.5,-233 314.5,-233 320.5,-233 326.5,-239 326.5,-245 326.5,-245 326.5,-257 326.5,-257 326.5,-263 320.5,-269 314.5,-269"/>
<text text-anchor="middle" x="237" y="-247.3" font-family="Helvetica,sans-Serif" font-size="14.00">NormaliseByCurrent v1</text>
</g>
<!-- alignAndFocus&#45;&gt;norm -->
<g id="edge6" class="edge">
<title>alignAndFocus&#45;&gt;norm</title>
<path fill="none" stroke="black" d="M237,-305.81C237,-298.23 237,-289.1 237,-280.54"/>
<polygon fill="black" stroke="black" points="240.5,-280.54 237,-270.54 233.5,-280.54 240.5,-280.54"/>
</g>
<!-- ifSetUncert -->
<g id="node9" class="node">
<title>ifSetUncert</title>
<polygon fill="limegreen" stroke="black" points="237,-196 102.61,-178 237,-160 371.39,-178 237,-196"/>
<text text-anchor="middle" x="237" y="-174.3" font-family="Helvetica,sans-Serif" font-size="14.00">If SetUncertainties</text>
</g>
<!-- norm&#45;&gt;ifSetUncert -->
<g id="edge7" class="edge">
<title>norm&#45;&gt;ifSetUncert</title>
<path fill="none" stroke="black" d="M237,-232.81C237,-225.23 237,-216.1 237,-207.54"/>
<polygon fill="black" stroke="black" points="240.5,-207.54 237,-197.54 233.5,-207.54 240.5,-207.54"/>
</g>
<!-- setUncert -->
<g id="node7" class="node">
<title>setUncert</title>
<path fill="lightskyblue" stroke="black" d="M244.5,-109C244.5,-109 115.5,-109 115.5,-109 109.5,-109 103.5,-103 103.5,-97 103.5,-97 103.5,-85 103.5,-85 103.5,-79 109.5,-73 115.5,-73 115.5,-73 244.5,-73 244.5,-73 250.5,-73 256.5,-79 256.5,-85 256.5,-85 256.5,-97 256.5,-97 256.5,-103 250.5,-109 244.5,-109"/>
<text text-anchor="middle" x="180" y="-87.3" font-family="Helvetica,sans-Serif" font-size="14.00">SetUncertainties v1</text>
</g>
<!-- saveNexusPD -->
<g id="node8" class="node">
<title>saveNexusPD</title>
<path fill="lightskyblue" stroke="black" d="M291,-36C291,-36 181,-36 181,-36 175,-36 169,-30 169,-24 169,-24 169,-12 169,-12 169,-6 175,0 181,0 181,0 291,0 291,0 297,0 303,-6 303,-12 303,-12 303,-24 303,-24 303,-30 297,-36 291,-36"/>
<text text-anchor="middle" x="236" y="-14.3" font-family="Helvetica,sans-Serif" font-size="14.00">SaveNexusPD v1</text>
</g>
<!-- setUncert&#45;&gt;saveNexusPD -->
<g id="edge10" class="edge">
<title>setUncert&#45;&gt;saveNexusPD</title>
<path fill="none" stroke="black" d="M193.56,-72.81C200.16,-64.44 208.24,-54.2 215.57,-44.9"/>
<polygon fill="black" stroke="black" points="218.19,-47.24 221.63,-37.22 212.69,-42.9 218.19,-47.24"/>
</g>
<!-- ifSetUncert&#45;&gt;setUncert -->
<g id="edge8" class="edge">
<title>ifSetUncert&#45;&gt;setUncert</title>
<path fill="none" stroke="black" d="M226.28,-161.01C218.34,-149.17 207.33,-132.76 198.04,-118.91"/>
<polygon fill="black" stroke="black" points="200.97,-116.99 192.5,-110.64 195.16,-120.89 200.97,-116.99"/>
<text text-anchor="middle" x="222.5" y="-130.8" font-family="Helvetica,sans-Serif" font-size="14.00">Yes</text>
</g>
<!-- ifSetUncert&#45;&gt;saveNexusPD -->
<g id="edge9" class="edge">
<title>ifSetUncert&#45;&gt;saveNexusPD</title>
<path fill="none" stroke="black" d="M246.93,-160.84C258.22,-140.43 274.09,-104.21 266,-73 263.55,-63.55 259.05,-54 254.27,-45.61"/>
<polygon fill="black" stroke="black" points="257.41,-44.03 249.21,-37.32 251.44,-47.68 257.41,-44.03"/>
<text text-anchor="middle" x="277.5" y="-87.3" font-family="Helvetica,sans-Serif" font-size="14.00">No</text>
</g>
</g>
</svg>
