<?xml version="1.0" encoding="UTF-8" standalone="no"?>
<!DOCTYPE svg PUBLIC "-//W3C//DTD SVG 1.1//EN"
 "http://www.w3.org/Graphics/SVG/1.1/DTD/svg11.dtd">
<!-- Generated by graphviz version 2.47.2 (20210527.1257)
 -->
<!-- Title: Container Pages: 1 -->
<svg width="277pt" height="260pt"
 viewBox="0.00 0.00 276.73 260.00" xmlns="http://www.w3.org/2000/svg" xmlns:xlink="http://www.w3.org/1999/xlink">
<g id="graph0" class="graph" transform="scale(1 1) rotate(0) translate(4 256)">
<title>Container</title>
<polygon fill="white" stroke="transparent" points="-4,4 -4,-256 272.73,-256 272.73,4 -4,4"/>
<!-- Run -->
<g id="node1" class="node">
<title>Run</title>
<ellipse fill="khaki" stroke="black" cx="134.36" cy="-234" rx="27" ry="18"/>
<text text-anchor="middle" x="134.36" y="-230.3" font-family="Helvetica" font-size="14.00">Run</text>
</g>
<!-- LoadAndMerge -->
<g id="node3" class="node">
<title>LoadAndMerge</title>
<path fill="lightskyblue" stroke="black" d="M177.36,-180C177.36,-180 91.36,-180 91.36,-180 85.36,-180 79.36,-174 79.36,-168 79.36,-168 79.36,-156 79.36,-156 79.36,-150 85.36,-144 91.36,-144 91.36,-144 177.36,-144 177.36,-144 183.36,-144 189.36,-150 189.36,-156 189.36,-156 189.36,-168 189.36,-168 189.36,-174 183.36,-180 177.36,-180"/>
<text text-anchor="middle" x="134.36" y="-158.3" font-family="Helvetica" font-size="14.00">LoadAndMerge</text>
</g>
<!-- Run&#45;&gt;LoadAndMerge -->
<g id="edge1" class="edge">
<title>Run&#45;&gt;LoadAndMerge</title>
<path fill="none" stroke="black" d="M134.36,-215.7C134.36,-207.98 134.36,-198.71 134.36,-190.11"/>
<polygon fill="black" stroke="black" points="137.86,-190.1 134.36,-180.1 130.86,-190.1 137.86,-190.1"/>
</g>
<!-- OutputWorkspace -->
<g id="node2" class="node">
<title>OutputWorkspace</title>
<polygon fill="grey" stroke="black" points="268.59,-36 55.07,-36 0.14,0 213.66,0 268.59,-36"/>
<text text-anchor="middle" x="134.36" y="-14.3" font-family="Times-Roman" font-size="14.00">OutputWorkspace</text>
</g>
<!-- Divide -->
<g id="node4" class="node">
<title>Divide</title>
<path fill="lightskyblue" stroke="black" d="M208.86,-108C208.86,-108 59.86,-108 59.86,-108 53.86,-108 47.86,-102 47.86,-96 47.86,-96 47.86,-84 47.86,-84 47.86,-78 53.86,-72 59.86,-72 59.86,-72 208.86,-72 208.86,-72 214.86,-72 220.86,-78 220.86,-84 220.86,-84 220.86,-96 220.86,-96 220.86,-102 214.86,-108 208.86,-108"/>
<text text-anchor="middle" x="134.36" y="-86.3" font-family="Helvetica" font-size="14.00">Normalize to monitor/time</text>
</g>
<!-- LoadAndMerge&#45;&gt;Divide -->
<g id="edge2" class="edge">
<title>LoadAndMerge&#45;&gt;Divide</title>
<path fill="none" stroke="black" d="M134.36,-143.7C134.36,-135.98 134.36,-126.71 134.36,-118.11"/>
<polygon fill="black" stroke="black" points="137.86,-118.1 134.36,-108.1 130.86,-118.1 137.86,-118.1"/>
</g>
<!-- Divide&#45;&gt;OutputWorkspace -->
<g id="edge3" class="edge">
<title>Divide&#45;&gt;OutputWorkspace</title>
<path fill="none" stroke="black" d="M134.36,-71.7C134.36,-63.98 134.36,-54.71 134.36,-46.11"/>
<polygon fill="black" stroke="black" points="137.86,-46.1 134.36,-36.1 130.86,-46.1 137.86,-46.1"/>
</g>
</g>
</svg>
