<?xml version="1.0" encoding="UTF-8" standalone="no"?>
<!DOCTYPE svg PUBLIC "-//W3C//DTD SVG 1.1//EN"
 "http://www.w3.org/Graphics/SVG/1.1/DTD/svg11.dtd">
<!-- Generated by graphviz version 3.0.0 (20220315.2325)
 -->
<!-- Title: Sample Pages: 1 -->
<svg width="1130pt" height="1412pt"
 viewBox="0.00 0.00 1130.19 1412.00" xmlns="http://www.w3.org/2000/svg" xmlns:xlink="http://www.w3.org/1999/xlink">
<g id="graph0" class="graph" transform="scale(1 1) rotate(0) translate(4 1408)">
<title>Sample</title>
<polygon fill="white" stroke="transparent" points="-4,4 -4,-1408 1126.19,-1408 1126.19,4 -4,4"/>
<!-- AverageCounts -->
<g id="node1" class="node">
<title>AverageCounts</title>
<polygon fill="limegreen" stroke="black" points="758.18,-180 594.46,-162 758.18,-144 921.9,-162 758.18,-180"/>
<text text-anchor="middle" x="758.18" y="-158.3" font-family="Helvetica,sans-Serif" font-size="14.00">Average counts or sum</text>
</g>
<!-- OutputWorkspace -->
<g id="node16" class="node">
<title>OutputWorkspace</title>
<polygon fill="grey" stroke="black" points="896.54,-36 676.45,-36 619.83,0 839.92,0 896.54,-36"/>
<text text-anchor="middle" x="758.18" y="-14.3" font-family="Times,serif" font-size="14.00">OutputWorkspace</text>
</g>
<!-- AverageCounts&#45;&gt;OutputWorkspace -->
<g id="edge39" class="edge">
<title>AverageCounts&#45;&gt;OutputWorkspace</title>
<path fill="none" stroke="black" d="M810.8,-149.72C833.45,-141.97 857.76,-129.12 871.18,-108 879.77,-94.5 879.77,-85.5 871.18,-72 862.47,-58.29 849.18,-48.07 834.73,-40.47"/>
<polygon fill="black" stroke="black" points="836.14,-37.26 825.62,-36.06 833.1,-43.56 836.14,-37.26"/>
</g>
<!-- Plus -->
<g id="node25" class="node">
<title>Plus</title>
<path fill="lightskyblue" stroke="black" d="M850.68,-108C850.68,-108 665.68,-108 665.68,-108 659.68,-108 653.68,-102 653.68,-96 653.68,-96 653.68,-84 653.68,-84 653.68,-78 659.68,-72 665.68,-72 665.68,-72 850.68,-72 850.68,-72 856.68,-72 862.68,-78 862.68,-84 862.68,-84 862.68,-96 862.68,-96 862.68,-102 856.68,-108 850.68,-108"/>
<text text-anchor="middle" x="758.18" y="-86.3" font-family="Helvetica,sans-Serif" font-size="14.00">Average polarization/2theta</text>
</g>
<!-- AverageCounts&#45;&gt;Plus -->
<g id="edge38" class="edge">
<title>AverageCounts&#45;&gt;Plus</title>
<path fill="none" stroke="black" d="M758.18,-143.7C758.18,-135.98 758.18,-126.71 758.18,-118.11"/>
<polygon fill="black" stroke="black" points="761.68,-118.1 758.18,-108.1 754.68,-118.1 761.68,-118.1"/>
</g>
<!-- SumOverlappingTubes -->
<g id="node29" class="node">
<title>SumOverlappingTubes</title>
<path fill="lightskyblue" stroke="black" d="M623.68,-108C623.68,-108 474.68,-108 474.68,-108 468.68,-108 462.68,-102 462.68,-96 462.68,-96 462.68,-84 462.68,-84 462.68,-78 468.68,-72 474.68,-72 474.68,-72 623.68,-72 623.68,-72 629.68,-72 635.68,-78 635.68,-84 635.68,-84 635.68,-96 635.68,-96 635.68,-102 629.68,-108 623.68,-108"/>
<text text-anchor="middle" x="549.18" y="-86.3" font-family="Helvetica,sans-Serif" font-size="14.00">SumOverlappingTubes</text>
</g>
<!-- AverageCounts&#45;&gt;SumOverlappingTubes -->
<g id="edge37" class="edge">
<title>AverageCounts&#45;&gt;SumOverlappingTubes</title>
<path fill="none" stroke="black" d="M719.85,-148.16C689.15,-137.88 645.51,-123.26 610.04,-111.38"/>
<polygon fill="black" stroke="black" points="610.87,-107.97 600.27,-108.11 608.64,-114.61 610.87,-107.97"/>
</g>
<!-- SelfAttenuationMethod -->
<g id="node2" class="node">
<title>SelfAttenuationMethod</title>
<polygon fill="limegreen" stroke="black" points="534.18,-756 372.64,-738 534.18,-720 695.73,-738 534.18,-756"/>
<text text-anchor="middle" x="534.18" y="-734.3" font-family="Helvetica,sans-Serif" font-size="14.00">SelfAttenuationMethod</text>
</g>
<!-- TimeOfFlight2 -->
<g id="node5" class="node">
<title>TimeOfFlight2</title>
<polygon fill="limegreen" stroke="black" points="594.18,-540 492.97,-522 594.18,-504 695.4,-522 594.18,-540"/>
<text text-anchor="middle" x="594.18" y="-518.3" font-family="Helvetica,sans-Serif" font-size="14.00">Time&#45;of&#45;flight</text>
</g>
<!-- SelfAttenuationMethod&#45;&gt;TimeOfFlight2 -->
<g id="edge26" class="edge">
<title>SelfAttenuationMethod&#45;&gt;TimeOfFlight2</title>
<path fill="none" stroke="black" d="M640.44,-731.82C766.53,-724.57 962.64,-709.35 985.18,-684 1078.59,-578.97 813.58,-540.99 674.02,-528.51"/>
<polygon fill="black" stroke="black" points="674.05,-525 663.79,-527.62 673.45,-531.98 674.05,-525"/>
</g>
<!-- PaalmanPingsMonteCarloAbsorption -->
<g id="node13" class="node">
<title>PaalmanPingsMonteCarloAbsorption</title>
<ellipse fill="khaki" stroke="black" cx="174.18" cy="-666" rx="174.37" ry="18"/>
<text text-anchor="middle" x="174.18" y="-662.3" font-family="Helvetica,sans-Serif" font-size="14.00">PaalmanPingsMonteCarloAbsorption</text>
</g>
<!-- SelfAttenuationMethod&#45;&gt;PaalmanPingsMonteCarloAbsorption -->
<g id="edge17" class="edge">
<title>SelfAttenuationMethod&#45;&gt;PaalmanPingsMonteCarloAbsorption</title>
<path fill="none" stroke="black" d="M478.33,-726.14C420.57,-714.91 329.54,-697.21 262.11,-684.1"/>
<polygon fill="black" stroke="black" points="262.41,-680.59 251.92,-682.12 261.07,-687.46 262.41,-680.59"/>
</g>
<!-- PaalmanPingsAbsorptionCorrection -->
<g id="node26" class="node">
<title>PaalmanPingsAbsorptionCorrection</title>
<path fill="lightskyblue" stroke="black" d="M652.18,-684C652.18,-684 416.18,-684 416.18,-684 410.18,-684 404.18,-678 404.18,-672 404.18,-672 404.18,-660 404.18,-660 404.18,-654 410.18,-648 416.18,-648 416.18,-648 652.18,-648 652.18,-648 658.18,-648 664.18,-654 664.18,-660 664.18,-660 664.18,-672 664.18,-672 664.18,-678 658.18,-684 652.18,-684"/>
<text text-anchor="middle" x="534.18" y="-662.3" font-family="Helvetica,sans-Serif" font-size="14.00">PaalmanPingsAbsorptionCorrection</text>
</g>
<!-- SelfAttenuationMethod&#45;&gt;PaalmanPingsAbsorptionCorrection -->
<g id="edge21" class="edge">
<title>SelfAttenuationMethod&#45;&gt;PaalmanPingsAbsorptionCorrection</title>
<path fill="none" stroke="black" d="M534.18,-719.7C534.18,-711.98 534.18,-702.71 534.18,-694.11"/>
<polygon fill="black" stroke="black" points="537.68,-694.1 534.18,-684.1 530.68,-694.1 537.68,-694.1"/>
</g>
<!-- Divide2 -->
<g id="node28" class="node">
<title>Divide2</title>
<path fill="lightskyblue" stroke="black" d="M452.18,-612C452.18,-612 300.18,-612 300.18,-612 294.18,-612 288.18,-606 288.18,-600 288.18,-600 288.18,-588 288.18,-588 288.18,-582 294.18,-576 300.18,-576 300.18,-576 452.18,-576 452.18,-576 458.18,-576 464.18,-582 464.18,-588 464.18,-588 464.18,-600 464.18,-600 464.18,-606 458.18,-612 452.18,-612"/>
<text text-anchor="middle" x="376.18" y="-590.3" font-family="Helvetica,sans-Serif" font-size="14.00">Divide by transmission</text>
</g>
<!-- SelfAttenuationMethod&#45;&gt;Divide2 -->
<g id="edge18" class="edge">
<title>SelfAttenuationMethod&#45;&gt;Divide2</title>
<path fill="none" stroke="black" d="M471.36,-726.91C444.26,-719.43 414.42,-706.46 395.18,-684 380.61,-666.99 376.35,-641.53 375.45,-622.19"/>
<polygon fill="black" stroke="black" points="378.95,-622.1 375.25,-612.17 371.95,-622.24 378.95,-622.1"/>
</g>
<!-- SampleSelfAttenuationFactors -->
<g id="node31" class="node">
<title>SampleSelfAttenuationFactors</title>
<ellipse fill="lightgrey" stroke="black" cx="829.18" cy="-666" rx="146.77" ry="18"/>
<text text-anchor="middle" x="829.18" y="-662.3" font-family="Helvetica,sans-Serif" font-size="14.00">SampleSelfAttenuationFactors</text>
</g>
<!-- SelfAttenuationMethod&#45;&gt;SampleSelfAttenuationFactors -->
<g id="edge24" class="edge">
<title>SelfAttenuationMethod&#45;&gt;SampleSelfAttenuationFactors</title>
<path fill="none" stroke="black" d="M583.23,-725.36C630.12,-714.24 701.43,-697.31 755.22,-684.55"/>
<polygon fill="black" stroke="black" points="756.13,-687.93 765.05,-682.22 754.51,-681.12 756.13,-687.93"/>
</g>
<!-- SingleCrystal -->
<g id="node3" class="node">
<title>SingleCrystal</title>
<polygon fill="limegreen" stroke="black" points="892.18,-1260 793.15,-1242 892.18,-1224 991.22,-1242 892.18,-1260"/>
<text text-anchor="middle" x="892.18" y="-1238.3" font-family="Helvetica,sans-Serif" font-size="14.00">SingleCrystal</text>
</g>
<!-- Divide -->
<g id="node18" class="node">
<title>Divide</title>
<path fill="lightskyblue" stroke="black" d="M979.18,-1116C979.18,-1116 805.18,-1116 805.18,-1116 799.18,-1116 793.18,-1110 793.18,-1104 793.18,-1104 793.18,-1092 793.18,-1092 793.18,-1086 799.18,-1080 805.18,-1080 805.18,-1080 979.18,-1080 979.18,-1080 985.18,-1080 991.18,-1086 991.18,-1092 991.18,-1092 991.18,-1104 991.18,-1104 991.18,-1110 985.18,-1116 979.18,-1116"/>
<text text-anchor="middle" x="892.18" y="-1094.3" font-family="Helvetica,sans-Serif" font-size="14.00">Normalize to monitor/time</text>
</g>
<!-- SingleCrystal&#45;&gt;Divide -->
<g id="edge4" class="edge">
<title>SingleCrystal&#45;&gt;Divide</title>
<path fill="none" stroke="black" d="M880.32,-1225.76C873.24,-1215.66 864.92,-1201.79 861.18,-1188 857,-1172.56 857,-1167.44 861.18,-1152 863.76,-1142.48 868.53,-1132.92 873.56,-1124.59"/>
<polygon fill="black" stroke="black" points="876.56,-1126.39 879.04,-1116.09 870.68,-1122.6 876.56,-1126.39"/>
</g>
<!-- MergeOmegaScan -->
<g id="node19" class="node">
<title>MergeOmegaScan</title>
<path fill="lightskyblue" stroke="black" d="M1002.18,-1188C1002.18,-1188 882.18,-1188 882.18,-1188 876.18,-1188 870.18,-1182 870.18,-1176 870.18,-1176 870.18,-1164 870.18,-1164 870.18,-1158 876.18,-1152 882.18,-1152 882.18,-1152 1002.18,-1152 1002.18,-1152 1008.18,-1152 1014.18,-1158 1014.18,-1164 1014.18,-1164 1014.18,-1176 1014.18,-1176 1014.18,-1182 1008.18,-1188 1002.18,-1188"/>
<text text-anchor="middle" x="942.18" y="-1166.3" font-family="Helvetica,sans-Serif" font-size="14.00">MergeOmegaScan</text>
</g>
<!-- SingleCrystal&#45;&gt;MergeOmegaScan -->
<g id="edge5" class="edge">
<title>SingleCrystal&#45;&gt;MergeOmegaScan</title>
<path fill="none" stroke="black" d="M903.03,-1225.81C909.16,-1217.23 916.99,-1206.27 924.03,-1196.42"/>
<polygon fill="black" stroke="black" points="926.99,-1198.3 929.95,-1188.13 921.29,-1194.23 926.99,-1198.3"/>
</g>
<!-- TimeOfFlight1 -->
<g id="node4" class="node">
<title>TimeOfFlight1</title>
<polygon fill="limegreen" stroke="black" points="594.18,-972 492.97,-954 594.18,-936 695.4,-954 594.18,-972"/>
<text text-anchor="middle" x="594.18" y="-950.3" font-family="Helvetica,sans-Serif" font-size="14.00">Time&#45;of&#45;flight</text>
</g>
<!-- Multiply -->
<g id="node20" class="node">
<title>Multiply</title>
<path fill="lightskyblue" stroke="black" d="M627.68,-828C627.68,-828 440.68,-828 440.68,-828 434.68,-828 428.68,-822 428.68,-816 428.68,-816 428.68,-804 428.68,-804 428.68,-798 434.68,-792 440.68,-792 440.68,-792 627.68,-792 627.68,-792 633.68,-792 639.68,-798 639.68,-804 639.68,-804 639.68,-816 639.68,-816 639.68,-822 633.68,-828 627.68,-828"/>
<text text-anchor="middle" x="534.18" y="-806.3" font-family="Helvetica,sans-Serif" font-size="14.00">Correct polarising efficiency</text>
</g>
<!-- TimeOfFlight1&#45;&gt;Multiply -->
<g id="edge14" class="edge">
<title>TimeOfFlight1&#45;&gt;Multiply</title>
<path fill="none" stroke="black" d="M609.42,-938.63C626.61,-920.61 650.32,-889.04 635.18,-864 627.07,-850.59 614.32,-840.4 600.58,-832.73"/>
<polygon fill="black" stroke="black" points="601.93,-829.49 591.44,-828.04 598.74,-835.72 601.93,-829.49"/>
</g>
<!-- FrameOverlapCorrection -->
<g id="node21" class="node">
<title>FrameOverlapCorrection</title>
<path fill="lightskyblue" stroke="black" d="M614.68,-900C614.68,-900 453.68,-900 453.68,-900 447.68,-900 441.68,-894 441.68,-888 441.68,-888 441.68,-876 441.68,-876 441.68,-870 447.68,-864 453.68,-864 453.68,-864 614.68,-864 614.68,-864 620.68,-864 626.68,-870 626.68,-876 626.68,-876 626.68,-888 626.68,-888 626.68,-894 620.68,-900 614.68,-900"/>
<text text-anchor="middle" x="534.18" y="-878.3" font-family="Helvetica,sans-Serif" font-size="14.00">FrameOverlapCorrection</text>
</g>
<!-- TimeOfFlight1&#45;&gt;FrameOverlapCorrection -->
<g id="edge12" class="edge">
<title>TimeOfFlight1&#45;&gt;FrameOverlapCorrection</title>
<path fill="none" stroke="black" d="M581.46,-938.15C573.91,-929.35 564.16,-917.97 555.47,-907.83"/>
<polygon fill="black" stroke="black" points="557.96,-905.35 548.79,-900.04 552.64,-909.91 557.96,-905.35"/>
</g>
<!-- TimeOfFlight2&#45;&gt;AverageCounts -->
<g id="edge29" class="edge">
<title>TimeOfFlight2&#45;&gt;AverageCounts</title>
<path fill="none" stroke="black" d="M588.01,-504.66C578.72,-478.51 562.18,-425.5 562.18,-379 562.18,-379 562.18,-379 562.18,-305 562.18,-235.88 643.1,-196.96 700.95,-177.97"/>
<polygon fill="black" stroke="black" points="702.26,-181.22 710.74,-174.87 700.15,-174.55 702.26,-181.22"/>
</g>
<!-- FindEPP -->
<g id="node30" class="node">
<title>FindEPP</title>
<path fill="lightskyblue" stroke="black" d="M834.68,-468C834.68,-468 787.68,-468 787.68,-468 781.68,-468 775.68,-462 775.68,-456 775.68,-456 775.68,-444 775.68,-444 775.68,-438 781.68,-432 787.68,-432 787.68,-432 834.68,-432 834.68,-432 840.68,-432 846.68,-438 846.68,-444 846.68,-444 846.68,-456 846.68,-456 846.68,-462 840.68,-468 834.68,-468"/>
<text text-anchor="middle" x="811.18" y="-446.3" font-family="Helvetica,sans-Serif" font-size="14.00">FindEPP</text>
</g>
<!-- TimeOfFlight2&#45;&gt;FindEPP -->
<g id="edge30" class="edge">
<title>TimeOfFlight2&#45;&gt;FindEPP</title>
<path fill="none" stroke="black" d="M628.57,-509.91C665.66,-497.94 724.9,-478.83 765.8,-465.64"/>
<polygon fill="black" stroke="black" points="767.08,-468.91 775.52,-462.51 764.93,-462.24 767.08,-468.91"/>
</g>
<!-- ConvertToEnergy -->
<g id="node6" class="node">
<title>ConvertToEnergy</title>
<polygon fill="limegreen" stroke="black" points="997.18,-396 872.17,-378 997.18,-360 1122.2,-378 997.18,-396"/>
<text text-anchor="middle" x="997.18" y="-374.3" font-family="Helvetica,sans-Serif" font-size="14.00">ConvertToEnergy</text>
</g>
<!-- ConvertToEnergy&#45;&gt;AverageCounts -->
<g id="edge36" class="edge">
<title>ConvertToEnergy&#45;&gt;AverageCounts</title>
<path fill="none" stroke="black" d="M987.84,-360.84C968.95,-329.36 923.39,-259.14 869.18,-216 850.06,-200.78 825.84,-188.57 804.92,-179.73"/>
<polygon fill="black" stroke="black" points="806.14,-176.45 795.56,-175.9 803.49,-182.93 806.14,-176.45"/>
</g>
<!-- ElasticPeakCalibration -->
<g id="node23" class="node">
<title>ElasticPeakCalibration</title>
<path fill="lightskyblue" stroke="black" d="M831.18,-324C831.18,-324 685.18,-324 685.18,-324 679.18,-324 673.18,-318 673.18,-312 673.18,-312 673.18,-300 673.18,-300 673.18,-294 679.18,-288 685.18,-288 685.18,-288 831.18,-288 831.18,-288 837.18,-288 843.18,-294 843.18,-300 843.18,-300 843.18,-312 843.18,-312 843.18,-318 837.18,-324 831.18,-324"/>
<text text-anchor="middle" x="758.18" y="-302.3" font-family="Helvetica,sans-Serif" font-size="14.00">ElasticPeakCalibration</text>
</g>
<!-- ConvertToEnergy&#45;&gt;ElasticPeakCalibration -->
<g id="edge33" class="edge">
<title>ConvertToEnergy&#45;&gt;ElasticPeakCalibration</title>
<path fill="none" stroke="black" d="M958.25,-365.6C922.54,-355.14 868.87,-339.42 826.1,-326.89"/>
<polygon fill="black" stroke="black" points="826.9,-323.48 816.32,-324.03 824.93,-330.2 826.9,-323.48"/>
</g>
<!-- Run -->
<g id="node7" class="node">
<title>Run</title>
<ellipse fill="khaki" stroke="black" cx="808.18" cy="-1386" rx="28.7" ry="18"/>
<text text-anchor="middle" x="808.18" y="-1382.3" font-family="Helvetica,sans-Serif" font-size="14.00">Run</text>
</g>
<!-- LoadAndMerge -->
<g id="node17" class="node">
<title>LoadAndMerge</title>
<path fill="lightskyblue" stroke="black" d="M940.68,-1332C940.68,-1332 843.68,-1332 843.68,-1332 837.68,-1332 831.68,-1326 831.68,-1320 831.68,-1320 831.68,-1308 831.68,-1308 831.68,-1302 837.68,-1296 843.68,-1296 843.68,-1296 940.68,-1296 940.68,-1296 946.68,-1296 952.68,-1302 952.68,-1308 952.68,-1308 952.68,-1320 952.68,-1320 952.68,-1326 946.68,-1332 940.68,-1332"/>
<text text-anchor="middle" x="892.18" y="-1310.3" font-family="Helvetica,sans-Serif" font-size="14.00">LoadAndMerge</text>
</g>
<!-- Run&#45;&gt;LoadAndMerge -->
<g id="edge1" class="edge">
<title>Run&#45;&gt;LoadAndMerge</title>
<path fill="none" stroke="black" d="M824.78,-1371.17C835.95,-1361.87 850.95,-1349.36 863.97,-1338.52"/>
<polygon fill="black" stroke="black" points="866.32,-1341.11 871.76,-1332.02 861.84,-1335.73 866.32,-1341.11"/>
</g>
<!-- D7YIGPositionCalibration -->
<g id="node8" class="node">
<title>D7YIGPositionCalibration</title>
<ellipse fill="khaki" stroke="black" cx="977.18" cy="-1386" rx="122.38" ry="18"/>
<text text-anchor="middle" x="977.18" y="-1382.3" font-family="Helvetica,sans-Serif" font-size="14.00">D7YIGPositionCalibration</text>
</g>
<!-- D7YIGPositionCalibration&#45;&gt;LoadAndMerge -->
<g id="edge2" class="edge">
<title>D7YIGPositionCalibration&#45;&gt;LoadAndMerge</title>
<path fill="none" stroke="black" d="M956.61,-1368.05C945.83,-1359.18 932.46,-1348.17 920.7,-1338.48"/>
<polygon fill="black" stroke="black" points="922.81,-1335.69 912.87,-1332.03 918.36,-1341.09 922.81,-1335.69"/>
</g>
<!-- CadmiumWorkspace -->
<g id="node9" class="node">
<title>CadmiumWorkspace</title>
<ellipse fill="khaki" stroke="black" cx="228.18" cy="-1098" rx="103.98" ry="18"/>
<text text-anchor="middle" x="228.18" y="-1094.3" font-family="Helvetica,sans-Serif" font-size="14.00">CadmiumWorkspace</text>
</g>
<!-- Minus -->
<g id="node24" class="node">
<title>Minus</title>
<path fill="lightskyblue" stroke="black" d="M663.68,-1044C663.68,-1044 524.68,-1044 524.68,-1044 518.68,-1044 512.68,-1038 512.68,-1032 512.68,-1032 512.68,-1020 512.68,-1020 512.68,-1014 518.68,-1008 524.68,-1008 524.68,-1008 663.68,-1008 663.68,-1008 669.68,-1008 675.68,-1014 675.68,-1020 675.68,-1020 675.68,-1032 675.68,-1032 675.68,-1038 669.68,-1044 663.68,-1044"/>
<text text-anchor="middle" x="594.18" y="-1022.3" font-family="Helvetica,sans-Serif" font-size="14.00">Subtract background</text>
</g>
<!-- CadmiumWorkspace&#45;&gt;Minus -->
<g id="edge8" class="edge">
<title>CadmiumWorkspace&#45;&gt;Minus</title>
<path fill="none" stroke="black" d="M295.31,-1084.16C353.4,-1073.05 437.93,-1056.88 502.29,-1044.58"/>
<polygon fill="black" stroke="black" points="503.27,-1047.95 512.43,-1042.64 501.96,-1041.08 503.27,-1047.95"/>
</g>
<!-- EmptyContainerWorkspace -->
<g id="node10" class="node">
<title>EmptyContainerWorkspace</title>
<ellipse fill="khaki" stroke="black" cx="484.18" cy="-1098" rx="133.78" ry="18"/>
<text text-anchor="middle" x="484.18" y="-1094.3" font-family="Helvetica,sans-Serif" font-size="14.00">EmptyContainerWorkspace</text>
</g>
<!-- EmptyContainerWorkspace&#45;&gt;Minus -->
<g id="edge9" class="edge">
<title>EmptyContainerWorkspace&#45;&gt;Minus</title>
<path fill="none" stroke="black" d="M510.53,-1080.23C524.88,-1071.1 542.83,-1059.68 558.42,-1049.76"/>
<polygon fill="black" stroke="black" points="560.73,-1052.44 567.29,-1044.12 556.97,-1046.53 560.73,-1052.44"/>
</g>
<!-- QuartzWorkspace -->
<g id="node11" class="node">
<title>QuartzWorkspace</title>
<ellipse fill="khaki" stroke="black" cx="333.18" cy="-882" rx="90.98" ry="18"/>
<text text-anchor="middle" x="333.18" y="-878.3" font-family="Helvetica,sans-Serif" font-size="14.00">QuartzWorkspace</text>
</g>
<!-- QuartzWorkspace&#45;&gt;Multiply -->
<g id="edge15" class="edge">
<title>QuartzWorkspace&#45;&gt;Multiply</title>
<path fill="none" stroke="black" d="M376.3,-865.98C405.26,-855.9 443.78,-842.49 475.52,-831.43"/>
<polygon fill="black" stroke="black" points="476.84,-834.68 485.13,-828.08 474.54,-828.07 476.84,-834.68"/>
</g>
<!-- Transmission -->
<g id="node12" class="node">
<title>Transmission</title>
<ellipse fill="khaki" stroke="black" cx="705.18" cy="-1098" rx="69.59" ry="18"/>
<text text-anchor="middle" x="705.18" y="-1094.3" font-family="Helvetica,sans-Serif" font-size="14.00">Transmission</text>
</g>
<!-- Transmission&#45;&gt;Minus -->
<g id="edge10" class="edge">
<title>Transmission&#45;&gt;Minus</title>
<path fill="none" stroke="black" d="M680,-1081.12C665.21,-1071.79 646.28,-1059.85 629.96,-1049.56"/>
<polygon fill="black" stroke="black" points="631.54,-1046.42 621.21,-1044.04 627.8,-1052.34 631.54,-1046.42"/>
</g>
<!-- ApplyPaalmanPingsCorrection -->
<g id="node27" class="node">
<title>ApplyPaalmanPingsCorrection</title>
<path fill="lightskyblue" stroke="black" d="M694.18,-612C694.18,-612 494.18,-612 494.18,-612 488.18,-612 482.18,-606 482.18,-600 482.18,-600 482.18,-588 482.18,-588 482.18,-582 488.18,-576 494.18,-576 494.18,-576 694.18,-576 694.18,-576 700.18,-576 706.18,-582 706.18,-588 706.18,-588 706.18,-600 706.18,-600 706.18,-606 700.18,-612 694.18,-612"/>
<text text-anchor="middle" x="594.18" y="-590.3" font-family="Helvetica,sans-Serif" font-size="14.00">ApplyPaalmanPingsCorrection</text>
</g>
<!-- PaalmanPingsMonteCarloAbsorption&#45;&gt;ApplyPaalmanPingsCorrection -->
<g id="edge20" class="edge">
<title>PaalmanPingsMonteCarloAbsorption&#45;&gt;ApplyPaalmanPingsCorrection</title>
<path fill="none" stroke="black" d="M261.72,-650.41C325.65,-639.76 412.86,-625.22 481.91,-613.71"/>
<polygon fill="black" stroke="black" points="482.68,-617.13 491.97,-612.04 481.53,-610.23 482.68,-617.13"/>
</g>
<!-- SampleAndEnvironmentProperties -->
<g id="node14" class="node">
<title>SampleAndEnvironmentProperties</title>
<ellipse fill="khaki" stroke="black" cx="182.18" cy="-738" rx="165.17" ry="18"/>
<text text-anchor="middle" x="182.18" y="-734.3" font-family="Helvetica,sans-Serif" font-size="14.00">SampleAndEnvironmentProperties</text>
</g>
<!-- SampleAndEnvironmentProperties&#45;&gt;PaalmanPingsMonteCarloAbsorption -->
<g id="edge19" class="edge">
<title>SampleAndEnvironmentProperties&#45;&gt;PaalmanPingsMonteCarloAbsorption</title>
<path fill="none" stroke="black" d="M180.21,-719.7C179.33,-711.98 178.27,-702.71 177.28,-694.11"/>
<polygon fill="black" stroke="black" points="180.75,-693.64 176.14,-684.1 173.8,-694.44 180.75,-693.64"/>
</g>
<!-- SampleAndEnvironmentProperties&#45;&gt;PaalmanPingsAbsorptionCorrection -->
<g id="edge22" class="edge">
<title>SampleAndEnvironmentProperties&#45;&gt;PaalmanPingsAbsorptionCorrection</title>
<path fill="none" stroke="black" d="M257.7,-721.98C310.58,-711.47 381.67,-697.33 438.51,-686.03"/>
<polygon fill="black" stroke="black" points="439.47,-689.4 448.59,-684.02 438.1,-682.54 439.47,-689.4"/>
</g>
<!-- ElasticChannelsWorkspace -->
<g id="node15" class="node">
<title>ElasticChannelsWorkspace</title>
<ellipse fill="khaki" stroke="black" cx="722.18" cy="-378" rx="131.88" ry="18"/>
<text text-anchor="middle" x="722.18" y="-374.3" font-family="Helvetica,sans-Serif" font-size="14.00">ElasticChannelsWorkspace</text>
</g>
<!-- ElasticChannelsWorkspace&#45;&gt;ElasticPeakCalibration -->
<g id="edge31" class="edge">
<title>ElasticChannelsWorkspace&#45;&gt;ElasticPeakCalibration</title>
<path fill="none" stroke="black" d="M731.08,-359.7C735.18,-351.73 740.13,-342.1 744.68,-333.26"/>
<polygon fill="black" stroke="black" points="747.93,-334.6 749.39,-324.1 741.7,-331.4 747.93,-334.6"/>
</g>
<!-- LoadAndMerge&#45;&gt;SingleCrystal -->
<g id="edge3" class="edge">
<title>LoadAndMerge&#45;&gt;SingleCrystal</title>
<path fill="none" stroke="black" d="M892.18,-1295.7C892.18,-1287.98 892.18,-1278.71 892.18,-1270.11"/>
<polygon fill="black" stroke="black" points="895.68,-1270.1 892.18,-1260.1 888.68,-1270.1 895.68,-1270.1"/>
</g>
<!-- Divide&#45;&gt;Minus -->
<g id="edge7" class="edge">
<title>Divide&#45;&gt;Minus</title>
<path fill="none" stroke="black" d="M819.67,-1079.97C776.5,-1069.83 721.59,-1056.93 676.76,-1046.4"/>
<polygon fill="black" stroke="black" points="677.3,-1042.93 666.77,-1044.05 675.7,-1049.74 677.3,-1042.93"/>
</g>
<!-- MergeOmegaScan&#45;&gt;Divide -->
<g id="edge6" class="edge">
<title>MergeOmegaScan&#45;&gt;Divide</title>
<path fill="none" stroke="black" d="M929.82,-1151.7C923.95,-1143.47 916.82,-1133.48 910.34,-1124.42"/>
<polygon fill="black" stroke="black" points="913.06,-1122.21 904.4,-1116.1 907.37,-1126.28 913.06,-1122.21"/>
</g>
<!-- Multiply&#45;&gt;SelfAttenuationMethod -->
<g id="edge16" class="edge">
<title>Multiply&#45;&gt;SelfAttenuationMethod</title>
<path fill="none" stroke="black" d="M534.18,-791.7C534.18,-783.98 534.18,-774.71 534.18,-766.11"/>
<polygon fill="black" stroke="black" points="537.68,-766.1 534.18,-756.1 530.68,-766.1 537.68,-766.1"/>
</g>
<!-- FrameOverlapCorrection&#45;&gt;Multiply -->
<g id="edge13" class="edge">
<title>FrameOverlapCorrection&#45;&gt;Multiply</title>
<path fill="none" stroke="black" d="M534.18,-863.7C534.18,-855.98 534.18,-846.71 534.18,-838.11"/>
<polygon fill="black" stroke="black" points="537.68,-838.1 534.18,-828.1 530.68,-838.1 537.68,-838.1"/>
</g>
<!-- EnergyEfficiencyCorrection -->
<g id="node22" class="node">
<title>EnergyEfficiencyCorrection</title>
<path fill="lightskyblue" stroke="black" d="M848.68,-252C848.68,-252 667.68,-252 667.68,-252 661.68,-252 655.68,-246 655.68,-240 655.68,-240 655.68,-228 655.68,-228 655.68,-222 661.68,-216 667.68,-216 667.68,-216 848.68,-216 848.68,-216 854.68,-216 860.68,-222 860.68,-228 860.68,-228 860.68,-240 860.68,-240 860.68,-246 854.68,-252 848.68,-252"/>
<text text-anchor="middle" x="758.18" y="-230.3" font-family="Helvetica,sans-Serif" font-size="14.00">EnergyEfficiencyCorrection</text>
</g>
<!-- EnergyEfficiencyCorrection&#45;&gt;AverageCounts -->
<g id="edge35" class="edge">
<title>EnergyEfficiencyCorrection&#45;&gt;AverageCounts</title>
<path fill="none" stroke="black" d="M758.18,-215.7C758.18,-207.98 758.18,-198.71 758.18,-190.11"/>
<polygon fill="black" stroke="black" points="761.68,-190.1 758.18,-180.1 754.68,-190.1 761.68,-190.1"/>
</g>
<!-- ElasticPeakCalibration&#45;&gt;EnergyEfficiencyCorrection -->
<g id="edge34" class="edge">
<title>ElasticPeakCalibration&#45;&gt;EnergyEfficiencyCorrection</title>
<path fill="none" stroke="black" d="M758.18,-287.7C758.18,-279.98 758.18,-270.71 758.18,-262.11"/>
<polygon fill="black" stroke="black" points="761.68,-262.1 758.18,-252.1 754.68,-262.1 761.68,-262.1"/>
</g>
<!-- Minus&#45;&gt;TimeOfFlight1 -->
<g id="edge11" class="edge">
<title>Minus&#45;&gt;TimeOfFlight1</title>
<path fill="none" stroke="black" d="M594.18,-1007.7C594.18,-999.98 594.18,-990.71 594.18,-982.11"/>
<polygon fill="black" stroke="black" points="597.68,-982.1 594.18,-972.1 590.68,-982.1 597.68,-982.1"/>
</g>
<!-- Plus&#45;&gt;OutputWorkspace -->
<g id="edge41" class="edge">
<title>Plus&#45;&gt;OutputWorkspace</title>
<path fill="none" stroke="black" d="M758.18,-71.7C758.18,-63.98 758.18,-54.71 758.18,-46.11"/>
<polygon fill="black" stroke="black" points="761.68,-46.1 758.18,-36.1 754.68,-46.1 761.68,-46.1"/>
</g>
<!-- PaalmanPingsAbsorptionCorrection&#45;&gt;ApplyPaalmanPingsCorrection -->
<g id="edge23" class="edge">
<title>PaalmanPingsAbsorptionCorrection&#45;&gt;ApplyPaalmanPingsCorrection</title>
<path fill="none" stroke="black" d="M549.02,-647.7C556.21,-639.3 564.98,-629.07 572.87,-619.86"/>
<polygon fill="black" stroke="black" points="575.67,-621.97 579.52,-612.1 570.36,-617.42 575.67,-621.97"/>
</g>
<!-- ApplyPaalmanPingsCorrection&#45;&gt;TimeOfFlight2 -->
<g id="edge27" class="edge">
<title>ApplyPaalmanPingsCorrection&#45;&gt;TimeOfFlight2</title>
<path fill="none" stroke="black" d="M594.18,-575.7C594.18,-567.98 594.18,-558.71 594.18,-550.11"/>
<polygon fill="black" stroke="black" points="597.68,-550.1 594.18,-540.1 590.68,-550.1 597.68,-550.1"/>
</g>
<!-- Divide2&#45;&gt;TimeOfFlight2 -->
<g id="edge28" class="edge">
<title>Divide2&#45;&gt;TimeOfFlight2</title>
<path fill="none" stroke="black" d="M429.23,-575.97C466.29,-564.07 515.17,-548.37 550.08,-537.16"/>
<polygon fill="black" stroke="black" points="551.54,-540.37 559.99,-533.98 549.4,-533.7 551.54,-540.37"/>
</g>
<!-- SumOverlappingTubes&#45;&gt;OutputWorkspace -->
<g id="edge40" class="edge">
<title>SumOverlappingTubes&#45;&gt;OutputWorkspace</title>
<path fill="none" stroke="black" d="M600.04,-71.97C629.37,-62.14 666.44,-49.73 697.31,-39.39"/>
<polygon fill="black" stroke="black" points="698.73,-42.61 707.1,-36.11 696.5,-35.97 698.73,-42.61"/>
</g>
<!-- FindEPP&#45;&gt;ConvertToEnergy -->
<g id="edge32" class="edge">
<title>FindEPP&#45;&gt;ConvertToEnergy</title>
<path fill="none" stroke="black" d="M847.05,-435.5C877.76,-423.95 922.04,-407.28 954.55,-395.04"/>
<polygon fill="black" stroke="black" points="956.11,-398.2 964.24,-391.4 953.65,-391.65 956.11,-398.2"/>
</g>
<!-- SampleSelfAttenuationFactors&#45;&gt;ApplyPaalmanPingsCorrection -->
<g id="edge25" class="edge">
<title>SampleSelfAttenuationFactors&#45;&gt;ApplyPaalmanPingsCorrection</title>
<path fill="none" stroke="black" d="M776.15,-649.2C742.25,-639.1 697.97,-625.92 661.58,-615.08"/>
<polygon fill="black" stroke="black" points="662.13,-611.59 651.54,-612.09 660.13,-618.29 662.13,-611.59"/>
</g>
</g>
</svg>
