<?xml version="1.0" encoding="UTF-8" standalone="no"?>
<!DOCTYPE svg PUBLIC "-//W3C//DTD SVG 1.1//EN"
 "http://www.w3.org/Graphics/SVG/1.1/DTD/svg11.dtd">
<!-- Generated by graphviz version 2.47.2 (20210527.1257)
 -->
<!-- Title: Transmission Pages: 1 -->
<svg width="490pt" height="404pt"
 viewBox="0.00 0.00 490.09 404.00" xmlns="http://www.w3.org/2000/svg" xmlns:xlink="http://www.w3.org/1999/xlink">
<g id="graph0" class="graph" transform="scale(1 1) rotate(0) translate(4 400)">
<title>Transmission</title>
<polygon fill="white" stroke="transparent" points="-4,4 -4,-400 486.09,-400 486.09,4 -4,4"/>
<!-- Run -->
<g id="node1" class="node">
<title>Run</title>
<ellipse fill="khaki" stroke="black" cx="86.5" cy="-378" rx="27" ry="18"/>
<text text-anchor="middle" x="86.5" y="-374.3" font-family="Helvetica" font-size="14.00">Run</text>
</g>
<!-- LoadAndMerge -->
<g id="node5" class="node">
<title>LoadAndMerge</title>
<path fill="lightskyblue" stroke="black" d="M129.5,-324C129.5,-324 43.5,-324 43.5,-324 37.5,-324 31.5,-318 31.5,-312 31.5,-312 31.5,-300 31.5,-300 31.5,-294 37.5,-288 43.5,-288 43.5,-288 129.5,-288 129.5,-288 135.5,-288 141.5,-294 141.5,-300 141.5,-300 141.5,-312 141.5,-312 141.5,-318 135.5,-324 129.5,-324"/>
<text text-anchor="middle" x="86.5" y="-302.3" font-family="Helvetica" font-size="14.00">LoadAndMerge</text>
</g>
<!-- Run&#45;&gt;LoadAndMerge -->
<g id="edge1" class="edge">
<title>Run&#45;&gt;LoadAndMerge</title>
<path fill="none" stroke="black" d="M86.5,-359.7C86.5,-351.98 86.5,-342.71 86.5,-334.11"/>
<polygon fill="black" stroke="black" points="90,-334.1 86.5,-324.1 83,-334.1 90,-334.1"/>
</g>
<!-- CadmiumTransmissionWorkspace -->
<g id="node2" class="node">
<title>CadmiumTransmissionWorkspace</title>
<ellipse fill="khaki" stroke="black" cx="336.5" cy="-234" rx="145.67" ry="18"/>
<text text-anchor="middle" x="336.5" y="-230.3" font-family="Helvetica" font-size="14.00">CadmiumTransmissionWorkspace</text>
</g>
<!-- Minus -->
<g id="node8" class="node">
<title>Minus</title>
<path fill="lightskyblue" stroke="black" d="M226.5,-180C226.5,-180 196.5,-180 196.5,-180 190.5,-180 184.5,-174 184.5,-168 184.5,-168 184.5,-156 184.5,-156 184.5,-150 190.5,-144 196.5,-144 196.5,-144 226.5,-144 226.5,-144 232.5,-144 238.5,-150 238.5,-156 238.5,-156 238.5,-168 238.5,-168 238.5,-174 232.5,-180 226.5,-180"/>
<text text-anchor="middle" x="211.5" y="-158.3" font-family="Helvetica" font-size="14.00">Minus</text>
</g>
<!-- CadmiumTransmissionWorkspace&#45;&gt;Minus -->
<g id="edge4" class="edge">
<title>CadmiumTransmissionWorkspace&#45;&gt;Minus</title>
<path fill="none" stroke="black" d="M306.56,-216.23C288.81,-206.29 266.19,-193.63 247.48,-183.15"/>
<polygon fill="black" stroke="black" points="249.07,-180.03 238.64,-178.2 245.65,-186.14 249.07,-180.03"/>
</g>
<!-- EmptyBeamWorkspace -->
<g id="node3" class="node">
<title>EmptyBeamWorkspace</title>
<ellipse fill="khaki" stroke="black" cx="359.5" cy="-162" rx="103.18" ry="18"/>
<text text-anchor="middle" x="359.5" y="-158.3" font-family="Helvetica" font-size="14.00">EmptyBeamWorkspace</text>
</g>
<!-- Divide2 -->
<g id="node7" class="node">
<title>Divide2</title>
<path fill="lightskyblue" stroke="black" d="M300.5,-108C300.5,-108 270.5,-108 270.5,-108 264.5,-108 258.5,-102 258.5,-96 258.5,-96 258.5,-84 258.5,-84 258.5,-78 264.5,-72 270.5,-72 270.5,-72 300.5,-72 300.5,-72 306.5,-72 312.5,-78 312.5,-84 312.5,-84 312.5,-96 312.5,-96 312.5,-102 306.5,-108 300.5,-108"/>
<text text-anchor="middle" x="285.5" y="-86.3" font-family="Helvetica" font-size="14.00">Divide</text>
</g>
<!-- EmptyBeamWorkspace&#45;&gt;Divide2 -->
<g id="edge6" class="edge">
<title>EmptyBeamWorkspace&#45;&gt;Divide2</title>
<path fill="none" stroke="black" d="M341.59,-144.05C332.38,-135.35 321.01,-124.59 310.92,-115.04"/>
<polygon fill="black" stroke="black" points="313.17,-112.36 303.5,-108.03 308.36,-117.45 313.17,-112.36"/>
</g>
<!-- OutputWorkspace -->
<g id="node4" class="node">
<title>OutputWorkspace</title>
<polygon fill="grey" stroke="black" points="419.73,-36 206.2,-36 151.27,0 364.8,0 419.73,-36"/>
<text text-anchor="middle" x="285.5" y="-14.3" font-family="Times-Roman" font-size="14.00">OutputWorkspace</text>
</g>
<!-- Divide -->
<g id="node6" class="node">
<title>Divide</title>
<path fill="lightskyblue" stroke="black" d="M161,-252C161,-252 12,-252 12,-252 6,-252 0,-246 0,-240 0,-240 0,-228 0,-228 0,-222 6,-216 12,-216 12,-216 161,-216 161,-216 167,-216 173,-222 173,-228 173,-228 173,-240 173,-240 173,-246 167,-252 161,-252"/>
<text text-anchor="middle" x="86.5" y="-230.3" font-family="Helvetica" font-size="14.00">Normalize to monitor/time</text>
</g>
<!-- LoadAndMerge&#45;&gt;Divide -->
<g id="edge2" class="edge">
<title>LoadAndMerge&#45;&gt;Divide</title>
<path fill="none" stroke="black" d="M86.5,-287.7C86.5,-279.98 86.5,-270.71 86.5,-262.11"/>
<polygon fill="black" stroke="black" points="90,-262.1 86.5,-252.1 83,-262.1 90,-262.1"/>
</g>
<!-- Divide&#45;&gt;Minus -->
<g id="edge3" class="edge">
<title>Divide&#45;&gt;Minus</title>
<path fill="none" stroke="black" d="M117.08,-215.88C134.72,-206 157,-193.52 175.48,-183.17"/>
<polygon fill="black" stroke="black" points="177.2,-186.22 184.22,-178.28 173.78,-180.11 177.2,-186.22"/>
</g>
<!-- Divide2&#45;&gt;OutputWorkspace -->
<g id="edge7" class="edge">
<title>Divide2&#45;&gt;OutputWorkspace</title>
<path fill="none" stroke="black" d="M285.5,-71.7C285.5,-63.98 285.5,-54.71 285.5,-46.11"/>
<polygon fill="black" stroke="black" points="289,-46.1 285.5,-36.1 282,-46.1 289,-46.1"/>
</g>
<!-- Minus&#45;&gt;Divide2 -->
<g id="edge5" class="edge">
<title>Minus&#45;&gt;Divide2</title>
<path fill="none" stroke="black" d="M229.79,-143.7C238.93,-135.05 250.14,-124.45 260.1,-115.03"/>
<polygon fill="black" stroke="black" points="262.56,-117.52 267.42,-108.1 257.75,-112.43 262.56,-117.52"/>
</g>
</g>
</svg>
