<?xml version="1.0" encoding="UTF-8" standalone="no"?>
<!DOCTYPE svg PUBLIC "-//W3C//DTD SVG 1.1//EN"
 "http://www.w3.org/Graphics/SVG/1.1/DTD/svg11.dtd">
<!-- Generated by graphviz version 3.0.0 (20220315.2325)
 -->
<!-- Title: Quartz Pages: 1 -->
<svg width="888pt" height="404pt"
 viewBox="0.00 0.00 888.14 404.00" xmlns="http://www.w3.org/2000/svg" xmlns:xlink="http://www.w3.org/1999/xlink">
<g id="graph0" class="graph" transform="scale(1 1) rotate(0) translate(4 400)">
<title>Quartz</title>
<polygon fill="white" stroke="transparent" points="-4,4 -4,-400 884.14,-400 884.14,4 -4,4"/>
<!-- Run -->
<g id="node1" class="node">
<title>Run</title>
<ellipse fill="khaki" stroke="black" cx="28.6" cy="-378" rx="28.7" ry="18"/>
<text text-anchor="middle" x="28.6" y="-374.3" font-family="Helvetica,sans-Serif" font-size="14.00">Run</text>
</g>
<!-- LoadAndMerge -->
<g id="node7" class="node">
<title>LoadAndMerge</title>
<path fill="lightskyblue" stroke="black" d="M161.1,-324C161.1,-324 64.1,-324 64.1,-324 58.1,-324 52.1,-318 52.1,-312 52.1,-312 52.1,-300 52.1,-300 52.1,-294 58.1,-288 64.1,-288 64.1,-288 161.1,-288 161.1,-288 167.1,-288 173.1,-294 173.1,-300 173.1,-300 173.1,-312 173.1,-312 173.1,-318 167.1,-324 161.1,-324"/>
<text text-anchor="middle" x="112.6" y="-302.3" font-family="Helvetica,sans-Serif" font-size="14.00">LoadAndMerge</text>
</g>
<!-- Run&#45;&gt;LoadAndMerge -->
<g id="edge1" class="edge">
<title>Run&#45;&gt;LoadAndMerge</title>
<path fill="none" stroke="black" d="M45.19,-363.17C56.36,-353.87 71.36,-341.36 84.38,-330.52"/>
<polygon fill="black" stroke="black" points="86.73,-333.11 92.17,-324.02 82.25,-327.73 86.73,-333.11"/>
</g>
<!-- D7YIGPositionCalibration -->
<g id="node2" class="node">
<title>D7YIGPositionCalibration</title>
<ellipse fill="khaki" stroke="black" cx="197.6" cy="-378" rx="122.38" ry="18"/>
<text text-anchor="middle" x="197.6" y="-374.3" font-family="Helvetica,sans-Serif" font-size="14.00">D7YIGPositionCalibration</text>
</g>
<!-- D7YIGPositionCalibration&#45;&gt;LoadAndMerge -->
<g id="edge2" class="edge">
<title>D7YIGPositionCalibration&#45;&gt;LoadAndMerge</title>
<path fill="none" stroke="black" d="M177.02,-360.05C166.24,-351.18 152.87,-340.17 141.11,-330.48"/>
<polygon fill="black" stroke="black" points="143.22,-327.69 133.28,-324.03 138.77,-333.09 143.22,-327.69"/>
</g>
<!-- CadmiumWorkspace -->
<g id="node3" class="node">
<title>CadmiumWorkspace</title>
<ellipse fill="khaki" stroke="black" cx="333.6" cy="-234" rx="103.98" ry="18"/>
<text text-anchor="middle" x="333.6" y="-230.3" font-family="Helvetica,sans-Serif" font-size="14.00">CadmiumWorkspace</text>
</g>
<!-- Minus -->
<g id="node9" class="node">
<title>Minus</title>
<path fill="lightskyblue" stroke="black" d="M531.1,-180C531.1,-180 392.1,-180 392.1,-180 386.1,-180 380.1,-174 380.1,-168 380.1,-168 380.1,-156 380.1,-156 380.1,-150 386.1,-144 392.1,-144 392.1,-144 531.1,-144 531.1,-144 537.1,-144 543.1,-150 543.1,-156 543.1,-156 543.1,-168 543.1,-168 543.1,-174 537.1,-180 531.1,-180"/>
<text text-anchor="middle" x="461.6" y="-158.3" font-family="Helvetica,sans-Serif" font-size="14.00">Subtract background</text>
</g>
<!-- CadmiumWorkspace&#45;&gt;Minus -->
<g id="edge5" class="edge">
<title>CadmiumWorkspace&#45;&gt;Minus</title>
<path fill="none" stroke="black" d="M363.61,-216.59C380.88,-207.14 402.81,-195.15 421.54,-184.91"/>
<polygon fill="black" stroke="black" points="423.34,-187.91 430.44,-180.04 419.99,-181.77 423.34,-187.91"/>
</g>
<!-- EmptyContainerWorkspace -->
<g id="node4" class="node">
<title>EmptyContainerWorkspace</title>
<ellipse fill="khaki" stroke="black" cx="589.6" cy="-234" rx="133.78" ry="18"/>
<text text-anchor="middle" x="589.6" y="-230.3" font-family="Helvetica,sans-Serif" font-size="14.00">EmptyContainerWorkspace</text>
</g>
<!-- EmptyContainerWorkspace&#45;&gt;Minus -->
<g id="edge6" class="edge">
<title>EmptyContainerWorkspace&#45;&gt;Minus</title>
<path fill="none" stroke="black" d="M559.26,-216.41C542.11,-207.03 520.45,-195.18 501.88,-185.03"/>
<polygon fill="black" stroke="black" points="503.5,-181.93 493.05,-180.2 500.15,-188.07 503.5,-181.93"/>
</g>
<!-- Transmission -->
<g id="node5" class="node">
<title>Transmission</title>
<ellipse fill="khaki" stroke="black" cx="810.6" cy="-234" rx="69.59" ry="18"/>
<text text-anchor="middle" x="810.6" y="-230.3" font-family="Helvetica,sans-Serif" font-size="14.00">Transmission</text>
</g>
<!-- Transmission&#45;&gt;Minus -->
<g id="edge7" class="edge">
<title>Transmission&#45;&gt;Minus</title>
<path fill="none" stroke="black" d="M759.44,-221.69C750.5,-219.76 741.28,-217.8 732.6,-216 672.95,-203.67 605.75,-190.52 553.19,-180.41"/>
<polygon fill="black" stroke="black" points="553.7,-176.94 543.22,-178.49 552.38,-183.81 553.7,-176.94"/>
</g>
<!-- OutputWorkspace -->
<g id="node6" class="node">
<title>OutputWorkspace</title>
<polygon fill="grey" stroke="black" points="599.95,-36 379.86,-36 323.24,0 543.33,0 599.95,-36"/>
<text text-anchor="middle" x="461.6" y="-14.3" font-family="Times,serif" font-size="14.00">OutputWorkspace</text>
</g>
<!-- Divide -->
<g id="node8" class="node">
<title>Divide</title>
<path fill="lightskyblue" stroke="black" d="M199.6,-252C199.6,-252 25.6,-252 25.6,-252 19.6,-252 13.6,-246 13.6,-240 13.6,-240 13.6,-228 13.6,-228 13.6,-222 19.6,-216 25.6,-216 25.6,-216 199.6,-216 199.6,-216 205.6,-216 211.6,-222 211.6,-228 211.6,-228 211.6,-240 211.6,-240 211.6,-246 205.6,-252 199.6,-252"/>
<text text-anchor="middle" x="112.6" y="-230.3" font-family="Helvetica,sans-Serif" font-size="14.00">Normalize to monitor/time</text>
</g>
<!-- LoadAndMerge&#45;&gt;Divide -->
<g id="edge3" class="edge">
<title>LoadAndMerge&#45;&gt;Divide</title>
<path fill="none" stroke="black" d="M112.6,-287.7C112.6,-279.98 112.6,-270.71 112.6,-262.11"/>
<polygon fill="black" stroke="black" points="116.1,-262.1 112.6,-252.1 109.1,-262.1 116.1,-262.1"/>
</g>
<!-- Divide&#45;&gt;Minus -->
<g id="edge4" class="edge">
<title>Divide&#45;&gt;Minus</title>
<path fill="none" stroke="black" d="M197.53,-215.97C249.76,-205.49 316.69,-192.07 370.09,-181.35"/>
<polygon fill="black" stroke="black" points="370.78,-184.78 379.9,-179.39 369.41,-177.92 370.78,-184.78"/>
</g>
<!-- Divide2 -->
<g id="node10" class="node">
<title>Divide2</title>
<path fill="lightskyblue" stroke="black" d="M567.6,-108C567.6,-108 355.6,-108 355.6,-108 349.6,-108 343.6,-102 343.6,-96 343.6,-96 343.6,-84 343.6,-84 343.6,-78 349.6,-72 355.6,-72 355.6,-72 567.6,-72 567.6,-72 573.6,-72 579.6,-78 579.6,-84 579.6,-84 579.6,-96 579.6,-96 579.6,-102 573.6,-108 567.6,-108"/>
<text text-anchor="middle" x="461.6" y="-86.3" font-family="Helvetica,sans-Serif" font-size="14.00">Calculate polarising efficiencies</text>
</g>
<!-- Minus&#45;&gt;Divide2 -->
<g id="edge8" class="edge">
<title>Minus&#45;&gt;Divide2</title>
<path fill="none" stroke="black" d="M461.6,-143.7C461.6,-135.98 461.6,-126.71 461.6,-118.11"/>
<polygon fill="black" stroke="black" points="465.1,-118.1 461.6,-108.1 458.1,-118.1 465.1,-118.1"/>
</g>
<!-- Divide2&#45;&gt;OutputWorkspace -->
<g id="edge9" class="edge">
<title>Divide2&#45;&gt;OutputWorkspace</title>
<path fill="none" stroke="black" d="M461.6,-71.7C461.6,-63.98 461.6,-54.71 461.6,-46.11"/>
<polygon fill="black" stroke="black" points="465.1,-46.1 461.6,-36.1 458.1,-46.1 465.1,-46.1"/>
</g>
</g>
</svg>
