<?xml version="1.0" encoding="UTF-8" standalone="no"?>
<!DOCTYPE svg PUBLIC "-//W3C//DTD SVG 1.1//EN"
 "http://www.w3.org/Graphics/SVG/1.1/DTD/svg11.dtd">
<!-- Generated by graphviz version 2.47.2 (20210527.1257)
 -->
<!-- Title: Quartz Pages: 1 -->
<svg width="802pt" height="404pt"
 viewBox="0.00 0.00 801.69 404.00" xmlns="http://www.w3.org/2000/svg" xmlns:xlink="http://www.w3.org/1999/xlink">
<g id="graph0" class="graph" transform="scale(1 1) rotate(0) translate(4 400)">
<title>Quartz</title>
<polygon fill="white" stroke="transparent" points="-4,4 -4,-400 797.69,-400 797.69,4 -4,4"/>
<!-- Run -->
<g id="node1" class="node">
<title>Run</title>
<ellipse fill="khaki" stroke="black" cx="27" cy="-378" rx="27" ry="18"/>
<text text-anchor="middle" x="27" y="-374.3" font-family="Helvetica" font-size="14.00">Run</text>
</g>
<!-- LoadAndMerge -->
<g id="node7" class="node">
<title>LoadAndMerge</title>
<path fill="lightskyblue" stroke="black" d="M147,-324C147,-324 61,-324 61,-324 55,-324 49,-318 49,-312 49,-312 49,-300 49,-300 49,-294 55,-288 61,-288 61,-288 147,-288 147,-288 153,-288 159,-294 159,-300 159,-300 159,-312 159,-312 159,-318 153,-324 147,-324"/>
<text text-anchor="middle" x="104" y="-302.3" font-family="Helvetica" font-size="14.00">LoadAndMerge</text>
</g>
<!-- Run&#45;&gt;LoadAndMerge -->
<g id="edge1" class="edge">
<title>Run&#45;&gt;LoadAndMerge</title>
<path fill="none" stroke="black" d="M42.58,-362.83C52.58,-353.75 65.82,-341.71 77.44,-331.14"/>
<polygon fill="black" stroke="black" points="80.13,-333.43 85.18,-324.11 75.42,-328.25 80.13,-333.43"/>
</g>
<!-- D7YIGPositionCalibration -->
<g id="node2" class="node">
<title>D7YIGPositionCalibration</title>
<ellipse fill="khaki" stroke="black" cx="182" cy="-378" rx="110.48" ry="18"/>
<text text-anchor="middle" x="182" y="-374.3" font-family="Helvetica" font-size="14.00">D7YIGPositionCalibration</text>
</g>
<!-- D7YIGPositionCalibration&#45;&gt;LoadAndMerge -->
<g id="edge2" class="edge">
<title>D7YIGPositionCalibration&#45;&gt;LoadAndMerge</title>
<path fill="none" stroke="black" d="M163.12,-360.05C153.32,-351.26 141.19,-340.38 130.48,-330.76"/>
<polygon fill="black" stroke="black" points="132.76,-328.11 122.98,-324.03 128.08,-333.32 132.76,-328.11"/>
</g>
<!-- CadmiumWorkspace -->
<g id="node3" class="node">
<title>CadmiumWorkspace</title>
<ellipse fill="khaki" stroke="black" cx="301" cy="-234" rx="92.88" ry="18"/>
<text text-anchor="middle" x="301" y="-230.3" font-family="Helvetica" font-size="14.00">CadmiumWorkspace</text>
</g>
<!-- Minus -->
<g id="node9" class="node">
<title>Minus</title>
<path fill="lightskyblue" stroke="black" d="M473.5,-180C473.5,-180 356.5,-180 356.5,-180 350.5,-180 344.5,-174 344.5,-168 344.5,-168 344.5,-156 344.5,-156 344.5,-150 350.5,-144 356.5,-144 356.5,-144 473.5,-144 473.5,-144 479.5,-144 485.5,-150 485.5,-156 485.5,-156 485.5,-168 485.5,-168 485.5,-174 479.5,-180 473.5,-180"/>
<text text-anchor="middle" x="415" y="-158.3" font-family="Helvetica" font-size="14.00">Subtract background</text>
</g>
<!-- CadmiumWorkspace&#45;&gt;Minus -->
<g id="edge5" class="edge">
<title>CadmiumWorkspace&#45;&gt;Minus</title>
<path fill="none" stroke="black" d="M327.73,-216.59C342.83,-207.31 361.93,-195.59 378.41,-185.47"/>
<polygon fill="black" stroke="black" points="380.56,-188.26 387.25,-180.04 376.9,-182.29 380.56,-188.26"/>
</g>
<!-- EmptyContainerWorkspace -->
<g id="node4" class="node">
<title>EmptyContainerWorkspace</title>
<ellipse fill="khaki" stroke="black" cx="530" cy="-234" rx="118.08" ry="18"/>
<text text-anchor="middle" x="530" y="-230.3" font-family="Helvetica" font-size="14.00">EmptyContainerWorkspace</text>
</g>
<!-- EmptyContainerWorkspace&#45;&gt;Minus -->
<g id="edge6" class="edge">
<title>EmptyContainerWorkspace&#45;&gt;Minus</title>
<path fill="none" stroke="black" d="M502.75,-216.41C487.62,-207.2 468.58,-195.61 452.11,-185.59"/>
<polygon fill="black" stroke="black" points="453.62,-182.41 443.26,-180.2 449.98,-188.39 453.62,-182.41"/>
</g>
<!-- Transmission -->
<g id="node5" class="node">
<title>Transmission</title>
<ellipse fill="khaki" stroke="black" cx="730" cy="-234" rx="63.89" ry="18"/>
<text text-anchor="middle" x="730" y="-230.3" font-family="Helvetica" font-size="14.00">Transmission</text>
</g>
<!-- Transmission&#45;&gt;Minus -->
<g id="edge7" class="edge">
<title>Transmission&#45;&gt;Minus</title>
<path fill="none" stroke="black" d="M682.51,-221.84C674.02,-219.88 665.25,-217.86 657,-216 603.24,-203.85 542.67,-190.59 495.58,-180.37"/>
<polygon fill="black" stroke="black" points="496.25,-176.93 485.74,-178.23 494.77,-183.77 496.25,-176.93"/>
</g>
<!-- OutputWorkspace -->
<g id="node6" class="node">
<title>OutputWorkspace</title>
<polygon fill="grey" stroke="black" points="549.23,-36 335.7,-36 280.77,0 494.3,0 549.23,-36"/>
<text text-anchor="middle" x="415" y="-14.3" font-family="Times-Roman" font-size="14.00">OutputWorkspace</text>
</g>
<!-- Divide -->
<g id="node8" class="node">
<title>Divide</title>
<path fill="lightskyblue" stroke="black" d="M178.5,-252C178.5,-252 29.5,-252 29.5,-252 23.5,-252 17.5,-246 17.5,-240 17.5,-240 17.5,-228 17.5,-228 17.5,-222 23.5,-216 29.5,-216 29.5,-216 178.5,-216 178.5,-216 184.5,-216 190.5,-222 190.5,-228 190.5,-228 190.5,-240 190.5,-240 190.5,-246 184.5,-252 178.5,-252"/>
<text text-anchor="middle" x="104" y="-230.3" font-family="Helvetica" font-size="14.00">Normalize to monitor/time</text>
</g>
<!-- LoadAndMerge&#45;&gt;Divide -->
<g id="edge3" class="edge">
<title>LoadAndMerge&#45;&gt;Divide</title>
<path fill="none" stroke="black" d="M104,-287.7C104,-279.98 104,-270.71 104,-262.11"/>
<polygon fill="black" stroke="black" points="107.5,-262.1 104,-252.1 100.5,-262.1 107.5,-262.1"/>
</g>
<!-- Divide&#45;&gt;Minus -->
<g id="edge4" class="edge">
<title>Divide&#45;&gt;Minus</title>
<path fill="none" stroke="black" d="M179.68,-215.97C226.51,-205.42 286.6,-191.9 334.33,-181.16"/>
<polygon fill="black" stroke="black" points="335.33,-184.52 344.32,-178.91 333.8,-177.69 335.33,-184.52"/>
</g>
<!-- Divide2 -->
<g id="node10" class="node">
<title>Divide2</title>
<path fill="lightskyblue" stroke="black" d="M505.5,-108C505.5,-108 324.5,-108 324.5,-108 318.5,-108 312.5,-102 312.5,-96 312.5,-96 312.5,-84 312.5,-84 312.5,-78 318.5,-72 324.5,-72 324.5,-72 505.5,-72 505.5,-72 511.5,-72 517.5,-78 517.5,-84 517.5,-84 517.5,-96 517.5,-96 517.5,-102 511.5,-108 505.5,-108"/>
<text text-anchor="middle" x="415" y="-86.3" font-family="Helvetica" font-size="14.00">Calculate polarising efficiencies</text>
</g>
<!-- Minus&#45;&gt;Divide2 -->
<g id="edge8" class="edge">
<title>Minus&#45;&gt;Divide2</title>
<path fill="none" stroke="black" d="M415,-143.7C415,-135.98 415,-126.71 415,-118.11"/>
<polygon fill="black" stroke="black" points="418.5,-118.1 415,-108.1 411.5,-118.1 418.5,-118.1"/>
</g>
<!-- Divide2&#45;&gt;OutputWorkspace -->
<g id="edge9" class="edge">
<title>Divide2&#45;&gt;OutputWorkspace</title>
<path fill="none" stroke="black" d="M415,-71.7C415,-63.98 415,-54.71 415,-46.11"/>
<polygon fill="black" stroke="black" points="418.5,-46.1 415,-36.1 411.5,-46.1 418.5,-46.1"/>
</g>
</g>
</svg>
