<?xml version="1.0" encoding="UTF-8" standalone="no"?>
<!DOCTYPE svg PUBLIC "-//W3C//DTD SVG 1.1//EN"
 "http://www.w3.org/Graphics/SVG/1.1/DTD/svg11.dtd">
<!-- Generated by graphviz version 2.40.1 (20161225.0304)
 -->
<!-- Title: Absorber Pages: 1 -->
<svg width="229pt" height="260pt"
 viewBox="0.00 0.00 229.08 260.00" xmlns="http://www.w3.org/2000/svg" xmlns:xlink="http://www.w3.org/1999/xlink">
<g id="graph0" class="graph" transform="scale(1 1) rotate(0) translate(4 256)">
<title>Absorber</title>
<polygon fill="#ffffff" stroke="transparent" points="-4,4 -4,-256 225.0819,-256 225.0819,4 -4,4"/>
<!-- Run -->
<g id="node1" class="node">
<title>Run</title>
<ellipse fill="#f0e68c" stroke="#000000" cx="110.5409" cy="-234" rx="27" ry="18"/>
<text text-anchor="middle" x="110.5409" y="-230.3" font-family="Helvetica,sans-Serif" font-size="14.00" fill="#000000">Run</text>
</g>
<!-- LoadAndMerge -->
<g id="node3" class="node">
<title>LoadAndMerge</title>
<path fill="#87cefa" stroke="#000000" d="M153.5409,-180C153.5409,-180 67.5409,-180 67.5409,-180 61.5409,-180 55.5409,-174 55.5409,-168 55.5409,-168 55.5409,-156 55.5409,-156 55.5409,-150 61.5409,-144 67.5409,-144 67.5409,-144 153.5409,-144 153.5409,-144 159.5409,-144 165.5409,-150 165.5409,-156 165.5409,-156 165.5409,-168 165.5409,-168 165.5409,-174 159.5409,-180 153.5409,-180"/>
<text text-anchor="middle" x="110.5409" y="-158.3" font-family="Helvetica,sans-Serif" font-size="14.00" fill="#000000">LoadAndMerge</text>
</g>
<!-- Run&#45;&gt;LoadAndMerge -->
<g id="edge1" class="edge">
<title>Run&#45;&gt;LoadAndMerge</title>
<path fill="none" stroke="#000000" d="M110.5409,-215.8314C110.5409,-208.131 110.5409,-198.9743 110.5409,-190.4166"/>
<polygon fill="#000000" stroke="#000000" points="114.041,-190.4132 110.5409,-180.4133 107.041,-190.4133 114.041,-190.4132"/>
</g>
<!-- OutputWorkspace -->
<g id="node2" class="node">
<title>OutputWorkspace</title>
<polygon fill="#c0c0c0" stroke="#000000" points="221.1229,-36 45.2118,-36 -.041,0 175.8701,0 221.1229,-36"/>
<text text-anchor="middle" x="110.5409" y="-14.3" font-family="Times,serif" font-size="14.00" fill="#000000">OutputWorkspace</text>
</g>
<!-- Divide -->
<g id="node4" class="node">
<title>Divide</title>
<path fill="#87cefa" stroke="#000000" d="M185.0409,-108C185.0409,-108 36.0409,-108 36.0409,-108 30.0409,-108 24.0409,-102 24.0409,-96 24.0409,-96 24.0409,-84 24.0409,-84 24.0409,-78 30.0409,-72 36.0409,-72 36.0409,-72 185.0409,-72 185.0409,-72 191.0409,-72 197.0409,-78 197.0409,-84 197.0409,-84 197.0409,-96 197.0409,-96 197.0409,-102 191.0409,-108 185.0409,-108"/>
<text text-anchor="middle" x="110.5409" y="-86.3" font-family="Helvetica,sans-Serif" font-size="14.00" fill="#000000">Normalize to monitor/time</text>
</g>
<!-- LoadAndMerge&#45;&gt;Divide -->
<g id="edge2" class="edge">
<title>LoadAndMerge&#45;&gt;Divide</title>
<path fill="none" stroke="#000000" d="M110.5409,-143.8314C110.5409,-136.131 110.5409,-126.9743 110.5409,-118.4166"/>
<polygon fill="#000000" stroke="#000000" points="114.041,-118.4132 110.5409,-108.4133 107.041,-118.4133 114.041,-118.4132"/>
</g>
<!-- Divide&#45;&gt;OutputWorkspace -->
<g id="edge3" class="edge">
<title>Divide&#45;&gt;OutputWorkspace</title>
<path fill="none" stroke="#000000" d="M110.5409,-71.8314C110.5409,-64.131 110.5409,-54.9743 110.5409,-46.4166"/>
<polygon fill="#000000" stroke="#000000" points="114.041,-46.4132 110.5409,-36.4133 107.041,-46.4133 114.041,-46.4132"/>
</g>
</g>
</svg>
