<?xml version="1.0" encoding="UTF-8" standalone="no"?>
<!DOCTYPE svg PUBLIC "-//W3C//DTD SVG 1.1//EN"
 "http://www.w3.org/Graphics/SVG/1.1/DTD/svg11.dtd">
<!-- Generated by graphviz version 3.0.0 (20220315.2325)
 -->
<!-- Title: Vanadium Pages: 1 -->
<svg width="1079pt" height="1196pt"
 viewBox="0.00 0.00 1079.27 1196.00" xmlns="http://www.w3.org/2000/svg" xmlns:xlink="http://www.w3.org/1999/xlink">
<g id="graph0" class="graph" transform="scale(1 1) rotate(0) translate(4 1192)">
<title>Vanadium</title>
<polygon fill="white" stroke="transparent" points="-4,4 -4,-1192 1075.27,-1192 1075.27,4 -4,4"/>
<!-- AverageCounts -->
<g id="node1" class="node">
<title>AverageCounts</title>
<polygon fill="limegreen" stroke="black" points="534.09,-252 421.81,-234 534.09,-216 646.36,-234 534.09,-252"/>
<text text-anchor="middle" x="534.09" y="-230.3" font-family="Helvetica,sans-Serif" font-size="14.00">AverageCounts</text>
</g>
<!-- Plus -->
<g id="node19" class="node">
<title>Plus</title>
<path fill="lightskyblue" stroke="black" d="M693.59,-180C693.59,-180 508.59,-180 508.59,-180 502.59,-180 496.59,-174 496.59,-168 496.59,-168 496.59,-156 496.59,-156 496.59,-150 502.59,-144 508.59,-144 508.59,-144 693.59,-144 693.59,-144 699.59,-144 705.59,-150 705.59,-156 705.59,-156 705.59,-168 705.59,-168 705.59,-174 699.59,-180 693.59,-180"/>
<text text-anchor="middle" x="601.09" y="-158.3" font-family="Helvetica,sans-Serif" font-size="14.00">Average polarization/2theta</text>
</g>
<!-- AverageCounts&#45;&gt;Plus -->
<g id="edge31" class="edge">
<title>AverageCounts&#45;&gt;Plus</title>
<path fill="none" stroke="black" d="M548.29,-218.15C556.8,-209.26 567.83,-197.74 577.61,-187.53"/>
<polygon fill="black" stroke="black" points="580.39,-189.68 584.78,-180.04 575.33,-184.84 580.39,-189.68"/>
</g>
<!-- Divide3 -->
<g id="node23" class="node">
<title>Divide3</title>
<path fill="lightskyblue" stroke="black" d="M565.09,-108C565.09,-108 503.09,-108 503.09,-108 497.09,-108 491.09,-102 491.09,-96 491.09,-96 491.09,-84 491.09,-84 491.09,-78 497.09,-72 503.09,-72 503.09,-72 565.09,-72 565.09,-72 571.09,-72 577.09,-78 577.09,-84 577.09,-84 577.09,-96 577.09,-96 577.09,-102 571.09,-108 565.09,-108"/>
<text text-anchor="middle" x="534.09" y="-86.3" font-family="Helvetica,sans-Serif" font-size="14.00">Normalize</text>
</g>
<!-- AverageCounts&#45;&gt;Divide3 -->
<g id="edge30" class="edge">
<title>AverageCounts&#45;&gt;Divide3</title>
<path fill="none" stroke="black" d="M516.59,-218.78C506.13,-209.1 493.8,-195.29 488.09,-180 482.49,-165.01 482.49,-158.99 488.09,-144 491.96,-133.62 498.89,-123.93 506.21,-115.74"/>
<polygon fill="black" stroke="black" points="508.87,-118.03 513.26,-108.38 503.82,-113.18 508.87,-118.03"/>
</g>
<!-- SelfAttenuationMethod -->
<g id="node2" class="node">
<title>SelfAttenuationMethod</title>
<polygon fill="limegreen" stroke="black" points="510.09,-684 348.54,-666 510.09,-648 671.63,-666 510.09,-684"/>
<text text-anchor="middle" x="510.09" y="-662.3" font-family="Helvetica,sans-Serif" font-size="14.00">SelfAttenuationMethod</text>
</g>
<!-- TimeOfFlight2 -->
<g id="node4" class="node">
<title>TimeOfFlight2</title>
<polygon fill="limegreen" stroke="black" points="545.09,-468 443.87,-450 545.09,-432 646.3,-450 545.09,-468"/>
<text text-anchor="middle" x="545.09" y="-446.3" font-family="Helvetica,sans-Serif" font-size="14.00">Time&#45;of&#45;flight</text>
</g>
<!-- SelfAttenuationMethod&#45;&gt;TimeOfFlight2 -->
<g id="edge23" class="edge">
<title>SelfAttenuationMethod&#45;&gt;TimeOfFlight2</title>
<path fill="none" stroke="black" d="M611.77,-659.32C730.93,-651.6 914.93,-635.95 936.09,-612 1029.07,-506.72 764.64,-468.88 625.12,-456.48"/>
<polygon fill="black" stroke="black" points="625.15,-452.97 614.89,-455.59 624.55,-459.94 625.15,-452.97"/>
</g>
<!-- SampleSelfAttenuationFactors -->
<g id="node11" class="node">
<title>SampleSelfAttenuationFactors</title>
<ellipse fill="khaki" stroke="black" cx="780.09" cy="-594" rx="146.77" ry="18"/>
<text text-anchor="middle" x="780.09" y="-590.3" font-family="Helvetica,sans-Serif" font-size="14.00">SampleSelfAttenuationFactors</text>
</g>
<!-- SelfAttenuationMethod&#45;&gt;SampleSelfAttenuationFactors -->
<g id="edge21" class="edge">
<title>SelfAttenuationMethod&#45;&gt;SampleSelfAttenuationFactors</title>
<path fill="none" stroke="black" d="M556.19,-653.05C598.61,-642.05 662.09,-625.59 710.64,-613"/>
<polygon fill="black" stroke="black" points="711.65,-616.36 720.45,-610.46 709.89,-609.58 711.65,-616.36"/>
</g>
<!-- Divide2 -->
<g id="node18" class="node">
<title>Divide2</title>
<path fill="lightskyblue" stroke="black" d="M403.09,-540C403.09,-540 251.09,-540 251.09,-540 245.09,-540 239.09,-534 239.09,-528 239.09,-528 239.09,-516 239.09,-516 239.09,-510 245.09,-504 251.09,-504 251.09,-504 403.09,-504 403.09,-504 409.09,-504 415.09,-510 415.09,-516 415.09,-516 415.09,-528 415.09,-528 415.09,-534 409.09,-540 403.09,-540"/>
<text text-anchor="middle" x="327.09" y="-518.3" font-family="Helvetica,sans-Serif" font-size="14.00">Divide by transmission</text>
</g>
<!-- SelfAttenuationMethod&#45;&gt;Divide2 -->
<g id="edge15" class="edge">
<title>SelfAttenuationMethod&#45;&gt;Divide2</title>
<path fill="none" stroke="black" d="M432,-656.69C401.22,-649.53 368.04,-636.32 346.09,-612 331.08,-595.38 326.87,-569.87 326.09,-550.42"/>
<polygon fill="black" stroke="black" points="329.59,-550.29 325.97,-540.33 322.59,-550.38 329.59,-550.29"/>
</g>
<!-- PaalmanPingsMonteCarloAbsorption -->
<g id="node20" class="node">
<title>PaalmanPingsMonteCarloAbsorption</title>
<path fill="lightskyblue" stroke="black" d="M287.09,-612C287.09,-612 43.09,-612 43.09,-612 37.09,-612 31.09,-606 31.09,-600 31.09,-600 31.09,-588 31.09,-588 31.09,-582 37.09,-576 43.09,-576 43.09,-576 287.09,-576 287.09,-576 293.09,-576 299.09,-582 299.09,-588 299.09,-588 299.09,-600 299.09,-600 299.09,-606 293.09,-612 287.09,-612"/>
<text text-anchor="middle" x="165.09" y="-590.3" font-family="Helvetica,sans-Serif" font-size="14.00">PaalmanPingsMonteCarloAbsorption</text>
</g>
<!-- SelfAttenuationMethod&#45;&gt;PaalmanPingsMonteCarloAbsorption -->
<g id="edge14" class="edge">
<title>SelfAttenuationMethod&#45;&gt;PaalmanPingsMonteCarloAbsorption</title>
<path fill="none" stroke="black" d="M455.8,-653.99C403.11,-643.3 322.08,-626.85 258.94,-614.04"/>
<polygon fill="black" stroke="black" points="259.46,-610.58 248.96,-612.02 258.07,-617.44 259.46,-610.58"/>
</g>
<!-- PaalmanPingsAbsorptionCorrection -->
<g id="node21" class="node">
<title>PaalmanPingsAbsorptionCorrection</title>
<path fill="lightskyblue" stroke="black" d="M603.09,-612C603.09,-612 367.09,-612 367.09,-612 361.09,-612 355.09,-606 355.09,-600 355.09,-600 355.09,-588 355.09,-588 355.09,-582 361.09,-576 367.09,-576 367.09,-576 603.09,-576 603.09,-576 609.09,-576 615.09,-582 615.09,-588 615.09,-588 615.09,-600 615.09,-600 615.09,-606 609.09,-612 603.09,-612"/>
<text text-anchor="middle" x="485.09" y="-590.3" font-family="Helvetica,sans-Serif" font-size="14.00">PaalmanPingsAbsorptionCorrection</text>
</g>
<!-- SelfAttenuationMethod&#45;&gt;PaalmanPingsAbsorptionCorrection -->
<g id="edge18" class="edge">
<title>SelfAttenuationMethod&#45;&gt;PaalmanPingsAbsorptionCorrection</title>
<path fill="none" stroke="black" d="M504.16,-648.41C501.35,-640.54 497.92,-630.93 494.74,-622.04"/>
<polygon fill="black" stroke="black" points="497.98,-620.69 491.32,-612.45 491.38,-623.04 497.98,-620.69"/>
</g>
<!-- TimeOfFlight1 -->
<g id="node3" class="node">
<title>TimeOfFlight1</title>
<polygon fill="limegreen" stroke="black" points="584.09,-900 482.87,-882 584.09,-864 685.3,-882 584.09,-900"/>
<text text-anchor="middle" x="584.09" y="-878.3" font-family="Helvetica,sans-Serif" font-size="14.00">Time&#45;of&#45;flight</text>
</g>
<!-- Multiply -->
<g id="node16" class="node">
<title>Multiply</title>
<path fill="lightskyblue" stroke="black" d="M603.59,-756C603.59,-756 416.59,-756 416.59,-756 410.59,-756 404.59,-750 404.59,-744 404.59,-744 404.59,-732 404.59,-732 404.59,-726 410.59,-720 416.59,-720 416.59,-720 603.59,-720 603.59,-720 609.59,-720 615.59,-726 615.59,-732 615.59,-732 615.59,-744 615.59,-744 615.59,-750 609.59,-756 603.59,-756"/>
<text text-anchor="middle" x="510.09" y="-734.3" font-family="Helvetica,sans-Serif" font-size="14.00">Correct polarising efficiency</text>
</g>
<!-- TimeOfFlight1&#45;&gt;Multiply -->
<g id="edge11" class="edge">
<title>TimeOfFlight1&#45;&gt;Multiply</title>
<path fill="none" stroke="black" d="M604.92,-867.5C617.39,-858.11 632.13,-844.35 639.09,-828 645.34,-813.28 647.99,-805.29 639.09,-792 629.82,-778.18 616.23,-767.95 601.31,-760.4"/>
<polygon fill="black" stroke="black" points="602.41,-757.05 591.87,-756.03 599.47,-763.41 602.41,-757.05"/>
</g>
<!-- FrameOverlapCorrection -->
<g id="node24" class="node">
<title>FrameOverlapCorrection</title>
<ellipse fill="lightgrey" stroke="black" cx="510.09" cy="-810" rx="120.48" ry="18"/>
<text text-anchor="middle" x="510.09" y="-806.3" font-family="Helvetica,sans-Serif" font-size="14.00">FrameOverlapCorrection</text>
</g>
<!-- TimeOfFlight1&#45;&gt;FrameOverlapCorrection -->
<g id="edge9" class="edge">
<title>TimeOfFlight1&#45;&gt;FrameOverlapCorrection</title>
<path fill="none" stroke="black" d="M568.75,-866.5C559.12,-857.39 546.47,-845.41 535.38,-834.92"/>
<polygon fill="black" stroke="black" points="537.67,-832.28 528,-827.95 532.86,-837.37 537.67,-832.28"/>
</g>
<!-- TimeOfFlight2&#45;&gt;AverageCounts -->
<g id="edge26" class="edge">
<title>TimeOfFlight2&#45;&gt;AverageCounts</title>
<path fill="none" stroke="black" d="M522.04,-436.02C508.23,-426.83 491.88,-413.11 484.09,-396 474.21,-374.34 492.19,-294.98 495.09,-288 499.53,-277.28 506.58,-266.73 513.48,-257.9"/>
<polygon fill="black" stroke="black" points="516.32,-259.96 519.95,-250 510.9,-255.52 516.32,-259.96"/>
</g>
<!-- EnergyEfficiencyCorrection -->
<g id="node25" class="node">
<title>EnergyEfficiencyCorrection</title>
<ellipse fill="lightgrey" stroke="black" cx="626.09" cy="-378" rx="133.48" ry="18"/>
<text text-anchor="middle" x="626.09" y="-374.3" font-family="Helvetica,sans-Serif" font-size="14.00">EnergyEfficiencyCorrection</text>
</g>
<!-- TimeOfFlight2&#45;&gt;EnergyEfficiencyCorrection -->
<g id="edge27" class="edge">
<title>TimeOfFlight2&#45;&gt;EnergyEfficiencyCorrection</title>
<path fill="none" stroke="black" d="M561.48,-434.83C572.17,-425.59 586.39,-413.3 598.77,-402.61"/>
<polygon fill="black" stroke="black" points="601.3,-405.05 606.58,-395.86 596.72,-399.75 601.3,-405.05"/>
</g>
<!-- Run -->
<g id="node5" class="node">
<title>Run</title>
<ellipse fill="khaki" stroke="black" cx="780.09" cy="-1170" rx="28.7" ry="18"/>
<text text-anchor="middle" x="780.09" y="-1166.3" font-family="Helvetica,sans-Serif" font-size="14.00">Run</text>
</g>
<!-- LoadAndMerge -->
<g id="node14" class="node">
<title>LoadAndMerge</title>
<path fill="lightskyblue" stroke="black" d="M912.59,-1116C912.59,-1116 815.59,-1116 815.59,-1116 809.59,-1116 803.59,-1110 803.59,-1104 803.59,-1104 803.59,-1092 803.59,-1092 803.59,-1086 809.59,-1080 815.59,-1080 815.59,-1080 912.59,-1080 912.59,-1080 918.59,-1080 924.59,-1086 924.59,-1092 924.59,-1092 924.59,-1104 924.59,-1104 924.59,-1110 918.59,-1116 912.59,-1116"/>
<text text-anchor="middle" x="864.09" y="-1094.3" font-family="Helvetica,sans-Serif" font-size="14.00">LoadAndMerge</text>
</g>
<!-- Run&#45;&gt;LoadAndMerge -->
<g id="edge1" class="edge">
<title>Run&#45;&gt;LoadAndMerge</title>
<path fill="none" stroke="black" d="M796.68,-1155.17C807.85,-1145.87 822.85,-1133.36 835.87,-1122.52"/>
<polygon fill="black" stroke="black" points="838.22,-1125.11 843.66,-1116.02 833.74,-1119.73 838.22,-1125.11"/>
</g>
<!-- D7YIGPositionCalibration -->
<g id="node6" class="node">
<title>D7YIGPositionCalibration</title>
<ellipse fill="khaki" stroke="black" cx="949.09" cy="-1170" rx="122.38" ry="18"/>
<text text-anchor="middle" x="949.09" y="-1166.3" font-family="Helvetica,sans-Serif" font-size="14.00">D7YIGPositionCalibration</text>
</g>
<!-- D7YIGPositionCalibration&#45;&gt;LoadAndMerge -->
<g id="edge2" class="edge">
<title>D7YIGPositionCalibration&#45;&gt;LoadAndMerge</title>
<path fill="none" stroke="black" d="M928.51,-1152.05C917.73,-1143.18 904.36,-1132.17 892.6,-1122.48"/>
<polygon fill="black" stroke="black" points="894.71,-1119.69 884.77,-1116.03 890.26,-1125.09 894.71,-1119.69"/>
</g>
<!-- CadmiumWorkspace -->
<g id="node7" class="node">
<title>CadmiumWorkspace</title>
<ellipse fill="khaki" stroke="black" cx="218.09" cy="-1026" rx="103.98" ry="18"/>
<text text-anchor="middle" x="218.09" y="-1022.3" font-family="Helvetica,sans-Serif" font-size="14.00">CadmiumWorkspace</text>
</g>
<!-- Minus -->
<g id="node17" class="node">
<title>Minus</title>
<path fill="lightskyblue" stroke="black" d="M653.59,-972C653.59,-972 514.59,-972 514.59,-972 508.59,-972 502.59,-966 502.59,-960 502.59,-960 502.59,-948 502.59,-948 502.59,-942 508.59,-936 514.59,-936 514.59,-936 653.59,-936 653.59,-936 659.59,-936 665.59,-942 665.59,-948 665.59,-948 665.59,-960 665.59,-960 665.59,-966 659.59,-972 653.59,-972"/>
<text text-anchor="middle" x="584.09" y="-950.3" font-family="Helvetica,sans-Serif" font-size="14.00">Subtract background</text>
</g>
<!-- CadmiumWorkspace&#45;&gt;Minus -->
<g id="edge5" class="edge">
<title>CadmiumWorkspace&#45;&gt;Minus</title>
<path fill="none" stroke="black" d="M285.22,-1012.16C343.3,-1001.05 427.83,-984.88 492.19,-972.58"/>
<polygon fill="black" stroke="black" points="493.17,-975.95 502.34,-970.64 491.86,-969.08 493.17,-975.95"/>
</g>
<!-- EmptyContainerWorkspace -->
<g id="node8" class="node">
<title>EmptyContainerWorkspace</title>
<ellipse fill="khaki" stroke="black" cx="474.09" cy="-1026" rx="133.78" ry="18"/>
<text text-anchor="middle" x="474.09" y="-1022.3" font-family="Helvetica,sans-Serif" font-size="14.00">EmptyContainerWorkspace</text>
</g>
<!-- EmptyContainerWorkspace&#45;&gt;Minus -->
<g id="edge6" class="edge">
<title>EmptyContainerWorkspace&#45;&gt;Minus</title>
<path fill="none" stroke="black" d="M500.43,-1008.23C514.78,-999.1 532.73,-987.68 548.33,-977.76"/>
<polygon fill="black" stroke="black" points="550.63,-980.44 557.19,-972.12 546.87,-974.53 550.63,-980.44"/>
</g>
<!-- QuartzWorkspace -->
<g id="node9" class="node">
<title>QuartzWorkspace</title>
<ellipse fill="khaki" stroke="black" cx="281.09" cy="-810" rx="90.98" ry="18"/>
<text text-anchor="middle" x="281.09" y="-806.3" font-family="Helvetica,sans-Serif" font-size="14.00">QuartzWorkspace</text>
</g>
<!-- QuartzWorkspace&#45;&gt;Multiply -->
<g id="edge12" class="edge">
<title>QuartzWorkspace&#45;&gt;Multiply</title>
<path fill="none" stroke="black" d="M328.26,-794.58C361.79,-784.33 407.27,-770.43 444.36,-759.09"/>
<polygon fill="black" stroke="black" points="445.55,-762.39 454.09,-756.12 443.5,-755.69 445.55,-762.39"/>
</g>
<!-- Transmission -->
<g id="node10" class="node">
<title>Transmission</title>
<ellipse fill="khaki" stroke="black" cx="695.09" cy="-1026" rx="69.59" ry="18"/>
<text text-anchor="middle" x="695.09" y="-1022.3" font-family="Helvetica,sans-Serif" font-size="14.00">Transmission</text>
</g>
<!-- Transmission&#45;&gt;Minus -->
<g id="edge7" class="edge">
<title>Transmission&#45;&gt;Minus</title>
<path fill="none" stroke="black" d="M669.9,-1009.12C655.11,-999.79 636.18,-987.85 619.87,-977.56"/>
<polygon fill="black" stroke="black" points="621.44,-974.42 611.11,-972.04 617.7,-980.34 621.44,-974.42"/>
</g>
<!-- ApplyPaalmanPingsCorrection -->
<g id="node22" class="node">
<title>ApplyPaalmanPingsCorrection</title>
<path fill="lightskyblue" stroke="black" d="M645.09,-540C645.09,-540 445.09,-540 445.09,-540 439.09,-540 433.09,-534 433.09,-528 433.09,-528 433.09,-516 433.09,-516 433.09,-510 439.09,-504 445.09,-504 445.09,-504 645.09,-504 645.09,-504 651.09,-504 657.09,-510 657.09,-516 657.09,-516 657.09,-528 657.09,-528 657.09,-534 651.09,-540 645.09,-540"/>
<text text-anchor="middle" x="545.09" y="-518.3" font-family="Helvetica,sans-Serif" font-size="14.00">ApplyPaalmanPingsCorrection</text>
</g>
<!-- SampleSelfAttenuationFactors&#45;&gt;ApplyPaalmanPingsCorrection -->
<g id="edge22" class="edge">
<title>SampleSelfAttenuationFactors&#45;&gt;ApplyPaalmanPingsCorrection</title>
<path fill="none" stroke="black" d="M727.05,-577.2C693.15,-567.1 648.87,-553.92 612.48,-543.08"/>
<polygon fill="black" stroke="black" points="613.03,-539.59 602.44,-540.09 611.03,-546.29 613.03,-539.59"/>
</g>
<!-- SampleAndEnvironmentProperties -->
<g id="node12" class="node">
<title>SampleAndEnvironmentProperties</title>
<ellipse fill="khaki" stroke="black" cx="165.09" cy="-666" rx="165.17" ry="18"/>
<text text-anchor="middle" x="165.09" y="-662.3" font-family="Helvetica,sans-Serif" font-size="14.00">SampleAndEnvironmentProperties</text>
</g>
<!-- SampleAndEnvironmentProperties&#45;&gt;PaalmanPingsMonteCarloAbsorption -->
<g id="edge16" class="edge">
<title>SampleAndEnvironmentProperties&#45;&gt;PaalmanPingsMonteCarloAbsorption</title>
<path fill="none" stroke="black" d="M165.09,-647.7C165.09,-639.98 165.09,-630.71 165.09,-622.11"/>
<polygon fill="black" stroke="black" points="168.59,-622.1 165.09,-612.1 161.59,-622.1 168.59,-622.1"/>
</g>
<!-- SampleAndEnvironmentProperties&#45;&gt;PaalmanPingsAbsorptionCorrection -->
<g id="edge19" class="edge">
<title>SampleAndEnvironmentProperties&#45;&gt;PaalmanPingsAbsorptionCorrection</title>
<path fill="none" stroke="black" d="M235.31,-649.64C282.92,-639.22 346.2,-625.38 397.15,-614.24"/>
<polygon fill="black" stroke="black" points="398.15,-617.6 407.17,-612.04 396.65,-610.76 398.15,-617.6"/>
</g>
<!-- OutputWorkspace -->
<g id="node13" class="node">
<title>OutputWorkspace</title>
<polygon fill="grey" stroke="black" points="672.44,-36 452.35,-36 395.73,0 615.82,0 672.44,-36"/>
<text text-anchor="middle" x="534.09" y="-14.3" font-family="Times,serif" font-size="14.00">OutputWorkspace</text>
</g>
<!-- Divide -->
<g id="node15" class="node">
<title>Divide</title>
<path fill="lightskyblue" stroke="black" d="M933.59,-1044C933.59,-1044 794.59,-1044 794.59,-1044 788.59,-1044 782.59,-1038 782.59,-1032 782.59,-1032 782.59,-1020 782.59,-1020 782.59,-1014 788.59,-1008 794.59,-1008 794.59,-1008 933.59,-1008 933.59,-1008 939.59,-1008 945.59,-1014 945.59,-1020 945.59,-1020 945.59,-1032 945.59,-1032 945.59,-1038 939.59,-1044 933.59,-1044"/>
<text text-anchor="middle" x="864.09" y="-1022.3" font-family="Helvetica,sans-Serif" font-size="14.00">Normalize to monitor</text>
</g>
<!-- LoadAndMerge&#45;&gt;Divide -->
<g id="edge3" class="edge">
<title>LoadAndMerge&#45;&gt;Divide</title>
<path fill="none" stroke="black" d="M864.09,-1079.7C864.09,-1071.98 864.09,-1062.71 864.09,-1054.11"/>
<polygon fill="black" stroke="black" points="867.59,-1054.1 864.09,-1044.1 860.59,-1054.1 867.59,-1054.1"/>
</g>
<!-- Divide&#45;&gt;Minus -->
<g id="edge4" class="edge">
<title>Divide&#45;&gt;Minus</title>
<path fill="none" stroke="black" d="M795.95,-1007.97C755.63,-997.89 704.42,-985.08 662.44,-974.59"/>
<polygon fill="black" stroke="black" points="663.08,-971.14 652.53,-972.11 661.38,-977.93 663.08,-971.14"/>
</g>
<!-- Multiply&#45;&gt;SelfAttenuationMethod -->
<g id="edge13" class="edge">
<title>Multiply&#45;&gt;SelfAttenuationMethod</title>
<path fill="none" stroke="black" d="M510.09,-719.7C510.09,-711.98 510.09,-702.71 510.09,-694.11"/>
<polygon fill="black" stroke="black" points="513.59,-694.1 510.09,-684.1 506.59,-694.1 513.59,-694.1"/>
</g>
<!-- Minus&#45;&gt;TimeOfFlight1 -->
<g id="edge8" class="edge">
<title>Minus&#45;&gt;TimeOfFlight1</title>
<path fill="none" stroke="black" d="M584.09,-935.7C584.09,-927.98 584.09,-918.71 584.09,-910.11"/>
<polygon fill="black" stroke="black" points="587.59,-910.1 584.09,-900.1 580.59,-910.1 587.59,-910.1"/>
</g>
<!-- Divide2&#45;&gt;TimeOfFlight2 -->
<g id="edge25" class="edge">
<title>Divide2&#45;&gt;TimeOfFlight2</title>
<path fill="none" stroke="black" d="M380.14,-503.97C417.19,-492.07 466.07,-476.37 500.98,-465.16"/>
<polygon fill="black" stroke="black" points="502.44,-468.37 510.89,-461.98 500.3,-461.7 502.44,-468.37"/>
</g>
<!-- Plus&#45;&gt;Divide3 -->
<g id="edge32" class="edge">
<title>Plus&#45;&gt;Divide3</title>
<path fill="none" stroke="black" d="M584.52,-143.7C576.41,-135.22 566.5,-124.86 557.61,-115.58"/>
<polygon fill="black" stroke="black" points="559.9,-112.91 550.46,-108.1 554.84,-117.75 559.9,-112.91"/>
</g>
<!-- PaalmanPingsMonteCarloAbsorption&#45;&gt;ApplyPaalmanPingsCorrection -->
<g id="edge17" class="edge">
<title>PaalmanPingsMonteCarloAbsorption&#45;&gt;ApplyPaalmanPingsCorrection</title>
<path fill="none" stroke="black" d="M257.56,-575.97C313.53,-565.66 384.99,-552.49 442.66,-541.87"/>
<polygon fill="black" stroke="black" points="443.33,-545.3 452.53,-540.05 442.06,-538.42 443.33,-545.3"/>
</g>
<!-- PaalmanPingsAbsorptionCorrection&#45;&gt;ApplyPaalmanPingsCorrection -->
<g id="edge20" class="edge">
<title>PaalmanPingsAbsorptionCorrection&#45;&gt;ApplyPaalmanPingsCorrection</title>
<path fill="none" stroke="black" d="M499.92,-575.7C507.11,-567.3 515.88,-557.07 523.78,-547.86"/>
<polygon fill="black" stroke="black" points="526.57,-549.97 530.42,-540.1 521.26,-545.42 526.57,-549.97"/>
</g>
<!-- ApplyPaalmanPingsCorrection&#45;&gt;TimeOfFlight2 -->
<g id="edge24" class="edge">
<title>ApplyPaalmanPingsCorrection&#45;&gt;TimeOfFlight2</title>
<path fill="none" stroke="black" d="M545.09,-503.7C545.09,-495.98 545.09,-486.71 545.09,-478.11"/>
<polygon fill="black" stroke="black" points="548.59,-478.1 545.09,-468.1 541.59,-478.1 548.59,-478.1"/>
</g>
<!-- Divide3&#45;&gt;OutputWorkspace -->
<g id="edge33" class="edge">
<title>Divide3&#45;&gt;OutputWorkspace</title>
<path fill="none" stroke="black" d="M534.09,-71.7C534.09,-63.98 534.09,-54.71 534.09,-46.11"/>
<polygon fill="black" stroke="black" points="537.59,-46.1 534.09,-36.1 530.59,-46.1 537.59,-46.1"/>
</g>
<!-- FrameOverlapCorrection&#45;&gt;Multiply -->
<g id="edge10" class="edge">
<title>FrameOverlapCorrection&#45;&gt;Multiply</title>
<path fill="none" stroke="black" d="M510.09,-791.7C510.09,-783.98 510.09,-774.71 510.09,-766.11"/>
<polygon fill="black" stroke="black" points="513.59,-766.1 510.09,-756.1 506.59,-766.1 513.59,-766.1"/>
</g>
<!-- ElasticPeakCalibration -->
<g id="node26" class="node">
<title>ElasticPeakCalibration</title>
<ellipse fill="lightgrey" stroke="black" cx="614.09" cy="-306" rx="110.48" ry="18"/>
<text text-anchor="middle" x="614.09" y="-302.3" font-family="Helvetica,sans-Serif" font-size="14.00">ElasticPeakCalibration</text>
</g>
<!-- EnergyEfficiencyCorrection&#45;&gt;ElasticPeakCalibration -->
<g id="edge28" class="edge">
<title>EnergyEfficiencyCorrection&#45;&gt;ElasticPeakCalibration</title>
<path fill="none" stroke="black" d="M623.12,-359.7C621.8,-351.98 620.21,-342.71 618.73,-334.11"/>
<polygon fill="black" stroke="black" points="622.16,-333.37 617.02,-324.1 615.26,-334.55 622.16,-333.37"/>
</g>
<!-- ElasticPeakCalibration&#45;&gt;AverageCounts -->
<g id="edge29" class="edge">
<title>ElasticPeakCalibration&#45;&gt;AverageCounts</title>
<path fill="none" stroke="black" d="M594.72,-288.05C583.75,-278.46 569.93,-266.36 558.25,-256.14"/>
<polygon fill="black" stroke="black" points="560.4,-253.38 550.57,-249.42 555.79,-258.64 560.4,-253.38"/>
</g>
</g>
</svg>
