<?xml version="1.0" encoding="UTF-8" standalone="no"?>
<!DOCTYPE svg PUBLIC "-//W3C//DTD SVG 1.1//EN"
 "http://www.w3.org/Graphics/SVG/1.1/DTD/svg11.dtd">
<!-- Generated by graphviz version 2.47.2 (20210527.1257)
 -->
<!-- Title: PowderILLEfficiency Pages: 1 -->
<svg width="654pt" height="665pt"
 viewBox="0.00 0.00 654.14 665.00" xmlns="http://www.w3.org/2000/svg" xmlns:xlink="http://www.w3.org/1999/xlink">
<g id="graph0" class="graph" transform="scale(1 1) rotate(0) translate(4 661)">
<title>PowderILLEfficiency</title>
<polygon fill="white" stroke="transparent" points="-4,4 -4,-661 650.14,-661 650.14,4 -4,4"/>
<text text-anchor="middle" x="323.07" y="-641.8" font-family="Helvetica" font-size="14.00">GlobalSummedReference2D Flowchart</text>
<!-- reference -->
<g id="node1" class="node">
<title>reference</title>
<polygon fill="grey" stroke="black" points="646.28,-634 521.75,-634 489.72,-598 614.25,-598 646.28,-634"/>
<text text-anchor="middle" x="568" y="-612.3" font-family="Times-Roman" font-size="14.00">reference</text>
</g>
<!-- Divide -->
<g id="node13" class="node">
<title>Divide</title>
<path fill="lightskyblue" stroke="black" d="M348,-561C348,-561 318,-561 318,-561 312,-561 306,-555 306,-549 306,-549 306,-537 306,-537 306,-531 312,-525 318,-525 318,-525 348,-525 348,-525 354,-525 360,-531 360,-537 360,-537 360,-549 360,-549 360,-555 354,-561 348,-561"/>
<text text-anchor="middle" x="333" y="-539.3" font-family="Helvetica" font-size="14.00">Divide</text>
</g>
<!-- reference&#45;&gt;Divide -->
<g id="edge6" class="edge">
<title>reference&#45;&gt;Divide</title>
<path fill="none" stroke="black" d="M492.84,-597.93C457.6,-589.15 415.04,-577.42 369.71,-560.97"/>
<polygon fill="black" stroke="black" points="370.9,-557.68 360.3,-557.5 368.48,-564.25 370.9,-557.68"/>
</g>
<!-- single_tube -->
<g id="node2" class="node">
<title>single_tube</title>
<polygon fill="grey" stroke="black" points="196.46,-36 50.97,-36 13.54,0 159.03,0 196.46,-36"/>
<text text-anchor="middle" x="105" y="-14.3" font-family="Times-Roman" font-size="14.00">single_tube</text>
</g>
<!-- single_tube&#45;&gt;Divide -->
<g id="edge7" class="edge">
<title>single_tube&#45;&gt;Divide</title>
<path fill="none" stroke="black" d="M49.43,-34.66C24.24,-45.49 0,-62.93 0,-90 0,-471 0,-471 0,-471 0,-530.87 208.47,-540.45 295.51,-541.84"/>
<polygon fill="black" stroke="black" points="295.7,-545.34 305.75,-541.97 295.8,-538.34 295.7,-545.34"/>
</g>
<!-- input_data -->
<g id="node3" class="node">
<title>input_data</title>
<polygon fill="grey" stroke="black" points="293.53,-109 157.47,-109 122.47,-73 258.53,-73 293.53,-109"/>
<text text-anchor="middle" x="208" y="-87.3" font-family="Times-Roman" font-size="14.00">input_data</text>
</g>
<!-- input_data&#45;&gt;single_tube -->
<g id="edge3" class="edge">
<title>input_data&#45;&gt;single_tube</title>
<path fill="none" stroke="black" d="M183.33,-72.99C169.8,-63.67 152.84,-51.97 138.16,-41.86"/>
<polygon fill="black" stroke="black" points="140.05,-38.91 129.83,-36.11 136.07,-44.67 140.05,-38.91"/>
</g>
<!-- SumOverlappingTubes -->
<g id="node10" class="node">
<title>SumOverlappingTubes</title>
<path fill="lightskyblue" stroke="black" d="M490,-36C490,-36 358,-36 358,-36 352,-36 346,-30 346,-24 346,-24 346,-12 346,-12 346,-6 352,0 358,0 358,0 490,0 490,0 496,0 502,-6 502,-12 502,-12 502,-24 502,-24 502,-30 496,-36 490,-36"/>
<text text-anchor="middle" x="424" y="-14.3" font-family="Helvetica" font-size="14.00">SumOverlappingTubes</text>
</g>
<!-- input_data&#45;&gt;SumOverlappingTubes -->
<g id="edge4" class="edge">
<title>input_data&#45;&gt;SumOverlappingTubes</title>
<path fill="none" stroke="black" d="M258.92,-73.26C289.77,-63.12 329.36,-50.11 362.03,-39.37"/>
<polygon fill="black" stroke="black" points="363.52,-42.56 371.93,-36.12 361.33,-35.91 363.52,-42.56"/>
</g>
<!-- factor -->
<g id="node4" class="node">
<title>factor</title>
<polygon fill="grey" stroke="black" points="468.14,-342 382.02,-342 359.86,-306 445.98,-306 468.14,-342"/>
<text text-anchor="middle" x="414" y="-320.3" font-family="Times-Roman" font-size="14.00">factor</text>
</g>
<!-- Iterate -->
<g id="node5" class="node">
<title>Iterate</title>
<polygon fill="limegreen" stroke="black" points="414,-269 363.39,-251 414,-233 464.61,-251 414,-269"/>
<text text-anchor="middle" x="414" y="-247.3" font-family="Helvetica" font-size="14.00">Iterate</text>
</g>
<!-- factor&#45;&gt;Iterate -->
<g id="edge12" class="edge">
<title>factor&#45;&gt;Iterate</title>
<path fill="none" stroke="black" d="M414,-305.81C414,-297.79 414,-288.05 414,-279.07"/>
<polygon fill="black" stroke="black" points="417.5,-279.03 414,-269.03 410.5,-279.03 417.5,-279.03"/>
</g>
<!-- OutputWorkspace -->
<g id="node8" class="node">
<title>OutputWorkspace</title>
<ellipse fill="khaki" stroke="black" cx="447" cy="-164" rx="81.49" ry="18"/>
<text text-anchor="middle" x="447" y="-160.3" font-family="Helvetica" font-size="14.00">OutputWorkspace</text>
</g>
<!-- Iterate&#45;&gt;OutputWorkspace -->
<g id="edge15" class="edge">
<title>Iterate&#45;&gt;OutputWorkspace</title>
<path fill="none" stroke="black" d="M419.9,-234.8C424.52,-222.89 431.08,-206.02 436.58,-191.84"/>
<polygon fill="black" stroke="black" points="440,-192.7 440.36,-182.11 433.48,-190.17 440,-192.7"/>
<text text-anchor="middle" x="441" y="-203.8" font-family="Helvetica" font-size="14.00">No</text>
</g>
<!-- ApplyDetectorScanEffCorr -->
<g id="node11" class="node">
<title>ApplyDetectorScanEffCorr</title>
<path fill="lightskyblue" stroke="black" d="M335.5,-182C335.5,-182 184.5,-182 184.5,-182 178.5,-182 172.5,-176 172.5,-170 172.5,-170 172.5,-158 172.5,-158 172.5,-152 178.5,-146 184.5,-146 184.5,-146 335.5,-146 335.5,-146 341.5,-146 347.5,-152 347.5,-158 347.5,-158 347.5,-170 347.5,-170 347.5,-176 341.5,-182 335.5,-182"/>
<text text-anchor="middle" x="260" y="-160.3" font-family="Helvetica" font-size="14.00">ApplyDetectorScanEffCorr</text>
</g>
<!-- Iterate&#45;&gt;ApplyDetectorScanEffCorr -->
<g id="edge13" class="edge">
<title>Iterate&#45;&gt;ApplyDetectorScanEffCorr</title>
<path fill="none" stroke="black" d="M395.12,-239.58C371.61,-226.6 330.81,-204.09 300.19,-187.18"/>
<polygon fill="black" stroke="black" points="301.48,-183.9 291.04,-182.13 298.1,-190.03 301.48,-183.9"/>
<text text-anchor="middle" x="358.5" y="-203.8" font-family="Helvetica" font-size="14.00">Yes</text>
</g>
<!-- CalibrationRun -->
<g id="node6" class="node">
<title>CalibrationRun</title>
<ellipse fill="khaki" stroke="black" cx="97" cy="-251" rx="68.79" ry="18"/>
<text text-anchor="middle" x="97" y="-247.3" font-family="Helvetica" font-size="14.00">CalibrationRun</text>
</g>
<!-- LoadILLDiffraction -->
<g id="node9" class="node">
<title>LoadILLDiffraction</title>
<path fill="lightskyblue" stroke="black" d="M142,-182C142,-182 40,-182 40,-182 34,-182 28,-176 28,-170 28,-170 28,-158 28,-158 28,-152 34,-146 40,-146 40,-146 142,-146 142,-146 148,-146 154,-152 154,-158 154,-158 154,-170 154,-170 154,-176 148,-182 142,-182"/>
<text text-anchor="middle" x="91" y="-160.3" font-family="Helvetica" font-size="14.00">LoadILLDiffraction</text>
</g>
<!-- CalibrationRun&#45;&gt;LoadILLDiffraction -->
<g id="edge1" class="edge">
<title>CalibrationRun&#45;&gt;LoadILLDiffraction</title>
<path fill="none" stroke="black" d="M95.79,-232.8C94.96,-221.16 93.86,-205.55 92.92,-192.24"/>
<polygon fill="black" stroke="black" points="96.41,-191.9 92.21,-182.18 89.43,-192.4 96.41,-191.9"/>
</g>
<!-- ExcludedRange -->
<g id="node7" class="node">
<title>ExcludedRange</title>
<ellipse fill="khaki" stroke="black" cx="451" cy="-543" rx="72.59" ry="18"/>
<text text-anchor="middle" x="451" y="-539.3" font-family="Helvetica" font-size="14.00">ExcludedRange</text>
</g>
<!-- MaskBins -->
<g id="node12" class="node">
<title>MaskBins</title>
<path fill="lightskyblue" stroke="black" d="M440,-488C440,-488 388,-488 388,-488 382,-488 376,-482 376,-476 376,-476 376,-464 376,-464 376,-458 382,-452 388,-452 388,-452 440,-452 440,-452 446,-452 452,-458 452,-464 452,-464 452,-476 452,-476 452,-482 446,-488 440,-488"/>
<text text-anchor="middle" x="414" y="-466.3" font-family="Helvetica" font-size="14.00">MaskBins</text>
</g>
<!-- ExcludedRange&#45;&gt;MaskBins -->
<g id="edge9" class="edge">
<title>ExcludedRange&#45;&gt;MaskBins</title>
<path fill="none" stroke="black" d="M442.04,-524.81C437.68,-516.44 432.34,-506.2 427.5,-496.9"/>
<polygon fill="black" stroke="black" points="430.6,-495.28 422.87,-488.03 424.39,-498.51 430.6,-495.28"/>
</g>
<!-- LoadILLDiffraction&#45;&gt;input_data -->
<g id="edge2" class="edge">
<title>LoadILLDiffraction&#45;&gt;input_data</title>
<path fill="none" stroke="black" d="M119.02,-145.99C134.54,-136.58 154.02,-124.76 170.8,-114.57"/>
<polygon fill="black" stroke="black" points="173.07,-117.29 179.8,-109.11 169.43,-111.31 173.07,-117.29"/>
</g>
<!-- SumOverlappingTubes&#45;&gt;reference -->
<g id="edge5" class="edge">
<title>SumOverlappingTubes&#45;&gt;reference</title>
<path fill="none" stroke="black" d="M502.31,-33.46C530.73,-43.62 556,-60.86 556,-90 556,-544 556,-544 556,-544 556,-558.7 558.53,-574.87 561.27,-588.06"/>
<polygon fill="black" stroke="black" points="557.87,-588.92 563.46,-597.92 564.71,-587.4 557.87,-588.92"/>
</g>
<!-- ApplyDetectorScanEffCorr&#45;&gt;input_data -->
<g id="edge14" class="edge">
<title>ApplyDetectorScanEffCorr&#45;&gt;input_data</title>
<path fill="none" stroke="black" d="M247.41,-145.81C241.15,-137.27 233.46,-126.77 226.55,-117.32"/>
<polygon fill="black" stroke="black" points="229.2,-115.03 220.47,-109.03 223.56,-119.16 229.2,-115.03"/>
</g>
<!-- Median -->
<g id="node14" class="node">
<title>Median</title>
<polygon fill="lightseagreen" stroke="black" points="445,-415 383,-415 383,-379 445,-379 445,-415"/>
<text text-anchor="middle" x="414" y="-393.3" font-family="Helvetica" font-size="14.00">Median</text>
</g>
<!-- MaskBins&#45;&gt;Median -->
<g id="edge10" class="edge">
<title>MaskBins&#45;&gt;Median</title>
<path fill="none" stroke="black" d="M414,-451.81C414,-443.79 414,-434.05 414,-425.07"/>
<polygon fill="black" stroke="black" points="417.5,-425.03 414,-415.03 410.5,-425.03 417.5,-425.03"/>
</g>
<!-- Divide&#45;&gt;MaskBins -->
<g id="edge8" class="edge">
<title>Divide&#45;&gt;MaskBins</title>
<path fill="none" stroke="black" d="M352.61,-524.81C362.86,-515.83 375.56,-504.69 386.75,-494.89"/>
<polygon fill="black" stroke="black" points="389.36,-497.25 394.57,-488.03 384.75,-491.99 389.36,-497.25"/>
</g>
<!-- Median&#45;&gt;factor -->
<g id="edge11" class="edge">
<title>Median&#45;&gt;factor</title>
<path fill="none" stroke="black" d="M414,-378.81C414,-370.79 414,-361.05 414,-352.07"/>
<polygon fill="black" stroke="black" points="417.5,-352.03 414,-342.03 410.5,-352.03 417.5,-352.03"/>
</g>
</g>
</svg>
