<?xml version="1.0" encoding="UTF-8" standalone="no"?>
<!DOCTYPE svg PUBLIC "-//W3C//DTD SVG 1.1//EN"
 "http://www.w3.org/Graphics/SVG/1.1/DTD/svg11.dtd">
<!-- Generated by graphviz version 2.47.2 (20210527.1257)
 -->
<!-- Title: PowderILLDetectorScan Pages: 1 -->
<svg width="530pt" height="743pt"
 viewBox="0.00 0.00 529.98 743.00" xmlns="http://www.w3.org/2000/svg" xmlns:xlink="http://www.w3.org/1999/xlink">
<g id="graph0" class="graph" transform="scale(1 1) rotate(0) translate(4 739)">
<title>PowderILLDetectorScan</title>
<polygon fill="white" stroke="transparent" points="-4,4 -4,-739 525.98,-739 525.98,4 -4,4"/>
<!-- MergeType -->
<g id="node1" class="node">
<title>MergeType</title>
<polygon fill="limegreen" stroke="black" points="147.98,-589 69.73,-571 147.98,-553 226.24,-571 147.98,-589"/>
<text text-anchor="middle" x="147.98" y="-567.3" font-family="Helvetica" font-size="14.00">MergeType</text>
</g>
<!-- NormaliseTo -->
<g id="node2" class="node">
<title>NormaliseTo</title>
<polygon fill="limegreen" stroke="black" points="147.98,-429 63.36,-411 147.98,-393 232.61,-411 147.98,-429"/>
<text text-anchor="middle" x="147.98" y="-407.3" font-family="Helvetica" font-size="14.00">NormaliseTo</text>
</g>
<!-- MergeType&#45;&gt;NormaliseTo -->
<g id="edge6" class="edge">
<title>MergeType&#45;&gt;NormaliseTo</title>
<path fill="none" stroke="black" d="M161.71,-555.88C166.57,-549.93 171.46,-542.62 173.98,-535 185,-501.71 171.94,-461.75 160.7,-436.61"/>
<polygon fill="black" stroke="black" points="163.8,-434.99 156.37,-427.44 157.47,-437.98 163.8,-434.99"/>
<text text-anchor="middle" x="213.98" y="-480.3" font-family="Helvetica" font-size="14.00">Skip Merge</text>
</g>
<!-- MergeRuns -->
<g id="node9" class="node">
<title>MergeRuns</title>
<path fill="lightskyblue" stroke="black" d="M139.48,-502C139.48,-502 76.48,-502 76.48,-502 70.48,-502 64.48,-496 64.48,-490 64.48,-490 64.48,-478 64.48,-478 64.48,-472 70.48,-466 76.48,-466 76.48,-466 139.48,-466 139.48,-466 145.48,-466 151.48,-472 151.48,-478 151.48,-478 151.48,-490 151.48,-490 151.48,-496 145.48,-502 139.48,-502"/>
<text text-anchor="middle" x="107.98" y="-480.3" font-family="Helvetica" font-size="14.00">MergeRuns</text>
</g>
<!-- MergeType&#45;&gt;MergeRuns -->
<g id="edge4" class="edge">
<title>MergeType&#45;&gt;MergeRuns</title>
<path fill="none" stroke="black" d="M140.65,-554.41C135,-542.42 127.07,-525.56 120.44,-511.47"/>
<polygon fill="black" stroke="black" points="123.52,-509.8 116.1,-502.25 117.19,-512.78 123.52,-509.8"/>
<text text-anchor="middle" x="150.98" y="-523.8" font-family="Helvetica" font-size="14.00">Merge</text>
</g>
<!-- OutputWorkspaceTypes -->
<g id="node3" class="node">
<title>OutputWorkspaceTypes</title>
<polygon fill="limegreen" stroke="black" points="147.98,-269 0.02,-251 147.98,-233 295.95,-251 147.98,-269"/>
<text text-anchor="middle" x="147.98" y="-247.3" font-family="Helvetica" font-size="14.00">OutputWorkspaceTypes</text>
</g>
<!-- NormaliseTo&#45;&gt;OutputWorkspaceTypes -->
<g id="edge8" class="edge">
<title>NormaliseTo&#45;&gt;OutputWorkspaceTypes</title>
<path fill="none" stroke="black" d="M162.75,-396.05C167.98,-390.12 173.25,-382.78 175.98,-375 179.68,-364.47 184.38,-347.96 173.98,-306 171.52,-296.06 167.11,-285.78 162.61,-276.9"/>
<polygon fill="black" stroke="black" points="165.59,-275.05 157.79,-267.88 159.42,-278.35 165.59,-275.05"/>
<text text-anchor="middle" x="197.48" y="-320.3" font-family="Helvetica" font-size="14.00">None</text>
</g>
<!-- NormaliseToMonitor -->
<g id="node10" class="node">
<title>NormaliseToMonitor</title>
<path fill="lightskyblue" stroke="black" d="M152.98,-342C152.98,-342 38.98,-342 38.98,-342 32.98,-342 26.98,-336 26.98,-330 26.98,-330 26.98,-318 26.98,-318 26.98,-312 32.98,-306 38.98,-306 38.98,-306 152.98,-306 152.98,-306 158.98,-306 164.98,-312 164.98,-318 164.98,-318 164.98,-330 164.98,-330 164.98,-336 158.98,-342 152.98,-342"/>
<text text-anchor="middle" x="95.98" y="-320.3" font-family="Helvetica" font-size="14.00">NormaliseToMonitor</text>
</g>
<!-- NormaliseTo&#45;&gt;NormaliseToMonitor -->
<g id="edge7" class="edge">
<title>NormaliseTo&#45;&gt;NormaliseToMonitor</title>
<path fill="none" stroke="black" d="M138.69,-394.8C131.26,-382.66 120.68,-365.36 111.9,-351.02"/>
<polygon fill="black" stroke="black" points="114.66,-348.81 106.45,-342.11 108.68,-352.47 114.66,-348.81"/>
<text text-anchor="middle" x="148.98" y="-363.8" font-family="Helvetica" font-size="14.00">Monitor</text>
</g>
<!-- SumOverlappingTubes2DTubes -->
<g id="node11" class="node">
<title>SumOverlappingTubes2DTubes</title>
<path fill="lightskyblue" stroke="black" d="M161.98,-182C161.98,-182 29.98,-182 29.98,-182 23.98,-182 17.98,-176 17.98,-170 17.98,-170 17.98,-158 17.98,-158 17.98,-152 23.98,-146 29.98,-146 29.98,-146 161.98,-146 161.98,-146 167.98,-146 173.98,-152 173.98,-158 173.98,-158 173.98,-170 173.98,-170 173.98,-176 167.98,-182 161.98,-182"/>
<text text-anchor="middle" x="95.98" y="-160.3" font-family="Helvetica" font-size="14.00">SumOverlappingTubes</text>
</g>
<!-- OutputWorkspaceTypes&#45;&gt;SumOverlappingTubes2DTubes -->
<g id="edge10" class="edge">
<title>OutputWorkspaceTypes&#45;&gt;SumOverlappingTubes2DTubes</title>
<path fill="none" stroke="black" d="M138.2,-234.01C130.77,-221.86 120.39,-204.9 111.79,-190.83"/>
<polygon fill="black" stroke="black" points="114.64,-188.79 106.43,-182.08 108.67,-192.44 114.64,-188.79"/>
<text text-anchor="middle" x="153.48" y="-203.8" font-family="Helvetica" font-size="14.00">2DTubes</text>
</g>
<!-- SumOverlappingTubes2D -->
<g id="node12" class="node">
<title>SumOverlappingTubes2D</title>
<path fill="lightskyblue" stroke="black" d="M335.98,-182C335.98,-182 203.98,-182 203.98,-182 197.98,-182 191.98,-176 191.98,-170 191.98,-170 191.98,-158 191.98,-158 191.98,-152 197.98,-146 203.98,-146 203.98,-146 335.98,-146 335.98,-146 341.98,-146 347.98,-152 347.98,-158 347.98,-158 347.98,-170 347.98,-170 347.98,-176 341.98,-182 335.98,-182"/>
<text text-anchor="middle" x="269.98" y="-160.3" font-family="Helvetica" font-size="14.00">SumOverlappingTubes</text>
</g>
<!-- OutputWorkspaceTypes&#45;&gt;SumOverlappingTubes2D -->
<g id="edge14" class="edge">
<title>OutputWorkspaceTypes&#45;&gt;SumOverlappingTubes2D</title>
<path fill="none" stroke="black" d="M168.96,-235.39C187.72,-222.31 215.53,-202.94 237.23,-187.82"/>
<polygon fill="black" stroke="black" points="239.31,-190.64 245.51,-182.05 235.31,-184.9 239.31,-190.64"/>
<text text-anchor="middle" x="224.98" y="-203.8" font-family="Helvetica" font-size="14.00">2D</text>
</g>
<!-- SumOverlappingTubes1D -->
<g id="node13" class="node">
<title>SumOverlappingTubes1D</title>
<path fill="lightskyblue" stroke="black" d="M509.98,-182C509.98,-182 377.98,-182 377.98,-182 371.98,-182 365.98,-176 365.98,-170 365.98,-170 365.98,-158 365.98,-158 365.98,-152 371.98,-146 377.98,-146 377.98,-146 509.98,-146 509.98,-146 515.98,-146 521.98,-152 521.98,-158 521.98,-158 521.98,-170 521.98,-170 521.98,-176 515.98,-182 509.98,-182"/>
<text text-anchor="middle" x="443.98" y="-160.3" font-family="Helvetica" font-size="14.00">SumOverlappingTubes</text>
</g>
<!-- OutputWorkspaceTypes&#45;&gt;SumOverlappingTubes1D -->
<g id="edge15" class="edge">
<title>OutputWorkspaceTypes&#45;&gt;SumOverlappingTubes1D</title>
<path fill="none" stroke="black" d="M189.77,-238C237.82,-224.2 317.46,-201.33 374.8,-184.87"/>
<polygon fill="black" stroke="black" points="375.87,-188.2 384.52,-182.08 373.94,-181.47 375.87,-188.2"/>
<text text-anchor="middle" x="321.98" y="-203.8" font-family="Helvetica" font-size="14.00">1D</text>
</g>
<!-- Run -->
<g id="node4" class="node">
<title>Run</title>
<ellipse fill="khaki" stroke="black" cx="82.98" cy="-717" rx="27" ry="18"/>
<text text-anchor="middle" x="82.98" y="-713.3" font-family="Helvetica" font-size="14.00">Run</text>
</g>
<!-- LoadILLDiffraction -->
<g id="node8" class="node">
<title>LoadILLDiffraction</title>
<path fill="lightskyblue" stroke="black" d="M198.98,-662C198.98,-662 96.98,-662 96.98,-662 90.98,-662 84.98,-656 84.98,-650 84.98,-650 84.98,-638 84.98,-638 84.98,-632 90.98,-626 96.98,-626 96.98,-626 198.98,-626 198.98,-626 204.98,-626 210.98,-632 210.98,-638 210.98,-638 210.98,-650 210.98,-650 210.98,-656 204.98,-662 198.98,-662"/>
<text text-anchor="middle" x="147.98" y="-640.3" font-family="Helvetica" font-size="14.00">LoadILLDiffraction</text>
</g>
<!-- Run&#45;&gt;LoadILLDiffraction -->
<g id="edge1" class="edge">
<title>Run&#45;&gt;LoadILLDiffraction</title>
<path fill="none" stroke="black" d="M96.45,-701.29C104.83,-692.14 115.81,-680.14 125.49,-669.57"/>
<polygon fill="black" stroke="black" points="128.07,-671.93 132.24,-662.19 122.91,-667.21 128.07,-671.93"/>
</g>
<!-- UseCalibratedData -->
<g id="node5" class="node">
<title>UseCalibratedData</title>
<ellipse fill="khaki" stroke="black" cx="212.98" cy="-717" rx="85.29" ry="18"/>
<text text-anchor="middle" x="212.98" y="-713.3" font-family="Helvetica" font-size="14.00">UseCalibratedData</text>
</g>
<!-- UseCalibratedData&#45;&gt;LoadILLDiffraction -->
<g id="edge2" class="edge">
<title>UseCalibratedData&#45;&gt;LoadILLDiffraction</title>
<path fill="none" stroke="black" d="M197.58,-699.17C189.52,-690.37 179.51,-679.43 170.59,-669.69"/>
<polygon fill="black" stroke="black" points="173.06,-667.21 163.73,-662.2 167.9,-671.94 173.06,-667.21"/>
</g>
<!-- HeightRange -->
<g id="node6" class="node">
<title>HeightRange</title>
<ellipse fill="khaki" stroke="black" cx="375.98" cy="-251" rx="61.99" ry="18"/>
<text text-anchor="middle" x="375.98" y="-247.3" font-family="Helvetica" font-size="14.00">HeightRange</text>
</g>
<!-- HeightRange&#45;&gt;SumOverlappingTubes2DTubes -->
<g id="edge11" class="edge">
<title>HeightRange&#45;&gt;SumOverlappingTubes2DTubes</title>
<path fill="none" stroke="black" d="M340.88,-236.11C313.19,-225.45 273.46,-210.77 237.98,-200 219.78,-194.47 200.06,-189.19 181.28,-184.47"/>
<polygon fill="black" stroke="black" points="182.11,-181.07 171.56,-182.05 180.42,-187.86 182.11,-181.07"/>
</g>
<!-- HeightRange&#45;&gt;SumOverlappingTubes2D -->
<g id="edge12" class="edge">
<title>HeightRange&#45;&gt;SumOverlappingTubes2D</title>
<path fill="none" stroke="black" d="M367.43,-233.03C361.44,-222.47 352.62,-209.2 341.98,-200 336.42,-195.19 330.08,-190.87 323.52,-187.04"/>
<polygon fill="black" stroke="black" points="324.95,-183.84 314.49,-182.14 321.6,-189.99 324.95,-183.84"/>
</g>
<!-- HeightRange&#45;&gt;SumOverlappingTubes1D -->
<g id="edge13" class="edge">
<title>HeightRange&#45;&gt;SumOverlappingTubes1D</title>
<path fill="none" stroke="black" d="M389.42,-233.21C399.23,-220.95 412.69,-204.11 423.79,-190.24"/>
<polygon fill="black" stroke="black" points="426.83,-192.04 430.34,-182.05 421.36,-187.67 426.83,-192.04"/>
</g>
<!-- OutputWorkspace -->
<g id="node7" class="node">
<title>OutputWorkspace</title>
<ellipse fill="khaki" stroke="black" cx="269.98" cy="-18" rx="81.49" ry="18"/>
<text text-anchor="middle" x="269.98" y="-14.3" font-family="Helvetica" font-size="14.00">OutputWorkspace</text>
</g>
<!-- LoadILLDiffraction&#45;&gt;MergeType -->
<g id="edge3" class="edge">
<title>LoadILLDiffraction&#45;&gt;MergeType</title>
<path fill="none" stroke="black" d="M147.98,-625.81C147.98,-617.79 147.98,-608.05 147.98,-599.07"/>
<polygon fill="black" stroke="black" points="151.48,-599.03 147.98,-589.03 144.48,-599.03 151.48,-599.03"/>
</g>
<!-- MergeRuns&#45;&gt;NormaliseTo -->
<g id="edge5" class="edge">
<title>MergeRuns&#45;&gt;NormaliseTo</title>
<path fill="none" stroke="black" d="M117.67,-465.81C122.64,-456.98 128.79,-446.06 134.25,-436.38"/>
<polygon fill="black" stroke="black" points="137.35,-438.01 139.21,-427.58 131.25,-434.57 137.35,-438.01"/>
</g>
<!-- NormaliseToMonitor&#45;&gt;OutputWorkspaceTypes -->
<g id="edge9" class="edge">
<title>NormaliseToMonitor&#45;&gt;OutputWorkspaceTypes</title>
<path fill="none" stroke="black" d="M108.57,-305.81C115.08,-296.93 123.14,-285.93 130.26,-276.2"/>
<polygon fill="black" stroke="black" points="133.14,-278.19 136.23,-268.06 127.49,-274.06 133.14,-278.19"/>
</g>
<!-- GroupWorkspaces -->
<g id="node14" class="node">
<title>GroupWorkspaces</title>
<path fill="lightskyblue" stroke="black" d="M322.48,-109C322.48,-109 217.48,-109 217.48,-109 211.48,-109 205.48,-103 205.48,-97 205.48,-97 205.48,-85 205.48,-85 205.48,-79 211.48,-73 217.48,-73 217.48,-73 322.48,-73 322.48,-73 328.48,-73 334.48,-79 334.48,-85 334.48,-85 334.48,-97 334.48,-97 334.48,-103 328.48,-109 322.48,-109"/>
<text text-anchor="middle" x="269.98" y="-87.3" font-family="Helvetica" font-size="14.00">GroupWorkspaces</text>
</g>
<!-- SumOverlappingTubes2DTubes&#45;&gt;GroupWorkspaces -->
<g id="edge16" class="edge">
<title>SumOverlappingTubes2DTubes&#45;&gt;GroupWorkspaces</title>
<path fill="none" stroke="black" d="M137.66,-145.99C162.02,-136.06 192.95,-123.43 218.78,-112.89"/>
<polygon fill="black" stroke="black" points="220.11,-116.13 228.04,-109.11 217.46,-109.65 220.11,-116.13"/>
</g>
<!-- SumOverlappingTubes2D&#45;&gt;GroupWorkspaces -->
<g id="edge17" class="edge">
<title>SumOverlappingTubes2D&#45;&gt;GroupWorkspaces</title>
<path fill="none" stroke="black" d="M269.98,-145.81C269.98,-137.79 269.98,-128.05 269.98,-119.07"/>
<polygon fill="black" stroke="black" points="273.48,-119.03 269.98,-109.03 266.48,-119.03 273.48,-119.03"/>
</g>
<!-- SumOverlappingTubes1D&#45;&gt;GroupWorkspaces -->
<g id="edge18" class="edge">
<title>SumOverlappingTubes1D&#45;&gt;GroupWorkspaces</title>
<path fill="none" stroke="black" d="M402.31,-145.99C377.95,-136.06 347.02,-123.43 321.19,-112.89"/>
<polygon fill="black" stroke="black" points="322.51,-109.65 311.92,-109.11 319.86,-116.13 322.51,-109.65"/>
</g>
<!-- GroupWorkspaces&#45;&gt;OutputWorkspace -->
<g id="edge19" class="edge">
<title>GroupWorkspaces&#45;&gt;OutputWorkspace</title>
<path fill="none" stroke="black" d="M269.98,-72.81C269.98,-64.79 269.98,-55.05 269.98,-46.07"/>
<polygon fill="black" stroke="black" points="273.48,-46.03 269.98,-36.03 266.48,-46.03 273.48,-46.03"/>
</g>
</g>
</svg>
