<?xml version="1.0" encoding="UTF-8" standalone="no"?>
<!DOCTYPE svg PUBLIC "-//W3C//DTD SVG 1.1//EN"
 "http://www.w3.org/Graphics/SVG/1.1/DTD/svg11.dtd">
<!-- Generated by graphviz version 3.0.0 (20220315.2325)
 -->
<!-- Title: PowderILLParameterScan Pages: 1 -->
<svg width="723pt" height="1291pt"
 viewBox="0.00 0.00 722.94 1291.00" xmlns="http://www.w3.org/2000/svg" xmlns:xlink="http://www.w3.org/1999/xlink">
<g id="graph0" class="graph" transform="scale(1 1) rotate(0) translate(4 1287)">
<title>PowderILLParameterScan</title>
<polygon fill="white" stroke="transparent" points="-4,4 -4,-1287 718.94,-1287 718.94,4 -4,4"/>
<text text-anchor="middle" x="357.47" y="-1267.8" font-family="Helvetica,sans-Serif" font-size="14.00">PowderILLParameterScan flowchart</text>
<!-- CalibrationProvided -->
<g id="node1" class="node">
<title>CalibrationProvided</title>
<polygon fill="limegreen" stroke="black" points="448.94,-881 309.02,-863 448.94,-845 588.87,-863 448.94,-881"/>
<text text-anchor="middle" x="448.94" y="-859.3" font-family="Helvetica,sans-Serif" font-size="14.00">CalibrationProvided</text>
</g>
<!-- ROCCorrectionProvided -->
<g id="node4" class="node">
<title>ROCCorrectionProvided</title>
<polygon fill="limegreen" stroke="black" points="412.94,-721 248.38,-703 412.94,-685 577.5,-703 412.94,-721"/>
<text text-anchor="middle" x="412.94" y="-699.3" font-family="Helvetica,sans-Serif" font-size="14.00">ROCCorrectionProvided</text>
</g>
<!-- CalibrationProvided&#45;&gt;ROCCorrectionProvided -->
<g id="edge15" class="edge">
<title>CalibrationProvided&#45;&gt;ROCCorrectionProvided</title>
<path fill="none" stroke="black" d="M445.16,-845.39C438.93,-818.08 426.49,-763.46 419.02,-730.68"/>
<polygon fill="black" stroke="black" points="422.42,-729.84 416.78,-720.86 415.59,-731.39 422.42,-729.84"/>
<text text-anchor="middle" x="443.44" y="-772.3" font-family="Helvetica,sans-Serif" font-size="14.00">No</text>
</g>
<!-- Calibrate -->
<g id="node18" class="node">
<title>Calibrate</title>
<path fill="lightskyblue" stroke="black" d="M400.44,-794C400.44,-794 353.44,-794 353.44,-794 347.44,-794 341.44,-788 341.44,-782 341.44,-782 341.44,-770 341.44,-770 341.44,-764 347.44,-758 353.44,-758 353.44,-758 400.44,-758 400.44,-758 406.44,-758 412.44,-764 412.44,-770 412.44,-770 412.44,-782 412.44,-782 412.44,-788 406.44,-794 400.44,-794"/>
<text text-anchor="middle" x="376.94" y="-772.3" font-family="Helvetica,sans-Serif" font-size="14.00">Multiply</text>
</g>
<!-- CalibrationProvided&#45;&gt;Calibrate -->
<g id="edge12" class="edge">
<title>CalibrationProvided&#45;&gt;Calibrate</title>
<path fill="none" stroke="black" d="M431.65,-847C425.18,-841.04 417.95,-833.96 411.94,-827 405.43,-819.46 398.99,-810.71 393.43,-802.67"/>
<polygon fill="black" stroke="black" points="396.29,-800.64 387.8,-794.3 390.48,-804.55 396.29,-800.64"/>
<text text-anchor="middle" x="423.44" y="-815.8" font-family="Helvetica,sans-Serif" font-size="14.00">Yes</text>
</g>
<!-- NormaliseTo -->
<g id="node2" class="node">
<title>NormaliseTo</title>
<polygon fill="limegreen" stroke="black" points="504.94,-1041 412.27,-1023 504.94,-1005 597.61,-1023 504.94,-1041"/>
<text text-anchor="middle" x="504.94" y="-1019.3" font-family="Helvetica,sans-Serif" font-size="14.00">NormaliseTo</text>
</g>
<!-- NormaliseToMonitor -->
<g id="node20" class="node">
<title>NormaliseToMonitor</title>
<path fill="lightskyblue" stroke="black" d="M466.94,-954C466.94,-954 430.94,-954 430.94,-954 424.94,-954 418.94,-948 418.94,-942 418.94,-942 418.94,-930 418.94,-930 418.94,-924 424.94,-918 430.94,-918 430.94,-918 466.94,-918 466.94,-918 472.94,-918 478.94,-924 478.94,-930 478.94,-930 478.94,-942 478.94,-942 478.94,-948 472.94,-954 466.94,-954"/>
<text text-anchor="middle" x="448.94" y="-932.3" font-family="Helvetica,sans-Serif" font-size="14.00">Divide</text>
</g>
<!-- NormaliseTo&#45;&gt;NormaliseToMonitor -->
<g id="edge5" class="edge">
<title>NormaliseTo&#45;&gt;NormaliseToMonitor</title>
<path fill="none" stroke="black" d="M456.43,-1014.41C440.53,-1009.37 424.5,-1000.98 414.94,-987 409.34,-978.81 412.51,-969.86 418.73,-961.81"/>
<polygon fill="black" stroke="black" points="421.59,-963.88 425.77,-954.14 416.43,-959.15 421.59,-963.88"/>
<text text-anchor="middle" x="441.44" y="-975.8" font-family="Helvetica,sans-Serif" font-size="14.00">Monitor</text>
</g>
<!-- NormaliseToTime -->
<g id="node21" class="node">
<title>NormaliseToTime</title>
<path fill="lightskyblue" stroke="black" d="M552.94,-954C552.94,-954 516.94,-954 516.94,-954 510.94,-954 504.94,-948 504.94,-942 504.94,-942 504.94,-930 504.94,-930 504.94,-924 510.94,-918 516.94,-918 516.94,-918 552.94,-918 552.94,-918 558.94,-918 564.94,-924 564.94,-930 564.94,-930 564.94,-942 564.94,-942 564.94,-948 558.94,-954 552.94,-954"/>
<text text-anchor="middle" x="534.94" y="-932.3" font-family="Helvetica,sans-Serif" font-size="14.00">Divide</text>
</g>
<!-- NormaliseTo&#45;&gt;NormaliseToTime -->
<g id="edge8" class="edge">
<title>NormaliseTo&#45;&gt;NormaliseToTime</title>
<path fill="none" stroke="black" d="M510.58,-1006.01C514.79,-994.09 520.63,-977.54 525.54,-963.64"/>
<polygon fill="black" stroke="black" points="528.88,-964.68 528.91,-954.08 522.28,-962.35 528.88,-964.68"/>
<text text-anchor="middle" x="537.94" y="-975.8" font-family="Helvetica,sans-Serif" font-size="14.00">Time</text>
</g>
<!-- NormaliseToROI -->
<g id="node22" class="node">
<title>NormaliseToROI</title>
<path fill="lightskyblue" stroke="black" d="M388.94,-954C388.94,-954 352.94,-954 352.94,-954 346.94,-954 340.94,-948 340.94,-942 340.94,-942 340.94,-930 340.94,-930 340.94,-924 346.94,-918 352.94,-918 352.94,-918 388.94,-918 388.94,-918 394.94,-918 400.94,-924 400.94,-930 400.94,-930 400.94,-942 400.94,-942 400.94,-948 394.94,-954 388.94,-954"/>
<text text-anchor="middle" x="370.94" y="-932.3" font-family="Helvetica,sans-Serif" font-size="14.00">Divide</text>
</g>
<!-- NormaliseTo&#45;&gt;NormaliseToROI -->
<g id="edge6" class="edge">
<title>NormaliseTo&#45;&gt;NormaliseToROI</title>
<path fill="none" stroke="black" d="M496.9,-1006.37C490.46,-995.29 480.45,-980.88 467.94,-972 448.17,-957.96 437.53,-962.21 410.77,-953.87"/>
<polygon fill="black" stroke="black" points="411.64,-950.46 401.04,-950.51 409.35,-957.08 411.64,-950.46"/>
<text text-anchor="middle" x="495.94" y="-975.8" font-family="Helvetica,sans-Serif" font-size="14.00">ROI</text>
</g>
<!-- SortObservableAxis -->
<g id="node3" class="node">
<title>SortObservableAxis</title>
<polygon fill="limegreen" stroke="black" points="376.94,-561 235.34,-543 376.94,-525 518.54,-543 376.94,-561"/>
<text text-anchor="middle" x="376.94" y="-539.3" font-family="Helvetica,sans-Serif" font-size="14.00">SortObservableAxis</text>
</g>
<!-- SortXAxis -->
<g id="node15" class="node">
<title>SortXAxis</title>
<path fill="lightskyblue" stroke="black" d="M371.94,-474C371.94,-474 311.94,-474 311.94,-474 305.94,-474 299.94,-468 299.94,-462 299.94,-462 299.94,-450 299.94,-450 299.94,-444 305.94,-438 311.94,-438 311.94,-438 371.94,-438 371.94,-438 377.94,-438 383.94,-444 383.94,-450 383.94,-450 383.94,-462 383.94,-462 383.94,-468 377.94,-474 371.94,-474"/>
<text text-anchor="middle" x="341.94" y="-452.3" font-family="Helvetica,sans-Serif" font-size="14.00">SortXAxis</text>
</g>
<!-- SortObservableAxis&#45;&gt;SortXAxis -->
<g id="edge22" class="edge">
<title>SortObservableAxis&#45;&gt;SortXAxis</title>
<path fill="none" stroke="black" d="M370.19,-525.61C365.3,-513.73 358.58,-497.41 352.92,-483.67"/>
<polygon fill="black" stroke="black" points="356.07,-482.13 349.03,-474.21 349.6,-484.79 356.07,-482.13"/>
<text text-anchor="middle" x="373.44" y="-495.8" font-family="Helvetica,sans-Serif" font-size="14.00">Yes</text>
</g>
<!-- crop_negative_2theta -->
<g id="node25" class="node">
<title>crop_negative_2theta</title>
<polygon fill="lightseagreen" stroke="black" points="459.44,-401 294.44,-401 294.44,-365 459.44,-365 459.44,-401"/>
<text text-anchor="middle" x="376.94" y="-379.3" font-family="Helvetica,sans-Serif" font-size="14.00">crop_negative_2theta</text>
</g>
<!-- SortObservableAxis&#45;&gt;crop_negative_2theta -->
<g id="edge24" class="edge">
<title>SortObservableAxis&#45;&gt;crop_negative_2theta</title>
<path fill="none" stroke="black" d="M383.4,-525.47C385.45,-519.7 387.53,-513.14 388.94,-507 395.81,-477.06 397.35,-468.4 392.94,-438 391.64,-429.06 389.2,-419.53 386.6,-411.01"/>
<polygon fill="black" stroke="black" points="389.84,-409.66 383.43,-401.23 383.18,-411.82 389.84,-409.66"/>
</g>
<!-- ROCCorrectionProvided&#45;&gt;SortObservableAxis -->
<g id="edge21" class="edge">
<title>ROCCorrectionProvided&#45;&gt;SortObservableAxis</title>
<path fill="none" stroke="black" d="M409.16,-685.39C402.93,-658.08 390.49,-603.46 383.02,-570.68"/>
<polygon fill="black" stroke="black" points="386.42,-569.84 380.78,-560.86 379.59,-571.39 386.42,-569.84"/>
<text text-anchor="middle" x="407.44" y="-612.3" font-family="Helvetica,sans-Serif" font-size="14.00">No</text>
</g>
<!-- ROCCorrect -->
<g id="node19" class="node">
<title>ROCCorrect</title>
<path fill="lightskyblue" stroke="black" d="M364.44,-634C364.44,-634 317.44,-634 317.44,-634 311.44,-634 305.44,-628 305.44,-622 305.44,-622 305.44,-610 305.44,-610 305.44,-604 311.44,-598 317.44,-598 317.44,-598 364.44,-598 364.44,-598 370.44,-598 376.44,-604 376.44,-610 376.44,-610 376.44,-622 376.44,-622 376.44,-628 370.44,-634 364.44,-634"/>
<text text-anchor="middle" x="340.94" y="-612.3" font-family="Helvetica,sans-Serif" font-size="14.00">Multiply</text>
</g>
<!-- ROCCorrectionProvided&#45;&gt;ROCCorrect -->
<g id="edge17" class="edge">
<title>ROCCorrectionProvided&#45;&gt;ROCCorrect</title>
<path fill="none" stroke="black" d="M395.28,-686.65C388.9,-680.77 381.83,-673.83 375.94,-667 369.43,-659.46 362.99,-650.71 357.43,-642.67"/>
<polygon fill="black" stroke="black" points="360.29,-640.64 351.8,-634.3 354.48,-644.55 360.29,-640.64"/>
<text text-anchor="middle" x="387.44" y="-655.8" font-family="Helvetica,sans-Serif" font-size="14.00">Yes</text>
</g>
<!-- Run -->
<g id="node5" class="node">
<title>Run</title>
<ellipse fill="khaki" stroke="black" cx="643.94" cy="-1242" rx="28.7" ry="18"/>
<text text-anchor="middle" x="643.94" y="-1238.3" font-family="Helvetica,sans-Serif" font-size="14.00">Run</text>
</g>
<!-- LoadILLDiffraction -->
<g id="node13" class="node">
<title>LoadILLDiffraction</title>
<path fill="lightskyblue" stroke="black" d="M702.94,-1187C702.94,-1187 584.94,-1187 584.94,-1187 578.94,-1187 572.94,-1181 572.94,-1175 572.94,-1175 572.94,-1163 572.94,-1163 572.94,-1157 578.94,-1151 584.94,-1151 584.94,-1151 702.94,-1151 702.94,-1151 708.94,-1151 714.94,-1157 714.94,-1163 714.94,-1163 714.94,-1175 714.94,-1175 714.94,-1181 708.94,-1187 702.94,-1187"/>
<text text-anchor="middle" x="643.94" y="-1165.3" font-family="Helvetica,sans-Serif" font-size="14.00">LoadILLDiffraction</text>
</g>
<!-- Run&#45;&gt;LoadILLDiffraction -->
<g id="edge1" class="edge">
<title>Run&#45;&gt;LoadILLDiffraction</title>
<path fill="none" stroke="black" d="M643.94,-1223.81C643.94,-1215.79 643.94,-1206.05 643.94,-1197.07"/>
<polygon fill="black" stroke="black" points="647.44,-1197.03 643.94,-1187.03 640.44,-1197.03 647.44,-1197.03"/>
</g>
<!-- ROI -->
<g id="node6" class="node">
<title>ROI</title>
<ellipse fill="khaki" stroke="black" cx="366.94" cy="-1023" rx="27.1" ry="18"/>
<text text-anchor="middle" x="366.94" y="-1019.3" font-family="Helvetica,sans-Serif" font-size="14.00">ROI</text>
</g>
<!-- ROI&#45;&gt;NormaliseToROI -->
<g id="edge7" class="edge">
<title>ROI&#45;&gt;NormaliseToROI</title>
<path fill="none" stroke="black" d="M367.75,-1004.8C368.3,-993.16 369.03,-977.55 369.66,-964.24"/>
<polygon fill="black" stroke="black" points="373.16,-964.33 370.13,-954.18 366.17,-964 373.16,-964.33"/>
</g>
<!-- Observable -->
<g id="node7" class="node">
<title>Observable</title>
<ellipse fill="khaki" stroke="black" cx="492.94" cy="-1169" rx="62.29" ry="18"/>
<text text-anchor="middle" x="492.94" y="-1165.3" font-family="Helvetica,sans-Serif" font-size="14.00">Observable</text>
</g>
<!-- ConjoinXRuns -->
<g id="node14" class="node">
<title>ConjoinXRuns</title>
<path fill="lightskyblue" stroke="black" d="M549.44,-1114C549.44,-1114 460.44,-1114 460.44,-1114 454.44,-1114 448.44,-1108 448.44,-1102 448.44,-1102 448.44,-1090 448.44,-1090 448.44,-1084 454.44,-1078 460.44,-1078 460.44,-1078 549.44,-1078 549.44,-1078 555.44,-1078 561.44,-1084 561.44,-1090 561.44,-1090 561.44,-1102 561.44,-1102 561.44,-1108 555.44,-1114 549.44,-1114"/>
<text text-anchor="middle" x="504.94" y="-1092.3" font-family="Helvetica,sans-Serif" font-size="14.00">ConjoinXRuns</text>
</g>
<!-- Observable&#45;&gt;ConjoinXRuns -->
<g id="edge3" class="edge">
<title>Observable&#45;&gt;ConjoinXRuns</title>
<path fill="none" stroke="black" d="M495.85,-1150.81C497.2,-1142.79 498.85,-1133.05 500.37,-1124.07"/>
<polygon fill="black" stroke="black" points="503.85,-1124.47 502.06,-1114.03 496.95,-1123.31 503.85,-1124.47"/>
</g>
<!-- CalibrationFile -->
<g id="node8" class="node">
<title>CalibrationFile</title>
<ellipse fill="khaki" stroke="black" cx="209.94" cy="-936" rx="74.99" ry="18"/>
<text text-anchor="middle" x="209.94" y="-932.3" font-family="Helvetica,sans-Serif" font-size="14.00">CalibrationFile</text>
</g>
<!-- LoadCalibration -->
<g id="node23" class="node">
<title>LoadCalibration</title>
<path fill="lightskyblue" stroke="black" d="M279.44,-881C279.44,-881 140.44,-881 140.44,-881 134.44,-881 128.44,-875 128.44,-869 128.44,-869 128.44,-857 128.44,-857 128.44,-851 134.44,-845 140.44,-845 140.44,-845 279.44,-845 279.44,-845 285.44,-845 291.44,-851 291.44,-857 291.44,-857 291.44,-869 291.44,-869 291.44,-875 285.44,-881 279.44,-881"/>
<text text-anchor="middle" x="209.94" y="-859.3" font-family="Helvetica,sans-Serif" font-size="14.00">LoadNexusProcessed</text>
</g>
<!-- CalibrationFile&#45;&gt;LoadCalibration -->
<g id="edge13" class="edge">
<title>CalibrationFile&#45;&gt;LoadCalibration</title>
<path fill="none" stroke="black" d="M209.94,-917.81C209.94,-909.79 209.94,-900.05 209.94,-891.07"/>
<polygon fill="black" stroke="black" points="213.44,-891.03 209.94,-881.03 206.44,-891.03 213.44,-891.03"/>
</g>
<!-- OutputWorkspace -->
<g id="node9" class="node">
<title>OutputWorkspace</title>
<ellipse fill="khaki" stroke="black" cx="104.94" cy="-18" rx="92.08" ry="18"/>
<text text-anchor="middle" x="104.94" y="-14.3" font-family="Helvetica,sans-Serif" font-size="14.00">OutputWorkspace</text>
</g>
<!-- ScanAxisBinWidth -->
<g id="node10" class="node">
<title>ScanAxisBinWidth</title>
<ellipse fill="khaki" stroke="black" cx="92.94" cy="-164" rx="92.88" ry="18"/>
<text text-anchor="middle" x="92.94" y="-160.3" font-family="Helvetica,sans-Serif" font-size="14.00">ScanAxisBinWidth</text>
</g>
<!-- group_spectra -->
<g id="node27" class="node">
<title>group_spectra</title>
<polygon fill="lightseagreen" stroke="black" points="162.94,-109 46.94,-109 46.94,-73 162.94,-73 162.94,-109"/>
<text text-anchor="middle" x="104.94" y="-87.3" font-family="Helvetica,sans-Serif" font-size="14.00">group_spectra</text>
</g>
<!-- ScanAxisBinWidth&#45;&gt;group_spectra -->
<g id="edge29" class="edge">
<title>ScanAxisBinWidth&#45;&gt;group_spectra</title>
<path fill="none" stroke="black" d="M95.85,-145.81C97.2,-137.79 98.85,-128.05 100.37,-119.07"/>
<polygon fill="black" stroke="black" points="103.85,-119.47 102.06,-109.03 96.95,-118.31 103.85,-119.47"/>
</g>
<!-- ROCCorrectionFile -->
<g id="node11" class="node">
<title>ROCCorrectionFile</title>
<ellipse fill="khaki" stroke="black" cx="148.94" cy="-776" rx="92.08" ry="18"/>
<text text-anchor="middle" x="148.94" y="-772.3" font-family="Helvetica,sans-Serif" font-size="14.00">ROCCorrectionFile</text>
</g>
<!-- LoadROC -->
<g id="node24" class="node">
<title>LoadROC</title>
<path fill="lightskyblue" stroke="black" d="M218.44,-721C218.44,-721 79.44,-721 79.44,-721 73.44,-721 67.44,-715 67.44,-709 67.44,-709 67.44,-697 67.44,-697 67.44,-691 73.44,-685 79.44,-685 79.44,-685 218.44,-685 218.44,-685 224.44,-685 230.44,-691 230.44,-697 230.44,-697 230.44,-709 230.44,-709 230.44,-715 224.44,-721 218.44,-721"/>
<text text-anchor="middle" x="148.94" y="-699.3" font-family="Helvetica,sans-Serif" font-size="14.00">LoadNexusProcessed</text>
</g>
<!-- ROCCorrectionFile&#45;&gt;LoadROC -->
<g id="edge18" class="edge">
<title>ROCCorrectionFile&#45;&gt;LoadROC</title>
<path fill="none" stroke="black" d="M148.94,-757.81C148.94,-749.79 148.94,-740.05 148.94,-731.07"/>
<polygon fill="black" stroke="black" points="152.44,-731.03 148.94,-721.03 145.44,-731.03 152.44,-731.03"/>
</g>
<!-- Unit -->
<g id="node12" class="node">
<title>Unit</title>
<ellipse fill="khaki" stroke="black" cx="234.94" cy="-310" rx="29.5" ry="18"/>
<text text-anchor="middle" x="234.94" y="-306.3" font-family="Helvetica,sans-Serif" font-size="14.00">Unit</text>
</g>
<!-- ConvertSpectrumAxis -->
<g id="node16" class="node">
<title>ConvertSpectrumAxis</title>
<path fill="lightskyblue" stroke="black" d="M318.94,-255C318.94,-255 174.94,-255 174.94,-255 168.94,-255 162.94,-249 162.94,-243 162.94,-243 162.94,-231 162.94,-231 162.94,-225 168.94,-219 174.94,-219 174.94,-219 318.94,-219 318.94,-219 324.94,-219 330.94,-225 330.94,-231 330.94,-231 330.94,-243 330.94,-243 330.94,-249 324.94,-255 318.94,-255"/>
<text text-anchor="middle" x="246.94" y="-233.3" font-family="Helvetica,sans-Serif" font-size="14.00">ConvertSpectrumAxis</text>
</g>
<!-- Unit&#45;&gt;ConvertSpectrumAxis -->
<g id="edge27" class="edge">
<title>Unit&#45;&gt;ConvertSpectrumAxis</title>
<path fill="none" stroke="black" d="M237.85,-291.81C239.2,-283.79 240.85,-274.05 242.37,-265.07"/>
<polygon fill="black" stroke="black" points="245.85,-265.47 244.06,-255.03 238.95,-264.31 245.85,-265.47"/>
</g>
<!-- LoadILLDiffraction&#45;&gt;ConjoinXRuns -->
<g id="edge2" class="edge">
<title>LoadILLDiffraction&#45;&gt;ConjoinXRuns</title>
<path fill="none" stroke="black" d="M610.65,-1150.99C591.7,-1141.32 567.78,-1129.1 547.48,-1118.73"/>
<polygon fill="black" stroke="black" points="548.94,-1115.55 538.45,-1114.11 545.76,-1121.78 548.94,-1115.55"/>
</g>
<!-- ConjoinXRuns&#45;&gt;NormaliseTo -->
<g id="edge4" class="edge">
<title>ConjoinXRuns&#45;&gt;NormaliseTo</title>
<path fill="none" stroke="black" d="M504.94,-1077.81C504.94,-1069.79 504.94,-1060.05 504.94,-1051.07"/>
<polygon fill="black" stroke="black" points="508.44,-1051.03 504.94,-1041.03 501.44,-1051.03 508.44,-1051.03"/>
</g>
<!-- SortXAxis&#45;&gt;crop_negative_2theta -->
<g id="edge23" class="edge">
<title>SortXAxis&#45;&gt;crop_negative_2theta</title>
<path fill="none" stroke="black" d="M350.41,-437.81C354.5,-429.53 359.49,-419.41 364.03,-410.19"/>
<polygon fill="black" stroke="black" points="367.26,-411.55 368.55,-401.03 360.99,-408.45 367.26,-411.55"/>
</g>
<!-- Transpose -->
<g id="node17" class="node">
<title>Transpose</title>
<path fill="lightskyblue" stroke="black" d="M277.94,-182C277.94,-182 215.94,-182 215.94,-182 209.94,-182 203.94,-176 203.94,-170 203.94,-170 203.94,-158 203.94,-158 203.94,-152 209.94,-146 215.94,-146 215.94,-146 277.94,-146 277.94,-146 283.94,-146 289.94,-152 289.94,-158 289.94,-158 289.94,-170 289.94,-170 289.94,-176 283.94,-182 277.94,-182"/>
<text text-anchor="middle" x="246.94" y="-160.3" font-family="Helvetica,sans-Serif" font-size="14.00">Transpose</text>
</g>
<!-- ConvertSpectrumAxis&#45;&gt;Transpose -->
<g id="edge28" class="edge">
<title>ConvertSpectrumAxis&#45;&gt;Transpose</title>
<path fill="none" stroke="black" d="M246.94,-218.81C246.94,-210.79 246.94,-201.05 246.94,-192.07"/>
<polygon fill="black" stroke="black" points="250.44,-192.03 246.94,-182.03 243.44,-192.03 250.44,-192.03"/>
</g>
<!-- Transpose&#45;&gt;group_spectra -->
<g id="edge30" class="edge">
<title>Transpose&#45;&gt;group_spectra</title>
<path fill="none" stroke="black" d="M212.93,-145.99C193.49,-136.27 168.91,-123.99 148.12,-113.59"/>
<polygon fill="black" stroke="black" points="149.68,-110.46 139.17,-109.11 146.55,-116.72 149.68,-110.46"/>
</g>
<!-- Calibrate&#45;&gt;ROCCorrectionProvided -->
<g id="edge16" class="edge">
<title>Calibrate&#45;&gt;ROCCorrectionProvided</title>
<path fill="none" stroke="black" d="M385.66,-757.81C389.96,-749.32 395.25,-738.9 400.02,-729.49"/>
<polygon fill="black" stroke="black" points="403.15,-731.04 404.56,-720.54 396.91,-727.88 403.15,-731.04"/>
</g>
<!-- ROCCorrect&#45;&gt;SortObservableAxis -->
<g id="edge20" class="edge">
<title>ROCCorrect&#45;&gt;SortObservableAxis</title>
<path fill="none" stroke="black" d="M349.66,-597.81C354.03,-589.19 359.4,-578.59 364.22,-569.09"/>
<polygon fill="black" stroke="black" points="367.4,-570.56 368.8,-560.06 361.16,-567.39 367.4,-570.56"/>
</g>
<!-- NormaliseToMonitor&#45;&gt;CalibrationProvided -->
<g id="edge11" class="edge">
<title>NormaliseToMonitor&#45;&gt;CalibrationProvided</title>
<path fill="none" stroke="black" d="M448.94,-917.81C448.94,-909.79 448.94,-900.05 448.94,-891.07"/>
<polygon fill="black" stroke="black" points="452.44,-891.03 448.94,-881.03 445.44,-891.03 452.44,-891.03"/>
</g>
<!-- NormaliseToTime&#45;&gt;CalibrationProvided -->
<g id="edge9" class="edge">
<title>NormaliseToTime&#45;&gt;CalibrationProvided</title>
<path fill="none" stroke="black" d="M514.12,-917.81C502.3,-908.05 487.39,-895.74 474.82,-885.36"/>
<polygon fill="black" stroke="black" points="476.89,-882.53 466.95,-878.87 472.43,-887.93 476.89,-882.53"/>
</g>
<!-- NormaliseToROI&#45;&gt;CalibrationProvided -->
<g id="edge10" class="edge">
<title>NormaliseToROI&#45;&gt;CalibrationProvided</title>
<path fill="none" stroke="black" d="M389.82,-917.81C400.37,-908.21 413.63,-896.14 424.91,-885.87"/>
<polygon fill="black" stroke="black" points="427.31,-888.42 432.35,-879.1 422.6,-883.24 427.31,-888.42"/>
</g>
<!-- LoadCalibration&#45;&gt;Calibrate -->
<g id="edge14" class="edge">
<title>LoadCalibration&#45;&gt;Calibrate</title>
<path fill="none" stroke="black" d="M243.74,-844.8C269.85,-831.51 306.17,-813.02 334.29,-798.71"/>
<polygon fill="black" stroke="black" points="336.16,-801.69 343.48,-794.03 332.98,-795.45 336.16,-801.69"/>
</g>
<!-- LoadROC&#45;&gt;ROCCorrect -->
<g id="edge19" class="edge">
<title>LoadROC&#45;&gt;ROCCorrect</title>
<path fill="none" stroke="black" d="M187.8,-684.8C219.11,-670.94 263.18,-651.42 296.01,-636.89"/>
<polygon fill="black" stroke="black" points="297.66,-639.99 305.38,-632.74 294.82,-633.59 297.66,-639.99"/>
</g>
<!-- treat_zero_counting_cells -->
<g id="node26" class="node">
<title>treat_zero_counting_cells</title>
<polygon fill="lightseagreen" stroke="black" points="471.94,-328 281.94,-328 281.94,-292 471.94,-292 471.94,-328"/>
<text text-anchor="middle" x="376.94" y="-306.3" font-family="Helvetica,sans-Serif" font-size="14.00">treat_zero_counting_cells</text>
</g>
<!-- crop_negative_2theta&#45;&gt;treat_zero_counting_cells -->
<g id="edge25" class="edge">
<title>crop_negative_2theta&#45;&gt;treat_zero_counting_cells</title>
<path fill="none" stroke="black" d="M376.94,-364.81C376.94,-356.79 376.94,-347.05 376.94,-338.07"/>
<polygon fill="black" stroke="black" points="380.44,-338.03 376.94,-328.03 373.44,-338.03 380.44,-338.03"/>
</g>
<!-- treat_zero_counting_cells&#45;&gt;ConvertSpectrumAxis -->
<g id="edge26" class="edge">
<title>treat_zero_counting_cells&#45;&gt;ConvertSpectrumAxis</title>
<path fill="none" stroke="black" d="M345.8,-291.99C328.25,-282.4 306.11,-270.32 287.24,-260.01"/>
<polygon fill="black" stroke="black" points="288.73,-256.84 278.28,-255.11 285.38,-262.98 288.73,-256.84"/>
</g>
<!-- group_spectra&#45;&gt;OutputWorkspace -->
<g id="edge31" class="edge">
<title>group_spectra&#45;&gt;OutputWorkspace</title>
<path fill="none" stroke="black" d="M104.94,-72.81C104.94,-64.79 104.94,-55.05 104.94,-46.07"/>
<polygon fill="black" stroke="black" points="108.44,-46.03 104.94,-36.03 101.44,-46.03 108.44,-46.03"/>
</g>
</g>
</svg>
