<?xml version="1.0" encoding="UTF-8" standalone="no"?>
<!DOCTYPE svg PUBLIC "-//W3C//DTD SVG 1.1//EN"
 "http://www.w3.org/Graphics/SVG/1.1/DTD/svg11.dtd">
<!-- Generated by graphviz version 3.0.0 (20220315.2325)
 -->
<!-- Title: PowderILLDetectorScan Pages: 1 -->
<svg width="598pt" height="743pt"
 viewBox="0.00 0.00 597.79 743.00" xmlns="http://www.w3.org/2000/svg" xmlns:xlink="http://www.w3.org/1999/xlink">
<g id="graph0" class="graph" transform="scale(1 1) rotate(0) translate(4 739)">
<title>PowderILLDetectorScan</title>
<polygon fill="white" stroke="transparent" points="-4,4 -4,-739 593.79,-739 593.79,4 -4,4"/>
<!-- MergeType -->
<g id="node1" class="node">
<title>MergeType</title>
<polygon fill="limegreen" stroke="black" points="168.29,-589 83.66,-571 168.29,-553 252.91,-571 168.29,-589"/>
<text text-anchor="middle" x="168.29" y="-567.3" font-family="Helvetica,sans-Serif" font-size="14.00">MergeType</text>
</g>
<!-- NormaliseTo -->
<g id="node2" class="node">
<title>NormaliseTo</title>
<polygon fill="limegreen" stroke="black" points="168.29,-429 75.62,-411 168.29,-393 260.96,-411 168.29,-429"/>
<text text-anchor="middle" x="168.29" y="-407.3" font-family="Helvetica,sans-Serif" font-size="14.00">NormaliseTo</text>
</g>
<!-- MergeType&#45;&gt;NormaliseTo -->
<g id="edge6" class="edge">
<title>MergeType&#45;&gt;NormaliseTo</title>
<path fill="none" stroke="black" d="M183.05,-556.05C188.29,-550.12 193.56,-542.78 196.29,-535 207.93,-501.8 193.93,-461.82 181.89,-436.65"/>
<polygon fill="black" stroke="black" points="184.88,-434.82 177.26,-427.46 178.63,-437.97 184.88,-434.82"/>
<text text-anchor="middle" x="240.79" y="-480.3" font-family="Helvetica,sans-Serif" font-size="14.00">Skip Merge</text>
</g>
<!-- MergeRuns -->
<g id="node9" class="node">
<title>MergeRuns</title>
<path fill="lightskyblue" stroke="black" d="M161.79,-502C161.79,-502 90.79,-502 90.79,-502 84.79,-502 78.79,-496 78.79,-490 78.79,-490 78.79,-478 78.79,-478 78.79,-472 84.79,-466 90.79,-466 90.79,-466 161.79,-466 161.79,-466 167.79,-466 173.79,-472 173.79,-478 173.79,-478 173.79,-490 173.79,-490 173.79,-496 167.79,-502 161.79,-502"/>
<text text-anchor="middle" x="126.29" y="-480.3" font-family="Helvetica,sans-Serif" font-size="14.00">MergeRuns</text>
</g>
<!-- MergeType&#45;&gt;MergeRuns -->
<g id="edge4" class="edge">
<title>MergeType&#45;&gt;MergeRuns</title>
<path fill="none" stroke="black" d="M160.58,-554.41C154.66,-542.42 146.33,-525.56 139.37,-511.47"/>
<polygon fill="black" stroke="black" points="142.38,-509.66 134.81,-502.25 136.1,-512.76 142.38,-509.66"/>
<text text-anchor="middle" x="172.29" y="-523.8" font-family="Helvetica,sans-Serif" font-size="14.00">Merge</text>
</g>
<!-- OutputWorkspaceTypes -->
<g id="node3" class="node">
<title>OutputWorkspaceTypes</title>
<polygon fill="limegreen" stroke="black" points="167.29,-269 0.21,-251 167.29,-233 334.36,-251 167.29,-269"/>
<text text-anchor="middle" x="167.29" y="-247.3" font-family="Helvetica,sans-Serif" font-size="14.00">OutputWorkspaceTypes</text>
</g>
<!-- NormaliseTo&#45;&gt;OutputWorkspaceTypes -->
<g id="edge8" class="edge">
<title>NormaliseTo&#45;&gt;OutputWorkspaceTypes</title>
<path fill="none" stroke="black" d="M185.46,-396.08C191.33,-390.26 197.19,-382.98 200.29,-375 204.66,-363.73 208.7,-345.48 197.29,-306 194.37,-295.91 189.29,-285.63 184.13,-276.79"/>
<polygon fill="black" stroke="black" points="187.04,-274.84 178.82,-268.16 181.09,-278.51 187.04,-274.84"/>
<text text-anchor="middle" x="223.79" y="-320.3" font-family="Helvetica,sans-Serif" font-size="14.00">None</text>
</g>
<!-- NormaliseToMonitor -->
<g id="node10" class="node">
<title>NormaliseToMonitor</title>
<path fill="lightskyblue" stroke="black" d="M176.29,-342C176.29,-342 46.29,-342 46.29,-342 40.29,-342 34.29,-336 34.29,-330 34.29,-330 34.29,-318 34.29,-318 34.29,-312 40.29,-306 46.29,-306 46.29,-306 176.29,-306 176.29,-306 182.29,-306 188.29,-312 188.29,-318 188.29,-318 188.29,-330 188.29,-330 188.29,-336 182.29,-342 176.29,-342"/>
<text text-anchor="middle" x="111.29" y="-320.3" font-family="Helvetica,sans-Serif" font-size="14.00">NormaliseToMonitor</text>
</g>
<!-- NormaliseTo&#45;&gt;NormaliseToMonitor -->
<g id="edge7" class="edge">
<title>NormaliseTo&#45;&gt;NormaliseToMonitor</title>
<path fill="none" stroke="black" d="M158.1,-394.8C149.88,-382.54 138.13,-365.03 128.46,-350.61"/>
<polygon fill="black" stroke="black" points="131.24,-348.47 122.76,-342.11 125.42,-352.36 131.24,-348.47"/>
<text text-anchor="middle" x="169.79" y="-363.8" font-family="Helvetica,sans-Serif" font-size="14.00">Monitor</text>
</g>
<!-- SumOverlappingTubes2DTubes -->
<g id="node11" class="node">
<title>SumOverlappingTubes2DTubes</title>
<path fill="lightskyblue" stroke="black" d="M195.79,-182C195.79,-182 46.79,-182 46.79,-182 40.79,-182 34.79,-176 34.79,-170 34.79,-170 34.79,-158 34.79,-158 34.79,-152 40.79,-146 46.79,-146 46.79,-146 195.79,-146 195.79,-146 201.79,-146 207.79,-152 207.79,-158 207.79,-158 207.79,-170 207.79,-170 207.79,-176 201.79,-182 195.79,-182"/>
<text text-anchor="middle" x="121.29" y="-160.3" font-family="Helvetica,sans-Serif" font-size="14.00">SumOverlappingTubes</text>
</g>
<!-- OutputWorkspaceTypes&#45;&gt;SumOverlappingTubes2DTubes -->
<g id="edge10" class="edge">
<title>OutputWorkspaceTypes&#45;&gt;SumOverlappingTubes2DTubes</title>
<path fill="none" stroke="black" d="M158.42,-233.61C151.93,-221.62 142.98,-205.09 135.5,-191.27"/>
<polygon fill="black" stroke="black" points="138.44,-189.34 130.6,-182.21 132.28,-192.67 138.44,-189.34"/>
<text text-anchor="middle" x="177.29" y="-203.8" font-family="Helvetica,sans-Serif" font-size="14.00">2DTubes</text>
</g>
<!-- SumOverlappingTubes2D -->
<g id="node12" class="node">
<title>SumOverlappingTubes2D</title>
<path fill="lightskyblue" stroke="black" d="M386.79,-182C386.79,-182 237.79,-182 237.79,-182 231.79,-182 225.79,-176 225.79,-170 225.79,-170 225.79,-158 225.79,-158 225.79,-152 231.79,-146 237.79,-146 237.79,-146 386.79,-146 386.79,-146 392.79,-146 398.79,-152 398.79,-158 398.79,-158 398.79,-170 398.79,-170 398.79,-176 392.79,-182 386.79,-182"/>
<text text-anchor="middle" x="312.29" y="-160.3" font-family="Helvetica,sans-Serif" font-size="14.00">SumOverlappingTubes</text>
</g>
<!-- OutputWorkspaceTypes&#45;&gt;SumOverlappingTubes2D -->
<g id="edge14" class="edge">
<title>OutputWorkspaceTypes&#45;&gt;SumOverlappingTubes2D</title>
<path fill="none" stroke="black" d="M191.88,-235.58C214.43,-222.36 248.18,-202.58 274.21,-187.32"/>
<polygon fill="black" stroke="black" points="276.21,-190.21 283.06,-182.13 272.67,-184.17 276.21,-190.21"/>
<text text-anchor="middle" x="258.29" y="-203.8" font-family="Helvetica,sans-Serif" font-size="14.00">2D</text>
</g>
<!-- SumOverlappingTubes1D -->
<g id="node13" class="node">
<title>SumOverlappingTubes1D</title>
<path fill="lightskyblue" stroke="black" d="M577.79,-182C577.79,-182 428.79,-182 428.79,-182 422.79,-182 416.79,-176 416.79,-170 416.79,-170 416.79,-158 416.79,-158 416.79,-152 422.79,-146 428.79,-146 428.79,-146 577.79,-146 577.79,-146 583.79,-146 589.79,-152 589.79,-158 589.79,-158 589.79,-170 589.79,-170 589.79,-176 583.79,-182 577.79,-182"/>
<text text-anchor="middle" x="503.29" y="-160.3" font-family="Helvetica,sans-Serif" font-size="14.00">SumOverlappingTubes</text>
</g>
<!-- OutputWorkspaceTypes&#45;&gt;SumOverlappingTubes1D -->
<g id="edge15" class="edge">
<title>OutputWorkspaceTypes&#45;&gt;SumOverlappingTubes1D</title>
<path fill="none" stroke="black" d="M214.71,-238C269.6,-224.12 360.78,-201.05 425.96,-184.56"/>
<polygon fill="black" stroke="black" points="426.95,-187.92 435.79,-182.08 425.23,-181.14 426.95,-187.92"/>
<text text-anchor="middle" x="365.29" y="-203.8" font-family="Helvetica,sans-Serif" font-size="14.00">1D</text>
</g>
<!-- Run -->
<g id="node4" class="node">
<title>Run</title>
<ellipse fill="khaki" stroke="black" cx="98.29" cy="-717" rx="28.7" ry="18"/>
<text text-anchor="middle" x="98.29" y="-713.3" font-family="Helvetica,sans-Serif" font-size="14.00">Run</text>
</g>
<!-- LoadILLDiffraction -->
<g id="node8" class="node">
<title>LoadILLDiffraction</title>
<path fill="lightskyblue" stroke="black" d="M227.29,-662C227.29,-662 109.29,-662 109.29,-662 103.29,-662 97.29,-656 97.29,-650 97.29,-650 97.29,-638 97.29,-638 97.29,-632 103.29,-626 109.29,-626 109.29,-626 227.29,-626 227.29,-626 233.29,-626 239.29,-632 239.29,-638 239.29,-638 239.29,-650 239.29,-650 239.29,-656 233.29,-662 227.29,-662"/>
<text text-anchor="middle" x="168.29" y="-640.3" font-family="Helvetica,sans-Serif" font-size="14.00">LoadILLDiffraction</text>
</g>
<!-- Run&#45;&gt;LoadILLDiffraction -->
<g id="edge1" class="edge">
<title>Run&#45;&gt;LoadILLDiffraction</title>
<path fill="none" stroke="black" d="M112.79,-701.29C121.81,-692.14 133.64,-680.14 144.06,-669.57"/>
<polygon fill="black" stroke="black" points="146.81,-671.77 151.34,-662.19 141.82,-666.86 146.81,-671.77"/>
</g>
<!-- UseCalibratedData -->
<g id="node5" class="node">
<title>UseCalibratedData</title>
<ellipse fill="khaki" stroke="black" cx="239.29" cy="-717" rx="94.78" ry="18"/>
<text text-anchor="middle" x="239.29" y="-713.3" font-family="Helvetica,sans-Serif" font-size="14.00">UseCalibratedData</text>
</g>
<!-- UseCalibratedData&#45;&gt;LoadILLDiffraction -->
<g id="edge2" class="edge">
<title>UseCalibratedData&#45;&gt;LoadILLDiffraction</title>
<path fill="none" stroke="black" d="M222.46,-699.17C213.57,-690.29 202.5,-679.21 192.69,-669.4"/>
<polygon fill="black" stroke="black" points="195.03,-666.79 185.49,-662.2 190.08,-671.74 195.03,-666.79"/>
</g>
<!-- HeightRange -->
<g id="node6" class="node">
<title>HeightRange</title>
<ellipse fill="khaki" stroke="black" cx="422.29" cy="-251" rx="69.59" ry="18"/>
<text text-anchor="middle" x="422.29" y="-247.3" font-family="Helvetica,sans-Serif" font-size="14.00">HeightRange</text>
</g>
<!-- HeightRange&#45;&gt;SumOverlappingTubes2DTubes -->
<g id="edge11" class="edge">
<title>HeightRange&#45;&gt;SumOverlappingTubes2DTubes</title>
<path fill="none" stroke="black" d="M372.39,-238.4C349.71,-232.47 322.75,-224.49 299.29,-215 286.2,-209.7 284.5,-204.98 271.29,-200 254.4,-193.63 235.99,-188.19 218.03,-183.63"/>
<polygon fill="black" stroke="black" points="218.66,-180.18 208.11,-181.18 216.98,-186.97 218.66,-180.18"/>
</g>
<!-- HeightRange&#45;&gt;SumOverlappingTubes2D -->
<g id="edge12" class="edge">
<title>HeightRange&#45;&gt;SumOverlappingTubes2D</title>
<path fill="none" stroke="black" d="M401.34,-233.81C384.61,-220.89 360.96,-202.61 342.24,-188.15"/>
<polygon fill="black" stroke="black" points="344.34,-185.35 334.29,-182 340.06,-190.89 344.34,-185.35"/>
</g>
<!-- HeightRange&#45;&gt;SumOverlappingTubes1D -->
<g id="edge13" class="edge">
<title>HeightRange&#45;&gt;SumOverlappingTubes1D</title>
<path fill="none" stroke="black" d="M438.29,-233.21C450.19,-220.72 466.62,-203.48 479.98,-189.46"/>
<polygon fill="black" stroke="black" points="482.67,-191.7 487.04,-182.05 477.61,-186.87 482.67,-191.7"/>
</g>
<!-- OutputWorkspace -->
<g id="node7" class="node">
<title>OutputWorkspace</title>
<ellipse fill="khaki" stroke="black" cx="312.29" cy="-18" rx="92.08" ry="18"/>
<text text-anchor="middle" x="312.29" y="-14.3" font-family="Helvetica,sans-Serif" font-size="14.00">OutputWorkspace</text>
</g>
<!-- LoadILLDiffraction&#45;&gt;MergeType -->
<g id="edge3" class="edge">
<title>LoadILLDiffraction&#45;&gt;MergeType</title>
<path fill="none" stroke="black" d="M168.29,-625.81C168.29,-617.79 168.29,-608.05 168.29,-599.07"/>
<polygon fill="black" stroke="black" points="171.79,-599.03 168.29,-589.03 164.79,-599.03 171.79,-599.03"/>
</g>
<!-- MergeRuns&#45;&gt;NormaliseTo -->
<g id="edge5" class="edge">
<title>MergeRuns&#45;&gt;NormaliseTo</title>
<path fill="none" stroke="black" d="M136.45,-465.81C141.68,-456.98 148.14,-446.06 153.87,-436.38"/>
<polygon fill="black" stroke="black" points="156.99,-437.96 159.07,-427.58 150.97,-434.4 156.99,-437.96"/>
</g>
<!-- NormaliseToMonitor&#45;&gt;OutputWorkspaceTypes -->
<g id="edge9" class="edge">
<title>NormaliseToMonitor&#45;&gt;OutputWorkspaceTypes</title>
<path fill="none" stroke="black" d="M124.84,-305.81C131.85,-296.93 140.53,-285.93 148.2,-276.2"/>
<polygon fill="black" stroke="black" points="151.18,-278.07 154.62,-268.06 145.68,-273.74 151.18,-278.07"/>
</g>
<!-- GroupWorkspaces -->
<g id="node14" class="node">
<title>GroupWorkspaces</title>
<path fill="lightskyblue" stroke="black" d="M371.79,-109C371.79,-109 252.79,-109 252.79,-109 246.79,-109 240.79,-103 240.79,-97 240.79,-97 240.79,-85 240.79,-85 240.79,-79 246.79,-73 252.79,-73 252.79,-73 371.79,-73 371.79,-73 377.79,-73 383.79,-79 383.79,-85 383.79,-85 383.79,-97 383.79,-97 383.79,-103 377.79,-109 371.79,-109"/>
<text text-anchor="middle" x="312.29" y="-87.3" font-family="Helvetica,sans-Serif" font-size="14.00">GroupWorkspaces</text>
</g>
<!-- SumOverlappingTubes2DTubes&#45;&gt;GroupWorkspaces -->
<g id="edge16" class="edge">
<title>SumOverlappingTubes2DTubes&#45;&gt;GroupWorkspaces</title>
<path fill="none" stroke="black" d="M167.04,-145.99C194.01,-135.97 228.32,-123.21 256.82,-112.62"/>
<polygon fill="black" stroke="black" points="258.09,-115.88 266.25,-109.11 255.66,-109.32 258.09,-115.88"/>
</g>
<!-- SumOverlappingTubes2D&#45;&gt;GroupWorkspaces -->
<g id="edge17" class="edge">
<title>SumOverlappingTubes2D&#45;&gt;GroupWorkspaces</title>
<path fill="none" stroke="black" d="M312.29,-145.81C312.29,-137.79 312.29,-128.05 312.29,-119.07"/>
<polygon fill="black" stroke="black" points="315.79,-119.03 312.29,-109.03 308.79,-119.03 315.79,-119.03"/>
</g>
<!-- SumOverlappingTubes1D&#45;&gt;GroupWorkspaces -->
<g id="edge18" class="edge">
<title>SumOverlappingTubes1D&#45;&gt;GroupWorkspaces</title>
<path fill="none" stroke="black" d="M457.54,-145.99C430.57,-135.97 396.25,-123.21 367.75,-112.62"/>
<polygon fill="black" stroke="black" points="368.92,-109.32 358.32,-109.11 366.48,-115.88 368.92,-109.32"/>
</g>
<!-- GroupWorkspaces&#45;&gt;OutputWorkspace -->
<g id="edge19" class="edge">
<title>GroupWorkspaces&#45;&gt;OutputWorkspace</title>
<path fill="none" stroke="black" d="M312.29,-72.81C312.29,-64.79 312.29,-55.05 312.29,-46.07"/>
<polygon fill="black" stroke="black" points="315.79,-46.03 312.29,-36.03 308.79,-46.03 315.79,-46.03"/>
</g>
</g>
</svg>
