<?xml version="1.0" encoding="UTF-8" standalone="no"?>
<!DOCTYPE svg PUBLIC "-//W3C//DTD SVG 1.1//EN"
 "http://www.w3.org/Graphics/SVG/1.1/DTD/svg11.dtd">
<!-- Generated by graphviz version 7.0.5 (20221231.0122)
 -->
<!-- Title: PowderILLDetectorScan Pages: 1 -->
<svg width="598pt" height="743pt"
 viewBox="0.00 0.00 597.79 743.00" xmlns="http://www.w3.org/2000/svg" xmlns:xlink="http://www.w3.org/1999/xlink">
<g id="graph0" class="graph" transform="scale(1 1) rotate(0) translate(4 739)">
<title>PowderILLDetectorScan</title>
<polygon fill="white" stroke="none" points="-4,4 -4,-739 593.79,-739 593.79,4 -4,4"/>
<!-- MergeType -->
<g id="node1" class="node">
<title>MergeType</title>
<polygon fill="limegreen" stroke="black" points="168.29,-589 83.66,-571 168.29,-553 252.91,-571 168.29,-589"/>
<text text-anchor="middle" x="168.29" y="-567.3" font-family="Helvetica,sans-Serif" font-size="14.00">MergeType</text>
</g>
<!-- NormaliseTo -->
<g id="node2" class="node">
<title>NormaliseTo</title>
<polygon fill="limegreen" stroke="black" points="168.29,-429 75.62,-411 168.29,-393 260.96,-411 168.29,-429"/>
<text text-anchor="middle" x="168.29" y="-407.3" font-family="Helvetica,sans-Serif" font-size="14.00">NormaliseTo</text>
</g>
<!-- MergeType&#45;&gt;NormaliseTo -->
<g id="edge6" class="edge">
<title>MergeType&#45;&gt;NormaliseTo</title>
<path fill="none" stroke="black" d="M183.34,-555.71C188.48,-549.84 193.61,-542.64 196.29,-535 207.78,-502.24 194.3,-462.88 182.37,-437.66"/>
<polygon fill="black" stroke="black" points="185.55,-436.19 177.94,-428.82 179.29,-439.32 185.55,-436.19"/>
<text text-anchor="middle" x="240.79" y="-480.3" font-family="Helvetica,sans-Serif" font-size="14.00">Skip Merge</text>
</g>
<!-- MergeRuns -->
<g id="node9" class="node">
<title>MergeRuns</title>
<path fill="lightskyblue" stroke="black" d="M161.79,-502C161.79,-502 90.79,-502 90.79,-502 84.79,-502 78.79,-496 78.79,-490 78.79,-490 78.79,-478 78.79,-478 78.79,-472 84.79,-466 90.79,-466 90.79,-466 161.79,-466 161.79,-466 167.79,-466 173.79,-472 173.79,-478 173.79,-478 173.79,-490 173.79,-490 173.79,-496 167.79,-502 161.79,-502"/>
<text text-anchor="middle" x="126.29" y="-480.3" font-family="Helvetica,sans-Serif" font-size="14.00">MergeRuns</text>
</g>
<!-- MergeType&#45;&gt;MergeRuns -->
<g id="edge4" class="edge">
<title>MergeType&#45;&gt;MergeRuns</title>
<path fill="none" stroke="black" d="M160.58,-554.41C154.77,-542.65 146.65,-526.21 139.77,-512.29"/>
<polygon fill="black" stroke="black" points="143.05,-511.02 135.48,-503.6 136.77,-514.12 143.05,-511.02"/>
<text text-anchor="middle" x="172.29" y="-523.8" font-family="Helvetica,sans-Serif" font-size="14.00">Merge</text>
</g>
<!-- OutputWorkspaceTypes -->
<g id="node3" class="node">
<title>OutputWorkspaceTypes</title>
<polygon fill="limegreen" stroke="black" points="167.29,-269 0.21,-251 167.29,-233 334.36,-251 167.29,-269"/>
<text text-anchor="middle" x="167.29" y="-247.3" font-family="Helvetica,sans-Serif" font-size="14.00">OutputWorkspaceTypes</text>
</g>
<!-- NormaliseTo&#45;&gt;OutputWorkspaceTypes -->
<g id="edge8" class="edge">
<title>NormaliseTo&#45;&gt;OutputWorkspaceTypes</title>
<path fill="none" stroke="black" d="M185.46,-396.08C191.33,-390.26 197.19,-382.98 200.29,-375 204.66,-363.73 208.7,-345.48 197.29,-306 194.49,-296.33 189.72,-286.49 184.79,-277.91"/>
<polygon fill="black" stroke="black" points="187.81,-276.16 179.61,-269.45 181.84,-279.81 187.81,-276.16"/>
<text text-anchor="middle" x="223.79" y="-320.3" font-family="Helvetica,sans-Serif" font-size="14.00">None</text>
</g>
<!-- NormaliseToMonitor -->
<g id="node10" class="node">
<title>NormaliseToMonitor</title>
<path fill="lightskyblue" stroke="black" d="M176.29,-342C176.29,-342 46.29,-342 46.29,-342 40.29,-342 34.29,-336 34.29,-330 34.29,-330 34.29,-318 34.29,-318 34.29,-312 40.29,-306 46.29,-306 46.29,-306 176.29,-306 176.29,-306 182.29,-306 188.29,-312 188.29,-318 188.29,-318 188.29,-330 188.29,-330 188.29,-336 182.29,-342 176.29,-342"/>
<text text-anchor="middle" x="111.29" y="-320.3" font-family="Helvetica,sans-Serif" font-size="14.00">NormaliseToMonitor</text>
</g>
<!-- NormaliseTo&#45;&gt;NormaliseToMonitor -->
<g id="edge7" class="edge">
<title>NormaliseTo&#45;&gt;NormaliseToMonitor</title>
<path fill="none" stroke="black" d="M158.1,-394.8C150.08,-382.85 138.72,-365.91 129.2,-351.71"/>
<polygon fill="black" stroke="black" points="132.28,-350.02 123.8,-343.67 126.47,-353.92 132.28,-350.02"/>
<text text-anchor="middle" x="169.79" y="-363.8" font-family="Helvetica,sans-Serif" font-size="14.00">Monitor</text>
</g>
<!-- SumOverlappingTubes2DTubes -->
<g id="node11" class="node">
<title>SumOverlappingTubes2DTubes</title>
<path fill="lightskyblue" stroke="black" d="M195.79,-182C195.79,-182 46.79,-182 46.79,-182 40.79,-182 34.79,-176 34.79,-170 34.79,-170 34.79,-158 34.79,-158 34.79,-152 40.79,-146 46.79,-146 46.79,-146 195.79,-146 195.79,-146 201.79,-146 207.79,-152 207.79,-158 207.79,-158 207.79,-170 207.79,-170 207.79,-176 201.79,-182 195.79,-182"/>
<text text-anchor="middle" x="121.29" y="-160.3" font-family="Helvetica,sans-Serif" font-size="14.00">SumOverlappingTubes</text>
</g>
<!-- OutputWorkspaceTypes&#45;&gt;SumOverlappingTubes2DTubes -->
<g id="edge10" class="edge">
<title>OutputWorkspaceTypes&#45;&gt;SumOverlappingTubes2DTubes</title>
<path fill="none" stroke="black" d="M158.42,-233.61C152.05,-221.85 143.33,-205.73 135.93,-192.07"/>
<polygon fill="black" stroke="black" points="139.16,-190.67 131.32,-183.54 133,-194.01 139.16,-190.67"/>
<text text-anchor="middle" x="177.29" y="-203.8" font-family="Helvetica,sans-Serif" font-size="14.00">2DTubes</text>
</g>
<!-- SumOverlappingTubes2D -->
<g id="node12" class="node">
<title>SumOverlappingTubes2D</title>
<path fill="lightskyblue" stroke="black" d="M386.79,-182C386.79,-182 237.79,-182 237.79,-182 231.79,-182 225.79,-176 225.79,-170 225.79,-170 225.79,-158 225.79,-158 225.79,-152 231.79,-146 237.79,-146 237.79,-146 386.79,-146 386.79,-146 392.79,-146 398.79,-152 398.79,-158 398.79,-158 398.79,-170 398.79,-170 398.79,-176 392.79,-182 386.79,-182"/>
<text text-anchor="middle" x="312.29" y="-160.3" font-family="Helvetica,sans-Serif" font-size="14.00">SumOverlappingTubes</text>
</g>
<!-- OutputWorkspaceTypes&#45;&gt;SumOverlappingTubes2D -->
<g id="edge14" class="edge">
<title>OutputWorkspaceTypes&#45;&gt;SumOverlappingTubes2D</title>
<path fill="none" stroke="black" d="M192.21,-235.39C214.37,-222.4 247.15,-203.18 272.86,-188.11"/>
<polygon fill="black" stroke="black" points="274.52,-191.19 281.38,-183.12 270.98,-185.16 274.52,-191.19"/>
<text text-anchor="middle" x="258.29" y="-203.8" font-family="Helvetica,sans-Serif" font-size="14.00">2D</text>
</g>
<!-- SumOverlappingTubes1D -->
<g id="node13" class="node">
<title>SumOverlappingTubes1D</title>
<path fill="lightskyblue" stroke="black" d="M577.79,-182C577.79,-182 428.79,-182 428.79,-182 422.79,-182 416.79,-176 416.79,-170 416.79,-170 416.79,-158 416.79,-158 416.79,-152 422.79,-146 428.79,-146 428.79,-146 577.79,-146 577.79,-146 583.79,-146 589.79,-152 589.79,-158 589.79,-158 589.79,-170 589.79,-170 589.79,-176 583.79,-182 577.79,-182"/>
<text text-anchor="middle" x="503.29" y="-160.3" font-family="Helvetica,sans-Serif" font-size="14.00">SumOverlappingTubes</text>
</g>
<!-- OutputWorkspaceTypes&#45;&gt;SumOverlappingTubes1D -->
<g id="edge15" class="edge">
<title>OutputWorkspaceTypes&#45;&gt;SumOverlappingTubes1D</title>
<path fill="none" stroke="black" d="M215.79,-237.73C270.07,-224 358.88,-201.53 423.44,-185.2"/>
<polygon fill="black" stroke="black" points="424.09,-188.64 432.93,-182.8 422.38,-181.86 424.09,-188.64"/>
<text text-anchor="middle" x="365.29" y="-203.8" font-family="Helvetica,sans-Serif" font-size="14.00">1D</text>
</g>
<!-- Run -->
<g id="node4" class="node">
<title>Run</title>
<ellipse fill="khaki" stroke="black" cx="98.29" cy="-717" rx="28.7" ry="18"/>
<text text-anchor="middle" x="98.29" y="-713.3" font-family="Helvetica,sans-Serif" font-size="14.00">Run</text>
</g>
<!-- LoadILLDiffraction -->
<g id="node8" class="node">
<title>LoadILLDiffraction</title>
<path fill="lightskyblue" stroke="black" d="M227.29,-662C227.29,-662 109.29,-662 109.29,-662 103.29,-662 97.29,-656 97.29,-650 97.29,-650 97.29,-638 97.29,-638 97.29,-632 103.29,-626 109.29,-626 109.29,-626 227.29,-626 227.29,-626 233.29,-626 239.29,-632 239.29,-638 239.29,-638 239.29,-650 239.29,-650 239.29,-656 233.29,-662 227.29,-662"/>
<text text-anchor="middle" x="168.29" y="-640.3" font-family="Helvetica,sans-Serif" font-size="14.00">LoadILLDiffraction</text>
</g>
<!-- Run&#45;&gt;LoadILLDiffraction -->
<g id="edge1" class="edge">
<title>Run&#45;&gt;LoadILLDiffraction</title>
<path fill="none" stroke="black" d="M112.79,-701.29C121.58,-692.38 133.02,-680.77 143.23,-670.41"/>
<polygon fill="black" stroke="black" points="145.49,-673.11 150.02,-663.53 140.51,-668.19 145.49,-673.11"/>
</g>
<!-- UseCalibratedData -->
<g id="node5" class="node">
<title>UseCalibratedData</title>
<ellipse fill="khaki" stroke="black" cx="239.29" cy="-717" rx="94.78" ry="18"/>
<text text-anchor="middle" x="239.29" y="-713.3" font-family="Helvetica,sans-Serif" font-size="14.00">UseCalibratedData</text>
</g>
<!-- UseCalibratedData&#45;&gt;LoadILLDiffraction -->
<g id="edge2" class="edge">
<title>UseCalibratedData&#45;&gt;LoadILLDiffraction</title>
<path fill="none" stroke="black" d="M222.1,-698.81C213.47,-690.18 202.84,-679.56 193.32,-670.03"/>
<polygon fill="black" stroke="black" points="195.93,-667.7 186.39,-663.1 190.98,-672.65 195.93,-667.7"/>
</g>
<!-- HeightRange -->
<g id="node6" class="node">
<title>HeightRange</title>
<ellipse fill="khaki" stroke="black" cx="422.29" cy="-251" rx="69.59" ry="18"/>
<text text-anchor="middle" x="422.29" y="-247.3" font-family="Helvetica,sans-Serif" font-size="14.00">HeightRange</text>
</g>
<!-- HeightRange&#45;&gt;SumOverlappingTubes2DTubes -->
<g id="edge11" class="edge">
<title>HeightRange&#45;&gt;SumOverlappingTubes2DTubes</title>
<path fill="none" stroke="black" d="M371.8,-238.25C349.23,-232.33 322.54,-224.41 299.29,-215 286.2,-209.7 284.5,-204.98 271.29,-200 254.71,-193.75 236.67,-188.39 219.03,-183.88"/>
<polygon fill="black" stroke="black" points="220.13,-180.55 209.58,-181.54 218.45,-187.34 220.13,-180.55"/>
</g>
<!-- HeightRange&#45;&gt;SumOverlappingTubes2D -->
<g id="edge12" class="edge">
<title>HeightRange&#45;&gt;SumOverlappingTubes2D</title>
<path fill="none" stroke="black" d="M400.82,-233.41C384.63,-220.9 362.18,-203.55 343.94,-189.46"/>
<polygon fill="black" stroke="black" points="346.09,-186.7 336.03,-183.35 341.81,-192.23 346.09,-186.7"/>
</g>
<!-- HeightRange&#45;&gt;SumOverlappingTubes1D -->
<g id="edge13" class="edge">
<title>HeightRange&#45;&gt;SumOverlappingTubes1D</title>
<path fill="none" stroke="black" d="M438.29,-233.21C449.9,-221.03 465.8,-204.33 478.98,-190.51"/>
<polygon fill="black" stroke="black" points="481.35,-193.09 485.72,-183.44 476.28,-188.26 481.35,-193.09"/>
</g>
<!-- OutputWorkspace -->
<g id="node7" class="node">
<title>OutputWorkspace</title>
<ellipse fill="khaki" stroke="black" cx="312.29" cy="-18" rx="92.08" ry="18"/>
<text text-anchor="middle" x="312.29" y="-14.3" font-family="Helvetica,sans-Serif" font-size="14.00">OutputWorkspace</text>
</g>
<!-- LoadILLDiffraction&#45;&gt;MergeType -->
<g id="edge3" class="edge">
<title>LoadILLDiffraction&#45;&gt;MergeType</title>
<path fill="none" stroke="black" d="M168.29,-625.81C168.29,-618.23 168.29,-609.1 168.29,-600.54"/>
<polygon fill="black" stroke="black" points="171.79,-600.54 168.29,-590.54 164.79,-600.54 171.79,-600.54"/>
</g>
<!-- MergeRuns&#45;&gt;NormaliseTo -->
<g id="edge5" class="edge">
<title>MergeRuns&#45;&gt;NormaliseTo</title>
<path fill="none" stroke="black" d="M136.45,-465.81C141.52,-457.25 147.74,-446.74 153.33,-437.28"/>
<polygon fill="black" stroke="black" points="156.22,-439.27 158.3,-428.88 150.2,-435.7 156.22,-439.27"/>
</g>
<!-- NormaliseToMonitor&#45;&gt;OutputWorkspaceTypes -->
<g id="edge9" class="edge">
<title>NormaliseToMonitor&#45;&gt;OutputWorkspaceTypes</title>
<path fill="none" stroke="black" d="M124.84,-305.81C131.64,-297.19 140,-286.59 147.5,-277.09"/>
<polygon fill="black" stroke="black" points="150.24,-279.26 153.69,-269.24 144.74,-274.93 150.24,-279.26"/>
</g>
<!-- GroupWorkspaces -->
<g id="node14" class="node">
<title>GroupWorkspaces</title>
<path fill="lightskyblue" stroke="black" d="M371.79,-109C371.79,-109 252.79,-109 252.79,-109 246.79,-109 240.79,-103 240.79,-97 240.79,-97 240.79,-85 240.79,-85 240.79,-79 246.79,-73 252.79,-73 252.79,-73 371.79,-73 371.79,-73 377.79,-73 383.79,-79 383.79,-85 383.79,-85 383.79,-97 383.79,-97 383.79,-103 377.79,-109 371.79,-109"/>
<text text-anchor="middle" x="312.29" y="-87.3" font-family="Helvetica,sans-Serif" font-size="14.00">GroupWorkspaces</text>
</g>
<!-- SumOverlappingTubes2DTubes&#45;&gt;GroupWorkspaces -->
<g id="edge16" class="edge">
<title>SumOverlappingTubes2DTubes&#45;&gt;GroupWorkspaces</title>
<path fill="none" stroke="black" d="M168.01,-145.63C194.14,-135.92 226.93,-123.73 254.64,-113.43"/>
<polygon fill="black" stroke="black" points="255.81,-116.73 263.96,-109.96 253.37,-110.17 255.81,-116.73"/>
</g>
<!-- SumOverlappingTubes2D&#45;&gt;GroupWorkspaces -->
<g id="edge17" class="edge">
<title>SumOverlappingTubes2D&#45;&gt;GroupWorkspaces</title>
<path fill="none" stroke="black" d="M312.29,-145.81C312.29,-138.23 312.29,-129.1 312.29,-120.54"/>
<polygon fill="black" stroke="black" points="315.79,-120.54 312.29,-110.54 308.79,-120.54 315.79,-120.54"/>
</g>
<!-- SumOverlappingTubes1D&#45;&gt;GroupWorkspaces -->
<g id="edge18" class="edge">
<title>SumOverlappingTubes1D&#45;&gt;GroupWorkspaces</title>
<path fill="none" stroke="black" d="M456.56,-145.63C430.43,-135.92 397.64,-123.73 369.93,-113.43"/>
<polygon fill="black" stroke="black" points="371.2,-110.17 360.61,-109.96 368.76,-116.73 371.2,-110.17"/>
</g>
<!-- GroupWorkspaces&#45;&gt;OutputWorkspace -->
<g id="edge19" class="edge">
<title>GroupWorkspaces&#45;&gt;OutputWorkspace</title>
<path fill="none" stroke="black" d="M312.29,-72.81C312.29,-65.23 312.29,-56.1 312.29,-47.54"/>
<polygon fill="black" stroke="black" points="315.79,-47.54 312.29,-37.54 308.79,-47.54 315.79,-47.54"/>
</g>
</g>
</svg>
