<?xml version="1.0" encoding="UTF-8" standalone="no"?>
<!DOCTYPE svg PUBLIC "-//W3C//DTD SVG 1.1//EN"
 "http://www.w3.org/Graphics/SVG/1.1/DTD/svg11.dtd">
<!-- Generated by graphviz version 7.0.5 (20221231.0122)
 -->
<!-- Title: ProcessIndirectFitParameters Pages: 1 -->
<svg width="1235pt" height="1173pt"
 viewBox="0.00 0.00 1234.63 1173.00" xmlns="http://www.w3.org/2000/svg" xmlns:xlink="http://www.w3.org/1999/xlink">
<g id="graph0" class="graph" transform="scale(1 1) rotate(0) translate(4 1169)">
<title>ProcessIndirectFitParameters</title>
<polygon fill="white" stroke="none" points="-4,4 -4,-1169 1230.63,-1169 1230.63,4 -4,4"/>
<text text-anchor="middle" x="613.32" y="-1149.8" font-family="Helvetica,sans-Serif" font-size="14.00">ProcessIndirectFitParameters Flowchart</text>
<!-- InputWorkspace -->
<g id="node1" class="node">
<title>InputWorkspace</title>
<ellipse fill="khaki" stroke="black" cx="726.13" cy="-1124" rx="84.49" ry="18"/>
<text text-anchor="middle" x="726.13" y="-1120.3" font-family="Helvetica,sans-Serif" font-size="14.00">InputWorkspace</text>
</g>
<!-- allColumnNames -->
<g id="node6" class="node">
<title>allColumnNames</title>
<ellipse fill="khaki" stroke="black" cx="726.13" cy="-1037" rx="87.18" ry="18"/>
<text text-anchor="middle" x="726.13" y="-1033.3" font-family="Helvetica,sans-Serif" font-size="14.00">allColumnNames</text>
</g>
<!-- InputWorkspace&#45;&gt;allColumnNames -->
<g id="edge1" class="edge">
<title>InputWorkspace&#45;&gt;allColumnNames</title>
<path fill="none" stroke="black" d="M726.13,-1105.8C726.13,-1094.58 726.13,-1079.67 726.13,-1066.69"/>
<polygon fill="black" stroke="black" points="729.63,-1066.98 726.13,-1056.98 722.63,-1066.98 729.63,-1066.98"/>
<text text-anchor="middle" x="892.13" y="-1076.8" font-family="Helvetica,sans-Serif" font-size="14.00">Get all column names from the TableWorkspace</text>
</g>
<!-- ColumnX -->
<g id="node2" class="node">
<title>ColumnX</title>
<ellipse fill="khaki" stroke="black" cx="646.13" cy="-790" rx="51.99" ry="18"/>
<text text-anchor="middle" x="646.13" y="-786.3" font-family="Helvetica,sans-Serif" font-size="14.00">ColumnX</text>
</g>
<!-- ConvertTableToMatrixWorkspace -->
<g id="node12" class="node">
<title>ConvertTableToMatrixWorkspace</title>
<path fill="lightskyblue" stroke="black" d="M673.13,-721C673.13,-721 455.13,-721 455.13,-721 449.13,-721 443.13,-715 443.13,-709 443.13,-709 443.13,-697 443.13,-697 443.13,-691 449.13,-685 455.13,-685 455.13,-685 673.13,-685 673.13,-685 679.13,-685 685.13,-691 685.13,-697 685.13,-697 685.13,-709 685.13,-709 685.13,-715 679.13,-721 673.13,-721"/>
<text text-anchor="middle" x="564.13" y="-699.3" font-family="Helvetica,sans-Serif" font-size="14.00">ConvertTableToMatrixWorkspace</text>
</g>
<!-- ColumnX&#45;&gt;ConvertTableToMatrixWorkspace -->
<g id="edge7" class="edge">
<title>ColumnX&#45;&gt;ConvertTableToMatrixWorkspace</title>
<path fill="none" stroke="black" d="M630.32,-772.61C618.53,-760.39 602.19,-743.46 588.7,-729.47"/>
<polygon fill="black" stroke="black" points="591.25,-727.07 581.79,-722.3 586.21,-731.93 591.25,-727.07"/>
<text text-anchor="middle" x="615.13" y="-742.8" font-family="Helvetica,sans-Serif" font-size="14.00">X</text>
</g>
<!-- ParameterNames -->
<g id="node3" class="node">
<title>ParameterNames</title>
<ellipse fill="khaki" stroke="black" cx="694.13" cy="-950" rx="89.08" ry="18"/>
<text text-anchor="middle" x="694.13" y="-946.3" font-family="Helvetica,sans-Serif" font-size="14.00">ParameterNames</text>
</g>
<!-- searchForParams -->
<g id="node15" class="node">
<title>searchForParams</title>
<polygon fill="lightseagreen" stroke="black" points="763.63,-895 200.63,-895 200.63,-859 763.63,-859 763.63,-895"/>
<text text-anchor="middle" x="482.13" y="-873.3" font-family="Helvetica,sans-Serif" font-size="14.00">searchforFitParams: Search for strings that have the given word as their suffix</text>
</g>
<!-- ParameterNames&#45;&gt;searchForParams -->
<g id="edge4" class="edge">
<title>ParameterNames&#45;&gt;searchForParams</title>
<path fill="none" stroke="black" d="M649.43,-934.03C619.07,-923.86 578.48,-910.27 544.88,-899.02"/>
<polygon fill="black" stroke="black" points="546.27,-895.79 535.68,-895.93 544.05,-902.43 546.27,-895.79"/>
</g>
<!-- XAxisUnit -->
<g id="node4" class="node">
<title>XAxisUnit</title>
<ellipse fill="khaki" stroke="black" cx="1149.13" cy="-164" rx="54.69" ry="18"/>
<text text-anchor="middle" x="1149.13" y="-160.3" font-family="Helvetica,sans-Serif" font-size="14.00">XAxisUnit</text>
</g>
<!-- replaceXUnit -->
<g id="node19" class="node">
<title>replaceXUnit</title>
<polygon fill="lightseagreen" stroke="black" points="1189.13,-109 869.13,-109 869.13,-73 1189.13,-73 1189.13,-109"/>
<text text-anchor="middle" x="1029.13" y="-87.3" font-family="Helvetica,sans-Serif" font-size="14.00">Replace the x axis unit with algorithm input</text>
</g>
<!-- XAxisUnit&#45;&gt;replaceXUnit -->
<g id="edge19" class="edge">
<title>XAxisUnit&#45;&gt;replaceXUnit</title>
<path fill="none" stroke="black" d="M1123.39,-147.77C1107.35,-138.28 1086.4,-125.89 1068.33,-115.19"/>
<polygon fill="black" stroke="black" points="1070.32,-112.31 1059.93,-110.23 1066.76,-118.33 1070.32,-112.31"/>
</g>
<!-- OutputWorkspace -->
<g id="node5" class="node">
<title>OutputWorkspace</title>
<ellipse fill="khaki" stroke="black" cx="1029.13" cy="-18" rx="92.08" ry="18"/>
<text text-anchor="middle" x="1029.13" y="-14.3" font-family="Helvetica,sans-Serif" font-size="14.00">OutputWorkspace</text>
</g>
<!-- currentColumnName -->
<g id="node7" class="node">
<title>currentColumnName</title>
<ellipse fill="khaki" stroke="black" cx="482.13" cy="-950" rx="104.78" ry="18"/>
<text text-anchor="middle" x="482.13" y="-946.3" font-family="Helvetica,sans-Serif" font-size="14.00">currentColumnName</text>
</g>
<!-- allColumnNames&#45;&gt;currentColumnName -->
<g id="edge2" class="edge">
<title>allColumnNames&#45;&gt;currentColumnName</title>
<path fill="none" stroke="black" d="M683.07,-1021C642.71,-1006.94 582.15,-985.84 538.07,-970.49"/>
<polygon fill="black" stroke="black" points="539.26,-967.2 528.67,-967.21 536.96,-973.81 539.26,-967.2"/>
<text text-anchor="middle" x="764.13" y="-989.8" font-family="Helvetica,sans-Serif" font-size="14.00">Extract ColumnName to be used in a loop</text>
</g>
<!-- currentColumnName&#45;&gt;searchForParams -->
<g id="edge3" class="edge">
<title>currentColumnName&#45;&gt;searchForParams</title>
<path fill="none" stroke="black" d="M482.13,-931.81C482.13,-924.23 482.13,-915.1 482.13,-906.54"/>
<polygon fill="black" stroke="black" points="485.63,-906.54 482.13,-896.54 478.63,-906.54 485.63,-906.54"/>
</g>
<!-- ErrorColumnName -->
<g id="node8" class="node">
<title>ErrorColumnName</title>
<ellipse fill="khaki" stroke="black" cx="482.13" cy="-790" rx="94.48" ry="18"/>
<text text-anchor="middle" x="482.13" y="-786.3" font-family="Helvetica,sans-Serif" font-size="14.00">ErrorColumnName</text>
</g>
<!-- ErrorColumnName&#45;&gt;ConvertTableToMatrixWorkspace -->
<g id="edge9" class="edge">
<title>ErrorColumnName&#45;&gt;ConvertTableToMatrixWorkspace</title>
<path fill="none" stroke="black" d="M498.72,-771.8C510.43,-759.67 526.3,-743.21 539.48,-729.55"/>
<polygon fill="black" stroke="black" points="541.8,-732.18 546.23,-722.56 536.77,-727.32 541.8,-732.18"/>
<text text-anchor="middle" x="533.13" y="-742.8" font-family="Helvetica,sans-Serif" font-size="14.00">E</text>
</g>
<!-- ColumnName -->
<g id="node9" class="node">
<title>ColumnName</title>
<ellipse fill="khaki" stroke="black" cx="143.13" cy="-790" rx="71.49" ry="18"/>
<text text-anchor="middle" x="143.13" y="-786.3" font-family="Helvetica,sans-Serif" font-size="14.00">ColumnName</text>
</g>
<!-- ColumnName&#45;&gt;ConvertTableToMatrixWorkspace -->
<g id="edge8" class="edge">
<title>ColumnName&#45;&gt;ConvertTableToMatrixWorkspace</title>
<path fill="none" stroke="black" d="M197.74,-777.97C265.77,-764.24 383.22,-740.53 466.8,-723.65"/>
<polygon fill="black" stroke="black" points="467.25,-727.13 476.36,-721.72 465.86,-720.27 467.25,-727.13"/>
<text text-anchor="middle" x="383.63" y="-742.8" font-family="Helvetica,sans-Serif" font-size="14.00">Y</text>
</g>
<!-- PeakWorkspaces -->
<g id="node10" class="node">
<title>PeakWorkspaces</title>
<ellipse fill="khaki" stroke="black" cx="910.13" cy="-383" rx="87.18" ry="18"/>
<text text-anchor="middle" x="910.13" y="-379.3" font-family="Helvetica,sans-Serif" font-size="14.00">PeakWorkspaces</text>
</g>
<!-- conjoinPeaks -->
<g id="node17" class="node">
<title>conjoinPeaks</title>
<polygon fill="lightseagreen" stroke="black" points="1114.13,-328 706.13,-328 706.13,-292 1114.13,-292 1114.13,-328"/>
<text text-anchor="middle" x="910.13" y="-306.3" font-family="Helvetica,sans-Serif" font-size="14.00">Conjoin all the peak workspaces into a single workspace</text>
</g>
<!-- PeakWorkspaces&#45;&gt;conjoinPeaks -->
<g id="edge15" class="edge">
<title>PeakWorkspaces&#45;&gt;conjoinPeaks</title>
<path fill="none" stroke="black" d="M910.13,-364.81C910.13,-357.23 910.13,-348.1 910.13,-339.54"/>
<polygon fill="black" stroke="black" points="913.63,-339.54 910.13,-329.54 906.63,-339.54 913.63,-339.54"/>
</g>
<!-- WorkspaceNames -->
<g id="node11" class="node">
<title>WorkspaceNames</title>
<ellipse fill="khaki" stroke="black" cx="758.13" cy="-616" rx="91.78" ry="18"/>
<text text-anchor="middle" x="758.13" y="-612.3" font-family="Helvetica,sans-Serif" font-size="14.00">WorkspaceNames</text>
</g>
<!-- processedAllColumns -->
<g id="node14" class="node">
<title>processedAllColumns</title>
<polygon fill="limegreen" stroke="black" points="910.13,-561 725.63,-543 910.13,-525 1094.63,-543 910.13,-561"/>
<text text-anchor="middle" x="910.13" y="-539.3" font-family="Helvetica,sans-Serif" font-size="14.00">All columns to workspaces</text>
</g>
<!-- WorkspaceNames&#45;&gt;processedAllColumns -->
<g id="edge11" class="edge">
<title>WorkspaceNames&#45;&gt;processedAllColumns</title>
<path fill="none" stroke="black" d="M792.62,-598.89C815.36,-588.27 845.25,-574.31 869.19,-563.12"/>
<polygon fill="black" stroke="black" points="870.43,-566.41 878.01,-559 867.47,-560.06 870.43,-566.41"/>
</g>
<!-- ConvertTableToMatrixWorkspace&#45;&gt;WorkspaceNames -->
<g id="edge10" class="edge">
<title>ConvertTableToMatrixWorkspace&#45;&gt;WorkspaceNames</title>
<path fill="none" stroke="black" d="M597.76,-684.54C617.48,-674.55 642.98,-662.05 666.13,-652 678.62,-646.58 692.25,-641.14 705.1,-636.22"/>
<polygon fill="black" stroke="black" points="706.13,-639.57 714.25,-632.76 703.66,-633.02 706.13,-639.57"/>
<text text-anchor="middle" x="811.13" y="-655.8" font-family="Helvetica,sans-Serif" font-size="14.00">Vector to store workspaces for Conjoining</text>
</g>
<!-- RenameWorkspace -->
<g id="node13" class="node">
<title>RenameWorkspace</title>
<path fill="lightskyblue" stroke="black" d="M973.13,-255C973.13,-255 847.13,-255 847.13,-255 841.13,-255 835.13,-249 835.13,-243 835.13,-243 835.13,-231 835.13,-231 835.13,-225 841.13,-219 847.13,-219 847.13,-219 973.13,-219 973.13,-219 979.13,-219 985.13,-225 985.13,-231 985.13,-231 985.13,-243 985.13,-243 985.13,-249 979.13,-255 973.13,-255"/>
<text text-anchor="middle" x="910.13" y="-233.3" font-family="Helvetica,sans-Serif" font-size="14.00">RenameWorkspace</text>
</g>
<!-- replaceXAxis -->
<g id="node18" class="node">
<title>replaceXAxis</title>
<polygon fill="lightseagreen" stroke="black" points="1076.13,-182 744.13,-182 744.13,-146 1076.13,-146 1076.13,-182"/>
<text text-anchor="middle" x="910.13" y="-160.3" font-family="Helvetica,sans-Serif" font-size="14.00">Replace the x axis with the parameter names</text>
</g>
<!-- RenameWorkspace&#45;&gt;replaceXAxis -->
<g id="edge17" class="edge">
<title>RenameWorkspace&#45;&gt;replaceXAxis</title>
<path fill="none" stroke="black" d="M910.13,-218.81C910.13,-211.23 910.13,-202.1 910.13,-193.54"/>
<polygon fill="black" stroke="black" points="913.63,-193.54 910.13,-183.54 906.63,-193.54 913.63,-193.54"/>
</g>
<!-- processedAllColumns&#45;&gt;allColumnNames -->
<g id="edge12" class="edge">
<title>processedAllColumns&#45;&gt;allColumnNames</title>
<path fill="none" stroke="black" d="M933.84,-559.01C950.62,-571.66 970.13,-591.44 970.13,-615 970.13,-951 970.13,-951 970.13,-951 970.13,-984.7 943.44,-986.26 913.13,-1001 884.16,-1015.08 850.13,-1023.52 819.09,-1028.56"/>
<polygon fill="black" stroke="black" points="818.66,-1025.08 809.3,-1030.04 819.71,-1032.01 818.66,-1025.08"/>
<text text-anchor="middle" x="979.63" y="-786.3" font-family="Helvetica,sans-Serif" font-size="14.00">No</text>
</g>
<!-- conjoinParams -->
<g id="node16" class="node">
<title>conjoinParams</title>
<polygon fill="lightseagreen" stroke="black" points="1226.63,-474 593.63,-474 593.63,-438 1226.63,-438 1226.63,-474"/>
<text text-anchor="middle" x="910.13" y="-452.3" font-family="Helvetica,sans-Serif" font-size="14.00">Conjoin all the workspaces that are about the same peak (Could be multiple Lorentzians)</text>
</g>
<!-- processedAllColumns&#45;&gt;conjoinParams -->
<g id="edge13" class="edge">
<title>processedAllColumns&#45;&gt;conjoinParams</title>
<path fill="none" stroke="black" d="M910.13,-524.8C910.13,-513.58 910.13,-498.67 910.13,-485.69"/>
<polygon fill="black" stroke="black" points="913.63,-485.98 910.13,-475.98 906.63,-485.98 913.63,-485.98"/>
<text text-anchor="middle" x="921.63" y="-495.8" font-family="Helvetica,sans-Serif" font-size="14.00">Yes</text>
</g>
<!-- searchForParams&#45;&gt;ErrorColumnName -->
<g id="edge6" class="edge">
<title>searchForParams&#45;&gt;ErrorColumnName</title>
<path fill="none" stroke="black" d="M482.13,-858.8C482.13,-847.58 482.13,-832.67 482.13,-819.69"/>
<polygon fill="black" stroke="black" points="485.63,-819.98 482.13,-809.98 478.63,-819.98 485.63,-819.98"/>
<text text-anchor="middle" x="718.63" y="-829.8" font-family="Helvetica,sans-Serif" font-size="14.00">Corresponding errors for currentColumnName from tableWorkspace</text>
</g>
<!-- searchForParams&#45;&gt;ColumnName -->
<g id="edge5" class="edge">
<title>searchForParams&#45;&gt;ColumnName</title>
<path fill="none" stroke="black" d="M200.35,-870.62C106.64,-865.88 22.1,-857.11 7.13,-841 -15.74,-816.38 22.28,-803.84 63.87,-797.48"/>
<polygon fill="black" stroke="black" points="64.14,-800.97 73.57,-796.13 63.18,-794.04 64.14,-800.97"/>
<text text-anchor="middle" x="242.63" y="-829.8" font-family="Helvetica,sans-Serif" font-size="14.00">Corresponding name for currentColumnName from tableWorkspace</text>
</g>
<!-- conjoinParams&#45;&gt;PeakWorkspaces -->
<g id="edge14" class="edge">
<title>conjoinParams&#45;&gt;PeakWorkspaces</title>
<path fill="none" stroke="black" d="M910.13,-437.81C910.13,-430.23 910.13,-421.1 910.13,-412.54"/>
<polygon fill="black" stroke="black" points="913.63,-412.54 910.13,-402.54 906.63,-412.54 913.63,-412.54"/>
</g>
<!-- conjoinPeaks&#45;&gt;RenameWorkspace -->
<g id="edge16" class="edge">
<title>conjoinPeaks&#45;&gt;RenameWorkspace</title>
<path fill="none" stroke="black" d="M910.13,-291.81C910.13,-284.23 910.13,-275.1 910.13,-266.54"/>
<polygon fill="black" stroke="black" points="913.63,-266.54 910.13,-256.54 906.63,-266.54 913.63,-266.54"/>
</g>
<!-- replaceXAxis&#45;&gt;replaceXUnit -->
<g id="edge18" class="edge">
<title>replaceXAxis&#45;&gt;replaceXUnit</title>
<path fill="none" stroke="black" d="M939.24,-145.63C954.66,-136.43 973.79,-125.02 990.44,-115.08"/>
<polygon fill="black" stroke="black" points="991.81,-118.34 998.61,-110.21 988.23,-112.33 991.81,-118.34"/>
</g>
<!-- replaceXUnit&#45;&gt;OutputWorkspace -->
<g id="edge20" class="edge">
<title>replaceXUnit&#45;&gt;OutputWorkspace</title>
<path fill="none" stroke="black" d="M1029.13,-72.81C1029.13,-65.23 1029.13,-56.1 1029.13,-47.54"/>
<polygon fill="black" stroke="black" points="1032.63,-47.54 1029.13,-37.54 1025.63,-47.54 1032.63,-47.54"/>
</g>
</g>
</svg>
