<?xml version="1.0" encoding="UTF-8" standalone="no"?>
<!DOCTYPE svg PUBLIC "-//W3C//DTD SVG 1.1//EN"
 "http://www.w3.org/Graphics/SVG/1.1/DTD/svg11.dtd">
<!-- Generated by graphviz version 2.47.2 (20210527.1257)
 -->
<!-- Title: ProcessIndirectFitParameters Pages: 1 -->
<svg width="1069pt" height="1173pt"
 viewBox="0.00 0.00 1069.10 1173.00" xmlns="http://www.w3.org/2000/svg" xmlns:xlink="http://www.w3.org/1999/xlink">
<g id="graph0" class="graph" transform="scale(1 1) rotate(0) translate(4 1169)">
<title>ProcessIndirectFitParameters</title>
<polygon fill="white" stroke="transparent" points="-4,4 -4,-1169 1065.1,-1169 1065.1,4 -4,4"/>
<text text-anchor="middle" x="530.55" y="-1149.8" font-family="Helvetica" font-size="14.00">ProcessIndirectFitParameters Flowchart</text>
<!-- InputWorkspace -->
<g id="node1" class="node">
<title>InputWorkspace</title>
<ellipse fill="khaki" stroke="black" cx="631.1" cy="-1124" rx="74.19" ry="18"/>
<text text-anchor="middle" x="631.1" y="-1120.3" font-family="Helvetica" font-size="14.00">InputWorkspace</text>
</g>
<!-- allColumnNames -->
<g id="node6" class="node">
<title>allColumnNames</title>
<ellipse fill="khaki" stroke="black" cx="631.1" cy="-1037" rx="78.79" ry="18"/>
<text text-anchor="middle" x="631.1" y="-1033.3" font-family="Helvetica" font-size="14.00">allColumnNames</text>
</g>
<!-- InputWorkspace&#45;&gt;allColumnNames -->
<g id="edge1" class="edge">
<title>InputWorkspace&#45;&gt;allColumnNames</title>
<path fill="none" stroke="black" d="M631.1,-1105.8C631.1,-1094.16 631.1,-1078.55 631.1,-1065.24"/>
<polygon fill="black" stroke="black" points="634.6,-1065.18 631.1,-1055.18 627.6,-1065.18 634.6,-1065.18"/>
<text text-anchor="middle" x="776.6" y="-1076.8" font-family="Helvetica" font-size="14.00">Get all column names from the TableWorkspace</text>
</g>
<!-- ColumnX -->
<g id="node2" class="node">
<title>ColumnX</title>
<ellipse fill="khaki" stroke="black" cx="570.1" cy="-790" rx="47.39" ry="18"/>
<text text-anchor="middle" x="570.1" y="-786.3" font-family="Helvetica" font-size="14.00">ColumnX</text>
</g>
<!-- ConvertTableToMatrixWorkspace -->
<g id="node12" class="node">
<title>ConvertTableToMatrixWorkspace</title>
<path fill="lightskyblue" stroke="black" d="M590.6,-721C590.6,-721 399.6,-721 399.6,-721 393.6,-721 387.6,-715 387.6,-709 387.6,-709 387.6,-697 387.6,-697 387.6,-691 393.6,-685 399.6,-685 399.6,-685 590.6,-685 590.6,-685 596.6,-685 602.6,-691 602.6,-697 602.6,-697 602.6,-709 602.6,-709 602.6,-715 596.6,-721 590.6,-721"/>
<text text-anchor="middle" x="495.1" y="-699.3" font-family="Helvetica" font-size="14.00">ConvertTableToMatrixWorkspace</text>
</g>
<!-- ColumnX&#45;&gt;ConvertTableToMatrixWorkspace -->
<g id="edge7" class="edge">
<title>ColumnX&#45;&gt;ConvertTableToMatrixWorkspace</title>
<path fill="none" stroke="black" d="M555.64,-772.61C544.75,-760.27 529.64,-743.14 517.23,-729.08"/>
<polygon fill="black" stroke="black" points="519.53,-726.4 510.29,-721.21 514.28,-731.03 519.53,-726.4"/>
<text text-anchor="middle" x="542.1" y="-742.8" font-family="Helvetica" font-size="14.00">X</text>
</g>
<!-- ParameterNames -->
<g id="node3" class="node">
<title>ParameterNames</title>
<ellipse fill="khaki" stroke="black" cx="611.1" cy="-950" rx="80.69" ry="18"/>
<text text-anchor="middle" x="611.1" y="-946.3" font-family="Helvetica" font-size="14.00">ParameterNames</text>
</g>
<!-- searchForParams -->
<g id="node15" class="node">
<title>searchForParams</title>
<polygon fill="lightseagreen" stroke="black" points="660.1,-895 178.1,-895 178.1,-859 660.1,-859 660.1,-895"/>
<text text-anchor="middle" x="419.1" y="-873.3" font-family="Helvetica" font-size="14.00">searchforFitParams: Search for strings that have the given word as their suffix</text>
</g>
<!-- ParameterNames&#45;&gt;searchForParams -->
<g id="edge4" class="edge">
<title>ParameterNames&#45;&gt;searchForParams</title>
<path fill="none" stroke="black" d="M571.32,-934.29C543.47,-923.99 505.87,-910.09 475.01,-898.67"/>
<polygon fill="black" stroke="black" points="475.84,-895.25 465.25,-895.06 473.42,-901.82 475.84,-895.25"/>
</g>
<!-- XAxisUnit -->
<g id="node4" class="node">
<title>XAxisUnit</title>
<ellipse fill="khaki" stroke="black" cx="998.1" cy="-164" rx="48.99" ry="18"/>
<text text-anchor="middle" x="998.1" y="-160.3" font-family="Helvetica" font-size="14.00">XAxisUnit</text>
</g>
<!-- replaceXUnit -->
<g id="node19" class="node">
<title>replaceXUnit</title>
<polygon fill="lightseagreen" stroke="black" points="1028.6,-109 755.6,-109 755.6,-73 1028.6,-73 1028.6,-109"/>
<text text-anchor="middle" x="892.1" y="-87.3" font-family="Helvetica" font-size="14.00">Replace the x axis unit with algorithm input</text>
</g>
<!-- XAxisUnit&#45;&gt;replaceXUnit -->
<g id="edge19" class="edge">
<title>XAxisUnit&#45;&gt;replaceXUnit</title>
<path fill="none" stroke="black" d="M975.62,-147.94C961.27,-138.33 942.38,-125.67 926.19,-114.83"/>
<polygon fill="black" stroke="black" points="927.78,-111.69 917.53,-109.03 923.89,-117.5 927.78,-111.69"/>
</g>
<!-- OutputWorkspace -->
<g id="node5" class="node">
<title>OutputWorkspace</title>
<ellipse fill="khaki" stroke="black" cx="892.1" cy="-18" rx="81.49" ry="18"/>
<text text-anchor="middle" x="892.1" y="-14.3" font-family="Helvetica" font-size="14.00">OutputWorkspace</text>
</g>
<!-- currentColumnName -->
<g id="node7" class="node">
<title>currentColumnName</title>
<ellipse fill="khaki" stroke="black" cx="419.1" cy="-950" rx="92.88" ry="18"/>
<text text-anchor="middle" x="419.1" y="-946.3" font-family="Helvetica" font-size="14.00">currentColumnName</text>
</g>
<!-- allColumnNames&#45;&gt;currentColumnName -->
<g id="edge2" class="edge">
<title>allColumnNames&#45;&gt;currentColumnName</title>
<path fill="none" stroke="black" d="M593.69,-1021C558.41,-1006.85 505.35,-985.58 466.99,-970.2"/>
<polygon fill="black" stroke="black" points="468.16,-966.9 457.57,-966.42 465.55,-973.39 468.16,-966.9"/>
<text text-anchor="middle" x="664.1" y="-989.8" font-family="Helvetica" font-size="14.00">Extract ColumnName to be used in a loop</text>
</g>
<!-- currentColumnName&#45;&gt;searchForParams -->
<g id="edge3" class="edge">
<title>currentColumnName&#45;&gt;searchForParams</title>
<path fill="none" stroke="black" d="M419.1,-931.81C419.1,-923.79 419.1,-914.05 419.1,-905.07"/>
<polygon fill="black" stroke="black" points="422.6,-905.03 419.1,-895.03 415.6,-905.03 422.6,-905.03"/>
</g>
<!-- ErrorColumnName -->
<g id="node8" class="node">
<title>ErrorColumnName</title>
<ellipse fill="khaki" stroke="black" cx="419.1" cy="-790" rx="85.29" ry="18"/>
<text text-anchor="middle" x="419.1" y="-786.3" font-family="Helvetica" font-size="14.00">ErrorColumnName</text>
</g>
<!-- ErrorColumnName&#45;&gt;ConvertTableToMatrixWorkspace -->
<g id="edge9" class="edge">
<title>ErrorColumnName&#45;&gt;ConvertTableToMatrixWorkspace</title>
<path fill="none" stroke="black" d="M434.12,-772.21C445.18,-759.83 460.42,-742.8 472.89,-728.85"/>
<polygon fill="black" stroke="black" points="475.8,-730.84 479.86,-721.05 470.59,-726.17 475.8,-730.84"/>
<text text-anchor="middle" x="467.1" y="-742.8" font-family="Helvetica" font-size="14.00">E</text>
</g>
<!-- ColumnName -->
<g id="node9" class="node">
<title>ColumnName</title>
<ellipse fill="khaki" stroke="black" cx="119.1" cy="-790" rx="65.79" ry="18"/>
<text text-anchor="middle" x="119.1" y="-786.3" font-family="Helvetica" font-size="14.00">ColumnName</text>
</g>
<!-- ColumnName&#45;&gt;ConvertTableToMatrixWorkspace -->
<g id="edge8" class="edge">
<title>ColumnName&#45;&gt;ConvertTableToMatrixWorkspace</title>
<path fill="none" stroke="black" d="M168.26,-777.89C229.51,-764.04 335.18,-740.15 409.76,-723.29"/>
<polygon fill="black" stroke="black" points="410.63,-726.68 419.61,-721.07 409.09,-719.86 410.63,-726.68"/>
<text text-anchor="middle" x="335.1" y="-742.8" font-family="Helvetica" font-size="14.00">Y</text>
</g>
<!-- PeakWorkspaces -->
<g id="node10" class="node">
<title>PeakWorkspaces</title>
<ellipse fill="khaki" stroke="black" cx="787.1" cy="-383" rx="79.09" ry="18"/>
<text text-anchor="middle" x="787.1" y="-379.3" font-family="Helvetica" font-size="14.00">PeakWorkspaces</text>
</g>
<!-- conjoinPeaks -->
<g id="node17" class="node">
<title>conjoinPeaks</title>
<polygon fill="lightseagreen" stroke="black" points="964.1,-328 610.1,-328 610.1,-292 964.1,-292 964.1,-328"/>
<text text-anchor="middle" x="787.1" y="-306.3" font-family="Helvetica" font-size="14.00">Conjoin all the peak workspaces into a single workspace</text>
</g>
<!-- PeakWorkspaces&#45;&gt;conjoinPeaks -->
<g id="edge15" class="edge">
<title>PeakWorkspaces&#45;&gt;conjoinPeaks</title>
<path fill="none" stroke="black" d="M787.1,-364.81C787.1,-356.79 787.1,-347.05 787.1,-338.07"/>
<polygon fill="black" stroke="black" points="790.6,-338.03 787.1,-328.03 783.6,-338.03 790.6,-338.03"/>
</g>
<!-- WorkspaceNames -->
<g id="node11" class="node">
<title>WorkspaceNames</title>
<ellipse fill="khaki" stroke="black" cx="655.1" cy="-616" rx="83.39" ry="18"/>
<text text-anchor="middle" x="655.1" y="-612.3" font-family="Helvetica" font-size="14.00">WorkspaceNames</text>
</g>
<!-- processedAllColumns -->
<g id="node14" class="node">
<title>processedAllColumns</title>
<polygon fill="limegreen" stroke="black" points="787.1,-561 625.56,-543 787.1,-525 948.65,-543 787.1,-561"/>
<text text-anchor="middle" x="787.1" y="-539.3" font-family="Helvetica" font-size="14.00">All columns to workspaces</text>
</g>
<!-- WorkspaceNames&#45;&gt;processedAllColumns -->
<g id="edge11" class="edge">
<title>WorkspaceNames&#45;&gt;processedAllColumns</title>
<path fill="none" stroke="black" d="M684.73,-599.07C704.59,-588.38 730.85,-574.26 751.8,-562.99"/>
<polygon fill="black" stroke="black" points="753.56,-566.02 760.71,-558.2 750.25,-559.85 753.56,-566.02"/>
</g>
<!-- ConvertTableToMatrixWorkspace&#45;&gt;WorkspaceNames -->
<g id="edge10" class="edge">
<title>ConvertTableToMatrixWorkspace&#45;&gt;WorkspaceNames</title>
<path fill="none" stroke="black" d="M522.31,-684.82C538.55,-674.81 559.73,-662.19 579.1,-652 589.05,-646.77 599.92,-641.51 610.25,-636.71"/>
<polygon fill="black" stroke="black" points="611.91,-639.79 619.54,-632.44 608.99,-633.43 611.91,-639.79"/>
<text text-anchor="middle" x="704.1" y="-655.8" font-family="Helvetica" font-size="14.00">Vector to store workspaces for Conjoining</text>
</g>
<!-- RenameWorkspace -->
<g id="node13" class="node">
<title>RenameWorkspace</title>
<path fill="lightskyblue" stroke="black" d="M843.1,-255C843.1,-255 731.1,-255 731.1,-255 725.1,-255 719.1,-249 719.1,-243 719.1,-243 719.1,-231 719.1,-231 719.1,-225 725.1,-219 731.1,-219 731.1,-219 843.1,-219 843.1,-219 849.1,-219 855.1,-225 855.1,-231 855.1,-231 855.1,-243 855.1,-243 855.1,-249 849.1,-255 843.1,-255"/>
<text text-anchor="middle" x="787.1" y="-233.3" font-family="Helvetica" font-size="14.00">RenameWorkspace</text>
</g>
<!-- replaceXAxis -->
<g id="node18" class="node">
<title>replaceXAxis</title>
<polygon fill="lightseagreen" stroke="black" points="931.1,-182 643.1,-182 643.1,-146 931.1,-146 931.1,-182"/>
<text text-anchor="middle" x="787.1" y="-160.3" font-family="Helvetica" font-size="14.00">Replace the x axis with the parameter names</text>
</g>
<!-- RenameWorkspace&#45;&gt;replaceXAxis -->
<g id="edge17" class="edge">
<title>RenameWorkspace&#45;&gt;replaceXAxis</title>
<path fill="none" stroke="black" d="M787.1,-218.81C787.1,-210.79 787.1,-201.05 787.1,-192.07"/>
<polygon fill="black" stroke="black" points="790.6,-192.03 787.1,-182.03 783.6,-192.03 790.6,-192.03"/>
</g>
<!-- processedAllColumns&#45;&gt;allColumnNames -->
<g id="edge12" class="edge">
<title>processedAllColumns&#45;&gt;allColumnNames</title>
<path fill="none" stroke="black" d="M808.59,-558.84C824.39,-571.67 843.1,-591.77 843.1,-615 843.1,-951 843.1,-951 843.1,-951 843.1,-1007.42 777.63,-1027.38 719.45,-1033.98"/>
<polygon fill="black" stroke="black" points="719.04,-1030.5 709.44,-1035 719.75,-1037.47 719.04,-1030.5"/>
<text text-anchor="middle" x="852.1" y="-786.3" font-family="Helvetica" font-size="14.00">No</text>
</g>
<!-- conjoinParams -->
<g id="node16" class="node">
<title>conjoinParams</title>
<polygon fill="lightseagreen" stroke="black" points="1061.1,-474 513.1,-474 513.1,-438 1061.1,-438 1061.1,-474"/>
<text text-anchor="middle" x="787.1" y="-452.3" font-family="Helvetica" font-size="14.00">Conjoin all the workspaces that are about the same peak (Could be multiple Lorentzians)</text>
</g>
<!-- processedAllColumns&#45;&gt;conjoinParams -->
<g id="edge13" class="edge">
<title>processedAllColumns&#45;&gt;conjoinParams</title>
<path fill="none" stroke="black" d="M787.1,-524.8C787.1,-513.16 787.1,-497.55 787.1,-484.24"/>
<polygon fill="black" stroke="black" points="790.6,-484.18 787.1,-474.18 783.6,-484.18 790.6,-484.18"/>
<text text-anchor="middle" x="798.6" y="-495.8" font-family="Helvetica" font-size="14.00">Yes</text>
</g>
<!-- searchForParams&#45;&gt;ErrorColumnName -->
<g id="edge6" class="edge">
<title>searchForParams&#45;&gt;ErrorColumnName</title>
<path fill="none" stroke="black" d="M419.1,-858.8C419.1,-847.16 419.1,-831.55 419.1,-818.24"/>
<polygon fill="black" stroke="black" points="422.6,-818.18 419.1,-808.18 415.6,-818.18 422.6,-818.18"/>
<text text-anchor="middle" x="623.6" y="-829.8" font-family="Helvetica" font-size="14.00">Corresponding errors for currentColumnName from tableWorkspace</text>
</g>
<!-- searchForParams&#45;&gt;ColumnName -->
<g id="edge5" class="edge">
<title>searchForParams&#45;&gt;ColumnName</title>
<path fill="none" stroke="black" d="M178.07,-868.79C94.98,-863.79 19.26,-855.32 6.1,-841 -12.85,-820.37 16.95,-807.77 50.69,-800.39"/>
<polygon fill="black" stroke="black" points="51.64,-803.76 60.75,-798.35 50.25,-796.9 51.64,-803.76"/>
<text text-anchor="middle" x="210.6" y="-829.8" font-family="Helvetica" font-size="14.00">Corresponding name for currentColumnName from tableWorkspace</text>
</g>
<!-- conjoinParams&#45;&gt;PeakWorkspaces -->
<g id="edge14" class="edge">
<title>conjoinParams&#45;&gt;PeakWorkspaces</title>
<path fill="none" stroke="black" d="M787.1,-437.81C787.1,-429.79 787.1,-420.05 787.1,-411.07"/>
<polygon fill="black" stroke="black" points="790.6,-411.03 787.1,-401.03 783.6,-411.03 790.6,-411.03"/>
</g>
<!-- conjoinPeaks&#45;&gt;RenameWorkspace -->
<g id="edge16" class="edge">
<title>conjoinPeaks&#45;&gt;RenameWorkspace</title>
<path fill="none" stroke="black" d="M787.1,-291.81C787.1,-283.79 787.1,-274.05 787.1,-265.07"/>
<polygon fill="black" stroke="black" points="790.6,-265.03 787.1,-255.03 783.6,-265.03 790.6,-265.03"/>
</g>
<!-- replaceXAxis&#45;&gt;replaceXUnit -->
<g id="edge18" class="edge">
<title>replaceXAxis&#45;&gt;replaceXUnit</title>
<path fill="none" stroke="black" d="M812.25,-145.99C826.05,-136.67 843.34,-124.97 858.3,-114.86"/>
<polygon fill="black" stroke="black" points="860.47,-117.61 866.8,-109.11 856.55,-111.82 860.47,-117.61"/>
</g>
<!-- replaceXUnit&#45;&gt;OutputWorkspace -->
<g id="edge20" class="edge">
<title>replaceXUnit&#45;&gt;OutputWorkspace</title>
<path fill="none" stroke="black" d="M892.1,-72.81C892.1,-64.79 892.1,-55.05 892.1,-46.07"/>
<polygon fill="black" stroke="black" points="895.6,-46.03 892.1,-36.03 888.6,-46.03 895.6,-46.03"/>
</g>
</g>
</svg>
