<?xml version="1.0" encoding="UTF-8" standalone="no"?>
<!DOCTYPE svg PUBLIC "-//W3C//DTD SVG 1.1//EN"
 "http://www.w3.org/Graphics/SVG/1.1/DTD/svg11.dtd">
<!-- Generated by graphviz version 7.0.5 (20221231.0122)
 -->
<!-- Title: QENSFitSimultaneous Pages: 1 -->
<svg width="3342pt" height="695pt"
 viewBox="0.00 0.00 3341.89 695.00" xmlns="http://www.w3.org/2000/svg" xmlns:xlink="http://www.w3.org/1999/xlink">
<g id="graph0" class="graph" transform="scale(1 1) rotate(0) translate(4 691)">
<title>QENSFitSimultaneous</title>
<polygon fill="white" stroke="none" points="-4,4 -4,-691 3337.89,-691 3337.89,4 -4,4"/>
<text text-anchor="middle" x="1666.95" y="-671.8" font-family="Helvetica,sans-Serif" font-size="14.00">QENSFitSimultaneous Flowchart</text>
<!-- InputWorkspace -->
<g id="node1" class="node">
<title>InputWorkspace</title>
<ellipse fill="khaki" stroke="black" cx="336.39" cy="-622.5" rx="84.49" ry="18"/>
<text text-anchor="middle" x="336.39" y="-618.8" font-family="Helvetica,sans-Serif" font-size="14.00">InputWorkspace</text>
</g>
<!-- ConvertSpectrumAxis -->
<g id="node27" class="node">
<title>ConvertSpectrumAxis</title>
<path fill="lightskyblue" stroke="black" d="M173.39,-530C173.39,-530 29.39,-530 29.39,-530 23.39,-530 17.39,-524 17.39,-518 17.39,-518 17.39,-506 17.39,-506 17.39,-500 23.39,-494 29.39,-494 29.39,-494 173.39,-494 173.39,-494 179.39,-494 185.39,-500 185.39,-506 185.39,-506 185.39,-518 185.39,-518 185.39,-524 179.39,-530 173.39,-530"/>
<text text-anchor="middle" x="101.39" y="-508.3" font-family="Helvetica,sans-Serif" font-size="14.00">ConvertSpectrumAxis</text>
</g>
<!-- InputWorkspace&#45;&gt;ConvertSpectrumAxis -->
<g id="edge7" class="edge">
<title>InputWorkspace&#45;&gt;ConvertSpectrumAxis</title>
<path fill="none" stroke="black" d="M263.82,-613.01C202.82,-604.21 122.45,-588.17 102.39,-563 97.58,-556.96 95.99,-549.08 95.96,-541.36"/>
<polygon fill="black" stroke="black" points="99.44,-541.81 96.79,-531.55 92.46,-541.22 99.44,-541.81"/>
<text text-anchor="middle" x="212.39" y="-551.8" font-family="Helvetica,sans-Serif" font-size="14.00">Attempt conversion to Elastic Q</text>
</g>
<!-- Fit -->
<g id="node28" class="node">
<title>Fit</title>
<path fill="lightskyblue" stroke="black" d="M1258.39,-443C1258.39,-443 1228.39,-443 1228.39,-443 1222.39,-443 1216.39,-437 1216.39,-431 1216.39,-431 1216.39,-419 1216.39,-419 1216.39,-413 1222.39,-407 1228.39,-407 1228.39,-407 1258.39,-407 1258.39,-407 1264.39,-407 1270.39,-413 1270.39,-419 1270.39,-419 1270.39,-431 1270.39,-431 1270.39,-437 1264.39,-443 1258.39,-443"/>
<text text-anchor="middle" x="1243.39" y="-421.3" font-family="Helvetica,sans-Serif" font-size="14.00">Fit</text>
</g>
<!-- InputWorkspace&#45;&gt;Fit -->
<g id="edge9" class="edge">
<title>InputWorkspace&#45;&gt;Fit</title>
<path fill="none" stroke="black" d="M338.47,-604.36C342.92,-576.01 356.19,-519.93 393.39,-494 460.64,-447.13 1047.75,-430.46 1204.86,-426.82"/>
<polygon fill="black" stroke="black" points="1204.82,-430.32 1214.74,-426.6 1204.66,-423.32 1204.82,-430.32"/>
</g>
<!-- CopyLogs -->
<g id="node32" class="node">
<title>CopyLogs</title>
<path fill="lightskyblue" stroke="black" d="M546.39,-109C546.39,-109 486.39,-109 486.39,-109 480.39,-109 474.39,-103 474.39,-97 474.39,-97 474.39,-85 474.39,-85 474.39,-79 480.39,-73 486.39,-73 486.39,-73 546.39,-73 546.39,-73 552.39,-73 558.39,-79 558.39,-85 558.39,-85 558.39,-97 558.39,-97 558.39,-103 552.39,-109 546.39,-109"/>
<text text-anchor="middle" x="516.39" y="-87.3" font-family="Helvetica,sans-Serif" font-size="14.00">CopyLogs</text>
</g>
<!-- InputWorkspace&#45;&gt;CopyLogs -->
<g id="edge30" class="edge">
<title>InputWorkspace&#45;&gt;CopyLogs</title>
<path fill="none" stroke="black" d="M346.38,-604.48C357.63,-583.64 374.39,-546.93 374.39,-513 374.39,-513 374.39,-513 374.39,-163 374.39,-121.9 422.58,-104.59 462.81,-97.3"/>
<polygon fill="black" stroke="black" points="463.37,-100.76 472.68,-95.7 462.25,-93.85 463.37,-100.76"/>
</g>
<!-- do_extract_members -->
<g id="node34" class="node">
<title>do_extract_members</title>
<polygon fill="limegreen" stroke="black" points="1902.39,-269 1749.73,-251 1902.39,-233 2055.05,-251 1902.39,-269"/>
<text text-anchor="middle" x="1902.39" y="-247.3" font-family="Helvetica,sans-Serif" font-size="14.00">Do Extract Members?</text>
</g>
<!-- InputWorkspace&#45;&gt;do_extract_members -->
<g id="edge39" class="edge">
<title>InputWorkspace&#45;&gt;do_extract_members</title>
<path fill="none" stroke="black" d="M420.47,-620.23C742.31,-614.95 1885.5,-591.94 2035.39,-530 2045.86,-525.67 2054.39,-524.33 2054.39,-513 2054.39,-513 2054.39,-513 2054.39,-337 2054.39,-297.62 2015.04,-276.31 1976.38,-264.87"/>
<polygon fill="black" stroke="black" points="1977.56,-261.57 1966.99,-262.3 1975.71,-268.32 1977.56,-261.57"/>
</g>
<!-- FitFunction -->
<g id="node36" class="node">
<title>FitFunction</title>
<ellipse fill="lightgrey" stroke="black" cx="2142.39" cy="-512" rx="59.59" ry="18"/>
<text text-anchor="middle" x="2142.39" y="-508.3" font-family="Helvetica,sans-Serif" font-size="14.00">FitFunction</text>
</g>
<!-- InputWorkspace&#45;&gt;FitFunction -->
<g id="edge1" class="edge">
<title>InputWorkspace&#45;&gt;FitFunction</title>
<path fill="none" stroke="black" d="M252.31,-620.1C162.93,-615.91 41.12,-600.76 93.39,-548 112.38,-528.84 2008.51,-532.25 2035.39,-530 2050.48,-528.74 2066.65,-526.59 2081.74,-524.24"/>
<polygon fill="black" stroke="black" points="2082.23,-527.7 2091.54,-522.65 2081.11,-520.79 2082.23,-527.7"/>
</g>
<!-- Input -->
<g id="node2" class="node">
<title>Input</title>
<ellipse fill="khaki" stroke="black" cx="1997.39" cy="-622.5" rx="34.39" ry="18"/>
<text text-anchor="middle" x="1997.39" y="-618.8" font-family="Helvetica,sans-Serif" font-size="14.00">Input</text>
</g>
<!-- Input&#45;&gt;FitFunction -->
<g id="edge2" class="edge">
<title>Input&#45;&gt;FitFunction</title>
<path fill="none" stroke="black" d="M2012.77,-606.28C2020.99,-598.41 2031.45,-588.85 2041.39,-581 2062.54,-564.3 2087.67,-547.38 2107.57,-534.59"/>
<polygon fill="black" stroke="black" points="2109.33,-537.61 2115.89,-529.29 2105.57,-531.71 2109.33,-537.61"/>
</g>
<!-- FitParameters -->
<g id="node3" class="node">
<title>FitParameters</title>
<ellipse fill="khaki" stroke="black" cx="2123.39" cy="-622.5" rx="73.39" ry="18"/>
<text text-anchor="middle" x="2123.39" y="-618.8" font-family="Helvetica,sans-Serif" font-size="14.00">FitParameters</text>
</g>
<!-- FitParameters&#45;&gt;FitFunction -->
<g id="edge4" class="edge">
<title>FitParameters&#45;&gt;FitFunction</title>
<path fill="none" stroke="black" d="M2126.44,-604.07C2129.39,-587.22 2133.91,-561.41 2137.39,-541.56"/>
<polygon fill="black" stroke="black" points="2140.81,-542.33 2139.08,-531.88 2133.91,-541.13 2140.81,-542.33"/>
</g>
<!-- Function -->
<g id="node4" class="node">
<title>Function</title>
<ellipse fill="khaki" stroke="black" cx="2263.39" cy="-622.5" rx="48.99" ry="18"/>
<text text-anchor="middle" x="2263.39" y="-618.8" font-family="Helvetica,sans-Serif" font-size="14.00">Function</text>
</g>
<!-- Function&#45;&gt;FitFunction -->
<g id="edge3" class="edge">
<title>Function&#45;&gt;FitFunction</title>
<path fill="none" stroke="black" d="M2245.54,-605.49C2225.37,-587.41 2192.33,-557.78 2169.09,-536.94"/>
<polygon fill="black" stroke="black" points="2171.62,-534.51 2161.84,-530.44 2166.95,-539.72 2171.62,-534.51"/>
</g>
<!-- StartX -->
<g id="node5" class="node">
<title>StartX</title>
<ellipse fill="khaki" stroke="black" cx="441.39" cy="-512" rx="38.99" ry="18"/>
<text text-anchor="middle" x="441.39" y="-508.3" font-family="Helvetica,sans-Serif" font-size="14.00">StartX</text>
</g>
<!-- StartX&#45;&gt;Fit -->
<g id="edge11" class="edge">
<title>StartX&#45;&gt;Fit</title>
<path fill="none" stroke="black" d="M470.87,-499.77C476.94,-497.68 483.33,-495.64 489.39,-494 564.95,-473.54 584.72,-470.71 662.39,-461 865.56,-435.61 1111.08,-428.49 1204.64,-426.62"/>
<polygon fill="black" stroke="black" points="1204.61,-430.12 1214.54,-426.43 1204.47,-423.12 1204.61,-430.12"/>
</g>
<!-- EndX -->
<g id="node6" class="node">
<title>EndX</title>
<ellipse fill="khaki" stroke="black" cx="532.39" cy="-512" rx="34.39" ry="18"/>
<text text-anchor="middle" x="532.39" y="-508.3" font-family="Helvetica,sans-Serif" font-size="14.00">EndX</text>
</g>
<!-- EndX&#45;&gt;Fit -->
<g id="edge12" class="edge">
<title>EndX&#45;&gt;Fit</title>
<path fill="none" stroke="black" d="M558.08,-499.76C564,-497.54 570.34,-495.45 576.39,-494 810.22,-437.98 1100.98,-428.09 1204.55,-426.36"/>
<polygon fill="black" stroke="black" points="1204.49,-429.86 1214.44,-426.21 1204.39,-422.86 1204.49,-429.86"/>
</g>
<!-- SpecMin -->
<g id="node7" class="node">
<title>SpecMin</title>
<ellipse fill="khaki" stroke="black" cx="2378.39" cy="-622.5" rx="48.99" ry="18"/>
<text text-anchor="middle" x="2378.39" y="-618.8" font-family="Helvetica,sans-Serif" font-size="14.00">SpecMin</text>
</g>
<!-- SpecMin&#45;&gt;FitFunction -->
<g id="edge5" class="edge">
<title>SpecMin&#45;&gt;FitFunction</title>
<path fill="none" stroke="black" d="M2358.63,-605.56C2348.01,-597.5 2334.46,-587.98 2321.39,-581 2280.46,-559.15 2230.96,-540.91 2194.4,-528.84"/>
<polygon fill="black" stroke="black" points="2195.52,-525.53 2184.93,-525.77 2193.36,-532.19 2195.52,-525.53"/>
</g>
<!-- SpecMax -->
<g id="node8" class="node">
<title>SpecMax</title>
<ellipse fill="khaki" stroke="black" cx="2496.39" cy="-622.5" rx="51.19" ry="18"/>
<text text-anchor="middle" x="2496.39" y="-618.8" font-family="Helvetica,sans-Serif" font-size="14.00">SpecMax</text>
</g>
<!-- SpecMax&#45;&gt;FitFunction -->
<g id="edge6" class="edge">
<title>SpecMax&#45;&gt;FitFunction</title>
<path fill="none" stroke="black" d="M2476.65,-605.46C2465.44,-597.07 2450.8,-587.27 2436.39,-581 2361.66,-548.47 2269.19,-530.37 2208.13,-521.17"/>
<polygon fill="black" stroke="black" points="2209.01,-517.76 2198.61,-519.77 2207.99,-524.68 2209.01,-517.76"/>
</g>
<!-- ConvolveMembers -->
<g id="node9" class="node">
<title>ConvolveMembers</title>
<ellipse fill="khaki" stroke="black" cx="679.39" cy="-512" rx="94.48" ry="18"/>
<text text-anchor="middle" x="679.39" y="-508.3" font-family="Helvetica,sans-Serif" font-size="14.00">ConvolveMembers</text>
</g>
<!-- ConvolveMembers&#45;&gt;Fit -->
<g id="edge13" class="edge">
<title>ConvolveMembers&#45;&gt;Fit</title>
<path fill="none" stroke="black" d="M748.62,-499.41C759.9,-497.57 771.47,-495.71 782.39,-494 938.82,-469.56 1125.49,-442.75 1204.75,-431.47"/>
<polygon fill="black" stroke="black" points="1205.18,-434.95 1214.59,-430.07 1204.2,-428.02 1205.18,-434.95"/>
</g>
<!-- ExtractMembers -->
<g id="node10" class="node">
<title>ExtractMembers</title>
<ellipse fill="khaki" stroke="black" cx="1902.39" cy="-338" rx="85.29" ry="18"/>
<text text-anchor="middle" x="1902.39" y="-334.3" font-family="Helvetica,sans-Serif" font-size="14.00">ExtractMembers</text>
</g>
<!-- ExtractMembers&#45;&gt;do_extract_members -->
<g id="edge37" class="edge">
<title>ExtractMembers&#45;&gt;do_extract_members</title>
<path fill="none" stroke="black" d="M1902.39,-319.8C1902.39,-308.58 1902.39,-293.67 1902.39,-280.69"/>
<polygon fill="black" stroke="black" points="1905.89,-280.98 1902.39,-270.98 1898.89,-280.98 1905.89,-280.98"/>
</g>
<!-- PassWSIndexToFunction -->
<g id="node11" class="node">
<title>PassWSIndexToFunction</title>
<ellipse fill="khaki" stroke="black" cx="910.39" cy="-512" rx="118.88" ry="18"/>
<text text-anchor="middle" x="910.39" y="-508.3" font-family="Helvetica,sans-Serif" font-size="14.00">PassWSIndexToFunction</text>
</g>
<!-- PassWSIndexToFunction&#45;&gt;Fit -->
<g id="edge19" class="edge">
<title>PassWSIndexToFunction&#45;&gt;Fit</title>
<path fill="none" stroke="black" d="M969.16,-496C1037.25,-478.62 1147.47,-450.48 1205.26,-435.73"/>
<polygon fill="black" stroke="black" points="1205.8,-439.21 1214.62,-433.34 1204.07,-432.42 1205.8,-439.21"/>
</g>
<!-- Minimizer -->
<g id="node12" class="node">
<title>Minimizer</title>
<ellipse fill="khaki" stroke="black" cx="1102.39" cy="-512" rx="54.69" ry="18"/>
<text text-anchor="middle" x="1102.39" y="-508.3" font-family="Helvetica,sans-Serif" font-size="14.00">Minimizer</text>
</g>
<!-- Minimizer&#45;&gt;Fit -->
<g id="edge15" class="edge">
<title>Minimizer&#45;&gt;Fit</title>
<path fill="none" stroke="black" d="M1127.93,-495.61C1149.83,-482.4 1181.66,-463.21 1206.36,-448.32"/>
<polygon fill="black" stroke="black" points="1208.07,-451.38 1214.83,-443.22 1204.46,-445.39 1208.07,-451.38"/>
</g>
<!-- CostFunction -->
<g id="node13" class="node">
<title>CostFunction</title>
<ellipse fill="khaki" stroke="black" cx="1243.39" cy="-512" rx="68.79" ry="18"/>
<text text-anchor="middle" x="1243.39" y="-508.3" font-family="Helvetica,sans-Serif" font-size="14.00">CostFunction</text>
</g>
<!-- CostFunction&#45;&gt;Fit -->
<g id="edge16" class="edge">
<title>CostFunction&#45;&gt;Fit</title>
<path fill="none" stroke="black" d="M1243.39,-493.8C1243.39,-482.58 1243.39,-467.67 1243.39,-454.69"/>
<polygon fill="black" stroke="black" points="1246.89,-454.98 1243.39,-444.98 1239.89,-454.98 1246.89,-454.98"/>
</g>
<!-- MaxIterations -->
<g id="node14" class="node">
<title>MaxIterations</title>
<ellipse fill="khaki" stroke="black" cx="1402.39" cy="-512" rx="72.29" ry="18"/>
<text text-anchor="middle" x="1402.39" y="-508.3" font-family="Helvetica,sans-Serif" font-size="14.00">MaxIterations</text>
</g>
<!-- MaxIterations&#45;&gt;Fit -->
<g id="edge14" class="edge">
<title>MaxIterations&#45;&gt;Fit</title>
<path fill="none" stroke="black" d="M1372.86,-495.21C1346.78,-481.27 1308.65,-460.89 1280.51,-445.85"/>
<polygon fill="black" stroke="black" points="1282.45,-442.91 1271.98,-441.28 1279.15,-449.08 1282.45,-442.91"/>
</g>
<!-- PeakRadius -->
<g id="node15" class="node">
<title>PeakRadius</title>
<ellipse fill="khaki" stroke="black" cx="1555.39" cy="-512" rx="63.09" ry="18"/>
<text text-anchor="middle" x="1555.39" y="-508.3" font-family="Helvetica,sans-Serif" font-size="14.00">PeakRadius</text>
</g>
<!-- PeakRadius&#45;&gt;Fit -->
<g id="edge17" class="edge">
<title>PeakRadius&#45;&gt;Fit</title>
<path fill="none" stroke="black" d="M1511.02,-498.91C1449.51,-482.15 1339.37,-452.15 1281.42,-436.36"/>
<polygon fill="black" stroke="black" points="1282.59,-433.05 1272.02,-433.8 1280.75,-439.81 1282.59,-433.05"/>
</g>
<!-- EvaluationType -->
<g id="node16" class="node">
<title>EvaluationType</title>
<ellipse fill="khaki" stroke="black" cx="1715.39" cy="-512" rx="79.09" ry="18"/>
<text text-anchor="middle" x="1715.39" y="-508.3" font-family="Helvetica,sans-Serif" font-size="14.00">EvaluationType</text>
</g>
<!-- EvaluationType&#45;&gt;Fit -->
<g id="edge20" class="edge">
<title>EvaluationType&#45;&gt;Fit</title>
<path fill="none" stroke="black" d="M1656.72,-499.53C1646.93,-497.66 1636.88,-495.76 1627.39,-494 1501.21,-470.64 1351.38,-444.6 1282.09,-432.65"/>
<polygon fill="black" stroke="black" points="1282.83,-429.22 1272.38,-430.98 1281.64,-436.12 1282.83,-429.22"/>
</g>
<!-- Exclude -->
<g id="node17" class="node">
<title>Exclude</title>
<ellipse fill="khaki" stroke="black" cx="1858.39" cy="-512" rx="46.29" ry="18"/>
<text text-anchor="middle" x="1858.39" y="-508.3" font-family="Helvetica,sans-Serif" font-size="14.00">Exclude</text>
</g>
<!-- Exclude&#45;&gt;Fit -->
<g id="edge21" class="edge">
<title>Exclude&#45;&gt;Fit</title>
<path fill="none" stroke="black" d="M1824.31,-499.43C1817.45,-497.39 1810.23,-495.46 1803.39,-494 1610.21,-452.76 1373.82,-434.29 1282.22,-428.31"/>
<polygon fill="black" stroke="black" points="1282.49,-424.82 1272.29,-427.68 1282.04,-431.81 1282.49,-424.82"/>
</g>
<!-- LogValue -->
<g id="node18" class="node">
<title>LogValue</title>
<ellipse fill="khaki" stroke="black" cx="1974.39" cy="-512" rx="51.99" ry="18"/>
<text text-anchor="middle" x="1974.39" y="-508.3" font-family="Helvetica,sans-Serif" font-size="14.00">LogValue</text>
</g>
<!-- LogValue&#45;&gt;Fit -->
<g id="edge18" class="edge">
<title>LogValue&#45;&gt;Fit</title>
<path fill="none" stroke="black" d="M1936.19,-499.5C1928.67,-497.48 1920.82,-495.54 1913.39,-494 1676.89,-445.02 1385.82,-430.81 1282.23,-427.15"/>
<polygon fill="black" stroke="black" points="1282.45,-423.65 1272.33,-426.81 1282.21,-430.65 1282.45,-423.65"/>
</g>
<!-- ParameterTable -->
<g id="node19" class="node">
<title>ParameterTable</title>
<ellipse fill="khaki" stroke="black" cx="1243.39" cy="-338" rx="81.49" ry="18"/>
<text text-anchor="middle" x="1243.39" y="-334.3" font-family="Helvetica,sans-Serif" font-size="14.00">ParameterTable</text>
</g>
<!-- ProcessIndirectFitParameters -->
<g id="node31" class="node">
<title>ProcessIndirectFitParameters</title>
<path fill="lightskyblue" stroke="black" d="M746.39,-269C746.39,-269 552.39,-269 552.39,-269 546.39,-269 540.39,-263 540.39,-257 540.39,-257 540.39,-245 540.39,-245 540.39,-239 546.39,-233 552.39,-233 552.39,-233 746.39,-233 746.39,-233 752.39,-233 758.39,-239 758.39,-245 758.39,-245 758.39,-257 758.39,-257 758.39,-263 752.39,-269 746.39,-269"/>
<text text-anchor="middle" x="649.39" y="-247.3" font-family="Helvetica,sans-Serif" font-size="14.00">ProcessIndirectFitParameters</text>
</g>
<!-- ParameterTable&#45;&gt;ProcessIndirectFitParameters -->
<g id="edge27" class="edge">
<title>ParameterTable&#45;&gt;ProcessIndirectFitParameters</title>
<path fill="none" stroke="black" d="M1237.99,-319.99C1233.39,-308.55 1225.55,-294.27 1213.39,-287 1177.4,-265.47 878.23,-271.9 836.39,-269 814.93,-267.51 792.1,-265.66 770.05,-263.74"/>
<polygon fill="black" stroke="black" points="770.37,-260.25 760.1,-262.86 769.75,-267.22 770.37,-260.25"/>
</g>
<!-- RenameWorkspace -->
<g id="node33" class="node">
<title>RenameWorkspace</title>
<path fill="lightskyblue" stroke="black" d="M1479.39,-269C1479.39,-269 1353.39,-269 1353.39,-269 1347.39,-269 1341.39,-263 1341.39,-257 1341.39,-257 1341.39,-245 1341.39,-245 1341.39,-239 1347.39,-233 1353.39,-233 1353.39,-233 1479.39,-233 1479.39,-233 1485.39,-233 1491.39,-239 1491.39,-245 1491.39,-245 1491.39,-257 1491.39,-257 1491.39,-263 1485.39,-269 1479.39,-269"/>
<text text-anchor="middle" x="1416.39" y="-247.3" font-family="Helvetica,sans-Serif" font-size="14.00">RenameWorkspace</text>
</g>
<!-- ParameterTable&#45;&gt;RenameWorkspace -->
<g id="edge35" class="edge">
<title>ParameterTable&#45;&gt;RenameWorkspace</title>
<path fill="none" stroke="black" d="M1243.86,-319.89C1245.09,-309.01 1248.48,-295.42 1257.39,-287 1268.55,-276.45 1298.9,-268.55 1330.12,-262.95"/>
<polygon fill="black" stroke="black" points="1330.41,-266.45 1339.68,-261.32 1329.24,-259.55 1330.41,-266.45"/>
<text text-anchor="middle" x="1402.39" y="-290.8" font-family="Helvetica,sans-Serif" font-size="14.00">Change name to expected name for table</text>
</g>
<!-- FitWorkspaces -->
<g id="node20" class="node">
<title>FitWorkspaces</title>
<ellipse fill="khaki" stroke="black" cx="1573.39" cy="-338" rx="76.09" ry="18"/>
<text text-anchor="middle" x="1573.39" y="-334.3" font-family="Helvetica,sans-Serif" font-size="14.00">FitWorkspaces</text>
</g>
<!-- FitWorkspaces&#45;&gt;RenameWorkspace -->
<g id="edge36" class="edge">
<title>FitWorkspaces&#45;&gt;RenameWorkspace</title>
<path fill="none" stroke="black" d="M1569.9,-319.85C1566.81,-308.95 1561.21,-295.36 1551.39,-287 1537.57,-275.24 1520.27,-267.37 1502.72,-262.11"/>
<polygon fill="black" stroke="black" points="1503.81,-258.78 1493.24,-259.56 1501.99,-265.54 1503.81,-258.78"/>
<text text-anchor="middle" x="1673.89" y="-290.8" font-family="Helvetica,sans-Serif" font-size="14.00">Renames to match input names</text>
</g>
<!-- FitWorkspaces&#45;&gt;do_extract_members -->
<g id="edge38" class="edge">
<title>FitWorkspaces&#45;&gt;do_extract_members</title>
<path fill="none" stroke="black" d="M1642.98,-330.31C1685.82,-325.06 1741.5,-316.22 1789.39,-302 1815.72,-294.18 1843.99,-281.68 1865.66,-271.13"/>
<polygon fill="black" stroke="black" points="1866.97,-274.38 1874.37,-266.81 1863.86,-268.11 1866.97,-274.38"/>
</g>
<!-- NormalisedCovarianceWorkspace -->
<g id="node21" class="node">
<title>NormalisedCovarianceWorkspace</title>
<ellipse fill="khaki" stroke="black" cx="960.39" cy="-338" rx="161.67" ry="18"/>
<text text-anchor="middle" x="960.39" y="-334.3" font-family="Helvetica,sans-Serif" font-size="14.00">NormalisedCovarianceWorkspace</text>
</g>
<!-- DeleteWorkspace -->
<g id="node29" class="node">
<title>DeleteWorkspace</title>
<path fill="lightskyblue" stroke="black" d="M970.89,-269C970.89,-269 857.89,-269 857.89,-269 851.89,-269 845.89,-263 845.89,-257 845.89,-257 845.89,-245 845.89,-245 845.89,-239 851.89,-233 857.89,-233 857.89,-233 970.89,-233 970.89,-233 976.89,-233 982.89,-239 982.89,-245 982.89,-245 982.89,-257 982.89,-257 982.89,-263 976.89,-269 970.89,-269"/>
<text text-anchor="middle" x="914.39" y="-247.3" font-family="Helvetica,sans-Serif" font-size="14.00">DeleteWorkspace</text>
</g>
<!-- NormalisedCovarianceWorkspace&#45;&gt;DeleteWorkspace -->
<g id="edge25" class="edge">
<title>NormalisedCovarianceWorkspace&#45;&gt;DeleteWorkspace</title>
<path fill="none" stroke="black" d="M950.28,-319.63C947.07,-314.03 943.54,-307.78 940.39,-302 936.42,-294.73 932.24,-286.8 928.41,-279.44"/>
<polygon fill="black" stroke="black" points="931.52,-277.84 923.82,-270.56 925.3,-281.05 931.52,-277.84"/>
<text text-anchor="middle" x="1089.39" y="-290.8" font-family="Helvetica,sans-Serif" font-size="14.00">Unrequired product of PlotPeakByLogValue</text>
</g>
<!-- ParameterNames -->
<g id="node22" class="node">
<title>ParameterNames</title>
<ellipse fill="khaki" stroke="black" cx="649.39" cy="-338" rx="89.08" ry="18"/>
<text text-anchor="middle" x="649.39" y="-334.3" font-family="Helvetica,sans-Serif" font-size="14.00">ParameterNames</text>
</g>
<!-- ParameterNames&#45;&gt;ProcessIndirectFitParameters -->
<g id="edge28" class="edge">
<title>ParameterNames&#45;&gt;ProcessIndirectFitParameters</title>
<path fill="none" stroke="black" d="M649.39,-319.8C649.39,-308.58 649.39,-293.67 649.39,-280.69"/>
<polygon fill="black" stroke="black" points="652.89,-280.98 649.39,-270.98 645.89,-280.98 652.89,-280.98"/>
</g>
<!-- OutputWorkspace -->
<g id="node23" class="node">
<title>OutputWorkspace</title>
<ellipse fill="khaki" stroke="black" cx="516.39" cy="-18" rx="92.08" ry="18"/>
<text text-anchor="middle" x="516.39" y="-14.3" font-family="Helvetica,sans-Serif" font-size="14.00">OutputWorkspace</text>
</g>
<!-- OutputParameterWorkspace -->
<g id="node24" class="node">
<title>OutputParameterWorkspace</title>
<ellipse fill="khaki" stroke="black" cx="2704.39" cy="-622.5" rx="139.18" ry="18"/>
<text text-anchor="middle" x="2704.39" y="-618.8" font-family="Helvetica,sans-Serif" font-size="14.00">OutputParameterWorkspace</text>
</g>
<!-- OutputWorkspaceGroup -->
<g id="node25" class="node">
<title>OutputWorkspaceGroup</title>
<ellipse fill="khaki" stroke="black" cx="2981.39" cy="-622.5" rx="119.68" ry="18"/>
<text text-anchor="middle" x="2981.39" y="-618.8" font-family="Helvetica,sans-Serif" font-size="14.00">OutputWorkspaceGroup</text>
</g>
<!-- SampleLog -->
<g id="node26" class="node">
<title>SampleLog</title>
<ellipse fill="khaki" stroke="black" cx="468.39" cy="-164" rx="60.39" ry="18"/>
<text text-anchor="middle" x="468.39" y="-160.3" font-family="Helvetica,sans-Serif" font-size="14.00">SampleLog</text>
</g>
<!-- SampleLog&#45;&gt;CopyLogs -->
<g id="edge33" class="edge">
<title>SampleLog&#45;&gt;CopyLogs</title>
<path fill="none" stroke="black" d="M479.77,-146.17C485.26,-138.04 492,-128.08 498.18,-118.93"/>
<polygon fill="black" stroke="black" points="501.05,-120.95 503.75,-110.7 495.25,-117.02 501.05,-120.95"/>
</g>
<!-- PlotPeakByLogValue -->
<g id="node37" class="node">
<title>PlotPeakByLogValue</title>
<ellipse fill="lightgrey" stroke="black" cx="101.39" cy="-425" rx="101.28" ry="18"/>
<text text-anchor="middle" x="101.39" y="-421.3" font-family="Helvetica,sans-Serif" font-size="14.00">PlotPeakByLogValue</text>
</g>
<!-- ConvertSpectrumAxis&#45;&gt;PlotPeakByLogValue -->
<g id="edge8" class="edge">
<title>ConvertSpectrumAxis&#45;&gt;PlotPeakByLogValue</title>
<path fill="none" stroke="black" d="M101.39,-493.8C101.39,-482.58 101.39,-467.67 101.39,-454.69"/>
<polygon fill="black" stroke="black" points="104.89,-454.98 101.39,-444.98 97.89,-454.98 104.89,-454.98"/>
<text text-anchor="middle" x="158.39" y="-464.8" font-family="Helvetica,sans-Serif" font-size="14.00">InputWorkspace</text>
</g>
<!-- Fit&#45;&gt;ParameterTable -->
<g id="edge23" class="edge">
<title>Fit&#45;&gt;ParameterTable</title>
<path fill="none" stroke="black" d="M1243.39,-406.8C1243.39,-395.58 1243.39,-380.67 1243.39,-367.69"/>
<polygon fill="black" stroke="black" points="1246.89,-367.98 1243.39,-357.98 1239.89,-367.98 1246.89,-367.98"/>
</g>
<!-- Fit&#45;&gt;FitWorkspaces -->
<g id="edge24" class="edge">
<title>Fit&#45;&gt;FitWorkspaces</title>
<path fill="none" stroke="black" d="M1270.68,-416.97C1323.41,-403.39 1440.45,-373.24 1512.57,-354.67"/>
<polygon fill="black" stroke="black" points="1513.03,-358.16 1521.84,-352.28 1511.28,-351.38 1513.03,-358.16"/>
</g>
<!-- Fit&#45;&gt;NormalisedCovarianceWorkspace -->
<g id="edge22" class="edge">
<title>Fit&#45;&gt;NormalisedCovarianceWorkspace</title>
<path fill="none" stroke="black" d="M1216,-415.77C1172.38,-402.67 1085.94,-376.71 1025.72,-358.62"/>
<polygon fill="black" stroke="black" points="1026.83,-355.3 1016.24,-355.78 1024.81,-362 1026.83,-355.3"/>
</g>
<!-- ExtractQENSMembers -->
<g id="node30" class="node">
<title>ExtractQENSMembers</title>
<path fill="lightskyblue" stroke="black" d="M1975.39,-182C1975.39,-182 1829.39,-182 1829.39,-182 1823.39,-182 1817.39,-176 1817.39,-170 1817.39,-170 1817.39,-158 1817.39,-158 1817.39,-152 1823.39,-146 1829.39,-146 1829.39,-146 1975.39,-146 1975.39,-146 1981.39,-146 1987.39,-152 1987.39,-158 1987.39,-158 1987.39,-170 1987.39,-170 1987.39,-176 1981.39,-182 1975.39,-182"/>
<text text-anchor="middle" x="1902.39" y="-160.3" font-family="Helvetica,sans-Serif" font-size="14.00">ExtractQENSMembers</text>
</g>
<!-- ResultWorkspace -->
<g id="node39" class="node">
<title>ResultWorkspace</title>
<ellipse fill="lightgrey" stroke="black" cx="635.39" cy="-164" rx="89.08" ry="18"/>
<text text-anchor="middle" x="635.39" y="-160.3" font-family="Helvetica,sans-Serif" font-size="14.00">ResultWorkspace</text>
</g>
<!-- ProcessIndirectFitParameters&#45;&gt;ResultWorkspace -->
<g id="edge29" class="edge">
<title>ProcessIndirectFitParameters&#45;&gt;ResultWorkspace</title>
<path fill="none" stroke="black" d="M646.56,-232.8C644.71,-221.58 642.25,-206.67 640.12,-193.69"/>
<polygon fill="black" stroke="black" points="643.59,-193.26 638.51,-183.96 636.69,-194.4 643.59,-193.26"/>
</g>
<!-- CopyLogs&#45;&gt;OutputWorkspace -->
<g id="edge32" class="edge">
<title>CopyLogs&#45;&gt;OutputWorkspace</title>
<path fill="none" stroke="black" d="M516.39,-72.81C516.39,-65.23 516.39,-56.1 516.39,-47.54"/>
<polygon fill="black" stroke="black" points="519.89,-47.54 516.39,-37.54 512.89,-47.54 519.89,-47.54"/>
</g>
<!-- do_extract_members&#45;&gt;ExtractQENSMembers -->
<g id="edge40" class="edge">
<title>do_extract_members&#45;&gt;ExtractQENSMembers</title>
<path fill="none" stroke="black" d="M1902.39,-232.8C1902.39,-221.58 1902.39,-206.67 1902.39,-193.69"/>
<polygon fill="black" stroke="black" points="1905.89,-193.98 1902.39,-183.98 1898.89,-193.98 1905.89,-193.98"/>
<text text-anchor="middle" x="1913.89" y="-203.8" font-family="Helvetica,sans-Serif" font-size="14.00">Yes</text>
</g>
<!-- extract_members -->
<g id="node35" class="node">
<title>extract_members</title>
<polygon fill="lightseagreen" stroke="black" points="3333.89,-664 3118.89,-664 3118.89,-581 3333.89,-581 3333.89,-664"/>
<text text-anchor="middle" x="3226.39" y="-648.8" font-family="Helvetica,sans-Serif" font-size="14.00">extract_members</text>
<text text-anchor="middle" x="3226.39" y="-633.8" font-family="Helvetica,sans-Serif" font-size="14.00">Extracts the members of</text>
<text text-anchor="middle" x="3226.39" y="-618.8" font-family="Helvetica,sans-Serif" font-size="14.00">the convolution fit, into</text>
<text text-anchor="middle" x="3226.39" y="-603.8" font-family="Helvetica,sans-Serif" font-size="14.00"> their own workspace, which</text>
<text text-anchor="middle" x="3226.39" y="-588.8" font-family="Helvetica,sans-Serif" font-size="14.00"> are subsequently grouped.</text>
</g>
<!-- FitFunction&#45;&gt;Fit -->
<g id="edge10" class="edge">
<title>FitFunction&#45;&gt;Fit</title>
<path fill="none" stroke="black" d="M2091.01,-502.49C2073.39,-499.67 2053.55,-496.59 2035.39,-494 1919.2,-477.46 1890.22,-472.21 1773.39,-461 1589.94,-443.41 1369.92,-431.95 1282.22,-427.77"/>
<polygon fill="black" stroke="black" points="1282.41,-424.28 1272.26,-427.3 1282.08,-431.27 1282.41,-424.28"/>
</g>
<!-- FitType -->
<g id="node38" class="node">
<title>FitType</title>
<ellipse fill="lightgrey" stroke="black" cx="649.39" cy="-425" rx="42.49" ry="18"/>
<text text-anchor="middle" x="649.39" y="-421.3" font-family="Helvetica,sans-Serif" font-size="14.00">FitType</text>
</g>
<!-- FitType&#45;&gt;ParameterNames -->
<g id="edge26" class="edge">
<title>FitType&#45;&gt;ParameterNames</title>
<path fill="none" stroke="black" d="M649.39,-406.8C649.39,-395.58 649.39,-380.67 649.39,-367.69"/>
<polygon fill="black" stroke="black" points="652.89,-367.98 649.39,-357.98 645.89,-367.98 652.89,-367.98"/>
<text text-anchor="middle" x="795.89" y="-377.8" font-family="Helvetica,sans-Serif" font-size="14.00">Desired parameters obtained from FitType</text>
</g>
<!-- ResultWorkspace&#45;&gt;CopyLogs -->
<g id="edge31" class="edge">
<title>ResultWorkspace&#45;&gt;CopyLogs</title>
<path fill="none" stroke="black" d="M607.79,-146.53C592.18,-137.22 572.41,-125.42 555.25,-115.19"/>
<polygon fill="black" stroke="black" points="557.18,-112.26 546.8,-110.14 553.6,-118.27 557.18,-112.26"/>
</g>
<!-- FitWorkspace -->
<g id="node40" class="node">
<title>FitWorkspace</title>
<ellipse fill="lightgrey" stroke="black" cx="814.39" cy="-164" rx="71.49" ry="18"/>
<text text-anchor="middle" x="814.39" y="-160.3" font-family="Helvetica,sans-Serif" font-size="14.00">FitWorkspace</text>
</g>
<!-- FitWorkspace&#45;&gt;CopyLogs -->
<g id="edge34" class="edge">
<title>FitWorkspace&#45;&gt;CopyLogs</title>
<path fill="none" stroke="black" d="M763.84,-150.96C709.78,-138.08 624.41,-117.74 569.42,-104.63"/>
<polygon fill="black" stroke="black" points="570.52,-101.3 559.98,-102.38 568.89,-108.11 570.52,-101.3"/>
</g>
</g>
</svg>
