<?xml version="1.0" encoding="UTF-8" standalone="no"?>
<!DOCTYPE svg PUBLIC "-//W3C//DTD SVG 1.1//EN"
 "http://www.w3.org/Graphics/SVG/1.1/DTD/svg11.dtd">
<!-- Generated by graphviz version 2.47.2 (20210527.1257)
 -->
<!-- Title: QENSFitSequential Pages: 1 -->
<svg width="1886pt" height="695pt"
 viewBox="0.00 0.00 1885.89 695.00" xmlns="http://www.w3.org/2000/svg" xmlns:xlink="http://www.w3.org/1999/xlink">
<g id="graph0" class="graph" transform="scale(1 1) rotate(0) translate(4 691)">
<title>QENSFitSequential</title>
<polygon fill="white" stroke="transparent" points="-4,4 -4,-691 1881.89,-691 1881.89,4 -4,4"/>
<text text-anchor="middle" x="938.95" y="-671.8" font-family="Helvetica" font-size="14.00">QENSFitSequential Flowchart</text>
<!-- InputWorkspace -->
<g id="node1" class="node">
<title>InputWorkspace</title>
<ellipse fill="khaki" stroke="black" cx="1600.39" cy="-622.5" rx="74.19" ry="18"/>
<text text-anchor="middle" x="1600.39" y="-618.8" font-family="Helvetica" font-size="14.00">InputWorkspace</text>
</g>
<!-- ConvertSpectrumAxis -->
<g id="node25" class="node">
<title>ConvertSpectrumAxis</title>
<path fill="lightskyblue" stroke="black" d="M1082.39,-530C1082.39,-530 958.39,-530 958.39,-530 952.39,-530 946.39,-524 946.39,-518 946.39,-518 946.39,-506 946.39,-506 946.39,-500 952.39,-494 958.39,-494 958.39,-494 1082.39,-494 1082.39,-494 1088.39,-494 1094.39,-500 1094.39,-506 1094.39,-506 1094.39,-518 1094.39,-518 1094.39,-524 1088.39,-530 1082.39,-530"/>
<text text-anchor="middle" x="1020.39" y="-508.3" font-family="Helvetica" font-size="14.00">ConvertSpectrumAxis</text>
</g>
<!-- InputWorkspace&#45;&gt;ConvertSpectrumAxis -->
<g id="edge7" class="edge">
<title>InputWorkspace&#45;&gt;ConvertSpectrumAxis</title>
<path fill="none" stroke="black" d="M1550.72,-609.1C1484.92,-593.04 1365.08,-565.1 1261.39,-548 1194.79,-537.01 1174.96,-540.72 1104.79,-530.12"/>
<polygon fill="black" stroke="black" points="1104.97,-526.61 1094.55,-528.53 1103.89,-533.52 1104.97,-526.61"/>
<text text-anchor="middle" x="1430.39" y="-551.8" font-family="Helvetica" font-size="14.00">Attempt conversion to Elastic Q</text>
</g>
<!-- CopyLogs -->
<g id="node30" class="node">
<title>CopyLogs</title>
<path fill="lightskyblue" stroke="black" d="M1611.89,-109C1611.89,-109 1558.89,-109 1558.89,-109 1552.89,-109 1546.89,-103 1546.89,-97 1546.89,-97 1546.89,-85 1546.89,-85 1546.89,-79 1552.89,-73 1558.89,-73 1558.89,-73 1611.89,-73 1611.89,-73 1617.89,-73 1623.89,-79 1623.89,-85 1623.89,-85 1623.89,-97 1623.89,-97 1623.89,-103 1617.89,-109 1611.89,-109"/>
<text text-anchor="middle" x="1585.39" y="-87.3" font-family="Helvetica" font-size="14.00">CopyLogs</text>
</g>
<!-- InputWorkspace&#45;&gt;CopyLogs -->
<g id="edge29" class="edge">
<title>InputWorkspace&#45;&gt;CopyLogs</title>
<path fill="none" stroke="black" d="M1631.36,-606C1674.21,-583.52 1746.39,-541.42 1746.39,-513 1746.39,-513 1746.39,-513 1746.39,-177 1746.39,-125.61 1681.47,-105.21 1634.07,-97.17"/>
<polygon fill="black" stroke="black" points="1634.38,-93.67 1623.96,-95.59 1633.3,-100.59 1634.38,-93.67"/>
</g>
<!-- do_extract_members -->
<g id="node32" class="node">
<title>do_extract_members</title>
<polygon fill="limegreen" stroke="black" points="1028.39,-196 891.49,-178 1028.39,-160 1165.3,-178 1028.39,-196"/>
<text text-anchor="middle" x="1028.39" y="-174.3" font-family="Helvetica" font-size="14.00">Do Extract Members?</text>
</g>
<!-- InputWorkspace&#45;&gt;do_extract_members -->
<g id="edge38" class="edge">
<title>InputWorkspace&#45;&gt;do_extract_members</title>
<path fill="none" stroke="black" d="M1628.89,-605.85C1644.85,-597.58 1665.32,-587.77 1684.39,-581 1717.11,-569.39 1738.86,-590.23 1760.39,-563 1779.62,-538.69 1761.04,-516.78 1727.39,-494 1671.4,-456.08 1478.35,-487.46 1427.39,-443 1372.63,-395.22 1429.91,-338.26 1378.39,-287 1312.39,-221.32 1207.38,-195.45 1129.59,-185.32"/>
<polygon fill="black" stroke="black" points="1129.63,-181.8 1119.28,-184.05 1128.78,-188.75 1129.63,-181.8"/>
</g>
<!-- FitFunction -->
<g id="node34" class="node">
<title>FitFunction</title>
<ellipse fill="lightgrey" stroke="black" cx="786.39" cy="-512" rx="53.89" ry="18"/>
<text text-anchor="middle" x="786.39" y="-508.3" font-family="Helvetica" font-size="14.00">FitFunction</text>
</g>
<!-- InputWorkspace&#45;&gt;FitFunction -->
<g id="edge1" class="edge">
<title>InputWorkspace&#45;&gt;FitFunction</title>
<path fill="none" stroke="black" d="M1535.26,-613.82C1358.88,-592.99 882.95,-536.54 849.39,-530 844.77,-529.1 839.99,-528.04 835.22,-526.91"/>
<polygon fill="black" stroke="black" points="836.06,-523.51 825.51,-524.48 834.37,-530.3 836.06,-523.51"/>
</g>
<!-- Input -->
<g id="node2" class="node">
<title>Input</title>
<ellipse fill="khaki" stroke="black" cx="643.39" cy="-622.5" rx="30.59" ry="18"/>
<text text-anchor="middle" x="643.39" y="-618.8" font-family="Helvetica" font-size="14.00">Input</text>
</g>
<!-- PlotPeakByLogValue -->
<g id="node26" class="node">
<title>PlotPeakByLogValue</title>
<path fill="lightskyblue" stroke="black" d="M898.89,-443C898.89,-443 779.89,-443 779.89,-443 773.89,-443 767.89,-437 767.89,-431 767.89,-431 767.89,-419 767.89,-419 767.89,-413 773.89,-407 779.89,-407 779.89,-407 898.89,-407 898.89,-407 904.89,-407 910.89,-413 910.89,-419 910.89,-419 910.89,-431 910.89,-431 910.89,-437 904.89,-443 898.89,-443"/>
<text text-anchor="middle" x="839.39" y="-421.3" font-family="Helvetica" font-size="14.00">PlotPeakByLogValue</text>
</g>
<!-- Input&#45;&gt;PlotPeakByLogValue -->
<g id="edge9" class="edge">
<title>Input&#45;&gt;PlotPeakByLogValue</title>
<path fill="none" stroke="black" d="M650.63,-604.86C662.66,-578.7 688.89,-527.48 723.39,-494 742.98,-475 768.86,-459.17 791.21,-447.58"/>
<polygon fill="black" stroke="black" points="792.87,-450.66 800.22,-443.04 789.72,-444.42 792.87,-450.66"/>
</g>
<!-- Input&#45;&gt;FitFunction -->
<g id="edge2" class="edge">
<title>Input&#45;&gt;FitFunction</title>
<path fill="none" stroke="black" d="M657.14,-606.12C664.56,-598.21 674.08,-588.65 683.39,-581 704.89,-563.35 731.06,-546.12 751.65,-533.42"/>
<polygon fill="black" stroke="black" points="753.67,-536.28 760.39,-528.09 750.03,-530.31 753.67,-536.28"/>
</g>
<!-- FitParameters -->
<g id="node3" class="node">
<title>FitParameters</title>
<ellipse fill="khaki" stroke="black" cx="758.39" cy="-622.5" rx="66.09" ry="18"/>
<text text-anchor="middle" x="758.39" y="-618.8" font-family="Helvetica" font-size="14.00">FitParameters</text>
</g>
<!-- FitParameters&#45;&gt;FitFunction -->
<g id="edge4" class="edge">
<title>FitParameters&#45;&gt;FitFunction</title>
<path fill="none" stroke="black" d="M762.89,-604.07C767.37,-586.72 774.3,-559.87 779.47,-539.82"/>
<polygon fill="black" stroke="black" points="782.89,-540.59 782,-530.03 776.11,-538.84 782.89,-540.59"/>
</g>
<!-- Function -->
<g id="node4" class="node">
<title>Function</title>
<ellipse fill="khaki" stroke="black" cx="886.39" cy="-622.5" rx="44.39" ry="18"/>
<text text-anchor="middle" x="886.39" y="-618.8" font-family="Helvetica" font-size="14.00">Function</text>
</g>
<!-- Function&#45;&gt;FitFunction -->
<g id="edge3" class="edge">
<title>Function&#45;&gt;FitFunction</title>
<path fill="none" stroke="black" d="M871.64,-605.49C854.97,-587.41 827.67,-557.78 808.46,-536.94"/>
<polygon fill="black" stroke="black" points="810.89,-534.41 801.54,-529.43 805.74,-539.16 810.89,-534.41"/>
</g>
<!-- StartX -->
<g id="node5" class="node">
<title>StartX</title>
<ellipse fill="khaki" stroke="black" cx="893.39" cy="-512" rx="35.19" ry="18"/>
<text text-anchor="middle" x="893.39" y="-508.3" font-family="Helvetica" font-size="14.00">StartX</text>
</g>
<!-- StartX&#45;&gt;PlotPeakByLogValue -->
<g id="edge11" class="edge">
<title>StartX&#45;&gt;PlotPeakByLogValue</title>
<path fill="none" stroke="black" d="M882.98,-494.61C875.29,-482.5 864.66,-465.77 855.83,-451.87"/>
<polygon fill="black" stroke="black" points="858.65,-449.78 850.33,-443.21 852.74,-453.53 858.65,-449.78"/>
</g>
<!-- EndX -->
<g id="node6" class="node">
<title>EndX</title>
<ellipse fill="khaki" stroke="black" cx="1144.39" cy="-512" rx="32.49" ry="18"/>
<text text-anchor="middle" x="1144.39" y="-508.3" font-family="Helvetica" font-size="14.00">EndX</text>
</g>
<!-- EndX&#45;&gt;PlotPeakByLogValue -->
<g id="edge12" class="edge">
<title>EndX&#45;&gt;PlotPeakByLogValue</title>
<path fill="none" stroke="black" d="M1122.87,-498.19C1102.73,-486.76 1071.48,-470.42 1042.39,-461 1003.52,-448.41 958.91,-440.08 921.43,-434.73"/>
<polygon fill="black" stroke="black" points="921.44,-431.2 911.05,-433.29 920.48,-438.13 921.44,-431.2"/>
</g>
<!-- SpecMin -->
<g id="node7" class="node">
<title>SpecMin</title>
<ellipse fill="khaki" stroke="black" cx="994.39" cy="-622.5" rx="45.49" ry="18"/>
<text text-anchor="middle" x="994.39" y="-618.8" font-family="Helvetica" font-size="14.00">SpecMin</text>
</g>
<!-- SpecMin&#45;&gt;FitFunction -->
<g id="edge5" class="edge">
<title>SpecMin&#45;&gt;FitFunction</title>
<path fill="none" stroke="black" d="M975.5,-606C965.19,-597.96 952,-588.33 939.39,-581 904.21,-560.55 861.74,-542.13 830.49,-529.63"/>
<polygon fill="black" stroke="black" points="831.75,-526.37 821.17,-525.95 829.18,-532.88 831.75,-526.37"/>
</g>
<!-- SpecMax -->
<g id="node8" class="node">
<title>SpecMax</title>
<ellipse fill="khaki" stroke="black" cx="1106.39" cy="-622.5" rx="48.19" ry="18"/>
<text text-anchor="middle" x="1106.39" y="-618.8" font-family="Helvetica" font-size="14.00">SpecMax</text>
</g>
<!-- SpecMax&#45;&gt;FitFunction -->
<g id="edge6" class="edge">
<title>SpecMax&#45;&gt;FitFunction</title>
<path fill="none" stroke="black" d="M1087.6,-605.77C1076.73,-597.37 1062.46,-587.45 1048.39,-581 965.41,-542.92 937.69,-553.23 849.39,-530 845.33,-528.93 841.11,-527.81 836.88,-526.68"/>
<polygon fill="black" stroke="black" points="837.61,-523.26 827.04,-524.05 835.8,-530.02 837.61,-523.26"/>
</g>
<!-- ConvolveMembers -->
<g id="node9" class="node">
<title>ConvolveMembers</title>
<ellipse fill="khaki" stroke="black" cx="1280.39" cy="-512" rx="85.29" ry="18"/>
<text text-anchor="middle" x="1280.39" y="-508.3" font-family="Helvetica" font-size="14.00">ConvolveMembers</text>
</g>
<!-- ConvolveMembers&#45;&gt;PlotPeakByLogValue -->
<g id="edge13" class="edge">
<title>ConvolveMembers&#45;&gt;PlotPeakByLogValue</title>
<path fill="none" stroke="black" d="M1229.63,-497.41C1187.89,-486.55 1127.1,-471.48 1073.39,-461 1023.08,-451.18 966.2,-442.62 921.12,-436.42"/>
<polygon fill="black" stroke="black" points="921.49,-432.93 911.11,-435.05 920.54,-439.87 921.49,-432.93"/>
</g>
<!-- ExtractMembers -->
<g id="node10" class="node">
<title>ExtractMembers</title>
<ellipse fill="khaki" stroke="black" cx="463.39" cy="-251" rx="75.29" ry="18"/>
<text text-anchor="middle" x="463.39" y="-247.3" font-family="Helvetica" font-size="14.00">ExtractMembers</text>
</g>
<!-- ExtractMembers&#45;&gt;do_extract_members -->
<g id="edge36" class="edge">
<title>ExtractMembers&#45;&gt;do_extract_members</title>
<path fill="none" stroke="black" d="M517.68,-238.42C527.86,-236.46 538.43,-234.55 548.39,-233 684.44,-211.78 843.42,-195.57 939.96,-186.67"/>
<polygon fill="black" stroke="black" points="940.33,-190.15 949.97,-185.75 939.69,-183.18 940.33,-190.15"/>
</g>
<!-- PassWSIndexToFunction -->
<g id="node11" class="node">
<title>PassWSIndexToFunction</title>
<ellipse fill="khaki" stroke="black" cx="1492.39" cy="-512" rx="109.38" ry="18"/>
<text text-anchor="middle" x="1492.39" y="-508.3" font-family="Helvetica" font-size="14.00">PassWSIndexToFunction</text>
</g>
<!-- PassWSIndexToFunction&#45;&gt;PlotPeakByLogValue -->
<g id="edge19" class="edge">
<title>PassWSIndexToFunction&#45;&gt;PlotPeakByLogValue</title>
<path fill="none" stroke="black" d="M1413.71,-499.51C1400.58,-497.64 1387.11,-495.74 1374.39,-494 1214.15,-472.01 1026.56,-448.73 921.5,-435.92"/>
<polygon fill="black" stroke="black" points="921.63,-432.41 911.28,-434.67 920.78,-439.36 921.63,-432.41"/>
</g>
<!-- Minimizer -->
<g id="node12" class="node">
<title>Minimizer</title>
<ellipse fill="khaki" stroke="black" cx="1669.39" cy="-512" rx="49.29" ry="18"/>
<text text-anchor="middle" x="1669.39" y="-508.3" font-family="Helvetica" font-size="14.00">Minimizer</text>
</g>
<!-- Minimizer&#45;&gt;PlotPeakByLogValue -->
<g id="edge15" class="edge">
<title>Minimizer&#45;&gt;PlotPeakByLogValue</title>
<path fill="none" stroke="black" d="M1633.46,-499.46C1625.91,-497.37 1617.94,-495.41 1610.39,-494 1362.15,-447.74 1062.9,-432.75 921.3,-428.05"/>
<polygon fill="black" stroke="black" points="921.08,-424.54 910.97,-427.72 920.85,-431.54 921.08,-424.54"/>
</g>
<!-- CostFunction -->
<g id="node13" class="node">
<title>CostFunction</title>
<ellipse fill="khaki" stroke="black" cx="62.39" cy="-512" rx="62.29" ry="18"/>
<text text-anchor="middle" x="62.39" y="-508.3" font-family="Helvetica" font-size="14.00">CostFunction</text>
</g>
<!-- CostFunction&#45;&gt;PlotPeakByLogValue -->
<g id="edge16" class="edge">
<title>CostFunction&#45;&gt;PlotPeakByLogValue</title>
<path fill="none" stroke="black" d="M107.32,-499.5C115.94,-497.51 124.92,-495.57 133.39,-494 357,-452.53 625.43,-435.5 757.62,-429.24"/>
<polygon fill="black" stroke="black" points="757.84,-432.73 767.67,-428.77 757.52,-425.74 757.84,-432.73"/>
</g>
<!-- MaxIterations -->
<g id="node14" class="node">
<title>MaxIterations</title>
<ellipse fill="khaki" stroke="black" cx="206.39" cy="-512" rx="63.89" ry="18"/>
<text text-anchor="middle" x="206.39" y="-508.3" font-family="Helvetica" font-size="14.00">MaxIterations</text>
</g>
<!-- MaxIterations&#45;&gt;PlotPeakByLogValue -->
<g id="edge14" class="edge">
<title>MaxIterations&#45;&gt;PlotPeakByLogValue</title>
<path fill="none" stroke="black" d="M253.01,-499.55C261.75,-497.57 270.83,-495.63 279.39,-494 448.04,-461.94 648.27,-441.91 757.77,-432.46"/>
<polygon fill="black" stroke="black" points="758.09,-435.94 767.76,-431.6 757.5,-428.97 758.09,-435.94"/>
</g>
<!-- PeakRadius -->
<g id="node15" class="node">
<title>PeakRadius</title>
<ellipse fill="khaki" stroke="black" cx="346.39" cy="-512" rx="57.69" ry="18"/>
<text text-anchor="middle" x="346.39" y="-508.3" font-family="Helvetica" font-size="14.00">PeakRadius</text>
</g>
<!-- PeakRadius&#45;&gt;PlotPeakByLogValue -->
<g id="edge17" class="edge">
<title>PeakRadius&#45;&gt;PlotPeakByLogValue</title>
<path fill="none" stroke="black" d="M388.81,-499.69C396.94,-497.68 405.41,-495.69 413.39,-494 532.33,-468.84 671.71,-448.24 757.79,-436.54"/>
<polygon fill="black" stroke="black" points="758.32,-440 767.76,-435.2 757.38,-433.07 758.32,-440"/>
</g>
<!-- EvaluationType -->
<g id="node16" class="node">
<title>EvaluationType</title>
<ellipse fill="khaki" stroke="black" cx="493.39" cy="-512" rx="70.69" ry="18"/>
<text text-anchor="middle" x="493.39" y="-508.3" font-family="Helvetica" font-size="14.00">EvaluationType</text>
</g>
<!-- EvaluationType&#45;&gt;PlotPeakByLogValue -->
<g id="edge20" class="edge">
<title>EvaluationType&#45;&gt;PlotPeakByLogValue</title>
<path fill="none" stroke="black" d="M535.63,-497.53C570.07,-486.83 620.09,-471.89 664.39,-461 694.67,-453.56 728.18,-446.56 757.71,-440.81"/>
<polygon fill="black" stroke="black" points="758.41,-444.24 767.56,-438.9 757.08,-437.36 758.41,-444.24"/>
</g>
<!-- LogValue -->
<g id="node17" class="node">
<title>LogValue</title>
<ellipse fill="khaki" stroke="black" cx="629.39" cy="-512" rx="47.39" ry="18"/>
<text text-anchor="middle" x="629.39" y="-508.3" font-family="Helvetica" font-size="14.00">LogValue</text>
</g>
<!-- LogValue&#45;&gt;PlotPeakByLogValue -->
<g id="edge18" class="edge">
<title>LogValue&#45;&gt;PlotPeakByLogValue</title>
<path fill="none" stroke="black" d="M645.03,-494.73C656.57,-483.65 673.21,-469.49 690.39,-461 711.25,-450.7 735.27,-443.35 757.85,-438.14"/>
<polygon fill="black" stroke="black" points="758.74,-441.53 767.76,-435.97 757.24,-434.69 758.74,-441.53"/>
</g>
<!-- FitWorkspaces -->
<g id="node18" class="node">
<title>FitWorkspaces</title>
<ellipse fill="khaki" stroke="black" cx="1156.39" cy="-338" rx="68.79" ry="18"/>
<text text-anchor="middle" x="1156.39" y="-334.3" font-family="Helvetica" font-size="14.00">FitWorkspaces</text>
</g>
<!-- RenameWorkspace -->
<g id="node31" class="node">
<title>RenameWorkspace</title>
<path fill="lightskyblue" stroke="black" d="M1084.39,-269C1084.39,-269 972.39,-269 972.39,-269 966.39,-269 960.39,-263 960.39,-257 960.39,-257 960.39,-245 960.39,-245 960.39,-239 966.39,-233 972.39,-233 972.39,-233 1084.39,-233 1084.39,-233 1090.39,-233 1096.39,-239 1096.39,-245 1096.39,-245 1096.39,-257 1096.39,-257 1096.39,-263 1090.39,-269 1084.39,-269"/>
<text text-anchor="middle" x="1028.39" y="-247.3" font-family="Helvetica" font-size="14.00">RenameWorkspace</text>
</g>
<!-- FitWorkspaces&#45;&gt;RenameWorkspace -->
<g id="edge35" class="edge">
<title>FitWorkspaces&#45;&gt;RenameWorkspace</title>
<path fill="none" stroke="black" d="M1172.36,-320.07C1180.08,-309.79 1186.18,-296.81 1178.39,-287 1168.91,-275.04 1138.06,-266.79 1106.78,-261.32"/>
<polygon fill="black" stroke="black" points="1107.08,-257.82 1096.64,-259.64 1105.93,-264.72 1107.08,-257.82"/>
<text text-anchor="middle" x="1277.89" y="-290.8" font-family="Helvetica" font-size="14.00">Renames to match input names</text>
</g>
<!-- NormalisedCovarianceWorkspace -->
<g id="node19" class="node">
<title>NormalisedCovarianceWorkspace</title>
<ellipse fill="khaki" stroke="black" cx="618.39" cy="-338" rx="143.77" ry="18"/>
<text text-anchor="middle" x="618.39" y="-334.3" font-family="Helvetica" font-size="14.00">NormalisedCovarianceWorkspace</text>
</g>
<!-- DeleteWorkspace -->
<g id="node27" class="node">
<title>DeleteWorkspace</title>
<path fill="lightskyblue" stroke="black" d="M667.89,-269C667.89,-269 568.89,-269 568.89,-269 562.89,-269 556.89,-263 556.89,-257 556.89,-257 556.89,-245 556.89,-245 556.89,-239 562.89,-233 568.89,-233 568.89,-233 667.89,-233 667.89,-233 673.89,-233 679.89,-239 679.89,-245 679.89,-245 679.89,-257 679.89,-257 679.89,-263 673.89,-269 667.89,-269"/>
<text text-anchor="middle" x="618.39" y="-247.3" font-family="Helvetica" font-size="14.00">DeleteWorkspace</text>
</g>
<!-- NormalisedCovarianceWorkspace&#45;&gt;DeleteWorkspace -->
<g id="edge24" class="edge">
<title>NormalisedCovarianceWorkspace&#45;&gt;DeleteWorkspace</title>
<path fill="none" stroke="black" d="M618.39,-319.8C618.39,-308.16 618.39,-292.55 618.39,-279.24"/>
<polygon fill="black" stroke="black" points="621.89,-279.18 618.39,-269.18 614.89,-279.18 621.89,-279.18"/>
<text text-anchor="middle" x="748.89" y="-290.8" font-family="Helvetica" font-size="14.00">Unrequired product of PlotPeakByLogValue</text>
</g>
<!-- ParameterNames -->
<g id="node20" class="node">
<title>ParameterNames</title>
<ellipse fill="khaki" stroke="black" cx="1519.39" cy="-338" rx="80.69" ry="18"/>
<text text-anchor="middle" x="1519.39" y="-334.3" font-family="Helvetica" font-size="14.00">ParameterNames</text>
</g>
<!-- ProcessIndirectFitParameters -->
<g id="node29" class="node">
<title>ProcessIndirectFitParameters</title>
<path fill="lightskyblue" stroke="black" d="M1610.89,-269C1610.89,-269 1439.89,-269 1439.89,-269 1433.89,-269 1427.89,-263 1427.89,-257 1427.89,-257 1427.89,-245 1427.89,-245 1427.89,-239 1433.89,-233 1439.89,-233 1439.89,-233 1610.89,-233 1610.89,-233 1616.89,-233 1622.89,-239 1622.89,-245 1622.89,-245 1622.89,-257 1622.89,-257 1622.89,-263 1616.89,-269 1610.89,-269"/>
<text text-anchor="middle" x="1525.39" y="-247.3" font-family="Helvetica" font-size="14.00">ProcessIndirectFitParameters</text>
</g>
<!-- ParameterNames&#45;&gt;ProcessIndirectFitParameters -->
<g id="edge27" class="edge">
<title>ParameterNames&#45;&gt;ProcessIndirectFitParameters</title>
<path fill="none" stroke="black" d="M1520.61,-319.8C1521.43,-308.16 1522.53,-292.55 1523.47,-279.24"/>
<polygon fill="black" stroke="black" points="1526.97,-279.4 1524.18,-269.18 1519.99,-278.9 1526.97,-279.4"/>
</g>
<!-- OutputWorkspace -->
<g id="node21" class="node">
<title>OutputWorkspace</title>
<ellipse fill="khaki" stroke="black" cx="1585.39" cy="-18" rx="81.49" ry="18"/>
<text text-anchor="middle" x="1585.39" y="-14.3" font-family="Helvetica" font-size="14.00">OutputWorkspace</text>
</g>
<!-- OutputParameterWorkspace -->
<g id="node22" class="node">
<title>OutputParameterWorkspace</title>
<ellipse fill="khaki" stroke="black" cx="902.39" cy="-338" rx="122.68" ry="18"/>
<text text-anchor="middle" x="902.39" y="-334.3" font-family="Helvetica" font-size="14.00">OutputParameterWorkspace</text>
</g>
<!-- OutputParameterWorkspace&#45;&gt;ProcessIndirectFitParameters -->
<g id="edge26" class="edge">
<title>OutputParameterWorkspace&#45;&gt;ProcessIndirectFitParameters</title>
<path fill="none" stroke="black" d="M900.93,-319.55C901.05,-308.51 903.31,-294.9 912.39,-287 921.8,-278.83 1244.21,-263.94 1417.58,-256.49"/>
<polygon fill="black" stroke="black" points="1417.92,-259.98 1427.76,-256.05 1417.62,-252.98 1417.92,-259.98"/>
</g>
<!-- OutputParameterWorkspace&#45;&gt;RenameWorkspace -->
<g id="edge34" class="edge">
<title>OutputParameterWorkspace&#45;&gt;RenameWorkspace</title>
<path fill="none" stroke="black" d="M907.73,-319.61C911.83,-308.88 918.49,-295.59 928.39,-287 935.11,-281.18 942.85,-276.31 951,-272.24"/>
<polygon fill="black" stroke="black" points="952.69,-275.32 960.33,-267.97 949.78,-268.95 952.69,-275.32"/>
<text text-anchor="middle" x="1053.39" y="-290.8" font-family="Helvetica" font-size="14.00">Change name to expected name for table</text>
</g>
<!-- OutputWorkspaceGroup -->
<g id="node23" class="node">
<title>OutputWorkspaceGroup</title>
<ellipse fill="khaki" stroke="black" cx="1028.39" cy="-18" rx="106.68" ry="18"/>
<text text-anchor="middle" x="1028.39" y="-14.3" font-family="Helvetica" font-size="14.00">OutputWorkspaceGroup</text>
</g>
<!-- SampleLog -->
<g id="node24" class="node">
<title>SampleLog</title>
<ellipse fill="khaki" stroke="black" cx="1516.39" cy="-178" rx="55.79" ry="18"/>
<text text-anchor="middle" x="1516.39" y="-174.3" font-family="Helvetica" font-size="14.00">SampleLog</text>
</g>
<!-- SampleLog&#45;&gt;CopyLogs -->
<g id="edge32" class="edge">
<title>SampleLog&#45;&gt;CopyLogs</title>
<path fill="none" stroke="black" d="M1530.03,-160.21C1540.07,-147.83 1553.9,-130.8 1565.22,-116.85"/>
<polygon fill="black" stroke="black" points="1567.97,-119.02 1571.55,-109.05 1562.53,-114.61 1567.97,-119.02"/>
</g>
<!-- ConvertSpectrumAxis&#45;&gt;PlotPeakByLogValue -->
<g id="edge8" class="edge">
<title>ConvertSpectrumAxis&#45;&gt;PlotPeakByLogValue</title>
<path fill="none" stroke="black" d="M983.77,-493.8C955.21,-480.39 915.41,-461.7 884.83,-447.34"/>
<polygon fill="black" stroke="black" points="886.2,-444.11 875.66,-443.03 883.22,-450.45 886.2,-444.11"/>
<text text-anchor="middle" x="989.39" y="-464.8" font-family="Helvetica" font-size="14.00">InputWorkspace</text>
</g>
<!-- PlotPeakByLogValue&#45;&gt;FitWorkspaces -->
<g id="edge23" class="edge">
<title>PlotPeakByLogValue&#45;&gt;FitWorkspaces</title>
<path fill="none" stroke="black" d="M903.16,-406.9C960.86,-391.43 1045.02,-368.86 1100.23,-354.06"/>
<polygon fill="black" stroke="black" points="1101.44,-357.36 1110.19,-351.39 1099.63,-350.6 1101.44,-357.36"/>
</g>
<!-- PlotPeakByLogValue&#45;&gt;NormalisedCovarianceWorkspace -->
<g id="edge21" class="edge">
<title>PlotPeakByLogValue&#45;&gt;NormalisedCovarianceWorkspace</title>
<path fill="none" stroke="black" d="M794.94,-406.9C759.07,-393.11 708.53,-373.67 670.72,-359.12"/>
<polygon fill="black" stroke="black" points="671.49,-355.67 660.9,-355.35 668.98,-362.21 671.49,-355.67"/>
</g>
<!-- PlotPeakByLogValue&#45;&gt;OutputParameterWorkspace -->
<g id="edge22" class="edge">
<title>PlotPeakByLogValue&#45;&gt;OutputParameterWorkspace</title>
<path fill="none" stroke="black" d="M852.14,-406.8C861.2,-394.59 873.49,-377.99 883.66,-364.28"/>
<polygon fill="black" stroke="black" points="886.52,-366.29 889.66,-356.18 880.9,-362.13 886.52,-366.29"/>
</g>
<!-- ExtractQENSMembers -->
<g id="node28" class="node">
<title>ExtractQENSMembers</title>
<path fill="lightskyblue" stroke="black" d="M1093.89,-109C1093.89,-109 962.89,-109 962.89,-109 956.89,-109 950.89,-103 950.89,-97 950.89,-97 950.89,-85 950.89,-85 950.89,-79 956.89,-73 962.89,-73 962.89,-73 1093.89,-73 1093.89,-73 1099.89,-73 1105.89,-79 1105.89,-85 1105.89,-85 1105.89,-97 1105.89,-97 1105.89,-103 1099.89,-109 1093.89,-109"/>
<text text-anchor="middle" x="1028.39" y="-87.3" font-family="Helvetica" font-size="14.00">ExtractQENSMembers</text>
</g>
<!-- ExtractQENSMembers&#45;&gt;OutputWorkspaceGroup -->
<g id="edge40" class="edge">
<title>ExtractQENSMembers&#45;&gt;OutputWorkspaceGroup</title>
<path fill="none" stroke="black" d="M1028.39,-72.81C1028.39,-64.79 1028.39,-55.05 1028.39,-46.07"/>
<polygon fill="black" stroke="black" points="1031.89,-46.03 1028.39,-36.03 1024.89,-46.03 1031.89,-46.03"/>
</g>
<!-- ResultWorkspace -->
<g id="node36" class="node">
<title>ResultWorkspace</title>
<ellipse fill="lightgrey" stroke="black" cx="1363.39" cy="-178" rx="79.09" ry="18"/>
<text text-anchor="middle" x="1363.39" y="-174.3" font-family="Helvetica" font-size="14.00">ResultWorkspace</text>
</g>
<!-- ProcessIndirectFitParameters&#45;&gt;ResultWorkspace -->
<g id="edge28" class="edge">
<title>ProcessIndirectFitParameters&#45;&gt;ResultWorkspace</title>
<path fill="none" stroke="black" d="M1486.59,-232.99C1462.77,-222.55 1432.19,-209.15 1407.46,-198.31"/>
<polygon fill="black" stroke="black" points="1408.86,-195.1 1398.29,-194.3 1406.05,-201.52 1408.86,-195.1"/>
</g>
<!-- CopyLogs&#45;&gt;OutputWorkspace -->
<g id="edge31" class="edge">
<title>CopyLogs&#45;&gt;OutputWorkspace</title>
<path fill="none" stroke="black" d="M1585.39,-72.81C1585.39,-64.79 1585.39,-55.05 1585.39,-46.07"/>
<polygon fill="black" stroke="black" points="1588.89,-46.03 1585.39,-36.03 1581.89,-46.03 1588.89,-46.03"/>
</g>
<!-- RenameWorkspace&#45;&gt;do_extract_members -->
<g id="edge37" class="edge">
<title>RenameWorkspace&#45;&gt;do_extract_members</title>
<path fill="none" stroke="black" d="M1028.39,-232.81C1028.39,-224.79 1028.39,-215.05 1028.39,-206.07"/>
<polygon fill="black" stroke="black" points="1031.89,-206.03 1028.39,-196.03 1024.89,-206.03 1031.89,-206.03"/>
</g>
<!-- do_extract_members&#45;&gt;ExtractQENSMembers -->
<g id="edge39" class="edge">
<title>do_extract_members&#45;&gt;ExtractQENSMembers</title>
<path fill="none" stroke="black" d="M1028.39,-159.8C1028.39,-148.16 1028.39,-132.55 1028.39,-119.24"/>
<polygon fill="black" stroke="black" points="1031.89,-119.18 1028.39,-109.18 1024.89,-119.18 1031.89,-119.18"/>
<text text-anchor="middle" x="1039.89" y="-130.8" font-family="Helvetica" font-size="14.00">Yes</text>
</g>
<!-- extract_members -->
<g id="node33" class="node">
<title>extract_members</title>
<polygon fill="lightseagreen" stroke="black" points="1877.89,-664 1692.89,-664 1692.89,-581 1877.89,-581 1877.89,-664"/>
<text text-anchor="middle" x="1785.39" y="-648.8" font-family="Helvetica" font-size="14.00">ExtractQENSMembers:</text>
<text text-anchor="middle" x="1785.39" y="-633.8" font-family="Helvetica" font-size="14.00">Extracts the members of</text>
<text text-anchor="middle" x="1785.39" y="-618.8" font-family="Helvetica" font-size="14.00">the convolution fit, into</text>
<text text-anchor="middle" x="1785.39" y="-603.8" font-family="Helvetica" font-size="14.00"> their own workspace, which</text>
<text text-anchor="middle" x="1785.39" y="-588.8" font-family="Helvetica" font-size="14.00"> are subsequently grouped.</text>
</g>
<!-- FitFunction&#45;&gt;PlotPeakByLogValue -->
<g id="edge10" class="edge">
<title>FitFunction&#45;&gt;PlotPeakByLogValue</title>
<path fill="none" stroke="black" d="M796.87,-494.21C804.44,-482.06 814.81,-465.43 823.41,-451.63"/>
<polygon fill="black" stroke="black" points="826.44,-453.39 828.76,-443.05 820.5,-449.68 826.44,-453.39"/>
</g>
<!-- FitType -->
<g id="node35" class="node">
<title>FitType</title>
<ellipse fill="lightgrey" stroke="black" cx="1476.39" cy="-425" rx="39.79" ry="18"/>
<text text-anchor="middle" x="1476.39" y="-421.3" font-family="Helvetica" font-size="14.00">FitType</text>
</g>
<!-- FitType&#45;&gt;ParameterNames -->
<g id="edge25" class="edge">
<title>FitType&#45;&gt;ParameterNames</title>
<path fill="none" stroke="black" d="M1473.33,-406.98C1472.32,-396.91 1472.51,-384.17 1477.39,-374 1479.49,-369.63 1482.43,-365.61 1485.78,-361.98"/>
<polygon fill="black" stroke="black" points="1488.23,-364.48 1493.11,-355.07 1483.43,-359.38 1488.23,-364.48"/>
<text text-anchor="middle" x="1604.89" y="-377.8" font-family="Helvetica" font-size="14.00">Desired parameters obtained from FitType</text>
</g>
<!-- ResultWorkspace&#45;&gt;CopyLogs -->
<g id="edge30" class="edge">
<title>ResultWorkspace&#45;&gt;CopyLogs</title>
<path fill="none" stroke="black" d="M1385.45,-160.54C1400.96,-149.65 1422.58,-135.8 1443.39,-127 1473.28,-114.36 1508.72,-105.62 1536.72,-100.03"/>
<polygon fill="black" stroke="black" points="1537.51,-103.44 1546.67,-98.11 1536.19,-96.57 1537.51,-103.44"/>
<text text-anchor="middle" x="1492.89" y="-130.8" font-family="Helvetica" font-size="14.00">Input workspace</text>
</g>
<!-- FitWorkspace -->
<g id="node37" class="node">
<title>FitWorkspace</title>
<ellipse fill="lightgrey" stroke="black" cx="1654.39" cy="-178" rx="64.19" ry="18"/>
<text text-anchor="middle" x="1654.39" y="-174.3" font-family="Helvetica" font-size="14.00">FitWorkspace</text>
</g>
<!-- FitWorkspace&#45;&gt;CopyLogs -->
<g id="edge33" class="edge">
<title>FitWorkspace&#45;&gt;CopyLogs</title>
<path fill="none" stroke="black" d="M1640.76,-160.21C1630.72,-147.83 1616.89,-130.8 1605.56,-116.85"/>
<polygon fill="black" stroke="black" points="1608.25,-114.61 1599.23,-109.05 1602.82,-119.02 1608.25,-114.61"/>
</g>
</g>
</svg>
