<?xml version="1.0" encoding="UTF-8" standalone="no"?>
<!DOCTYPE svg PUBLIC "-//W3C//DTD SVG 1.1//EN"
 "http://www.w3.org/Graphics/SVG/1.1/DTD/svg11.dtd">
<!-- Generated by graphviz version 3.0.0 (20220315.2325)
 -->
<!-- Title: QENSFitSequential Pages: 1 -->
<svg width="2065pt" height="695pt"
 viewBox="0.00 0.00 2065.39 695.00" xmlns="http://www.w3.org/2000/svg" xmlns:xlink="http://www.w3.org/1999/xlink">
<g id="graph0" class="graph" transform="scale(1 1) rotate(0) translate(4 691)">
<title>QENSFitSequential</title>
<polygon fill="white" stroke="transparent" points="-4,4 -4,-691 2061.39,-691 2061.39,4 -4,4"/>
<text text-anchor="middle" x="1028.7" y="-671.8" font-family="Helvetica,sans-Serif" font-size="14.00">QENSFitSequential Flowchart</text>
<!-- InputWorkspace -->
<g id="node1" class="node">
<title>InputWorkspace</title>
<ellipse fill="khaki" stroke="black" cx="1739.89" cy="-622.5" rx="84.49" ry="18"/>
<text text-anchor="middle" x="1739.89" y="-618.8" font-family="Helvetica,sans-Serif" font-size="14.00">InputWorkspace</text>
</g>
<!-- ConvertSpectrumAxis -->
<g id="node25" class="node">
<title>ConvertSpectrumAxis</title>
<path fill="lightskyblue" stroke="black" d="M1187.89,-530C1187.89,-530 1043.89,-530 1043.89,-530 1037.89,-530 1031.89,-524 1031.89,-518 1031.89,-518 1031.89,-506 1031.89,-506 1031.89,-500 1037.89,-494 1043.89,-494 1043.89,-494 1187.89,-494 1187.89,-494 1193.89,-494 1199.89,-500 1199.89,-506 1199.89,-506 1199.89,-518 1199.89,-518 1199.89,-524 1193.89,-530 1187.89,-530"/>
<text text-anchor="middle" x="1115.89" y="-508.3" font-family="Helvetica,sans-Serif" font-size="14.00">ConvertSpectrumAxis</text>
</g>
<!-- InputWorkspace&#45;&gt;ConvertSpectrumAxis -->
<g id="edge7" class="edge">
<title>InputWorkspace&#45;&gt;ConvertSpectrumAxis</title>
<path fill="none" stroke="black" d="M1683.75,-609.01C1610.8,-593.12 1479.34,-565.62 1365.89,-548 1299.61,-537.7 1280.1,-540.07 1210.21,-530.12"/>
<polygon fill="black" stroke="black" points="1210.4,-526.61 1200,-528.63 1209.39,-533.54 1210.4,-526.61"/>
<text text-anchor="middle" x="1557.89" y="-551.8" font-family="Helvetica,sans-Serif" font-size="14.00">Attempt conversion to Elastic Q</text>
</g>
<!-- CopyLogs -->
<g id="node30" class="node">
<title>CopyLogs</title>
<path fill="lightskyblue" stroke="black" d="M1760.89,-109C1760.89,-109 1700.89,-109 1700.89,-109 1694.89,-109 1688.89,-103 1688.89,-97 1688.89,-97 1688.89,-85 1688.89,-85 1688.89,-79 1694.89,-73 1700.89,-73 1700.89,-73 1760.89,-73 1760.89,-73 1766.89,-73 1772.89,-79 1772.89,-85 1772.89,-85 1772.89,-97 1772.89,-97 1772.89,-103 1766.89,-109 1760.89,-109"/>
<text text-anchor="middle" x="1730.89" y="-87.3" font-family="Helvetica,sans-Serif" font-size="14.00">CopyLogs</text>
</g>
<!-- InputWorkspace&#45;&gt;CopyLogs -->
<g id="edge29" class="edge">
<title>InputWorkspace&#45;&gt;CopyLogs</title>
<path fill="none" stroke="black" d="M1776.1,-606.1C1824.67,-584.28 1904.89,-543.6 1904.89,-513 1904.89,-513 1904.89,-513 1904.89,-177 1904.89,-122.16 1834.24,-102.69 1782.98,-95.79"/>
<polygon fill="black" stroke="black" points="1783.37,-92.31 1773.01,-94.57 1782.52,-99.26 1783.37,-92.31"/>
</g>
<!-- do_extract_members -->
<g id="node32" class="node">
<title>do_extract_members</title>
<polygon fill="limegreen" stroke="black" points="1102.89,-196 950.23,-178 1102.89,-160 1255.55,-178 1102.89,-196"/>
<text text-anchor="middle" x="1102.89" y="-174.3" font-family="Helvetica,sans-Serif" font-size="14.00">Do Extract Members?</text>
</g>
<!-- InputWorkspace&#45;&gt;do_extract_members -->
<g id="edge38" class="edge">
<title>InputWorkspace&#45;&gt;do_extract_members</title>
<path fill="none" stroke="black" d="M1771.92,-605.82C1789.82,-597.54 1812.73,-587.73 1833.89,-581 1870.7,-569.3 1894.58,-593 1918.89,-563 1938.49,-538.82 1921.09,-517.34 1885.89,-494 1822.22,-451.78 1603.95,-492.67 1545.89,-443 1490.67,-395.76 1549.22,-337.43 1496.89,-287 1426.04,-218.7 1316.24,-192.71 1230.53,-183.23"/>
<polygon fill="black" stroke="black" points="1230.78,-179.74 1220.47,-182.18 1230.05,-186.7 1230.78,-179.74"/>
</g>
<!-- FitFunction -->
<g id="node34" class="node">
<title>FitFunction</title>
<ellipse fill="lightgrey" stroke="black" cx="857.89" cy="-512" rx="59.59" ry="18"/>
<text text-anchor="middle" x="857.89" y="-508.3" font-family="Helvetica,sans-Serif" font-size="14.00">FitFunction</text>
</g>
<!-- InputWorkspace&#45;&gt;FitFunction -->
<g id="edge1" class="edge">
<title>InputWorkspace&#45;&gt;FitFunction</title>
<path fill="none" stroke="black" d="M1666.62,-613.51C1473.53,-592.43 963.12,-536.47 926.89,-530 921.79,-529.09 916.5,-528.02 911.22,-526.86"/>
<polygon fill="black" stroke="black" points="911.67,-523.38 901.14,-524.56 910.11,-530.2 911.67,-523.38"/>
</g>
<!-- Input -->
<g id="node2" class="node">
<title>Input</title>
<ellipse fill="khaki" stroke="black" cx="700.89" cy="-622.5" rx="34.39" ry="18"/>
<text text-anchor="middle" x="700.89" y="-618.8" font-family="Helvetica,sans-Serif" font-size="14.00">Input</text>
</g>
<!-- PlotPeakByLogValue -->
<g id="node26" class="node">
<title>PlotPeakByLogValue</title>
<path fill="lightskyblue" stroke="black" d="M958.89,-443C958.89,-443 826.89,-443 826.89,-443 820.89,-443 814.89,-437 814.89,-431 814.89,-431 814.89,-419 814.89,-419 814.89,-413 820.89,-407 826.89,-407 826.89,-407 958.89,-407 958.89,-407 964.89,-407 970.89,-413 970.89,-419 970.89,-419 970.89,-431 970.89,-431 970.89,-437 964.89,-443 958.89,-443"/>
<text text-anchor="middle" x="892.89" y="-421.3" font-family="Helvetica,sans-Serif" font-size="14.00">PlotPeakByLogValue</text>
</g>
<!-- Input&#45;&gt;PlotPeakByLogValue -->
<g id="edge9" class="edge">
<title>Input&#45;&gt;PlotPeakByLogValue</title>
<path fill="none" stroke="black" d="M709.68,-604.69C723.83,-578.75 753.66,-528.36 788.89,-494 807.32,-476.03 831.17,-460.03 851.38,-448.08"/>
<polygon fill="black" stroke="black" points="853.18,-451.08 860.08,-443.04 849.68,-445.02 853.18,-451.08"/>
</g>
<!-- Input&#45;&gt;FitFunction -->
<g id="edge2" class="edge">
<title>Input&#45;&gt;FitFunction</title>
<path fill="none" stroke="black" d="M716.11,-606.07C724.29,-598.15 734.76,-588.59 744.89,-581 768.89,-563.02 797.91,-545.65 820.53,-532.96"/>
<polygon fill="black" stroke="black" points="822.44,-535.9 829.48,-527.99 819.04,-529.78 822.44,-535.9"/>
</g>
<!-- FitParameters -->
<g id="node3" class="node">
<title>FitParameters</title>
<ellipse fill="khaki" stroke="black" cx="826.89" cy="-622.5" rx="73.39" ry="18"/>
<text text-anchor="middle" x="826.89" y="-618.8" font-family="Helvetica,sans-Serif" font-size="14.00">FitParameters</text>
</g>
<!-- FitParameters&#45;&gt;FitFunction -->
<g id="edge4" class="edge">
<title>FitParameters&#45;&gt;FitFunction</title>
<path fill="none" stroke="black" d="M831.87,-604.07C836.83,-586.72 844.5,-559.87 850.23,-539.82"/>
<polygon fill="black" stroke="black" points="853.65,-540.61 853.03,-530.03 846.92,-538.69 853.65,-540.61"/>
</g>
<!-- Function -->
<g id="node4" class="node">
<title>Function</title>
<ellipse fill="khaki" stroke="black" cx="966.89" cy="-622.5" rx="48.99" ry="18"/>
<text text-anchor="middle" x="966.89" y="-618.8" font-family="Helvetica,sans-Serif" font-size="14.00">Function</text>
</g>
<!-- Function&#45;&gt;FitFunction -->
<g id="edge3" class="edge">
<title>Function&#45;&gt;FitFunction</title>
<path fill="none" stroke="black" d="M950.81,-605.49C932.56,-587.33 902.62,-557.52 881.67,-536.67"/>
<polygon fill="black" stroke="black" points="883.96,-534.01 874.4,-529.43 879.02,-538.97 883.96,-534.01"/>
</g>
<!-- StartX -->
<g id="node5" class="node">
<title>StartX</title>
<ellipse fill="khaki" stroke="black" cx="974.89" cy="-512" rx="38.99" ry="18"/>
<text text-anchor="middle" x="974.89" y="-508.3" font-family="Helvetica,sans-Serif" font-size="14.00">StartX</text>
</g>
<!-- StartX&#45;&gt;PlotPeakByLogValue -->
<g id="edge11" class="edge">
<title>StartX&#45;&gt;PlotPeakByLogValue</title>
<path fill="none" stroke="black" d="M959.47,-495.01C947.41,-482.51 930.44,-464.92 916.66,-450.63"/>
<polygon fill="black" stroke="black" points="918.84,-447.85 909.37,-443.08 913.8,-452.71 918.84,-447.85"/>
</g>
<!-- EndX -->
<g id="node6" class="node">
<title>EndX</title>
<ellipse fill="khaki" stroke="black" cx="1251.89" cy="-512" rx="34.39" ry="18"/>
<text text-anchor="middle" x="1251.89" y="-508.3" font-family="Helvetica,sans-Serif" font-size="14.00">EndX</text>
</g>
<!-- EndX&#45;&gt;PlotPeakByLogValue -->
<g id="edge12" class="edge">
<title>EndX&#45;&gt;PlotPeakByLogValue</title>
<path fill="none" stroke="black" d="M1228.36,-498.78C1205.19,-487.27 1168.5,-470.44 1134.89,-461 1084.92,-446.97 1027.47,-438.35 981.09,-433.19"/>
<polygon fill="black" stroke="black" points="981.39,-429.7 971.07,-432.1 980.64,-436.66 981.39,-429.7"/>
</g>
<!-- SpecMin -->
<g id="node7" class="node">
<title>SpecMin</title>
<ellipse fill="khaki" stroke="black" cx="1081.89" cy="-622.5" rx="48.99" ry="18"/>
<text text-anchor="middle" x="1081.89" y="-618.8" font-family="Helvetica,sans-Serif" font-size="14.00">SpecMin</text>
</g>
<!-- SpecMin&#45;&gt;FitFunction -->
<g id="edge5" class="edge">
<title>SpecMin&#45;&gt;FitFunction</title>
<path fill="none" stroke="black" d="M1062.32,-605.88C1051.65,-597.82 1037.98,-588.19 1024.89,-581 986.56,-559.95 940.33,-541.62 906.24,-529.31"/>
<polygon fill="black" stroke="black" points="907.11,-525.91 896.52,-525.85 904.76,-532.5 907.11,-525.91"/>
</g>
<!-- SpecMax -->
<g id="node8" class="node">
<title>SpecMax</title>
<ellipse fill="khaki" stroke="black" cx="1199.89" cy="-622.5" rx="51.19" ry="18"/>
<text text-anchor="middle" x="1199.89" y="-618.8" font-family="Helvetica,sans-Serif" font-size="14.00">SpecMax</text>
</g>
<!-- SpecMax&#45;&gt;FitFunction -->
<g id="edge6" class="edge">
<title>SpecMax&#45;&gt;FitFunction</title>
<path fill="none" stroke="black" d="M1180.4,-605.71C1169.15,-597.29 1154.39,-587.38 1139.89,-581 1050.79,-541.81 1021.49,-552.98 926.89,-530 922.2,-528.86 917.32,-527.67 912.43,-526.47"/>
<polygon fill="black" stroke="black" points="912.97,-523 902.42,-524.02 911.3,-529.8 912.97,-523"/>
</g>
<!-- ConvolveMembers -->
<g id="node9" class="node">
<title>ConvolveMembers</title>
<ellipse fill="khaki" stroke="black" cx="1398.89" cy="-512" rx="94.48" ry="18"/>
<text text-anchor="middle" x="1398.89" y="-508.3" font-family="Helvetica,sans-Serif" font-size="14.00">ConvolveMembers</text>
</g>
<!-- ConvolveMembers&#45;&gt;PlotPeakByLogValue -->
<g id="edge13" class="edge">
<title>ConvolveMembers&#45;&gt;PlotPeakByLogValue</title>
<path fill="none" stroke="black" d="M1343.17,-497.37C1296.97,-486.43 1229.45,-471.24 1169.89,-461 1107.05,-450.19 1035.64,-441.25 981.07,-435.11"/>
<polygon fill="black" stroke="black" points="981.4,-431.62 971.08,-433.99 980.63,-438.58 981.4,-431.62"/>
</g>
<!-- ExtractMembers -->
<g id="node10" class="node">
<title>ExtractMembers</title>
<ellipse fill="khaki" stroke="black" cx="457.89" cy="-251" rx="85.29" ry="18"/>
<text text-anchor="middle" x="457.89" y="-247.3" font-family="Helvetica,sans-Serif" font-size="14.00">ExtractMembers</text>
</g>
<!-- ExtractMembers&#45;&gt;do_extract_members -->
<g id="edge36" class="edge">
<title>ExtractMembers&#45;&gt;do_extract_members</title>
<path fill="none" stroke="black" d="M518.46,-238.3C529.55,-236.37 541.05,-234.51 551.89,-233 709.07,-211.12 892.68,-195 1003.26,-186.32"/>
<polygon fill="black" stroke="black" points="1003.7,-189.79 1013.4,-185.52 1003.16,-182.81 1003.7,-189.79"/>
</g>
<!-- PassWSIndexToFunction -->
<g id="node11" class="node">
<title>PassWSIndexToFunction</title>
<ellipse fill="khaki" stroke="black" cx="1629.89" cy="-512" rx="118.88" ry="18"/>
<text text-anchor="middle" x="1629.89" y="-508.3" font-family="Helvetica,sans-Serif" font-size="14.00">PassWSIndexToFunction</text>
</g>
<!-- PassWSIndexToFunction&#45;&gt;PlotPeakByLogValue -->
<g id="edge19" class="edge">
<title>PassWSIndexToFunction&#45;&gt;PlotPeakByLogValue</title>
<path fill="none" stroke="black" d="M1544.2,-499.44C1530.07,-497.58 1515.57,-495.71 1501.89,-494 1377.12,-478.39 1345.86,-475 1220.89,-461 1139.7,-451.9 1047.12,-442.07 981.08,-435.15"/>
<polygon fill="black" stroke="black" points="981.43,-431.67 971.12,-434.11 980.7,-438.63 981.43,-431.67"/>
</g>
<!-- Minimizer -->
<g id="node12" class="node">
<title>Minimizer</title>
<ellipse fill="khaki" stroke="black" cx="1821.89" cy="-512" rx="54.69" ry="18"/>
<text text-anchor="middle" x="1821.89" y="-508.3" font-family="Helvetica,sans-Serif" font-size="14.00">Minimizer</text>
</g>
<!-- Minimizer&#45;&gt;PlotPeakByLogValue -->
<g id="edge15" class="edge">
<title>Minimizer&#45;&gt;PlotPeakByLogValue</title>
<path fill="none" stroke="black" d="M1782.54,-499.35C1774.45,-497.29 1765.94,-495.37 1757.89,-494 1476.74,-446.02 1138.29,-431.81 981.1,-427.67"/>
<polygon fill="black" stroke="black" points="981.1,-424.17 971.01,-427.41 980.92,-431.17 981.1,-424.17"/>
</g>
<!-- CostFunction -->
<g id="node13" class="node">
<title>CostFunction</title>
<ellipse fill="khaki" stroke="black" cx="68.89" cy="-512" rx="68.79" ry="18"/>
<text text-anchor="middle" x="68.89" y="-508.3" font-family="Helvetica,sans-Serif" font-size="14.00">CostFunction</text>
</g>
<!-- CostFunction&#45;&gt;PlotPeakByLogValue -->
<g id="edge16" class="edge">
<title>CostFunction&#45;&gt;PlotPeakByLogValue</title>
<path fill="none" stroke="black" d="M118.68,-499.37C128.03,-497.41 137.73,-495.52 146.89,-494 382.66,-454.81 664.37,-436.84 804.56,-429.82"/>
<polygon fill="black" stroke="black" points="805,-433.31 814.82,-429.32 804.66,-426.32 805,-433.31"/>
</g>
<!-- MaxIterations -->
<g id="node14" class="node">
<title>MaxIterations</title>
<ellipse fill="khaki" stroke="black" cx="227.89" cy="-512" rx="72.29" ry="18"/>
<text text-anchor="middle" x="227.89" y="-508.3" font-family="Helvetica,sans-Serif" font-size="14.00">MaxIterations</text>
</g>
<!-- MaxIterations&#45;&gt;PlotPeakByLogValue -->
<g id="edge14" class="edge">
<title>MaxIterations&#45;&gt;PlotPeakByLogValue</title>
<path fill="none" stroke="black" d="M280.07,-499.45C289.63,-497.5 299.55,-495.6 308.89,-494 483.47,-464.15 689.68,-443.53 804.45,-433.33"/>
<polygon fill="black" stroke="black" points="804.93,-436.81 814.58,-432.44 804.31,-429.83 804.93,-436.81"/>
</g>
<!-- PeakRadius -->
<g id="node15" class="node">
<title>PeakRadius</title>
<ellipse fill="khaki" stroke="black" cx="380.89" cy="-512" rx="63.09" ry="18"/>
<text text-anchor="middle" x="380.89" y="-508.3" font-family="Helvetica,sans-Serif" font-size="14.00">PeakRadius</text>
</g>
<!-- PeakRadius&#45;&gt;PlotPeakByLogValue -->
<g id="edge17" class="edge">
<title>PeakRadius&#45;&gt;PlotPeakByLogValue</title>
<path fill="none" stroke="black" d="M426.87,-499.58C435.49,-497.6 444.45,-495.65 452.89,-494 574.16,-470.35 715.53,-449.72 804.62,-437.57"/>
<polygon fill="black" stroke="black" points="805.24,-441.01 814.68,-436.2 804.3,-434.08 805.24,-441.01"/>
</g>
<!-- EvaluationType -->
<g id="node16" class="node">
<title>EvaluationType</title>
<ellipse fill="khaki" stroke="black" cx="540.89" cy="-512" rx="79.09" ry="18"/>
<text text-anchor="middle" x="540.89" y="-508.3" font-family="Helvetica,sans-Serif" font-size="14.00">EvaluationType</text>
</g>
<!-- EvaluationType&#45;&gt;PlotPeakByLogValue -->
<g id="edge20" class="edge">
<title>EvaluationType&#45;&gt;PlotPeakByLogValue</title>
<path fill="none" stroke="black" d="M588.37,-497.57C626.07,-487.09 680.18,-472.43 727.89,-461 752.78,-455.04 779.91,-449.07 804.84,-443.79"/>
<polygon fill="black" stroke="black" points="805.58,-447.21 814.65,-441.72 804.14,-440.36 805.58,-447.21"/>
</g>
<!-- LogValue -->
<g id="node17" class="node">
<title>LogValue</title>
<ellipse fill="khaki" stroke="black" cx="689.89" cy="-512" rx="51.99" ry="18"/>
<text text-anchor="middle" x="689.89" y="-508.3" font-family="Helvetica,sans-Serif" font-size="14.00">LogValue</text>
</g>
<!-- LogValue&#45;&gt;PlotPeakByLogValue -->
<g id="edge18" class="edge">
<title>LogValue&#45;&gt;PlotPeakByLogValue</title>
<path fill="none" stroke="black" d="M707.1,-494.89C719.73,-483.87 737.77,-469.74 755.89,-461 771.14,-453.65 788.12,-447.72 804.79,-442.97"/>
<polygon fill="black" stroke="black" points="805.82,-446.32 814.55,-440.32 803.98,-439.57 805.82,-446.32"/>
</g>
<!-- FitWorkspaces -->
<g id="node18" class="node">
<title>FitWorkspaces</title>
<ellipse fill="khaki" stroke="black" cx="1235.89" cy="-338" rx="76.09" ry="18"/>
<text text-anchor="middle" x="1235.89" y="-334.3" font-family="Helvetica,sans-Serif" font-size="14.00">FitWorkspaces</text>
</g>
<!-- RenameWorkspace -->
<g id="node31" class="node">
<title>RenameWorkspace</title>
<path fill="lightskyblue" stroke="black" d="M1165.89,-269C1165.89,-269 1039.89,-269 1039.89,-269 1033.89,-269 1027.89,-263 1027.89,-257 1027.89,-257 1027.89,-245 1027.89,-245 1027.89,-239 1033.89,-233 1039.89,-233 1039.89,-233 1165.89,-233 1165.89,-233 1171.89,-233 1177.89,-239 1177.89,-245 1177.89,-245 1177.89,-257 1177.89,-257 1177.89,-263 1171.89,-269 1165.89,-269"/>
<text text-anchor="middle" x="1102.89" y="-247.3" font-family="Helvetica,sans-Serif" font-size="14.00">RenameWorkspace</text>
</g>
<!-- FitWorkspaces&#45;&gt;RenameWorkspace -->
<g id="edge35" class="edge">
<title>FitWorkspaces&#45;&gt;RenameWorkspace</title>
<path fill="none" stroke="black" d="M1256.64,-320.55C1266.87,-310.45 1275.37,-297.48 1266.89,-287 1256.44,-274.07 1222.66,-265.71 1188.46,-260.42"/>
<polygon fill="black" stroke="black" points="1188.74,-256.92 1178.34,-258.94 1187.73,-263.85 1188.74,-256.92"/>
<text text-anchor="middle" x="1381.39" y="-290.8" font-family="Helvetica,sans-Serif" font-size="14.00">Renames to match input names</text>
</g>
<!-- NormalisedCovarianceWorkspace -->
<g id="node19" class="node">
<title>NormalisedCovarianceWorkspace</title>
<ellipse fill="khaki" stroke="black" cx="629.89" cy="-338" rx="161.67" ry="18"/>
<text text-anchor="middle" x="629.89" y="-334.3" font-family="Helvetica,sans-Serif" font-size="14.00">NormalisedCovarianceWorkspace</text>
</g>
<!-- DeleteWorkspace -->
<g id="node27" class="node">
<title>DeleteWorkspace</title>
<path fill="lightskyblue" stroke="black" d="M686.39,-269C686.39,-269 573.39,-269 573.39,-269 567.39,-269 561.39,-263 561.39,-257 561.39,-257 561.39,-245 561.39,-245 561.39,-239 567.39,-233 573.39,-233 573.39,-233 686.39,-233 686.39,-233 692.39,-233 698.39,-239 698.39,-245 698.39,-245 698.39,-257 698.39,-257 698.39,-263 692.39,-269 686.39,-269"/>
<text text-anchor="middle" x="629.89" y="-247.3" font-family="Helvetica,sans-Serif" font-size="14.00">DeleteWorkspace</text>
</g>
<!-- NormalisedCovarianceWorkspace&#45;&gt;DeleteWorkspace -->
<g id="edge24" class="edge">
<title>NormalisedCovarianceWorkspace&#45;&gt;DeleteWorkspace</title>
<path fill="none" stroke="black" d="M629.89,-319.8C629.89,-308.16 629.89,-292.55 629.89,-279.24"/>
<polygon fill="black" stroke="black" points="633.39,-279.18 629.89,-269.18 626.39,-279.18 633.39,-279.18"/>
<text text-anchor="middle" x="778.89" y="-290.8" font-family="Helvetica,sans-Serif" font-size="14.00">Unrequired product of PlotPeakByLogValue</text>
</g>
<!-- ParameterNames -->
<g id="node20" class="node">
<title>ParameterNames</title>
<ellipse fill="khaki" stroke="black" cx="1646.89" cy="-338" rx="89.08" ry="18"/>
<text text-anchor="middle" x="1646.89" y="-334.3" font-family="Helvetica,sans-Serif" font-size="14.00">ParameterNames</text>
</g>
<!-- ProcessIndirectFitParameters -->
<g id="node29" class="node">
<title>ProcessIndirectFitParameters</title>
<path fill="lightskyblue" stroke="black" d="M1750.89,-269C1750.89,-269 1556.89,-269 1556.89,-269 1550.89,-269 1544.89,-263 1544.89,-257 1544.89,-257 1544.89,-245 1544.89,-245 1544.89,-239 1550.89,-233 1556.89,-233 1556.89,-233 1750.89,-233 1750.89,-233 1756.89,-233 1762.89,-239 1762.89,-245 1762.89,-245 1762.89,-257 1762.89,-257 1762.89,-263 1756.89,-269 1750.89,-269"/>
<text text-anchor="middle" x="1653.89" y="-247.3" font-family="Helvetica,sans-Serif" font-size="14.00">ProcessIndirectFitParameters</text>
</g>
<!-- ParameterNames&#45;&gt;ProcessIndirectFitParameters -->
<g id="edge27" class="edge">
<title>ParameterNames&#45;&gt;ProcessIndirectFitParameters</title>
<path fill="none" stroke="black" d="M1648.31,-319.8C1649.27,-308.16 1650.55,-292.55 1651.65,-279.24"/>
<polygon fill="black" stroke="black" points="1655.15,-279.43 1652.48,-269.18 1648.17,-278.85 1655.15,-279.43"/>
</g>
<!-- OutputWorkspace -->
<g id="node21" class="node">
<title>OutputWorkspace</title>
<ellipse fill="khaki" stroke="black" cx="1730.89" cy="-18" rx="92.08" ry="18"/>
<text text-anchor="middle" x="1730.89" y="-14.3" font-family="Helvetica,sans-Serif" font-size="14.00">OutputWorkspace</text>
</g>
<!-- OutputParameterWorkspace -->
<g id="node22" class="node">
<title>OutputParameterWorkspace</title>
<ellipse fill="khaki" stroke="black" cx="948.89" cy="-338" rx="139.18" ry="18"/>
<text text-anchor="middle" x="948.89" y="-334.3" font-family="Helvetica,sans-Serif" font-size="14.00">OutputParameterWorkspace</text>
</g>
<!-- OutputParameterWorkspace&#45;&gt;ProcessIndirectFitParameters -->
<g id="edge26" class="edge">
<title>OutputParameterWorkspace&#45;&gt;ProcessIndirectFitParameters</title>
<path fill="none" stroke="black" d="M946.65,-319.6C946.29,-308.6 947.99,-294.98 956.89,-287 967.49,-277.49 1338.35,-263.08 1534.67,-256.09"/>
<polygon fill="black" stroke="black" points="1534.88,-259.58 1544.75,-255.73 1534.63,-252.59 1534.88,-259.58"/>
</g>
<!-- OutputParameterWorkspace&#45;&gt;RenameWorkspace -->
<g id="edge34" class="edge">
<title>OutputParameterWorkspace&#45;&gt;RenameWorkspace</title>
<path fill="none" stroke="black" d="M953.13,-319.86C956.68,-308.96 962.82,-295.37 972.89,-287 985.89,-276.2 1001.92,-268.71 1018.23,-263.52"/>
<polygon fill="black" stroke="black" points="1019.22,-266.88 1027.84,-260.72 1017.26,-260.16 1019.22,-266.88"/>
<text text-anchor="middle" x="1117.89" y="-290.8" font-family="Helvetica,sans-Serif" font-size="14.00">Change name to expected name for table</text>
</g>
<!-- OutputWorkspaceGroup -->
<g id="node23" class="node">
<title>OutputWorkspaceGroup</title>
<ellipse fill="khaki" stroke="black" cx="1102.89" cy="-18" rx="119.68" ry="18"/>
<text text-anchor="middle" x="1102.89" y="-14.3" font-family="Helvetica,sans-Serif" font-size="14.00">OutputWorkspaceGroup</text>
</g>
<!-- SampleLog -->
<g id="node24" class="node">
<title>SampleLog</title>
<ellipse fill="khaki" stroke="black" cx="1655.89" cy="-178" rx="60.39" ry="18"/>
<text text-anchor="middle" x="1655.89" y="-174.3" font-family="Helvetica,sans-Serif" font-size="14.00">SampleLog</text>
</g>
<!-- SampleLog&#45;&gt;CopyLogs -->
<g id="edge32" class="edge">
<title>SampleLog&#45;&gt;CopyLogs</title>
<path fill="none" stroke="black" d="M1670.71,-160.21C1681.63,-147.83 1696.66,-130.8 1708.97,-116.85"/>
<polygon fill="black" stroke="black" points="1711.86,-118.86 1715.85,-109.05 1706.61,-114.23 1711.86,-118.86"/>
</g>
<!-- ConvertSpectrumAxis&#45;&gt;PlotPeakByLogValue -->
<g id="edge8" class="edge">
<title>ConvertSpectrumAxis&#45;&gt;PlotPeakByLogValue</title>
<path fill="none" stroke="black" d="M1071.03,-493.9C1035.27,-480.27 985.07,-461.13 947.06,-446.65"/>
<polygon fill="black" stroke="black" points="948.27,-443.36 937.68,-443.07 945.78,-449.9 948.27,-443.36"/>
<text text-anchor="middle" x="1073.89" y="-464.8" font-family="Helvetica,sans-Serif" font-size="14.00">InputWorkspace</text>
</g>
<!-- PlotPeakByLogValue&#45;&gt;FitWorkspaces -->
<g id="edge23" class="edge">
<title>PlotPeakByLogValue&#45;&gt;FitWorkspaces</title>
<path fill="none" stroke="black" d="M961.89,-406.9C1024.4,-391.41 1115.6,-368.81 1175.34,-354.01"/>
<polygon fill="black" stroke="black" points="1176.51,-357.32 1185.38,-351.52 1174.83,-350.53 1176.51,-357.32"/>
</g>
<!-- PlotPeakByLogValue&#45;&gt;NormalisedCovarianceWorkspace -->
<g id="edge21" class="edge">
<title>PlotPeakByLogValue&#45;&gt;NormalisedCovarianceWorkspace</title>
<path fill="none" stroke="black" d="M839.99,-406.9C796.53,-392.85 734.97,-372.96 689.72,-358.34"/>
<polygon fill="black" stroke="black" points="690.63,-354.95 680.04,-355.21 688.48,-361.61 690.63,-354.95"/>
</g>
<!-- PlotPeakByLogValue&#45;&gt;OutputParameterWorkspace -->
<g id="edge22" class="edge">
<title>PlotPeakByLogValue&#45;&gt;OutputParameterWorkspace</title>
<path fill="none" stroke="black" d="M904.23,-406.8C912.2,-394.7 923,-378.3 931.98,-364.67"/>
<polygon fill="black" stroke="black" points="935,-366.45 937.58,-356.18 929.15,-362.6 935,-366.45"/>
</g>
<!-- ExtractQENSMembers -->
<g id="node28" class="node">
<title>ExtractQENSMembers</title>
<path fill="lightskyblue" stroke="black" d="M1175.89,-109C1175.89,-109 1029.89,-109 1029.89,-109 1023.89,-109 1017.89,-103 1017.89,-97 1017.89,-97 1017.89,-85 1017.89,-85 1017.89,-79 1023.89,-73 1029.89,-73 1029.89,-73 1175.89,-73 1175.89,-73 1181.89,-73 1187.89,-79 1187.89,-85 1187.89,-85 1187.89,-97 1187.89,-97 1187.89,-103 1181.89,-109 1175.89,-109"/>
<text text-anchor="middle" x="1102.89" y="-87.3" font-family="Helvetica,sans-Serif" font-size="14.00">ExtractQENSMembers</text>
</g>
<!-- ExtractQENSMembers&#45;&gt;OutputWorkspaceGroup -->
<g id="edge40" class="edge">
<title>ExtractQENSMembers&#45;&gt;OutputWorkspaceGroup</title>
<path fill="none" stroke="black" d="M1102.89,-72.81C1102.89,-64.79 1102.89,-55.05 1102.89,-46.07"/>
<polygon fill="black" stroke="black" points="1106.39,-46.03 1102.89,-36.03 1099.39,-46.03 1106.39,-46.03"/>
</g>
<!-- ResultWorkspace -->
<g id="node36" class="node">
<title>ResultWorkspace</title>
<ellipse fill="lightgrey" stroke="black" cx="1488.89" cy="-178" rx="89.08" ry="18"/>
<text text-anchor="middle" x="1488.89" y="-174.3" font-family="Helvetica,sans-Serif" font-size="14.00">ResultWorkspace</text>
</g>
<!-- ProcessIndirectFitParameters&#45;&gt;ResultWorkspace -->
<g id="edge28" class="edge">
<title>ProcessIndirectFitParameters&#45;&gt;ResultWorkspace</title>
<path fill="none" stroke="black" d="M1614.37,-232.99C1590.28,-222.63 1559.4,-209.34 1534.3,-198.54"/>
<polygon fill="black" stroke="black" points="1535.56,-195.27 1524.99,-194.53 1532.8,-201.7 1535.56,-195.27"/>
</g>
<!-- CopyLogs&#45;&gt;OutputWorkspace -->
<g id="edge31" class="edge">
<title>CopyLogs&#45;&gt;OutputWorkspace</title>
<path fill="none" stroke="black" d="M1730.89,-72.81C1730.89,-64.79 1730.89,-55.05 1730.89,-46.07"/>
<polygon fill="black" stroke="black" points="1734.39,-46.03 1730.89,-36.03 1727.39,-46.03 1734.39,-46.03"/>
</g>
<!-- RenameWorkspace&#45;&gt;do_extract_members -->
<g id="edge37" class="edge">
<title>RenameWorkspace&#45;&gt;do_extract_members</title>
<path fill="none" stroke="black" d="M1102.89,-232.81C1102.89,-224.79 1102.89,-215.05 1102.89,-206.07"/>
<polygon fill="black" stroke="black" points="1106.39,-206.03 1102.89,-196.03 1099.39,-206.03 1106.39,-206.03"/>
</g>
<!-- do_extract_members&#45;&gt;ExtractQENSMembers -->
<g id="edge39" class="edge">
<title>do_extract_members&#45;&gt;ExtractQENSMembers</title>
<path fill="none" stroke="black" d="M1102.89,-159.8C1102.89,-148.16 1102.89,-132.55 1102.89,-119.24"/>
<polygon fill="black" stroke="black" points="1106.39,-119.18 1102.89,-109.18 1099.39,-119.18 1106.39,-119.18"/>
<text text-anchor="middle" x="1114.39" y="-130.8" font-family="Helvetica,sans-Serif" font-size="14.00">Yes</text>
</g>
<!-- extract_members -->
<g id="node33" class="node">
<title>extract_members</title>
<polygon fill="lightseagreen" stroke="black" points="2057.39,-664 1842.39,-664 1842.39,-581 2057.39,-581 2057.39,-664"/>
<text text-anchor="middle" x="1949.89" y="-648.8" font-family="Helvetica,sans-Serif" font-size="14.00">ExtractQENSMembers:</text>
<text text-anchor="middle" x="1949.89" y="-633.8" font-family="Helvetica,sans-Serif" font-size="14.00">Extracts the members of</text>
<text text-anchor="middle" x="1949.89" y="-618.8" font-family="Helvetica,sans-Serif" font-size="14.00">the convolution fit, into</text>
<text text-anchor="middle" x="1949.89" y="-603.8" font-family="Helvetica,sans-Serif" font-size="14.00"> their own workspace, which</text>
<text text-anchor="middle" x="1949.89" y="-588.8" font-family="Helvetica,sans-Serif" font-size="14.00"> are subsequently grouped.</text>
</g>
<!-- FitFunction&#45;&gt;PlotPeakByLogValue -->
<g id="edge10" class="edge">
<title>FitFunction&#45;&gt;PlotPeakByLogValue</title>
<path fill="none" stroke="black" d="M864.98,-493.8C869.86,-481.93 876.45,-465.93 882,-452.45"/>
<polygon fill="black" stroke="black" points="885.25,-453.75 885.82,-443.18 878.78,-451.09 885.25,-453.75"/>
</g>
<!-- FitType -->
<g id="node35" class="node">
<title>FitType</title>
<ellipse fill="lightgrey" stroke="black" cx="1596.89" cy="-425" rx="42.49" ry="18"/>
<text text-anchor="middle" x="1596.89" y="-421.3" font-family="Helvetica,sans-Serif" font-size="14.00">FitType</text>
</g>
<!-- FitType&#45;&gt;ParameterNames -->
<g id="edge25" class="edge">
<title>FitType&#45;&gt;ParameterNames</title>
<path fill="none" stroke="black" d="M1593.56,-406.84C1592.45,-396.72 1592.63,-383.98 1597.89,-374 1600.33,-369.38 1603.68,-365.23 1607.5,-361.54"/>
<polygon fill="black" stroke="black" points="1609.87,-364.12 1615.3,-355.02 1605.38,-358.75 1609.87,-364.12"/>
<text text-anchor="middle" x="1744.39" y="-377.8" font-family="Helvetica,sans-Serif" font-size="14.00">Desired parameters obtained from FitType</text>
</g>
<!-- ResultWorkspace&#45;&gt;CopyLogs -->
<g id="edge30" class="edge">
<title>ResultWorkspace&#45;&gt;CopyLogs</title>
<path fill="none" stroke="black" d="M1510.87,-160.34C1526.34,-149.37 1547.95,-135.5 1568.89,-127 1604.14,-112.69 1646.18,-103.83 1678.6,-98.6"/>
<polygon fill="black" stroke="black" points="1679.42,-102.01 1688.77,-97.03 1678.35,-95.1 1679.42,-102.01"/>
<text text-anchor="middle" x="1626.89" y="-130.8" font-family="Helvetica,sans-Serif" font-size="14.00">Input workspace</text>
</g>
<!-- FitWorkspace -->
<g id="node37" class="node">
<title>FitWorkspace</title>
<ellipse fill="lightgrey" stroke="black" cx="1805.89" cy="-178" rx="71.49" ry="18"/>
<text text-anchor="middle" x="1805.89" y="-174.3" font-family="Helvetica,sans-Serif" font-size="14.00">FitWorkspace</text>
</g>
<!-- FitWorkspace&#45;&gt;CopyLogs -->
<g id="edge33" class="edge">
<title>FitWorkspace&#45;&gt;CopyLogs</title>
<path fill="none" stroke="black" d="M1791.08,-160.21C1780.16,-147.83 1765.13,-130.8 1752.82,-116.85"/>
<polygon fill="black" stroke="black" points="1755.18,-114.23 1745.94,-109.05 1749.93,-118.86 1755.18,-114.23"/>
</g>
</g>
</svg>
