<?xml version="1.0" encoding="UTF-8" standalone="no"?>
<!DOCTYPE svg PUBLIC "-//W3C//DTD SVG 1.1//EN"
 "http://www.w3.org/Graphics/SVG/1.1/DTD/svg11.dtd">
<!-- Generated by graphviz version 7.0.5 (20221231.0122)
 -->
<!-- Title: QENSFitSequential Pages: 1 -->
<svg width="2065pt" height="695pt"
 viewBox="0.00 0.00 2065.39 695.00" xmlns="http://www.w3.org/2000/svg" xmlns:xlink="http://www.w3.org/1999/xlink">
<g id="graph0" class="graph" transform="scale(1 1) rotate(0) translate(4 691)">
<title>QENSFitSequential</title>
<polygon fill="white" stroke="none" points="-4,4 -4,-691 2061.39,-691 2061.39,4 -4,4"/>
<text text-anchor="middle" x="1028.7" y="-671.8" font-family="Helvetica,sans-Serif" font-size="14.00">QENSFitSequential Flowchart</text>
<!-- InputWorkspace -->
<g id="node1" class="node">
<title>InputWorkspace</title>
<ellipse fill="khaki" stroke="black" cx="1739.89" cy="-622.5" rx="84.49" ry="18"/>
<text text-anchor="middle" x="1739.89" y="-618.8" font-family="Helvetica,sans-Serif" font-size="14.00">InputWorkspace</text>
</g>
<!-- ConvertSpectrumAxis -->
<g id="node25" class="node">
<title>ConvertSpectrumAxis</title>
<path fill="lightskyblue" stroke="black" d="M1187.89,-530C1187.89,-530 1043.89,-530 1043.89,-530 1037.89,-530 1031.89,-524 1031.89,-518 1031.89,-518 1031.89,-506 1031.89,-506 1031.89,-500 1037.89,-494 1043.89,-494 1043.89,-494 1187.89,-494 1187.89,-494 1193.89,-494 1199.89,-500 1199.89,-506 1199.89,-506 1199.89,-518 1199.89,-518 1199.89,-524 1193.89,-530 1187.89,-530"/>
<text text-anchor="middle" x="1115.89" y="-508.3" font-family="Helvetica,sans-Serif" font-size="14.00">ConvertSpectrumAxis</text>
</g>
<!-- InputWorkspace&#45;&gt;ConvertSpectrumAxis -->
<g id="edge7" class="edge">
<title>InputWorkspace&#45;&gt;ConvertSpectrumAxis</title>
<path fill="none" stroke="black" d="M1682.8,-608.8C1609.67,-592.88 1478.85,-565.55 1365.89,-548 1299.88,-537.75 1280.26,-540.05 1211.06,-530.24"/>
<polygon fill="black" stroke="black" points="1211.9,-526.83 1201.5,-528.85 1210.89,-533.76 1211.9,-526.83"/>
<text text-anchor="middle" x="1557.89" y="-551.8" font-family="Helvetica,sans-Serif" font-size="14.00">Attempt conversion to Elastic Q</text>
</g>
<!-- CopyLogs -->
<g id="node30" class="node">
<title>CopyLogs</title>
<path fill="lightskyblue" stroke="black" d="M1760.89,-109C1760.89,-109 1700.89,-109 1700.89,-109 1694.89,-109 1688.89,-103 1688.89,-97 1688.89,-97 1688.89,-85 1688.89,-85 1688.89,-79 1694.89,-73 1700.89,-73 1700.89,-73 1760.89,-73 1760.89,-73 1766.89,-73 1772.89,-79 1772.89,-85 1772.89,-85 1772.89,-97 1772.89,-97 1772.89,-103 1766.89,-109 1760.89,-109"/>
<text text-anchor="middle" x="1730.89" y="-87.3" font-family="Helvetica,sans-Serif" font-size="14.00">CopyLogs</text>
</g>
<!-- InputWorkspace&#45;&gt;CopyLogs -->
<g id="edge29" class="edge">
<title>InputWorkspace&#45;&gt;CopyLogs</title>
<path fill="none" stroke="black" d="M1776.51,-605.92C1825.12,-584.05 1904.89,-543.51 1904.89,-513 1904.89,-513 1904.89,-513 1904.89,-177 1904.89,-122.61 1835.42,-103.02 1784.27,-95.97"/>
<polygon fill="black" stroke="black" points="1784.87,-92.51 1774.52,-94.76 1784.01,-99.46 1784.87,-92.51"/>
</g>
<!-- do_extract_members -->
<g id="node32" class="node">
<title>do_extract_members</title>
<polygon fill="limegreen" stroke="black" points="1102.89,-196 950.23,-178 1102.89,-160 1255.55,-178 1102.89,-196"/>
<text text-anchor="middle" x="1102.89" y="-174.3" font-family="Helvetica,sans-Serif" font-size="14.00">Do Extract Members?</text>
</g>
<!-- InputWorkspace&#45;&gt;do_extract_members -->
<g id="edge38" class="edge">
<title>InputWorkspace&#45;&gt;do_extract_members</title>
<path fill="none" stroke="black" d="M1772.35,-605.62C1790.18,-597.39 1812.89,-587.67 1833.89,-581 1870.7,-569.3 1894.58,-593 1918.89,-563 1938.49,-538.82 1921.09,-517.34 1885.89,-494 1822.22,-451.78 1603.95,-492.67 1545.89,-443 1490.67,-395.76 1549.22,-337.43 1496.89,-287 1426.88,-219.52 1318.86,-193.34 1233.62,-183.58"/>
<polygon fill="black" stroke="black" points="1234.11,-180.11 1223.79,-182.53 1233.36,-187.07 1234.11,-180.11"/>
</g>
<!-- FitFunction -->
<g id="node34" class="node">
<title>FitFunction</title>
<ellipse fill="lightgrey" stroke="black" cx="857.89" cy="-512" rx="59.59" ry="18"/>
<text text-anchor="middle" x="857.89" y="-508.3" font-family="Helvetica,sans-Serif" font-size="14.00">FitFunction</text>
</g>
<!-- InputWorkspace&#45;&gt;FitFunction -->
<g id="edge1" class="edge">
<title>InputWorkspace&#45;&gt;FitFunction</title>
<path fill="none" stroke="black" d="M1665.92,-613.44C1472.3,-592.3 963.07,-536.46 926.89,-530 922.25,-529.17 917.45,-528.21 912.65,-527.17"/>
<polygon fill="black" stroke="black" points="913.52,-523.78 902.99,-524.99 911.97,-530.61 913.52,-523.78"/>
</g>
<!-- Input -->
<g id="node2" class="node">
<title>Input</title>
<ellipse fill="khaki" stroke="black" cx="700.89" cy="-622.5" rx="34.39" ry="18"/>
<text text-anchor="middle" x="700.89" y="-618.8" font-family="Helvetica,sans-Serif" font-size="14.00">Input</text>
</g>
<!-- PlotPeakByLogValue -->
<g id="node26" class="node">
<title>PlotPeakByLogValue</title>
<path fill="lightskyblue" stroke="black" d="M958.89,-443C958.89,-443 826.89,-443 826.89,-443 820.89,-443 814.89,-437 814.89,-431 814.89,-431 814.89,-419 814.89,-419 814.89,-413 820.89,-407 826.89,-407 826.89,-407 958.89,-407 958.89,-407 964.89,-407 970.89,-413 970.89,-419 970.89,-419 970.89,-431 970.89,-431 970.89,-437 964.89,-443 958.89,-443"/>
<text text-anchor="middle" x="892.89" y="-421.3" font-family="Helvetica,sans-Serif" font-size="14.00">PlotPeakByLogValue</text>
</g>
<!-- Input&#45;&gt;PlotPeakByLogValue -->
<g id="edge9" class="edge">
<title>Input&#45;&gt;PlotPeakByLogValue</title>
<path fill="none" stroke="black" d="M709.68,-604.69C723.83,-578.75 753.66,-528.36 788.89,-494 806.86,-476.48 829.98,-460.84 849.85,-448.99"/>
<polygon fill="black" stroke="black" points="851.41,-452.13 858.3,-444.07 847.9,-446.08 851.41,-452.13"/>
</g>
<!-- Input&#45;&gt;FitFunction -->
<g id="edge2" class="edge">
<title>Input&#45;&gt;FitFunction</title>
<path fill="none" stroke="black" d="M716.11,-606.07C724.29,-598.15 734.76,-588.59 744.89,-581 768.57,-563.26 797.14,-546.11 819.62,-533.47"/>
<polygon fill="black" stroke="black" points="821.12,-536.64 828.16,-528.72 817.72,-530.52 821.12,-536.64"/>
</g>
<!-- FitParameters -->
<g id="node3" class="node">
<title>FitParameters</title>
<ellipse fill="khaki" stroke="black" cx="826.89" cy="-622.5" rx="73.39" ry="18"/>
<text text-anchor="middle" x="826.89" y="-618.8" font-family="Helvetica,sans-Serif" font-size="14.00">FitParameters</text>
</g>
<!-- FitParameters&#45;&gt;FitFunction -->
<g id="edge4" class="edge">
<title>FitParameters&#45;&gt;FitFunction</title>
<path fill="none" stroke="black" d="M831.87,-604.07C836.71,-587.14 844.13,-561.16 849.81,-541.28"/>
<polygon fill="black" stroke="black" points="853.13,-542.42 852.51,-531.84 846.4,-540.5 853.13,-542.42"/>
</g>
<!-- Function -->
<g id="node4" class="node">
<title>Function</title>
<ellipse fill="khaki" stroke="black" cx="966.89" cy="-622.5" rx="48.99" ry="18"/>
<text text-anchor="middle" x="966.89" y="-618.8" font-family="Helvetica,sans-Serif" font-size="14.00">Function</text>
</g>
<!-- Function&#45;&gt;FitFunction -->
<g id="edge3" class="edge">
<title>Function&#45;&gt;FitFunction</title>
<path fill="none" stroke="black" d="M950.81,-605.49C932.8,-587.56 903.41,-558.3 882.5,-537.5"/>
<polygon fill="black" stroke="black" points="885.03,-535.07 875.47,-530.5 880.09,-540.03 885.03,-535.07"/>
</g>
<!-- StartX -->
<g id="node5" class="node">
<title>StartX</title>
<ellipse fill="khaki" stroke="black" cx="974.89" cy="-512" rx="38.99" ry="18"/>
<text text-anchor="middle" x="974.89" y="-508.3" font-family="Helvetica,sans-Serif" font-size="14.00">StartX</text>
</g>
<!-- StartX&#45;&gt;PlotPeakByLogValue -->
<g id="edge11" class="edge">
<title>StartX&#45;&gt;PlotPeakByLogValue</title>
<path fill="none" stroke="black" d="M959.47,-495.01C947.6,-482.71 930.98,-465.48 917.31,-451.31"/>
<polygon fill="black" stroke="black" points="920.17,-449.24 910.71,-444.47 915.13,-454.1 920.17,-449.24"/>
</g>
<!-- EndX -->
<g id="node6" class="node">
<title>EndX</title>
<ellipse fill="khaki" stroke="black" cx="1251.89" cy="-512" rx="34.39" ry="18"/>
<text text-anchor="middle" x="1251.89" y="-508.3" font-family="Helvetica,sans-Serif" font-size="14.00">EndX</text>
</g>
<!-- EndX&#45;&gt;PlotPeakByLogValue -->
<g id="edge12" class="edge">
<title>EndX&#45;&gt;PlotPeakByLogValue</title>
<path fill="none" stroke="black" d="M1228.36,-498.78C1205.19,-487.27 1168.5,-470.44 1134.89,-461 1085.43,-447.11 1028.65,-438.53 982.53,-433.35"/>
<polygon fill="black" stroke="black" points="983.17,-429.9 972.85,-432.3 982.41,-436.85 983.17,-429.9"/>
</g>
<!-- SpecMin -->
<g id="node7" class="node">
<title>SpecMin</title>
<ellipse fill="khaki" stroke="black" cx="1081.89" cy="-622.5" rx="48.99" ry="18"/>
<text text-anchor="middle" x="1081.89" y="-618.8" font-family="Helvetica,sans-Serif" font-size="14.00">SpecMin</text>
</g>
<!-- SpecMin&#45;&gt;FitFunction -->
<g id="edge5" class="edge">
<title>SpecMin&#45;&gt;FitFunction</title>
<path fill="none" stroke="black" d="M1062.06,-605.69C1051.43,-597.66 1037.88,-588.13 1024.89,-581 987.01,-560.2 941.42,-542.05 907.45,-529.75"/>
<polygon fill="black" stroke="black" points="908.87,-526.55 898.28,-526.48 906.52,-533.14 908.87,-526.55"/>
</g>
<!-- SpecMax -->
<g id="node8" class="node">
<title>SpecMax</title>
<ellipse fill="khaki" stroke="black" cx="1199.89" cy="-622.5" rx="51.19" ry="18"/>
<text text-anchor="middle" x="1199.89" y="-618.8" font-family="Helvetica,sans-Serif" font-size="14.00">SpecMax</text>
</g>
<!-- SpecMax&#45;&gt;FitFunction -->
<g id="edge6" class="edge">
<title>SpecMax&#45;&gt;FitFunction</title>
<path fill="none" stroke="black" d="M1180.14,-605.51C1168.92,-597.13 1154.27,-587.33 1139.89,-581 1050.79,-541.81 1021.49,-552.98 926.89,-530 922.63,-528.96 918.22,-527.89 913.79,-526.8"/>
<polygon fill="black" stroke="black" points="914.81,-523.45 904.26,-524.47 913.14,-530.25 914.81,-523.45"/>
</g>
<!-- ConvolveMembers -->
<g id="node9" class="node">
<title>ConvolveMembers</title>
<ellipse fill="khaki" stroke="black" cx="1398.89" cy="-512" rx="94.48" ry="18"/>
<text text-anchor="middle" x="1398.89" y="-508.3" font-family="Helvetica,sans-Serif" font-size="14.00">ConvolveMembers</text>
</g>
<!-- ConvolveMembers&#45;&gt;PlotPeakByLogValue -->
<g id="edge13" class="edge">
<title>ConvolveMembers&#45;&gt;PlotPeakByLogValue</title>
<path fill="none" stroke="black" d="M1342.7,-497.26C1296.51,-486.33 1229.25,-471.21 1169.89,-461 1107.68,-450.3 1037.07,-441.43 982.72,-435.29"/>
<polygon fill="black" stroke="black" points="983.21,-431.83 972.88,-434.19 982.43,-438.78 983.21,-431.83"/>
</g>
<!-- ExtractMembers -->
<g id="node10" class="node">
<title>ExtractMembers</title>
<ellipse fill="khaki" stroke="black" cx="457.89" cy="-251" rx="85.29" ry="18"/>
<text text-anchor="middle" x="457.89" y="-247.3" font-family="Helvetica,sans-Serif" font-size="14.00">ExtractMembers</text>
</g>
<!-- ExtractMembers&#45;&gt;do_extract_members -->
<g id="edge36" class="edge">
<title>ExtractMembers&#45;&gt;do_extract_members</title>
<path fill="none" stroke="black" d="M519.47,-238.13C530.25,-236.26 541.38,-234.46 551.89,-233 707.67,-211.32 889.42,-195.29 1000.3,-186.55"/>
<polygon fill="black" stroke="black" points="1000.26,-190.06 1009.96,-185.79 999.71,-183.08 1000.26,-190.06"/>
</g>
<!-- PassWSIndexToFunction -->
<g id="node11" class="node">
<title>PassWSIndexToFunction</title>
<ellipse fill="khaki" stroke="black" cx="1629.89" cy="-512" rx="118.88" ry="18"/>
<text text-anchor="middle" x="1629.89" y="-508.3" font-family="Helvetica,sans-Serif" font-size="14.00">PassWSIndexToFunction</text>
</g>
<!-- PassWSIndexToFunction&#45;&gt;PlotPeakByLogValue -->
<g id="edge19" class="edge">
<title>PassWSIndexToFunction&#45;&gt;PlotPeakByLogValue</title>
<path fill="none" stroke="black" d="M1543.16,-499.3C1529.36,-497.49 1515.24,-495.67 1501.89,-494 1377.12,-478.39 1345.86,-475 1220.89,-461 1140.2,-451.96 1048.26,-442.19 982.3,-435.28"/>
<polygon fill="black" stroke="black" points="982.94,-431.83 972.63,-434.27 982.21,-438.79 982.94,-431.83"/>
</g>
<!-- Minimizer -->
<g id="node12" class="node">
<title>Minimizer</title>
<ellipse fill="khaki" stroke="black" cx="1821.89" cy="-512" rx="54.69" ry="18"/>
<text text-anchor="middle" x="1821.89" y="-508.3" font-family="Helvetica,sans-Serif" font-size="14.00">Minimizer</text>
</g>
<!-- Minimizer&#45;&gt;PlotPeakByLogValue -->
<g id="edge15" class="edge">
<title>Minimizer&#45;&gt;PlotPeakByLogValue</title>
<path fill="none" stroke="black" d="M1782.2,-499.26C1774.21,-497.24 1765.83,-495.35 1757.89,-494 1477.48,-446.14 1140.08,-431.89 982.35,-427.7"/>
<polygon fill="black" stroke="black" points="982.91,-424.22 972.82,-427.46 982.73,-431.21 982.91,-424.22"/>
</g>
<!-- CostFunction -->
<g id="node13" class="node">
<title>CostFunction</title>
<ellipse fill="khaki" stroke="black" cx="68.89" cy="-512" rx="68.79" ry="18"/>
<text text-anchor="middle" x="68.89" y="-508.3" font-family="Helvetica,sans-Serif" font-size="14.00">CostFunction</text>
</g>
<!-- CostFunction&#45;&gt;PlotPeakByLogValue -->
<g id="edge16" class="edge">
<title>CostFunction&#45;&gt;PlotPeakByLogValue</title>
<path fill="none" stroke="black" d="M119.1,-499.29C128.32,-497.36 137.87,-495.5 146.89,-494 382.03,-454.91 662.87,-436.94 803.44,-429.88"/>
<polygon fill="black" stroke="black" points="803.22,-433.4 813.03,-429.41 802.87,-426.4 803.22,-433.4"/>
</g>
<!-- MaxIterations -->
<g id="node14" class="node">
<title>MaxIterations</title>
<ellipse fill="khaki" stroke="black" cx="227.89" cy="-512" rx="72.29" ry="18"/>
<text text-anchor="middle" x="227.89" y="-508.3" font-family="Helvetica,sans-Serif" font-size="14.00">MaxIterations</text>
</g>
<!-- MaxIterations&#45;&gt;PlotPeakByLogValue -->
<g id="edge14" class="edge">
<title>MaxIterations&#45;&gt;PlotPeakByLogValue</title>
<path fill="none" stroke="black" d="M280.51,-499.36C289.93,-497.44 299.69,-495.57 308.89,-494 482.95,-464.24 688.44,-443.65 803.4,-433.43"/>
<polygon fill="black" stroke="black" points="803.42,-436.94 813.08,-432.57 802.81,-429.97 803.42,-436.94"/>
</g>
<!-- PeakRadius -->
<g id="node15" class="node">
<title>PeakRadius</title>
<ellipse fill="khaki" stroke="black" cx="380.89" cy="-512" rx="63.09" ry="18"/>
<text text-anchor="middle" x="380.89" y="-508.3" font-family="Helvetica,sans-Serif" font-size="14.00">PeakRadius</text>
</g>
<!-- PeakRadius&#45;&gt;PlotPeakByLogValue -->
<g id="edge17" class="edge">
<title>PeakRadius&#45;&gt;PlotPeakByLogValue</title>
<path fill="none" stroke="black" d="M427.26,-499.49C435.76,-497.54 444.57,-495.62 452.89,-494 573.67,-470.45 714.38,-449.89 803.53,-437.71"/>
<polygon fill="black" stroke="black" points="803.74,-441.22 813.18,-436.4 802.8,-434.28 803.74,-441.22"/>
</g>
<!-- EvaluationType -->
<g id="node16" class="node">
<title>EvaluationType</title>
<ellipse fill="khaki" stroke="black" cx="540.89" cy="-512" rx="79.09" ry="18"/>
<text text-anchor="middle" x="540.89" y="-508.3" font-family="Helvetica,sans-Serif" font-size="14.00">EvaluationType</text>
</g>
<!-- EvaluationType&#45;&gt;PlotPeakByLogValue -->
<g id="edge20" class="edge">
<title>EvaluationType&#45;&gt;PlotPeakByLogValue</title>
<path fill="none" stroke="black" d="M589.15,-497.35C626.81,-486.89 680.51,-472.35 727.89,-461 752.34,-455.14 778.95,-449.28 803.52,-444.07"/>
<polygon fill="black" stroke="black" points="804.1,-447.52 813.17,-442.04 802.66,-440.67 804.1,-447.52"/>
</g>
<!-- LogValue -->
<g id="node17" class="node">
<title>LogValue</title>
<ellipse fill="khaki" stroke="black" cx="689.89" cy="-512" rx="51.99" ry="18"/>
<text text-anchor="middle" x="689.89" y="-508.3" font-family="Helvetica,sans-Serif" font-size="14.00">LogValue</text>
</g>
<!-- LogValue&#45;&gt;PlotPeakByLogValue -->
<g id="edge18" class="edge">
<title>LogValue&#45;&gt;PlotPeakByLogValue</title>
<path fill="none" stroke="black" d="M707.37,-494.65C719.98,-483.67 737.89,-469.68 755.89,-461 770.86,-453.79 787.49,-447.94 803.85,-443.24"/>
<polygon fill="black" stroke="black" points="804.36,-446.73 813.09,-440.72 802.52,-439.98 804.36,-446.73"/>
</g>
<!-- FitWorkspaces -->
<g id="node18" class="node">
<title>FitWorkspaces</title>
<ellipse fill="khaki" stroke="black" cx="1235.89" cy="-338" rx="76.09" ry="18"/>
<text text-anchor="middle" x="1235.89" y="-334.3" font-family="Helvetica,sans-Serif" font-size="14.00">FitWorkspaces</text>
</g>
<!-- RenameWorkspace -->
<g id="node31" class="node">
<title>RenameWorkspace</title>
<path fill="lightskyblue" stroke="black" d="M1165.89,-269C1165.89,-269 1039.89,-269 1039.89,-269 1033.89,-269 1027.89,-263 1027.89,-257 1027.89,-257 1027.89,-245 1027.89,-245 1027.89,-239 1033.89,-233 1039.89,-233 1039.89,-233 1165.89,-233 1165.89,-233 1171.89,-233 1177.89,-239 1177.89,-245 1177.89,-245 1177.89,-257 1177.89,-257 1177.89,-263 1171.89,-269 1165.89,-269"/>
<text text-anchor="middle" x="1102.89" y="-247.3" font-family="Helvetica,sans-Serif" font-size="14.00">RenameWorkspace</text>
</g>
<!-- FitWorkspaces&#45;&gt;RenameWorkspace -->
<g id="edge35" class="edge">
<title>FitWorkspaces&#45;&gt;RenameWorkspace</title>
<path fill="none" stroke="black" d="M1256.64,-320.55C1266.87,-310.45 1275.37,-297.48 1266.89,-287 1256.53,-274.18 1223.24,-265.86 1189.34,-260.56"/>
<polygon fill="black" stroke="black" points="1190.24,-257.15 1179.84,-259.16 1189.22,-264.08 1190.24,-257.15"/>
<text text-anchor="middle" x="1381.39" y="-290.8" font-family="Helvetica,sans-Serif" font-size="14.00">Renames to match input names</text>
</g>
<!-- NormalisedCovarianceWorkspace -->
<g id="node19" class="node">
<title>NormalisedCovarianceWorkspace</title>
<ellipse fill="khaki" stroke="black" cx="629.89" cy="-338" rx="161.67" ry="18"/>
<text text-anchor="middle" x="629.89" y="-334.3" font-family="Helvetica,sans-Serif" font-size="14.00">NormalisedCovarianceWorkspace</text>
</g>
<!-- DeleteWorkspace -->
<g id="node27" class="node">
<title>DeleteWorkspace</title>
<path fill="lightskyblue" stroke="black" d="M686.39,-269C686.39,-269 573.39,-269 573.39,-269 567.39,-269 561.39,-263 561.39,-257 561.39,-257 561.39,-245 561.39,-245 561.39,-239 567.39,-233 573.39,-233 573.39,-233 686.39,-233 686.39,-233 692.39,-233 698.39,-239 698.39,-245 698.39,-245 698.39,-257 698.39,-257 698.39,-263 692.39,-269 686.39,-269"/>
<text text-anchor="middle" x="629.89" y="-247.3" font-family="Helvetica,sans-Serif" font-size="14.00">DeleteWorkspace</text>
</g>
<!-- NormalisedCovarianceWorkspace&#45;&gt;DeleteWorkspace -->
<g id="edge24" class="edge">
<title>NormalisedCovarianceWorkspace&#45;&gt;DeleteWorkspace</title>
<path fill="none" stroke="black" d="M629.89,-319.8C629.89,-308.58 629.89,-293.67 629.89,-280.69"/>
<polygon fill="black" stroke="black" points="633.39,-280.98 629.89,-270.98 626.39,-280.98 633.39,-280.98"/>
<text text-anchor="middle" x="778.89" y="-290.8" font-family="Helvetica,sans-Serif" font-size="14.00">Unrequired product of PlotPeakByLogValue</text>
</g>
<!-- ParameterNames -->
<g id="node20" class="node">
<title>ParameterNames</title>
<ellipse fill="khaki" stroke="black" cx="1646.89" cy="-338" rx="89.08" ry="18"/>
<text text-anchor="middle" x="1646.89" y="-334.3" font-family="Helvetica,sans-Serif" font-size="14.00">ParameterNames</text>
</g>
<!-- ProcessIndirectFitParameters -->
<g id="node29" class="node">
<title>ProcessIndirectFitParameters</title>
<path fill="lightskyblue" stroke="black" d="M1750.89,-269C1750.89,-269 1556.89,-269 1556.89,-269 1550.89,-269 1544.89,-263 1544.89,-257 1544.89,-257 1544.89,-245 1544.89,-245 1544.89,-239 1550.89,-233 1556.89,-233 1556.89,-233 1750.89,-233 1750.89,-233 1756.89,-233 1762.89,-239 1762.89,-245 1762.89,-245 1762.89,-257 1762.89,-257 1762.89,-263 1756.89,-269 1750.89,-269"/>
<text text-anchor="middle" x="1653.89" y="-247.3" font-family="Helvetica,sans-Serif" font-size="14.00">ProcessIndirectFitParameters</text>
</g>
<!-- ParameterNames&#45;&gt;ProcessIndirectFitParameters -->
<g id="edge27" class="edge">
<title>ParameterNames&#45;&gt;ProcessIndirectFitParameters</title>
<path fill="none" stroke="black" d="M1648.31,-319.8C1649.23,-308.58 1650.46,-293.67 1651.53,-280.69"/>
<polygon fill="black" stroke="black" points="1655,-281.23 1652.33,-270.98 1648.02,-280.65 1655,-281.23"/>
</g>
<!-- OutputWorkspace -->
<g id="node21" class="node">
<title>OutputWorkspace</title>
<ellipse fill="khaki" stroke="black" cx="1730.89" cy="-18" rx="92.08" ry="18"/>
<text text-anchor="middle" x="1730.89" y="-14.3" font-family="Helvetica,sans-Serif" font-size="14.00">OutputWorkspace</text>
</g>
<!-- OutputParameterWorkspace -->
<g id="node22" class="node">
<title>OutputParameterWorkspace</title>
<ellipse fill="khaki" stroke="black" cx="948.89" cy="-338" rx="139.18" ry="18"/>
<text text-anchor="middle" x="948.89" y="-334.3" font-family="Helvetica,sans-Serif" font-size="14.00">OutputParameterWorkspace</text>
</g>
<!-- OutputParameterWorkspace&#45;&gt;ProcessIndirectFitParameters -->
<g id="edge26" class="edge">
<title>OutputParameterWorkspace&#45;&gt;ProcessIndirectFitParameters</title>
<path fill="none" stroke="black" d="M946.65,-319.6C946.29,-308.6 947.99,-294.98 956.89,-287 967.47,-277.51 1336.88,-263.13 1533.5,-256.13"/>
<polygon fill="black" stroke="black" points="1533.37,-259.64 1543.24,-255.78 1533.12,-252.64 1533.37,-259.64"/>
</g>
<!-- OutputParameterWorkspace&#45;&gt;RenameWorkspace -->
<g id="edge34" class="edge">
<title>OutputParameterWorkspace&#45;&gt;RenameWorkspace</title>
<path fill="none" stroke="black" d="M953.13,-319.86C956.68,-308.96 962.82,-295.37 972.89,-287 985.46,-276.56 1000.85,-269.22 1016.59,-264.05"/>
<polygon fill="black" stroke="black" points="1017.46,-267.44 1026.05,-261.24 1015.47,-260.73 1017.46,-267.44"/>
<text text-anchor="middle" x="1117.89" y="-290.8" font-family="Helvetica,sans-Serif" font-size="14.00">Change name to expected name for table</text>
</g>
<!-- OutputWorkspaceGroup -->
<g id="node23" class="node">
<title>OutputWorkspaceGroup</title>
<ellipse fill="khaki" stroke="black" cx="1102.89" cy="-18" rx="119.68" ry="18"/>
<text text-anchor="middle" x="1102.89" y="-14.3" font-family="Helvetica,sans-Serif" font-size="14.00">OutputWorkspaceGroup</text>
</g>
<!-- SampleLog -->
<g id="node24" class="node">
<title>SampleLog</title>
<ellipse fill="khaki" stroke="black" cx="1655.89" cy="-178" rx="60.39" ry="18"/>
<text text-anchor="middle" x="1655.89" y="-174.3" font-family="Helvetica,sans-Serif" font-size="14.00">SampleLog</text>
</g>
<!-- SampleLog&#45;&gt;CopyLogs -->
<g id="edge32" class="edge">
<title>SampleLog&#45;&gt;CopyLogs</title>
<path fill="none" stroke="black" d="M1670.71,-160.21C1681.36,-148.14 1695.91,-131.65 1708.04,-117.9"/>
<polygon fill="black" stroke="black" points="1710.6,-120.29 1714.59,-110.48 1705.35,-115.66 1710.6,-120.29"/>
</g>
<!-- ConvertSpectrumAxis&#45;&gt;PlotPeakByLogValue -->
<g id="edge8" class="edge">
<title>ConvertSpectrumAxis&#45;&gt;PlotPeakByLogValue</title>
<path fill="none" stroke="black" d="M1070.23,-493.59C1035.2,-480.24 986.68,-461.75 949.24,-447.48"/>
<polygon fill="black" stroke="black" points="950.5,-444.21 939.91,-443.92 948.01,-450.75 950.5,-444.21"/>
<text text-anchor="middle" x="1073.89" y="-464.8" font-family="Helvetica,sans-Serif" font-size="14.00">InputWorkspace</text>
</g>
<!-- PlotPeakByLogValue&#45;&gt;FitWorkspaces -->
<g id="edge23" class="edge">
<title>PlotPeakByLogValue&#45;&gt;FitWorkspaces</title>
<path fill="none" stroke="black" d="M963.13,-406.59C1025,-391.26 1114.26,-369.14 1173.62,-354.43"/>
<polygon fill="black" stroke="black" points="1174.37,-357.85 1183.24,-352.05 1172.69,-351.06 1174.37,-357.85"/>
</g>
<!-- PlotPeakByLogValue&#45;&gt;NormalisedCovarianceWorkspace -->
<g id="edge21" class="edge">
<title>PlotPeakByLogValue&#45;&gt;NormalisedCovarianceWorkspace</title>
<path fill="none" stroke="black" d="M839.04,-406.59C796.28,-392.77 736.45,-373.44 691.73,-358.99"/>
<polygon fill="black" stroke="black" points="693.03,-355.73 682.44,-355.98 690.88,-362.39 693.03,-355.73"/>
</g>
<!-- PlotPeakByLogValue&#45;&gt;OutputParameterWorkspace -->
<g id="edge22" class="edge">
<title>PlotPeakByLogValue&#45;&gt;OutputParameterWorkspace</title>
<path fill="none" stroke="black" d="M904.23,-406.8C912.04,-394.93 922.59,-378.93 931.47,-365.45"/>
<polygon fill="black" stroke="black" points="934.17,-367.72 936.75,-357.44 928.32,-363.86 934.17,-367.72"/>
</g>
<!-- ExtractQENSMembers -->
<g id="node28" class="node">
<title>ExtractQENSMembers</title>
<path fill="lightskyblue" stroke="black" d="M1175.89,-109C1175.89,-109 1029.89,-109 1029.89,-109 1023.89,-109 1017.89,-103 1017.89,-97 1017.89,-97 1017.89,-85 1017.89,-85 1017.89,-79 1023.89,-73 1029.89,-73 1029.89,-73 1175.89,-73 1175.89,-73 1181.89,-73 1187.89,-79 1187.89,-85 1187.89,-85 1187.89,-97 1187.89,-97 1187.89,-103 1181.89,-109 1175.89,-109"/>
<text text-anchor="middle" x="1102.89" y="-87.3" font-family="Helvetica,sans-Serif" font-size="14.00">ExtractQENSMembers</text>
</g>
<!-- ExtractQENSMembers&#45;&gt;OutputWorkspaceGroup -->
<g id="edge40" class="edge">
<title>ExtractQENSMembers&#45;&gt;OutputWorkspaceGroup</title>
<path fill="none" stroke="black" d="M1102.89,-72.81C1102.89,-65.23 1102.89,-56.1 1102.89,-47.54"/>
<polygon fill="black" stroke="black" points="1106.39,-47.54 1102.89,-37.54 1099.39,-47.54 1106.39,-47.54"/>
</g>
<!-- ResultWorkspace -->
<g id="node36" class="node">
<title>ResultWorkspace</title>
<ellipse fill="lightgrey" stroke="black" cx="1488.89" cy="-178" rx="89.08" ry="18"/>
<text text-anchor="middle" x="1488.89" y="-174.3" font-family="Helvetica,sans-Serif" font-size="14.00">ResultWorkspace</text>
</g>
<!-- ProcessIndirectFitParameters&#45;&gt;ResultWorkspace -->
<g id="edge28" class="edge">
<title>ProcessIndirectFitParameters&#45;&gt;ResultWorkspace</title>
<path fill="none" stroke="black" d="M1613.53,-232.63C1590.18,-222.58 1560.67,-209.88 1536.22,-199.37"/>
<polygon fill="black" stroke="black" points="1537.7,-196.19 1527.13,-195.45 1534.93,-202.62 1537.7,-196.19"/>
</g>
<!-- CopyLogs&#45;&gt;OutputWorkspace -->
<g id="edge31" class="edge">
<title>CopyLogs&#45;&gt;OutputWorkspace</title>
<path fill="none" stroke="black" d="M1730.89,-72.81C1730.89,-65.23 1730.89,-56.1 1730.89,-47.54"/>
<polygon fill="black" stroke="black" points="1734.39,-47.54 1730.89,-37.54 1727.39,-47.54 1734.39,-47.54"/>
</g>
<!-- RenameWorkspace&#45;&gt;do_extract_members -->
<g id="edge37" class="edge">
<title>RenameWorkspace&#45;&gt;do_extract_members</title>
<path fill="none" stroke="black" d="M1102.89,-232.81C1102.89,-225.23 1102.89,-216.1 1102.89,-207.54"/>
<polygon fill="black" stroke="black" points="1106.39,-207.54 1102.89,-197.54 1099.39,-207.54 1106.39,-207.54"/>
</g>
<!-- do_extract_members&#45;&gt;ExtractQENSMembers -->
<g id="edge39" class="edge">
<title>do_extract_members&#45;&gt;ExtractQENSMembers</title>
<path fill="none" stroke="black" d="M1102.89,-159.8C1102.89,-148.58 1102.89,-133.67 1102.89,-120.69"/>
<polygon fill="black" stroke="black" points="1106.39,-120.98 1102.89,-110.98 1099.39,-120.98 1106.39,-120.98"/>
<text text-anchor="middle" x="1114.39" y="-130.8" font-family="Helvetica,sans-Serif" font-size="14.00">Yes</text>
</g>
<!-- extract_members -->
<g id="node33" class="node">
<title>extract_members</title>
<polygon fill="lightseagreen" stroke="black" points="2057.39,-664 1842.39,-664 1842.39,-581 2057.39,-581 2057.39,-664"/>
<text text-anchor="middle" x="1949.89" y="-648.8" font-family="Helvetica,sans-Serif" font-size="14.00">ExtractQENSMembers:</text>
<text text-anchor="middle" x="1949.89" y="-633.8" font-family="Helvetica,sans-Serif" font-size="14.00">Extracts the members of</text>
<text text-anchor="middle" x="1949.89" y="-618.8" font-family="Helvetica,sans-Serif" font-size="14.00">the convolution fit, into</text>
<text text-anchor="middle" x="1949.89" y="-603.8" font-family="Helvetica,sans-Serif" font-size="14.00"> their own workspace, which</text>
<text text-anchor="middle" x="1949.89" y="-588.8" font-family="Helvetica,sans-Serif" font-size="14.00"> are subsequently grouped.</text>
</g>
<!-- FitFunction&#45;&gt;PlotPeakByLogValue -->
<g id="edge10" class="edge">
<title>FitFunction&#45;&gt;PlotPeakByLogValue</title>
<path fill="none" stroke="black" d="M864.98,-493.8C869.69,-482.35 875.99,-467.06 881.41,-453.89"/>
<polygon fill="black" stroke="black" points="884.55,-455.45 885.13,-444.87 878.08,-452.78 884.55,-455.45"/>
</g>
<!-- FitType -->
<g id="node35" class="node">
<title>FitType</title>
<ellipse fill="lightgrey" stroke="black" cx="1596.89" cy="-425" rx="42.49" ry="18"/>
<text text-anchor="middle" x="1596.89" y="-421.3" font-family="Helvetica,sans-Serif" font-size="14.00">FitType</text>
</g>
<!-- FitType&#45;&gt;ParameterNames -->
<g id="edge25" class="edge">
<title>FitType&#45;&gt;ParameterNames</title>
<path fill="none" stroke="black" d="M1593.56,-406.84C1592.45,-396.72 1592.63,-383.98 1597.89,-374 1600.12,-369.79 1603.1,-365.96 1606.5,-362.53"/>
<polygon fill="black" stroke="black" points="1608.58,-365.36 1613.89,-356.19 1604.02,-360.04 1608.58,-365.36"/>
<text text-anchor="middle" x="1744.39" y="-377.8" font-family="Helvetica,sans-Serif" font-size="14.00">Desired parameters obtained from FitType</text>
</g>
<!-- ResultWorkspace&#45;&gt;CopyLogs -->
<g id="edge30" class="edge">
<title>ResultWorkspace&#45;&gt;CopyLogs</title>
<path fill="none" stroke="black" d="M1511.21,-160.1C1526.65,-149.17 1548.1,-135.44 1568.89,-127 1603.71,-112.86 1645.17,-104.04 1677.43,-98.79"/>
<polygon fill="black" stroke="black" points="1677.59,-102.31 1686.93,-97.31 1676.51,-95.39 1677.59,-102.31"/>
<text text-anchor="middle" x="1626.89" y="-130.8" font-family="Helvetica,sans-Serif" font-size="14.00">Input workspace</text>
</g>
<!-- FitWorkspace -->
<g id="node37" class="node">
<title>FitWorkspace</title>
<ellipse fill="lightgrey" stroke="black" cx="1805.89" cy="-178" rx="71.49" ry="18"/>
<text text-anchor="middle" x="1805.89" y="-174.3" font-family="Helvetica,sans-Serif" font-size="14.00">FitWorkspace</text>
</g>
<!-- FitWorkspace&#45;&gt;CopyLogs -->
<g id="edge33" class="edge">
<title>FitWorkspace&#45;&gt;CopyLogs</title>
<path fill="none" stroke="black" d="M1791.08,-160.21C1780.43,-148.14 1765.88,-131.65 1753.75,-117.9"/>
<polygon fill="black" stroke="black" points="1756.44,-115.66 1747.2,-110.48 1751.19,-120.29 1756.44,-115.66"/>
</g>
</g>
</svg>
