<?xml version="1.0" encoding="UTF-8" standalone="no"?>
<!DOCTYPE svg PUBLIC "-//W3C//DTD SVG 1.1//EN"
 "http://www.w3.org/Graphics/SVG/1.1/DTD/svg11.dtd">
<!-- Generated by graphviz version 2.47.2 (20210527.1257)
 -->
<!-- Title: ReflectometryReductionOne Pages: 1 -->
<svg width="622pt" height="621pt"
 viewBox="0.00 0.00 621.88 621.00" xmlns="http://www.w3.org/2000/svg" xmlns:xlink="http://www.w3.org/1999/xlink">
<g id="graph0" class="graph" transform="scale(1 1) rotate(0) translate(4 617)">
<title>ReflectometryReductionOne</title>
<polygon fill="white" stroke="transparent" points="-4,4 -4,-617 617.88,-617 617.88,4 -4,4"/>
<!-- inputWorkspace -->
<g id="node1" class="node">
<title>inputWorkspace</title>
<ellipse fill="khaki" stroke="black" cx="132.04" cy="-571" rx="128.08" ry="18"/>
<text text-anchor="middle" x="132.04" y="-567.3" font-family="Helvetica" font-size="14.00">OutputWorkspaceWavelength</text>
</g>
<!-- checkSumInQ -->
<g id="node6" class="node">
<title>checkSumInQ</title>
<polygon fill="limegreen" stroke="black" points="132.04,-516 56.8,-498 132.04,-480 207.28,-498 132.04,-516"/>
<text text-anchor="middle" x="132.04" y="-494.3" font-family="Helvetica" font-size="14.00">Sum in Q?</text>
</g>
<!-- inputWorkspace&#45;&gt;checkSumInQ -->
<g id="edge1" class="edge">
<title>inputWorkspace&#45;&gt;checkSumInQ</title>
<path fill="none" stroke="black" d="M132.04,-552.81C132.04,-544.79 132.04,-535.05 132.04,-526.07"/>
<polygon fill="black" stroke="black" points="135.54,-526.03 132.04,-516.03 128.54,-526.03 135.54,-526.03"/>
</g>
<!-- outputWorkspaceWav -->
<g id="node2" class="node">
<title>outputWorkspaceWav</title>
<ellipse fill="khaki" stroke="black" cx="128.04" cy="-18" rx="128.08" ry="18"/>
<text text-anchor="middle" x="128.04" y="-14.3" font-family="Helvetica" font-size="14.00">OutputWorkspaceWavelength</text>
</g>
<!-- procCommands -->
<g id="node3" class="node">
<title>procCommands</title>
<ellipse fill="khaki" stroke="black" cx="243.04" cy="-411" rx="98.58" ry="18"/>
<text text-anchor="middle" x="243.04" y="-407.3" font-family="Helvetica" font-size="14.00">ProcessingInstructions</text>
</g>
<!-- projectCounts -->
<g id="node9" class="node">
<title>projectCounts</title>
<polygon fill="lightseagreen" stroke="black" points="327.04,-342 159.04,-342 159.04,-306 327.04,-306 327.04,-342"/>
<text text-anchor="start" x="167.04" y="-321.3" font-family="Helvetica" font-size="14.00">Project input counts to λ</text>
<text text-anchor="start" x="312.04" y="-321.3" font-family="Helvetica" baseline-shift="sub" font-size="14.00">v</text>
</g>
<!-- procCommands&#45;&gt;projectCounts -->
<g id="edge6" class="edge">
<title>procCommands&#45;&gt;projectCounts</title>
<path fill="none" stroke="black" d="M243.04,-392.8C243.04,-381.16 243.04,-365.55 243.04,-352.24"/>
<polygon fill="black" stroke="black" points="246.54,-352.18 243.04,-342.18 239.54,-352.18 246.54,-352.18"/>
</g>
<!-- wavMin -->
<g id="node4" class="node">
<title>wavMin</title>
<ellipse fill="khaki" stroke="black" cx="319.04" cy="-237" rx="71.49" ry="18"/>
<text text-anchor="middle" x="319.04" y="-233.3" font-family="Helvetica" font-size="14.00">WavelengthMin</text>
</g>
<!-- projectMinMax -->
<g id="node11" class="node">
<title>projectMinMax</title>
<polygon fill="lightseagreen" stroke="black" points="401.54,-182 236.54,-182 236.54,-146 401.54,-146 401.54,-182"/>
<text text-anchor="start" x="244.54" y="-161.3" font-family="Helvetica" font-size="14.00">Convert crop range to λ</text>
<text text-anchor="start" x="386.54" y="-161.3" font-family="Helvetica" baseline-shift="sub" font-size="14.00">v</text>
</g>
<!-- wavMin&#45;&gt;projectMinMax -->
<g id="edge8" class="edge">
<title>wavMin&#45;&gt;projectMinMax</title>
<path fill="none" stroke="black" d="M319.04,-218.81C319.04,-210.79 319.04,-201.05 319.04,-192.07"/>
<polygon fill="black" stroke="black" points="322.54,-192.03 319.04,-182.03 315.54,-192.03 322.54,-192.03"/>
</g>
<!-- wavMax -->
<g id="node5" class="node">
<title>wavMax</title>
<ellipse fill="khaki" stroke="black" cx="483.04" cy="-237" rx="74.19" ry="18"/>
<text text-anchor="middle" x="483.04" y="-233.3" font-family="Helvetica" font-size="14.00">WavelengthMax</text>
</g>
<!-- wavMax&#45;&gt;projectMinMax -->
<g id="edge9" class="edge">
<title>wavMax&#45;&gt;projectMinMax</title>
<path fill="none" stroke="black" d="M448.26,-220.94C424.81,-210.79 393.55,-197.26 367.65,-186.04"/>
<polygon fill="black" stroke="black" points="368.94,-182.79 358.37,-182.03 366.16,-189.21 368.94,-182.79"/>
</g>
<!-- checkSumInQ&#45;&gt;outputWorkspaceWav -->
<g id="edge2" class="edge">
<title>checkSumInQ&#45;&gt;outputWorkspaceWav</title>
<path fill="none" stroke="black" d="M127.15,-480.87C122.45,-463.9 116.04,-436.33 116.04,-412 116.04,-412 116.04,-412 116.04,-90 116.04,-75.3 118.57,-59.13 121.31,-45.94"/>
<polygon fill="black" stroke="black" points="124.74,-46.6 123.5,-36.08 117.91,-45.08 124.74,-46.6"/>
<text text-anchor="middle" x="125.04" y="-233.3" font-family="Helvetica" font-size="14.00">No</text>
</g>
<!-- checkSumDone -->
<g id="node7" class="node">
<title>checkSumDone</title>
<polygon fill="limegreen" stroke="black" points="487.04,-429 360.35,-411 487.04,-393 613.73,-411 487.04,-429"/>
<text text-anchor="middle" x="487.04" y="-407.3" font-family="Helvetica" font-size="14.00">Reduction required?</text>
</g>
<!-- checkSumInQ&#45;&gt;checkSumDone -->
<g id="edge3" class="edge">
<title>checkSumInQ&#45;&gt;checkSumDone</title>
<path fill="none" stroke="black" d="M167.7,-488.46C229.92,-473.56 358.67,-442.74 432.27,-425.11"/>
<polygon fill="black" stroke="black" points="433.37,-428.45 442.28,-422.72 431.74,-421.64 433.37,-428.45"/>
<text text-anchor="middle" x="341.54" y="-450.8" font-family="Helvetica" font-size="14.00">Yes</text>
</g>
<!-- checkSumDone&#45;&gt;projectCounts -->
<g id="edge4" class="edge">
<title>checkSumDone&#45;&gt;projectCounts</title>
<path fill="none" stroke="black" d="M452.34,-397.91C413.07,-384.23 348.47,-361.73 301.41,-345.33"/>
<polygon fill="black" stroke="black" points="302.54,-342.02 291.95,-342.04 300.24,-348.63 302.54,-342.02"/>
<text text-anchor="middle" x="390.54" y="-363.8" font-family="Helvetica" font-size="14.00">Yes</text>
</g>
<!-- checkSumDone&#45;&gt;projectMinMax -->
<g id="edge5" class="edge">
<title>checkSumDone&#45;&gt;projectMinMax</title>
<path fill="none" stroke="black" d="M502.67,-395.12C536.77,-360.89 611.27,-275.18 566.04,-219 546.61,-194.87 473.53,-180.93 411.85,-173.28"/>
<polygon fill="black" stroke="black" points="412.02,-169.78 401.67,-172.06 411.18,-176.73 412.02,-169.78"/>
<text text-anchor="middle" x="587.04" y="-276.8" font-family="Helvetica" font-size="14.00">No</text>
</g>
<!-- cropWav -->
<g id="node8" class="node">
<title>cropWav</title>
<path fill="lightskyblue" stroke="black" d="M304.54,-109C304.54,-109 215.54,-109 215.54,-109 209.54,-109 203.54,-103 203.54,-97 203.54,-97 203.54,-85 203.54,-85 203.54,-79 209.54,-73 215.54,-73 215.54,-73 304.54,-73 304.54,-73 310.54,-73 316.54,-79 316.54,-85 316.54,-85 316.54,-97 316.54,-97 316.54,-103 310.54,-109 304.54,-109"/>
<text text-anchor="middle" x="260.04" y="-87.3" font-family="Helvetica" font-size="14.00">CropWorkspace</text>
</g>
<!-- cropWav&#45;&gt;outputWorkspaceWav -->
<g id="edge12" class="edge">
<title>cropWav&#45;&gt;outputWorkspaceWav</title>
<path fill="none" stroke="black" d="M228.42,-72.99C210.25,-63.22 187.25,-50.85 167.85,-40.42"/>
<polygon fill="black" stroke="black" points="169.41,-37.28 158.94,-35.62 166.09,-43.44 169.41,-37.28"/>
</g>
<!-- sumInQ -->
<g id="node10" class="node">
<title>sumInQ</title>
<polygon fill="lightseagreen" stroke="black" points="229.54,-255 152.54,-255 152.54,-219 229.54,-219 229.54,-255"/>
<text text-anchor="start" x="160.54" y="-234.3" font-family="Helvetica" font-size="14.00">Sum in λ</text>
<text text-anchor="start" x="214.54" y="-234.3" font-family="Helvetica" baseline-shift="sub" font-size="14.00">v</text>
</g>
<!-- projectCounts&#45;&gt;sumInQ -->
<g id="edge7" class="edge">
<title>projectCounts&#45;&gt;sumInQ</title>
<path fill="none" stroke="black" d="M232.52,-305.8C225.19,-293.82 215.27,-277.62 206.98,-264.06"/>
<polygon fill="black" stroke="black" points="209.75,-261.88 201.55,-255.18 203.78,-265.53 209.75,-261.88"/>
</g>
<!-- sumInQ&#45;&gt;projectMinMax -->
<g id="edge10" class="edge">
<title>sumInQ&#45;&gt;projectMinMax</title>
<path fill="none" stroke="black" d="M221.7,-218.99C238.99,-209.4 260.78,-197.32 279.36,-187.01"/>
<polygon fill="black" stroke="black" points="281.14,-190.02 288.19,-182.11 277.74,-183.9 281.14,-190.02"/>
</g>
<!-- projectMinMax&#45;&gt;cropWav -->
<g id="edge11" class="edge">
<title>projectMinMax&#45;&gt;cropWav</title>
<path fill="none" stroke="black" d="M304.76,-145.81C297.51,-137.09 288.57,-126.34 280.6,-116.75"/>
<polygon fill="black" stroke="black" points="283.27,-114.48 274.19,-109.03 277.89,-118.96 283.27,-114.48"/>
</g>
</g>
</svg>
