<?xml version="1.0" encoding="UTF-8" standalone="no"?>
<!DOCTYPE svg PUBLIC "-//W3C//DTD SVG 1.1//EN"
 "http://www.w3.org/Graphics/SVG/1.1/DTD/svg11.dtd">
<!-- Generated by graphviz version 3.0.0 (20220315.2325)
 -->
<!-- Title: ReflectometryReductionOne Pages: 1 -->
<svg width="939pt" height="760pt"
 viewBox="0.00 0.00 939.24 760.00" xmlns="http://www.w3.org/2000/svg" xmlns:xlink="http://www.w3.org/1999/xlink">
<g id="graph0" class="graph" transform="scale(1 1) rotate(0) translate(4 756)">
<title>ReflectometryReductionOne</title>
<polygon fill="white" stroke="transparent" points="-4,4 -4,-756 935.24,-756 935.24,4 -4,4"/>
<!-- inputWS -->
<g id="node1" class="node">
<title>inputWS</title>
<ellipse fill="khaki" stroke="black" cx="436.05" cy="-710" rx="84.49" ry="18"/>
<text text-anchor="middle" x="436.05" y="-706.3" font-family="Helvetica,sans-Serif" font-size="14.00">InputWorkspace</text>
</g>
<!-- checkSumInLam -->
<g id="node6" class="node">
<title>checkSumInLam</title>
<polygon fill="limegreen" stroke="black" points="79.05,-641 -0.05,-623 79.05,-605 158.14,-623 79.05,-641"/>
<text text-anchor="middle" x="79.05" y="-619.3" font-family="Helvetica,sans-Serif" font-size="14.00">Sum in λ?</text>
</g>
<!-- inputWS&#45;&gt;checkSumInLam -->
<g id="edge1" class="edge">
<title>inputWS&#45;&gt;checkSumInLam</title>
<path fill="none" stroke="black" d="M381.83,-696.09C312.02,-679.47 191.89,-650.87 125.87,-635.15"/>
<polygon fill="black" stroke="black" points="126.3,-631.65 115.76,-632.74 124.68,-638.46 126.3,-631.65"/>
<text text-anchor="middle" x="311.55" y="-662.8" font-family="Helvetica,sans-Serif" font-size="14.00">Detectors</text>
</g>
<!-- createDBWS -->
<g id="node13" class="node">
<title>createDBWS</title>
<polygon fill="lightseagreen" stroke="black" points="508.55,-477 359.55,-477 359.55,-439 508.55,-439 508.55,-477"/>
<text text-anchor="middle" x="434.05" y="-461.8" font-family="Helvetica,sans-Serif" font-size="14.00">Create direct beam</text>
<text text-anchor="middle" x="434.05" y="-446.8" font-family="Helvetica,sans-Serif" font-size="14.00">workspace</text>
</g>
<!-- inputWS&#45;&gt;createDBWS -->
<g id="edge2" class="edge">
<title>inputWS&#45;&gt;createDBWS</title>
<path fill="none" stroke="black" d="M436.05,-691.96C436.05,-668.5 436.05,-630.5 436.05,-630.5 436.05,-630.5 434.96,-536.35 434.39,-487.17"/>
<polygon fill="black" stroke="black" points="437.88,-487.08 434.27,-477.12 430.89,-487.16 437.88,-487.08"/>
<text text-anchor="middle" x="478.55" y="-619.3" font-family="Helvetica,sans-Serif" font-size="14.00">Direct Beam</text>
</g>
<!-- createMonWS -->
<g id="node14" class="node">
<title>createMonWS</title>
<polygon fill="lightseagreen" stroke="black" points="609.05,-587 489.05,-587 489.05,-549 609.05,-549 609.05,-587"/>
<text text-anchor="middle" x="549.05" y="-571.8" font-family="Helvetica,sans-Serif" font-size="14.00">Create monitor</text>
<text text-anchor="middle" x="549.05" y="-556.8" font-family="Helvetica,sans-Serif" font-size="14.00">workspace</text>
</g>
<!-- inputWS&#45;&gt;createMonWS -->
<g id="edge3" class="edge">
<title>inputWS&#45;&gt;createMonWS</title>
<path fill="none" stroke="black" d="M483.31,-694.94C514.28,-685.08 549.05,-674 549.05,-674 549.05,-674 549.05,-628.83 549.05,-597.47"/>
<polygon fill="black" stroke="black" points="552.55,-597.44 549.05,-587.44 545.55,-597.44 552.55,-597.44"/>
<text text-anchor="middle" x="579.55" y="-662.8" font-family="Helvetica,sans-Serif" font-size="14.00">Monitors</text>
</g>
<!-- outputWS -->
<g id="node2" class="node">
<title>outputWS</title>
<ellipse fill="khaki" stroke="black" cx="488.05" cy="-18" rx="145.67" ry="18"/>
<text text-anchor="middle" x="488.05" y="-14.3" font-family="Helvetica,sans-Serif" font-size="14.00">OutputWorkspaceWavelength</text>
</g>
<!-- procCommands -->
<g id="node3" class="node">
<title>procCommands</title>
<ellipse fill="khaki" stroke="black" cx="288.05" cy="-623" rx="112.38" ry="18"/>
<text text-anchor="middle" x="288.05" y="-619.3" font-family="Helvetica,sans-Serif" font-size="14.00">ProcessingInstructions</text>
</g>
<!-- groupDet -->
<g id="node9" class="node">
<title>groupDet</title>
<path fill="lightskyblue" stroke="black" d="M301.55,-531C301.55,-531 200.55,-531 200.55,-531 194.55,-531 188.55,-525 188.55,-519 188.55,-519 188.55,-507 188.55,-507 188.55,-501 194.55,-495 200.55,-495 200.55,-495 301.55,-495 301.55,-495 307.55,-495 313.55,-501 313.55,-507 313.55,-507 313.55,-519 313.55,-519 313.55,-525 307.55,-531 301.55,-531"/>
<text text-anchor="middle" x="251.05" y="-509.3" font-family="Helvetica,sans-Serif" font-size="14.00">GroupDetectors</text>
</g>
<!-- procCommands&#45;&gt;groupDet -->
<g id="edge6" class="edge">
<title>procCommands&#45;&gt;groupDet</title>
<path fill="none" stroke="black" d="M282.1,-604.65C276.2,-587.41 267.06,-560.73 260.22,-540.77"/>
<polygon fill="black" stroke="black" points="263.53,-539.63 256.98,-531.31 256.91,-541.9 263.53,-539.63"/>
</g>
<!-- wavMin -->
<g id="node4" class="node">
<title>wavMin</title>
<ellipse fill="khaki" stroke="black" cx="666.05" cy="-178" rx="80.69" ry="18"/>
<text text-anchor="middle" x="666.05" y="-174.3" font-family="Helvetica,sans-Serif" font-size="14.00">WavelengthMin</text>
</g>
<!-- cropWav -->
<g id="node10" class="node">
<title>cropWav</title>
<path fill="lightskyblue" stroke="black" d="M678.55,-109C678.55,-109 577.55,-109 577.55,-109 571.55,-109 565.55,-103 565.55,-97 565.55,-97 565.55,-85 565.55,-85 565.55,-79 571.55,-73 577.55,-73 577.55,-73 678.55,-73 678.55,-73 684.55,-73 690.55,-79 690.55,-85 690.55,-85 690.55,-97 690.55,-97 690.55,-103 684.55,-109 678.55,-109"/>
<text text-anchor="middle" x="628.05" y="-87.3" font-family="Helvetica,sans-Serif" font-size="14.00">CropWorkspace</text>
</g>
<!-- wavMin&#45;&gt;cropWav -->
<g id="edge15" class="edge">
<title>wavMin&#45;&gt;cropWav</title>
<path fill="none" stroke="black" d="M658.36,-159.8C653.05,-147.93 645.9,-131.93 639.87,-118.45"/>
<polygon fill="black" stroke="black" points="643,-116.88 635.73,-109.18 636.61,-119.73 643,-116.88"/>
</g>
<!-- wavMax -->
<g id="node5" class="node">
<title>wavMax</title>
<ellipse fill="khaki" stroke="black" cx="848.05" cy="-178" rx="83.39" ry="18"/>
<text text-anchor="middle" x="848.05" y="-174.3" font-family="Helvetica,sans-Serif" font-size="14.00">WavelengthMax</text>
</g>
<!-- wavMax&#45;&gt;cropWav -->
<g id="edge16" class="edge">
<title>wavMax&#45;&gt;cropWav</title>
<path fill="none" stroke="black" d="M809.22,-162C773.86,-148.34 721.29,-128.02 681.87,-112.8"/>
<polygon fill="black" stroke="black" points="682.74,-109.38 672.15,-109.04 680.22,-115.91 682.74,-109.38"/>
</g>
<!-- convertDet -->
<g id="node8" class="node">
<title>convertDet</title>
<path fill="lightskyblue" stroke="black" d="M310.55,-421C310.55,-421 191.55,-421 191.55,-421 185.55,-421 179.55,-415 179.55,-409 179.55,-409 179.55,-395 179.55,-395 179.55,-389 185.55,-383 191.55,-383 191.55,-383 310.55,-383 310.55,-383 316.55,-383 322.55,-389 322.55,-395 322.55,-395 322.55,-409 322.55,-409 322.55,-415 316.55,-421 310.55,-421"/>
<text text-anchor="middle" x="251.05" y="-405.8" font-family="Helvetica,sans-Serif" font-size="14.00">ConvertUnits</text>
<text text-anchor="middle" x="251.05" y="-390.8" font-family="Helvetica,sans-Serif" font-size="14.00">(AlignBins = True)</text>
</g>
<!-- checkSumInLam&#45;&gt;convertDet -->
<g id="edge4" class="edge">
<title>checkSumInLam&#45;&gt;convertDet</title>
<path fill="none" stroke="black" d="M88.89,-607.15C108.82,-575.08 152.05,-505.5 152.05,-505.5 152.05,-505.5 195.99,-459.56 225.32,-428.9"/>
<polygon fill="black" stroke="black" points="228.04,-431.11 232.43,-421.47 222.98,-426.27 228.04,-431.11"/>
<text text-anchor="middle" x="142.55" y="-509.3" font-family="Helvetica,sans-Serif" font-size="14.00">No</text>
</g>
<!-- checkSumInLam&#45;&gt;groupDet -->
<g id="edge5" class="edge">
<title>checkSumInLam&#45;&gt;groupDet</title>
<path fill="none" stroke="black" d="M99.11,-609.4C127.54,-591.55 180,-558.61 215.21,-536.51"/>
<polygon fill="black" stroke="black" points="217.15,-539.42 223.76,-531.13 213.43,-533.49 217.15,-539.42"/>
<text text-anchor="middle" x="210.55" y="-564.3" font-family="Helvetica,sans-Serif" font-size="14.00">Yes</text>
</g>
<!-- checkSumInLam2 -->
<g id="node7" class="node">
<title>checkSumInLam2</title>
<polygon fill="limegreen" stroke="black" points="488.05,-196 408.95,-178 488.05,-160 567.14,-178 488.05,-196"/>
<text text-anchor="middle" x="488.05" y="-174.3" font-family="Helvetica,sans-Serif" font-size="14.00">Sum in λ?</text>
</g>
<!-- checkSumInLam2&#45;&gt;outputWS -->
<g id="edge13" class="edge">
<title>checkSumInLam2&#45;&gt;outputWS</title>
<path fill="none" stroke="black" d="M488.05,-159.96C488.05,-136.5 488.05,-98.5 488.05,-98.5 488.05,-98.5 488.05,-69.56 488.05,-46.38"/>
<polygon fill="black" stroke="black" points="491.55,-46.27 488.05,-36.27 484.55,-46.27 491.55,-46.27"/>
<text text-anchor="middle" x="497.55" y="-87.3" font-family="Helvetica,sans-Serif" font-size="14.00">No</text>
</g>
<!-- checkSumInLam2&#45;&gt;cropWav -->
<g id="edge14" class="edge">
<title>checkSumInLam2&#45;&gt;cropWav</title>
<path fill="none" stroke="black" d="M508.71,-164.46C530.37,-151.31 564.86,-130.37 591.2,-114.37"/>
<polygon fill="black" stroke="black" points="593.06,-117.34 599.79,-109.15 589.43,-111.35 593.06,-117.34"/>
<text text-anchor="middle" x="577.55" y="-130.8" font-family="Helvetica,sans-Serif" font-size="14.00">Yes</text>
</g>
<!-- divideDetDB -->
<g id="node11" class="node">
<title>divideDetDB</title>
<path fill="lightskyblue" stroke="black" d="M509.05,-346C509.05,-346 345.05,-346 345.05,-346 339.05,-346 333.05,-340 333.05,-334 333.05,-334 333.05,-320 333.05,-320 333.05,-314 339.05,-308 345.05,-308 345.05,-308 509.05,-308 509.05,-308 515.05,-308 521.05,-314 521.05,-320 521.05,-320 521.05,-334 521.05,-334 521.05,-340 515.05,-346 509.05,-346"/>
<text text-anchor="middle" x="427.05" y="-330.8" font-family="Helvetica,sans-Serif" font-size="14.00">Divide</text>
<text text-anchor="middle" x="427.05" y="-315.8" font-family="Helvetica,sans-Serif" font-size="14.00">(Detectors / DirectBeam)</text>
</g>
<!-- convertDet&#45;&gt;divideDetDB -->
<g id="edge8" class="edge">
<title>convertDet&#45;&gt;divideDetDB</title>
<path fill="none" stroke="black" d="M294.55,-382.96C318.56,-373 348.57,-360.55 373.95,-350.02"/>
<polygon fill="black" stroke="black" points="375.54,-353.15 383.43,-346.09 372.85,-346.69 375.54,-353.15"/>
</g>
<!-- groupDet&#45;&gt;convertDet -->
<g id="edge7" class="edge">
<title>groupDet&#45;&gt;convertDet</title>
<path fill="none" stroke="black" d="M251.05,-494.97C251.05,-478.02 251.05,-451.69 251.05,-431.54"/>
<polygon fill="black" stroke="black" points="254.55,-431.37 251.05,-421.37 247.55,-431.37 254.55,-431.37"/>
</g>
<!-- cropWav&#45;&gt;outputWS -->
<g id="edge17" class="edge">
<title>cropWav&#45;&gt;outputWS</title>
<path fill="none" stroke="black" d="M594.51,-72.99C575.15,-63.17 550.63,-50.74 530,-40.27"/>
<polygon fill="black" stroke="black" points="531.33,-37.02 520.82,-35.62 528.16,-43.27 531.33,-37.02"/>
</g>
<!-- divideDetMon -->
<g id="node12" class="node">
<title>divideDetMon</title>
<path fill="lightskyblue" stroke="black" d="M559.55,-271C559.55,-271 416.55,-271 416.55,-271 410.55,-271 404.55,-265 404.55,-259 404.55,-259 404.55,-245 404.55,-245 404.55,-239 410.55,-233 416.55,-233 416.55,-233 559.55,-233 559.55,-233 565.55,-233 571.55,-239 571.55,-245 571.55,-245 571.55,-259 571.55,-259 571.55,-265 565.55,-271 559.55,-271"/>
<text text-anchor="middle" x="488.05" y="-255.8" font-family="Helvetica,sans-Serif" font-size="14.00">Divide</text>
<text text-anchor="middle" x="488.05" y="-240.8" font-family="Helvetica,sans-Serif" font-size="14.00">(Detectors / Monitors)</text>
</g>
<!-- divideDetDB&#45;&gt;divideDetMon -->
<g id="edge10" class="edge">
<title>divideDetDB&#45;&gt;divideDetMon</title>
<path fill="none" stroke="black" d="M442.13,-307.96C449.46,-299.18 458.4,-288.48 466.44,-278.85"/>
<polygon fill="black" stroke="black" points="469.2,-281.01 472.93,-271.09 463.83,-276.52 469.2,-281.01"/>
</g>
<!-- divideDetMon&#45;&gt;checkSumInLam2 -->
<g id="edge12" class="edge">
<title>divideDetMon&#45;&gt;checkSumInLam2</title>
<path fill="none" stroke="black" d="M488.05,-232.83C488.05,-224.89 488.05,-215.41 488.05,-206.63"/>
<polygon fill="black" stroke="black" points="491.55,-206.42 488.05,-196.42 484.55,-206.42 491.55,-206.42"/>
</g>
<!-- createDBWS&#45;&gt;divideDetDB -->
<g id="edge9" class="edge">
<title>createDBWS&#45;&gt;divideDetDB</title>
<path fill="none" stroke="black" d="M433.03,-438.95C431.87,-417.22 429.96,-381.43 428.61,-356.18"/>
<polygon fill="black" stroke="black" points="432.1,-355.87 428.07,-346.07 425.11,-356.24 432.1,-355.87"/>
</g>
<!-- createMonWS&#45;&gt;divideDetMon -->
<g id="edge11" class="edge">
<title>createMonWS&#45;&gt;divideDetMon</title>
<path fill="none" stroke="black" d="M545.32,-548.71C535,-495.25 506,-344.97 493.68,-281.2"/>
<polygon fill="black" stroke="black" points="497.05,-280.19 491.72,-271.04 490.18,-281.52 497.05,-280.19"/>
</g>
</g>
</svg>
