<?xml version="1.0" encoding="UTF-8" standalone="no"?>
<!DOCTYPE svg PUBLIC "-//W3C//DTD SVG 1.1//EN"
 "http://www.w3.org/Graphics/SVG/1.1/DTD/svg11.dtd">
<!-- Generated by graphviz version 3.0.0 (20220315.2325)
 -->
<!-- Title: ReflectometryReductionOne Pages: 1 -->
<svg width="741pt" height="463pt"
 viewBox="0.00 0.00 741.27 463.48" xmlns="http://www.w3.org/2000/svg" xmlns:xlink="http://www.w3.org/1999/xlink">
<g id="graph0" class="graph" transform="scale(1 1) rotate(0) translate(4 459.48)">
<title>ReflectometryReductionOne</title>
<polygon fill="white" stroke="transparent" points="-4,4 -4,-459.48 737.27,-459.48 737.27,4 -4,4"/>
<!-- inputWS -->
<g id="node1" class="node">
<title>inputWS</title>
<ellipse fill="khaki" stroke="black" cx="84.49" cy="-413.48" rx="84.49" ry="18"/>
<text text-anchor="middle" x="84.49" y="-409.78" font-family="Helvetica,sans-Serif" font-size="14.00">InputWorkspace</text>
</g>
<!-- cropMonWS -->
<g id="node9" class="node">
<title>cropMonWS</title>
<path fill="lightskyblue" stroke="black" d="M225.99,-359.48C225.99,-359.48 124.99,-359.48 124.99,-359.48 118.99,-359.48 112.99,-353.48 112.99,-347.48 112.99,-347.48 112.99,-335.48 112.99,-335.48 112.99,-329.48 118.99,-323.48 124.99,-323.48 124.99,-323.48 225.99,-323.48 225.99,-323.48 231.99,-323.48 237.99,-329.48 237.99,-335.48 237.99,-335.48 237.99,-347.48 237.99,-347.48 237.99,-353.48 231.99,-359.48 225.99,-359.48"/>
<text text-anchor="middle" x="175.49" y="-337.78" font-family="Helvetica,sans-Serif" font-size="14.00">CropWorkspace</text>
</g>
<!-- inputWS&#45;&gt;cropMonWS -->
<g id="edge1" class="edge">
<title>inputWS&#45;&gt;cropMonWS</title>
<path fill="none" stroke="black" d="M106.06,-395.89C117.7,-386.94 132.26,-375.73 145.04,-365.9"/>
<polygon fill="black" stroke="black" points="147.34,-368.55 153.13,-359.68 143.07,-363 147.34,-368.55"/>
</g>
<!-- outputWS -->
<g id="node2" class="node">
<title>outputWS</title>
<ellipse fill="khaki" stroke="black" cx="175.49" cy="-18" rx="94.78" ry="18"/>
<text text-anchor="middle" x="175.49" y="-14.3" font-family="Helvetica,sans-Serif" font-size="14.00">MonitorWorkspace</text>
</g>
<!-- monitorIndex -->
<g id="node3" class="node">
<title>monitorIndex</title>
<ellipse fill="khaki" stroke="black" cx="266.49" cy="-413.48" rx="79.09" ry="18"/>
<text text-anchor="middle" x="266.49" y="-409.78" font-family="Helvetica,sans-Serif" font-size="14.00">I0MonitorIndex</text>
</g>
<!-- monitorIndex&#45;&gt;cropMonWS -->
<g id="edge2" class="edge">
<title>monitorIndex&#45;&gt;cropMonWS</title>
<path fill="none" stroke="black" d="M244.93,-395.89C233.29,-386.94 218.72,-375.73 205.94,-365.9"/>
<polygon fill="black" stroke="black" points="207.91,-363 197.85,-359.68 203.65,-368.55 207.91,-363"/>
</g>
<!-- monIntWavMax -->
<g id="node4" class="node">
<title>monIntWavMax</title>
<ellipse fill="khaki" stroke="black" cx="394.49" cy="-170.87" rx="106.55" ry="26.74"/>
<text text-anchor="middle" x="394.49" y="-174.67" font-family="Helvetica,sans-Serif" font-size="14.00">MonitorIntegration&#45;</text>
<text text-anchor="middle" x="394.49" y="-159.67" font-family="Helvetica,sans-Serif" font-size="14.00">WavelengthMax</text>
</g>
<!-- intMon -->
<g id="node11" class="node">
<title>intMon</title>
<path fill="lightskyblue" stroke="black" d="M209.99,-108C209.99,-108 140.99,-108 140.99,-108 134.99,-108 128.99,-102 128.99,-96 128.99,-96 128.99,-84 128.99,-84 128.99,-78 134.99,-72 140.99,-72 140.99,-72 209.99,-72 209.99,-72 215.99,-72 221.99,-78 221.99,-84 221.99,-84 221.99,-96 221.99,-96 221.99,-102 215.99,-108 209.99,-108"/>
<text text-anchor="middle" x="175.49" y="-86.3" font-family="Helvetica,sans-Serif" font-size="14.00">Integration</text>
</g>
<!-- monIntWavMax&#45;&gt;intMon -->
<g id="edge9" class="edge">
<title>monIntWavMax&#45;&gt;intMon</title>
<path fill="none" stroke="black" d="M334.94,-148.42C302.8,-136.85 263.35,-122.64 231.74,-111.26"/>
<polygon fill="black" stroke="black" points="232.79,-107.91 222.19,-107.82 230.41,-114.5 232.79,-107.91"/>
</g>
<!-- monIntWavMin -->
<g id="node5" class="node">
<title>monIntWavMin</title>
<ellipse fill="khaki" stroke="black" cx="626.49" cy="-170.87" rx="106.55" ry="26.74"/>
<text text-anchor="middle" x="626.49" y="-174.67" font-family="Helvetica,sans-Serif" font-size="14.00">MonitorIntegration&#45;</text>
<text text-anchor="middle" x="626.49" y="-159.67" font-family="Helvetica,sans-Serif" font-size="14.00">WavelengthMin</text>
</g>
<!-- monIntWavMin&#45;&gt;intMon -->
<g id="edge8" class="edge">
<title>monIntWavMin&#45;&gt;intMon</title>
<path fill="none" stroke="black" d="M540.6,-154.85C449.98,-139 309.77,-114.48 232.11,-100.9"/>
<polygon fill="black" stroke="black" points="232.49,-97.42 222.04,-99.14 231.29,-104.31 232.49,-97.42"/>
</g>
<!-- monBackWavMin -->
<g id="node6" class="node">
<title>monBackWavMin</title>
<ellipse fill="khaki" stroke="black" cx="376.49" cy="-260.61" rx="111.95" ry="26.74"/>
<text text-anchor="middle" x="376.49" y="-264.41" font-family="Helvetica,sans-Serif" font-size="14.00">MonitorBackground&#45;</text>
<text text-anchor="middle" x="376.49" y="-249.41" font-family="Helvetica,sans-Serif" font-size="14.00">WavelengthMin</text>
</g>
<!-- calcFlatBg -->
<g id="node10" class="node">
<title>calcFlatBg</title>
<path fill="lightskyblue" stroke="black" d="M257.99,-188.87C257.99,-188.87 92.99,-188.87 92.99,-188.87 86.99,-188.87 80.99,-182.87 80.99,-176.87 80.99,-176.87 80.99,-164.87 80.99,-164.87 80.99,-158.87 86.99,-152.87 92.99,-152.87 92.99,-152.87 257.99,-152.87 257.99,-152.87 263.99,-152.87 269.99,-158.87 269.99,-164.87 269.99,-164.87 269.99,-176.87 269.99,-176.87 269.99,-182.87 263.99,-188.87 257.99,-188.87"/>
<text text-anchor="middle" x="175.49" y="-167.17" font-family="Helvetica,sans-Serif" font-size="14.00">CalculateFlatBackground</text>
</g>
<!-- monBackWavMin&#45;&gt;calcFlatBg -->
<g id="edge5" class="edge">
<title>monBackWavMin&#45;&gt;calcFlatBg</title>
<path fill="none" stroke="black" d="M324.21,-236.79C293.24,-223.27 254.28,-206.26 224,-193.05"/>
<polygon fill="black" stroke="black" points="225.06,-189.69 214.5,-188.9 222.26,-196.1 225.06,-189.69"/>
</g>
<!-- monBackWavMax -->
<g id="node7" class="node">
<title>monBackWavMax</title>
<ellipse fill="khaki" stroke="black" cx="617.49" cy="-260.61" rx="111.95" ry="26.74"/>
<text text-anchor="middle" x="617.49" y="-264.41" font-family="Helvetica,sans-Serif" font-size="14.00">MonitorBackground&#45;</text>
<text text-anchor="middle" x="617.49" y="-249.41" font-family="Helvetica,sans-Serif" font-size="14.00">WavelengthMax</text>
</g>
<!-- monBackWavMax&#45;&gt;calcFlatBg -->
<g id="edge6" class="edge">
<title>monBackWavMax&#45;&gt;calcFlatBg</title>
<path fill="none" stroke="black" d="M533.32,-242.9C458.49,-228.05 349.17,-206.35 271.08,-190.85"/>
<polygon fill="black" stroke="black" points="271.73,-187.41 261.24,-188.89 270.37,-194.27 271.73,-187.41"/>
</g>
<!-- convertMon -->
<g id="node8" class="node">
<title>convertMon</title>
<path fill="lightskyblue" stroke="black" d="M234.99,-279.61C234.99,-279.61 115.99,-279.61 115.99,-279.61 109.99,-279.61 103.99,-273.61 103.99,-267.61 103.99,-267.61 103.99,-253.61 103.99,-253.61 103.99,-247.61 109.99,-241.61 115.99,-241.61 115.99,-241.61 234.99,-241.61 234.99,-241.61 240.99,-241.61 246.99,-247.61 246.99,-253.61 246.99,-253.61 246.99,-267.61 246.99,-267.61 246.99,-273.61 240.99,-279.61 234.99,-279.61"/>
<text text-anchor="middle" x="175.49" y="-264.41" font-family="Helvetica,sans-Serif" font-size="14.00">ConvertUnits</text>
<text text-anchor="middle" x="175.49" y="-249.41" font-family="Helvetica,sans-Serif" font-size="14.00">(AlignBins = True)</text>
</g>
<!-- convertMon&#45;&gt;calcFlatBg -->
<g id="edge4" class="edge">
<title>convertMon&#45;&gt;calcFlatBg</title>
<path fill="none" stroke="black" d="M175.49,-241.43C175.49,-229.31 175.49,-213.15 175.49,-199.46"/>
<polygon fill="black" stroke="black" points="178.99,-199.13 175.49,-189.13 171.99,-199.13 178.99,-199.13"/>
</g>
<!-- cropMonWS&#45;&gt;convertMon -->
<g id="edge3" class="edge">
<title>cropMonWS&#45;&gt;convertMon</title>
<path fill="none" stroke="black" d="M175.49,-323.37C175.49,-313.62 175.49,-301.15 175.49,-289.98"/>
<polygon fill="black" stroke="black" points="178.99,-289.79 175.49,-279.79 171.99,-289.79 178.99,-289.79"/>
</g>
<!-- calcFlatBg&#45;&gt;intMon -->
<g id="edge7" class="edge">
<title>calcFlatBg&#45;&gt;intMon</title>
<path fill="none" stroke="black" d="M175.49,-152.76C175.49,-142.73 175.49,-129.84 175.49,-118.42"/>
<polygon fill="black" stroke="black" points="178.99,-118.08 175.49,-108.08 171.99,-118.08 178.99,-118.08"/>
</g>
<!-- intMon&#45;&gt;outputWS -->
<g id="edge10" class="edge">
<title>intMon&#45;&gt;outputWS</title>
<path fill="none" stroke="black" d="M175.49,-71.7C175.49,-63.98 175.49,-54.71 175.49,-46.11"/>
<polygon fill="black" stroke="black" points="178.99,-46.1 175.49,-36.1 171.99,-46.1 178.99,-46.1"/>
</g>
</g>
</svg>
