<?xml version="1.0" encoding="UTF-8" standalone="no"?>
<!DOCTYPE svg PUBLIC "-//W3C//DTD SVG 1.1//EN"
 "http://www.w3.org/Graphics/SVG/1.1/DTD/svg11.dtd">
<!-- Generated by graphviz version 2.47.2 (20210527.1257)
 -->
<!-- Title: ReflectometryReductionOne Pages: 1 -->
<svg width="1055pt" height="503pt"
 viewBox="0.00 0.00 1055.14 503.00" xmlns="http://www.w3.org/2000/svg" xmlns:xlink="http://www.w3.org/1999/xlink">
<g id="graph0" class="graph" transform="scale(1 1) rotate(0) translate(4 499)">
<title>ReflectometryReductionOne</title>
<polygon fill="white" stroke="transparent" points="-4,4 -4,-499 1051.14,-499 1051.14,4 -4,4"/>
<!-- inputWorkspace -->
<g id="node1" class="node">
<title>inputWorkspace</title>
<ellipse fill="khaki" stroke="black" cx="470.95" cy="-453" rx="128.08" ry="18"/>
<text text-anchor="middle" x="470.95" y="-449.3" font-family="Helvetica" font-size="14.00">OutputWorkspaceWavelength</text>
</g>
<!-- checkTransRun -->
<g id="node9" class="node">
<title>checkTransRun</title>
<polygon fill="limegreen" stroke="black" points="470.95,-325 321.95,-287 470.95,-249 619.95,-287 470.95,-325"/>
<text text-anchor="middle" x="470.95" y="-290.8" font-family="Helvetica" font-size="14.00">FirstTransmissionRun</text>
<text text-anchor="middle" x="470.95" y="-275.8" font-family="Helvetica" font-size="14.00">given?</text>
</g>
<!-- inputWorkspace&#45;&gt;checkTransRun -->
<g id="edge1" class="edge">
<title>inputWorkspace&#45;&gt;checkTransRun</title>
<path fill="none" stroke="black" d="M470.95,-434.76C470.95,-411.36 470.95,-368.63 470.95,-335.3"/>
<polygon fill="black" stroke="black" points="474.45,-335.28 470.95,-325.28 467.45,-335.28 474.45,-335.28"/>
</g>
<!-- rebinByTransWS -->
<g id="node11" class="node">
<title>rebinByTransWS</title>
<path fill="lightskyblue" stroke="black" d="M759.95,-305C759.95,-305 649.95,-305 649.95,-305 643.95,-305 637.95,-299 637.95,-293 637.95,-293 637.95,-281 637.95,-281 637.95,-275 643.95,-269 649.95,-269 649.95,-269 759.95,-269 759.95,-269 765.95,-269 771.95,-275 771.95,-281 771.95,-281 771.95,-293 771.95,-293 771.95,-299 765.95,-305 759.95,-305"/>
<text text-anchor="middle" x="704.95" y="-283.3" font-family="Helvetica" font-size="14.00">RebinToWorkspace</text>
</g>
<!-- inputWorkspace&#45;&gt;rebinByTransWS -->
<g id="edge16" class="edge">
<title>inputWorkspace&#45;&gt;rebinByTransWS</title>
<path fill="none" stroke="black" d="M495.11,-435.07C537.32,-405.48 624.53,-344.36 672.15,-310.98"/>
<polygon fill="black" stroke="black" points="674.39,-313.69 680.57,-305.09 670.37,-307.96 674.39,-313.69"/>
</g>
<!-- outputWorkspace -->
<g id="node2" class="node">
<title>outputWorkspace</title>
<ellipse fill="khaki" stroke="black" cx="371.95" cy="-18" rx="128.08" ry="18"/>
<text text-anchor="middle" x="371.95" y="-14.3" font-family="Helvetica" font-size="14.00">OutputWorkspaceWavelength</text>
</g>
<!-- corrAlg -->
<g id="node3" class="node">
<title>corrAlg</title>
<ellipse fill="khaki" stroke="black" cx="214.95" cy="-287" rx="89.08" ry="18"/>
<text text-anchor="middle" x="214.95" y="-283.3" font-family="Helvetica" font-size="14.00">CorrectionAlgorithm</text>
</g>
<!-- checkCorrAlg -->
<g id="node10" class="node">
<title>checkCorrAlg</title>
<polygon fill="limegreen" stroke="black" points="257.95,-197 125.73,-179 257.95,-161 390.16,-179 257.95,-197"/>
<text text-anchor="middle" x="257.95" y="-175.3" font-family="Helvetica" font-size="14.00">CorrectionAlgorithm?</text>
</g>
<!-- corrAlg&#45;&gt;checkCorrAlg -->
<g id="edge4" class="edge">
<title>corrAlg&#45;&gt;checkCorrAlg</title>
<path fill="none" stroke="black" d="M221.85,-268.97C228.8,-251.85 239.59,-225.24 247.57,-205.58"/>
<polygon fill="black" stroke="black" points="250.82,-206.87 251.34,-196.29 244.33,-204.24 250.82,-206.87"/>
</g>
<!-- firstTransRun -->
<g id="node4" class="node">
<title>firstTransRun</title>
<ellipse fill="khaki" stroke="black" cx="713.95" cy="-453" rx="96.68" ry="18"/>
<text text-anchor="middle" x="713.95" y="-449.3" font-family="Helvetica" font-size="14.00">FirstTransmissionRun</text>
</g>
<!-- createTransWS -->
<g id="node14" class="node">
<title>createTransWS</title>
<path fill="lightskyblue" stroke="black" d="M804.95,-398C804.95,-398 622.95,-398 622.95,-398 616.95,-398 610.95,-392 610.95,-386 610.95,-386 610.95,-374 610.95,-374 610.95,-368 616.95,-362 622.95,-362 622.95,-362 804.95,-362 804.95,-362 810.95,-362 816.95,-368 816.95,-374 816.95,-374 816.95,-386 816.95,-386 816.95,-392 810.95,-398 804.95,-398"/>
<text text-anchor="middle" x="713.95" y="-376.3" font-family="Helvetica" font-size="14.00">CreateTransmissionWorkspace</text>
</g>
<!-- firstTransRun&#45;&gt;createTransWS -->
<g id="edge13" class="edge">
<title>firstTransRun&#45;&gt;createTransWS</title>
<path fill="none" stroke="black" d="M713.95,-434.81C713.95,-426.79 713.95,-417.05 713.95,-408.07"/>
<polygon fill="black" stroke="black" points="717.45,-408.03 713.95,-398.03 710.45,-408.03 717.45,-408.03"/>
</g>
<!-- secondTransRun -->
<g id="node5" class="node">
<title>secondTransRun</title>
<ellipse fill="khaki" stroke="black" cx="937.95" cy="-453" rx="109.38" ry="18"/>
<text text-anchor="middle" x="937.95" y="-449.3" font-family="Helvetica" font-size="14.00">SecondTransmissionRun</text>
</g>
<!-- secondTransRun&#45;&gt;createTransWS -->
<g id="edge14" class="edge">
<title>secondTransRun&#45;&gt;createTransWS</title>
<path fill="none" stroke="black" d="M889.89,-436.77C857.11,-426.38 813.33,-412.5 777.65,-401.19"/>
<polygon fill="black" stroke="black" points="778.4,-397.76 767.81,-398.07 776.29,-404.43 778.4,-397.76"/>
</g>
<!-- polynomial -->
<g id="node6" class="node">
<title>polynomial</title>
<ellipse fill="khaki" stroke="black" cx="53.95" cy="-179" rx="53.89" ry="18"/>
<text text-anchor="middle" x="53.95" y="-175.3" font-family="Helvetica" font-size="14.00">Polynomial</text>
</g>
<!-- polyCorr -->
<g id="node12" class="node">
<title>polyCorr</title>
<path fill="lightskyblue" stroke="black" d="M261.95,-109C261.95,-109 139.95,-109 139.95,-109 133.95,-109 127.95,-103 127.95,-97 127.95,-97 127.95,-85 127.95,-85 127.95,-79 133.95,-73 139.95,-73 139.95,-73 261.95,-73 261.95,-73 267.95,-73 273.95,-79 273.95,-85 273.95,-85 273.95,-97 273.95,-97 273.95,-103 267.95,-109 261.95,-109"/>
<text text-anchor="middle" x="200.95" y="-87.3" font-family="Helvetica" font-size="14.00">PolynomialCorrection</text>
</g>
<!-- polynomial&#45;&gt;polyCorr -->
<g id="edge5" class="edge">
<title>polynomial&#45;&gt;polyCorr</title>
<path fill="none" stroke="black" d="M79.55,-163.02C102.58,-149.55 136.73,-129.57 162.94,-114.23"/>
<polygon fill="black" stroke="black" points="164.99,-117.09 171.85,-109.02 161.45,-111.05 164.99,-117.09"/>
</g>
<!-- c0 -->
<g id="node7" class="node">
<title>c0</title>
<ellipse fill="khaki" stroke="black" cx="434.95" cy="-179" rx="27" ry="18"/>
<text text-anchor="middle" x="434.95" y="-175.3" font-family="Helvetica" font-size="14.00">C0</text>
</g>
<!-- expCorr -->
<g id="node13" class="node">
<title>expCorr</title>
<path fill="lightskyblue" stroke="black" d="M497.45,-109C497.45,-109 372.45,-109 372.45,-109 366.45,-109 360.45,-103 360.45,-97 360.45,-97 360.45,-85 360.45,-85 360.45,-79 366.45,-73 372.45,-73 372.45,-73 497.45,-73 497.45,-73 503.45,-73 509.45,-79 509.45,-85 509.45,-85 509.45,-97 509.45,-97 509.45,-103 503.45,-109 497.45,-109"/>
<text text-anchor="middle" x="434.95" y="-87.3" font-family="Helvetica" font-size="14.00">ExponentialCorrection</text>
</g>
<!-- c0&#45;&gt;expCorr -->
<g id="edge8" class="edge">
<title>c0&#45;&gt;expCorr</title>
<path fill="none" stroke="black" d="M434.95,-160.6C434.95,-148.75 434.95,-132.82 434.95,-119.29"/>
<polygon fill="black" stroke="black" points="438.45,-119.08 434.95,-109.08 431.45,-119.08 438.45,-119.08"/>
</g>
<!-- c1 -->
<g id="node8" class="node">
<title>c1</title>
<ellipse fill="khaki" stroke="black" cx="506.95" cy="-179" rx="27" ry="18"/>
<text text-anchor="middle" x="506.95" y="-175.3" font-family="Helvetica" font-size="14.00">C1</text>
</g>
<!-- c1&#45;&gt;expCorr -->
<g id="edge9" class="edge">
<title>c1&#45;&gt;expCorr</title>
<path fill="none" stroke="black" d="M494.4,-163.02C483.8,-150.35 468.38,-131.94 455.9,-117.03"/>
<polygon fill="black" stroke="black" points="458.42,-114.59 449.32,-109.17 453.06,-119.09 458.42,-114.59"/>
</g>
<!-- checkTransRun&#45;&gt;checkCorrAlg -->
<g id="edge2" class="edge">
<title>checkTransRun&#45;&gt;checkCorrAlg</title>
<path fill="none" stroke="black" d="M421.54,-261.42C382.68,-242.07 329.4,-215.56 294.35,-198.12"/>
<polygon fill="black" stroke="black" points="295.49,-194.77 284.98,-193.45 292.37,-201.04 295.49,-194.77"/>
<text text-anchor="middle" x="367.95" y="-219.8" font-family="Helvetica" font-size="14.00">No</text>
</g>
<!-- divideTrans -->
<g id="node15" class="node">
<title>divideTrans</title>
<path fill="lightskyblue" stroke="black" d="M655.95,-198C655.95,-198 563.95,-198 563.95,-198 557.95,-198 551.95,-192 551.95,-186 551.95,-186 551.95,-172 551.95,-172 551.95,-166 557.95,-160 563.95,-160 563.95,-160 655.95,-160 655.95,-160 661.95,-160 667.95,-166 667.95,-172 667.95,-172 667.95,-186 667.95,-186 667.95,-192 661.95,-198 655.95,-198"/>
<text text-anchor="middle" x="609.95" y="-182.8" font-family="Helvetica" font-size="14.00">Divide by</text>
<text text-anchor="middle" x="609.95" y="-167.8" font-family="Helvetica" font-size="14.00">transmission run</text>
</g>
<!-- checkTransRun&#45;&gt;divideTrans -->
<g id="edge3" class="edge">
<title>checkTransRun&#45;&gt;divideTrans</title>
<path fill="none" stroke="black" d="M507.47,-258.15C529.48,-241.36 557.24,-220.19 578.31,-204.12"/>
<polygon fill="black" stroke="black" points="580.49,-206.86 586.32,-198.02 576.25,-201.3 580.49,-206.86"/>
<text text-anchor="middle" x="572.45" y="-219.8" font-family="Helvetica" font-size="14.00">Yes</text>
</g>
<!-- checkCorrAlg&#45;&gt;outputWorkspace -->
<g id="edge7" class="edge">
<title>checkCorrAlg&#45;&gt;outputWorkspace</title>
<path fill="none" stroke="black" d="M276.91,-163.46C283.71,-157.45 290.92,-150 295.95,-142 313.06,-114.74 301.2,-100.49 317.95,-73 324.68,-61.94 334.13,-51.46 343.25,-42.73"/>
<polygon fill="black" stroke="black" points="345.77,-45.17 350.77,-35.83 341.03,-40.01 345.77,-45.17"/>
<text text-anchor="middle" x="334.45" y="-87.3" font-family="Helvetica" font-size="14.00">None</text>
</g>
<!-- checkCorrAlg&#45;&gt;polyCorr -->
<g id="edge6" class="edge">
<title>checkCorrAlg&#45;&gt;polyCorr</title>
<path fill="none" stroke="black" d="M244.65,-162.66C239.5,-156.43 233.71,-149.05 228.95,-142 223.82,-134.42 218.76,-125.83 214.39,-117.93"/>
<polygon fill="black" stroke="black" points="217.44,-116.21 209.6,-109.09 211.28,-119.55 217.44,-116.21"/>
<text text-anchor="middle" x="262.45" y="-130.8" font-family="Helvetica" font-size="14.00">Polynomial</text>
</g>
<!-- checkCorrAlg&#45;&gt;expCorr -->
<g id="edge10" class="edge">
<title>checkCorrAlg&#45;&gt;expCorr</title>
<path fill="none" stroke="black" d="M284.69,-164.38C305.21,-153.99 334.28,-139.4 359.95,-127 369.16,-122.55 379.06,-117.86 388.54,-113.42"/>
<polygon fill="black" stroke="black" points="390.27,-116.47 397.85,-109.07 387.31,-110.13 390.27,-116.47"/>
<text text-anchor="middle" x="395.45" y="-130.8" font-family="Helvetica" font-size="14.00">Exponential</text>
</g>
<!-- rebinByTransWS&#45;&gt;divideTrans -->
<g id="edge17" class="edge">
<title>rebinByTransWS&#45;&gt;divideTrans</title>
<path fill="none" stroke="black" d="M689.68,-268.97C674.38,-251.89 650.62,-225.38 633.01,-205.74"/>
<polygon fill="black" stroke="black" points="635.41,-203.16 626.12,-198.05 630.19,-207.84 635.41,-203.16"/>
</g>
<!-- polyCorr&#45;&gt;outputWorkspace -->
<g id="edge11" class="edge">
<title>polyCorr&#45;&gt;outputWorkspace</title>
<path fill="none" stroke="black" d="M241.9,-72.99C266.35,-62.84 297.53,-49.9 323.23,-39.23"/>
<polygon fill="black" stroke="black" points="324.9,-42.32 332.79,-35.26 322.21,-35.86 324.9,-42.32"/>
</g>
<!-- expCorr&#45;&gt;outputWorkspace -->
<g id="edge12" class="edge">
<title>expCorr&#45;&gt;outputWorkspace</title>
<path fill="none" stroke="black" d="M419.69,-72.81C411.96,-64.09 402.42,-53.34 393.9,-43.75"/>
<polygon fill="black" stroke="black" points="396.31,-41.19 387.06,-36.03 391.07,-45.83 396.31,-41.19"/>
</g>
<!-- createTransWS&#45;&gt;rebinByTransWS -->
<g id="edge15" class="edge">
<title>createTransWS&#45;&gt;rebinByTransWS</title>
<path fill="none" stroke="black" d="M712.25,-361.88C710.96,-348.79 709.15,-330.48 707.65,-315.36"/>
<polygon fill="black" stroke="black" points="711.1,-314.65 706.63,-305.04 704.13,-315.34 711.1,-314.65"/>
</g>
<!-- divideTrans&#45;&gt;outputWorkspace -->
<g id="edge18" class="edge">
<title>divideTrans&#45;&gt;outputWorkspace</title>
<path fill="none" stroke="black" d="M598.37,-159.94C582.7,-136.82 552.68,-96.91 517.95,-73 495.14,-57.31 467.22,-45.53 441.92,-37.04"/>
<polygon fill="black" stroke="black" points="442.96,-33.7 432.37,-33.95 440.8,-40.36 442.96,-33.7"/>
</g>
</g>
</svg>
