<?xml version="1.0" encoding="UTF-8" standalone="no"?>
<!DOCTYPE svg PUBLIC "-//W3C//DTD SVG 1.1//EN"
 "http://www.w3.org/Graphics/SVG/1.1/DTD/svg11.dtd">
<!-- Generated by graphviz version 3.0.0 (20220315.2325)
 -->
<!-- Title: ReflectometryILLConvertToQ Pages: 1 -->
<svg width="723pt" height="577pt"
 viewBox="0.00 0.00 722.79 577.00" xmlns="http://www.w3.org/2000/svg" xmlns:xlink="http://www.w3.org/1999/xlink">
<g id="graph0" class="graph" transform="scale(1 1) rotate(0) translate(4 573)">
<title>ReflectometryILLConvertToQ</title>
<polygon fill="white" stroke="transparent" points="-4,4 -4,-573 718.79,-573 718.79,4 -4,4"/>
<text text-anchor="middle" x="357.39" y="-553.8" font-family="Helvetica,sans-Serif" font-size="14.00">ReflectometryILLConvertToQ workflow diagram</text>
<!-- input -->
<g id="node1" class="node">
<title>input</title>
<ellipse fill="khaki" stroke="black" cx="272" cy="-528" rx="84.49" ry="18"/>
<text text-anchor="middle" x="272" y="-524.3" font-family="Helvetica,sans-Serif" font-size="14.00">InputWorkspace</text>
</g>
<!-- refl_to_q -->
<g id="node8" class="node">
<title>refl_to_q</title>
<path fill="lightskyblue" stroke="black" d="M384.5,-473C384.5,-473 159.5,-473 159.5,-473 153.5,-473 147.5,-467 147.5,-461 147.5,-461 147.5,-449 147.5,-449 147.5,-443 153.5,-437 159.5,-437 159.5,-437 384.5,-437 384.5,-437 390.5,-437 396.5,-443 396.5,-449 396.5,-449 396.5,-461 396.5,-461 396.5,-467 390.5,-473 384.5,-473"/>
<text text-anchor="middle" x="272" y="-451.3" font-family="Helvetica,sans-Serif" font-size="14.00">ReflectometryMomentumTransfer</text>
</g>
<!-- input&#45;&gt;refl_to_q -->
<g id="edge1" class="edge">
<title>input&#45;&gt;refl_to_q</title>
<path fill="none" stroke="black" d="M272,-509.81C272,-501.79 272,-492.05 272,-483.07"/>
<polygon fill="black" stroke="black" points="275.5,-483.03 272,-473.03 268.5,-483.03 275.5,-483.03"/>
</g>
<!-- output -->
<g id="node2" class="node">
<title>output</title>
<ellipse fill="khaki" stroke="black" cx="241" cy="-18" rx="92.08" ry="18"/>
<text text-anchor="middle" x="241" y="-14.3" font-family="Helvetica,sans-Serif" font-size="14.00">OutputWorkspace</text>
</g>
<!-- direct_foreground -->
<g id="node3" class="node">
<title>direct_foreground</title>
<ellipse fill="khaki" stroke="black" cx="577" cy="-455" rx="137.58" ry="18"/>
<text text-anchor="middle" x="577" y="-451.3" font-family="Helvetica,sans-Serif" font-size="14.00">DirectForegroundWorkspace</text>
</g>
<!-- direct_to_q -->
<g id="node5" class="node">
<title>direct_to_q</title>
<path fill="lightskyblue" stroke="black" d="M645,-386C645,-386 509,-386 509,-386 503,-386 497,-380 497,-374 497,-374 497,-360 497,-360 497,-354 503,-348 509,-348 509,-348 645,-348 645,-348 651,-348 657,-354 657,-360 657,-360 657,-374 657,-374 657,-380 651,-386 645,-386"/>
<text text-anchor="middle" x="577" y="-370.8" font-family="Helvetica,sans-Serif" font-size="14.00">Copy Q and dQ from</text>
<text text-anchor="middle" x="577" y="-355.8" font-family="Helvetica,sans-Serif" font-size="14.00">reflected</text>
</g>
<!-- direct_foreground&#45;&gt;direct_to_q -->
<g id="edge8" class="edge">
<title>direct_foreground&#45;&gt;direct_to_q</title>
<path fill="none" stroke="black" d="M577,-436.6C577,-425.06 577,-409.65 577,-396.36"/>
<polygon fill="black" stroke="black" points="580.5,-396.27 577,-386.27 573.5,-396.27 580.5,-396.27"/>
</g>
<!-- q_grouping -->
<g id="node4" class="node">
<title>q_grouping</title>
<ellipse fill="khaki" stroke="black" cx="384" cy="-367" rx="94.78" ry="18"/>
<text text-anchor="middle" x="384" y="-363.3" font-family="Helvetica,sans-Serif" font-size="14.00">GroupingQFraction</text>
</g>
<!-- direct_group_points -->
<g id="node7" class="node">
<title>direct_group_points</title>
<path fill="lightskyblue" stroke="black" d="M642.5,-217C642.5,-217 487.5,-217 487.5,-217 481.5,-217 475.5,-211 475.5,-205 475.5,-205 475.5,-191 475.5,-191 475.5,-185 481.5,-179 487.5,-179 487.5,-179 642.5,-179 642.5,-179 648.5,-179 654.5,-185 654.5,-191 654.5,-191 654.5,-205 654.5,-205 654.5,-211 648.5,-217 642.5,-217"/>
<text text-anchor="middle" x="565" y="-201.8" font-family="Helvetica,sans-Serif" font-size="14.00">Optionally group points</text>
<text text-anchor="middle" x="565" y="-186.8" font-family="Helvetica,sans-Serif" font-size="14.00">to Q resolution</text>
</g>
<!-- q_grouping&#45;&gt;direct_group_points -->
<g id="edge14" class="edge">
<title>q_grouping&#45;&gt;direct_group_points</title>
<path fill="none" stroke="black" d="M402.35,-349.07C434.32,-319.57 500.37,-258.63 537.72,-224.17"/>
<polygon fill="black" stroke="black" points="540.25,-226.59 545.23,-217.24 535.51,-221.45 540.25,-226.59"/>
</g>
<!-- refl_group_points -->
<g id="node10" class="node">
<title>refl_group_points</title>
<path fill="lightskyblue" stroke="black" d="M306.5,-311C306.5,-311 151.5,-311 151.5,-311 145.5,-311 139.5,-305 139.5,-299 139.5,-299 139.5,-285 139.5,-285 139.5,-279 145.5,-273 151.5,-273 151.5,-273 306.5,-273 306.5,-273 312.5,-273 318.5,-279 318.5,-285 318.5,-285 318.5,-299 318.5,-299 318.5,-305 312.5,-311 306.5,-311"/>
<text text-anchor="middle" x="229" y="-295.8" font-family="Helvetica,sans-Serif" font-size="14.00">Optionally group points</text>
<text text-anchor="middle" x="229" y="-280.8" font-family="Helvetica,sans-Serif" font-size="14.00">to Q resolution</text>
</g>
<!-- q_grouping&#45;&gt;refl_group_points -->
<g id="edge13" class="edge">
<title>q_grouping&#45;&gt;refl_group_points</title>
<path fill="none" stroke="black" d="M350.37,-350.16C328.83,-340.02 300.55,-326.7 276.71,-315.47"/>
<polygon fill="black" stroke="black" points="278.02,-312.22 267.48,-311.12 275.04,-318.55 278.02,-312.22"/>
</g>
<!-- direct_to_point_data -->
<g id="node6" class="node">
<title>direct_to_point_data</title>
<path fill="lightskyblue" stroke="black" d="M636.5,-310C636.5,-310 507.5,-310 507.5,-310 501.5,-310 495.5,-304 495.5,-298 495.5,-298 495.5,-286 495.5,-286 495.5,-280 501.5,-274 507.5,-274 507.5,-274 636.5,-274 636.5,-274 642.5,-274 648.5,-280 648.5,-286 648.5,-286 648.5,-298 648.5,-298 648.5,-304 642.5,-310 636.5,-310"/>
<text text-anchor="middle" x="572" y="-288.3" font-family="Helvetica,sans-Serif" font-size="14.00">ConvertToPointData</text>
</g>
<!-- direct_to_q&#45;&gt;direct_to_point_data -->
<g id="edge10" class="edge">
<title>direct_to_q&#45;&gt;direct_to_point_data</title>
<path fill="none" stroke="black" d="M575.76,-347.96C575.2,-339.7 574.52,-329.74 573.89,-320.57"/>
<polygon fill="black" stroke="black" points="577.36,-320.07 573.19,-310.33 570.38,-320.55 577.36,-320.07"/>
</g>
<!-- direct_to_point_data&#45;&gt;direct_group_points -->
<g id="edge11" class="edge">
<title>direct_to_point_data&#45;&gt;direct_group_points</title>
<path fill="none" stroke="black" d="M570.68,-273.7C569.7,-260.71 568.32,-242.65 567.17,-227.54"/>
<polygon fill="black" stroke="black" points="570.63,-226.88 566.38,-217.17 563.65,-227.41 570.63,-226.88"/>
</g>
<!-- divide -->
<g id="node11" class="node">
<title>divide</title>
<path fill="lightskyblue" stroke="black" d="M313,-109C313,-109 277,-109 277,-109 271,-109 265,-103 265,-97 265,-97 265,-85 265,-85 265,-79 271,-73 277,-73 277,-73 313,-73 313,-73 319,-73 325,-79 325,-85 325,-85 325,-97 325,-97 325,-103 319,-109 313,-109"/>
<text text-anchor="middle" x="295" y="-87.3" font-family="Helvetica,sans-Serif" font-size="14.00">Divide</text>
</g>
<!-- direct_group_points&#45;&gt;divide -->
<g id="edge12" class="edge">
<title>direct_group_points&#45;&gt;divide</title>
<path fill="none" stroke="black" d="M518.59,-178.95C466.82,-158.82 383.93,-126.59 334.95,-107.53"/>
<polygon fill="black" stroke="black" points="335.91,-104.16 325.33,-103.79 333.38,-110.68 335.91,-104.16"/>
<text text-anchor="middle" x="437" y="-130.8" font-family="Helvetica,sans-Serif" font-size="14.00">RHS</text>
</g>
<!-- refl_to_q&#45;&gt;direct_to_q -->
<g id="edge9" class="edge">
<title>refl_to_q&#45;&gt;direct_to_q</title>
<path fill="none" stroke="black" d="M332.62,-436.91C381.67,-423.08 450.92,-403.55 503.19,-388.81"/>
<polygon fill="black" stroke="black" points="504.4,-392.11 513.07,-386.02 502.5,-385.37 504.4,-392.11"/>
<text text-anchor="middle" x="494.5" y="-407.8" font-family="Helvetica,sans-Serif" font-size="14.00">Q and dQ data</text>
</g>
<!-- refl_to_point_data -->
<g id="node9" class="node">
<title>refl_to_point_data</title>
<path fill="lightskyblue" stroke="black" d="M259.5,-385C259.5,-385 130.5,-385 130.5,-385 124.5,-385 118.5,-379 118.5,-373 118.5,-373 118.5,-361 118.5,-361 118.5,-355 124.5,-349 130.5,-349 130.5,-349 259.5,-349 259.5,-349 265.5,-349 271.5,-355 271.5,-361 271.5,-361 271.5,-373 271.5,-373 271.5,-379 265.5,-385 259.5,-385"/>
<text text-anchor="middle" x="195" y="-363.3" font-family="Helvetica,sans-Serif" font-size="14.00">ConvertToPointData</text>
</g>
<!-- refl_to_q&#45;&gt;refl_to_point_data -->
<g id="edge2" class="edge">
<title>refl_to_q&#45;&gt;refl_to_point_data</title>
<path fill="none" stroke="black" d="M256.42,-436.6C245.18,-424.04 229.84,-406.91 217.3,-392.91"/>
<polygon fill="black" stroke="black" points="219.57,-390.2 210.3,-385.08 214.36,-394.87 219.57,-390.2"/>
</g>
<!-- refl_to_point_data&#45;&gt;refl_group_points -->
<g id="edge3" class="edge">
<title>refl_to_point_data&#45;&gt;refl_group_points</title>
<path fill="none" stroke="black" d="M203.06,-348.7C207,-340.23 211.85,-329.82 216.28,-320.31"/>
<polygon fill="black" stroke="black" points="219.48,-321.74 220.53,-311.19 213.13,-318.78 219.48,-321.74"/>
</g>
<!-- if_direct_foreground -->
<g id="node12" class="node">
<title>if_direct_foreground</title>
<polygon fill="limegreen" stroke="black" points="229,-236 0,-198 229,-160 458,-198 229,-236"/>
<text text-anchor="middle" x="229" y="-201.8" font-family="Helvetica,sans-Serif" font-size="14.00">Is DirectForegroundWorkspace</text>
<text text-anchor="middle" x="229" y="-186.8" font-family="Helvetica,sans-Serif" font-size="14.00">available?</text>
</g>
<!-- refl_group_points&#45;&gt;if_direct_foreground -->
<g id="edge4" class="edge">
<title>refl_group_points&#45;&gt;if_direct_foreground</title>
<path fill="none" stroke="black" d="M229,-272.82C229,-265.13 229,-255.78 229,-246.35"/>
<polygon fill="black" stroke="black" points="232.5,-246.16 229,-236.16 225.5,-246.16 232.5,-246.16"/>
</g>
<!-- divide&#45;&gt;output -->
<g id="edge7" class="edge">
<title>divide&#45;&gt;output</title>
<path fill="none" stroke="black" d="M281.93,-72.81C275.36,-64.18 267.28,-53.56 260.04,-44.03"/>
<polygon fill="black" stroke="black" points="262.79,-41.87 253.95,-36.03 257.22,-46.11 262.79,-41.87"/>
</g>
<!-- if_direct_foreground&#45;&gt;output -->
<g id="edge5" class="edge">
<title>if_direct_foreground&#45;&gt;output</title>
<path fill="none" stroke="black" d="M231.49,-160.12C233.76,-126.38 237.08,-77.22 239.13,-46.72"/>
<polygon fill="black" stroke="black" points="242.65,-46.6 239.83,-36.39 235.66,-46.13 242.65,-46.6"/>
<text text-anchor="middle" x="247" y="-87.3" font-family="Helvetica,sans-Serif" font-size="14.00">no</text>
</g>
<!-- if_direct_foreground&#45;&gt;divide -->
<g id="edge6" class="edge">
<title>if_direct_foreground&#45;&gt;divide</title>
<path fill="none" stroke="black" d="M250.06,-163.49C259.41,-148.62 270.23,-131.4 278.91,-117.59"/>
<polygon fill="black" stroke="black" points="281.91,-119.4 284.27,-109.07 275.99,-115.67 281.91,-119.4"/>
<text text-anchor="middle" x="302.5" y="-130.8" font-family="Helvetica,sans-Serif" font-size="14.00">yes, LHS</text>
</g>
</g>
</svg>
