<?xml version="1.0" encoding="UTF-8" standalone="no"?>
<!DOCTYPE svg PUBLIC "-//W3C//DTD SVG 1.1//EN"
 "http://www.w3.org/Graphics/SVG/1.1/DTD/svg11.dtd">
<!-- Generated by graphviz version 2.47.2 (20210527.1257)
 -->
<!-- Title: ReflectometryReductionOne Pages: 1 -->
<svg width="325pt" height="304pt"
 viewBox="0.00 0.00 324.97 303.74" xmlns="http://www.w3.org/2000/svg" xmlns:xlink="http://www.w3.org/1999/xlink">
<g id="graph0" class="graph" transform="scale(1 1) rotate(0) translate(4 299.74)">
<title>ReflectometryReductionOne</title>
<polygon fill="white" stroke="transparent" points="-4,4 -4,-299.74 320.97,-299.74 320.97,4 -4,4"/>
<!-- inputWS -->
<g id="node1" class="node">
<title>inputWS</title>
<ellipse fill="khaki" stroke="black" cx="100.74" cy="-244.87" rx="74.19" ry="18"/>
<text text-anchor="middle" x="100.74" y="-241.17" font-family="Helvetica" font-size="14.00">InputWorkspace</text>
</g>
<!-- groupDetRDB -->
<g id="node5" class="node">
<title>groupDetRDB</title>
<path fill="lightskyblue" stroke="black" d="M145.24,-182C145.24,-182 56.24,-182 56.24,-182 50.24,-182 44.24,-176 44.24,-170 44.24,-170 44.24,-158 44.24,-158 44.24,-152 50.24,-146 56.24,-146 56.24,-146 145.24,-146 145.24,-146 151.24,-146 157.24,-152 157.24,-158 157.24,-158 157.24,-170 157.24,-170 157.24,-176 151.24,-182 145.24,-182"/>
<text text-anchor="middle" x="100.74" y="-160.3" font-family="Helvetica" font-size="14.00">GroupDetectors</text>
</g>
<!-- inputWS&#45;&gt;groupDetRDB -->
<g id="edge1" class="edge">
<title>inputWS&#45;&gt;groupDetRDB</title>
<path fill="none" stroke="black" d="M100.74,-226.76C100.74,-216.73 100.74,-203.84 100.74,-192.42"/>
<polygon fill="black" stroke="black" points="104.24,-192.08 100.74,-182.08 97.24,-192.08 104.24,-192.08"/>
</g>
<!-- outputWS -->
<g id="node2" class="node">
<title>outputWS</title>
<ellipse fill="khaki" stroke="black" cx="100.74" cy="-18" rx="100.98" ry="18"/>
<text text-anchor="middle" x="100.74" y="-14.3" font-family="Helvetica" font-size="14.00">DirectBeamWorkspace</text>
</g>
<!-- regionOfDirectBeam -->
<g id="node3" class="node">
<title>regionOfDirectBeam</title>
<ellipse fill="khaki" stroke="black" cx="254.74" cy="-244.87" rx="62.45" ry="26.74"/>
<text text-anchor="middle" x="254.74" y="-248.67" font-family="Helvetica" font-size="14.00">RegionOf&#45;</text>
<text text-anchor="middle" x="254.74" y="-233.67" font-family="Helvetica" font-size="14.00">DirectBeam</text>
</g>
<!-- regionOfDirectBeam&#45;&gt;groupDetRDB -->
<g id="edge2" class="edge">
<title>regionOfDirectBeam&#45;&gt;groupDetRDB</title>
<path fill="none" stroke="black" d="M215.48,-223.76C193.39,-212.45 165.8,-198.32 143.21,-186.75"/>
<polygon fill="black" stroke="black" points="144.68,-183.57 134.19,-182.13 141.49,-189.8 144.68,-183.57"/>
</g>
<!-- convertDB -->
<g id="node4" class="node">
<title>convertDB</title>
<path fill="lightskyblue" stroke="black" d="M151.24,-110C151.24,-110 50.24,-110 50.24,-110 44.24,-110 38.24,-104 38.24,-98 38.24,-98 38.24,-84 38.24,-84 38.24,-78 44.24,-72 50.24,-72 50.24,-72 151.24,-72 151.24,-72 157.24,-72 163.24,-78 163.24,-84 163.24,-84 163.24,-98 163.24,-98 163.24,-104 157.24,-110 151.24,-110"/>
<text text-anchor="middle" x="100.74" y="-94.8" font-family="Helvetica" font-size="14.00">ConvertUnits</text>
<text text-anchor="middle" x="100.74" y="-79.8" font-family="Helvetica" font-size="14.00">(AlignBins = True)</text>
</g>
<!-- convertDB&#45;&gt;outputWS -->
<g id="edge4" class="edge">
<title>convertDB&#45;&gt;outputWS</title>
<path fill="none" stroke="black" d="M100.74,-71.72C100.74,-63.97 100.74,-54.79 100.74,-46.27"/>
<polygon fill="black" stroke="black" points="104.24,-46 100.74,-36 97.24,-46 104.24,-46"/>
</g>
<!-- groupDetRDB&#45;&gt;convertDB -->
<g id="edge3" class="edge">
<title>groupDetRDB&#45;&gt;convertDB</title>
<path fill="none" stroke="black" d="M100.74,-145.81C100.74,-138.11 100.74,-128.82 100.74,-120.15"/>
<polygon fill="black" stroke="black" points="104.24,-120.02 100.74,-110.02 97.24,-120.02 104.24,-120.02"/>
</g>
</g>
</svg>
