<?xml version="1.0" encoding="UTF-8" standalone="no"?>
<!DOCTYPE svg PUBLIC "-//W3C//DTD SVG 1.1//EN"
 "http://www.w3.org/Graphics/SVG/1.1/DTD/svg11.dtd">
<!-- Generated by graphviz version 2.47.2 (20210527.1257)
 -->
<!-- Title: ReflectometryReductionOne Pages: 1 -->
<svg width="312pt" height="614pt"
 viewBox="0.00 0.00 312.04 614.00" xmlns="http://www.w3.org/2000/svg" xmlns:xlink="http://www.w3.org/1999/xlink">
<g id="graph0" class="graph" transform="scale(1 1) rotate(0) translate(4 610)">
<title>ReflectometryReductionOne</title>
<polygon fill="white" stroke="transparent" points="-4,4 -4,-610 308.04,-610 308.04,4 -4,4"/>
<!-- inputWS -->
<g id="node1" class="node">
<title>inputWS</title>
<ellipse fill="khaki" stroke="black" cx="132.04" cy="-564" rx="74.19" ry="18"/>
<text text-anchor="middle" x="132.04" y="-560.3" font-family="Helvetica" font-size="14.00">InputWorkspace</text>
</g>
<!-- checkSumDone -->
<g id="node4" class="node">
<title>checkSumDone</title>
<polygon fill="limegreen" stroke="black" points="132.04,-509 5.35,-491 132.04,-473 258.73,-491 132.04,-509"/>
<text text-anchor="middle" x="132.04" y="-487.3" font-family="Helvetica" font-size="14.00">Reduction required?</text>
</g>
<!-- inputWS&#45;&gt;checkSumDone -->
<g id="edge1" class="edge">
<title>inputWS&#45;&gt;checkSumDone</title>
<path fill="none" stroke="black" d="M132.04,-545.81C132.04,-537.79 132.04,-528.05 132.04,-519.07"/>
<polygon fill="black" stroke="black" points="135.54,-519.03 132.04,-509.03 128.54,-519.03 135.54,-519.03"/>
</g>
<!-- outputWSWL -->
<g id="node2" class="node">
<title>outputWSWL</title>
<ellipse fill="khaki" stroke="black" cx="128.04" cy="-166" rx="128.08" ry="18"/>
<text text-anchor="middle" x="128.04" y="-162.3" font-family="Helvetica" font-size="14.00">OutputWorkspaceWavelength</text>
</g>
<!-- convertMom -->
<g id="node8" class="node">
<title>convertMom</title>
<polygon fill="lightseagreen" stroke="black" points="204.04,-111 52.04,-111 52.04,-73 204.04,-73 204.04,-111"/>
<text text-anchor="middle" x="128.04" y="-95.8" font-family="Helvetica" font-size="14.00">Convert to momentum</text>
<text text-anchor="middle" x="128.04" y="-80.8" font-family="Helvetica" font-size="14.00">transfer</text>
</g>
<!-- outputWSWL&#45;&gt;convertMom -->
<g id="edge7" class="edge">
<title>outputWSWL&#45;&gt;convertMom</title>
<path fill="none" stroke="black" d="M128.04,-147.94C128.04,-139.99 128.04,-130.31 128.04,-121.31"/>
<polygon fill="black" stroke="black" points="131.54,-121.2 128.04,-111.2 124.54,-121.2 131.54,-121.2"/>
</g>
<!-- outputWSFinal -->
<g id="node3" class="node">
<title>outputWSFinal</title>
<ellipse fill="khaki" stroke="black" cx="128.04" cy="-18" rx="81.49" ry="18"/>
<text text-anchor="middle" x="128.04" y="-14.3" font-family="Helvetica" font-size="14.00">OutputWorkspace</text>
</g>
<!-- convertUnits -->
<g id="node5" class="node">
<title>convertUnits</title>
<polygon fill="lightseagreen" stroke="black" points="304.04,-422 152.04,-422 152.04,-369 304.04,-369 304.04,-422"/>
<text text-anchor="middle" x="228.04" y="-406.8" font-family="Helvetica" font-size="14.00">Convert to λ</text>
<text text-anchor="middle" x="228.04" y="-391.8" font-family="Helvetica" font-size="14.00">Sum in λ</text>
<text text-anchor="middle" x="228.04" y="-376.8" font-family="Helvetica" font-size="14.00">Normalize by monitors</text>
</g>
<!-- checkSumDone&#45;&gt;convertUnits -->
<g id="edge3" class="edge">
<title>checkSumDone&#45;&gt;convertUnits</title>
<path fill="none" stroke="black" d="M147.46,-474.98C160.15,-462.62 178.58,-444.67 194.62,-429.05"/>
<polygon fill="black" stroke="black" points="197.06,-431.55 201.79,-422.07 192.18,-426.54 197.06,-431.55"/>
<text text-anchor="middle" x="193.54" y="-443.8" font-family="Helvetica" font-size="14.00">Yes</text>
</g>
<!-- applyCorrTrans -->
<g id="node6" class="node">
<title>applyCorrTrans</title>
<polygon fill="lightseagreen" stroke="black" points="193.54,-332 62.54,-332 62.54,-294 193.54,-294 193.54,-332"/>
<text text-anchor="middle" x="128.04" y="-316.8" font-family="Helvetica" font-size="14.00">Apply transmission</text>
<text text-anchor="middle" x="128.04" y="-301.8" font-family="Helvetica" font-size="14.00"> corrections</text>
</g>
<!-- checkSumDone&#45;&gt;applyCorrTrans -->
<g id="edge2" class="edge">
<title>checkSumDone&#45;&gt;applyCorrTrans</title>
<path fill="none" stroke="black" d="M129.83,-473.27C128.14,-459.53 125.94,-439.54 125.04,-422 123.83,-398.48 124.4,-392.55 125.04,-369 125.27,-360.4 125.71,-351.04 126.19,-342.53"/>
<polygon fill="black" stroke="black" points="129.69,-342.51 126.79,-332.32 122.71,-342.1 129.69,-342.51"/>
<text text-anchor="middle" x="134.04" y="-391.8" font-family="Helvetica" font-size="14.00">No</text>
</g>
<!-- convertUnits&#45;&gt;applyCorrTrans -->
<g id="edge4" class="edge">
<title>convertUnits&#45;&gt;applyCorrTrans</title>
<path fill="none" stroke="black" d="M196.12,-368.81C184.05,-359.09 170.35,-348.06 158.42,-338.45"/>
<polygon fill="black" stroke="black" points="160.47,-335.61 150.48,-332.07 156.08,-341.06 160.47,-335.61"/>
</g>
<!-- sumInQ -->
<g id="node7" class="node">
<title>sumInQ</title>
<polygon fill="lightseagreen" stroke="black" points="165.04,-257 91.04,-257 91.04,-221 165.04,-221 165.04,-257"/>
<text text-anchor="middle" x="128.04" y="-235.3" font-family="Helvetica" font-size="14.00">Sum in Q</text>
</g>
<!-- applyCorrTrans&#45;&gt;sumInQ -->
<g id="edge5" class="edge">
<title>applyCorrTrans&#45;&gt;sumInQ</title>
<path fill="none" stroke="black" d="M128.04,-293.83C128.04,-285.89 128.04,-276.41 128.04,-267.63"/>
<polygon fill="black" stroke="black" points="131.54,-267.42 128.04,-257.42 124.54,-267.42 131.54,-267.42"/>
</g>
<!-- sumInQ&#45;&gt;outputWSWL -->
<g id="edge6" class="edge">
<title>sumInQ&#45;&gt;outputWSWL</title>
<path fill="none" stroke="black" d="M128.04,-220.81C128.04,-212.79 128.04,-203.05 128.04,-194.07"/>
<polygon fill="black" stroke="black" points="131.54,-194.03 128.04,-184.03 124.54,-194.03 131.54,-194.03"/>
</g>
<!-- convertMom&#45;&gt;outputWSFinal -->
<g id="edge8" class="edge">
<title>convertMom&#45;&gt;outputWSFinal</title>
<path fill="none" stroke="black" d="M128.04,-72.83C128.04,-64.89 128.04,-55.41 128.04,-46.63"/>
<polygon fill="black" stroke="black" points="131.54,-46.42 128.04,-36.42 124.54,-46.42 131.54,-46.42"/>
</g>
</g>
</svg>
