<?xml version="1.0" encoding="UTF-8" standalone="no"?>
<!DOCTYPE svg PUBLIC "-//W3C//DTD SVG 1.1//EN"
 "http://www.w3.org/Graphics/SVG/1.1/DTD/svg11.dtd">
<!-- Generated by graphviz version 2.47.2 (20210527.1257)
 -->
<!-- Title: ReflectometryReductionOne Pages: 1 -->
<svg width="898pt" height="1007pt"
 viewBox="0.00 0.00 898.28 1007.19" xmlns="http://www.w3.org/2000/svg" xmlns:xlink="http://www.w3.org/1999/xlink">
<g id="graph0" class="graph" transform="scale(1 1) rotate(0) translate(4 1003.19)">
<title>ReflectometryReductionOne</title>
<polygon fill="white" stroke="transparent" points="-4,4 -4,-1003.19 894.28,-1003.19 894.28,4 -4,4"/>
<!-- floodWorkspace -->
<g id="node1" class="node">
<title>floodWorkspace</title>
<ellipse fill="khaki" stroke="black" cx="453.04" cy="-957.19" rx="76.89" ry="18"/>
<text text-anchor="middle" x="453.04" y="-953.49" font-family="Helvetica" font-size="14.00">FloodWorkspace</text>
</g>
<!-- applyFloodI -->
<g id="node22" class="node">
<title>applyFloodI</title>
<path fill="lightskyblue" stroke="black" d="M432.04,-902.19C432.04,-902.19 304.04,-902.19 304.04,-902.19 298.04,-902.19 292.04,-896.19 292.04,-890.19 292.04,-890.19 292.04,-878.19 292.04,-878.19 292.04,-872.19 298.04,-866.19 304.04,-866.19 304.04,-866.19 432.04,-866.19 432.04,-866.19 438.04,-866.19 444.04,-872.19 444.04,-878.19 444.04,-878.19 444.04,-890.19 444.04,-890.19 444.04,-896.19 438.04,-902.19 432.04,-902.19"/>
<text text-anchor="middle" x="368.04" y="-880.49" font-family="Helvetica" font-size="14.00">ApplyFloodWorkspace</text>
</g>
<!-- floodWorkspace&#45;&gt;applyFloodI -->
<g id="edge2" class="edge">
<title>floodWorkspace&#45;&gt;applyFloodI</title>
<path fill="none" stroke="black" d="M433.32,-939.73C422.3,-930.52 408.37,-918.89 396.22,-908.73"/>
<polygon fill="black" stroke="black" points="398.45,-906.04 388.53,-902.31 393.96,-911.41 398.45,-906.04"/>
</g>
<!-- applyFloodT -->
<g id="node23" class="node">
<title>applyFloodT</title>
<path fill="lightskyblue" stroke="black" d="M602.04,-902.19C602.04,-902.19 474.04,-902.19 474.04,-902.19 468.04,-902.19 462.04,-896.19 462.04,-890.19 462.04,-890.19 462.04,-878.19 462.04,-878.19 462.04,-872.19 468.04,-866.19 474.04,-866.19 474.04,-866.19 602.04,-866.19 602.04,-866.19 608.04,-866.19 614.04,-872.19 614.04,-878.19 614.04,-878.19 614.04,-890.19 614.04,-890.19 614.04,-896.19 608.04,-902.19 602.04,-902.19"/>
<text text-anchor="middle" x="538.04" y="-880.49" font-family="Helvetica" font-size="14.00">ApplyFloodWorkspace</text>
</g>
<!-- floodWorkspace&#45;&gt;applyFloodT -->
<g id="edge3" class="edge">
<title>floodWorkspace&#45;&gt;applyFloodT</title>
<path fill="none" stroke="black" d="M472.75,-939.73C483.78,-930.52 497.7,-918.89 509.86,-908.73"/>
<polygon fill="black" stroke="black" points="512.11,-911.41 517.54,-902.31 507.63,-906.04 512.11,-911.41"/>
</g>
<!-- inputWorkspace -->
<g id="node2" class="node">
<title>inputWorkspace</title>
<ellipse fill="khaki" stroke="black" cx="284.04" cy="-957.19" rx="74.19" ry="18"/>
<text text-anchor="middle" x="284.04" y="-953.49" font-family="Helvetica" font-size="14.00">InputWorkspace</text>
</g>
<!-- inputWorkspace&#45;&gt;applyFloodI -->
<g id="edge1" class="edge">
<title>inputWorkspace&#45;&gt;applyFloodI</title>
<path fill="none" stroke="black" d="M303.52,-939.73C314.31,-930.61 327.92,-919.11 339.85,-909.02"/>
<polygon fill="black" stroke="black" points="342.41,-911.44 347.78,-902.31 337.89,-906.1 342.41,-911.44"/>
</g>
<!-- trans -->
<g id="node3" class="node">
<title>trans</title>
<ellipse fill="khaki" stroke="black" cx="645.04" cy="-957.19" rx="96.68" ry="18"/>
<text text-anchor="middle" x="645.04" y="-953.49" font-family="Helvetica" font-size="14.00">FirstTransmissionRun</text>
</g>
<!-- trans&#45;&gt;applyFloodT -->
<g id="edge6" class="edge">
<title>trans&#45;&gt;applyFloodT</title>
<path fill="none" stroke="black" d="M620.22,-939.73C605.95,-930.26 587.81,-918.22 572.21,-907.87"/>
<polygon fill="black" stroke="black" points="574.11,-904.93 563.84,-902.31 570.24,-910.76 574.11,-904.93"/>
</g>
<!-- IvsLam_0 -->
<g id="node4" class="node">
<title>IvsLam_0</title>
<ellipse fill="khaki" stroke="black" cx="128.04" cy="-724.19" rx="128.08" ry="18"/>
<text text-anchor="middle" x="128.04" y="-720.49" font-family="Helvetica" font-size="14.00">OutputWorkspaceWavelength</text>
</g>
<!-- groupIvsLam -->
<g id="node17" class="node">
<title>groupIvsLam</title>
<path fill="lightskyblue" stroke="black" d="M336.54,-669.19C336.54,-669.19 231.54,-669.19 231.54,-669.19 225.54,-669.19 219.54,-663.19 219.54,-657.19 219.54,-657.19 219.54,-645.19 219.54,-645.19 219.54,-639.19 225.54,-633.19 231.54,-633.19 231.54,-633.19 336.54,-633.19 336.54,-633.19 342.54,-633.19 348.54,-639.19 348.54,-645.19 348.54,-645.19 348.54,-657.19 348.54,-657.19 348.54,-663.19 342.54,-669.19 336.54,-669.19"/>
<text text-anchor="middle" x="284.04" y="-647.49" font-family="Helvetica" font-size="14.00">GroupWorkspaces</text>
</g>
<!-- IvsLam_0&#45;&gt;groupIvsLam -->
<g id="edge16" class="edge">
<title>IvsLam_0&#45;&gt;groupIvsLam</title>
<path fill="none" stroke="black" d="M163.83,-706.91C185.67,-696.97 213.82,-684.15 237.39,-673.42"/>
<polygon fill="black" stroke="black" points="238.86,-676.6 246.51,-669.27 235.96,-670.23 238.86,-676.6"/>
</g>
<!-- IvsLam_1 -->
<g id="node5" class="node">
<title>IvsLam_1</title>
<ellipse fill="khaki" stroke="black" cx="582.04" cy="-724.19" rx="128.08" ry="18"/>
<text text-anchor="middle" x="582.04" y="-720.49" font-family="Helvetica" font-size="14.00">OutputWorkspaceWavelength</text>
</g>
<!-- IvsLam_1&#45;&gt;groupIvsLam -->
<g id="edge17" class="edge">
<title>IvsLam_1&#45;&gt;groupIvsLam</title>
<path fill="none" stroke="black" d="M519.93,-708.4C472.92,-697.2 408.16,-681.77 358.39,-669.91"/>
<polygon fill="black" stroke="black" points="359.18,-666.5 348.64,-667.59 357.56,-673.31 359.18,-666.5"/>
</g>
<!-- IvsLam_temp -->
<g id="node6" class="node">
<title>IvsLam_temp</title>
<ellipse fill="khaki" stroke="black" cx="284.04" cy="-578.19" rx="128.08" ry="18"/>
<text text-anchor="middle" x="284.04" y="-574.49" font-family="Helvetica" font-size="14.00">OutputWorkspaceWavelength</text>
</g>
<!-- checkPolarizationCor -->
<g id="node24" class="node">
<title>checkPolarizationCor</title>
<polygon fill="limegreen" stroke="black" points="284.04,-523.19 182.82,-505.19 284.04,-487.19 385.25,-505.19 284.04,-523.19"/>
<text text-anchor="middle" x="284.04" y="-501.49" font-family="Helvetica" font-size="14.00">Is PC required?</text>
</g>
<!-- IvsLam_temp&#45;&gt;checkPolarizationCor -->
<g id="edge19" class="edge">
<title>IvsLam_temp&#45;&gt;checkPolarizationCor</title>
<path fill="none" stroke="black" d="M284.04,-560.01C284.04,-551.98 284.04,-542.24 284.04,-533.26"/>
<polygon fill="black" stroke="black" points="287.54,-533.22 284.04,-523.22 280.54,-533.22 287.54,-533.22"/>
</g>
<!-- IvsQ_0 -->
<g id="node7" class="node">
<title>IvsQ_0</title>
<ellipse fill="khaki" stroke="black" cx="355.04" cy="-724.19" rx="81.49" ry="18"/>
<text text-anchor="middle" x="355.04" y="-720.49" font-family="Helvetica" font-size="14.00">OutputWorkspace</text>
</g>
<!-- groupIvsQ -->
<g id="node16" class="node">
<title>groupIvsQ</title>
<path fill="lightskyblue" stroke="black" d="M575.54,-669.19C575.54,-669.19 470.54,-669.19 470.54,-669.19 464.54,-669.19 458.54,-663.19 458.54,-657.19 458.54,-657.19 458.54,-645.19 458.54,-645.19 458.54,-639.19 464.54,-633.19 470.54,-633.19 470.54,-633.19 575.54,-633.19 575.54,-633.19 581.54,-633.19 587.54,-639.19 587.54,-645.19 587.54,-645.19 587.54,-657.19 587.54,-657.19 587.54,-663.19 581.54,-669.19 575.54,-669.19"/>
<text text-anchor="middle" x="523.04" y="-647.49" font-family="Helvetica" font-size="14.00">GroupWorkspaces</text>
</g>
<!-- IvsQ_0&#45;&gt;groupIvsQ -->
<g id="edge13" class="edge">
<title>IvsQ_0&#45;&gt;groupIvsQ</title>
<path fill="none" stroke="black" d="M391.08,-707.96C415.04,-697.84 446.82,-684.41 473.19,-673.26"/>
<polygon fill="black" stroke="black" points="474.79,-676.39 482.64,-669.27 472.07,-669.94 474.79,-676.39"/>
</g>
<!-- IvsQ_1 -->
<g id="node8" class="node">
<title>IvsQ_1</title>
<ellipse fill="khaki" stroke="black" cx="809.04" cy="-724.19" rx="81.49" ry="18"/>
<text text-anchor="middle" x="809.04" y="-720.49" font-family="Helvetica" font-size="14.00">OutputWorkspace</text>
</g>
<!-- IvsQ_1&#45;&gt;groupIvsQ -->
<g id="edge14" class="edge">
<title>IvsQ_1&#45;&gt;groupIvsQ</title>
<path fill="none" stroke="black" d="M756.91,-710.25C712.28,-699.17 647.48,-683.09 597.4,-670.65"/>
<polygon fill="black" stroke="black" points="598.14,-667.23 587.59,-668.22 596.45,-674.03 598.14,-667.23"/>
</g>
<!-- IvsQ_temp -->
<g id="node9" class="node">
<title>IvsQ_temp</title>
<ellipse fill="khaki" stroke="black" cx="523.04" cy="-578.19" rx="81.49" ry="18"/>
<text text-anchor="middle" x="523.04" y="-574.49" font-family="Helvetica" font-size="14.00">OutputWorkspace</text>
</g>
<!-- IvsLam_final -->
<g id="node10" class="node">
<title>IvsLam_final</title>
<ellipse fill="khaki" stroke="black" cx="223.04" cy="-324" rx="128.08" ry="18"/>
<text text-anchor="middle" x="223.04" y="-320.3" font-family="Helvetica" font-size="14.00">OutputWorkspaceWavelength</text>
</g>
<!-- reflRedOne_2 -->
<g id="node19" class="node">
<title>reflRedOne_2</title>
<path fill="lightskyblue" stroke="black" d="M203.04,-255C203.04,-255 39.04,-255 39.04,-255 33.04,-255 27.04,-249 27.04,-243 27.04,-243 27.04,-231 27.04,-231 27.04,-225 33.04,-219 39.04,-219 39.04,-219 203.04,-219 203.04,-219 209.04,-219 215.04,-225 215.04,-231 215.04,-231 215.04,-243 215.04,-243 215.04,-249 209.04,-255 203.04,-255"/>
<text text-anchor="middle" x="121.04" y="-233.3" font-family="Helvetica" font-size="14.00">ReflectometryReductionOne</text>
</g>
<!-- IvsLam_final&#45;&gt;reflRedOne_2 -->
<g id="edge23" class="edge">
<title>IvsLam_final&#45;&gt;reflRedOne_2</title>
<path fill="none" stroke="black" d="M202.89,-306.21C187.62,-293.48 166.44,-275.84 149.46,-261.68"/>
<polygon fill="black" stroke="black" points="151.42,-258.76 141.5,-255.05 146.94,-264.14 151.42,-258.76"/>
<text text-anchor="middle" x="187.04" y="-276.8" font-family="Helvetica" font-size="14.00">[0]</text>
</g>
<!-- reflRedOne_3 -->
<g id="node20" class="node">
<title>reflRedOne_3</title>
<path fill="lightskyblue" stroke="black" d="M409.04,-255C409.04,-255 245.04,-255 245.04,-255 239.04,-255 233.04,-249 233.04,-243 233.04,-243 233.04,-231 233.04,-231 233.04,-225 239.04,-219 245.04,-219 245.04,-219 409.04,-219 409.04,-219 415.04,-219 421.04,-225 421.04,-231 421.04,-231 421.04,-243 421.04,-243 421.04,-249 415.04,-255 409.04,-255"/>
<text text-anchor="middle" x="327.04" y="-233.3" font-family="Helvetica" font-size="14.00">ReflectometryReductionOne</text>
</g>
<!-- IvsLam_final&#45;&gt;reflRedOne_3 -->
<g id="edge24" class="edge">
<title>IvsLam_final&#45;&gt;reflRedOne_3</title>
<path fill="none" stroke="black" d="M243.59,-306.21C259.15,-293.48 280.74,-275.84 298.06,-261.68"/>
<polygon fill="black" stroke="black" points="300.65,-264.09 306.18,-255.05 296.22,-258.67 300.65,-264.09"/>
<text text-anchor="middle" x="290.04" y="-276.8" font-family="Helvetica" font-size="14.00">[1]</text>
</g>
<!-- IvsQ_2 -->
<g id="node11" class="node">
<title>IvsQ_2</title>
<ellipse fill="khaki" stroke="black" cx="140.04" cy="-164" rx="81.49" ry="18"/>
<text text-anchor="middle" x="140.04" y="-160.3" font-family="Helvetica" font-size="14.00">OutputWorkspace</text>
</g>
<!-- groupFinal -->
<g id="node21" class="node">
<title>groupFinal</title>
<path fill="lightskyblue" stroke="black" d="M281.54,-109C281.54,-109 176.54,-109 176.54,-109 170.54,-109 164.54,-103 164.54,-97 164.54,-97 164.54,-85 164.54,-85 164.54,-79 170.54,-73 176.54,-73 176.54,-73 281.54,-73 281.54,-73 287.54,-73 293.54,-79 293.54,-85 293.54,-85 293.54,-97 293.54,-97 293.54,-103 287.54,-109 281.54,-109"/>
<text text-anchor="middle" x="229.04" y="-87.3" font-family="Helvetica" font-size="14.00">GroupWorkspaces</text>
</g>
<!-- IvsQ_2&#45;&gt;groupFinal -->
<g id="edge27" class="edge">
<title>IvsQ_2&#45;&gt;groupFinal</title>
<path fill="none" stroke="black" d="M160.68,-146.53C172.22,-137.33 186.8,-125.69 199.53,-115.54"/>
<polygon fill="black" stroke="black" points="201.94,-118.09 207.58,-109.12 197.58,-112.62 201.94,-118.09"/>
</g>
<!-- IvsQ_3 -->
<g id="node12" class="node">
<title>IvsQ_3</title>
<ellipse fill="khaki" stroke="black" cx="323.04" cy="-164" rx="81.49" ry="18"/>
<text text-anchor="middle" x="323.04" y="-160.3" font-family="Helvetica" font-size="14.00">OutputWorkspace</text>
</g>
<!-- IvsQ_3&#45;&gt;groupFinal -->
<g id="edge28" class="edge">
<title>IvsQ_3&#45;&gt;groupFinal</title>
<path fill="none" stroke="black" d="M301.24,-146.53C288.93,-137.24 273.35,-125.47 259.82,-115.25"/>
<polygon fill="black" stroke="black" points="261.79,-112.35 251.7,-109.12 257.57,-117.94 261.79,-112.35"/>
</g>
<!-- IvsQ_final -->
<g id="node13" class="node">
<title>IvsQ_final</title>
<ellipse fill="khaki" stroke="black" cx="229.04" cy="-18" rx="81.49" ry="18"/>
<text text-anchor="middle" x="229.04" y="-14.3" font-family="Helvetica" font-size="14.00">OutputWorkspace</text>
</g>
<!-- reflRedOne_0 -->
<g id="node14" class="node">
<title>reflRedOne_0</title>
<path fill="lightskyblue" stroke="black" d="M450.04,-815.19C450.04,-815.19 286.04,-815.19 286.04,-815.19 280.04,-815.19 274.04,-809.19 274.04,-803.19 274.04,-803.19 274.04,-791.19 274.04,-791.19 274.04,-785.19 280.04,-779.19 286.04,-779.19 286.04,-779.19 450.04,-779.19 450.04,-779.19 456.04,-779.19 462.04,-785.19 462.04,-791.19 462.04,-791.19 462.04,-803.19 462.04,-803.19 462.04,-809.19 456.04,-815.19 450.04,-815.19"/>
<text text-anchor="middle" x="368.04" y="-793.49" font-family="Helvetica" font-size="14.00">ReflectometryReductionOne</text>
</g>
<!-- reflRedOne_0&#45;&gt;IvsLam_0 -->
<g id="edge9" class="edge">
<title>reflRedOne_0&#45;&gt;IvsLam_0</title>
<path fill="none" stroke="black" d="M310.55,-779.19C274.27,-768.46 227.41,-754.59 190.26,-743.6"/>
<polygon fill="black" stroke="black" points="191.13,-740.21 180.55,-740.73 189.15,-746.92 191.13,-740.21"/>
</g>
<!-- reflRedOne_0&#45;&gt;IvsQ_0 -->
<g id="edge10" class="edge">
<title>reflRedOne_0&#45;&gt;IvsQ_0</title>
<path fill="none" stroke="black" d="M364.89,-779.01C363.42,-770.98 361.64,-761.24 359.99,-752.26"/>
<polygon fill="black" stroke="black" points="363.4,-751.43 358.16,-742.22 356.51,-752.69 363.4,-751.43"/>
</g>
<!-- reflRedOne_1 -->
<g id="node15" class="node">
<title>reflRedOne_1</title>
<path fill="lightskyblue" stroke="black" d="M661.04,-815.19C661.04,-815.19 497.04,-815.19 497.04,-815.19 491.04,-815.19 485.04,-809.19 485.04,-803.19 485.04,-803.19 485.04,-791.19 485.04,-791.19 485.04,-785.19 491.04,-779.19 497.04,-779.19 497.04,-779.19 661.04,-779.19 661.04,-779.19 667.04,-779.19 673.04,-785.19 673.04,-791.19 673.04,-791.19 673.04,-803.19 673.04,-803.19 673.04,-809.19 667.04,-815.19 661.04,-815.19"/>
<text text-anchor="middle" x="579.04" y="-793.49" font-family="Helvetica" font-size="14.00">ReflectometryReductionOne</text>
</g>
<!-- reflRedOne_1&#45;&gt;IvsLam_1 -->
<g id="edge11" class="edge">
<title>reflRedOne_1&#45;&gt;IvsLam_1</title>
<path fill="none" stroke="black" d="M579.76,-779.01C580.1,-770.98 580.52,-761.24 580.89,-752.26"/>
<polygon fill="black" stroke="black" points="584.39,-752.36 581.32,-742.22 577.4,-752.07 584.39,-752.36"/>
</g>
<!-- reflRedOne_1&#45;&gt;IvsQ_1 -->
<g id="edge12" class="edge">
<title>reflRedOne_1&#45;&gt;IvsQ_1</title>
<path fill="none" stroke="black" d="M634.13,-779.19C670.33,-768.01 717.52,-753.45 753.76,-742.26"/>
<polygon fill="black" stroke="black" points="755.15,-745.49 763.67,-739.2 753.08,-738.81 755.15,-745.49"/>
</g>
<!-- groupIvsQ&#45;&gt;IvsQ_temp -->
<g id="edge15" class="edge">
<title>groupIvsQ&#45;&gt;IvsQ_temp</title>
<path fill="none" stroke="black" d="M523.04,-633.01C523.04,-624.98 523.04,-615.24 523.04,-606.26"/>
<polygon fill="black" stroke="black" points="526.54,-606.22 523.04,-596.22 519.54,-606.22 526.54,-606.22"/>
</g>
<!-- groupIvsLam&#45;&gt;IvsLam_temp -->
<g id="edge18" class="edge">
<title>groupIvsLam&#45;&gt;IvsLam_temp</title>
<path fill="none" stroke="black" d="M284.04,-633.01C284.04,-624.98 284.04,-615.24 284.04,-606.26"/>
<polygon fill="black" stroke="black" points="287.54,-606.22 284.04,-596.22 280.54,-606.22 287.54,-606.22"/>
</g>
<!-- polCorr -->
<g id="node18" class="node">
<title>polCorr</title>
<path fill="lightskyblue" stroke="black" d="M285.54,-425.6C285.54,-425.6 160.54,-425.6 160.54,-425.6 154.54,-425.6 148.54,-419.6 148.54,-413.6 148.54,-413.6 148.54,-401.6 148.54,-401.6 148.54,-395.6 154.54,-389.6 160.54,-389.6 160.54,-389.6 285.54,-389.6 285.54,-389.6 291.54,-389.6 297.54,-395.6 297.54,-401.6 297.54,-401.6 297.54,-413.6 297.54,-413.6 297.54,-419.6 291.54,-425.6 285.54,-425.6"/>
<text text-anchor="middle" x="223.04" y="-403.9" font-family="Helvetica" font-size="14.00">PolarizationCorrection</text>
</g>
<!-- polCorr&#45;&gt;IvsLam_final -->
<g id="edge22" class="edge">
<title>polCorr&#45;&gt;IvsLam_final</title>
<path fill="none" stroke="black" d="M223.04,-389.29C223.04,-378.58 223.04,-364.6 223.04,-352.4"/>
<polygon fill="black" stroke="black" points="226.54,-352.28 223.04,-342.28 219.54,-352.28 226.54,-352.28"/>
</g>
<!-- reflRedOne_2&#45;&gt;IvsQ_2 -->
<g id="edge25" class="edge">
<title>reflRedOne_2&#45;&gt;IvsQ_2</title>
<path fill="none" stroke="black" d="M125.64,-218.81C127.81,-210.7 130.45,-200.84 132.87,-191.78"/>
<polygon fill="black" stroke="black" points="136.28,-192.59 135.48,-182.03 129.52,-190.78 136.28,-192.59"/>
</g>
<!-- reflRedOne_3&#45;&gt;IvsQ_3 -->
<g id="edge26" class="edge">
<title>reflRedOne_3&#45;&gt;IvsQ_3</title>
<path fill="none" stroke="black" d="M326.07,-218.81C325.62,-210.79 325.07,-201.05 324.56,-192.07"/>
<polygon fill="black" stroke="black" points="328.06,-191.82 324,-182.03 321.07,-192.21 328.06,-191.82"/>
</g>
<!-- groupFinal&#45;&gt;IvsQ_final -->
<g id="edge29" class="edge">
<title>groupFinal&#45;&gt;IvsQ_final</title>
<path fill="none" stroke="black" d="M229.04,-72.81C229.04,-64.79 229.04,-55.05 229.04,-46.07"/>
<polygon fill="black" stroke="black" points="232.54,-46.03 229.04,-36.03 225.54,-46.03 232.54,-46.03"/>
</g>
<!-- applyFloodI&#45;&gt;reflRedOne_0 -->
<g id="edge4" class="edge">
<title>applyFloodI&#45;&gt;reflRedOne_0</title>
<path fill="none" stroke="black" d="M368.04,-865.99C368.04,-854.36 368.04,-838.74 368.04,-825.43"/>
<polygon fill="black" stroke="black" points="371.54,-825.37 368.04,-815.37 364.54,-825.37 371.54,-825.37"/>
<text text-anchor="middle" x="376.04" y="-836.99" font-family="Helvetica" font-size="14.00">[0]</text>
</g>
<!-- applyFloodI&#45;&gt;reflRedOne_1 -->
<g id="edge5" class="edge">
<title>applyFloodI&#45;&gt;reflRedOne_1</title>
<path fill="none" stroke="black" d="M410.48,-866.1C444.18,-852.52 491.42,-833.49 527.33,-819.03"/>
<polygon fill="black" stroke="black" points="528.69,-822.25 536.66,-815.27 526.08,-815.76 528.69,-822.25"/>
<text text-anchor="middle" x="494.04" y="-836.99" font-family="Helvetica" font-size="14.00">[1]</text>
</g>
<!-- applyFloodT&#45;&gt;reflRedOne_0 -->
<g id="edge7" class="edge">
<title>applyFloodT&#45;&gt;reflRedOne_0</title>
<path fill="none" stroke="black" d="M516.61,-866.07C502.77,-855.59 484.04,-842.45 466.04,-833.19 455.79,-827.92 444.56,-823.1 433.47,-818.84"/>
<polygon fill="black" stroke="black" points="434.39,-815.45 423.8,-815.24 431.95,-822.01 434.39,-815.45"/>
</g>
<!-- applyFloodT&#45;&gt;reflRedOne_1 -->
<g id="edge8" class="edge">
<title>applyFloodT&#45;&gt;reflRedOne_1</title>
<path fill="none" stroke="black" d="M546.34,-865.99C552.06,-854.13 559.78,-838.12 566.28,-824.64"/>
<polygon fill="black" stroke="black" points="569.56,-825.9 570.75,-815.37 563.26,-822.86 569.56,-825.9"/>
</g>
<!-- checkPolarizationCor&#45;&gt;polCorr -->
<g id="edge20" class="edge">
<title>checkPolarizationCor&#45;&gt;polCorr</title>
<path fill="none" stroke="black" d="M274.24,-488.84C264.89,-474.18 250.63,-451.83 239.53,-434.44"/>
<polygon fill="black" stroke="black" points="242.38,-432.41 234.05,-425.86 236.48,-436.17 242.38,-432.41"/>
<text text-anchor="middle" x="272.54" y="-457.99" font-family="Helvetica" font-size="14.00">Yes</text>
</g>
<!-- stop -->
<g id="node25" class="node">
<title>stop</title>
<ellipse fill="transparent" stroke="black" cx="344.04" cy="-407.6" rx="28.7" ry="28.7"/>
<text text-anchor="middle" x="344.04" y="-403.9" font-family="Helvetica" font-size="14.00">Stop</text>
</g>
<!-- checkPolarizationCor&#45;&gt;stop -->
<g id="edge21" class="edge">
<title>checkPolarizationCor&#45;&gt;stop</title>
<path fill="none" stroke="black" d="M293.68,-488.84C301.78,-475.92 313.64,-457.02 323.82,-440.81"/>
<polygon fill="black" stroke="black" points="326.91,-442.47 329.26,-432.14 320.98,-438.75 326.91,-442.47"/>
<text text-anchor="middle" x="323.04" y="-457.99" font-family="Helvetica" font-size="14.00">No</text>
</g>
</g>
</svg>
