<?xml version="1.0" encoding="UTF-8" standalone="no"?>
<!DOCTYPE svg PUBLIC "-//W3C//DTD SVG 1.1//EN"
 "http://www.w3.org/Graphics/SVG/1.1/DTD/svg11.dtd">
<!-- Generated by graphviz version 3.0.0 (20220315.2325)
 -->
<!-- Title: ReflectometryILLPreprocess Pages: 1 -->
<svg width="423pt" height="906pt"
 viewBox="0.00 0.00 423.00 906.00" xmlns="http://www.w3.org/2000/svg" xmlns:xlink="http://www.w3.org/1999/xlink">
<g id="graph0" class="graph" transform="scale(1 1) rotate(0) translate(4 902)">
<title>ReflectometryILLPreprocess</title>
<polygon fill="white" stroke="transparent" points="-4,4 -4,-902 419,-902 419,4 -4,4"/>
<text text-anchor="middle" x="207.5" y="-882.8" font-family="Helvetica,sans-Serif" font-size="14.00">Direct Beam Preprocessing</text>
<!-- run -->
<g id="node1" class="node">
<title>run</title>
<ellipse fill="khaki" stroke="black" cx="63" cy="-857" rx="28.7" ry="18"/>
<text text-anchor="middle" x="63" y="-853.3" font-family="Helvetica,sans-Serif" font-size="14.00">Run</text>
</g>
<!-- load -->
<g id="node7" class="node">
<title>load</title>
<path fill="lightskyblue" stroke="black" d="M111.5,-802C111.5,-802 14.5,-802 14.5,-802 8.5,-802 2.5,-796 2.5,-790 2.5,-790 2.5,-778 2.5,-778 2.5,-772 8.5,-766 14.5,-766 14.5,-766 111.5,-766 111.5,-766 117.5,-766 123.5,-772 123.5,-778 123.5,-778 123.5,-790 123.5,-790 123.5,-796 117.5,-802 111.5,-802"/>
<text text-anchor="middle" x="63" y="-780.3" font-family="Helvetica,sans-Serif" font-size="14.00">LoadAndMerge</text>
</g>
<!-- run&#45;&gt;load -->
<g id="edge1" class="edge">
<title>run&#45;&gt;load</title>
<path fill="none" stroke="black" d="M63,-838.81C63,-830.79 63,-821.05 63,-812.07"/>
<polygon fill="black" stroke="black" points="66.5,-812.03 63,-802.03 59.5,-812.03 66.5,-812.03"/>
</g>
<!-- output -->
<g id="node2" class="node">
<title>output</title>
<ellipse fill="khaki" stroke="black" cx="211" cy="-18" rx="92.08" ry="18"/>
<text text-anchor="middle" x="211" y="-14.3" font-family="Helvetica,sans-Serif" font-size="14.00">OutputWorkspace</text>
</g>
<!-- waterReference -->
<g id="node3" class="node">
<title>waterReference</title>
<ellipse fill="khaki" stroke="black" cx="231" cy="-711" rx="87.18" ry="18"/>
<text text-anchor="middle" x="231" y="-707.3" font-family="Helvetica,sans-Serif" font-size="14.00">WaterWorkspace</text>
</g>
<!-- waterNorm -->
<g id="node8" class="node">
<title>waterNorm</title>
<path fill="lightskyblue" stroke="black" d="M230.5,-642C230.5,-642 129.5,-642 129.5,-642 123.5,-642 117.5,-636 117.5,-630 117.5,-630 117.5,-616 117.5,-616 117.5,-610 123.5,-604 129.5,-604 129.5,-604 230.5,-604 230.5,-604 236.5,-604 242.5,-610 242.5,-616 242.5,-616 242.5,-630 242.5,-630 242.5,-636 236.5,-642 230.5,-642"/>
<text text-anchor="middle" x="180" y="-626.8" font-family="Helvetica,sans-Serif" font-size="14.00">Divide by</text>
<text text-anchor="middle" x="180" y="-611.8" font-family="Helvetica,sans-Serif" font-size="14.00">water reference</text>
</g>
<!-- waterReference&#45;&gt;waterNorm -->
<g id="edge4" class="edge">
<title>waterReference&#45;&gt;waterNorm</title>
<path fill="none" stroke="black" d="M220.92,-693.01C213.78,-680.96 204.05,-664.55 195.87,-650.76"/>
<polygon fill="black" stroke="black" points="198.87,-648.96 190.76,-642.14 192.85,-652.53 198.87,-648.96"/>
<text text-anchor="middle" x="230" y="-663.8" font-family="Helvetica,sans-Serif" font-size="14.00">Rebin</text>
</g>
<!-- toWavelength -->
<g id="node4" class="node">
<title>toWavelength</title>
<path fill="lightskyblue" stroke="black" d="M269,-257C269,-257 153,-257 153,-257 147,-257 141,-251 141,-245 141,-245 141,-231 141,-231 141,-225 147,-219 153,-219 153,-219 269,-219 269,-219 275,-219 281,-225 281,-231 281,-231 281,-245 281,-245 281,-251 275,-257 269,-257"/>
<text text-anchor="middle" x="211" y="-241.8" font-family="Helvetica,sans-Serif" font-size="14.00">Convert from TOF</text>
<text text-anchor="middle" x="211" y="-226.8" font-family="Helvetica,sans-Serif" font-size="14.00"> to wavelength</text>
</g>
<!-- correctGravity -->
<g id="node13" class="node">
<title>correctGravity</title>
<polygon fill="limegreen" stroke="black" points="211,-182 71.08,-164 211,-146 350.92,-164 211,-182"/>
<text text-anchor="middle" x="211" y="-160.3" font-family="Helvetica,sans-Serif" font-size="14.00">Correct for gravity?</text>
</g>
<!-- toWavelength&#45;&gt;correctGravity -->
<g id="edge11" class="edge">
<title>toWavelength&#45;&gt;correctGravity</title>
<path fill="none" stroke="black" d="M211,-218.83C211,-210.89 211,-201.41 211,-192.63"/>
<polygon fill="black" stroke="black" points="214.5,-192.42 211,-182.42 207.5,-192.42 214.5,-192.42"/>
</g>
<!-- extractMonitors -->
<g id="node5" class="node">
<title>extractMonitors</title>
<path fill="lightskyblue" stroke="black" d="M114,-729C114,-729 12,-729 12,-729 6,-729 0,-723 0,-717 0,-717 0,-705 0,-705 0,-699 6,-693 12,-693 12,-693 114,-693 114,-693 120,-693 126,-699 126,-705 126,-705 126,-717 126,-717 126,-723 120,-729 114,-729"/>
<text text-anchor="middle" x="63" y="-707.3" font-family="Helvetica,sans-Serif" font-size="14.00">ExtractMonitors</text>
</g>
<!-- extractMonitors&#45;&gt;waterNorm -->
<g id="edge3" class="edge">
<title>extractMonitors&#45;&gt;waterNorm</title>
<path fill="none" stroke="black" d="M86.4,-692.8C103.82,-679.99 127.85,-662.34 147.19,-648.12"/>
<polygon fill="black" stroke="black" points="149.45,-650.8 155.44,-642.06 145.3,-645.16 149.45,-650.8"/>
</g>
<!-- fluxNorm -->
<g id="node6" class="node">
<title>fluxNorm</title>
<path fill="lightskyblue" stroke="black" d="M273.5,-405C273.5,-405 148.5,-405 148.5,-405 142.5,-405 136.5,-399 136.5,-393 136.5,-393 136.5,-379 136.5,-379 136.5,-373 142.5,-367 148.5,-367 148.5,-367 273.5,-367 273.5,-367 279.5,-367 285.5,-373 285.5,-379 285.5,-379 285.5,-393 285.5,-393 285.5,-399 279.5,-405 273.5,-405"/>
<text text-anchor="middle" x="211" y="-389.8" font-family="Helvetica,sans-Serif" font-size="14.00">Divide by duration/</text>
<text text-anchor="middle" x="211" y="-374.8" font-family="Helvetica,sans-Serif" font-size="14.00">monitor counts</text>
</g>
<!-- subtractBkg -->
<g id="node10" class="node">
<title>subtractBkg</title>
<path fill="lightskyblue" stroke="black" d="M280.5,-330C280.5,-330 141.5,-330 141.5,-330 135.5,-330 129.5,-324 129.5,-318 129.5,-318 129.5,-306 129.5,-306 129.5,-300 135.5,-294 141.5,-294 141.5,-294 280.5,-294 280.5,-294 286.5,-294 292.5,-300 292.5,-306 292.5,-306 292.5,-318 292.5,-318 292.5,-324 286.5,-330 280.5,-330"/>
<text text-anchor="middle" x="211" y="-308.3" font-family="Helvetica,sans-Serif" font-size="14.00">Subtract background</text>
</g>
<!-- fluxNorm&#45;&gt;subtractBkg -->
<g id="edge9" class="edge">
<title>fluxNorm&#45;&gt;subtractBkg</title>
<path fill="none" stroke="black" d="M211,-366.83C211,-358.89 211,-349.41 211,-340.63"/>
<polygon fill="black" stroke="black" points="214.5,-340.42 211,-330.42 207.5,-340.42 214.5,-340.42"/>
</g>
<!-- load&#45;&gt;extractMonitors -->
<g id="edge2" class="edge">
<title>load&#45;&gt;extractMonitors</title>
<path fill="none" stroke="black" d="M63,-765.81C63,-757.79 63,-748.05 63,-739.07"/>
<polygon fill="black" stroke="black" points="66.5,-739.03 63,-729.03 59.5,-739.03 66.5,-739.03"/>
</g>
<!-- isSlitNorm -->
<g id="node12" class="node">
<title>isSlitNorm</title>
<polygon fill="limegreen" stroke="black" points="180,-567 49.46,-549 180,-531 310.54,-549 180,-567"/>
<text text-anchor="middle" x="180" y="-545.3" font-family="Helvetica,sans-Serif" font-size="14.00">SlitNormalisation?</text>
</g>
<!-- waterNorm&#45;&gt;isSlitNorm -->
<g id="edge5" class="edge">
<title>waterNorm&#45;&gt;isSlitNorm</title>
<path fill="none" stroke="black" d="M180,-603.83C180,-595.89 180,-586.41 180,-577.63"/>
<polygon fill="black" stroke="black" points="183.5,-577.42 180,-567.42 176.5,-577.42 183.5,-577.42"/>
</g>
<!-- slitNorm -->
<g id="node9" class="node">
<title>slitNorm</title>
<path fill="lightskyblue" stroke="black" d="M183,-480C183,-480 75,-480 75,-480 69,-480 63,-474 63,-468 63,-468 63,-454 63,-454 63,-448 69,-442 75,-442 75,-442 183,-442 183,-442 189,-442 195,-448 195,-454 195,-454 195,-468 195,-468 195,-474 189,-480 183,-480"/>
<text text-anchor="middle" x="129" y="-464.8" font-family="Helvetica,sans-Serif" font-size="14.00">Divide by</text>
<text text-anchor="middle" x="129" y="-449.8" font-family="Helvetica,sans-Serif" font-size="14.00">slit opening area</text>
</g>
<!-- slitNorm&#45;&gt;fluxNorm -->
<g id="edge8" class="edge">
<title>slitNorm&#45;&gt;fluxNorm</title>
<path fill="none" stroke="black" d="M149.27,-441.96C159.42,-432.92 171.87,-421.83 182.93,-411.99"/>
<polygon fill="black" stroke="black" points="185.54,-414.35 190.68,-405.09 180.88,-409.13 185.54,-414.35"/>
</g>
<!-- subtractBkg&#45;&gt;toWavelength -->
<g id="edge10" class="edge">
<title>subtractBkg&#45;&gt;toWavelength</title>
<path fill="none" stroke="black" d="M211,-293.94C211,-285.99 211,-276.31 211,-267.31"/>
<polygon fill="black" stroke="black" points="214.5,-267.2 211,-257.2 207.5,-267.2 214.5,-267.2"/>
</g>
<!-- gravityCorrection -->
<g id="node11" class="node">
<title>gravityCorrection</title>
<path fill="lightskyblue" stroke="black" d="M403,-109C403,-109 239,-109 239,-109 233,-109 227,-103 227,-97 227,-97 227,-85 227,-85 227,-79 233,-73 239,-73 239,-73 403,-73 403,-73 409,-73 415,-79 415,-85 415,-85 415,-97 415,-97 415,-103 409,-109 403,-109"/>
<text text-anchor="middle" x="321" y="-87.3" font-family="Helvetica,sans-Serif" font-size="14.00">Gravity correction step 1</text>
</g>
<!-- gravityCorrection&#45;&gt;output -->
<g id="edge14" class="edge">
<title>gravityCorrection&#45;&gt;output</title>
<path fill="none" stroke="black" d="M294.65,-72.99C279.74,-63.37 260.94,-51.23 244.94,-40.9"/>
<polygon fill="black" stroke="black" points="246.68,-37.86 236.38,-35.38 242.88,-43.74 246.68,-37.86"/>
</g>
<!-- isSlitNorm&#45;&gt;fluxNorm -->
<g id="edge7" class="edge">
<title>isSlitNorm&#45;&gt;fluxNorm</title>
<path fill="none" stroke="black" d="M219.78,-536.32C230.84,-531.04 241.57,-523.54 248,-513 266.99,-481.87 247.81,-440.47 230.75,-413.77"/>
<polygon fill="black" stroke="black" points="233.56,-411.68 225.1,-405.31 227.74,-415.57 233.56,-411.68"/>
<text text-anchor="middle" x="332.5" y="-457.3" font-family="Helvetica,sans-Serif" font-size="14.00">Slit Normalisation OFF</text>
</g>
<!-- isSlitNorm&#45;&gt;slitNorm -->
<g id="edge6" class="edge">
<title>isSlitNorm&#45;&gt;slitNorm</title>
<path fill="none" stroke="black" d="M131.55,-537.47C118.83,-532.27 106.57,-524.52 99,-513 93.81,-505.1 96.23,-496.29 101.45,-488.24"/>
<polygon fill="black" stroke="black" points="104.33,-490.24 107.72,-480.2 98.81,-485.94 104.33,-490.24"/>
<text text-anchor="middle" x="173.5" y="-501.8" font-family="Helvetica,sans-Serif" font-size="14.00">Slit Normalisation ON</text>
</g>
<!-- correctGravity&#45;&gt;output -->
<g id="edge12" class="edge">
<title>correctGravity&#45;&gt;output</title>
<path fill="none" stroke="black" d="M211,-145.92C211,-121.34 211,-75.75 211,-46.43"/>
<polygon fill="black" stroke="black" points="214.5,-46.06 211,-36.06 207.5,-46.06 214.5,-46.06"/>
</g>
<!-- correctGravity&#45;&gt;gravityCorrection -->
<g id="edge13" class="edge">
<title>correctGravity&#45;&gt;gravityCorrection</title>
<path fill="none" stroke="black" d="M233,-148.8C248.05,-139.08 268.34,-125.99 285.65,-114.82"/>
<polygon fill="black" stroke="black" points="287.88,-117.54 294.38,-109.18 284.08,-111.66 287.88,-117.54"/>
</g>
</g>
</svg>
