<?xml version="1.0" encoding="UTF-8" standalone="no"?>
<!DOCTYPE svg PUBLIC "-//W3C//DTD SVG 1.1//EN"
 "http://www.w3.org/Graphics/SVG/1.1/DTD/svg11.dtd">
<!-- Generated by graphviz version 7.0.5 (20221231.0122)
 -->
<!-- Title: ReflectometryReductionOne Pages: 1 -->
<svg width="1167pt" height="503pt"
 viewBox="0.00 0.00 1167.03 503.00" xmlns="http://www.w3.org/2000/svg" xmlns:xlink="http://www.w3.org/1999/xlink">
<g id="graph0" class="graph" transform="scale(1 1) rotate(0) translate(4 499)">
<title>ReflectometryReductionOne</title>
<polygon fill="white" stroke="none" points="-4,4 -4,-499 1163.03,-499 1163.03,4 -4,4"/>
<!-- inputWorkspace -->
<g id="node1" class="node">
<title>inputWorkspace</title>
<ellipse fill="khaki" stroke="black" cx="523.79" cy="-453" rx="145.67" ry="18"/>
<text text-anchor="middle" x="523.79" y="-449.3" font-family="Helvetica,sans-Serif" font-size="14.00">OutputWorkspaceWavelength</text>
</g>
<!-- checkTransRun -->
<g id="node9" class="node">
<title>checkTransRun</title>
<polygon fill="limegreen" stroke="black" points="523.79,-325 359.79,-287 523.79,-249 687.79,-287 523.79,-325"/>
<text text-anchor="middle" x="523.79" y="-290.8" font-family="Helvetica,sans-Serif" font-size="14.00">FirstTransmissionRun</text>
<text text-anchor="middle" x="523.79" y="-275.8" font-family="Helvetica,sans-Serif" font-size="14.00">given?</text>
</g>
<!-- inputWorkspace&#45;&gt;checkTransRun -->
<g id="edge1" class="edge">
<title>inputWorkspace&#45;&gt;checkTransRun</title>
<path fill="none" stroke="black" d="M523.79,-434.76C523.79,-411.66 523.79,-369.74 523.79,-336.59"/>
<polygon fill="black" stroke="black" points="527.29,-336.8 523.79,-326.8 520.29,-336.8 527.29,-336.8"/>
</g>
<!-- rebinByTransWS -->
<g id="node11" class="node">
<title>rebinByTransWS</title>
<path fill="lightskyblue" stroke="black" d="M841.79,-305C841.79,-305 717.79,-305 717.79,-305 711.79,-305 705.79,-299 705.79,-293 705.79,-293 705.79,-281 705.79,-281 705.79,-275 711.79,-269 717.79,-269 717.79,-269 841.79,-269 841.79,-269 847.79,-269 853.79,-275 853.79,-281 853.79,-281 853.79,-293 853.79,-293 853.79,-299 847.79,-305 841.79,-305"/>
<text text-anchor="middle" x="779.79" y="-283.3" font-family="Helvetica,sans-Serif" font-size="14.00">RebinToWorkspace</text>
</g>
<!-- inputWorkspace&#45;&gt;rebinByTransWS -->
<g id="edge16" class="edge">
<title>inputWorkspace&#45;&gt;rebinByTransWS</title>
<path fill="none" stroke="black" d="M550.23,-435.07C596.19,-405.62 690.93,-344.93 743.19,-311.45"/>
<polygon fill="black" stroke="black" points="744.93,-314.49 751.46,-306.15 741.15,-308.6 744.93,-314.49"/>
</g>
<!-- outputWorkspace -->
<g id="node2" class="node">
<title>outputWorkspace</title>
<ellipse fill="khaki" stroke="black" cx="414.79" cy="-18" rx="145.67" ry="18"/>
<text text-anchor="middle" x="414.79" y="-14.3" font-family="Helvetica,sans-Serif" font-size="14.00">OutputWorkspaceWavelength</text>
</g>
<!-- corrAlg -->
<g id="node3" class="node">
<title>corrAlg</title>
<ellipse fill="khaki" stroke="black" cx="240.79" cy="-287" rx="101.28" ry="18"/>
<text text-anchor="middle" x="240.79" y="-283.3" font-family="Helvetica,sans-Serif" font-size="14.00">CorrectionAlgorithm</text>
</g>
<!-- checkCorrAlg -->
<g id="node10" class="node">
<title>checkCorrAlg</title>
<polygon fill="limegreen" stroke="black" points="288.79,-197 137.81,-179 288.79,-161 439.78,-179 288.79,-197"/>
<text text-anchor="middle" x="288.79" y="-175.3" font-family="Helvetica,sans-Serif" font-size="14.00">CorrectionAlgorithm?</text>
</g>
<!-- corrAlg&#45;&gt;checkCorrAlg -->
<g id="edge4" class="edge">
<title>corrAlg&#45;&gt;checkCorrAlg</title>
<path fill="none" stroke="black" d="M248.51,-268.97C256.12,-252.16 267.87,-226.21 276.72,-206.67"/>
<polygon fill="black" stroke="black" points="279.86,-208.22 280.79,-197.67 273.48,-205.34 279.86,-208.22"/>
</g>
<!-- firstTransRun -->
<g id="node4" class="node">
<title>firstTransRun</title>
<ellipse fill="khaki" stroke="black" cx="793.79" cy="-453" rx="106.68" ry="18"/>
<text text-anchor="middle" x="793.79" y="-449.3" font-family="Helvetica,sans-Serif" font-size="14.00">FirstTransmissionRun</text>
</g>
<!-- createTransWS -->
<g id="node14" class="node">
<title>createTransWS</title>
<path fill="lightskyblue" stroke="black" d="M895.79,-398C895.79,-398 691.79,-398 691.79,-398 685.79,-398 679.79,-392 679.79,-386 679.79,-386 679.79,-374 679.79,-374 679.79,-368 685.79,-362 691.79,-362 691.79,-362 895.79,-362 895.79,-362 901.79,-362 907.79,-368 907.79,-374 907.79,-374 907.79,-386 907.79,-386 907.79,-392 901.79,-398 895.79,-398"/>
<text text-anchor="middle" x="793.79" y="-376.3" font-family="Helvetica,sans-Serif" font-size="14.00">CreateTransmissionWorkspace</text>
</g>
<!-- firstTransRun&#45;&gt;createTransWS -->
<g id="edge13" class="edge">
<title>firstTransRun&#45;&gt;createTransWS</title>
<path fill="none" stroke="black" d="M793.79,-434.81C793.79,-427.23 793.79,-418.1 793.79,-409.54"/>
<polygon fill="black" stroke="black" points="797.29,-409.54 793.79,-399.54 790.29,-409.54 797.29,-409.54"/>
</g>
<!-- secondTransRun -->
<g id="node5" class="node">
<title>secondTransRun</title>
<ellipse fill="khaki" stroke="black" cx="1038.79" cy="-453" rx="120.48" ry="18"/>
<text text-anchor="middle" x="1038.79" y="-449.3" font-family="Helvetica,sans-Serif" font-size="14.00">SecondTransmissionRun</text>
</g>
<!-- secondTransRun&#45;&gt;createTransWS -->
<g id="edge14" class="edge">
<title>secondTransRun&#45;&gt;createTransWS</title>
<path fill="none" stroke="black" d="M985.33,-436.51C949.94,-426.25 903.13,-412.69 864.65,-401.53"/>
<polygon fill="black" stroke="black" points="866.06,-398.3 855.49,-398.88 864.12,-405.02 866.06,-398.3"/>
</g>
<!-- polynomial -->
<g id="node6" class="node">
<title>polynomial</title>
<ellipse fill="khaki" stroke="black" cx="59.79" cy="-179" rx="59.59" ry="18"/>
<text text-anchor="middle" x="59.79" y="-175.3" font-family="Helvetica,sans-Serif" font-size="14.00">Polynomial</text>
</g>
<!-- polyCorr -->
<g id="node12" class="node">
<title>polyCorr</title>
<path fill="lightskyblue" stroke="black" d="M296.29,-109C296.29,-109 157.29,-109 157.29,-109 151.29,-109 145.29,-103 145.29,-97 145.29,-97 145.29,-85 145.29,-85 145.29,-79 151.29,-73 157.29,-73 157.29,-73 296.29,-73 296.29,-73 302.29,-73 308.29,-79 308.29,-85 308.29,-85 308.29,-97 308.29,-97 308.29,-103 302.29,-109 296.29,-109"/>
<text text-anchor="middle" x="226.79" y="-87.3" font-family="Helvetica,sans-Serif" font-size="14.00">PolynomialCorrection</text>
</g>
<!-- polynomial&#45;&gt;polyCorr -->
<g id="edge5" class="edge">
<title>polynomial&#45;&gt;polyCorr</title>
<path fill="none" stroke="black" d="M88.88,-163.02C114.8,-149.67 153.1,-129.95 182.76,-114.68"/>
<polygon fill="black" stroke="black" points="184.23,-117.86 191.52,-110.17 181.02,-111.63 184.23,-117.86"/>
</g>
<!-- c0 -->
<g id="node7" class="node">
<title>c0</title>
<ellipse fill="khaki" stroke="black" cx="484.79" cy="-179" rx="27" ry="18"/>
<text text-anchor="middle" x="484.79" y="-175.3" font-family="Helvetica,sans-Serif" font-size="14.00">C0</text>
</g>
<!-- expCorr -->
<g id="node13" class="node">
<title>expCorr</title>
<path fill="lightskyblue" stroke="black" d="M557.79,-109C557.79,-109 411.79,-109 411.79,-109 405.79,-109 399.79,-103 399.79,-97 399.79,-97 399.79,-85 399.79,-85 399.79,-79 405.79,-73 411.79,-73 411.79,-73 557.79,-73 557.79,-73 563.79,-73 569.79,-79 569.79,-85 569.79,-85 569.79,-97 569.79,-97 569.79,-103 563.79,-109 557.79,-109"/>
<text text-anchor="middle" x="484.79" y="-87.3" font-family="Helvetica,sans-Serif" font-size="14.00">ExponentialCorrection</text>
</g>
<!-- c0&#45;&gt;expCorr -->
<g id="edge8" class="edge">
<title>c0&#45;&gt;expCorr</title>
<path fill="none" stroke="black" d="M484.79,-160.6C484.79,-149.17 484.79,-133.96 484.79,-120.76"/>
<polygon fill="black" stroke="black" points="488.29,-120.89 484.79,-110.89 481.29,-120.89 488.29,-120.89"/>
</g>
<!-- c1 -->
<g id="node8" class="node">
<title>c1</title>
<ellipse fill="khaki" stroke="black" cx="556.79" cy="-179" rx="27" ry="18"/>
<text text-anchor="middle" x="556.79" y="-175.3" font-family="Helvetica,sans-Serif" font-size="14.00">C1</text>
</g>
<!-- c1&#45;&gt;expCorr -->
<g id="edge9" class="edge">
<title>c1&#45;&gt;expCorr</title>
<path fill="none" stroke="black" d="M544.25,-163.02C533.91,-150.67 518.99,-132.85 506.68,-118.15"/>
<polygon fill="black" stroke="black" points="509.5,-116.06 500.4,-110.64 504.13,-120.55 509.5,-116.06"/>
</g>
<!-- checkTransRun&#45;&gt;checkCorrAlg -->
<g id="edge2" class="edge">
<title>checkTransRun&#45;&gt;checkCorrAlg</title>
<path fill="none" stroke="black" d="M468.99,-261.28C426.35,-242.05 368.12,-215.78 329.53,-198.37"/>
<polygon fill="black" stroke="black" points="331.13,-195.26 320.58,-194.34 328.25,-201.64 331.13,-195.26"/>
<text text-anchor="middle" x="409.29" y="-219.8" font-family="Helvetica,sans-Serif" font-size="14.00">No</text>
</g>
<!-- divideTrans -->
<g id="node15" class="node">
<title>divideTrans</title>
<path fill="lightskyblue" stroke="black" d="M723.79,-198C723.79,-198 613.79,-198 613.79,-198 607.79,-198 601.79,-192 601.79,-186 601.79,-186 601.79,-172 601.79,-172 601.79,-166 607.79,-160 613.79,-160 613.79,-160 723.79,-160 723.79,-160 729.79,-160 735.79,-166 735.79,-172 735.79,-172 735.79,-186 735.79,-186 735.79,-192 729.79,-198 723.79,-198"/>
<text text-anchor="middle" x="668.79" y="-182.8" font-family="Helvetica,sans-Serif" font-size="14.00">Divide by</text>
<text text-anchor="middle" x="668.79" y="-167.8" font-family="Helvetica,sans-Serif" font-size="14.00">transmission run</text>
</g>
<!-- checkTransRun&#45;&gt;divideTrans -->
<g id="edge3" class="edge">
<title>checkTransRun&#45;&gt;divideTrans</title>
<path fill="none" stroke="black" d="M562.65,-257.59C585.01,-241.25 612.86,-220.89 634.42,-205.13"/>
<polygon fill="black" stroke="black" points="636.31,-208.08 642.32,-199.36 632.18,-202.43 636.31,-208.08"/>
<text text-anchor="middle" x="628.29" y="-219.8" font-family="Helvetica,sans-Serif" font-size="14.00">Yes</text>
</g>
<!-- checkCorrAlg&#45;&gt;outputWorkspace -->
<g id="edge7" class="edge">
<title>checkCorrAlg&#45;&gt;outputWorkspace</title>
<path fill="none" stroke="black" d="M310.17,-163.42C317.55,-157.5 325.33,-150.13 330.79,-142 348.83,-115.17 335.97,-99.97 353.79,-73 361.15,-61.87 371.37,-51.6 381.35,-43.08"/>
<polygon fill="black" stroke="black" points="383.25,-46.05 388.8,-37.02 378.83,-40.62 383.25,-46.05"/>
<text text-anchor="middle" x="372.29" y="-87.3" font-family="Helvetica,sans-Serif" font-size="14.00">None</text>
</g>
<!-- checkCorrAlg&#45;&gt;polyCorr -->
<g id="edge6" class="edge">
<title>checkCorrAlg&#45;&gt;polyCorr</title>
<path fill="none" stroke="black" d="M272.67,-162.62C266.69,-156.5 260.09,-149.2 254.79,-142 249.61,-134.94 244.68,-126.83 240.45,-119.22"/>
<polygon fill="black" stroke="black" points="243.66,-117.8 235.85,-110.64 237.48,-121.11 243.66,-117.8"/>
<text text-anchor="middle" x="292.79" y="-130.8" font-family="Helvetica,sans-Serif" font-size="14.00">Polynomial</text>
</g>
<!-- checkCorrAlg&#45;&gt;expCorr -->
<g id="edge10" class="edge">
<title>checkCorrAlg&#45;&gt;expCorr</title>
<path fill="none" stroke="black" d="M317.58,-164.2C339.67,-153.72 371,-139.09 398.79,-127 408.99,-122.56 419.94,-117.98 430.5,-113.64"/>
<polygon fill="black" stroke="black" points="431.54,-117 439.47,-109.98 428.89,-110.51 431.54,-117"/>
<text text-anchor="middle" x="439.79" y="-130.8" font-family="Helvetica,sans-Serif" font-size="14.00">Exponential</text>
</g>
<!-- rebinByTransWS&#45;&gt;divideTrans -->
<g id="edge17" class="edge">
<title>rebinByTransWS&#45;&gt;divideTrans</title>
<path fill="none" stroke="black" d="M761.96,-268.97C744.27,-252.07 716.9,-225.94 696.39,-206.36"/>
<polygon fill="black" stroke="black" points="698.82,-203.83 689.17,-199.46 693.99,-208.9 698.82,-203.83"/>
</g>
<!-- polyCorr&#45;&gt;outputWorkspace -->
<g id="edge11" class="edge">
<title>polyCorr&#45;&gt;outputWorkspace</title>
<path fill="none" stroke="black" d="M272.78,-72.63C299.18,-62.66 332.47,-50.09 360.18,-39.62"/>
<polygon fill="black" stroke="black" points="361.36,-42.92 369.48,-36.11 358.89,-36.37 361.36,-42.92"/>
</g>
<!-- expCorr&#45;&gt;outputWorkspace -->
<g id="edge12" class="edge">
<title>expCorr&#45;&gt;outputWorkspace</title>
<path fill="none" stroke="black" d="M467.85,-72.81C459.34,-64.18 448.86,-53.56 439.48,-44.03"/>
<polygon fill="black" stroke="black" points="442.16,-41.77 432.65,-37.11 437.17,-46.68 442.16,-41.77"/>
</g>
<!-- createTransWS&#45;&gt;rebinByTransWS -->
<g id="edge15" class="edge">
<title>createTransWS&#45;&gt;rebinByTransWS</title>
<path fill="none" stroke="black" d="M791.16,-361.88C789.2,-349.13 786.47,-331.42 784.18,-316.53"/>
<polygon fill="black" stroke="black" points="787.67,-316.2 782.69,-306.84 780.76,-317.26 787.67,-316.2"/>
</g>
<!-- divideTrans&#45;&gt;outputWorkspace -->
<g id="edge18" class="edge">
<title>divideTrans&#45;&gt;outputWorkspace</title>
<path fill="none" stroke="black" d="M657.69,-159.74C642.61,-136.4 613.51,-96.25 578.79,-73 554.93,-57.02 525.97,-45.44 499.05,-37.2"/>
<polygon fill="black" stroke="black" points="500.1,-33.86 489.52,-34.41 498.13,-40.58 500.1,-33.86"/>
</g>
</g>
</svg>
