<?xml version="1.0" encoding="UTF-8" standalone="no"?>
<!DOCTYPE svg PUBLIC "-//W3C//DTD SVG 1.1//EN"
 "http://www.w3.org/Graphics/SVG/1.1/DTD/svg11.dtd">
<!-- Generated by graphviz version 2.40.1 (20161225.0304)
 -->
<!-- Title: ReflectometryReductionOne Pages: 1 -->
<svg width="602pt" height="303pt"
 viewBox="0.00 0.00 602.47 303.00" xmlns="http://www.w3.org/2000/svg" xmlns:xlink="http://www.w3.org/1999/xlink">
<g id="graph0" class="graph" transform="scale(1 1) rotate(0) translate(4 299)">
<title>ReflectometryReductionOne</title>
<polygon fill="#ffffff" stroke="transparent" points="-4,4 -4,-299 598.4689,-299 598.4689,4 -4,4"/>
<!-- inputWorkspace -->
<g id="node1" class="node">
<title>inputWorkspace</title>
<ellipse fill="#f0e68c" stroke="#000000" cx="248.1725" cy="-253" rx="128.8774" ry="18"/>
<text text-anchor="middle" x="248.1725" y="-249.3" font-family="Helvetica,sans-Serif" font-size="14.00" fill="#000000">OutputWorkspaceWavelength</text>
</g>
<!-- checkCorrectAngle -->
<g id="node4" class="node">
<title>checkCorrectAngle</title>
<polygon fill="#32cd32" stroke="#000000" points="248.1725,-198 -.1726,-180 248.1725,-162 496.5175,-180 248.1725,-198"/>
<text text-anchor="middle" x="248.1725" y="-176.3" font-family="Helvetica,sans-Serif" font-size="14.00" fill="#000000">Sum in wavelength and ThetaIn provided?</text>
</g>
<!-- inputWorkspace&#45;&gt;checkCorrectAngle -->
<g id="edge1" class="edge">
<title>inputWorkspace&#45;&gt;checkCorrectAngle</title>
<path fill="none" stroke="#000000" d="M248.1725,-234.9551C248.1725,-226.8828 248.1725,-217.1764 248.1725,-208.1817"/>
<polygon fill="#000000" stroke="#000000" points="251.6726,-208.0903 248.1725,-198.0904 244.6726,-208.0904 251.6726,-208.0903"/>
</g>
<!-- thetaIn -->
<g id="node2" class="node">
<title>thetaIn</title>
<ellipse fill="#f0e68c" stroke="#000000" cx="554.1725" cy="-180" rx="40.0939" ry="18"/>
<text text-anchor="middle" x="554.1725" y="-176.3" font-family="Helvetica,sans-Serif" font-size="14.00" fill="#000000">ThetaIn</text>
</g>
<!-- refRoi -->
<g id="node6" class="node">
<title>refRoi</title>
<path fill="#87cefa" stroke="#000000" d="M374.1725,-110C374.1725,-110 340.1725,-110 340.1725,-110 334.1725,-110 328.1725,-104 328.1725,-98 328.1725,-98 328.1725,-86 328.1725,-86 328.1725,-80 334.1725,-74 340.1725,-74 340.1725,-74 374.1725,-74 374.1725,-74 380.1725,-74 386.1725,-80 386.1725,-86 386.1725,-86 386.1725,-98 386.1725,-98 386.1725,-104 380.1725,-110 374.1725,-110"/>
<text text-anchor="middle" x="357.1725" y="-88.3" font-family="Helvetica,sans-Serif" font-size="14.00" fill="#000000">RefRoi</text>
</g>
<!-- thetaIn&#45;&gt;refRoi -->
<g id="edge5" class="edge">
<title>thetaIn&#45;&gt;refRoi</title>
<path fill="none" stroke="#000000" d="M525.527,-167.204C491.1935,-151.8672 433.5312,-126.1095 395.4164,-109.0836"/>
<polygon fill="#000000" stroke="#000000" points="396.7315,-105.8377 386.1735,-104.9548 393.8764,-112.2291 396.7315,-105.8377"/>
</g>
<!-- outputWorkspace -->
<g id="node3" class="node">
<title>outputWorkspace</title>
<ellipse fill="#f0e68c" stroke="#000000" cx="302.1725" cy="-18" rx="81.7856" ry="18"/>
<text text-anchor="middle" x="302.1725" y="-14.3" font-family="Helvetica,sans-Serif" font-size="14.00" fill="#000000">OutputWorkspace</text>
</g>
<!-- convertUnits -->
<g id="node5" class="node">
<title>convertUnits</title>
<path fill="#87cefa" stroke="#000000" d="M297.6725,-111C297.6725,-111 198.6725,-111 198.6725,-111 192.6725,-111 186.6725,-105 186.6725,-99 186.6725,-99 186.6725,-85 186.6725,-85 186.6725,-79 192.6725,-73 198.6725,-73 198.6725,-73 297.6725,-73 297.6725,-73 303.6725,-73 309.6725,-79 309.6725,-85 309.6725,-85 309.6725,-99 309.6725,-99 309.6725,-105 303.6725,-111 297.6725,-111"/>
<text text-anchor="middle" x="248.1725" y="-95.8" font-family="Helvetica,sans-Serif" font-size="14.00" fill="#000000">ConvertUnits</text>
<text text-anchor="middle" x="248.1725" y="-80.8" font-family="Helvetica,sans-Serif" font-size="14.00" fill="#000000">(AlignBins=False)</text>
</g>
<!-- checkCorrectAngle&#45;&gt;convertUnits -->
<g id="edge2" class="edge">
<title>checkCorrectAngle&#45;&gt;convertUnits</title>
<path fill="none" stroke="#000000" d="M248.1725,-161.7663C248.1725,-150.0875 248.1725,-134.6692 248.1725,-121.2978"/>
<polygon fill="#000000" stroke="#000000" points="251.6726,-121.1235 248.1725,-111.1235 244.6726,-121.1235 251.6726,-121.1235"/>
<text text-anchor="middle" x="257.1725" y="-132.8" font-family="Helvetica,sans-Serif" font-size="14.00" fill="#000000">No</text>
</g>
<!-- checkCorrectAngle&#45;&gt;refRoi -->
<g id="edge3" class="edge">
<title>checkCorrectAngle&#45;&gt;refRoi</title>
<path fill="none" stroke="#000000" d="M268.6745,-163.4479C285.0053,-150.2634 308.1171,-131.6044 326.6268,-116.6607"/>
<polygon fill="#000000" stroke="#000000" points="328.9227,-119.3055 334.5049,-110.3005 324.5255,-113.8589 328.9227,-119.3055"/>
<text text-anchor="middle" x="322.1725" y="-132.8" font-family="Helvetica,sans-Serif" font-size="14.00" fill="#000000">Yes</text>
</g>
<!-- convertUnits&#45;&gt;outputWorkspace -->
<g id="edge4" class="edge">
<title>convertUnits&#45;&gt;outputWorkspace</title>
<path fill="none" stroke="#000000" d="M262.0788,-72.9432C268.443,-64.2219 276.0878,-53.7457 282.9875,-44.2905"/>
<polygon fill="#000000" stroke="#000000" points="285.989,-46.1149 289.0564,-35.9738 280.3344,-41.9886 285.989,-46.1149"/>
</g>
<!-- refRoi&#45;&gt;outputWorkspace -->
<g id="edge6" class="edge">
<title>refRoi&#45;&gt;outputWorkspace</title>
<path fill="none" stroke="#000000" d="M343.577,-73.7079C336.934,-64.7701 328.822,-53.8558 321.5445,-44.0642"/>
<polygon fill="#000000" stroke="#000000" points="324.1962,-41.7645 315.4218,-35.8264 318.578,-45.9402 324.1962,-41.7645"/>
</g>
</g>
</svg>
