<?xml version="1.0" encoding="UTF-8" standalone="no"?>
<!DOCTYPE svg PUBLIC "-//W3C//DTD SVG 1.1//EN"
 "http://www.w3.org/Graphics/SVG/1.1/DTD/svg11.dtd">
<!-- Generated by graphviz version 2.47.2 (20210527.1257)
 -->
<!-- Title: ReflectometryReductionOne Pages: 1 -->
<svg width="602pt" height="303pt"
 viewBox="0.00 0.00 602.47 303.00" xmlns="http://www.w3.org/2000/svg" xmlns:xlink="http://www.w3.org/1999/xlink">
<g id="graph0" class="graph" transform="scale(1 1) rotate(0) translate(4 299)">
<title>ReflectometryReductionOne</title>
<polygon fill="white" stroke="transparent" points="-4,4 -4,-299 598.47,-299 598.47,4 -4,4"/>
<!-- inputWorkspace -->
<g id="node1" class="node">
<title>inputWorkspace</title>
<ellipse fill="khaki" stroke="black" cx="248.17" cy="-253" rx="128.08" ry="18"/>
<text text-anchor="middle" x="248.17" y="-249.3" font-family="Helvetica" font-size="14.00">OutputWorkspaceWavelength</text>
</g>
<!-- checkCorrectAngle -->
<g id="node4" class="node">
<title>checkCorrectAngle</title>
<polygon fill="limegreen" stroke="black" points="248.17,-198 -0.17,-180 248.17,-162 496.52,-180 248.17,-198"/>
<text text-anchor="middle" x="248.17" y="-176.3" font-family="Helvetica" font-size="14.00">Sum in wavelength and ThetaIn provided?</text>
</g>
<!-- inputWorkspace&#45;&gt;checkCorrectAngle -->
<g id="edge1" class="edge">
<title>inputWorkspace&#45;&gt;checkCorrectAngle</title>
<path fill="none" stroke="black" d="M248.17,-234.81C248.17,-226.79 248.17,-217.05 248.17,-208.07"/>
<polygon fill="black" stroke="black" points="251.67,-208.03 248.17,-198.03 244.67,-208.03 251.67,-208.03"/>
</g>
<!-- thetaIn -->
<g id="node2" class="node">
<title>thetaIn</title>
<ellipse fill="khaki" stroke="black" cx="554.17" cy="-180" rx="40.09" ry="18"/>
<text text-anchor="middle" x="554.17" y="-176.3" font-family="Helvetica" font-size="14.00">ThetaIn</text>
</g>
<!-- refRoi -->
<g id="node6" class="node">
<title>refRoi</title>
<path fill="lightskyblue" stroke="black" d="M374.17,-110C374.17,-110 340.17,-110 340.17,-110 334.17,-110 328.17,-104 328.17,-98 328.17,-98 328.17,-86 328.17,-86 328.17,-80 334.17,-74 340.17,-74 340.17,-74 374.17,-74 374.17,-74 380.17,-74 386.17,-80 386.17,-86 386.17,-86 386.17,-98 386.17,-98 386.17,-104 380.17,-110 374.17,-110"/>
<text text-anchor="middle" x="357.17" y="-88.3" font-family="Helvetica" font-size="14.00">RefRoi</text>
</g>
<!-- thetaIn&#45;&gt;refRoi -->
<g id="edge5" class="edge">
<title>thetaIn&#45;&gt;refRoi</title>
<path fill="none" stroke="black" d="M526.36,-166.86C492.24,-151.96 434.19,-126.62 395.76,-109.85"/>
<polygon fill="black" stroke="black" points="397.01,-106.57 386.44,-105.78 394.21,-112.99 397.01,-106.57"/>
</g>
<!-- outputWorkspace -->
<g id="node3" class="node">
<title>outputWorkspace</title>
<ellipse fill="khaki" stroke="black" cx="302.17" cy="-18" rx="81.49" ry="18"/>
<text text-anchor="middle" x="302.17" y="-14.3" font-family="Helvetica" font-size="14.00">OutputWorkspace</text>
</g>
<!-- convertUnits -->
<g id="node5" class="node">
<title>convertUnits</title>
<path fill="lightskyblue" stroke="black" d="M297.67,-111C297.67,-111 198.67,-111 198.67,-111 192.67,-111 186.67,-105 186.67,-99 186.67,-99 186.67,-85 186.67,-85 186.67,-79 192.67,-73 198.67,-73 198.67,-73 297.67,-73 297.67,-73 303.67,-73 309.67,-79 309.67,-85 309.67,-85 309.67,-99 309.67,-99 309.67,-105 303.67,-111 297.67,-111"/>
<text text-anchor="middle" x="248.17" y="-95.8" font-family="Helvetica" font-size="14.00">ConvertUnits</text>
<text text-anchor="middle" x="248.17" y="-80.8" font-family="Helvetica" font-size="14.00">(AlignBins=False)</text>
</g>
<!-- checkCorrectAngle&#45;&gt;convertUnits -->
<g id="edge2" class="edge">
<title>checkCorrectAngle&#45;&gt;convertUnits</title>
<path fill="none" stroke="black" d="M248.17,-161.6C248.17,-150.06 248.17,-134.65 248.17,-121.36"/>
<polygon fill="black" stroke="black" points="251.67,-121.27 248.17,-111.27 244.67,-121.27 251.67,-121.27"/>
<text text-anchor="middle" x="257.17" y="-132.8" font-family="Helvetica" font-size="14.00">No</text>
</g>
<!-- checkCorrectAngle&#45;&gt;refRoi -->
<g id="edge3" class="edge">
<title>checkCorrectAngle&#45;&gt;refRoi</title>
<path fill="none" stroke="black" d="M267.91,-163.43C284.48,-150.36 308.4,-131.48 327.31,-116.56"/>
<polygon fill="black" stroke="black" points="329.65,-119.17 335.33,-110.23 325.32,-113.68 329.65,-119.17"/>
<text text-anchor="middle" x="321.67" y="-132.8" font-family="Helvetica" font-size="14.00">Yes</text>
</g>
<!-- convertUnits&#45;&gt;outputWorkspace -->
<g id="edge4" class="edge">
<title>convertUnits&#45;&gt;outputWorkspace</title>
<path fill="none" stroke="black" d="M261.8,-72.83C268.31,-64.16 276.2,-53.63 283.27,-44.2"/>
<polygon fill="black" stroke="black" points="286.28,-46.03 289.48,-35.93 280.68,-41.83 286.28,-46.03"/>
</g>
<!-- refRoi&#45;&gt;outputWorkspace -->
<g id="edge6" class="edge">
<title>refRoi&#45;&gt;outputWorkspace</title>
<path fill="none" stroke="black" d="M344.14,-73.94C337.29,-64.97 328.77,-53.81 321.19,-43.9"/>
<polygon fill="black" stroke="black" points="323.96,-41.76 315.11,-35.94 318.4,-46.01 323.96,-41.76"/>
</g>
</g>
</svg>
