<?xml version="1.0" encoding="UTF-8" standalone="no"?>
<!DOCTYPE svg PUBLIC "-//W3C//DTD SVG 1.1//EN"
 "http://www.w3.org/Graphics/SVG/1.1/DTD/svg11.dtd">
<!-- Generated by graphviz version 2.47.2 (20210527.1257)
 -->
<!-- Title: ReflectometryReductionOne Pages: 1 -->
<svg width="848pt" height="760pt"
 viewBox="0.00 0.00 847.87 760.00" xmlns="http://www.w3.org/2000/svg" xmlns:xlink="http://www.w3.org/1999/xlink">
<g id="graph0" class="graph" transform="scale(1 1) rotate(0) translate(4 756)">
<title>ReflectometryReductionOne</title>
<polygon fill="white" stroke="transparent" points="-4,4 -4,-756 843.87,-756 843.87,4 -4,4"/>
<!-- inputWS -->
<g id="node1" class="node">
<title>inputWS</title>
<ellipse fill="khaki" stroke="black" cx="393.78" cy="-710" rx="74.19" ry="18"/>
<text text-anchor="middle" x="393.78" y="-706.3" font-family="Helvetica" font-size="14.00">InputWorkspace</text>
</g>
<!-- checkSumInLam -->
<g id="node6" class="node">
<title>checkSumInLam</title>
<polygon fill="limegreen" stroke="black" points="70.78,-641 0.22,-623 70.78,-605 141.33,-623 70.78,-641"/>
<text text-anchor="middle" x="70.78" y="-619.3" font-family="Helvetica" font-size="14.00">Sum in λ?</text>
</g>
<!-- inputWS&#45;&gt;checkSumInLam -->
<g id="edge1" class="edge">
<title>inputWS&#45;&gt;checkSumInLam</title>
<path fill="none" stroke="black" d="M345.42,-696.27C282.53,-679.73 173.65,-651.07 113.61,-635.27"/>
<polygon fill="black" stroke="black" points="114.26,-631.82 103.69,-632.66 112.47,-638.59 114.26,-631.82"/>
<text text-anchor="middle" x="279.78" y="-662.8" font-family="Helvetica" font-size="14.00">Detectors</text>
</g>
<!-- createDBWS -->
<g id="node13" class="node">
<title>createDBWS</title>
<polygon fill="lightseagreen" stroke="black" points="457.78,-477 325.78,-477 325.78,-439 457.78,-439 457.78,-477"/>
<text text-anchor="middle" x="391.78" y="-461.8" font-family="Helvetica" font-size="14.00">Create direct beam</text>
<text text-anchor="middle" x="391.78" y="-446.8" font-family="Helvetica" font-size="14.00">workspace</text>
</g>
<!-- inputWS&#45;&gt;createDBWS -->
<g id="edge2" class="edge">
<title>inputWS&#45;&gt;createDBWS</title>
<path fill="none" stroke="black" d="M393.78,-691.96C393.78,-668.5 393.78,-630.5 393.78,-630.5 393.78,-630.5 392.68,-536.35 392.11,-487.17"/>
<polygon fill="black" stroke="black" points="395.61,-487.08 392,-477.12 388.61,-487.16 395.61,-487.08"/>
<text text-anchor="middle" x="431.78" y="-619.3" font-family="Helvetica" font-size="14.00">Direct Beam</text>
</g>
<!-- createMonWS -->
<g id="node14" class="node">
<title>createMonWS</title>
<polygon fill="lightseagreen" stroke="black" points="551.28,-587 444.28,-587 444.28,-549 551.28,-549 551.28,-587"/>
<text text-anchor="middle" x="497.78" y="-571.8" font-family="Helvetica" font-size="14.00">Create monitor</text>
<text text-anchor="middle" x="497.78" y="-556.8" font-family="Helvetica" font-size="14.00">workspace</text>
</g>
<!-- inputWS&#45;&gt;createMonWS -->
<g id="edge3" class="edge">
<title>inputWS&#45;&gt;createMonWS</title>
<path fill="none" stroke="black" d="M436.38,-695.25C465.1,-685.31 497.78,-674 497.78,-674 497.78,-674 497.78,-628.83 497.78,-597.47"/>
<polygon fill="black" stroke="black" points="501.28,-597.44 497.78,-587.44 494.28,-597.44 501.28,-597.44"/>
<text text-anchor="middle" x="524.28" y="-662.8" font-family="Helvetica" font-size="14.00">Monitors</text>
</g>
<!-- outputWS -->
<g id="node2" class="node">
<title>outputWS</title>
<ellipse fill="khaki" stroke="black" cx="441.78" cy="-18" rx="128.08" ry="18"/>
<text text-anchor="middle" x="441.78" y="-14.3" font-family="Helvetica" font-size="14.00">OutputWorkspaceWavelength</text>
</g>
<!-- procCommands -->
<g id="node3" class="node">
<title>procCommands</title>
<ellipse fill="khaki" stroke="black" cx="258.78" cy="-623" rx="98.58" ry="18"/>
<text text-anchor="middle" x="258.78" y="-619.3" font-family="Helvetica" font-size="14.00">ProcessingInstructions</text>
</g>
<!-- groupDet -->
<g id="node9" class="node">
<title>groupDet</title>
<path fill="lightskyblue" stroke="black" d="M270.28,-531C270.28,-531 181.28,-531 181.28,-531 175.28,-531 169.28,-525 169.28,-519 169.28,-519 169.28,-507 169.28,-507 169.28,-501 175.28,-495 181.28,-495 181.28,-495 270.28,-495 270.28,-495 276.28,-495 282.28,-501 282.28,-507 282.28,-507 282.28,-519 282.28,-519 282.28,-525 276.28,-531 270.28,-531"/>
<text text-anchor="middle" x="225.78" y="-509.3" font-family="Helvetica" font-size="14.00">GroupDetectors</text>
</g>
<!-- procCommands&#45;&gt;groupDet -->
<g id="edge6" class="edge">
<title>procCommands&#45;&gt;groupDet</title>
<path fill="none" stroke="black" d="M253.47,-604.65C248.23,-587.49 240.13,-560.97 234.04,-541.04"/>
<polygon fill="black" stroke="black" points="237.33,-539.85 231.06,-531.31 230.64,-541.9 237.33,-539.85"/>
</g>
<!-- wavMin -->
<g id="node4" class="node">
<title>wavMin</title>
<ellipse fill="khaki" stroke="black" cx="601.78" cy="-178" rx="71.49" ry="18"/>
<text text-anchor="middle" x="601.78" y="-174.3" font-family="Helvetica" font-size="14.00">WavelengthMin</text>
</g>
<!-- cropWav -->
<g id="node10" class="node">
<title>cropWav</title>
<path fill="lightskyblue" stroke="black" d="M613.28,-109C613.28,-109 524.28,-109 524.28,-109 518.28,-109 512.28,-103 512.28,-97 512.28,-97 512.28,-85 512.28,-85 512.28,-79 518.28,-73 524.28,-73 524.28,-73 613.28,-73 613.28,-73 619.28,-73 625.28,-79 625.28,-85 625.28,-85 625.28,-97 625.28,-97 625.28,-103 619.28,-109 613.28,-109"/>
<text text-anchor="middle" x="568.78" y="-87.3" font-family="Helvetica" font-size="14.00">CropWorkspace</text>
</g>
<!-- wavMin&#45;&gt;cropWav -->
<g id="edge15" class="edge">
<title>wavMin&#45;&gt;cropWav</title>
<path fill="none" stroke="black" d="M595.1,-159.8C590.53,-148.05 584.4,-132.24 579.2,-118.84"/>
<polygon fill="black" stroke="black" points="582.33,-117.23 575.44,-109.18 575.8,-119.76 582.33,-117.23"/>
</g>
<!-- wavMax -->
<g id="node5" class="node">
<title>wavMax</title>
<ellipse fill="khaki" stroke="black" cx="765.78" cy="-178" rx="74.19" ry="18"/>
<text text-anchor="middle" x="765.78" y="-174.3" font-family="Helvetica" font-size="14.00">WavelengthMax</text>
</g>
<!-- wavMax&#45;&gt;cropWav -->
<g id="edge16" class="edge">
<title>wavMax&#45;&gt;cropWav</title>
<path fill="none" stroke="black" d="M731.01,-162C699.61,-148.45 653.06,-128.37 617.87,-113.18"/>
<polygon fill="black" stroke="black" points="618.84,-109.79 608.27,-109.04 616.07,-116.22 618.84,-109.79"/>
</g>
<!-- convertDet -->
<g id="node8" class="node">
<title>convertDet</title>
<path fill="lightskyblue" stroke="black" d="M276.28,-421C276.28,-421 175.28,-421 175.28,-421 169.28,-421 163.28,-415 163.28,-409 163.28,-409 163.28,-395 163.28,-395 163.28,-389 169.28,-383 175.28,-383 175.28,-383 276.28,-383 276.28,-383 282.28,-383 288.28,-389 288.28,-395 288.28,-395 288.28,-409 288.28,-409 288.28,-415 282.28,-421 276.28,-421"/>
<text text-anchor="middle" x="225.78" y="-405.8" font-family="Helvetica" font-size="14.00">ConvertUnits</text>
<text text-anchor="middle" x="225.78" y="-390.8" font-family="Helvetica" font-size="14.00">(AlignBins = True)</text>
</g>
<!-- checkSumInLam&#45;&gt;convertDet -->
<g id="edge4" class="edge">
<title>checkSumInLam&#45;&gt;convertDet</title>
<path fill="none" stroke="black" d="M79.68,-607.15C97.69,-575.08 136.78,-505.5 136.78,-505.5 136.78,-505.5 175.94,-459.95 202.31,-429.29"/>
<polygon fill="black" stroke="black" points="205.17,-431.33 209.03,-421.47 199.86,-426.77 205.17,-431.33"/>
<text text-anchor="middle" x="127.78" y="-509.3" font-family="Helvetica" font-size="14.00">No</text>
</g>
<!-- checkSumInLam&#45;&gt;groupDet -->
<g id="edge5" class="edge">
<title>checkSumInLam&#45;&gt;groupDet</title>
<path fill="none" stroke="black" d="M88.86,-609.4C114.26,-591.7 160.95,-559.17 192.67,-537.07"/>
<polygon fill="black" stroke="black" points="194.98,-539.72 201.19,-531.13 190.98,-533.98 194.98,-539.72"/>
<text text-anchor="middle" x="191.28" y="-564.3" font-family="Helvetica" font-size="14.00">Yes</text>
</g>
<!-- checkSumInLam2 -->
<g id="node7" class="node">
<title>checkSumInLam2</title>
<polygon fill="limegreen" stroke="black" points="441.78,-196 371.22,-178 441.78,-160 512.33,-178 441.78,-196"/>
<text text-anchor="middle" x="441.78" y="-174.3" font-family="Helvetica" font-size="14.00">Sum in λ?</text>
</g>
<!-- checkSumInLam2&#45;&gt;outputWS -->
<g id="edge13" class="edge">
<title>checkSumInLam2&#45;&gt;outputWS</title>
<path fill="none" stroke="black" d="M441.78,-159.96C441.78,-136.5 441.78,-98.5 441.78,-98.5 441.78,-98.5 441.78,-69.56 441.78,-46.38"/>
<polygon fill="black" stroke="black" points="445.28,-46.27 441.78,-36.27 438.28,-46.27 445.28,-46.27"/>
<text text-anchor="middle" x="450.78" y="-87.3" font-family="Helvetica" font-size="14.00">No</text>
</g>
<!-- checkSumInLam2&#45;&gt;cropWav -->
<g id="edge14" class="edge">
<title>checkSumInLam2&#45;&gt;cropWav</title>
<path fill="none" stroke="black" d="M460.24,-164.64C479.73,-151.6 510.86,-130.76 534.8,-114.74"/>
<polygon fill="black" stroke="black" points="536.9,-117.55 543.26,-109.08 533,-111.73 536.9,-117.55"/>
<text text-anchor="middle" x="524.28" y="-130.8" font-family="Helvetica" font-size="14.00">Yes</text>
</g>
<!-- divideDetDB -->
<g id="node11" class="node">
<title>divideDetDB</title>
<path fill="lightskyblue" stroke="black" d="M457.78,-346C457.78,-346 315.78,-346 315.78,-346 309.78,-346 303.78,-340 303.78,-334 303.78,-334 303.78,-320 303.78,-320 303.78,-314 309.78,-308 315.78,-308 315.78,-308 457.78,-308 457.78,-308 463.78,-308 469.78,-314 469.78,-320 469.78,-320 469.78,-334 469.78,-334 469.78,-340 463.78,-346 457.78,-346"/>
<text text-anchor="middle" x="386.78" y="-330.8" font-family="Helvetica" font-size="14.00">Divide</text>
<text text-anchor="middle" x="386.78" y="-315.8" font-family="Helvetica" font-size="14.00">(Detectors / DirectBeam)</text>
</g>
<!-- convertDet&#45;&gt;divideDetDB -->
<g id="edge8" class="edge">
<title>convertDet&#45;&gt;divideDetDB</title>
<path fill="none" stroke="black" d="M265.57,-382.96C287.34,-373.08 314.5,-360.77 337.59,-350.3"/>
<polygon fill="black" stroke="black" points="339.21,-353.41 346.88,-346.09 336.32,-347.03 339.21,-353.41"/>
</g>
<!-- groupDet&#45;&gt;convertDet -->
<g id="edge7" class="edge">
<title>groupDet&#45;&gt;convertDet</title>
<path fill="none" stroke="black" d="M225.78,-494.97C225.78,-478.02 225.78,-451.69 225.78,-431.54"/>
<polygon fill="black" stroke="black" points="229.28,-431.37 225.78,-421.37 222.28,-431.37 229.28,-431.37"/>
</g>
<!-- cropWav&#45;&gt;outputWS -->
<g id="edge17" class="edge">
<title>cropWav&#45;&gt;outputWS</title>
<path fill="none" stroke="black" d="M538.36,-72.99C520.95,-63.26 498.94,-50.96 480.34,-40.56"/>
<polygon fill="black" stroke="black" points="481.94,-37.45 471.51,-35.62 478.53,-43.56 481.94,-37.45"/>
</g>
<!-- divideDetMon -->
<g id="node12" class="node">
<title>divideDetMon</title>
<path fill="lightskyblue" stroke="black" d="M503.28,-271C503.28,-271 380.28,-271 380.28,-271 374.28,-271 368.28,-265 368.28,-259 368.28,-259 368.28,-245 368.28,-245 368.28,-239 374.28,-233 380.28,-233 380.28,-233 503.28,-233 503.28,-233 509.28,-233 515.28,-239 515.28,-245 515.28,-245 515.28,-259 515.28,-259 515.28,-265 509.28,-271 503.28,-271"/>
<text text-anchor="middle" x="441.78" y="-255.8" font-family="Helvetica" font-size="14.00">Divide</text>
<text text-anchor="middle" x="441.78" y="-240.8" font-family="Helvetica" font-size="14.00">(Detectors / Monitors)</text>
</g>
<!-- divideDetDB&#45;&gt;divideDetMon -->
<g id="edge10" class="edge">
<title>divideDetDB&#45;&gt;divideDetMon</title>
<path fill="none" stroke="black" d="M400.37,-307.96C406.92,-299.27 414.89,-288.69 422.08,-279.14"/>
<polygon fill="black" stroke="black" points="424.92,-281.18 428.15,-271.09 419.33,-276.97 424.92,-281.18"/>
</g>
<!-- divideDetMon&#45;&gt;checkSumInLam2 -->
<g id="edge12" class="edge">
<title>divideDetMon&#45;&gt;checkSumInLam2</title>
<path fill="none" stroke="black" d="M441.78,-232.83C441.78,-224.89 441.78,-215.41 441.78,-206.63"/>
<polygon fill="black" stroke="black" points="445.28,-206.42 441.78,-196.42 438.28,-206.42 445.28,-206.42"/>
</g>
<!-- createDBWS&#45;&gt;divideDetDB -->
<g id="edge9" class="edge">
<title>createDBWS&#45;&gt;divideDetDB</title>
<path fill="none" stroke="black" d="M391.05,-438.95C390.22,-417.22 388.85,-381.43 387.89,-356.18"/>
<polygon fill="black" stroke="black" points="391.38,-355.93 387.5,-346.07 384.39,-356.2 391.38,-355.93"/>
</g>
<!-- createMonWS&#45;&gt;divideDetMon -->
<g id="edge11" class="edge">
<title>createMonWS&#45;&gt;divideDetMon</title>
<path fill="none" stroke="black" d="M494.36,-548.71C484.88,-495.25 458.25,-344.97 446.95,-281.2"/>
<polygon fill="black" stroke="black" points="450.34,-280.27 445.15,-271.04 443.45,-281.5 450.34,-280.27"/>
</g>
</g>
</svg>
