<?xml version="1.0" encoding="UTF-8" standalone="no"?>
<!DOCTYPE svg PUBLIC "-//W3C//DTD SVG 1.1//EN"
 "http://www.w3.org/Graphics/SVG/1.1/DTD/svg11.dtd">
<!-- Generated by graphviz version 7.0.5 (20221231.0122)
 -->
<!-- Title: ReflectometryReductionOne Pages: 1 -->
<svg width="939pt" height="760pt"
 viewBox="0.00 0.00 939.24 760.00" xmlns="http://www.w3.org/2000/svg" xmlns:xlink="http://www.w3.org/1999/xlink">
<g id="graph0" class="graph" transform="scale(1 1) rotate(0) translate(4 756)">
<title>ReflectometryReductionOne</title>
<polygon fill="white" stroke="none" points="-4,4 -4,-756 935.24,-756 935.24,4 -4,4"/>
<!-- inputWS -->
<g id="node1" class="node">
<title>inputWS</title>
<ellipse fill="khaki" stroke="black" cx="436.05" cy="-710" rx="84.49" ry="18"/>
<text text-anchor="middle" x="436.05" y="-706.3" font-family="Helvetica,sans-Serif" font-size="14.00">InputWorkspace</text>
</g>
<!-- checkSumInLam -->
<g id="node6" class="node">
<title>checkSumInLam</title>
<polygon fill="limegreen" stroke="black" points="79.05,-641 -0.05,-623 79.05,-605 158.14,-623 79.05,-641"/>
<text text-anchor="middle" x="79.05" y="-619.3" font-family="Helvetica,sans-Serif" font-size="14.00">Sum in λ?</text>
</g>
<!-- inputWS&#45;&gt;checkSumInLam -->
<g id="edge1" class="edge">
<title>inputWS&#45;&gt;checkSumInLam</title>
<path fill="none" stroke="black" d="M381.05,-695.91C311.71,-679.4 193.62,-651.28 127.52,-635.54"/>
<polygon fill="black" stroke="black" points="128.6,-632.2 118.06,-633.29 126.98,-639.01 128.6,-632.2"/>
<text text-anchor="middle" x="311.55" y="-662.8" font-family="Helvetica,sans-Serif" font-size="14.00">Detectors</text>
</g>
<!-- createDBWS -->
<g id="node13" class="node">
<title>createDBWS</title>
<polygon fill="lightseagreen" stroke="black" points="508.55,-477 359.55,-477 359.55,-439 508.55,-439 508.55,-477"/>
<text text-anchor="middle" x="434.05" y="-461.8" font-family="Helvetica,sans-Serif" font-size="14.00">Create direct beam</text>
<text text-anchor="middle" x="434.05" y="-446.8" font-family="Helvetica,sans-Serif" font-size="14.00">workspace</text>
</g>
<!-- inputWS&#45;&gt;createDBWS -->
<g id="edge2" class="edge">
<title>inputWS&#45;&gt;createDBWS</title>
<path fill="none" stroke="black" d="M436.05,-691.56C436.05,-668.08 436.05,-630.5 436.05,-630.5 436.05,-630.5 434.98,-538.38 434.4,-488.78"/>
<polygon fill="black" stroke="black" points="437.91,-488.92 434.29,-478.97 430.91,-489.01 437.91,-488.92"/>
<text text-anchor="middle" x="478.55" y="-619.3" font-family="Helvetica,sans-Serif" font-size="14.00">Direct Beam</text>
</g>
<!-- createMonWS -->
<g id="node14" class="node">
<title>createMonWS</title>
<polygon fill="lightseagreen" stroke="black" points="609.05,-587 489.05,-587 489.05,-549 609.05,-549 609.05,-587"/>
<text text-anchor="middle" x="549.05" y="-571.8" font-family="Helvetica,sans-Serif" font-size="14.00">Create monitor</text>
<text text-anchor="middle" x="549.05" y="-556.8" font-family="Helvetica,sans-Serif" font-size="14.00">workspace</text>
</g>
<!-- inputWS&#45;&gt;createMonWS -->
<g id="edge3" class="edge">
<title>inputWS&#45;&gt;createMonWS</title>
<path fill="none" stroke="black" d="M483.97,-694.73C514.77,-684.92 549.05,-674 549.05,-674 549.05,-674 549.05,-630 549.05,-598.7"/>
<polygon fill="black" stroke="black" points="552.55,-598.96 549.05,-588.96 545.55,-598.96 552.55,-598.96"/>
<text text-anchor="middle" x="579.55" y="-662.8" font-family="Helvetica,sans-Serif" font-size="14.00">Monitors</text>
</g>
<!-- outputWS -->
<g id="node2" class="node">
<title>outputWS</title>
<ellipse fill="khaki" stroke="black" cx="488.05" cy="-18" rx="145.67" ry="18"/>
<text text-anchor="middle" x="488.05" y="-14.3" font-family="Helvetica,sans-Serif" font-size="14.00">OutputWorkspaceWavelength</text>
</g>
<!-- procCommands -->
<g id="node3" class="node">
<title>procCommands</title>
<ellipse fill="khaki" stroke="black" cx="288.05" cy="-623" rx="112.38" ry="18"/>
<text text-anchor="middle" x="288.05" y="-619.3" font-family="Helvetica,sans-Serif" font-size="14.00">ProcessingInstructions</text>
</g>
<!-- groupDet -->
<g id="node9" class="node">
<title>groupDet</title>
<path fill="lightskyblue" stroke="black" d="M301.55,-531C301.55,-531 200.55,-531 200.55,-531 194.55,-531 188.55,-525 188.55,-519 188.55,-519 188.55,-507 188.55,-507 188.55,-501 194.55,-495 200.55,-495 200.55,-495 301.55,-495 301.55,-495 307.55,-495 313.55,-501 313.55,-507 313.55,-507 313.55,-519 313.55,-519 313.55,-525 307.55,-531 301.55,-531"/>
<text text-anchor="middle" x="251.05" y="-509.3" font-family="Helvetica,sans-Serif" font-size="14.00">GroupDetectors</text>
</g>
<!-- procCommands&#45;&gt;groupDet -->
<g id="edge6" class="edge">
<title>procCommands&#45;&gt;groupDet</title>
<path fill="none" stroke="black" d="M282.1,-604.65C276.33,-587.8 267.47,-561.94 260.69,-542.15"/>
<polygon fill="black" stroke="black" points="264.02,-541.07 257.47,-532.74 257.4,-543.34 264.02,-541.07"/>
</g>
<!-- wavMin -->
<g id="node4" class="node">
<title>wavMin</title>
<ellipse fill="khaki" stroke="black" cx="666.05" cy="-178" rx="80.69" ry="18"/>
<text text-anchor="middle" x="666.05" y="-174.3" font-family="Helvetica,sans-Serif" font-size="14.00">WavelengthMin</text>
</g>
<!-- cropWav -->
<g id="node10" class="node">
<title>cropWav</title>
<path fill="lightskyblue" stroke="black" d="M678.55,-109C678.55,-109 577.55,-109 577.55,-109 571.55,-109 565.55,-103 565.55,-97 565.55,-97 565.55,-85 565.55,-85 565.55,-79 571.55,-73 577.55,-73 577.55,-73 678.55,-73 678.55,-73 684.55,-73 690.55,-79 690.55,-85 690.55,-85 690.55,-97 690.55,-97 690.55,-103 684.55,-109 678.55,-109"/>
<text text-anchor="middle" x="628.05" y="-87.3" font-family="Helvetica,sans-Serif" font-size="14.00">CropWorkspace</text>
</g>
<!-- wavMin&#45;&gt;cropWav -->
<g id="edge15" class="edge">
<title>wavMin&#45;&gt;cropWav</title>
<path fill="none" stroke="black" d="M658.36,-159.8C653.24,-148.35 646.4,-133.06 640.52,-119.89"/>
<polygon fill="black" stroke="black" points="643.75,-118.55 636.47,-110.85 637.36,-121.41 643.75,-118.55"/>
</g>
<!-- wavMax -->
<g id="node5" class="node">
<title>wavMax</title>
<ellipse fill="khaki" stroke="black" cx="848.05" cy="-178" rx="83.39" ry="18"/>
<text text-anchor="middle" x="848.05" y="-174.3" font-family="Helvetica,sans-Serif" font-size="14.00">WavelengthMax</text>
</g>
<!-- wavMax&#45;&gt;cropWav -->
<g id="edge16" class="edge">
<title>wavMax&#45;&gt;cropWav</title>
<path fill="none" stroke="black" d="M808.46,-161.71C773.63,-148.25 722.56,-128.52 683.63,-113.48"/>
<polygon fill="black" stroke="black" points="685,-110.25 674.41,-109.91 682.48,-116.78 685,-110.25"/>
</g>
<!-- convertDet -->
<g id="node8" class="node">
<title>convertDet</title>
<path fill="lightskyblue" stroke="black" d="M310.55,-421C310.55,-421 191.55,-421 191.55,-421 185.55,-421 179.55,-415 179.55,-409 179.55,-409 179.55,-395 179.55,-395 179.55,-389 185.55,-383 191.55,-383 191.55,-383 310.55,-383 310.55,-383 316.55,-383 322.55,-389 322.55,-395 322.55,-395 322.55,-409 322.55,-409 322.55,-415 316.55,-421 310.55,-421"/>
<text text-anchor="middle" x="251.05" y="-405.8" font-family="Helvetica,sans-Serif" font-size="14.00">ConvertUnits</text>
<text text-anchor="middle" x="251.05" y="-390.8" font-family="Helvetica,sans-Serif" font-size="14.00">(AlignBins = True)</text>
</g>
<!-- checkSumInLam&#45;&gt;convertDet -->
<g id="edge4" class="edge">
<title>checkSumInLam&#45;&gt;convertDet</title>
<path fill="none" stroke="black" d="M88.89,-607.15C108.82,-575.08 152.05,-505.5 152.05,-505.5 152.05,-505.5 195.24,-460.34 224.57,-429.68"/>
<polygon fill="black" stroke="black" points="227,-432.21 231.38,-422.56 221.94,-427.37 227,-432.21"/>
<text text-anchor="middle" x="142.55" y="-509.3" font-family="Helvetica,sans-Serif" font-size="14.00">No</text>
</g>
<!-- checkSumInLam&#45;&gt;groupDet -->
<g id="edge5" class="edge">
<title>checkSumInLam&#45;&gt;groupDet</title>
<path fill="none" stroke="black" d="M99.45,-609.19C127.6,-591.52 178.81,-559.36 213.86,-537.35"/>
<polygon fill="black" stroke="black" points="215.39,-540.52 222,-532.24 211.67,-534.59 215.39,-540.52"/>
<text text-anchor="middle" x="210.55" y="-564.3" font-family="Helvetica,sans-Serif" font-size="14.00">Yes</text>
</g>
<!-- checkSumInLam2 -->
<g id="node7" class="node">
<title>checkSumInLam2</title>
<polygon fill="limegreen" stroke="black" points="488.05,-196 408.95,-178 488.05,-160 567.14,-178 488.05,-196"/>
<text text-anchor="middle" x="488.05" y="-174.3" font-family="Helvetica,sans-Serif" font-size="14.00">Sum in λ?</text>
</g>
<!-- checkSumInLam2&#45;&gt;outputWS -->
<g id="edge13" class="edge">
<title>checkSumInLam2&#45;&gt;outputWS</title>
<path fill="none" stroke="black" d="M488.05,-159.56C488.05,-136.08 488.05,-98.5 488.05,-98.5 488.05,-98.5 488.05,-70.59 488.05,-47.64"/>
<polygon fill="black" stroke="black" points="491.55,-47.78 488.05,-37.78 484.55,-47.78 491.55,-47.78"/>
<text text-anchor="middle" x="497.55" y="-87.3" font-family="Helvetica,sans-Serif" font-size="14.00">No</text>
</g>
<!-- checkSumInLam2&#45;&gt;cropWav -->
<g id="edge14" class="edge">
<title>checkSumInLam2&#45;&gt;cropWav</title>
<path fill="none" stroke="black" d="M509.01,-164.27C530.31,-151.34 563.8,-131.01 589.84,-115.2"/>
<polygon fill="black" stroke="black" points="591.39,-118.35 598.12,-110.17 587.75,-112.37 591.39,-118.35"/>
<text text-anchor="middle" x="577.55" y="-130.8" font-family="Helvetica,sans-Serif" font-size="14.00">Yes</text>
</g>
<!-- divideDetDB -->
<g id="node11" class="node">
<title>divideDetDB</title>
<path fill="lightskyblue" stroke="black" d="M509.05,-346C509.05,-346 345.05,-346 345.05,-346 339.05,-346 333.05,-340 333.05,-334 333.05,-334 333.05,-320 333.05,-320 333.05,-314 339.05,-308 345.05,-308 345.05,-308 509.05,-308 509.05,-308 515.05,-308 521.05,-314 521.05,-320 521.05,-320 521.05,-334 521.05,-334 521.05,-340 515.05,-346 509.05,-346"/>
<text text-anchor="middle" x="427.05" y="-330.8" font-family="Helvetica,sans-Serif" font-size="14.00">Divide</text>
<text text-anchor="middle" x="427.05" y="-315.8" font-family="Helvetica,sans-Serif" font-size="14.00">(Detectors / DirectBeam)</text>
</g>
<!-- convertDet&#45;&gt;divideDetDB -->
<g id="edge8" class="edge">
<title>convertDet&#45;&gt;divideDetDB</title>
<path fill="none" stroke="black" d="M295.46,-382.58C318.8,-372.9 347.63,-360.94 372.34,-350.69"/>
<polygon fill="black" stroke="black" points="373.36,-354.06 381.25,-346.99 370.67,-347.59 373.36,-354.06"/>
</g>
<!-- groupDet&#45;&gt;convertDet -->
<g id="edge7" class="edge">
<title>groupDet&#45;&gt;convertDet</title>
<path fill="none" stroke="black" d="M251.05,-494.97C251.05,-478.33 251.05,-452.66 251.05,-432.66"/>
<polygon fill="black" stroke="black" points="254.55,-432.88 251.05,-422.88 247.55,-432.88 254.55,-432.88"/>
</g>
<!-- cropWav&#45;&gt;outputWS -->
<g id="edge17" class="edge">
<title>cropWav&#45;&gt;outputWS</title>
<path fill="none" stroke="black" d="M593.8,-72.63C575.05,-63.12 551.62,-51.24 531.58,-41.08"/>
<polygon fill="black" stroke="black" points="533.31,-38.03 522.81,-36.63 530.14,-44.27 533.31,-38.03"/>
</g>
<!-- divideDetMon -->
<g id="node12" class="node">
<title>divideDetMon</title>
<path fill="lightskyblue" stroke="black" d="M559.55,-271C559.55,-271 416.55,-271 416.55,-271 410.55,-271 404.55,-265 404.55,-259 404.55,-259 404.55,-245 404.55,-245 404.55,-239 410.55,-233 416.55,-233 416.55,-233 559.55,-233 559.55,-233 565.55,-233 571.55,-239 571.55,-245 571.55,-245 571.55,-259 571.55,-259 571.55,-265 565.55,-271 559.55,-271"/>
<text text-anchor="middle" x="488.05" y="-255.8" font-family="Helvetica,sans-Serif" font-size="14.00">Divide</text>
<text text-anchor="middle" x="488.05" y="-240.8" font-family="Helvetica,sans-Serif" font-size="14.00">(Detectors / Monitors)</text>
</g>
<!-- divideDetDB&#45;&gt;divideDetMon -->
<g id="edge10" class="edge">
<title>divideDetDB&#45;&gt;divideDetMon</title>
<path fill="none" stroke="black" d="M442.44,-307.58C449.38,-299.28 457.71,-289.31 465.34,-280.18"/>
<polygon fill="black" stroke="black" points="467.96,-282.49 471.69,-272.58 462.59,-278.01 467.96,-282.49"/>
</g>
<!-- divideDetMon&#45;&gt;checkSumInLam2 -->
<g id="edge12" class="edge">
<title>divideDetMon&#45;&gt;checkSumInLam2</title>
<path fill="none" stroke="black" d="M488.05,-232.83C488.05,-225.24 488.05,-216.24 488.05,-207.79"/>
<polygon fill="black" stroke="black" points="491.55,-207.93 488.05,-197.93 484.55,-207.93 491.55,-207.93"/>
</g>
<!-- createDBWS&#45;&gt;divideDetDB -->
<g id="edge9" class="edge">
<title>createDBWS&#45;&gt;divideDetDB</title>
<path fill="none" stroke="black" d="M433.01,-438.67C431.88,-417.39 430.03,-382.87 428.7,-357.84"/>
<polygon fill="black" stroke="black" points="432.19,-357.72 428.17,-347.92 425.2,-358.09 432.19,-357.72"/>
</g>
<!-- createMonWS&#45;&gt;divideDetMon -->
<g id="edge11" class="edge">
<title>createMonWS&#45;&gt;divideDetMon</title>
<path fill="none" stroke="black" d="M545.32,-548.71C535.07,-495.6 506.37,-346.92 493.93,-282.46"/>
<polygon fill="black" stroke="black" points="497.42,-282.08 492.09,-272.93 490.55,-283.41 497.42,-282.08"/>
</g>
</g>
</svg>
