<?xml version="1.0" encoding="UTF-8" standalone="no"?>
<!DOCTYPE svg PUBLIC "-//W3C//DTD SVG 1.1//EN"
 "http://www.w3.org/Graphics/SVG/1.1/DTD/svg11.dtd">
<!-- Generated by graphviz version 3.0.0 (20220315.2325)
 -->
<!-- Title: ReflectometryReductionOne Pages: 1 -->
<svg width="688pt" height="303pt"
 viewBox="0.00 0.00 687.70 303.00" xmlns="http://www.w3.org/2000/svg" xmlns:xlink="http://www.w3.org/1999/xlink">
<g id="graph0" class="graph" transform="scale(1 1) rotate(0) translate(4 299)">
<title>ReflectometryReductionOne</title>
<polygon fill="white" stroke="transparent" points="-4,4 -4,-299 683.7,-299 683.7,4 -4,4"/>
<!-- inputWorkspace -->
<g id="node1" class="node">
<title>inputWorkspace</title>
<ellipse fill="khaki" stroke="black" cx="285.86" cy="-253" rx="145.67" ry="18"/>
<text text-anchor="middle" x="285.86" y="-249.3" font-family="Helvetica,sans-Serif" font-size="14.00">OutputWorkspaceWavelength</text>
</g>
<!-- checkCorrectAngle -->
<g id="node4" class="node">
<title>checkCorrectAngle</title>
<polygon fill="limegreen" stroke="black" points="285.86,-198 0.14,-180 285.86,-162 571.57,-180 285.86,-198"/>
<text text-anchor="middle" x="285.86" y="-176.3" font-family="Helvetica,sans-Serif" font-size="14.00">Sum in wavelength and ThetaIn provided?</text>
</g>
<!-- inputWorkspace&#45;&gt;checkCorrectAngle -->
<g id="edge1" class="edge">
<title>inputWorkspace&#45;&gt;checkCorrectAngle</title>
<path fill="none" stroke="black" d="M285.86,-234.81C285.86,-226.79 285.86,-217.05 285.86,-208.07"/>
<polygon fill="black" stroke="black" points="289.36,-208.03 285.86,-198.03 282.36,-208.03 289.36,-208.03"/>
</g>
<!-- thetaIn -->
<g id="node2" class="node">
<title>thetaIn</title>
<ellipse fill="khaki" stroke="black" cx="634.86" cy="-180" rx="44.69" ry="18"/>
<text text-anchor="middle" x="634.86" y="-176.3" font-family="Helvetica,sans-Serif" font-size="14.00">ThetaIn</text>
</g>
<!-- refRoi -->
<g id="node6" class="node">
<title>refRoi</title>
<path fill="lightskyblue" stroke="black" d="M423.86,-110C423.86,-110 385.86,-110 385.86,-110 379.86,-110 373.86,-104 373.86,-98 373.86,-98 373.86,-86 373.86,-86 373.86,-80 379.86,-74 385.86,-74 385.86,-74 423.86,-74 423.86,-74 429.86,-74 435.86,-80 435.86,-86 435.86,-86 435.86,-98 435.86,-98 435.86,-104 429.86,-110 423.86,-110"/>
<text text-anchor="middle" x="404.86" y="-88.3" font-family="Helvetica,sans-Serif" font-size="14.00">RefRoi</text>
</g>
<!-- thetaIn&#45;&gt;refRoi -->
<g id="edge5" class="edge">
<title>thetaIn&#45;&gt;refRoi</title>
<path fill="none" stroke="black" d="M602.88,-167.04C561.82,-151.69 490.55,-125.04 445.64,-108.25"/>
<polygon fill="black" stroke="black" points="446.79,-104.94 436.2,-104.72 444.34,-111.5 446.79,-104.94"/>
</g>
<!-- outputWorkspace -->
<g id="node3" class="node">
<title>outputWorkspace</title>
<ellipse fill="khaki" stroke="black" cx="344.86" cy="-18" rx="92.08" ry="18"/>
<text text-anchor="middle" x="344.86" y="-14.3" font-family="Helvetica,sans-Serif" font-size="14.00">OutputWorkspace</text>
</g>
<!-- convertUnits -->
<g id="node5" class="node">
<title>convertUnits</title>
<path fill="lightskyblue" stroke="black" d="M343.86,-111C343.86,-111 227.86,-111 227.86,-111 221.86,-111 215.86,-105 215.86,-99 215.86,-99 215.86,-85 215.86,-85 215.86,-79 221.86,-73 227.86,-73 227.86,-73 343.86,-73 343.86,-73 349.86,-73 355.86,-79 355.86,-85 355.86,-85 355.86,-99 355.86,-99 355.86,-105 349.86,-111 343.86,-111"/>
<text text-anchor="middle" x="285.86" y="-95.8" font-family="Helvetica,sans-Serif" font-size="14.00">ConvertUnits</text>
<text text-anchor="middle" x="285.86" y="-80.8" font-family="Helvetica,sans-Serif" font-size="14.00">(AlignBins=False)</text>
</g>
<!-- checkCorrectAngle&#45;&gt;convertUnits -->
<g id="edge2" class="edge">
<title>checkCorrectAngle&#45;&gt;convertUnits</title>
<path fill="none" stroke="black" d="M285.86,-161.6C285.86,-150.06 285.86,-134.65 285.86,-121.36"/>
<polygon fill="black" stroke="black" points="289.36,-121.27 285.86,-111.27 282.36,-121.27 289.36,-121.27"/>
<text text-anchor="middle" x="295.36" y="-132.8" font-family="Helvetica,sans-Serif" font-size="14.00">No</text>
</g>
<!-- checkCorrectAngle&#45;&gt;refRoi -->
<g id="edge3" class="edge">
<title>checkCorrectAngle&#45;&gt;refRoi</title>
<path fill="none" stroke="black" d="M307.68,-163.23C325.97,-150.01 352.31,-130.98 372.96,-116.06"/>
<polygon fill="black" stroke="black" points="375.07,-118.84 381.13,-110.15 370.97,-113.17 375.07,-118.84"/>
<text text-anchor="middle" x="364.36" y="-132.8" font-family="Helvetica,sans-Serif" font-size="14.00">Yes</text>
</g>
<!-- convertUnits&#45;&gt;outputWorkspace -->
<g id="edge4" class="edge">
<title>convertUnits&#45;&gt;outputWorkspace</title>
<path fill="none" stroke="black" d="M300.75,-72.83C307.93,-64.07 316.66,-53.42 324.45,-43.91"/>
<polygon fill="black" stroke="black" points="327.36,-45.88 330.99,-35.93 321.94,-41.44 327.36,-45.88"/>
</g>
<!-- refRoi&#45;&gt;outputWorkspace -->
<g id="edge6" class="edge">
<title>refRoi&#45;&gt;outputWorkspace</title>
<path fill="none" stroke="black" d="M390.64,-73.94C383.17,-64.97 373.87,-53.81 365.61,-43.9"/>
<polygon fill="black" stroke="black" points="368.07,-41.38 358.98,-35.94 362.69,-45.86 368.07,-41.38"/>
</g>
</g>
</svg>
