<?xml version="1.0" encoding="UTF-8" standalone="no"?>
<!DOCTYPE svg PUBLIC "-//W3C//DTD SVG 1.1//EN"
 "http://www.w3.org/Graphics/SVG/1.1/DTD/svg11.dtd">
<!-- Generated by graphviz version 7.0.5 (20221231.0122)
 -->
<!-- Title: ReflectometryReductionOne Pages: 1 -->
<svg width="353pt" height="614pt"
 viewBox="0.00 0.00 352.59 614.00" xmlns="http://www.w3.org/2000/svg" xmlns:xlink="http://www.w3.org/1999/xlink">
<g id="graph0" class="graph" transform="scale(1 1) rotate(0) translate(4 610)">
<title>ReflectometryReductionOne</title>
<polygon fill="white" stroke="none" points="-4,4 -4,-610 348.59,-610 348.59,4 -4,4"/>
<!-- inputWS -->
<g id="node1" class="node">
<title>inputWS</title>
<ellipse fill="khaki" stroke="black" cx="149.59" cy="-564" rx="84.49" ry="18"/>
<text text-anchor="middle" x="149.59" y="-560.3" font-family="Helvetica,sans-Serif" font-size="14.00">InputWorkspace</text>
</g>
<!-- checkSumDone -->
<g id="node4" class="node">
<title>checkSumDone</title>
<polygon fill="limegreen" stroke="black" points="149.59,-509 6.31,-491 149.59,-473 292.86,-491 149.59,-509"/>
<text text-anchor="middle" x="149.59" y="-487.3" font-family="Helvetica,sans-Serif" font-size="14.00">Reduction required?</text>
</g>
<!-- inputWS&#45;&gt;checkSumDone -->
<g id="edge1" class="edge">
<title>inputWS&#45;&gt;checkSumDone</title>
<path fill="none" stroke="black" d="M149.59,-545.81C149.59,-538.23 149.59,-529.1 149.59,-520.54"/>
<polygon fill="black" stroke="black" points="153.09,-520.54 149.59,-510.54 146.09,-520.54 153.09,-520.54"/>
</g>
<!-- outputWSWL -->
<g id="node2" class="node">
<title>outputWSWL</title>
<ellipse fill="khaki" stroke="black" cx="145.59" cy="-166" rx="145.67" ry="18"/>
<text text-anchor="middle" x="145.59" y="-162.3" font-family="Helvetica,sans-Serif" font-size="14.00">OutputWorkspaceWavelength</text>
</g>
<!-- convertMom -->
<g id="node8" class="node">
<title>convertMom</title>
<polygon fill="lightseagreen" stroke="black" points="232.59,-111 58.59,-111 58.59,-73 232.59,-73 232.59,-111"/>
<text text-anchor="middle" x="145.59" y="-95.8" font-family="Helvetica,sans-Serif" font-size="14.00">Convert to momentum</text>
<text text-anchor="middle" x="145.59" y="-80.8" font-family="Helvetica,sans-Serif" font-size="14.00">transfer</text>
</g>
<!-- outputWSWL&#45;&gt;convertMom -->
<g id="edge7" class="edge">
<title>outputWSWL&#45;&gt;convertMom</title>
<path fill="none" stroke="black" d="M145.59,-147.57C145.59,-140.1 145.59,-131.17 145.59,-122.71"/>
<polygon fill="black" stroke="black" points="149.09,-122.79 145.59,-112.79 142.09,-122.79 149.09,-122.79"/>
</g>
<!-- outputWSFinal -->
<g id="node3" class="node">
<title>outputWSFinal</title>
<ellipse fill="khaki" stroke="black" cx="145.59" cy="-18" rx="92.08" ry="18"/>
<text text-anchor="middle" x="145.59" y="-14.3" font-family="Helvetica,sans-Serif" font-size="14.00">OutputWorkspace</text>
</g>
<!-- convertUnits -->
<g id="node5" class="node">
<title>convertUnits</title>
<polygon fill="lightseagreen" stroke="black" points="344.59,-422 170.59,-422 170.59,-369 344.59,-369 344.59,-422"/>
<text text-anchor="middle" x="257.59" y="-406.8" font-family="Helvetica,sans-Serif" font-size="14.00">Convert to λ</text>
<text text-anchor="middle" x="257.59" y="-391.8" font-family="Helvetica,sans-Serif" font-size="14.00">Sum in λ</text>
<text text-anchor="middle" x="257.59" y="-376.8" font-family="Helvetica,sans-Serif" font-size="14.00">Normalize by monitors</text>
</g>
<!-- checkSumDone&#45;&gt;convertUnits -->
<g id="edge3" class="edge">
<title>checkSumDone&#45;&gt;convertUnits</title>
<path fill="none" stroke="black" d="M166.94,-474.98C180.98,-462.82 201.28,-445.25 219.11,-429.81"/>
<polygon fill="black" stroke="black" points="221.21,-432.62 226.48,-423.43 216.63,-427.33 221.21,-432.62"/>
<text text-anchor="middle" x="218.09" y="-443.8" font-family="Helvetica,sans-Serif" font-size="14.00">Yes</text>
</g>
<!-- applyCorrTrans -->
<g id="node6" class="node">
<title>applyCorrTrans</title>
<polygon fill="lightseagreen" stroke="black" points="220.59,-332 70.59,-332 70.59,-294 220.59,-294 220.59,-332"/>
<text text-anchor="middle" x="145.59" y="-316.8" font-family="Helvetica,sans-Serif" font-size="14.00">Apply transmission</text>
<text text-anchor="middle" x="145.59" y="-301.8" font-family="Helvetica,sans-Serif" font-size="14.00"> corrections</text>
</g>
<!-- checkSumDone&#45;&gt;applyCorrTrans -->
<g id="edge2" class="edge">
<title>checkSumDone&#45;&gt;applyCorrTrans</title>
<path fill="none" stroke="black" d="M147.35,-472.99C145.66,-459.26 143.48,-439.42 142.59,-422 141.38,-398.48 141.95,-392.55 142.59,-369 142.81,-360.78 143.22,-351.87 143.67,-343.67"/>
<polygon fill="black" stroke="black" points="147.16,-344.02 144.25,-333.83 140.17,-343.61 147.16,-344.02"/>
<text text-anchor="middle" x="152.09" y="-391.8" font-family="Helvetica,sans-Serif" font-size="14.00">No</text>
</g>
<!-- convertUnits&#45;&gt;applyCorrTrans -->
<g id="edge4" class="edge">
<title>convertUnits&#45;&gt;applyCorrTrans</title>
<path fill="none" stroke="black" d="M221.53,-368.59C208.36,-359.12 193.49,-348.43 180.43,-339.04"/>
<polygon fill="black" stroke="black" points="182.67,-336.35 172.51,-333.35 178.59,-342.03 182.67,-336.35"/>
</g>
<!-- sumInQ -->
<g id="node7" class="node">
<title>sumInQ</title>
<polygon fill="lightseagreen" stroke="black" points="186.09,-257 105.09,-257 105.09,-221 186.09,-221 186.09,-257"/>
<text text-anchor="middle" x="145.59" y="-235.3" font-family="Helvetica,sans-Serif" font-size="14.00">Sum in Q</text>
</g>
<!-- applyCorrTrans&#45;&gt;sumInQ -->
<g id="edge5" class="edge">
<title>applyCorrTrans&#45;&gt;sumInQ</title>
<path fill="none" stroke="black" d="M145.59,-293.83C145.59,-286.24 145.59,-277.24 145.59,-268.79"/>
<polygon fill="black" stroke="black" points="149.09,-268.93 145.59,-258.93 142.09,-268.93 149.09,-268.93"/>
</g>
<!-- sumInQ&#45;&gt;outputWSWL -->
<g id="edge6" class="edge">
<title>sumInQ&#45;&gt;outputWSWL</title>
<path fill="none" stroke="black" d="M145.59,-220.81C145.59,-213.23 145.59,-204.1 145.59,-195.54"/>
<polygon fill="black" stroke="black" points="149.09,-195.54 145.59,-185.54 142.09,-195.54 149.09,-195.54"/>
</g>
<!-- convertMom&#45;&gt;outputWSFinal -->
<g id="edge8" class="edge">
<title>convertMom&#45;&gt;outputWSFinal</title>
<path fill="none" stroke="black" d="M145.59,-72.83C145.59,-65.24 145.59,-56.24 145.59,-47.79"/>
<polygon fill="black" stroke="black" points="149.09,-47.93 145.59,-37.93 142.09,-47.93 149.09,-47.93"/>
</g>
</g>
</svg>
