<?xml version="1.0" encoding="UTF-8" standalone="no"?>
<!DOCTYPE svg PUBLIC "-//W3C//DTD SVG 1.1//EN"
 "http://www.w3.org/Graphics/SVG/1.1/DTD/svg11.dtd">
<!-- Generated by graphviz version 7.0.5 (20221231.0122)
 -->
<!-- Title: ReflectometryReductionOne Pages: 1 -->
<svg width="1014pt" height="1012pt"
 viewBox="0.00 0.00 1013.88 1012.39" xmlns="http://www.w3.org/2000/svg" xmlns:xlink="http://www.w3.org/1999/xlink">
<g id="graph0" class="graph" transform="scale(1 1) rotate(0) translate(4 1008.39)">
<title>ReflectometryReductionOne</title>
<polygon fill="white" stroke="none" points="-4,4 -4,-1008.39 1009.88,-1008.39 1009.88,4 -4,4"/>
<!-- floodWorkspace -->
<g id="node1" class="node">
<title>floodWorkspace</title>
<ellipse fill="khaki" stroke="black" cx="510.59" cy="-962.39" rx="85.29" ry="18"/>
<text text-anchor="middle" x="510.59" y="-958.69" font-family="Helvetica,sans-Serif" font-size="14.00">FloodWorkspace</text>
</g>
<!-- applyFloodI -->
<g id="node22" class="node">
<title>applyFloodI</title>
<path fill="lightskyblue" stroke="black" d="M490.59,-907.39C490.59,-907.39 344.59,-907.39 344.59,-907.39 338.59,-907.39 332.59,-901.39 332.59,-895.39 332.59,-895.39 332.59,-883.39 332.59,-883.39 332.59,-877.39 338.59,-871.39 344.59,-871.39 344.59,-871.39 490.59,-871.39 490.59,-871.39 496.59,-871.39 502.59,-877.39 502.59,-883.39 502.59,-883.39 502.59,-895.39 502.59,-895.39 502.59,-901.39 496.59,-907.39 490.59,-907.39"/>
<text text-anchor="middle" x="417.59" y="-885.69" font-family="Helvetica,sans-Serif" font-size="14.00">ApplyFloodWorkspace</text>
</g>
<!-- floodWorkspace&#45;&gt;applyFloodI -->
<g id="edge2" class="edge">
<title>floodWorkspace&#45;&gt;applyFloodI</title>
<path fill="none" stroke="black" d="M488.55,-944.57C476.88,-935.66 462.33,-924.56 449.46,-914.73"/>
<polygon fill="black" stroke="black" points="451.72,-912.05 441.64,-908.76 447.47,-917.61 451.72,-912.05"/>
</g>
<!-- applyFloodT -->
<g id="node23" class="node">
<title>applyFloodT</title>
<path fill="lightskyblue" stroke="black" d="M678.59,-907.39C678.59,-907.39 532.59,-907.39 532.59,-907.39 526.59,-907.39 520.59,-901.39 520.59,-895.39 520.59,-895.39 520.59,-883.39 520.59,-883.39 520.59,-877.39 526.59,-871.39 532.59,-871.39 532.59,-871.39 678.59,-871.39 678.59,-871.39 684.59,-871.39 690.59,-877.39 690.59,-883.39 690.59,-883.39 690.59,-895.39 690.59,-895.39 690.59,-901.39 684.59,-907.39 678.59,-907.39"/>
<text text-anchor="middle" x="605.59" y="-885.69" font-family="Helvetica,sans-Serif" font-size="14.00">ApplyFloodWorkspace</text>
</g>
<!-- floodWorkspace&#45;&gt;applyFloodT -->
<g id="edge3" class="edge">
<title>floodWorkspace&#45;&gt;applyFloodT</title>
<path fill="none" stroke="black" d="M533.1,-944.57C545.02,-935.66 559.88,-924.56 573.03,-914.73"/>
<polygon fill="black" stroke="black" points="575.12,-917.54 581.03,-908.75 570.93,-911.93 575.12,-917.54"/>
</g>
<!-- inputWorkspace -->
<g id="node2" class="node">
<title>inputWorkspace</title>
<ellipse fill="khaki" stroke="black" cx="322.59" cy="-962.39" rx="84.49" ry="18"/>
<text text-anchor="middle" x="322.59" y="-958.69" font-family="Helvetica,sans-Serif" font-size="14.00">InputWorkspace</text>
</g>
<!-- inputWorkspace&#45;&gt;applyFloodI -->
<g id="edge1" class="edge">
<title>inputWorkspace&#45;&gt;applyFloodI</title>
<path fill="none" stroke="black" d="M345.1,-944.57C357.02,-935.66 371.88,-924.56 385.03,-914.73"/>
<polygon fill="black" stroke="black" points="387.12,-917.54 393.03,-908.75 382.93,-911.93 387.12,-917.54"/>
</g>
<!-- trans -->
<g id="node3" class="node">
<title>trans</title>
<ellipse fill="khaki" stroke="black" cx="720.59" cy="-962.39" rx="106.68" ry="18"/>
<text text-anchor="middle" x="720.59" y="-958.69" font-family="Helvetica,sans-Serif" font-size="14.00">FirstTransmissionRun</text>
</g>
<!-- trans&#45;&gt;applyFloodT -->
<g id="edge6" class="edge">
<title>trans&#45;&gt;applyFloodT</title>
<path fill="none" stroke="black" d="M693.33,-944.57C678.48,-935.4 659.87,-923.91 643.61,-913.87"/>
<polygon fill="black" stroke="black" points="645.48,-910.91 635.13,-908.64 641.8,-916.87 645.48,-910.91"/>
</g>
<!-- IvsLam_0 -->
<g id="node4" class="node">
<title>IvsLam_0</title>
<ellipse fill="khaki" stroke="black" cx="145.59" cy="-729.39" rx="145.67" ry="18"/>
<text text-anchor="middle" x="145.59" y="-725.69" font-family="Helvetica,sans-Serif" font-size="14.00">OutputWorkspaceWavelength</text>
</g>
<!-- groupIvsLam -->
<g id="node17" class="node">
<title>groupIvsLam</title>
<path fill="lightskyblue" stroke="black" d="M379.09,-674.39C379.09,-674.39 260.09,-674.39 260.09,-674.39 254.09,-674.39 248.09,-668.39 248.09,-662.39 248.09,-662.39 248.09,-650.39 248.09,-650.39 248.09,-644.39 254.09,-638.39 260.09,-638.39 260.09,-638.39 379.09,-638.39 379.09,-638.39 385.09,-638.39 391.09,-644.39 391.09,-650.39 391.09,-650.39 391.09,-662.39 391.09,-662.39 391.09,-668.39 385.09,-674.39 379.09,-674.39"/>
<text text-anchor="middle" x="319.59" y="-652.69" font-family="Helvetica,sans-Serif" font-size="14.00">GroupWorkspaces</text>
</g>
<!-- IvsLam_0&#45;&gt;groupIvsLam -->
<g id="edge16" class="edge">
<title>IvsLam_0&#45;&gt;groupIvsLam</title>
<path fill="none" stroke="black" d="M186.38,-711.75C210.31,-701.99 240.8,-689.54 266.57,-679.03"/>
<polygon fill="black" stroke="black" points="267.59,-682.39 275.52,-675.37 264.94,-675.91 267.59,-682.39"/>
</g>
<!-- IvsLam_1 -->
<g id="node5" class="node">
<title>IvsLam_1</title>
<ellipse fill="khaki" stroke="black" cx="657.59" cy="-729.39" rx="145.67" ry="18"/>
<text text-anchor="middle" x="657.59" y="-725.69" font-family="Helvetica,sans-Serif" font-size="14.00">OutputWorkspaceWavelength</text>
</g>
<!-- IvsLam_1&#45;&gt;groupIvsLam -->
<g id="edge17" class="edge">
<title>IvsLam_1&#45;&gt;groupIvsLam</title>
<path fill="none" stroke="black" d="M585.91,-713.34C532.22,-702.06 458.66,-686.61 402.45,-674.8"/>
<polygon fill="black" stroke="black" points="403.44,-671.43 392.94,-672.8 402,-678.28 403.44,-671.43"/>
</g>
<!-- IvsLam_temp -->
<g id="node6" class="node">
<title>IvsLam_temp</title>
<ellipse fill="khaki" stroke="black" cx="319.59" cy="-583.39" rx="145.67" ry="18"/>
<text text-anchor="middle" x="319.59" y="-579.69" font-family="Helvetica,sans-Serif" font-size="14.00">OutputWorkspaceWavelength</text>
</g>
<!-- checkPolarizationCor -->
<g id="node24" class="node">
<title>checkPolarizationCor</title>
<polygon fill="limegreen" stroke="black" points="319.59,-528.39 208.15,-510.39 319.59,-492.39 431.02,-510.39 319.59,-528.39"/>
<text text-anchor="middle" x="319.59" y="-506.69" font-family="Helvetica,sans-Serif" font-size="14.00">Is PC required?</text>
</g>
<!-- IvsLam_temp&#45;&gt;checkPolarizationCor -->
<g id="edge19" class="edge">
<title>IvsLam_temp&#45;&gt;checkPolarizationCor</title>
<path fill="none" stroke="black" d="M319.59,-565.21C319.59,-557.62 319.59,-548.5 319.59,-539.93"/>
<polygon fill="black" stroke="black" points="323.09,-539.94 319.59,-529.94 316.09,-539.94 323.09,-539.94"/>
</g>
<!-- IvsQ_0 -->
<g id="node7" class="node">
<title>IvsQ_0</title>
<ellipse fill="khaki" stroke="black" cx="401.59" cy="-729.39" rx="92.08" ry="18"/>
<text text-anchor="middle" x="401.59" y="-725.69" font-family="Helvetica,sans-Serif" font-size="14.00">OutputWorkspace</text>
</g>
<!-- groupIvsQ -->
<g id="node16" class="node">
<title>groupIvsQ</title>
<path fill="lightskyblue" stroke="black" d="M647.09,-674.39C647.09,-674.39 528.09,-674.39 528.09,-674.39 522.09,-674.39 516.09,-668.39 516.09,-662.39 516.09,-662.39 516.09,-650.39 516.09,-650.39 516.09,-644.39 522.09,-638.39 528.09,-638.39 528.09,-638.39 647.09,-638.39 647.09,-638.39 653.09,-638.39 659.09,-644.39 659.09,-650.39 659.09,-650.39 659.09,-662.39 659.09,-662.39 659.09,-668.39 653.09,-674.39 647.09,-674.39"/>
<text text-anchor="middle" x="587.59" y="-652.69" font-family="Helvetica,sans-Serif" font-size="14.00">GroupWorkspaces</text>
</g>
<!-- IvsQ_0&#45;&gt;groupIvsQ -->
<g id="edge13" class="edge">
<title>IvsQ_0&#45;&gt;groupIvsQ</title>
<path fill="none" stroke="black" d="M442.41,-712.81C468.48,-702.86 502.65,-689.82 531.29,-678.88"/>
<polygon fill="black" stroke="black" points="532.46,-682.18 540.55,-675.35 529.96,-675.64 532.46,-682.18"/>
</g>
<!-- IvsQ_1 -->
<g id="node8" class="node">
<title>IvsQ_1</title>
<ellipse fill="khaki" stroke="black" cx="913.59" cy="-729.39" rx="92.08" ry="18"/>
<text text-anchor="middle" x="913.59" y="-725.69" font-family="Helvetica,sans-Serif" font-size="14.00">OutputWorkspace</text>
</g>
<!-- IvsQ_1&#45;&gt;groupIvsQ -->
<g id="edge14" class="edge">
<title>IvsQ_1&#45;&gt;groupIvsQ</title>
<path fill="none" stroke="black" d="M853.79,-715.37C802.44,-704.19 727.87,-687.95 670.71,-675.5"/>
<polygon fill="black" stroke="black" points="671.51,-672.09 661,-673.38 670.03,-678.93 671.51,-672.09"/>
</g>
<!-- IvsQ_temp -->
<g id="node9" class="node">
<title>IvsQ_temp</title>
<ellipse fill="khaki" stroke="black" cx="587.59" cy="-583.39" rx="92.08" ry="18"/>
<text text-anchor="middle" x="587.59" y="-579.69" font-family="Helvetica,sans-Serif" font-size="14.00">OutputWorkspace</text>
</g>
<!-- IvsLam_final -->
<g id="node10" class="node">
<title>IvsLam_final</title>
<ellipse fill="khaki" stroke="black" cx="252.59" cy="-324" rx="145.67" ry="18"/>
<text text-anchor="middle" x="252.59" y="-320.3" font-family="Helvetica,sans-Serif" font-size="14.00">OutputWorkspaceWavelength</text>
</g>
<!-- reflRedOne_2 -->
<g id="node19" class="node">
<title>reflRedOne_2</title>
<path fill="lightskyblue" stroke="black" d="M232.59,-255C232.59,-255 44.59,-255 44.59,-255 38.59,-255 32.59,-249 32.59,-243 32.59,-243 32.59,-231 32.59,-231 32.59,-225 38.59,-219 44.59,-219 44.59,-219 232.59,-219 232.59,-219 238.59,-219 244.59,-225 244.59,-231 244.59,-231 244.59,-243 244.59,-243 244.59,-249 238.59,-255 232.59,-255"/>
<text text-anchor="middle" x="138.59" y="-233.3" font-family="Helvetica,sans-Serif" font-size="14.00">ReflectometryReductionOne</text>
</g>
<!-- IvsLam_final&#45;&gt;reflRedOne_2 -->
<g id="edge23" class="edge">
<title>IvsLam_final&#45;&gt;reflRedOne_2</title>
<path fill="none" stroke="black" d="M229.52,-305.8C212.71,-293.27 189.71,-276.12 171.05,-262.2"/>
<polygon fill="black" stroke="black" points="173.34,-259.54 163.23,-256.37 169.15,-265.16 173.34,-259.54"/>
<text text-anchor="middle" x="212.59" y="-276.8" font-family="Helvetica,sans-Serif" font-size="14.00">[0]</text>
</g>
<!-- reflRedOne_3 -->
<g id="node20" class="node">
<title>reflRedOne_3</title>
<path fill="lightskyblue" stroke="black" d="M462.59,-255C462.59,-255 274.59,-255 274.59,-255 268.59,-255 262.59,-249 262.59,-243 262.59,-243 262.59,-231 262.59,-231 262.59,-225 268.59,-219 274.59,-219 274.59,-219 462.59,-219 462.59,-219 468.59,-219 474.59,-225 474.59,-231 474.59,-231 474.59,-243 474.59,-243 474.59,-249 468.59,-255 462.59,-255"/>
<text text-anchor="middle" x="368.59" y="-233.3" font-family="Helvetica,sans-Serif" font-size="14.00">ReflectometryReductionOne</text>
</g>
<!-- IvsLam_final&#45;&gt;reflRedOne_3 -->
<g id="edge24" class="edge">
<title>IvsLam_final&#45;&gt;reflRedOne_3</title>
<path fill="none" stroke="black" d="M276.06,-305.8C293.16,-293.27 316.57,-276.12 335.55,-262.2"/>
<polygon fill="black" stroke="black" points="337.53,-265.1 343.53,-256.36 333.39,-259.45 337.53,-265.1"/>
<text text-anchor="middle" x="327.59" y="-276.8" font-family="Helvetica,sans-Serif" font-size="14.00">[1]</text>
</g>
<!-- IvsQ_2 -->
<g id="node11" class="node">
<title>IvsQ_2</title>
<ellipse fill="khaki" stroke="black" cx="158.59" cy="-164" rx="92.08" ry="18"/>
<text text-anchor="middle" x="158.59" y="-160.3" font-family="Helvetica,sans-Serif" font-size="14.00">OutputWorkspace</text>
</g>
<!-- groupFinal -->
<g id="node21" class="node">
<title>groupFinal</title>
<path fill="lightskyblue" stroke="black" d="M319.09,-109C319.09,-109 200.09,-109 200.09,-109 194.09,-109 188.09,-103 188.09,-97 188.09,-97 188.09,-85 188.09,-85 188.09,-79 194.09,-73 200.09,-73 200.09,-73 319.09,-73 319.09,-73 325.09,-73 331.09,-79 331.09,-85 331.09,-85 331.09,-97 331.09,-97 331.09,-103 325.09,-109 319.09,-109"/>
<text text-anchor="middle" x="259.59" y="-87.3" font-family="Helvetica,sans-Serif" font-size="14.00">GroupWorkspaces</text>
</g>
<!-- IvsQ_2&#45;&gt;groupFinal -->
<g id="edge27" class="edge">
<title>IvsQ_2&#45;&gt;groupFinal</title>
<path fill="none" stroke="black" d="M182.52,-146.17C195.32,-137.18 211.3,-125.95 225.38,-116.04"/>
<polygon fill="black" stroke="black" points="227.36,-118.93 233.53,-110.32 223.34,-113.2 227.36,-118.93"/>
</g>
<!-- IvsQ_3 -->
<g id="node12" class="node">
<title>IvsQ_3</title>
<ellipse fill="khaki" stroke="black" cx="364.59" cy="-164" rx="92.08" ry="18"/>
<text text-anchor="middle" x="364.59" y="-160.3" font-family="Helvetica,sans-Serif" font-size="14.00">OutputWorkspace</text>
</g>
<!-- IvsQ_3&#45;&gt;groupFinal -->
<g id="edge28" class="edge">
<title>IvsQ_3&#45;&gt;groupFinal</title>
<path fill="none" stroke="black" d="M339.97,-146.35C326.44,-137.21 309.44,-125.71 294.56,-115.65"/>
<polygon fill="black" stroke="black" points="296.65,-112.83 286.4,-110.13 292.72,-118.63 296.65,-112.83"/>
</g>
<!-- IvsQ_final -->
<g id="node13" class="node">
<title>IvsQ_final</title>
<ellipse fill="khaki" stroke="black" cx="259.59" cy="-18" rx="92.08" ry="18"/>
<text text-anchor="middle" x="259.59" y="-14.3" font-family="Helvetica,sans-Serif" font-size="14.00">OutputWorkspace</text>
</g>
<!-- reflRedOne_0 -->
<g id="node14" class="node">
<title>reflRedOne_0</title>
<path fill="lightskyblue" stroke="black" d="M511.59,-820.39C511.59,-820.39 323.59,-820.39 323.59,-820.39 317.59,-820.39 311.59,-814.39 311.59,-808.39 311.59,-808.39 311.59,-796.39 311.59,-796.39 311.59,-790.39 317.59,-784.39 323.59,-784.39 323.59,-784.39 511.59,-784.39 511.59,-784.39 517.59,-784.39 523.59,-790.39 523.59,-796.39 523.59,-796.39 523.59,-808.39 523.59,-808.39 523.59,-814.39 517.59,-820.39 511.59,-820.39"/>
<text text-anchor="middle" x="417.59" y="-798.69" font-family="Helvetica,sans-Serif" font-size="14.00">ReflectometryReductionOne</text>
</g>
<!-- reflRedOne_0&#45;&gt;IvsLam_0 -->
<g id="edge9" class="edge">
<title>reflRedOne_0&#45;&gt;IvsLam_0</title>
<path fill="none" stroke="black" d="M350.7,-783.93C310.21,-773.37 258.59,-759.89 217.27,-749.11"/>
<polygon fill="black" stroke="black" points="218.2,-745.73 207.64,-746.59 216.43,-752.5 218.2,-745.73"/>
</g>
<!-- reflRedOne_0&#45;&gt;IvsQ_0 -->
<g id="edge10" class="edge">
<title>reflRedOne_0&#45;&gt;IvsQ_0</title>
<path fill="none" stroke="black" d="M413.71,-784.21C411.98,-776.53 409.9,-767.29 407.95,-758.64"/>
<polygon fill="black" stroke="black" points="411.37,-757.89 405.76,-748.9 404.54,-759.42 411.37,-757.89"/>
</g>
<!-- reflRedOne_1 -->
<g id="node15" class="node">
<title>reflRedOne_1</title>
<path fill="lightskyblue" stroke="black" d="M747.59,-820.39C747.59,-820.39 559.59,-820.39 559.59,-820.39 553.59,-820.39 547.59,-814.39 547.59,-808.39 547.59,-808.39 547.59,-796.39 547.59,-796.39 547.59,-790.39 553.59,-784.39 559.59,-784.39 559.59,-784.39 747.59,-784.39 747.59,-784.39 753.59,-784.39 759.59,-790.39 759.59,-796.39 759.59,-796.39 759.59,-808.39 759.59,-808.39 759.59,-814.39 753.59,-820.39 747.59,-820.39"/>
<text text-anchor="middle" x="653.59" y="-798.69" font-family="Helvetica,sans-Serif" font-size="14.00">ReflectometryReductionOne</text>
</g>
<!-- reflRedOne_1&#45;&gt;IvsLam_1 -->
<g id="edge11" class="edge">
<title>reflRedOne_1&#45;&gt;IvsLam_1</title>
<path fill="none" stroke="black" d="M654.56,-784.21C654.99,-776.53 655.51,-767.29 656,-758.64"/>
<polygon fill="black" stroke="black" points="659.47,-759.12 656.54,-748.93 652.49,-758.72 659.47,-759.12"/>
</g>
<!-- reflRedOne_1&#45;&gt;IvsQ_1 -->
<g id="edge12" class="edge">
<title>reflRedOne_1&#45;&gt;IvsQ_1</title>
<path fill="none" stroke="black" d="M717.52,-783.93C758.07,-772.86 810.29,-758.6 850.64,-747.58"/>
<polygon fill="black" stroke="black" points="851.5,-750.98 860.23,-744.97 849.66,-744.22 851.5,-750.98"/>
</g>
<!-- groupIvsQ&#45;&gt;IvsQ_temp -->
<g id="edge15" class="edge">
<title>groupIvsQ&#45;&gt;IvsQ_temp</title>
<path fill="none" stroke="black" d="M587.59,-638.21C587.59,-630.62 587.59,-621.5 587.59,-612.93"/>
<polygon fill="black" stroke="black" points="591.09,-612.94 587.59,-602.94 584.09,-612.94 591.09,-612.94"/>
</g>
<!-- groupIvsLam&#45;&gt;IvsLam_temp -->
<g id="edge18" class="edge">
<title>groupIvsLam&#45;&gt;IvsLam_temp</title>
<path fill="none" stroke="black" d="M319.59,-638.21C319.59,-630.62 319.59,-621.5 319.59,-612.93"/>
<polygon fill="black" stroke="black" points="323.09,-612.94 319.59,-602.94 316.09,-612.94 323.09,-612.94"/>
</g>
<!-- polCorr -->
<g id="node18" class="node">
<title>polCorr</title>
<path fill="lightskyblue" stroke="black" d="M324.59,-428.2C324.59,-428.2 180.59,-428.2 180.59,-428.2 174.59,-428.2 168.59,-422.2 168.59,-416.2 168.59,-416.2 168.59,-404.2 168.59,-404.2 168.59,-398.2 174.59,-392.2 180.59,-392.2 180.59,-392.2 324.59,-392.2 324.59,-392.2 330.59,-392.2 336.59,-398.2 336.59,-404.2 336.59,-404.2 336.59,-416.2 336.59,-416.2 336.59,-422.2 330.59,-428.2 324.59,-428.2"/>
<text text-anchor="middle" x="252.59" y="-406.5" font-family="Helvetica,sans-Serif" font-size="14.00">PolarizationCorrection</text>
</g>
<!-- polCorr&#45;&gt;IvsLam_final -->
<g id="edge22" class="edge">
<title>polCorr&#45;&gt;IvsLam_final</title>
<path fill="none" stroke="black" d="M252.59,-391.75C252.59,-380.8 252.59,-366.41 252.59,-353.8"/>
<polygon fill="black" stroke="black" points="256.09,-353.94 252.59,-343.94 249.09,-353.94 256.09,-353.94"/>
</g>
<!-- reflRedOne_2&#45;&gt;IvsQ_2 -->
<g id="edge25" class="edge">
<title>reflRedOne_2&#45;&gt;IvsQ_2</title>
<path fill="none" stroke="black" d="M143.43,-218.81C145.61,-211.05 148.25,-201.68 150.71,-192.95"/>
<polygon fill="black" stroke="black" points="154.04,-194.06 153.38,-183.49 147.3,-192.16 154.04,-194.06"/>
</g>
<!-- reflRedOne_3&#45;&gt;IvsQ_3 -->
<g id="edge26" class="edge">
<title>reflRedOne_3&#45;&gt;IvsQ_3</title>
<path fill="none" stroke="black" d="M367.62,-218.81C367.19,-211.14 366.67,-201.89 366.18,-193.24"/>
<polygon fill="black" stroke="black" points="369.69,-193.33 365.63,-183.54 362.7,-193.72 369.69,-193.33"/>
</g>
<!-- groupFinal&#45;&gt;IvsQ_final -->
<g id="edge29" class="edge">
<title>groupFinal&#45;&gt;IvsQ_final</title>
<path fill="none" stroke="black" d="M259.59,-72.81C259.59,-65.23 259.59,-56.1 259.59,-47.54"/>
<polygon fill="black" stroke="black" points="263.09,-47.54 259.59,-37.54 256.09,-47.54 263.09,-47.54"/>
</g>
<!-- applyFloodI&#45;&gt;reflRedOne_0 -->
<g id="edge4" class="edge">
<title>applyFloodI&#45;&gt;reflRedOne_0</title>
<path fill="none" stroke="black" d="M417.59,-871.19C417.59,-859.98 417.59,-845.06 417.59,-832.08"/>
<polygon fill="black" stroke="black" points="421.09,-832.38 417.59,-822.38 414.09,-832.38 421.09,-832.38"/>
<text text-anchor="middle" x="427.59" y="-842.19" font-family="Helvetica,sans-Serif" font-size="14.00">[0]</text>
</g>
<!-- applyFloodI&#45;&gt;reflRedOne_1 -->
<g id="edge5" class="edge">
<title>applyFloodI&#45;&gt;reflRedOne_1</title>
<path fill="none" stroke="black" d="M465.91,-870.99C503.22,-857.55 555,-838.9 594.72,-824.6"/>
<polygon fill="black" stroke="black" points="595.68,-827.97 603.9,-821.29 593.31,-821.39 595.68,-827.97"/>
<text text-anchor="middle" x="559.59" y="-842.19" font-family="Helvetica,sans-Serif" font-size="14.00">[1]</text>
</g>
<!-- applyFloodT&#45;&gt;reflRedOne_0 -->
<g id="edge7" class="edge">
<title>applyFloodT&#45;&gt;reflRedOne_0</title>
<path fill="none" stroke="black" d="M582.96,-871.09C568.34,-860.53 548.57,-847.39 529.59,-838.39 518.66,-833.22 506.79,-828.56 494.98,-824.46"/>
<polygon fill="black" stroke="black" points="496.23,-821.19 485.63,-821.34 494.01,-827.83 496.23,-821.19"/>
</g>
<!-- applyFloodT&#45;&gt;reflRedOne_1 -->
<g id="edge8" class="edge">
<title>applyFloodT&#45;&gt;reflRedOne_1</title>
<path fill="none" stroke="black" d="M615.3,-871.19C621.89,-859.52 630.75,-843.84 638.28,-830.5"/>
<polygon fill="black" stroke="black" points="641.11,-832.61 642.98,-822.18 635.01,-829.17 641.11,-832.61"/>
</g>
<!-- checkPolarizationCor&#45;&gt;polCorr -->
<g id="edge20" class="edge">
<title>checkPolarizationCor&#45;&gt;polCorr</title>
<path fill="none" stroke="black" d="M309.12,-494.05C298.87,-479.03 283.05,-455.84 270.75,-437.82"/>
<polygon fill="black" stroke="black" points="273.71,-435.95 265.19,-429.66 267.93,-439.9 273.71,-435.95"/>
<text text-anchor="middle" x="306.09" y="-463.19" font-family="Helvetica,sans-Serif" font-size="14.00">Yes</text>
</g>
<!-- stop -->
<g id="node25" class="node">
<title>stop</title>
<ellipse fill="none" stroke="black" cx="385.59" cy="-410.2" rx="31.4" ry="31.4"/>
<text text-anchor="middle" x="385.59" y="-406.5" font-family="Helvetica,sans-Serif" font-size="14.00">Stop</text>
</g>
<!-- checkPolarizationCor&#45;&gt;stop -->
<g id="edge21" class="edge">
<title>checkPolarizationCor&#45;&gt;stop</title>
<path fill="none" stroke="black" d="M330.19,-493.62C338.78,-480.84 351.2,-462.35 362.11,-446.13"/>
<polygon fill="black" stroke="black" points="364.8,-448.4 367.47,-438.15 358.99,-444.5 364.8,-448.4"/>
<text text-anchor="middle" x="362.09" y="-463.19" font-family="Helvetica,sans-Serif" font-size="14.00">No</text>
</g>
</g>
</svg>
