<?xml version="1.0" encoding="UTF-8" standalone="no"?>
<!DOCTYPE svg PUBLIC "-//W3C//DTD SVG 1.1//EN"
 "http://www.w3.org/Graphics/SVG/1.1/DTD/svg11.dtd">
<!-- Generated by graphviz version 2.47.2 (20210527.1257)
 -->
<!-- Title: ResNorm2 Pages: 1 -->
<svg width="907pt" height="606pt"
 viewBox="0.00 0.00 906.86 606.00" xmlns="http://www.w3.org/2000/svg" xmlns:xlink="http://www.w3.org/1999/xlink">
<g id="graph0" class="graph" transform="scale(1 1) rotate(0) translate(4 602)">
<title>ResNorm2</title>
<polygon fill="white" stroke="transparent" points="-4,4 -4,-602 902.86,-602 902.86,4 -4,4"/>
<text text-anchor="middle" x="449.43" y="-582.8" font-family="Helvetica" font-size="14.00">ResNorm v2 Flowchart</text>
<!-- ExtractStretch -->
<g id="node1" class="node">
<title>ExtractStretch</title>
<polygon fill="lightseagreen" stroke="black" points="310.8,-255 97.8,-255 97.8,-219 310.8,-219 310.8,-255"/>
<text text-anchor="middle" x="204.3" y="-233.3" font-family="Helvetica" font-size="14.00">Extract stretch factors (XScaling)</text>
</g>
<!-- CreateWorkspace_Stretch -->
<g id="node14" class="node">
<title>CreateWorkspace_Stretch</title>
<path fill="lightskyblue" stroke="black" d="M317.8,-182C317.8,-182 216.8,-182 216.8,-182 210.8,-182 204.8,-176 204.8,-170 204.8,-170 204.8,-158 204.8,-158 204.8,-152 210.8,-146 216.8,-146 216.8,-146 317.8,-146 317.8,-146 323.8,-146 329.8,-152 329.8,-158 329.8,-158 329.8,-170 329.8,-170 329.8,-176 323.8,-182 317.8,-182"/>
<text text-anchor="middle" x="267.3" y="-160.3" font-family="Helvetica" font-size="14.00">CreateWorkspace</text>
</g>
<!-- ExtractStretch&#45;&gt;CreateWorkspace_Stretch -->
<g id="edge12" class="edge">
<title>ExtractStretch&#45;&gt;CreateWorkspace_Stretch</title>
<path fill="none" stroke="black" d="M219.55,-218.81C227.28,-210.09 236.82,-199.34 245.34,-189.75"/>
<polygon fill="black" stroke="black" points="248.17,-191.83 252.19,-182.03 242.93,-187.19 248.17,-191.83"/>
</g>
<!-- ExtractScaling -->
<g id="node2" class="node">
<title>ExtractScaling</title>
<polygon fill="lightseagreen" stroke="black" points="535.3,-255 329.3,-255 329.3,-219 535.3,-219 535.3,-255"/>
<text text-anchor="middle" x="432.3" y="-233.3" font-family="Helvetica" font-size="14.00">Extract scaling factors (Scaling)</text>
</g>
<!-- CreateWorkspace_Scaling -->
<g id="node15" class="node">
<title>CreateWorkspace_Scaling</title>
<path fill="lightskyblue" stroke="black" d="M471.8,-182C471.8,-182 370.8,-182 370.8,-182 364.8,-182 358.8,-176 358.8,-170 358.8,-170 358.8,-158 358.8,-158 358.8,-152 364.8,-146 370.8,-146 370.8,-146 471.8,-146 471.8,-146 477.8,-146 483.8,-152 483.8,-158 483.8,-158 483.8,-170 483.8,-170 483.8,-176 477.8,-182 471.8,-182"/>
<text text-anchor="middle" x="421.3" y="-160.3" font-family="Helvetica" font-size="14.00">CreateWorkspace</text>
</g>
<!-- ExtractScaling&#45;&gt;CreateWorkspace_Scaling -->
<g id="edge15" class="edge">
<title>ExtractScaling&#45;&gt;CreateWorkspace_Scaling</title>
<path fill="none" stroke="black" d="M429.63,-218.81C428.39,-210.79 426.88,-201.05 425.49,-192.07"/>
<polygon fill="black" stroke="black" points="428.92,-191.38 423.93,-182.03 422.01,-192.45 428.92,-191.38"/>
</g>
<!-- ResolutionWorkspace -->
<g id="node3" class="node">
<title>ResolutionWorkspace</title>
<ellipse fill="khaki" stroke="black" cx="439.3" cy="-557" rx="96.38" ry="18"/>
<text text-anchor="middle" x="439.3" y="-553.3" font-family="Helvetica" font-size="14.00">ResolutionWorkspace</text>
</g>
<!-- NormaliseToUnity -->
<g id="node9" class="node">
<title>NormaliseToUnity</title>
<path fill="lightskyblue" stroke="black" d="M490.8,-488C490.8,-488 391.8,-488 391.8,-488 385.8,-488 379.8,-482 379.8,-476 379.8,-476 379.8,-464 379.8,-464 379.8,-458 385.8,-452 391.8,-452 391.8,-452 490.8,-452 490.8,-452 496.8,-452 502.8,-458 502.8,-464 502.8,-464 502.8,-476 502.8,-476 502.8,-482 496.8,-488 490.8,-488"/>
<text text-anchor="middle" x="441.3" y="-466.3" font-family="Helvetica" font-size="14.00">NormaliseToUnity</text>
</g>
<!-- ResolutionWorkspace&#45;&gt;NormaliseToUnity -->
<g id="edge3" class="edge">
<title>ResolutionWorkspace&#45;&gt;NormaliseToUnity</title>
<path fill="none" stroke="black" d="M439.7,-538.8C439.97,-527.16 440.34,-511.55 440.65,-498.24"/>
<polygon fill="black" stroke="black" points="444.15,-498.26 440.89,-488.18 437.16,-498.09 444.15,-498.26"/>
</g>
<!-- VanadiumWorkspace -->
<g id="node4" class="node">
<title>VanadiumWorkspace</title>
<ellipse fill="khaki" stroke="black" cx="647.3" cy="-557" rx="94.48" ry="18"/>
<text text-anchor="middle" x="647.3" y="-553.3" font-family="Helvetica" font-size="14.00">VanadiumWorkspace</text>
</g>
<!-- ConvertSpectrumAxis -->
<g id="node13" class="node">
<title>ConvertSpectrumAxis</title>
<path fill="lightskyblue" stroke="black" d="M709.3,-488C709.3,-488 585.3,-488 585.3,-488 579.3,-488 573.3,-482 573.3,-476 573.3,-476 573.3,-464 573.3,-464 573.3,-458 579.3,-452 585.3,-452 585.3,-452 709.3,-452 709.3,-452 715.3,-452 721.3,-458 721.3,-464 721.3,-464 721.3,-476 721.3,-476 721.3,-482 715.3,-488 709.3,-488"/>
<text text-anchor="middle" x="647.3" y="-466.3" font-family="Helvetica" font-size="14.00">ConvertSpectrumAxis</text>
</g>
<!-- VanadiumWorkspace&#45;&gt;ConvertSpectrumAxis -->
<g id="edge1" class="edge">
<title>VanadiumWorkspace&#45;&gt;ConvertSpectrumAxis</title>
<path fill="none" stroke="black" d="M647.3,-538.8C647.3,-527.16 647.3,-511.55 647.3,-498.24"/>
<polygon fill="black" stroke="black" points="650.8,-498.18 647.3,-488.18 643.8,-498.18 650.8,-498.18"/>
</g>
<!-- EnergyMin -->
<g id="node5" class="node">
<title>EnergyMin</title>
<ellipse fill="khaki" stroke="black" cx="53.3" cy="-397" rx="53.09" ry="18"/>
<text text-anchor="middle" x="53.3" y="-393.3" font-family="Helvetica" font-size="14.00">EnergyMin</text>
</g>
<!-- PlotPeakByLogValue -->
<g id="node12" class="node">
<title>PlotPeakByLogValue</title>
<path fill="lightskyblue" stroke="black" d="M377.8,-342C377.8,-342 258.8,-342 258.8,-342 252.8,-342 246.8,-336 246.8,-330 246.8,-330 246.8,-318 246.8,-318 246.8,-312 252.8,-306 258.8,-306 258.8,-306 377.8,-306 377.8,-306 383.8,-306 389.8,-312 389.8,-318 389.8,-318 389.8,-330 389.8,-330 389.8,-336 383.8,-342 377.8,-342"/>
<text text-anchor="middle" x="318.3" y="-320.3" font-family="Helvetica" font-size="14.00">PlotPeakByLogValue</text>
</g>
<!-- EnergyMin&#45;&gt;PlotPeakByLogValue -->
<g id="edge8" class="edge">
<title>EnergyMin&#45;&gt;PlotPeakByLogValue</title>
<path fill="none" stroke="black" d="M93.31,-384.98C100.62,-382.98 108.18,-380.92 115.3,-379 157.79,-367.52 205.35,-354.86 243.74,-344.69"/>
<polygon fill="black" stroke="black" points="245.04,-347.96 253.81,-342.02 243.24,-341.2 245.04,-347.96"/>
</g>
<!-- EnergyMax -->
<g id="node6" class="node">
<title>EnergyMax</title>
<ellipse fill="khaki" stroke="black" cx="180.3" cy="-397" rx="55.79" ry="18"/>
<text text-anchor="middle" x="180.3" y="-393.3" font-family="Helvetica" font-size="14.00">EnergyMax</text>
</g>
<!-- EnergyMax&#45;&gt;PlotPeakByLogValue -->
<g id="edge9" class="edge">
<title>EnergyMax&#45;&gt;PlotPeakByLogValue</title>
<path fill="none" stroke="black" d="M208.55,-381.46C228.01,-371.45 254.2,-357.97 276.12,-346.7"/>
<polygon fill="black" stroke="black" points="277.93,-349.71 285.22,-342.02 274.72,-343.48 277.93,-349.71"/>
</g>
<!-- CreateOutput -->
<g id="node7" class="node">
<title>CreateOutput</title>
<ellipse fill="khaki" stroke="black" cx="318.3" cy="-397" rx="63.89" ry="18"/>
<text text-anchor="middle" x="318.3" y="-393.3" font-family="Helvetica" font-size="14.00">CreateOutput</text>
</g>
<!-- CreateOutput&#45;&gt;PlotPeakByLogValue -->
<g id="edge10" class="edge">
<title>CreateOutput&#45;&gt;PlotPeakByLogValue</title>
<path fill="none" stroke="black" d="M318.3,-378.81C318.3,-370.79 318.3,-361.05 318.3,-352.07"/>
<polygon fill="black" stroke="black" points="321.8,-352.03 318.3,-342.03 314.8,-352.03 321.8,-352.03"/>
</g>
<!-- OutputWorkspace -->
<g id="node8" class="node">
<title>OutputWorkspace</title>
<ellipse fill="khaki" stroke="black" cx="338.3" cy="-18" rx="81.49" ry="18"/>
<text text-anchor="middle" x="338.3" y="-14.3" font-family="Helvetica" font-size="14.00">OutputWorkspace</text>
</g>
<!-- AppendSpectra -->
<g id="node10" class="node">
<title>AppendSpectra</title>
<path fill="lightskyblue" stroke="black" d="M498.3,-415C498.3,-415 412.3,-415 412.3,-415 406.3,-415 400.3,-409 400.3,-403 400.3,-403 400.3,-391 400.3,-391 400.3,-385 406.3,-379 412.3,-379 412.3,-379 498.3,-379 498.3,-379 504.3,-379 510.3,-385 510.3,-391 510.3,-391 510.3,-403 510.3,-403 510.3,-409 504.3,-415 498.3,-415"/>
<text text-anchor="middle" x="455.3" y="-393.3" font-family="Helvetica" font-size="14.00">AppendSpectra</text>
</g>
<!-- NormaliseToUnity&#45;&gt;AppendSpectra -->
<g id="edge4" class="edge">
<title>NormaliseToUnity&#45;&gt;AppendSpectra</title>
<path fill="none" stroke="black" d="M444.68,-451.81C446.27,-443.79 448.19,-434.05 449.96,-425.07"/>
<polygon fill="black" stroke="black" points="453.44,-425.52 451.94,-415.03 446.57,-424.16 453.44,-425.52"/>
</g>
<!-- AppendSpectra&#45;&gt;PlotPeakByLogValue -->
<g id="edge5" class="edge">
<title>AppendSpectra&#45;&gt;PlotPeakByLogValue</title>
<path fill="none" stroke="black" d="M422.48,-378.99C403.81,-369.32 380.23,-357.1 360.23,-346.73"/>
<polygon fill="black" stroke="black" points="361.81,-343.61 351.32,-342.11 358.59,-349.82 361.81,-343.61"/>
</g>
<!-- GroupWorkspaces -->
<g id="node11" class="node">
<title>GroupWorkspaces</title>
<path fill="lightskyblue" stroke="black" d="M390.8,-109C390.8,-109 285.8,-109 285.8,-109 279.8,-109 273.8,-103 273.8,-97 273.8,-97 273.8,-85 273.8,-85 273.8,-79 279.8,-73 285.8,-73 285.8,-73 390.8,-73 390.8,-73 396.8,-73 402.8,-79 402.8,-85 402.8,-85 402.8,-97 402.8,-97 402.8,-103 396.8,-109 390.8,-109"/>
<text text-anchor="middle" x="338.3" y="-87.3" font-family="Helvetica" font-size="14.00">GroupWorkspaces</text>
</g>
<!-- GroupWorkspaces&#45;&gt;OutputWorkspace -->
<g id="edge17" class="edge">
<title>GroupWorkspaces&#45;&gt;OutputWorkspace</title>
<path fill="none" stroke="black" d="M338.3,-72.81C338.3,-64.79 338.3,-55.05 338.3,-46.07"/>
<polygon fill="black" stroke="black" points="341.8,-46.03 338.3,-36.03 334.8,-46.03 341.8,-46.03"/>
</g>
<!-- PlotPeakByLogValue&#45;&gt;ExtractStretch -->
<g id="edge11" class="edge">
<title>PlotPeakByLogValue&#45;&gt;ExtractStretch</title>
<path fill="none" stroke="black" d="M295.23,-305.8C278,-292.95 254.27,-275.26 235.37,-261.17"/>
<polygon fill="black" stroke="black" points="237.44,-258.35 227.33,-255.18 233.26,-263.96 237.44,-258.35"/>
<text text-anchor="middle" x="303.8" y="-276.8" font-family="Helvetica" font-size="14.00">Parameters</text>
</g>
<!-- PlotPeakByLogValue&#45;&gt;ExtractScaling -->
<g id="edge14" class="edge">
<title>PlotPeakByLogValue&#45;&gt;ExtractScaling</title>
<path fill="none" stroke="black" d="M341.36,-305.8C358.59,-292.95 382.33,-275.26 401.22,-261.17"/>
<polygon fill="black" stroke="black" points="403.34,-263.96 409.26,-255.18 399.15,-258.35 403.34,-263.96"/>
<text text-anchor="middle" x="417.8" y="-276.8" font-family="Helvetica" font-size="14.00">Parameters</text>
</g>
<!-- FitFunction -->
<g id="node16" class="node">
<title>FitFunction</title>
<polygon fill="grey" stroke="black" points="732.76,-415 587.26,-415 549.83,-379 695.33,-379 732.76,-415"/>
<text text-anchor="middle" x="641.3" y="-393.3" font-family="Times-Roman" font-size="14.00">Fit Function</text>
</g>
<!-- ConvertSpectrumAxis&#45;&gt;FitFunction -->
<g id="edge6" class="edge">
<title>ConvertSpectrumAxis&#45;&gt;FitFunction</title>
<path fill="none" stroke="black" d="M645.84,-451.81C645.16,-443.79 644.34,-434.05 643.58,-425.07"/>
<polygon fill="black" stroke="black" points="647.06,-424.7 642.73,-415.03 640.09,-425.29 647.06,-424.7"/>
</g>
<!-- CreateWorkspace_Stretch&#45;&gt;GroupWorkspaces -->
<g id="edge13" class="edge">
<title>CreateWorkspace_Stretch&#45;&gt;GroupWorkspaces</title>
<path fill="none" stroke="black" d="M284.48,-145.81C293.38,-136.92 304.39,-125.91 314.12,-116.17"/>
<polygon fill="black" stroke="black" points="316.67,-118.57 321.27,-109.03 311.72,-113.63 316.67,-118.57"/>
</g>
<!-- CreateWorkspace_Scaling&#45;&gt;GroupWorkspaces -->
<g id="edge16" class="edge">
<title>CreateWorkspace_Scaling&#45;&gt;GroupWorkspaces</title>
<path fill="none" stroke="black" d="M401.2,-145.81C390.6,-136.74 377.43,-125.48 365.88,-115.6"/>
<polygon fill="black" stroke="black" points="368.08,-112.87 358.2,-109.03 363.53,-118.19 368.08,-112.87"/>
</g>
<!-- FitFunction&#45;&gt;PlotPeakByLogValue -->
<g id="edge7" class="edge">
<title>FitFunction&#45;&gt;PlotPeakByLogValue</title>
<path fill="none" stroke="black" d="M563.93,-378.99C514.41,-368.11 450.26,-354.01 399.93,-342.94"/>
<polygon fill="black" stroke="black" points="400.57,-339.5 390.06,-340.77 399.07,-346.34 400.57,-339.5"/>
</g>
<!-- ConvertSpectrumAxis_Target -->
<g id="node17" class="node">
<title>ConvertSpectrumAxis_Target</title>
<polygon fill="grey" stroke="black" points="898.92,-575 788.16,-575 759.67,-539 870.43,-539 898.92,-575"/>
<text text-anchor="middle" x="829.3" y="-553.3" font-family="Times-Roman" font-size="14.00">ElasticQ</text>
</g>
<!-- ConvertSpectrumAxis_Target&#45;&gt;ConvertSpectrumAxis -->
<g id="edge2" class="edge">
<title>ConvertSpectrumAxis_Target&#45;&gt;ConvertSpectrumAxis</title>
<path fill="none" stroke="black" d="M792.46,-538.8C763.75,-525.39 723.73,-506.7 692.98,-492.34"/>
<polygon fill="black" stroke="black" points="694.3,-489.09 683.76,-488.03 691.34,-495.43 694.3,-489.09"/>
<text text-anchor="middle" x="768.3" y="-509.8" font-family="Helvetica" font-size="14.00">Target</text>
</g>
</g>
</svg>
