<?xml version="1.0" encoding="UTF-8" standalone="no"?>
<!DOCTYPE svg PUBLIC "-//W3C//DTD SVG 1.1//EN"
 "http://www.w3.org/Graphics/SVG/1.1/DTD/svg11.dtd">
<!-- Generated by graphviz version 7.0.5 (20221231.0122)
 -->
<!-- Title: SansStitch Pages: 1 -->
<svg width="2065pt" height="987pt"
 viewBox="0.00 0.00 2065.24 987.00" xmlns="http://www.w3.org/2000/svg" xmlns:xlink="http://www.w3.org/1999/xlink">
<g id="graph0" class="graph" transform="scale(1 1) rotate(0) translate(4 983)">
<title>SansStitch</title>
<polygon fill="white" stroke="none" points="-4,4 -4,-983 2061.24,-983 2061.24,4 -4,4"/>
<text text-anchor="middle" x="1028.62" y="-963.8" font-family="Helvetica,sans-Serif" font-size="14.00">SANSStitch Flowchart</text>
<g id="clust5" class="cluster">
<title>cluster</title>
<polygon fill="none" stroke="blue" points="8,-458 8,-806 680,-806 680,-458 8,-458"/>
<text text-anchor="middle" x="344" y="-790.8" font-family="Helvetica,sans-Serif" font-size="14.00">Can Processing</text>
</g>
<!-- hABCountsSample -->
<g id="node1" class="node">
<title>hABCountsSample</title>
<ellipse fill="khaki" stroke="black" cx="1081" cy="-661" rx="95.58" ry="18"/>
<text text-anchor="middle" x="1081" y="-657.3" font-family="Helvetica,sans-Serif" font-size="14.00">HABCountsSample</text>
</g>
<!-- divideHABSample -->
<g id="node18" class="node">
<title>divideHABSample</title>
<path fill="lightskyblue" stroke="black" d="M1036,-606C1036,-606 898,-606 898,-606 892,-606 886,-600 886,-594 886,-594 886,-565 886,-565 886,-559 892,-553 898,-553 898,-553 1036,-553 1036,-553 1042,-553 1048,-559 1048,-565 1048,-565 1048,-594 1048,-594 1048,-600 1042,-606 1036,-606"/>
<text text-anchor="middle" x="967" y="-590.8" font-family="Helvetica,sans-Serif" font-size="14.00">Divide</text>
<text text-anchor="middle" x="967" y="-575.8" font-family="Helvetica,sans-Serif" font-size="14.00">HAB sample</text>
<text text-anchor="middle" x="967" y="-560.8" font-family="Helvetica,sans-Serif" font-size="14.00">counts/normalization</text>
</g>
<!-- hABCountsSample&#45;&gt;divideHABSample -->
<g id="edge16" class="edge">
<title>hABCountsSample&#45;&gt;divideHABSample</title>
<path fill="none" stroke="black" d="M1056.82,-643.14C1044.16,-634.31 1028.21,-623.19 1013.29,-612.78"/>
<polygon fill="black" stroke="black" points="1015.61,-610.13 1005.4,-607.28 1011.6,-615.87 1015.61,-610.13"/>
</g>
<!-- calculateMergedQ -->
<g id="node27" class="node">
<title>calculateMergedQ</title>
<polygon fill="lightseagreen" stroke="black" points="845.5,-269 692.5,-269 692.5,-233 845.5,-233 845.5,-269"/>
<text text-anchor="middle" x="769" y="-247.3" font-family="Helvetica,sans-Serif" font-size="14.00">Calculate Merged Q</text>
</g>
<!-- hABCountsSample&#45;&gt;calculateMergedQ -->
<g id="edge45" class="edge">
<title>hABCountsSample&#45;&gt;calculateMergedQ</title>
<path fill="none" stroke="black" d="M1109.68,-643.56C1153.6,-616.44 1228.53,-561.2 1189,-520 1155.59,-485.17 793.31,-531.36 755,-502 732.63,-484.85 736,-469.68 736,-441.5 736,-441.5 736,-441.5 736,-323 736,-307.45 742.59,-291.62 749.88,-278.86"/>
<polygon fill="black" stroke="black" points="752.68,-280.98 754.97,-270.64 746.73,-277.3 752.68,-280.98"/>
</g>
<!-- lABCountsSample -->
<g id="node2" class="node">
<title>lABCountsSample</title>
<ellipse fill="khaki" stroke="black" cx="1963" cy="-661" rx="94.48" ry="18"/>
<text text-anchor="middle" x="1963" y="-657.3" font-family="Helvetica,sans-Serif" font-size="14.00">LABCountsSample</text>
</g>
<!-- divideLABSample -->
<g id="node19" class="node">
<title>divideLABSample</title>
<path fill="lightskyblue" stroke="black" d="M1522,-606C1522,-606 1384,-606 1384,-606 1378,-606 1372,-600 1372,-594 1372,-594 1372,-565 1372,-565 1372,-559 1378,-553 1384,-553 1384,-553 1522,-553 1522,-553 1528,-553 1534,-559 1534,-565 1534,-565 1534,-594 1534,-594 1534,-600 1528,-606 1522,-606"/>
<text text-anchor="middle" x="1453" y="-590.8" font-family="Helvetica,sans-Serif" font-size="14.00">Divide</text>
<text text-anchor="middle" x="1453" y="-575.8" font-family="Helvetica,sans-Serif" font-size="14.00">LAB sample</text>
<text text-anchor="middle" x="1453" y="-560.8" font-family="Helvetica,sans-Serif" font-size="14.00">counts/normalization</text>
</g>
<!-- lABCountsSample&#45;&gt;divideLABSample -->
<g id="edge18" class="edge">
<title>lABCountsSample&#45;&gt;divideLABSample</title>
<path fill="none" stroke="black" d="M1882.42,-651.28C1801.58,-642.02 1673.69,-625.98 1564,-606 1557.98,-604.9 1551.8,-603.7 1545.57,-602.43"/>
<polygon fill="black" stroke="black" points="1546.34,-599.02 1535.84,-600.39 1544.91,-605.87 1546.34,-599.02"/>
</g>
<!-- lABCountsSample&#45;&gt;calculateMergedQ -->
<g id="edge47" class="edge">
<title>lABCountsSample&#45;&gt;calculateMergedQ</title>
<path fill="none" stroke="black" d="M1967.47,-642.76C1971.23,-626.75 1976,-602.18 1976,-580.5 1976,-580.5 1976,-580.5 1976,-323 1976,-266.94 1135.21,-255 857.11,-252.58"/>
<polygon fill="black" stroke="black" points="857.42,-249.09 847.39,-252.5 857.36,-256.09 857.42,-249.09"/>
</g>
<!-- hABNormSample -->
<g id="node3" class="node">
<title>hABNormSample</title>
<ellipse fill="khaki" stroke="black" cx="851" cy="-661" rx="89.08" ry="18"/>
<text text-anchor="middle" x="851" y="-657.3" font-family="Helvetica,sans-Serif" font-size="14.00">HABNormSample</text>
</g>
<!-- hABNormSample&#45;&gt;divideHABSample -->
<g id="edge17" class="edge">
<title>hABNormSample&#45;&gt;divideHABSample</title>
<path fill="none" stroke="black" d="M875.32,-643.33C888.3,-634.44 904.73,-623.18 920.09,-612.65"/>
<polygon fill="black" stroke="black" points="921.95,-615.62 928.22,-607.08 917.99,-609.85 921.95,-615.62"/>
</g>
<!-- hABNormSample&#45;&gt;calculateMergedQ -->
<g id="edge46" class="edge">
<title>hABNormSample&#45;&gt;calculateMergedQ</title>
<path fill="none" stroke="black" d="M821.14,-643.66C776.61,-616.86 698,-559.05 698,-485 698,-485 698,-485 698,-323 698,-303.62 711.39,-287.68 726.54,-275.85"/>
<polygon fill="black" stroke="black" points="728.27,-278.92 734.35,-270.25 724.18,-273.23 728.27,-278.92"/>
</g>
<!-- lABNormSample -->
<g id="node4" class="node">
<title>lABNormSample</title>
<ellipse fill="khaki" stroke="black" cx="1625" cy="-661" rx="87.18" ry="18"/>
<text text-anchor="middle" x="1625" y="-657.3" font-family="Helvetica,sans-Serif" font-size="14.00">LABNormSample</text>
</g>
<!-- lABNormSample&#45;&gt;divideLABSample -->
<g id="edge19" class="edge">
<title>lABNormSample&#45;&gt;divideLABSample</title>
<path fill="none" stroke="black" d="M1590.61,-644.1C1570.19,-634.67 1543.62,-622.38 1519.27,-611.13"/>
<polygon fill="black" stroke="black" points="1520.92,-608.04 1510.38,-607.02 1517.98,-614.39 1520.92,-608.04"/>
</g>
<!-- lABNormSample&#45;&gt;calculateMergedQ -->
<g id="edge48" class="edge">
<title>lABNormSample&#45;&gt;calculateMergedQ</title>
<path fill="none" stroke="black" d="M1706.85,-654.41C1795.98,-646.01 1926,-625.97 1926,-580.5 1926,-580.5 1926,-580.5 1926,-323 1926,-269.5 1127.33,-255.89 857.12,-252.81"/>
<polygon fill="black" stroke="black" points="857.36,-249.32 847.32,-252.71 857.28,-256.32 857.36,-249.32"/>
</g>
<!-- hABCountsCan -->
<g id="node5" class="node">
<title>hABCountsCan</title>
<ellipse fill="khaki" stroke="black" cx="95" cy="-661" rx="79.09" ry="18"/>
<text text-anchor="middle" x="95" y="-657.3" font-family="Helvetica,sans-Serif" font-size="14.00">HABCountsCan</text>
</g>
<!-- divideHABCan -->
<g id="node20" class="node">
<title>divideHABCan</title>
<path fill="lightskyblue" stroke="black" d="M276,-606C276,-606 138,-606 138,-606 132,-606 126,-600 126,-594 126,-594 126,-565 126,-565 126,-559 132,-553 138,-553 138,-553 276,-553 276,-553 282,-553 288,-559 288,-565 288,-565 288,-594 288,-594 288,-600 282,-606 276,-606"/>
<text text-anchor="middle" x="207" y="-590.8" font-family="Helvetica,sans-Serif" font-size="14.00">Divide</text>
<text text-anchor="middle" x="207" y="-575.8" font-family="Helvetica,sans-Serif" font-size="14.00">HAB can</text>
<text text-anchor="middle" x="207" y="-560.8" font-family="Helvetica,sans-Serif" font-size="14.00">counts/normalization</text>
</g>
<!-- hABCountsCan&#45;&gt;divideHABCan -->
<g id="edge5" class="edge">
<title>hABCountsCan&#45;&gt;divideHABCan</title>
<path fill="none" stroke="black" d="M118.48,-643.33C131.02,-634.44 146.88,-623.18 161.7,-612.65"/>
<polygon fill="black" stroke="black" points="163.4,-615.74 169.53,-607.1 159.35,-610.03 163.4,-615.74"/>
</g>
<!-- calculateMergedQCan -->
<g id="node28" class="node">
<title>calculateMergedQCan</title>
<polygon fill="lightseagreen" stroke="black" points="491.5,-597.5 306.5,-597.5 306.5,-561.5 491.5,-561.5 491.5,-597.5"/>
<text text-anchor="middle" x="399" y="-575.8" font-family="Helvetica,sans-Serif" font-size="14.00">Calculate Merged Q Can</text>
</g>
<!-- hABCountsCan&#45;&gt;calculateMergedQCan -->
<g id="edge11" class="edge">
<title>hABCountsCan&#45;&gt;calculateMergedQCan</title>
<path fill="none" stroke="black" d="M145.54,-646.78C193.5,-634.24 266.26,-615.21 321.54,-600.76"/>
<polygon fill="black" stroke="black" points="322.1,-604.23 330.89,-598.31 320.33,-597.46 322.1,-604.23"/>
</g>
<!-- lABCountsCan -->
<g id="node6" class="node">
<title>lABCountsCan</title>
<ellipse fill="khaki" stroke="black" cx="434" cy="-661" rx="77.99" ry="18"/>
<text text-anchor="middle" x="434" y="-657.3" font-family="Helvetica,sans-Serif" font-size="14.00">LABCountsCan</text>
</g>
<!-- divideLABCan -->
<g id="node21" class="node">
<title>divideLABCan</title>
<path fill="lightskyblue" stroke="black" d="M660,-606C660,-606 522,-606 522,-606 516,-606 510,-600 510,-594 510,-594 510,-565 510,-565 510,-559 516,-553 522,-553 522,-553 660,-553 660,-553 666,-553 672,-559 672,-565 672,-565 672,-594 672,-594 672,-600 666,-606 660,-606"/>
<text text-anchor="middle" x="591" y="-590.8" font-family="Helvetica,sans-Serif" font-size="14.00">Divide</text>
<text text-anchor="middle" x="591" y="-575.8" font-family="Helvetica,sans-Serif" font-size="14.00">LAB can</text>
<text text-anchor="middle" x="591" y="-560.8" font-family="Helvetica,sans-Serif" font-size="14.00">counts/normalization</text>
</g>
<!-- lABCountsCan&#45;&gt;divideLABCan -->
<g id="edge7" class="edge">
<title>lABCountsCan&#45;&gt;divideLABCan</title>
<path fill="none" stroke="black" d="M465.39,-644.1C483.78,-634.79 507.64,-622.71 529.61,-611.58"/>
<polygon fill="black" stroke="black" points="531.19,-614.71 538.53,-607.07 528.03,-608.46 531.19,-614.71"/>
</g>
<!-- lABCountsCan&#45;&gt;calculateMergedQCan -->
<g id="edge13" class="edge">
<title>lABCountsCan&#45;&gt;calculateMergedQCan</title>
<path fill="none" stroke="black" d="M426.41,-642.75C421.99,-632.71 416.31,-619.82 411.27,-608.38"/>
<polygon fill="black" stroke="black" points="414.54,-607.12 407.31,-599.38 408.14,-609.94 414.54,-607.12"/>
</g>
<!-- hABNormCan -->
<g id="node7" class="node">
<title>hABNormCan</title>
<ellipse fill="khaki" stroke="black" cx="265" cy="-661" rx="72.59" ry="18"/>
<text text-anchor="middle" x="265" y="-657.3" font-family="Helvetica,sans-Serif" font-size="14.00">HABNormCan</text>
</g>
<!-- hABNormCan&#45;&gt;divideHABCan -->
<g id="edge6" class="edge">
<title>hABNormCan&#45;&gt;divideHABCan</title>
<path fill="none" stroke="black" d="M252.7,-643.14C246.8,-635.06 239.51,-625.06 232.49,-615.44"/>
<polygon fill="black" stroke="black" points="235.52,-613.65 226.8,-607.64 229.86,-617.78 235.52,-613.65"/>
</g>
<!-- hABNormCan&#45;&gt;calculateMergedQCan -->
<g id="edge12" class="edge">
<title>hABNormCan&#45;&gt;calculateMergedQCan</title>
<path fill="none" stroke="black" d="M292.12,-643.91C311.61,-632.34 338.2,-616.57 359.97,-603.65"/>
<polygon fill="black" stroke="black" points="361.48,-606.83 368.3,-598.72 357.91,-600.81 361.48,-606.83"/>
</g>
<!-- lABNormCan -->
<g id="node8" class="node">
<title>lABNormCan</title>
<ellipse fill="khaki" stroke="black" cx="601" cy="-661" rx="71.49" ry="18"/>
<text text-anchor="middle" x="601" y="-657.3" font-family="Helvetica,sans-Serif" font-size="14.00">LABNormCan</text>
</g>
<!-- lABNormCan&#45;&gt;divideLABCan -->
<g id="edge8" class="edge">
<title>lABNormCan&#45;&gt;divideLABCan</title>
<path fill="none" stroke="black" d="M598.83,-642.75C597.9,-635.38 596.78,-626.48 595.68,-617.74"/>
<polygon fill="black" stroke="black" points="599.18,-617.47 594.46,-607.98 592.23,-618.34 599.18,-617.47"/>
</g>
<!-- lABNormCan&#45;&gt;calculateMergedQCan -->
<g id="edge14" class="edge">
<title>lABNormCan&#45;&gt;calculateMergedQCan</title>
<path fill="none" stroke="black" d="M563.48,-645.23C532.67,-633.11 488.6,-615.76 453.83,-602.08"/>
<polygon fill="black" stroke="black" points="455.36,-598.92 444.77,-598.51 452.79,-605.43 455.36,-598.92"/>
</g>
<!-- processCan -->
<g id="node9" class="node">
<title>processCan</title>
<ellipse fill="khaki" stroke="black" cx="349" cy="-938" rx="62.29" ry="18"/>
<text text-anchor="middle" x="349" y="-934.3" font-family="Helvetica,sans-Serif" font-size="14.00">ProcessCan</text>
</g>
<!-- checkProcessCan -->
<g id="node16" class="node">
<title>checkProcessCan</title>
<polygon fill="limegreen" stroke="black" points="349,-883 226.5,-865 349,-847 471.5,-865 349,-883"/>
<text text-anchor="middle" x="349" y="-861.3" font-family="Helvetica,sans-Serif" font-size="14.00">Process the can?</text>
</g>
<!-- processCan&#45;&gt;checkProcessCan -->
<g id="edge22" class="edge">
<title>processCan&#45;&gt;checkProcessCan</title>
<path fill="none" stroke="black" d="M349,-919.81C349,-912.23 349,-903.1 349,-894.54"/>
<polygon fill="black" stroke="black" points="352.5,-894.54 349,-884.54 345.5,-894.54 352.5,-894.54"/>
</g>
<!-- scaleFactor -->
<g id="node10" class="node">
<title>scaleFactor</title>
<ellipse fill="khaki" stroke="black" cx="826" cy="-484" rx="62.29" ry="18"/>
<text text-anchor="middle" x="826" y="-480.3" font-family="Helvetica,sans-Serif" font-size="14.00">ScaleFactor</text>
</g>
<!-- sansFitShiftScale -->
<g id="node24" class="node">
<title>sansFitShiftScale</title>
<path fill="lightskyblue" stroke="black" d="M1206,-415C1206,-415 1090,-415 1090,-415 1084,-415 1078,-409 1078,-403 1078,-403 1078,-391 1078,-391 1078,-385 1084,-379 1090,-379 1090,-379 1206,-379 1206,-379 1212,-379 1218,-385 1218,-391 1218,-391 1218,-403 1218,-403 1218,-409 1212,-415 1206,-415"/>
<text text-anchor="middle" x="1148" y="-393.3" font-family="Helvetica,sans-Serif" font-size="14.00">SANSFitShiftScale</text>
</g>
<!-- scaleFactor&#45;&gt;sansFitShiftScale -->
<g id="edge32" class="edge">
<title>scaleFactor&#45;&gt;sansFitShiftScale</title>
<path fill="none" stroke="black" d="M862.98,-469.16C873.86,-465.31 885.84,-461.29 897,-458 953.14,-441.46 1017.33,-426.17 1066.75,-415.17"/>
<polygon fill="black" stroke="black" points="1067.21,-418.66 1076.22,-413.08 1065.7,-411.82 1067.21,-418.66"/>
</g>
<!-- copyScaleFactor -->
<g id="node31" class="node">
<title>copyScaleFactor</title>
<polygon fill="lightseagreen" stroke="black" points="913,-415 773,-415 773,-379 913,-379 913,-415"/>
<text text-anchor="middle" x="843" y="-393.3" font-family="Helvetica,sans-Serif" font-size="14.00">Copy Scale Factor</text>
</g>
<!-- scaleFactor&#45;&gt;copyScaleFactor -->
<g id="edge38" class="edge">
<title>scaleFactor&#45;&gt;copyScaleFactor</title>
<path fill="none" stroke="black" d="M829.44,-465.8C831.68,-454.58 834.67,-439.67 837.26,-426.69"/>
<polygon fill="black" stroke="black" points="840.68,-427.44 839.21,-416.95 833.82,-426.07 840.68,-427.44"/>
</g>
<!-- shiftFactor -->
<g id="node11" class="node">
<title>shiftFactor</title>
<ellipse fill="khaki" stroke="black" cx="1839" cy="-484" rx="59.29" ry="18"/>
<text text-anchor="middle" x="1839" y="-480.3" font-family="Helvetica,sans-Serif" font-size="14.00">ShiftFactor</text>
</g>
<!-- shiftFactor&#45;&gt;sansFitShiftScale -->
<g id="edge33" class="edge">
<title>shiftFactor&#45;&gt;sansFitShiftScale</title>
<path fill="none" stroke="black" d="M1804.31,-468.94C1793.46,-464.95 1781.36,-460.9 1770,-458 1741.68,-450.77 1733.78,-453.09 1705,-448 1671.53,-442.08 1663.68,-437.57 1630,-433 1489.99,-413.99 1325.61,-404.85 1229.5,-400.81"/>
<polygon fill="black" stroke="black" points="1229.77,-397.32 1219.64,-400.41 1229.49,-404.32 1229.77,-397.32"/>
</g>
<!-- copyShiftFactor -->
<g id="node30" class="node">
<title>copyShiftFactor</title>
<polygon fill="lightseagreen" stroke="black" points="1675.5,-415 1540.5,-415 1540.5,-379 1675.5,-379 1675.5,-415"/>
<text text-anchor="middle" x="1608" y="-393.3" font-family="Helvetica,sans-Serif" font-size="14.00">Copy Shift Factor</text>
</g>
<!-- shiftFactor&#45;&gt;copyShiftFactor -->
<g id="edge39" class="edge">
<title>shiftFactor&#45;&gt;copyShiftFactor</title>
<path fill="none" stroke="black" d="M1802.14,-469.44C1765.58,-455.98 1709,-435.17 1666.34,-419.47"/>
<polygon fill="black" stroke="black" points="1667.55,-416.18 1656.96,-416.01 1665.13,-422.75 1667.55,-416.18"/>
</g>
<!-- outputWorkspace -->
<g id="node12" class="node">
<title>outputWorkspace</title>
<ellipse fill="khaki" stroke="black" cx="429" cy="-18" rx="92.08" ry="18"/>
<text text-anchor="middle" x="429" y="-14.3" font-family="Helvetica,sans-Serif" font-size="14.00">OutputWorkspace</text>
</g>
<!-- outScaleFactor -->
<g id="node13" class="node">
<title>outScaleFactor</title>
<ellipse fill="khaki" stroke="black" cx="843" cy="-324" rx="79.09" ry="18"/>
<text text-anchor="middle" x="843" y="-320.3" font-family="Helvetica,sans-Serif" font-size="14.00">OutScaleFactor</text>
</g>
<!-- outScaleFactor&#45;&gt;calculateMergedQ -->
<g id="edge42" class="edge">
<title>outScaleFactor&#45;&gt;calculateMergedQ</title>
<path fill="none" stroke="black" d="M825.46,-306.17C816.45,-297.52 805.28,-286.81 795.26,-277.19"/>
<polygon fill="black" stroke="black" points="797.92,-274.89 788.28,-270.49 793.07,-279.94 797.92,-274.89"/>
</g>
<!-- outScaleFactor&#45;&gt;calculateMergedQCan -->
<g id="edge44" class="edge">
<title>outScaleFactor&#45;&gt;calculateMergedQCan</title>
<path fill="none" stroke="black" d="M812.1,-340.85C777.85,-359.51 722.39,-393.07 684,-433 658.96,-459.05 669.55,-479.85 641,-502 627.29,-512.63 538.87,-539.13 472.84,-557.96"/>
<polygon fill="black" stroke="black" points="472.16,-554.51 463.5,-560.61 474.07,-561.25 472.16,-554.51"/>
</g>
<!-- outShiftFactor -->
<g id="node14" class="node">
<title>outShiftFactor</title>
<ellipse fill="khaki" stroke="black" cx="1148" cy="-324" rx="75.29" ry="18"/>
<text text-anchor="middle" x="1148" y="-320.3" font-family="Helvetica,sans-Serif" font-size="14.00">OutShiftFactor</text>
</g>
<!-- outShiftFactor&#45;&gt;calculateMergedQ -->
<g id="edge43" class="edge">
<title>outShiftFactor&#45;&gt;calculateMergedQ</title>
<path fill="none" stroke="black" d="M1090.03,-312.14C1028.02,-300.52 928.95,-281.97 857.26,-268.53"/>
<polygon fill="black" stroke="black" points="857.96,-265.1 847.48,-266.7 856.67,-271.98 857.96,-265.1"/>
</g>
<!-- mode -->
<g id="node15" class="node">
<title>mode</title>
<ellipse fill="khaki" stroke="black" cx="1608" cy="-579.5" rx="35.19" ry="18"/>
<text text-anchor="middle" x="1608" y="-575.8" font-family="Helvetica,sans-Serif" font-size="14.00">Mode</text>
</g>
<!-- checkModeForFit -->
<g id="node17" class="node">
<title>checkModeForFit</title>
<polygon fill="limegreen" stroke="black" points="1608,-502 1454.5,-484 1608,-466 1761.5,-484 1608,-502"/>
<text text-anchor="middle" x="1608" y="-480.3" font-family="Helvetica,sans-Serif" font-size="14.00">Mode Requires Fitting</text>
</g>
<!-- mode&#45;&gt;checkModeForFit -->
<g id="edge28" class="edge">
<title>mode&#45;&gt;checkModeForFit</title>
<path fill="none" stroke="black" d="M1608,-561.35C1608,-547.99 1608,-529.15 1608,-513.53"/>
<polygon fill="black" stroke="black" points="1611.5,-513.87 1608,-503.87 1604.5,-513.87 1611.5,-513.87"/>
</g>
<!-- readCanInputs -->
<g id="node29" class="node">
<title>readCanInputs</title>
<polygon fill="lightseagreen" stroke="black" points="415,-752 283,-752 283,-716 415,-716 415,-752"/>
<text text-anchor="middle" x="349" y="-730.3" font-family="Helvetica,sans-Serif" font-size="14.00">Read Can Inputs</text>
</g>
<!-- checkProcessCan&#45;&gt;readCanInputs -->
<g id="edge27" class="edge">
<title>checkProcessCan&#45;&gt;readCanInputs</title>
<path fill="none" stroke="black" d="M349,-846.6C349,-825.33 349,-789.01 349,-763.61"/>
<polygon fill="black" stroke="black" points="352.5,-763.64 349,-753.64 345.5,-763.64 352.5,-763.64"/>
<text text-anchor="middle" x="361.5" y="-817.8" font-family="Helvetica,sans-Serif" font-size="14.00">yes</text>
</g>
<!-- checkModeForFit&#45;&gt;sansFitShiftScale -->
<g id="edge29" class="edge">
<title>checkModeForFit&#45;&gt;sansFitShiftScale</title>
<path fill="none" stroke="black" d="M1564.84,-470.66C1524.74,-459.55 1463.22,-443.41 1409,-433 1349.41,-421.56 1281.47,-412.57 1229.84,-406.57"/>
<polygon fill="black" stroke="black" points="1230.25,-403.1 1219.92,-405.43 1229.45,-410.05 1230.25,-403.1"/>
<text text-anchor="middle" x="1487.5" y="-436.8" font-family="Helvetica,sans-Serif" font-size="14.00">yes</text>
</g>
<!-- checkModeForFit&#45;&gt;copyShiftFactor -->
<g id="edge37" class="edge">
<title>checkModeForFit&#45;&gt;copyShiftFactor</title>
<path fill="none" stroke="black" d="M1608,-465.8C1608,-454.58 1608,-439.67 1608,-426.69"/>
<polygon fill="black" stroke="black" points="1611.5,-426.98 1608,-416.98 1604.5,-426.98 1611.5,-426.98"/>
<text text-anchor="middle" x="1617" y="-436.8" font-family="Helvetica,sans-Serif" font-size="14.00">no</text>
</g>
<!-- checkModeForFit&#45;&gt;copyScaleFactor -->
<g id="edge36" class="edge">
<title>checkModeForFit&#45;&gt;copyScaleFactor</title>
<path fill="none" stroke="black" d="M1546.57,-472.72C1516.34,-467.87 1479.31,-462.22 1446,-458 1259.9,-434.4 1040.5,-414.57 924.48,-404.7"/>
<polygon fill="black" stroke="black" points="925,-401.23 914.74,-403.88 924.41,-408.21 925,-401.23"/>
<text text-anchor="middle" x="1356" y="-436.8" font-family="Helvetica,sans-Serif" font-size="14.00">no</text>
</g>
<!-- subtractCanHAB -->
<g id="node22" class="node">
<title>subtractCanHAB</title>
<path fill="lightskyblue" stroke="black" d="M526,-502C526,-502 474,-502 474,-502 468,-502 462,-496 462,-490 462,-490 462,-478 462,-478 462,-472 468,-466 474,-466 474,-466 526,-466 526,-466 532,-466 538,-472 538,-478 538,-478 538,-490 538,-490 538,-496 532,-502 526,-502"/>
<text text-anchor="middle" x="500" y="-480.3" font-family="Helvetica,sans-Serif" font-size="14.00">Subtract</text>
</g>
<!-- divideHABSample&#45;&gt;subtractCanHAB -->
<g id="edge23" class="edge">
<title>divideHABSample&#45;&gt;subtractCanHAB</title>
<path fill="none" stroke="black" d="M885.59,-567.79C802.82,-555.97 670.93,-534.59 549.29,-502.39"/>
<polygon fill="black" stroke="black" points="550.33,-499.05 539.77,-499.84 548.52,-505.81 550.33,-499.05"/>
</g>
<!-- valQHAB -->
<g id="node33" class="node">
<title>valQHAB</title>
<polygon fill="grey" stroke="black" points="1165.7,-502 959.38,-502 906.3,-466 1112.62,-466 1165.7,-502"/>
<text text-anchor="middle" x="1036" y="-480.3" font-family="Times,serif" font-size="14.00">HAB Normalized</text>
</g>
<!-- divideHABSample&#45;&gt;valQHAB -->
<g id="edge21" class="edge">
<title>divideHABSample&#45;&gt;valQHAB</title>
<path fill="none" stroke="black" d="M999.49,-552.68C1005.12,-547.24 1010.58,-541.24 1015,-535 1019.75,-528.29 1023.71,-520.34 1026.85,-512.77"/>
<polygon fill="black" stroke="black" points="1030.07,-514.16 1030.35,-503.57 1023.53,-511.67 1030.07,-514.16"/>
<text text-anchor="middle" x="1104" y="-523.8" font-family="Helvetica,sans-Serif" font-size="14.00">If can is not processed.</text>
</g>
<!-- subtractCanLAB -->
<g id="node23" class="node">
<title>subtractCanLAB</title>
<path fill="lightskyblue" stroke="black" d="M620,-502C620,-502 568,-502 568,-502 562,-502 556,-496 556,-490 556,-490 556,-478 556,-478 556,-472 562,-466 568,-466 568,-466 620,-466 620,-466 626,-466 632,-472 632,-478 632,-478 632,-490 632,-490 632,-496 626,-502 620,-502"/>
<text text-anchor="middle" x="594" y="-480.3" font-family="Helvetica,sans-Serif" font-size="14.00">Subtract</text>
</g>
<!-- divideLABSample&#45;&gt;subtractCanLAB -->
<g id="edge24" class="edge">
<title>divideLABSample&#45;&gt;subtractCanLAB</title>
<path fill="none" stroke="black" d="M1371.61,-556.56C1319.75,-543.55 1250.91,-528.08 1189,-520 997.57,-495.02 947.54,-516.14 755,-502 717.55,-499.25 675.34,-494.74 643.54,-491.06"/>
<polygon fill="black" stroke="black" points="644.17,-487.61 633.83,-489.92 643.35,-494.56 644.17,-487.61"/>
</g>
<!-- valQLAB -->
<g id="node32" class="node">
<title>valQLAB</title>
<polygon fill="grey" stroke="black" points="1436.98,-502 1234.98,-502 1183.02,-466 1385.02,-466 1436.98,-502"/>
<text text-anchor="middle" x="1310" y="-480.3" font-family="Times,serif" font-size="14.00">LAB Normalized</text>
</g>
<!-- divideLABSample&#45;&gt;valQLAB -->
<g id="edge20" class="edge">
<title>divideLABSample&#45;&gt;valQLAB</title>
<path fill="none" stroke="black" d="M1413.55,-552.7C1392.52,-538.95 1366.82,-522.15 1346.29,-508.73"/>
<polygon fill="black" stroke="black" points="1348.22,-505.81 1337.94,-503.27 1344.39,-511.67 1348.22,-505.81"/>
<text text-anchor="middle" x="1466" y="-523.8" font-family="Helvetica,sans-Serif" font-size="14.00">If can is not processed.</text>
</g>
<!-- divideHABCan&#45;&gt;subtractCanHAB -->
<g id="edge9" class="edge">
<title>divideHABCan&#45;&gt;subtractCanHAB</title>
<path fill="none" stroke="black" d="M288.46,-554.19C333.79,-540.42 391.45,-522.51 450.86,-502.66"/>
<polygon fill="black" stroke="black" points="451.77,-506.04 460.14,-499.54 449.55,-499.4 451.77,-506.04"/>
</g>
<!-- divideLABCan&#45;&gt;subtractCanLAB -->
<g id="edge10" class="edge">
<title>divideLABCan&#45;&gt;subtractCanLAB</title>
<path fill="none" stroke="black" d="M591.82,-552.95C592.21,-540.74 592.68,-526.08 593.09,-513.51"/>
<polygon fill="black" stroke="black" points="596.58,-513.86 593.4,-503.76 589.58,-513.64 596.58,-513.86"/>
</g>
<!-- subtractCanHAB&#45;&gt;valQHAB -->
<g id="edge25" class="edge">
<title>subtractCanHAB&#45;&gt;valQHAB</title>
<path fill="none" stroke="black" d="M538.24,-499.45C541.18,-500.39 544.12,-501.26 547,-502 630.22,-523.53 652.75,-523.05 738.5,-529.08 798.35,-533.29 814.05,-537.18 873.5,-529.08 906.96,-524.53 943.25,-514.93 973.04,-505.75"/>
<polygon fill="black" stroke="black" points="973.76,-509.19 982.25,-502.85 971.66,-502.51 973.76,-509.19"/>
<text text-anchor="middle" x="806" y="-523.8" font-family="Helvetica,sans-Serif" font-size="14.00">If can is processed.</text>
</g>
<!-- subtractCanLAB&#45;&gt;valQLAB -->
<g id="edge26" class="edge">
<title>subtractCanLAB&#45;&gt;valQLAB</title>
<path fill="none" stroke="black" d="M632.43,-492.06C686.88,-503.03 789.76,-522.1 878.5,-529.08 997.37,-538.44 1134.24,-518.99 1221.38,-502.77"/>
<polygon fill="black" stroke="black" points="1221.89,-506.24 1231.06,-500.94 1220.59,-499.36 1221.89,-506.24"/>
<text text-anchor="middle" x="946" y="-523.8" font-family="Helvetica,sans-Serif" font-size="14.00">If can is processed.</text>
</g>
<!-- sansFitShiftScale&#45;&gt;outScaleFactor -->
<g id="edge35" class="edge">
<title>sansFitShiftScale&#45;&gt;outScaleFactor</title>
<path fill="none" stroke="black" d="M1077.64,-379.62C1026.45,-367.7 957.65,-351.69 907.8,-340.08"/>
<polygon fill="black" stroke="black" points="908.84,-336.73 898.3,-337.87 907.25,-343.55 908.84,-336.73"/>
</g>
<!-- sansFitShiftScale&#45;&gt;outShiftFactor -->
<g id="edge34" class="edge">
<title>sansFitShiftScale&#45;&gt;outShiftFactor</title>
<path fill="none" stroke="black" d="M1148,-378.81C1148,-371.23 1148,-362.1 1148,-353.54"/>
<polygon fill="black" stroke="black" points="1151.5,-353.54 1148,-343.54 1144.5,-353.54 1151.5,-353.54"/>
</g>
<!-- subtractMerged -->
<g id="node25" class="node">
<title>subtractMerged</title>
<path fill="lightskyblue" stroke="black" d="M432,-502C432,-502 380,-502 380,-502 374,-502 368,-496 368,-490 368,-490 368,-478 368,-478 368,-472 374,-466 380,-466 380,-466 432,-466 432,-466 438,-466 444,-472 444,-478 444,-478 444,-490 444,-490 444,-496 438,-502 432,-502"/>
<text text-anchor="middle" x="406" y="-480.3" font-family="Helvetica,sans-Serif" font-size="14.00">Subtract</text>
</g>
<!-- mergedQ -->
<g id="node34" class="node">
<title>mergedQ</title>
<polygon fill="grey" stroke="black" points="497.72,-182 388.4,-182 360.28,-146 469.6,-146 497.72,-182"/>
<text text-anchor="middle" x="429" y="-160.3" font-family="Times,serif" font-size="14.00">Merged</text>
</g>
<!-- subtractMerged&#45;&gt;mergedQ -->
<g id="edge51" class="edge">
<title>subtractMerged&#45;&gt;mergedQ</title>
<path fill="none" stroke="black" d="M408.25,-465.78C410.3,-448.63 413,-421.54 413,-398 413,-398 413,-398 413,-250 413,-230.91 416.95,-209.81 420.92,-193.42"/>
<polygon fill="black" stroke="black" points="424.27,-194.42 423.38,-183.87 417.5,-192.68 424.27,-194.42"/>
<text text-anchor="middle" x="494" y="-320.3" font-family="Helvetica,sans-Serif" font-size="14.00">If can is not processed.</text>
</g>
<!-- errorCorrection -->
<g id="node26" class="node">
<title>errorCorrection</title>
<polygon fill="lightseagreen" stroke="black" points="561.5,-109 296.5,-109 296.5,-73 561.5,-73 561.5,-109"/>
<text text-anchor="middle" x="429" y="-87.3" font-family="Helvetica,sans-Serif" font-size="14.00">Error Correction Merged Workspace</text>
</g>
<!-- errorCorrection&#45;&gt;outputWorkspace -->
<g id="edge53" class="edge">
<title>errorCorrection&#45;&gt;outputWorkspace</title>
<path fill="none" stroke="black" d="M429,-72.81C429,-65.23 429,-56.1 429,-47.54"/>
<polygon fill="black" stroke="black" points="432.5,-47.54 429,-37.54 425.5,-47.54 432.5,-47.54"/>
</g>
<!-- calculateMergedQ&#45;&gt;subtractMerged -->
<g id="edge49" class="edge">
<title>calculateMergedQ&#45;&gt;subtractMerged</title>
<path fill="none" stroke="black" d="M721.36,-269.43C708.94,-274.56 695.75,-280.55 684,-287 587.97,-339.76 485.11,-419 435.76,-458.62"/>
<polygon fill="black" stroke="black" points="433.66,-455.82 428.08,-464.82 438.06,-461.26 433.66,-455.82"/>
</g>
<!-- calculateMergedQ&#45;&gt;mergedQ -->
<g id="edge50" class="edge">
<title>calculateMergedQ&#45;&gt;mergedQ</title>
<path fill="none" stroke="black" d="M699.38,-232.59C644.26,-218.81 567.2,-199.55 509.45,-185.11"/>
<polygon fill="black" stroke="black" points="510.55,-181.78 500,-182.75 508.85,-188.57 510.55,-181.78"/>
<text text-anchor="middle" x="686.5" y="-203.8" font-family="Helvetica,sans-Serif" font-size="14.00">If can is processed.</text>
</g>
<!-- calculateMergedQCan&#45;&gt;subtractMerged -->
<g id="edge15" class="edge">
<title>calculateMergedQCan&#45;&gt;subtractMerged</title>
<path fill="none" stroke="black" d="M400.28,-561.35C401.28,-547.99 402.69,-529.15 403.86,-513.53"/>
<polygon fill="black" stroke="black" points="407.33,-514.1 404.59,-503.87 400.35,-513.58 407.33,-514.1"/>
</g>
<!-- readCanInputs&#45;&gt;hABCountsCan -->
<g id="edge1" class="edge">
<title>readCanInputs&#45;&gt;hABCountsCan</title>
<path fill="none" stroke="black" d="M286.54,-715.54C246.26,-704.28 194.18,-689.72 154.5,-678.63"/>
<polygon fill="black" stroke="black" points="155.69,-675.33 145.11,-676.01 153.8,-682.07 155.69,-675.33"/>
</g>
<!-- readCanInputs&#45;&gt;lABCountsCan -->
<g id="edge2" class="edge">
<title>readCanInputs&#45;&gt;lABCountsCan</title>
<path fill="none" stroke="black" d="M369.58,-715.81C380.3,-706.85 393.6,-695.75 405.32,-685.96"/>
<polygon fill="black" stroke="black" points="407.31,-688.85 412.75,-679.75 402.83,-683.48 407.31,-688.85"/>
</g>
<!-- readCanInputs&#45;&gt;hABNormCan -->
<g id="edge3" class="edge">
<title>readCanInputs&#45;&gt;hABNormCan</title>
<path fill="none" stroke="black" d="M328.67,-715.81C318.06,-706.85 304.93,-695.75 293.34,-685.96"/>
<polygon fill="black" stroke="black" points="295.91,-683.54 286.01,-679.76 291.39,-688.89 295.91,-683.54"/>
</g>
<!-- readCanInputs&#45;&gt;lABNormCan -->
<g id="edge4" class="edge">
<title>readCanInputs&#45;&gt;lABNormCan</title>
<path fill="none" stroke="black" d="M410.97,-715.54C451.51,-704.12 504.1,-689.3 543.67,-678.15"/>
<polygon fill="black" stroke="black" points="544.59,-681.53 553.27,-675.45 542.7,-674.79 544.59,-681.53"/>
</g>
<!-- copyShiftFactor&#45;&gt;outShiftFactor -->
<g id="edge41" class="edge">
<title>copyShiftFactor&#45;&gt;outShiftFactor</title>
<path fill="none" stroke="black" d="M1540.13,-385.52C1454.77,-372.35 1308.81,-349.82 1221.08,-336.28"/>
<polygon fill="black" stroke="black" points="1221.8,-332.85 1211.38,-334.78 1220.73,-339.77 1221.8,-332.85"/>
</g>
<!-- copyScaleFactor&#45;&gt;outScaleFactor -->
<g id="edge40" class="edge">
<title>copyScaleFactor&#45;&gt;outScaleFactor</title>
<path fill="none" stroke="black" d="M843,-378.81C843,-371.23 843,-362.1 843,-353.54"/>
<polygon fill="black" stroke="black" points="846.5,-353.54 843,-343.54 839.5,-353.54 846.5,-353.54"/>
</g>
<!-- valQLAB&#45;&gt;sansFitShiftScale -->
<g id="edge31" class="edge">
<title>valQLAB&#45;&gt;sansFitShiftScale</title>
<path fill="none" stroke="black" d="M1276.83,-465.59C1252.04,-452.59 1217.94,-434.7 1191.05,-420.59"/>
<polygon fill="black" stroke="black" points="1192.95,-417.63 1182.47,-416.09 1189.7,-423.83 1192.95,-417.63"/>
</g>
<!-- valQHAB&#45;&gt;sansFitShiftScale -->
<g id="edge30" class="edge">
<title>valQHAB&#45;&gt;sansFitShiftScale</title>
<path fill="none" stroke="black" d="M1058.94,-465.59C1075.39,-453.1 1097.79,-436.11 1116,-422.28"/>
<polygon fill="black" stroke="black" points="1118.04,-425.13 1123.89,-416.3 1113.81,-419.56 1118.04,-425.13"/>
</g>
<!-- mergedQ&#45;&gt;errorCorrection -->
<g id="edge52" class="edge">
<title>mergedQ&#45;&gt;errorCorrection</title>
<path fill="none" stroke="black" d="M429,-145.81C429,-138.23 429,-129.1 429,-120.54"/>
<polygon fill="black" stroke="black" points="432.5,-120.54 429,-110.54 425.5,-120.54 432.5,-120.54"/>
</g>
</g>
</svg>
