<?xml version="1.0" encoding="UTF-8" standalone="no"?>
<!DOCTYPE svg PUBLIC "-//W3C//DTD SVG 1.1//EN"
 "http://www.w3.org/Graphics/SVG/1.1/DTD/svg11.dtd">
<!-- Generated by graphviz version 7.0.5 (20221231.0122)
 -->
<!-- Title: SANSBeamFluxCorrection Pages: 1 -->
<svg width="635pt" height="519pt"
 viewBox="0.00 0.00 634.82 519.00" xmlns="http://www.w3.org/2000/svg" xmlns:xlink="http://www.w3.org/1999/xlink">
<g id="graph0" class="graph" transform="scale(1 1) rotate(0) translate(4 515)">
<title>SANSBeamFluxCorrection</title>
<polygon fill="white" stroke="none" points="-4,4 -4,-515 630.82,-515 630.82,4 -4,4"/>
<text text-anchor="middle" x="313.41" y="-495.8" font-family="Helvetica,sans-Serif" font-size="14.00">SANSBeamFluxCorrection Flowchart</text>
<!-- flexRefWS -->
<g id="node1" class="node">
<title>flexRefWS</title>
<ellipse fill="khaki" stroke="black" cx="137.92" cy="-310" rx="94.48" ry="18"/>
<text text-anchor="middle" x="137.92" y="-306.3" font-family="Helvetica,sans-Serif" font-size="14.00">FlexRefWorkspace</text>
</g>
<!-- convertToHist -->
<g id="node6" class="node">
<title>convertToHist</title>
<path fill="lightskyblue" stroke="black" d="M249.92,-255C249.92,-255 93.92,-255 93.92,-255 87.92,-255 81.92,-249 81.92,-243 81.92,-243 81.92,-231 81.92,-231 81.92,-225 87.92,-219 93.92,-219 93.92,-219 249.92,-219 249.92,-219 255.92,-219 261.92,-225 261.92,-231 261.92,-231 261.92,-243 261.92,-243 261.92,-249 255.92,-255 249.92,-255"/>
<text text-anchor="middle" x="171.92" y="-233.3" font-family="Helvetica,sans-Serif" font-size="14.00">ConvertToHistogram v1</text>
</g>
<!-- flexRefWS&#45;&gt;convertToHist -->
<g id="edge4" class="edge">
<title>flexRefWS&#45;&gt;convertToHist</title>
<path fill="none" stroke="black" d="M146.15,-291.81C149.96,-283.88 154.56,-274.26 158.82,-265.36"/>
<polygon fill="black" stroke="black" points="161.95,-266.92 163.12,-256.39 155.64,-263.9 161.95,-266.92"/>
</g>
<!-- monitorWS -->
<g id="node2" class="node">
<title>monitorWS</title>
<ellipse fill="khaki" stroke="black" cx="531.92" cy="-310" rx="94.78" ry="18"/>
<text text-anchor="middle" x="531.92" y="-306.3" font-family="Helvetica,sans-Serif" font-size="14.00">MonitorWorkspace</text>
</g>
<!-- rebinToWs2 -->
<g id="node8" class="node">
<title>rebinToWs2</title>
<path fill="lightskyblue" stroke="black" d="M545.92,-255C545.92,-255 399.92,-255 399.92,-255 393.92,-255 387.92,-249 387.92,-243 387.92,-243 387.92,-231 387.92,-231 387.92,-225 393.92,-219 399.92,-219 399.92,-219 545.92,-219 545.92,-219 551.92,-219 557.92,-225 557.92,-231 557.92,-231 557.92,-243 557.92,-243 557.92,-249 551.92,-255 545.92,-255"/>
<text text-anchor="middle" x="472.92" y="-233.3" font-family="Helvetica,sans-Serif" font-size="14.00">RebinToWorkspace v1</text>
</g>
<!-- monitorWS&#45;&gt;rebinToWs2 -->
<g id="edge9" class="edge">
<title>monitorWS&#45;&gt;rebinToWs2</title>
<path fill="none" stroke="black" d="M517.64,-291.81C510.61,-283.35 502,-272.98 494.21,-263.61"/>
<polygon fill="black" stroke="black" points="497.13,-261.65 488.04,-256.19 491.74,-266.12 497.13,-261.65"/>
</g>
<!-- inputWS -->
<g id="node3" class="node">
<title>inputWS</title>
<ellipse fill="khaki" stroke="black" cx="334.92" cy="-310" rx="84.49" ry="18"/>
<text text-anchor="middle" x="334.92" y="-306.3" font-family="Helvetica,sans-Serif" font-size="14.00">InputWorkspace</text>
</g>
<!-- rebinToWs -->
<g id="node7" class="node">
<title>rebinToWs</title>
<path fill="lightskyblue" stroke="black" d="M318.92,-182C318.92,-182 172.92,-182 172.92,-182 166.92,-182 160.92,-176 160.92,-170 160.92,-170 160.92,-158 160.92,-158 160.92,-152 166.92,-146 172.92,-146 172.92,-146 318.92,-146 318.92,-146 324.92,-146 330.92,-152 330.92,-158 330.92,-158 330.92,-170 330.92,-170 330.92,-176 324.92,-182 318.92,-182"/>
<text text-anchor="middle" x="245.92" y="-160.3" font-family="Helvetica,sans-Serif" font-size="14.00">RebinToWorkspace v1</text>
</g>
<!-- inputWS&#45;&gt;rebinToWs -->
<g id="edge6" class="edge">
<title>inputWS&#45;&gt;rebinToWs</title>
<path fill="none" stroke="black" d="M324.37,-291.92C309.04,-267.12 280.5,-220.95 262.4,-191.66"/>
<polygon fill="black" stroke="black" points="265.5,-190.02 257.27,-183.35 259.55,-193.7 265.5,-190.02"/>
</g>
<!-- inputWS&#45;&gt;rebinToWs2 -->
<g id="edge8" class="edge">
<title>inputWS&#45;&gt;rebinToWs2</title>
<path fill="none" stroke="black" d="M366.24,-292.89C384.88,-283.3 408.81,-270.99 429.28,-260.45"/>
<polygon fill="black" stroke="black" points="430.69,-263.67 437.98,-255.98 427.48,-257.44 430.69,-263.67"/>
</g>
<!-- divide -->
<g id="node9" class="node">
<title>divide</title>
<path fill="lightskyblue" stroke="black" d="M418.92,-182C418.92,-182 360.92,-182 360.92,-182 354.92,-182 348.92,-176 348.92,-170 348.92,-170 348.92,-158 348.92,-158 348.92,-152 354.92,-146 360.92,-146 360.92,-146 418.92,-146 418.92,-146 424.92,-146 430.92,-152 430.92,-158 430.92,-158 430.92,-170 430.92,-170 430.92,-176 424.92,-182 418.92,-182"/>
<text text-anchor="middle" x="389.92" y="-160.3" font-family="Helvetica,sans-Serif" font-size="14.00">Divide v1</text>
</g>
<!-- inputWS&#45;&gt;divide -->
<g id="edge11" class="edge">
<title>inputWS&#45;&gt;divide</title>
<path fill="none" stroke="black" d="M341.56,-291.63C350.89,-267.2 368,-222.4 379.17,-193.17"/>
<polygon fill="black" stroke="black" points="382.43,-194.44 382.73,-183.85 375.89,-191.94 382.43,-194.44"/>
</g>
<!-- outputWS -->
<g id="node4" class="node">
<title>outputWS</title>
<ellipse fill="khaki" stroke="black" cx="316.92" cy="-18" rx="92.08" ry="18"/>
<text text-anchor="middle" x="316.92" y="-14.3" font-family="Helvetica,sans-Serif" font-size="14.00">OutputWorkspace</text>
</g>
<!-- isEntryName -->
<g id="node5" class="node">
<title>isEntryName</title>
<polygon fill="limegreen" stroke="black" points="125.92,-488 0.08,-470 125.92,-452 251.77,-470 125.92,-488"/>
<text text-anchor="middle" x="125.92" y="-466.3" font-family="Helvetica,sans-Serif" font-size="14.00">Has Entry Name?</text>
</g>
<!-- isEntryName&#45;&gt;flexRefWS -->
<g id="edge2" class="edge">
<title>isEntryName&#45;&gt;flexRefWS</title>
<path fill="none" stroke="black" d="M132.81,-452.56C134.89,-446.79 136.89,-440.21 137.92,-434 143.26,-401.96 142.26,-364.57 140.56,-339.5"/>
<polygon fill="black" stroke="black" points="144.07,-339.47 139.82,-329.77 137.09,-340.01 144.07,-339.47"/>
<text text-anchor="middle" x="218.92" y="-379.3" font-family="Helvetica,sans-Serif" font-size="14.00">No. Empty Workspace</text>
</g>
<!-- load -->
<g id="node11" class="node">
<title>load</title>
<path fill="lightskyblue" stroke="black" d="M113.42,-401C113.42,-401 66.42,-401 66.42,-401 60.42,-401 54.42,-395 54.42,-389 54.42,-389 54.42,-377 54.42,-377 54.42,-371 60.42,-365 66.42,-365 66.42,-365 113.42,-365 113.42,-365 119.42,-365 125.42,-371 125.42,-377 125.42,-377 125.42,-389 125.42,-389 125.42,-395 119.42,-401 113.42,-401"/>
<text text-anchor="middle" x="89.92" y="-379.3" font-family="Helvetica,sans-Serif" font-size="14.00">Load v1</text>
</g>
<!-- isEntryName&#45;&gt;load -->
<g id="edge1" class="edge">
<title>isEntryName&#45;&gt;load</title>
<path fill="none" stroke="black" d="M118.98,-452.61C114.05,-440.96 107.31,-425.04 101.56,-411.47"/>
<polygon fill="black" stroke="black" points="104.93,-410.45 97.81,-402.61 98.48,-413.18 104.93,-410.45"/>
<text text-anchor="middle" x="122.42" y="-422.8" font-family="Helvetica,sans-Serif" font-size="14.00">Yes</text>
</g>
<!-- convertToHist&#45;&gt;rebinToWs -->
<g id="edge5" class="edge">
<title>convertToHist&#45;&gt;rebinToWs</title>
<path fill="none" stroke="black" d="M189.84,-218.81C198.77,-210.24 209.75,-199.71 219.61,-190.24"/>
<polygon fill="black" stroke="black" points="222.03,-192.77 226.83,-183.32 217.19,-187.72 222.03,-192.77"/>
</g>
<!-- divide2 -->
<g id="node10" class="node">
<title>divide2</title>
<path fill="lightskyblue" stroke="black" d="M345.92,-109C345.92,-109 287.92,-109 287.92,-109 281.92,-109 275.92,-103 275.92,-97 275.92,-97 275.92,-85 275.92,-85 275.92,-79 281.92,-73 287.92,-73 287.92,-73 345.92,-73 345.92,-73 351.92,-73 357.92,-79 357.92,-85 357.92,-85 357.92,-97 357.92,-97 357.92,-103 351.92,-109 345.92,-109"/>
<text text-anchor="middle" x="316.92" y="-87.3" font-family="Helvetica,sans-Serif" font-size="14.00">Divide v1</text>
</g>
<!-- rebinToWs&#45;&gt;divide2 -->
<g id="edge7" class="edge">
<title>rebinToWs&#45;&gt;divide2</title>
<path fill="none" stroke="black" d="M263.11,-145.81C271.75,-137.18 282.37,-126.56 291.89,-117.03"/>
<polygon fill="black" stroke="black" points="294.23,-119.65 298.83,-110.1 289.28,-114.7 294.23,-119.65"/>
</g>
<!-- rebinToWs2&#45;&gt;divide -->
<g id="edge10" class="edge">
<title>rebinToWs2&#45;&gt;divide</title>
<path fill="none" stroke="black" d="M452.83,-218.81C442.61,-210.07 430,-199.28 418.77,-189.67"/>
<polygon fill="black" stroke="black" points="421.14,-187.1 411.27,-183.26 416.59,-192.42 421.14,-187.1"/>
</g>
<!-- divide&#45;&gt;divide2 -->
<g id="edge12" class="edge">
<title>divide&#45;&gt;divide2</title>
<path fill="none" stroke="black" d="M372.25,-145.81C363.44,-137.24 352.61,-126.71 342.88,-117.24"/>
<polygon fill="black" stroke="black" points="345.38,-114.79 335.77,-110.33 340.5,-119.81 345.38,-114.79"/>
</g>
<!-- divide2&#45;&gt;outputWS -->
<g id="edge13" class="edge">
<title>divide2&#45;&gt;outputWS</title>
<path fill="none" stroke="black" d="M316.92,-72.81C316.92,-65.23 316.92,-56.1 316.92,-47.54"/>
<polygon fill="black" stroke="black" points="320.42,-47.54 316.92,-37.54 313.42,-47.54 320.42,-47.54"/>
</g>
<!-- load&#45;&gt;flexRefWS -->
<g id="edge3" class="edge">
<title>load&#45;&gt;flexRefWS</title>
<path fill="none" stroke="black" d="M101.54,-364.81C107.09,-356.62 113.84,-346.62 120.02,-337.48"/>
<polygon fill="black" stroke="black" points="122.86,-339.53 125.56,-329.28 117.06,-335.61 122.86,-339.53"/>
</g>
</g>
</svg>
