<?xml version="1.0" encoding="UTF-8" standalone="no"?>
<!DOCTYPE svg PUBLIC "-//W3C//DTD SVG 1.1//EN"
 "http://www.w3.org/Graphics/SVG/1.1/DTD/svg11.dtd">
<!-- Generated by graphviz version 2.47.2 (20210527.1257)
 -->
<!-- Title: SANSBeamFluxCorrection Pages: 1 -->
<svg width="570pt" height="519pt"
 viewBox="0.00 0.00 570.47 519.00" xmlns="http://www.w3.org/2000/svg" xmlns:xlink="http://www.w3.org/1999/xlink">
<g id="graph0" class="graph" transform="scale(1 1) rotate(0) translate(4 515)">
<title>SANSBeamFluxCorrection</title>
<polygon fill="white" stroke="transparent" points="-4,4 -4,-515 566.47,-515 566.47,4 -4,4"/>
<text text-anchor="middle" x="281.23" y="-495.8" font-family="Helvetica" font-size="14.00">SANSBeamFluxCorrection Flowchart</text>
<!-- flexRefWS -->
<g id="node1" class="node">
<title>flexRefWS</title>
<ellipse fill="khaki" stroke="black" cx="123.98" cy="-310" rx="85.29" ry="18"/>
<text text-anchor="middle" x="123.98" y="-306.3" font-family="Helvetica" font-size="14.00">FlexRefWorkspace</text>
</g>
<!-- convertToHist -->
<g id="node6" class="node">
<title>convertToHist</title>
<path fill="lightskyblue" stroke="black" d="M218.98,-255C218.98,-255 84.98,-255 84.98,-255 78.98,-255 72.98,-249 72.98,-243 72.98,-243 72.98,-231 72.98,-231 72.98,-225 78.98,-219 84.98,-219 84.98,-219 218.98,-219 218.98,-219 224.98,-219 230.98,-225 230.98,-231 230.98,-231 230.98,-243 230.98,-243 230.98,-249 224.98,-255 218.98,-255"/>
<text text-anchor="middle" x="151.98" y="-233.3" font-family="Helvetica" font-size="14.00">ConvertToHistogram v1</text>
</g>
<!-- flexRefWS&#45;&gt;convertToHist -->
<g id="edge4" class="edge">
<title>flexRefWS&#45;&gt;convertToHist</title>
<path fill="none" stroke="black" d="M130.75,-291.81C133.99,-283.62 137.93,-273.62 141.53,-264.48"/>
<polygon fill="black" stroke="black" points="144.85,-265.62 145.26,-255.03 138.34,-263.05 144.85,-265.62"/>
</g>
<!-- monitorWS -->
<g id="node2" class="node">
<title>monitorWS</title>
<ellipse fill="khaki" stroke="black" cx="477.98" cy="-310" rx="84.49" ry="18"/>
<text text-anchor="middle" x="477.98" y="-306.3" font-family="Helvetica" font-size="14.00">MonitorWorkspace</text>
</g>
<!-- rebinToWs2 -->
<g id="node8" class="node">
<title>rebinToWs2</title>
<path fill="lightskyblue" stroke="black" d="M493.98,-255C493.98,-255 365.98,-255 365.98,-255 359.98,-255 353.98,-249 353.98,-243 353.98,-243 353.98,-231 353.98,-231 353.98,-225 359.98,-219 365.98,-219 365.98,-219 493.98,-219 493.98,-219 499.98,-219 505.98,-225 505.98,-231 505.98,-231 505.98,-243 505.98,-243 505.98,-249 499.98,-255 493.98,-255"/>
<text text-anchor="middle" x="429.98" y="-233.3" font-family="Helvetica" font-size="14.00">RebinToWorkspace v1</text>
</g>
<!-- monitorWS&#45;&gt;rebinToWs2 -->
<g id="edge9" class="edge">
<title>monitorWS&#45;&gt;rebinToWs2</title>
<path fill="none" stroke="black" d="M466.36,-291.81C460.58,-283.27 453.48,-272.77 447.1,-263.32"/>
<polygon fill="black" stroke="black" points="449.99,-261.35 441.49,-255.03 444.19,-265.27 449.99,-261.35"/>
</g>
<!-- inputWS -->
<g id="node3" class="node">
<title>inputWS</title>
<ellipse fill="khaki" stroke="black" cx="300.98" cy="-310" rx="74.19" ry="18"/>
<text text-anchor="middle" x="300.98" y="-306.3" font-family="Helvetica" font-size="14.00">InputWorkspace</text>
</g>
<!-- rebinToWs -->
<g id="node7" class="node">
<title>rebinToWs</title>
<path fill="lightskyblue" stroke="black" d="M285.98,-182C285.98,-182 157.98,-182 157.98,-182 151.98,-182 145.98,-176 145.98,-170 145.98,-170 145.98,-158 145.98,-158 145.98,-152 151.98,-146 157.98,-146 157.98,-146 285.98,-146 285.98,-146 291.98,-146 297.98,-152 297.98,-158 297.98,-158 297.98,-170 297.98,-170 297.98,-176 291.98,-182 285.98,-182"/>
<text text-anchor="middle" x="221.98" y="-160.3" font-family="Helvetica" font-size="14.00">RebinToWorkspace v1</text>
</g>
<!-- inputWS&#45;&gt;rebinToWs -->
<g id="edge6" class="edge">
<title>inputWS&#45;&gt;rebinToWs</title>
<path fill="none" stroke="black" d="M291.6,-291.92C277.88,-266.91 252.23,-220.14 236.18,-190.89"/>
<polygon fill="black" stroke="black" points="239.21,-189.15 231.34,-182.06 233.08,-192.51 239.21,-189.15"/>
</g>
<!-- inputWS&#45;&gt;rebinToWs2 -->
<g id="edge8" class="edge">
<title>inputWS&#45;&gt;rebinToWs2</title>
<path fill="none" stroke="black" d="M329.6,-293.24C347.29,-283.51 370.25,-270.87 389.75,-260.14"/>
<polygon fill="black" stroke="black" points="391.64,-263.09 398.72,-255.2 388.27,-256.96 391.64,-263.09"/>
</g>
<!-- divide -->
<g id="node9" class="node">
<title>divide</title>
<path fill="lightskyblue" stroke="black" d="M375.98,-182C375.98,-182 327.98,-182 327.98,-182 321.98,-182 315.98,-176 315.98,-170 315.98,-170 315.98,-158 315.98,-158 315.98,-152 321.98,-146 327.98,-146 327.98,-146 375.98,-146 375.98,-146 381.98,-146 387.98,-152 387.98,-158 387.98,-158 387.98,-170 387.98,-170 387.98,-176 381.98,-182 375.98,-182"/>
<text text-anchor="middle" x="351.98" y="-160.3" font-family="Helvetica" font-size="14.00">Divide v1</text>
</g>
<!-- inputWS&#45;&gt;divide -->
<g id="edge11" class="edge">
<title>inputWS&#45;&gt;divide</title>
<path fill="none" stroke="black" d="M307.03,-291.92C315.81,-267.12 332.16,-220.95 342.53,-191.66"/>
<polygon fill="black" stroke="black" points="345.89,-192.66 345.93,-182.06 339.29,-190.32 345.89,-192.66"/>
</g>
<!-- outputWS -->
<g id="node4" class="node">
<title>outputWS</title>
<ellipse fill="khaki" stroke="black" cx="285.98" cy="-18" rx="81.49" ry="18"/>
<text text-anchor="middle" x="285.98" y="-14.3" font-family="Helvetica" font-size="14.00">OutputWorkspace</text>
</g>
<!-- isEntryName -->
<g id="node5" class="node">
<title>isEntryName</title>
<polygon fill="limegreen" stroke="black" points="113.98,-488 0.02,-470 113.98,-452 227.93,-470 113.98,-488"/>
<text text-anchor="middle" x="113.98" y="-466.3" font-family="Helvetica" font-size="14.00">Has Entry Name?</text>
</g>
<!-- isEntryName&#45;&gt;flexRefWS -->
<g id="edge2" class="edge">
<title>isEntryName&#45;&gt;flexRefWS</title>
<path fill="none" stroke="black" d="M120.74,-452.91C122.86,-447.06 124.92,-440.34 125.98,-434 131.39,-401.52 129.56,-363.55 127.24,-338.48"/>
<polygon fill="black" stroke="black" points="130.7,-337.85 126.2,-328.26 123.73,-338.56 130.7,-337.85"/>
<text text-anchor="middle" x="197.98" y="-379.3" font-family="Helvetica" font-size="14.00">No. Empty Workspace</text>
</g>
<!-- load -->
<g id="node11" class="node">
<title>load</title>
<path fill="lightskyblue" stroke="black" d="M99.48,-401C99.48,-401 58.48,-401 58.48,-401 52.48,-401 46.48,-395 46.48,-389 46.48,-389 46.48,-377 46.48,-377 46.48,-371 52.48,-365 58.48,-365 58.48,-365 99.48,-365 99.48,-365 105.48,-365 111.48,-371 111.48,-377 111.48,-377 111.48,-389 111.48,-389 111.48,-395 105.48,-401 99.48,-401"/>
<text text-anchor="middle" x="78.98" y="-379.3" font-family="Helvetica" font-size="14.00">Load v1</text>
</g>
<!-- isEntryName&#45;&gt;load -->
<g id="edge1" class="edge">
<title>isEntryName&#45;&gt;load</title>
<path fill="none" stroke="black" d="M107.39,-453.01C102.48,-441.09 95.67,-424.54 89.94,-410.64"/>
<polygon fill="black" stroke="black" points="93.05,-409 86.01,-401.08 86.58,-411.66 93.05,-409"/>
<text text-anchor="middle" x="110.48" y="-422.8" font-family="Helvetica" font-size="14.00">Yes</text>
</g>
<!-- convertToHist&#45;&gt;rebinToWs -->
<g id="edge5" class="edge">
<title>convertToHist&#45;&gt;rebinToWs</title>
<path fill="none" stroke="black" d="M168.92,-218.81C177.69,-209.92 188.54,-198.91 198.14,-189.17"/>
<polygon fill="black" stroke="black" points="200.66,-191.61 205.19,-182.03 195.67,-186.69 200.66,-191.61"/>
</g>
<!-- divide2 -->
<g id="node10" class="node">
<title>divide2</title>
<path fill="lightskyblue" stroke="black" d="M309.98,-109C309.98,-109 261.98,-109 261.98,-109 255.98,-109 249.98,-103 249.98,-97 249.98,-97 249.98,-85 249.98,-85 249.98,-79 255.98,-73 261.98,-73 261.98,-73 309.98,-73 309.98,-73 315.98,-73 321.98,-79 321.98,-85 321.98,-85 321.98,-97 321.98,-97 321.98,-103 315.98,-109 309.98,-109"/>
<text text-anchor="middle" x="285.98" y="-87.3" font-family="Helvetica" font-size="14.00">Divide v1</text>
</g>
<!-- rebinToWs&#45;&gt;divide2 -->
<g id="edge7" class="edge">
<title>rebinToWs&#45;&gt;divide2</title>
<path fill="none" stroke="black" d="M237.47,-145.81C245.41,-137 255.21,-126.13 263.93,-116.46"/>
<polygon fill="black" stroke="black" points="266.53,-118.8 270.63,-109.03 261.33,-114.11 266.53,-118.8"/>
</g>
<!-- rebinToWs2&#45;&gt;divide -->
<g id="edge10" class="edge">
<title>rebinToWs2&#45;&gt;divide</title>
<path fill="none" stroke="black" d="M411.09,-218.81C401.23,-209.83 388.99,-198.69 378.22,-188.89"/>
<polygon fill="black" stroke="black" points="380.43,-186.17 370.68,-182.03 375.72,-191.35 380.43,-186.17"/>
</g>
<!-- divide&#45;&gt;divide2 -->
<g id="edge12" class="edge">
<title>divide&#45;&gt;divide2</title>
<path fill="none" stroke="black" d="M336,-145.81C327.81,-137 317.7,-126.13 308.71,-116.46"/>
<polygon fill="black" stroke="black" points="311.18,-113.97 301.81,-109.03 306.05,-118.74 311.18,-113.97"/>
</g>
<!-- divide2&#45;&gt;outputWS -->
<g id="edge13" class="edge">
<title>divide2&#45;&gt;outputWS</title>
<path fill="none" stroke="black" d="M285.98,-72.81C285.98,-64.79 285.98,-55.05 285.98,-46.07"/>
<polygon fill="black" stroke="black" points="289.48,-46.03 285.98,-36.03 282.48,-46.03 289.48,-46.03"/>
</g>
<!-- load&#45;&gt;flexRefWS -->
<g id="edge3" class="edge">
<title>load&#45;&gt;flexRefWS</title>
<path fill="none" stroke="black" d="M89.87,-364.81C95.23,-356.35 101.8,-345.98 107.74,-336.61"/>
<polygon fill="black" stroke="black" points="110.79,-338.35 113.18,-328.03 104.87,-334.6 110.79,-338.35"/>
</g>
</g>
</svg>
