<?xml version="1.0" encoding="UTF-8" standalone="no"?>
<!DOCTYPE svg PUBLIC "-//W3C//DTD SVG 1.1//EN"
 "http://www.w3.org/Graphics/SVG/1.1/DTD/svg11.dtd">
<!-- Generated by graphviz version 3.0.0 (20220315.2325)
 -->
<!-- Title: SansStitch Pages: 1 -->
<svg width="2065pt" height="987pt"
 viewBox="0.00 0.00 2065.24 987.00" xmlns="http://www.w3.org/2000/svg" xmlns:xlink="http://www.w3.org/1999/xlink">
<g id="graph0" class="graph" transform="scale(1 1) rotate(0) translate(4 983)">
<title>SansStitch</title>
<polygon fill="white" stroke="transparent" points="-4,4 -4,-983 2061.24,-983 2061.24,4 -4,4"/>
<text text-anchor="middle" x="1028.62" y="-963.8" font-family="Helvetica,sans-Serif" font-size="14.00">SANSStitch Flowchart</text>
<g id="clust5" class="cluster">
<title>cluster</title>
<polygon fill="none" stroke="blue" points="8,-458 8,-806 680,-806 680,-458 8,-458"/>
<text text-anchor="middle" x="344" y="-790.8" font-family="Helvetica,sans-Serif" font-size="14.00">Can Processing</text>
</g>
<!-- hABCountsSample -->
<g id="node1" class="node">
<title>hABCountsSample</title>
<ellipse fill="khaki" stroke="black" cx="1081" cy="-661" rx="95.58" ry="18"/>
<text text-anchor="middle" x="1081" y="-657.3" font-family="Helvetica,sans-Serif" font-size="14.00">HABCountsSample</text>
</g>
<!-- divideHABSample -->
<g id="node18" class="node">
<title>divideHABSample</title>
<path fill="lightskyblue" stroke="black" d="M1036,-606C1036,-606 898,-606 898,-606 892,-606 886,-600 886,-594 886,-594 886,-565 886,-565 886,-559 892,-553 898,-553 898,-553 1036,-553 1036,-553 1042,-553 1048,-559 1048,-565 1048,-565 1048,-594 1048,-594 1048,-600 1042,-606 1036,-606"/>
<text text-anchor="middle" x="967" y="-590.8" font-family="Helvetica,sans-Serif" font-size="14.00">Divide</text>
<text text-anchor="middle" x="967" y="-575.8" font-family="Helvetica,sans-Serif" font-size="14.00">HAB sample</text>
<text text-anchor="middle" x="967" y="-560.8" font-family="Helvetica,sans-Serif" font-size="14.00">counts/normalization</text>
</g>
<!-- hABCountsSample&#45;&gt;divideHABSample -->
<g id="edge16" class="edge">
<title>hABCountsSample&#45;&gt;divideHABSample</title>
<path fill="none" stroke="black" d="M1057.38,-643.53C1044.28,-634.39 1027.56,-622.73 1012.06,-611.92"/>
<polygon fill="black" stroke="black" points="1013.82,-608.88 1003.61,-606.03 1009.81,-614.62 1013.82,-608.88"/>
</g>
<!-- calculateMergedQ -->
<g id="node27" class="node">
<title>calculateMergedQ</title>
<polygon fill="lightseagreen" stroke="black" points="845.5,-269 692.5,-269 692.5,-233 845.5,-233 845.5,-269"/>
<text text-anchor="middle" x="769" y="-247.3" font-family="Helvetica,sans-Serif" font-size="14.00">Calculate Merged Q</text>
</g>
<!-- hABCountsSample&#45;&gt;calculateMergedQ -->
<g id="edge45" class="edge">
<title>hABCountsSample&#45;&gt;calculateMergedQ</title>
<path fill="none" stroke="black" d="M1109.32,-643.78C1153.2,-616.73 1228.63,-561.31 1189,-520 1155.59,-485.17 793.31,-531.36 755,-502 732.63,-484.85 736,-469.68 736,-441.5 736,-441.5 736,-441.5 736,-323 736,-307.03 742.95,-290.77 750.47,-277.84"/>
<polygon fill="black" stroke="black" points="753.62,-279.4 755.96,-269.07 747.69,-275.69 753.62,-279.4"/>
</g>
<!-- lABCountsSample -->
<g id="node2" class="node">
<title>lABCountsSample</title>
<ellipse fill="khaki" stroke="black" cx="1963" cy="-661" rx="94.48" ry="18"/>
<text text-anchor="middle" x="1963" y="-657.3" font-family="Helvetica,sans-Serif" font-size="14.00">LABCountsSample</text>
</g>
<!-- divideLABSample -->
<g id="node19" class="node">
<title>divideLABSample</title>
<path fill="lightskyblue" stroke="black" d="M1522,-606C1522,-606 1384,-606 1384,-606 1378,-606 1372,-600 1372,-594 1372,-594 1372,-565 1372,-565 1372,-559 1378,-553 1384,-553 1384,-553 1522,-553 1522,-553 1528,-553 1534,-559 1534,-565 1534,-565 1534,-594 1534,-594 1534,-600 1528,-606 1522,-606"/>
<text text-anchor="middle" x="1453" y="-590.8" font-family="Helvetica,sans-Serif" font-size="14.00">Divide</text>
<text text-anchor="middle" x="1453" y="-575.8" font-family="Helvetica,sans-Serif" font-size="14.00">LAB sample</text>
<text text-anchor="middle" x="1453" y="-560.8" font-family="Helvetica,sans-Serif" font-size="14.00">counts/normalization</text>
</g>
<!-- lABCountsSample&#45;&gt;divideLABSample -->
<g id="edge18" class="edge">
<title>lABCountsSample&#45;&gt;divideLABSample</title>
<path fill="none" stroke="black" d="M1883.17,-651.37C1802.38,-642.12 1674.03,-626.04 1564,-606 1557.47,-604.81 1550.73,-603.49 1543.97,-602.1"/>
<polygon fill="black" stroke="black" points="1544.56,-598.65 1534.06,-600.02 1543.12,-605.5 1544.56,-598.65"/>
</g>
<!-- lABCountsSample&#45;&gt;calculateMergedQ -->
<g id="edge47" class="edge">
<title>lABCountsSample&#45;&gt;calculateMergedQ</title>
<path fill="none" stroke="black" d="M1967.47,-642.76C1971.23,-626.75 1976,-602.18 1976,-580.5 1976,-580.5 1976,-580.5 1976,-323 1976,-266.85 1132.71,-254.96 855.88,-252.57"/>
<polygon fill="black" stroke="black" points="855.91,-249.07 845.88,-252.49 855.85,-256.07 855.91,-249.07"/>
</g>
<!-- hABNormSample -->
<g id="node3" class="node">
<title>hABNormSample</title>
<ellipse fill="khaki" stroke="black" cx="851" cy="-661" rx="89.08" ry="18"/>
<text text-anchor="middle" x="851" y="-657.3" font-family="Helvetica,sans-Serif" font-size="14.00">HABNormSample</text>
</g>
<!-- hABNormSample&#45;&gt;divideHABSample -->
<g id="edge17" class="edge">
<title>hABNormSample&#45;&gt;divideHABSample</title>
<path fill="none" stroke="black" d="M875.04,-643.53C888.36,-634.39 905.38,-622.73 921.15,-611.92"/>
<polygon fill="black" stroke="black" points="923.48,-614.57 929.75,-606.03 919.52,-608.8 923.48,-614.57"/>
</g>
<!-- hABNormSample&#45;&gt;calculateMergedQ -->
<g id="edge46" class="edge">
<title>hABNormSample&#45;&gt;calculateMergedQ</title>
<path fill="none" stroke="black" d="M821.5,-643.88C777.04,-617.17 698,-559.26 698,-485 698,-485 698,-485 698,-323 698,-303.11 712.11,-286.84 727.74,-274.92"/>
<polygon fill="black" stroke="black" points="729.85,-277.72 735.99,-269.09 725.81,-272.01 729.85,-277.72"/>
</g>
<!-- lABNormSample -->
<g id="node4" class="node">
<title>lABNormSample</title>
<ellipse fill="khaki" stroke="black" cx="1625" cy="-661" rx="87.18" ry="18"/>
<text text-anchor="middle" x="1625" y="-657.3" font-family="Helvetica,sans-Serif" font-size="14.00">LABNormSample</text>
</g>
<!-- lABNormSample&#45;&gt;divideLABSample -->
<g id="edge19" class="edge">
<title>lABNormSample&#45;&gt;divideLABSample</title>
<path fill="none" stroke="black" d="M1591.02,-644.29C1570,-634.58 1542.35,-621.8 1517.32,-610.23"/>
<polygon fill="black" stroke="black" points="1518.78,-607.05 1508.24,-606.03 1515.85,-613.4 1518.78,-607.05"/>
</g>
<!-- lABNormSample&#45;&gt;calculateMergedQ -->
<g id="edge48" class="edge">
<title>lABNormSample&#45;&gt;calculateMergedQ</title>
<path fill="none" stroke="black" d="M1706.45,-654.45C1795.6,-646.07 1926,-626.04 1926,-580.5 1926,-580.5 1926,-580.5 1926,-323 1926,-269.42 1124.95,-255.85 855.92,-252.8"/>
<polygon fill="black" stroke="black" points="855.85,-249.3 845.81,-252.69 855.77,-256.3 855.85,-249.3"/>
</g>
<!-- hABCountsCan -->
<g id="node5" class="node">
<title>hABCountsCan</title>
<ellipse fill="khaki" stroke="black" cx="95" cy="-661" rx="79.09" ry="18"/>
<text text-anchor="middle" x="95" y="-657.3" font-family="Helvetica,sans-Serif" font-size="14.00">HABCountsCan</text>
</g>
<!-- divideHABCan -->
<g id="node20" class="node">
<title>divideHABCan</title>
<path fill="lightskyblue" stroke="black" d="M276,-606C276,-606 138,-606 138,-606 132,-606 126,-600 126,-594 126,-594 126,-565 126,-565 126,-559 132,-553 138,-553 138,-553 276,-553 276,-553 282,-553 288,-559 288,-565 288,-565 288,-594 288,-594 288,-600 282,-606 276,-606"/>
<text text-anchor="middle" x="207" y="-590.8" font-family="Helvetica,sans-Serif" font-size="14.00">Divide</text>
<text text-anchor="middle" x="207" y="-575.8" font-family="Helvetica,sans-Serif" font-size="14.00">HAB can</text>
<text text-anchor="middle" x="207" y="-560.8" font-family="Helvetica,sans-Serif" font-size="14.00">counts/normalization</text>
</g>
<!-- hABCountsCan&#45;&gt;divideHABCan -->
<g id="edge5" class="edge">
<title>hABCountsCan&#45;&gt;divideHABCan</title>
<path fill="none" stroke="black" d="M117.94,-643.72C130.79,-634.6 147.26,-622.91 162.53,-612.06"/>
<polygon fill="black" stroke="black" points="164.74,-614.79 170.87,-606.15 160.68,-609.08 164.74,-614.79"/>
</g>
<!-- calculateMergedQCan -->
<g id="node28" class="node">
<title>calculateMergedQCan</title>
<polygon fill="lightseagreen" stroke="black" points="491.5,-597.5 306.5,-597.5 306.5,-561.5 491.5,-561.5 491.5,-597.5"/>
<text text-anchor="middle" x="399" y="-575.8" font-family="Helvetica,sans-Serif" font-size="14.00">Calculate Merged Q Can</text>
</g>
<!-- hABCountsCan&#45;&gt;calculateMergedQCan -->
<g id="edge11" class="edge">
<title>hABCountsCan&#45;&gt;calculateMergedQCan</title>
<path fill="none" stroke="black" d="M144.86,-646.96C193.56,-634.22 268.31,-614.68 324.15,-600.07"/>
<polygon fill="black" stroke="black" points="325.2,-603.42 333.99,-597.5 323.43,-596.64 325.2,-603.42"/>
</g>
<!-- lABCountsCan -->
<g id="node6" class="node">
<title>lABCountsCan</title>
<ellipse fill="khaki" stroke="black" cx="434" cy="-661" rx="77.99" ry="18"/>
<text text-anchor="middle" x="434" y="-657.3" font-family="Helvetica,sans-Serif" font-size="14.00">LABCountsCan</text>
</g>
<!-- divideLABCan -->
<g id="node21" class="node">
<title>divideLABCan</title>
<path fill="lightskyblue" stroke="black" d="M660,-606C660,-606 522,-606 522,-606 516,-606 510,-600 510,-594 510,-594 510,-565 510,-565 510,-559 516,-553 522,-553 522,-553 660,-553 660,-553 666,-553 672,-559 672,-565 672,-565 672,-594 672,-594 672,-600 666,-606 660,-606"/>
<text text-anchor="middle" x="591" y="-590.8" font-family="Helvetica,sans-Serif" font-size="14.00">Divide</text>
<text text-anchor="middle" x="591" y="-575.8" font-family="Helvetica,sans-Serif" font-size="14.00">LAB can</text>
<text text-anchor="middle" x="591" y="-560.8" font-family="Helvetica,sans-Serif" font-size="14.00">counts/normalization</text>
</g>
<!-- lABCountsCan&#45;&gt;divideLABCan -->
<g id="edge7" class="edge">
<title>lABCountsCan&#45;&gt;divideLABCan</title>
<path fill="none" stroke="black" d="M465.02,-644.29C483.95,-634.71 508.78,-622.14 531.38,-610.69"/>
<polygon fill="black" stroke="black" points="533.24,-613.67 540.58,-606.03 530.08,-607.43 533.24,-613.67"/>
</g>
<!-- lABCountsCan&#45;&gt;calculateMergedQCan -->
<g id="edge13" class="edge">
<title>lABCountsCan&#45;&gt;calculateMergedQCan</title>
<path fill="none" stroke="black" d="M426.41,-642.75C421.82,-632.33 415.88,-618.84 410.7,-607.08"/>
<polygon fill="black" stroke="black" points="413.81,-605.46 406.58,-597.72 407.41,-608.28 413.81,-605.46"/>
</g>
<!-- hABNormCan -->
<g id="node7" class="node">
<title>hABNormCan</title>
<ellipse fill="khaki" stroke="black" cx="265" cy="-661" rx="72.59" ry="18"/>
<text text-anchor="middle" x="265" y="-657.3" font-family="Helvetica,sans-Serif" font-size="14.00">HABNormCan</text>
</g>
<!-- hABNormCan&#45;&gt;divideHABCan -->
<g id="edge6" class="edge">
<title>hABNormCan&#45;&gt;divideHABCan</title>
<path fill="none" stroke="black" d="M252.7,-643.14C246.57,-634.74 238.93,-624.26 231.66,-614.3"/>
<polygon fill="black" stroke="black" points="234.4,-612.12 225.68,-606.11 228.75,-616.25 234.4,-612.12"/>
</g>
<!-- hABNormCan&#45;&gt;calculateMergedQCan -->
<g id="edge12" class="edge">
<title>hABNormCan&#45;&gt;calculateMergedQCan</title>
<path fill="none" stroke="black" d="M291.79,-644.1C311.66,-632.31 339.02,-616.08 361.13,-602.97"/>
<polygon fill="black" stroke="black" points="363.11,-605.86 369.93,-597.75 359.54,-599.84 363.11,-605.86"/>
</g>
<!-- lABNormCan -->
<g id="node8" class="node">
<title>lABNormCan</title>
<ellipse fill="khaki" stroke="black" cx="601" cy="-661" rx="71.49" ry="18"/>
<text text-anchor="middle" x="601" y="-657.3" font-family="Helvetica,sans-Serif" font-size="14.00">LABNormCan</text>
</g>
<!-- lABNormCan&#45;&gt;divideLABCan -->
<g id="edge8" class="edge">
<title>lABNormCan&#45;&gt;divideLABCan</title>
<path fill="none" stroke="black" d="M598.83,-642.75C597.85,-634.99 596.66,-625.51 595.51,-616.32"/>
<polygon fill="black" stroke="black" points="598.95,-615.66 594.23,-606.18 592.01,-616.53 598.95,-615.66"/>
</g>
<!-- lABNormCan&#45;&gt;calculateMergedQCan -->
<g id="edge14" class="edge">
<title>lABNormCan&#45;&gt;calculateMergedQCan</title>
<path fill="none" stroke="black" d="M563.95,-645.42C532.61,-633.09 487.32,-615.26 452.13,-601.41"/>
<polygon fill="black" stroke="black" points="453.07,-598.02 442.49,-597.61 450.51,-604.53 453.07,-598.02"/>
</g>
<!-- processCan -->
<g id="node9" class="node">
<title>processCan</title>
<ellipse fill="khaki" stroke="black" cx="349" cy="-938" rx="62.29" ry="18"/>
<text text-anchor="middle" x="349" y="-934.3" font-family="Helvetica,sans-Serif" font-size="14.00">ProcessCan</text>
</g>
<!-- checkProcessCan -->
<g id="node16" class="node">
<title>checkProcessCan</title>
<polygon fill="limegreen" stroke="black" points="349,-883 226.5,-865 349,-847 471.5,-865 349,-883"/>
<text text-anchor="middle" x="349" y="-861.3" font-family="Helvetica,sans-Serif" font-size="14.00">Process the can?</text>
</g>
<!-- processCan&#45;&gt;checkProcessCan -->
<g id="edge22" class="edge">
<title>processCan&#45;&gt;checkProcessCan</title>
<path fill="none" stroke="black" d="M349,-919.81C349,-911.79 349,-902.05 349,-893.07"/>
<polygon fill="black" stroke="black" points="352.5,-893.03 349,-883.03 345.5,-893.03 352.5,-893.03"/>
</g>
<!-- scaleFactor -->
<g id="node10" class="node">
<title>scaleFactor</title>
<ellipse fill="khaki" stroke="black" cx="826" cy="-484" rx="62.29" ry="18"/>
<text text-anchor="middle" x="826" y="-480.3" font-family="Helvetica,sans-Serif" font-size="14.00">ScaleFactor</text>
</g>
<!-- sansFitShiftScale -->
<g id="node24" class="node">
<title>sansFitShiftScale</title>
<path fill="lightskyblue" stroke="black" d="M1206,-415C1206,-415 1090,-415 1090,-415 1084,-415 1078,-409 1078,-403 1078,-403 1078,-391 1078,-391 1078,-385 1084,-379 1090,-379 1090,-379 1206,-379 1206,-379 1212,-379 1218,-385 1218,-391 1218,-391 1218,-403 1218,-403 1218,-409 1212,-415 1206,-415"/>
<text text-anchor="middle" x="1148" y="-393.3" font-family="Helvetica,sans-Serif" font-size="14.00">SANSFitShiftScale</text>
</g>
<!-- scaleFactor&#45;&gt;sansFitShiftScale -->
<g id="edge32" class="edge">
<title>scaleFactor&#45;&gt;sansFitShiftScale</title>
<path fill="none" stroke="black" d="M862.61,-469.29C873.59,-465.4 885.72,-461.32 897,-458 953.59,-441.32 1018.37,-425.93 1067.95,-414.91"/>
<polygon fill="black" stroke="black" points="1068.96,-418.27 1077.97,-412.69 1067.45,-411.43 1068.96,-418.27"/>
</g>
<!-- copyScaleFactor -->
<g id="node31" class="node">
<title>copyScaleFactor</title>
<polygon fill="lightseagreen" stroke="black" points="913,-415 773,-415 773,-379 913,-379 913,-415"/>
<text text-anchor="middle" x="843" y="-393.3" font-family="Helvetica,sans-Serif" font-size="14.00">Copy Scale Factor</text>
</g>
<!-- scaleFactor&#45;&gt;copyScaleFactor -->
<g id="edge38" class="edge">
<title>scaleFactor&#45;&gt;copyScaleFactor</title>
<path fill="none" stroke="black" d="M829.44,-465.8C831.77,-454.16 834.89,-438.55 837.55,-425.24"/>
<polygon fill="black" stroke="black" points="841.04,-425.67 839.56,-415.18 834.17,-424.29 841.04,-425.67"/>
</g>
<!-- shiftFactor -->
<g id="node11" class="node">
<title>shiftFactor</title>
<ellipse fill="khaki" stroke="black" cx="1839" cy="-484" rx="59.29" ry="18"/>
<text text-anchor="middle" x="1839" y="-480.3" font-family="Helvetica,sans-Serif" font-size="14.00">ShiftFactor</text>
</g>
<!-- shiftFactor&#45;&gt;sansFitShiftScale -->
<g id="edge33" class="edge">
<title>shiftFactor&#45;&gt;sansFitShiftScale</title>
<path fill="none" stroke="black" d="M1805.02,-469.2C1793.99,-465.12 1781.6,-460.96 1770,-458 1741.68,-450.77 1733.78,-453.09 1705,-448 1671.53,-442.08 1663.68,-437.57 1630,-433 1489.42,-413.91 1324.27,-404.77 1228.33,-400.76"/>
<polygon fill="black" stroke="black" points="1228.26,-397.26 1218.13,-400.35 1227.98,-404.25 1228.26,-397.26"/>
</g>
<!-- copyShiftFactor -->
<g id="node30" class="node">
<title>copyShiftFactor</title>
<polygon fill="lightseagreen" stroke="black" points="1675.5,-415 1540.5,-415 1540.5,-379 1675.5,-379 1675.5,-415"/>
<text text-anchor="middle" x="1608" y="-393.3" font-family="Helvetica,sans-Serif" font-size="14.00">Copy Shift Factor</text>
</g>
<!-- shiftFactor&#45;&gt;copyShiftFactor -->
<g id="edge39" class="edge">
<title>shiftFactor&#45;&gt;copyShiftFactor</title>
<path fill="none" stroke="black" d="M1802.91,-469.72C1765.75,-456.04 1707.33,-434.55 1664.13,-418.65"/>
<polygon fill="black" stroke="black" points="1665.2,-415.32 1654.61,-415.15 1662.78,-421.89 1665.2,-415.32"/>
</g>
<!-- outputWorkspace -->
<g id="node12" class="node">
<title>outputWorkspace</title>
<ellipse fill="khaki" stroke="black" cx="429" cy="-18" rx="92.08" ry="18"/>
<text text-anchor="middle" x="429" y="-14.3" font-family="Helvetica,sans-Serif" font-size="14.00">OutputWorkspace</text>
</g>
<!-- outScaleFactor -->
<g id="node13" class="node">
<title>outScaleFactor</title>
<ellipse fill="khaki" stroke="black" cx="843" cy="-324" rx="79.09" ry="18"/>
<text text-anchor="middle" x="843" y="-320.3" font-family="Helvetica,sans-Serif" font-size="14.00">OutScaleFactor</text>
</g>
<!-- outScaleFactor&#45;&gt;calculateMergedQ -->
<g id="edge42" class="edge">
<title>outScaleFactor&#45;&gt;calculateMergedQ</title>
<path fill="none" stroke="black" d="M825.46,-306.17C816.2,-297.29 804.66,-286.21 794.43,-276.4"/>
<polygon fill="black" stroke="black" points="796.56,-273.6 786.93,-269.2 791.72,-278.65 796.56,-273.6"/>
</g>
<!-- outScaleFactor&#45;&gt;calculateMergedQCan -->
<g id="edge44" class="edge">
<title>outScaleFactor&#45;&gt;calculateMergedQCan</title>
<path fill="none" stroke="black" d="M812.41,-340.68C778.18,-359.31 722.51,-392.95 684,-433 658.96,-459.05 669.55,-479.85 641,-502 627.13,-512.76 536.8,-539.76 470.54,-558.61"/>
<polygon fill="black" stroke="black" points="469.21,-555.35 460.54,-561.45 471.12,-562.09 469.21,-555.35"/>
</g>
<!-- outShiftFactor -->
<g id="node14" class="node">
<title>outShiftFactor</title>
<ellipse fill="khaki" stroke="black" cx="1148" cy="-324" rx="75.29" ry="18"/>
<text text-anchor="middle" x="1148" y="-320.3" font-family="Helvetica,sans-Serif" font-size="14.00">OutShiftFactor</text>
</g>
<!-- outShiftFactor&#45;&gt;calculateMergedQ -->
<g id="edge43" class="edge">
<title>outShiftFactor&#45;&gt;calculateMergedQ</title>
<path fill="none" stroke="black" d="M1090.44,-312.22C1028.04,-300.53 927.75,-281.74 855.79,-268.26"/>
<polygon fill="black" stroke="black" points="856.3,-264.79 845.83,-266.39 855.01,-271.67 856.3,-264.79"/>
</g>
<!-- mode -->
<g id="node15" class="node">
<title>mode</title>
<ellipse fill="khaki" stroke="black" cx="1608" cy="-579.5" rx="35.19" ry="18"/>
<text text-anchor="middle" x="1608" y="-575.8" font-family="Helvetica,sans-Serif" font-size="14.00">Mode</text>
</g>
<!-- checkModeForFit -->
<g id="node17" class="node">
<title>checkModeForFit</title>
<polygon fill="limegreen" stroke="black" points="1608,-502 1454.5,-484 1608,-466 1761.5,-484 1608,-502"/>
<text text-anchor="middle" x="1608" y="-480.3" font-family="Helvetica,sans-Serif" font-size="14.00">Mode Requires Fitting</text>
</g>
<!-- mode&#45;&gt;checkModeForFit -->
<g id="edge28" class="edge">
<title>mode&#45;&gt;checkModeForFit</title>
<path fill="none" stroke="black" d="M1608,-561.35C1608,-547.64 1608,-528.17 1608,-512.32"/>
<polygon fill="black" stroke="black" points="1611.5,-512.04 1608,-502.04 1604.5,-512.04 1611.5,-512.04"/>
</g>
<!-- readCanInputs -->
<g id="node29" class="node">
<title>readCanInputs</title>
<polygon fill="lightseagreen" stroke="black" points="415,-752 283,-752 283,-716 415,-716 415,-752"/>
<text text-anchor="middle" x="349" y="-730.3" font-family="Helvetica,sans-Serif" font-size="14.00">Read Can Inputs</text>
</g>
<!-- checkProcessCan&#45;&gt;readCanInputs -->
<g id="edge27" class="edge">
<title>checkProcessCan&#45;&gt;readCanInputs</title>
<path fill="none" stroke="black" d="M349,-846.87C349,-825.28 349,-787.91 349,-762.35"/>
<polygon fill="black" stroke="black" points="352.5,-762.2 349,-752.2 345.5,-762.2 352.5,-762.2"/>
<text text-anchor="middle" x="361.5" y="-817.8" font-family="Helvetica,sans-Serif" font-size="14.00">yes</text>
</g>
<!-- checkModeForFit&#45;&gt;sansFitShiftScale -->
<g id="edge29" class="edge">
<title>checkModeForFit&#45;&gt;sansFitShiftScale</title>
<path fill="none" stroke="black" d="M1565.61,-470.87C1525.53,-459.75 1463.57,-443.48 1409,-433 1348.81,-421.44 1280.08,-412.39 1228.27,-406.39"/>
<polygon fill="black" stroke="black" points="1228.47,-402.89 1218.14,-405.23 1227.67,-409.85 1228.47,-402.89"/>
<text text-anchor="middle" x="1487.5" y="-436.8" font-family="Helvetica,sans-Serif" font-size="14.00">yes</text>
</g>
<!-- checkModeForFit&#45;&gt;copyShiftFactor -->
<g id="edge37" class="edge">
<title>checkModeForFit&#45;&gt;copyShiftFactor</title>
<path fill="none" stroke="black" d="M1608,-465.8C1608,-454.16 1608,-438.55 1608,-425.24"/>
<polygon fill="black" stroke="black" points="1611.5,-425.18 1608,-415.18 1604.5,-425.18 1611.5,-425.18"/>
<text text-anchor="middle" x="1617" y="-436.8" font-family="Helvetica,sans-Serif" font-size="14.00">no</text>
</g>
<!-- checkModeForFit&#45;&gt;copyScaleFactor -->
<g id="edge36" class="edge">
<title>checkModeForFit&#45;&gt;copyScaleFactor</title>
<path fill="none" stroke="black" d="M1548.1,-472.97C1517.59,-468.06 1479.88,-462.3 1446,-458 1259.33,-434.33 1039.17,-414.45 923.42,-404.61"/>
<polygon fill="black" stroke="black" points="923.49,-401.11 913.23,-403.75 922.9,-408.08 923.49,-401.11"/>
<text text-anchor="middle" x="1356" y="-436.8" font-family="Helvetica,sans-Serif" font-size="14.00">no</text>
</g>
<!-- subtractCanHAB -->
<g id="node22" class="node">
<title>subtractCanHAB</title>
<path fill="lightskyblue" stroke="black" d="M526,-502C526,-502 474,-502 474,-502 468,-502 462,-496 462,-490 462,-490 462,-478 462,-478 462,-472 468,-466 474,-466 474,-466 526,-466 526,-466 532,-466 538,-472 538,-478 538,-478 538,-490 538,-490 538,-496 532,-502 526,-502"/>
<text text-anchor="middle" x="500" y="-480.3" font-family="Helvetica,sans-Serif" font-size="14.00">Subtract</text>
</g>
<!-- divideHABSample&#45;&gt;subtractCanHAB -->
<g id="edge23" class="edge">
<title>divideHABSample&#45;&gt;subtractCanHAB</title>
<path fill="none" stroke="black" d="M885.99,-567.84C802.99,-556 670.32,-534.51 547.97,-502.03"/>
<polygon fill="black" stroke="black" points="548.61,-498.58 538.05,-499.36 546.8,-505.34 548.61,-498.58"/>
</g>
<!-- valQHAB -->
<g id="node33" class="node">
<title>valQHAB</title>
<polygon fill="grey" stroke="black" points="1165.7,-502 959.38,-502 906.3,-466 1112.62,-466 1165.7,-502"/>
<text text-anchor="middle" x="1036" y="-480.3" font-family="Times,serif" font-size="14.00">HAB Normalized</text>
</g>
<!-- divideHABSample&#45;&gt;valQHAB -->
<g id="edge21" class="edge">
<title>divideHABSample&#45;&gt;valQHAB</title>
<path fill="none" stroke="black" d="M999.49,-552.68C1005.12,-547.24 1010.58,-541.24 1015,-535 1019.97,-527.98 1024.07,-519.59 1027.29,-511.72"/>
<polygon fill="black" stroke="black" points="1030.64,-512.75 1030.89,-502.15 1024.09,-510.28 1030.64,-512.75"/>
<text text-anchor="middle" x="1104" y="-523.8" font-family="Helvetica,sans-Serif" font-size="14.00">If can is not processed.</text>
</g>
<!-- subtractCanLAB -->
<g id="node23" class="node">
<title>subtractCanLAB</title>
<path fill="lightskyblue" stroke="black" d="M620,-502C620,-502 568,-502 568,-502 562,-502 556,-496 556,-490 556,-490 556,-478 556,-478 556,-472 562,-466 568,-466 568,-466 620,-466 620,-466 626,-466 632,-472 632,-478 632,-478 632,-490 632,-490 632,-496 626,-502 620,-502"/>
<text text-anchor="middle" x="594" y="-480.3" font-family="Helvetica,sans-Serif" font-size="14.00">Subtract</text>
</g>
<!-- divideLABSample&#45;&gt;subtractCanLAB -->
<g id="edge24" class="edge">
<title>divideLABSample&#45;&gt;subtractCanLAB</title>
<path fill="none" stroke="black" d="M1371.9,-556.63C1320.01,-543.61 1251.03,-528.09 1189,-520 997.57,-495.02 947.54,-516.14 755,-502 717.06,-499.21 674.23,-494.62 642.29,-490.91"/>
<polygon fill="black" stroke="black" points="642.66,-487.43 632.32,-489.74 641.85,-494.38 642.66,-487.43"/>
</g>
<!-- valQLAB -->
<g id="node32" class="node">
<title>valQLAB</title>
<polygon fill="grey" stroke="black" points="1436.98,-502 1234.98,-502 1183.02,-466 1385.02,-466 1436.98,-502"/>
<text text-anchor="middle" x="1310" y="-480.3" font-family="Times,serif" font-size="14.00">LAB Normalized</text>
</g>
<!-- divideLABSample&#45;&gt;valQLAB -->
<g id="edge20" class="edge">
<title>divideLABSample&#45;&gt;valQLAB</title>
<path fill="none" stroke="black" d="M1413.92,-552.95C1392.36,-538.85 1365.81,-521.49 1344.94,-507.84"/>
<polygon fill="black" stroke="black" points="1346.66,-504.79 1336.37,-502.24 1342.83,-510.65 1346.66,-504.79"/>
<text text-anchor="middle" x="1466" y="-523.8" font-family="Helvetica,sans-Serif" font-size="14.00">If can is not processed.</text>
</g>
<!-- divideHABCan&#45;&gt;subtractCanHAB -->
<g id="edge9" class="edge">
<title>divideHABCan&#45;&gt;subtractCanHAB</title>
<path fill="none" stroke="black" d="M288.18,-554.27C333.83,-540.41 392.05,-522.33 452.17,-502.22"/>
<polygon fill="black" stroke="black" points="453.47,-505.47 461.83,-498.97 451.24,-498.84 453.47,-505.47"/>
</g>
<!-- divideLABCan&#45;&gt;subtractCanLAB -->
<g id="edge10" class="edge">
<title>divideLABCan&#45;&gt;subtractCanLAB</title>
<path fill="none" stroke="black" d="M591.82,-552.95C592.22,-540.36 592.71,-525.17 593.12,-512.35"/>
<polygon fill="black" stroke="black" points="596.62,-512.35 593.45,-502.24 589.63,-512.13 596.62,-512.35"/>
</g>
<!-- subtractCanHAB&#45;&gt;valQHAB -->
<g id="edge25" class="edge">
<title>subtractCanHAB&#45;&gt;valQHAB</title>
<path fill="none" stroke="black" d="M538.25,-499.44C541.19,-500.38 544.13,-501.25 547,-502 630.22,-523.74 652.71,-523.76 738.5,-530 798.34,-534.35 814.07,-538.25 873.5,-530 908.22,-525.18 945.96,-514.83 976.32,-505.16"/>
<polygon fill="black" stroke="black" points="977.47,-508.47 985.9,-502.06 975.31,-501.81 977.47,-508.47"/>
<text text-anchor="middle" x="806" y="-523.8" font-family="Helvetica,sans-Serif" font-size="14.00">If can is processed.</text>
</g>
<!-- subtractCanLAB&#45;&gt;valQLAB -->
<g id="edge26" class="edge">
<title>subtractCanLAB&#45;&gt;valQLAB</title>
<path fill="none" stroke="black" d="M632.42,-492.22C686.86,-503.42 789.73,-522.87 878.5,-530 998.17,-539.61 1136.06,-519.43 1223.11,-502.83"/>
<polygon fill="black" stroke="black" points="1223.79,-506.26 1232.95,-500.92 1222.46,-499.39 1223.79,-506.26"/>
<text text-anchor="middle" x="946" y="-523.8" font-family="Helvetica,sans-Serif" font-size="14.00">If can is processed.</text>
</g>
<!-- sansFitShiftScale&#45;&gt;outScaleFactor -->
<g id="edge35" class="edge">
<title>sansFitShiftScale&#45;&gt;outScaleFactor</title>
<path fill="none" stroke="black" d="M1077.64,-379.62C1025.96,-367.59 956.34,-351.38 906.38,-339.75"/>
<polygon fill="black" stroke="black" points="906.88,-336.28 896.35,-337.42 905.3,-343.1 906.88,-336.28"/>
</g>
<!-- sansFitShiftScale&#45;&gt;outShiftFactor -->
<g id="edge34" class="edge">
<title>sansFitShiftScale&#45;&gt;outShiftFactor</title>
<path fill="none" stroke="black" d="M1148,-378.81C1148,-370.79 1148,-361.05 1148,-352.07"/>
<polygon fill="black" stroke="black" points="1151.5,-352.03 1148,-342.03 1144.5,-352.03 1151.5,-352.03"/>
</g>
<!-- subtractMerged -->
<g id="node25" class="node">
<title>subtractMerged</title>
<path fill="lightskyblue" stroke="black" d="M432,-502C432,-502 380,-502 380,-502 374,-502 368,-496 368,-490 368,-490 368,-478 368,-478 368,-472 374,-466 380,-466 380,-466 432,-466 432,-466 438,-466 444,-472 444,-478 444,-478 444,-490 444,-490 444,-496 438,-502 432,-502"/>
<text text-anchor="middle" x="406" y="-480.3" font-family="Helvetica,sans-Serif" font-size="14.00">Subtract</text>
</g>
<!-- mergedQ -->
<g id="node34" class="node">
<title>mergedQ</title>
<polygon fill="grey" stroke="black" points="497.72,-182 388.4,-182 360.28,-146 469.6,-146 497.72,-182"/>
<text text-anchor="middle" x="429" y="-160.3" font-family="Times,serif" font-size="14.00">Merged</text>
</g>
<!-- subtractMerged&#45;&gt;mergedQ -->
<g id="edge51" class="edge">
<title>subtractMerged&#45;&gt;mergedQ</title>
<path fill="none" stroke="black" d="M408.25,-465.78C410.3,-448.63 413,-421.54 413,-398 413,-398 413,-398 413,-250 413,-230.41 417.15,-208.72 421.23,-192.15"/>
<polygon fill="black" stroke="black" points="424.72,-192.64 423.85,-182.08 417.94,-190.88 424.72,-192.64"/>
<text text-anchor="middle" x="494" y="-320.3" font-family="Helvetica,sans-Serif" font-size="14.00">If can is not processed.</text>
</g>
<!-- errorCorrection -->
<g id="node26" class="node">
<title>errorCorrection</title>
<polygon fill="lightseagreen" stroke="black" points="561.5,-109 296.5,-109 296.5,-73 561.5,-73 561.5,-109"/>
<text text-anchor="middle" x="429" y="-87.3" font-family="Helvetica,sans-Serif" font-size="14.00">Error Correction Merged Workspace</text>
</g>
<!-- errorCorrection&#45;&gt;outputWorkspace -->
<g id="edge53" class="edge">
<title>errorCorrection&#45;&gt;outputWorkspace</title>
<path fill="none" stroke="black" d="M429,-72.81C429,-64.79 429,-55.05 429,-46.07"/>
<polygon fill="black" stroke="black" points="432.5,-46.03 429,-36.03 425.5,-46.03 432.5,-46.03"/>
</g>
<!-- calculateMergedQ&#45;&gt;subtractMerged -->
<g id="edge49" class="edge">
<title>calculateMergedQ&#45;&gt;subtractMerged</title>
<path fill="none" stroke="black" d="M722.25,-269.06C709.57,-274.27 696.03,-280.39 684,-287 587.37,-340.09 483.82,-419.99 434.84,-459.36"/>
<polygon fill="black" stroke="black" points="432.48,-456.76 426.9,-465.77 436.88,-462.21 432.48,-456.76"/>
</g>
<!-- calculateMergedQ&#45;&gt;mergedQ -->
<g id="edge50" class="edge">
<title>calculateMergedQ&#45;&gt;mergedQ</title>
<path fill="none" stroke="black" d="M700.6,-232.9C644.69,-218.92 565.62,-199.16 507.21,-184.55"/>
<polygon fill="black" stroke="black" points="507.84,-181.1 497.29,-182.07 506.14,-187.89 507.84,-181.1"/>
<text text-anchor="middle" x="686.5" y="-203.8" font-family="Helvetica,sans-Serif" font-size="14.00">If can is processed.</text>
</g>
<!-- calculateMergedQCan&#45;&gt;subtractMerged -->
<g id="edge15" class="edge">
<title>calculateMergedQCan&#45;&gt;subtractMerged</title>
<path fill="none" stroke="black" d="M400.28,-561.35C401.31,-547.64 402.77,-528.17 403.95,-512.32"/>
<polygon fill="black" stroke="black" points="407.47,-512.27 404.72,-502.04 400.49,-511.75 407.47,-512.27"/>
</g>
<!-- readCanInputs&#45;&gt;hABCountsCan -->
<g id="edge1" class="edge">
<title>readCanInputs&#45;&gt;hABCountsCan</title>
<path fill="none" stroke="black" d="M288.16,-715.99C247.08,-704.51 193.18,-689.44 152.76,-678.15"/>
<polygon fill="black" stroke="black" points="153.62,-674.75 143.05,-675.43 151.74,-681.49 153.62,-674.75"/>
</g>
<!-- readCanInputs&#45;&gt;lABCountsCan -->
<g id="edge2" class="edge">
<title>readCanInputs&#45;&gt;lABCountsCan</title>
<path fill="none" stroke="black" d="M369.58,-715.81C380.59,-706.61 394.32,-695.15 406.27,-685.17"/>
<polygon fill="black" stroke="black" points="408.77,-687.64 414.2,-678.54 404.28,-682.26 408.77,-687.64"/>
</g>
<!-- readCanInputs&#45;&gt;hABNormCan -->
<g id="edge3" class="edge">
<title>readCanInputs&#45;&gt;hABNormCan</title>
<path fill="none" stroke="black" d="M328.67,-715.81C317.78,-706.61 304.21,-695.15 292.41,-685.17"/>
<polygon fill="black" stroke="black" points="294.47,-682.32 284.57,-678.54 289.95,-687.67 294.47,-682.32"/>
</g>
<!-- readCanInputs&#45;&gt;lABNormCan -->
<g id="edge4" class="edge">
<title>readCanInputs&#45;&gt;lABNormCan</title>
<path fill="none" stroke="black" d="M409.36,-715.99C450.79,-704.32 505.36,-688.95 545.67,-677.59"/>
<polygon fill="black" stroke="black" points="546.66,-680.95 555.33,-674.87 544.76,-674.21 546.66,-680.95"/>
</g>
<!-- copyShiftFactor&#45;&gt;outShiftFactor -->
<g id="edge41" class="edge">
<title>copyShiftFactor&#45;&gt;outShiftFactor</title>
<path fill="none" stroke="black" d="M1540.13,-385.52C1454.3,-372.28 1307.21,-349.57 1219.64,-336.06"/>
<polygon fill="black" stroke="black" points="1219.94,-332.56 1209.52,-334.5 1218.87,-339.48 1219.94,-332.56"/>
</g>
<!-- copyScaleFactor&#45;&gt;outScaleFactor -->
<g id="edge40" class="edge">
<title>copyScaleFactor&#45;&gt;outScaleFactor</title>
<path fill="none" stroke="black" d="M843,-378.81C843,-370.79 843,-361.05 843,-352.07"/>
<polygon fill="black" stroke="black" points="846.5,-352.03 843,-342.03 839.5,-352.03 846.5,-352.03"/>
</g>
<!-- valQLAB&#45;&gt;sansFitShiftScale -->
<g id="edge31" class="edge">
<title>valQLAB&#45;&gt;sansFitShiftScale</title>
<path fill="none" stroke="black" d="M1277.22,-465.8C1251.88,-452.51 1216.65,-434.02 1189.38,-419.71"/>
<polygon fill="black" stroke="black" points="1190.94,-416.58 1180.46,-415.03 1187.69,-422.78 1190.94,-416.58"/>
</g>
<!-- valQHAB&#45;&gt;sansFitShiftScale -->
<g id="edge30" class="edge">
<title>valQHAB&#45;&gt;sansFitShiftScale</title>
<path fill="none" stroke="black" d="M1058.66,-465.8C1075.52,-453.01 1098.7,-435.42 1117.22,-421.36"/>
<polygon fill="black" stroke="black" points="1119.52,-424.01 1125.37,-415.18 1115.29,-418.43 1119.52,-424.01"/>
</g>
<!-- mergedQ&#45;&gt;errorCorrection -->
<g id="edge52" class="edge">
<title>mergedQ&#45;&gt;errorCorrection</title>
<path fill="none" stroke="black" d="M429,-145.81C429,-137.79 429,-128.05 429,-119.07"/>
<polygon fill="black" stroke="black" points="432.5,-119.03 429,-109.03 425.5,-119.03 432.5,-119.03"/>
</g>
</g>
</svg>
