<?xml version="1.0" encoding="UTF-8" standalone="no"?>
<!DOCTYPE svg PUBLIC "-//W3C//DTD SVG 1.1//EN"
 "http://www.w3.org/Graphics/SVG/1.1/DTD/svg11.dtd">
<!-- Generated by graphviz version 3.0.0 (20220315.2325)
 -->
<!-- Title: SimpleShapeMonteCarloAbsorption Pages: 1 -->
<svg width="1231pt" height="738pt"
 viewBox="0.00 0.00 1230.99 738.00" xmlns="http://www.w3.org/2000/svg" xmlns:xlink="http://www.w3.org/1999/xlink">
<g id="graph0" class="graph" transform="scale(1 1) rotate(0) translate(4 734)">
<title>SimpleShapeMonteCarloAbsorption</title>
<polygon fill="white" stroke="transparent" points="-4,4 -4,-734 1226.99,-734 1226.99,4 -4,4"/>
<text text-anchor="middle" x="611.5" y="-714.8" font-family="Helvetica,sans-Serif" font-size="14.00">SimpleShapeMonteCarloAbsorption Flowchart</text>
<!-- InputWorkspace -->
<g id="node1" class="node">
<title>InputWorkspace</title>
<ellipse fill="khaki" stroke="black" cx="319.4" cy="-689" rx="84.49" ry="18"/>
<text text-anchor="middle" x="319.4" y="-685.3" font-family="Helvetica,sans-Serif" font-size="14.00">InputWorkspace</text>
</g>
<!-- SetBeam -->
<g id="node22" class="node">
<title>SetBeam</title>
<path fill="lightskyblue" stroke="black" d="M515.9,-634C515.9,-634 460.9,-634 460.9,-634 454.9,-634 448.9,-628 448.9,-622 448.9,-622 448.9,-610 448.9,-610 448.9,-604 454.9,-598 460.9,-598 460.9,-598 515.9,-598 515.9,-598 521.9,-598 527.9,-604 527.9,-610 527.9,-610 527.9,-622 527.9,-622 527.9,-628 521.9,-634 515.9,-634"/>
<text text-anchor="middle" x="488.4" y="-612.3" font-family="Helvetica,sans-Serif" font-size="14.00">SetBeam</text>
</g>
<!-- InputWorkspace&#45;&gt;SetBeam -->
<g id="edge1" class="edge">
<title>InputWorkspace&#45;&gt;SetBeam</title>
<path fill="none" stroke="black" d="M356.07,-672.59C380.45,-662.35 412.75,-648.78 439.34,-637.61"/>
<polygon fill="black" stroke="black" points="440.99,-640.71 448.85,-633.61 438.28,-634.26 440.99,-640.71"/>
</g>
<!-- OutputWorkspace -->
<g id="node2" class="node">
<title>OutputWorkspace</title>
<ellipse fill="khaki" stroke="black" cx="436.4" cy="-18" rx="92.08" ry="18"/>
<text text-anchor="middle" x="436.4" y="-14.3" font-family="Helvetica,sans-Serif" font-size="14.00">OutputWorkspace</text>
</g>
<!-- BeamHeight -->
<g id="node3" class="node">
<title>BeamHeight</title>
<ellipse fill="khaki" stroke="black" cx="488.4" cy="-689" rx="66.09" ry="18"/>
<text text-anchor="middle" x="488.4" y="-685.3" font-family="Helvetica,sans-Serif" font-size="14.00">BeamHeight</text>
</g>
<!-- BeamHeight&#45;&gt;SetBeam -->
<g id="edge2" class="edge">
<title>BeamHeight&#45;&gt;SetBeam</title>
<path fill="none" stroke="black" d="M488.4,-670.81C488.4,-662.79 488.4,-653.05 488.4,-644.07"/>
<polygon fill="black" stroke="black" points="491.9,-644.03 488.4,-634.03 484.9,-644.03 491.9,-644.03"/>
</g>
<!-- BeamWidth -->
<g id="node4" class="node">
<title>BeamWidth</title>
<ellipse fill="khaki" stroke="black" cx="635.4" cy="-689" rx="63.09" ry="18"/>
<text text-anchor="middle" x="635.4" y="-685.3" font-family="Helvetica,sans-Serif" font-size="14.00">BeamWidth</text>
</g>
<!-- BeamWidth&#45;&gt;SetBeam -->
<g id="edge3" class="edge">
<title>BeamWidth&#45;&gt;SetBeam</title>
<path fill="none" stroke="black" d="M604.58,-673.12C583.86,-663.11 556.22,-649.76 533.09,-638.59"/>
<polygon fill="black" stroke="black" points="534.35,-635.31 523.82,-634.11 531.31,-641.61 534.35,-635.31"/>
</g>
<!-- ChemicalFormula -->
<g id="node5" class="node">
<title>ChemicalFormula</title>
<ellipse fill="khaki" stroke="black" cx="772.4" cy="-543" rx="89.08" ry="18"/>
<text text-anchor="middle" x="772.4" y="-539.3" font-family="Helvetica,sans-Serif" font-size="14.00">ChemicalFormula</text>
</g>
<!-- Material -->
<g id="node26" class="node">
<title>Material</title>
<polygon fill="grey" stroke="black" points="803.65,-474 687.12,-474 657.14,-438 773.67,-438 803.65,-474"/>
<text text-anchor="middle" x="730.4" y="-452.3" font-family="Times,serif" font-size="14.00">Material</text>
</g>
<!-- ChemicalFormula&#45;&gt;Material -->
<g id="edge7" class="edge">
<title>ChemicalFormula&#45;&gt;Material</title>
<path fill="none" stroke="black" d="M763.9,-524.8C758.03,-512.93 750.13,-496.93 743.47,-483.45"/>
<polygon fill="black" stroke="black" points="746.45,-481.59 738.88,-474.18 740.18,-484.69 746.45,-481.59"/>
</g>
<!-- Density -->
<g id="node6" class="node">
<title>Density</title>
<ellipse fill="khaki" stroke="black" cx="990.4" cy="-543" rx="110.48" ry="18"/>
<text text-anchor="middle" x="990.4" y="-539.3" font-family="Helvetica,sans-Serif" font-size="14.00">Mass/Number Density</text>
</g>
<!-- Density&#45;&gt;Material -->
<g id="edge8" class="edge">
<title>Density&#45;&gt;Material</title>
<path fill="none" stroke="black" d="M943.31,-526.61C900.96,-512.76 838.46,-492.33 792.12,-477.18"/>
<polygon fill="black" stroke="black" points="793.08,-473.81 782.49,-474.03 790.9,-480.46 793.08,-473.81"/>
</g>
<!-- Height1 -->
<g id="node7" class="node">
<title>Height1</title>
<ellipse fill="khaki" stroke="black" cx="131.4" cy="-383" rx="40.09" ry="18"/>
<text text-anchor="middle" x="131.4" y="-379.3" font-family="Helvetica,sans-Serif" font-size="14.00">Height</text>
</g>
<!-- FlatPlate -->
<g id="node27" class="node">
<title>FlatPlate</title>
<polygon fill="grey" stroke="black" points="415.68,-328 291.15,-328 259.11,-292 383.64,-292 415.68,-328"/>
<text text-anchor="middle" x="337.4" y="-306.3" font-family="Times,serif" font-size="14.00">FlatPlate</text>
</g>
<!-- Height1&#45;&gt;FlatPlate -->
<g id="edge14" class="edge">
<title>Height1&#45;&gt;FlatPlate</title>
<path fill="none" stroke="black" d="M162.24,-371.29C168.26,-369.2 174.52,-367.03 180.4,-365 213.56,-353.54 250.69,-340.77 280.51,-330.53"/>
<polygon fill="black" stroke="black" points="282.01,-333.71 290.33,-327.15 279.73,-327.09 282.01,-333.71"/>
</g>
<!-- Height2 -->
<g id="node8" class="node">
<title>Height2</title>
<ellipse fill="khaki" stroke="black" cx="781.4" cy="-383" rx="40.09" ry="18"/>
<text text-anchor="middle" x="781.4" y="-379.3" font-family="Helvetica,sans-Serif" font-size="14.00">Height</text>
</g>
<!-- Cylinder -->
<g id="node28" class="node">
<title>Cylinder</title>
<polygon fill="grey" stroke="black" points="754.65,-328 638.12,-328 608.14,-292 724.67,-292 754.65,-328"/>
<text text-anchor="middle" x="681.4" y="-306.3" font-family="Times,serif" font-size="14.00">Cylinder</text>
</g>
<!-- Height2&#45;&gt;Cylinder -->
<g id="edge19" class="edge">
<title>Height2&#45;&gt;Cylinder</title>
<path fill="none" stroke="black" d="M760.68,-367.29C747.16,-357.69 729.24,-344.97 713.85,-334.04"/>
<polygon fill="black" stroke="black" points="715.79,-331.13 705.61,-328.19 711.74,-336.84 715.79,-331.13"/>
</g>
<!-- Height3 -->
<g id="node9" class="node">
<title>Height3</title>
<ellipse fill="khaki" stroke="black" cx="880.4" cy="-383" rx="40.09" ry="18"/>
<text text-anchor="middle" x="880.4" y="-379.3" font-family="Helvetica,sans-Serif" font-size="14.00">Height</text>
</g>
<!-- Annulus -->
<g id="node29" class="node">
<title>Annulus</title>
<polygon fill="grey" stroke="black" points="950.93,-328 838.73,-328 809.86,-292 922.07,-292 950.93,-328"/>
<text text-anchor="middle" x="880.4" y="-306.3" font-family="Times,serif" font-size="14.00">Annulus</text>
</g>
<!-- Height3&#45;&gt;Annulus -->
<g id="edge20" class="edge">
<title>Height3&#45;&gt;Annulus</title>
<path fill="none" stroke="black" d="M880.4,-364.81C880.4,-356.79 880.4,-347.05 880.4,-338.07"/>
<polygon fill="black" stroke="black" points="883.9,-338.03 880.4,-328.03 876.9,-338.03 883.9,-338.03"/>
</g>
<!-- Width -->
<g id="node10" class="node">
<title>Width</title>
<ellipse fill="khaki" stroke="black" cx="226.4" cy="-383" rx="37.09" ry="18"/>
<text text-anchor="middle" x="226.4" y="-379.3" font-family="Helvetica,sans-Serif" font-size="14.00">Width</text>
</g>
<!-- Width&#45;&gt;FlatPlate -->
<g id="edge13" class="edge">
<title>Width&#45;&gt;FlatPlate</title>
<path fill="none" stroke="black" d="M248.06,-368.14C263.46,-358.29 284.48,-344.85 302.26,-333.48"/>
<polygon fill="black" stroke="black" points="304.15,-336.42 310.69,-328.08 300.38,-330.52 304.15,-336.42"/>
</g>
<!-- Thickness -->
<g id="node11" class="node">
<title>Thickness</title>
<ellipse fill="khaki" stroke="black" cx="337.4" cy="-383" rx="55.79" ry="18"/>
<text text-anchor="middle" x="337.4" y="-379.3" font-family="Helvetica,sans-Serif" font-size="14.00">Thickness</text>
</g>
<!-- Thickness&#45;&gt;FlatPlate -->
<g id="edge15" class="edge">
<title>Thickness&#45;&gt;FlatPlate</title>
<path fill="none" stroke="black" d="M337.4,-364.81C337.4,-356.79 337.4,-347.05 337.4,-338.07"/>
<polygon fill="black" stroke="black" points="340.9,-338.03 337.4,-328.03 333.9,-338.03 340.9,-338.03"/>
</g>
<!-- Center -->
<g id="node12" class="node">
<title>Center</title>
<ellipse fill="khaki" stroke="black" cx="452.4" cy="-383" rx="40.89" ry="18"/>
<text text-anchor="middle" x="452.4" y="-379.3" font-family="Helvetica,sans-Serif" font-size="14.00">Center</text>
</g>
<!-- Center&#45;&gt;FlatPlate -->
<g id="edge16" class="edge">
<title>Center&#45;&gt;FlatPlate</title>
<path fill="none" stroke="black" d="M429.68,-367.97C413.7,-358.11 391.99,-344.7 373.64,-333.37"/>
<polygon fill="black" stroke="black" points="375.29,-330.28 364.94,-328 371.61,-336.23 375.29,-330.28"/>
</g>
<!-- Angle -->
<g id="node13" class="node">
<title>Angle</title>
<ellipse fill="khaki" stroke="black" cx="36.4" cy="-383" rx="36.29" ry="18"/>
<text text-anchor="middle" x="36.4" y="-379.3" font-family="Helvetica,sans-Serif" font-size="14.00">Angle</text>
</g>
<!-- Angle&#45;&gt;FlatPlate -->
<g id="edge17" class="edge">
<title>Angle&#45;&gt;FlatPlate</title>
<path fill="none" stroke="black" d="M63.91,-371.09C69.95,-368.91 76.34,-366.75 82.4,-365 146.59,-346.45 221.56,-331.33 273.53,-321.86"/>
<polygon fill="black" stroke="black" points="274.38,-325.26 283.6,-320.04 273.14,-318.37 274.38,-325.26"/>
</g>
<!-- Radius -->
<g id="node14" class="node">
<title>Radius</title>
<ellipse fill="khaki" stroke="black" cx="681.4" cy="-383" rx="41.69" ry="18"/>
<text text-anchor="middle" x="681.4" y="-379.3" font-family="Helvetica,sans-Serif" font-size="14.00">Radius</text>
</g>
<!-- Radius&#45;&gt;Cylinder -->
<g id="edge18" class="edge">
<title>Radius&#45;&gt;Cylinder</title>
<path fill="none" stroke="black" d="M681.4,-364.81C681.4,-356.79 681.4,-347.05 681.4,-338.07"/>
<polygon fill="black" stroke="black" points="684.9,-338.03 681.4,-328.03 677.9,-338.03 684.9,-338.03"/>
</g>
<!-- InnerRadius -->
<g id="node15" class="node">
<title>InnerRadius</title>
<ellipse fill="khaki" stroke="black" cx="1004.4" cy="-383" rx="65.79" ry="18"/>
<text text-anchor="middle" x="1004.4" y="-379.3" font-family="Helvetica,sans-Serif" font-size="14.00">InnerRadius</text>
</g>
<!-- InnerRadius&#45;&gt;Annulus -->
<g id="edge21" class="edge">
<title>InnerRadius&#45;&gt;Annulus</title>
<path fill="none" stroke="black" d="M977.18,-366.42C960.07,-356.62 937.74,-343.83 918.84,-333.01"/>
<polygon fill="black" stroke="black" points="920.57,-329.97 910.15,-328.04 917.09,-336.04 920.57,-329.97"/>
</g>
<!-- OuterRadius -->
<g id="node16" class="node">
<title>OuterRadius</title>
<ellipse fill="khaki" stroke="black" cx="1155.4" cy="-383" rx="67.69" ry="18"/>
<text text-anchor="middle" x="1155.4" y="-379.3" font-family="Helvetica,sans-Serif" font-size="14.00">OuterRadius</text>
</g>
<!-- OuterRadius&#45;&gt;Annulus -->
<g id="edge22" class="edge">
<title>OuterRadius&#45;&gt;Annulus</title>
<path fill="none" stroke="black" d="M1108.75,-369.96C1067.03,-359.18 1005.11,-343.2 956.27,-330.59"/>
<polygon fill="black" stroke="black" points="956.94,-327.15 946.38,-328.04 955.19,-333.92 956.94,-327.15"/>
</g>
<!-- EventsPerPoint -->
<g id="node17" class="node">
<title>EventsPerPoint</title>
<ellipse fill="khaki" stroke="black" cx="88.4" cy="-237" rx="78.79" ry="18"/>
<text text-anchor="middle" x="88.4" y="-233.3" font-family="Helvetica,sans-Serif" font-size="14.00">EventsPerPoint</text>
</g>
<!-- MonteCarloAbsorption -->
<g id="node24" class="node">
<title>MonteCarloAbsorption</title>
<path fill="lightskyblue" stroke="black" d="M509.9,-182C509.9,-182 362.9,-182 362.9,-182 356.9,-182 350.9,-176 350.9,-170 350.9,-170 350.9,-158 350.9,-158 350.9,-152 356.9,-146 362.9,-146 362.9,-146 509.9,-146 509.9,-146 515.9,-146 521.9,-152 521.9,-158 521.9,-158 521.9,-170 521.9,-170 521.9,-176 515.9,-182 509.9,-182"/>
<text text-anchor="middle" x="436.4" y="-160.3" font-family="Helvetica,sans-Serif" font-size="14.00">MonteCarloAbsorption</text>
</g>
<!-- EventsPerPoint&#45;&gt;MonteCarloAbsorption -->
<g id="edge27" class="edge">
<title>EventsPerPoint&#45;&gt;MonteCarloAbsorption</title>
<path fill="none" stroke="black" d="M145.08,-224.43C198.65,-213.51 279.98,-196.91 343.1,-184.03"/>
<polygon fill="black" stroke="black" points="343.97,-187.43 353.07,-182 342.57,-180.57 343.97,-187.43"/>
</g>
<!-- NumberOfWavelengthPoints -->
<g id="node18" class="node">
<title>NumberOfWavelengthPoints</title>
<ellipse fill="khaki" stroke="black" cx="324.4" cy="-237" rx="139.18" ry="18"/>
<text text-anchor="middle" x="324.4" y="-233.3" font-family="Helvetica,sans-Serif" font-size="14.00">NumberOfWavelengthPoints</text>
</g>
<!-- NumberOfWavelengthPoints&#45;&gt;MonteCarloAbsorption -->
<g id="edge28" class="edge">
<title>NumberOfWavelengthPoints&#45;&gt;MonteCarloAbsorption</title>
<path fill="none" stroke="black" d="M350.94,-219.17C365.78,-209.76 384.49,-197.9 400.62,-187.68"/>
<polygon fill="black" stroke="black" points="402.69,-190.51 409.27,-182.2 398.95,-184.6 402.69,-190.51"/>
</g>
<!-- Interpolation -->
<g id="node19" class="node">
<title>Interpolation</title>
<ellipse fill="khaki" stroke="black" cx="549.4" cy="-237" rx="68.49" ry="18"/>
<text text-anchor="middle" x="549.4" y="-233.3" font-family="Helvetica,sans-Serif" font-size="14.00">Interpolation</text>
</g>
<!-- Interpolation&#45;&gt;MonteCarloAbsorption -->
<g id="edge29" class="edge">
<title>Interpolation&#45;&gt;MonteCarloAbsorption</title>
<path fill="none" stroke="black" d="M524.32,-220.24C509.04,-210.64 489.26,-198.21 472.33,-187.58"/>
<polygon fill="black" stroke="black" points="474.11,-184.56 463.78,-182.2 470.38,-190.49 474.11,-184.56"/>
</g>
<!-- material_already_defined -->
<g id="node20" class="node">
<title>material_already_defined</title>
<polygon fill="limegreen" stroke="black" points="488.4,-561 311.94,-543 488.4,-525 664.85,-543 488.4,-561"/>
<text text-anchor="middle" x="488.4" y="-539.3" font-family="Helvetica,sans-Serif" font-size="14.00">Material already defined?</text>
</g>
<!-- Shape -->
<g id="node21" class="node">
<title>Shape</title>
<polygon fill="limegreen" stroke="black" points="566.4,-401 511.1,-383 566.4,-365 621.7,-383 566.4,-401"/>
<text text-anchor="middle" x="566.4" y="-379.3" font-family="Helvetica,sans-Serif" font-size="14.00">Shape</text>
</g>
<!-- material_already_defined&#45;&gt;Shape -->
<g id="edge5" class="edge">
<title>material_already_defined&#45;&gt;Shape</title>
<path fill="none" stroke="black" d="M496.45,-525.69C510.21,-497.82 538.3,-440.91 554.38,-408.33"/>
<polygon fill="black" stroke="black" points="557.67,-409.58 558.96,-399.06 551.4,-406.48 557.67,-409.58"/>
<text text-anchor="middle" x="551.9" y="-452.3" font-family="Helvetica,sans-Serif" font-size="14.00">Yes</text>
</g>
<!-- material_already_defined&#45;&gt;Material -->
<g id="edge6" class="edge">
<title>material_already_defined&#45;&gt;Material</title>
<path fill="none" stroke="black" d="M525.94,-528.81C566.23,-514.66 630.57,-492.06 676.3,-476"/>
<polygon fill="black" stroke="black" points="677.49,-479.29 685.77,-472.68 675.17,-472.69 677.49,-479.29"/>
<text text-anchor="middle" x="632.9" y="-495.8" font-family="Helvetica,sans-Serif" font-size="14.00">No</text>
</g>
<!-- Shape&#45;&gt;FlatPlate -->
<g id="edge10" class="edge">
<title>Shape&#45;&gt;FlatPlate</title>
<path fill="none" stroke="black" d="M539.23,-373.58C505.67,-363.17 447.48,-345.13 402.18,-331.09"/>
<polygon fill="black" stroke="black" points="403.02,-327.68 392.43,-328.06 400.95,-334.37 403.02,-327.68"/>
</g>
<!-- Shape&#45;&gt;Cylinder -->
<g id="edge11" class="edge">
<title>Shape&#45;&gt;Cylinder</title>
<path fill="none" stroke="black" d="M584.62,-370.75C600.84,-360.74 625.05,-345.79 645.19,-333.35"/>
<polygon fill="black" stroke="black" points="647.16,-336.25 653.83,-328.02 643.48,-330.29 647.16,-336.25"/>
</g>
<!-- Shape&#45;&gt;Annulus -->
<g id="edge12" class="edge">
<title>Shape&#45;&gt;Annulus</title>
<path fill="none" stroke="black" d="M594.68,-374.18C605.79,-371.19 618.66,-367.82 630.4,-365 696.17,-349.17 772.19,-333.06 822.97,-322.61"/>
<polygon fill="black" stroke="black" points="823.69,-326.03 832.78,-320.59 822.28,-319.17 823.69,-326.03"/>
</g>
<!-- SetBeam&#45;&gt;material_already_defined -->
<g id="edge4" class="edge">
<title>SetBeam&#45;&gt;material_already_defined</title>
<path fill="none" stroke="black" d="M488.4,-597.81C488.4,-589.79 488.4,-580.05 488.4,-571.07"/>
<polygon fill="black" stroke="black" points="491.9,-571.03 488.4,-561.03 484.9,-571.03 491.9,-571.03"/>
</g>
<!-- SetSample -->
<g id="node23" class="node">
<title>SetSample</title>
<path fill="lightskyblue" stroke="black" d="M714.9,-255C714.9,-255 647.9,-255 647.9,-255 641.9,-255 635.9,-249 635.9,-243 635.9,-243 635.9,-231 635.9,-231 635.9,-225 641.9,-219 647.9,-219 647.9,-219 714.9,-219 714.9,-219 720.9,-219 726.9,-225 726.9,-231 726.9,-231 726.9,-243 726.9,-243 726.9,-249 720.9,-255 714.9,-255"/>
<text text-anchor="middle" x="681.4" y="-233.3" font-family="Helvetica,sans-Serif" font-size="14.00">SetSample</text>
</g>
<!-- SetSample&#45;&gt;MonteCarloAbsorption -->
<g id="edge26" class="edge">
<title>SetSample&#45;&gt;MonteCarloAbsorption</title>
<path fill="none" stroke="black" d="M635.8,-221.82C632.62,-220.86 629.46,-219.91 626.4,-219 587.18,-207.37 543.26,-194.85 507.53,-184.8"/>
<polygon fill="black" stroke="black" points="508.25,-181.37 497.68,-182.03 506.36,-188.11 508.25,-181.37"/>
</g>
<!-- AddSampleLogMultiple -->
<g id="node25" class="node">
<title>AddSampleLogMultiple</title>
<path fill="lightskyblue" stroke="black" d="M512.4,-109C512.4,-109 360.4,-109 360.4,-109 354.4,-109 348.4,-103 348.4,-97 348.4,-97 348.4,-85 348.4,-85 348.4,-79 354.4,-73 360.4,-73 360.4,-73 512.4,-73 512.4,-73 518.4,-73 524.4,-79 524.4,-85 524.4,-85 524.4,-97 524.4,-97 524.4,-103 518.4,-109 512.4,-109"/>
<text text-anchor="middle" x="436.4" y="-87.3" font-family="Helvetica,sans-Serif" font-size="14.00">AddSampleLogMultiple</text>
</g>
<!-- MonteCarloAbsorption&#45;&gt;AddSampleLogMultiple -->
<g id="edge30" class="edge">
<title>MonteCarloAbsorption&#45;&gt;AddSampleLogMultiple</title>
<path fill="none" stroke="black" d="M436.4,-145.81C436.4,-137.79 436.4,-128.05 436.4,-119.07"/>
<polygon fill="black" stroke="black" points="439.9,-119.03 436.4,-109.03 432.9,-119.03 439.9,-119.03"/>
</g>
<!-- AddSampleLogMultiple&#45;&gt;OutputWorkspace -->
<g id="edge31" class="edge">
<title>AddSampleLogMultiple&#45;&gt;OutputWorkspace</title>
<path fill="none" stroke="black" d="M436.4,-72.81C436.4,-64.79 436.4,-55.05 436.4,-46.07"/>
<polygon fill="black" stroke="black" points="439.9,-46.03 436.4,-36.03 432.9,-46.03 439.9,-46.03"/>
</g>
<!-- Material&#45;&gt;Shape -->
<g id="edge9" class="edge">
<title>Material&#45;&gt;Shape</title>
<path fill="none" stroke="black" d="M691.11,-437.99C662.76,-425.72 624.94,-409.35 598.41,-397.86"/>
<polygon fill="black" stroke="black" points="599.76,-394.63 589.19,-393.87 596.98,-401.05 599.76,-394.63"/>
</g>
<!-- FlatPlate&#45;&gt;SetSample -->
<g id="edge23" class="edge">
<title>FlatPlate&#45;&gt;SetSample</title>
<path fill="none" stroke="black" d="M391.59,-300.79C447.86,-291.83 538.53,-276.2 626.06,-254.92"/>
<polygon fill="black" stroke="black" points="627.02,-258.29 635.89,-252.51 625.34,-251.5 627.02,-258.29"/>
</g>
<!-- Cylinder&#45;&gt;SetSample -->
<g id="edge24" class="edge">
<title>Cylinder&#45;&gt;SetSample</title>
<path fill="none" stroke="black" d="M681.4,-291.81C681.4,-283.79 681.4,-274.05 681.4,-265.07"/>
<polygon fill="black" stroke="black" points="684.9,-265.03 681.4,-255.03 677.9,-265.03 684.9,-265.03"/>
</g>
<!-- Annulus&#45;&gt;SetSample -->
<g id="edge25" class="edge">
<title>Annulus&#45;&gt;SetSample</title>
<path fill="none" stroke="black" d="M832.73,-291.99C803.78,-281.67 766.71,-268.44 736.51,-257.66"/>
<polygon fill="black" stroke="black" points="737.56,-254.32 726.96,-254.26 735.21,-260.91 737.56,-254.32"/>
</g>
</g>
</svg>
