<?xml version="1.0" encoding="UTF-8" standalone="no"?>
<!DOCTYPE svg PUBLIC "-//W3C//DTD SVG 1.1//EN"
 "http://www.w3.org/Graphics/SVG/1.1/DTD/svg11.dtd">
<!-- Generated by graphviz version 7.0.5 (20221231.0122)
 -->
<!-- Title: SimulatedDensityOfStates Pages: 1 -->
<svg width="3969pt" height="707pt"
 viewBox="0.00 0.00 3969.00 707.00" xmlns="http://www.w3.org/2000/svg" xmlns:xlink="http://www.w3.org/1999/xlink">
<g id="graph0" class="graph" transform="scale(1 1) rotate(0) translate(4 703)">
<title>SimulatedDensityOfStates</title>
<polygon fill="white" stroke="none" points="-4,4 -4,-703 3965,-703 3965,4 -4,4"/>
<text text-anchor="middle" x="1980.5" y="-683.8" font-family="Helvetica,sans-Serif" font-size="14.00">SimulatedDensityOfStates Flowchart</text>
<!-- CASTEPFile -->
<g id="node1" class="node">
<title>CASTEPFile</title>
<ellipse fill="khaki" stroke="black" cx="1358" cy="-658" rx="61.19" ry="18"/>
<text text-anchor="middle" x="1358" y="-654.3" font-family="Helvetica,sans-Serif" font-size="14.00">CASTEPFile</text>
</g>
<!-- read_data_from_file -->
<g id="node23" class="node">
<title>read_data_from_file</title>
<polygon fill="lightseagreen" stroke="black" points="1506,-603 1354,-603 1354,-567 1506,-567 1506,-603"/>
<text text-anchor="middle" x="1430" y="-581.3" font-family="Helvetica,sans-Serif" font-size="14.00">read_data_from_file</text>
</g>
<!-- CASTEPFile&#45;&gt;read_data_from_file -->
<g id="edge1" class="edge">
<title>CASTEPFile&#45;&gt;read_data_from_file</title>
<path fill="none" stroke="black" d="M1374.7,-640.53C1383.53,-631.83 1394.55,-620.95 1404.43,-611.21"/>
<polygon fill="black" stroke="black" points="1406.65,-613.94 1411.31,-604.43 1401.73,-608.96 1406.65,-613.94"/>
</g>
<!-- PHONONFile -->
<g id="node2" class="node">
<title>PHONONFile</title>
<ellipse fill="khaki" stroke="black" cx="1503" cy="-658" rx="66.09" ry="18"/>
<text text-anchor="middle" x="1503" y="-654.3" font-family="Helvetica,sans-Serif" font-size="14.00">PHONONFile</text>
</g>
<!-- PHONONFile&#45;&gt;read_data_from_file -->
<g id="edge2" class="edge">
<title>PHONONFile&#45;&gt;read_data_from_file</title>
<path fill="none" stroke="black" d="M1485.7,-640.17C1476.81,-631.52 1465.79,-620.81 1455.9,-611.19"/>
<polygon fill="black" stroke="black" points="1458.63,-608.97 1449.02,-604.5 1453.75,-613.98 1458.63,-608.97"/>
</g>
<!-- SpectrumType -->
<g id="node3" class="node">
<title>SpectrumType</title>
<ellipse fill="khaki" stroke="black" cx="1430" cy="-439" rx="75.29" ry="18"/>
<text text-anchor="middle" x="1430" y="-435.3" font-family="Helvetica,sans-Serif" font-size="14.00">SpectrumType</text>
</g>
<!-- Ions -->
<g id="node4" class="node">
<title>Ions</title>
<ellipse fill="khaki" stroke="black" cx="1321" cy="-352" rx="29.8" ry="18"/>
<text text-anchor="middle" x="1321" y="-348.3" font-family="Helvetica,sans-Serif" font-size="14.00">Ions</text>
</g>
<!-- SpectrumType&#45;&gt;Ions -->
<g id="edge18" class="edge">
<title>SpectrumType&#45;&gt;Ions</title>
<path fill="none" stroke="black" d="M1426.06,-420.71C1422.83,-410.02 1417.23,-396.73 1408,-388 1391.45,-372.34 1381.12,-378.56 1360,-370 1358.26,-369.29 1356.48,-368.56 1354.68,-367.81"/>
<polygon fill="black" stroke="black" points="1356.39,-364.74 1345.82,-364.04 1353.65,-371.18 1356.39,-364.74"/>
<text text-anchor="middle" x="1531.5" y="-391.8" font-family="Helvetica,sans-Serif" font-size="14.00">DOS and scale_by_cross_section</text>
</g>
<!-- partial_ions -->
<g id="node18" class="node">
<title>partial_ions</title>
<ellipse fill="khaki" stroke="black" cx="1211" cy="-352" rx="62.29" ry="18"/>
<text text-anchor="middle" x="1211" y="-348.3" font-family="Helvetica,sans-Serif" font-size="14.00">partial_ions</text>
</g>
<!-- SpectrumType&#45;&gt;partial_ions -->
<g id="edge9" class="edge">
<title>SpectrumType&#45;&gt;partial_ions</title>
<path fill="none" stroke="black" d="M1355.11,-436.3C1298.27,-433.25 1226.79,-424.99 1208,-403 1202.91,-397.05 1201.78,-389.1 1202.44,-381.29"/>
<polygon fill="black" stroke="black" points="1205.84,-382.16 1204.18,-371.7 1198.95,-380.91 1205.84,-382.16"/>
<text text-anchor="middle" x="1306" y="-391.8" font-family="Helvetica,sans-Serif" font-size="14.00">DOS and ions given in input</text>
</g>
<!-- ion_table_process -->
<g id="node24" class="node">
<title>ion_table_process</title>
<polygon fill="lightseagreen" stroke="black" points="661.5,-370 6.5,-370 6.5,-334 661.5,-334 661.5,-370"/>
<text text-anchor="middle" x="334" y="-348.3" font-family="Helvetica,sans-Serif" font-size="14.00">Extract ion data from file, convert data to cartesian coordinates and add to table workspace</text>
</g>
<!-- SpectrumType&#45;&gt;ion_table_process -->
<g id="edge5" class="edge">
<title>SpectrumType&#45;&gt;ion_table_process</title>
<path fill="none" stroke="black" d="M1359.35,-432.52C1203.05,-420.4 821.93,-390.84 570.95,-371.38"/>
<polygon fill="black" stroke="black" points="571.23,-367.89 560.98,-370.6 570.68,-374.87 571.23,-367.89"/>
<text text-anchor="middle" x="977" y="-391.8" font-family="Helvetica,sans-Serif" font-size="14.00">IonTable</text>
</g>
<!-- bond_table_process -->
<g id="node25" class="node">
<title>bond_table_process</title>
<polygon fill="lightseagreen" stroke="black" points="1130.5,-370 679.5,-370 679.5,-334 1130.5,-334 1130.5,-370"/>
<text text-anchor="middle" x="905" y="-348.3" font-family="Helvetica,sans-Serif" font-size="14.00">Extract bond data from file and add the data to the bond table</text>
</g>
<!-- SpectrumType&#45;&gt;bond_table_process -->
<g id="edge7" class="edge">
<title>SpectrumType&#45;&gt;bond_table_process</title>
<path fill="none" stroke="black" d="M1359.97,-432.1C1298.16,-426.38 1205.74,-416.57 1126,-403 1078.65,-394.94 1026.2,-383.2 984.28,-373.12"/>
<polygon fill="black" stroke="black" points="985.32,-369.77 974.78,-370.81 983.67,-376.57 985.32,-369.77"/>
<text text-anchor="middle" x="1162.5" y="-391.8" font-family="Helvetica,sans-Serif" font-size="14.00">BondTable</text>
</g>
<!-- compute_DOS -->
<g id="node28" class="node">
<title>compute_DOS</title>
<polygon fill="lightseagreen" stroke="black" points="2203.5,-370 1484.5,-370 1484.5,-334 2203.5,-334 2203.5,-370"/>
<text text-anchor="middle" x="1844" y="-348.3" font-family="Helvetica,sans-Serif" font-size="14.00">Uses frequencies and weights from file to create a matrix workspace containing the Density of states</text>
</g>
<!-- SpectrumType&#45;&gt;compute_DOS -->
<g id="edge25" class="edge">
<title>SpectrumType&#45;&gt;compute_DOS</title>
<path fill="none" stroke="black" d="M1494.19,-429.26C1537.76,-422.94 1596.58,-413.66 1648,-403 1688.82,-394.53 1733.93,-383.17 1770.58,-373.41"/>
<polygon fill="black" stroke="black" points="1771.45,-376.8 1780.2,-370.83 1769.64,-370.04 1771.45,-376.8"/>
<text text-anchor="middle" x="1728.5" y="-391.8" font-family="Helvetica,sans-Serif" font-size="14.00">DOS</text>
</g>
<!-- compute_DOS_IR -->
<g id="node29" class="node">
<title>compute_DOS_IR</title>
<polygon fill="lightseagreen" stroke="black" points="3064.5,-370 2221.5,-370 2221.5,-334 3064.5,-334 3064.5,-370"/>
<text text-anchor="middle" x="2643" y="-348.3" font-family="Helvetica,sans-Serif" font-size="14.00">Uses frequencies, ir_intensities and weights from the file to create a matrix workspace containing the Density of states</text>
</g>
<!-- SpectrumType&#45;&gt;compute_DOS_IR -->
<g id="edge28" class="edge">
<title>SpectrumType&#45;&gt;compute_DOS_IR</title>
<path fill="none" stroke="black" d="M1501.35,-433C1670.11,-421.17 2100.73,-391 2382.21,-371.27"/>
<polygon fill="black" stroke="black" points="2382.17,-374.79 2391.9,-370.6 2381.68,-367.8 2382.17,-374.79"/>
<text text-anchor="middle" x="2141" y="-391.8" font-family="Helvetica,sans-Serif" font-size="14.00">IR_Active</text>
</g>
<!-- compute_DOS_Ramen -->
<g id="node30" class="node">
<title>compute_DOS_Ramen</title>
<polygon fill="lightseagreen" stroke="black" points="3961,-370 3083,-370 3083,-334 3961,-334 3961,-370"/>
<text text-anchor="middle" x="3522" y="-348.3" font-family="Helvetica,sans-Serif" font-size="14.00">Uses frequencies, ramen_intensities and weights from the file to create a matrix workspace containing the Density of states</text>
</g>
<!-- SpectrumType&#45;&gt;compute_DOS_Ramen -->
<g id="edge31" class="edge">
<title>SpectrumType&#45;&gt;compute_DOS_Ramen</title>
<path fill="none" stroke="black" d="M1503.84,-435C1751.28,-424.95 2564.53,-391.9 3080.02,-370.96"/>
<polygon fill="black" stroke="black" points="3080.02,-374.46 3089.87,-370.56 3079.74,-367.47 3080.02,-374.46"/>
<text text-anchor="middle" x="2650.5" y="-391.8" font-family="Helvetica,sans-Serif" font-size="14.00">Raman_Active</text>
</g>
<!-- all_ions -->
<g id="node33" class="node">
<title>all_ions</title>
<ellipse fill="lightgrey" stroke="black" cx="1056" cy="-265" rx="44.39" ry="18"/>
<text text-anchor="middle" x="1056" y="-261.3" font-family="Helvetica,sans-Serif" font-size="14.00">all_ions</text>
</g>
<!-- Ions&#45;&gt;all_ions -->
<g id="edge19" class="edge">
<title>Ions&#45;&gt;all_ions</title>
<path fill="none" stroke="black" d="M1298.21,-340.11C1292.97,-337.87 1287.35,-335.69 1282,-334 1243.51,-321.87 1231.84,-326.95 1193,-316 1160.12,-306.73 1123.85,-293.35 1096.89,-282.76"/>
<polygon fill="black" stroke="black" points="1098.3,-279.55 1087.72,-279.12 1095.72,-286.06 1098.3,-279.55"/>
<text text-anchor="middle" x="1304.5" y="-304.8" font-family="Helvetica,sans-Serif" font-size="14.00">Convert user input to dictionary</text>
</g>
<!-- SumContributions -->
<g id="node5" class="node">
<title>SumContributions</title>
<ellipse fill="khaki" stroke="black" cx="1421" cy="-178" rx="92.08" ry="18"/>
<text text-anchor="middle" x="1421" y="-174.3" font-family="Helvetica,sans-Serif" font-size="14.00">SumContributions</text>
</g>
<!-- sum_workspace -->
<g id="node19" class="node">
<title>sum_workspace</title>
<ellipse fill="khaki" stroke="black" cx="1392" cy="-91" rx="83.39" ry="18"/>
<text text-anchor="middle" x="1392" y="-87.3" font-family="Helvetica,sans-Serif" font-size="14.00">sum_workspace</text>
</g>
<!-- SumContributions&#45;&gt;sum_workspace -->
<g id="edge13" class="edge">
<title>SumContributions&#45;&gt;sum_workspace</title>
<path fill="none" stroke="black" d="M1397.7,-160.44C1392.17,-155.23 1387.01,-148.98 1384,-142 1381.08,-135.22 1380.94,-127.5 1382.06,-120.2"/>
<polygon fill="black" stroke="black" points="1385.41,-121.26 1384.31,-110.72 1378.6,-119.64 1385.41,-121.26"/>
<text text-anchor="middle" x="1395.5" y="-130.8" font-family="Helvetica,sans-Serif" font-size="14.00">Yes</text>
</g>
<!-- GroupWorkspaces -->
<g id="node32" class="node">
<title>GroupWorkspaces</title>
<ellipse fill="lightgrey" stroke="black" cx="1198" cy="-91" rx="92.88" ry="18"/>
<text text-anchor="middle" x="1198" y="-87.3" font-family="Helvetica,sans-Serif" font-size="14.00">GroupWorkspaces</text>
</g>
<!-- SumContributions&#45;&gt;GroupWorkspaces -->
<g id="edge15" class="edge">
<title>SumContributions&#45;&gt;GroupWorkspaces</title>
<path fill="none" stroke="black" d="M1420.67,-159.74C1419.5,-148.79 1416.12,-135.19 1407,-127 1406.84,-126.86 1336.83,-115.15 1277.89,-105.32"/>
<polygon fill="black" stroke="black" points="1278.58,-101.88 1268.14,-103.69 1277.43,-108.79 1278.58,-101.88"/>
<text text-anchor="middle" x="1426.5" y="-130.8" font-family="Helvetica,sans-Serif" font-size="14.00">No</text>
</g>
<!-- ScaleByCrossSection -->
<g id="node6" class="node">
<title>ScaleByCrossSection</title>
<ellipse fill="khaki" stroke="black" cx="303" cy="-265" rx="104.78" ry="18"/>
<text text-anchor="middle" x="303" y="-261.3" font-family="Helvetica,sans-Serif" font-size="14.00">ScaleByCrossSection</text>
</g>
<!-- compute_partial_ion_workflow1 -->
<g id="node27" class="node">
<title>compute_partial_ion_workflow1</title>
<polygon fill="lightseagreen" stroke="black" points="606,-196 0,-196 0,-160 606,-160 606,-196"/>
<text text-anchor="middle" x="303" y="-174.3" font-family="Helvetica,sans-Serif" font-size="14.00">Compute partial DoS workspaces for a given set of ions then sum into single spectra</text>
</g>
<!-- ScaleByCrossSection&#45;&gt;compute_partial_ion_workflow1 -->
<g id="edge22" class="edge">
<title>ScaleByCrossSection&#45;&gt;compute_partial_ion_workflow1</title>
<path fill="none" stroke="black" d="M303,-246.8C303,-235.58 303,-220.67 303,-207.69"/>
<polygon fill="black" stroke="black" points="306.5,-207.98 303,-197.98 299.5,-207.98 306.5,-207.98"/>
</g>
<!-- OutputWorkspace -->
<g id="node7" class="node">
<title>OutputWorkspace</title>
<ellipse fill="khaki" stroke="black" cx="518" cy="-265" rx="92.08" ry="18"/>
<text text-anchor="middle" x="518" y="-261.3" font-family="Helvetica,sans-Serif" font-size="14.00">OutputWorkspace</text>
</g>
<!-- OutputWorkspace1 -->
<g id="node8" class="node">
<title>OutputWorkspace1</title>
<ellipse fill="khaki" stroke="black" cx="902" cy="-265" rx="92.08" ry="18"/>
<text text-anchor="middle" x="902" y="-261.3" font-family="Helvetica,sans-Serif" font-size="14.00">OutputWorkspace</text>
</g>
<!-- OutputWorkspace2 -->
<g id="node9" class="node">
<title>OutputWorkspace2</title>
<ellipse fill="khaki" stroke="black" cx="1295" cy="-18" rx="92.08" ry="18"/>
<text text-anchor="middle" x="1295" y="-14.3" font-family="Helvetica,sans-Serif" font-size="14.00">OutputWorkspace</text>
</g>
<!-- OutputWorkspace3 -->
<g id="node10" class="node">
<title>OutputWorkspace3</title>
<ellipse fill="khaki" stroke="black" cx="303" cy="-18" rx="92.08" ry="18"/>
<text text-anchor="middle" x="303" y="-14.3" font-family="Helvetica,sans-Serif" font-size="14.00">OutputWorkspace</text>
</g>
<!-- OutputWorkspace4 -->
<g id="node11" class="node">
<title>OutputWorkspace4</title>
<ellipse fill="khaki" stroke="black" cx="1844" cy="-178" rx="92.08" ry="18"/>
<text text-anchor="middle" x="1844" y="-174.3" font-family="Helvetica,sans-Serif" font-size="14.00">OutputWorkspace</text>
</g>
<!-- OutputWorkspace5 -->
<g id="node12" class="node">
<title>OutputWorkspace5</title>
<ellipse fill="khaki" stroke="black" cx="2643" cy="-178" rx="92.08" ry="18"/>
<text text-anchor="middle" x="2643" y="-174.3" font-family="Helvetica,sans-Serif" font-size="14.00">OutputWorkspace</text>
</g>
<!-- OutputWorkspace6 -->
<g id="node13" class="node">
<title>OutputWorkspace6</title>
<ellipse fill="khaki" stroke="black" cx="3522" cy="-178" rx="92.08" ry="18"/>
<text text-anchor="middle" x="3522" y="-174.3" font-family="Helvetica,sans-Serif" font-size="14.00">OutputWorkspace</text>
</g>
<!-- file_data -->
<g id="node14" class="node">
<title>file_data</title>
<ellipse fill="khaki" stroke="black" cx="1430" cy="-512" rx="48.99" ry="18"/>
<text text-anchor="middle" x="1430" y="-508.3" font-family="Helvetica,sans-Serif" font-size="14.00">file_data</text>
</g>
<!-- file_data&#45;&gt;SpectrumType -->
<g id="edge4" class="edge">
<title>file_data&#45;&gt;SpectrumType</title>
<path fill="none" stroke="black" d="M1430,-493.81C1430,-486.23 1430,-477.1 1430,-468.54"/>
<polygon fill="black" stroke="black" points="1433.5,-468.54 1430,-458.54 1426.5,-468.54 1433.5,-468.54"/>
</g>
<!-- file_data1 -->
<g id="node15" class="node">
<title>file_data1</title>
<ellipse fill="khaki" stroke="black" cx="1418" cy="-352" rx="48.99" ry="18"/>
<text text-anchor="middle" x="1418" y="-348.3" font-family="Helvetica,sans-Serif" font-size="14.00">file_data</text>
</g>
<!-- compute_partial_ion_workflow -->
<g id="node26" class="node">
<title>compute_partial_ion_workflow</title>
<polygon fill="lightseagreen" stroke="black" points="1724,-283 1118,-283 1118,-247 1724,-247 1724,-283"/>
<text text-anchor="middle" x="1421" y="-261.3" font-family="Helvetica,sans-Serif" font-size="14.00">Compute partial DoS workspaces for a given set of ions then sum into single spectra</text>
</g>
<!-- file_data1&#45;&gt;compute_partial_ion_workflow -->
<g id="edge11" class="edge">
<title>file_data1&#45;&gt;compute_partial_ion_workflow</title>
<path fill="none" stroke="black" d="M1418.61,-333.8C1419,-322.58 1419.53,-307.67 1419.99,-294.69"/>
<polygon fill="black" stroke="black" points="1423.48,-295.1 1420.33,-284.98 1416.48,-294.85 1423.48,-295.1"/>
</g>
<!-- file_data2 -->
<g id="node16" class="node">
<title>file_data2</title>
<ellipse fill="khaki" stroke="black" cx="132" cy="-265" rx="48.99" ry="18"/>
<text text-anchor="middle" x="132" y="-261.3" font-family="Helvetica,sans-Serif" font-size="14.00">file_data</text>
</g>
<!-- file_data2&#45;&gt;compute_partial_ion_workflow1 -->
<g id="edge21" class="edge">
<title>file_data2&#45;&gt;compute_partial_ion_workflow1</title>
<path fill="none" stroke="black" d="M160.24,-249.96C186.74,-236.79 226.84,-216.86 257.79,-201.47"/>
<polygon fill="black" stroke="black" points="259.16,-204.7 266.55,-197.12 256.04,-198.43 259.16,-204.7"/>
</g>
<!-- partial_workspaces -->
<g id="node17" class="node">
<title>partial_workspaces</title>
<ellipse fill="khaki" stroke="black" cx="1198" cy="-178" rx="96.68" ry="18"/>
<text text-anchor="middle" x="1198" y="-174.3" font-family="Helvetica,sans-Serif" font-size="14.00">partial_workspaces</text>
</g>
<!-- partial_workspaces&#45;&gt;GroupWorkspaces -->
<g id="edge16" class="edge">
<title>partial_workspaces&#45;&gt;GroupWorkspaces</title>
<path fill="none" stroke="black" d="M1198,-159.8C1198,-148.58 1198,-133.67 1198,-120.69"/>
<polygon fill="black" stroke="black" points="1201.5,-120.98 1198,-110.98 1194.5,-120.98 1201.5,-120.98"/>
</g>
<!-- partial_ions&#45;&gt;compute_partial_ion_workflow -->
<g id="edge10" class="edge">
<title>partial_ions&#45;&gt;compute_partial_ion_workflow</title>
<path fill="none" stroke="black" d="M1181.66,-335.73C1166.67,-325.97 1153.58,-312.94 1164,-301 1168.59,-295.74 1175.85,-291.24 1185.06,-287.39"/>
<polygon fill="black" stroke="black" points="1186.16,-290.71 1194.35,-283.99 1183.76,-284.14 1186.16,-290.71"/>
</g>
<!-- sum_workspace&#45;&gt;OutputWorkspace2 -->
<g id="edge14" class="edge">
<title>sum_workspace&#45;&gt;OutputWorkspace2</title>
<path fill="none" stroke="black" d="M1369.5,-73.53C1356.95,-64.35 1341.1,-52.75 1327.25,-42.61"/>
<polygon fill="black" stroke="black" points="1329.41,-39.85 1319.27,-36.76 1325.27,-45.5 1329.41,-39.85"/>
</g>
<!-- DoS_Workspace -->
<g id="node20" class="node">
<title>DoS_Workspace</title>
<ellipse fill="khaki" stroke="black" cx="1844" cy="-265" rx="83.39" ry="18"/>
<text text-anchor="middle" x="1844" y="-261.3" font-family="Helvetica,sans-Serif" font-size="14.00">DoS_Workspace</text>
</g>
<!-- DoS_Workspace&#45;&gt;OutputWorkspace4 -->
<g id="edge27" class="edge">
<title>DoS_Workspace&#45;&gt;OutputWorkspace4</title>
<path fill="none" stroke="black" d="M1844,-246.8C1844,-235.58 1844,-220.67 1844,-207.69"/>
<polygon fill="black" stroke="black" points="1847.5,-207.98 1844,-197.98 1840.5,-207.98 1847.5,-207.98"/>
</g>
<!-- DoS_Workspace1 -->
<g id="node21" class="node">
<title>DoS_Workspace1</title>
<ellipse fill="khaki" stroke="black" cx="2643" cy="-265" rx="83.39" ry="18"/>
<text text-anchor="middle" x="2643" y="-261.3" font-family="Helvetica,sans-Serif" font-size="14.00">DoS_Workspace</text>
</g>
<!-- DoS_Workspace1&#45;&gt;OutputWorkspace5 -->
<g id="edge30" class="edge">
<title>DoS_Workspace1&#45;&gt;OutputWorkspace5</title>
<path fill="none" stroke="black" d="M2643,-246.8C2643,-235.58 2643,-220.67 2643,-207.69"/>
<polygon fill="black" stroke="black" points="2646.5,-207.98 2643,-197.98 2639.5,-207.98 2646.5,-207.98"/>
</g>
<!-- DoS_Workspace2 -->
<g id="node22" class="node">
<title>DoS_Workspace2</title>
<ellipse fill="khaki" stroke="black" cx="3522" cy="-265" rx="83.39" ry="18"/>
<text text-anchor="middle" x="3522" y="-261.3" font-family="Helvetica,sans-Serif" font-size="14.00">DoS_Workspace</text>
</g>
<!-- DoS_Workspace2&#45;&gt;OutputWorkspace6 -->
<g id="edge33" class="edge">
<title>DoS_Workspace2&#45;&gt;OutputWorkspace6</title>
<path fill="none" stroke="black" d="M3522,-246.8C3522,-235.58 3522,-220.67 3522,-207.69"/>
<polygon fill="black" stroke="black" points="3525.5,-207.98 3522,-197.98 3518.5,-207.98 3525.5,-207.98"/>
</g>
<!-- read_data_from_file&#45;&gt;file_data -->
<g id="edge3" class="edge">
<title>read_data_from_file&#45;&gt;file_data</title>
<path fill="none" stroke="black" d="M1430,-566.81C1430,-559.23 1430,-550.1 1430,-541.54"/>
<polygon fill="black" stroke="black" points="1433.5,-541.54 1430,-531.54 1426.5,-541.54 1433.5,-541.54"/>
</g>
<!-- ion_table_process&#45;&gt;OutputWorkspace -->
<g id="edge6" class="edge">
<title>ion_table_process&#45;&gt;OutputWorkspace</title>
<path fill="none" stroke="black" d="M371.68,-333.59C401.06,-320.02 441.95,-301.13 473.04,-286.77"/>
<polygon fill="black" stroke="black" points="474.19,-290.09 481.8,-282.72 471.25,-283.74 474.19,-290.09"/>
<text text-anchor="middle" x="509" y="-304.8" font-family="Helvetica,sans-Serif" font-size="14.00">Output Table of Ions</text>
</g>
<!-- bond_table_process&#45;&gt;OutputWorkspace1 -->
<g id="edge8" class="edge">
<title>bond_table_process&#45;&gt;OutputWorkspace1</title>
<path fill="none" stroke="black" d="M904.39,-333.8C904,-322.58 903.47,-307.67 903.01,-294.69"/>
<polygon fill="black" stroke="black" points="906.52,-294.85 902.67,-284.98 899.52,-295.1 906.52,-294.85"/>
<text text-anchor="middle" x="982" y="-304.8" font-family="Helvetica,sans-Serif" font-size="14.00">Output Table of Bonds</text>
</g>
<!-- compute_partial_ion_workflow&#45;&gt;SumContributions -->
<g id="edge12" class="edge">
<title>compute_partial_ion_workflow&#45;&gt;SumContributions</title>
<path fill="none" stroke="black" d="M1421,-246.8C1421,-235.58 1421,-220.67 1421,-207.69"/>
<polygon fill="black" stroke="black" points="1424.5,-207.98 1421,-197.98 1417.5,-207.98 1424.5,-207.98"/>
<text text-anchor="middle" x="1591" y="-217.8" font-family="Helvetica,sans-Serif" font-size="14.00">Outputs partial_workspaces and sum_workspace</text>
</g>
<!-- sum_workspace1 -->
<g id="node31" class="node">
<title>sum_workspace1</title>
<polygon fill="lightseagreen" stroke="black" points="367,-109 239,-109 239,-73 367,-73 367,-109"/>
<text text-anchor="middle" x="303" y="-87.3" font-family="Helvetica,sans-Serif" font-size="14.00">sum_workspace</text>
</g>
<!-- compute_partial_ion_workflow1&#45;&gt;sum_workspace1 -->
<g id="edge23" class="edge">
<title>compute_partial_ion_workflow1&#45;&gt;sum_workspace1</title>
<path fill="none" stroke="black" d="M303,-159.8C303,-148.58 303,-133.67 303,-120.69"/>
<polygon fill="black" stroke="black" points="306.5,-120.98 303,-110.98 299.5,-120.98 306.5,-120.98"/>
</g>
<!-- compute_DOS&#45;&gt;DoS_Workspace -->
<g id="edge26" class="edge">
<title>compute_DOS&#45;&gt;DoS_Workspace</title>
<path fill="none" stroke="black" d="M1844,-333.8C1844,-322.58 1844,-307.67 1844,-294.69"/>
<polygon fill="black" stroke="black" points="1847.5,-294.98 1844,-284.98 1840.5,-294.98 1847.5,-294.98"/>
</g>
<!-- compute_DOS_IR&#45;&gt;DoS_Workspace1 -->
<g id="edge29" class="edge">
<title>compute_DOS_IR&#45;&gt;DoS_Workspace1</title>
<path fill="none" stroke="black" d="M2643,-333.8C2643,-322.58 2643,-307.67 2643,-294.69"/>
<polygon fill="black" stroke="black" points="2646.5,-294.98 2643,-284.98 2639.5,-294.98 2646.5,-294.98"/>
</g>
<!-- compute_DOS_Ramen&#45;&gt;DoS_Workspace2 -->
<g id="edge32" class="edge">
<title>compute_DOS_Ramen&#45;&gt;DoS_Workspace2</title>
<path fill="none" stroke="black" d="M3522,-333.8C3522,-322.58 3522,-307.67 3522,-294.69"/>
<polygon fill="black" stroke="black" points="3525.5,-294.98 3522,-284.98 3518.5,-294.98 3525.5,-294.98"/>
</g>
<!-- sum_workspace1&#45;&gt;OutputWorkspace3 -->
<g id="edge24" class="edge">
<title>sum_workspace1&#45;&gt;OutputWorkspace3</title>
<path fill="none" stroke="black" d="M303,-72.81C303,-65.23 303,-56.1 303,-47.54"/>
<polygon fill="black" stroke="black" points="306.5,-47.54 303,-37.54 299.5,-47.54 306.5,-47.54"/>
</g>
<!-- GroupWorkspaces&#45;&gt;OutputWorkspace2 -->
<g id="edge17" class="edge">
<title>GroupWorkspaces&#45;&gt;OutputWorkspace2</title>
<path fill="none" stroke="black" d="M1220.99,-73.17C1233.55,-63.98 1249.31,-52.45 1263.05,-42.39"/>
<polygon fill="black" stroke="black" points="1264.95,-45.33 1270.96,-36.6 1260.82,-39.68 1264.95,-45.33"/>
</g>
<!-- all_ions&#45;&gt;compute_partial_ion_workflow1 -->
<g id="edge20" class="edge">
<title>all_ions&#45;&gt;compute_partial_ion_workflow1</title>
<path fill="none" stroke="black" d="M1023.5,-252.37C1016.79,-250.31 1009.72,-248.39 1003,-247 878.2,-221.23 738.81,-205.17 617.48,-195.19"/>
<polygon fill="black" stroke="black" points="617.93,-191.71 607.68,-194.39 617.36,-198.69 617.93,-191.71"/>
</g>
</g>
</svg>
