<?xml version="1.0" encoding="UTF-8" standalone="no"?>
<!DOCTYPE svg PUBLIC "-//W3C//DTD SVG 1.1//EN"
 "http://www.w3.org/Graphics/SVG/1.1/DTD/svg11.dtd">
<!-- Generated by graphviz version 2.47.2 (20210527.1257)
 -->
<!-- Title: SingleCrystalDiffuseReduction Pages: 1 -->
<svg width="680pt" height="701pt"
 viewBox="0.00 0.00 680.15 700.74" xmlns="http://www.w3.org/2000/svg" xmlns:xlink="http://www.w3.org/1999/xlink">
<g id="graph0" class="graph" transform="scale(1 1) rotate(0) translate(4 696.74)">
<title>SingleCrystalDiffuseReduction</title>
<polygon fill="white" stroke="transparent" points="-4,4 -4,-696.74 676.15,-696.74 676.15,4 -4,4"/>
<text text-anchor="middle" x="336.07" y="-677.54" font-family="Helvetica" font-size="14.00">Single Crystal Diffuse Reduction</text>
<!-- Load -->
<g id="node1" class="node">
<title>Load</title>
<path fill="lightskyblue" stroke="black" d="M454.65,-579C454.65,-579 424.65,-579 424.65,-579 418.65,-579 412.65,-573 412.65,-567 412.65,-567 412.65,-555 412.65,-555 412.65,-549 418.65,-543 424.65,-543 424.65,-543 454.65,-543 454.65,-543 460.65,-543 466.65,-549 466.65,-555 466.65,-555 466.65,-567 466.65,-567 466.65,-573 460.65,-579 454.65,-579"/>
<text text-anchor="middle" x="439.65" y="-557.3" font-family="Helvetica" font-size="14.00">Load</text>
</g>
<!-- LoadIsawUB -->
<g id="node2" class="node">
<title>LoadIsawUB</title>
<path fill="lightskyblue" stroke="black" d="M436.15,-506C436.15,-506 367.15,-506 367.15,-506 361.15,-506 355.15,-500 355.15,-494 355.15,-494 355.15,-482 355.15,-482 355.15,-476 361.15,-470 367.15,-470 367.15,-470 436.15,-470 436.15,-470 442.15,-470 448.15,-476 448.15,-482 448.15,-482 448.15,-494 448.15,-494 448.15,-500 442.15,-506 436.15,-506"/>
<text text-anchor="middle" x="401.65" y="-484.3" font-family="Helvetica" font-size="14.00">LoadIsawUB</text>
</g>
<!-- Load&#45;&gt;LoadIsawUB -->
<g id="edge2" class="edge">
<title>Load&#45;&gt;LoadIsawUB</title>
<path fill="none" stroke="black" d="M430.45,-542.81C425.97,-534.44 420.48,-524.2 415.51,-514.9"/>
<polygon fill="black" stroke="black" points="418.56,-513.19 410.76,-506.03 412.39,-516.5 418.56,-513.19"/>
</g>
<!-- ConvertToMD -->
<g id="node3" class="node">
<title>ConvertToMD</title>
<path fill="lightskyblue" stroke="black" d="M437.65,-433C437.65,-433 361.65,-433 361.65,-433 355.65,-433 349.65,-427 349.65,-421 349.65,-421 349.65,-409 349.65,-409 349.65,-403 355.65,-397 361.65,-397 361.65,-397 437.65,-397 437.65,-397 443.65,-397 449.65,-403 449.65,-409 449.65,-409 449.65,-421 449.65,-421 449.65,-427 443.65,-433 437.65,-433"/>
<text text-anchor="middle" x="399.65" y="-411.3" font-family="Helvetica" font-size="14.00">ConvertToMD</text>
</g>
<!-- LoadIsawUB&#45;&gt;ConvertToMD -->
<g id="edge3" class="edge">
<title>LoadIsawUB&#45;&gt;ConvertToMD</title>
<path fill="none" stroke="black" d="M401.16,-469.81C400.94,-461.79 400.66,-452.05 400.41,-443.07"/>
<polygon fill="black" stroke="black" points="403.91,-442.93 400.13,-433.03 396.91,-443.12 403.91,-442.93"/>
</g>
<!-- MDNorm -->
<g id="node4" class="node">
<title>MDNorm</title>
<path fill="lightskyblue" stroke="black" d="M370.65,-360C370.65,-360 156.65,-360 156.65,-360 150.65,-360 144.65,-354 144.65,-348 144.65,-348 144.65,-334 144.65,-334 144.65,-328 150.65,-322 156.65,-322 156.65,-322 370.65,-322 370.65,-322 376.65,-322 382.65,-328 382.65,-334 382.65,-334 382.65,-348 382.65,-348 382.65,-354 376.65,-360 370.65,-360"/>
<text text-anchor="middle" x="263.65" y="-344.8" font-family="Helvetica" font-size="14.00">MDNorm</text>
<text text-anchor="middle" x="263.65" y="-329.8" font-family="Helvetica" font-size="14.00">(Accumulate data and normalisation)</text>
</g>
<!-- ConvertToMD&#45;&gt;MDNorm -->
<g id="edge4" class="edge">
<title>ConvertToMD&#45;&gt;MDNorm</title>
<path fill="none" stroke="black" d="M367.42,-396.94C349.38,-387.39 326.65,-375.35 307.06,-364.98"/>
<polygon fill="black" stroke="black" points="308.5,-361.78 298.02,-360.2 305.22,-367.97 308.5,-361.78"/>
</g>
<!-- isLastRunNumber -->
<g id="node7" class="node">
<title>isLastRunNumber</title>
<polygon fill="limegreen" stroke="black" points="271.65,-285 96.03,-267 271.65,-249 447.26,-267 271.65,-285"/>
<text text-anchor="middle" x="271.65" y="-263.3" font-family="Helvetica" font-size="14.00">Is last Sample Run Number?</text>
</g>
<!-- MDNorm&#45;&gt;isLastRunNumber -->
<g id="edge5" class="edge">
<title>MDNorm&#45;&gt;isLastRunNumber</title>
<path fill="none" stroke="black" d="M265.66,-321.83C266.57,-313.69 267.65,-303.91 268.65,-294.94"/>
<polygon fill="black" stroke="black" points="272.14,-295.25 269.76,-284.93 265.18,-294.48 272.14,-295.25"/>
</g>
<!-- DivideMDbkg -->
<g id="node5" class="node">
<title>DivideMDbkg</title>
<path fill="lightskyblue" stroke="black" d="M660.15,-111C660.15,-111 303.15,-111 303.15,-111 297.15,-111 291.15,-105 291.15,-99 291.15,-99 291.15,-85 291.15,-85 291.15,-79 297.15,-73 303.15,-73 303.15,-73 660.15,-73 660.15,-73 666.15,-73 672.15,-79 672.15,-85 672.15,-85 672.15,-99 672.15,-99 672.15,-105 666.15,-111 660.15,-111"/>
<text text-anchor="middle" x="481.65" y="-95.8" font-family="Helvetica" font-size="14.00">MinusMD</text>
<text text-anchor="middle" x="481.65" y="-80.8" font-family="Helvetica" font-size="14.00">normalizedData &#45; normalizaedBackground*BackgroundScale</text>
</g>
<!-- OutputWorkspace -->
<g id="node12" class="node">
<title>OutputWorkspace</title>
<polygon fill="grey" stroke="black" points="401.87,-36 188.35,-36 133.42,0 346.94,0 401.87,-36"/>
<text text-anchor="middle" x="267.65" y="-14.3" font-family="Times-Roman" font-size="14.00">OutputWorkspace</text>
</g>
<!-- DivideMDbkg&#45;&gt;OutputWorkspace -->
<g id="edge11" class="edge">
<title>DivideMDbkg&#45;&gt;OutputWorkspace</title>
<path fill="none" stroke="black" d="M427.92,-72.92C397.51,-62.69 359.4,-49.87 327.97,-39.3"/>
<polygon fill="black" stroke="black" points="329.04,-35.96 318.45,-36.09 326.81,-42.6 329.04,-35.96"/>
</g>
<!-- Background -->
<g id="node6" class="node">
<title>Background</title>
<polygon fill="limegreen" stroke="black" points="271.65,-198 118.15,-180 271.65,-162 425.14,-180 271.65,-198"/>
<text text-anchor="middle" x="271.65" y="-176.3" font-family="Helvetica" font-size="14.00">Subtracting background?</text>
</g>
<!-- Background&#45;&gt;DivideMDbkg -->
<g id="edge10" class="edge">
<title>Background&#45;&gt;DivideMDbkg</title>
<path fill="none" stroke="black" d="M304,-165.75C336.98,-152.24 388.73,-131.05 427.89,-115.02"/>
<polygon fill="black" stroke="black" points="429.62,-118.09 437.55,-111.06 426.97,-111.61 429.62,-118.09"/>
<text text-anchor="middle" x="400.15" y="-132.8" font-family="Helvetica" font-size="14.00">Yes</text>
</g>
<!-- Background&#45;&gt;OutputWorkspace -->
<g id="edge9" class="edge">
<title>Background&#45;&gt;OutputWorkspace</title>
<path fill="none" stroke="black" d="M269.41,-161.99C267.72,-148.26 265.54,-128.42 264.65,-111 263.78,-94.13 264.18,-89.88 264.65,-73 264.89,-64.29 265.35,-54.8 265.84,-46.23"/>
<polygon fill="black" stroke="black" points="269.35,-46.21 266.46,-36.01 262.36,-45.78 269.35,-46.21"/>
<text text-anchor="middle" x="273.65" y="-88.3" font-family="Helvetica" font-size="14.00">No</text>
</g>
<!-- isLastRunNumber&#45;&gt;Background -->
<g id="edge6" class="edge">
<title>isLastRunNumber&#45;&gt;Background</title>
<path fill="none" stroke="black" d="M271.65,-248.8C271.65,-237.16 271.65,-221.55 271.65,-208.24"/>
<polygon fill="black" stroke="black" points="275.15,-208.18 271.65,-198.18 268.15,-208.18 275.15,-208.18"/>
<text text-anchor="middle" x="283.15" y="-219.8" font-family="Helvetica" font-size="14.00">Yes</text>
</g>
<!-- NextFile -->
<g id="node13" class="node">
<title>NextFile</title>
<polygon fill="lightseagreen" stroke="black" points="509.65,-198 443.65,-198 443.65,-162 509.65,-162 509.65,-198"/>
<text text-anchor="middle" x="476.65" y="-176.3" font-family="Helvetica" font-size="14.00">NextFile</text>
</g>
<!-- isLastRunNumber&#45;&gt;NextFile -->
<g id="edge7" class="edge">
<title>isLastRunNumber&#45;&gt;NextFile</title>
<path fill="none" stroke="black" d="M304.58,-252.34C339.74,-237.76 395.59,-214.61 434.06,-198.66"/>
<polygon fill="black" stroke="black" points="435.55,-201.83 443.45,-194.76 432.87,-195.36 435.55,-201.83"/>
<text text-anchor="middle" x="394.65" y="-219.8" font-family="Helvetica" font-size="14.00">No</text>
</g>
<!-- RunNumberList -->
<g id="node8" class="node">
<title>RunNumberList</title>
<ellipse fill="khaki" stroke="black" cx="439.65" cy="-642.87" rx="127.06" ry="26.74"/>
<text text-anchor="middle" x="439.65" y="-646.67" font-family="Helvetica" font-size="14.00">Filename</text>
<text text-anchor="middle" x="439.65" y="-631.67" font-family="Helvetica" font-size="14.00">(Loop for all files to reduce)</text>
</g>
<!-- RunNumberList&#45;&gt;Load -->
<g id="edge1" class="edge">
<title>RunNumberList&#45;&gt;Load</title>
<path fill="none" stroke="black" d="M439.65,-615.72C439.65,-607.27 439.65,-597.89 439.65,-589.36"/>
<polygon fill="black" stroke="black" points="443.15,-589.15 439.65,-579.15 436.15,-589.15 443.15,-589.15"/>
</g>
<!-- SolidAngle -->
<g id="node9" class="node">
<title>SolidAngle</title>
<ellipse fill="khaki" stroke="black" cx="52.65" cy="-415" rx="52.79" ry="18"/>
<text text-anchor="middle" x="52.65" y="-411.3" font-family="Helvetica" font-size="14.00">SolidAngle</text>
</g>
<!-- SolidAngle&#45;&gt;MDNorm -->
<g id="edge12" class="edge">
<title>SolidAngle&#45;&gt;MDNorm</title>
<path fill="none" stroke="black" d="M88.44,-401.79C119.2,-391.29 164.27,-375.91 201,-363.38"/>
<polygon fill="black" stroke="black" points="202.29,-366.63 210.62,-360.09 200.03,-360.01 202.29,-366.63"/>
</g>
<!-- Flux -->
<g id="node10" class="node">
<title>Flux</title>
<ellipse fill="khaki" stroke="black" cx="150.65" cy="-415" rx="27.1" ry="18"/>
<text text-anchor="middle" x="150.65" y="-411.3" font-family="Helvetica" font-size="14.00">Flux</text>
</g>
<!-- Flux&#45;&gt;MDNorm -->
<g id="edge13" class="edge">
<title>Flux&#45;&gt;MDNorm</title>
<path fill="none" stroke="black" d="M169.56,-401.95C185.14,-392.02 207.7,-377.64 226.83,-365.46"/>
<polygon fill="black" stroke="black" points="228.78,-368.36 235.34,-360.04 225.02,-362.46 228.78,-368.36"/>
</g>
<!-- SymmetryOps -->
<g id="node11" class="node">
<title>SymmetryOps</title>
<ellipse fill="khaki" stroke="black" cx="263.65" cy="-415" rx="67.69" ry="18"/>
<text text-anchor="middle" x="263.65" y="-411.3" font-family="Helvetica" font-size="14.00">SymmetryOps</text>
</g>
<!-- SymmetryOps&#45;&gt;MDNorm -->
<g id="edge14" class="edge">
<title>SymmetryOps&#45;&gt;MDNorm</title>
<path fill="none" stroke="black" d="M263.65,-396.94C263.65,-388.99 263.65,-379.31 263.65,-370.31"/>
<polygon fill="black" stroke="black" points="267.15,-370.2 263.65,-360.2 260.15,-370.2 267.15,-370.2"/>
</g>
<!-- NextFile&#45;&gt;Load -->
<g id="edge8" class="edge">
<title>NextFile&#45;&gt;Load</title>
<path fill="none" stroke="black" d="M476.97,-198.26C477.26,-215.43 477.65,-242.53 477.65,-266 477.65,-489 477.65,-489 477.65,-489 477.65,-505.47 469.6,-521.82 460.91,-534.67"/>
<polygon fill="black" stroke="black" points="457.93,-532.82 454.88,-542.96 463.59,-536.93 457.93,-532.82"/>
</g>
</g>
</svg>
