<?xml version="1.0" encoding="UTF-8" standalone="no"?>
<!DOCTYPE svg PUBLIC "-//W3C//DTD SVG 1.1//EN"
 "http://www.w3.org/Graphics/SVG/1.1/DTD/svg11.dtd">
<!-- Generated by graphviz version 2.47.2 (20210527.1257)
 -->
<!-- Title: FocusChunks Pages: 1 -->
<svg width="658pt" height="1435pt"
 viewBox="0.00 0.00 657.72 1435.00" xmlns="http://www.w3.org/2000/svg" xmlns:xlink="http://www.w3.org/1999/xlink">
<g id="graph0" class="graph" transform="scale(1 1) rotate(0) translate(4 1431)">
<title>FocusChunks</title>
<polygon fill="white" stroke="transparent" points="-4,4 -4,-1431 653.72,-1431 653.72,4 -4,4"/>
<text text-anchor="middle" x="324.86" y="-1411.8" font-family="Helvetica" font-size="14.00">FocusAndSum Flowchart</text>
<!-- RunNumberList -->
<g id="node1" class="node">
<title>RunNumberList</title>
<ellipse fill="khaki" stroke="black" cx="543.44" cy="-1386" rx="72.29" ry="18"/>
<text text-anchor="middle" x="543.44" y="-1382.3" font-family="Helvetica" font-size="14.00">RunNumberList</text>
</g>
<!-- getRunNumber -->
<g id="node8" class="node">
<title>getRunNumber</title>
<path fill="lightskyblue" stroke="black" d="M593.44,-1331C593.44,-1331 493.44,-1331 493.44,-1331 487.44,-1331 481.44,-1325 481.44,-1319 481.44,-1319 481.44,-1307 481.44,-1307 481.44,-1301 487.44,-1295 493.44,-1295 493.44,-1295 593.44,-1295 593.44,-1295 599.44,-1295 605.44,-1301 605.44,-1307 605.44,-1307 605.44,-1319 605.44,-1319 605.44,-1325 599.44,-1331 593.44,-1331"/>
<text text-anchor="middle" x="543.44" y="-1309.3" font-family="Helvetica" font-size="14.00">Get a run number</text>
</g>
<!-- RunNumberList&#45;&gt;getRunNumber -->
<g id="edge1" class="edge">
<title>RunNumberList&#45;&gt;getRunNumber</title>
<path fill="none" stroke="black" d="M543.44,-1367.81C543.44,-1359.79 543.44,-1350.05 543.44,-1341.07"/>
<polygon fill="black" stroke="black" points="546.94,-1341.03 543.44,-1331.03 539.94,-1341.03 546.94,-1341.03"/>
</g>
<!-- FilterWall -->
<g id="node2" class="node">
<title>FilterWall</title>
<ellipse fill="khaki" stroke="black" cx="329.44" cy="-1167" rx="47.39" ry="18"/>
<text text-anchor="middle" x="329.44" y="-1163.3" font-family="Helvetica" font-size="14.00">FilterWall</text>
</g>
<!-- load -->
<g id="node9" class="node">
<title>load</title>
<path fill="lightskyblue" stroke="black" d="M349.94,-1112C349.94,-1112 308.94,-1112 308.94,-1112 302.94,-1112 296.94,-1106 296.94,-1100 296.94,-1100 296.94,-1088 296.94,-1088 296.94,-1082 302.94,-1076 308.94,-1076 308.94,-1076 349.94,-1076 349.94,-1076 355.94,-1076 361.94,-1082 361.94,-1088 361.94,-1088 361.94,-1100 361.94,-1100 361.94,-1106 355.94,-1112 349.94,-1112"/>
<text text-anchor="middle" x="329.44" y="-1090.3" font-family="Helvetica" font-size="14.00">Load v1</text>
</g>
<!-- FilterWall&#45;&gt;load -->
<g id="edge5" class="edge">
<title>FilterWall&#45;&gt;load</title>
<path fill="none" stroke="black" d="M329.44,-1148.81C329.44,-1140.79 329.44,-1131.05 329.44,-1122.07"/>
<polygon fill="black" stroke="black" points="332.94,-1122.03 329.44,-1112.03 325.94,-1122.03 332.94,-1122.03"/>
</g>
<!-- CalibrationFile -->
<g id="node3" class="node">
<title>CalibrationFile</title>
<ellipse fill="khaki" stroke="black" cx="394.44" cy="-934" rx="66.89" ry="18"/>
<text text-anchor="middle" x="394.44" y="-930.3" font-family="Helvetica" font-size="14.00">CalibrationFile</text>
</g>
<!-- alignAndFocusPowder -->
<g id="node7" class="node">
<title>alignAndFocusPowder</title>
<path fill="lightskyblue" stroke="black" d="M373.94,-879C373.94,-879 226.94,-879 226.94,-879 220.94,-879 214.94,-873 214.94,-867 214.94,-867 214.94,-855 214.94,-855 214.94,-849 220.94,-843 226.94,-843 226.94,-843 373.94,-843 373.94,-843 379.94,-843 385.94,-849 385.94,-855 385.94,-855 385.94,-867 385.94,-867 385.94,-873 379.94,-879 373.94,-879"/>
<text text-anchor="middle" x="300.44" y="-857.3" font-family="Helvetica" font-size="14.00">AlignAndFocusPowder v1</text>
</g>
<!-- CalibrationFile&#45;&gt;alignAndFocusPowder -->
<g id="edge9" class="edge">
<title>CalibrationFile&#45;&gt;alignAndFocusPowder</title>
<path fill="none" stroke="black" d="M373.11,-916.89C360.73,-907.54 344.92,-895.6 331.21,-885.24"/>
<polygon fill="black" stroke="black" points="333.09,-882.27 323,-879.04 328.87,-887.86 333.09,-882.27"/>
</g>
<!-- SplittersWorkspace -->
<g id="node4" class="node">
<title>SplittersWorkspace</title>
<ellipse fill="khaki" stroke="black" cx="86.44" cy="-1021" rx="86.38" ry="18"/>
<text text-anchor="middle" x="86.44" y="-1017.3" font-family="Helvetica" font-size="14.00">SplittersWorkspace</text>
</g>
<!-- split -->
<g id="node10" class="node">
<title>split</title>
<path fill="lightskyblue" stroke="black" d="M243.44,-952C243.44,-952 165.44,-952 165.44,-952 159.44,-952 153.44,-946 153.44,-940 153.44,-940 153.44,-928 153.44,-928 153.44,-922 159.44,-916 165.44,-916 165.44,-916 243.44,-916 243.44,-916 249.44,-916 255.44,-922 255.44,-928 255.44,-928 255.44,-940 255.44,-940 255.44,-946 249.44,-952 243.44,-952"/>
<text text-anchor="middle" x="204.44" y="-930.3" font-family="Helvetica" font-size="14.00">SplitEvents v1</text>
</g>
<!-- SplittersWorkspace&#45;&gt;split -->
<g id="edge8" class="edge">
<title>SplittersWorkspace&#45;&gt;split</title>
<path fill="none" stroke="black" d="M109.19,-1003.61C127.13,-990.69 152.35,-972.52 172.34,-958.13"/>
<polygon fill="black" stroke="black" points="174.48,-960.9 180.55,-952.21 170.39,-955.22 174.48,-960.9"/>
</g>
<!-- OutputWorkspacesList -->
<g id="node5" class="node">
<title>OutputWorkspacesList</title>
<ellipse fill="khaki" stroke="black" cx="516.44" cy="-18" rx="99.38" ry="18"/>
<text text-anchor="middle" x="516.44" y="-14.3" font-family="Helvetica" font-size="14.00">OutputWorkspacesList</text>
</g>
<!-- getChunk -->
<g id="node6" class="node">
<title>getChunk</title>
<path fill="lightskyblue" stroke="black" d="M546.44,-1185C546.44,-1185 414.44,-1185 414.44,-1185 408.44,-1185 402.44,-1179 402.44,-1173 402.44,-1173 402.44,-1161 402.44,-1161 402.44,-1155 408.44,-1149 414.44,-1149 414.44,-1149 546.44,-1149 546.44,-1149 552.44,-1149 558.44,-1155 558.44,-1161 558.44,-1161 558.44,-1173 558.44,-1173 558.44,-1179 552.44,-1185 546.44,-1185"/>
<text text-anchor="middle" x="480.44" y="-1163.3" font-family="Helvetica" font-size="14.00">Get a chunk to process</text>
</g>
<!-- getChunk&#45;&gt;load -->
<g id="edge4" class="edge">
<title>getChunk&#45;&gt;load</title>
<path fill="none" stroke="black" d="M444.27,-1148.99C422.27,-1138.65 394.07,-1125.39 371.13,-1114.6"/>
<polygon fill="black" stroke="black" points="372.51,-1111.38 361.97,-1110.3 369.53,-1117.72 372.51,-1111.38"/>
</g>
<!-- plusAmongChunks -->
<g id="node14" class="node">
<title>plusAmongChunks</title>
<path fill="lightskyblue" stroke="black" d="M449.44,-806C449.44,-806 247.44,-806 247.44,-806 241.44,-806 235.44,-800 235.44,-794 235.44,-794 235.44,-765 235.44,-765 235.44,-759 241.44,-753 247.44,-753 247.44,-753 449.44,-753 449.44,-753 455.44,-753 461.44,-759 461.44,-765 461.44,-765 461.44,-794 461.44,-794 461.44,-800 455.44,-806 449.44,-806"/>
<text text-anchor="middle" x="348.44" y="-790.8" font-family="Helvetica" font-size="14.00">Plus v1</text>
<text text-anchor="middle" x="348.44" y="-775.8" font-family="Helvetica" font-size="14.00"> workspaces from different chunks </text>
<text text-anchor="middle" x="348.44" y="-760.8" font-family="Helvetica" font-size="14.00">but same time range.</text>
</g>
<!-- alignAndFocusPowder&#45;&gt;plusAmongChunks -->
<g id="edge12" class="edge">
<title>alignAndFocusPowder&#45;&gt;plusAmongChunks</title>
<path fill="none" stroke="black" d="M310.86,-842.75C315.8,-834.57 321.88,-824.49 327.71,-814.85"/>
<polygon fill="black" stroke="black" points="330.77,-816.55 332.94,-806.18 324.77,-812.93 330.77,-816.55"/>
</g>
<!-- RunNumber -->
<g id="node20" class="node">
<title>RunNumber</title>
<polygon fill="grey" stroke="black" points="579.65,-1258 421.83,-1258 381.23,-1222 539.05,-1222 579.65,-1258"/>
<text text-anchor="middle" x="480.44" y="-1236.3" font-family="Times-Roman" font-size="14.00">Run Number</text>
</g>
<!-- getRunNumber&#45;&gt;RunNumber -->
<g id="edge2" class="edge">
<title>getRunNumber&#45;&gt;RunNumber</title>
<path fill="none" stroke="black" d="M528.19,-1294.81C520.45,-1286.09 510.91,-1275.34 502.4,-1265.75"/>
<polygon fill="black" stroke="black" points="504.81,-1263.19 495.55,-1258.03 499.57,-1267.83 504.81,-1263.19"/>
</g>
<!-- doSplitWorkspace -->
<g id="node16" class="node">
<title>doSplitWorkspace</title>
<polygon fill="limegreen" stroke="black" points="323.44,-1039 191.22,-1021 323.44,-1003 455.66,-1021 323.44,-1039"/>
<text text-anchor="middle" x="323.44" y="-1017.3" font-family="Helvetica" font-size="14.00">Do split workspaces?</text>
</g>
<!-- load&#45;&gt;doSplitWorkspace -->
<g id="edge6" class="edge">
<title>load&#45;&gt;doSplitWorkspace</title>
<path fill="none" stroke="black" d="M327.99,-1075.81C327.31,-1067.79 326.49,-1058.05 325.73,-1049.07"/>
<polygon fill="black" stroke="black" points="329.21,-1048.7 324.88,-1039.03 322.24,-1049.29 329.21,-1048.7"/>
</g>
<!-- split&#45;&gt;alignAndFocusPowder -->
<g id="edge10" class="edge">
<title>split&#45;&gt;alignAndFocusPowder</title>
<path fill="none" stroke="black" d="M227.68,-915.81C240.18,-906.57 255.76,-895.04 269.3,-885.03"/>
<polygon fill="black" stroke="black" points="271.46,-887.79 277.42,-879.03 267.3,-882.16 271.46,-887.79"/>
</g>
<!-- gatherWorkspace -->
<g id="node11" class="node">
<title>gatherWorkspace</title>
<path fill="lightskyblue" stroke="black" d="M405.44,-528C405.44,-528 267.44,-528 267.44,-528 261.44,-528 255.44,-522 255.44,-516 255.44,-516 255.44,-504 255.44,-504 255.44,-498 261.44,-492 267.44,-492 267.44,-492 405.44,-492 405.44,-492 411.44,-492 417.44,-498 417.44,-504 417.44,-504 417.44,-516 417.44,-516 417.44,-522 411.44,-528 405.44,-528"/>
<text text-anchor="middle" x="336.44" y="-506.3" font-family="Helvetica" font-size="14.00">Gather workspaces MPI</text>
</g>
<!-- setGSASParamFile -->
<g id="node15" class="node">
<title>setGSASParamFile</title>
<path fill="lightskyblue" stroke="black" d="M505.44,-455C505.44,-455 345.44,-455 345.44,-455 339.44,-455 333.44,-449 333.44,-443 333.44,-443 333.44,-431 333.44,-431 333.44,-425 339.44,-419 345.44,-419 345.44,-419 505.44,-419 505.44,-419 511.44,-419 517.44,-425 517.44,-431 517.44,-431 517.44,-443 517.44,-443 517.44,-449 511.44,-455 505.44,-455"/>
<text text-anchor="middle" x="425.44" y="-433.3" font-family="Helvetica" font-size="14.00">Set GSAS iparam file to run</text>
</g>
<!-- gatherWorkspace&#45;&gt;setGSASParamFile -->
<g id="edge17" class="edge">
<title>gatherWorkspace&#45;&gt;setGSASParamFile</title>
<path fill="none" stroke="black" d="M357.99,-491.81C369.47,-482.66 383.75,-471.26 396.22,-461.32"/>
<polygon fill="black" stroke="black" points="398.46,-464 404.1,-455.03 394.1,-458.53 398.46,-464"/>
</g>
<!-- compressEvents -->
<g id="node12" class="node">
<title>compressEvents</title>
<path fill="lightskyblue" stroke="black" d="M482.44,-382C482.44,-382 368.44,-382 368.44,-382 362.44,-382 356.44,-376 356.44,-370 356.44,-370 356.44,-358 356.44,-358 356.44,-352 362.44,-346 368.44,-346 368.44,-346 482.44,-346 482.44,-346 488.44,-346 494.44,-352 494.44,-358 494.44,-358 494.44,-370 494.44,-370 494.44,-376 488.44,-382 482.44,-382"/>
<text text-anchor="middle" x="425.44" y="-360.3" font-family="Helvetica" font-size="14.00">CompressEvents v1</text>
</g>
<!-- normaliseByCurrent -->
<g id="node13" class="node">
<title>normaliseByCurrent</title>
<path fill="lightskyblue" stroke="black" d="M491.94,-309C491.94,-309 358.94,-309 358.94,-309 352.94,-309 346.94,-303 346.94,-297 346.94,-297 346.94,-285 346.94,-285 346.94,-279 352.94,-273 358.94,-273 358.94,-273 491.94,-273 491.94,-273 497.94,-273 503.94,-279 503.94,-285 503.94,-285 503.94,-297 503.94,-297 503.94,-303 497.94,-309 491.94,-309"/>
<text text-anchor="middle" x="425.44" y="-287.3" font-family="Helvetica" font-size="14.00">NormaliseByCurrent v1</text>
</g>
<!-- compressEvents&#45;&gt;normaliseByCurrent -->
<g id="edge20" class="edge">
<title>compressEvents&#45;&gt;normaliseByCurrent</title>
<path fill="none" stroke="black" d="M425.44,-345.81C425.44,-337.79 425.44,-328.05 425.44,-319.07"/>
<polygon fill="black" stroke="black" points="428.94,-319.03 425.44,-309.03 421.94,-319.03 428.94,-319.03"/>
</g>
<!-- RunOutputWorkspacesList -->
<g id="node21" class="node">
<title>RunOutputWorkspacesList</title>
<polygon fill="grey" stroke="black" points="579.89,-236 334.2,-236 270.99,-160 516.69,-160 579.89,-236"/>
<text text-anchor="middle" x="425.44" y="-201.8" font-family="Times-Roman" font-size="14.00">OutputWorkspaces</text>
<text text-anchor="middle" x="425.44" y="-186.8" font-family="Times-Roman" font-size="14.00">for a run number</text>
</g>
<!-- normaliseByCurrent&#45;&gt;RunOutputWorkspacesList -->
<g id="edge21" class="edge">
<title>normaliseByCurrent&#45;&gt;RunOutputWorkspacesList</title>
<path fill="none" stroke="black" d="M425.44,-272.88C425.44,-265.25 425.44,-255.83 425.44,-246.31"/>
<polygon fill="black" stroke="black" points="428.94,-246.02 425.44,-236.02 421.94,-246.02 428.94,-246.02"/>
</g>
<!-- allChunksProcessed -->
<g id="node19" class="node">
<title>allChunksProcessed</title>
<polygon fill="limegreen" stroke="black" points="403.44,-702 247.43,-684 403.44,-666 559.46,-684 403.44,-702"/>
<text text-anchor="middle" x="403.44" y="-680.3" font-family="Helvetica" font-size="14.00">Are All Chunks Reduced?</text>
</g>
<!-- plusAmongChunks&#45;&gt;allChunksProcessed -->
<g id="edge13" class="edge">
<title>plusAmongChunks&#45;&gt;allChunksProcessed</title>
<path fill="none" stroke="black" d="M363.47,-752.95C371.38,-739.51 381.03,-723.1 388.87,-709.77"/>
<polygon fill="black" stroke="black" points="391.91,-711.51 393.96,-701.11 385.88,-707.96 391.91,-711.51"/>
</g>
<!-- setGSASParamFile&#45;&gt;compressEvents -->
<g id="edge19" class="edge">
<title>setGSASParamFile&#45;&gt;compressEvents</title>
<path fill="none" stroke="black" d="M425.44,-418.81C425.44,-410.79 425.44,-401.05 425.44,-392.07"/>
<polygon fill="black" stroke="black" points="428.94,-392.03 425.44,-382.03 421.94,-392.03 428.94,-392.03"/>
</g>
<!-- doSplitWorkspace&#45;&gt;alignAndFocusPowder -->
<g id="edge11" class="edge">
<title>doSplitWorkspace&#45;&gt;alignAndFocusPowder</title>
<path fill="none" stroke="black" d="M316.33,-1003.9C310.75,-990.35 303.46,-970.32 300.44,-952 297,-931.09 297.21,-907.08 298.16,-889.12"/>
<polygon fill="black" stroke="black" points="301.66,-889.26 298.81,-879.05 294.67,-888.81 301.66,-889.26"/>
<text text-anchor="middle" x="309.44" y="-930.3" font-family="Helvetica" font-size="14.00">No</text>
</g>
<!-- doSplitWorkspace&#45;&gt;split -->
<g id="edge7" class="edge">
<title>doSplitWorkspace&#45;&gt;split</title>
<path fill="none" stroke="black" d="M293.04,-1007.13C280.56,-1001.22 266.29,-993.6 254.44,-985 244.3,-977.64 234.29,-968.2 225.93,-959.51"/>
<polygon fill="black" stroke="black" points="228.42,-957.05 219.04,-952.13 223.31,-961.83 228.42,-957.05"/>
<text text-anchor="middle" x="265.94" y="-973.8" font-family="Helvetica" font-size="14.00">Yes</text>
</g>
<!-- haveMPI -->
<g id="node17" class="node">
<title>haveMPI</title>
<polygon fill="limegreen" stroke="black" points="403.44,-615 326.02,-597 403.44,-579 480.86,-597 403.44,-615"/>
<text text-anchor="middle" x="403.44" y="-593.3" font-family="Helvetica" font-size="14.00">Have MPI?</text>
</g>
<!-- haveMPI&#45;&gt;gatherWorkspace -->
<g id="edge16" class="edge">
<title>haveMPI&#45;&gt;gatherWorkspace</title>
<path fill="none" stroke="black" d="M392.08,-581.58C382.34,-569.23 368.09,-551.14 356.44,-536.38"/>
<polygon fill="black" stroke="black" points="358.88,-533.82 349.95,-528.13 353.39,-538.15 358.88,-533.82"/>
<text text-anchor="middle" x="384.94" y="-549.8" font-family="Helvetica" font-size="14.00">Yes</text>
</g>
<!-- haveMPI&#45;&gt;setGSASParamFile -->
<g id="edge18" class="edge">
<title>haveMPI&#45;&gt;setGSASParamFile</title>
<path fill="none" stroke="black" d="M410.33,-580.44C415.93,-566.89 423.39,-546.57 426.44,-528 429.04,-512.21 426.59,-508 426.44,-492 426.36,-483.3 426.21,-473.81 426.05,-465.24"/>
<polygon fill="black" stroke="black" points="429.54,-464.95 425.84,-455.02 422.54,-465.09 429.54,-464.95"/>
<text text-anchor="middle" x="436.44" y="-506.3" font-family="Helvetica" font-size="14.00">No</text>
</g>
<!-- isLastRunNumber -->
<g id="node18" class="node">
<title>isLastRunNumber</title>
<polygon fill="limegreen" stroke="black" points="516.44,-123 383.39,-105 516.44,-87 649.5,-105 516.44,-123"/>
<text text-anchor="middle" x="516.44" y="-101.3" font-family="Helvetica" font-size="14.00">Is Last Run Number?</text>
</g>
<!-- isLastRunNumber&#45;&gt;OutputWorkspacesList -->
<g id="edge24" class="edge">
<title>isLastRunNumber&#45;&gt;OutputWorkspacesList</title>
<path fill="none" stroke="black" d="M516.44,-86.8C516.44,-75.16 516.44,-59.55 516.44,-46.24"/>
<polygon fill="black" stroke="black" points="519.94,-46.18 516.44,-36.18 512.94,-46.18 519.94,-46.18"/>
<text text-anchor="middle" x="527.94" y="-57.8" font-family="Helvetica" font-size="14.00">Yes</text>
</g>
<!-- isLastRunNumber&#45;&gt;getRunNumber -->
<g id="edge23" class="edge">
<title>isLastRunNumber&#45;&gt;getRunNumber</title>
<path fill="none" stroke="black" d="M544.74,-119.43C571.45,-134.31 607.44,-161.03 607.44,-197 607.44,-1241 607.44,-1241 607.44,-1241 607.44,-1260.18 594.39,-1276.52 580.08,-1288.67"/>
<polygon fill="black" stroke="black" points="577.76,-1286.04 572.07,-1294.98 582.09,-1291.54 577.76,-1286.04"/>
<text text-anchor="middle" x="616.44" y="-723.8" font-family="Helvetica" font-size="14.00">No</text>
</g>
<!-- allChunksProcessed&#45;&gt;getChunk -->
<g id="edge14" class="edge">
<title>allChunksProcessed&#45;&gt;getChunk</title>
<path fill="none" stroke="black" d="M432.67,-698.76C460.26,-714.01 497.44,-741.44 497.44,-778.5 497.44,-1095 497.44,-1095 497.44,-1095 497.44,-1109.8 493.9,-1125.87 490.06,-1138.98"/>
<polygon fill="black" stroke="black" points="486.64,-1138.18 486.97,-1148.77 493.31,-1140.29 486.64,-1138.18"/>
<text text-anchor="middle" x="506.44" y="-930.3" font-family="Helvetica" font-size="14.00">No</text>
</g>
<!-- allChunksProcessed&#45;&gt;haveMPI -->
<g id="edge15" class="edge">
<title>allChunksProcessed&#45;&gt;haveMPI</title>
<path fill="none" stroke="black" d="M403.44,-665.8C403.44,-654.16 403.44,-638.55 403.44,-625.24"/>
<polygon fill="black" stroke="black" points="406.94,-625.18 403.44,-615.18 399.94,-625.18 406.94,-625.18"/>
<text text-anchor="middle" x="414.94" y="-636.8" font-family="Helvetica" font-size="14.00">Yes</text>
</g>
<!-- RunNumber&#45;&gt;getChunk -->
<g id="edge3" class="edge">
<title>RunNumber&#45;&gt;getChunk</title>
<path fill="none" stroke="black" d="M480.44,-1221.81C480.44,-1213.79 480.44,-1204.05 480.44,-1195.07"/>
<polygon fill="black" stroke="black" points="483.94,-1195.03 480.44,-1185.03 476.94,-1195.03 483.94,-1195.03"/>
</g>
<!-- RunOutputWorkspacesList&#45;&gt;isLastRunNumber -->
<g id="edge22" class="edge">
<title>RunOutputWorkspacesList&#45;&gt;isLastRunNumber</title>
<path fill="none" stroke="black" d="M462.46,-159.99C473.17,-149.27 484.54,-137.9 494.07,-128.38"/>
<polygon fill="black" stroke="black" points="496.67,-130.73 501.26,-121.18 491.72,-125.78 496.67,-130.73"/>
</g>
</g>
</svg>
