<?xml version="1.0" encoding="UTF-8" standalone="no"?>
<!DOCTYPE svg PUBLIC "-//W3C//DTD SVG 1.1//EN"
 "http://www.w3.org/Graphics/SVG/1.1/DTD/svg11.dtd">
<!-- Generated by graphviz version 2.40.1 (20161225.0304)
 -->
<!-- Title: SNSPowderReduction Pages: 1 -->
<svg width="602pt" height="1476pt"
 viewBox="0.00 0.00 602.08 1476.00" xmlns="http://www.w3.org/2000/svg" xmlns:xlink="http://www.w3.org/1999/xlink">
<g id="graph0" class="graph" transform="scale(1 1) rotate(0) translate(4 1472)">
<title>SNSPowderReduction</title>
<polygon fill="#ffffff" stroke="transparent" points="-4,4 -4,-1472 598.0774,-1472 598.0774,4 -4,4"/>
<text text-anchor="middle" x="297.0387" y="-1452.8" font-family="Helvetica,sans-Serif" font-size="14.00" fill="#000000">SNSPowderReduction Flowchart</text>
<!-- SampleRunList -->
<g id="node1" class="node">
<title>SampleRunList</title>
<ellipse fill="#f0e68c" stroke="#000000" cx="90.0774" cy="-1427" rx="70.6878" ry="18"/>
<text text-anchor="middle" x="90.0774" y="-1423.3" font-family="Helvetica,sans-Serif" font-size="14.00" fill="#000000">SampleRunList</text>
</g>
<!-- isSum -->
<g id="node15" class="node">
<title>isSum</title>
<polygon fill="#32cd32" stroke="#000000" points="90.0774,-1372 -.0775,-1354 90.0774,-1336 180.2323,-1354 90.0774,-1372"/>
<text text-anchor="middle" x="90.0774" y="-1350.3" font-family="Helvetica,sans-Serif" font-size="14.00" fill="#000000">Is Sum True?</text>
</g>
<!-- SampleRunList&#45;&gt;isSum -->
<g id="edge1" class="edge">
<title>SampleRunList&#45;&gt;isSum</title>
<path fill="none" stroke="#000000" d="M90.0774,-1408.9551C90.0774,-1400.8828 90.0774,-1391.1764 90.0774,-1382.1817"/>
<polygon fill="#000000" stroke="#000000" points="93.5775,-1382.0903 90.0774,-1372.0904 86.5775,-1382.0904 93.5775,-1382.0903"/>
</g>
<!-- TimeFilterWall -->
<g id="node2" class="node">
<title>TimeFilterWall</title>
<ellipse fill="#f0e68c" stroke="#000000" cx="336.0774" cy="-1267" rx="67.6881" ry="18"/>
<text text-anchor="middle" x="336.0774" y="-1263.3" font-family="Helvetica,sans-Serif" font-size="14.00" fill="#000000">TimeFilterWall</text>
</g>
<!-- focusAndSum -->
<g id="node5" class="node">
<title>focusAndSum</title>
<path fill="#87cefa" stroke="#000000" d="M227.0774,-1212C227.0774,-1212 139.0774,-1212 139.0774,-1212 133.0774,-1212 127.0774,-1206 127.0774,-1200 127.0774,-1200 127.0774,-1188 127.0774,-1188 127.0774,-1182 133.0774,-1176 139.0774,-1176 139.0774,-1176 227.0774,-1176 227.0774,-1176 233.0774,-1176 239.0774,-1182 239.0774,-1188 239.0774,-1188 239.0774,-1200 239.0774,-1200 239.0774,-1206 233.0774,-1212 227.0774,-1212"/>
<text text-anchor="middle" x="183.0774" y="-1190.3" font-family="Helvetica,sans-Serif" font-size="14.00" fill="#000000">Focus and Sum</text>
</g>
<!-- TimeFilterWall&#45;&gt;focusAndSum -->
<g id="edge3" class="edge">
<title>TimeFilterWall&#45;&gt;focusAndSum</title>
<path fill="none" stroke="#000000" d="M302.8787,-1251.1601C281.6195,-1241.0168 253.7079,-1227.6995 230.1748,-1216.4713"/>
<polygon fill="#000000" stroke="#000000" points="231.5929,-1213.27 221.0604,-1212.1226 228.5786,-1219.5877 231.5929,-1213.27"/>
</g>
<!-- focusChunks -->
<g id="node6" class="node">
<title>focusChunks</title>
<path fill="#87cefa" stroke="#000000" d="M404.0774,-1212C404.0774,-1212 328.0774,-1212 328.0774,-1212 322.0774,-1212 316.0774,-1206 316.0774,-1200 316.0774,-1200 316.0774,-1188 316.0774,-1188 316.0774,-1182 322.0774,-1176 328.0774,-1176 328.0774,-1176 404.0774,-1176 404.0774,-1176 410.0774,-1176 416.0774,-1182 416.0774,-1188 416.0774,-1188 416.0774,-1200 416.0774,-1200 416.0774,-1206 410.0774,-1212 404.0774,-1212"/>
<text text-anchor="middle" x="366.0774" y="-1190.3" font-family="Helvetica,sans-Serif" font-size="14.00" fill="#000000">Focus chunks</text>
</g>
<!-- TimeFilterWall&#45;&gt;focusChunks -->
<g id="edge8" class="edge">
<title>TimeFilterWall&#45;&gt;focusChunks</title>
<path fill="none" stroke="#000000" d="M343.4931,-1248.9551C346.8826,-1240.7074 350.9732,-1230.7536 354.7365,-1221.5962"/>
<polygon fill="#000000" stroke="#000000" points="358.0791,-1222.6702 358.643,-1212.0904 351.6045,-1220.0094 358.0791,-1222.6702"/>
</g>
<!-- CalibrationFile -->
<g id="node3" class="node">
<title>CalibrationFile</title>
<ellipse fill="#f0e68c" stroke="#000000" cx="183.0774" cy="-1267" rx="66.8882" ry="18"/>
<text text-anchor="middle" x="183.0774" y="-1263.3" font-family="Helvetica,sans-Serif" font-size="14.00" fill="#000000">CalibrationFile</text>
</g>
<!-- CalibrationFile&#45;&gt;focusAndSum -->
<g id="edge4" class="edge">
<title>CalibrationFile&#45;&gt;focusAndSum</title>
<path fill="none" stroke="#000000" d="M183.0774,-1248.9551C183.0774,-1240.8828 183.0774,-1231.1764 183.0774,-1222.1817"/>
<polygon fill="#000000" stroke="#000000" points="186.5775,-1222.0903 183.0774,-1212.0904 179.5775,-1222.0904 186.5775,-1222.0903"/>
</g>
<!-- CalibrationFile&#45;&gt;focusChunks -->
<g id="edge9" class="edge">
<title>CalibrationFile&#45;&gt;focusChunks</title>
<path fill="none" stroke="#000000" d="M220.5518,-1252.0512C246.7829,-1241.5874 282.2433,-1227.442 311.5925,-1215.7344"/>
<polygon fill="#000000" stroke="#000000" points="312.8959,-1218.9828 320.8873,-1212.0266 310.3022,-1212.481 312.8959,-1218.9828"/>
</g>
<!-- OutputWorkspaces -->
<g id="node4" class="node">
<title>OutputWorkspaces</title>
<ellipse fill="#f0e68c" stroke="#000000" cx="191.0774" cy="-18" rx="86.3847" ry="18"/>
<text text-anchor="middle" x="191.0774" y="-14.3" font-family="Helvetica,sans-Serif" font-size="14.00" fill="#000000">OutputWorkspaces</text>
</g>
<!-- SamRunList -->
<g id="node21" class="node">
<title>SamRunList</title>
<polygon fill="#c0c0c0" stroke="#000000" points="317.4574,-925 129.1413,-925 80.6974,-849 269.0135,-849 317.4574,-925"/>
<text text-anchor="middle" x="199.0774" y="-890.8" font-family="Times,serif" font-size="14.00" fill="#000000">Processed</text>
<text text-anchor="middle" x="199.0774" y="-875.8" font-family="Times,serif" font-size="14.00" fill="#000000">Sample Runs List</text>
</g>
<!-- focusAndSum&#45;&gt;SamRunList -->
<g id="edge5" class="edge">
<title>focusAndSum&#45;&gt;SamRunList</title>
<path fill="none" stroke="#000000" d="M184.0304,-1175.7151C186.4588,-1129.1194 192.9422,-1004.7191 196.5559,-935.382"/>
<polygon fill="#000000" stroke="#000000" points="200.0635,-935.3258 197.0888,-925.1572 193.0729,-934.9614 200.0635,-935.3258"/>
</g>
<!-- SamRun -->
<g id="node20" class="node">
<title>SamRun</title>
<polygon fill="#c0c0c0" stroke="#000000" points="455.7965,-1125 338.5259,-1125 308.3583,-1049 425.6289,-1049 455.7965,-1125"/>
<text text-anchor="middle" x="382.0774" y="-1090.8" font-family="Times,serif" font-size="14.00" fill="#000000">Processed</text>
<text text-anchor="middle" x="382.0774" y="-1075.8" font-family="Times,serif" font-size="14.00" fill="#000000">Sample</text>
</g>
<!-- focusChunks&#45;&gt;SamRun -->
<g id="edge10" class="edge">
<title>focusChunks&#45;&gt;SamRun</title>
<path fill="none" stroke="#000000" d="M368.7916,-1175.8489C370.4561,-1164.7178 372.6731,-1149.8915 374.8184,-1135.5447"/>
<polygon fill="#000000" stroke="#000000" points="378.3415,-1135.65 376.3589,-1125.2423 371.4185,-1134.6147 378.3415,-1135.65"/>
</g>
<!-- getSampleRun -->
<g id="node7" class="node">
<title>getSampleRun</title>
<path fill="#87cefa" stroke="#000000" d="M582.0774,-1285C582.0774,-1285 434.0774,-1285 434.0774,-1285 428.0774,-1285 422.0774,-1279 422.0774,-1273 422.0774,-1273 422.0774,-1261 422.0774,-1261 422.0774,-1255 428.0774,-1249 434.0774,-1249 434.0774,-1249 582.0774,-1249 582.0774,-1249 588.0774,-1249 594.0774,-1255 594.0774,-1261 594.0774,-1261 594.0774,-1273 594.0774,-1273 594.0774,-1279 588.0774,-1285 582.0774,-1285"/>
<text text-anchor="middle" x="508.0774" y="-1263.3" font-family="Helvetica,sans-Serif" font-size="14.00" fill="#000000">Get a sample run number</text>
</g>
<!-- getSampleRun&#45;&gt;focusChunks -->
<g id="edge7" class="edge">
<title>getSampleRun&#45;&gt;focusChunks</title>
<path fill="none" stroke="#000000" d="M472.9763,-1248.9551C454.0313,-1239.2157 430.4588,-1227.0975 410.2739,-1216.7207"/>
<polygon fill="#000000" stroke="#000000" points="411.7607,-1213.5497 401.2669,-1212.0904 408.5603,-1219.7752 411.7607,-1213.5497"/>
</g>
<!-- getProcessedSam -->
<g id="node8" class="node">
<title>getProcessedSam</title>
<path fill="#87cefa" stroke="#000000" d="M315.0774,-812C315.0774,-812 83.0774,-812 83.0774,-812 77.0774,-812 71.0774,-806 71.0774,-800 71.0774,-800 71.0774,-788 71.0774,-788 71.0774,-782 77.0774,-776 83.0774,-776 83.0774,-776 315.0774,-776 315.0774,-776 321.0774,-776 327.0774,-782 327.0774,-788 327.0774,-788 327.0774,-800 327.0774,-800 327.0774,-806 321.0774,-812 315.0774,-812"/>
<text text-anchor="middle" x="199.0774" y="-790.3" font-family="Helvetica,sans-Serif" font-size="14.00" fill="#000000">Get a processed sample run workspace</text>
</g>
<!-- isCanRunDefined -->
<g id="node17" class="node">
<title>isCanRunDefined</title>
<polygon fill="#32cd32" stroke="#000000" points="199.0774,-739 39.2107,-721 199.0774,-703 358.9442,-721 199.0774,-739"/>
<text text-anchor="middle" x="199.0774" y="-717.3" font-family="Helvetica,sans-Serif" font-size="14.00" fill="#000000">Is container run specified?</text>
</g>
<!-- getProcessedSam&#45;&gt;isCanRunDefined -->
<g id="edge15" class="edge">
<title>getProcessedSam&#45;&gt;isCanRunDefined</title>
<path fill="none" stroke="#000000" d="M199.0774,-775.9551C199.0774,-767.8828 199.0774,-758.1764 199.0774,-749.1817"/>
<polygon fill="#000000" stroke="#000000" points="202.5775,-749.0903 199.0774,-739.0904 195.5775,-749.0904 202.5775,-749.0903"/>
</g>
<!-- compressEvents -->
<g id="node9" class="node">
<title>compressEvents</title>
<path fill="#87cefa" stroke="#000000" d="M248.0774,-415C248.0774,-415 134.0774,-415 134.0774,-415 128.0774,-415 122.0774,-409 122.0774,-403 122.0774,-403 122.0774,-391 122.0774,-391 122.0774,-385 128.0774,-379 134.0774,-379 134.0774,-379 248.0774,-379 248.0774,-379 254.0774,-379 260.0774,-385 260.0774,-391 260.0774,-391 260.0774,-403 260.0774,-403 260.0774,-409 254.0774,-415 248.0774,-415"/>
<text text-anchor="middle" x="191.0774" y="-393.3" font-family="Helvetica,sans-Serif" font-size="14.00" fill="#000000">CompressEvents v1</text>
</g>
<!-- mustDataPositive -->
<g id="node19" class="node">
<title>mustDataPositive</title>
<polygon fill="#32cd32" stroke="#000000" points="191.0774,-342 5.2377,-324 191.0774,-306 376.9171,-324 191.0774,-342"/>
<text text-anchor="middle" x="191.0774" y="-320.3" font-family="Helvetica,sans-Serif" font-size="14.00" fill="#000000">Does data have to be positive?</text>
</g>
<!-- compressEvents&#45;&gt;mustDataPositive -->
<g id="edge22" class="edge">
<title>compressEvents&#45;&gt;mustDataPositive</title>
<path fill="none" stroke="#000000" d="M191.0774,-378.9551C191.0774,-370.8828 191.0774,-361.1764 191.0774,-352.1817"/>
<polygon fill="#000000" stroke="#000000" points="194.5775,-352.0903 191.0774,-342.0904 187.5775,-352.0904 194.5775,-352.0903"/>
</g>
<!-- processCanRun -->
<g id="node10" class="node">
<title>processCanRun</title>
<path fill="#87cefa" stroke="#000000" d="M509.0774,-652C509.0774,-652 231.0774,-652 231.0774,-652 225.0774,-652 219.0774,-646 219.0774,-640 219.0774,-640 219.0774,-626 219.0774,-626 219.0774,-620 225.0774,-614 231.0774,-614 231.0774,-614 509.0774,-614 509.0774,-614 515.0774,-614 521.0774,-620 521.0774,-626 521.0774,-626 521.0774,-640 521.0774,-640 521.0774,-646 515.0774,-652 509.0774,-652"/>
<text text-anchor="middle" x="370.0774" y="-636.8" font-family="Helvetica,sans-Serif" font-size="14.00" fill="#000000">Process Container Run</text>
<text text-anchor="middle" x="370.0774" y="-621.8" font-family="Helvetica,sans-Serif" font-size="14.00" fill="#000000">(see workflow diagram &#39;Process Container Run&#39;</text>
</g>
<!-- isVanRunDefined -->
<g id="node18" class="node">
<title>isVanRunDefined</title>
<polygon fill="#32cd32" stroke="#000000" points="195.0774,-577 29.6808,-559 195.0774,-541 360.474,-559 195.0774,-577"/>
<text text-anchor="middle" x="195.0774" y="-555.3" font-family="Helvetica,sans-Serif" font-size="14.00" fill="#000000">Is Vanadium run specified?</text>
</g>
<!-- processCanRun&#45;&gt;isVanRunDefined -->
<g id="edge18" class="edge">
<title>processCanRun&#45;&gt;isVanRunDefined</title>
<path fill="none" stroke="#000000" d="M325.0106,-613.9432C298.3127,-602.6538 264.6608,-588.4238 238.2939,-577.2744"/>
<polygon fill="#000000" stroke="#000000" points="239.5094,-573.9884 228.9358,-573.3173 236.7831,-580.4357 239.5094,-573.9884"/>
</g>
<!-- processVanRun -->
<g id="node11" class="node">
<title>processVanRun</title>
<path fill="#87cefa" stroke="#000000" d="M508.5774,-490C508.5774,-490 227.5774,-490 227.5774,-490 221.5774,-490 215.5774,-484 215.5774,-478 215.5774,-478 215.5774,-464 215.5774,-464 215.5774,-458 221.5774,-452 227.5774,-452 227.5774,-452 508.5774,-452 508.5774,-452 514.5774,-452 520.5774,-458 520.5774,-464 520.5774,-464 520.5774,-478 520.5774,-478 520.5774,-484 514.5774,-490 508.5774,-490"/>
<text text-anchor="middle" x="368.0774" y="-474.8" font-family="Helvetica,sans-Serif" font-size="14.00" fill="#000000">Process Vanadium Run</text>
<text text-anchor="middle" x="368.0774" y="-459.8" font-family="Helvetica,sans-Serif" font-size="14.00" fill="#000000">(see workflow diagram &#39;Process Vanadium Run&#39;</text>
</g>
<!-- processVanRun&#45;&gt;compressEvents -->
<g id="edge21" class="edge">
<title>processVanRun&#45;&gt;compressEvents</title>
<path fill="none" stroke="#000000" d="M322.4955,-451.9432C298.4266,-441.8805 268.7696,-429.4815 243.7234,-419.0102"/>
<polygon fill="#000000" stroke="#000000" points="244.9474,-415.7284 234.3712,-415.1002 242.2473,-422.1867 244.9474,-415.7284"/>
</g>
<!-- resetNegatives -->
<g id="node12" class="node">
<title>resetNegatives</title>
<path fill="#87cefa" stroke="#000000" d="M194.0774,-255C194.0774,-255 88.0774,-255 88.0774,-255 82.0774,-255 76.0774,-249 76.0774,-243 76.0774,-243 76.0774,-231 76.0774,-231 76.0774,-225 82.0774,-219 88.0774,-219 88.0774,-219 194.0774,-219 194.0774,-219 200.0774,-219 206.0774,-225 206.0774,-231 206.0774,-231 206.0774,-243 206.0774,-243 206.0774,-249 200.0774,-255 194.0774,-255"/>
<text text-anchor="middle" x="141.0774" y="-233.3" font-family="Helvetica,sans-Serif" font-size="14.00" fill="#000000">ResetNegatives v1</text>
</g>
<!-- scale -->
<g id="node13" class="node">
<title>scale</title>
<path fill="#87cefa" stroke="#000000" d="M213.0774,-182C213.0774,-182 169.0774,-182 169.0774,-182 163.0774,-182 157.0774,-176 157.0774,-170 157.0774,-170 157.0774,-158 157.0774,-158 157.0774,-152 163.0774,-146 169.0774,-146 169.0774,-146 213.0774,-146 213.0774,-146 219.0774,-146 225.0774,-152 225.0774,-158 225.0774,-158 225.0774,-170 225.0774,-170 225.0774,-176 219.0774,-182 213.0774,-182"/>
<text text-anchor="middle" x="191.0774" y="-160.3" font-family="Helvetica,sans-Serif" font-size="14.00" fill="#000000">Scale v1</text>
</g>
<!-- resetNegatives&#45;&gt;scale -->
<g id="edge24" class="edge">
<title>resetNegatives&#45;&gt;scale</title>
<path fill="none" stroke="#000000" d="M153.437,-218.9551C159.3265,-210.3564 166.4861,-199.9034 172.9735,-190.4316"/>
<polygon fill="#000000" stroke="#000000" points="175.9234,-192.3185 178.6868,-182.0904 170.1482,-188.3628 175.9234,-192.3185"/>
</g>
<!-- convertUnits -->
<g id="node14" class="node">
<title>convertUnits</title>
<path fill="#87cefa" stroke="#000000" d="M235.5774,-109C235.5774,-109 146.5774,-109 146.5774,-109 140.5774,-109 134.5774,-103 134.5774,-97 134.5774,-97 134.5774,-85 134.5774,-85 134.5774,-79 140.5774,-73 146.5774,-73 146.5774,-73 235.5774,-73 235.5774,-73 241.5774,-73 247.5774,-79 247.5774,-85 247.5774,-85 247.5774,-97 247.5774,-97 247.5774,-103 241.5774,-109 235.5774,-109"/>
<text text-anchor="middle" x="191.0774" y="-87.3" font-family="Helvetica,sans-Serif" font-size="14.00" fill="#000000">ConvertUnits v1</text>
</g>
<!-- scale&#45;&gt;convertUnits -->
<g id="edge26" class="edge">
<title>scale&#45;&gt;convertUnits</title>
<path fill="none" stroke="#000000" d="M191.0774,-145.9551C191.0774,-137.8828 191.0774,-128.1764 191.0774,-119.1817"/>
<polygon fill="#000000" stroke="#000000" points="194.5775,-119.0903 191.0774,-109.0904 187.5775,-119.0904 194.5775,-119.0903"/>
</g>
<!-- convertUnits&#45;&gt;OutputWorkspaces -->
<g id="edge27" class="edge">
<title>convertUnits&#45;&gt;OutputWorkspaces</title>
<path fill="none" stroke="#000000" d="M191.0774,-72.9551C191.0774,-64.8828 191.0774,-55.1764 191.0774,-46.1817"/>
<polygon fill="#000000" stroke="#000000" points="194.5775,-46.0903 191.0774,-36.0904 187.5775,-46.0904 194.5775,-46.0903"/>
</g>
<!-- isSum&#45;&gt;focusAndSum -->
<g id="edge2" class="edge">
<title>isSum&#45;&gt;focusAndSum</title>
<path fill="none" stroke="#000000" d="M83.4029,-1337.005C75.9463,-1315.0373 66.898,-1276.3638 83.0774,-1249 91.143,-1235.359 103.9296,-1224.873 117.7002,-1216.9022"/>
<polygon fill="#000000" stroke="#000000" points="119.6765,-1219.8148 126.8517,-1212.0195 116.3814,-1213.6389 119.6765,-1219.8148"/>
<text text-anchor="middle" x="95.0774" y="-1263.3" font-family="Helvetica,sans-Serif" font-size="14.00" fill="#000000">Yes</text>
</g>
<!-- isSum&#45;&gt;getSampleRun -->
<g id="edge6" class="edge">
<title>isSum&#45;&gt;getSampleRun</title>
<path fill="none" stroke="#000000" d="M134.415,-1344.7718C200.0662,-1331.1076 324.7502,-1305.1566 411.9648,-1287.0043"/>
<polygon fill="#000000" stroke="#000000" points="412.799,-1290.4058 421.876,-1284.9415 411.3725,-1283.5526 412.799,-1290.4058"/>
<text text-anchor="middle" x="333.0774" y="-1306.8" font-family="Helvetica,sans-Serif" font-size="14.00" fill="#000000">No</text>
</g>
<!-- isLastSampleRun -->
<g id="node16" class="node">
<title>isLastSampleRun</title>
<polygon fill="#32cd32" stroke="#000000" points="390.0774,-1012 210.6058,-994 390.0774,-976 569.5491,-994 390.0774,-1012"/>
<text text-anchor="middle" x="390.0774" y="-990.3" font-family="Helvetica,sans-Serif" font-size="14.00" fill="#000000">Is Last Sample Run Number?</text>
</g>
<!-- isLastSampleRun&#45;&gt;getSampleRun -->
<g id="edge12" class="edge">
<title>isLastSampleRun&#45;&gt;getSampleRun</title>
<path fill="none" stroke="#000000" d="M420.3875,-1009.0871C436.1118,-1018.4562 454.2471,-1031.9684 465.0774,-1049 502.9567,-1108.5682 508.654,-1194.365 508.8227,-1238.4564"/>
<polygon fill="#000000" stroke="#000000" points="505.3213,-1238.7059 508.7627,-1248.7262 512.3212,-1238.7468 505.3213,-1238.7059"/>
<text text-anchor="middle" x="511.0774" y="-1146.8" font-family="Helvetica,sans-Serif" font-size="14.00" fill="#000000">No</text>
</g>
<!-- isLastSampleRun&#45;&gt;SamRunList -->
<g id="edge13" class="edge">
<title>isLastSampleRun&#45;&gt;SamRunList</title>
<path fill="none" stroke="#000000" d="M362.7118,-978.6695C340.0859,-965.9943 306.8133,-947.3547 276.1692,-930.1875"/>
<polygon fill="#000000" stroke="#000000" points="277.6188,-926.9879 267.1839,-925.1539 274.1976,-933.0949 277.6188,-926.9879"/>
<text text-anchor="middle" x="334.0774" y="-946.8" font-family="Helvetica,sans-Serif" font-size="14.00" fill="#000000">Yes</text>
</g>
<!-- isCanRunDefined&#45;&gt;processCanRun -->
<g id="edge17" class="edge">
<title>isCanRunDefined&#45;&gt;processCanRun</title>
<path fill="none" stroke="#000000" d="M228.0852,-706.072C254.2505,-692.6068 293.192,-672.5668 323.6794,-656.8773"/>
<polygon fill="#000000" stroke="#000000" points="325.556,-659.8479 332.8461,-652.16 322.3529,-653.6238 325.556,-659.8479"/>
<text text-anchor="middle" x="306.0774" y="-673.8" font-family="Helvetica,sans-Serif" font-size="14.00" fill="#000000">Yes</text>
</g>
<!-- isCanRunDefined&#45;&gt;isVanRunDefined -->
<g id="edge16" class="edge">
<title>isCanRunDefined&#45;&gt;isVanRunDefined</title>
<path fill="none" stroke="#000000" d="M196.7681,-703.1671C195.0882,-689.2571 192.9596,-669.4366 192.0774,-652 191.224,-635.1327 191.6173,-630.8826 192.0774,-614 192.3119,-605.3967 192.7523,-596.0448 193.2248,-587.534"/>
<polygon fill="#000000" stroke="#000000" points="196.7321,-587.512 193.8275,-577.3231 189.7443,-587.0995 196.7321,-587.512"/>
<text text-anchor="middle" x="201.0774" y="-629.3" font-family="Helvetica,sans-Serif" font-size="14.00" fill="#000000">No</text>
</g>
<!-- isVanRunDefined&#45;&gt;compressEvents -->
<g id="edge19" class="edge">
<title>isVanRunDefined&#45;&gt;compressEvents</title>
<path fill="none" stroke="#000000" d="M192.7681,-541.1671C191.0882,-527.2571 188.9596,-507.4366 188.0774,-490 187.224,-473.1327 187.6173,-468.8826 188.0774,-452 188.3119,-443.3967 188.7523,-434.0448 189.2248,-425.534"/>
<polygon fill="#000000" stroke="#000000" points="192.7321,-425.512 189.8275,-415.3231 185.7443,-425.0995 192.7321,-425.512"/>
<text text-anchor="middle" x="197.0774" y="-467.3" font-family="Helvetica,sans-Serif" font-size="14.00" fill="#000000">No</text>
</g>
<!-- isVanRunDefined&#45;&gt;processVanRun -->
<g id="edge20" class="edge">
<title>isVanRunDefined&#45;&gt;processVanRun</title>
<path fill="none" stroke="#000000" d="M224.4245,-544.072C250.8958,-530.6068 290.2927,-510.5668 321.1367,-494.8773"/>
<polygon fill="#000000" stroke="#000000" points="323.0844,-497.8135 330.4107,-490.16 319.9106,-491.5743 323.0844,-497.8135"/>
<text text-anchor="middle" x="303.0774" y="-511.8" font-family="Helvetica,sans-Serif" font-size="14.00" fill="#000000">Yes</text>
</g>
<!-- mustDataPositive&#45;&gt;resetNegatives -->
<g id="edge23" class="edge">
<title>mustDataPositive&#45;&gt;resetNegatives</title>
<path fill="none" stroke="#000000" d="M181.199,-306.8116C174.1485,-294.5437 164.5277,-277.8035 156.4746,-263.7911"/>
<polygon fill="#000000" stroke="#000000" points="159.4691,-261.9774 151.4517,-255.0512 153.4,-265.4654 159.4691,-261.9774"/>
<text text-anchor="middle" x="181.0774" y="-276.8" font-family="Helvetica,sans-Serif" font-size="14.00" fill="#000000">Yes</text>
</g>
<!-- mustDataPositive&#45;&gt;scale -->
<g id="edge25" class="edge">
<title>mustDataPositive&#45;&gt;scale</title>
<path fill="none" stroke="#000000" d="M199.7457,-306.5805C209.0059,-285.7861 221.533,-249.9354 215.0774,-219 213.1291,-209.6637 209.5051,-199.9713 205.653,-191.3715"/>
<polygon fill="#000000" stroke="#000000" points="208.7456,-189.7252 201.2841,-182.2034 202.4265,-192.7365 208.7456,-189.7252"/>
<text text-anchor="middle" x="226.0774" y="-233.3" font-family="Helvetica,sans-Serif" font-size="14.00" fill="#000000">No</text>
</g>
<!-- SamRun&#45;&gt;isLastSampleRun -->
<g id="edge11" class="edge">
<title>SamRun&#45;&gt;isLastSampleRun</title>
<path fill="none" stroke="#000000" d="M385.3544,-1048.905C386.119,-1040.0168 386.92,-1030.7049 387.6407,-1022.3269"/>
<polygon fill="#000000" stroke="#000000" points="391.1318,-1022.5798 388.5018,-1012.3166 384.1575,-1021.9798 391.1318,-1022.5798"/>
</g>
<!-- SamRunList&#45;&gt;getProcessedSam -->
<g id="edge14" class="edge">
<title>SamRunList&#45;&gt;getProcessedSam</title>
<path fill="none" stroke="#000000" d="M199.0774,-848.905C199.0774,-840.0168 199.0774,-830.7049 199.0774,-822.3269"/>
<polygon fill="#000000" stroke="#000000" points="202.5775,-822.3165 199.0774,-812.3166 195.5775,-822.3166 202.5775,-822.3165"/>
</g>
</g>
</svg>
