<?xml version="1.0" encoding="UTF-8" standalone="no"?>
<!DOCTYPE svg PUBLIC "-//W3C//DTD SVG 1.1//EN"
 "http://www.w3.org/Graphics/SVG/1.1/DTD/svg11.dtd">
<!-- Generated by graphviz version 2.47.2 (20210527.1257)
 -->
<!-- Title: SNSPowderReduction Pages: 1 -->
<svg width="601pt" height="1476pt"
 viewBox="0.00 0.00 601.08 1476.00" xmlns="http://www.w3.org/2000/svg" xmlns:xlink="http://www.w3.org/1999/xlink">
<g id="graph0" class="graph" transform="scale(1 1) rotate(0) translate(4 1472)">
<title>SNSPowderReduction</title>
<polygon fill="white" stroke="transparent" points="-4,4 -4,-1472 597.08,-1472 597.08,4 -4,4"/>
<text text-anchor="middle" x="296.54" y="-1452.8" font-family="Helvetica" font-size="14.00">SNSPowderReduction Flowchart</text>
<!-- SampleRunList -->
<g id="node1" class="node">
<title>SampleRunList</title>
<ellipse fill="khaki" stroke="black" cx="90.08" cy="-1427" rx="70.69" ry="18"/>
<text text-anchor="middle" x="90.08" y="-1423.3" font-family="Helvetica" font-size="14.00">SampleRunList</text>
</g>
<!-- isSum -->
<g id="node15" class="node">
<title>isSum</title>
<polygon fill="limegreen" stroke="black" points="90.08,-1372 -0.08,-1354 90.08,-1336 180.23,-1354 90.08,-1372"/>
<text text-anchor="middle" x="90.08" y="-1350.3" font-family="Helvetica" font-size="14.00">Is Sum True?</text>
</g>
<!-- SampleRunList&#45;&gt;isSum -->
<g id="edge1" class="edge">
<title>SampleRunList&#45;&gt;isSum</title>
<path fill="none" stroke="black" d="M90.08,-1408.81C90.08,-1400.79 90.08,-1391.05 90.08,-1382.07"/>
<polygon fill="black" stroke="black" points="93.58,-1382.03 90.08,-1372.03 86.58,-1382.03 93.58,-1382.03"/>
</g>
<!-- TimeFilterWall -->
<g id="node2" class="node">
<title>TimeFilterWall</title>
<ellipse fill="khaki" stroke="black" cx="335.08" cy="-1267" rx="67.69" ry="18"/>
<text text-anchor="middle" x="335.08" y="-1263.3" font-family="Helvetica" font-size="14.00">TimeFilterWall</text>
</g>
<!-- focusAndSum -->
<g id="node5" class="node">
<title>focusAndSum</title>
<path fill="lightskyblue" stroke="black" d="M226.08,-1212C226.08,-1212 138.08,-1212 138.08,-1212 132.08,-1212 126.08,-1206 126.08,-1200 126.08,-1200 126.08,-1188 126.08,-1188 126.08,-1182 132.08,-1176 138.08,-1176 138.08,-1176 226.08,-1176 226.08,-1176 232.08,-1176 238.08,-1182 238.08,-1188 238.08,-1188 238.08,-1200 238.08,-1200 238.08,-1206 232.08,-1212 226.08,-1212"/>
<text text-anchor="middle" x="182.08" y="-1190.3" font-family="Helvetica" font-size="14.00">Focus and Sum</text>
</g>
<!-- TimeFilterWall&#45;&gt;focusAndSum -->
<g id="edge3" class="edge">
<title>TimeFilterWall&#45;&gt;focusAndSum</title>
<path fill="none" stroke="black" d="M303,-1251.12C281.34,-1241.06 252.41,-1227.64 228.28,-1216.44"/>
<polygon fill="black" stroke="black" points="229.49,-1213.15 218.95,-1212.11 226.55,-1219.49 229.49,-1213.15"/>
</g>
<!-- focusChunks -->
<g id="node6" class="node">
<title>focusChunks</title>
<path fill="lightskyblue" stroke="black" d="M402.08,-1212C402.08,-1212 326.08,-1212 326.08,-1212 320.08,-1212 314.08,-1206 314.08,-1200 314.08,-1200 314.08,-1188 314.08,-1188 314.08,-1182 320.08,-1176 326.08,-1176 326.08,-1176 402.08,-1176 402.08,-1176 408.08,-1176 414.08,-1182 414.08,-1188 414.08,-1188 414.08,-1200 414.08,-1200 414.08,-1206 408.08,-1212 402.08,-1212"/>
<text text-anchor="middle" x="364.08" y="-1190.3" font-family="Helvetica" font-size="14.00">Focus chunks</text>
</g>
<!-- TimeFilterWall&#45;&gt;focusChunks -->
<g id="edge8" class="edge">
<title>TimeFilterWall&#45;&gt;focusChunks</title>
<path fill="none" stroke="black" d="M342.1,-1248.81C345.45,-1240.62 349.53,-1230.62 353.26,-1221.48"/>
<polygon fill="black" stroke="black" points="356.58,-1222.61 357.12,-1212.03 350.1,-1219.96 356.58,-1222.61"/>
</g>
<!-- CalibrationFile -->
<g id="node3" class="node">
<title>CalibrationFile</title>
<ellipse fill="khaki" stroke="black" cx="182.08" cy="-1267" rx="66.89" ry="18"/>
<text text-anchor="middle" x="182.08" y="-1263.3" font-family="Helvetica" font-size="14.00">CalibrationFile</text>
</g>
<!-- CalibrationFile&#45;&gt;focusAndSum -->
<g id="edge4" class="edge">
<title>CalibrationFile&#45;&gt;focusAndSum</title>
<path fill="none" stroke="black" d="M182.08,-1248.81C182.08,-1240.79 182.08,-1231.05 182.08,-1222.07"/>
<polygon fill="black" stroke="black" points="185.58,-1222.03 182.08,-1212.03 178.58,-1222.03 185.58,-1222.03"/>
</g>
<!-- CalibrationFile&#45;&gt;focusChunks -->
<g id="edge9" class="edge">
<title>CalibrationFile&#45;&gt;focusChunks</title>
<path fill="none" stroke="black" d="M218.47,-1251.8C244.96,-1241.47 281.25,-1227.31 310.97,-1215.72"/>
<polygon fill="black" stroke="black" points="312.32,-1218.95 320.37,-1212.05 309.78,-1212.43 312.32,-1218.95"/>
</g>
<!-- OutputWorkspaces -->
<g id="node4" class="node">
<title>OutputWorkspaces</title>
<ellipse fill="khaki" stroke="black" cx="189.08" cy="-18" rx="85.59" ry="18"/>
<text text-anchor="middle" x="189.08" y="-14.3" font-family="Helvetica" font-size="14.00">OutputWorkspaces</text>
</g>
<!-- SamRunList -->
<g id="node21" class="node">
<title>SamRunList</title>
<polygon fill="grey" stroke="black" points="339.07,-925 114.78,-925 57.08,-849 281.37,-849 339.07,-925"/>
<text text-anchor="middle" x="198.08" y="-890.8" font-family="Times-Roman" font-size="14.00">Processed</text>
<text text-anchor="middle" x="198.08" y="-875.8" font-family="Times-Roman" font-size="14.00">Sample Runs List</text>
</g>
<!-- focusAndSum&#45;&gt;SamRunList -->
<g id="edge5" class="edge">
<title>focusAndSum&#45;&gt;SamRunList</title>
<path fill="none" stroke="black" d="M182.98,-1175.73C185.38,-1130 191.96,-1004.56 195.59,-935.37"/>
<polygon fill="black" stroke="black" points="199.1,-935.35 196.13,-925.18 192.11,-934.98 199.1,-935.35"/>
</g>
<!-- SamRun -->
<g id="node20" class="node">
<title>SamRun</title>
<polygon fill="grey" stroke="black" points="463.4,-1125 321.31,-1125 284.76,-1049 426.85,-1049 463.4,-1125"/>
<text text-anchor="middle" x="374.08" y="-1090.8" font-family="Times-Roman" font-size="14.00">Processed</text>
<text text-anchor="middle" x="374.08" y="-1075.8" font-family="Times-Roman" font-size="14.00">Sample</text>
</g>
<!-- focusChunks&#45;&gt;SamRun -->
<g id="edge10" class="edge">
<title>focusChunks&#45;&gt;SamRun</title>
<path fill="none" stroke="black" d="M365.73,-1175.66C366.77,-1164.69 368.18,-1149.94 369.54,-1135.66"/>
<polygon fill="black" stroke="black" points="373.05,-1135.7 370.51,-1125.41 366.08,-1135.03 373.05,-1135.7"/>
</g>
<!-- getSampleRun -->
<g id="node7" class="node">
<title>getSampleRun</title>
<path fill="lightskyblue" stroke="black" d="M581.08,-1285C581.08,-1285 433.08,-1285 433.08,-1285 427.08,-1285 421.08,-1279 421.08,-1273 421.08,-1273 421.08,-1261 421.08,-1261 421.08,-1255 427.08,-1249 433.08,-1249 433.08,-1249 581.08,-1249 581.08,-1249 587.08,-1249 593.08,-1255 593.08,-1261 593.08,-1261 593.08,-1273 593.08,-1273 593.08,-1279 587.08,-1285 581.08,-1285"/>
<text text-anchor="middle" x="507.08" y="-1263.3" font-family="Helvetica" font-size="14.00">Get a sample run number</text>
</g>
<!-- getSampleRun&#45;&gt;focusChunks -->
<g id="edge7" class="edge">
<title>getSampleRun&#45;&gt;focusChunks</title>
<path fill="none" stroke="black" d="M472.83,-1248.99C453.25,-1239.27 428.5,-1226.99 407.56,-1216.59"/>
<polygon fill="black" stroke="black" points="409.06,-1213.43 398.55,-1212.11 405.95,-1219.7 409.06,-1213.43"/>
</g>
<!-- getProcessedSam -->
<g id="node8" class="node">
<title>getProcessedSam</title>
<path fill="lightskyblue" stroke="black" d="M314.08,-812C314.08,-812 82.08,-812 82.08,-812 76.08,-812 70.08,-806 70.08,-800 70.08,-800 70.08,-788 70.08,-788 70.08,-782 76.08,-776 82.08,-776 82.08,-776 314.08,-776 314.08,-776 320.08,-776 326.08,-782 326.08,-788 326.08,-788 326.08,-800 326.08,-800 326.08,-806 320.08,-812 314.08,-812"/>
<text text-anchor="middle" x="198.08" y="-790.3" font-family="Helvetica" font-size="14.00">Get a processed sample run workspace</text>
</g>
<!-- isCanRunDefined -->
<g id="node17" class="node">
<title>isCanRunDefined</title>
<polygon fill="limegreen" stroke="black" points="198.08,-739 38.21,-721 198.08,-703 357.94,-721 198.08,-739"/>
<text text-anchor="middle" x="198.08" y="-717.3" font-family="Helvetica" font-size="14.00">Is container run specified?</text>
</g>
<!-- getProcessedSam&#45;&gt;isCanRunDefined -->
<g id="edge15" class="edge">
<title>getProcessedSam&#45;&gt;isCanRunDefined</title>
<path fill="none" stroke="black" d="M198.08,-775.81C198.08,-767.79 198.08,-758.05 198.08,-749.07"/>
<polygon fill="black" stroke="black" points="201.58,-749.03 198.08,-739.03 194.58,-749.03 201.58,-749.03"/>
</g>
<!-- compressEvents -->
<g id="node9" class="node">
<title>compressEvents</title>
<path fill="lightskyblue" stroke="black" d="M247.08,-415C247.08,-415 133.08,-415 133.08,-415 127.08,-415 121.08,-409 121.08,-403 121.08,-403 121.08,-391 121.08,-391 121.08,-385 127.08,-379 133.08,-379 133.08,-379 247.08,-379 247.08,-379 253.08,-379 259.08,-385 259.08,-391 259.08,-391 259.08,-403 259.08,-403 259.08,-409 253.08,-415 247.08,-415"/>
<text text-anchor="middle" x="190.08" y="-393.3" font-family="Helvetica" font-size="14.00">CompressEvents v1</text>
</g>
<!-- mustDataPositive -->
<g id="node19" class="node">
<title>mustDataPositive</title>
<polygon fill="limegreen" stroke="black" points="190.08,-342 4.24,-324 190.08,-306 375.92,-324 190.08,-342"/>
<text text-anchor="middle" x="190.08" y="-320.3" font-family="Helvetica" font-size="14.00">Does data have to be positive?</text>
</g>
<!-- compressEvents&#45;&gt;mustDataPositive -->
<g id="edge22" class="edge">
<title>compressEvents&#45;&gt;mustDataPositive</title>
<path fill="none" stroke="black" d="M190.08,-378.81C190.08,-370.79 190.08,-361.05 190.08,-352.07"/>
<polygon fill="black" stroke="black" points="193.58,-352.03 190.08,-342.03 186.58,-352.03 193.58,-352.03"/>
</g>
<!-- processCanRun -->
<g id="node10" class="node">
<title>processCanRun</title>
<path fill="lightskyblue" stroke="black" d="M508.08,-652C508.08,-652 230.08,-652 230.08,-652 224.08,-652 218.08,-646 218.08,-640 218.08,-640 218.08,-626 218.08,-626 218.08,-620 224.08,-614 230.08,-614 230.08,-614 508.08,-614 508.08,-614 514.08,-614 520.08,-620 520.08,-626 520.08,-626 520.08,-640 520.08,-640 520.08,-646 514.08,-652 508.08,-652"/>
<text text-anchor="middle" x="369.08" y="-636.8" font-family="Helvetica" font-size="14.00">Process Container Run</text>
<text text-anchor="middle" x="369.08" y="-621.8" font-family="Helvetica" font-size="14.00">(see workflow diagram &#39;Process Container Run&#39;</text>
</g>
<!-- isVanRunDefined -->
<g id="node18" class="node">
<title>isVanRunDefined</title>
<polygon fill="limegreen" stroke="black" points="194.08,-577 29.52,-559 194.08,-541 358.64,-559 194.08,-577"/>
<text text-anchor="middle" x="194.08" y="-555.3" font-family="Helvetica" font-size="14.00">Is Vanadium run specified?</text>
</g>
<!-- processCanRun&#45;&gt;isVanRunDefined -->
<g id="edge18" class="edge">
<title>processCanRun&#45;&gt;isVanRunDefined</title>
<path fill="none" stroke="black" d="M324.92,-613.83C297.77,-602.66 263.18,-588.43 236.39,-577.41"/>
<polygon fill="black" stroke="black" points="237.48,-574.07 226.9,-573.5 234.81,-580.54 237.48,-574.07"/>
</g>
<!-- processVanRun -->
<g id="node11" class="node">
<title>processVanRun</title>
<path fill="lightskyblue" stroke="black" d="M506.08,-490C506.08,-490 226.08,-490 226.08,-490 220.08,-490 214.08,-484 214.08,-478 214.08,-478 214.08,-464 214.08,-464 214.08,-458 220.08,-452 226.08,-452 226.08,-452 506.08,-452 506.08,-452 512.08,-452 518.08,-458 518.08,-464 518.08,-464 518.08,-478 518.08,-478 518.08,-484 512.08,-490 506.08,-490"/>
<text text-anchor="middle" x="366.08" y="-474.8" font-family="Helvetica" font-size="14.00">Process Vanadium Run</text>
<text text-anchor="middle" x="366.08" y="-459.8" font-family="Helvetica" font-size="14.00">(see workflow diagram &#39;Process Vanadium Run&#39;</text>
</g>
<!-- processVanRun&#45;&gt;compressEvents -->
<g id="edge21" class="edge">
<title>processVanRun&#45;&gt;compressEvents</title>
<path fill="none" stroke="black" d="M321.67,-451.83C297.19,-441.82 266.71,-429.35 241.24,-418.93"/>
<polygon fill="black" stroke="black" points="242.33,-415.6 231.75,-415.05 239.68,-422.07 242.33,-415.6"/>
</g>
<!-- resetNegatives -->
<g id="node12" class="node">
<title>resetNegatives</title>
<path fill="lightskyblue" stroke="black" d="M192.08,-255C192.08,-255 86.08,-255 86.08,-255 80.08,-255 74.08,-249 74.08,-243 74.08,-243 74.08,-231 74.08,-231 74.08,-225 80.08,-219 86.08,-219 86.08,-219 192.08,-219 192.08,-219 198.08,-219 204.08,-225 204.08,-231 204.08,-231 204.08,-243 204.08,-243 204.08,-249 198.08,-255 192.08,-255"/>
<text text-anchor="middle" x="139.08" y="-233.3" font-family="Helvetica" font-size="14.00">ResetNegatives v1</text>
</g>
<!-- scale -->
<g id="node13" class="node">
<title>scale</title>
<path fill="lightskyblue" stroke="black" d="M211.08,-182C211.08,-182 167.08,-182 167.08,-182 161.08,-182 155.08,-176 155.08,-170 155.08,-170 155.08,-158 155.08,-158 155.08,-152 161.08,-146 167.08,-146 167.08,-146 211.08,-146 211.08,-146 217.08,-146 223.08,-152 223.08,-158 223.08,-158 223.08,-170 223.08,-170 223.08,-176 217.08,-182 211.08,-182"/>
<text text-anchor="middle" x="189.08" y="-160.3" font-family="Helvetica" font-size="14.00">Scale v1</text>
</g>
<!-- resetNegatives&#45;&gt;scale -->
<g id="edge24" class="edge">
<title>resetNegatives&#45;&gt;scale</title>
<path fill="none" stroke="black" d="M151.18,-218.81C157.2,-210.27 164.59,-199.77 171.24,-190.32"/>
<polygon fill="black" stroke="black" points="174.19,-192.22 177.09,-182.03 168.47,-188.19 174.19,-192.22"/>
</g>
<!-- convertUnits -->
<g id="node14" class="node">
<title>convertUnits</title>
<path fill="lightskyblue" stroke="black" d="M233.58,-109C233.58,-109 144.58,-109 144.58,-109 138.58,-109 132.58,-103 132.58,-97 132.58,-97 132.58,-85 132.58,-85 132.58,-79 138.58,-73 144.58,-73 144.58,-73 233.58,-73 233.58,-73 239.58,-73 245.58,-79 245.58,-85 245.58,-85 245.58,-97 245.58,-97 245.58,-103 239.58,-109 233.58,-109"/>
<text text-anchor="middle" x="189.08" y="-87.3" font-family="Helvetica" font-size="14.00">ConvertUnits v1</text>
</g>
<!-- scale&#45;&gt;convertUnits -->
<g id="edge26" class="edge">
<title>scale&#45;&gt;convertUnits</title>
<path fill="none" stroke="black" d="M189.08,-145.81C189.08,-137.79 189.08,-128.05 189.08,-119.07"/>
<polygon fill="black" stroke="black" points="192.58,-119.03 189.08,-109.03 185.58,-119.03 192.58,-119.03"/>
</g>
<!-- convertUnits&#45;&gt;OutputWorkspaces -->
<g id="edge27" class="edge">
<title>convertUnits&#45;&gt;OutputWorkspaces</title>
<path fill="none" stroke="black" d="M189.08,-72.81C189.08,-64.79 189.08,-55.05 189.08,-46.07"/>
<polygon fill="black" stroke="black" points="192.58,-46.03 189.08,-36.03 185.58,-46.03 192.58,-46.03"/>
</g>
<!-- isSum&#45;&gt;focusAndSum -->
<g id="edge2" class="edge">
<title>isSum&#45;&gt;focusAndSum</title>
<path fill="none" stroke="black" d="M83.69,-1336.9C76.22,-1315.27 66.82,-1276.39 83.08,-1249 91.23,-1235.26 104.25,-1224.79 118.21,-1216.91"/>
<polygon fill="black" stroke="black" points="120.21,-1219.81 127.47,-1212.09 116.98,-1213.6 120.21,-1219.81"/>
<text text-anchor="middle" x="94.58" y="-1263.3" font-family="Helvetica" font-size="14.00">Yes</text>
</g>
<!-- isSum&#45;&gt;getSampleRun -->
<g id="edge6" class="edge">
<title>isSum&#45;&gt;getSampleRun</title>
<path fill="none" stroke="black" d="M132.36,-1344.38C197.85,-1331.03 325.44,-1305.02 413.4,-1287.09"/>
<polygon fill="black" stroke="black" points="414.29,-1290.49 423.39,-1285.06 412.89,-1283.63 414.29,-1290.49"/>
<text text-anchor="middle" x="332.08" y="-1306.8" font-family="Helvetica" font-size="14.00">No</text>
</g>
<!-- isLastSampleRun -->
<g id="node16" class="node">
<title>isLastSampleRun</title>
<polygon fill="limegreen" stroke="black" points="389.08,-1012 209.61,-994 389.08,-976 568.55,-994 389.08,-1012"/>
<text text-anchor="middle" x="389.08" y="-990.3" font-family="Helvetica" font-size="14.00">Is Last Sample Run Number?</text>
</g>
<!-- isLastSampleRun&#45;&gt;getSampleRun -->
<g id="edge12" class="edge">
<title>isLastSampleRun&#45;&gt;getSampleRun</title>
<path fill="none" stroke="black" d="M422.83,-1008.8C440.29,-1017.69 460.36,-1030.99 472.08,-1049 510.55,-1108.12 511.71,-1194.99 509.39,-1238.72"/>
<polygon fill="black" stroke="black" points="505.88,-1238.66 508.74,-1248.87 512.87,-1239.11 505.88,-1238.66"/>
<text text-anchor="middle" x="515.08" y="-1146.8" font-family="Helvetica" font-size="14.00">No</text>
</g>
<!-- isLastSampleRun&#45;&gt;SamRunList -->
<g id="edge13" class="edge">
<title>isLastSampleRun&#45;&gt;SamRunList</title>
<path fill="none" stroke="black" d="M362.92,-978.62C340.04,-966.04 305.64,-947.13 274.17,-929.83"/>
<polygon fill="black" stroke="black" points="275.84,-926.75 265.39,-925 272.46,-932.89 275.84,-926.75"/>
<text text-anchor="middle" x="332.58" y="-946.8" font-family="Helvetica" font-size="14.00">Yes</text>
</g>
<!-- isCanRunDefined&#45;&gt;processCanRun -->
<g id="edge17" class="edge">
<title>isCanRunDefined&#45;&gt;processCanRun</title>
<path fill="none" stroke="black" d="M225.93,-705.99C252.43,-692.66 292.77,-672.38 323.87,-656.73"/>
<polygon fill="black" stroke="black" points="325.84,-659.66 333.2,-652.04 322.7,-653.41 325.84,-659.66"/>
<text text-anchor="middle" x="304.58" y="-673.8" font-family="Helvetica" font-size="14.00">Yes</text>
</g>
<!-- isCanRunDefined&#45;&gt;isVanRunDefined -->
<g id="edge16" class="edge">
<title>isCanRunDefined&#45;&gt;isVanRunDefined</title>
<path fill="none" stroke="black" d="M195.84,-702.99C194.15,-689.26 191.97,-669.42 191.08,-652 190.21,-635.13 190.61,-630.88 191.08,-614 191.32,-605.29 191.78,-595.8 192.27,-587.23"/>
<polygon fill="black" stroke="black" points="195.78,-587.21 192.89,-577.01 188.79,-586.78 195.78,-587.21"/>
<text text-anchor="middle" x="200.08" y="-629.3" font-family="Helvetica" font-size="14.00">No</text>
</g>
<!-- isVanRunDefined&#45;&gt;compressEvents -->
<g id="edge19" class="edge">
<title>isVanRunDefined&#45;&gt;compressEvents</title>
<path fill="none" stroke="black" d="M191.84,-540.99C190.15,-527.26 187.97,-507.42 187.08,-490 186.21,-473.13 186.61,-468.88 187.08,-452 187.32,-443.29 187.78,-433.8 188.27,-425.23"/>
<polygon fill="black" stroke="black" points="191.78,-425.21 188.89,-415.01 184.79,-424.78 191.78,-425.21"/>
<text text-anchor="middle" x="196.08" y="-467.3" font-family="Helvetica" font-size="14.00">No</text>
</g>
<!-- isVanRunDefined&#45;&gt;processVanRun -->
<g id="edge20" class="edge">
<title>isVanRunDefined&#45;&gt;processVanRun</title>
<path fill="none" stroke="black" d="M222.09,-543.99C248.87,-530.61 289.67,-510.2 321.01,-494.53"/>
<polygon fill="black" stroke="black" points="322.62,-497.64 330,-490.04 319.49,-491.38 322.62,-497.64"/>
<text text-anchor="middle" x="301.58" y="-511.8" font-family="Helvetica" font-size="14.00">Yes</text>
</g>
<!-- mustDataPositive&#45;&gt;resetNegatives -->
<g id="edge23" class="edge">
<title>mustDataPositive&#45;&gt;resetNegatives</title>
<path fill="none" stroke="black" d="M180.24,-306.61C172.98,-294.5 162.94,-277.77 154.6,-263.87"/>
<polygon fill="black" stroke="black" points="157.55,-261.99 149.41,-255.21 151.55,-265.59 157.55,-261.99"/>
<text text-anchor="middle" x="179.58" y="-276.8" font-family="Helvetica" font-size="14.00">Yes</text>
</g>
<!-- mustDataPositive&#45;&gt;scale -->
<g id="edge25" class="edge">
<title>mustDataPositive&#45;&gt;scale</title>
<path fill="none" stroke="black" d="M198.17,-306.45C207.17,-285.94 219.64,-249.93 213.08,-219 211.1,-209.67 207.39,-199.99 203.47,-191.45"/>
<polygon fill="black" stroke="black" points="206.57,-189.82 199.03,-182.37 200.28,-192.89 206.57,-189.82"/>
<text text-anchor="middle" x="224.08" y="-233.3" font-family="Helvetica" font-size="14.00">No</text>
</g>
<!-- SamRun&#45;&gt;isLastSampleRun -->
<g id="edge11" class="edge">
<title>SamRun&#45;&gt;isLastSampleRun</title>
<path fill="none" stroke="black" d="M380.18,-1048.99C381.66,-1039.99 383.22,-1030.54 384.61,-1022.1"/>
<polygon fill="black" stroke="black" points="388.09,-1022.5 386.26,-1012.06 381.18,-1021.36 388.09,-1022.5"/>
</g>
<!-- SamRunList&#45;&gt;getProcessedSam -->
<g id="edge14" class="edge">
<title>SamRunList&#45;&gt;getProcessedSam</title>
<path fill="none" stroke="black" d="M198.08,-848.99C198.08,-839.99 198.08,-830.54 198.08,-822.1"/>
<polygon fill="black" stroke="black" points="201.58,-822.06 198.08,-812.06 194.58,-822.06 201.58,-822.06"/>
</g>
</g>
</svg>
