<?xml version="1.0" encoding="UTF-8" standalone="no"?>
<!DOCTYPE svg PUBLIC "-//W3C//DTD SVG 1.1//EN"
 "http://www.w3.org/Graphics/SVG/1.1/DTD/svg11.dtd">
<!-- Generated by graphviz version 3.0.0 (20220315.2325)
 -->
<!-- Title: SNSPowderReductionContainer Pages: 1 -->
<svg width="573pt" height="523pt"
 viewBox="0.00 0.00 572.78 523.00" xmlns="http://www.w3.org/2000/svg" xmlns:xlink="http://www.w3.org/1999/xlink">
<g id="graph0" class="graph" transform="scale(1 1) rotate(0) translate(4 519)">
<title>SNSPowderReductionContainer</title>
<polygon fill="white" stroke="transparent" points="-4,4 -4,-519 568.78,-519 568.78,4 -4,4"/>
<text text-anchor="middle" x="282.39" y="-499.8" font-family="Helvetica,sans-Serif" font-size="14.00">Process Container Run Flowchart</text>
<!-- ContainerRunNumber -->
<g id="node1" class="node">
<title>ContainerRunNumber</title>
<ellipse fill="khaki" stroke="black" cx="456.24" cy="-474" rx="108.58" ry="18"/>
<text text-anchor="middle" x="456.24" y="-470.3" font-family="Helvetica,sans-Serif" font-size="14.00">ContainerRunNumber</text>
</g>
<!-- isSum -->
<g id="node9" class="node">
<title>isSum</title>
<polygon fill="limegreen" stroke="black" points="456.24,-419 358.88,-401 456.24,-383 553.6,-401 456.24,-419"/>
<text text-anchor="middle" x="456.24" y="-397.3" font-family="Helvetica,sans-Serif" font-size="14.00">Is Sum True?</text>
</g>
<!-- ContainerRunNumber&#45;&gt;isSum -->
<g id="edge1" class="edge">
<title>ContainerRunNumber&#45;&gt;isSum</title>
<path fill="none" stroke="black" d="M456.24,-455.81C456.24,-447.79 456.24,-438.05 456.24,-429.07"/>
<polygon fill="black" stroke="black" points="459.74,-429.03 456.24,-419.03 452.74,-429.03 459.74,-429.03"/>
</g>
<!-- TimeFilterWall -->
<g id="node2" class="node">
<title>TimeFilterWall</title>
<ellipse fill="khaki" stroke="black" cx="266.24" cy="-401" rx="74.19" ry="18"/>
<text text-anchor="middle" x="266.24" y="-397.3" font-family="Helvetica,sans-Serif" font-size="14.00">TimeFilterWall</text>
</g>
<!-- focusAndSum -->
<g id="node5" class="node">
<title>focusAndSum</title>
<path fill="lightskyblue" stroke="black" d="M356.24,-332C356.24,-332 264.24,-332 264.24,-332 258.24,-332 252.24,-326 252.24,-320 252.24,-320 252.24,-308 252.24,-308 252.24,-302 258.24,-296 264.24,-296 264.24,-296 356.24,-296 356.24,-296 362.24,-296 368.24,-302 368.24,-308 368.24,-308 368.24,-320 368.24,-320 368.24,-326 362.24,-332 356.24,-332"/>
<text text-anchor="middle" x="310.24" y="-310.3" font-family="Helvetica,sans-Serif" font-size="14.00">FocusAndSum</text>
</g>
<!-- TimeFilterWall&#45;&gt;focusAndSum -->
<g id="edge3" class="edge">
<title>TimeFilterWall&#45;&gt;focusAndSum</title>
<path fill="none" stroke="black" d="M275.14,-382.8C281.34,-370.82 289.73,-354.62 296.75,-341.06"/>
<polygon fill="black" stroke="black" points="299.86,-342.67 301.35,-332.18 293.64,-339.45 299.86,-342.67"/>
</g>
<!-- focusChunks -->
<g id="node6" class="node">
<title>focusChunks</title>
<path fill="lightskyblue" stroke="black" d="M483.74,-332C483.74,-332 398.74,-332 398.74,-332 392.74,-332 386.74,-326 386.74,-320 386.74,-320 386.74,-308 386.74,-308 386.74,-302 392.74,-296 398.74,-296 398.74,-296 483.74,-296 483.74,-296 489.74,-296 495.74,-302 495.74,-308 495.74,-308 495.74,-320 495.74,-320 495.74,-326 489.74,-332 483.74,-332"/>
<text text-anchor="middle" x="441.24" y="-310.3" font-family="Helvetica,sans-Serif" font-size="14.00">FocusChunks</text>
</g>
<!-- TimeFilterWall&#45;&gt;focusChunks -->
<g id="edge6" class="edge">
<title>TimeFilterWall&#45;&gt;focusChunks</title>
<path fill="none" stroke="black" d="M297.93,-384.61C325.6,-371.17 366.05,-351.52 396.93,-336.52"/>
<polygon fill="black" stroke="black" points="398.71,-339.55 406.18,-332.03 395.65,-333.25 398.71,-339.55"/>
</g>
<!-- BackgroundSmoothParameter -->
<g id="node3" class="node">
<title>BackgroundSmoothParameter</title>
<ellipse fill="khaki" stroke="black" cx="146.24" cy="-167" rx="146.47" ry="18"/>
<text text-anchor="middle" x="146.24" y="-163.3" font-family="Helvetica,sans-Serif" font-size="14.00">BackgroundSmoothParameter</text>
</g>
<!-- fftSmooth -->
<g id="node8" class="node">
<title>fftSmooth</title>
<path fill="lightskyblue" stroke="black" d="M204.24,-111C204.24,-111 112.24,-111 112.24,-111 106.24,-111 100.24,-105 100.24,-99 100.24,-99 100.24,-85 100.24,-85 100.24,-79 106.24,-73 112.24,-73 112.24,-73 204.24,-73 204.24,-73 210.24,-73 216.24,-79 216.24,-85 216.24,-85 216.24,-99 216.24,-99 216.24,-105 210.24,-111 204.24,-111"/>
<text text-anchor="middle" x="158.24" y="-95.8" font-family="Helvetica,sans-Serif" font-size="14.00">FFTSmooth v1</text>
<text text-anchor="middle" x="158.24" y="-80.8" font-family="Helvetica,sans-Serif" font-size="14.00">Butterworth</text>
</g>
<!-- BackgroundSmoothParameter&#45;&gt;fftSmooth -->
<g id="edge10" class="edge">
<title>BackgroundSmoothParameter&#45;&gt;fftSmooth</title>
<path fill="none" stroke="black" d="M149.08,-148.7C150.43,-140.49 152.08,-130.47 153.6,-121.2"/>
<polygon fill="black" stroke="black" points="157.08,-121.63 155.25,-111.19 150.17,-120.49 157.08,-121.63"/>
</g>
<!-- ProcessedCanRun -->
<g id="node4" class="node">
<title>ProcessedCanRun</title>
<ellipse fill="khaki" stroke="black" cx="158.24" cy="-18" rx="90.98" ry="18"/>
<text text-anchor="middle" x="158.24" y="-14.3" font-family="Helvetica,sans-Serif" font-size="14.00">ProcessedCanRun</text>
</g>
<!-- CanRunWorkspace -->
<g id="node10" class="node">
<title>CanRunWorkspace</title>
<polygon fill="grey" stroke="black" points="559.98,-259 266.1,-259 190.5,-223 484.38,-223 559.98,-259"/>
<text text-anchor="middle" x="375.24" y="-237.3" font-family="Times,serif" font-size="14.00">ContainerRunWorkspace</text>
</g>
<!-- focusAndSum&#45;&gt;CanRunWorkspace -->
<g id="edge4" class="edge">
<title>focusAndSum&#45;&gt;CanRunWorkspace</title>
<path fill="none" stroke="black" d="M325.97,-295.81C334.04,-287 344,-276.13 352.85,-266.46"/>
<polygon fill="black" stroke="black" points="355.48,-268.77 359.65,-259.03 350.31,-264.04 355.48,-268.77"/>
</g>
<!-- focusChunks&#45;&gt;CanRunWorkspace -->
<g id="edge7" class="edge">
<title>focusChunks&#45;&gt;CanRunWorkspace</title>
<path fill="none" stroke="black" d="M425.26,-295.81C417.07,-287 406.96,-276.13 397.97,-266.46"/>
<polygon fill="black" stroke="black" points="400.44,-263.97 391.07,-259.03 395.31,-268.74 400.44,-263.97"/>
</g>
<!-- convertUnits1 -->
<g id="node7" class="node">
<title>convertUnits1</title>
<path fill="lightskyblue" stroke="black" d="M427.74,-186C427.74,-186 322.74,-186 322.74,-186 316.74,-186 310.74,-180 310.74,-174 310.74,-174 310.74,-160 310.74,-160 310.74,-154 316.74,-148 322.74,-148 322.74,-148 427.74,-148 427.74,-148 433.74,-148 439.74,-154 439.74,-160 439.74,-160 439.74,-174 439.74,-174 439.74,-180 433.74,-186 427.74,-186"/>
<text text-anchor="middle" x="375.24" y="-170.8" font-family="Helvetica,sans-Serif" font-size="14.00">ConvertUnits v1</text>
<text text-anchor="middle" x="375.24" y="-155.8" font-family="Helvetica,sans-Serif" font-size="14.00">to T.O.F.</text>
</g>
<!-- convertUnits1&#45;&gt;fftSmooth -->
<g id="edge9" class="edge">
<title>convertUnits1&#45;&gt;fftSmooth</title>
<path fill="none" stroke="black" d="M321.6,-147.96C291.34,-137.78 253.36,-125 221.64,-114.33"/>
<polygon fill="black" stroke="black" points="222.61,-110.96 212.01,-111.09 220.37,-117.6 222.61,-110.96"/>
</g>
<!-- fftSmooth&#45;&gt;ProcessedCanRun -->
<g id="edge11" class="edge">
<title>fftSmooth&#45;&gt;ProcessedCanRun</title>
<path fill="none" stroke="black" d="M158.24,-72.83C158.24,-64.89 158.24,-55.41 158.24,-46.63"/>
<polygon fill="black" stroke="black" points="161.74,-46.42 158.24,-36.42 154.74,-46.42 161.74,-46.42"/>
</g>
<!-- isSum&#45;&gt;focusAndSum -->
<g id="edge2" class="edge">
<title>isSum&#45;&gt;focusAndSum</title>
<path fill="none" stroke="black" d="M434.06,-387.09C411.42,-373.91 375.81,-353.18 348.58,-337.32"/>
<polygon fill="black" stroke="black" points="350.1,-334.16 339.7,-332.15 346.58,-340.21 350.1,-334.16"/>
<text text-anchor="middle" x="402.74" y="-353.8" font-family="Helvetica,sans-Serif" font-size="14.00">Yes</text>
</g>
<!-- isSum&#45;&gt;focusChunks -->
<g id="edge5" class="edge">
<title>isSum&#45;&gt;focusChunks</title>
<path fill="none" stroke="black" d="M453.27,-383.21C451.21,-371.52 448.42,-355.69 446.04,-342.22"/>
<polygon fill="black" stroke="black" points="449.43,-341.29 444.25,-332.05 442.54,-342.51 449.43,-341.29"/>
<text text-anchor="middle" x="458.74" y="-353.8" font-family="Helvetica,sans-Serif" font-size="14.00">No</text>
</g>
<!-- CanRunWorkspace&#45;&gt;convertUnits1 -->
<g id="edge8" class="edge">
<title>CanRunWorkspace&#45;&gt;convertUnits1</title>
<path fill="none" stroke="black" d="M375.24,-222.94C375.24,-214.99 375.24,-205.31 375.24,-196.31"/>
<polygon fill="black" stroke="black" points="378.74,-196.2 375.24,-186.2 371.74,-196.2 378.74,-196.2"/>
</g>
</g>
</svg>
