<?xml version="1.0" encoding="UTF-8" standalone="no"?>
<!DOCTYPE svg PUBLIC "-//W3C//DTD SVG 1.1//EN"
 "http://www.w3.org/Graphics/SVG/1.1/DTD/svg11.dtd">
<!-- Generated by graphviz version 7.0.5 (20221231.0122)
 -->
<!-- Title: FocusAndSum Pages: 1 -->
<svg width="358pt" height="900pt"
 viewBox="0.00 0.00 358.00 900.00" xmlns="http://www.w3.org/2000/svg" xmlns:xlink="http://www.w3.org/1999/xlink">
<g id="graph0" class="graph" transform="scale(1 1) rotate(0) translate(4 896)">
<title>FocusAndSum</title>
<polygon fill="white" stroke="none" points="-4,4 -4,-896 354,-896 354,4 -4,4"/>
<text text-anchor="middle" x="175" y="-876.8" font-family="Helvetica,sans-Serif" font-size="14.00">SNSPowderReduction Focus And Sum Flowchart</text>
<!-- RunNumberList -->
<g id="node1" class="node">
<title>RunNumberList</title>
<ellipse fill="khaki" stroke="black" cx="181.51" cy="-851" rx="80.69" ry="18"/>
<text text-anchor="middle" x="181.51" y="-847.3" font-family="Helvetica,sans-Serif" font-size="14.00">RunNumberList</text>
</g>
<!-- getRunNumber -->
<g id="node4" class="node">
<title>getRunNumber</title>
<path fill="lightskyblue" stroke="black" d="M240.01,-796C240.01,-796 123.01,-796 123.01,-796 117.01,-796 111.01,-790 111.01,-784 111.01,-784 111.01,-772 111.01,-772 111.01,-766 117.01,-760 123.01,-760 123.01,-760 240.01,-760 240.01,-760 246.01,-760 252.01,-766 252.01,-772 252.01,-772 252.01,-784 252.01,-784 252.01,-790 246.01,-796 240.01,-796"/>
<text text-anchor="middle" x="181.51" y="-774.3" font-family="Helvetica,sans-Serif" font-size="14.00">Get a run number</text>
</g>
<!-- RunNumberList&#45;&gt;getRunNumber -->
<g id="edge1" class="edge">
<title>RunNumberList&#45;&gt;getRunNumber</title>
<path fill="none" stroke="black" d="M181.51,-832.81C181.51,-825.23 181.51,-816.1 181.51,-807.54"/>
<polygon fill="black" stroke="black" points="185.01,-807.54 181.51,-797.54 178.01,-807.54 185.01,-807.54"/>
</g>
<!-- OutputWorkspace -->
<g id="node2" class="node">
<title>OutputWorkspace</title>
<ellipse fill="khaki" stroke="black" cx="192.51" cy="-18" rx="92.08" ry="18"/>
<text text-anchor="middle" x="192.51" y="-14.3" font-family="Helvetica,sans-Serif" font-size="14.00">OutputWorkspace</text>
</g>
<!-- alignAndFocusPowder -->
<g id="node3" class="node">
<title>alignAndFocusPowder</title>
<path fill="lightskyblue" stroke="black" d="M200.51,-504C200.51,-504 32.51,-504 32.51,-504 26.51,-504 20.51,-498 20.51,-492 20.51,-492 20.51,-480 20.51,-480 20.51,-474 26.51,-468 32.51,-468 32.51,-468 200.51,-468 200.51,-468 206.51,-468 212.51,-474 212.51,-480 212.51,-480 212.51,-492 212.51,-492 212.51,-498 206.51,-504 200.51,-504"/>
<text text-anchor="middle" x="116.51" y="-482.3" font-family="Helvetica,sans-Serif" font-size="14.00">AlignAndFocusPowder v1</text>
</g>
<!-- mergeWorkspace -->
<g id="node8" class="node">
<title>mergeWorkspace</title>
<path fill="lightskyblue" stroke="black" d="M207.51,-417C207.51,-417 21.51,-417 21.51,-417 15.51,-417 9.51,-411 9.51,-405 9.51,-405 9.51,-393 9.51,-393 9.51,-387 15.51,-381 21.51,-381 21.51,-381 207.51,-381 207.51,-381 213.51,-381 219.51,-387 219.51,-393 219.51,-393 219.51,-405 219.51,-405 219.51,-411 213.51,-417 207.51,-417"/>
<text text-anchor="middle" x="114.51" y="-395.3" font-family="Helvetica,sans-Serif" font-size="14.00">Merge chunked workspaces</text>
</g>
<!-- alignAndFocusPowder&#45;&gt;mergeWorkspace -->
<g id="edge6" class="edge">
<title>alignAndFocusPowder&#45;&gt;mergeWorkspace</title>
<path fill="none" stroke="black" d="M116.1,-467.8C115.84,-456.58 115.49,-441.67 115.18,-428.69"/>
<polygon fill="black" stroke="black" points="118.69,-428.9 114.95,-418.98 111.69,-429.06 118.69,-428.9"/>
</g>
<!-- RunNumber -->
<g id="node12" class="node">
<title>RunNumber</title>
<polygon fill="grey" stroke="black" points="219.34,-723 55.76,-723 13.67,-687 177.26,-687 219.34,-723"/>
<text text-anchor="middle" x="116.51" y="-701.3" font-family="Times,serif" font-size="14.00">Run Number</text>
</g>
<!-- getRunNumber&#45;&gt;RunNumber -->
<g id="edge2" class="edge">
<title>getRunNumber&#45;&gt;RunNumber</title>
<path fill="none" stroke="black" d="M165.77,-759.81C157.95,-751.27 148.34,-740.77 139.69,-731.32"/>
<polygon fill="black" stroke="black" points="142.45,-729.16 133.12,-724.15 137.29,-733.88 142.45,-729.16"/>
</g>
<!-- plus -->
<g id="node5" class="node">
<title>plus</title>
<path fill="lightskyblue" stroke="black" d="M203.51,-198C203.51,-198 71.51,-198 71.51,-198 65.51,-198 59.51,-192 59.51,-186 59.51,-186 59.51,-172 59.51,-172 59.51,-166 65.51,-160 71.51,-160 71.51,-160 203.51,-160 203.51,-160 209.51,-160 215.51,-166 215.51,-172 215.51,-172 215.51,-186 215.51,-186 215.51,-192 209.51,-198 203.51,-198"/>
<text text-anchor="middle" x="137.51" y="-182.8" font-family="Helvetica,sans-Serif" font-size="14.00">Plus v1</text>
<text text-anchor="middle" x="137.51" y="-167.8" font-family="Helvetica,sans-Serif" font-size="14.00">summed workspace</text>
</g>
<!-- isLastRunNumber -->
<g id="node11" class="node">
<title>isLastRunNumber</title>
<polygon fill="limegreen" stroke="black" points="192.51,-123 44.54,-105 192.51,-87 340.48,-105 192.51,-123"/>
<text text-anchor="middle" x="192.51" y="-101.3" font-family="Helvetica,sans-Serif" font-size="14.00">Is Last Run Number?</text>
</g>
<!-- plus&#45;&gt;isLastRunNumber -->
<g id="edge10" class="edge">
<title>plus&#45;&gt;isLastRunNumber</title>
<path fill="none" stroke="black" d="M151.39,-159.83C158.07,-151.08 166.19,-140.46 173.44,-130.96"/>
<polygon fill="black" stroke="black" points="176.11,-133.23 179.4,-123.16 170.55,-128.98 176.11,-133.23"/>
</g>
<!-- load -->
<g id="node6" class="node">
<title>load</title>
<path fill="lightskyblue" stroke="black" d="M140.01,-650C140.01,-650 93.01,-650 93.01,-650 87.01,-650 81.01,-644 81.01,-638 81.01,-638 81.01,-626 81.01,-626 81.01,-620 87.01,-614 93.01,-614 93.01,-614 140.01,-614 140.01,-614 146.01,-614 152.01,-620 152.01,-626 152.01,-626 152.01,-638 152.01,-638 152.01,-644 146.01,-650 140.01,-650"/>
<text text-anchor="middle" x="116.51" y="-628.3" font-family="Helvetica,sans-Serif" font-size="14.00">Load v1</text>
</g>
<!-- split -->
<g id="node7" class="node">
<title>split</title>
<path fill="lightskyblue" stroke="black" d="M162.51,-577C162.51,-577 70.51,-577 70.51,-577 64.51,-577 58.51,-571 58.51,-565 58.51,-565 58.51,-553 58.51,-553 58.51,-547 64.51,-541 70.51,-541 70.51,-541 162.51,-541 162.51,-541 168.51,-541 174.51,-547 174.51,-553 174.51,-553 174.51,-565 174.51,-565 174.51,-571 168.51,-577 162.51,-577"/>
<text text-anchor="middle" x="116.51" y="-555.3" font-family="Helvetica,sans-Serif" font-size="14.00">SplitEvents v1</text>
</g>
<!-- load&#45;&gt;split -->
<g id="edge4" class="edge">
<title>load&#45;&gt;split</title>
<path fill="none" stroke="black" d="M116.51,-613.81C116.51,-606.23 116.51,-597.1 116.51,-588.54"/>
<polygon fill="black" stroke="black" points="120.01,-588.54 116.51,-578.54 113.01,-588.54 120.01,-588.54"/>
</g>
<!-- split&#45;&gt;alignAndFocusPowder -->
<g id="edge5" class="edge">
<title>split&#45;&gt;alignAndFocusPowder</title>
<path fill="none" stroke="black" d="M116.51,-540.81C116.51,-533.23 116.51,-524.1 116.51,-515.54"/>
<polygon fill="black" stroke="black" points="120.01,-515.54 116.51,-505.54 113.01,-515.54 120.01,-515.54"/>
</g>
<!-- gatherWorkspace -->
<g id="node9" class="node">
<title>gatherWorkspace</title>
<path fill="lightskyblue" stroke="black" d="M203.01,-344C203.01,-344 48.01,-344 48.01,-344 42.01,-344 36.01,-338 36.01,-332 36.01,-332 36.01,-320 36.01,-320 36.01,-314 42.01,-308 48.01,-308 48.01,-308 203.01,-308 203.01,-308 209.01,-308 215.01,-314 215.01,-320 215.01,-320 215.01,-332 215.01,-332 215.01,-338 209.01,-344 203.01,-344"/>
<text text-anchor="middle" x="125.51" y="-322.3" font-family="Helvetica,sans-Serif" font-size="14.00">Gather workspaces MPI</text>
</g>
<!-- mergeWorkspace&#45;&gt;gatherWorkspace -->
<g id="edge7" class="edge">
<title>mergeWorkspace&#45;&gt;gatherWorkspace</title>
<path fill="none" stroke="black" d="M117.17,-380.81C118.36,-373.14 119.79,-363.89 121.13,-355.24"/>
<polygon fill="black" stroke="black" points="124.57,-355.94 122.64,-345.52 117.65,-354.87 124.57,-355.94"/>
</g>
<!-- normaliseByCurrent -->
<g id="node10" class="node">
<title>normaliseByCurrent</title>
<path fill="lightskyblue" stroke="black" d="M205.01,-271C205.01,-271 50.01,-271 50.01,-271 44.01,-271 38.01,-265 38.01,-259 38.01,-259 38.01,-247 38.01,-247 38.01,-241 44.01,-235 50.01,-235 50.01,-235 205.01,-235 205.01,-235 211.01,-235 217.01,-241 217.01,-247 217.01,-247 217.01,-259 217.01,-259 217.01,-265 211.01,-271 205.01,-271"/>
<text text-anchor="middle" x="127.51" y="-249.3" font-family="Helvetica,sans-Serif" font-size="14.00">NormaliseByCurrent v1</text>
</g>
<!-- gatherWorkspace&#45;&gt;normaliseByCurrent -->
<g id="edge8" class="edge">
<title>gatherWorkspace&#45;&gt;normaliseByCurrent</title>
<path fill="none" stroke="black" d="M125.99,-307.81C126.21,-300.14 126.47,-290.89 126.71,-282.24"/>
<polygon fill="black" stroke="black" points="130.2,-282.64 126.99,-272.54 123.21,-282.44 130.2,-282.64"/>
</g>
<!-- normaliseByCurrent&#45;&gt;plus -->
<g id="edge9" class="edge">
<title>normaliseByCurrent&#45;&gt;plus</title>
<path fill="none" stroke="black" d="M129.93,-234.57C130.98,-227.02 132.24,-217.96 133.42,-209.42"/>
<polygon fill="black" stroke="black" points="136.85,-210.16 134.76,-199.77 129.92,-209.2 136.85,-210.16"/>
</g>
<!-- isLastRunNumber&#45;&gt;OutputWorkspace -->
<g id="edge11" class="edge">
<title>isLastRunNumber&#45;&gt;OutputWorkspace</title>
<path fill="none" stroke="black" d="M192.51,-86.8C192.51,-75.58 192.51,-60.67 192.51,-47.69"/>
<polygon fill="black" stroke="black" points="196.01,-47.98 192.51,-37.98 189.01,-47.98 196.01,-47.98"/>
<text text-anchor="middle" x="204.01" y="-57.8" font-family="Helvetica,sans-Serif" font-size="14.00">Yes</text>
</g>
<!-- isLastRunNumber&#45;&gt;getRunNumber -->
<g id="edge12" class="edge">
<title>isLastRunNumber&#45;&gt;getRunNumber</title>
<path fill="none" stroke="black" d="M213.3,-120.94C228.88,-134.02 247.51,-154.56 247.51,-178 247.51,-706 247.51,-706 247.51,-706 247.51,-724.81 234.92,-740.74 220.74,-752.71"/>
<polygon fill="black" stroke="black" points="218.76,-749.81 213,-758.71 223.05,-755.35 218.76,-749.81"/>
<text text-anchor="middle" x="257.01" y="-438.8" font-family="Helvetica,sans-Serif" font-size="14.00">No</text>
</g>
<!-- RunNumber&#45;&gt;load -->
<g id="edge3" class="edge">
<title>RunNumber&#45;&gt;load</title>
<path fill="none" stroke="black" d="M116.51,-686.81C116.51,-679.23 116.51,-670.1 116.51,-661.54"/>
<polygon fill="black" stroke="black" points="120.01,-661.54 116.51,-651.54 113.01,-661.54 120.01,-661.54"/>
</g>
</g>
</svg>
