<?xml version="1.0" encoding="UTF-8" standalone="no"?>
<!DOCTYPE svg PUBLIC "-//W3C//DTD SVG 1.1//EN"
 "http://www.w3.org/Graphics/SVG/1.1/DTD/svg11.dtd">
<!-- Generated by graphviz version 2.47.2 (20210527.1257)
 -->
<!-- Pages: 1 -->
<svg width="635pt" height="204pt"
 viewBox="0.00 0.00 635.30 204.00" xmlns="http://www.w3.org/2000/svg" xmlns:xlink="http://www.w3.org/1999/xlink">
<g id="graph0" class="graph" transform="scale(1 1) rotate(0) translate(4 200)">
<polygon fill="white" stroke="transparent" points="-4,4 -4,-200 631.3,-200 631.3,4 -4,4"/>
<!-- Method -->
<g id="node1" class="node">
<title>Method</title>
<ellipse fill="khaki" stroke="black" cx="40.3" cy="-178" rx="40.09" ry="18"/>
<text text-anchor="middle" x="40.3" y="-174.3" font-family="Helvetica" font-size="14.00">Method</text>
</g>
<!-- SofQW -->
<g id="node6" class="node">
<title>SofQW</title>
<path fill="lightskyblue" stroke="black" d="M347.3,-123C347.3,-123 309.3,-123 309.3,-123 303.3,-123 297.3,-117 297.3,-111 297.3,-111 297.3,-99 297.3,-99 297.3,-93 303.3,-87 309.3,-87 309.3,-87 347.3,-87 347.3,-87 353.3,-87 359.3,-93 359.3,-99 359.3,-99 359.3,-111 359.3,-111 359.3,-117 353.3,-123 347.3,-123"/>
<text text-anchor="middle" x="328.3" y="-101.3" font-family="Helvetica" font-size="14.00">SofQW</text>
</g>
<!-- Method&#45;&gt;SofQW -->
<g id="edge1" class="edge">
<title>Method&#45;&gt;SofQW</title>
<path fill="none" stroke="black" d="M70.45,-165.95C76.64,-163.84 83.15,-161.75 89.3,-160 157.89,-140.42 239.17,-123.32 287.09,-113.85"/>
<polygon fill="black" stroke="black" points="287.94,-117.25 297.08,-111.89 286.59,-110.38 287.94,-117.25"/>
</g>
<!-- InputWorkspace -->
<g id="node2" class="node">
<title>InputWorkspace</title>
<ellipse fill="khaki" stroke="black" cx="172.3" cy="-178" rx="74.19" ry="18"/>
<text text-anchor="middle" x="172.3" y="-174.3" font-family="Helvetica" font-size="14.00">InputWorkspace</text>
</g>
<!-- InputWorkspace&#45;&gt;SofQW -->
<g id="edge2" class="edge">
<title>InputWorkspace&#45;&gt;SofQW</title>
<path fill="none" stroke="black" d="M205.76,-161.77C229.82,-150.82 262.37,-136.01 287.87,-124.4"/>
<polygon fill="black" stroke="black" points="289.62,-127.45 297.27,-120.12 286.72,-121.08 289.62,-127.45"/>
</g>
<!-- QAxisBinning -->
<g id="node3" class="node">
<title>QAxisBinning</title>
<ellipse fill="khaki" stroke="black" cx="328.3" cy="-178" rx="63.89" ry="18"/>
<text text-anchor="middle" x="328.3" y="-174.3" font-family="Helvetica" font-size="14.00">QAxisBinning</text>
</g>
<!-- QAxisBinning&#45;&gt;SofQW -->
<g id="edge3" class="edge">
<title>QAxisBinning&#45;&gt;SofQW</title>
<path fill="none" stroke="black" d="M328.3,-159.81C328.3,-151.79 328.3,-142.05 328.3,-133.07"/>
<polygon fill="black" stroke="black" points="331.8,-133.03 328.3,-123.03 324.8,-133.03 331.8,-133.03"/>
</g>
<!-- EMode -->
<g id="node4" class="node">
<title>EMode</title>
<ellipse fill="khaki" stroke="black" cx="449.3" cy="-178" rx="38.99" ry="18"/>
<text text-anchor="middle" x="449.3" y="-174.3" font-family="Helvetica" font-size="14.00">EMode</text>
</g>
<!-- EMode&#45;&gt;SofQW -->
<g id="edge4" class="edge">
<title>EMode&#45;&gt;SofQW</title>
<path fill="none" stroke="black" d="M426.25,-163.48C409.37,-153.57 386.06,-139.89 366.42,-128.37"/>
<polygon fill="black" stroke="black" points="368.08,-125.29 357.69,-123.25 364.54,-131.32 368.08,-125.29"/>
</g>
<!-- EFixed -->
<g id="node5" class="node">
<title>EFixed</title>
<ellipse fill="khaki" stroke="black" cx="544.3" cy="-178" rx="38.19" ry="18"/>
<text text-anchor="middle" x="544.3" y="-174.3" font-family="Helvetica" font-size="14.00">EFixed</text>
</g>
<!-- EFixed&#45;&gt;SofQW -->
<g id="edge5" class="edge">
<title>EFixed&#45;&gt;SofQW</title>
<path fill="none" stroke="black" d="M515.02,-166.22C509.17,-164.12 503.05,-161.96 497.3,-160 453.77,-145.18 403.55,-129.29 369.24,-118.61"/>
<polygon fill="black" stroke="black" points="370.15,-115.22 359.56,-115.6 368.07,-121.91 370.15,-115.22"/>
</g>
<!-- SofQWCentre -->
<g id="node7" class="node">
<title>SofQWCentre</title>
<path fill="lightskyblue" stroke="black" d="M243.3,-36C243.3,-36 165.3,-36 165.3,-36 159.3,-36 153.3,-30 153.3,-24 153.3,-24 153.3,-12 153.3,-12 153.3,-6 159.3,0 165.3,0 165.3,0 243.3,0 243.3,0 249.3,0 255.3,-6 255.3,-12 255.3,-12 255.3,-24 255.3,-24 255.3,-30 249.3,-36 243.3,-36"/>
<text text-anchor="middle" x="204.3" y="-14.3" font-family="Helvetica" font-size="14.00">SofQWCentre</text>
</g>
<!-- SofQW&#45;&gt;SofQWCentre -->
<g id="edge6" class="edge">
<title>SofQW&#45;&gt;SofQWCentre</title>
<path fill="none" stroke="black" d="M297.06,-99.26C275.84,-94.65 248.29,-85.77 229.3,-69 222.29,-62.81 217.02,-54.2 213.17,-45.87"/>
<polygon fill="black" stroke="black" points="216.31,-44.3 209.28,-36.38 209.83,-46.96 216.31,-44.3"/>
<text text-anchor="middle" x="276.8" y="-57.8" font-family="Helvetica" font-size="14.00">Method=Centre</text>
</g>
<!-- SofQWPolygon -->
<g id="node8" class="node">
<title>SofQWPolygon</title>
<path fill="lightskyblue" stroke="black" d="M371.3,-36C371.3,-36 285.3,-36 285.3,-36 279.3,-36 273.3,-30 273.3,-24 273.3,-24 273.3,-12 273.3,-12 273.3,-6 279.3,0 285.3,0 285.3,0 371.3,0 371.3,0 377.3,0 383.3,-6 383.3,-12 383.3,-12 383.3,-24 383.3,-24 383.3,-30 377.3,-36 371.3,-36"/>
<text text-anchor="middle" x="328.3" y="-14.3" font-family="Helvetica" font-size="14.00">SofQWPolygon</text>
</g>
<!-- SofQW&#45;&gt;SofQWPolygon -->
<g id="edge7" class="edge">
<title>SofQW&#45;&gt;SofQWPolygon</title>
<path fill="none" stroke="black" d="M328.3,-86.8C328.3,-75.16 328.3,-59.55 328.3,-46.24"/>
<polygon fill="black" stroke="black" points="331.8,-46.18 328.3,-36.18 324.8,-46.18 331.8,-46.18"/>
<text text-anchor="middle" x="379.8" y="-57.8" font-family="Helvetica" font-size="14.00">Method=Polygon</text>
</g>
<!-- SofQWNormalisedPolygon -->
<g id="node9" class="node">
<title>SofQWNormalisedPolygon</title>
<path fill="lightskyblue" stroke="black" d="M568.8,-36C568.8,-36 413.8,-36 413.8,-36 407.8,-36 401.8,-30 401.8,-24 401.8,-24 401.8,-12 401.8,-12 401.8,-6 407.8,0 413.8,0 413.8,0 568.8,0 568.8,0 574.8,0 580.8,-6 580.8,-12 580.8,-12 580.8,-24 580.8,-24 580.8,-30 574.8,-36 568.8,-36"/>
<text text-anchor="middle" x="491.3" y="-14.3" font-family="Helvetica" font-size="14.00">SofQWNormalisedPolygon</text>
</g>
<!-- SofQW&#45;&gt;SofQWNormalisedPolygon -->
<g id="edge8" class="edge">
<title>SofQW&#45;&gt;SofQWNormalisedPolygon</title>
<path fill="none" stroke="black" d="M359.69,-97.36C381.81,-91.84 411.58,-82.66 435.3,-69 447.24,-62.12 458.87,-52.4 468.41,-43.35"/>
<polygon fill="black" stroke="black" points="470.9,-45.81 475.58,-36.31 465.99,-40.82 470.9,-45.81"/>
<text text-anchor="middle" x="541.3" y="-57.8" font-family="Helvetica" font-size="14.00">Method=NormalisedPolygon</text>
</g>
</g>
</svg>
