<?xml version="1.0" encoding="UTF-8" standalone="no"?>
<!DOCTYPE svg PUBLIC "-//W3C//DTD SVG 1.1//EN"
 "http://www.w3.org/Graphics/SVG/1.1/DTD/svg11.dtd">
<!-- Generated by graphviz version 7.0.5 (20221231.0122)
 -->
<!-- Pages: 1 -->
<svg width="713pt" height="204pt"
 viewBox="0.00 0.00 713.20 204.00" xmlns="http://www.w3.org/2000/svg" xmlns:xlink="http://www.w3.org/1999/xlink">
<g id="graph0" class="graph" transform="scale(1 1) rotate(0) translate(4 200)">
<polygon fill="white" stroke="none" points="-4,4 -4,-200 709.2,-200 709.2,4 -4,4"/>
<!-- Method -->
<g id="node1" class="node">
<title>Method</title>
<ellipse fill="khaki" stroke="black" cx="44.2" cy="-178" rx="44.39" ry="18"/>
<text text-anchor="middle" x="44.2" y="-174.3" font-family="Helvetica,sans-Serif" font-size="14.00">Method</text>
</g>
<!-- SofQW -->
<g id="node6" class="node">
<title>SofQW</title>
<path fill="lightskyblue" stroke="black" d="M385.2,-123C385.2,-123 345.2,-123 345.2,-123 339.2,-123 333.2,-117 333.2,-111 333.2,-111 333.2,-99 333.2,-99 333.2,-93 339.2,-87 345.2,-87 345.2,-87 385.2,-87 385.2,-87 391.2,-87 397.2,-93 397.2,-99 397.2,-99 397.2,-111 397.2,-111 397.2,-117 391.2,-123 385.2,-123"/>
<text text-anchor="middle" x="365.2" y="-101.3" font-family="Helvetica,sans-Serif" font-size="14.00">SofQW</text>
</g>
<!-- Method&#45;&gt;SofQW -->
<g id="edge1" class="edge">
<title>Method&#45;&gt;SofQW</title>
<path fill="none" stroke="black" d="M77.74,-165.84C84.48,-163.77 91.53,-161.72 98.2,-160 176.27,-139.87 268.78,-122.6 321.86,-113.31"/>
<polygon fill="black" stroke="black" points="322.14,-116.82 331.4,-111.66 320.95,-109.92 322.14,-116.82"/>
</g>
<!-- InputWorkspace -->
<g id="node2" class="node">
<title>InputWorkspace</title>
<ellipse fill="khaki" stroke="black" cx="191.2" cy="-178" rx="84.49" ry="18"/>
<text text-anchor="middle" x="191.2" y="-174.3" font-family="Helvetica,sans-Serif" font-size="14.00">InputWorkspace</text>
</g>
<!-- InputWorkspace&#45;&gt;SofQW -->
<g id="edge2" class="edge">
<title>InputWorkspace&#45;&gt;SofQW</title>
<path fill="none" stroke="black" d="M228.95,-161.59C256.43,-150.38 293.67,-135.19 322.28,-123.51"/>
<polygon fill="black" stroke="black" points="323.44,-126.82 331.38,-119.8 320.79,-120.34 323.44,-126.82"/>
</g>
<!-- QAxisBinning -->
<g id="node3" class="node">
<title>QAxisBinning</title>
<ellipse fill="khaki" stroke="black" cx="365.2" cy="-178" rx="71.49" ry="18"/>
<text text-anchor="middle" x="365.2" y="-174.3" font-family="Helvetica,sans-Serif" font-size="14.00">QAxisBinning</text>
</g>
<!-- QAxisBinning&#45;&gt;SofQW -->
<g id="edge3" class="edge">
<title>QAxisBinning&#45;&gt;SofQW</title>
<path fill="none" stroke="black" d="M365.2,-159.81C365.2,-152.23 365.2,-143.1 365.2,-134.54"/>
<polygon fill="black" stroke="black" points="368.7,-134.54 365.2,-124.54 361.7,-134.54 368.7,-134.54"/>
</g>
<!-- EMode -->
<g id="node4" class="node">
<title>EMode</title>
<ellipse fill="khaki" stroke="black" cx="495.2" cy="-178" rx="40.89" ry="18"/>
<text text-anchor="middle" x="495.2" y="-174.3" font-family="Helvetica,sans-Serif" font-size="14.00">EMode</text>
</g>
<!-- EMode&#45;&gt;SofQW -->
<g id="edge4" class="edge">
<title>EMode&#45;&gt;SofQW</title>
<path fill="none" stroke="black" d="M470.13,-163.31C452.25,-153.54 427.79,-140.18 406.98,-128.82"/>
<polygon fill="black" stroke="black" points="408.88,-125.87 398.43,-124.15 405.53,-132.02 408.88,-125.87"/>
</g>
<!-- EFixed -->
<g id="node5" class="node">
<title>EFixed</title>
<ellipse fill="khaki" stroke="black" cx="594.2" cy="-178" rx="40.09" ry="18"/>
<text text-anchor="middle" x="594.2" y="-174.3" font-family="Helvetica,sans-Serif" font-size="14.00">EFixed</text>
</g>
<!-- EFixed&#45;&gt;SofQW -->
<g id="edge5" class="edge">
<title>EFixed&#45;&gt;SofQW</title>
<path fill="none" stroke="black" d="M563.42,-166.1C557.39,-164.03 551.11,-161.91 545.2,-160 498.64,-144.95 444.85,-129 408.28,-118.37"/>
<polygon fill="black" stroke="black" points="409.55,-115.09 398.97,-115.67 407.6,-121.81 409.55,-115.09"/>
</g>
<!-- SofQWCentre -->
<g id="node7" class="node">
<title>SofQWCentre</title>
<path fill="lightskyblue" stroke="black" d="M275.2,-36C275.2,-36 189.2,-36 189.2,-36 183.2,-36 177.2,-30 177.2,-24 177.2,-24 177.2,-12 177.2,-12 177.2,-6 183.2,0 189.2,0 189.2,0 275.2,0 275.2,0 281.2,0 287.2,-6 287.2,-12 287.2,-12 287.2,-24 287.2,-24 287.2,-30 281.2,-36 275.2,-36"/>
<text text-anchor="middle" x="232.2" y="-14.3" font-family="Helvetica,sans-Serif" font-size="14.00">SofQWCentre</text>
</g>
<!-- SofQW&#45;&gt;SofQWCentre -->
<g id="edge6" class="edge">
<title>SofQW&#45;&gt;SofQWCentre</title>
<path fill="none" stroke="black" d="M332.87,-101.68C307.7,-98.26 273.41,-89.81 251.2,-69 245.02,-63.22 240.84,-55.22 238.01,-47.32"/>
<polygon fill="black" stroke="black" points="241.42,-46.52 235.26,-37.9 234.7,-48.48 241.42,-46.52"/>
<text text-anchor="middle" x="306.2" y="-57.8" font-family="Helvetica,sans-Serif" font-size="14.00">Method=Centre</text>
</g>
<!-- SofQWPolygon -->
<g id="node8" class="node">
<title>SofQWPolygon</title>
<path fill="lightskyblue" stroke="black" d="M412.7,-36C412.7,-36 317.7,-36 317.7,-36 311.7,-36 305.7,-30 305.7,-24 305.7,-24 305.7,-12 305.7,-12 305.7,-6 311.7,0 317.7,0 317.7,0 412.7,0 412.7,0 418.7,0 424.7,-6 424.7,-12 424.7,-12 424.7,-24 424.7,-24 424.7,-30 418.7,-36 412.7,-36"/>
<text text-anchor="middle" x="365.2" y="-14.3" font-family="Helvetica,sans-Serif" font-size="14.00">SofQWPolygon</text>
</g>
<!-- SofQW&#45;&gt;SofQWPolygon -->
<g id="edge7" class="edge">
<title>SofQW&#45;&gt;SofQWPolygon</title>
<path fill="none" stroke="black" d="M365.2,-86.8C365.2,-75.58 365.2,-60.67 365.2,-47.69"/>
<polygon fill="black" stroke="black" points="368.7,-47.98 365.2,-37.98 361.7,-47.98 368.7,-47.98"/>
<text text-anchor="middle" x="424.7" y="-57.8" font-family="Helvetica,sans-Serif" font-size="14.00">Method=Polygon</text>
</g>
<!-- SofQWNormalisedPolygon -->
<g id="node9" class="node">
<title>SofQWNormalisedPolygon</title>
<path fill="lightskyblue" stroke="black" d="M627.7,-36C627.7,-36 454.7,-36 454.7,-36 448.7,-36 442.7,-30 442.7,-24 442.7,-24 442.7,-12 442.7,-12 442.7,-6 448.7,0 454.7,0 454.7,0 627.7,0 627.7,0 633.7,0 639.7,-6 639.7,-12 639.7,-12 639.7,-24 639.7,-24 639.7,-30 633.7,-36 627.7,-36"/>
<text text-anchor="middle" x="541.2" y="-14.3" font-family="Helvetica,sans-Serif" font-size="14.00">SofQWNormalisedPolygon</text>
</g>
<!-- SofQW&#45;&gt;SofQWNormalisedPolygon -->
<g id="edge8" class="edge">
<title>SofQW&#45;&gt;SofQWNormalisedPolygon</title>
<path fill="none" stroke="black" d="M397.67,-99.14C423.48,-94.27 459.82,-85.12 488.2,-69 499.53,-62.56 510.33,-53.2 519.19,-44.32"/>
<polygon fill="black" stroke="black" points="521.64,-46.81 525.99,-37.15 516.57,-41.99 521.64,-46.81"/>
<text text-anchor="middle" x="606.2" y="-57.8" font-family="Helvetica,sans-Serif" font-size="14.00">Method=NormalisedPolygon</text>
</g>
</g>
</svg>
