<?xml version="1.0" encoding="UTF-8" standalone="no"?>
<!DOCTYPE svg PUBLIC "-//W3C//DTD SVG 1.1//EN"
 "http://www.w3.org/Graphics/SVG/1.1/DTD/svg11.dtd">
<!-- Generated by graphviz version 3.0.0 (20220315.2325)
 -->
<!-- Pages: 1 -->
<svg width="713pt" height="204pt"
 viewBox="0.00 0.00 713.20 204.00" xmlns="http://www.w3.org/2000/svg" xmlns:xlink="http://www.w3.org/1999/xlink">
<g id="graph0" class="graph" transform="scale(1 1) rotate(0) translate(4 200)">
<polygon fill="white" stroke="transparent" points="-4,4 -4,-200 709.2,-200 709.2,4 -4,4"/>
<!-- Method -->
<g id="node1" class="node">
<title>Method</title>
<ellipse fill="khaki" stroke="black" cx="44.2" cy="-178" rx="44.39" ry="18"/>
<text text-anchor="middle" x="44.2" y="-174.3" font-family="Helvetica,sans-Serif" font-size="14.00">Method</text>
</g>
<!-- SofQW -->
<g id="node6" class="node">
<title>SofQW</title>
<path fill="lightskyblue" stroke="black" d="M385.2,-123C385.2,-123 345.2,-123 345.2,-123 339.2,-123 333.2,-117 333.2,-111 333.2,-111 333.2,-99 333.2,-99 333.2,-93 339.2,-87 345.2,-87 345.2,-87 385.2,-87 385.2,-87 391.2,-87 397.2,-93 397.2,-99 397.2,-99 397.2,-111 397.2,-111 397.2,-117 391.2,-123 385.2,-123"/>
<text text-anchor="middle" x="365.2" y="-101.3" font-family="Helvetica,sans-Serif" font-size="14.00">SofQW</text>
</g>
<!-- Method&#45;&gt;SofQW -->
<g id="edge1" class="edge">
<title>Method&#45;&gt;SofQW</title>
<path fill="none" stroke="black" d="M77.45,-165.93C84.28,-163.83 91.44,-161.74 98.2,-160 176.76,-139.75 269.94,-122.39 322.86,-113.14"/>
<polygon fill="black" stroke="black" points="323.63,-116.56 332.89,-111.4 322.44,-109.66 323.63,-116.56"/>
</g>
<!-- InputWorkspace -->
<g id="node2" class="node">
<title>InputWorkspace</title>
<ellipse fill="khaki" stroke="black" cx="191.2" cy="-178" rx="84.49" ry="18"/>
<text text-anchor="middle" x="191.2" y="-174.3" font-family="Helvetica,sans-Serif" font-size="14.00">InputWorkspace</text>
</g>
<!-- InputWorkspace&#45;&gt;SofQW -->
<g id="edge2" class="edge">
<title>InputWorkspace&#45;&gt;SofQW</title>
<path fill="none" stroke="black" d="M228.52,-161.77C256.51,-150.35 294.82,-134.72 323.76,-122.91"/>
<polygon fill="black" stroke="black" points="325.25,-126.08 333.19,-119.06 322.61,-119.6 325.25,-126.08"/>
</g>
<!-- QAxisBinning -->
<g id="node3" class="node">
<title>QAxisBinning</title>
<ellipse fill="khaki" stroke="black" cx="365.2" cy="-178" rx="71.49" ry="18"/>
<text text-anchor="middle" x="365.2" y="-174.3" font-family="Helvetica,sans-Serif" font-size="14.00">QAxisBinning</text>
</g>
<!-- QAxisBinning&#45;&gt;SofQW -->
<g id="edge3" class="edge">
<title>QAxisBinning&#45;&gt;SofQW</title>
<path fill="none" stroke="black" d="M365.2,-159.81C365.2,-151.79 365.2,-142.05 365.2,-133.07"/>
<polygon fill="black" stroke="black" points="368.7,-133.03 365.2,-123.03 361.7,-133.03 368.7,-133.03"/>
</g>
<!-- EMode -->
<g id="node4" class="node">
<title>EMode</title>
<ellipse fill="khaki" stroke="black" cx="495.2" cy="-178" rx="40.89" ry="18"/>
<text text-anchor="middle" x="495.2" y="-174.3" font-family="Helvetica,sans-Serif" font-size="14.00">EMode</text>
</g>
<!-- EMode&#45;&gt;SofQW -->
<g id="edge4" class="edge">
<title>EMode&#45;&gt;SofQW</title>
<path fill="none" stroke="black" d="M470.44,-163.48C452.13,-153.48 426.8,-139.65 405.58,-128.06"/>
<polygon fill="black" stroke="black" points="407.23,-124.97 396.77,-123.25 403.87,-131.11 407.23,-124.97"/>
</g>
<!-- EFixed -->
<g id="node5" class="node">
<title>EFixed</title>
<ellipse fill="khaki" stroke="black" cx="594.2" cy="-178" rx="40.09" ry="18"/>
<text text-anchor="middle" x="594.2" y="-174.3" font-family="Helvetica,sans-Serif" font-size="14.00">EFixed</text>
</g>
<!-- EFixed&#45;&gt;SofQW -->
<g id="edge5" class="edge">
<title>EFixed&#45;&gt;SofQW</title>
<path fill="none" stroke="black" d="M563.68,-166.19C557.57,-164.09 551.19,-161.94 545.2,-160 498.23,-144.82 443.92,-128.72 407.34,-118.09"/>
<polygon fill="black" stroke="black" points="408.09,-114.67 397.51,-115.25 406.15,-121.39 408.09,-114.67"/>
</g>
<!-- SofQWCentre -->
<g id="node7" class="node">
<title>SofQWCentre</title>
<path fill="lightskyblue" stroke="black" d="M275.2,-36C275.2,-36 189.2,-36 189.2,-36 183.2,-36 177.2,-30 177.2,-24 177.2,-24 177.2,-12 177.2,-12 177.2,-6 183.2,0 189.2,0 189.2,0 275.2,0 275.2,0 281.2,0 287.2,-6 287.2,-12 287.2,-12 287.2,-24 287.2,-24 287.2,-30 281.2,-36 275.2,-36"/>
<text text-anchor="middle" x="232.2" y="-14.3" font-family="Helvetica,sans-Serif" font-size="14.00">SofQWCentre</text>
</g>
<!-- SofQW&#45;&gt;SofQWCentre -->
<g id="edge6" class="edge">
<title>SofQW&#45;&gt;SofQWCentre</title>
<path fill="none" stroke="black" d="M333.13,-101.72C307.93,-98.32 273.48,-89.88 251.2,-69 244.74,-62.95 240.46,-54.48 237.63,-46.23"/>
<polygon fill="black" stroke="black" points="240.95,-45.11 234.84,-36.45 234.21,-47.02 240.95,-45.11"/>
<text text-anchor="middle" x="306.2" y="-57.8" font-family="Helvetica,sans-Serif" font-size="14.00">Method=Centre</text>
</g>
<!-- SofQWPolygon -->
<g id="node8" class="node">
<title>SofQWPolygon</title>
<path fill="lightskyblue" stroke="black" d="M412.7,-36C412.7,-36 317.7,-36 317.7,-36 311.7,-36 305.7,-30 305.7,-24 305.7,-24 305.7,-12 305.7,-12 305.7,-6 311.7,0 317.7,0 317.7,0 412.7,0 412.7,0 418.7,0 424.7,-6 424.7,-12 424.7,-12 424.7,-24 424.7,-24 424.7,-30 418.7,-36 412.7,-36"/>
<text text-anchor="middle" x="365.2" y="-14.3" font-family="Helvetica,sans-Serif" font-size="14.00">SofQWPolygon</text>
</g>
<!-- SofQW&#45;&gt;SofQWPolygon -->
<g id="edge7" class="edge">
<title>SofQW&#45;&gt;SofQWPolygon</title>
<path fill="none" stroke="black" d="M365.2,-86.8C365.2,-75.16 365.2,-59.55 365.2,-46.24"/>
<polygon fill="black" stroke="black" points="368.7,-46.18 365.2,-36.18 361.7,-46.18 368.7,-46.18"/>
<text text-anchor="middle" x="424.7" y="-57.8" font-family="Helvetica,sans-Serif" font-size="14.00">Method=Polygon</text>
</g>
<!-- SofQWNormalisedPolygon -->
<g id="node9" class="node">
<title>SofQWNormalisedPolygon</title>
<path fill="lightskyblue" stroke="black" d="M627.7,-36C627.7,-36 454.7,-36 454.7,-36 448.7,-36 442.7,-30 442.7,-24 442.7,-24 442.7,-12 442.7,-12 442.7,-6 448.7,0 454.7,0 454.7,0 627.7,0 627.7,0 633.7,0 639.7,-6 639.7,-12 639.7,-12 639.7,-24 639.7,-24 639.7,-30 633.7,-36 627.7,-36"/>
<text text-anchor="middle" x="541.2" y="-14.3" font-family="Helvetica,sans-Serif" font-size="14.00">SofQWNormalisedPolygon</text>
</g>
<!-- SofQW&#45;&gt;SofQWNormalisedPolygon -->
<g id="edge8" class="edge">
<title>SofQW&#45;&gt;SofQWNormalisedPolygon</title>
<path fill="none" stroke="black" d="M397.41,-99.19C423.23,-94.33 459.72,-85.18 488.2,-69 499.88,-62.36 511,-52.62 520,-43.49"/>
<polygon fill="black" stroke="black" points="522.71,-45.73 527.04,-36.06 517.62,-40.92 522.71,-45.73"/>
<text text-anchor="middle" x="606.2" y="-57.8" font-family="Helvetica,sans-Serif" font-size="14.00">Method=NormalisedPolygon</text>
</g>
</g>
</svg>
