<?xml version="1.0" encoding="UTF-8" standalone="no"?>
<!DOCTYPE svg PUBLIC "-//W3C//DTD SVG 1.1//EN"
 "http://www.w3.org/Graphics/SVG/1.1/DTD/svg11.dtd">
<!-- Generated by graphviz version 3.0.0 (20220315.2325)
 -->
<!-- Title: Stitch1D Pages: 1 -->
<svg width="1544pt" height="837pt"
 viewBox="0.00 0.00 1544.24 836.74" xmlns="http://www.w3.org/2000/svg" xmlns:xlink="http://www.w3.org/1999/xlink">
<g id="graph0" class="graph" transform="scale(1 1) rotate(0) translate(4 832.74)">
<title>Stitch1D</title>
<polygon fill="white" stroke="transparent" points="-4,4 -4,-832.74 1540.24,-832.74 1540.24,4 -4,4"/>
<text text-anchor="middle" x="768.12" y="-797.54" font-family="Helvetica,sans-Serif" font-size="14.00">Stitch1D workflow for histograms &#45; no manual scale factor &#160;&#160;&#160;&#160;&#160;&#160;&#160;&#160;&#160;&#160;&#160;&#160;&#160;&#160;&#160;&#160;&#160;&#160;&#160;&#160;&#160;&#160;&#160;&#160;&#160;&#160;&#160;&#160;&#160;&#160;&#160;&#160;&#160;&#160;&#160;&#160;&#160;&#160;&#160;&#160;&#160;&#160;&#160;&#160;&#160;&#160;&#160;&#160;&#160;&#160;&#160;&#160;&#160;&#160;&#160;&#160;&#160;&#160;&#160;&#160;&#160;&#160;&#160;&#160;&#160;&#160;&#160;&#160;&#160;&#160;&#160;&#160;&#160;&#160;&#160;&#160;&#160;&#160;&#160;&#160;&#160;&#160;&#160;&#160;&#160;&#160;&#160;&#160;&#160;&#160;&#160;&#160;&#160;&#160;&#160;&#160;&#160;&#160;&#160;&#160;&#160;&#160;&#160;&#160;&#160;&#160;&#160;&#160;&#160;&#160;&#160;&#160;&#160;Stitch1D workflow histograms &#45; manual scale factor given</text>
<!-- lhsworkspace -->
<g id="node1" class="node">
<title>lhsworkspace</title>
<ellipse fill="khaki" stroke="black" cx="126.57" cy="-755.74" rx="77.99" ry="18"/>
<text text-anchor="middle" x="126.57" y="-752.04" font-family="Helvetica,sans-Serif" font-size="14.00">LHSWorkspace</text>
</g>
<!-- rebin_lhsw -->
<g id="node17" class="node">
<title>rebin_lhsw</title>
<path fill="lightskyblue" stroke="black" d="M142.57,-701.74C142.57,-701.74 110.57,-701.74 110.57,-701.74 104.57,-701.74 98.57,-695.74 98.57,-689.74 98.57,-689.74 98.57,-677.74 98.57,-677.74 98.57,-671.74 104.57,-665.74 110.57,-665.74 110.57,-665.74 142.57,-665.74 142.57,-665.74 148.57,-665.74 154.57,-671.74 154.57,-677.74 154.57,-677.74 154.57,-689.74 154.57,-689.74 154.57,-695.74 148.57,-701.74 142.57,-701.74"/>
<text text-anchor="middle" x="126.57" y="-680.04" font-family="Helvetica,sans-Serif" font-size="14.00">Rebin</text>
</g>
<!-- lhsworkspace&#45;&gt;rebin_lhsw -->
<g id="edge1" class="edge">
<title>lhsworkspace&#45;&gt;rebin_lhsw</title>
<path fill="none" stroke="black" d="M126.57,-737.44C126.57,-729.72 126.57,-720.45 126.57,-711.85"/>
<polygon fill="black" stroke="black" points="130.07,-711.84 126.57,-701.84 123.07,-711.84 130.07,-711.84"/>
</g>
<!-- rhsworkspace -->
<g id="node2" class="node">
<title>rhsworkspace</title>
<ellipse fill="khaki" stroke="black" cx="599.57" cy="-755.74" rx="79.09" ry="18"/>
<text text-anchor="middle" x="599.57" y="-752.04" font-family="Helvetica,sans-Serif" font-size="14.00">RHSWorkspace</text>
</g>
<!-- rebin_rhsw -->
<g id="node18" class="node">
<title>rebin_rhsw</title>
<path fill="lightskyblue" stroke="black" d="M615.57,-701.74C615.57,-701.74 583.57,-701.74 583.57,-701.74 577.57,-701.74 571.57,-695.74 571.57,-689.74 571.57,-689.74 571.57,-677.74 571.57,-677.74 571.57,-671.74 577.57,-665.74 583.57,-665.74 583.57,-665.74 615.57,-665.74 615.57,-665.74 621.57,-665.74 627.57,-671.74 627.57,-677.74 627.57,-677.74 627.57,-689.74 627.57,-689.74 627.57,-695.74 621.57,-701.74 615.57,-701.74"/>
<text text-anchor="middle" x="599.57" y="-680.04" font-family="Helvetica,sans-Serif" font-size="14.00">Rebin</text>
</g>
<!-- rhsworkspace&#45;&gt;rebin_rhsw -->
<g id="edge2" class="edge">
<title>rhsworkspace&#45;&gt;rebin_rhsw</title>
<path fill="none" stroke="black" d="M599.57,-737.44C599.57,-729.72 599.57,-720.45 599.57,-711.85"/>
<polygon fill="black" stroke="black" points="603.07,-711.84 599.57,-701.84 596.07,-711.84 603.07,-711.84"/>
</g>
<!-- params -->
<g id="node3" class="node">
<title>params</title>
<ellipse fill="khaki" stroke="black" cx="362.57" cy="-755.74" rx="44.39" ry="18"/>
<text text-anchor="middle" x="362.57" y="-752.04" font-family="Helvetica,sans-Serif" font-size="14.00">Params</text>
</g>
<!-- params&#45;&gt;rebin_lhsw -->
<g id="edge3" class="edge">
<title>params&#45;&gt;rebin_lhsw</title>
<path fill="none" stroke="black" d="M328,-744.49C284.32,-731.53 209.4,-709.31 164.28,-695.93"/>
<polygon fill="black" stroke="black" points="165.17,-692.54 154.58,-693.05 163.17,-699.25 165.17,-692.54"/>
</g>
<!-- params&#45;&gt;rebin_rhsw -->
<g id="edge4" class="edge">
<title>params&#45;&gt;rebin_rhsw</title>
<path fill="none" stroke="black" d="M397.29,-744.49C441.16,-731.53 516.39,-709.31 561.7,-695.93"/>
<polygon fill="black" stroke="black" points="562.84,-699.24 571.44,-693.05 560.86,-692.52 562.84,-699.24"/>
</g>
<!-- startOv -->
<g id="node4" class="node">
<title>startOv</title>
<ellipse fill="khaki" stroke="black" cx="290.57" cy="-611.74" rx="68.49" ry="18"/>
<text text-anchor="middle" x="290.57" y="-608.04" font-family="Helvetica,sans-Serif" font-size="14.00">StartOverlap</text>
</g>
<!-- integrate_lhsw -->
<g id="node19" class="node">
<title>integrate_lhsw</title>
<path fill="lightskyblue" stroke="black" d="M161.07,-557.74C161.07,-557.74 92.07,-557.74 92.07,-557.74 86.07,-557.74 80.07,-551.74 80.07,-545.74 80.07,-545.74 80.07,-533.74 80.07,-533.74 80.07,-527.74 86.07,-521.74 92.07,-521.74 92.07,-521.74 161.07,-521.74 161.07,-521.74 167.07,-521.74 173.07,-527.74 173.07,-533.74 173.07,-533.74 173.07,-545.74 173.07,-545.74 173.07,-551.74 167.07,-557.74 161.07,-557.74"/>
<text text-anchor="middle" x="126.57" y="-536.04" font-family="Helvetica,sans-Serif" font-size="14.00">Integration</text>
</g>
<!-- startOv&#45;&gt;integrate_lhsw -->
<g id="edge9" class="edge">
<title>startOv&#45;&gt;integrate_lhsw</title>
<path fill="none" stroke="black" d="M256.19,-596.07C232.94,-586.14 201.86,-572.88 175.97,-561.82"/>
<polygon fill="black" stroke="black" points="177.26,-558.57 166.69,-557.86 174.51,-565.01 177.26,-558.57"/>
</g>
<!-- integrate_rhsw -->
<g id="node20" class="node">
<title>integrate_rhsw</title>
<path fill="lightskyblue" stroke="black" d="M602.07,-557.74C602.07,-557.74 533.07,-557.74 533.07,-557.74 527.07,-557.74 521.07,-551.74 521.07,-545.74 521.07,-545.74 521.07,-533.74 521.07,-533.74 521.07,-527.74 527.07,-521.74 533.07,-521.74 533.07,-521.74 602.07,-521.74 602.07,-521.74 608.07,-521.74 614.07,-527.74 614.07,-533.74 614.07,-533.74 614.07,-545.74 614.07,-545.74 614.07,-551.74 608.07,-557.74 602.07,-557.74"/>
<text text-anchor="middle" x="567.57" y="-536.04" font-family="Helvetica,sans-Serif" font-size="14.00">Integration</text>
</g>
<!-- startOv&#45;&gt;integrate_rhsw -->
<g id="edge10" class="edge">
<title>startOv&#45;&gt;integrate_rhsw</title>
<path fill="none" stroke="black" d="M338.19,-598.71C386.19,-586.58 460.27,-567.86 511.18,-554.99"/>
<polygon fill="black" stroke="black" points="512.2,-558.34 521.04,-552.5 510.48,-551.56 512.2,-558.34"/>
</g>
<!-- endOv -->
<g id="node5" class="node">
<title>endOv</title>
<ellipse fill="khaki" stroke="black" cx="440.57" cy="-611.74" rx="63.89" ry="18"/>
<text text-anchor="middle" x="440.57" y="-608.04" font-family="Helvetica,sans-Serif" font-size="14.00">EndOverlap</text>
</g>
<!-- endOv&#45;&gt;integrate_lhsw -->
<g id="edge11" class="edge">
<title>endOv&#45;&gt;integrate_lhsw</title>
<path fill="none" stroke="black" d="M392.2,-599.96C335.85,-587.39 242.88,-566.67 183.21,-553.37"/>
<polygon fill="black" stroke="black" points="183.73,-549.9 173.21,-551.14 182.21,-556.73 183.73,-549.9"/>
</g>
<!-- endOv&#45;&gt;integrate_rhsw -->
<g id="edge12" class="edge">
<title>endOv&#45;&gt;integrate_rhsw</title>
<path fill="none" stroke="black" d="M468.44,-595.38C485.84,-585.79 508.51,-573.29 527.78,-562.67"/>
<polygon fill="black" stroke="black" points="529.58,-565.68 536.65,-557.78 526.2,-559.55 529.58,-565.68"/>
</g>
<!-- scaleFactor -->
<g id="node6" class="node">
<title>scaleFactor</title>
<ellipse fill="khaki" stroke="black" cx="535.57" cy="-395.74" rx="79.09" ry="18"/>
<text text-anchor="middle" x="535.57" y="-392.04" font-family="Helvetica,sans-Serif" font-size="14.00">OutScaleFactor</text>
</g>
<!-- multiply -->
<g id="node21" class="node">
<title>multiply</title>
<path fill="lightskyblue" stroke="black" d="M666.07,-341.74C666.07,-341.74 619.07,-341.74 619.07,-341.74 613.07,-341.74 607.07,-335.74 607.07,-329.74 607.07,-329.74 607.07,-317.74 607.07,-317.74 607.07,-311.74 613.07,-305.74 619.07,-305.74 619.07,-305.74 666.07,-305.74 666.07,-305.74 672.07,-305.74 678.07,-311.74 678.07,-317.74 678.07,-317.74 678.07,-329.74 678.07,-329.74 678.07,-335.74 672.07,-341.74 666.07,-341.74"/>
<text text-anchor="middle" x="642.57" y="-320.04" font-family="Helvetica,sans-Serif" font-size="14.00">Multiply</text>
</g>
<!-- scaleFactor&#45;&gt;multiply -->
<g id="edge17" class="edge">
<title>scaleFactor&#45;&gt;multiply</title>
<path fill="none" stroke="black" d="M560.39,-378.5C574.43,-369.32 592.2,-357.69 607.63,-347.6"/>
<polygon fill="black" stroke="black" points="609.94,-350.27 616.4,-341.86 606.11,-344.41 609.94,-350.27"/>
</g>
<!-- lhsworkspace_o -->
<g id="node7" class="node">
<title>lhsworkspace_o</title>
<ellipse fill="khaki" stroke="black" cx="126.57" cy="-242.87" rx="126.64" ry="26.74"/>
<text text-anchor="middle" x="126.57" y="-246.67" font-family="Helvetica,sans-Serif" font-size="14.00">LHSWorkspace</text>
<text text-anchor="middle" x="126.57" y="-231.67" font-family="Helvetica,sans-Serif" font-size="14.00">([StartX, StartOverlap])</text>
</g>
<!-- plus -->
<g id="node24" class="node">
<title>plus</title>
<path fill="lightskyblue" stroke="black" d="M404.57,-180C404.57,-180 374.57,-180 374.57,-180 368.57,-180 362.57,-174 362.57,-168 362.57,-168 362.57,-156 362.57,-156 362.57,-150 368.57,-144 374.57,-144 374.57,-144 404.57,-144 404.57,-144 410.57,-144 416.57,-150 416.57,-156 416.57,-156 416.57,-168 416.57,-168 416.57,-174 410.57,-180 404.57,-180"/>
<text text-anchor="middle" x="389.57" y="-158.3" font-family="Helvetica,sans-Serif" font-size="14.00">Plus</text>
</g>
<!-- lhsworkspace_o&#45;&gt;plus -->
<g id="edge19" class="edge">
<title>lhsworkspace_o&#45;&gt;plus</title>
<path fill="none" stroke="black" d="M197.74,-220.53C247.81,-205.51 312.77,-186.03 352.79,-174.03"/>
<polygon fill="black" stroke="black" points="353.83,-177.37 362.41,-171.15 351.82,-170.67 353.83,-177.37"/>
</g>
<!-- rhsworkspace_o -->
<g id="node8" class="node">
<title>rhsworkspace_o</title>
<ellipse fill="khaki" stroke="black" cx="642.57" cy="-242.87" rx="116.85" ry="26.74"/>
<text text-anchor="middle" x="642.57" y="-246.67" font-family="Helvetica,sans-Serif" font-size="14.00">RHSWorkspace</text>
<text text-anchor="middle" x="642.57" y="-231.67" font-family="Helvetica,sans-Serif" font-size="14.00">([EndOverlap, EndX])</text>
</g>
<!-- lhsworkspace_1_1 -->
<g id="node14" class="node">
<title>lhsworkspace_1_1</title>
<ellipse fill="khaki" stroke="black" cx="903.57" cy="-242.87" rx="126.64" ry="26.74"/>
<text text-anchor="middle" x="903.57" y="-246.67" font-family="Helvetica,sans-Serif" font-size="14.00">LHSWorkspace</text>
<text text-anchor="middle" x="903.57" y="-231.67" font-family="Helvetica,sans-Serif" font-size="14.00">([StartX, StartOverlap])</text>
</g>
<!-- rhsworkspace_o&#45;&gt;lhsworkspace_1_1 -->
<!-- rhsworkspace_o&#45;&gt;plus -->
<g id="edge24" class="edge">
<title>rhsworkspace_o&#45;&gt;plus</title>
<path fill="none" stroke="black" d="M575.11,-220.84C527.54,-206.01 465.61,-186.7 426.72,-174.58"/>
<polygon fill="black" stroke="black" points="427.46,-171.14 416.87,-171.51 425.37,-177.83 427.46,-171.14"/>
</g>
<!-- outputworkspace -->
<g id="node9" class="node">
<title>outputworkspace</title>
<ellipse fill="khaki" stroke="black" cx="389.57" cy="-18" rx="92.08" ry="18"/>
<text text-anchor="middle" x="389.57" y="-14.3" font-family="Helvetica,sans-Serif" font-size="14.00">OutputWorkspace</text>
</g>
<!-- lhsworkspace_1 -->
<g id="node10" class="node">
<title>lhsworkspace_1</title>
<ellipse fill="khaki" stroke="black" cx="903.57" cy="-755.74" rx="77.99" ry="18"/>
<text text-anchor="middle" x="903.57" y="-752.04" font-family="Helvetica,sans-Serif" font-size="14.00">LHSWorkspace</text>
</g>
<!-- rebin_lhsw_1 -->
<g id="node25" class="node">
<title>rebin_lhsw_1</title>
<path fill="lightskyblue" stroke="black" d="M919.57,-701.74C919.57,-701.74 887.57,-701.74 887.57,-701.74 881.57,-701.74 875.57,-695.74 875.57,-689.74 875.57,-689.74 875.57,-677.74 875.57,-677.74 875.57,-671.74 881.57,-665.74 887.57,-665.74 887.57,-665.74 919.57,-665.74 919.57,-665.74 925.57,-665.74 931.57,-671.74 931.57,-677.74 931.57,-677.74 931.57,-689.74 931.57,-689.74 931.57,-695.74 925.57,-701.74 919.57,-701.74"/>
<text text-anchor="middle" x="903.57" y="-680.04" font-family="Helvetica,sans-Serif" font-size="14.00">Rebin</text>
</g>
<!-- lhsworkspace_1&#45;&gt;rebin_lhsw_1 -->
<g id="edge27" class="edge">
<title>lhsworkspace_1&#45;&gt;rebin_lhsw_1</title>
<path fill="none" stroke="black" d="M903.57,-737.44C903.57,-729.72 903.57,-720.45 903.57,-711.85"/>
<polygon fill="black" stroke="black" points="907.07,-711.84 903.57,-701.84 900.07,-711.84 907.07,-711.84"/>
</g>
<!-- rhsworkspace_1 -->
<g id="node11" class="node">
<title>rhsworkspace_1</title>
<ellipse fill="khaki" stroke="black" cx="1419.57" cy="-755.74" rx="79.09" ry="18"/>
<text text-anchor="middle" x="1419.57" y="-752.04" font-family="Helvetica,sans-Serif" font-size="14.00">RHSWorkspace</text>
</g>
<!-- rebin_rhsw_1 -->
<g id="node26" class="node">
<title>rebin_rhsw_1</title>
<path fill="lightskyblue" stroke="black" d="M1435.57,-701.74C1435.57,-701.74 1403.57,-701.74 1403.57,-701.74 1397.57,-701.74 1391.57,-695.74 1391.57,-689.74 1391.57,-689.74 1391.57,-677.74 1391.57,-677.74 1391.57,-671.74 1397.57,-665.74 1403.57,-665.74 1403.57,-665.74 1435.57,-665.74 1435.57,-665.74 1441.57,-665.74 1447.57,-671.74 1447.57,-677.74 1447.57,-677.74 1447.57,-689.74 1447.57,-689.74 1447.57,-695.74 1441.57,-701.74 1435.57,-701.74"/>
<text text-anchor="middle" x="1419.57" y="-680.04" font-family="Helvetica,sans-Serif" font-size="14.00">Rebin</text>
</g>
<!-- rhsworkspace_1&#45;&gt;rebin_rhsw_1 -->
<g id="edge28" class="edge">
<title>rhsworkspace_1&#45;&gt;rebin_rhsw_1</title>
<path fill="none" stroke="black" d="M1419.57,-737.44C1419.57,-729.72 1419.57,-720.45 1419.57,-711.85"/>
<polygon fill="black" stroke="black" points="1423.07,-711.84 1419.57,-701.84 1416.07,-711.84 1423.07,-711.84"/>
</g>
<!-- params_1 -->
<g id="node12" class="node">
<title>params_1</title>
<ellipse fill="khaki" stroke="black" cx="1161.57" cy="-755.74" rx="44.39" ry="18"/>
<text text-anchor="middle" x="1161.57" y="-752.04" font-family="Helvetica,sans-Serif" font-size="14.00">Params</text>
</g>
<!-- params_1&#45;&gt;rebin_lhsw_1 -->
<g id="edge29" class="edge">
<title>params_1&#45;&gt;rebin_lhsw_1</title>
<path fill="none" stroke="black" d="M1125.7,-745.01C1077.12,-731.83 990.82,-708.41 941.31,-694.98"/>
<polygon fill="black" stroke="black" points="942.19,-691.59 931.62,-692.35 940.35,-698.35 942.19,-691.59"/>
</g>
<!-- params_1&#45;&gt;rebin_rhsw_1 -->
<g id="edge30" class="edge">
<title>params_1&#45;&gt;rebin_rhsw_1</title>
<path fill="none" stroke="black" d="M1197.45,-745.01C1246.02,-731.83 1332.32,-708.41 1381.84,-694.98"/>
<polygon fill="black" stroke="black" points="1382.79,-698.35 1391.52,-692.35 1380.96,-691.59 1382.79,-698.35"/>
</g>
<!-- scaleFactor_in -->
<g id="node13" class="node">
<title>scaleFactor_in</title>
<ellipse fill="khaki" stroke="black" cx="1296.57" cy="-395.74" rx="94.78" ry="18"/>
<text text-anchor="middle" x="1296.57" y="-392.04" font-family="Helvetica,sans-Serif" font-size="14.00">ManualScaleFactor</text>
</g>
<!-- multiply_1 -->
<g id="node27" class="node">
<title>multiply_1</title>
<path fill="lightskyblue" stroke="black" d="M1443.07,-341.74C1443.07,-341.74 1396.07,-341.74 1396.07,-341.74 1390.07,-341.74 1384.07,-335.74 1384.07,-329.74 1384.07,-329.74 1384.07,-317.74 1384.07,-317.74 1384.07,-311.74 1390.07,-305.74 1396.07,-305.74 1396.07,-305.74 1443.07,-305.74 1443.07,-305.74 1449.07,-305.74 1455.07,-311.74 1455.07,-317.74 1455.07,-317.74 1455.07,-329.74 1455.07,-329.74 1455.07,-335.74 1449.07,-341.74 1443.07,-341.74"/>
<text text-anchor="middle" x="1419.57" y="-320.04" font-family="Helvetica,sans-Serif" font-size="14.00">Multiply</text>
</g>
<!-- scaleFactor_in&#45;&gt;multiply_1 -->
<g id="edge35" class="edge">
<title>scaleFactor_in&#45;&gt;multiply_1</title>
<path fill="none" stroke="black" d="M1325.1,-378.5C1341.54,-369.15 1362.44,-357.26 1380.4,-347.03"/>
<polygon fill="black" stroke="black" points="1382.52,-349.85 1389.48,-341.86 1379.06,-343.77 1382.52,-349.85"/>
</g>
<!-- plus_1 -->
<g id="node29" class="node">
<title>plus_1</title>
<path fill="lightskyblue" stroke="black" d="M1181.57,-180C1181.57,-180 1151.57,-180 1151.57,-180 1145.57,-180 1139.57,-174 1139.57,-168 1139.57,-168 1139.57,-156 1139.57,-156 1139.57,-150 1145.57,-144 1151.57,-144 1151.57,-144 1181.57,-144 1181.57,-144 1187.57,-144 1193.57,-150 1193.57,-156 1193.57,-156 1193.57,-168 1193.57,-168 1193.57,-174 1187.57,-180 1181.57,-180"/>
<text text-anchor="middle" x="1166.57" y="-158.3" font-family="Helvetica,sans-Serif" font-size="14.00">Plus</text>
</g>
<!-- lhsworkspace_1_1&#45;&gt;plus_1 -->
<g id="edge38" class="edge">
<title>lhsworkspace_1_1&#45;&gt;plus_1</title>
<path fill="none" stroke="black" d="M974.74,-220.53C1024.81,-205.51 1089.77,-186.03 1129.79,-174.03"/>
<polygon fill="black" stroke="black" points="1130.83,-177.37 1139.41,-171.15 1128.82,-170.67 1130.83,-177.37"/>
</g>
<!-- rhsworkspace_1_1 -->
<g id="node15" class="node">
<title>rhsworkspace_1_1</title>
<ellipse fill="khaki" stroke="black" cx="1419.57" cy="-242.87" rx="116.85" ry="26.74"/>
<text text-anchor="middle" x="1419.57" y="-246.67" font-family="Helvetica,sans-Serif" font-size="14.00">RHSWorkspace</text>
<text text-anchor="middle" x="1419.57" y="-231.67" font-family="Helvetica,sans-Serif" font-size="14.00">([EndOverlap, EndX])</text>
</g>
<!-- rhsworkspace_1_1&#45;&gt;plus_1 -->
<g id="edge41" class="edge">
<title>rhsworkspace_1_1&#45;&gt;plus_1</title>
<path fill="none" stroke="black" d="M1352.11,-220.84C1304.54,-206.01 1242.61,-186.7 1203.72,-174.58"/>
<polygon fill="black" stroke="black" points="1204.46,-171.14 1193.87,-171.51 1202.37,-177.83 1204.46,-171.14"/>
</g>
<!-- outputworkspace_1 -->
<g id="node16" class="node">
<title>outputworkspace_1</title>
<ellipse fill="khaki" stroke="black" cx="1166.57" cy="-18" rx="92.08" ry="18"/>
<text text-anchor="middle" x="1166.57" y="-14.3" font-family="Helvetica,sans-Serif" font-size="14.00">OutputWorkspace</text>
</g>
<!-- maskSpecialValues_1 -->
<g id="node30" class="node">
<title>maskSpecialValues_1</title>
<polygon fill="lightseagreen" stroke="black" points="204.07,-629.74 49.07,-629.74 49.07,-593.74 204.07,-593.74 204.07,-629.74"/>
<text text-anchor="middle" x="126.57" y="-608.04" font-family="Helvetica,sans-Serif" font-size="14.00">Mask special values</text>
</g>
<!-- rebin_lhsw&#45;&gt;maskSpecialValues_1 -->
<g id="edge5" class="edge">
<title>rebin_lhsw&#45;&gt;maskSpecialValues_1</title>
<path fill="none" stroke="black" d="M126.57,-665.44C126.57,-657.72 126.57,-648.45 126.57,-639.85"/>
<polygon fill="black" stroke="black" points="130.07,-639.84 126.57,-629.84 123.07,-639.84 130.07,-639.84"/>
</g>
<!-- maskSpecialValues_2 -->
<g id="node31" class="node">
<title>maskSpecialValues_2</title>
<polygon fill="lightseagreen" stroke="black" points="677.07,-629.74 522.07,-629.74 522.07,-593.74 677.07,-593.74 677.07,-629.74"/>
<text text-anchor="middle" x="599.57" y="-608.04" font-family="Helvetica,sans-Serif" font-size="14.00">Mask special values</text>
</g>
<!-- rebin_rhsw&#45;&gt;maskSpecialValues_2 -->
<g id="edge6" class="edge">
<title>rebin_rhsw&#45;&gt;maskSpecialValues_2</title>
<path fill="none" stroke="black" d="M599.57,-665.44C599.57,-657.72 599.57,-648.45 599.57,-639.85"/>
<polygon fill="black" stroke="black" points="603.07,-639.84 599.57,-629.84 596.07,-639.84 603.07,-639.84"/>
</g>
<!-- integrate_lhsw&#45;&gt;lhsworkspace_o -->
<g id="edge13" class="edge">
<title>integrate_lhsw&#45;&gt;lhsworkspace_o</title>
<path fill="none" stroke="black" d="M126.57,-521.62C126.57,-473.92 126.57,-344.15 126.57,-279.92"/>
<polygon fill="black" stroke="black" points="130.07,-279.82 126.57,-269.82 123.07,-279.82 130.07,-279.82"/>
</g>
<!-- divideScaleFactor -->
<g id="node23" class="node">
<title>divideScaleFactor</title>
<path fill="lightskyblue" stroke="black" d="M553.57,-485.74C553.57,-485.74 517.57,-485.74 517.57,-485.74 511.57,-485.74 505.57,-479.74 505.57,-473.74 505.57,-473.74 505.57,-461.74 505.57,-461.74 505.57,-455.74 511.57,-449.74 517.57,-449.74 517.57,-449.74 553.57,-449.74 553.57,-449.74 559.57,-449.74 565.57,-455.74 565.57,-461.74 565.57,-461.74 565.57,-473.74 565.57,-473.74 565.57,-479.74 559.57,-485.74 553.57,-485.74"/>
<text text-anchor="middle" x="535.57" y="-464.04" font-family="Helvetica,sans-Serif" font-size="14.00">Divide</text>
</g>
<!-- integrate_lhsw&#45;&gt;divideScaleFactor -->
<g id="edge14" class="edge">
<title>integrate_lhsw&#45;&gt;divideScaleFactor</title>
<path fill="none" stroke="black" d="M173.09,-530.78C253.98,-516.93 419.18,-488.66 495.4,-475.62"/>
<polygon fill="black" stroke="black" points="496.28,-479.02 505.54,-473.88 495.1,-472.12 496.28,-479.02"/>
</g>
<!-- integrate_rhsw&#45;&gt;divideScaleFactor -->
<g id="edge15" class="edge">
<title>integrate_rhsw&#45;&gt;divideScaleFactor</title>
<path fill="none" stroke="black" d="M559.66,-521.44C556.02,-513.47 551.62,-503.84 547.58,-495"/>
<polygon fill="black" stroke="black" points="550.73,-493.48 543.39,-485.84 544.37,-496.39 550.73,-493.48"/>
</g>
<!-- multiply&#45;&gt;rhsworkspace_o -->
<g id="edge23" class="edge">
<title>multiply&#45;&gt;rhsworkspace_o</title>
<path fill="none" stroke="black" d="M642.57,-305.63C642.57,-298.14 642.57,-289.05 642.57,-280.17"/>
<polygon fill="black" stroke="black" points="646.07,-279.95 642.57,-269.95 639.07,-279.95 646.07,-279.95"/>
</g>
<!-- weightedMean -->
<g id="node22" class="node">
<title>weightedMean</title>
<path fill="lightskyblue" stroke="black" d="M495.57,-269.37C495.57,-269.37 283.57,-269.37 283.57,-269.37 277.57,-269.37 271.57,-263.37 271.57,-257.37 271.57,-257.37 271.57,-228.37 271.57,-228.37 271.57,-222.37 277.57,-216.37 283.57,-216.37 283.57,-216.37 495.57,-216.37 495.57,-216.37 501.57,-216.37 507.57,-222.37 507.57,-228.37 507.57,-228.37 507.57,-257.37 507.57,-257.37 507.57,-263.37 501.57,-269.37 495.57,-269.37"/>
<text text-anchor="middle" x="389.57" y="-254.17" font-family="Helvetica,sans-Serif" font-size="14.00">WeightedMean or</text>
<text text-anchor="middle" x="389.57" y="-239.17" font-family="Helvetica,sans-Serif" font-size="14.00">Unweighted mean if zero errors</text>
<text text-anchor="middle" x="389.57" y="-224.17" font-family="Helvetica,sans-Serif" font-size="14.00">([StartOverlap, EndOverlap])</text>
</g>
<!-- multiply&#45;&gt;weightedMean -->
<g id="edge20" class="edge">
<title>multiply&#45;&gt;weightedMean</title>
<path fill="none" stroke="black" d="M606.86,-311.61C574.32,-301.46 524.83,-286.03 481.29,-272.46"/>
<polygon fill="black" stroke="black" points="482.12,-269.05 471.53,-269.42 480.03,-275.74 482.12,-269.05"/>
</g>
<!-- weightedMean&#45;&gt;plus -->
<g id="edge22" class="edge">
<title>weightedMean&#45;&gt;plus</title>
<path fill="none" stroke="black" d="M389.57,-216.05C389.57,-207.92 389.57,-198.92 389.57,-190.68"/>
<polygon fill="black" stroke="black" points="393.07,-190.41 389.57,-180.41 386.07,-190.41 393.07,-190.41"/>
</g>
<!-- divideScaleFactor&#45;&gt;scaleFactor -->
<g id="edge16" class="edge">
<title>divideScaleFactor&#45;&gt;scaleFactor</title>
<path fill="none" stroke="black" d="M535.57,-449.44C535.57,-441.72 535.57,-432.45 535.57,-423.85"/>
<polygon fill="black" stroke="black" points="539.07,-423.84 535.57,-413.84 532.07,-423.84 539.07,-423.84"/>
</g>
<!-- insertSpecialValues -->
<g id="node32" class="node">
<title>insertSpecialValues</title>
<polygon fill="lightseagreen" stroke="black" points="477.57,-108 301.57,-108 301.57,-72 477.57,-72 477.57,-108"/>
<text text-anchor="middle" x="389.57" y="-86.3" font-family="Helvetica,sans-Serif" font-size="14.00">Reinsert special values</text>
</g>
<!-- plus&#45;&gt;insertSpecialValues -->
<g id="edge25" class="edge">
<title>plus&#45;&gt;insertSpecialValues</title>
<path fill="none" stroke="black" d="M389.57,-143.7C389.57,-135.98 389.57,-126.71 389.57,-118.11"/>
<polygon fill="black" stroke="black" points="393.07,-118.1 389.57,-108.1 386.07,-118.1 393.07,-118.1"/>
</g>
<!-- maskSpecialValues_1_1 -->
<g id="node33" class="node">
<title>maskSpecialValues_1_1</title>
<polygon fill="lightseagreen" stroke="black" points="981.07,-629.74 826.07,-629.74 826.07,-593.74 981.07,-593.74 981.07,-629.74"/>
<text text-anchor="middle" x="903.57" y="-608.04" font-family="Helvetica,sans-Serif" font-size="14.00">Mask special values</text>
</g>
<!-- rebin_lhsw_1&#45;&gt;maskSpecialValues_1_1 -->
<g id="edge31" class="edge">
<title>rebin_lhsw_1&#45;&gt;maskSpecialValues_1_1</title>
<path fill="none" stroke="black" d="M903.57,-665.44C903.57,-657.72 903.57,-648.45 903.57,-639.85"/>
<polygon fill="black" stroke="black" points="907.07,-639.84 903.57,-629.84 900.07,-639.84 907.07,-639.84"/>
</g>
<!-- maskSpecialValues_2_1 -->
<g id="node34" class="node">
<title>maskSpecialValues_2_1</title>
<polygon fill="lightseagreen" stroke="black" points="1497.07,-629.74 1342.07,-629.74 1342.07,-593.74 1497.07,-593.74 1497.07,-629.74"/>
<text text-anchor="middle" x="1419.57" y="-608.04" font-family="Helvetica,sans-Serif" font-size="14.00">Mask special values</text>
</g>
<!-- rebin_rhsw_1&#45;&gt;maskSpecialValues_2_1 -->
<g id="edge32" class="edge">
<title>rebin_rhsw_1&#45;&gt;maskSpecialValues_2_1</title>
<path fill="none" stroke="black" d="M1419.57,-665.44C1419.57,-657.72 1419.57,-648.45 1419.57,-639.85"/>
<polygon fill="black" stroke="black" points="1423.07,-639.84 1419.57,-629.84 1416.07,-639.84 1423.07,-639.84"/>
</g>
<!-- multiply_1&#45;&gt;rhsworkspace_1_1 -->
<g id="edge40" class="edge">
<title>multiply_1&#45;&gt;rhsworkspace_1_1</title>
<path fill="none" stroke="black" d="M1419.57,-305.63C1419.57,-298.14 1419.57,-289.05 1419.57,-280.17"/>
<polygon fill="black" stroke="black" points="1423.07,-279.95 1419.57,-269.95 1416.07,-279.95 1423.07,-279.95"/>
</g>
<!-- weightedMean_1 -->
<g id="node28" class="node">
<title>weightedMean_1</title>
<path fill="lightskyblue" stroke="black" d="M1272.57,-269.37C1272.57,-269.37 1060.57,-269.37 1060.57,-269.37 1054.57,-269.37 1048.57,-263.37 1048.57,-257.37 1048.57,-257.37 1048.57,-228.37 1048.57,-228.37 1048.57,-222.37 1054.57,-216.37 1060.57,-216.37 1060.57,-216.37 1272.57,-216.37 1272.57,-216.37 1278.57,-216.37 1284.57,-222.37 1284.57,-228.37 1284.57,-228.37 1284.57,-257.37 1284.57,-257.37 1284.57,-263.37 1278.57,-269.37 1272.57,-269.37"/>
<text text-anchor="middle" x="1166.57" y="-254.17" font-family="Helvetica,sans-Serif" font-size="14.00">WeightedMean or</text>
<text text-anchor="middle" x="1166.57" y="-239.17" font-family="Helvetica,sans-Serif" font-size="14.00">Unweighted mean if zero errors</text>
<text text-anchor="middle" x="1166.57" y="-224.17" font-family="Helvetica,sans-Serif" font-size="14.00">([StartOverlap, EndOverlap])</text>
</g>
<!-- multiply_1&#45;&gt;weightedMean_1 -->
<g id="edge36" class="edge">
<title>multiply_1&#45;&gt;weightedMean_1</title>
<path fill="none" stroke="black" d="M1383.86,-311.61C1351.32,-301.46 1301.83,-286.03 1258.29,-272.46"/>
<polygon fill="black" stroke="black" points="1259.12,-269.05 1248.53,-269.42 1257.03,-275.74 1259.12,-269.05"/>
</g>
<!-- weightedMean_1&#45;&gt;plus_1 -->
<g id="edge39" class="edge">
<title>weightedMean_1&#45;&gt;plus_1</title>
<path fill="none" stroke="black" d="M1166.57,-216.05C1166.57,-207.92 1166.57,-198.92 1166.57,-190.68"/>
<polygon fill="black" stroke="black" points="1170.07,-190.41 1166.57,-180.41 1163.07,-190.41 1170.07,-190.41"/>
</g>
<!-- insertSpecialValues_1 -->
<g id="node35" class="node">
<title>insertSpecialValues_1</title>
<polygon fill="lightseagreen" stroke="black" points="1254.57,-108 1078.57,-108 1078.57,-72 1254.57,-72 1254.57,-108"/>
<text text-anchor="middle" x="1166.57" y="-86.3" font-family="Helvetica,sans-Serif" font-size="14.00">Reinsert special values</text>
</g>
<!-- plus_1&#45;&gt;insertSpecialValues_1 -->
<g id="edge42" class="edge">
<title>plus_1&#45;&gt;insertSpecialValues_1</title>
<path fill="none" stroke="black" d="M1166.57,-143.7C1166.57,-135.98 1166.57,-126.71 1166.57,-118.11"/>
<polygon fill="black" stroke="black" points="1170.07,-118.1 1166.57,-108.1 1163.07,-118.1 1170.07,-118.1"/>
</g>
<!-- maskSpecialValues_1&#45;&gt;integrate_lhsw -->
<g id="edge7" class="edge">
<title>maskSpecialValues_1&#45;&gt;integrate_lhsw</title>
<path fill="none" stroke="black" d="M126.57,-593.44C126.57,-585.72 126.57,-576.45 126.57,-567.85"/>
<polygon fill="black" stroke="black" points="130.07,-567.84 126.57,-557.84 123.07,-567.84 130.07,-567.84"/>
</g>
<!-- maskSpecialValues_1&#45;&gt;weightedMean -->
<g id="edge21" class="edge">
<title>maskSpecialValues_1&#45;&gt;weightedMean</title>
<path fill="none" stroke="black" d="M139.44,-593.7C180.65,-535.9 309.9,-354.62 364.66,-277.81"/>
<polygon fill="black" stroke="black" points="367.69,-279.59 370.65,-269.41 361.99,-275.52 367.69,-279.59"/>
</g>
<!-- maskSpecialValues_2&#45;&gt;integrate_rhsw -->
<g id="edge8" class="edge">
<title>maskSpecialValues_2&#45;&gt;integrate_rhsw</title>
<path fill="none" stroke="black" d="M591.66,-593.44C588.02,-585.47 583.62,-575.84 579.58,-567"/>
<polygon fill="black" stroke="black" points="582.73,-565.48 575.39,-557.84 576.37,-568.39 582.73,-565.48"/>
</g>
<!-- maskSpecialValues_2&#45;&gt;multiply -->
<g id="edge18" class="edge">
<title>maskSpecialValues_2&#45;&gt;multiply</title>
<path fill="none" stroke="black" d="M602.26,-593.72C609.53,-545.03 629.61,-410.54 638.38,-351.8"/>
<polygon fill="black" stroke="black" points="641.87,-352.16 639.88,-341.75 634.94,-351.12 641.87,-352.16"/>
</g>
<!-- insertSpecialValues&#45;&gt;outputworkspace -->
<g id="edge26" class="edge">
<title>insertSpecialValues&#45;&gt;outputworkspace</title>
<path fill="none" stroke="black" d="M389.57,-71.7C389.57,-63.98 389.57,-54.71 389.57,-46.11"/>
<polygon fill="black" stroke="black" points="393.07,-46.1 389.57,-36.1 386.07,-46.1 393.07,-46.1"/>
</g>
<!-- maskSpecialValues_1_1&#45;&gt;lhsworkspace_1_1 -->
<g id="edge33" class="edge">
<title>maskSpecialValues_1_1&#45;&gt;lhsworkspace_1_1</title>
<path fill="none" stroke="black" d="M903.57,-593.7C903.57,-536.51 903.57,-358.42 903.57,-280.27"/>
<polygon fill="black" stroke="black" points="907.07,-279.93 903.57,-269.93 900.07,-279.93 907.07,-279.93"/>
</g>
<!-- maskSpecialValues_1_1&#45;&gt;weightedMean_1 -->
<g id="edge37" class="edge">
<title>maskSpecialValues_1_1&#45;&gt;weightedMean_1</title>
<path fill="none" stroke="black" d="M916.44,-593.7C957.65,-535.9 1086.9,-354.62 1141.66,-277.81"/>
<polygon fill="black" stroke="black" points="1144.69,-279.59 1147.65,-269.41 1138.99,-275.52 1144.69,-279.59"/>
</g>
<!-- maskSpecialValues_2_1&#45;&gt;multiply_1 -->
<g id="edge34" class="edge">
<title>maskSpecialValues_2_1&#45;&gt;multiply_1</title>
<path fill="none" stroke="black" d="M1419.57,-593.72C1419.57,-545.03 1419.57,-410.54 1419.57,-351.8"/>
<polygon fill="black" stroke="black" points="1423.07,-351.75 1419.57,-341.75 1416.07,-351.75 1423.07,-351.75"/>
</g>
<!-- insertSpecialValues_1&#45;&gt;outputworkspace_1 -->
<g id="edge43" class="edge">
<title>insertSpecialValues_1&#45;&gt;outputworkspace_1</title>
<path fill="none" stroke="black" d="M1166.57,-71.7C1166.57,-63.98 1166.57,-54.71 1166.57,-46.11"/>
<polygon fill="black" stroke="black" points="1170.07,-46.1 1166.57,-36.1 1163.07,-46.1 1170.07,-46.1"/>
</g>
</g>
</svg>
