<?xml version="1.0" encoding="UTF-8" standalone="no"?>
<!DOCTYPE svg PUBLIC "-//W3C//DTD SVG 1.1//EN"
 "http://www.w3.org/Graphics/SVG/1.1/DTD/svg11.dtd">
<!-- Generated by graphviz version 2.47.2 (20210527.1257)
 -->
<!-- Title: Stitch1D Pages: 1 -->
<svg width="1362pt" height="837pt"
 viewBox="0.00 0.00 1361.84 836.74" xmlns="http://www.w3.org/2000/svg" xmlns:xlink="http://www.w3.org/1999/xlink">
<g id="graph0" class="graph" transform="scale(1 1) rotate(0) translate(4 832.74)">
<title>Stitch1D</title>
<polygon fill="white" stroke="transparent" points="-4,4 -4,-832.74 1357.84,-832.74 1357.84,4 -4,4"/>
<text text-anchor="middle" x="676.92" y="-797.54" font-family="Helvetica" font-size="14.00">Stitch1D workflow for histograms &#45; no manual scale factor &#160;&#160;&#160;&#160;&#160;&#160;&#160;&#160;&#160;&#160;&#160;&#160;&#160;&#160;&#160;&#160;&#160;&#160;&#160;&#160;&#160;&#160;&#160;&#160;&#160;&#160;&#160;&#160;&#160;&#160;&#160;&#160;&#160;&#160;&#160;&#160;&#160;&#160;&#160;&#160;&#160;&#160;&#160;&#160;&#160;&#160;&#160;&#160;&#160;&#160;&#160;&#160;&#160;&#160;&#160;&#160;&#160;&#160;&#160;&#160;&#160;&#160;&#160;&#160;&#160;&#160;&#160;&#160;&#160;&#160;&#160;&#160;&#160;&#160;&#160;&#160;&#160;&#160;&#160;&#160;&#160;&#160;&#160;&#160;&#160;&#160;&#160;&#160;&#160;&#160;&#160;&#160;&#160;&#160;&#160;&#160;&#160;&#160;&#160;&#160;&#160;&#160;&#160;&#160;&#160;&#160;&#160;&#160;&#160;&#160;&#160;&#160;&#160;Stitch1D workflow histograms &#45; manual scale factor given</text>
<!-- lhsworkspace -->
<g id="node1" class="node">
<title>lhsworkspace</title>
<ellipse fill="khaki" stroke="black" cx="109.6" cy="-755.74" rx="71.49" ry="18"/>
<text text-anchor="middle" x="109.6" y="-752.04" font-family="Helvetica" font-size="14.00">LHSWorkspace</text>
</g>
<!-- rebin_lhsw -->
<g id="node17" class="node">
<title>rebin_lhsw</title>
<path fill="lightskyblue" stroke="black" d="M124.6,-701.74C124.6,-701.74 94.6,-701.74 94.6,-701.74 88.6,-701.74 82.6,-695.74 82.6,-689.74 82.6,-689.74 82.6,-677.74 82.6,-677.74 82.6,-671.74 88.6,-665.74 94.6,-665.74 94.6,-665.74 124.6,-665.74 124.6,-665.74 130.6,-665.74 136.6,-671.74 136.6,-677.74 136.6,-677.74 136.6,-689.74 136.6,-689.74 136.6,-695.74 130.6,-701.74 124.6,-701.74"/>
<text text-anchor="middle" x="109.6" y="-680.04" font-family="Helvetica" font-size="14.00">Rebin</text>
</g>
<!-- lhsworkspace&#45;&gt;rebin_lhsw -->
<g id="edge1" class="edge">
<title>lhsworkspace&#45;&gt;rebin_lhsw</title>
<path fill="none" stroke="black" d="M109.6,-737.44C109.6,-729.72 109.6,-720.45 109.6,-711.85"/>
<polygon fill="black" stroke="black" points="113.1,-711.84 109.6,-701.84 106.1,-711.84 113.1,-711.84"/>
</g>
<!-- rhsworkspace -->
<g id="node2" class="node">
<title>rhsworkspace</title>
<ellipse fill="khaki" stroke="black" cx="537.6" cy="-755.74" rx="73.39" ry="18"/>
<text text-anchor="middle" x="537.6" y="-752.04" font-family="Helvetica" font-size="14.00">RHSWorkspace</text>
</g>
<!-- rebin_rhsw -->
<g id="node18" class="node">
<title>rebin_rhsw</title>
<path fill="lightskyblue" stroke="black" d="M552.6,-701.74C552.6,-701.74 522.6,-701.74 522.6,-701.74 516.6,-701.74 510.6,-695.74 510.6,-689.74 510.6,-689.74 510.6,-677.74 510.6,-677.74 510.6,-671.74 516.6,-665.74 522.6,-665.74 522.6,-665.74 552.6,-665.74 552.6,-665.74 558.6,-665.74 564.6,-671.74 564.6,-677.74 564.6,-677.74 564.6,-689.74 564.6,-689.74 564.6,-695.74 558.6,-701.74 552.6,-701.74"/>
<text text-anchor="middle" x="537.6" y="-680.04" font-family="Helvetica" font-size="14.00">Rebin</text>
</g>
<!-- rhsworkspace&#45;&gt;rebin_rhsw -->
<g id="edge2" class="edge">
<title>rhsworkspace&#45;&gt;rebin_rhsw</title>
<path fill="none" stroke="black" d="M537.6,-737.44C537.6,-729.72 537.6,-720.45 537.6,-711.85"/>
<polygon fill="black" stroke="black" points="541.1,-711.84 537.6,-701.84 534.1,-711.84 541.1,-711.84"/>
</g>
<!-- params -->
<g id="node3" class="node">
<title>params</title>
<ellipse fill="khaki" stroke="black" cx="322.6" cy="-755.74" rx="41.69" ry="18"/>
<text text-anchor="middle" x="322.6" y="-752.04" font-family="Helvetica" font-size="14.00">Params</text>
</g>
<!-- params&#45;&gt;rebin_lhsw -->
<g id="edge3" class="edge">
<title>params&#45;&gt;rebin_lhsw</title>
<path fill="none" stroke="black" d="M290.25,-744.11C251.55,-731.39 186.9,-710.14 146.35,-696.82"/>
<polygon fill="black" stroke="black" points="147.43,-693.49 136.84,-693.69 145.24,-700.14 147.43,-693.49"/>
</g>
<!-- params&#45;&gt;rebin_rhsw -->
<g id="edge4" class="edge">
<title>params&#45;&gt;rebin_rhsw</title>
<path fill="none" stroke="black" d="M354.79,-744.26C393.86,-731.54 459.59,-710.14 500.68,-696.76"/>
<polygon fill="black" stroke="black" points="501.89,-700.05 510.31,-693.62 499.72,-693.39 501.89,-700.05"/>
</g>
<!-- startOv -->
<g id="node4" class="node">
<title>startOv</title>
<ellipse fill="khaki" stroke="black" cx="256.6" cy="-611.74" rx="60.39" ry="18"/>
<text text-anchor="middle" x="256.6" y="-608.04" font-family="Helvetica" font-size="14.00">StartOverlap</text>
</g>
<!-- integrate_lhsw -->
<g id="node19" class="node">
<title>integrate_lhsw</title>
<path fill="lightskyblue" stroke="black" d="M137.6,-557.74C137.6,-557.74 81.6,-557.74 81.6,-557.74 75.6,-557.74 69.6,-551.74 69.6,-545.74 69.6,-545.74 69.6,-533.74 69.6,-533.74 69.6,-527.74 75.6,-521.74 81.6,-521.74 81.6,-521.74 137.6,-521.74 137.6,-521.74 143.6,-521.74 149.6,-527.74 149.6,-533.74 149.6,-533.74 149.6,-545.74 149.6,-545.74 149.6,-551.74 143.6,-557.74 137.6,-557.74"/>
<text text-anchor="middle" x="109.6" y="-536.04" font-family="Helvetica" font-size="14.00">Integration</text>
</g>
<!-- startOv&#45;&gt;integrate_lhsw -->
<g id="edge9" class="edge">
<title>startOv&#45;&gt;integrate_lhsw</title>
<path fill="none" stroke="black" d="M225.79,-596.07C205.21,-586.27 177.82,-573.22 154.8,-562.26"/>
<polygon fill="black" stroke="black" points="156.09,-559 145.56,-557.86 153.08,-565.32 156.09,-559"/>
</g>
<!-- integrate_rhsw -->
<g id="node20" class="node">
<title>integrate_rhsw</title>
<path fill="lightskyblue" stroke="black" d="M524.6,-557.74C524.6,-557.74 468.6,-557.74 468.6,-557.74 462.6,-557.74 456.6,-551.74 456.6,-545.74 456.6,-545.74 456.6,-533.74 456.6,-533.74 456.6,-527.74 462.6,-521.74 468.6,-521.74 468.6,-521.74 524.6,-521.74 524.6,-521.74 530.6,-521.74 536.6,-527.74 536.6,-533.74 536.6,-533.74 536.6,-545.74 536.6,-545.74 536.6,-551.74 530.6,-557.74 524.6,-557.74"/>
<text text-anchor="middle" x="496.6" y="-536.04" font-family="Helvetica" font-size="14.00">Integration</text>
</g>
<!-- startOv&#45;&gt;integrate_rhsw -->
<g id="edge10" class="edge">
<title>startOv&#45;&gt;integrate_rhsw</title>
<path fill="none" stroke="black" d="M298.13,-598.63C339.42,-586.59 402.77,-568.11 446.75,-555.28"/>
<polygon fill="black" stroke="black" points="447.76,-558.63 456.38,-552.47 445.8,-551.91 447.76,-558.63"/>
</g>
<!-- endOv -->
<g id="node5" class="node">
<title>endOv</title>
<ellipse fill="khaki" stroke="black" cx="392.6" cy="-611.74" rx="57.69" ry="18"/>
<text text-anchor="middle" x="392.6" y="-608.04" font-family="Helvetica" font-size="14.00">EndOverlap</text>
</g>
<!-- endOv&#45;&gt;integrate_lhsw -->
<g id="edge11" class="edge">
<title>endOv&#45;&gt;integrate_lhsw</title>
<path fill="none" stroke="black" d="M348.69,-599.88C297.64,-587.25 213.56,-566.45 159.92,-553.19"/>
<polygon fill="black" stroke="black" points="160.49,-549.72 149.94,-550.72 158.81,-556.52 160.49,-549.72"/>
</g>
<!-- endOv&#45;&gt;integrate_rhsw -->
<g id="edge12" class="edge">
<title>endOv&#45;&gt;integrate_rhsw</title>
<path fill="none" stroke="black" d="M415.68,-595.2C429.39,-585.98 447.03,-574.11 462.33,-563.8"/>
<polygon fill="black" stroke="black" points="464.69,-566.44 471.03,-557.95 460.78,-560.63 464.69,-566.44"/>
</g>
<!-- scaleFactor -->
<g id="node6" class="node">
<title>scaleFactor</title>
<ellipse fill="khaki" stroke="black" cx="464.6" cy="-395.74" rx="72.29" ry="18"/>
<text text-anchor="middle" x="464.6" y="-392.04" font-family="Helvetica" font-size="14.00">OutScaleFactor</text>
</g>
<!-- multiply -->
<g id="node21" class="node">
<title>multiply</title>
<path fill="lightskyblue" stroke="black" d="M584.1,-341.74C584.1,-341.74 545.1,-341.74 545.1,-341.74 539.1,-341.74 533.1,-335.74 533.1,-329.74 533.1,-329.74 533.1,-317.74 533.1,-317.74 533.1,-311.74 539.1,-305.74 545.1,-305.74 545.1,-305.74 584.1,-305.74 584.1,-305.74 590.1,-305.74 596.1,-311.74 596.1,-317.74 596.1,-317.74 596.1,-329.74 596.1,-329.74 596.1,-335.74 590.1,-341.74 584.1,-341.74"/>
<text text-anchor="middle" x="564.6" y="-320.04" font-family="Helvetica" font-size="14.00">Multiply</text>
</g>
<!-- scaleFactor&#45;&gt;multiply -->
<g id="edge17" class="edge">
<title>scaleFactor&#45;&gt;multiply</title>
<path fill="none" stroke="black" d="M487.79,-378.5C500.91,-369.32 517.53,-357.69 531.95,-347.6"/>
<polygon fill="black" stroke="black" points="533.95,-350.47 540.14,-341.86 529.94,-344.73 533.95,-350.47"/>
</g>
<!-- lhsworkspace_o -->
<g id="node7" class="node">
<title>lhsworkspace_o</title>
<ellipse fill="khaki" stroke="black" cx="109.6" cy="-242.87" rx="109.7" ry="26.74"/>
<text text-anchor="middle" x="109.6" y="-246.67" font-family="Helvetica" font-size="14.00">LHSWorkspace</text>
<text text-anchor="middle" x="109.6" y="-231.67" font-family="Helvetica" font-size="14.00">([StartX, StartOverlap])</text>
</g>
<!-- plus -->
<g id="node24" class="node">
<title>plus</title>
<path fill="lightskyblue" stroke="black" d="M355.6,-180C355.6,-180 325.6,-180 325.6,-180 319.6,-180 313.6,-174 313.6,-168 313.6,-168 313.6,-156 313.6,-156 313.6,-150 319.6,-144 325.6,-144 325.6,-144 355.6,-144 355.6,-144 361.6,-144 367.6,-150 367.6,-156 367.6,-156 367.6,-168 367.6,-168 367.6,-174 361.6,-180 355.6,-180"/>
<text text-anchor="middle" x="340.6" y="-158.3" font-family="Helvetica" font-size="14.00">Plus</text>
</g>
<!-- lhsworkspace_o&#45;&gt;plus -->
<g id="edge19" class="edge">
<title>lhsworkspace_o&#45;&gt;plus</title>
<path fill="none" stroke="black" d="M171.81,-220.63C214.07,-206.2 268.53,-187.61 303.99,-175.5"/>
<polygon fill="black" stroke="black" points="305.13,-178.81 313.46,-172.27 302.86,-172.19 305.13,-178.81"/>
</g>
<!-- rhsworkspace_o -->
<g id="node8" class="node">
<title>rhsworkspace_o</title>
<ellipse fill="khaki" stroke="black" cx="564.6" cy="-242.87" rx="103.48" ry="26.74"/>
<text text-anchor="middle" x="564.6" y="-246.67" font-family="Helvetica" font-size="14.00">RHSWorkspace</text>
<text text-anchor="middle" x="564.6" y="-231.67" font-family="Helvetica" font-size="14.00">([EndOverlap, EndX])</text>
</g>
<!-- lhsworkspace_1_1 -->
<g id="node14" class="node">
<title>lhsworkspace_1_1</title>
<ellipse fill="khaki" stroke="black" cx="795.6" cy="-242.87" rx="109.7" ry="26.74"/>
<text text-anchor="middle" x="795.6" y="-246.67" font-family="Helvetica" font-size="14.00">LHSWorkspace</text>
<text text-anchor="middle" x="795.6" y="-231.67" font-family="Helvetica" font-size="14.00">([StartX, StartOverlap])</text>
</g>
<!-- rhsworkspace_o&#45;&gt;lhsworkspace_1_1 -->
<!-- rhsworkspace_o&#45;&gt;plus -->
<g id="edge24" class="edge">
<title>rhsworkspace_o&#45;&gt;plus</title>
<path fill="none" stroke="black" d="M504.87,-220.84C464.29,-206.55 411.91,-188.11 377.34,-175.94"/>
<polygon fill="black" stroke="black" points="378.25,-172.54 367.65,-172.52 375.92,-179.15 378.25,-172.54"/>
</g>
<!-- outputworkspace -->
<g id="node9" class="node">
<title>outputworkspace</title>
<ellipse fill="khaki" stroke="black" cx="340.6" cy="-18" rx="81.49" ry="18"/>
<text text-anchor="middle" x="340.6" y="-14.3" font-family="Helvetica" font-size="14.00">OutputWorkspace</text>
</g>
<!-- lhsworkspace_1 -->
<g id="node10" class="node">
<title>lhsworkspace_1</title>
<ellipse fill="khaki" stroke="black" cx="795.6" cy="-755.74" rx="71.49" ry="18"/>
<text text-anchor="middle" x="795.6" y="-752.04" font-family="Helvetica" font-size="14.00">LHSWorkspace</text>
</g>
<!-- rebin_lhsw_1 -->
<g id="node25" class="node">
<title>rebin_lhsw_1</title>
<path fill="lightskyblue" stroke="black" d="M810.6,-701.74C810.6,-701.74 780.6,-701.74 780.6,-701.74 774.6,-701.74 768.6,-695.74 768.6,-689.74 768.6,-689.74 768.6,-677.74 768.6,-677.74 768.6,-671.74 774.6,-665.74 780.6,-665.74 780.6,-665.74 810.6,-665.74 810.6,-665.74 816.6,-665.74 822.6,-671.74 822.6,-677.74 822.6,-677.74 822.6,-689.74 822.6,-689.74 822.6,-695.74 816.6,-701.74 810.6,-701.74"/>
<text text-anchor="middle" x="795.6" y="-680.04" font-family="Helvetica" font-size="14.00">Rebin</text>
</g>
<!-- lhsworkspace_1&#45;&gt;rebin_lhsw_1 -->
<g id="edge27" class="edge">
<title>lhsworkspace_1&#45;&gt;rebin_lhsw_1</title>
<path fill="none" stroke="black" d="M795.6,-737.44C795.6,-729.72 795.6,-720.45 795.6,-711.85"/>
<polygon fill="black" stroke="black" points="799.1,-711.84 795.6,-701.84 792.1,-711.84 799.1,-711.84"/>
</g>
<!-- rhsworkspace_1 -->
<g id="node11" class="node">
<title>rhsworkspace_1</title>
<ellipse fill="khaki" stroke="black" cx="1250.6" cy="-755.74" rx="73.39" ry="18"/>
<text text-anchor="middle" x="1250.6" y="-752.04" font-family="Helvetica" font-size="14.00">RHSWorkspace</text>
</g>
<!-- rebin_rhsw_1 -->
<g id="node26" class="node">
<title>rebin_rhsw_1</title>
<path fill="lightskyblue" stroke="black" d="M1265.6,-701.74C1265.6,-701.74 1235.6,-701.74 1235.6,-701.74 1229.6,-701.74 1223.6,-695.74 1223.6,-689.74 1223.6,-689.74 1223.6,-677.74 1223.6,-677.74 1223.6,-671.74 1229.6,-665.74 1235.6,-665.74 1235.6,-665.74 1265.6,-665.74 1265.6,-665.74 1271.6,-665.74 1277.6,-671.74 1277.6,-677.74 1277.6,-677.74 1277.6,-689.74 1277.6,-689.74 1277.6,-695.74 1271.6,-701.74 1265.6,-701.74"/>
<text text-anchor="middle" x="1250.6" y="-680.04" font-family="Helvetica" font-size="14.00">Rebin</text>
</g>
<!-- rhsworkspace_1&#45;&gt;rebin_rhsw_1 -->
<g id="edge28" class="edge">
<title>rhsworkspace_1&#45;&gt;rebin_rhsw_1</title>
<path fill="none" stroke="black" d="M1250.6,-737.44C1250.6,-729.72 1250.6,-720.45 1250.6,-711.85"/>
<polygon fill="black" stroke="black" points="1254.1,-711.84 1250.6,-701.84 1247.1,-711.84 1254.1,-711.84"/>
</g>
<!-- params_1 -->
<g id="node12" class="node">
<title>params_1</title>
<ellipse fill="khaki" stroke="black" cx="1022.6" cy="-755.74" rx="41.69" ry="18"/>
<text text-anchor="middle" x="1022.6" y="-752.04" font-family="Helvetica" font-size="14.00">Params</text>
</g>
<!-- params_1&#45;&gt;rebin_lhsw_1 -->
<g id="edge29" class="edge">
<title>params_1&#45;&gt;rebin_lhsw_1</title>
<path fill="none" stroke="black" d="M989.59,-744.56C947.73,-731.65 875.76,-709.46 832.23,-696.04"/>
<polygon fill="black" stroke="black" points="833.19,-692.67 822.61,-693.07 831.13,-699.36 833.19,-692.67"/>
</g>
<!-- params_1&#45;&gt;rebin_rhsw_1 -->
<g id="edge30" class="edge">
<title>params_1&#45;&gt;rebin_rhsw_1</title>
<path fill="none" stroke="black" d="M1055.75,-744.56C1097.81,-731.65 1170.09,-709.46 1213.81,-696.04"/>
<polygon fill="black" stroke="black" points="1214.94,-699.35 1223.48,-693.07 1212.89,-692.66 1214.94,-699.35"/>
</g>
<!-- scaleFactor_in -->
<g id="node13" class="node">
<title>scaleFactor_in</title>
<ellipse fill="khaki" stroke="black" cx="1135.6" cy="-395.74" rx="87.18" ry="18"/>
<text text-anchor="middle" x="1135.6" y="-392.04" font-family="Helvetica" font-size="14.00">ManualScaleFactor</text>
</g>
<!-- multiply_1 -->
<g id="node27" class="node">
<title>multiply_1</title>
<path fill="lightskyblue" stroke="black" d="M1270.1,-341.74C1270.1,-341.74 1231.1,-341.74 1231.1,-341.74 1225.1,-341.74 1219.1,-335.74 1219.1,-329.74 1219.1,-329.74 1219.1,-317.74 1219.1,-317.74 1219.1,-311.74 1225.1,-305.74 1231.1,-305.74 1231.1,-305.74 1270.1,-305.74 1270.1,-305.74 1276.1,-305.74 1282.1,-311.74 1282.1,-317.74 1282.1,-317.74 1282.1,-329.74 1282.1,-329.74 1282.1,-335.74 1276.1,-341.74 1270.1,-341.74"/>
<text text-anchor="middle" x="1250.6" y="-320.04" font-family="Helvetica" font-size="14.00">Multiply</text>
</g>
<!-- scaleFactor_in&#45;&gt;multiply_1 -->
<g id="edge35" class="edge">
<title>scaleFactor_in&#45;&gt;multiply_1</title>
<path fill="none" stroke="black" d="M1162.27,-378.5C1177.5,-369.24 1196.82,-357.47 1213.51,-347.32"/>
<polygon fill="black" stroke="black" points="1215.75,-350.05 1222.47,-341.86 1212.11,-344.07 1215.75,-350.05"/>
</g>
<!-- plus_1 -->
<g id="node29" class="node">
<title>plus_1</title>
<path fill="lightskyblue" stroke="black" d="M1041.6,-180C1041.6,-180 1011.6,-180 1011.6,-180 1005.6,-180 999.6,-174 999.6,-168 999.6,-168 999.6,-156 999.6,-156 999.6,-150 1005.6,-144 1011.6,-144 1011.6,-144 1041.6,-144 1041.6,-144 1047.6,-144 1053.6,-150 1053.6,-156 1053.6,-156 1053.6,-168 1053.6,-168 1053.6,-174 1047.6,-180 1041.6,-180"/>
<text text-anchor="middle" x="1026.6" y="-158.3" font-family="Helvetica" font-size="14.00">Plus</text>
</g>
<!-- lhsworkspace_1_1&#45;&gt;plus_1 -->
<g id="edge38" class="edge">
<title>lhsworkspace_1_1&#45;&gt;plus_1</title>
<path fill="none" stroke="black" d="M857.81,-220.63C900.07,-206.2 954.53,-187.61 989.99,-175.5"/>
<polygon fill="black" stroke="black" points="991.13,-178.81 999.46,-172.27 988.86,-172.19 991.13,-178.81"/>
</g>
<!-- rhsworkspace_1_1 -->
<g id="node15" class="node">
<title>rhsworkspace_1_1</title>
<ellipse fill="khaki" stroke="black" cx="1250.6" cy="-242.87" rx="103.48" ry="26.74"/>
<text text-anchor="middle" x="1250.6" y="-246.67" font-family="Helvetica" font-size="14.00">RHSWorkspace</text>
<text text-anchor="middle" x="1250.6" y="-231.67" font-family="Helvetica" font-size="14.00">([EndOverlap, EndX])</text>
</g>
<!-- rhsworkspace_1_1&#45;&gt;plus_1 -->
<g id="edge41" class="edge">
<title>rhsworkspace_1_1&#45;&gt;plus_1</title>
<path fill="none" stroke="black" d="M1190.87,-220.84C1150.29,-206.55 1097.91,-188.11 1063.34,-175.94"/>
<polygon fill="black" stroke="black" points="1064.25,-172.54 1053.65,-172.52 1061.92,-179.15 1064.25,-172.54"/>
</g>
<!-- outputworkspace_1 -->
<g id="node16" class="node">
<title>outputworkspace_1</title>
<ellipse fill="khaki" stroke="black" cx="1026.6" cy="-18" rx="81.49" ry="18"/>
<text text-anchor="middle" x="1026.6" y="-14.3" font-family="Helvetica" font-size="14.00">OutputWorkspace</text>
</g>
<!-- maskSpecialValues_1 -->
<g id="node30" class="node">
<title>maskSpecialValues_1</title>
<polygon fill="lightseagreen" stroke="black" points="178.6,-629.74 40.6,-629.74 40.6,-593.74 178.6,-593.74 178.6,-629.74"/>
<text text-anchor="middle" x="109.6" y="-608.04" font-family="Helvetica" font-size="14.00">Mask special values</text>
</g>
<!-- rebin_lhsw&#45;&gt;maskSpecialValues_1 -->
<g id="edge5" class="edge">
<title>rebin_lhsw&#45;&gt;maskSpecialValues_1</title>
<path fill="none" stroke="black" d="M109.6,-665.44C109.6,-657.72 109.6,-648.45 109.6,-639.85"/>
<polygon fill="black" stroke="black" points="113.1,-639.84 109.6,-629.84 106.1,-639.84 113.1,-639.84"/>
</g>
<!-- maskSpecialValues_2 -->
<g id="node31" class="node">
<title>maskSpecialValues_2</title>
<polygon fill="lightseagreen" stroke="black" points="606.6,-629.74 468.6,-629.74 468.6,-593.74 606.6,-593.74 606.6,-629.74"/>
<text text-anchor="middle" x="537.6" y="-608.04" font-family="Helvetica" font-size="14.00">Mask special values</text>
</g>
<!-- rebin_rhsw&#45;&gt;maskSpecialValues_2 -->
<g id="edge6" class="edge">
<title>rebin_rhsw&#45;&gt;maskSpecialValues_2</title>
<path fill="none" stroke="black" d="M537.6,-665.44C537.6,-657.72 537.6,-648.45 537.6,-639.85"/>
<polygon fill="black" stroke="black" points="541.1,-639.84 537.6,-629.84 534.1,-639.84 541.1,-639.84"/>
</g>
<!-- integrate_lhsw&#45;&gt;lhsworkspace_o -->
<g id="edge13" class="edge">
<title>integrate_lhsw&#45;&gt;lhsworkspace_o</title>
<path fill="none" stroke="black" d="M109.6,-521.62C109.6,-473.92 109.6,-344.15 109.6,-279.92"/>
<polygon fill="black" stroke="black" points="113.1,-279.82 109.6,-269.82 106.1,-279.82 113.1,-279.82"/>
</g>
<!-- divideScaleFactor -->
<g id="node23" class="node">
<title>divideScaleFactor</title>
<path fill="lightskyblue" stroke="black" d="M479.6,-485.74C479.6,-485.74 449.6,-485.74 449.6,-485.74 443.6,-485.74 437.6,-479.74 437.6,-473.74 437.6,-473.74 437.6,-461.74 437.6,-461.74 437.6,-455.74 443.6,-449.74 449.6,-449.74 449.6,-449.74 479.6,-449.74 479.6,-449.74 485.6,-449.74 491.6,-455.74 491.6,-461.74 491.6,-461.74 491.6,-473.74 491.6,-473.74 491.6,-479.74 485.6,-485.74 479.6,-485.74"/>
<text text-anchor="middle" x="464.6" y="-464.04" font-family="Helvetica" font-size="14.00">Divide</text>
</g>
<!-- integrate_lhsw&#45;&gt;divideScaleFactor -->
<g id="edge14" class="edge">
<title>integrate_lhsw&#45;&gt;divideScaleFactor</title>
<path fill="none" stroke="black" d="M149.63,-530.85C218.83,-517.2 359.83,-489.4 427.17,-476.12"/>
<polygon fill="black" stroke="black" points="428.19,-479.49 437.33,-474.12 426.84,-472.62 428.19,-479.49"/>
</g>
<!-- integrate_rhsw&#45;&gt;divideScaleFactor -->
<g id="edge15" class="edge">
<title>integrate_rhsw&#45;&gt;divideScaleFactor</title>
<path fill="none" stroke="black" d="M488.69,-521.44C485.05,-513.47 480.65,-503.84 476.61,-495"/>
<polygon fill="black" stroke="black" points="479.76,-493.48 472.42,-485.84 473.4,-496.39 479.76,-493.48"/>
</g>
<!-- multiply&#45;&gt;rhsworkspace_o -->
<g id="edge23" class="edge">
<title>multiply&#45;&gt;rhsworkspace_o</title>
<path fill="none" stroke="black" d="M564.6,-305.63C564.6,-298.14 564.6,-289.05 564.6,-280.17"/>
<polygon fill="black" stroke="black" points="568.1,-279.95 564.6,-269.95 561.1,-279.95 568.1,-279.95"/>
</g>
<!-- weightedMean -->
<g id="node22" class="node">
<title>weightedMean</title>
<path fill="lightskyblue" stroke="black" d="M431.6,-269.37C431.6,-269.37 249.6,-269.37 249.6,-269.37 243.6,-269.37 237.6,-263.37 237.6,-257.37 237.6,-257.37 237.6,-228.37 237.6,-228.37 237.6,-222.37 243.6,-216.37 249.6,-216.37 249.6,-216.37 431.6,-216.37 431.6,-216.37 437.6,-216.37 443.6,-222.37 443.6,-228.37 443.6,-228.37 443.6,-257.37 443.6,-257.37 443.6,-263.37 437.6,-269.37 431.6,-269.37"/>
<text text-anchor="middle" x="340.6" y="-254.17" font-family="Helvetica" font-size="14.00">WeightedMean or</text>
<text text-anchor="middle" x="340.6" y="-239.17" font-family="Helvetica" font-size="14.00">Unweighted mean if zero errors</text>
<text text-anchor="middle" x="340.6" y="-224.17" font-family="Helvetica" font-size="14.00">([StartOverlap, EndOverlap])</text>
</g>
<!-- multiply&#45;&gt;weightedMean -->
<g id="edge20" class="edge">
<title>multiply&#45;&gt;weightedMean</title>
<path fill="none" stroke="black" d="M532.98,-311.61C504.41,-301.55 461.09,-286.29 422.78,-272.81"/>
<polygon fill="black" stroke="black" points="423.76,-269.44 413.16,-269.42 421.43,-276.04 423.76,-269.44"/>
</g>
<!-- weightedMean&#45;&gt;plus -->
<g id="edge22" class="edge">
<title>weightedMean&#45;&gt;plus</title>
<path fill="none" stroke="black" d="M340.6,-216.05C340.6,-207.92 340.6,-198.92 340.6,-190.68"/>
<polygon fill="black" stroke="black" points="344.1,-190.41 340.6,-180.41 337.1,-190.41 344.1,-190.41"/>
</g>
<!-- divideScaleFactor&#45;&gt;scaleFactor -->
<g id="edge16" class="edge">
<title>divideScaleFactor&#45;&gt;scaleFactor</title>
<path fill="none" stroke="black" d="M464.6,-449.44C464.6,-441.72 464.6,-432.45 464.6,-423.85"/>
<polygon fill="black" stroke="black" points="468.1,-423.84 464.6,-413.84 461.1,-423.84 468.1,-423.84"/>
</g>
<!-- insertSpecialValues -->
<g id="node32" class="node">
<title>insertSpecialValues</title>
<polygon fill="lightseagreen" stroke="black" points="418.1,-108 263.1,-108 263.1,-72 418.1,-72 418.1,-108"/>
<text text-anchor="middle" x="340.6" y="-86.3" font-family="Helvetica" font-size="14.00">Reinsert special values</text>
</g>
<!-- plus&#45;&gt;insertSpecialValues -->
<g id="edge25" class="edge">
<title>plus&#45;&gt;insertSpecialValues</title>
<path fill="none" stroke="black" d="M340.6,-143.7C340.6,-135.98 340.6,-126.71 340.6,-118.11"/>
<polygon fill="black" stroke="black" points="344.1,-118.1 340.6,-108.1 337.1,-118.1 344.1,-118.1"/>
</g>
<!-- maskSpecialValues_1_1 -->
<g id="node33" class="node">
<title>maskSpecialValues_1_1</title>
<polygon fill="lightseagreen" stroke="black" points="864.6,-629.74 726.6,-629.74 726.6,-593.74 864.6,-593.74 864.6,-629.74"/>
<text text-anchor="middle" x="795.6" y="-608.04" font-family="Helvetica" font-size="14.00">Mask special values</text>
</g>
<!-- rebin_lhsw_1&#45;&gt;maskSpecialValues_1_1 -->
<g id="edge31" class="edge">
<title>rebin_lhsw_1&#45;&gt;maskSpecialValues_1_1</title>
<path fill="none" stroke="black" d="M795.6,-665.44C795.6,-657.72 795.6,-648.45 795.6,-639.85"/>
<polygon fill="black" stroke="black" points="799.1,-639.84 795.6,-629.84 792.1,-639.84 799.1,-639.84"/>
</g>
<!-- maskSpecialValues_2_1 -->
<g id="node34" class="node">
<title>maskSpecialValues_2_1</title>
<polygon fill="lightseagreen" stroke="black" points="1319.6,-629.74 1181.6,-629.74 1181.6,-593.74 1319.6,-593.74 1319.6,-629.74"/>
<text text-anchor="middle" x="1250.6" y="-608.04" font-family="Helvetica" font-size="14.00">Mask special values</text>
</g>
<!-- rebin_rhsw_1&#45;&gt;maskSpecialValues_2_1 -->
<g id="edge32" class="edge">
<title>rebin_rhsw_1&#45;&gt;maskSpecialValues_2_1</title>
<path fill="none" stroke="black" d="M1250.6,-665.44C1250.6,-657.72 1250.6,-648.45 1250.6,-639.85"/>
<polygon fill="black" stroke="black" points="1254.1,-639.84 1250.6,-629.84 1247.1,-639.84 1254.1,-639.84"/>
</g>
<!-- multiply_1&#45;&gt;rhsworkspace_1_1 -->
<g id="edge40" class="edge">
<title>multiply_1&#45;&gt;rhsworkspace_1_1</title>
<path fill="none" stroke="black" d="M1250.6,-305.63C1250.6,-298.14 1250.6,-289.05 1250.6,-280.17"/>
<polygon fill="black" stroke="black" points="1254.1,-279.95 1250.6,-269.95 1247.1,-279.95 1254.1,-279.95"/>
</g>
<!-- weightedMean_1 -->
<g id="node28" class="node">
<title>weightedMean_1</title>
<path fill="lightskyblue" stroke="black" d="M1117.6,-269.37C1117.6,-269.37 935.6,-269.37 935.6,-269.37 929.6,-269.37 923.6,-263.37 923.6,-257.37 923.6,-257.37 923.6,-228.37 923.6,-228.37 923.6,-222.37 929.6,-216.37 935.6,-216.37 935.6,-216.37 1117.6,-216.37 1117.6,-216.37 1123.6,-216.37 1129.6,-222.37 1129.6,-228.37 1129.6,-228.37 1129.6,-257.37 1129.6,-257.37 1129.6,-263.37 1123.6,-269.37 1117.6,-269.37"/>
<text text-anchor="middle" x="1026.6" y="-254.17" font-family="Helvetica" font-size="14.00">WeightedMean or</text>
<text text-anchor="middle" x="1026.6" y="-239.17" font-family="Helvetica" font-size="14.00">Unweighted mean if zero errors</text>
<text text-anchor="middle" x="1026.6" y="-224.17" font-family="Helvetica" font-size="14.00">([StartOverlap, EndOverlap])</text>
</g>
<!-- multiply_1&#45;&gt;weightedMean_1 -->
<g id="edge36" class="edge">
<title>multiply_1&#45;&gt;weightedMean_1</title>
<path fill="none" stroke="black" d="M1218.98,-311.61C1190.41,-301.55 1147.09,-286.29 1108.78,-272.81"/>
<polygon fill="black" stroke="black" points="1109.76,-269.44 1099.16,-269.42 1107.43,-276.04 1109.76,-269.44"/>
</g>
<!-- weightedMean_1&#45;&gt;plus_1 -->
<g id="edge39" class="edge">
<title>weightedMean_1&#45;&gt;plus_1</title>
<path fill="none" stroke="black" d="M1026.6,-216.05C1026.6,-207.92 1026.6,-198.92 1026.6,-190.68"/>
<polygon fill="black" stroke="black" points="1030.1,-190.41 1026.6,-180.41 1023.1,-190.41 1030.1,-190.41"/>
</g>
<!-- insertSpecialValues_1 -->
<g id="node35" class="node">
<title>insertSpecialValues_1</title>
<polygon fill="lightseagreen" stroke="black" points="1104.1,-108 949.1,-108 949.1,-72 1104.1,-72 1104.1,-108"/>
<text text-anchor="middle" x="1026.6" y="-86.3" font-family="Helvetica" font-size="14.00">Reinsert special values</text>
</g>
<!-- plus_1&#45;&gt;insertSpecialValues_1 -->
<g id="edge42" class="edge">
<title>plus_1&#45;&gt;insertSpecialValues_1</title>
<path fill="none" stroke="black" d="M1026.6,-143.7C1026.6,-135.98 1026.6,-126.71 1026.6,-118.11"/>
<polygon fill="black" stroke="black" points="1030.1,-118.1 1026.6,-108.1 1023.1,-118.1 1030.1,-118.1"/>
</g>
<!-- maskSpecialValues_1&#45;&gt;integrate_lhsw -->
<g id="edge7" class="edge">
<title>maskSpecialValues_1&#45;&gt;integrate_lhsw</title>
<path fill="none" stroke="black" d="M109.6,-593.44C109.6,-585.72 109.6,-576.45 109.6,-567.85"/>
<polygon fill="black" stroke="black" points="113.1,-567.84 109.6,-557.84 106.1,-567.84 113.1,-567.84"/>
</g>
<!-- maskSpecialValues_1&#45;&gt;weightedMean -->
<g id="edge21" class="edge">
<title>maskSpecialValues_1&#45;&gt;weightedMean</title>
<path fill="none" stroke="black" d="M120.9,-593.7C157.02,-536.02 270.16,-355.36 318.43,-278.28"/>
<polygon fill="black" stroke="black" points="321.64,-279.74 323.98,-269.41 315.71,-276.03 321.64,-279.74"/>
</g>
<!-- maskSpecialValues_2&#45;&gt;integrate_rhsw -->
<g id="edge8" class="edge">
<title>maskSpecialValues_2&#45;&gt;integrate_rhsw</title>
<path fill="none" stroke="black" d="M527.47,-593.44C522.75,-585.38 517.04,-575.63 511.82,-566.72"/>
<polygon fill="black" stroke="black" points="514.69,-564.7 506.62,-557.84 508.65,-568.24 514.69,-564.7"/>
</g>
<!-- maskSpecialValues_2&#45;&gt;multiply -->
<g id="edge18" class="edge">
<title>maskSpecialValues_2&#45;&gt;multiply</title>
<path fill="none" stroke="black" d="M539.29,-593.72C543.86,-545.03 556.46,-410.54 561.97,-351.8"/>
<polygon fill="black" stroke="black" points="565.46,-352.03 562.91,-341.75 558.5,-351.38 565.46,-352.03"/>
</g>
<!-- insertSpecialValues&#45;&gt;outputworkspace -->
<g id="edge26" class="edge">
<title>insertSpecialValues&#45;&gt;outputworkspace</title>
<path fill="none" stroke="black" d="M340.6,-71.7C340.6,-63.98 340.6,-54.71 340.6,-46.11"/>
<polygon fill="black" stroke="black" points="344.1,-46.1 340.6,-36.1 337.1,-46.1 344.1,-46.1"/>
</g>
<!-- maskSpecialValues_1_1&#45;&gt;lhsworkspace_1_1 -->
<g id="edge33" class="edge">
<title>maskSpecialValues_1_1&#45;&gt;lhsworkspace_1_1</title>
<path fill="none" stroke="black" d="M795.6,-593.7C795.6,-536.51 795.6,-358.42 795.6,-280.27"/>
<polygon fill="black" stroke="black" points="799.1,-279.93 795.6,-269.93 792.1,-279.93 799.1,-279.93"/>
</g>
<!-- maskSpecialValues_1_1&#45;&gt;weightedMean_1 -->
<g id="edge37" class="edge">
<title>maskSpecialValues_1_1&#45;&gt;weightedMean_1</title>
<path fill="none" stroke="black" d="M806.9,-593.7C843.02,-536.02 956.16,-355.36 1004.43,-278.28"/>
<polygon fill="black" stroke="black" points="1007.64,-279.74 1009.98,-269.41 1001.71,-276.03 1007.64,-279.74"/>
</g>
<!-- maskSpecialValues_2_1&#45;&gt;multiply_1 -->
<g id="edge34" class="edge">
<title>maskSpecialValues_2_1&#45;&gt;multiply_1</title>
<path fill="none" stroke="black" d="M1250.6,-593.72C1250.6,-545.03 1250.6,-410.54 1250.6,-351.8"/>
<polygon fill="black" stroke="black" points="1254.1,-351.75 1250.6,-341.75 1247.1,-351.75 1254.1,-351.75"/>
</g>
<!-- insertSpecialValues_1&#45;&gt;outputworkspace_1 -->
<g id="edge43" class="edge">
<title>insertSpecialValues_1&#45;&gt;outputworkspace_1</title>
<path fill="none" stroke="black" d="M1026.6,-71.7C1026.6,-63.98 1026.6,-54.71 1026.6,-46.11"/>
<polygon fill="black" stroke="black" points="1030.1,-46.1 1026.6,-36.1 1023.1,-46.1 1030.1,-46.1"/>
</g>
</g>
</svg>
