<?xml version="1.0" encoding="UTF-8" standalone="no"?>
<!DOCTYPE svg PUBLIC "-//W3C//DTD SVG 1.1//EN"
 "http://www.w3.org/Graphics/SVG/1.1/DTD/svg11.dtd">
<!-- Generated by graphviz version 7.0.5 (20221231.0122)
 -->
<!-- Title: Stitch1D Pages: 1 -->
<svg width="1544pt" height="837pt"
 viewBox="0.00 0.00 1544.24 836.74" xmlns="http://www.w3.org/2000/svg" xmlns:xlink="http://www.w3.org/1999/xlink">
<g id="graph0" class="graph" transform="scale(1 1) rotate(0) translate(4 832.74)">
<title>Stitch1D</title>
<polygon fill="white" stroke="none" points="-4,4 -4,-832.74 1540.24,-832.74 1540.24,4 -4,4"/>
<text text-anchor="middle" x="768.12" y="-797.54" font-family="Helvetica,sans-Serif" font-size="14.00">Stitch1D workflow for histograms &#45; no manual scale factor &#160;&#160;&#160;&#160;&#160;&#160;&#160;&#160;&#160;&#160;&#160;&#160;&#160;&#160;&#160;&#160;&#160;&#160;&#160;&#160;&#160;&#160;&#160;&#160;&#160;&#160;&#160;&#160;&#160;&#160;&#160;&#160;&#160;&#160;&#160;&#160;&#160;&#160;&#160;&#160;&#160;&#160;&#160;&#160;&#160;&#160;&#160;&#160;&#160;&#160;&#160;&#160;&#160;&#160;&#160;&#160;&#160;&#160;&#160;&#160;&#160;&#160;&#160;&#160;&#160;&#160;&#160;&#160;&#160;&#160;&#160;&#160;&#160;&#160;&#160;&#160;&#160;&#160;&#160;&#160;&#160;&#160;&#160;&#160;&#160;&#160;&#160;&#160;&#160;&#160;&#160;&#160;&#160;&#160;&#160;&#160;&#160;&#160;&#160;&#160;&#160;&#160;&#160;&#160;&#160;&#160;&#160;&#160;&#160;&#160;&#160;&#160;&#160;Stitch1D workflow histograms &#45; manual scale factor given</text>
<!-- lhsworkspace -->
<g id="node1" class="node">
<title>lhsworkspace</title>
<ellipse fill="khaki" stroke="black" cx="126.57" cy="-755.74" rx="77.99" ry="18"/>
<text text-anchor="middle" x="126.57" y="-752.04" font-family="Helvetica,sans-Serif" font-size="14.00">LHSWorkspace</text>
</g>
<!-- rebin_lhsw -->
<g id="node17" class="node">
<title>rebin_lhsw</title>
<path fill="lightskyblue" stroke="black" d="M142.57,-701.74C142.57,-701.74 110.57,-701.74 110.57,-701.74 104.57,-701.74 98.57,-695.74 98.57,-689.74 98.57,-689.74 98.57,-677.74 98.57,-677.74 98.57,-671.74 104.57,-665.74 110.57,-665.74 110.57,-665.74 142.57,-665.74 142.57,-665.74 148.57,-665.74 154.57,-671.74 154.57,-677.74 154.57,-677.74 154.57,-689.74 154.57,-689.74 154.57,-695.74 148.57,-701.74 142.57,-701.74"/>
<text text-anchor="middle" x="126.57" y="-680.04" font-family="Helvetica,sans-Serif" font-size="14.00">Rebin</text>
</g>
<!-- lhsworkspace&#45;&gt;rebin_lhsw -->
<g id="edge1" class="edge">
<title>lhsworkspace&#45;&gt;rebin_lhsw</title>
<path fill="none" stroke="black" d="M126.57,-737.44C126.57,-730.15 126.57,-721.47 126.57,-713.28"/>
<polygon fill="black" stroke="black" points="130.07,-713.36 126.57,-703.36 123.07,-713.36 130.07,-713.36"/>
</g>
<!-- rhsworkspace -->
<g id="node2" class="node">
<title>rhsworkspace</title>
<ellipse fill="khaki" stroke="black" cx="599.57" cy="-755.74" rx="79.09" ry="18"/>
<text text-anchor="middle" x="599.57" y="-752.04" font-family="Helvetica,sans-Serif" font-size="14.00">RHSWorkspace</text>
</g>
<!-- rebin_rhsw -->
<g id="node18" class="node">
<title>rebin_rhsw</title>
<path fill="lightskyblue" stroke="black" d="M615.57,-701.74C615.57,-701.74 583.57,-701.74 583.57,-701.74 577.57,-701.74 571.57,-695.74 571.57,-689.74 571.57,-689.74 571.57,-677.74 571.57,-677.74 571.57,-671.74 577.57,-665.74 583.57,-665.74 583.57,-665.74 615.57,-665.74 615.57,-665.74 621.57,-665.74 627.57,-671.74 627.57,-677.74 627.57,-677.74 627.57,-689.74 627.57,-689.74 627.57,-695.74 621.57,-701.74 615.57,-701.74"/>
<text text-anchor="middle" x="599.57" y="-680.04" font-family="Helvetica,sans-Serif" font-size="14.00">Rebin</text>
</g>
<!-- rhsworkspace&#45;&gt;rebin_rhsw -->
<g id="edge2" class="edge">
<title>rhsworkspace&#45;&gt;rebin_rhsw</title>
<path fill="none" stroke="black" d="M599.57,-737.44C599.57,-730.15 599.57,-721.47 599.57,-713.28"/>
<polygon fill="black" stroke="black" points="603.07,-713.36 599.57,-703.36 596.07,-713.36 603.07,-713.36"/>
</g>
<!-- params -->
<g id="node3" class="node">
<title>params</title>
<ellipse fill="khaki" stroke="black" cx="362.57" cy="-755.74" rx="44.39" ry="18"/>
<text text-anchor="middle" x="362.57" y="-752.04" font-family="Helvetica,sans-Serif" font-size="14.00">Params</text>
</g>
<!-- params&#45;&gt;rebin_lhsw -->
<g id="edge3" class="edge">
<title>params&#45;&gt;rebin_lhsw</title>
<path fill="none" stroke="black" d="M327.5,-744.34C284.17,-731.49 210.69,-709.69 165.62,-696.32"/>
<polygon fill="black" stroke="black" points="166.84,-693.03 156.25,-693.54 164.85,-699.74 166.84,-693.03"/>
</g>
<!-- params&#45;&gt;rebin_rhsw -->
<g id="edge4" class="edge">
<title>params&#45;&gt;rebin_rhsw</title>
<path fill="none" stroke="black" d="M397.8,-744.34C441.31,-731.49 515.1,-709.69 560.36,-696.32"/>
<polygon fill="black" stroke="black" points="561.17,-699.73 569.77,-693.54 559.19,-693.02 561.17,-699.73"/>
</g>
<!-- startOv -->
<g id="node4" class="node">
<title>startOv</title>
<ellipse fill="khaki" stroke="black" cx="290.57" cy="-611.74" rx="68.49" ry="18"/>
<text text-anchor="middle" x="290.57" y="-608.04" font-family="Helvetica,sans-Serif" font-size="14.00">StartOverlap</text>
</g>
<!-- integrate_lhsw -->
<g id="node19" class="node">
<title>integrate_lhsw</title>
<path fill="lightskyblue" stroke="black" d="M161.07,-557.74C161.07,-557.74 92.07,-557.74 92.07,-557.74 86.07,-557.74 80.07,-551.74 80.07,-545.74 80.07,-545.74 80.07,-533.74 80.07,-533.74 80.07,-527.74 86.07,-521.74 92.07,-521.74 92.07,-521.74 161.07,-521.74 161.07,-521.74 167.07,-521.74 173.07,-527.74 173.07,-533.74 173.07,-533.74 173.07,-545.74 173.07,-545.74 173.07,-551.74 167.07,-557.74 161.07,-557.74"/>
<text text-anchor="middle" x="126.57" y="-536.04" font-family="Helvetica,sans-Serif" font-size="14.00">Integration</text>
</g>
<!-- startOv&#45;&gt;integrate_lhsw -->
<g id="edge9" class="edge">
<title>startOv&#45;&gt;integrate_lhsw</title>
<path fill="none" stroke="black" d="M255.79,-595.89C233.17,-586.24 203.27,-573.48 177.93,-562.66"/>
<polygon fill="black" stroke="black" points="179.34,-559.46 168.77,-558.75 176.6,-565.9 179.34,-559.46"/>
</g>
<!-- integrate_rhsw -->
<g id="node20" class="node">
<title>integrate_rhsw</title>
<path fill="lightskyblue" stroke="black" d="M602.07,-557.74C602.07,-557.74 533.07,-557.74 533.07,-557.74 527.07,-557.74 521.07,-551.74 521.07,-545.74 521.07,-545.74 521.07,-533.74 521.07,-533.74 521.07,-527.74 527.07,-521.74 533.07,-521.74 533.07,-521.74 602.07,-521.74 602.07,-521.74 608.07,-521.74 614.07,-527.74 614.07,-533.74 614.07,-533.74 614.07,-545.74 614.07,-545.74 614.07,-551.74 608.07,-557.74 602.07,-557.74"/>
<text text-anchor="middle" x="567.57" y="-536.04" font-family="Helvetica,sans-Serif" font-size="14.00">Integration</text>
</g>
<!-- startOv&#45;&gt;integrate_rhsw -->
<g id="edge10" class="edge">
<title>startOv&#45;&gt;integrate_rhsw</title>
<path fill="none" stroke="black" d="M338.82,-598.55C386.38,-586.53 459.07,-568.16 509.71,-555.36"/>
<polygon fill="black" stroke="black" points="510.49,-558.77 519.33,-552.93 508.78,-551.99 510.49,-558.77"/>
</g>
<!-- endOv -->
<g id="node5" class="node">
<title>endOv</title>
<ellipse fill="khaki" stroke="black" cx="440.57" cy="-611.74" rx="63.89" ry="18"/>
<text text-anchor="middle" x="440.57" y="-608.04" font-family="Helvetica,sans-Serif" font-size="14.00">EndOverlap</text>
</g>
<!-- endOv&#45;&gt;integrate_lhsw -->
<g id="edge11" class="edge">
<title>endOv&#45;&gt;integrate_lhsw</title>
<path fill="none" stroke="black" d="M391.51,-599.8C335.52,-587.32 244.05,-566.93 184.58,-553.67"/>
<polygon fill="black" stroke="black" points="185.5,-550.29 174.97,-551.53 183.97,-557.12 185.5,-550.29"/>
</g>
<!-- endOv&#45;&gt;integrate_rhsw -->
<g id="edge12" class="edge">
<title>endOv&#45;&gt;integrate_rhsw</title>
<path fill="none" stroke="black" d="M468.76,-595.2C485.53,-585.96 507.12,-574.06 525.84,-563.74"/>
<polygon fill="black" stroke="black" points="527.5,-566.82 534.57,-558.93 524.12,-560.69 527.5,-566.82"/>
</g>
<!-- scaleFactor -->
<g id="node6" class="node">
<title>scaleFactor</title>
<ellipse fill="khaki" stroke="black" cx="535.57" cy="-395.74" rx="79.09" ry="18"/>
<text text-anchor="middle" x="535.57" y="-392.04" font-family="Helvetica,sans-Serif" font-size="14.00">OutScaleFactor</text>
</g>
<!-- multiply -->
<g id="node21" class="node">
<title>multiply</title>
<path fill="lightskyblue" stroke="black" d="M666.07,-341.74C666.07,-341.74 619.07,-341.74 619.07,-341.74 613.07,-341.74 607.07,-335.74 607.07,-329.74 607.07,-329.74 607.07,-317.74 607.07,-317.74 607.07,-311.74 613.07,-305.74 619.07,-305.74 619.07,-305.74 666.07,-305.74 666.07,-305.74 672.07,-305.74 678.07,-311.74 678.07,-317.74 678.07,-317.74 678.07,-329.74 678.07,-329.74 678.07,-335.74 672.07,-341.74 666.07,-341.74"/>
<text text-anchor="middle" x="642.57" y="-320.04" font-family="Helvetica,sans-Serif" font-size="14.00">Multiply</text>
</g>
<!-- scaleFactor&#45;&gt;multiply -->
<g id="edge17" class="edge">
<title>scaleFactor&#45;&gt;multiply</title>
<path fill="none" stroke="black" d="M560.66,-378.33C574.34,-369.38 591.51,-358.14 606.6,-348.28"/>
<polygon fill="black" stroke="black" points="608.43,-351.26 614.88,-342.85 604.6,-345.4 608.43,-351.26"/>
</g>
<!-- lhsworkspace_o -->
<g id="node7" class="node">
<title>lhsworkspace_o</title>
<ellipse fill="khaki" stroke="black" cx="126.57" cy="-242.87" rx="126.64" ry="26.74"/>
<text text-anchor="middle" x="126.57" y="-246.67" font-family="Helvetica,sans-Serif" font-size="14.00">LHSWorkspace</text>
<text text-anchor="middle" x="126.57" y="-231.67" font-family="Helvetica,sans-Serif" font-size="14.00">([StartX, StartOverlap])</text>
</g>
<!-- plus -->
<g id="node24" class="node">
<title>plus</title>
<path fill="lightskyblue" stroke="black" d="M404.57,-180C404.57,-180 374.57,-180 374.57,-180 368.57,-180 362.57,-174 362.57,-168 362.57,-168 362.57,-156 362.57,-156 362.57,-150 368.57,-144 374.57,-144 374.57,-144 404.57,-144 404.57,-144 410.57,-144 416.57,-150 416.57,-156 416.57,-156 416.57,-168 416.57,-168 416.57,-174 410.57,-180 404.57,-180"/>
<text text-anchor="middle" x="389.57" y="-158.3" font-family="Helvetica,sans-Serif" font-size="14.00">Plus</text>
</g>
<!-- lhsworkspace_o&#45;&gt;plus -->
<g id="edge19" class="edge">
<title>lhsworkspace_o&#45;&gt;plus</title>
<path fill="none" stroke="black" d="M198.09,-220.42C247.48,-205.61 311.24,-186.49 351.28,-174.48"/>
<polygon fill="black" stroke="black" points="352.13,-177.88 360.71,-171.66 350.12,-171.18 352.13,-177.88"/>
</g>
<!-- rhsworkspace_o -->
<g id="node8" class="node">
<title>rhsworkspace_o</title>
<ellipse fill="khaki" stroke="black" cx="642.57" cy="-242.87" rx="116.85" ry="26.74"/>
<text text-anchor="middle" x="642.57" y="-246.67" font-family="Helvetica,sans-Serif" font-size="14.00">RHSWorkspace</text>
<text text-anchor="middle" x="642.57" y="-231.67" font-family="Helvetica,sans-Serif" font-size="14.00">([EndOverlap, EndX])</text>
</g>
<!-- lhsworkspace_1_1 -->
<g id="node14" class="node">
<title>lhsworkspace_1_1</title>
<ellipse fill="khaki" stroke="black" cx="903.57" cy="-242.87" rx="126.64" ry="26.74"/>
<text text-anchor="middle" x="903.57" y="-246.67" font-family="Helvetica,sans-Serif" font-size="14.00">LHSWorkspace</text>
<text text-anchor="middle" x="903.57" y="-231.67" font-family="Helvetica,sans-Serif" font-size="14.00">([StartX, StartOverlap])</text>
</g>
<!-- rhsworkspace_o&#45;&gt;lhsworkspace_1_1 -->
<!-- rhsworkspace_o&#45;&gt;plus -->
<g id="edge24" class="edge">
<title>rhsworkspace_o&#45;&gt;plus</title>
<path fill="none" stroke="black" d="M574.77,-220.73C527.61,-206.03 466.47,-186.97 427.61,-174.86"/>
<polygon fill="black" stroke="black" points="428.83,-171.57 418.24,-171.94 426.74,-178.25 428.83,-171.57"/>
</g>
<!-- outputworkspace -->
<g id="node9" class="node">
<title>outputworkspace</title>
<ellipse fill="khaki" stroke="black" cx="389.57" cy="-18" rx="92.08" ry="18"/>
<text text-anchor="middle" x="389.57" y="-14.3" font-family="Helvetica,sans-Serif" font-size="14.00">OutputWorkspace</text>
</g>
<!-- lhsworkspace_1 -->
<g id="node10" class="node">
<title>lhsworkspace_1</title>
<ellipse fill="khaki" stroke="black" cx="903.57" cy="-755.74" rx="77.99" ry="18"/>
<text text-anchor="middle" x="903.57" y="-752.04" font-family="Helvetica,sans-Serif" font-size="14.00">LHSWorkspace</text>
</g>
<!-- rebin_lhsw_1 -->
<g id="node25" class="node">
<title>rebin_lhsw_1</title>
<path fill="lightskyblue" stroke="black" d="M919.57,-701.74C919.57,-701.74 887.57,-701.74 887.57,-701.74 881.57,-701.74 875.57,-695.74 875.57,-689.74 875.57,-689.74 875.57,-677.74 875.57,-677.74 875.57,-671.74 881.57,-665.74 887.57,-665.74 887.57,-665.74 919.57,-665.74 919.57,-665.74 925.57,-665.74 931.57,-671.74 931.57,-677.74 931.57,-677.74 931.57,-689.74 931.57,-689.74 931.57,-695.74 925.57,-701.74 919.57,-701.74"/>
<text text-anchor="middle" x="903.57" y="-680.04" font-family="Helvetica,sans-Serif" font-size="14.00">Rebin</text>
</g>
<!-- lhsworkspace_1&#45;&gt;rebin_lhsw_1 -->
<g id="edge27" class="edge">
<title>lhsworkspace_1&#45;&gt;rebin_lhsw_1</title>
<path fill="none" stroke="black" d="M903.57,-737.44C903.57,-730.15 903.57,-721.47 903.57,-713.28"/>
<polygon fill="black" stroke="black" points="907.07,-713.36 903.57,-703.36 900.07,-713.36 907.07,-713.36"/>
</g>
<!-- rhsworkspace_1 -->
<g id="node11" class="node">
<title>rhsworkspace_1</title>
<ellipse fill="khaki" stroke="black" cx="1419.57" cy="-755.74" rx="79.09" ry="18"/>
<text text-anchor="middle" x="1419.57" y="-752.04" font-family="Helvetica,sans-Serif" font-size="14.00">RHSWorkspace</text>
</g>
<!-- rebin_rhsw_1 -->
<g id="node26" class="node">
<title>rebin_rhsw_1</title>
<path fill="lightskyblue" stroke="black" d="M1435.57,-701.74C1435.57,-701.74 1403.57,-701.74 1403.57,-701.74 1397.57,-701.74 1391.57,-695.74 1391.57,-689.74 1391.57,-689.74 1391.57,-677.74 1391.57,-677.74 1391.57,-671.74 1397.57,-665.74 1403.57,-665.74 1403.57,-665.74 1435.57,-665.74 1435.57,-665.74 1441.57,-665.74 1447.57,-671.74 1447.57,-677.74 1447.57,-677.74 1447.57,-689.74 1447.57,-689.74 1447.57,-695.74 1441.57,-701.74 1435.57,-701.74"/>
<text text-anchor="middle" x="1419.57" y="-680.04" font-family="Helvetica,sans-Serif" font-size="14.00">Rebin</text>
</g>
<!-- rhsworkspace_1&#45;&gt;rebin_rhsw_1 -->
<g id="edge28" class="edge">
<title>rhsworkspace_1&#45;&gt;rebin_rhsw_1</title>
<path fill="none" stroke="black" d="M1419.57,-737.44C1419.57,-730.15 1419.57,-721.47 1419.57,-713.28"/>
<polygon fill="black" stroke="black" points="1423.07,-713.36 1419.57,-703.36 1416.07,-713.36 1423.07,-713.36"/>
</g>
<!-- params_1 -->
<g id="node12" class="node">
<title>params_1</title>
<ellipse fill="khaki" stroke="black" cx="1161.57" cy="-755.74" rx="44.39" ry="18"/>
<text text-anchor="middle" x="1161.57" y="-752.04" font-family="Helvetica,sans-Serif" font-size="14.00">Params</text>
</g>
<!-- params_1&#45;&gt;rebin_lhsw_1 -->
<g id="edge29" class="edge">
<title>params_1&#45;&gt;rebin_lhsw_1</title>
<path fill="none" stroke="black" d="M1125.43,-744.93C1077.31,-731.88 992.52,-708.87 942.86,-695.4"/>
<polygon fill="black" stroke="black" points="943.96,-692.07 933.39,-692.83 942.13,-698.83 943.96,-692.07"/>
</g>
<!-- params_1&#45;&gt;rebin_rhsw_1 -->
<g id="edge30" class="edge">
<title>params_1&#45;&gt;rebin_rhsw_1</title>
<path fill="none" stroke="black" d="M1197.72,-744.93C1245.84,-731.88 1330.62,-708.87 1380.28,-695.4"/>
<polygon fill="black" stroke="black" points="1381.02,-698.83 1389.75,-692.83 1379.18,-692.07 1381.02,-698.83"/>
</g>
<!-- scaleFactor_in -->
<g id="node13" class="node">
<title>scaleFactor_in</title>
<ellipse fill="khaki" stroke="black" cx="1296.57" cy="-395.74" rx="94.78" ry="18"/>
<text text-anchor="middle" x="1296.57" y="-392.04" font-family="Helvetica,sans-Serif" font-size="14.00">ManualScaleFactor</text>
</g>
<!-- multiply_1 -->
<g id="node27" class="node">
<title>multiply_1</title>
<path fill="lightskyblue" stroke="black" d="M1443.07,-341.74C1443.07,-341.74 1396.07,-341.74 1396.07,-341.74 1390.07,-341.74 1384.07,-335.74 1384.07,-329.74 1384.07,-329.74 1384.07,-317.74 1384.07,-317.74 1384.07,-311.74 1390.07,-305.74 1396.07,-305.74 1396.07,-305.74 1443.07,-305.74 1443.07,-305.74 1449.07,-305.74 1455.07,-311.74 1455.07,-317.74 1455.07,-317.74 1455.07,-329.74 1455.07,-329.74 1455.07,-335.74 1449.07,-341.74 1443.07,-341.74"/>
<text text-anchor="middle" x="1419.57" y="-320.04" font-family="Helvetica,sans-Serif" font-size="14.00">Multiply</text>
</g>
<!-- scaleFactor_in&#45;&gt;multiply_1 -->
<g id="edge35" class="edge">
<title>scaleFactor_in&#45;&gt;multiply_1</title>
<path fill="none" stroke="black" d="M1325.72,-378.15C1341.64,-369.09 1361.59,-357.74 1379.01,-347.83"/>
<polygon fill="black" stroke="black" points="1380.64,-350.92 1387.6,-342.94 1377.18,-344.84 1380.64,-350.92"/>
</g>
<!-- plus_1 -->
<g id="node29" class="node">
<title>plus_1</title>
<path fill="lightskyblue" stroke="black" d="M1181.57,-180C1181.57,-180 1151.57,-180 1151.57,-180 1145.57,-180 1139.57,-174 1139.57,-168 1139.57,-168 1139.57,-156 1139.57,-156 1139.57,-150 1145.57,-144 1151.57,-144 1151.57,-144 1181.57,-144 1181.57,-144 1187.57,-144 1193.57,-150 1193.57,-156 1193.57,-156 1193.57,-168 1193.57,-168 1193.57,-174 1187.57,-180 1181.57,-180"/>
<text text-anchor="middle" x="1166.57" y="-158.3" font-family="Helvetica,sans-Serif" font-size="14.00">Plus</text>
</g>
<!-- lhsworkspace_1_1&#45;&gt;plus_1 -->
<g id="edge38" class="edge">
<title>lhsworkspace_1_1&#45;&gt;plus_1</title>
<path fill="none" stroke="black" d="M975.09,-220.42C1024.48,-205.61 1088.24,-186.49 1128.28,-174.48"/>
<polygon fill="black" stroke="black" points="1129.13,-177.88 1137.71,-171.66 1127.12,-171.18 1129.13,-177.88"/>
</g>
<!-- rhsworkspace_1_1 -->
<g id="node15" class="node">
<title>rhsworkspace_1_1</title>
<ellipse fill="khaki" stroke="black" cx="1419.57" cy="-242.87" rx="116.85" ry="26.74"/>
<text text-anchor="middle" x="1419.57" y="-246.67" font-family="Helvetica,sans-Serif" font-size="14.00">RHSWorkspace</text>
<text text-anchor="middle" x="1419.57" y="-231.67" font-family="Helvetica,sans-Serif" font-size="14.00">([EndOverlap, EndX])</text>
</g>
<!-- rhsworkspace_1_1&#45;&gt;plus_1 -->
<g id="edge41" class="edge">
<title>rhsworkspace_1_1&#45;&gt;plus_1</title>
<path fill="none" stroke="black" d="M1351.77,-220.73C1304.61,-206.03 1243.47,-186.97 1204.61,-174.86"/>
<polygon fill="black" stroke="black" points="1205.83,-171.57 1195.24,-171.94 1203.74,-178.25 1205.83,-171.57"/>
</g>
<!-- outputworkspace_1 -->
<g id="node16" class="node">
<title>outputworkspace_1</title>
<ellipse fill="khaki" stroke="black" cx="1166.57" cy="-18" rx="92.08" ry="18"/>
<text text-anchor="middle" x="1166.57" y="-14.3" font-family="Helvetica,sans-Serif" font-size="14.00">OutputWorkspace</text>
</g>
<!-- maskSpecialValues_1 -->
<g id="node30" class="node">
<title>maskSpecialValues_1</title>
<polygon fill="lightseagreen" stroke="black" points="204.07,-629.74 49.07,-629.74 49.07,-593.74 204.07,-593.74 204.07,-629.74"/>
<text text-anchor="middle" x="126.57" y="-608.04" font-family="Helvetica,sans-Serif" font-size="14.00">Mask special values</text>
</g>
<!-- rebin_lhsw&#45;&gt;maskSpecialValues_1 -->
<g id="edge5" class="edge">
<title>rebin_lhsw&#45;&gt;maskSpecialValues_1</title>
<path fill="none" stroke="black" d="M126.57,-665.44C126.57,-658.15 126.57,-649.47 126.57,-641.28"/>
<polygon fill="black" stroke="black" points="130.07,-641.36 126.57,-631.36 123.07,-641.36 130.07,-641.36"/>
</g>
<!-- maskSpecialValues_2 -->
<g id="node31" class="node">
<title>maskSpecialValues_2</title>
<polygon fill="lightseagreen" stroke="black" points="677.07,-629.74 522.07,-629.74 522.07,-593.74 677.07,-593.74 677.07,-629.74"/>
<text text-anchor="middle" x="599.57" y="-608.04" font-family="Helvetica,sans-Serif" font-size="14.00">Mask special values</text>
</g>
<!-- rebin_rhsw&#45;&gt;maskSpecialValues_2 -->
<g id="edge6" class="edge">
<title>rebin_rhsw&#45;&gt;maskSpecialValues_2</title>
<path fill="none" stroke="black" d="M599.57,-665.44C599.57,-658.15 599.57,-649.47 599.57,-641.28"/>
<polygon fill="black" stroke="black" points="603.07,-641.36 599.57,-631.36 596.07,-641.36 603.07,-641.36"/>
</g>
<!-- integrate_lhsw&#45;&gt;lhsworkspace_o -->
<g id="edge13" class="edge">
<title>integrate_lhsw&#45;&gt;lhsworkspace_o</title>
<path fill="none" stroke="black" d="M126.57,-521.62C126.57,-474.21 126.57,-345.76 126.57,-281.11"/>
<polygon fill="black" stroke="black" points="130.07,-281.33 126.57,-271.33 123.07,-281.33 130.07,-281.33"/>
</g>
<!-- divideScaleFactor -->
<g id="node23" class="node">
<title>divideScaleFactor</title>
<path fill="lightskyblue" stroke="black" d="M553.57,-485.74C553.57,-485.74 517.57,-485.74 517.57,-485.74 511.57,-485.74 505.57,-479.74 505.57,-473.74 505.57,-473.74 505.57,-461.74 505.57,-461.74 505.57,-455.74 511.57,-449.74 517.57,-449.74 517.57,-449.74 553.57,-449.74 553.57,-449.74 559.57,-449.74 565.57,-455.74 565.57,-461.74 565.57,-461.74 565.57,-473.74 565.57,-473.74 565.57,-479.74 559.57,-485.74 553.57,-485.74"/>
<text text-anchor="middle" x="535.57" y="-464.04" font-family="Helvetica,sans-Serif" font-size="14.00">Divide</text>
</g>
<!-- integrate_lhsw&#45;&gt;divideScaleFactor -->
<g id="edge14" class="edge">
<title>integrate_lhsw&#45;&gt;divideScaleFactor</title>
<path fill="none" stroke="black" d="M173.49,-530.71C254.02,-516.93 417.28,-488.99 493.98,-475.86"/>
<polygon fill="black" stroke="black" points="494.33,-479.35 503.6,-474.21 493.15,-472.45 494.33,-479.35"/>
</g>
<!-- integrate_rhsw&#45;&gt;divideScaleFactor -->
<g id="edge15" class="edge">
<title>integrate_rhsw&#45;&gt;divideScaleFactor</title>
<path fill="none" stroke="black" d="M559.66,-521.44C556.17,-513.81 551.99,-504.66 548.1,-496.14"/>
<polygon fill="black" stroke="black" points="551.36,-494.86 544.02,-487.22 545,-497.77 551.36,-494.86"/>
</g>
<!-- multiply&#45;&gt;rhsworkspace_o -->
<g id="edge23" class="edge">
<title>multiply&#45;&gt;rhsworkspace_o</title>
<path fill="none" stroke="black" d="M642.57,-305.63C642.57,-298.46 642.57,-289.83 642.57,-281.33"/>
<polygon fill="black" stroke="black" points="646.07,-281.47 642.57,-271.47 639.07,-281.47 646.07,-281.47"/>
</g>
<!-- weightedMean -->
<g id="node22" class="node">
<title>weightedMean</title>
<path fill="lightskyblue" stroke="black" d="M495.57,-269.37C495.57,-269.37 283.57,-269.37 283.57,-269.37 277.57,-269.37 271.57,-263.37 271.57,-257.37 271.57,-257.37 271.57,-228.37 271.57,-228.37 271.57,-222.37 277.57,-216.37 283.57,-216.37 283.57,-216.37 495.57,-216.37 495.57,-216.37 501.57,-216.37 507.57,-222.37 507.57,-228.37 507.57,-228.37 507.57,-257.37 507.57,-257.37 507.57,-263.37 501.57,-269.37 495.57,-269.37"/>
<text text-anchor="middle" x="389.57" y="-254.17" font-family="Helvetica,sans-Serif" font-size="14.00">WeightedMean or</text>
<text text-anchor="middle" x="389.57" y="-239.17" font-family="Helvetica,sans-Serif" font-size="14.00">Unweighted mean if zero errors</text>
<text text-anchor="middle" x="389.57" y="-224.17" font-family="Helvetica,sans-Serif" font-size="14.00">([StartOverlap, EndOverlap])</text>
</g>
<!-- multiply&#45;&gt;weightedMean -->
<g id="edge20" class="edge">
<title>multiply&#45;&gt;weightedMean</title>
<path fill="none" stroke="black" d="M606.59,-311.52C574.65,-301.57 526.53,-286.57 483.72,-273.22"/>
<polygon fill="black" stroke="black" points="484.99,-269.95 474.4,-270.31 482.91,-276.63 484.99,-269.95"/>
</g>
<!-- weightedMean&#45;&gt;plus -->
<g id="edge22" class="edge">
<title>weightedMean&#45;&gt;plus</title>
<path fill="none" stroke="black" d="M389.57,-216.05C389.57,-208.29 389.57,-199.73 389.57,-191.79"/>
<polygon fill="black" stroke="black" points="393.07,-191.93 389.57,-181.93 386.07,-191.93 393.07,-191.93"/>
</g>
<!-- divideScaleFactor&#45;&gt;scaleFactor -->
<g id="edge16" class="edge">
<title>divideScaleFactor&#45;&gt;scaleFactor</title>
<path fill="none" stroke="black" d="M535.57,-449.44C535.57,-442.15 535.57,-433.47 535.57,-425.28"/>
<polygon fill="black" stroke="black" points="539.07,-425.36 535.57,-415.36 532.07,-425.36 539.07,-425.36"/>
</g>
<!-- insertSpecialValues -->
<g id="node32" class="node">
<title>insertSpecialValues</title>
<polygon fill="lightseagreen" stroke="black" points="477.57,-108 301.57,-108 301.57,-72 477.57,-72 477.57,-108"/>
<text text-anchor="middle" x="389.57" y="-86.3" font-family="Helvetica,sans-Serif" font-size="14.00">Reinsert special values</text>
</g>
<!-- plus&#45;&gt;insertSpecialValues -->
<g id="edge25" class="edge">
<title>plus&#45;&gt;insertSpecialValues</title>
<path fill="none" stroke="black" d="M389.57,-143.7C389.57,-136.41 389.57,-127.73 389.57,-119.54"/>
<polygon fill="black" stroke="black" points="393.07,-119.62 389.57,-109.62 386.07,-119.62 393.07,-119.62"/>
</g>
<!-- maskSpecialValues_1_1 -->
<g id="node33" class="node">
<title>maskSpecialValues_1_1</title>
<polygon fill="lightseagreen" stroke="black" points="981.07,-629.74 826.07,-629.74 826.07,-593.74 981.07,-593.74 981.07,-629.74"/>
<text text-anchor="middle" x="903.57" y="-608.04" font-family="Helvetica,sans-Serif" font-size="14.00">Mask special values</text>
</g>
<!-- rebin_lhsw_1&#45;&gt;maskSpecialValues_1_1 -->
<g id="edge31" class="edge">
<title>rebin_lhsw_1&#45;&gt;maskSpecialValues_1_1</title>
<path fill="none" stroke="black" d="M903.57,-665.44C903.57,-658.15 903.57,-649.47 903.57,-641.28"/>
<polygon fill="black" stroke="black" points="907.07,-641.36 903.57,-631.36 900.07,-641.36 907.07,-641.36"/>
</g>
<!-- maskSpecialValues_2_1 -->
<g id="node34" class="node">
<title>maskSpecialValues_2_1</title>
<polygon fill="lightseagreen" stroke="black" points="1497.07,-629.74 1342.07,-629.74 1342.07,-593.74 1497.07,-593.74 1497.07,-629.74"/>
<text text-anchor="middle" x="1419.57" y="-608.04" font-family="Helvetica,sans-Serif" font-size="14.00">Mask special values</text>
</g>
<!-- rebin_rhsw_1&#45;&gt;maskSpecialValues_2_1 -->
<g id="edge32" class="edge">
<title>rebin_rhsw_1&#45;&gt;maskSpecialValues_2_1</title>
<path fill="none" stroke="black" d="M1419.57,-665.44C1419.57,-658.15 1419.57,-649.47 1419.57,-641.28"/>
<polygon fill="black" stroke="black" points="1423.07,-641.36 1419.57,-631.36 1416.07,-641.36 1423.07,-641.36"/>
</g>
<!-- multiply_1&#45;&gt;rhsworkspace_1_1 -->
<g id="edge40" class="edge">
<title>multiply_1&#45;&gt;rhsworkspace_1_1</title>
<path fill="none" stroke="black" d="M1419.57,-305.63C1419.57,-298.46 1419.57,-289.83 1419.57,-281.33"/>
<polygon fill="black" stroke="black" points="1423.07,-281.47 1419.57,-271.47 1416.07,-281.47 1423.07,-281.47"/>
</g>
<!-- weightedMean_1 -->
<g id="node28" class="node">
<title>weightedMean_1</title>
<path fill="lightskyblue" stroke="black" d="M1272.57,-269.37C1272.57,-269.37 1060.57,-269.37 1060.57,-269.37 1054.57,-269.37 1048.57,-263.37 1048.57,-257.37 1048.57,-257.37 1048.57,-228.37 1048.57,-228.37 1048.57,-222.37 1054.57,-216.37 1060.57,-216.37 1060.57,-216.37 1272.57,-216.37 1272.57,-216.37 1278.57,-216.37 1284.57,-222.37 1284.57,-228.37 1284.57,-228.37 1284.57,-257.37 1284.57,-257.37 1284.57,-263.37 1278.57,-269.37 1272.57,-269.37"/>
<text text-anchor="middle" x="1166.57" y="-254.17" font-family="Helvetica,sans-Serif" font-size="14.00">WeightedMean or</text>
<text text-anchor="middle" x="1166.57" y="-239.17" font-family="Helvetica,sans-Serif" font-size="14.00">Unweighted mean if zero errors</text>
<text text-anchor="middle" x="1166.57" y="-224.17" font-family="Helvetica,sans-Serif" font-size="14.00">([StartOverlap, EndOverlap])</text>
</g>
<!-- multiply_1&#45;&gt;weightedMean_1 -->
<g id="edge36" class="edge">
<title>multiply_1&#45;&gt;weightedMean_1</title>
<path fill="none" stroke="black" d="M1383.59,-311.52C1351.65,-301.57 1303.53,-286.57 1260.72,-273.22"/>
<polygon fill="black" stroke="black" points="1261.99,-269.95 1251.4,-270.31 1259.91,-276.63 1261.99,-269.95"/>
</g>
<!-- weightedMean_1&#45;&gt;plus_1 -->
<g id="edge39" class="edge">
<title>weightedMean_1&#45;&gt;plus_1</title>
<path fill="none" stroke="black" d="M1166.57,-216.05C1166.57,-208.29 1166.57,-199.73 1166.57,-191.79"/>
<polygon fill="black" stroke="black" points="1170.07,-191.93 1166.57,-181.93 1163.07,-191.93 1170.07,-191.93"/>
</g>
<!-- insertSpecialValues_1 -->
<g id="node35" class="node">
<title>insertSpecialValues_1</title>
<polygon fill="lightseagreen" stroke="black" points="1254.57,-108 1078.57,-108 1078.57,-72 1254.57,-72 1254.57,-108"/>
<text text-anchor="middle" x="1166.57" y="-86.3" font-family="Helvetica,sans-Serif" font-size="14.00">Reinsert special values</text>
</g>
<!-- plus_1&#45;&gt;insertSpecialValues_1 -->
<g id="edge42" class="edge">
<title>plus_1&#45;&gt;insertSpecialValues_1</title>
<path fill="none" stroke="black" d="M1166.57,-143.7C1166.57,-136.41 1166.57,-127.73 1166.57,-119.54"/>
<polygon fill="black" stroke="black" points="1170.07,-119.62 1166.57,-109.62 1163.07,-119.62 1170.07,-119.62"/>
</g>
<!-- maskSpecialValues_1&#45;&gt;integrate_lhsw -->
<g id="edge7" class="edge">
<title>maskSpecialValues_1&#45;&gt;integrate_lhsw</title>
<path fill="none" stroke="black" d="M126.57,-593.44C126.57,-586.15 126.57,-577.47 126.57,-569.28"/>
<polygon fill="black" stroke="black" points="130.07,-569.36 126.57,-559.36 123.07,-569.36 130.07,-569.36"/>
</g>
<!-- maskSpecialValues_1&#45;&gt;weightedMean -->
<g id="edge21" class="edge">
<title>maskSpecialValues_1&#45;&gt;weightedMean</title>
<path fill="none" stroke="black" d="M139.61,-593.45C180.81,-535.66 308.7,-356.29 363.84,-278.96"/>
<polygon fill="black" stroke="black" points="366.67,-281.02 369.63,-270.84 360.97,-276.96 366.67,-281.02"/>
</g>
<!-- maskSpecialValues_2&#45;&gt;integrate_rhsw -->
<g id="edge8" class="edge">
<title>maskSpecialValues_2&#45;&gt;integrate_rhsw</title>
<path fill="none" stroke="black" d="M591.66,-593.44C588.17,-585.81 583.99,-576.66 580.1,-568.14"/>
<polygon fill="black" stroke="black" points="583.36,-566.86 576.02,-559.22 577,-569.77 583.36,-566.86"/>
</g>
<!-- maskSpecialValues_2&#45;&gt;multiply -->
<g id="edge18" class="edge">
<title>maskSpecialValues_2&#45;&gt;multiply</title>
<path fill="none" stroke="black" d="M602.33,-593.29C609.59,-544.62 629.32,-412.47 638.17,-353.2"/>
<polygon fill="black" stroke="black" points="641.6,-353.94 639.62,-343.54 634.68,-352.91 641.6,-353.94"/>
</g>
<!-- insertSpecialValues&#45;&gt;outputworkspace -->
<g id="edge26" class="edge">
<title>insertSpecialValues&#45;&gt;outputworkspace</title>
<path fill="none" stroke="black" d="M389.57,-71.7C389.57,-64.41 389.57,-55.73 389.57,-47.54"/>
<polygon fill="black" stroke="black" points="393.07,-47.62 389.57,-37.62 386.07,-47.62 393.07,-47.62"/>
</g>
<!-- maskSpecialValues_1_1&#45;&gt;lhsworkspace_1_1 -->
<g id="edge33" class="edge">
<title>maskSpecialValues_1_1&#45;&gt;lhsworkspace_1_1</title>
<path fill="none" stroke="black" d="M903.57,-593.45C903.57,-536.2 903.57,-359.64 903.57,-281.15"/>
<polygon fill="black" stroke="black" points="907.07,-281.38 903.57,-271.38 900.07,-281.38 907.07,-281.38"/>
</g>
<!-- maskSpecialValues_1_1&#45;&gt;weightedMean_1 -->
<g id="edge37" class="edge">
<title>maskSpecialValues_1_1&#45;&gt;weightedMean_1</title>
<path fill="none" stroke="black" d="M916.61,-593.45C957.81,-535.66 1085.7,-356.29 1140.84,-278.96"/>
<polygon fill="black" stroke="black" points="1143.67,-281.02 1146.63,-270.84 1137.97,-276.96 1143.67,-281.02"/>
</g>
<!-- maskSpecialValues_2_1&#45;&gt;multiply_1 -->
<g id="edge34" class="edge">
<title>maskSpecialValues_2_1&#45;&gt;multiply_1</title>
<path fill="none" stroke="black" d="M1419.57,-593.29C1419.57,-544.62 1419.57,-412.47 1419.57,-353.2"/>
<polygon fill="black" stroke="black" points="1423.07,-353.55 1419.57,-343.55 1416.07,-353.55 1423.07,-353.55"/>
</g>
<!-- insertSpecialValues_1&#45;&gt;outputworkspace_1 -->
<g id="edge43" class="edge">
<title>insertSpecialValues_1&#45;&gt;outputworkspace_1</title>
<path fill="none" stroke="black" d="M1166.57,-71.7C1166.57,-64.41 1166.57,-55.73 1166.57,-47.54"/>
<polygon fill="black" stroke="black" points="1170.07,-47.62 1166.57,-37.62 1163.07,-47.62 1170.07,-47.62"/>
</g>
</g>
</svg>
