<?xml version="1.0" encoding="UTF-8" standalone="no"?>
<!DOCTYPE svg PUBLIC "-//W3C//DTD SVG 1.1//EN"
 "http://www.w3.org/Graphics/SVG/1.1/DTD/svg11.dtd">
<!-- Generated by graphviz version 2.47.2 (20210527.1257)
 -->
<!-- Title: TimeSlice Pages: 1 -->
<svg width="568pt" height="839pt"
 viewBox="0.00 0.00 567.56 839.00" xmlns="http://www.w3.org/2000/svg" xmlns:xlink="http://www.w3.org/1999/xlink">
<g id="graph0" class="graph" transform="scale(1 1) rotate(0) translate(4 835)">
<title>TimeSlice</title>
<polygon fill="white" stroke="transparent" points="-4,4 -4,-835 563.56,-835 563.56,4 -4,4"/>
<text text-anchor="middle" x="279.78" y="-815.8" font-family="Helvetica" font-size="14.00">TimeSlice Flowchart</text>
<!-- HaveCalibration -->
<g id="node1" class="node">
<title>HaveCalibration</title>
<polygon fill="limegreen" stroke="black" points="173.72,-575 -0.22,-557 173.72,-539 347.66,-557 173.72,-575"/>
<text text-anchor="middle" x="173.72" y="-553.3" font-family="Helvetica" font-size="14.00">Have calibration workspace?</text>
</g>
<!-- HaveBackgroundRange -->
<g id="node2" class="node">
<title>HaveBackgroundRange</title>
<polygon fill="limegreen" stroke="black" points="185.72,-415 31.38,-397 185.72,-379 340.06,-397 185.72,-415"/>
<text text-anchor="middle" x="185.72" y="-393.3" font-family="Helvetica" font-size="14.00">Have background range?</text>
</g>
<!-- HaveCalibration&#45;&gt;HaveBackgroundRange -->
<g id="edge5" class="edge">
<title>HaveCalibration&#45;&gt;HaveBackgroundRange</title>
<path fill="none" stroke="black" d="M175,-539.09C177.07,-511.91 181.15,-458.25 183.63,-425.5"/>
<polygon fill="black" stroke="black" points="187.14,-425.5 184.41,-415.27 180.16,-424.97 187.14,-425.5"/>
<text text-anchor="middle" x="190.72" y="-466.3" font-family="Helvetica" font-size="14.00">No</text>
</g>
<!-- Divide -->
<g id="node11" class="node">
<title>Divide</title>
<path fill="lightskyblue" stroke="black" d="M251.72,-488C251.72,-488 221.72,-488 221.72,-488 215.72,-488 209.72,-482 209.72,-476 209.72,-476 209.72,-464 209.72,-464 209.72,-458 215.72,-452 221.72,-452 221.72,-452 251.72,-452 251.72,-452 257.72,-452 263.72,-458 263.72,-464 263.72,-464 263.72,-476 263.72,-476 263.72,-482 257.72,-488 251.72,-488"/>
<text text-anchor="middle" x="236.72" y="-466.3" font-family="Helvetica" font-size="14.00">Divide</text>
</g>
<!-- HaveCalibration&#45;&gt;Divide -->
<g id="edge6" class="edge">
<title>HaveCalibration&#45;&gt;Divide</title>
<path fill="none" stroke="black" d="M185.57,-540.01C194.66,-527.75 207.39,-510.57 217.87,-496.43"/>
<polygon fill="black" stroke="black" points="220.92,-498.2 224.06,-488.08 215.29,-494.03 220.92,-498.2"/>
<text text-anchor="middle" x="220.22" y="-509.8" font-family="Helvetica" font-size="14.00">Yes</text>
</g>
<!-- Integration -->
<g id="node12" class="node">
<title>Integration</title>
<path fill="lightskyblue" stroke="black" d="M306.72,-255C306.72,-255 250.72,-255 250.72,-255 244.72,-255 238.72,-249 238.72,-243 238.72,-243 238.72,-231 238.72,-231 238.72,-225 244.72,-219 250.72,-219 250.72,-219 306.72,-219 306.72,-219 312.72,-219 318.72,-225 318.72,-231 318.72,-231 318.72,-243 318.72,-243 318.72,-249 312.72,-255 306.72,-255"/>
<text text-anchor="middle" x="278.72" y="-233.3" font-family="Helvetica" font-size="14.00">Integration</text>
</g>
<!-- HaveBackgroundRange&#45;&gt;Integration -->
<g id="edge9" class="edge">
<title>HaveBackgroundRange&#45;&gt;Integration</title>
<path fill="none" stroke="black" d="M182.89,-379.14C180.13,-357.34 178.43,-319 194.72,-292 202.95,-278.36 216.09,-267.56 229.56,-259.31"/>
<polygon fill="black" stroke="black" points="231.46,-262.25 238.41,-254.26 227.99,-256.18 231.46,-262.25"/>
<text text-anchor="middle" x="203.72" y="-306.3" font-family="Helvetica" font-size="14.00">No</text>
</g>
<!-- CalculateFlatBackground -->
<g id="node13" class="node">
<title>CalculateFlatBackground</title>
<path fill="lightskyblue" stroke="black" d="M508.22,-328C508.22,-328 365.22,-328 365.22,-328 359.22,-328 353.22,-322 353.22,-316 353.22,-316 353.22,-304 353.22,-304 353.22,-298 359.22,-292 365.22,-292 365.22,-292 508.22,-292 508.22,-292 514.22,-292 520.22,-298 520.22,-304 520.22,-304 520.22,-316 520.22,-316 520.22,-322 514.22,-328 508.22,-328"/>
<text text-anchor="middle" x="436.72" y="-306.3" font-family="Helvetica" font-size="14.00">CalculateFlatBackground</text>
</g>
<!-- HaveBackgroundRange&#45;&gt;CalculateFlatBackground -->
<g id="edge11" class="edge">
<title>HaveBackgroundRange&#45;&gt;CalculateFlatBackground</title>
<path fill="none" stroke="black" d="M223.3,-383.27C263.86,-369.54 329.04,-347.47 376.7,-331.32"/>
<polygon fill="black" stroke="black" points="377.94,-334.6 386.29,-328.08 375.7,-327.97 377.94,-334.6"/>
<text text-anchor="middle" x="337.22" y="-349.8" font-family="Helvetica" font-size="14.00">Yes</text>
</g>
<!-- InputFiles -->
<g id="node3" class="node">
<title>InputFiles</title>
<ellipse fill="khaki" stroke="black" cx="273.72" cy="-790" rx="48.99" ry="18"/>
<text text-anchor="middle" x="273.72" y="-786.3" font-family="Helvetica" font-size="14.00">InputFiles</text>
</g>
<!-- Load -->
<g id="node9" class="node">
<title>Load</title>
<path fill="lightskyblue" stroke="black" d="M288.72,-721C288.72,-721 258.72,-721 258.72,-721 252.72,-721 246.72,-715 246.72,-709 246.72,-709 246.72,-697 246.72,-697 246.72,-691 252.72,-685 258.72,-685 258.72,-685 288.72,-685 288.72,-685 294.72,-685 300.72,-691 300.72,-697 300.72,-697 300.72,-709 300.72,-709 300.72,-715 294.72,-721 288.72,-721"/>
<text text-anchor="middle" x="273.72" y="-699.3" font-family="Helvetica" font-size="14.00">Load</text>
</g>
<!-- InputFiles&#45;&gt;Load -->
<g id="edge1" class="edge">
<title>InputFiles&#45;&gt;Load</title>
<path fill="none" stroke="black" d="M273.72,-771.8C273.72,-760.16 273.72,-744.55 273.72,-731.24"/>
<polygon fill="black" stroke="black" points="277.22,-731.18 273.72,-721.18 270.22,-731.18 277.22,-731.18"/>
<text text-anchor="middle" x="319.22" y="-742.8" font-family="Helvetica" font-size="14.00">loop for all files</text>
</g>
<!-- CalibrationWorkspace -->
<g id="node4" class="node">
<title>CalibrationWorkspace</title>
<ellipse fill="khaki" stroke="black" cx="462.72" cy="-557" rx="96.68" ry="18"/>
<text text-anchor="middle" x="462.72" y="-553.3" font-family="Helvetica" font-size="14.00">CalibrationWorkspace</text>
</g>
<!-- CalibrationWorkspace&#45;&gt;Divide -->
<g id="edge7" class="edge">
<title>CalibrationWorkspace&#45;&gt;Divide</title>
<path fill="none" stroke="black" d="M421.79,-540.61C379.49,-524.7 314.05,-500.09 273.39,-484.79"/>
<polygon fill="black" stroke="black" points="274.45,-481.45 263.86,-481.21 271.99,-488 274.45,-481.45"/>
</g>
<!-- SpectraRange -->
<g id="node5" class="node">
<title>SpectraRange</title>
<ellipse fill="khaki" stroke="black" cx="161.72" cy="-703" rx="66.89" ry="18"/>
<text text-anchor="middle" x="161.72" y="-699.3" font-family="Helvetica" font-size="14.00">SpectraRange</text>
</g>
<!-- CropWorkspace -->
<g id="node10" class="node">
<title>CropWorkspace</title>
<path fill="lightskyblue" stroke="black" d="M218.22,-648C218.22,-648 129.22,-648 129.22,-648 123.22,-648 117.22,-642 117.22,-636 117.22,-636 117.22,-624 117.22,-624 117.22,-618 123.22,-612 129.22,-612 129.22,-612 218.22,-612 218.22,-612 224.22,-612 230.22,-618 230.22,-624 230.22,-624 230.22,-636 230.22,-636 230.22,-642 224.22,-648 218.22,-648"/>
<text text-anchor="middle" x="173.72" y="-626.3" font-family="Helvetica" font-size="14.00">CropWorkspace</text>
</g>
<!-- SpectraRange&#45;&gt;CropWorkspace -->
<g id="edge3" class="edge">
<title>SpectraRange&#45;&gt;CropWorkspace</title>
<path fill="none" stroke="black" d="M164.63,-684.81C165.98,-676.79 167.63,-667.05 169.15,-658.07"/>
<polygon fill="black" stroke="black" points="172.63,-658.47 170.84,-648.03 165.72,-657.31 172.63,-658.47"/>
</g>
<!-- PeakRange -->
<g id="node6" class="node">
<title>PeakRange</title>
<ellipse fill="khaki" stroke="black" cx="278.72" cy="-310" rx="56.59" ry="18"/>
<text text-anchor="middle" x="278.72" y="-306.3" font-family="Helvetica" font-size="14.00">PeakRange</text>
</g>
<!-- PeakRange&#45;&gt;Integration -->
<g id="edge10" class="edge">
<title>PeakRange&#45;&gt;Integration</title>
<path fill="none" stroke="black" d="M278.72,-291.81C278.72,-283.79 278.72,-274.05 278.72,-265.07"/>
<polygon fill="black" stroke="black" points="282.22,-265.03 278.72,-255.03 275.22,-265.03 282.22,-265.03"/>
</g>
<!-- BackgroundRange -->
<g id="node7" class="node">
<title>BackgroundRange</title>
<ellipse fill="khaki" stroke="black" cx="441.72" cy="-397" rx="83.39" ry="18"/>
<text text-anchor="middle" x="441.72" y="-393.3" font-family="Helvetica" font-size="14.00">BackgroundRange</text>
</g>
<!-- BackgroundRange&#45;&gt;CalculateFlatBackground -->
<g id="edge12" class="edge">
<title>BackgroundRange&#45;&gt;CalculateFlatBackground</title>
<path fill="none" stroke="black" d="M440.71,-378.8C440.02,-367.16 439.11,-351.55 438.32,-338.24"/>
<polygon fill="black" stroke="black" points="441.81,-337.95 437.73,-328.18 434.82,-338.36 441.81,-337.95"/>
</g>
<!-- OutputWorkspace -->
<g id="node8" class="node">
<title>OutputWorkspace</title>
<ellipse fill="khaki" stroke="black" cx="278.72" cy="-18" rx="81.49" ry="18"/>
<text text-anchor="middle" x="278.72" y="-14.3" font-family="Helvetica" font-size="14.00">OutputWorkspace</text>
</g>
<!-- Load&#45;&gt;CropWorkspace -->
<g id="edge2" class="edge">
<title>Load&#45;&gt;CropWorkspace</title>
<path fill="none" stroke="black" d="M249.77,-684.99C236.75,-675.75 220.47,-664.19 206.32,-654.14"/>
<polygon fill="black" stroke="black" points="208,-651.05 197.82,-648.11 203.95,-656.76 208,-651.05"/>
</g>
<!-- CropWorkspace&#45;&gt;HaveCalibration -->
<g id="edge4" class="edge">
<title>CropWorkspace&#45;&gt;HaveCalibration</title>
<path fill="none" stroke="black" d="M173.72,-611.81C173.72,-603.79 173.72,-594.05 173.72,-585.07"/>
<polygon fill="black" stroke="black" points="177.22,-585.03 173.72,-575.03 170.22,-585.03 177.22,-585.03"/>
</g>
<!-- Divide&#45;&gt;HaveBackgroundRange -->
<g id="edge8" class="edge">
<title>Divide&#45;&gt;HaveBackgroundRange</title>
<path fill="none" stroke="black" d="M224.38,-451.81C217.99,-442.93 210.09,-431.93 203.1,-422.2"/>
<polygon fill="black" stroke="black" points="205.93,-420.14 197.25,-414.06 200.24,-424.22 205.93,-420.14"/>
</g>
<!-- Transpose -->
<g id="node14" class="node">
<title>Transpose</title>
<path fill="lightskyblue" stroke="black" d="M306.72,-182C306.72,-182 250.72,-182 250.72,-182 244.72,-182 238.72,-176 238.72,-170 238.72,-170 238.72,-158 238.72,-158 238.72,-152 244.72,-146 250.72,-146 250.72,-146 306.72,-146 306.72,-146 312.72,-146 318.72,-152 318.72,-158 318.72,-158 318.72,-170 318.72,-170 318.72,-176 312.72,-182 306.72,-182"/>
<text text-anchor="middle" x="278.72" y="-160.3" font-family="Helvetica" font-size="14.00">Transpose</text>
</g>
<!-- Integration&#45;&gt;Transpose -->
<g id="edge14" class="edge">
<title>Integration&#45;&gt;Transpose</title>
<path fill="none" stroke="black" d="M278.72,-218.81C278.72,-210.79 278.72,-201.05 278.72,-192.07"/>
<polygon fill="black" stroke="black" points="282.22,-192.03 278.72,-182.03 275.22,-192.03 282.22,-192.03"/>
</g>
<!-- CalculateFlatBackground&#45;&gt;Integration -->
<g id="edge13" class="edge">
<title>CalculateFlatBackground&#45;&gt;Integration</title>
<path fill="none" stroke="black" d="M398.88,-291.99C377.05,-282.19 349.41,-269.77 326.15,-259.31"/>
<polygon fill="black" stroke="black" points="327.36,-256.02 316.8,-255.11 324.49,-262.4 327.36,-256.02"/>
</g>
<!-- GroupWorkspaces -->
<g id="node15" class="node">
<title>GroupWorkspaces</title>
<path fill="lightskyblue" stroke="black" d="M331.22,-109C331.22,-109 226.22,-109 226.22,-109 220.22,-109 214.22,-103 214.22,-97 214.22,-97 214.22,-85 214.22,-85 214.22,-79 220.22,-73 226.22,-73 226.22,-73 331.22,-73 331.22,-73 337.22,-73 343.22,-79 343.22,-85 343.22,-85 343.22,-97 343.22,-97 343.22,-103 337.22,-109 331.22,-109"/>
<text text-anchor="middle" x="278.72" y="-87.3" font-family="Helvetica" font-size="14.00">GroupWorkspaces</text>
</g>
<!-- Transpose&#45;&gt;GroupWorkspaces -->
<g id="edge15" class="edge">
<title>Transpose&#45;&gt;GroupWorkspaces</title>
<path fill="none" stroke="black" d="M278.72,-145.81C278.72,-137.79 278.72,-128.05 278.72,-119.07"/>
<polygon fill="black" stroke="black" points="282.22,-119.03 278.72,-109.03 275.22,-119.03 282.22,-119.03"/>
</g>
<!-- GroupWorkspaces&#45;&gt;OutputWorkspace -->
<g id="edge16" class="edge">
<title>GroupWorkspaces&#45;&gt;OutputWorkspace</title>
<path fill="none" stroke="black" d="M278.72,-72.81C278.72,-64.79 278.72,-55.05 278.72,-46.07"/>
<polygon fill="black" stroke="black" points="282.22,-46.03 278.72,-36.03 275.22,-46.03 282.22,-46.03"/>
</g>
</g>
</svg>
