<?xml version="1.0" encoding="UTF-8" standalone="no"?>
<!DOCTYPE svg PUBLIC "-//W3C//DTD SVG 1.1//EN"
 "http://www.w3.org/Graphics/SVG/1.1/DTD/svg11.dtd">
<!-- Generated by graphviz version 3.0.0 (20220315.2325)
 -->
<!-- Title: TimeSlice Pages: 1 -->
<svg width="640pt" height="839pt"
 viewBox="0.00 0.00 639.81 839.00" xmlns="http://www.w3.org/2000/svg" xmlns:xlink="http://www.w3.org/1999/xlink">
<g id="graph0" class="graph" transform="scale(1 1) rotate(0) translate(4 835)">
<title>TimeSlice</title>
<polygon fill="white" stroke="transparent" points="-4,4 -4,-835 635.81,-835 635.81,4 -4,4"/>
<text text-anchor="middle" x="315.9" y="-815.8" font-family="Helvetica,sans-Serif" font-size="14.00">TimeSlice Flowchart</text>
<!-- HaveCalibration -->
<g id="node1" class="node">
<title>HaveCalibration</title>
<polygon fill="limegreen" stroke="black" points="197.62,-575 -0.12,-557 197.62,-539 395.36,-557 197.62,-575"/>
<text text-anchor="middle" x="197.62" y="-553.3" font-family="Helvetica,sans-Serif" font-size="14.00">Have calibration workspace?</text>
</g>
<!-- HaveBackgroundRange -->
<g id="node2" class="node">
<title>HaveBackgroundRange</title>
<polygon fill="limegreen" stroke="black" points="209.62,-415 34,-397 209.62,-379 385.24,-397 209.62,-415"/>
<text text-anchor="middle" x="209.62" y="-393.3" font-family="Helvetica,sans-Serif" font-size="14.00">Have background range?</text>
</g>
<!-- HaveCalibration&#45;&gt;HaveBackgroundRange -->
<g id="edge5" class="edge">
<title>HaveCalibration&#45;&gt;HaveBackgroundRange</title>
<path fill="none" stroke="black" d="M198.9,-539.09C200.97,-511.91 205.04,-458.25 207.53,-425.5"/>
<polygon fill="black" stroke="black" points="211.04,-425.5 208.31,-415.27 204.06,-424.97 211.04,-425.5"/>
<text text-anchor="middle" x="215.12" y="-466.3" font-family="Helvetica,sans-Serif" font-size="14.00">No</text>
</g>
<!-- Divide -->
<g id="node11" class="node">
<title>Divide</title>
<path fill="lightskyblue" stroke="black" d="M282.62,-488C282.62,-488 246.62,-488 246.62,-488 240.62,-488 234.62,-482 234.62,-476 234.62,-476 234.62,-464 234.62,-464 234.62,-458 240.62,-452 246.62,-452 246.62,-452 282.62,-452 282.62,-452 288.62,-452 294.62,-458 294.62,-464 294.62,-464 294.62,-476 294.62,-476 294.62,-482 288.62,-488 282.62,-488"/>
<text text-anchor="middle" x="264.62" y="-466.3" font-family="Helvetica,sans-Serif" font-size="14.00">Divide</text>
</g>
<!-- HaveCalibration&#45;&gt;Divide -->
<g id="edge6" class="edge">
<title>HaveCalibration&#45;&gt;Divide</title>
<path fill="none" stroke="black" d="M210.22,-540.01C219.98,-527.63 233.68,-510.25 244.89,-496.03"/>
<polygon fill="black" stroke="black" points="247.71,-498.1 251.15,-488.08 242.21,-493.77 247.71,-498.1"/>
<text text-anchor="middle" x="246.12" y="-509.8" font-family="Helvetica,sans-Serif" font-size="14.00">Yes</text>
</g>
<!-- Integration -->
<g id="node12" class="node">
<title>Integration</title>
<path fill="lightskyblue" stroke="black" d="M342.12,-255C342.12,-255 273.12,-255 273.12,-255 267.12,-255 261.12,-249 261.12,-243 261.12,-243 261.12,-231 261.12,-231 261.12,-225 267.12,-219 273.12,-219 273.12,-219 342.12,-219 342.12,-219 348.12,-219 354.12,-225 354.12,-231 354.12,-231 354.12,-243 354.12,-243 354.12,-249 348.12,-255 342.12,-255"/>
<text text-anchor="middle" x="307.62" y="-233.3" font-family="Helvetica,sans-Serif" font-size="14.00">Integration</text>
</g>
<!-- HaveBackgroundRange&#45;&gt;Integration -->
<g id="edge9" class="edge">
<title>HaveBackgroundRange&#45;&gt;Integration</title>
<path fill="none" stroke="black" d="M206.68,-379.07C203.8,-357.21 201.98,-318.79 218.62,-292 226.91,-278.65 239.84,-268.14 253.3,-260.08"/>
<polygon fill="black" stroke="black" points="255.14,-263.06 262.17,-255.13 251.73,-256.94 255.14,-263.06"/>
<text text-anchor="middle" x="228.12" y="-306.3" font-family="Helvetica,sans-Serif" font-size="14.00">No</text>
</g>
<!-- CalculateFlatBackground -->
<g id="node13" class="node">
<title>CalculateFlatBackground</title>
<path fill="lightskyblue" stroke="black" d="M564.12,-328C564.12,-328 399.12,-328 399.12,-328 393.12,-328 387.12,-322 387.12,-316 387.12,-316 387.12,-304 387.12,-304 387.12,-298 393.12,-292 399.12,-292 399.12,-292 564.12,-292 564.12,-292 570.12,-292 576.12,-298 576.12,-304 576.12,-304 576.12,-316 576.12,-316 576.12,-322 570.12,-328 564.12,-328"/>
<text text-anchor="middle" x="481.62" y="-306.3" font-family="Helvetica,sans-Serif" font-size="14.00">CalculateFlatBackground</text>
</g>
<!-- HaveBackgroundRange&#45;&gt;CalculateFlatBackground -->
<g id="edge11" class="edge">
<title>HaveBackgroundRange&#45;&gt;CalculateFlatBackground</title>
<path fill="none" stroke="black" d="M250.63,-383.18C294.83,-369.37 365.76,-347.21 417.37,-331.08"/>
<polygon fill="black" stroke="black" points="418.6,-334.36 427.1,-328.04 416.51,-327.68 418.6,-334.36"/>
<text text-anchor="middle" x="373.12" y="-349.8" font-family="Helvetica,sans-Serif" font-size="14.00">Yes</text>
</g>
<!-- InputFiles -->
<g id="node3" class="node">
<title>InputFiles</title>
<ellipse fill="khaki" stroke="black" cx="304.62" cy="-790" rx="54.69" ry="18"/>
<text text-anchor="middle" x="304.62" y="-786.3" font-family="Helvetica,sans-Serif" font-size="14.00">InputFiles</text>
</g>
<!-- Load -->
<g id="node9" class="node">
<title>Load</title>
<path fill="lightskyblue" stroke="black" d="M319.62,-721C319.62,-721 289.62,-721 289.62,-721 283.62,-721 277.62,-715 277.62,-709 277.62,-709 277.62,-697 277.62,-697 277.62,-691 283.62,-685 289.62,-685 289.62,-685 319.62,-685 319.62,-685 325.62,-685 331.62,-691 331.62,-697 331.62,-697 331.62,-709 331.62,-709 331.62,-715 325.62,-721 319.62,-721"/>
<text text-anchor="middle" x="304.62" y="-699.3" font-family="Helvetica,sans-Serif" font-size="14.00">Load</text>
</g>
<!-- InputFiles&#45;&gt;Load -->
<g id="edge1" class="edge">
<title>InputFiles&#45;&gt;Load</title>
<path fill="none" stroke="black" d="M304.62,-771.8C304.62,-760.16 304.62,-744.55 304.62,-731.24"/>
<polygon fill="black" stroke="black" points="308.12,-731.18 304.62,-721.18 301.12,-731.18 308.12,-731.18"/>
<text text-anchor="middle" x="358.12" y="-742.8" font-family="Helvetica,sans-Serif" font-size="14.00">loop for all files</text>
</g>
<!-- CalibrationWorkspace -->
<g id="node4" class="node">
<title>CalibrationWorkspace</title>
<ellipse fill="khaki" stroke="black" cx="522.62" cy="-557" rx="109.38" ry="18"/>
<text text-anchor="middle" x="522.62" y="-553.3" font-family="Helvetica,sans-Serif" font-size="14.00">CalibrationWorkspace</text>
</g>
<!-- CalibrationWorkspace&#45;&gt;Divide -->
<g id="edge7" class="edge">
<title>CalibrationWorkspace&#45;&gt;Divide</title>
<path fill="none" stroke="black" d="M476.2,-540.71C427.27,-524.59 351,-499.46 304.63,-484.18"/>
<polygon fill="black" stroke="black" points="305.53,-480.79 294.93,-480.99 303.34,-487.44 305.53,-480.79"/>
</g>
<!-- SpectraRange -->
<g id="node5" class="node">
<title>SpectraRange</title>
<ellipse fill="khaki" stroke="black" cx="185.62" cy="-703" rx="74.19" ry="18"/>
<text text-anchor="middle" x="185.62" y="-699.3" font-family="Helvetica,sans-Serif" font-size="14.00">SpectraRange</text>
</g>
<!-- CropWorkspace -->
<g id="node10" class="node">
<title>CropWorkspace</title>
<path fill="lightskyblue" stroke="black" d="M248.12,-648C248.12,-648 147.12,-648 147.12,-648 141.12,-648 135.12,-642 135.12,-636 135.12,-636 135.12,-624 135.12,-624 135.12,-618 141.12,-612 147.12,-612 147.12,-612 248.12,-612 248.12,-612 254.12,-612 260.12,-618 260.12,-624 260.12,-624 260.12,-636 260.12,-636 260.12,-642 254.12,-648 248.12,-648"/>
<text text-anchor="middle" x="197.62" y="-626.3" font-family="Helvetica,sans-Serif" font-size="14.00">CropWorkspace</text>
</g>
<!-- SpectraRange&#45;&gt;CropWorkspace -->
<g id="edge3" class="edge">
<title>SpectraRange&#45;&gt;CropWorkspace</title>
<path fill="none" stroke="black" d="M188.52,-684.81C189.88,-676.79 191.53,-667.05 193.04,-658.07"/>
<polygon fill="black" stroke="black" points="196.53,-658.47 194.74,-648.03 189.62,-657.31 196.53,-658.47"/>
</g>
<!-- PeakRange -->
<g id="node6" class="node">
<title>PeakRange</title>
<ellipse fill="khaki" stroke="black" cx="307.62" cy="-310" rx="61.19" ry="18"/>
<text text-anchor="middle" x="307.62" y="-306.3" font-family="Helvetica,sans-Serif" font-size="14.00">PeakRange</text>
</g>
<!-- PeakRange&#45;&gt;Integration -->
<g id="edge10" class="edge">
<title>PeakRange&#45;&gt;Integration</title>
<path fill="none" stroke="black" d="M307.62,-291.81C307.62,-283.79 307.62,-274.05 307.62,-265.07"/>
<polygon fill="black" stroke="black" points="311.12,-265.03 307.62,-255.03 304.12,-265.03 311.12,-265.03"/>
</g>
<!-- BackgroundRange -->
<g id="node7" class="node">
<title>BackgroundRange</title>
<ellipse fill="khaki" stroke="black" cx="496.62" cy="-397" rx="93.68" ry="18"/>
<text text-anchor="middle" x="496.62" y="-393.3" font-family="Helvetica,sans-Serif" font-size="14.00">BackgroundRange</text>
</g>
<!-- BackgroundRange&#45;&gt;CalculateFlatBackground -->
<g id="edge12" class="edge">
<title>BackgroundRange&#45;&gt;CalculateFlatBackground</title>
<path fill="none" stroke="black" d="M493.58,-378.8C491.53,-367.16 488.77,-351.55 486.43,-338.24"/>
<polygon fill="black" stroke="black" points="489.83,-337.41 484.65,-328.18 482.94,-338.63 489.83,-337.41"/>
</g>
<!-- OutputWorkspace -->
<g id="node8" class="node">
<title>OutputWorkspace</title>
<ellipse fill="khaki" stroke="black" cx="307.62" cy="-18" rx="92.08" ry="18"/>
<text text-anchor="middle" x="307.62" y="-14.3" font-family="Helvetica,sans-Serif" font-size="14.00">OutputWorkspace</text>
</g>
<!-- Load&#45;&gt;CropWorkspace -->
<g id="edge2" class="edge">
<title>Load&#45;&gt;CropWorkspace</title>
<path fill="none" stroke="black" d="M278.99,-684.99C264.93,-675.67 247.31,-663.97 232.07,-653.86"/>
<polygon fill="black" stroke="black" points="233.68,-650.73 223.41,-648.11 229.81,-656.56 233.68,-650.73"/>
</g>
<!-- CropWorkspace&#45;&gt;HaveCalibration -->
<g id="edge4" class="edge">
<title>CropWorkspace&#45;&gt;HaveCalibration</title>
<path fill="none" stroke="black" d="M197.62,-611.81C197.62,-603.79 197.62,-594.05 197.62,-585.07"/>
<polygon fill="black" stroke="black" points="201.12,-585.03 197.62,-575.03 194.12,-585.03 201.12,-585.03"/>
</g>
<!-- Divide&#45;&gt;HaveBackgroundRange -->
<g id="edge8" class="edge">
<title>Divide&#45;&gt;HaveBackgroundRange</title>
<path fill="none" stroke="black" d="M251.3,-451.81C244.42,-442.93 235.9,-431.93 228.36,-422.2"/>
<polygon fill="black" stroke="black" points="230.95,-419.82 222.06,-414.06 225.41,-424.1 230.95,-419.82"/>
</g>
<!-- Transpose -->
<g id="node14" class="node">
<title>Transpose</title>
<path fill="lightskyblue" stroke="black" d="M338.62,-182C338.62,-182 276.62,-182 276.62,-182 270.62,-182 264.62,-176 264.62,-170 264.62,-170 264.62,-158 264.62,-158 264.62,-152 270.62,-146 276.62,-146 276.62,-146 338.62,-146 338.62,-146 344.62,-146 350.62,-152 350.62,-158 350.62,-158 350.62,-170 350.62,-170 350.62,-176 344.62,-182 338.62,-182"/>
<text text-anchor="middle" x="307.62" y="-160.3" font-family="Helvetica,sans-Serif" font-size="14.00">Transpose</text>
</g>
<!-- Integration&#45;&gt;Transpose -->
<g id="edge14" class="edge">
<title>Integration&#45;&gt;Transpose</title>
<path fill="none" stroke="black" d="M307.62,-218.81C307.62,-210.79 307.62,-201.05 307.62,-192.07"/>
<polygon fill="black" stroke="black" points="311.12,-192.03 307.62,-182.03 304.12,-192.03 311.12,-192.03"/>
</g>
<!-- CalculateFlatBackground&#45;&gt;Integration -->
<g id="edge13" class="edge">
<title>CalculateFlatBackground&#45;&gt;Integration</title>
<path fill="none" stroke="black" d="M439.94,-291.99C415.59,-282.06 384.66,-269.43 358.82,-258.89"/>
<polygon fill="black" stroke="black" points="360.14,-255.65 349.56,-255.11 357.5,-262.13 360.14,-255.65"/>
</g>
<!-- GroupWorkspaces -->
<g id="node15" class="node">
<title>GroupWorkspaces</title>
<path fill="lightskyblue" stroke="black" d="M367.12,-109C367.12,-109 248.12,-109 248.12,-109 242.12,-109 236.12,-103 236.12,-97 236.12,-97 236.12,-85 236.12,-85 236.12,-79 242.12,-73 248.12,-73 248.12,-73 367.12,-73 367.12,-73 373.12,-73 379.12,-79 379.12,-85 379.12,-85 379.12,-97 379.12,-97 379.12,-103 373.12,-109 367.12,-109"/>
<text text-anchor="middle" x="307.62" y="-87.3" font-family="Helvetica,sans-Serif" font-size="14.00">GroupWorkspaces</text>
</g>
<!-- Transpose&#45;&gt;GroupWorkspaces -->
<g id="edge15" class="edge">
<title>Transpose&#45;&gt;GroupWorkspaces</title>
<path fill="none" stroke="black" d="M307.62,-145.81C307.62,-137.79 307.62,-128.05 307.62,-119.07"/>
<polygon fill="black" stroke="black" points="311.12,-119.03 307.62,-109.03 304.12,-119.03 311.12,-119.03"/>
</g>
<!-- GroupWorkspaces&#45;&gt;OutputWorkspace -->
<g id="edge16" class="edge">
<title>GroupWorkspaces&#45;&gt;OutputWorkspace</title>
<path fill="none" stroke="black" d="M307.62,-72.81C307.62,-64.79 307.62,-55.05 307.62,-46.07"/>
<polygon fill="black" stroke="black" points="311.12,-46.03 307.62,-36.03 304.12,-46.03 311.12,-46.03"/>
</g>
</g>
</svg>
