<?xml version="1.0" encoding="UTF-8" standalone="no"?>
<!DOCTYPE svg PUBLIC "-//W3C//DTD SVG 1.1//EN"
 "http://www.w3.org/Graphics/SVG/1.1/DTD/svg11.dtd">
<!-- Generated by graphviz version 2.40.1 (20161225.0304)
 -->
<!-- Title: TotScatCalculateSelfScattering Pages: 1 -->
<svg width="677pt" height="863pt"
 viewBox="0.00 0.00 676.74 863.00" xmlns="http://www.w3.org/2000/svg" xmlns:xlink="http://www.w3.org/1999/xlink">
<g id="graph0" class="graph" transform="scale(1 1) rotate(0) translate(4 859)">
<title>TotScatCalculateSelfScattering</title>
<polygon fill="#ffffff" stroke="transparent" points="-4,4 -4,-859 672.7434,-859 672.7434,4 -4,4"/>
<text text-anchor="middle" x="334.3717" y="-839.8" font-family="Helvetica,sans-Serif" font-size="14.00" fill="#000000">TotScatCalculateSelfScattering Workflow Diagram</text>
<!-- inputWorkspace -->
<g id="node1" class="node">
<title>inputWorkspace</title>
<ellipse fill="#f0e68c" stroke="#000000" cx="74.7434" cy="-814" rx="74.9875" ry="18"/>
<text text-anchor="middle" x="74.7434" y="-810.3" font-family="Helvetica,sans-Serif" font-size="14.00" fill="#000000">InputWorkspace</text>
</g>
<!-- SetSample -->
<g id="node8" class="node">
<title>SetSample</title>
<path fill="#87cefa" stroke="#000000" d="M286.2434,-760C286.2434,-760 209.2434,-760 209.2434,-760 203.2434,-760 197.2434,-754 197.2434,-748 197.2434,-748 197.2434,-736 197.2434,-736 197.2434,-730 203.2434,-724 209.2434,-724 209.2434,-724 286.2434,-724 286.2434,-724 292.2434,-724 298.2434,-730 298.2434,-736 298.2434,-736 298.2434,-748 298.2434,-748 298.2434,-754 292.2434,-760 286.2434,-760"/>
<text text-anchor="middle" x="247.7434" y="-738.3" font-family="Helvetica,sans-Serif" font-size="14.00" fill="#000000">SetSample v1</text>
</g>
<!-- inputWorkspace&#45;&gt;SetSample -->
<g id="edge1" class="edge">
<title>inputWorkspace&#45;&gt;SetSample</title>
<path fill="none" stroke="#000000" d="M112.2818,-798.3771C136.4442,-788.321 168.2065,-775.102 194.9016,-763.9919"/>
<polygon fill="#000000" stroke="#000000" points="196.5964,-767.0777 204.4839,-760.0039 193.9067,-760.615 196.5964,-767.0777"/>
</g>
<!-- outputWorkspace -->
<g id="node2" class="node">
<title>outputWorkspace</title>
<ellipse fill="#f0e68c" stroke="#000000" cx="505.7434" cy="-18" rx="81.7856" ry="18"/>
<text text-anchor="middle" x="505.7434" y="-14.3" font-family="Helvetica,sans-Serif" font-size="14.00" fill="#000000">OutputWorkspace</text>
</g>
<!-- calFileName -->
<g id="node3" class="node">
<title>calFileName</title>
<ellipse fill="#f0e68c" stroke="#000000" cx="569.7434" cy="-380" rx="61.99" ry="18"/>
<text text-anchor="middle" x="569.7434" y="-376.3" font-family="Helvetica,sans-Serif" font-size="14.00" fill="#000000">CalFileName</text>
</g>
<!-- LoadCalFile -->
<g id="node13" class="node">
<title>LoadCalFile</title>
<path fill="#87cefa" stroke="#000000" d="M611.2434,-326C611.2434,-326 528.2434,-326 528.2434,-326 522.2434,-326 516.2434,-320 516.2434,-314 516.2434,-314 516.2434,-302 516.2434,-302 516.2434,-296 522.2434,-290 528.2434,-290 528.2434,-290 611.2434,-290 611.2434,-290 617.2434,-290 623.2434,-296 623.2434,-302 623.2434,-302 623.2434,-314 623.2434,-314 623.2434,-320 617.2434,-326 611.2434,-326"/>
<text text-anchor="middle" x="569.7434" y="-304.3" font-family="Helvetica,sans-Serif" font-size="14.00" fill="#000000">LoadCalFile v1</text>
</g>
<!-- calFileName&#45;&gt;LoadCalFile -->
<g id="edge10" class="edge">
<title>calFileName&#45;&gt;LoadCalFile</title>
<path fill="none" stroke="#000000" d="M569.7434,-361.8314C569.7434,-354.131 569.7434,-344.9743 569.7434,-336.4166"/>
<polygon fill="#000000" stroke="#000000" points="573.2435,-336.4132 569.7434,-326.4133 566.2435,-336.4133 573.2435,-336.4132"/>
</g>
<!-- sampleGeometry -->
<g id="node4" class="node">
<title>sampleGeometry</title>
<ellipse fill="#f0e68c" stroke="#000000" cx="247.7434" cy="-814" rx="80.6858" ry="18"/>
<text text-anchor="middle" x="247.7434" y="-810.3" font-family="Helvetica,sans-Serif" font-size="14.00" fill="#000000">SampleGeometry</text>
</g>
<!-- sampleGeometry&#45;&gt;SetSample -->
<g id="edge2" class="edge">
<title>sampleGeometry&#45;&gt;SetSample</title>
<path fill="none" stroke="#000000" d="M247.7434,-795.8314C247.7434,-788.131 247.7434,-778.9743 247.7434,-770.4166"/>
<polygon fill="#000000" stroke="#000000" points="251.2435,-770.4132 247.7434,-760.4133 244.2435,-770.4133 251.2435,-770.4132"/>
</g>
<!-- sampleMaterial -->
<g id="node5" class="node">
<title>sampleMaterial</title>
<ellipse fill="#f0e68c" stroke="#000000" cx="418.7434" cy="-814" rx="72.5877" ry="18"/>
<text text-anchor="middle" x="418.7434" y="-810.3" font-family="Helvetica,sans-Serif" font-size="14.00" fill="#000000">SampleMaterial</text>
</g>
<!-- sampleMaterial&#45;&gt;SetSample -->
<g id="edge3" class="edge">
<title>sampleMaterial&#45;&gt;SetSample</title>
<path fill="none" stroke="#000000" d="M381.6389,-798.3771C357.7558,-788.321 326.3607,-775.102 299.9742,-763.9919"/>
<polygon fill="#000000" stroke="#000000" points="301.0773,-760.6588 290.5027,-760.0039 298.3608,-767.1103 301.0773,-760.6588"/>
</g>
<!-- placzekOrder -->
<g id="node6" class="node">
<title>placzekOrder</title>
<ellipse fill="#f0e68c" stroke="#000000" cx="407.7434" cy="-452" rx="64.189" ry="18"/>
<text text-anchor="middle" x="407.7434" y="-448.3" font-family="Helvetica,sans-Serif" font-size="14.00" fill="#000000">PlaczekOrder</text>
</g>
<!-- CalculatePlaczek -->
<g id="node12" class="node">
<title>CalculatePlaczek</title>
<path fill="#87cefa" stroke="#000000" d="M464.7434,-398C464.7434,-398 350.7434,-398 350.7434,-398 344.7434,-398 338.7434,-392 338.7434,-386 338.7434,-386 338.7434,-374 338.7434,-374 338.7434,-368 344.7434,-362 350.7434,-362 350.7434,-362 464.7434,-362 464.7434,-362 470.7434,-362 476.7434,-368 476.7434,-374 476.7434,-374 476.7434,-386 476.7434,-386 476.7434,-392 470.7434,-398 464.7434,-398"/>
<text text-anchor="middle" x="407.7434" y="-376.3" font-family="Helvetica,sans-Serif" font-size="14.00" fill="#000000">CalculatePlaczek v1</text>
</g>
<!-- placzekOrder&#45;&gt;CalculatePlaczek -->
<g id="edge12" class="edge">
<title>placzekOrder&#45;&gt;CalculatePlaczek</title>
<path fill="none" stroke="#000000" d="M407.7434,-433.8314C407.7434,-426.131 407.7434,-416.9743 407.7434,-408.4166"/>
<polygon fill="#000000" stroke="#000000" points="411.2435,-408.4132 407.7434,-398.4133 404.2435,-408.4133 411.2435,-408.4132"/>
</g>
<!-- sampleTemp -->
<g id="node7" class="node">
<title>sampleTemp</title>
<ellipse fill="#f0e68c" stroke="#000000" cx="553.7434" cy="-452" rx="63.8893" ry="18"/>
<text text-anchor="middle" x="553.7434" y="-448.3" font-family="Helvetica,sans-Serif" font-size="14.00" fill="#000000">SampleTemp</text>
</g>
<!-- sampleTemp&#45;&gt;CalculatePlaczek -->
<g id="edge13" class="edge">
<title>sampleTemp&#45;&gt;CalculatePlaczek</title>
<path fill="none" stroke="#000000" d="M522.0635,-436.3771C501.9404,-426.4533 475.5712,-413.4494 453.2296,-402.4316"/>
<polygon fill="#000000" stroke="#000000" points="454.7681,-399.2879 444.2513,-398.0039 451.672,-405.566 454.7681,-399.2879"/>
</g>
<!-- ExtractSpectra -->
<g id="node9" class="node">
<title>ExtractSpectra</title>
<path fill="#87cefa" stroke="#000000" d="M297.2434,-614C297.2434,-614 198.2434,-614 198.2434,-614 192.2434,-614 186.2434,-608 186.2434,-602 186.2434,-602 186.2434,-590 186.2434,-590 186.2434,-584 192.2434,-578 198.2434,-578 198.2434,-578 297.2434,-578 297.2434,-578 303.2434,-578 309.2434,-584 309.2434,-590 309.2434,-590 309.2434,-602 309.2434,-602 309.2434,-608 303.2434,-614 297.2434,-614"/>
<text text-anchor="middle" x="247.7434" y="-592.3" font-family="Helvetica,sans-Serif" font-size="14.00" fill="#000000">ExtractSpectra v1</text>
</g>
<!-- SetSample&#45;&gt;ExtractSpectra -->
<g id="edge5" class="edge">
<title>SetSample&#45;&gt;ExtractSpectra</title>
<path fill="none" stroke="#000000" d="M268.1459,-723.5625C277.2375,-713.9675 286.9596,-701.4441 291.7434,-688 297.4051,-672.0884 297.4051,-665.9116 291.7434,-650 288.1555,-639.9169 281.7899,-630.3517 274.9958,-622.1515"/>
<polygon fill="#000000" stroke="#000000" points="277.4029,-619.591 268.1459,-614.4375 272.1687,-624.2389 277.4029,-619.591"/>
</g>
<!-- FindMonitorSpectra -->
<g id="node19" class="node">
<title>FindMonitorSpectra</title>
<polygon fill="#20b2aa" stroke="#000000" points="282.7434,-688 86.7434,-688 86.7434,-650 282.7434,-650 282.7434,-688"/>
<text text-anchor="middle" x="184.7434" y="-672.8" font-family="Helvetica,sans-Serif" font-size="14.00" fill="#000000">Find the Monitor</text>
<text text-anchor="middle" x="184.7434" y="-657.8" font-family="Helvetica,sans-Serif" font-size="14.00" fill="#000000"> spectra closest to the sample</text>
</g>
<!-- SetSample&#45;&gt;FindMonitorSpectra -->
<g id="edge4" class="edge">
<title>SetSample&#45;&gt;FindMonitorSpectra</title>
<path fill="none" stroke="#000000" d="M232.1703,-723.9551C224.8259,-715.4448 215.9138,-705.1181 207.8066,-695.7241"/>
<polygon fill="#000000" stroke="#000000" points="210.4212,-693.3967 201.238,-688.1128 205.1218,-697.9702 210.4212,-693.3967"/>
</g>
<!-- ConvertUnits1 -->
<g id="node10" class="node">
<title>ConvertUnits1</title>
<path fill="#87cefa" stroke="#000000" d="M292.2434,-542C292.2434,-542 203.2434,-542 203.2434,-542 197.2434,-542 191.2434,-536 191.2434,-530 191.2434,-530 191.2434,-518 191.2434,-518 191.2434,-512 197.2434,-506 203.2434,-506 203.2434,-506 292.2434,-506 292.2434,-506 298.2434,-506 304.2434,-512 304.2434,-518 304.2434,-518 304.2434,-530 304.2434,-530 304.2434,-536 298.2434,-542 292.2434,-542"/>
<text text-anchor="middle" x="247.7434" y="-520.3" font-family="Helvetica,sans-Serif" font-size="14.00" fill="#000000">ConvertUnits v1</text>
</g>
<!-- ExtractSpectra&#45;&gt;ConvertUnits1 -->
<g id="edge7" class="edge">
<title>ExtractSpectra&#45;&gt;ConvertUnits1</title>
<path fill="none" stroke="#000000" d="M247.7434,-577.8314C247.7434,-570.131 247.7434,-560.9743 247.7434,-552.4166"/>
<polygon fill="#000000" stroke="#000000" points="251.2435,-552.4132 247.7434,-542.4133 244.2435,-552.4133 251.2435,-552.4132"/>
</g>
<!-- FitIncidentSpectrum -->
<g id="node11" class="node">
<title>FitIncidentSpectrum</title>
<path fill="#87cefa" stroke="#000000" d="M313.2434,-470C313.2434,-470 182.2434,-470 182.2434,-470 176.2434,-470 170.2434,-464 170.2434,-458 170.2434,-458 170.2434,-446 170.2434,-446 170.2434,-440 176.2434,-434 182.2434,-434 182.2434,-434 313.2434,-434 313.2434,-434 319.2434,-434 325.2434,-440 325.2434,-446 325.2434,-446 325.2434,-458 325.2434,-458 325.2434,-464 319.2434,-470 313.2434,-470"/>
<text text-anchor="middle" x="247.7434" y="-448.3" font-family="Helvetica,sans-Serif" font-size="14.00" fill="#000000">FitIncidentSpectrum v1</text>
</g>
<!-- ConvertUnits1&#45;&gt;FitIncidentSpectrum -->
<g id="edge8" class="edge">
<title>ConvertUnits1&#45;&gt;FitIncidentSpectrum</title>
<path fill="none" stroke="#000000" d="M247.7434,-505.8314C247.7434,-498.131 247.7434,-488.9743 247.7434,-480.4166"/>
<polygon fill="#000000" stroke="#000000" points="251.2435,-480.4132 247.7434,-470.4133 244.2435,-480.4133 251.2435,-480.4132"/>
</g>
<!-- FitIncidentSpectrum&#45;&gt;CalculatePlaczek -->
<g id="edge9" class="edge">
<title>FitIncidentSpectrum&#45;&gt;CalculatePlaczek</title>
<path fill="none" stroke="#000000" d="M288.1181,-433.8314C309.4221,-424.2446 335.7417,-412.4008 358.2645,-402.2655"/>
<polygon fill="#000000" stroke="#000000" points="359.976,-405.3334 367.6589,-398.038 357.1034,-398.95 359.976,-405.3334"/>
</g>
<!-- ConvertUnits2 -->
<g id="node17" class="node">
<title>ConvertUnits2</title>
<path fill="#87cefa" stroke="#000000" d="M452.2434,-326C452.2434,-326 363.2434,-326 363.2434,-326 357.2434,-326 351.2434,-320 351.2434,-314 351.2434,-314 351.2434,-302 351.2434,-302 351.2434,-296 357.2434,-290 363.2434,-290 363.2434,-290 452.2434,-290 452.2434,-290 458.2434,-290 464.2434,-296 464.2434,-302 464.2434,-302 464.2434,-314 464.2434,-314 464.2434,-320 458.2434,-326 452.2434,-326"/>
<text text-anchor="middle" x="407.7434" y="-304.3" font-family="Helvetica,sans-Serif" font-size="14.00" fill="#000000">ConvertUnits v1</text>
</g>
<!-- CalculatePlaczek&#45;&gt;ConvertUnits2 -->
<g id="edge14" class="edge">
<title>CalculatePlaczek&#45;&gt;ConvertUnits2</title>
<path fill="none" stroke="#000000" d="M407.7434,-361.8314C407.7434,-354.131 407.7434,-344.9743 407.7434,-336.4166"/>
<polygon fill="#000000" stroke="#000000" points="411.2435,-336.4132 407.7434,-326.4133 404.2435,-336.4133 411.2435,-336.4132"/>
</g>
<!-- GroupDetectors -->
<g id="node14" class="node">
<title>GroupDetectors</title>
<path fill="#87cefa" stroke="#000000" d="M482.2434,-180C482.2434,-180 375.2434,-180 375.2434,-180 369.2434,-180 363.2434,-174 363.2434,-168 363.2434,-168 363.2434,-156 363.2434,-156 363.2434,-150 369.2434,-144 375.2434,-144 375.2434,-144 482.2434,-144 482.2434,-144 488.2434,-144 494.2434,-150 494.2434,-156 494.2434,-156 494.2434,-168 494.2434,-168 494.2434,-174 488.2434,-180 482.2434,-180"/>
<text text-anchor="middle" x="428.7434" y="-158.3" font-family="Helvetica,sans-Serif" font-size="14.00" fill="#000000">GroupDetectors v2</text>
</g>
<!-- LoadCalFile&#45;&gt;GroupDetectors -->
<g id="edge11" class="edge">
<title>LoadCalFile&#45;&gt;GroupDetectors</title>
<path fill="none" stroke="#000000" d="M536.8103,-289.8399C521.4458,-280.396 503.5492,-267.9203 489.7434,-254 470.6078,-234.7057 453.9557,-208.56 442.9066,-189.0721"/>
<polygon fill="#000000" stroke="#000000" points="445.8476,-187.1578 437.9463,-180.0994 439.7214,-190.5445 445.8476,-187.1578"/>
</g>
<!-- GetPixelNumberInDetector -->
<g id="node20" class="node">
<title>GetPixelNumberInDetector</title>
<polygon fill="#20b2aa" stroke="#000000" points="668.7434,-254 498.7434,-254 498.7434,-216 668.7434,-216 668.7434,-254"/>
<text text-anchor="middle" x="583.7434" y="-238.8" font-family="Helvetica,sans-Serif" font-size="14.00" fill="#000000">Count the number</text>
<text text-anchor="middle" x="583.7434" y="-223.8" font-family="Helvetica,sans-Serif" font-size="14.00" fill="#000000"> of pixels in each detector</text>
</g>
<!-- LoadCalFile&#45;&gt;GetPixelNumberInDetector -->
<g id="edge17" class="edge">
<title>LoadCalFile&#45;&gt;GetPixelNumberInDetector</title>
<path fill="none" stroke="#000000" d="M573.204,-289.9551C574.7056,-282.1256 576.502,-272.7587 578.1827,-263.9952"/>
<polygon fill="#000000" stroke="#000000" points="581.6317,-264.5931 580.0779,-254.1128 574.757,-263.2746 581.6317,-264.5931"/>
</g>
<!-- Divide -->
<g id="node16" class="node">
<title>Divide</title>
<path fill="#87cefa" stroke="#000000" d="M529.7434,-108C529.7434,-108 481.7434,-108 481.7434,-108 475.7434,-108 469.7434,-102 469.7434,-96 469.7434,-96 469.7434,-84 469.7434,-84 469.7434,-78 475.7434,-72 481.7434,-72 481.7434,-72 529.7434,-72 529.7434,-72 535.7434,-72 541.7434,-78 541.7434,-84 541.7434,-84 541.7434,-96 541.7434,-96 541.7434,-102 535.7434,-108 529.7434,-108"/>
<text text-anchor="middle" x="505.7434" y="-86.3" font-family="Helvetica,sans-Serif" font-size="14.00" fill="#000000">Divide v1</text>
</g>
<!-- GroupDetectors&#45;&gt;Divide -->
<g id="edge20" class="edge">
<title>GroupDetectors&#45;&gt;Divide</title>
<path fill="none" stroke="#000000" d="M448.1737,-143.8314C457.4753,-135.1337 468.7638,-124.5783 478.8719,-115.1265"/>
<polygon fill="#000000" stroke="#000000" points="481.4055,-117.5493 486.3192,-108.1628 476.6245,-112.4363 481.4055,-117.5493"/>
</g>
<!-- CreateWorkspace -->
<g id="node15" class="node">
<title>CreateWorkspace</title>
<path fill="#87cefa" stroke="#000000" d="M643.2434,-180C643.2434,-180 524.2434,-180 524.2434,-180 518.2434,-180 512.2434,-174 512.2434,-168 512.2434,-168 512.2434,-156 512.2434,-156 512.2434,-150 518.2434,-144 524.2434,-144 524.2434,-144 643.2434,-144 643.2434,-144 649.2434,-144 655.2434,-150 655.2434,-156 655.2434,-156 655.2434,-168 655.2434,-168 655.2434,-174 649.2434,-180 643.2434,-180"/>
<text text-anchor="middle" x="583.7434" y="-158.3" font-family="Helvetica,sans-Serif" font-size="14.00" fill="#000000">CreateWorkspace v1</text>
</g>
<!-- CreateWorkspace&#45;&gt;Divide -->
<g id="edge19" class="edge">
<title>CreateWorkspace&#45;&gt;Divide</title>
<path fill="none" stroke="#000000" d="M564.0607,-143.8314C554.6383,-135.1337 543.2032,-124.5783 532.9638,-115.1265"/>
<polygon fill="#000000" stroke="#000000" points="535.1418,-112.3738 525.4198,-108.1628 530.3938,-117.5175 535.1418,-112.3738"/>
</g>
<!-- Divide&#45;&gt;outputWorkspace -->
<g id="edge21" class="edge">
<title>Divide&#45;&gt;outputWorkspace</title>
<path fill="none" stroke="#000000" d="M505.7434,-71.8314C505.7434,-64.131 505.7434,-54.9743 505.7434,-46.4166"/>
<polygon fill="#000000" stroke="#000000" points="509.2435,-46.4132 505.7434,-36.4133 502.2435,-46.4133 509.2435,-46.4132"/>
</g>
<!-- Rebin -->
<g id="node18" class="node">
<title>Rebin</title>
<path fill="#87cefa" stroke="#000000" d="M430.7434,-253C430.7434,-253 384.7434,-253 384.7434,-253 378.7434,-253 372.7434,-247 372.7434,-241 372.7434,-241 372.7434,-229 372.7434,-229 372.7434,-223 378.7434,-217 384.7434,-217 384.7434,-217 430.7434,-217 430.7434,-217 436.7434,-217 442.7434,-223 442.7434,-229 442.7434,-229 442.7434,-241 442.7434,-241 442.7434,-247 436.7434,-253 430.7434,-253"/>
<text text-anchor="middle" x="407.7434" y="-231.3" font-family="Helvetica,sans-Serif" font-size="14.00" fill="#000000">Rebin v1</text>
</g>
<!-- ConvertUnits2&#45;&gt;Rebin -->
<g id="edge15" class="edge">
<title>ConvertUnits2&#45;&gt;Rebin</title>
<path fill="none" stroke="#000000" d="M407.7434,-289.9551C407.7434,-281.8828 407.7434,-272.1764 407.7434,-263.1817"/>
<polygon fill="#000000" stroke="#000000" points="411.2435,-263.0903 407.7434,-253.0904 404.2435,-263.0904 411.2435,-263.0903"/>
</g>
<!-- Rebin&#45;&gt;GroupDetectors -->
<g id="edge16" class="edge">
<title>Rebin&#45;&gt;GroupDetectors</title>
<path fill="none" stroke="#000000" d="M412.9344,-216.9551C415.2818,-208.7951 418.1096,-198.9652 420.7206,-189.8887"/>
<polygon fill="#000000" stroke="#000000" points="424.1382,-190.6683 423.5393,-180.0904 417.411,-188.733 424.1382,-190.6683"/>
</g>
<!-- FindMonitorSpectra&#45;&gt;ExtractSpectra -->
<g id="edge6" class="edge">
<title>FindMonitorSpectra&#45;&gt;ExtractSpectra</title>
<path fill="none" stroke="#000000" d="M201.2959,-649.8201C208.6271,-641.3252 217.3645,-631.2009 225.2726,-622.0375"/>
<polygon fill="#000000" stroke="#000000" points="228.0687,-624.1547 231.9525,-614.2973 222.7693,-619.5812 228.0687,-624.1547"/>
</g>
<!-- GetPixelNumberInDetector&#45;&gt;CreateWorkspace -->
<g id="edge18" class="edge">
<title>GetPixelNumberInDetector&#45;&gt;CreateWorkspace</title>
<path fill="none" stroke="#000000" d="M583.7434,-215.8201C583.7434,-208.0975 583.7434,-199.0282 583.7434,-190.5585"/>
<polygon fill="#000000" stroke="#000000" points="587.2435,-190.2973 583.7434,-180.2973 580.2435,-190.2974 587.2435,-190.2973"/>
</g>
</g>
</svg>
