<?xml version="1.0" encoding="UTF-8" standalone="no"?>
<!DOCTYPE svg PUBLIC "-//W3C//DTD SVG 1.1//EN"
 "http://www.w3.org/Graphics/SVG/1.1/DTD/svg11.dtd">
<!-- Generated by graphviz version 2.47.2 (20210527.1257)
 -->
<!-- Title: TransformToIqt Pages: 1 -->
<svg width="670pt" height="655pt"
 viewBox="0.00 0.00 670.14 655.00" xmlns="http://www.w3.org/2000/svg" xmlns:xlink="http://www.w3.org/1999/xlink">
<g id="graph0" class="graph" transform="scale(1 1) rotate(0) translate(4 651)">
<title>TransformToIqt</title>
<polygon fill="white" stroke="transparent" points="-4,4 -4,-651 666.14,-651 666.14,4 -4,4"/>
<text text-anchor="middle" x="331.07" y="-631.8" font-family="Helvetica" font-size="14.00">TransformToIqt Flowchart</text>
<!-- IsDryRun -->
<g id="node1" class="node">
<title>IsDryRun</title>
<polygon fill="limegreen" stroke="black" points="110.14,-551 45.96,-533 110.14,-515 174.32,-533 110.14,-551"/>
<text text-anchor="middle" x="110.14" y="-529.3" font-family="Helvetica" font-size="14.00">DryRun?</text>
</g>
<!-- Rebin_Sample -->
<g id="node11" class="node">
<title>Rebin_Sample</title>
<path fill="lightskyblue" stroke="black" d="M137.14,-464C137.14,-464 107.14,-464 107.14,-464 101.14,-464 95.14,-458 95.14,-452 95.14,-452 95.14,-440 95.14,-440 95.14,-434 101.14,-428 107.14,-428 107.14,-428 137.14,-428 137.14,-428 143.14,-428 149.14,-434 149.14,-440 149.14,-440 149.14,-452 149.14,-452 149.14,-458 143.14,-464 137.14,-464"/>
<text text-anchor="middle" x="122.14" y="-442.3" font-family="Helvetica" font-size="14.00">Rebin</text>
</g>
<!-- IsDryRun&#45;&gt;Rebin_Sample -->
<g id="edge7" class="edge">
<title>IsDryRun&#45;&gt;Rebin_Sample</title>
<path fill="none" stroke="black" d="M112.46,-515.61C114.1,-503.96 116.35,-488.04 118.26,-474.47"/>
<polygon fill="black" stroke="black" points="121.78,-474.6 119.71,-464.21 114.85,-473.63 121.78,-474.6"/>
<text text-anchor="middle" x="126.14" y="-485.8" font-family="Helvetica" font-size="14.00">No</text>
</g>
<!-- CalculateBinningParameters -->
<g id="node2" class="node">
<title>CalculateBinningParameters</title>
<polygon fill="lightseagreen" stroke="black" points="385.64,-551 192.64,-551 192.64,-515 385.64,-515 385.64,-551"/>
<text text-anchor="middle" x="289.14" y="-529.3" font-family="Helvetica" font-size="14.00">Calculate binning parameters</text>
</g>
<!-- ParameterWorkspace -->
<g id="node8" class="node">
<title>ParameterWorkspace</title>
<ellipse fill="khaki" stroke="black" cx="264.14" cy="-446" rx="96.38" ry="18"/>
<text text-anchor="middle" x="264.14" y="-442.3" font-family="Helvetica" font-size="14.00">ParameterWorkspace</text>
</g>
<!-- CalculateBinningParameters&#45;&gt;ParameterWorkspace -->
<g id="edge5" class="edge">
<title>CalculateBinningParameters&#45;&gt;ParameterWorkspace</title>
<path fill="none" stroke="black" d="M284.08,-514.8C280.63,-503.05 275.98,-487.24 272.04,-473.84"/>
<polygon fill="black" stroke="black" points="275.37,-472.78 269.19,-464.18 268.66,-474.76 275.37,-472.78"/>
</g>
<!-- CalculateBinningParameters&#45;&gt;Rebin_Sample -->
<g id="edge8" class="edge">
<title>CalculateBinningParameters&#45;&gt;Rebin_Sample</title>
<path fill="none" stroke="black" d="M255.35,-514.8C227.14,-500.44 187.03,-480.03 158.21,-465.36"/>
<polygon fill="black" stroke="black" points="159.78,-462.23 149.28,-460.81 156.6,-468.47 159.78,-462.23"/>
</g>
<!-- Rebin_Resolution -->
<g id="node12" class="node">
<title>Rebin_Resolution</title>
<path fill="lightskyblue" stroke="black" d="M484.14,-464C484.14,-464 454.14,-464 454.14,-464 448.14,-464 442.14,-458 442.14,-452 442.14,-452 442.14,-440 442.14,-440 442.14,-434 448.14,-428 454.14,-428 454.14,-428 484.14,-428 484.14,-428 490.14,-428 496.14,-434 496.14,-440 496.14,-440 496.14,-452 496.14,-452 496.14,-458 490.14,-464 484.14,-464"/>
<text text-anchor="middle" x="469.14" y="-442.3" font-family="Helvetica" font-size="14.00">Rebin</text>
</g>
<!-- CalculateBinningParameters&#45;&gt;Rebin_Resolution -->
<g id="edge15" class="edge">
<title>CalculateBinningParameters&#45;&gt;Rebin_Resolution</title>
<path fill="none" stroke="black" d="M325.57,-514.8C356.76,-500.07 401.44,-478.97 432.65,-464.23"/>
<polygon fill="black" stroke="black" points="434.32,-467.31 441.87,-459.88 431.33,-460.98 434.32,-467.31"/>
</g>
<!-- SampleWorkspace -->
<g id="node3" class="node">
<title>SampleWorkspace</title>
<ellipse fill="khaki" stroke="black" cx="85.14" cy="-606" rx="85.29" ry="18"/>
<text text-anchor="middle" x="85.14" y="-602.3" font-family="Helvetica" font-size="14.00">SampleWorkspace</text>
</g>
<!-- SampleWorkspace&#45;&gt;IsDryRun -->
<g id="edge6" class="edge">
<title>SampleWorkspace&#45;&gt;IsDryRun</title>
<path fill="none" stroke="black" d="M91.19,-587.81C94.21,-579.25 97.91,-568.74 101.24,-559.28"/>
<polygon fill="black" stroke="black" points="104.64,-560.17 104.66,-549.58 98.04,-557.85 104.64,-560.17"/>
</g>
<!-- SampleWorkspace&#45;&gt;CalculateBinningParameters -->
<g id="edge1" class="edge">
<title>SampleWorkspace&#45;&gt;CalculateBinningParameters</title>
<path fill="none" stroke="black" d="M127.41,-590.29C157.26,-579.9 197.64,-565.85 230.59,-554.38"/>
<polygon fill="black" stroke="black" points="231.82,-557.66 240.11,-551.06 229.52,-551.05 231.82,-557.66"/>
</g>
<!-- ResolutionWorkspace -->
<g id="node4" class="node">
<title>ResolutionWorkspace</title>
<ellipse fill="khaki" stroke="black" cx="500.14" cy="-533" rx="96.38" ry="18"/>
<text text-anchor="middle" x="500.14" y="-529.3" font-family="Helvetica" font-size="14.00">ResolutionWorkspace</text>
</g>
<!-- ResolutionWorkspace&#45;&gt;Rebin_Resolution -->
<g id="edge14" class="edge">
<title>ResolutionWorkspace&#45;&gt;Rebin_Resolution</title>
<path fill="none" stroke="black" d="M493.87,-514.8C489.58,-503.05 483.82,-487.24 478.93,-473.84"/>
<polygon fill="black" stroke="black" points="482.12,-472.37 475.41,-464.18 475.54,-474.77 482.12,-472.37"/>
</g>
<!-- EnergyMin -->
<g id="node5" class="node">
<title>EnergyMin</title>
<ellipse fill="khaki" stroke="black" cx="565.14" cy="-606" rx="53.09" ry="18"/>
<text text-anchor="middle" x="565.14" y="-602.3" font-family="Helvetica" font-size="14.00">EnergyMin</text>
</g>
<!-- EnergyMin&#45;&gt;CalculateBinningParameters -->
<g id="edge2" class="edge">
<title>EnergyMin&#45;&gt;CalculateBinningParameters</title>
<path fill="none" stroke="black" d="M525.15,-593.91C517.84,-591.91 510.27,-589.88 503.14,-588 458.47,-576.24 408.41,-563.58 367.95,-553.48"/>
<polygon fill="black" stroke="black" points="368.69,-550.06 358.14,-551.03 367,-556.85 368.69,-550.06"/>
</g>
<!-- EnergyMax -->
<g id="node6" class="node">
<title>EnergyMax</title>
<ellipse fill="khaki" stroke="black" cx="244.14" cy="-606" rx="55.79" ry="18"/>
<text text-anchor="middle" x="244.14" y="-602.3" font-family="Helvetica" font-size="14.00">EnergyMax</text>
</g>
<!-- EnergyMax&#45;&gt;CalculateBinningParameters -->
<g id="edge3" class="edge">
<title>EnergyMax&#45;&gt;CalculateBinningParameters</title>
<path fill="none" stroke="black" d="M254.81,-588.17C260.16,-579.72 266.77,-569.29 272.76,-559.85"/>
<polygon fill="black" stroke="black" points="275.84,-561.52 278.24,-551.2 269.93,-557.77 275.84,-561.52"/>
</g>
<!-- BinReductionFactor -->
<g id="node7" class="node">
<title>BinReductionFactor</title>
<ellipse fill="khaki" stroke="black" cx="406.14" cy="-606" rx="87.99" ry="18"/>
<text text-anchor="middle" x="406.14" y="-602.3" font-family="Helvetica" font-size="14.00">BinReductionFactor</text>
</g>
<!-- BinReductionFactor&#45;&gt;CalculateBinningParameters -->
<g id="edge4" class="edge">
<title>BinReductionFactor&#45;&gt;CalculateBinningParameters</title>
<path fill="none" stroke="black" d="M379.3,-588.71C363.56,-579.16 343.44,-566.95 326.2,-556.49"/>
<polygon fill="black" stroke="black" points="327.86,-553.4 317.49,-551.2 324.22,-559.38 327.86,-553.4"/>
</g>
<!-- OutputWorkspace -->
<g id="node9" class="node">
<title>OutputWorkspace</title>
<ellipse fill="khaki" stroke="black" cx="348.14" cy="-18" rx="81.49" ry="18"/>
<text text-anchor="middle" x="348.14" y="-14.3" font-family="Helvetica" font-size="14.00">OutputWorkspace</text>
</g>
<!-- Divide -->
<g id="node10" class="node">
<title>Divide</title>
<path fill="lightskyblue" stroke="black" d="M363.14,-109C363.14,-109 333.14,-109 333.14,-109 327.14,-109 321.14,-103 321.14,-97 321.14,-97 321.14,-85 321.14,-85 321.14,-79 327.14,-73 333.14,-73 333.14,-73 363.14,-73 363.14,-73 369.14,-73 375.14,-79 375.14,-85 375.14,-85 375.14,-97 375.14,-97 375.14,-103 369.14,-109 363.14,-109"/>
<text text-anchor="middle" x="348.14" y="-87.3" font-family="Helvetica" font-size="14.00">Divide</text>
</g>
<!-- Divide&#45;&gt;OutputWorkspace -->
<g id="edge23" class="edge">
<title>Divide&#45;&gt;OutputWorkspace</title>
<path fill="none" stroke="black" d="M348.14,-72.81C348.14,-64.79 348.14,-55.05 348.14,-46.07"/>
<polygon fill="black" stroke="black" points="351.64,-46.03 348.14,-36.03 344.64,-46.03 351.64,-46.03"/>
</g>
<!-- Integration_Sample -->
<g id="node13" class="node">
<title>Integration_Sample</title>
<path fill="lightskyblue" stroke="black" d="M145.14,-337C145.14,-337 89.14,-337 89.14,-337 83.14,-337 77.14,-331 77.14,-325 77.14,-325 77.14,-313 77.14,-313 77.14,-307 83.14,-301 89.14,-301 89.14,-301 145.14,-301 145.14,-301 151.14,-301 157.14,-307 157.14,-313 157.14,-313 157.14,-325 157.14,-325 157.14,-331 151.14,-337 145.14,-337"/>
<text text-anchor="middle" x="117.14" y="-315.3" font-family="Helvetica" font-size="14.00">Integration</text>
</g>
<!-- Rebin_Sample&#45;&gt;Integration_Sample -->
<g id="edge9" class="edge">
<title>Rebin_Sample&#45;&gt;Integration_Sample</title>
<path fill="none" stroke="black" d="M121.46,-427.88C120.63,-407.15 119.22,-371.95 118.24,-347.42"/>
<polygon fill="black" stroke="black" points="121.73,-347.17 117.83,-337.31 114.74,-347.44 121.73,-347.17"/>
</g>
<!-- ConvertToPointData_Sample -->
<g id="node14" class="node">
<title>ConvertToPointData_Sample</title>
<path fill="lightskyblue" stroke="black" d="M293.64,-391C293.64,-391 180.64,-391 180.64,-391 174.64,-391 168.64,-385 168.64,-379 168.64,-379 168.64,-367 168.64,-367 168.64,-361 174.64,-355 180.64,-355 180.64,-355 293.64,-355 293.64,-355 299.64,-355 305.64,-361 305.64,-367 305.64,-367 305.64,-379 305.64,-379 305.64,-385 299.64,-391 293.64,-391"/>
<text text-anchor="middle" x="237.14" y="-369.3" font-family="Helvetica" font-size="14.00">ConvertToPointData</text>
</g>
<!-- Rebin_Sample&#45;&gt;ConvertToPointData_Sample -->
<g id="edge10" class="edge">
<title>Rebin_Sample&#45;&gt;ConvertToPointData_Sample</title>
<path fill="none" stroke="black" d="M149.4,-428.17C164.64,-418.76 183.85,-406.9 200.4,-396.68"/>
<polygon fill="black" stroke="black" points="202.62,-399.43 209.29,-391.2 198.94,-393.47 202.62,-399.43"/>
</g>
<!-- Integration_Resolution -->
<g id="node17" class="node">
<title>Integration_Resolution</title>
<path fill="lightskyblue" stroke="black" d="M444.14,-337C444.14,-337 388.14,-337 388.14,-337 382.14,-337 376.14,-331 376.14,-325 376.14,-325 376.14,-313 376.14,-313 376.14,-307 382.14,-301 388.14,-301 388.14,-301 444.14,-301 444.14,-301 450.14,-301 456.14,-307 456.14,-313 456.14,-313 456.14,-325 456.14,-325 456.14,-331 450.14,-337 444.14,-337"/>
<text text-anchor="middle" x="416.14" y="-315.3" font-family="Helvetica" font-size="14.00">Integration</text>
</g>
<!-- Rebin_Resolution&#45;&gt;Integration_Resolution -->
<g id="edge16" class="edge">
<title>Rebin_Resolution&#45;&gt;Integration_Resolution</title>
<path fill="none" stroke="black" d="M461.88,-427.88C453.01,-406.96 437.9,-371.32 427.49,-346.76"/>
<polygon fill="black" stroke="black" points="430.61,-345.15 423.48,-337.31 424.16,-347.89 430.61,-345.15"/>
</g>
<!-- ConvertToPointData_Resolution -->
<g id="node18" class="node">
<title>ConvertToPointData_Resolution</title>
<path fill="lightskyblue" stroke="black" d="M635.64,-391C635.64,-391 522.64,-391 522.64,-391 516.64,-391 510.64,-385 510.64,-379 510.64,-379 510.64,-367 510.64,-367 510.64,-361 516.64,-355 522.64,-355 522.64,-355 635.64,-355 635.64,-355 641.64,-355 647.64,-361 647.64,-367 647.64,-367 647.64,-379 647.64,-379 647.64,-385 641.64,-391 635.64,-391"/>
<text text-anchor="middle" x="579.14" y="-369.3" font-family="Helvetica" font-size="14.00">ConvertToPointData</text>
</g>
<!-- Rebin_Resolution&#45;&gt;ConvertToPointData_Resolution -->
<g id="edge17" class="edge">
<title>Rebin_Resolution&#45;&gt;ConvertToPointData_Resolution</title>
<path fill="none" stroke="black" d="M495.49,-427.99C510.08,-418.58 528.39,-406.76 544.17,-396.57"/>
<polygon fill="black" stroke="black" points="546.12,-399.48 552.63,-391.11 542.33,-393.6 546.12,-399.48"/>
</g>
<!-- Divide_Sample -->
<g id="node16" class="node">
<title>Divide_Sample</title>
<path fill="lightskyblue" stroke="black" d="M305.14,-196C305.14,-196 275.14,-196 275.14,-196 269.14,-196 263.14,-190 263.14,-184 263.14,-184 263.14,-172 263.14,-172 263.14,-166 269.14,-160 275.14,-160 275.14,-160 305.14,-160 305.14,-160 311.14,-160 317.14,-166 317.14,-172 317.14,-172 317.14,-184 317.14,-184 317.14,-190 311.14,-196 305.14,-196"/>
<text text-anchor="middle" x="290.14" y="-174.3" font-family="Helvetica" font-size="14.00">Divide</text>
</g>
<!-- Integration_Sample&#45;&gt;Divide_Sample -->
<g id="edge13" class="edge">
<title>Integration_Sample&#45;&gt;Divide_Sample</title>
<path fill="none" stroke="black" d="M113.01,-300.85C110.32,-285.34 109.09,-262.61 120.14,-247 150.57,-204.05 212.76,-188.21 252.89,-182.38"/>
<polygon fill="black" stroke="black" points="253.37,-185.85 262.83,-181.08 252.46,-178.91 253.37,-185.85"/>
<text text-anchor="middle" x="168.64" y="-261.3" font-family="Helvetica" font-size="14.00">RHSWorkspace</text>
</g>
<!-- ExtractFFTSpectrum_Sample -->
<g id="node15" class="node">
<title>ExtractFFTSpectrum_Sample</title>
<path fill="lightskyblue" stroke="black" d="M356.14,-283C356.14,-283 238.14,-283 238.14,-283 232.14,-283 226.14,-277 226.14,-271 226.14,-271 226.14,-259 226.14,-259 226.14,-253 232.14,-247 238.14,-247 238.14,-247 356.14,-247 356.14,-247 362.14,-247 368.14,-253 368.14,-259 368.14,-259 368.14,-271 368.14,-271 368.14,-277 362.14,-283 356.14,-283"/>
<text text-anchor="middle" x="297.14" y="-261.3" font-family="Helvetica" font-size="14.00">ExtractFFTSpectrum</text>
</g>
<!-- ConvertToPointData_Sample&#45;&gt;ExtractFFTSpectrum_Sample -->
<g id="edge11" class="edge">
<title>ConvertToPointData_Sample&#45;&gt;ExtractFFTSpectrum_Sample</title>
<path fill="none" stroke="black" d="M246.78,-354.97C256.39,-337.99 271.28,-311.7 282.37,-292.09"/>
<polygon fill="black" stroke="black" points="285.45,-293.77 287.33,-283.34 279.36,-290.32 285.45,-293.77"/>
</g>
<!-- ExtractFFTSpectrum_Sample&#45;&gt;Divide_Sample -->
<g id="edge12" class="edge">
<title>ExtractFFTSpectrum_Sample&#45;&gt;Divide_Sample</title>
<path fill="none" stroke="black" d="M295.73,-246.8C294.77,-235.16 293.48,-219.55 292.39,-206.24"/>
<polygon fill="black" stroke="black" points="295.87,-205.85 291.56,-196.18 288.89,-206.43 295.87,-205.85"/>
<text text-anchor="middle" x="340.14" y="-217.8" font-family="Helvetica" font-size="14.00">LHSWorkspace</text>
</g>
<!-- Divide_Sample&#45;&gt;Divide -->
<g id="edge21" class="edge">
<title>Divide_Sample&#45;&gt;Divide</title>
<path fill="none" stroke="black" d="M286.55,-159.7C285.36,-149.54 285.53,-136.79 291.14,-127 296.02,-118.47 303.91,-111.76 312.27,-106.59"/>
<polygon fill="black" stroke="black" points="313.99,-109.64 321.06,-101.76 310.61,-103.51 313.99,-109.64"/>
<text text-anchor="middle" x="338.14" y="-130.8" font-family="Helvetica" font-size="14.00">LHSWorkspace</text>
</g>
<!-- Divide_Resolution -->
<g id="node20" class="node">
<title>Divide_Resolution</title>
<path fill="lightskyblue" stroke="black" d="M422.14,-196C422.14,-196 392.14,-196 392.14,-196 386.14,-196 380.14,-190 380.14,-184 380.14,-184 380.14,-172 380.14,-172 380.14,-166 386.14,-160 392.14,-160 392.14,-160 422.14,-160 422.14,-160 428.14,-160 434.14,-166 434.14,-172 434.14,-172 434.14,-184 434.14,-184 434.14,-190 428.14,-196 422.14,-196"/>
<text text-anchor="middle" x="407.14" y="-174.3" font-family="Helvetica" font-size="14.00">Divide</text>
</g>
<!-- Integration_Resolution&#45;&gt;Divide_Resolution -->
<g id="edge20" class="edge">
<title>Integration_Resolution&#45;&gt;Divide_Resolution</title>
<path fill="none" stroke="black" d="M415.04,-300.96C413.51,-277.4 410.74,-234.64 408.92,-206.53"/>
<polygon fill="black" stroke="black" points="412.39,-205.94 408.26,-196.18 405.41,-206.39 412.39,-205.94"/>
<text text-anchor="middle" x="461.64" y="-261.3" font-family="Helvetica" font-size="14.00">RHSWorkspace</text>
</g>
<!-- ExtractFFTSpectrum_Resolution -->
<g id="node19" class="node">
<title>ExtractFFTSpectrum_Resolution</title>
<path fill="lightskyblue" stroke="black" d="M650.14,-283C650.14,-283 532.14,-283 532.14,-283 526.14,-283 520.14,-277 520.14,-271 520.14,-271 520.14,-259 520.14,-259 520.14,-253 526.14,-247 532.14,-247 532.14,-247 650.14,-247 650.14,-247 656.14,-247 662.14,-253 662.14,-259 662.14,-259 662.14,-271 662.14,-271 662.14,-277 656.14,-283 650.14,-283"/>
<text text-anchor="middle" x="591.14" y="-261.3" font-family="Helvetica" font-size="14.00">ExtractFFTSpectrum</text>
</g>
<!-- ConvertToPointData_Resolution&#45;&gt;ExtractFFTSpectrum_Resolution -->
<g id="edge18" class="edge">
<title>ConvertToPointData_Resolution&#45;&gt;ExtractFFTSpectrum_Resolution</title>
<path fill="none" stroke="black" d="M581.07,-354.97C582.95,-338.38 585.83,-312.88 588.04,-293.43"/>
<polygon fill="black" stroke="black" points="591.53,-293.67 589.18,-283.34 584.58,-292.88 591.53,-293.67"/>
</g>
<!-- ExtractFFTSpectrum_Resolution&#45;&gt;Divide_Resolution -->
<g id="edge19" class="edge">
<title>ExtractFFTSpectrum_Resolution&#45;&gt;Divide_Resolution</title>
<path fill="none" stroke="black" d="M553.91,-246.8C521.74,-231.94 475.53,-210.59 443.6,-195.84"/>
<polygon fill="black" stroke="black" points="444.72,-192.5 434.17,-191.49 441.79,-198.86 444.72,-192.5"/>
<text text-anchor="middle" x="557.14" y="-217.8" font-family="Helvetica" font-size="14.00">LHSWorkspace</text>
</g>
<!-- Divide_Resolution&#45;&gt;Divide -->
<g id="edge22" class="edge">
<title>Divide_Resolution&#45;&gt;Divide</title>
<path fill="none" stroke="black" d="M401.56,-159.91C397.81,-149.81 392.24,-137.08 385.14,-127 382.55,-123.32 379.53,-119.72 376.35,-116.32"/>
<polygon fill="black" stroke="black" points="378.79,-113.81 369.24,-109.22 373.84,-118.76 378.79,-113.81"/>
<text text-anchor="middle" x="441.64" y="-130.8" font-family="Helvetica" font-size="14.00">RHSWorkspace</text>
</g>
</g>
</svg>
