<?xml version="1.0" encoding="UTF-8" standalone="no"?>
<!DOCTYPE svg PUBLIC "-//W3C//DTD SVG 1.1//EN"
 "http://www.w3.org/Graphics/SVG/1.1/DTD/svg11.dtd">
<!-- Generated by graphviz version 3.0.0 (20220315.2325)
 -->
<!-- Title: TransformToIqt Pages: 1 -->
<svg width="743pt" height="655pt"
 viewBox="0.00 0.00 743.24 655.00" xmlns="http://www.w3.org/2000/svg" xmlns:xlink="http://www.w3.org/1999/xlink">
<g id="graph0" class="graph" transform="scale(1 1) rotate(0) translate(4 651)">
<title>TransformToIqt</title>
<polygon fill="white" stroke="transparent" points="-4,4 -4,-651 739.24,-651 739.24,4 -4,4"/>
<text text-anchor="middle" x="367.62" y="-631.8" font-family="Helvetica,sans-Serif" font-size="14.00">TransformToIqt Flowchart</text>
<!-- IsDryRun -->
<g id="node1" class="node">
<title>IsDryRun</title>
<polygon fill="limegreen" stroke="black" points="119.24,-551 49.53,-533 119.24,-515 188.95,-533 119.24,-551"/>
<text text-anchor="middle" x="119.24" y="-529.3" font-family="Helvetica,sans-Serif" font-size="14.00">DryRun?</text>
</g>
<!-- Rebin_Sample -->
<g id="node11" class="node">
<title>Rebin_Sample</title>
<path fill="lightskyblue" stroke="black" d="M156.24,-464C156.24,-464 124.24,-464 124.24,-464 118.24,-464 112.24,-458 112.24,-452 112.24,-452 112.24,-440 112.24,-440 112.24,-434 118.24,-428 124.24,-428 124.24,-428 156.24,-428 156.24,-428 162.24,-428 168.24,-434 168.24,-440 168.24,-440 168.24,-452 168.24,-452 168.24,-458 162.24,-464 156.24,-464"/>
<text text-anchor="middle" x="140.24" y="-442.3" font-family="Helvetica,sans-Serif" font-size="14.00">Rebin</text>
</g>
<!-- IsDryRun&#45;&gt;Rebin_Sample -->
<g id="edge7" class="edge">
<title>IsDryRun&#45;&gt;Rebin_Sample</title>
<path fill="none" stroke="black" d="M123.19,-516.01C126.11,-504.21 130.15,-487.86 133.56,-474.04"/>
<polygon fill="black" stroke="black" points="137.02,-474.63 136.02,-464.08 130.22,-472.95 137.02,-474.63"/>
<text text-anchor="middle" x="140.74" y="-485.8" font-family="Helvetica,sans-Serif" font-size="14.00">No</text>
</g>
<!-- CalculateBinningParameters -->
<g id="node2" class="node">
<title>CalculateBinningParameters</title>
<polygon fill="lightseagreen" stroke="black" points="429.24,-551 207.24,-551 207.24,-515 429.24,-515 429.24,-551"/>
<text text-anchor="middle" x="318.24" y="-529.3" font-family="Helvetica,sans-Serif" font-size="14.00">Calculate binning parameters</text>
</g>
<!-- ParameterWorkspace -->
<g id="node8" class="node">
<title>ParameterWorkspace</title>
<ellipse fill="khaki" stroke="black" cx="293.24" cy="-446" rx="107.48" ry="18"/>
<text text-anchor="middle" x="293.24" y="-442.3" font-family="Helvetica,sans-Serif" font-size="14.00">ParameterWorkspace</text>
</g>
<!-- CalculateBinningParameters&#45;&gt;ParameterWorkspace -->
<g id="edge5" class="edge">
<title>CalculateBinningParameters&#45;&gt;ParameterWorkspace</title>
<path fill="none" stroke="black" d="M313.18,-514.8C309.73,-503.05 305.08,-487.24 301.14,-473.84"/>
<polygon fill="black" stroke="black" points="304.47,-472.78 298.29,-464.18 297.76,-474.76 304.47,-472.78"/>
</g>
<!-- CalculateBinningParameters&#45;&gt;Rebin_Sample -->
<g id="edge8" class="edge">
<title>CalculateBinningParameters&#45;&gt;Rebin_Sample</title>
<path fill="none" stroke="black" d="M282.22,-514.8C251.75,-500.25 208.25,-479.47 177.44,-464.77"/>
<polygon fill="black" stroke="black" points="178.85,-461.56 168.32,-460.41 175.84,-467.88 178.85,-461.56"/>
</g>
<!-- Rebin_Resolution -->
<g id="node12" class="node">
<title>Rebin_Resolution</title>
<path fill="lightskyblue" stroke="black" d="M538.24,-464C538.24,-464 506.24,-464 506.24,-464 500.24,-464 494.24,-458 494.24,-452 494.24,-452 494.24,-440 494.24,-440 494.24,-434 500.24,-428 506.24,-428 506.24,-428 538.24,-428 538.24,-428 544.24,-428 550.24,-434 550.24,-440 550.24,-440 550.24,-452 550.24,-452 550.24,-458 544.24,-464 538.24,-464"/>
<text text-anchor="middle" x="522.24" y="-442.3" font-family="Helvetica,sans-Serif" font-size="14.00">Rebin</text>
</g>
<!-- CalculateBinningParameters&#45;&gt;Rebin_Resolution -->
<g id="edge15" class="edge">
<title>CalculateBinningParameters&#45;&gt;Rebin_Resolution</title>
<path fill="none" stroke="black" d="M359.52,-514.8C396.13,-499.55 449.15,-477.46 484.61,-462.68"/>
<polygon fill="black" stroke="black" points="486.23,-465.8 494.12,-458.72 483.54,-459.33 486.23,-465.8"/>
</g>
<!-- SampleWorkspace -->
<g id="node3" class="node">
<title>SampleWorkspace</title>
<ellipse fill="khaki" stroke="black" cx="94.24" cy="-606" rx="94.48" ry="18"/>
<text text-anchor="middle" x="94.24" y="-602.3" font-family="Helvetica,sans-Serif" font-size="14.00">SampleWorkspace</text>
</g>
<!-- SampleWorkspace&#45;&gt;IsDryRun -->
<g id="edge6" class="edge">
<title>SampleWorkspace&#45;&gt;IsDryRun</title>
<path fill="none" stroke="black" d="M100.29,-587.81C103.26,-579.37 106.91,-569.03 110.2,-559.68"/>
<polygon fill="black" stroke="black" points="113.57,-560.65 113.59,-550.06 106.97,-558.33 113.57,-560.65"/>
</g>
<!-- SampleWorkspace&#45;&gt;CalculateBinningParameters -->
<g id="edge1" class="edge">
<title>SampleWorkspace&#45;&gt;CalculateBinningParameters</title>
<path fill="none" stroke="black" d="M140.65,-590.29C173.57,-579.86 218.15,-565.72 254.41,-554.23"/>
<polygon fill="black" stroke="black" points="255.93,-557.42 264.4,-551.06 253.81,-550.75 255.93,-557.42"/>
</g>
<!-- ResolutionWorkspace -->
<g id="node4" class="node">
<title>ResolutionWorkspace</title>
<ellipse fill="khaki" stroke="black" cx="555.24" cy="-533" rx="107.78" ry="18"/>
<text text-anchor="middle" x="555.24" y="-529.3" font-family="Helvetica,sans-Serif" font-size="14.00">ResolutionWorkspace</text>
</g>
<!-- ResolutionWorkspace&#45;&gt;Rebin_Resolution -->
<g id="edge14" class="edge">
<title>ResolutionWorkspace&#45;&gt;Rebin_Resolution</title>
<path fill="none" stroke="black" d="M548.56,-514.8C544,-503.05 537.86,-487.24 532.66,-473.84"/>
<polygon fill="black" stroke="black" points="535.79,-472.23 528.91,-464.18 529.27,-474.76 535.79,-472.23"/>
</g>
<!-- EnergyMin -->
<g id="node5" class="node">
<title>EnergyMin</title>
<ellipse fill="khaki" stroke="black" cx="623.24" cy="-606" rx="59.29" ry="18"/>
<text text-anchor="middle" x="623.24" y="-602.3" font-family="Helvetica,sans-Serif" font-size="14.00">EnergyMin</text>
</g>
<!-- EnergyMin&#45;&gt;CalculateBinningParameters -->
<g id="edge2" class="edge">
<title>EnergyMin&#45;&gt;CalculateBinningParameters</title>
<path fill="none" stroke="black" d="M579.38,-593.89C571.36,-591.9 563.05,-589.87 555.24,-588 505.54,-576.13 449.83,-563.4 404.92,-553.29"/>
<polygon fill="black" stroke="black" points="405.44,-549.82 394.92,-551.04 403.91,-556.65 405.44,-549.82"/>
</g>
<!-- EnergyMax -->
<g id="node6" class="node">
<title>EnergyMax</title>
<ellipse fill="khaki" stroke="black" cx="268.24" cy="-606" rx="61.99" ry="18"/>
<text text-anchor="middle" x="268.24" y="-602.3" font-family="Helvetica,sans-Serif" font-size="14.00">EnergyMax</text>
</g>
<!-- EnergyMax&#45;&gt;CalculateBinningParameters -->
<g id="edge3" class="edge">
<title>EnergyMax&#45;&gt;CalculateBinningParameters</title>
<path fill="none" stroke="black" d="M280.09,-588.17C286.1,-579.63 293.54,-569.08 300.24,-559.56"/>
<polygon fill="black" stroke="black" points="303.23,-561.39 306.13,-551.2 297.51,-557.36 303.23,-561.39"/>
</g>
<!-- BinReductionFactor -->
<g id="node7" class="node">
<title>BinReductionFactor</title>
<ellipse fill="khaki" stroke="black" cx="447.24" cy="-606" rx="98.58" ry="18"/>
<text text-anchor="middle" x="447.24" y="-602.3" font-family="Helvetica,sans-Serif" font-size="14.00">BinReductionFactor</text>
</g>
<!-- BinReductionFactor&#45;&gt;CalculateBinningParameters -->
<g id="edge4" class="edge">
<title>BinReductionFactor&#45;&gt;CalculateBinningParameters</title>
<path fill="none" stroke="black" d="M417.65,-588.71C400.05,-579.03 377.5,-566.61 358.32,-556.06"/>
<polygon fill="black" stroke="black" points="359.95,-552.96 349.5,-551.2 356.57,-559.09 359.95,-552.96"/>
</g>
<!-- OutputWorkspace -->
<g id="node9" class="node">
<title>OutputWorkspace</title>
<ellipse fill="khaki" stroke="black" cx="391.24" cy="-18" rx="92.08" ry="18"/>
<text text-anchor="middle" x="391.24" y="-14.3" font-family="Helvetica,sans-Serif" font-size="14.00">OutputWorkspace</text>
</g>
<!-- Divide -->
<g id="node10" class="node">
<title>Divide</title>
<path fill="lightskyblue" stroke="black" d="M409.24,-109C409.24,-109 373.24,-109 373.24,-109 367.24,-109 361.24,-103 361.24,-97 361.24,-97 361.24,-85 361.24,-85 361.24,-79 367.24,-73 373.24,-73 373.24,-73 409.24,-73 409.24,-73 415.24,-73 421.24,-79 421.24,-85 421.24,-85 421.24,-97 421.24,-97 421.24,-103 415.24,-109 409.24,-109"/>
<text text-anchor="middle" x="391.24" y="-87.3" font-family="Helvetica,sans-Serif" font-size="14.00">Divide</text>
</g>
<!-- Divide&#45;&gt;OutputWorkspace -->
<g id="edge23" class="edge">
<title>Divide&#45;&gt;OutputWorkspace</title>
<path fill="none" stroke="black" d="M391.24,-72.81C391.24,-64.79 391.24,-55.05 391.24,-46.07"/>
<polygon fill="black" stroke="black" points="394.74,-46.03 391.24,-36.03 387.74,-46.03 394.74,-46.03"/>
</g>
<!-- Integration_Sample -->
<g id="node13" class="node">
<title>Integration_Sample</title>
<path fill="lightskyblue" stroke="black" d="M171.74,-337C171.74,-337 102.74,-337 102.74,-337 96.74,-337 90.74,-331 90.74,-325 90.74,-325 90.74,-313 90.74,-313 90.74,-307 96.74,-301 102.74,-301 102.74,-301 171.74,-301 171.74,-301 177.74,-301 183.74,-307 183.74,-313 183.74,-313 183.74,-325 183.74,-325 183.74,-331 177.74,-337 171.74,-337"/>
<text text-anchor="middle" x="137.24" y="-315.3" font-family="Helvetica,sans-Serif" font-size="14.00">Integration</text>
</g>
<!-- Rebin_Sample&#45;&gt;Integration_Sample -->
<g id="edge9" class="edge">
<title>Rebin_Sample&#45;&gt;Integration_Sample</title>
<path fill="none" stroke="black" d="M139.83,-427.88C139.33,-407.15 138.49,-371.95 137.9,-347.42"/>
<polygon fill="black" stroke="black" points="141.4,-347.23 137.66,-337.31 134.4,-347.39 141.4,-347.23"/>
</g>
<!-- ConvertToPointData_Sample -->
<g id="node14" class="node">
<title>ConvertToPointData_Sample</title>
<path fill="lightskyblue" stroke="black" d="M331.74,-391C331.74,-391 202.74,-391 202.74,-391 196.74,-391 190.74,-385 190.74,-379 190.74,-379 190.74,-367 190.74,-367 190.74,-361 196.74,-355 202.74,-355 202.74,-355 331.74,-355 331.74,-355 337.74,-355 343.74,-361 343.74,-367 343.74,-367 343.74,-379 343.74,-379 343.74,-385 337.74,-391 331.74,-391"/>
<text text-anchor="middle" x="267.24" y="-369.3" font-family="Helvetica,sans-Serif" font-size="14.00">ConvertToPointData</text>
</g>
<!-- Rebin_Sample&#45;&gt;ConvertToPointData_Sample -->
<g id="edge10" class="edge">
<title>Rebin_Sample&#45;&gt;ConvertToPointData_Sample</title>
<path fill="none" stroke="black" d="M168.43,-429.24C185.84,-419.51 208.44,-406.87 227.64,-396.14"/>
<polygon fill="black" stroke="black" points="229.45,-399.14 236.47,-391.2 226.03,-393.03 229.45,-399.14"/>
</g>
<!-- Integration_Resolution -->
<g id="node17" class="node">
<title>Integration_Resolution</title>
<path fill="lightskyblue" stroke="black" d="M499.74,-337C499.74,-337 430.74,-337 430.74,-337 424.74,-337 418.74,-331 418.74,-325 418.74,-325 418.74,-313 418.74,-313 418.74,-307 424.74,-301 430.74,-301 430.74,-301 499.74,-301 499.74,-301 505.74,-301 511.74,-307 511.74,-313 511.74,-313 511.74,-325 511.74,-325 511.74,-331 505.74,-337 499.74,-337"/>
<text text-anchor="middle" x="465.24" y="-315.3" font-family="Helvetica,sans-Serif" font-size="14.00">Integration</text>
</g>
<!-- Rebin_Resolution&#45;&gt;Integration_Resolution -->
<g id="edge16" class="edge">
<title>Rebin_Resolution&#45;&gt;Integration_Resolution</title>
<path fill="none" stroke="black" d="M514.44,-427.88C504.85,-406.87 488.5,-371 477.3,-346.44"/>
<polygon fill="black" stroke="black" points="480.47,-344.96 473.14,-337.31 474.1,-347.86 480.47,-344.96"/>
</g>
<!-- ConvertToPointData_Resolution -->
<g id="node18" class="node">
<title>ConvertToPointData_Resolution</title>
<path fill="lightskyblue" stroke="black" d="M707.74,-391C707.74,-391 578.74,-391 578.74,-391 572.74,-391 566.74,-385 566.74,-379 566.74,-379 566.74,-367 566.74,-367 566.74,-361 572.74,-355 578.74,-355 578.74,-355 707.74,-355 707.74,-355 713.74,-355 719.74,-361 719.74,-367 719.74,-367 719.74,-379 719.74,-379 719.74,-385 713.74,-391 707.74,-391"/>
<text text-anchor="middle" x="643.24" y="-369.3" font-family="Helvetica,sans-Serif" font-size="14.00">ConvertToPointData</text>
</g>
<!-- Rebin_Resolution&#45;&gt;ConvertToPointData_Resolution -->
<g id="edge17" class="edge">
<title>Rebin_Resolution&#45;&gt;ConvertToPointData_Resolution</title>
<path fill="none" stroke="black" d="M550.31,-428.53C566.6,-418.97 587.34,-406.8 605.09,-396.38"/>
<polygon fill="black" stroke="black" points="607.21,-399.2 614.07,-391.12 603.67,-393.16 607.21,-399.2"/>
</g>
<!-- Divide_Sample -->
<g id="node16" class="node">
<title>Divide_Sample</title>
<path fill="lightskyblue" stroke="black" d="M346.24,-196C346.24,-196 310.24,-196 310.24,-196 304.24,-196 298.24,-190 298.24,-184 298.24,-184 298.24,-172 298.24,-172 298.24,-166 304.24,-160 310.24,-160 310.24,-160 346.24,-160 346.24,-160 352.24,-160 358.24,-166 358.24,-172 358.24,-172 358.24,-184 358.24,-184 358.24,-190 352.24,-196 346.24,-196"/>
<text text-anchor="middle" x="328.24" y="-174.3" font-family="Helvetica,sans-Serif" font-size="14.00">Divide</text>
</g>
<!-- Integration_Sample&#45;&gt;Divide_Sample -->
<g id="edge13" class="edge">
<title>Integration_Sample&#45;&gt;Divide_Sample</title>
<path fill="none" stroke="black" d="M133.58,-300.71C131.32,-285.1 130.72,-262.3 142.24,-247 176.51,-201.48 244.35,-186.4 287.94,-181.42"/>
<polygon fill="black" stroke="black" points="288.33,-184.9 297.93,-180.41 287.63,-177.94 288.33,-184.9"/>
<text text-anchor="middle" x="195.24" y="-261.3" font-family="Helvetica,sans-Serif" font-size="14.00">RHSWorkspace</text>
</g>
<!-- ExtractFFTSpectrum_Sample -->
<g id="node15" class="node">
<title>ExtractFFTSpectrum_Sample</title>
<path fill="lightskyblue" stroke="black" d="M403.24,-283C403.24,-283 269.24,-283 269.24,-283 263.24,-283 257.24,-277 257.24,-271 257.24,-271 257.24,-259 257.24,-259 257.24,-253 263.24,-247 269.24,-247 269.24,-247 403.24,-247 403.24,-247 409.24,-247 415.24,-253 415.24,-259 415.24,-259 415.24,-271 415.24,-271 415.24,-277 409.24,-283 403.24,-283"/>
<text text-anchor="middle" x="336.24" y="-261.3" font-family="Helvetica,sans-Serif" font-size="14.00">ExtractFFTSpectrum</text>
</g>
<!-- ConvertToPointData_Sample&#45;&gt;ExtractFFTSpectrum_Sample -->
<g id="edge11" class="edge">
<title>ConvertToPointData_Sample&#45;&gt;ExtractFFTSpectrum_Sample</title>
<path fill="none" stroke="black" d="M278.33,-354.97C289.43,-337.92 306.65,-311.46 319.43,-291.82"/>
<polygon fill="black" stroke="black" points="322.43,-293.63 324.95,-283.34 316.57,-289.81 322.43,-293.63"/>
</g>
<!-- ExtractFFTSpectrum_Sample&#45;&gt;Divide_Sample -->
<g id="edge12" class="edge">
<title>ExtractFFTSpectrum_Sample&#45;&gt;Divide_Sample</title>
<path fill="none" stroke="black" d="M334.62,-246.8C333.53,-235.16 332.06,-219.55 330.81,-206.24"/>
<polygon fill="black" stroke="black" points="334.28,-205.8 329.86,-196.18 327.31,-206.46 334.28,-205.8"/>
<text text-anchor="middle" x="384.24" y="-217.8" font-family="Helvetica,sans-Serif" font-size="14.00">LHSWorkspace</text>
</g>
<!-- Divide_Sample&#45;&gt;Divide -->
<g id="edge21" class="edge">
<title>Divide_Sample&#45;&gt;Divide</title>
<path fill="none" stroke="black" d="M324.52,-159.63C323.29,-149.43 323.45,-136.69 329.24,-127 334.57,-118.09 343.07,-111.25 352.1,-106.1"/>
<polygon fill="black" stroke="black" points="353.86,-109.13 361.2,-101.48 350.7,-102.88 353.86,-109.13"/>
<text text-anchor="middle" x="381.24" y="-130.8" font-family="Helvetica,sans-Serif" font-size="14.00">LHSWorkspace</text>
</g>
<!-- Divide_Resolution -->
<g id="node20" class="node">
<title>Divide_Resolution</title>
<path fill="lightskyblue" stroke="black" d="M473.24,-196C473.24,-196 437.24,-196 437.24,-196 431.24,-196 425.24,-190 425.24,-184 425.24,-184 425.24,-172 425.24,-172 425.24,-166 431.24,-160 437.24,-160 437.24,-160 473.24,-160 473.24,-160 479.24,-160 485.24,-166 485.24,-172 485.24,-172 485.24,-184 485.24,-184 485.24,-190 479.24,-196 473.24,-196"/>
<text text-anchor="middle" x="455.24" y="-174.3" font-family="Helvetica,sans-Serif" font-size="14.00">Divide</text>
</g>
<!-- Integration_Resolution&#45;&gt;Divide_Resolution -->
<g id="edge20" class="edge">
<title>Integration_Resolution&#45;&gt;Divide_Resolution</title>
<path fill="none" stroke="black" d="M463.71,-300.92C463.22,-295.22 462.69,-288.84 462.24,-283 460.26,-257.03 458.29,-227.39 456.95,-206.42"/>
<polygon fill="black" stroke="black" points="460.43,-206.06 456.31,-196.3 453.45,-206.51 460.43,-206.06"/>
<text text-anchor="middle" x="515.24" y="-261.3" font-family="Helvetica,sans-Serif" font-size="14.00">RHSWorkspace</text>
</g>
<!-- ExtractFFTSpectrum_Resolution -->
<g id="node19" class="node">
<title>ExtractFFTSpectrum_Resolution</title>
<path fill="lightskyblue" stroke="black" d="M723.24,-283C723.24,-283 589.24,-283 589.24,-283 583.24,-283 577.24,-277 577.24,-271 577.24,-271 577.24,-259 577.24,-259 577.24,-253 583.24,-247 589.24,-247 589.24,-247 723.24,-247 723.24,-247 729.24,-247 735.24,-253 735.24,-259 735.24,-259 735.24,-271 735.24,-271 735.24,-277 729.24,-283 723.24,-283"/>
<text text-anchor="middle" x="656.24" y="-261.3" font-family="Helvetica,sans-Serif" font-size="14.00">ExtractFFTSpectrum</text>
</g>
<!-- ConvertToPointData_Resolution&#45;&gt;ExtractFFTSpectrum_Resolution -->
<g id="edge18" class="edge">
<title>ConvertToPointData_Resolution&#45;&gt;ExtractFFTSpectrum_Resolution</title>
<path fill="none" stroke="black" d="M645.33,-354.97C647.37,-338.38 650.49,-312.88 652.88,-293.43"/>
<polygon fill="black" stroke="black" points="656.37,-293.69 654.11,-283.34 649.42,-292.84 656.37,-293.69"/>
</g>
<!-- ExtractFFTSpectrum_Resolution&#45;&gt;Divide_Resolution -->
<g id="edge19" class="edge">
<title>ExtractFFTSpectrum_Resolution&#45;&gt;Divide_Resolution</title>
<path fill="none" stroke="black" d="M615.57,-246.8C580.34,-231.9 529.68,-210.48 494.79,-195.72"/>
<polygon fill="black" stroke="black" points="495.96,-192.42 485.39,-191.75 493.23,-198.87 495.96,-192.42"/>
<text text-anchor="middle" x="619.24" y="-217.8" font-family="Helvetica,sans-Serif" font-size="14.00">LHSWorkspace</text>
</g>
<!-- Divide_Resolution&#45;&gt;Divide -->
<g id="edge22" class="edge">
<title>Divide_Resolution&#45;&gt;Divide</title>
<path fill="none" stroke="black" d="M449.89,-159.74C446.21,-149.59 440.66,-136.85 433.24,-127 430.33,-123.13 426.9,-119.41 423.29,-115.93"/>
<polygon fill="black" stroke="black" points="425.51,-113.22 415.71,-109.18 420.85,-118.44 425.51,-113.22"/>
<text text-anchor="middle" x="494.24" y="-130.8" font-family="Helvetica,sans-Serif" font-size="14.00">RHSWorkspace</text>
</g>
</g>
</svg>
