<?xml version="1.0" encoding="UTF-8" standalone="no"?>
<!DOCTYPE svg PUBLIC "-//W3C//DTD SVG 1.1//EN"
 "http://www.w3.org/Graphics/SVG/1.1/DTD/svg11.dtd">
<!-- Generated by graphviz version 2.47.2 (20210527.1257)
 -->
<!-- Title: VesuvioDiffractionReduction Pages: 1 -->
<svg width="668pt" height="926pt"
 viewBox="0.00 0.00 667.75 926.00" xmlns="http://www.w3.org/2000/svg" xmlns:xlink="http://www.w3.org/1999/xlink">
<g id="graph0" class="graph" transform="scale(1 1) rotate(0) translate(4 922)">
<title>VesuvioDiffractionReduction</title>
<polygon fill="white" stroke="transparent" points="-4,4 -4,-922 663.75,-922 663.75,4 -4,4"/>
<text text-anchor="middle" x="329.87" y="-902.8" font-family="Helvetica" font-size="14.00">VesuvioDiffractionReduction Flowchart</text>
<!-- ScaleMonitor -->
<g id="node1" class="node">
<title>ScaleMonitor</title>
<polygon fill="lightseagreen" stroke="black" points="582.25,-589 285.25,-589 285.25,-553 582.25,-553 582.25,-589"/>
<text text-anchor="middle" x="433.75" y="-567.3" font-family="Helvetica" font-size="14.00">Scale data and detectors by monitor intensities</text>
</g>
<!-- DataWorkspaces -->
<g id="node4" class="node">
<title>DataWorkspaces</title>
<ellipse fill="khaki" stroke="black" cx="296.75" cy="-498" rx="77.19" ry="18"/>
<text text-anchor="middle" x="296.75" y="-494.3" font-family="Helvetica" font-size="14.00">DataWorkspaces</text>
</g>
<!-- ScaleMonitor&#45;&gt;DataWorkspaces -->
<g id="edge9" class="edge">
<title>ScaleMonitor&#45;&gt;DataWorkspaces</title>
<path fill="none" stroke="black" d="M400.93,-552.99C381.43,-542.89 356.59,-530.01 336.05,-519.37"/>
<polygon fill="black" stroke="black" points="337.44,-516.15 326.95,-514.65 334.22,-522.36 337.44,-516.15"/>
</g>
<!-- InputFiles -->
<g id="node2" class="node">
<title>InputFiles</title>
<ellipse fill="khaki" stroke="black" cx="48.75" cy="-877" rx="48.99" ry="18"/>
<text text-anchor="middle" x="48.75" y="-873.3" font-family="Helvetica" font-size="14.00">InputFiles</text>
</g>
<!-- LoadFiles -->
<g id="node12" class="node">
<title>LoadFiles</title>
<path fill="lightskyblue" stroke="black" d="M294.25,-822C294.25,-822 243.25,-822 243.25,-822 237.25,-822 231.25,-816 231.25,-810 231.25,-810 231.25,-798 231.25,-798 231.25,-792 237.25,-786 243.25,-786 243.25,-786 294.25,-786 294.25,-786 300.25,-786 306.25,-792 306.25,-798 306.25,-798 306.25,-810 306.25,-810 306.25,-816 300.25,-822 294.25,-822"/>
<text text-anchor="middle" x="268.75" y="-800.3" font-family="Helvetica" font-size="14.00">LoadFiles</text>
</g>
<!-- InputFiles&#45;&gt;LoadFiles -->
<g id="edge1" class="edge">
<title>InputFiles&#45;&gt;LoadFiles</title>
<path fill="none" stroke="black" d="M84.09,-864.59C121.31,-852.58 180.12,-833.6 221.35,-820.3"/>
<polygon fill="black" stroke="black" points="222.46,-823.61 230.9,-817.21 220.31,-816.95 222.46,-823.61"/>
</g>
<!-- InstrumentParFile -->
<g id="node3" class="node">
<title>InstrumentParFile</title>
<ellipse fill="khaki" stroke="black" cx="195.75" cy="-877" rx="80.69" ry="18"/>
<text text-anchor="middle" x="195.75" y="-873.3" font-family="Helvetica" font-size="14.00">InstrumentParFile</text>
</g>
<!-- InstrumentParFile&#45;&gt;LoadFiles -->
<g id="edge4" class="edge">
<title>InstrumentParFile&#45;&gt;LoadFiles</title>
<path fill="none" stroke="black" d="M213.05,-859.17C222.18,-850.29 233.57,-839.21 243.66,-829.4"/>
<polygon fill="black" stroke="black" points="246.33,-831.68 251.06,-822.2 241.45,-826.66 246.33,-831.68"/>
</g>
<!-- ConvertUnits -->
<g id="node15" class="node">
<title>ConvertUnits</title>
<path fill="lightskyblue" stroke="black" d="M361.25,-429C361.25,-429 290.25,-429 290.25,-429 284.25,-429 278.25,-423 278.25,-417 278.25,-417 278.25,-405 278.25,-405 278.25,-399 284.25,-393 290.25,-393 290.25,-393 361.25,-393 361.25,-393 367.25,-393 373.25,-399 373.25,-405 373.25,-405 373.25,-417 373.25,-417 373.25,-423 367.25,-429 361.25,-429"/>
<text text-anchor="middle" x="325.75" y="-407.3" font-family="Helvetica" font-size="14.00">ConvertUnits</text>
</g>
<!-- DataWorkspaces&#45;&gt;ConvertUnits -->
<g id="edge10" class="edge">
<title>DataWorkspaces&#45;&gt;ConvertUnits</title>
<path fill="none" stroke="black" d="M294.41,-479.84C293.71,-469.95 293.96,-457.45 297.75,-447 298.95,-443.68 300.6,-440.44 302.51,-437.35"/>
<polygon fill="black" stroke="black" points="305.43,-439.29 308.41,-429.12 299.74,-435.21 305.43,-439.29"/>
<text text-anchor="middle" x="358.75" y="-450.8" font-family="Helvetica" font-size="14.00">ConvertTo dSpacing</text>
</g>
<!-- MonitorWorkspaces -->
<g id="node5" class="node">
<title>MonitorWorkspaces</title>
<ellipse fill="khaki" stroke="black" cx="388.75" cy="-731" rx="89.08" ry="18"/>
<text text-anchor="middle" x="388.75" y="-727.3" font-family="Helvetica" font-size="14.00">MonitorWorkspaces</text>
</g>
<!-- MonitorWorkspace -->
<g id="node6" class="node">
<title>MonitorWorkspace</title>
<ellipse fill="khaki" stroke="black" cx="425.75" cy="-644" rx="84.49" ry="18"/>
<text text-anchor="middle" x="425.75" y="-640.3" font-family="Helvetica" font-size="14.00">MonitorWorkspace</text>
</g>
<!-- MonitorWorkspaces&#45;&gt;MonitorWorkspace -->
<g id="edge7" class="edge">
<title>MonitorWorkspaces&#45;&gt;MonitorWorkspace</title>
<path fill="none" stroke="black" d="M396.23,-712.8C401.4,-700.93 408.37,-684.93 414.23,-671.45"/>
<polygon fill="black" stroke="black" points="417.49,-672.74 418.27,-662.18 411.07,-669.95 417.49,-672.74"/>
<text text-anchor="middle" x="534.25" y="-683.8" font-family="Helvetica" font-size="14.00">Select next monitor workspace to process</text>
</g>
<!-- MonitorWorkspace&#45;&gt;ScaleMonitor -->
<g id="edge8" class="edge">
<title>MonitorWorkspace&#45;&gt;ScaleMonitor</title>
<path fill="none" stroke="black" d="M427.68,-625.81C428.59,-617.79 429.68,-608.05 430.7,-599.07"/>
<polygon fill="black" stroke="black" points="434.19,-599.36 431.83,-589.03 427.23,-598.57 434.19,-599.36"/>
</g>
<!-- SumFiles -->
<g id="node7" class="node">
<title>SumFiles</title>
<ellipse fill="khaki" stroke="black" cx="342.75" cy="-877" rx="48.19" ry="18"/>
<text text-anchor="middle" x="342.75" y="-873.3" font-family="Helvetica" font-size="14.00">SumFiles</text>
</g>
<!-- SumFiles&#45;&gt;LoadFiles -->
<g id="edge3" class="edge">
<title>SumFiles&#45;&gt;LoadFiles</title>
<path fill="none" stroke="black" d="M325.95,-859.89C316.48,-850.8 304.46,-839.27 293.89,-829.13"/>
<polygon fill="black" stroke="black" points="296.14,-826.44 286.5,-822.04 291.3,-831.49 296.14,-826.44"/>
</g>
<!-- SpectraRange -->
<g id="node8" class="node">
<title>SpectraRange</title>
<ellipse fill="khaki" stroke="black" cx="475.75" cy="-877" rx="66.89" ry="18"/>
<text text-anchor="middle" x="475.75" y="-873.3" font-family="Helvetica" font-size="14.00">SpectraRange</text>
</g>
<!-- SpectraRange&#45;&gt;LoadFiles -->
<g id="edge2" class="edge">
<title>SpectraRange&#45;&gt;LoadFiles</title>
<path fill="none" stroke="black" d="M435.83,-862.31C401.68,-850.6 352.46,-833.71 316.28,-821.3"/>
<polygon fill="black" stroke="black" points="317.04,-817.86 306.44,-817.93 314.77,-824.48 317.04,-817.86"/>
</g>
<!-- RebinParam -->
<g id="node9" class="node">
<title>RebinParam</title>
<ellipse fill="khaki" stroke="black" cx="200.75" cy="-411" rx="59.59" ry="18"/>
<text text-anchor="middle" x="200.75" y="-407.3" font-family="Helvetica" font-size="14.00">RebinParam</text>
</g>
<!-- Rebin -->
<g id="node13" class="node">
<title>Rebin</title>
<path fill="lightskyblue" stroke="black" d="M340.75,-342C340.75,-342 310.75,-342 310.75,-342 304.75,-342 298.75,-336 298.75,-330 298.75,-330 298.75,-318 298.75,-318 298.75,-312 304.75,-306 310.75,-306 310.75,-306 340.75,-306 340.75,-306 346.75,-306 352.75,-312 352.75,-318 352.75,-318 352.75,-330 352.75,-330 352.75,-336 346.75,-342 340.75,-342"/>
<text text-anchor="middle" x="325.75" y="-320.3" font-family="Helvetica" font-size="14.00">Rebin</text>
</g>
<!-- RebinParam&#45;&gt;Rebin -->
<g id="edge12" class="edge">
<title>RebinParam&#45;&gt;Rebin</title>
<path fill="none" stroke="black" d="M223.96,-394.21C243.08,-381.21 270.43,-362.61 291.97,-347.97"/>
<polygon fill="black" stroke="black" points="294.2,-350.68 300.5,-342.16 290.27,-344.89 294.2,-350.68"/>
</g>
<!-- GroupingPolicy -->
<g id="node10" class="node">
<title>GroupingPolicy</title>
<ellipse fill="khaki" stroke="black" cx="209.75" cy="-324" rx="70.69" ry="18"/>
<text text-anchor="middle" x="209.75" y="-320.3" font-family="Helvetica" font-size="14.00">GroupingPolicy</text>
</g>
<!-- GroupSpectra -->
<g id="node16" class="node">
<title>GroupSpectra</title>
<path fill="lightskyblue" stroke="black" d="M364.25,-269C364.25,-269 287.25,-269 287.25,-269 281.25,-269 275.25,-263 275.25,-257 275.25,-257 275.25,-245 275.25,-245 275.25,-239 281.25,-233 287.25,-233 287.25,-233 364.25,-233 364.25,-233 370.25,-233 376.25,-239 376.25,-245 376.25,-245 376.25,-257 376.25,-257 376.25,-263 370.25,-269 364.25,-269"/>
<text text-anchor="middle" x="325.75" y="-247.3" font-family="Helvetica" font-size="14.00">GroupSpectra</text>
</g>
<!-- GroupingPolicy&#45;&gt;GroupSpectra -->
<g id="edge14" class="edge">
<title>GroupingPolicy&#45;&gt;GroupSpectra</title>
<path fill="none" stroke="black" d="M235.78,-307.07C251.48,-297.46 271.72,-285.07 289.03,-274.47"/>
<polygon fill="black" stroke="black" points="291.07,-277.33 297.77,-269.12 287.42,-271.36 291.07,-277.33"/>
</g>
<!-- OutputWorkspace -->
<g id="node11" class="node">
<title>OutputWorkspace</title>
<ellipse fill="khaki" stroke="black" cx="393.75" cy="-18" rx="81.49" ry="18"/>
<text text-anchor="middle" x="393.75" y="-14.3" font-family="Helvetica" font-size="14.00">OutputWorkspace</text>
</g>
<!-- LoadFiles&#45;&gt;DataWorkspaces -->
<g id="edge5" class="edge">
<title>LoadFiles&#45;&gt;DataWorkspaces</title>
<path fill="none" stroke="black" d="M264.21,-785.92C260.81,-771.62 256.75,-750.63 256.75,-732 256.75,-732 256.75,-732 256.75,-570 256.75,-553.33 265.22,-536.97 274.36,-524.16"/>
<polygon fill="black" stroke="black" points="277.39,-525.96 280.71,-515.9 271.84,-521.7 277.39,-525.96"/>
</g>
<!-- LoadFiles&#45;&gt;MonitorWorkspaces -->
<g id="edge6" class="edge">
<title>LoadFiles&#45;&gt;MonitorWorkspaces</title>
<path fill="none" stroke="black" d="M297.49,-785.99C314.02,-776.21 334.95,-763.83 352.59,-753.39"/>
<polygon fill="black" stroke="black" points="354.65,-756.24 361.47,-748.14 351.08,-750.22 354.65,-756.24"/>
</g>
<!-- Rebin&#45;&gt;GroupSpectra -->
<g id="edge13" class="edge">
<title>Rebin&#45;&gt;GroupSpectra</title>
<path fill="none" stroke="black" d="M325.75,-305.81C325.75,-297.79 325.75,-288.05 325.75,-279.07"/>
<polygon fill="black" stroke="black" points="329.25,-279.03 325.75,-269.03 322.25,-279.03 329.25,-279.03"/>
</g>
<!-- GroupWorkspaces -->
<g id="node14" class="node">
<title>GroupWorkspaces</title>
<path fill="lightskyblue" stroke="black" d="M446.25,-109C446.25,-109 341.25,-109 341.25,-109 335.25,-109 329.25,-103 329.25,-97 329.25,-97 329.25,-85 329.25,-85 329.25,-79 335.25,-73 341.25,-73 341.25,-73 446.25,-73 446.25,-73 452.25,-73 458.25,-79 458.25,-85 458.25,-85 458.25,-97 458.25,-97 458.25,-103 452.25,-109 446.25,-109"/>
<text text-anchor="middle" x="393.75" y="-87.3" font-family="Helvetica" font-size="14.00">GroupWorkspaces</text>
</g>
<!-- GroupWorkspaces&#45;&gt;OutputWorkspace -->
<g id="edge18" class="edge">
<title>GroupWorkspaces&#45;&gt;OutputWorkspace</title>
<path fill="none" stroke="black" d="M393.75,-72.81C393.75,-64.79 393.75,-55.05 393.75,-46.07"/>
<polygon fill="black" stroke="black" points="397.25,-46.03 393.75,-36.03 390.25,-46.03 397.25,-46.03"/>
</g>
<!-- ConvertUnits&#45;&gt;Rebin -->
<g id="edge11" class="edge">
<title>ConvertUnits&#45;&gt;Rebin</title>
<path fill="none" stroke="black" d="M325.75,-392.8C325.75,-381.16 325.75,-365.55 325.75,-352.24"/>
<polygon fill="black" stroke="black" points="329.25,-352.18 325.75,-342.18 322.25,-352.18 329.25,-352.18"/>
</g>
<!-- allProcessed -->
<g id="node17" class="node">
<title>allProcessed</title>
<polygon fill="limegreen" stroke="black" points="393.75,-196 228.35,-178 393.75,-160 559.14,-178 393.75,-196"/>
<text text-anchor="middle" x="393.75" y="-174.3" font-family="Helvetica" font-size="14.00">Processed all workspaces?</text>
</g>
<!-- GroupSpectra&#45;&gt;allProcessed -->
<g id="edge15" class="edge">
<title>GroupSpectra&#45;&gt;allProcessed</title>
<path fill="none" stroke="black" d="M342.21,-232.81C351.1,-223.52 362.2,-211.93 371.82,-201.89"/>
<polygon fill="black" stroke="black" points="374.44,-204.22 378.83,-194.58 369.38,-199.38 374.44,-204.22"/>
</g>
<!-- allProcessed&#45;&gt;ScaleMonitor -->
<g id="edge16" class="edge">
<title>allProcessed&#45;&gt;ScaleMonitor</title>
<path fill="none" stroke="black" d="M408.64,-194.52C420.01,-208.05 433.75,-228.78 433.75,-250 433.75,-499 433.75,-499 433.75,-499 433.75,-513.35 433.75,-529.33 433.75,-542.49"/>
<polygon fill="black" stroke="black" points="430.25,-542.78 433.75,-552.78 437.25,-542.78 430.25,-542.78"/>
<text text-anchor="middle" x="544.25" y="-363.8" font-family="Helvetica" font-size="14.00">No: repeat process with next monitor</text>
</g>
<!-- allProcessed&#45;&gt;GroupWorkspaces -->
<g id="edge17" class="edge">
<title>allProcessed&#45;&gt;GroupWorkspaces</title>
<path fill="none" stroke="black" d="M393.75,-159.8C393.75,-148.16 393.75,-132.55 393.75,-119.24"/>
<polygon fill="black" stroke="black" points="397.25,-119.18 393.75,-109.18 390.25,-119.18 397.25,-119.18"/>
<text text-anchor="middle" x="507.25" y="-130.8" font-family="Helvetica" font-size="14.00">Yes: Group all processed workspaces</text>
</g>
</g>
</svg>
