<?xml version="1.0" encoding="UTF-8" standalone="no"?>
<!DOCTYPE svg PUBLIC "-//W3C//DTD SVG 1.1//EN"
 "http://www.w3.org/Graphics/SVG/1.1/DTD/svg11.dtd">
<!-- Generated by graphviz version 2.40.1 (20161225.0304)
 -->
<!-- Title: VesuvioDiffractionReduction Pages: 1 -->
<svg width="668pt" height="926pt"
 viewBox="0.00 0.00 667.75 926.00" xmlns="http://www.w3.org/2000/svg" xmlns:xlink="http://www.w3.org/1999/xlink">
<g id="graph0" class="graph" transform="scale(1 1) rotate(0) translate(4 922)">
<title>VesuvioDiffractionReduction</title>
<polygon fill="#ffffff" stroke="transparent" points="-4,4 -4,-922 663.7457,-922 663.7457,4 -4,4"/>
<text text-anchor="middle" x="329.8728" y="-902.8" font-family="Helvetica,sans-Serif" font-size="14.00" fill="#000000">VesuvioDiffractionReduction Flowchart</text>
<!-- ScaleMonitor -->
<g id="node1" class="node">
<title>ScaleMonitor</title>
<polygon fill="#20b2aa" stroke="#000000" points="582.2457,-589 285.2457,-589 285.2457,-553 582.2457,-553 582.2457,-589"/>
<text text-anchor="middle" x="433.7457" y="-567.3" font-family="Helvetica,sans-Serif" font-size="14.00" fill="#000000">Scale data and detectors by monitor intensities</text>
</g>
<!-- DataWorkspaces -->
<g id="node4" class="node">
<title>DataWorkspaces</title>
<ellipse fill="#f0e68c" stroke="#000000" cx="294.7457" cy="-498" rx="77.9862" ry="18"/>
<text text-anchor="middle" x="294.7457" y="-494.3" font-family="Helvetica,sans-Serif" font-size="14.00" fill="#000000">DataWorkspaces</text>
</g>
<!-- ScaleMonitor&#45;&gt;DataWorkspaces -->
<g id="edge9" class="edge">
<title>ScaleMonitor&#45;&gt;DataWorkspaces</title>
<path fill="none" stroke="#000000" d="M399.3861,-552.9551C380.0048,-542.7764 355.6758,-529.9993 335.3553,-519.3274"/>
<polygon fill="#000000" stroke="#000000" points="336.8138,-516.14 326.3331,-514.5891 333.5591,-522.3374 336.8138,-516.14"/>
</g>
<!-- InputFiles -->
<g id="node2" class="node">
<title>InputFiles</title>
<ellipse fill="#f0e68c" stroke="#000000" cx="48.7457" cy="-877" rx="48.9926" ry="18"/>
<text text-anchor="middle" x="48.7457" y="-873.3" font-family="Helvetica,sans-Serif" font-size="14.00" fill="#000000">InputFiles</text>
</g>
<!-- LoadFiles -->
<g id="node12" class="node">
<title>LoadFiles</title>
<path fill="#87cefa" stroke="#000000" d="M294.2457,-822C294.2457,-822 243.2457,-822 243.2457,-822 237.2457,-822 231.2457,-816 231.2457,-810 231.2457,-810 231.2457,-798 231.2457,-798 231.2457,-792 237.2457,-786 243.2457,-786 243.2457,-786 294.2457,-786 294.2457,-786 300.2457,-786 306.2457,-792 306.2457,-798 306.2457,-798 306.2457,-810 306.2457,-810 306.2457,-816 300.2457,-822 294.2457,-822"/>
<text text-anchor="middle" x="268.7457" y="-800.3" font-family="Helvetica,sans-Serif" font-size="14.00" fill="#000000">LoadFiles</text>
</g>
<!-- InputFiles&#45;&gt;LoadFiles -->
<g id="edge1" class="edge">
<title>InputFiles&#45;&gt;LoadFiles</title>
<path fill="none" stroke="#000000" d="M85.0742,-864.9455C122.2807,-852.5997 180.2987,-833.3483 221.153,-819.7921"/>
<polygon fill="#000000" stroke="#000000" points="222.4984,-823.0334 230.8872,-816.5621 220.2938,-816.3896 222.4984,-823.0334"/>
</g>
<!-- InstrumentParFile -->
<g id="node3" class="node">
<title>InstrumentParFile</title>
<ellipse fill="#f0e68c" stroke="#000000" cx="195.7457" cy="-877" rx="80.6858" ry="18"/>
<text text-anchor="middle" x="195.7457" y="-873.3" font-family="Helvetica,sans-Serif" font-size="14.00" fill="#000000">InstrumentParFile</text>
</g>
<!-- InstrumentParFile&#45;&gt;LoadFiles -->
<g id="edge4" class="edge">
<title>InstrumentParFile&#45;&gt;LoadFiles</title>
<path fill="none" stroke="#000000" d="M213.4169,-859.3287C222.4285,-850.3172 233.5487,-839.197 243.4506,-829.2951"/>
<polygon fill="#000000" stroke="#000000" points="246.1338,-831.5616 250.73,-822.0157 241.184,-826.6119 246.1338,-831.5616"/>
</g>
<!-- ConvertUnits -->
<g id="node15" class="node">
<title>ConvertUnits</title>
<path fill="#87cefa" stroke="#000000" d="M360.2457,-429C360.2457,-429 289.2457,-429 289.2457,-429 283.2457,-429 277.2457,-423 277.2457,-417 277.2457,-417 277.2457,-405 277.2457,-405 277.2457,-399 283.2457,-393 289.2457,-393 289.2457,-393 360.2457,-393 360.2457,-393 366.2457,-393 372.2457,-399 372.2457,-405 372.2457,-405 372.2457,-417 372.2457,-417 372.2457,-423 366.2457,-429 360.2457,-429"/>
<text text-anchor="middle" x="324.7457" y="-407.3" font-family="Helvetica,sans-Serif" font-size="14.00" fill="#000000">ConvertUnits</text>
</g>
<!-- DataWorkspaces&#45;&gt;ConvertUnits -->
<g id="edge10" class="edge">
<title>DataWorkspaces&#45;&gt;ConvertUnits</title>
<path fill="none" stroke="#000000" d="M292.2751,-479.5362C291.64,-469.6079 291.992,-457.3198 295.7457,-447 296.8979,-443.8323 298.4526,-440.735 300.2468,-437.7702"/>
<polygon fill="#000000" stroke="#000000" points="303.2898,-439.5277 306.1844,-429.3359 297.5659,-435.4981 303.2898,-439.5277"/>
<text text-anchor="middle" x="357.7457" y="-450.8" font-family="Helvetica,sans-Serif" font-size="14.00" fill="#000000">ConvertTo dSpacing</text>
</g>
<!-- MonitorWorkspaces -->
<g id="node5" class="node">
<title>MonitorWorkspaces</title>
<ellipse fill="#f0e68c" stroke="#000000" cx="388.7457" cy="-731" rx="89.0842" ry="18"/>
<text text-anchor="middle" x="388.7457" y="-727.3" font-family="Helvetica,sans-Serif" font-size="14.00" fill="#000000">MonitorWorkspaces</text>
</g>
<!-- MonitorWorkspace -->
<g id="node6" class="node">
<title>MonitorWorkspace</title>
<ellipse fill="#f0e68c" stroke="#000000" cx="425.7457" cy="-644" rx="85.2851" ry="18"/>
<text text-anchor="middle" x="425.7457" y="-640.3" font-family="Helvetica,sans-Serif" font-size="14.00" fill="#000000">MonitorWorkspace</text>
</g>
<!-- MonitorWorkspaces&#45;&gt;MonitorWorkspace -->
<g id="edge7" class="edge">
<title>MonitorWorkspaces&#45;&gt;MonitorWorkspace</title>
<path fill="none" stroke="#000000" d="M396.4121,-712.9735C401.522,-700.9585 408.3344,-684.9401 414.1079,-671.3646"/>
<polygon fill="#000000" stroke="#000000" points="417.3962,-672.5755 418.0891,-662.0034 410.9545,-669.8359 417.3962,-672.5755"/>
<text text-anchor="middle" x="534.2457" y="-683.8" font-family="Helvetica,sans-Serif" font-size="14.00" fill="#000000">Select next monitor workspace to process</text>
</g>
<!-- MonitorWorkspace&#45;&gt;ScaleMonitor -->
<g id="edge8" class="edge">
<title>MonitorWorkspace&#45;&gt;ScaleMonitor</title>
<path fill="none" stroke="#000000" d="M427.7232,-625.9551C428.6078,-617.8828 429.6716,-608.1764 430.6573,-599.1817"/>
<polygon fill="#000000" stroke="#000000" points="434.1529,-599.4122 431.7632,-589.0904 427.1945,-598.6495 434.1529,-599.4122"/>
</g>
<!-- SumFiles -->
<g id="node7" class="node">
<title>SumFiles</title>
<ellipse fill="#f0e68c" stroke="#000000" cx="342.7457" cy="-877" rx="48.1917" ry="18"/>
<text text-anchor="middle" x="342.7457" y="-873.3" font-family="Helvetica,sans-Serif" font-size="14.00" fill="#000000">SumFiles</text>
</g>
<!-- SumFiles&#45;&gt;LoadFiles -->
<g id="edge3" class="edge">
<title>SumFiles&#45;&gt;LoadFiles</title>
<path fill="none" stroke="#000000" d="M325.5826,-860.0688C316.3062,-850.9178 304.668,-839.4369 294.3428,-829.2512"/>
<polygon fill="#000000" stroke="#000000" points="296.6861,-826.6464 287.1091,-822.1153 291.7701,-831.6298 296.6861,-826.6464"/>
</g>
<!-- SpectraRange -->
<g id="node8" class="node">
<title>SpectraRange</title>
<ellipse fill="#f0e68c" stroke="#000000" cx="475.7457" cy="-877" rx="66.8882" ry="18"/>
<text text-anchor="middle" x="475.7457" y="-873.3" font-family="Helvetica,sans-Serif" font-size="14.00" fill="#000000">SpectraRange</text>
</g>
<!-- SpectraRange&#45;&gt;LoadFiles -->
<g id="edge2" class="edge">
<title>SpectraRange&#45;&gt;LoadFiles</title>
<path fill="none" stroke="#000000" d="M434.8491,-862.5775C400.7086,-850.5376 352.0109,-833.3641 316.1673,-820.7236"/>
<polygon fill="#000000" stroke="#000000" points="317.0161,-817.3117 306.4213,-817.2866 314.688,-823.9132 317.0161,-817.3117"/>
</g>
<!-- RebinParam -->
<g id="node9" class="node">
<title>RebinParam</title>
<ellipse fill="#f0e68c" stroke="#000000" cx="199.7457" cy="-411" rx="59.5901" ry="18"/>
<text text-anchor="middle" x="199.7457" y="-407.3" font-family="Helvetica,sans-Serif" font-size="14.00" fill="#000000">RebinParam</text>
</g>
<!-- Rebin -->
<g id="node13" class="node">
<title>Rebin</title>
<path fill="#87cefa" stroke="#000000" d="M339.7457,-342C339.7457,-342 309.7457,-342 309.7457,-342 303.7457,-342 297.7457,-336 297.7457,-330 297.7457,-330 297.7457,-318 297.7457,-318 297.7457,-312 303.7457,-306 309.7457,-306 309.7457,-306 339.7457,-306 339.7457,-306 345.7457,-306 351.7457,-312 351.7457,-318 351.7457,-318 351.7457,-330 351.7457,-330 351.7457,-336 345.7457,-342 339.7457,-342"/>
<text text-anchor="middle" x="324.7457" y="-320.3" font-family="Helvetica,sans-Serif" font-size="14.00" fill="#000000">Rebin</text>
</g>
<!-- RebinParam&#45;&gt;Rebin -->
<g id="edge12" class="edge">
<title>RebinParam&#45;&gt;Rebin</title>
<path fill="none" stroke="#000000" d="M223.5514,-394.4312C242.4777,-381.2585 269.2086,-362.6538 290.4443,-347.8737"/>
<polygon fill="#000000" stroke="#000000" points="292.6657,-350.592 298.874,-342.0067 288.6669,-344.8466 292.6657,-350.592"/>
</g>
<!-- GroupingPolicy -->
<g id="node10" class="node">
<title>GroupingPolicy</title>
<ellipse fill="#f0e68c" stroke="#000000" cx="208.7457" cy="-324" rx="70.6878" ry="18"/>
<text text-anchor="middle" x="208.7457" y="-320.3" font-family="Helvetica,sans-Serif" font-size="14.00" fill="#000000">GroupingPolicy</text>
</g>
<!-- GroupSpectra -->
<g id="node16" class="node">
<title>GroupSpectra</title>
<path fill="#87cefa" stroke="#000000" d="M363.2457,-269C363.2457,-269 286.2457,-269 286.2457,-269 280.2457,-269 274.2457,-263 274.2457,-257 274.2457,-257 274.2457,-245 274.2457,-245 274.2457,-239 280.2457,-233 286.2457,-233 286.2457,-233 363.2457,-233 363.2457,-233 369.2457,-233 375.2457,-239 375.2457,-245 375.2457,-245 375.2457,-257 375.2457,-257 375.2457,-263 369.2457,-269 363.2457,-269"/>
<text text-anchor="middle" x="324.7457" y="-247.3" font-family="Helvetica,sans-Serif" font-size="14.00" fill="#000000">GroupSpectra</text>
</g>
<!-- GroupingPolicy&#45;&gt;GroupSpectra -->
<g id="edge14" class="edge">
<title>GroupingPolicy&#45;&gt;GroupSpectra</title>
<path fill="none" stroke="#000000" d="M235.3584,-307.2523C250.7377,-297.574 270.3302,-285.2442 287.2505,-274.5961"/>
<polygon fill="#000000" stroke="#000000" points="289.2193,-277.4925 295.8187,-269.204 285.491,-271.568 289.2193,-277.4925"/>
</g>
<!-- OutputWorkspace -->
<g id="node11" class="node">
<title>OutputWorkspace</title>
<ellipse fill="#f0e68c" stroke="#000000" cx="393.7457" cy="-18" rx="81.7856" ry="18"/>
<text text-anchor="middle" x="393.7457" y="-14.3" font-family="Helvetica,sans-Serif" font-size="14.00" fill="#000000">OutputWorkspace</text>
</g>
<!-- LoadFiles&#45;&gt;DataWorkspaces -->
<g id="edge5" class="edge">
<title>LoadFiles&#45;&gt;DataWorkspaces</title>
<path fill="none" stroke="#000000" d="M264.0718,-785.8356C260.7024,-771.1478 256.7457,-749.8802 256.7457,-731 256.7457,-731 256.7457,-731 256.7457,-571 256.7457,-554.2832 264.683,-537.5985 273.3025,-524.4084"/>
<polygon fill="#000000" stroke="#000000" points="276.4098,-526.0735 279.2896,-515.8776 270.6801,-522.0523 276.4098,-526.0735"/>
</g>
<!-- LoadFiles&#45;&gt;MonitorWorkspaces -->
<g id="edge6" class="edge">
<title>LoadFiles&#45;&gt;MonitorWorkspaces</title>
<path fill="none" stroke="#000000" d="M298.4086,-785.9551C314.6028,-776.1036 334.7981,-763.8181 351.9847,-753.3629"/>
<polygon fill="#000000" stroke="#000000" points="353.9364,-756.2724 360.6607,-748.085 350.2983,-750.2921 353.9364,-756.2724"/>
</g>
<!-- Rebin&#45;&gt;GroupSpectra -->
<g id="edge13" class="edge">
<title>Rebin&#45;&gt;GroupSpectra</title>
<path fill="none" stroke="#000000" d="M324.7457,-305.9551C324.7457,-297.8828 324.7457,-288.1764 324.7457,-279.1817"/>
<polygon fill="#000000" stroke="#000000" points="328.2458,-279.0903 324.7457,-269.0904 321.2458,-279.0904 328.2458,-279.0903"/>
</g>
<!-- GroupWorkspaces -->
<g id="node14" class="node">
<title>GroupWorkspaces</title>
<path fill="#87cefa" stroke="#000000" d="M446.7457,-109C446.7457,-109 340.7457,-109 340.7457,-109 334.7457,-109 328.7457,-103 328.7457,-97 328.7457,-97 328.7457,-85 328.7457,-85 328.7457,-79 334.7457,-73 340.7457,-73 340.7457,-73 446.7457,-73 446.7457,-73 452.7457,-73 458.7457,-79 458.7457,-85 458.7457,-85 458.7457,-97 458.7457,-97 458.7457,-103 452.7457,-109 446.7457,-109"/>
<text text-anchor="middle" x="393.7457" y="-87.3" font-family="Helvetica,sans-Serif" font-size="14.00" fill="#000000">GroupWorkspaces</text>
</g>
<!-- GroupWorkspaces&#45;&gt;OutputWorkspace -->
<g id="edge18" class="edge">
<title>GroupWorkspaces&#45;&gt;OutputWorkspace</title>
<path fill="none" stroke="#000000" d="M393.7457,-72.9551C393.7457,-64.8828 393.7457,-55.1764 393.7457,-46.1817"/>
<polygon fill="#000000" stroke="#000000" points="397.2458,-46.0903 393.7457,-36.0904 390.2458,-46.0904 397.2458,-46.0903"/>
</g>
<!-- ConvertUnits&#45;&gt;Rebin -->
<g id="edge11" class="edge">
<title>ConvertUnits&#45;&gt;Rebin</title>
<path fill="none" stroke="#000000" d="M324.7457,-392.9735C324.7457,-381.1918 324.7457,-365.5607 324.7457,-352.1581"/>
<polygon fill="#000000" stroke="#000000" points="328.2458,-352.0033 324.7457,-342.0034 321.2458,-352.0034 328.2458,-352.0033"/>
</g>
<!-- allProcessed -->
<g id="node17" class="node">
<title>allProcessed</title>
<polygon fill="#32cd32" stroke="#000000" points="393.7457,-196 228.349,-178 393.7457,-160 559.1423,-178 393.7457,-196"/>
<text text-anchor="middle" x="393.7457" y="-174.3" font-family="Helvetica,sans-Serif" font-size="14.00" fill="#000000">Processed all workspaces?</text>
</g>
<!-- GroupSpectra&#45;&gt;allProcessed -->
<g id="edge15" class="edge">
<title>GroupSpectra&#45;&gt;allProcessed</title>
<path fill="none" stroke="#000000" d="M341.8019,-232.9551C350.7063,-223.5344 361.7147,-211.8879 371.3021,-201.7447"/>
<polygon fill="#000000" stroke="#000000" points="373.9727,-204.0145 378.2983,-194.3429 368.8855,-199.206 373.9727,-204.0145"/>
</g>
<!-- allProcessed&#45;&gt;ScaleMonitor -->
<g id="edge16" class="edge">
<title>allProcessed&#45;&gt;ScaleMonitor</title>
<path fill="none" stroke="#000000" d="M409.0963,-194.595C420.3765,-208.555 433.7457,-229.6118 433.7457,-251 433.7457,-498 433.7457,-498 433.7457,-498 433.7457,-512.7004 433.7457,-529.066 433.7457,-542.5698"/>
<polygon fill="#000000" stroke="#000000" points="430.2458,-542.6996 433.7457,-552.6997 437.2458,-542.6997 430.2458,-542.6996"/>
<text text-anchor="middle" x="544.2457" y="-363.8" font-family="Helvetica,sans-Serif" font-size="14.00" fill="#000000">No: repeat process with next monitor</text>
</g>
<!-- allProcessed&#45;&gt;GroupWorkspaces -->
<g id="edge17" class="edge">
<title>allProcessed&#45;&gt;GroupWorkspaces</title>
<path fill="none" stroke="#000000" d="M393.7457,-159.9735C393.7457,-148.1918 393.7457,-132.5607 393.7457,-119.1581"/>
<polygon fill="#000000" stroke="#000000" points="397.2458,-119.0033 393.7457,-109.0034 390.2458,-119.0034 397.2458,-119.0033"/>
<text text-anchor="middle" x="507.7457" y="-130.8" font-family="Helvetica,sans-Serif" font-size="14.00" fill="#000000">Yes: Group all processed workspaces</text>
</g>
</g>
</svg>
