<?xml version="1.0" encoding="UTF-8" standalone="no"?>
<!DOCTYPE svg PUBLIC "-//W3C//DTD SVG 1.1//EN"
 "http://www.w3.org/Graphics/SVG/1.1/DTD/svg11.dtd">
<!-- Generated by graphviz version 7.0.5 (20221231.0122)
 -->
<!-- Title: VesuvioDiffractionReduction Pages: 1 -->
<svg width="756pt" height="926pt"
 viewBox="0.00 0.00 755.60 926.00" xmlns="http://www.w3.org/2000/svg" xmlns:xlink="http://www.w3.org/1999/xlink">
<g id="graph0" class="graph" transform="scale(1 1) rotate(0) translate(4 922)">
<title>VesuvioDiffractionReduction</title>
<polygon fill="white" stroke="none" points="-4,4 -4,-922 751.6,-922 751.6,4 -4,4"/>
<text text-anchor="middle" x="373.8" y="-902.8" font-family="Helvetica,sans-Serif" font-size="14.00">VesuvioDiffractionReduction Flowchart</text>
<!-- ScaleMonitor -->
<g id="node1" class="node">
<title>ScaleMonitor</title>
<polygon fill="lightseagreen" stroke="black" points="660.1,-589 315.1,-589 315.1,-553 660.1,-553 660.1,-589"/>
<text text-anchor="middle" x="487.6" y="-567.3" font-family="Helvetica,sans-Serif" font-size="14.00">Scale data and detectors by monitor intensities</text>
</g>
<!-- DataWorkspaces -->
<g id="node4" class="node">
<title>DataWorkspaces</title>
<ellipse fill="khaki" stroke="black" cx="333.6" cy="-498" rx="86.38" ry="18"/>
<text text-anchor="middle" x="333.6" y="-494.3" font-family="Helvetica,sans-Serif" font-size="14.00">DataWorkspaces</text>
</g>
<!-- ScaleMonitor&#45;&gt;DataWorkspaces -->
<g id="edge9" class="edge">
<title>ScaleMonitor&#45;&gt;DataWorkspaces</title>
<path fill="none" stroke="black" d="M449.92,-552.63C428.32,-542.67 401.08,-530.11 378.38,-519.65"/>
<polygon fill="black" stroke="black" points="379.91,-516.5 369.36,-515.49 376.98,-522.85 379.91,-516.5"/>
</g>
<!-- InputFiles -->
<g id="node2" class="node">
<title>InputFiles</title>
<ellipse fill="khaki" stroke="black" cx="54.6" cy="-877" rx="54.69" ry="18"/>
<text text-anchor="middle" x="54.6" y="-873.3" font-family="Helvetica,sans-Serif" font-size="14.00">InputFiles</text>
</g>
<!-- LoadFiles -->
<g id="node12" class="node">
<title>LoadFiles</title>
<path fill="lightskyblue" stroke="black" d="M326.6,-822C326.6,-822 270.6,-822 270.6,-822 264.6,-822 258.6,-816 258.6,-810 258.6,-810 258.6,-798 258.6,-798 258.6,-792 264.6,-786 270.6,-786 270.6,-786 326.6,-786 326.6,-786 332.6,-786 338.6,-792 338.6,-798 338.6,-798 338.6,-810 338.6,-810 338.6,-816 332.6,-822 326.6,-822"/>
<text text-anchor="middle" x="298.6" y="-800.3" font-family="Helvetica,sans-Serif" font-size="14.00">LoadFiles</text>
</g>
<!-- InputFiles&#45;&gt;LoadFiles -->
<g id="edge1" class="edge">
<title>InputFiles&#45;&gt;LoadFiles</title>
<path fill="none" stroke="black" d="M94.61,-864.36C136.33,-852.22 201.85,-833.15 247.33,-819.92"/>
<polygon fill="black" stroke="black" points="248.07,-823.35 256.7,-817.19 246.12,-816.63 248.07,-823.35"/>
</g>
<!-- InstrumentParFile -->
<g id="node3" class="node">
<title>InstrumentParFile</title>
<ellipse fill="khaki" stroke="black" cx="218.6" cy="-877" rx="90.98" ry="18"/>
<text text-anchor="middle" x="218.6" y="-873.3" font-family="Helvetica,sans-Serif" font-size="14.00">InstrumentParFile</text>
</g>
<!-- InstrumentParFile&#45;&gt;LoadFiles -->
<g id="edge4" class="edge">
<title>InstrumentParFile&#45;&gt;LoadFiles</title>
<path fill="none" stroke="black" d="M237.55,-859.17C247.4,-850.44 259.62,-839.59 270.53,-829.9"/>
<polygon fill="black" stroke="black" points="272.65,-832.71 277.8,-823.45 268,-827.47 272.65,-832.71"/>
</g>
<!-- ConvertUnits -->
<g id="node15" class="node">
<title>ConvertUnits</title>
<path fill="lightskyblue" stroke="black" d="M410.1,-429C410.1,-429 327.1,-429 327.1,-429 321.1,-429 315.1,-423 315.1,-417 315.1,-417 315.1,-405 315.1,-405 315.1,-399 321.1,-393 327.1,-393 327.1,-393 410.1,-393 410.1,-393 416.1,-393 422.1,-399 422.1,-405 422.1,-405 422.1,-417 422.1,-417 422.1,-423 416.1,-429 410.1,-429"/>
<text text-anchor="middle" x="368.6" y="-407.3" font-family="Helvetica,sans-Serif" font-size="14.00">ConvertUnits</text>
</g>
<!-- DataWorkspaces&#45;&gt;ConvertUnits -->
<g id="edge10" class="edge">
<title>DataWorkspaces&#45;&gt;ConvertUnits</title>
<path fill="none" stroke="black" d="M330.88,-479.69C330.06,-469.76 330.31,-457.26 334.6,-447 335.92,-443.82 337.69,-440.77 339.72,-437.88"/>
<polygon fill="black" stroke="black" points="342.2,-440.36 345.92,-430.44 336.83,-435.88 342.2,-440.36"/>
<text text-anchor="middle" x="404.1" y="-450.8" font-family="Helvetica,sans-Serif" font-size="14.00">ConvertTo dSpacing</text>
</g>
<!-- MonitorWorkspaces -->
<g id="node5" class="node">
<title>MonitorWorkspaces</title>
<ellipse fill="khaki" stroke="black" cx="431.6" cy="-731" rx="99.38" ry="18"/>
<text text-anchor="middle" x="431.6" y="-727.3" font-family="Helvetica,sans-Serif" font-size="14.00">MonitorWorkspaces</text>
</g>
<!-- MonitorWorkspace -->
<g id="node6" class="node">
<title>MonitorWorkspace</title>
<ellipse fill="khaki" stroke="black" cx="477.6" cy="-644" rx="94.78" ry="18"/>
<text text-anchor="middle" x="477.6" y="-640.3" font-family="Helvetica,sans-Serif" font-size="14.00">MonitorWorkspace</text>
</g>
<!-- MonitorWorkspaces&#45;&gt;MonitorWorkspace -->
<g id="edge7" class="edge">
<title>MonitorWorkspaces&#45;&gt;MonitorWorkspace</title>
<path fill="none" stroke="black" d="M440.9,-712.8C447.2,-701.16 455.65,-685.55 462.86,-672.24"/>
<polygon fill="black" stroke="black" points="465.9,-673.97 467.58,-663.51 459.74,-670.64 465.9,-673.97"/>
<text text-anchor="middle" x="602.1" y="-683.8" font-family="Helvetica,sans-Serif" font-size="14.00">Select next monitor workspace to process</text>
</g>
<!-- MonitorWorkspace&#45;&gt;ScaleMonitor -->
<g id="edge8" class="edge">
<title>MonitorWorkspace&#45;&gt;ScaleMonitor</title>
<path fill="none" stroke="black" d="M480.02,-625.81C481.1,-618.14 482.4,-608.89 483.62,-600.24"/>
<polygon fill="black" stroke="black" points="487.06,-600.92 484.99,-590.53 480.13,-599.94 487.06,-600.92"/>
</g>
<!-- SumFiles -->
<g id="node7" class="node">
<title>SumFiles</title>
<ellipse fill="khaki" stroke="black" cx="378.6" cy="-877" rx="51.19" ry="18"/>
<text text-anchor="middle" x="378.6" y="-873.3" font-family="Helvetica,sans-Serif" font-size="14.00">SumFiles</text>
</g>
<!-- SumFiles&#45;&gt;LoadFiles -->
<g id="edge3" class="edge">
<title>SumFiles&#45;&gt;LoadFiles</title>
<path fill="none" stroke="black" d="M360.44,-859.89C350.38,-850.96 337.65,-839.66 326.36,-829.64"/>
<polygon fill="black" stroke="black" points="329.01,-827.31 319.21,-823.29 324.36,-832.55 329.01,-827.31"/>
</g>
<!-- SpectraRange -->
<g id="node8" class="node">
<title>SpectraRange</title>
<ellipse fill="khaki" stroke="black" cx="521.6" cy="-877" rx="74.19" ry="18"/>
<text text-anchor="middle" x="521.6" y="-873.3" font-family="Helvetica,sans-Serif" font-size="14.00">SpectraRange</text>
</g>
<!-- SpectraRange&#45;&gt;LoadFiles -->
<g id="edge2" class="edge">
<title>SpectraRange&#45;&gt;LoadFiles</title>
<path fill="none" stroke="black" d="M477.8,-862.06C440.93,-850.32 388.17,-833.52 349.44,-821.19"/>
<polygon fill="black" stroke="black" points="350.94,-817.99 340.35,-818.3 348.82,-824.66 350.94,-817.99"/>
</g>
<!-- RebinParam -->
<g id="node9" class="node">
<title>RebinParam</title>
<ellipse fill="khaki" stroke="black" cx="231.6" cy="-411" rx="65.79" ry="18"/>
<text text-anchor="middle" x="231.6" y="-407.3" font-family="Helvetica,sans-Serif" font-size="14.00">RebinParam</text>
</g>
<!-- Rebin -->
<g id="node13" class="node">
<title>Rebin</title>
<path fill="lightskyblue" stroke="black" d="M384.6,-342C384.6,-342 352.6,-342 352.6,-342 346.6,-342 340.6,-336 340.6,-330 340.6,-330 340.6,-318 340.6,-318 340.6,-312 346.6,-306 352.6,-306 352.6,-306 384.6,-306 384.6,-306 390.6,-306 396.6,-312 396.6,-318 396.6,-318 396.6,-330 396.6,-330 396.6,-336 390.6,-342 384.6,-342"/>
<text text-anchor="middle" x="368.6" y="-320.3" font-family="Helvetica,sans-Serif" font-size="14.00">Rebin</text>
</g>
<!-- RebinParam&#45;&gt;Rebin -->
<g id="edge12" class="edge">
<title>RebinParam&#45;&gt;Rebin</title>
<path fill="none" stroke="black" d="M257.36,-394.01C278.12,-381.14 307.58,-362.85 330.97,-348.34"/>
<polygon fill="black" stroke="black" points="332.65,-351.42 339.3,-343.18 328.96,-345.47 332.65,-351.42"/>
</g>
<!-- GroupingPolicy -->
<g id="node10" class="node">
<title>GroupingPolicy</title>
<ellipse fill="khaki" stroke="black" cx="244.6" cy="-324" rx="77.99" ry="18"/>
<text text-anchor="middle" x="244.6" y="-320.3" font-family="Helvetica,sans-Serif" font-size="14.00">GroupingPolicy</text>
</g>
<!-- GroupSpectra -->
<g id="node16" class="node">
<title>GroupSpectra</title>
<path fill="lightskyblue" stroke="black" d="M412.6,-269C412.6,-269 324.6,-269 324.6,-269 318.6,-269 312.6,-263 312.6,-257 312.6,-257 312.6,-245 312.6,-245 312.6,-239 318.6,-233 324.6,-233 324.6,-233 412.6,-233 412.6,-233 418.6,-233 424.6,-239 424.6,-245 424.6,-245 424.6,-257 424.6,-257 424.6,-263 418.6,-269 412.6,-269"/>
<text text-anchor="middle" x="368.6" y="-247.3" font-family="Helvetica,sans-Serif" font-size="14.00">GroupSpectra</text>
</g>
<!-- GroupingPolicy&#45;&gt;GroupSpectra -->
<g id="edge14" class="edge">
<title>GroupingPolicy&#45;&gt;GroupSpectra</title>
<path fill="none" stroke="black" d="M272.73,-306.89C289.25,-297.43 310.4,-285.32 328.63,-274.89"/>
<polygon fill="black" stroke="black" points="330.15,-278.05 337.09,-270.04 326.67,-271.97 330.15,-278.05"/>
</g>
<!-- OutputWorkspace -->
<g id="node11" class="node">
<title>OutputWorkspace</title>
<ellipse fill="khaki" stroke="black" cx="445.6" cy="-18" rx="92.08" ry="18"/>
<text text-anchor="middle" x="445.6" y="-14.3" font-family="Helvetica,sans-Serif" font-size="14.00">OutputWorkspace</text>
</g>
<!-- LoadFiles&#45;&gt;DataWorkspaces -->
<g id="edge5" class="edge">
<title>LoadFiles&#45;&gt;DataWorkspaces</title>
<path fill="none" stroke="black" d="M293.99,-785.63C290.61,-771.34 286.6,-750.5 286.6,-732 286.6,-732 286.6,-732 286.6,-570 286.6,-552.99 296.09,-536.93 306.55,-524.4"/>
<polygon fill="black" stroke="black" points="309.08,-526.82 313.19,-517.05 303.89,-522.12 309.08,-526.82"/>
</g>
<!-- LoadFiles&#45;&gt;MonitorWorkspaces -->
<g id="edge6" class="edge">
<title>LoadFiles&#45;&gt;MonitorWorkspaces</title>
<path fill="none" stroke="black" d="M331.13,-785.63C349.12,-776.03 371.65,-764 390.81,-753.77"/>
<polygon fill="black" stroke="black" points="392.26,-756.97 399.43,-749.17 388.96,-750.79 392.26,-756.97"/>
</g>
<!-- Rebin&#45;&gt;GroupSpectra -->
<g id="edge13" class="edge">
<title>Rebin&#45;&gt;GroupSpectra</title>
<path fill="none" stroke="black" d="M368.6,-305.81C368.6,-298.23 368.6,-289.1 368.6,-280.54"/>
<polygon fill="black" stroke="black" points="372.1,-280.54 368.6,-270.54 365.1,-280.54 372.1,-280.54"/>
</g>
<!-- GroupWorkspaces -->
<g id="node14" class="node">
<title>GroupWorkspaces</title>
<path fill="lightskyblue" stroke="black" d="M505.1,-109C505.1,-109 386.1,-109 386.1,-109 380.1,-109 374.1,-103 374.1,-97 374.1,-97 374.1,-85 374.1,-85 374.1,-79 380.1,-73 386.1,-73 386.1,-73 505.1,-73 505.1,-73 511.1,-73 517.1,-79 517.1,-85 517.1,-85 517.1,-97 517.1,-97 517.1,-103 511.1,-109 505.1,-109"/>
<text text-anchor="middle" x="445.6" y="-87.3" font-family="Helvetica,sans-Serif" font-size="14.00">GroupWorkspaces</text>
</g>
<!-- GroupWorkspaces&#45;&gt;OutputWorkspace -->
<g id="edge18" class="edge">
<title>GroupWorkspaces&#45;&gt;OutputWorkspace</title>
<path fill="none" stroke="black" d="M445.6,-72.81C445.6,-65.23 445.6,-56.1 445.6,-47.54"/>
<polygon fill="black" stroke="black" points="449.1,-47.54 445.6,-37.54 442.1,-47.54 449.1,-47.54"/>
</g>
<!-- ConvertUnits&#45;&gt;Rebin -->
<g id="edge11" class="edge">
<title>ConvertUnits&#45;&gt;Rebin</title>
<path fill="none" stroke="black" d="M368.6,-392.8C368.6,-381.58 368.6,-366.67 368.6,-353.69"/>
<polygon fill="black" stroke="black" points="372.1,-353.98 368.6,-343.98 365.1,-353.98 372.1,-353.98"/>
</g>
<!-- allProcessed -->
<g id="node17" class="node">
<title>allProcessed</title>
<polygon fill="limegreen" stroke="black" points="445.6,-196 261.93,-178 445.6,-160 629.26,-178 445.6,-196"/>
<text text-anchor="middle" x="445.6" y="-174.3" font-family="Helvetica,sans-Serif" font-size="14.00">Processed all workspaces?</text>
</g>
<!-- GroupSpectra&#45;&gt;allProcessed -->
<g id="edge15" class="edge">
<title>GroupSpectra&#45;&gt;allProcessed</title>
<path fill="none" stroke="black" d="M387.23,-232.81C397.14,-223.68 409.46,-212.32 420.22,-202.4"/>
<polygon fill="black" stroke="black" points="422.35,-205.19 427.33,-195.84 417.61,-200.05 422.35,-205.19"/>
</g>
<!-- allProcessed&#45;&gt;ScaleMonitor -->
<g id="edge16" class="edge">
<title>allProcessed&#45;&gt;ScaleMonitor</title>
<path fill="none" stroke="black" d="M461.47,-194.66C473.37,-208.11 487.6,-228.66 487.6,-250 487.6,-499 487.6,-499 487.6,-499 487.6,-512.92 487.6,-528.37 487.6,-541.3"/>
<polygon fill="black" stroke="black" points="484.1,-541.27 487.6,-551.27 491.1,-541.27 484.1,-541.27"/>
<text text-anchor="middle" x="616.6" y="-363.8" font-family="Helvetica,sans-Serif" font-size="14.00">No: repeat process with next monitor</text>
</g>
<!-- allProcessed&#45;&gt;GroupWorkspaces -->
<g id="edge17" class="edge">
<title>allProcessed&#45;&gt;GroupWorkspaces</title>
<path fill="none" stroke="black" d="M445.6,-159.8C445.6,-148.58 445.6,-133.67 445.6,-120.69"/>
<polygon fill="black" stroke="black" points="449.1,-120.98 445.6,-110.98 442.1,-120.98 449.1,-120.98"/>
<text text-anchor="middle" x="573.6" y="-130.8" font-family="Helvetica,sans-Serif" font-size="14.00">Yes: Group all processed workspaces</text>
</g>
</g>
</svg>
