<?xml version="1.0" encoding="UTF-8" standalone="no"?>
<!DOCTYPE svg PUBLIC "-//W3C//DTD SVG 1.1//EN"
 "http://www.w3.org/Graphics/SVG/1.1/DTD/svg11.dtd">
<!-- Generated by graphviz version 3.0.0 (20220315.2325)
 -->
<!-- Title: ApplyPaalmanPingsCorrection_SampleCorrectOnly Pages: 1 -->
<svg width="496pt" height="401pt"
 viewBox="0.00 0.00 495.74 401.00" xmlns="http://www.w3.org/2000/svg" xmlns:xlink="http://www.w3.org/1999/xlink">
<g id="graph0" class="graph" transform="scale(1 1) rotate(0) translate(4 397)">
<title>ApplyPaalmanPingsCorrection_SampleCorrectOnly</title>
<polygon fill="white" stroke="transparent" points="-4,4 -4,-397 491.74,-397 491.74,4 -4,4"/>
<text text-anchor="middle" x="243.87" y="-377.8" font-family="Helvetica,sans-Serif" font-size="14.00">ApplyPaalmanPingsCorrection Sample Correct Only Flowchart</text>
<!-- IsAssInWavelength -->
<g id="node1" class="node">
<title>IsAssInWavelength</title>
<polygon fill="limegreen" stroke="black" points="240.24,-283 111.38,-265 240.24,-247 369.11,-265 240.24,-283"/>
<text text-anchor="middle" x="240.24" y="-261.3" font-family="Helvetica,sans-Serif" font-size="14.00">Is in Wavelength?</text>
</g>
<!-- Divide -->
<g id="node5" class="node">
<title>Divide</title>
<path fill="lightskyblue" stroke="black" d="M242.24,-109C242.24,-109 206.24,-109 206.24,-109 200.24,-109 194.24,-103 194.24,-97 194.24,-97 194.24,-85 194.24,-85 194.24,-79 200.24,-73 206.24,-73 206.24,-73 242.24,-73 242.24,-73 248.24,-73 254.24,-79 254.24,-85 254.24,-85 254.24,-97 254.24,-97 254.24,-103 248.24,-109 242.24,-109"/>
<text text-anchor="middle" x="224.24" y="-87.3" font-family="Helvetica,sans-Serif" font-size="14.00">Divide</text>
</g>
<!-- IsAssInWavelength&#45;&gt;Divide -->
<g id="edge3" class="edge">
<title>IsAssInWavelength&#45;&gt;Divide</title>
<path fill="none" stroke="black" d="M238.68,-247.19C235.91,-217.47 230.14,-155.38 226.79,-119.39"/>
<polygon fill="black" stroke="black" points="230.25,-118.76 225.83,-109.13 223.28,-119.41 230.25,-118.76"/>
<text text-anchor="middle" x="303.24" y="-174.3" font-family="Helvetica,sans-Serif" font-size="14.00">Yes, RHSWorkspace</text>
</g>
<!-- ConvertUnits -->
<g id="node6" class="node">
<title>ConvertUnits</title>
<path fill="lightskyblue" stroke="black" d="M475.74,-196C475.74,-196 392.74,-196 392.74,-196 386.74,-196 380.74,-190 380.74,-184 380.74,-184 380.74,-172 380.74,-172 380.74,-166 386.74,-160 392.74,-160 392.74,-160 475.74,-160 475.74,-160 481.74,-160 487.74,-166 487.74,-172 487.74,-172 487.74,-184 487.74,-184 487.74,-190 481.74,-196 475.74,-196"/>
<text text-anchor="middle" x="434.24" y="-174.3" font-family="Helvetica,sans-Serif" font-size="14.00">ConvertUnits</text>
</g>
<!-- IsAssInWavelength&#45;&gt;ConvertUnits -->
<g id="edge4" class="edge">
<title>IsAssInWavelength&#45;&gt;ConvertUnits</title>
<path fill="none" stroke="black" d="M269.71,-251.09C300.45,-237.62 349.17,-216.27 385.63,-200.3"/>
<polygon fill="black" stroke="black" points="387.34,-203.37 395.09,-196.15 384.53,-196.96 387.34,-203.37"/>
<text text-anchor="middle" x="357.74" y="-217.8" font-family="Helvetica,sans-Serif" font-size="14.00">No</text>
</g>
<!-- SampleWorkspace -->
<g id="node2" class="node">
<title>SampleWorkspace</title>
<ellipse fill="khaki" stroke="black" cx="94.24" cy="-178" rx="94.48" ry="18"/>
<text text-anchor="middle" x="94.24" y="-174.3" font-family="Helvetica,sans-Serif" font-size="14.00">SampleWorkspace</text>
</g>
<!-- SampleWorkspace&#45;&gt;Divide -->
<g id="edge1" class="edge">
<title>SampleWorkspace&#45;&gt;Divide</title>
<path fill="none" stroke="black" d="M94.21,-159.67C95.11,-148.97 98.01,-135.68 106.24,-127 126.21,-105.95 158.2,-97.38 183.83,-93.98"/>
<polygon fill="black" stroke="black" points="184.46,-97.43 194.02,-92.85 183.69,-90.47 184.46,-97.43"/>
<text text-anchor="middle" x="158.24" y="-130.8" font-family="Helvetica,sans-Serif" font-size="14.00">LHSWorkspace</text>
</g>
<!-- CorrectionsWorkspace -->
<g id="node3" class="node">
<title>CorrectionsWorkspace</title>
<ellipse fill="khaki" stroke="black" cx="240.24" cy="-352" rx="111.58" ry="18"/>
<text text-anchor="middle" x="240.24" y="-348.3" font-family="Helvetica,sans-Serif" font-size="14.00">CorrectionsWorkspace</text>
</g>
<!-- CorrectionsWorkspace&#45;&gt;IsAssInWavelength -->
<g id="edge2" class="edge">
<title>CorrectionsWorkspace&#45;&gt;IsAssInWavelength</title>
<path fill="none" stroke="black" d="M240.24,-333.8C240.24,-322.16 240.24,-306.55 240.24,-293.24"/>
<polygon fill="black" stroke="black" points="243.74,-293.18 240.24,-283.18 236.74,-293.18 243.74,-293.18"/>
<text text-anchor="middle" x="255.24" y="-304.8" font-family="Helvetica,sans-Serif" font-size="14.00">As,s</text>
</g>
<!-- OutputWorkspace -->
<g id="node4" class="node">
<title>OutputWorkspace</title>
<ellipse fill="khaki" stroke="black" cx="224.24" cy="-18" rx="92.08" ry="18"/>
<text text-anchor="middle" x="224.24" y="-14.3" font-family="Helvetica,sans-Serif" font-size="14.00">OutputWorkspace</text>
</g>
<!-- Divide&#45;&gt;OutputWorkspace -->
<g id="edge6" class="edge">
<title>Divide&#45;&gt;OutputWorkspace</title>
<path fill="none" stroke="black" d="M224.24,-72.81C224.24,-64.79 224.24,-55.05 224.24,-46.07"/>
<polygon fill="black" stroke="black" points="227.74,-46.03 224.24,-36.03 220.74,-46.03 227.74,-46.03"/>
</g>
<!-- ConvertUnits&#45;&gt;Divide -->
<g id="edge5" class="edge">
<title>ConvertUnits&#45;&gt;Divide</title>
<path fill="none" stroke="black" d="M392,-159.9C354.62,-144.77 300.47,-122.85 263.89,-108.05"/>
<polygon fill="black" stroke="black" points="265.11,-104.77 254.53,-104.26 262.49,-111.26 265.11,-104.77"/>
<text text-anchor="middle" x="394.24" y="-130.8" font-family="Helvetica,sans-Serif" font-size="14.00">RHSWorkspace</text>
</g>
</g>
</svg>
