<?xml version="1.0" encoding="UTF-8" standalone="no"?>
<!DOCTYPE svg PUBLIC "-//W3C//DTD SVG 1.1//EN"
 "http://www.w3.org/Graphics/SVG/1.1/DTD/svg11.dtd">
<!-- Generated by graphviz version 3.0.0 (20220315.2325)
 -->
<!-- Title: HB3AWorkflow Pages: 1 -->
<svg width="321pt" height="328pt"
 viewBox="0.00 0.00 320.50 328.00" xmlns="http://www.w3.org/2000/svg" xmlns:xlink="http://www.w3.org/1999/xlink">
<g id="graph0" class="graph" transform="scale(1 1) rotate(0) translate(4 324)">
<title>HB3AWorkflow</title>
<polygon fill="white" stroke="transparent" points="-4,4 -4,-324 316.5,-324 316.5,4 -4,4"/>
<text text-anchor="middle" x="156.25" y="-304.8" font-family="Helvetica,sans-Serif" font-size="14.00">HB3A Workflow</text>
<!-- HB3AAdjustSampleNorm -->
<g id="node1" class="node">
<title>HB3AAdjustSampleNorm</title>
<path fill="lightskyblue" stroke="black" d="M285.5,-297C285.5,-297 119.5,-297 119.5,-297 113.5,-297 107.5,-291 107.5,-285 107.5,-285 107.5,-273 107.5,-273 107.5,-267 113.5,-261 119.5,-261 119.5,-261 285.5,-261 285.5,-261 291.5,-261 297.5,-267 297.5,-273 297.5,-273 297.5,-285 297.5,-285 297.5,-291 291.5,-297 285.5,-297"/>
<text text-anchor="middle" x="202.5" y="-275.3" font-family="Helvetica,sans-Serif" font-size="14.00">HB3AAdjustSampleNorm</text>
</g>
<!-- HB3AFindPeaks -->
<g id="node2" class="node">
<title>HB3AFindPeaks</title>
<path fill="lightskyblue" stroke="black" d="M113,-210C113,-210 12,-210 12,-210 6,-210 0,-204 0,-198 0,-198 0,-186 0,-186 0,-180 6,-174 12,-174 12,-174 113,-174 113,-174 119,-174 125,-180 125,-186 125,-186 125,-198 125,-198 125,-204 119,-210 113,-210"/>
<text text-anchor="middle" x="62.5" y="-188.3" font-family="Helvetica,sans-Serif" font-size="14.00">HB3AFindPeaks</text>
</g>
<!-- HB3AAdjustSampleNorm&#45;&gt;HB3AFindPeaks -->
<g id="edge1" class="edge">
<title>HB3AAdjustSampleNorm&#45;&gt;HB3AFindPeaks</title>
<path fill="none" stroke="black" d="M156.32,-260.84C144.62,-255.74 132.3,-249.7 121.5,-243 109.53,-235.57 97.46,-225.83 87.38,-216.92"/>
<polygon fill="black" stroke="black" points="89.52,-214.14 79.76,-210.01 84.82,-219.33 89.52,-214.14"/>
<text text-anchor="middle" x="138" y="-231.8" font-family="Helvetica,sans-Serif" font-size="14.00">Data</text>
</g>
<!-- HB3APredictPeaks -->
<g id="node3" class="node">
<title>HB3APredictPeaks</title>
<path fill="lightskyblue" stroke="black" d="M253,-123C253,-123 134,-123 134,-123 128,-123 122,-117 122,-111 122,-111 122,-99 122,-99 122,-93 128,-87 134,-87 134,-87 253,-87 253,-87 259,-87 265,-93 265,-99 265,-99 265,-111 265,-111 265,-117 259,-123 253,-123"/>
<text text-anchor="middle" x="193.5" y="-101.3" font-family="Helvetica,sans-Serif" font-size="14.00">HB3APredictPeaks</text>
</g>
<!-- HB3AAdjustSampleNorm&#45;&gt;HB3APredictPeaks -->
<g id="edge2" class="edge">
<title>HB3AAdjustSampleNorm&#45;&gt;HB3APredictPeaks</title>
<path fill="none" stroke="black" d="M196.01,-260.97C191.21,-247.4 185.06,-227.78 182.5,-210 178.76,-184.02 182.75,-154.21 186.94,-133.19"/>
<polygon fill="black" stroke="black" points="190.37,-133.86 189.04,-123.35 183.53,-132.4 190.37,-133.86"/>
<text text-anchor="middle" x="199" y="-188.3" font-family="Helvetica,sans-Serif" font-size="14.00">Data</text>
</g>
<!-- HB3AAdjustSampleNorm&#45;&gt;HB3APredictPeaks -->
<g id="edge3" class="edge">
<title>HB3AAdjustSampleNorm&#45;&gt;HB3APredictPeaks</title>
<path fill="none" stroke="black" d="M207.64,-260.65C213.09,-239.97 220.29,-204.38 215.5,-174 213.31,-160.12 208.75,-145.2 204.35,-132.89"/>
<polygon fill="black" stroke="black" points="207.52,-131.38 200.74,-123.24 200.96,-133.84 207.52,-131.38"/>
<text text-anchor="middle" x="228" y="-188.3" font-family="Helvetica,sans-Serif" font-size="14.00">UB</text>
</g>
<!-- HB3AIntegratePeaks -->
<g id="node4" class="node">
<title>HB3AIntegratePeaks</title>
<path fill="lightskyblue" stroke="black" d="M261.5,-36C261.5,-36 125.5,-36 125.5,-36 119.5,-36 113.5,-30 113.5,-24 113.5,-24 113.5,-12 113.5,-12 113.5,-6 119.5,0 125.5,0 125.5,0 261.5,0 261.5,0 267.5,0 273.5,-6 273.5,-12 273.5,-12 273.5,-24 273.5,-24 273.5,-30 267.5,-36 261.5,-36"/>
<text text-anchor="middle" x="193.5" y="-14.3" font-family="Helvetica,sans-Serif" font-size="14.00">HB3AIntegratePeaks</text>
</g>
<!-- HB3AAdjustSampleNorm&#45;&gt;HB3AIntegratePeaks -->
<g id="edge4" class="edge">
<title>HB3AAdjustSampleNorm&#45;&gt;HB3AIntegratePeaks</title>
<path fill="none" stroke="black" d="M217.99,-260.89C246.56,-227.17 302.18,-149.93 274.5,-87 266.33,-68.42 250.11,-53.21 234.32,-41.92"/>
<polygon fill="black" stroke="black" points="235.89,-38.76 225.65,-36.06 231.97,-44.56 235.89,-38.76"/>
<text text-anchor="middle" x="296" y="-144.8" font-family="Helvetica,sans-Serif" font-size="14.00">Data</text>
</g>
<!-- HB3AFindPeaks&#45;&gt;HB3APredictPeaks -->
<g id="edge5" class="edge">
<title>HB3AFindPeaks&#45;&gt;HB3APredictPeaks</title>
<path fill="none" stroke="black" d="M85.82,-173.82C99.51,-163.93 117.26,-151.43 133.5,-141 140.14,-136.74 147.3,-132.37 154.28,-128.23"/>
<polygon fill="black" stroke="black" points="156.12,-131.21 162.98,-123.13 152.58,-125.17 156.12,-131.21"/>
<text text-anchor="middle" x="144" y="-144.8" font-family="Helvetica,sans-Serif" font-size="14.00">UB</text>
</g>
<!-- HB3AFindPeaks&#45;&gt;HB3AIntegratePeaks -->
<g id="edge7" class="edge">
<title>HB3AFindPeaks&#45;&gt;HB3AIntegratePeaks</title>
<path fill="none" stroke="black" d="M59.41,-173.97C56.37,-152.01 54.37,-113.47 71.5,-87 85.1,-65.98 107.58,-50.85 129.56,-40.29"/>
<polygon fill="black" stroke="black" points="131.26,-43.36 138.92,-36.03 128.36,-36.98 131.26,-43.36"/>
<text text-anchor="middle" x="92" y="-101.3" font-family="Helvetica,sans-Serif" font-size="14.00">Peaks</text>
</g>
<!-- HB3APredictPeaks&#45;&gt;HB3AIntegratePeaks -->
<g id="edge6" class="edge">
<title>HB3APredictPeaks&#45;&gt;HB3AIntegratePeaks</title>
<path fill="none" stroke="black" d="M193.5,-86.8C193.5,-75.16 193.5,-59.55 193.5,-46.24"/>
<polygon fill="black" stroke="black" points="197,-46.18 193.5,-36.18 190,-46.18 197,-46.18"/>
<text text-anchor="middle" x="214" y="-57.8" font-family="Helvetica,sans-Serif" font-size="14.00">Peaks</text>
</g>
</g>
</svg>
