<?xml version="1.0" encoding="UTF-8" standalone="no"?>
<!DOCTYPE svg PUBLIC "-//W3C//DTD SVG 1.1//EN"
 "http://www.w3.org/Graphics/SVG/1.1/DTD/svg11.dtd">
<!-- Generated by graphviz version 3.0.0 (20220315.2325)
 -->
<!-- Title: Reference Pages: 1 -->
<svg width="1303pt" height="934pt"
 viewBox="0.00 0.00 1303.19 934.00" xmlns="http://www.w3.org/2000/svg" xmlns:xlink="http://www.w3.org/1999/xlink">
<g id="graph0" class="graph" transform="scale(1 1) rotate(0) translate(4 930)">
<title>Reference</title>
<polygon fill="white" stroke="transparent" points="-4,4 -4,-930 1299.19,-930 1299.19,4 -4,4"/>
<!-- NormaliseBy -->
<g id="node1" class="node">
<title>NormaliseBy</title>
<polygon fill="limegreen" stroke="black" points="1199.6,-780 1103.91,-762 1199.6,-744 1295.28,-762 1199.6,-780"/>
<text text-anchor="middle" x="1199.6" y="-758.3" font-family="Helvetica,sans-Serif" font-size="14.00">NormaliseBy</text>
</g>
<!-- Divide -->
<g id="node12" class="node">
<title>Divide</title>
<path fill="lightskyblue" stroke="black" d="M1217.6,-707C1217.6,-707 1181.6,-707 1181.6,-707 1175.6,-707 1169.6,-701 1169.6,-695 1169.6,-695 1169.6,-683 1169.6,-683 1169.6,-677 1175.6,-671 1181.6,-671 1181.6,-671 1217.6,-671 1217.6,-671 1223.6,-671 1229.6,-677 1229.6,-683 1229.6,-683 1229.6,-695 1229.6,-695 1229.6,-701 1223.6,-707 1217.6,-707"/>
<text text-anchor="middle" x="1199.6" y="-685.3" font-family="Helvetica,sans-Serif" font-size="14.00">Divide</text>
</g>
<!-- NormaliseBy&#45;&gt;Divide -->
<g id="edge3" class="edge">
<title>NormaliseBy&#45;&gt;Divide</title>
<path fill="none" stroke="black" d="M1199.6,-743.81C1199.6,-735.79 1199.6,-726.05 1199.6,-717.07"/>
<polygon fill="black" stroke="black" points="1203.1,-717.03 1199.6,-707.03 1196.1,-717.03 1203.1,-717.03"/>
</g>
<!-- Run -->
<g id="node2" class="node">
<title>Run</title>
<ellipse fill="khaki" stroke="black" cx="1199.6" cy="-908" rx="28.7" ry="18"/>
<text text-anchor="middle" x="1199.6" y="-904.3" font-family="Helvetica,sans-Serif" font-size="14.00">Run</text>
</g>
<!-- LoadAndMerge -->
<g id="node11" class="node">
<title>LoadAndMerge</title>
<path fill="lightskyblue" stroke="black" d="M1248.1,-853C1248.1,-853 1151.1,-853 1151.1,-853 1145.1,-853 1139.1,-847 1139.1,-841 1139.1,-841 1139.1,-829 1139.1,-829 1139.1,-823 1145.1,-817 1151.1,-817 1151.1,-817 1248.1,-817 1248.1,-817 1254.1,-817 1260.1,-823 1260.1,-829 1260.1,-829 1260.1,-841 1260.1,-841 1260.1,-847 1254.1,-853 1248.1,-853"/>
<text text-anchor="middle" x="1199.6" y="-831.3" font-family="Helvetica,sans-Serif" font-size="14.00">LoadAndMerge</text>
</g>
<!-- Run&#45;&gt;LoadAndMerge -->
<g id="edge1" class="edge">
<title>Run&#45;&gt;LoadAndMerge</title>
<path fill="none" stroke="black" d="M1199.6,-889.81C1199.6,-881.79 1199.6,-872.05 1199.6,-863.07"/>
<polygon fill="black" stroke="black" points="1203.1,-863.03 1199.6,-853.03 1196.1,-863.03 1203.1,-863.03"/>
</g>
<!-- AbsorberInputWorkspace -->
<g id="node3" class="node">
<title>AbsorberInputWorkspace</title>
<ellipse fill="khaki" stroke="black" cx="1025.6" cy="-689" rx="126.18" ry="18"/>
<text text-anchor="middle" x="1025.6" y="-685.3" font-family="Helvetica,sans-Serif" font-size="14.00">AbsorberInputWorkspace</text>
</g>
<!-- Minus -->
<g id="node13" class="node">
<title>Minus</title>
<path fill="lightskyblue" stroke="black" d="M1092.6,-634C1092.6,-634 1058.6,-634 1058.6,-634 1052.6,-634 1046.6,-628 1046.6,-622 1046.6,-622 1046.6,-610 1046.6,-610 1046.6,-604 1052.6,-598 1058.6,-598 1058.6,-598 1092.6,-598 1092.6,-598 1098.6,-598 1104.6,-604 1104.6,-610 1104.6,-610 1104.6,-622 1104.6,-622 1104.6,-628 1098.6,-634 1092.6,-634"/>
<text text-anchor="middle" x="1075.6" y="-612.3" font-family="Helvetica,sans-Serif" font-size="14.00">Minus</text>
</g>
<!-- AbsorberInputWorkspace&#45;&gt;Minus -->
<g id="edge5" class="edge">
<title>AbsorberInputWorkspace&#45;&gt;Minus</title>
<path fill="none" stroke="black" d="M1037.7,-670.81C1043.72,-662.27 1051.11,-651.77 1057.77,-642.32"/>
<polygon fill="black" stroke="black" points="1060.71,-644.22 1063.61,-634.03 1054.99,-640.19 1060.71,-644.22"/>
</g>
<!-- ContainerInputWorkspace -->
<g id="node4" class="node">
<title>ContainerInputWorkspace</title>
<ellipse fill="khaki" stroke="black" cx="527.6" cy="-383" rx="128.08" ry="18"/>
<text text-anchor="middle" x="527.6" y="-379.3" font-family="Helvetica,sans-Serif" font-size="14.00">ContainerInputWorkspace</text>
</g>
<!-- Minus2 -->
<g id="node17" class="node">
<title>Minus2</title>
<path fill="lightskyblue" stroke="black" d="M614.6,-328C614.6,-328 580.6,-328 580.6,-328 574.6,-328 568.6,-322 568.6,-316 568.6,-316 568.6,-304 568.6,-304 568.6,-298 574.6,-292 580.6,-292 580.6,-292 614.6,-292 614.6,-292 620.6,-292 626.6,-298 626.6,-304 626.6,-304 626.6,-316 626.6,-316 626.6,-322 620.6,-328 614.6,-328"/>
<text text-anchor="middle" x="597.6" y="-306.3" font-family="Helvetica,sans-Serif" font-size="14.00">Minus</text>
</g>
<!-- ContainerInputWorkspace&#45;&gt;Minus2 -->
<g id="edge12" class="edge">
<title>ContainerInputWorkspace&#45;&gt;Minus2</title>
<path fill="none" stroke="black" d="M544.54,-364.81C553.31,-355.92 564.17,-344.91 573.77,-335.17"/>
<polygon fill="black" stroke="black" points="576.28,-337.61 580.81,-328.03 571.3,-332.69 576.28,-337.61"/>
</g>
<!-- MaskedInputWorkspace -->
<g id="node5" class="node">
<title>MaskedInputWorkspace</title>
<ellipse fill="khaki" stroke="black" cx="432.6" cy="-310" rx="118.08" ry="18"/>
<text text-anchor="middle" x="432.6" y="-306.3" font-family="Helvetica,sans-Serif" font-size="14.00">MaskedInputWorkspace</text>
</g>
<!-- MaskDetectors -->
<g id="node19" class="node">
<title>MaskDetectors</title>
<path fill="lightskyblue" stroke="black" d="M528.1,-255C528.1,-255 433.1,-255 433.1,-255 427.1,-255 421.1,-249 421.1,-243 421.1,-243 421.1,-231 421.1,-231 421.1,-225 427.1,-219 433.1,-219 433.1,-219 528.1,-219 528.1,-219 534.1,-219 540.1,-225 540.1,-231 540.1,-231 540.1,-243 540.1,-243 540.1,-249 534.1,-255 528.1,-255"/>
<text text-anchor="middle" x="480.6" y="-233.3" font-family="Helvetica,sans-Serif" font-size="14.00">MaskDetectors</text>
</g>
<!-- MaskedInputWorkspace&#45;&gt;MaskDetectors -->
<g id="edge14" class="edge">
<title>MaskedInputWorkspace&#45;&gt;MaskDetectors</title>
<path fill="none" stroke="black" d="M444.22,-291.81C450,-283.27 457.09,-272.77 463.48,-263.32"/>
<polygon fill="black" stroke="black" points="466.39,-265.27 469.09,-255.03 460.59,-261.35 466.39,-265.27"/>
</g>
<!-- BeamInputWorkspace -->
<g id="node6" class="node">
<title>BeamInputWorkspace</title>
<ellipse fill="khaki" stroke="black" cx="918.6" cy="-616" rx="110.48" ry="18"/>
<text text-anchor="middle" x="918.6" y="-612.3" font-family="Helvetica,sans-Serif" font-size="14.00">BeamInputWorkspace</text>
</g>
<!-- MoveInstrumentComponent -->
<g id="node14" class="node">
<title>MoveInstrumentComponent</title>
<path fill="lightskyblue" stroke="black" d="M1024.1,-561C1024.1,-561 837.1,-561 837.1,-561 831.1,-561 825.1,-555 825.1,-549 825.1,-549 825.1,-537 825.1,-537 825.1,-531 831.1,-525 837.1,-525 837.1,-525 1024.1,-525 1024.1,-525 1030.1,-525 1036.1,-531 1036.1,-537 1036.1,-537 1036.1,-549 1036.1,-549 1036.1,-555 1030.1,-561 1024.1,-561"/>
<text text-anchor="middle" x="930.6" y="-539.3" font-family="Helvetica,sans-Serif" font-size="14.00">MoveInstrumentComponent</text>
</g>
<!-- BeamInputWorkspace&#45;&gt;MoveInstrumentComponent -->
<g id="edge7" class="edge">
<title>BeamInputWorkspace&#45;&gt;MoveInstrumentComponent</title>
<path fill="none" stroke="black" d="M921.5,-597.81C922.86,-589.79 924.51,-580.05 926.02,-571.07"/>
<polygon fill="black" stroke="black" points="929.51,-571.47 927.72,-561.03 922.6,-570.31 929.51,-571.47"/>
</g>
<!-- TransmissionInputWorkspace -->
<g id="node7" class="node">
<title>TransmissionInputWorkspace</title>
<ellipse fill="khaki" stroke="black" cx="724.6" cy="-456" rx="142.97" ry="18"/>
<text text-anchor="middle" x="724.6" y="-452.3" font-family="Helvetica,sans-Serif" font-size="14.00">TransmissionInputWorkspace</text>
</g>
<!-- ApplyTransmissionCorrection -->
<g id="node15" class="node">
<title>ApplyTransmissionCorrection</title>
<path fill="lightskyblue" stroke="black" d="M879.6,-401C879.6,-401 685.6,-401 685.6,-401 679.6,-401 673.6,-395 673.6,-389 673.6,-389 673.6,-377 673.6,-377 673.6,-371 679.6,-365 685.6,-365 685.6,-365 879.6,-365 879.6,-365 885.6,-365 891.6,-371 891.6,-377 891.6,-377 891.6,-389 891.6,-389 891.6,-395 885.6,-401 879.6,-401"/>
<text text-anchor="middle" x="782.6" y="-379.3" font-family="Helvetica,sans-Serif" font-size="14.00">ApplyTransmissionCorrection</text>
</g>
<!-- TransmissionInputWorkspace&#45;&gt;ApplyTransmissionCorrection -->
<g id="edge10" class="edge">
<title>TransmissionInputWorkspace&#45;&gt;ApplyTransmissionCorrection</title>
<path fill="none" stroke="black" d="M738.64,-437.81C745.69,-429.18 754.37,-418.56 762.15,-409.03"/>
<polygon fill="black" stroke="black" points="765.07,-410.99 768.69,-401.03 759.65,-406.56 765.07,-410.99"/>
</g>
<!-- SampleThickness -->
<g id="node8" class="node">
<title>SampleThickness</title>
<ellipse fill="khaki" stroke="black" cx="313.6" cy="-237" rx="89.08" ry="18"/>
<text text-anchor="middle" x="313.6" y="-233.3" font-family="Helvetica,sans-Serif" font-size="14.00">SampleThickness</text>
</g>
<!-- NormaliseByThickness -->
<g id="node20" class="node">
<title>NormaliseByThickness</title>
<path fill="lightskyblue" stroke="black" d="M400.1,-182C400.1,-182 251.1,-182 251.1,-182 245.1,-182 239.1,-176 239.1,-170 239.1,-170 239.1,-158 239.1,-158 239.1,-152 245.1,-146 251.1,-146 251.1,-146 400.1,-146 400.1,-146 406.1,-146 412.1,-152 412.1,-158 412.1,-158 412.1,-170 412.1,-170 412.1,-176 406.1,-182 400.1,-182"/>
<text text-anchor="middle" x="325.6" y="-160.3" font-family="Helvetica,sans-Serif" font-size="14.00">NormaliseByThickness</text>
</g>
<!-- SampleThickness&#45;&gt;NormaliseByThickness -->
<g id="edge16" class="edge">
<title>SampleThickness&#45;&gt;NormaliseByThickness</title>
<path fill="none" stroke="black" d="M316.5,-218.81C317.86,-210.79 319.51,-201.05 321.02,-192.07"/>
<polygon fill="black" stroke="black" points="324.51,-192.47 322.72,-182.03 317.6,-191.31 324.51,-192.47"/>
</g>
<!-- OutputWorkspace -->
<g id="node9" class="node">
<title>OutputWorkspace</title>
<polygon fill="grey" stroke="black" points="578.95,-109 358.86,-109 302.25,-73 522.33,-73 578.95,-109"/>
<text text-anchor="middle" x="440.6" y="-87.3" font-family="Times,serif" font-size="14.00">OutputWorkspace</text>
</g>
<!-- SensitivityOutputWorkspace -->
<g id="node10" class="node">
<title>SensitivityOutputWorkspace</title>
<polygon fill="grey" stroke="black" points="421.3,-36 86.12,-36 -0.1,0 335.08,0 421.3,-36"/>
<text text-anchor="middle" x="210.6" y="-14.3" font-family="Times,serif" font-size="14.00">SensitivityOutputWorkspace</text>
</g>
<!-- LoadAndMerge&#45;&gt;NormaliseBy -->
<g id="edge2" class="edge">
<title>LoadAndMerge&#45;&gt;NormaliseBy</title>
<path fill="none" stroke="black" d="M1199.6,-816.81C1199.6,-808.79 1199.6,-799.05 1199.6,-790.07"/>
<polygon fill="black" stroke="black" points="1203.1,-790.03 1199.6,-780.03 1196.1,-790.03 1203.1,-790.03"/>
</g>
<!-- Divide&#45;&gt;Minus -->
<g id="edge4" class="edge">
<title>Divide&#45;&gt;Minus</title>
<path fill="none" stroke="black" d="M1169.9,-670.99C1153.06,-661.35 1131.81,-649.18 1113.75,-638.84"/>
<polygon fill="black" stroke="black" points="1115.05,-635.55 1104.63,-633.62 1111.57,-641.63 1115.05,-635.55"/>
</g>
<!-- Minus&#45;&gt;MoveInstrumentComponent -->
<g id="edge6" class="edge">
<title>Minus&#45;&gt;MoveInstrumentComponent</title>
<path fill="none" stroke="black" d="M1046.26,-600.63C1025.75,-590.59 997.99,-577 974.81,-565.65"/>
<polygon fill="black" stroke="black" points="976.04,-562.35 965.52,-561.1 972.96,-568.64 976.04,-562.35"/>
</g>
<!-- SolidAngle -->
<g id="node16" class="node">
<title>SolidAngle</title>
<path fill="lightskyblue" stroke="black" d="M963.6,-474C963.6,-474 897.6,-474 897.6,-474 891.6,-474 885.6,-468 885.6,-462 885.6,-462 885.6,-450 885.6,-450 885.6,-444 891.6,-438 897.6,-438 897.6,-438 963.6,-438 963.6,-438 969.6,-438 975.6,-444 975.6,-450 975.6,-450 975.6,-462 975.6,-462 975.6,-468 969.6,-474 963.6,-474"/>
<text text-anchor="middle" x="930.6" y="-452.3" font-family="Helvetica,sans-Serif" font-size="14.00">SolidAngle</text>
</g>
<!-- MoveInstrumentComponent&#45;&gt;SolidAngle -->
<g id="edge8" class="edge">
<title>MoveInstrumentComponent&#45;&gt;SolidAngle</title>
<path fill="none" stroke="black" d="M930.6,-524.8C930.6,-513.16 930.6,-497.55 930.6,-484.24"/>
<polygon fill="black" stroke="black" points="934.1,-484.18 930.6,-474.18 927.1,-484.18 934.1,-484.18"/>
<text text-anchor="middle" x="952.6" y="-495.8" font-family="Helvetica,sans-Serif" font-size="14.00">Divide</text>
</g>
<!-- ApplyTransmissionCorrection&#45;&gt;Minus2 -->
<g id="edge11" class="edge">
<title>ApplyTransmissionCorrection&#45;&gt;Minus2</title>
<path fill="none" stroke="black" d="M738.29,-364.99C707.27,-353.09 666.21,-337.33 636.47,-325.92"/>
<polygon fill="black" stroke="black" points="637.43,-322.54 626.84,-322.22 634.93,-329.07 637.43,-322.54"/>
</g>
<!-- SolidAngle&#45;&gt;ApplyTransmissionCorrection -->
<g id="edge9" class="edge">
<title>SolidAngle&#45;&gt;ApplyTransmissionCorrection</title>
<path fill="none" stroke="black" d="M895.15,-437.99C874.8,-428.23 849.05,-415.88 827.31,-405.45"/>
<polygon fill="black" stroke="black" points="828.8,-402.28 818.27,-401.11 825.78,-408.59 828.8,-402.28"/>
</g>
<!-- Minus2&#45;&gt;MaskDetectors -->
<g id="edge13" class="edge">
<title>Minus2&#45;&gt;MaskDetectors</title>
<path fill="none" stroke="black" d="M569.58,-291.99C554.06,-282.58 534.58,-270.76 517.8,-260.57"/>
<polygon fill="black" stroke="black" points="519.17,-257.31 508.8,-255.11 515.53,-263.29 519.17,-257.31"/>
</g>
<!-- CalculateEfficiency -->
<g id="node18" class="node">
<title>CalculateEfficiency</title>
<path fill="lightskyblue" stroke="black" d="M272.6,-109C272.6,-109 148.6,-109 148.6,-109 142.6,-109 136.6,-103 136.6,-97 136.6,-97 136.6,-85 136.6,-85 136.6,-79 142.6,-73 148.6,-73 148.6,-73 272.6,-73 272.6,-73 278.6,-73 284.6,-79 284.6,-85 284.6,-85 284.6,-97 284.6,-97 284.6,-103 278.6,-109 272.6,-109"/>
<text text-anchor="middle" x="210.6" y="-87.3" font-family="Helvetica,sans-Serif" font-size="14.00">CalculateEfficiency</text>
</g>
<!-- CalculateEfficiency&#45;&gt;SensitivityOutputWorkspace -->
<g id="edge18" class="edge">
<title>CalculateEfficiency&#45;&gt;SensitivityOutputWorkspace</title>
<path fill="none" stroke="black" d="M210.6,-72.81C210.6,-64.79 210.6,-55.05 210.6,-46.07"/>
<polygon fill="black" stroke="black" points="214.1,-46.03 210.6,-36.03 207.1,-46.03 214.1,-46.03"/>
</g>
<!-- MaskDetectors&#45;&gt;NormaliseByThickness -->
<g id="edge15" class="edge">
<title>MaskDetectors&#45;&gt;NormaliseByThickness</title>
<path fill="none" stroke="black" d="M443.47,-218.99C422.06,-209.19 394.95,-196.77 372.12,-186.31"/>
<polygon fill="black" stroke="black" points="373.51,-183.1 362.96,-182.11 370.59,-189.46 373.51,-183.1"/>
</g>
<!-- NormaliseByThickness&#45;&gt;OutputWorkspace -->
<g id="edge19" class="edge">
<title>NormaliseByThickness&#45;&gt;OutputWorkspace</title>
<path fill="none" stroke="black" d="M353.14,-145.99C368.39,-136.58 387.54,-124.76 404.03,-114.57"/>
<polygon fill="black" stroke="black" points="406.21,-117.35 412.88,-109.11 402.53,-111.39 406.21,-117.35"/>
</g>
<!-- NormaliseByThickness&#45;&gt;CalculateEfficiency -->
<g id="edge17" class="edge">
<title>NormaliseByThickness&#45;&gt;CalculateEfficiency</title>
<path fill="none" stroke="black" d="M298.05,-145.99C282.8,-136.58 263.65,-124.76 247.16,-114.57"/>
<polygon fill="black" stroke="black" points="248.67,-111.39 238.32,-109.11 244.99,-117.35 248.67,-111.39"/>
</g>
</g>
</svg>
