<?xml version="1.0" encoding="UTF-8" standalone="no"?>
<!DOCTYPE svg PUBLIC "-//W3C//DTD SVG 1.1//EN"
 "http://www.w3.org/Graphics/SVG/1.1/DTD/svg11.dtd">
<!-- Generated by graphviz version 3.0.0 (20220315.2325)
 -->
<!-- Title: DarkCurrent Pages: 1 -->
<svg width="338pt" height="260pt"
 viewBox="0.00 0.00 338.09 260.00" xmlns="http://www.w3.org/2000/svg" xmlns:xlink="http://www.w3.org/1999/xlink">
<g id="graph0" class="graph" transform="scale(1 1) rotate(0) translate(4 256)">
<title>DarkCurrent</title>
<polygon fill="white" stroke="transparent" points="-4,4 -4,-256 334.09,-256 334.09,4 -4,4"/>
<!-- NormaliseBy -->
<g id="node1" class="node">
<title>NormaliseBy</title>
<polygon fill="limegreen" stroke="black" points="95.59,-180 -0.09,-162 95.59,-144 191.28,-162 95.59,-180"/>
<text text-anchor="middle" x="95.59" y="-158.3" font-family="Helvetica,sans-Serif" font-size="14.00">NormaliseBy</text>
</g>
<!-- Divide -->
<g id="node5" class="node">
<title>Divide</title>
<path fill="lightskyblue" stroke="black" d="M200.59,-108C200.59,-108 164.59,-108 164.59,-108 158.59,-108 152.59,-102 152.59,-96 152.59,-96 152.59,-84 152.59,-84 152.59,-78 158.59,-72 164.59,-72 164.59,-72 200.59,-72 200.59,-72 206.59,-72 212.59,-78 212.59,-84 212.59,-84 212.59,-96 212.59,-96 212.59,-102 206.59,-108 200.59,-108"/>
<text text-anchor="middle" x="182.59" y="-86.3" font-family="Helvetica,sans-Serif" font-size="14.00">Divide</text>
</g>
<!-- NormaliseBy&#45;&gt;Divide -->
<g id="edge2" class="edge">
<title>NormaliseBy&#45;&gt;Divide</title>
<path fill="none" stroke="black" d="M112.78,-147.17C124.35,-137.87 139.88,-125.36 153.37,-114.52"/>
<polygon fill="black" stroke="black" points="155.84,-117.01 161.44,-108.02 151.45,-111.56 155.84,-117.01"/>
</g>
<!-- Runs -->
<g id="node2" class="node">
<title>Runs</title>
<ellipse fill="khaki" stroke="black" cx="269.59" cy="-234" rx="33.29" ry="18"/>
<text text-anchor="middle" x="269.59" y="-230.3" font-family="Helvetica,sans-Serif" font-size="14.00">Runs</text>
</g>
<!-- LoadAndMerge -->
<g id="node4" class="node">
<title>LoadAndMerge</title>
<path fill="lightskyblue" stroke="black" d="M318.09,-180C318.09,-180 221.09,-180 221.09,-180 215.09,-180 209.09,-174 209.09,-168 209.09,-168 209.09,-156 209.09,-156 209.09,-150 215.09,-144 221.09,-144 221.09,-144 318.09,-144 318.09,-144 324.09,-144 330.09,-150 330.09,-156 330.09,-156 330.09,-168 330.09,-168 330.09,-174 324.09,-180 318.09,-180"/>
<text text-anchor="middle" x="269.59" y="-158.3" font-family="Helvetica,sans-Serif" font-size="14.00">LoadAndMerge</text>
</g>
<!-- Runs&#45;&gt;LoadAndMerge -->
<g id="edge1" class="edge">
<title>Runs&#45;&gt;LoadAndMerge</title>
<path fill="none" stroke="black" d="M269.59,-215.7C269.59,-207.98 269.59,-198.71 269.59,-190.11"/>
<polygon fill="black" stroke="black" points="273.09,-190.1 269.59,-180.1 266.09,-190.1 273.09,-190.1"/>
</g>
<!-- OutputWorkspace -->
<g id="node3" class="node">
<title>OutputWorkspace</title>
<polygon fill="grey" stroke="black" points="320.94,-36 100.86,-36 44.24,0 264.33,0 320.94,-36"/>
<text text-anchor="middle" x="182.59" y="-14.3" font-family="Times,serif" font-size="14.00">OutputWorkspace</text>
</g>
<!-- LoadAndMerge&#45;&gt;Divide -->
<g id="edge3" class="edge">
<title>LoadAndMerge&#45;&gt;Divide</title>
<path fill="none" stroke="black" d="M248.09,-143.7C237.13,-134.88 223.65,-124.03 211.77,-114.47"/>
<polygon fill="black" stroke="black" points="213.84,-111.65 203.85,-108.1 209.45,-117.1 213.84,-111.65"/>
</g>
<!-- Divide&#45;&gt;OutputWorkspace -->
<g id="edge4" class="edge">
<title>Divide&#45;&gt;OutputWorkspace</title>
<path fill="none" stroke="black" d="M182.59,-71.7C182.59,-63.98 182.59,-54.71 182.59,-46.11"/>
<polygon fill="black" stroke="black" points="186.09,-46.1 182.59,-36.1 179.09,-46.1 186.09,-46.1"/>
</g>
</g>
</svg>
