<?xml version="1.0" encoding="UTF-8" standalone="no"?>
<!DOCTYPE svg PUBLIC "-//W3C//DTD SVG 1.1//EN"
 "http://www.w3.org/Graphics/SVG/1.1/DTD/svg11.dtd">
<!-- Generated by graphviz version 3.0.0 (20220315.2325)
 -->
<!-- Title: IndirectCylinderAbsorption Pages: 1 -->
<svg width="1407pt" height="1879pt"
 viewBox="0.00 0.00 1407.33 1879.00" xmlns="http://www.w3.org/2000/svg" xmlns:xlink="http://www.w3.org/1999/xlink">
<g id="graph0" class="graph" transform="scale(1 1) rotate(0) translate(4 1875)">
<title>IndirectCylinderAbsorption</title>
<polygon fill="white" stroke="transparent" points="-4,4 -4,-1875 1403.33,-1875 1403.33,4 -4,4"/>
<text text-anchor="middle" x="699.66" y="-1855.8" font-family="Helvetica,sans-Serif" font-size="14.00">IndirectCylinderAbsorption Flowchart</text>
<!-- SampleWorkspace1 -->
<g id="node1" class="node">
<title>SampleWorkspace1</title>
<ellipse fill="khaki" stroke="black" cx="657.84" cy="-1830" rx="94.48" ry="18"/>
<text text-anchor="middle" x="657.84" y="-1826.3" font-family="Helvetica,sans-Serif" font-size="14.00">SampleWorkspace</text>
</g>
<!-- GetEFixed -->
<g id="node22" class="node">
<title>GetEFixed</title>
<path fill="lightskyblue" stroke="black" d="M652.84,-1775C652.84,-1775 590.84,-1775 590.84,-1775 584.84,-1775 578.84,-1769 578.84,-1763 578.84,-1763 578.84,-1751 578.84,-1751 578.84,-1745 584.84,-1739 590.84,-1739 590.84,-1739 652.84,-1739 652.84,-1739 658.84,-1739 664.84,-1745 664.84,-1751 664.84,-1751 664.84,-1763 664.84,-1763 664.84,-1769 658.84,-1775 652.84,-1775"/>
<text text-anchor="middle" x="621.84" y="-1753.3" font-family="Helvetica,sans-Serif" font-size="14.00">GetEFixed</text>
</g>
<!-- SampleWorkspace1&#45;&gt;GetEFixed -->
<g id="edge1" class="edge">
<title>SampleWorkspace1&#45;&gt;GetEFixed</title>
<path fill="none" stroke="black" d="M649.13,-1811.81C644.92,-1803.53 639.79,-1793.41 635.12,-1784.19"/>
<polygon fill="black" stroke="black" points="638.12,-1782.37 630.47,-1775.03 631.88,-1785.53 638.12,-1782.37"/>
</g>
<!-- ConvertUnits1 -->
<g id="node23" class="node">
<title>ConvertUnits1</title>
<path fill="lightskyblue" stroke="black" d="M737.34,-1629C737.34,-1629 654.34,-1629 654.34,-1629 648.34,-1629 642.34,-1623 642.34,-1617 642.34,-1617 642.34,-1605 642.34,-1605 642.34,-1599 648.34,-1593 654.34,-1593 654.34,-1593 737.34,-1593 737.34,-1593 743.34,-1593 749.34,-1599 749.34,-1605 749.34,-1605 749.34,-1617 749.34,-1617 749.34,-1623 743.34,-1629 737.34,-1629"/>
<text text-anchor="middle" x="695.84" y="-1607.3" font-family="Helvetica,sans-Serif" font-size="14.00">ConvertUnits</text>
</g>
<!-- SampleWorkspace1&#45;&gt;ConvertUnits1 -->
<g id="edge4" class="edge">
<title>SampleWorkspace1&#45;&gt;ConvertUnits1</title>
<path fill="none" stroke="black" d="M663.72,-1811.67C667.09,-1801.16 671.18,-1787.43 673.84,-1775 683.95,-1727.84 690.29,-1671.95 693.44,-1639.39"/>
<polygon fill="black" stroke="black" points="696.94,-1639.56 694.39,-1629.28 689.97,-1638.91 696.94,-1639.56"/>
</g>
<!-- SampleWorkspace2 -->
<g id="node2" class="node">
<title>SampleWorkspace2</title>
<ellipse fill="khaki" stroke="black" cx="323.84" cy="-543" rx="94.48" ry="18"/>
<text text-anchor="middle" x="323.84" y="-539.3" font-family="Helvetica,sans-Serif" font-size="14.00">SampleWorkspace</text>
</g>
<!-- Minus1 -->
<g id="node34" class="node">
<title>Minus1</title>
<path fill="lightskyblue" stroke="black" d="M402.84,-415C402.84,-415 368.84,-415 368.84,-415 362.84,-415 356.84,-409 356.84,-403 356.84,-403 356.84,-391 356.84,-391 356.84,-385 362.84,-379 368.84,-379 368.84,-379 402.84,-379 402.84,-379 408.84,-379 414.84,-385 414.84,-391 414.84,-391 414.84,-403 414.84,-403 414.84,-409 408.84,-415 402.84,-415"/>
<text text-anchor="middle" x="385.84" y="-393.3" font-family="Helvetica,sans-Serif" font-size="14.00">Minus</text>
</g>
<!-- SampleWorkspace2&#45;&gt;Minus1 -->
<g id="edge32" class="edge">
<title>SampleWorkspace2&#45;&gt;Minus1</title>
<path fill="none" stroke="black" d="M331.2,-524.92C341.92,-500.02 361.93,-453.54 374.53,-424.27"/>
<polygon fill="black" stroke="black" points="377.75,-425.63 378.49,-415.06 371.32,-422.86 377.75,-425.63"/>
</g>
<!-- Minus2 -->
<g id="node35" class="node">
<title>Minus2</title>
<path fill="lightskyblue" stroke="black" d="M283.84,-488C283.84,-488 249.84,-488 249.84,-488 243.84,-488 237.84,-482 237.84,-476 237.84,-476 237.84,-464 237.84,-464 237.84,-458 243.84,-452 249.84,-452 249.84,-452 283.84,-452 283.84,-452 289.84,-452 295.84,-458 295.84,-464 295.84,-464 295.84,-476 295.84,-476 295.84,-482 289.84,-488 283.84,-488"/>
<text text-anchor="middle" x="266.84" y="-466.3" font-family="Helvetica,sans-Serif" font-size="14.00">Minus</text>
</g>
<!-- SampleWorkspace2&#45;&gt;Minus2 -->
<g id="edge34" class="edge">
<title>SampleWorkspace2&#45;&gt;Minus2</title>
<path fill="none" stroke="black" d="M310.33,-525.17C303.41,-516.55 294.83,-505.86 287.13,-496.27"/>
<polygon fill="black" stroke="black" points="289.64,-493.81 280.65,-488.2 284.18,-498.19 289.64,-493.81"/>
</g>
<!-- SampleWorkspace_Wave -->
<g id="node3" class="node">
<title>SampleWorkspace_Wave</title>
<ellipse fill="khaki" stroke="black" cx="1275.84" cy="-1524" rx="123.48" ry="18"/>
<text text-anchor="middle" x="1275.84" y="-1520.3" font-family="Helvetica,sans-Serif" font-size="14.00">SampleWorkspace_Wave</text>
</g>
<!-- SetSampleMaterial1 -->
<g id="node26" class="node">
<title>SetSampleMaterial1</title>
<path fill="lightskyblue" stroke="black" d="M951.84,-1469C951.84,-1469 829.84,-1469 829.84,-1469 823.84,-1469 817.84,-1463 817.84,-1457 817.84,-1457 817.84,-1445 817.84,-1445 817.84,-1439 823.84,-1433 829.84,-1433 829.84,-1433 951.84,-1433 951.84,-1433 957.84,-1433 963.84,-1439 963.84,-1445 963.84,-1445 963.84,-1457 963.84,-1457 963.84,-1463 957.84,-1469 951.84,-1469"/>
<text text-anchor="middle" x="890.84" y="-1447.3" font-family="Helvetica,sans-Serif" font-size="14.00">SetSampleMaterial</text>
</g>
<!-- SampleWorkspace_Wave&#45;&gt;SetSampleMaterial1 -->
<g id="edge6" class="edge">
<title>SampleWorkspace_Wave&#45;&gt;SetSampleMaterial1</title>
<path fill="none" stroke="black" d="M1202.52,-1509.48C1137.36,-1497.46 1042.16,-1479.91 974.14,-1467.36"/>
<polygon fill="black" stroke="black" points="974.36,-1463.84 963.89,-1465.47 973.09,-1470.73 974.36,-1463.84"/>
</g>
<!-- SampleWorkspace_Wave2 -->
<g id="node4" class="node">
<title>SampleWorkspace_Wave2</title>
<ellipse fill="khaki" stroke="black" cx="385.84" cy="-324" rx="123.48" ry="18"/>
<text text-anchor="middle" x="385.84" y="-320.3" font-family="Helvetica,sans-Serif" font-size="14.00">SampleWorkspace_Wave</text>
</g>
<!-- ConvertUnits3 -->
<g id="node25" class="node">
<title>ConvertUnits3</title>
<path fill="lightskyblue" stroke="black" d="M427.34,-255C427.34,-255 344.34,-255 344.34,-255 338.34,-255 332.34,-249 332.34,-243 332.34,-243 332.34,-231 332.34,-231 332.34,-225 338.34,-219 344.34,-219 344.34,-219 427.34,-219 427.34,-219 433.34,-219 439.34,-225 439.34,-231 439.34,-231 439.34,-243 439.34,-243 439.34,-249 433.34,-255 427.34,-255"/>
<text text-anchor="middle" x="385.84" y="-233.3" font-family="Helvetica,sans-Serif" font-size="14.00">ConvertUnits</text>
</g>
<!-- SampleWorkspace_Wave2&#45;&gt;ConvertUnits3 -->
<g id="edge41" class="edge">
<title>SampleWorkspace_Wave2&#45;&gt;ConvertUnits3</title>
<path fill="none" stroke="black" d="M385.84,-305.8C385.84,-294.16 385.84,-278.55 385.84,-265.24"/>
<polygon fill="black" stroke="black" points="389.34,-265.18 385.84,-255.18 382.34,-265.18 389.34,-265.18"/>
<text text-anchor="middle" x="465.84" y="-276.8" font-family="Helvetica,sans-Serif" font-size="14.00">Convert back to DeltaE</text>
</g>
<!-- SampleChemicalFormula -->
<g id="node5" class="node">
<title>SampleChemicalFormula</title>
<ellipse fill="khaki" stroke="black" cx="763.84" cy="-1524" rx="122.38" ry="18"/>
<text text-anchor="middle" x="763.84" y="-1520.3" font-family="Helvetica,sans-Serif" font-size="14.00">SampleChemicalFormula</text>
</g>
<!-- SampleChemicalFormula&#45;&gt;SetSampleMaterial1 -->
<g id="edge7" class="edge">
<title>SampleChemicalFormula&#45;&gt;SetSampleMaterial1</title>
<path fill="none" stroke="black" d="M793.62,-1506.35C810.88,-1496.7 832.83,-1484.43 851.5,-1473.99"/>
<polygon fill="black" stroke="black" points="853.35,-1476.97 860.37,-1469.04 849.93,-1470.86 853.35,-1476.97"/>
</g>
<!-- SampleNumberDensity -->
<g id="node6" class="node">
<title>SampleNumberDensity</title>
<ellipse fill="khaki" stroke="black" cx="1018.84" cy="-1524" rx="115.08" ry="18"/>
<text text-anchor="middle" x="1018.84" y="-1520.3" font-family="Helvetica,sans-Serif" font-size="14.00">SampleNumberDensity</text>
</g>
<!-- SampleNumberDensity&#45;&gt;SetSampleMaterial1 -->
<g id="edge8" class="edge">
<title>SampleNumberDensity&#45;&gt;SetSampleMaterial1</title>
<path fill="none" stroke="black" d="M989.15,-1506.53C971.76,-1496.89 949.57,-1484.58 930.68,-1474.1"/>
<polygon fill="black" stroke="black" points="932.15,-1470.91 921.7,-1469.12 928.75,-1477.03 932.15,-1470.91"/>
</g>
<!-- SampleRadius -->
<g id="node7" class="node">
<title>SampleRadius</title>
<ellipse fill="khaki" stroke="black" cx="359.84" cy="-1451" rx="75.29" ry="18"/>
<text text-anchor="middle" x="359.84" y="-1447.3" font-family="Helvetica,sans-Serif" font-size="14.00">SampleRadius</text>
</g>
<!-- CylinderAbsorption1 -->
<g id="node28" class="node">
<title>CylinderAbsorption1</title>
<path fill="lightskyblue" stroke="black" d="M629.84,-1396C629.84,-1396 503.84,-1396 503.84,-1396 497.84,-1396 491.84,-1390 491.84,-1384 491.84,-1384 491.84,-1372 491.84,-1372 491.84,-1366 497.84,-1360 503.84,-1360 503.84,-1360 629.84,-1360 629.84,-1360 635.84,-1360 641.84,-1366 641.84,-1372 641.84,-1372 641.84,-1384 641.84,-1384 641.84,-1390 635.84,-1396 629.84,-1396"/>
<text text-anchor="middle" x="566.84" y="-1374.3" font-family="Helvetica,sans-Serif" font-size="14.00">CylinderAbsorption</text>
</g>
<!-- SampleRadius&#45;&gt;CylinderAbsorption1 -->
<g id="edge10" class="edge">
<title>SampleRadius&#45;&gt;CylinderAbsorption1</title>
<path fill="none" stroke="black" d="M401.23,-1435.8C431.62,-1425.38 473.35,-1411.07 507.31,-1399.42"/>
<polygon fill="black" stroke="black" points="508.8,-1402.61 517.13,-1396.05 506.53,-1395.99 508.8,-1402.61"/>
</g>
<!-- SampleThickness -->
<g id="node8" class="node">
<title>SampleThickness</title>
<ellipse fill="khaki" stroke="black" cx="858.84" cy="-1830" rx="89.08" ry="18"/>
<text text-anchor="middle" x="858.84" y="-1826.3" font-family="Helvetica,sans-Serif" font-size="14.00">SampleThickness</text>
</g>
<!-- AbsWorkspace1 -->
<g id="node9" class="node">
<title>AbsWorkspace1</title>
<ellipse fill="khaki" stroke="black" cx="566.84" cy="-1305" rx="109.68" ry="18"/>
<text text-anchor="middle" x="566.84" y="-1301.3" font-family="Helvetica,sans-Serif" font-size="14.00">AbsorptionWorkspace</text>
</g>
<!-- canGiven -->
<g id="node38" class="node">
<title>canGiven</title>
<polygon fill="limegreen" stroke="black" points="566.84,-1250 445.68,-1232 566.84,-1214 688,-1232 566.84,-1250"/>
<text text-anchor="middle" x="566.84" y="-1228.3" font-family="Helvetica,sans-Serif" font-size="14.00">Can Workspace?</text>
</g>
<!-- AbsWorkspace1&#45;&gt;canGiven -->
<g id="edge14" class="edge">
<title>AbsWorkspace1&#45;&gt;canGiven</title>
<path fill="none" stroke="black" d="M566.84,-1286.81C566.84,-1278.79 566.84,-1269.05 566.84,-1260.07"/>
<polygon fill="black" stroke="black" points="570.34,-1260.03 566.84,-1250.03 563.34,-1260.03 570.34,-1260.03"/>
</g>
<!-- AbsWorkspace2 -->
<g id="node10" class="node">
<title>AbsWorkspace2</title>
<ellipse fill="khaki" stroke="black" cx="109.84" cy="-470" rx="109.68" ry="18"/>
<text text-anchor="middle" x="109.84" y="-466.3" font-family="Helvetica,sans-Serif" font-size="14.00">AbsorptionWorkspace</text>
</g>
<!-- Divide2 -->
<g id="node32" class="node">
<title>Divide2</title>
<path fill="lightskyblue" stroke="black" d="M284.84,-415C284.84,-415 248.84,-415 248.84,-415 242.84,-415 236.84,-409 236.84,-403 236.84,-403 236.84,-391 236.84,-391 236.84,-385 242.84,-379 248.84,-379 248.84,-379 284.84,-379 284.84,-379 290.84,-379 296.84,-385 296.84,-391 296.84,-391 296.84,-403 296.84,-403 296.84,-409 290.84,-415 284.84,-415"/>
<text text-anchor="middle" x="266.84" y="-393.3" font-family="Helvetica,sans-Serif" font-size="14.00">Divide</text>
</g>
<!-- AbsWorkspace2&#45;&gt;Divide2 -->
<g id="edge36" class="edge">
<title>AbsWorkspace2&#45;&gt;Divide2</title>
<path fill="none" stroke="black" d="M145.47,-452.89C169.85,-441.86 202.21,-427.23 227.38,-415.85"/>
<polygon fill="black" stroke="black" points="228.97,-418.97 236.64,-411.66 226.08,-412.59 228.97,-418.97"/>
</g>
<!-- CanWorkspace -->
<g id="node11" class="node">
<title>CanWorkspace</title>
<ellipse fill="khaki" stroke="black" cx="448.84" cy="-1145" rx="77.99" ry="18"/>
<text text-anchor="middle" x="448.84" y="-1141.3" font-family="Helvetica,sans-Serif" font-size="14.00">CanWorkspace</text>
</g>
<!-- ConvertUnits2 -->
<g id="node24" class="node">
<title>ConvertUnits2</title>
<path fill="lightskyblue" stroke="black" d="M490.34,-1055C490.34,-1055 407.34,-1055 407.34,-1055 401.34,-1055 395.34,-1049 395.34,-1043 395.34,-1043 395.34,-1031 395.34,-1031 395.34,-1025 401.34,-1019 407.34,-1019 407.34,-1019 490.34,-1019 490.34,-1019 496.34,-1019 502.34,-1025 502.34,-1031 502.34,-1031 502.34,-1043 502.34,-1043 502.34,-1049 496.34,-1055 490.34,-1055"/>
<text text-anchor="middle" x="448.84" y="-1033.3" font-family="Helvetica,sans-Serif" font-size="14.00">ConvertUnits</text>
</g>
<!-- CanWorkspace&#45;&gt;ConvertUnits2 -->
<g id="edge16" class="edge">
<title>CanWorkspace&#45;&gt;ConvertUnits2</title>
<path fill="none" stroke="black" d="M448.84,-1126.97C448.84,-1110.38 448.84,-1084.88 448.84,-1065.43"/>
<polygon fill="black" stroke="black" points="452.34,-1065.34 448.84,-1055.34 445.34,-1065.34 452.34,-1065.34"/>
</g>
<!-- CanWorkspace_Wave -->
<g id="node12" class="node">
<title>CanWorkspace_Wave</title>
<ellipse fill="khaki" stroke="black" cx="398.84" cy="-950" rx="107.48" ry="18"/>
<text text-anchor="middle" x="398.84" y="-946.3" font-family="Helvetica,sans-Serif" font-size="14.00">CanWorkspace_Wave</text>
</g>
<!-- canScale -->
<g id="node39" class="node">
<title>canScale</title>
<polygon fill="limegreen" stroke="black" points="143.84,-895 59.22,-877 143.84,-859 228.47,-877 143.84,-895"/>
<text text-anchor="middle" x="143.84" y="-873.3" font-family="Helvetica,sans-Serif" font-size="14.00">Can Scale?</text>
</g>
<!-- CanWorkspace_Wave&#45;&gt;canScale -->
<g id="edge19" class="edge">
<title>CanWorkspace_Wave&#45;&gt;canScale</title>
<path fill="none" stroke="black" d="M346,-934.29C299.45,-921.33 232.38,-902.65 188.47,-890.43"/>
<polygon fill="black" stroke="black" points="189.22,-887 178.65,-887.69 187.34,-893.75 189.22,-887"/>
</g>
<!-- CanScale -->
<g id="node13" class="node">
<title>CanScale</title>
<ellipse fill="khaki" stroke="black" cx="298.84" cy="-877" rx="51.99" ry="18"/>
<text text-anchor="middle" x="298.84" y="-873.3" font-family="Helvetica,sans-Serif" font-size="14.00">CanScale</text>
</g>
<!-- Scale -->
<g id="node30" class="node">
<title>Scale</title>
<path fill="lightskyblue" stroke="black" d="M294.84,-808C294.84,-808 264.84,-808 264.84,-808 258.84,-808 252.84,-802 252.84,-796 252.84,-796 252.84,-784 252.84,-784 252.84,-778 258.84,-772 264.84,-772 264.84,-772 294.84,-772 294.84,-772 300.84,-772 306.84,-778 306.84,-784 306.84,-784 306.84,-796 306.84,-796 306.84,-802 300.84,-808 294.84,-808"/>
<text text-anchor="middle" x="279.84" y="-786.3" font-family="Helvetica,sans-Serif" font-size="14.00">Scale</text>
</g>
<!-- CanScale&#45;&gt;Scale -->
<g id="edge21" class="edge">
<title>CanScale&#45;&gt;Scale</title>
<path fill="none" stroke="black" d="M295,-858.8C292.39,-847.16 288.9,-831.55 285.93,-818.24"/>
<polygon fill="black" stroke="black" points="289.28,-817.17 283.68,-808.18 282.45,-818.7 289.28,-817.17"/>
</g>
<!-- CanChemicalFormula -->
<g id="node14" class="node">
<title>CanChemicalFormula</title>
<ellipse fill="khaki" stroke="black" cx="626.84" cy="-717" rx="106.68" ry="18"/>
<text text-anchor="middle" x="626.84" y="-713.3" font-family="Helvetica,sans-Serif" font-size="14.00">CanChemicalFormula</text>
</g>
<!-- SetSampleMaterial2 -->
<g id="node27" class="node">
<title>SetSampleMaterial2</title>
<path fill="lightskyblue" stroke="black" d="M623.84,-648C623.84,-648 501.84,-648 501.84,-648 495.84,-648 489.84,-642 489.84,-636 489.84,-636 489.84,-624 489.84,-624 489.84,-618 495.84,-612 501.84,-612 501.84,-612 623.84,-612 623.84,-612 629.84,-612 635.84,-618 635.84,-624 635.84,-624 635.84,-636 635.84,-636 635.84,-642 629.84,-648 623.84,-648"/>
<text text-anchor="middle" x="562.84" y="-626.3" font-family="Helvetica,sans-Serif" font-size="14.00">SetSampleMaterial</text>
</g>
<!-- CanChemicalFormula&#45;&gt;SetSampleMaterial2 -->
<g id="edge25" class="edge">
<title>CanChemicalFormula&#45;&gt;SetSampleMaterial2</title>
<path fill="none" stroke="black" d="M613.89,-698.8C604.69,-686.59 592.2,-669.99 581.87,-656.28"/>
<polygon fill="black" stroke="black" points="584.58,-654.06 575.77,-648.18 578.99,-658.27 584.58,-654.06"/>
</g>
<!-- CanNumberDensity -->
<g id="node15" class="node">
<title>CanNumberDensity</title>
<ellipse fill="khaki" stroke="black" cx="403.84" cy="-717" rx="98.58" ry="18"/>
<text text-anchor="middle" x="403.84" y="-713.3" font-family="Helvetica,sans-Serif" font-size="14.00">CanNumberDensity</text>
</g>
<!-- CanNumberDensity&#45;&gt;SetSampleMaterial2 -->
<g id="edge26" class="edge">
<title>CanNumberDensity&#45;&gt;SetSampleMaterial2</title>
<path fill="none" stroke="black" d="M434.12,-699.81C459.05,-686.48 494.64,-667.46 522.07,-652.79"/>
<polygon fill="black" stroke="black" points="523.87,-655.8 531.04,-648 520.57,-649.63 523.87,-655.8"/>
</g>
<!-- CanRadius -->
<g id="node16" class="node">
<title>CanRadius</title>
<ellipse fill="khaki" stroke="black" cx="412.84" cy="-630" rx="59.29" ry="18"/>
<text text-anchor="middle" x="412.84" y="-626.3" font-family="Helvetica,sans-Serif" font-size="14.00">CanRadius</text>
</g>
<!-- CylinderAbsorption2 -->
<g id="node29" class="node">
<title>CylinderAbsorption2</title>
<path fill="lightskyblue" stroke="black" d="M573.84,-561C573.84,-561 447.84,-561 447.84,-561 441.84,-561 435.84,-555 435.84,-549 435.84,-549 435.84,-537 435.84,-537 435.84,-531 441.84,-525 447.84,-525 447.84,-525 573.84,-525 573.84,-525 579.84,-525 585.84,-531 585.84,-537 585.84,-537 585.84,-549 585.84,-549 585.84,-555 579.84,-561 573.84,-561"/>
<text text-anchor="middle" x="510.84" y="-539.3" font-family="Helvetica,sans-Serif" font-size="14.00">CylinderAbsorption</text>
</g>
<!-- CanRadius&#45;&gt;CylinderAbsorption2 -->
<g id="edge28" class="edge">
<title>CanRadius&#45;&gt;CylinderAbsorption2</title>
<path fill="none" stroke="black" d="M431.74,-612.61C446.36,-599.92 466.83,-582.17 483.28,-567.9"/>
<polygon fill="black" stroke="black" points="485.73,-570.41 490.99,-561.21 481.15,-565.12 485.73,-570.41"/>
</g>
<!-- ElementSize1 -->
<g id="node17" class="node">
<title>ElementSize1</title>
<ellipse fill="khaki" stroke="black" cx="519.84" cy="-1451" rx="66.09" ry="18"/>
<text text-anchor="middle" x="519.84" y="-1447.3" font-family="Helvetica,sans-Serif" font-size="14.00">ElementSize</text>
</g>
<!-- ElementSize1&#45;&gt;CylinderAbsorption1 -->
<g id="edge11" class="edge">
<title>ElementSize1&#45;&gt;CylinderAbsorption1</title>
<path fill="none" stroke="black" d="M530.98,-1433.17C536.63,-1424.63 543.62,-1414.08 549.92,-1404.56"/>
<polygon fill="black" stroke="black" points="552.85,-1406.47 555.46,-1396.2 547.02,-1402.61 552.85,-1406.47"/>
</g>
<!-- SampleLogs -->
<g id="node18" class="node">
<title>SampleLogs</title>
<ellipse fill="khaki" stroke="black" cx="248.84" cy="-237" rx="65.79" ry="18"/>
<text text-anchor="middle" x="248.84" y="-233.3" font-family="Helvetica,sans-Serif" font-size="14.00">SampleLogs</text>
</g>
<!-- AddSampleLogMultiple -->
<g id="node36" class="node">
<title>AddSampleLogMultiple</title>
<path fill="lightskyblue" stroke="black" d="M336.84,-182C336.84,-182 184.84,-182 184.84,-182 178.84,-182 172.84,-176 172.84,-170 172.84,-170 172.84,-158 172.84,-158 172.84,-152 178.84,-146 184.84,-146 184.84,-146 336.84,-146 336.84,-146 342.84,-146 348.84,-152 348.84,-158 348.84,-158 348.84,-170 348.84,-170 348.84,-176 342.84,-182 336.84,-182"/>
<text text-anchor="middle" x="260.84" y="-160.3" font-family="Helvetica,sans-Serif" font-size="14.00">AddSampleLogMultiple</text>
</g>
<!-- SampleLogs&#45;&gt;AddSampleLogMultiple -->
<g id="edge43" class="edge">
<title>SampleLogs&#45;&gt;AddSampleLogMultiple</title>
<path fill="none" stroke="black" d="M251.75,-218.81C253.1,-210.79 254.75,-201.05 256.27,-192.07"/>
<polygon fill="black" stroke="black" points="259.75,-192.47 257.96,-182.03 252.84,-191.31 259.75,-192.47"/>
</g>
<!-- EFixed1 -->
<g id="node19" class="node">
<title>EFixed1</title>
<ellipse fill="khaki" stroke="black" cx="613.84" cy="-1684" rx="40.09" ry="18"/>
<text text-anchor="middle" x="613.84" y="-1680.3" font-family="Helvetica,sans-Serif" font-size="14.00">eFixed</text>
</g>
<!-- EFixed1&#45;&gt;ConvertUnits1 -->
<g id="edge3" class="edge">
<title>EFixed1&#45;&gt;ConvertUnits1</title>
<path fill="none" stroke="black" d="M631.63,-1667.59C642.37,-1658.29 656.29,-1646.25 668.41,-1635.75"/>
<polygon fill="black" stroke="black" points="670.8,-1638.31 676.07,-1629.12 666.22,-1633.02 670.8,-1638.31"/>
</g>
<!-- EFixed1&#45;&gt;CylinderAbsorption1 -->
<g id="edge12" class="edge">
<title>EFixed1&#45;&gt;CylinderAbsorption1</title>
<path fill="none" stroke="black" d="M613.84,-1665.78C613.84,-1651.41 613.84,-1630.37 613.84,-1612 613.84,-1612 613.84,-1612 613.84,-1450 613.84,-1432.78 604.11,-1416.53 593.5,-1403.94"/>
<polygon fill="black" stroke="black" points="595.81,-1401.27 586.5,-1396.21 590.62,-1405.97 595.81,-1401.27"/>
</g>
<!-- EFixed2 -->
<g id="node20" class="node">
<title>EFixed2</title>
<ellipse fill="khaki" stroke="black" cx="584.84" cy="-1145" rx="40.09" ry="18"/>
<text text-anchor="middle" x="584.84" y="-1141.3" font-family="Helvetica,sans-Serif" font-size="14.00">eFixed</text>
</g>
<!-- EFixed2&#45;&gt;ConvertUnits2 -->
<g id="edge17" class="edge">
<title>EFixed2&#45;&gt;ConvertUnits2</title>
<path fill="none" stroke="black" d="M565.64,-1129.04C543.18,-1111.53 505.7,-1082.32 479.26,-1061.71"/>
<polygon fill="black" stroke="black" points="481.14,-1058.74 471.1,-1055.35 476.84,-1064.26 481.14,-1058.74"/>
</g>
<!-- OutputWorkspace -->
<g id="node21" class="node">
<title>OutputWorkspace</title>
<ellipse fill="khaki" stroke="black" cx="260.84" cy="-18" rx="92.08" ry="18"/>
<text text-anchor="middle" x="260.84" y="-14.3" font-family="Helvetica,sans-Serif" font-size="14.00">OutputWorkspace</text>
</g>
<!-- GetEFixed&#45;&gt;EFixed1 -->
<g id="edge2" class="edge">
<title>GetEFixed&#45;&gt;EFixed1</title>
<path fill="none" stroke="black" d="M619.9,-1738.81C619,-1730.79 617.9,-1721.05 616.89,-1712.07"/>
<polygon fill="black" stroke="black" points="620.36,-1711.57 615.76,-1702.03 613.4,-1712.36 620.36,-1711.57"/>
</g>
<!-- ConvertUnits1&#45;&gt;SampleWorkspace_Wave -->
<g id="edge5" class="edge">
<title>ConvertUnits1&#45;&gt;SampleWorkspace_Wave</title>
<path fill="none" stroke="black" d="M749.37,-1602.16C847.9,-1587.71 1059.15,-1556.76 1182,-1538.75"/>
<polygon fill="black" stroke="black" points="1182.76,-1542.18 1192.14,-1537.27 1181.74,-1535.25 1182.76,-1542.18"/>
<text text-anchor="middle" x="1165.84" y="-1563.8" font-family="Helvetica,sans-Serif" font-size="14.00">Convert input workspace into Wavelength</text>
</g>
<!-- ConvertUnits2&#45;&gt;CanWorkspace_Wave -->
<g id="edge18" class="edge">
<title>ConvertUnits2&#45;&gt;CanWorkspace_Wave</title>
<path fill="none" stroke="black" d="M438.72,-1018.8C431.67,-1006.82 422.14,-990.62 414.17,-977.06"/>
<polygon fill="black" stroke="black" points="417.03,-975.02 408.94,-968.18 411,-978.57 417.03,-975.02"/>
<text text-anchor="middle" x="567.34" y="-989.8" font-family="Helvetica,sans-Serif" font-size="14.00">Convert can workspace into Wavelength</text>
</g>
<!-- ConvertUnits3&#45;&gt;AddSampleLogMultiple -->
<g id="edge42" class="edge">
<title>ConvertUnits3&#45;&gt;AddSampleLogMultiple</title>
<path fill="none" stroke="black" d="M355.9,-218.99C339.17,-209.49 318.12,-197.54 300.09,-187.29"/>
<polygon fill="black" stroke="black" points="301.39,-184.01 290.97,-182.11 297.94,-190.1 301.39,-184.01"/>
</g>
<!-- SetSampleMaterial1&#45;&gt;CylinderAbsorption1 -->
<g id="edge9" class="edge">
<title>SetSampleMaterial1&#45;&gt;CylinderAbsorption1</title>
<path fill="none" stroke="black" d="M817.72,-1433.98C768.45,-1423.18 703.3,-1408.9 651.73,-1397.6"/>
<polygon fill="black" stroke="black" points="652.46,-1394.18 641.94,-1395.46 650.96,-1401.02 652.46,-1394.18"/>
</g>
<!-- SetSampleMaterial2&#45;&gt;CylinderAbsorption2 -->
<g id="edge27" class="edge">
<title>SetSampleMaterial2&#45;&gt;CylinderAbsorption2</title>
<path fill="none" stroke="black" d="M552.32,-611.8C544.99,-599.82 535.08,-583.62 526.78,-570.06"/>
<polygon fill="black" stroke="black" points="529.55,-567.88 521.35,-561.18 523.58,-571.53 529.55,-567.88"/>
</g>
<!-- Divide1 -->
<g id="node31" class="node">
<title>Divide1</title>
<path fill="lightskyblue" stroke="black" d="M528.84,-488C528.84,-488 492.84,-488 492.84,-488 486.84,-488 480.84,-482 480.84,-476 480.84,-476 480.84,-464 480.84,-464 480.84,-458 486.84,-452 492.84,-452 492.84,-452 528.84,-452 528.84,-452 534.84,-452 540.84,-458 540.84,-464 540.84,-464 540.84,-476 540.84,-476 540.84,-482 534.84,-488 528.84,-488"/>
<text text-anchor="middle" x="510.84" y="-466.3" font-family="Helvetica,sans-Serif" font-size="14.00">Divide</text>
</g>
<!-- SetSampleMaterial2&#45;&gt;Divide1 -->
<g id="edge30" class="edge">
<title>SetSampleMaterial2&#45;&gt;Divide1</title>
<path fill="none" stroke="black" d="M575.94,-611.97C590.61,-590.66 610.41,-553.52 594.84,-525 585.24,-507.41 567.18,-494.7 550.26,-486.04"/>
<polygon fill="black" stroke="black" points="551.57,-482.79 541.04,-481.64 548.56,-489.11 551.57,-482.79"/>
</g>
<!-- CylinderAbsorption1&#45;&gt;AbsWorkspace1 -->
<g id="edge13" class="edge">
<title>CylinderAbsorption1&#45;&gt;AbsWorkspace1</title>
<path fill="none" stroke="black" d="M566.84,-1359.81C566.84,-1351.79 566.84,-1342.05 566.84,-1333.07"/>
<polygon fill="black" stroke="black" points="570.34,-1333.03 566.84,-1323.03 563.34,-1333.03 570.34,-1333.03"/>
</g>
<!-- CylinderAbsorption2&#45;&gt;Divide1 -->
<g id="edge29" class="edge">
<title>CylinderAbsorption2&#45;&gt;Divide1</title>
<path fill="none" stroke="black" d="M510.84,-524.81C510.84,-516.79 510.84,-507.05 510.84,-498.07"/>
<polygon fill="black" stroke="black" points="514.34,-498.03 510.84,-488.03 507.34,-498.03 514.34,-498.03"/>
</g>
<!-- useCorrections -->
<g id="node40" class="node">
<title>useCorrections</title>
<polygon fill="limegreen" stroke="black" points="163.84,-735 40.51,-717 163.84,-699 287.17,-717 163.84,-735"/>
<text text-anchor="middle" x="163.84" y="-713.3" font-family="Helvetica,sans-Serif" font-size="14.00">Can Corrections?</text>
</g>
<!-- Scale&#45;&gt;useCorrections -->
<g id="edge22" class="edge">
<title>Scale&#45;&gt;useCorrections</title>
<path fill="none" stroke="black" d="M252.64,-772.35C235.54,-761.88 213.39,-748.33 195.5,-737.38"/>
<polygon fill="black" stroke="black" points="196.93,-734.15 186.57,-731.91 193.28,-740.12 196.93,-734.15"/>
</g>
<!-- Divide1&#45;&gt;Minus1 -->
<g id="edge31" class="edge">
<title>Divide1&#45;&gt;Minus1</title>
<path fill="none" stroke="black" d="M480.9,-451.99C463.85,-442.31 442.31,-430.07 424.04,-419.7"/>
<polygon fill="black" stroke="black" points="425.53,-416.52 415.11,-414.62 422.07,-422.6 425.53,-416.52"/>
</g>
<!-- Divide2&#45;&gt;SampleWorkspace_Wave2 -->
<g id="edge39" class="edge">
<title>Divide2&#45;&gt;SampleWorkspace_Wave2</title>
<path fill="none" stroke="black" d="M295.34,-378.99C311.5,-369.35 331.9,-357.18 349.23,-346.84"/>
<polygon fill="black" stroke="black" points="351.19,-349.75 357.98,-341.62 347.6,-343.74 351.19,-349.75"/>
</g>
<!-- Divide3 -->
<g id="node33" class="node">
<title>Divide3</title>
<path fill="lightskyblue" stroke="black" d="M717.84,-1109C717.84,-1109 681.84,-1109 681.84,-1109 675.84,-1109 669.84,-1103 669.84,-1097 669.84,-1097 669.84,-1085 669.84,-1085 669.84,-1079 675.84,-1073 681.84,-1073 681.84,-1073 717.84,-1073 717.84,-1073 723.84,-1073 729.84,-1079 729.84,-1085 729.84,-1085 729.84,-1097 729.84,-1097 729.84,-1103 723.84,-1109 717.84,-1109"/>
<text text-anchor="middle" x="699.84" y="-1087.3" font-family="Helvetica,sans-Serif" font-size="14.00">Divide</text>
</g>
<!-- Divide3&#45;&gt;SampleWorkspace_Wave2 -->
<g id="edge40" class="edge">
<title>Divide3&#45;&gt;SampleWorkspace_Wave2</title>
<path fill="none" stroke="black" d="M719.8,-1072.79C737.92,-1055.16 761.84,-1025.93 761.84,-994.5 761.84,-994.5 761.84,-994.5 761.84,-396 761.84,-345.15 627.37,-329.73 519.26,-325.54"/>
<polygon fill="black" stroke="black" points="519.34,-322.04 509.22,-325.18 519.09,-329.04 519.34,-322.04"/>
</g>
<!-- Minus1&#45;&gt;SampleWorkspace_Wave2 -->
<g id="edge38" class="edge">
<title>Minus1&#45;&gt;SampleWorkspace_Wave2</title>
<path fill="none" stroke="black" d="M385.84,-378.81C385.84,-370.79 385.84,-361.05 385.84,-352.07"/>
<polygon fill="black" stroke="black" points="389.34,-352.03 385.84,-342.03 382.34,-352.03 389.34,-352.03"/>
</g>
<!-- Minus2&#45;&gt;Divide2 -->
<g id="edge35" class="edge">
<title>Minus2&#45;&gt;Divide2</title>
<path fill="none" stroke="black" d="M266.84,-451.81C266.84,-443.79 266.84,-434.05 266.84,-425.07"/>
<polygon fill="black" stroke="black" points="270.34,-425.03 266.84,-415.03 263.34,-425.03 270.34,-425.03"/>
</g>
<!-- GroupWorkspaces -->
<g id="node37" class="node">
<title>GroupWorkspaces</title>
<path fill="lightskyblue" stroke="black" d="M320.34,-109C320.34,-109 201.34,-109 201.34,-109 195.34,-109 189.34,-103 189.34,-97 189.34,-97 189.34,-85 189.34,-85 189.34,-79 195.34,-73 201.34,-73 201.34,-73 320.34,-73 320.34,-73 326.34,-73 332.34,-79 332.34,-85 332.34,-85 332.34,-97 332.34,-97 332.34,-103 326.34,-109 320.34,-109"/>
<text text-anchor="middle" x="260.84" y="-87.3" font-family="Helvetica,sans-Serif" font-size="14.00">GroupWorkspaces</text>
</g>
<!-- AddSampleLogMultiple&#45;&gt;GroupWorkspaces -->
<g id="edge44" class="edge">
<title>AddSampleLogMultiple&#45;&gt;GroupWorkspaces</title>
<path fill="none" stroke="black" d="M260.84,-145.81C260.84,-137.79 260.84,-128.05 260.84,-119.07"/>
<polygon fill="black" stroke="black" points="264.34,-119.03 260.84,-109.03 257.34,-119.03 264.34,-119.03"/>
</g>
<!-- GroupWorkspaces&#45;&gt;OutputWorkspace -->
<g id="edge45" class="edge">
<title>GroupWorkspaces&#45;&gt;OutputWorkspace</title>
<path fill="none" stroke="black" d="M260.84,-72.81C260.84,-64.79 260.84,-55.05 260.84,-46.07"/>
<polygon fill="black" stroke="black" points="264.34,-46.03 260.84,-36.03 257.34,-46.03 264.34,-46.03"/>
</g>
<!-- canGiven&#45;&gt;CanWorkspace -->
<g id="edge15" class="edge">
<title>canGiven&#45;&gt;CanWorkspace</title>
<path fill="none" stroke="black" d="M547.09,-1216.77C528.75,-1203.56 501.16,-1183.69 479.88,-1168.36"/>
<polygon fill="black" stroke="black" points="481.64,-1165.31 471.48,-1162.31 477.55,-1170.99 481.64,-1165.31"/>
<text text-anchor="middle" x="527.34" y="-1184.8" font-family="Helvetica,sans-Serif" font-size="14.00">Yes</text>
</g>
<!-- canGiven&#45;&gt;Divide3 -->
<g id="edge37" class="edge">
<title>canGiven&#45;&gt;Divide3</title>
<path fill="none" stroke="black" d="M581.87,-1216C595.53,-1202.3 616.19,-1181.44 633.84,-1163 648.43,-1147.75 664.56,-1130.41 677.23,-1116.68"/>
<polygon fill="black" stroke="black" points="680.04,-1118.79 684.24,-1109.06 674.89,-1114.04 680.04,-1118.79"/>
<text text-anchor="middle" x="625.34" y="-1184.8" font-family="Helvetica,sans-Serif" font-size="14.00">No</text>
</g>
<!-- canScale&#45;&gt;Scale -->
<g id="edge20" class="edge">
<title>canScale&#45;&gt;Scale</title>
<path fill="none" stroke="black" d="M153.19,-860.95C160.76,-849.88 172.36,-835.21 185.84,-826 206.38,-811.96 215.56,-816.77 238.84,-808 240.24,-807.47 241.66,-806.93 243.09,-806.37"/>
<polygon fill="black" stroke="black" points="244.6,-809.54 252.59,-802.59 242.01,-803.04 244.6,-809.54"/>
<text text-anchor="middle" x="235.34" y="-829.8" font-family="Helvetica,sans-Serif" font-size="14.00">Not equal to 1</text>
</g>
<!-- canScale&#45;&gt;useCorrections -->
<g id="edge23" class="edge">
<title>canScale&#45;&gt;useCorrections</title>
<path fill="none" stroke="black" d="M146.9,-859.3C147.91,-853.51 148.99,-846.98 149.84,-841 154.52,-808.19 158.64,-770.29 161.18,-745.32"/>
<polygon fill="black" stroke="black" points="164.68,-745.45 162.2,-735.15 157.72,-744.75 164.68,-745.45"/>
<text text-anchor="middle" x="194.34" y="-786.3" font-family="Helvetica,sans-Serif" font-size="14.00">Equal to 1</text>
</g>
<!-- useCorrections&#45;&gt;SetSampleMaterial2 -->
<g id="edge24" class="edge">
<title>useCorrections&#45;&gt;SetSampleMaterial2</title>
<path fill="none" stroke="black" d="M211.57,-705.83C277.73,-691.74 398.3,-666.05 479.49,-648.76"/>
<polygon fill="black" stroke="black" points="480.63,-652.09 489.68,-646.59 479.17,-645.25 480.63,-652.09"/>
<text text-anchor="middle" x="399.34" y="-669.8" font-family="Helvetica,sans-Serif" font-size="14.00">Yes</text>
</g>
<!-- useCorrections&#45;&gt;Minus2 -->
<g id="edge33" class="edge">
<title>useCorrections&#45;&gt;Minus2</title>
<path fill="none" stroke="black" d="M176.23,-700.74C180.47,-694.87 184.88,-687.91 187.84,-681 215.75,-615.86 189.57,-588.59 220.84,-525 226,-514.51 233.66,-504.37 241.25,-495.77"/>
<polygon fill="black" stroke="black" points="243.91,-498.05 248.14,-488.33 238.78,-493.29 243.91,-498.05"/>
<text text-anchor="middle" x="214.34" y="-582.8" font-family="Helvetica,sans-Serif" font-size="14.00">No</text>
</g>
</g>
</svg>
