<?xml version="1.0" encoding="UTF-8" standalone="no"?>
<!DOCTYPE svg PUBLIC "-//W3C//DTD SVG 1.1//EN"
 "http://www.w3.org/Graphics/SVG/1.1/DTD/svg11.dtd">
<!-- Generated by graphviz version 3.0.0 (20220315.2325)
 -->
<!-- Title: PowderILLEfficiency Pages: 1 -->
<svg width="836pt" height="1406pt"
 viewBox="0.00 0.00 835.71 1406.00" xmlns="http://www.w3.org/2000/svg" xmlns:xlink="http://www.w3.org/1999/xlink">
<g id="graph0" class="graph" transform="scale(1 1) rotate(0) translate(4 1402)">
<title>PowderILLEfficiency</title>
<polygon fill="white" stroke="transparent" points="-4,4 -4,-1402 831.71,-1402 831.71,4 -4,4"/>
<text text-anchor="middle" x="413.86" y="-1382.8" font-family="Helvetica,sans-Serif" font-size="14.00">SequentialSummedReference1D Flowchart</text>
<!-- reference -->
<g id="node1" class="node">
<title>reference</title>
<polygon fill="grey" stroke="black" points="162,-735 33.15,-735 0,-699 128.85,-699 162,-735"/>
<text text-anchor="middle" x="81" y="-713.3" font-family="Times,serif" font-size="14.00">reference</text>
</g>
<!-- OutputResponseWorkspace -->
<g id="node14" class="node">
<title>OutputResponseWorkspace</title>
<ellipse fill="khaki" stroke="black" cx="254" cy="-630" rx="135.68" ry="18"/>
<text text-anchor="middle" x="254" y="-626.3" font-family="Helvetica,sans-Serif" font-size="14.00">OutputResponseWorkspace</text>
</g>
<!-- reference&#45;&gt;OutputResponseWorkspace -->
<g id="edge37" class="edge">
<title>reference&#45;&gt;OutputResponseWorkspace</title>
<path fill="none" stroke="black" d="M116.01,-698.8C143.54,-685.27 182.01,-666.37 211.34,-651.96"/>
<polygon fill="black" stroke="black" points="213.08,-655 220.51,-647.45 209.99,-648.72 213.08,-655"/>
</g>
<!-- WeightedMean -->
<g id="node18" class="node">
<title>WeightedMean</title>
<path fill="lightskyblue" stroke="black" d="M129,-109C129,-109 33,-109 33,-109 27,-109 21,-103 21,-97 21,-97 21,-85 21,-85 21,-79 27,-73 33,-73 33,-73 129,-73 129,-73 135,-73 141,-79 141,-85 141,-85 141,-97 141,-97 141,-103 135,-109 129,-109"/>
<text text-anchor="middle" x="81" y="-87.3" font-family="Helvetica,sans-Serif" font-size="14.00">WeightedMean</text>
</g>
<!-- reference&#45;&gt;WeightedMean -->
<g id="edge32" class="edge">
<title>reference&#45;&gt;WeightedMean</title>
<path fill="none" stroke="black" d="M74.16,-698.74C72,-681.57 72,-654.46 72,-631 72,-631 72,-631 72,-163 72,-148.65 72,-132.67 72.85,-119.51"/>
<polygon fill="black" stroke="black" points="76.36,-119.49 73.77,-109.22 69.39,-118.86 76.36,-119.49"/>
</g>
<!-- Divide -->
<g id="node20" class="node">
<title>Divide</title>
<path fill="lightskyblue" stroke="black" d="M500,-561C500,-561 464,-561 464,-561 458,-561 452,-555 452,-549 452,-549 452,-537 452,-537 452,-531 458,-525 464,-525 464,-525 500,-525 500,-525 506,-525 512,-531 512,-537 512,-537 512,-549 512,-549 512,-555 506,-561 500,-561"/>
<text text-anchor="middle" x="482" y="-539.3" font-family="Helvetica,sans-Serif" font-size="14.00">Divide</text>
</g>
<!-- reference&#45;&gt;Divide -->
<g id="edge13" class="edge">
<title>reference&#45;&gt;Divide</title>
<path fill="none" stroke="black" d="M74.99,-698.99C68.18,-676.33 60.49,-636.28 81,-612 126.96,-557.59 349.48,-546.71 441.77,-544.54"/>
<polygon fill="black" stroke="black" points="441.92,-548.03 451.84,-544.32 441.77,-541.04 441.92,-548.03"/>
<text text-anchor="middle" x="95" y="-626.3" font-family="Helvetica,sans-Serif" font-size="14.00">LHS</text>
</g>
<!-- SplineInterpolation -->
<g id="node22" class="node">
<title>SplineInterpolation</title>
<path fill="lightskyblue" stroke="black" d="M544,-648C544,-648 420,-648 420,-648 414,-648 408,-642 408,-636 408,-636 408,-624 408,-624 408,-618 414,-612 420,-612 420,-612 544,-612 544,-612 550,-612 556,-618 556,-624 556,-624 556,-636 556,-636 556,-642 550,-648 544,-648"/>
<text text-anchor="middle" x="482" y="-626.3" font-family="Helvetica,sans-Serif" font-size="14.00">SplineInterpolation</text>
</g>
<!-- reference&#45;&gt;SplineInterpolation -->
<g id="edge18" class="edge">
<title>reference&#45;&gt;SplineInterpolation</title>
<path fill="none" stroke="black" d="M134.25,-704.71C201.57,-690.44 318.25,-665.71 397.72,-648.86"/>
<polygon fill="black" stroke="black" points="398.65,-652.25 407.71,-646.75 397.2,-645.4 398.65,-652.25"/>
<text text-anchor="middle" x="373" y="-669.8" font-family="Helvetica,sans-Serif" font-size="14.00">WorkspaceToMatch</text>
</g>
<!-- factor -->
<g id="node2" class="node">
<title>factor</title>
<polygon fill="grey" stroke="black" points="535.45,-255 445.65,-255 422.55,-219 512.35,-219 535.45,-255"/>
<text text-anchor="middle" x="479" y="-233.3" font-family="Times,serif" font-size="14.00">factor</text>
</g>
<!-- single_cell_responseAfter -->
<g id="node4" class="node">
<title>single_cell_responseAfter</title>
<polygon fill="grey" stroke="black" points="426.25,-182 180.87,-182 117.75,-146 363.13,-146 426.25,-182"/>
<text text-anchor="middle" x="272" y="-160.3" font-family="Times,serif" font-size="14.00">single_cell_response</text>
</g>
<!-- factor&#45;&gt;single_cell_responseAfter -->
<g id="edge30" class="edge">
<title>factor&#45;&gt;single_cell_responseAfter</title>
<path fill="none" stroke="black" d="M429.42,-218.99C400.06,-208.92 362.68,-196.1 331.71,-185.48"/>
<polygon fill="black" stroke="black" points="332.49,-182.05 321.89,-182.11 330.22,-188.67 332.49,-182.05"/>
</g>
<!-- factors -->
<g id="node5" class="node">
<title>factors</title>
<polygon fill="grey" stroke="black" points="569.79,-182 469.91,-182 444.21,-146 544.09,-146 569.79,-182"/>
<text text-anchor="middle" x="507" y="-160.3" font-family="Times,serif" font-size="14.00">factors</text>
</g>
<!-- factor&#45;&gt;factors -->
<g id="edge34" class="edge">
<title>factor&#45;&gt;factors</title>
<path fill="none" stroke="black" d="M485.78,-218.81C489.01,-210.62 492.95,-200.62 496.56,-191.48"/>
<polygon fill="black" stroke="black" points="499.87,-192.62 500.28,-182.03 493.36,-190.05 499.87,-192.62"/>
</g>
<!-- single_cell_response -->
<g id="node3" class="node">
<title>single_cell_response</title>
<polygon fill="grey" stroke="black" points="588.25,-822 342.87,-822 279.75,-786 525.13,-786 588.25,-822"/>
<text text-anchor="middle" x="434" y="-800.3" font-family="Times,serif" font-size="14.00">single_cell_response</text>
</g>
<!-- single_cell_response&#45;&gt;reference -->
<g id="edge12" class="edge">
<title>single_cell_response&#45;&gt;reference</title>
<path fill="none" stroke="black" d="M362.99,-785.9C304.82,-771.89 222.51,-752.07 161.82,-737.46"/>
<polygon fill="black" stroke="black" points="162.44,-734.01 151.9,-735.07 160.8,-740.82 162.44,-734.01"/>
<text text-anchor="middle" x="338.5" y="-756.8" font-family="Helvetica,sans-Serif" font-size="14.00">For the first pixel</text>
</g>
<!-- InterpolateOverlappingAngles -->
<g id="node9" class="node">
<title>InterpolateOverlappingAngles</title>
<polygon fill="limegreen" stroke="black" points="434,-735 227.38,-717 434,-699 640.62,-717 434,-735"/>
<text text-anchor="middle" x="434" y="-713.3" font-family="Helvetica,sans-Serif" font-size="14.00">InterpolateOverlappingAngles</text>
</g>
<!-- single_cell_response&#45;&gt;InterpolateOverlappingAngles -->
<g id="edge14" class="edge">
<title>single_cell_response&#45;&gt;InterpolateOverlappingAngles</title>
<path fill="none" stroke="black" d="M434,-785.8C434,-774.16 434,-758.55 434,-745.24"/>
<polygon fill="black" stroke="black" points="437.5,-745.18 434,-735.18 430.5,-745.18 437.5,-745.18"/>
</g>
<!-- single_cell_response&#45;&gt;SplineInterpolation -->
<g id="edge16" class="edge">
<title>single_cell_response&#45;&gt;SplineInterpolation</title>
<path fill="none" stroke="black" d="M541.92,-795.42C582.52,-786.69 624.89,-769.24 650,-735 679.44,-694.87 621.53,-666.82 565.84,-650.04"/>
<polygon fill="black" stroke="black" points="566.79,-646.68 556.21,-647.25 564.84,-653.4 566.79,-646.68"/>
<text text-anchor="middle" x="742" y="-713.3" font-family="Helvetica,sans-Serif" font-size="14.00">WorkspaceToInterpolate</text>
</g>
<!-- single_cell_responseAfter&#45;&gt;WeightedMean -->
<g id="edge31" class="edge">
<title>single_cell_responseAfter&#45;&gt;WeightedMean</title>
<path fill="none" stroke="black" d="M226.25,-145.99C199.28,-135.97 164.97,-123.21 136.46,-112.62"/>
<polygon fill="black" stroke="black" points="137.63,-109.32 127.04,-109.11 135.19,-115.88 137.63,-109.32"/>
</g>
<!-- absolute_normalise -->
<g id="node25" class="node">
<title>absolute_normalise</title>
<polygon fill="lightseagreen" stroke="black" points="582.5,-109 431.5,-109 431.5,-73 582.5,-73 582.5,-109"/>
<text text-anchor="middle" x="507" y="-87.3" font-family="Helvetica,sans-Serif" font-size="14.00">absolute_normalise</text>
</g>
<!-- factors&#45;&gt;absolute_normalise -->
<g id="edge35" class="edge">
<title>factors&#45;&gt;absolute_normalise</title>
<path fill="none" stroke="black" d="M507,-145.81C507,-137.79 507,-128.05 507,-119.07"/>
<polygon fill="black" stroke="black" points="510.5,-119.03 507,-109.03 503.5,-119.03 510.5,-119.03"/>
</g>
<!-- CalibrationMethod -->
<g id="node6" class="node">
<title>CalibrationMethod</title>
<polygon fill="limegreen" stroke="black" points="498,-415 366.62,-397 498,-379 629.38,-397 498,-415"/>
<text text-anchor="middle" x="498" y="-393.3" font-family="Helvetica,sans-Serif" font-size="14.00">CalibrationMethod</text>
</g>
<!-- MostLikelyMean -->
<g id="node17" class="node">
<title>MostLikelyMean</title>
<path fill="lightskyblue" stroke="black" d="M419,-328C419,-328 317,-328 317,-328 311,-328 305,-322 305,-316 305,-316 305,-304 305,-304 305,-298 311,-292 317,-292 317,-292 419,-292 419,-292 425,-292 431,-298 431,-304 431,-304 431,-316 431,-316 431,-322 425,-328 419,-328"/>
<text text-anchor="middle" x="368" y="-306.3" font-family="Helvetica,sans-Serif" font-size="14.00">MostLikelyMean</text>
</g>
<!-- CalibrationMethod&#45;&gt;MostLikelyMean -->
<g id="edge23" class="edge">
<title>CalibrationMethod&#45;&gt;MostLikelyMean</title>
<path fill="none" stroke="black" d="M422.15,-389.26C403.97,-384.06 386.29,-375.36 374,-361 368.71,-354.81 366.47,-346.5 365.77,-338.44"/>
<polygon fill="black" stroke="black" points="369.26,-338.12 365.6,-328.18 362.26,-338.23 369.26,-338.12"/>
<text text-anchor="middle" x="429" y="-349.8" font-family="Helvetica,sans-Serif" font-size="14.00">MostLikelyMean</text>
</g>
<!-- mean -->
<g id="node28" class="node">
<title>mean</title>
<polygon fill="lightseagreen" stroke="black" points="507,-328 451,-328 451,-292 507,-292 507,-328"/>
<text text-anchor="middle" x="479" y="-306.3" font-family="Helvetica,sans-Serif" font-size="14.00">mean</text>
</g>
<!-- CalibrationMethod&#45;&gt;mean -->
<g id="edge24" class="edge">
<title>CalibrationMethod&#45;&gt;mean</title>
<path fill="none" stroke="black" d="M494.25,-379.21C491.61,-367.41 488.03,-351.38 485,-337.82"/>
<polygon fill="black" stroke="black" points="488.41,-337.04 482.81,-328.05 481.58,-338.57 488.41,-337.04"/>
<text text-anchor="middle" x="509" y="-349.8" font-family="Helvetica,sans-Serif" font-size="14.00">Mean</text>
</g>
<!-- median -->
<g id="node29" class="node">
<title>median</title>
<polygon fill="lightseagreen" stroke="black" points="593,-328 525,-328 525,-292 593,-292 593,-328"/>
<text text-anchor="middle" x="559" y="-306.3" font-family="Helvetica,sans-Serif" font-size="14.00">median</text>
</g>
<!-- CalibrationMethod&#45;&gt;median -->
<g id="edge25" class="edge">
<title>CalibrationMethod&#45;&gt;median</title>
<path fill="none" stroke="black" d="M514.21,-381.15C520.2,-375.21 526.79,-368.1 532,-361 537.31,-353.76 542.26,-345.35 546.43,-337.52"/>
<polygon fill="black" stroke="black" points="549.67,-338.86 551.1,-328.36 543.44,-335.68 549.67,-338.86"/>
<text text-anchor="middle" x="567.5" y="-349.8" font-family="Helvetica,sans-Serif" font-size="14.00">Median</text>
</g>
<!-- CalibrationProvided -->
<g id="node7" class="node">
<title>CalibrationProvided</title>
<polygon fill="limegreen" stroke="black" points="688,-1215 548.08,-1197 688,-1179 827.92,-1197 688,-1215"/>
<text text-anchor="middle" x="688" y="-1193.3" font-family="Helvetica,sans-Serif" font-size="14.00">CalibrationProvided</text>
</g>
<!-- normalise -->
<g id="node23" class="node">
<title>normalise</title>
<polygon fill="lightseagreen" stroke="black" points="622.5,-1055 537.5,-1055 537.5,-1019 622.5,-1019 622.5,-1055"/>
<text text-anchor="middle" x="580" y="-1033.3" font-family="Helvetica,sans-Serif" font-size="14.00">normalise</text>
</g>
<!-- CalibrationProvided&#45;&gt;normalise -->
<g id="edge6" class="edge">
<title>CalibrationProvided&#45;&gt;normalise</title>
<path fill="none" stroke="black" d="M691.71,-1179.35C695.62,-1157.45 699.1,-1118.63 682,-1092 670.52,-1074.11 651.04,-1061.78 632.16,-1053.47"/>
<polygon fill="black" stroke="black" points="633.26,-1050.14 622.68,-1049.59 630.61,-1056.62 633.26,-1050.14"/>
<text text-anchor="middle" x="703.5" y="-1106.3" font-family="Helvetica,sans-Serif" font-size="14.00">No</text>
</g>
<!-- calibrate -->
<g id="node24" class="node">
<title>calibrate</title>
<polygon fill="lightseagreen" stroke="black" points="469.5,-1128 392.5,-1128 392.5,-1092 469.5,-1092 469.5,-1128"/>
<text text-anchor="middle" x="431" y="-1106.3" font-family="Helvetica,sans-Serif" font-size="14.00">calibrate</text>
</g>
<!-- CalibrationProvided&#45;&gt;calibrate -->
<g id="edge3" class="edge">
<title>CalibrationProvided&#45;&gt;calibrate</title>
<path fill="none" stroke="black" d="M649.16,-1183.86C608.9,-1171.17 543.91,-1150.43 479.23,-1128.38"/>
<polygon fill="black" stroke="black" points="480.29,-1125.04 469.69,-1125.11 478.02,-1131.66 480.29,-1125.04"/>
<text text-anchor="middle" x="587.5" y="-1149.8" font-family="Helvetica,sans-Serif" font-size="14.00">Yes</text>
</g>
<!-- NormaliseTo -->
<g id="node8" class="node">
<title>NormaliseTo</title>
<polygon fill="limegreen" stroke="black" points="580,-1128 487.33,-1110 580,-1092 672.67,-1110 580,-1128"/>
<text text-anchor="middle" x="580" y="-1106.3" font-family="Helvetica,sans-Serif" font-size="14.00">NormaliseTo</text>
</g>
<!-- NormaliseTo&#45;&gt;normalise -->
<g id="edge7" class="edge">
<title>NormaliseTo&#45;&gt;normalise</title>
<path fill="none" stroke="black" d="M580,-1091.81C580,-1083.79 580,-1074.05 580,-1065.07"/>
<polygon fill="black" stroke="black" points="583.5,-1065.03 580,-1055.03 576.5,-1065.03 583.5,-1065.03"/>
</g>
<!-- InterpolateOverlappingAngles&#45;&gt;Divide -->
<g id="edge17" class="edge">
<title>InterpolateOverlappingAngles&#45;&gt;Divide</title>
<path fill="none" stroke="black" d="M485.73,-703.37C514.45,-693.43 547.77,-676.36 565,-648 583.29,-617.9 550.36,-586.77 520.73,-566.51"/>
<polygon fill="black" stroke="black" points="522.38,-563.41 512.1,-560.84 518.54,-569.26 522.38,-563.41"/>
<text text-anchor="middle" x="580.5" y="-626.3" font-family="Helvetica,sans-Serif" font-size="14.00">No</text>
</g>
<!-- InterpolateOverlappingAngles&#45;&gt;SplineInterpolation -->
<g id="edge15" class="edge">
<title>InterpolateOverlappingAngles&#45;&gt;SplineInterpolation</title>
<path fill="none" stroke="black" d="M443.25,-699.61C450.03,-687.62 459.36,-671.09 467.17,-657.27"/>
<polygon fill="black" stroke="black" points="470.41,-658.64 472.28,-648.21 464.31,-655.2 470.41,-658.64"/>
<text text-anchor="middle" x="473.5" y="-669.8" font-family="Helvetica,sans-Serif" font-size="14.00">yes</text>
</g>
<!-- CalibrationRun -->
<g id="node10" class="node">
<title>CalibrationRun</title>
<ellipse fill="khaki" stroke="black" cx="688" cy="-1357" rx="77.19" ry="18"/>
<text text-anchor="middle" x="688" y="-1353.3" font-family="Helvetica,sans-Serif" font-size="14.00">CalibrationRun</text>
</g>
<!-- LoadILLDiffraction -->
<g id="node16" class="node">
<title>LoadILLDiffraction</title>
<path fill="lightskyblue" stroke="black" d="M747,-1288C747,-1288 629,-1288 629,-1288 623,-1288 617,-1282 617,-1276 617,-1276 617,-1264 617,-1264 617,-1258 623,-1252 629,-1252 629,-1252 747,-1252 747,-1252 753,-1252 759,-1258 759,-1264 759,-1264 759,-1276 759,-1276 759,-1282 753,-1288 747,-1288"/>
<text text-anchor="middle" x="688" y="-1266.3" font-family="Helvetica,sans-Serif" font-size="14.00">LoadILLDiffraction</text>
</g>
<!-- CalibrationRun&#45;&gt;LoadILLDiffraction -->
<g id="edge1" class="edge">
<title>CalibrationRun&#45;&gt;LoadILLDiffraction</title>
<path fill="none" stroke="black" d="M688,-1338.8C688,-1327.16 688,-1311.55 688,-1298.24"/>
<polygon fill="black" stroke="black" points="691.5,-1298.18 688,-1288.18 684.5,-1298.18 691.5,-1298.18"/>
<text text-anchor="middle" x="735" y="-1309.8" font-family="Helvetica,sans-Serif" font-size="14.00">DetectorScan</text>
</g>
<!-- CalibrationFile -->
<g id="node11" class="node">
<title>CalibrationFile</title>
<ellipse fill="khaki" stroke="black" cx="431" cy="-1197" rx="74.99" ry="18"/>
<text text-anchor="middle" x="431" y="-1193.3" font-family="Helvetica,sans-Serif" font-size="14.00">CalibrationFile</text>
</g>
<!-- CalibrationFile&#45;&gt;calibrate -->
<g id="edge4" class="edge">
<title>CalibrationFile&#45;&gt;calibrate</title>
<path fill="none" stroke="black" d="M431,-1178.8C431,-1167.16 431,-1151.55 431,-1138.24"/>
<polygon fill="black" stroke="black" points="434.5,-1138.18 431,-1128.18 427.5,-1138.18 434.5,-1138.18"/>
</g>
<!-- ExcludedRange -->
<g id="node12" class="node">
<title>ExcludedRange</title>
<ellipse fill="khaki" stroke="black" cx="611" cy="-543" rx="81.49" ry="18"/>
<text text-anchor="middle" x="611" y="-539.3" font-family="Helvetica,sans-Serif" font-size="14.00">ExcludedRange</text>
</g>
<!-- exclude_ranges -->
<g id="node26" class="node">
<title>exclude_ranges</title>
<polygon fill="lightseagreen" stroke="black" points="560.5,-488 435.5,-488 435.5,-452 560.5,-452 560.5,-488"/>
<text text-anchor="middle" x="498" y="-466.3" font-family="Helvetica,sans-Serif" font-size="14.00">exclude_ranges</text>
</g>
<!-- ExcludedRange&#45;&gt;exclude_ranges -->
<g id="edge21" class="edge">
<title>ExcludedRange&#45;&gt;exclude_ranges</title>
<path fill="none" stroke="black" d="M585.36,-525.89C570.05,-516.27 550.39,-503.92 533.6,-493.37"/>
<polygon fill="black" stroke="black" points="535.44,-490.39 525.12,-488.04 531.72,-496.32 535.44,-490.39"/>
</g>
<!-- OutputWorkspace -->
<g id="node13" class="node">
<title>OutputWorkspace</title>
<ellipse fill="khaki" stroke="black" cx="507" cy="-18" rx="92.08" ry="18"/>
<text text-anchor="middle" x="507" y="-14.3" font-family="Helvetica,sans-Serif" font-size="14.00">OutputWorkspace</text>
</g>
<!-- PixelRange -->
<g id="node15" class="node">
<title>PixelRange</title>
<ellipse fill="khaki" stroke="black" cx="418" cy="-964" rx="60.39" ry="18"/>
<text text-anchor="middle" x="418" y="-960.3" font-family="Helvetica,sans-Serif" font-size="14.00">PixelRange</text>
</g>
<!-- extract_single_cell -->
<g id="node27" class="node">
<title>extract_single_cell</title>
<polygon fill="lightseagreen" stroke="black" points="505.5,-895 362.5,-895 362.5,-859 505.5,-859 505.5,-895"/>
<text text-anchor="middle" x="434" y="-873.3" font-family="Helvetica,sans-Serif" font-size="14.00">extract_single_cell</text>
</g>
<!-- PixelRange&#45;&gt;extract_single_cell -->
<g id="edge10" class="edge">
<title>PixelRange&#45;&gt;extract_single_cell</title>
<path fill="none" stroke="black" d="M421.24,-945.8C423.43,-934.16 426.37,-918.55 428.87,-905.24"/>
<polygon fill="black" stroke="black" points="432.36,-905.65 430.77,-895.18 425.48,-904.36 432.36,-905.65"/>
</g>
<!-- LoadILLDiffraction&#45;&gt;CalibrationProvided -->
<g id="edge2" class="edge">
<title>LoadILLDiffraction&#45;&gt;CalibrationProvided</title>
<path fill="none" stroke="black" d="M688,-1251.81C688,-1243.79 688,-1234.05 688,-1225.07"/>
<polygon fill="black" stroke="black" points="691.5,-1225.03 688,-1215.03 684.5,-1225.03 691.5,-1225.03"/>
</g>
<!-- MostLikelyMean&#45;&gt;factor -->
<g id="edge26" class="edge">
<title>MostLikelyMean&#45;&gt;factor</title>
<path fill="none" stroke="black" d="M394.59,-291.99C409.31,-282.58 427.79,-270.76 443.71,-260.57"/>
<polygon fill="black" stroke="black" points="445.71,-263.45 452.24,-255.11 441.93,-257.55 445.71,-263.45"/>
</g>
<!-- WeightedMean&#45;&gt;reference -->
<g id="edge33" class="edge">
<title>WeightedMean&#45;&gt;reference</title>
<path fill="none" stroke="black" d="M88.23,-109.22C90,-123.59 90,-144.63 90,-163 90,-631 90,-631 90,-631 90,-650.25 90,-671.95 88.81,-688.6"/>
<polygon fill="black" stroke="black" points="85.31,-688.46 87.84,-698.74 92.28,-689.12 85.31,-688.46"/>
</g>
<!-- ConvertSpectrumAxis -->
<g id="node19" class="node">
<title>ConvertSpectrumAxis</title>
<path fill="lightskyblue" stroke="black" d="M652,-982C652,-982 508,-982 508,-982 502,-982 496,-976 496,-970 496,-970 496,-958 496,-958 496,-952 502,-946 508,-946 508,-946 652,-946 652,-946 658,-946 664,-952 664,-958 664,-958 664,-970 664,-970 664,-976 658,-982 652,-982"/>
<text text-anchor="middle" x="580" y="-960.3" font-family="Helvetica,sans-Serif" font-size="14.00">ConvertSpectrumAxis</text>
</g>
<!-- ConvertSpectrumAxis&#45;&gt;extract_single_cell -->
<g id="edge9" class="edge">
<title>ConvertSpectrumAxis&#45;&gt;extract_single_cell</title>
<path fill="none" stroke="black" d="M550.45,-945.8C527.89,-932.66 496.63,-914.46 472.17,-900.22"/>
<polygon fill="black" stroke="black" points="473.9,-897.18 463.5,-895.18 470.38,-903.23 473.9,-897.18"/>
<text text-anchor="middle" x="528" y="-916.8" font-family="Helvetica,sans-Serif" font-size="14.00">i&#45;th</text>
</g>
<!-- Divide&#45;&gt;exclude_ranges -->
<g id="edge20" class="edge">
<title>Divide&#45;&gt;exclude_ranges</title>
<path fill="none" stroke="black" d="M485.87,-524.81C487.68,-516.79 489.88,-507.05 491.9,-498.07"/>
<polygon fill="black" stroke="black" points="495.38,-498.55 494.16,-488.03 488.55,-497.01 495.38,-498.55"/>
</g>
<!-- Scale -->
<g id="node21" class="node">
<title>Scale</title>
<path fill="lightskyblue" stroke="black" d="M287,-255C287,-255 257,-255 257,-255 251,-255 245,-249 245,-243 245,-243 245,-231 245,-231 245,-225 251,-219 257,-219 257,-219 287,-219 287,-219 293,-219 299,-225 299,-231 299,-231 299,-243 299,-243 299,-249 293,-255 287,-255"/>
<text text-anchor="middle" x="272" y="-233.3" font-family="Helvetica,sans-Serif" font-size="14.00">Scale</text>
</g>
<!-- Scale&#45;&gt;single_cell_responseAfter -->
<g id="edge29" class="edge">
<title>Scale&#45;&gt;single_cell_responseAfter</title>
<path fill="none" stroke="black" d="M272,-218.81C272,-210.79 272,-201.05 272,-192.07"/>
<polygon fill="black" stroke="black" points="275.5,-192.03 272,-182.03 268.5,-192.03 275.5,-192.03"/>
</g>
<!-- SplineInterpolation&#45;&gt;Divide -->
<g id="edge19" class="edge">
<title>SplineInterpolation&#45;&gt;Divide</title>
<path fill="none" stroke="black" d="M482,-611.8C482,-600.16 482,-584.55 482,-571.24"/>
<polygon fill="black" stroke="black" points="485.5,-571.18 482,-561.18 478.5,-571.18 485.5,-571.18"/>
<text text-anchor="middle" x="497" y="-582.8" font-family="Helvetica,sans-Serif" font-size="14.00">RHS</text>
</g>
<!-- normalise&#45;&gt;ConvertSpectrumAxis -->
<g id="edge8" class="edge">
<title>normalise&#45;&gt;ConvertSpectrumAxis</title>
<path fill="none" stroke="black" d="M580,-1018.81C580,-1010.79 580,-1001.05 580,-992.07"/>
<polygon fill="black" stroke="black" points="583.5,-992.03 580,-982.03 576.5,-992.03 583.5,-992.03"/>
</g>
<!-- calibrate&#45;&gt;normalise -->
<g id="edge5" class="edge">
<title>calibrate&#45;&gt;normalise</title>
<path fill="none" stroke="black" d="M466.69,-1091.99C487.18,-1082.23 513.1,-1069.88 534.98,-1059.45"/>
<polygon fill="black" stroke="black" points="536.56,-1062.57 544.09,-1055.11 533.55,-1056.26 536.56,-1062.57"/>
</g>
<!-- absolute_normalise&#45;&gt;OutputWorkspace -->
<g id="edge36" class="edge">
<title>absolute_normalise&#45;&gt;OutputWorkspace</title>
<path fill="none" stroke="black" d="M507,-72.81C507,-64.79 507,-55.05 507,-46.07"/>
<polygon fill="black" stroke="black" points="510.5,-46.03 507,-36.03 503.5,-46.03 510.5,-46.03"/>
</g>
<!-- exclude_ranges&#45;&gt;CalibrationMethod -->
<g id="edge22" class="edge">
<title>exclude_ranges&#45;&gt;CalibrationMethod</title>
<path fill="none" stroke="black" d="M498,-451.81C498,-443.79 498,-434.05 498,-425.07"/>
<polygon fill="black" stroke="black" points="501.5,-425.03 498,-415.03 494.5,-425.03 501.5,-425.03"/>
</g>
<!-- extract_single_cell&#45;&gt;single_cell_response -->
<g id="edge11" class="edge">
<title>extract_single_cell&#45;&gt;single_cell_response</title>
<path fill="none" stroke="black" d="M434,-858.81C434,-850.79 434,-841.05 434,-832.07"/>
<polygon fill="black" stroke="black" points="437.5,-832.03 434,-822.03 430.5,-832.03 437.5,-832.03"/>
</g>
<!-- mean&#45;&gt;factor -->
<g id="edge27" class="edge">
<title>mean&#45;&gt;factor</title>
<path fill="none" stroke="black" d="M479,-291.81C479,-283.79 479,-274.05 479,-265.07"/>
<polygon fill="black" stroke="black" points="482.5,-265.03 479,-255.03 475.5,-265.03 482.5,-265.03"/>
</g>
<!-- median&#45;&gt;factor -->
<g id="edge28" class="edge">
<title>median&#45;&gt;factor</title>
<path fill="none" stroke="black" d="M539.63,-291.81C529.51,-282.83 516.96,-271.69 505.91,-261.89"/>
<polygon fill="black" stroke="black" points="507.99,-259.05 498.19,-255.03 503.34,-264.28 507.99,-259.05"/>
</g>
</g>
</svg>
