<?xml version="1.0" encoding="UTF-8" standalone="no"?>
<!DOCTYPE svg PUBLIC "-//W3C//DTD SVG 1.1//EN"
 "http://www.w3.org/Graphics/SVG/1.1/DTD/svg11.dtd">
<!-- Generated by graphviz version 3.0.0 (20220315.2325)
 -->
<!-- Title: ReflectometryILLSumForeground Pages: 1 -->
<svg width="1004pt" height="927pt"
 viewBox="0.00 0.00 1004.18 927.22" xmlns="http://www.w3.org/2000/svg" xmlns:xlink="http://www.w3.org/1999/xlink">
<g id="graph0" class="graph" transform="scale(1 1) rotate(0) translate(4 923.22)">
<title>ReflectometryILLSumForeground</title>
<polygon fill="white" stroke="transparent" points="-4,4 -4,-923.22 1000.18,-923.22 1000.18,4 -4,4"/>
<text text-anchor="middle" x="498.09" y="-904.02" font-family="Helvetica,sans-Serif" font-size="14.00">ReflectometryILLSumForeground workflow diagram</text>
<!-- input -->
<g id="node1" class="node">
<title>input</title>
<ellipse fill="khaki" stroke="black" cx="869.18" cy="-878.22" rx="84.49" ry="18"/>
<text text-anchor="middle" x="869.18" y="-874.52" font-family="Helvetica,sans-Serif" font-size="14.00">InputWorkspace</text>
</g>
<!-- is_statistics_required -->
<g id="node20" class="node">
<title>is_statistics_required</title>
<polygon fill="limegreen" stroke="black" points="869.18,-823.22 742.18,-785.22 869.18,-747.22 996.18,-785.22 869.18,-823.22"/>
<text text-anchor="middle" x="869.18" y="-789.02" font-family="Helvetica,sans-Serif" font-size="14.00">Summing direct</text>
<text text-anchor="middle" x="869.18" y="-774.02" font-family="Helvetica,sans-Serif" font-size="14.00">or reflected?</text>
</g>
<!-- input&#45;&gt;is_statistics_required -->
<g id="edge1" class="edge">
<title>input&#45;&gt;is_statistics_required</title>
<path fill="none" stroke="black" d="M869.18,-860.1C869.18,-852.47 869.18,-843.05 869.18,-833.53"/>
<polygon fill="black" stroke="black" points="872.68,-833.24 869.18,-823.24 865.68,-833.24 872.68,-833.24"/>
</g>
<!-- output -->
<g id="node2" class="node">
<title>output</title>
<ellipse fill="khaki" stroke="black" cx="398.18" cy="-18" rx="92.08" ry="18"/>
<text text-anchor="middle" x="398.18" y="-14.3" font-family="Helvetica,sans-Serif" font-size="14.00">OutputWorkspace</text>
</g>
<!-- direct -->
<g id="node3" class="node">
<title>direct</title>
<ellipse fill="khaki" stroke="black" cx="612.18" cy="-785.22" rx="105.08" ry="18"/>
<text text-anchor="middle" x="612.18" y="-781.52" font-family="Helvetica,sans-Serif" font-size="14.00">DirectLineWorkspace</text>
</g>
<!-- statistics -->
<g id="node18" class="node">
<title>statistics</title>
<path fill="lightskyblue" stroke="black" d="M708.68,-696.22C708.68,-696.22 515.68,-696.22 515.68,-696.22 509.68,-696.22 503.68,-690.22 503.68,-684.22 503.68,-684.22 503.68,-672.22 503.68,-672.22 503.68,-666.22 509.68,-660.22 515.68,-660.22 515.68,-660.22 708.68,-660.22 708.68,-660.22 714.68,-660.22 720.68,-666.22 720.68,-672.22 720.68,-672.22 720.68,-684.22 720.68,-684.22 720.68,-690.22 714.68,-696.22 708.68,-696.22"/>
<text text-anchor="middle" x="612.18" y="-674.52" font-family="Helvetica,sans-Serif" font-size="14.00">ReflectometryBeamStatistics</text>
</g>
<!-- direct&#45;&gt;statistics -->
<g id="edge3" class="edge">
<title>direct&#45;&gt;statistics</title>
<path fill="none" stroke="black" d="M612.18,-766.88C612.18,-750.44 612.18,-725.5 612.18,-706.41"/>
<polygon fill="black" stroke="black" points="615.68,-706.24 612.18,-696.24 608.68,-706.24 615.68,-706.24"/>
</g>
<!-- l_direct_foreground -->
<g id="node4" class="node">
<title>l_direct_foreground</title>
<ellipse fill="khaki" stroke="black" cx="467.18" cy="-271" rx="137.58" ry="18"/>
<text text-anchor="middle" x="467.18" y="-267.3" font-family="Helvetica,sans-Serif" font-size="14.00">DirectForegroundWorkspace</text>
</g>
<!-- l_rebin -->
<g id="node15" class="node">
<title>l_rebin</title>
<path fill="lightskyblue" stroke="black" d="M561.68,-182C561.68,-182 402.68,-182 402.68,-182 396.68,-182 390.68,-176 390.68,-170 390.68,-170 390.68,-158 390.68,-158 390.68,-152 396.68,-146 402.68,-146 402.68,-146 561.68,-146 561.68,-146 567.68,-146 573.68,-152 573.68,-158 573.68,-158 573.68,-170 573.68,-170 573.68,-176 567.68,-182 561.68,-182"/>
<text text-anchor="middle" x="482.18" y="-160.3" font-family="Helvetica,sans-Serif" font-size="14.00">Rebin reflected to direct</text>
</g>
<!-- l_direct_foreground&#45;&gt;l_rebin -->
<g id="edge21" class="edge">
<title>l_direct_foreground&#45;&gt;l_rebin</title>
<path fill="none" stroke="black" d="M469.65,-252.66C472.01,-236.15 475.6,-211.05 478.33,-191.93"/>
<polygon fill="black" stroke="black" points="481.79,-192.41 479.74,-182.02 474.87,-191.42 481.79,-192.41"/>
</g>
<!-- q_direct_foreground -->
<g id="node5" class="node">
<title>q_direct_foreground</title>
<ellipse fill="khaki" stroke="black" cx="284.18" cy="-582.35" rx="137.58" ry="18"/>
<text text-anchor="middle" x="284.18" y="-578.65" font-family="Helvetica,sans-Serif" font-size="14.00">DirectForegroundWorkspace</text>
</g>
<!-- q_rebin -->
<g id="node16" class="node">
<title>q_rebin</title>
<path fill="lightskyblue" stroke="black" d="M516.68,-495.61C516.68,-495.61 357.68,-495.61 357.68,-495.61 351.68,-495.61 345.68,-489.61 345.68,-483.61 345.68,-483.61 345.68,-471.61 345.68,-471.61 345.68,-465.61 351.68,-459.61 357.68,-459.61 357.68,-459.61 516.68,-459.61 516.68,-459.61 522.68,-459.61 528.68,-465.61 528.68,-471.61 528.68,-471.61 528.68,-483.61 528.68,-483.61 528.68,-489.61 522.68,-495.61 516.68,-495.61"/>
<text text-anchor="middle" x="437.18" y="-473.91" font-family="Helvetica,sans-Serif" font-size="14.00">Rebin reflected to direct</text>
</g>
<!-- q_direct_foreground&#45;&gt;q_rebin -->
<g id="edge7" class="edge">
<title>q_direct_foreground&#45;&gt;q_rebin</title>
<path fill="none" stroke="black" d="M309.1,-564.61C334.73,-547.4 374.82,-520.48 403.31,-501.35"/>
<polygon fill="black" stroke="black" points="405.4,-504.16 411.75,-495.68 401.5,-498.35 405.4,-504.16"/>
</g>
<!-- divide_before -->
<g id="node17" class="node">
<title>divide_before</title>
<path fill="lightskyblue" stroke="black" d="M352.18,-390.87C352.18,-390.87 316.18,-390.87 316.18,-390.87 310.18,-390.87 304.18,-384.87 304.18,-378.87 304.18,-378.87 304.18,-366.87 304.18,-366.87 304.18,-360.87 310.18,-354.87 316.18,-354.87 316.18,-354.87 352.18,-354.87 352.18,-354.87 358.18,-354.87 364.18,-360.87 364.18,-366.87 364.18,-366.87 364.18,-378.87 364.18,-378.87 364.18,-384.87 358.18,-390.87 352.18,-390.87"/>
<text text-anchor="middle" x="334.18" y="-369.17" font-family="Helvetica,sans-Serif" font-size="14.00">Divide</text>
</g>
<!-- q_direct_foreground&#45;&gt;divide_before -->
<g id="edge9" class="edge">
<title>q_direct_foreground&#45;&gt;divide_before</title>
<path fill="none" stroke="black" d="M286.05,-564.23C289.03,-539.07 295.61,-490.76 306.18,-450.74 310.68,-433.67 317.41,-415.05 323.15,-400.41"/>
<polygon fill="black" stroke="black" points="326.46,-401.57 326.92,-390.98 319.96,-398.97 326.46,-401.57"/>
<text text-anchor="middle" x="321.18" y="-473.91" font-family="Helvetica,sans-Serif" font-size="14.00">RHS</text>
</g>
<!-- l_foreground_centre -->
<g id="node6" class="node">
<title>l_foreground_centre</title>
<ellipse fill="khaki" stroke="black" cx="781.18" cy="-582.35" rx="67.35" ry="26.74"/>
<text text-anchor="middle" x="781.18" y="-586.15" font-family="Helvetica,sans-Serif" font-size="14.00">Foreground</text>
<text text-anchor="middle" x="781.18" y="-571.15" font-family="Helvetica,sans-Serif" font-size="14.00">centre</text>
</g>
<!-- extract_spectrum -->
<g id="node12" class="node">
<title>extract_spectrum</title>
<path fill="lightskyblue" stroke="black" d="M863.18,-495.61C863.18,-495.61 711.18,-495.61 711.18,-495.61 705.18,-495.61 699.18,-489.61 699.18,-483.61 699.18,-483.61 699.18,-471.61 699.18,-471.61 699.18,-465.61 705.18,-459.61 711.18,-459.61 711.18,-459.61 863.18,-459.61 863.18,-459.61 869.18,-459.61 875.18,-465.61 875.18,-471.61 875.18,-471.61 875.18,-483.61 875.18,-483.61 875.18,-489.61 869.18,-495.61 863.18,-495.61"/>
<text text-anchor="middle" x="787.18" y="-473.91" font-family="Helvetica,sans-Serif" font-size="14.00">ExtractSingleSpectrum</text>
</g>
<!-- l_foreground_centre&#45;&gt;extract_spectrum -->
<g id="edge15" class="edge">
<title>l_foreground_centre&#45;&gt;extract_spectrum</title>
<path fill="none" stroke="black" d="M782.69,-555.42C783.57,-540.4 784.67,-521.5 785.56,-506.21"/>
<polygon fill="black" stroke="black" points="789.08,-506 786.17,-495.81 782.09,-505.59 789.08,-506"/>
</g>
<!-- q_foreground_centre -->
<g id="node7" class="node">
<title>q_foreground_centre</title>
<ellipse fill="khaki" stroke="black" cx="67.18" cy="-372.87" rx="67.35" ry="26.74"/>
<text text-anchor="middle" x="67.18" y="-376.67" font-family="Helvetica,sans-Serif" font-size="14.00">Foreground</text>
<text text-anchor="middle" x="67.18" y="-361.67" font-family="Helvetica,sans-Serif" font-size="14.00">centre</text>
</g>
<!-- sum_foreground_q -->
<g id="node13" class="node">
<title>sum_foreground_q</title>
<path fill="lightskyblue" stroke="black" d="M299.68,-290C299.68,-290 138.68,-290 138.68,-290 132.68,-290 126.68,-284 126.68,-278 126.68,-278 126.68,-264 126.68,-264 126.68,-258 132.68,-252 138.68,-252 138.68,-252 299.68,-252 299.68,-252 305.68,-252 311.68,-258 311.68,-264 311.68,-264 311.68,-278 311.68,-278 311.68,-284 305.68,-290 299.68,-290"/>
<text text-anchor="middle" x="219.18" y="-274.8" font-family="Helvetica,sans-Serif" font-size="14.00">Sum foreground spectra</text>
<text text-anchor="middle" x="219.18" y="-259.8" font-family="Helvetica,sans-Serif" font-size="14.00">in Q</text>
</g>
<!-- q_foreground_centre&#45;&gt;sum_foreground_q -->
<g id="edge11" class="edge">
<title>q_foreground_centre&#45;&gt;sum_foreground_q</title>
<path fill="none" stroke="black" d="M101.29,-349.46C125.72,-333.41 158.54,-311.84 183.35,-295.54"/>
<polygon fill="black" stroke="black" points="185.33,-298.43 191.76,-290.01 181.49,-292.58 185.33,-298.43"/>
</g>
<!-- l_foreground_widths -->
<g id="node8" class="node">
<title>l_foreground_widths</title>
<ellipse fill="khaki" stroke="black" cx="614.18" cy="-477.61" rx="67.35" ry="26.74"/>
<text text-anchor="middle" x="614.18" y="-481.41" font-family="Helvetica,sans-Serif" font-size="14.00">Foreground</text>
<text text-anchor="middle" x="614.18" y="-466.41" font-family="Helvetica,sans-Serif" font-size="14.00">widths</text>
</g>
<!-- sum_foreground_wavelength -->
<g id="node14" class="node">
<title>sum_foreground_wavelength</title>
<path fill="lightskyblue" stroke="black" d="M830.68,-391.87C830.68,-391.87 669.68,-391.87 669.68,-391.87 663.68,-391.87 657.68,-385.87 657.68,-379.87 657.68,-379.87 657.68,-365.87 657.68,-365.87 657.68,-359.87 663.68,-353.87 669.68,-353.87 669.68,-353.87 830.68,-353.87 830.68,-353.87 836.68,-353.87 842.68,-359.87 842.68,-365.87 842.68,-365.87 842.68,-379.87 842.68,-379.87 842.68,-385.87 836.68,-391.87 830.68,-391.87"/>
<text text-anchor="middle" x="750.18" y="-376.67" font-family="Helvetica,sans-Serif" font-size="14.00">Sum foreground spectra</text>
<text text-anchor="middle" x="750.18" y="-361.67" font-family="Helvetica,sans-Serif" font-size="14.00">in wavelength</text>
</g>
<!-- l_foreground_widths&#45;&gt;sum_foreground_wavelength -->
<g id="edge17" class="edge">
<title>l_foreground_widths&#45;&gt;sum_foreground_wavelength</title>
<path fill="none" stroke="black" d="M644.7,-453.55C666.5,-437.08 695.78,-414.96 717.96,-398.2"/>
<polygon fill="black" stroke="black" points="720.22,-400.89 726.09,-392.07 716,-395.3 720.22,-400.89"/>
</g>
<!-- q_foreground_widths -->
<g id="node9" class="node">
<title>q_foreground_widths</title>
<ellipse fill="khaki" stroke="black" cx="219.18" cy="-372.87" rx="67.35" ry="26.74"/>
<text text-anchor="middle" x="219.18" y="-376.67" font-family="Helvetica,sans-Serif" font-size="14.00">Foreground</text>
<text text-anchor="middle" x="219.18" y="-361.67" font-family="Helvetica,sans-Serif" font-size="14.00">widths</text>
</g>
<!-- q_foreground_widths&#45;&gt;sum_foreground_q -->
<g id="edge12" class="edge">
<title>q_foreground_widths&#45;&gt;sum_foreground_q</title>
<path fill="none" stroke="black" d="M219.18,-345.89C219.18,-331.98 219.18,-314.82 219.18,-300.54"/>
<polygon fill="black" stroke="black" points="222.68,-300.29 219.18,-290.29 215.68,-300.29 222.68,-300.29"/>
</g>
<!-- wavelength_range -->
<g id="node10" class="node">
<title>wavelength_range</title>
<ellipse fill="khaki" stroke="black" cx="241.18" cy="-164" rx="92.88" ry="18"/>
<text text-anchor="middle" x="241.18" y="-160.3" font-family="Helvetica,sans-Serif" font-size="14.00">WavelengthRange</text>
</g>
<!-- crop -->
<g id="node11" class="node">
<title>crop</title>
<path fill="lightskyblue" stroke="black" d="M448.68,-109C448.68,-109 347.68,-109 347.68,-109 341.68,-109 335.68,-103 335.68,-97 335.68,-97 335.68,-85 335.68,-85 335.68,-79 341.68,-73 347.68,-73 347.68,-73 448.68,-73 448.68,-73 454.68,-73 460.68,-79 460.68,-85 460.68,-85 460.68,-97 460.68,-97 460.68,-103 454.68,-109 448.68,-109"/>
<text text-anchor="middle" x="398.18" y="-87.3" font-family="Helvetica,sans-Serif" font-size="14.00">CropWorkspace</text>
</g>
<!-- wavelength_range&#45;&gt;crop -->
<g id="edge23" class="edge">
<title>wavelength_range&#45;&gt;crop</title>
<path fill="none" stroke="black" d="M276.02,-147.24C298.11,-137.25 326.96,-124.2 351.08,-113.3"/>
<polygon fill="black" stroke="black" points="352.74,-116.39 360.41,-109.08 349.86,-110.01 352.74,-116.39"/>
</g>
<!-- crop&#45;&gt;output -->
<g id="edge24" class="edge">
<title>crop&#45;&gt;output</title>
<path fill="none" stroke="black" d="M398.18,-72.81C398.18,-64.79 398.18,-55.05 398.18,-46.07"/>
<polygon fill="black" stroke="black" points="401.68,-46.03 398.18,-36.03 394.68,-46.03 401.68,-46.03"/>
</g>
<!-- extract_spectrum&#45;&gt;sum_foreground_wavelength -->
<g id="edge16" class="edge">
<title>extract_spectrum&#45;&gt;sum_foreground_wavelength</title>
<path fill="none" stroke="black" d="M780.9,-459.18C775.23,-443.43 766.78,-419.98 760.18,-401.65"/>
<polygon fill="black" stroke="black" points="763.41,-400.3 756.73,-392.08 756.83,-402.67 763.41,-400.3"/>
</g>
<!-- sum_foreground_q&#45;&gt;crop -->
<g id="edge13" class="edge">
<title>sum_foreground_q&#45;&gt;crop</title>
<path fill="none" stroke="black" d="M251.72,-251.96C278.48,-236.01 316.24,-210.85 343.18,-182 360.92,-162.99 375.9,-137.38 385.73,-118.34"/>
<polygon fill="black" stroke="black" points="388.9,-119.82 390.25,-109.31 382.64,-116.68 388.9,-119.82"/>
</g>
<!-- is_rebin_required -->
<g id="node19" class="node">
<title>is_rebin_required</title>
<polygon fill="limegreen" stroke="black" points="750.18,-309 623.18,-271 750.18,-233 877.18,-271 750.18,-309"/>
<text text-anchor="middle" x="750.18" y="-274.8" font-family="Helvetica,sans-Serif" font-size="14.00">Summing direct</text>
<text text-anchor="middle" x="750.18" y="-259.8" font-family="Helvetica,sans-Serif" font-size="14.00">or reflected?</text>
</g>
<!-- sum_foreground_wavelength&#45;&gt;is_rebin_required -->
<g id="edge18" class="edge">
<title>sum_foreground_wavelength&#45;&gt;is_rebin_required</title>
<path fill="none" stroke="black" d="M750.18,-353.55C750.18,-343.87 750.18,-331.5 750.18,-319.34"/>
<polygon fill="black" stroke="black" points="753.68,-319.23 750.18,-309.23 746.68,-319.23 753.68,-319.23"/>
</g>
<!-- l_rebin&#45;&gt;crop -->
<g id="edge22" class="edge">
<title>l_rebin&#45;&gt;crop</title>
<path fill="none" stroke="black" d="M461.84,-145.81C451.11,-136.74 437.78,-125.48 426.1,-115.6"/>
<polygon fill="black" stroke="black" points="428.22,-112.81 418.32,-109.03 423.7,-118.16 428.22,-112.81"/>
</g>
<!-- q_rebin&#45;&gt;divide_before -->
<g id="edge8" class="edge">
<title>q_rebin&#45;&gt;divide_before</title>
<path fill="none" stroke="black" d="M419.7,-459.18C402.88,-442.4 377.29,-416.88 358.48,-398.12"/>
<polygon fill="black" stroke="black" points="360.94,-395.63 351.39,-391.04 356,-400.58 360.94,-395.63"/>
<text text-anchor="middle" x="406.18" y="-421.54" font-family="Helvetica,sans-Serif" font-size="14.00">LHS</text>
</g>
<!-- divide_before&#45;&gt;sum_foreground_q -->
<g id="edge10" class="edge">
<title>divide_before&#45;&gt;sum_foreground_q</title>
<path fill="none" stroke="black" d="M314.41,-354.7C296.07,-338.78 268.57,-314.9 247.83,-296.88"/>
<polygon fill="black" stroke="black" points="250.09,-294.21 240.24,-290.3 245.5,-299.49 250.09,-294.21"/>
</g>
<!-- which_sum_type -->
<g id="node21" class="node">
<title>which_sum_type</title>
<polygon fill="limegreen" stroke="black" points="571.18,-600.35 446.16,-582.35 571.18,-564.35 696.19,-582.35 571.18,-600.35"/>
<text text-anchor="middle" x="571.18" y="-578.65" font-family="Helvetica,sans-Serif" font-size="14.00">SummationType?</text>
</g>
<!-- statistics&#45;&gt;which_sum_type -->
<g id="edge4" class="edge">
<title>statistics&#45;&gt;which_sum_type</title>
<path fill="none" stroke="black" d="M604.66,-660C598.41,-645.71 589.45,-625.18 582.36,-608.96"/>
<polygon fill="black" stroke="black" points="585.45,-607.28 578.24,-599.52 579.03,-610.08 585.45,-607.28"/>
</g>
<!-- is_rebin_required&#45;&gt;crop -->
<g id="edge19" class="edge">
<title>is_rebin_required&#45;&gt;crop</title>
<path fill="none" stroke="black" d="M716.45,-242.91C675.95,-210.77 610.02,-159.82 582.18,-146 547.16,-128.62 505.56,-115.83 470.78,-107.07"/>
<polygon fill="black" stroke="black" points="471.24,-103.57 460.69,-104.59 469.57,-110.37 471.24,-103.57"/>
<text text-anchor="middle" x="657.68" y="-160.3" font-family="Helvetica,sans-Serif" font-size="14.00">Direct</text>
</g>
<!-- is_rebin_required&#45;&gt;l_rebin -->
<g id="edge20" class="edge">
<title>is_rebin_required&#45;&gt;l_rebin</title>
<path fill="none" stroke="black" d="M696.59,-249C649.71,-230.64 582.01,-204.11 535.28,-185.81"/>
<polygon fill="black" stroke="black" points="536.52,-182.53 525.93,-182.14 533.97,-189.05 536.52,-182.53"/>
<text text-anchor="middle" x="641.18" y="-203.8" font-family="Helvetica,sans-Serif" font-size="14.00">Reflected</text>
</g>
<!-- is_statistics_required&#45;&gt;extract_spectrum -->
<g id="edge5" class="edge">
<title>is_statistics_required&#45;&gt;extract_spectrum</title>
<path fill="none" stroke="black" d="M874.48,-748.5C879.8,-702.06 883.84,-619.33 857.18,-555.48 848.59,-534.91 832,-516.3 817.13,-502.55"/>
<polygon fill="black" stroke="black" points="819.35,-499.84 809.56,-495.81 814.7,-505.07 819.35,-499.84"/>
<text text-anchor="middle" x="896.68" y="-631.02" font-family="Helvetica,sans-Serif" font-size="14.00">Direct</text>
</g>
<!-- is_statistics_required&#45;&gt;statistics -->
<g id="edge2" class="edge">
<title>is_statistics_required&#45;&gt;statistics</title>
<path fill="none" stroke="black" d="M816.86,-762.85C772.01,-744.52 707.79,-718.28 663.29,-700.1"/>
<polygon fill="black" stroke="black" points="664.41,-696.78 653.83,-696.24 661.76,-703.26 664.41,-696.78"/>
<text text-anchor="middle" x="766.18" y="-718.02" font-family="Helvetica,sans-Serif" font-size="14.00">Reflected</text>
</g>
<!-- which_sum_type&#45;&gt;extract_spectrum -->
<g id="edge14" class="edge">
<title>which_sum_type&#45;&gt;extract_spectrum</title>
<path fill="none" stroke="black" d="M594.55,-567.42C615.94,-554.93 648.67,-536.47 678.18,-522.48 695.36,-514.33 714.48,-506.3 731.86,-499.38"/>
<polygon fill="black" stroke="black" points="733.29,-502.58 741.31,-495.66 730.72,-496.07 733.29,-502.58"/>
<text text-anchor="middle" x="728.68" y="-526.28" font-family="Helvetica,sans-Serif" font-size="14.00">SumInLambda</text>
</g>
<!-- which_sum_type&#45;&gt;q_rebin -->
<g id="edge6" class="edge">
<title>which_sum_type&#45;&gt;q_rebin</title>
<path fill="none" stroke="black" d="M552.26,-566.85C530.26,-549.98 493.63,-521.9 467.61,-501.95"/>
<polygon fill="black" stroke="black" points="469.63,-499.09 459.57,-495.78 465.37,-504.64 469.63,-499.09"/>
<text text-anchor="middle" x="541.68" y="-526.28" font-family="Helvetica,sans-Serif" font-size="14.00">SumInQ</text>
</g>
</g>
</svg>
