<?xml version="1.0" encoding="UTF-8" standalone="no"?>
<!DOCTYPE svg PUBLIC "-//W3C//DTD SVG 1.1//EN"
 "http://www.w3.org/Graphics/SVG/1.1/DTD/svg11.dtd">
<!-- Generated by graphviz version 3.0.0 (20220315.2325)
 -->
<!-- Title: SANSBeamFluxCorrection Pages: 1 -->
<svg width="635pt" height="519pt"
 viewBox="0.00 0.00 634.82 519.00" xmlns="http://www.w3.org/2000/svg" xmlns:xlink="http://www.w3.org/1999/xlink">
<g id="graph0" class="graph" transform="scale(1 1) rotate(0) translate(4 515)">
<title>SANSBeamFluxCorrection</title>
<polygon fill="white" stroke="transparent" points="-4,4 -4,-515 630.82,-515 630.82,4 -4,4"/>
<text text-anchor="middle" x="313.41" y="-495.8" font-family="Helvetica,sans-Serif" font-size="14.00">SANSBeamFluxCorrection Flowchart</text>
<!-- flexRefWS -->
<g id="node1" class="node">
<title>flexRefWS</title>
<ellipse fill="khaki" stroke="black" cx="137.92" cy="-310" rx="94.48" ry="18"/>
<text text-anchor="middle" x="137.92" y="-306.3" font-family="Helvetica,sans-Serif" font-size="14.00">FlexRefWorkspace</text>
</g>
<!-- convertToHist -->
<g id="node6" class="node">
<title>convertToHist</title>
<path fill="lightskyblue" stroke="black" d="M249.92,-255C249.92,-255 93.92,-255 93.92,-255 87.92,-255 81.92,-249 81.92,-243 81.92,-243 81.92,-231 81.92,-231 81.92,-225 87.92,-219 93.92,-219 93.92,-219 249.92,-219 249.92,-219 255.92,-219 261.92,-225 261.92,-231 261.92,-231 261.92,-243 261.92,-243 261.92,-249 255.92,-255 249.92,-255"/>
<text text-anchor="middle" x="171.92" y="-233.3" font-family="Helvetica,sans-Serif" font-size="14.00">ConvertToHistogram v1</text>
</g>
<!-- flexRefWS&#45;&gt;convertToHist -->
<g id="edge4" class="edge">
<title>flexRefWS&#45;&gt;convertToHist</title>
<path fill="none" stroke="black" d="M146.15,-291.81C150.12,-283.53 154.97,-273.41 159.38,-264.19"/>
<polygon fill="black" stroke="black" points="162.61,-265.56 163.77,-255.03 156.29,-262.54 162.61,-265.56"/>
</g>
<!-- monitorWS -->
<g id="node2" class="node">
<title>monitorWS</title>
<ellipse fill="khaki" stroke="black" cx="531.92" cy="-310" rx="94.78" ry="18"/>
<text text-anchor="middle" x="531.92" y="-306.3" font-family="Helvetica,sans-Serif" font-size="14.00">MonitorWorkspace</text>
</g>
<!-- rebinToWs2 -->
<g id="node8" class="node">
<title>rebinToWs2</title>
<path fill="lightskyblue" stroke="black" d="M545.92,-255C545.92,-255 399.92,-255 399.92,-255 393.92,-255 387.92,-249 387.92,-243 387.92,-243 387.92,-231 387.92,-231 387.92,-225 393.92,-219 399.92,-219 399.92,-219 545.92,-219 545.92,-219 551.92,-219 557.92,-225 557.92,-231 557.92,-231 557.92,-243 557.92,-243 557.92,-249 551.92,-255 545.92,-255"/>
<text text-anchor="middle" x="472.92" y="-233.3" font-family="Helvetica,sans-Serif" font-size="14.00">RebinToWorkspace v1</text>
</g>
<!-- monitorWS&#45;&gt;rebinToWs2 -->
<g id="edge9" class="edge">
<title>monitorWS&#45;&gt;rebinToWs2</title>
<path fill="none" stroke="black" d="M517.94,-292.17C510.7,-283.46 501.72,-272.65 493.68,-262.98"/>
<polygon fill="black" stroke="black" points="496.3,-260.65 487.22,-255.2 490.92,-265.13 496.3,-260.65"/>
</g>
<!-- inputWS -->
<g id="node3" class="node">
<title>inputWS</title>
<ellipse fill="khaki" stroke="black" cx="334.92" cy="-310" rx="84.49" ry="18"/>
<text text-anchor="middle" x="334.92" y="-306.3" font-family="Helvetica,sans-Serif" font-size="14.00">InputWorkspace</text>
</g>
<!-- rebinToWs -->
<g id="node7" class="node">
<title>rebinToWs</title>
<path fill="lightskyblue" stroke="black" d="M318.92,-182C318.92,-182 172.92,-182 172.92,-182 166.92,-182 160.92,-176 160.92,-170 160.92,-170 160.92,-158 160.92,-158 160.92,-152 166.92,-146 172.92,-146 172.92,-146 318.92,-146 318.92,-146 324.92,-146 330.92,-152 330.92,-158 330.92,-158 330.92,-170 330.92,-170 330.92,-176 324.92,-182 318.92,-182"/>
<text text-anchor="middle" x="245.92" y="-160.3" font-family="Helvetica,sans-Serif" font-size="14.00">RebinToWorkspace v1</text>
</g>
<!-- inputWS&#45;&gt;rebinToWs -->
<g id="edge6" class="edge">
<title>inputWS&#45;&gt;rebinToWs</title>
<path fill="none" stroke="black" d="M324.37,-291.92C308.91,-266.91 280,-220.14 261.93,-190.89"/>
<polygon fill="black" stroke="black" points="264.7,-188.73 256.47,-182.06 258.75,-192.41 264.7,-188.73"/>
</g>
<!-- inputWS&#45;&gt;rebinToWs2 -->
<g id="edge8" class="edge">
<title>inputWS&#45;&gt;rebinToWs2</title>
<path fill="none" stroke="black" d="M365.89,-293.07C385,-283.24 409.76,-270.5 430.66,-259.75"/>
<polygon fill="black" stroke="black" points="432.36,-262.81 439.65,-255.12 429.15,-256.58 432.36,-262.81"/>
</g>
<!-- divide -->
<g id="node9" class="node">
<title>divide</title>
<path fill="lightskyblue" stroke="black" d="M418.92,-182C418.92,-182 360.92,-182 360.92,-182 354.92,-182 348.92,-176 348.92,-170 348.92,-170 348.92,-158 348.92,-158 348.92,-152 354.92,-146 360.92,-146 360.92,-146 418.92,-146 418.92,-146 424.92,-146 430.92,-152 430.92,-158 430.92,-158 430.92,-170 430.92,-170 430.92,-176 424.92,-182 418.92,-182"/>
<text text-anchor="middle" x="389.92" y="-160.3" font-family="Helvetica,sans-Serif" font-size="14.00">Divide v1</text>
</g>
<!-- inputWS&#45;&gt;divide -->
<g id="edge11" class="edge">
<title>inputWS&#45;&gt;divide</title>
<path fill="none" stroke="black" d="M341.45,-291.92C350.92,-267.12 368.56,-220.95 379.74,-191.66"/>
<polygon fill="black" stroke="black" points="383.11,-192.65 383.41,-182.06 376.57,-190.15 383.11,-192.65"/>
</g>
<!-- outputWS -->
<g id="node4" class="node">
<title>outputWS</title>
<ellipse fill="khaki" stroke="black" cx="316.92" cy="-18" rx="92.08" ry="18"/>
<text text-anchor="middle" x="316.92" y="-14.3" font-family="Helvetica,sans-Serif" font-size="14.00">OutputWorkspace</text>
</g>
<!-- isEntryName -->
<g id="node5" class="node">
<title>isEntryName</title>
<polygon fill="limegreen" stroke="black" points="125.92,-488 0.08,-470 125.92,-452 251.77,-470 125.92,-488"/>
<text text-anchor="middle" x="125.92" y="-466.3" font-family="Helvetica,sans-Serif" font-size="14.00">Has Entry Name?</text>
</g>
<!-- isEntryName&#45;&gt;flexRefWS -->
<g id="edge2" class="edge">
<title>isEntryName&#45;&gt;flexRefWS</title>
<path fill="none" stroke="black" d="M132.69,-452.91C134.81,-447.06 136.87,-440.34 137.92,-434 143.34,-401.52 142.23,-363.55 140.49,-338.48"/>
<polygon fill="black" stroke="black" points="143.96,-337.96 139.7,-328.26 136.98,-338.5 143.96,-337.96"/>
<text text-anchor="middle" x="218.92" y="-379.3" font-family="Helvetica,sans-Serif" font-size="14.00">No. Empty Workspace</text>
</g>
<!-- load -->
<g id="node11" class="node">
<title>load</title>
<path fill="lightskyblue" stroke="black" d="M113.42,-401C113.42,-401 66.42,-401 66.42,-401 60.42,-401 54.42,-395 54.42,-389 54.42,-389 54.42,-377 54.42,-377 54.42,-371 60.42,-365 66.42,-365 66.42,-365 113.42,-365 113.42,-365 119.42,-365 125.42,-371 125.42,-377 125.42,-377 125.42,-389 125.42,-389 125.42,-395 119.42,-401 113.42,-401"/>
<text text-anchor="middle" x="89.92" y="-379.3" font-family="Helvetica,sans-Serif" font-size="14.00">Load v1</text>
</g>
<!-- isEntryName&#45;&gt;load -->
<g id="edge1" class="edge">
<title>isEntryName&#45;&gt;load</title>
<path fill="none" stroke="black" d="M118.98,-452.61C113.95,-440.73 107.04,-424.41 101.22,-410.67"/>
<polygon fill="black" stroke="black" points="104.34,-409.06 97.22,-401.21 97.89,-411.79 104.34,-409.06"/>
<text text-anchor="middle" x="122.42" y="-422.8" font-family="Helvetica,sans-Serif" font-size="14.00">Yes</text>
</g>
<!-- convertToHist&#45;&gt;rebinToWs -->
<g id="edge5" class="edge">
<title>convertToHist&#45;&gt;rebinToWs</title>
<path fill="none" stroke="black" d="M189.84,-218.81C199.11,-209.92 210.58,-198.91 220.73,-189.17"/>
<polygon fill="black" stroke="black" points="223.38,-191.48 228.18,-182.03 218.54,-186.43 223.38,-191.48"/>
</g>
<!-- divide2 -->
<g id="node10" class="node">
<title>divide2</title>
<path fill="lightskyblue" stroke="black" d="M345.92,-109C345.92,-109 287.92,-109 287.92,-109 281.92,-109 275.92,-103 275.92,-97 275.92,-97 275.92,-85 275.92,-85 275.92,-79 281.92,-73 287.92,-73 287.92,-73 345.92,-73 345.92,-73 351.92,-73 357.92,-79 357.92,-85 357.92,-85 357.92,-97 357.92,-97 357.92,-103 351.92,-109 345.92,-109"/>
<text text-anchor="middle" x="316.92" y="-87.3" font-family="Helvetica,sans-Serif" font-size="14.00">Divide v1</text>
</g>
<!-- rebinToWs&#45;&gt;divide2 -->
<g id="edge7" class="edge">
<title>rebinToWs&#45;&gt;divide2</title>
<path fill="none" stroke="black" d="M263.11,-145.81C272.01,-136.92 283.02,-125.91 292.75,-116.17"/>
<polygon fill="black" stroke="black" points="295.3,-118.57 299.9,-109.03 290.35,-113.63 295.3,-118.57"/>
</g>
<!-- rebinToWs2&#45;&gt;divide -->
<g id="edge10" class="edge">
<title>rebinToWs2&#45;&gt;divide</title>
<path fill="none" stroke="black" d="M452.83,-218.81C442.23,-209.74 429.06,-198.48 417.51,-188.6"/>
<polygon fill="black" stroke="black" points="419.71,-185.87 409.83,-182.03 415.16,-191.19 419.71,-185.87"/>
</g>
<!-- divide&#45;&gt;divide2 -->
<g id="edge12" class="edge">
<title>divide&#45;&gt;divide2</title>
<path fill="none" stroke="black" d="M372.25,-145.81C363.11,-136.92 351.79,-125.91 341.78,-116.17"/>
<polygon fill="black" stroke="black" points="344.04,-113.49 334.43,-109.03 339.16,-118.51 344.04,-113.49"/>
</g>
<!-- divide2&#45;&gt;outputWS -->
<g id="edge13" class="edge">
<title>divide2&#45;&gt;outputWS</title>
<path fill="none" stroke="black" d="M316.92,-72.81C316.92,-64.79 316.92,-55.05 316.92,-46.07"/>
<polygon fill="black" stroke="black" points="320.42,-46.03 316.92,-36.03 313.42,-46.03 320.42,-46.03"/>
</g>
<!-- load&#45;&gt;flexRefWS -->
<g id="edge3" class="edge">
<title>load&#45;&gt;flexRefWS</title>
<path fill="none" stroke="black" d="M101.54,-364.81C107.32,-356.27 114.42,-345.77 120.8,-336.32"/>
<polygon fill="black" stroke="black" points="123.71,-338.27 126.41,-328.03 117.91,-334.35 123.71,-338.27"/>
</g>
</g>
</svg>
